<?xml version="1.0" encoding="UTF-8" standalone="no"?>
<!DOCTYPE svg PUBLIC "-//W3C//DTD SVG 1.1//EN"
 "http://www.w3.org/Graphics/SVG/1.1/DTD/svg11.dtd">
<!-- Generated by graphviz version 5.0.1 (0)
 -->
<!-- Title: AngularMomentum.hpp Pages: 1 -->
<svg width="477pt" height="196pt"
 viewBox="0.00 0.00 476.96 196.00" xmlns="http://www.w3.org/2000/svg" xmlns:xlink="http://www.w3.org/1999/xlink">
<g id="graph0" class="graph" transform="scale(1 1) rotate(0) translate(4 192)">
<title>AngularMomentum.hpp</title>
<!-- Node1 -->
<g id="node1" class="node">
<title>Node1</title>
<g id="a_node1"><a xlink:title=" ">
<polygon fill="#bfbfbf" stroke="black" points="169,-168.5 169,-187.5 300,-187.5 300,-168.5 169,-168.5"/>
<text text-anchor="middle" x="234.5" y="-175.5" font-family="Helvetica,sans-Serif" font-size="10.00">AngularMomentum.hpp</text>
</a>
</g>
</g>
<!-- Node2 -->
<g id="node2" class="node">
<title>Node2</title>
<g id="a_node2"><a xlink:href="AngularMomentum_8cxx.html" target="_top" xlink:title=" ">
<polygon fill="none" stroke="black" points="0,-112.5 0,-131.5 131,-131.5 131,-112.5 0,-112.5"/>
<text text-anchor="middle" x="65.5" y="-119.5" font-family="Helvetica,sans-Serif" font-size="10.00">AngularMomentum.cxx</text>
</a>
</g>
</g>
<!-- Node1&#45;&gt;Node2 -->
<g id="edge1" class="edge">
<title>Node1&#45;&gt;Node2</title>
<path fill="none" stroke="midnightblue" d="M197.9,-165.3C166.05,-155.13 120.66,-140.62 92.15,-131.52"/>
<polygon fill="midnightblue" stroke="midnightblue" points="197.13,-168.73 207.72,-168.44 199.26,-162.07 197.13,-168.73"/>
</g>
<!-- Node3 -->
<g id="node3" class="node">
<title>Node3</title>
<g id="a_node3"><a xlink:href="BasisParser_8cxx.html" target="_top" xlink:title=" ">
<polygon fill="none" stroke="black" points="188.5,-0.5 188.5,-19.5 280.5,-19.5 280.5,-0.5 188.5,-0.5"/>
<text text-anchor="middle" x="234.5" y="-7.5" font-family="Helvetica,sans-Serif" font-size="10.00">BasisParser.cxx</text>
</a>
</g>
</g>
<!-- Node1&#45;&gt;Node3 -->
<g id="edge2" class="edge">
<title>Node1&#45;&gt;Node3</title>
<path fill="none" stroke="midnightblue" d="M221.88,-160.19C208.34,-141 187.67,-108.09 179.5,-76 177.31,-67.39 175.69,-64.03 179.5,-56 187.27,-39.61 204.25,-27.21 217.3,-19.61"/>
<polygon fill="midnightblue" stroke="midnightblue" points="219.17,-162.41 227.87,-168.44 224.84,-158.3 219.17,-162.41"/>
</g>
<!-- Node4 -->
<g id="node4" class="node">
<title>Node4</title>
<g id="a_node4"><a xlink:href="BasisParser_8hpp.html" target="_top" xlink:title=" ">
<polygon fill="none" stroke="black" points="188,-56.5 188,-75.5 281,-75.5 281,-56.5 188,-56.5"/>
<text text-anchor="middle" x="234.5" y="-63.5" font-family="Helvetica,sans-Serif" font-size="10.00">BasisParser.hpp</text>
</a>
</g>
</g>
<!-- Node1&#45;&gt;Node4 -->
<g id="edge3" class="edge">
<title>Node1&#45;&gt;Node4</title>
<path fill="none" stroke="midnightblue" d="M234.5,-158.35C234.5,-134.25 234.5,-93.31 234.5,-75.59"/>
<polygon fill="midnightblue" stroke="midnightblue" points="231,-158.37 234.5,-168.37 238,-158.37 231,-158.37"/>
</g>
<!-- Node5 -->
<g id="node5" class="node">
<title>Node5</title>
<g id="a_node5"><a xlink:href="MoReader_8cxx.html" target="_top" xlink:title=" ">
<polygon fill="none" stroke="black" points="304.5,-0.5 304.5,-19.5 390.5,-19.5 390.5,-0.5 304.5,-0.5"/>
<text text-anchor="middle" x="347.5" y="-7.5" font-family="Helvetica,sans-Serif" font-size="10.00">MoReader.cxx</text>
</a>
</g>
</g>
<!-- Node1&#45;&gt;Node5 -->
<g id="edge11" class="edge">
<title>Node1&#45;&gt;Node5</title>
<path fill="none" stroke="midnightblue" d="M309.93,-166.7C363.78,-154.87 432.18,-129.62 464.5,-76 483.99,-43.66 431.59,-26.19 390.72,-17.74"/>
<polygon fill="midnightblue" stroke="midnightblue" points="309.13,-163.29 300.05,-168.75 310.56,-170.14 309.13,-163.29"/>
</g>
<!-- Node6 -->
<g id="node6" class="node">
<title>Node6</title>
<g id="a_node6"><a xlink:href="BasisSet_8hpp.html" target="_top" xlink:title=" ">
<polygon fill="none" stroke="black" points="269.5,-112.5 269.5,-131.5 349.5,-131.5 349.5,-112.5 269.5,-112.5"/>
<text text-anchor="middle" x="309.5" y="-119.5" font-family="Helvetica,sans-Serif" font-size="10.00">BasisSet.hpp</text>
</a>
</g>
</g>
<!-- Node1&#45;&gt;Node6 -->
<g id="edge6" class="edge">
<title>Node1&#45;&gt;Node6</title>
<path fill="none" stroke="midnightblue" d="M254.81,-162.38C268.36,-152.62 285.74,-140.11 297.23,-131.83"/>
<polygon fill="midnightblue" stroke="midnightblue" points="252.62,-159.64 246.55,-168.32 256.71,-165.32 252.62,-159.64"/>
</g>
<!-- Node4&#45;&gt;Node3 -->
<g id="edge4" class="edge">
<title>Node4&#45;&gt;Node3</title>
<path fill="none" stroke="midnightblue" d="M234.5,-45.8C234.5,-36.91 234.5,-26.78 234.5,-19.75"/>
<polygon fill="midnightblue" stroke="midnightblue" points="231,-46.08 234.5,-56.08 238,-46.08 231,-46.08"/>
</g>
<!-- Node4&#45;&gt;Node5 -->
<g id="edge5" class="edge">
<title>Node4&#45;&gt;Node5</title>
<path fill="none" stroke="midnightblue" d="M261.5,-52.1C282.61,-42.01 311.36,-28.27 329.68,-19.52"/>
<polygon fill="midnightblue" stroke="midnightblue" points="259.92,-48.97 252.41,-56.44 262.94,-55.29 259.92,-48.97"/>
</g>
<!-- Node6&#45;&gt;Node3 -->
<g id="edge7" class="edge">
<title>Node6&#45;&gt;Node3</title>
<path fill="none" stroke="midnightblue" d="M307.08,-102.12C304.62,-88.41 299.79,-69.9 290.5,-56 280.04,-40.34 262.43,-27.5 249.75,-19.6"/>
<polygon fill="midnightblue" stroke="midnightblue" points="303.67,-102.95 308.64,-112.31 310.59,-101.89 303.67,-102.95"/>
</g>
<!-- Node6&#45;&gt;Node4 -->
<g id="edge8" class="edge">
<title>Node6&#45;&gt;Node4</title>
<path fill="none" stroke="midnightblue" d="M289.19,-106.38C275.64,-96.62 258.26,-84.11 246.77,-75.83"/>
<polygon fill="midnightblue" stroke="midnightblue" points="287.29,-109.32 297.45,-112.32 291.38,-103.64 287.29,-109.32"/>
</g>
<!-- Node6&#45;&gt;Node5 -->
<g id="edge10" class="edge">
<title>Node6&#45;&gt;Node5</title>
<path fill="none" stroke="midnightblue" d="M315.83,-102.67C324.14,-78.62 338.38,-37.39 344.53,-19.59"/>
<polygon fill="midnightblue" stroke="midnightblue" points="312.44,-101.77 312.48,-112.37 319.06,-104.06 312.44,-101.77"/>
</g>
<!-- Node7 -->
<g id="node7" class="node">
<title>Node7</title>
<g id="a_node7"><a xlink:href="BasisSet_8cxx.html" target="_top" xlink:title=" ">
<polygon fill="none" stroke="black" points="376,-56.5 376,-75.5 455,-75.5 455,-56.5 376,-56.5"/>
<text text-anchor="middle" x="415.5" y="-63.5" font-family="Helvetica,sans-Serif" font-size="10.00">BasisSet.cxx</text>
</a>
</g>
</g>
<!-- Node6&#45;&gt;Node7 -->
<g id="edge9" class="edge">
<title>Node6&#45;&gt;Node7</title>
<path fill="none" stroke="midnightblue" d="M335.56,-107.73C355.18,-97.73 381.53,-84.31 398.51,-75.65"/>
<polygon fill="midnightblue" stroke="midnightblue" points="333.85,-104.67 326.53,-112.32 337.03,-110.9 333.85,-104.67"/>
</g>
</g>
</svg>
