<?xml version="1.0" encoding="UTF-8" standalone="no"?>
<!DOCTYPE svg PUBLIC "-//W3C//DTD SVG 1.1//EN"
 "http://www.w3.org/Graphics/SVG/1.1/DTD/svg11.dtd">
<!-- Generated by graphviz version 5.0.1 (0)
 -->
<!-- Title: BasisSetExtrapolation.hpp Pages: 1 -->
<svg width="885pt" height="308pt"
 viewBox="0.00 0.00 884.85 308.00" xmlns="http://www.w3.org/2000/svg" xmlns:xlink="http://www.w3.org/1999/xlink">
<g id="graph0" class="graph" transform="scale(1 1) rotate(0) translate(4 304)">
<title>BasisSetExtrapolation.hpp</title>
<!-- Node1 -->
<g id="node1" class="node">
<title>Node1</title>
<g id="a_node1"><a xlink:title=" ">
<polygon fill="#bfbfbf" stroke="black" points="712,-280.5 712,-299.5 857,-299.5 857,-280.5 712,-280.5"/>
<text text-anchor="middle" x="784.5" y="-287.5" font-family="Helvetica,sans-Serif" font-size="10.00">BasisSetExtrapolation.hpp</text>
</a>
</g>
</g>
<!-- Node2 -->
<g id="node2" class="node">
<title>Node2</title>
<g id="a_node2"><a xlink:href="Algorithm_8hpp.html" target="_top" xlink:title=" ">
<polygon fill="none" stroke="black" points="714,-224.5 714,-243.5 855,-243.5 855,-224.5 714,-224.5"/>
<text text-anchor="middle" x="784.5" y="-231.5" font-family="Helvetica,sans-Serif" font-size="10.00">algorithms/Algorithm.hpp</text>
</a>
</g>
</g>
<!-- Node1&#45;&gt;Node2 -->
<g id="edge1" class="edge">
<title>Node1&#45;&gt;Node2</title>
<path fill="none" stroke="midnightblue" d="M784.5,-280.08C784.5,-273.01 784.5,-262.86 784.5,-253.99"/>
<polygon fill="midnightblue" stroke="midnightblue" points="788,-253.75 784.5,-243.75 781,-253.75 788,-253.75"/>
</g>
<!-- Node20 -->
<g id="node20" class="node">
<title>Node20</title>
<g id="a_node20"><a xlink:title=" ">
<polygon fill="none" stroke="#bfbfbf" points="813,-112.5 813,-131.5 860,-131.5 860,-112.5 813,-112.5"/>
<text text-anchor="middle" x="836.5" y="-119.5" font-family="Helvetica,sans-Serif" font-size="10.00">vector</text>
</a>
</g>
</g>
<!-- Node1&#45;&gt;Node20 -->
<g id="edge41" class="edge">
<title>Node1&#45;&gt;Node20</title>
<path fill="none" stroke="midnightblue" d="M814.75,-280.49C832.63,-273.73 853.8,-262.29 864.5,-244 884.01,-210.64 862.48,-164.69 847.81,-140.13"/>
<polygon fill="midnightblue" stroke="midnightblue" points="850.72,-138.17 842.44,-131.55 844.78,-141.89 850.72,-138.17"/>
</g>
<!-- Node24 -->
<g id="node24" class="node">
<title>Node24</title>
<g id="a_node24"><a xlink:href="Vector_8hpp.html" target="_top" xlink:title=" ">
<polygon fill="none" stroke="black" points="256.5,-224.5 256.5,-243.5 352.5,-243.5 352.5,-224.5 256.5,-224.5"/>
<text text-anchor="middle" x="304.5" y="-231.5" font-family="Helvetica,sans-Serif" font-size="10.00">math/Vector.hpp</text>
</a>
</g>
</g>
<!-- Node1&#45;&gt;Node24 -->
<g id="edge33" class="edge">
<title>Node1&#45;&gt;Node24</title>
<path fill="none" stroke="midnightblue" d="M711.86,-280.83C616.31,-270.08 450.3,-251.4 362.61,-241.54"/>
<polygon fill="midnightblue" stroke="midnightblue" points="362.9,-238.05 352.58,-240.41 362.12,-245 362.9,-238.05"/>
</g>
<!-- Node3 -->
<g id="node3" class="node">
<title>Node3</title>
<g id="a_node3"><a xlink:href="Data_8hpp.html" target="_top" xlink:title=" ">
<polygon fill="none" stroke="black" points="542,-168.5 542,-187.5 603,-187.5 603,-168.5 542,-168.5"/>
<text text-anchor="middle" x="572.5" y="-175.5" font-family="Helvetica,sans-Serif" font-size="10.00">Data.hpp</text>
</a>
</g>
</g>
<!-- Node2&#45;&gt;Node3 -->
<g id="edge2" class="edge">
<title>Node2&#45;&gt;Node3</title>
<path fill="none" stroke="midnightblue" d="M750.91,-224.44C713.45,-214.9 652.89,-199.48 612.88,-189.29"/>
<polygon fill="midnightblue" stroke="midnightblue" points="613.74,-185.89 603.18,-186.82 612.01,-192.68 613.74,-185.89"/>
</g>
<!-- Node10 -->
<g id="node10" class="node">
<title>Node10</title>
<g id="a_node10"><a xlink:title=" ">
<polygon fill="none" stroke="#bfbfbf" points="588.5,-0.5 588.5,-19.5 644.5,-19.5 644.5,-0.5 588.5,-0.5"/>
<text text-anchor="middle" x="616.5" y="-7.5" font-family="Helvetica,sans-Serif" font-size="10.00">sstream</text>
</a>
</g>
</g>
<!-- Node2&#45;&gt;Node10 -->
<g id="edge31" class="edge">
<title>Node2&#45;&gt;Node10</title>
<path fill="none" stroke="midnightblue" d="M799.06,-224.27C830.22,-204.45 898.3,-154.51 869.5,-112 821.05,-40.49 712.97,-19.61 654.99,-13.51"/>
<polygon fill="midnightblue" stroke="midnightblue" points="655.06,-10 644.78,-12.54 654.4,-16.97 655.06,-10"/>
</g>
<!-- Node12 -->
<g id="node12" class="node">
<title>Node12</title>
<g id="a_node12"><a xlink:title=" ">
<polygon fill="none" stroke="#bfbfbf" points="644.5,-56.5 644.5,-75.5 688.5,-75.5 688.5,-56.5 644.5,-56.5"/>
<text text-anchor="middle" x="666.5" y="-63.5" font-family="Helvetica,sans-Serif" font-size="10.00">string</text>
</a>
</g>
</g>
<!-- Node2&#45;&gt;Node12 -->
<g id="edge29" class="edge">
<title>Node2&#45;&gt;Node12</title>
<path fill="none" stroke="midnightblue" d="M783.65,-224.39C781.16,-203.08 772.1,-147.06 743.5,-112 731.58,-97.39 713.59,-86.5 697.99,-79.1"/>
<polygon fill="midnightblue" stroke="midnightblue" points="699.22,-75.82 688.67,-74.94 696.37,-82.21 699.22,-75.82"/>
</g>
<!-- Node2&#45;&gt;Node20 -->
<g id="edge30" class="edge">
<title>Node2&#45;&gt;Node20</title>
<path fill="none" stroke="midnightblue" d="M788.58,-224.37C797.05,-206.46 816.68,-164.92 828.02,-140.95"/>
<polygon fill="midnightblue" stroke="midnightblue" points="831.33,-142.13 832.44,-131.59 825,-139.14 831.33,-142.13"/>
</g>
<!-- Node21 -->
<g id="node21" class="node">
<title>Node21</title>
<g id="a_node21"><a xlink:href="CTF_8hpp.html" target="_top" xlink:title=" ">
<polygon fill="none" stroke="black" points="170.5,-112.5 170.5,-131.5 244.5,-131.5 244.5,-112.5 170.5,-112.5"/>
<text text-anchor="middle" x="207.5" y="-119.5" font-family="Helvetica,sans-Serif" font-size="10.00">util/CTF.hpp</text>
</a>
</g>
</g>
<!-- Node2&#45;&gt;Node21 -->
<g id="edge32" class="edge">
<title>Node2&#45;&gt;Node21</title>
<path fill="none" stroke="midnightblue" d="M713.81,-231.72C572.08,-228.51 263.5,-218.13 226.5,-188 212.99,-177 208.75,-156.95 207.58,-142.01"/>
<polygon fill="midnightblue" stroke="midnightblue" points="211.07,-141.68 207.18,-131.82 204.08,-141.95 211.07,-141.68"/>
</g>
<!-- Node4 -->
<g id="node4" class="node">
<title>Node4</title>
<g id="a_node4"><a xlink:href="Log_8hpp.html" target="_top" xlink:title=" ">
<polygon fill="none" stroke="black" points="262.5,-112.5 262.5,-131.5 336.5,-131.5 336.5,-112.5 262.5,-112.5"/>
<text text-anchor="middle" x="299.5" y="-119.5" font-family="Helvetica,sans-Serif" font-size="10.00">util/Log.hpp</text>
</a>
</g>
</g>
<!-- Node3&#45;&gt;Node4 -->
<g id="edge3" class="edge">
<title>Node3&#45;&gt;Node4</title>
<path fill="none" stroke="midnightblue" d="M541.98,-170.96C494.56,-161.58 402.84,-143.44 346.8,-132.36"/>
<polygon fill="midnightblue" stroke="midnightblue" points="347.26,-128.88 336.77,-130.37 345.9,-135.75 347.26,-128.88"/>
</g>
<!-- Node3&#45;&gt;Node12 -->
<g id="edge20" class="edge">
<title>Node3&#45;&gt;Node12</title>
<path fill="none" stroke="midnightblue" d="M603.07,-172.51C643.83,-165.83 712.57,-151.89 727.5,-132 741.88,-112.86 716.61,-93.12 694.35,-80.49"/>
<polygon fill="midnightblue" stroke="midnightblue" points="695.9,-77.35 685.44,-75.69 692.59,-83.51 695.9,-77.35"/>
</g>
<!-- Node16 -->
<g id="node16" class="node">
<title>Node16</title>
<g id="a_node16"><a xlink:href="Float_8hpp.html" target="_top" xlink:title=" ">
<polygon fill="none" stroke="black" points="497,-56.5 497,-75.5 588,-75.5 588,-56.5 497,-56.5"/>
<text text-anchor="middle" x="542.5" y="-63.5" font-family="Helvetica,sans-Serif" font-size="10.00">math/Float.hpp</text>
</a>
</g>
</g>
<!-- Node3&#45;&gt;Node16 -->
<g id="edge15" class="edge">
<title>Node3&#45;&gt;Node16</title>
<path fill="none" stroke="midnightblue" d="M552.59,-168.41C538.28,-161.04 520.04,-148.92 511.5,-132 503.19,-115.55 514.73,-96.49 526.01,-83.28"/>
<polygon fill="midnightblue" stroke="midnightblue" points="528.62,-85.62 532.83,-75.89 523.48,-80.87 528.62,-85.62"/>
</g>
<!-- Node17 -->
<g id="node17" class="node">
<title>Node17</title>
<g id="a_node17"><a xlink:href="Complex_8hpp.html" target="_top" xlink:title=" ">
<polygon fill="none" stroke="black" points="354.5,-112.5 354.5,-131.5 464.5,-131.5 464.5,-112.5 354.5,-112.5"/>
<text text-anchor="middle" x="409.5" y="-119.5" font-family="Helvetica,sans-Serif" font-size="10.00">math/Complex.hpp</text>
</a>
</g>
</g>
<!-- Node3&#45;&gt;Node17 -->
<g id="edge17" class="edge">
<title>Node3&#45;&gt;Node17</title>
<path fill="none" stroke="midnightblue" d="M546.67,-168.44C519.25,-159.36 475.72,-144.94 445.07,-134.78"/>
<polygon fill="midnightblue" stroke="midnightblue" points="445.8,-131.34 435.21,-131.52 443.6,-137.98 445.8,-131.34"/>
</g>
<!-- Node19 -->
<g id="node19" class="node">
<title>Node19</title>
<g id="a_node19"><a xlink:title=" ">
<polygon fill="none" stroke="#bfbfbf" points="680.5,-112.5 680.5,-131.5 718.5,-131.5 718.5,-112.5 680.5,-112.5"/>
<text text-anchor="middle" x="699.5" y="-119.5" font-family="Helvetica,sans-Serif" font-size="10.00">map</text>
</a>
</g>
</g>
<!-- Node3&#45;&gt;Node19 -->
<g id="edge21" class="edge">
<title>Node3&#45;&gt;Node19</title>
<path fill="none" stroke="midnightblue" d="M592.62,-168.44C613.77,-159.45 647.21,-145.23 671.05,-135.1"/>
<polygon fill="midnightblue" stroke="midnightblue" points="672.47,-138.3 680.3,-131.16 669.73,-131.86 672.47,-138.3"/>
</g>
<!-- Node3&#45;&gt;Node20 -->
<g id="edge22" class="edge">
<title>Node3&#45;&gt;Node20</title>
<path fill="none" stroke="midnightblue" d="M603.04,-170.75C652.82,-160.57 751.06,-140.48 802.81,-129.89"/>
<polygon fill="midnightblue" stroke="midnightblue" points="803.71,-133.28 812.81,-127.85 802.31,-126.42 803.71,-133.28"/>
</g>
<!-- Node3&#45;&gt;Node21 -->
<g id="edge23" class="edge">
<title>Node3&#45;&gt;Node21</title>
<path fill="none" stroke="midnightblue" d="M541.62,-173.2C486.24,-166.26 366.15,-150.67 254.69,-132.13"/>
<polygon fill="midnightblue" stroke="midnightblue" points="255.07,-128.64 244.63,-130.44 253.91,-135.54 255.07,-128.64"/>
</g>
<!-- Node23 -->
<g id="node23" class="node">
<title>Node23</title>
<g id="a_node23"><a xlink:href="Exception_8hpp.html" target="_top" xlink:title=" ">
<polygon fill="none" stroke="black" points="520.5,-112.5 520.5,-131.5 624.5,-131.5 624.5,-112.5 520.5,-112.5"/>
<text text-anchor="middle" x="572.5" y="-119.5" font-family="Helvetica,sans-Serif" font-size="10.00">util/Exception.hpp</text>
</a>
</g>
</g>
<!-- Node3&#45;&gt;Node23 -->
<g id="edge25" class="edge">
<title>Node3&#45;&gt;Node23</title>
<path fill="none" stroke="midnightblue" d="M572.5,-168.08C572.5,-161.01 572.5,-150.86 572.5,-141.99"/>
<polygon fill="midnightblue" stroke="midnightblue" points="576,-141.75 572.5,-131.75 569,-141.75 576,-141.75"/>
</g>
<!-- Node5 -->
<g id="node5" class="node">
<title>Node5</title>
<g id="a_node5"><a xlink:href="Time_8hpp.html" target="_top" xlink:title=" ">
<polygon fill="none" stroke="black" points="157,-56.5 157,-75.5 238,-75.5 238,-56.5 157,-56.5"/>
<text text-anchor="middle" x="197.5" y="-63.5" font-family="Helvetica,sans-Serif" font-size="10.00">util/Time.hpp</text>
</a>
</g>
</g>
<!-- Node4&#45;&gt;Node5 -->
<g id="edge4" class="edge">
<title>Node4&#45;&gt;Node5</title>
<path fill="none" stroke="midnightblue" d="M283.11,-112.32C266.83,-103.7 241.63,-90.36 222.78,-80.39"/>
<polygon fill="midnightblue" stroke="midnightblue" points="224.32,-77.24 213.85,-75.65 221.05,-83.43 224.32,-77.24"/>
</g>
<!-- Node4&#45;&gt;Node12 -->
<g id="edge11" class="edge">
<title>Node4&#45;&gt;Node12</title>
<path fill="none" stroke="midnightblue" d="M336.63,-113.56C339.62,-113.01 342.61,-112.48 345.5,-112 400.8,-102.72 564.5,-80.62 634.34,-71.28"/>
<polygon fill="midnightblue" stroke="midnightblue" points="634.88,-74.74 644.33,-69.95 633.95,-67.8 634.88,-74.74"/>
</g>
<!-- Node13 -->
<g id="node13" class="node">
<title>Node13</title>
<g id="a_node13"><a xlink:title=" ">
<polygon fill="none" stroke="#bfbfbf" points="256.5,-56.5 256.5,-75.5 316.5,-75.5 316.5,-56.5 256.5,-56.5"/>
<text text-anchor="middle" x="286.5" y="-63.5" font-family="Helvetica,sans-Serif" font-size="10.00">iostream</text>
</a>
</g>
</g>
<!-- Node4&#45;&gt;Node13 -->
<g id="edge12" class="edge">
<title>Node4&#45;&gt;Node13</title>
<path fill="none" stroke="midnightblue" d="M297.35,-112.08C295.63,-104.93 293.15,-94.64 291,-85.69"/>
<polygon fill="midnightblue" stroke="midnightblue" points="294.35,-84.65 288.61,-75.75 287.54,-86.29 294.35,-84.65"/>
</g>
<!-- Node14 -->
<g id="node14" class="node">
<title>Node14</title>
<g id="a_node14"><a xlink:title=" ">
<polygon fill="none" stroke="#bfbfbf" points="335,-56.5 335,-75.5 402,-75.5 402,-56.5 335,-56.5"/>
<text text-anchor="middle" x="368.5" y="-63.5" font-family="Helvetica,sans-Serif" font-size="10.00">streambuf</text>
</a>
</g>
</g>
<!-- Node4&#45;&gt;Node14 -->
<g id="edge13" class="edge">
<title>Node4&#45;&gt;Node14</title>
<path fill="none" stroke="midnightblue" d="M310.59,-112.32C320.99,-104.18 336.76,-91.84 349.22,-82.09"/>
<polygon fill="midnightblue" stroke="midnightblue" points="351.49,-84.75 357.21,-75.83 347.18,-79.24 351.49,-84.75"/>
</g>
<!-- Node15 -->
<g id="node15" class="node">
<title>Node15</title>
<g id="a_node15"><a xlink:title=" ">
<polygon fill="none" stroke="#bfbfbf" points="84,-56.5 84,-75.5 139,-75.5 139,-56.5 84,-56.5"/>
<text text-anchor="middle" x="111.5" y="-63.5" font-family="Helvetica,sans-Serif" font-size="10.00">fstream</text>
</a>
</g>
</g>
<!-- Node4&#45;&gt;Node15 -->
<g id="edge14" class="edge">
<title>Node4&#45;&gt;Node15</title>
<path fill="none" stroke="midnightblue" d="M269.71,-112.44C237.01,-103.05 184.45,-87.95 148.98,-77.77"/>
<polygon fill="midnightblue" stroke="midnightblue" points="149.59,-74.3 139.01,-74.9 147.65,-81.03 149.59,-74.3"/>
</g>
<!-- Node6 -->
<g id="node6" class="node">
<title>Node6</title>
<g id="a_node6"><a xlink:title=" ">
<polygon fill="none" stroke="#bfbfbf" points="175.5,-0.5 175.5,-19.5 219.5,-19.5 219.5,-0.5 175.5,-0.5"/>
<text text-anchor="middle" x="197.5" y="-7.5" font-family="Helvetica,sans-Serif" font-size="10.00">ctime</text>
</a>
</g>
</g>
<!-- Node5&#45;&gt;Node6 -->
<g id="edge5" class="edge">
<title>Node5&#45;&gt;Node6</title>
<path fill="none" stroke="midnightblue" d="M197.5,-56.08C197.5,-49.01 197.5,-38.86 197.5,-29.99"/>
<polygon fill="midnightblue" stroke="midnightblue" points="201,-29.75 197.5,-19.75 194,-29.75 201,-29.75"/>
</g>
<!-- Node7 -->
<g id="node7" class="node">
<title>Node7</title>
<g id="a_node7"><a xlink:title=" ">
<polygon fill="none" stroke="#bfbfbf" points="237.5,-0.5 237.5,-19.5 287.5,-19.5 287.5,-0.5 237.5,-0.5"/>
<text text-anchor="middle" x="262.5" y="-7.5" font-family="Helvetica,sans-Serif" font-size="10.00">cstdint</text>
</a>
</g>
</g>
<!-- Node5&#45;&gt;Node7 -->
<g id="edge6" class="edge">
<title>Node5&#45;&gt;Node7</title>
<path fill="none" stroke="midnightblue" d="M207.94,-56.32C217.65,-48.26 232.32,-36.08 244,-26.37"/>
<polygon fill="midnightblue" stroke="midnightblue" points="246.41,-28.92 251.87,-19.83 241.94,-23.53 246.41,-28.92"/>
</g>
<!-- Node8 -->
<g id="node8" class="node">
<title>Node8</title>
<g id="a_node8"><a xlink:title=" ">
<polygon fill="none" stroke="#bfbfbf" points="410,-0.5 410,-19.5 467,-19.5 467,-0.5 410,-0.5"/>
<text text-anchor="middle" x="438.5" y="-7.5" font-family="Helvetica,sans-Serif" font-size="10.00">ostream</text>
</a>
</g>
</g>
<!-- Node5&#45;&gt;Node8 -->
<g id="edge7" class="edge">
<title>Node5&#45;&gt;Node8</title>
<path fill="none" stroke="midnightblue" d="M235.69,-56.44C280.63,-46.37 354.84,-29.75 399.94,-19.64"/>
<polygon fill="midnightblue" stroke="midnightblue" points="400.93,-23 409.93,-17.4 399.4,-16.17 400.93,-23"/>
</g>
<!-- Node9 -->
<g id="node9" class="node">
<title>Node9</title>
<g id="a_node9"><a xlink:title=" ">
<polygon fill="none" stroke="#bfbfbf" points="101.5,-0.5 101.5,-19.5 157.5,-19.5 157.5,-0.5 101.5,-0.5"/>
<text text-anchor="middle" x="129.5" y="-7.5" font-family="Helvetica,sans-Serif" font-size="10.00">iomanip</text>
</a>
</g>
</g>
<!-- Node5&#45;&gt;Node9 -->
<g id="edge8" class="edge">
<title>Node5&#45;&gt;Node9</title>
<path fill="none" stroke="midnightblue" d="M186.57,-56.32C176.33,-48.18 160.78,-35.84 148.5,-26.09"/>
<polygon fill="midnightblue" stroke="midnightblue" points="150.63,-23.31 140.62,-19.83 146.28,-28.79 150.63,-23.31"/>
</g>
<!-- Node5&#45;&gt;Node10 -->
<g id="edge9" class="edge">
<title>Node5&#45;&gt;Node10</title>
<path fill="none" stroke="midnightblue" d="M238.13,-57.49C241.3,-56.96 244.45,-56.46 247.5,-56 367.74,-37.86 510.88,-22.05 578.07,-14.96"/>
<polygon fill="midnightblue" stroke="midnightblue" points="578.61,-18.42 588.19,-13.9 577.88,-11.46 578.61,-18.42"/>
</g>
<!-- Node11 -->
<g id="node11" class="node">
<title>Node11</title>
<g id="a_node11"><a xlink:title=" ">
<polygon fill="none" stroke="#bfbfbf" points="0,-0.5 0,-19.5 47,-19.5 47,-0.5 0,-0.5"/>
<text text-anchor="middle" x="23.5" y="-7.5" font-family="Helvetica,sans-Serif" font-size="10.00">cmath</text>
</a>
</g>
</g>
<!-- Node5&#45;&gt;Node11 -->
<g id="edge10" class="edge">
<title>Node5&#45;&gt;Node11</title>
<path fill="none" stroke="midnightblue" d="M169.93,-56.44C139.19,-46.9 89.48,-31.48 56.64,-21.29"/>
<polygon fill="midnightblue" stroke="midnightblue" points="57.62,-17.93 47.04,-18.3 55.55,-24.61 57.62,-17.93"/>
</g>
<!-- Node16&#45;&gt;Node8 -->
<g id="edge16" class="edge">
<title>Node16&#45;&gt;Node8</title>
<path fill="none" stroke="midnightblue" d="M525.79,-56.32C509.19,-47.7 483.5,-34.36 464.28,-24.39"/>
<polygon fill="midnightblue" stroke="midnightblue" points="465.66,-21.16 455.17,-19.65 462.43,-27.37 465.66,-21.16"/>
</g>
<!-- Node17&#45;&gt;Node16 -->
<g id="edge18" class="edge">
<title>Node17&#45;&gt;Node16</title>
<path fill="none" stroke="midnightblue" d="M430.57,-112.44C452.56,-103.52 487.23,-89.44 512.16,-79.32"/>
<polygon fill="midnightblue" stroke="midnightblue" points="513.58,-82.52 521.52,-75.52 510.94,-76.04 513.58,-82.52"/>
</g>
<!-- Node18 -->
<g id="node18" class="node">
<title>Node18</title>
<g id="a_node18"><a xlink:title=" ">
<polygon fill="none" stroke="#bfbfbf" points="420,-56.5 420,-75.5 479,-75.5 479,-56.5 420,-56.5"/>
<text text-anchor="middle" x="449.5" y="-63.5" font-family="Helvetica,sans-Serif" font-size="10.00">complex</text>
</a>
</g>
</g>
<!-- Node17&#45;&gt;Node18 -->
<g id="edge19" class="edge">
<title>Node17&#45;&gt;Node18</title>
<path fill="none" stroke="midnightblue" d="M416.11,-112.08C421.76,-104.46 430.04,-93.26 436.95,-83.94"/>
<polygon fill="midnightblue" stroke="midnightblue" points="439.88,-85.87 443.02,-75.75 434.25,-81.7 439.88,-85.87"/>
</g>
<!-- Node22 -->
<g id="node22" class="node">
<title>Node22</title>
<g id="a_node22"><a xlink:title=" ">
<polygon fill="none" stroke="#bfbfbf" points="15.5,-56.5 15.5,-75.5 65.5,-75.5 65.5,-56.5 15.5,-56.5"/>
<text text-anchor="middle" x="40.5" y="-63.5" font-family="Helvetica,sans-Serif" font-size="10.00">ctf.hpp</text>
</a>
</g>
</g>
<!-- Node21&#45;&gt;Node22 -->
<g id="edge24" class="edge">
<title>Node21&#45;&gt;Node22</title>
<path fill="none" stroke="midnightblue" d="M181.04,-112.44C152.49,-103.21 106.9,-88.47 75.43,-78.29"/>
<polygon fill="midnightblue" stroke="midnightblue" points="76.34,-74.91 65.74,-75.16 74.18,-81.57 76.34,-74.91"/>
</g>
<!-- Node23&#45;&gt;Node10 -->
<g id="edge27" class="edge">
<title>Node23&#45;&gt;Node10</title>
<path fill="none" stroke="midnightblue" d="M577.8,-112.28C583.04,-103.39 591.06,-89.08 596.5,-76 602.88,-60.67 608.28,-42.57 611.86,-29.37"/>
<polygon fill="midnightblue" stroke="midnightblue" points="615.27,-30.16 614.42,-19.6 608.5,-28.39 615.27,-30.16"/>
</g>
<!-- Node23&#45;&gt;Node12 -->
<g id="edge26" class="edge">
<title>Node23&#45;&gt;Node12</title>
<path fill="none" stroke="midnightblue" d="M587.6,-112.32C602.4,-103.82 625.19,-90.73 642.48,-80.8"/>
<polygon fill="midnightblue" stroke="midnightblue" points="644.51,-83.67 651.43,-75.65 641.02,-77.6 644.51,-83.67"/>
</g>
<!-- Node23&#45;&gt;Node13 -->
<g id="edge28" class="edge">
<title>Node23&#45;&gt;Node13</title>
<path fill="none" stroke="midnightblue" d="M521.75,-112.47C473.87,-104.25 399.86,-91.15 326.57,-76.15"/>
<polygon fill="midnightblue" stroke="midnightblue" points="327.2,-72.71 316.7,-74.12 325.79,-79.56 327.2,-72.71"/>
</g>
<!-- Node24&#45;&gt;Node13 -->
<g id="edge40" class="edge">
<title>Node24&#45;&gt;Node13</title>
<path fill="none" stroke="midnightblue" d="M277.38,-224.5C241.38,-211.42 180.17,-182.46 161.5,-132 158.42,-123.66 156.39,-119.27 161.5,-112 171.6,-97.63 213.9,-84.44 246.52,-76.1"/>
<polygon fill="midnightblue" stroke="midnightblue" points="247.43,-79.49 256.29,-73.68 245.74,-72.69 247.43,-79.49"/>
</g>
<!-- Node25 -->
<g id="node25" class="node">
<title>Node25</title>
<g id="a_node25"><a xlink:href="MathFunctions_8hpp.html" target="_top" xlink:title=" ">
<polygon fill="none" stroke="black" points="236,-168.5 236,-187.5 373,-187.5 373,-168.5 236,-168.5"/>
<text text-anchor="middle" x="304.5" y="-175.5" font-family="Helvetica,sans-Serif" font-size="10.00">math/MathFunctions.hpp</text>
</a>
</g>
</g>
<!-- Node24&#45;&gt;Node25 -->
<g id="edge34" class="edge">
<title>Node24&#45;&gt;Node25</title>
<path fill="none" stroke="midnightblue" d="M304.5,-224.08C304.5,-217.01 304.5,-206.86 304.5,-197.99"/>
<polygon fill="midnightblue" stroke="midnightblue" points="308,-197.75 304.5,-187.75 301,-197.75 308,-197.75"/>
</g>
<!-- Node25&#45;&gt;Node4 -->
<g id="edge39" class="edge">
<title>Node25&#45;&gt;Node4</title>
<path fill="none" stroke="midnightblue" d="M303.67,-168.08C303.02,-161.01 302.08,-150.86 301.26,-141.99"/>
<polygon fill="midnightblue" stroke="midnightblue" points="304.72,-141.39 300.31,-131.75 297.75,-142.03 304.72,-141.39"/>
</g>
<!-- Node25&#45;&gt;Node11 -->
<g id="edge36" class="edge">
<title>Node25&#45;&gt;Node11</title>
<path fill="none" stroke="midnightblue" d="M236,-175.6C165.14,-170.03 57.82,-149.1 6.5,-76 -3.41,-61.88 3.8,-42.39 11.66,-28.44"/>
<polygon fill="midnightblue" stroke="midnightblue" points="14.72,-30.14 17,-19.8 8.77,-26.46 14.72,-30.14"/>
</g>
<!-- Node25&#45;&gt;Node12 -->
<g id="edge37" class="edge">
<title>Node25&#45;&gt;Node12</title>
<path fill="none" stroke="midnightblue" d="M373.01,-174.99C456.91,-171.3 592.87,-160.91 633.5,-132 648.93,-121.02 657.6,-100.66 662.14,-85.64"/>
<polygon fill="midnightblue" stroke="midnightblue" points="665.55,-86.43 664.75,-75.86 658.79,-84.62 665.55,-86.43"/>
</g>
<!-- Node25&#45;&gt;Node17 -->
<g id="edge35" class="edge">
<title>Node25&#45;&gt;Node17</title>
<path fill="none" stroke="midnightblue" d="M321.37,-168.32C338.21,-159.66 364.31,-146.24 383.74,-136.25"/>
<polygon fill="midnightblue" stroke="midnightblue" points="385.38,-139.34 392.67,-131.65 382.18,-133.12 385.38,-139.34"/>
</g>
<!-- Node25&#45;&gt;Node21 -->
<g id="edge38" class="edge">
<title>Node25&#45;&gt;Node21</title>
<path fill="none" stroke="midnightblue" d="M288.92,-168.32C273.5,-159.74 249.69,-146.49 231.79,-136.52"/>
<polygon fill="midnightblue" stroke="midnightblue" points="233.49,-133.46 223.05,-131.65 230.08,-139.58 233.49,-133.46"/>
</g>
</g>
</svg>
