<?xml version="1.0" encoding="UTF-8" standalone="no"?>
<!DOCTYPE svg PUBLIC "-//W3C//DTD SVG 1.1//EN"
 "http://www.w3.org/Graphics/SVG/1.1/DTD/svg11.dtd">
<!-- Generated by graphviz version 8.1.0 (0)
 -->
<!-- Title: BasisSetExtrapolation.hpp Pages: 1 -->
<svg width="852pt" height="313pt"
 viewBox="0.00 0.00 852.01 312.50" xmlns="http://www.w3.org/2000/svg" xmlns:xlink="http://www.w3.org/1999/xlink">
<g id="graph0" class="graph" transform="scale(1 1) rotate(0) translate(4 308.5)">
<title>BasisSetExtrapolation.hpp</title>
<!-- Node1 -->
<g id="Node000001" class="node">
<title>Node1</title>
<g id="a_Node000001"><a xlink:title=" ">
<polygon fill="#999999" stroke="#666666" points="554.89,-304.5 410.64,-304.5 410.64,-283.75 554.89,-283.75 554.89,-304.5"/>
<text text-anchor="middle" x="482.76" y="-291" font-family="Helvetica,sans-Serif" font-size="10.00">BasisSetExtrapolation.hpp</text>
</a>
</g>
</g>
<!-- Node2 -->
<g id="Node000002" class="node">
<title>Node2</title>
<g id="a_Node000002"><a xlink:title=" ">
<polygon fill="#e0e0e0" stroke="#999999" points="67.14,-134.25 20.39,-134.25 20.39,-113.5 67.14,-113.5 67.14,-134.25"/>
<text text-anchor="middle" x="43.76" y="-120.75" font-family="Helvetica,sans-Serif" font-size="10.00">vector</text>
</a>
</g>
</g>
<!-- Node1&#45;&gt;Node2 -->
<g id="edge1_Node000001_Node000002" class="edge">
<title>Node1&#45;&gt;Node2</title>
<g id="a_edge1_Node000001_Node000002"><a xlink:title=" ">
<path fill="none" stroke="#63b8ff" d="M435.79,-283.32C399.96,-275.28 349.63,-262.81 306.76,-247.75 248.81,-227.4 236.42,-216.96 180.76,-191 143.62,-173.68 101.17,-153.06 73.49,-139.51"/>
<polygon fill="#63b8ff" stroke="#63b8ff" points="75.17,-135.94 64.65,-134.68 72.08,-142.22 75.17,-135.94"/>
</a>
</g>
</g>
<!-- Node3 -->
<g id="Node000003" class="node">
<title>Node3</title>
<g id="a_Node000003"><a xlink:href="Algorithm_8hpp.html" target="_top" xlink:title=" ">
<polygon fill="white" stroke="#666666" points="456.01,-247.75 315.51,-247.75 315.51,-227 456.01,-227 456.01,-247.75"/>
<text text-anchor="middle" x="385.76" y="-234.25" font-family="Helvetica,sans-Serif" font-size="10.00">algorithms/Algorithm.hpp</text>
</a>
</g>
</g>
<!-- Node1&#45;&gt;Node3 -->
<g id="edge2_Node000001_Node000003" class="edge">
<title>Node1&#45;&gt;Node3</title>
<g id="a_edge2_Node000001_Node000003"><a xlink:title=" ">
<path fill="none" stroke="#63b8ff" d="M465.42,-283.34C450.66,-275.01 429.22,-262.91 412.31,-253.36"/>
<polygon fill="#63b8ff" stroke="#63b8ff" points="414.38,-249.95 403.95,-248.08 410.94,-256.04 414.38,-249.95"/>
</a>
</g>
</g>
<!-- Node21 -->
<g id="Node000021" class="node">
<title>Node21</title>
<g id="a_Node000021"><a xlink:href="Tensor_8hpp.html" target="_top" xlink:title=" ">
<polygon fill="white" stroke="#666666" points="844.01,-134.25 757.51,-134.25 757.51,-113.5 844.01,-113.5 844.01,-134.25"/>
<text text-anchor="middle" x="800.76" y="-120.75" font-family="Helvetica,sans-Serif" font-size="10.00">util/Tensor.hpp</text>
</a>
</g>
</g>
<!-- Node1&#45;&gt;Node21 -->
<g id="edge43_Node000001_Node000021" class="edge">
<title>Node1&#45;&gt;Node21</title>
<g id="a_edge43_Node000001_Node000021"><a xlink:title=" ">
<path fill="none" stroke="#63b8ff" d="M534.75,-283.27C592.95,-270.17 687.72,-242.45 753.76,-191 770.03,-178.32 783.07,-158.51 791.25,-143.87"/>
<polygon fill="#63b8ff" stroke="#63b8ff" points="794.73,-145.78 796.32,-135.31 788.54,-142.5 794.73,-145.78"/>
</a>
</g>
</g>
<!-- Node25 -->
<g id="Node000025" class="node">
<title>Node25</title>
<g id="a_Node000025"><a xlink:href="Vector_8hpp.html" target="_top" xlink:title=" ">
<polygon fill="white" stroke="#666666" points="598.51,-247.75 503.01,-247.75 503.01,-227 598.51,-227 598.51,-247.75"/>
<text text-anchor="middle" x="550.76" y="-234.25" font-family="Helvetica,sans-Serif" font-size="10.00">math/Vector.hpp</text>
</a>
</g>
</g>
<!-- Node1&#45;&gt;Node25 -->
<g id="edge35_Node000001_Node000025" class="edge">
<title>Node1&#45;&gt;Node25</title>
<g id="a_edge35_Node000001_Node000025"><a xlink:title=" ">
<path fill="none" stroke="#63b8ff" d="M494.92,-283.34C504.78,-275.4 518.9,-264.03 530.47,-254.71"/>
<polygon fill="#63b8ff" stroke="#63b8ff" points="532.11,-257.08 537.71,-248.08 527.72,-251.62 532.11,-257.08"/>
</a>
</g>
</g>
<!-- Node3&#45;&gt;Node2 -->
<g id="edge32_Node000003_Node000002" class="edge">
<title>Node3&#45;&gt;Node2</title>
<g id="a_edge32_Node000003_Node000002"><a xlink:title=" ">
<path fill="none" stroke="#63b8ff" d="M355.71,-226.58C292.25,-205.89 144.93,-157.86 77.97,-136.03"/>
<polygon fill="#63b8ff" stroke="#63b8ff" points="79.16,-132.41 68.57,-132.64 76.99,-139.06 79.16,-132.41"/>
</a>
</g>
</g>
<!-- Node4 -->
<g id="Node000004" class="node">
<title>Node4</title>
<g id="a_Node000004"><a xlink:href="Data_8hpp.html" target="_top" xlink:title=" ">
<polygon fill="white" stroke="#666666" points="386.89,-191 326.64,-191 326.64,-170.25 386.89,-170.25 386.89,-191"/>
<text text-anchor="middle" x="356.76" y="-177.5" font-family="Helvetica,sans-Serif" font-size="10.00">Data.hpp</text>
</a>
</g>
</g>
<!-- Node3&#45;&gt;Node4 -->
<g id="edge3_Node000003_Node000004" class="edge">
<title>Node3&#45;&gt;Node4</title>
<g id="a_edge3_Node000003_Node000004"><a xlink:title=" ">
<path fill="none" stroke="#63b8ff" d="M380.58,-226.59C376.82,-219.5 371.63,-209.69 367.05,-201.04"/>
<polygon fill="#63b8ff" stroke="#63b8ff" points="369.67,-199.53 361.9,-192.33 363.49,-202.8 369.67,-199.53"/>
</a>
</g>
</g>
<!-- Node11 -->
<g id="Node000011" class="node">
<title>Node11</title>
<g id="a_Node000011"><a xlink:title=" ">
<polygon fill="#e0e0e0" stroke="#999999" points="329.64,-20.75 273.89,-20.75 273.89,0 329.64,0 329.64,-20.75"/>
<text text-anchor="middle" x="301.76" y="-7.25" font-family="Helvetica,sans-Serif" font-size="10.00">sstream</text>
</a>
</g>
</g>
<!-- Node3&#45;&gt;Node11 -->
<g id="edge33_Node000003_Node000011" class="edge">
<title>Node3&#45;&gt;Node11</title>
<g id="a_edge33_Node000003_Node000011"><a xlink:title=" ">
<path fill="none" stroke="#63b8ff" d="M315.39,-227.66C217.18,-213.86 47.08,-183.36 11.76,-134.25 -53.36,-43.69 169.44,-19.43 262.65,-13.32"/>
<polygon fill="#63b8ff" stroke="#63b8ff" points="262.84,-16.75 272.61,-12.64 262.41,-9.76 262.84,-16.75"/>
</a>
</g>
</g>
<!-- Node13 -->
<g id="Node000013" class="node">
<title>Node13</title>
<g id="a_Node000013"><a xlink:title=" ">
<polygon fill="#e0e0e0" stroke="#999999" points="378.64,-77.5 334.89,-77.5 334.89,-56.75 378.64,-56.75 378.64,-77.5"/>
<text text-anchor="middle" x="356.76" y="-64" font-family="Helvetica,sans-Serif" font-size="10.00">string</text>
</a>
</g>
</g>
<!-- Node3&#45;&gt;Node13 -->
<g id="edge31_Node000003_Node000013" class="edge">
<title>Node3&#45;&gt;Node13</title>
<g id="a_edge31_Node000003_Node000013"><a xlink:title=" ">
<path fill="none" stroke="#63b8ff" d="M395.2,-226.7C414.82,-205.37 456.37,-153.07 433.76,-113.5 424.13,-96.65 405.54,-85.44 389.04,-78.37"/>
<polygon fill="#63b8ff" stroke="#63b8ff" points="390.72,-74.88 380.13,-74.5 388.17,-81.4 390.72,-74.88"/>
</a>
</g>
</g>
<!-- Node3&#45;&gt;Node21 -->
<g id="edge34_Node000003_Node000021" class="edge">
<title>Node3&#45;&gt;Node21</title>
<g id="a_edge34_Node000003_Node000021"><a xlink:title=" ">
<path fill="none" stroke="#63b8ff" d="M456.41,-229.06C548.29,-219.21 699.92,-201.69 723.76,-191 748.72,-179.81 771.73,-157.87 785.97,-142.34"/>
<polygon fill="#63b8ff" stroke="#63b8ff" points="787.92,-145.28 791.93,-135.48 782.68,-140.64 787.92,-145.28"/>
</a>
</g>
</g>
<!-- Node4&#45;&gt;Node2 -->
<g id="edge23_Node000004_Node000002" class="edge">
<title>Node4&#45;&gt;Node2</title>
<g id="a_edge23_Node000004_Node000002"><a xlink:title=" ">
<path fill="none" stroke="#63b8ff" d="M326.38,-175.5C275.38,-168.37 169.42,-152.73 80.76,-134.25 79.82,-134.05 78.88,-133.85 77.92,-133.64"/>
<polygon fill="#63b8ff" stroke="#63b8ff" points="79.11,-130.09 68.58,-131.23 77.52,-136.91 79.11,-130.09"/>
</a>
</g>
</g>
<!-- Node5 -->
<g id="Node000005" class="node">
<title>Node5</title>
<g id="a_Node000005"><a xlink:href="Log_8hpp.html" target="_top" xlink:title=" ">
<polygon fill="white" stroke="#666666" points="652.26,-134.25 579.26,-134.25 579.26,-113.5 652.26,-113.5 652.26,-134.25"/>
<text text-anchor="middle" x="615.76" y="-120.75" font-family="Helvetica,sans-Serif" font-size="10.00">util/Log.hpp</text>
</a>
</g>
</g>
<!-- Node4&#45;&gt;Node5 -->
<g id="edge4_Node000004_Node000005" class="edge">
<title>Node4&#45;&gt;Node5</title>
<g id="a_edge4_Node000004_Node000005"><a xlink:title=" ">
<path fill="none" stroke="#63b8ff" d="M387.23,-173.18C431.93,-163.74 515.65,-146.04 568.4,-134.89"/>
<polygon fill="#63b8ff" stroke="#63b8ff" points="569.11,-138.1 578.17,-132.61 567.66,-131.25 569.11,-138.1"/>
</a>
</g>
</g>
<!-- Node4&#45;&gt;Node13 -->
<g id="edge21_Node000004_Node000013" class="edge">
<title>Node4&#45;&gt;Node13</title>
<g id="a_edge21_Node000004_Node000013"><a xlink:title=" ">
<path fill="none" stroke="#63b8ff" d="M378.79,-169.8C392.74,-162.27 409.64,-150.41 417.76,-134.25 427.93,-114.01 407,-95.48 386.94,-83.22"/>
<polygon fill="#63b8ff" stroke="#63b8ff" points="389.02,-79.81 378.61,-77.88 385.55,-85.88 389.02,-79.81"/>
</a>
</g>
</g>
<!-- Node17 -->
<g id="Node000017" class="node">
<title>Node17</title>
<g id="a_Node000017"><a xlink:href="Float_8hpp.html" target="_top" xlink:title=" ">
<polygon fill="white" stroke="#666666" points="192.89,-77.5 102.64,-77.5 102.64,-56.75 192.89,-56.75 192.89,-77.5"/>
<text text-anchor="middle" x="147.76" y="-64" font-family="Helvetica,sans-Serif" font-size="10.00">math/Float.hpp</text>
</a>
</g>
</g>
<!-- Node4&#45;&gt;Node17 -->
<g id="edge16_Node000004_Node000017" class="edge">
<title>Node4&#45;&gt;Node17</title>
<g id="a_edge16_Node000004_Node000017"><a xlink:title=" ">
<path fill="none" stroke="#63b8ff" d="M326.5,-178.61C267.49,-175.92 140.5,-166.44 113.76,-134.25 101.49,-119.47 114.97,-99.54 128.41,-85.43"/>
<polygon fill="#63b8ff" stroke="#63b8ff" points="130.43,-88.37 135.13,-78.88 125.53,-83.37 130.43,-88.37"/>
</a>
</g>
</g>
<!-- Node18 -->
<g id="Node000018" class="node">
<title>Node18</title>
<g id="a_Node000018"><a xlink:href="Complex_8hpp.html" target="_top" xlink:title=" ">
<polygon fill="white" stroke="#666666" points="287.26,-134.25 178.26,-134.25 178.26,-113.5 287.26,-113.5 287.26,-134.25"/>
<text text-anchor="middle" x="232.76" y="-120.75" font-family="Helvetica,sans-Serif" font-size="10.00">math/Complex.hpp</text>
</a>
</g>
</g>
<!-- Node4&#45;&gt;Node18 -->
<g id="edge18_Node000004_Node000018" class="edge">
<title>Node4&#45;&gt;Node18</title>
<g id="a_edge18_Node000004_Node000018"><a xlink:title=" ">
<path fill="none" stroke="#63b8ff" d="M334.59,-169.84C315.11,-161.23 286.52,-148.61 264.59,-138.93"/>
<polygon fill="#63b8ff" stroke="#63b8ff" points="266.3,-135.42 255.74,-134.58 263.47,-141.82 266.3,-135.42"/>
</a>
</g>
</g>
<!-- Node20 -->
<g id="Node000020" class="node">
<title>Node20</title>
<g id="a_Node000020"><a xlink:title=" ">
<polygon fill="#e0e0e0" stroke="#999999" points="160.64,-134.25 122.89,-134.25 122.89,-113.5 160.64,-113.5 160.64,-134.25"/>
<text text-anchor="middle" x="141.76" y="-120.75" font-family="Helvetica,sans-Serif" font-size="10.00">map</text>
</a>
</g>
</g>
<!-- Node4&#45;&gt;Node20 -->
<g id="edge22_Node000004_Node000020" class="edge">
<title>Node4&#45;&gt;Node20</title>
<g id="a_edge22_Node000004_Node000020"><a xlink:title=" ">
<path fill="none" stroke="#63b8ff" d="M326.24,-173.22C290.89,-165.59 230.73,-151.97 171.18,-134.78"/>
<polygon fill="#63b8ff" stroke="#63b8ff" points="172.44,-131.21 161.86,-131.76 170.48,-137.93 172.44,-131.21"/>
</a>
</g>
</g>
<!-- Node4&#45;&gt;Node21 -->
<g id="edge24_Node000004_Node000021" class="edge">
<title>Node4&#45;&gt;Node21</title>
<g id="a_edge24_Node000004_Node000021"><a xlink:title=" ">
<path fill="none" stroke="#63b8ff" d="M387.28,-175.86C461.53,-166.71 652.42,-143.17 746.58,-131.56"/>
<polygon fill="#63b8ff" stroke="#63b8ff" points="746.8,-134.93 756.3,-130.23 745.94,-127.98 746.8,-134.93"/>
</a>
</g>
</g>
<!-- Node24 -->
<g id="Node000024" class="node">
<title>Node24</title>
<g id="a_Node000024"><a xlink:href="Exception_8hpp.html" target="_top" xlink:title=" ">
<polygon fill="white" stroke="#666666" points="408.64,-134.25 304.89,-134.25 304.89,-113.5 408.64,-113.5 408.64,-134.25"/>
<text text-anchor="middle" x="356.76" y="-120.75" font-family="Helvetica,sans-Serif" font-size="10.00">util/Exception.hpp</text>
</a>
</g>
</g>
<!-- Node4&#45;&gt;Node24 -->
<g id="edge27_Node000004_Node000024" class="edge">
<title>Node4&#45;&gt;Node24</title>
<g id="a_edge27_Node000004_Node000024"><a xlink:title=" ">
<path fill="none" stroke="#63b8ff" d="M356.76,-169.84C356.76,-163.06 356.76,-153.8 356.76,-145.44"/>
<polygon fill="#63b8ff" stroke="#63b8ff" points="360.26,-145.58 356.76,-135.58 353.26,-145.58 360.26,-145.58"/>
</a>
</g>
</g>
<!-- Node6 -->
<g id="Node000006" class="node">
<title>Node6</title>
<g id="a_Node000006"><a xlink:href="Time_8hpp.html" target="_top" xlink:title=" ">
<polygon fill="white" stroke="#666666" points="555.01,-77.5 474.51,-77.5 474.51,-56.75 555.01,-56.75 555.01,-77.5"/>
<text text-anchor="middle" x="514.76" y="-64" font-family="Helvetica,sans-Serif" font-size="10.00">util/Time.hpp</text>
</a>
</g>
</g>
<!-- Node5&#45;&gt;Node6 -->
<g id="edge5_Node000005_Node000006" class="edge">
<title>Node5&#45;&gt;Node6</title>
<g id="a_edge5_Node000005_Node000006"><a xlink:title=" ">
<path fill="none" stroke="#63b8ff" d="M597.7,-113.09C582.19,-104.68 559.6,-92.43 541.91,-82.84"/>
<polygon fill="#63b8ff" stroke="#63b8ff" points="544.12,-79.52 533.66,-77.83 540.78,-85.67 544.12,-79.52"/>
</a>
</g>
</g>
<!-- Node5&#45;&gt;Node13 -->
<g id="edge12_Node000005_Node000013" class="edge">
<title>Node5&#45;&gt;Node13</title>
<g id="a_edge12_Node000005_Node000013"><a xlink:title=" ">
<path fill="none" stroke="#63b8ff" d="M578.79,-116.66C535.61,-109.15 461.85,-95.55 389.67,-77.79"/>
<polygon fill="#63b8ff" stroke="#63b8ff" points="390.59,-74.17 380.04,-75.15 388.9,-80.96 390.59,-74.17"/>
</a>
</g>
</g>
<!-- Node14 -->
<g id="Node000014" class="node">
<title>Node14</title>
<g id="a_Node000014"><a xlink:title=" ">
<polygon fill="#e0e0e0" stroke="#999999" points="456.51,-77.5 397.01,-77.5 397.01,-56.75 456.51,-56.75 456.51,-77.5"/>
<text text-anchor="middle" x="426.76" y="-64" font-family="Helvetica,sans-Serif" font-size="10.00">iostream</text>
</a>
</g>
</g>
<!-- Node5&#45;&gt;Node14 -->
<g id="edge13_Node000005_Node000014" class="edge">
<title>Node5&#45;&gt;Node14</title>
<g id="a_edge13_Node000005_Node000014"><a xlink:title=" ">
<path fill="none" stroke="#63b8ff" d="M581.97,-113.09C549.87,-103.79 501.58,-89.8 467.39,-79.9"/>
<polygon fill="#63b8ff" stroke="#63b8ff" points="468.41,-76.26 457.83,-76.84 466.46,-82.98 468.41,-76.26"/>
</a>
</g>
</g>
<!-- Node15 -->
<g id="Node000015" class="node">
<title>Node15</title>
<g id="a_Node000015"><a xlink:title=" ">
<polygon fill="#e0e0e0" stroke="#999999" points="638.89,-77.5 572.64,-77.5 572.64,-56.75 638.89,-56.75 638.89,-77.5"/>
<text text-anchor="middle" x="605.76" y="-64" font-family="Helvetica,sans-Serif" font-size="10.00">streambuf</text>
</a>
</g>
</g>
<!-- Node5&#45;&gt;Node15 -->
<g id="edge14_Node000005_Node000015" class="edge">
<title>Node5&#45;&gt;Node15</title>
<g id="a_edge14_Node000005_Node000015"><a xlink:title=" ">
<path fill="none" stroke="#63b8ff" d="M613.97,-113.09C612.72,-106.24 611,-96.84 609.46,-88.4"/>
<polygon fill="#63b8ff" stroke="#63b8ff" points="612.77,-88.04 607.53,-78.83 605.89,-89.29 612.77,-88.04"/>
</a>
</g>
</g>
<!-- Node16 -->
<g id="Node000016" class="node">
<title>Node16</title>
<g id="a_Node000016"><a xlink:title=" ">
<polygon fill="#e0e0e0" stroke="#999999" points="710.89,-77.5 656.64,-77.5 656.64,-56.75 710.89,-56.75 710.89,-77.5"/>
<text text-anchor="middle" x="683.76" y="-64" font-family="Helvetica,sans-Serif" font-size="10.00">fstream</text>
</a>
</g>
</g>
<!-- Node5&#45;&gt;Node16 -->
<g id="edge15_Node000005_Node000016" class="edge">
<title>Node5&#45;&gt;Node16</title>
<g id="a_edge15_Node000005_Node000016"><a xlink:title=" ">
<path fill="none" stroke="#63b8ff" d="M627.92,-113.09C637.78,-105.15 651.9,-93.78 663.47,-84.46"/>
<polygon fill="#63b8ff" stroke="#63b8ff" points="665.11,-86.83 670.71,-77.83 660.72,-81.37 665.11,-86.83"/>
</a>
</g>
</g>
<!-- Node7 -->
<g id="Node000007" class="node">
<title>Node7</title>
<g id="a_Node000007"><a xlink:title=" ">
<polygon fill="#e0e0e0" stroke="#999999" points="606.64,-20.75 562.89,-20.75 562.89,0 606.64,0 606.64,-20.75"/>
<text text-anchor="middle" x="584.76" y="-7.25" font-family="Helvetica,sans-Serif" font-size="10.00">ctime</text>
</a>
</g>
</g>
<!-- Node6&#45;&gt;Node7 -->
<g id="edge6_Node000006_Node000007" class="edge">
<title>Node6&#45;&gt;Node7</title>
<g id="a_edge6_Node000006_Node000007"><a xlink:title=" ">
<path fill="none" stroke="#63b8ff" d="M527.27,-56.34C537.43,-48.4 551.96,-37.03 563.87,-27.71"/>
<polygon fill="#63b8ff" stroke="#63b8ff" points="565.63,-30 571.35,-21.08 561.32,-24.48 565.63,-30"/>
</a>
</g>
</g>
<!-- Node8 -->
<g id="Node000008" class="node">
<title>Node8</title>
<g id="a_Node000008"><a xlink:title=" ">
<polygon fill="#e0e0e0" stroke="#999999" points="471.26,-20.75 422.26,-20.75 422.26,0 471.26,0 471.26,-20.75"/>
<text text-anchor="middle" x="446.76" y="-7.25" font-family="Helvetica,sans-Serif" font-size="10.00">cstdint</text>
</a>
</g>
</g>
<!-- Node6&#45;&gt;Node8 -->
<g id="edge7_Node000006_Node000008" class="edge">
<title>Node6&#45;&gt;Node8</title>
<g id="a_edge7_Node000006_Node000008"><a xlink:title=" ">
<path fill="none" stroke="#63b8ff" d="M502.6,-56.34C492.74,-48.4 478.62,-37.03 467.05,-27.71"/>
<polygon fill="#63b8ff" stroke="#63b8ff" points="469.8,-24.62 459.81,-21.08 465.41,-30.08 469.8,-24.62"/>
</a>
</g>
</g>
<!-- Node9 -->
<g id="Node000009" class="node">
<title>Node9</title>
<g id="a_Node000009"><a xlink:title=" ">
<polygon fill="#e0e0e0" stroke="#999999" points="404.01,-20.75 347.51,-20.75 347.51,0 404.01,0 404.01,-20.75"/>
<text text-anchor="middle" x="375.76" y="-7.25" font-family="Helvetica,sans-Serif" font-size="10.00">ostream</text>
</a>
</g>
</g>
<!-- Node6&#45;&gt;Node9 -->
<g id="edge8_Node000006_Node000009" class="edge">
<title>Node6&#45;&gt;Node9</title>
<g id="a_edge8_Node000006_Node000009"><a xlink:title=" ">
<path fill="none" stroke="#63b8ff" d="M489.91,-56.34C467.77,-47.62 435.15,-34.77 410.45,-25.04"/>
<polygon fill="#63b8ff" stroke="#63b8ff" points="411.98,-21.49 401.4,-21.08 409.42,-28 411.98,-21.49"/>
</a>
</g>
</g>
<!-- Node10 -->
<g id="Node000010" class="node">
<title>Node10</title>
<g id="a_Node000010"><a xlink:title=" ">
<polygon fill="#e0e0e0" stroke="#999999" points="544.64,-20.75 488.89,-20.75 488.89,0 544.64,0 544.64,-20.75"/>
<text text-anchor="middle" x="516.76" y="-7.25" font-family="Helvetica,sans-Serif" font-size="10.00">iomanip</text>
</a>
</g>
</g>
<!-- Node6&#45;&gt;Node10 -->
<g id="edge9_Node000006_Node000010" class="edge">
<title>Node6&#45;&gt;Node10</title>
<g id="a_edge9_Node000006_Node000010"><a xlink:title=" ">
<path fill="none" stroke="#63b8ff" d="M515.12,-56.34C515.37,-49.56 515.7,-40.3 516.01,-31.94"/>
<polygon fill="#63b8ff" stroke="#63b8ff" points="519.54,-32.2 516.41,-22.08 512.54,-31.94 519.54,-32.2"/>
</a>
</g>
</g>
<!-- Node6&#45;&gt;Node11 -->
<g id="edge10_Node000006_Node000011" class="edge">
<title>Node6&#45;&gt;Node11</title>
<g id="a_edge10_Node000006_Node000011"><a xlink:title=" ">
<path fill="none" stroke="#63b8ff" d="M476.68,-56.34C438.18,-46.44 378.99,-31.23 340.32,-21.29"/>
<polygon fill="#63b8ff" stroke="#63b8ff" points="341.55,-17.73 330.99,-18.63 339.8,-24.51 341.55,-17.73"/>
</a>
</g>
</g>
<!-- Node12 -->
<g id="Node000012" class="node">
<title>Node12</title>
<g id="a_Node000012"><a xlink:title=" ">
<polygon fill="#e0e0e0" stroke="#999999" points="715.14,-20.75 668.39,-20.75 668.39,0 715.14,0 715.14,-20.75"/>
<text text-anchor="middle" x="691.76" y="-7.25" font-family="Helvetica,sans-Serif" font-size="10.00">cmath</text>
</a>
</g>
</g>
<!-- Node6&#45;&gt;Node12 -->
<g id="edge11_Node000006_Node000012" class="edge">
<title>Node6&#45;&gt;Node12</title>
<g id="a_edge11_Node000006_Node000012"><a xlink:title=" ">
<path fill="none" stroke="#63b8ff" d="M546.4,-56.34C577.76,-46.64 625.63,-31.83 657.78,-21.89"/>
<polygon fill="#63b8ff" stroke="#63b8ff" points="658.52,-25.01 667.03,-18.71 656.45,-18.33 658.52,-25.01"/>
</a>
</g>
</g>
<!-- Node17&#45;&gt;Node9 -->
<g id="edge17_Node000017_Node000009" class="edge">
<title>Node17&#45;&gt;Node9</title>
<g id="a_edge17_Node000017_Node000009"><a xlink:title=" ">
<path fill="none" stroke="#63b8ff" d="M189.91,-56.3C226.37,-47.76 280.78,-34.92 336.64,-21.25"/>
<polygon fill="#63b8ff" stroke="#63b8ff" points="337.21,-24.47 346.09,-18.68 335.54,-17.67 337.21,-24.47"/>
</a>
</g>
</g>
<!-- Node18&#45;&gt;Node17 -->
<g id="edge19_Node000018_Node000017" class="edge">
<title>Node18&#45;&gt;Node17</title>
<g id="a_edge19_Node000018_Node000017"><a xlink:title=" ">
<path fill="none" stroke="#63b8ff" d="M217.56,-113.09C204.87,-104.91 186.55,-93.11 171.86,-83.65"/>
<polygon fill="#63b8ff" stroke="#63b8ff" points="174.13,-80.3 163.82,-77.83 170.34,-86.19 174.13,-80.3"/>
</a>
</g>
</g>
<!-- Node19 -->
<g id="Node000019" class="node">
<title>Node19</title>
<g id="a_Node000019"><a xlink:title=" ">
<polygon fill="#e0e0e0" stroke="#999999" points="268.76,-77.5 210.76,-77.5 210.76,-56.75 268.76,-56.75 268.76,-77.5"/>
<text text-anchor="middle" x="239.76" y="-64" font-family="Helvetica,sans-Serif" font-size="10.00">complex</text>
</a>
</g>
</g>
<!-- Node18&#45;&gt;Node19 -->
<g id="edge20_Node000018_Node000019" class="edge">
<title>Node18&#45;&gt;Node19</title>
<g id="a_edge20_Node000018_Node000019"><a xlink:title=" ">
<path fill="none" stroke="#63b8ff" d="M234.01,-113.09C234.88,-106.31 236.06,-97.05 237.13,-88.69"/>
<polygon fill="#63b8ff" stroke="#63b8ff" points="240.72,-89.19 238.52,-78.83 233.78,-88.3 240.72,-89.19"/>
</a>
</g>
</g>
<!-- Node22 -->
<g id="Node000022" class="node">
<title>Node22</title>
<g id="a_Node000022"><a xlink:href="CTF_8hpp.html" target="_top" xlink:title=" ">
<polygon fill="white" stroke="#666666" points="840.26,-77.5 767.26,-77.5 767.26,-56.75 840.26,-56.75 840.26,-77.5"/>
<text text-anchor="middle" x="803.76" y="-64" font-family="Helvetica,sans-Serif" font-size="10.00">util/CTF.hpp</text>
</a>
</g>
</g>
<!-- Node21&#45;&gt;Node22 -->
<g id="edge25_Node000021_Node000022" class="edge">
<title>Node21&#45;&gt;Node22</title>
<g id="a_edge25_Node000021_Node000022"><a xlink:title=" ">
<path fill="none" stroke="#63b8ff" d="M801.3,-113.09C801.67,-106.31 802.18,-97.05 802.63,-88.69"/>
<polygon fill="#63b8ff" stroke="#63b8ff" points="806.18,-89.01 803.23,-78.83 799.19,-88.62 806.18,-89.01"/>
</a>
</g>
</g>
<!-- Node23 -->
<g id="Node000023" class="node">
<title>Node23</title>
<g id="a_Node000023"><a xlink:title=" ">
<polygon fill="#e0e0e0" stroke="#999999" points="828.26,-20.75 779.26,-20.75 779.26,0 828.26,0 828.26,-20.75"/>
<text text-anchor="middle" x="803.76" y="-7.25" font-family="Helvetica,sans-Serif" font-size="10.00">ctf.hpp</text>
</a>
</g>
</g>
<!-- Node22&#45;&gt;Node23 -->
<g id="edge26_Node000022_Node000023" class="edge">
<title>Node22&#45;&gt;Node23</title>
<g id="a_edge26_Node000022_Node000023"><a xlink:title=" ">
<path fill="none" stroke="#63b8ff" d="M803.76,-56.34C803.76,-49.56 803.76,-40.3 803.76,-31.94"/>
<polygon fill="#63b8ff" stroke="#63b8ff" points="807.26,-32.08 803.76,-22.08 800.26,-32.08 807.26,-32.08"/>
</a>
</g>
</g>
<!-- Node24&#45;&gt;Node11 -->
<g id="edge29_Node000024_Node000011" class="edge">
<title>Node24&#45;&gt;Node11</title>
<g id="a_edge29_Node000024_Node000011"><a xlink:title=" ">
<path fill="none" stroke="#63b8ff" d="M349.11,-113.23C342.32,-104.34 332.46,-90.57 325.76,-77.5 318.18,-62.71 311.87,-44.95 307.63,-31.56"/>
<polygon fill="#63b8ff" stroke="#63b8ff" points="310.71,-30.66 304.45,-22.11 304.01,-32.69 310.71,-30.66"/>
</a>
</g>
</g>
<!-- Node24&#45;&gt;Node13 -->
<g id="edge28_Node000024_Node000013" class="edge">
<title>Node24&#45;&gt;Node13</title>
<g id="a_edge28_Node000024_Node000013"><a xlink:title=" ">
<path fill="none" stroke="#63b8ff" d="M356.76,-113.09C356.76,-106.31 356.76,-97.05 356.76,-88.69"/>
<polygon fill="#63b8ff" stroke="#63b8ff" points="360.26,-88.83 356.76,-78.83 353.26,-88.83 360.26,-88.83"/>
</a>
</g>
</g>
<!-- Node24&#45;&gt;Node14 -->
<g id="edge30_Node000024_Node000014" class="edge">
<title>Node24&#45;&gt;Node14</title>
<g id="a_edge30_Node000024_Node000014"><a xlink:title=" ">
<path fill="none" stroke="#63b8ff" d="M369.27,-113.09C379.43,-105.15 393.96,-93.78 405.87,-84.46"/>
<polygon fill="#63b8ff" stroke="#63b8ff" points="407.63,-86.75 413.35,-77.83 403.32,-81.23 407.63,-86.75"/>
</a>
</g>
</g>
<!-- Node25&#45;&gt;Node14 -->
<g id="edge42_Node000025_Node000014" class="edge">
<title>Node25&#45;&gt;Node14</title>
<g id="a_edge42_Node000025_Node000014"><a xlink:title=" ">
<path fill="none" stroke="#63b8ff" d="M543.74,-226.85C523.8,-199.79 466.57,-122.15 440.27,-86.46"/>
<polygon fill="#63b8ff" stroke="#63b8ff" points="442.76,-84.94 434.01,-78.97 437.13,-89.09 442.76,-84.94"/>
</a>
</g>
</g>
<!-- Node26 -->
<g id="Node000026" class="node">
<title>Node26</title>
<g id="a_Node000026"><a xlink:href="MathFunctions_8hpp.html" target="_top" xlink:title=" ">
<polygon fill="white" stroke="#666666" points="715.14,-191 578.39,-191 578.39,-170.25 715.14,-170.25 715.14,-191"/>
<text text-anchor="middle" x="646.76" y="-177.5" font-family="Helvetica,sans-Serif" font-size="10.00">math/MathFunctions.hpp</text>
</a>
</g>
</g>
<!-- Node25&#45;&gt;Node26 -->
<g id="edge36_Node000025_Node000026" class="edge">
<title>Node25&#45;&gt;Node26</title>
<g id="a_edge36_Node000025_Node000026"><a xlink:title=" ">
<path fill="none" stroke="#63b8ff" d="M567.92,-226.59C582.53,-218.26 603.74,-206.16 620.49,-196.61"/>
<polygon fill="#63b8ff" stroke="#63b8ff" points="621.79,-199.32 628.75,-191.33 618.33,-193.24 621.79,-199.32"/>
</a>
</g>
</g>
<!-- Node26&#45;&gt;Node5 -->
<g id="edge41_Node000026_Node000005" class="edge">
<title>Node26&#45;&gt;Node5</title>
<g id="a_edge41_Node000026_Node000005"><a xlink:title=" ">
<path fill="none" stroke="#63b8ff" d="M641.22,-169.84C637.16,-162.67 631.53,-152.73 626.59,-144.01"/>
<polygon fill="#63b8ff" stroke="#63b8ff" points="629.23,-142.56 621.25,-135.58 623.14,-146 629.23,-142.56"/>
</a>
</g>
</g>
<!-- Node26&#45;&gt;Node12 -->
<g id="edge38_Node000026_Node000012" class="edge">
<title>Node26&#45;&gt;Node12</title>
<g id="a_edge38_Node000026_Node000012"><a xlink:title=" ">
<path fill="none" stroke="#63b8ff" d="M657.1,-169.83C674.1,-152.91 707.32,-116.31 719.76,-77.5 725.09,-60.88 716.21,-42.66 707.08,-29.56"/>
<polygon fill="#63b8ff" stroke="#63b8ff" points="709.42,-27.86 700.58,-22.02 703.85,-32.1 709.42,-27.86"/>
</a>
</g>
</g>
<!-- Node26&#45;&gt;Node13 -->
<g id="edge39_Node000026_Node000013" class="edge">
<title>Node26&#45;&gt;Node13</title>
<g id="a_edge39_Node000026_Node000013"><a xlink:title=" ">
<path fill="none" stroke="#63b8ff" d="M624.7,-169.86C594.33,-156.53 537.81,-132.17 488.76,-113.5 455.12,-100.69 416.08,-87.47 389.23,-78.63"/>
<polygon fill="#63b8ff" stroke="#63b8ff" points="390.47,-75.02 379.87,-75.24 388.29,-81.68 390.47,-75.02"/>
</a>
</g>
</g>
<!-- Node26&#45;&gt;Node18 -->
<g id="edge37_Node000026_Node000018" class="edge">
<title>Node26&#45;&gt;Node18</title>
<g id="a_edge37_Node000026_Node000018"><a xlink:title=" ">
<path fill="none" stroke="#63b8ff" d="M578.11,-171.14C509.73,-162.61 401.46,-148.85 298.62,-134.63"/>
<polygon fill="#63b8ff" stroke="#63b8ff" points="299.11,-131.03 288.73,-133.12 298.15,-137.96 299.11,-131.03"/>
</a>
</g>
</g>
<!-- Node26&#45;&gt;Node21 -->
<g id="edge40_Node000026_Node000021" class="edge">
<title>Node26&#45;&gt;Node21</title>
<g id="a_edge40_Node000026_Node000021"><a xlink:title=" ">
<path fill="none" stroke="#63b8ff" d="M674.29,-169.84C699.07,-161.03 735.7,-148 763.17,-138.24"/>
<polygon fill="#63b8ff" stroke="#63b8ff" points="763.96,-141.32 772.21,-134.67 761.61,-134.72 763.96,-141.32"/>
</a>
</g>
</g>
</g>
</svg>
