<?xml version="1.0" encoding="UTF-8" standalone="no"?>
<!DOCTYPE svg PUBLIC "-//W3C//DTD SVG 1.1//EN"
 "http://www.w3.org/Graphics/SVG/1.1/DTD/svg11.dtd">
<!-- Generated by graphviz version 8.1.0 (0)
 -->
<!-- Title: BinaryTensorFormat.hpp Pages: 1 -->
<svg width="325pt" height="199pt"
 viewBox="0.00 0.00 325.38 199.00" xmlns="http://www.w3.org/2000/svg" xmlns:xlink="http://www.w3.org/1999/xlink">
<g id="graph0" class="graph" transform="scale(1 1) rotate(0) translate(4 195)">
<title>BinaryTensorFormat.hpp</title>
<!-- Node1 -->
<g id="Node000001" class="node">
<title>Node1</title>
<g id="a_Node000001"><a xlink:title=" ">
<polygon fill="#999999" stroke="#666666" points="255.38,-191 120.88,-191 120.88,-170.25 255.38,-170.25 255.38,-191"/>
<text text-anchor="middle" x="188.12" y="-177.5" font-family="Helvetica,sans-Serif" font-size="10.00">BinaryTensorFormat.hpp</text>
</a>
</g>
</g>
<!-- Node2 -->
<g id="Node000002" class="node">
<title>Node2</title>
<g id="a_Node000002"><a xlink:href="Complex_8hpp.html" target="_top" xlink:title=" ">
<polygon fill="white" stroke="#666666" points="145.62,-134.25 36.62,-134.25 36.62,-113.5 145.62,-113.5 145.62,-134.25"/>
<text text-anchor="middle" x="91.12" y="-120.75" font-family="Helvetica,sans-Serif" font-size="10.00">math/Complex.hpp</text>
</a>
</g>
</g>
<!-- Node1&#45;&gt;Node2 -->
<g id="edge1_Node000001_Node000002" class="edge">
<title>Node1&#45;&gt;Node2</title>
<g id="a_edge1_Node000001_Node000002"><a xlink:title=" ">
<path fill="none" stroke="#63b8ff" d="M170.78,-169.84C156.02,-161.51 134.59,-149.41 117.67,-139.86"/>
<polygon fill="#63b8ff" stroke="#63b8ff" points="119.75,-136.45 109.32,-134.58 116.3,-142.54 119.75,-136.45"/>
</a>
</g>
</g>
<!-- Node6 -->
<g id="Node000006" class="node">
<title>Node6</title>
<g id="a_Node000006"><a xlink:title=" ">
<polygon fill="#e0e0e0" stroke="#999999" points="212.62,-134.25 163.62,-134.25 163.62,-113.5 212.62,-113.5 212.62,-134.25"/>
<text text-anchor="middle" x="188.12" y="-120.75" font-family="Helvetica,sans-Serif" font-size="10.00">cstring</text>
</a>
</g>
</g>
<!-- Node1&#45;&gt;Node6 -->
<g id="edge5_Node000001_Node000006" class="edge">
<title>Node1&#45;&gt;Node6</title>
<g id="a_edge5_Node000001_Node000006"><a xlink:title=" ">
<path fill="none" stroke="#63b8ff" d="M188.12,-169.84C188.12,-163.06 188.12,-153.8 188.12,-145.44"/>
<polygon fill="#63b8ff" stroke="#63b8ff" points="191.63,-145.58 188.12,-135.58 184.63,-145.58 191.63,-145.58"/>
</a>
</g>
</g>
<!-- Node7 -->
<g id="Node000007" class="node">
<title>Node7</title>
<g id="a_Node000007"><a xlink:href="Tensor_8hpp.html" target="_top" xlink:title=" ">
<polygon fill="white" stroke="#666666" points="317.38,-134.25 230.88,-134.25 230.88,-113.5 317.38,-113.5 317.38,-134.25"/>
<text text-anchor="middle" x="274.12" y="-120.75" font-family="Helvetica,sans-Serif" font-size="10.00">util/Tensor.hpp</text>
</a>
</g>
</g>
<!-- Node1&#45;&gt;Node7 -->
<g id="edge6_Node000001_Node000007" class="edge">
<title>Node1&#45;&gt;Node7</title>
<g id="a_edge6_Node000001_Node000007"><a xlink:title=" ">
<path fill="none" stroke="#63b8ff" d="M203.5,-169.84C216.34,-161.66 234.88,-149.86 249.74,-140.4"/>
<polygon fill="#63b8ff" stroke="#63b8ff" points="251.33,-142.9 257.88,-134.58 247.57,-137 251.33,-142.9"/>
</a>
</g>
</g>
<!-- Node3 -->
<g id="Node000003" class="node">
<title>Node3</title>
<g id="a_Node000003"><a xlink:href="Float_8hpp.html" target="_top" xlink:title=" ">
<polygon fill="white" stroke="#666666" points="90.25,-77.5 0,-77.5 0,-56.75 90.25,-56.75 90.25,-77.5"/>
<text text-anchor="middle" x="45.12" y="-64" font-family="Helvetica,sans-Serif" font-size="10.00">math/Float.hpp</text>
</a>
</g>
</g>
<!-- Node2&#45;&gt;Node3 -->
<g id="edge2_Node000002_Node000003" class="edge">
<title>Node2&#45;&gt;Node3</title>
<g id="a_edge2_Node000002_Node000003"><a xlink:title=" ">
<path fill="none" stroke="#63b8ff" d="M82.9,-113.09C76.62,-105.61 67.79,-95.11 60.25,-86.13"/>
<polygon fill="#63b8ff" stroke="#63b8ff" points="62.39,-84.23 53.28,-78.83 57.03,-88.74 62.39,-84.23"/>
</a>
</g>
</g>
<!-- Node5 -->
<g id="Node000005" class="node">
<title>Node5</title>
<g id="a_Node000005"><a xlink:title=" ">
<polygon fill="#e0e0e0" stroke="#999999" points="166.12,-77.5 108.12,-77.5 108.12,-56.75 166.12,-56.75 166.12,-77.5"/>
<text text-anchor="middle" x="137.12" y="-64" font-family="Helvetica,sans-Serif" font-size="10.00">complex</text>
</a>
</g>
</g>
<!-- Node2&#45;&gt;Node5 -->
<g id="edge4_Node000002_Node000005" class="edge">
<title>Node2&#45;&gt;Node5</title>
<g id="a_edge4_Node000002_Node000005"><a xlink:title=" ">
<path fill="none" stroke="#63b8ff" d="M99.35,-113.09C105.63,-105.61 114.46,-95.11 122,-86.13"/>
<polygon fill="#63b8ff" stroke="#63b8ff" points="125.22,-88.74 128.97,-78.83 119.86,-84.23 125.22,-88.74"/>
</a>
</g>
</g>
<!-- Node4 -->
<g id="Node000004" class="node">
<title>Node4</title>
<g id="a_Node000004"><a xlink:title=" ">
<polygon fill="#e0e0e0" stroke="#999999" points="73.38,-20.75 16.88,-20.75 16.88,0 73.38,0 73.38,-20.75"/>
<text text-anchor="middle" x="45.12" y="-7.25" font-family="Helvetica,sans-Serif" font-size="10.00">ostream</text>
</a>
</g>
</g>
<!-- Node3&#45;&gt;Node4 -->
<g id="edge3_Node000003_Node000004" class="edge">
<title>Node3&#45;&gt;Node4</title>
<g id="a_edge3_Node000003_Node000004"><a xlink:title=" ">
<path fill="none" stroke="#63b8ff" d="M45.12,-56.34C45.12,-49.56 45.12,-40.3 45.12,-31.94"/>
<polygon fill="#63b8ff" stroke="#63b8ff" points="48.63,-32.08 45.12,-22.08 41.63,-32.08 48.63,-32.08"/>
</a>
</g>
</g>
<!-- Node8 -->
<g id="Node000008" class="node">
<title>Node8</title>
<g id="a_Node000008"><a xlink:href="CTF_8hpp.html" target="_top" xlink:title=" ">
<polygon fill="white" stroke="#666666" points="310.62,-77.5 237.62,-77.5 237.62,-56.75 310.62,-56.75 310.62,-77.5"/>
<text text-anchor="middle" x="274.12" y="-64" font-family="Helvetica,sans-Serif" font-size="10.00">util/CTF.hpp</text>
</a>
</g>
</g>
<!-- Node7&#45;&gt;Node8 -->
<g id="edge7_Node000007_Node000008" class="edge">
<title>Node7&#45;&gt;Node8</title>
<g id="a_edge7_Node000007_Node000008"><a xlink:title=" ">
<path fill="none" stroke="#63b8ff" d="M274.12,-113.09C274.12,-106.31 274.12,-97.05 274.12,-88.69"/>
<polygon fill="#63b8ff" stroke="#63b8ff" points="277.63,-88.83 274.12,-78.83 270.63,-88.83 277.63,-88.83"/>
</a>
</g>
</g>
<!-- Node9 -->
<g id="Node000009" class="node">
<title>Node9</title>
<g id="a_Node000009"><a xlink:title=" ">
<polygon fill="#e0e0e0" stroke="#999999" points="298.62,-20.75 249.62,-20.75 249.62,0 298.62,0 298.62,-20.75"/>
<text text-anchor="middle" x="274.12" y="-7.25" font-family="Helvetica,sans-Serif" font-size="10.00">ctf.hpp</text>
</a>
</g>
</g>
<!-- Node8&#45;&gt;Node9 -->
<g id="edge8_Node000008_Node000009" class="edge">
<title>Node8&#45;&gt;Node9</title>
<g id="a_edge8_Node000008_Node000009"><a xlink:title=" ">
<path fill="none" stroke="#63b8ff" d="M274.12,-56.34C274.12,-49.56 274.12,-40.3 274.12,-31.94"/>
<polygon fill="#63b8ff" stroke="#63b8ff" points="277.63,-32.08 274.12,-22.08 270.63,-32.08 277.63,-32.08"/>
</a>
</g>
</g>
</g>
</svg>
