<?xml version="1.0" encoding="UTF-8" standalone="no"?>
<!DOCTYPE svg PUBLIC "-//W3C//DTD SVG 1.1//EN"
 "http://www.w3.org/Graphics/SVG/1.1/DTD/svg11.dtd">
<!-- Generated by graphviz version 5.0.1 (0)
 -->
<!-- Title: CanonicalPolyadicDecomposition.cxx Pages: 1 -->
<svg width="659pt" height="308pt"
 viewBox="0.00 0.00 658.50 308.00" xmlns="http://www.w3.org/2000/svg" xmlns:xlink="http://www.w3.org/1999/xlink">
<g id="graph0" class="graph" transform="scale(1 1) rotate(0) translate(4 304)">
<title>CanonicalPolyadicDecomposition.cxx</title>
<!-- Node1 -->
<g id="node1" class="node">
<title>Node1</title>
<g id="a_node1"><a xlink:title=" ">
<polygon fill="#bfbfbf" stroke="black" points="319.5,-280.5 319.5,-299.5 519.5,-299.5 519.5,-280.5 319.5,-280.5"/>
<text text-anchor="middle" x="419.5" y="-287.5" font-family="Helvetica,sans-Serif" font-size="10.00">CanonicalPolyadicDecomposition.cxx</text>
</a>
</g>
</g>
<!-- Node2 -->
<g id="node2" class="node">
<title>Node2</title>
<g id="a_node2"><a xlink:href="CanonicalPolyadicDecomposition_8hpp.html" target="_top" xlink:title=" ">
<polygon fill="none" stroke="black" points="234,-224.5 234,-243.5 463,-243.5 463,-224.5 234,-224.5"/>
<text text-anchor="middle" x="348.5" y="-231.5" font-family="Helvetica,sans-Serif" font-size="10.00">math/CanonicalPolyadicDecomposition.hpp</text>
</a>
</g>
</g>
<!-- Node1&#45;&gt;Node2 -->
<g id="edge1" class="edge">
<title>Node1&#45;&gt;Node2</title>
<path fill="none" stroke="midnightblue" d="M408.09,-280.32C397.39,-272.18 381.16,-259.84 368.34,-250.09"/>
<polygon fill="midnightblue" stroke="midnightblue" points="370.19,-247.1 360.11,-243.83 365.96,-252.67 370.19,-247.1"/>
</g>
<!-- Node8 -->
<g id="node8" class="node">
<title>Node8</title>
<g id="a_node8"><a xlink:href="Log_8hpp.html" target="_top" xlink:title=" ">
<polygon fill="none" stroke="black" points="454.5,-112.5 454.5,-131.5 528.5,-131.5 528.5,-112.5 454.5,-112.5"/>
<text text-anchor="middle" x="491.5" y="-119.5" font-family="Helvetica,sans-Serif" font-size="10.00">util/Log.hpp</text>
</a>
</g>
</g>
<!-- Node1&#45;&gt;Node8 -->
<g id="edge32" class="edge">
<title>Node1&#45;&gt;Node8</title>
<path fill="none" stroke="midnightblue" d="M434.68,-280.37C446.97,-272.53 463.64,-259.79 472.5,-244 490.73,-211.5 492.91,-166.79 492.46,-141.82"/>
<polygon fill="midnightblue" stroke="midnightblue" points="495.95,-141.44 492.11,-131.57 488.96,-141.69 495.95,-141.44"/>
</g>
<!-- Node20 -->
<g id="node20" class="node">
<title>Node20</title>
<g id="a_node20"><a xlink:href="Complex_8hpp.html" target="_top" xlink:title=" ">
<polygon fill="none" stroke="black" points="98.5,-224.5 98.5,-243.5 208.5,-243.5 208.5,-224.5 98.5,-224.5"/>
<text text-anchor="middle" x="153.5" y="-231.5" font-family="Helvetica,sans-Serif" font-size="10.00">math/Complex.hpp</text>
</a>
</g>
</g>
<!-- Node1&#45;&gt;Node20 -->
<g id="edge24" class="edge">
<title>Node1&#45;&gt;Node20</title>
<path fill="none" stroke="midnightblue" d="M377.35,-280.44C330.75,-270.98 255.66,-255.74 205.45,-245.55"/>
<polygon fill="midnightblue" stroke="midnightblue" points="205.95,-242.08 195.45,-243.52 204.56,-248.94 205.95,-242.08"/>
</g>
<!-- Node23 -->
<g id="node23" class="node">
<title>Node23</title>
<g id="a_node23"><a xlink:href="Exception_8hpp.html" target="_top" xlink:title=" ">
<polygon fill="none" stroke="black" points="546.5,-112.5 546.5,-131.5 650.5,-131.5 650.5,-112.5 546.5,-112.5"/>
<text text-anchor="middle" x="598.5" y="-119.5" font-family="Helvetica,sans-Serif" font-size="10.00">util/Exception.hpp</text>
</a>
</g>
</g>
<!-- Node1&#45;&gt;Node23 -->
<g id="edge28" class="edge">
<title>Node1&#45;&gt;Node23</title>
<path fill="none" stroke="midnightblue" d="M435.88,-280.35C450.86,-272.04 473.25,-258.63 490.5,-244 529.32,-211.07 567.18,-164.3 586.07,-139.66"/>
<polygon fill="midnightblue" stroke="midnightblue" points="588.88,-141.74 592.13,-131.66 583.31,-137.51 588.88,-141.74"/>
</g>
<!-- Node3 -->
<g id="node3" class="node">
<title>Node3</title>
<g id="a_node3"><a xlink:href="DryTensor_8hpp.html" target="_top" xlink:title=" ">
<polygon fill="none" stroke="black" points="233.5,-168.5 233.5,-187.5 319.5,-187.5 319.5,-168.5 233.5,-168.5"/>
<text text-anchor="middle" x="276.5" y="-175.5" font-family="Helvetica,sans-Serif" font-size="10.00">DryTensor.hpp</text>
</a>
</g>
</g>
<!-- Node2&#45;&gt;Node3 -->
<g id="edge2" class="edge">
<title>Node2&#45;&gt;Node3</title>
<path fill="none" stroke="midnightblue" d="M336.93,-224.32C326.08,-216.18 309.62,-203.84 296.62,-194.09"/>
<polygon fill="midnightblue" stroke="midnightblue" points="298.38,-191.03 288.28,-187.83 294.18,-196.63 298.38,-191.03"/>
</g>
<!-- Node18 -->
<g id="node18" class="node">
<title>Node18</title>
<g id="a_node18"><a xlink:href="CTF_8hpp.html" target="_top" xlink:title=" ">
<polygon fill="none" stroke="black" points="350.5,-168.5 350.5,-187.5 424.5,-187.5 424.5,-168.5 350.5,-168.5"/>
<text text-anchor="middle" x="387.5" y="-175.5" font-family="Helvetica,sans-Serif" font-size="10.00">util/CTF.hpp</text>
</a>
</g>
</g>
<!-- Node2&#45;&gt;Node18 -->
<g id="edge22" class="edge">
<title>Node2&#45;&gt;Node18</title>
<path fill="none" stroke="midnightblue" d="M354.94,-224.08C360.45,-216.46 368.53,-205.26 375.26,-195.94"/>
<polygon fill="midnightblue" stroke="midnightblue" points="378.16,-197.91 381.18,-187.75 372.49,-193.81 378.16,-197.91"/>
</g>
<!-- Node4 -->
<g id="node4" class="node">
<title>Node4</title>
<g id="a_node4"><a xlink:href="SourceLocation_8hpp.html" target="_top" xlink:title=" ">
<polygon fill="none" stroke="black" points="199,-112.5 199,-131.5 330,-131.5 330,-112.5 199,-112.5"/>
<text text-anchor="middle" x="264.5" y="-119.5" font-family="Helvetica,sans-Serif" font-size="10.00">util/SourceLocation.hpp</text>
</a>
</g>
</g>
<!-- Node3&#45;&gt;Node4 -->
<g id="edge3" class="edge">
<title>Node3&#45;&gt;Node4</title>
<path fill="none" stroke="midnightblue" d="M274.52,-168.08C272.93,-160.93 270.64,-150.64 268.65,-141.69"/>
<polygon fill="midnightblue" stroke="midnightblue" points="272.03,-140.75 266.44,-131.75 265.2,-142.27 272.03,-140.75"/>
</g>
<!-- Node5 -->
<g id="node5" class="node">
<title>Node5</title>
<g id="a_node5"><a xlink:title=" ">
<polygon fill="none" stroke="#bfbfbf" points="209.5,-56.5 209.5,-75.5 253.5,-75.5 253.5,-56.5 209.5,-56.5"/>
<text text-anchor="middle" x="231.5" y="-63.5" font-family="Helvetica,sans-Serif" font-size="10.00">string</text>
</a>
</g>
</g>
<!-- Node3&#45;&gt;Node5 -->
<g id="edge21" class="edge">
<title>Node3&#45;&gt;Node5</title>
<path fill="none" stroke="midnightblue" d="M295.73,-168.42C319.08,-156.76 353.6,-134.73 338.5,-112 334.03,-105.27 293.17,-89.31 263.27,-78.33"/>
<polygon fill="midnightblue" stroke="midnightblue" points="264.21,-74.95 253.61,-74.82 261.81,-81.53 264.21,-74.95"/>
</g>
<!-- Node3&#45;&gt;Node8 -->
<g id="edge7" class="edge">
<title>Node3&#45;&gt;Node8</title>
<path fill="none" stroke="midnightblue" d="M310.57,-168.44C347.68,-159.12 407.16,-144.18 447.71,-134"/>
<polygon fill="midnightblue" stroke="midnightblue" points="448.75,-137.35 457.59,-131.52 447.04,-130.56 448.75,-137.35"/>
</g>
<!-- Node11 -->
<g id="node11" class="node">
<title>Node11</title>
<g id="a_node11"><a xlink:title=" ">
<polygon fill="none" stroke="#bfbfbf" points="134.5,-0.5 134.5,-19.5 184.5,-19.5 184.5,-0.5 134.5,-0.5"/>
<text text-anchor="middle" x="159.5" y="-7.5" font-family="Helvetica,sans-Serif" font-size="10.00">cstdint</text>
</a>
</g>
</g>
<!-- Node3&#45;&gt;Node11 -->
<g id="edge19" class="edge">
<title>Node3&#45;&gt;Node11</title>
<path fill="none" stroke="midnightblue" d="M233.21,-170.06C193.06,-162.64 137.59,-149.53 124.5,-132 100.73,-100.17 128.33,-52.57 146.35,-27.62"/>
<polygon fill="midnightblue" stroke="midnightblue" points="149.23,-29.62 152.45,-19.52 143.64,-25.41 149.23,-29.62"/>
</g>
<!-- Node17 -->
<g id="node17" class="node">
<title>Node17</title>
<g id="a_node17"><a xlink:title=" ">
<polygon fill="none" stroke="#bfbfbf" points="134,-112.5 134,-131.5 181,-131.5 181,-112.5 134,-112.5"/>
<text text-anchor="middle" x="157.5" y="-119.5" font-family="Helvetica,sans-Serif" font-size="10.00">vector</text>
</a>
</g>
</g>
<!-- Node3&#45;&gt;Node17 -->
<g id="edge20" class="edge">
<title>Node3&#45;&gt;Node17</title>
<path fill="none" stroke="midnightblue" d="M257.64,-168.44C238.23,-159.64 207.77,-145.81 185.54,-135.72"/>
<polygon fill="midnightblue" stroke="midnightblue" points="186.82,-132.46 176.27,-131.52 183.93,-138.84 186.82,-132.46"/>
</g>
<!-- Node4&#45;&gt;Node5 -->
<g id="edge4" class="edge">
<title>Node4&#45;&gt;Node5</title>
<path fill="none" stroke="midnightblue" d="M259.05,-112.08C254.49,-104.61 247.83,-93.72 242.21,-84.52"/>
<polygon fill="midnightblue" stroke="midnightblue" points="245.05,-82.46 236.85,-75.75 239.08,-86.11 245.05,-82.46"/>
</g>
<!-- Node6 -->
<g id="node6" class="node">
<title>Node6</title>
<g id="a_node6"><a xlink:title=" ">
<polygon fill="none" stroke="#bfbfbf" points="412.5,-0.5 412.5,-19.5 468.5,-19.5 468.5,-0.5 412.5,-0.5"/>
<text text-anchor="middle" x="440.5" y="-7.5" font-family="Helvetica,sans-Serif" font-size="10.00">sstream</text>
</a>
</g>
</g>
<!-- Node4&#45;&gt;Node6 -->
<g id="edge5" class="edge">
<title>Node4&#45;&gt;Node6</title>
<path fill="none" stroke="midnightblue" d="M287.3,-112.35C307.5,-104.24 337.46,-91.12 361.5,-76 384.59,-61.48 408.4,-40.99 423.77,-26.92"/>
<polygon fill="midnightblue" stroke="midnightblue" points="426.44,-29.21 431.37,-19.84 421.67,-24.09 426.44,-29.21"/>
</g>
<!-- Node7 -->
<g id="node7" class="node">
<title>Node7</title>
<g id="a_node7"><a xlink:title=" ">
<polygon fill="none" stroke="#bfbfbf" points="43,-0.5 43,-19.5 100,-19.5 100,-0.5 43,-0.5"/>
<text text-anchor="middle" x="71.5" y="-7.5" font-family="Helvetica,sans-Serif" font-size="10.00">ostream</text>
</a>
</g>
</g>
<!-- Node4&#45;&gt;Node7 -->
<g id="edge6" class="edge">
<title>Node4&#45;&gt;Node7</title>
<path fill="none" stroke="midnightblue" d="M249.36,-112.37C215.95,-93.33 135.74,-47.62 95.45,-24.65"/>
<polygon fill="midnightblue" stroke="midnightblue" points="97,-21.5 86.57,-19.59 93.53,-27.58 97,-21.5"/>
</g>
<!-- Node8&#45;&gt;Node5 -->
<g id="edge15" class="edge">
<title>Node8&#45;&gt;Node5</title>
<path fill="none" stroke="midnightblue" d="M454.4,-113.73C398.71,-102.82 297.06,-82.89 263.83,-75.93"/>
<polygon fill="midnightblue" stroke="midnightblue" points="264.31,-72.45 253.79,-73.73 262.81,-79.29 264.31,-72.45"/>
</g>
<!-- Node9 -->
<g id="node9" class="node">
<title>Node9</title>
<g id="a_node9"><a xlink:href="Time_8hpp.html" target="_top" xlink:title=" ">
<polygon fill="none" stroke="black" points="272,-56.5 272,-75.5 353,-75.5 353,-56.5 272,-56.5"/>
<text text-anchor="middle" x="312.5" y="-63.5" font-family="Helvetica,sans-Serif" font-size="10.00">util/Time.hpp</text>
</a>
</g>
</g>
<!-- Node8&#45;&gt;Node9 -->
<g id="edge8" class="edge">
<title>Node8&#45;&gt;Node9</title>
<path fill="none" stroke="midnightblue" d="M463.14,-112.44C432.76,-103.28 384.39,-88.69 350.68,-78.52"/>
<polygon fill="midnightblue" stroke="midnightblue" points="351.32,-75.05 340.73,-75.52 349.29,-81.76 351.32,-75.05"/>
</g>
<!-- Node14 -->
<g id="node14" class="node">
<title>Node14</title>
<g id="a_node14"><a xlink:title=" ">
<polygon fill="none" stroke="#bfbfbf" points="568.5,-56.5 568.5,-75.5 628.5,-75.5 628.5,-56.5 568.5,-56.5"/>
<text text-anchor="middle" x="598.5" y="-63.5" font-family="Helvetica,sans-Serif" font-size="10.00">iostream</text>
</a>
</g>
</g>
<!-- Node8&#45;&gt;Node14 -->
<g id="edge16" class="edge">
<title>Node8&#45;&gt;Node14</title>
<path fill="none" stroke="midnightblue" d="M508.69,-112.32C525.85,-103.66 552.45,-90.24 572.25,-80.25"/>
<polygon fill="midnightblue" stroke="midnightblue" points="574,-83.28 581.35,-75.65 570.85,-77.04 574,-83.28"/>
</g>
<!-- Node15 -->
<g id="node15" class="node">
<title>Node15</title>
<g id="a_node15"><a xlink:title=" ">
<polygon fill="none" stroke="#bfbfbf" points="410,-56.5 410,-75.5 477,-75.5 477,-56.5 410,-56.5"/>
<text text-anchor="middle" x="443.5" y="-63.5" font-family="Helvetica,sans-Serif" font-size="10.00">streambuf</text>
</a>
</g>
</g>
<!-- Node8&#45;&gt;Node15 -->
<g id="edge17" class="edge">
<title>Node8&#45;&gt;Node15</title>
<path fill="none" stroke="midnightblue" d="M483.57,-112.08C476.65,-104.3 466.43,-92.8 458.05,-83.37"/>
<polygon fill="midnightblue" stroke="midnightblue" points="460.54,-80.9 451.28,-75.75 455.31,-85.55 460.54,-80.9"/>
</g>
<!-- Node16 -->
<g id="node16" class="node">
<title>Node16</title>
<g id="a_node16"><a xlink:title=" ">
<polygon fill="none" stroke="#bfbfbf" points="495,-56.5 495,-75.5 550,-75.5 550,-56.5 495,-56.5"/>
<text text-anchor="middle" x="522.5" y="-63.5" font-family="Helvetica,sans-Serif" font-size="10.00">fstream</text>
</a>
</g>
</g>
<!-- Node8&#45;&gt;Node16 -->
<g id="edge18" class="edge">
<title>Node8&#45;&gt;Node16</title>
<path fill="none" stroke="midnightblue" d="M496.62,-112.08C500.91,-104.61 507.16,-93.72 512.44,-84.52"/>
<polygon fill="midnightblue" stroke="midnightblue" points="515.53,-86.17 517.48,-75.75 509.46,-82.68 515.53,-86.17"/>
</g>
<!-- Node9&#45;&gt;Node6 -->
<g id="edge13" class="edge">
<title>Node9&#45;&gt;Node6</title>
<path fill="none" stroke="midnightblue" d="M332.78,-56.44C353.85,-47.56 387.02,-33.56 410.99,-23.45"/>
<polygon fill="midnightblue" stroke="midnightblue" points="412.46,-26.63 420.31,-19.52 409.74,-20.18 412.46,-26.63"/>
</g>
<!-- Node9&#45;&gt;Node7 -->
<g id="edge11" class="edge">
<title>Node9&#45;&gt;Node7</title>
<path fill="none" stroke="midnightblue" d="M274.31,-56.44C229.37,-46.37 155.16,-29.75 110.06,-19.64"/>
<polygon fill="midnightblue" stroke="midnightblue" points="110.6,-16.17 100.07,-17.4 109.07,-23 110.6,-16.17"/>
</g>
<!-- Node10 -->
<g id="node10" class="node">
<title>Node10</title>
<g id="a_node10"><a xlink:title=" ">
<polygon fill="none" stroke="#bfbfbf" points="350.5,-0.5 350.5,-19.5 394.5,-19.5 394.5,-0.5 350.5,-0.5"/>
<text text-anchor="middle" x="372.5" y="-7.5" font-family="Helvetica,sans-Serif" font-size="10.00">ctime</text>
</a>
</g>
</g>
<!-- Node9&#45;&gt;Node10 -->
<g id="edge9" class="edge">
<title>Node9&#45;&gt;Node10</title>
<path fill="none" stroke="midnightblue" d="M322.14,-56.32C331.01,-48.34 344.37,-36.31 355.11,-26.65"/>
<polygon fill="midnightblue" stroke="midnightblue" points="357.59,-29.13 362.68,-19.83 352.91,-23.92 357.59,-29.13"/>
</g>
<!-- Node9&#45;&gt;Node11 -->
<g id="edge10" class="edge">
<title>Node9&#45;&gt;Node11</title>
<path fill="none" stroke="midnightblue" d="M288.26,-56.44C262.63,-47.4 222.01,-33.06 193.26,-22.92"/>
<polygon fill="midnightblue" stroke="midnightblue" points="194.22,-19.54 183.63,-19.52 191.89,-26.15 194.22,-19.54"/>
</g>
<!-- Node12 -->
<g id="node12" class="node">
<title>Node12</title>
<g id="a_node12"><a xlink:title=" ">
<polygon fill="none" stroke="#bfbfbf" points="210.5,-0.5 210.5,-19.5 266.5,-19.5 266.5,-0.5 210.5,-0.5"/>
<text text-anchor="middle" x="238.5" y="-7.5" font-family="Helvetica,sans-Serif" font-size="10.00">iomanip</text>
</a>
</g>
</g>
<!-- Node9&#45;&gt;Node12 -->
<g id="edge12" class="edge">
<title>Node9&#45;&gt;Node12</title>
<path fill="none" stroke="midnightblue" d="M300.61,-56.32C289.35,-48.11 272.21,-35.6 258.79,-25.81"/>
<polygon fill="midnightblue" stroke="midnightblue" points="260.75,-22.9 250.61,-19.83 256.62,-28.56 260.75,-22.9"/>
</g>
<!-- Node13 -->
<g id="node13" class="node">
<title>Node13</title>
<g id="a_node13"><a xlink:title=" ">
<polygon fill="none" stroke="#bfbfbf" points="285,-0.5 285,-19.5 332,-19.5 332,-0.5 285,-0.5"/>
<text text-anchor="middle" x="308.5" y="-7.5" font-family="Helvetica,sans-Serif" font-size="10.00">cmath</text>
</a>
</g>
</g>
<!-- Node9&#45;&gt;Node13 -->
<g id="edge14" class="edge">
<title>Node9&#45;&gt;Node13</title>
<path fill="none" stroke="midnightblue" d="M311.84,-56.08C311.32,-49.01 310.56,-38.86 309.91,-29.99"/>
<polygon fill="midnightblue" stroke="midnightblue" points="313.38,-29.47 309.15,-19.75 306.4,-29.98 313.38,-29.47"/>
</g>
<!-- Node19 -->
<g id="node19" class="node">
<title>Node19</title>
<g id="a_node19"><a xlink:title=" ">
<polygon fill="none" stroke="#bfbfbf" points="386.5,-112.5 386.5,-131.5 436.5,-131.5 436.5,-112.5 386.5,-112.5"/>
<text text-anchor="middle" x="411.5" y="-119.5" font-family="Helvetica,sans-Serif" font-size="10.00">ctf.hpp</text>
</a>
</g>
</g>
<!-- Node18&#45;&gt;Node19 -->
<g id="edge23" class="edge">
<title>Node18&#45;&gt;Node19</title>
<path fill="none" stroke="midnightblue" d="M391.46,-168.08C394.71,-160.77 399.42,-150.18 403.45,-141.1"/>
<polygon fill="midnightblue" stroke="midnightblue" points="406.75,-142.31 407.61,-131.75 400.35,-139.47 406.75,-142.31"/>
</g>
<!-- Node21 -->
<g id="node21" class="node">
<title>Node21</title>
<g id="a_node21"><a xlink:href="Float_8hpp.html" target="_top" xlink:title=" ">
<polygon fill="none" stroke="black" points="0,-168.5 0,-187.5 91,-187.5 91,-168.5 0,-168.5"/>
<text text-anchor="middle" x="45.5" y="-175.5" font-family="Helvetica,sans-Serif" font-size="10.00">math/Float.hpp</text>
</a>
</g>
</g>
<!-- Node20&#45;&gt;Node21 -->
<g id="edge25" class="edge">
<title>Node20&#45;&gt;Node21</title>
<path fill="none" stroke="midnightblue" d="M136.15,-224.32C118.83,-215.66 91.98,-202.24 72,-192.25"/>
<polygon fill="midnightblue" stroke="midnightblue" points="73.32,-189 62.81,-187.65 70.19,-195.26 73.32,-189"/>
</g>
<!-- Node22 -->
<g id="node22" class="node">
<title>Node22</title>
<g id="a_node22"><a xlink:title=" ">
<polygon fill="none" stroke="#bfbfbf" points="124,-168.5 124,-187.5 183,-187.5 183,-168.5 124,-168.5"/>
<text text-anchor="middle" x="153.5" y="-175.5" font-family="Helvetica,sans-Serif" font-size="10.00">complex</text>
</a>
</g>
</g>
<!-- Node20&#45;&gt;Node22 -->
<g id="edge27" class="edge">
<title>Node20&#45;&gt;Node22</title>
<path fill="none" stroke="midnightblue" d="M153.5,-224.08C153.5,-217.01 153.5,-206.86 153.5,-197.99"/>
<polygon fill="midnightblue" stroke="midnightblue" points="157,-197.75 153.5,-187.75 150,-197.75 157,-197.75"/>
</g>
<!-- Node21&#45;&gt;Node7 -->
<g id="edge26" class="edge">
<title>Node21&#45;&gt;Node7</title>
<path fill="none" stroke="midnightblue" d="M46.9,-168.08C50.99,-141.95 63.01,-65.21 68.59,-29.58"/>
<polygon fill="midnightblue" stroke="midnightblue" points="72.07,-29.99 70.16,-19.57 65.15,-28.91 72.07,-29.99"/>
</g>
<!-- Node23&#45;&gt;Node5 -->
<g id="edge29" class="edge">
<title>Node23&#45;&gt;Node5</title>
<path fill="none" stroke="midnightblue" d="M546.26,-113.24C543.3,-112.81 540.36,-112.4 537.5,-112 418.63,-95.45 384.91,-100.94 263.79,-75.99"/>
<polygon fill="midnightblue" stroke="midnightblue" points="264.25,-72.52 253.75,-73.9 262.82,-79.37 264.25,-72.52"/>
</g>
<!-- Node23&#45;&gt;Node6 -->
<g id="edge30" class="edge">
<title>Node23&#45;&gt;Node6</title>
<path fill="none" stroke="midnightblue" d="M610.4,-112.33C626.71,-99.41 652.35,-74.62 637.5,-56 618.06,-31.62 530.64,-19.4 479.01,-14.21"/>
<polygon fill="midnightblue" stroke="midnightblue" points="479.18,-10.71 468.89,-13.23 478.51,-17.68 479.18,-10.71"/>
</g>
<!-- Node23&#45;&gt;Node14 -->
<g id="edge31" class="edge">
<title>Node23&#45;&gt;Node14</title>
<path fill="none" stroke="midnightblue" d="M598.5,-112.08C598.5,-105.01 598.5,-94.86 598.5,-85.99"/>
<polygon fill="midnightblue" stroke="midnightblue" points="602,-85.75 598.5,-75.75 595,-85.75 602,-85.75"/>
</g>
</g>
</svg>
