<?xml version="1.0" encoding="UTF-8" standalone="no"?>
<!DOCTYPE svg PUBLIC "-//W3C//DTD SVG 1.1//EN"
 "http://www.w3.org/Graphics/SVG/1.1/DTD/svg11.dtd">
<!-- Generated by graphviz version 8.1.0 (0)
 -->
<!-- Title: CcsdPreconditioner.hpp Pages: 1 -->
<svg width="1203pt" height="98pt"
 viewBox="0.00 0.00 1203.38 98.25" xmlns="http://www.w3.org/2000/svg" xmlns:xlink="http://www.w3.org/1999/xlink">
<g id="graph0" class="graph" transform="scale(1 1) rotate(0) translate(4 94.25)">
<title>CcsdPreconditioner.hpp</title>
<!-- Node1 -->
<g id="Node000001" class="node">
<title>Node1</title>
<g id="a_Node000001"><a xlink:title=" ">
<polygon fill="#999999" stroke="#666666" points="632.5,-90.25 502.5,-90.25 502.5,-69.5 632.5,-69.5 632.5,-90.25"/>
<text text-anchor="middle" x="567.5" y="-76.75" font-family="Helvetica,sans-Serif" font-size="10.00">CcsdPreconditioner.hpp</text>
</a>
</g>
</g>
<!-- Node2 -->
<g id="Node000002" class="node">
<title>Node2</title>
<g id="a_Node000002"><a xlink:href="CcsdEquationOfMotionDavidson_8cxx.html" target="_top" xlink:title=" ">
<polygon fill="white" stroke="#666666" points="193,-27.12 0,-27.12 0,-6.38 193,-6.38 193,-27.12"/>
<text text-anchor="middle" x="96.5" y="-13.62" font-family="Helvetica,sans-Serif" font-size="10.00">CcsdEquationOfMotionDavidson.cxx</text>
</a>
</g>
</g>
<!-- Node1&#45;&gt;Node2 -->
<g id="edge1_Node000001_Node000002" class="edge">
<title>Node1&#45;&gt;Node2</title>
<g id="a_edge1_Node000001_Node000002"><a xlink:title=" ">
<path fill="none" stroke="#63b8ff" d="M491.69,-70.05C417.63,-61.29 301.72,-47.23 201.5,-33.5 188.17,-31.67 173.9,-29.61 160.32,-27.59"/>
<polygon fill="#63b8ff" stroke="#63b8ff" points="490.97,-73.61 501.31,-71.3 491.79,-66.65 490.97,-73.61"/>
</a>
</g>
</g>
<!-- Node3 -->
<g id="Node000003" class="node">
<title>Node3</title>
<g id="a_Node000003"><a xlink:href="CcsdPreconditioner_8cxx.html" target="_top" xlink:title=" ">
<polygon fill="white" stroke="#666666" points="340.12,-27.12 210.88,-27.12 210.88,-6.38 340.12,-6.38 340.12,-27.12"/>
<text text-anchor="middle" x="275.5" y="-13.62" font-family="Helvetica,sans-Serif" font-size="10.00">CcsdPreconditioner.cxx</text>
</a>
</g>
</g>
<!-- Node1&#45;&gt;Node3 -->
<g id="edge2_Node000001_Node000003" class="edge">
<title>Node1&#45;&gt;Node3</title>
<g id="a_edge2_Node000001_Node000003"><a xlink:title=" ">
<path fill="none" stroke="#63b8ff" d="M509.09,-66.79C465.18,-57.69 403.55,-44.88 349.5,-33.5 340.5,-31.61 330.89,-29.57 321.68,-27.61"/>
<polygon fill="#63b8ff" stroke="#63b8ff" points="508.36,-70.42 518.86,-69.02 509.78,-63.57 508.36,-70.42"/>
</a>
</g>
</g>
<!-- Node4 -->
<g id="Node000004" class="node">
<title>Node4</title>
<g id="a_Node000004"><a xlink:href="CcsdtEquationOfMotionDavidson_8cxx.html" target="_top" xlink:title=" ">
<polygon fill="white" stroke="#666666" points="554.88,-27.12 358.12,-27.12 358.12,-6.38 554.88,-6.38 554.88,-27.12"/>
<text text-anchor="middle" x="456.5" y="-13.62" font-family="Helvetica,sans-Serif" font-size="10.00">CcsdtEquationOfMotionDavidson.cxx</text>
</a>
</g>
</g>
<!-- Node1&#45;&gt;Node4 -->
<g id="edge3_Node000001_Node000004" class="edge">
<title>Node1&#45;&gt;Node4</title>
<g id="a_edge3_Node000001_Node000004"><a xlink:title=" ">
<path fill="none" stroke="#63b8ff" d="M540.21,-63.85C519.66,-52.53 492.07,-37.34 474.29,-27.55"/>
<polygon fill="#63b8ff" stroke="#63b8ff" points="538.22,-67.3 548.67,-69.05 541.59,-61.16 538.22,-67.3"/>
</a>
</g>
</g>
<!-- Node5 -->
<g id="Node000005" class="node">
<title>Node5</title>
<g id="a_Node000005"><a xlink:href="UCcsdEAEquationOfMotionDavidson_8cxx.html" target="_top" xlink:title=" ">
<polygon fill="white" stroke="#666666" points="786.12,-27.12 572.88,-27.12 572.88,-6.38 786.12,-6.38 786.12,-27.12"/>
<text text-anchor="middle" x="679.5" y="-13.62" font-family="Helvetica,sans-Serif" font-size="10.00">UCcsdEAEquationOfMotionDavidson.cxx</text>
</a>
</g>
</g>
<!-- Node1&#45;&gt;Node5 -->
<g id="edge4_Node000001_Node000005" class="edge">
<title>Node1&#45;&gt;Node5</title>
<g id="a_edge4_Node000001_Node000005"><a xlink:title=" ">
<path fill="none" stroke="#63b8ff" d="M595.03,-63.85C615.77,-52.53 643.61,-37.34 661.55,-27.55"/>
<polygon fill="#63b8ff" stroke="#63b8ff" points="593.6,-61.19 586.49,-69.05 596.95,-67.34 593.6,-61.19"/>
</a>
</g>
</g>
<!-- Node6 -->
<g id="Node000006" class="node">
<title>Node6</title>
<g id="a_Node000006"><a xlink:href="UCcsdIPEquationOfMotionDavidson_8cxx.html" target="_top" xlink:title=" ">
<polygon fill="white" stroke="#666666" points="1013.25,-27.12 803.75,-27.12 803.75,-6.38 1013.25,-6.38 1013.25,-27.12"/>
<text text-anchor="middle" x="908.5" y="-13.62" font-family="Helvetica,sans-Serif" font-size="10.00">UCcsdIPEquationOfMotionDavidson.cxx</text>
</a>
</g>
</g>
<!-- Node1&#45;&gt;Node6 -->
<g id="edge5_Node000001_Node000006" class="edge">
<title>Node1&#45;&gt;Node6</title>
<g id="a_edge5_Node000001_Node000006"><a xlink:title=" ">
<path fill="none" stroke="#63b8ff" d="M633.06,-67.12C697.1,-55.64 793.44,-38.37 853.57,-27.6"/>
<polygon fill="#63b8ff" stroke="#63b8ff" points="632.51,-63.84 623.29,-69.05 633.75,-70.73 632.51,-63.84"/>
</a>
</g>
</g>
<!-- Node7 -->
<g id="Node000007" class="node">
<title>Node7</title>
<g id="a_Node000007"><a xlink:href="UnrestrictedEquationOfMotionSinglesFromRpa_8cxx.html" target="_top" xlink:title=" ">
<polygon fill="white" stroke="#666666" points="1195.38,-33.5 1031.62,-33.5 1031.62,0 1195.38,0 1195.38,-33.5"/>
<text text-anchor="start" x="1039.62" y="-20" font-family="Helvetica,sans-Serif" font-size="10.00">UnrestrictedEquationOfMotion</text>
<text text-anchor="middle" x="1113.5" y="-7.25" font-family="Helvetica,sans-Serif" font-size="10.00">SinglesFromRpa.cxx</text>
</a>
</g>
</g>
<!-- Node1&#45;&gt;Node7 -->
<g id="edge6_Node000001_Node000007" class="edge">
<title>Node1&#45;&gt;Node7</title>
<g id="a_edge6_Node000001_Node000007"><a xlink:title=" ">
<path fill="none" stroke="#63b8ff" d="M643.56,-72.97C734.07,-65.56 889.66,-51.6 1022.5,-33.5 1025.36,-33.11 1028.27,-32.7 1031.2,-32.27"/>
<polygon fill="#63b8ff" stroke="#63b8ff" points="643.53,-69.55 633.85,-73.85 644.1,-76.52 643.53,-69.55"/>
</a>
</g>
</g>
</g>
</svg>
