<?xml version="1.0" encoding="UTF-8" standalone="no"?>
<!DOCTYPE svg PUBLIC "-//W3C//DTD SVG 1.1//EN"
 "http://www.w3.org/Graphics/SVG/1.1/DTD/svg11.dtd">
<!-- Generated by graphviz version 7.0.0 (0)
 -->
<!-- Title: CcsdtEquationOfMotionDavidson.hpp Pages: 1 -->
<svg width="2010pt" height="302pt"
 viewBox="0.00 0.00 2010.00 302.00" xmlns="http://www.w3.org/2000/svg" xmlns:xlink="http://www.w3.org/1999/xlink">
<g id="graph0" class="graph" transform="scale(1 1) rotate(0) translate(4 298)">
<title>CcsdtEquationOfMotionDavidson.hpp</title>
<!-- Node1 -->
<g id="node1" class="node">
<title>Node1</title>
<g id="a_node1"><a xlink:title=" ">
<polygon fill="#999999" stroke="#666666" points="716,-294 518,-294 518,-275 716,-275 716,-294"/>
<text text-anchor="middle" x="617" y="-282" font-family="Helvetica,sans-Serif" font-size="10.00">CcsdtEquationOfMotionDavidson.hpp</text>
</a>
</g>
</g>
<!-- Node2 -->
<g id="node2" class="node">
<title>Node2</title>
<g id="a_node2"><a xlink:href="Algorithm_8hpp.html" target="_top" xlink:title=" ">
<polygon fill="white" stroke="#666666" points="519.5,-239 378.5,-239 378.5,-220 519.5,-220 519.5,-239"/>
<text text-anchor="middle" x="449" y="-227" font-family="Helvetica,sans-Serif" font-size="10.00">algorithms/Algorithm.hpp</text>
</a>
</g>
</g>
<!-- Node1&#45;&gt;Node2 -->
<g id="edge1" class="edge">
<title>Node1&#45;&gt;Node2</title>
<path fill="none" stroke="#63b8ff" d="M588.5,-274.51C560.9,-265.8 518.84,-252.53 488.12,-242.84"/>
<polygon fill="#63b8ff" stroke="#63b8ff" points="489.39,-239.57 478.8,-239.9 487.28,-246.25 489.39,-239.57"/>
</g>
<!-- Node17 -->
<g id="node17" class="node">
<title>Node17</title>
<g id="a_node17"><a xlink:href="Complex_8hpp.html" target="_top" xlink:title=" ">
<polygon fill="white" stroke="#666666" points="1180,-129 1070,-129 1070,-110 1180,-110 1180,-129"/>
<text text-anchor="middle" x="1125" y="-117" font-family="Helvetica,sans-Serif" font-size="10.00">math/Complex.hpp</text>
</a>
</g>
</g>
<!-- Node1&#45;&gt;Node17 -->
<g id="edge83" class="edge">
<title>Node1&#45;&gt;Node17</title>
<path fill="none" stroke="#63b8ff" d="M716.28,-280.21C858.64,-273.17 1109.81,-251.29 1166,-184 1178.59,-168.93 1162.45,-149.78 1146.87,-136.47"/>
<polygon fill="#63b8ff" stroke="#63b8ff" points="1149.17,-133.83 1139.17,-130.33 1144.8,-139.3 1149.17,-133.83"/>
</g>
<!-- Node20 -->
<g id="node20" class="node">
<title>Node20</title>
<g id="a_node20"><a xlink:title=" ">
<polygon fill="#e0e0e0" stroke="#999999" points="99.5,-19 52.5,-19 52.5,0 99.5,0 99.5,-19"/>
<text text-anchor="middle" x="76" y="-7" font-family="Helvetica,sans-Serif" font-size="10.00">vector</text>
</a>
</g>
</g>
<!-- Node1&#45;&gt;Node20 -->
<g id="edge82" class="edge">
<title>Node1&#45;&gt;Node20</title>
<path fill="none" stroke="#63b8ff" d="M517.53,-276.16C343.01,-261.94 0,-227.39 0,-175.5 0,-175.5 0,-175.5 0,-118.5 0,-80.18 32.39,-45.87 54.88,-26.66"/>
<polygon fill="#63b8ff" stroke="#63b8ff" points="57.09,-29.38 62.62,-20.34 52.66,-23.95 57.09,-29.38"/>
</g>
<!-- Node25 -->
<g id="node25" class="node">
<title>Node25</title>
<g id="a_node25"><a xlink:href="FockVector_8hpp.html" target="_top" xlink:title=" ">
<polygon fill="white" stroke="#666666" points="793.5,-239 674.5,-239 674.5,-220 793.5,-220 793.5,-239"/>
<text text-anchor="middle" x="734" y="-227" font-family="Helvetica,sans-Serif" font-size="10.00">math/FockVector.hpp</text>
</a>
</g>
</g>
<!-- Node1&#45;&gt;Node25 -->
<g id="edge34" class="edge">
<title>Node1&#45;&gt;Node25</title>
<path fill="none" stroke="#63b8ff" d="M636.85,-274.51C655.28,-266.16 682.98,-253.61 704.09,-244.05"/>
<polygon fill="#63b8ff" stroke="#63b8ff" points="705.4,-247.3 713.07,-239.98 702.51,-240.92 705.4,-247.3"/>
</g>
<!-- Node3 -->
<g id="node3" class="node">
<title>Node3</title>
<g id="a_node3"><a xlink:href="Data_8hpp.html" target="_top" xlink:title=" ">
<polygon fill="white" stroke="#666666" points="528.5,-184 467.5,-184 467.5,-165 528.5,-165 528.5,-184"/>
<text text-anchor="middle" x="498" y="-172" font-family="Helvetica,sans-Serif" font-size="10.00">Data.hpp</text>
</a>
</g>
</g>
<!-- Node2&#45;&gt;Node3 -->
<g id="edge2" class="edge">
<title>Node2&#45;&gt;Node3</title>
<path fill="none" stroke="#63b8ff" d="M457.09,-219.75C463.86,-212.43 473.72,-201.76 482.06,-192.74"/>
<polygon fill="#63b8ff" stroke="#63b8ff" points="484.49,-195.27 488.71,-185.55 479.35,-190.52 484.49,-195.27"/>
</g>
<!-- Node10 -->
<g id="node10" class="node">
<title>Node10</title>
<g id="a_node10"><a xlink:title=" ">
<polygon fill="#e0e0e0" stroke="#999999" points="399,-19 343,-19 343,0 399,0 399,-19"/>
<text text-anchor="middle" x="371" y="-7" font-family="Helvetica,sans-Serif" font-size="10.00">sstream</text>
</a>
</g>
</g>
<!-- Node2&#45;&gt;Node10 -->
<g id="edge32" class="edge">
<title>Node2&#45;&gt;Node10</title>
<path fill="none" stroke="#63b8ff" d="M445.85,-219.68C434.31,-187.43 394.21,-75.38 377.94,-29.9"/>
<polygon fill="#63b8ff" stroke="#63b8ff" points="381.28,-28.85 374.62,-20.61 374.69,-31.21 381.28,-28.85"/>
</g>
<!-- Node12 -->
<g id="node12" class="node">
<title>Node12</title>
<g id="a_node12"><a xlink:title=" ">
<polygon fill="#e0e0e0" stroke="#999999" points="193,-19 149,-19 149,0 193,0 193,-19"/>
<text text-anchor="middle" x="171" y="-7" font-family="Helvetica,sans-Serif" font-size="10.00">string</text>
</a>
</g>
</g>
<!-- Node2&#45;&gt;Node12 -->
<g id="edge30" class="edge">
<title>Node2&#45;&gt;Node12</title>
<path fill="none" stroke="#63b8ff" d="M382.86,-219.53C324.42,-208.22 240.81,-183.22 190,-129 165.02,-102.35 165.34,-56.63 168.03,-30.45"/>
<polygon fill="#63b8ff" stroke="#63b8ff" points="171.46,-31.2 169.25,-20.84 164.52,-30.33 171.46,-31.2"/>
</g>
<!-- Node2&#45;&gt;Node20 -->
<g id="edge31" class="edge">
<title>Node2&#45;&gt;Node20</title>
<path fill="none" stroke="#63b8ff" d="M378.43,-225.39C272.53,-219.98 82.65,-207.16 62,-184 23.51,-140.84 50.39,-65.25 66.41,-29.84"/>
<polygon fill="#63b8ff" stroke="#63b8ff" points="69.56,-31.38 70.67,-20.84 63.23,-28.38 69.56,-31.38"/>
</g>
<!-- Node21 -->
<g id="node21" class="node">
<title>Node21</title>
<g id="a_node21"><a xlink:href="Tensor_8hpp.html" target="_top" xlink:title=" ">
<polygon fill="white" stroke="#666666" points="1051.5,-129 964.5,-129 964.5,-110 1051.5,-110 1051.5,-129"/>
<text text-anchor="middle" x="1008" y="-117" font-family="Helvetica,sans-Serif" font-size="10.00">util/Tensor.hpp</text>
</a>
</g>
</g>
<!-- Node2&#45;&gt;Node21 -->
<g id="edge33" class="edge">
<title>Node2&#45;&gt;Node21</title>
<path fill="none" stroke="#63b8ff" d="M519.91,-224.3C644.94,-216.56 894.92,-199.41 932,-184 956.46,-173.83 979,-152.91 993.07,-137.86"/>
<polygon fill="#63b8ff" stroke="#63b8ff" points="995.59,-140.3 999.67,-130.52 990.38,-135.61 995.59,-140.3"/>
</g>
<!-- Node4 -->
<g id="node4" class="node">
<title>Node4</title>
<g id="a_node4"><a xlink:href="Log_8hpp.html" target="_top" xlink:title=" ">
<polygon fill="white" stroke="#666666" points="659,-129 585,-129 585,-110 659,-110 659,-129"/>
<text text-anchor="middle" x="622" y="-117" font-family="Helvetica,sans-Serif" font-size="10.00">util/Log.hpp</text>
</a>
</g>
</g>
<!-- Node3&#45;&gt;Node4 -->
<g id="edge3" class="edge">
<title>Node3&#45;&gt;Node4</title>
<path fill="none" stroke="#63b8ff" d="M519.03,-164.51C538.75,-156.08 568.47,-143.38 590.91,-133.79"/>
<polygon fill="#63b8ff" stroke="#63b8ff" points="592.06,-137.1 599.88,-129.95 589.31,-130.66 592.06,-137.1"/>
</g>
<!-- Node3&#45;&gt;Node12 -->
<g id="edge20" class="edge">
<title>Node3&#45;&gt;Node12</title>
<path fill="none" stroke="#63b8ff" d="M467.11,-172.74C400.74,-170.49 247.42,-161.8 209,-129 180.05,-104.29 172.95,-57.47 171.34,-30.67"/>
<polygon fill="#63b8ff" stroke="#63b8ff" points="174.84,-30.69 170.97,-20.82 167.84,-30.95 174.84,-30.69"/>
</g>
<!-- Node16 -->
<g id="node16" class="node">
<title>Node16</title>
<g id="a_node16"><a xlink:href="Float_8hpp.html" target="_top" xlink:title=" ">
<polygon fill="white" stroke="#666666" points="1170.5,-74 1079.5,-74 1079.5,-55 1170.5,-55 1170.5,-74"/>
<text text-anchor="middle" x="1125" y="-62" font-family="Helvetica,sans-Serif" font-size="10.00">math/Float.hpp</text>
</a>
</g>
</g>
<!-- Node3&#45;&gt;Node16 -->
<g id="edge15" class="edge">
<title>Node3&#45;&gt;Node16</title>
<path fill="none" stroke="#63b8ff" d="M528.9,-168.36C578.2,-160.13 677.71,-143.48 762,-129 870.33,-110.39 996.76,-88.16 1068.19,-75.55"/>
<polygon fill="#63b8ff" stroke="#63b8ff" points="1068.44,-79.06 1077.68,-73.87 1067.23,-72.17 1068.44,-79.06"/>
</g>
<!-- Node3&#45;&gt;Node17 -->
<g id="edge17" class="edge">
<title>Node3&#45;&gt;Node17</title>
<path fill="none" stroke="#63b8ff" d="M528.87,-171.64C612.37,-166.48 849.89,-151 1058.36,-129.23"/>
<polygon fill="#63b8ff" stroke="#63b8ff" points="1058.43,-132.74 1068.01,-128.21 1057.7,-125.78 1058.43,-132.74"/>
</g>
<!-- Node19 -->
<g id="node19" class="node">
<title>Node19</title>
<g id="a_node19"><a xlink:title=" ">
<polygon fill="#e0e0e0" stroke="#999999" points="325,-19 287,-19 287,0 325,0 325,-19"/>
<text text-anchor="middle" x="306" y="-7" font-family="Helvetica,sans-Serif" font-size="10.00">map</text>
</a>
</g>
</g>
<!-- Node3&#45;&gt;Node19 -->
<g id="edge21" class="edge">
<title>Node3&#45;&gt;Node19</title>
<path fill="none" stroke="#63b8ff" d="M487.4,-164.5C456.32,-138.12 365.06,-60.64 325.1,-26.72"/>
<polygon fill="#63b8ff" stroke="#63b8ff" points="327.37,-24.05 317.48,-20.25 322.84,-29.39 327.37,-24.05"/>
</g>
<!-- Node3&#45;&gt;Node20 -->
<g id="edge22" class="edge">
<title>Node3&#45;&gt;Node20</title>
<path fill="none" stroke="#63b8ff" d="M467.13,-171.58C399.02,-166.95 238.07,-153.67 190,-129 143.81,-105.3 105.72,-55.47 87.52,-28.6"/>
<polygon fill="#63b8ff" stroke="#63b8ff" points="90.61,-26.92 82.19,-20.49 84.76,-30.77 90.61,-26.92"/>
</g>
<!-- Node3&#45;&gt;Node21 -->
<g id="edge23" class="edge">
<title>Node3&#45;&gt;Node21</title>
<path fill="none" stroke="#63b8ff" d="M528.75,-170.3C612.6,-161.59 846.02,-137.33 953.08,-126.21"/>
<polygon fill="#63b8ff" stroke="#63b8ff" points="953.17,-129.72 962.76,-125.2 952.45,-122.75 953.17,-129.72"/>
</g>
<!-- Node24 -->
<g id="node24" class="node">
<title>Node24</title>
<g id="a_node24"><a xlink:href="Exception_8hpp.html" target="_top" xlink:title=" ">
<polygon fill="white" stroke="#666666" points="568,-74 464,-74 464,-55 568,-55 568,-74"/>
<text text-anchor="middle" x="516" y="-62" font-family="Helvetica,sans-Serif" font-size="10.00">util/Exception.hpp</text>
</a>
</g>
</g>
<!-- Node3&#45;&gt;Node24 -->
<g id="edge26" class="edge">
<title>Node3&#45;&gt;Node24</title>
<path fill="none" stroke="#63b8ff" d="M499.47,-164.66C502.33,-147.5 508.71,-109.26 512.65,-85.6"/>
<polygon fill="#63b8ff" stroke="#63b8ff" points="516.07,-86.39 514.26,-75.95 509.16,-85.24 516.07,-86.39"/>
</g>
<!-- Node5 -->
<g id="node5" class="node">
<title>Node5</title>
<g id="a_node5"><a xlink:href="Time_8hpp.html" target="_top" xlink:title=" ">
<polygon fill="white" stroke="#666666" points="1022.5,-74 941.5,-74 941.5,-55 1022.5,-55 1022.5,-74"/>
<text text-anchor="middle" x="982" y="-62" font-family="Helvetica,sans-Serif" font-size="10.00">util/Time.hpp</text>
</a>
</g>
</g>
<!-- Node4&#45;&gt;Node5 -->
<g id="edge4" class="edge">
<title>Node4&#45;&gt;Node5</title>
<path fill="none" stroke="#63b8ff" d="M659.43,-111.58C662.66,-111.03 665.89,-110.49 669,-110 782.42,-92.02 814.08,-92.1 930,-74.42"/>
<polygon fill="#63b8ff" stroke="#63b8ff" points="930.26,-77.92 939.62,-72.94 929.2,-71 930.26,-77.92"/>
</g>
<!-- Node4&#45;&gt;Node12 -->
<g id="edge11" class="edge">
<title>Node4&#45;&gt;Node12</title>
<path fill="none" stroke="#63b8ff" d="M584.53,-110.09C512.78,-93.88 350.83,-56.8 204.3,-19.52"/>
<polygon fill="#63b8ff" stroke="#63b8ff" points="205.35,-16.18 194.79,-17.1 203.62,-22.96 205.35,-16.18"/>
</g>
<!-- Node13 -->
<g id="node13" class="node">
<title>Node13</title>
<g id="a_node13"><a xlink:title=" ">
<polygon fill="#e0e0e0" stroke="#999999" points="477,-19 417,-19 417,0 477,0 477,-19"/>
<text text-anchor="middle" x="447" y="-7" font-family="Helvetica,sans-Serif" font-size="10.00">iostream</text>
</a>
</g>
</g>
<!-- Node4&#45;&gt;Node13 -->
<g id="edge12" class="edge">
<title>Node4&#45;&gt;Node13</title>
<path fill="none" stroke="#63b8ff" d="M634.93,-109.66C651.89,-96.99 677.85,-73.2 663,-55 614.69,4.2 569.24,-31.87 488.26,-18.98"/>
<polygon fill="#63b8ff" stroke="#63b8ff" points="489.09,-15.57 478.62,-17.2 487.83,-22.45 489.09,-15.57"/>
</g>
<!-- Node14 -->
<g id="node14" class="node">
<title>Node14</title>
<g id="a_node14"><a xlink:title=" ">
<polygon fill="#e0e0e0" stroke="#999999" points="653.5,-74 586.5,-74 586.5,-55 653.5,-55 653.5,-74"/>
<text text-anchor="middle" x="620" y="-62" font-family="Helvetica,sans-Serif" font-size="10.00">streambuf</text>
</a>
</g>
</g>
<!-- Node4&#45;&gt;Node14 -->
<g id="edge13" class="edge">
<title>Node4&#45;&gt;Node14</title>
<path fill="none" stroke="#63b8ff" d="M621.67,-109.75C621.43,-103.27 621.08,-94.16 620.77,-85.9"/>
<polygon fill="#63b8ff" stroke="#63b8ff" points="624.27,-85.82 620.39,-75.95 617.27,-86.08 624.27,-85.82"/>
</g>
<!-- Node15 -->
<g id="node15" class="node">
<title>Node15</title>
<g id="a_node15"><a xlink:title=" ">
<polygon fill="#e0e0e0" stroke="#999999" points="550.5,-19 495.5,-19 495.5,0 550.5,0 550.5,-19"/>
<text text-anchor="middle" x="523" y="-7" font-family="Helvetica,sans-Serif" font-size="10.00">fstream</text>
</a>
</g>
</g>
<!-- Node4&#45;&gt;Node15 -->
<g id="edge14" class="edge">
<title>Node4&#45;&gt;Node15</title>
<path fill="none" stroke="#63b8ff" d="M659.45,-109.85C701.59,-99.74 765.11,-83.22 772,-74 777.05,-67.23 777.45,-61.45 772,-55 743.04,-20.7 622.75,-27.33 561.84,-18.91"/>
<polygon fill="#63b8ff" stroke="#63b8ff" points="562.78,-15.52 552.34,-17.33 561.63,-22.42 562.78,-15.52"/>
</g>
<!-- Node6 -->
<g id="node6" class="node">
<title>Node6</title>
<g id="a_node6"><a xlink:title=" ">
<polygon fill="#e0e0e0" stroke="#999999" points="1858,-19 1814,-19 1814,0 1858,0 1858,-19"/>
<text text-anchor="middle" x="1836" y="-7" font-family="Helvetica,sans-Serif" font-size="10.00">ctime</text>
</a>
</g>
</g>
<!-- Node5&#45;&gt;Node6 -->
<g id="edge5" class="edge">
<title>Node5&#45;&gt;Node6</title>
<path fill="none" stroke="#63b8ff" d="M1022.73,-59.21C1037.87,-57.72 1055.21,-56.14 1071,-55 1393.11,-31.73 1480.51,-69.62 1802.71,-18.98"/>
<polygon fill="#63b8ff" stroke="#63b8ff" points="1802.96,-22.48 1812.28,-17.46 1801.86,-15.57 1802.96,-22.48"/>
</g>
<!-- Node7 -->
<g id="node7" class="node">
<title>Node7</title>
<g id="a_node7"><a xlink:title=" ">
<polygon fill="#e0e0e0" stroke="#999999" points="1648,-19 1598,-19 1598,0 1648,0 1648,-19"/>
<text text-anchor="middle" x="1623" y="-7" font-family="Helvetica,sans-Serif" font-size="10.00">cstdint</text>
</a>
</g>
</g>
<!-- Node5&#45;&gt;Node7 -->
<g id="edge6" class="edge">
<title>Node5&#45;&gt;Node7</title>
<path fill="none" stroke="#63b8ff" d="M1022.79,-56.79C1027.57,-56.12 1032.39,-55.51 1037,-55 1277.69,-28.6 1344.09,-56.11 1586.55,-19.08"/>
<polygon fill="#63b8ff" stroke="#63b8ff" points="1587.01,-22.55 1596.36,-17.55 1585.94,-15.63 1587.01,-22.55"/>
</g>
<!-- Node8 -->
<g id="node8" class="node">
<title>Node8</title>
<g id="a_node8"><a xlink:title=" ">
<polygon fill="#e0e0e0" stroke="#999999" points="1933.5,-19 1876.5,-19 1876.5,0 1933.5,0 1933.5,-19"/>
<text text-anchor="middle" x="1905" y="-7" font-family="Helvetica,sans-Serif" font-size="10.00">ostream</text>
</a>
</g>
</g>
<!-- Node5&#45;&gt;Node8 -->
<g id="edge7" class="edge">
<title>Node5&#45;&gt;Node8</title>
<path fill="none" stroke="#63b8ff" d="M1022.73,-59.18C1037.87,-57.69 1055.21,-56.11 1071,-55 1420.56,-30.42 1514.02,-65.09 1864.8,-19.02"/>
<polygon fill="#63b8ff" stroke="#63b8ff" points="1865.09,-22.51 1874.55,-17.72 1864.17,-15.57 1865.09,-22.51"/>
</g>
<!-- Node9 -->
<g id="node9" class="node">
<title>Node9</title>
<g id="a_node9"><a xlink:title=" ">
<polygon fill="#e0e0e0" stroke="#999999" points="1580,-19 1524,-19 1524,0 1580,0 1580,-19"/>
<text text-anchor="middle" x="1552" y="-7" font-family="Helvetica,sans-Serif" font-size="10.00">iomanip</text>
</a>
</g>
</g>
<!-- Node5&#45;&gt;Node9 -->
<g id="edge8" class="edge">
<title>Node5&#45;&gt;Node9</title>
<path fill="none" stroke="#63b8ff" d="M1022.8,-56.83C1027.58,-56.16 1032.39,-55.53 1037,-55 1245.04,-31.13 1302.41,-50.26 1512.69,-19.11"/>
<polygon fill="#63b8ff" stroke="#63b8ff" points="1512.94,-22.61 1522.31,-17.66 1511.9,-15.69 1512.94,-22.61"/>
</g>
<!-- Node5&#45;&gt;Node10 -->
<g id="edge9" class="edge">
<title>Node5&#45;&gt;Node10</title>
<path fill="none" stroke="#63b8ff" d="M941.14,-56.09C938.39,-55.69 935.66,-55.32 933,-55 704.43,-27.41 641.32,-52.48 410.32,-19.09"/>
<polygon fill="#63b8ff" stroke="#63b8ff" points="411.09,-15.67 400.69,-17.68 410.08,-22.59 411.09,-15.67"/>
</g>
<!-- Node11 -->
<g id="node11" class="node">
<title>Node11</title>
<g id="a_node11"><a xlink:title=" ">
<polygon fill="#e0e0e0" stroke="#999999" points="1713.5,-19 1666.5,-19 1666.5,0 1713.5,0 1713.5,-19"/>
<text text-anchor="middle" x="1690" y="-7" font-family="Helvetica,sans-Serif" font-size="10.00">cmath</text>
</a>
</g>
</g>
<!-- Node5&#45;&gt;Node11 -->
<g id="edge10" class="edge">
<title>Node5&#45;&gt;Node11</title>
<path fill="none" stroke="#63b8ff" d="M1022.79,-56.75C1027.57,-56.09 1032.39,-55.49 1037,-55 1307.86,-26.27 1382.34,-60.69 1655.28,-18.9"/>
<polygon fill="#63b8ff" stroke="#63b8ff" points="1655.48,-22.41 1664.83,-17.42 1654.41,-15.49 1655.48,-22.41"/>
</g>
<!-- Node16&#45;&gt;Node8 -->
<g id="edge16" class="edge">
<title>Node16&#45;&gt;Node8</title>
<path fill="none" stroke="#63b8ff" d="M1170.87,-56.06C1173.96,-55.67 1177.02,-55.31 1180,-55 1480.42,-23.99 1562.09,-59.63 1864.72,-19.04"/>
<polygon fill="#63b8ff" stroke="#63b8ff" points="1865.11,-22.52 1874.55,-17.71 1864.16,-15.59 1865.11,-22.52"/>
</g>
<!-- Node17&#45;&gt;Node16 -->
<g id="edge18" class="edge">
<title>Node17&#45;&gt;Node16</title>
<path fill="none" stroke="#63b8ff" d="M1125,-109.75C1125,-103.27 1125,-94.16 1125,-85.9"/>
<polygon fill="#63b8ff" stroke="#63b8ff" points="1128.5,-85.96 1125,-75.96 1121.5,-85.96 1128.5,-85.96"/>
</g>
<!-- Node18 -->
<g id="node18" class="node">
<title>Node18</title>
<g id="a_node18"><a xlink:title=" ">
<polygon fill="#e0e0e0" stroke="#999999" points="1340.5,-74 1281.5,-74 1281.5,-55 1340.5,-55 1340.5,-74"/>
<text text-anchor="middle" x="1311" y="-62" font-family="Helvetica,sans-Serif" font-size="10.00">complex</text>
</a>
</g>
</g>
<!-- Node17&#45;&gt;Node18 -->
<g id="edge19" class="edge">
<title>Node17&#45;&gt;Node18</title>
<path fill="none" stroke="#63b8ff" d="M1156.55,-109.51C1187.84,-100.59 1235.92,-86.89 1270.12,-77.15"/>
<polygon fill="#63b8ff" stroke="#63b8ff" points="1271.03,-80.53 1279.69,-74.42 1269.11,-73.8 1271.03,-80.53"/>
</g>
<!-- Node22 -->
<g id="node22" class="node">
<title>Node22</title>
<g id="a_node22"><a xlink:href="CTF_8hpp.html" target="_top" xlink:title=" ">
<polygon fill="white" stroke="#666666" points="1263,-74 1189,-74 1189,-55 1263,-55 1263,-74"/>
<text text-anchor="middle" x="1226" y="-62" font-family="Helvetica,sans-Serif" font-size="10.00">util/CTF.hpp</text>
</a>
</g>
</g>
<!-- Node21&#45;&gt;Node22 -->
<g id="edge24" class="edge">
<title>Node21&#45;&gt;Node22</title>
<path fill="none" stroke="#63b8ff" d="M1044.98,-109.51C1081.66,-100.59 1138.02,-86.89 1178.1,-77.15"/>
<polygon fill="#63b8ff" stroke="#63b8ff" points="1178.84,-80.57 1187.73,-74.8 1177.19,-73.77 1178.84,-80.57"/>
</g>
<!-- Node23 -->
<g id="node23" class="node">
<title>Node23</title>
<g id="a_node23"><a xlink:title=" ">
<polygon fill="#e0e0e0" stroke="#999999" points="2002,-19 1952,-19 1952,0 2002,0 2002,-19"/>
<text text-anchor="middle" x="1977" y="-7" font-family="Helvetica,sans-Serif" font-size="10.00">ctf.hpp</text>
</a>
</g>
</g>
<!-- Node22&#45;&gt;Node23 -->
<g id="edge25" class="edge">
<title>Node22&#45;&gt;Node23</title>
<path fill="none" stroke="#63b8ff" d="M1263.39,-56.3C1266.63,-55.81 1269.87,-55.37 1273,-55 1565.58,-20.82 1646.15,-62.33 1940.83,-19"/>
<polygon fill="#63b8ff" stroke="#63b8ff" points="1940.99,-22.52 1950.36,-17.58 1939.95,-15.59 1940.99,-22.52"/>
</g>
<!-- Node24&#45;&gt;Node10 -->
<g id="edge28" class="edge">
<title>Node24&#45;&gt;Node10</title>
<path fill="none" stroke="#63b8ff" d="M491.4,-54.51C467.93,-45.93 432.33,-32.92 405.93,-23.27"/>
<polygon fill="#63b8ff" stroke="#63b8ff" points="407.25,-20.02 396.66,-19.88 404.85,-26.6 407.25,-20.02"/>
</g>
<!-- Node24&#45;&gt;Node12 -->
<g id="edge27" class="edge">
<title>Node24&#45;&gt;Node12</title>
<path fill="none" stroke="#63b8ff" d="M463.7,-56.46C388.16,-46.23 252.98,-27.74 204.52,-19.12"/>
<polygon fill="#63b8ff" stroke="#63b8ff" points="205.24,-15.7 194.76,-17.25 203.92,-22.57 205.24,-15.7"/>
</g>
<!-- Node24&#45;&gt;Node13 -->
<g id="edge29" class="edge">
<title>Node24&#45;&gt;Node13</title>
<path fill="none" stroke="#63b8ff" d="M504.3,-54.51C494.22,-46.77 479.46,-35.43 467.44,-26.2"/>
<polygon fill="#63b8ff" stroke="#63b8ff" points="469.79,-23.6 459.73,-20.28 465.53,-29.15 469.79,-23.6"/>
</g>
<!-- Node25&#45;&gt;Node8 -->
<g id="edge80" class="edge">
<title>Node25&#45;&gt;Node8</title>
<path fill="none" stroke="#63b8ff" d="M793.82,-225.57C882.71,-220.58 1054.68,-208.5 1199,-184 1456.23,-140.32 1758.38,-54.05 1865.18,-22.46"/>
<polygon fill="#63b8ff" stroke="#63b8ff" points="1866.02,-25.86 1874.61,-19.66 1864.03,-19.15 1866.02,-25.86"/>
</g>
<!-- Node25&#45;&gt;Node12 -->
<g id="edge78" class="edge">
<title>Node25&#45;&gt;Node12</title>
<path fill="none" stroke="#63b8ff" d="M674.06,-226.34C616.96,-222.55 529.5,-212.2 459,-184 404.98,-162.39 400.52,-140.55 351,-110 298.26,-77.46 234.31,-43.31 198.58,-24.69"/>
<polygon fill="#63b8ff" stroke="#63b8ff" points="200.27,-21.63 189.78,-20.13 197.05,-27.84 200.27,-21.63"/>
</g>
<!-- Node25&#45;&gt;Node20 -->
<g id="edge77" class="edge">
<title>Node25&#45;&gt;Node20</title>
<path fill="none" stroke="#63b8ff" d="M674.17,-226.21C593.23,-222.18 444.74,-211.44 321,-184 247.18,-167.63 224.53,-168.42 160,-129 129.96,-110.65 122.95,-103 103,-74 93.64,-60.4 86.53,-43.04 81.97,-29.91"/>
<polygon fill="#63b8ff" stroke="#63b8ff" points="85.39,-29.13 78.96,-20.71 78.74,-31.3 85.39,-29.13"/>
</g>
<!-- Node25&#45;&gt;Node21 -->
<g id="edge81" class="edge">
<title>Node25&#45;&gt;Node21</title>
<path fill="none" stroke="#63b8ff" d="M793.94,-222.21C852.74,-215.11 937.47,-202.15 965,-184 981.31,-173.24 993.05,-153.95 1000.1,-139.44"/>
<polygon fill="#63b8ff" stroke="#63b8ff" points="1003.23,-141.03 1004.13,-130.47 996.84,-138.16 1003.23,-141.03"/>
</g>
<!-- Node25&#45;&gt;Node24 -->
<g id="edge46" class="edge">
<title>Node25&#45;&gt;Node24</title>
<path fill="none" stroke="#63b8ff" d="M716.92,-219.61C686.9,-203.59 623.34,-167.9 576,-129 559.03,-115.05 542.05,-96.56 530.51,-83.13"/>
<polygon fill="#63b8ff" stroke="#63b8ff" points="533.24,-80.94 524.12,-75.54 527.89,-85.45 533.24,-80.94"/>
</g>
<!-- Node26 -->
<g id="node26" class="node">
<title>Node26</title>
<g id="a_node26"><a xlink:href="ComplexTensor_8hpp.html" target="_top" xlink:title=" ">
<polygon fill="white" stroke="#666666" points="1157,-184 1017,-184 1017,-165 1157,-165 1157,-184"/>
<text text-anchor="middle" x="1087" y="-172" font-family="Helvetica,sans-Serif" font-size="10.00">math/ComplexTensor.hpp</text>
</a>
</g>
</g>
<!-- Node25&#45;&gt;Node26 -->
<g id="edge35" class="edge">
<title>Node25&#45;&gt;Node26</title>
<path fill="none" stroke="#63b8ff" d="M793.88,-219.51C855.34,-210.28 950.93,-195.93 1016.12,-186.14"/>
<polygon fill="#63b8ff" stroke="#63b8ff" points="1016.25,-189.66 1025.62,-184.72 1015.21,-182.74 1016.25,-189.66"/>
</g>
<!-- Node27 -->
<g id="node27" class="node">
<title>Node27</title>
<g id="a_node27"><a xlink:href="MathFunctions_8hpp.html" target="_top" xlink:title=" ">
<polygon fill="white" stroke="#666666" points="922.5,-184 785.5,-184 785.5,-165 922.5,-165 922.5,-184"/>
<text text-anchor="middle" x="854" y="-172" font-family="Helvetica,sans-Serif" font-size="10.00">math/MathFunctions.hpp</text>
</a>
</g>
</g>
<!-- Node25&#45;&gt;Node27 -->
<g id="edge38" class="edge">
<title>Node25&#45;&gt;Node27</title>
<path fill="none" stroke="#63b8ff" d="M754.36,-219.51C773.35,-211.12 801.93,-198.5 823.62,-188.92"/>
<polygon fill="#63b8ff" stroke="#63b8ff" points="824.83,-192.21 832.56,-184.97 822,-185.81 824.83,-192.21"/>
</g>
<!-- Node28 -->
<g id="node28" class="node">
<title>Node28</title>
<g id="a_node28"><a xlink:href="SharedPointer_8hpp.html" target="_top" xlink:title=" ">
<polygon fill="white" stroke="#666666" points="342,-129 218,-129 218,-110 342,-110 342,-129"/>
<text text-anchor="middle" x="280" y="-117" font-family="Helvetica,sans-Serif" font-size="10.00">util/SharedPointer.hpp</text>
</a>
</g>
</g>
<!-- Node25&#45;&gt;Node28 -->
<g id="edge44" class="edge">
<title>Node25&#45;&gt;Node28</title>
<path fill="none" stroke="#63b8ff" d="M674.37,-225.63C582.68,-220.51 411.84,-208.04 356,-184 331.68,-173.53 309.11,-152.67 294.99,-137.71"/>
<polygon fill="#63b8ff" stroke="#63b8ff" points="297.69,-135.47 288.37,-130.43 292.51,-140.18 297.69,-135.47"/>
</g>
<!-- Node30 -->
<g id="node30" class="node">
<title>Node30</title>
<g id="a_node30"><a xlink:href="Sisi4s_8hpp.html" target="_top" xlink:title=" ">
<polygon fill="white" stroke="#666666" points="767,-184 701,-184 701,-165 767,-165 767,-184"/>
<text text-anchor="middle" x="734" y="-172" font-family="Helvetica,sans-Serif" font-size="10.00">Sisi4s.hpp</text>
</a>
</g>
</g>
<!-- Node25&#45;&gt;Node30 -->
<g id="edge47" class="edge">
<title>Node25&#45;&gt;Node30</title>
<path fill="none" stroke="#63b8ff" d="M734,-219.75C734,-213.27 734,-204.16 734,-195.9"/>
<polygon fill="#63b8ff" stroke="#63b8ff" points="737.5,-195.96 734,-185.96 730.5,-195.96 737.5,-195.96"/>
</g>
<!-- Node38 -->
<g id="node38" class="node">
<title>Node38</title>
<g id="a_node38"><a xlink:title=" ">
<polygon fill="#e0e0e0" stroke="#999999" points="1796,-19 1732,-19 1732,0 1796,0 1796,-19"/>
<text text-anchor="middle" x="1764" y="-7" font-family="Helvetica,sans-Serif" font-size="10.00">algorithm</text>
</a>
</g>
</g>
<!-- Node25&#45;&gt;Node38 -->
<g id="edge79" class="edge">
<title>Node25&#45;&gt;Node38</title>
<path fill="none" stroke="#63b8ff" d="M793.74,-225.39C895.55,-219.59 1098.23,-205.69 1166,-184 1221.26,-166.32 1337.79,-72.85 1393,-55 1529.95,-10.72 1575.07,-40.47 1720.7,-19.17"/>
<polygon fill="#63b8ff" stroke="#63b8ff" points="1720.97,-22.67 1730.33,-17.7 1719.91,-15.75 1720.97,-22.67"/>
</g>
<!-- Node26&#45;&gt;Node17 -->
<g id="edge36" class="edge">
<title>Node26&#45;&gt;Node17</title>
<path fill="none" stroke="#63b8ff" d="M1093.27,-164.75C1098.36,-157.66 1105.7,-147.42 1112.03,-138.59"/>
<polygon fill="#63b8ff" stroke="#63b8ff" points="1114.72,-140.84 1117.71,-130.67 1109.04,-136.76 1114.72,-140.84"/>
</g>
<!-- Node26&#45;&gt;Node21 -->
<g id="edge37" class="edge">
<title>Node26&#45;&gt;Node21</title>
<path fill="none" stroke="#63b8ff" d="M1073.6,-164.51C1061.84,-156.62 1044.49,-144.98 1030.59,-135.65"/>
<polygon fill="#63b8ff" stroke="#63b8ff" points="1032.71,-132.87 1022.46,-130.2 1028.81,-138.68 1032.71,-132.87"/>
</g>
<!-- Node27&#45;&gt;Node4 -->
<g id="edge43" class="edge">
<title>Node27&#45;&gt;Node4</title>
<path fill="none" stroke="#63b8ff" d="M814.64,-164.51C774.77,-155.4 713.03,-141.29 670.23,-131.52"/>
<polygon fill="#63b8ff" stroke="#63b8ff" points="671.25,-128.16 660.72,-129.35 669.69,-134.98 671.25,-128.16"/>
</g>
<!-- Node27&#45;&gt;Node11 -->
<g id="edge40" class="edge">
<title>Node27&#45;&gt;Node11</title>
<path fill="none" stroke="#63b8ff" d="M867.24,-164.58C886.42,-151.81 923.23,-127.89 956,-110 988.81,-92.09 998.31,-90.18 1032,-74 1049.38,-65.65 1052.35,-59.91 1071,-55 1319.77,10.47 1397.08,-57.74 1655.09,-18.92"/>
<polygon fill="#63b8ff" stroke="#63b8ff" points="1655.48,-22.4 1664.82,-17.41 1654.41,-15.48 1655.48,-22.4"/>
</g>
<!-- Node27&#45;&gt;Node12 -->
<g id="edge41" class="edge">
<title>Node27&#45;&gt;Node12</title>
<path fill="none" stroke="#63b8ff" d="M845.33,-164.54C822.28,-141.42 756.6,-79.8 688,-55 487.8,17.39 417.83,-53.31 204.49,-19.04"/>
<polygon fill="#63b8ff" stroke="#63b8ff" points="205.17,-15.6 194.73,-17.4 204.01,-22.5 205.17,-15.6"/>
</g>
<!-- Node27&#45;&gt;Node17 -->
<g id="edge39" class="edge">
<title>Node27&#45;&gt;Node17</title>
<path fill="none" stroke="#63b8ff" d="M899.97,-164.51C946.34,-155.44 1018.04,-141.42 1068,-131.65"/>
<polygon fill="#63b8ff" stroke="#63b8ff" points="1068.63,-135.09 1077.77,-129.74 1067.28,-128.22 1068.63,-135.09"/>
</g>
<!-- Node27&#45;&gt;Node21 -->
<g id="edge42" class="edge">
<title>Node27&#45;&gt;Node21</title>
<path fill="none" stroke="#63b8ff" d="M880.12,-164.51C905.2,-155.88 943.31,-142.76 971.4,-133.1"/>
<polygon fill="#63b8ff" stroke="#63b8ff" points="972.26,-136.5 980.57,-129.94 969.98,-129.88 972.26,-136.5"/>
</g>
<!-- Node29 -->
<g id="node29" class="node">
<title>Node29</title>
<g id="a_node29"><a xlink:title=" ">
<polygon fill="#e0e0e0" stroke="#999999" points="269,-19 211,-19 211,0 269,0 269,-19"/>
<text text-anchor="middle" x="240" y="-7" font-family="Helvetica,sans-Serif" font-size="10.00">memory</text>
</a>
</g>
</g>
<!-- Node28&#45;&gt;Node29 -->
<g id="edge45" class="edge">
<title>Node28&#45;&gt;Node29</title>
<path fill="none" stroke="#63b8ff" d="M276.73,-109.66C270.31,-92.34 255.94,-53.55 247.2,-29.95"/>
<polygon fill="#63b8ff" stroke="#63b8ff" points="250.6,-29.04 243.84,-20.88 244.04,-31.47 250.6,-29.04"/>
</g>
<!-- Node30&#45;&gt;Node5 -->
<g id="edge48" class="edge">
<title>Node30&#45;&gt;Node5</title>
<path fill="none" stroke="#63b8ff" d="M754.29,-164.66C797.62,-145.79 899.4,-101.47 950.93,-79.03"/>
<polygon fill="#63b8ff" stroke="#63b8ff" points="952.27,-82.27 960.04,-75.06 949.47,-75.85 952.27,-82.27"/>
</g>
<!-- Node30&#45;&gt;Node22 -->
<g id="edge49" class="edge">
<title>Node30&#45;&gt;Node22</title>
<path fill="none" stroke="#63b8ff" d="M761.42,-164.51C803.07,-151.12 884.98,-125.81 956,-110 1050.96,-88.87 1078.71,-90.98 1177.74,-74.34"/>
<polygon fill="#63b8ff" stroke="#63b8ff" points="1178.1,-77.83 1187.36,-72.69 1176.92,-70.93 1178.1,-77.83"/>
</g>
<!-- Node31 -->
<g id="node31" class="node">
<title>Node31</title>
<g id="a_node31"><a xlink:href="Options_8hpp.html" target="_top" xlink:title=" ">
<polygon fill="white" stroke="#666666" points="752.5,-129 677.5,-129 677.5,-110 752.5,-110 752.5,-129"/>
<text text-anchor="middle" x="715" y="-117" font-family="Helvetica,sans-Serif" font-size="10.00">Options.hpp</text>
</a>
</g>
</g>
<!-- Node30&#45;&gt;Node31 -->
<g id="edge50" class="edge">
<title>Node30&#45;&gt;Node31</title>
<path fill="none" stroke="#63b8ff" d="M730.86,-164.75C728.46,-158.04 725.04,-148.52 722,-140.02"/>
<polygon fill="#63b8ff" stroke="#63b8ff" points="725.39,-139.1 718.72,-130.87 718.8,-141.46 725.39,-139.1"/>
</g>
<!-- Node31&#45;&gt;Node12 -->
<g id="edge51" class="edge">
<title>Node31&#45;&gt;Node12</title>
<path fill="none" stroke="#63b8ff" d="M710.73,-109.61C703.3,-95.23 686.49,-67.27 663,-55 574.85,-8.97 320.36,-34.86 204.35,-18.88"/>
<polygon fill="#63b8ff" stroke="#63b8ff" points="205.15,-15.46 194.73,-17.37 204.07,-22.38 205.15,-15.46"/>
</g>
<!-- Node32 -->
<g id="node32" class="node">
<title>Node32</title>
<g id="a_node32"><a xlink:href="CLI11_8hpp.html" target="_top" xlink:title=" ">
<polygon fill="white" stroke="#666666" points="923.5,-74 824.5,-74 824.5,-55 923.5,-55 923.5,-74"/>
<text text-anchor="middle" x="874" y="-62" font-family="Helvetica,sans-Serif" font-size="10.00">extern/CLI11.hpp</text>
</a>
</g>
</g>
<!-- Node31&#45;&gt;Node32 -->
<g id="edge52" class="edge">
<title>Node31&#45;&gt;Node32</title>
<path fill="none" stroke="#63b8ff" d="M741.97,-109.51C767.98,-100.84 807.55,-87.65 836.6,-77.97"/>
<polygon fill="#63b8ff" stroke="#63b8ff" points="837.35,-81.41 845.73,-74.92 835.13,-74.77 837.35,-81.41"/>
</g>
<!-- Node32&#45;&gt;Node7 -->
<g id="edge66" class="edge">
<title>Node32&#45;&gt;Node7</title>
<path fill="none" stroke="#63b8ff" d="M923.86,-56C926.95,-55.63 930.01,-55.3 933,-55 1219.88,-26.52 1298.3,-61.69 1586.63,-19.04"/>
<polygon fill="#63b8ff" stroke="#63b8ff" points="1586.99,-22.52 1596.36,-17.58 1585.95,-15.6 1586.99,-22.52"/>
</g>
<!-- Node32&#45;&gt;Node9 -->
<g id="edge62" class="edge">
<title>Node32&#45;&gt;Node9</title>
<path fill="none" stroke="#63b8ff" d="M923.86,-56.03C926.95,-55.65 930.01,-55.31 933,-55 1187.15,-28.88 1256.56,-55.37 1512.66,-19.08"/>
<polygon fill="#63b8ff" stroke="#63b8ff" points="1512.91,-22.58 1522.31,-17.69 1511.91,-15.65 1512.91,-22.58"/>
</g>
<!-- Node32&#45;&gt;Node10 -->
<g id="edge64" class="edge">
<title>Node32&#45;&gt;Node10</title>
<path fill="none" stroke="#63b8ff" d="M824.07,-60.88C740.49,-56.02 566.81,-43.94 410.43,-19.18"/>
<polygon fill="#63b8ff" stroke="#63b8ff" points="411.13,-15.75 400.7,-17.62 410.02,-22.66 411.13,-15.75"/>
</g>
<!-- Node32&#45;&gt;Node11 -->
<g id="edge55" class="edge">
<title>Node32&#45;&gt;Node11</title>
<path fill="none" stroke="#63b8ff" d="M923.85,-55.98C926.95,-55.62 930.01,-55.29 933,-55 1250.08,-24.34 1336.55,-66.46 1655.37,-18.87"/>
<polygon fill="#63b8ff" stroke="#63b8ff" points="1655.46,-22.39 1664.83,-17.44 1654.42,-15.47 1655.46,-22.39"/>
</g>
<!-- Node32&#45;&gt;Node12 -->
<g id="edge54" class="edge">
<title>Node32&#45;&gt;Node12</title>
<path fill="none" stroke="#63b8ff" d="M824.24,-60.48C682.98,-51.87 284.94,-27.37 204.64,-18.65"/>
<polygon fill="#63b8ff" stroke="#63b8ff" points="205.1,-15.18 194.73,-17.37 204.2,-22.12 205.1,-15.18"/>
</g>
<!-- Node32&#45;&gt;Node13 -->
<g id="edge67" class="edge">
<title>Node32&#45;&gt;Node13</title>
<path fill="none" stroke="#63b8ff" d="M824,-59.28C752.15,-52.88 615.34,-39.44 488.18,-19.02"/>
<polygon fill="#63b8ff" stroke="#63b8ff" points="489.01,-15.61 478.58,-17.46 487.89,-22.52 489.01,-15.61"/>
</g>
<!-- Node32&#45;&gt;Node15 -->
<g id="edge59" class="edge">
<title>Node32&#45;&gt;Node15</title>
<path fill="none" stroke="#63b8ff" d="M824.04,-56.66C748.91,-46.34 611.16,-27.27 562,-19.11"/>
<polygon fill="#63b8ff" stroke="#63b8ff" points="562.77,-15.7 552.32,-17.42 561.57,-22.59 562.77,-15.7"/>
</g>
<!-- Node32&#45;&gt;Node19 -->
<g id="edge58" class="edge">
<title>Node32&#45;&gt;Node19</title>
<path fill="none" stroke="#63b8ff" d="M824.34,-60.01C706.48,-51.66 414.47,-30.45 336.43,-18.83"/>
<polygon fill="#63b8ff" stroke="#63b8ff" points="337.38,-15.44 326.94,-17.23 336.22,-22.34 337.38,-15.44"/>
</g>
<!-- Node32&#45;&gt;Node20 -->
<g id="edge72" class="edge">
<title>Node32&#45;&gt;Node20</title>
<path fill="none" stroke="#63b8ff" d="M824.06,-61.7C705.29,-57.17 396.69,-43.79 140,-19 130.66,-18.1 120.6,-16.88 111.27,-15.64"/>
<polygon fill="#63b8ff" stroke="#63b8ff" points="111.84,-12.19 101.46,-14.3 110.89,-19.13 111.84,-12.19"/>
</g>
<!-- Node32&#45;&gt;Node29 -->
<g id="edge53" class="edge">
<title>Node32&#45;&gt;Node29</title>
<path fill="none" stroke="#63b8ff" d="M824.15,-60.2C697.25,-51.73 366.54,-29.3 280.78,-19.03"/>
<polygon fill="#63b8ff" stroke="#63b8ff" points="281.25,-15.56 270.88,-17.71 280.33,-22.5 281.25,-15.56"/>
</g>
<!-- Node33 -->
<g id="node33" class="node">
<title>Node33</title>
<g id="a_node33"><a xlink:title=" ">
<polygon fill="#e0e0e0" stroke="#999999" points="1371.5,-19 1306.5,-19 1306.5,0 1371.5,0 1371.5,-19"/>
<text text-anchor="middle" x="1339" y="-7" font-family="Helvetica,sans-Serif" font-size="10.00">functional</text>
</a>
</g>
</g>
<!-- Node32&#45;&gt;Node33 -->
<g id="edge56" class="edge">
<title>Node32&#45;&gt;Node33</title>
<path fill="none" stroke="#63b8ff" d="M923.87,-56.16C926.96,-55.75 930.02,-55.36 933,-55 1090.76,-35.84 1134.3,-42.82 1294.79,-19.18"/>
<polygon fill="#63b8ff" stroke="#63b8ff" points="1295.17,-22.66 1304.54,-17.72 1294.14,-15.74 1295.17,-22.66"/>
</g>
<!-- Node34 -->
<g id="node34" class="node">
<title>Node34</title>
<g id="a_node34"><a xlink:title=" ">
<polygon fill="#e0e0e0" stroke="#999999" points="1446,-19 1390,-19 1390,0 1446,0 1446,-19"/>
<text text-anchor="middle" x="1418" y="-7" font-family="Helvetica,sans-Serif" font-size="10.00">numeric</text>
</a>
</g>
</g>
<!-- Node32&#45;&gt;Node34 -->
<g id="edge57" class="edge">
<title>Node32&#45;&gt;Node34</title>
<path fill="none" stroke="#63b8ff" d="M923.87,-56.09C926.95,-55.7 930.02,-55.33 933,-55 1127.83,-33.16 1181.6,-48.84 1378.48,-19.16"/>
<polygon fill="#63b8ff" stroke="#63b8ff" points="1378.95,-22.63 1388.3,-17.65 1377.89,-15.71 1378.95,-22.63"/>
</g>
<!-- Node35 -->
<g id="node35" class="node">
<title>Node35</title>
<g id="a_node35"><a xlink:title=" ">
<polygon fill="#e0e0e0" stroke="#999999" points="1505.5,-19 1464.5,-19 1464.5,0 1505.5,0 1505.5,-19"/>
<text text-anchor="middle" x="1485" y="-7" font-family="Helvetica,sans-Serif" font-size="10.00">tuple</text>
</a>
</g>
</g>
<!-- Node32&#45;&gt;Node35 -->
<g id="edge60" class="edge">
<title>Node32&#45;&gt;Node35</title>
<path fill="none" stroke="#63b8ff" d="M923.86,-56.05C926.95,-55.67 930.02,-55.32 933,-55 1160.63,-30.79 1223.93,-58.03 1453.11,-18.92"/>
<polygon fill="#63b8ff" stroke="#63b8ff" points="1453.4,-22.42 1462.66,-17.26 1452.2,-15.52 1453.4,-22.42"/>
</g>
<!-- Node36 -->
<g id="node36" class="node">
<title>Node36</title>
<g id="a_node36"><a xlink:title=" ">
<polygon fill="#e0e0e0" stroke="#999999" points="613.5,-19 568.5,-19 568.5,0 613.5,0 613.5,-19"/>
<text text-anchor="middle" x="591" y="-7" font-family="Helvetica,sans-Serif" font-size="10.00">utility</text>
</a>
</g>
</g>
<!-- Node32&#45;&gt;Node36 -->
<g id="edge61" class="edge">
<title>Node32&#45;&gt;Node36</title>
<path fill="none" stroke="#63b8ff" d="M824.23,-55.94C775.79,-48.31 699.89,-35.59 624.75,-19.22"/>
<polygon fill="#63b8ff" stroke="#63b8ff" points="625.67,-15.84 615.15,-17.1 624.16,-22.67 625.67,-15.84"/>
</g>
<!-- Node37 -->
<g id="node37" class="node">
<title>Node37</title>
<g id="a_node37"><a xlink:title=" ">
<polygon fill="#e0e0e0" stroke="#999999" points="678,-19 632,-19 632,0 678,0 678,-19"/>
<text text-anchor="middle" x="655" y="-7" font-family="Helvetica,sans-Serif" font-size="10.00">locale</text>
</a>
</g>
</g>
<!-- Node32&#45;&gt;Node37 -->
<g id="edge63" class="edge">
<title>Node32&#45;&gt;Node37</title>
<path fill="none" stroke="#63b8ff" d="M834.89,-54.5C799.37,-46.27 745.27,-33.55 689.56,-19.6"/>
<polygon fill="#63b8ff" stroke="#63b8ff" points="690.42,-16.2 679.87,-17.16 688.71,-22.99 690.42,-16.2"/>
</g>
<!-- Node32&#45;&gt;Node38 -->
<g id="edge65" class="edge">
<title>Node32&#45;&gt;Node38</title>
<path fill="none" stroke="#63b8ff" d="M923.85,-55.97C926.94,-55.61 930.01,-55.28 933,-55 1279.24,-22.25 1372.32,-61.96 1720.68,-19.06"/>
<polygon fill="#63b8ff" stroke="#63b8ff" points="1720.86,-22.57 1730.35,-17.86 1719.99,-15.62 1720.86,-22.57"/>
</g>
<!-- Node39 -->
<g id="node39" class="node">
<title>Node39</title>
<g id="a_node39"><a xlink:title=" ">
<polygon fill="#e0e0e0" stroke="#999999" points="728,-19 696,-19 696,0 728,0 728,-19"/>
<text text-anchor="middle" x="712" y="-7" font-family="Helvetica,sans-Serif" font-size="10.00">set</text>
</a>
</g>
</g>
<!-- Node32&#45;&gt;Node39 -->
<g id="edge68" class="edge">
<title>Node32&#45;&gt;Node39</title>
<path fill="none" stroke="#63b8ff" d="M846.52,-54.51C816.55,-44.71 768.9,-29.12 739.09,-19.36"/>
<polygon fill="#63b8ff" stroke="#63b8ff" points="740.28,-16.07 729.69,-16.29 738.1,-22.72 740.28,-16.07"/>
</g>
<!-- Node40 -->
<g id="node40" class="node">
<title>Node40</title>
<g id="a_node40"><a xlink:title=" ">
<polygon fill="#e0e0e0" stroke="#999999" points="815.5,-19 746.5,-19 746.5,0 815.5,0 815.5,-19"/>
<text text-anchor="middle" x="781" y="-7" font-family="Helvetica,sans-Serif" font-size="10.00">type_traits</text>
</a>
</g>
</g>
<!-- Node32&#45;&gt;Node40 -->
<g id="edge69" class="edge">
<title>Node32&#45;&gt;Node40</title>
<path fill="none" stroke="#63b8ff" d="M858.22,-54.51C843.98,-46.39 822.76,-34.3 806.17,-24.85"/>
<polygon fill="#63b8ff" stroke="#63b8ff" points="808.28,-22.02 797.86,-20.11 804.81,-28.1 808.28,-22.02"/>
</g>
<!-- Node41 -->
<g id="node41" class="node">
<title>Node41</title>
<g id="a_node41"><a xlink:title=" ">
<polygon fill="#e0e0e0" stroke="#999999" points="886.5,-19 833.5,-19 833.5,0 886.5,0 886.5,-19"/>
<text text-anchor="middle" x="860" y="-7" font-family="Helvetica,sans-Serif" font-size="10.00">iterator</text>
</a>
</g>
</g>
<!-- Node32&#45;&gt;Node41 -->
<g id="edge70" class="edge">
<title>Node32&#45;&gt;Node41</title>
<path fill="none" stroke="#63b8ff" d="M871.69,-54.75C869.94,-48.11 867.46,-38.73 865.23,-30.31"/>
<polygon fill="#63b8ff" stroke="#63b8ff" points="868.69,-29.68 862.75,-20.91 861.92,-31.47 868.69,-29.68"/>
</g>
<!-- Node42 -->
<g id="node42" class="node">
<title>Node42</title>
<g id="a_node42"><a xlink:title=" ">
<polygon fill="#e0e0e0" stroke="#999999" points="969.5,-19 904.5,-19 904.5,0 969.5,0 969.5,-19"/>
<text text-anchor="middle" x="937" y="-7" font-family="Helvetica,sans-Serif" font-size="10.00">stdexcept</text>
</a>
</g>
</g>
<!-- Node32&#45;&gt;Node42 -->
<g id="edge71" class="edge">
<title>Node32&#45;&gt;Node42</title>
<path fill="none" stroke="#63b8ff" d="M884.69,-54.51C893.7,-46.93 906.83,-35.88 917.68,-26.75"/>
<polygon fill="#63b8ff" stroke="#63b8ff" points="919.91,-29.45 925.31,-20.33 915.41,-24.09 919.91,-29.45"/>
</g>
<!-- Node43 -->
<g id="node43" class="node">
<title>Node43</title>
<g id="a_node43"><a xlink:title=" ">
<polygon fill="#e0e0e0" stroke="#999999" points="1032,-19 988,-19 988,0 1032,0 1032,-19"/>
<text text-anchor="middle" x="1010" y="-7" font-family="Helvetica,sans-Serif" font-size="10.00">limits</text>
</a>
</g>
</g>
<!-- Node32&#45;&gt;Node43 -->
<g id="edge73" class="edge">
<title>Node32&#45;&gt;Node43</title>
<path fill="none" stroke="#63b8ff" d="M897.07,-54.51C919.02,-45.96 952.28,-33 977.02,-23.35"/>
<polygon fill="#63b8ff" stroke="#63b8ff" points="978.26,-26.62 986.31,-19.73 975.72,-20.1 978.26,-26.62"/>
</g>
<!-- Node44 -->
<g id="node44" class="node">
<title>Node44</title>
<g id="a_node44"><a xlink:title=" ">
<polygon fill="#e0e0e0" stroke="#999999" points="1115.5,-19 1050.5,-19 1050.5,0 1115.5,0 1115.5,-19"/>
<text text-anchor="middle" x="1083" y="-7" font-family="Helvetica,sans-Serif" font-size="10.00">exception</text>
</a>
</g>
</g>
<!-- Node32&#45;&gt;Node44 -->
<g id="edge74" class="edge">
<title>Node32&#45;&gt;Node44</title>
<path fill="none" stroke="#63b8ff" d="M909.45,-54.51C945.28,-45.42 1000.71,-31.37 1039.25,-21.6"/>
<polygon fill="#63b8ff" stroke="#63b8ff" points="1039.83,-25.06 1048.66,-19.21 1038.11,-18.27 1039.83,-25.06"/>
</g>
<!-- Node45 -->
<g id="node45" class="node">
<title>Node45</title>
<g id="a_node45"><a xlink:title=" ">
<polygon fill="#e0e0e0" stroke="#999999" points="1198,-19 1134,-19 1134,0 1198,0 1198,-19"/>
<text text-anchor="middle" x="1166" y="-7" font-family="Helvetica,sans-Serif" font-size="10.00">sys/stat.h</text>
</a>
</g>
</g>
<!-- Node32&#45;&gt;Node45 -->
<g id="edge75" class="edge">
<title>Node32&#45;&gt;Node45</title>
<path fill="none" stroke="#63b8ff" d="M923.61,-55.14C971.92,-46.9 1047.72,-33.72 1122.73,-19.39"/>
<polygon fill="#63b8ff" stroke="#63b8ff" points="1123.14,-22.88 1132.3,-17.56 1121.82,-16 1123.14,-22.88"/>
</g>
<!-- Node46 -->
<g id="node46" class="node">
<title>Node46</title>
<g id="a_node46"><a xlink:title=" ">
<polygon fill="#e0e0e0" stroke="#999999" points="1288,-19 1216,-19 1216,0 1288,0 1288,-19"/>
<text text-anchor="middle" x="1252" y="-7" font-family="Helvetica,sans-Serif" font-size="10.00">sys/types.h</text>
</a>
</g>
</g>
<!-- Node32&#45;&gt;Node46 -->
<g id="edge76" class="edge">
<title>Node32&#45;&gt;Node46</title>
<path fill="none" stroke="#63b8ff" d="M923.89,-56.27C926.97,-55.84 930.03,-55.41 933,-55 1051.11,-38.73 1083.82,-38.41 1204.51,-19.32"/>
<polygon fill="#63b8ff" stroke="#63b8ff" points="1204.86,-22.81 1214.19,-17.78 1203.76,-15.9 1204.86,-22.81"/>
</g>
</g>
</svg>
