<?xml version="1.0" encoding="UTF-8" standalone="no"?>
<!DOCTYPE svg PUBLIC "-//W3C//DTD SVG 1.1//EN"
 "http://www.w3.org/Graphics/SVG/1.1/DTD/svg11.dtd">
<!-- Generated by graphviz version 5.0.1 (0)
 -->
<!-- Title: CcsdDiagrammaticDecomposition.hpp Pages: 1 -->
<svg width="937pt" height="308pt"
 viewBox="0.00 0.00 937.00 308.00" xmlns="http://www.w3.org/2000/svg" xmlns:xlink="http://www.w3.org/1999/xlink">
<g id="graph0" class="graph" transform="scale(1 1) rotate(0) translate(4 304)">
<title>CcsdDiagrammaticDecomposition.hpp</title>
<!-- Node1 -->
<g id="node1" class="node">
<title>Node1</title>
<g id="a_node1"><a xlink:title=" ">
<polygon fill="#bfbfbf" stroke="black" points="373.5,-280.5 373.5,-299.5 577.5,-299.5 577.5,-280.5 373.5,-280.5"/>
<text text-anchor="middle" x="475.5" y="-287.5" font-family="Helvetica,sans-Serif" font-size="10.00">CcsdDiagrammaticDecomposition.hpp</text>
</a>
</g>
</g>
<!-- Node2 -->
<g id="node2" class="node">
<title>Node2</title>
<g id="a_node2"><a xlink:href="Algorithm_8hpp.html" target="_top" xlink:title=" ">
<polygon fill="none" stroke="black" points="636,-224.5 636,-243.5 777,-243.5 777,-224.5 636,-224.5"/>
<text text-anchor="middle" x="706.5" y="-231.5" font-family="Helvetica,sans-Serif" font-size="10.00">algorithms/Algorithm.hpp</text>
</a>
</g>
</g>
<!-- Node1&#45;&gt;Node2 -->
<g id="edge1" class="edge">
<title>Node1&#45;&gt;Node2</title>
<path fill="none" stroke="midnightblue" d="M512.1,-280.44C552.23,-271.06 616.7,-255.99 660.28,-245.8"/>
<polygon fill="midnightblue" stroke="midnightblue" points="661.13,-249.2 670.07,-243.52 659.53,-242.38 661.13,-249.2"/>
</g>
<!-- Node12 -->
<g id="node12" class="node">
<title>Node12</title>
<g id="a_node12"><a xlink:title=" ">
<polygon fill="none" stroke="#bfbfbf" points="389.5,-56.5 389.5,-75.5 433.5,-75.5 433.5,-56.5 389.5,-56.5"/>
<text text-anchor="middle" x="411.5" y="-63.5" font-family="Helvetica,sans-Serif" font-size="10.00">string</text>
</a>
</g>
</g>
<!-- Node1&#45;&gt;Node12 -->
<g id="edge43" class="edge">
<title>Node1&#45;&gt;Node12</title>
<path fill="none" stroke="midnightblue" d="M463.63,-280.44C435.32,-259.19 364.28,-200.76 338.5,-132 335.38,-123.68 334.17,-119.76 338.5,-112 347.39,-96.07 364.51,-85.08 379.93,-77.95"/>
<polygon fill="midnightblue" stroke="midnightblue" points="381.39,-81.13 389.22,-74 378.65,-74.69 381.39,-81.13"/>
</g>
<!-- Node20 -->
<g id="node20" class="node">
<title>Node20</title>
<g id="a_node20"><a xlink:title=" ">
<polygon fill="none" stroke="#bfbfbf" points="882,-112.5 882,-131.5 929,-131.5 929,-112.5 882,-112.5"/>
<text text-anchor="middle" x="905.5" y="-119.5" font-family="Helvetica,sans-Serif" font-size="10.00">vector</text>
</a>
</g>
</g>
<!-- Node1&#45;&gt;Node20 -->
<g id="edge42" class="edge">
<title>Node1&#45;&gt;Node20</title>
<path fill="none" stroke="midnightblue" d="M577.73,-283.35C639.44,-277.71 718.94,-266.45 786.5,-244 835.95,-227.57 857.67,-229.26 889.5,-188 899.7,-174.77 903.49,-155.91 904.85,-141.9"/>
<polygon fill="midnightblue" stroke="midnightblue" points="908.37,-141.72 905.51,-131.51 901.39,-141.27 908.37,-141.72"/>
</g>
<!-- Node25 -->
<g id="node25" class="node">
<title>Node25</title>
<g id="a_node25"><a xlink:href="Vector_8hpp.html" target="_top" xlink:title=" ">
<polygon fill="none" stroke="black" points="144.5,-224.5 144.5,-243.5 240.5,-243.5 240.5,-224.5 144.5,-224.5"/>
<text text-anchor="middle" x="192.5" y="-231.5" font-family="Helvetica,sans-Serif" font-size="10.00">math/Vector.hpp</text>
</a>
</g>
</g>
<!-- Node1&#45;&gt;Node25 -->
<g id="edge34" class="edge">
<title>Node1&#45;&gt;Node25</title>
<path fill="none" stroke="midnightblue" d="M430.66,-280.44C380.88,-270.94 300.52,-255.61 247.11,-245.42"/>
<polygon fill="midnightblue" stroke="midnightblue" points="247.61,-241.95 237.13,-243.52 246.3,-248.83 247.61,-241.95"/>
</g>
<!-- Node3 -->
<g id="node3" class="node">
<title>Node3</title>
<g id="a_node3"><a xlink:href="Data_8hpp.html" target="_top" xlink:title=" ">
<polygon fill="none" stroke="black" points="632,-168.5 632,-187.5 693,-187.5 693,-168.5 632,-168.5"/>
<text text-anchor="middle" x="662.5" y="-175.5" font-family="Helvetica,sans-Serif" font-size="10.00">Data.hpp</text>
</a>
</g>
</g>
<!-- Node2&#45;&gt;Node3 -->
<g id="edge2" class="edge">
<title>Node2&#45;&gt;Node3</title>
<path fill="none" stroke="midnightblue" d="M699.23,-224.08C692.96,-216.38 683.71,-205.03 676.07,-195.65"/>
<polygon fill="midnightblue" stroke="midnightblue" points="678.66,-193.29 669.63,-187.75 673.23,-197.71 678.66,-193.29"/>
</g>
<!-- Node10 -->
<g id="node10" class="node">
<title>Node10</title>
<g id="a_node10"><a xlink:title=" ">
<polygon fill="none" stroke="#bfbfbf" points="433.5,-0.5 433.5,-19.5 489.5,-19.5 489.5,-0.5 433.5,-0.5"/>
<text text-anchor="middle" x="461.5" y="-7.5" font-family="Helvetica,sans-Serif" font-size="10.00">sstream</text>
</a>
</g>
</g>
<!-- Node2&#45;&gt;Node10 -->
<g id="edge32" class="edge">
<title>Node2&#45;&gt;Node10</title>
<path fill="none" stroke="midnightblue" d="M726.28,-224.42C756.2,-210.2 811.9,-178.61 834.5,-132 842.95,-114.58 840.9,-69.37 827.5,-56 804.56,-33.1 588.87,-18.27 499.74,-13.07"/>
<polygon fill="midnightblue" stroke="midnightblue" points="499.71,-9.57 489.52,-12.49 499.31,-16.55 499.71,-9.57"/>
</g>
<!-- Node2&#45;&gt;Node12 -->
<g id="edge30" class="edge">
<title>Node2&#45;&gt;Node12</title>
<path fill="none" stroke="midnightblue" d="M643.36,-224.48C550,-210.43 382.28,-179.2 346.5,-132 331.52,-112.24 358.67,-92.52 382.32,-80.07"/>
<polygon fill="midnightblue" stroke="midnightblue" points="384.07,-83.12 391.45,-75.52 380.94,-76.85 384.07,-83.12"/>
</g>
<!-- Node2&#45;&gt;Node20 -->
<g id="edge31" class="edge">
<title>Node2&#45;&gt;Node20</title>
<path fill="none" stroke="midnightblue" d="M777.18,-225.23C807.43,-219.05 841.65,-207.95 867.5,-188 882.99,-176.05 893.36,-155.85 899.3,-141.14"/>
<polygon fill="midnightblue" stroke="midnightblue" points="902.64,-142.18 902.85,-131.59 896.08,-139.74 902.64,-142.18"/>
</g>
<!-- Node21 -->
<g id="node21" class="node">
<title>Node21</title>
<g id="a_node21"><a xlink:href="Tensor_8hpp.html" target="_top" xlink:title=" ">
<polygon fill="none" stroke="black" points="738,-112.5 738,-131.5 825,-131.5 825,-112.5 738,-112.5"/>
<text text-anchor="middle" x="781.5" y="-119.5" font-family="Helvetica,sans-Serif" font-size="10.00">util/Tensor.hpp</text>
</a>
</g>
</g>
<!-- Node2&#45;&gt;Node21 -->
<g id="edge33" class="edge">
<title>Node2&#45;&gt;Node21</title>
<path fill="none" stroke="midnightblue" d="M712.39,-224.37C724.76,-206.22 753.68,-163.8 769.92,-139.99"/>
<polygon fill="midnightblue" stroke="midnightblue" points="772.9,-141.83 775.64,-131.59 767.12,-137.88 772.9,-141.83"/>
</g>
<!-- Node4 -->
<g id="node4" class="node">
<title>Node4</title>
<g id="a_node4"><a xlink:href="Log_8hpp.html" target="_top" xlink:title=" ">
<polygon fill="none" stroke="black" points="149.5,-112.5 149.5,-131.5 223.5,-131.5 223.5,-112.5 149.5,-112.5"/>
<text text-anchor="middle" x="186.5" y="-119.5" font-family="Helvetica,sans-Serif" font-size="10.00">util/Log.hpp</text>
</a>
</g>
</g>
<!-- Node3&#45;&gt;Node4 -->
<g id="edge3" class="edge">
<title>Node3&#45;&gt;Node4</title>
<path fill="none" stroke="midnightblue" d="M632,-173.54C551.22,-164.38 331.3,-139.43 233.95,-128.38"/>
<polygon fill="midnightblue" stroke="midnightblue" points="234.14,-124.88 223.81,-127.23 233.36,-131.84 234.14,-124.88"/>
</g>
<!-- Node3&#45;&gt;Node12 -->
<g id="edge20" class="edge">
<title>Node3&#45;&gt;Node12</title>
<path fill="none" stroke="midnightblue" d="M631.85,-171.19C599.62,-164.4 547.93,-151.53 506.5,-132 477.76,-118.45 448.08,-96.66 429.71,-82.09"/>
<polygon fill="midnightblue" stroke="midnightblue" points="431.63,-79.15 421.65,-75.59 427.23,-84.59 431.63,-79.15"/>
</g>
<!-- Node16 -->
<g id="node16" class="node">
<title>Node16</title>
<g id="a_node16"><a xlink:href="Float_8hpp.html" target="_top" xlink:title=" ">
<polygon fill="none" stroke="black" points="593,-56.5 593,-75.5 684,-75.5 684,-56.5 593,-56.5"/>
<text text-anchor="middle" x="638.5" y="-63.5" font-family="Helvetica,sans-Serif" font-size="10.00">math/Float.hpp</text>
</a>
</g>
</g>
<!-- Node3&#45;&gt;Node16 -->
<g id="edge15" class="edge">
<title>Node3&#45;&gt;Node16</title>
<path fill="none" stroke="midnightblue" d="M671.25,-168.11C682.5,-155.55 699.59,-131.89 690.5,-112 684.72,-99.36 673.45,-88.91 662.87,-81.27"/>
<polygon fill="midnightblue" stroke="midnightblue" points="664.54,-78.18 654.28,-75.53 660.65,-84 664.54,-78.18"/>
</g>
<!-- Node17 -->
<g id="node17" class="node">
<title>Node17</title>
<g id="a_node17"><a xlink:href="Complex_8hpp.html" target="_top" xlink:title=" ">
<polygon fill="none" stroke="black" points="515.5,-112.5 515.5,-131.5 625.5,-131.5 625.5,-112.5 515.5,-112.5"/>
<text text-anchor="middle" x="570.5" y="-119.5" font-family="Helvetica,sans-Serif" font-size="10.00">math/Complex.hpp</text>
</a>
</g>
</g>
<!-- Node3&#45;&gt;Node17 -->
<g id="edge17" class="edge">
<title>Node3&#45;&gt;Node17</title>
<path fill="none" stroke="midnightblue" d="M647.72,-168.32C633.23,-159.82 610.93,-146.73 594.01,-136.8"/>
<polygon fill="midnightblue" stroke="midnightblue" points="595.64,-133.7 585.24,-131.65 592.1,-139.74 595.64,-133.7"/>
</g>
<!-- Node19 -->
<g id="node19" class="node">
<title>Node19</title>
<g id="a_node19"><a xlink:title=" ">
<polygon fill="none" stroke="#bfbfbf" points="643.5,-112.5 643.5,-131.5 681.5,-131.5 681.5,-112.5 643.5,-112.5"/>
<text text-anchor="middle" x="662.5" y="-119.5" font-family="Helvetica,sans-Serif" font-size="10.00">map</text>
</a>
</g>
</g>
<!-- Node3&#45;&gt;Node19 -->
<g id="edge21" class="edge">
<title>Node3&#45;&gt;Node19</title>
<path fill="none" stroke="midnightblue" d="M662.5,-168.08C662.5,-161.01 662.5,-150.86 662.5,-141.99"/>
<polygon fill="midnightblue" stroke="midnightblue" points="666,-141.75 662.5,-131.75 659,-141.75 666,-141.75"/>
</g>
<!-- Node3&#45;&gt;Node20 -->
<g id="edge22" class="edge">
<title>Node3&#45;&gt;Node20</title>
<path fill="none" stroke="midnightblue" d="M693.28,-170.16C738.99,-160 824.5,-141 871.83,-130.48"/>
<polygon fill="midnightblue" stroke="midnightblue" points="872.88,-133.83 881.88,-128.25 871.36,-127 872.88,-133.83"/>
</g>
<!-- Node3&#45;&gt;Node21 -->
<g id="edge23" class="edge">
<title>Node3&#45;&gt;Node21</title>
<path fill="none" stroke="midnightblue" d="M681.36,-168.44C700.77,-159.64 731.23,-145.81 753.46,-135.72"/>
<polygon fill="midnightblue" stroke="midnightblue" points="755.07,-138.84 762.73,-131.52 752.18,-132.46 755.07,-138.84"/>
</g>
<!-- Node24 -->
<g id="node24" class="node">
<title>Node24</title>
<g id="a_node24"><a xlink:href="Exception_8hpp.html" target="_top" xlink:title=" ">
<polygon fill="none" stroke="black" points="355.5,-112.5 355.5,-131.5 459.5,-131.5 459.5,-112.5 355.5,-112.5"/>
<text text-anchor="middle" x="407.5" y="-119.5" font-family="Helvetica,sans-Serif" font-size="10.00">util/Exception.hpp</text>
</a>
</g>
</g>
<!-- Node3&#45;&gt;Node24 -->
<g id="edge26" class="edge">
<title>Node3&#45;&gt;Node24</title>
<path fill="none" stroke="midnightblue" d="M631.99,-170.54C588.86,-161.41 509.55,-144.61 457.67,-133.63"/>
<polygon fill="midnightblue" stroke="midnightblue" points="458.19,-130.16 447.68,-131.51 456.74,-137.01 458.19,-130.16"/>
</g>
<!-- Node5 -->
<g id="node5" class="node">
<title>Node5</title>
<g id="a_node5"><a xlink:href="Time_8hpp.html" target="_top" xlink:title=" ">
<polygon fill="none" stroke="black" points="53,-56.5 53,-75.5 134,-75.5 134,-56.5 53,-56.5"/>
<text text-anchor="middle" x="93.5" y="-63.5" font-family="Helvetica,sans-Serif" font-size="10.00">util/Time.hpp</text>
</a>
</g>
</g>
<!-- Node4&#45;&gt;Node5 -->
<g id="edge4" class="edge">
<title>Node4&#45;&gt;Node5</title>
<path fill="none" stroke="midnightblue" d="M171.56,-112.32C156.91,-103.82 134.37,-90.73 117.26,-80.8"/>
<polygon fill="midnightblue" stroke="midnightblue" points="118.81,-77.65 108.4,-75.65 115.3,-83.7 118.81,-77.65"/>
</g>
<!-- Node4&#45;&gt;Node12 -->
<g id="edge11" class="edge">
<title>Node4&#45;&gt;Node12</title>
<path fill="none" stroke="midnightblue" d="M223.62,-112.87C260.59,-104.65 319.19,-91.32 379.47,-75.91"/>
<polygon fill="midnightblue" stroke="midnightblue" points="380.34,-79.3 389.16,-73.42 378.6,-72.52 380.34,-79.3"/>
</g>
<!-- Node13 -->
<g id="node13" class="node">
<title>Node13</title>
<g id="a_node13"><a xlink:title=" ">
<polygon fill="none" stroke="#bfbfbf" points="152.5,-56.5 152.5,-75.5 212.5,-75.5 212.5,-56.5 152.5,-56.5"/>
<text text-anchor="middle" x="182.5" y="-63.5" font-family="Helvetica,sans-Serif" font-size="10.00">iostream</text>
</a>
</g>
</g>
<!-- Node4&#45;&gt;Node13 -->
<g id="edge12" class="edge">
<title>Node4&#45;&gt;Node13</title>
<path fill="none" stroke="midnightblue" d="M185.84,-112.08C185.32,-105.01 184.56,-94.86 183.91,-85.99"/>
<polygon fill="midnightblue" stroke="midnightblue" points="187.38,-85.47 183.15,-75.75 180.4,-85.98 187.38,-85.47"/>
</g>
<!-- Node14 -->
<g id="node14" class="node">
<title>Node14</title>
<g id="a_node14"><a xlink:title=" ">
<polygon fill="none" stroke="#bfbfbf" points="231,-56.5 231,-75.5 298,-75.5 298,-56.5 231,-56.5"/>
<text text-anchor="middle" x="264.5" y="-63.5" font-family="Helvetica,sans-Serif" font-size="10.00">streambuf</text>
</a>
</g>
</g>
<!-- Node4&#45;&gt;Node14 -->
<g id="edge13" class="edge">
<title>Node4&#45;&gt;Node14</title>
<path fill="none" stroke="midnightblue" d="M199.03,-112.32C211.09,-103.98 229.53,-91.21 243.77,-81.35"/>
<polygon fill="midnightblue" stroke="midnightblue" points="245.77,-84.22 252,-75.65 241.78,-78.47 245.77,-84.22"/>
</g>
<!-- Node15 -->
<g id="node15" class="node">
<title>Node15</title>
<g id="a_node15"><a xlink:title=" ">
<polygon fill="none" stroke="#bfbfbf" points="316,-56.5 316,-75.5 371,-75.5 371,-56.5 316,-56.5"/>
<text text-anchor="middle" x="343.5" y="-63.5" font-family="Helvetica,sans-Serif" font-size="10.00">fstream</text>
</a>
</g>
</g>
<!-- Node4&#45;&gt;Node15 -->
<g id="edge14" class="edge">
<title>Node4&#45;&gt;Node15</title>
<path fill="none" stroke="midnightblue" d="M211.38,-112.44C237.79,-103.36 279.72,-88.94 309.24,-78.78"/>
<polygon fill="midnightblue" stroke="midnightblue" points="310.42,-82.08 318.74,-75.52 308.14,-75.46 310.42,-82.08"/>
</g>
<!-- Node6 -->
<g id="node6" class="node">
<title>Node6</title>
<g id="a_node6"><a xlink:title=" ">
<polygon fill="none" stroke="#bfbfbf" points="139.5,-0.5 139.5,-19.5 183.5,-19.5 183.5,-0.5 139.5,-0.5"/>
<text text-anchor="middle" x="161.5" y="-7.5" font-family="Helvetica,sans-Serif" font-size="10.00">ctime</text>
</a>
</g>
</g>
<!-- Node5&#45;&gt;Node6 -->
<g id="edge5" class="edge">
<title>Node5&#45;&gt;Node6</title>
<path fill="none" stroke="midnightblue" d="M104.43,-56.32C114.67,-48.18 130.22,-35.84 142.5,-26.09"/>
<polygon fill="midnightblue" stroke="midnightblue" points="144.72,-28.79 150.38,-19.83 140.37,-23.31 144.72,-28.79"/>
</g>
<!-- Node7 -->
<g id="node7" class="node">
<title>Node7</title>
<g id="a_node7"><a xlink:title=" ">
<polygon fill="none" stroke="#bfbfbf" points="201.5,-0.5 201.5,-19.5 251.5,-19.5 251.5,-0.5 201.5,-0.5"/>
<text text-anchor="middle" x="226.5" y="-7.5" font-family="Helvetica,sans-Serif" font-size="10.00">cstdint</text>
</a>
</g>
</g>
<!-- Node5&#45;&gt;Node7 -->
<g id="edge6" class="edge">
<title>Node5&#45;&gt;Node7</title>
<path fill="none" stroke="midnightblue" d="M114.57,-56.44C136.56,-47.52 171.23,-33.44 196.16,-23.32"/>
<polygon fill="midnightblue" stroke="midnightblue" points="197.58,-26.52 205.52,-19.52 194.94,-20.04 197.58,-26.52"/>
</g>
<!-- Node8 -->
<g id="node8" class="node">
<title>Node8</title>
<g id="a_node8"><a xlink:title=" ">
<polygon fill="none" stroke="#bfbfbf" points="314,-0.5 314,-19.5 371,-19.5 371,-0.5 314,-0.5"/>
<text text-anchor="middle" x="342.5" y="-7.5" font-family="Helvetica,sans-Serif" font-size="10.00">ostream</text>
</a>
</g>
</g>
<!-- Node5&#45;&gt;Node8 -->
<g id="edge7" class="edge">
<title>Node5&#45;&gt;Node8</title>
<path fill="none" stroke="midnightblue" d="M132.95,-56.44C179.74,-46.3 257.23,-29.49 303.72,-19.41"/>
<polygon fill="midnightblue" stroke="midnightblue" points="304.68,-22.78 313.71,-17.24 303.19,-15.94 304.68,-22.78"/>
</g>
<!-- Node9 -->
<g id="node9" class="node">
<title>Node9</title>
<g id="a_node9"><a xlink:title=" ">
<polygon fill="none" stroke="#bfbfbf" points="65.5,-0.5 65.5,-19.5 121.5,-19.5 121.5,-0.5 65.5,-0.5"/>
<text text-anchor="middle" x="93.5" y="-7.5" font-family="Helvetica,sans-Serif" font-size="10.00">iomanip</text>
</a>
</g>
</g>
<!-- Node5&#45;&gt;Node9 -->
<g id="edge8" class="edge">
<title>Node5&#45;&gt;Node9</title>
<path fill="none" stroke="midnightblue" d="M93.5,-56.08C93.5,-49.01 93.5,-38.86 93.5,-29.99"/>
<polygon fill="midnightblue" stroke="midnightblue" points="97,-29.75 93.5,-19.75 90,-29.75 97,-29.75"/>
</g>
<!-- Node5&#45;&gt;Node10 -->
<g id="edge9" class="edge">
<title>Node5&#45;&gt;Node10</title>
<path fill="none" stroke="midnightblue" d="M134.14,-57.55C137.3,-57.01 140.45,-56.49 143.5,-56 244.25,-39.81 363.47,-23.77 423.26,-15.94"/>
<polygon fill="midnightblue" stroke="midnightblue" points="423.91,-19.39 433.37,-14.62 423,-12.44 423.91,-19.39"/>
</g>
<!-- Node11 -->
<g id="node11" class="node">
<title>Node11</title>
<g id="a_node11"><a xlink:title=" ">
<polygon fill="none" stroke="#bfbfbf" points="0,-0.5 0,-19.5 47,-19.5 47,-0.5 0,-0.5"/>
<text text-anchor="middle" x="23.5" y="-7.5" font-family="Helvetica,sans-Serif" font-size="10.00">cmath</text>
</a>
</g>
</g>
<!-- Node5&#45;&gt;Node11 -->
<g id="edge10" class="edge">
<title>Node5&#45;&gt;Node11</title>
<path fill="none" stroke="midnightblue" d="M82.25,-56.32C71.7,-48.18 55.7,-35.84 43.06,-26.09"/>
<polygon fill="midnightblue" stroke="midnightblue" points="45.01,-23.17 34.95,-19.83 40.73,-28.71 45.01,-23.17"/>
</g>
<!-- Node16&#45;&gt;Node8 -->
<g id="edge16" class="edge">
<title>Node16&#45;&gt;Node8</title>
<path fill="none" stroke="midnightblue" d="M592.9,-56.68C534.85,-46.09 435.59,-27.98 381.11,-18.04"/>
<polygon fill="midnightblue" stroke="midnightblue" points="381.62,-14.58 371.15,-16.23 380.36,-21.47 381.62,-14.58"/>
</g>
<!-- Node17&#45;&gt;Node16 -->
<g id="edge18" class="edge">
<title>Node17&#45;&gt;Node16</title>
<path fill="none" stroke="midnightblue" d="M581.43,-112.32C591.67,-104.18 607.22,-91.84 619.5,-82.09"/>
<polygon fill="midnightblue" stroke="midnightblue" points="621.72,-84.79 627.38,-75.83 617.37,-79.31 621.72,-84.79"/>
</g>
<!-- Node18 -->
<g id="node18" class="node">
<title>Node18</title>
<g id="a_node18"><a xlink:title=" ">
<polygon fill="none" stroke="#bfbfbf" points="516,-56.5 516,-75.5 575,-75.5 575,-56.5 516,-56.5"/>
<text text-anchor="middle" x="545.5" y="-63.5" font-family="Helvetica,sans-Serif" font-size="10.00">complex</text>
</a>
</g>
</g>
<!-- Node17&#45;&gt;Node18 -->
<g id="edge19" class="edge">
<title>Node17&#45;&gt;Node18</title>
<path fill="none" stroke="midnightblue" d="M566.37,-112.08C562.99,-104.77 558.08,-94.18 553.88,-85.1"/>
<polygon fill="midnightblue" stroke="midnightblue" points="556.93,-83.36 549.55,-75.75 550.58,-86.3 556.93,-83.36"/>
</g>
<!-- Node22 -->
<g id="node22" class="node">
<title>Node22</title>
<g id="a_node22"><a xlink:href="CTF_8hpp.html" target="_top" xlink:title=" ">
<polygon fill="none" stroke="black" points="744.5,-56.5 744.5,-75.5 818.5,-75.5 818.5,-56.5 744.5,-56.5"/>
<text text-anchor="middle" x="781.5" y="-63.5" font-family="Helvetica,sans-Serif" font-size="10.00">util/CTF.hpp</text>
</a>
</g>
</g>
<!-- Node21&#45;&gt;Node22 -->
<g id="edge24" class="edge">
<title>Node21&#45;&gt;Node22</title>
<path fill="none" stroke="midnightblue" d="M781.5,-112.08C781.5,-105.01 781.5,-94.86 781.5,-85.99"/>
<polygon fill="midnightblue" stroke="midnightblue" points="785,-85.75 781.5,-75.75 778,-85.75 785,-85.75"/>
</g>
<!-- Node23 -->
<g id="node23" class="node">
<title>Node23</title>
<g id="a_node23"><a xlink:title=" ">
<polygon fill="none" stroke="#bfbfbf" points="756.5,-0.5 756.5,-19.5 806.5,-19.5 806.5,-0.5 756.5,-0.5"/>
<text text-anchor="middle" x="781.5" y="-7.5" font-family="Helvetica,sans-Serif" font-size="10.00">ctf.hpp</text>
</a>
</g>
</g>
<!-- Node22&#45;&gt;Node23 -->
<g id="edge25" class="edge">
<title>Node22&#45;&gt;Node23</title>
<path fill="none" stroke="midnightblue" d="M781.5,-56.08C781.5,-49.01 781.5,-38.86 781.5,-29.99"/>
<polygon fill="midnightblue" stroke="midnightblue" points="785,-29.75 781.5,-19.75 778,-29.75 785,-29.75"/>
</g>
<!-- Node24&#45;&gt;Node10 -->
<g id="edge28" class="edge">
<title>Node24&#45;&gt;Node10</title>
<path fill="none" stroke="midnightblue" d="M415.83,-112.39C423.72,-103.8 435.38,-89.92 442.5,-76 450.03,-61.28 455.02,-43.12 457.99,-29.74"/>
<polygon fill="midnightblue" stroke="midnightblue" points="461.44,-30.3 460.02,-19.8 454.59,-28.9 461.44,-30.3"/>
</g>
<!-- Node24&#45;&gt;Node12 -->
<g id="edge27" class="edge">
<title>Node24&#45;&gt;Node12</title>
<path fill="none" stroke="midnightblue" d="M408.16,-112.08C408.68,-105.01 409.44,-94.86 410.09,-85.99"/>
<polygon fill="midnightblue" stroke="midnightblue" points="413.6,-85.98 410.85,-75.75 406.62,-85.47 413.6,-85.98"/>
</g>
<!-- Node24&#45;&gt;Node13 -->
<g id="edge29" class="edge">
<title>Node24&#45;&gt;Node13</title>
<path fill="none" stroke="midnightblue" d="M371.85,-112.44C331.21,-102.69 264.94,-86.79 222.55,-76.61"/>
<polygon fill="midnightblue" stroke="midnightblue" points="223.13,-73.15 212.58,-74.22 221.49,-79.96 223.13,-73.15"/>
</g>
<!-- Node25&#45;&gt;Node13 -->
<g id="edge41" class="edge">
<title>Node25&#45;&gt;Node13</title>
<path fill="none" stroke="midnightblue" d="M163.38,-224.44C145.86,-217.62 124.98,-206.14 114.5,-188 92.55,-149.99 136.26,-104.81 163.31,-81.91"/>
<polygon fill="midnightblue" stroke="midnightblue" points="165.56,-84.59 171.08,-75.55 161.12,-79.17 165.56,-84.59"/>
</g>
<!-- Node26 -->
<g id="node26" class="node">
<title>Node26</title>
<g id="a_node26"><a xlink:href="MathFunctions_8hpp.html" target="_top" xlink:title=" ">
<polygon fill="none" stroke="black" points="124,-168.5 124,-187.5 261,-187.5 261,-168.5 124,-168.5"/>
<text text-anchor="middle" x="192.5" y="-175.5" font-family="Helvetica,sans-Serif" font-size="10.00">math/MathFunctions.hpp</text>
</a>
</g>
</g>
<!-- Node25&#45;&gt;Node26 -->
<g id="edge35" class="edge">
<title>Node25&#45;&gt;Node26</title>
<path fill="none" stroke="midnightblue" d="M192.5,-224.08C192.5,-217.01 192.5,-206.86 192.5,-197.99"/>
<polygon fill="midnightblue" stroke="midnightblue" points="196,-197.75 192.5,-187.75 189,-197.75 196,-197.75"/>
</g>
<!-- Node26&#45;&gt;Node4 -->
<g id="edge40" class="edge">
<title>Node26&#45;&gt;Node4</title>
<path fill="none" stroke="midnightblue" d="M191.51,-168.08C190.71,-160.93 189.57,-150.64 188.58,-141.69"/>
<polygon fill="midnightblue" stroke="midnightblue" points="192.06,-141.3 187.47,-131.75 185.1,-142.08 192.06,-141.3"/>
</g>
<!-- Node26&#45;&gt;Node11 -->
<g id="edge37" class="edge">
<title>Node26&#45;&gt;Node11</title>
<path fill="none" stroke="midnightblue" d="M171.89,-168.5C139.71,-154.18 77.69,-122.23 43.5,-76 33.52,-62.5 28.45,-43.95 25.93,-30.12"/>
<polygon fill="midnightblue" stroke="midnightblue" points="29.32,-29.18 24.34,-19.82 22.4,-30.24 29.32,-29.18"/>
</g>
<!-- Node26&#45;&gt;Node12 -->
<g id="edge38" class="edge">
<title>Node26&#45;&gt;Node12</title>
<path fill="none" stroke="midnightblue" d="M201.46,-168.24C215.93,-154.53 245.82,-127.91 275.5,-112 293.63,-102.29 345.1,-86.34 379.26,-76.27"/>
<polygon fill="midnightblue" stroke="midnightblue" points="380.64,-79.51 389.25,-73.35 378.67,-72.8 380.64,-79.51"/>
</g>
<!-- Node26&#45;&gt;Node17 -->
<g id="edge36" class="edge">
<title>Node26&#45;&gt;Node17</title>
<path fill="none" stroke="midnightblue" d="M252.4,-168.44C321.35,-158.59 434.21,-142.47 505.31,-132.31"/>
<polygon fill="midnightblue" stroke="midnightblue" points="506.09,-135.74 515.49,-130.86 505.1,-128.81 506.09,-135.74"/>
</g>
<!-- Node26&#45;&gt;Node21 -->
<g id="edge39" class="edge">
<title>Node26&#45;&gt;Node21</title>
<path fill="none" stroke="midnightblue" d="M261.39,-170.96C357.52,-162.49 537.31,-146.5 690.5,-132 702.6,-130.85 715.6,-129.59 727.89,-128.38"/>
<polygon fill="midnightblue" stroke="midnightblue" points="728.39,-131.85 738,-127.38 727.7,-124.88 728.39,-131.85"/>
</g>
</g>
</svg>
