<?xml version="1.0" encoding="UTF-8" standalone="no"?>
<!DOCTYPE svg PUBLIC "-//W3C//DTD SVG 1.1//EN"
 "http://www.w3.org/Graphics/SVG/1.1/DTD/svg11.dtd">
<!-- Generated by graphviz version 5.0.1 (0)
 -->
<!-- Title: CcsdDiagrammaticDecomposition.hpp Pages: 1 -->
<svg width="937pt" height="302pt"
 viewBox="0.00 0.00 937.00 302.00" xmlns="http://www.w3.org/2000/svg" xmlns:xlink="http://www.w3.org/1999/xlink">
<g id="graph0" class="graph" transform="scale(1 1) rotate(0) translate(4 298)">
<title>CcsdDiagrammaticDecomposition.hpp</title>
<!-- Node1 -->
<g id="node1" class="node">
<title>Node1</title>
<g id="a_node1"><a xlink:title=" ">
<polygon fill="#999999" stroke="#666666" points="577.5,-294 373.5,-294 373.5,-275 577.5,-275 577.5,-294"/>
<text text-anchor="middle" x="475.5" y="-282" font-family="Helvetica,sans-Serif" font-size="10.00">CcsdDiagrammaticDecomposition.hpp</text>
</a>
</g>
</g>
<!-- Node2 -->
<g id="node2" class="node">
<title>Node2</title>
<g id="a_node2"><a xlink:href="Algorithm_8hpp.html" target="_top" xlink:title=" ">
<polygon fill="white" stroke="#666666" points="777,-239 636,-239 636,-220 777,-220 777,-239"/>
<text text-anchor="middle" x="706.5" y="-227" font-family="Helvetica,sans-Serif" font-size="10.00">algorithms/Algorithm.hpp</text>
</a>
</g>
</g>
<!-- Node1&#45;&gt;Node2 -->
<g id="edge1" class="edge">
<title>Node1&#45;&gt;Node2</title>
<path fill="none" stroke="#63b8ff" d="M512.61,-274.98C552.49,-265.84 615.96,-251.27 659.34,-241.32"/>
<polygon fill="#63b8ff" stroke="#63b8ff" points="660.13,-244.73 669.09,-239.08 658.57,-237.91 660.13,-244.73"/>
</g>
<!-- Node12 -->
<g id="node12" class="node">
<title>Node12</title>
<g id="a_node12"><a xlink:title=" ">
<polygon fill="#e0e0e0" stroke="#999999" points="433.5,-74 389.5,-74 389.5,-55 433.5,-55 433.5,-74"/>
<text text-anchor="middle" x="411.5" y="-62" font-family="Helvetica,sans-Serif" font-size="10.00">string</text>
</a>
</g>
</g>
<!-- Node1&#45;&gt;Node12 -->
<g id="edge43" class="edge">
<title>Node1&#45;&gt;Node12</title>
<path fill="none" stroke="#63b8ff" d="M463.21,-274.81C434.64,-253.76 364.19,-196.7 338.5,-129 335.5,-121.1 334.37,-117.36 338.5,-110 347.41,-94.14 364.52,-83.26 379.94,-76.24"/>
<polygon fill="#63b8ff" stroke="#63b8ff" points="381.35,-79.44 389.23,-72.35 378.65,-72.98 381.35,-79.44"/>
</g>
<!-- Node20 -->
<g id="node20" class="node">
<title>Node20</title>
<g id="a_node20"><a xlink:title=" ">
<polygon fill="#e0e0e0" stroke="#999999" points="929,-129 882,-129 882,-110 929,-110 929,-129"/>
<text text-anchor="middle" x="905.5" y="-117" font-family="Helvetica,sans-Serif" font-size="10.00">vector</text>
</a>
</g>
</g>
<!-- Node1&#45;&gt;Node20 -->
<g id="edge42" class="edge">
<title>Node1&#45;&gt;Node20</title>
<path fill="none" stroke="#63b8ff" d="M577.67,-277.86C639.36,-272.27 718.85,-261.14 786.5,-239 835.82,-222.86 857.54,-224.88 889.5,-184 899.46,-171.27 903.29,-153.09 904.73,-139.44"/>
<polygon fill="#63b8ff" stroke="#63b8ff" points="908.23,-139.49 905.46,-129.26 901.25,-138.99 908.23,-139.49"/>
</g>
<!-- Node25 -->
<g id="node25" class="node">
<title>Node25</title>
<g id="a_node25"><a xlink:href="Vector_8hpp.html" target="_top" xlink:title=" ">
<polygon fill="white" stroke="#666666" points="240.5,-239 144.5,-239 144.5,-220 240.5,-220 240.5,-239"/>
<text text-anchor="middle" x="192.5" y="-227" font-family="Helvetica,sans-Serif" font-size="10.00">math/Vector.hpp</text>
</a>
</g>
</g>
<!-- Node1&#45;&gt;Node25 -->
<g id="edge34" class="edge">
<title>Node1&#45;&gt;Node25</title>
<path fill="none" stroke="#63b8ff" d="M430.03,-274.98C380.56,-265.72 301.45,-250.9 248.27,-240.94"/>
<polygon fill="#63b8ff" stroke="#63b8ff" points="248.8,-237.48 238.33,-239.08 247.51,-244.36 248.8,-237.48"/>
</g>
<!-- Node3 -->
<g id="node3" class="node">
<title>Node3</title>
<g id="a_node3"><a xlink:href="Data_8hpp.html" target="_top" xlink:title=" ">
<polygon fill="white" stroke="#666666" points="693,-184 632,-184 632,-165 693,-165 693,-184"/>
<text text-anchor="middle" x="662.5" y="-172" font-family="Helvetica,sans-Serif" font-size="10.00">Data.hpp</text>
</a>
</g>
</g>
<!-- Node2&#45;&gt;Node3 -->
<g id="edge2" class="edge">
<title>Node2&#45;&gt;Node3</title>
<path fill="none" stroke="#63b8ff" d="M699.23,-219.75C692.96,-212.18 683.71,-201.05 676.07,-191.84"/>
<polygon fill="#63b8ff" stroke="#63b8ff" points="678.71,-189.55 669.63,-184.09 673.33,-194.02 678.71,-189.55"/>
</g>
<!-- Node10 -->
<g id="node10" class="node">
<title>Node10</title>
<g id="a_node10"><a xlink:title=" ">
<polygon fill="#e0e0e0" stroke="#999999" points="489.5,-19 433.5,-19 433.5,0 489.5,0 489.5,-19"/>
<text text-anchor="middle" x="461.5" y="-7" font-family="Helvetica,sans-Serif" font-size="10.00">sstream</text>
</a>
</g>
</g>
<!-- Node2&#45;&gt;Node10 -->
<g id="edge32" class="edge">
<title>Node2&#45;&gt;Node10</title>
<path fill="none" stroke="#63b8ff" d="M726.76,-219.9C756.79,-205.89 811.99,-175.01 834.5,-129 842.9,-111.83 841.61,-69.03 827.5,-55 804.52,-32.15 588.85,-17.6 499.74,-12.52"/>
<polygon fill="#63b8ff" stroke="#63b8ff" points="499.7,-9.02 489.52,-11.95 499.31,-16 499.7,-9.02"/>
</g>
<!-- Node2&#45;&gt;Node12 -->
<g id="edge30" class="edge">
<title>Node2&#45;&gt;Node12</title>
<path fill="none" stroke="#63b8ff" d="M641.45,-219.96C547.74,-206.18 382.09,-175.76 346.5,-129 331.82,-109.72 358.16,-90.71 381.58,-78.59"/>
<polygon fill="#63b8ff" stroke="#63b8ff" points="383.21,-81.69 390.65,-74.15 380.13,-75.41 383.21,-81.69"/>
</g>
<!-- Node2&#45;&gt;Node20 -->
<g id="edge31" class="edge">
<title>Node2&#45;&gt;Node20</title>
<path fill="none" stroke="#63b8ff" d="M777.08,-220.85C807.3,-214.75 841.54,-203.76 867.5,-184 882.64,-172.48 892.98,-153.04 899,-138.7"/>
<polygon fill="#63b8ff" stroke="#63b8ff" points="902.28,-139.93 902.64,-129.35 895.75,-137.4 902.28,-139.93"/>
</g>
<!-- Node21 -->
<g id="node21" class="node">
<title>Node21</title>
<g id="a_node21"><a xlink:href="Tensor_8hpp.html" target="_top" xlink:title=" ">
<polygon fill="white" stroke="#666666" points="825,-129 738,-129 738,-110 825,-110 825,-129"/>
<text text-anchor="middle" x="781.5" y="-117" font-family="Helvetica,sans-Serif" font-size="10.00">util/Tensor.hpp</text>
</a>
</g>
</g>
<!-- Node2&#45;&gt;Node21 -->
<g id="edge33" class="edge">
<title>Node2&#45;&gt;Node21</title>
<path fill="none" stroke="#63b8ff" d="M712.64,-219.66C725.12,-201.69 753.62,-160.64 769.78,-137.38"/>
<polygon fill="#63b8ff" stroke="#63b8ff" points="772.66,-139.37 775.49,-129.16 766.91,-135.38 772.66,-139.37"/>
</g>
<!-- Node4 -->
<g id="node4" class="node">
<title>Node4</title>
<g id="a_node4"><a xlink:href="Log_8hpp.html" target="_top" xlink:title=" ">
<polygon fill="white" stroke="#666666" points="223.5,-129 149.5,-129 149.5,-110 223.5,-110 223.5,-129"/>
<text text-anchor="middle" x="186.5" y="-117" font-family="Helvetica,sans-Serif" font-size="10.00">util/Log.hpp</text>
</a>
</g>
</g>
<!-- Node3&#45;&gt;Node4 -->
<g id="edge3" class="edge">
<title>Node3&#45;&gt;Node4</title>
<path fill="none" stroke="#63b8ff" d="M632,-170.1C551.22,-161.11 331.3,-136.62 233.95,-125.78"/>
<polygon fill="#63b8ff" stroke="#63b8ff" points="234.14,-122.28 223.81,-124.65 233.36,-129.24 234.14,-122.28"/>
</g>
<!-- Node3&#45;&gt;Node12 -->
<g id="edge20" class="edge">
<title>Node3&#45;&gt;Node12</title>
<path fill="none" stroke="#63b8ff" d="M631.89,-167.72C599.69,-160.97 548.03,-148.23 506.5,-129 478.03,-115.82 448.49,-94.7 430.06,-80.47"/>
<polygon fill="#63b8ff" stroke="#63b8ff" points="431.98,-77.53 421.96,-74.1 427.66,-83.03 431.98,-77.53"/>
</g>
<!-- Node16 -->
<g id="node16" class="node">
<title>Node16</title>
<g id="a_node16"><a xlink:href="Float_8hpp.html" target="_top" xlink:title=" ">
<polygon fill="white" stroke="#666666" points="684,-74 593,-74 593,-55 684,-55 684,-74"/>
<text text-anchor="middle" x="638.5" y="-62" font-family="Helvetica,sans-Serif" font-size="10.00">math/Float.hpp</text>
</a>
</g>
</g>
<!-- Node3&#45;&gt;Node16 -->
<g id="edge15" class="edge">
<title>Node3&#45;&gt;Node16</title>
<path fill="none" stroke="#63b8ff" d="M671.21,-164.83C682.43,-152.57 699.47,-129.48 690.5,-110 684.75,-97.52 673.59,-87.24 663.08,-79.71"/>
<polygon fill="#63b8ff" stroke="#63b8ff" points="664.8,-76.65 654.53,-74.05 660.93,-82.49 664.8,-76.65"/>
</g>
<!-- Node17 -->
<g id="node17" class="node">
<title>Node17</title>
<g id="a_node17"><a xlink:href="Complex_8hpp.html" target="_top" xlink:title=" ">
<polygon fill="white" stroke="#666666" points="625.5,-129 515.5,-129 515.5,-110 625.5,-110 625.5,-129"/>
<text text-anchor="middle" x="570.5" y="-117" font-family="Helvetica,sans-Serif" font-size="10.00">math/Complex.hpp</text>
</a>
</g>
</g>
<!-- Node3&#45;&gt;Node17 -->
<g id="edge17" class="edge">
<title>Node3&#45;&gt;Node17</title>
<path fill="none" stroke="#63b8ff" d="M647.72,-164.98C633.32,-156.69 611.19,-143.94 594.31,-134.22"/>
<polygon fill="#63b8ff" stroke="#63b8ff" points="595.96,-131.13 585.55,-129.17 592.47,-137.19 595.96,-131.13"/>
</g>
<!-- Node19 -->
<g id="node19" class="node">
<title>Node19</title>
<g id="a_node19"><a xlink:title=" ">
<polygon fill="#e0e0e0" stroke="#999999" points="681.5,-129 643.5,-129 643.5,-110 681.5,-110 681.5,-129"/>
<text text-anchor="middle" x="662.5" y="-117" font-family="Helvetica,sans-Serif" font-size="10.00">map</text>
</a>
</g>
</g>
<!-- Node3&#45;&gt;Node19 -->
<g id="edge21" class="edge">
<title>Node3&#45;&gt;Node19</title>
<path fill="none" stroke="#63b8ff" d="M662.5,-164.75C662.5,-157.8 662.5,-147.85 662.5,-139.13"/>
<polygon fill="#63b8ff" stroke="#63b8ff" points="666,-139.09 662.5,-129.09 659,-139.09 666,-139.09"/>
</g>
<!-- Node3&#45;&gt;Node20 -->
<g id="edge22" class="edge">
<title>Node3&#45;&gt;Node20</title>
<path fill="none" stroke="#63b8ff" d="M693.28,-166.79C738.99,-156.82 824.5,-138.17 871.83,-127.84"/>
<polygon fill="#63b8ff" stroke="#63b8ff" points="872.86,-131.2 881.88,-125.65 871.36,-124.36 872.86,-131.2"/>
</g>
<!-- Node3&#45;&gt;Node21 -->
<g id="edge23" class="edge">
<title>Node3&#45;&gt;Node21</title>
<path fill="none" stroke="#63b8ff" d="M681.62,-164.98C700.85,-156.42 730.73,-143.11 752.81,-133.28"/>
<polygon fill="#63b8ff" stroke="#63b8ff" points="754.32,-136.44 762.03,-129.17 751.47,-130.04 754.32,-136.44"/>
</g>
<!-- Node24 -->
<g id="node24" class="node">
<title>Node24</title>
<g id="a_node24"><a xlink:href="Exception_8hpp.html" target="_top" xlink:title=" ">
<polygon fill="white" stroke="#666666" points="459.5,-129 355.5,-129 355.5,-110 459.5,-110 459.5,-129"/>
<text text-anchor="middle" x="407.5" y="-117" font-family="Helvetica,sans-Serif" font-size="10.00">util/Exception.hpp</text>
</a>
</g>
</g>
<!-- Node3&#45;&gt;Node24 -->
<g id="edge26" class="edge">
<title>Node3&#45;&gt;Node24</title>
<path fill="none" stroke="#63b8ff" d="M631.99,-167.16C589.11,-158.25 510.46,-141.9 458.57,-131.11"/>
<polygon fill="#63b8ff" stroke="#63b8ff" points="459.07,-127.64 448.57,-129.04 457.65,-134.5 459.07,-127.64"/>
</g>
<!-- Node5 -->
<g id="node5" class="node">
<title>Node5</title>
<g id="a_node5"><a xlink:href="Time_8hpp.html" target="_top" xlink:title=" ">
<polygon fill="white" stroke="#666666" points="134,-74 53,-74 53,-55 134,-55 134,-74"/>
<text text-anchor="middle" x="93.5" y="-62" font-family="Helvetica,sans-Serif" font-size="10.00">util/Time.hpp</text>
</a>
</g>
</g>
<!-- Node4&#45;&gt;Node5 -->
<g id="edge4" class="edge">
<title>Node4&#45;&gt;Node5</title>
<path fill="none" stroke="#63b8ff" d="M171.56,-109.98C157,-101.69 134.63,-88.94 117.57,-79.22"/>
<polygon fill="#63b8ff" stroke="#63b8ff" points="119.14,-76.08 108.71,-74.17 115.67,-82.16 119.14,-76.08"/>
</g>
<!-- Node4&#45;&gt;Node12 -->
<g id="edge11" class="edge">
<title>Node4&#45;&gt;Node12</title>
<path fill="none" stroke="#63b8ff" d="M223.59,-110.33C262.51,-101.67 325.43,-87.41 379.5,-74 379.6,-73.97 379.7,-73.95 379.8,-73.92"/>
<polygon fill="#63b8ff" stroke="#63b8ff" points="380.67,-77.32 389.49,-71.45 378.94,-70.53 380.67,-77.32"/>
</g>
<!-- Node13 -->
<g id="node13" class="node">
<title>Node13</title>
<g id="a_node13"><a xlink:title=" ">
<polygon fill="#e0e0e0" stroke="#999999" points="212.5,-74 152.5,-74 152.5,-55 212.5,-55 212.5,-74"/>
<text text-anchor="middle" x="182.5" y="-62" font-family="Helvetica,sans-Serif" font-size="10.00">iostream</text>
</a>
</g>
</g>
<!-- Node4&#45;&gt;Node13 -->
<g id="edge12" class="edge">
<title>Node4&#45;&gt;Node13</title>
<path fill="none" stroke="#63b8ff" d="M185.84,-109.75C185.32,-102.8 184.56,-92.85 183.91,-84.13"/>
<polygon fill="#63b8ff" stroke="#63b8ff" points="187.39,-83.8 183.15,-74.09 180.41,-84.32 187.39,-83.8"/>
</g>
<!-- Node14 -->
<g id="node14" class="node">
<title>Node14</title>
<g id="a_node14"><a xlink:title=" ">
<polygon fill="#e0e0e0" stroke="#999999" points="298,-74 231,-74 231,-55 298,-55 298,-74"/>
<text text-anchor="middle" x="264.5" y="-62" font-family="Helvetica,sans-Serif" font-size="10.00">streambuf</text>
</a>
</g>
</g>
<!-- Node4&#45;&gt;Node14 -->
<g id="edge13" class="edge">
<title>Node4&#45;&gt;Node14</title>
<path fill="none" stroke="#63b8ff" d="M199.03,-109.98C210.9,-101.92 228.96,-89.65 243.11,-80.03"/>
<polygon fill="#63b8ff" stroke="#63b8ff" points="245.44,-82.69 251.74,-74.17 241.5,-76.9 245.44,-82.69"/>
</g>
<!-- Node15 -->
<g id="node15" class="node">
<title>Node15</title>
<g id="a_node15"><a xlink:title=" ">
<polygon fill="#e0e0e0" stroke="#999999" points="371,-74 316,-74 316,-55 371,-55 371,-74"/>
<text text-anchor="middle" x="343.5" y="-62" font-family="Helvetica,sans-Serif" font-size="10.00">fstream</text>
</a>
</g>
</g>
<!-- Node4&#45;&gt;Node15 -->
<g id="edge14" class="edge">
<title>Node4&#45;&gt;Node15</title>
<path fill="none" stroke="#63b8ff" d="M211.72,-109.98C237.86,-101.16 278.9,-87.31 308.23,-77.41"/>
<polygon fill="#63b8ff" stroke="#63b8ff" points="309.72,-80.6 318.08,-74.08 307.48,-73.96 309.72,-80.6"/>
</g>
<!-- Node6 -->
<g id="node6" class="node">
<title>Node6</title>
<g id="a_node6"><a xlink:title=" ">
<polygon fill="#e0e0e0" stroke="#999999" points="183.5,-19 139.5,-19 139.5,0 183.5,0 183.5,-19"/>
<text text-anchor="middle" x="161.5" y="-7" font-family="Helvetica,sans-Serif" font-size="10.00">ctime</text>
</a>
</g>
</g>
<!-- Node5&#45;&gt;Node6 -->
<g id="edge5" class="edge">
<title>Node5&#45;&gt;Node6</title>
<path fill="none" stroke="#63b8ff" d="M104.43,-54.98C114.58,-47.07 129.92,-35.11 142.15,-25.58"/>
<polygon fill="#63b8ff" stroke="#63b8ff" points="144.64,-28.08 150.38,-19.17 140.34,-22.56 144.64,-28.08"/>
</g>
<!-- Node7 -->
<g id="node7" class="node">
<title>Node7</title>
<g id="a_node7"><a xlink:title=" ">
<polygon fill="#e0e0e0" stroke="#999999" points="251.5,-19 201.5,-19 201.5,0 251.5,0 251.5,-19"/>
<text text-anchor="middle" x="226.5" y="-7" font-family="Helvetica,sans-Serif" font-size="10.00">cstdint</text>
</a>
</g>
</g>
<!-- Node5&#45;&gt;Node7 -->
<g id="edge6" class="edge">
<title>Node5&#45;&gt;Node7</title>
<path fill="none" stroke="#63b8ff" d="M114.87,-54.98C136.65,-46.3 170.66,-32.75 195.42,-22.88"/>
<polygon fill="#63b8ff" stroke="#63b8ff" points="196.75,-26.12 204.74,-19.17 194.16,-19.62 196.75,-26.12"/>
</g>
<!-- Node8 -->
<g id="node8" class="node">
<title>Node8</title>
<g id="a_node8"><a xlink:title=" ">
<polygon fill="#e0e0e0" stroke="#999999" points="371,-19 314,-19 314,0 371,0 371,-19"/>
<text text-anchor="middle" x="342.5" y="-7" font-family="Helvetica,sans-Serif" font-size="10.00">ostream</text>
</a>
</g>
</g>
<!-- Node5&#45;&gt;Node8 -->
<g id="edge7" class="edge">
<title>Node5&#45;&gt;Node8</title>
<path fill="none" stroke="#63b8ff" d="M133.51,-54.98C180.41,-45 257.61,-28.57 303.9,-18.72"/>
<polygon fill="#63b8ff" stroke="#63b8ff" points="304.8,-22.1 313.85,-16.6 303.34,-15.26 304.8,-22.1"/>
</g>
<!-- Node9 -->
<g id="node9" class="node">
<title>Node9</title>
<g id="a_node9"><a xlink:title=" ">
<polygon fill="#e0e0e0" stroke="#999999" points="121.5,-19 65.5,-19 65.5,0 121.5,0 121.5,-19"/>
<text text-anchor="middle" x="93.5" y="-7" font-family="Helvetica,sans-Serif" font-size="10.00">iomanip</text>
</a>
</g>
</g>
<!-- Node5&#45;&gt;Node9 -->
<g id="edge8" class="edge">
<title>Node5&#45;&gt;Node9</title>
<path fill="none" stroke="#63b8ff" d="M93.5,-54.75C93.5,-47.8 93.5,-37.85 93.5,-29.13"/>
<polygon fill="#63b8ff" stroke="#63b8ff" points="97,-29.09 93.5,-19.09 90,-29.09 97,-29.09"/>
</g>
<!-- Node5&#45;&gt;Node10 -->
<g id="edge9" class="edge">
<title>Node5&#45;&gt;Node10</title>
<path fill="none" stroke="#63b8ff" d="M134.14,-56.49C137.31,-55.97 140.45,-55.47 143.5,-55 244.32,-39.38 363.51,-23.35 423.28,-15.48"/>
<polygon fill="#63b8ff" stroke="#63b8ff" points="423.92,-18.93 433.38,-14.15 423.01,-11.98 423.92,-18.93"/>
</g>
<!-- Node11 -->
<g id="node11" class="node">
<title>Node11</title>
<g id="a_node11"><a xlink:title=" ">
<polygon fill="#e0e0e0" stroke="#999999" points="47,-19 0,-19 0,0 47,0 47,-19"/>
<text text-anchor="middle" x="23.5" y="-7" font-family="Helvetica,sans-Serif" font-size="10.00">cmath</text>
</a>
</g>
</g>
<!-- Node5&#45;&gt;Node11 -->
<g id="edge10" class="edge">
<title>Node5&#45;&gt;Node11</title>
<path fill="none" stroke="#63b8ff" d="M82.25,-54.98C71.7,-47 55.7,-34.88 43.06,-25.31"/>
<polygon fill="#63b8ff" stroke="#63b8ff" points="45.04,-22.42 34.95,-19.17 40.81,-28 45.04,-22.42"/>
</g>
<!-- Node16&#45;&gt;Node8 -->
<g id="edge16" class="edge">
<title>Node16&#45;&gt;Node8</title>
<path fill="none" stroke="#63b8ff" d="M592.9,-55.33C534.85,-44.94 435.59,-27.17 381.11,-17.41"/>
<polygon fill="#63b8ff" stroke="#63b8ff" points="381.61,-13.95 371.15,-15.63 380.38,-20.84 381.61,-13.95"/>
</g>
<!-- Node17&#45;&gt;Node16 -->
<g id="edge18" class="edge">
<title>Node17&#45;&gt;Node16</title>
<path fill="none" stroke="#63b8ff" d="M581.43,-109.98C591.58,-102.07 606.92,-90.11 619.15,-80.58"/>
<polygon fill="#63b8ff" stroke="#63b8ff" points="621.64,-83.08 627.38,-74.17 617.34,-77.56 621.64,-83.08"/>
</g>
<!-- Node18 -->
<g id="node18" class="node">
<title>Node18</title>
<g id="a_node18"><a xlink:title=" ">
<polygon fill="#e0e0e0" stroke="#999999" points="575,-74 516,-74 516,-55 575,-55 575,-74"/>
<text text-anchor="middle" x="545.5" y="-62" font-family="Helvetica,sans-Serif" font-size="10.00">complex</text>
</a>
</g>
</g>
<!-- Node17&#45;&gt;Node18 -->
<g id="edge19" class="edge">
<title>Node17&#45;&gt;Node18</title>
<path fill="none" stroke="#63b8ff" d="M566.37,-109.75C562.99,-102.57 558.08,-92.18 553.88,-83.27"/>
<polygon fill="#63b8ff" stroke="#63b8ff" points="556.98,-81.64 549.55,-74.09 550.65,-84.63 556.98,-81.64"/>
</g>
<!-- Node22 -->
<g id="node22" class="node">
<title>Node22</title>
<g id="a_node22"><a xlink:href="CTF_8hpp.html" target="_top" xlink:title=" ">
<polygon fill="white" stroke="#666666" points="818.5,-74 744.5,-74 744.5,-55 818.5,-55 818.5,-74"/>
<text text-anchor="middle" x="781.5" y="-62" font-family="Helvetica,sans-Serif" font-size="10.00">util/CTF.hpp</text>
</a>
</g>
</g>
<!-- Node21&#45;&gt;Node22 -->
<g id="edge24" class="edge">
<title>Node21&#45;&gt;Node22</title>
<path fill="none" stroke="#63b8ff" d="M781.5,-109.75C781.5,-102.8 781.5,-92.85 781.5,-84.13"/>
<polygon fill="#63b8ff" stroke="#63b8ff" points="785,-84.09 781.5,-74.09 778,-84.09 785,-84.09"/>
</g>
<!-- Node23 -->
<g id="node23" class="node">
<title>Node23</title>
<g id="a_node23"><a xlink:title=" ">
<polygon fill="#e0e0e0" stroke="#999999" points="806.5,-19 756.5,-19 756.5,0 806.5,0 806.5,-19"/>
<text text-anchor="middle" x="781.5" y="-7" font-family="Helvetica,sans-Serif" font-size="10.00">ctf.hpp</text>
</a>
</g>
</g>
<!-- Node22&#45;&gt;Node23 -->
<g id="edge25" class="edge">
<title>Node22&#45;&gt;Node23</title>
<path fill="none" stroke="#63b8ff" d="M781.5,-54.75C781.5,-47.8 781.5,-37.85 781.5,-29.13"/>
<polygon fill="#63b8ff" stroke="#63b8ff" points="785,-29.09 781.5,-19.09 778,-29.09 785,-29.09"/>
</g>
<!-- Node24&#45;&gt;Node10 -->
<g id="edge28" class="edge">
<title>Node24&#45;&gt;Node10</title>
<path fill="none" stroke="#63b8ff" d="M415.82,-109.99C423.69,-101.51 435.35,-87.78 442.5,-74 449.88,-59.78 454.85,-42.25 457.85,-29.21"/>
<polygon fill="#63b8ff" stroke="#63b8ff" points="461.34,-29.61 459.99,-19.11 454.5,-28.16 461.34,-29.61"/>
</g>
<!-- Node24&#45;&gt;Node12 -->
<g id="edge27" class="edge">
<title>Node24&#45;&gt;Node12</title>
<path fill="none" stroke="#63b8ff" d="M408.16,-109.75C408.68,-102.8 409.44,-92.85 410.09,-84.13"/>
<polygon fill="#63b8ff" stroke="#63b8ff" points="413.59,-84.32 410.85,-74.09 406.61,-83.8 413.59,-84.32"/>
</g>
<!-- Node24&#45;&gt;Node13 -->
<g id="edge29" class="edge">
<title>Node24&#45;&gt;Node13</title>
<path fill="none" stroke="#63b8ff" d="M371.35,-109.98C330.72,-100.42 264.95,-84.92 222.73,-74.98"/>
<polygon fill="#63b8ff" stroke="#63b8ff" points="223.33,-71.52 212.79,-72.63 221.72,-78.33 223.33,-71.52"/>
</g>
<!-- Node25&#45;&gt;Node13 -->
<g id="edge41" class="edge">
<title>Node25&#45;&gt;Node13</title>
<path fill="none" stroke="#63b8ff" d="M163,-219.97C145.56,-213.24 124.91,-201.93 114.5,-184 93,-146.98 135.61,-103.27 162.62,-80.69"/>
<polygon fill="#63b8ff" stroke="#63b8ff" points="165.16,-83.14 170.74,-74.14 160.76,-77.7 165.16,-83.14"/>
</g>
<!-- Node26 -->
<g id="node26" class="node">
<title>Node26</title>
<g id="a_node26"><a xlink:href="MathFunctions_8hpp.html" target="_top" xlink:title=" ">
<polygon fill="white" stroke="#666666" points="261,-184 124,-184 124,-165 261,-165 261,-184"/>
<text text-anchor="middle" x="192.5" y="-172" font-family="Helvetica,sans-Serif" font-size="10.00">math/MathFunctions.hpp</text>
</a>
</g>
</g>
<!-- Node25&#45;&gt;Node26 -->
<g id="edge35" class="edge">
<title>Node25&#45;&gt;Node26</title>
<path fill="none" stroke="#63b8ff" d="M192.5,-219.75C192.5,-212.8 192.5,-202.85 192.5,-194.13"/>
<polygon fill="#63b8ff" stroke="#63b8ff" points="196,-194.09 192.5,-184.09 189,-194.09 196,-194.09"/>
</g>
<!-- Node26&#45;&gt;Node4 -->
<g id="edge40" class="edge">
<title>Node26&#45;&gt;Node4</title>
<path fill="none" stroke="#63b8ff" d="M191.51,-164.75C190.72,-157.8 189.6,-147.85 188.61,-139.13"/>
<polygon fill="#63b8ff" stroke="#63b8ff" points="192.08,-138.63 187.47,-129.09 185.12,-139.42 192.08,-138.63"/>
</g>
<!-- Node26&#45;&gt;Node11 -->
<g id="edge37" class="edge">
<title>Node26&#45;&gt;Node11</title>
<path fill="none" stroke="#63b8ff" d="M171.39,-164.95C139.12,-150.81 77.66,-119.54 43.5,-74 33.64,-60.85 28.56,-42.72 26,-29.2"/>
<polygon fill="#63b8ff" stroke="#63b8ff" points="29.42,-28.45 24.38,-19.13 22.51,-29.56 29.42,-28.45"/>
</g>
<!-- Node26&#45;&gt;Node12 -->
<g id="edge38" class="edge">
<title>Node26&#45;&gt;Node12</title>
<path fill="none" stroke="#63b8ff" d="M201.49,-164.95C216.01,-151.55 245.96,-125.55 275.5,-110 293.68,-100.43 345.13,-84.65 379.28,-74.68"/>
<polygon fill="#63b8ff" stroke="#63b8ff" points="380.64,-77.93 389.27,-71.79 378.69,-71.21 380.64,-77.93"/>
</g>
<!-- Node26&#45;&gt;Node17 -->
<g id="edge36" class="edge">
<title>Node26&#45;&gt;Node17</title>
<path fill="none" stroke="#63b8ff" d="M253.23,-164.98C322.25,-155.31 434.49,-139.57 505.31,-129.64"/>
<polygon fill="#63b8ff" stroke="#63b8ff" points="506.03,-133.07 515.45,-128.22 505.06,-126.14 506.03,-133.07"/>
</g>
<!-- Node26&#45;&gt;Node21 -->
<g id="edge39" class="edge">
<title>Node26&#45;&gt;Node21</title>
<path fill="none" stroke="#63b8ff" d="M261.39,-167.43C357.5,-158.95 537.28,-143 690.5,-129 702.6,-127.89 715.6,-126.69 727.88,-125.54"/>
<polygon fill="#63b8ff" stroke="#63b8ff" points="728.36,-129.01 737.99,-124.6 727.71,-122.05 728.36,-129.01"/>
</g>
</g>
</svg>
