<?xml version="1.0" encoding="UTF-8" standalone="no"?>
<!DOCTYPE svg PUBLIC "-//W3C//DTD SVG 1.1//EN"
 "http://www.w3.org/Graphics/SVG/1.1/DTD/svg11.dtd">
<!-- Generated by graphviz version 7.1.0 (0)
 -->
<!-- Title: CLI::Option::get_expected_min Pages: 1 -->
<svg width="475pt" height="172pt"
 viewBox="0.00 0.00 475.00 172.00" xmlns="http://www.w3.org/2000/svg" xmlns:xlink="http://www.w3.org/1999/xlink">
<g id="graph0" class="graph" transform="scale(1 1) rotate(0) translate(4 168)">
<title>CLI::Option::get_expected_min</title>
<!-- Node1 -->
<g id="node1" class="node">
<title>Node1</title>
<g id="a_node1"><a xlink:title="The number of times the option expects to be included.">
<polygon fill="#999999" stroke="#666666" points="467,-88.5 301,-88.5 301,-69.5 467,-69.5 467,-88.5"/>
<text text-anchor="middle" x="384" y="-76.5" font-family="Helvetica,sans-Serif" font-size="10.00">CLI::Option::get_expected_min</text>
</a>
</g>
</g>
<!-- Node2 -->
<g id="node2" class="node">
<title>Node2</title>
<g id="a_node2"><a xlink:href="classCLI_1_1App.html#a1f7a70f4bc4c375a7de10073a5de709d" target="_top" xlink:title="Fill in a single config option.">
<polygon fill="white" stroke="#666666" points="265,-164 136,-164 136,-134 265,-134 265,-164"/>
<text text-anchor="start" x="144" y="-152" font-family="Helvetica,sans-Serif" font-size="10.00">CLI::App::_parse_single</text>
<text text-anchor="middle" x="200.5" y="-141" font-family="Helvetica,sans-Serif" font-size="10.00">_config</text>
</a>
</g>
</g>
<!-- Node1&#45;&gt;Node2 -->
<g id="edge1" class="edge">
<title>Node1&#45;&gt;Node2</title>
<path fill="none" stroke="#63b8ff" d="M347.24,-93.05C323.86,-102.21 292.64,-114.39 265,-125 257.74,-127.79 250,-130.73 242.51,-133.57"/>
<polygon fill="#63b8ff" stroke="#63b8ff" points="348.27,-96.41 356.3,-89.5 345.71,-89.89 348.27,-96.41"/>
</g>
<!-- Node3 -->
<g id="node3" class="node">
<title>Node3</title>
<g id="a_node3"><a xlink:href="classCLI_1_1Formatter.html#a9f11b9ee12c8ccb8bf9670be1b47a3b1" target="_top" xlink:title="This is the options part of the name, Default: combined into left column.">
<polygon fill="white" stroke="#666666" points="260,-116 141,-116 141,-86 260,-86 260,-116"/>
<text text-anchor="start" x="149" y="-104" font-family="Helvetica,sans-Serif" font-size="10.00">CLI::Formatter::make</text>
<text text-anchor="middle" x="200.5" y="-93" font-family="Helvetica,sans-Serif" font-size="10.00">_option_opts</text>
</a>
</g>
</g>
<!-- Node1&#45;&gt;Node3 -->
<g id="edge2" class="edge">
<title>Node1&#45;&gt;Node3</title>
<path fill="none" stroke="#63b8ff" d="M289.56,-90.33C279.64,-91.53 269.77,-92.73 260.41,-93.86"/>
<polygon fill="#63b8ff" stroke="#63b8ff" points="289.74,-93.83 299.24,-89.15 288.9,-86.88 289.74,-93.83"/>
</g>
<!-- Node4 -->
<g id="node4" class="node">
<title>Node4</title>
<g id="a_node4"><a xlink:href="namespaceCLI.html#a36cfe4a6a80bf143735c0b80960bc252" target="_top" xlink:title="Helper function to mark an option as retired.">
<polygon fill="white" stroke="#666666" points="250.5,-67.5 150.5,-67.5 150.5,-48.5 250.5,-48.5 250.5,-67.5"/>
<text text-anchor="middle" x="200.5" y="-55.5" font-family="Helvetica,sans-Serif" font-size="10.00">CLI::retire_option</text>
</a>
</g>
</g>
<!-- Node1&#45;&gt;Node4 -->
<g id="edge3" class="edge">
<title>Node1&#45;&gt;Node4</title>
<path fill="none" stroke="#63b8ff" d="M289.51,-68.18C276.13,-66.63 262.82,-65.1 250.77,-63.7"/>
<polygon fill="#63b8ff" stroke="#63b8ff" points="288.91,-71.64 299.24,-69.31 289.71,-64.68 288.91,-71.64"/>
</g>
<!-- Node6 -->
<g id="node6" class="node">
<title>Node6</title>
<g id="a_node6"><a xlink:href="classCLI_1_1ConfigBase.html#a5832f6f03212648fa08a8ff83bc9bc08" target="_top" xlink:title="Convert an app into a configuration.">
<polygon fill="white" stroke="#666666" points="254.5,-30 146.5,-30 146.5,0 254.5,0 254.5,-30"/>
<text text-anchor="start" x="154.5" y="-18" font-family="Helvetica,sans-Serif" font-size="10.00">CLI::ConfigBase::to</text>
<text text-anchor="middle" x="200.5" y="-7" font-family="Helvetica,sans-Serif" font-size="10.00">_config</text>
</a>
</g>
</g>
<!-- Node1&#45;&gt;Node6 -->
<g id="edge5" class="edge">
<title>Node1&#45;&gt;Node6</title>
<path fill="none" stroke="#63b8ff" d="M344.07,-65.27C315.03,-55.03 275.34,-41.04 245.2,-30.41"/>
<polygon fill="#63b8ff" stroke="#63b8ff" points="342.62,-68.47 353.21,-68.5 344.95,-61.87 342.62,-68.47"/>
</g>
<!-- Node5 -->
<g id="node5" class="node">
<title>Node5</title>
<g id="a_node5"><a xlink:href="namespaceCLI.html#a52390f850f663cf38a27e134c1a39b61" target="_top" xlink:title="Helper function to mark an option as retired.">
<polygon fill="white" stroke="#666666" points="100,-67.5 0,-67.5 0,-48.5 100,-48.5 100,-67.5"/>
<text text-anchor="middle" x="50" y="-55.5" font-family="Helvetica,sans-Serif" font-size="10.00">CLI::retire_option</text>
</a>
</g>
</g>
<!-- Node4&#45;&gt;Node5 -->
<g id="edge4" class="edge">
<title>Node4&#45;&gt;Node5</title>
<path fill="none" stroke="#63b8ff" d="M138.6,-58C125.92,-58 112.7,-58 100.49,-58"/>
<polygon fill="#63b8ff" stroke="#63b8ff" points="138.54,-61.5 148.54,-58 138.54,-54.5 138.54,-61.5"/>
</g>
</g>
</svg>
