<?xml version="1.0" encoding="UTF-8" standalone="no"?>
<!DOCTYPE svg PUBLIC "-//W3C//DTD SVG 1.1//EN"
 "http://www.w3.org/Graphics/SVG/1.1/DTD/svg11.dtd">
<!-- Generated by graphviz version 7.0.0 (0)
 -->
<!-- Title: sisi4s::Algorithm::Algorithm Pages: 1 -->
<svg width="297pt" height="64pt"
 viewBox="0.00 0.00 297.00 64.00" xmlns="http://www.w3.org/2000/svg" xmlns:xlink="http://www.w3.org/1999/xlink">
<g id="graph0" class="graph" transform="scale(1 1) rotate(0) translate(4 60)">
<title>sisi4s::Algorithm::Algorithm</title>
<!-- Node1 -->
<g id="node1" class="node">
<title>Node1</title>
<g id="a_node1"><a xlink:title=" ">
<polygon fill="#999999" stroke="#666666" points="104,-42.5 0,-42.5 0,-12.5 104,-12.5 104,-42.5"/>
<text text-anchor="start" x="8" y="-30.5" font-family="Helvetica,sans-Serif" font-size="10.00">sisi4s::Algorithm::</text>
<text text-anchor="middle" x="52" y="-19.5" font-family="Helvetica,sans-Serif" font-size="10.00">Algorithm</text>
</a>
</g>
</g>
<!-- Node2 -->
<g id="node2" class="node">
<title>Node2</title>
<g id="a_node2"><a xlink:href="classsisi4s_1_1Argument.html#a5c32abc11fbb12c73db239fe52384528" target="_top" xlink:title=" ">
<polygon fill="white" stroke="#666666" points="286,-56 143,-56 143,-37 286,-37 286,-56"/>
<text text-anchor="middle" x="214.5" y="-44" font-family="Helvetica,sans-Serif" font-size="10.00">sisi4s::Argument::getData</text>
</a>
</g>
</g>
<!-- Node1&#45;&gt;Node2 -->
<g id="edge1" class="edge">
<title>Node1&#45;&gt;Node2</title>
<path fill="none" stroke="#63b8ff" d="M104.22,-33.56C112.9,-34.59 122.1,-35.68 131.33,-36.77"/>
<polygon fill="#63b8ff" stroke="#63b8ff" points="130.73,-40.23 141.07,-37.93 131.55,-33.27 130.73,-40.23"/>
</g>
<!-- Node3 -->
<g id="node3" class="node">
<title>Node3</title>
<g id="a_node3"><a xlink:href="classsisi4s_1_1Argument.html#af1413fc817486afbacacf5980f009fe8" target="_top" xlink:title=" ">
<polygon fill="white" stroke="#666666" points="289,-19 140,-19 140,0 289,0 289,-19"/>
<text text-anchor="middle" x="214.5" y="-7" font-family="Helvetica,sans-Serif" font-size="10.00">sisi4s::Argument::getName</text>
</a>
</g>
</g>
<!-- Node1&#45;&gt;Node3 -->
<g id="edge2" class="edge">
<title>Node1&#45;&gt;Node3</title>
<path fill="none" stroke="#63b8ff" d="M104.22,-21.76C111.98,-20.89 120.16,-19.97 128.4,-19.04"/>
<polygon fill="#63b8ff" stroke="#63b8ff" points="128.6,-22.54 138.15,-17.95 127.82,-15.59 128.6,-22.54"/>
</g>
</g>
</svg>
