<?xml version="1.0" encoding="UTF-8" standalone="no"?>
<!DOCTYPE svg PUBLIC "-//W3C//DTD SVG 1.1//EN"
 "http://www.w3.org/Graphics/SVG/1.1/DTD/svg11.dtd">
<!-- Generated by graphviz version 7.1.0 (0)
 -->
<!-- Title: sisi4s::DefineHolesAndParticles Pages: 1 -->
<svg width="478pt" height="602pt"
 viewBox="0.00 0.00 478.00 602.00" xmlns="http://www.w3.org/2000/svg" xmlns:xlink="http://www.w3.org/1999/xlink">
<g id="graph0" class="graph" transform="scale(1 1) rotate(0) translate(4 598)">
<title>sisi4s::DefineHolesAndParticles</title>
<!-- Node1 -->
<g id="node1" class="node">
<title>Node1</title>
<g id="a_node1"><a xlink:title=" ">
<polygon fill="#999999" stroke="#666666" points="21,-0.5 21,-90.5 191,-90.5 191,-0.5 21,-0.5"/>
<text text-anchor="middle" x="106" y="-78.5" font-family="Helvetica,sans-Serif" font-size="10.00">sisi4s::DefineHolesAndParticles</text>
<polyline fill="none" stroke="#666666" points="21,-71.5 191,-71.5"/>
<text text-anchor="middle" x="106" y="-59.5" font-family="Helvetica,sans-Serif" font-size="10.00"> </text>
<polyline fill="none" stroke="#666666" points="21,-52.5 191,-52.5"/>
<text text-anchor="start" x="29" y="-40.5" font-family="Helvetica,sans-Serif" font-size="10.00">+ getName()</text>
<text text-anchor="start" x="29" y="-29.5" font-family="Helvetica,sans-Serif" font-size="10.00">+ DefineHolesAndParticles()</text>
<text text-anchor="start" x="29" y="-18.5" font-family="Helvetica,sans-Serif" font-size="10.00">+ ~DefineHolesAndParticles()</text>
<text text-anchor="start" x="29" y="-7.5" font-family="Helvetica,sans-Serif" font-size="10.00">+ run()</text>
</a>
</g>
</g>
<!-- Node2 -->
<g id="node2" class="node">
<title>Node2</title>
<g id="a_node2"><a xlink:href="classsisi4s_1_1Algorithm.html" target="_top" xlink:title=" ">
<polygon fill="white" stroke="#666666" points="0,-138.5 0,-349.5 180,-349.5 180,-138.5 0,-138.5"/>
<text text-anchor="middle" x="90" y="-337.5" font-family="Helvetica,sans-Serif" font-size="10.00">sisi4s::Algorithm</text>
<polyline fill="none" stroke="#666666" points="0,-330.5 180,-330.5"/>
<text text-anchor="start" x="8" y="-318.5" font-family="Helvetica,sans-Serif" font-size="10.00"># arguments</text>
<polyline fill="none" stroke="#666666" points="0,-311.5 180,-311.5"/>
<text text-anchor="start" x="8" y="-299.5" font-family="Helvetica,sans-Serif" font-size="10.00">+ Algorithm()</text>
<text text-anchor="start" x="8" y="-288.5" font-family="Helvetica,sans-Serif" font-size="10.00">+ ~Algorithm()</text>
<text text-anchor="start" x="8" y="-277.5" font-family="Helvetica,sans-Serif" font-size="10.00">+ getName()</text>
<text text-anchor="start" x="8" y="-266.5" font-family="Helvetica,sans-Serif" font-size="10.00">+ run()</text>
<text text-anchor="start" x="8" y="-255.5" font-family="Helvetica,sans-Serif" font-size="10.00">+ dryRun()</text>
<text text-anchor="start" x="8" y="-244.5" font-family="Helvetica,sans-Serif" font-size="10.00">+ isArgumentGiven()</text>
<text text-anchor="start" x="8" y="-233.5" font-family="Helvetica,sans-Serif" font-size="10.00">+ getTextArgument()</text>
<text text-anchor="start" x="8" y="-222.5" font-family="Helvetica,sans-Serif" font-size="10.00">+ getTextArgument()</text>
<text text-anchor="start" x="8" y="-211.5" font-family="Helvetica,sans-Serif" font-size="10.00">+ getBooleanArgument()</text>
<text text-anchor="start" x="8" y="-200.5" font-family="Helvetica,sans-Serif" font-size="10.00">+ getBooleanArgument()</text>
<text text-anchor="start" x="8" y="-189.5" font-family="Helvetica,sans-Serif" font-size="10.00">and 12 more...</text>
<text text-anchor="start" x="8" y="-178.5" font-family="Helvetica,sans-Serif" font-size="10.00"># getRealArgumentFromInteger()</text>
<text text-anchor="start" x="8" y="-167.5" font-family="Helvetica,sans-Serif" font-size="10.00"># getRealArgumentFromTensor()</text>
<text text-anchor="start" x="8" y="-156.5" font-family="Helvetica,sans-Serif" font-size="10.00"># getTensorArgumentFromReal()</text>
<text text-anchor="start" x="8" y="-145.5" font-family="Helvetica,sans-Serif" font-size="10.00"># getArgumentData()</text>
</a>
</g>
</g>
<!-- Node2&#45;&gt;Node1 -->
<g id="edge1" class="edge">
<title>Node2&#45;&gt;Node1</title>
<path fill="none" stroke="#63b8ff" d="M99.4,-127.55C100.47,-114.37 101.51,-101.61 102.44,-90.26"/>
<polygon fill="none" stroke="#63b8ff" points="95.94,-126.95 98.61,-137.2 102.91,-127.52 95.94,-126.95"/>
</g>
<!-- Node3 -->
<g id="node3" class="node">
<title>Node3</title>
<g id="a_node3"><a xlink:href="classsisi4s_1_1AlgorithmRegistrar.html" target="_top" xlink:title=" ">
<polygon fill="white" stroke="#666666" points="198,-210 198,-278 390,-278 390,-210 198,-210"/>
<text text-anchor="start" x="206" y="-266" font-family="Helvetica,sans-Serif" font-size="10.00">sisi4s::AlgorithmRegistrar</text>
<text text-anchor="middle" x="294" y="-255" font-family="Helvetica,sans-Serif" font-size="10.00">&lt; sisi4s::DefineHolesAndParticles &gt;</text>
<polyline fill="none" stroke="#666666" points="198,-248 390,-248"/>
<text text-anchor="middle" x="294" y="-236" font-family="Helvetica,sans-Serif" font-size="10.00"> </text>
<polyline fill="none" stroke="#666666" points="198,-229 390,-229"/>
<text text-anchor="start" x="206" y="-217" font-family="Helvetica,sans-Serif" font-size="10.00">+ AlgorithmRegistrar()</text>
</a>
</g>
</g>
<!-- Node3&#45;&gt;Node1 -->
<g id="edge2" class="edge">
<title>Node3&#45;&gt;Node1</title>
<path fill="none" stroke="#404040" d="M262.53,-210.11C233.65,-179.92 190.35,-134.67 156.61,-99.4"/>
<polygon fill="none" stroke="#404040" points="156.73,-99.52 149.69,-97.95 148.43,-90.85 155.47,-92.42 156.73,-99.52"/>
<text text-anchor="middle" x="202" y="-112" font-family="Helvetica,sans-Serif" font-size="10.00"> +registrar_</text>
</g>
<!-- Node4 -->
<g id="node4" class="node">
<title>Node4</title>
<g id="a_node4"><a xlink:href="classsisi4s_1_1AlgorithmFactory.html" target="_top" xlink:title=" ">
<polygon fill="white" stroke="#666666" points="206,-514.5 206,-593.5 340,-593.5 340,-514.5 206,-514.5"/>
<text text-anchor="middle" x="273" y="-581.5" font-family="Helvetica,sans-Serif" font-size="10.00">sisi4s::AlgorithmFactory</text>
<polyline fill="none" stroke="#666666" points="206,-574.5 340,-574.5"/>
<text text-anchor="start" x="214" y="-562.5" font-family="Helvetica,sans-Serif" font-size="10.00"># algorithmMap</text>
<polyline fill="none" stroke="#666666" points="206,-555.5 340,-555.5"/>
<text text-anchor="start" x="214" y="-543.5" font-family="Helvetica,sans-Serif" font-size="10.00">+ create()</text>
<text text-anchor="start" x="214" y="-532.5" font-family="Helvetica,sans-Serif" font-size="10.00">+ getAlgorithmNames()</text>
<text text-anchor="start" x="214" y="-521.5" font-family="Helvetica,sans-Serif" font-size="10.00"># getAlgorithmMap()</text>
</a>
</g>
</g>
<!-- Node4&#45;&gt;Node3 -->
<g id="edge3" class="edge">
<title>Node4&#45;&gt;Node3</title>
<path fill="none" stroke="darkgreen" d="M274.95,-503.02C276.16,-475.06 277.88,-439.57 280,-408 283.03,-362.8 287.72,-310.65 290.82,-277.75"/>
<polygon fill="none" stroke="darkgreen" points="271.45,-502.86 274.53,-513 278.45,-503.16 271.45,-502.86"/>
</g>
<!-- Node5 -->
<g id="node5" class="node">
<title>Node5</title>
<g id="a_node5"><a xlink:href="classsisi4s_1_1AlgorithmRegistrar.html" target="_top" xlink:title="Class to be statically instantiated by an algorithm to register it in the AlgorithmFactory....">
<polygon fill="white" stroke="#666666" points="289.5,-408.5 289.5,-476.5 432.5,-476.5 432.5,-408.5 289.5,-408.5"/>
<text text-anchor="start" x="297.5" y="-464.5" font-family="Helvetica,sans-Serif" font-size="10.00">sisi4s::AlgorithmRegistrar</text>
<text text-anchor="middle" x="361" y="-453.5" font-family="Helvetica,sans-Serif" font-size="10.00">&lt; AlgorithmType &gt;</text>
<polyline fill="none" stroke="#666666" points="289.5,-446.5 432.5,-446.5"/>
<text text-anchor="middle" x="361" y="-434.5" font-family="Helvetica,sans-Serif" font-size="10.00"> </text>
<polyline fill="none" stroke="#666666" points="289.5,-427.5 432.5,-427.5"/>
<text text-anchor="start" x="297.5" y="-415.5" font-family="Helvetica,sans-Serif" font-size="10.00">+ AlgorithmRegistrar()</text>
</a>
</g>
</g>
<!-- Node4&#45;&gt;Node5 -->
<g id="edge5" class="edge">
<title>Node4&#45;&gt;Node5</title>
<path fill="none" stroke="darkgreen" d="M310.95,-505.77C318.88,-495.91 327.08,-485.71 334.48,-476.5"/>
<polygon fill="none" stroke="darkgreen" points="308.26,-503.54 304.73,-513.52 313.72,-507.92 308.26,-503.54"/>
</g>
<!-- Node5&#45;&gt;Node3 -->
<g id="edge4" class="edge">
<title>Node5&#45;&gt;Node3</title>
<path fill="none" stroke="orange" d="M346.12,-397.87C333.77,-361.65 316.47,-310.91 305.25,-278"/>
<polygon fill="orange" stroke="orange" points="342.76,-398.84 349.3,-407.18 349.38,-396.58 342.76,-398.84"/>
<text text-anchor="start" x="343" y="-382" font-family="Helvetica,sans-Serif" font-size="10.00"> &lt; sisi4s::DefineHolesAnd</text>
<text text-anchor="middle" x="406.5" y="-371" font-family="Helvetica,sans-Serif" font-size="10.00">Particles &gt;</text>
</g>
</g>
</svg>
