<?xml version="1.0" encoding="UTF-8" standalone="no"?>
<!DOCTYPE svg PUBLIC "-//W3C//DTD SVG 1.1//EN"
 "http://www.w3.org/Graphics/SVG/1.1/DTD/svg11.dtd">
<!-- Generated by graphviz version 8.1.0 (0)
 -->
<!-- Title: sisi4s::ParticleHoleCoulombVertexReader::run Pages: 1 -->
<svg width="670pt" height="280pt"
 viewBox="0.00 0.00 669.75 280.12" xmlns="http://www.w3.org/2000/svg" xmlns:xlink="http://www.w3.org/1999/xlink">
<g id="graph0" class="graph" transform="scale(1 1) rotate(0) translate(4 276.12)">
<title>sisi4s::ParticleHoleCoulombVertexReader::run</title>
<!-- Node1 -->
<g id="Node000001" class="node">
<title>Node1</title>
<g id="a_Node000001"><a xlink:title="Reads the Full Coulomb Vertex &#160;from FTODDUMP file.">
<polygon fill="#999999" stroke="#666666" points="151.75,-145.12 0,-145.12 0,-111.62 151.75,-111.62 151.75,-145.12"/>
<text text-anchor="start" x="8" y="-131.62" font-family="Helvetica,sans-Serif" font-size="10.00">sisi4s::ParticleHoleCoulomb</text>
<text text-anchor="middle" x="75.88" y="-118.88" font-family="Helvetica,sans-Serif" font-size="10.00">VertexReader::run</text>
</a>
</g>
</g>
<!-- Node2 -->
<g id="Node000002" class="node">
<title>Node2</title>
<g id="a_Node000002"><a xlink:href="classsisi4s_1_1Algorithm.html#a388052a12509b8b641f17bbe8d41f8f3" target="_top" xlink:title="Specifies the location of an output tensor data.">
<polygon fill="white" stroke="#666666" points="338.38,-168.12 197.88,-168.12 197.88,-134.62 338.38,-134.62 338.38,-168.12"/>
<text text-anchor="start" x="205.88" y="-154.62" font-family="Helvetica,sans-Serif" font-size="10.00">sisi4s::Algorithm::</text>
<text text-anchor="middle" x="268.12" y="-141.88" font-family="Helvetica,sans-Serif" font-size="10.00">allocatedTensorArgument</text>
</a>
</g>
</g>
<!-- Node1&#45;&gt;Node2 -->
<g id="edge1_Node000001_Node000002" class="edge">
<title>Node1&#45;&gt;Node2</title>
<g id="a_edge1_Node000001_Node000002"><a xlink:title=" ">
<path fill="none" stroke="#63b8ff" d="M152.07,-137.47C163.4,-138.84 175.13,-140.25 186.57,-141.64"/>
<polygon fill="#63b8ff" stroke="#63b8ff" points="186.08,-145.22 196.43,-142.95 186.92,-138.27 186.08,-145.22"/>
</a>
</g>
</g>
<!-- Node6 -->
<g id="Node000006" class="node">
<title>Node6</title>
<g id="a_Node000006"><a xlink:href="structUnrestricter.html#a7c13c6368ca5c0b725abdf582ff69262" target="_top" xlink:title=" ">
<polygon fill="white" stroke="#666666" points="348.5,-116.75 187.75,-116.75 187.75,-96 348.5,-96 348.5,-116.75"/>
<text text-anchor="middle" x="268.12" y="-103.25" font-family="Helvetica,sans-Serif" font-size="10.00">Unrestricter::doEigenEnergies</text>
</a>
</g>
</g>
<!-- Node1&#45;&gt;Node6 -->
<g id="edge5_Node000001_Node000006" class="edge">
<title>Node1&#45;&gt;Node6</title>
<g id="a_edge5_Node000001_Node000006"><a xlink:title=" ">
<path fill="none" stroke="#63b8ff" d="M152.07,-119.68C160.16,-118.74 168.44,-117.79 176.69,-116.83"/>
<polygon fill="#63b8ff" stroke="#63b8ff" points="176.94,-120.21 186.48,-115.59 176.14,-113.26 176.94,-120.21"/>
</a>
</g>
</g>
<!-- Node7 -->
<g id="Node000007" class="node">
<title>Node7</title>
<g id="a_Node000007"><a xlink:href="structUnrestricter.html#ae630d9ae0cf31af5f42085b26acbc3eb" target="_top" xlink:title=" ">
<polygon fill="white" stroke="#666666" points="329.75,-77.75 206.5,-77.75 206.5,-57 329.75,-57 329.75,-77.75"/>
<text text-anchor="middle" x="268.12" y="-64.25" font-family="Helvetica,sans-Serif" font-size="10.00">Unrestricter::doVertex</text>
</a>
</g>
</g>
<!-- Node1&#45;&gt;Node7 -->
<g id="edge6_Node000001_Node000007" class="edge">
<title>Node1&#45;&gt;Node7</title>
<g id="a_edge6_Node000001_Node000007"><a xlink:title=" ">
<path fill="none" stroke="#63b8ff" d="M119.95,-111.22C140.33,-103.42 165.11,-94.39 187.75,-87.38 194.95,-85.14 202.57,-82.98 210.13,-80.95"/>
<polygon fill="#63b8ff" stroke="#63b8ff" points="210.93,-84.1 219.72,-78.18 209.16,-77.32 210.93,-84.1"/>
</a>
</g>
</g>
<!-- Node8 -->
<g id="Node000008" class="node">
<title>Node8</title>
<g id="a_Node000008"><a xlink:href="classsisi4s_1_1Algorithm.html#a5db14be3b0d33bf80218a37223e27667" target="_top" xlink:title=" ">
<polygon fill="white" stroke="#666666" points="325.25,-272.12 211,-272.12 211,-238.62 325.25,-238.62 325.25,-272.12"/>
<text text-anchor="start" x="219" y="-258.62" font-family="Helvetica,sans-Serif" font-size="10.00">sisi4s::Algorithm::</text>
<text text-anchor="middle" x="268.12" y="-245.88" font-family="Helvetica,sans-Serif" font-size="10.00">getIntegerArgument</text>
</a>
</g>
</g>
<!-- Node1&#45;&gt;Node8 -->
<g id="edge7_Node000001_Node000008" class="edge">
<title>Node1&#45;&gt;Node8</title>
<g id="a_edge7_Node000001_Node000008"><a xlink:title=" ">
<path fill="none" stroke="#63b8ff" d="M91.33,-145.42C111.02,-167.66 148.38,-206.43 187.75,-229.38 191.88,-231.78 196.26,-234 200.76,-236.04"/>
<polygon fill="#63b8ff" stroke="#63b8ff" points="199.17,-239.58 209.75,-240.21 201.87,-233.13 199.17,-239.58"/>
</a>
</g>
</g>
<!-- Node10 -->
<g id="Node000010" class="node">
<title>Node10</title>
<g id="a_Node000010"><a xlink:href="classsisi4s_1_1Algorithm.html#a5e80a507fac066ab5714b62364cabaaf" target="_top" xlink:title=" ">
<polygon fill="white" stroke="#666666" points="320,-220.12 216.25,-220.12 216.25,-186.62 320,-186.62 320,-220.12"/>
<text text-anchor="start" x="224.25" y="-206.62" font-family="Helvetica,sans-Serif" font-size="10.00">sisi4s::Algorithm::</text>
<text text-anchor="middle" x="268.12" y="-193.88" font-family="Helvetica,sans-Serif" font-size="10.00">getTextArgument</text>
</a>
</g>
</g>
<!-- Node1&#45;&gt;Node10 -->
<g id="edge10_Node000001_Node000010" class="edge">
<title>Node1&#45;&gt;Node10</title>
<g id="a_edge10_Node000001_Node000010"><a xlink:title=" ">
<path fill="none" stroke="#63b8ff" d="M112.95,-145.41C134.45,-155.28 162.4,-167.65 187.75,-177.38 193.56,-179.6 199.65,-181.82 205.77,-183.96"/>
<polygon fill="#63b8ff" stroke="#63b8ff" points="204.45,-187.55 215.05,-187.48 206.72,-180.92 204.45,-187.55"/>
</a>
</g>
</g>
<!-- Node11 -->
<g id="Node000011" class="node">
<title>Node11</title>
<g id="a_Node000011"><a xlink:href="namespacesisi4s.html#a2653420c2b1b1224ad8f6b1d538228f1" target="_top" xlink:title="Composes a tensor of complex elements containing of the given tensors of real and imaginary parts....">
<polygon fill="white" stroke="#666666" points="335.38,-20.75 200.88,-20.75 200.88,0 335.38,0 335.38,-20.75"/>
<text text-anchor="middle" x="268.12" y="-7.25" font-family="Helvetica,sans-Serif" font-size="10.00">sisi4s::toComplexTensor</text>
</a>
</g>
</g>
<!-- Node1&#45;&gt;Node11 -->
<g id="edge13_Node000001_Node000011" class="edge">
<title>Node1&#45;&gt;Node11</title>
<g id="a_edge13_Node000001_Node000011"><a xlink:title=" ">
<path fill="none" stroke="#63b8ff" d="M98.18,-111.24C119.95,-94.17 155.09,-67.76 187.75,-48.38 201.7,-40.09 217.74,-32.14 231.74,-25.67"/>
<polygon fill="#63b8ff" stroke="#63b8ff" points="232.84,-28.56 240.5,-21.24 229.95,-22.18 232.84,-28.56"/>
</a>
</g>
</g>
<!-- Node3 -->
<g id="Node000003" class="node">
<title>Node3</title>
<g id="a_Node000003"><a xlink:href="classsisi4s_1_1Algorithm.html#a1e53277220d32a33e20846267c253652" target="_top" xlink:title=" ">
<polygon fill="white" stroke="#666666" points="509.62,-220.12 405.88,-220.12 405.88,-186.62 509.62,-186.62 509.62,-220.12"/>
<text text-anchor="start" x="413.88" y="-206.62" font-family="Helvetica,sans-Serif" font-size="10.00">sisi4s::Algorithm::</text>
<text text-anchor="middle" x="457.75" y="-193.88" font-family="Helvetica,sans-Serif" font-size="10.00">getArgumentData</text>
</a>
</g>
</g>
<!-- Node2&#45;&gt;Node3 -->
<g id="edge2_Node000002_Node000003" class="edge">
<title>Node2&#45;&gt;Node3</title>
<g id="a_edge2_Node000002_Node000003"><a xlink:title=" ">
<path fill="none" stroke="#63b8ff" d="M331.34,-168.62C351.87,-174.31 374.69,-180.63 395.17,-186.31"/>
<polygon fill="#63b8ff" stroke="#63b8ff" points="394.07,-189.91 404.64,-189.21 395.94,-183.17 394.07,-189.91"/>
</a>
</g>
</g>
<!-- Node5 -->
<g id="Node000005" class="node">
<title>Node5</title>
<g id="a_Node000005"><a xlink:href="classsisi4s_1_1Data.html#a10819dce08cb4dd8d881b9fe02036d69" target="_top" xlink:title=" ">
<polygon fill="white" stroke="#666666" points="519.75,-161.75 395.75,-161.75 395.75,-141 519.75,-141 519.75,-161.75"/>
<text text-anchor="middle" x="457.75" y="-148.25" font-family="Helvetica,sans-Serif" font-size="10.00">sisi4s::Data::getName</text>
</a>
</g>
</g>
<!-- Node2&#45;&gt;Node5 -->
<g id="edge4_Node000002_Node000005" class="edge">
<title>Node2&#45;&gt;Node5</title>
<g id="a_edge4_Node000002_Node000005"><a xlink:title=" ">
<path fill="none" stroke="#63b8ff" d="M338.72,-151.38C353.66,-151.38 369.48,-151.38 384.51,-151.38"/>
<polygon fill="#63b8ff" stroke="#63b8ff" points="384.3,-154.88 394.3,-151.38 384.3,-147.88 384.3,-154.88"/>
</a>
</g>
</g>
<!-- Node4 -->
<g id="Node000004" class="node">
<title>Node4</title>
<g id="a_Node000004"><a xlink:href="classsisi4s_1_1Data.html#a5b4676e48b4f437d399587e6903f896a" target="_top" xlink:title=" ">
<polygon fill="white" stroke="#666666" points="661.75,-213.75 567,-213.75 567,-193 661.75,-193 661.75,-213.75"/>
<text text-anchor="middle" x="614.38" y="-200.25" font-family="Helvetica,sans-Serif" font-size="10.00">sisi4s::Data::get</text>
</a>
</g>
</g>
<!-- Node3&#45;&gt;Node4 -->
<g id="edge3_Node000003_Node000004" class="edge">
<title>Node3&#45;&gt;Node4</title>
<g id="a_edge3_Node000003_Node000004"><a xlink:title=" ">
<path fill="none" stroke="#63b8ff" d="M509.81,-203.38C524.53,-203.38 540.7,-203.38 555.79,-203.38"/>
<polygon fill="#63b8ff" stroke="#63b8ff" points="555.55,-206.88 565.55,-203.38 555.55,-199.88 555.55,-206.88"/>
</a>
</g>
</g>
<!-- Node8&#45;&gt;Node3 -->
<g id="edge8_Node000008_Node000003" class="edge">
<title>Node8&#45;&gt;Node3</title>
<g id="a_edge8_Node000008_Node000003"><a xlink:title=" ">
<path fill="none" stroke="#63b8ff" d="M325.67,-239.7C347.56,-233.64 372.68,-226.67 395.04,-220.48"/>
<polygon fill="#63b8ff" stroke="#63b8ff" points="395.73,-223.64 404.43,-217.6 393.86,-216.9 395.73,-223.64"/>
</a>
</g>
</g>
<!-- Node9 -->
<g id="Node000009" class="node">
<title>Node9</title>
<g id="a_Node000009"><a xlink:href="classsisi4s_1_1Data.html#a0ec0b1c7f2356fd43d82ee1dd0246789" target="_top" xlink:title=" ">
<polygon fill="white" stroke="#666666" points="531,-261.75 384.5,-261.75 384.5,-241 531,-241 531,-261.75"/>
<text text-anchor="middle" x="457.75" y="-248.25" font-family="Helvetica,sans-Serif" font-size="10.00">sisi4s::Data::getTypeName</text>
</a>
</g>
</g>
<!-- Node8&#45;&gt;Node9 -->
<g id="edge9_Node000008_Node000009" class="edge">
<title>Node8&#45;&gt;Node9</title>
<g id="a_edge9_Node000008_Node000009"><a xlink:title=" ">
<path fill="none" stroke="#63b8ff" d="M325.67,-254.17C340.81,-253.85 357.49,-253.49 373.73,-253.14"/>
<polygon fill="#63b8ff" stroke="#63b8ff" points="373.4,-256.63 383.32,-252.92 373.25,-249.63 373.4,-256.63"/>
</a>
</g>
</g>
<!-- Node10&#45;&gt;Node3 -->
<g id="edge11_Node000010_Node000003" class="edge">
<title>Node10&#45;&gt;Node3</title>
<g id="a_edge11_Node000010_Node000003"><a xlink:title=" ">
<path fill="none" stroke="#63b8ff" d="M320.39,-203.38C343.35,-203.38 370.62,-203.38 394.72,-203.38"/>
<polygon fill="#63b8ff" stroke="#63b8ff" points="394.54,-206.88 404.54,-203.38 394.54,-199.88 394.54,-206.88"/>
</a>
</g>
</g>
<!-- Node10&#45;&gt;Node9 -->
<g id="edge12_Node000010_Node000009" class="edge">
<title>Node10&#45;&gt;Node9</title>
<g id="a_edge12_Node000010_Node000009"><a xlink:title=" ">
<path fill="none" stroke="#63b8ff" d="M320.39,-216.49C346.33,-223.13 377.78,-231.17 403.93,-237.86"/>
<polygon fill="#63b8ff" stroke="#63b8ff" points="402.85,-241.46 413.41,-240.54 404.59,-234.67 402.85,-241.46"/>
</a>
</g>
</g>
<!-- Node11&#45;&gt;Node11 -->
<g id="edge14_Node000011_Node000011" class="edge">
<title>Node11&#45;&gt;Node11</title>
<g id="a_edge14_Node000011_Node000011"><a xlink:title=" ">
<path fill="none" stroke="#63b8ff" d="M237.57,-21.15C225.35,-29.81 235.53,-38.75 268.12,-38.75 286.97,-38.75 298.32,-35.76 302.18,-31.57"/>
<polygon fill="#63b8ff" stroke="#63b8ff" points="305.19,-30.51 298.68,-22.15 298.55,-32.74 305.19,-30.51"/>
</a>
</g>
</g>
</g>
</svg>
