<?xml version="1.0" encoding="UTF-8" standalone="no"?>
<!DOCTYPE svg PUBLIC "-//W3C//DTD SVG 1.1//EN"
 "http://www.w3.org/Graphics/SVG/1.1/DTD/svg11.dtd">
<!-- Generated by graphviz version 5.0.1 (0)
 -->
<!-- Title: sisi4s::UCcsdIPEquationOfMotionDavidson Pages: 1 -->
<svg width="483pt" height="600pt"
 viewBox="0.00 0.00 483.00 600.00" xmlns="http://www.w3.org/2000/svg" xmlns:xlink="http://www.w3.org/1999/xlink">
<g id="graph0" class="graph" transform="scale(1 1) rotate(0) translate(4 596)">
<title>sisi4s::UCcsdIPEquationOfMotionDavidson</title>
<!-- Node1 -->
<g id="node1" class="node">
<title>Node1</title>
<g id="a_node1"><a xlink:title=" ">
<polygon fill="#999999" stroke="#666666" points="210.5,-118 1.5,-118 1.5,0 210.5,0 210.5,-118"/>
<text text-anchor="start" x="9.5" y="-106" font-family="Helvetica,sans-Serif" font-size="10.00">{sisi4s::UCcsdIPEquationOf</text>
<text text-anchor="middle" x="106" y="-95" font-family="Helvetica,sans-Serif" font-size="10.00">MotionDavidson</text>
<text text-anchor="start" x="9.5" y="-84" font-family="Helvetica,sans-Serif" font-size="10.00">|# DEFAULT_MAX_ITERATIONS</text>
<text text-anchor="start" x="9.5" y="-73" font-family="Helvetica,sans-Serif" font-size="10.00">|+ getName()</text>
<text text-anchor="start" x="9.5" y="-62" font-family="Helvetica,sans-Serif" font-size="10.00">+ UCcsdIPEquationOfMotionDavidson()</text>
<text text-anchor="start" x="9.5" y="-51" font-family="Helvetica,sans-Serif" font-size="10.00">+ ~UCcsdIPEquationOfMotion</text>
<text text-anchor="start" x="9.5" y="-40" font-family="Helvetica,sans-Serif" font-size="10.00">Davidson()</text>
<text text-anchor="start" x="9.5" y="-29" font-family="Helvetica,sans-Serif" font-size="10.00">+ run()</text>
<text text-anchor="start" x="9.5" y="-18" font-family="Helvetica,sans-Serif" font-size="10.00">+ run()</text>
<text text-anchor="middle" x="106" y="-7" font-family="Helvetica,sans-Serif" font-size="10.00">}</text>
</a>
</g>
</g>
<!-- Node2 -->
<g id="node2" class="node">
<title>Node2</title>
<g id="a_node2"><a xlink:href="classsisi4s_1_1Algorithm.html" target="_top" xlink:title=" ">
<polygon fill="white" stroke="#666666" points="180,-371 0,-371 0,-165 180,-165 180,-371"/>
<text text-anchor="middle" x="90" y="-359" font-family="Helvetica,sans-Serif" font-size="10.00">{sisi4s::Algorithm</text>
<text text-anchor="start" x="8" y="-348" font-family="Helvetica,sans-Serif" font-size="10.00">|# arguments</text>
<text text-anchor="start" x="8" y="-337" font-family="Helvetica,sans-Serif" font-size="10.00">|+ Algorithm()</text>
<text text-anchor="start" x="8" y="-326" font-family="Helvetica,sans-Serif" font-size="10.00">+ ~Algorithm()</text>
<text text-anchor="start" x="8" y="-315" font-family="Helvetica,sans-Serif" font-size="10.00">+ getName()</text>
<text text-anchor="start" x="8" y="-304" font-family="Helvetica,sans-Serif" font-size="10.00">+ run()</text>
<text text-anchor="start" x="8" y="-293" font-family="Helvetica,sans-Serif" font-size="10.00">+ dryRun()</text>
<text text-anchor="start" x="8" y="-282" font-family="Helvetica,sans-Serif" font-size="10.00">+ isArgumentGiven()</text>
<text text-anchor="start" x="8" y="-271" font-family="Helvetica,sans-Serif" font-size="10.00">+ getTextArgument()</text>
<text text-anchor="start" x="8" y="-260" font-family="Helvetica,sans-Serif" font-size="10.00">+ getTextArgument()</text>
<text text-anchor="start" x="8" y="-249" font-family="Helvetica,sans-Serif" font-size="10.00">+ getBooleanArgument()</text>
<text text-anchor="start" x="8" y="-238" font-family="Helvetica,sans-Serif" font-size="10.00">+ getBooleanArgument()</text>
<text text-anchor="start" x="8" y="-227" font-family="Helvetica,sans-Serif" font-size="10.00">and 12 more...</text>
<text text-anchor="start" x="8" y="-216" font-family="Helvetica,sans-Serif" font-size="10.00"># getRealArgumentFromInteger()</text>
<text text-anchor="start" x="8" y="-205" font-family="Helvetica,sans-Serif" font-size="10.00"># getRealArgumentFromTensor()</text>
<text text-anchor="start" x="8" y="-194" font-family="Helvetica,sans-Serif" font-size="10.00"># getTensorArgumentFromReal()</text>
<text text-anchor="start" x="8" y="-183" font-family="Helvetica,sans-Serif" font-size="10.00"># getArgumentData()</text>
<text text-anchor="middle" x="90" y="-172" font-family="Helvetica,sans-Serif" font-size="10.00">}</text>
</a>
</g>
</g>
<!-- Node2&#45;&gt;Node1 -->
<g id="edge1" class="edge">
<title>Node2&#45;&gt;Node1</title>
<path fill="none" stroke="#63b8ff" d="M98.69,-154.6C99.66,-142.02 100.62,-129.62 101.51,-118.15"/>
<polygon fill="none" stroke="#63b8ff" points="95.19,-154.47 97.91,-164.71 102.17,-155.01 95.19,-154.47"/>
</g>
<!-- Node3 -->
<g id="node3" class="node">
<title>Node3</title>
<g id="a_node3"><a xlink:href="classsisi4s_1_1AlgorithmRegistrar.html" target="_top" xlink:title=" ">
<polygon fill="white" stroke="#666666" points="387.5,-299.5 198.5,-299.5 198.5,-236.5 387.5,-236.5 387.5,-299.5"/>
<text text-anchor="start" x="206.5" y="-287.5" font-family="Helvetica,sans-Serif" font-size="10.00">{sisi4s::AlgorithmRegistrar</text>
<text text-anchor="start" x="206.5" y="-276.5" font-family="Helvetica,sans-Serif" font-size="10.00">&lt; sisi4s::UCcsdIPEquationOfMotion</text>
<text text-anchor="middle" x="293" y="-265.5" font-family="Helvetica,sans-Serif" font-size="10.00">Davidson &gt;</text>
<text text-anchor="start" x="206.5" y="-254.5" font-family="Helvetica,sans-Serif" font-size="10.00">||+ AlgorithmRegistrar()</text>
<text text-anchor="middle" x="293" y="-243.5" font-family="Helvetica,sans-Serif" font-size="10.00">}</text>
</a>
</g>
</g>
<!-- Node3&#45;&gt;Node1 -->
<g id="edge2" class="edge">
<title>Node3&#45;&gt;Node1</title>
<path fill="none" stroke="#404040" d="M265.41,-236.46C239.56,-207.84 200.03,-164.09 166.81,-127.31"/>
<polygon fill="none" stroke="#404040" points="166.55,-127.03 159.56,-125.26 158.51,-118.13 165.5,-119.9 166.55,-127.03"/>
<text text-anchor="middle" x="212" y="-139" font-family="Helvetica,sans-Serif" font-size="10.00"> +registrar_</text>
</g>
<!-- Node4 -->
<g id="node4" class="node">
<title>Node4</title>
<g id="a_node4"><a xlink:href="classsisi4s_1_1AlgorithmFactory.html" target="_top" xlink:title=" ">
<polygon fill="white" stroke="#666666" points="341,-592 201,-592 201,-518 341,-518 341,-592"/>
<text text-anchor="middle" x="271" y="-580" font-family="Helvetica,sans-Serif" font-size="10.00">{sisi4s::AlgorithmFactory</text>
<text text-anchor="start" x="209" y="-569" font-family="Helvetica,sans-Serif" font-size="10.00">|# algorithmMap</text>
<text text-anchor="start" x="209" y="-558" font-family="Helvetica,sans-Serif" font-size="10.00">|+ create()</text>
<text text-anchor="start" x="209" y="-547" font-family="Helvetica,sans-Serif" font-size="10.00">+ getAlgorithmNames()</text>
<text text-anchor="start" x="209" y="-536" font-family="Helvetica,sans-Serif" font-size="10.00"># getAlgorithmMap()</text>
<text text-anchor="middle" x="271" y="-525" font-family="Helvetica,sans-Serif" font-size="10.00">}</text>
</a>
</g>
</g>
<!-- Node4&#45;&gt;Node3 -->
<g id="edge3" class="edge">
<title>Node4&#45;&gt;Node3</title>
<path fill="none" stroke="darkgreen" d="M273.17,-507.79C274.39,-484.2 276.05,-455.06 278,-429 281.37,-383.93 286.48,-331.83 289.78,-299.64"/>
<polygon fill="none" stroke="darkgreen" points="269.67,-507.71 272.66,-517.87 276.66,-508.06 269.67,-507.71"/>
</g>
<!-- Node5 -->
<g id="node5" class="node">
<title>Node5</title>
<g id="a_node5"><a xlink:href="classsisi4s_1_1AlgorithmRegistrar.html" target="_top" xlink:title="Class to be statically instantiated by an algorithm to register it in the AlgorithmFactory....">
<polygon fill="white" stroke="#666666" points="435.5,-481 286.5,-481 286.5,-429 435.5,-429 435.5,-481"/>
<text text-anchor="start" x="294.5" y="-469" font-family="Helvetica,sans-Serif" font-size="10.00">{sisi4s::AlgorithmRegistrar</text>
<text text-anchor="middle" x="361" y="-458" font-family="Helvetica,sans-Serif" font-size="10.00">&lt; AlgorithmType &gt;</text>
<text text-anchor="start" x="294.5" y="-447" font-family="Helvetica,sans-Serif" font-size="10.00">||+ AlgorithmRegistrar()</text>
<text text-anchor="middle" x="361" y="-436" font-family="Helvetica,sans-Serif" font-size="10.00">}</text>
</a>
</g>
</g>
<!-- Node4&#45;&gt;Node5 -->
<g id="edge5" class="edge">
<title>Node4&#45;&gt;Node5</title>
<path fill="none" stroke="darkgreen" d="M311.2,-510.23C320.37,-500.24 329.82,-489.95 337.98,-481.06"/>
<polygon fill="none" stroke="darkgreen" points="308.44,-508.05 304.26,-517.79 313.6,-512.79 308.44,-508.05"/>
</g>
<!-- Node5&#45;&gt;Node3 -->
<g id="edge4" class="edge">
<title>Node5&#45;&gt;Node3</title>
<path fill="none" stroke="orange" d="M348.14,-419.01C335.47,-384.54 316.31,-332.41 304.23,-299.56"/>
<polygon fill="orange" stroke="orange" points="344.95,-420.49 351.69,-428.66 351.52,-418.07 344.95,-420.49"/>
<text text-anchor="start" x="344" y="-403" font-family="Helvetica,sans-Serif" font-size="10.00"> &lt; sisi4s::UCcsdIPEquation</text>
<text text-anchor="middle" x="409.5" y="-392" font-family="Helvetica,sans-Serif" font-size="10.00">OfMotionDavidson &gt;</text>
</g>
</g>
</svg>
