<?xml version="1.0" encoding="UTF-8" standalone="no"?>
<!DOCTYPE svg PUBLIC "-//W3C//DTD SVG 1.1//EN"
 "http://www.w3.org/Graphics/SVG/1.1/DTD/svg11.dtd">
<!-- Generated by graphviz version 8.1.0 (0)
 -->
<!-- Title: ghc::filesystem::path::append Pages: 1 -->
<svg width="456pt" height="146pt"
 viewBox="0.00 0.00 455.75 145.50" xmlns="http://www.w3.org/2000/svg" xmlns:xlink="http://www.w3.org/1999/xlink">
<g id="graph0" class="graph" transform="scale(1 1) rotate(0) translate(4 141.5)">
<title>ghc::filesystem::path::append</title>
<!-- Node1 -->
<g id="Node000001" class="node">
<title>Node1</title>
<g id="a_Node000001"><a xlink:title=" ">
<polygon fill="#999999" stroke="#666666" points="447.75,-85.5 329.75,-85.5 329.75,-52 447.75,-52 447.75,-85.5"/>
<text text-anchor="start" x="337.75" y="-72" font-family="Helvetica,sans-Serif" font-size="10.00">ghc::filesystem::path</text>
<text text-anchor="middle" x="388.75" y="-59.25" font-family="Helvetica,sans-Serif" font-size="10.00">::append</text>
</a>
</g>
</g>
<!-- Node2 -->
<g id="Node000002" class="node">
<title>Node2</title>
<g id="a_Node000002"><a xlink:href="classghc_1_1filesystem_1_1path.html#ac18cfd247ec398479e00ca2f391b96c9" target="_top" xlink:title=" ">
<polygon fill="white" stroke="#666666" points="293.75,-137.5 175.75,-137.5 175.75,-104 293.75,-104 293.75,-137.5"/>
<text text-anchor="start" x="183.75" y="-124" font-family="Helvetica,sans-Serif" font-size="10.00">ghc::filesystem::path</text>
<text text-anchor="middle" x="234.75" y="-111.25" font-family="Helvetica,sans-Serif" font-size="10.00">::append</text>
</a>
</g>
</g>
<!-- Node1&#45;&gt;Node2 -->
<g id="edge1_Node000001_Node000002" class="edge">
<title>Node1&#45;&gt;Node2</title>
<g id="a_edge1_Node000001_Node000002"><a xlink:title=" ">
<path fill="none" stroke="#63b8ff" d="M327.3,-89.43C313.66,-94.1 299.32,-99 286.15,-103.51"/>
<polygon fill="#63b8ff" stroke="#63b8ff" points="328.23,-92.47 336.56,-85.92 325.96,-85.85 328.23,-92.47"/>
</a>
</g>
</g>
<!-- Node3 -->
<g id="Node000003" class="node">
<title>Node3</title>
<g id="a_Node000003"><a xlink:href="classghc_1_1filesystem_1_1path.html#a17f5318b66b012b6029be904ab31dbb6" target="_top" xlink:title=" ">
<polygon fill="white" stroke="#666666" points="293.75,-85.5 175.75,-85.5 175.75,-52 293.75,-52 293.75,-85.5"/>
<text text-anchor="start" x="183.75" y="-72" font-family="Helvetica,sans-Serif" font-size="10.00">ghc::filesystem::path</text>
<text text-anchor="middle" x="234.75" y="-59.25" font-family="Helvetica,sans-Serif" font-size="10.00">::operator/=</text>
</a>
</g>
</g>
<!-- Node1&#45;&gt;Node3 -->
<g id="edge2_Node000001_Node000003" class="edge">
<title>Node1&#45;&gt;Node3</title>
<g id="a_edge2_Node000001_Node000003"><a xlink:title=" ">
<path fill="none" stroke="#63b8ff" d="M318.45,-68.75C310.34,-68.75 302.12,-68.75 294.18,-68.75"/>
<polygon fill="#63b8ff" stroke="#63b8ff" points="318.42,-72.25 328.42,-68.75 318.42,-65.25 318.42,-72.25"/>
</a>
</g>
</g>
<!-- Node4 -->
<g id="Node000004" class="node">
<title>Node4</title>
<g id="a_Node000004"><a xlink:href="classghc_1_1filesystem_1_1path.html#afd229f3954e0cb7c6699748de02bee60" target="_top" xlink:title=" ">
<polygon fill="white" stroke="#666666" points="293.75,-33.5 175.75,-33.5 175.75,0 293.75,0 293.75,-33.5"/>
<text text-anchor="start" x="183.75" y="-20" font-family="Helvetica,sans-Serif" font-size="10.00">ghc::filesystem::path</text>
<text text-anchor="middle" x="234.75" y="-7.25" font-family="Helvetica,sans-Serif" font-size="10.00">::replace_filename</text>
</a>
</g>
</g>
<!-- Node1&#45;&gt;Node4 -->
<g id="edge3_Node000001_Node000004" class="edge">
<title>Node1&#45;&gt;Node4</title>
<g id="a_edge3_Node000001_Node000004"><a xlink:title=" ">
<path fill="none" stroke="#63b8ff" d="M327.3,-48.07C313.66,-43.4 299.32,-38.5 286.15,-33.99"/>
<polygon fill="#63b8ff" stroke="#63b8ff" points="325.96,-51.65 336.56,-51.58 328.23,-45.03 325.96,-51.65"/>
</a>
</g>
</g>
<!-- Node5 -->
<g id="Node000005" class="node">
<title>Node5</title>
<g id="a_Node000005"><a xlink:href="classghc_1_1filesystem_1_1directory__entry.html#a05e2035adac4a0a7e414a22bac702e98" target="_top" xlink:title=" ">
<polygon fill="white" stroke="#666666" points="139.75,-33.5 0,-33.5 0,0 139.75,0 139.75,-33.5"/>
<text text-anchor="start" x="8" y="-20" font-family="Helvetica,sans-Serif" font-size="10.00">ghc::filesystem::directory</text>
<text text-anchor="middle" x="69.88" y="-7.25" font-family="Helvetica,sans-Serif" font-size="10.00">_entry::replace_filename</text>
</a>
</g>
</g>
<!-- Node4&#45;&gt;Node5 -->
<g id="edge4_Node000004_Node000005" class="edge">
<title>Node4&#45;&gt;Node5</title>
<g id="a_edge4_Node000004_Node000005"><a xlink:title=" ">
<path fill="none" stroke="#63b8ff" d="M164.55,-16.75C156.49,-16.75 148.26,-16.75 140.2,-16.75"/>
<polygon fill="#63b8ff" stroke="#63b8ff" points="164.41,-20.25 174.41,-16.75 164.41,-13.25 164.41,-20.25"/>
</a>
</g>
</g>
</g>
</svg>
