<?xml version="1.0" encoding="UTF-8" standalone="no"?>
<!DOCTYPE svg PUBLIC "-//W3C//DTD SVG 1.1//EN"
 "http://www.w3.org/Graphics/SVG/1.1/DTD/svg11.dtd">
<!-- Generated by graphviz version 8.1.0 (0)
 -->
<!-- Title: sisi4s::TensorWriter::write Pages: 1 -->
<svg width="572pt" height="80pt"
 viewBox="0.00 0.00 572.25 80.12" xmlns="http://www.w3.org/2000/svg" xmlns:xlink="http://www.w3.org/1999/xlink">
<g id="graph0" class="graph" transform="scale(1 1) rotate(0) translate(4 76.12)">
<title>sisi4s::TensorWriter::write</title>
<!-- Node1 -->
<g id="Node000001" class="node">
<title>Node1</title>
<g id="a_Node000001"><a xlink:title=" ">
<polygon fill="#999999" stroke="#666666" points="111.25,-49.12 0,-49.12 0,-15.62 111.25,-15.62 111.25,-49.12"/>
<text text-anchor="start" x="8" y="-35.62" font-family="Helvetica,sans-Serif" font-size="10.00">sisi4s::TensorWriter</text>
<text text-anchor="middle" x="55.62" y="-22.88" font-family="Helvetica,sans-Serif" font-size="10.00">::write</text>
</a>
</g>
</g>
<!-- Node2 -->
<g id="Node000002" class="node">
<title>Node2</title>
<g id="a_Node000002"><a xlink:href="classsisi4s_1_1Algorithm.html#a5e80a507fac066ab5714b62364cabaaf" target="_top" xlink:title=" ">
<polygon fill="white" stroke="#666666" points="251,-49.12 147.25,-49.12 147.25,-15.62 251,-15.62 251,-49.12"/>
<text text-anchor="start" x="155.25" y="-35.62" font-family="Helvetica,sans-Serif" font-size="10.00">sisi4s::Algorithm::</text>
<text text-anchor="middle" x="199.12" y="-22.88" font-family="Helvetica,sans-Serif" font-size="10.00">getTextArgument</text>
</a>
</g>
</g>
<!-- Node1&#45;&gt;Node2 -->
<g id="edge1_Node000001_Node000002" class="edge">
<title>Node1&#45;&gt;Node2</title>
<g id="a_edge1_Node000001_Node000002"><a xlink:title=" ">
<path fill="none" stroke="#63b8ff" d="M111.74,-32.38C119.74,-32.38 128.02,-32.38 136.15,-32.38"/>
<polygon fill="#63b8ff" stroke="#63b8ff" points="136.09,-35.88 146.09,-32.38 136.09,-28.88 136.09,-35.88"/>
</a>
</g>
</g>
<!-- Node3 -->
<g id="Node000003" class="node">
<title>Node3</title>
<g id="a_Node000003"><a xlink:href="classsisi4s_1_1Algorithm.html#a1e53277220d32a33e20846267c253652" target="_top" xlink:title=" ">
<polygon fill="white" stroke="#666666" points="412.12,-72.12 308.38,-72.12 308.38,-38.62 412.12,-38.62 412.12,-72.12"/>
<text text-anchor="start" x="316.38" y="-58.62" font-family="Helvetica,sans-Serif" font-size="10.00">sisi4s::Algorithm::</text>
<text text-anchor="middle" x="360.25" y="-45.88" font-family="Helvetica,sans-Serif" font-size="10.00">getArgumentData</text>
</a>
</g>
</g>
<!-- Node2&#45;&gt;Node3 -->
<g id="edge2_Node000002_Node000003" class="edge">
<title>Node2&#45;&gt;Node3</title>
<g id="a_edge2_Node000002_Node000003"><a xlink:title=" ">
<path fill="none" stroke="#63b8ff" d="M251.35,-39.78C265.97,-41.89 282.06,-44.22 297.25,-46.41"/>
<polygon fill="#63b8ff" stroke="#63b8ff" points="296.72,-50.02 307.12,-47.98 297.73,-43.09 296.72,-50.02"/>
</a>
</g>
</g>
<!-- Node5 -->
<g id="Node000005" class="node">
<title>Node5</title>
<g id="a_Node000005"><a xlink:href="classsisi4s_1_1Data.html#a0ec0b1c7f2356fd43d82ee1dd0246789" target="_top" xlink:title=" ">
<polygon fill="white" stroke="#666666" points="433.5,-20.75 287,-20.75 287,0 433.5,0 433.5,-20.75"/>
<text text-anchor="middle" x="360.25" y="-7.25" font-family="Helvetica,sans-Serif" font-size="10.00">sisi4s::Data::getTypeName</text>
</a>
</g>
</g>
<!-- Node2&#45;&gt;Node5 -->
<g id="edge4_Node000002_Node000005" class="edge">
<title>Node2&#45;&gt;Node5</title>
<g id="a_edge4_Node000002_Node000005"><a xlink:title=" ">
<path fill="none" stroke="#63b8ff" d="M251.35,-25.29C259.27,-24.2 267.62,-23.04 276.03,-21.88"/>
<polygon fill="#63b8ff" stroke="#63b8ff" points="276.25,-25.24 285.68,-20.41 275.29,-18.31 276.25,-25.24"/>
</a>
</g>
</g>
<!-- Node4 -->
<g id="Node000004" class="node">
<title>Node4</title>
<g id="a_Node000004"><a xlink:href="classsisi4s_1_1Data.html#a5b4676e48b4f437d399587e6903f896a" target="_top" xlink:title=" ">
<polygon fill="white" stroke="#666666" points="564.25,-65.75 469.5,-65.75 469.5,-45 564.25,-45 564.25,-65.75"/>
<text text-anchor="middle" x="516.88" y="-52.25" font-family="Helvetica,sans-Serif" font-size="10.00">sisi4s::Data::get</text>
</a>
</g>
</g>
<!-- Node3&#45;&gt;Node4 -->
<g id="edge3_Node000003_Node000004" class="edge">
<title>Node3&#45;&gt;Node4</title>
<g id="a_edge3_Node000003_Node000004"><a xlink:title=" ">
<path fill="none" stroke="#63b8ff" d="M412.31,-55.38C427.03,-55.38 443.2,-55.38 458.29,-55.38"/>
<polygon fill="#63b8ff" stroke="#63b8ff" points="458.05,-58.88 468.05,-55.38 458.05,-51.88 458.05,-58.88"/>
</a>
</g>
</g>
</g>
</svg>
