<?xml version="1.0" encoding="UTF-8" standalone="no"?>
<!DOCTYPE svg PUBLIC "-//W3C//DTD SVG 1.1//EN"
 "http://www.w3.org/Graphics/SVG/1.1/DTD/svg11.dtd">
<!-- Generated by graphviz version 8.1.0 (0)
 -->
<!-- Title: sisi4s::DryTensor::DryTensor Pages: 1 -->
<svg width="402pt" height="94pt"
 viewBox="0.00 0.00 401.75 93.50" xmlns="http://www.w3.org/2000/svg" xmlns:xlink="http://www.w3.org/1999/xlink">
<g id="graph0" class="graph" transform="scale(1 1) rotate(0) translate(4 89.5)">
<title>sisi4s::DryTensor::DryTensor</title>
<!-- Node1 -->
<g id="Node000001" class="node">
<title>Node1</title>
<g id="a_Node000001"><a xlink:title=" ">
<polygon fill="#999999" stroke="#666666" points="104.5,-59.5 0,-59.5 0,-26 104.5,-26 104.5,-59.5"/>
<text text-anchor="start" x="8" y="-46" font-family="Helvetica,sans-Serif" font-size="10.00">sisi4s::DryTensor::</text>
<text text-anchor="middle" x="52.25" y="-33.25" font-family="Helvetica,sans-Serif" font-size="10.00">DryTensor</text>
</a>
</g>
</g>
<!-- Node2 -->
<g id="Node000002" class="node">
<title>Node2</title>
<g id="a_Node000002"><a xlink:href="classsisi4s_1_1DryTensor.html#a4b868527a168b83fbf8bd4812e44a231" target="_top" xlink:title=" ">
<polygon fill="white" stroke="#666666" points="245,-59.5 140.5,-59.5 140.5,-26 245,-26 245,-59.5"/>
<text text-anchor="start" x="148.5" y="-46" font-family="Helvetica,sans-Serif" font-size="10.00">sisi4s::DryTensor::</text>
<text text-anchor="middle" x="192.75" y="-33.25" font-family="Helvetica,sans-Serif" font-size="10.00">allocate</text>
</a>
</g>
</g>
<!-- Node1&#45;&gt;Node2 -->
<g id="edge1_Node000001_Node000002" class="edge">
<title>Node1&#45;&gt;Node2</title>
<g id="a_edge1_Node000001_Node000002"><a xlink:title=" ">
<path fill="none" stroke="#63b8ff" d="M104.82,-42.75C112.75,-42.75 121.02,-42.75 129.16,-42.75"/>
<polygon fill="#63b8ff" stroke="#63b8ff" points="129.13,-46.25 139.13,-42.75 129.13,-39.25 129.13,-46.25"/>
</a>
</g>
</g>
<!-- Node3 -->
<g id="Node000003" class="node">
<title>Node3</title>
<g id="a_Node000003"><a xlink:href="classsisi4s_1_1DryMemory.html#ab32a05472211ce52d6078ec3d13b3144" target="_top" xlink:title=" ">
<polygon fill="white" stroke="#666666" points="393.75,-85.5 281,-85.5 281,-52 393.75,-52 393.75,-85.5"/>
<text text-anchor="start" x="289" y="-72" font-family="Helvetica,sans-Serif" font-size="10.00">sisi4s::DryMemory::</text>
<text text-anchor="middle" x="337.38" y="-59.25" font-family="Helvetica,sans-Serif" font-size="10.00">allocate</text>
</a>
</g>
</g>
<!-- Node2&#45;&gt;Node3 -->
<g id="edge2_Node000002_Node000003" class="edge">
<title>Node2&#45;&gt;Node3</title>
<g id="a_edge2_Node000002_Node000003"><a xlink:title=" ">
<path fill="none" stroke="#63b8ff" d="M245.24,-52.14C253.23,-53.59 261.58,-55.12 269.84,-56.62"/>
<polygon fill="#63b8ff" stroke="#63b8ff" points="269.15,-60.24 279.62,-58.59 270.41,-53.35 269.15,-60.24"/>
</a>
</g>
</g>
<!-- Node4 -->
<g id="Node000004" class="node">
<title>Node4</title>
<g id="a_Node000004"><a xlink:href="classsisi4s_1_1DryTensor.html#a1a2f6c0db46f964635cfa2ec425aa089" target="_top" xlink:title=" ">
<polygon fill="white" stroke="#666666" points="390.38,-33.5 284.38,-33.5 284.38,0 390.38,0 390.38,-33.5"/>
<text text-anchor="start" x="292.38" y="-20" font-family="Helvetica,sans-Serif" font-size="10.00">sisi4s::DryTensor::</text>
<text text-anchor="middle" x="337.38" y="-7.25" font-family="Helvetica,sans-Serif" font-size="10.00">getElementsCount</text>
</a>
</g>
</g>
<!-- Node2&#45;&gt;Node4 -->
<g id="edge3_Node000002_Node000004" class="edge">
<title>Node2&#45;&gt;Node4</title>
<g id="a_edge3_Node000002_Node000004"><a xlink:title=" ">
<path fill="none" stroke="#63b8ff" d="M245.24,-33.36C254.4,-31.69 264.03,-29.94 273.47,-28.22"/>
<polygon fill="#63b8ff" stroke="#63b8ff" points="273.79,-31.53 283,-26.3 272.54,-24.65 273.79,-31.53"/>
</a>
</g>
</g>
</g>
</svg>
