<?xml version="1.0" encoding="UTF-8" standalone="no"?>
<!DOCTYPE svg PUBLIC "-//W3C//DTD SVG 1.1//EN"
 "http://www.w3.org/Graphics/SVG/1.1/DTD/svg11.dtd">
<!-- Generated by graphviz version 9.0.0 (0)
 -->
<!-- Title: sisi4s::FiniteSizeCorrection::IsInSmallBZ Pages: 1 -->
<svg width="364pt" height="68pt"
 viewBox="0.00 0.00 364.25 67.75" xmlns="http://www.w3.org/2000/svg" xmlns:xlink="http://www.w3.org/1999/xlink">
<g id="graph0" class="graph" transform="scale(1 1) rotate(0) translate(4 63.75)">
<title>sisi4s::FiniteSizeCorrection::IsInSmallBZ</title>
<!-- Node1 -->
<g id="Node000001" class="node">
<title>Node1</title>
<g id="a_Node000001"><a xlink:title=" ">
<polygon fill="#999999" stroke="#666666" points="147.25,-46.12 0,-46.12 0,-12.62 147.25,-12.62 147.25,-46.12"/>
<text text-anchor="start" x="8" y="-32.62" font-family="Helvetica,sans-Serif" font-size="10.00">sisi4s::FiniteSizeCorrection</text>
<text text-anchor="middle" x="73.62" y="-19.88" font-family="Helvetica,sans-Serif" font-size="10.00">::IsInSmallBZ</text>
</a>
</g>
</g>
<!-- Node2 -->
<g id="Node000002" class="node">
<title>Node2</title>
<g id="a_Node000002"><a xlink:href="namespacesisi4s.html#ab4577a58307bc686ea6f58bc3d0249d3" target="_top" xlink:title=" ">
<polygon fill="white" stroke="#666666" points="250.25,-59.75 183.25,-59.75 183.25,-39 250.25,-39 250.25,-59.75"/>
<text text-anchor="middle" x="216.75" y="-46.25" font-family="Helvetica,sans-Serif" font-size="10.00">sisi4s::abs</text>
</a>
</g>
</g>
<!-- Node1&#45;&gt;Node2 -->
<g id="edge1_Node000001_Node000002" class="edge">
<title>Node1&#45;&gt;Node2</title>
<g id="a_edge1_Node000001_Node000002"><a xlink:title=" ">
<path fill="none" stroke="#63b8ff" d="M147.67,-39.73C155.89,-40.89 164.06,-42.05 171.74,-43.14"/>
<polygon fill="#63b8ff" stroke="#63b8ff" points="171.07,-46.58 181.46,-44.52 172.05,-39.65 171.07,-46.58"/>
</a>
</g>
</g>
<!-- Node3 -->
<g id="Node000003" class="node">
<title>Node3</title>
<g id="a_Node000003"><a xlink:href="namespacesisi4s.html#a92d239b67d4a13717f4e7f93ad9591f2" target="_top" xlink:title=" ">
<polygon fill="white" stroke="#666666" points="249.5,-20.75 184,-20.75 184,0 249.5,0 249.5,-20.75"/>
<text text-anchor="middle" x="216.75" y="-7.25" font-family="Helvetica,sans-Serif" font-size="10.00">sisi4s::dot</text>
</a>
</g>
</g>
<!-- Node1&#45;&gt;Node3 -->
<g id="edge2_Node000001_Node000003" class="edge">
<title>Node1&#45;&gt;Node3</title>
<g id="a_edge2_Node000001_Node000003"><a xlink:title=" ">
<path fill="none" stroke="#63b8ff" d="M147.67,-19.54C156.16,-18.4 164.61,-17.26 172.52,-16.2"/>
<polygon fill="#63b8ff" stroke="#63b8ff" points="172.71,-19.7 182.15,-14.9 171.78,-12.76 172.71,-19.7"/>
</a>
</g>
</g>
<!-- Node4 -->
<g id="Node000004" class="node">
<title>Node4</title>
<g id="a_Node000004"><a xlink:href="namespacesisi4s.html#abc3ea35f1434b9c5021b9195449d1f9b" target="_top" xlink:title=" ">
<polygon fill="white" stroke="#666666" points="356.25,-20.75 286.25,-20.75 286.25,0 356.25,0 356.25,-20.75"/>
<text text-anchor="middle" x="321.25" y="-7.25" font-family="Helvetica,sans-Serif" font-size="10.00">sisi4s::conj</text>
</a>
</g>
</g>
<!-- Node3&#45;&gt;Node4 -->
<g id="edge3_Node000003_Node000004" class="edge">
<title>Node3&#45;&gt;Node4</title>
<g id="a_edge3_Node000003_Node000004"><a xlink:title=" ">
<path fill="none" stroke="#63b8ff" d="M249.9,-10.38C257.81,-10.38 266.43,-10.38 274.84,-10.38"/>
<polygon fill="#63b8ff" stroke="#63b8ff" points="274.57,-13.88 284.57,-10.38 274.57,-6.88 274.57,-13.88"/>
</a>
</g>
</g>
</g>
</svg>
