<?xml version="1.0" encoding="UTF-8" standalone="no"?>
<!DOCTYPE svg PUBLIC "-//W3C//DTD SVG 1.1//EN"
 "http://www.w3.org/Graphics/SVG/1.1/DTD/svg11.dtd">
<!-- Generated by graphviz version 7.0.0 (0)
 -->
<!-- Title: ghc::filesystem::path::c_str Pages: 1 -->
<svg width="1006pt" height="1155pt"
 viewBox="0.00 0.00 1006.00 1155.11" xmlns="http://www.w3.org/2000/svg" xmlns:xlink="http://www.w3.org/1999/xlink">
<g id="graph0" class="graph" transform="scale(1 1) rotate(0) translate(4 1151.11)">
<title>ghc::filesystem::path::c_str</title>
<!-- Node1 -->
<g id="node1" class="node">
<title>Node1</title>
<g id="a_node1"><a xlink:title=" ">
<polygon fill="#999999" stroke="#666666" points="998,-470.27 879,-470.27 879,-440.27 998,-440.27 998,-470.27"/>
<text text-anchor="start" x="887" y="-458.27" font-family="Helvetica,sans-Serif" font-size="10.00">ghc::filesystem::path</text>
<text text-anchor="middle" x="938.5" y="-447.27" font-family="Helvetica,sans-Serif" font-size="10.00">::c_str</text>
</a>
</g>
</g>
<!-- Node2 -->
<g id="node2" class="node">
<title>Node2</title>
<g id="a_node2"><a xlink:href="namespaceghc_1_1filesystem_1_1detail.html#acc49bbe9554d80e5f6ddcef0d81b6622" target="_top" xlink:title=" ">
<polygon fill="white" stroke="#666666" points="843,-100.27 718,-100.27 718,-70.27 843,-70.27 843,-100.27"/>
<text text-anchor="start" x="726" y="-88.27" font-family="Helvetica,sans-Serif" font-size="10.00">ghc::filesystem::detail</text>
<text text-anchor="middle" x="780.5" y="-77.27" font-family="Helvetica,sans-Serif" font-size="10.00">::create_hardlink</text>
</a>
</g>
</g>
<!-- Node1&#45;&gt;Node2 -->
<g id="edge1" class="edge">
<title>Node1&#45;&gt;Node2</title>
<path fill="none" stroke="#63b8ff" d="M933.73,-428.48C924.96,-372.74 899.5,-241.63 843,-147.27 832.1,-129.06 814.73,-112.22 801.22,-100.71"/>
<polygon fill="#63b8ff" stroke="#63b8ff" points="930.25,-428.92 935.21,-438.29 937.17,-427.88 930.25,-428.92"/>
</g>
<!-- Node5 -->
<g id="node5" class="node">
<title>Node5</title>
<g id="a_node5"><a xlink:href="namespaceghc_1_1filesystem_1_1detail.html#a894ad225d79646d9008807afab031b83" target="_top" xlink:title=" ">
<polygon fill="white" stroke="#666666" points="676.5,-1082.27 551.5,-1082.27 551.5,-1052.27 676.5,-1052.27 676.5,-1082.27"/>
<text text-anchor="start" x="559.5" y="-1070.27" font-family="Helvetica,sans-Serif" font-size="10.00">ghc::filesystem::detail</text>
<text text-anchor="middle" x="614" y="-1059.27" font-family="Helvetica,sans-Serif" font-size="10.00">::create_symlink</text>
</a>
</g>
</g>
<!-- Node1&#45;&gt;Node5 -->
<g id="edge4" class="edge">
<title>Node1&#45;&gt;Node5</title>
<path fill="none" stroke="#63b8ff" d="M928.56,-481.39C913.16,-525.41 879.7,-616.78 843,-690.27 769.87,-836.71 659.68,-1001.77 625.49,-1051.98"/>
<polygon fill="#63b8ff" stroke="#63b8ff" points="931.78,-482.79 931.75,-472.19 925.17,-480.49 931.78,-482.79"/>
</g>
<!-- Node9 -->
<g id="node9" class="node">
<title>Node9</title>
<g id="a_node9"><a xlink:href="namespaceghc_1_1filesystem.html#a207525516cd985b88413c1827ebf573e" target="_top" xlink:title=" ">
<polygon fill="white" stroke="#666666" points="510,-48.77 354,-48.77 354,-29.77 510,-29.77 510,-48.77"/>
<text text-anchor="middle" x="432" y="-36.77" font-family="Helvetica,sans-Serif" font-size="10.00">ghc::filesystem::permissions</text>
</a>
</g>
</g>
<!-- Node1&#45;&gt;Node9 -->
<g id="edge11" class="edge">
<title>Node1&#45;&gt;Node9</title>
<path fill="none" stroke="#63b8ff" d="M931.48,-428.93C920.46,-385.78 893.41,-299.34 843,-244.27 728.54,-119.22 667.7,-120.46 510,-58.27 501.03,-54.73 491.21,-51.71 481.68,-49.18"/>
<polygon fill="#63b8ff" stroke="#63b8ff" points="928.02,-429.54 933.8,-438.42 934.82,-427.87 928.02,-429.54"/>
</g>
<!-- Node10 -->
<g id="node10" class="node">
<title>Node10</title>
<g id="a_node10"><a xlink:href="namespaceghc_1_1filesystem_1_1detail.html#a25d9339be66e8445b643517fecdfbbd7" target="_top" xlink:title=" ">
<polygon fill="white" stroke="#666666" points="843,-681.27 718,-681.27 718,-651.27 843,-651.27 843,-681.27"/>
<text text-anchor="start" x="726" y="-669.27" font-family="Helvetica,sans-Serif" font-size="10.00">ghc::filesystem::detail</text>
<text text-anchor="middle" x="780.5" y="-658.27" font-family="Helvetica,sans-Serif" font-size="10.00">::resolveSymlink</text>
</a>
</g>
</g>
<!-- Node1&#45;&gt;Node10 -->
<g id="edge12" class="edge">
<title>Node1&#45;&gt;Node10</title>
<path fill="none" stroke="#63b8ff" d="M919.56,-479.54C887.13,-523.4 819.63,-614.69 792.83,-650.95"/>
<polygon fill="#63b8ff" stroke="#63b8ff" points="922.25,-481.78 925.38,-471.66 916.62,-477.62 922.25,-481.78"/>
</g>
<!-- Node12 -->
<g id="node12" class="node">
<title>Node12</title>
<g id="a_node12"><a xlink:href="namespaceghc_1_1filesystem_1_1detail.html#a94bff40b1f870262e0993c747311451c" target="_top" xlink:title=" ">
<polygon fill="white" stroke="#666666" points="676.5,-681.27 551.5,-681.27 551.5,-651.27 676.5,-651.27 676.5,-681.27"/>
<text text-anchor="start" x="559.5" y="-669.27" font-family="Helvetica,sans-Serif" font-size="10.00">ghc::filesystem::detail</text>
<text text-anchor="middle" x="614" y="-658.27" font-family="Helvetica,sans-Serif" font-size="10.00">::status_ex</text>
</a>
</g>
</g>
<!-- Node1&#45;&gt;Node12 -->
<g id="edge43" class="edge">
<title>Node1&#45;&gt;Node12</title>
<path fill="none" stroke="#63b8ff" d="M904.65,-476.76C839.41,-519.45 694.94,-613.97 638.37,-650.98"/>
<polygon fill="#63b8ff" stroke="#63b8ff" points="906.33,-479.85 912.78,-471.44 902.5,-473.99 906.33,-479.85"/>
</g>
<!-- Node35 -->
<g id="node35" class="node">
<title>Node35</title>
<g id="a_node35"><a xlink:href="namespaceghc_1_1filesystem_1_1detail.html#a48fd7805ec3035ed78c33b0f1dd23e80" target="_top" xlink:title=" ">
<polygon fill="white" stroke="#666666" points="843,-283.27 718,-283.27 718,-253.27 843,-253.27 843,-283.27"/>
<text text-anchor="start" x="726" y="-271.27" font-family="Helvetica,sans-Serif" font-size="10.00">ghc::filesystem::detail</text>
<text text-anchor="middle" x="780.5" y="-260.27" font-family="Helvetica,sans-Serif" font-size="10.00">::symlink_status_ex</text>
</a>
</g>
</g>
<!-- Node1&#45;&gt;Node35 -->
<g id="edge44" class="edge">
<title>Node1&#45;&gt;Node35</title>
<path fill="none" stroke="#63b8ff" d="M917.54,-431.34C884.97,-392.3 821.33,-316.02 794.22,-283.52"/>
<polygon fill="#63b8ff" stroke="#63b8ff" points="914.67,-433.37 923.76,-438.8 920.05,-428.88 914.67,-433.37"/>
</g>
<!-- Node3 -->
<g id="node3" class="node">
<title>Node3</title>
<g id="a_node3"><a xlink:href="namespaceghc_1_1filesystem.html#a14ac3b3c190515c4881b8e4dbfb04ecd" target="_top" xlink:title=" ">
<polygon fill="white" stroke="#666666" points="678,-33.27 550,-33.27 550,-3.27 678,-3.27 678,-33.27"/>
<text text-anchor="start" x="558" y="-21.27" font-family="Helvetica,sans-Serif" font-size="10.00">ghc::filesystem::create</text>
<text text-anchor="middle" x="614" y="-10.27" font-family="Helvetica,sans-Serif" font-size="10.00">_hard_link</text>
</a>
</g>
</g>
<!-- Node2&#45;&gt;Node3 -->
<g id="edge2" class="edge">
<title>Node2&#45;&gt;Node3</title>
<path fill="none" stroke="#63b8ff" d="M731.38,-65.67C706.35,-55.48 676.19,-43.19 652.85,-33.68"/>
<polygon fill="#63b8ff" stroke="#63b8ff" points="729.78,-68.8 740.36,-69.33 732.42,-62.31 729.78,-68.8"/>
</g>
<!-- Node4 -->
<g id="node4" class="node">
<title>Node4</title>
<g id="a_node4"><a xlink:href="namespaceghc_1_1filesystem.html#a7b3c694c41ff9bc3881305d910fbdfe2" target="_top" xlink:title=" ">
<polygon fill="white" stroke="#666666" points="120,-876.77 0,-876.77 0,-857.77 120,-857.77 120,-876.77"/>
<text text-anchor="middle" x="60" y="-864.77" font-family="Helvetica,sans-Serif" font-size="10.00">ghc::filesystem::copy</text>
</a>
</g>
</g>
<!-- Node3&#45;&gt;Node4 -->
<g id="edge3" class="edge">
<title>Node3&#45;&gt;Node4</title>
<path fill="none" stroke="#63b8ff" d="M538.6,-6.09C433.05,6.38 243.01,9.96 156,-106.27 61.45,-232.57 60.54,-777.25 60.93,-857.4"/>
<polygon fill="#63b8ff" stroke="#63b8ff" points="537.94,-9.53 548.29,-7.29 538.8,-2.58 537.94,-9.53"/>
</g>
<!-- Node6 -->
<g id="node6" class="node">
<title>Node6</title>
<g id="a_node6"><a xlink:href="namespaceghc_1_1filesystem.html#a18afc2ba71ef8f05b6645b25d275e8f9" target="_top" xlink:title=" ">
<polygon fill="white" stroke="#666666" points="496,-1082.27 368,-1082.27 368,-1052.27 496,-1052.27 496,-1082.27"/>
<text text-anchor="start" x="376" y="-1070.27" font-family="Helvetica,sans-Serif" font-size="10.00">ghc::filesystem::create</text>
<text text-anchor="middle" x="432" y="-1059.27" font-family="Helvetica,sans-Serif" font-size="10.00">_directory_symlink</text>
</a>
</g>
</g>
<!-- Node5&#45;&gt;Node6 -->
<g id="edge5" class="edge">
<title>Node5&#45;&gt;Node6</title>
<path fill="none" stroke="#63b8ff" d="M539.67,-1067.27C525.28,-1067.27 510.31,-1067.27 496.28,-1067.27"/>
<polygon fill="#63b8ff" stroke="#63b8ff" points="539.54,-1070.77 549.54,-1067.27 539.54,-1063.77 539.54,-1070.77"/>
</g>
<!-- Node8 -->
<g id="node8" class="node">
<title>Node8</title>
<g id="a_node8"><a xlink:href="namespaceghc_1_1filesystem.html#a61737ec48dcb411ac9c3b1d94fe867ed" target="_top" xlink:title=" ">
<polygon fill="white" stroke="#666666" points="496,-1130.27 368,-1130.27 368,-1100.27 496,-1100.27 496,-1130.27"/>
<text text-anchor="start" x="376" y="-1118.27" font-family="Helvetica,sans-Serif" font-size="10.00">ghc::filesystem::create</text>
<text text-anchor="middle" x="432" y="-1107.27" font-family="Helvetica,sans-Serif" font-size="10.00">_symlink</text>
</a>
</g>
</g>
<!-- Node5&#45;&gt;Node8 -->
<g id="edge8" class="edge">
<title>Node5&#45;&gt;Node8</title>
<path fill="none" stroke="#63b8ff" d="M544.26,-1085.6C526.63,-1090.3 507.85,-1095.31 490.84,-1099.85"/>
<polygon fill="#63b8ff" stroke="#63b8ff" points="544.83,-1089.07 553.59,-1083.11 543.03,-1082.31 544.83,-1089.07"/>
</g>
<!-- Node7 -->
<g id="node7" class="node">
<title>Node7</title>
<g id="a_node7"><a xlink:href="namespaceghc_1_1filesystem.html#ae53bc3ef946a2f45fb2eeb5c0cdb46b1" target="_top" xlink:title=" ">
<polygon fill="white" stroke="#666666" points="297,-1107.27 177,-1107.27 177,-1077.27 297,-1077.27 297,-1107.27"/>
<text text-anchor="start" x="185" y="-1095.27" font-family="Helvetica,sans-Serif" font-size="10.00">ghc::filesystem::copy</text>
<text text-anchor="middle" x="237" y="-1084.27" font-family="Helvetica,sans-Serif" font-size="10.00">_symlink</text>
</a>
</g>
</g>
<!-- Node6&#45;&gt;Node7 -->
<g id="edge6" class="edge">
<title>Node6&#45;&gt;Node7</title>
<path fill="none" stroke="#63b8ff" d="M356.2,-1076.96C336.66,-1079.49 315.86,-1082.18 297.25,-1084.59"/>
<polygon fill="#63b8ff" stroke="#63b8ff" points="356.57,-1080.44 366.04,-1075.68 355.67,-1073.5 356.57,-1080.44"/>
</g>
<!-- Node7&#45;&gt;Node4 -->
<g id="edge7" class="edge">
<title>Node7&#45;&gt;Node4</title>
<path fill="none" stroke="#63b8ff" d="M166.45,-1075.64C162.73,-1073.48 159.21,-1071.03 156,-1068.27 93.09,-1014.15 68.84,-909.16 62.69,-876.92"/>
<polygon fill="#63b8ff" stroke="#63b8ff" points="164.81,-1078.73 175.32,-1080.06 167.93,-1072.47 164.81,-1078.73"/>
</g>
<!-- Node8&#45;&gt;Node4 -->
<g id="edge9" class="edge">
<title>Node8&#45;&gt;Node4</title>
<path fill="none" stroke="#63b8ff" d="M372.15,-1133.47C312.27,-1148.17 219.48,-1159.99 156,-1116.27 72.17,-1058.53 62.26,-916.14 61.13,-877.23"/>
<polygon fill="#63b8ff" stroke="#63b8ff" points="372.65,-1136.96 381.47,-1131.08 370.91,-1130.17 372.65,-1136.96"/>
</g>
<!-- Node8&#45;&gt;Node7 -->
<g id="edge10" class="edge">
<title>Node8&#45;&gt;Node7</title>
<path fill="none" stroke="#63b8ff" d="M356.2,-1106.36C336.66,-1104.03 315.86,-1101.55 297.25,-1099.33"/>
<polygon fill="#63b8ff" stroke="#63b8ff" points="355.69,-1109.82 366.03,-1107.53 356.52,-1102.87 355.69,-1109.82"/>
</g>
<!-- Node11 -->
<g id="node11" class="node">
<title>Node11</title>
<g id="a_node11"><a xlink:href="namespaceghc_1_1filesystem.html#ae137f8365fc1d40f58b411d36213c154" target="_top" xlink:title=" ">
<polygon fill="white" stroke="#666666" points="491.5,-1013.27 372.5,-1013.27 372.5,-983.27 491.5,-983.27 491.5,-1013.27"/>
<text text-anchor="start" x="380.5" y="-1001.27" font-family="Helvetica,sans-Serif" font-size="10.00">ghc::filesystem::read</text>
<text text-anchor="middle" x="432" y="-990.27" font-family="Helvetica,sans-Serif" font-size="10.00">_symlink</text>
</a>
</g>
</g>
<!-- Node10&#45;&gt;Node11 -->
<g id="edge13" class="edge">
<title>Node10&#45;&gt;Node11</title>
<path fill="none" stroke="#63b8ff" d="M764.58,-691.25C728.42,-749.64 630.21,-896.01 510,-974.27 504.37,-977.94 498.14,-981.07 491.74,-983.75"/>
<polygon fill="#63b8ff" stroke="#63b8ff" points="767.38,-693.37 769.62,-683.01 761.41,-689.72 767.38,-693.37"/>
</g>
<!-- Node10&#45;&gt;Node12 -->
<g id="edge15" class="edge">
<title>Node10&#45;&gt;Node12</title>
<path fill="none" stroke="#63b8ff" d="M706.32,-666.27C696.46,-666.27 686.43,-666.27 676.79,-666.27"/>
<polygon fill="#63b8ff" stroke="#63b8ff" points="706.26,-669.77 716.26,-666.27 706.26,-662.77 706.26,-669.77"/>
</g>
<!-- Node11&#45;&gt;Node7 -->
<g id="edge14" class="edge">
<title>Node11&#45;&gt;Node7</title>
<path fill="none" stroke="#63b8ff" d="M393.77,-1019.24C381.03,-1026.63 366.77,-1035.12 354,-1043.27 337.58,-1053.75 335.55,-1059.81 318,-1068.27 311.47,-1071.42 304.44,-1074.25 297.35,-1076.77"/>
<polygon fill="#63b8ff" stroke="#63b8ff" points="395.37,-1022.36 402.29,-1014.34 391.88,-1016.29 395.37,-1022.36"/>
</g>
<!-- Node12&#45;&gt;Node12 -->
<g id="edge42" class="edge">
<title>Node12&#45;&gt;Node12</title>
<path fill="none" stroke="#63b8ff" d="M642.09,-692.88C637.59,-696.7 628.23,-699.27 614,-699.27 587.98,-699.27 578.23,-690.68 584.73,-681.54"/>
<polygon fill="#63b8ff" stroke="#63b8ff" points="645.56,-693.36 643.11,-683.05 638.6,-692.64 645.56,-693.36"/>
</g>
<!-- Node13 -->
<g id="node13" class="node">
<title>Node13</title>
<g id="a_node13"><a xlink:href="namespaceghc_1_1filesystem.html#a71844f4df785fdb9020a0cca08d68772" target="_top" xlink:title=" ">
<polygon fill="white" stroke="#666666" points="491.5,-965.27 372.5,-965.27 372.5,-935.27 491.5,-935.27 491.5,-965.27"/>
<text text-anchor="start" x="380.5" y="-953.27" font-family="Helvetica,sans-Serif" font-size="10.00">ghc::filesystem::hard</text>
<text text-anchor="middle" x="432" y="-942.27" font-family="Helvetica,sans-Serif" font-size="10.00">_link_count</text>
</a>
</g>
</g>
<!-- Node12&#45;&gt;Node13 -->
<g id="edge16" class="edge">
<title>Node12&#45;&gt;Node13</title>
<path fill="none" stroke="#63b8ff" d="M602.88,-692.24C577.37,-757.65 512.29,-924.15 510,-926.27 504.76,-931.13 498.56,-935 491.98,-938.09"/>
<polygon fill="#63b8ff" stroke="#63b8ff" points="606.1,-693.6 606.48,-683.02 599.58,-691.06 606.1,-693.6"/>
</g>
<!-- Node16 -->
<g id="node16" class="node">
<title>Node16</title>
<g id="a_node16"><a xlink:href="namespaceghc_1_1filesystem.html#a77d39983738deaaf54e19d998c33e60d" target="_top" xlink:title=" ">
<polygon fill="white" stroke="#666666" points="489.5,-917.27 374.5,-917.27 374.5,-887.27 489.5,-887.27 489.5,-917.27"/>
<text text-anchor="start" x="382.5" y="-905.27" font-family="Helvetica,sans-Serif" font-size="10.00">ghc::filesystem::last</text>
<text text-anchor="middle" x="432" y="-894.27" font-family="Helvetica,sans-Serif" font-size="10.00">_write_time</text>
</a>
</g>
</g>
<!-- Node12&#45;&gt;Node16 -->
<g id="edge19" class="edge">
<title>Node12&#45;&gt;Node16</title>
<path fill="none" stroke="#63b8ff" d="M594.4,-690.66C557.3,-739.3 475.05,-847.13 444.62,-887.03"/>
<polygon fill="#63b8ff" stroke="#63b8ff" points="596.99,-693.03 600.27,-682.96 591.42,-688.79 596.99,-693.03"/>
</g>
<!-- Node19 -->
<g id="node19" class="node">
<title>Node19</title>
<g id="a_node19"><a xlink:href="classghc_1_1filesystem_1_1directory__entry.html#ae7ec3fb6a1fbdeae966a8691c2f4de16" target="_top" xlink:title=" ">
<polygon fill="white" stroke="#666666" points="502,-335.27 362,-335.27 362,-305.27 502,-305.27 502,-335.27"/>
<text text-anchor="start" x="370" y="-323.27" font-family="Helvetica,sans-Serif" font-size="10.00">ghc::filesystem::directory</text>
<text text-anchor="middle" x="432" y="-312.27" font-family="Helvetica,sans-Serif" font-size="10.00">_entry::refresh</text>
</a>
</g>
</g>
<!-- Node12&#45;&gt;Node19 -->
<g id="edge23" class="edge">
<title>Node12&#45;&gt;Node19</title>
<path fill="none" stroke="#63b8ff" d="M599.93,-641.15C564.79,-573.6 469.02,-389.5 440.87,-335.41"/>
<polygon fill="#63b8ff" stroke="#63b8ff" points="596.61,-642.36 604.33,-649.61 602.82,-639.13 596.61,-642.36"/>
</g>
<!-- Node23 -->
<g id="node23" class="node">
<title>Node23</title>
<g id="a_node23"><a xlink:href="namespaceghc_1_1filesystem.html#a07a1093e04d9ba754019595cb25dc975" target="_top" xlink:title=" ">
<polygon fill="white" stroke="#666666" points="495.5,-675.77 368.5,-675.77 368.5,-656.77 495.5,-656.77 495.5,-675.77"/>
<text text-anchor="middle" x="432" y="-663.77" font-family="Helvetica,sans-Serif" font-size="10.00">ghc::filesystem::status</text>
</a>
</g>
</g>
<!-- Node12&#45;&gt;Node23 -->
<g id="edge27" class="edge">
<title>Node12&#45;&gt;Node23</title>
<path fill="none" stroke="#63b8ff" d="M539.61,-666.27C525.13,-666.27 510.07,-666.27 495.98,-666.27"/>
<polygon fill="#63b8ff" stroke="#63b8ff" points="539.54,-669.77 549.54,-666.27 539.54,-662.77 539.54,-669.77"/>
</g>
<!-- Node14 -->
<g id="node14" class="node">
<title>Node14</title>
<g id="a_node14"><a xlink:href="classghc_1_1filesystem_1_1directory__entry.html#ade774f6f7531d691ab013106980d0027" target="_top" xlink:title=" ">
<polygon fill="white" stroke="#666666" points="307,-1059.27 167,-1059.27 167,-1029.27 307,-1029.27 307,-1059.27"/>
<text text-anchor="start" x="175" y="-1047.27" font-family="Helvetica,sans-Serif" font-size="10.00">ghc::filesystem::directory</text>
<text text-anchor="middle" x="237" y="-1036.27" font-family="Helvetica,sans-Serif" font-size="10.00">_entry::hard_link_count</text>
</a>
</g>
</g>
<!-- Node13&#45;&gt;Node14 -->
<g id="edge17" class="edge">
<title>Node13&#45;&gt;Node14</title>
<path fill="none" stroke="#63b8ff" d="M361.87,-969.43C359.14,-970.93 356.51,-972.54 354,-974.27 332.64,-989.02 339.44,-1005.63 318,-1020.27 313.21,-1023.54 307.96,-1026.37 302.52,-1028.83"/>
<polygon fill="#63b8ff" stroke="#63b8ff" points="363.23,-972.66 370.7,-965.15 360.17,-966.36 363.23,-972.66"/>
</g>
<!-- Node15 -->
<g id="node15" class="node">
<title>Node15</title>
<g id="a_node15"><a xlink:href="classghc_1_1filesystem_1_1directory__entry.html#aa9cb09a4d0c29cdaaee1fc41cabdc118" target="_top" xlink:title=" ">
<polygon fill="white" stroke="#666666" points="307,-963.27 167,-963.27 167,-933.27 307,-933.27 307,-963.27"/>
<text text-anchor="start" x="175" y="-951.27" font-family="Helvetica,sans-Serif" font-size="10.00">ghc::filesystem::directory</text>
<text text-anchor="middle" x="237" y="-940.27" font-family="Helvetica,sans-Serif" font-size="10.00">_entry::operator=</text>
</a>
</g>
</g>
<!-- Node13&#45;&gt;Node15 -->
<g id="edge18" class="edge">
<title>Node13&#45;&gt;Node15</title>
<path fill="none" stroke="#63b8ff" d="M360.82,-949.54C343.43,-949.36 324.8,-949.17 307.44,-948.99"/>
<polygon fill="#63b8ff" stroke="#63b8ff" points="360.5,-953.04 370.53,-949.64 360.57,-946.04 360.5,-953.04"/>
</g>
<!-- Node16&#45;&gt;Node15 -->
<g id="edge22" class="edge">
<title>Node16&#45;&gt;Node15</title>
<path fill="none" stroke="#63b8ff" d="M363.16,-918.44C343.6,-923.1 322.31,-928.17 302.93,-932.79"/>
<polygon fill="#63b8ff" stroke="#63b8ff" points="363.75,-921.9 372.67,-916.17 362.13,-915.09 363.75,-921.9"/>
</g>
<!-- Node17 -->
<g id="node17" class="node">
<title>Node17</title>
<g id="a_node17"><a xlink:href="namespaceghc_1_1filesystem.html#a099a0149ef7c7a5e22977a35e39ac072" target="_top" xlink:title=" ">
<polygon fill="white" stroke="#666666" points="307,-914.77 167,-914.77 167,-895.77 307,-895.77 307,-914.77"/>
<text text-anchor="middle" x="237" y="-902.77" font-family="Helvetica,sans-Serif" font-size="10.00">ghc::filesystem::copy_file</text>
</a>
</g>
</g>
<!-- Node16&#45;&gt;Node17 -->
<g id="edge20" class="edge">
<title>Node16&#45;&gt;Node17</title>
<path fill="none" stroke="#63b8ff" d="M362.86,-903.33C344.89,-903.61 325.48,-903.91 307.44,-904.19"/>
<polygon fill="#63b8ff" stroke="#63b8ff" points="362.68,-906.83 372.62,-903.18 362.57,-899.83 362.68,-906.83"/>
</g>
<!-- Node18 -->
<g id="node18" class="node">
<title>Node18</title>
<g id="a_node18"><a xlink:href="classghc_1_1filesystem_1_1directory__entry.html#a9efb65c02dc852ac48754a4893ddf340" target="_top" xlink:title=" ">
<polygon fill="white" stroke="#666666" points="307,-1011.27 167,-1011.27 167,-981.27 307,-981.27 307,-1011.27"/>
<text text-anchor="start" x="175" y="-999.27" font-family="Helvetica,sans-Serif" font-size="10.00">ghc::filesystem::directory</text>
<text text-anchor="middle" x="237" y="-988.27" font-family="Helvetica,sans-Serif" font-size="10.00">_entry::last_write_time</text>
</a>
</g>
</g>
<!-- Node16&#45;&gt;Node18 -->
<g id="edge21" class="edge">
<title>Node16&#45;&gt;Node18</title>
<path fill="none" stroke="#63b8ff" d="M363.67,-920.47C360.3,-922.23 357.05,-924.16 354,-926.27 332.64,-941.02 339.44,-957.63 318,-972.27 313.21,-975.54 307.96,-978.37 302.52,-980.83"/>
<polygon fill="#63b8ff" stroke="#63b8ff" points="365.08,-923.67 372.68,-916.29 362.14,-917.32 365.08,-923.67"/>
</g>
<!-- Node20 -->
<g id="node20" class="node">
<title>Node20</title>
<g id="a_node20"><a xlink:href="classghc_1_1filesystem_1_1directory__entry.html#a42e5e024725713da277ad7c60cb62dfd" target="_top" xlink:title=" ">
<polygon fill="white" stroke="#666666" points="307,-331.27 167,-331.27 167,-301.27 307,-301.27 307,-331.27"/>
<text text-anchor="start" x="175" y="-319.27" font-family="Helvetica,sans-Serif" font-size="10.00">ghc::filesystem::directory</text>
<text text-anchor="middle" x="237" y="-308.27" font-family="Helvetica,sans-Serif" font-size="10.00">_entry::directory_entry</text>
</a>
</g>
</g>
<!-- Node19&#45;&gt;Node20 -->
<g id="edge24" class="edge">
<title>Node19&#45;&gt;Node20</title>
<path fill="none" stroke="#63b8ff" d="M350.3,-318.6C336.05,-318.3 321.34,-318 307.44,-317.71"/>
<polygon fill="#63b8ff" stroke="#63b8ff" points="350.01,-322.09 360.08,-318.8 350.16,-315.09 350.01,-322.09"/>
</g>
<!-- Node21 -->
<g id="node21" class="node">
<title>Node21</title>
<g id="a_node21"><a xlink:href="classghc_1_1filesystem_1_1directory__entry.html#a15a1d67f8307b72d0ae8ab13b87ebaee" target="_top" xlink:title=" ">
<polygon fill="white" stroke="#666666" points="307,-283.27 167,-283.27 167,-253.27 307,-253.27 307,-283.27"/>
<text text-anchor="start" x="175" y="-271.27" font-family="Helvetica,sans-Serif" font-size="10.00">ghc::filesystem::directory</text>
<text text-anchor="middle" x="237" y="-260.27" font-family="Helvetica,sans-Serif" font-size="10.00">_entry::assign</text>
</a>
</g>
</g>
<!-- Node19&#45;&gt;Node21 -->
<g id="edge25" class="edge">
<title>Node19&#45;&gt;Node21</title>
<path fill="none" stroke="#63b8ff" d="M362.69,-301.86C340.72,-295.94 316.61,-289.45 295.5,-283.76"/>
<polygon fill="#63b8ff" stroke="#63b8ff" points="361.59,-305.19 372.15,-304.41 363.41,-298.43 361.59,-305.19"/>
</g>
<!-- Node22 -->
<g id="node22" class="node">
<title>Node22</title>
<g id="a_node22"><a xlink:href="classghc_1_1filesystem_1_1directory__entry.html#a05e2035adac4a0a7e414a22bac702e98" target="_top" xlink:title=" ">
<polygon fill="white" stroke="#666666" points="307,-235.27 167,-235.27 167,-205.27 307,-205.27 307,-235.27"/>
<text text-anchor="start" x="175" y="-223.27" font-family="Helvetica,sans-Serif" font-size="10.00">ghc::filesystem::directory</text>
<text text-anchor="middle" x="237" y="-212.27" font-family="Helvetica,sans-Serif" font-size="10.00">_entry::replace_filename</text>
</a>
</g>
</g>
<!-- Node19&#45;&gt;Node22 -->
<g id="edge26" class="edge">
<title>Node19&#45;&gt;Node22</title>
<path fill="none" stroke="#63b8ff" d="M367.84,-299.91C362.97,-297.33 358.29,-294.45 354,-291.27 332.87,-275.58 339.65,-259.22 318,-244.27 313.23,-240.97 307.99,-238.12 302.56,-235.66"/>
<polygon fill="#63b8ff" stroke="#63b8ff" points="366.12,-302.97 376.65,-304.16 369.16,-296.67 366.12,-302.97"/>
</g>
<!-- Node23&#45;&gt;Node4 -->
<g id="edge28" class="edge">
<title>Node23&#45;&gt;Node4</title>
<path fill="none" stroke="#63b8ff" d="M412.75,-684.17C395.77,-701.59 370.66,-729.45 354,-757.27 331.66,-794.59 353.04,-822.51 318,-848.27 256,-893.85 161.3,-886.76 105.83,-877.2"/>
<polygon fill="#63b8ff" stroke="#63b8ff" points="415.17,-686.7 419.73,-677.14 410.2,-681.77 415.17,-686.7"/>
</g>
<!-- Node23&#45;&gt;Node15 -->
<g id="edge40" class="edge">
<title>Node23&#45;&gt;Node15</title>
<path fill="none" stroke="#63b8ff" d="M411.59,-683.68C393.86,-700.7 368.29,-728.23 354,-757.27 320.48,-825.39 369.52,-868.5 318,-924.27 314.85,-927.68 311.24,-930.61 307.33,-933.13"/>
<polygon fill="#63b8ff" stroke="#63b8ff" points="413.57,-686.63 418.48,-677.25 408.79,-681.52 413.57,-686.63"/>
</g>
<!-- Node23&#45;&gt;Node17 -->
<g id="edge29" class="edge">
<title>Node23&#45;&gt;Node17</title>
<path fill="none" stroke="#63b8ff" d="M412.34,-683.64C394.93,-700.8 369.39,-728.59 354,-757.27 326.87,-807.84 358.4,-840.51 318,-881.27 311.98,-887.35 304.48,-891.9 296.51,-895.3"/>
<polygon fill="#63b8ff" stroke="#63b8ff" points="414.29,-686.62 419.07,-677.16 409.44,-681.58 414.29,-686.62"/>
</g>
<!-- Node24 -->
<g id="node24" class="node">
<title>Node24</title>
<g id="a_node24"><a xlink:href="namespaceghc_1_1filesystem.html#a19bc98b3966f5697b0f599d2712ecfda" target="_top" xlink:title=" ">
<polygon fill="white" stroke="#666666" points="301,-839.27 173,-839.27 173,-809.27 301,-809.27 301,-839.27"/>
<text text-anchor="start" x="181" y="-827.27" font-family="Helvetica,sans-Serif" font-size="10.00">ghc::filesystem::create</text>
<text text-anchor="middle" x="237" y="-816.27" font-family="Helvetica,sans-Serif" font-size="10.00">_directory</text>
</a>
</g>
</g>
<!-- Node23&#45;&gt;Node24 -->
<g id="edge30" class="edge">
<title>Node23&#45;&gt;Node24</title>
<path fill="none" stroke="#63b8ff" d="M415.41,-684.64C399.84,-703 375.22,-732.06 354,-757.27 337.95,-776.34 338.81,-786.56 318,-800.27 312.79,-803.7 307.08,-806.65 301.17,-809.2"/>
<polygon fill="#63b8ff" stroke="#63b8ff" points="417.89,-687.13 421.69,-677.24 412.55,-682.6 417.89,-687.13"/>
</g>
<!-- Node25 -->
<g id="node25" class="node">
<title>Node25</title>
<g id="a_node25"><a xlink:href="namespaceghc_1_1filesystem.html#a2d1ed5090c34c9343bb6aca0d7dadc70" target="_top" xlink:title=" ">
<polygon fill="white" stroke="#666666" points="300,-790.77 174,-790.77 174,-771.77 300,-771.77 300,-790.77"/>
<text text-anchor="middle" x="237" y="-778.77" font-family="Helvetica,sans-Serif" font-size="10.00">ghc::filesystem::exists</text>
</a>
</g>
</g>
<!-- Node23&#45;&gt;Node25 -->
<g id="edge31" class="edge">
<title>Node23&#45;&gt;Node25</title>
<path fill="none" stroke="#63b8ff" d="M414.75,-684.56C394.33,-706.39 357.19,-742.43 318,-762.27 310.74,-765.94 302.75,-768.93 294.71,-771.34"/>
<polygon fill="#63b8ff" stroke="#63b8ff" points="417.25,-687.02 421.42,-677.28 412.08,-682.29 417.25,-687.02"/>
</g>
<!-- Node26 -->
<g id="node26" class="node">
<title>Node26</title>
<g id="a_node26"><a xlink:href="namespaceghc_1_1filesystem.html#aadd2e81ece775bda26c76a7190495ddc" target="_top" xlink:title=" ">
<polygon fill="white" stroke="#666666" points="289.5,-753.27 184.5,-753.27 184.5,-723.27 289.5,-723.27 289.5,-753.27"/>
<text text-anchor="start" x="192.5" y="-741.27" font-family="Helvetica,sans-Serif" font-size="10.00">ghc::filesystem::is</text>
<text text-anchor="middle" x="237" y="-730.27" font-family="Helvetica,sans-Serif" font-size="10.00">_block_file</text>
</a>
</g>
</g>
<!-- Node23&#45;&gt;Node26 -->
<g id="edge32" class="edge">
<title>Node23&#45;&gt;Node26</title>
<path fill="none" stroke="#63b8ff" d="M399.33,-680.83C376.88,-690.88 345.91,-704.19 318,-714.27 309,-717.52 299.32,-720.69 289.91,-723.6"/>
<polygon fill="#63b8ff" stroke="#63b8ff" points="400.56,-684.11 408.24,-676.81 397.68,-677.73 400.56,-684.11"/>
</g>
<!-- Node27 -->
<g id="node27" class="node">
<title>Node27</title>
<g id="a_node27"><a xlink:href="namespaceghc_1_1filesystem.html#a63706fe9c6dfb7de2d384671abbf97b1" target="_top" xlink:title=" ">
<polygon fill="white" stroke="#666666" points="289.5,-705.27 184.5,-705.27 184.5,-675.27 289.5,-675.27 289.5,-705.27"/>
<text text-anchor="start" x="192.5" y="-693.27" font-family="Helvetica,sans-Serif" font-size="10.00">ghc::filesystem::is</text>
<text text-anchor="middle" x="237" y="-682.27" font-family="Helvetica,sans-Serif" font-size="10.00">_character_file</text>
</a>
</g>
</g>
<!-- Node23&#45;&gt;Node27 -->
<g id="edge33" class="edge">
<title>Node23&#45;&gt;Node27</title>
<path fill="none" stroke="#63b8ff" d="M356.91,-675.48C334.54,-678.26 310.47,-681.26 289.88,-683.82"/>
<polygon fill="#63b8ff" stroke="#63b8ff" points="357.08,-678.99 366.57,-674.28 356.21,-672.04 357.08,-678.99"/>
</g>
<!-- Node28 -->
<g id="node28" class="node">
<title>Node28</title>
<g id="a_node28"><a xlink:href="namespaceghc_1_1filesystem.html#a023e40915a41c2f274a5db72000709e4" target="_top" xlink:title=" ">
<polygon fill="white" stroke="#666666" points="289.5,-657.27 184.5,-657.27 184.5,-627.27 289.5,-627.27 289.5,-657.27"/>
<text text-anchor="start" x="192.5" y="-645.27" font-family="Helvetica,sans-Serif" font-size="10.00">ghc::filesystem::is</text>
<text text-anchor="middle" x="237" y="-634.27" font-family="Helvetica,sans-Serif" font-size="10.00">_directory</text>
</a>
</g>
</g>
<!-- Node23&#45;&gt;Node28 -->
<g id="edge34" class="edge">
<title>Node23&#45;&gt;Node28</title>
<path fill="none" stroke="#63b8ff" d="M356.91,-657.06C334.54,-654.27 310.47,-651.28 289.88,-648.72"/>
<polygon fill="#63b8ff" stroke="#63b8ff" points="356.21,-660.5 366.57,-658.26 357.08,-653.55 356.21,-660.5"/>
</g>
<!-- Node29 -->
<g id="node29" class="node">
<title>Node29</title>
<g id="a_node29"><a xlink:href="namespaceghc_1_1filesystem.html#a6d3162aa30975b8165ae0244b8b3742e" target="_top" xlink:title=" ">
<polygon fill="white" stroke="#666666" points="289.5,-609.27 184.5,-609.27 184.5,-579.27 289.5,-579.27 289.5,-609.27"/>
<text text-anchor="start" x="192.5" y="-597.27" font-family="Helvetica,sans-Serif" font-size="10.00">ghc::filesystem::is</text>
<text text-anchor="middle" x="237" y="-586.27" font-family="Helvetica,sans-Serif" font-size="10.00">_empty</text>
</a>
</g>
</g>
<!-- Node23&#45;&gt;Node29 -->
<g id="edge35" class="edge">
<title>Node23&#45;&gt;Node29</title>
<path fill="none" stroke="#63b8ff" d="M399.33,-651.71C376.88,-641.66 345.91,-628.35 318,-618.27 309,-615.02 299.32,-611.85 289.91,-608.93"/>
<polygon fill="#63b8ff" stroke="#63b8ff" points="397.68,-654.8 408.24,-655.73 400.56,-648.42 397.68,-654.8"/>
</g>
<!-- Node30 -->
<g id="node30" class="node">
<title>Node30</title>
<g id="a_node30"><a xlink:href="namespaceghc_1_1filesystem.html#ac1dd7c7ac147bbc77483430f25e03562" target="_top" xlink:title=" ">
<polygon fill="white" stroke="#666666" points="300,-560.77 174,-560.77 174,-541.77 300,-541.77 300,-560.77"/>
<text text-anchor="middle" x="237" y="-548.77" font-family="Helvetica,sans-Serif" font-size="10.00">ghc::filesystem::is_fifo</text>
</a>
</g>
</g>
<!-- Node23&#45;&gt;Node30 -->
<g id="edge36" class="edge">
<title>Node23&#45;&gt;Node30</title>
<path fill="none" stroke="#63b8ff" d="M414.75,-647.98C394.33,-626.15 357.19,-590.11 318,-570.27 310.74,-566.59 302.75,-563.61 294.71,-561.2"/>
<polygon fill="#63b8ff" stroke="#63b8ff" points="412.08,-650.25 421.42,-655.26 417.25,-645.52 412.08,-650.25"/>
</g>
<!-- Node31 -->
<g id="node31" class="node">
<title>Node31</title>
<g id="a_node31"><a xlink:href="namespaceghc_1_1filesystem.html#a773b14c6f3e10353b05669f9537949ae" target="_top" xlink:title=" ">
<polygon fill="white" stroke="#666666" points="289.5,-523.27 184.5,-523.27 184.5,-493.27 289.5,-493.27 289.5,-523.27"/>
<text text-anchor="start" x="192.5" y="-511.27" font-family="Helvetica,sans-Serif" font-size="10.00">ghc::filesystem::is</text>
<text text-anchor="middle" x="237" y="-500.27" font-family="Helvetica,sans-Serif" font-size="10.00">_other</text>
</a>
</g>
</g>
<!-- Node23&#45;&gt;Node31 -->
<g id="edge37" class="edge">
<title>Node23&#45;&gt;Node31</title>
<path fill="none" stroke="#63b8ff" d="M419.59,-646.88C401.61,-617.95 363.93,-563.67 318,-533.27 309.51,-527.65 299.68,-523.23 289.88,-519.78"/>
<polygon fill="#63b8ff" stroke="#63b8ff" points="416.54,-648.59 424.71,-655.32 422.52,-644.96 416.54,-648.59"/>
</g>
<!-- Node32 -->
<g id="node32" class="node">
<title>Node32</title>
<g id="a_node32"><a xlink:href="namespaceghc_1_1filesystem.html#a4f9d4d3e915d8614778c675523c1c402" target="_top" xlink:title=" ">
<polygon fill="white" stroke="#666666" points="289.5,-475.27 184.5,-475.27 184.5,-445.27 289.5,-445.27 289.5,-475.27"/>
<text text-anchor="start" x="192.5" y="-463.27" font-family="Helvetica,sans-Serif" font-size="10.00">ghc::filesystem::is</text>
<text text-anchor="middle" x="237" y="-452.27" font-family="Helvetica,sans-Serif" font-size="10.00">_regular_file</text>
</a>
</g>
</g>
<!-- Node23&#45;&gt;Node32 -->
<g id="edge38" class="edge">
<title>Node23&#45;&gt;Node32</title>
<path fill="none" stroke="#63b8ff" d="M424.02,-646.09C409.99,-608.51 374.76,-527.72 318,-484.27 309.71,-477.92 299.75,-473.25 289.73,-469.81"/>
<polygon fill="#63b8ff" stroke="#63b8ff" points="420.64,-647.02 427.32,-655.24 427.22,-644.65 420.64,-647.02"/>
</g>
<!-- Node33 -->
<g id="node33" class="node">
<title>Node33</title>
<g id="a_node33"><a xlink:href="namespaceghc_1_1filesystem.html#a76a280cb3931983075b641fb5b0c4c5a" target="_top" xlink:title=" ">
<polygon fill="white" stroke="#666666" points="289.5,-427.27 184.5,-427.27 184.5,-397.27 289.5,-397.27 289.5,-427.27"/>
<text text-anchor="start" x="192.5" y="-415.27" font-family="Helvetica,sans-Serif" font-size="10.00">ghc::filesystem::is</text>
<text text-anchor="middle" x="237" y="-404.27" font-family="Helvetica,sans-Serif" font-size="10.00">_socket</text>
</a>
</g>
</g>
<!-- Node23&#45;&gt;Node33 -->
<g id="edge39" class="edge">
<title>Node23&#45;&gt;Node33</title>
<path fill="none" stroke="#63b8ff" d="M426.71,-645.54C416.32,-600.56 385.5,-493.45 318,-436.27 309.92,-429.43 299.95,-424.54 289.81,-421.04"/>
<polygon fill="#63b8ff" stroke="#63b8ff" points="423.28,-646.22 428.84,-655.24 430.11,-644.72 423.28,-646.22"/>
</g>
<!-- Node34 -->
<g id="node34" class="node">
<title>Node34</title>
<g id="a_node34"><a xlink:href="classghc_1_1filesystem_1_1directory__entry.html#a2e8f7e9a941a06938c9a459bc0f168cd" target="_top" xlink:title=" ">
<polygon fill="white" stroke="#666666" points="307,-379.27 167,-379.27 167,-349.27 307,-349.27 307,-379.27"/>
<text text-anchor="start" x="175" y="-367.27" font-family="Helvetica,sans-Serif" font-size="10.00">ghc::filesystem::directory</text>
<text text-anchor="middle" x="237" y="-356.27" font-family="Helvetica,sans-Serif" font-size="10.00">_entry::status</text>
</a>
</g>
</g>
<!-- Node23&#45;&gt;Node34 -->
<g id="edge41" class="edge">
<title>Node23&#45;&gt;Node34</title>
<path fill="none" stroke="#63b8ff" d="M428.61,-645.17C421.63,-593.51 396.52,-459.69 318,-388.27 314.35,-384.95 310.26,-382.09 305.91,-379.63"/>
<polygon fill="#63b8ff" stroke="#63b8ff" points="425.12,-645.45 429.83,-654.94 432.07,-644.59 425.12,-645.45"/>
</g>
<!-- Node36 -->
<g id="node36" class="node">
<title>Node36</title>
<g id="a_node36"><a xlink:href="namespaceghc_1_1filesystem.html#aebf6cccf2aa8da7b8e7b7e5eb42c883b" target="_top" xlink:title=" ">
<polygon fill="white" stroke="#666666" points="682,-236.27 546,-236.27 546,-206.27 682,-206.27 682,-236.27"/>
<text text-anchor="start" x="554" y="-224.27" font-family="Helvetica,sans-Serif" font-size="10.00">ghc::filesystem::symlink</text>
<text text-anchor="middle" x="614" y="-213.27" font-family="Helvetica,sans-Serif" font-size="10.00">_status</text>
</a>
</g>
</g>
<!-- Node35&#45;&gt;Node36 -->
<g id="edge45" class="edge">
<title>Node35&#45;&gt;Node36</title>
<path fill="none" stroke="#63b8ff" d="M714.78,-249.78C699.61,-245.44 683.62,-240.87 668.98,-236.69"/>
<polygon fill="#63b8ff" stroke="#63b8ff" points="713.6,-253.08 724.18,-252.46 715.53,-246.35 713.6,-253.08"/>
</g>
<!-- Node36&#45;&gt;Node4 -->
<g id="edge46" class="edge">
<title>Node36&#45;&gt;Node4</title>
<path fill="none" stroke="#63b8ff" d="M572.72,-241.46C519.14,-265.23 423.15,-296.76 354,-257.27 326.66,-241.66 345.34,-211.88 318,-196.27 255.47,-160.57 210.36,-149.06 156,-196.27 103.37,-241.98 66.77,-778.15 61.62,-857.48"/>
<polygon fill="#63b8ff" stroke="#63b8ff" points="574.15,-244.66 581.79,-237.32 571.24,-238.29 574.15,-244.66"/>
</g>
<!-- Node36&#45;&gt;Node9 -->
<g id="edge51" class="edge">
<title>Node36&#45;&gt;Node9</title>
<path fill="none" stroke="#63b8ff" d="M572.15,-199.63C562.47,-192.91 552.96,-184.73 546,-175.27 513.78,-131.43 549.54,-95.64 510,-58.27 506.1,-54.58 501.6,-51.58 496.77,-49.13"/>
<polygon fill="#63b8ff" stroke="#63b8ff" points="570.22,-202.55 580.52,-205.04 574.02,-196.67 570.22,-202.55"/>
</g>
<!-- Node36&#45;&gt;Node11 -->
<g id="edge52" class="edge">
<title>Node36&#45;&gt;Node11</title>
<path fill="none" stroke="#63b8ff" d="M608.36,-247.52C596.76,-313.64 566.04,-492.41 546,-642.27 536.17,-715.82 557.14,-916.96 510,-974.27 505.11,-980.22 498.76,-984.72 491.82,-988.12"/>
<polygon fill="#63b8ff" stroke="#63b8ff" points="611.74,-248.47 610.03,-238.01 604.85,-247.25 611.74,-248.47"/>
</g>
<!-- Node36&#45;&gt;Node15 -->
<g id="edge50" class="edge">
<title>Node36&#45;&gt;Node15</title>
<path fill="none" stroke="#63b8ff" d="M611.35,-247.82C605.93,-321.04 584.51,-530.68 510,-685.27 462.11,-784.63 422.66,-791.95 354,-878.27 337.84,-898.59 339.44,-909.63 318,-924.27 313.21,-927.54 307.96,-930.37 302.52,-932.83"/>
<polygon fill="#63b8ff" stroke="#63b8ff" points="614.83,-248.24 612.03,-238.02 607.85,-247.76 614.83,-248.24"/>
</g>
<!-- Node37 -->
<g id="node37" class="node">
<title>Node37</title>
<g id="a_node37"><a xlink:href="namespaceghc_1_1filesystem.html#aea3ca17482acce4248ed36dde3b02815" target="_top" xlink:title=" ">
<polygon fill="white" stroke="#666666" points="484.5,-193.27 379.5,-193.27 379.5,-163.27 484.5,-163.27 484.5,-193.27"/>
<text text-anchor="start" x="387.5" y="-181.27" font-family="Helvetica,sans-Serif" font-size="10.00">ghc::filesystem::is</text>
<text text-anchor="middle" x="432" y="-170.27" font-family="Helvetica,sans-Serif" font-size="10.00">_symlink</text>
</a>
</g>
</g>
<!-- Node36&#45;&gt;Node37 -->
<g id="edge47" class="edge">
<title>Node36&#45;&gt;Node37</title>
<path fill="none" stroke="#63b8ff" d="M537.11,-203.14C519.47,-198.93 501.09,-194.54 484.77,-190.64"/>
<polygon fill="#63b8ff" stroke="#63b8ff" points="536.26,-206.53 546.8,-205.45 537.88,-199.73 536.26,-206.53"/>
</g>
<!-- Node38 -->
<g id="node38" class="node">
<title>Node38</title>
<g id="a_node38"><a xlink:href="classghc_1_1filesystem_1_1directory__entry.html#af281d33567749e6558c35d72ecf9d4f8" target="_top" xlink:title=" ">
<polygon fill="white" stroke="#666666" points="502,-145.27 362,-145.27 362,-115.27 502,-115.27 502,-145.27"/>
<text text-anchor="start" x="370" y="-133.27" font-family="Helvetica,sans-Serif" font-size="10.00">ghc::filesystem::directory</text>
<text text-anchor="middle" x="432" y="-122.27" font-family="Helvetica,sans-Serif" font-size="10.00">_entry::is_symlink</text>
</a>
</g>
</g>
<!-- Node36&#45;&gt;Node38 -->
<g id="edge48" class="edge">
<title>Node36&#45;&gt;Node38</title>
<path fill="none" stroke="#63b8ff" d="M581.69,-199.55C557,-182.67 524.4,-161.04 510,-154.27 503.28,-151.11 496.05,-148.23 488.8,-145.65"/>
<polygon fill="#63b8ff" stroke="#63b8ff" points="579.58,-202.34 589.8,-205.11 583.54,-196.57 579.58,-202.34"/>
</g>
<!-- Node40 -->
<g id="node40" class="node">
<title>Node40</title>
<g id="a_node40"><a xlink:href="namespaceghc_1_1filesystem.html#a1b6f115fbbafa333441fc326a9dcb4a5" target="_top" xlink:title=" ">
<polygon fill="white" stroke="#666666" points="508,-230.77 356,-230.77 356,-211.77 508,-211.77 508,-230.77"/>
<text text-anchor="middle" x="432" y="-218.77" font-family="Helvetica,sans-Serif" font-size="10.00">ghc::filesystem::remove_all</text>
</a>
</g>
</g>
<!-- Node36&#45;&gt;Node40 -->
<g id="edge53" class="edge">
<title>Node36&#45;&gt;Node40</title>
<path fill="none" stroke="#63b8ff" d="M534.45,-221.27C525.79,-221.27 516.98,-221.27 508.36,-221.27"/>
<polygon fill="#63b8ff" stroke="#63b8ff" points="534.21,-224.77 544.21,-221.27 534.21,-217.77 534.21,-224.77"/>
</g>
<!-- Node41 -->
<g id="node41" class="node">
<title>Node41</title>
<g id="a_node41"><a xlink:href="classghc_1_1filesystem_1_1directory__entry.html#a7ae03cb034061d78e3dc5f8da09a02a9" target="_top" xlink:title=" ">
<polygon fill="white" stroke="#666666" points="502,-97.27 362,-97.27 362,-67.27 502,-67.27 502,-97.27"/>
<text text-anchor="start" x="370" y="-85.27" font-family="Helvetica,sans-Serif" font-size="10.00">ghc::filesystem::directory</text>
<text text-anchor="middle" x="432" y="-74.27" font-family="Helvetica,sans-Serif" font-size="10.00">_entry::symlink_status</text>
</a>
</g>
</g>
<!-- Node36&#45;&gt;Node41 -->
<g id="edge55" class="edge">
<title>Node36&#45;&gt;Node41</title>
<path fill="none" stroke="#63b8ff" d="M574.65,-199.64C564.52,-192.74 554.15,-184.47 546,-175.27 523.06,-149.38 536.54,-128.45 510,-106.27 506.02,-102.95 501.59,-100.08 496.91,-97.62"/>
<polygon fill="#63b8ff" stroke="#63b8ff" points="572.64,-202.51 582.94,-205.01 576.44,-196.64 572.64,-202.51"/>
</g>
<!-- Node39 -->
<g id="node39" class="node">
<title>Node39</title>
<g id="a_node39"><a xlink:href="classghc_1_1filesystem_1_1recursive__directory__iterator.html#acb3a481c8f98bb1264000d9835b6ed63" target="_top" xlink:title=" ">
<polygon fill="white" stroke="#666666" points="318,-145.27 156,-145.27 156,-115.27 318,-115.27 318,-145.27"/>
<text text-anchor="start" x="164" y="-133.27" font-family="Helvetica,sans-Serif" font-size="10.00">ghc::filesystem::recursive</text>
<text text-anchor="middle" x="237" y="-122.27" font-family="Helvetica,sans-Serif" font-size="10.00">_directory_iterator::increment</text>
</a>
</g>
</g>
<!-- Node38&#45;&gt;Node39 -->
<g id="edge49" class="edge">
<title>Node38&#45;&gt;Node39</title>
<path fill="none" stroke="#63b8ff" d="M350.25,-130.27C339.67,-130.27 328.84,-130.27 318.28,-130.27"/>
<polygon fill="#63b8ff" stroke="#63b8ff" points="350.08,-133.77 360.08,-130.27 350.08,-126.77 350.08,-133.77"/>
</g>
<!-- Node40&#45;&gt;Node40 -->
<g id="edge54" class="edge">
<title>Node40&#45;&gt;Node40</title>
<path fill="none" stroke="#63b8ff" d="M464.63,-241.87C460.87,-245.9 450,-248.77 432,-248.77 400.01,-248.77 390.51,-239.71 403.51,-231.14"/>
<polygon fill="#63b8ff" stroke="#63b8ff" points="467.9,-240.62 461.04,-232.55 461.37,-243.14 467.9,-240.62"/>
</g>
</g>
</svg>
