<?xml version="1.0" encoding="UTF-8" standalone="no"?>
<!DOCTYPE svg PUBLIC "-//W3C//DTD SVG 1.1//EN"
 "http://www.w3.org/Graphics/SVG/1.1/DTD/svg11.dtd">
<!-- Generated by graphviz version 9.0.0 (0)
 -->
<!-- Title: sisi4s::UCcsdEAEquationOfMotionDavidson::run Pages: 1 -->
<svg width="677pt" height="371pt"
 viewBox="0.00 0.00 676.50 371.12" xmlns="http://www.w3.org/2000/svg" xmlns:xlink="http://www.w3.org/1999/xlink">
<g id="graph0" class="graph" transform="scale(1 1) rotate(0) translate(4 367.12)">
<title>sisi4s::UCcsdEAEquationOfMotionDavidson::run</title>
<!-- Node1 -->
<g id="Node000001" class="node">
<title>Node1</title>
<g id="a_Node000001"><a xlink:title=" ">
<polygon fill="#999999" stroke="#666666" points="147.25,-207.12 0,-207.12 0,-173.62 147.25,-173.62 147.25,-207.12"/>
<text text-anchor="start" x="8" y="-193.62" font-family="Helvetica,sans-Serif" font-size="10.00">sisi4s::UCcsdEAEquationOf</text>
<text text-anchor="middle" x="73.62" y="-180.88" font-family="Helvetica,sans-Serif" font-size="10.00">MotionDavidson::run</text>
</a>
</g>
</g>
<!-- Node2 -->
<g id="Node000002" class="node">
<title>Node2</title>
<g id="a_Node000002"><a xlink:href="classsisi4s_1_1Algorithm.html#a5db14be3b0d33bf80218a37223e27667" target="_top" xlink:title=" ">
<polygon fill="white" stroke="#666666" points="319.25,-363.12 205,-363.12 205,-329.62 319.25,-329.62 319.25,-363.12"/>
<text text-anchor="start" x="213" y="-349.62" font-family="Helvetica,sans-Serif" font-size="10.00">sisi4s::Algorithm::</text>
<text text-anchor="middle" x="262.12" y="-336.88" font-family="Helvetica,sans-Serif" font-size="10.00">getIntegerArgument</text>
</a>
</g>
</g>
<!-- Node1&#45;&gt;Node2 -->
<g id="edge1_Node000001_Node000002" class="edge">
<title>Node1&#45;&gt;Node2</title>
<g id="a_edge1_Node000001_Node000002"><a xlink:title=" ">
<path fill="none" stroke="#63b8ff" d="M84.41,-207.31C101.19,-234.89 138.05,-289.55 183.25,-320.38 186.86,-322.83 190.71,-325.08 194.71,-327.12"/>
<polygon fill="#63b8ff" stroke="#63b8ff" points="192.95,-330.16 203.5,-331.16 195.88,-323.8 192.95,-330.16"/>
</a>
</g>
</g>
<!-- Node6 -->
<g id="Node000006" class="node">
<title>Node6</title>
<g id="a_Node000006"><a xlink:href="classsisi4s_1_1Algorithm.html#a36c632fbb19dae4ce2f415705fa5cbcb" target="_top" xlink:title=" ">
<polygon fill="white" stroke="#666666" points="314,-207.12 210.25,-207.12 210.25,-173.62 314,-173.62 314,-207.12"/>
<text text-anchor="start" x="218.25" y="-193.62" font-family="Helvetica,sans-Serif" font-size="10.00">sisi4s::Algorithm::</text>
<text text-anchor="middle" x="262.12" y="-180.88" font-family="Helvetica,sans-Serif" font-size="10.00">getRealArgument</text>
</a>
</g>
</g>
<!-- Node1&#45;&gt;Node6 -->
<g id="edge5_Node000001_Node000006" class="edge">
<title>Node1&#45;&gt;Node6</title>
<g id="a_edge5_Node000001_Node000006"><a xlink:title=" ">
<path fill="none" stroke="#63b8ff" d="M147.53,-190.38C164.47,-190.38 182.34,-190.38 198.77,-190.38"/>
<polygon fill="#63b8ff" stroke="#63b8ff" points="198.37,-193.88 208.37,-190.38 198.37,-186.88 198.37,-193.88"/>
</a>
</g>
</g>
<!-- Node9 -->
<g id="Node000009" class="node">
<title>Node9</title>
<g id="a_Node000009"><a xlink:href="classsisi4s_1_1Algorithm.html#a338a44c8fd4d6be3b32a6d5e71dfe180" target="_top" xlink:title=" ">
<polygon fill="white" stroke="#666666" points="317.75,-311.12 206.5,-311.12 206.5,-277.62 317.75,-277.62 317.75,-311.12"/>
<text text-anchor="start" x="214.5" y="-297.62" font-family="Helvetica,sans-Serif" font-size="10.00">sisi4s::Algorithm::</text>
<text text-anchor="middle" x="262.12" y="-284.88" font-family="Helvetica,sans-Serif" font-size="10.00">getTensorArgument</text>
</a>
</g>
</g>
<!-- Node1&#45;&gt;Node9 -->
<g id="edge10_Node000001_Node000009" class="edge">
<title>Node1&#45;&gt;Node9</title>
<g id="a_edge10_Node000001_Node000009"><a xlink:title=" ">
<path fill="none" stroke="#63b8ff" d="M94.65,-207.6C115.58,-224.9 149.97,-251.36 183.25,-268.38 187.21,-270.4 191.35,-272.31 195.59,-274.12"/>
<polygon fill="#63b8ff" stroke="#63b8ff" points="194.24,-277.35 204.82,-277.81 196.84,-270.85 194.24,-277.35"/>
</a>
</g>
</g>
<!-- Node10 -->
<g id="Node000010" class="node">
<title>Node10</title>
<g id="a_Node000010"><a xlink:href="classsisi4s_1_1Algorithm.html#a5e80a507fac066ab5714b62364cabaaf" target="_top" xlink:title=" ">
<polygon fill="white" stroke="#666666" points="314,-259.12 210.25,-259.12 210.25,-225.62 314,-225.62 314,-259.12"/>
<text text-anchor="start" x="218.25" y="-245.62" font-family="Helvetica,sans-Serif" font-size="10.00">sisi4s::Algorithm::</text>
<text text-anchor="middle" x="262.12" y="-232.88" font-family="Helvetica,sans-Serif" font-size="10.00">getTextArgument</text>
</a>
</g>
</g>
<!-- Node1&#45;&gt;Node10 -->
<g id="edge13_Node000001_Node000010" class="edge">
<title>Node1&#45;&gt;Node10</title>
<g id="a_edge13_Node000001_Node000010"><a xlink:title=" ">
<path fill="none" stroke="#63b8ff" d="M136.47,-207.62C156.6,-213.23 178.94,-219.46 199.08,-225.08"/>
<polygon fill="#63b8ff" stroke="#63b8ff" points="197.99,-228.4 208.56,-227.72 199.87,-221.66 197.99,-228.4"/>
</a>
</g>
</g>
<!-- Node11 -->
<g id="Node000011" class="node">
<title>Node11</title>
<g id="a_Node000011"><a xlink:href="classsisi4s_1_1Algorithm.html#aec9041b31cb64a42ee1fd79d32774266" target="_top" xlink:title=" ">
<polygon fill="white" stroke="#666666" points="314,-155.12 210.25,-155.12 210.25,-121.62 314,-121.62 314,-155.12"/>
<text text-anchor="start" x="218.25" y="-141.62" font-family="Helvetica,sans-Serif" font-size="10.00">sisi4s::Algorithm::</text>
<text text-anchor="middle" x="262.12" y="-128.88" font-family="Helvetica,sans-Serif" font-size="10.00">isArgumentGiven</text>
</a>
</g>
</g>
<!-- Node1&#45;&gt;Node11 -->
<g id="edge16_Node000001_Node000011" class="edge">
<title>Node1&#45;&gt;Node11</title>
<g id="a_edge16_Node000001_Node000011"><a xlink:title=" ">
<path fill="none" stroke="#63b8ff" d="M136.47,-173.13C156.6,-167.52 178.94,-161.29 199.08,-155.67"/>
<polygon fill="#63b8ff" stroke="#63b8ff" points="199.87,-159.09 208.56,-153.03 197.99,-152.35 199.87,-159.09"/>
</a>
</g>
</g>
<!-- Node12 -->
<g id="Node000012" class="node">
<title>Node12</title>
<g id="a_Node000012"><a xlink:href="classsisi4s_1_1SimilarityTransformedHamiltonian.html#a85f1b6cb6b3d4b6a97ee8878c459b7f5" target="_top" xlink:title=" ">
<polygon fill="white" stroke="#666666" points="341,-103.5 183.25,-103.5 183.25,-57.25 341,-57.25 341,-103.5"/>
<text text-anchor="start" x="191.25" y="-90" font-family="Helvetica,sans-Serif" font-size="10.00">sisi4s::SimilarityTransformed</text>
<text text-anchor="start" x="191.25" y="-77.25" font-family="Helvetica,sans-Serif" font-size="10.00">Hamiltonian::right_apply</text>
<text text-anchor="middle" x="262.12" y="-64.5" font-family="Helvetica,sans-Serif" font-size="10.00">_CCSD_EA</text>
</a>
</g>
</g>
<!-- Node1&#45;&gt;Node12 -->
<g id="edge17_Node000001_Node000012" class="edge">
<title>Node1&#45;&gt;Node12</title>
<g id="a_edge17_Node000001_Node000012"><a xlink:title=" ">
<path fill="none" stroke="#63b8ff" d="M95.29,-173.3C116.45,-156.35 150.76,-130.39 183.25,-112.38 185.43,-111.17 187.67,-109.98 189.94,-108.81"/>
<polygon fill="#63b8ff" stroke="#63b8ff" points="191.3,-112.04 198.75,-104.5 188.23,-105.75 191.3,-112.04"/>
</a>
</g>
</g>
<!-- Node13 -->
<g id="Node000013" class="node">
<title>Node13</title>
<g id="a_Node000013"><a xlink:href="namespacesisi4s.html#a2653420c2b1b1224ad8f6b1d538228f1" target="_top" xlink:title="Composes a tensor of complex elements containing of the given tensors of real and imaginary parts....">
<polygon fill="white" stroke="#666666" points="329.38,-20.75 194.88,-20.75 194.88,0 329.38,0 329.38,-20.75"/>
<text text-anchor="middle" x="262.12" y="-7.25" font-family="Helvetica,sans-Serif" font-size="10.00">sisi4s::toComplexTensor</text>
</a>
</g>
</g>
<!-- Node1&#45;&gt;Node13 -->
<g id="edge18_Node000001_Node000013" class="edge">
<title>Node1&#45;&gt;Node13</title>
<g id="a_edge18_Node000001_Node000013"><a xlink:title=" ">
<path fill="none" stroke="#63b8ff" d="M83.99,-173.46C100.68,-144.59 138.09,-85.33 183.25,-48.38 194.35,-39.29 207.97,-31.71 220.71,-25.76"/>
<polygon fill="#63b8ff" stroke="#63b8ff" points="222.01,-29.01 229.74,-21.77 219.18,-22.61 222.01,-29.01"/>
</a>
</g>
</g>
<!-- Node3 -->
<g id="Node000003" class="node">
<title>Node3</title>
<g id="a_Node000003"><a xlink:href="classsisi4s_1_1Algorithm.html#a1e53277220d32a33e20846267c253652" target="_top" xlink:title=" ">
<polygon fill="white" stroke="#666666" points="509.25,-309.12 405.5,-309.12 405.5,-275.62 509.25,-275.62 509.25,-309.12"/>
<text text-anchor="start" x="413.5" y="-295.62" font-family="Helvetica,sans-Serif" font-size="10.00">sisi4s::Algorithm::</text>
<text text-anchor="middle" x="457.38" y="-282.88" font-family="Helvetica,sans-Serif" font-size="10.00">getArgumentData</text>
</a>
</g>
</g>
<!-- Node2&#45;&gt;Node3 -->
<g id="edge2_Node000002_Node000003" class="edge">
<title>Node2&#45;&gt;Node3</title>
<g id="a_edge2_Node000002_Node000003"><a xlink:title=" ">
<path fill="none" stroke="#63b8ff" d="M319.54,-330.61C343.02,-324.05 370.35,-316.41 394.38,-309.7"/>
<polygon fill="#63b8ff" stroke="#63b8ff" points="395.02,-313.15 403.71,-307.09 393.14,-306.41 395.02,-313.15"/>
</a>
</g>
</g>
<!-- Node5 -->
<g id="Node000005" class="node">
<title>Node5</title>
<g id="a_Node000005"><a xlink:href="classsisi4s_1_1Data.html#a0ec0b1c7f2356fd43d82ee1dd0246789" target="_top" xlink:title=" ">
<polygon fill="white" stroke="#666666" points="530.62,-254.75 384.12,-254.75 384.12,-234 530.62,-234 530.62,-254.75"/>
<text text-anchor="middle" x="457.38" y="-241.25" font-family="Helvetica,sans-Serif" font-size="10.00">sisi4s::Data::getTypeName</text>
</a>
</g>
</g>
<!-- Node2&#45;&gt;Node5 -->
<g id="edge4_Node000002_Node000005" class="edge">
<title>Node2&#45;&gt;Node5</title>
<g id="a_edge4_Node000002_Node000005"><a xlink:title=" ">
<path fill="none" stroke="#63b8ff" d="M319.43,-332.61C327.1,-329.33 334.54,-325.31 341,-320.38 363.92,-302.86 353.64,-283.29 377,-266.38 380.38,-263.92 384.03,-261.75 387.83,-259.81"/>
<polygon fill="#63b8ff" stroke="#63b8ff" points="389.08,-263.09 396.81,-255.85 386.25,-256.68 389.08,-263.09"/>
</a>
</g>
</g>
<!-- Node4 -->
<g id="Node000004" class="node">
<title>Node4</title>
<g id="a_Node000004"><a xlink:href="classsisi4s_1_1Data.html#a5b4676e48b4f437d399587e6903f896a" target="_top" xlink:title=" ">
<polygon fill="white" stroke="#666666" points="668.5,-302.75 573.75,-302.75 573.75,-282 668.5,-282 668.5,-302.75"/>
<text text-anchor="middle" x="621.12" y="-289.25" font-family="Helvetica,sans-Serif" font-size="10.00">sisi4s::Data::get</text>
</a>
</g>
</g>
<!-- Node3&#45;&gt;Node4 -->
<g id="edge3_Node000003_Node000004" class="edge">
<title>Node3&#45;&gt;Node4</title>
<g id="a_edge3_Node000003_Node000004"><a xlink:title=" ">
<path fill="none" stroke="#63b8ff" d="M509.55,-292.38C526.33,-292.38 545.09,-292.38 562.33,-292.38"/>
<polygon fill="#63b8ff" stroke="#63b8ff" points="561.88,-295.88 571.88,-292.38 561.88,-288.88 561.88,-295.88"/>
</a>
</g>
</g>
<!-- Node6&#45;&gt;Node3 -->
<g id="edge6_Node000006_Node000003" class="edge">
<title>Node6&#45;&gt;Node3</title>
<g id="a_edge6_Node000006_Node000003"><a xlink:title=" ">
<path fill="none" stroke="#63b8ff" d="M314.26,-202.58C323.65,-206.14 332.99,-210.66 341,-216.38 362.42,-231.66 355.8,-247.79 377,-263.38 382.51,-267.42 388.64,-270.96 394.99,-274.03"/>
<polygon fill="#63b8ff" stroke="#63b8ff" points="393.13,-277.04 403.7,-277.88 395.96,-270.64 393.13,-277.04"/>
</a>
</g>
</g>
<!-- Node6&#45;&gt;Node5 -->
<g id="edge9_Node000006_Node000005" class="edge">
<title>Node6&#45;&gt;Node5</title>
<g id="a_edge9_Node000006_Node000005"><a xlink:title=" ">
<path fill="none" stroke="#63b8ff" d="M314.42,-204.83C334,-210.34 356.53,-216.66 377,-222.38 386.51,-225.03 396.66,-227.85 406.41,-230.56"/>
<polygon fill="#63b8ff" stroke="#63b8ff" points="405.18,-233.85 415.75,-233.14 407.05,-227.1 405.18,-233.85"/>
</a>
</g>
</g>
<!-- Node7 -->
<g id="Node000007" class="node">
<title>Node7</title>
<g id="a_Node000007"><a xlink:href="classsisi4s_1_1Algorithm.html#a1cb9a5e8f19cd8e6b70bb06738ca9413" target="_top" xlink:title=" ">
<polygon fill="white" stroke="#666666" points="537.75,-213.12 377,-213.12 377,-179.62 537.75,-179.62 537.75,-213.12"/>
<text text-anchor="start" x="385" y="-199.62" font-family="Helvetica,sans-Serif" font-size="10.00">sisi4s::Algorithm::</text>
<text text-anchor="middle" x="457.38" y="-186.88" font-family="Helvetica,sans-Serif" font-size="10.00">getRealArgumentFromInteger</text>
</a>
</g>
</g>
<!-- Node6&#45;&gt;Node7 -->
<g id="edge7_Node000006_Node000007" class="edge">
<title>Node6&#45;&gt;Node7</title>
<g id="a_edge7_Node000006_Node000007"><a xlink:title=" ">
<path fill="none" stroke="#63b8ff" d="M314.41,-191.97C330.09,-192.45 347.84,-193.01 365.34,-193.55"/>
<polygon fill="#63b8ff" stroke="#63b8ff" points="365.16,-197.04 375.27,-193.86 365.38,-190.05 365.16,-197.04"/>
</a>
</g>
</g>
<!-- Node8 -->
<g id="Node000008" class="node">
<title>Node8</title>
<g id="a_Node000008"><a xlink:href="classsisi4s_1_1Algorithm.html#a89e59623f1c238a871a4fba19371be7d" target="_top" xlink:title=" ">
<polygon fill="white" stroke="#666666" points="536.25,-161.12 378.5,-161.12 378.5,-127.62 536.25,-127.62 536.25,-161.12"/>
<text text-anchor="start" x="386.5" y="-147.62" font-family="Helvetica,sans-Serif" font-size="10.00">sisi4s::Algorithm::</text>
<text text-anchor="middle" x="457.38" y="-134.88" font-family="Helvetica,sans-Serif" font-size="10.00">getRealArgumentFromTensor</text>
</a>
</g>
</g>
<!-- Node6&#45;&gt;Node8 -->
<g id="edge8_Node000006_Node000008" class="edge">
<title>Node6&#45;&gt;Node8</title>
<g id="a_edge8_Node000006_Node000008"><a xlink:title=" ">
<path fill="none" stroke="#63b8ff" d="M314.41,-178.17C332.43,-173.88 353.17,-168.94 373.13,-164.19"/>
<polygon fill="#63b8ff" stroke="#63b8ff" points="373.73,-167.65 382.65,-161.92 372.11,-160.84 373.73,-167.65"/>
</a>
</g>
</g>
<!-- Node9&#45;&gt;Node3 -->
<g id="edge11_Node000009_Node000003" class="edge">
<title>Node9&#45;&gt;Node3</title>
<g id="a_edge11_Node000009_Node000003"><a xlink:title=" ">
<path fill="none" stroke="#63b8ff" d="M318.24,-293.8C341.84,-293.56 369.51,-293.27 393.87,-293.02"/>
<polygon fill="#63b8ff" stroke="#63b8ff" points="393.68,-296.52 403.65,-292.92 393.61,-289.52 393.68,-296.52"/>
</a>
</g>
</g>
<!-- Node9&#45;&gt;Node5 -->
<g id="edge12_Node000009_Node000005" class="edge">
<title>Node9&#45;&gt;Node5</title>
<g id="a_edge12_Node000009_Node000005"><a xlink:title=" ">
<path fill="none" stroke="#63b8ff" d="M318.24,-280.11C344.99,-273.19 376.98,-264.92 403.43,-258.07"/>
<polygon fill="#63b8ff" stroke="#63b8ff" points="404.13,-261.51 412.93,-255.62 402.37,-254.73 404.13,-261.51"/>
</a>
</g>
</g>
<!-- Node10&#45;&gt;Node3 -->
<g id="edge14_Node000010_Node000003" class="edge">
<title>Node10&#45;&gt;Node3</title>
<g id="a_edge14_Node000010_Node000003"><a xlink:title=" ">
<path fill="none" stroke="#63b8ff" d="M314.41,-255.64C338.96,-262 368.58,-269.66 394.39,-276.34"/>
<polygon fill="#63b8ff" stroke="#63b8ff" points="393.17,-279.64 403.73,-278.75 394.92,-272.86 393.17,-279.64"/>
</a>
</g>
</g>
<!-- Node10&#45;&gt;Node5 -->
<g id="edge15_Node000010_Node000005" class="edge">
<title>Node10&#45;&gt;Node5</title>
<g id="a_edge15_Node000010_Node000005"><a xlink:title=" ">
<path fill="none" stroke="#63b8ff" d="M314.41,-242.91C332.17,-243.09 352.57,-243.3 372.27,-243.5"/>
<polygon fill="#63b8ff" stroke="#63b8ff" points="372.21,-247 382.24,-243.61 372.28,-240 372.21,-247"/>
</a>
</g>
</g>
<!-- Node13&#45;&gt;Node13 -->
<g id="edge19_Node000013_Node000013" class="edge">
<title>Node13&#45;&gt;Node13</title>
<g id="a_edge19_Node000013_Node000013"><a xlink:title=" ">
<path fill="none" stroke="#63b8ff" d="M231.75,-21.15C219.6,-29.81 229.73,-38.75 262.12,-38.75 279.84,-38.75 290.9,-36.08 295.29,-32.24"/>
<polygon fill="#63b8ff" stroke="#63b8ff" points="298.71,-31.46 292.87,-22.61 291.92,-33.17 298.71,-31.46"/>
</a>
</g>
</g>
</g>
</svg>
