<?xml version="1.0" encoding="UTF-8" standalone="no"?>
<!DOCTYPE svg PUBLIC "-//W3C//DTD SVG 1.1//EN"
 "http://www.w3.org/Graphics/SVG/1.1/DTD/svg11.dtd">
<!-- Generated by graphviz version 9.0.0 (0)
 -->
<!-- Title: sisi4s::FockVector&lt; F &gt; Pages: 1 -->
<svg width="518pt" height="1154pt"
 viewBox="0.00 0.00 518.00 1153.50" xmlns="http://www.w3.org/2000/svg" xmlns:xlink="http://www.w3.org/1999/xlink">
<g id="graph0" class="graph" transform="scale(1 1) rotate(0) translate(4 1149.5)">
<title>sisi4s::FockVector&lt; F &gt;</title>
<!-- Node1 -->
<g id="Node000001" class="node">
<title>Node1</title>
<g id="a_Node000001"><a xlink:title="Represents the direct sum of Tensors and provides the vector space operations of addition,...">
<polygon fill="#999999" stroke="none" points="274,-1145.5 130,-1145.5 130,-837.5 274,-837.5 274,-1145.5"/>
<text text-anchor="start" x="144.25" y="-1132" font-family="Helvetica,sans-Serif" font-size="10.00">sisi4s::FockVector&lt; F &gt;</text>
<text text-anchor="start" x="133.88" y="-1116" font-family="Helvetica,sans-Serif" font-size="10.00">+</text>
<text text-anchor="start" x="146" y="-1116" font-family="Helvetica,sans-Serif" font-size="10.00">component_tensors</text>
<text text-anchor="start" x="133.88" y="-1100" font-family="Helvetica,sans-Serif" font-size="10.00">+</text>
<text text-anchor="start" x="146" y="-1100" font-family="Helvetica,sans-Serif" font-size="10.00">component_indices</text>
<text text-anchor="start" x="133.88" y="-1084" font-family="Helvetica,sans-Serif" font-size="10.00">#</text>
<text text-anchor="start" x="146" y="-1084" font-family="Helvetica,sans-Serif" font-size="10.00">index_ends</text>
<text text-anchor="start" x="133.88" y="-1068" font-family="Helvetica,sans-Serif" font-size="10.00">+</text>
<text text-anchor="start" x="146" y="-1068" font-family="Helvetica,sans-Serif" font-size="10.00">FockVector()</text>
<text text-anchor="start" x="133.88" y="-1052" font-family="Helvetica,sans-Serif" font-size="10.00">+</text>
<text text-anchor="start" x="146" y="-1052" font-family="Helvetica,sans-Serif" font-size="10.00">FockVector()</text>
<text text-anchor="start" x="133.88" y="-1036" font-family="Helvetica,sans-Serif" font-size="10.00">+</text>
<text text-anchor="start" x="146" y="-1036" font-family="Helvetica,sans-Serif" font-size="10.00">FockVector()</text>
<text text-anchor="start" x="133.88" y="-1020" font-family="Helvetica,sans-Serif" font-size="10.00">+</text>
<text text-anchor="start" x="146" y="-1020" font-family="Helvetica,sans-Serif" font-size="10.00">FockVector()</text>
<text text-anchor="start" x="133.88" y="-1004" font-family="Helvetica,sans-Serif" font-size="10.00">+</text>
<text text-anchor="start" x="146" y="-1004" font-family="Helvetica,sans-Serif" font-size="10.00">FockVector()</text>
<text text-anchor="start" x="133.88" y="-988" font-family="Helvetica,sans-Serif" font-size="10.00">+</text>
<text text-anchor="start" x="146" y="-988" font-family="Helvetica,sans-Serif" font-size="10.00">get()</text>
<text text-anchor="start" x="133.88" y="-972" font-family="Helvetica,sans-Serif" font-size="10.00">+</text>
<text text-anchor="start" x="146" y="-972" font-family="Helvetica,sans-Serif" font-size="10.00">get()</text>
<text text-anchor="start" x="133.88" y="-956" font-family="Helvetica,sans-Serif" font-size="10.00">+</text>
<text text-anchor="start" x="146" y="-956" font-family="Helvetica,sans-Serif" font-size="10.00">get_indices()</text>
<text text-anchor="start" x="133.88" y="-940" font-family="Helvetica,sans-Serif" font-size="10.00">+</text>
<text text-anchor="start" x="146" y="-940" font-family="Helvetica,sans-Serif" font-size="10.00">get_indices()</text>
<text text-anchor="start" x="133.88" y="-924" font-family="Helvetica,sans-Serif" font-size="10.00">+</text>
<text text-anchor="start" x="146" y="-924" font-family="Helvetica,sans-Serif" font-size="10.00">operator=()</text>
<text text-anchor="start" x="146" y="-908" font-family="Helvetica,sans-Serif" font-size="10.00">and 13 more...</text>
<text text-anchor="start" x="133.88" y="-892" font-family="Helvetica,sans-Serif" font-size="10.00">#</text>
<text text-anchor="start" x="146" y="-892" font-family="Helvetica,sans-Serif" font-size="10.00">build_index_translation()</text>
<text text-anchor="start" x="133.88" y="-876" font-family="Helvetica,sans-Serif" font-size="10.00">#</text>
<text text-anchor="start" x="146" y="-876" font-family="Helvetica,sans-Serif" font-size="10.00">copy_components()</text>
<text text-anchor="start" x="133.88" y="-860" font-family="Helvetica,sans-Serif" font-size="10.00">#</text>
<text text-anchor="start" x="146" y="-860" font-family="Helvetica,sans-Serif" font-size="10.00">checkDualCompatibility()</text>
<text text-anchor="start" x="133.88" y="-844" font-family="Helvetica,sans-Serif" font-size="10.00">#</text>
<text text-anchor="start" x="146" y="-844" font-family="Helvetica,sans-Serif" font-size="10.00">checkCompatibilityTo()</text>
<polygon fill="#666666" stroke="#666666" points="130,-1127.5 130,-1127.5 274,-1127.5 274,-1127.5 130,-1127.5"/>
<polygon fill="#666666" stroke="#666666" points="130,-1079.5 130,-1079.5 144,-1079.5 144,-1079.5 130,-1079.5"/>
<polygon fill="#666666" stroke="#666666" points="144,-1079.5 144,-1079.5 274,-1079.5 274,-1079.5 144,-1079.5"/>
<polygon fill="none" stroke="#666666" points="130,-837.5 130,-1145.5 274,-1145.5 274,-837.5 130,-837.5"/>
</a>
</g>
</g>
<!-- Node2 -->
<g id="Node000002" class="node">
<title>Node2</title>
<g id="a_Node000002"><a xlink:href="classsisi4s_1_1FockVector.html" target="_top" xlink:title=" ">
<polygon fill="white" stroke="none" points="274,-788.75 130,-788.75 130,-480.75 274,-480.75 274,-788.75"/>
<text text-anchor="start" x="144.25" y="-775.25" font-family="Helvetica,sans-Serif" font-size="10.00">sisi4s::FockVector&lt; F &gt;</text>
<text text-anchor="start" x="133.88" y="-759.25" font-family="Helvetica,sans-Serif" font-size="10.00">+</text>
<text text-anchor="start" x="146" y="-759.25" font-family="Helvetica,sans-Serif" font-size="10.00">component_tensors</text>
<text text-anchor="start" x="133.88" y="-743.25" font-family="Helvetica,sans-Serif" font-size="10.00">+</text>
<text text-anchor="start" x="146" y="-743.25" font-family="Helvetica,sans-Serif" font-size="10.00">component_indices</text>
<text text-anchor="start" x="133.88" y="-727.25" font-family="Helvetica,sans-Serif" font-size="10.00">#</text>
<text text-anchor="start" x="146" y="-727.25" font-family="Helvetica,sans-Serif" font-size="10.00">index_ends</text>
<text text-anchor="start" x="133.88" y="-711.25" font-family="Helvetica,sans-Serif" font-size="10.00">+</text>
<text text-anchor="start" x="146" y="-711.25" font-family="Helvetica,sans-Serif" font-size="10.00">FockVector()</text>
<text text-anchor="start" x="133.88" y="-695.25" font-family="Helvetica,sans-Serif" font-size="10.00">+</text>
<text text-anchor="start" x="146" y="-695.25" font-family="Helvetica,sans-Serif" font-size="10.00">FockVector()</text>
<text text-anchor="start" x="133.88" y="-679.25" font-family="Helvetica,sans-Serif" font-size="10.00">+</text>
<text text-anchor="start" x="146" y="-679.25" font-family="Helvetica,sans-Serif" font-size="10.00">FockVector()</text>
<text text-anchor="start" x="133.88" y="-663.25" font-family="Helvetica,sans-Serif" font-size="10.00">+</text>
<text text-anchor="start" x="146" y="-663.25" font-family="Helvetica,sans-Serif" font-size="10.00">FockVector()</text>
<text text-anchor="start" x="133.88" y="-647.25" font-family="Helvetica,sans-Serif" font-size="10.00">+</text>
<text text-anchor="start" x="146" y="-647.25" font-family="Helvetica,sans-Serif" font-size="10.00">FockVector()</text>
<text text-anchor="start" x="133.88" y="-631.25" font-family="Helvetica,sans-Serif" font-size="10.00">+</text>
<text text-anchor="start" x="146" y="-631.25" font-family="Helvetica,sans-Serif" font-size="10.00">get()</text>
<text text-anchor="start" x="133.88" y="-615.25" font-family="Helvetica,sans-Serif" font-size="10.00">+</text>
<text text-anchor="start" x="146" y="-615.25" font-family="Helvetica,sans-Serif" font-size="10.00">get()</text>
<text text-anchor="start" x="133.88" y="-599.25" font-family="Helvetica,sans-Serif" font-size="10.00">+</text>
<text text-anchor="start" x="146" y="-599.25" font-family="Helvetica,sans-Serif" font-size="10.00">get_indices()</text>
<text text-anchor="start" x="133.88" y="-583.25" font-family="Helvetica,sans-Serif" font-size="10.00">+</text>
<text text-anchor="start" x="146" y="-583.25" font-family="Helvetica,sans-Serif" font-size="10.00">get_indices()</text>
<text text-anchor="start" x="133.88" y="-567.25" font-family="Helvetica,sans-Serif" font-size="10.00">+</text>
<text text-anchor="start" x="146" y="-567.25" font-family="Helvetica,sans-Serif" font-size="10.00">operator=()</text>
<text text-anchor="start" x="146" y="-551.25" font-family="Helvetica,sans-Serif" font-size="10.00">and 13 more...</text>
<text text-anchor="start" x="133.88" y="-535.25" font-family="Helvetica,sans-Serif" font-size="10.00">#</text>
<text text-anchor="start" x="146" y="-535.25" font-family="Helvetica,sans-Serif" font-size="10.00">build_index_translation()</text>
<text text-anchor="start" x="133.88" y="-519.25" font-family="Helvetica,sans-Serif" font-size="10.00">#</text>
<text text-anchor="start" x="146" y="-519.25" font-family="Helvetica,sans-Serif" font-size="10.00">copy_components()</text>
<text text-anchor="start" x="133.88" y="-503.25" font-family="Helvetica,sans-Serif" font-size="10.00">#</text>
<text text-anchor="start" x="146" y="-503.25" font-family="Helvetica,sans-Serif" font-size="10.00">checkDualCompatibility()</text>
<text text-anchor="start" x="133.88" y="-487.25" font-family="Helvetica,sans-Serif" font-size="10.00">#</text>
<text text-anchor="start" x="146" y="-487.25" font-family="Helvetica,sans-Serif" font-size="10.00">checkCompatibilityTo()</text>
<polygon fill="#666666" stroke="#666666" points="130,-770.75 130,-770.75 274,-770.75 274,-770.75 130,-770.75"/>
<polygon fill="#666666" stroke="#666666" points="130,-722.75 130,-722.75 144,-722.75 144,-722.75 130,-722.75"/>
<polygon fill="#666666" stroke="#666666" points="144,-722.75 144,-722.75 274,-722.75 274,-722.75 144,-722.75"/>
<polygon fill="none" stroke="#666666" points="130,-480.75 130,-788.75 274,-788.75 274,-480.75 130,-480.75"/>
</a>
</g>
</g>
<!-- Node1&#45;&gt;Node2 -->
<g id="edge1_Node000001_Node000002" class="edge">
<title>Node1&#45;&gt;Node2</title>
<g id="a_edge1_Node000001_Node000002"><a xlink:title=" ">
<path fill="none" stroke="orange" d="M202,-826.6C202,-813.9 202,-801.1 202,-788.48"/>
<polygon fill="orange" stroke="orange" points="198.5,-826.22 202,-836.22 205.5,-826.22 198.5,-826.22"/>
</a>
</g>
<text text-anchor="middle" x="217.75" y="-810" font-family="Helvetica,sans-Serif" font-size="10.00" fill="grey"> &lt; F &gt;</text>
</g>
<!-- Node3 -->
<g id="Node000003" class="node">
<title>Node3</title>
<g id="a_Node000003"><a xlink:href="classsisi4s_1_1FockVectorNdCanonical.html" target="_top" xlink:title=" ">
<polygon fill="white" stroke="none" points="158,-282 0,-282 0,-169 158,-169 158,-282"/>
<text text-anchor="start" x="4.75" y="-268.5" font-family="Helvetica,sans-Serif" font-size="10.00">sisi4s::FockVectorNdCanonical</text>
<text text-anchor="start" x="52.75" y="-255.75" font-family="Helvetica,sans-Serif" font-size="10.00">&lt; F, 2, 1 &gt;</text>
<text text-anchor="start" x="77.5" y="-239.5" font-family="Helvetica,sans-Serif" font-size="10.00"> </text>
<text text-anchor="start" x="7.88" y="-223.5" font-family="Helvetica,sans-Serif" font-size="10.00">+</text>
<text text-anchor="start" x="24" y="-223.5" font-family="Helvetica,sans-Serif" font-size="10.00">FockVectorNdCanonical()</text>
<text text-anchor="start" x="7.88" y="-207.5" font-family="Helvetica,sans-Serif" font-size="10.00">+</text>
<text text-anchor="start" x="24" y="-207.5" font-family="Helvetica,sans-Serif" font-size="10.00">FockVectorNdCanonical()</text>
<text text-anchor="start" x="7.88" y="-191.5" font-family="Helvetica,sans-Serif" font-size="10.00">+</text>
<text text-anchor="start" x="24" y="-191.5" font-family="Helvetica,sans-Serif" font-size="10.00">FockVectorNdCanonical()</text>
<text text-anchor="start" x="7.88" y="-175.5" font-family="Helvetica,sans-Serif" font-size="10.00">+</text>
<text text-anchor="start" x="24" y="-175.5" font-family="Helvetica,sans-Serif" font-size="10.00">FockVectorNdCanonical()</text>
<polygon fill="#666666" stroke="#666666" points="0,-251 0,-251 158,-251 158,-251 0,-251"/>
<polygon fill="#666666" stroke="#666666" points="0,-235 0,-235 158,-235 158,-235 0,-235"/>
<polygon fill="none" stroke="#666666" points="0,-169 0,-282 158,-282 158,-169 0,-169"/>
</a>
</g>
</g>
<!-- Node2&#45;&gt;Node3 -->
<g id="edge2_Node000002_Node000003" class="edge">
<title>Node2&#45;&gt;Node3</title>
<g id="a_edge2_Node000002_Node000003"><a xlink:title=" ">
<path fill="none" stroke="#63b8ff" d="M142.33,-470.14C141.54,-467.67 140.76,-465.2 140,-462.75 120.88,-401.49 103.02,-330 91.64,-281.84"/>
<polygon fill="none" stroke="#63b8ff" points="139,-471.21 145.41,-479.65 145.66,-469.06 139,-471.21"/>
</a>
</g>
</g>
<!-- Node5 -->
<g id="Node000005" class="node">
<title>Node5</title>
<g id="a_Node000005"><a xlink:href="classsisi4s_1_1FockVectorNdCanonical.html" target="_top" xlink:title=" ">
<polygon fill="white" stroke="none" points="510,-282 352,-282 352,-169 510,-169 510,-282"/>
<text text-anchor="start" x="356.75" y="-268.5" font-family="Helvetica,sans-Serif" font-size="10.00">sisi4s::FockVectorNdCanonical</text>
<text text-anchor="start" x="404.75" y="-255.75" font-family="Helvetica,sans-Serif" font-size="10.00">&lt; F, 3, 1 &gt;</text>
<text text-anchor="start" x="429.5" y="-239.5" font-family="Helvetica,sans-Serif" font-size="10.00"> </text>
<text text-anchor="start" x="359.88" y="-223.5" font-family="Helvetica,sans-Serif" font-size="10.00">+</text>
<text text-anchor="start" x="376" y="-223.5" font-family="Helvetica,sans-Serif" font-size="10.00">FockVectorNdCanonical()</text>
<text text-anchor="start" x="359.88" y="-207.5" font-family="Helvetica,sans-Serif" font-size="10.00">+</text>
<text text-anchor="start" x="376" y="-207.5" font-family="Helvetica,sans-Serif" font-size="10.00">FockVectorNdCanonical()</text>
<text text-anchor="start" x="359.88" y="-191.5" font-family="Helvetica,sans-Serif" font-size="10.00">+</text>
<text text-anchor="start" x="376" y="-191.5" font-family="Helvetica,sans-Serif" font-size="10.00">FockVectorNdCanonical()</text>
<text text-anchor="start" x="359.88" y="-175.5" font-family="Helvetica,sans-Serif" font-size="10.00">+</text>
<text text-anchor="start" x="376" y="-175.5" font-family="Helvetica,sans-Serif" font-size="10.00">FockVectorNdCanonical()</text>
<polygon fill="#666666" stroke="#666666" points="352,-251 352,-251 510,-251 510,-251 352,-251"/>
<polygon fill="#666666" stroke="#666666" points="352,-235 352,-235 510,-235 510,-235 352,-235"/>
<polygon fill="none" stroke="#666666" points="352,-169 352,-282 510,-282 510,-169 352,-169"/>
</a>
</g>
</g>
<!-- Node2&#45;&gt;Node5 -->
<g id="edge4_Node000002_Node000005" class="edge">
<title>Node2&#45;&gt;Node5</title>
<g id="a_edge4_Node000002_Node000005"><a xlink:title=" ">
<path fill="none" stroke="#63b8ff" d="M280.54,-535.98C302.25,-507.06 325.04,-474.81 344,-443.75 377.77,-388.44 385.32,-373.45 408,-312.75 411.69,-302.88 415.04,-292.17 417.97,-281.75"/>
<polygon fill="none" stroke="#63b8ff" points="277.99,-533.55 274.75,-543.64 283.57,-537.77 277.99,-533.55"/>
</a>
</g>
</g>
<!-- Node7 -->
<g id="Node000007" class="node">
<title>Node7</title>
<g id="a_Node000007"><a xlink:href="classsisi4s_1_1FockVectorNdCanonical.html" target="_top" xlink:title=" ">
<polygon fill="white" stroke="none" points="334,-282 176,-282 176,-169 334,-169 334,-282"/>
<text text-anchor="start" x="180.75" y="-268.5" font-family="Helvetica,sans-Serif" font-size="10.00">sisi4s::FockVectorNdCanonical</text>
<text text-anchor="start" x="228.75" y="-255.75" font-family="Helvetica,sans-Serif" font-size="10.00">&lt; F, 1, 1 &gt;</text>
<text text-anchor="start" x="253.5" y="-239.5" font-family="Helvetica,sans-Serif" font-size="10.00"> </text>
<text text-anchor="start" x="183.88" y="-223.5" font-family="Helvetica,sans-Serif" font-size="10.00">+</text>
<text text-anchor="start" x="200" y="-223.5" font-family="Helvetica,sans-Serif" font-size="10.00">FockVectorNdCanonical()</text>
<text text-anchor="start" x="183.88" y="-207.5" font-family="Helvetica,sans-Serif" font-size="10.00">+</text>
<text text-anchor="start" x="200" y="-207.5" font-family="Helvetica,sans-Serif" font-size="10.00">FockVectorNdCanonical()</text>
<text text-anchor="start" x="183.88" y="-191.5" font-family="Helvetica,sans-Serif" font-size="10.00">+</text>
<text text-anchor="start" x="200" y="-191.5" font-family="Helvetica,sans-Serif" font-size="10.00">FockVectorNdCanonical()</text>
<text text-anchor="start" x="183.88" y="-175.5" font-family="Helvetica,sans-Serif" font-size="10.00">+</text>
<text text-anchor="start" x="200" y="-175.5" font-family="Helvetica,sans-Serif" font-size="10.00">FockVectorNdCanonical()</text>
<polygon fill="#666666" stroke="#666666" points="176,-251 176,-251 334,-251 334,-251 176,-251"/>
<polygon fill="#666666" stroke="#666666" points="176,-235 176,-235 334,-235 334,-235 176,-235"/>
<polygon fill="none" stroke="#666666" points="176,-169 176,-282 334,-282 334,-169 176,-169"/>
</a>
</g>
</g>
<!-- Node2&#45;&gt;Node7 -->
<g id="edge6_Node000002_Node000007" class="edge">
<title>Node2&#45;&gt;Node7</title>
<g id="a_edge6_Node000002_Node000007"><a xlink:title=" ">
<path fill="none" stroke="#63b8ff" d="M145.29,-469.94C135.04,-413.75 134.5,-351.98 160,-300 164.13,-291.58 169.75,-283.84 176.2,-276.82"/>
<polygon fill="none" stroke="#63b8ff" points="141.83,-470.47 147.18,-479.61 148.7,-469.13 141.83,-470.47"/>
</a>
</g>
</g>
<!-- Node9 -->
<g id="Node000009" class="node">
<title>Node9</title>
<g id="a_Node000009"><a xlink:href="classsisi4s_1_1FockVectorNdCanonical.html" target="_top" xlink:title=" ">
<polygon fill="white" stroke="none" points="335,-443.75 177,-443.75 177,-330.75 335,-330.75 335,-443.75"/>
<text text-anchor="start" x="181.75" y="-430.25" font-family="Helvetica,sans-Serif" font-size="10.00">sisi4s::FockVectorNdCanonical</text>
<text text-anchor="start" x="194.12" y="-417.5" font-family="Helvetica,sans-Serif" font-size="10.00">&lt; F, N, StartDimension &gt;</text>
<text text-anchor="start" x="254.5" y="-401.25" font-family="Helvetica,sans-Serif" font-size="10.00"> </text>
<text text-anchor="start" x="184.88" y="-385.25" font-family="Helvetica,sans-Serif" font-size="10.00">+</text>
<text text-anchor="start" x="201" y="-385.25" font-family="Helvetica,sans-Serif" font-size="10.00">FockVectorNdCanonical()</text>
<text text-anchor="start" x="184.88" y="-369.25" font-family="Helvetica,sans-Serif" font-size="10.00">+</text>
<text text-anchor="start" x="201" y="-369.25" font-family="Helvetica,sans-Serif" font-size="10.00">FockVectorNdCanonical()</text>
<text text-anchor="start" x="184.88" y="-353.25" font-family="Helvetica,sans-Serif" font-size="10.00">+</text>
<text text-anchor="start" x="201" y="-353.25" font-family="Helvetica,sans-Serif" font-size="10.00">FockVectorNdCanonical()</text>
<text text-anchor="start" x="184.88" y="-337.25" font-family="Helvetica,sans-Serif" font-size="10.00">+</text>
<text text-anchor="start" x="201" y="-337.25" font-family="Helvetica,sans-Serif" font-size="10.00">FockVectorNdCanonical()</text>
<polygon fill="#666666" stroke="#666666" points="177,-412.75 177,-412.75 335,-412.75 335,-412.75 177,-412.75"/>
<polygon fill="#666666" stroke="#666666" points="177,-396.75 177,-396.75 335,-396.75 335,-396.75 177,-396.75"/>
<polygon fill="none" stroke="#666666" points="177,-330.75 177,-443.75 335,-443.75 335,-330.75 177,-330.75"/>
</a>
</g>
</g>
<!-- Node2&#45;&gt;Node9 -->
<g id="edge8_Node000002_Node000009" class="edge">
<title>Node2&#45;&gt;Node9</title>
<g id="a_edge8_Node000002_Node000009"><a xlink:title=" ">
<path fill="none" stroke="#63b8ff" d="M238,-470.09C240.03,-460.86 241.98,-451.98 243.8,-443.7"/>
<polygon fill="none" stroke="#63b8ff" points="234.64,-469.07 235.91,-479.58 241.48,-470.57 234.64,-469.07"/>
</a>
</g>
</g>
<!-- Node4 -->
<g id="Node000004" class="node">
<title>Node4</title>
<g id="a_Node000004"><a xlink:href="classsisi4s_1_1SDFockVector.html" target="_top" xlink:title=" ">
<polygon fill="white" stroke="none" points="148.5,-132 9.5,-132 9.5,0 148.5,0 148.5,-132"/>
<text text-anchor="start" x="14.5" y="-118.5" font-family="Helvetica,sans-Serif" font-size="10.00">sisi4s::SDFockVector&lt; F &gt;</text>
<text text-anchor="start" x="77.5" y="-102.5" font-family="Helvetica,sans-Serif" font-size="10.00"> </text>
<text text-anchor="start" x="24.38" y="-86.5" font-family="Helvetica,sans-Serif" font-size="10.00">+</text>
<text text-anchor="start" x="47.5" y="-86.5" font-family="Helvetica,sans-Serif" font-size="10.00">SDFockVector()</text>
<text text-anchor="start" x="24.38" y="-70.5" font-family="Helvetica,sans-Serif" font-size="10.00">+</text>
<text text-anchor="start" x="47.5" y="-70.5" font-family="Helvetica,sans-Serif" font-size="10.00">SDFockVector()</text>
<text text-anchor="start" x="24.38" y="-54.5" font-family="Helvetica,sans-Serif" font-size="10.00">+</text>
<text text-anchor="start" x="47.5" y="-54.5" font-family="Helvetica,sans-Serif" font-size="10.00">SDFockVector()</text>
<text text-anchor="start" x="24.38" y="-38.5" font-family="Helvetica,sans-Serif" font-size="10.00">+</text>
<text text-anchor="start" x="47.5" y="-38.5" font-family="Helvetica,sans-Serif" font-size="10.00">operator=()</text>
<text text-anchor="start" x="24.38" y="-22.5" font-family="Helvetica,sans-Serif" font-size="10.00">+</text>
<text text-anchor="start" x="47.5" y="-22.5" font-family="Helvetica,sans-Serif" font-size="10.00">SDFockVector()</text>
<text text-anchor="start" x="24.38" y="-6.5" font-family="Helvetica,sans-Serif" font-size="10.00">+</text>
<text text-anchor="start" x="47.5" y="-6.5" font-family="Helvetica,sans-Serif" font-size="10.00">SDFockVector()</text>
<polygon fill="#666666" stroke="#666666" points="9.5,-114 9.5,-114 148.5,-114 148.5,-114 9.5,-114"/>
<polygon fill="#666666" stroke="#666666" points="9.5,-98 9.5,-98 148.5,-98 148.5,-98 9.5,-98"/>
<polygon fill="none" stroke="#666666" points="9.5,0 9.5,-132 148.5,-132 148.5,0 9.5,0"/>
</a>
</g>
</g>
<!-- Node3&#45;&gt;Node4 -->
<g id="edge3_Node000003_Node000004" class="edge">
<title>Node3&#45;&gt;Node4</title>
<g id="a_edge3_Node000003_Node000004"><a xlink:title=" ">
<path fill="none" stroke="#63b8ff" d="M79,-158.11C79,-149.4 79,-140.47 79,-131.78"/>
<polygon fill="none" stroke="#63b8ff" points="75.5,-157.9 79,-167.9 82.5,-157.9 75.5,-157.9"/>
</a>
</g>
</g>
<!-- Node6 -->
<g id="Node000006" class="node">
<title>Node6</title>
<g id="a_Node000006"><a xlink:href="classsisi4s_1_1SDTFockVector.html" target="_top" xlink:title=" ">
<polygon fill="white" stroke="none" points="503.5,-124 358.5,-124 358.5,-8 503.5,-8 503.5,-124"/>
<text text-anchor="start" x="363.5" y="-110.5" font-family="Helvetica,sans-Serif" font-size="10.00">sisi4s::SDTFockVector&lt; F &gt;</text>
<text text-anchor="start" x="429.5" y="-94.5" font-family="Helvetica,sans-Serif" font-size="10.00"> </text>
<text text-anchor="start" x="373.38" y="-78.5" font-family="Helvetica,sans-Serif" font-size="10.00">+</text>
<text text-anchor="start" x="396.5" y="-78.5" font-family="Helvetica,sans-Serif" font-size="10.00">SDTFockVector()</text>
<text text-anchor="start" x="373.38" y="-62.5" font-family="Helvetica,sans-Serif" font-size="10.00">+</text>
<text text-anchor="start" x="396.5" y="-62.5" font-family="Helvetica,sans-Serif" font-size="10.00">SDTFockVector()</text>
<text text-anchor="start" x="373.38" y="-46.5" font-family="Helvetica,sans-Serif" font-size="10.00">+</text>
<text text-anchor="start" x="396.5" y="-46.5" font-family="Helvetica,sans-Serif" font-size="10.00">SDTFockVector()</text>
<text text-anchor="start" x="373.38" y="-30.5" font-family="Helvetica,sans-Serif" font-size="10.00">+</text>
<text text-anchor="start" x="396.5" y="-30.5" font-family="Helvetica,sans-Serif" font-size="10.00">operator=()</text>
<text text-anchor="start" x="373.38" y="-14.5" font-family="Helvetica,sans-Serif" font-size="10.00">+</text>
<text text-anchor="start" x="396.5" y="-14.5" font-family="Helvetica,sans-Serif" font-size="10.00">operator=()</text>
<polygon fill="#666666" stroke="#666666" points="358.5,-106 358.5,-106 503.5,-106 503.5,-106 358.5,-106"/>
<polygon fill="#666666" stroke="#666666" points="358.5,-90 358.5,-90 503.5,-90 503.5,-90 358.5,-90"/>
<polygon fill="none" stroke="#666666" points="358.5,-8 358.5,-124 503.5,-124 503.5,-8 358.5,-8"/>
</a>
</g>
</g>
<!-- Node5&#45;&gt;Node6 -->
<g id="edge5_Node000005_Node000006" class="edge">
<title>Node5&#45;&gt;Node6</title>
<g id="a_edge5_Node000005_Node000006"><a xlink:title=" ">
<path fill="none" stroke="#63b8ff" d="M431,-158.18C431,-146.79 431,-135.04 431,-123.92"/>
<polygon fill="none" stroke="#63b8ff" points="427.5,-157.9 431,-167.9 434.5,-157.9 427.5,-157.9"/>
</a>
</g>
</g>
<!-- Node8 -->
<g id="Node000008" class="node">
<title>Node8</title>
<g id="a_Node000008"><a xlink:href="classsisi4s_1_1SFockVector.html" target="_top" xlink:title=" ">
<polygon fill="white" stroke="none" points="320.5,-124 189.5,-124 189.5,-8 320.5,-8 320.5,-124"/>
<text text-anchor="start" x="194.25" y="-110.5" font-family="Helvetica,sans-Serif" font-size="10.00">sisi4s::SFockVector&lt; F &gt;</text>
<text text-anchor="start" x="253.5" y="-94.5" font-family="Helvetica,sans-Serif" font-size="10.00"> </text>
<text text-anchor="start" x="204.38" y="-78.5" font-family="Helvetica,sans-Serif" font-size="10.00">+</text>
<text text-anchor="start" x="227.5" y="-78.5" font-family="Helvetica,sans-Serif" font-size="10.00">SFockVector()</text>
<text text-anchor="start" x="204.38" y="-62.5" font-family="Helvetica,sans-Serif" font-size="10.00">+</text>
<text text-anchor="start" x="227.5" y="-62.5" font-family="Helvetica,sans-Serif" font-size="10.00">SFockVector()</text>
<text text-anchor="start" x="204.38" y="-46.5" font-family="Helvetica,sans-Serif" font-size="10.00">+</text>
<text text-anchor="start" x="227.5" y="-46.5" font-family="Helvetica,sans-Serif" font-size="10.00">SFockVector()</text>
<text text-anchor="start" x="204.38" y="-30.5" font-family="Helvetica,sans-Serif" font-size="10.00">+</text>
<text text-anchor="start" x="227.5" y="-30.5" font-family="Helvetica,sans-Serif" font-size="10.00">operator=()</text>
<text text-anchor="start" x="204.38" y="-14.5" font-family="Helvetica,sans-Serif" font-size="10.00">+</text>
<text text-anchor="start" x="227.5" y="-14.5" font-family="Helvetica,sans-Serif" font-size="10.00">SFockVector()</text>
<polygon fill="#666666" stroke="#666666" points="189.5,-106 189.5,-106 320.5,-106 320.5,-106 189.5,-106"/>
<polygon fill="#666666" stroke="#666666" points="189.5,-90 189.5,-90 320.5,-90 320.5,-90 189.5,-90"/>
<polygon fill="none" stroke="#666666" points="189.5,-8 189.5,-124 320.5,-124 320.5,-8 189.5,-8"/>
</a>
</g>
</g>
<!-- Node7&#45;&gt;Node8 -->
<g id="edge7_Node000007_Node000008" class="edge">
<title>Node7&#45;&gt;Node8</title>
<g id="a_edge7_Node000007_Node000008"><a xlink:title=" ">
<path fill="none" stroke="#63b8ff" d="M255,-158.18C255,-146.79 255,-135.04 255,-123.92"/>
<polygon fill="none" stroke="#63b8ff" points="251.5,-157.9 255,-167.9 258.5,-157.9 251.5,-157.9"/>
</a>
</g>
</g>
<!-- Node9&#45;&gt;Node3 -->
<g id="edge9_Node000009_Node000003" class="edge">
<title>Node9&#45;&gt;Node3</title>
<g id="a_edge9_Node000009_Node000003"><a xlink:title=" ">
<path fill="none" stroke="orange" d="M186.25,-323.3C171.07,-309.6 155.12,-295.2 140.3,-281.83"/>
<polygon fill="orange" stroke="orange" points="183.7,-325.71 193.47,-329.81 188.39,-320.51 183.7,-325.71"/>
</a>
</g>
<text text-anchor="middle" x="200.75" y="-303.25" font-family="Helvetica,sans-Serif" font-size="10.00" fill="grey"> &lt; F, 2, 1 &gt;</text>
</g>
<!-- Node9&#45;&gt;Node5 -->
<g id="edge10_Node000009_Node000005" class="edge">
<title>Node9&#45;&gt;Node5</title>
<g id="a_edge10_Node000009_Node000005"><a xlink:title=" ">
<path fill="none" stroke="orange" d="M324.96,-323.3C339.97,-309.6 355.74,-295.2 370.39,-281.83"/>
<polygon fill="orange" stroke="orange" points="322.86,-320.48 317.83,-329.81 327.58,-325.65 322.86,-320.48"/>
</a>
</g>
<text text-anchor="middle" x="375.75" y="-303.25" font-family="Helvetica,sans-Serif" font-size="10.00" fill="grey"> &lt; F, 3, 1 &gt;</text>
</g>
<!-- Node9&#45;&gt;Node7 -->
<g id="edge11_Node000009_Node000007" class="edge">
<title>Node9&#45;&gt;Node7</title>
<g id="a_edge11_Node000009_Node000007"><a xlink:title=" ">
<path fill="none" stroke="orange" d="M255.58,-319.48C255.5,-306.94 255.42,-293.97 255.35,-281.83"/>
<polygon fill="orange" stroke="orange" points="252.08,-319.33 255.64,-329.31 259.08,-319.29 252.08,-319.33"/>
</a>
</g>
<text text-anchor="middle" x="282.75" y="-303.25" font-family="Helvetica,sans-Serif" font-size="10.00" fill="grey"> &lt; F, 1, 1 &gt;</text>
</g>
</g>
</svg>
