<?xml version="1.0" encoding="UTF-8" standalone="no"?>
<!DOCTYPE svg PUBLIC "-//W3C//DTD SVG 1.1//EN"
 "http://www.w3.org/Graphics/SVG/1.1/DTD/svg11.dtd">
<!-- Generated by graphviz version 5.0.1 (0)
 -->
<!-- Title: sisi4s::ScaLapackMatrix&lt; F &gt; Pages: 1 -->
<svg width="294pt" height="574pt"
 viewBox="0.00 0.00 294.00 574.00" xmlns="http://www.w3.org/2000/svg" xmlns:xlink="http://www.w3.org/1999/xlink">
<g id="graph0" class="graph" transform="scale(1 1) rotate(0) translate(4 570)">
<title>sisi4s::ScaLapackMatrix&lt; F &gt;</title>
<!-- Node1 -->
<g id="node1" class="node">
<title>Node1</title>
<g id="a_node1"><a xlink:title=" ">
<polygon fill="#bfbfbf" stroke="black" points="62,-237.5 62,-415.5 224,-415.5 224,-237.5 62,-237.5"/>
<text text-anchor="middle" x="143" y="-403.5" font-family="Helvetica,sans-Serif" font-size="10.00">sisi4s::ScaLapackMatrix&lt; F &gt;</text>
<polyline fill="none" stroke="black" points="62,-396.5 224,-396.5"/>
<text text-anchor="start" x="70" y="-384.5" font-family="Helvetica,sans-Serif" font-size="10.00"># blacsWorld</text>
<text text-anchor="start" x="70" y="-373.5" font-family="Helvetica,sans-Serif" font-size="10.00"># localIndices</text>
<text text-anchor="start" x="70" y="-362.5" font-family="Helvetica,sans-Serif" font-size="10.00"># localValues</text>
<polyline fill="none" stroke="black" points="62,-355.5 224,-355.5"/>
<text text-anchor="start" x="70" y="-343.5" font-family="Helvetica,sans-Serif" font-size="10.00">+ ScaLapackMatrix()</text>
<text text-anchor="start" x="70" y="-332.5" font-family="Helvetica,sans-Serif" font-size="10.00">+ ScaLapackMatrix()</text>
<text text-anchor="start" x="70" y="-321.5" font-family="Helvetica,sans-Serif" font-size="10.00">+ ScaLapackMatrix()</text>
<text text-anchor="start" x="70" y="-310.5" font-family="Helvetica,sans-Serif" font-size="10.00">+ ~ScaLapackMatrix()</text>
<text text-anchor="start" x="70" y="-299.5" font-family="Helvetica,sans-Serif" font-size="10.00">+ getDescriptor()</text>
<text text-anchor="start" x="70" y="-288.5" font-family="Helvetica,sans-Serif" font-size="10.00">+ getLocalValues()</text>
<text text-anchor="start" x="70" y="-277.5" font-family="Helvetica,sans-Serif" font-size="10.00">+ getLocalValues()</text>
<text text-anchor="start" x="70" y="-266.5" font-family="Helvetica,sans-Serif" font-size="10.00">+ write()</text>
<text text-anchor="start" x="70" y="-255.5" font-family="Helvetica,sans-Serif" font-size="10.00">+ write()</text>
<text text-anchor="start" x="70" y="-244.5" font-family="Helvetica,sans-Serif" font-size="10.00"># getGlobalIndex()</text>
</a>
</g>
</g>
<!-- Node3 -->
<g id="node3" class="node">
<title>Node3</title>
<g id="a_node3"><a xlink:href="classsisi4s_1_1ScaLapackMatrix.html" target="_top" xlink:title=" ">
<polygon fill="none" stroke="black" points="0,-0.5 0,-189.5 134,-189.5 134,-0.5 0,-0.5"/>
<text text-anchor="start" x="8" y="-177.5" font-family="Helvetica,sans-Serif" font-size="10.00">sisi4s::ScaLapackMatrix</text>
<text text-anchor="middle" x="67" y="-166.5" font-family="Helvetica,sans-Serif" font-size="10.00">&lt; complex &gt;</text>
<polyline fill="none" stroke="black" points="0,-159.5 134,-159.5"/>
<text text-anchor="start" x="8" y="-147.5" font-family="Helvetica,sans-Serif" font-size="10.00"># blacsWorld</text>
<text text-anchor="start" x="8" y="-136.5" font-family="Helvetica,sans-Serif" font-size="10.00"># localIndices</text>
<text text-anchor="start" x="8" y="-125.5" font-family="Helvetica,sans-Serif" font-size="10.00"># localValues</text>
<polyline fill="none" stroke="black" points="0,-118.5 134,-118.5"/>
<text text-anchor="start" x="8" y="-106.5" font-family="Helvetica,sans-Serif" font-size="10.00">+ ScaLapackMatrix()</text>
<text text-anchor="start" x="8" y="-95.5" font-family="Helvetica,sans-Serif" font-size="10.00">+ ScaLapackMatrix()</text>
<text text-anchor="start" x="8" y="-84.5" font-family="Helvetica,sans-Serif" font-size="10.00">+ ScaLapackMatrix()</text>
<text text-anchor="start" x="8" y="-73.5" font-family="Helvetica,sans-Serif" font-size="10.00">+ ~ScaLapackMatrix()</text>
<text text-anchor="start" x="8" y="-62.5" font-family="Helvetica,sans-Serif" font-size="10.00">+ getDescriptor()</text>
<text text-anchor="start" x="8" y="-51.5" font-family="Helvetica,sans-Serif" font-size="10.00">+ getLocalValues()</text>
<text text-anchor="start" x="8" y="-40.5" font-family="Helvetica,sans-Serif" font-size="10.00">+ getLocalValues()</text>
<text text-anchor="start" x="8" y="-29.5" font-family="Helvetica,sans-Serif" font-size="10.00">+ write()</text>
<text text-anchor="start" x="8" y="-18.5" font-family="Helvetica,sans-Serif" font-size="10.00">+ write()</text>
<text text-anchor="start" x="8" y="-7.5" font-family="Helvetica,sans-Serif" font-size="10.00"># getGlobalIndex()</text>
</a>
</g>
</g>
<!-- Node1&#45;&gt;Node3 -->
<g id="edge2" class="edge">
<title>Node1&#45;&gt;Node3</title>
<path fill="none" stroke="orange" d="M110.65,-227.8C106.45,-215.12 102.16,-202.16 97.98,-189.55"/>
<polygon fill="orange" stroke="orange" points="107.37,-229.03 113.83,-237.43 114.01,-226.83 107.37,-229.03"/>
<text text-anchor="middle" x="142" y="-211" font-family="Helvetica,sans-Serif" font-size="10.00"> &lt; complex &gt;</text>
</g>
<!-- Node4 -->
<g id="node4" class="node">
<title>Node4</title>
<g id="a_node4"><a xlink:href="classsisi4s_1_1ScaLapackMatrix.html" target="_top" xlink:title=" ">
<polygon fill="none" stroke="black" points="152,-0.5 152,-189.5 286,-189.5 286,-0.5 152,-0.5"/>
<text text-anchor="start" x="160" y="-177.5" font-family="Helvetica,sans-Serif" font-size="10.00">sisi4s::ScaLapackMatrix</text>
<text text-anchor="middle" x="219" y="-166.5" font-family="Helvetica,sans-Serif" font-size="10.00">&lt; double &gt;</text>
<polyline fill="none" stroke="black" points="152,-159.5 286,-159.5"/>
<text text-anchor="start" x="160" y="-147.5" font-family="Helvetica,sans-Serif" font-size="10.00"># blacsWorld</text>
<text text-anchor="start" x="160" y="-136.5" font-family="Helvetica,sans-Serif" font-size="10.00"># localIndices</text>
<text text-anchor="start" x="160" y="-125.5" font-family="Helvetica,sans-Serif" font-size="10.00"># localValues</text>
<polyline fill="none" stroke="black" points="152,-118.5 286,-118.5"/>
<text text-anchor="start" x="160" y="-106.5" font-family="Helvetica,sans-Serif" font-size="10.00">+ ScaLapackMatrix()</text>
<text text-anchor="start" x="160" y="-95.5" font-family="Helvetica,sans-Serif" font-size="10.00">+ ScaLapackMatrix()</text>
<text text-anchor="start" x="160" y="-84.5" font-family="Helvetica,sans-Serif" font-size="10.00">+ ScaLapackMatrix()</text>
<text text-anchor="start" x="160" y="-73.5" font-family="Helvetica,sans-Serif" font-size="10.00">+ ~ScaLapackMatrix()</text>
<text text-anchor="start" x="160" y="-62.5" font-family="Helvetica,sans-Serif" font-size="10.00">+ getDescriptor()</text>
<text text-anchor="start" x="160" y="-51.5" font-family="Helvetica,sans-Serif" font-size="10.00">+ getLocalValues()</text>
<text text-anchor="start" x="160" y="-40.5" font-family="Helvetica,sans-Serif" font-size="10.00">+ getLocalValues()</text>
<text text-anchor="start" x="160" y="-29.5" font-family="Helvetica,sans-Serif" font-size="10.00">+ write()</text>
<text text-anchor="start" x="160" y="-18.5" font-family="Helvetica,sans-Serif" font-size="10.00">+ write()</text>
<text text-anchor="start" x="160" y="-7.5" font-family="Helvetica,sans-Serif" font-size="10.00"># getGlobalIndex()</text>
</a>
</g>
</g>
<!-- Node1&#45;&gt;Node4 -->
<g id="edge3" class="edge">
<title>Node1&#45;&gt;Node4</title>
<path fill="none" stroke="orange" d="M177.08,-227.75C178.07,-224.8 179.04,-221.88 180,-219 183.14,-209.54 186.37,-199.65 189.56,-189.77"/>
<polygon fill="orange" stroke="orange" points="173.76,-226.64 173.87,-237.23 180.39,-228.87 173.76,-226.64"/>
<text text-anchor="middle" x="212.5" y="-211" font-family="Helvetica,sans-Serif" font-size="10.00"> &lt; double &gt;</text>
</g>
<!-- Node2 -->
<g id="node2" class="node">
<title>Node2</title>
<g id="a_node2"><a xlink:href="classsisi4s_1_1ScaLapackDescriptor.html" target="_top" xlink:title=" ">
<polygon fill="none" stroke="black" points="67,-453.5 67,-565.5 219,-565.5 219,-453.5 67,-453.5"/>
<text text-anchor="middle" x="143" y="-553.5" font-family="Helvetica,sans-Serif" font-size="10.00">sisi4s::ScaLapackDescriptor</text>
<polyline fill="none" stroke="black" points="67,-546.5 219,-546.5"/>
<text text-anchor="start" x="75" y="-534.5" font-family="Helvetica,sans-Serif" font-size="10.00">+ dataType</text>
<text text-anchor="start" x="75" y="-523.5" font-family="Helvetica,sans-Serif" font-size="10.00">+ blacsContext</text>
<text text-anchor="start" x="75" y="-512.5" font-family="Helvetica,sans-Serif" font-size="10.00">+ lens</text>
<text text-anchor="start" x="75" y="-501.5" font-family="Helvetica,sans-Serif" font-size="10.00">+ blockSize</text>
<text text-anchor="start" x="75" y="-490.5" font-family="Helvetica,sans-Serif" font-size="10.00">+ offset</text>
<text text-anchor="start" x="75" y="-479.5" font-family="Helvetica,sans-Serif" font-size="10.00">+ localLens</text>
<polyline fill="none" stroke="black" points="67,-472.5 219,-472.5"/>
<text text-anchor="start" x="75" y="-460.5" font-family="Helvetica,sans-Serif" font-size="10.00">+ ScaLapackDescriptor()</text>
</a>
</g>
</g>
<!-- Node2&#45;&gt;Node1 -->
<g id="edge1" class="edge">
<title>Node2&#45;&gt;Node1</title>
<path fill="none" stroke="midnightblue" d="M143,-443.01C143,-434.16 143,-424.97 143,-415.8"/>
<polygon fill="none" stroke="midnightblue" points="139.5,-443.21 143,-453.21 146.5,-443.21 139.5,-443.21"/>
</g>
</g>
</svg>
