<?xml version="1.0" encoding="UTF-8" standalone="no"?>
<!DOCTYPE svg PUBLIC "-//W3C//DTD SVG 1.1//EN"
 "http://www.w3.org/Graphics/SVG/1.1/DTD/svg11.dtd">
<!-- Generated by graphviz version 9.0.0 (0)
 -->
<!-- Title: sisi4s::ParticleHoleCoulombVertexDecomposition::realizePi Pages: 1 -->
<svg width="553pt" height="65pt"
 viewBox="0.00 0.00 552.50 64.50" xmlns="http://www.w3.org/2000/svg" xmlns:xlink="http://www.w3.org/1999/xlink">
<g id="graph0" class="graph" transform="scale(1 1) rotate(0) translate(4 60.5)">
<title>sisi4s::ParticleHoleCoulombVertexDecomposition::realizePi</title>
<!-- Node1 -->
<g id="Node000001" class="node">
<title>Node1</title>
<g id="a_Node000001"><a xlink:title="Discards the imaginary part of the given factor orbitals.">
<polygon fill="#999999" stroke="#666666" points="544.5,-33.5 375.5,-33.5 375.5,0 544.5,0 544.5,-33.5"/>
<text text-anchor="start" x="383.5" y="-20" font-family="Helvetica,sans-Serif" font-size="10.00">sisi4s::ParticleHoleCoulomb</text>
<text text-anchor="middle" x="460" y="-7.25" font-family="Helvetica,sans-Serif" font-size="10.00">VertexDecomposition::realizePi</text>
</a>
</g>
</g>
<!-- Node2 -->
<g id="Node000002" class="node">
<title>Node2</title>
<g id="a_Node000002"><a xlink:href="classsisi4s_1_1ParticleHoleCoulombVertexDecomposition.html#a89e580fcc9544ae668ccda0d37256f35" target="_top" xlink:title="Performs one iteration in fitting the factor orbitals and the Coulomb factors according to the given ...">
<polygon fill="white" stroke="#666666" points="339.5,-56.5 187.75,-56.5 187.75,-23 339.5,-23 339.5,-56.5"/>
<text text-anchor="start" x="195.75" y="-43" font-family="Helvetica,sans-Serif" font-size="10.00">sisi4s::ParticleHoleCoulomb</text>
<text text-anchor="middle" x="263.62" y="-30.25" font-family="Helvetica,sans-Serif" font-size="10.00">VertexDecomposition::fit</text>
</a>
</g>
</g>
<!-- Node1&#45;&gt;Node2 -->
<g id="edge1_Node000001_Node000002" class="edge">
<title>Node1&#45;&gt;Node2</title>
<g id="a_edge1_Node000001_Node000002"><a xlink:title=" ">
<path fill="none" stroke="#63b8ff" d="M363.84,-28.01C355.82,-28.96 347.77,-29.91 339.92,-30.84"/>
<polygon fill="#63b8ff" stroke="#63b8ff" points="364.13,-31.5 373.65,-26.85 363.31,-24.55 364.13,-31.5"/>
</a>
</g>
</g>
<!-- Node3 -->
<g id="Node000003" class="node">
<title>Node3</title>
<g id="a_Node000003"><a xlink:href="classsisi4s_1_1ParticleHoleCoulombVertexDecomposition.html#a14cd82062611a0e443aff732ae0db121" target="_top" xlink:title=" ">
<polygon fill="white" stroke="#666666" points="151.75,-33.5 0,-33.5 0,0 151.75,0 151.75,-33.5"/>
<text text-anchor="start" x="8" y="-20" font-family="Helvetica,sans-Serif" font-size="10.00">sisi4s::ParticleHoleCoulomb</text>
<text text-anchor="middle" x="75.88" y="-7.25" font-family="Helvetica,sans-Serif" font-size="10.00">VertexDecomposition::run</text>
</a>
</g>
</g>
<!-- Node1&#45;&gt;Node3 -->
<g id="edge3_Node000001_Node000003" class="edge">
<title>Node1&#45;&gt;Node3</title>
<g id="a_edge3_Node000001_Node000003"><a xlink:title=" ">
<path fill="none" stroke="#63b8ff" d="M363.87,-14.15C355.63,-13.99 347.42,-13.85 339.5,-13.75 272.06,-12.9 255.19,-12.84 187.75,-13.75 176.2,-13.91 163.97,-14.15 152.02,-14.44"/>
<polygon fill="#63b8ff" stroke="#63b8ff" points="363.53,-17.64 373.6,-14.35 363.67,-10.64 363.53,-17.64"/>
</a>
</g>
</g>
<!-- Node2&#45;&gt;Node3 -->
<g id="edge2_Node000002_Node000003" class="edge">
<title>Node2&#45;&gt;Node3</title>
<g id="a_edge2_Node000002_Node000003"><a xlink:title=" ">
<path fill="none" stroke="#63b8ff" d="M176.04,-29.03C168,-28.03 159.89,-27.03 151.96,-26.05"/>
<polygon fill="#63b8ff" stroke="#63b8ff" points="175.48,-32.49 185.84,-30.24 176.34,-25.54 175.48,-32.49"/>
</a>
</g>
</g>
</g>
</svg>
