<?xml version="1.0" encoding="UTF-8" standalone="no"?>
<!DOCTYPE svg PUBLIC "-//W3C//DTD SVG 1.1//EN"
 "http://www.w3.org/Graphics/SVG/1.1/DTD/svg11.dtd">
<!-- Generated by graphviz version 5.0.1 (0)
 -->
<!-- Title: sisi4s::CcsdDiagrammaticDecomposition::run Pages: 1 -->
<svg width="687pt" height="238pt"
 viewBox="0.00 0.00 687.00 238.00" xmlns="http://www.w3.org/2000/svg" xmlns:xlink="http://www.w3.org/1999/xlink">
<g id="graph0" class="graph" transform="scale(1 1) rotate(0) translate(4 234)">
<title>sisi4s::CcsdDiagrammaticDecomposition::run</title>
<!-- Node1 -->
<g id="node1" class="node">
<title>Node1</title>
<g id="a_node1"><a xlink:title=" ">
<polygon fill="#999999" stroke="#666666" points="143,-126 0,-126 0,-96 143,-96 143,-126"/>
<text text-anchor="start" x="8" y="-114" font-family="Helvetica,sans-Serif" font-size="10.00">sisi4s::CcsdDiagrammatic</text>
<text text-anchor="middle" x="71.5" y="-103" font-family="Helvetica,sans-Serif" font-size="10.00">Decomposition::run</text>
</a>
</g>
</g>
<!-- Node2 -->
<g id="node2" class="node">
<title>Node2</title>
<g id="a_node2"><a xlink:href="classsisi4s_1_1CcsdDiagrammaticDecomposition.html#a21b41163c6869434486c6df0c0aea740" target="_top" xlink:title=" ">
<polygon fill="white" stroke="#666666" points="358.5,-230 185.5,-230 185.5,-200 358.5,-200 358.5,-230"/>
<text text-anchor="start" x="193.5" y="-218" font-family="Helvetica,sans-Serif" font-size="10.00">sisi4s::CcsdDiagrammatic</text>
<text text-anchor="middle" x="272" y="-207" font-family="Helvetica,sans-Serif" font-size="10.00">Decomposition::evaluateEnergy</text>
</a>
</g>
</g>
<!-- Node1&#45;&gt;Node2 -->
<g id="edge1" class="edge">
<title>Node1&#45;&gt;Node2</title>
<path fill="none" stroke="#63b8ff" d="M88.5,-126.23C108.25,-144.24 143.6,-173.91 179,-191 183.04,-192.95 187.26,-194.76 191.57,-196.43"/>
<polygon fill="#63b8ff" stroke="#63b8ff" points="190.54,-199.78 201.13,-199.87 192.91,-193.19 190.54,-199.78"/>
</g>
<!-- Node3 -->
<g id="node3" class="node">
<title>Node3</title>
<g id="a_node3"><a xlink:href="namespacesisi4s.html#ad6f7eb8262f28cfa6afcabe5c42c8521" target="_top" xlink:title="Decomposes the tensor of complex elements into two tensors containing the real and imaginary parts,...">
<polygon fill="white" stroke="#666666" points="346.5,-163.5 197.5,-163.5 197.5,-144.5 346.5,-144.5 346.5,-163.5"/>
<text text-anchor="middle" x="272" y="-151.5" font-family="Helvetica,sans-Serif" font-size="10.00">sisi4s::fromComplexTensor</text>
</a>
</g>
</g>
<!-- Node1&#45;&gt;Node3 -->
<g id="edge2" class="edge">
<title>Node1&#45;&gt;Node3</title>
<path fill="none" stroke="#63b8ff" d="M138.36,-126.04C151.8,-129.05 165.85,-132.16 179,-135 190.34,-137.45 202.49,-140 214.11,-142.42"/>
<polygon fill="#63b8ff" stroke="#63b8ff" points="213.66,-145.9 224.16,-144.5 215.08,-139.04 213.66,-145.9"/>
</g>
<!-- Node4 -->
<g id="node4" class="node">
<title>Node4</title>
<g id="a_node4"><a xlink:href="classsisi4s_1_1Algorithm.html#a5db14be3b0d33bf80218a37223e27667" target="_top" xlink:title=" ">
<polygon fill="white" stroke="#666666" points="329.5,-78 214.5,-78 214.5,-48 329.5,-48 329.5,-78"/>
<text text-anchor="start" x="222.5" y="-66" font-family="Helvetica,sans-Serif" font-size="10.00">sisi4s::Algorithm::</text>
<text text-anchor="middle" x="272" y="-55" font-family="Helvetica,sans-Serif" font-size="10.00">getIntegerArgument</text>
</a>
</g>
</g>
<!-- Node1&#45;&gt;Node4 -->
<g id="edge4" class="edge">
<title>Node1&#45;&gt;Node4</title>
<path fill="none" stroke="#63b8ff" d="M134.76,-95.94C156.95,-90.58 182.01,-84.52 204.53,-79.07"/>
<polygon fill="#63b8ff" stroke="#63b8ff" points="205.45,-82.45 214.35,-76.7 203.81,-75.65 205.45,-82.45"/>
</g>
<!-- Node8 -->
<g id="node8" class="node">
<title>Node8</title>
<g id="a_node8"><a xlink:href="classsisi4s_1_1Algorithm.html#a338a44c8fd4d6be3b32a6d5e71dfe180" target="_top" xlink:title=" ">
<polygon fill="white" stroke="#666666" points="328,-126 216,-126 216,-96 328,-96 328,-126"/>
<text text-anchor="start" x="224" y="-114" font-family="Helvetica,sans-Serif" font-size="10.00">sisi4s::Algorithm::</text>
<text text-anchor="middle" x="272" y="-103" font-family="Helvetica,sans-Serif" font-size="10.00">getTensorArgument</text>
</a>
</g>
</g>
<!-- Node1&#45;&gt;Node8 -->
<g id="edge8" class="edge">
<title>Node1&#45;&gt;Node8</title>
<path fill="none" stroke="#63b8ff" d="M143.04,-111C163.54,-111 185.82,-111 205.96,-111"/>
<polygon fill="#63b8ff" stroke="#63b8ff" points="205.97,-114.5 215.97,-111 205.97,-107.5 205.97,-114.5"/>
</g>
<!-- Node9 -->
<g id="node9" class="node">
<title>Node9</title>
<g id="a_node9"><a xlink:href="classsisi4s_1_1CcsdDiagrammaticDecomposition.html#a30c1d52f9ae145f77dc2a69e6a88ff8a" target="_top" xlink:title=" ">
<polygon fill="white" stroke="#666666" points="365,-30 179,-30 179,0 365,0 365,-30"/>
<text text-anchor="start" x="187" y="-18" font-family="Helvetica,sans-Serif" font-size="10.00">sisi4s::CcsdDiagrammatic</text>
<text text-anchor="middle" x="272" y="-7" font-family="Helvetica,sans-Serif" font-size="10.00">Decomposition::sliceIntoResiduum</text>
</a>
</g>
</g>
<!-- Node1&#45;&gt;Node9 -->
<g id="edge11" class="edge">
<title>Node1&#45;&gt;Node9</title>
<path fill="none" stroke="#63b8ff" d="M90.59,-95.93C110.9,-79.7 145.45,-54.18 179,-39 183.58,-36.93 188.38,-35.01 193.27,-33.23"/>
<polygon fill="#63b8ff" stroke="#63b8ff" points="194.43,-36.54 202.77,-30 192.17,-29.91 194.43,-36.54"/>
</g>
<!-- Node3&#45;&gt;Node3 -->
<g id="edge3" class="edge">
<title>Node3&#45;&gt;Node3</title>
<path fill="none" stroke="#63b8ff" d="M241.17,-163.58C226.18,-172.23 236.45,-181.5 272,-181.5 296.99,-181.5 309.49,-176.92 309.5,-171.19"/>
<polygon fill="#63b8ff" stroke="#63b8ff" points="312.05,-168.79 302.83,-163.58 306.79,-173.41 312.05,-168.79"/>
</g>
<!-- Node5 -->
<g id="node5" class="node">
<title>Node5</title>
<g id="a_node5"><a xlink:href="classsisi4s_1_1Algorithm.html#a1e53277220d32a33e20846267c253652" target="_top" xlink:title=" ">
<polygon fill="white" stroke="#666666" points="526.5,-124 422.5,-124 422.5,-94 526.5,-94 526.5,-124"/>
<text text-anchor="start" x="430.5" y="-112" font-family="Helvetica,sans-Serif" font-size="10.00">sisi4s::Algorithm::</text>
<text text-anchor="middle" x="474.5" y="-101" font-family="Helvetica,sans-Serif" font-size="10.00">getArgumentData</text>
</a>
</g>
</g>
<!-- Node4&#45;&gt;Node5 -->
<g id="edge5" class="edge">
<title>Node4&#45;&gt;Node5</title>
<path fill="none" stroke="#63b8ff" d="M329.65,-76C355.53,-81.93 386.22,-88.97 412.59,-95.03"/>
<polygon fill="#63b8ff" stroke="#63b8ff" points="411.94,-98.47 422.47,-97.29 413.5,-91.64 411.94,-98.47"/>
</g>
<!-- Node7 -->
<g id="node7" class="node">
<title>Node7</title>
<g id="a_node7"><a xlink:href="classsisi4s_1_1Data.html#a0ec0b1c7f2356fd43d82ee1dd0246789" target="_top" xlink:title=" ">
<polygon fill="white" stroke="#666666" points="548,-74.5 401,-74.5 401,-55.5 548,-55.5 548,-74.5"/>
<text text-anchor="middle" x="474.5" y="-62.5" font-family="Helvetica,sans-Serif" font-size="10.00">sisi4s::Data::getTypeName</text>
</a>
</g>
</g>
<!-- Node4&#45;&gt;Node7 -->
<g id="edge7" class="edge">
<title>Node4&#45;&gt;Node7</title>
<path fill="none" stroke="#63b8ff" d="M329.65,-63.57C348.66,-63.75 370.26,-63.97 390.85,-64.18"/>
<polygon fill="#63b8ff" stroke="#63b8ff" points="390.82,-67.68 400.85,-64.28 390.89,-60.68 390.82,-67.68"/>
</g>
<!-- Node6 -->
<g id="node6" class="node">
<title>Node6</title>
<g id="a_node6"><a xlink:href="classsisi4s_1_1Data.html#a5b4676e48b4f437d399587e6903f896a" target="_top" xlink:title=" ">
<polygon fill="white" stroke="#666666" points="679,-118.5 584,-118.5 584,-99.5 679,-99.5 679,-118.5"/>
<text text-anchor="middle" x="631.5" y="-106.5" font-family="Helvetica,sans-Serif" font-size="10.00">sisi4s::Data::get</text>
</a>
</g>
</g>
<!-- Node5&#45;&gt;Node6 -->
<g id="edge6" class="edge">
<title>Node5&#45;&gt;Node6</title>
<path fill="none" stroke="#63b8ff" d="M526.68,-109C541.66,-109 558.12,-109 573.43,-109"/>
<polygon fill="#63b8ff" stroke="#63b8ff" points="573.82,-112.5 583.82,-109 573.82,-105.5 573.82,-112.5"/>
</g>
<!-- Node8&#45;&gt;Node5 -->
<g id="edge9" class="edge">
<title>Node8&#45;&gt;Node5</title>
<path fill="none" stroke="#63b8ff" d="M328.05,-110.45C354.16,-110.19 385.45,-109.88 412.3,-109.61"/>
<polygon fill="#63b8ff" stroke="#63b8ff" points="412.39,-113.11 422.36,-109.51 412.32,-106.11 412.39,-113.11"/>
</g>
<!-- Node8&#45;&gt;Node7 -->
<g id="edge10" class="edge">
<title>Node8&#45;&gt;Node7</title>
<path fill="none" stroke="#63b8ff" d="M328.05,-98.37C357.4,-91.64 393.28,-83.4 422.07,-76.8"/>
<polygon fill="#63b8ff" stroke="#63b8ff" points="422.96,-80.19 431.93,-74.54 421.4,-73.36 422.96,-80.19"/>
</g>
</g>
</svg>
