<?xml version="1.0" encoding="UTF-8" standalone="no"?>
<!DOCTYPE svg PUBLIC "-//W3C//DTD SVG 1.1//EN"
 "http://www.w3.org/Graphics/SVG/1.1/DTD/svg11.dtd">
<!-- Generated by graphviz version 7.0.0 (0)
 -->
<!-- Title: sisi4s::DryPseudoInverseSvd::get Pages: 1 -->
<svg width="322pt" height="38pt"
 viewBox="0.00 0.00 322.00 38.00" xmlns="http://www.w3.org/2000/svg" xmlns:xlink="http://www.w3.org/1999/xlink">
<g id="graph0" class="graph" transform="scale(1 1) rotate(0) translate(4 34)">
<title>sisi4s::DryPseudoInverseSvd::get</title>
<!-- Node1 -->
<g id="node1" class="node">
<title>Node1</title>
<g id="a_node1"><a xlink:title=" ">
<polygon fill="#999999" stroke="#666666" points="139,-30 0,-30 0,0 139,0 139,-30"/>
<text text-anchor="start" x="8" y="-18" font-family="Helvetica,sans-Serif" font-size="10.00">sisi4s::DryPseudoInverse</text>
<text text-anchor="middle" x="69.5" y="-7" font-family="Helvetica,sans-Serif" font-size="10.00">Svd::get</text>
</a>
</g>
</g>
<!-- Node2 -->
<g id="node2" class="node">
<title>Node2</title>
<g id="a_node2"><a xlink:href="DiisMixer_8cxx.html#ae6495ef1bd76c6cd022e102143fbed2f" target="_top" xlink:title=" ">
<polygon fill="white" stroke="#666666" points="228,-24.5 175,-24.5 175,-5.5 228,-5.5 228,-24.5"/>
<text text-anchor="middle" x="201.5" y="-12.5" font-family="Helvetica,sans-Serif" font-size="10.00">inverse</text>
</a>
</g>
</g>
<!-- Node1&#45;&gt;Node2 -->
<g id="edge1" class="edge">
<title>Node1&#45;&gt;Node2</title>
<path fill="none" stroke="#63b8ff" d="M139.31,-15C147.62,-15 155.85,-15 163.45,-15"/>
<polygon fill="#63b8ff" stroke="#63b8ff" points="163.28,-18.5 173.28,-15 163.28,-11.5 163.28,-18.5"/>
</g>
<!-- Node3 -->
<g id="node3" class="node">
<title>Node3</title>
<g id="a_node3"><a xlink:href="Lapack_8hpp.html#aaacdf33c1d8272c5fd148b2e002c12a6" target="_top" xlink:title=" ">
<polygon fill="white" stroke="#666666" points="314,-24.5 264,-24.5 264,-5.5 314,-5.5 314,-24.5"/>
<text text-anchor="middle" x="289" y="-12.5" font-family="Helvetica,sans-Serif" font-size="10.00">dsysv_</text>
</a>
</g>
</g>
<!-- Node2&#45;&gt;Node3 -->
<g id="edge2" class="edge">
<title>Node2&#45;&gt;Node3</title>
<path fill="none" stroke="#63b8ff" d="M228.15,-15C235.69,-15 244.07,-15 252.12,-15"/>
<polygon fill="#63b8ff" stroke="#63b8ff" points="252.02,-18.5 262.02,-15 252.02,-11.5 252.02,-18.5"/>
</g>
</g>
</svg>
