<?xml version="1.0" encoding="UTF-8" standalone="no"?>
<!DOCTYPE svg PUBLIC "-//W3C//DTD SVG 1.1//EN"
 "http://www.w3.org/Graphics/SVG/1.1/DTD/svg11.dtd">
<!-- Generated by graphviz version 9.0.0 (0)
 -->
<!-- Title: sisi4s::UegVertexGenerator Pages: 1 -->
<svg width="477pt" height="828pt"
 viewBox="0.00 0.00 477.00 827.50" xmlns="http://www.w3.org/2000/svg" xmlns:xlink="http://www.w3.org/1999/xlink">
<g id="graph0" class="graph" transform="scale(1 1) rotate(0) translate(4 823.5)">
<title>sisi4s::UegVertexGenerator</title>
<!-- Node1 -->
<g id="Node000001" class="node">
<title>Node1</title>
<g id="a_Node000001"><a xlink:title=" ">
<polygon fill="#999999" stroke="none" points="212.5,-228 69.5,-228 69.5,0 212.5,0 212.5,-228"/>
<text text-anchor="start" x="74.25" y="-214.5" font-family="Helvetica,sans-Serif" font-size="10.00">sisi4s::UegVertexGenerator</text>
<text text-anchor="start" x="75.38" y="-198.5" font-family="Helvetica,sans-Serif" font-size="10.00">#</text>
<text text-anchor="start" x="89.5" y="-198.5" font-family="Helvetica,sans-Serif" font-size="10.00">halfGrid</text>
<text text-anchor="start" x="75.38" y="-182.5" font-family="Helvetica,sans-Serif" font-size="10.00">#</text>
<text text-anchor="start" x="89.5" y="-182.5" font-family="Helvetica,sans-Serif" font-size="10.00">No</text>
<text text-anchor="start" x="75.38" y="-166.5" font-family="Helvetica,sans-Serif" font-size="10.00">#</text>
<text text-anchor="start" x="89.5" y="-166.5" font-family="Helvetica,sans-Serif" font-size="10.00">Nv</text>
<text text-anchor="start" x="75.38" y="-150.5" font-family="Helvetica,sans-Serif" font-size="10.00">#</text>
<text text-anchor="start" x="89.5" y="-150.5" font-family="Helvetica,sans-Serif" font-size="10.00">NF</text>
<text text-anchor="start" x="75.38" y="-134.5" font-family="Helvetica,sans-Serif" font-size="10.00">#</text>
<text text-anchor="start" x="89.5" y="-134.5" font-family="Helvetica,sans-Serif" font-size="10.00">rs</text>
<text text-anchor="start" x="75.38" y="-118.5" font-family="Helvetica,sans-Serif" font-size="10.00">#</text>
<text text-anchor="start" x="89.5" y="-118.5" font-family="Helvetica,sans-Serif" font-size="10.00">madelung</text>
<text text-anchor="start" x="75.38" y="-102.5" font-family="Helvetica,sans-Serif" font-size="10.00">+</text>
<text text-anchor="start" x="89.5" y="-102.5" font-family="Helvetica,sans-Serif" font-size="10.00">getName()</text>
<text text-anchor="start" x="75.38" y="-86.5" font-family="Helvetica,sans-Serif" font-size="10.00">+</text>
<text text-anchor="start" x="89.5" y="-86.5" font-family="Helvetica,sans-Serif" font-size="10.00">~UegVertexGenerator()</text>
<text text-anchor="start" x="75.38" y="-70.5" font-family="Helvetica,sans-Serif" font-size="10.00">+</text>
<text text-anchor="start" x="89.5" y="-70.5" font-family="Helvetica,sans-Serif" font-size="10.00">UegVertexGenerator()</text>
<text text-anchor="start" x="75.38" y="-54.5" font-family="Helvetica,sans-Serif" font-size="10.00">+</text>
<text text-anchor="start" x="89.5" y="-54.5" font-family="Helvetica,sans-Serif" font-size="10.00">run()</text>
<text text-anchor="start" x="75.38" y="-38.5" font-family="Helvetica,sans-Serif" font-size="10.00">+</text>
<text text-anchor="start" x="89.5" y="-38.5" font-family="Helvetica,sans-Serif" font-size="10.00">run()</text>
<text text-anchor="start" x="75.38" y="-22.5" font-family="Helvetica,sans-Serif" font-size="10.00">#</text>
<text text-anchor="start" x="89.5" y="-22.5" font-family="Helvetica,sans-Serif" font-size="10.00">evalMadelung()</text>
<text text-anchor="start" x="75.38" y="-6.5" font-family="Helvetica,sans-Serif" font-size="10.00">#</text>
<text text-anchor="start" x="89.5" y="-6.5" font-family="Helvetica,sans-Serif" font-size="10.00">Vijji()</text>
<polygon fill="#666666" stroke="#666666" points="69.5,-210 69.5,-210 212.5,-210 212.5,-210 69.5,-210"/>
<polygon fill="#666666" stroke="#666666" points="69.5,-114 69.5,-114 87.5,-114 87.5,-114 69.5,-114"/>
<polygon fill="#666666" stroke="#666666" points="87.5,-114 87.5,-114 212.5,-114 212.5,-114 87.5,-114"/>
<polygon fill="none" stroke="#666666" points="69.5,0 69.5,-228 212.5,-228 212.5,0 69.5,0"/>
</a>
</g>
</g>
<!-- Node2 -->
<g id="Node000002" class="node">
<title>Node2</title>
<g id="a_Node000002"><a xlink:href="classsisi4s_1_1Algorithm.html" target="_top" xlink:title=" ">
<polygon fill="white" stroke="none" points="172,-584.75 0,-584.75 0,-276.75 172,-276.75 172,-584.75"/>
<text text-anchor="start" x="45.12" y="-571.25" font-family="Helvetica,sans-Serif" font-size="10.00">sisi4s::Algorithm</text>
<text text-anchor="start" x="3.88" y="-555.25" font-family="Helvetica,sans-Serif" font-size="10.00">+</text>
<text text-anchor="start" x="16" y="-555.25" font-family="Helvetica,sans-Serif" font-size="10.00">note</text>
<text text-anchor="start" x="3.88" y="-539.25" font-family="Helvetica,sans-Serif" font-size="10.00">+</text>
<text text-anchor="start" x="16" y="-539.25" font-family="Helvetica,sans-Serif" font-size="10.00">fallible</text>
<text text-anchor="start" x="3.88" y="-523.25" font-family="Helvetica,sans-Serif" font-size="10.00">#</text>
<text text-anchor="start" x="16" y="-523.25" font-family="Helvetica,sans-Serif" font-size="10.00">arguments</text>
<text text-anchor="start" x="3.88" y="-507.25" font-family="Helvetica,sans-Serif" font-size="10.00">+</text>
<text text-anchor="start" x="16" y="-507.25" font-family="Helvetica,sans-Serif" font-size="10.00">Algorithm()</text>
<text text-anchor="start" x="3.88" y="-491.25" font-family="Helvetica,sans-Serif" font-size="10.00">+</text>
<text text-anchor="start" x="16" y="-491.25" font-family="Helvetica,sans-Serif" font-size="10.00">~Algorithm()</text>
<text text-anchor="start" x="3.88" y="-475.25" font-family="Helvetica,sans-Serif" font-size="10.00">+</text>
<text text-anchor="start" x="16" y="-475.25" font-family="Helvetica,sans-Serif" font-size="10.00">getName()</text>
<text text-anchor="start" x="3.88" y="-459.25" font-family="Helvetica,sans-Serif" font-size="10.00">+</text>
<text text-anchor="start" x="16" y="-459.25" font-family="Helvetica,sans-Serif" font-size="10.00">run()</text>
<text text-anchor="start" x="3.88" y="-443.25" font-family="Helvetica,sans-Serif" font-size="10.00">+</text>
<text text-anchor="start" x="16" y="-443.25" font-family="Helvetica,sans-Serif" font-size="10.00">dryRun()</text>
<text text-anchor="start" x="3.88" y="-427.25" font-family="Helvetica,sans-Serif" font-size="10.00">+</text>
<text text-anchor="start" x="16" y="-427.25" font-family="Helvetica,sans-Serif" font-size="10.00">isArgumentGiven()</text>
<text text-anchor="start" x="3.88" y="-411.25" font-family="Helvetica,sans-Serif" font-size="10.00">+</text>
<text text-anchor="start" x="16" y="-411.25" font-family="Helvetica,sans-Serif" font-size="10.00">getTextArgument()</text>
<text text-anchor="start" x="3.88" y="-395.25" font-family="Helvetica,sans-Serif" font-size="10.00">+</text>
<text text-anchor="start" x="16" y="-395.25" font-family="Helvetica,sans-Serif" font-size="10.00">getTextArgument()</text>
<text text-anchor="start" x="3.88" y="-379.25" font-family="Helvetica,sans-Serif" font-size="10.00">+</text>
<text text-anchor="start" x="16" y="-379.25" font-family="Helvetica,sans-Serif" font-size="10.00">getBooleanArgument()</text>
<text text-anchor="start" x="3.88" y="-363.25" font-family="Helvetica,sans-Serif" font-size="10.00">+</text>
<text text-anchor="start" x="16" y="-363.25" font-family="Helvetica,sans-Serif" font-size="10.00">getBooleanArgument()</text>
<text text-anchor="start" x="16" y="-347.25" font-family="Helvetica,sans-Serif" font-size="10.00">and 12 more...</text>
<text text-anchor="start" x="3.88" y="-331.25" font-family="Helvetica,sans-Serif" font-size="10.00">#</text>
<text text-anchor="start" x="16" y="-331.25" font-family="Helvetica,sans-Serif" font-size="10.00">getRealArgumentFromInteger()</text>
<text text-anchor="start" x="3.88" y="-315.25" font-family="Helvetica,sans-Serif" font-size="10.00">#</text>
<text text-anchor="start" x="16" y="-315.25" font-family="Helvetica,sans-Serif" font-size="10.00">getRealArgumentFromTensor()</text>
<text text-anchor="start" x="3.88" y="-299.25" font-family="Helvetica,sans-Serif" font-size="10.00">#</text>
<text text-anchor="start" x="16" y="-299.25" font-family="Helvetica,sans-Serif" font-size="10.00">getTensorArgumentFromReal()</text>
<text text-anchor="start" x="3.88" y="-283.25" font-family="Helvetica,sans-Serif" font-size="10.00">#</text>
<text text-anchor="start" x="16" y="-283.25" font-family="Helvetica,sans-Serif" font-size="10.00">getArgumentData()</text>
<polygon fill="#666666" stroke="#666666" points="0,-566.75 0,-566.75 172,-566.75 172,-566.75 0,-566.75"/>
<polygon fill="#666666" stroke="#666666" points="0,-518.75 0,-518.75 14,-518.75 14,-518.75 0,-518.75"/>
<polygon fill="#666666" stroke="#666666" points="14,-518.75 14,-518.75 172,-518.75 172,-518.75 14,-518.75"/>
<polygon fill="none" stroke="#666666" points="0,-276.75 0,-584.75 172,-584.75 172,-276.75 0,-276.75"/>
</a>
</g>
</g>
<!-- Node2&#45;&gt;Node1 -->
<g id="edge1_Node000001_Node000002" class="edge">
<title>Node2&#45;&gt;Node1</title>
<g id="a_edge1_Node000001_Node000002"><a xlink:title=" ">
<path fill="none" stroke="#63b8ff" d="M114.67,-265.7C116.91,-252.86 119.14,-240.09 121.3,-227.71"/>
<polygon fill="none" stroke="#63b8ff" points="111.23,-265.04 112.95,-275.49 118.12,-266.25 111.23,-265.04"/>
</a>
</g>
</g>
<!-- Node3 -->
<g id="Node000003" class="node">
<title>Node3</title>
<g id="a_Node000003"><a xlink:href="classsisi4s_1_1AlgorithmRegistrar.html" target="_top" xlink:title=" ">
<polygon fill="white" stroke="none" points="356,-463.25 190,-463.25 190,-398.25 356,-398.25 356,-463.25"/>
<text text-anchor="start" x="195" y="-449.75" font-family="Helvetica,sans-Serif" font-size="10.00">sisi4s::AlgorithmRegistrar</text>
<text text-anchor="start" x="195" y="-437" font-family="Helvetica,sans-Serif" font-size="10.00">&lt; sisi4s::UegVertexGenerator &gt;</text>
<text text-anchor="start" x="271.5" y="-420.75" font-family="Helvetica,sans-Serif" font-size="10.00"> </text>
<text text-anchor="start" x="205.38" y="-404.75" font-family="Helvetica,sans-Serif" font-size="10.00">+</text>
<text text-anchor="start" x="229" y="-404.75" font-family="Helvetica,sans-Serif" font-size="10.00">AlgorithmRegistrar()</text>
<polygon fill="#666666" stroke="#666666" points="190,-432.25 190,-432.25 356,-432.25 356,-432.25 190,-432.25"/>
<polygon fill="#666666" stroke="#666666" points="190,-416.25 190,-416.25 356,-416.25 356,-416.25 190,-416.25"/>
<polygon fill="none" stroke="#666666" points="190,-398.25 190,-463.25 356,-463.25 356,-398.25 190,-398.25"/>
</a>
</g>
</g>
<!-- Node3&#45;&gt;Node1 -->
<g id="edge2_Node000001_Node000003" class="edge">
<title>Node3&#45;&gt;Node1</title>
<g id="a_edge2_Node000001_Node000003"><a xlink:title=" ">
<path fill="none" stroke="#63b8ff" d="M259.86,-398.42C244.33,-361.4 217.54,-297.52 193.32,-239.77"/>
<polygon fill="none" stroke="#63b8ff" points="193.35,-239.82 187.34,-235.84 188.71,-228.76 194.72,-232.74 193.35,-239.82"/>
</a>
</g>
<text text-anchor="middle" x="227.88" y="-249.25" font-family="Helvetica,sans-Serif" font-size="10.00" fill="grey"> +registrar_</text>
</g>
<!-- Node4 -->
<g id="Node000004" class="node">
<title>Node4</title>
<g id="a_Node000004"><a xlink:href="classsisi4s_1_1AlgorithmFactory.html" target="_top" xlink:title=" ">
<polygon fill="white" stroke="none" points="300.5,-819.5 173.5,-819.5 173.5,-735.5 300.5,-735.5 300.5,-819.5"/>
<text text-anchor="start" x="178.5" y="-806" font-family="Helvetica,sans-Serif" font-size="10.00">sisi4s::AlgorithmFactory</text>
<text text-anchor="start" x="177.88" y="-790" font-family="Helvetica,sans-Serif" font-size="10.00">#</text>
<text text-anchor="start" x="190.5" y="-790" font-family="Helvetica,sans-Serif" font-size="10.00">algorithmMap</text>
<text text-anchor="start" x="177.88" y="-774" font-family="Helvetica,sans-Serif" font-size="10.00">+</text>
<text text-anchor="start" x="190.5" y="-774" font-family="Helvetica,sans-Serif" font-size="10.00">create()</text>
<text text-anchor="start" x="177.88" y="-758" font-family="Helvetica,sans-Serif" font-size="10.00">+</text>
<text text-anchor="start" x="190.5" y="-758" font-family="Helvetica,sans-Serif" font-size="10.00">getAlgorithmNames()</text>
<text text-anchor="start" x="177.88" y="-742" font-family="Helvetica,sans-Serif" font-size="10.00">#</text>
<text text-anchor="start" x="190.5" y="-742" font-family="Helvetica,sans-Serif" font-size="10.00">getAlgorithmMap()</text>
<polygon fill="#666666" stroke="#666666" points="173.5,-801.5 173.5,-801.5 300.5,-801.5 300.5,-801.5 173.5,-801.5"/>
<polygon fill="#666666" stroke="#666666" points="173.5,-785.5 173.5,-785.5 188.5,-785.5 188.5,-785.5 173.5,-785.5"/>
<polygon fill="#666666" stroke="#666666" points="188.5,-785.5 188.5,-785.5 300.5,-785.5 300.5,-785.5 188.5,-785.5"/>
<polygon fill="none" stroke="#666666" points="173.5,-735.5 173.5,-819.5 300.5,-819.5 300.5,-735.5 173.5,-735.5"/>
</a>
</g>
</g>
<!-- Node4&#45;&gt;Node3 -->
<g id="edge3_Node000003_Node000004" class="edge">
<title>Node4&#45;&gt;Node3</title>
<g id="a_edge3_Node000003_Node000004"><a xlink:title=" ">
<path fill="none" stroke="darkgreen" d="M238.37,-724.54C239.38,-697.37 241.11,-663.59 244,-633.5 249.82,-572.92 260.91,-502.67 267.56,-463.09"/>
<polygon fill="none" stroke="darkgreen" points="234.88,-724.12 238.03,-734.23 241.88,-724.36 234.88,-724.12"/>
</a>
</g>
</g>
<!-- Node5 -->
<g id="Node000005" class="node">
<title>Node5</title>
<g id="a_Node000005"><a xlink:href="classsisi4s_1_1AlgorithmRegistrar.html" target="_top" xlink:title="Class to be statically instantiated by an algorithm to register it in the AlgorithmFactory....">
<polygon fill="white" stroke="none" points="389,-698.5 253,-698.5 253,-633.5 389,-633.5 389,-698.5"/>
<text text-anchor="start" x="258" y="-685" font-family="Helvetica,sans-Serif" font-size="10.00">sisi4s::AlgorithmRegistrar</text>
<text text-anchor="start" x="274.5" y="-672.25" font-family="Helvetica,sans-Serif" font-size="10.00">&lt; AlgorithmType &gt;</text>
<text text-anchor="start" x="319.5" y="-656" font-family="Helvetica,sans-Serif" font-size="10.00"> </text>
<text text-anchor="start" x="260.88" y="-640" font-family="Helvetica,sans-Serif" font-size="10.00">+</text>
<text text-anchor="start" x="277" y="-640" font-family="Helvetica,sans-Serif" font-size="10.00">AlgorithmRegistrar()</text>
<polygon fill="#666666" stroke="#666666" points="253,-667.5 253,-667.5 389,-667.5 389,-667.5 253,-667.5"/>
<polygon fill="#666666" stroke="#666666" points="253,-651.5 253,-651.5 389,-651.5 389,-651.5 253,-651.5"/>
<polygon fill="none" stroke="#666666" points="253,-633.5 253,-698.5 389,-698.5 389,-633.5 253,-633.5"/>
</a>
</g>
</g>
<!-- Node4&#45;&gt;Node5 -->
<g id="edge5_Node000005_Node000004" class="edge">
<title>Node4&#45;&gt;Node5</title>
<g id="a_edge5_Node000005_Node000004"><a xlink:title=" ">
<path fill="none" stroke="darkgreen" d="M275.07,-726.87C282.55,-717.12 290.19,-707.16 297.05,-698.22"/>
<polygon fill="none" stroke="darkgreen" points="272.51,-724.46 269.2,-734.53 278.06,-728.72 272.51,-724.46"/>
</a>
</g>
</g>
<!-- Node5&#45;&gt;Node3 -->
<g id="edge4_Node000003_Node000005" class="edge">
<title>Node5&#45;&gt;Node3</title>
<g id="a_edge4_Node000003_Node000005"><a xlink:title=" ">
<path fill="none" stroke="orange" d="M312.24,-622.44C302.77,-576.43 287.9,-504.17 279.45,-463.08"/>
<polygon fill="orange" stroke="orange" points="308.78,-622.97 314.22,-632.06 315.63,-621.56 308.78,-622.97"/>
</a>
</g>
<text text-anchor="middle" x="389.5" y="-606" font-family="Helvetica,sans-Serif" font-size="10.00" fill="grey"> &lt; sisi4s::UegVertexGenerator &gt;</text>
</g>
</g>
</svg>
