<?xml version="1.0" encoding="UTF-8" standalone="no"?>
<!DOCTYPE svg PUBLIC "-//W3C//DTD SVG 1.1//EN"
 "http://www.w3.org/Graphics/SVG/1.1/DTD/svg11.dtd">
<!-- Generated by graphviz version 7.0.0 (0)
 -->
<!-- Title: sisi4s::SDTFockVector::operator= Pages: 1 -->
<svg width="322pt" height="134pt"
 viewBox="0.00 0.00 322.00 134.00" xmlns="http://www.w3.org/2000/svg" xmlns:xlink="http://www.w3.org/1999/xlink">
<g id="graph0" class="graph" transform="scale(1 1) rotate(0) translate(4 130)">
<title>sisi4s::SDTFockVector::operator=</title>
<!-- Node1 -->
<g id="node1" class="node">
<title>Node1</title>
<g id="a_node1"><a xlink:title=" ">
<polygon fill="#999999" stroke="#666666" points="123,-78 0,-78 0,-48 123,-48 123,-78"/>
<text text-anchor="start" x="8" y="-66" font-family="Helvetica,sans-Serif" font-size="10.00">sisi4s::SDTFockVector</text>
<text text-anchor="middle" x="61.5" y="-55" font-family="Helvetica,sans-Serif" font-size="10.00">::operator=</text>
</a>
</g>
</g>
<!-- Node2 -->
<g id="node2" class="node">
<title>Node2</title>
<g id="a_node2"><a xlink:href="classsisi4s_1_1FockVector.html#aa7487ad7e11cba45c0d23d8d68a39da4" target="_top" xlink:title=" ">
<polygon fill="white" stroke="#666666" points="314,-126 159,-126 159,-96 314,-96 314,-126"/>
<text text-anchor="start" x="167" y="-114" font-family="Helvetica,sans-Serif" font-size="10.00">sisi4s::FockVector</text>
<text text-anchor="middle" x="236.5" y="-103" font-family="Helvetica,sans-Serif" font-size="10.00">&lt; F &gt;::buildIndexTranslation</text>
</a>
</g>
</g>
<!-- Node1&#45;&gt;Node2 -->
<g id="edge1" class="edge">
<title>Node1&#45;&gt;Node2</title>
<path fill="none" stroke="#63b8ff" d="M118.19,-78.45C134.4,-82.95 152.26,-87.9 169.06,-92.57"/>
<polygon fill="#63b8ff" stroke="#63b8ff" points="167.88,-95.87 178.46,-95.17 169.76,-89.13 167.88,-95.87"/>
</g>
<!-- Node3 -->
<g id="node3" class="node">
<title>Node3</title>
<g id="a_node3"><a xlink:href="classsisi4s_1_1FockVector.html#af4fa578ddb1b52da613990111913e1bf" target="_top" xlink:title="Sets this FockVector&#39;s component tensors by copying the given component tensors. Called by copy const...">
<polygon fill="white" stroke="#666666" points="304.5,-78 168.5,-78 168.5,-48 304.5,-48 304.5,-78"/>
<text text-anchor="start" x="176.5" y="-66" font-family="Helvetica,sans-Serif" font-size="10.00">sisi4s::FockVector</text>
<text text-anchor="middle" x="236.5" y="-55" font-family="Helvetica,sans-Serif" font-size="10.00">&lt; F &gt;::copyComponents</text>
</a>
</g>
</g>
<!-- Node1&#45;&gt;Node3 -->
<g id="edge2" class="edge">
<title>Node1&#45;&gt;Node3</title>
<path fill="none" stroke="#63b8ff" d="M123.49,-63C134.36,-63 145.83,-63 157.1,-63"/>
<polygon fill="#63b8ff" stroke="#63b8ff" points="156.77,-66.5 166.77,-63 156.77,-59.5 156.77,-66.5"/>
</g>
<!-- Node4 -->
<g id="node4" class="node">
<title>Node4</title>
<g id="a_node4"><a xlink:href="classsisi4s_1_1FockVector.html#aebf4e090f20a7bb83c434396b274c89c" target="_top" xlink:title="Retrieves the i&#45;th component tensor. Note that the Tensor is not const since rearrangement may be req...">
<polygon fill="white" stroke="#666666" points="288.5,-30 184.5,-30 184.5,0 288.5,0 288.5,-30"/>
<text text-anchor="start" x="192.5" y="-18" font-family="Helvetica,sans-Serif" font-size="10.00">sisi4s::FockVector</text>
<text text-anchor="middle" x="236.5" y="-7" font-family="Helvetica,sans-Serif" font-size="10.00">&lt; F &gt;::get</text>
</a>
</g>
</g>
<!-- Node1&#45;&gt;Node4 -->
<g id="edge3" class="edge">
<title>Node1&#45;&gt;Node4</title>
<path fill="none" stroke="#63b8ff" d="M118.19,-47.55C135.7,-42.69 155.14,-37.3 173.08,-32.32"/>
<polygon fill="#63b8ff" stroke="#63b8ff" points="173.86,-35.73 182.56,-29.69 171.99,-28.99 173.86,-35.73"/>
</g>
</g>
</svg>
