<?xml version="1.0" encoding="UTF-8" standalone="no"?>
<!DOCTYPE svg PUBLIC "-//W3C//DTD SVG 1.1//EN"
 "http://www.w3.org/Graphics/SVG/1.1/DTD/svg11.dtd">
<!-- Generated by graphviz version 5.0.1 (0)
 -->
<!-- Title: sisi4s::DryPseudoInverseHermitianSvd&lt; F &gt; Pages: 1 -->
<svg width="378pt" height="797pt"
 viewBox="0.00 0.00 378.37 797.00" xmlns="http://www.w3.org/2000/svg" xmlns:xlink="http://www.w3.org/1999/xlink">
<g id="graph0" class="graph" transform="scale(1 1) rotate(0) translate(4 793)">
<title>sisi4s::DryPseudoInverseHermitianSvd&lt; F &gt;</title>
<!-- Node1 -->
<g id="node1" class="node">
<title>Node1</title>
<g id="a_node1"><a xlink:title=" ">
<polygon fill="#999999" stroke="#666666" points="311.87,-74 140.87,-74 140.87,0 311.87,0 311.87,-74"/>
<text text-anchor="start" x="148.87" y="-62" font-family="Helvetica,sans-Serif" font-size="10.00">{sisi4s::DryPseudoInverse</text>
<text text-anchor="middle" x="226.37" y="-51" font-family="Helvetica,sans-Serif" font-size="10.00">HermitianSvd&lt; F &gt;</text>
<text text-anchor="start" x="148.87" y="-40" font-family="Helvetica,sans-Serif" font-size="10.00">||+ DryPseudoInverseHermitian</text>
<text text-anchor="start" x="148.87" y="-29" font-family="Helvetica,sans-Serif" font-size="10.00">Svd()</text>
<text text-anchor="start" x="148.87" y="-18" font-family="Helvetica,sans-Serif" font-size="10.00">+ get()</text>
<text text-anchor="middle" x="226.37" y="-7" font-family="Helvetica,sans-Serif" font-size="10.00">}</text>
</a>
</g>
</g>
<!-- Node2 -->
<g id="node2" class="node">
<title>Node2</title>
<g id="a_node2"><a xlink:href="classsisi4s_1_1DryMatrix.html" target="_top" xlink:title=" ">
<polygon fill="white" stroke="#666666" points="293.37,-162 159.37,-162 159.37,-121 293.37,-121 293.37,-162"/>
<text text-anchor="middle" x="226.37" y="-150" font-family="Helvetica,sans-Serif" font-size="10.00">{sisi4s::DryMatrix&lt; F &gt;</text>
<text text-anchor="start" x="167.37" y="-139" font-family="Helvetica,sans-Serif" font-size="10.00">||+ DryMatrix()</text>
<text text-anchor="middle" x="226.37" y="-128" font-family="Helvetica,sans-Serif" font-size="10.00">}</text>
</a>
</g>
</g>
<!-- Node2&#45;&gt;Node1 -->
<g id="edge1" class="edge">
<title>Node2&#45;&gt;Node1</title>
<path fill="none" stroke="#404040" d="M226.37,-120.74C226.37,-110.88 226.37,-98.48 226.37,-86.3"/>
<polygon fill="none" stroke="#404040" points="226.37,-86.3 222.37,-80.3 226.37,-74.3 230.37,-80.3 226.37,-86.3"/>
<text text-anchor="middle" x="250.37" y="-95" font-family="Helvetica,sans-Serif" font-size="10.00"> #inverse</text>
</g>
<!-- Node3 -->
<g id="node3" class="node">
<title>Node3</title>
<g id="a_node3"><a xlink:href="classsisi4s_1_1DryTensor.html" target="_top" xlink:title=" ">
<polygon fill="white" stroke="#666666" points="218.37,-393 84.37,-393 84.37,-209 218.37,-209 218.37,-393"/>
<text text-anchor="middle" x="151.37" y="-381" font-family="Helvetica,sans-Serif" font-size="10.00">{sisi4s::DryTensor&lt; F &gt;</text>
<text text-anchor="start" x="92.37" y="-370" font-family="Helvetica,sans-Serif" font-size="10.00">|+ order</text>
<text text-anchor="start" x="92.37" y="-359" font-family="Helvetica,sans-Serif" font-size="10.00">+ lens</text>
<text text-anchor="start" x="92.37" y="-348" font-family="Helvetica,sans-Serif" font-size="10.00">+ syms</text>
<text text-anchor="start" x="92.37" y="-337" font-family="Helvetica,sans-Serif" font-size="10.00">+ name</text>
<text text-anchor="start" x="92.37" y="-326" font-family="Helvetica,sans-Serif" font-size="10.00"># size</text>
<text text-anchor="start" x="92.37" y="-315" font-family="Helvetica,sans-Serif" font-size="10.00">|+ DryTensor()</text>
<text text-anchor="start" x="92.37" y="-304" font-family="Helvetica,sans-Serif" font-size="10.00">+ DryTensor()</text>
<text text-anchor="start" x="92.37" y="-293" font-family="Helvetica,sans-Serif" font-size="10.00">+ ~DryTensor()</text>
<text text-anchor="start" x="92.37" y="-282" font-family="Helvetica,sans-Serif" font-size="10.00">+ use()</text>
<text text-anchor="start" x="92.37" y="-271" font-family="Helvetica,sans-Serif" font-size="10.00">+ getElementsCount()</text>
<text text-anchor="start" x="92.37" y="-260" font-family="Helvetica,sans-Serif" font-size="10.00">+ set_name()</text>
<text text-anchor="start" x="92.37" y="-249" font-family="Helvetica,sans-Serif" font-size="10.00">+ get_name()</text>
<text text-anchor="start" x="92.37" y="-238" font-family="Helvetica,sans-Serif" font-size="10.00"># allocate()</text>
<text text-anchor="start" x="92.37" y="-227" font-family="Helvetica,sans-Serif" font-size="10.00"># free()</text>
<text text-anchor="middle" x="151.37" y="-216" font-family="Helvetica,sans-Serif" font-size="10.00">}</text>
</a>
</g>
</g>
<!-- Node3&#45;&gt;Node2 -->
<g id="edge2" class="edge">
<title>Node3&#45;&gt;Node2</title>
<path fill="none" stroke="#63b8ff" d="M199.27,-199.41C206.01,-185.25 212.27,-172.11 217.06,-162.04"/>
<polygon fill="none" stroke="#63b8ff" points="195.92,-198.3 194.78,-208.84 202.24,-201.31 195.92,-198.3"/>
</g>
<!-- Node4 -->
<g id="node4" class="node">
<title>Node4</title>
<g id="a_node4"><a xlink:href="classsisi4s_1_1SourceLocation.html" target="_top" xlink:title=" ">
<polygon fill="white" stroke="#666666" points="216.87,-789 85.87,-789 85.87,-671 216.87,-671 216.87,-789"/>
<text text-anchor="middle" x="151.37" y="-777" font-family="Helvetica,sans-Serif" font-size="10.00">{sisi4s::SourceLocation</text>
<text text-anchor="start" x="93.87" y="-766" font-family="Helvetica,sans-Serif" font-size="10.00">|# file</text>
<text text-anchor="start" x="93.87" y="-755" font-family="Helvetica,sans-Serif" font-size="10.00"># line</text>
<text text-anchor="start" x="93.87" y="-744" font-family="Helvetica,sans-Serif" font-size="10.00">|+ SourceLocation()</text>
<text text-anchor="start" x="93.87" y="-733" font-family="Helvetica,sans-Serif" font-size="10.00">+ SourceLocation()</text>
<text text-anchor="start" x="93.87" y="-722" font-family="Helvetica,sans-Serif" font-size="10.00">+ SourceLocation()</text>
<text text-anchor="start" x="93.87" y="-711" font-family="Helvetica,sans-Serif" font-size="10.00">+ getLocation()</text>
<text text-anchor="start" x="93.87" y="-700" font-family="Helvetica,sans-Serif" font-size="10.00">+ getFile()</text>
<text text-anchor="start" x="93.87" y="-689" font-family="Helvetica,sans-Serif" font-size="10.00">+ getLine()</text>
<text text-anchor="middle" x="151.37" y="-678" font-family="Helvetica,sans-Serif" font-size="10.00">}</text>
</a>
</g>
</g>
<!-- Node4&#45;&gt;Node3 -->
<g id="edge3" class="edge">
<title>Node4&#45;&gt;Node3</title>
<path fill="none" stroke="#404040" d="M85.63,-691.84C61.73,-674.58 37.4,-651.7 24.37,-624 -10.46,-550.01 -5.35,-516.19 24.37,-440 35.34,-411.87 55.02,-386.02 75.67,-364.48"/>
<polygon fill="none" stroke="#404040" points="75.8,-364.35 77.18,-357.27 84.24,-355.83 82.86,-362.9 75.8,-364.35"/>
<text text-anchor="middle" x="49.87" y="-529.5" font-family="Helvetica,sans-Serif" font-size="10.00"> +location</text>
</g>
<!-- Node5 -->
<g id="node5" class="node">
<title>Node5</title>
<g id="a_node5"><a xlink:href="classsisi4s_1_1DryTensor.html" target="_top" xlink:title=" ">
<polygon fill="white" stroke="#666666" points="218.37,-624 84.37,-624 84.37,-440 218.37,-440 218.37,-624"/>
<text text-anchor="middle" x="151.37" y="-612" font-family="Helvetica,sans-Serif" font-size="10.00">{sisi4s::DryTensor&lt; F &gt;</text>
<text text-anchor="start" x="92.37" y="-601" font-family="Helvetica,sans-Serif" font-size="10.00">|+ order</text>
<text text-anchor="start" x="92.37" y="-590" font-family="Helvetica,sans-Serif" font-size="10.00">+ lens</text>
<text text-anchor="start" x="92.37" y="-579" font-family="Helvetica,sans-Serif" font-size="10.00">+ syms</text>
<text text-anchor="start" x="92.37" y="-568" font-family="Helvetica,sans-Serif" font-size="10.00">+ name</text>
<text text-anchor="start" x="92.37" y="-557" font-family="Helvetica,sans-Serif" font-size="10.00"># size</text>
<text text-anchor="start" x="92.37" y="-546" font-family="Helvetica,sans-Serif" font-size="10.00">|+ DryTensor()</text>
<text text-anchor="start" x="92.37" y="-535" font-family="Helvetica,sans-Serif" font-size="10.00">+ DryTensor()</text>
<text text-anchor="start" x="92.37" y="-524" font-family="Helvetica,sans-Serif" font-size="10.00">+ ~DryTensor()</text>
<text text-anchor="start" x="92.37" y="-513" font-family="Helvetica,sans-Serif" font-size="10.00">+ use()</text>
<text text-anchor="start" x="92.37" y="-502" font-family="Helvetica,sans-Serif" font-size="10.00">+ getElementsCount()</text>
<text text-anchor="start" x="92.37" y="-491" font-family="Helvetica,sans-Serif" font-size="10.00">+ set_name()</text>
<text text-anchor="start" x="92.37" y="-480" font-family="Helvetica,sans-Serif" font-size="10.00">+ get_name()</text>
<text text-anchor="start" x="92.37" y="-469" font-family="Helvetica,sans-Serif" font-size="10.00"># allocate()</text>
<text text-anchor="start" x="92.37" y="-458" font-family="Helvetica,sans-Serif" font-size="10.00"># free()</text>
<text text-anchor="middle" x="151.37" y="-447" font-family="Helvetica,sans-Serif" font-size="10.00">}</text>
</a>
</g>
</g>
<!-- Node4&#45;&gt;Node5 -->
<g id="edge5" class="edge">
<title>Node4&#45;&gt;Node5</title>
<path fill="none" stroke="#404040" d="M151.37,-670.99C151.37,-660.1 151.37,-648.41 151.37,-636.62"/>
<polygon fill="none" stroke="#404040" points="151.37,-636.31 147.37,-630.31 151.37,-624.31 155.37,-630.31 151.37,-636.31"/>
<text text-anchor="middle" x="176.87" y="-645" font-family="Helvetica,sans-Serif" font-size="10.00"> +location</text>
</g>
<!-- Node7 -->
<g id="node7" class="node">
<title>Node7</title>
<g id="a_node7"><a xlink:href="classsisi4s_1_1DryTensor.html" target="_top" xlink:title=" ">
<polygon fill="white" stroke="#666666" points="370.37,-624 236.37,-624 236.37,-440 370.37,-440 370.37,-624"/>
<text text-anchor="middle" x="303.37" y="-612" font-family="Helvetica,sans-Serif" font-size="10.00">{sisi4s::DryTensor&lt; F &gt;</text>
<text text-anchor="start" x="244.37" y="-601" font-family="Helvetica,sans-Serif" font-size="10.00">|+ order</text>
<text text-anchor="start" x="244.37" y="-590" font-family="Helvetica,sans-Serif" font-size="10.00">+ lens</text>
<text text-anchor="start" x="244.37" y="-579" font-family="Helvetica,sans-Serif" font-size="10.00">+ syms</text>
<text text-anchor="start" x="244.37" y="-568" font-family="Helvetica,sans-Serif" font-size="10.00">+ name</text>
<text text-anchor="start" x="244.37" y="-557" font-family="Helvetica,sans-Serif" font-size="10.00"># size</text>
<text text-anchor="start" x="244.37" y="-546" font-family="Helvetica,sans-Serif" font-size="10.00">|+ DryTensor()</text>
<text text-anchor="start" x="244.37" y="-535" font-family="Helvetica,sans-Serif" font-size="10.00">+ DryTensor()</text>
<text text-anchor="start" x="244.37" y="-524" font-family="Helvetica,sans-Serif" font-size="10.00">+ ~DryTensor()</text>
<text text-anchor="start" x="244.37" y="-513" font-family="Helvetica,sans-Serif" font-size="10.00">+ use()</text>
<text text-anchor="start" x="244.37" y="-502" font-family="Helvetica,sans-Serif" font-size="10.00">+ getElementsCount()</text>
<text text-anchor="start" x="244.37" y="-491" font-family="Helvetica,sans-Serif" font-size="10.00">+ set_name()</text>
<text text-anchor="start" x="244.37" y="-480" font-family="Helvetica,sans-Serif" font-size="10.00">+ get_name()</text>
<text text-anchor="start" x="244.37" y="-469" font-family="Helvetica,sans-Serif" font-size="10.00"># allocate()</text>
<text text-anchor="start" x="244.37" y="-458" font-family="Helvetica,sans-Serif" font-size="10.00"># free()</text>
<text text-anchor="middle" x="303.37" y="-447" font-family="Helvetica,sans-Serif" font-size="10.00">}</text>
</a>
</g>
</g>
<!-- Node4&#45;&gt;Node7 -->
<g id="edge8" class="edge">
<title>Node4&#45;&gt;Node7</title>
<path fill="none" stroke="#404040" d="M196.35,-670.99C206.53,-657.87 217.59,-643.6 228.62,-629.38"/>
<polygon fill="none" stroke="#404040" points="228.89,-629.04 229.4,-621.85 236.24,-619.56 235.73,-626.75 228.89,-629.04"/>
<text text-anchor="middle" x="243.87" y="-645" font-family="Helvetica,sans-Serif" font-size="10.00"> +location</text>
</g>
<!-- Node5&#45;&gt;Node3 -->
<g id="edge4" class="edge">
<title>Node5&#45;&gt;Node3</title>
<path fill="none" stroke="orange" d="M151.37,-429.7C151.37,-417.55 151.37,-405.21 151.37,-393.23"/>
<polygon fill="orange" stroke="orange" points="147.87,-429.84 151.37,-439.84 154.87,-429.84 147.87,-429.84"/>
<text text-anchor="middle" x="167.37" y="-414" font-family="Helvetica,sans-Serif" font-size="10.00"> &lt; F &gt;</text>
</g>
<!-- Node6 -->
<g id="node6" class="node">
<title>Node6</title>
<g id="a_node6"><a xlink:href="classsisi4s_1_1DryMatrix.html" target="_top" xlink:title=" ">
<polygon fill="white" stroke="#666666" points="370.37,-321.5 236.37,-321.5 236.37,-280.5 370.37,-280.5 370.37,-321.5"/>
<text text-anchor="middle" x="303.37" y="-309.5" font-family="Helvetica,sans-Serif" font-size="10.00">{sisi4s::DryMatrix&lt; F &gt;</text>
<text text-anchor="start" x="244.37" y="-298.5" font-family="Helvetica,sans-Serif" font-size="10.00">||+ DryMatrix()</text>
<text text-anchor="middle" x="303.37" y="-287.5" font-family="Helvetica,sans-Serif" font-size="10.00">}</text>
</a>
</g>
</g>
<!-- Node6&#45;&gt;Node2 -->
<g id="edge6" class="edge">
<title>Node6&#45;&gt;Node2</title>
<path fill="none" stroke="orange" d="M289.29,-271.21C273.86,-239.65 249.52,-189.86 236.08,-162.38"/>
<polygon fill="orange" stroke="orange" points="286.23,-272.92 293.77,-280.37 292.52,-269.85 286.23,-272.92"/>
<text text-anchor="middle" x="264.37" y="-183" font-family="Helvetica,sans-Serif" font-size="10.00"> &lt; F &gt;</text>
</g>
<!-- Node7&#45;&gt;Node6 -->
<g id="edge7" class="edge">
<title>Node7&#45;&gt;Node6</title>
<path fill="none" stroke="#63b8ff" d="M303.37,-429.79C303.37,-388.94 303.37,-345.8 303.37,-321.55"/>
<polygon fill="none" stroke="#63b8ff" points="299.87,-429.84 303.37,-439.84 306.87,-429.84 299.87,-429.84"/>
</g>
</g>
</svg>
