<?xml version="1.0" encoding="UTF-8" standalone="no"?>
<!DOCTYPE svg PUBLIC "-//W3C//DTD SVG 1.1//EN"
 "http://www.w3.org/Graphics/SVG/1.1/DTD/svg11.dtd">
<!-- Generated by graphviz version 5.0.1 (0)
 -->
<!-- Title: sisi4s::ParenthesisTriples::getVpppijkOnTheFly Pages: 1 -->
<svg width="609pt" height="107pt"
 viewBox="0.00 0.00 609.00 107.00" xmlns="http://www.w3.org/2000/svg" xmlns:xlink="http://www.w3.org/1999/xlink">
<g id="graph0" class="graph" transform="scale(1 1) rotate(0) translate(4 103)">
<title>sisi4s::ParenthesisTriples::getVpppijkOnTheFly</title>
<!-- Node1 -->
<g id="node1" class="node">
<title>Node1</title>
<g id="a_node1"><a xlink:title=" ">
<polygon fill="#999999" stroke="#666666" points="138,-54 0,-54 0,-24 138,-24 138,-54"/>
<text text-anchor="start" x="8" y="-42" font-family="Helvetica,sans-Serif" font-size="10.00">sisi4s::ParenthesisTriples</text>
<text text-anchor="middle" x="69" y="-31" font-family="Helvetica,sans-Serif" font-size="10.00">::getVpppijkOnTheFly</text>
</a>
</g>
</g>
<!-- Node2 -->
<g id="node2" class="node">
<title>Node2</title>
<g id="a_node2"><a xlink:href="classsisi4s_1_1Algorithm.html#a5e80a507fac066ab5714b62364cabaaf" target="_top" xlink:title=" ">
<polygon fill="white" stroke="#666666" points="282.5,-78 178.5,-78 178.5,-48 282.5,-48 282.5,-78"/>
<text text-anchor="start" x="186.5" y="-66" font-family="Helvetica,sans-Serif" font-size="10.00">sisi4s::Algorithm::</text>
<text text-anchor="middle" x="230.5" y="-55" font-family="Helvetica,sans-Serif" font-size="10.00">getTextArgument</text>
</a>
</g>
</g>
<!-- Node1&#45;&gt;Node2 -->
<g id="edge1" class="edge">
<title>Node1&#45;&gt;Node2</title>
<path fill="none" stroke="#63b8ff" d="M138.11,-49.25C148.03,-50.74 158.21,-52.27 168,-53.75"/>
<polygon fill="#63b8ff" stroke="#63b8ff" points="167.62,-57.23 178.03,-55.26 168.66,-50.31 167.62,-57.23"/>
</g>
<!-- Node6 -->
<g id="node6" class="node">
<title>Node6</title>
<g id="a_node6"><a xlink:href="structsisi4s_1_1VectorTensor.html#ad294d21f8bffc70e623aaf2fab05d888" target="_top" xlink:title=" ">
<polygon fill="white" stroke="#666666" points="287,-30 174,-30 174,0 287,0 287,-30"/>
<text text-anchor="start" x="182" y="-18" font-family="Helvetica,sans-Serif" font-size="10.00">sisi4s::VectorTensor</text>
<text text-anchor="middle" x="230.5" y="-7" font-family="Helvetica,sans-Serif" font-size="10.00">::withReference</text>
</a>
</g>
</g>
<!-- Node1&#45;&gt;Node6 -->
<g id="edge5" class="edge">
<title>Node1&#45;&gt;Node6</title>
<path fill="none" stroke="#63b8ff" d="M138.11,-28.75C146.53,-27.48 155.14,-26.19 163.53,-24.93"/>
<polygon fill="#63b8ff" stroke="#63b8ff" points="164.27,-28.35 173.64,-23.41 163.23,-21.43 164.27,-28.35"/>
</g>
<!-- Node3 -->
<g id="node3" class="node">
<title>Node3</title>
<g id="a_node3"><a xlink:href="classsisi4s_1_1Algorithm.html#a1e53277220d32a33e20846267c253652" target="_top" xlink:title=" ">
<polygon fill="white" stroke="#666666" points="448.5,-99 344.5,-99 344.5,-69 448.5,-69 448.5,-99"/>
<text text-anchor="start" x="352.5" y="-87" font-family="Helvetica,sans-Serif" font-size="10.00">sisi4s::Algorithm::</text>
<text text-anchor="middle" x="396.5" y="-76" font-family="Helvetica,sans-Serif" font-size="10.00">getArgumentData</text>
</a>
</g>
</g>
<!-- Node2&#45;&gt;Node3 -->
<g id="edge2" class="edge">
<title>Node2&#45;&gt;Node3</title>
<path fill="none" stroke="#63b8ff" d="M282.94,-69.59C299.12,-71.66 317.15,-73.97 333.96,-76.12"/>
<polygon fill="#63b8ff" stroke="#63b8ff" points="333.88,-79.64 344.24,-77.44 334.77,-72.69 333.88,-79.64"/>
</g>
<!-- Node5 -->
<g id="node5" class="node">
<title>Node5</title>
<g id="a_node5"><a xlink:href="classsisi4s_1_1Data.html#a0ec0b1c7f2356fd43d82ee1dd0246789" target="_top" xlink:title=" ">
<polygon fill="white" stroke="#666666" points="470,-50.5 323,-50.5 323,-31.5 470,-31.5 470,-50.5"/>
<text text-anchor="middle" x="396.5" y="-38.5" font-family="Helvetica,sans-Serif" font-size="10.00">sisi4s::Data::getTypeName</text>
</a>
</g>
</g>
<!-- Node2&#45;&gt;Node5 -->
<g id="edge4" class="edge">
<title>Node2&#45;&gt;Node5</title>
<path fill="none" stroke="#63b8ff" d="M282.94,-56.1C292.91,-54.76 303.58,-53.33 314.23,-51.9"/>
<polygon fill="#63b8ff" stroke="#63b8ff" points="314.97,-55.33 324.41,-50.54 314.04,-48.4 314.97,-55.33"/>
</g>
<!-- Node4 -->
<g id="node4" class="node">
<title>Node4</title>
<g id="a_node4"><a xlink:href="classsisi4s_1_1Data.html#a5b4676e48b4f437d399587e6903f896a" target="_top" xlink:title=" ">
<polygon fill="white" stroke="#666666" points="601,-93.5 506,-93.5 506,-74.5 601,-74.5 601,-93.5"/>
<text text-anchor="middle" x="553.5" y="-81.5" font-family="Helvetica,sans-Serif" font-size="10.00">sisi4s::Data::get</text>
</a>
</g>
</g>
<!-- Node3&#45;&gt;Node4 -->
<g id="edge3" class="edge">
<title>Node3&#45;&gt;Node4</title>
<path fill="none" stroke="#63b8ff" d="M448.68,-84C463.66,-84 480.12,-84 495.43,-84"/>
<polygon fill="#63b8ff" stroke="#63b8ff" points="495.82,-87.5 505.82,-84 495.82,-80.5 495.82,-87.5"/>
</g>
</g>
</svg>
