<?xml version="1.0" encoding="UTF-8" standalone="no"?>
<!DOCTYPE svg PUBLIC "-//W3C//DTD SVG 1.1//EN"
 "http://www.w3.org/Graphics/SVG/1.1/DTD/svg11.dtd">
<!-- Generated by graphviz version 5.0.1 (0)
 -->
<!-- Title: sisi4s::DoublesAmplitudesFromVertex::dryRun Pages: 1 -->
<svg width="626pt" height="97pt"
 viewBox="0.00 0.00 626.00 96.50" xmlns="http://www.w3.org/2000/svg" xmlns:xlink="http://www.w3.org/1999/xlink">
<g id="graph0" class="graph" transform="scale(1 1) rotate(0) translate(4 92.5)">
<title>sisi4s::DoublesAmplitudesFromVertex::dryRun</title>
<!-- Node1 -->
<g id="node1" class="node">
<title>Node1</title>
<g id="a_node1"><a xlink:title="Dry run for calculating doubles integrals Tabij.">
<polygon fill="#999999" stroke="#666666" points="146,-45.5 0,-45.5 0,-15.5 146,-15.5 146,-45.5"/>
<text text-anchor="start" x="8" y="-33.5" font-family="Helvetica,sans-Serif" font-size="10.00">sisi4s::DoublesAmplitudes</text>
<text text-anchor="middle" x="73" y="-22.5" font-family="Helvetica,sans-Serif" font-size="10.00">FromVertex::dryRun</text>
</a>
</g>
</g>
<!-- Node2 -->
<g id="node2" class="node">
<title>Node2</title>
<g id="a_node2"><a xlink:href="classsisi4s_1_1Algorithm.html#a338a44c8fd4d6be3b32a6d5e71dfe180" target="_top" xlink:title=" ">
<polygon fill="white" stroke="#666666" points="299,-67.5 187,-67.5 187,-37.5 299,-37.5 299,-67.5"/>
<text text-anchor="start" x="195" y="-55.5" font-family="Helvetica,sans-Serif" font-size="10.00">sisi4s::Algorithm::</text>
<text text-anchor="middle" x="243" y="-44.5" font-family="Helvetica,sans-Serif" font-size="10.00">getTensorArgument</text>
</a>
</g>
</g>
<!-- Node1&#45;&gt;Node2 -->
<g id="edge1" class="edge">
<title>Node1&#45;&gt;Node2</title>
<path fill="none" stroke="#63b8ff" d="M146.22,-39.96C156.32,-41.28 166.65,-42.63 176.61,-43.94"/>
<polygon fill="#63b8ff" stroke="#63b8ff" points="176.47,-47.45 186.84,-45.28 177.38,-40.51 176.47,-47.45"/>
</g>
<!-- Node6 -->
<g id="node6" class="node">
<title>Node6</title>
<g id="a_node6"><a xlink:href="classsisi4s_1_1DryTensor.html#a018bdb94ca9e6db40cb89eb2ad59ab02" target="_top" xlink:title=" ">
<polygon fill="white" stroke="#666666" points="304,-19 182,-19 182,0 304,0 304,-19"/>
<text text-anchor="middle" x="243" y="-7" font-family="Helvetica,sans-Serif" font-size="10.00">sisi4s::DryTensor::use</text>
</a>
</g>
</g>
<!-- Node1&#45;&gt;Node6 -->
<g id="edge5" class="edge">
<title>Node1&#45;&gt;Node6</title>
<path fill="none" stroke="#63b8ff" d="M146.22,-21.47C154.69,-20.41 163.33,-19.33 171.77,-18.28"/>
<polygon fill="#63b8ff" stroke="#63b8ff" points="172.47,-21.72 181.96,-17.01 171.6,-14.77 172.47,-21.72"/>
</g>
<!-- Node3 -->
<g id="node3" class="node">
<title>Node3</title>
<g id="a_node3"><a xlink:href="classsisi4s_1_1Algorithm.html#a1e53277220d32a33e20846267c253652" target="_top" xlink:title=" ">
<polygon fill="white" stroke="#666666" points="465.5,-88.5 361.5,-88.5 361.5,-58.5 465.5,-58.5 465.5,-88.5"/>
<text text-anchor="start" x="369.5" y="-76.5" font-family="Helvetica,sans-Serif" font-size="10.00">sisi4s::Algorithm::</text>
<text text-anchor="middle" x="413.5" y="-65.5" font-family="Helvetica,sans-Serif" font-size="10.00">getArgumentData</text>
</a>
</g>
</g>
<!-- Node2&#45;&gt;Node3 -->
<g id="edge2" class="edge">
<title>Node2&#45;&gt;Node3</title>
<path fill="none" stroke="#63b8ff" d="M299.17,-59.38C315.79,-61.45 334.12,-63.73 351.11,-65.85"/>
<polygon fill="#63b8ff" stroke="#63b8ff" points="351.13,-69.38 361.48,-67.14 351.99,-62.43 351.13,-69.38"/>
</g>
<!-- Node5 -->
<g id="node5" class="node">
<title>Node5</title>
<g id="a_node5"><a xlink:href="classsisi4s_1_1Data.html#a0ec0b1c7f2356fd43d82ee1dd0246789" target="_top" xlink:title=" ">
<polygon fill="white" stroke="#666666" points="487,-40 340,-40 340,-21 487,-21 487,-40"/>
<text text-anchor="middle" x="413.5" y="-28" font-family="Helvetica,sans-Serif" font-size="10.00">sisi4s::Data::getTypeName</text>
</a>
</g>
</g>
<!-- Node2&#45;&gt;Node5 -->
<g id="edge4" class="edge">
<title>Node2&#45;&gt;Node5</title>
<path fill="none" stroke="#63b8ff" d="M299.17,-45.3C308.99,-44.01 319.41,-42.65 329.8,-41.3"/>
<polygon fill="#63b8ff" stroke="#63b8ff" points="330.27,-44.77 339.73,-40 329.36,-37.83 330.27,-44.77"/>
</g>
<!-- Node4 -->
<g id="node4" class="node">
<title>Node4</title>
<g id="a_node4"><a xlink:href="classsisi4s_1_1Data.html#a5b4676e48b4f437d399587e6903f896a" target="_top" xlink:title=" ">
<polygon fill="white" stroke="#666666" points="618,-83 523,-83 523,-64 618,-64 618,-83"/>
<text text-anchor="middle" x="570.5" y="-71" font-family="Helvetica,sans-Serif" font-size="10.00">sisi4s::Data::get</text>
</a>
</g>
</g>
<!-- Node3&#45;&gt;Node4 -->
<g id="edge3" class="edge">
<title>Node3&#45;&gt;Node4</title>
<path fill="none" stroke="#63b8ff" d="M465.68,-73.5C480.66,-73.5 497.12,-73.5 512.43,-73.5"/>
<polygon fill="#63b8ff" stroke="#63b8ff" points="512.82,-77 522.82,-73.5 512.82,-70 512.82,-77"/>
</g>
</g>
</svg>
