<?xml version="1.0" encoding="UTF-8" standalone="no"?>
<!DOCTYPE svg PUBLIC "-//W3C//DTD SVG 1.1//EN"
 "http://www.w3.org/Graphics/SVG/1.1/DTD/svg11.dtd">
<!-- Generated by graphviz version 5.0.1 (0)
 -->
<!-- Title: sisi4s::Mp2NaturalOrbitals::run Pages: 1 -->
<svg width="680pt" height="274pt"
 viewBox="0.00 0.00 680.00 274.00" xmlns="http://www.w3.org/2000/svg" xmlns:xlink="http://www.w3.org/1999/xlink">
<g id="graph0" class="graph" transform="scale(1 1) rotate(0) translate(4 270)">
<title>sisi4s::Mp2NaturalOrbitals::run</title>
<!-- Node1 -->
<g id="node1" class="node">
<title>Node1</title>
<g id="a_node1"><a xlink:title="Calculates MP2 energy from Coulomb integrals Vabij.">
<polygon fill="#bfbfbf" stroke="black" points="0,-118 0,-137 167,-137 167,-118 0,-118"/>
<text text-anchor="middle" x="83.5" y="-125" font-family="Helvetica,sans-Serif" font-size="10.00">sisi4s::Mp2NaturalOrbitals::run</text>
</a>
</g>
</g>
<!-- Node2 -->
<g id="node2" class="node">
<title>Node2</title>
<g id="a_node2"><a xlink:href="classsisi4s_1_1Algorithm.html#a388052a12509b8b641f17bbe8d41f8f3" target="_top" xlink:title="Specifies the location of an output tensor data.">
<polygon fill="none" stroke="black" points="203,-235.5 203,-265.5 344,-265.5 344,-235.5 203,-235.5"/>
<text text-anchor="start" x="211" y="-253.5" font-family="Helvetica,sans-Serif" font-size="10.00">sisi4s::Algorithm::</text>
<text text-anchor="middle" x="273.5" y="-242.5" font-family="Helvetica,sans-Serif" font-size="10.00">allocatedTensorArgument</text>
</a>
</g>
</g>
<!-- Node1&#45;&gt;Node2 -->
<g id="edge1" class="edge">
<title>Node1&#45;&gt;Node2</title>
<path fill="none" stroke="midnightblue" d="M93.44,-137.01C112.09,-156.35 157.25,-200.66 203,-226.5 206.04,-228.22 209.22,-229.84 212.48,-231.37"/>
<polygon fill="midnightblue" stroke="midnightblue" points="211.25,-234.65 221.82,-235.44 214.05,-228.23 211.25,-234.65"/>
</g>
<!-- Node6 -->
<g id="node6" class="node">
<title>Node6</title>
<g id="a_node6"><a xlink:href="Lapack_8hpp.html#a5dd7884f39150c29793947da3b7a78f4" target="_top" xlink:title=" ">
<polygon fill="none" stroke="black" points="248,-50 248,-69 299,-69 299,-50 248,-50"/>
<text text-anchor="middle" x="273.5" y="-57" font-family="Helvetica,sans-Serif" font-size="10.00">dsyev_</text>
</a>
</g>
</g>
<!-- Node1&#45;&gt;Node6 -->
<g id="edge5" class="edge">
<title>Node1&#45;&gt;Node6</title>
<path fill="none" stroke="midnightblue" d="M105.6,-117.83C129.06,-107.3 168.24,-90.38 203,-78.5 214.24,-74.66 226.7,-71.05 237.93,-68.04"/>
<polygon fill="midnightblue" stroke="midnightblue" points="239.04,-71.36 247.83,-65.44 237.27,-64.59 239.04,-71.36"/>
</g>
<!-- Node7 -->
<g id="node7" class="node">
<title>Node7</title>
<g id="a_node7"><a xlink:href="classsisi4s_1_1Algorithm.html#a5db14be3b0d33bf80218a37223e27667" target="_top" xlink:title=" ">
<polygon fill="none" stroke="black" points="216,-186.5 216,-216.5 331,-216.5 331,-186.5 216,-186.5"/>
<text text-anchor="start" x="224" y="-204.5" font-family="Helvetica,sans-Serif" font-size="10.00">sisi4s::Algorithm::</text>
<text text-anchor="middle" x="273.5" y="-193.5" font-family="Helvetica,sans-Serif" font-size="10.00">getIntegerArgument</text>
</a>
</g>
</g>
<!-- Node1&#45;&gt;Node7 -->
<g id="edge6" class="edge">
<title>Node1&#45;&gt;Node7</title>
<path fill="none" stroke="midnightblue" d="M106.16,-137.15C129.79,-147.56 168.8,-164.4 203,-177.5 207.79,-179.34 212.8,-181.19 217.83,-183.01"/>
<polygon fill="midnightblue" stroke="midnightblue" points="216.88,-186.39 227.48,-186.44 219.23,-179.79 216.88,-186.39"/>
</g>
<!-- Node9 -->
<g id="node9" class="node">
<title>Node9</title>
<g id="a_node9"><a xlink:href="classsisi4s_1_1Algorithm.html#a36c632fbb19dae4ce2f415705fa5cbcb" target="_top" xlink:title=" ">
<polygon fill="none" stroke="black" points="221.5,-88.5 221.5,-118.5 325.5,-118.5 325.5,-88.5 221.5,-88.5"/>
<text text-anchor="start" x="229.5" y="-106.5" font-family="Helvetica,sans-Serif" font-size="10.00">sisi4s::Algorithm::</text>
<text text-anchor="middle" x="273.5" y="-95.5" font-family="Helvetica,sans-Serif" font-size="10.00">getRealArgument</text>
</a>
</g>
</g>
<!-- Node1&#45;&gt;Node9 -->
<g id="edge9" class="edge">
<title>Node1&#45;&gt;Node9</title>
<path fill="none" stroke="midnightblue" d="M159.07,-117.98C176.39,-115.77 194.63,-113.44 211.3,-111.31"/>
<polygon fill="midnightblue" stroke="midnightblue" points="211.97,-114.76 221.45,-110.02 211.09,-107.81 211.97,-114.76"/>
</g>
<!-- Node12 -->
<g id="node12" class="node">
<title>Node12</title>
<g id="a_node12"><a xlink:href="classsisi4s_1_1Algorithm.html#a338a44c8fd4d6be3b32a6d5e71dfe180" target="_top" xlink:title=" ">
<polygon fill="none" stroke="black" points="217.5,-137.5 217.5,-167.5 329.5,-167.5 329.5,-137.5 217.5,-137.5"/>
<text text-anchor="start" x="225.5" y="-155.5" font-family="Helvetica,sans-Serif" font-size="10.00">sisi4s::Algorithm::</text>
<text text-anchor="middle" x="273.5" y="-144.5" font-family="Helvetica,sans-Serif" font-size="10.00">getTensorArgument</text>
</a>
</g>
</g>
<!-- Node1&#45;&gt;Node12 -->
<g id="edge14" class="edge">
<title>Node1&#45;&gt;Node12</title>
<path fill="none" stroke="midnightblue" d="M156.11,-137.02C172.95,-139.26 190.81,-141.64 207.36,-143.84"/>
<polygon fill="midnightblue" stroke="midnightblue" points="207.09,-147.33 217.46,-145.18 208.01,-140.39 207.09,-147.33"/>
</g>
<!-- Node13 -->
<g id="node13" class="node">
<title>Node13</title>
<g id="a_node13"><a xlink:href="classsisi4s_1_1Algorithm.html#aec9041b31cb64a42ee1fd79d32774266" target="_top" xlink:title=" ">
<polygon fill="none" stroke="black" points="221.5,-0.5 221.5,-30.5 325.5,-30.5 325.5,-0.5 221.5,-0.5"/>
<text text-anchor="start" x="229.5" y="-18.5" font-family="Helvetica,sans-Serif" font-size="10.00">sisi4s::Algorithm::</text>
<text text-anchor="middle" x="273.5" y="-7.5" font-family="Helvetica,sans-Serif" font-size="10.00">isArgumentGiven</text>
</a>
</g>
</g>
<!-- Node1&#45;&gt;Node13 -->
<g id="edge17" class="edge">
<title>Node1&#45;&gt;Node13</title>
<path fill="none" stroke="midnightblue" d="M95.22,-117.95C115.19,-100.56 159.97,-63.41 203,-40.5 206.99,-38.37 211.2,-36.36 215.5,-34.47"/>
<polygon fill="midnightblue" stroke="midnightblue" points="217.09,-37.59 224.98,-30.52 214.4,-31.13 217.09,-37.59"/>
</g>
<!-- Node3 -->
<g id="node3" class="node">
<title>Node3</title>
<g id="a_node3"><a xlink:href="classsisi4s_1_1Algorithm.html#a1e53277220d32a33e20846267c253652" target="_top" xlink:title=" ">
<polygon fill="none" stroke="black" points="408.5,-184.5 408.5,-214.5 512.5,-214.5 512.5,-184.5 408.5,-184.5"/>
<text text-anchor="start" x="416.5" y="-202.5" font-family="Helvetica,sans-Serif" font-size="10.00">sisi4s::Algorithm::</text>
<text text-anchor="middle" x="460.5" y="-191.5" font-family="Helvetica,sans-Serif" font-size="10.00">getArgumentData</text>
</a>
</g>
</g>
<!-- Node2&#45;&gt;Node3 -->
<g id="edge2" class="edge">
<title>Node2&#45;&gt;Node3</title>
<path fill="none" stroke="midnightblue" d="M329.01,-235.47C350.82,-229.46 376.06,-222.5 398.48,-216.32"/>
<polygon fill="midnightblue" stroke="midnightblue" points="399.53,-219.66 408.24,-213.63 397.67,-212.92 399.53,-219.66"/>
</g>
<!-- Node5 -->
<g id="node5" class="node">
<title>Node5</title>
<g id="a_node5"><a xlink:href="classsisi4s_1_1Data.html#a10819dce08cb4dd8d881b9fe02036d69" target="_top" xlink:title=" ">
<polygon fill="none" stroke="black" points="398,-241 398,-260 523,-260 523,-241 398,-241"/>
<text text-anchor="middle" x="460.5" y="-248" font-family="Helvetica,sans-Serif" font-size="10.00">sisi4s::Data::getName</text>
</a>
</g>
</g>
<!-- Node2&#45;&gt;Node5 -->
<g id="edge4" class="edge">
<title>Node2&#45;&gt;Node5</title>
<path fill="none" stroke="midnightblue" d="M344.18,-250.5C358.35,-250.5 373.29,-250.5 387.55,-250.5"/>
<polygon fill="midnightblue" stroke="midnightblue" points="387.78,-254 397.78,-250.5 387.78,-247 387.78,-254"/>
</g>
<!-- Node4 -->
<g id="node4" class="node">
<title>Node4</title>
<g id="a_node4"><a xlink:href="classsisi4s_1_1Data.html#a5b4676e48b4f437d399587e6903f896a" target="_top" xlink:title=" ">
<polygon fill="none" stroke="black" points="577,-190 577,-209 672,-209 672,-190 577,-190"/>
<text text-anchor="middle" x="624.5" y="-197" font-family="Helvetica,sans-Serif" font-size="10.00">sisi4s::Data::get</text>
</a>
</g>
</g>
<!-- Node3&#45;&gt;Node4 -->
<g id="edge3" class="edge">
<title>Node3&#45;&gt;Node4</title>
<path fill="none" stroke="midnightblue" d="M512.76,-199.5C529.96,-199.5 549.24,-199.5 566.83,-199.5"/>
<polygon fill="midnightblue" stroke="midnightblue" points="566.97,-203 576.97,-199.5 566.97,-196 566.97,-203"/>
</g>
<!-- Node7&#45;&gt;Node3 -->
<g id="edge7" class="edge">
<title>Node7&#45;&gt;Node3</title>
<path fill="none" stroke="midnightblue" d="M331.01,-200.89C352.29,-200.66 376.59,-200.4 398.28,-200.16"/>
<polygon fill="midnightblue" stroke="midnightblue" points="398.4,-203.66 408.37,-200.05 398.33,-196.66 398.4,-203.66"/>
</g>
<!-- Node8 -->
<g id="node8" class="node">
<title>Node8</title>
<g id="a_node8"><a xlink:href="classsisi4s_1_1Data.html#a0ec0b1c7f2356fd43d82ee1dd0246789" target="_top" xlink:title=" ">
<polygon fill="none" stroke="black" points="387,-143 387,-162 534,-162 534,-143 387,-143"/>
<text text-anchor="middle" x="460.5" y="-150" font-family="Helvetica,sans-Serif" font-size="10.00">sisi4s::Data::getTypeName</text>
</a>
</g>
</g>
<!-- Node7&#45;&gt;Node8 -->
<g id="edge8" class="edge">
<title>Node7&#45;&gt;Node8</title>
<path fill="none" stroke="midnightblue" d="M331.01,-186.53C357.44,-179.53 388.52,-171.3 413.48,-164.69"/>
<polygon fill="midnightblue" stroke="midnightblue" points="414.66,-168 423.43,-162.05 412.87,-161.23 414.66,-168"/>
</g>
<!-- Node9&#45;&gt;Node3 -->
<g id="edge10" class="edge">
<title>Node9&#45;&gt;Node3</title>
<path fill="none" stroke="midnightblue" d="M325.83,-117.54C332.22,-120.34 338.45,-123.63 344,-127.5 364.73,-141.95 359.32,-156.99 380,-171.5 385.85,-175.6 392.35,-179.16 399.06,-182.23"/>
<polygon fill="midnightblue" stroke="midnightblue" points="397.7,-185.45 408.28,-186.12 400.42,-179 397.7,-185.45"/>
</g>
<!-- Node9&#45;&gt;Node8 -->
<g id="edge13" class="edge">
<title>Node9&#45;&gt;Node8</title>
<path fill="none" stroke="midnightblue" d="M325.54,-117.02C353.14,-124.33 386.94,-133.28 413.69,-140.37"/>
<polygon fill="midnightblue" stroke="midnightblue" points="413,-143.81 423.57,-142.98 414.8,-137.04 413,-143.81"/>
</g>
<!-- Node10 -->
<g id="node10" class="node">
<title>Node10</title>
<g id="a_node10"><a xlink:href="classsisi4s_1_1Algorithm.html#a1cb9a5e8f19cd8e6b70bb06738ca9413" target="_top" xlink:title=" ">
<polygon fill="none" stroke="black" points="380,-42.5 380,-72.5 541,-72.5 541,-42.5 380,-42.5"/>
<text text-anchor="start" x="388" y="-60.5" font-family="Helvetica,sans-Serif" font-size="10.00">sisi4s::Algorithm::</text>
<text text-anchor="middle" x="460.5" y="-49.5" font-family="Helvetica,sans-Serif" font-size="10.00">getRealArgumentFromInteger</text>
</a>
</g>
</g>
<!-- Node9&#45;&gt;Node10 -->
<g id="edge11" class="edge">
<title>Node9&#45;&gt;Node10</title>
<path fill="none" stroke="midnightblue" d="M325.54,-90.81C345.21,-85.92 368.03,-80.24 389.2,-74.98"/>
<polygon fill="midnightblue" stroke="midnightblue" points="390.25,-78.33 399.11,-72.52 388.56,-71.53 390.25,-78.33"/>
</g>
<!-- Node11 -->
<g id="node11" class="node">
<title>Node11</title>
<g id="a_node11"><a xlink:href="classsisi4s_1_1Algorithm.html#a89e59623f1c238a871a4fba19371be7d" target="_top" xlink:title=" ">
<polygon fill="none" stroke="black" points="381.5,-91.5 381.5,-121.5 539.5,-121.5 539.5,-91.5 381.5,-91.5"/>
<text text-anchor="start" x="389.5" y="-109.5" font-family="Helvetica,sans-Serif" font-size="10.00">sisi4s::Algorithm::</text>
<text text-anchor="middle" x="460.5" y="-98.5" font-family="Helvetica,sans-Serif" font-size="10.00">getRealArgumentFromTensor</text>
</a>
</g>
</g>
<!-- Node9&#45;&gt;Node11 -->
<g id="edge12" class="edge">
<title>Node9&#45;&gt;Node11</title>
<path fill="none" stroke="midnightblue" d="M325.54,-104.33C339.67,-104.56 355.42,-104.81 371.02,-105.07"/>
<polygon fill="midnightblue" stroke="midnightblue" points="371.17,-108.57 381.23,-105.23 371.28,-101.57 371.17,-108.57"/>
</g>
<!-- Node12&#45;&gt;Node3 -->
<g id="edge15" class="edge">
<title>Node12&#45;&gt;Node3</title>
<path fill="none" stroke="midnightblue" d="M329.51,-166.47C351.12,-171.97 376.02,-178.29 398.21,-183.93"/>
<polygon fill="midnightblue" stroke="midnightblue" points="397.63,-187.39 408.19,-186.46 399.36,-180.61 397.63,-187.39"/>
</g>
<!-- Node12&#45;&gt;Node8 -->
<g id="edge16" class="edge">
<title>Node12&#45;&gt;Node8</title>
<path fill="none" stroke="midnightblue" d="M329.51,-152.5C344.27,-152.5 360.57,-152.5 376.49,-152.5"/>
<polygon fill="midnightblue" stroke="midnightblue" points="376.88,-156 386.88,-152.5 376.88,-149 376.88,-156"/>
</g>
</g>
</svg>
