<?xml version="1.0" encoding="UTF-8" standalone="no"?>
<!DOCTYPE svg PUBLIC "-//W3C//DTD SVG 1.1//EN"
 "http://www.w3.org/Graphics/SVG/1.1/DTD/svg11.dtd">
<!-- Generated by graphviz version 7.0.0 (0)
 -->
<!-- Title: sisi4s::LinearMixer::LinearMixer Pages: 1 -->
<svg width="583pt" height="172pt"
 viewBox="0.00 0.00 583.00 171.50" xmlns="http://www.w3.org/2000/svg" xmlns:xlink="http://www.w3.org/1999/xlink">
<g id="graph0" class="graph" transform="scale(1 1) rotate(0) translate(4 167.5)">
<title>sisi4s::LinearMixer::LinearMixer</title>
<!-- Node1 -->
<g id="node1" class="node">
<title>Node1</title>
<g id="a_node1"><a xlink:title=" ">
<polygon fill="#999999" stroke="#666666" points="107,-91.5 0,-91.5 0,-61.5 107,-61.5 107,-91.5"/>
<text text-anchor="start" x="8" y="-79.5" font-family="Helvetica,sans-Serif" font-size="10.00">sisi4s::LinearMixer</text>
<text text-anchor="middle" x="53.5" y="-68.5" font-family="Helvetica,sans-Serif" font-size="10.00">::LinearMixer</text>
</a>
</g>
</g>
<!-- Node2 -->
<g id="node2" class="node">
<title>Node2</title>
<g id="a_node2"><a xlink:href="classsisi4s_1_1Algorithm.html#a36c632fbb19dae4ce2f415705fa5cbcb" target="_top" xlink:title=" ">
<polygon fill="white" stroke="#666666" points="247,-91.5 143,-91.5 143,-61.5 247,-61.5 247,-91.5"/>
<text text-anchor="start" x="151" y="-79.5" font-family="Helvetica,sans-Serif" font-size="10.00">sisi4s::Algorithm::</text>
<text text-anchor="middle" x="195" y="-68.5" font-family="Helvetica,sans-Serif" font-size="10.00">getRealArgument</text>
</a>
</g>
</g>
<!-- Node1&#45;&gt;Node2 -->
<g id="edge1" class="edge">
<title>Node1&#45;&gt;Node2</title>
<path fill="none" stroke="#63b8ff" d="M107.24,-76.5C115.11,-76.5 123.28,-76.5 131.33,-76.5"/>
<polygon fill="#63b8ff" stroke="#63b8ff" points="131.06,-80 141.06,-76.5 131.06,-73 131.06,-80"/>
</g>
<!-- Node3 -->
<g id="node3" class="node">
<title>Node3</title>
<g id="a_node3"><a xlink:href="classsisi4s_1_1Algorithm.html#a1e53277220d32a33e20846267c253652" target="_top" xlink:title=" ">
<polygon fill="white" stroke="#666666" points="415.5,-163.5 311.5,-163.5 311.5,-133.5 415.5,-133.5 415.5,-163.5"/>
<text text-anchor="start" x="319.5" y="-151.5" font-family="Helvetica,sans-Serif" font-size="10.00">sisi4s::Algorithm::</text>
<text text-anchor="middle" x="363.5" y="-140.5" font-family="Helvetica,sans-Serif" font-size="10.00">getArgumentData</text>
</a>
</g>
</g>
<!-- Node2&#45;&gt;Node3 -->
<g id="edge2" class="edge">
<title>Node2&#45;&gt;Node3</title>
<path fill="none" stroke="#63b8ff" d="M220.43,-91.8C237.49,-102.03 261.06,-115.26 283,-124.5 288.56,-126.84 294.43,-129.06 300.36,-131.14"/>
<polygon fill="#63b8ff" stroke="#63b8ff" points="299.01,-134.37 309.61,-134.22 301.23,-127.74 299.01,-134.37"/>
</g>
<!-- Node5 -->
<g id="node5" class="node">
<title>Node5</title>
<g id="a_node5"><a xlink:href="classsisi4s_1_1Algorithm.html#a1cb9a5e8f19cd8e6b70bb06738ca9413" target="_top" xlink:title=" ">
<polygon fill="white" stroke="#666666" points="444,-115.5 283,-115.5 283,-85.5 444,-85.5 444,-115.5"/>
<text text-anchor="start" x="291" y="-103.5" font-family="Helvetica,sans-Serif" font-size="10.00">sisi4s::Algorithm::</text>
<text text-anchor="middle" x="363.5" y="-92.5" font-family="Helvetica,sans-Serif" font-size="10.00">getRealArgumentFromInteger</text>
</a>
</g>
</g>
<!-- Node2&#45;&gt;Node5 -->
<g id="edge4" class="edge">
<title>Node2&#45;&gt;Node5</title>
<path fill="none" stroke="#63b8ff" d="M247.31,-83.9C255,-85 263.11,-86.17 271.33,-87.36"/>
<polygon fill="#63b8ff" stroke="#63b8ff" points="270.68,-90.8 281.07,-88.76 271.67,-83.87 270.68,-90.8"/>
</g>
<!-- Node6 -->
<g id="node6" class="node">
<title>Node6</title>
<g id="a_node6"><a xlink:href="classsisi4s_1_1Algorithm.html#a89e59623f1c238a871a4fba19371be7d" target="_top" xlink:title=" ">
<polygon fill="white" stroke="#666666" points="442.5,-67.5 284.5,-67.5 284.5,-37.5 442.5,-37.5 442.5,-67.5"/>
<text text-anchor="start" x="292.5" y="-55.5" font-family="Helvetica,sans-Serif" font-size="10.00">sisi4s::Algorithm::</text>
<text text-anchor="middle" x="363.5" y="-44.5" font-family="Helvetica,sans-Serif" font-size="10.00">getRealArgumentFromTensor</text>
</a>
</g>
</g>
<!-- Node2&#45;&gt;Node6 -->
<g id="edge5" class="edge">
<title>Node2&#45;&gt;Node6</title>
<path fill="none" stroke="#63b8ff" d="M247.31,-69.1C255.51,-67.92 264.19,-66.67 272.97,-65.41"/>
<polygon fill="#63b8ff" stroke="#63b8ff" points="273.21,-68.91 282.61,-64.02 272.21,-61.98 273.21,-68.91"/>
</g>
<!-- Node7 -->
<g id="node7" class="node">
<title>Node7</title>
<g id="a_node7"><a xlink:href="classsisi4s_1_1Data.html#a0ec0b1c7f2356fd43d82ee1dd0246789" target="_top" xlink:title=" ">
<polygon fill="white" stroke="#666666" points="437,-19 290,-19 290,0 437,0 437,-19"/>
<text text-anchor="middle" x="363.5" y="-7" font-family="Helvetica,sans-Serif" font-size="10.00">sisi4s::Data::getTypeName</text>
</a>
</g>
</g>
<!-- Node2&#45;&gt;Node7 -->
<g id="edge6" class="edge">
<title>Node2&#45;&gt;Node7</title>
<path fill="none" stroke="#63b8ff" d="M219.89,-61.01C236.91,-50.56 260.64,-37.16 283,-28.5 288.71,-26.29 294.75,-24.29 300.85,-22.48"/>
<polygon fill="#63b8ff" stroke="#63b8ff" points="301.67,-25.89 310.37,-19.85 299.8,-19.14 301.67,-25.89"/>
</g>
<!-- Node4 -->
<g id="node4" class="node">
<title>Node4</title>
<g id="a_node4"><a xlink:href="classsisi4s_1_1Data.html#a5b4676e48b4f437d399587e6903f896a" target="_top" xlink:title=" ">
<polygon fill="white" stroke="#666666" points="575,-158 480,-158 480,-139 575,-139 575,-158"/>
<text text-anchor="middle" x="527.5" y="-146" font-family="Helvetica,sans-Serif" font-size="10.00">sisi4s::Data::get</text>
</a>
</g>
</g>
<!-- Node3&#45;&gt;Node4 -->
<g id="edge3" class="edge">
<title>Node3&#45;&gt;Node4</title>
<path fill="none" stroke="#63b8ff" d="M415.76,-148.5C432.56,-148.5 451.35,-148.5 468.61,-148.5"/>
<polygon fill="#63b8ff" stroke="#63b8ff" points="468.18,-152 478.18,-148.5 468.18,-145 468.18,-152"/>
</g>
</g>
</svg>
