<?xml version="1.0" encoding="UTF-8" standalone="no"?>
<!DOCTYPE svg PUBLIC "-//W3C//DTD SVG 1.1//EN"
 "http://www.w3.org/Graphics/SVG/1.1/DTD/svg11.dtd">
<!-- Generated by graphviz version 8.1.0 (0)
 -->
<!-- Title: sisi4s::Algorithm::allocateContainerArgument Pages: 1 -->
<svg width="449pt" height="80pt"
 viewBox="0.00 0.00 449.00 80.12" xmlns="http://www.w3.org/2000/svg" xmlns:xlink="http://www.w3.org/1999/xlink">
<g id="graph0" class="graph" transform="scale(1 1) rotate(0) translate(4 76.12)">
<title>sisi4s::Algorithm::allocateContainerArgument</title>
<!-- Node1 -->
<g id="Node000001" class="node">
<title>Node1</title>
<g id="a_Node000001"><a xlink:title=" ">
<polygon fill="#999999" stroke="#666666" points="150.25,-49.12 0,-49.12 0,-15.62 150.25,-15.62 150.25,-49.12"/>
<text text-anchor="start" x="8" y="-35.62" font-family="Helvetica,sans-Serif" font-size="10.00">sisi4s::Algorithm::</text>
<text text-anchor="middle" x="75.12" y="-22.88" font-family="Helvetica,sans-Serif" font-size="10.00">allocateContainerArgument</text>
</a>
</g>
</g>
<!-- Node2 -->
<g id="Node000002" class="node">
<title>Node2</title>
<g id="a_Node000002"><a xlink:href="classsisi4s_1_1Algorithm.html#a1e53277220d32a33e20846267c253652" target="_top" xlink:title=" ">
<polygon fill="white" stroke="#666666" points="300.12,-72.12 196.38,-72.12 196.38,-38.62 300.12,-38.62 300.12,-72.12"/>
<text text-anchor="start" x="204.38" y="-58.62" font-family="Helvetica,sans-Serif" font-size="10.00">sisi4s::Algorithm::</text>
<text text-anchor="middle" x="248.25" y="-45.88" font-family="Helvetica,sans-Serif" font-size="10.00">getArgumentData</text>
</a>
</g>
</g>
<!-- Node1&#45;&gt;Node2 -->
<g id="edge1_Node000001_Node000002" class="edge">
<title>Node1&#45;&gt;Node2</title>
<g id="a_edge1_Node000001_Node000002"><a xlink:title=" ">
<path fill="none" stroke="#63b8ff" d="M150.69,-42.4C162.29,-43.96 174.17,-45.55 185.45,-47.07"/>
<polygon fill="#63b8ff" stroke="#63b8ff" points="184.67,-50.63 195.05,-48.49 185.6,-43.69 184.67,-50.63"/>
</a>
</g>
</g>
<!-- Node4 -->
<g id="Node000004" class="node">
<title>Node4</title>
<g id="a_Node000004"><a xlink:href="classsisi4s_1_1Data.html#a10819dce08cb4dd8d881b9fe02036d69" target="_top" xlink:title=" ">
<polygon fill="white" stroke="#666666" points="310.25,-20.75 186.25,-20.75 186.25,0 310.25,0 310.25,-20.75"/>
<text text-anchor="middle" x="248.25" y="-7.25" font-family="Helvetica,sans-Serif" font-size="10.00">sisi4s::Data::getName</text>
</a>
</g>
</g>
<!-- Node1&#45;&gt;Node4 -->
<g id="edge3_Node000001_Node000004" class="edge">
<title>Node1&#45;&gt;Node4</title>
<g id="a_edge3_Node000001_Node000004"><a xlink:title=" ">
<path fill="none" stroke="#63b8ff" d="M150.69,-22.79C158.73,-21.75 166.92,-20.7 174.94,-19.67"/>
<polygon fill="#63b8ff" stroke="#63b8ff" points="175.28,-23.03 184.75,-18.28 174.39,-16.08 175.28,-23.03"/>
</a>
</g>
</g>
<!-- Node3 -->
<g id="Node000003" class="node">
<title>Node3</title>
<g id="a_Node000003"><a xlink:href="classsisi4s_1_1Data.html#a5b4676e48b4f437d399587e6903f896a" target="_top" xlink:title=" ">
<polygon fill="white" stroke="#666666" points="441,-65.75 346.25,-65.75 346.25,-45 441,-45 441,-65.75"/>
<text text-anchor="middle" x="393.62" y="-52.25" font-family="Helvetica,sans-Serif" font-size="10.00">sisi4s::Data::get</text>
</a>
</g>
</g>
<!-- Node2&#45;&gt;Node3 -->
<g id="edge2_Node000002_Node000003" class="edge">
<title>Node2&#45;&gt;Node3</title>
<g id="a_edge2_Node000002_Node000003"><a xlink:title=" ">
<path fill="none" stroke="#63b8ff" d="M300.61,-55.38C311.81,-55.38 323.74,-55.38 335.16,-55.38"/>
<polygon fill="#63b8ff" stroke="#63b8ff" points="334.92,-58.88 344.92,-55.38 334.92,-51.88 334.92,-58.88"/>
</a>
</g>
</g>
</g>
</svg>
