<?xml version="1.0" encoding="UTF-8" standalone="no"?>
<!DOCTYPE svg PUBLIC "-//W3C//DTD SVG 1.1//EN"
 "http://www.w3.org/Graphics/SVG/1.1/DTD/svg11.dtd">
<!-- Generated by graphviz version 5.0.1 (0)
 -->
<!-- Title: CLI::Formatter::make_subcommands Pages: 1 -->
<svg width="318pt" height="142pt"
 viewBox="0.00 0.00 318.00 142.00" xmlns="http://www.w3.org/2000/svg" xmlns:xlink="http://www.w3.org/1999/xlink">
<g id="graph0" class="graph" transform="scale(1 1) rotate(0) translate(4 138)">
<title>CLI::Formatter::make_subcommands</title>
<!-- Node1 -->
<g id="node1" class="node">
<title>Node1</title>
<g id="a_node1"><a xlink:title="This prints out all the subcommands.">
<polygon fill="#bfbfbf" stroke="black" points="0,-52 0,-82 119,-82 119,-52 0,-52"/>
<text text-anchor="start" x="8" y="-70" font-family="Helvetica,sans-Serif" font-size="10.00">CLI::Formatter::make</text>
<text text-anchor="middle" x="59.5" y="-59" font-family="Helvetica,sans-Serif" font-size="10.00">_subcommands</text>
</a>
</g>
</g>
<!-- Node2 -->
<g id="node2" class="node">
<title>Node2</title>
<g id="a_node2"><a xlink:href="classCLI_1_1App.html#a7285a71dac7f168f5d0f992ac75f404d" target="_top" xlink:title="Get the group of this subcommand.">
<polygon fill="none" stroke="black" points="177,-114.5 177,-133.5 288,-133.5 288,-114.5 177,-114.5"/>
<text text-anchor="middle" x="232.5" y="-121.5" font-family="Helvetica,sans-Serif" font-size="10.00">CLI::App::get_group</text>
</a>
</g>
</g>
<!-- Node1&#45;&gt;Node2 -->
<g id="edge1" class="edge">
<title>Node1&#45;&gt;Node2</title>
<path fill="none" stroke="midnightblue" d="M94.64,-82.06C112.42,-89.56 134.64,-98.41 155,-105 162.68,-107.49 170.89,-109.83 178.97,-111.98"/>
<polygon fill="midnightblue" stroke="midnightblue" points="178.16,-115.38 188.72,-114.49 179.9,-108.61 178.16,-115.38"/>
</g>
<!-- Node3 -->
<g id="node3" class="node">
<title>Node3</title>
<g id="a_node3"><a xlink:href="classCLI_1_1App.html#a6b4b0c02d0c3d08b534fb93737056751" target="_top" xlink:title=" ">
<polygon fill="none" stroke="black" points="155,-76.5 155,-95.5 310,-95.5 310,-76.5 155,-76.5"/>
<text text-anchor="middle" x="232.5" y="-83.5" font-family="Helvetica,sans-Serif" font-size="10.00">CLI::App::get_subcommands</text>
</a>
</g>
</g>
<!-- Node1&#45;&gt;Node3 -->
<g id="edge2" class="edge">
<title>Node1&#45;&gt;Node3</title>
<path fill="none" stroke="midnightblue" d="M119.35,-73.54C127.54,-74.45 136.1,-75.4 144.67,-76.35"/>
<polygon fill="midnightblue" stroke="midnightblue" points="144.4,-79.84 154.73,-77.47 145.17,-72.89 144.4,-79.84"/>
</g>
<!-- Node4 -->
<g id="node4" class="node">
<title>Node4</title>
<g id="a_node4"><a xlink:href="namespacepars.html#a56722e3642335e4646823756ceb888ca" target="_top" xlink:title=" ">
<polygon fill="none" stroke="black" points="197,-38.5 197,-57.5 268,-57.5 268,-38.5 197,-38.5"/>
<text text-anchor="middle" x="232.5" y="-45.5" font-family="Helvetica,sans-Serif" font-size="10.00">pars::group</text>
</a>
</g>
</g>
<!-- Node1&#45;&gt;Node4 -->
<g id="edge3" class="edge">
<title>Node1&#45;&gt;Node4</title>
<path fill="none" stroke="midnightblue" d="M119.35,-60.46C141.33,-58.02 165.93,-55.29 186.47,-53"/>
<polygon fill="midnightblue" stroke="midnightblue" points="186.95,-56.47 196.51,-51.89 186.18,-49.51 186.95,-56.47"/>
</g>
<!-- Node5 -->
<g id="node5" class="node">
<title>Node5</title>
<g id="a_node5"><a xlink:href="namespaceCLI_1_1detail.html#ae83709ec148057ec53df4383645727e9" target="_top" xlink:title="Return a lower case version of a string.">
<polygon fill="none" stroke="black" points="176,-0.5 176,-19.5 289,-19.5 289,-0.5 176,-0.5"/>
<text text-anchor="middle" x="232.5" y="-7.5" font-family="Helvetica,sans-Serif" font-size="10.00">CLI::detail::to_lower</text>
</a>
</g>
</g>
<!-- Node1&#45;&gt;Node5 -->
<g id="edge4" class="edge">
<title>Node1&#45;&gt;Node5</title>
<path fill="none" stroke="midnightblue" d="M94.64,-51.94C112.42,-44.44 134.64,-35.59 155,-29 162.68,-26.51 170.89,-24.17 178.97,-22.02"/>
<polygon fill="midnightblue" stroke="midnightblue" points="179.9,-25.39 188.72,-19.51 178.16,-18.62 179.9,-25.39"/>
</g>
</g>
</svg>
