<?xml version="1.0" encoding="UTF-8" standalone="no"?>
<!DOCTYPE svg PUBLIC "-//W3C//DTD SVG 1.1//EN"
 "http://www.w3.org/Graphics/SVG/1.1/DTD/svg11.dtd">
<!-- Generated by graphviz version 5.0.1 (0)
 -->
<!-- Title: sisi4s::ClusterSinglesDoublesAlgorithm::storeAmplitudes Pages: 1 -->
<svg width="560pt" height="124pt"
 viewBox="0.00 0.00 560.00 123.50" xmlns="http://www.w3.org/2000/svg" xmlns:xlink="http://www.w3.org/1999/xlink">
<g id="graph0" class="graph" transform="scale(1 1) rotate(0) translate(4 119.5)">
<title>sisi4s::ClusterSinglesDoublesAlgorithm::storeAmplitudes</title>
<!-- Node1 -->
<g id="node1" class="node">
<title>Node1</title>
<g id="a_node1"><a xlink:title=" ">
<polygon fill="#999999" stroke="#666666" points="160,-78 0,-78 0,-48 160,-48 160,-78"/>
<text text-anchor="start" x="8" y="-66" font-family="Helvetica,sans-Serif" font-size="10.00">sisi4s::ClusterSinglesDoubles</text>
<text text-anchor="middle" x="80" y="-55" font-family="Helvetica,sans-Serif" font-size="10.00">Algorithm::storeAmplitudes</text>
</a>
</g>
</g>
<!-- Node2 -->
<g id="node2" class="node">
<title>Node2</title>
<g id="a_node2"><a xlink:href="classsisi4s_1_1FockVector.html#aebf4e090f20a7bb83c434396b274c89c" target="_top" xlink:title="Retrieves the i&#45;th component tensor. Note that the Tensor is not const since rearrangement may be req...">
<polygon fill="white" stroke="#666666" points="338.5,-115.5 213.5,-115.5 213.5,-96.5 338.5,-96.5 338.5,-115.5"/>
<text text-anchor="middle" x="276" y="-103.5" font-family="Helvetica,sans-Serif" font-size="10.00">sisi4s::FockVector::get</text>
</a>
</g>
</g>
<!-- Node1&#45;&gt;Node2 -->
<g id="edge1" class="edge">
<title>Node1&#45;&gt;Node2</title>
<path fill="none" stroke="#63b8ff" d="M148.85,-78.04C172.82,-83.35 199.42,-89.25 221.98,-94.25"/>
<polygon fill="#63b8ff" stroke="#63b8ff" points="221.52,-97.73 232.04,-96.48 223.03,-90.9 221.52,-97.73"/>
</g>
<!-- Node3 -->
<g id="node3" class="node">
<title>Node3</title>
<g id="a_node3"><a xlink:href="classsisi4s_1_1ClusterSinglesDoublesAlgorithm.html#ac4e86100aee3802ce4a75a737eff7ec0" target="_top" xlink:title=" ">
<polygon fill="white" stroke="#666666" points="356,-78 196,-78 196,-48 356,-48 356,-78"/>
<text text-anchor="start" x="204" y="-66" font-family="Helvetica,sans-Serif" font-size="10.00">sisi4s::ClusterSinglesDoubles</text>
<text text-anchor="middle" x="276" y="-55" font-family="Helvetica,sans-Serif" font-size="10.00">Algorithm::getDataName</text>
</a>
</g>
</g>
<!-- Node1&#45;&gt;Node3 -->
<g id="edge2" class="edge">
<title>Node1&#45;&gt;Node3</title>
<path fill="none" stroke="#63b8ff" d="M160.19,-63C168.53,-63 177.05,-63 185.5,-63"/>
<polygon fill="#63b8ff" stroke="#63b8ff" points="185.75,-66.5 195.75,-63 185.75,-59.5 185.75,-66.5"/>
</g>
<!-- Node5 -->
<g id="node5" class="node">
<title>Node5</title>
<g id="a_node5"><a xlink:href="classsisi4s_1_1Algorithm.html#aec9041b31cb64a42ee1fd79d32774266" target="_top" xlink:title=" ">
<polygon fill="white" stroke="#666666" points="328,-30 224,-30 224,0 328,0 328,-30"/>
<text text-anchor="start" x="232" y="-18" font-family="Helvetica,sans-Serif" font-size="10.00">sisi4s::Algorithm::</text>
<text text-anchor="middle" x="276" y="-7" font-family="Helvetica,sans-Serif" font-size="10.00">isArgumentGiven</text>
</a>
</g>
</g>
<!-- Node1&#45;&gt;Node5 -->
<g id="edge4" class="edge">
<title>Node1&#45;&gt;Node5</title>
<path fill="none" stroke="#63b8ff" d="M141.85,-47.94C164.79,-42.27 190.88,-35.81 213.85,-30.13"/>
<polygon fill="#63b8ff" stroke="#63b8ff" points="214.95,-33.46 223.82,-27.66 213.27,-26.67 214.95,-33.46"/>
</g>
<!-- Node4 -->
<g id="node4" class="node">
<title>Node4</title>
<g id="a_node4"><a xlink:href="classsisi4s_1_1ClusterSinglesDoublesAlgorithm.html#ab3f7208a643558d8c36324038e0d3130" target="_top" xlink:title="Returns the abbreviation of the concrete algorithm, e.g. &quot;Ccd&quot;, &quot;Dcd&quot;.">
<polygon fill="white" stroke="#666666" points="552,-78 392,-78 392,-48 552,-48 552,-78"/>
<text text-anchor="start" x="400" y="-66" font-family="Helvetica,sans-Serif" font-size="10.00">sisi4s::ClusterSinglesDoubles</text>
<text text-anchor="middle" x="472" y="-55" font-family="Helvetica,sans-Serif" font-size="10.00">Algorithm::getAbbreviation</text>
</a>
</g>
</g>
<!-- Node3&#45;&gt;Node4 -->
<g id="edge3" class="edge">
<title>Node3&#45;&gt;Node4</title>
<path fill="none" stroke="#63b8ff" d="M356.19,-63C364.53,-63 373.05,-63 381.5,-63"/>
<polygon fill="#63b8ff" stroke="#63b8ff" points="381.75,-66.5 391.75,-63 381.75,-59.5 381.75,-66.5"/>
</g>
</g>
</svg>
