<?xml version="1.0" encoding="UTF-8" standalone="no"?>
<!DOCTYPE svg PUBLIC "-//W3C//DTD SVG 1.1//EN"
 "http://www.w3.org/Graphics/SVG/1.1/DTD/svg11.dtd">
<!-- Generated by graphviz version 8.1.0 (0)
 -->
<!-- Title: sisi4s::CoulombIntegralsFromGaussian Pages: 1 -->
<svg width="480pt" height="725pt"
 viewBox="0.00 0.00 480.25 725.25" xmlns="http://www.w3.org/2000/svg" xmlns:xlink="http://www.w3.org/1999/xlink">
<g id="graph0" class="graph" transform="scale(1 1) rotate(0) translate(4 721.25)">
<title>sisi4s::CoulombIntegralsFromGaussian</title>
<!-- Node1 -->
<g id="Node000001" class="node">
<title>Node1</title>
<g id="a_Node000001"><a xlink:title=" ">
<polygon fill="#999999" stroke="none" points="243.5,-113 52.5,-113 52.5,0 243.5,0 243.5,-113"/>
<text text-anchor="start" x="88" y="-99.5" font-family="Helvetica,sans-Serif" font-size="10.00">sisi4s::CoulombIntegrals</text>
<text text-anchor="start" x="113.12" y="-86.75" font-family="Helvetica,sans-Serif" font-size="10.00">FromGaussian</text>
<text text-anchor="start" x="146.5" y="-70.5" font-family="Helvetica,sans-Serif" font-size="10.00"> </text>
<text text-anchor="start" x="56.38" y="-54.5" font-family="Helvetica,sans-Serif" font-size="10.00">+</text>
<text text-anchor="start" x="68.5" y="-54.5" font-family="Helvetica,sans-Serif" font-size="10.00">getName()</text>
<text text-anchor="start" x="56.38" y="-38.5" font-family="Helvetica,sans-Serif" font-size="10.00">+</text>
<text text-anchor="start" x="68.5" y="-38.5" font-family="Helvetica,sans-Serif" font-size="10.00">CoulombIntegralsFromGaussian()</text>
<text text-anchor="start" x="56.38" y="-22.5" font-family="Helvetica,sans-Serif" font-size="10.00">+</text>
<text text-anchor="start" x="68.5" y="-22.5" font-family="Helvetica,sans-Serif" font-size="10.00">~CoulombIntegralsFromGaussian()</text>
<text text-anchor="start" x="56.38" y="-6.5" font-family="Helvetica,sans-Serif" font-size="10.00">+</text>
<text text-anchor="start" x="68.5" y="-6.5" font-family="Helvetica,sans-Serif" font-size="10.00">run()</text>
<polygon fill="#666666" stroke="#666666" points="52.5,-82 52.5,-82 243.5,-82 243.5,-82 52.5,-82"/>
<polygon fill="#666666" stroke="#666666" points="52.5,-66 52.5,-66 243.5,-66 243.5,-66 52.5,-66"/>
<polygon fill="none" stroke="#666666" points="52.5,0 52.5,-113 243.5,-113 243.5,0 52.5,0"/>
</a>
</g>
</g>
<!-- Node2 -->
<g id="Node000002" class="node">
<title>Node2</title>
<g id="a_Node000002"><a xlink:href="classsisi4s_1_1Algorithm.html" target="_top" xlink:title=" ">
<polygon fill="white" stroke="none" points="172,-469.75 0,-469.75 0,-161.75 172,-161.75 172,-469.75"/>
<text text-anchor="start" x="45.12" y="-456.25" font-family="Helvetica,sans-Serif" font-size="10.00">sisi4s::Algorithm</text>
<text text-anchor="start" x="3.88" y="-440.25" font-family="Helvetica,sans-Serif" font-size="10.00">+</text>
<text text-anchor="start" x="16" y="-440.25" font-family="Helvetica,sans-Serif" font-size="10.00">note</text>
<text text-anchor="start" x="3.88" y="-424.25" font-family="Helvetica,sans-Serif" font-size="10.00">+</text>
<text text-anchor="start" x="16" y="-424.25" font-family="Helvetica,sans-Serif" font-size="10.00">fallible</text>
<text text-anchor="start" x="3.88" y="-408.25" font-family="Helvetica,sans-Serif" font-size="10.00">#</text>
<text text-anchor="start" x="16" y="-408.25" font-family="Helvetica,sans-Serif" font-size="10.00">arguments</text>
<text text-anchor="start" x="3.88" y="-392.25" font-family="Helvetica,sans-Serif" font-size="10.00">+</text>
<text text-anchor="start" x="16" y="-392.25" font-family="Helvetica,sans-Serif" font-size="10.00">Algorithm()</text>
<text text-anchor="start" x="3.88" y="-376.25" font-family="Helvetica,sans-Serif" font-size="10.00">+</text>
<text text-anchor="start" x="16" y="-376.25" font-family="Helvetica,sans-Serif" font-size="10.00">~Algorithm()</text>
<text text-anchor="start" x="3.88" y="-360.25" font-family="Helvetica,sans-Serif" font-size="10.00">+</text>
<text text-anchor="start" x="16" y="-360.25" font-family="Helvetica,sans-Serif" font-size="10.00">getName()</text>
<text text-anchor="start" x="3.88" y="-344.25" font-family="Helvetica,sans-Serif" font-size="10.00">+</text>
<text text-anchor="start" x="16" y="-344.25" font-family="Helvetica,sans-Serif" font-size="10.00">run()</text>
<text text-anchor="start" x="3.88" y="-328.25" font-family="Helvetica,sans-Serif" font-size="10.00">+</text>
<text text-anchor="start" x="16" y="-328.25" font-family="Helvetica,sans-Serif" font-size="10.00">dryRun()</text>
<text text-anchor="start" x="3.88" y="-312.25" font-family="Helvetica,sans-Serif" font-size="10.00">+</text>
<text text-anchor="start" x="16" y="-312.25" font-family="Helvetica,sans-Serif" font-size="10.00">isArgumentGiven()</text>
<text text-anchor="start" x="3.88" y="-296.25" font-family="Helvetica,sans-Serif" font-size="10.00">+</text>
<text text-anchor="start" x="16" y="-296.25" font-family="Helvetica,sans-Serif" font-size="10.00">getTextArgument()</text>
<text text-anchor="start" x="3.88" y="-280.25" font-family="Helvetica,sans-Serif" font-size="10.00">+</text>
<text text-anchor="start" x="16" y="-280.25" font-family="Helvetica,sans-Serif" font-size="10.00">getTextArgument()</text>
<text text-anchor="start" x="3.88" y="-264.25" font-family="Helvetica,sans-Serif" font-size="10.00">+</text>
<text text-anchor="start" x="16" y="-264.25" font-family="Helvetica,sans-Serif" font-size="10.00">getBooleanArgument()</text>
<text text-anchor="start" x="3.88" y="-248.25" font-family="Helvetica,sans-Serif" font-size="10.00">+</text>
<text text-anchor="start" x="16" y="-248.25" font-family="Helvetica,sans-Serif" font-size="10.00">getBooleanArgument()</text>
<text text-anchor="start" x="16" y="-232.25" font-family="Helvetica,sans-Serif" font-size="10.00">and 12 more...</text>
<text text-anchor="start" x="3.88" y="-216.25" font-family="Helvetica,sans-Serif" font-size="10.00">#</text>
<text text-anchor="start" x="16" y="-216.25" font-family="Helvetica,sans-Serif" font-size="10.00">getRealArgumentFromInteger()</text>
<text text-anchor="start" x="3.88" y="-200.25" font-family="Helvetica,sans-Serif" font-size="10.00">#</text>
<text text-anchor="start" x="16" y="-200.25" font-family="Helvetica,sans-Serif" font-size="10.00">getRealArgumentFromTensor()</text>
<text text-anchor="start" x="3.88" y="-184.25" font-family="Helvetica,sans-Serif" font-size="10.00">#</text>
<text text-anchor="start" x="16" y="-184.25" font-family="Helvetica,sans-Serif" font-size="10.00">getTensorArgumentFromReal()</text>
<text text-anchor="start" x="3.88" y="-168.25" font-family="Helvetica,sans-Serif" font-size="10.00">#</text>
<text text-anchor="start" x="16" y="-168.25" font-family="Helvetica,sans-Serif" font-size="10.00">getArgumentData()</text>
<polygon fill="#666666" stroke="#666666" points="0,-451.75 0,-451.75 172,-451.75 172,-451.75 0,-451.75"/>
<polygon fill="#666666" stroke="#666666" points="0,-403.75 0,-403.75 14,-403.75 14,-403.75 0,-403.75"/>
<polygon fill="#666666" stroke="#666666" points="14,-403.75 14,-403.75 172,-403.75 172,-403.75 14,-403.75"/>
<polygon fill="none" stroke="#666666" points="0,-161.75 0,-469.75 172,-469.75 172,-161.75 0,-161.75"/>
</a>
</g>
</g>
<!-- Node2&#45;&gt;Node1 -->
<g id="edge1_Node000001_Node000002" class="edge">
<title>Node2&#45;&gt;Node1</title>
<g id="a_edge1_Node000001_Node000002"><a xlink:title=" ">
<path fill="none" stroke="#63b8ff" d="M125.4,-151.26C128.68,-137.66 131.82,-124.63 134.67,-112.83"/>
<polygon fill="none" stroke="#63b8ff" points="121.81,-150.22 122.87,-160.76 128.62,-151.86 121.81,-150.22"/>
</a>
</g>
</g>
<!-- Node3 -->
<g id="Node000003" class="node">
<title>Node3</title>
<g id="a_Node000003"><a xlink:href="classsisi4s_1_1AlgorithmRegistrar.html" target="_top" xlink:title=" ">
<polygon fill="white" stroke="none" points="412,-348.25 190,-348.25 190,-283.25 412,-283.25 412,-348.25"/>
<text text-anchor="start" x="194.88" y="-334.75" font-family="Helvetica,sans-Serif" font-size="10.00">sisi4s::AlgorithmRegistrar</text>
<text text-anchor="start" x="194.88" y="-322" font-family="Helvetica,sans-Serif" font-size="10.00">&lt; sisi4s::CoulombIntegralsFromGaussian &gt;</text>
<text text-anchor="start" x="299.5" y="-305.75" font-family="Helvetica,sans-Serif" font-size="10.00"> </text>
<text text-anchor="start" x="219.38" y="-289.75" font-family="Helvetica,sans-Serif" font-size="10.00">+</text>
<text text-anchor="start" x="257" y="-289.75" font-family="Helvetica,sans-Serif" font-size="10.00">AlgorithmRegistrar()</text>
<polygon fill="#666666" stroke="#666666" points="190,-317.25 190,-317.25 412,-317.25 412,-317.25 190,-317.25"/>
<polygon fill="#666666" stroke="#666666" points="190,-301.25 190,-301.25 412,-301.25 412,-301.25 190,-301.25"/>
<polygon fill="none" stroke="#666666" points="190,-283.25 190,-348.25 412,-348.25 412,-283.25 190,-283.25"/>
</a>
</g>
</g>
<!-- Node3&#45;&gt;Node1 -->
<g id="edge2_Node000001_Node000003" class="edge">
<title>Node3&#45;&gt;Node1</title>
<g id="a_edge2_Node000001_Node000003"><a xlink:title=" ">
<path fill="none" stroke="#63b8ff" d="M282.39,-283.46C258.95,-244.04 218.03,-175.25 187.49,-123.89"/>
<polygon fill="none" stroke="#63b8ff" points="187.54,-123.98 181.03,-120.86 181.4,-113.66 187.91,-116.77 187.54,-123.98"/>
</a>
</g>
<text text-anchor="middle" x="225.88" y="-134.25" font-family="Helvetica,sans-Serif" font-size="10.00" fill="grey"> +registrar_</text>
</g>
<!-- Node4 -->
<g id="Node000004" class="node">
<title>Node4</title>
<g id="a_Node000004"><a xlink:href="classsisi4s_1_1AlgorithmFactory.html" target="_top" xlink:title=" ">
<polygon fill="white" stroke="none" points="328.5,-717.25 201.5,-717.25 201.5,-633.25 328.5,-633.25 328.5,-717.25"/>
<text text-anchor="start" x="206.5" y="-703.75" font-family="Helvetica,sans-Serif" font-size="10.00">sisi4s::AlgorithmFactory</text>
<text text-anchor="start" x="205.88" y="-687.75" font-family="Helvetica,sans-Serif" font-size="10.00">#</text>
<text text-anchor="start" x="218.5" y="-687.75" font-family="Helvetica,sans-Serif" font-size="10.00">algorithmMap</text>
<text text-anchor="start" x="205.88" y="-671.75" font-family="Helvetica,sans-Serif" font-size="10.00">+</text>
<text text-anchor="start" x="218.5" y="-671.75" font-family="Helvetica,sans-Serif" font-size="10.00">create()</text>
<text text-anchor="start" x="205.88" y="-655.75" font-family="Helvetica,sans-Serif" font-size="10.00">+</text>
<text text-anchor="start" x="218.5" y="-655.75" font-family="Helvetica,sans-Serif" font-size="10.00">getAlgorithmNames()</text>
<text text-anchor="start" x="205.88" y="-639.75" font-family="Helvetica,sans-Serif" font-size="10.00">#</text>
<text text-anchor="start" x="218.5" y="-639.75" font-family="Helvetica,sans-Serif" font-size="10.00">getAlgorithmMap()</text>
<polygon fill="#666666" stroke="#666666" points="201.5,-699.25 201.5,-699.25 328.5,-699.25 328.5,-699.25 201.5,-699.25"/>
<polygon fill="#666666" stroke="#666666" points="201.5,-683.25 201.5,-683.25 216.5,-683.25 216.5,-683.25 201.5,-683.25"/>
<polygon fill="#666666" stroke="#666666" points="216.5,-683.25 216.5,-683.25 328.5,-683.25 328.5,-683.25 216.5,-683.25"/>
<polygon fill="none" stroke="#666666" points="201.5,-633.25 201.5,-717.25 328.5,-717.25 328.5,-633.25 201.5,-633.25"/>
</a>
</g>
</g>
<!-- Node4&#45;&gt;Node3 -->
<g id="edge3_Node000003_Node000004" class="edge">
<title>Node4&#45;&gt;Node3</title>
<g id="a_edge3_Node000003_Node000004"><a xlink:title=" ">
<path fill="none" stroke="darkgreen" d="M266.46,-622.66C267.5,-595.43 269.22,-561.49 272,-531.25 278.02,-465.76 289.36,-389.57 295.93,-347.92"/>
<polygon fill="none" stroke="darkgreen" points="262.93,-622.38 266.07,-632.5 269.93,-622.64 262.93,-622.38"/>
</a>
</g>
</g>
<!-- Node5 -->
<g id="Node000005" class="node">
<title>Node5</title>
<g id="a_Node000005"><a xlink:href="classsisi4s_1_1AlgorithmRegistrar.html" target="_top" xlink:title="Class to be statically instantiated by an algorithm to register it in the AlgorithmFactory....">
<polygon fill="white" stroke="none" points="417,-596.25 281,-596.25 281,-531.25 417,-531.25 417,-596.25"/>
<text text-anchor="start" x="286" y="-582.75" font-family="Helvetica,sans-Serif" font-size="10.00">sisi4s::AlgorithmRegistrar</text>
<text text-anchor="start" x="302.5" y="-570" font-family="Helvetica,sans-Serif" font-size="10.00">&lt; AlgorithmType &gt;</text>
<text text-anchor="start" x="347.5" y="-553.75" font-family="Helvetica,sans-Serif" font-size="10.00"> </text>
<text text-anchor="start" x="288.88" y="-537.75" font-family="Helvetica,sans-Serif" font-size="10.00">+</text>
<text text-anchor="start" x="305" y="-537.75" font-family="Helvetica,sans-Serif" font-size="10.00">AlgorithmRegistrar()</text>
<polygon fill="#666666" stroke="#666666" points="281,-565.25 281,-565.25 417,-565.25 417,-565.25 281,-565.25"/>
<polygon fill="#666666" stroke="#666666" points="281,-549.25 281,-549.25 417,-549.25 417,-549.25 281,-549.25"/>
<polygon fill="none" stroke="#666666" points="281,-531.25 281,-596.25 417,-596.25 417,-531.25 281,-531.25"/>
</a>
</g>
</g>
<!-- Node4&#45;&gt;Node5 -->
<g id="edge5_Node000005_Node000004" class="edge">
<title>Node4&#45;&gt;Node5</title>
<g id="a_edge5_Node000005_Node000004"><a xlink:title=" ">
<path fill="none" stroke="darkgreen" d="M302.84,-624.92C310.39,-615.08 318.12,-605 325.05,-595.97"/>
<polygon fill="none" stroke="darkgreen" points="299.59,-622.41 296.28,-632.48 305.14,-626.67 299.59,-622.41"/>
</a>
</g>
</g>
<!-- Node5&#45;&gt;Node3 -->
<g id="edge4_Node000003_Node000005" class="edge">
<title>Node5&#45;&gt;Node3</title>
<g id="a_edge4_Node000003_Node000005"><a xlink:title=" ">
<path fill="none" stroke="orange" d="M340.81,-520.78C331.25,-471.77 315.65,-391.82 307.09,-347.97"/>
<polygon fill="orange" stroke="orange" points="337.52,-521.2 342.87,-530.34 344.39,-519.86 337.52,-521.2"/>
</a>
</g>
<text text-anchor="start" x="338" y="-503.75" font-family="Helvetica,sans-Serif" font-size="10.00" fill="grey"> &lt; sisi4s::CoulombIntegrals</text>
<text text-anchor="middle" x="405.12" y="-491" font-family="Helvetica,sans-Serif" font-size="10.00" fill="grey">FromGaussian &gt;</text>
</g>
</g>
</svg>
