<?xml version="1.0" encoding="UTF-8" standalone="no"?>
<!DOCTYPE svg PUBLIC "-//W3C//DTD SVG 1.1//EN"
 "http://www.w3.org/Graphics/SVG/1.1/DTD/svg11.dtd">
<!-- Generated by graphviz version 5.0.1 (0)
 -->
<!-- Title: sisi4s::EACcsdPreconditioner::getCorrection Pages: 1 -->
<svg width="329pt" height="134pt"
 viewBox="0.00 0.00 329.00 133.50" xmlns="http://www.w3.org/2000/svg" xmlns:xlink="http://www.w3.org/1999/xlink">
<g id="graph0" class="graph" transform="scale(1 1) rotate(0) translate(4 129.5)">
<title>sisi4s::EACcsdPreconditioner::getCorrection</title>
<!-- Node1 -->
<g id="node1" class="node">
<title>Node1</title>
<g id="a_node1"><a xlink:title=" ">
<polygon fill="#bfbfbf" stroke="black" points="0,-44.5 0,-74.5 157,-74.5 157,-44.5 0,-44.5"/>
<text text-anchor="start" x="8" y="-62.5" font-family="Helvetica,sans-Serif" font-size="10.00">sisi4s::EACcsdPreconditioner</text>
<text text-anchor="middle" x="78.5" y="-51.5" font-family="Helvetica,sans-Serif" font-size="10.00">::getCorrection</text>
</a>
</g>
</g>
<!-- Node2 -->
<g id="node2" class="node">
<title>Node2</title>
<g id="a_node2"><a xlink:href="namespacesisi4s.html#ab4577a58307bc686ea6f58bc3d0249d3" target="_top" xlink:title=" ">
<polygon fill="none" stroke="black" points="223,-88 223,-107 291,-107 291,-88 223,-88"/>
<text text-anchor="middle" x="257" y="-95" font-family="Helvetica,sans-Serif" font-size="10.00">sisi4s::abs</text>
</a>
</g>
</g>
<!-- Node1&#45;&gt;Node2 -->
<g id="edge1" class="edge">
<title>Node1&#45;&gt;Node2</title>
<path fill="none" stroke="midnightblue" d="M149.26,-74.52C170.66,-79.13 193.58,-84.06 212.67,-88.17"/>
<polygon fill="midnightblue" stroke="midnightblue" points="212.05,-91.62 222.56,-90.3 213.52,-84.77 212.05,-91.62"/>
</g>
<!-- Node3 -->
<g id="node3" class="node">
<title>Node3</title>
<g id="a_node3"><a xlink:href="classsisi4s_1_1FockVector.html#aebf4e090f20a7bb83c434396b274c89c" target="_top" xlink:title="Retrieves the i&#45;th component tensor. Note that the Tensor is not const since rearrangement may be req...">
<polygon fill="none" stroke="black" points="194.5,-50 194.5,-69 319.5,-69 319.5,-50 194.5,-50"/>
<text text-anchor="middle" x="257" y="-57" font-family="Helvetica,sans-Serif" font-size="10.00">sisi4s::FockVector::get</text>
</a>
</g>
</g>
<!-- Node1&#45;&gt;Node3 -->
<g id="edge3" class="edge">
<title>Node1&#45;&gt;Node3</title>
<path fill="none" stroke="midnightblue" d="M157.17,-59.5C166.24,-59.5 175.47,-59.5 184.45,-59.5"/>
<polygon fill="midnightblue" stroke="midnightblue" points="184.47,-63 194.47,-59.5 184.47,-56 184.47,-63"/>
</g>
<!-- Node4 -->
<g id="node4" class="node">
<title>Node4</title>
<g id="a_node4"><a xlink:href="classsisi4s_1_1FockVector.html#ad754c5d7c0cb7ab1a487f1f640d7d877" target="_top" xlink:title="Get the number of component tensors of this FockVector.">
<polygon fill="none" stroke="black" points="193,-0.5 193,-30.5 321,-30.5 321,-0.5 193,-0.5"/>
<text text-anchor="start" x="201" y="-18.5" font-family="Helvetica,sans-Serif" font-size="10.00">sisi4s::FockVector</text>
<text text-anchor="middle" x="257" y="-7.5" font-family="Helvetica,sans-Serif" font-size="10.00">::getComponentsCount</text>
</a>
</g>
</g>
<!-- Node1&#45;&gt;Node4 -->
<g id="edge4" class="edge">
<title>Node1&#45;&gt;Node4</title>
<path fill="none" stroke="midnightblue" d="M139.75,-44.48C154.58,-40.78 170.58,-36.79 185.83,-32.99"/>
<polygon fill="midnightblue" stroke="midnightblue" points="186.87,-36.34 195.72,-30.53 185.17,-29.55 186.87,-36.34"/>
</g>
<!-- Node2&#45;&gt;Node2 -->
<g id="edge2" class="edge">
<title>Node2&#45;&gt;Node2</title>
<path fill="none" stroke="midnightblue" d="M229.57,-107.26C216.22,-116.07 225.36,-125.5 257,-125.5 278.75,-125.5 289.87,-121.04 290.36,-115.39"/>
<polygon fill="midnightblue" stroke="midnightblue" points="293.15,-113.28 284.43,-107.26 287.49,-117.4 293.15,-113.28"/>
</g>
</g>
</svg>
