<?xml version="1.0" encoding="UTF-8" standalone="no"?>
<!DOCTYPE svg PUBLIC "-//W3C//DTD SVG 1.1//EN"
 "http://www.w3.org/Graphics/SVG/1.1/DTD/svg11.dtd">
<!-- Generated by graphviz version 5.0.1 (0)
 -->
<!-- Title: CLI::App::_has_remaining_positionals Pages: 1 -->
<svg width="329pt" height="113pt"
 viewBox="0.00 0.00 329.00 113.00" xmlns="http://www.w3.org/2000/svg" xmlns:xlink="http://www.w3.org/1999/xlink">
<g id="graph0" class="graph" transform="scale(1 1) rotate(0) translate(4 109)">
<title>CLI::App::_has_remaining_positionals</title>
<!-- Node1 -->
<g id="node1" class="node">
<title>Node1</title>
<g id="a_node1"><a xlink:title="Count the required remaining positional arguments.">
<polygon fill="#999999" stroke="#666666" points="140,-67.5 0,-67.5 0,-37.5 140,-37.5 140,-67.5"/>
<text text-anchor="start" x="8" y="-55.5" font-family="Helvetica,sans-Serif" font-size="10.00">CLI::App::_has_remaining</text>
<text text-anchor="middle" x="70" y="-44.5" font-family="Helvetica,sans-Serif" font-size="10.00">_positionals</text>
</a>
</g>
</g>
<!-- Node2 -->
<g id="node2" class="node">
<title>Node2</title>
<g id="a_node2"><a xlink:href="classCLI_1_1Option.html#a154543609c45d9c59c69991a08ca272b" target="_top" xlink:title="Count the total number of times an option was passed.">
<polygon fill="white" stroke="#666666" points="300,-105 197,-105 197,-86 300,-86 300,-105"/>
<text text-anchor="middle" x="248.5" y="-93" font-family="Helvetica,sans-Serif" font-size="10.00">CLI::Option::count</text>
</a>
</g>
</g>
<!-- Node1&#45;&gt;Node2 -->
<g id="edge1" class="edge">
<title>Node1&#45;&gt;Node2</title>
<path fill="none" stroke="#63b8ff" d="M132.73,-67.54C154.25,-72.78 178.08,-78.59 198.43,-83.54"/>
<polygon fill="#63b8ff" stroke="#63b8ff" points="197.87,-87.01 208.41,-85.98 199.53,-80.21 197.87,-87.01"/>
</g>
<!-- Node3 -->
<g id="node3" class="node">
<title>Node3</title>
<g id="a_node3"><a xlink:href="classCLI_1_1Option.html#af87dffed2cb245673312c993e563710e" target="_top" xlink:title="The total min number of expected string values to be used.">
<polygon fill="white" stroke="#666666" points="311,-67.5 186,-67.5 186,-37.5 311,-37.5 311,-67.5"/>
<text text-anchor="start" x="194" y="-55.5" font-family="Helvetica,sans-Serif" font-size="10.00">CLI::Option::get_items</text>
<text text-anchor="middle" x="248.5" y="-44.5" font-family="Helvetica,sans-Serif" font-size="10.00">_expected_min</text>
</a>
</g>
</g>
<!-- Node1&#45;&gt;Node3 -->
<g id="edge2" class="edge">
<title>Node1&#45;&gt;Node3</title>
<path fill="none" stroke="#63b8ff" d="M140.25,-52.5C151.9,-52.5 164.02,-52.5 175.73,-52.5"/>
<polygon fill="#63b8ff" stroke="#63b8ff" points="175.9,-56 185.9,-52.5 175.9,-49 175.9,-56"/>
</g>
<!-- Node4 -->
<g id="node4" class="node">
<title>Node4</title>
<g id="a_node4"><a xlink:href="classCLI_1_1Option.html#acab7033604b49e314d290b01adea690d" target="_top" xlink:title="True if the argument can be given directly.">
<polygon fill="white" stroke="#666666" points="321,-19 176,-19 176,0 321,0 321,-19"/>
<text text-anchor="middle" x="248.5" y="-7" font-family="Helvetica,sans-Serif" font-size="10.00">CLI::Option::get_positional</text>
</a>
</g>
</g>
<!-- Node1&#45;&gt;Node4 -->
<g id="edge3" class="edge">
<title>Node1&#45;&gt;Node4</title>
<path fill="none" stroke="#63b8ff" d="M132.73,-37.46C154.25,-32.22 178.08,-26.41 198.43,-21.46"/>
<polygon fill="#63b8ff" stroke="#63b8ff" points="199.53,-24.79 208.41,-19.02 197.87,-17.99 199.53,-24.79"/>
</g>
</g>
</svg>
