<?xml version="1.0" encoding="UTF-8" standalone="no"?>
<!DOCTYPE svg PUBLIC "-//W3C//DTD SVG 1.1//EN"
 "http://www.w3.org/Graphics/SVG/1.1/DTD/svg11.dtd">
<!-- Generated by graphviz version 7.0.0 (0)
 -->
<!-- Title: sisi4s::ParticleHoleCoulombVertexReader::run Pages: 1 -->
<svg width="671pt" height="264pt"
 viewBox="0.00 0.00 671.00 263.50" xmlns="http://www.w3.org/2000/svg" xmlns:xlink="http://www.w3.org/1999/xlink">
<g id="graph0" class="graph" transform="scale(1 1) rotate(0) translate(4 259.5)">
<title>sisi4s::ParticleHoleCoulombVertexReader::run</title>
<!-- Node1 -->
<g id="node1" class="node">
<title>Node1</title>
<g id="a_node1"><a xlink:title="Reads the Full Coulomb Vertex &#160;from FTODDUMP file.">
<polygon fill="#999999" stroke="#666666" points="152,-137.5 0,-137.5 0,-107.5 152,-107.5 152,-137.5"/>
<text text-anchor="start" x="8" y="-125.5" font-family="Helvetica,sans-Serif" font-size="10.00">sisi4s::ParticleHoleCoulomb</text>
<text text-anchor="middle" x="76" y="-114.5" font-family="Helvetica,sans-Serif" font-size="10.00">VertexReader::run</text>
</a>
</g>
</g>
<!-- Node2 -->
<g id="node2" class="node">
<title>Node2</title>
<g id="a_node2"><a xlink:href="classsisi4s_1_1Algorithm.html#a388052a12509b8b641f17bbe8d41f8f3" target="_top" xlink:title="Specifies the location of an output tensor data.">
<polygon fill="white" stroke="#666666" points="339,-159.5 198,-159.5 198,-129.5 339,-129.5 339,-159.5"/>
<text text-anchor="start" x="206" y="-147.5" font-family="Helvetica,sans-Serif" font-size="10.00">sisi4s::Algorithm::</text>
<text text-anchor="middle" x="268.5" y="-136.5" font-family="Helvetica,sans-Serif" font-size="10.00">allocatedTensorArgument</text>
</a>
</g>
</g>
<!-- Node1&#45;&gt;Node2 -->
<g id="edge1" class="edge">
<title>Node1&#45;&gt;Node2</title>
<path fill="none" stroke="#63b8ff" d="M152.29,-131.19C163.52,-132.49 175.14,-133.83 186.49,-135.14"/>
<polygon fill="#63b8ff" stroke="#63b8ff" points="185.87,-138.6 196.21,-136.27 186.68,-131.64 185.87,-138.6"/>
</g>
<!-- Node6 -->
<g id="node6" class="node">
<title>Node6</title>
<g id="a_node6"><a xlink:href="structUnrestricter.html#a7c13c6368ca5c0b725abdf582ff69262" target="_top" xlink:title=" ">
<polygon fill="white" stroke="#666666" points="349,-111 188,-111 188,-92 349,-92 349,-111"/>
<text text-anchor="middle" x="268.5" y="-99" font-family="Helvetica,sans-Serif" font-size="10.00">Unrestricter::doEigenEnergies</text>
</a>
</g>
</g>
<!-- Node1&#45;&gt;Node6 -->
<g id="edge5" class="edge">
<title>Node1&#45;&gt;Node6</title>
<path fill="none" stroke="#63b8ff" d="M152.29,-114.2C160.21,-113.33 168.32,-112.43 176.39,-111.54"/>
<polygon fill="#63b8ff" stroke="#63b8ff" points="176.69,-115.03 186.24,-110.46 175.92,-108.07 176.69,-115.03"/>
</g>
<!-- Node7 -->
<g id="node7" class="node">
<title>Node7</title>
<g id="a_node7"><a xlink:href="structUnrestricter.html#ae630d9ae0cf31af5f42085b26acbc3eb" target="_top" xlink:title=" ">
<polygon fill="white" stroke="#666666" points="330.5,-74 206.5,-74 206.5,-55 330.5,-55 330.5,-74"/>
<text text-anchor="middle" x="268.5" y="-62" font-family="Helvetica,sans-Serif" font-size="10.00">Unrestricter::doVertex</text>
</a>
</g>
</g>
<!-- Node1&#45;&gt;Node7 -->
<g id="edge6" class="edge">
<title>Node1&#45;&gt;Node7</title>
<path fill="none" stroke="#63b8ff" d="M116.17,-107.05C137.25,-99.08 163.82,-89.57 188,-82.5 194.6,-80.57 201.55,-78.73 208.49,-77.01"/>
<polygon fill="#63b8ff" stroke="#63b8ff" points="208.95,-80.5 217.86,-74.76 207.32,-73.69 208.95,-80.5"/>
</g>
<!-- Node8 -->
<g id="node8" class="node">
<title>Node8</title>
<g id="a_node8"><a xlink:href="classsisi4s_1_1Algorithm.html#a5db14be3b0d33bf80218a37223e27667" target="_top" xlink:title=" ">
<polygon fill="white" stroke="#666666" points="326,-255.5 211,-255.5 211,-225.5 326,-225.5 326,-255.5"/>
<text text-anchor="start" x="219" y="-243.5" font-family="Helvetica,sans-Serif" font-size="10.00">sisi4s::Algorithm::</text>
<text text-anchor="middle" x="268.5" y="-232.5" font-family="Helvetica,sans-Serif" font-size="10.00">getIntegerArgument</text>
</a>
</g>
</g>
<!-- Node1&#45;&gt;Node8 -->
<g id="edge7" class="edge">
<title>Node1&#45;&gt;Node8</title>
<path fill="none" stroke="#63b8ff" d="M90.97,-137.73C110.7,-158.39 148.73,-195.15 188,-216.5 191.88,-218.61 195.97,-220.56 200.16,-222.35"/>
<polygon fill="#63b8ff" stroke="#63b8ff" points="198.74,-225.55 209.33,-225.95 201.3,-219.04 198.74,-225.55"/>
</g>
<!-- Node10 -->
<g id="node10" class="node">
<title>Node10</title>
<g id="a_node10"><a xlink:href="classsisi4s_1_1Algorithm.html#a5e80a507fac066ab5714b62364cabaaf" target="_top" xlink:title=" ">
<polygon fill="white" stroke="#666666" points="320.5,-207.5 216.5,-207.5 216.5,-177.5 320.5,-177.5 320.5,-207.5"/>
<text text-anchor="start" x="224.5" y="-195.5" font-family="Helvetica,sans-Serif" font-size="10.00">sisi4s::Algorithm::</text>
<text text-anchor="middle" x="268.5" y="-184.5" font-family="Helvetica,sans-Serif" font-size="10.00">getTextArgument</text>
</a>
</g>
</g>
<!-- Node1&#45;&gt;Node10 -->
<g id="edge10" class="edge">
<title>Node1&#45;&gt;Node10</title>
<path fill="none" stroke="#63b8ff" d="M111.65,-137.9C133.37,-147.3 162.07,-159.24 188,-168.5 193.69,-170.53 199.64,-172.54 205.62,-174.48"/>
<polygon fill="#63b8ff" stroke="#63b8ff" points="204.33,-177.74 214.92,-177.43 206.44,-171.07 204.33,-177.74"/>
</g>
<!-- Node11 -->
<g id="node11" class="node">
<title>Node11</title>
<g id="a_node11"><a xlink:href="namespacesisi4s.html#a2653420c2b1b1224ad8f6b1d538228f1" target="_top" xlink:title="Composes a tensor of complex elements containing of the given tensors of real and imaginary parts....">
<polygon fill="white" stroke="#666666" points="336,-19 201,-19 201,0 336,0 336,-19"/>
<text text-anchor="middle" x="268.5" y="-7" font-family="Helvetica,sans-Serif" font-size="10.00">sisi4s::toComplexTensor</text>
</a>
</g>
</g>
<!-- Node1&#45;&gt;Node11 -->
<g id="edge13" class="edge">
<title>Node1&#45;&gt;Node11</title>
<path fill="none" stroke="#63b8ff" d="M96.74,-107.17C118.4,-90.74 154.54,-64.47 188,-45.5 202.07,-37.52 218.24,-29.93 232.3,-23.8"/>
<polygon fill="#63b8ff" stroke="#63b8ff" points="233.36,-27.15 241.18,-20.01 230.61,-20.72 233.36,-27.15"/>
</g>
<!-- Node3 -->
<g id="node3" class="node">
<title>Node3</title>
<g id="a_node3"><a xlink:href="classsisi4s_1_1Algorithm.html#a1e53277220d32a33e20846267c253652" target="_top" xlink:title=" ">
<polygon fill="white" stroke="#666666" points="510.5,-207.5 406.5,-207.5 406.5,-177.5 510.5,-177.5 510.5,-207.5"/>
<text text-anchor="start" x="414.5" y="-195.5" font-family="Helvetica,sans-Serif" font-size="10.00">sisi4s::Algorithm::</text>
<text text-anchor="middle" x="458.5" y="-184.5" font-family="Helvetica,sans-Serif" font-size="10.00">getArgumentData</text>
</a>
</g>
</g>
<!-- Node2&#45;&gt;Node3 -->
<g id="edge2" class="edge">
<title>Node2&#45;&gt;Node3</title>
<path fill="none" stroke="#63b8ff" d="M330.02,-159.95C350.86,-165.27 374.22,-171.24 395.19,-176.59"/>
<polygon fill="#63b8ff" stroke="#63b8ff" points="394.22,-179.96 404.78,-179.04 395.95,-173.17 394.22,-179.96"/>
</g>
<!-- Node5 -->
<g id="node5" class="node">
<title>Node5</title>
<g id="a_node5"><a xlink:href="classsisi4s_1_1Data.html#a10819dce08cb4dd8d881b9fe02036d69" target="_top" xlink:title=" ">
<polygon fill="white" stroke="#666666" points="521,-154 396,-154 396,-135 521,-135 521,-154"/>
<text text-anchor="middle" x="458.5" y="-142" font-family="Helvetica,sans-Serif" font-size="10.00">sisi4s::Data::getName</text>
</a>
</g>
</g>
<!-- Node2&#45;&gt;Node5 -->
<g id="edge4" class="edge">
<title>Node2&#45;&gt;Node5</title>
<path fill="none" stroke="#63b8ff" d="M339.24,-144.5C353.98,-144.5 369.57,-144.5 384.43,-144.5"/>
<polygon fill="#63b8ff" stroke="#63b8ff" points="384.11,-148 394.11,-144.5 384.11,-141 384.11,-148"/>
</g>
<!-- Node4 -->
<g id="node4" class="node">
<title>Node4</title>
<g id="a_node4"><a xlink:href="classsisi4s_1_1Data.html#a5b4676e48b4f437d399587e6903f896a" target="_top" xlink:title=" ">
<polygon fill="white" stroke="#666666" points="663,-202 568,-202 568,-183 663,-183 663,-202"/>
<text text-anchor="middle" x="615.5" y="-190" font-family="Helvetica,sans-Serif" font-size="10.00">sisi4s::Data::get</text>
</a>
</g>
</g>
<!-- Node3&#45;&gt;Node4 -->
<g id="edge3" class="edge">
<title>Node3&#45;&gt;Node4</title>
<path fill="none" stroke="#63b8ff" d="M510.68,-192.5C525.3,-192.5 541.33,-192.5 556.33,-192.5"/>
<polygon fill="#63b8ff" stroke="#63b8ff" points="556.05,-196 566.05,-192.5 556.05,-189 556.05,-196"/>
</g>
<!-- Node8&#45;&gt;Node3 -->
<g id="edge8" class="edge">
<title>Node8&#45;&gt;Node3</title>
<path fill="none" stroke="#63b8ff" d="M326.42,-225.97C348.14,-220.42 373.02,-214.07 395.22,-208.4"/>
<polygon fill="#63b8ff" stroke="#63b8ff" points="395.92,-211.83 404.75,-205.97 394.19,-205.05 395.92,-211.83"/>
</g>
<!-- Node9 -->
<g id="node9" class="node">
<title>Node9</title>
<g id="a_node9"><a xlink:href="classsisi4s_1_1Data.html#a0ec0b1c7f2356fd43d82ee1dd0246789" target="_top" xlink:title=" ">
<polygon fill="white" stroke="#666666" points="532,-247 385,-247 385,-228 532,-228 532,-247"/>
<text text-anchor="middle" x="458.5" y="-235" font-family="Helvetica,sans-Serif" font-size="10.00">sisi4s::Data::getTypeName</text>
</a>
</g>
</g>
<!-- Node8&#45;&gt;Node9 -->
<g id="edge9" class="edge">
<title>Node8&#45;&gt;Node9</title>
<path fill="none" stroke="#63b8ff" d="M326.42,-239.59C341.2,-239.36 357.44,-239.1 373.31,-238.84"/>
<polygon fill="#63b8ff" stroke="#63b8ff" points="373.31,-242.34 383.25,-238.68 373.2,-235.34 373.31,-242.34"/>
</g>
<!-- Node10&#45;&gt;Node3 -->
<g id="edge11" class="edge">
<title>Node10&#45;&gt;Node3</title>
<path fill="none" stroke="#63b8ff" d="M320.87,-192.5C343.67,-192.5 370.71,-192.5 394.69,-192.5"/>
<polygon fill="#63b8ff" stroke="#63b8ff" points="394.68,-196 404.68,-192.5 394.68,-189 394.68,-196"/>
</g>
<!-- Node10&#45;&gt;Node9 -->
<g id="edge12" class="edge">
<title>Node10&#45;&gt;Node9</title>
<path fill="none" stroke="#63b8ff" d="M320.87,-204.8C347.03,-211.06 378.78,-218.66 405.09,-224.95"/>
<polygon fill="#63b8ff" stroke="#63b8ff" points="403.98,-228.29 414.52,-227.21 405.61,-221.48 403.98,-228.29"/>
</g>
<!-- Node11&#45;&gt;Node11 -->
<g id="edge14" class="edge">
<title>Node11&#45;&gt;Node11</title>
<path fill="none" stroke="#63b8ff" d="M238.75,-19.37C225.19,-27.94 235.1,-37 268.5,-37 287.81,-37 299.27,-33.97 302.88,-29.76"/>
<polygon fill="#63b8ff" stroke="#63b8ff" points="306.13,-28.46 298.86,-20.75 299.74,-31.31 306.13,-28.46"/>
</g>
</g>
</svg>
