<?xml version="1.0" encoding="UTF-8" standalone="no"?>
<!DOCTYPE svg PUBLIC "-//W3C//DTD SVG 1.1//EN"
 "http://www.w3.org/Graphics/SVG/1.1/DTD/svg11.dtd">
<!-- Generated by graphviz version 8.1.0 (0)
 -->
<!-- Title: sisi4s::UccsdtAmplitudesFromCoulombIntegrals::getResiduum Pages: 1 -->
<svg width="610pt" height="80pt"
 viewBox="0.00 0.00 609.75 80.12" xmlns="http://www.w3.org/2000/svg" xmlns:xlink="http://www.w3.org/1999/xlink">
<g id="graph0" class="graph" transform="scale(1 1) rotate(0) translate(4 76.12)">
<title>sisi4s::UccsdtAmplitudesFromCoulombIntegrals::getResiduum</title>
<!-- Node1 -->
<g id="Node000001" class="node">
<title>Node1</title>
<g id="a_Node000001"><a xlink:title="Implements the iterate method with the DRCCD iteration.">
<polygon fill="#999999" stroke="#666666" points="138.25,-55.5 0,-55.5 0,-9.25 138.25,-9.25 138.25,-55.5"/>
<text text-anchor="start" x="8" y="-42" font-family="Helvetica,sans-Serif" font-size="10.00">sisi4s::UccsdtAmplitudes</text>
<text text-anchor="start" x="8" y="-29.25" font-family="Helvetica,sans-Serif" font-size="10.00">FromCoulombIntegrals::</text>
<text text-anchor="middle" x="69.12" y="-16.5" font-family="Helvetica,sans-Serif" font-size="10.00">getResiduum</text>
</a>
</g>
</g>
<!-- Node2 -->
<g id="Node000002" class="node">
<title>Node2</title>
<g id="a_Node000002"><a xlink:href="classsisi4s_1_1Algorithm.html#a5db14be3b0d33bf80218a37223e27667" target="_top" xlink:title=" ">
<polygon fill="white" stroke="#666666" points="288.5,-49.12 174.25,-49.12 174.25,-15.62 288.5,-15.62 288.5,-49.12"/>
<text text-anchor="start" x="182.25" y="-35.62" font-family="Helvetica,sans-Serif" font-size="10.00">sisi4s::Algorithm::</text>
<text text-anchor="middle" x="231.38" y="-22.88" font-family="Helvetica,sans-Serif" font-size="10.00">getIntegerArgument</text>
</a>
</g>
</g>
<!-- Node1&#45;&gt;Node2 -->
<g id="edge1_Node000001_Node000002" class="edge">
<title>Node1&#45;&gt;Node2</title>
<g id="a_edge1_Node000001_Node000002"><a xlink:title=" ">
<path fill="none" stroke="#63b8ff" d="M138.55,-32.38C146.62,-32.38 154.85,-32.38 162.91,-32.38"/>
<polygon fill="#63b8ff" stroke="#63b8ff" points="162.76,-35.88 172.76,-32.38 162.76,-28.88 162.76,-35.88"/>
</a>
</g>
</g>
<!-- Node3 -->
<g id="Node000003" class="node">
<title>Node3</title>
<g id="a_Node000003"><a xlink:href="classsisi4s_1_1Algorithm.html#a1e53277220d32a33e20846267c253652" target="_top" xlink:title=" ">
<polygon fill="white" stroke="#666666" points="449.62,-72.12 345.88,-72.12 345.88,-38.62 449.62,-38.62 449.62,-72.12"/>
<text text-anchor="start" x="353.88" y="-58.62" font-family="Helvetica,sans-Serif" font-size="10.00">sisi4s::Algorithm::</text>
<text text-anchor="middle" x="397.75" y="-45.88" font-family="Helvetica,sans-Serif" font-size="10.00">getArgumentData</text>
</a>
</g>
</g>
<!-- Node2&#45;&gt;Node3 -->
<g id="edge2_Node000002_Node000003" class="edge">
<title>Node2&#45;&gt;Node3</title>
<g id="a_edge2_Node000002_Node000003"><a xlink:title=" ">
<path fill="none" stroke="#63b8ff" d="M288.94,-40.29C303.74,-42.36 319.77,-44.6 334.83,-46.71"/>
<polygon fill="#63b8ff" stroke="#63b8ff" points="334.2,-50.3 344.59,-48.22 335.17,-43.36 334.2,-50.3"/>
</a>
</g>
</g>
<!-- Node5 -->
<g id="Node000005" class="node">
<title>Node5</title>
<g id="a_Node000005"><a xlink:href="classsisi4s_1_1Data.html#a0ec0b1c7f2356fd43d82ee1dd0246789" target="_top" xlink:title=" ">
<polygon fill="white" stroke="#666666" points="471,-20.75 324.5,-20.75 324.5,0 471,0 471,-20.75"/>
<text text-anchor="middle" x="397.75" y="-7.25" font-family="Helvetica,sans-Serif" font-size="10.00">sisi4s::Data::getTypeName</text>
</a>
</g>
</g>
<!-- Node2&#45;&gt;Node5 -->
<g id="edge4_Node000002_Node000005" class="edge">
<title>Node2&#45;&gt;Node5</title>
<g id="a_edge4_Node000002_Node000005"><a xlink:title=" ">
<path fill="none" stroke="#63b8ff" d="M288.94,-24.8C296.82,-23.75 305.05,-22.65 313.29,-21.55"/>
<polygon fill="#63b8ff" stroke="#63b8ff" points="313.66,-24.89 323.11,-20.1 312.73,-17.95 313.66,-24.89"/>
</a>
</g>
</g>
<!-- Node4 -->
<g id="Node000004" class="node">
<title>Node4</title>
<g id="a_Node000004"><a xlink:href="classsisi4s_1_1Data.html#a5b4676e48b4f437d399587e6903f896a" target="_top" xlink:title=" ">
<polygon fill="white" stroke="#666666" points="601.75,-65.75 507,-65.75 507,-45 601.75,-45 601.75,-65.75"/>
<text text-anchor="middle" x="554.38" y="-52.25" font-family="Helvetica,sans-Serif" font-size="10.00">sisi4s::Data::get</text>
</a>
</g>
</g>
<!-- Node3&#45;&gt;Node4 -->
<g id="edge3_Node000003_Node000004" class="edge">
<title>Node3&#45;&gt;Node4</title>
<g id="a_edge3_Node000003_Node000004"><a xlink:title=" ">
<path fill="none" stroke="#63b8ff" d="M449.81,-55.38C464.53,-55.38 480.7,-55.38 495.79,-55.38"/>
<polygon fill="#63b8ff" stroke="#63b8ff" points="495.55,-58.88 505.55,-55.38 495.55,-51.88 495.55,-58.88"/>
</a>
</g>
</g>
</g>
</svg>
