<?xml version="1.0" encoding="UTF-8" standalone="no"?>
<!DOCTYPE svg PUBLIC "-//W3C//DTD SVG 1.1//EN"
 "http://www.w3.org/Graphics/SVG/1.1/DTD/svg11.dtd">
<!-- Generated by graphviz version 9.0.0 (0)
 -->
<!-- Title: CLI::Formatter::make_positionals Pages: 1 -->
<svg width="306pt" height="119pt"
 viewBox="0.00 0.00 306.25 119.12" xmlns="http://www.w3.org/2000/svg" xmlns:xlink="http://www.w3.org/1999/xlink">
<g id="graph0" class="graph" transform="scale(1 1) rotate(0) translate(4 115.12)">
<title>CLI::Formatter::make_positionals</title>
<!-- Node1 -->
<g id="Node000001" class="node">
<title>Node1</title>
<g id="a_Node000001"><a xlink:title="This prints out just the positionals &quot;group&quot;.">
<polygon fill="#999999" stroke="#666666" points="118,-66.12 0,-66.12 0,-32.62 118,-32.62 118,-66.12"/>
<text text-anchor="start" x="8" y="-52.62" font-family="Helvetica,sans-Serif" font-size="10.00">CLI::Formatter::make</text>
<text text-anchor="middle" x="59" y="-39.88" font-family="Helvetica,sans-Serif" font-size="10.00">_positionals</text>
</a>
</g>
</g>
<!-- Node2 -->
<g id="Node000002" class="node">
<title>Node2</title>
<g id="a_Node000002"><a xlink:href="classCLI_1_1OptionBase.html#ad824d0f4f973675beece17d6b5ad9d00" target="_top" xlink:title="Get the group of this option.">
<polygon fill="white" stroke="#666666" points="283.62,-111.12 168.62,-111.12 168.62,-77.62 283.62,-77.62 283.62,-111.12"/>
<text text-anchor="start" x="176.62" y="-97.62" font-family="Helvetica,sans-Serif" font-size="10.00">CLI::OptionBase::get</text>
<text text-anchor="middle" x="226.12" y="-84.88" font-family="Helvetica,sans-Serif" font-size="10.00">_group</text>
</a>
</g>
</g>
<!-- Node1&#45;&gt;Node2 -->
<g id="edge1_Node000001_Node000002" class="edge">
<title>Node1&#45;&gt;Node2</title>
<g id="a_edge1_Node000001_Node000002"><a xlink:title=" ">
<path fill="none" stroke="#63b8ff" d="M118.22,-65.24C130.91,-68.7 144.45,-72.39 157.48,-75.94"/>
<polygon fill="#63b8ff" stroke="#63b8ff" points="156.24,-79.23 166.81,-78.48 158.08,-72.48 156.24,-79.23"/>
</a>
</g>
</g>
<!-- Node3 -->
<g id="Node000003" class="node">
<title>Node3</title>
<g id="a_Node000003"><a xlink:href="classCLI_1_1App.html#ab4e19fac7ff58e4b5252a387728dcd72" target="_top" xlink:title="Get the list of options (user facing function, so returns raw pointers), has optional filter function...">
<polygon fill="white" stroke="#666666" points="285.5,-59.75 166.75,-59.75 166.75,-39 285.5,-39 285.5,-59.75"/>
<text text-anchor="middle" x="226.12" y="-46.25" font-family="Helvetica,sans-Serif" font-size="10.00">CLI::App::get_options</text>
</a>
</g>
</g>
<!-- Node1&#45;&gt;Node3 -->
<g id="edge2_Node000001_Node000003" class="edge">
<title>Node1&#45;&gt;Node3</title>
<g id="a_edge2_Node000001_Node000003"><a xlink:title=" ">
<path fill="none" stroke="#63b8ff" d="M118.22,-49.38C130.16,-49.38 142.85,-49.38 155.16,-49.38"/>
<polygon fill="#63b8ff" stroke="#63b8ff" points="154.81,-52.88 164.81,-49.38 154.81,-45.88 154.81,-52.88"/>
</a>
</g>
</g>
<!-- Node4 -->
<g id="Node000004" class="node">
<title>Node4</title>
<g id="a_Node000004"><a xlink:href="classCLI_1_1Option.html#acab7033604b49e314d290b01adea690d" target="_top" xlink:title="True if the argument can be given directly.">
<polygon fill="white" stroke="#666666" points="298.25,-20.75 154,-20.75 154,0 298.25,0 298.25,-20.75"/>
<text text-anchor="middle" x="226.12" y="-7.25" font-family="Helvetica,sans-Serif" font-size="10.00">CLI::Option::get_positional</text>
</a>
</g>
</g>
<!-- Node1&#45;&gt;Node4 -->
<g id="edge3_Node000001_Node000004" class="edge">
<title>Node1&#45;&gt;Node4</title>
<g id="a_edge3_Node000001_Node000004"><a xlink:title=" ">
<path fill="none" stroke="#63b8ff" d="M118.22,-35.63C134.44,-31.79 152.03,-27.64 168.18,-23.82"/>
<polygon fill="#63b8ff" stroke="#63b8ff" points="168.69,-27.3 177.62,-21.6 167.08,-20.49 168.69,-27.3"/>
</a>
</g>
</g>
</g>
</svg>
