<?xml version="1.0" encoding="UTF-8" standalone="no"?>
<!DOCTYPE svg PUBLIC "-//W3C//DTD SVG 1.1//EN"
 "http://www.w3.org/Graphics/SVG/1.1/DTD/svg11.dtd">
<!-- Generated by graphviz version 9.0.0 (0)
 -->
<!-- Title: sisi4s::HartreeFockFromCoulombIntegrals::run Pages: 1 -->
<svg width="674pt" height="317pt"
 viewBox="0.00 0.00 674.25 316.50" xmlns="http://www.w3.org/2000/svg" xmlns:xlink="http://www.w3.org/1999/xlink">
<g id="graph0" class="graph" transform="scale(1 1) rotate(0) translate(4 312.5)">
<title>sisi4s::HartreeFockFromCoulombIntegrals::run</title>
<!-- Node1 -->
<g id="Node000001" class="node">
<title>Node1</title>
<g id="a_Node000001"><a xlink:title=" ">
<polygon fill="#999999" stroke="#666666" points="177.25,-201.5 0,-201.5 0,-168 177.25,-168 177.25,-201.5"/>
<text text-anchor="start" x="8" y="-188" font-family="Helvetica,sans-Serif" font-size="10.00">sisi4s::HartreeFockFromCoulomb</text>
<text text-anchor="middle" x="88.62" y="-175.25" font-family="Helvetica,sans-Serif" font-size="10.00">Integrals::run</text>
</a>
</g>
</g>
<!-- Node2 -->
<g id="Node000002" class="node">
<title>Node2</title>
<g id="a_Node000002"><a xlink:href="classsisi4s_1_1Algorithm.html#a89f4af1584daed17ef628784e7e9c443" target="_top" xlink:title=" ">
<polygon fill="white" stroke="#666666" points="338.75,-307.5 213.25,-307.5 213.25,-274 338.75,-274 338.75,-307.5"/>
<text text-anchor="start" x="221.25" y="-294" font-family="Helvetica,sans-Serif" font-size="10.00">sisi4s::Algorithm::</text>
<text text-anchor="middle" x="276" y="-281.25" font-family="Helvetica,sans-Serif" font-size="10.00">checkArgumentsOrDie</text>
</a>
</g>
</g>
<!-- Node1&#45;&gt;Node2 -->
<g id="edge1_Node000001_Node000002" class="edge">
<title>Node1&#45;&gt;Node2</title>
<g id="a_edge1_Node000001_Node000002"><a xlink:title=" ">
<path fill="none" stroke="#63b8ff" d="M113.49,-202C137.84,-219.16 177.09,-245.63 213.25,-264.75 215.77,-266.08 218.37,-267.4 221.02,-268.69"/>
<polygon fill="#63b8ff" stroke="#63b8ff" points="219.45,-271.82 229.99,-272.87 222.41,-265.47 219.45,-271.82"/>
</a>
</g>
</g>
<!-- Node4 -->
<g id="Node000004" class="node">
<title>Node4</title>
<g id="a_Node000004"><a xlink:href="HartreeFockFromCoulombIntegrals_8cxx.html#ad975fce2e7f66fbfc1fa217992c552c5" target="_top" xlink:title=" ">
<polygon fill="white" stroke="#666666" points="318.88,-256.12 233.12,-256.12 233.12,-235.38 318.88,-235.38 318.88,-256.12"/>
<text text-anchor="middle" x="276" y="-242.62" font-family="Helvetica,sans-Serif" font-size="10.00">getFockMatrix</text>
</a>
</g>
</g>
<!-- Node1&#45;&gt;Node4 -->
<g id="edge3_Node000001_Node000004" class="edge">
<title>Node1&#45;&gt;Node4</title>
<g id="a_edge3_Node000001_Node000004"><a xlink:title=" ">
<path fill="none" stroke="#63b8ff" d="M141.76,-201.9C170.09,-211.23 204.71,-222.62 231.57,-231.46"/>
<polygon fill="#63b8ff" stroke="#63b8ff" points="230.16,-234.68 240.75,-234.48 232.34,-228.03 230.16,-234.68"/>
</a>
</g>
</g>
<!-- Node6 -->
<g id="Node000006" class="node">
<title>Node6</title>
<g id="a_Node000006"><a xlink:href="namespacesisi4s.html#ab2414ae2ca7d376f6379d91727cd66a1" target="_top" xlink:title=" ">
<polygon fill="white" stroke="#666666" points="514.12,-218.12 396.12,-218.12 396.12,-197.38 514.12,-197.38 514.12,-218.12"/>
<text text-anchor="middle" x="455.12" y="-204.62" font-family="Helvetica,sans-Serif" font-size="10.00">sisi4s::toEigenMatrix</text>
</a>
</g>
</g>
<!-- Node1&#45;&gt;Node6 -->
<g id="edge16_Node000001_Node000006" class="edge">
<title>Node1&#45;&gt;Node6</title>
<g id="a_edge16_Node000001_Node000006"><a xlink:title=" ">
<path fill="none" stroke="#63b8ff" d="M177.4,-190.29C240.89,-194.29 325.53,-199.64 384.41,-203.35"/>
<polygon fill="#63b8ff" stroke="#63b8ff" points="384.12,-206.84 394.32,-203.98 384.56,-199.85 384.12,-206.84"/>
</a>
</g>
</g>
<!-- Node7 -->
<g id="Node000007" class="node">
<title>Node7</title>
<g id="a_Node000007"><a xlink:href="classsisi4s_1_1Algorithm.html#a5db14be3b0d33bf80218a37223e27667" target="_top" xlink:title=" ">
<polygon fill="white" stroke="#666666" points="333.12,-179.5 218.88,-179.5 218.88,-146 333.12,-146 333.12,-179.5"/>
<text text-anchor="start" x="226.88" y="-166" font-family="Helvetica,sans-Serif" font-size="10.00">sisi4s::Algorithm::</text>
<text text-anchor="middle" x="276" y="-153.25" font-family="Helvetica,sans-Serif" font-size="10.00">getIntegerArgument</text>
</a>
</g>
</g>
<!-- Node1&#45;&gt;Node7 -->
<g id="edge6_Node000001_Node000007" class="edge">
<title>Node1&#45;&gt;Node7</title>
<g id="a_edge6_Node000001_Node000007"><a xlink:title=" ">
<path fill="none" stroke="#63b8ff" d="M177.7,-174.3C187.7,-173.11 197.78,-171.91 207.46,-170.77"/>
<polygon fill="#63b8ff" stroke="#63b8ff" points="207.59,-174.27 217.11,-169.62 206.77,-167.32 207.59,-174.27"/>
</a>
</g>
</g>
<!-- Node11 -->
<g id="Node000011" class="node">
<title>Node11</title>
<g id="a_Node000011"><a xlink:href="classsisi4s_1_1Algorithm.html#a36c632fbb19dae4ce2f415705fa5cbcb" target="_top" xlink:title=" ">
<polygon fill="white" stroke="#666666" points="327.88,-127.5 224.12,-127.5 224.12,-94 327.88,-94 327.88,-127.5"/>
<text text-anchor="start" x="232.12" y="-114" font-family="Helvetica,sans-Serif" font-size="10.00">sisi4s::Algorithm::</text>
<text text-anchor="middle" x="276" y="-101.25" font-family="Helvetica,sans-Serif" font-size="10.00">getRealArgument</text>
</a>
</g>
</g>
<!-- Node1&#45;&gt;Node11 -->
<g id="edge10_Node000001_Node000011" class="edge">
<title>Node1&#45;&gt;Node11</title>
<g id="a_edge10_Node000001_Node000011"><a xlink:title=" ">
<path fill="none" stroke="#63b8ff" d="M132.62,-167.59C159.08,-157.02 193.21,-143.4 221.42,-132.14"/>
<polygon fill="#63b8ff" stroke="#63b8ff" points="222.52,-135.47 230.51,-128.51 219.93,-128.97 222.52,-135.47"/>
</a>
</g>
</g>
<!-- Node14 -->
<g id="Node000014" class="node">
<title>Node14</title>
<g id="a_Node000014"><a xlink:href="classsisi4s_1_1Algorithm.html#aec9041b31cb64a42ee1fd79d32774266" target="_top" xlink:title=" ">
<polygon fill="white" stroke="#666666" points="327.88,-75.5 224.12,-75.5 224.12,-42 327.88,-42 327.88,-75.5"/>
<text text-anchor="start" x="232.12" y="-62" font-family="Helvetica,sans-Serif" font-size="10.00">sisi4s::Algorithm::</text>
<text text-anchor="middle" x="276" y="-49.25" font-family="Helvetica,sans-Serif" font-size="10.00">isArgumentGiven</text>
</a>
</g>
</g>
<!-- Node1&#45;&gt;Node14 -->
<g id="edge15_Node000001_Node000014" class="edge">
<title>Node1&#45;&gt;Node14</title>
<g id="a_edge15_Node000001_Node000014"><a xlink:title=" ">
<path fill="none" stroke="#63b8ff" d="M107.26,-167.77C130.22,-146.32 172.27,-109.28 213.25,-84.75 215.4,-83.46 217.62,-82.21 219.9,-80.99"/>
<polygon fill="#63b8ff" stroke="#63b8ff" points="221.35,-84.18 228.72,-76.57 218.21,-77.92 221.35,-84.18"/>
</a>
</g>
</g>
<!-- Node3 -->
<g id="Node000003" class="node">
<title>Node3</title>
<g id="a_Node000003"><a xlink:href="classsisi4s_1_1Algorithm.html#acfd102240a53352574ed9b5632f1ef59" target="_top" xlink:title=" ">
<polygon fill="white" stroke="#666666" points="526.5,-308.5 383.75,-308.5 383.75,-275 526.5,-275 526.5,-308.5"/>
<text text-anchor="start" x="391.75" y="-295" font-family="Helvetica,sans-Serif" font-size="10.00">sisi4s::Algorithm::</text>
<text text-anchor="middle" x="455.12" y="-282.25" font-family="Helvetica,sans-Serif" font-size="10.00">getGivenArgumentNames</text>
</a>
</g>
</g>
<!-- Node2&#45;&gt;Node3 -->
<g id="edge2_Node000002_Node000003" class="edge">
<title>Node2&#45;&gt;Node3</title>
<g id="a_edge2_Node000002_Node000003"><a xlink:title=" ">
<path fill="none" stroke="#63b8ff" d="M338.95,-291.1C349.61,-291.16 360.84,-291.22 371.94,-291.29"/>
<polygon fill="#63b8ff" stroke="#63b8ff" points="371.89,-294.79 381.91,-291.34 371.93,-287.79 371.89,-294.79"/>
</a>
</g>
</g>
<!-- Node5 -->
<g id="Node000005" class="node">
<title>Node5</title>
<g id="a_Node000005"><a xlink:href="HartreeFockFromCoulombIntegrals_8cxx.html#ad28f76bdb11aaa9570da5f134cfcdedb" target="_top" xlink:title=" ">
<polygon fill="white" stroke="#666666" points="490.88,-257.12 419.38,-257.12 419.38,-236.38 490.88,-236.38 490.88,-257.12"/>
<text text-anchor="middle" x="455.12" y="-243.62" font-family="Helvetica,sans-Serif" font-size="10.00">toCtfMatrix</text>
</a>
</g>
</g>
<!-- Node4&#45;&gt;Node5 -->
<g id="edge4_Node000004_Node000005" class="edge">
<title>Node4&#45;&gt;Node5</title>
<g id="a_edge4_Node000004_Node000005"><a xlink:title=" ">
<path fill="none" stroke="#63b8ff" d="M318.98,-245.99C345.65,-246.14 380.21,-246.33 407.7,-246.49"/>
<polygon fill="#63b8ff" stroke="#63b8ff" points="407.48,-249.99 417.49,-246.54 407.51,-242.99 407.48,-249.99"/>
</a>
</g>
</g>
<!-- Node4&#45;&gt;Node6 -->
<g id="edge5_Node000004_Node000006" class="edge">
<title>Node4&#45;&gt;Node6</title>
<g id="a_edge5_Node000004_Node000006"><a xlink:title=" ">
<path fill="none" stroke="#63b8ff" d="M318.98,-236.74C340.98,-232.02 368.34,-226.15 392.68,-220.93"/>
<polygon fill="#63b8ff" stroke="#63b8ff" points="393.1,-224.42 402.14,-218.9 391.63,-217.58 393.1,-224.42"/>
</a>
</g>
</g>
<!-- Node8 -->
<g id="Node000008" class="node">
<title>Node8</title>
<g id="a_Node000008"><a xlink:href="classsisi4s_1_1Algorithm.html#a1e53277220d32a33e20846267c253652" target="_top" xlink:title=" ">
<polygon fill="white" stroke="#666666" points="507,-137.5 403.25,-137.5 403.25,-104 507,-104 507,-137.5"/>
<text text-anchor="start" x="411.25" y="-124" font-family="Helvetica,sans-Serif" font-size="10.00">sisi4s::Algorithm::</text>
<text text-anchor="middle" x="455.12" y="-111.25" font-family="Helvetica,sans-Serif" font-size="10.00">getArgumentData</text>
</a>
</g>
</g>
<!-- Node7&#45;&gt;Node8 -->
<g id="edge7_Node000007_Node000008" class="edge">
<title>Node7&#45;&gt;Node8</title>
<g id="a_edge7_Node000007_Node000008"><a xlink:title=" ">
<path fill="none" stroke="#63b8ff" d="M333.53,-149.35C352.15,-144.93 372.95,-140 391.97,-135.49"/>
<polygon fill="#63b8ff" stroke="#63b8ff" points="392.53,-138.95 401.45,-133.24 390.92,-132.14 392.53,-138.95"/>
</a>
</g>
</g>
<!-- Node10 -->
<g id="Node000010" class="node">
<title>Node10</title>
<g id="a_Node000010"><a xlink:href="classsisi4s_1_1Data.html#a0ec0b1c7f2356fd43d82ee1dd0246789" target="_top" xlink:title=" ">
<polygon fill="white" stroke="#666666" points="528.38,-176.12 381.88,-176.12 381.88,-155.38 528.38,-155.38 528.38,-176.12"/>
<text text-anchor="middle" x="455.12" y="-162.62" font-family="Helvetica,sans-Serif" font-size="10.00">sisi4s::Data::getTypeName</text>
</a>
</g>
</g>
<!-- Node7&#45;&gt;Node10 -->
<g id="edge9_Node000007_Node000010" class="edge">
<title>Node7&#45;&gt;Node10</title>
<g id="a_edge9_Node000007_Node000010"><a xlink:title=" ">
<path fill="none" stroke="#63b8ff" d="M333.53,-163.71C345.24,-163.91 357.8,-164.12 370.25,-164.33"/>
<polygon fill="#63b8ff" stroke="#63b8ff" points="370.04,-167.83 380.1,-164.5 370.16,-160.83 370.04,-167.83"/>
</a>
</g>
</g>
<!-- Node9 -->
<g id="Node000009" class="node">
<title>Node9</title>
<g id="a_Node000009"><a xlink:href="classsisi4s_1_1Data.html#a5b4676e48b4f437d399587e6903f896a" target="_top" xlink:title=" ">
<polygon fill="white" stroke="#666666" points="666.25,-131.12 571.5,-131.12 571.5,-110.38 666.25,-110.38 666.25,-131.12"/>
<text text-anchor="middle" x="618.88" y="-117.62" font-family="Helvetica,sans-Serif" font-size="10.00">sisi4s::Data::get</text>
</a>
</g>
</g>
<!-- Node8&#45;&gt;Node9 -->
<g id="edge8_Node000008_Node000009" class="edge">
<title>Node8&#45;&gt;Node9</title>
<g id="a_edge8_Node000008_Node000009"><a xlink:title=" ">
<path fill="none" stroke="#63b8ff" d="M507.3,-120.75C524.08,-120.75 542.84,-120.75 560.08,-120.75"/>
<polygon fill="#63b8ff" stroke="#63b8ff" points="559.63,-124.25 569.63,-120.75 559.63,-117.25 559.63,-124.25"/>
</a>
</g>
</g>
<!-- Node11&#45;&gt;Node8 -->
<g id="edge11_Node000011_Node000008" class="edge">
<title>Node11&#45;&gt;Node8</title>
<g id="a_edge11_Node000011_Node000008"><a xlink:title=" ">
<path fill="none" stroke="#63b8ff" d="M328.23,-113.64C348.06,-114.76 370.94,-116.05 391.72,-117.23"/>
<polygon fill="#63b8ff" stroke="#63b8ff" points="391.32,-120.71 401.5,-117.78 391.71,-113.72 391.32,-120.71"/>
</a>
</g>
</g>
<!-- Node11&#45;&gt;Node10 -->
<g id="edge14_Node000011_Node000010" class="edge">
<title>Node11&#45;&gt;Node10</title>
<g id="a_edge14_Node000011_Node000010"><a xlink:title=" ">
<path fill="none" stroke="#63b8ff" d="M320.42,-127.99C337.24,-134.34 356.75,-141.3 374.75,-146.75 380.92,-148.62 387.4,-150.42 393.89,-152.12"/>
<polygon fill="#63b8ff" stroke="#63b8ff" points="392.74,-155.44 403.3,-154.52 394.47,-148.66 392.74,-155.44"/>
</a>
</g>
</g>
<!-- Node12 -->
<g id="Node000012" class="node">
<title>Node12</title>
<g id="a_Node000012"><a xlink:href="classsisi4s_1_1Algorithm.html#a1cb9a5e8f19cd8e6b70bb06738ca9413" target="_top" xlink:title=" ">
<polygon fill="white" stroke="#666666" points="535.5,-33.5 374.75,-33.5 374.75,0 535.5,0 535.5,-33.5"/>
<text text-anchor="start" x="382.75" y="-20" font-family="Helvetica,sans-Serif" font-size="10.00">sisi4s::Algorithm::</text>
<text text-anchor="middle" x="455.12" y="-7.25" font-family="Helvetica,sans-Serif" font-size="10.00">getRealArgumentFromInteger</text>
</a>
</g>
</g>
<!-- Node11&#45;&gt;Node12 -->
<g id="edge12_Node000011_Node000012" class="edge">
<title>Node11&#45;&gt;Node12</title>
<g id="a_edge12_Node000011_Node000012"><a xlink:title=" ">
<path fill="none" stroke="#63b8ff" d="M324.44,-93.5C329.46,-90.89 334.33,-87.97 338.75,-84.75 358.61,-70.26 354.31,-56.42 374.75,-42.75 376.6,-41.51 378.52,-40.33 380.49,-39.2"/>
<polygon fill="#63b8ff" stroke="#63b8ff" points="382.02,-42.34 389.32,-34.66 378.82,-36.12 382.02,-42.34"/>
</a>
</g>
</g>
<!-- Node13 -->
<g id="Node000013" class="node">
<title>Node13</title>
<g id="a_Node000013"><a xlink:href="classsisi4s_1_1Algorithm.html#a89e59623f1c238a871a4fba19371be7d" target="_top" xlink:title=" ">
<polygon fill="white" stroke="#666666" points="534,-85.5 376.25,-85.5 376.25,-52 534,-52 534,-85.5"/>
<text text-anchor="start" x="384.25" y="-72" font-family="Helvetica,sans-Serif" font-size="10.00">sisi4s::Algorithm::</text>
<text text-anchor="middle" x="455.12" y="-59.25" font-family="Helvetica,sans-Serif" font-size="10.00">getRealArgumentFromTensor</text>
</a>
</g>
</g>
<!-- Node11&#45;&gt;Node13 -->
<g id="edge13_Node000011_Node000013" class="edge">
<title>Node11&#45;&gt;Node13</title>
<g id="a_edge13_Node000011_Node000013"><a xlink:title=" ">
<path fill="none" stroke="#63b8ff" d="M328.23,-98.6C341.5,-95.46 356.14,-91.98 370.6,-88.55"/>
<polygon fill="#63b8ff" stroke="#63b8ff" points="371.21,-92.01 380.13,-86.3 369.59,-85.2 371.21,-92.01"/>
</a>
</g>
</g>
</g>
</svg>
