<?xml version="1.0" encoding="UTF-8" standalone="no"?>
<!DOCTYPE svg PUBLIC "-//W3C//DTD SVG 1.1//EN"
 "http://www.w3.org/Graphics/SVG/1.1/DTD/svg11.dtd">
<!-- Generated by graphviz version 9.0.0 (0)
 -->
<!-- Title: sisi4s::Time::getCurrentRealTime Pages: 1 -->
<svg width="309pt" height="132pt"
 viewBox="0.00 0.00 309.25 132.12" xmlns="http://www.w3.org/2000/svg" xmlns:xlink="http://www.w3.org/1999/xlink">
<g id="graph0" class="graph" transform="scale(1 1) rotate(0) translate(4 128.12)">
<title>sisi4s::Time::getCurrentRealTime</title>
<!-- Node1 -->
<g id="Node000001" class="node">
<title>Node1</title>
<g id="a_Node000001"><a xlink:title=" ">
<polygon fill="#999999" stroke="#666666" points="301.25,-85.5 169,-85.5 169,-52 301.25,-52 301.25,-85.5"/>
<text text-anchor="start" x="177" y="-72" font-family="Helvetica,sans-Serif" font-size="10.00">sisi4s::Time::getCurrent</text>
<text text-anchor="middle" x="235.12" y="-59.25" font-family="Helvetica,sans-Serif" font-size="10.00">RealTime</text>
</a>
</g>
</g>
<!-- Node2 -->
<g id="Node000002" class="node">
<title>Node2</title>
<g id="a_Node000002"><a xlink:href="classsisi4s_1_1Timer.html#a14fa469c4c295c5fa6e66a4ad1092146" target="_top" xlink:title=" ">
<polygon fill="white" stroke="#666666" points="127,-124.12 6,-124.12 6,-103.38 127,-103.38 127,-124.12"/>
<text text-anchor="middle" x="66.5" y="-110.62" font-family="Helvetica,sans-Serif" font-size="10.00">sisi4s::Timer::~Timer</text>
</a>
</g>
</g>
<!-- Node1&#45;&gt;Node2 -->
<g id="edge1_Node000001_Node000002" class="edge">
<title>Node1&#45;&gt;Node2</title>
<g id="a_edge1_Node000001_Node000002"><a xlink:title=" ">
<path fill="none" stroke="#63b8ff" d="M159.62,-88.87C141.73,-93.7 123.29,-98.68 107.66,-102.9"/>
<polygon fill="#63b8ff" stroke="#63b8ff" points="160.45,-92.27 169.19,-86.29 158.63,-85.51 160.45,-92.27"/>
</a>
</g>
</g>
<!-- Node3 -->
<g id="Node000003" class="node">
<title>Node3</title>
<g id="a_Node000003"><a xlink:href="classsisi4s_1_1LogStream.html#abc6d2d4b5786d75d42084300050a82f2" target="_top" xlink:title=" ">
<polygon fill="white" stroke="#666666" points="120.62,-85.5 12.38,-85.5 12.38,-52 120.62,-52 120.62,-85.5"/>
<text text-anchor="start" x="20.38" y="-72" font-family="Helvetica,sans-Serif" font-size="10.00">sisi4s::LogStream::</text>
<text text-anchor="middle" x="66.5" y="-59.25" font-family="Helvetica,sans-Serif" font-size="10.00">prepare</text>
</a>
</g>
</g>
<!-- Node1&#45;&gt;Node3 -->
<g id="edge2_Node000001_Node000003" class="edge">
<title>Node1&#45;&gt;Node3</title>
<g id="a_edge2_Node000001_Node000003"><a xlink:title=" ">
<path fill="none" stroke="#63b8ff" d="M157.48,-68.75C145.11,-68.75 132.54,-68.75 120.87,-68.75"/>
<polygon fill="#63b8ff" stroke="#63b8ff" points="157.24,-72.25 167.24,-68.75 157.24,-65.25 157.24,-72.25"/>
</a>
</g>
</g>
<!-- Node4 -->
<g id="Node000004" class="node">
<title>Node4</title>
<g id="a_Node000004"><a xlink:href="classsisi4s_1_1CcsdPerturbativeTriples.html#ad094260a4c533e1734768a72b3ae0161" target="_top" xlink:title="Calculates perturbative triples correction. Routine based on Helgaker book.">
<polygon fill="white" stroke="#666666" points="133,-33.5 0,-33.5 0,0 133,0 133,-33.5"/>
<text text-anchor="start" x="8" y="-20" font-family="Helvetica,sans-Serif" font-size="10.00">sisi4s::CcsdPerturbative</text>
<text text-anchor="middle" x="66.5" y="-7.25" font-family="Helvetica,sans-Serif" font-size="10.00">Triples::run</text>
</a>
</g>
</g>
<!-- Node1&#45;&gt;Node4 -->
<g id="edge3_Node000001_Node000004" class="edge">
<title>Node1&#45;&gt;Node4</title>
<g id="a_edge3_Node000001_Node000004"><a xlink:title=" ">
<path fill="none" stroke="#63b8ff" d="M168.29,-48.21C153.21,-43.5 137.33,-38.54 122.75,-33.99"/>
<polygon fill="#63b8ff" stroke="#63b8ff" points="167.07,-51.49 177.66,-51.13 169.16,-44.81 167.07,-51.49"/>
</a>
</g>
</g>
</g>
</svg>
