<?xml version="1.0" encoding="UTF-8" standalone="no"?>
<!DOCTYPE svg PUBLIC "-//W3C//DTD SVG 1.1//EN"
 "http://www.w3.org/Graphics/SVG/1.1/DTD/svg11.dtd">
<!-- Generated by graphviz version 5.0.1 (0)
 -->
<!-- Title: sisi4s::TensorReader::run Pages: 1 -->
<svg width="612pt" height="132pt"
 viewBox="0.00 0.00 612.00 132.00" xmlns="http://www.w3.org/2000/svg" xmlns:xlink="http://www.w3.org/1999/xlink">
<g id="graph0" class="graph" transform="scale(1 1) rotate(0) translate(4 128)">
<title>sisi4s::TensorReader::run</title>
<!-- Node1 -->
<g id="node1" class="node">
<title>Node1</title>
<g id="a_node1"><a xlink:title="Reads real tensor data into the tensor Data.">
<polygon fill="#bfbfbf" stroke="black" points="0,-55 0,-74 138,-74 138,-55 0,-55"/>
<text text-anchor="middle" x="69" y="-62" font-family="Helvetica,sans-Serif" font-size="10.00">sisi4s::TensorReader::run</text>
</a>
</g>
</g>
<!-- Node2 -->
<g id="node2" class="node">
<title>Node2</title>
<g id="a_node2"><a xlink:href="classsisi4s_1_1Algorithm.html#a1e53277220d32a33e20846267c253652" target="_top" xlink:title=" ">
<polygon fill="none" stroke="black" points="347.5,-93.5 347.5,-123.5 451.5,-123.5 451.5,-93.5 347.5,-93.5"/>
<text text-anchor="start" x="355.5" y="-111.5" font-family="Helvetica,sans-Serif" font-size="10.00">sisi4s::Algorithm::</text>
<text text-anchor="middle" x="399.5" y="-100.5" font-family="Helvetica,sans-Serif" font-size="10.00">getArgumentData</text>
</a>
</g>
</g>
<!-- Node1&#45;&gt;Node2 -->
<g id="edge1" class="edge">
<title>Node1&#45;&gt;Node2</title>
<path fill="none" stroke="midnightblue" d="M105.86,-74.06C125.79,-79.05 151.13,-84.86 174,-88.5 228.85,-97.23 291.9,-102.43 337.18,-105.33"/>
<polygon fill="midnightblue" stroke="midnightblue" points="337.23,-108.84 347.43,-105.96 337.67,-101.85 337.23,-108.84"/>
</g>
<!-- Node4 -->
<g id="node4" class="node">
<title>Node4</title>
<g id="a_node4"><a xlink:href="classsisi4s_1_1Algorithm.html#a5db14be3b0d33bf80218a37223e27667" target="_top" xlink:title=" ">
<polygon fill="none" stroke="black" points="174.5,-49.5 174.5,-79.5 289.5,-79.5 289.5,-49.5 174.5,-49.5"/>
<text text-anchor="start" x="182.5" y="-67.5" font-family="Helvetica,sans-Serif" font-size="10.00">sisi4s::Algorithm::</text>
<text text-anchor="middle" x="232" y="-56.5" font-family="Helvetica,sans-Serif" font-size="10.00">getIntegerArgument</text>
</a>
</g>
</g>
<!-- Node1&#45;&gt;Node4 -->
<g id="edge3" class="edge">
<title>Node1&#45;&gt;Node4</title>
<path fill="none" stroke="midnightblue" d="M138.28,-64.5C146.81,-64.5 155.53,-64.5 164.04,-64.5"/>
<polygon fill="midnightblue" stroke="midnightblue" points="164.29,-68 174.29,-64.5 164.29,-61 164.29,-68"/>
</g>
<!-- Node6 -->
<g id="node6" class="node">
<title>Node6</title>
<g id="a_node6"><a xlink:href="classsisi4s_1_1TensorReader.html#aefd52d0fa9c22cb4f96bc7dce7073885" target="_top" xlink:title=" ">
<polygon fill="none" stroke="black" points="174,-0.5 174,-30.5 290,-30.5 290,-0.5 174,-0.5"/>
<text text-anchor="start" x="182" y="-18.5" font-family="Helvetica,sans-Serif" font-size="10.00">sisi4s::TensorReader</text>
<text text-anchor="middle" x="232" y="-7.5" font-family="Helvetica,sans-Serif" font-size="10.00">::getName</text>
</a>
</g>
</g>
<!-- Node1&#45;&gt;Node6 -->
<g id="edge6" class="edge">
<title>Node1&#45;&gt;Node6</title>
<path fill="none" stroke="midnightblue" d="M101.42,-54.94C121.45,-48.84 148.03,-40.75 171.9,-33.49"/>
<polygon fill="midnightblue" stroke="midnightblue" points="173.05,-36.8 181.59,-30.54 171.01,-30.1 173.05,-36.8"/>
</g>
<!-- Node3 -->
<g id="node3" class="node">
<title>Node3</title>
<g id="a_node3"><a xlink:href="classsisi4s_1_1Data.html#a5b4676e48b4f437d399587e6903f896a" target="_top" xlink:title=" ">
<polygon fill="none" stroke="black" points="509,-99 509,-118 604,-118 604,-99 509,-99"/>
<text text-anchor="middle" x="556.5" y="-106" font-family="Helvetica,sans-Serif" font-size="10.00">sisi4s::Data::get</text>
</a>
</g>
</g>
<!-- Node2&#45;&gt;Node3 -->
<g id="edge2" class="edge">
<title>Node2&#45;&gt;Node3</title>
<path fill="none" stroke="midnightblue" d="M451.68,-108.5C466.66,-108.5 483.12,-108.5 498.43,-108.5"/>
<polygon fill="midnightblue" stroke="midnightblue" points="498.82,-112 508.82,-108.5 498.82,-105 498.82,-112"/>
</g>
<!-- Node4&#45;&gt;Node2 -->
<g id="edge4" class="edge">
<title>Node4&#45;&gt;Node2</title>
<path fill="none" stroke="midnightblue" d="M289.49,-79.52C304.86,-83.6 321.57,-88.05 337.18,-92.2"/>
<polygon fill="midnightblue" stroke="midnightblue" points="336.7,-95.69 347.26,-94.88 338.5,-88.93 336.7,-95.69"/>
</g>
<!-- Node5 -->
<g id="node5" class="node">
<title>Node5</title>
<g id="a_node5"><a xlink:href="classsisi4s_1_1Data.html#a0ec0b1c7f2356fd43d82ee1dd0246789" target="_top" xlink:title=" ">
<polygon fill="none" stroke="black" points="326,-55 326,-74 473,-74 473,-55 326,-55"/>
<text text-anchor="middle" x="399.5" y="-62" font-family="Helvetica,sans-Serif" font-size="10.00">sisi4s::Data::getTypeName</text>
</a>
</g>
</g>
<!-- Node4&#45;&gt;Node5 -->
<g id="edge5" class="edge">
<title>Node4&#45;&gt;Node5</title>
<path fill="none" stroke="midnightblue" d="M289.96,-64.5C298.29,-64.5 307.01,-64.5 315.73,-64.5"/>
<polygon fill="midnightblue" stroke="midnightblue" points="315.95,-68 325.95,-64.5 315.95,-61 315.95,-68"/>
</g>
</g>
</svg>
