<?xml version="1.0" encoding="UTF-8" standalone="no"?>
<!DOCTYPE svg PUBLIC "-//W3C//DTD SVG 1.1//EN"
 "http://www.w3.org/Graphics/SVG/1.1/DTD/svg11.dtd">
<!-- Generated by graphviz version 8.1.0 (0)
 -->
<!-- Title: sisi4s::DryTensor::getElementsCount Pages: 1 -->
<svg width="395pt" height="94pt"
 viewBox="0.00 0.00 395.00 93.50" xmlns="http://www.w3.org/2000/svg" xmlns:xlink="http://www.w3.org/1999/xlink">
<g id="graph0" class="graph" transform="scale(1 1) rotate(0) translate(4 89.5)">
<title>sisi4s::DryTensor::getElementsCount</title>
<!-- Node1 -->
<g id="Node000001" class="node">
<title>Node1</title>
<g id="a_Node000001"><a xlink:title=" ">
<polygon fill="#999999" stroke="#666666" points="387,-59.5 281,-59.5 281,-26 387,-26 387,-59.5"/>
<text text-anchor="start" x="289" y="-46" font-family="Helvetica,sans-Serif" font-size="10.00">sisi4s::DryTensor::</text>
<text text-anchor="middle" x="334" y="-33.25" font-family="Helvetica,sans-Serif" font-size="10.00">getElementsCount</text>
</a>
</g>
</g>
<!-- Node2 -->
<g id="Node000002" class="node">
<title>Node2</title>
<g id="a_Node000002"><a xlink:href="classsisi4s_1_1DryTensor.html#a4b868527a168b83fbf8bd4812e44a231" target="_top" xlink:title=" ">
<polygon fill="white" stroke="#666666" points="245,-59.5 140.5,-59.5 140.5,-26 245,-26 245,-59.5"/>
<text text-anchor="start" x="148.5" y="-46" font-family="Helvetica,sans-Serif" font-size="10.00">sisi4s::DryTensor::</text>
<text text-anchor="middle" x="192.75" y="-33.25" font-family="Helvetica,sans-Serif" font-size="10.00">allocate</text>
</a>
</g>
</g>
<!-- Node1&#45;&gt;Node2 -->
<g id="edge1_Node000001_Node000002" class="edge">
<title>Node1&#45;&gt;Node2</title>
<g id="a_edge1_Node000001_Node000002"><a xlink:title=" ">
<path fill="none" stroke="#63b8ff" d="M270.02,-42.75C261.77,-42.75 253.4,-42.75 245.37,-42.75"/>
<polygon fill="#63b8ff" stroke="#63b8ff" points="269.75,-46.25 279.75,-42.75 269.75,-39.25 269.75,-46.25"/>
</a>
</g>
</g>
<!-- Node3 -->
<g id="Node000003" class="node">
<title>Node3</title>
<g id="a_Node000003"><a xlink:href="classsisi4s_1_1DryTensor.html#a55b1cfa428643ee7f99e009f6b3f2148" target="_top" xlink:title=" ">
<polygon fill="white" stroke="#666666" points="104.5,-85.5 0,-85.5 0,-52 104.5,-52 104.5,-85.5"/>
<text text-anchor="start" x="8" y="-72" font-family="Helvetica,sans-Serif" font-size="10.00">sisi4s::DryTensor::</text>
<text text-anchor="middle" x="52.25" y="-59.25" font-family="Helvetica,sans-Serif" font-size="10.00">DryTensor</text>
</a>
</g>
</g>
<!-- Node2&#45;&gt;Node3 -->
<g id="edge2_Node000002_Node000003" class="edge">
<title>Node2&#45;&gt;Node3</title>
<g id="a_edge2_Node000002_Node000003"><a xlink:title=" ">
<path fill="none" stroke="#63b8ff" d="M129.48,-54.44C121.25,-55.98 112.89,-57.55 104.87,-59.06"/>
<polygon fill="#63b8ff" stroke="#63b8ff" points="130,-57.72 139.18,-52.43 128.7,-50.84 130,-57.72"/>
</a>
</g>
</g>
<!-- Node4 -->
<g id="Node000004" class="node">
<title>Node4</title>
<g id="a_Node000004"><a xlink:href="classsisi4s_1_1DryTensor.html#a2c7cab4c52a2b10c9231d5ff0eeb20ec" target="_top" xlink:title="Creates a dry tensor for resource consumption estimation without actually allocating its data....">
<polygon fill="white" stroke="#666666" points="104.5,-33.5 0,-33.5 0,0 104.5,0 104.5,-33.5"/>
<text text-anchor="start" x="8" y="-20" font-family="Helvetica,sans-Serif" font-size="10.00">sisi4s::DryTensor::</text>
<text text-anchor="middle" x="52.25" y="-7.25" font-family="Helvetica,sans-Serif" font-size="10.00">DryTensor</text>
</a>
</g>
</g>
<!-- Node2&#45;&gt;Node4 -->
<g id="edge3_Node000002_Node000004" class="edge">
<title>Node2&#45;&gt;Node4</title>
<g id="a_edge3_Node000002_Node000004"><a xlink:title=" ">
<path fill="none" stroke="#63b8ff" d="M129.48,-31.06C121.25,-29.52 112.89,-27.95 104.87,-26.44"/>
<polygon fill="#63b8ff" stroke="#63b8ff" points="128.7,-34.66 139.18,-33.07 130,-27.78 128.7,-34.66"/>
</a>
</g>
</g>
</g>
</svg>
