<?xml version="1.0" encoding="UTF-8" standalone="no"?>
<!DOCTYPE svg PUBLIC "-//W3C//DTD SVG 1.1//EN"
 "http://www.w3.org/Graphics/SVG/1.1/DTD/svg11.dtd">
<!-- Generated by graphviz version 5.0.1 (0)
 -->
<!-- Title: sisi4s::ParticleHoleCoulombVertexDecomposition::fit Pages: 1 -->
<svg width="781pt" height="348pt"
 viewBox="0.00 0.00 781.00 347.50" xmlns="http://www.w3.org/2000/svg" xmlns:xlink="http://www.w3.org/1999/xlink">
<g id="graph0" class="graph" transform="scale(1 1) rotate(0) translate(4 343.5)">
<title>sisi4s::ParticleHoleCoulombVertexDecomposition::fit</title>
<!-- Node1 -->
<g id="node1" class="node">
<title>Node1</title>
<g id="a_node1"><a xlink:title="Performs one iteration in fitting the factor orbitals and the Coulomb factors according to the given ...">
<polygon fill="#bfbfbf" stroke="black" points="0,-93.5 0,-123.5 152,-123.5 152,-93.5 0,-93.5"/>
<text text-anchor="start" x="8" y="-111.5" font-family="Helvetica,sans-Serif" font-size="10.00">sisi4s::ParticleHoleCoulomb</text>
<text text-anchor="middle" x="76" y="-100.5" font-family="Helvetica,sans-Serif" font-size="10.00">VertexDecomposition::fit</text>
</a>
</g>
</g>
<!-- Node2 -->
<g id="node2" class="node">
<title>Node2</title>
<g id="a_node2"><a xlink:href="namespacesisi4s.html#a5f1a1c319b7f345b0fbac3d446635845" target="_top" xlink:title="Calculates &#160;with minimal memory footprint.">
<polygon fill="none" stroke="black" points="196.5,-191.5 196.5,-221.5 364.5,-221.5 364.5,-191.5 196.5,-191.5"/>
<text text-anchor="start" x="204.5" y="-209.5" font-family="Helvetica,sans-Serif" font-size="10.00">sisi4s::composeCanonical</text>
<text text-anchor="middle" x="280.5" y="-198.5" font-family="Helvetica,sans-Serif" font-size="10.00">PolyadicDecompositionTensors</text>
</a>
</g>
</g>
<!-- Node1&#45;&gt;Node2 -->
<g id="edge1" class="edge">
<title>Node1&#45;&gt;Node2</title>
<path fill="none" stroke="midnightblue" d="M95.51,-123.67C116.67,-140.31 152.93,-166.74 188,-182.5 192.45,-184.5 197.09,-186.36 201.83,-188.08"/>
<polygon fill="midnightblue" stroke="midnightblue" points="201.06,-191.51 211.66,-191.43 203.32,-184.89 201.06,-191.51"/>
</g>
<!-- Node3 -->
<g id="node3" class="node">
<title>Node3</title>
<g id="a_node3"><a xlink:href="namespacesisi4s.html#a8ca8aaa549414abe940b2f7ecc1f549d" target="_top" xlink:title=" ">
<polygon fill="none" stroke="black" points="194.5,-142.5 194.5,-172.5 366.5,-172.5 366.5,-142.5 194.5,-142.5"/>
<text text-anchor="start" x="202.5" y="-160.5" font-family="Helvetica,sans-Serif" font-size="10.00">sisi4s::fitRegularizedAlternating</text>
<text text-anchor="middle" x="280.5" y="-149.5" font-family="Helvetica,sans-Serif" font-size="10.00">LeastSquaresFactor</text>
</a>
</g>
</g>
<!-- Node1&#45;&gt;Node3 -->
<g id="edge2" class="edge">
<title>Node1&#45;&gt;Node3</title>
<path fill="none" stroke="midnightblue" d="M139.13,-123.53C160.81,-128.78 185.3,-134.71 207.7,-140.13"/>
<polygon fill="midnightblue" stroke="midnightblue" points="206.94,-143.54 217.48,-142.49 208.59,-136.74 206.94,-143.54"/>
</g>
<!-- Node5 -->
<g id="node5" class="node">
<title>Node5</title>
<g id="a_node5"><a xlink:href="namespacesisi4s.html#aae36a475bbea733a01982cbf5f741cc1" target="_top" xlink:title=" ">
<polygon fill="none" stroke="black" points="434,-52 434,-71 557,-71 557,-52 434,-52"/>
<text text-anchor="middle" x="495.5" y="-59" font-family="Helvetica,sans-Serif" font-size="10.00">sisi4s::frobeniusNorm</text>
</a>
</g>
</g>
<!-- Node1&#45;&gt;Node5 -->
<g id="edge13" class="edge">
<title>Node1&#45;&gt;Node5</title>
<path fill="none" stroke="midnightblue" d="M152.14,-106.56C212.17,-104.25 298.31,-99.26 373,-88.5 373.06,-88.49 408.93,-80.52 441.68,-73.24"/>
<polygon fill="midnightblue" stroke="midnightblue" points="442.69,-76.6 451.69,-71.01 441.17,-69.77 442.69,-76.6"/>
</g>
<!-- Node13 -->
<g id="node13" class="node">
<title>Node13</title>
<g id="a_node13"><a xlink:href="classsisi4s_1_1ParticleHoleCoulombVertexDecomposition.html#a855080c758691aa6da9c3dc594b19aec" target="_top" xlink:title="Normalizes the given factor orbitals, such that .">
<polygon fill="none" stroke="black" points="188,-49.5 188,-79.5 373,-79.5 373,-49.5 188,-49.5"/>
<text text-anchor="start" x="196" y="-67.5" font-family="Helvetica,sans-Serif" font-size="10.00">sisi4s::ParticleHoleCoulomb</text>
<text text-anchor="middle" x="280.5" y="-56.5" font-family="Helvetica,sans-Serif" font-size="10.00">VertexDecomposition::normalizePi</text>
</a>
</g>
</g>
<!-- Node1&#45;&gt;Node13 -->
<g id="edge14" class="edge">
<title>Node1&#45;&gt;Node13</title>
<path fill="none" stroke="midnightblue" d="M146.12,-93.48C163.62,-89.68 182.55,-85.57 200.49,-81.67"/>
<polygon fill="midnightblue" stroke="midnightblue" points="201.32,-85.07 210.35,-79.53 199.83,-78.23 201.32,-85.07"/>
</g>
<!-- Node15 -->
<g id="node15" class="node">
<title>Node15</title>
<g id="a_node15"><a xlink:href="classsisi4s_1_1ParticleHoleCoulombVertexDecomposition.html#afc78716f341f73a6cdeba7659184e338" target="_top" xlink:title="Discards the imaginary part of the given factor orbitals.">
<polygon fill="none" stroke="black" points="195.5,-0.5 195.5,-30.5 365.5,-30.5 365.5,-0.5 195.5,-0.5"/>
<text text-anchor="start" x="203.5" y="-18.5" font-family="Helvetica,sans-Serif" font-size="10.00">sisi4s::ParticleHoleCoulomb</text>
<text text-anchor="middle" x="280.5" y="-7.5" font-family="Helvetica,sans-Serif" font-size="10.00">VertexDecomposition::realizePi</text>
</a>
</g>
</g>
<!-- Node1&#45;&gt;Node15 -->
<g id="edge17" class="edge">
<title>Node1&#45;&gt;Node15</title>
<path fill="none" stroke="midnightblue" d="M97.25,-93.3C118.75,-77.8 154.23,-54.03 188,-39.5 192.78,-37.44 197.78,-35.53 202.87,-33.75"/>
<polygon fill="midnightblue" stroke="midnightblue" points="204.33,-36.95 212.74,-30.5 202.14,-30.3 204.33,-36.95"/>
</g>
<!-- Node4 -->
<g id="node4" class="node">
<title>Node4</title>
<g id="a_node4"><a xlink:href="namespacesisi4s.html#ab14ed3164e19d771549f3af9f21a00d8" target="_top" xlink:title="Calculates &#160;using a contraction order with minimal memory footprint.">
<polygon fill="none" stroke="black" points="411.5,-188.5 411.5,-218.5 579.5,-218.5 579.5,-188.5 411.5,-188.5"/>
<text text-anchor="start" x="419.5" y="-206.5" font-family="Helvetica,sans-Serif" font-size="10.00">sisi4s::contractWithCanonical</text>
<text text-anchor="middle" x="495.5" y="-195.5" font-family="Helvetica,sans-Serif" font-size="10.00">PolyadicDecompositionTensors</text>
</a>
</g>
</g>
<!-- Node3&#45;&gt;Node4 -->
<g id="edge3" class="edge">
<title>Node3&#45;&gt;Node4</title>
<path fill="none" stroke="midnightblue" d="M351.24,-172.56C371.67,-176.97 394.15,-181.83 415.12,-186.36"/>
<polygon fill="midnightblue" stroke="midnightblue" points="414.45,-189.79 424.96,-188.48 415.93,-182.95 414.45,-189.79"/>
</g>
<!-- Node3&#45;&gt;Node5 -->
<g id="edge4" class="edge">
<title>Node3&#45;&gt;Node5</title>
<path fill="none" stroke="midnightblue" d="M334.09,-142.48C347.45,-137.33 361.32,-130.73 373,-122.5 393.1,-108.34 387.92,-93.15 409,-80.5 413.73,-77.66 418.83,-75.25 424.11,-73.2"/>
<polygon fill="midnightblue" stroke="midnightblue" points="425.44,-76.44 433.75,-69.87 423.15,-69.82 425.44,-76.44"/>
</g>
<!-- Node7 -->
<g id="node7" class="node">
<title>Node7</title>
<g id="a_node7"><a xlink:href="classsisi4s_1_1PseudoInverseSvd.html#a2533006daf67fb34b871189a4e450a0f" target="_top" xlink:title=" ">
<polygon fill="none" stroke="black" points="415,-150 415,-169 576,-169 576,-150 415,-150"/>
<text text-anchor="middle" x="495.5" y="-157" font-family="Helvetica,sans-Serif" font-size="10.00">sisi4s::PseudoInverseSvd::get</text>
</a>
</g>
</g>
<!-- Node3&#45;&gt;Node7 -->
<g id="edge7" class="edge">
<title>Node3&#45;&gt;Node7</title>
<path fill="none" stroke="midnightblue" d="M366.6,-158.3C379.13,-158.42 392.07,-158.54 404.68,-158.66"/>
<polygon fill="midnightblue" stroke="midnightblue" points="404.69,-162.16 414.72,-158.75 404.75,-155.16 404.69,-162.16"/>
</g>
<!-- Node10 -->
<g id="node10" class="node">
<title>Node10</title>
<g id="a_node10"><a xlink:href="classsisi4s_1_1AlternatingLeastSquaresRegularizationEstimator.html#a4de4c9986a0c2c2fa70c8a0f43f1c81d" target="_top" xlink:title=" ">
<polygon fill="none" stroke="black" points="409,-90 409,-131 582,-131 582,-90 409,-90"/>
<text text-anchor="start" x="417" y="-119" font-family="Helvetica,sans-Serif" font-size="10.00">sisi4s::AlternatingLeast</text>
<text text-anchor="start" x="417" y="-108" font-family="Helvetica,sans-Serif" font-size="10.00">SquaresRegularizationEstimator</text>
<text text-anchor="middle" x="495.5" y="-97" font-family="Helvetica,sans-Serif" font-size="10.00">::getLambda</text>
</a>
</g>
</g>
<!-- Node3&#45;&gt;Node10 -->
<g id="edge10" class="edge">
<title>Node3&#45;&gt;Node10</title>
<path fill="none" stroke="midnightblue" d="M349.48,-142.5C365.26,-139.02 382.33,-135.25 399.05,-131.56"/>
<polygon fill="midnightblue" stroke="midnightblue" points="399.82,-134.98 408.83,-129.4 398.31,-128.14 399.82,-134.98"/>
</g>
<!-- Node11 -->
<g id="node11" class="node">
<title>Node11</title>
<g id="a_node11"><a xlink:href="classsisi4s_1_1AlternatingLeastSquaresRegularizationEstimator.html#ae14a008ede1f4ed000518ed1035550ce" target="_top" xlink:title=" ">
<polygon fill="none" stroke="black" points="409,-298 409,-339 582,-339 582,-298 409,-298"/>
<text text-anchor="start" x="417" y="-327" font-family="Helvetica,sans-Serif" font-size="10.00">sisi4s::AlternatingLeast</text>
<text text-anchor="start" x="417" y="-316" font-family="Helvetica,sans-Serif" font-size="10.00">SquaresRegularizationEstimator</text>
<text text-anchor="middle" x="495.5" y="-305" font-family="Helvetica,sans-Serif" font-size="10.00">::getSwampingThreshold</text>
</a>
</g>
</g>
<!-- Node3&#45;&gt;Node11 -->
<g id="edge11" class="edge">
<title>Node3&#45;&gt;Node11</title>
<path fill="none" stroke="midnightblue" d="M359.39,-172.64C364.31,-175.4 368.92,-178.66 373,-182.5 409.23,-216.6 374,-253.14 409,-288.5 410.07,-289.58 411.19,-290.63 412.34,-291.63"/>
<polygon fill="midnightblue" stroke="midnightblue" points="410.32,-294.5 420.41,-297.74 414.55,-288.92 410.32,-294.5"/>
</g>
<!-- Node12 -->
<g id="node12" class="node">
<title>Node12</title>
<g id="a_node12"><a xlink:href="classsisi4s_1_1AlternatingLeastSquaresRegularizationEstimator.html#a503f0a701b0bdef3377c47bb5dae6456" target="_top" xlink:title=" ">
<polygon fill="none" stroke="black" points="409,-238 409,-279 582,-279 582,-238 409,-238"/>
<text text-anchor="start" x="417" y="-267" font-family="Helvetica,sans-Serif" font-size="10.00">sisi4s::AlternatingLeast</text>
<text text-anchor="start" x="417" y="-256" font-family="Helvetica,sans-Serif" font-size="10.00">SquaresRegularizationEstimator</text>
<text text-anchor="middle" x="495.5" y="-245" font-family="Helvetica,sans-Serif" font-size="10.00">::update</text>
</a>
</g>
</g>
<!-- Node3&#45;&gt;Node12 -->
<g id="edge12" class="edge">
<title>Node3&#45;&gt;Node12</title>
<path fill="none" stroke="midnightblue" d="M354.35,-172.67C360.91,-175.43 367.24,-178.67 373,-182.5 394.62,-196.87 387.9,-213.37 409,-228.5 411.13,-230.02 413.34,-231.48 415.61,-232.86"/>
<polygon fill="midnightblue" stroke="midnightblue" points="414.22,-236.09 424.66,-237.87 417.6,-229.96 414.22,-236.09"/>
</g>
<!-- Node6 -->
<g id="node6" class="node">
<title>Node6</title>
<g id="a_node6"><a xlink:href="namespacesisi4s.html#a40947d88c4989cacff153a78af67f686" target="_top" xlink:title=" ">
<polygon fill="none" stroke="black" points="618,-52 618,-71 687,-71 687,-52 618,-52"/>
<text text-anchor="middle" x="652.5" y="-59" font-family="Helvetica,sans-Serif" font-size="10.00">sisi4s::sqrt</text>
</a>
</g>
</g>
<!-- Node5&#45;&gt;Node6 -->
<g id="edge5" class="edge">
<title>Node5&#45;&gt;Node6</title>
<path fill="none" stroke="midnightblue" d="M557.32,-61.5C573.99,-61.5 591.75,-61.5 607.3,-61.5"/>
<polygon fill="midnightblue" stroke="midnightblue" points="607.67,-65 617.67,-61.5 607.67,-58 607.67,-65"/>
</g>
<!-- Node6&#45;&gt;Node6 -->
<g id="edge6" class="edge">
<title>Node6&#45;&gt;Node6</title>
<path fill="none" stroke="midnightblue" d="M638.01,-71.26C630.96,-80.07 635.79,-89.5 652.5,-89.5 662.94,-89.5 668.74,-85.81 669.91,-80.9"/>
<polygon fill="midnightblue" stroke="midnightblue" points="673.23,-79.81 666.99,-71.26 666.53,-81.84 673.23,-79.81"/>
</g>
<!-- Node8 -->
<g id="node8" class="node">
<title>Node8</title>
<g id="a_node8"><a xlink:href="DiisMixer_8cxx.html#ae6495ef1bd76c6cd022e102143fbed2f" target="_top" xlink:title=" ">
<polygon fill="none" stroke="black" points="626,-150 626,-169 679,-169 679,-150 626,-150"/>
<text text-anchor="middle" x="652.5" y="-157" font-family="Helvetica,sans-Serif" font-size="10.00">inverse</text>
</a>
</g>
</g>
<!-- Node7&#45;&gt;Node8 -->
<g id="edge8" class="edge">
<title>Node7&#45;&gt;Node8</title>
<path fill="none" stroke="midnightblue" d="M576.27,-159.5C590.01,-159.5 603.66,-159.5 615.48,-159.5"/>
<polygon fill="midnightblue" stroke="midnightblue" points="615.78,-163 625.78,-159.5 615.78,-156 615.78,-163"/>
</g>
<!-- Node9 -->
<g id="node9" class="node">
<title>Node9</title>
<g id="a_node9"><a xlink:href="Lapack_8hpp.html#aaacdf33c1d8272c5fd148b2e002c12a6" target="_top" xlink:title=" ">
<polygon fill="none" stroke="black" points="723,-150 723,-169 773,-169 773,-150 723,-150"/>
<text text-anchor="middle" x="748" y="-157" font-family="Helvetica,sans-Serif" font-size="10.00">dsysv_</text>
</a>
</g>
</g>
<!-- Node8&#45;&gt;Node9 -->
<g id="edge9" class="edge">
<title>Node8&#45;&gt;Node9</title>
<path fill="none" stroke="midnightblue" d="M679.05,-159.5C689.37,-159.5 701.45,-159.5 712.54,-159.5"/>
<polygon fill="midnightblue" stroke="midnightblue" points="712.77,-163 722.77,-159.5 712.77,-156 712.77,-163"/>
</g>
<!-- Node13&#45;&gt;Node5 -->
<g id="edge15" class="edge">
<title>Node13&#45;&gt;Node5</title>
<path fill="none" stroke="midnightblue" d="M373.07,-63.21C389.9,-62.97 407.24,-62.73 423.36,-62.5"/>
<polygon fill="midnightblue" stroke="midnightblue" points="423.82,-66 433.77,-62.36 423.72,-59 423.82,-66"/>
</g>
<!-- Node14 -->
<g id="node14" class="node">
<title>Node14</title>
<g id="a_node14"><a xlink:href="namespacesisi4s.html#a60e4277fc0d188844658dd5264190e59" target="_top" xlink:title=" ">
<polygon fill="none" stroke="black" points="466,-11 466,-30 525,-30 525,-11 466,-11"/>
<text text-anchor="middle" x="495.5" y="-18" font-family="Helvetica,sans-Serif" font-size="10.00">sisi4s::Pi</text>
</a>
</g>
</g>
<!-- Node13&#45;&gt;Node14 -->
<g id="edge16" class="edge">
<title>Node13&#45;&gt;Node14</title>
<path fill="none" stroke="midnightblue" d="M354.21,-49.48C388.34,-42.43 427.64,-34.31 455.94,-28.46"/>
<polygon fill="midnightblue" stroke="midnightblue" points="456.76,-31.87 465.84,-26.42 455.34,-25.01 456.76,-31.87"/>
</g>
<!-- Node15&#45;&gt;Node14 -->
<g id="edge18" class="edge">
<title>Node15&#45;&gt;Node14</title>
<path fill="none" stroke="midnightblue" d="M365.68,-17.48C396.72,-18.2 430.4,-19 455.53,-19.59"/>
<polygon fill="midnightblue" stroke="midnightblue" points="455.67,-23.09 465.75,-19.83 455.83,-16.09 455.67,-23.09"/>
</g>
</g>
</svg>
