<?xml version="1.0" encoding="UTF-8" standalone="no"?>
<!DOCTYPE svg PUBLIC "-//W3C//DTD SVG 1.1//EN"
 "http://www.w3.org/Graphics/SVG/1.1/DTD/svg11.dtd">
<!-- Generated by graphviz version 9.0.0 (0)
 -->
<!-- Title: CLI::OptionBase::get_required Pages: 1 -->
<svg width="308pt" height="198pt"
 viewBox="0.00 0.00 307.75 197.50" xmlns="http://www.w3.org/2000/svg" xmlns:xlink="http://www.w3.org/1999/xlink">
<g id="graph0" class="graph" transform="scale(1 1) rotate(0) translate(4 193.5)">
<title>CLI::OptionBase::get_required</title>
<!-- Node1 -->
<g id="Node000001" class="node">
<title>Node1</title>
<g id="a_Node000001"><a xlink:title="True if this is a required option.">
<polygon fill="#999999" stroke="#666666" points="299.75,-111.5 184.75,-111.5 184.75,-78 299.75,-78 299.75,-111.5"/>
<text text-anchor="start" x="192.75" y="-98" font-family="Helvetica,sans-Serif" font-size="10.00">CLI::OptionBase::get</text>
<text text-anchor="middle" x="242.25" y="-85.25" font-family="Helvetica,sans-Serif" font-size="10.00">_required</text>
</a>
</g>
</g>
<!-- Node2 -->
<g id="Node000002" class="node">
<title>Node2</title>
<g id="a_Node000002"><a xlink:href="classCLI_1_1App.html#a6e3eedf148351dabd1868bd7e63d24bc" target="_top" xlink:title="Count the required remaining positional arguments.">
<polygon fill="white" stroke="#666666" points="148.75,-189.5 0,-189.5 0,-156 148.75,-156 148.75,-189.5"/>
<text text-anchor="start" x="8" y="-176" font-family="Helvetica,sans-Serif" font-size="10.00">CLI::App::_count_remaining</text>
<text text-anchor="middle" x="74.38" y="-163.25" font-family="Helvetica,sans-Serif" font-size="10.00">_positionals</text>
</a>
</g>
</g>
<!-- Node1&#45;&gt;Node2 -->
<g id="edge1_Node000001_Node000002" class="edge">
<title>Node1&#45;&gt;Node2</title>
<g id="a_edge1_Node000001_Node000002"><a xlink:title=" ">
<path fill="none" stroke="#63b8ff" d="M203.75,-117.77C187.22,-127.4 167.36,-138.3 148.75,-146.75 141.98,-149.82 134.74,-152.78 127.53,-155.52"/>
<polygon fill="#63b8ff" stroke="#63b8ff" points="205.43,-120.84 212.26,-112.74 201.87,-114.81 205.43,-120.84"/>
</a>
</g>
</g>
<!-- Node3 -->
<g id="Node000003" class="node">
<title>Node3</title>
<g id="a_Node000003"><a xlink:href="classCLI_1_1App.html#a4e0c00ce18bbfca1ae890a653bbd2b93" target="_top" xlink:title="Verify required options and cross requirements. Subcommands too (only if selected).">
<polygon fill="white" stroke="#666666" points="126.62,-137.5 22.12,-137.5 22.12,-104 126.62,-104 126.62,-137.5"/>
<text text-anchor="start" x="30.12" y="-124" font-family="Helvetica,sans-Serif" font-size="10.00">CLI::App::_process</text>
<text text-anchor="middle" x="74.38" y="-111.25" font-family="Helvetica,sans-Serif" font-size="10.00">_requirements</text>
</a>
</g>
</g>
<!-- Node1&#45;&gt;Node3 -->
<g id="edge2_Node000001_Node000003" class="edge">
<title>Node1&#45;&gt;Node3</title>
<g id="a_edge2_Node000001_Node000003"><a xlink:title=" ">
<path fill="none" stroke="#63b8ff" d="M173.49,-105.37C157.97,-107.8 141.72,-110.35 127.01,-112.66"/>
<polygon fill="#63b8ff" stroke="#63b8ff" points="173.8,-108.87 183.13,-103.86 172.71,-101.95 173.8,-108.87"/>
</a>
</g>
</g>
<!-- Node4 -->
<g id="Node000004" class="node">
<title>Node4</title>
<g id="a_Node000004"><a xlink:href="classCLI_1_1Formatter.html#a9f11b9ee12c8ccb8bf9670be1b47a3b1" target="_top" xlink:title="This is the options part of the name, Default: combined into left column.">
<polygon fill="white" stroke="#666666" points="133.38,-85.5 15.38,-85.5 15.38,-52 133.38,-52 133.38,-85.5"/>
<text text-anchor="start" x="23.38" y="-72" font-family="Helvetica,sans-Serif" font-size="10.00">CLI::Formatter::make</text>
<text text-anchor="middle" x="74.38" y="-59.25" font-family="Helvetica,sans-Serif" font-size="10.00">_option_opts</text>
</a>
</g>
</g>
<!-- Node1&#45;&gt;Node4 -->
<g id="edge3_Node000001_Node000004" class="edge">
<title>Node1&#45;&gt;Node4</title>
<g id="a_edge3_Node000001_Node000004"><a xlink:title=" ">
<path fill="none" stroke="#63b8ff" d="M173.26,-84.09C160.14,-82.04 146.5,-79.9 133.72,-77.89"/>
<polygon fill="#63b8ff" stroke="#63b8ff" points="172.71,-87.55 183.13,-85.64 173.8,-80.63 172.71,-87.55"/>
</a>
</g>
</g>
<!-- Node5 -->
<g id="Node000005" class="node">
<title>Node5</title>
<g id="a_Node000005"><a xlink:href="classCLI_1_1Formatter.html#afd69c393a40e9b1212f3552a1f48a414" target="_top" xlink:title="This is used to print the name on the USAGE line.">
<polygon fill="white" stroke="#666666" points="133.38,-33.5 15.38,-33.5 15.38,0 133.38,0 133.38,-33.5"/>
<text text-anchor="start" x="23.38" y="-20" font-family="Helvetica,sans-Serif" font-size="10.00">CLI::Formatter::make</text>
<text text-anchor="middle" x="74.38" y="-7.25" font-family="Helvetica,sans-Serif" font-size="10.00">_option_usage</text>
</a>
</g>
</g>
<!-- Node1&#45;&gt;Node5 -->
<g id="edge4_Node000001_Node000005" class="edge">
<title>Node1&#45;&gt;Node5</title>
<g id="a_edge4_Node000001_Node000005"><a xlink:title=" ">
<path fill="none" stroke="#63b8ff" d="M203.75,-71.73C187.22,-62.1 167.36,-51.2 148.75,-42.75 141.98,-39.68 134.74,-36.72 127.53,-33.98"/>
<polygon fill="#63b8ff" stroke="#63b8ff" points="201.87,-74.69 212.26,-76.76 205.43,-68.66 201.87,-74.69"/>
</a>
</g>
</g>
</g>
</svg>
