<?xml version="1.0" encoding="UTF-8" standalone="no"?>
<!DOCTYPE svg PUBLIC "-//W3C//DTD SVG 1.1//EN"
 "http://www.w3.org/Graphics/SVG/1.1/DTD/svg11.dtd">
<!-- Generated by graphviz version 9.0.0 (0)
 -->
<!-- Title: sisi4s::GenerateRandomMatrix::run Pages: 1 -->
<svg width="686pt" height="184pt"
 viewBox="0.00 0.00 686.25 184.12" xmlns="http://www.w3.org/2000/svg" xmlns:xlink="http://www.w3.org/1999/xlink">
<g id="graph0" class="graph" transform="scale(1 1) rotate(0) translate(4 180.12)">
<title>sisi4s::GenerateRandomMatrix::run</title>
<!-- Node1 -->
<g id="Node000001" class="node">
<title>Node1</title>
<g id="a_Node000001"><a xlink:title="Testing environement.">
<polygon fill="#999999" stroke="#666666" points="188.5,-91.75 0,-91.75 0,-71 188.5,-71 188.5,-91.75"/>
<text text-anchor="middle" x="94.25" y="-78.25" font-family="Helvetica,sans-Serif" font-size="10.00">sisi4s::GenerateRandomMatrix::run</text>
</a>
</g>
</g>
<!-- Node2 -->
<g id="Node000002" class="node">
<title>Node2</title>
<g id="a_Node000002"><a xlink:href="classsisi4s_1_1Algorithm.html#a388052a12509b8b641f17bbe8d41f8f3" target="_top" xlink:title="Specifies the location of an output tensor data.">
<polygon fill="white" stroke="#666666" points="365,-72.12 224.5,-72.12 224.5,-38.62 365,-38.62 365,-72.12"/>
<text text-anchor="start" x="232.5" y="-58.62" font-family="Helvetica,sans-Serif" font-size="10.00">sisi4s::Algorithm::</text>
<text text-anchor="middle" x="294.75" y="-45.88" font-family="Helvetica,sans-Serif" font-size="10.00">allocatedTensorArgument</text>
</a>
</g>
</g>
<!-- Node1&#45;&gt;Node2 -->
<g id="edge1_Node000001_Node000002" class="edge">
<title>Node1&#45;&gt;Node2</title>
<g id="a_edge1_Node000001_Node000002"><a xlink:title=" ">
<path fill="none" stroke="#63b8ff" d="M177.99,-70.54C189.48,-69.03 201.28,-67.49 212.73,-65.99"/>
<polygon fill="#63b8ff" stroke="#63b8ff" points="213.09,-69.47 222.55,-64.7 212.18,-62.53 213.09,-69.47"/>
</a>
</g>
</g>
<!-- Node6 -->
<g id="Node000006" class="node">
<title>Node6</title>
<g id="a_Node000006"><a xlink:href="classsisi4s_1_1Algorithm.html#a5db14be3b0d33bf80218a37223e27667" target="_top" xlink:title=" ">
<polygon fill="white" stroke="#666666" points="351.88,-176.12 237.62,-176.12 237.62,-142.62 351.88,-142.62 351.88,-176.12"/>
<text text-anchor="start" x="245.62" y="-162.62" font-family="Helvetica,sans-Serif" font-size="10.00">sisi4s::Algorithm::</text>
<text text-anchor="middle" x="294.75" y="-149.88" font-family="Helvetica,sans-Serif" font-size="10.00">getIntegerArgument</text>
</a>
</g>
</g>
<!-- Node1&#45;&gt;Node6 -->
<g id="edge5_Node000001_Node000006" class="edge">
<title>Node1&#45;&gt;Node6</title>
<g id="a_edge5_Node000001_Node000006"><a xlink:title=" ">
<path fill="none" stroke="#63b8ff" d="M121.42,-92.11C147.48,-102.75 188.66,-119.44 224.5,-133.38 228.56,-134.95 232.76,-136.57 236.99,-138.19"/>
<polygon fill="#63b8ff" stroke="#63b8ff" points="235.5,-141.36 246.09,-141.64 237.98,-134.82 235.5,-141.36"/>
</a>
</g>
</g>
<!-- Node8 -->
<g id="Node000008" class="node">
<title>Node8</title>
<g id="a_Node000008"><a xlink:href="classsisi4s_1_1Algorithm.html#a5e80a507fac066ab5714b62364cabaaf" target="_top" xlink:title=" ">
<polygon fill="white" stroke="#666666" points="346.62,-124.12 242.88,-124.12 242.88,-90.62 346.62,-90.62 346.62,-124.12"/>
<text text-anchor="start" x="250.88" y="-110.62" font-family="Helvetica,sans-Serif" font-size="10.00">sisi4s::Algorithm::</text>
<text text-anchor="middle" x="294.75" y="-97.88" font-family="Helvetica,sans-Serif" font-size="10.00">getTextArgument</text>
</a>
</g>
</g>
<!-- Node1&#45;&gt;Node8 -->
<g id="edge8_Node000001_Node000008" class="edge">
<title>Node1&#45;&gt;Node8</title>
<g id="a_edge8_Node000001_Node000008"><a xlink:title=" ">
<path fill="none" stroke="#63b8ff" d="M177.99,-92.21C195.8,-94.55 214.33,-96.97 231.22,-99.18"/>
<polygon fill="#63b8ff" stroke="#63b8ff" points="230.74,-102.65 241.11,-100.48 231.65,-95.71 230.74,-102.65"/>
</a>
</g>
</g>
<!-- Node9 -->
<g id="Node000009" class="node">
<title>Node9</title>
<g id="a_Node000009"><a xlink:href="namespacesisi4s.html#adb5622106d23e3d14c736c4793512e5c" target="_top" xlink:title=" ">
<polygon fill="white" stroke="#666666" points="363.12,-20.75 226.38,-20.75 226.38,0 363.12,0 363.12,-20.75"/>
<text text-anchor="middle" x="294.75" y="-7.25" font-family="Helvetica,sans-Serif" font-size="10.00">sisi4s::setRandomTensor</text>
</a>
</g>
</g>
<!-- Node1&#45;&gt;Node9 -->
<g id="edge11_Node000001_Node000009" class="edge">
<title>Node1&#45;&gt;Node9</title>
<g id="a_edge11_Node000001_Node000009"><a xlink:title=" ">
<path fill="none" stroke="#63b8ff" d="M119.71,-70.55C145.47,-59.39 187.37,-41.89 224.5,-29.38 229.62,-27.65 234.99,-25.96 240.38,-24.35"/>
<polygon fill="#63b8ff" stroke="#63b8ff" points="241.31,-27.73 249.95,-21.59 239.37,-21 241.31,-27.73"/>
</a>
</g>
</g>
<!-- Node3 -->
<g id="Node000003" class="node">
<title>Node3</title>
<g id="a_Node000003"><a xlink:href="classsisi4s_1_1Algorithm.html#a1e53277220d32a33e20846267c253652" target="_top" xlink:title=" ">
<polygon fill="white" stroke="#666666" points="526.12,-124.12 422.38,-124.12 422.38,-90.62 526.12,-90.62 526.12,-124.12"/>
<text text-anchor="start" x="430.38" y="-110.62" font-family="Helvetica,sans-Serif" font-size="10.00">sisi4s::Algorithm::</text>
<text text-anchor="middle" x="474.25" y="-97.88" font-family="Helvetica,sans-Serif" font-size="10.00">getArgumentData</text>
</a>
</g>
</g>
<!-- Node2&#45;&gt;Node3 -->
<g id="edge2_Node000002_Node000003" class="edge">
<title>Node2&#45;&gt;Node3</title>
<g id="a_edge2_Node000002_Node000003"><a xlink:title=" ">
<path fill="none" stroke="#63b8ff" d="M354.36,-72.55C372.59,-77.89 392.75,-83.79 411.21,-89.2"/>
<polygon fill="#63b8ff" stroke="#63b8ff" points="410.12,-92.53 420.7,-91.98 412.09,-85.81 410.12,-92.53"/>
</a>
</g>
</g>
<!-- Node5 -->
<g id="Node000005" class="node">
<title>Node5</title>
<g id="a_Node000005"><a xlink:href="classsisi4s_1_1Data.html#a10819dce08cb4dd8d881b9fe02036d69" target="_top" xlink:title=" ">
<polygon fill="white" stroke="#666666" points="536.25,-65.75 412.25,-65.75 412.25,-45 536.25,-45 536.25,-65.75"/>
<text text-anchor="middle" x="474.25" y="-52.25" font-family="Helvetica,sans-Serif" font-size="10.00">sisi4s::Data::getName</text>
</a>
</g>
</g>
<!-- Node2&#45;&gt;Node5 -->
<g id="edge4_Node000002_Node000005" class="edge">
<title>Node2&#45;&gt;Node5</title>
<g id="a_edge4_Node000002_Node000005"><a xlink:title=" ">
<path fill="none" stroke="#63b8ff" d="M365.39,-55.38C376.9,-55.38 388.86,-55.38 400.45,-55.38"/>
<polygon fill="#63b8ff" stroke="#63b8ff" points="400.36,-58.88 410.36,-55.38 400.36,-51.88 400.36,-58.88"/>
</a>
</g>
</g>
<!-- Node4 -->
<g id="Node000004" class="node">
<title>Node4</title>
<g id="a_Node000004"><a xlink:href="classsisi4s_1_1Data.html#a5b4676e48b4f437d399587e6903f896a" target="_top" xlink:title=" ">
<polygon fill="white" stroke="#666666" points="678.25,-117.75 583.5,-117.75 583.5,-97 678.25,-97 678.25,-117.75"/>
<text text-anchor="middle" x="630.88" y="-104.25" font-family="Helvetica,sans-Serif" font-size="10.00">sisi4s::Data::get</text>
</a>
</g>
</g>
<!-- Node3&#45;&gt;Node4 -->
<g id="edge3_Node000003_Node000004" class="edge">
<title>Node3&#45;&gt;Node4</title>
<g id="a_edge3_Node000003_Node000004"><a xlink:title=" ">
<path fill="none" stroke="#63b8ff" d="M526.31,-107.38C540.89,-107.38 556.88,-107.38 571.85,-107.38"/>
<polygon fill="#63b8ff" stroke="#63b8ff" points="571.54,-110.88 581.54,-107.38 571.54,-103.88 571.54,-110.88"/>
</a>
</g>
</g>
<!-- Node6&#45;&gt;Node3 -->
<g id="edge6_Node000006_Node000003" class="edge">
<title>Node6&#45;&gt;Node3</title>
<g id="a_edge6_Node000006_Node000003"><a xlink:title=" ">
<path fill="none" stroke="#63b8ff" d="M351.91,-142.92C370.76,-137.4 391.89,-131.21 411.17,-125.56"/>
<polygon fill="#63b8ff" stroke="#63b8ff" points="411.9,-128.99 420.52,-122.82 409.94,-122.28 411.9,-128.99"/>
</a>
</g>
</g>
<!-- Node7 -->
<g id="Node000007" class="node">
<title>Node7</title>
<g id="a_Node000007"><a xlink:href="classsisi4s_1_1Data.html#a0ec0b1c7f2356fd43d82ee1dd0246789" target="_top" xlink:title=" ">
<polygon fill="white" stroke="#666666" points="547.5,-165.75 401,-165.75 401,-145 547.5,-145 547.5,-165.75"/>
<text text-anchor="middle" x="474.25" y="-152.25" font-family="Helvetica,sans-Serif" font-size="10.00">sisi4s::Data::getTypeName</text>
</a>
</g>
</g>
<!-- Node6&#45;&gt;Node7 -->
<g id="edge7_Node000006_Node000007" class="edge">
<title>Node6&#45;&gt;Node7</title>
<g id="a_edge7_Node000006_Node000007"><a xlink:title=" ">
<path fill="none" stroke="#63b8ff" d="M351.91,-158.11C363.73,-157.84 376.45,-157.56 389.04,-157.27"/>
<polygon fill="#63b8ff" stroke="#63b8ff" points="389.11,-160.77 399.03,-157.05 388.95,-153.77 389.11,-160.77"/>
</a>
</g>
</g>
<!-- Node8&#45;&gt;Node3 -->
<g id="edge9_Node000008_Node000003" class="edge">
<title>Node8&#45;&gt;Node3</title>
<g id="a_edge9_Node000008_Node000003"><a xlink:title=" ">
<path fill="none" stroke="#63b8ff" d="M347.09,-107.38C366.96,-107.38 389.89,-107.38 410.71,-107.38"/>
<polygon fill="#63b8ff" stroke="#63b8ff" points="410.51,-110.88 420.51,-107.38 410.51,-103.88 410.51,-110.88"/>
</a>
</g>
</g>
<!-- Node8&#45;&gt;Node7 -->
<g id="edge10_Node000008_Node000007" class="edge">
<title>Node8&#45;&gt;Node7</title>
<g id="a_edge10_Node000008_Node000007"><a xlink:title=" ">
<path fill="none" stroke="#63b8ff" d="M347.09,-121.26C370.78,-127.66 398.82,-135.25 422.44,-141.64"/>
<polygon fill="#63b8ff" stroke="#63b8ff" points="421.27,-144.94 431.84,-144.18 423.1,-138.19 421.27,-144.94"/>
</a>
</g>
</g>
<!-- Node10 -->
<g id="Node000010" class="node">
<title>Node10</title>
<g id="a_Node000010"><a xlink:href="namespacesisi4s.html#a2e93670459c4d5d087e89f55952bbe62" target="_top" xlink:title=" ">
<polygon fill="white" stroke="#666666" points="526.88,-20.75 421.62,-20.75 421.62,0 526.88,0 526.88,-20.75"/>
<text text-anchor="middle" x="474.25" y="-7.25" font-family="Helvetica,sans-Serif" font-size="10.00">sisi4s::setRandom</text>
</a>
</g>
</g>
<!-- Node9&#45;&gt;Node10 -->
<g id="edge12_Node000009_Node000010" class="edge">
<title>Node9&#45;&gt;Node10</title>
<g id="a_edge12_Node000009_Node000010"><a xlink:title=" ">
<path fill="none" stroke="#63b8ff" d="M363.61,-10.38C378.82,-10.38 394.9,-10.38 409.91,-10.38"/>
<polygon fill="#63b8ff" stroke="#63b8ff" points="409.64,-13.88 419.64,-10.38 409.64,-6.88 409.64,-13.88"/>
</a>
</g>
</g>
</g>
</svg>
