<?xml version="1.0" encoding="UTF-8" standalone="no"?>
<!DOCTYPE svg PUBLIC "-//W3C//DTD SVG 1.1//EN"
 "http://www.w3.org/Graphics/SVG/1.1/DTD/svg11.dtd">
<!-- Generated by graphviz version 5.0.1 (0)
 -->
<!-- Title: sisi4s::Algorithm::allocateContainerArgument Pages: 1 -->
<svg width="451pt" height="78pt"
 viewBox="0.00 0.00 451.00 77.50" xmlns="http://www.w3.org/2000/svg" xmlns:xlink="http://www.w3.org/1999/xlink">
<g id="graph0" class="graph" transform="scale(1 1) rotate(0) translate(4 73.5)">
<title>sisi4s::Algorithm::allocateContainerArgument</title>
<!-- Node1 -->
<g id="node1" class="node">
<title>Node1</title>
<g id="a_node1"><a xlink:title=" ">
<polygon fill="#bfbfbf" stroke="black" points="0,-17 0,-47 151,-47 151,-17 0,-17"/>
<text text-anchor="start" x="8" y="-35" font-family="Helvetica,sans-Serif" font-size="10.00">sisi4s::Algorithm::</text>
<text text-anchor="middle" x="75.5" y="-24" font-family="Helvetica,sans-Serif" font-size="10.00">allocateContainerArgument</text>
</a>
</g>
</g>
<!-- Node2 -->
<g id="node2" class="node">
<title>Node2</title>
<g id="a_node2"><a xlink:href="classsisi4s_1_1Algorithm.html#a1e53277220d32a33e20846267c253652" target="_top" xlink:title=" ">
<polygon fill="none" stroke="black" points="197.5,-39 197.5,-69 301.5,-69 301.5,-39 197.5,-39"/>
<text text-anchor="start" x="205.5" y="-57" font-family="Helvetica,sans-Serif" font-size="10.00">sisi4s::Algorithm::</text>
<text text-anchor="middle" x="249.5" y="-46" font-family="Helvetica,sans-Serif" font-size="10.00">getArgumentData</text>
</a>
</g>
</g>
<!-- Node1&#45;&gt;Node2 -->
<g id="edge1" class="edge">
<title>Node1&#45;&gt;Node2</title>
<path fill="none" stroke="midnightblue" d="M151.19,-41.55C163.25,-43.1 175.61,-44.68 187.31,-46.17"/>
<polygon fill="midnightblue" stroke="midnightblue" points="187.02,-49.67 197.39,-47.46 187.91,-42.72 187.02,-49.67"/>
</g>
<!-- Node4 -->
<g id="node4" class="node">
<title>Node4</title>
<g id="a_node4"><a xlink:href="classsisi4s_1_1Data.html#a10819dce08cb4dd8d881b9fe02036d69" target="_top" xlink:title=" ">
<polygon fill="none" stroke="black" points="187,-0.5 187,-19.5 312,-19.5 312,-0.5 187,-0.5"/>
<text text-anchor="middle" x="249.5" y="-7.5" font-family="Helvetica,sans-Serif" font-size="10.00">sisi4s::Data::getName</text>
</a>
</g>
</g>
<!-- Node1&#45;&gt;Node4 -->
<g id="edge3" class="edge">
<title>Node1&#45;&gt;Node4</title>
<path fill="none" stroke="midnightblue" d="M151.19,-22.45C159.63,-21.37 168.23,-20.27 176.63,-19.19"/>
<polygon fill="midnightblue" stroke="midnightblue" points="177.3,-22.64 186.77,-17.9 176.41,-15.69 177.3,-22.64"/>
</g>
<!-- Node3 -->
<g id="node3" class="node">
<title>Node3</title>
<g id="a_node3"><a xlink:href="classsisi4s_1_1Data.html#a5b4676e48b4f437d399587e6903f896a" target="_top" xlink:title=" ">
<polygon fill="none" stroke="black" points="348,-44.5 348,-63.5 443,-63.5 443,-44.5 348,-44.5"/>
<text text-anchor="middle" x="395.5" y="-51.5" font-family="Helvetica,sans-Serif" font-size="10.00">sisi4s::Data::get</text>
</a>
</g>
</g>
<!-- Node2&#45;&gt;Node3 -->
<g id="edge2" class="edge">
<title>Node2&#45;&gt;Node3</title>
<path fill="none" stroke="midnightblue" d="M301.67,-54C313.3,-54 325.73,-54 337.58,-54"/>
<polygon fill="midnightblue" stroke="midnightblue" points="337.81,-57.5 347.81,-54 337.81,-50.5 337.81,-57.5"/>
</g>
</g>
</svg>
