<?xml version="1.0" encoding="UTF-8" standalone="no"?>
<!DOCTYPE svg PUBLIC "-//W3C//DTD SVG 1.1//EN"
 "http://www.w3.org/Graphics/SVG/1.1/DTD/svg11.dtd">
<!-- Generated by graphviz version 9.0.0 (0)
 -->
<!-- Title: sisi4s::CoulombVertexDecomposition::getDelta Pages: 1 -->
<svg width="947pt" height="64pt"
 viewBox="0.00 0.00 946.50 63.50" xmlns="http://www.w3.org/2000/svg" xmlns:xlink="http://www.w3.org/1999/xlink">
<g id="graph0" class="graph" transform="scale(1 1) rotate(0) translate(4 59.5)">
<title>sisi4s::CoulombVertexDecomposition::getDelta</title>
<!-- Node1 -->
<g id="Node000001" class="node">
<title>Node1</title>
<g id="a_Node000001"><a xlink:title="Computes and returns the difference.">
<polygon fill="#999999" stroke="#666666" points="938.5,-55.5 740.25,-55.5 740.25,-22 938.5,-22 938.5,-55.5"/>
<text text-anchor="start" x="748.25" y="-42" font-family="Helvetica,sans-Serif" font-size="10.00">sisi4s::CoulombVertexDecomposition</text>
<text text-anchor="middle" x="839.38" y="-29.25" font-family="Helvetica,sans-Serif" font-size="10.00">::getDelta</text>
</a>
</g>
</g>
<!-- Node2 -->
<g id="Node000002" class="node">
<title>Node2</title>
<g id="a_Node000002"><a xlink:href="classsisi4s_1_1CoulombVertexDecomposition.html#acd985462c04c09ccd03c9b85aeff652a" target="_top" xlink:title="Performs one iteration in fitting the factor orbitals and the Coulomb factors according to the given ...">
<polygon fill="white" stroke="#666666" points="470,-49.12 256,-49.12 256,-28.38 470,-28.38 470,-49.12"/>
<text text-anchor="middle" x="363" y="-35.62" font-family="Helvetica,sans-Serif" font-size="10.00">sisi4s::CoulombVertexDecomposition::fit</text>
</a>
</g>
</g>
<!-- Node1&#45;&gt;Node2 -->
<g id="edge1_Node000001_Node000002" class="edge">
<title>Node1&#45;&gt;Node2</title>
<g id="a_edge1_Node000001_Node000002"><a xlink:title=" ">
<path fill="none" stroke="#63b8ff" d="M728.61,-42.29C720.37,-42.47 712.18,-42.63 704.25,-42.75 616.15,-44.06 594.1,-43.99 506,-42.75 494.41,-42.59 482.29,-42.35 470.22,-42.07"/>
<polygon fill="#63b8ff" stroke="#63b8ff" points="728.43,-45.8 738.35,-42.06 728.27,-38.8 728.43,-45.8"/>
</a>
</g>
</g>
<!-- Node4 -->
<g id="Node000004" class="node">
<title>Node4</title>
<g id="a_Node000004"><a xlink:href="classsisi4s_1_1CoulombVertexDecomposition.html#a9bad578c327384b5b48a0c98a907cded" target="_top" xlink:title="Solves the quadratically occurring factor Pi iteratively similar to the Babylonian algorithm.">
<polygon fill="white" stroke="#666666" points="704.25,-33.5 506,-33.5 506,0 704.25,0 704.25,-33.5"/>
<text text-anchor="start" x="514" y="-20" font-family="Helvetica,sans-Serif" font-size="10.00">sisi4s::CoulombVertexDecomposition</text>
<text text-anchor="middle" x="605.12" y="-7.25" font-family="Helvetica,sans-Serif" font-size="10.00">::iterateQuadraticFactor</text>
</a>
</g>
</g>
<!-- Node1&#45;&gt;Node4 -->
<g id="edge3_Node000001_Node000004" class="edge">
<title>Node1&#45;&gt;Node4</title>
<g id="a_edge3_Node000001_Node000004"><a xlink:title=" ">
<path fill="none" stroke="#63b8ff" d="M728.53,-28.35C720.48,-27.58 712.38,-26.82 704.4,-26.06"/>
<polygon fill="#63b8ff" stroke="#63b8ff" points="728.09,-31.82 738.37,-29.28 728.75,-24.85 728.09,-31.82"/>
</a>
</g>
</g>
<!-- Node3 -->
<g id="Node000003" class="node">
<title>Node3</title>
<g id="a_Node000003"><a xlink:href="classsisi4s_1_1CoulombVertexDecomposition.html#accb34639975cd2eed1188f32d3f239ff" target="_top" xlink:title=" ">
<polygon fill="white" stroke="#666666" points="220,-49.12 0,-49.12 0,-28.38 220,-28.38 220,-49.12"/>
<text text-anchor="middle" x="110" y="-35.62" font-family="Helvetica,sans-Serif" font-size="10.00">sisi4s::CoulombVertexDecomposition::run</text>
</a>
</g>
</g>
<!-- Node2&#45;&gt;Node3 -->
<g id="edge2_Node000002_Node000003" class="edge">
<title>Node2&#45;&gt;Node3</title>
<g id="a_edge2_Node000002_Node000003"><a xlink:title=" ">
<path fill="none" stroke="#63b8ff" d="M244.05,-38.75C236.17,-38.75 228.26,-38.75 220.42,-38.75"/>
<polygon fill="#63b8ff" stroke="#63b8ff" points="244.04,-42.25 254.04,-38.75 244.04,-35.25 244.04,-42.25"/>
</a>
</g>
</g>
<!-- Node4&#45;&gt;Node2 -->
<g id="edge4_Node000004_Node000002" class="edge">
<title>Node4&#45;&gt;Node2</title>
<g id="a_edge4_Node000004_Node000002"><a xlink:title=" ">
<path fill="none" stroke="#63b8ff" d="M494.49,-26.79C486.48,-27.53 478.4,-28.27 470.41,-29"/>
<polygon fill="#63b8ff" stroke="#63b8ff" points="494.62,-30.3 504.26,-25.9 493.98,-23.33 494.62,-30.3"/>
</a>
</g>
</g>
</g>
</svg>
