<?xml version="1.0" encoding="UTF-8" standalone="no"?>
<!DOCTYPE svg PUBLIC "-//W3C//DTD SVG 1.1//EN"
 "http://www.w3.org/Graphics/SVG/1.1/DTD/svg11.dtd">
<!-- Generated by graphviz version 7.0.0 (0)
 -->
<!-- Title: ghc::filesystem::directory_iterator::impl::increment Pages: 1 -->
<svg width="703pt" height="134pt"
 viewBox="0.00 0.00 703.00 134.00" xmlns="http://www.w3.org/2000/svg" xmlns:xlink="http://www.w3.org/1999/xlink">
<g id="graph0" class="graph" transform="scale(1 1) rotate(0) translate(4 130)">
<title>ghc::filesystem::directory_iterator::impl::increment</title>
<!-- Node1 -->
<g id="node1" class="node">
<title>Node1</title>
<g id="a_node1"><a xlink:title=" ">
<polygon fill="#999999" stroke="#666666" points="141,-78 0,-78 0,-48 141,-48 141,-78"/>
<text text-anchor="start" x="8" y="-66" font-family="Helvetica,sans-Serif" font-size="10.00">ghc::filesystem::directory</text>
<text text-anchor="middle" x="70.5" y="-55" font-family="Helvetica,sans-Serif" font-size="10.00">_iterator::impl::increment</text>
</a>
</g>
</g>
<!-- Node2 -->
<g id="node2" class="node">
<title>Node2</title>
<g id="a_node2"><a xlink:href="classghc_1_1filesystem_1_1path.html#a08d9cc6bfa72c5a9ff2acde0b1e89465" target="_top" xlink:title=" ">
<polygon fill="white" stroke="#666666" points="319,-126 200,-126 200,-96 319,-96 319,-126"/>
<text text-anchor="start" x="208" y="-114" font-family="Helvetica,sans-Serif" font-size="10.00">ghc::filesystem::path</text>
<text text-anchor="middle" x="259.5" y="-103" font-family="Helvetica,sans-Serif" font-size="10.00">::clear</text>
</a>
</g>
</g>
<!-- Node1&#45;&gt;Node2 -->
<g id="edge1" class="edge">
<title>Node1&#45;&gt;Node2</title>
<path fill="none" stroke="#63b8ff" d="M131.7,-78.45C149.82,-83.1 169.86,-88.25 188.56,-93.05"/>
<polygon fill="#63b8ff" stroke="#63b8ff" points="187.67,-96.43 198.23,-95.53 189.41,-89.65 187.67,-96.43"/>
</g>
<!-- Node3 -->
<g id="node3" class="node">
<title>Node3</title>
<g id="a_node3"><a xlink:href="classghc_1_1filesystem_1_1directory__iterator_1_1impl.html#a59e7c7a3534fabbce4493dd1732173f9" target="_top" xlink:title=" ">
<polygon fill="white" stroke="#666666" points="342,-78 177,-78 177,-48 342,-48 342,-78"/>
<text text-anchor="start" x="185" y="-66" font-family="Helvetica,sans-Serif" font-size="10.00">ghc::filesystem::directory</text>
<text text-anchor="middle" x="259.5" y="-55" font-family="Helvetica,sans-Serif" font-size="10.00">_iterator::impl::copyToDirEntry</text>
</a>
</g>
</g>
<!-- Node1&#45;&gt;Node3 -->
<g id="edge2" class="edge">
<title>Node1&#45;&gt;Node3</title>
<path fill="none" stroke="#63b8ff" d="M141.4,-63C149.22,-63 157.29,-63 165.35,-63"/>
<polygon fill="#63b8ff" stroke="#63b8ff" points="165.2,-66.5 175.2,-63 165.2,-59.5 165.2,-66.5"/>
</g>
<!-- Node8 -->
<g id="node8" class="node">
<title>Node8</title>
<g id="a_node8"><a xlink:href="namespaceghc_1_1filesystem_1_1detail.html#ada571d5c1f47892dc26420eb4a8adaee" target="_top" xlink:title=" ">
<polygon fill="white" stroke="#666666" points="322,-30 197,-30 197,0 322,0 322,-30"/>
<text text-anchor="start" x="205" y="-18" font-family="Helvetica,sans-Serif" font-size="10.00">ghc::filesystem::detail</text>
<text text-anchor="middle" x="259.5" y="-7" font-family="Helvetica,sans-Serif" font-size="10.00">::make_system_error</text>
</a>
</g>
</g>
<!-- Node1&#45;&gt;Node8 -->
<g id="edge7" class="edge">
<title>Node1&#45;&gt;Node8</title>
<path fill="none" stroke="#63b8ff" d="M131.7,-47.55C149.46,-42.99 169.08,-37.95 187.46,-33.24"/>
<polygon fill="#63b8ff" stroke="#63b8ff" points="188.13,-36.68 196.95,-30.8 186.39,-29.9 188.13,-36.68"/>
</g>
<!-- Node4 -->
<g id="node4" class="node">
<title>Node4</title>
<g id="a_node4"><a xlink:href="namespaceghc_1_1filesystem_1_1detail.html#a070f84d258900becec284b0d278a544b" target="_top" xlink:title=" ">
<polygon fill="white" stroke="#666666" points="505,-126 378,-126 378,-96 505,-96 505,-126"/>
<text text-anchor="start" x="386" y="-114" font-family="Helvetica,sans-Serif" font-size="10.00">ghc::filesystem::detail</text>
<text text-anchor="middle" x="441.5" y="-103" font-family="Helvetica,sans-Serif" font-size="10.00">::file_type_from_dirent</text>
</a>
</g>
</g>
<!-- Node3&#45;&gt;Node4 -->
<g id="edge3" class="edge">
<title>Node3&#45;&gt;Node4</title>
<path fill="none" stroke="#63b8ff" d="M318.44,-78.45C335.47,-82.99 354.25,-88 371.87,-92.7"/>
<polygon fill="#63b8ff" stroke="#63b8ff" points="370.64,-95.99 381.2,-95.19 372.44,-89.23 370.64,-95.99"/>
</g>
<!-- Node6 -->
<g id="node6" class="node">
<title>Node6</title>
<g id="a_node6"><a xlink:href="classghc_1_1filesystem_1_1file__status.html#a3bc95097429f59b3f00b610bee882f73" target="_top" xlink:title=" ">
<polygon fill="white" stroke="#666666" points="500,-78 383,-78 383,-48 500,-48 500,-78"/>
<text text-anchor="start" x="391" y="-66" font-family="Helvetica,sans-Serif" font-size="10.00">ghc::filesystem::file</text>
<text text-anchor="middle" x="441.5" y="-55" font-family="Helvetica,sans-Serif" font-size="10.00">_status::permissions</text>
</a>
</g>
</g>
<!-- Node3&#45;&gt;Node6 -->
<g id="edge5" class="edge">
<title>Node3&#45;&gt;Node6</title>
<path fill="none" stroke="#63b8ff" d="M342.34,-63C351.98,-63 361.74,-63 371.19,-63"/>
<polygon fill="#63b8ff" stroke="#63b8ff" points="371,-66.5 381,-63 371,-59.5 371,-66.5"/>
</g>
<!-- Node7 -->
<g id="node7" class="node">
<title>Node7</title>
<g id="a_node7"><a xlink:href="classghc_1_1filesystem_1_1file__status.html#a83a4690911b2b0701c684ac30d786b5f" target="_top" xlink:title=" ">
<polygon fill="white" stroke="#666666" points="497.5,-30 385.5,-30 385.5,0 497.5,0 497.5,-30"/>
<text text-anchor="start" x="393.5" y="-18" font-family="Helvetica,sans-Serif" font-size="10.00">ghc::filesystem::file</text>
<text text-anchor="middle" x="441.5" y="-7" font-family="Helvetica,sans-Serif" font-size="10.00">_status::type</text>
</a>
</g>
</g>
<!-- Node3&#45;&gt;Node7 -->
<g id="edge6" class="edge">
<title>Node3&#45;&gt;Node7</title>
<path fill="none" stroke="#63b8ff" d="M318.44,-47.55C336.23,-42.81 355.94,-37.55 374.24,-32.67"/>
<polygon fill="#63b8ff" stroke="#63b8ff" points="374.89,-36.12 383.65,-30.16 373.09,-29.35 374.89,-36.12"/>
</g>
<!-- Node5 -->
<g id="node5" class="node">
<title>Node5</title>
<g id="a_node5"><a xlink:href="namespaceghc_1_1filesystem_1_1detail.html#ab8995ef1cedc15967ec0825c27c68bbe" target="_top" xlink:title=" ">
<polygon fill="white" stroke="#666666" points="695,-126 541,-126 541,-96 695,-96 695,-126"/>
<text text-anchor="start" x="549" y="-114" font-family="Helvetica,sans-Serif" font-size="10.00">ghc::filesystem::detail</text>
<text text-anchor="middle" x="618" y="-103" font-family="Helvetica,sans-Serif" font-size="10.00">::file_type_from_dirent_impl</text>
</a>
</g>
</g>
<!-- Node4&#45;&gt;Node5 -->
<g id="edge4" class="edge">
<title>Node4&#45;&gt;Node5</title>
<path fill="none" stroke="#63b8ff" d="M505.5,-111C513.26,-111 521.3,-111 529.35,-111"/>
<polygon fill="#63b8ff" stroke="#63b8ff" points="529.19,-114.5 539.19,-111 529.19,-107.5 529.19,-114.5"/>
</g>
</g>
</svg>
