<?xml version="1.0" encoding="UTF-8" standalone="no"?>
<!DOCTYPE svg PUBLIC "-//W3C//DTD SVG 1.1//EN"
 "http://www.w3.org/Graphics/SVG/1.1/DTD/svg11.dtd">
<!-- Generated by graphviz version 7.0.0 (0)
 -->
<!-- Title: sisi4s::TensorSum::run Pages: 1 -->
<svg width="609pt" height="180pt"
 viewBox="0.00 0.00 609.00 180.00" xmlns="http://www.w3.org/2000/svg" xmlns:xlink="http://www.w3.org/1999/xlink">
<g id="graph0" class="graph" transform="scale(1 1) rotate(0) translate(4 176)">
<title>sisi4s::TensorSum::run</title>
<!-- Node1 -->
<g id="node1" class="node">
<title>Node1</title>
<g id="a_node1"><a xlink:title="Testing environement.">
<polygon fill="#999999" stroke="#666666" points="125,-118.5 0,-118.5 0,-99.5 125,-99.5 125,-118.5"/>
<text text-anchor="middle" x="62.5" y="-106.5" font-family="Helvetica,sans-Serif" font-size="10.00">sisi4s::TensorSum::run</text>
</a>
</g>
</g>
<!-- Node2 -->
<g id="node2" class="node">
<title>Node2</title>
<g id="a_node2"><a xlink:href="classsisi4s_1_1Algorithm.html#a36c632fbb19dae4ce2f415705fa5cbcb" target="_top" xlink:title=" ">
<polygon fill="white" stroke="#666666" points="269,-76 165,-76 165,-46 269,-46 269,-76"/>
<text text-anchor="start" x="173" y="-64" font-family="Helvetica,sans-Serif" font-size="10.00">sisi4s::Algorithm::</text>
<text text-anchor="middle" x="217" y="-53" font-family="Helvetica,sans-Serif" font-size="10.00">getRealArgument</text>
</a>
</g>
</g>
<!-- Node1&#45;&gt;Node2 -->
<g id="edge1" class="edge">
<title>Node1&#45;&gt;Node2</title>
<path fill="none" stroke="#63b8ff" d="M95.1,-99.05C112.78,-93.49 135.41,-86.37 156.29,-79.79"/>
<polygon fill="#63b8ff" stroke="#63b8ff" points="157.09,-83.21 165.58,-76.87 154.99,-76.53 157.09,-83.21"/>
</g>
<!-- Node8 -->
<g id="node8" class="node">
<title>Node8</title>
<g id="a_node8"><a xlink:href="classsisi4s_1_1Algorithm.html#a338a44c8fd4d6be3b32a6d5e71dfe180" target="_top" xlink:title=" ">
<polygon fill="white" stroke="#666666" points="273,-124 161,-124 161,-94 273,-94 273,-124"/>
<text text-anchor="start" x="169" y="-112" font-family="Helvetica,sans-Serif" font-size="10.00">sisi4s::Algorithm::</text>
<text text-anchor="middle" x="217" y="-101" font-family="Helvetica,sans-Serif" font-size="10.00">getTensorArgument</text>
</a>
</g>
</g>
<!-- Node1&#45;&gt;Node8 -->
<g id="edge7" class="edge">
<title>Node1&#45;&gt;Node8</title>
<path fill="none" stroke="#63b8ff" d="M125.09,-109C133.07,-109 141.27,-109 149.32,-109"/>
<polygon fill="#63b8ff" stroke="#63b8ff" points="149.06,-112.5 159.06,-109 149.06,-105.5 149.06,-112.5"/>
</g>
<!-- Node9 -->
<g id="node9" class="node">
<title>Node9</title>
<g id="a_node9"><a xlink:href="classsisi4s_1_1Algorithm.html#a5e80a507fac066ab5714b62364cabaaf" target="_top" xlink:title=" ">
<polygon fill="white" stroke="#666666" points="269,-172 165,-172 165,-142 269,-142 269,-172"/>
<text text-anchor="start" x="173" y="-160" font-family="Helvetica,sans-Serif" font-size="10.00">sisi4s::Algorithm::</text>
<text text-anchor="middle" x="217" y="-149" font-family="Helvetica,sans-Serif" font-size="10.00">getTextArgument</text>
</a>
</g>
</g>
<!-- Node1&#45;&gt;Node9 -->
<g id="edge10" class="edge">
<title>Node1&#45;&gt;Node9</title>
<path fill="none" stroke="#63b8ff" d="M95.1,-118.95C112.78,-124.51 135.41,-131.63 156.29,-138.21"/>
<polygon fill="#63b8ff" stroke="#63b8ff" points="154.99,-141.47 165.58,-141.13 157.09,-134.79 154.99,-141.47"/>
</g>
<!-- Node3 -->
<g id="node3" class="node">
<title>Node3</title>
<g id="a_node3"><a xlink:href="classsisi4s_1_1Algorithm.html#a1e53277220d32a33e20846267c253652" target="_top" xlink:title=" ">
<polygon fill="white" stroke="#666666" points="441.5,-166 337.5,-166 337.5,-136 441.5,-136 441.5,-166"/>
<text text-anchor="start" x="345.5" y="-154" font-family="Helvetica,sans-Serif" font-size="10.00">sisi4s::Algorithm::</text>
<text text-anchor="middle" x="389.5" y="-143" font-family="Helvetica,sans-Serif" font-size="10.00">getArgumentData</text>
</a>
</g>
</g>
<!-- Node2&#45;&gt;Node3 -->
<g id="edge2" class="edge">
<title>Node2&#45;&gt;Node3</title>
<path fill="none" stroke="#63b8ff" d="M259.1,-76.44C263.98,-78.99 268.73,-81.84 273,-85 292.77,-99.62 288.4,-113.57 309,-127 314.49,-130.58 320.54,-133.65 326.78,-136.27"/>
<polygon fill="#63b8ff" stroke="#63b8ff" points="325.38,-139.48 335.97,-139.74 327.85,-132.93 325.38,-139.48"/>
</g>
<!-- Node5 -->
<g id="node5" class="node">
<title>Node5</title>
<g id="a_node5"><a xlink:href="classsisi4s_1_1Algorithm.html#a1cb9a5e8f19cd8e6b70bb06738ca9413" target="_top" xlink:title=" ">
<polygon fill="white" stroke="#666666" points="470,-78 309,-78 309,-48 470,-48 470,-78"/>
<text text-anchor="start" x="317" y="-66" font-family="Helvetica,sans-Serif" font-size="10.00">sisi4s::Algorithm::</text>
<text text-anchor="middle" x="389.5" y="-55" font-family="Helvetica,sans-Serif" font-size="10.00">getRealArgumentFromInteger</text>
</a>
</g>
</g>
<!-- Node2&#45;&gt;Node5 -->
<g id="edge4" class="edge">
<title>Node2&#45;&gt;Node5</title>
<path fill="none" stroke="#63b8ff" d="M269.16,-61.6C278.11,-61.71 287.66,-61.82 297.32,-61.93"/>
<polygon fill="#63b8ff" stroke="#63b8ff" points="297.12,-65.43 307.16,-62.05 297.2,-58.43 297.12,-65.43"/>
</g>
<!-- Node6 -->
<g id="node6" class="node">
<title>Node6</title>
<g id="a_node6"><a xlink:href="classsisi4s_1_1Algorithm.html#a89e59623f1c238a871a4fba19371be7d" target="_top" xlink:title=" ">
<polygon fill="white" stroke="#666666" points="468.5,-30 310.5,-30 310.5,0 468.5,0 468.5,-30"/>
<text text-anchor="start" x="318.5" y="-18" font-family="Helvetica,sans-Serif" font-size="10.00">sisi4s::Algorithm::</text>
<text text-anchor="middle" x="389.5" y="-7" font-family="Helvetica,sans-Serif" font-size="10.00">getRealArgumentFromTensor</text>
</a>
</g>
</g>
<!-- Node2&#45;&gt;Node6 -->
<g id="edge5" class="edge">
<title>Node2&#45;&gt;Node6</title>
<path fill="none" stroke="#63b8ff" d="M269.16,-47.2C285.17,-42.88 303.1,-38.04 320.1,-33.45"/>
<polygon fill="#63b8ff" stroke="#63b8ff" points="320.91,-36.86 329.65,-30.88 319.08,-30.1 320.91,-36.86"/>
</g>
<!-- Node7 -->
<g id="node7" class="node">
<title>Node7</title>
<g id="a_node7"><a xlink:href="classsisi4s_1_1Data.html#a0ec0b1c7f2356fd43d82ee1dd0246789" target="_top" xlink:title=" ">
<polygon fill="white" stroke="#666666" points="463,-117.5 316,-117.5 316,-98.5 463,-98.5 463,-117.5"/>
<text text-anchor="middle" x="389.5" y="-105.5" font-family="Helvetica,sans-Serif" font-size="10.00">sisi4s::Data::getTypeName</text>
</a>
</g>
</g>
<!-- Node2&#45;&gt;Node7 -->
<g id="edge6" class="edge">
<title>Node2&#45;&gt;Node7</title>
<path fill="none" stroke="#63b8ff" d="M269.44,-75.89C282.34,-79.57 296.17,-83.47 309,-87 318.7,-89.67 329.09,-92.46 339.04,-95.1"/>
<polygon fill="#63b8ff" stroke="#63b8ff" points="338.02,-98.45 348.58,-97.62 339.81,-91.68 338.02,-98.45"/>
</g>
<!-- Node4 -->
<g id="node4" class="node">
<title>Node4</title>
<g id="a_node4"><a xlink:href="classsisi4s_1_1Data.html#a5b4676e48b4f437d399587e6903f896a" target="_top" xlink:title=" ">
<polygon fill="white" stroke="#666666" points="601,-160.5 506,-160.5 506,-141.5 601,-141.5 601,-160.5"/>
<text text-anchor="middle" x="553.5" y="-148.5" font-family="Helvetica,sans-Serif" font-size="10.00">sisi4s::Data::get</text>
</a>
</g>
</g>
<!-- Node3&#45;&gt;Node4 -->
<g id="edge3" class="edge">
<title>Node3&#45;&gt;Node4</title>
<path fill="none" stroke="#63b8ff" d="M441.76,-151C458.56,-151 477.35,-151 494.61,-151"/>
<polygon fill="#63b8ff" stroke="#63b8ff" points="494.18,-154.5 504.18,-151 494.18,-147.5 494.18,-154.5"/>
</g>
<!-- Node8&#45;&gt;Node3 -->
<g id="edge8" class="edge">
<title>Node8&#45;&gt;Node3</title>
<path fill="none" stroke="#63b8ff" d="M273.36,-122.64C290.19,-126.78 308.8,-131.37 326.06,-135.62"/>
<polygon fill="#63b8ff" stroke="#63b8ff" points="325.16,-139 335.71,-138 326.84,-132.21 325.16,-139"/>
</g>
<!-- Node8&#45;&gt;Node7 -->
<g id="edge9" class="edge">
<title>Node8&#45;&gt;Node7</title>
<path fill="none" stroke="#63b8ff" d="M273.36,-108.68C283.28,-108.62 293.83,-108.56 304.35,-108.49"/>
<polygon fill="#63b8ff" stroke="#63b8ff" points="304.24,-111.99 314.21,-108.44 304.19,-104.99 304.24,-111.99"/>
</g>
<!-- Node9&#45;&gt;Node3 -->
<g id="edge11" class="edge">
<title>Node9&#45;&gt;Node3</title>
<path fill="none" stroke="#63b8ff" d="M269.16,-155.2C286.95,-154.57 307.11,-153.86 325.73,-153.21"/>
<polygon fill="#63b8ff" stroke="#63b8ff" points="325.7,-156.71 335.57,-152.86 325.46,-149.72 325.7,-156.71"/>
</g>
<!-- Node9&#45;&gt;Node7 -->
<g id="edge12" class="edge">
<title>Node9&#45;&gt;Node7</title>
<path fill="none" stroke="#63b8ff" d="M262.2,-141.6C277,-136.67 293.64,-131.36 309,-127 316.61,-124.84 324.67,-122.72 332.63,-120.73"/>
<polygon fill="#63b8ff" stroke="#63b8ff" points="333.41,-124.14 342.29,-118.36 331.74,-117.34 333.41,-124.14"/>
</g>
</g>
</svg>
