<?xml version="1.0" encoding="UTF-8" standalone="no"?>
<!DOCTYPE svg PUBLIC "-//W3C//DTD SVG 1.1//EN"
 "http://www.w3.org/Graphics/SVG/1.1/DTD/svg11.dtd">
<!-- Generated by graphviz version 8.1.0 (0)
 -->
<!-- Title: sisi4s::SimilarityTransformedHamiltonian::structureFactor Pages: 1 -->
<svg width="327pt" height="68pt"
 viewBox="0.00 0.00 326.50 67.75" xmlns="http://www.w3.org/2000/svg" xmlns:xlink="http://www.w3.org/1999/xlink">
<g id="graph0" class="graph" transform="scale(1 1) rotate(0) translate(4 63.75)">
<title>sisi4s::SimilarityTransformedHamiltonian::structureFactor</title>
<!-- Node1 -->
<g id="Node000001" class="node">
<title>Node1</title>
<g id="a_Node000001"><a xlink:title=" ">
<polygon fill="#999999" stroke="#666666" points="157.75,-46.12 0,-46.12 0,-12.62 157.75,-12.62 157.75,-46.12"/>
<text text-anchor="start" x="8" y="-32.62" font-family="Helvetica,sans-Serif" font-size="10.00">sisi4s::SimilarityTransformed</text>
<text text-anchor="middle" x="78.88" y="-19.88" font-family="Helvetica,sans-Serif" font-size="10.00">Hamiltonian::structureFactor</text>
</a>
</g>
</g>
<!-- Node2 -->
<g id="Node000002" class="node">
<title>Node2</title>
<g id="a_Node000002"><a xlink:href="namespacesisi4s.html#ab3f1696a0e7735d418f8996311daa8c4" target="_top" xlink:title=" ">
<polygon fill="white" stroke="#666666" points="305,-59.75 207.25,-59.75 207.25,-39 305,-39 305,-59.75"/>
<text text-anchor="middle" x="256.12" y="-46.25" font-family="Helvetica,sans-Serif" font-size="10.00">sisi4s::conjugate</text>
</a>
</g>
</g>
<!-- Node1&#45;&gt;Node2 -->
<g id="edge1_Node000001_Node000002" class="edge">
<title>Node1&#45;&gt;Node2</title>
<g id="a_edge1_Node000001_Node000002"><a xlink:title=" ">
<path fill="none" stroke="#63b8ff" d="M158.02,-38.29C170.74,-39.74 183.73,-41.23 195.89,-42.62"/>
<polygon fill="#63b8ff" stroke="#63b8ff" points="195.48,-46.2 205.81,-43.86 196.27,-39.25 195.48,-46.2"/>
</a>
</g>
</g>
<!-- Node3 -->
<g id="Node000003" class="node">
<title>Node3</title>
<g id="a_Node000003"><a xlink:href="classsisi4s_1_1FockVector.html#aebf4e090f20a7bb83c434396b274c89c" target="_top" xlink:title="Retrieves the i&#45;th component tensor. Note that the Tensor is not const since rearrangement may be req...">
<polygon fill="white" stroke="#666666" points="318.5,-20.75 193.75,-20.75 193.75,0 318.5,0 318.5,-20.75"/>
<text text-anchor="middle" x="256.12" y="-7.25" font-family="Helvetica,sans-Serif" font-size="10.00">sisi4s::FockVector::get</text>
</a>
</g>
</g>
<!-- Node1&#45;&gt;Node3 -->
<g id="edge2_Node000001_Node000003" class="edge">
<title>Node1&#45;&gt;Node3</title>
<g id="a_edge2_Node000001_Node000003"><a xlink:title=" ">
<path fill="none" stroke="#63b8ff" d="M158.02,-20.9C166.18,-20.02 174.44,-19.12 182.54,-18.24"/>
<polygon fill="#63b8ff" stroke="#63b8ff" points="182.87,-21.62 192.44,-17.06 182.12,-14.66 182.87,-21.62"/>
</a>
</g>
</g>
</g>
</svg>
