<?xml version="1.0" encoding="UTF-8" standalone="no"?>
<!DOCTYPE svg PUBLIC "-//W3C//DTD SVG 1.1//EN"
 "http://www.w3.org/Graphics/SVG/1.1/DTD/svg11.dtd">
<!-- Generated by graphviz version 8.1.0 (0)
 -->
<!-- Title: sisi4s::UccsdtAmplitudesFromCoulombIntegrals::run Pages: 1 -->
<svg width="873pt" height="184pt"
 viewBox="0.00 0.00 873.25 183.50" xmlns="http://www.w3.org/2000/svg" xmlns:xlink="http://www.w3.org/1999/xlink">
<g id="graph0" class="graph" transform="scale(1 1) rotate(0) translate(4 179.5)">
<title>sisi4s::UccsdtAmplitudesFromCoulombIntegrals::run</title>
<!-- Node1 -->
<g id="Node000001" class="node">
<title>Node1</title>
<g id="a_Node000001"><a xlink:title="Calculates the energy of a ClusterSinglesDoubles algorithm.">
<polygon fill="#999999" stroke="#666666" points="148.75,-81.5 0,-81.5 0,-48 148.75,-48 148.75,-81.5"/>
<text text-anchor="start" x="8" y="-68" font-family="Helvetica,sans-Serif" font-size="10.00">sisi4s::UccsdtAmplitudes</text>
<text text-anchor="middle" x="74.38" y="-55.25" font-family="Helvetica,sans-Serif" font-size="10.00">FromCoulombIntegrals::run</text>
</a>
</g>
</g>
<!-- Node2 -->
<g id="Node000002" class="node">
<title>Node2</title>
<g id="a_Node000002"><a xlink:href="classsisi4s_1_1ClusterSinglesDoublesTriplesAlgorithm.html#ac08d3e28a27584d55b02585b7df309bd" target="_top" xlink:title="Calculates the energy of a ClusterSinglesDoubles algorithm.">
<polygon fill="white" stroke="#666666" points="344,-107.5 184.75,-107.5 184.75,-74 344,-74 344,-107.5"/>
<text text-anchor="start" x="192.75" y="-94" font-family="Helvetica,sans-Serif" font-size="10.00">sisi4s::ClusterSinglesDoubles</text>
<text text-anchor="middle" x="264.38" y="-81.25" font-family="Helvetica,sans-Serif" font-size="10.00">TriplesAlgorithm::run</text>
</a>
</g>
</g>
<!-- Node1&#45;&gt;Node2 -->
<g id="edge1_Node000001_Node000002" class="edge">
<title>Node1&#45;&gt;Node2</title>
<g id="a_edge1_Node000001_Node000002"><a xlink:title=" ">
<path fill="none" stroke="#63b8ff" d="M149.14,-74.95C157.22,-76.07 165.51,-77.22 173.76,-78.36"/>
<polygon fill="#63b8ff" stroke="#63b8ff" points="173.17,-81.95 183.55,-79.85 174.13,-75.01 173.17,-81.95"/>
</a>
</g>
</g>
<!-- Node9 -->
<g id="Node000009" class="node">
<title>Node9</title>
<g id="a_Node000009"><a xlink:href="classsisi4s_1_1Algorithm.html#ae7d025ea18b3f0b91db42447c0617540" target="_top" xlink:title=" ">
<polygon fill="white" stroke="#666666" points="516.38,-33.5 402.88,-33.5 402.88,0 516.38,0 516.38,-33.5"/>
<text text-anchor="start" x="410.88" y="-20" font-family="Helvetica,sans-Serif" font-size="10.00">sisi4s::Algorithm::</text>
<text text-anchor="middle" x="459.62" y="-7.25" font-family="Helvetica,sans-Serif" font-size="10.00">setIntegerArgument</text>
</a>
</g>
</g>
<!-- Node1&#45;&gt;Node9 -->
<g id="edge9_Node000001_Node000009" class="edge">
<title>Node1&#45;&gt;Node9</title>
<g id="a_edge9_Node000001_Node000009"><a xlink:title=" ">
<path fill="none" stroke="#63b8ff" d="M148.82,-55.55C219.07,-46.75 324.08,-33.6 391.97,-25.1"/>
<polygon fill="#63b8ff" stroke="#63b8ff" points="392.05,-28.49 401.54,-23.77 391.18,-21.54 392.05,-28.49"/>
</a>
</g>
</g>
<!-- Node3 -->
<g id="Node000003" class="node">
<title>Node3</title>
<g id="a_Node000003"><a xlink:href="classsisi4s_1_1Algorithm.html#a1e53277220d32a33e20846267c253652" target="_top" xlink:title=" ">
<polygon fill="white" stroke="#666666" points="706.75,-85.5 603,-85.5 603,-52 706.75,-52 706.75,-85.5"/>
<text text-anchor="start" x="611" y="-72" font-family="Helvetica,sans-Serif" font-size="10.00">sisi4s::Algorithm::</text>
<text text-anchor="middle" x="654.88" y="-59.25" font-family="Helvetica,sans-Serif" font-size="10.00">getArgumentData</text>
</a>
</g>
</g>
<!-- Node2&#45;&gt;Node3 -->
<g id="edge2_Node000002_Node000003" class="edge">
<title>Node2&#45;&gt;Node3</title>
<g id="a_edge2_Node000002_Node000003"><a xlink:title=" ">
<path fill="none" stroke="#63b8ff" d="M344.43,-97.15C399.27,-100.31 473.92,-102.07 539.25,-94.75 556.63,-92.8 575.22,-89.25 592.27,-85.37"/>
<polygon fill="#63b8ff" stroke="#63b8ff" points="592.72,-88.63 601.65,-82.93 591.12,-81.81 592.72,-88.63"/>
</a>
</g>
</g>
<!-- Node5 -->
<g id="Node000005" class="node">
<title>Node5</title>
<g id="a_Node000005"><a xlink:href="classsisi4s_1_1ClusterSinglesDoublesAlgorithm.html#ac4e86100aee3802ce4a75a737eff7ec0" target="_top" xlink:title=" ">
<polygon fill="white" stroke="#666666" points="539.25,-175.5 380,-175.5 380,-142 539.25,-142 539.25,-175.5"/>
<text text-anchor="start" x="388" y="-162" font-family="Helvetica,sans-Serif" font-size="10.00">sisi4s::ClusterSinglesDoubles</text>
<text text-anchor="middle" x="459.62" y="-149.25" font-family="Helvetica,sans-Serif" font-size="10.00">Algorithm::getDataName</text>
</a>
</g>
</g>
<!-- Node2&#45;&gt;Node5 -->
<g id="edge4_Node000002_Node000005" class="edge">
<title>Node2&#45;&gt;Node5</title>
<g id="a_edge4_Node000002_Node000005"><a xlink:title=" ">
<path fill="none" stroke="#63b8ff" d="M314.39,-108C340.27,-117.1 372.22,-128.35 399.47,-137.94"/>
<polygon fill="#63b8ff" stroke="#63b8ff" points="398.07,-141.5 408.66,-141.52 400.39,-134.9 398.07,-141.5"/>
</a>
</g>
</g>
<!-- Node7 -->
<g id="Node000007" class="node">
<title>Node7</title>
<g id="a_Node000007"><a xlink:href="classsisi4s_1_1Algorithm.html#af6f931ab83742cc23b4f4350d54a3fcd" target="_top" xlink:title=" ">
<polygon fill="white" stroke="#666666" points="511.5,-85.5 407.75,-85.5 407.75,-52 511.5,-52 511.5,-85.5"/>
<text text-anchor="start" x="415.75" y="-72" font-family="Helvetica,sans-Serif" font-size="10.00">sisi4s::Algorithm::</text>
<text text-anchor="middle" x="459.62" y="-59.25" font-family="Helvetica,sans-Serif" font-size="10.00">setRealArgument</text>
</a>
</g>
</g>
<!-- Node2&#45;&gt;Node7 -->
<g id="edge6_Node000002_Node000007" class="edge">
<title>Node2&#45;&gt;Node7</title>
<g id="a_edge6_Node000002_Node000007"><a xlink:title=" ">
<path fill="none" stroke="#63b8ff" d="M344.26,-81.77C361.72,-79.78 379.99,-77.7 396.66,-75.8"/>
<polygon fill="#63b8ff" stroke="#63b8ff" points="396.83,-79.19 406.37,-74.58 396.04,-72.24 396.83,-79.19"/>
</a>
</g>
</g>
<!-- Node4 -->
<g id="Node000004" class="node">
<title>Node4</title>
<g id="a_Node000004"><a xlink:href="classsisi4s_1_1Data.html#a5b4676e48b4f437d399587e6903f896a" target="_top" xlink:title=" ">
<polygon fill="white" stroke="#666666" points="865.25,-79.12 770.5,-79.12 770.5,-58.38 865.25,-58.38 865.25,-79.12"/>
<text text-anchor="middle" x="817.88" y="-65.62" font-family="Helvetica,sans-Serif" font-size="10.00">sisi4s::Data::get</text>
</a>
</g>
</g>
<!-- Node3&#45;&gt;Node4 -->
<g id="edge3_Node000003_Node000004" class="edge">
<title>Node3&#45;&gt;Node4</title>
<g id="a_edge3_Node000003_Node000004"><a xlink:title=" ">
<path fill="none" stroke="#63b8ff" d="M706.82,-68.75C723.44,-68.75 742.02,-68.75 759.11,-68.75"/>
<polygon fill="#63b8ff" stroke="#63b8ff" points="759.09,-72.25 769.09,-68.75 759.09,-65.25 759.09,-72.25"/>
</a>
</g>
</g>
<!-- Node6 -->
<g id="Node000006" class="node">
<title>Node6</title>
<g id="a_Node000006"><a xlink:href="classsisi4s_1_1ClusterSinglesDoublesAlgorithm.html#ab3f7208a643558d8c36324038e0d3130" target="_top" xlink:title="Returns the abbreviation of the concrete algorithm, e.g. &quot;Ccd&quot;, &quot;Dcd&quot;.">
<polygon fill="white" stroke="#666666" points="734.5,-175.5 575.25,-175.5 575.25,-142 734.5,-142 734.5,-175.5"/>
<text text-anchor="start" x="583.25" y="-162" font-family="Helvetica,sans-Serif" font-size="10.00">sisi4s::ClusterSinglesDoubles</text>
<text text-anchor="middle" x="654.88" y="-149.25" font-family="Helvetica,sans-Serif" font-size="10.00">Algorithm::getAbbreviation</text>
</a>
</g>
</g>
<!-- Node5&#45;&gt;Node6 -->
<g id="edge5_Node000005_Node000006" class="edge">
<title>Node5&#45;&gt;Node6</title>
<g id="a_edge5_Node000005_Node000006"><a xlink:title=" ">
<path fill="none" stroke="#63b8ff" d="M539.51,-158.75C547.63,-158.75 555.93,-158.75 564.17,-158.75"/>
<polygon fill="#63b8ff" stroke="#63b8ff" points="563.93,-162.25 573.93,-158.75 563.93,-155.25 563.93,-162.25"/>
</a>
</g>
</g>
<!-- Node7&#45;&gt;Node3 -->
<g id="edge7_Node000007_Node000003" class="edge">
<title>Node7&#45;&gt;Node3</title>
<g id="a_edge7_Node000007_Node000003"><a xlink:title=" ">
<path fill="none" stroke="#63b8ff" d="M511.91,-68.75C536.46,-68.75 566.08,-68.75 591.89,-68.75"/>
<polygon fill="#63b8ff" stroke="#63b8ff" points="591.69,-72.25 601.69,-68.75 591.69,-65.25 591.69,-72.25"/>
</a>
</g>
</g>
<!-- Node8 -->
<g id="Node000008" class="node">
<title>Node8</title>
<g id="a_Node000008"><a xlink:href="classsisi4s_1_1Data.html#a10819dce08cb4dd8d881b9fe02036d69" target="_top" xlink:title=" ">
<polygon fill="white" stroke="#666666" points="716.88,-31.12 592.88,-31.12 592.88,-10.38 716.88,-10.38 716.88,-31.12"/>
<text text-anchor="middle" x="654.88" y="-17.62" font-family="Helvetica,sans-Serif" font-size="10.00">sisi4s::Data::getName</text>
</a>
</g>
</g>
<!-- Node7&#45;&gt;Node8 -->
<g id="edge8_Node000007_Node000008" class="edge">
<title>Node7&#45;&gt;Node8</title>
<g id="a_edge8_Node000007_Node000008"><a xlink:title=" ">
<path fill="none" stroke="#63b8ff" d="M511.91,-56.01C538.95,-49.29 572.13,-41.05 599.61,-34.23"/>
<polygon fill="#63b8ff" stroke="#63b8ff" points="600.36,-37.4 609.23,-31.59 598.68,-30.61 600.36,-37.4"/>
</a>
</g>
</g>
<!-- Node9&#45;&gt;Node3 -->
<g id="edge10_Node000009_Node000003" class="edge">
<title>Node9&#45;&gt;Node3</title>
<g id="a_edge10_Node000009_Node000003"><a xlink:title=" ">
<path fill="none" stroke="#63b8ff" d="M516.78,-31.86C540.37,-38.21 567.89,-45.61 592.05,-52.11"/>
<polygon fill="#63b8ff" stroke="#63b8ff" points="590.97,-55.72 601.54,-54.94 592.79,-48.96 590.97,-55.72"/>
</a>
</g>
</g>
<!-- Node9&#45;&gt;Node8 -->
<g id="edge11_Node000009_Node000008" class="edge">
<title>Node9&#45;&gt;Node8</title>
<g id="a_edge11_Node000009_Node000008"><a xlink:title=" ">
<path fill="none" stroke="#63b8ff" d="M516.78,-17.91C537.09,-18.33 560.3,-18.81 581.79,-19.26"/>
<polygon fill="#63b8ff" stroke="#63b8ff" points="581.43,-22.77 591.5,-19.48 581.58,-15.77 581.43,-22.77"/>
</a>
</g>
</g>
</g>
</svg>
