<?xml version="1.0" encoding="UTF-8" standalone="no"?>
<!DOCTYPE svg PUBLIC "-//W3C//DTD SVG 1.1//EN"
 "http://www.w3.org/Graphics/SVG/1.1/DTD/svg11.dtd">
<!-- Generated by graphviz version 7.0.0 (0)
 -->
<!-- Title: CLI::Option::get_type_size_min Pages: 1 -->
<svg width="399pt" height="38pt"
 viewBox="0.00 0.00 399.00 38.00" xmlns="http://www.w3.org/2000/svg" xmlns:xlink="http://www.w3.org/1999/xlink">
<g id="graph0" class="graph" transform="scale(1 1) rotate(0) translate(4 34)">
<title>CLI::Option::get_type_size_min</title>
<!-- Node1 -->
<g id="node1" class="node">
<title>Node1</title>
<g id="a_node1"><a xlink:title="The minimum number of arguments the option expects.">
<polygon fill="#999999" stroke="#666666" points="391,-30 272,-30 272,0 391,0 391,-30"/>
<text text-anchor="start" x="280" y="-18" font-family="Helvetica,sans-Serif" font-size="10.00">CLI::Option::get_type</text>
<text text-anchor="middle" x="331.5" y="-7" font-family="Helvetica,sans-Serif" font-size="10.00">_size_min</text>
</a>
</g>
</g>
<!-- Node2 -->
<g id="node2" class="node">
<title>Node2</title>
<g id="a_node2"><a xlink:href="namespaceCLI.html#a36cfe4a6a80bf143735c0b80960bc252" target="_top" xlink:title="Helper function to mark an option as retired.">
<polygon fill="white" stroke="#666666" points="236,-24.5 136,-24.5 136,-5.5 236,-5.5 236,-24.5"/>
<text text-anchor="middle" x="186" y="-12.5" font-family="Helvetica,sans-Serif" font-size="10.00">CLI::retire_option</text>
</a>
</g>
</g>
<!-- Node1&#45;&gt;Node2 -->
<g id="edge1" class="edge">
<title>Node1&#45;&gt;Node2</title>
<path fill="none" stroke="#63b8ff" d="M260.31,-15C252.2,-15 244.05,-15 236.3,-15"/>
<polygon fill="#63b8ff" stroke="#63b8ff" points="260.21,-18.5 270.21,-15 260.21,-11.5 260.21,-18.5"/>
</g>
<!-- Node3 -->
<g id="node3" class="node">
<title>Node3</title>
<g id="a_node3"><a xlink:href="namespaceCLI.html#a52390f850f663cf38a27e134c1a39b61" target="_top" xlink:title="Helper function to mark an option as retired.">
<polygon fill="white" stroke="#666666" points="100,-24.5 0,-24.5 0,-5.5 100,-5.5 100,-24.5"/>
<text text-anchor="middle" x="50" y="-12.5" font-family="Helvetica,sans-Serif" font-size="10.00">CLI::retire_option</text>
</a>
</g>
</g>
<!-- Node2&#45;&gt;Node3 -->
<g id="edge2" class="edge">
<title>Node2&#45;&gt;Node3</title>
<path fill="none" stroke="#63b8ff" d="M124.48,-15C116.33,-15 108.05,-15 100.13,-15"/>
<polygon fill="#63b8ff" stroke="#63b8ff" points="124.35,-18.5 134.35,-15 124.35,-11.5 124.35,-18.5"/>
</g>
</g>
</svg>
