<?xml version="1.0" encoding="UTF-8" standalone="no"?>
<!DOCTYPE svg PUBLIC "-//W3C//DTD SVG 1.1//EN"
 "http://www.w3.org/Graphics/SVG/1.1/DTD/svg11.dtd">
<!-- Generated by graphviz version 7.0.0 (0)
 -->
<!-- Title: sisi4s::ClusterSinglesDoublesAlgorithm::run Pages: 1 -->
<svg width="968pt" height="446pt"
 viewBox="0.00 0.00 968.00 446.10" xmlns="http://www.w3.org/2000/svg" xmlns:xlink="http://www.w3.org/1999/xlink">
<g id="graph0" class="graph" transform="scale(1 1) rotate(0) translate(4 442.1)">
<title>sisi4s::ClusterSinglesDoublesAlgorithm::run</title>
<!-- Node1 -->
<g id="node1" class="node">
<title>Node1</title>
<g id="a_node1"><a xlink:title=" ">
<polygon fill="#999999" stroke="#666666" points="160,-200.6 0,-200.6 0,-170.6 160,-170.6 160,-200.6"/>
<text text-anchor="start" x="8" y="-188.6" font-family="Helvetica,sans-Serif" font-size="10.00">sisi4s::ClusterSinglesDoubles</text>
<text text-anchor="middle" x="80" y="-177.6" font-family="Helvetica,sans-Serif" font-size="10.00">Algorithm::run</text>
</a>
</g>
</g>
<!-- Node2 -->
<g id="node2" class="node">
<title>Node2</title>
<g id="a_node2"><a xlink:href="classsisi4s_1_1ClusterSinglesDoublesAlgorithm.html#a8327421acb8285d0fc20f9605cfa5937" target="_top" xlink:title="Calculates an improved estimate of the amplitudes provided the given the residuum....">
<polygon fill="white" stroke="#666666" points="390,-374.1 196,-374.1 196,-333.1 390,-333.1 390,-374.1"/>
<text text-anchor="start" x="204" y="-362.1" font-family="Helvetica,sans-Serif" font-size="10.00">sisi4s::ClusterSinglesDoubles</text>
<text text-anchor="start" x="204" y="-351.1" font-family="Helvetica,sans-Serif" font-size="10.00">Algorithm::estimateAmplitudesFrom</text>
<text text-anchor="middle" x="293" y="-340.1" font-family="Helvetica,sans-Serif" font-size="10.00">Residuum</text>
</a>
</g>
</g>
<!-- Node1&#45;&gt;Node2 -->
<g id="edge1" class="edge">
<title>Node1&#45;&gt;Node2</title>
<path fill="none" stroke="#63b8ff" d="M90.47,-201C108.03,-228.36 148.26,-285.67 196,-318.6 200.76,-321.88 205.87,-324.9 211.15,-327.66"/>
<polygon fill="#63b8ff" stroke="#63b8ff" points="209.6,-330.8 220.13,-332 212.65,-324.5 209.6,-330.8"/>
</g>
<!-- Node7 -->
<g id="node7" class="node">
<title>Node7</title>
<g id="a_node7"><a xlink:href="classsisi4s_1_1Algorithm.html#a36c632fbb19dae4ce2f415705fa5cbcb" target="_top" xlink:title=" ">
<polygon fill="white" stroke="#666666" points="581,-334.6 477,-334.6 477,-304.6 581,-304.6 581,-334.6"/>
<text text-anchor="start" x="485" y="-322.6" font-family="Helvetica,sans-Serif" font-size="10.00">sisi4s::Algorithm::</text>
<text text-anchor="middle" x="529" y="-311.6" font-family="Helvetica,sans-Serif" font-size="10.00">getRealArgument</text>
</a>
</g>
</g>
<!-- Node1&#45;&gt;Node7 -->
<g id="edge23" class="edge">
<title>Node1&#45;&gt;Node7</title>
<path fill="none" stroke="#63b8ff" d="M99.23,-200.87C120.88,-218.17 158.77,-245.86 196,-260.6 285.53,-296.04 397.07,-310.29 465.38,-315.96"/>
<polygon fill="#63b8ff" stroke="#63b8ff" points="465.03,-319.44 475.28,-316.74 465.58,-312.46 465.03,-319.44"/>
</g>
<!-- Node13 -->
<g id="node13" class="node">
<title>Node13</title>
<g id="a_node13"><a xlink:href="classsisi4s_1_1ClusterSinglesDoublesAlgorithm.html#a110026d41b3740bb8bdbad146ccfd785" target="_top" xlink:title="The abbreviation of the algorithm in capital letters.">
<polygon fill="white" stroke="#666666" points="630.5,-104.6 427.5,-104.6 427.5,-74.6 630.5,-74.6 630.5,-104.6"/>
<text text-anchor="start" x="435.5" y="-92.6" font-family="Helvetica,sans-Serif" font-size="10.00">sisi4s::ClusterSinglesDoubles</text>
<text text-anchor="middle" x="529" y="-81.6" font-family="Helvetica,sans-Serif" font-size="10.00">Algorithm::getCapitalizedAbbreviation</text>
</a>
</g>
</g>
<!-- Node1&#45;&gt;Node13 -->
<g id="edge13" class="edge">
<title>Node1&#45;&gt;Node13</title>
<path fill="none" stroke="#63b8ff" d="M86.62,-170.14C99.72,-136.71 135.83,-58.23 196,-27.6 272.84,11.51 310.79,6.47 390,-27.6 411.37,-36.79 405.83,-54.01 426,-65.6 428.48,-67.03 431.05,-68.37 433.67,-69.63"/>
<polygon fill="#63b8ff" stroke="#63b8ff" points="432.11,-72.77 442.67,-73.52 434.88,-66.34 432.11,-72.77"/>
</g>
<!-- Node15 -->
<g id="node15" class="node">
<title>Node15</title>
<g id="a_node15"><a xlink:href="classsisi4s_1_1ClusterSinglesDoublesAlgorithm.html#a9dceabd979aefa0f1e012c4e62e60847" target="_top" xlink:title="Computes and returns the energy of the given amplitudes.">
<polygon fill="white" stroke="#666666" points="373,-200.6 213,-200.6 213,-170.6 373,-170.6 373,-200.6"/>
<text text-anchor="start" x="221" y="-188.6" font-family="Helvetica,sans-Serif" font-size="10.00">sisi4s::ClusterSinglesDoubles</text>
<text text-anchor="middle" x="293" y="-177.6" font-family="Helvetica,sans-Serif" font-size="10.00">Algorithm::getEnergy</text>
</a>
</g>
</g>
<!-- Node1&#45;&gt;Node15 -->
<g id="edge15" class="edge">
<title>Node1&#45;&gt;Node15</title>
<path fill="none" stroke="#63b8ff" d="M160.47,-185.6C173.79,-185.6 187.71,-185.6 201.29,-185.6"/>
<polygon fill="#63b8ff" stroke="#63b8ff" points="201.09,-189.1 211.09,-185.6 201.09,-182.1 201.09,-189.1"/>
</g>
<!-- Node16 -->
<g id="node16" class="node">
<title>Node16</title>
<g id="a_node16"><a xlink:href="classsisi4s_1_1Algorithm.html#a5db14be3b0d33bf80218a37223e27667" target="_top" xlink:title=" ">
<polygon fill="white" stroke="#666666" points="586.5,-238.6 471.5,-238.6 471.5,-208.6 586.5,-208.6 586.5,-238.6"/>
<text text-anchor="start" x="479.5" y="-226.6" font-family="Helvetica,sans-Serif" font-size="10.00">sisi4s::Algorithm::</text>
<text text-anchor="middle" x="529" y="-215.6" font-family="Helvetica,sans-Serif" font-size="10.00">getIntegerArgument</text>
</a>
</g>
</g>
<!-- Node1&#45;&gt;Node16 -->
<g id="edge22" class="edge">
<title>Node1&#45;&gt;Node16</title>
<path fill="none" stroke="#63b8ff" d="M145.76,-201.05C162.07,-204.41 179.61,-207.56 196,-209.6 286.78,-220.91 392.49,-223.58 459.79,-223.97"/>
<polygon fill="#63b8ff" stroke="#63b8ff" points="459.55,-227.47 469.56,-224.02 459.58,-220.47 459.55,-227.47"/>
</g>
<!-- Node17 -->
<g id="node17" class="node">
<title>Node17</title>
<g id="a_node17"><a xlink:href="classsisi4s_1_1Algorithm.html#aec9041b31cb64a42ee1fd79d32774266" target="_top" xlink:title=" ">
<polygon fill="white" stroke="#666666" points="581,-152.6 477,-152.6 477,-122.6 581,-122.6 581,-152.6"/>
<text text-anchor="start" x="485" y="-140.6" font-family="Helvetica,sans-Serif" font-size="10.00">sisi4s::Algorithm::</text>
<text text-anchor="middle" x="529" y="-129.6" font-family="Helvetica,sans-Serif" font-size="10.00">isArgumentGiven</text>
</a>
</g>
</g>
<!-- Node1&#45;&gt;Node17 -->
<g id="edge28" class="edge">
<title>Node1&#45;&gt;Node17</title>
<path fill="none" stroke="#63b8ff" d="M147.63,-170.12C163.41,-166.89 180.24,-163.8 196,-161.6 289.33,-148.55 398.47,-142.39 465.41,-139.63"/>
<polygon fill="#63b8ff" stroke="#63b8ff" points="465.22,-143.14 475.08,-139.25 464.95,-136.15 465.22,-143.14"/>
</g>
<!-- Node18 -->
<g id="node18" class="node">
<title>Node18</title>
<g id="a_node18"><a xlink:href="classsisi4s_1_1ClusterSinglesDoublesAlgorithm.html#a2d9bf8bbaba99dce4acf5b3413f843eb" target="_top" xlink:title="Computes and returns the residuum of the given amplitudes.">
<polygon fill="white" stroke="#666666" points="373,-114.6 213,-114.6 213,-84.6 373,-84.6 373,-114.6"/>
<text text-anchor="start" x="221" y="-102.6" font-family="Helvetica,sans-Serif" font-size="10.00">sisi4s::ClusterSinglesDoubles</text>
<text text-anchor="middle" x="293" y="-91.6" font-family="Helvetica,sans-Serif" font-size="10.00">Algorithm::getResiduum</text>
</a>
</g>
</g>
<!-- Node1&#45;&gt;Node18 -->
<g id="edge24" class="edge">
<title>Node1&#45;&gt;Node18</title>
<path fill="none" stroke="#63b8ff" d="M108.76,-170.2C131.69,-157.89 165.33,-140.73 196,-128.6 205.06,-125.02 214.74,-121.61 224.34,-118.49"/>
<polygon fill="#63b8ff" stroke="#63b8ff" points="225.2,-121.89 233.67,-115.53 223.08,-115.21 225.2,-121.89"/>
</g>
<!-- Node19 -->
<g id="node19" class="node">
<title>Node19</title>
<g id="a_node19"><a xlink:href="classsisi4s_1_1Algorithm.html#a5e80a507fac066ab5714b62364cabaaf" target="_top" xlink:title=" ">
<polygon fill="white" stroke="#666666" points="581,-286.6 477,-286.6 477,-256.6 581,-256.6 581,-286.6"/>
<text text-anchor="start" x="485" y="-274.6" font-family="Helvetica,sans-Serif" font-size="10.00">sisi4s::Algorithm::</text>
<text text-anchor="middle" x="529" y="-263.6" font-family="Helvetica,sans-Serif" font-size="10.00">getTextArgument</text>
</a>
</g>
</g>
<!-- Node1&#45;&gt;Node19 -->
<g id="edge25" class="edge">
<title>Node1&#45;&gt;Node19</title>
<path fill="none" stroke="#63b8ff" d="M113.99,-201.06C136.59,-211.01 167.53,-223.39 196,-230.6 288.07,-253.91 398,-264.17 465.39,-268.54"/>
<polygon fill="#63b8ff" stroke="#63b8ff" points="464.94,-272.02 475.14,-269.15 465.37,-265.03 464.94,-272.02"/>
</g>
<!-- Node20 -->
<g id="node20" class="node">
<title>Node20</title>
<g id="a_node20"><a xlink:href="classsisi4s_1_1ClusterSinglesDoublesAlgorithm.html#a8c410f8d8c866f724b0df1be1654eafc" target="_top" xlink:title=" ">
<polygon fill="white" stroke="#666666" points="373,-66.6 213,-66.6 213,-36.6 373,-36.6 373,-66.6"/>
<text text-anchor="start" x="221" y="-54.6" font-family="Helvetica,sans-Serif" font-size="10.00">sisi4s::ClusterSinglesDoubles</text>
<text text-anchor="middle" x="293" y="-43.6" font-family="Helvetica,sans-Serif" font-size="10.00">Algorithm::storeAmplitudes</text>
</a>
</g>
</g>
<!-- Node1&#45;&gt;Node20 -->
<g id="edge29" class="edge">
<title>Node1&#45;&gt;Node20</title>
<path fill="none" stroke="#63b8ff" d="M92.61,-170.22C111.55,-146.24 151.49,-100.15 196,-75.6 198.82,-74.04 201.74,-72.59 204.74,-71.22"/>
<polygon fill="#63b8ff" stroke="#63b8ff" points="205.84,-74.56 213.75,-67.51 203.17,-68.08 205.84,-74.56"/>
</g>
<!-- Node3 -->
<g id="node3" class="node">
<title>Node3</title>
<g id="a_node3"><a xlink:href="classsisi4s_1_1ClusterSinglesDoublesAlgorithm.html#ae4959c22cc14927799d18483a690b71f" target="_top" xlink:title="Calculates eps_a+eps_b+...&#45;eps_i&#45;eps_j&#45;... into D^ab..._ij...">
<polygon fill="white" stroke="#666666" points="632,-382.6 426,-382.6 426,-352.6 632,-352.6 632,-382.6"/>
<text text-anchor="start" x="434" y="-370.6" font-family="Helvetica,sans-Serif" font-size="10.00">sisi4s::ClusterSinglesDoubles</text>
<text text-anchor="middle" x="529" y="-359.6" font-family="Helvetica,sans-Serif" font-size="10.00">Algorithm::calculateExcitationEnergies</text>
</a>
</g>
</g>
<!-- Node2&#45;&gt;Node3 -->
<g id="edge2" class="edge">
<title>Node2&#45;&gt;Node3</title>
<path fill="none" stroke="#63b8ff" d="M390.19,-359.36C398.16,-359.83 406.26,-360.32 414.34,-360.8"/>
<polygon fill="#63b8ff" stroke="#63b8ff" points="414.03,-364.29 424.22,-361.39 414.45,-357.3 414.03,-364.29"/>
</g>
<!-- Node5 -->
<g id="node5" class="node">
<title>Node5</title>
<g id="a_node5"><a xlink:href="classsisi4s_1_1FockVector.html#aebf4e090f20a7bb83c434396b274c89c" target="_top" xlink:title="Retrieves the i&#45;th component tensor. Note that the Tensor is not const since rearrangement may be req...">
<polygon fill="white" stroke="#666666" points="591.5,-190.1 466.5,-190.1 466.5,-171.1 591.5,-171.1 591.5,-190.1"/>
<text text-anchor="middle" x="529" y="-178.1" font-family="Helvetica,sans-Serif" font-size="10.00">sisi4s::FockVector::get</text>
</a>
</g>
</g>
<!-- Node2&#45;&gt;Node5 -->
<g id="edge5" class="edge">
<title>Node2&#45;&gt;Node5</title>
<path fill="none" stroke="#63b8ff" d="M305.48,-332.69C325.29,-298.79 369.26,-232.32 426,-199.6 434.88,-194.48 444.85,-190.69 455,-187.91"/>
<polygon fill="#63b8ff" stroke="#63b8ff" points="455.64,-191.35 464.55,-185.61 454.01,-184.54 455.64,-191.35"/>
</g>
<!-- Node6 -->
<g id="node6" class="node">
<title>Node6</title>
<g id="a_node6"><a xlink:href="classsisi4s_1_1FockVector.html#a12f7974afa01def06d0fff6b08c06756" target="_top" xlink:title="Retrieves the i&#45;th component indices.">
<polygon fill="white" stroke="#666666" points="581,-430.6 477,-430.6 477,-400.6 581,-400.6 581,-430.6"/>
<text text-anchor="start" x="485" y="-418.6" font-family="Helvetica,sans-Serif" font-size="10.00">sisi4s::FockVector</text>
<text text-anchor="middle" x="529" y="-407.6" font-family="Helvetica,sans-Serif" font-size="10.00">::getIndices</text>
</a>
</g>
</g>
<!-- Node2&#45;&gt;Node6 -->
<g id="edge6" class="edge">
<title>Node2&#45;&gt;Node6</title>
<path fill="none" stroke="#63b8ff" d="M364.38,-374.56C384.25,-380.28 405.93,-386.35 426,-391.6 438.79,-394.94 452.53,-398.32 465.66,-401.45"/>
<polygon fill="#63b8ff" stroke="#63b8ff" points="464.5,-404.77 475.04,-403.66 466.11,-397.96 464.5,-404.77"/>
</g>
<!-- Node2&#45;&gt;Node7 -->
<g id="edge7" class="edge">
<title>Node2&#45;&gt;Node7</title>
<path fill="none" stroke="#63b8ff" d="M390.19,-339.62C415.53,-335.94 442.22,-332.06 465.29,-328.71"/>
<polygon fill="#63b8ff" stroke="#63b8ff" points="465.76,-332.18 475.15,-327.28 464.75,-325.25 465.76,-332.18"/>
</g>
<!-- Node4 -->
<g id="node4" class="node">
<title>Node4</title>
<g id="a_node4"><a xlink:href="namespacesisi4s.html#a2653420c2b1b1224ad8f6b1d538228f1" target="_top" xlink:title="Composes a tensor of complex elements containing of the given tensors of real and imaginary parts....">
<polygon fill="white" stroke="#666666" points="816,-420.1 681,-420.1 681,-401.1 816,-401.1 816,-420.1"/>
<text text-anchor="middle" x="748.5" y="-408.1" font-family="Helvetica,sans-Serif" font-size="10.00">sisi4s::toComplexTensor</text>
</a>
</g>
</g>
<!-- Node3&#45;&gt;Node4 -->
<g id="edge3" class="edge">
<title>Node3&#45;&gt;Node4</title>
<path fill="none" stroke="#63b8ff" d="M608.22,-383.06C633.76,-388.11 661.76,-393.65 685.91,-398.42"/>
<polygon fill="#63b8ff" stroke="#63b8ff" points="685.09,-401.83 695.58,-400.34 686.45,-394.96 685.09,-401.83"/>
</g>
<!-- Node4&#45;&gt;Node4 -->
<g id="edge4" class="edge">
<title>Node4&#45;&gt;Node4</title>
<path fill="none" stroke="#63b8ff" d="M722.82,-420.47C711.11,-429.04 719.67,-438.1 748.5,-438.1 764.72,-438.1 774.52,-435.23 777.91,-431.2"/>
<polygon fill="#63b8ff" stroke="#63b8ff" points="781.26,-430.19 774.67,-421.9 774.65,-432.49 781.26,-430.19"/>
</g>
<!-- Node8 -->
<g id="node8" class="node">
<title>Node8</title>
<g id="a_node8"><a xlink:href="classsisi4s_1_1Algorithm.html#a1e53277220d32a33e20846267c253652" target="_top" xlink:title=" ">
<polygon fill="white" stroke="#666666" points="800.5,-286.6 696.5,-286.6 696.5,-256.6 800.5,-256.6 800.5,-286.6"/>
<text text-anchor="start" x="704.5" y="-274.6" font-family="Helvetica,sans-Serif" font-size="10.00">sisi4s::Algorithm::</text>
<text text-anchor="middle" x="748.5" y="-263.6" font-family="Helvetica,sans-Serif" font-size="10.00">getArgumentData</text>
</a>
</g>
</g>
<!-- Node7&#45;&gt;Node8 -->
<g id="edge8" class="edge">
<title>Node7&#45;&gt;Node8</title>
<path fill="none" stroke="#63b8ff" d="M581.27,-308.29C612.41,-301.41 652.38,-292.59 685.32,-285.32"/>
<polygon fill="#63b8ff" stroke="#63b8ff" points="685.71,-288.82 694.72,-283.25 684.2,-281.99 685.71,-288.82"/>
</g>
<!-- Node10 -->
<g id="node10" class="node">
<title>Node10</title>
<g id="a_node10"><a xlink:href="classsisi4s_1_1Algorithm.html#a1cb9a5e8f19cd8e6b70bb06738ca9413" target="_top" xlink:title=" ">
<polygon fill="white" stroke="#666666" points="829,-382.6 668,-382.6 668,-352.6 829,-352.6 829,-382.6"/>
<text text-anchor="start" x="676" y="-370.6" font-family="Helvetica,sans-Serif" font-size="10.00">sisi4s::Algorithm::</text>
<text text-anchor="middle" x="748.5" y="-359.6" font-family="Helvetica,sans-Serif" font-size="10.00">getRealArgumentFromInteger</text>
</a>
</g>
</g>
<!-- Node7&#45;&gt;Node10 -->
<g id="edge10" class="edge">
<title>Node7&#45;&gt;Node10</title>
<path fill="none" stroke="#63b8ff" d="M581.27,-330.91C606.66,-336.52 637.92,-343.42 666.45,-349.71"/>
<polygon fill="#63b8ff" stroke="#63b8ff" points="665.65,-353.12 676.17,-351.86 667.16,-346.28 665.65,-353.12"/>
</g>
<!-- Node11 -->
<g id="node11" class="node">
<title>Node11</title>
<g id="a_node11"><a xlink:href="classsisi4s_1_1Algorithm.html#a89e59623f1c238a871a4fba19371be7d" target="_top" xlink:title=" ">
<polygon fill="white" stroke="#666666" points="827.5,-334.6 669.5,-334.6 669.5,-304.6 827.5,-304.6 827.5,-334.6"/>
<text text-anchor="start" x="677.5" y="-322.6" font-family="Helvetica,sans-Serif" font-size="10.00">sisi4s::Algorithm::</text>
<text text-anchor="middle" x="748.5" y="-311.6" font-family="Helvetica,sans-Serif" font-size="10.00">getRealArgumentFromTensor</text>
</a>
</g>
</g>
<!-- Node7&#45;&gt;Node11 -->
<g id="edge11" class="edge">
<title>Node7&#45;&gt;Node11</title>
<path fill="none" stroke="#63b8ff" d="M581.27,-319.6C604.13,-319.6 631.76,-319.6 657.86,-319.6"/>
<polygon fill="#63b8ff" stroke="#63b8ff" points="657.82,-323.1 667.82,-319.6 657.82,-316.1 657.82,-323.1"/>
</g>
<!-- Node12 -->
<g id="node12" class="node">
<title>Node12</title>
<g id="a_node12"><a xlink:href="classsisi4s_1_1Data.html#a0ec0b1c7f2356fd43d82ee1dd0246789" target="_top" xlink:title=" ">
<polygon fill="white" stroke="#666666" points="822,-238.1 675,-238.1 675,-219.1 822,-219.1 822,-238.1"/>
<text text-anchor="middle" x="748.5" y="-226.1" font-family="Helvetica,sans-Serif" font-size="10.00">sisi4s::Data::getTypeName</text>
</a>
</g>
</g>
<!-- Node7&#45;&gt;Node12 -->
<g id="edge12" class="edge">
<title>Node7&#45;&gt;Node12</title>
<path fill="none" stroke="#63b8ff" d="M581.29,-314.66C598.45,-311.22 617,-305.41 632,-295.6 654.32,-281 645.71,-262.24 668,-247.6 670.53,-245.94 673.18,-244.43 675.93,-243.05"/>
<polygon fill="#63b8ff" stroke="#63b8ff" points="677.03,-246.38 684.81,-239.2 674.25,-239.96 677.03,-246.38"/>
</g>
<!-- Node9 -->
<g id="node9" class="node">
<title>Node9</title>
<g id="a_node9"><a xlink:href="classsisi4s_1_1Data.html#a5b4676e48b4f437d399587e6903f896a" target="_top" xlink:title=" ">
<polygon fill="white" stroke="#666666" points="960,-281.1 865,-281.1 865,-262.1 960,-262.1 960,-281.1"/>
<text text-anchor="middle" x="912.5" y="-269.1" font-family="Helvetica,sans-Serif" font-size="10.00">sisi4s::Data::get</text>
</a>
</g>
</g>
<!-- Node8&#45;&gt;Node9 -->
<g id="edge9" class="edge">
<title>Node8&#45;&gt;Node9</title>
<path fill="none" stroke="#63b8ff" d="M800.76,-271.6C817.56,-271.6 836.35,-271.6 853.61,-271.6"/>
<polygon fill="#63b8ff" stroke="#63b8ff" points="853.18,-275.1 863.18,-271.6 853.18,-268.1 853.18,-275.1"/>
</g>
<!-- Node14 -->
<g id="node14" class="node">
<title>Node14</title>
<g id="a_node14"><a xlink:href="classsisi4s_1_1ClusterSinglesDoublesAlgorithm.html#ab3f7208a643558d8c36324038e0d3130" target="_top" xlink:title="Returns the abbreviation of the concrete algorithm, e.g. &quot;Ccd&quot;, &quot;Dcd&quot;.">
<polygon fill="white" stroke="#666666" points="828.5,-80.6 668.5,-80.6 668.5,-50.6 828.5,-50.6 828.5,-80.6"/>
<text text-anchor="start" x="676.5" y="-68.6" font-family="Helvetica,sans-Serif" font-size="10.00">sisi4s::ClusterSinglesDoubles</text>
<text text-anchor="middle" x="748.5" y="-57.6" font-family="Helvetica,sans-Serif" font-size="10.00">Algorithm::getAbbreviation</text>
</a>
</g>
</g>
<!-- Node13&#45;&gt;Node14 -->
<g id="edge14" class="edge">
<title>Node13&#45;&gt;Node14</title>
<path fill="none" stroke="#63b8ff" d="M630.79,-78.48C639.52,-77.51 648.32,-76.54 656.96,-75.59"/>
<polygon fill="#63b8ff" stroke="#63b8ff" points="657.15,-79.09 666.71,-74.52 656.39,-72.13 657.15,-79.09"/>
</g>
<!-- Node15&#45;&gt;Node5 -->
<g id="edge16" class="edge">
<title>Node15&#45;&gt;Node5</title>
<path fill="none" stroke="#63b8ff" d="M373.22,-183.91C399.67,-183.34 429,-182.72 454.96,-182.16"/>
<polygon fill="#63b8ff" stroke="#63b8ff" points="454.81,-185.67 464.73,-181.95 454.66,-178.67 454.81,-185.67"/>
</g>
<!-- Node15&#45;&gt;Node13 -->
<g id="edge17" class="edge">
<title>Node15&#45;&gt;Node13</title>
<path fill="none" stroke="#63b8ff" d="M317.4,-170.31C343.09,-154.14 386.01,-128.89 426,-113.6 430.94,-111.71 436.08,-109.94 441.3,-108.29"/>
<polygon fill="#63b8ff" stroke="#63b8ff" points="442.08,-111.71 450.66,-105.49 440.08,-105 442.08,-111.71"/>
</g>
<!-- Node15&#45;&gt;Node16 -->
<g id="edge18" class="edge">
<title>Node15&#45;&gt;Node16</title>
<path fill="none" stroke="#63b8ff" d="M373.22,-198.47C401.3,-203.02 432.62,-208.11 459.71,-212.51"/>
<polygon fill="#63b8ff" stroke="#63b8ff" points="459.11,-215.96 469.54,-214.11 460.23,-209.05 459.11,-215.96"/>
</g>
<!-- Node15&#45;&gt;Node17 -->
<g id="edge21" class="edge">
<title>Node15&#45;&gt;Node17</title>
<path fill="none" stroke="#63b8ff" d="M369.33,-170.15C400.48,-163.76 436.18,-156.44 465.81,-150.36"/>
<polygon fill="#63b8ff" stroke="#63b8ff" points="466.27,-153.83 475.37,-148.4 464.87,-146.98 466.27,-153.83"/>
</g>
<!-- Node16&#45;&gt;Node8 -->
<g id="edge19" class="edge">
<title>Node16&#45;&gt;Node8</title>
<path fill="none" stroke="#63b8ff" d="M586.86,-236.15C617.02,-242.8 654.12,-250.99 685.07,-257.82"/>
<polygon fill="#63b8ff" stroke="#63b8ff" points="684.18,-261.21 694.7,-259.95 685.68,-254.37 684.18,-261.21"/>
</g>
<!-- Node16&#45;&gt;Node12 -->
<g id="edge20" class="edge">
<title>Node16&#45;&gt;Node12</title>
<path fill="none" stroke="#63b8ff" d="M586.86,-224.91C610.21,-225.44 637.74,-226.08 663.34,-226.67"/>
<polygon fill="#63b8ff" stroke="#63b8ff" points="662.97,-230.16 673.05,-226.89 663.13,-223.16 662.97,-230.16"/>
</g>
<!-- Node19&#45;&gt;Node8 -->
<g id="edge26" class="edge">
<title>Node19&#45;&gt;Node8</title>
<path fill="none" stroke="#63b8ff" d="M581.27,-271.6C612.28,-271.6 652.03,-271.6 684.89,-271.6"/>
<polygon fill="#63b8ff" stroke="#63b8ff" points="684.69,-275.1 694.69,-271.6 684.69,-268.1 684.69,-275.1"/>
</g>
<!-- Node19&#45;&gt;Node12 -->
<g id="edge27" class="edge">
<title>Node19&#45;&gt;Node12</title>
<path fill="none" stroke="#63b8ff" d="M581.27,-261.46C612.64,-255.26 652.96,-247.29 686.03,-240.75"/>
<polygon fill="#63b8ff" stroke="#63b8ff" points="686.33,-244.26 695.47,-238.89 684.98,-237.39 686.33,-244.26"/>
</g>
<!-- Node20&#45;&gt;Node5 -->
<g id="edge30" class="edge">
<title>Node20&#45;&gt;Node5</title>
<path fill="none" stroke="#63b8ff" d="M373.04,-64.69C379.16,-67.64 384.92,-71.23 390,-75.6 421.43,-102.6 393.76,-135.57 426,-161.6 434.43,-168.4 444.52,-173.06 455.03,-176.2"/>
<polygon fill="#63b8ff" stroke="#63b8ff" points="454.07,-179.57 464.62,-178.59 455.76,-172.77 454.07,-179.57"/>
</g>
<!-- Node20&#45;&gt;Node17 -->
<g id="edge33" class="edge">
<title>Node20&#45;&gt;Node17</title>
<path fill="none" stroke="#63b8ff" d="M372.02,-67.01C378.28,-69.46 384.36,-72.31 390,-75.6 410.09,-87.33 405.83,-102.01 426,-113.6 438.07,-120.54 452.04,-125.48 465.7,-128.98"/>
<polygon fill="#63b8ff" stroke="#63b8ff" points="464.53,-132.31 475.06,-131.16 466.12,-125.49 464.53,-132.31"/>
</g>
<!-- Node21 -->
<g id="node21" class="node">
<title>Node21</title>
<g id="a_node21"><a xlink:href="classsisi4s_1_1ClusterSinglesDoublesAlgorithm.html#ac4e86100aee3802ce4a75a737eff7ec0" target="_top" xlink:title=" ">
<polygon fill="white" stroke="#666666" points="609,-56.6 449,-56.6 449,-26.6 609,-26.6 609,-56.6"/>
<text text-anchor="start" x="457" y="-44.6" font-family="Helvetica,sans-Serif" font-size="10.00">sisi4s::ClusterSinglesDoubles</text>
<text text-anchor="middle" x="529" y="-33.6" font-family="Helvetica,sans-Serif" font-size="10.00">Algorithm::getDataName</text>
</a>
</g>
</g>
<!-- Node20&#45;&gt;Node21 -->
<g id="edge31" class="edge">
<title>Node20&#45;&gt;Node21</title>
<path fill="none" stroke="#63b8ff" d="M373.22,-48.21C393.9,-47.33 416.34,-46.37 437.56,-45.47"/>
<polygon fill="#63b8ff" stroke="#63b8ff" points="437.51,-48.97 447.35,-45.05 437.21,-41.98 437.51,-48.97"/>
</g>
<!-- Node21&#45;&gt;Node14 -->
<g id="edge32" class="edge">
<title>Node21&#45;&gt;Node14</title>
<path fill="none" stroke="#63b8ff" d="M609.45,-50.37C624.87,-52.07 641.15,-53.87 656.91,-55.6"/>
<polygon fill="#63b8ff" stroke="#63b8ff" points="656.44,-59.07 666.77,-56.69 657.21,-52.12 656.44,-59.07"/>
</g>
</g>
</svg>
