<?xml version="1.0" encoding="UTF-8" standalone="no"?>
<!DOCTYPE svg PUBLIC "-//W3C//DTD SVG 1.1//EN"
 "http://www.w3.org/Graphics/SVG/1.1/DTD/svg11.dtd">
<!-- Generated by graphviz version 5.0.1 (0)
 -->
<!-- Title: sisi4s::CoulombIntegralsFromVertex::dryCalculateRealIntegrals Pages: 1 -->
<svg width="639pt" height="110pt"
 viewBox="0.00 0.00 639.00 110.00" xmlns="http://www.w3.org/2000/svg" xmlns:xlink="http://www.w3.org/1999/xlink">
<g id="graph0" class="graph" transform="scale(1 1) rotate(0) translate(4 106)">
<title>sisi4s::CoulombIntegralsFromVertex::dryCalculateRealIntegrals</title>
<!-- Node1 -->
<g id="node1" class="node">
<title>Node1</title>
<g id="a_node1"><a xlink:title=" ">
<polygon fill="#bfbfbf" stroke="black" points="0,-19 0,-60 162,-60 162,-19 0,-19"/>
<text text-anchor="start" x="8" y="-48" font-family="Helvetica,sans-Serif" font-size="10.00">sisi4s::CoulombIntegrals</text>
<text text-anchor="start" x="8" y="-37" font-family="Helvetica,sans-Serif" font-size="10.00">FromVertex::dryCalculateReal</text>
<text text-anchor="middle" x="81" y="-26" font-family="Helvetica,sans-Serif" font-size="10.00">Integrals</text>
</a>
</g>
</g>
<!-- Node2 -->
<g id="node2" class="node">
<title>Node2</title>
<g id="a_node2"><a xlink:href="classsisi4s_1_1Algorithm.html#a388052a12509b8b641f17bbe8d41f8f3" target="_top" xlink:title="Specifies the location of an output tensor data.">
<polygon fill="none" stroke="black" points="198,-49.5 198,-79.5 339,-79.5 339,-49.5 198,-49.5"/>
<text text-anchor="start" x="206" y="-67.5" font-family="Helvetica,sans-Serif" font-size="10.00">sisi4s::Algorithm::</text>
<text text-anchor="middle" x="268.5" y="-56.5" font-family="Helvetica,sans-Serif" font-size="10.00">allocatedTensorArgument</text>
</a>
</g>
</g>
<!-- Node1&#45;&gt;Node2 -->
<g id="edge1" class="edge">
<title>Node1&#45;&gt;Node2</title>
<path fill="none" stroke="midnightblue" d="M162.01,-50.28C170.61,-51.44 179.36,-52.62 187.95,-53.78"/>
<polygon fill="midnightblue" stroke="midnightblue" points="187.57,-57.26 197.95,-55.13 188.51,-50.32 187.57,-57.26"/>
</g>
<!-- Node6 -->
<g id="node6" class="node">
<title>Node6</title>
<g id="a_node6"><a xlink:href="classsisi4s_1_1Algorithm.html#aec9041b31cb64a42ee1fd79d32774266" target="_top" xlink:title=" ">
<polygon fill="none" stroke="black" points="216.5,-0.5 216.5,-30.5 320.5,-30.5 320.5,-0.5 216.5,-0.5"/>
<text text-anchor="start" x="224.5" y="-18.5" font-family="Helvetica,sans-Serif" font-size="10.00">sisi4s::Algorithm::</text>
<text text-anchor="middle" x="268.5" y="-7.5" font-family="Helvetica,sans-Serif" font-size="10.00">isArgumentGiven</text>
</a>
</g>
</g>
<!-- Node1&#45;&gt;Node6 -->
<g id="edge5" class="edge">
<title>Node1&#45;&gt;Node6</title>
<path fill="none" stroke="midnightblue" d="M162.01,-29.15C176.85,-27.23 192.13,-25.25 206.29,-23.42"/>
<polygon fill="midnightblue" stroke="midnightblue" points="206.92,-26.87 216.38,-22.11 206.02,-19.93 206.92,-26.87"/>
</g>
<!-- Node3 -->
<g id="node3" class="node">
<title>Node3</title>
<g id="a_node3"><a xlink:href="classsisi4s_1_1Algorithm.html#a1e53277220d32a33e20846267c253652" target="_top" xlink:title=" ">
<polygon fill="none" stroke="black" points="385.5,-71.5 385.5,-101.5 489.5,-101.5 489.5,-71.5 385.5,-71.5"/>
<text text-anchor="start" x="393.5" y="-89.5" font-family="Helvetica,sans-Serif" font-size="10.00">sisi4s::Algorithm::</text>
<text text-anchor="middle" x="437.5" y="-78.5" font-family="Helvetica,sans-Serif" font-size="10.00">getArgumentData</text>
</a>
</g>
</g>
<!-- Node2&#45;&gt;Node3 -->
<g id="edge2" class="edge">
<title>Node2&#45;&gt;Node3</title>
<path fill="none" stroke="midnightblue" d="M339.36,-73.7C351.31,-75.28 363.66,-76.9 375.37,-78.45"/>
<polygon fill="midnightblue" stroke="midnightblue" points="375.1,-81.94 385.47,-79.78 376.01,-75 375.1,-81.94"/>
</g>
<!-- Node5 -->
<g id="node5" class="node">
<title>Node5</title>
<g id="a_node5"><a xlink:href="classsisi4s_1_1Data.html#a10819dce08cb4dd8d881b9fe02036d69" target="_top" xlink:title=" ">
<polygon fill="none" stroke="black" points="375,-33 375,-52 500,-52 500,-33 375,-33"/>
<text text-anchor="middle" x="437.5" y="-40" font-family="Helvetica,sans-Serif" font-size="10.00">sisi4s::Data::getName</text>
</a>
</g>
</g>
<!-- Node2&#45;&gt;Node5 -->
<g id="edge4" class="edge">
<title>Node2&#45;&gt;Node5</title>
<path fill="none" stroke="midnightblue" d="M339.36,-55.3C347.74,-54.19 356.32,-53.06 364.73,-51.95"/>
<polygon fill="midnightblue" stroke="midnightblue" points="365.44,-55.39 374.89,-50.62 364.52,-48.45 365.44,-55.39"/>
</g>
<!-- Node4 -->
<g id="node4" class="node">
<title>Node4</title>
<g id="a_node4"><a xlink:href="classsisi4s_1_1Data.html#a5b4676e48b4f437d399587e6903f896a" target="_top" xlink:title=" ">
<polygon fill="none" stroke="black" points="536,-77 536,-96 631,-96 631,-77 536,-77"/>
<text text-anchor="middle" x="583.5" y="-84" font-family="Helvetica,sans-Serif" font-size="10.00">sisi4s::Data::get</text>
</a>
</g>
</g>
<!-- Node3&#45;&gt;Node4 -->
<g id="edge3" class="edge">
<title>Node3&#45;&gt;Node4</title>
<path fill="none" stroke="midnightblue" d="M489.67,-86.5C501.3,-86.5 513.73,-86.5 525.58,-86.5"/>
<polygon fill="midnightblue" stroke="midnightblue" points="525.81,-90 535.81,-86.5 525.81,-83 525.81,-90"/>
</g>
</g>
</svg>
