<?xml version="1.0" encoding="UTF-8" standalone="no"?>
<!DOCTYPE svg PUBLIC "-//W3C//DTD SVG 1.1//EN"
 "http://www.w3.org/Graphics/SVG/1.1/DTD/svg11.dtd">
<!-- Generated by graphviz version 8.1.0 (0)
 -->
<!-- Title: ghc::filesystem::path::has_relative_path Pages: 1 -->
<svg width="1112pt" height="283pt"
 viewBox="0.00 0.00 1112.25 283.12" xmlns="http://www.w3.org/2000/svg" xmlns:xlink="http://www.w3.org/1999/xlink">
<g id="graph0" class="graph" transform="scale(1 1) rotate(0) translate(4 279.12)">
<title>ghc::filesystem::path::has_relative_path</title>
<!-- Node1 -->
<g id="Node000001" class="node">
<title>Node1</title>
<g id="a_Node000001"><a xlink:title=" ">
<polygon fill="#999999" stroke="#666666" points="1104.25,-185.12 986.25,-185.12 986.25,-151.62 1104.25,-151.62 1104.25,-185.12"/>
<text text-anchor="start" x="994.25" y="-171.62" font-family="Helvetica,sans-Serif" font-size="10.00">ghc::filesystem::path</text>
<text text-anchor="middle" x="1045.25" y="-158.88" font-family="Helvetica,sans-Serif" font-size="10.00">::has_relative_path</text>
</a>
</g>
</g>
<!-- Node2 -->
<g id="Node000002" class="node">
<title>Node2</title>
<g id="a_Node000002"><a xlink:href="classghc_1_1filesystem_1_1path.html#aa47d9996fa2ec80336592991f740aeeb" target="_top" xlink:title=" ">
<polygon fill="white" stroke="#666666" points="950.25,-230.12 832.25,-230.12 832.25,-196.62 950.25,-196.62 950.25,-230.12"/>
<text text-anchor="start" x="840.25" y="-216.62" font-family="Helvetica,sans-Serif" font-size="10.00">ghc::filesystem::path</text>
<text text-anchor="middle" x="891.25" y="-203.88" font-family="Helvetica,sans-Serif" font-size="10.00">::extension</text>
</a>
</g>
</g>
<!-- Node1&#45;&gt;Node2 -->
<g id="edge1_Node000001_Node000002" class="edge">
<title>Node1&#45;&gt;Node2</title>
<g id="a_edge1_Node000001_Node000002"><a xlink:title=" ">
<path fill="none" stroke="#63b8ff" d="M976.04,-188.57C967.51,-191.09 958.85,-193.66 950.49,-196.13"/>
<polygon fill="#63b8ff" stroke="#63b8ff" points="976.76,-191.71 985.35,-185.52 974.77,-185 976.76,-191.71"/>
</a>
</g>
</g>
<!-- Node6 -->
<g id="Node000006" class="node">
<title>Node6</title>
<g id="a_Node000006"><a xlink:href="classghc_1_1filesystem_1_1path.html#a8fa8cb12e511ef8d951559983d26f018" target="_top" xlink:title=" ">
<polygon fill="white" stroke="#666666" points="950.25,-122.12 832.25,-122.12 832.25,-88.62 950.25,-88.62 950.25,-122.12"/>
<text text-anchor="start" x="840.25" y="-108.62" font-family="Helvetica,sans-Serif" font-size="10.00">ghc::filesystem::path</text>
<text text-anchor="middle" x="891.25" y="-95.88" font-family="Helvetica,sans-Serif" font-size="10.00">::filename</text>
</a>
</g>
</g>
<!-- Node1&#45;&gt;Node6 -->
<g id="edge6_Node000001_Node000006" class="edge">
<title>Node1&#45;&gt;Node6</title>
<g id="a_edge6_Node000001_Node000006"><a xlink:title=" ">
<path fill="none" stroke="#63b8ff" d="M992.62,-146.98C973.43,-139.02 951.91,-130.1 933.73,-122.57"/>
<polygon fill="#63b8ff" stroke="#63b8ff" points="991.14,-150.56 1001.72,-151.16 993.82,-144.1 991.14,-150.56"/>
</a>
</g>
</g>
<!-- Node8 -->
<g id="Node000008" class="node">
<title>Node8</title>
<g id="a_Node000008"><a xlink:href="classghc_1_1filesystem_1_1path.html#ae6ee7d5f8e9eeb1850aa54f538d53e74" target="_top" xlink:title=" ">
<polygon fill="white" stroke="#666666" points="786.12,-185.12 668.12,-185.12 668.12,-151.62 786.12,-151.62 786.12,-185.12"/>
<text text-anchor="start" x="676.12" y="-171.62" font-family="Helvetica,sans-Serif" font-size="10.00">ghc::filesystem::path</text>
<text text-anchor="middle" x="727.12" y="-158.88" font-family="Helvetica,sans-Serif" font-size="10.00">::has_filename</text>
</a>
</g>
</g>
<!-- Node1&#45;&gt;Node8 -->
<g id="edge26_Node000001_Node000008" class="edge">
<title>Node1&#45;&gt;Node8</title>
<g id="a_edge26_Node000001_Node000008"><a xlink:title=" ">
<path fill="none" stroke="#63b8ff" d="M974.92,-168.38C918.46,-168.38 839.65,-168.38 786.4,-168.38"/>
<polygon fill="#63b8ff" stroke="#63b8ff" points="974.9,-171.88 984.9,-168.38 974.9,-164.88 974.9,-171.88"/>
</a>
</g>
</g>
<!-- Node3 -->
<g id="Node000003" class="node">
<title>Node3</title>
<g id="a_Node000003"><a xlink:href="classghc_1_1filesystem_1_1path.html#a9905fb32f3c794443b031b5a6887a096" target="_top" xlink:title=" ">
<polygon fill="white" stroke="#666666" points="786.12,-275.12 668.12,-275.12 668.12,-241.62 786.12,-241.62 786.12,-275.12"/>
<text text-anchor="start" x="676.12" y="-261.62" font-family="Helvetica,sans-Serif" font-size="10.00">ghc::filesystem::path</text>
<text text-anchor="middle" x="727.12" y="-248.88" font-family="Helvetica,sans-Serif" font-size="10.00">::has_extension</text>
</a>
</g>
</g>
<!-- Node2&#45;&gt;Node3 -->
<g id="edge2_Node000002_Node000003" class="edge">
<title>Node2&#45;&gt;Node3</title>
<g id="a_edge2_Node000002_Node000003"><a xlink:title=" ">
<path fill="none" stroke="#63b8ff" d="M821.61,-232.43C809.96,-235.66 797.96,-238.99 786.61,-242.14"/>
<polygon fill="#63b8ff" stroke="#63b8ff" points="822.48,-235.54 831.18,-229.49 820.61,-228.8 822.48,-235.54"/>
</a>
</g>
</g>
<!-- Node4 -->
<g id="Node000004" class="node">
<title>Node4</title>
<g id="a_Node000004"><a xlink:href="classghc_1_1filesystem_1_1path.html#a4104e85b25f077db4bb0c99f503b1185" target="_top" xlink:title=" ">
<polygon fill="white" stroke="#666666" points="622,-266.12 504,-266.12 504,-232.62 622,-232.62 622,-266.12"/>
<text text-anchor="start" x="512" y="-252.62" font-family="Helvetica,sans-Serif" font-size="10.00">ghc::filesystem::path</text>
<text text-anchor="middle" x="563" y="-239.88" font-family="Helvetica,sans-Serif" font-size="10.00">::replace_extension</text>
</a>
</g>
</g>
<!-- Node2&#45;&gt;Node4 -->
<g id="edge5_Node000002_Node000004" class="edge">
<title>Node2&#45;&gt;Node4</title>
<g id="a_edge5_Node000002_Node000004"><a xlink:title=" ">
<path fill="none" stroke="#63b8ff" d="M821.05,-217.27C774.77,-220.31 712.59,-225.22 658,-232.38 646.41,-233.89 634.07,-235.87 622.28,-237.93"/>
<polygon fill="#63b8ff" stroke="#63b8ff" points="821.11,-220.71 830.86,-216.57 820.66,-213.72 821.11,-220.71"/>
</a>
</g>
</g>
<!-- Node3&#45;&gt;Node4 -->
<g id="edge3_Node000003_Node000004" class="edge">
<title>Node3&#45;&gt;Node4</title>
<g id="a_edge3_Node000003_Node000004"><a xlink:title=" ">
<path fill="none" stroke="#63b8ff" d="M657.13,-254.54C645.59,-253.9 633.72,-253.25 622.49,-252.62"/>
<polygon fill="#63b8ff" stroke="#63b8ff" points="656.87,-258.09 667.05,-255.15 657.26,-251.1 656.87,-258.09"/>
</a>
</g>
</g>
<!-- Node5 -->
<g id="Node000005" class="node">
<title>Node5</title>
<g id="a_Node000005"><a xlink:href="classsisi4s_1_1Read.html#aef678cc6cbe967f52976cf7a79743a54" target="_top" xlink:title=" ">
<polygon fill="white" stroke="#666666" points="457.12,-259.75 360.88,-259.75 360.88,-239 457.12,-239 457.12,-259.75"/>
<text text-anchor="middle" x="409" y="-246.25" font-family="Helvetica,sans-Serif" font-size="10.00">sisi4s::Read::run</text>
</a>
</g>
</g>
<!-- Node4&#45;&gt;Node5 -->
<g id="edge4_Node000004_Node000005" class="edge">
<title>Node4&#45;&gt;Node5</title>
<g id="a_edge4_Node000004_Node000005"><a xlink:title=" ">
<path fill="none" stroke="#63b8ff" d="M492.82,-249.38C480.91,-249.38 468.77,-249.38 457.59,-249.38"/>
<polygon fill="#63b8ff" stroke="#63b8ff" points="492.67,-252.88 502.67,-249.38 492.67,-245.88 492.67,-252.88"/>
</a>
</g>
</g>
<!-- Node7 -->
<g id="Node000007" class="node">
<title>Node7</title>
<g id="a_Node000007"><a xlink:href="namespaceghc_1_1filesystem.html#aa55acfbcb365c1d60c2a27a4df65f862" target="_top" xlink:title=" ">
<polygon fill="white" stroke="#666666" points="796.25,-115.75 658,-115.75 658,-95 796.25,-95 796.25,-115.75"/>
<text text-anchor="middle" x="727.12" y="-102.25" font-family="Helvetica,sans-Serif" font-size="10.00">ghc::filesystem::absolute</text>
</a>
</g>
</g>
<!-- Node6&#45;&gt;Node7 -->
<g id="edge7_Node000006_Node000007" class="edge">
<title>Node6&#45;&gt;Node7</title>
<g id="a_edge7_Node000006_Node000007"><a xlink:title=" ">
<path fill="none" stroke="#63b8ff" d="M821.19,-105.38C813.04,-105.38 804.72,-105.38 796.57,-105.38"/>
<polygon fill="#63b8ff" stroke="#63b8ff" points="821.18,-108.88 831.18,-105.38 821.18,-101.88 821.18,-108.88"/>
</a>
</g>
</g>
<!-- Node6&#45;&gt;Node8 -->
<g id="edge9_Node000006_Node000008" class="edge">
<title>Node6&#45;&gt;Node8</title>
<g id="a_edge9_Node000006_Node000008"><a xlink:title=" ">
<path fill="none" stroke="#63b8ff" d="M836.84,-126.51C823.59,-131.72 809.41,-137.27 796.25,-142.38 788.81,-145.26 780.91,-148.3 773.22,-151.24"/>
<polygon fill="#63b8ff" stroke="#63b8ff" points="837.74,-129.52 845.76,-122.6 835.18,-123.01 837.74,-129.52"/>
</a>
</g>
</g>
<!-- Node16 -->
<g id="Node000016" class="node">
<title>Node16</title>
<g id="a_Node000016"><a xlink:href="classghc_1_1filesystem_1_1path.html#a23fdbee15598b1dadf86db61704820ef" target="_top" xlink:title=" ">
<polygon fill="white" stroke="#666666" points="622,-108.12 504,-108.12 504,-74.62 622,-74.62 622,-108.12"/>
<text text-anchor="start" x="512" y="-94.62" font-family="Helvetica,sans-Serif" font-size="10.00">ghc::filesystem::path</text>
<text text-anchor="middle" x="563" y="-81.88" font-family="Helvetica,sans-Serif" font-size="10.00">::remove_filename</text>
</a>
</g>
</g>
<!-- Node6&#45;&gt;Node16 -->
<g id="edge23_Node000006_Node000016" class="edge">
<title>Node6&#45;&gt;Node16</title>
<g id="a_edge23_Node000006_Node000016"><a xlink:title=" ">
<path fill="none" stroke="#63b8ff" d="M821.3,-89.81C812.9,-88.4 804.4,-87.19 796.25,-86.38 737.26,-80.47 669.44,-83 622.38,-86.22"/>
<polygon fill="#63b8ff" stroke="#63b8ff" points="820.4,-93.38 830.86,-91.7 821.63,-86.49 820.4,-93.38"/>
</a>
</g>
</g>
<!-- Node21 -->
<g id="Node000021" class="node">
<title>Node21</title>
<g id="a_Node000021"><a xlink:href="classghc_1_1filesystem_1_1path.html#a6915836dca91d9f472b10ac48b75b809" target="_top" xlink:title=" ">
<polygon fill="white" stroke="#666666" points="786.12,-39.12 668.12,-39.12 668.12,-5.62 786.12,-5.62 786.12,-39.12"/>
<text text-anchor="start" x="676.12" y="-25.62" font-family="Helvetica,sans-Serif" font-size="10.00">ghc::filesystem::path</text>
<text text-anchor="middle" x="727.12" y="-12.88" font-family="Helvetica,sans-Serif" font-size="10.00">::stem</text>
</a>
</g>
</g>
<!-- Node6&#45;&gt;Node21 -->
<g id="edge24_Node000006_Node000021" class="edge">
<title>Node6&#45;&gt;Node21</title>
<g id="a_edge24_Node000006_Node000021"><a xlink:title=" ">
<path fill="none" stroke="#63b8ff" d="M851.06,-82.8C834.33,-73.4 814.49,-62.55 796.25,-53.38 786.96,-48.7 776.83,-43.92 767.28,-39.56"/>
<polygon fill="#63b8ff" stroke="#63b8ff" points="849.08,-86.27 859.51,-88.14 852.53,-80.17 849.08,-86.27"/>
</a>
</g>
</g>
<!-- Node7&#45;&gt;Node7 -->
<g id="edge8_Node000007_Node000007" class="edge">
<title>Node7&#45;&gt;Node7</title>
<g id="a_edge8_Node000007_Node000007"><a xlink:title=" ">
<path fill="none" stroke="#63b8ff" d="M756.6,-126.57C753.26,-130.76 743.43,-133.75 727.12,-133.75 698.92,-133.75 690.1,-124.81 700.68,-116.15"/>
<polygon fill="#63b8ff" stroke="#63b8ff" points="759.73,-125.77 753.57,-117.15 753.01,-127.73 759.73,-125.77"/>
</a>
</g>
</g>
<!-- Node9 -->
<g id="Node000009" class="node">
<title>Node9</title>
<g id="a_Node000009"><a xlink:href="classghc_1_1filesystem_1_1path.html#aa54c02efef679818c5b2370ea6cae089" target="_top" xlink:title=" ">
<polygon fill="white" stroke="#666666" points="622,-185.12 504,-185.12 504,-151.62 622,-151.62 622,-185.12"/>
<text text-anchor="start" x="512" y="-171.62" font-family="Helvetica,sans-Serif" font-size="10.00">ghc::filesystem::path</text>
<text text-anchor="middle" x="563" y="-158.88" font-family="Helvetica,sans-Serif" font-size="10.00">::operator/=</text>
</a>
</g>
</g>
<!-- Node8&#45;&gt;Node9 -->
<g id="edge10_Node000008_Node000009" class="edge">
<title>Node8&#45;&gt;Node9</title>
<g id="a_edge10_Node000008_Node000009"><a xlink:title=" ">
<path fill="none" stroke="#63b8ff" d="M657.13,-168.38C645.59,-168.38 633.72,-168.38 622.49,-168.38"/>
<polygon fill="#63b8ff" stroke="#63b8ff" points="657.05,-171.88 667.05,-168.38 657.05,-164.88 657.05,-171.88"/>
</a>
</g>
</g>
<!-- Node8&#45;&gt;Node16 -->
<g id="edge17_Node000008_Node000016" class="edge">
<title>Node8&#45;&gt;Node16</title>
<g id="a_edge17_Node000008_Node000016"><a xlink:title=" ">
<path fill="none" stroke="#63b8ff" d="M668.43,-146.98C664.88,-145.47 661.38,-143.93 658,-142.38 635.73,-132.14 611.44,-118.9 593.12,-108.48"/>
<polygon fill="#63b8ff" stroke="#63b8ff" points="666.93,-150.56 677.51,-151.13 669.6,-144.08 666.93,-150.56"/>
</a>
</g>
</g>
<!-- Node10 -->
<g id="Node000010" class="node">
<title>Node10</title>
<g id="a_Node000010"><a xlink:href="classghc_1_1filesystem_1_1path.html#a3254005a2445165b80da6baeb30b003b" target="_top" xlink:title=" ">
<polygon fill="white" stroke="#666666" points="468,-218.12 350,-218.12 350,-184.62 468,-184.62 468,-218.12"/>
<text text-anchor="start" x="358" y="-204.62" font-family="Helvetica,sans-Serif" font-size="10.00">ghc::filesystem::path</text>
<text text-anchor="middle" x="409" y="-191.88" font-family="Helvetica,sans-Serif" font-size="10.00">::append</text>
</a>
</g>
</g>
<!-- Node9&#45;&gt;Node10 -->
<g id="edge11_Node000009_Node000010" class="edge">
<title>Node9&#45;&gt;Node10</title>
<g id="a_edge11_Node000009_Node000010"><a xlink:title=" ">
<path fill="none" stroke="#63b8ff" d="M492.98,-183.36C484.78,-185.14 476.46,-186.95 468.43,-188.69"/>
<polygon fill="#63b8ff" stroke="#63b8ff" points="493.64,-186.58 502.67,-181.04 492.15,-179.74 493.64,-186.58"/>
</a>
</g>
</g>
<!-- Node11 -->
<g id="Node000011" class="node">
<title>Node11</title>
<g id="a_Node000011"><a xlink:href="classghc_1_1filesystem_1_1path.html#a5971ef1172e3d0788f005e76277ea1ab" target="_top" xlink:title=" ">
<polygon fill="white" stroke="#666666" points="468,-166.12 350,-166.12 350,-132.62 468,-132.62 468,-166.12"/>
<text text-anchor="start" x="358" y="-152.62" font-family="Helvetica,sans-Serif" font-size="10.00">ghc::filesystem::path</text>
<text text-anchor="middle" x="409" y="-139.88" font-family="Helvetica,sans-Serif" font-size="10.00">::append</text>
</a>
</g>
</g>
<!-- Node9&#45;&gt;Node11 -->
<g id="edge12_Node000009_Node000011" class="edge">
<title>Node9&#45;&gt;Node11</title>
<g id="a_edge12_Node000009_Node000011"><a xlink:title=" ">
<path fill="none" stroke="#63b8ff" d="M492.98,-159.75C484.78,-158.72 476.46,-157.68 468.43,-156.68"/>
<polygon fill="#63b8ff" stroke="#63b8ff" points="492.31,-163.32 502.67,-161.08 493.18,-156.37 492.31,-163.32"/>
</a>
</g>
</g>
<!-- Node12 -->
<g id="Node000012" class="node">
<title>Node12</title>
<g id="a_Node000012"><a xlink:href="classghc_1_1filesystem_1_1path.html#ac18cfd247ec398479e00ca2f391b96c9" target="_top" xlink:title=" ">
<polygon fill="white" stroke="#666666" points="307.25,-218.12 189.25,-218.12 189.25,-184.62 307.25,-184.62 307.25,-218.12"/>
<text text-anchor="start" x="197.25" y="-204.62" font-family="Helvetica,sans-Serif" font-size="10.00">ghc::filesystem::path</text>
<text text-anchor="middle" x="248.25" y="-191.88" font-family="Helvetica,sans-Serif" font-size="10.00">::append</text>
</a>
</g>
</g>
<!-- Node11&#45;&gt;Node12 -->
<g id="edge13_Node000011_Node000012" class="edge">
<title>Node11&#45;&gt;Node12</title>
<g id="a_edge13_Node000011_Node000012"><a xlink:title=" ">
<path fill="none" stroke="#63b8ff" d="M345.28,-169.92C330.91,-174.63 315.78,-179.58 301.89,-184.13"/>
<polygon fill="#63b8ff" stroke="#63b8ff" points="346.17,-172.98 354.58,-166.55 343.99,-166.33 346.17,-172.98"/>
</a>
</g>
</g>
<!-- Node13 -->
<g id="Node000013" class="node">
<title>Node13</title>
<g id="a_Node000013"><a xlink:href="classghc_1_1filesystem_1_1path.html#a17f5318b66b012b6029be904ab31dbb6" target="_top" xlink:title=" ">
<polygon fill="white" stroke="#666666" points="307.25,-166.12 189.25,-166.12 189.25,-132.62 307.25,-132.62 307.25,-166.12"/>
<text text-anchor="start" x="197.25" y="-152.62" font-family="Helvetica,sans-Serif" font-size="10.00">ghc::filesystem::path</text>
<text text-anchor="middle" x="248.25" y="-139.88" font-family="Helvetica,sans-Serif" font-size="10.00">::operator/=</text>
</a>
</g>
</g>
<!-- Node11&#45;&gt;Node13 -->
<g id="edge14_Node000011_Node000013" class="edge">
<title>Node11&#45;&gt;Node13</title>
<g id="a_edge14_Node000011_Node000013"><a xlink:title=" ">
<path fill="none" stroke="#63b8ff" d="M339.03,-149.38C328.59,-149.38 317.91,-149.38 307.72,-149.38"/>
<polygon fill="#63b8ff" stroke="#63b8ff" points="338.79,-152.88 348.79,-149.38 338.79,-145.88 338.79,-152.88"/>
</a>
</g>
</g>
<!-- Node14 -->
<g id="Node000014" class="node">
<title>Node14</title>
<g id="a_Node000014"><a xlink:href="classghc_1_1filesystem_1_1path.html#afd229f3954e0cb7c6699748de02bee60" target="_top" xlink:title=" ">
<polygon fill="white" stroke="#666666" points="307.25,-114.12 189.25,-114.12 189.25,-80.62 307.25,-80.62 307.25,-114.12"/>
<text text-anchor="start" x="197.25" y="-100.62" font-family="Helvetica,sans-Serif" font-size="10.00">ghc::filesystem::path</text>
<text text-anchor="middle" x="248.25" y="-87.88" font-family="Helvetica,sans-Serif" font-size="10.00">::replace_filename</text>
</a>
</g>
</g>
<!-- Node11&#45;&gt;Node14 -->
<g id="edge15_Node000011_Node000014" class="edge">
<title>Node11&#45;&gt;Node14</title>
<g id="a_edge15_Node000011_Node000014"><a xlink:title=" ">
<path fill="none" stroke="#63b8ff" d="M345.28,-128.83C330.91,-124.12 315.78,-119.17 301.89,-114.62"/>
<polygon fill="#63b8ff" stroke="#63b8ff" points="343.99,-132.42 354.58,-132.2 346.17,-125.77 343.99,-132.42"/>
</a>
</g>
</g>
<!-- Node15 -->
<g id="Node000015" class="node">
<title>Node15</title>
<g id="a_Node000015"><a xlink:href="classghc_1_1filesystem_1_1directory__entry.html#a05e2035adac4a0a7e414a22bac702e98" target="_top" xlink:title=" ">
<polygon fill="white" stroke="#666666" points="143.12,-114.12 3.38,-114.12 3.38,-80.62 143.12,-80.62 143.12,-114.12"/>
<text text-anchor="start" x="11.38" y="-100.62" font-family="Helvetica,sans-Serif" font-size="10.00">ghc::filesystem::directory</text>
<text text-anchor="middle" x="73.25" y="-87.88" font-family="Helvetica,sans-Serif" font-size="10.00">_entry::replace_filename</text>
</a>
</g>
</g>
<!-- Node14&#45;&gt;Node15 -->
<g id="edge16_Node000014_Node000015" class="edge">
<title>Node14&#45;&gt;Node15</title>
<g id="a_edge16_Node000014_Node000015"><a xlink:title=" ">
<path fill="none" stroke="#63b8ff" d="M178.35,-97.38C166.9,-97.38 155.03,-97.38 143.58,-97.38"/>
<polygon fill="#63b8ff" stroke="#63b8ff" points="178.16,-100.88 188.16,-97.38 178.16,-93.88 178.16,-100.88"/>
</a>
</g>
</g>
<!-- Node16&#45;&gt;Node14 -->
<g id="edge22_Node000016_Node000014" class="edge">
<title>Node16&#45;&gt;Node14</title>
<g id="a_edge22_Node000016_Node000014"><a xlink:title=" ">
<path fill="none" stroke="#63b8ff" d="M492.73,-92.7C437.2,-93.77 360.14,-95.25 307.69,-96.25"/>
<polygon fill="#63b8ff" stroke="#63b8ff" points="492.61,-96.19 502.54,-92.5 492.48,-89.19 492.61,-96.19"/>
</a>
</g>
</g>
<!-- Node17 -->
<g id="Node000017" class="node">
<title>Node17</title>
<g id="a_Node000017"><a xlink:href="classghc_1_1filesystem_1_1path.html#afdd1e7ec9fb46eba045ddb6c95c42bf1" target="_top" xlink:title=" ">
<polygon fill="white" stroke="#666666" points="468,-64.12 350,-64.12 350,-30.62 468,-30.62 468,-64.12"/>
<text text-anchor="start" x="358" y="-50.62" font-family="Helvetica,sans-Serif" font-size="10.00">ghc::filesystem::path</text>
<text text-anchor="middle" x="409" y="-37.88" font-family="Helvetica,sans-Serif" font-size="10.00">::lexically_normal</text>
</a>
</g>
</g>
<!-- Node16&#45;&gt;Node17 -->
<g id="edge18_Node000016_Node000017" class="edge">
<title>Node16&#45;&gt;Node17</title>
<g id="a_edge18_Node000016_Node000017"><a xlink:title=" ">
<path fill="none" stroke="#63b8ff" d="M493.26,-71.48C484.96,-69.07 476.55,-66.64 468.43,-64.29"/>
<polygon fill="#63b8ff" stroke="#63b8ff" points="492.09,-75.07 502.67,-74.49 494.04,-68.35 492.09,-75.07"/>
</a>
</g>
</g>
<!-- Node18 -->
<g id="Node000018" class="node">
<title>Node18</title>
<g id="a_Node000018"><a xlink:href="namespaceghc_1_1filesystem.html#aae07b99c0f8d33847eb48b985e43ca3b" target="_top" xlink:title=" ">
<polygon fill="white" stroke="#666666" points="314,-62.12 182.5,-62.12 182.5,-28.62 314,-28.62 314,-62.12"/>
<text text-anchor="start" x="190.5" y="-48.62" font-family="Helvetica,sans-Serif" font-size="10.00">ghc::filesystem::weakly</text>
<text text-anchor="middle" x="248.25" y="-35.88" font-family="Helvetica,sans-Serif" font-size="10.00">_canonical</text>
</a>
</g>
</g>
<!-- Node17&#45;&gt;Node18 -->
<g id="edge19_Node000017_Node000018" class="edge">
<title>Node17&#45;&gt;Node18</title>
<g id="a_edge19_Node000017_Node000018"><a xlink:title=" ">
<path fill="none" stroke="#63b8ff" d="M338.85,-46.5C330.74,-46.4 322.48,-46.3 314.42,-46.2"/>
<polygon fill="#63b8ff" stroke="#63b8ff" points="338.75,-50.02 348.79,-46.64 338.83,-43.02 338.75,-50.02"/>
</a>
</g>
</g>
<!-- Node19 -->
<g id="Node000019" class="node">
<title>Node19</title>
<g id="a_Node000019"><a xlink:href="namespaceghc_1_1filesystem.html#a6e2b11202cc9b071bbdb16d87c197719" target="_top" xlink:title=" ">
<polygon fill="white" stroke="#666666" points="146.5,-59.75 0,-59.75 0,-39 146.5,-39 146.5,-59.75"/>
<text text-anchor="middle" x="73.25" y="-46.25" font-family="Helvetica,sans-Serif" font-size="10.00">ghc::filesystem::proximate</text>
</a>
</g>
</g>
<!-- Node18&#45;&gt;Node19 -->
<g id="edge20_Node000018_Node000019" class="edge">
<title>Node18&#45;&gt;Node19</title>
<g id="a_edge20_Node000018_Node000019"><a xlink:title=" ">
<path fill="none" stroke="#63b8ff" d="M171.61,-47.12C163.36,-47.31 154.99,-47.51 146.78,-47.7"/>
<polygon fill="#63b8ff" stroke="#63b8ff" points="171.42,-50.61 181.34,-46.88 171.26,-43.61 171.42,-50.61"/>
</a>
</g>
</g>
<!-- Node20 -->
<g id="Node000020" class="node">
<title>Node20</title>
<g id="a_Node000020"><a xlink:href="namespaceghc_1_1filesystem.html#ab1f9e9d8c3bd79b032e0a45307c85df4" target="_top" xlink:title=" ">
<polygon fill="white" stroke="#666666" points="140.12,-20.75 6.38,-20.75 6.38,0 140.12,0 140.12,-20.75"/>
<text text-anchor="middle" x="73.25" y="-7.25" font-family="Helvetica,sans-Serif" font-size="10.00">ghc::filesystem::relative</text>
</a>
</g>
</g>
<!-- Node18&#45;&gt;Node20 -->
<g id="edge21_Node000018_Node000020" class="edge">
<title>Node18&#45;&gt;Node20</title>
<g id="a_edge21_Node000018_Node000020"><a xlink:title=" ">
<path fill="none" stroke="#63b8ff" d="M171.71,-30.09C156.97,-27.11 141.8,-24.04 127.94,-21.24"/>
<polygon fill="#63b8ff" stroke="#63b8ff" points="170.84,-33.69 181.34,-32.24 172.23,-26.83 170.84,-33.69"/>
</a>
</g>
</g>
<!-- Node22 -->
<g id="Node000022" class="node">
<title>Node22</title>
<g id="a_Node000022"><a xlink:href="classghc_1_1filesystem_1_1path.html#a6360d71eab2e214377fb6eadde0069e8" target="_top" xlink:title=" ">
<polygon fill="white" stroke="#666666" points="622,-39.12 504,-39.12 504,-5.62 622,-5.62 622,-39.12"/>
<text text-anchor="start" x="512" y="-25.62" font-family="Helvetica,sans-Serif" font-size="10.00">ghc::filesystem::path</text>
<text text-anchor="middle" x="563" y="-12.88" font-family="Helvetica,sans-Serif" font-size="10.00">::has_stem</text>
</a>
</g>
</g>
<!-- Node21&#45;&gt;Node22 -->
<g id="edge25_Node000021_Node000022" class="edge">
<title>Node21&#45;&gt;Node22</title>
<g id="a_edge25_Node000021_Node000022"><a xlink:title=" ">
<path fill="none" stroke="#63b8ff" d="M657.13,-22.38C645.59,-22.38 633.72,-22.38 622.49,-22.38"/>
<polygon fill="#63b8ff" stroke="#63b8ff" points="657.05,-25.88 667.05,-22.38 657.05,-18.88 657.05,-25.88"/>
</a>
</g>
</g>
</g>
</svg>
