<?xml version="1.0" encoding="UTF-8" standalone="no"?>
<!DOCTYPE svg PUBLIC "-//W3C//DTD SVG 1.1//EN"
 "http://www.w3.org/Graphics/SVG/1.1/DTD/svg11.dtd">
<!-- Generated by graphviz version 9.0.0 (0)
 -->
<!-- Title: sisi4s::Scanner::refillBuffer Pages: 1 -->
<svg width="501pt" height="29pt"
 viewBox="0.00 0.00 500.75 28.75" xmlns="http://www.w3.org/2000/svg" xmlns:xlink="http://www.w3.org/1999/xlink">
<g id="graph0" class="graph" transform="scale(1 1) rotate(0) translate(4 24.75)">
<title>sisi4s::Scanner::refillBuffer</title>
<!-- Node1 -->
<g id="Node000001" class="node">
<title>Node1</title>
<g id="a_Node000001"><a xlink:title=" ">
<polygon fill="#999999" stroke="#666666" points="492.75,-20.75 347,-20.75 347,0 492.75,0 492.75,-20.75"/>
<text text-anchor="middle" x="419.88" y="-7.25" font-family="Helvetica,sans-Serif" font-size="10.00">sisi4s::Scanner::refillBuffer</text>
</a>
</g>
</g>
<!-- Node2 -->
<g id="Node000002" class="node">
<title>Node2</title>
<g id="a_Node000002"><a xlink:href="classsisi4s_1_1Scanner.html#a4989c87d57ff8490d134f520eac38412" target="_top" xlink:title=" ">
<polygon fill="white" stroke="#666666" points="311,-20.75 174.25,-20.75 174.25,0 311,0 311,-20.75"/>
<text text-anchor="middle" x="242.62" y="-7.25" font-family="Helvetica,sans-Serif" font-size="10.00">sisi4s::Scanner::nextLine</text>
</a>
</g>
</g>
<!-- Node1&#45;&gt;Node2 -->
<g id="edge1_Node000001_Node000002" class="edge">
<title>Node1&#45;&gt;Node2</title>
<g id="a_edge1_Node000001_Node000002"><a xlink:title=" ">
<path fill="none" stroke="#63b8ff" d="M335.26,-10.38C327.21,-10.38 319.12,-10.38 311.25,-10.38"/>
<polygon fill="#63b8ff" stroke="#63b8ff" points="335.07,-13.88 345.07,-10.38 335.07,-6.88 335.07,-13.88"/>
</a>
</g>
</g>
<!-- Node3 -->
<g id="Node000003" class="node">
<title>Node3</title>
<g id="a_Node000003"><a xlink:href="classsisi4s_1_1TensorIo.html#a13b772a1fa48fa72bc12dc28fbed3f04" target="_top" xlink:title=" ">
<polygon fill="white" stroke="#666666" points="138.25,-20.75 0,-20.75 0,0 138.25,0 138.25,-20.75"/>
<text text-anchor="middle" x="69.12" y="-7.25" font-family="Helvetica,sans-Serif" font-size="10.00">sisi4s::TensorIo::readText</text>
</a>
</g>
</g>
<!-- Node2&#45;&gt;Node3 -->
<g id="edge2_Node000002_Node000003" class="edge">
<title>Node2&#45;&gt;Node3</title>
<g id="a_edge2_Node000002_Node000003"><a xlink:title=" ">
<path fill="none" stroke="#63b8ff" d="M162.58,-10.38C154.55,-10.38 146.44,-10.38 138.54,-10.38"/>
<polygon fill="#63b8ff" stroke="#63b8ff" points="162.33,-13.88 172.33,-10.38 162.33,-6.88 162.33,-13.88"/>
</a>
</g>
</g>
</g>
</svg>
