<?xml version="1.0" encoding="UTF-8" standalone="no"?>
<!DOCTYPE svg PUBLIC "-//W3C//DTD SVG 1.1//EN"
 "http://www.w3.org/Graphics/SVG/1.1/DTD/svg11.dtd">
<!-- Generated by graphviz version 5.0.1 (0)
 -->
<!-- Title: sisi4s::DryVector&lt; F &gt; Pages: 1 -->
<svg width="253pt" height="712pt"
 viewBox="0.00 0.00 252.50 712.00" xmlns="http://www.w3.org/2000/svg" xmlns:xlink="http://www.w3.org/1999/xlink">
<g id="graph0" class="graph" transform="scale(1 1) rotate(0) translate(4 708)">
<title>sisi4s::DryVector&lt; F &gt;</title>
<!-- Node1 -->
<g id="node1" class="node">
<title>Node1</title>
<g id="a_node1"><a xlink:title=" ">
<polygon fill="#bfbfbf" stroke="black" points="0,-0.5 0,-57.5 127,-57.5 127,-0.5 0,-0.5"/>
<text text-anchor="middle" x="63.5" y="-45.5" font-family="Helvetica,sans-Serif" font-size="10.00">sisi4s::DryVector&lt; F &gt;</text>
<polyline fill="none" stroke="black" points="0,-38.5 127,-38.5"/>
<text text-anchor="middle" x="63.5" y="-26.5" font-family="Helvetica,sans-Serif" font-size="10.00"> </text>
<polyline fill="none" stroke="black" points="0,-19.5 127,-19.5"/>
<text text-anchor="start" x="8" y="-7.5" font-family="Helvetica,sans-Serif" font-size="10.00">+ DryVector()</text>
</a>
</g>
</g>
<!-- Node2 -->
<g id="node2" class="node">
<title>Node2</title>
<g id="a_node2"><a xlink:href="classsisi4s_1_1DryTensor.html" target="_top" xlink:title=" ">
<polygon fill="none" stroke="black" points="1,-95.5 1,-295.5 126,-295.5 126,-95.5 1,-95.5"/>
<text text-anchor="start" x="9" y="-283.5" font-family="Helvetica,sans-Serif" font-size="10.00">sisi4s::DryTensor&lt;</text>
<text text-anchor="middle" x="63.5" y="-272.5" font-family="Helvetica,sans-Serif" font-size="10.00"> double &gt;</text>
<polyline fill="none" stroke="black" points="1,-265.5 126,-265.5"/>
<text text-anchor="start" x="9" y="-253.5" font-family="Helvetica,sans-Serif" font-size="10.00">+ order</text>
<text text-anchor="start" x="9" y="-242.5" font-family="Helvetica,sans-Serif" font-size="10.00">+ lens</text>
<text text-anchor="start" x="9" y="-231.5" font-family="Helvetica,sans-Serif" font-size="10.00">+ syms</text>
<text text-anchor="start" x="9" y="-220.5" font-family="Helvetica,sans-Serif" font-size="10.00">+ name</text>
<text text-anchor="start" x="9" y="-209.5" font-family="Helvetica,sans-Serif" font-size="10.00"># size</text>
<polyline fill="none" stroke="black" points="1,-202.5 126,-202.5"/>
<text text-anchor="start" x="9" y="-190.5" font-family="Helvetica,sans-Serif" font-size="10.00">+ DryTensor()</text>
<text text-anchor="start" x="9" y="-179.5" font-family="Helvetica,sans-Serif" font-size="10.00">+ DryTensor()</text>
<text text-anchor="start" x="9" y="-168.5" font-family="Helvetica,sans-Serif" font-size="10.00">+ ~DryTensor()</text>
<text text-anchor="start" x="9" y="-157.5" font-family="Helvetica,sans-Serif" font-size="10.00">+ use()</text>
<text text-anchor="start" x="9" y="-146.5" font-family="Helvetica,sans-Serif" font-size="10.00">+ getElementsCount()</text>
<text text-anchor="start" x="9" y="-135.5" font-family="Helvetica,sans-Serif" font-size="10.00">+ set_name()</text>
<text text-anchor="start" x="9" y="-124.5" font-family="Helvetica,sans-Serif" font-size="10.00">+ get_name()</text>
<text text-anchor="start" x="9" y="-113.5" font-family="Helvetica,sans-Serif" font-size="10.00"># allocate()</text>
<text text-anchor="start" x="9" y="-102.5" font-family="Helvetica,sans-Serif" font-size="10.00"># free()</text>
</a>
</g>
</g>
<!-- Node2&#45;&gt;Node1 -->
<g id="edge1" class="edge">
<title>Node2&#45;&gt;Node1</title>
<path fill="none" stroke="midnightblue" d="M63.5,-85.23C63.5,-75.14 63.5,-65.67 63.5,-57.51"/>
<polygon fill="none" stroke="midnightblue" points="60,-85.49 63.5,-95.49 67,-85.49 60,-85.49"/>
</g>
<!-- Node3 -->
<g id="node3" class="node">
<title>Node3</title>
<g id="a_node3"><a xlink:href="classsisi4s_1_1SourceLocation.html" target="_top" xlink:title=" ">
<polygon fill="none" stroke="black" points="1,-580.5 1,-703.5 126,-703.5 126,-580.5 1,-580.5"/>
<text text-anchor="middle" x="63.5" y="-691.5" font-family="Helvetica,sans-Serif" font-size="10.00">sisi4s::SourceLocation</text>
<polyline fill="none" stroke="black" points="1,-684.5 126,-684.5"/>
<text text-anchor="start" x="9" y="-672.5" font-family="Helvetica,sans-Serif" font-size="10.00"># file</text>
<text text-anchor="start" x="9" y="-661.5" font-family="Helvetica,sans-Serif" font-size="10.00"># line</text>
<polyline fill="none" stroke="black" points="1,-654.5 126,-654.5"/>
<text text-anchor="start" x="9" y="-642.5" font-family="Helvetica,sans-Serif" font-size="10.00">+ SourceLocation()</text>
<text text-anchor="start" x="9" y="-631.5" font-family="Helvetica,sans-Serif" font-size="10.00">+ SourceLocation()</text>
<text text-anchor="start" x="9" y="-620.5" font-family="Helvetica,sans-Serif" font-size="10.00">+ SourceLocation()</text>
<text text-anchor="start" x="9" y="-609.5" font-family="Helvetica,sans-Serif" font-size="10.00">+ getLocation()</text>
<text text-anchor="start" x="9" y="-598.5" font-family="Helvetica,sans-Serif" font-size="10.00">+ getFile()</text>
<text text-anchor="start" x="9" y="-587.5" font-family="Helvetica,sans-Serif" font-size="10.00">+ getLine()</text>
</a>
</g>
</g>
<!-- Node3&#45;&gt;Node2 -->
<g id="edge2" class="edge">
<title>Node3&#45;&gt;Node2</title>
<path fill="none" stroke="#404040" d="M58.89,-580.49C57.9,-565.01 57,-548.4 56.5,-533 53.77,-448.6 54.48,-427.42 56.5,-343 56.77,-331.66 57.16,-319.84 57.62,-308.04"/>
<polygon fill="none" stroke="#404040" points="57.63,-307.76 53.87,-301.6 58.11,-295.77 61.87,-301.93 57.63,-307.76"/>
<text text-anchor="middle" x="82" y="-435.5" font-family="Helvetica,sans-Serif" font-size="10.00"> +location</text>
</g>
<!-- Node4 -->
<g id="node4" class="node">
<title>Node4</title>
<g id="a_node4"><a xlink:href="classsisi4s_1_1DryTensor.html" target="_top" xlink:title=" ">
<polygon fill="none" stroke="black" points="116.5,-343.5 116.5,-532.5 244.5,-532.5 244.5,-343.5 116.5,-343.5"/>
<text text-anchor="middle" x="180.5" y="-520.5" font-family="Helvetica,sans-Serif" font-size="10.00">sisi4s::DryTensor&lt; F &gt;</text>
<polyline fill="none" stroke="black" points="116.5,-513.5 244.5,-513.5"/>
<text text-anchor="start" x="124.5" y="-501.5" font-family="Helvetica,sans-Serif" font-size="10.00">+ order</text>
<text text-anchor="start" x="124.5" y="-490.5" font-family="Helvetica,sans-Serif" font-size="10.00">+ lens</text>
<text text-anchor="start" x="124.5" y="-479.5" font-family="Helvetica,sans-Serif" font-size="10.00">+ syms</text>
<text text-anchor="start" x="124.5" y="-468.5" font-family="Helvetica,sans-Serif" font-size="10.00">+ name</text>
<text text-anchor="start" x="124.5" y="-457.5" font-family="Helvetica,sans-Serif" font-size="10.00"># size</text>
<polyline fill="none" stroke="black" points="116.5,-450.5 244.5,-450.5"/>
<text text-anchor="start" x="124.5" y="-438.5" font-family="Helvetica,sans-Serif" font-size="10.00">+ DryTensor()</text>
<text text-anchor="start" x="124.5" y="-427.5" font-family="Helvetica,sans-Serif" font-size="10.00">+ DryTensor()</text>
<text text-anchor="start" x="124.5" y="-416.5" font-family="Helvetica,sans-Serif" font-size="10.00">+ ~DryTensor()</text>
<text text-anchor="start" x="124.5" y="-405.5" font-family="Helvetica,sans-Serif" font-size="10.00">+ use()</text>
<text text-anchor="start" x="124.5" y="-394.5" font-family="Helvetica,sans-Serif" font-size="10.00">+ getElementsCount()</text>
<text text-anchor="start" x="124.5" y="-383.5" font-family="Helvetica,sans-Serif" font-size="10.00">+ set_name()</text>
<text text-anchor="start" x="124.5" y="-372.5" font-family="Helvetica,sans-Serif" font-size="10.00">+ get_name()</text>
<text text-anchor="start" x="124.5" y="-361.5" font-family="Helvetica,sans-Serif" font-size="10.00"># allocate()</text>
<text text-anchor="start" x="124.5" y="-350.5" font-family="Helvetica,sans-Serif" font-size="10.00"># free()</text>
</a>
</g>
</g>
<!-- Node3&#45;&gt;Node4 -->
<g id="edge4" class="edge">
<title>Node3&#45;&gt;Node4</title>
<path fill="none" stroke="#404040" d="M98.6,-580.39C105.39,-568.68 112.67,-556.1 120,-543.45"/>
<polygon fill="none" stroke="#404040" points="120.14,-543.21 119.69,-536.01 126.16,-532.82 126.61,-540.02 120.14,-543.21"/>
<text text-anchor="middle" x="140" y="-554" font-family="Helvetica,sans-Serif" font-size="10.00"> +location</text>
</g>
<!-- Node4&#45;&gt;Node2 -->
<g id="edge3" class="edge">
<title>Node4&#45;&gt;Node2</title>
<path fill="none" stroke="orange" d="M130.46,-334.15C124.29,-321.46 117.99,-308.51 111.85,-295.88"/>
<polygon fill="orange" stroke="orange" points="127.41,-335.87 134.93,-343.33 133.7,-332.8 127.41,-335.87"/>
<text text-anchor="middle" x="155" y="-317" font-family="Helvetica,sans-Serif" font-size="10.00"> &lt; double &gt;</text>
</g>
</g>
</svg>
