<?xml version="1.0" encoding="UTF-8" standalone="no"?>
<!DOCTYPE svg PUBLIC "-//W3C//DTD SVG 1.1//EN"
 "http://www.w3.org/Graphics/SVG/1.1/DTD/svg11.dtd">
<!-- Generated by graphviz version 5.0.1 (0)
 -->
<!-- Title: CLI::App::get_description Pages: 1 -->
<svg width="300pt" height="134pt"
 viewBox="0.00 0.00 300.00 134.00" xmlns="http://www.w3.org/2000/svg" xmlns:xlink="http://www.w3.org/1999/xlink">
<g id="graph0" class="graph" transform="scale(1 1) rotate(0) translate(4 130)">
<title>CLI::App::get_description</title>
<!-- Node1 -->
<g id="node1" class="node">
<title>Node1</title>
<g id="a_node1"><a xlink:title="Get the app or subcommand description.">
<polygon fill="#999999" stroke="#666666" points="292,-72.5 155,-72.5 155,-53.5 292,-53.5 292,-72.5"/>
<text text-anchor="middle" x="223.5" y="-60.5" font-family="Helvetica,sans-Serif" font-size="10.00">CLI::App::get_description</text>
</a>
</g>
</g>
<!-- Node2 -->
<g id="node2" class="node">
<title>Node2</title>
<g id="a_node2"><a xlink:href="classCLI_1_1Formatter.html#a0f45c98dab9502d8241c24f9ea250ede" target="_top" xlink:title="This displays the description line.">
<polygon fill="white" stroke="#666666" points="119,-126 0,-126 0,-96 119,-96 119,-126"/>
<text text-anchor="start" x="8" y="-114" font-family="Helvetica,sans-Serif" font-size="10.00">CLI::Formatter::make</text>
<text text-anchor="middle" x="59.5" y="-103" font-family="Helvetica,sans-Serif" font-size="10.00">_description</text>
</a>
</g>
</g>
<!-- Node1&#45;&gt;Node2 -->
<g id="edge1" class="edge">
<title>Node1&#45;&gt;Node2</title>
<path fill="none" stroke="#63b8ff" d="M180.45,-75.46C159.33,-81.72 133.57,-89.35 111.34,-95.94"/>
<polygon fill="#63b8ff" stroke="#63b8ff" points="181.51,-78.79 190.11,-72.6 179.52,-72.08 181.51,-78.79"/>
</g>
<!-- Node3 -->
<g id="node3" class="node">
<title>Node3</title>
<g id="a_node3"><a xlink:href="classCLI_1_1Formatter.html#a82a62cd4b9833cab20e82c4d099c0c7f" target="_top" xlink:title="This prints out a subcommand.">
<polygon fill="white" stroke="#666666" points="119,-78 0,-78 0,-48 119,-48 119,-78"/>
<text text-anchor="start" x="8" y="-66" font-family="Helvetica,sans-Serif" font-size="10.00">CLI::Formatter::make</text>
<text text-anchor="middle" x="59.5" y="-55" font-family="Helvetica,sans-Serif" font-size="10.00">_subcommand</text>
</a>
</g>
</g>
<!-- Node1&#45;&gt;Node3 -->
<g id="edge2" class="edge">
<title>Node1&#45;&gt;Node3</title>
<path fill="none" stroke="#63b8ff" d="M144.72,-63C136.15,-63 127.53,-63 119.24,-63"/>
<polygon fill="#63b8ff" stroke="#63b8ff" points="144.74,-66.5 154.74,-63 144.74,-59.5 144.74,-66.5"/>
</g>
<!-- Node4 -->
<g id="node4" class="node">
<title>Node4</title>
<g id="a_node4"><a xlink:href="classCLI_1_1ConfigBase.html#a5832f6f03212648fa08a8ff83bc9bc08" target="_top" xlink:title="Convert an app into a configuration.">
<polygon fill="white" stroke="#666666" points="113.5,-30 5.5,-30 5.5,0 113.5,0 113.5,-30"/>
<text text-anchor="start" x="13.5" y="-18" font-family="Helvetica,sans-Serif" font-size="10.00">CLI::ConfigBase::to</text>
<text text-anchor="middle" x="59.5" y="-7" font-family="Helvetica,sans-Serif" font-size="10.00">_config</text>
</a>
</g>
</g>
<!-- Node1&#45;&gt;Node4 -->
<g id="edge3" class="edge">
<title>Node1&#45;&gt;Node4</title>
<path fill="none" stroke="#63b8ff" d="M180.45,-50.54C159.33,-44.28 133.57,-36.65 111.34,-30.06"/>
<polygon fill="#63b8ff" stroke="#63b8ff" points="179.52,-53.92 190.11,-53.4 181.51,-47.21 179.52,-53.92"/>
</g>
</g>
</svg>
