<?xml version="1.0" encoding="UTF-8" standalone="no"?>
<!DOCTYPE svg PUBLIC "-//W3C//DTD SVG 1.1//EN"
 "http://www.w3.org/Graphics/SVG/1.1/DTD/svg11.dtd">
<!-- Generated by graphviz version 7.1.0 (0)
 -->
<!-- Title: CLI::ArgumentMismatch Pages: 1 -->
<svg width="142pt" height="513pt"
 viewBox="0.00 0.00 142.00 513.00" xmlns="http://www.w3.org/2000/svg" xmlns:xlink="http://www.w3.org/1999/xlink">
<g id="graph0" class="graph" transform="scale(1 1) rotate(0) translate(4 509)">
<title>CLI::ArgumentMismatch</title>
<!-- Node1 -->
<g id="node1" class="node">
<title>Node1</title>
<g id="a_node1"><a xlink:title="Thrown when the wrong number of arguments has been received.">
<polygon fill="#999999" stroke="#666666" points="0,-0.5 0,-156.5 134,-156.5 134,-0.5 0,-0.5"/>
<text text-anchor="middle" x="67" y="-144.5" font-family="Helvetica,sans-Serif" font-size="10.00">CLI::ArgumentMismatch</text>
<polyline fill="none" stroke="#666666" points="0,-137.5 134,-137.5"/>
<text text-anchor="middle" x="67" y="-125.5" font-family="Helvetica,sans-Serif" font-size="10.00"> </text>
<polyline fill="none" stroke="#666666" points="0,-118.5 134,-118.5"/>
<text text-anchor="start" x="8" y="-106.5" font-family="Helvetica,sans-Serif" font-size="10.00">+ ArgumentMismatch()</text>
<text text-anchor="start" x="8" y="-95.5" font-family="Helvetica,sans-Serif" font-size="10.00">+ ArgumentMismatch()</text>
<text text-anchor="start" x="8" y="-84.5" font-family="Helvetica,sans-Serif" font-size="10.00">+ ArgumentMismatch()</text>
<text text-anchor="start" x="8" y="-73.5" font-family="Helvetica,sans-Serif" font-size="10.00">+ ArgumentMismatch()</text>
<text text-anchor="start" x="8" y="-62.5" font-family="Helvetica,sans-Serif" font-size="10.00">+ AtLeast()</text>
<text text-anchor="start" x="8" y="-51.5" font-family="Helvetica,sans-Serif" font-size="10.00">+ AtMost()</text>
<text text-anchor="start" x="8" y="-40.5" font-family="Helvetica,sans-Serif" font-size="10.00">+ TypedAtLeast()</text>
<text text-anchor="start" x="8" y="-29.5" font-family="Helvetica,sans-Serif" font-size="10.00">+ FlagOverride()</text>
<text text-anchor="start" x="8" y="-18.5" font-family="Helvetica,sans-Serif" font-size="10.00"># ArgumentMismatch()</text>
<text text-anchor="start" x="8" y="-7.5" font-family="Helvetica,sans-Serif" font-size="10.00"># ArgumentMismatch()</text>
</a>
</g>
</g>
<!-- Node2 -->
<g id="node2" class="node">
<title>Node2</title>
<g id="a_node2"><a xlink:href="classCLI_1_1ParseError.html" target="_top" xlink:title="Anything that can error in Parse.">
<polygon fill="white" stroke="#666666" points="23.5,-193.5 23.5,-283.5 110.5,-283.5 110.5,-193.5 23.5,-193.5"/>
<text text-anchor="middle" x="67" y="-271.5" font-family="Helvetica,sans-Serif" font-size="10.00">CLI::ParseError</text>
<polyline fill="none" stroke="#666666" points="23.5,-264.5 110.5,-264.5"/>
<text text-anchor="middle" x="67" y="-252.5" font-family="Helvetica,sans-Serif" font-size="10.00"> </text>
<polyline fill="none" stroke="#666666" points="23.5,-245.5 110.5,-245.5"/>
<text text-anchor="start" x="31.5" y="-233.5" font-family="Helvetica,sans-Serif" font-size="10.00">+ ParseError()</text>
<text text-anchor="start" x="31.5" y="-222.5" font-family="Helvetica,sans-Serif" font-size="10.00">+ ParseError()</text>
<text text-anchor="start" x="31.5" y="-211.5" font-family="Helvetica,sans-Serif" font-size="10.00"># ParseError()</text>
<text text-anchor="start" x="31.5" y="-200.5" font-family="Helvetica,sans-Serif" font-size="10.00"># ParseError()</text>
</a>
</g>
</g>
<!-- Node2&#45;&gt;Node1 -->
<g id="edge1" class="edge">
<title>Node2&#45;&gt;Node1</title>
<path fill="none" stroke="#63b8ff" d="M67,-182.61C67,-174.1 67,-165.18 67,-156.3"/>
<polygon fill="none" stroke="#63b8ff" points="63.5,-182.39 67,-192.39 70.5,-182.39 63.5,-182.39"/>
</g>
<!-- Node3 -->
<g id="node3" class="node">
<title>Node3</title>
<g id="a_node3"><a xlink:href="classCLI_1_1Error.html" target="_top" xlink:title="All errors derive from this one.">
<polygon fill="white" stroke="#666666" points="15,-320.5 15,-410.5 119,-410.5 119,-320.5 15,-320.5"/>
<text text-anchor="middle" x="67" y="-398.5" font-family="Helvetica,sans-Serif" font-size="10.00">CLI::Error</text>
<polyline fill="none" stroke="#666666" points="15,-391.5 119,-391.5"/>
<text text-anchor="middle" x="67" y="-379.5" font-family="Helvetica,sans-Serif" font-size="10.00"> </text>
<polyline fill="none" stroke="#666666" points="15,-372.5 119,-372.5"/>
<text text-anchor="start" x="23" y="-360.5" font-family="Helvetica,sans-Serif" font-size="10.00">+ get_exit_code()</text>
<text text-anchor="start" x="23" y="-349.5" font-family="Helvetica,sans-Serif" font-size="10.00">+ get_name()</text>
<text text-anchor="start" x="23" y="-338.5" font-family="Helvetica,sans-Serif" font-size="10.00">+ Error()</text>
<text text-anchor="start" x="23" y="-327.5" font-family="Helvetica,sans-Serif" font-size="10.00">+ Error()</text>
</a>
</g>
</g>
<!-- Node3&#45;&gt;Node2 -->
<g id="edge2" class="edge">
<title>Node3&#45;&gt;Node2</title>
<path fill="none" stroke="#63b8ff" d="M67,-309.48C67,-300.76 67,-291.83 67,-283.41"/>
<polygon fill="none" stroke="#63b8ff" points="63.5,-309.27 67,-319.27 70.5,-309.27 63.5,-309.27"/>
</g>
<!-- Node4 -->
<g id="node4" class="node">
<title>Node4</title>
<g id="a_node4"><a xlink:title=" ">
<polygon fill="white" stroke="#666666" points="15,-447.5 15,-504.5 119,-504.5 119,-447.5 15,-447.5"/>
<text text-anchor="middle" x="67" y="-492.5" font-family="Helvetica,sans-Serif" font-size="10.00">std::runtime_error</text>
<polyline fill="none" stroke="#666666" points="15,-485.5 119,-485.5"/>
<text text-anchor="middle" x="67" y="-473.5" font-family="Helvetica,sans-Serif" font-size="10.00"> </text>
<polyline fill="none" stroke="#666666" points="15,-466.5 119,-466.5"/>
<text text-anchor="middle" x="67" y="-454.5" font-family="Helvetica,sans-Serif" font-size="10.00"> </text>
</a>
</g>
</g>
<!-- Node4&#45;&gt;Node3 -->
<g id="edge3" class="edge">
<title>Node4&#45;&gt;Node3</title>
<path fill="none" stroke="#63b8ff" d="M67,-436.22C67,-427.83 67,-418.9 67,-410.34"/>
<polygon fill="none" stroke="#63b8ff" points="63.5,-436.11 67,-446.11 70.5,-436.11 63.5,-436.11"/>
</g>
</g>
</svg>
