<?xml version="1.0" encoding="UTF-8" standalone="no"?>
<!DOCTYPE svg PUBLIC "-//W3C//DTD SVG 1.1//EN"
 "http://www.w3.org/Graphics/SVG/1.1/DTD/svg11.dtd">
<!-- Generated by graphviz version 7.1.0 (0)
 -->
<!-- Title: sisi4s::ApproximateCoulombVertex::dryRun Pages: 1 -->
<svg width="627pt" height="76pt"
 viewBox="0.00 0.00 627.00 75.50" xmlns="http://www.w3.org/2000/svg" xmlns:xlink="http://www.w3.org/1999/xlink">
<g id="graph0" class="graph" transform="scale(1 1) rotate(0) translate(4 71.5)">
<title>sisi4s::ApproximateCoulombVertex::dryRun</title>
<!-- Node1 -->
<g id="node1" class="node">
<title>Node1</title>
<g id="a_node1"><a xlink:title="Dry run of approximating the Coulomb vertex.">
<polygon fill="#999999" stroke="#666666" points="157,-45.5 0,-45.5 0,-15.5 157,-15.5 157,-45.5"/>
<text text-anchor="start" x="8" y="-33.5" font-family="Helvetica,sans-Serif" font-size="10.00">sisi4s::ApproximateCoulomb</text>
<text text-anchor="middle" x="78.5" y="-22.5" font-family="Helvetica,sans-Serif" font-size="10.00">Vertex::dryRun</text>
</a>
</g>
</g>
<!-- Node2 -->
<g id="node2" class="node">
<title>Node2</title>
<g id="a_node2"><a xlink:href="classsisi4s_1_1Algorithm.html#a338a44c8fd4d6be3b32a6d5e71dfe180" target="_top" xlink:title=" ">
<polygon fill="white" stroke="#666666" points="305,-45.5 193,-45.5 193,-15.5 305,-15.5 305,-45.5"/>
<text text-anchor="start" x="201" y="-33.5" font-family="Helvetica,sans-Serif" font-size="10.00">sisi4s::Algorithm::</text>
<text text-anchor="middle" x="249" y="-22.5" font-family="Helvetica,sans-Serif" font-size="10.00">getTensorArgument</text>
</a>
</g>
</g>
<!-- Node1&#45;&gt;Node2 -->
<g id="edge1" class="edge">
<title>Node1&#45;&gt;Node2</title>
<path fill="none" stroke="#63b8ff" d="M157.34,-30.5C165.33,-30.5 173.41,-30.5 181.27,-30.5"/>
<polygon fill="#63b8ff" stroke="#63b8ff" points="181.08,-34 191.08,-30.5 181.08,-27 181.08,-34"/>
</g>
<!-- Node3 -->
<g id="node3" class="node">
<title>Node3</title>
<g id="a_node3"><a xlink:href="classsisi4s_1_1Algorithm.html#a1e53277220d32a33e20846267c253652" target="_top" xlink:title=" ">
<polygon fill="white" stroke="#666666" points="466.5,-67.5 362.5,-67.5 362.5,-37.5 466.5,-37.5 466.5,-67.5"/>
<text text-anchor="start" x="370.5" y="-55.5" font-family="Helvetica,sans-Serif" font-size="10.00">sisi4s::Algorithm::</text>
<text text-anchor="middle" x="414.5" y="-44.5" font-family="Helvetica,sans-Serif" font-size="10.00">getArgumentData</text>
</a>
</g>
</g>
<!-- Node2&#45;&gt;Node3 -->
<g id="edge2" class="edge">
<title>Node2&#45;&gt;Node3</title>
<path fill="none" stroke="#63b8ff" d="M305.35,-37.95C319.97,-39.92 335.85,-42.05 350.82,-44.07"/>
<polygon fill="#63b8ff" stroke="#63b8ff" points="350.18,-47.51 360.56,-45.38 351.12,-40.57 350.18,-47.51"/>
</g>
<!-- Node5 -->
<g id="node5" class="node">
<title>Node5</title>
<g id="a_node5"><a xlink:href="classsisi4s_1_1Data.html#a0ec0b1c7f2356fd43d82ee1dd0246789" target="_top" xlink:title=" ">
<polygon fill="white" stroke="#666666" points="488,-19 341,-19 341,0 488,0 488,-19"/>
<text text-anchor="middle" x="414.5" y="-7" font-family="Helvetica,sans-Serif" font-size="10.00">sisi4s::Data::getTypeName</text>
</a>
</g>
</g>
<!-- Node2&#45;&gt;Node5 -->
<g id="edge4" class="edge">
<title>Node2&#45;&gt;Node5</title>
<path fill="none" stroke="#63b8ff" d="M305.35,-23.39C313.04,-22.4 321.07,-21.37 329.13,-20.34"/>
<polygon fill="#63b8ff" stroke="#63b8ff" points="329.55,-23.81 339.02,-19.07 328.66,-16.87 329.55,-23.81"/>
</g>
<!-- Node4 -->
<g id="node4" class="node">
<title>Node4</title>
<g id="a_node4"><a xlink:href="classsisi4s_1_1Data.html#a5b4676e48b4f437d399587e6903f896a" target="_top" xlink:title=" ">
<polygon fill="white" stroke="#666666" points="619,-62 524,-62 524,-43 619,-43 619,-62"/>
<text text-anchor="middle" x="571.5" y="-50" font-family="Helvetica,sans-Serif" font-size="10.00">sisi4s::Data::get</text>
</a>
</g>
</g>
<!-- Node3&#45;&gt;Node4 -->
<g id="edge3" class="edge">
<title>Node3&#45;&gt;Node4</title>
<path fill="none" stroke="#63b8ff" d="M466.68,-52.5C481.3,-52.5 497.33,-52.5 512.33,-52.5"/>
<polygon fill="#63b8ff" stroke="#63b8ff" points="512.05,-56 522.05,-52.5 512.05,-49 512.05,-56"/>
</g>
</g>
</svg>
