<?xml version="1.0" encoding="UTF-8" standalone="no"?>
<!DOCTYPE svg PUBLIC "-//W3C//DTD SVG 1.1//EN"
 "http://www.w3.org/Graphics/SVG/1.1/DTD/svg11.dtd">
<!-- Generated by graphviz version 8.1.0 (0)
 -->
<!-- Title: sisi4s::GenerateRandomMatrix Pages: 1 -->
<svg width="474pt" height="728pt"
 viewBox="0.00 0.00 473.50 728.25" xmlns="http://www.w3.org/2000/svg" xmlns:xlink="http://www.w3.org/1999/xlink">
<g id="graph0" class="graph" transform="scale(1 1) rotate(0) translate(4 724.25)">
<title>sisi4s::GenerateRandomMatrix</title>
<!-- Node1 -->
<g id="Node000001" class="node">
<title>Node1</title>
<g id="a_Node000001"><a xlink:title=" ">
<polygon fill="#999999" stroke="none" points="182,-116 22,-116 22,0 182,0 182,-116"/>
<text text-anchor="start" x="26.62" y="-102.5" font-family="Helvetica,sans-Serif" font-size="10.00">sisi4s::GenerateRandomMatrix</text>
<text text-anchor="start" x="100.5" y="-86.5" font-family="Helvetica,sans-Serif" font-size="10.00"> </text>
<text text-anchor="start" x="27.88" y="-70.5" font-family="Helvetica,sans-Serif" font-size="10.00">+</text>
<text text-anchor="start" x="42" y="-70.5" font-family="Helvetica,sans-Serif" font-size="10.00">getName()</text>
<text text-anchor="start" x="27.88" y="-54.5" font-family="Helvetica,sans-Serif" font-size="10.00">+</text>
<text text-anchor="start" x="42" y="-54.5" font-family="Helvetica,sans-Serif" font-size="10.00">GenerateRandomMatrix()</text>
<text text-anchor="start" x="27.88" y="-38.5" font-family="Helvetica,sans-Serif" font-size="10.00">+</text>
<text text-anchor="start" x="42" y="-38.5" font-family="Helvetica,sans-Serif" font-size="10.00">~GenerateRandomMatrix()</text>
<text text-anchor="start" x="27.88" y="-22.5" font-family="Helvetica,sans-Serif" font-size="10.00">+</text>
<text text-anchor="start" x="42" y="-22.5" font-family="Helvetica,sans-Serif" font-size="10.00">run()</text>
<text text-anchor="start" x="27.88" y="-6.5" font-family="Helvetica,sans-Serif" font-size="10.00">+</text>
<text text-anchor="start" x="42" y="-6.5" font-family="Helvetica,sans-Serif" font-size="10.00">create()</text>
<polygon fill="#666666" stroke="#666666" points="22,-98 22,-98 182,-98 182,-98 22,-98"/>
<polygon fill="#666666" stroke="#666666" points="22,-82 22,-82 182,-82 182,-82 22,-82"/>
<polygon fill="none" stroke="#666666" points="22,0 22,-116 182,-116 182,0 22,0"/>
</a>
</g>
</g>
<!-- Node2 -->
<g id="Node000002" class="node">
<title>Node2</title>
<g id="a_Node000002"><a xlink:href="classsisi4s_1_1Algorithm.html" target="_top" xlink:title=" ">
<polygon fill="white" stroke="none" points="172,-472.75 0,-472.75 0,-164.75 172,-164.75 172,-472.75"/>
<text text-anchor="start" x="45.12" y="-459.25" font-family="Helvetica,sans-Serif" font-size="10.00">sisi4s::Algorithm</text>
<text text-anchor="start" x="3.88" y="-443.25" font-family="Helvetica,sans-Serif" font-size="10.00">+</text>
<text text-anchor="start" x="16" y="-443.25" font-family="Helvetica,sans-Serif" font-size="10.00">note</text>
<text text-anchor="start" x="3.88" y="-427.25" font-family="Helvetica,sans-Serif" font-size="10.00">+</text>
<text text-anchor="start" x="16" y="-427.25" font-family="Helvetica,sans-Serif" font-size="10.00">fallible</text>
<text text-anchor="start" x="3.88" y="-411.25" font-family="Helvetica,sans-Serif" font-size="10.00">#</text>
<text text-anchor="start" x="16" y="-411.25" font-family="Helvetica,sans-Serif" font-size="10.00">arguments</text>
<text text-anchor="start" x="3.88" y="-395.25" font-family="Helvetica,sans-Serif" font-size="10.00">+</text>
<text text-anchor="start" x="16" y="-395.25" font-family="Helvetica,sans-Serif" font-size="10.00">Algorithm()</text>
<text text-anchor="start" x="3.88" y="-379.25" font-family="Helvetica,sans-Serif" font-size="10.00">+</text>
<text text-anchor="start" x="16" y="-379.25" font-family="Helvetica,sans-Serif" font-size="10.00">~Algorithm()</text>
<text text-anchor="start" x="3.88" y="-363.25" font-family="Helvetica,sans-Serif" font-size="10.00">+</text>
<text text-anchor="start" x="16" y="-363.25" font-family="Helvetica,sans-Serif" font-size="10.00">getName()</text>
<text text-anchor="start" x="3.88" y="-347.25" font-family="Helvetica,sans-Serif" font-size="10.00">+</text>
<text text-anchor="start" x="16" y="-347.25" font-family="Helvetica,sans-Serif" font-size="10.00">run()</text>
<text text-anchor="start" x="3.88" y="-331.25" font-family="Helvetica,sans-Serif" font-size="10.00">+</text>
<text text-anchor="start" x="16" y="-331.25" font-family="Helvetica,sans-Serif" font-size="10.00">dryRun()</text>
<text text-anchor="start" x="3.88" y="-315.25" font-family="Helvetica,sans-Serif" font-size="10.00">+</text>
<text text-anchor="start" x="16" y="-315.25" font-family="Helvetica,sans-Serif" font-size="10.00">isArgumentGiven()</text>
<text text-anchor="start" x="3.88" y="-299.25" font-family="Helvetica,sans-Serif" font-size="10.00">+</text>
<text text-anchor="start" x="16" y="-299.25" font-family="Helvetica,sans-Serif" font-size="10.00">getTextArgument()</text>
<text text-anchor="start" x="3.88" y="-283.25" font-family="Helvetica,sans-Serif" font-size="10.00">+</text>
<text text-anchor="start" x="16" y="-283.25" font-family="Helvetica,sans-Serif" font-size="10.00">getTextArgument()</text>
<text text-anchor="start" x="3.88" y="-267.25" font-family="Helvetica,sans-Serif" font-size="10.00">+</text>
<text text-anchor="start" x="16" y="-267.25" font-family="Helvetica,sans-Serif" font-size="10.00">getBooleanArgument()</text>
<text text-anchor="start" x="3.88" y="-251.25" font-family="Helvetica,sans-Serif" font-size="10.00">+</text>
<text text-anchor="start" x="16" y="-251.25" font-family="Helvetica,sans-Serif" font-size="10.00">getBooleanArgument()</text>
<text text-anchor="start" x="16" y="-235.25" font-family="Helvetica,sans-Serif" font-size="10.00">and 12 more...</text>
<text text-anchor="start" x="3.88" y="-219.25" font-family="Helvetica,sans-Serif" font-size="10.00">#</text>
<text text-anchor="start" x="16" y="-219.25" font-family="Helvetica,sans-Serif" font-size="10.00">getRealArgumentFromInteger()</text>
<text text-anchor="start" x="3.88" y="-203.25" font-family="Helvetica,sans-Serif" font-size="10.00">#</text>
<text text-anchor="start" x="16" y="-203.25" font-family="Helvetica,sans-Serif" font-size="10.00">getRealArgumentFromTensor()</text>
<text text-anchor="start" x="3.88" y="-187.25" font-family="Helvetica,sans-Serif" font-size="10.00">#</text>
<text text-anchor="start" x="16" y="-187.25" font-family="Helvetica,sans-Serif" font-size="10.00">getTensorArgumentFromReal()</text>
<text text-anchor="start" x="3.88" y="-171.25" font-family="Helvetica,sans-Serif" font-size="10.00">#</text>
<text text-anchor="start" x="16" y="-171.25" font-family="Helvetica,sans-Serif" font-size="10.00">getArgumentData()</text>
<polygon fill="#666666" stroke="#666666" points="0,-454.75 0,-454.75 172,-454.75 172,-454.75 0,-454.75"/>
<polygon fill="#666666" stroke="#666666" points="0,-406.75 0,-406.75 14,-406.75 14,-406.75 0,-406.75"/>
<polygon fill="#666666" stroke="#666666" points="14,-406.75 14,-406.75 172,-406.75 172,-406.75 14,-406.75"/>
<polygon fill="none" stroke="#666666" points="0,-164.75 0,-472.75 172,-472.75 172,-164.75 0,-164.75"/>
</a>
</g>
</g>
<!-- Node2&#45;&gt;Node1 -->
<g id="edge1_Node000001_Node000002" class="edge">
<title>Node2&#45;&gt;Node1</title>
<g id="a_edge1_Node000001_Node000002"><a xlink:title=" ">
<path fill="none" stroke="#63b8ff" d="M96.12,-154.07C96.96,-140.58 97.76,-127.63 98.48,-115.87"/>
<polygon fill="none" stroke="#63b8ff" points="92.57,-153.79 95.45,-163.99 99.56,-154.23 92.57,-153.79"/>
</a>
</g>
</g>
<!-- Node3 -->
<g id="Node000003" class="node">
<title>Node3</title>
<g id="a_Node000003"><a xlink:href="classsisi4s_1_1AlgorithmRegistrar.html" target="_top" xlink:title=" ">
<polygon fill="white" stroke="none" points="373.5,-351.25 190.5,-351.25 190.5,-286.25 373.5,-286.25 373.5,-351.25"/>
<text text-anchor="start" x="195.38" y="-337.75" font-family="Helvetica,sans-Serif" font-size="10.00">sisi4s::AlgorithmRegistrar</text>
<text text-anchor="start" x="195.38" y="-325" font-family="Helvetica,sans-Serif" font-size="10.00">&lt; sisi4s::GenerateRandomMatrix &gt;</text>
<text text-anchor="start" x="280.5" y="-308.75" font-family="Helvetica,sans-Serif" font-size="10.00"> </text>
<text text-anchor="start" x="210.38" y="-292.75" font-family="Helvetica,sans-Serif" font-size="10.00">+</text>
<text text-anchor="start" x="238.5" y="-292.75" font-family="Helvetica,sans-Serif" font-size="10.00">AlgorithmRegistrar()</text>
<polygon fill="#666666" stroke="#666666" points="190.5,-320.25 190.5,-320.25 373.5,-320.25 373.5,-320.25 190.5,-320.25"/>
<polygon fill="#666666" stroke="#666666" points="190.5,-304.25 190.5,-304.25 373.5,-304.25 373.5,-304.25 190.5,-304.25"/>
<polygon fill="none" stroke="#666666" points="190.5,-286.25 190.5,-351.25 373.5,-351.25 373.5,-286.25 190.5,-286.25"/>
</a>
</g>
</g>
<!-- Node3&#45;&gt;Node1 -->
<g id="edge2_Node000001_Node000003" class="edge">
<title>Node3&#45;&gt;Node1</title>
<g id="a_edge2_Node000001_Node000003"><a xlink:title=" ">
<path fill="none" stroke="#63b8ff" d="M262.02,-286.33C242.01,-255.15 210.1,-206.16 181,-164.75 172.11,-152.1 162.42,-138.77 152.97,-126"/>
<polygon fill="none" stroke="#63b8ff" points="153.16,-126.26 146.37,-123.83 146,-116.63 152.79,-119.06 153.16,-126.26"/>
</a>
</g>
<text text-anchor="middle" x="195.88" y="-137.25" font-family="Helvetica,sans-Serif" font-size="10.00" fill="grey"> +registrar_</text>
</g>
<!-- Node4 -->
<g id="Node000004" class="node">
<title>Node4</title>
<g id="a_Node000004"><a xlink:href="classsisi4s_1_1AlgorithmFactory.html" target="_top" xlink:title=" ">
<polygon fill="white" stroke="none" points="325.5,-720.25 198.5,-720.25 198.5,-636.25 325.5,-636.25 325.5,-720.25"/>
<text text-anchor="start" x="203.5" y="-706.75" font-family="Helvetica,sans-Serif" font-size="10.00">sisi4s::AlgorithmFactory</text>
<text text-anchor="start" x="202.88" y="-690.75" font-family="Helvetica,sans-Serif" font-size="10.00">#</text>
<text text-anchor="start" x="215.5" y="-690.75" font-family="Helvetica,sans-Serif" font-size="10.00">algorithmMap</text>
<text text-anchor="start" x="202.88" y="-674.75" font-family="Helvetica,sans-Serif" font-size="10.00">+</text>
<text text-anchor="start" x="215.5" y="-674.75" font-family="Helvetica,sans-Serif" font-size="10.00">create()</text>
<text text-anchor="start" x="202.88" y="-658.75" font-family="Helvetica,sans-Serif" font-size="10.00">+</text>
<text text-anchor="start" x="215.5" y="-658.75" font-family="Helvetica,sans-Serif" font-size="10.00">getAlgorithmNames()</text>
<text text-anchor="start" x="202.88" y="-642.75" font-family="Helvetica,sans-Serif" font-size="10.00">#</text>
<text text-anchor="start" x="215.5" y="-642.75" font-family="Helvetica,sans-Serif" font-size="10.00">getAlgorithmMap()</text>
<polygon fill="#666666" stroke="#666666" points="198.5,-702.25 198.5,-702.25 325.5,-702.25 325.5,-702.25 198.5,-702.25"/>
<polygon fill="#666666" stroke="#666666" points="198.5,-686.25 198.5,-686.25 213.5,-686.25 213.5,-686.25 198.5,-686.25"/>
<polygon fill="#666666" stroke="#666666" points="213.5,-686.25 213.5,-686.25 325.5,-686.25 325.5,-686.25 213.5,-686.25"/>
<polygon fill="none" stroke="#666666" points="198.5,-636.25 198.5,-720.25 325.5,-720.25 325.5,-636.25 198.5,-636.25"/>
</a>
</g>
</g>
<!-- Node4&#45;&gt;Node3 -->
<g id="edge3_Node000003_Node000004" class="edge">
<title>Node4&#45;&gt;Node3</title>
<g id="a_edge3_Node000003_Node000004"><a xlink:title=" ">
<path fill="none" stroke="darkgreen" d="M264.39,-625.43C265.68,-598.27 267.35,-564.46 269,-534.25 272.57,-469.06 277.33,-392.76 279.99,-351"/>
<polygon fill="none" stroke="darkgreen" points="260.86,-625.1 263.88,-635.25 267.85,-625.43 260.86,-625.1"/>
</a>
</g>
</g>
<!-- Node5 -->
<g id="Node000005" class="node">
<title>Node5</title>
<g id="a_Node000005"><a xlink:href="classsisi4s_1_1AlgorithmRegistrar.html" target="_top" xlink:title="Class to be statically instantiated by an algorithm to register it in the AlgorithmFactory....">
<polygon fill="white" stroke="none" points="414,-599.25 278,-599.25 278,-534.25 414,-534.25 414,-599.25"/>
<text text-anchor="start" x="283" y="-585.75" font-family="Helvetica,sans-Serif" font-size="10.00">sisi4s::AlgorithmRegistrar</text>
<text text-anchor="start" x="299.5" y="-573" font-family="Helvetica,sans-Serif" font-size="10.00">&lt; AlgorithmType &gt;</text>
<text text-anchor="start" x="344.5" y="-556.75" font-family="Helvetica,sans-Serif" font-size="10.00"> </text>
<text text-anchor="start" x="285.88" y="-540.75" font-family="Helvetica,sans-Serif" font-size="10.00">+</text>
<text text-anchor="start" x="302" y="-540.75" font-family="Helvetica,sans-Serif" font-size="10.00">AlgorithmRegistrar()</text>
<polygon fill="#666666" stroke="#666666" points="278,-568.25 278,-568.25 414,-568.25 414,-568.25 278,-568.25"/>
<polygon fill="#666666" stroke="#666666" points="278,-552.25 278,-552.25 414,-552.25 414,-552.25 278,-552.25"/>
<polygon fill="none" stroke="#666666" points="278,-534.25 278,-599.25 414,-599.25 414,-534.25 278,-534.25"/>
</a>
</g>
</g>
<!-- Node4&#45;&gt;Node5 -->
<g id="edge5_Node000005_Node000004" class="edge">
<title>Node4&#45;&gt;Node5</title>
<g id="a_edge5_Node000005_Node000004"><a xlink:title=" ">
<path fill="none" stroke="darkgreen" d="M299.84,-627.92C307.39,-618.08 315.12,-608 322.05,-598.97"/>
<polygon fill="none" stroke="darkgreen" points="296.59,-625.41 293.28,-635.48 302.14,-629.67 296.59,-625.41"/>
</a>
</g>
</g>
<!-- Node5&#45;&gt;Node3 -->
<g id="edge4_Node000003_Node000005" class="edge">
<title>Node5&#45;&gt;Node3</title>
<g id="a_edge4_Node000003_Node000005"><a xlink:title=" ">
<path fill="none" stroke="orange" d="M335.08,-523.78C322.33,-474.77 301.53,-394.82 290.12,-350.97"/>
<polygon fill="orange" stroke="orange" points="331.92,-524.55 337.83,-533.34 338.7,-522.78 331.92,-524.55"/>
</a>
</g>
<text text-anchor="start" x="332" y="-506.75" font-family="Helvetica,sans-Serif" font-size="10.00" fill="grey"> &lt; sisi4s::GenerateRandom</text>
<text text-anchor="middle" x="398.75" y="-494" font-family="Helvetica,sans-Serif" font-size="10.00" fill="grey">Matrix &gt;</text>
</g>
</g>
</svg>
