<?xml version="1.0" encoding="UTF-8" standalone="no"?>
<!DOCTYPE svg PUBLIC "-//W3C//DTD SVG 1.1//EN"
 "http://www.w3.org/Graphics/SVG/1.1/DTD/svg11.dtd">
<!-- Generated by graphviz version 9.0.0 (0)
 -->
<!-- Title: sisi4s::UccsdAmplitudesFromCoulombIntegrals::run Pages: 1 -->
<svg width="911pt" height="322pt"
 viewBox="0.00 0.00 910.75 321.50" xmlns="http://www.w3.org/2000/svg" xmlns:xlink="http://www.w3.org/1999/xlink">
<g id="graph0" class="graph" transform="scale(1 1) rotate(0) translate(4 317.5)">
<title>sisi4s::UccsdAmplitudesFromCoulombIntegrals::run</title>
<!-- Node1 -->
<g id="Node000001" class="node">
<title>Node1</title>
<g id="a_Node000001"><a xlink:title="Calculates the energy of a ClusterSinglesDoubles algorithm.">
<polygon fill="#999999" stroke="#666666" points="159.25,-209.5 0,-209.5 0,-176 159.25,-176 159.25,-209.5"/>
<text text-anchor="start" x="8" y="-196" font-family="Helvetica,sans-Serif" font-size="10.00">sisi4s::UccsdAmplitudesFrom</text>
<text text-anchor="middle" x="79.62" y="-183.25" font-family="Helvetica,sans-Serif" font-size="10.00">CoulombIntegrals::run</text>
</a>
</g>
</g>
<!-- Node2 -->
<g id="Node000002" class="node">
<title>Node2</title>
<g id="a_Node000002"><a xlink:href="classsisi4s_1_1Algorithm.html#a89f4af1584daed17ef628784e7e9c443" target="_top" xlink:title=" ">
<polygon fill="white" stroke="#666666" points="351.12,-313.5 225.62,-313.5 225.62,-280 351.12,-280 351.12,-313.5"/>
<text text-anchor="start" x="233.62" y="-300" font-family="Helvetica,sans-Serif" font-size="10.00">sisi4s::Algorithm::</text>
<text text-anchor="middle" x="288.38" y="-287.25" font-family="Helvetica,sans-Serif" font-size="10.00">checkArgumentsOrDie</text>
</a>
</g>
</g>
<!-- Node1&#45;&gt;Node2 -->
<g id="edge1_Node000001_Node000002" class="edge">
<title>Node1&#45;&gt;Node2</title>
<g id="a_edge1_Node000001_Node000002"><a xlink:title=" ">
<path fill="none" stroke="#63b8ff" d="M101.34,-209.91C123.39,-227.41 159.91,-254.27 195.25,-270.75 201.48,-273.65 208.1,-276.3 214.82,-278.69"/>
<polygon fill="#63b8ff" stroke="#63b8ff" points="213.39,-281.9 223.99,-281.76 215.62,-275.27 213.39,-281.9"/>
</a>
</g>
</g>
<!-- Node4 -->
<g id="Node000004" class="node">
<title>Node4</title>
<g id="a_Node000004"><a xlink:href="classsisi4s_1_1UccsdAmplitudesFromCoulombIntegrals.html#ae3921eb9f91c5eb8ef4d9b10a140ae05" target="_top" xlink:title="Returns the abbreviation of the concrete algorithm, e.g. &quot;Ccd&quot;, &quot;Dcd&quot;.">
<polygon fill="white" stroke="#666666" points="381.5,-261.5 195.25,-261.5 195.25,-228 381.5,-228 381.5,-261.5"/>
<text text-anchor="start" x="203.25" y="-248" font-family="Helvetica,sans-Serif" font-size="10.00">sisi4s::UccsdAmplitudesFrom</text>
<text text-anchor="middle" x="288.38" y="-235.25" font-family="Helvetica,sans-Serif" font-size="10.00">CoulombIntegrals::getAbbreviation</text>
</a>
</g>
</g>
<!-- Node1&#45;&gt;Node4 -->
<g id="edge3_Node000001_Node000004" class="edge">
<title>Node1&#45;&gt;Node4</title>
<g id="a_edge3_Node000001_Node000004"><a xlink:title=" ">
<path fill="none" stroke="#63b8ff" d="M149.18,-209.99C168.04,-214.74 188.64,-219.92 208.05,-224.8"/>
<polygon fill="#63b8ff" stroke="#63b8ff" points="206.98,-228.14 217.54,-227.18 208.69,-221.35 206.98,-228.14"/>
</a>
</g>
</g>
<!-- Node5 -->
<g id="Node000005" class="node">
<title>Node5</title>
<g id="a_Node000005"><a xlink:href="classsisi4s_1_1Algorithm.html#a5db14be3b0d33bf80218a37223e27667" target="_top" xlink:title=" ">
<polygon fill="white" stroke="#666666" points="345.5,-209.5 231.25,-209.5 231.25,-176 345.5,-176 345.5,-209.5"/>
<text text-anchor="start" x="239.25" y="-196" font-family="Helvetica,sans-Serif" font-size="10.00">sisi4s::Algorithm::</text>
<text text-anchor="middle" x="288.38" y="-183.25" font-family="Helvetica,sans-Serif" font-size="10.00">getIntegerArgument</text>
</a>
</g>
</g>
<!-- Node1&#45;&gt;Node5 -->
<g id="edge4_Node000001_Node000005" class="edge">
<title>Node1&#45;&gt;Node5</title>
<g id="a_edge4_Node000001_Node000005"><a xlink:title=" ">
<path fill="none" stroke="#63b8ff" d="M159.67,-192.75C179.4,-192.75 200.38,-192.75 219.52,-192.75"/>
<polygon fill="#63b8ff" stroke="#63b8ff" points="219.34,-196.25 229.34,-192.75 219.34,-189.25 219.34,-196.25"/>
</a>
</g>
</g>
<!-- Node9 -->
<g id="Node000009" class="node">
<title>Node9</title>
<g id="a_Node000009"><a xlink:href="classsisi4s_1_1ClusterSinglesDoublesAlgorithm.html#a4a874bc6491b38c023de6936e298d2f0" target="_top" xlink:title="Calculates the energy of a ClusterSinglesDoubles algorithm.">
<polygon fill="white" stroke="#666666" points="368,-143.5 208.75,-143.5 208.75,-110 368,-110 368,-143.5"/>
<text text-anchor="start" x="216.75" y="-130" font-family="Helvetica,sans-Serif" font-size="10.00">sisi4s::ClusterSinglesDoubles</text>
<text text-anchor="middle" x="288.38" y="-117.25" font-family="Helvetica,sans-Serif" font-size="10.00">Algorithm::run</text>
</a>
</g>
</g>
<!-- Node1&#45;&gt;Node9 -->
<g id="edge8_Node000001_Node000009" class="edge">
<title>Node1&#45;&gt;Node9</title>
<g id="a_edge8_Node000001_Node000009"><a xlink:title=" ">
<path fill="none" stroke="#63b8ff" d="M134.41,-175.58C161.46,-166.95 194.45,-156.41 222.86,-147.34"/>
<polygon fill="#63b8ff" stroke="#63b8ff" points="223.6,-150.78 232.06,-144.41 221.47,-144.11 223.6,-150.78"/>
</a>
</g>
</g>
<!-- Node14 -->
<g id="Node000014" class="node">
<title>Node14</title>
<g id="a_Node000014"><a xlink:href="classsisi4s_1_1Algorithm.html#ae7d025ea18b3f0b91db42447c0617540" target="_top" xlink:title=" ">
<polygon fill="white" stroke="#666666" points="553.88,-33.5 440.38,-33.5 440.38,0 553.88,0 553.88,-33.5"/>
<text text-anchor="start" x="448.38" y="-20" font-family="Helvetica,sans-Serif" font-size="10.00">sisi4s::Algorithm::</text>
<text text-anchor="middle" x="497.12" y="-7.25" font-family="Helvetica,sans-Serif" font-size="10.00">setIntegerArgument</text>
</a>
</g>
</g>
<!-- Node1&#45;&gt;Node14 -->
<g id="edge15_Node000001_Node000014" class="edge">
<title>Node1&#45;&gt;Node14</title>
<g id="a_edge15_Node000001_Node000014"><a xlink:title=" ">
<path fill="none" stroke="#63b8ff" d="M97.31,-175.65C118.33,-155.03 156.43,-120.68 195.25,-100.75 270.69,-62.02 366.22,-39.27 429.15,-27.42"/>
<polygon fill="#63b8ff" stroke="#63b8ff" points="429.43,-30.93 438.64,-25.68 428.17,-24.04 429.43,-30.93"/>
</a>
</g>
</g>
<!-- Node3 -->
<g id="Node000003" class="node">
<title>Node3</title>
<g id="a_Node000003"><a xlink:href="classsisi4s_1_1Algorithm.html#acfd102240a53352574ed9b5632f1ef59" target="_top" xlink:title=" ">
<polygon fill="white" stroke="#666666" points="568.5,-313.5 425.75,-313.5 425.75,-280 568.5,-280 568.5,-313.5"/>
<text text-anchor="start" x="433.75" y="-300" font-family="Helvetica,sans-Serif" font-size="10.00">sisi4s::Algorithm::</text>
<text text-anchor="middle" x="497.12" y="-287.25" font-family="Helvetica,sans-Serif" font-size="10.00">getGivenArgumentNames</text>
</a>
</g>
</g>
<!-- Node2&#45;&gt;Node3 -->
<g id="edge2_Node000002_Node000003" class="edge">
<title>Node2&#45;&gt;Node3</title>
<g id="a_edge2_Node000002_Node000003"><a xlink:title=" ">
<path fill="none" stroke="#63b8ff" d="M351.41,-296.75C371.08,-296.75 393.14,-296.75 413.99,-296.75"/>
<polygon fill="#63b8ff" stroke="#63b8ff" points="413.92,-300.25 423.92,-296.75 413.92,-293.25 413.92,-300.25"/>
</a>
</g>
</g>
<!-- Node6 -->
<g id="Node000006" class="node">
<title>Node6</title>
<g id="a_Node000006"><a xlink:href="classsisi4s_1_1Algorithm.html#a1e53277220d32a33e20846267c253652" target="_top" xlink:title=" ">
<polygon fill="white" stroke="#666666" points="744.25,-104.5 640.5,-104.5 640.5,-71 744.25,-71 744.25,-104.5"/>
<text text-anchor="start" x="648.5" y="-91" font-family="Helvetica,sans-Serif" font-size="10.00">sisi4s::Algorithm::</text>
<text text-anchor="middle" x="692.38" y="-78.25" font-family="Helvetica,sans-Serif" font-size="10.00">getArgumentData</text>
</a>
</g>
</g>
<!-- Node5&#45;&gt;Node6 -->
<g id="edge5_Node000005_Node000006" class="edge">
<title>Node5&#45;&gt;Node6</title>
<g id="a_edge5_Node000005_Node000006"><a xlink:title=" ">
<path fill="none" stroke="#63b8ff" d="M345.88,-205.45C406.79,-216.04 504.67,-223.8 576.75,-184.75 601.46,-171.36 592.04,-151.76 612.75,-132.75 621.98,-124.28 633.07,-116.73 643.98,-110.34"/>
<polygon fill="#63b8ff" stroke="#63b8ff" points="645.54,-113.48 652.56,-105.54 642.12,-107.37 645.54,-113.48"/>
</a>
</g>
</g>
<!-- Node8 -->
<g id="Node000008" class="node">
<title>Node8</title>
<g id="a_Node000008"><a xlink:href="classsisi4s_1_1Data.html#a0ec0b1c7f2356fd43d82ee1dd0246789" target="_top" xlink:title=" ">
<polygon fill="white" stroke="#666666" points="570.38,-252.12 423.88,-252.12 423.88,-231.38 570.38,-231.38 570.38,-252.12"/>
<text text-anchor="middle" x="497.12" y="-238.62" font-family="Helvetica,sans-Serif" font-size="10.00">sisi4s::Data::getTypeName</text>
</a>
</g>
</g>
<!-- Node5&#45;&gt;Node8 -->
<g id="edge7_Node000005_Node000008" class="edge">
<title>Node5&#45;&gt;Node8</title>
<g id="a_edge7_Node000005_Node000008"><a xlink:title=" ">
<path fill="none" stroke="#63b8ff" d="M345.87,-206.14C375.02,-213.05 410.49,-221.45 439.64,-228.36"/>
<polygon fill="#63b8ff" stroke="#63b8ff" points="438.47,-231.68 449.01,-230.58 440.08,-224.87 438.47,-231.68"/>
</a>
</g>
</g>
<!-- Node7 -->
<g id="Node000007" class="node">
<title>Node7</title>
<g id="a_Node000007"><a xlink:href="classsisi4s_1_1Data.html#a5b4676e48b4f437d399587e6903f896a" target="_top" xlink:title=" ">
<polygon fill="white" stroke="#666666" points="902.75,-98.12 808,-98.12 808,-77.38 902.75,-77.38 902.75,-98.12"/>
<text text-anchor="middle" x="855.38" y="-84.62" font-family="Helvetica,sans-Serif" font-size="10.00">sisi4s::Data::get</text>
</a>
</g>
</g>
<!-- Node6&#45;&gt;Node7 -->
<g id="edge6_Node000006_Node000007" class="edge">
<title>Node6&#45;&gt;Node7</title>
<g id="a_edge6_Node000006_Node000007"><a xlink:title=" ">
<path fill="none" stroke="#63b8ff" d="M744.32,-87.75C760.78,-87.75 779.17,-87.75 796.12,-87.75"/>
<polygon fill="#63b8ff" stroke="#63b8ff" points="796.08,-91.25 806.08,-87.75 796.08,-84.25 796.08,-91.25"/>
</a>
</g>
</g>
<!-- Node9&#45;&gt;Node6 -->
<g id="edge9_Node000009_Node000006" class="edge">
<title>Node9&#45;&gt;Node6</title>
<g id="a_edge9_Node000009_Node000006"><a xlink:title=" ">
<path fill="none" stroke="#63b8ff" d="M368.32,-119.09C444.56,-111.69 558.51,-100.64 628.72,-93.83"/>
<polygon fill="#63b8ff" stroke="#63b8ff" points="628.91,-97.33 638.52,-92.88 628.23,-90.36 628.91,-97.33"/>
</a>
</g>
</g>
<!-- Node10 -->
<g id="Node000010" class="node">
<title>Node10</title>
<g id="a_Node000010"><a xlink:href="classsisi4s_1_1ClusterSinglesDoublesAlgorithm.html#ac4e86100aee3802ce4a75a737eff7ec0" target="_top" xlink:title=" ">
<polygon fill="white" stroke="#666666" points="576.75,-175.5 417.5,-175.5 417.5,-142 576.75,-142 576.75,-175.5"/>
<text text-anchor="start" x="425.5" y="-162" font-family="Helvetica,sans-Serif" font-size="10.00">sisi4s::ClusterSinglesDoubles</text>
<text text-anchor="middle" x="497.12" y="-149.25" font-family="Helvetica,sans-Serif" font-size="10.00">Algorithm::getDataName</text>
</a>
</g>
</g>
<!-- Node9&#45;&gt;Node10 -->
<g id="edge10_Node000009_Node000010" class="edge">
<title>Node9&#45;&gt;Node10</title>
<g id="a_edge10_Node000009_Node000010"><a xlink:title=" ">
<path fill="none" stroke="#63b8ff" d="M368.42,-138.98C380.64,-140.88 393.34,-142.84 405.79,-144.77"/>
<polygon fill="#63b8ff" stroke="#63b8ff" points="405.21,-148.22 415.62,-146.29 406.28,-141.3 405.21,-148.22"/>
</a>
</g>
</g>
<!-- Node12 -->
<g id="Node000012" class="node">
<title>Node12</title>
<g id="a_Node000012"><a xlink:href="classsisi4s_1_1Algorithm.html#af6f931ab83742cc23b4f4350d54a3fcd" target="_top" xlink:title=" ">
<polygon fill="white" stroke="#666666" points="549,-85.5 445.25,-85.5 445.25,-52 549,-52 549,-85.5"/>
<text text-anchor="start" x="453.25" y="-72" font-family="Helvetica,sans-Serif" font-size="10.00">sisi4s::Algorithm::</text>
<text text-anchor="middle" x="497.12" y="-59.25" font-family="Helvetica,sans-Serif" font-size="10.00">setRealArgument</text>
</a>
</g>
</g>
<!-- Node9&#45;&gt;Node12 -->
<g id="edge12_Node000009_Node000012" class="edge">
<title>Node9&#45;&gt;Node12</title>
<g id="a_edge12_Node000009_Node000012"><a xlink:title=" ">
<path fill="none" stroke="#63b8ff" d="M350.85,-109.51C377.09,-102.14 407.68,-93.56 434,-86.18"/>
<polygon fill="#63b8ff" stroke="#63b8ff" points="434.85,-89.58 443.53,-83.5 432.96,-82.84 434.85,-89.58"/>
</a>
</g>
</g>
<!-- Node11 -->
<g id="Node000011" class="node">
<title>Node11</title>
<g id="a_Node000011"><a xlink:href="classsisi4s_1_1ClusterSinglesDoublesAlgorithm.html#ab3f7208a643558d8c36324038e0d3130" target="_top" xlink:title="Returns the abbreviation of the concrete algorithm, e.g. &quot;Ccd&quot;, &quot;Dcd&quot;.">
<polygon fill="white" stroke="#666666" points="772,-175.5 612.75,-175.5 612.75,-142 772,-142 772,-175.5"/>
<text text-anchor="start" x="620.75" y="-162" font-family="Helvetica,sans-Serif" font-size="10.00">sisi4s::ClusterSinglesDoubles</text>
<text text-anchor="middle" x="692.38" y="-149.25" font-family="Helvetica,sans-Serif" font-size="10.00">Algorithm::getAbbreviation</text>
</a>
</g>
</g>
<!-- Node10&#45;&gt;Node11 -->
<g id="edge11_Node000010_Node000011" class="edge">
<title>Node10&#45;&gt;Node11</title>
<g id="a_edge11_Node000010_Node000011"><a xlink:title=" ">
<path fill="none" stroke="#63b8ff" d="M577.01,-158.75C584.95,-158.75 593.06,-158.75 601.11,-158.75"/>
<polygon fill="#63b8ff" stroke="#63b8ff" points="600.92,-162.25 610.92,-158.75 600.92,-155.25 600.92,-162.25"/>
</a>
</g>
</g>
<!-- Node12&#45;&gt;Node6 -->
<g id="edge13_Node000012_Node000006" class="edge">
<title>Node12&#45;&gt;Node6</title>
<g id="a_edge13_Node000012_Node000006"><a xlink:title=" ">
<path fill="none" stroke="#63b8ff" d="M549.41,-73.79C573.85,-76.2 603.31,-79.09 629.04,-81.62"/>
<polygon fill="#63b8ff" stroke="#63b8ff" points="628.39,-85.07 638.68,-82.57 629.08,-78.11 628.39,-85.07"/>
</a>
</g>
</g>
<!-- Node13 -->
<g id="Node000013" class="node">
<title>Node13</title>
<g id="a_Node000013"><a xlink:href="classsisi4s_1_1Data.html#a10819dce08cb4dd8d881b9fe02036d69" target="_top" xlink:title=" ">
<polygon fill="white" stroke="#666666" points="754.38,-50.12 630.38,-50.12 630.38,-29.38 754.38,-29.38 754.38,-50.12"/>
<text text-anchor="middle" x="692.38" y="-36.62" font-family="Helvetica,sans-Serif" font-size="10.00">sisi4s::Data::getName</text>
</a>
</g>
</g>
<!-- Node12&#45;&gt;Node13 -->
<g id="edge14_Node000012_Node000013" class="edge">
<title>Node12&#45;&gt;Node13</title>
<g id="a_edge14_Node000012_Node000013"><a xlink:title=" ">
<path fill="none" stroke="#63b8ff" d="M549.41,-61.05C570.74,-57.85 595.88,-54.08 619.04,-50.6"/>
<polygon fill="#63b8ff" stroke="#63b8ff" points="619.36,-54.1 628.73,-49.15 618.32,-47.17 619.36,-54.1"/>
</a>
</g>
</g>
<!-- Node14&#45;&gt;Node6 -->
<g id="edge16_Node000014_Node000006" class="edge">
<title>Node14&#45;&gt;Node6</title>
<g id="a_edge16_Node000014_Node000006"><a xlink:title=" ">
<path fill="none" stroke="#63b8ff" d="M552.51,-33.96C560.68,-36.77 568.97,-39.74 576.75,-42.75 593.08,-49.06 596.53,-52.16 612.75,-58.75 619.21,-61.37 626,-64.03 632.78,-66.62"/>
<polygon fill="#63b8ff" stroke="#63b8ff" points="631.36,-69.82 641.95,-70.07 633.83,-63.27 631.36,-69.82"/>
</a>
</g>
</g>
<!-- Node14&#45;&gt;Node13 -->
<g id="edge17_Node000014_Node000013" class="edge">
<title>Node14&#45;&gt;Node13</title>
<g id="a_edge17_Node000014_Node000013"><a xlink:title=" ">
<path fill="none" stroke="#63b8ff" d="M554.28,-23.43C574.4,-25.83 597.38,-28.56 618.7,-31.1"/>
<polygon fill="#63b8ff" stroke="#63b8ff" points="618.16,-34.56 628.5,-32.27 618.99,-27.61 618.16,-34.56"/>
</a>
</g>
</g>
</g>
</svg>
