<?xml version="1.0" encoding="UTF-8" standalone="no"?>
<!DOCTYPE svg PUBLIC "-//W3C//DTD SVG 1.1//EN"
 "http://www.w3.org/Graphics/SVG/1.1/DTD/svg11.dtd">
<!-- Generated by graphviz version 5.0.1 (0)
 -->
<!-- Title: CLI::OptionBase::get_group Pages: 1 -->
<svg width="434pt" height="167pt"
 viewBox="0.00 0.00 434.00 167.00" xmlns="http://www.w3.org/2000/svg" xmlns:xlink="http://www.w3.org/1999/xlink">
<g id="graph0" class="graph" transform="scale(1 1) rotate(0) translate(4 163)">
<title>CLI::OptionBase::get_group</title>
<!-- Node1 -->
<g id="node1" class="node">
<title>Node1</title>
<g id="a_node1"><a xlink:title="Get the group of this option.">
<polygon fill="#999999" stroke="#666666" points="426,-92 310,-92 310,-62 426,-62 426,-92"/>
<text text-anchor="start" x="318" y="-80" font-family="Helvetica,sans-Serif" font-size="10.00">CLI::OptionBase::get</text>
<text text-anchor="middle" x="368" y="-69" font-family="Helvetica,sans-Serif" font-size="10.00">_group</text>
</a>
</g>
</g>
<!-- Node2 -->
<g id="node2" class="node">
<title>Node2</title>
<g id="a_node2"><a xlink:href="classCLI_1_1App.html#af0d7e22ac4f12250818bce3e22e8d569" target="_top" xlink:title="Get the groups available directly from this option (in order)">
<polygon fill="white" stroke="#666666" points="272.5,-105.5 156.5,-105.5 156.5,-86.5 272.5,-86.5 272.5,-105.5"/>
<text text-anchor="middle" x="214.5" y="-93.5" font-family="Helvetica,sans-Serif" font-size="10.00">CLI::App::get_groups</text>
</a>
</g>
</g>
<!-- Node1&#45;&gt;Node2 -->
<g id="edge1" class="edge">
<title>Node1&#45;&gt;Node2</title>
<path fill="none" stroke="#63b8ff" d="M299.63,-85.45C290.61,-86.58 281.43,-87.73 272.61,-88.84"/>
<polygon fill="#63b8ff" stroke="#63b8ff" points="300.24,-88.9 309.72,-84.18 299.37,-81.95 300.24,-88.9"/>
</g>
<!-- Node3 -->
<g id="node3" class="node">
<title>Node3</title>
<g id="a_node3"><a xlink:href="classCLI_1_1Formatter.html#ad48dd6b9432babc0037d6726230221f0" target="_top" xlink:title="This prints out all the groups of options.">
<polygon fill="white" stroke="#666666" points="119,-159 0,-159 0,-129 119,-129 119,-159"/>
<text text-anchor="start" x="8" y="-147" font-family="Helvetica,sans-Serif" font-size="10.00">CLI::Formatter::make</text>
<text text-anchor="middle" x="59.5" y="-136" font-family="Helvetica,sans-Serif" font-size="10.00">_groups</text>
</a>
</g>
</g>
<!-- Node1&#45;&gt;Node3 -->
<g id="edge5" class="edge">
<title>Node1&#45;&gt;Node3</title>
<path fill="none" stroke="#63b8ff" d="M325.06,-96.16C309.33,-102.68 291.11,-109.46 274,-114 222.62,-127.62 162.55,-135.36 119.24,-139.55"/>
<polygon fill="#63b8ff" stroke="#63b8ff" points="326.67,-99.28 334.51,-92.15 323.93,-92.83 326.67,-99.28"/>
</g>
<!-- Node5 -->
<g id="node5" class="node">
<title>Node5</title>
<g id="a_node5"><a xlink:href="classCLI_1_1ConfigBase.html#a5832f6f03212648fa08a8ff83bc9bc08" target="_top" xlink:title="Convert an app into a configuration.">
<polygon fill="white" stroke="#666666" points="113.5,-63 5.5,-63 5.5,-33 113.5,-33 113.5,-63"/>
<text text-anchor="start" x="13.5" y="-51" font-family="Helvetica,sans-Serif" font-size="10.00">CLI::ConfigBase::to</text>
<text text-anchor="middle" x="59.5" y="-40" font-family="Helvetica,sans-Serif" font-size="10.00">_config</text>
</a>
</g>
</g>
<!-- Node1&#45;&gt;Node5 -->
<g id="edge7" class="edge">
<title>Node1&#45;&gt;Node5</title>
<path fill="none" stroke="#63b8ff" d="M299.54,-70.62C243.62,-65.33 165.22,-57.91 113.66,-53.03"/>
<polygon fill="#63b8ff" stroke="#63b8ff" points="299.42,-74.12 309.71,-71.58 300.08,-67.15 299.42,-74.12"/>
</g>
<!-- Node6 -->
<g id="node6" class="node">
<title>Node6</title>
<g id="a_node6"><a xlink:href="classCLI_1_1Formatter.html#aab5f07a6d3154ace0be4d9dbf85f795b" target="_top" xlink:title="This prints out just the positionals &quot;group&quot;.">
<polygon fill="white" stroke="#666666" points="274,-30 155,-30 155,0 274,0 274,-30"/>
<text text-anchor="start" x="163" y="-18" font-family="Helvetica,sans-Serif" font-size="10.00">CLI::Formatter::make</text>
<text text-anchor="middle" x="214.5" y="-7" font-family="Helvetica,sans-Serif" font-size="10.00">_positionals</text>
</a>
</g>
</g>
<!-- Node1&#45;&gt;Node6 -->
<g id="edge6" class="edge">
<title>Node1&#45;&gt;Node6</title>
<path fill="none" stroke="#63b8ff" d="M320.86,-58.12C298.9,-49.13 272.99,-38.53 252.36,-30.09"/>
<polygon fill="#63b8ff" stroke="#63b8ff" points="319.75,-61.44 330.33,-61.99 322.4,-54.96 319.75,-61.44"/>
</g>
<!-- Node2&#45;&gt;Node3 -->
<g id="edge2" class="edge">
<title>Node2&#45;&gt;Node3</title>
<path fill="none" stroke="#63b8ff" d="M173.24,-108.63C153.4,-114.86 129.32,-122.41 108.51,-128.94"/>
<polygon fill="#63b8ff" stroke="#63b8ff" points="174.41,-111.93 182.91,-105.6 172.32,-105.25 174.41,-111.93"/>
</g>
<!-- Node4 -->
<g id="node4" class="node">
<title>Node4</title>
<g id="a_node4"><a xlink:href="classCLI_1_1Formatter.html#a3aac4a7ce4ca139704e632915892024c" target="_top" xlink:title="This displays the usage line.">
<polygon fill="white" stroke="#666666" points="119,-111 0,-111 0,-81 119,-81 119,-111"/>
<text text-anchor="start" x="8" y="-99" font-family="Helvetica,sans-Serif" font-size="10.00">CLI::Formatter::make</text>
<text text-anchor="middle" x="59.5" y="-88" font-family="Helvetica,sans-Serif" font-size="10.00">_usage</text>
</a>
</g>
</g>
<!-- Node2&#45;&gt;Node4 -->
<g id="edge3" class="edge">
<title>Node2&#45;&gt;Node4</title>
<path fill="none" stroke="#63b8ff" d="M146.09,-96C137.15,-96 128.03,-96 119.25,-96"/>
<polygon fill="#63b8ff" stroke="#63b8ff" points="146.09,-99.5 156.09,-96 146.09,-92.5 146.09,-99.5"/>
</g>
<!-- Node2&#45;&gt;Node5 -->
<g id="edge4" class="edge">
<title>Node2&#45;&gt;Node5</title>
<path fill="none" stroke="#63b8ff" d="M173.24,-83.37C153.4,-77.14 129.32,-69.59 108.51,-63.06"/>
<polygon fill="#63b8ff" stroke="#63b8ff" points="172.32,-86.75 182.91,-86.4 174.41,-80.07 172.32,-86.75"/>
</g>
</g>
</svg>
