<?xml version="1.0" encoding="UTF-8" standalone="no"?>
<!DOCTYPE svg PUBLIC "-//W3C//DTD SVG 1.1//EN"
 "http://www.w3.org/Graphics/SVG/1.1/DTD/svg11.dtd">
<!-- Generated by graphviz version 8.1.0 (0)
 -->
<!-- Title: ghc::filesystem::basic_ifstream&lt; charT, traits &gt; Pages: 1 -->
<svg width="145pt" height="267pt"
 viewBox="0.00 0.00 145.00 267.00" xmlns="http://www.w3.org/2000/svg" xmlns:xlink="http://www.w3.org/1999/xlink">
<g id="graph0" class="graph" transform="scale(1 1) rotate(0) translate(4 263)">
<title>ghc::filesystem::basic_ifstream&lt; charT, traits &gt;</title>
<!-- Node1 -->
<g id="Node000001" class="node">
<title>Node1</title>
<g id="a_Node000001"><a xlink:title=" ">
<polygon fill="#999999" stroke="none" points="137,-145 0,-145 0,0 137,0 137,-145"/>
<text text-anchor="start" x="4.75" y="-131.5" font-family="Helvetica,sans-Serif" font-size="10.00">ghc::filesystem::basic</text>
<text text-anchor="start" x="4.75" y="-118.75" font-family="Helvetica,sans-Serif" font-size="10.00">_ifstream&lt; charT, traits &gt;</text>
<text text-anchor="start" x="67" y="-102.5" font-family="Helvetica,sans-Serif" font-size="10.00"> </text>
<text text-anchor="start" x="11.38" y="-86.5" font-family="Helvetica,sans-Serif" font-size="10.00">+</text>
<text text-anchor="start" x="31" y="-86.5" font-family="Helvetica,sans-Serif" font-size="10.00">basic_ifstream()</text>
<text text-anchor="start" x="11.38" y="-70.5" font-family="Helvetica,sans-Serif" font-size="10.00">+</text>
<text text-anchor="start" x="31" y="-70.5" font-family="Helvetica,sans-Serif" font-size="10.00">basic_ifstream()</text>
<text text-anchor="start" x="11.38" y="-54.5" font-family="Helvetica,sans-Serif" font-size="10.00">+</text>
<text text-anchor="start" x="31" y="-54.5" font-family="Helvetica,sans-Serif" font-size="10.00">open()</text>
<text text-anchor="start" x="11.38" y="-38.5" font-family="Helvetica,sans-Serif" font-size="10.00">+</text>
<text text-anchor="start" x="31" y="-38.5" font-family="Helvetica,sans-Serif" font-size="10.00">basic_ifstream()</text>
<text text-anchor="start" x="11.38" y="-22.5" font-family="Helvetica,sans-Serif" font-size="10.00">+</text>
<text text-anchor="start" x="31" y="-22.5" font-family="Helvetica,sans-Serif" font-size="10.00">operator=()</text>
<text text-anchor="start" x="11.38" y="-6.5" font-family="Helvetica,sans-Serif" font-size="10.00">+</text>
<text text-anchor="start" x="31" y="-6.5" font-family="Helvetica,sans-Serif" font-size="10.00">~basic_ifstream()</text>
<polygon fill="#666666" stroke="#666666" points="0,-114 0,-114 137,-114 137,-114 0,-114"/>
<polygon fill="#666666" stroke="#666666" points="0,-98 0,-98 137,-98 137,-98 0,-98"/>
<polygon fill="none" stroke="#666666" points="0,0 0,-145 137,-145 137,0 0,0"/>
</a>
</g>
</g>
<!-- Node2 -->
<g id="Node000002" class="node">
<title>Node2</title>
<g id="a_Node000002"><a xlink:title=" ">
<polygon fill="white" stroke="none" points="132,-259 5,-259 5,-181 132,-181 132,-259"/>
<text text-anchor="start" x="10" y="-245.5" font-family="Helvetica,sans-Serif" font-size="10.00">std::basic_ifstream</text>
<text text-anchor="start" x="10" y="-232.75" font-family="Helvetica,sans-Serif" font-size="10.00">&lt; charT, std::char_traits</text>
<text text-anchor="start" x="39.62" y="-220" font-family="Helvetica,sans-Serif" font-size="10.00">&lt;charT&gt; &#160;&gt;</text>
<text text-anchor="start" x="67" y="-203.5" font-family="Helvetica,sans-Serif" font-size="10.00"> </text>
<text text-anchor="start" x="67" y="-187.5" font-family="Helvetica,sans-Serif" font-size="10.00"> </text>
<polygon fill="#666666" stroke="#666666" points="5,-215 5,-215 132,-215 132,-215 5,-215"/>
<polygon fill="#666666" stroke="#666666" points="5,-199 5,-199 132,-199 132,-199 5,-199"/>
<polygon fill="none" stroke="#666666" points="5,-181 5,-259 132,-259 132,-181 5,-181"/>
</a>
</g>
</g>
<!-- Node2&#45;&gt;Node1 -->
<g id="edge1_Node000001_Node000002" class="edge">
<title>Node2&#45;&gt;Node1</title>
<g id="a_edge1_Node000001_Node000002"><a xlink:title=" ">
<path fill="none" stroke="#63b8ff" d="M68.5,-170.27C68.5,-162.06 68.5,-153.38 68.5,-144.72"/>
<polygon fill="none" stroke="#63b8ff" points="65,-170.15 68.5,-180.15 72,-170.15 65,-170.15"/>
</a>
</g>
</g>
</g>
</svg>
