<?xml version="1.0" encoding="UTF-8" standalone="no"?>
<!DOCTYPE svg PUBLIC "-//W3C//DTD SVG 1.1//EN"
 "http://www.w3.org/Graphics/SVG/1.1/DTD/svg11.dtd">
<!-- Generated by graphviz version 5.0.1 (0)
 -->
<!-- Title: sisi4s::CoulombVertexDecomposition::computeOutgoingPi Pages: 1 -->
<svg width="742pt" height="113pt"
 viewBox="0.00 0.00 742.00 113.00" xmlns="http://www.w3.org/2000/svg" xmlns:xlink="http://www.w3.org/1999/xlink">
<g id="graph0" class="graph" transform="scale(1 1) rotate(0) translate(4 109)">
<title>sisi4s::CoulombVertexDecomposition::computeOutgoingPi</title>
<!-- Node1 -->
<g id="node1" class="node">
<title>Node1</title>
<g id="a_node1"><a xlink:title="Takes the incoming factor orbitals and computes the outgoing factor orbitals according to the chosen ...">
<polygon fill="#999999" stroke="#666666" points="199,-88.5 0,-88.5 0,-58.5 199,-58.5 199,-88.5"/>
<text text-anchor="start" x="8" y="-76.5" font-family="Helvetica,sans-Serif" font-size="10.00">sisi4s::CoulombVertexDecomposition</text>
<text text-anchor="middle" x="99.5" y="-65.5" font-family="Helvetica,sans-Serif" font-size="10.00">::computeOutgoingPi</text>
</a>
</g>
</g>
<!-- Node2 -->
<g id="node2" class="node">
<title>Node2</title>
<g id="a_node2"><a xlink:href="classsisi4s_1_1IterativePseudoInverse.html#a1549bac3e662a0bdf1cf6ab25608dff4" target="_top" xlink:title=" ">
<polygon fill="white" stroke="#666666" points="420,-105 235,-105 235,-86 420,-86 420,-105"/>
<text text-anchor="middle" x="327.5" y="-93" font-family="Helvetica,sans-Serif" font-size="10.00">sisi4s::IterativePseudoInverse::get</text>
</a>
</g>
</g>
<!-- Node1&#45;&gt;Node2 -->
<g id="edge1" class="edge">
<title>Node1&#45;&gt;Node2</title>
<path fill="none" stroke="#63b8ff" d="M199.3,-83.12C207.66,-83.93 216.12,-84.76 224.51,-85.57"/>
<polygon fill="#63b8ff" stroke="#63b8ff" points="224.39,-89.08 234.68,-86.56 225.07,-82.11 224.39,-89.08"/>
</g>
<!-- Node5 -->
<g id="node5" class="node">
<title>Node5</title>
<g id="a_node5"><a xlink:href="classsisi4s_1_1Algorithm.html#a5e80a507fac066ab5714b62364cabaaf" target="_top" xlink:title=" ">
<polygon fill="white" stroke="#666666" points="379.5,-67.5 275.5,-67.5 275.5,-37.5 379.5,-37.5 379.5,-67.5"/>
<text text-anchor="start" x="283.5" y="-55.5" font-family="Helvetica,sans-Serif" font-size="10.00">sisi4s::Algorithm::</text>
<text text-anchor="middle" x="327.5" y="-44.5" font-family="Helvetica,sans-Serif" font-size="10.00">getTextArgument</text>
</a>
</g>
</g>
<!-- Node1&#45;&gt;Node5 -->
<g id="edge4" class="edge">
<title>Node1&#45;&gt;Node5</title>
<path fill="none" stroke="#63b8ff" d="M199.3,-64.32C221.75,-62.23 244.97,-60.08 265.32,-58.18"/>
<polygon fill="#63b8ff" stroke="#63b8ff" points="265.74,-61.66 275.38,-57.25 265.09,-54.69 265.74,-61.66"/>
</g>
<!-- Node3 -->
<g id="node3" class="node">
<title>Node3</title>
<g id="a_node3"><a xlink:href="DiisMixer_8cxx.html#ae6495ef1bd76c6cd022e102143fbed2f" target="_top" xlink:title=" ">
<polygon fill="white" stroke="#666666" points="556,-105 503,-105 503,-86 556,-86 556,-105"/>
<text text-anchor="middle" x="529.5" y="-93" font-family="Helvetica,sans-Serif" font-size="10.00">inverse</text>
</a>
</g>
</g>
<!-- Node2&#45;&gt;Node3 -->
<g id="edge2" class="edge">
<title>Node2&#45;&gt;Node3</title>
<path fill="none" stroke="#63b8ff" d="M420.01,-95.5C445.76,-95.5 472.27,-95.5 492.64,-95.5"/>
<polygon fill="#63b8ff" stroke="#63b8ff" points="492.69,-99 502.69,-95.5 492.69,-92 492.69,-99"/>
</g>
<!-- Node4 -->
<g id="node4" class="node">
<title>Node4</title>
<g id="a_node4"><a xlink:href="Lapack_8hpp.html#aaacdf33c1d8272c5fd148b2e002c12a6" target="_top" xlink:title=" ">
<polygon fill="white" stroke="#666666" points="711.5,-105 661.5,-105 661.5,-86 711.5,-86 711.5,-105"/>
<text text-anchor="middle" x="686.5" y="-93" font-family="Helvetica,sans-Serif" font-size="10.00">dsysv_</text>
</a>
</g>
</g>
<!-- Node3&#45;&gt;Node4 -->
<g id="edge3" class="edge">
<title>Node3&#45;&gt;Node4</title>
<path fill="none" stroke="#63b8ff" d="M556.1,-95.5C582.13,-95.5 622.64,-95.5 651.39,-95.5"/>
<polygon fill="#63b8ff" stroke="#63b8ff" points="651.4,-99 661.4,-95.5 651.4,-92 651.4,-99"/>
</g>
<!-- Node6 -->
<g id="node6" class="node">
<title>Node6</title>
<g id="a_node6"><a xlink:href="classsisi4s_1_1Algorithm.html#a1e53277220d32a33e20846267c253652" target="_top" xlink:title=" ">
<polygon fill="white" stroke="#666666" points="581.5,-67.5 477.5,-67.5 477.5,-37.5 581.5,-37.5 581.5,-67.5"/>
<text text-anchor="start" x="485.5" y="-55.5" font-family="Helvetica,sans-Serif" font-size="10.00">sisi4s::Algorithm::</text>
<text text-anchor="middle" x="529.5" y="-44.5" font-family="Helvetica,sans-Serif" font-size="10.00">getArgumentData</text>
</a>
</g>
</g>
<!-- Node5&#45;&gt;Node6 -->
<g id="edge5" class="edge">
<title>Node5&#45;&gt;Node6</title>
<path fill="none" stroke="#63b8ff" d="M379.75,-52.5C406.44,-52.5 439.28,-52.5 467.3,-52.5"/>
<polygon fill="#63b8ff" stroke="#63b8ff" points="467.39,-56 477.39,-52.5 467.39,-49 467.39,-56"/>
</g>
<!-- Node8 -->
<g id="node8" class="node">
<title>Node8</title>
<g id="a_node8"><a xlink:href="classsisi4s_1_1Data.html#a0ec0b1c7f2356fd43d82ee1dd0246789" target="_top" xlink:title=" ">
<polygon fill="white" stroke="#666666" points="603,-19 456,-19 456,0 603,0 603,-19"/>
<text text-anchor="middle" x="529.5" y="-7" font-family="Helvetica,sans-Serif" font-size="10.00">sisi4s::Data::getTypeName</text>
</a>
</g>
</g>
<!-- Node5&#45;&gt;Node8 -->
<g id="edge7" class="edge">
<title>Node5&#45;&gt;Node8</title>
<path fill="none" stroke="#63b8ff" d="M379.75,-41.48C408.63,-35.27 444.7,-27.52 474.09,-21.2"/>
<polygon fill="#63b8ff" stroke="#63b8ff" points="475.14,-24.55 484.18,-19.03 473.67,-17.71 475.14,-24.55"/>
</g>
<!-- Node7 -->
<g id="node7" class="node">
<title>Node7</title>
<g id="a_node7"><a xlink:href="classsisi4s_1_1Data.html#a5b4676e48b4f437d399587e6903f896a" target="_top" xlink:title=" ">
<polygon fill="white" stroke="#666666" points="734,-62 639,-62 639,-43 734,-43 734,-62"/>
<text text-anchor="middle" x="686.5" y="-50" font-family="Helvetica,sans-Serif" font-size="10.00">sisi4s::Data::get</text>
</a>
</g>
</g>
<!-- Node6&#45;&gt;Node7 -->
<g id="edge6" class="edge">
<title>Node6&#45;&gt;Node7</title>
<path fill="none" stroke="#63b8ff" d="M581.68,-52.5C596.66,-52.5 613.12,-52.5 628.43,-52.5"/>
<polygon fill="#63b8ff" stroke="#63b8ff" points="628.82,-56 638.82,-52.5 628.82,-49 628.82,-56"/>
</g>
</g>
</svg>
