<?xml version="1.0" encoding="UTF-8" standalone="no"?>
<!DOCTYPE svg PUBLIC "-//W3C//DTD SVG 1.1//EN"
 "http://www.w3.org/Graphics/SVG/1.1/DTD/svg11.dtd">
<!-- Generated by graphviz version 9.0.0 (0)
 -->
<!-- Title: CLI::ArgumentMismatch Pages: 1 -->
<svg width="135pt" height="564pt"
 viewBox="0.00 0.00 135.00 564.00" xmlns="http://www.w3.org/2000/svg" xmlns:xlink="http://www.w3.org/1999/xlink">
<g id="graph0" class="graph" transform="scale(1 1) rotate(0) translate(4 560)">
<title>CLI::ArgumentMismatch</title>
<!-- Node1 -->
<g id="Node000001" class="node">
<title>Node1</title>
<g id="a_Node000001"><a xlink:title="Thrown when the wrong number of arguments has been received.">
<polygon fill="#999999" stroke="none" points="127,-196 0,-196 0,0 127,0 127,-196"/>
<text text-anchor="start" x="5" y="-182.5" font-family="Helvetica,sans-Serif" font-size="10.00">CLI::ArgumentMismatch</text>
<text text-anchor="start" x="62" y="-166.5" font-family="Helvetica,sans-Serif" font-size="10.00"> </text>
<text text-anchor="start" x="4.88" y="-150.5" font-family="Helvetica,sans-Serif" font-size="10.00">+</text>
<text text-anchor="start" x="18" y="-150.5" font-family="Helvetica,sans-Serif" font-size="10.00">ArgumentMismatch()</text>
<text text-anchor="start" x="4.88" y="-134.5" font-family="Helvetica,sans-Serif" font-size="10.00">+</text>
<text text-anchor="start" x="18" y="-134.5" font-family="Helvetica,sans-Serif" font-size="10.00">ArgumentMismatch()</text>
<text text-anchor="start" x="4.88" y="-118.5" font-family="Helvetica,sans-Serif" font-size="10.00">+</text>
<text text-anchor="start" x="18" y="-118.5" font-family="Helvetica,sans-Serif" font-size="10.00">ArgumentMismatch()</text>
<text text-anchor="start" x="4.88" y="-102.5" font-family="Helvetica,sans-Serif" font-size="10.00">+</text>
<text text-anchor="start" x="18" y="-102.5" font-family="Helvetica,sans-Serif" font-size="10.00">ArgumentMismatch()</text>
<text text-anchor="start" x="4.88" y="-86.5" font-family="Helvetica,sans-Serif" font-size="10.00">+</text>
<text text-anchor="start" x="18" y="-86.5" font-family="Helvetica,sans-Serif" font-size="10.00">AtLeast()</text>
<text text-anchor="start" x="4.88" y="-70.5" font-family="Helvetica,sans-Serif" font-size="10.00">+</text>
<text text-anchor="start" x="18" y="-70.5" font-family="Helvetica,sans-Serif" font-size="10.00">AtMost()</text>
<text text-anchor="start" x="4.88" y="-54.5" font-family="Helvetica,sans-Serif" font-size="10.00">+</text>
<text text-anchor="start" x="18" y="-54.5" font-family="Helvetica,sans-Serif" font-size="10.00">TypedAtLeast()</text>
<text text-anchor="start" x="4.88" y="-38.5" font-family="Helvetica,sans-Serif" font-size="10.00">+</text>
<text text-anchor="start" x="18" y="-38.5" font-family="Helvetica,sans-Serif" font-size="10.00">FlagOverride()</text>
<text text-anchor="start" x="4.88" y="-22.5" font-family="Helvetica,sans-Serif" font-size="10.00">#</text>
<text text-anchor="start" x="18" y="-22.5" font-family="Helvetica,sans-Serif" font-size="10.00">ArgumentMismatch()</text>
<text text-anchor="start" x="4.88" y="-6.5" font-family="Helvetica,sans-Serif" font-size="10.00">#</text>
<text text-anchor="start" x="18" y="-6.5" font-family="Helvetica,sans-Serif" font-size="10.00">ArgumentMismatch()</text>
<polygon fill="#666666" stroke="#666666" points="0,-178 0,-178 127,-178 127,-178 0,-178"/>
<polygon fill="#666666" stroke="#666666" points="0,-162 0,-162 127,-162 127,-162 0,-162"/>
<polygon fill="none" stroke="#666666" points="0,0 0,-196 127,-196 127,0 0,0"/>
</a>
</g>
</g>
<!-- Node2 -->
<g id="Node000002" class="node">
<title>Node2</title>
<g id="a_Node000002"><a xlink:href="classCLI_1_1ParseError.html" target="_top" xlink:title="Anything that can error in Parse.">
<polygon fill="white" stroke="none" points="103.5,-332 23.5,-332 23.5,-232 103.5,-232 103.5,-332"/>
<text text-anchor="start" x="28.25" y="-318.5" font-family="Helvetica,sans-Serif" font-size="10.00">CLI::ParseError</text>
<text text-anchor="start" x="62" y="-302.5" font-family="Helvetica,sans-Serif" font-size="10.00"> </text>
<text text-anchor="start" x="27.88" y="-286.5" font-family="Helvetica,sans-Serif" font-size="10.00">+</text>
<text text-anchor="start" x="40.5" y="-286.5" font-family="Helvetica,sans-Serif" font-size="10.00">ParseError()</text>
<text text-anchor="start" x="27.88" y="-270.5" font-family="Helvetica,sans-Serif" font-size="10.00">+</text>
<text text-anchor="start" x="40.5" y="-270.5" font-family="Helvetica,sans-Serif" font-size="10.00">ParseError()</text>
<text text-anchor="start" x="27.88" y="-254.5" font-family="Helvetica,sans-Serif" font-size="10.00">#</text>
<text text-anchor="start" x="40.5" y="-254.5" font-family="Helvetica,sans-Serif" font-size="10.00">ParseError()</text>
<text text-anchor="start" x="27.88" y="-238.5" font-family="Helvetica,sans-Serif" font-size="10.00">#</text>
<text text-anchor="start" x="40.5" y="-238.5" font-family="Helvetica,sans-Serif" font-size="10.00">ParseError()</text>
<polygon fill="#666666" stroke="#666666" points="23.5,-314 23.5,-314 103.5,-314 103.5,-314 23.5,-314"/>
<polygon fill="#666666" stroke="#666666" points="23.5,-298 23.5,-298 103.5,-298 103.5,-298 23.5,-298"/>
<polygon fill="none" stroke="#666666" points="23.5,-232 23.5,-332 103.5,-332 103.5,-232 23.5,-232"/>
</a>
</g>
</g>
<!-- Node2&#45;&gt;Node1 -->
<g id="edge1_Node000001_Node000002" class="edge">
<title>Node2&#45;&gt;Node1</title>
<g id="a_edge1_Node000001_Node000002"><a xlink:title=" ">
<path fill="none" stroke="#63b8ff" d="M63.5,-220.98C63.5,-212.83 63.5,-204.3 63.5,-195.7"/>
<polygon fill="none" stroke="#63b8ff" points="60,-220.71 63.5,-230.71 67,-220.71 60,-220.71"/>
</a>
</g>
</g>
<!-- Node3 -->
<g id="Node000003" class="node">
<title>Node3</title>
<g id="a_Node000003"><a xlink:href="classCLI_1_1Error.html" target="_top" xlink:title="All errors derive from this one.">
<polygon fill="white" stroke="none" points="111,-468 16,-468 16,-368 111,-368 111,-468"/>
<text text-anchor="start" x="41.38" y="-454.5" font-family="Helvetica,sans-Serif" font-size="10.00">CLI::Error</text>
<text text-anchor="start" x="62" y="-438.5" font-family="Helvetica,sans-Serif" font-size="10.00"> </text>
<text text-anchor="start" x="19.88" y="-422.5" font-family="Helvetica,sans-Serif" font-size="10.00">+</text>
<text text-anchor="start" x="32" y="-422.5" font-family="Helvetica,sans-Serif" font-size="10.00">get_exit_code()</text>
<text text-anchor="start" x="19.88" y="-406.5" font-family="Helvetica,sans-Serif" font-size="10.00">+</text>
<text text-anchor="start" x="32" y="-406.5" font-family="Helvetica,sans-Serif" font-size="10.00">get_name()</text>
<text text-anchor="start" x="19.88" y="-390.5" font-family="Helvetica,sans-Serif" font-size="10.00">+</text>
<text text-anchor="start" x="32" y="-390.5" font-family="Helvetica,sans-Serif" font-size="10.00">Error()</text>
<text text-anchor="start" x="19.88" y="-374.5" font-family="Helvetica,sans-Serif" font-size="10.00">+</text>
<text text-anchor="start" x="32" y="-374.5" font-family="Helvetica,sans-Serif" font-size="10.00">Error()</text>
<polygon fill="#666666" stroke="#666666" points="16,-450 16,-450 111,-450 111,-450 16,-450"/>
<polygon fill="#666666" stroke="#666666" points="16,-434 16,-434 111,-434 111,-434 16,-434"/>
<polygon fill="none" stroke="#666666" points="16,-368 16,-468 111,-468 111,-368 16,-368"/>
</a>
</g>
</g>
<!-- Node3&#45;&gt;Node2 -->
<g id="edge2_Node000002_Node000003" class="edge">
<title>Node3&#45;&gt;Node2</title>
<g id="a_edge2_Node000002_Node000003"><a xlink:title=" ">
<path fill="none" stroke="#63b8ff" d="M63.5,-356.97C63.5,-348.6 63.5,-340.08 63.5,-331.94"/>
<polygon fill="none" stroke="#63b8ff" points="60,-356.73 63.5,-366.73 67,-356.73 60,-356.73"/>
</a>
</g>
</g>
<!-- Node4 -->
<g id="Node000004" class="node">
<title>Node4</title>
<g id="a_Node000004"><a xlink:title=" ">
<polygon fill="white" stroke="none" points="112,-556 15,-556 15,-504 112,-504 112,-556"/>
<text text-anchor="start" x="19.62" y="-542.5" font-family="Helvetica,sans-Serif" font-size="10.00">std::runtime_error</text>
<text text-anchor="start" x="62" y="-526.5" font-family="Helvetica,sans-Serif" font-size="10.00"> </text>
<text text-anchor="start" x="62" y="-510.5" font-family="Helvetica,sans-Serif" font-size="10.00"> </text>
<polygon fill="#666666" stroke="#666666" points="15,-538 15,-538 112,-538 112,-538 15,-538"/>
<polygon fill="#666666" stroke="#666666" points="15,-522 15,-522 112,-522 112,-522 15,-522"/>
<polygon fill="none" stroke="#666666" points="15,-504 15,-556 112,-556 112,-504 15,-504"/>
</a>
</g>
</g>
<!-- Node4&#45;&gt;Node3 -->
<g id="edge3_Node000003_Node000004" class="edge">
<title>Node4&#45;&gt;Node3</title>
<g id="a_edge3_Node000003_Node000004"><a xlink:title=" ">
<path fill="none" stroke="#63b8ff" d="M63.5,-492.53C63.5,-484.58 63.5,-476.05 63.5,-467.72"/>
<polygon fill="none" stroke="#63b8ff" points="60,-492.53 63.5,-502.53 67,-492.53 60,-492.53"/>
</a>
</g>
</g>
</g>
</svg>
