<?xml version="1.0" encoding="UTF-8" standalone="no"?>
<!DOCTYPE svg PUBLIC "-//W3C//DTD SVG 1.1//EN"
 "http://www.w3.org/Graphics/SVG/1.1/DTD/svg11.dtd">
<!-- Generated by graphviz version 7.0.0 (0)
 -->
<!-- Title: sisi4s::Time::getFractionalSeconds Pages: 1 -->
<svg width="349pt" height="101pt"
 viewBox="0.00 0.00 349.00 101.00" xmlns="http://www.w3.org/2000/svg" xmlns:xlink="http://www.w3.org/1999/xlink">
<g id="graph0" class="graph" transform="scale(1 1) rotate(0) translate(4 97)">
<title>sisi4s::Time::getFractionalSeconds</title>
<!-- Node1 -->
<g id="node1" class="node">
<title>Node1</title>
<g id="a_node1"><a xlink:title=" ">
<polygon fill="#999999" stroke="#666666" points="341,-61.5 196,-61.5 196,-31.5 341,-31.5 341,-61.5"/>
<text text-anchor="start" x="204" y="-49.5" font-family="Helvetica,sans-Serif" font-size="10.00">sisi4s::Time::getFractional</text>
<text text-anchor="middle" x="268.5" y="-38.5" font-family="Helvetica,sans-Serif" font-size="10.00">Seconds</text>
</a>
</g>
</g>
<!-- Node2 -->
<g id="node2" class="node">
<title>Node2</title>
<g id="a_node2"><a xlink:href="namespacesisi4s.html#af367ad2673f0d194941471c8c23d70a5" target="_top" xlink:title=" ">
<polygon fill="white" stroke="#666666" points="128.5,-93 31.5,-93 31.5,-74 128.5,-74 128.5,-93"/>
<text text-anchor="middle" x="80" y="-81" font-family="Helvetica,sans-Serif" font-size="10.00">sisi4s::operator*</text>
</a>
</g>
</g>
<!-- Node1&#45;&gt;Node2 -->
<g id="edge1" class="edge">
<title>Node1&#45;&gt;Node2</title>
<path fill="none" stroke="#63b8ff" d="M184.54,-62.96C165.48,-66.74 145.85,-70.63 128.87,-74"/>
<polygon fill="#63b8ff" stroke="#63b8ff" points="185.05,-66.43 194.18,-61.05 183.69,-59.56 185.05,-66.43"/>
</g>
<!-- Node3 -->
<g id="node3" class="node">
<title>Node3</title>
<g id="a_node3"><a xlink:href="classsisi4s_1_1ParenthesisTriples.html#a13c648b58b994e20cb35843b25b23312" target="_top" xlink:title="Calculates perturbative triples correction, third attemp.">
<polygon fill="white" stroke="#666666" points="160,-56 0,-56 0,-37 160,-37 160,-56"/>
<text text-anchor="middle" x="80" y="-44" font-family="Helvetica,sans-Serif" font-size="10.00">sisi4s::ParenthesisTriples::run</text>
</a>
</g>
</g>
<!-- Node1&#45;&gt;Node3 -->
<g id="edge2" class="edge">
<title>Node1&#45;&gt;Node3</title>
<path fill="none" stroke="#63b8ff" d="M184.4,-46.5C176.37,-46.5 168.24,-46.5 160.25,-46.5"/>
<polygon fill="#63b8ff" stroke="#63b8ff" points="184.15,-50 194.15,-46.5 184.15,-43 184.15,-50"/>
</g>
<!-- Node4 -->
<g id="node4" class="node">
<title>Node4</title>
<g id="a_node4"><a xlink:href="classsisi4s_1_1Sisi4s.html#a707b4ffd3cce21c09ec1387e8159951a" target="_top" xlink:title=" ">
<polygon fill="white" stroke="#666666" points="130.5,-19 29.5,-19 29.5,0 130.5,0 130.5,-19"/>
<text text-anchor="middle" x="80" y="-7" font-family="Helvetica,sans-Serif" font-size="10.00">sisi4s::Sisi4s::run</text>
</a>
</g>
</g>
<!-- Node1&#45;&gt;Node4 -->
<g id="edge3" class="edge">
<title>Node1&#45;&gt;Node4</title>
<path fill="none" stroke="#63b8ff" d="M184.38,-30.01C166.11,-26.38 147.31,-22.66 130.84,-19.39"/>
<polygon fill="#63b8ff" stroke="#63b8ff" points="183.69,-33.44 194.18,-31.95 185.05,-26.57 183.69,-33.44"/>
</g>
</g>
</svg>
