<?xml version="1.0" encoding="UTF-8" standalone="no"?>
<!DOCTYPE svg PUBLIC "-//W3C//DTD SVG 1.1//EN"
 "http://www.w3.org/Graphics/SVG/1.1/DTD/svg11.dtd">
<!-- Generated by graphviz version 5.0.1 (0)
 -->
<!-- Title: sisi4s::DryPseudoInverseSvd::get Pages: 1 -->
<svg width="818pt" height="86pt"
 viewBox="0.00 0.00 818.00 86.00" xmlns="http://www.w3.org/2000/svg" xmlns:xlink="http://www.w3.org/1999/xlink">
<g id="graph0" class="graph" transform="scale(1 1) rotate(0) translate(4 82)">
<title>sisi4s::DryPseudoInverseSvd::get</title>
<!-- Node1 -->
<g id="node1" class="node">
<title>Node1</title>
<g id="a_node1"><a xlink:title=" ">
<polygon fill="#999999" stroke="#666666" points="810,-54 671,-54 671,-24 810,-24 810,-54"/>
<text text-anchor="start" x="679" y="-42" font-family="Helvetica,sans-Serif" font-size="10.00">sisi4s::DryPseudoInverse</text>
<text text-anchor="middle" x="740.5" y="-31" font-family="Helvetica,sans-Serif" font-size="10.00">Svd::get</text>
</a>
</g>
</g>
<!-- Node2 -->
<g id="node2" class="node">
<title>Node2</title>
<g id="a_node2"><a xlink:href="namespacesisi4s.html#a7e043fcaaf8e99a86eb9920cf43cc228" target="_top" xlink:title=" ">
<polygon fill="white" stroke="#666666" points="635,-54 470,-54 470,-24 635,-24 635,-54"/>
<text text-anchor="start" x="478" y="-42" font-family="Helvetica,sans-Serif" font-size="10.00">sisi4s::dryFitRegularized</text>
<text text-anchor="middle" x="552.5" y="-31" font-family="Helvetica,sans-Serif" font-size="10.00">AlternatingLeastSquaresFactor</text>
</a>
</g>
</g>
<!-- Node1&#45;&gt;Node2 -->
<g id="edge1" class="edge">
<title>Node1&#45;&gt;Node2</title>
<path fill="none" stroke="#63b8ff" d="M660.6,-39C652.19,-39 643.61,-39 635.17,-39"/>
<polygon fill="#63b8ff" stroke="#63b8ff" points="660.77,-42.5 670.77,-39 660.77,-35.5 660.77,-42.5"/>
</g>
<!-- Node3 -->
<g id="node3" class="node">
<title>Node3</title>
<g id="a_node3"><a xlink:href="classsisi4s_1_1ParticleHoleCoulombVertexDecomposition.html#a1d7aed53263c884eccb9c64c0cfcfd0a" target="_top" xlink:title="Performs a dry run of one iteration in fitting the factor orbitals and the Coulomb factors according ...">
<polygon fill="white" stroke="#666666" points="412,-78 257,-78 257,-48 412,-48 412,-78"/>
<text text-anchor="start" x="265" y="-66" font-family="Helvetica,sans-Serif" font-size="10.00">sisi4s::ParticleHoleCoulomb</text>
<text text-anchor="middle" x="334.5" y="-55" font-family="Helvetica,sans-Serif" font-size="10.00">VertexDecomposition::dryFit</text>
</a>
</g>
</g>
<!-- Node2&#45;&gt;Node3 -->
<g id="edge2" class="edge">
<title>Node2&#45;&gt;Node3</title>
<path fill="none" stroke="#63b8ff" d="M459.57,-49.21C443.81,-50.97 427.59,-52.77 412.29,-54.47"/>
<polygon fill="#63b8ff" stroke="#63b8ff" points="460.29,-52.66 469.84,-48.07 459.51,-45.7 460.29,-52.66"/>
</g>
<!-- Node5 -->
<g id="node5" class="node">
<title>Node5</title>
<g id="a_node5"><a xlink:href="classsisi4s_1_1CoulombVertexDecomposition.html#ada47c641a50e19ac728504e718bac626" target="_top" xlink:title="Performs a dry run of one iteration in fitting the factor orbitals and the Coulomb factors according ...">
<polygon fill="white" stroke="#666666" points="434,-30 235,-30 235,0 434,0 434,-30"/>
<text text-anchor="start" x="243" y="-18" font-family="Helvetica,sans-Serif" font-size="10.00">sisi4s::CoulombVertexDecomposition</text>
<text text-anchor="middle" x="334.5" y="-7" font-family="Helvetica,sans-Serif" font-size="10.00">::dryFit</text>
</a>
</g>
</g>
<!-- Node2&#45;&gt;Node5 -->
<g id="edge4" class="edge">
<title>Node2&#45;&gt;Node5</title>
<path fill="none" stroke="#63b8ff" d="M459.7,-28.8C451.32,-27.87 442.8,-26.92 434.36,-25.98"/>
<polygon fill="#63b8ff" stroke="#63b8ff" points="459.51,-32.3 469.84,-29.93 460.29,-25.34 459.51,-32.3"/>
</g>
<!-- Node4 -->
<g id="node4" class="node">
<title>Node4</title>
<g id="a_node4"><a xlink:href="classsisi4s_1_1ParticleHoleCoulombVertexDecomposition.html#a40fbdeb633e7771f3ef19466965f8000" target="_top" xlink:title="The dryRun estimates resource consumption, especially memory and processor time.">
<polygon fill="white" stroke="#666666" points="180.5,-78 18.5,-78 18.5,-48 180.5,-48 180.5,-78"/>
<text text-anchor="start" x="26.5" y="-66" font-family="Helvetica,sans-Serif" font-size="10.00">sisi4s::ParticleHoleCoulomb</text>
<text text-anchor="middle" x="99.5" y="-55" font-family="Helvetica,sans-Serif" font-size="10.00">VertexDecomposition::dryRun</text>
</a>
</g>
</g>
<!-- Node3&#45;&gt;Node4 -->
<g id="edge3" class="edge">
<title>Node3&#45;&gt;Node4</title>
<path fill="none" stroke="#63b8ff" d="M246.74,-63C225.12,-63 202.05,-63 180.76,-63"/>
<polygon fill="#63b8ff" stroke="#63b8ff" points="246.88,-66.5 256.88,-63 246.88,-59.5 246.88,-66.5"/>
</g>
<!-- Node6 -->
<g id="node6" class="node">
<title>Node6</title>
<g id="a_node6"><a xlink:href="classsisi4s_1_1CoulombVertexDecomposition.html#afe2db43c1a0ebdd3b494fafa105641d4" target="_top" xlink:title="The dryRun estimates resource consumption, especially memory and processor time.">
<polygon fill="white" stroke="#666666" points="199,-30 0,-30 0,0 199,0 199,-30"/>
<text text-anchor="start" x="8" y="-18" font-family="Helvetica,sans-Serif" font-size="10.00">sisi4s::CoulombVertexDecomposition</text>
<text text-anchor="middle" x="99.5" y="-7" font-family="Helvetica,sans-Serif" font-size="10.00">::dryRun</text>
</a>
</g>
</g>
<!-- Node5&#45;&gt;Node6 -->
<g id="edge5" class="edge">
<title>Node5&#45;&gt;Node6</title>
<path fill="none" stroke="#63b8ff" d="M224.42,-15C215.97,-15 207.47,-15 199.09,-15"/>
<polygon fill="#63b8ff" stroke="#63b8ff" points="224.69,-18.5 234.69,-15 224.69,-11.5 224.69,-18.5"/>
</g>
</g>
</svg>
