<?xml version="1.0" encoding="UTF-8" standalone="no"?>
<!DOCTYPE svg PUBLIC "-//W3C//DTD SVG 1.1//EN"
 "http://www.w3.org/Graphics/SVG/1.1/DTD/svg11.dtd">
<!-- Generated by graphviz version 5.0.1 (0)
 -->
<!-- Title: sisi4s::Vector::length Pages: 1 -->
<svg width="535pt" height="127pt"
 viewBox="0.00 0.00 535.00 126.50" xmlns="http://www.w3.org/2000/svg" xmlns:xlink="http://www.w3.org/1999/xlink">
<g id="graph0" class="graph" transform="scale(1 1) rotate(0) translate(4 122.5)">
<title>sisi4s::Vector::length</title>
<!-- Node1 -->
<g id="node1" class="node">
<title>Node1</title>
<g id="a_node1"><a xlink:title=" ">
<polygon fill="#bfbfbf" stroke="black" points="409,-44.5 409,-63.5 527,-63.5 527,-44.5 409,-44.5"/>
<text text-anchor="middle" x="468" y="-51.5" font-family="Helvetica,sans-Serif" font-size="10.00">sisi4s::Vector::length</text>
</a>
</g>
</g>
<!-- Node2 -->
<g id="node2" class="node">
<title>Node2</title>
<g id="a_node2"><a xlink:href="classsisi4s_1_1BasisSetExtrapolation.html#a3d9834f6a2ed4100e47b32e498914129" target="_top" xlink:title=" ">
<polygon fill="none" stroke="black" points="215,-88 215,-118 373,-118 373,-88 215,-88"/>
<text text-anchor="start" x="223" y="-106" font-family="Helvetica,sans-Serif" font-size="10.00">sisi4s::BasisSetExtrapolation</text>
<text text-anchor="middle" x="294" y="-95" font-family="Helvetica,sans-Serif" font-size="10.00">::evaluateQGG</text>
</a>
</g>
</g>
<!-- Node1&#45;&gt;Node2 -->
<g id="edge1" class="edge">
<title>Node1&#45;&gt;Node2</title>
<path fill="none" stroke="midnightblue" d="M423.59,-66.37C400.56,-72.93 372.08,-81.04 347.78,-87.96"/>
<polygon fill="midnightblue" stroke="midnightblue" points="424.77,-69.67 433.43,-63.56 422.85,-62.94 424.77,-69.67"/>
</g>
<!-- Node4 -->
<g id="node4" class="node">
<title>Node4</title>
<g id="a_node4"><a xlink:href="classsisi4s_1_1FiniteSizeCorrection.html#a1263e86e1cfbd0547e5198c46c6eac51" target="_top" xlink:title=" ">
<polygon fill="none" stroke="black" points="220,-39 220,-69 368,-69 368,-39 220,-39"/>
<text text-anchor="start" x="228" y="-57" font-family="Helvetica,sans-Serif" font-size="10.00">sisi4s::FiniteSizeCorrection</text>
<text text-anchor="middle" x="294" y="-46" font-family="Helvetica,sans-Serif" font-size="10.00">::interpolation3D</text>
</a>
</g>
</g>
<!-- Node1&#45;&gt;Node4 -->
<g id="edge3" class="edge">
<title>Node1&#45;&gt;Node4</title>
<path fill="none" stroke="midnightblue" d="M398.5,-54C388.51,-54 378.19,-54 368.11,-54"/>
<polygon fill="midnightblue" stroke="midnightblue" points="398.77,-57.5 408.77,-54 398.77,-50.5 398.77,-57.5"/>
</g>
<!-- Node6 -->
<g id="node6" class="node">
<title>Node6</title>
<g id="a_node6"><a xlink:href="classsisi4s_1_1Vector.html#a4b15047ac7ee22a715a2a9e574e1bfae" target="_top" xlink:title=" ">
<polygon fill="none" stroke="black" points="218,-0.5 218,-19.5 370,-19.5 370,-0.5 218,-0.5"/>
<text text-anchor="middle" x="294" y="-7.5" font-family="Helvetica,sans-Serif" font-size="10.00">sisi4s::Vector::sortByLength</text>
</a>
</g>
</g>
<!-- Node1&#45;&gt;Node6 -->
<g id="edge5" class="edge">
<title>Node1&#45;&gt;Node6</title>
<path fill="none" stroke="midnightblue" d="M421.92,-41.81C406.43,-37.67 388.97,-33.07 373,-29 360.57,-25.83 347.01,-22.49 334.72,-19.5"/>
<polygon fill="midnightblue" stroke="midnightblue" points="421.22,-45.24 431.78,-44.45 423.03,-38.48 421.22,-45.24"/>
</g>
<!-- Node3 -->
<g id="node3" class="node">
<title>Node3</title>
<g id="a_node3"><a xlink:href="classsisi4s_1_1BasisSetExtrapolation.html#a4be31f1b32dd68c170238e340981f9dc" target="_top" xlink:title=" ">
<polygon fill="none" stroke="black" points="0,-93.5 0,-112.5 179,-112.5 179,-93.5 0,-93.5"/>
<text text-anchor="middle" x="89.5" y="-100.5" font-family="Helvetica,sans-Serif" font-size="10.00">sisi4s::BasisSetExtrapolation::run</text>
</a>
</g>
</g>
<!-- Node2&#45;&gt;Node3 -->
<g id="edge2" class="edge">
<title>Node2&#45;&gt;Node3</title>
<path fill="none" stroke="midnightblue" d="M204.76,-103C196.3,-103 187.72,-103 179.26,-103"/>
<polygon fill="midnightblue" stroke="midnightblue" points="205,-106.5 215,-103 205,-99.5 205,-106.5"/>
</g>
<!-- Node5 -->
<g id="node5" class="node">
<title>Node5</title>
<g id="a_node5"><a xlink:href="classsisi4s_1_1FiniteSizeCorrection.html#a8a7b438545c815dc93309d16208128de" target="_top" xlink:title="Calculates the finite size correction.">
<polygon fill="none" stroke="black" points="4.5,-44.5 4.5,-63.5 174.5,-63.5 174.5,-44.5 4.5,-44.5"/>
<text text-anchor="middle" x="89.5" y="-51.5" font-family="Helvetica,sans-Serif" font-size="10.00">sisi4s::FiniteSizeCorrection::run</text>
</a>
</g>
</g>
<!-- Node4&#45;&gt;Node5 -->
<g id="edge4" class="edge">
<title>Node4&#45;&gt;Node5</title>
<path fill="none" stroke="midnightblue" d="M209.77,-54C198.13,-54 186.16,-54 174.51,-54"/>
<polygon fill="midnightblue" stroke="midnightblue" points="209.89,-57.5 219.89,-54 209.89,-50.5 209.89,-57.5"/>
</g>
</g>
</svg>
