<?xml version="1.0" encoding="UTF-8" standalone="no"?>
<!DOCTYPE svg PUBLIC "-//W3C//DTD SVG 1.1//EN"
 "http://www.w3.org/Graphics/SVG/1.1/DTD/svg11.dtd">
<!-- Generated by graphviz version 8.1.0 (0)
 -->
<!-- Title: sisi4s::LapackGeneralEigenSystem&lt; complex &gt;::LapackGeneralEigenSystem Pages: 1 -->
<svg width="356pt" height="184pt"
 viewBox="0.00 0.00 355.75 184.12" xmlns="http://www.w3.org/2000/svg" xmlns:xlink="http://www.w3.org/1999/xlink">
<g id="graph0" class="graph" transform="scale(1 1) rotate(0) translate(4 180.12)">
<title>sisi4s::LapackGeneralEigenSystem&lt; complex &gt;::LapackGeneralEigenSystem</title>
<!-- Node1 -->
<g id="Node000001" class="node">
<title>Node1</title>
<g id="a_Node000001"><a xlink:title=" ">
<polygon fill="#999999" stroke="#666666" points="196,-104.5 0,-104.5 0,-58.25 196,-58.25 196,-104.5"/>
<text text-anchor="start" x="8" y="-91" font-family="Helvetica,sans-Serif" font-size="10.00">sisi4s::LapackGeneralEigen</text>
<text text-anchor="start" x="8" y="-78.25" font-family="Helvetica,sans-Serif" font-size="10.00">System&lt; complex &gt;::LapackGeneral</text>
<text text-anchor="middle" x="98" y="-65.5" font-family="Helvetica,sans-Serif" font-size="10.00">EigenSystem</text>
</a>
</g>
</g>
<!-- Node2 -->
<g id="Node000002" class="node">
<title>Node2</title>
<g id="a_Node000002"><a xlink:href="classsisi4s_1_1LapackMatrix.html#a5b733258c657d65b923dd8831dcf65f1" target="_top" xlink:title=" ">
<polygon fill="white" stroke="#666666" points="347.75,-176.12 232,-176.12 232,-142.62 347.75,-142.62 347.75,-176.12"/>
<text text-anchor="start" x="240" y="-162.62" font-family="Helvetica,sans-Serif" font-size="10.00">sisi4s::LapackMatrix</text>
<text text-anchor="middle" x="289.88" y="-149.88" font-family="Helvetica,sans-Serif" font-size="10.00">::getColumns</text>
</a>
</g>
</g>
<!-- Node1&#45;&gt;Node2 -->
<g id="edge1_Node000001_Node000002" class="edge">
<title>Node1&#45;&gt;Node2</title>
<g id="a_edge1_Node000001_Node000002"><a xlink:title=" ">
<path fill="none" stroke="#63b8ff" d="M156.48,-104.99C182.1,-115.51 212.04,-127.81 236.97,-138.05"/>
<polygon fill="#63b8ff" stroke="#63b8ff" points="235.38,-141.6 245.96,-142.16 238.04,-135.12 235.38,-141.6"/>
</a>
</g>
</g>
<!-- Node3 -->
<g id="Node000003" class="node">
<title>Node3</title>
<g id="a_Node000003"><a xlink:href="classsisi4s_1_1LapackMatrix.html#af17845e3e518413996316885e56e0367" target="_top" xlink:title=" ">
<polygon fill="white" stroke="#666666" points="347.75,-124.12 232,-124.12 232,-90.62 347.75,-90.62 347.75,-124.12"/>
<text text-anchor="start" x="240" y="-110.62" font-family="Helvetica,sans-Serif" font-size="10.00">sisi4s::LapackMatrix</text>
<text text-anchor="middle" x="289.88" y="-97.88" font-family="Helvetica,sans-Serif" font-size="10.00">::getRows</text>
</a>
</g>
</g>
<!-- Node1&#45;&gt;Node3 -->
<g id="edge2_Node000001_Node000003" class="edge">
<title>Node1&#45;&gt;Node3</title>
<g id="a_edge2_Node000001_Node000003"><a xlink:title=" ">
<path fill="none" stroke="#63b8ff" d="M196.44,-94.72C204.7,-95.85 212.94,-96.98 220.9,-98.07"/>
<polygon fill="#63b8ff" stroke="#63b8ff" points="220.18,-101.64 230.57,-99.53 221.13,-94.7 220.18,-101.64"/>
</a>
</g>
</g>
<!-- Node4 -->
<g id="Node000004" class="node">
<title>Node4</title>
<g id="a_Node000004"><a xlink:href="classsisi4s_1_1LapackMatrix.html#a4cea0ed82779b1a9acae7635b7b0b82d" target="_top" xlink:title="Returns the pointer to the column major data.">
<polygon fill="white" stroke="#666666" points="347.75,-72.12 232,-72.12 232,-38.62 347.75,-38.62 347.75,-72.12"/>
<text text-anchor="start" x="240" y="-58.62" font-family="Helvetica,sans-Serif" font-size="10.00">sisi4s::LapackMatrix</text>
<text text-anchor="middle" x="289.88" y="-45.88" font-family="Helvetica,sans-Serif" font-size="10.00">::getValues</text>
</a>
</g>
</g>
<!-- Node1&#45;&gt;Node4 -->
<g id="edge3_Node000001_Node000004" class="edge">
<title>Node1&#45;&gt;Node4</title>
<g id="a_edge3_Node000001_Node000004"><a xlink:title=" ">
<path fill="none" stroke="#63b8ff" d="M196.44,-68.03C204.7,-66.9 212.94,-65.77 220.9,-64.68"/>
<polygon fill="#63b8ff" stroke="#63b8ff" points="221.13,-68.05 230.57,-63.22 220.18,-61.11 221.13,-68.05"/>
</a>
</g>
</g>
<!-- Node5 -->
<g id="Node000005" class="node">
<title>Node5</title>
<g id="a_Node000005"><a xlink:href="Lapack_8hpp.html#aa5156a837dc04850959f7eec5f83e01c" target="_top" xlink:title=" ">
<polygon fill="white" stroke="#666666" points="315.12,-20.75 264.62,-20.75 264.62,0 315.12,0 315.12,-20.75"/>
<text text-anchor="middle" x="289.88" y="-7.25" font-family="Helvetica,sans-Serif" font-size="10.00">zgeev_</text>
</a>
</g>
</g>
<!-- Node1&#45;&gt;Node5 -->
<g id="edge4_Node000001_Node000005" class="edge">
<title>Node1&#45;&gt;Node5</title>
<g id="a_edge4_Node000001_Node000005"><a xlink:title=" ">
<path fill="none" stroke="#63b8ff" d="M157.36,-57.83C180.5,-48.68 207.41,-38.28 232,-29.38 239.04,-26.83 246.61,-24.21 253.86,-21.77"/>
<polygon fill="#63b8ff" stroke="#63b8ff" points="254.77,-24.82 263.15,-18.34 252.55,-18.18 254.77,-24.82"/>
</a>
</g>
</g>
</g>
</svg>
