<?xml version="1.0" encoding="UTF-8" standalone="no"?>
<!DOCTYPE svg PUBLIC "-//W3C//DTD SVG 1.1//EN"
 "http://www.w3.org/Graphics/SVG/1.1/DTD/svg11.dtd">
<!-- Generated by graphviz version 5.0.1 (0)
 -->
<!-- Title: sisi4s::FiniteSizeCorrection::dryRun Pages: 1 -->
<svg width="879pt" height="330pt"
 viewBox="0.00 0.00 879.00 330.00" xmlns="http://www.w3.org/2000/svg" xmlns:xlink="http://www.w3.org/1999/xlink">
<g id="graph0" class="graph" transform="scale(1 1) rotate(0) translate(4 326)">
<title>sisi4s::FiniteSizeCorrection::dryRun</title>
<!-- Node1 -->
<g id="node1" class="node">
<title>Node1</title>
<g id="a_node1"><a xlink:title="Performs a Dry Run.">
<polygon fill="#bfbfbf" stroke="black" points="0,-127.5 0,-157.5 148,-157.5 148,-127.5 0,-127.5"/>
<text text-anchor="start" x="8" y="-145.5" font-family="Helvetica,sans-Serif" font-size="10.00">sisi4s::FiniteSizeCorrection</text>
<text text-anchor="middle" x="74" y="-134.5" font-family="Helvetica,sans-Serif" font-size="10.00">::dryRun</text>
</a>
</g>
</g>
<!-- Node2 -->
<g id="node2" class="node">
<title>Node2</title>
<g id="a_node2"><a xlink:href="classsisi4s_1_1FiniteSizeCorrection.html#a100128dd8d514f54d7897e858ac0b8cf" target="_top" xlink:title=" ">
<polygon fill="none" stroke="black" points="184,-152.5 184,-182.5 366,-182.5 366,-152.5 184,-152.5"/>
<text text-anchor="start" x="192" y="-170.5" font-family="Helvetica,sans-Serif" font-size="10.00">sisi4s::FiniteSizeCorrection</text>
<text text-anchor="middle" x="275" y="-159.5" font-family="Helvetica,sans-Serif" font-size="10.00">::dryCalculateFiniteSizeCorrection</text>
</a>
</g>
</g>
<!-- Node1&#45;&gt;Node2 -->
<g id="edge1" class="edge">
<title>Node1&#45;&gt;Node2</title>
<path fill="none" stroke="midnightblue" d="M148.25,-151.7C156.54,-152.74 165.08,-153.82 173.64,-154.89"/>
<polygon fill="midnightblue" stroke="midnightblue" points="173.31,-158.38 183.67,-156.15 174.18,-151.43 173.31,-158.38"/>
</g>
<!-- Node3 -->
<g id="node3" class="node">
<title>Node3</title>
<g id="a_node3"><a xlink:href="classsisi4s_1_1Algorithm.html#a5db14be3b0d33bf80218a37223e27667" target="_top" xlink:title=" ">
<polygon fill="none" stroke="black" points="415,-196.5 415,-226.5 530,-226.5 530,-196.5 415,-196.5"/>
<text text-anchor="start" x="423" y="-214.5" font-family="Helvetica,sans-Serif" font-size="10.00">sisi4s::Algorithm::</text>
<text text-anchor="middle" x="472.5" y="-203.5" font-family="Helvetica,sans-Serif" font-size="10.00">getIntegerArgument</text>
</a>
</g>
</g>
<!-- Node1&#45;&gt;Node3 -->
<g id="edge23" class="edge">
<title>Node1&#45;&gt;Node3</title>
<path fill="none" stroke="midnightblue" d="M100.88,-157.65C122.37,-169.41 154.13,-184.94 184,-192.5 257.88,-211.21 345.65,-214.38 404.61,-213.88"/>
<polygon fill="midnightblue" stroke="midnightblue" points="404.95,-217.38 414.91,-213.75 404.87,-210.38 404.95,-217.38"/>
</g>
<!-- Node12 -->
<g id="node12" class="node">
<title>Node12</title>
<g id="a_node12"><a xlink:href="classsisi4s_1_1FiniteSizeCorrection.html#ab03fab436020be68b42a07d07b0eb3ca" target="_top" xlink:title=" ">
<polygon fill="none" stroke="black" points="196,-103.5 196,-133.5 354,-133.5 354,-103.5 196,-103.5"/>
<text text-anchor="start" x="204" y="-121.5" font-family="Helvetica,sans-Serif" font-size="10.00">sisi4s::FiniteSizeCorrection</text>
<text text-anchor="middle" x="275" y="-110.5" font-family="Helvetica,sans-Serif" font-size="10.00">::dryCalculateStructureFactor</text>
</a>
</g>
</g>
<!-- Node1&#45;&gt;Node12 -->
<g id="edge14" class="edge">
<title>Node1&#45;&gt;Node12</title>
<path fill="none" stroke="midnightblue" d="M148.25,-133.67C160.49,-132.19 173.31,-130.64 185.88,-129.13"/>
<polygon fill="midnightblue" stroke="midnightblue" points="186.38,-132.59 195.89,-127.92 185.54,-125.64 186.38,-132.59"/>
</g>
<!-- Node16 -->
<g id="node16" class="node">
<title>Node16</title>
<g id="a_node16"><a xlink:href="classsisi4s_1_1FiniteSizeCorrection.html#a200f4c2590c7f573670d778ce6d4dc71" target="_top" xlink:title=" ">
<polygon fill="none" stroke="black" points="201,-54.5 201,-84.5 349,-84.5 349,-54.5 201,-54.5"/>
<text text-anchor="start" x="209" y="-72.5" font-family="Helvetica,sans-Serif" font-size="10.00">sisi4s::FiniteSizeCorrection</text>
<text text-anchor="middle" x="275" y="-61.5" font-family="Helvetica,sans-Serif" font-size="10.00">::dryInterpolation3D</text>
</a>
</g>
</g>
<!-- Node1&#45;&gt;Node16 -->
<g id="edge22" class="edge">
<title>Node1&#45;&gt;Node16</title>
<path fill="none" stroke="midnightblue" d="M106,-127.42C127.55,-117.29 157.13,-104.09 184,-94.5 190.82,-92.06 198.01,-89.72 205.22,-87.5"/>
<polygon fill="midnightblue" stroke="midnightblue" points="206.46,-90.78 215.04,-84.57 204.45,-84.08 206.46,-90.78"/>
</g>
<!-- Node2&#45;&gt;Node3 -->
<g id="edge2" class="edge">
<title>Node2&#45;&gt;Node3</title>
<path fill="none" stroke="midnightblue" d="M342.73,-182.52C362.79,-187.03 384.8,-191.99 404.86,-196.5"/>
<polygon fill="midnightblue" stroke="midnightblue" points="404.31,-199.97 414.83,-198.75 405.85,-193.14 404.31,-199.97"/>
</g>
<!-- Node7 -->
<g id="node7" class="node">
<title>Node7</title>
<g id="a_node7"><a xlink:href="classsisi4s_1_1Algorithm.html#a36c632fbb19dae4ce2f415705fa5cbcb" target="_top" xlink:title=" ">
<polygon fill="none" stroke="black" points="420.5,-245.5 420.5,-275.5 524.5,-275.5 524.5,-245.5 420.5,-245.5"/>
<text text-anchor="start" x="428.5" y="-263.5" font-family="Helvetica,sans-Serif" font-size="10.00">sisi4s::Algorithm::</text>
<text text-anchor="middle" x="472.5" y="-252.5" font-family="Helvetica,sans-Serif" font-size="10.00">getRealArgument</text>
</a>
</g>
</g>
<!-- Node2&#45;&gt;Node7 -->
<g id="edge6" class="edge">
<title>Node2&#45;&gt;Node7</title>
<path fill="none" stroke="midnightblue" d="M300.47,-182.52C325.41,-197.43 365.51,-220.35 402,-236.5 406.12,-238.32 410.42,-240.1 414.77,-241.81"/>
<polygon fill="midnightblue" stroke="midnightblue" points="413.76,-245.16 424.35,-245.43 416.23,-238.62 413.76,-245.16"/>
</g>
<!-- Node10 -->
<g id="node10" class="node">
<title>Node10</title>
<g id="a_node10"><a xlink:href="classsisi4s_1_1Algorithm.html#af6f931ab83742cc23b4f4350d54a3fcd" target="_top" xlink:title=" ">
<polygon fill="none" stroke="black" points="420.5,-98.5 420.5,-128.5 524.5,-128.5 524.5,-98.5 420.5,-98.5"/>
<text text-anchor="start" x="428.5" y="-116.5" font-family="Helvetica,sans-Serif" font-size="10.00">sisi4s::Algorithm::</text>
<text text-anchor="middle" x="472.5" y="-105.5" font-family="Helvetica,sans-Serif" font-size="10.00">setRealArgument</text>
</a>
</g>
</g>
<!-- Node2&#45;&gt;Node10 -->
<g id="edge11" class="edge">
<title>Node2&#45;&gt;Node10</title>
<path fill="none" stroke="midnightblue" d="M333.17,-152.41C344.08,-149.48 355.4,-146.42 366,-143.5 380.39,-139.53 395.87,-135.18 410.41,-131.06"/>
<polygon fill="midnightblue" stroke="midnightblue" points="411.64,-134.34 420.3,-128.24 409.73,-127.61 411.64,-134.34"/>
</g>
<!-- Node4 -->
<g id="node4" class="node">
<title>Node4</title>
<g id="a_node4"><a xlink:href="classsisi4s_1_1Algorithm.html#a1e53277220d32a33e20846267c253652" target="_top" xlink:title=" ">
<polygon fill="none" stroke="black" points="607.5,-147.5 607.5,-177.5 711.5,-177.5 711.5,-147.5 607.5,-147.5"/>
<text text-anchor="start" x="615.5" y="-165.5" font-family="Helvetica,sans-Serif" font-size="10.00">sisi4s::Algorithm::</text>
<text text-anchor="middle" x="659.5" y="-154.5" font-family="Helvetica,sans-Serif" font-size="10.00">getArgumentData</text>
</a>
</g>
</g>
<!-- Node3&#45;&gt;Node4 -->
<g id="edge3" class="edge">
<title>Node3&#45;&gt;Node4</title>
<path fill="none" stroke="midnightblue" d="M530.01,-196.53C551.39,-190.87 575.81,-184.4 597.57,-178.64"/>
<polygon fill="midnightblue" stroke="midnightblue" points="598.6,-181.99 607.37,-176.04 596.8,-175.22 598.6,-181.99"/>
</g>
<!-- Node6 -->
<g id="node6" class="node">
<title>Node6</title>
<g id="a_node6"><a xlink:href="classsisi4s_1_1Data.html#a0ec0b1c7f2356fd43d82ee1dd0246789" target="_top" xlink:title=" ">
<polygon fill="none" stroke="black" points="586,-202 586,-221 733,-221 733,-202 586,-202"/>
<text text-anchor="middle" x="659.5" y="-209" font-family="Helvetica,sans-Serif" font-size="10.00">sisi4s::Data::getTypeName</text>
</a>
</g>
</g>
<!-- Node3&#45;&gt;Node6 -->
<g id="edge5" class="edge">
<title>Node3&#45;&gt;Node6</title>
<path fill="none" stroke="midnightblue" d="M530.01,-211.5C544.48,-211.5 560.34,-211.5 575.83,-211.5"/>
<polygon fill="midnightblue" stroke="midnightblue" points="575.94,-215 585.94,-211.5 575.94,-208 575.94,-215"/>
</g>
<!-- Node5 -->
<g id="node5" class="node">
<title>Node5</title>
<g id="a_node5"><a xlink:href="classsisi4s_1_1Data.html#a5b4676e48b4f437d399587e6903f896a" target="_top" xlink:title=" ">
<polygon fill="none" stroke="black" points="776,-153 776,-172 871,-172 871,-153 776,-153"/>
<text text-anchor="middle" x="823.5" y="-160" font-family="Helvetica,sans-Serif" font-size="10.00">sisi4s::Data::get</text>
</a>
</g>
</g>
<!-- Node4&#45;&gt;Node5 -->
<g id="edge4" class="edge">
<title>Node4&#45;&gt;Node5</title>
<path fill="none" stroke="midnightblue" d="M711.76,-162.5C728.96,-162.5 748.24,-162.5 765.83,-162.5"/>
<polygon fill="midnightblue" stroke="midnightblue" points="765.97,-166 775.97,-162.5 765.97,-159 765.97,-166"/>
</g>
<!-- Node7&#45;&gt;Node4 -->
<g id="edge7" class="edge">
<title>Node7&#45;&gt;Node4</title>
<path fill="none" stroke="midnightblue" d="M524.83,-246.46C531.22,-243.66 537.45,-240.37 543,-236.5 563.73,-222.05 558.48,-207.24 579,-192.5 584.85,-188.3 591.36,-184.61 598.06,-181.39"/>
<polygon fill="midnightblue" stroke="midnightblue" points="599.57,-184.55 607.28,-177.28 596.72,-178.15 599.57,-184.55"/>
</g>
<!-- Node7&#45;&gt;Node6 -->
<g id="edge10" class="edge">
<title>Node7&#45;&gt;Node6</title>
<path fill="none" stroke="midnightblue" d="M524.54,-246.98C552.14,-239.67 585.94,-230.72 612.69,-223.63"/>
<polygon fill="midnightblue" stroke="midnightblue" points="613.8,-226.96 622.57,-221.02 612,-220.19 613.8,-226.96"/>
</g>
<!-- Node8 -->
<g id="node8" class="node">
<title>Node8</title>
<g id="a_node8"><a xlink:href="classsisi4s_1_1Algorithm.html#a1cb9a5e8f19cd8e6b70bb06738ca9413" target="_top" xlink:title=" ">
<polygon fill="none" stroke="black" points="579,-242.5 579,-272.5 740,-272.5 740,-242.5 579,-242.5"/>
<text text-anchor="start" x="587" y="-260.5" font-family="Helvetica,sans-Serif" font-size="10.00">sisi4s::Algorithm::</text>
<text text-anchor="middle" x="659.5" y="-249.5" font-family="Helvetica,sans-Serif" font-size="10.00">getRealArgumentFromInteger</text>
</a>
</g>
</g>
<!-- Node7&#45;&gt;Node8 -->
<g id="edge8" class="edge">
<title>Node7&#45;&gt;Node8</title>
<path fill="none" stroke="midnightblue" d="M524.54,-259.67C538.18,-259.45 553.34,-259.21 568.42,-258.96"/>
<polygon fill="midnightblue" stroke="midnightblue" points="568.88,-262.45 578.82,-258.79 568.77,-255.45 568.88,-262.45"/>
</g>
<!-- Node9 -->
<g id="node9" class="node">
<title>Node9</title>
<g id="a_node9"><a xlink:href="classsisi4s_1_1Algorithm.html#a89e59623f1c238a871a4fba19371be7d" target="_top" xlink:title=" ">
<polygon fill="none" stroke="black" points="580.5,-291.5 580.5,-321.5 738.5,-321.5 738.5,-291.5 580.5,-291.5"/>
<text text-anchor="start" x="588.5" y="-309.5" font-family="Helvetica,sans-Serif" font-size="10.00">sisi4s::Algorithm::</text>
<text text-anchor="middle" x="659.5" y="-298.5" font-family="Helvetica,sans-Serif" font-size="10.00">getRealArgumentFromTensor</text>
</a>
</g>
</g>
<!-- Node7&#45;&gt;Node9 -->
<g id="edge9" class="edge">
<title>Node7&#45;&gt;Node9</title>
<path fill="none" stroke="midnightblue" d="M524.54,-273.19C544.21,-278.08 567.03,-283.76 588.2,-289.02"/>
<polygon fill="midnightblue" stroke="midnightblue" points="587.56,-292.47 598.11,-291.48 589.25,-285.67 587.56,-292.47"/>
</g>
<!-- Node10&#45;&gt;Node4 -->
<g id="edge12" class="edge">
<title>Node10&#45;&gt;Node4</title>
<path fill="none" stroke="midnightblue" d="M524.54,-127.02C547.1,-132.99 573.79,-140.06 597.4,-146.32"/>
<polygon fill="midnightblue" stroke="midnightblue" points="596.74,-149.76 607.3,-148.94 598.53,-143 596.74,-149.76"/>
</g>
<!-- Node11 -->
<g id="node11" class="node">
<title>Node11</title>
<g id="a_node11"><a xlink:href="classsisi4s_1_1Data.html#a10819dce08cb4dd8d881b9fe02036d69" target="_top" xlink:title=" ">
<polygon fill="none" stroke="black" points="597,-55 597,-74 722,-74 722,-55 597,-55"/>
<text text-anchor="middle" x="659.5" y="-62" font-family="Helvetica,sans-Serif" font-size="10.00">sisi4s::Data::getName</text>
</a>
</g>
</g>
<!-- Node10&#45;&gt;Node11 -->
<g id="edge13" class="edge">
<title>Node10&#45;&gt;Node11</title>
<path fill="none" stroke="midnightblue" d="M524.54,-99.98C552.14,-92.67 585.94,-83.72 612.69,-76.63"/>
<polygon fill="midnightblue" stroke="midnightblue" points="613.8,-79.96 622.57,-74.02 612,-73.19 613.8,-79.96"/>
</g>
<!-- Node13 -->
<g id="node13" class="node">
<title>Node13</title>
<g id="a_node13"><a xlink:href="classsisi4s_1_1Algorithm.html#a388052a12509b8b641f17bbe8d41f8f3" target="_top" xlink:title="Specifies the location of an output tensor data.">
<polygon fill="none" stroke="black" points="402,-0.5 402,-30.5 543,-30.5 543,-0.5 402,-0.5"/>
<text text-anchor="start" x="410" y="-18.5" font-family="Helvetica,sans-Serif" font-size="10.00">sisi4s::Algorithm::</text>
<text text-anchor="middle" x="472.5" y="-7.5" font-family="Helvetica,sans-Serif" font-size="10.00">allocatedTensorArgument</text>
</a>
</g>
</g>
<!-- Node12&#45;&gt;Node13 -->
<g id="edge15" class="edge">
<title>Node12&#45;&gt;Node13</title>
<path fill="none" stroke="midnightblue" d="M350.71,-103.35C356.11,-100.84 361.28,-97.91 366,-94.5 389.68,-77.38 378.95,-57.46 402,-39.5 403.8,-38.1 405.69,-36.77 407.64,-35.53"/>
<polygon fill="midnightblue" stroke="midnightblue" points="409.56,-38.46 416.57,-30.51 406.14,-32.36 409.56,-38.46"/>
</g>
<!-- Node14 -->
<g id="node14" class="node">
<title>Node14</title>
<g id="a_node14"><a xlink:href="classsisi4s_1_1Algorithm.html#a338a44c8fd4d6be3b32a6d5e71dfe180" target="_top" xlink:title=" ">
<polygon fill="none" stroke="black" points="416.5,-147.5 416.5,-177.5 528.5,-177.5 528.5,-147.5 416.5,-147.5"/>
<text text-anchor="start" x="424.5" y="-165.5" font-family="Helvetica,sans-Serif" font-size="10.00">sisi4s::Algorithm::</text>
<text text-anchor="middle" x="472.5" y="-154.5" font-family="Helvetica,sans-Serif" font-size="10.00">getTensorArgument</text>
</a>
</g>
</g>
<!-- Node12&#45;&gt;Node14 -->
<g id="edge18" class="edge">
<title>Node12&#45;&gt;Node14</title>
<path fill="none" stroke="midnightblue" d="M342.73,-133.52C363.36,-138.16 386.04,-143.27 406.55,-147.88"/>
<polygon fill="midnightblue" stroke="midnightblue" points="405.9,-151.32 416.42,-150.1 407.44,-144.49 405.9,-151.32"/>
</g>
<!-- Node15 -->
<g id="node15" class="node">
<title>Node15</title>
<g id="a_node15"><a xlink:href="classsisi4s_1_1Algorithm.html#aec9041b31cb64a42ee1fd79d32774266" target="_top" xlink:title=" ">
<polygon fill="none" stroke="black" points="420.5,-49.5 420.5,-79.5 524.5,-79.5 524.5,-49.5 420.5,-49.5"/>
<text text-anchor="start" x="428.5" y="-67.5" font-family="Helvetica,sans-Serif" font-size="10.00">sisi4s::Algorithm::</text>
<text text-anchor="middle" x="472.5" y="-56.5" font-family="Helvetica,sans-Serif" font-size="10.00">isArgumentGiven</text>
</a>
</g>
</g>
<!-- Node12&#45;&gt;Node15 -->
<g id="edge21" class="edge">
<title>Node12&#45;&gt;Node15</title>
<path fill="none" stroke="midnightblue" d="M333.17,-103.41C344.08,-100.48 355.4,-97.42 366,-94.5 380.39,-90.53 395.87,-86.18 410.41,-82.06"/>
<polygon fill="midnightblue" stroke="midnightblue" points="411.64,-85.34 420.3,-79.24 409.73,-78.61 411.64,-85.34"/>
</g>
<!-- Node13&#45;&gt;Node4 -->
<g id="edge16" class="edge">
<title>Node13&#45;&gt;Node4</title>
<path fill="none" stroke="midnightblue" d="M526.99,-30.51C532.62,-33.09 538.08,-36.07 543,-39.5 563.73,-53.95 562.02,-64.79 579,-83.5 596.98,-103.31 618.58,-124.63 634.73,-140.12"/>
<polygon fill="midnightblue" stroke="midnightblue" points="632.52,-142.86 642.17,-147.23 637.36,-137.79 632.52,-142.86"/>
</g>
<!-- Node13&#45;&gt;Node11 -->
<g id="edge17" class="edge">
<title>Node13&#45;&gt;Node11</title>
<path fill="none" stroke="midnightblue" d="M530.26,-30.53C556.68,-37.53 587.7,-45.75 612.61,-52.34"/>
<polygon fill="midnightblue" stroke="midnightblue" points="611.96,-55.79 622.53,-54.97 613.76,-49.03 611.96,-55.79"/>
</g>
<!-- Node14&#45;&gt;Node4 -->
<g id="edge19" class="edge">
<title>Node14&#45;&gt;Node4</title>
<path fill="none" stroke="midnightblue" d="M528.51,-162.5C550.02,-162.5 574.79,-162.5 596.91,-162.5"/>
<polygon fill="midnightblue" stroke="midnightblue" points="597.19,-166 607.19,-162.5 597.19,-159 597.19,-166"/>
</g>
<!-- Node14&#45;&gt;Node6 -->
<g id="edge20" class="edge">
<title>Node14&#45;&gt;Node6</title>
<path fill="none" stroke="midnightblue" d="M528.51,-177.07C555.3,-184.17 587.16,-192.6 612.62,-199.35"/>
<polygon fill="midnightblue" stroke="midnightblue" points="611.84,-202.76 622.4,-201.94 613.63,-195.99 611.84,-202.76"/>
</g>
</g>
</svg>
