<?xml version="1.0" encoding="UTF-8" standalone="no"?>
<!DOCTYPE svg PUBLIC "-//W3C//DTD SVG 1.1//EN"
 "http://www.w3.org/Graphics/SVG/1.1/DTD/svg11.dtd">
<!-- Generated by graphviz version 7.0.0 (0)
 -->
<!-- Title: sisi4s::OneBodyRotation::run Pages: 1 -->
<svg width="642pt" height="182pt"
 viewBox="0.00 0.00 642.00 182.00" xmlns="http://www.w3.org/2000/svg" xmlns:xlink="http://www.w3.org/1999/xlink">
<g id="graph0" class="graph" transform="scale(1 1) rotate(0) translate(4 178)">
<title>sisi4s::OneBodyRotation::run</title>
<!-- Node1 -->
<g id="node1" class="node">
<title>Node1</title>
<g id="a_node1"><a xlink:title=" ">
<polygon fill="#999999" stroke="#666666" points="158,-96.5 0,-96.5 0,-77.5 158,-77.5 158,-96.5"/>
<text text-anchor="middle" x="79" y="-84.5" font-family="Helvetica,sans-Serif" font-size="10.00">sisi4s::OneBodyRotation::run</text>
</a>
</g>
</g>
<!-- Node2 -->
<g id="node2" class="node">
<title>Node2</title>
<g id="a_node2"><a xlink:href="classsisi4s_1_1Algorithm.html#a89f4af1584daed17ef628784e7e9c443" target="_top" xlink:title=" ">
<polygon fill="white" stroke="#666666" points="320,-174 194,-174 194,-144 320,-144 320,-174"/>
<text text-anchor="start" x="202" y="-162" font-family="Helvetica,sans-Serif" font-size="10.00">sisi4s::Algorithm::</text>
<text text-anchor="middle" x="257" y="-151" font-family="Helvetica,sans-Serif" font-size="10.00">checkArgumentsOrDie</text>
</a>
</g>
</g>
<!-- Node1&#45;&gt;Node2 -->
<g id="edge1" class="edge">
<title>Node1&#45;&gt;Node2</title>
<path fill="none" stroke="#63b8ff" d="M103.06,-96.94C126.03,-106.79 162.34,-122.21 194,-135 197.59,-136.45 201.3,-137.93 205.04,-139.41"/>
<polygon fill="#63b8ff" stroke="#63b8ff" points="203.58,-142.6 214.17,-143 206.14,-136.08 203.58,-142.6"/>
</g>
<!-- Node4 -->
<g id="node4" class="node">
<title>Node4</title>
<g id="a_node4"><a xlink:href="classsisi4s_1_1Algorithm.html#a5db14be3b0d33bf80218a37223e27667" target="_top" xlink:title=" ">
<polygon fill="white" stroke="#666666" points="314.5,-126 199.5,-126 199.5,-96 314.5,-96 314.5,-126"/>
<text text-anchor="start" x="207.5" y="-114" font-family="Helvetica,sans-Serif" font-size="10.00">sisi4s::Algorithm::</text>
<text text-anchor="middle" x="257" y="-103" font-family="Helvetica,sans-Serif" font-size="10.00">getIntegerArgument</text>
</a>
</g>
</g>
<!-- Node1&#45;&gt;Node4 -->
<g id="edge3" class="edge">
<title>Node1&#45;&gt;Node4</title>
<path fill="none" stroke="#63b8ff" d="M153.11,-96.97C164.66,-98.54 176.55,-100.17 187.98,-101.72"/>
<polygon fill="#63b8ff" stroke="#63b8ff" points="187.33,-105.17 197.71,-103.05 188.28,-98.23 187.33,-105.17"/>
</g>
<!-- Node8 -->
<g id="node8" class="node">
<title>Node8</title>
<g id="a_node8"><a xlink:href="classsisi4s_1_1Algorithm.html#a338a44c8fd4d6be3b32a6d5e71dfe180" target="_top" xlink:title=" ">
<polygon fill="white" stroke="#666666" points="313,-78 201,-78 201,-48 313,-48 313,-78"/>
<text text-anchor="start" x="209" y="-66" font-family="Helvetica,sans-Serif" font-size="10.00">sisi4s::Algorithm::</text>
<text text-anchor="middle" x="257" y="-55" font-family="Helvetica,sans-Serif" font-size="10.00">getTensorArgument</text>
</a>
</g>
</g>
<!-- Node1&#45;&gt;Node8 -->
<g id="edge7" class="edge">
<title>Node1&#45;&gt;Node8</title>
<path fill="none" stroke="#63b8ff" d="M153.11,-77.03C165.13,-75.39 177.54,-73.7 189.4,-72.08"/>
<polygon fill="#63b8ff" stroke="#63b8ff" points="189.63,-75.58 199.06,-70.76 188.68,-68.65 189.63,-75.58"/>
</g>
<!-- Node9 -->
<g id="node9" class="node">
<title>Node9</title>
<g id="a_node9"><a xlink:href="classsisi4s_1_1Algorithm.html#aec9041b31cb64a42ee1fd79d32774266" target="_top" xlink:title=" ">
<polygon fill="white" stroke="#666666" points="309,-30 205,-30 205,0 309,0 309,-30"/>
<text text-anchor="start" x="213" y="-18" font-family="Helvetica,sans-Serif" font-size="10.00">sisi4s::Algorithm::</text>
<text text-anchor="middle" x="257" y="-7" font-family="Helvetica,sans-Serif" font-size="10.00">isArgumentGiven</text>
</a>
</g>
</g>
<!-- Node1&#45;&gt;Node9 -->
<g id="edge10" class="edge">
<title>Node1&#45;&gt;Node9</title>
<path fill="none" stroke="#63b8ff" d="M103.06,-77.06C126.03,-67.21 162.34,-51.79 194,-39 197.59,-37.55 201.3,-36.07 205.04,-34.59"/>
<polygon fill="#63b8ff" stroke="#63b8ff" points="206.14,-37.92 214.17,-31 203.58,-31.4 206.14,-37.92"/>
</g>
<!-- Node3 -->
<g id="node3" class="node">
<title>Node3</title>
<g id="a_node3"><a xlink:href="classsisi4s_1_1Algorithm.html#acfd102240a53352574ed9b5632f1ef59" target="_top" xlink:title=" ">
<polygon fill="white" stroke="#666666" points="501,-174 358,-174 358,-144 501,-144 501,-174"/>
<text text-anchor="start" x="366" y="-162" font-family="Helvetica,sans-Serif" font-size="10.00">sisi4s::Algorithm::</text>
<text text-anchor="middle" x="429.5" y="-151" font-family="Helvetica,sans-Serif" font-size="10.00">getGivenArgumentNames</text>
</a>
</g>
</g>
<!-- Node2&#45;&gt;Node3 -->
<g id="edge2" class="edge">
<title>Node2&#45;&gt;Node3</title>
<path fill="none" stroke="#63b8ff" d="M320.04,-159C328.51,-159 337.32,-159 346.08,-159"/>
<polygon fill="#63b8ff" stroke="#63b8ff" points="346.04,-162.5 356.04,-159 346.04,-155.5 346.04,-162.5"/>
</g>
<!-- Node5 -->
<g id="node5" class="node">
<title>Node5</title>
<g id="a_node5"><a xlink:href="classsisi4s_1_1Algorithm.html#a1e53277220d32a33e20846267c253652" target="_top" xlink:title=" ">
<polygon fill="white" stroke="#666666" points="481.5,-80 377.5,-80 377.5,-50 481.5,-50 481.5,-80"/>
<text text-anchor="start" x="385.5" y="-68" font-family="Helvetica,sans-Serif" font-size="10.00">sisi4s::Algorithm::</text>
<text text-anchor="middle" x="429.5" y="-57" font-family="Helvetica,sans-Serif" font-size="10.00">getArgumentData</text>
</a>
</g>
</g>
<!-- Node4&#45;&gt;Node5 -->
<g id="edge4" class="edge">
<title>Node4&#45;&gt;Node5</title>
<path fill="none" stroke="#63b8ff" d="M314.77,-95.68C331.3,-91.22 349.45,-86.33 366.29,-81.78"/>
<polygon fill="#63b8ff" stroke="#63b8ff" points="366.94,-85.23 375.68,-79.25 365.11,-78.48 366.94,-85.23"/>
</g>
<!-- Node7 -->
<g id="node7" class="node">
<title>Node7</title>
<g id="a_node7"><a xlink:href="classsisi4s_1_1Data.html#a0ec0b1c7f2356fd43d82ee1dd0246789" target="_top" xlink:title=" ">
<polygon fill="white" stroke="#666666" points="503,-118.5 356,-118.5 356,-99.5 503,-99.5 503,-118.5"/>
<text text-anchor="middle" x="429.5" y="-106.5" font-family="Helvetica,sans-Serif" font-size="10.00">sisi4s::Data::getTypeName</text>
</a>
</g>
</g>
<!-- Node4&#45;&gt;Node7 -->
<g id="edge6" class="edge">
<title>Node4&#45;&gt;Node7</title>
<path fill="none" stroke="#63b8ff" d="M314.77,-110.33C324.28,-110.22 334.31,-110.1 344.33,-109.99"/>
<polygon fill="#63b8ff" stroke="#63b8ff" points="344.12,-113.49 354.08,-109.87 344.04,-106.49 344.12,-113.49"/>
</g>
<!-- Node6 -->
<g id="node6" class="node">
<title>Node6</title>
<g id="a_node6"><a xlink:href="classsisi4s_1_1Data.html#a5b4676e48b4f437d399587e6903f896a" target="_top" xlink:title=" ">
<polygon fill="white" stroke="#666666" points="634,-74.5 539,-74.5 539,-55.5 634,-55.5 634,-74.5"/>
<text text-anchor="middle" x="586.5" y="-62.5" font-family="Helvetica,sans-Serif" font-size="10.00">sisi4s::Data::get</text>
</a>
</g>
</g>
<!-- Node5&#45;&gt;Node6 -->
<g id="edge5" class="edge">
<title>Node5&#45;&gt;Node6</title>
<path fill="none" stroke="#63b8ff" d="M481.68,-65C496.3,-65 512.33,-65 527.33,-65"/>
<polygon fill="#63b8ff" stroke="#63b8ff" points="527.05,-68.5 537.05,-65 527.05,-61.5 527.05,-68.5"/>
</g>
<!-- Node8&#45;&gt;Node5 -->
<g id="edge8" class="edge">
<title>Node8&#45;&gt;Node5</title>
<path fill="none" stroke="#63b8ff" d="M313.36,-63.65C330.19,-63.85 348.8,-64.07 366.06,-64.27"/>
<polygon fill="#63b8ff" stroke="#63b8ff" points="365.62,-67.76 375.66,-64.38 365.71,-60.76 365.62,-67.76"/>
</g>
<!-- Node8&#45;&gt;Node7 -->
<g id="edge9" class="edge">
<title>Node8&#45;&gt;Node7</title>
<path fill="none" stroke="#63b8ff" d="M313.36,-77.93C335.12,-83.81 359.85,-90.48 380.8,-96.13"/>
<polygon fill="#63b8ff" stroke="#63b8ff" points="379.67,-99.45 390.23,-98.68 381.49,-92.69 379.67,-99.45"/>
</g>
</g>
</svg>
