<?xml version="1.0" encoding="UTF-8" standalone="no"?>
<!DOCTYPE svg PUBLIC "-//W3C//DTD SVG 1.1//EN"
 "http://www.w3.org/Graphics/SVG/1.1/DTD/svg11.dtd">
<!-- Generated by graphviz version 7.1.0 (0)
 -->
<!-- Title: sisi4s::UCcsdEAEquationOfMotionDavidson::run Pages: 1 -->
<svg width="703pt" height="334pt"
 viewBox="0.00 0.00 703.00 333.50" xmlns="http://www.w3.org/2000/svg" xmlns:xlink="http://www.w3.org/1999/xlink">
<g id="graph0" class="graph" transform="scale(1 1) rotate(0) translate(4 329.5)">
<title>sisi4s::UCcsdEAEquationOfMotionDavidson::run</title>
<!-- Node1 -->
<g id="node1" class="node">
<title>Node1</title>
<g id="a_node1"><a xlink:title=" ">
<polygon fill="#999999" stroke="#666666" points="148,-181.5 0,-181.5 0,-151.5 148,-151.5 148,-181.5"/>
<text text-anchor="start" x="8" y="-169.5" font-family="Helvetica,sans-Serif" font-size="10.00">sisi4s::UCcsdEAEquationOf</text>
<text text-anchor="middle" x="74" y="-158.5" font-family="Helvetica,sans-Serif" font-size="10.00">MotionDavidson::run</text>
</a>
</g>
</g>
<!-- Node2 -->
<g id="node2" class="node">
<title>Node2</title>
<g id="a_node2"><a xlink:href="classsisi4s_1_1Algorithm.html#a5db14be3b0d33bf80218a37223e27667" target="_top" xlink:title=" ">
<polygon fill="white" stroke="#666666" points="333,-325.5 218,-325.5 218,-295.5 333,-295.5 333,-325.5"/>
<text text-anchor="start" x="226" y="-313.5" font-family="Helvetica,sans-Serif" font-size="10.00">sisi4s::Algorithm::</text>
<text text-anchor="middle" x="275.5" y="-302.5" font-family="Helvetica,sans-Serif" font-size="10.00">getIntegerArgument</text>
</a>
</g>
</g>
<!-- Node1&#45;&gt;Node2 -->
<g id="edge1" class="edge">
<title>Node1&#45;&gt;Node2</title>
<path fill="none" stroke="#63b8ff" d="M84.69,-181.99C101.6,-207.73 139.03,-259.16 184,-286.5 191.15,-290.85 199.08,-294.41 207.19,-297.34"/>
<polygon fill="#63b8ff" stroke="#63b8ff" points="205.87,-300.59 216.46,-300.36 208.04,-293.94 205.87,-300.59"/>
</g>
<!-- Node6 -->
<g id="node6" class="node">
<title>Node6</title>
<g id="a_node6"><a xlink:href="classsisi4s_1_1Algorithm.html#a36c632fbb19dae4ce2f415705fa5cbcb" target="_top" xlink:title=" ">
<polygon fill="white" stroke="#666666" points="327.5,-181.5 223.5,-181.5 223.5,-151.5 327.5,-151.5 327.5,-181.5"/>
<text text-anchor="start" x="231.5" y="-169.5" font-family="Helvetica,sans-Serif" font-size="10.00">sisi4s::Algorithm::</text>
<text text-anchor="middle" x="275.5" y="-158.5" font-family="Helvetica,sans-Serif" font-size="10.00">getRealArgument</text>
</a>
</g>
</g>
<!-- Node1&#45;&gt;Node6 -->
<g id="edge5" class="edge">
<title>Node1&#45;&gt;Node6</title>
<path fill="none" stroke="#63b8ff" d="M148.44,-166.5C169.15,-166.5 191.49,-166.5 211.53,-166.5"/>
<polygon fill="#63b8ff" stroke="#63b8ff" points="211.52,-170 221.52,-166.5 211.52,-163 211.52,-170"/>
</g>
<!-- Node9 -->
<g id="node9" class="node">
<title>Node9</title>
<g id="a_node9"><a xlink:href="classsisi4s_1_1Algorithm.html#a338a44c8fd4d6be3b32a6d5e71dfe180" target="_top" xlink:title=" ">
<polygon fill="white" stroke="#666666" points="331.5,-277.5 219.5,-277.5 219.5,-247.5 331.5,-247.5 331.5,-277.5"/>
<text text-anchor="start" x="227.5" y="-265.5" font-family="Helvetica,sans-Serif" font-size="10.00">sisi4s::Algorithm::</text>
<text text-anchor="middle" x="275.5" y="-254.5" font-family="Helvetica,sans-Serif" font-size="10.00">getTensorArgument</text>
</a>
</g>
</g>
<!-- Node1&#45;&gt;Node9 -->
<g id="edge10" class="edge">
<title>Node1&#45;&gt;Node9</title>
<path fill="none" stroke="#63b8ff" d="M93.96,-181.82C114.87,-198.01 150.06,-223.28 184,-238.5 191.73,-241.97 200.07,-245.02 208.45,-247.68"/>
<polygon fill="#63b8ff" stroke="#63b8ff" points="207.4,-251.02 217.98,-250.52 209.4,-244.31 207.4,-251.02"/>
</g>
<!-- Node10 -->
<g id="node10" class="node">
<title>Node10</title>
<g id="a_node10"><a xlink:href="classsisi4s_1_1Algorithm.html#a5e80a507fac066ab5714b62364cabaaf" target="_top" xlink:title=" ">
<polygon fill="white" stroke="#666666" points="327.5,-229.5 223.5,-229.5 223.5,-199.5 327.5,-199.5 327.5,-229.5"/>
<text text-anchor="start" x="231.5" y="-217.5" font-family="Helvetica,sans-Serif" font-size="10.00">sisi4s::Algorithm::</text>
<text text-anchor="middle" x="275.5" y="-206.5" font-family="Helvetica,sans-Serif" font-size="10.00">getTextArgument</text>
</a>
</g>
</g>
<!-- Node1&#45;&gt;Node10 -->
<g id="edge13" class="edge">
<title>Node1&#45;&gt;Node10</title>
<path fill="none" stroke="#63b8ff" d="M139.22,-181.95C162.52,-187.56 188.79,-193.88 211.94,-199.45"/>
<polygon fill="#63b8ff" stroke="#63b8ff" points="211.02,-202.83 221.56,-201.76 212.66,-196.02 211.02,-202.83"/>
</g>
<!-- Node11 -->
<g id="node11" class="node">
<title>Node11</title>
<g id="a_node11"><a xlink:href="classsisi4s_1_1Algorithm.html#aec9041b31cb64a42ee1fd79d32774266" target="_top" xlink:title=" ">
<polygon fill="white" stroke="#666666" points="327.5,-133.5 223.5,-133.5 223.5,-103.5 327.5,-103.5 327.5,-133.5"/>
<text text-anchor="start" x="231.5" y="-121.5" font-family="Helvetica,sans-Serif" font-size="10.00">sisi4s::Algorithm::</text>
<text text-anchor="middle" x="275.5" y="-110.5" font-family="Helvetica,sans-Serif" font-size="10.00">isArgumentGiven</text>
</a>
</g>
</g>
<!-- Node1&#45;&gt;Node11 -->
<g id="edge16" class="edge">
<title>Node1&#45;&gt;Node11</title>
<path fill="none" stroke="#63b8ff" d="M139.22,-151.05C162.52,-145.44 188.79,-139.12 211.94,-133.55"/>
<polygon fill="#63b8ff" stroke="#63b8ff" points="212.66,-136.98 221.56,-131.24 211.02,-130.17 212.66,-136.98"/>
</g>
<!-- Node12 -->
<g id="node12" class="node">
<title>Node12</title>
<g id="a_node12"><a xlink:href="classsisi4s_1_1SimilarityTransformedHamiltonian.html#abddef4c3b1842ca082ef1a6b377de129" target="_top" xlink:title=" ">
<polygon fill="white" stroke="#666666" points="367,-85.5 184,-85.5 184,-55.5 367,-55.5 367,-85.5"/>
<text text-anchor="start" x="192" y="-73.5" font-family="Helvetica,sans-Serif" font-size="10.00">sisi4s::SimilarityTransformed</text>
<text text-anchor="middle" x="275.5" y="-62.5" font-family="Helvetica,sans-Serif" font-size="10.00">Hamiltonian::rightApply_CCSD_EA</text>
</a>
</g>
</g>
<!-- Node1&#45;&gt;Node12 -->
<g id="edge17" class="edge">
<title>Node1&#45;&gt;Node12</title>
<path fill="none" stroke="#63b8ff" d="M93.96,-151.18C114.87,-134.99 150.06,-109.72 184,-94.5 187.78,-92.8 191.71,-91.21 195.71,-89.71"/>
<polygon fill="#63b8ff" stroke="#63b8ff" points="196.73,-93.06 205.02,-86.46 194.43,-86.45 196.73,-93.06"/>
</g>
<!-- Node13 -->
<g id="node13" class="node">
<title>Node13</title>
<g id="a_node13"><a xlink:href="namespacesisi4s.html#a2653420c2b1b1224ad8f6b1d538228f1" target="_top" xlink:title="Composes a tensor of complex elements containing of the given tensors of real and imaginary parts....">
<polygon fill="white" stroke="#666666" points="343,-19 208,-19 208,0 343,0 343,-19"/>
<text text-anchor="middle" x="275.5" y="-7" font-family="Helvetica,sans-Serif" font-size="10.00">sisi4s::toComplexTensor</text>
</a>
</g>
</g>
<!-- Node1&#45;&gt;Node13 -->
<g id="edge18" class="edge">
<title>Node1&#45;&gt;Node13</title>
<path fill="none" stroke="#63b8ff" d="M85.37,-151.22C103.01,-126.27 141.11,-76.52 184,-46.5 197.76,-36.87 214.41,-29.15 229.66,-23.31"/>
<polygon fill="#63b8ff" stroke="#63b8ff" points="230.82,-26.61 239.03,-19.91 228.43,-20.03 230.82,-26.61"/>
</g>
<!-- Node3 -->
<g id="node3" class="node">
<title>Node3</title>
<g id="a_node3"><a xlink:href="classsisi4s_1_1Algorithm.html#a1e53277220d32a33e20846267c253652" target="_top" xlink:title=" ">
<polygon fill="white" stroke="#666666" points="535.5,-275.5 431.5,-275.5 431.5,-245.5 535.5,-245.5 535.5,-275.5"/>
<text text-anchor="start" x="439.5" y="-263.5" font-family="Helvetica,sans-Serif" font-size="10.00">sisi4s::Algorithm::</text>
<text text-anchor="middle" x="483.5" y="-252.5" font-family="Helvetica,sans-Serif" font-size="10.00">getArgumentData</text>
</a>
</g>
</g>
<!-- Node2&#45;&gt;Node3 -->
<g id="edge2" class="edge">
<title>Node2&#45;&gt;Node3</title>
<path fill="none" stroke="#63b8ff" d="M333.34,-296.7C360.24,-290.18 392.43,-282.36 420.02,-275.67"/>
<polygon fill="#63b8ff" stroke="#63b8ff" points="420.77,-279.09 429.66,-273.33 419.12,-272.28 420.77,-279.09"/>
</g>
<!-- Node5 -->
<g id="node5" class="node">
<title>Node5</title>
<g id="a_node5"><a xlink:href="classsisi4s_1_1Data.html#a0ec0b1c7f2356fd43d82ee1dd0246789" target="_top" xlink:title=" ">
<polygon fill="white" stroke="#666666" points="557,-225 410,-225 410,-206 557,-206 557,-225"/>
<text text-anchor="middle" x="483.5" y="-213" font-family="Helvetica,sans-Serif" font-size="10.00">sisi4s::Data::getTypeName</text>
</a>
</g>
</g>
<!-- Node2&#45;&gt;Node5 -->
<g id="edge4" class="edge">
<title>Node2&#45;&gt;Node5</title>
<path fill="none" stroke="#63b8ff" d="M333.19,-301.84C345.03,-298.34 356.96,-293.41 367,-286.5 389.55,-270.97 380.44,-252.02 403,-236.5 406.67,-233.98 410.62,-231.76 414.73,-229.81"/>
<polygon fill="#63b8ff" stroke="#63b8ff" points="415.91,-233.11 423.82,-226.06 413.24,-226.63 415.91,-233.11"/>
</g>
<!-- Node4 -->
<g id="node4" class="node">
<title>Node4</title>
<g id="a_node4"><a xlink:href="classsisi4s_1_1Data.html#a5b4676e48b4f437d399587e6903f896a" target="_top" xlink:title=" ">
<polygon fill="white" stroke="#666666" points="695,-270 600,-270 600,-251 695,-251 695,-270"/>
<text text-anchor="middle" x="647.5" y="-258" font-family="Helvetica,sans-Serif" font-size="10.00">sisi4s::Data::get</text>
</a>
</g>
</g>
<!-- Node3&#45;&gt;Node4 -->
<g id="edge3" class="edge">
<title>Node3&#45;&gt;Node4</title>
<path fill="none" stroke="#63b8ff" d="M535.76,-260.5C552.56,-260.5 571.35,-260.5 588.61,-260.5"/>
<polygon fill="#63b8ff" stroke="#63b8ff" points="588.18,-264 598.18,-260.5 588.18,-257 588.18,-264"/>
</g>
<!-- Node6&#45;&gt;Node3 -->
<g id="edge6" class="edge">
<title>Node6&#45;&gt;Node3</title>
<path fill="none" stroke="#63b8ff" d="M327.67,-174.18C341.18,-177.74 355.25,-182.93 367,-190.5 388.24,-204.18 382.15,-220.22 403,-234.5 408.45,-238.23 414.47,-241.46 420.69,-244.24"/>
<polygon fill="#63b8ff" stroke="#63b8ff" points="419.29,-247.45 429.88,-247.95 421.91,-240.96 419.29,-247.45"/>
</g>
<!-- Node6&#45;&gt;Node5 -->
<g id="edge9" class="edge">
<title>Node6&#45;&gt;Node5</title>
<path fill="none" stroke="#63b8ff" d="M327.95,-178.74C358.94,-186.11 398.32,-195.48 429.58,-202.91"/>
<polygon fill="#63b8ff" stroke="#63b8ff" points="428.68,-206.3 439.22,-205.21 430.3,-199.49 428.68,-206.3"/>
</g>
<!-- Node7 -->
<g id="node7" class="node">
<title>Node7</title>
<g id="a_node7"><a xlink:href="classsisi4s_1_1Algorithm.html#a1cb9a5e8f19cd8e6b70bb06738ca9413" target="_top" xlink:title=" ">
<polygon fill="white" stroke="#666666" points="564,-185.5 403,-185.5 403,-155.5 564,-155.5 564,-185.5"/>
<text text-anchor="start" x="411" y="-173.5" font-family="Helvetica,sans-Serif" font-size="10.00">sisi4s::Algorithm::</text>
<text text-anchor="middle" x="483.5" y="-162.5" font-family="Helvetica,sans-Serif" font-size="10.00">getRealArgumentFromInteger</text>
</a>
</g>
</g>
<!-- Node6&#45;&gt;Node7 -->
<g id="edge7" class="edge">
<title>Node6&#45;&gt;Node7</title>
<path fill="none" stroke="#63b8ff" d="M327.95,-167.5C347.23,-167.87 369.76,-168.31 391.56,-168.73"/>
<polygon fill="#63b8ff" stroke="#63b8ff" points="391.29,-172.23 401.36,-168.92 391.43,-165.23 391.29,-172.23"/>
</g>
<!-- Node8 -->
<g id="node8" class="node">
<title>Node8</title>
<g id="a_node8"><a xlink:href="classsisi4s_1_1Algorithm.html#a89e59623f1c238a871a4fba19371be7d" target="_top" xlink:title=" ">
<polygon fill="white" stroke="#666666" points="562.5,-137.5 404.5,-137.5 404.5,-107.5 562.5,-107.5 562.5,-137.5"/>
<text text-anchor="start" x="412.5" y="-125.5" font-family="Helvetica,sans-Serif" font-size="10.00">sisi4s::Algorithm::</text>
<text text-anchor="middle" x="483.5" y="-114.5" font-family="Helvetica,sans-Serif" font-size="10.00">getRealArgumentFromTensor</text>
</a>
</g>
</g>
<!-- Node6&#45;&gt;Node8 -->
<g id="edge8" class="edge">
<title>Node6&#45;&gt;Node8</title>
<path fill="none" stroke="#63b8ff" d="M327.95,-155.51C349.35,-150.94 374.75,-145.51 398.71,-140.4"/>
<polygon fill="#63b8ff" stroke="#63b8ff" points="399.43,-143.82 408.48,-138.31 397.97,-136.98 399.43,-143.82"/>
</g>
<!-- Node9&#45;&gt;Node3 -->
<g id="edge11" class="edge">
<title>Node9&#45;&gt;Node3</title>
<path fill="none" stroke="#63b8ff" d="M331.98,-261.96C359.1,-261.7 391.86,-261.38 419.88,-261.11"/>
<polygon fill="#63b8ff" stroke="#63b8ff" points="419.69,-264.61 429.66,-261.01 419.62,-257.61 419.69,-264.61"/>
</g>
<!-- Node9&#45;&gt;Node5 -->
<g id="edge12" class="edge">
<title>Node9&#45;&gt;Node5</title>
<path fill="none" stroke="#63b8ff" d="M331.98,-249.84C361.67,-243.07 398.11,-234.75 427.7,-228"/>
<polygon fill="#63b8ff" stroke="#63b8ff" points="428.23,-231.47 437.2,-225.84 426.67,-224.65 428.23,-231.47"/>
</g>
<!-- Node10&#45;&gt;Node3 -->
<g id="edge14" class="edge">
<title>Node10&#45;&gt;Node3</title>
<path fill="none" stroke="#63b8ff" d="M327.95,-225.99C355.95,-232.24 390.81,-240.02 420.32,-246.62"/>
<polygon fill="#63b8ff" stroke="#63b8ff" points="419.35,-249.98 429.87,-248.75 420.87,-243.15 419.35,-249.98"/>
</g>
<!-- Node10&#45;&gt;Node5 -->
<g id="edge15" class="edge">
<title>Node10&#45;&gt;Node5</title>
<path fill="none" stroke="#63b8ff" d="M327.95,-214.75C349.25,-214.85 374.5,-214.98 398.36,-215.09"/>
<polygon fill="#63b8ff" stroke="#63b8ff" points="398.04,-218.59 408.06,-215.14 398.08,-211.59 398.04,-218.59"/>
</g>
<!-- Node13&#45;&gt;Node13 -->
<g id="edge19" class="edge">
<title>Node13&#45;&gt;Node13</title>
<path fill="none" stroke="#63b8ff" d="M243.95,-19.37C229.56,-27.94 240.08,-37 275.5,-37 295.98,-37 308.13,-33.97 311.96,-29.76"/>
<polygon fill="#63b8ff" stroke="#63b8ff" points="315.13,-28.28 307.69,-20.74 308.8,-31.27 315.13,-28.28"/>
</g>
</g>
</svg>
