<?xml version="1.0" encoding="UTF-8" standalone="no"?>
<!DOCTYPE svg PUBLIC "-//W3C//DTD SVG 1.1//EN"
 "http://www.w3.org/Graphics/SVG/1.1/DTD/svg11.dtd">
<!-- Generated by graphviz version 9.0.0 (0)
 -->
<!-- Title: sisi4s::UCcsdEAEquationOfMotionDavidson Pages: 1 -->
<svg width="462pt" height="754pt"
 viewBox="0.00 0.00 462.25 754.25" xmlns="http://www.w3.org/2000/svg" xmlns:xlink="http://www.w3.org/1999/xlink">
<g id="graph0" class="graph" transform="scale(1 1) rotate(0) translate(4 750.25)">
<title>sisi4s::UCcsdEAEquationOfMotionDavidson</title>
<!-- Node1 -->
<g id="Node000001" class="node">
<title>Node1</title>
<g id="a_Node000001"><a xlink:title=" ">
<polygon fill="#999999" stroke="none" points="245,-142 41,-142 41,0 245,0 245,-142"/>
<text text-anchor="start" x="77.38" y="-128.5" font-family="Helvetica,sans-Serif" font-size="10.00">sisi4s::UCcsdEAEquationOf</text>
<text text-anchor="start" x="103.25" y="-115.75" font-family="Helvetica,sans-Serif" font-size="10.00">MotionDavidson</text>
<text text-anchor="start" x="44.88" y="-99.5" font-family="Helvetica,sans-Serif" font-size="10.00">#</text>
<text text-anchor="start" x="57" y="-99.5" font-family="Helvetica,sans-Serif" font-size="10.00">DEFAULT_MAX_ITERATIONS</text>
<text text-anchor="start" x="44.88" y="-83.5" font-family="Helvetica,sans-Serif" font-size="10.00">+</text>
<text text-anchor="start" x="57" y="-83.5" font-family="Helvetica,sans-Serif" font-size="10.00">getName()</text>
<text text-anchor="start" x="44.88" y="-67.5" font-family="Helvetica,sans-Serif" font-size="10.00">+</text>
<text text-anchor="start" x="57" y="-67.5" font-family="Helvetica,sans-Serif" font-size="10.00">UCcsdEAEquationOfMotionDavidson()</text>
<text text-anchor="start" x="44.88" y="-51.5" font-family="Helvetica,sans-Serif" font-size="10.00">+</text>
<text text-anchor="start" x="57" y="-51.5" font-family="Helvetica,sans-Serif" font-size="10.00">~UCcsdEAEquationOfMotion</text>
<text text-anchor="start" x="57" y="-38.75" font-family="Helvetica,sans-Serif" font-size="10.00">Davidson()</text>
<text text-anchor="start" x="44.88" y="-22.5" font-family="Helvetica,sans-Serif" font-size="10.00">+</text>
<text text-anchor="start" x="57" y="-22.5" font-family="Helvetica,sans-Serif" font-size="10.00">run()</text>
<text text-anchor="start" x="44.88" y="-6.5" font-family="Helvetica,sans-Serif" font-size="10.00">+</text>
<text text-anchor="start" x="57" y="-6.5" font-family="Helvetica,sans-Serif" font-size="10.00">run()</text>
<polygon fill="#666666" stroke="#666666" points="41,-111 41,-111 245,-111 245,-111 41,-111"/>
<polygon fill="#666666" stroke="#666666" points="41,-95 41,-95 55,-95 55,-95 41,-95"/>
<polygon fill="#666666" stroke="#666666" points="55,-95 55,-95 245,-95 245,-95 55,-95"/>
<polygon fill="none" stroke="#666666" points="41,0 41,-142 245,-142 245,0 41,0"/>
</a>
</g>
</g>
<!-- Node2 -->
<g id="Node000002" class="node">
<title>Node2</title>
<g id="a_Node000002"><a xlink:href="classsisi4s_1_1Algorithm.html" target="_top" xlink:title=" ">
<polygon fill="white" stroke="none" points="172,-498.75 0,-498.75 0,-190.75 172,-190.75 172,-498.75"/>
<text text-anchor="start" x="45.12" y="-485.25" font-family="Helvetica,sans-Serif" font-size="10.00">sisi4s::Algorithm</text>
<text text-anchor="start" x="3.88" y="-469.25" font-family="Helvetica,sans-Serif" font-size="10.00">+</text>
<text text-anchor="start" x="16" y="-469.25" font-family="Helvetica,sans-Serif" font-size="10.00">note</text>
<text text-anchor="start" x="3.88" y="-453.25" font-family="Helvetica,sans-Serif" font-size="10.00">+</text>
<text text-anchor="start" x="16" y="-453.25" font-family="Helvetica,sans-Serif" font-size="10.00">fallible</text>
<text text-anchor="start" x="3.88" y="-437.25" font-family="Helvetica,sans-Serif" font-size="10.00">#</text>
<text text-anchor="start" x="16" y="-437.25" font-family="Helvetica,sans-Serif" font-size="10.00">arguments</text>
<text text-anchor="start" x="3.88" y="-421.25" font-family="Helvetica,sans-Serif" font-size="10.00">+</text>
<text text-anchor="start" x="16" y="-421.25" font-family="Helvetica,sans-Serif" font-size="10.00">Algorithm()</text>
<text text-anchor="start" x="3.88" y="-405.25" font-family="Helvetica,sans-Serif" font-size="10.00">+</text>
<text text-anchor="start" x="16" y="-405.25" font-family="Helvetica,sans-Serif" font-size="10.00">~Algorithm()</text>
<text text-anchor="start" x="3.88" y="-389.25" font-family="Helvetica,sans-Serif" font-size="10.00">+</text>
<text text-anchor="start" x="16" y="-389.25" font-family="Helvetica,sans-Serif" font-size="10.00">getName()</text>
<text text-anchor="start" x="3.88" y="-373.25" font-family="Helvetica,sans-Serif" font-size="10.00">+</text>
<text text-anchor="start" x="16" y="-373.25" font-family="Helvetica,sans-Serif" font-size="10.00">run()</text>
<text text-anchor="start" x="3.88" y="-357.25" font-family="Helvetica,sans-Serif" font-size="10.00">+</text>
<text text-anchor="start" x="16" y="-357.25" font-family="Helvetica,sans-Serif" font-size="10.00">dryRun()</text>
<text text-anchor="start" x="3.88" y="-341.25" font-family="Helvetica,sans-Serif" font-size="10.00">+</text>
<text text-anchor="start" x="16" y="-341.25" font-family="Helvetica,sans-Serif" font-size="10.00">isArgumentGiven()</text>
<text text-anchor="start" x="3.88" y="-325.25" font-family="Helvetica,sans-Serif" font-size="10.00">+</text>
<text text-anchor="start" x="16" y="-325.25" font-family="Helvetica,sans-Serif" font-size="10.00">getTextArgument()</text>
<text text-anchor="start" x="3.88" y="-309.25" font-family="Helvetica,sans-Serif" font-size="10.00">+</text>
<text text-anchor="start" x="16" y="-309.25" font-family="Helvetica,sans-Serif" font-size="10.00">getTextArgument()</text>
<text text-anchor="start" x="3.88" y="-293.25" font-family="Helvetica,sans-Serif" font-size="10.00">+</text>
<text text-anchor="start" x="16" y="-293.25" font-family="Helvetica,sans-Serif" font-size="10.00">getBooleanArgument()</text>
<text text-anchor="start" x="3.88" y="-277.25" font-family="Helvetica,sans-Serif" font-size="10.00">+</text>
<text text-anchor="start" x="16" y="-277.25" font-family="Helvetica,sans-Serif" font-size="10.00">getBooleanArgument()</text>
<text text-anchor="start" x="16" y="-261.25" font-family="Helvetica,sans-Serif" font-size="10.00">and 12 more...</text>
<text text-anchor="start" x="3.88" y="-245.25" font-family="Helvetica,sans-Serif" font-size="10.00">#</text>
<text text-anchor="start" x="16" y="-245.25" font-family="Helvetica,sans-Serif" font-size="10.00">getRealArgumentFromInteger()</text>
<text text-anchor="start" x="3.88" y="-229.25" font-family="Helvetica,sans-Serif" font-size="10.00">#</text>
<text text-anchor="start" x="16" y="-229.25" font-family="Helvetica,sans-Serif" font-size="10.00">getRealArgumentFromTensor()</text>
<text text-anchor="start" x="3.88" y="-213.25" font-family="Helvetica,sans-Serif" font-size="10.00">#</text>
<text text-anchor="start" x="16" y="-213.25" font-family="Helvetica,sans-Serif" font-size="10.00">getTensorArgumentFromReal()</text>
<text text-anchor="start" x="3.88" y="-197.25" font-family="Helvetica,sans-Serif" font-size="10.00">#</text>
<text text-anchor="start" x="16" y="-197.25" font-family="Helvetica,sans-Serif" font-size="10.00">getArgumentData()</text>
<polygon fill="#666666" stroke="#666666" points="0,-480.75 0,-480.75 172,-480.75 172,-480.75 0,-480.75"/>
<polygon fill="#666666" stroke="#666666" points="0,-432.75 0,-432.75 14,-432.75 14,-432.75 0,-432.75"/>
<polygon fill="#666666" stroke="#666666" points="14,-432.75 14,-432.75 172,-432.75 172,-432.75 14,-432.75"/>
<polygon fill="none" stroke="#666666" points="0,-190.75 0,-498.75 172,-498.75 172,-190.75 0,-190.75"/>
</a>
</g>
</g>
<!-- Node2&#45;&gt;Node1 -->
<g id="edge1_Node000001_Node000002" class="edge">
<title>Node2&#45;&gt;Node1</title>
<g id="a_edge1_Node000001_Node000002"><a xlink:title=" ">
<path fill="none" stroke="#63b8ff" d="M120.41,-179.69C123.16,-166.56 125.84,-153.8 128.33,-141.93"/>
<polygon fill="none" stroke="#63b8ff" points="117.02,-178.81 118.39,-189.32 123.87,-180.25 117.02,-178.81"/>
</a>
</g>
</g>
<!-- Node3 -->
<g id="Node000003" class="node">
<title>Node3</title>
<g id="a_Node000003"><a xlink:href="classsisi4s_1_1AlgorithmRegistrar.html" target="_top" xlink:title=" ">
<polygon fill="white" stroke="none" points="376,-383.75 190,-383.75 190,-305.75 376,-305.75 376,-383.75"/>
<text text-anchor="start" x="194.88" y="-370.25" font-family="Helvetica,sans-Serif" font-size="10.00">sisi4s::AlgorithmRegistrar</text>
<text text-anchor="start" x="194.88" y="-357.5" font-family="Helvetica,sans-Serif" font-size="10.00">&lt; sisi4s::UCcsdEAEquationOfMotion</text>
<text text-anchor="start" x="254.5" y="-344.75" font-family="Helvetica,sans-Serif" font-size="10.00">Davidson &gt;</text>
<text text-anchor="start" x="281.5" y="-328.25" font-family="Helvetica,sans-Serif" font-size="10.00"> </text>
<text text-anchor="start" x="210.38" y="-312.25" font-family="Helvetica,sans-Serif" font-size="10.00">+</text>
<text text-anchor="start" x="239" y="-312.25" font-family="Helvetica,sans-Serif" font-size="10.00">AlgorithmRegistrar()</text>
<polygon fill="#666666" stroke="#666666" points="190,-339.75 190,-339.75 376,-339.75 376,-339.75 190,-339.75"/>
<polygon fill="#666666" stroke="#666666" points="190,-323.75 190,-323.75 376,-323.75 376,-323.75 190,-323.75"/>
<polygon fill="none" stroke="#666666" points="190,-305.75 190,-383.75 376,-383.75 376,-305.75 190,-305.75"/>
</a>
</g>
</g>
<!-- Node3&#45;&gt;Node1 -->
<g id="edge2_Node000001_Node000003" class="edge">
<title>Node3&#45;&gt;Node1</title>
<g id="a_edge2_Node000001_Node000003"><a xlink:title=" ">
<path fill="none" stroke="#63b8ff" d="M263.53,-305.96C243.32,-266.73 211.07,-204.12 185.01,-153.54"/>
<polygon fill="none" stroke="#63b8ff" points="184.95,-153.43 178.65,-149.93 179.45,-142.76 185.76,-146.26 184.95,-153.43"/>
</a>
</g>
<text text-anchor="middle" x="220.88" y="-163.25" font-family="Helvetica,sans-Serif" font-size="10.00" fill="grey"> +registrar_</text>
</g>
<!-- Node4 -->
<g id="Node000004" class="node">
<title>Node4</title>
<g id="a_Node000004"><a xlink:href="classsisi4s_1_1AlgorithmFactory.html" target="_top" xlink:title=" ">
<polygon fill="white" stroke="none" points="310.5,-746.25 183.5,-746.25 183.5,-662.25 310.5,-662.25 310.5,-746.25"/>
<text text-anchor="start" x="188.5" y="-732.75" font-family="Helvetica,sans-Serif" font-size="10.00">sisi4s::AlgorithmFactory</text>
<text text-anchor="start" x="187.88" y="-716.75" font-family="Helvetica,sans-Serif" font-size="10.00">#</text>
<text text-anchor="start" x="200.5" y="-716.75" font-family="Helvetica,sans-Serif" font-size="10.00">algorithmMap</text>
<text text-anchor="start" x="187.88" y="-700.75" font-family="Helvetica,sans-Serif" font-size="10.00">+</text>
<text text-anchor="start" x="200.5" y="-700.75" font-family="Helvetica,sans-Serif" font-size="10.00">create()</text>
<text text-anchor="start" x="187.88" y="-684.75" font-family="Helvetica,sans-Serif" font-size="10.00">+</text>
<text text-anchor="start" x="200.5" y="-684.75" font-family="Helvetica,sans-Serif" font-size="10.00">getAlgorithmNames()</text>
<text text-anchor="start" x="187.88" y="-668.75" font-family="Helvetica,sans-Serif" font-size="10.00">#</text>
<text text-anchor="start" x="200.5" y="-668.75" font-family="Helvetica,sans-Serif" font-size="10.00">getAlgorithmMap()</text>
<polygon fill="#666666" stroke="#666666" points="183.5,-728.25 183.5,-728.25 310.5,-728.25 310.5,-728.25 183.5,-728.25"/>
<polygon fill="#666666" stroke="#666666" points="183.5,-712.25 183.5,-712.25 198.5,-712.25 198.5,-712.25 183.5,-712.25"/>
<polygon fill="#666666" stroke="#666666" points="198.5,-712.25 198.5,-712.25 310.5,-712.25 310.5,-712.25 198.5,-712.25"/>
<polygon fill="none" stroke="#666666" points="183.5,-662.25 183.5,-746.25 310.5,-746.25 310.5,-662.25 183.5,-662.25"/>
</a>
</g>
</g>
<!-- Node4&#45;&gt;Node3 -->
<g id="edge3_Node000003_Node000004" class="edge">
<title>Node4&#45;&gt;Node3</title>
<g id="a_edge3_Node000003_Node000004"><a xlink:title=" ">
<path fill="none" stroke="darkgreen" d="M248.47,-651.3C249.52,-624.13 251.23,-590.35 254,-560.25 259.71,-498.13 270.21,-426.38 276.88,-383.61"/>
<polygon fill="none" stroke="darkgreen" points="244.99,-650.87 248.12,-660.99 251.98,-651.12 244.99,-650.87"/>
</a>
</g>
</g>
<!-- Node5 -->
<g id="Node000005" class="node">
<title>Node5</title>
<g id="a_Node000005"><a xlink:href="classsisi4s_1_1AlgorithmRegistrar.html" target="_top" xlink:title="Class to be statically instantiated by an algorithm to register it in the AlgorithmFactory....">
<polygon fill="white" stroke="none" points="399,-625.25 263,-625.25 263,-560.25 399,-560.25 399,-625.25"/>
<text text-anchor="start" x="268" y="-611.75" font-family="Helvetica,sans-Serif" font-size="10.00">sisi4s::AlgorithmRegistrar</text>
<text text-anchor="start" x="284.5" y="-599" font-family="Helvetica,sans-Serif" font-size="10.00">&lt; AlgorithmType &gt;</text>
<text text-anchor="start" x="329.5" y="-582.75" font-family="Helvetica,sans-Serif" font-size="10.00"> </text>
<text text-anchor="start" x="270.88" y="-566.75" font-family="Helvetica,sans-Serif" font-size="10.00">+</text>
<text text-anchor="start" x="287" y="-566.75" font-family="Helvetica,sans-Serif" font-size="10.00">AlgorithmRegistrar()</text>
<polygon fill="#666666" stroke="#666666" points="263,-594.25 263,-594.25 399,-594.25 399,-594.25 263,-594.25"/>
<polygon fill="#666666" stroke="#666666" points="263,-578.25 263,-578.25 399,-578.25 399,-578.25 263,-578.25"/>
<polygon fill="none" stroke="#666666" points="263,-560.25 263,-625.25 399,-625.25 399,-560.25 263,-560.25"/>
</a>
</g>
</g>
<!-- Node4&#45;&gt;Node5 -->
<g id="edge5_Node000005_Node000004" class="edge">
<title>Node4&#45;&gt;Node5</title>
<g id="a_edge5_Node000005_Node000004"><a xlink:title=" ">
<path fill="none" stroke="darkgreen" d="M285.07,-653.62C292.55,-643.87 300.19,-633.91 307.05,-624.97"/>
<polygon fill="none" stroke="darkgreen" points="282.51,-651.21 279.2,-661.28 288.06,-655.47 282.51,-651.21"/>
</a>
</g>
</g>
<!-- Node5&#45;&gt;Node3 -->
<g id="edge4_Node000003_Node000005" class="edge">
<title>Node5&#45;&gt;Node3</title>
<g id="a_edge4_Node000003_Node000005"><a xlink:title=" ">
<path fill="none" stroke="orange" d="M322.68,-549.09C313.55,-502.34 299.06,-428.07 290.35,-383.41"/>
<polygon fill="orange" stroke="orange" points="319.23,-549.71 324.58,-558.86 326.1,-548.37 319.23,-549.71"/>
</a>
</g>
<text text-anchor="start" x="320" y="-532.75" font-family="Helvetica,sans-Serif" font-size="10.00" fill="grey"> &lt; sisi4s::UCcsdEAEquation</text>
<text text-anchor="middle" x="387.12" y="-520" font-family="Helvetica,sans-Serif" font-size="10.00" fill="grey">OfMotionDavidson &gt;</text>
</g>
</g>
</svg>
