<?xml version="1.0" encoding="UTF-8" standalone="no"?>
<!DOCTYPE svg PUBLIC "-//W3C//DTD SVG 1.1//EN"
 "http://www.w3.org/Graphics/SVG/1.1/DTD/svg11.dtd">
<!-- Generated by graphviz version 7.1.0 (0)
 -->
<!-- Title: sisi4s::DiisMixer::append Pages: 1 -->
<svg width="319pt" height="64pt"
 viewBox="0.00 0.00 319.00 64.00" xmlns="http://www.w3.org/2000/svg" xmlns:xlink="http://www.w3.org/1999/xlink">
<g id="graph0" class="graph" transform="scale(1 1) rotate(0) translate(4 60)">
<title>sisi4s::DiisMixer::append</title>
<!-- Node1 -->
<g id="node1" class="node">
<title>Node1</title>
<g id="a_node1"><a xlink:title="Appends the given pair (A,R) of FockVectors to the mixer, where R is the residuum when using the ampl...">
<polygon fill="#999999" stroke="#666666" points="102,-42.5 0,-42.5 0,-12.5 102,-12.5 102,-42.5"/>
<text text-anchor="start" x="8" y="-30.5" font-family="Helvetica,sans-Serif" font-size="10.00">sisi4s::DiisMixer::</text>
<text text-anchor="middle" x="51" y="-19.5" font-family="Helvetica,sans-Serif" font-size="10.00">append</text>
</a>
</g>
</g>
<!-- Node2 -->
<g id="node2" class="node">
<title>Node2</title>
<g id="a_node2"><a xlink:href="namespacesisi4s.html#a92d239b67d4a13717f4e7f93ad9591f2" target="_top" xlink:title=" ">
<polygon fill="white" stroke="#666666" points="204,-56 138,-56 138,-37 204,-37 204,-56"/>
<text text-anchor="middle" x="171" y="-44" font-family="Helvetica,sans-Serif" font-size="10.00">sisi4s::dot</text>
</a>
</g>
</g>
<!-- Node1&#45;&gt;Node2 -->
<g id="edge1" class="edge">
<title>Node1&#45;&gt;Node2</title>
<path fill="none" stroke="#63b8ff" d="M102.38,-35.61C110.38,-36.9 118.59,-38.22 126.42,-39.48"/>
<polygon fill="#63b8ff" stroke="#63b8ff" points="125.61,-42.9 136.04,-41.03 126.72,-35.99 125.61,-42.9"/>
</g>
<!-- Node4 -->
<g id="node4" class="node">
<title>Node4</title>
<g id="a_node4"><a xlink:href="DiisMixer_8cxx.html#ae6495ef1bd76c6cd022e102143fbed2f" target="_top" xlink:title=" ">
<polygon fill="white" stroke="#666666" points="197.5,-19 144.5,-19 144.5,0 197.5,0 197.5,-19"/>
<text text-anchor="middle" x="171" y="-7" font-family="Helvetica,sans-Serif" font-size="10.00">inverse</text>
</a>
</g>
</g>
<!-- Node1&#45;&gt;Node4 -->
<g id="edge3" class="edge">
<title>Node1&#45;&gt;Node4</title>
<path fill="none" stroke="#63b8ff" d="M102.38,-19.81C112.63,-18.25 123.22,-16.64 132.9,-15.16"/>
<polygon fill="#63b8ff" stroke="#63b8ff" points="133.32,-18.64 142.68,-13.67 132.26,-11.72 133.32,-18.64"/>
</g>
<!-- Node3 -->
<g id="node3" class="node">
<title>Node3</title>
<g id="a_node3"><a xlink:href="namespacesisi4s.html#abc3ea35f1434b9c5021b9195449d1f9b" target="_top" xlink:title=" ">
<polygon fill="white" stroke="#666666" points="311,-56 240,-56 240,-37 311,-37 311,-56"/>
<text text-anchor="middle" x="275.5" y="-44" font-family="Helvetica,sans-Serif" font-size="10.00">sisi4s::conj</text>
</a>
</g>
</g>
<!-- Node2&#45;&gt;Node3 -->
<g id="edge2" class="edge">
<title>Node2&#45;&gt;Node3</title>
<path fill="none" stroke="#63b8ff" d="M204.43,-46.5C212.09,-46.5 220.39,-46.5 228.52,-46.5"/>
<polygon fill="#63b8ff" stroke="#63b8ff" points="228.28,-50 238.28,-46.5 228.28,-43 228.28,-50"/>
</g>
<!-- Node5 -->
<g id="node5" class="node">
<title>Node5</title>
<g id="a_node5"><a xlink:href="Lapack_8hpp.html#aaacdf33c1d8272c5fd148b2e002c12a6" target="_top" xlink:title=" ">
<polygon fill="white" stroke="#666666" points="300.5,-19 250.5,-19 250.5,0 300.5,0 300.5,-19"/>
<text text-anchor="middle" x="275.5" y="-7" font-family="Helvetica,sans-Serif" font-size="10.00">dsysv_</text>
</a>
</g>
</g>
<!-- Node4&#45;&gt;Node5 -->
<g id="edge4" class="edge">
<title>Node4&#45;&gt;Node5</title>
<path fill="none" stroke="#63b8ff" d="M197.87,-9.5C210.25,-9.5 225.28,-9.5 238.74,-9.5"/>
<polygon fill="#63b8ff" stroke="#63b8ff" points="238.54,-13 248.54,-9.5 238.54,-6 238.54,-13"/>
</g>
</g>
</svg>
