<?xml version="1.0" encoding="UTF-8" standalone="no"?>
<!DOCTYPE svg PUBLIC "-//W3C//DTD SVG 1.1//EN"
 "http://www.w3.org/Graphics/SVG/1.1/DTD/svg11.dtd">
<!-- Generated by graphviz version 8.1.0 (0)
 -->
<!-- Title: CLI::Error::get_name Pages: 1 -->
<svg width="272pt" height="98pt"
 viewBox="0.00 0.00 271.75 98.12" xmlns="http://www.w3.org/2000/svg" xmlns:xlink="http://www.w3.org/1999/xlink">
<g id="graph0" class="graph" transform="scale(1 1) rotate(0) translate(4 94.12)">
<title>CLI::Error::get_name</title>
<!-- Node1 -->
<g id="Node000001" class="node">
<title>Node1</title>
<g id="a_Node000001"><a xlink:title=" ">
<polygon fill="#999999" stroke="#666666" points="263.75,-58.12 148.75,-58.12 148.75,-37.38 263.75,-37.38 263.75,-58.12"/>
<text text-anchor="middle" x="206.25" y="-44.62" font-family="Helvetica,sans-Serif" font-size="10.00">CLI::Error::get_name</text>
</a>
</g>
</g>
<!-- Node2 -->
<g id="Node000002" class="node">
<title>Node2</title>
<g id="a_Node000002"><a xlink:href="classCLI_1_1App.html#aac000657ef11647125ba91af38fd7d9c" target="_top" xlink:title="Print a nice error message and return the exit code.">
<polygon fill="white" stroke="#666666" points="96.62,-90.12 16.12,-90.12 16.12,-69.38 96.62,-69.38 96.62,-90.12"/>
<text text-anchor="middle" x="56.38" y="-76.62" font-family="Helvetica,sans-Serif" font-size="10.00">CLI::App::exit</text>
</a>
</g>
</g>
<!-- Node1&#45;&gt;Node2 -->
<g id="edge1_Node000001_Node000002" class="edge">
<title>Node1&#45;&gt;Node2</title>
<g id="a_edge1_Node000001_Node000002"><a xlink:title=" ">
<path fill="none" stroke="#63b8ff" d="M144.79,-60.83C128.71,-64.31 111.76,-67.98 97.11,-71.15"/>
<polygon fill="#63b8ff" stroke="#63b8ff" points="145.15,-64.12 154.19,-58.58 143.67,-57.28 145.15,-64.12"/>
</a>
</g>
</g>
<!-- Node3 -->
<g id="Node000003" class="node">
<title>Node3</title>
<g id="a_Node000003"><a xlink:href="namespaceCLI_1_1FailureMessage.html#aa7e418b32b7d6f28aee8c4e5ad0bbc95" target="_top" xlink:title="Printout the full help string on error (if this fn is set, the old default for CLI11)">
<polygon fill="white" stroke="#666666" points="112.75,-33.5 0,-33.5 0,0 112.75,0 112.75,-33.5"/>
<text text-anchor="start" x="8" y="-20" font-family="Helvetica,sans-Serif" font-size="10.00">CLI::FailureMessage</text>
<text text-anchor="middle" x="56.38" y="-7.25" font-family="Helvetica,sans-Serif" font-size="10.00">::help</text>
</a>
</g>
</g>
<!-- Node1&#45;&gt;Node3 -->
<g id="edge2_Node000001_Node000003" class="edge">
<title>Node1&#45;&gt;Node3</title>
<g id="a_edge2_Node000001_Node000003"><a xlink:title=" ">
<path fill="none" stroke="#63b8ff" d="M142.93,-34.69C133.02,-32.61 122.83,-30.47 113.09,-28.43"/>
<polygon fill="#63b8ff" stroke="#63b8ff" points="142.03,-38.28 152.53,-36.91 143.46,-31.43 142.03,-38.28"/>
</a>
</g>
</g>
<!-- Node3&#45;&gt;Node3 -->
<g id="edge3_Node000003_Node000003" class="edge">
<title>Node3&#45;&gt;Node3</title>
<g id="a_edge3_Node000003_Node000003"><a xlink:title=" ">
<path fill="none" stroke="#63b8ff" d="M81.87,-44.56C77.9,-48.7 69.41,-51.5 56.38,-51.5 33.84,-51.5 24.85,-43.12 29.43,-33.91"/>
<polygon fill="#63b8ff" stroke="#63b8ff" points="85.44,-45.29 83.32,-34.91 78.5,-44.35 85.44,-45.29"/>
</a>
</g>
</g>
</g>
</svg>
