<?xml version="1.0" encoding="UTF-8" standalone="no"?>
<!DOCTYPE svg PUBLIC "-//W3C//DTD SVG 1.1//EN"
 "http://www.w3.org/Graphics/SVG/1.1/DTD/svg11.dtd">
<!-- Generated by graphviz version 9.0.0 (0)
 -->
<!-- Title: sisi4s::Preconditioner&lt; F, V &gt; Pages: 1 -->
<svg width="380pt" height="865pt"
 viewBox="0.00 0.00 379.50 864.50" xmlns="http://www.w3.org/2000/svg" xmlns:xlink="http://www.w3.org/1999/xlink">
<g id="graph0" class="graph" transform="scale(1 1) rotate(0) translate(4 860.5)">
<title>sisi4s::Preconditioner&lt; F, V &gt;</title>
<!-- Node1 -->
<g id="Node000001" class="node">
<title>Node1</title>
<g id="a_Node000001"><a xlink:title=" ">
<polygon fill="#999999" stroke="none" points="243.5,-856.5 128.5,-856.5 128.5,-519.5 243.5,-519.5 243.5,-856.5"/>
<text text-anchor="start" x="133.88" y="-843" font-family="Helvetica,sans-Serif" font-size="10.00">sisi4s::Preconditioner</text>
<text text-anchor="start" x="165.38" y="-830.25" font-family="Helvetica,sans-Serif" font-size="10.00">&lt; F, V &gt;</text>
<text text-anchor="start" x="132.38" y="-814" font-family="Helvetica,sans-Serif" font-size="10.00">+</text>
<text text-anchor="start" x="144.5" y="-814" font-family="Helvetica,sans-Serif" font-size="10.00">Tai</text>
<text text-anchor="start" x="132.38" y="-798" font-family="Helvetica,sans-Serif" font-size="10.00">+</text>
<text text-anchor="start" x="144.5" y="-798" font-family="Helvetica,sans-Serif" font-size="10.00">Tabij</text>
<text text-anchor="start" x="132.38" y="-782" font-family="Helvetica,sans-Serif" font-size="10.00">+</text>
<text text-anchor="start" x="144.5" y="-782" font-family="Helvetica,sans-Serif" font-size="10.00">Fij</text>
<text text-anchor="start" x="132.38" y="-766" font-family="Helvetica,sans-Serif" font-size="10.00">+</text>
<text text-anchor="start" x="144.5" y="-766" font-family="Helvetica,sans-Serif" font-size="10.00">Fab</text>
<text text-anchor="start" x="132.38" y="-750" font-family="Helvetica,sans-Serif" font-size="10.00">+</text>
<text text-anchor="start" x="144.5" y="-750" font-family="Helvetica,sans-Serif" font-size="10.00">Vabcd</text>
<text text-anchor="start" x="132.38" y="-734" font-family="Helvetica,sans-Serif" font-size="10.00">+</text>
<text text-anchor="start" x="144.5" y="-734" font-family="Helvetica,sans-Serif" font-size="10.00">Vijab</text>
<text text-anchor="start" x="132.38" y="-718" font-family="Helvetica,sans-Serif" font-size="10.00">+</text>
<text text-anchor="start" x="144.5" y="-718" font-family="Helvetica,sans-Serif" font-size="10.00">Viajb</text>
<text text-anchor="start" x="132.38" y="-702" font-family="Helvetica,sans-Serif" font-size="10.00">+</text>
<text text-anchor="start" x="144.5" y="-702" font-family="Helvetica,sans-Serif" font-size="10.00">Vijkl</text>
<text text-anchor="start" x="132.38" y="-686" font-family="Helvetica,sans-Serif" font-size="10.00">+</text>
<text text-anchor="start" x="144.5" y="-686" font-family="Helvetica,sans-Serif" font-size="10.00">calculateDiagonal()</text>
<text text-anchor="start" x="132.38" y="-670" font-family="Helvetica,sans-Serif" font-size="10.00">+</text>
<text text-anchor="start" x="144.5" y="-670" font-family="Helvetica,sans-Serif" font-size="10.00">getInitialBasis()</text>
<text text-anchor="start" x="132.38" y="-654" font-family="Helvetica,sans-Serif" font-size="10.00">+</text>
<text text-anchor="start" x="144.5" y="-654" font-family="Helvetica,sans-Serif" font-size="10.00">getCorrection()</text>
<text text-anchor="start" x="132.38" y="-638" font-family="Helvetica,sans-Serif" font-size="10.00">+</text>
<text text-anchor="start" x="144.5" y="-638" font-family="Helvetica,sans-Serif" font-size="10.00">setTai()</text>
<text text-anchor="start" x="132.38" y="-622" font-family="Helvetica,sans-Serif" font-size="10.00">+</text>
<text text-anchor="start" x="144.5" y="-622" font-family="Helvetica,sans-Serif" font-size="10.00">setTabij()</text>
<text text-anchor="start" x="132.38" y="-606" font-family="Helvetica,sans-Serif" font-size="10.00">+</text>
<text text-anchor="start" x="144.5" y="-606" font-family="Helvetica,sans-Serif" font-size="10.00">setFij()</text>
<text text-anchor="start" x="132.38" y="-590" font-family="Helvetica,sans-Serif" font-size="10.00">+</text>
<text text-anchor="start" x="144.5" y="-590" font-family="Helvetica,sans-Serif" font-size="10.00">setFab()</text>
<text text-anchor="start" x="132.38" y="-574" font-family="Helvetica,sans-Serif" font-size="10.00">+</text>
<text text-anchor="start" x="144.5" y="-574" font-family="Helvetica,sans-Serif" font-size="10.00">setVabcd()</text>
<text text-anchor="start" x="132.38" y="-558" font-family="Helvetica,sans-Serif" font-size="10.00">+</text>
<text text-anchor="start" x="144.5" y="-558" font-family="Helvetica,sans-Serif" font-size="10.00">setVijab()</text>
<text text-anchor="start" x="132.38" y="-542" font-family="Helvetica,sans-Serif" font-size="10.00">+</text>
<text text-anchor="start" x="144.5" y="-542" font-family="Helvetica,sans-Serif" font-size="10.00">setViajb()</text>
<text text-anchor="start" x="132.38" y="-526" font-family="Helvetica,sans-Serif" font-size="10.00">+</text>
<text text-anchor="start" x="144.5" y="-526" font-family="Helvetica,sans-Serif" font-size="10.00">setVijkl()</text>
<polygon fill="#666666" stroke="#666666" points="128.5,-825.5 128.5,-825.5 243.5,-825.5 243.5,-825.5 128.5,-825.5"/>
<polygon fill="#666666" stroke="#666666" points="128.5,-697.5 128.5,-697.5 142.5,-697.5 142.5,-697.5 128.5,-697.5"/>
<polygon fill="#666666" stroke="#666666" points="142.5,-697.5 142.5,-697.5 243.5,-697.5 243.5,-697.5 142.5,-697.5"/>
<polygon fill="none" stroke="#666666" points="128.5,-519.5 128.5,-856.5 243.5,-856.5 243.5,-519.5 128.5,-519.5"/>
</a>
</g>
</g>
<!-- Node2 -->
<g id="Node000002" class="node">
<title>Node2</title>
<g id="a_Node000002"><a xlink:href="classsisi4s_1_1Preconditioner.html" target="_top" xlink:title=" ">
<polygon fill="white" stroke="none" points="255.5,-458 116.5,-458 116.5,-121 255.5,-121 255.5,-458"/>
<text text-anchor="start" x="121.12" y="-444.5" font-family="Helvetica,sans-Serif" font-size="10.00">sisi4s::Preconditioner</text>
<text text-anchor="start" x="121.12" y="-431.75" font-family="Helvetica,sans-Serif" font-size="10.00">&lt; F, SDFockVector&lt; F &gt; &gt;</text>
<text text-anchor="start" x="126.38" y="-415.5" font-family="Helvetica,sans-Serif" font-size="10.00">+</text>
<text text-anchor="start" x="144.5" y="-415.5" font-family="Helvetica,sans-Serif" font-size="10.00">Tai</text>
<text text-anchor="start" x="126.38" y="-399.5" font-family="Helvetica,sans-Serif" font-size="10.00">+</text>
<text text-anchor="start" x="144.5" y="-399.5" font-family="Helvetica,sans-Serif" font-size="10.00">Tabij</text>
<text text-anchor="start" x="126.38" y="-383.5" font-family="Helvetica,sans-Serif" font-size="10.00">+</text>
<text text-anchor="start" x="144.5" y="-383.5" font-family="Helvetica,sans-Serif" font-size="10.00">Fij</text>
<text text-anchor="start" x="126.38" y="-367.5" font-family="Helvetica,sans-Serif" font-size="10.00">+</text>
<text text-anchor="start" x="144.5" y="-367.5" font-family="Helvetica,sans-Serif" font-size="10.00">Fab</text>
<text text-anchor="start" x="126.38" y="-351.5" font-family="Helvetica,sans-Serif" font-size="10.00">+</text>
<text text-anchor="start" x="144.5" y="-351.5" font-family="Helvetica,sans-Serif" font-size="10.00">Vabcd</text>
<text text-anchor="start" x="126.38" y="-335.5" font-family="Helvetica,sans-Serif" font-size="10.00">+</text>
<text text-anchor="start" x="144.5" y="-335.5" font-family="Helvetica,sans-Serif" font-size="10.00">Vijab</text>
<text text-anchor="start" x="126.38" y="-319.5" font-family="Helvetica,sans-Serif" font-size="10.00">+</text>
<text text-anchor="start" x="144.5" y="-319.5" font-family="Helvetica,sans-Serif" font-size="10.00">Viajb</text>
<text text-anchor="start" x="126.38" y="-303.5" font-family="Helvetica,sans-Serif" font-size="10.00">+</text>
<text text-anchor="start" x="144.5" y="-303.5" font-family="Helvetica,sans-Serif" font-size="10.00">Vijkl</text>
<text text-anchor="start" x="126.38" y="-287.5" font-family="Helvetica,sans-Serif" font-size="10.00">+</text>
<text text-anchor="start" x="144.5" y="-287.5" font-family="Helvetica,sans-Serif" font-size="10.00">calculateDiagonal()</text>
<text text-anchor="start" x="126.38" y="-271.5" font-family="Helvetica,sans-Serif" font-size="10.00">+</text>
<text text-anchor="start" x="144.5" y="-271.5" font-family="Helvetica,sans-Serif" font-size="10.00">getInitialBasis()</text>
<text text-anchor="start" x="126.38" y="-255.5" font-family="Helvetica,sans-Serif" font-size="10.00">+</text>
<text text-anchor="start" x="144.5" y="-255.5" font-family="Helvetica,sans-Serif" font-size="10.00">getCorrection()</text>
<text text-anchor="start" x="126.38" y="-239.5" font-family="Helvetica,sans-Serif" font-size="10.00">+</text>
<text text-anchor="start" x="144.5" y="-239.5" font-family="Helvetica,sans-Serif" font-size="10.00">setTai()</text>
<text text-anchor="start" x="126.38" y="-223.5" font-family="Helvetica,sans-Serif" font-size="10.00">+</text>
<text text-anchor="start" x="144.5" y="-223.5" font-family="Helvetica,sans-Serif" font-size="10.00">setTabij()</text>
<text text-anchor="start" x="126.38" y="-207.5" font-family="Helvetica,sans-Serif" font-size="10.00">+</text>
<text text-anchor="start" x="144.5" y="-207.5" font-family="Helvetica,sans-Serif" font-size="10.00">setFij()</text>
<text text-anchor="start" x="126.38" y="-191.5" font-family="Helvetica,sans-Serif" font-size="10.00">+</text>
<text text-anchor="start" x="144.5" y="-191.5" font-family="Helvetica,sans-Serif" font-size="10.00">setFab()</text>
<text text-anchor="start" x="126.38" y="-175.5" font-family="Helvetica,sans-Serif" font-size="10.00">+</text>
<text text-anchor="start" x="144.5" y="-175.5" font-family="Helvetica,sans-Serif" font-size="10.00">setVabcd()</text>
<text text-anchor="start" x="126.38" y="-159.5" font-family="Helvetica,sans-Serif" font-size="10.00">+</text>
<text text-anchor="start" x="144.5" y="-159.5" font-family="Helvetica,sans-Serif" font-size="10.00">setVijab()</text>
<text text-anchor="start" x="126.38" y="-143.5" font-family="Helvetica,sans-Serif" font-size="10.00">+</text>
<text text-anchor="start" x="144.5" y="-143.5" font-family="Helvetica,sans-Serif" font-size="10.00">setViajb()</text>
<text text-anchor="start" x="126.38" y="-127.5" font-family="Helvetica,sans-Serif" font-size="10.00">+</text>
<text text-anchor="start" x="144.5" y="-127.5" font-family="Helvetica,sans-Serif" font-size="10.00">setVijkl()</text>
<polygon fill="#666666" stroke="#666666" points="116.5,-427 116.5,-427 255.5,-427 255.5,-427 116.5,-427"/>
<polygon fill="#666666" stroke="#666666" points="116.5,-299 116.5,-299 142.5,-299 142.5,-299 116.5,-299"/>
<polygon fill="#666666" stroke="#666666" points="142.5,-299 142.5,-299 255.5,-299 255.5,-299 142.5,-299"/>
<polygon fill="none" stroke="#666666" points="116.5,-121 116.5,-458 255.5,-458 255.5,-121 116.5,-121"/>
</a>
</g>
</g>
<!-- Node1&#45;&gt;Node2 -->
<g id="edge1_Node000001_Node000002" class="edge">
<title>Node1&#45;&gt;Node2</title>
<g id="a_edge1_Node000001_Node000002"><a xlink:title=" ">
<path fill="none" stroke="orange" d="M186,-508.61C186,-491.67 186,-474.54 186,-457.71"/>
<polygon fill="orange" stroke="orange" points="182.5,-508.2 186,-518.2 189.5,-508.2 182.5,-508.2"/>
</a>
</g>
<text text-anchor="start" x="186" y="-492" font-family="Helvetica,sans-Serif" font-size="10.00" fill="grey"> &lt; F, SDFockVector&lt;</text>
<text text-anchor="middle" x="236.62" y="-479.25" font-family="Helvetica,sans-Serif" font-size="10.00" fill="grey"> F &gt; &gt;</text>
</g>
<!-- Node3 -->
<g id="Node000003" class="node">
<title>Node3</title>
<g id="a_Node000003"><a xlink:href="classsisi4s_1_1EACcsdPreconditioner.html" target="_top" xlink:title=" ">
<polygon fill="white" stroke="none" points="178,-84 0,-84 0,0 178,0 178,-84"/>
<text text-anchor="start" x="4.62" y="-70.5" font-family="Helvetica,sans-Serif" font-size="10.00">sisi4s::EACcsdPreconditioner&lt; F &gt;</text>
<text text-anchor="start" x="19.38" y="-54.5" font-family="Helvetica,sans-Serif" font-size="10.00">+</text>
<text text-anchor="start" x="47" y="-54.5" font-family="Helvetica,sans-Serif" font-size="10.00">diagonalH</text>
<text text-anchor="start" x="19.38" y="-38.5" font-family="Helvetica,sans-Serif" font-size="10.00">+</text>
<text text-anchor="start" x="47" y="-38.5" font-family="Helvetica,sans-Serif" font-size="10.00">calculateDiagonal()</text>
<text text-anchor="start" x="19.38" y="-22.5" font-family="Helvetica,sans-Serif" font-size="10.00">+</text>
<text text-anchor="start" x="47" y="-22.5" font-family="Helvetica,sans-Serif" font-size="10.00">getInitialBasis()</text>
<text text-anchor="start" x="19.38" y="-6.5" font-family="Helvetica,sans-Serif" font-size="10.00">+</text>
<text text-anchor="start" x="47" y="-6.5" font-family="Helvetica,sans-Serif" font-size="10.00">getCorrection()</text>
<polygon fill="#666666" stroke="#666666" points="0,-66 0,-66 178,-66 178,-66 0,-66"/>
<polygon fill="#666666" stroke="#666666" points="0,-50 0,-50 45,-50 45,-50 0,-50"/>
<polygon fill="#666666" stroke="#666666" points="45,-50 45,-50 178,-50 178,-50 45,-50"/>
<polygon fill="none" stroke="#666666" points="0,0 0,-84 178,-84 178,0 0,0"/>
</a>
</g>
</g>
<!-- Node2&#45;&gt;Node3 -->
<g id="edge2_Node000002_Node000003" class="edge">
<title>Node2&#45;&gt;Node3</title>
<g id="a_edge2_Node000002_Node000003"><a xlink:title=" ">
<path fill="none" stroke="#63b8ff" d="M115.64,-110.42C111.86,-100.85 108.3,-91.85 105.09,-83.73"/>
<polygon fill="none" stroke="#63b8ff" points="112.34,-111.59 119.27,-119.61 118.85,-109.02 112.34,-111.59"/>
</a>
</g>
</g>
<!-- Node4 -->
<g id="Node000004" class="node">
<title>Node4</title>
<g id="a_Node000004"><a xlink:href="classsisi4s_1_1IPCcsdPreconditioner.html" target="_top" xlink:title=" ">
<polygon fill="white" stroke="none" points="371.5,-84 196.5,-84 196.5,0 371.5,0 371.5,-84"/>
<text text-anchor="start" x="201.5" y="-70.5" font-family="Helvetica,sans-Serif" font-size="10.00">sisi4s::IPCcsdPreconditioner&lt; F &gt;</text>
<text text-anchor="start" x="215.38" y="-54.5" font-family="Helvetica,sans-Serif" font-size="10.00">+</text>
<text text-anchor="start" x="242.5" y="-54.5" font-family="Helvetica,sans-Serif" font-size="10.00">diagonalH</text>
<text text-anchor="start" x="215.38" y="-38.5" font-family="Helvetica,sans-Serif" font-size="10.00">+</text>
<text text-anchor="start" x="242.5" y="-38.5" font-family="Helvetica,sans-Serif" font-size="10.00">calculateDiagonal()</text>
<text text-anchor="start" x="215.38" y="-22.5" font-family="Helvetica,sans-Serif" font-size="10.00">+</text>
<text text-anchor="start" x="242.5" y="-22.5" font-family="Helvetica,sans-Serif" font-size="10.00">getInitialBasis()</text>
<text text-anchor="start" x="215.38" y="-6.5" font-family="Helvetica,sans-Serif" font-size="10.00">+</text>
<text text-anchor="start" x="242.5" y="-6.5" font-family="Helvetica,sans-Serif" font-size="10.00">getCorrection()</text>
<polygon fill="#666666" stroke="#666666" points="196.5,-66 196.5,-66 371.5,-66 371.5,-66 196.5,-66"/>
<polygon fill="#666666" stroke="#666666" points="196.5,-50 196.5,-50 240.5,-50 240.5,-50 196.5,-50"/>
<polygon fill="#666666" stroke="#666666" points="240.5,-50 240.5,-50 371.5,-50 371.5,-50 240.5,-50"/>
<polygon fill="none" stroke="#666666" points="196.5,0 196.5,-84 371.5,-84 371.5,0 196.5,0"/>
</a>
</g>
</g>
<!-- Node2&#45;&gt;Node4 -->
<g id="edge3_Node000002_Node000004" class="edge">
<title>Node2&#45;&gt;Node4</title>
<g id="a_edge3_Node000002_Node000004"><a xlink:title=" ">
<path fill="none" stroke="#63b8ff" d="M257.09,-110.42C260.91,-100.85 264.5,-91.85 267.74,-83.73"/>
<polygon fill="none" stroke="#63b8ff" points="253.88,-109.02 253.42,-119.61 260.38,-111.62 253.88,-109.02"/>
</a>
</g>
</g>
</g>
</svg>
