<?xml version="1.0" encoding="UTF-8" standalone="no"?>
<!DOCTYPE svg PUBLIC "-//W3C//DTD SVG 1.1//EN"
 "http://www.w3.org/Graphics/SVG/1.1/DTD/svg11.dtd">
<!-- Generated by graphviz version 5.0.1 (0)
 -->
<!-- Title: sisi4s::Time::getFractionalSeconds Pages: 1 -->
<svg width="349pt" height="104pt"
 viewBox="0.00 0.00 349.00 104.00" xmlns="http://www.w3.org/2000/svg" xmlns:xlink="http://www.w3.org/1999/xlink">
<g id="graph0" class="graph" transform="scale(1 1) rotate(0) translate(4 100)">
<title>sisi4s::Time::getFractionalSeconds</title>
<!-- Node1 -->
<g id="node1" class="node">
<title>Node1</title>
<g id="a_node1"><a xlink:title=" ">
<polygon fill="#bfbfbf" stroke="black" points="196,-33 196,-63 341,-63 341,-33 196,-33"/>
<text text-anchor="start" x="204" y="-51" font-family="Helvetica,sans-Serif" font-size="10.00">sisi4s::Time::getFractional</text>
<text text-anchor="middle" x="268.5" y="-40" font-family="Helvetica,sans-Serif" font-size="10.00">Seconds</text>
</a>
</g>
</g>
<!-- Node2 -->
<g id="node2" class="node">
<title>Node2</title>
<g id="a_node2"><a xlink:href="namespacesisi4s.html#af367ad2673f0d194941471c8c23d70a5" target="_top" xlink:title=" ">
<polygon fill="none" stroke="black" points="31.5,-76.5 31.5,-95.5 128.5,-95.5 128.5,-76.5 31.5,-76.5"/>
<text text-anchor="middle" x="80" y="-83.5" font-family="Helvetica,sans-Serif" font-size="10.00">sisi4s::operator*</text>
</a>
</g>
</g>
<!-- Node1&#45;&gt;Node2 -->
<g id="edge1" class="edge">
<title>Node1&#45;&gt;Node2</title>
<path fill="none" stroke="midnightblue" d="M185.94,-64.62C166.09,-68.66 145.51,-72.86 127.9,-76.44"/>
<polygon fill="midnightblue" stroke="midnightblue" points="186.83,-68.01 195.93,-62.58 185.43,-61.15 186.83,-68.01"/>
</g>
<!-- Node3 -->
<g id="node3" class="node">
<title>Node3</title>
<g id="a_node3"><a xlink:href="classsisi4s_1_1ParenthesisTriples.html#a13c648b58b994e20cb35843b25b23312" target="_top" xlink:title="Calculates perturbative triples correction, third attemp.">
<polygon fill="none" stroke="black" points="0,-38.5 0,-57.5 160,-57.5 160,-38.5 0,-38.5"/>
<text text-anchor="middle" x="80" y="-45.5" font-family="Helvetica,sans-Serif" font-size="10.00">sisi4s::ParenthesisTriples::run</text>
</a>
</g>
</g>
<!-- Node1&#45;&gt;Node3 -->
<g id="edge2" class="edge">
<title>Node1&#45;&gt;Node3</title>
<path fill="none" stroke="midnightblue" d="M185.67,-48C177.19,-48 168.59,-48 160.14,-48"/>
<polygon fill="midnightblue" stroke="midnightblue" points="185.93,-51.5 195.93,-48 185.93,-44.5 185.93,-51.5"/>
</g>
<!-- Node4 -->
<g id="node4" class="node">
<title>Node4</title>
<g id="a_node4"><a xlink:href="classsisi4s_1_1Sisi4s.html#a707b4ffd3cce21c09ec1387e8159951a" target="_top" xlink:title=" ">
<polygon fill="none" stroke="black" points="29.5,-0.5 29.5,-19.5 130.5,-19.5 130.5,-0.5 29.5,-0.5"/>
<text text-anchor="middle" x="80" y="-7.5" font-family="Helvetica,sans-Serif" font-size="10.00">sisi4s::Sisi4s::run</text>
</a>
</g>
</g>
<!-- Node1&#45;&gt;Node4 -->
<g id="edge3" class="edge">
<title>Node1&#45;&gt;Node4</title>
<path fill="none" stroke="midnightblue" d="M185.94,-31.38C166.09,-27.34 145.51,-23.14 127.9,-19.56"/>
<polygon fill="midnightblue" stroke="midnightblue" points="185.43,-34.85 195.93,-33.42 186.83,-27.99 185.43,-34.85"/>
</g>
</g>
</svg>
