<?xml version="1.0" encoding="UTF-8" standalone="no"?>
<!DOCTYPE svg PUBLIC "-//W3C//DTD SVG 1.1//EN"
 "http://www.w3.org/Graphics/SVG/1.1/DTD/svg11.dtd">
<!-- Generated by graphviz version 5.0.1 (0)
 -->
<!-- Title: CLI::App::_process_config_file Pages: 1 -->
<svg width="437pt" height="66pt"
 viewBox="0.00 0.00 437.00 66.00" xmlns="http://www.w3.org/2000/svg" xmlns:xlink="http://www.w3.org/1999/xlink">
<g id="graph0" class="graph" transform="scale(1 1) rotate(0) translate(4 62)">
<title>CLI::App::_process_config_file</title>
<!-- Node1 -->
<g id="node1" class="node">
<title>Node1</title>
<g id="a_node1"><a xlink:title="Read and process a configuration file (main app only)">
<polygon fill="#bfbfbf" stroke="black" points="0,-14 0,-44 105,-44 105,-14 0,-14"/>
<text text-anchor="start" x="8" y="-32" font-family="Helvetica,sans-Serif" font-size="10.00">CLI::App::_process</text>
<text text-anchor="middle" x="52.5" y="-21" font-family="Helvetica,sans-Serif" font-size="10.00">_config_file</text>
</a>
</g>
</g>
<!-- Node2 -->
<g id="node2" class="node">
<title>Node2</title>
<g id="a_node2"><a xlink:href="namespaceCLI_1_1detail.html#a197be0b62b4d4deef0f5cac600a6b759" target="_top" xlink:title="get the type of the path from a file name">
<polygon fill="none" stroke="black" points="141,-38.5 141,-57.5 268,-57.5 268,-38.5 141,-38.5"/>
<text text-anchor="middle" x="204.5" y="-45.5" font-family="Helvetica,sans-Serif" font-size="10.00">CLI::detail::check_path</text>
</a>
</g>
</g>
<!-- Node1&#45;&gt;Node2 -->
<g id="edge1" class="edge">
<title>Node1&#45;&gt;Node2</title>
<path fill="none" stroke="midnightblue" d="M105.12,-35.54C113.41,-36.59 122.11,-37.69 130.78,-38.79"/>
<polygon fill="midnightblue" stroke="midnightblue" points="130.54,-42.29 140.9,-40.07 131.42,-35.34 130.54,-42.29"/>
</g>
<!-- Node3 -->
<g id="node3" class="node">
<title>Node3</title>
<g id="a_node3"><a xlink:href="classCLI_1_1FileError.html#a5117d3f4ce0cb625a9153f948114015b" target="_top" xlink:title=" ">
<polygon fill="none" stroke="black" points="143.5,-0.5 143.5,-19.5 265.5,-19.5 265.5,-0.5 143.5,-0.5"/>
<text text-anchor="middle" x="204.5" y="-7.5" font-family="Helvetica,sans-Serif" font-size="10.00">CLI::FileError::Missing</text>
</a>
</g>
</g>
<!-- Node1&#45;&gt;Node3 -->
<g id="edge2" class="edge">
<title>Node1&#45;&gt;Node3</title>
<path fill="none" stroke="midnightblue" d="M105.12,-22.46C114.15,-21.32 123.67,-20.11 133.1,-18.92"/>
<polygon fill="midnightblue" stroke="midnightblue" points="133.78,-22.36 143.26,-17.63 132.9,-15.41 133.78,-22.36"/>
</g>
<!-- Node4 -->
<g id="node4" class="node">
<title>Node4</title>
<g id="a_node4"><a xlink:href="classCLI_1_1FileError.html#a13cbc7ff1ebeab7b86333cf1b991e151" target="_top" xlink:title=" ">
<polygon fill="none" stroke="black" points="304,-0.5 304,-19.5 429,-19.5 429,-0.5 304,-0.5"/>
<text text-anchor="middle" x="366.5" y="-7.5" font-family="Helvetica,sans-Serif" font-size="10.00">CLI::FileError::FileError</text>
</a>
</g>
</g>
<!-- Node3&#45;&gt;Node4 -->
<g id="edge3" class="edge">
<title>Node3&#45;&gt;Node4</title>
<path fill="none" stroke="midnightblue" d="M265.53,-10C274.72,-10 284.27,-10 293.68,-10"/>
<polygon fill="midnightblue" stroke="midnightblue" points="293.8,-13.5 303.8,-10 293.8,-6.5 293.8,-13.5"/>
</g>
</g>
</svg>
