<?xml version="1.0" encoding="UTF-8" standalone="no"?>
<!DOCTYPE svg PUBLIC "-//W3C//DTD SVG 1.1//EN"
 "http://www.w3.org/Graphics/SVG/1.1/DTD/svg11.dtd">
<!-- Generated by graphviz version 5.0.1 (0)
 -->
<!-- Title: sisi4s::Log Pages: 1 -->
<svg width="360pt" height="591pt"
 viewBox="0.00 0.00 360.00 591.00" xmlns="http://www.w3.org/2000/svg" xmlns:xlink="http://www.w3.org/1999/xlink">
<g id="graph0" class="graph" transform="scale(1 1) rotate(0) translate(4 587)">
<title>sisi4s::Log</title>
<!-- Node1 -->
<g id="node1" class="node">
<title>Node1</title>
<g id="a_node1"><a xlink:title="Class with static members offering control over logging. Log entries are created with the macro LOG.">
<polygon fill="#bfbfbf" stroke="black" points="93,-0.5 93,-145.5 197,-145.5 197,-0.5 93,-0.5"/>
<text text-anchor="middle" x="145" y="-133.5" font-family="Helvetica,sans-Serif" font-size="10.00">sisi4s::Log</text>
<polyline fill="none" stroke="black" points="93,-126.5 197,-126.5"/>
<text text-anchor="start" x="101" y="-114.5" font-family="Helvetica,sans-Serif" font-size="10.00"># rank</text>
<text text-anchor="start" x="101" y="-103.5" font-family="Helvetica,sans-Serif" font-size="10.00"># fileName</text>
<text text-anchor="start" x="101" y="-92.5" font-family="Helvetica,sans-Serif" font-size="10.00"># logLevel</text>
<polyline fill="none" stroke="black" points="93,-85.5 197,-85.5"/>
<text text-anchor="start" x="101" y="-73.5" font-family="Helvetica,sans-Serif" font-size="10.00">+ setRank()</text>
<text text-anchor="start" x="101" y="-62.5" font-family="Helvetica,sans-Serif" font-size="10.00">+ getRank()</text>
<text text-anchor="start" x="101" y="-51.5" font-family="Helvetica,sans-Serif" font-size="10.00">+ setFileName()</text>
<text text-anchor="start" x="101" y="-40.5" font-family="Helvetica,sans-Serif" font-size="10.00">+ getFileName()</text>
<text text-anchor="start" x="101" y="-29.5" font-family="Helvetica,sans-Serif" font-size="10.00">+ setLogLevel()</text>
<text text-anchor="start" x="101" y="-18.5" font-family="Helvetica,sans-Serif" font-size="10.00">+ getLogLevel()</text>
<text text-anchor="start" x="101" y="-7.5" font-family="Helvetica,sans-Serif" font-size="10.00">+ getLogStream()</text>
</a>
</g>
</g>
<!-- Node2 -->
<g id="node2" class="node">
<title>Node2</title>
<g id="a_node2"><a xlink:href="classsisi4s_1_1LogStream.html" target="_top" xlink:title=" ">
<polygon fill="none" stroke="black" points="93.5,-193.5 93.5,-283.5 196.5,-283.5 196.5,-193.5 93.5,-193.5"/>
<text text-anchor="middle" x="145" y="-271.5" font-family="Helvetica,sans-Serif" font-size="10.00">sisi4s::LogStream</text>
<polyline fill="none" stroke="black" points="93.5,-264.5 196.5,-264.5"/>
<text text-anchor="start" x="101.5" y="-252.5" font-family="Helvetica,sans-Serif" font-size="10.00"># logFile</text>
<text text-anchor="start" x="101.5" y="-241.5" font-family="Helvetica,sans-Serif" font-size="10.00"># logLevel</text>
<text text-anchor="start" x="101.5" y="-230.5" font-family="Helvetica,sans-Serif" font-size="10.00"># indent</text>
<polyline fill="none" stroke="black" points="93.5,-223.5 196.5,-223.5"/>
<text text-anchor="start" x="101.5" y="-211.5" font-family="Helvetica,sans-Serif" font-size="10.00">+ LogStream()</text>
<text text-anchor="start" x="101.5" y="-200.5" font-family="Helvetica,sans-Serif" font-size="10.00">+ prepare()</text>
</a>
</g>
</g>
<!-- Node2&#45;&gt;Node1 -->
<g id="edge1" class="edge">
<title>Node2&#45;&gt;Node1</title>
<path fill="none" stroke="#404040" d="M145,-193.25C145,-182.26 145,-170.11 145,-157.9"/>
<polygon fill="none" stroke="#404040" points="145,-157.7 141,-151.7 145,-145.7 149,-151.7 145,-157.7"/>
<text text-anchor="middle" x="176" y="-167" font-family="Helvetica,sans-Serif" font-size="10.00"> #logStream</text>
</g>
<!-- Node3 -->
<g id="node3" class="node">
<title>Node3</title>
<g id="a_node3"><a xlink:title=" ">
<polygon fill="none" stroke="black" points="0,-381 0,-438 78,-438 78,-381 0,-381"/>
<text text-anchor="middle" x="39" y="-426" font-family="Helvetica,sans-Serif" font-size="10.00">std::ostream</text>
<polyline fill="none" stroke="black" points="0,-419 78,-419"/>
<text text-anchor="middle" x="39" y="-407" font-family="Helvetica,sans-Serif" font-size="10.00"> </text>
<polyline fill="none" stroke="black" points="0,-400 78,-400"/>
<text text-anchor="middle" x="39" y="-388" font-family="Helvetica,sans-Serif" font-size="10.00"> </text>
</a>
</g>
</g>
<!-- Node3&#45;&gt;Node2 -->
<g id="edge2" class="edge">
<title>Node3&#45;&gt;Node2</title>
<path fill="none" stroke="midnightblue" d="M61.4,-372.15C69.45,-359.15 78.6,-344.4 87,-331 96.69,-315.54 107.36,-298.66 116.88,-283.65"/>
<polygon fill="none" stroke="midnightblue" points="58.32,-370.49 56.04,-380.84 64.27,-374.17 58.32,-370.49"/>
</g>
<!-- Node4 -->
<g id="node4" class="node">
<title>Node4</title>
<g id="a_node4"><a xlink:href="classsisi4s_1_1LogBuffer.html" target="_top" xlink:title=" ">
<polygon fill="none" stroke="black" points="96.5,-364.5 96.5,-454.5 193.5,-454.5 193.5,-364.5 96.5,-364.5"/>
<text text-anchor="middle" x="145" y="-442.5" font-family="Helvetica,sans-Serif" font-size="10.00">sisi4s::LogBuffer</text>
<polyline fill="none" stroke="black" points="96.5,-435.5 193.5,-435.5"/>
<text text-anchor="start" x="104.5" y="-423.5" font-family="Helvetica,sans-Serif" font-size="10.00"># log</text>
<text text-anchor="start" x="104.5" y="-412.5" font-family="Helvetica,sans-Serif" font-size="10.00"># out</text>
<polyline fill="none" stroke="black" points="96.5,-405.5 193.5,-405.5"/>
<text text-anchor="start" x="104.5" y="-393.5" font-family="Helvetica,sans-Serif" font-size="10.00">+ LogBuffer()</text>
<text text-anchor="start" x="104.5" y="-382.5" font-family="Helvetica,sans-Serif" font-size="10.00"># overflow()</text>
<text text-anchor="start" x="104.5" y="-371.5" font-family="Helvetica,sans-Serif" font-size="10.00"># sync()</text>
</a>
</g>
</g>
<!-- Node4&#45;&gt;Node2 -->
<g id="edge3" class="edge">
<title>Node4&#45;&gt;Node2</title>
<path fill="none" stroke="#404040" d="M145,-364.1C145,-343.14 145,-317.89 145,-295.63"/>
<polygon fill="none" stroke="#404040" points="145,-295.61 141,-289.61 145,-283.61 149,-289.61 145,-295.61"/>
<text text-anchor="middle" x="173" y="-305" font-family="Helvetica,sans-Serif" font-size="10.00"> #logBuffer</text>
</g>
<!-- Node5 -->
<g id="node5" class="node">
<title>Node5</title>
<g id="a_node5"><a xlink:title=" ">
<polygon fill="none" stroke="black" points="101,-525.5 101,-582.5 189,-582.5 189,-525.5 101,-525.5"/>
<text text-anchor="middle" x="145" y="-570.5" font-family="Helvetica,sans-Serif" font-size="10.00">std::streambuf</text>
<polyline fill="none" stroke="black" points="101,-563.5 189,-563.5"/>
<text text-anchor="middle" x="145" y="-551.5" font-family="Helvetica,sans-Serif" font-size="10.00"> </text>
<polyline fill="none" stroke="black" points="101,-544.5 189,-544.5"/>
<text text-anchor="middle" x="145" y="-532.5" font-family="Helvetica,sans-Serif" font-size="10.00"> </text>
</a>
</g>
</g>
<!-- Node5&#45;&gt;Node4 -->
<g id="edge4" class="edge">
<title>Node5&#45;&gt;Node4</title>
<path fill="none" stroke="midnightblue" d="M145,-515.01C145,-496.39 145,-473.87 145,-454.51"/>
<polygon fill="none" stroke="midnightblue" points="141.5,-515.19 145,-525.19 148.5,-515.19 141.5,-515.19"/>
</g>
<!-- Node6 -->
<g id="node6" class="node">
<title>Node6</title>
<g id="a_node6"><a xlink:href="classsisi4s_1_1Time.html" target="_top" xlink:title=" ">
<polygon fill="none" stroke="black" points="212,-331.5 212,-487.5 352,-487.5 352,-331.5 212,-331.5"/>
<text text-anchor="middle" x="282" y="-475.5" font-family="Helvetica,sans-Serif" font-size="10.00">sisi4s::Time</text>
<polyline fill="none" stroke="black" points="212,-468.5 352,-468.5"/>
<text text-anchor="start" x="220" y="-456.5" font-family="Helvetica,sans-Serif" font-size="10.00">+ FRACTIONS</text>
<text text-anchor="start" x="220" y="-445.5" font-family="Helvetica,sans-Serif" font-size="10.00">+ FRACTION_DIGITS</text>
<polyline fill="none" stroke="black" points="212,-438.5 352,-438.5"/>
<text text-anchor="start" x="220" y="-426.5" font-family="Helvetica,sans-Serif" font-size="10.00">+ Time()</text>
<text text-anchor="start" x="220" y="-415.5" font-family="Helvetica,sans-Serif" font-size="10.00">+ Time()</text>
<text text-anchor="start" x="220" y="-404.5" font-family="Helvetica,sans-Serif" font-size="10.00">+ Time()</text>
<text text-anchor="start" x="220" y="-393.5" font-family="Helvetica,sans-Serif" font-size="10.00">+ getSeconds()</text>
<text text-anchor="start" x="220" y="-382.5" font-family="Helvetica,sans-Serif" font-size="10.00">+ getFractions()</text>
<text text-anchor="start" x="220" y="-371.5" font-family="Helvetica,sans-Serif" font-size="10.00">+ getFractionalSeconds()</text>
<text text-anchor="start" x="220" y="-360.5" font-family="Helvetica,sans-Serif" font-size="10.00">+ operator+=()</text>
<text text-anchor="start" x="220" y="-349.5" font-family="Helvetica,sans-Serif" font-size="10.00">+ operator&#45;=()</text>
<text text-anchor="start" x="220" y="-338.5" font-family="Helvetica,sans-Serif" font-size="10.00">+ getCurrentRealTime()</text>
</a>
</g>
</g>
<!-- Node6&#45;&gt;Node2 -->
<g id="edge5" class="edge">
<title>Node6&#45;&gt;Node2</title>
<path fill="none" stroke="#404040" d="M228.15,-331.32C220.59,-321.29 212.75,-311.28 205,-302 202.37,-298.84 199.61,-295.65 196.79,-292.46"/>
<polygon fill="none" stroke="#404040" points="196.76,-292.43 189.77,-290.66 188.71,-283.53 195.7,-285.3 196.76,-292.43"/>
<text text-anchor="middle" x="241.5" y="-305" font-family="Helvetica,sans-Serif" font-size="10.00"> #startTime</text>
</g>
<!-- Node7 -->
<g id="node7" class="node">
<title>Node7</title>
<g id="a_node7"><a xlink:title=" ">
<polygon fill="none" stroke="black" points="251,-525.5 251,-582.5 313,-582.5 313,-525.5 251,-525.5"/>
<text text-anchor="middle" x="282" y="-570.5" font-family="Helvetica,sans-Serif" font-size="10.00">timespec</text>
<polyline fill="none" stroke="black" points="251,-563.5 313,-563.5"/>
<text text-anchor="middle" x="282" y="-551.5" font-family="Helvetica,sans-Serif" font-size="10.00"> </text>
<polyline fill="none" stroke="black" points="251,-544.5 313,-544.5"/>
<text text-anchor="middle" x="282" y="-532.5" font-family="Helvetica,sans-Serif" font-size="10.00"> </text>
</a>
</g>
</g>
<!-- Node7&#45;&gt;Node6 -->
<g id="edge6" class="edge">
<title>Node7&#45;&gt;Node6</title>
<path fill="none" stroke="darkgreen" d="M282,-514.91C282,-506.42 282,-497.12 282,-487.69"/>
<polygon fill="none" stroke="darkgreen" points="278.5,-515.19 282,-525.19 285.5,-515.19 278.5,-515.19"/>
</g>
</g>
</svg>
