<?xml version="1.0" encoding="UTF-8" standalone="no"?>
<!DOCTYPE svg PUBLIC "-//W3C//DTD SVG 1.1//EN"
 "http://www.w3.org/Graphics/SVG/1.1/DTD/svg11.dtd">
<!-- Generated by graphviz version 5.0.1 (0)
 -->
<!-- Title: CLI::ConversionError::ConversionError Pages: 1 -->
<svg width="420pt" height="88pt"
 viewBox="0.00 0.00 420.00 88.00" xmlns="http://www.w3.org/2000/svg" xmlns:xlink="http://www.w3.org/1999/xlink">
<g id="graph0" class="graph" transform="scale(1 1) rotate(0) translate(4 84)">
<title>CLI::ConversionError::ConversionError</title>
<!-- Node1 -->
<g id="node1" class="node">
<title>Node1</title>
<g id="a_node1"><a xlink:title=" ">
<polygon fill="#bfbfbf" stroke="black" points="296,-24.5 296,-54.5 412,-54.5 412,-24.5 296,-24.5"/>
<text text-anchor="start" x="304" y="-42.5" font-family="Helvetica,sans-Serif" font-size="10.00">CLI::ConversionError</text>
<text text-anchor="middle" x="354" y="-31.5" font-family="Helvetica,sans-Serif" font-size="10.00">::ConversionError</text>
</a>
</g>
</g>
<!-- Node2 -->
<g id="node2" class="node">
<title>Node2</title>
<g id="a_node2"><a xlink:href="classCLI_1_1ConversionError.html#afcf6df5e47b430c4083465a07f2ba037" target="_top" xlink:title=" ">
<polygon fill="none" stroke="black" points="143,-49.5 143,-79.5 260,-79.5 260,-49.5 143,-49.5"/>
<text text-anchor="start" x="151" y="-67.5" font-family="Helvetica,sans-Serif" font-size="10.00">CLI::ConversionError</text>
<text text-anchor="middle" x="201.5" y="-56.5" font-family="Helvetica,sans-Serif" font-size="10.00">::TooManyInputsFlag</text>
</a>
</g>
</g>
<!-- Node1&#45;&gt;Node2 -->
<g id="edge1" class="edge">
<title>Node1&#45;&gt;Node2</title>
<path fill="none" stroke="midnightblue" d="M285.74,-50.67C277.21,-52.09 268.53,-53.53 260.17,-54.92"/>
<polygon fill="midnightblue" stroke="midnightblue" points="286.38,-54.11 295.67,-49.02 285.23,-47.21 286.38,-54.11"/>
</g>
<!-- Node4 -->
<g id="node4" class="node">
<title>Node4</title>
<g id="a_node4"><a xlink:href="classCLI_1_1ConversionError.html#a313db9b520dbb813df899ebfbd0e8360" target="_top" xlink:title=" ">
<polygon fill="none" stroke="black" points="143.5,-0.5 143.5,-30.5 259.5,-30.5 259.5,-0.5 143.5,-0.5"/>
<text text-anchor="start" x="151.5" y="-18.5" font-family="Helvetica,sans-Serif" font-size="10.00">CLI::ConversionError</text>
<text text-anchor="middle" x="201.5" y="-7.5" font-family="Helvetica,sans-Serif" font-size="10.00">::TrueFalse</text>
</a>
</g>
</g>
<!-- Node1&#45;&gt;Node4 -->
<g id="edge3" class="edge">
<title>Node1&#45;&gt;Node4</title>
<path fill="none" stroke="midnightblue" d="M285.6,-28.75C276.94,-27.37 268.14,-25.97 259.67,-24.62"/>
<polygon fill="midnightblue" stroke="midnightblue" points="285.25,-32.24 295.67,-30.36 286.35,-25.33 285.25,-32.24"/>
</g>
<!-- Node3 -->
<g id="node3" class="node">
<title>Node3</title>
<g id="a_node3"><a xlink:href="classCLI_1_1Config.html#affac2102274c1a09c0e08b2c9410b57f" target="_top" xlink:title="Get a flag value.">
<polygon fill="none" stroke="black" points="0,-55 0,-74 107,-74 107,-55 0,-55"/>
<text text-anchor="middle" x="53.5" y="-62" font-family="Helvetica,sans-Serif" font-size="10.00">CLI::Config::to_flag</text>
</a>
</g>
</g>
<!-- Node2&#45;&gt;Node3 -->
<g id="edge2" class="edge">
<title>Node2&#45;&gt;Node3</title>
<path fill="none" stroke="midnightblue" d="M132.74,-64.5C124.11,-64.5 115.38,-64.5 107.04,-64.5"/>
<polygon fill="midnightblue" stroke="midnightblue" points="132.8,-68 142.8,-64.5 132.8,-61 132.8,-68"/>
</g>
</g>
</svg>
