<?xml version="1.0" encoding="UTF-8" standalone="no"?>
<!DOCTYPE svg PUBLIC "-//W3C//DTD SVG 1.1//EN"
 "http://www.w3.org/Graphics/SVG/1.1/DTD/svg11.dtd">
<!-- Generated by graphviz version 8.1.0 (0)
 -->
<!-- Title: sisi4s::Algorithm::getContainerArgument Pages: 1 -->
<svg width="448pt" height="80pt"
 viewBox="0.00 0.00 448.25 80.12" xmlns="http://www.w3.org/2000/svg" xmlns:xlink="http://www.w3.org/1999/xlink">
<g id="graph0" class="graph" transform="scale(1 1) rotate(0) translate(4 76.12)">
<title>sisi4s::Algorithm::getContainerArgument</title>
<!-- Node1 -->
<g id="Node000001" class="node">
<title>Node1</title>
<g id="a_Node000001"><a xlink:title=" ">
<polygon fill="#999999" stroke="#666666" points="127,-49.12 0,-49.12 0,-15.62 127,-15.62 127,-49.12"/>
<text text-anchor="start" x="8" y="-35.62" font-family="Helvetica,sans-Serif" font-size="10.00">sisi4s::Algorithm::</text>
<text text-anchor="middle" x="63.5" y="-22.88" font-family="Helvetica,sans-Serif" font-size="10.00">getContainerArgument</text>
</a>
</g>
</g>
<!-- Node2 -->
<g id="Node000002" class="node">
<title>Node2</title>
<g id="a_Node000002"><a xlink:href="classsisi4s_1_1Algorithm.html#a1e53277220d32a33e20846267c253652" target="_top" xlink:title=" ">
<polygon fill="white" stroke="#666666" points="288.12,-72.12 184.38,-72.12 184.38,-38.62 288.12,-38.62 288.12,-72.12"/>
<text text-anchor="start" x="192.38" y="-58.62" font-family="Helvetica,sans-Serif" font-size="10.00">sisi4s::Algorithm::</text>
<text text-anchor="middle" x="236.25" y="-45.88" font-family="Helvetica,sans-Serif" font-size="10.00">getArgumentData</text>
</a>
</g>
</g>
<!-- Node1&#45;&gt;Node2 -->
<g id="edge1_Node000001_Node000002" class="edge">
<title>Node1&#45;&gt;Node2</title>
<g id="a_edge1_Node000001_Node000002"><a xlink:title=" ">
<path fill="none" stroke="#63b8ff" d="M127.11,-40.81C142.2,-42.84 158.31,-45.01 173.37,-47.04"/>
<polygon fill="#63b8ff" stroke="#63b8ff" points="172.73,-50.62 183.11,-48.49 173.67,-43.68 172.73,-50.62"/>
</a>
</g>
</g>
<!-- Node4 -->
<g id="Node000004" class="node">
<title>Node4</title>
<g id="a_Node000004"><a xlink:href="classsisi4s_1_1Data.html#a0ec0b1c7f2356fd43d82ee1dd0246789" target="_top" xlink:title=" ">
<polygon fill="white" stroke="#666666" points="309.5,-20.75 163,-20.75 163,0 309.5,0 309.5,-20.75"/>
<text text-anchor="middle" x="236.25" y="-7.25" font-family="Helvetica,sans-Serif" font-size="10.00">sisi4s::Data::getTypeName</text>
</a>
</g>
</g>
<!-- Node1&#45;&gt;Node4 -->
<g id="edge3_Node000001_Node000004" class="edge">
<title>Node1&#45;&gt;Node4</title>
<g id="a_edge3_Node000001_Node000004"><a xlink:title=" ">
<path fill="none" stroke="#63b8ff" d="M127.11,-24.31C135.12,-23.28 143.42,-22.21 151.69,-21.14"/>
<polygon fill="#63b8ff" stroke="#63b8ff" points="152.05,-24.49 161.53,-19.75 151.16,-17.55 152.05,-24.49"/>
</a>
</g>
</g>
<!-- Node3 -->
<g id="Node000003" class="node">
<title>Node3</title>
<g id="a_Node000003"><a xlink:href="classsisi4s_1_1Data.html#a5b4676e48b4f437d399587e6903f896a" target="_top" xlink:title=" ">
<polygon fill="white" stroke="#666666" points="440.25,-65.75 345.5,-65.75 345.5,-45 440.25,-45 440.25,-65.75"/>
<text text-anchor="middle" x="392.88" y="-52.25" font-family="Helvetica,sans-Serif" font-size="10.00">sisi4s::Data::get</text>
</a>
</g>
</g>
<!-- Node2&#45;&gt;Node3 -->
<g id="edge2_Node000002_Node000003" class="edge">
<title>Node2&#45;&gt;Node3</title>
<g id="a_edge2_Node000002_Node000003"><a xlink:title=" ">
<path fill="none" stroke="#63b8ff" d="M288.31,-55.38C303.03,-55.38 319.2,-55.38 334.29,-55.38"/>
<polygon fill="#63b8ff" stroke="#63b8ff" points="334.05,-58.88 344.05,-55.38 334.05,-51.88 334.05,-58.88"/>
</a>
</g>
</g>
</g>
</svg>
