<?xml version="1.0" encoding="UTF-8" standalone="no"?>
<!DOCTYPE svg PUBLIC "-//W3C//DTD SVG 1.1//EN"
 "http://www.w3.org/Graphics/SVG/1.1/DTD/svg11.dtd">
<!-- Generated by graphviz version 8.1.0 (0)
 -->
<!-- Title: sisi4s::ParenthesisTriples::getVpppijkOnTheFly Pages: 1 -->
<svg width="607pt" height="116pt"
 viewBox="0.00 0.00 606.75 115.50" xmlns="http://www.w3.org/2000/svg" xmlns:xlink="http://www.w3.org/1999/xlink">
<g id="graph0" class="graph" transform="scale(1 1) rotate(0) translate(4 111.5)">
<title>sisi4s::ParenthesisTriples::getVpppijkOnTheFly</title>
<!-- Node1 -->
<g id="Node000001" class="node">
<title>Node1</title>
<g id="a_Node000001"><a xlink:title=" ">
<polygon fill="#999999" stroke="#666666" points="137.5,-59.5 0,-59.5 0,-26 137.5,-26 137.5,-59.5"/>
<text text-anchor="start" x="8" y="-46" font-family="Helvetica,sans-Serif" font-size="10.00">sisi4s::ParenthesisTriples</text>
<text text-anchor="middle" x="68.75" y="-33.25" font-family="Helvetica,sans-Serif" font-size="10.00">::getVpppijkOnTheFly</text>
</a>
</g>
</g>
<!-- Node2 -->
<g id="Node000002" class="node">
<title>Node2</title>
<g id="a_Node000002"><a xlink:href="classsisi4s_1_1Algorithm.html#a5e80a507fac066ab5714b62364cabaaf" target="_top" xlink:title=" ">
<polygon fill="white" stroke="#666666" points="281.38,-85.5 177.62,-85.5 177.62,-52 281.38,-52 281.38,-85.5"/>
<text text-anchor="start" x="185.62" y="-72" font-family="Helvetica,sans-Serif" font-size="10.00">sisi4s::Algorithm::</text>
<text text-anchor="middle" x="229.5" y="-59.25" font-family="Helvetica,sans-Serif" font-size="10.00">getTextArgument</text>
</a>
</g>
</g>
<!-- Node1&#45;&gt;Node2 -->
<g id="edge1_Node000001_Node000002" class="edge">
<title>Node1&#45;&gt;Node2</title>
<g id="a_edge1_Node000001_Node000002"><a xlink:title=" ">
<path fill="none" stroke="#63b8ff" d="M138,-53.93C147.64,-55.51 157.51,-57.12 167.02,-58.68"/>
<polygon fill="#63b8ff" stroke="#63b8ff" points="166.14,-62.25 176.57,-60.41 167.27,-55.34 166.14,-62.25"/>
</a>
</g>
</g>
<!-- Node6 -->
<g id="Node000006" class="node">
<title>Node6</title>
<g id="a_Node000006"><a xlink:href="structsisi4s_1_1VectorTensor.html#ad294d21f8bffc70e623aaf2fab05d888" target="_top" xlink:title=" ">
<polygon fill="white" stroke="#666666" points="285.5,-33.5 173.5,-33.5 173.5,0 285.5,0 285.5,-33.5"/>
<text text-anchor="start" x="181.5" y="-20" font-family="Helvetica,sans-Serif" font-size="10.00">sisi4s::VectorTensor</text>
<text text-anchor="middle" x="229.5" y="-7.25" font-family="Helvetica,sans-Serif" font-size="10.00">::withReference</text>
</a>
</g>
</g>
<!-- Node1&#45;&gt;Node6 -->
<g id="edge5_Node000001_Node000006" class="edge">
<title>Node1&#45;&gt;Node6</title>
<g id="a_edge5_Node000001_Node000006"><a xlink:title=" ">
<path fill="none" stroke="#63b8ff" d="M138,-31.57C146.08,-30.25 154.33,-28.9 162.39,-27.58"/>
<polygon fill="#63b8ff" stroke="#63b8ff" points="162.92,-30.87 172.23,-25.8 161.79,-23.96 162.92,-30.87"/>
</a>
</g>
</g>
<!-- Node3 -->
<g id="Node000003" class="node">
<title>Node3</title>
<g id="a_Node000003"><a xlink:href="classsisi4s_1_1Algorithm.html#a1e53277220d32a33e20846267c253652" target="_top" xlink:title=" ">
<polygon fill="white" stroke="#666666" points="446.62,-107.5 342.88,-107.5 342.88,-74 446.62,-74 446.62,-107.5"/>
<text text-anchor="start" x="350.88" y="-94" font-family="Helvetica,sans-Serif" font-size="10.00">sisi4s::Algorithm::</text>
<text text-anchor="middle" x="394.75" y="-81.25" font-family="Helvetica,sans-Serif" font-size="10.00">getArgumentData</text>
</a>
</g>
</g>
<!-- Node2&#45;&gt;Node3 -->
<g id="edge2_Node000002_Node000003" class="edge">
<title>Node2&#45;&gt;Node3</title>
<g id="a_edge2_Node000002_Node000003"><a xlink:title=" ">
<path fill="none" stroke="#63b8ff" d="M281.71,-75.65C297.58,-77.79 315.25,-80.17 331.78,-82.4"/>
<polygon fill="#63b8ff" stroke="#63b8ff" points="331.07,-85.97 341.45,-83.84 332,-79.03 331.07,-85.97"/>
</a>
</g>
</g>
<!-- Node5 -->
<g id="Node000005" class="node">
<title>Node5</title>
<g id="a_Node000005"><a xlink:href="classsisi4s_1_1Data.html#a0ec0b1c7f2356fd43d82ee1dd0246789" target="_top" xlink:title=" ">
<polygon fill="white" stroke="#666666" points="468,-56.12 321.5,-56.12 321.5,-35.38 468,-35.38 468,-56.12"/>
<text text-anchor="middle" x="394.75" y="-42.62" font-family="Helvetica,sans-Serif" font-size="10.00">sisi4s::Data::getTypeName</text>
</a>
</g>
</g>
<!-- Node2&#45;&gt;Node5 -->
<g id="edge4_Node000002_Node000005" class="edge">
<title>Node2&#45;&gt;Node5</title>
<g id="a_edge4_Node000002_Node000005"><a xlink:title=" ">
<path fill="none" stroke="#63b8ff" d="M281.71,-61.54C290.91,-60.24 300.71,-58.86 310.54,-57.47"/>
<polygon fill="#63b8ff" stroke="#63b8ff" points="310.79,-60.83 320.2,-55.97 309.81,-53.9 310.79,-60.83"/>
</a>
</g>
</g>
<!-- Node4 -->
<g id="Node000004" class="node">
<title>Node4</title>
<g id="a_Node000004"><a xlink:href="classsisi4s_1_1Data.html#a5b4676e48b4f437d399587e6903f896a" target="_top" xlink:title=" ">
<polygon fill="white" stroke="#666666" points="598.75,-101.12 504,-101.12 504,-80.38 598.75,-80.38 598.75,-101.12"/>
<text text-anchor="middle" x="551.38" y="-87.62" font-family="Helvetica,sans-Serif" font-size="10.00">sisi4s::Data::get</text>
</a>
</g>
</g>
<!-- Node3&#45;&gt;Node4 -->
<g id="edge3_Node000003_Node000004" class="edge">
<title>Node3&#45;&gt;Node4</title>
<g id="a_edge3_Node000003_Node000004"><a xlink:title=" ">
<path fill="none" stroke="#63b8ff" d="M446.81,-90.75C461.53,-90.75 477.7,-90.75 492.79,-90.75"/>
<polygon fill="#63b8ff" stroke="#63b8ff" points="492.55,-94.25 502.55,-90.75 492.55,-87.25 492.55,-94.25"/>
</a>
</g>
</g>
</g>
</svg>
