<?xml version="1.0" encoding="UTF-8" standalone="no"?>
<!DOCTYPE svg PUBLIC "-//W3C//DTD SVG 1.1//EN"
 "http://www.w3.org/Graphics/SVG/1.1/DTD/svg11.dtd">
<!-- Generated by graphviz version 7.0.0 (0)
 -->
<!-- Title: sisi4s::ScaLapackMatrix::ScaLapackMatrix Pages: 1 -->
<svg width="406pt" height="38pt"
 viewBox="0.00 0.00 406.00 38.00" xmlns="http://www.w3.org/2000/svg" xmlns:xlink="http://www.w3.org/1999/xlink">
<g id="graph0" class="graph" transform="scale(1 1) rotate(0) translate(4 34)">
<title>sisi4s::ScaLapackMatrix::ScaLapackMatrix</title>
<!-- Node1 -->
<g id="node1" class="node">
<title>Node1</title>
<g id="a_node1"><a xlink:title="Contructs a ScaLapack matrix from the matricized content of a Tensor in the given BlacsWorld by copyi...">
<polygon fill="#999999" stroke="#666666" points="134,-30 0,-30 0,0 134,0 134,-30"/>
<text text-anchor="start" x="8" y="-18" font-family="Helvetica,sans-Serif" font-size="10.00">sisi4s::ScaLapackMatrix</text>
<text text-anchor="middle" x="67" y="-7" font-family="Helvetica,sans-Serif" font-size="10.00">::ScaLapackMatrix</text>
</a>
</g>
</g>
<!-- Node2 -->
<g id="node2" class="node">
<title>Node2</title>
<g id="a_node2"><a xlink:href="classsisi4s_1_1ScaLapackMatrix.html#ae0f82a2ab2355be692fcd5476d8f9842" target="_top" xlink:title="Retrieves the global row or column index within the full matrix from the given row or column index wi...">
<polygon fill="white" stroke="#666666" points="304,-30 170,-30 170,0 304,0 304,-30"/>
<text text-anchor="start" x="178" y="-18" font-family="Helvetica,sans-Serif" font-size="10.00">sisi4s::ScaLapackMatrix</text>
<text text-anchor="middle" x="237" y="-7" font-family="Helvetica,sans-Serif" font-size="10.00">::getGlobalIndex</text>
</a>
</g>
</g>
<!-- Node1&#45;&gt;Node2 -->
<g id="edge1" class="edge">
<title>Node1&#45;&gt;Node2</title>
<path fill="none" stroke="#63b8ff" d="M134.4,-15C142.16,-15 150.14,-15 158.04,-15"/>
<polygon fill="#63b8ff" stroke="#63b8ff" points="158.02,-18.5 168.02,-15 158.02,-11.5 158.02,-18.5"/>
</g>
<!-- Node3 -->
<g id="node3" class="node">
<title>Node3</title>
<g id="a_node3"><a xlink:href="ScaLapack_8hpp.html#ac4325b5dd5fe6fc506aa35d8ca1df48c" target="_top" xlink:title=" ">
<polygon fill="white" stroke="#666666" points="398,-24.5 340,-24.5 340,-5.5 398,-5.5 398,-24.5"/>
<text text-anchor="middle" x="369" y="-12.5" font-family="Helvetica,sans-Serif" font-size="10.00">indxl2g_</text>
</a>
</g>
</g>
<!-- Node2&#45;&gt;Node3 -->
<g id="edge2" class="edge">
<title>Node2&#45;&gt;Node3</title>
<path fill="none" stroke="#63b8ff" d="M304.14,-15C312.38,-15 320.58,-15 328.24,-15"/>
<polygon fill="#63b8ff" stroke="#63b8ff" points="328.22,-18.5 338.22,-15 328.22,-11.5 328.22,-18.5"/>
</g>
</g>
</svg>
