<?xml version="1.0" encoding="UTF-8" standalone="no"?>
<!DOCTYPE svg PUBLIC "-//W3C//DTD SVG 1.1//EN"
 "http://www.w3.org/Graphics/SVG/1.1/DTD/svg11.dtd">
<!-- Generated by graphviz version 8.1.0 (0)
 -->
<!-- Title: sisi4s::MpiCommunicator Pages: 1 -->
<svg width="141pt" height="220pt"
 viewBox="0.00 0.00 141.00 220.00" xmlns="http://www.w3.org/2000/svg" xmlns:xlink="http://www.w3.org/1999/xlink">
<g id="graph0" class="graph" transform="scale(1 1) rotate(0) translate(4 216)">
<title>sisi4s::MpiCommunicator</title>
<!-- Node1 -->
<g id="Node000001" class="node">
<title>Node1</title>
<g id="a_Node000001"><a xlink:title=" ">
<polygon fill="#999999" stroke="none" points="133,-212 0,-212 0,0 133,0 133,-212"/>
<text text-anchor="start" x="4.62" y="-198.5" font-family="Helvetica,sans-Serif" font-size="10.00">sisi4s::MpiCommunicator</text>
<text text-anchor="start" x="5.88" y="-182.5" font-family="Helvetica,sans-Serif" font-size="10.00">#</text>
<text text-anchor="start" x="20" y="-182.5" font-family="Helvetica,sans-Serif" font-size="10.00">rank</text>
<text text-anchor="start" x="5.88" y="-166.5" font-family="Helvetica,sans-Serif" font-size="10.00">#</text>
<text text-anchor="start" x="20" y="-166.5" font-family="Helvetica,sans-Serif" font-size="10.00">processes</text>
<text text-anchor="start" x="5.88" y="-150.5" font-family="Helvetica,sans-Serif" font-size="10.00">#</text>
<text text-anchor="start" x="20" y="-150.5" font-family="Helvetica,sans-Serif" font-size="10.00">comm</text>
<text text-anchor="start" x="5.88" y="-134.5" font-family="Helvetica,sans-Serif" font-size="10.00">+</text>
<text text-anchor="start" x="20" y="-134.5" font-family="Helvetica,sans-Serif" font-size="10.00">MpiCommunicator()</text>
<text text-anchor="start" x="5.88" y="-118.5" font-family="Helvetica,sans-Serif" font-size="10.00">+</text>
<text text-anchor="start" x="20" y="-118.5" font-family="Helvetica,sans-Serif" font-size="10.00">MpiCommunicator()</text>
<text text-anchor="start" x="5.88" y="-102.5" font-family="Helvetica,sans-Serif" font-size="10.00">+</text>
<text text-anchor="start" x="20" y="-102.5" font-family="Helvetica,sans-Serif" font-size="10.00">~MpiCommunicator()</text>
<text text-anchor="start" x="5.88" y="-86.5" font-family="Helvetica,sans-Serif" font-size="10.00">+</text>
<text text-anchor="start" x="20" y="-86.5" font-family="Helvetica,sans-Serif" font-size="10.00">barrier()</text>
<text text-anchor="start" x="5.88" y="-70.5" font-family="Helvetica,sans-Serif" font-size="10.00">+</text>
<text text-anchor="start" x="20" y="-70.5" font-family="Helvetica,sans-Serif" font-size="10.00">reduce()</text>
<text text-anchor="start" x="5.88" y="-54.5" font-family="Helvetica,sans-Serif" font-size="10.00">+</text>
<text text-anchor="start" x="20" y="-54.5" font-family="Helvetica,sans-Serif" font-size="10.00">allReduce()</text>
<text text-anchor="start" x="5.88" y="-38.5" font-family="Helvetica,sans-Serif" font-size="10.00">+</text>
<text text-anchor="start" x="20" y="-38.5" font-family="Helvetica,sans-Serif" font-size="10.00">gather()</text>
<text text-anchor="start" x="5.88" y="-22.5" font-family="Helvetica,sans-Serif" font-size="10.00">+</text>
<text text-anchor="start" x="20" y="-22.5" font-family="Helvetica,sans-Serif" font-size="10.00">getRank()</text>
<text text-anchor="start" x="5.88" y="-6.5" font-family="Helvetica,sans-Serif" font-size="10.00">+</text>
<text text-anchor="start" x="20" y="-6.5" font-family="Helvetica,sans-Serif" font-size="10.00">getProcesses()</text>
<polygon fill="#666666" stroke="#666666" points="0,-194 0,-194 133,-194 133,-194 0,-194"/>
<polygon fill="#666666" stroke="#666666" points="0,-146 0,-146 18,-146 18,-146 0,-146"/>
<polygon fill="#666666" stroke="#666666" points="18,-146 18,-146 133,-146 133,-146 18,-146"/>
<polygon fill="none" stroke="#666666" points="0,0 0,-212 133,-212 133,0 0,0"/>
</a>
</g>
</g>
</g>
</svg>
