<?xml version="1.0" encoding="UTF-8" standalone="no"?>
<!DOCTYPE svg PUBLIC "-//W3C//DTD SVG 1.1//EN"
 "http://www.w3.org/Graphics/SVG/1.1/DTD/svg11.dtd">
<!-- Generated by graphviz version 8.1.0 (0)
 -->
<!-- Title: ghc::filesystem::path::operator/= Pages: 1 -->
<svg width="766pt" height="485pt"
 viewBox="0.00 0.00 766.00 484.50" xmlns="http://www.w3.org/2000/svg" xmlns:xlink="http://www.w3.org/1999/xlink">
<g id="graph0" class="graph" transform="scale(1 1) rotate(0) translate(4 480.5)">
<title>ghc::filesystem::path::operator/=</title>
<!-- Node1 -->
<g id="Node000001" class="node">
<title>Node1</title>
<g id="a_Node000001"><a xlink:title=" ">
<polygon fill="#999999" stroke="#666666" points="118,-272.5 0,-272.5 0,-239 118,-239 118,-272.5"/>
<text text-anchor="start" x="8" y="-259" font-family="Helvetica,sans-Serif" font-size="10.00">ghc::filesystem::path</text>
<text text-anchor="middle" x="59" y="-246.25" font-family="Helvetica,sans-Serif" font-size="10.00">::operator/=</text>
</a>
</g>
</g>
<!-- Node2 -->
<g id="Node000002" class="node">
<title>Node2</title>
<g id="a_Node000002"><a xlink:href="classghc_1_1filesystem_1_1path.html#acca2e4f0a4593dc4ab2f9cf611fe31cb" target="_top" xlink:title=" ">
<polygon fill="white" stroke="#666666" points="272,-476.5 154,-476.5 154,-443 272,-443 272,-476.5"/>
<text text-anchor="start" x="162" y="-463" font-family="Helvetica,sans-Serif" font-size="10.00">ghc::filesystem::path</text>
<text text-anchor="middle" x="213" y="-450.25" font-family="Helvetica,sans-Serif" font-size="10.00">::assign</text>
</a>
</g>
</g>
<!-- Node1&#45;&gt;Node2 -->
<g id="edge1_Node000001_Node000002" class="edge">
<title>Node1&#45;&gt;Node2</title>
<g id="a_edge1_Node000001_Node000002"><a xlink:title=" ">
<path fill="none" stroke="#63b8ff" d="M64.84,-272.78C75.48,-307.45 104.03,-386.9 154,-433.75 155,-434.68 156.03,-435.59 157.1,-436.46"/>
<polygon fill="#63b8ff" stroke="#63b8ff" points="154.65,-439.72 164.84,-442.62 158.68,-434 154.65,-439.72"/>
</a>
</g>
</g>
<!-- Node3 -->
<g id="Node000003" class="node">
<title>Node3</title>
<g id="a_Node000003"><a xlink:href="classghc_1_1filesystem_1_1path.html#a454abf672252e37cc24b9bb23a24b774" target="_top" xlink:title=" ">
<polygon fill="white" stroke="#666666" points="272,-424.5 154,-424.5 154,-391 272,-391 272,-424.5"/>
<text text-anchor="start" x="162" y="-411" font-family="Helvetica,sans-Serif" font-size="10.00">ghc::filesystem::path</text>
<text text-anchor="middle" x="213" y="-398.25" font-family="Helvetica,sans-Serif" font-size="10.00">::begin</text>
</a>
</g>
</g>
<!-- Node1&#45;&gt;Node3 -->
<g id="edge2_Node000001_Node000003" class="edge">
<title>Node1&#45;&gt;Node3</title>
<g id="a_edge2_Node000001_Node000003"><a xlink:title=" ">
<path fill="none" stroke="#63b8ff" d="M70,-272.83C85.44,-298.08 117.19,-345.71 154,-376.75 157.44,-379.65 161.19,-382.39 165.08,-384.95"/>
<polygon fill="#63b8ff" stroke="#63b8ff" points="162.96,-388.37 173.31,-390.6 166.61,-382.39 162.96,-388.37"/>
</a>
</g>
</g>
<!-- Node4 -->
<g id="Node000004" class="node">
<title>Node4</title>
<g id="a_Node000004"><a xlink:href="classghc_1_1filesystem_1_1path.html#a66ead77fddc75c0e9ebfbf3f1fe555aa" target="_top" xlink:title=" ">
<polygon fill="white" stroke="#666666" points="426,-296.5 308,-296.5 308,-263 426,-263 426,-296.5"/>
<text text-anchor="start" x="316" y="-283" font-family="Helvetica,sans-Serif" font-size="10.00">ghc::filesystem::path</text>
<text text-anchor="middle" x="367" y="-270.25" font-family="Helvetica,sans-Serif" font-size="10.00">::empty</text>
</a>
</g>
</g>
<!-- Node1&#45;&gt;Node4 -->
<g id="edge3_Node000001_Node000004" class="edge">
<title>Node1&#45;&gt;Node4</title>
<g id="a_edge3_Node000001_Node000004"><a xlink:title=" ">
<path fill="none" stroke="#63b8ff" d="M118.28,-260.32C169.14,-264.31 243.02,-270.1 296.85,-274.33"/>
<polygon fill="#63b8ff" stroke="#63b8ff" points="296.44,-277.88 306.68,-275.18 296.98,-270.9 296.44,-277.88"/>
</a>
</g>
</g>
<!-- Node5 -->
<g id="Node000005" class="node">
<title>Node5</title>
<g id="a_Node000005"><a xlink:href="classghc_1_1filesystem_1_1path.html#af62a148e592fc444fea5f195896a6a2e" target="_top" xlink:title=" ">
<polygon fill="white" stroke="#666666" points="604,-300.12 462,-300.12 462,-279.38 604,-279.38 604,-300.12"/>
<text text-anchor="middle" x="533" y="-286.62" font-family="Helvetica,sans-Serif" font-size="10.00">ghc::filesystem::path::end</text>
</a>
</g>
</g>
<!-- Node1&#45;&gt;Node5 -->
<g id="edge4_Node000001_Node000005" class="edge">
<title>Node1&#45;&gt;Node5</title>
<g id="a_edge4_Node000001_Node000005"><a xlink:title=" ">
<path fill="none" stroke="#63b8ff" d="M118.16,-272.96C129.96,-276.13 142.33,-279.24 154,-281.75 272.64,-307.31 304.98,-314.83 426,-305.75 436.97,-304.93 448.53,-303.63 459.81,-302.12"/>
<polygon fill="#63b8ff" stroke="#63b8ff" points="460.1,-305.48 469.52,-300.62 459.13,-298.54 460.1,-305.48"/>
</a>
</g>
</g>
<!-- Node6 -->
<g id="Node000006" class="node">
<title>Node6</title>
<g id="a_Node000006"><a xlink:href="classghc_1_1filesystem_1_1path.html#ae6ee7d5f8e9eeb1850aa54f538d53e74" target="_top" xlink:title=" ">
<polygon fill="white" stroke="#666666" points="272,-246.5 154,-246.5 154,-213 272,-213 272,-246.5"/>
<text text-anchor="start" x="162" y="-233" font-family="Helvetica,sans-Serif" font-size="10.00">ghc::filesystem::path</text>
<text text-anchor="middle" x="213" y="-220.25" font-family="Helvetica,sans-Serif" font-size="10.00">::has_filename</text>
</a>
</g>
</g>
<!-- Node1&#45;&gt;Node6 -->
<g id="edge5_Node000001_Node000006" class="edge">
<title>Node1&#45;&gt;Node6</title>
<g id="a_edge5_Node000001_Node000006"><a xlink:title=" ">
<path fill="none" stroke="#63b8ff" d="M118.33,-245.77C126.37,-244.4 134.68,-242.98 142.88,-241.57"/>
<polygon fill="#63b8ff" stroke="#63b8ff" points="143.31,-244.88 152.57,-239.74 142.13,-237.98 143.31,-244.88"/>
</a>
</g>
</g>
<!-- Node10 -->
<g id="Node000010" class="node">
<title>Node10</title>
<g id="a_Node000010"><a xlink:href="classghc_1_1filesystem_1_1path.html#a89dc8832ede96a8987e1beeb97f5c49d" target="_top" xlink:title=" ">
<polygon fill="white" stroke="#666666" points="758,-234.5 640,-234.5 640,-201 758,-201 758,-234.5"/>
<text text-anchor="start" x="648" y="-221" font-family="Helvetica,sans-Serif" font-size="10.00">ghc::filesystem::path</text>
<text text-anchor="middle" x="699" y="-208.25" font-family="Helvetica,sans-Serif" font-size="10.00">::has_root_directory</text>
</a>
</g>
</g>
<!-- Node1&#45;&gt;Node10 -->
<g id="edge13_Node000001_Node000010" class="edge">
<title>Node1&#45;&gt;Node10</title>
<g id="a_edge13_Node000001_Node000010"><a xlink:title=" ">
<path fill="none" stroke="#63b8ff" d="M84.24,-272.92C102.51,-284.9 128.66,-300.06 154,-307.75 345.38,-365.85 421.24,-389.98 604,-308.75 635.6,-294.7 662.86,-265.18 679.77,-243.55"/>
<polygon fill="#63b8ff" stroke="#63b8ff" points="683.12,-245.92 686.36,-235.84 677.54,-241.7 683.12,-245.92"/>
</a>
</g>
</g>
<!-- Node11 -->
<g id="Node000011" class="node">
<title>Node11</title>
<g id="a_Node000011"><a xlink:href="classghc_1_1filesystem_1_1path.html#a249764ef9016ebffb229831477b72b83" target="_top" xlink:title=" ">
<polygon fill="white" stroke="#666666" points="426,-64.5 308,-64.5 308,-31 426,-31 426,-64.5"/>
<text text-anchor="start" x="316" y="-51" font-family="Helvetica,sans-Serif" font-size="10.00">ghc::filesystem::path</text>
<text text-anchor="middle" x="367" y="-38.25" font-family="Helvetica,sans-Serif" font-size="10.00">::has_root_name</text>
</a>
</g>
</g>
<!-- Node1&#45;&gt;Node11 -->
<g id="edge14_Node000001_Node000011" class="edge">
<title>Node1&#45;&gt;Node11</title>
<g id="a_edge14_Node000001_Node000011"><a xlink:title=" ">
<path fill="none" stroke="#63b8ff" d="M63.77,-238.68C72.65,-202.9 98.41,-120.11 154,-80.75 195.28,-51.52 252.42,-44.01 296.98,-43.41"/>
<polygon fill="#63b8ff" stroke="#63b8ff" points="296.74,-46.91 306.73,-43.39 296.73,-39.91 296.74,-46.91"/>
</a>
</g>
</g>
<!-- Node12 -->
<g id="Node000012" class="node">
<title>Node12</title>
<g id="a_Node000012"><a xlink:href="classghc_1_1filesystem_1_1path.html#a50c572019ca1961134581b4c96b47d98" target="_top" xlink:title=" ">
<polygon fill="white" stroke="#666666" points="272,-123.5 154,-123.5 154,-90 272,-90 272,-123.5"/>
<text text-anchor="start" x="162" y="-110" font-family="Helvetica,sans-Serif" font-size="10.00">ghc::filesystem::path</text>
<text text-anchor="middle" x="213" y="-97.25" font-family="Helvetica,sans-Serif" font-size="10.00">::is_absolute</text>
</a>
</g>
</g>
<!-- Node1&#45;&gt;Node12 -->
<g id="edge15_Node000001_Node000012" class="edge">
<title>Node1&#45;&gt;Node12</title>
<g id="a_edge15_Node000001_Node000012"><a xlink:title=" ">
<path fill="none" stroke="#63b8ff" d="M76.03,-238.82C94.52,-219.42 125.98,-186.82 154,-159.75 163.89,-150.2 174.98,-139.95 184.79,-131.04"/>
<polygon fill="#63b8ff" stroke="#63b8ff" points="186.61,-134.21 191.68,-124.91 181.92,-129.02 186.61,-134.21"/>
</a>
</g>
</g>
<!-- Node13 -->
<g id="Node000013" class="node">
<title>Node13</title>
<g id="a_Node000013"><a xlink:href="classghc_1_1filesystem_1_1path.html#a7f972ea2fdb1c64655aba64cef3705fb" target="_top" xlink:title=" ">
<polygon fill="white" stroke="#666666" points="272,-33.5 154,-33.5 154,0 272,0 272,-33.5"/>
<text text-anchor="start" x="162" y="-20" font-family="Helvetica,sans-Serif" font-size="10.00">ghc::filesystem::path</text>
<text text-anchor="middle" x="213" y="-7.25" font-family="Helvetica,sans-Serif" font-size="10.00">::native</text>
</a>
</g>
</g>
<!-- Node1&#45;&gt;Node13 -->
<g id="edge18_Node000001_Node000013" class="edge">
<title>Node1&#45;&gt;Node13</title>
<g id="a_edge18_Node000001_Node000013"><a xlink:title=" ">
<path fill="none" stroke="#63b8ff" d="M63.75,-238.55C72.94,-200.02 99.85,-105.62 154,-47.75 156.57,-45 159.45,-42.44 162.5,-40.07"/>
<polygon fill="#63b8ff" stroke="#63b8ff" points="164.23,-42.45 170.49,-33.9 160.26,-36.68 164.23,-42.45"/>
</a>
</g>
</g>
<!-- Node14 -->
<g id="Node000014" class="node">
<title>Node14</title>
<g id="a_Node000014"><a xlink:href="classghc_1_1filesystem_1_1path.html#ad97c0bd4fa7e692e2c81c94bc40b44a1" target="_top" xlink:title=" ">
<polygon fill="white" stroke="#666666" points="426,-154.5 308,-154.5 308,-121 426,-121 426,-154.5"/>
<text text-anchor="start" x="316" y="-141" font-family="Helvetica,sans-Serif" font-size="10.00">ghc::filesystem::path</text>
<text text-anchor="middle" x="367" y="-128.25" font-family="Helvetica,sans-Serif" font-size="10.00">::root_name</text>
</a>
</g>
</g>
<!-- Node1&#45;&gt;Node14 -->
<g id="edge19_Node000001_Node000014" class="edge">
<title>Node1&#45;&gt;Node14</title>
<g id="a_edge19_Node000001_Node000014"><a xlink:title=" ">
<path fill="none" stroke="#63b8ff" d="M87.63,-238.51C105.97,-227.56 130.84,-213.64 154,-203.75 200.57,-183.86 255.17,-167.01 297.3,-155.31"/>
<polygon fill="#63b8ff" stroke="#63b8ff" points="298.01,-158.47 306.73,-152.45 296.16,-151.72 298.01,-158.47"/>
</a>
</g>
</g>
<!-- Node6&#45;&gt;Node4 -->
<g id="edge6_Node000006_Node000004" class="edge">
<title>Node6&#45;&gt;Node4</title>
<g id="a_edge6_Node000006_Node000004"><a xlink:title=" ">
<path fill="none" stroke="#63b8ff" d="M266.31,-246.96C278.25,-250.89 291.06,-255.1 303.39,-259.15"/>
<polygon fill="#63b8ff" stroke="#63b8ff" points="302,-262.71 312.59,-262.51 304.19,-256.06 302,-262.71"/>
</a>
</g>
</g>
<!-- Node7 -->
<g id="Node000007" class="node">
<title>Node7</title>
<g id="a_Node000007"><a xlink:href="classghc_1_1filesystem_1_1path.html#a8fa8cb12e511ef8d951559983d26f018" target="_top" xlink:title=" ">
<polygon fill="white" stroke="#666666" points="426,-244.5 308,-244.5 308,-211 426,-211 426,-244.5"/>
<text text-anchor="start" x="316" y="-231" font-family="Helvetica,sans-Serif" font-size="10.00">ghc::filesystem::path</text>
<text text-anchor="middle" x="367" y="-218.25" font-family="Helvetica,sans-Serif" font-size="10.00">::filename</text>
</a>
</g>
</g>
<!-- Node6&#45;&gt;Node7 -->
<g id="edge7_Node000006_Node000007" class="edge">
<title>Node6&#45;&gt;Node7</title>
<g id="a_edge7_Node000006_Node000007"><a xlink:title=" ">
<path fill="none" stroke="#63b8ff" d="M272.33,-228.98C280.28,-228.88 288.49,-228.77 296.61,-228.66"/>
<polygon fill="#63b8ff" stroke="#63b8ff" points="296.62,-232.15 306.57,-228.52 296.53,-225.15 296.62,-232.15"/>
</a>
</g>
</g>
<!-- Node9 -->
<g id="Node000009" class="node">
<title>Node9</title>
<g id="a_Node000009"><a xlink:href="classghc_1_1filesystem_1_1path.html#ac9f23d51eb3bd601d2abd758f0be2cf5" target="_top" xlink:title=" ">
<polygon fill="white" stroke="#666666" points="592,-234.5 474,-234.5 474,-201 592,-201 592,-234.5"/>
<text text-anchor="start" x="482" y="-221" font-family="Helvetica,sans-Serif" font-size="10.00">ghc::filesystem::path</text>
<text text-anchor="middle" x="533" y="-208.25" font-family="Helvetica,sans-Serif" font-size="10.00">::has_relative_path</text>
</a>
</g>
</g>
<!-- Node6&#45;&gt;Node9 -->
<g id="edge12_Node000006_Node000009" class="edge">
<title>Node6&#45;&gt;Node9</title>
<g id="a_edge12_Node000006_Node000009"><a xlink:title=" ">
<path fill="none" stroke="#63b8ff" d="M261.7,-212.63C276.36,-208.17 292.67,-203.99 308,-201.75 359.68,-194.22 418.61,-198.95 463.05,-205.17"/>
<polygon fill="#63b8ff" stroke="#63b8ff" points="462.33,-208.75 472.73,-206.74 463.35,-201.82 462.33,-208.75"/>
</a>
</g>
</g>
<!-- Node7&#45;&gt;Node5 -->
<g id="edge9_Node000007_Node000005" class="edge">
<title>Node7&#45;&gt;Node5</title>
<g id="a_edge9_Node000007_Node000005"><a xlink:title=" ">
<path fill="none" stroke="#63b8ff" d="M413.25,-244.86C438.35,-254.35 469.26,-266.03 493.24,-275.1"/>
<polygon fill="#63b8ff" stroke="#63b8ff" points="491.81,-278.67 502.4,-278.94 494.28,-272.13 491.81,-278.67"/>
</a>
</g>
</g>
<!-- Node8 -->
<g id="Node000008" class="node">
<title>Node8</title>
<g id="a_Node000008"><a xlink:href="classghc_1_1filesystem_1_1path.html#aa69fa98adb4093bf9ff74cca6972d5fb" target="_top" xlink:title=" ">
<polygon fill="white" stroke="#666666" points="592,-163.5 474,-163.5 474,-130 592,-130 592,-163.5"/>
<text text-anchor="start" x="482" y="-150" font-family="Helvetica,sans-Serif" font-size="10.00">ghc::filesystem::path</text>
<text text-anchor="middle" x="533" y="-137.25" font-family="Helvetica,sans-Serif" font-size="10.00">::path</text>
</a>
</g>
</g>
<!-- Node7&#45;&gt;Node8 -->
<g id="edge8_Node000007_Node000008" class="edge">
<title>Node7&#45;&gt;Node8</title>
<g id="a_edge8_Node000007_Node000008"><a xlink:title=" ">
<path fill="none" stroke="#63b8ff" d="M402.78,-210.57C427.46,-198.38 460.79,-181.92 487.42,-168.77"/>
<polygon fill="#63b8ff" stroke="#63b8ff" points="488.85,-171.47 496.27,-163.9 485.75,-165.19 488.85,-171.47"/>
</a>
</g>
</g>
<!-- Node7&#45;&gt;Node9 -->
<g id="edge10_Node000007_Node000009" class="edge">
<title>Node7&#45;&gt;Node9</title>
<g id="a_edge10_Node000007_Node000009"><a xlink:title=" ">
<path fill="none" stroke="#63b8ff" d="M426.28,-224.2C438.17,-223.47 450.79,-222.7 463.02,-221.96"/>
<polygon fill="#63b8ff" stroke="#63b8ff" points="462.86,-225.41 472.63,-221.31 462.43,-218.42 462.86,-225.41"/>
</a>
</g>
</g>
<!-- Node9&#45;&gt;Node10 -->
<g id="edge11_Node000009_Node000010" class="edge">
<title>Node9&#45;&gt;Node10</title>
<g id="a_edge11_Node000009_Node000010"><a xlink:title=" ">
<path fill="none" stroke="#63b8ff" d="M592.28,-217.75C604.05,-217.75 616.54,-217.75 628.65,-217.75"/>
<polygon fill="#63b8ff" stroke="#63b8ff" points="628.63,-221.25 638.63,-217.75 628.63,-214.25 628.63,-221.25"/>
</a>
</g>
</g>
<!-- Node12&#45;&gt;Node10 -->
<g id="edge16_Node000012_Node000010" class="edge">
<title>Node12&#45;&gt;Node10</title>
<g id="a_edge16_Node000012_Node000010"><a xlink:title=" ">
<path fill="none" stroke="#63b8ff" d="M272.3,-95.62C351.38,-83.38 495.25,-71.43 604,-120.75 637.22,-135.82 664.78,-168.39 681.29,-191.63"/>
<polygon fill="#63b8ff" stroke="#63b8ff" points="678.92,-193.37 687.47,-199.64 684.7,-189.41 678.92,-193.37"/>
</a>
</g>
</g>
<!-- Node12&#45;&gt;Node11 -->
<g id="edge17_Node000012_Node000011" class="edge">
<title>Node12&#45;&gt;Node11</title>
<g id="a_edge17_Node000012_Node000011"><a xlink:title=" ">
<path fill="none" stroke="#63b8ff" d="M258.37,-89.53C275,-83.07 294.09,-75.66 311.53,-68.89"/>
<polygon fill="#63b8ff" stroke="#63b8ff" points="312.52,-71.88 320.57,-65 309.98,-65.35 312.52,-71.88"/>
</a>
</g>
</g>
<!-- Node14&#45;&gt;Node8 -->
<g id="edge20_Node000014_Node000008" class="edge">
<title>Node14&#45;&gt;Node8</title>
<g id="a_edge20_Node000014_Node000008"><a xlink:title=" ">
<path fill="none" stroke="#63b8ff" d="M426.28,-140.95C438.05,-141.59 450.54,-142.28 462.65,-142.94"/>
<polygon fill="#63b8ff" stroke="#63b8ff" points="462.45,-146.49 472.63,-143.55 462.84,-139.5 462.45,-146.49"/>
</a>
</g>
</g>
</g>
</svg>
