<?xml version="1.0" encoding="UTF-8" standalone="no"?>
<!DOCTYPE svg PUBLIC "-//W3C//DTD SVG 1.1//EN"
 "http://www.w3.org/Graphics/SVG/1.1/DTD/svg11.dtd">
<!-- Generated by graphviz version 9.0.0 (0)
 -->
<!-- Title: CLI::Option::check_lname Pages: 1 -->
<svg width="472pt" height="80pt"
 viewBox="0.00 0.00 471.50 80.12" xmlns="http://www.w3.org/2000/svg" xmlns:xlink="http://www.w3.org/1999/xlink">
<g id="graph0" class="graph" transform="scale(1 1) rotate(0) translate(4 76.12)">
<title>CLI::Option::check_lname</title>
<!-- Node1 -->
<g id="Node000001" class="node">
<title>Node1</title>
<g id="a_Node000001"><a xlink:title="Requires &quot;&#45;&#45;&quot; to be removed from string.">
<polygon fill="#999999" stroke="#666666" points="463.5,-55.5 359.75,-55.5 359.75,-22 463.5,-22 463.5,-55.5"/>
<text text-anchor="start" x="367.75" y="-42" font-family="Helvetica,sans-Serif" font-size="10.00">CLI::Option::check</text>
<text text-anchor="middle" x="411.62" y="-29.25" font-family="Helvetica,sans-Serif" font-size="10.00">_lname</text>
</a>
</g>
</g>
<!-- Node2 -->
<g id="Node000002" class="node">
<title>Node2</title>
<g id="a_Node000002"><a xlink:href="classCLI_1_1Option.html#ad95e4bba59db33e4bfe4caf91ca7be21" target="_top" xlink:title="If options share any of the same names, find it.">
<polygon fill="white" stroke="#666666" points="323.75,-49.12 169.75,-49.12 169.75,-28.38 323.75,-28.38 323.75,-49.12"/>
<text text-anchor="middle" x="246.75" y="-35.62" font-family="Helvetica,sans-Serif" font-size="10.00">CLI::Option::matching_name</text>
</a>
</g>
</g>
<!-- Node1&#45;&gt;Node2 -->
<g id="edge1_Node000001_Node000002" class="edge">
<title>Node1&#45;&gt;Node2</title>
<g id="a_edge1_Node000001_Node000002"><a xlink:title=" ">
<path fill="none" stroke="#63b8ff" d="M348.17,-38.75C340.26,-38.75 332.1,-38.75 324.01,-38.75"/>
<polygon fill="#63b8ff" stroke="#63b8ff" points="348.02,-42.25 358.02,-38.75 348.02,-35.25 348.02,-42.25"/>
</a>
</g>
</g>
<!-- Node3 -->
<g id="Node000003" class="node">
<title>Node3</title>
<g id="a_Node000003"><a xlink:href="classCLI_1_1Option.html#a3906c06092f4c7c109c39fdc86183fd6" target="_top" xlink:title=" ">
<polygon fill="white" stroke="#666666" points="133.75,-72.12 0,-72.12 0,-51.38 133.75,-51.38 133.75,-72.12"/>
<text text-anchor="middle" x="66.88" y="-58.62" font-family="Helvetica,sans-Serif" font-size="10.00">CLI::Option::ignore_case</text>
</a>
</g>
</g>
<!-- Node2&#45;&gt;Node3 -->
<g id="edge2_Node000002_Node000003" class="edge">
<title>Node2&#45;&gt;Node3</title>
<g id="a_edge2_Node000002_Node000003"><a xlink:title=" ">
<path fill="none" stroke="#63b8ff" d="M158,-50.1C149.99,-51.13 141.98,-52.17 134.2,-53.17"/>
<polygon fill="#63b8ff" stroke="#63b8ff" points="158.31,-53.59 167.78,-48.83 157.42,-46.64 158.31,-53.59"/>
</a>
</g>
</g>
<!-- Node4 -->
<g id="Node000004" class="node">
<title>Node4</title>
<g id="a_Node000004"><a xlink:href="classCLI_1_1Option.html#ad02168c79c67a4b39e64b98d4cc39ca9" target="_top" xlink:title=" ">
<polygon fill="white" stroke="#666666" points="119.88,-33.5 13.88,-33.5 13.88,0 119.88,0 119.88,-33.5"/>
<text text-anchor="start" x="21.88" y="-20" font-family="Helvetica,sans-Serif" font-size="10.00">CLI::Option::ignore</text>
<text text-anchor="middle" x="66.88" y="-7.25" font-family="Helvetica,sans-Serif" font-size="10.00">_underscore</text>
</a>
</g>
</g>
<!-- Node2&#45;&gt;Node4 -->
<g id="edge3_Node000002_Node000004" class="edge">
<title>Node2&#45;&gt;Node4</title>
<g id="a_edge3_Node000002_Node000004"><a xlink:title=" ">
<path fill="none" stroke="#63b8ff" d="M157.96,-27.89C145.03,-26.29 132.06,-24.69 120.16,-23.22"/>
<polygon fill="#63b8ff" stroke="#63b8ff" points="157.43,-31.35 167.78,-29.11 158.29,-24.41 157.43,-31.35"/>
</a>
</g>
</g>
</g>
</svg>
