<?xml version="1.0" encoding="UTF-8" standalone="no"?>
<!DOCTYPE svg PUBLIC "-//W3C//DTD SVG 1.1//EN"
 "http://www.w3.org/Graphics/SVG/1.1/DTD/svg11.dtd">
<!-- Generated by graphviz version 7.1.0 (0)
 -->
<!-- Title: sisi4s::CcsdPreconditioner::getInitialBasis Pages: 1 -->
<svg width="492pt" height="339pt"
 viewBox="0.00 0.00 492.00 338.50" xmlns="http://www.w3.org/2000/svg" xmlns:xlink="http://www.w3.org/1999/xlink">
<g id="graph0" class="graph" transform="scale(1 1) rotate(0) translate(4 334.5)">
<title>sisi4s::CcsdPreconditioner::getInitialBasis</title>
<!-- Node1 -->
<g id="node1" class="node">
<title>Node1</title>
<g id="a_node1"><a xlink:title="Get initial basis.">
<polygon fill="#999999" stroke="#666666" points="144,-163.5 0,-163.5 0,-133.5 144,-133.5 144,-163.5"/>
<text text-anchor="start" x="8" y="-151.5" font-family="Helvetica,sans-Serif" font-size="10.00">sisi4s::CcsdPreconditioner</text>
<text text-anchor="middle" x="72" y="-140.5" font-family="Helvetica,sans-Serif" font-size="10.00">::getInitialBasis</text>
</a>
</g>
</g>
<!-- Node2 -->
<g id="node2" class="node">
<title>Node2</title>
<g id="a_node2"><a xlink:href="classsisi4s_1_1FockVector.html#a7f7a9ea49d5eb503a988858d1b9e76cb" target="_top" xlink:title="Returns the inner product of this ket&#45;FockVector with the given ket&#45;FockVector a. The elements of thi...">
<polygon fill="white" stroke="#666666" points="312.5,-277 187.5,-277 187.5,-258 312.5,-258 312.5,-277"/>
<text text-anchor="middle" x="250" y="-265" font-family="Helvetica,sans-Serif" font-size="10.00">sisi4s::FockVector::dot</text>
</a>
</g>
</g>
<!-- Node1&#45;&gt;Node2 -->
<g id="edge1" class="edge">
<title>Node1&#45;&gt;Node2</title>
<path fill="none" stroke="#63b8ff" d="M86.44,-163.7C105.44,-184.36 142.07,-221.26 180,-243.5 186.62,-247.38 193.96,-250.77 201.31,-253.67"/>
<polygon fill="#63b8ff" stroke="#63b8ff" points="199.99,-256.92 210.59,-257.08 202.4,-250.35 199.99,-256.92"/>
</g>
<!-- Node4 -->
<g id="node4" class="node">
<title>Node4</title>
<g id="a_node4"><a xlink:href="classsisi4s_1_1FockVector.html#aebf4e090f20a7bb83c434396b274c89c" target="_top" xlink:title="Retrieves the i&#45;th component tensor. Note that the Tensor is not const since rearrangement may be req...">
<polygon fill="white" stroke="#666666" points="482.5,-234 357.5,-234 357.5,-215 482.5,-215 482.5,-234"/>
<text text-anchor="middle" x="420" y="-222" font-family="Helvetica,sans-Serif" font-size="10.00">sisi4s::FockVector::get</text>
</a>
</g>
</g>
<!-- Node1&#45;&gt;Node4 -->
<g id="edge7" class="edge">
<title>Node1&#45;&gt;Node4</title>
<path fill="none" stroke="#63b8ff" d="M92.98,-163.95C113.53,-178.87 147.1,-200.62 180,-210.5 233.99,-226.72 297.85,-229.68 345.98,-228.88"/>
<polygon fill="#63b8ff" stroke="#63b8ff" points="345.81,-232.39 355.72,-228.66 345.64,-225.39 345.81,-232.39"/>
</g>
<!-- Node6 -->
<g id="node6" class="node">
<title>Node6</title>
<g id="a_node6"><a xlink:href="CcsdPreconditioner_8cxx.html#a279086f8f72e73ab4de59fe05b1fd760" target="_top" xlink:title=" ">
<polygon fill="white" stroke="#666666" points="314.5,-201 185.5,-201 185.5,-182 314.5,-182 314.5,-201"/>
<text text-anchor="middle" x="250" y="-189" font-family="Helvetica,sans-Serif" font-size="10.00">filterOutSpinFlipEntries</text>
</a>
</g>
</g>
<!-- Node1&#45;&gt;Node6 -->
<g id="edge5" class="edge">
<title>Node1&#45;&gt;Node6</title>
<path fill="none" stroke="#63b8ff" d="M136.04,-163.9C156.08,-168.8 178,-174.15 197.15,-178.83"/>
<polygon fill="#63b8ff" stroke="#63b8ff" points="196.06,-182.17 206.6,-181.14 197.72,-175.37 196.06,-182.17"/>
</g>
<!-- Node7 -->
<g id="node7" class="node">
<title>Node7</title>
<g id="a_node7"><a xlink:href="classsisi4s_1_1MpiCommunicator.html#a4920d7e68dfa8c38de024795a264527f" target="_top" xlink:title=" ">
<polygon fill="white" stroke="#666666" points="320,-163.5 180,-163.5 180,-133.5 320,-133.5 320,-163.5"/>
<text text-anchor="start" x="188" y="-151.5" font-family="Helvetica,sans-Serif" font-size="10.00">sisi4s::MpiCommunicator</text>
<text text-anchor="middle" x="250" y="-140.5" font-family="Helvetica,sans-Serif" font-size="10.00">::gather</text>
</a>
</g>
</g>
<!-- Node1&#45;&gt;Node7 -->
<g id="edge6" class="edge">
<title>Node1&#45;&gt;Node7</title>
<path fill="none" stroke="#63b8ff" d="M144.33,-148.5C152.14,-148.5 160.14,-148.5 168.05,-148.5"/>
<polygon fill="#63b8ff" stroke="#63b8ff" points="168.05,-152 178.05,-148.5 168.05,-145 168.05,-152"/>
</g>
<!-- Node8 -->
<g id="node8" class="node">
<title>Node8</title>
<g id="a_node8"><a xlink:href="classsisi4s_1_1MpiCommunicator.html#a0e6f9439058e7c3685f2f05a40cda46a" target="_top" xlink:title=" ">
<polygon fill="white" stroke="#666666" points="320,-115.5 180,-115.5 180,-85.5 320,-85.5 320,-115.5"/>
<text text-anchor="start" x="188" y="-103.5" font-family="Helvetica,sans-Serif" font-size="10.00">sisi4s::MpiCommunicator</text>
<text text-anchor="middle" x="250" y="-92.5" font-family="Helvetica,sans-Serif" font-size="10.00">::getRank</text>
</a>
</g>
</g>
<!-- Node1&#45;&gt;Node8 -->
<g id="edge8" class="edge">
<title>Node1&#45;&gt;Node8</title>
<path fill="none" stroke="#63b8ff" d="M129.66,-133.05C146.14,-128.55 164.32,-123.6 181.41,-118.93"/>
<polygon fill="#63b8ff" stroke="#63b8ff" points="182.26,-122.33 190.99,-116.32 180.42,-115.58 182.26,-122.33"/>
</g>
<!-- Node9 -->
<g id="node9" class="node">
<title>Node9</title>
<g id="a_node9"><a xlink:href="namespacesisi4s.html#adb5622106d23e3d14c736c4793512e5c" target="_top" xlink:title=" ">
<polygon fill="white" stroke="#666666" points="318.5,-19 181.5,-19 181.5,0 318.5,0 318.5,-19"/>
<text text-anchor="middle" x="250" y="-7" font-family="Helvetica,sans-Serif" font-size="10.00">sisi4s::setRandomTensor</text>
</a>
</g>
</g>
<!-- Node1&#45;&gt;Node9 -->
<g id="edge9" class="edge">
<title>Node1&#45;&gt;Node9</title>
<path fill="none" stroke="#63b8ff" d="M82.47,-133.05C99,-107.37 135.66,-56.03 180,-28.5 182.77,-26.78 185.7,-25.21 188.72,-23.78"/>
<polygon fill="#63b8ff" stroke="#63b8ff" points="189.96,-27.06 197.88,-20.02 187.3,-20.58 189.96,-27.06"/>
</g>
<!-- Node11 -->
<g id="node11" class="node">
<title>Node11</title>
<g id="a_node11"><a xlink:href="classsisi4s_1_1FockVector.html#af3f1a3e793e9dc55958b795c7672f9de" target="_top" xlink:title="Writes the given values together with their respective indices. The indices are between 0 and getDime...">
<polygon fill="white" stroke="#666666" points="302,-67.5 198,-67.5 198,-37.5 302,-37.5 302,-67.5"/>
<text text-anchor="start" x="206" y="-55.5" font-family="Helvetica,sans-Serif" font-size="10.00">sisi4s::FockVector</text>
<text text-anchor="middle" x="250" y="-44.5" font-family="Helvetica,sans-Serif" font-size="10.00">::write</text>
</a>
</g>
</g>
<!-- Node1&#45;&gt;Node11 -->
<g id="edge11" class="edge">
<title>Node1&#45;&gt;Node11</title>
<path fill="none" stroke="#63b8ff" d="M92.56,-133.07C113.32,-117.24 147.55,-92.72 180,-76.5 183.02,-74.99 186.16,-73.53 189.36,-72.14"/>
<polygon fill="#63b8ff" stroke="#63b8ff" points="190.4,-75.49 198.33,-68.46 187.75,-69.02 190.4,-75.49"/>
</g>
<!-- Node3 -->
<g id="node3" class="node">
<title>Node3</title>
<g id="a_node3"><a xlink:href="classsisi4s_1_1FockVector.html#a71043d7cf50670bf71b593fd0f8289ad" target="_top" xlink:title=" ">
<polygon fill="white" stroke="#666666" points="484,-282.5 356,-282.5 356,-252.5 484,-252.5 484,-282.5"/>
<text text-anchor="start" x="364" y="-270.5" font-family="Helvetica,sans-Serif" font-size="10.00">sisi4s::FockVector</text>
<text text-anchor="middle" x="420" y="-259.5" font-family="Helvetica,sans-Serif" font-size="10.00">::checkCompatibilityTo</text>
</a>
</g>
</g>
<!-- Node2&#45;&gt;Node3 -->
<g id="edge2" class="edge">
<title>Node2&#45;&gt;Node3</title>
<path fill="none" stroke="#63b8ff" d="M312.6,-267.5C322.92,-267.5 333.72,-267.5 344.32,-267.5"/>
<polygon fill="#63b8ff" stroke="#63b8ff" points="344.2,-271 354.2,-267.5 344.2,-264 344.2,-271"/>
</g>
<!-- Node2&#45;&gt;Node4 -->
<g id="edge3" class="edge">
<title>Node2&#45;&gt;Node4</title>
<path fill="none" stroke="#63b8ff" d="M289.96,-257.53C313.52,-251.5 343.79,-243.75 369.09,-237.27"/>
<polygon fill="#63b8ff" stroke="#63b8ff" points="369.67,-240.74 378.49,-234.87 367.93,-233.96 369.67,-240.74"/>
</g>
<!-- Node5 -->
<g id="node5" class="node">
<title>Node5</title>
<g id="a_node5"><a xlink:href="classsisi4s_1_1FockVector.html#a12f7974afa01def06d0fff6b08c06756" target="_top" xlink:title="Retrieves the i&#45;th component indices.">
<polygon fill="white" stroke="#666666" points="472,-330.5 368,-330.5 368,-300.5 472,-300.5 472,-330.5"/>
<text text-anchor="start" x="376" y="-318.5" font-family="Helvetica,sans-Serif" font-size="10.00">sisi4s::FockVector</text>
<text text-anchor="middle" x="420" y="-307.5" font-family="Helvetica,sans-Serif" font-size="10.00">::getIndices</text>
</a>
</g>
</g>
<!-- Node2&#45;&gt;Node5 -->
<g id="edge4" class="edge">
<title>Node2&#45;&gt;Node5</title>
<path fill="none" stroke="#63b8ff" d="M285.81,-277.45C306.31,-283.3 332.85,-290.89 356.84,-297.74"/>
<polygon fill="#63b8ff" stroke="#63b8ff" points="355.62,-301.03 366.19,-300.41 357.54,-294.3 355.62,-301.03"/>
</g>
<!-- Node10 -->
<g id="node10" class="node">
<title>Node10</title>
<g id="a_node10"><a xlink:href="namespacesisi4s.html#a2e93670459c4d5d087e89f55952bbe62" target="_top" xlink:title=" ">
<polygon fill="white" stroke="#666666" points="473,-19 367,-19 367,0 473,0 473,-19"/>
<text text-anchor="middle" x="420" y="-7" font-family="Helvetica,sans-Serif" font-size="10.00">sisi4s::setRandom</text>
</a>
</g>
</g>
<!-- Node9&#45;&gt;Node10 -->
<g id="edge10" class="edge">
<title>Node9&#45;&gt;Node10</title>
<path fill="none" stroke="#63b8ff" d="M318.85,-9.5C330.92,-9.5 343.46,-9.5 355.42,-9.5"/>
<polygon fill="#63b8ff" stroke="#63b8ff" points="355.15,-13 365.15,-9.5 355.15,-6 355.15,-13"/>
</g>
<!-- Node11&#45;&gt;Node4 -->
<g id="edge13" class="edge">
<title>Node11&#45;&gt;Node4</title>
<path fill="none" stroke="#63b8ff" d="M302.32,-66.09C308.61,-68.95 314.68,-72.39 320,-76.5 365.09,-111.35 396.58,-172.76 410.67,-204.4"/>
<polygon fill="#63b8ff" stroke="#63b8ff" points="407.3,-205.42 414.47,-213.22 413.73,-202.65 407.3,-205.42"/>
</g>
<!-- Node12 -->
<g id="node12" class="node">
<title>Node12</title>
<g id="a_node12"><a xlink:href="classsisi4s_1_1FockVector.html#aa2f9329282dfb459c34110e83a7902e3" target="_top" xlink:title=" ">
<polygon fill="white" stroke="#666666" points="472,-67.5 368,-67.5 368,-37.5 472,-37.5 472,-67.5"/>
<text text-anchor="start" x="376" y="-55.5" font-family="Helvetica,sans-Serif" font-size="10.00">sisi4s::FockVector</text>
<text text-anchor="middle" x="420" y="-44.5" font-family="Helvetica,sans-Serif" font-size="10.00">::fromIndex</text>
</a>
</g>
</g>
<!-- Node11&#45;&gt;Node12 -->
<g id="edge12" class="edge">
<title>Node11&#45;&gt;Node12</title>
<path fill="none" stroke="#63b8ff" d="M302.32,-52.5C319.34,-52.5 338.48,-52.5 356.26,-52.5"/>
<polygon fill="#63b8ff" stroke="#63b8ff" points="356.19,-56 366.19,-52.5 356.19,-49 356.19,-56"/>
</g>
</g>
</svg>
