<?xml version="1.0" encoding="UTF-8" standalone="no"?>
<!DOCTYPE svg PUBLIC "-//W3C//DTD SVG 1.1//EN"
 "http://www.w3.org/Graphics/SVG/1.1/DTD/svg11.dtd">
<!-- Generated by graphviz version 8.1.0 (0)
 -->
<!-- Title: sisi4s::FockVector::getIndices Pages: 1 -->
<svg width="550pt" height="398pt"
 viewBox="0.00 0.00 549.50 398.12" xmlns="http://www.w3.org/2000/svg" xmlns:xlink="http://www.w3.org/1999/xlink">
<g id="graph0" class="graph" transform="scale(1 1) rotate(0) translate(4 394.12)">
<title>sisi4s::FockVector::getIndices</title>
<!-- Node1 -->
<g id="Node000001" class="node">
<title>Node1</title>
<g id="a_Node000001"><a xlink:title="Retrieves the i&#45;th component indices.">
<polygon fill="#999999" stroke="#666666" points="541.5,-182.12 438.5,-182.12 438.5,-148.62 541.5,-148.62 541.5,-182.12"/>
<text text-anchor="start" x="446.5" y="-168.62" font-family="Helvetica,sans-Serif" font-size="10.00">sisi4s::FockVector</text>
<text text-anchor="middle" x="490" y="-155.88" font-family="Helvetica,sans-Serif" font-size="10.00">::getIndices</text>
</a>
</g>
</g>
<!-- Node2 -->
<g id="Node000002" class="node">
<title>Node2</title>
<g id="a_Node000002"><a xlink:href="classsisi4s_1_1FockVector.html#a0366d95ec508547de45b887737a4ca0e" target="_top" xlink:title="Returns the matrix product of this bra&#45;FockVector with the given dual ket&#45;FockVector ket.">
<polygon fill="white" stroke="#666666" points="357.12,-331.12 254.12,-331.12 254.12,-297.62 357.12,-297.62 357.12,-331.12"/>
<text text-anchor="start" x="262.12" y="-317.62" font-family="Helvetica,sans-Serif" font-size="10.00">sisi4s::FockVector</text>
<text text-anchor="middle" x="305.62" y="-304.88" font-family="Helvetica,sans-Serif" font-size="10.00">::braket</text>
</a>
</g>
</g>
<!-- Node1&#45;&gt;Node2 -->
<g id="edge1_Node000001_Node000002" class="edge">
<title>Node1&#45;&gt;Node2</title>
<g id="a_edge1_Node000001_Node000002"><a xlink:title=" ">
<path fill="none" stroke="#63b8ff" d="M477.07,-192.16C463.16,-220.3 437.53,-263.82 402.5,-288.38 389.22,-297.68 372.77,-303.66 357.27,-307.5"/>
<polygon fill="#63b8ff" stroke="#63b8ff" points="480.5,-194.08 481.66,-183.55 474.19,-191.06 480.5,-194.08"/>
</a>
</g>
</g>
<!-- Node3 -->
<g id="Node000003" class="node">
<title>Node3</title>
<g id="a_Node000003"><a xlink:href="classsisi4s_1_1FockVector.html#a50027197de830ea574d8f33ed0211b5d" target="_top" xlink:title="Creates and returns the conjugate transpose of this FockVector. The first and the second half of the ...">
<polygon fill="white" stroke="#666666" points="365,-279.12 246.25,-279.12 246.25,-245.62 365,-245.62 365,-279.12"/>
<text text-anchor="start" x="254.25" y="-265.62" font-family="Helvetica,sans-Serif" font-size="10.00">sisi4s::FockVector</text>
<text text-anchor="middle" x="305.62" y="-252.88" font-family="Helvetica,sans-Serif" font-size="10.00">::conjugateTranspose</text>
</a>
</g>
</g>
<!-- Node1&#45;&gt;Node3 -->
<g id="edge2_Node000001_Node000003" class="edge">
<title>Node1&#45;&gt;Node3</title>
<g id="a_edge2_Node000001_Node000003"><a xlink:title=" ">
<path fill="none" stroke="#63b8ff" d="M464.75,-190.06C448.44,-205.4 425.73,-224.4 402.5,-236.38 391,-242.3 378.01,-246.99 365.39,-250.65"/>
<polygon fill="#63b8ff" stroke="#63b8ff" points="466.9,-192.9 471.67,-183.44 462.04,-187.85 466.9,-192.9"/>
</a>
</g>
</g>
<!-- Node5 -->
<g id="Node000005" class="node">
<title>Node5</title>
<g id="a_Node000005"><a xlink:href="classsisi4s_1_1FockVector.html#a7f7a9ea49d5eb503a988858d1b9e76cb" target="_top" xlink:title="Returns the inner product of this ket&#45;FockVector with the given ket&#45;FockVector a. The elements of thi...">
<polygon fill="white" stroke="#666666" points="368,-227.75 243.25,-227.75 243.25,-207 368,-207 368,-227.75"/>
<text text-anchor="middle" x="305.62" y="-214.25" font-family="Helvetica,sans-Serif" font-size="10.00">sisi4s::FockVector::dot</text>
</a>
</g>
</g>
<!-- Node1&#45;&gt;Node5 -->
<g id="edge4_Node000001_Node000005" class="edge">
<title>Node1&#45;&gt;Node5</title>
<g id="a_edge4_Node000001_Node000005"><a xlink:title=" ">
<path fill="none" stroke="#63b8ff" d="M436,-186.39C425.02,-190.35 413.46,-194.22 402.5,-197.38 390.65,-200.78 377.83,-203.86 365.53,-206.53"/>
<polygon fill="#63b8ff" stroke="#63b8ff" points="437.12,-189.34 445.3,-182.6 434.71,-182.77 437.12,-189.34"/>
</a>
</g>
</g>
<!-- Node9 -->
<g id="Node000009" class="node">
<title>Node9</title>
<g id="a_Node000009"><a xlink:href="classsisi4s_1_1ClusterSinglesDoublesAlgorithm.html#a8327421acb8285d0fc20f9605cfa5937" target="_top" xlink:title="Calculates an improved estimate of the amplitudes provided the given the residuum....">
<polygon fill="white" stroke="#666666" points="402.5,-188.5 208.75,-188.5 208.75,-142.25 402.5,-142.25 402.5,-188.5"/>
<text text-anchor="start" x="216.75" y="-175" font-family="Helvetica,sans-Serif" font-size="10.00">sisi4s::ClusterSinglesDoubles</text>
<text text-anchor="start" x="216.75" y="-162.25" font-family="Helvetica,sans-Serif" font-size="10.00">Algorithm::estimateAmplitudesFrom</text>
<text text-anchor="middle" x="305.62" y="-149.5" font-family="Helvetica,sans-Serif" font-size="10.00">Residuum</text>
</a>
</g>
</g>
<!-- Node1&#45;&gt;Node9 -->
<g id="edge8_Node000001_Node000009" class="edge">
<title>Node1&#45;&gt;Node9</title>
<g id="a_edge8_Node000001_Node000009"><a xlink:title=" ">
<path fill="none" stroke="#63b8ff" d="M427.29,-165.38C419.39,-165.38 411.17,-165.38 402.89,-165.38"/>
<polygon fill="#63b8ff" stroke="#63b8ff" points="427.2,-168.88 437.2,-165.38 427.2,-161.88 427.2,-168.88"/>
</a>
</g>
</g>
<!-- Node13 -->
<g id="Node000013" class="node">
<title>Node13</title>
<g id="a_Node000013"><a xlink:href="classsisi4s_1_1FockVector.html#afc8681ced60db6c9d2fc65c6764f83d5" target="_top" xlink:title="Multiply&#45;by assignment operator scalar multiplying each component each component of this FockVector b...">
<polygon fill="white" stroke="#666666" points="357.12,-124.12 254.12,-124.12 254.12,-90.62 357.12,-90.62 357.12,-124.12"/>
<text text-anchor="start" x="262.12" y="-110.62" font-family="Helvetica,sans-Serif" font-size="10.00">sisi4s::FockVector</text>
<text text-anchor="middle" x="305.62" y="-97.88" font-family="Helvetica,sans-Serif" font-size="10.00">::operator*=</text>
</a>
</g>
</g>
<!-- Node1&#45;&gt;Node13 -->
<g id="edge12_Node000001_Node000013" class="edge">
<title>Node1&#45;&gt;Node13</title>
<g id="a_edge12_Node000001_Node000013"><a xlink:title=" ">
<path fill="none" stroke="#63b8ff" d="M434.79,-144.48C424.14,-140.61 413.02,-136.74 402.5,-133.38 387.88,-128.7 371.84,-124.13 357.13,-120.16"/>
<polygon fill="#63b8ff" stroke="#63b8ff" points="433.22,-148 443.82,-148.16 435.64,-141.43 433.22,-148"/>
</a>
</g>
</g>
<!-- Node14 -->
<g id="Node000014" class="node">
<title>Node14</title>
<g id="a_Node000014"><a xlink:href="classsisi4s_1_1FockVector.html#a750e52474cd1de5e4011d458ca592dde" target="_top" xlink:title="Subtract&#45;from assignment operator subtracting each component of a from the respective component of th...">
<polygon fill="white" stroke="#666666" points="357.12,-72.12 254.12,-72.12 254.12,-38.62 357.12,-38.62 357.12,-72.12"/>
<text text-anchor="start" x="262.12" y="-58.62" font-family="Helvetica,sans-Serif" font-size="10.00">sisi4s::FockVector</text>
<text text-anchor="middle" x="305.62" y="-45.88" font-family="Helvetica,sans-Serif" font-size="10.00">::operator&#45;=</text>
</a>
</g>
</g>
<!-- Node1&#45;&gt;Node14 -->
<g id="edge13_Node000001_Node000014" class="edge">
<title>Node1&#45;&gt;Node14</title>
<g id="a_edge13_Node000001_Node000014"><a xlink:title=" ">
<path fill="none" stroke="#63b8ff" d="M468.91,-139.84C452.84,-121.07 428.72,-96.31 402.5,-81.38 388.71,-73.52 372.45,-67.96 357.28,-64.05"/>
<polygon fill="#63b8ff" stroke="#63b8ff" points="466.83,-141.81 475.92,-147.25 472.21,-137.33 466.83,-141.81"/>
</a>
</g>
</g>
<!-- Node15 -->
<g id="Node000015" class="node">
<title>Node15</title>
<g id="a_Node000015"><a xlink:href="namespacesisi4s.html#a824dfb7d6773baaa4dfc79467ad83a59" target="_top" xlink:title="Writes the FockVector a to the given stream and returns it for further stream operations.">
<polygon fill="white" stroke="#666666" points="359.38,-20.75 251.88,-20.75 251.88,0 359.38,0 359.38,-20.75"/>
<text text-anchor="middle" x="305.62" y="-7.25" font-family="Helvetica,sans-Serif" font-size="10.00">sisi4s::operator&lt;&lt;</text>
</a>
</g>
</g>
<!-- Node1&#45;&gt;Node15 -->
<g id="edge14_Node000001_Node000015" class="edge">
<title>Node1&#45;&gt;Node15</title>
<g id="a_edge14_Node000001_Node000015"><a xlink:title=" ">
<path fill="none" stroke="#63b8ff" d="M479.36,-138.22C466.75,-106.83 441.55,-56.09 402.5,-29.38 389.9,-20.75 374.3,-15.84 359.38,-13.1"/>
<polygon fill="#63b8ff" stroke="#63b8ff" points="476.44,-139.37 483.3,-147.44 482.97,-136.85 476.44,-139.37"/>
</a>
</g>
</g>
<!-- Node4 -->
<g id="Node000004" class="node">
<title>Node4</title>
<g id="a_Node000004"><a xlink:href="classsisi4s_1_1CcsdEquationOfMotionDavidson.html#a418beaea4a3a3fe7cf890ba392a7d6ef" target="_top" xlink:title=" ">
<polygon fill="white" stroke="#666666" points="166.75,-390.12 6,-390.12 6,-356.62 166.75,-356.62 166.75,-390.12"/>
<text text-anchor="start" x="14" y="-376.62" font-family="Helvetica,sans-Serif" font-size="10.00">sisi4s::CcsdEquationOfMotion</text>
<text text-anchor="middle" x="86.38" y="-363.88" font-family="Helvetica,sans-Serif" font-size="10.00">Davidson::run</text>
</a>
</g>
</g>
<!-- Node3&#45;&gt;Node4 -->
<g id="edge3_Node000003_Node000004" class="edge">
<title>Node3&#45;&gt;Node4</title>
<g id="a_edge3_Node000003_Node000004"><a xlink:title=" ">
<path fill="none" stroke="#63b8ff" d="M235.47,-274.26C225.93,-277.81 216.7,-282.41 208.75,-288.38 184.18,-306.82 197.03,-328.56 172.75,-347.38 168.46,-350.7 163.75,-353.6 158.82,-356.13"/>
<polygon fill="#63b8ff" stroke="#63b8ff" points="236.49,-277.28 244.88,-270.82 234.29,-270.64 236.49,-277.28"/>
</a>
</g>
</g>
<!-- Node6 -->
<g id="Node000006" class="node">
<title>Node6</title>
<g id="a_Node000006"><a xlink:href="classsisi4s_1_1CcsdPreconditioner.html#a885a0ffef1ab5a039a69e40e8e8b1c09" target="_top" xlink:title="Get initial basis.">
<polygon fill="white" stroke="#666666" points="158.12,-338.12 14.62,-338.12 14.62,-304.62 158.12,-304.62 158.12,-338.12"/>
<text text-anchor="start" x="22.62" y="-324.62" font-family="Helvetica,sans-Serif" font-size="10.00">sisi4s::CcsdPreconditioner</text>
<text text-anchor="middle" x="86.38" y="-311.88" font-family="Helvetica,sans-Serif" font-size="10.00">::getInitialBasis</text>
</a>
</g>
</g>
<!-- Node5&#45;&gt;Node6 -->
<g id="edge5_Node000005_Node000006" class="edge">
<title>Node5&#45;&gt;Node6</title>
<g id="a_edge5_Node000005_Node000006"><a xlink:title=" ">
<path fill="none" stroke="#63b8ff" d="M232.39,-224.85C223.98,-227.66 215.87,-231.4 208.75,-236.38 183.56,-253.95 197.03,-276.56 172.75,-295.38 168.34,-298.79 163.48,-301.76 158.39,-304.34"/>
<polygon fill="#63b8ff" stroke="#63b8ff" points="233.12,-228 241.76,-221.88 231.19,-221.27 233.12,-228"/>
</a>
</g>
</g>
<!-- Node7 -->
<g id="Node000007" class="node">
<title>Node7</title>
<g id="a_Node000007"><a xlink:href="classsisi4s_1_1IPCcsdPreconditioner.html#a2e97db095cdebec9c83d1b60295605ec" target="_top" xlink:title=" ">
<polygon fill="white" stroke="#666666" points="162.62,-286.12 10.12,-286.12 10.12,-252.62 162.62,-252.62 162.62,-286.12"/>
<text text-anchor="start" x="18.12" y="-272.62" font-family="Helvetica,sans-Serif" font-size="10.00">sisi4s::IPCcsdPreconditioner</text>
<text text-anchor="middle" x="86.38" y="-259.88" font-family="Helvetica,sans-Serif" font-size="10.00">::getInitialBasis</text>
</a>
</g>
</g>
<!-- Node5&#45;&gt;Node7 -->
<g id="edge6_Node000005_Node000007" class="edge">
<title>Node5&#45;&gt;Node7</title>
<g id="a_edge6_Node000005_Node000007"><a xlink:title=" ">
<path fill="none" stroke="#63b8ff" d="M235.8,-230.41C226.69,-232.31 217.48,-234.33 208.75,-236.38 188.66,-241.09 166.86,-246.82 147.36,-252.18"/>
<polygon fill="#63b8ff" stroke="#63b8ff" points="236.34,-233.67 245.43,-228.23 234.93,-226.81 236.34,-233.67"/>
</a>
</g>
</g>
<!-- Node8 -->
<g id="Node000008" class="node">
<title>Node8</title>
<g id="a_Node000008"><a xlink:href="classsisi4s_1_1EACcsdPreconditioner.html#a49913544736063c43e265facdc2cc393" target="_top" xlink:title=" ">
<polygon fill="white" stroke="#666666" points="164.5,-234.12 8.25,-234.12 8.25,-200.62 164.5,-200.62 164.5,-234.12"/>
<text text-anchor="start" x="16.25" y="-220.62" font-family="Helvetica,sans-Serif" font-size="10.00">sisi4s::EACcsdPreconditioner</text>
<text text-anchor="middle" x="86.38" y="-207.88" font-family="Helvetica,sans-Serif" font-size="10.00">::getInitialBasis</text>
</a>
</g>
</g>
<!-- Node5&#45;&gt;Node8 -->
<g id="edge7_Node000005_Node000008" class="edge">
<title>Node5&#45;&gt;Node8</title>
<g id="a_edge7_Node000005_Node000008"><a xlink:title=" ">
<path fill="none" stroke="#63b8ff" d="M232.17,-217.38C210.51,-217.38 186.67,-217.38 164.71,-217.38"/>
<polygon fill="#63b8ff" stroke="#63b8ff" points="231.95,-220.88 241.95,-217.38 231.95,-213.88 231.95,-220.88"/>
</a>
</g>
</g>
<!-- Node10 -->
<g id="Node000010" class="node">
<title>Node10</title>
<g id="a_Node000010"><a xlink:href="classsisi4s_1_1ClusterSinglesDoublesAlgorithm.html#a69e386caf7acdf30c11b476d522d7a9d" target="_top" xlink:title=" ">
<polygon fill="white" stroke="#666666" points="166,-182.12 6.75,-182.12 6.75,-148.62 166,-148.62 166,-182.12"/>
<text text-anchor="start" x="14.75" y="-168.62" font-family="Helvetica,sans-Serif" font-size="10.00">sisi4s::ClusterSinglesDoubles</text>
<text text-anchor="middle" x="86.38" y="-155.88" font-family="Helvetica,sans-Serif" font-size="10.00">Algorithm::run</text>
</a>
</g>
</g>
<!-- Node9&#45;&gt;Node10 -->
<g id="edge9_Node000009_Node000010" class="edge">
<title>Node9&#45;&gt;Node10</title>
<g id="a_edge9_Node000009_Node000010"><a xlink:title=" ">
<path fill="none" stroke="#63b8ff" d="M197.46,-165.38C186.96,-165.38 176.43,-165.38 166.28,-165.38"/>
<polygon fill="#63b8ff" stroke="#63b8ff" points="197.39,-168.88 207.39,-165.38 197.39,-161.88 197.39,-168.88"/>
</a>
</g>
</g>
<!-- Node11 -->
<g id="Node000011" class="node">
<title>Node11</title>
<g id="a_Node000011"><a xlink:href="classsisi4s_1_1ClusterSinglesDoublesTriplesAlgorithm.html#aa86fb955293c874f806a98263ab39213" target="_top" xlink:title="Calculates the energy of a ClusterSinglesDoubles algorithm.">
<polygon fill="white" stroke="#666666" points="166,-130.12 6.75,-130.12 6.75,-96.62 166,-96.62 166,-130.12"/>
<text text-anchor="start" x="14.75" y="-116.62" font-family="Helvetica,sans-Serif" font-size="10.00">sisi4s::ClusterSinglesDoubles</text>
<text text-anchor="middle" x="86.38" y="-103.88" font-family="Helvetica,sans-Serif" font-size="10.00">TriplesAlgorithm::run</text>
</a>
</g>
</g>
<!-- Node9&#45;&gt;Node11 -->
<g id="edge10_Node000009_Node000011" class="edge">
<title>Node9&#45;&gt;Node11</title>
<g id="a_edge10_Node000009_Node000011"><a xlink:title=" ">
<path fill="none" stroke="#63b8ff" d="M197.94,-139.84C184.88,-136.71 171.78,-133.58 159.4,-130.61"/>
<polygon fill="#63b8ff" stroke="#63b8ff" points="196.85,-143.42 207.39,-142.34 198.48,-136.61 196.85,-143.42"/>
</a>
</g>
</g>
<!-- Node12 -->
<g id="Node000012" class="node">
<title>Node12</title>
<g id="a_Node000012"><a xlink:href="classsisi4s_1_1ClusterSinglesDoublesTriplesQuadruplesAlgorithm.html#a3dec5575b0b30cead4a4965230969d73" target="_top" xlink:title="Calculates the energy of a ClusterSinglesDoubles algorithm.">
<polygon fill="white" stroke="#666666" points="172.75,-78.12 0,-78.12 0,-44.62 172.75,-44.62 172.75,-78.12"/>
<text text-anchor="start" x="8" y="-64.62" font-family="Helvetica,sans-Serif" font-size="10.00">sisi4s::ClusterSinglesDoubles</text>
<text text-anchor="middle" x="86.38" y="-51.88" font-family="Helvetica,sans-Serif" font-size="10.00">TriplesQuadruplesAlgorithm::run</text>
</a>
</g>
</g>
<!-- Node9&#45;&gt;Node12 -->
<g id="edge11_Node000009_Node000012" class="edge">
<title>Node9&#45;&gt;Node12</title>
<g id="a_edge11_Node000009_Node000012"><a xlink:title=" ">
<path fill="none" stroke="#63b8ff" d="M213.44,-136.51C211.84,-135.5 210.28,-134.45 208.75,-133.38 187.54,-118.41 194.16,-102.06 172.75,-87.38 167.89,-84.04 162.6,-81.13 157.1,-78.58"/>
<polygon fill="#63b8ff" stroke="#63b8ff" points="211.51,-140.01 221.93,-141.94 214.99,-133.93 211.51,-140.01"/>
</a>
</g>
</g>
</g>
</svg>
