<?xml version="1.0" encoding="UTF-8" standalone="no"?>
<!DOCTYPE svg PUBLIC "-//W3C//DTD SVG 1.1//EN"
 "http://www.w3.org/Graphics/SVG/1.1/DTD/svg11.dtd">
<!-- Generated by graphviz version 5.0.1 (0)
 -->
<!-- Title: sisi4s::DryPseudoInverseSvd&lt; F &gt; Pages: 1 -->
<svg width="378pt" height="786pt"
 viewBox="0.00 0.00 378.37 786.00" xmlns="http://www.w3.org/2000/svg" xmlns:xlink="http://www.w3.org/1999/xlink">
<g id="graph0" class="graph" transform="scale(1 1) rotate(0) translate(4 782)">
<title>sisi4s::DryPseudoInverseSvd&lt; F &gt;</title>
<!-- Node1 -->
<g id="node1" class="node">
<title>Node1</title>
<g id="a_node1"><a xlink:title=" ">
<polygon fill="#999999" stroke="#666666" points="300.37,-63 152.37,-63 152.37,0 300.37,0 300.37,-63"/>
<text text-anchor="start" x="160.37" y="-51" font-family="Helvetica,sans-Serif" font-size="10.00">{sisi4s::DryPseudoInverse</text>
<text text-anchor="middle" x="226.37" y="-40" font-family="Helvetica,sans-Serif" font-size="10.00">Svd&lt; F &gt;</text>
<text text-anchor="start" x="160.37" y="-29" font-family="Helvetica,sans-Serif" font-size="10.00">||+ DryPseudoInverseSvd()</text>
<text text-anchor="start" x="160.37" y="-18" font-family="Helvetica,sans-Serif" font-size="10.00">+ get()</text>
<text text-anchor="middle" x="226.37" y="-7" font-family="Helvetica,sans-Serif" font-size="10.00">}</text>
</a>
</g>
</g>
<!-- Node2 -->
<g id="node2" class="node">
<title>Node2</title>
<g id="a_node2"><a xlink:href="classsisi4s_1_1DryMatrix.html" target="_top" xlink:title=" ">
<polygon fill="white" stroke="#666666" points="293.37,-151 159.37,-151 159.37,-110 293.37,-110 293.37,-151"/>
<text text-anchor="middle" x="226.37" y="-139" font-family="Helvetica,sans-Serif" font-size="10.00">{sisi4s::DryMatrix&lt; F &gt;</text>
<text text-anchor="start" x="167.37" y="-128" font-family="Helvetica,sans-Serif" font-size="10.00">||+ DryMatrix()</text>
<text text-anchor="middle" x="226.37" y="-117" font-family="Helvetica,sans-Serif" font-size="10.00">}</text>
</a>
</g>
</g>
<!-- Node2&#45;&gt;Node1 -->
<g id="edge1" class="edge">
<title>Node2&#45;&gt;Node1</title>
<path fill="none" stroke="#404040" d="M226.37,-109.87C226.37,-99.93 226.37,-87.44 226.37,-75.42"/>
<polygon fill="none" stroke="#404040" points="226.37,-75.18 222.37,-69.18 226.37,-63.18 230.37,-69.18 226.37,-75.18"/>
<text text-anchor="middle" x="250.37" y="-84" font-family="Helvetica,sans-Serif" font-size="10.00"> #inverse</text>
</g>
<!-- Node3 -->
<g id="node3" class="node">
<title>Node3</title>
<g id="a_node3"><a xlink:href="classsisi4s_1_1DryTensor.html" target="_top" xlink:title=" ">
<polygon fill="white" stroke="#666666" points="218.37,-382 84.37,-382 84.37,-198 218.37,-198 218.37,-382"/>
<text text-anchor="middle" x="151.37" y="-370" font-family="Helvetica,sans-Serif" font-size="10.00">{sisi4s::DryTensor&lt; F &gt;</text>
<text text-anchor="start" x="92.37" y="-359" font-family="Helvetica,sans-Serif" font-size="10.00">|+ order</text>
<text text-anchor="start" x="92.37" y="-348" font-family="Helvetica,sans-Serif" font-size="10.00">+ lens</text>
<text text-anchor="start" x="92.37" y="-337" font-family="Helvetica,sans-Serif" font-size="10.00">+ syms</text>
<text text-anchor="start" x="92.37" y="-326" font-family="Helvetica,sans-Serif" font-size="10.00">+ name</text>
<text text-anchor="start" x="92.37" y="-315" font-family="Helvetica,sans-Serif" font-size="10.00"># size</text>
<text text-anchor="start" x="92.37" y="-304" font-family="Helvetica,sans-Serif" font-size="10.00">|+ DryTensor()</text>
<text text-anchor="start" x="92.37" y="-293" font-family="Helvetica,sans-Serif" font-size="10.00">+ DryTensor()</text>
<text text-anchor="start" x="92.37" y="-282" font-family="Helvetica,sans-Serif" font-size="10.00">+ ~DryTensor()</text>
<text text-anchor="start" x="92.37" y="-271" font-family="Helvetica,sans-Serif" font-size="10.00">+ use()</text>
<text text-anchor="start" x="92.37" y="-260" font-family="Helvetica,sans-Serif" font-size="10.00">+ getElementsCount()</text>
<text text-anchor="start" x="92.37" y="-249" font-family="Helvetica,sans-Serif" font-size="10.00">+ set_name()</text>
<text text-anchor="start" x="92.37" y="-238" font-family="Helvetica,sans-Serif" font-size="10.00">+ get_name()</text>
<text text-anchor="start" x="92.37" y="-227" font-family="Helvetica,sans-Serif" font-size="10.00"># allocate()</text>
<text text-anchor="start" x="92.37" y="-216" font-family="Helvetica,sans-Serif" font-size="10.00"># free()</text>
<text text-anchor="middle" x="151.37" y="-205" font-family="Helvetica,sans-Serif" font-size="10.00">}</text>
</a>
</g>
</g>
<!-- Node3&#45;&gt;Node2 -->
<g id="edge2" class="edge">
<title>Node3&#45;&gt;Node2</title>
<path fill="none" stroke="#63b8ff" d="M199.27,-188.41C206.01,-174.25 212.27,-161.11 217.06,-151.04"/>
<polygon fill="none" stroke="#63b8ff" points="195.92,-187.3 194.78,-197.84 202.24,-190.31 195.92,-187.3"/>
</g>
<!-- Node4 -->
<g id="node4" class="node">
<title>Node4</title>
<g id="a_node4"><a xlink:href="classsisi4s_1_1SourceLocation.html" target="_top" xlink:title=" ">
<polygon fill="white" stroke="#666666" points="216.87,-778 85.87,-778 85.87,-660 216.87,-660 216.87,-778"/>
<text text-anchor="middle" x="151.37" y="-766" font-family="Helvetica,sans-Serif" font-size="10.00">{sisi4s::SourceLocation</text>
<text text-anchor="start" x="93.87" y="-755" font-family="Helvetica,sans-Serif" font-size="10.00">|# file</text>
<text text-anchor="start" x="93.87" y="-744" font-family="Helvetica,sans-Serif" font-size="10.00"># line</text>
<text text-anchor="start" x="93.87" y="-733" font-family="Helvetica,sans-Serif" font-size="10.00">|+ SourceLocation()</text>
<text text-anchor="start" x="93.87" y="-722" font-family="Helvetica,sans-Serif" font-size="10.00">+ SourceLocation()</text>
<text text-anchor="start" x="93.87" y="-711" font-family="Helvetica,sans-Serif" font-size="10.00">+ SourceLocation()</text>
<text text-anchor="start" x="93.87" y="-700" font-family="Helvetica,sans-Serif" font-size="10.00">+ getLocation()</text>
<text text-anchor="start" x="93.87" y="-689" font-family="Helvetica,sans-Serif" font-size="10.00">+ getFile()</text>
<text text-anchor="start" x="93.87" y="-678" font-family="Helvetica,sans-Serif" font-size="10.00">+ getLine()</text>
<text text-anchor="middle" x="151.37" y="-667" font-family="Helvetica,sans-Serif" font-size="10.00">}</text>
</a>
</g>
</g>
<!-- Node4&#45;&gt;Node3 -->
<g id="edge3" class="edge">
<title>Node4&#45;&gt;Node3</title>
<path fill="none" stroke="#404040" d="M85.63,-680.84C61.73,-663.58 37.4,-640.7 24.37,-613 -10.46,-539.01 -5.35,-505.19 24.37,-429 35.34,-400.87 55.02,-375.02 75.67,-353.48"/>
<polygon fill="none" stroke="#404040" points="75.8,-353.35 77.18,-346.27 84.24,-344.83 82.86,-351.9 75.8,-353.35"/>
<text text-anchor="middle" x="49.87" y="-518.5" font-family="Helvetica,sans-Serif" font-size="10.00"> +location</text>
</g>
<!-- Node5 -->
<g id="node5" class="node">
<title>Node5</title>
<g id="a_node5"><a xlink:href="classsisi4s_1_1DryTensor.html" target="_top" xlink:title=" ">
<polygon fill="white" stroke="#666666" points="218.37,-613 84.37,-613 84.37,-429 218.37,-429 218.37,-613"/>
<text text-anchor="middle" x="151.37" y="-601" font-family="Helvetica,sans-Serif" font-size="10.00">{sisi4s::DryTensor&lt; F &gt;</text>
<text text-anchor="start" x="92.37" y="-590" font-family="Helvetica,sans-Serif" font-size="10.00">|+ order</text>
<text text-anchor="start" x="92.37" y="-579" font-family="Helvetica,sans-Serif" font-size="10.00">+ lens</text>
<text text-anchor="start" x="92.37" y="-568" font-family="Helvetica,sans-Serif" font-size="10.00">+ syms</text>
<text text-anchor="start" x="92.37" y="-557" font-family="Helvetica,sans-Serif" font-size="10.00">+ name</text>
<text text-anchor="start" x="92.37" y="-546" font-family="Helvetica,sans-Serif" font-size="10.00"># size</text>
<text text-anchor="start" x="92.37" y="-535" font-family="Helvetica,sans-Serif" font-size="10.00">|+ DryTensor()</text>
<text text-anchor="start" x="92.37" y="-524" font-family="Helvetica,sans-Serif" font-size="10.00">+ DryTensor()</text>
<text text-anchor="start" x="92.37" y="-513" font-family="Helvetica,sans-Serif" font-size="10.00">+ ~DryTensor()</text>
<text text-anchor="start" x="92.37" y="-502" font-family="Helvetica,sans-Serif" font-size="10.00">+ use()</text>
<text text-anchor="start" x="92.37" y="-491" font-family="Helvetica,sans-Serif" font-size="10.00">+ getElementsCount()</text>
<text text-anchor="start" x="92.37" y="-480" font-family="Helvetica,sans-Serif" font-size="10.00">+ set_name()</text>
<text text-anchor="start" x="92.37" y="-469" font-family="Helvetica,sans-Serif" font-size="10.00">+ get_name()</text>
<text text-anchor="start" x="92.37" y="-458" font-family="Helvetica,sans-Serif" font-size="10.00"># allocate()</text>
<text text-anchor="start" x="92.37" y="-447" font-family="Helvetica,sans-Serif" font-size="10.00"># free()</text>
<text text-anchor="middle" x="151.37" y="-436" font-family="Helvetica,sans-Serif" font-size="10.00">}</text>
</a>
</g>
</g>
<!-- Node4&#45;&gt;Node5 -->
<g id="edge5" class="edge">
<title>Node4&#45;&gt;Node5</title>
<path fill="none" stroke="#404040" d="M151.37,-659.99C151.37,-649.1 151.37,-637.41 151.37,-625.62"/>
<polygon fill="none" stroke="#404040" points="151.37,-625.31 147.37,-619.31 151.37,-613.31 155.37,-619.31 151.37,-625.31"/>
<text text-anchor="middle" x="176.87" y="-634" font-family="Helvetica,sans-Serif" font-size="10.00"> +location</text>
</g>
<!-- Node7 -->
<g id="node7" class="node">
<title>Node7</title>
<g id="a_node7"><a xlink:href="classsisi4s_1_1DryTensor.html" target="_top" xlink:title=" ">
<polygon fill="white" stroke="#666666" points="370.37,-613 236.37,-613 236.37,-429 370.37,-429 370.37,-613"/>
<text text-anchor="middle" x="303.37" y="-601" font-family="Helvetica,sans-Serif" font-size="10.00">{sisi4s::DryTensor&lt; F &gt;</text>
<text text-anchor="start" x="244.37" y="-590" font-family="Helvetica,sans-Serif" font-size="10.00">|+ order</text>
<text text-anchor="start" x="244.37" y="-579" font-family="Helvetica,sans-Serif" font-size="10.00">+ lens</text>
<text text-anchor="start" x="244.37" y="-568" font-family="Helvetica,sans-Serif" font-size="10.00">+ syms</text>
<text text-anchor="start" x="244.37" y="-557" font-family="Helvetica,sans-Serif" font-size="10.00">+ name</text>
<text text-anchor="start" x="244.37" y="-546" font-family="Helvetica,sans-Serif" font-size="10.00"># size</text>
<text text-anchor="start" x="244.37" y="-535" font-family="Helvetica,sans-Serif" font-size="10.00">|+ DryTensor()</text>
<text text-anchor="start" x="244.37" y="-524" font-family="Helvetica,sans-Serif" font-size="10.00">+ DryTensor()</text>
<text text-anchor="start" x="244.37" y="-513" font-family="Helvetica,sans-Serif" font-size="10.00">+ ~DryTensor()</text>
<text text-anchor="start" x="244.37" y="-502" font-family="Helvetica,sans-Serif" font-size="10.00">+ use()</text>
<text text-anchor="start" x="244.37" y="-491" font-family="Helvetica,sans-Serif" font-size="10.00">+ getElementsCount()</text>
<text text-anchor="start" x="244.37" y="-480" font-family="Helvetica,sans-Serif" font-size="10.00">+ set_name()</text>
<text text-anchor="start" x="244.37" y="-469" font-family="Helvetica,sans-Serif" font-size="10.00">+ get_name()</text>
<text text-anchor="start" x="244.37" y="-458" font-family="Helvetica,sans-Serif" font-size="10.00"># allocate()</text>
<text text-anchor="start" x="244.37" y="-447" font-family="Helvetica,sans-Serif" font-size="10.00"># free()</text>
<text text-anchor="middle" x="303.37" y="-436" font-family="Helvetica,sans-Serif" font-size="10.00">}</text>
</a>
</g>
</g>
<!-- Node4&#45;&gt;Node7 -->
<g id="edge8" class="edge">
<title>Node4&#45;&gt;Node7</title>
<path fill="none" stroke="#404040" d="M196.35,-659.99C206.53,-646.87 217.59,-632.6 228.62,-618.38"/>
<polygon fill="none" stroke="#404040" points="228.89,-618.04 229.4,-610.85 236.24,-608.56 235.73,-615.75 228.89,-618.04"/>
<text text-anchor="middle" x="243.87" y="-634" font-family="Helvetica,sans-Serif" font-size="10.00"> +location</text>
</g>
<!-- Node5&#45;&gt;Node3 -->
<g id="edge4" class="edge">
<title>Node5&#45;&gt;Node3</title>
<path fill="none" stroke="orange" d="M151.37,-418.7C151.37,-406.55 151.37,-394.21 151.37,-382.23"/>
<polygon fill="orange" stroke="orange" points="147.87,-418.84 151.37,-428.84 154.87,-418.84 147.87,-418.84"/>
<text text-anchor="middle" x="167.37" y="-403" font-family="Helvetica,sans-Serif" font-size="10.00"> &lt; F &gt;</text>
</g>
<!-- Node6 -->
<g id="node6" class="node">
<title>Node6</title>
<g id="a_node6"><a xlink:href="classsisi4s_1_1DryMatrix.html" target="_top" xlink:title=" ">
<polygon fill="white" stroke="#666666" points="370.37,-310.5 236.37,-310.5 236.37,-269.5 370.37,-269.5 370.37,-310.5"/>
<text text-anchor="middle" x="303.37" y="-298.5" font-family="Helvetica,sans-Serif" font-size="10.00">{sisi4s::DryMatrix&lt; F &gt;</text>
<text text-anchor="start" x="244.37" y="-287.5" font-family="Helvetica,sans-Serif" font-size="10.00">||+ DryMatrix()</text>
<text text-anchor="middle" x="303.37" y="-276.5" font-family="Helvetica,sans-Serif" font-size="10.00">}</text>
</a>
</g>
</g>
<!-- Node6&#45;&gt;Node2 -->
<g id="edge6" class="edge">
<title>Node6&#45;&gt;Node2</title>
<path fill="none" stroke="orange" d="M289.29,-260.21C273.86,-228.65 249.52,-178.86 236.08,-151.38"/>
<polygon fill="orange" stroke="orange" points="286.23,-261.92 293.77,-269.37 292.52,-258.85 286.23,-261.92"/>
<text text-anchor="middle" x="264.37" y="-172" font-family="Helvetica,sans-Serif" font-size="10.00"> &lt; F &gt;</text>
</g>
<!-- Node7&#45;&gt;Node6 -->
<g id="edge7" class="edge">
<title>Node7&#45;&gt;Node6</title>
<path fill="none" stroke="#63b8ff" d="M303.37,-418.79C303.37,-377.94 303.37,-334.8 303.37,-310.55"/>
<polygon fill="none" stroke="#63b8ff" points="299.87,-418.84 303.37,-428.84 306.87,-418.84 299.87,-418.84"/>
</g>
</g>
</svg>
