<?xml version="1.0" encoding="UTF-8" standalone="no"?>
<!DOCTYPE svg PUBLIC "-//W3C//DTD SVG 1.1//EN"
 "http://www.w3.org/Graphics/SVG/1.1/DTD/svg11.dtd">
<!-- Generated by graphviz version 5.0.1 (0)
 -->
<!-- Title: CLI::Formatter::make_subcommand Pages: 1 -->
<svg width="315pt" height="101pt"
 viewBox="0.00 0.00 315.00 101.00" xmlns="http://www.w3.org/2000/svg" xmlns:xlink="http://www.w3.org/1999/xlink">
<g id="graph0" class="graph" transform="scale(1 1) rotate(0) translate(4 97)">
<title>CLI::Formatter::make_subcommand</title>
<!-- Node1 -->
<g id="node1" class="node">
<title>Node1</title>
<g id="a_node1"><a xlink:title="This prints out a subcommand.">
<polygon fill="#999999" stroke="#666666" points="119,-61.5 0,-61.5 0,-31.5 119,-31.5 119,-61.5"/>
<text text-anchor="start" x="8" y="-49.5" font-family="Helvetica,sans-Serif" font-size="10.00">CLI::Formatter::make</text>
<text text-anchor="middle" x="59.5" y="-38.5" font-family="Helvetica,sans-Serif" font-size="10.00">_subcommand</text>
</a>
</g>
</g>
<!-- Node2 -->
<g id="node2" class="node">
<title>Node2</title>
<g id="a_node2"><a xlink:href="namespaceCLI_1_1detail.html#a4b73b36dbab9c829a299be49799fbb40" target="_top" xlink:title="Print a two part &quot;help&quot; string.">
<polygon fill="white" stroke="#666666" points="296.5,-93 165.5,-93 165.5,-74 296.5,-74 296.5,-93"/>
<text text-anchor="middle" x="231" y="-81" font-family="Helvetica,sans-Serif" font-size="10.00">CLI::detail::format_help</text>
</a>
</g>
</g>
<!-- Node1&#45;&gt;Node2 -->
<g id="edge1" class="edge">
<title>Node1&#45;&gt;Node2</title>
<path fill="none" stroke="#63b8ff" d="M119.31,-59.34C137.86,-63.39 158.25,-67.84 176.42,-71.81"/>
<polygon fill="#63b8ff" stroke="#63b8ff" points="175.75,-75.24 186.27,-73.95 177.24,-68.4 175.75,-75.24"/>
</g>
<!-- Node3 -->
<g id="node3" class="node">
<title>Node3</title>
<g id="a_node3"><a xlink:href="classCLI_1_1App.html#ab7637441b1cd7fb2fcf5e7e095e779a7" target="_top" xlink:title="Get the app or subcommand description.">
<polygon fill="white" stroke="#666666" points="299.5,-56 162.5,-56 162.5,-37 299.5,-37 299.5,-56"/>
<text text-anchor="middle" x="231" y="-44" font-family="Helvetica,sans-Serif" font-size="10.00">CLI::App::get_description</text>
</a>
</g>
</g>
<!-- Node1&#45;&gt;Node3 -->
<g id="edge2" class="edge">
<title>Node1&#45;&gt;Node3</title>
<path fill="none" stroke="#63b8ff" d="M119.31,-46.5C129.92,-46.5 141.14,-46.5 152.2,-46.5"/>
<polygon fill="#63b8ff" stroke="#63b8ff" points="152.28,-50 162.28,-46.5 152.28,-43 152.28,-50"/>
</g>
<!-- Node4 -->
<g id="node4" class="node">
<title>Node4</title>
<g id="a_node4"><a xlink:href="classCLI_1_1App.html#aa75309f557d6cdba74b299e4f9e7cfbe" target="_top" xlink:title="Get a display name for an app.">
<polygon fill="white" stroke="#666666" points="307,-19 155,-19 155,0 307,0 307,-19"/>
<text text-anchor="middle" x="231" y="-7" font-family="Helvetica,sans-Serif" font-size="10.00">CLI::App::get_display_name</text>
</a>
</g>
</g>
<!-- Node1&#45;&gt;Node4 -->
<g id="edge3" class="edge">
<title>Node1&#45;&gt;Node4</title>
<path fill="none" stroke="#63b8ff" d="M119.31,-33.66C137.86,-29.61 158.25,-25.16 176.42,-21.19"/>
<polygon fill="#63b8ff" stroke="#63b8ff" points="177.24,-24.6 186.27,-19.05 175.75,-17.76 177.24,-24.6"/>
</g>
</g>
</svg>
