<?xml version="1.0" encoding="UTF-8" standalone="no"?>
<!DOCTYPE svg PUBLIC "-//W3C//DTD SVG 1.1//EN"
 "http://www.w3.org/Graphics/SVG/1.1/DTD/svg11.dtd">
<!-- Generated by graphviz version 7.1.0 (0)
 -->
<!-- Title: sisi4s::ComplexTensorContraction Pages: 1 -->
<svg width="546pt" height="602pt"
 viewBox="0.00 0.00 546.00 602.00" xmlns="http://www.w3.org/2000/svg" xmlns:xlink="http://www.w3.org/1999/xlink">
<g id="graph0" class="graph" transform="scale(1 1) rotate(0) translate(4 598)">
<title>sisi4s::ComplexTensorContraction</title>
<!-- Node1 -->
<g id="node1" class="node">
<title>Node1</title>
<g id="a_node1"><a xlink:title=" ">
<polygon fill="#999999" stroke="#666666" points="15,-0.5 15,-101.5 197,-101.5 197,-0.5 15,-0.5"/>
<text text-anchor="middle" x="106" y="-89.5" font-family="Helvetica,sans-Serif" font-size="10.00">sisi4s::ComplexTensorContraction</text>
<polyline fill="none" stroke="#666666" points="15,-82.5 197,-82.5"/>
<text text-anchor="middle" x="106" y="-70.5" font-family="Helvetica,sans-Serif" font-size="10.00"> </text>
<polyline fill="none" stroke="#666666" points="15,-63.5 197,-63.5"/>
<text text-anchor="start" x="23" y="-51.5" font-family="Helvetica,sans-Serif" font-size="10.00">+ getName()</text>
<text text-anchor="start" x="23" y="-40.5" font-family="Helvetica,sans-Serif" font-size="10.00">+ ComplexTensorContraction()</text>
<text text-anchor="start" x="23" y="-29.5" font-family="Helvetica,sans-Serif" font-size="10.00">+ ~ComplexTensorContraction()</text>
<text text-anchor="start" x="23" y="-18.5" font-family="Helvetica,sans-Serif" font-size="10.00">+ run()</text>
<text text-anchor="start" x="23" y="-7.5" font-family="Helvetica,sans-Serif" font-size="10.00">+ create()</text>
</a>
</g>
</g>
<!-- Node2 -->
<g id="node2" class="node">
<title>Node2</title>
<g id="a_node2"><a xlink:href="classsisi4s_1_1Algorithm.html" target="_top" xlink:title=" ">
<polygon fill="white" stroke="#666666" points="0,-149.5 0,-360.5 180,-360.5 180,-149.5 0,-149.5"/>
<text text-anchor="middle" x="90" y="-348.5" font-family="Helvetica,sans-Serif" font-size="10.00">sisi4s::Algorithm</text>
<polyline fill="none" stroke="#666666" points="0,-341.5 180,-341.5"/>
<text text-anchor="start" x="8" y="-329.5" font-family="Helvetica,sans-Serif" font-size="10.00"># arguments</text>
<polyline fill="none" stroke="#666666" points="0,-322.5 180,-322.5"/>
<text text-anchor="start" x="8" y="-310.5" font-family="Helvetica,sans-Serif" font-size="10.00">+ Algorithm()</text>
<text text-anchor="start" x="8" y="-299.5" font-family="Helvetica,sans-Serif" font-size="10.00">+ ~Algorithm()</text>
<text text-anchor="start" x="8" y="-288.5" font-family="Helvetica,sans-Serif" font-size="10.00">+ getName()</text>
<text text-anchor="start" x="8" y="-277.5" font-family="Helvetica,sans-Serif" font-size="10.00">+ run()</text>
<text text-anchor="start" x="8" y="-266.5" font-family="Helvetica,sans-Serif" font-size="10.00">+ dryRun()</text>
<text text-anchor="start" x="8" y="-255.5" font-family="Helvetica,sans-Serif" font-size="10.00">+ isArgumentGiven()</text>
<text text-anchor="start" x="8" y="-244.5" font-family="Helvetica,sans-Serif" font-size="10.00">+ getTextArgument()</text>
<text text-anchor="start" x="8" y="-233.5" font-family="Helvetica,sans-Serif" font-size="10.00">+ getTextArgument()</text>
<text text-anchor="start" x="8" y="-222.5" font-family="Helvetica,sans-Serif" font-size="10.00">+ getBooleanArgument()</text>
<text text-anchor="start" x="8" y="-211.5" font-family="Helvetica,sans-Serif" font-size="10.00">+ getBooleanArgument()</text>
<text text-anchor="start" x="8" y="-200.5" font-family="Helvetica,sans-Serif" font-size="10.00">and 12 more...</text>
<text text-anchor="start" x="8" y="-189.5" font-family="Helvetica,sans-Serif" font-size="10.00"># getRealArgumentFromInteger()</text>
<text text-anchor="start" x="8" y="-178.5" font-family="Helvetica,sans-Serif" font-size="10.00"># getRealArgumentFromTensor()</text>
<text text-anchor="start" x="8" y="-167.5" font-family="Helvetica,sans-Serif" font-size="10.00"># getTensorArgumentFromReal()</text>
<text text-anchor="start" x="8" y="-156.5" font-family="Helvetica,sans-Serif" font-size="10.00"># getArgumentData()</text>
</a>
</g>
</g>
<!-- Node2&#45;&gt;Node1 -->
<g id="edge1" class="edge">
<title>Node2&#45;&gt;Node1</title>
<path fill="none" stroke="#63b8ff" d="M99.16,-138.31C100.19,-125.37 101.19,-112.76 102.09,-101.35"/>
<polygon fill="none" stroke="#63b8ff" points="95.68,-137.99 98.38,-148.24 102.66,-138.54 95.68,-137.99"/>
</g>
<!-- Node3 -->
<g id="node3" class="node">
<title>Node3</title>
<g id="a_node3"><a xlink:href="classsisi4s_1_1AlgorithmRegistrar.html" target="_top" xlink:title=" ">
<polygon fill="white" stroke="#666666" points="198,-221 198,-289 402,-289 402,-221 198,-221"/>
<text text-anchor="start" x="206" y="-277" font-family="Helvetica,sans-Serif" font-size="10.00">sisi4s::AlgorithmRegistrar</text>
<text text-anchor="middle" x="300" y="-266" font-family="Helvetica,sans-Serif" font-size="10.00">&lt; sisi4s::ComplexTensorContraction &gt;</text>
<polyline fill="none" stroke="#666666" points="198,-259 402,-259"/>
<text text-anchor="middle" x="300" y="-247" font-family="Helvetica,sans-Serif" font-size="10.00"> </text>
<polyline fill="none" stroke="#666666" points="198,-240 402,-240"/>
<text text-anchor="start" x="206" y="-228" font-family="Helvetica,sans-Serif" font-size="10.00">+ AlgorithmRegistrar()</text>
</a>
</g>
</g>
<!-- Node3&#45;&gt;Node1 -->
<g id="edge2" class="edge">
<title>Node3&#45;&gt;Node1</title>
<path fill="none" stroke="#404040" d="M268.4,-221.1C239.72,-191.23 196.76,-146.5 162.23,-110.55"/>
<polygon fill="none" stroke="#404040" points="162.12,-110.44 155.08,-108.88 153.81,-101.78 160.85,-103.34 162.12,-110.44"/>
<text text-anchor="middle" x="209" y="-123" font-family="Helvetica,sans-Serif" font-size="10.00"> +registrar_</text>
</g>
<!-- Node4 -->
<g id="node4" class="node">
<title>Node4</title>
<g id="a_node4"><a xlink:href="classsisi4s_1_1AlgorithmFactory.html" target="_top" xlink:title=" ">
<polygon fill="white" stroke="#666666" points="212,-514.5 212,-593.5 346,-593.5 346,-514.5 212,-514.5"/>
<text text-anchor="middle" x="279" y="-581.5" font-family="Helvetica,sans-Serif" font-size="10.00">sisi4s::AlgorithmFactory</text>
<polyline fill="none" stroke="#666666" points="212,-574.5 346,-574.5"/>
<text text-anchor="start" x="220" y="-562.5" font-family="Helvetica,sans-Serif" font-size="10.00"># algorithmMap</text>
<polyline fill="none" stroke="#666666" points="212,-555.5 346,-555.5"/>
<text text-anchor="start" x="220" y="-543.5" font-family="Helvetica,sans-Serif" font-size="10.00">+ create()</text>
<text text-anchor="start" x="220" y="-532.5" font-family="Helvetica,sans-Serif" font-size="10.00">+ getAlgorithmNames()</text>
<text text-anchor="start" x="220" y="-521.5" font-family="Helvetica,sans-Serif" font-size="10.00"># getAlgorithmMap()</text>
</a>
</g>
</g>
<!-- Node4&#45;&gt;Node3 -->
<g id="edge3" class="edge">
<title>Node4&#45;&gt;Node3</title>
<path fill="none" stroke="darkgreen" d="M280.88,-503.02C282.06,-475.05 283.79,-439.57 286,-408 288.88,-366.89 293.43,-319.64 296.55,-288.88"/>
<polygon fill="none" stroke="darkgreen" points="277.38,-502.86 280.46,-512.99 284.37,-503.15 277.38,-502.86"/>
</g>
<!-- Node5 -->
<g id="node5" class="node">
<title>Node5</title>
<g id="a_node5"><a xlink:href="classsisi4s_1_1AlgorithmRegistrar.html" target="_top" xlink:title="Class to be statically instantiated by an algorithm to register it in the AlgorithmFactory....">
<polygon fill="white" stroke="#666666" points="295.5,-408.5 295.5,-476.5 438.5,-476.5 438.5,-408.5 295.5,-408.5"/>
<text text-anchor="start" x="303.5" y="-464.5" font-family="Helvetica,sans-Serif" font-size="10.00">sisi4s::AlgorithmRegistrar</text>
<text text-anchor="middle" x="367" y="-453.5" font-family="Helvetica,sans-Serif" font-size="10.00">&lt; AlgorithmType &gt;</text>
<polyline fill="none" stroke="#666666" points="295.5,-446.5 438.5,-446.5"/>
<text text-anchor="middle" x="367" y="-434.5" font-family="Helvetica,sans-Serif" font-size="10.00"> </text>
<polyline fill="none" stroke="#666666" points="295.5,-427.5 438.5,-427.5"/>
<text text-anchor="start" x="303.5" y="-415.5" font-family="Helvetica,sans-Serif" font-size="10.00">+ AlgorithmRegistrar()</text>
</a>
</g>
</g>
<!-- Node4&#45;&gt;Node5 -->
<g id="edge5" class="edge">
<title>Node4&#45;&gt;Node5</title>
<path fill="none" stroke="darkgreen" d="M316.95,-505.77C324.88,-495.91 333.08,-485.71 340.48,-476.5"/>
<polygon fill="none" stroke="darkgreen" points="314.26,-503.54 310.73,-513.52 319.72,-507.92 314.26,-503.54"/>
</g>
<!-- Node5&#45;&gt;Node3 -->
<g id="edge4" class="edge">
<title>Node5&#45;&gt;Node3</title>
<path fill="none" stroke="orange" d="M351.42,-398.36C339.33,-364.9 322.83,-319.22 311.82,-288.72"/>
<polygon fill="orange" stroke="orange" points="347.97,-399.12 354.66,-407.34 354.56,-396.75 347.97,-399.12"/>
<text text-anchor="middle" x="442.5" y="-382" font-family="Helvetica,sans-Serif" font-size="10.00"> &lt; sisi4s::ComplexTensorContraction &gt;</text>
</g>
</g>
</svg>
