<?xml version="1.0" encoding="UTF-8" standalone="no"?>
<!DOCTYPE svg PUBLIC "-//W3C//DTD SVG 1.1//EN"
 "http://www.w3.org/Graphics/SVG/1.1/DTD/svg11.dtd">
<!-- Generated by graphviz version 5.0.1 (0)
 -->
<!-- Title: sisi4s::CcsdtEquationOfMotionDavidson::run Pages: 1 -->
<svg width="638pt" height="76pt"
 viewBox="0.00 0.00 638.00 75.50" xmlns="http://www.w3.org/2000/svg" xmlns:xlink="http://www.w3.org/1999/xlink">
<g id="graph0" class="graph" transform="scale(1 1) rotate(0) translate(4 71.5)">
<title>sisi4s::CcsdtEquationOfMotionDavidson::run</title>
<!-- Node1 -->
<g id="node1" class="node">
<title>Node1</title>
<g id="a_node1"><a xlink:title=" ">
<polygon fill="#999999" stroke="#666666" points="165,-45.5 0,-45.5 0,-15.5 165,-15.5 165,-45.5"/>
<text text-anchor="start" x="8" y="-33.5" font-family="Helvetica,sans-Serif" font-size="10.00">sisi4s::CcsdtEquationOfMotion</text>
<text text-anchor="middle" x="82.5" y="-22.5" font-family="Helvetica,sans-Serif" font-size="10.00">Davidson::run</text>
</a>
</g>
</g>
<!-- Node2 -->
<g id="node2" class="node">
<title>Node2</title>
<g id="a_node2"><a xlink:href="classsisi4s_1_1Algorithm.html#a5db14be3b0d33bf80218a37223e27667" target="_top" xlink:title=" ">
<polygon fill="white" stroke="#666666" points="316,-45.5 201,-45.5 201,-15.5 316,-15.5 316,-45.5"/>
<text text-anchor="start" x="209" y="-33.5" font-family="Helvetica,sans-Serif" font-size="10.00">sisi4s::Algorithm::</text>
<text text-anchor="middle" x="258.5" y="-22.5" font-family="Helvetica,sans-Serif" font-size="10.00">getIntegerArgument</text>
</a>
</g>
</g>
<!-- Node1&#45;&gt;Node2 -->
<g id="edge1" class="edge">
<title>Node1&#45;&gt;Node2</title>
<path fill="none" stroke="#63b8ff" d="M165.15,-30.5C173.69,-30.5 182.29,-30.5 190.64,-30.5"/>
<polygon fill="#63b8ff" stroke="#63b8ff" points="190.67,-34 200.67,-30.5 190.67,-27 190.67,-34"/>
</g>
<!-- Node3 -->
<g id="node3" class="node">
<title>Node3</title>
<g id="a_node3"><a xlink:href="classsisi4s_1_1Algorithm.html#a1e53277220d32a33e20846267c253652" target="_top" xlink:title=" ">
<polygon fill="white" stroke="#666666" points="477.5,-67.5 373.5,-67.5 373.5,-37.5 477.5,-37.5 477.5,-67.5"/>
<text text-anchor="start" x="381.5" y="-55.5" font-family="Helvetica,sans-Serif" font-size="10.00">sisi4s::Algorithm::</text>
<text text-anchor="middle" x="425.5" y="-44.5" font-family="Helvetica,sans-Serif" font-size="10.00">getArgumentData</text>
</a>
</g>
</g>
<!-- Node2&#45;&gt;Node3 -->
<g id="edge2" class="edge">
<title>Node2&#45;&gt;Node3</title>
<path fill="none" stroke="#63b8ff" d="M316.28,-38.07C331.5,-40.1 348.02,-42.3 363.45,-44.36"/>
<polygon fill="#63b8ff" stroke="#63b8ff" points="363.04,-47.84 373.42,-45.69 363.97,-40.9 363.04,-47.84"/>
</g>
<!-- Node5 -->
<g id="node5" class="node">
<title>Node5</title>
<g id="a_node5"><a xlink:href="classsisi4s_1_1Data.html#a0ec0b1c7f2356fd43d82ee1dd0246789" target="_top" xlink:title=" ">
<polygon fill="white" stroke="#666666" points="499,-19 352,-19 352,0 499,0 499,-19"/>
<text text-anchor="middle" x="425.5" y="-7" font-family="Helvetica,sans-Serif" font-size="10.00">sisi4s::Data::getTypeName</text>
</a>
</g>
</g>
<!-- Node2&#45;&gt;Node5 -->
<g id="edge4" class="edge">
<title>Node2&#45;&gt;Node5</title>
<path fill="none" stroke="#63b8ff" d="M316.28,-23.27C324.52,-22.22 333.15,-21.13 341.77,-20.03"/>
<polygon fill="#63b8ff" stroke="#63b8ff" points="342.4,-23.48 351.88,-18.74 341.51,-16.53 342.4,-23.48"/>
</g>
<!-- Node4 -->
<g id="node4" class="node">
<title>Node4</title>
<g id="a_node4"><a xlink:href="classsisi4s_1_1Data.html#a5b4676e48b4f437d399587e6903f896a" target="_top" xlink:title=" ">
<polygon fill="white" stroke="#666666" points="630,-62 535,-62 535,-43 630,-43 630,-62"/>
<text text-anchor="middle" x="582.5" y="-50" font-family="Helvetica,sans-Serif" font-size="10.00">sisi4s::Data::get</text>
</a>
</g>
</g>
<!-- Node3&#45;&gt;Node4 -->
<g id="edge3" class="edge">
<title>Node3&#45;&gt;Node4</title>
<path fill="none" stroke="#63b8ff" d="M477.68,-52.5C492.66,-52.5 509.12,-52.5 524.43,-52.5"/>
<polygon fill="#63b8ff" stroke="#63b8ff" points="524.82,-56 534.82,-52.5 524.82,-49 524.82,-56"/>
</g>
</g>
</svg>
