<?xml version="1.0" encoding="UTF-8" standalone="no"?>
<!DOCTYPE svg PUBLIC "-//W3C//DTD SVG 1.1//EN"
 "http://www.w3.org/Graphics/SVG/1.1/DTD/svg11.dtd">
<!-- Generated by graphviz version 5.0.1 (0)
 -->
<!-- Title: sisi4s::ParticleHoleCoulombVertexDecomposition::realizePi Pages: 1 -->
<svg width="554pt" height="61pt"
 viewBox="0.00 0.00 554.00 61.00" xmlns="http://www.w3.org/2000/svg" xmlns:xlink="http://www.w3.org/1999/xlink">
<g id="graph0" class="graph" transform="scale(1 1) rotate(0) translate(4 57)">
<title>sisi4s::ParticleHoleCoulombVertexDecomposition::realizePi</title>
<!-- Node1 -->
<g id="node1" class="node">
<title>Node1</title>
<g id="a_node1"><a xlink:title="Discards the imaginary part of the given factor orbitals.">
<polygon fill="#bfbfbf" stroke="black" points="376,-0.5 376,-30.5 546,-30.5 546,-0.5 376,-0.5"/>
<text text-anchor="start" x="384" y="-18.5" font-family="Helvetica,sans-Serif" font-size="10.00">sisi4s::ParticleHoleCoulomb</text>
<text text-anchor="middle" x="461" y="-7.5" font-family="Helvetica,sans-Serif" font-size="10.00">VertexDecomposition::realizePi</text>
</a>
</g>
</g>
<!-- Node2 -->
<g id="node2" class="node">
<title>Node2</title>
<g id="a_node2"><a xlink:href="classsisi4s_1_1ParticleHoleCoulombVertexDecomposition.html#a89e580fcc9544ae668ccda0d37256f35" target="_top" xlink:title="Performs one iteration in fitting the factor orbitals and the Coulomb factors according to the given ...">
<polygon fill="none" stroke="black" points="188,-22.5 188,-52.5 340,-52.5 340,-22.5 188,-22.5"/>
<text text-anchor="start" x="196" y="-40.5" font-family="Helvetica,sans-Serif" font-size="10.00">sisi4s::ParticleHoleCoulomb</text>
<text text-anchor="middle" x="264" y="-29.5" font-family="Helvetica,sans-Serif" font-size="10.00">VertexDecomposition::fit</text>
</a>
</g>
</g>
<!-- Node1&#45;&gt;Node2 -->
<g id="edge1" class="edge">
<title>Node1&#45;&gt;Node2</title>
<path fill="none" stroke="midnightblue" d="M365.84,-26.12C357.25,-27.09 348.63,-28.07 340.24,-29.01"/>
<polygon fill="midnightblue" stroke="midnightblue" points="366.34,-29.59 375.89,-24.99 365.56,-22.63 366.34,-29.59"/>
</g>
<!-- Node3 -->
<g id="node3" class="node">
<title>Node3</title>
<g id="a_node3"><a xlink:href="classsisi4s_1_1ParticleHoleCoulombVertexDecomposition.html#a14cd82062611a0e443aff732ae0db121" target="_top" xlink:title=" ">
<polygon fill="none" stroke="black" points="0,-0.5 0,-30.5 152,-30.5 152,-0.5 0,-0.5"/>
<text text-anchor="start" x="8" y="-18.5" font-family="Helvetica,sans-Serif" font-size="10.00">sisi4s::ParticleHoleCoulomb</text>
<text text-anchor="middle" x="76" y="-7.5" font-family="Helvetica,sans-Serif" font-size="10.00">VertexDecomposition::run</text>
</a>
</g>
</g>
<!-- Node1&#45;&gt;Node3 -->
<g id="edge3" class="edge">
<title>Node1&#45;&gt;Node3</title>
<path fill="none" stroke="midnightblue" d="M365.6,-13.78C356.95,-13.67 348.31,-13.57 340,-13.5 272.45,-12.94 255.55,-12.89 188,-13.5 176.44,-13.6 164.2,-13.77 152.23,-13.96"/>
<polygon fill="midnightblue" stroke="midnightblue" points="365.71,-17.28 375.75,-13.92 365.8,-10.28 365.71,-17.28"/>
</g>
<!-- Node2&#45;&gt;Node3 -->
<g id="edge2" class="edge">
<title>Node2&#45;&gt;Node3</title>
<path fill="none" stroke="midnightblue" d="M177.85,-27.43C169.26,-26.41 160.57,-25.39 152.1,-24.38"/>
<polygon fill="midnightblue" stroke="midnightblue" points="177.54,-30.92 187.88,-28.62 178.36,-23.96 177.54,-30.92"/>
</g>
</g>
</svg>
