<?xml version="1.0" encoding="UTF-8" standalone="no"?>
<!DOCTYPE svg PUBLIC "-//W3C//DTD SVG 1.1//EN"
 "http://www.w3.org/Graphics/SVG/1.1/DTD/svg11.dtd">
<!-- Generated by graphviz version 7.0.0 (0)
 -->
<!-- Title: ghc::filesystem::path::parent_path Pages: 1 -->
<svg width="306pt" height="172pt"
 viewBox="0.00 0.00 306.00 172.00" xmlns="http://www.w3.org/2000/svg" xmlns:xlink="http://www.w3.org/1999/xlink">
<g id="graph0" class="graph" transform="scale(1 1) rotate(0) translate(4 168)">
<title>ghc::filesystem::path::parent_path</title>
<!-- Node1 -->
<g id="node1" class="node">
<title>Node1</title>
<g id="a_node1"><a xlink:title=" ">
<polygon fill="#999999" stroke="#666666" points="119,-94 0,-94 0,-64 119,-64 119,-94"/>
<text text-anchor="start" x="8" y="-82" font-family="Helvetica,sans-Serif" font-size="10.00">ghc::filesystem::path</text>
<text text-anchor="middle" x="59.5" y="-71" font-family="Helvetica,sans-Serif" font-size="10.00">::parent_path</text>
</a>
</g>
</g>
<!-- Node2 -->
<g id="node2" class="node">
<title>Node2</title>
<g id="a_node2"><a xlink:href="classghc_1_1filesystem_1_1path.html#aa69fa98adb4093bf9ff74cca6972d5fb" target="_top" xlink:title=" ">
<polygon fill="white" stroke="#666666" points="286,-164 167,-164 167,-134 286,-134 286,-164"/>
<text text-anchor="start" x="175" y="-152" font-family="Helvetica,sans-Serif" font-size="10.00">ghc::filesystem::path</text>
<text text-anchor="middle" x="226.5" y="-141" font-family="Helvetica,sans-Serif" font-size="10.00">::path</text>
</a>
</g>
</g>
<!-- Node1&#45;&gt;Node2 -->
<g id="edge1" class="edge">
<title>Node1&#45;&gt;Node2</title>
<path fill="none" stroke="#63b8ff" d="M89.86,-94.47C108.3,-103.89 132.73,-115.83 155,-125 158.81,-126.57 162.77,-128.12 166.77,-129.63"/>
<polygon fill="#63b8ff" stroke="#63b8ff" points="165.4,-132.86 176,-133.01 167.81,-126.28 165.4,-132.86"/>
</g>
<!-- Node3 -->
<g id="node3" class="node">
<title>Node3</title>
<g id="a_node3"><a xlink:href="classghc_1_1filesystem_1_1path.html#a66ead77fddc75c0e9ebfbf3f1fe555aa" target="_top" xlink:title=" ">
<polygon fill="white" stroke="#666666" points="286,-116 167,-116 167,-86 286,-86 286,-116"/>
<text text-anchor="start" x="175" y="-104" font-family="Helvetica,sans-Serif" font-size="10.00">ghc::filesystem::path</text>
<text text-anchor="middle" x="226.5" y="-93" font-family="Helvetica,sans-Serif" font-size="10.00">::empty</text>
</a>
</g>
</g>
<!-- Node1&#45;&gt;Node3 -->
<g id="edge2" class="edge">
<title>Node1&#45;&gt;Node3</title>
<path fill="none" stroke="#63b8ff" d="M119.14,-86.82C130.98,-88.4 143.54,-90.07 155.72,-91.7"/>
<polygon fill="#63b8ff" stroke="#63b8ff" points="154.9,-95.12 165.27,-92.97 155.82,-88.18 154.9,-95.12"/>
</g>
<!-- Node4 -->
<g id="node4" class="node">
<title>Node4</title>
<g id="a_node4"><a xlink:href="classghc_1_1filesystem_1_1path.html#af62a148e592fc444fea5f195896a6a2e" target="_top" xlink:title=" ">
<polygon fill="white" stroke="#666666" points="298,-67.5 155,-67.5 155,-48.5 298,-48.5 298,-67.5"/>
<text text-anchor="middle" x="226.5" y="-55.5" font-family="Helvetica,sans-Serif" font-size="10.00">ghc::filesystem::path::end</text>
</a>
</g>
</g>
<!-- Node1&#45;&gt;Node4 -->
<g id="edge3" class="edge">
<title>Node1&#45;&gt;Node4</title>
<path fill="none" stroke="#63b8ff" d="M119.14,-71.54C127.03,-70.53 135.25,-69.49 143.46,-68.44"/>
<polygon fill="#63b8ff" stroke="#63b8ff" points="143.64,-71.95 153.12,-67.21 142.76,-65 143.64,-71.95"/>
</g>
<!-- Node5 -->
<g id="node5" class="node">
<title>Node5</title>
<g id="a_node5"><a xlink:href="classghc_1_1filesystem_1_1path.html#a89dc8832ede96a8987e1beeb97f5c49d" target="_top" xlink:title=" ">
<polygon fill="white" stroke="#666666" points="286,-30 167,-30 167,0 286,0 286,-30"/>
<text text-anchor="start" x="175" y="-18" font-family="Helvetica,sans-Serif" font-size="10.00">ghc::filesystem::path</text>
<text text-anchor="middle" x="226.5" y="-7" font-family="Helvetica,sans-Serif" font-size="10.00">::has_root_directory</text>
</a>
</g>
</g>
<!-- Node1&#45;&gt;Node5 -->
<g id="edge4" class="edge">
<title>Node1&#45;&gt;Node5</title>
<path fill="none" stroke="#63b8ff" d="M96.68,-63.57C114.21,-56.22 135.61,-47.43 155,-40 159.97,-38.1 165.15,-36.16 170.35,-34.25"/>
<polygon fill="#63b8ff" stroke="#63b8ff" points="171.36,-37.61 179.57,-30.91 168.98,-31.03 171.36,-37.61"/>
</g>
</g>
</svg>
