<?xml version="1.0" encoding="UTF-8" standalone="no"?>
<!DOCTYPE svg PUBLIC "-//W3C//DTD SVG 1.1//EN"
 "http://www.w3.org/Graphics/SVG/1.1/DTD/svg11.dtd">
<!-- Generated by graphviz version 7.1.0 (0)
 -->
<!-- Title: CLI::OptionNotFound Pages: 1 -->
<svg width="124pt" height="331pt"
 viewBox="0.00 0.00 124.00 331.00" xmlns="http://www.w3.org/2000/svg" xmlns:xlink="http://www.w3.org/1999/xlink">
<g id="graph0" class="graph" transform="scale(1 1) rotate(0) translate(4 327)">
<title>CLI::OptionNotFound</title>
<!-- Node1 -->
<g id="node1" class="node">
<title>Node1</title>
<g id="a_node1"><a xlink:title="Thrown when counting a non&#45;existent option.">
<polygon fill="#999999" stroke="#666666" points="0,-0.5 0,-101.5 116,-101.5 116,-0.5 0,-0.5"/>
<text text-anchor="middle" x="58" y="-89.5" font-family="Helvetica,sans-Serif" font-size="10.00">CLI::OptionNotFound</text>
<polyline fill="none" stroke="#666666" points="0,-82.5 116,-82.5"/>
<text text-anchor="middle" x="58" y="-70.5" font-family="Helvetica,sans-Serif" font-size="10.00"> </text>
<polyline fill="none" stroke="#666666" points="0,-63.5 116,-63.5"/>
<text text-anchor="start" x="8" y="-51.5" font-family="Helvetica,sans-Serif" font-size="10.00">+ OptionNotFound()</text>
<text text-anchor="start" x="8" y="-40.5" font-family="Helvetica,sans-Serif" font-size="10.00">+ OptionNotFound()</text>
<text text-anchor="start" x="8" y="-29.5" font-family="Helvetica,sans-Serif" font-size="10.00">+ OptionNotFound()</text>
<text text-anchor="start" x="8" y="-18.5" font-family="Helvetica,sans-Serif" font-size="10.00"># OptionNotFound()</text>
<text text-anchor="start" x="8" y="-7.5" font-family="Helvetica,sans-Serif" font-size="10.00"># OptionNotFound()</text>
</a>
</g>
</g>
<!-- Node2 -->
<g id="node2" class="node">
<title>Node2</title>
<g id="a_node2"><a xlink:href="classCLI_1_1Error.html" target="_top" xlink:title="All errors derive from this one.">
<polygon fill="white" stroke="#666666" points="6,-138.5 6,-228.5 110,-228.5 110,-138.5 6,-138.5"/>
<text text-anchor="middle" x="58" y="-216.5" font-family="Helvetica,sans-Serif" font-size="10.00">CLI::Error</text>
<polyline fill="none" stroke="#666666" points="6,-209.5 110,-209.5"/>
<text text-anchor="middle" x="58" y="-197.5" font-family="Helvetica,sans-Serif" font-size="10.00"> </text>
<polyline fill="none" stroke="#666666" points="6,-190.5 110,-190.5"/>
<text text-anchor="start" x="14" y="-178.5" font-family="Helvetica,sans-Serif" font-size="10.00">+ get_exit_code()</text>
<text text-anchor="start" x="14" y="-167.5" font-family="Helvetica,sans-Serif" font-size="10.00">+ get_name()</text>
<text text-anchor="start" x="14" y="-156.5" font-family="Helvetica,sans-Serif" font-size="10.00">+ Error()</text>
<text text-anchor="start" x="14" y="-145.5" font-family="Helvetica,sans-Serif" font-size="10.00">+ Error()</text>
</a>
</g>
</g>
<!-- Node2&#45;&gt;Node1 -->
<g id="edge1" class="edge">
<title>Node2&#45;&gt;Node1</title>
<path fill="none" stroke="#63b8ff" d="M58,-127.18C58,-118.59 58,-109.77 58,-101.32"/>
<polygon fill="none" stroke="#63b8ff" points="54.5,-127.17 58,-137.17 61.5,-127.17 54.5,-127.17"/>
</g>
<!-- Node3 -->
<g id="node3" class="node">
<title>Node3</title>
<g id="a_node3"><a xlink:title=" ">
<polygon fill="white" stroke="#666666" points="6,-265.5 6,-322.5 110,-322.5 110,-265.5 6,-265.5"/>
<text text-anchor="middle" x="58" y="-310.5" font-family="Helvetica,sans-Serif" font-size="10.00">std::runtime_error</text>
<polyline fill="none" stroke="#666666" points="6,-303.5 110,-303.5"/>
<text text-anchor="middle" x="58" y="-291.5" font-family="Helvetica,sans-Serif" font-size="10.00"> </text>
<polyline fill="none" stroke="#666666" points="6,-284.5 110,-284.5"/>
<text text-anchor="middle" x="58" y="-272.5" font-family="Helvetica,sans-Serif" font-size="10.00"> </text>
</a>
</g>
</g>
<!-- Node3&#45;&gt;Node2 -->
<g id="edge2" class="edge">
<title>Node3&#45;&gt;Node2</title>
<path fill="none" stroke="#63b8ff" d="M58,-254.22C58,-245.83 58,-236.9 58,-228.34"/>
<polygon fill="none" stroke="#63b8ff" points="54.5,-254.11 58,-264.11 61.5,-254.11 54.5,-254.11"/>
</g>
</g>
</svg>
