<?xml version="1.0" encoding="UTF-8" standalone="no"?>
<!DOCTYPE svg PUBLIC "-//W3C//DTD SVG 1.1//EN"
 "http://www.w3.org/Graphics/SVG/1.1/DTD/svg11.dtd">
<!-- Generated by graphviz version 7.0.0 (0)
 -->
<!-- Title: sisi4s::ScaLapackHermitianEigenSystem&lt; complex &gt; Pages: 1 -->
<svg width="356pt" height="731pt"
 viewBox="0.00 0.00 356.00 731.00" xmlns="http://www.w3.org/2000/svg" xmlns:xlink="http://www.w3.org/1999/xlink">
<g id="graph0" class="graph" transform="scale(1 1) rotate(0) translate(4 727)">
<title>sisi4s::ScaLapackHermitianEigenSystem&lt; complex &gt;</title>
<!-- Node1 -->
<g id="node1" class="node">
<title>Node1</title>
<g id="a_node1"><a xlink:title=" ">
<polygon fill="#999999" stroke="#666666" points="272.5,-129 69.5,-129 69.5,0 272.5,0 272.5,-129"/>
<text text-anchor="start" x="77.5" y="-117" font-family="Helvetica,sans-Serif" font-size="10.00">{sisi4s::ScaLapackHermitian</text>
<text text-anchor="middle" x="171" y="-106" font-family="Helvetica,sans-Serif" font-size="10.00">EigenSystem&lt; complex &gt;</text>
<text text-anchor="start" x="77.5" y="-95" font-family="Helvetica,sans-Serif" font-size="10.00">|# workCount</text>
<text text-anchor="start" x="77.5" y="-84" font-family="Helvetica,sans-Serif" font-size="10.00"># realWorkCount</text>
<text text-anchor="start" x="77.5" y="-73" font-family="Helvetica,sans-Serif" font-size="10.00"># work</text>
<text text-anchor="start" x="77.5" y="-62" font-family="Helvetica,sans-Serif" font-size="10.00"># realWork</text>
<text text-anchor="start" x="77.5" y="-51" font-family="Helvetica,sans-Serif" font-size="10.00">|+ ScaLapackHermitianEigenSystem()</text>
<text text-anchor="start" x="77.5" y="-40" font-family="Helvetica,sans-Serif" font-size="10.00">+ ~ScaLapackHermitianEigen</text>
<text text-anchor="start" x="77.5" y="-29" font-family="Helvetica,sans-Serif" font-size="10.00">System()</text>
<text text-anchor="start" x="77.5" y="-18" font-family="Helvetica,sans-Serif" font-size="10.00">+ solve()</text>
<text text-anchor="middle" x="171" y="-7" font-family="Helvetica,sans-Serif" font-size="10.00">}</text>
</a>
</g>
</g>
<!-- Node2 -->
<g id="node2" class="node">
<title>Node2</title>
<g id="a_node2"><a xlink:href="classsisi4s_1_1ScaLapackMatrix.html" target="_top" xlink:title=" ">
<polygon fill="white" stroke="#666666" points="241,-360 101,-360 101,-187 241,-187 241,-360"/>
<text text-anchor="start" x="109" y="-348" font-family="Helvetica,sans-Serif" font-size="10.00">{sisi4s::ScaLapackMatrix</text>
<text text-anchor="middle" x="171" y="-337" font-family="Helvetica,sans-Serif" font-size="10.00">&lt; complex &gt;</text>
<text text-anchor="start" x="109" y="-326" font-family="Helvetica,sans-Serif" font-size="10.00">|# localIndices</text>
<text text-anchor="start" x="109" y="-315" font-family="Helvetica,sans-Serif" font-size="10.00"># localValues</text>
<text text-anchor="start" x="109" y="-304" font-family="Helvetica,sans-Serif" font-size="10.00">|+ ScaLapackMatrix()</text>
<text text-anchor="start" x="109" y="-293" font-family="Helvetica,sans-Serif" font-size="10.00">+ ScaLapackMatrix()</text>
<text text-anchor="start" x="109" y="-282" font-family="Helvetica,sans-Serif" font-size="10.00">+ ScaLapackMatrix()</text>
<text text-anchor="start" x="109" y="-271" font-family="Helvetica,sans-Serif" font-size="10.00">+ ~ScaLapackMatrix()</text>
<text text-anchor="start" x="109" y="-260" font-family="Helvetica,sans-Serif" font-size="10.00">+ getDescriptor()</text>
<text text-anchor="start" x="109" y="-249" font-family="Helvetica,sans-Serif" font-size="10.00">+ getLocalValues()</text>
<text text-anchor="start" x="109" y="-238" font-family="Helvetica,sans-Serif" font-size="10.00">+ getLocalValues()</text>
<text text-anchor="start" x="109" y="-227" font-family="Helvetica,sans-Serif" font-size="10.00">+ write()</text>
<text text-anchor="start" x="109" y="-216" font-family="Helvetica,sans-Serif" font-size="10.00">+ write()</text>
<text text-anchor="start" x="109" y="-205" font-family="Helvetica,sans-Serif" font-size="10.00"># getGlobalIndex()</text>
<text text-anchor="middle" x="171" y="-194" font-family="Helvetica,sans-Serif" font-size="10.00">}</text>
</a>
</g>
</g>
<!-- Node2&#45;&gt;Node1 -->
<g id="edge1" class="edge">
<title>Node2&#45;&gt;Node1</title>
<path fill="none" stroke="#404040" d="M171,-186.51C171,-171.44 171,-155.85 171,-141.08"/>
<polygon fill="none" stroke="#404040" points="171,-141.44 167,-135.44 171,-129.44 175,-135.44 171,-141.44"/>
<text text-anchor="middle" x="180.5" y="-161" font-family="Helvetica,sans-Serif" font-size="10.00"> #A</text>
<text text-anchor="middle" x="180.5" y="-150" font-family="Helvetica,sans-Serif" font-size="10.00">#U</text>
</g>
<!-- Node3 -->
<g id="node3" class="node">
<title>Node3</title>
<g id="a_node3"><a xlink:href="classsisi4s_1_1ScaLapackDescriptor.html" target="_top" xlink:title=" ">
<polygon fill="white" stroke="#666666" points="158,-723 0,-723 0,-616 158,-616 158,-723"/>
<text text-anchor="middle" x="79" y="-711" font-family="Helvetica,sans-Serif" font-size="10.00">{sisi4s::ScaLapackDescriptor</text>
<text text-anchor="start" x="8" y="-700" font-family="Helvetica,sans-Serif" font-size="10.00">|+ dataType</text>
<text text-anchor="start" x="8" y="-689" font-family="Helvetica,sans-Serif" font-size="10.00">+ blacsContext</text>
<text text-anchor="start" x="8" y="-678" font-family="Helvetica,sans-Serif" font-size="10.00">+ lens</text>
<text text-anchor="start" x="8" y="-667" font-family="Helvetica,sans-Serif" font-size="10.00">+ blockSize</text>
<text text-anchor="start" x="8" y="-656" font-family="Helvetica,sans-Serif" font-size="10.00">+ offset</text>
<text text-anchor="start" x="8" y="-645" font-family="Helvetica,sans-Serif" font-size="10.00">+ localLens</text>
<text text-anchor="start" x="8" y="-634" font-family="Helvetica,sans-Serif" font-size="10.00">|+ ScaLapackDescriptor()</text>
<text text-anchor="middle" x="79" y="-623" font-family="Helvetica,sans-Serif" font-size="10.00">}</text>
</a>
</g>
</g>
<!-- Node3&#45;&gt;Node2 -->
<g id="edge2" class="edge">
<title>Node3&#45;&gt;Node2</title>
<path fill="none" stroke="#63b8ff" d="M68.09,-604.61C61.36,-550.63 57.48,-471.97 78,-407 83.21,-390.52 91.28,-374.31 100.54,-359.19"/>
<polygon fill="none" stroke="#63b8ff" points="64.58,-604.78 69.36,-614.24 71.52,-603.86 64.58,-604.78"/>
</g>
<!-- Node5 -->
<g id="node5" class="node">
<title>Node5</title>
<g id="a_node5"><a xlink:href="classsisi4s_1_1ScaLapackMatrix.html" target="_top" xlink:title=" ">
<polygon fill="white" stroke="#666666" points="255,-569 87,-569 87,-407 255,-407 255,-569"/>
<text text-anchor="middle" x="171" y="-557" font-family="Helvetica,sans-Serif" font-size="10.00">{sisi4s::ScaLapackMatrix&lt; F &gt;</text>
<text text-anchor="start" x="95" y="-546" font-family="Helvetica,sans-Serif" font-size="10.00">|# localIndices</text>
<text text-anchor="start" x="95" y="-535" font-family="Helvetica,sans-Serif" font-size="10.00"># localValues</text>
<text text-anchor="start" x="95" y="-524" font-family="Helvetica,sans-Serif" font-size="10.00">|+ ScaLapackMatrix()</text>
<text text-anchor="start" x="95" y="-513" font-family="Helvetica,sans-Serif" font-size="10.00">+ ScaLapackMatrix()</text>
<text text-anchor="start" x="95" y="-502" font-family="Helvetica,sans-Serif" font-size="10.00">+ ScaLapackMatrix()</text>
<text text-anchor="start" x="95" y="-491" font-family="Helvetica,sans-Serif" font-size="10.00">+ ~ScaLapackMatrix()</text>
<text text-anchor="start" x="95" y="-480" font-family="Helvetica,sans-Serif" font-size="10.00">+ getDescriptor()</text>
<text text-anchor="start" x="95" y="-469" font-family="Helvetica,sans-Serif" font-size="10.00">+ getLocalValues()</text>
<text text-anchor="start" x="95" y="-458" font-family="Helvetica,sans-Serif" font-size="10.00">+ getLocalValues()</text>
<text text-anchor="start" x="95" y="-447" font-family="Helvetica,sans-Serif" font-size="10.00">+ write()</text>
<text text-anchor="start" x="95" y="-436" font-family="Helvetica,sans-Serif" font-size="10.00">+ write()</text>
<text text-anchor="start" x="95" y="-425" font-family="Helvetica,sans-Serif" font-size="10.00"># getGlobalIndex()</text>
<text text-anchor="middle" x="171" y="-414" font-family="Helvetica,sans-Serif" font-size="10.00">}</text>
</a>
</g>
</g>
<!-- Node3&#45;&gt;Node5 -->
<g id="edge5" class="edge">
<title>Node3&#45;&gt;Node5</title>
<path fill="none" stroke="#63b8ff" d="M111.26,-605.56C117.24,-593.89 123.56,-581.56 129.76,-569.46"/>
<polygon fill="none" stroke="#63b8ff" points="108.24,-603.77 106.8,-614.27 114.47,-606.97 108.24,-603.77"/>
</g>
<!-- Node4 -->
<g id="node4" class="node">
<title>Node4</title>
<g id="a_node4"><a xlink:href="classsisi4s_1_1BlacsWorld.html" target="_top" xlink:title=" ">
<polygon fill="white" stroke="#666666" points="326,-723 216,-723 216,-616 326,-616 326,-723"/>
<text text-anchor="middle" x="271" y="-711" font-family="Helvetica,sans-Serif" font-size="10.00">{sisi4s::BlacsWorld</text>
<text text-anchor="start" x="224" y="-700" font-family="Helvetica,sans-Serif" font-size="10.00">|+ rank</text>
<text text-anchor="start" x="224" y="-689" font-family="Helvetica,sans-Serif" font-size="10.00">+ context</text>
<text text-anchor="start" x="224" y="-678" font-family="Helvetica,sans-Serif" font-size="10.00">+ lens</text>
<text text-anchor="start" x="224" y="-667" font-family="Helvetica,sans-Serif" font-size="10.00">+ firstElement</text>
<text text-anchor="start" x="224" y="-656" font-family="Helvetica,sans-Serif" font-size="10.00">|+ BlacsWorld()</text>
<text text-anchor="start" x="224" y="-645" font-family="Helvetica,sans-Serif" font-size="10.00">+ ~BlacsWorld()</text>
<text text-anchor="start" x="224" y="-634" font-family="Helvetica,sans-Serif" font-size="10.00">+ barrier()</text>
<text text-anchor="middle" x="271" y="-623" font-family="Helvetica,sans-Serif" font-size="10.00">}</text>
</a>
</g>
</g>
<!-- Node4&#45;&gt;Node2 -->
<g id="edge3" class="edge">
<title>Node4&#45;&gt;Node2</title>
<path fill="none" stroke="#404040" d="M278.96,-615.65C284.97,-561.55 288.53,-475.88 264,-407 259.59,-394.61 253.68,-382.32 246.98,-370.52"/>
<polygon fill="none" stroke="#404040" points="247.02,-370.59 240.52,-367.47 240.89,-360.27 247.4,-363.39 247.02,-370.59"/>
<text text-anchor="middle" x="315.5" y="-485.5" font-family="Helvetica,sans-Serif" font-size="10.00"> #blacsWorld</text>
</g>
<!-- Node4&#45;&gt;Node5 -->
<g id="edge6" class="edge">
<title>Node4&#45;&gt;Node5</title>
<path fill="none" stroke="#404040" d="M223.62,-615.61C219.42,-609.85 215.46,-603.93 212,-598 208.64,-592.24 205.46,-586.15 202.48,-579.92"/>
<polygon fill="none" stroke="#404040" points="202.63,-580.24 196.49,-576.44 197.64,-569.33 203.77,-573.12 202.63,-580.24"/>
<text text-anchor="middle" x="244.5" y="-590" font-family="Helvetica,sans-Serif" font-size="10.00"> #blacsWorld</text>
</g>
<!-- Node5&#45;&gt;Node2 -->
<g id="edge4" class="edge">
<title>Node5&#45;&gt;Node2</title>
<path fill="none" stroke="orange" d="M171,-395.17C171,-383.58 171,-371.76 171,-360.27"/>
<polygon fill="orange" stroke="orange" points="167.5,-395.15 171,-405.15 174.5,-395.15 167.5,-395.15"/>
<text text-anchor="middle" x="205" y="-381" font-family="Helvetica,sans-Serif" font-size="10.00"> &lt; complex &gt;</text>
</g>
</g>
</svg>
