<?xml version="1.0" encoding="UTF-8" standalone="no"?>
<!DOCTYPE svg PUBLIC "-//W3C//DTD SVG 1.1//EN"
 "http://www.w3.org/Graphics/SVG/1.1/DTD/svg11.dtd">
<!-- Generated by graphviz version 9.0.0 (0)
 -->
<!-- Title: sisi4s::CcsdPerturbativeTriplesComplex Pages: 1 -->
<svg width="409pt" height="690pt"
 viewBox="0.00 0.00 408.75 690.25" xmlns="http://www.w3.org/2000/svg" xmlns:xlink="http://www.w3.org/1999/xlink">
<g id="graph0" class="graph" transform="scale(1 1) rotate(0) translate(4 686.25)">
<title>sisi4s::CcsdPerturbativeTriplesComplex</title>
<!-- Node1 -->
<g id="Node000001" class="node">
<title>Node1</title>
<g id="a_Node000001"><a xlink:title="Caclulates perturbative triples correction.">
<polygon fill="#999999" stroke="none" points="208,-142 23,-142 23,0 208,0 208,-142"/>
<text text-anchor="start" x="57" y="-128.5" font-family="Helvetica,sans-Serif" font-size="10.00">sisi4s::CcsdPerturbative</text>
<text text-anchor="start" x="78" y="-115.75" font-family="Helvetica,sans-Serif" font-size="10.00">TriplesComplex</text>
<text text-anchor="start" x="114" y="-99.5" font-family="Helvetica,sans-Serif" font-size="10.00"> </text>
<text text-anchor="start" x="26.88" y="-83.5" font-family="Helvetica,sans-Serif" font-size="10.00">+</text>
<text text-anchor="start" x="39" y="-83.5" font-family="Helvetica,sans-Serif" font-size="10.00">getName()</text>
<text text-anchor="start" x="26.88" y="-67.5" font-family="Helvetica,sans-Serif" font-size="10.00">+</text>
<text text-anchor="start" x="39" y="-67.5" font-family="Helvetica,sans-Serif" font-size="10.00">CcsdPerturbativeTriplesComplex()</text>
<text text-anchor="start" x="26.88" y="-51.5" font-family="Helvetica,sans-Serif" font-size="10.00">+</text>
<text text-anchor="start" x="39" y="-51.5" font-family="Helvetica,sans-Serif" font-size="10.00">~CcsdPerturbativeTriples</text>
<text text-anchor="start" x="39" y="-38.75" font-family="Helvetica,sans-Serif" font-size="10.00">Complex()</text>
<text text-anchor="start" x="26.88" y="-22.5" font-family="Helvetica,sans-Serif" font-size="10.00">+</text>
<text text-anchor="start" x="39" y="-22.5" font-family="Helvetica,sans-Serif" font-size="10.00">run()</text>
<text text-anchor="start" x="26.88" y="-6.5" font-family="Helvetica,sans-Serif" font-size="10.00">+</text>
<text text-anchor="start" x="39" y="-6.5" font-family="Helvetica,sans-Serif" font-size="10.00">dryRun()</text>
<polygon fill="#666666" stroke="#666666" points="23,-111 23,-111 208,-111 208,-111 23,-111"/>
<polygon fill="#666666" stroke="#666666" points="23,-95 23,-95 208,-95 208,-95 23,-95"/>
<polygon fill="none" stroke="#666666" points="23,0 23,-142 208,-142 208,0 23,0"/>
</a>
</g>
</g>
<!-- Node2 -->
<g id="Node000002" class="node">
<title>Node2</title>
<g id="a_Node000002"><a xlink:href="classsisi4s_1_1Algorithm.html" target="_top" xlink:title=" ">
<polygon fill="white" stroke="none" points="131,-434.75 0,-434.75 0,-190.75 131,-190.75 131,-434.75"/>
<text text-anchor="start" x="24.62" y="-421.25" font-family="Helvetica,sans-Serif" font-size="10.00">sisi4s::Algorithm</text>
<text text-anchor="start" x="3.88" y="-405.25" font-family="Helvetica,sans-Serif" font-size="10.00">+</text>
<text text-anchor="start" x="16" y="-405.25" font-family="Helvetica,sans-Serif" font-size="10.00">note</text>
<text text-anchor="start" x="3.88" y="-389.25" font-family="Helvetica,sans-Serif" font-size="10.00">+</text>
<text text-anchor="start" x="16" y="-389.25" font-family="Helvetica,sans-Serif" font-size="10.00">fallible</text>
<text text-anchor="start" x="3.88" y="-373.25" font-family="Helvetica,sans-Serif" font-size="10.00">+</text>
<text text-anchor="start" x="16" y="-373.25" font-family="Helvetica,sans-Serif" font-size="10.00">arguments</text>
<text text-anchor="start" x="3.88" y="-357.25" font-family="Helvetica,sans-Serif" font-size="10.00">+</text>
<text text-anchor="start" x="16" y="-357.25" font-family="Helvetica,sans-Serif" font-size="10.00">Algorithm()</text>
<text text-anchor="start" x="3.88" y="-341.25" font-family="Helvetica,sans-Serif" font-size="10.00">+</text>
<text text-anchor="start" x="16" y="-341.25" font-family="Helvetica,sans-Serif" font-size="10.00">~Algorithm()</text>
<text text-anchor="start" x="3.88" y="-325.25" font-family="Helvetica,sans-Serif" font-size="10.00">+</text>
<text text-anchor="start" x="16" y="-325.25" font-family="Helvetica,sans-Serif" font-size="10.00">getName()</text>
<text text-anchor="start" x="3.88" y="-309.25" font-family="Helvetica,sans-Serif" font-size="10.00">+</text>
<text text-anchor="start" x="16" y="-309.25" font-family="Helvetica,sans-Serif" font-size="10.00">run()</text>
<text text-anchor="start" x="3.88" y="-293.25" font-family="Helvetica,sans-Serif" font-size="10.00">+</text>
<text text-anchor="start" x="16" y="-293.25" font-family="Helvetica,sans-Serif" font-size="10.00">dryRun()</text>
<text text-anchor="start" x="3.88" y="-277.25" font-family="Helvetica,sans-Serif" font-size="10.00">+</text>
<text text-anchor="start" x="16" y="-277.25" font-family="Helvetica,sans-Serif" font-size="10.00">isArgumentGiven()</text>
<text text-anchor="start" x="3.88" y="-261.25" font-family="Helvetica,sans-Serif" font-size="10.00">+</text>
<text text-anchor="start" x="16" y="-261.25" font-family="Helvetica,sans-Serif" font-size="10.00">getTextArgument()</text>
<text text-anchor="start" x="3.88" y="-245.25" font-family="Helvetica,sans-Serif" font-size="10.00">+</text>
<text text-anchor="start" x="16" y="-245.25" font-family="Helvetica,sans-Serif" font-size="10.00">getTextArgument()</text>
<text text-anchor="start" x="3.88" y="-229.25" font-family="Helvetica,sans-Serif" font-size="10.00">+</text>
<text text-anchor="start" x="16" y="-229.25" font-family="Helvetica,sans-Serif" font-size="10.00">getBooleanArgument()</text>
<text text-anchor="start" x="3.88" y="-213.25" font-family="Helvetica,sans-Serif" font-size="10.00">+</text>
<text text-anchor="start" x="16" y="-213.25" font-family="Helvetica,sans-Serif" font-size="10.00">getBooleanArgument()</text>
<text text-anchor="start" x="16" y="-197.25" font-family="Helvetica,sans-Serif" font-size="10.00">and 16 more...</text>
<polygon fill="#666666" stroke="#666666" points="0,-416.75 0,-416.75 131,-416.75 131,-416.75 0,-416.75"/>
<polygon fill="#666666" stroke="#666666" points="0,-368.75 0,-368.75 14,-368.75 14,-368.75 0,-368.75"/>
<polygon fill="#666666" stroke="#666666" points="14,-368.75 14,-368.75 131,-368.75 131,-368.75 14,-368.75"/>
<polygon fill="none" stroke="#666666" points="0,-190.75 0,-434.75 131,-434.75 131,-190.75 0,-190.75"/>
</a>
</g>
</g>
<!-- Node2&#45;&gt;Node1 -->
<g id="edge1_Node000001_Node000002" class="edge">
<title>Node2&#45;&gt;Node1</title>
<g id="a_edge1_Node000001_Node000002"><a xlink:title=" ">
<path fill="none" stroke="#63b8ff" d="M93.01,-179.84C95.73,-166.81 98.41,-153.97 100.91,-141.94"/>
<polygon fill="none" stroke="#63b8ff" points="89.64,-178.84 91.03,-189.34 96.5,-180.26 89.64,-178.84"/>
</a>
</g>
</g>
<!-- Node3 -->
<g id="Node000003" class="node">
<title>Node3</title>
<g id="a_Node000003"><a xlink:href="classsisi4s_1_1AlgorithmRegistrar.html" target="_top" xlink:title=" ">
<polygon fill="white" stroke="none" points="318,-351.75 149,-351.75 149,-273.75 318,-273.75 318,-351.75"/>
<text text-anchor="start" x="153.62" y="-338.25" font-family="Helvetica,sans-Serif" font-size="10.00">sisi4s::AlgorithmRegistrar</text>
<text text-anchor="start" x="153.62" y="-325.5" font-family="Helvetica,sans-Serif" font-size="10.00">&lt; sisi4s::CcsdPerturbativeTriples</text>
<text text-anchor="start" x="206.12" y="-312.75" font-family="Helvetica,sans-Serif" font-size="10.00">Complex &gt;</text>
<text text-anchor="start" x="232" y="-296.25" font-family="Helvetica,sans-Serif" font-size="10.00"> </text>
<text text-anchor="start" x="165.38" y="-280.25" font-family="Helvetica,sans-Serif" font-size="10.00">+</text>
<text text-anchor="start" x="190" y="-280.25" font-family="Helvetica,sans-Serif" font-size="10.00">AlgorithmRegistrar()</text>
<polygon fill="#666666" stroke="#666666" points="149,-307.75 149,-307.75 318,-307.75 318,-307.75 149,-307.75"/>
<polygon fill="#666666" stroke="#666666" points="149,-291.75 149,-291.75 318,-291.75 318,-291.75 149,-291.75"/>
<polygon fill="none" stroke="#666666" points="149,-273.75 149,-351.75 318,-351.75 318,-273.75 149,-273.75"/>
</a>
</g>
</g>
<!-- Node3&#45;&gt;Node1 -->
<g id="edge2_Node000001_Node000003" class="edge">
<title>Node3&#45;&gt;Node1</title>
<g id="a_edge2_Node000001_Node000003"><a xlink:title=" ">
<path fill="none" stroke="#63b8ff" d="M214.8,-273.76C198.92,-241.49 175.56,-194.04 155.5,-153.26"/>
<polygon fill="none" stroke="#63b8ff" points="155.49,-153.26 149.26,-149.64 150.19,-142.49 156.43,-146.11 155.49,-153.26"/>
</a>
</g>
<text text-anchor="middle" x="192.38" y="-163.25" font-family="Helvetica,sans-Serif" font-size="10.00" fill="grey"> +registrar_</text>
</g>
<!-- Node4 -->
<g id="Node000004" class="node">
<title>Node4</title>
<g id="a_Node000004"><a xlink:href="classsisi4s_1_1AlgorithmFactory.html" target="_top" xlink:title=" ">
<polygon fill="white" stroke="none" points="261,-682.25 134,-682.25 134,-598.25 261,-598.25 261,-682.25"/>
<text text-anchor="start" x="139" y="-668.75" font-family="Helvetica,sans-Serif" font-size="10.00">sisi4s::AlgorithmFactory</text>
<text text-anchor="start" x="138.38" y="-652.75" font-family="Helvetica,sans-Serif" font-size="10.00">#</text>
<text text-anchor="start" x="151" y="-652.75" font-family="Helvetica,sans-Serif" font-size="10.00">algorithmMap</text>
<text text-anchor="start" x="138.38" y="-636.75" font-family="Helvetica,sans-Serif" font-size="10.00">+</text>
<text text-anchor="start" x="151" y="-636.75" font-family="Helvetica,sans-Serif" font-size="10.00">create()</text>
<text text-anchor="start" x="138.38" y="-620.75" font-family="Helvetica,sans-Serif" font-size="10.00">+</text>
<text text-anchor="start" x="151" y="-620.75" font-family="Helvetica,sans-Serif" font-size="10.00">getAlgorithmNames()</text>
<text text-anchor="start" x="138.38" y="-604.75" font-family="Helvetica,sans-Serif" font-size="10.00">#</text>
<text text-anchor="start" x="151" y="-604.75" font-family="Helvetica,sans-Serif" font-size="10.00">getAlgorithmMap()</text>
<polygon fill="#666666" stroke="#666666" points="134,-664.25 134,-664.25 261,-664.25 261,-664.25 134,-664.25"/>
<polygon fill="#666666" stroke="#666666" points="134,-648.25 134,-648.25 149,-648.25 149,-648.25 134,-648.25"/>
<polygon fill="#666666" stroke="#666666" points="149,-648.25 149,-648.25 261,-648.25 261,-648.25 149,-648.25"/>
<polygon fill="none" stroke="#666666" points="134,-598.25 134,-682.25 261,-682.25 261,-598.25 134,-598.25"/>
</a>
</g>
</g>
<!-- Node4&#45;&gt;Node3 -->
<g id="edge3_Node000003_Node000004" class="edge">
<title>Node4&#45;&gt;Node3</title>
<g id="a_edge3_Node000003_Node000004"><a xlink:title=" ">
<path fill="none" stroke="darkgreen" d="M198.69,-587.27C199.65,-560.1 201.38,-526.32 204.5,-496.25 209.71,-445.99 219.48,-388.5 226.24,-351.69"/>
<polygon fill="none" stroke="darkgreen" points="195.2,-586.86 198.37,-596.97 202.19,-587.09 195.2,-586.86"/>
</a>
</g>
</g>
<!-- Node5 -->
<g id="Node000005" class="node">
<title>Node5</title>
<g id="a_Node000005"><a xlink:href="classsisi4s_1_1AlgorithmRegistrar.html" target="_top" xlink:title="Class to be statically instantiated by an algorithm to register it in the AlgorithmFactory....">
<polygon fill="white" stroke="none" points="349.5,-561.25 213.5,-561.25 213.5,-496.25 349.5,-496.25 349.5,-561.25"/>
<text text-anchor="start" x="218.5" y="-547.75" font-family="Helvetica,sans-Serif" font-size="10.00">sisi4s::AlgorithmRegistrar</text>
<text text-anchor="start" x="235" y="-535" font-family="Helvetica,sans-Serif" font-size="10.00">&lt; AlgorithmType &gt;</text>
<text text-anchor="start" x="280" y="-518.75" font-family="Helvetica,sans-Serif" font-size="10.00"> </text>
<text text-anchor="start" x="221.38" y="-502.75" font-family="Helvetica,sans-Serif" font-size="10.00">+</text>
<text text-anchor="start" x="237.5" y="-502.75" font-family="Helvetica,sans-Serif" font-size="10.00">AlgorithmRegistrar()</text>
<polygon fill="#666666" stroke="#666666" points="213.5,-530.25 213.5,-530.25 349.5,-530.25 349.5,-530.25 213.5,-530.25"/>
<polygon fill="#666666" stroke="#666666" points="213.5,-514.25 213.5,-514.25 349.5,-514.25 349.5,-514.25 213.5,-514.25"/>
<polygon fill="none" stroke="#666666" points="213.5,-496.25 213.5,-561.25 349.5,-561.25 349.5,-496.25 213.5,-496.25"/>
</a>
</g>
</g>
<!-- Node4&#45;&gt;Node5 -->
<g id="edge5_Node000005_Node000004" class="edge">
<title>Node4&#45;&gt;Node5</title>
<g id="a_edge5_Node000005_Node000004"><a xlink:title=" ">
<path fill="none" stroke="darkgreen" d="M235.57,-589.62C243.05,-579.87 250.69,-569.91 257.55,-560.97"/>
<polygon fill="none" stroke="darkgreen" points="233.01,-587.21 229.7,-597.28 238.56,-591.47 233.01,-587.21"/>
</a>
</g>
</g>
<!-- Node5&#45;&gt;Node3 -->
<g id="edge4_Node000003_Node000005" class="edge">
<title>Node5&#45;&gt;Node3</title>
<g id="a_edge4_Node000003_Node000005"><a xlink:title=" ">
<path fill="none" stroke="orange" d="M272.06,-485.64C263.29,-446.58 250.37,-388.97 241.94,-351.4"/>
<polygon fill="orange" stroke="orange" points="268.59,-486.16 274.19,-495.16 275.42,-484.63 268.59,-486.16"/>
</a>
</g>
<text text-anchor="start" x="269.5" y="-468.75" font-family="Helvetica,sans-Serif" font-size="10.00" fill="grey"> &lt; sisi4s::CcsdPerturbative</text>
<text text-anchor="middle" x="335.12" y="-456" font-family="Helvetica,sans-Serif" font-size="10.00" fill="grey">TriplesComplex &gt;</text>
</g>
</g>
</svg>
