<?xml version="1.0" encoding="UTF-8" standalone="no"?>
<!DOCTYPE svg PUBLIC "-//W3C//DTD SVG 1.1//EN"
 "http://www.w3.org/Graphics/SVG/1.1/DTD/svg11.dtd">
<!-- Generated by graphviz version 8.1.0 (0)
 -->
<!-- Title: CLI::App::_process_callbacks Pages: 1 -->
<svg width="306pt" height="68pt"
 viewBox="0.00 0.00 306.25 67.75" xmlns="http://www.w3.org/2000/svg" xmlns:xlink="http://www.w3.org/1999/xlink">
<g id="graph0" class="graph" transform="scale(1 1) rotate(0) translate(4 63.75)">
<title>CLI::App::_process_callbacks</title>
<!-- Node1 -->
<g id="Node000001" class="node">
<title>Node1</title>
<g id="a_Node000001"><a xlink:title="Process callbacks. Runs on all subcommands.">
<polygon fill="#999999" stroke="#666666" points="104.5,-46.12 0,-46.12 0,-12.62 104.5,-12.62 104.5,-46.12"/>
<text text-anchor="start" x="8" y="-32.62" font-family="Helvetica,sans-Serif" font-size="10.00">CLI::App::_process</text>
<text text-anchor="middle" x="52.25" y="-19.88" font-family="Helvetica,sans-Serif" font-size="10.00">_callbacks</text>
</a>
</g>
</g>
<!-- Node2 -->
<g id="Node000002" class="node">
<title>Node2</title>
<g id="a_Node000002"><a xlink:href="classCLI_1_1Option.html#aae19e4231b0c1ef14cf2f3c7189e453c" target="_top" xlink:title="See if the callback has been run already.">
<polygon fill="white" stroke="#666666" points="298.25,-59.75 140.5,-59.75 140.5,-39 298.25,-39 298.25,-59.75"/>
<text text-anchor="middle" x="219.38" y="-46.25" font-family="Helvetica,sans-Serif" font-size="10.00">CLI::Option::get_callback_run</text>
</a>
</g>
</g>
<!-- Node1&#45;&gt;Node2 -->
<g id="edge1_Node000001_Node000002" class="edge">
<title>Node1&#45;&gt;Node2</title>
<g id="a_edge1_Node000001_Node000002"><a xlink:title=" ">
<path fill="none" stroke="#63b8ff" d="M104.59,-35.59C112.51,-36.55 120.88,-37.57 129.35,-38.59"/>
<polygon fill="#63b8ff" stroke="#63b8ff" points="128.74,-42.16 139.09,-39.89 129.58,-35.22 128.74,-42.16"/>
</a>
</g>
</g>
<!-- Node3 -->
<g id="Node000003" class="node">
<title>Node3</title>
<g id="a_Node000003"><a xlink:href="classCLI_1_1Option.html#ab06eb6c31666a4a003aeb2cf3e5cdcd9" target="_top" xlink:title="Process the callback.">
<polygon fill="white" stroke="#666666" points="287.75,-20.75 151,-20.75 151,0 287.75,0 287.75,-20.75"/>
<text text-anchor="middle" x="219.38" y="-7.25" font-family="Helvetica,sans-Serif" font-size="10.00">CLI::Option::run_callback</text>
</a>
</g>
</g>
<!-- Node1&#45;&gt;Node3 -->
<g id="edge2_Node000001_Node000003" class="edge">
<title>Node1&#45;&gt;Node3</title>
<g id="a_edge2_Node000001_Node000003"><a xlink:title=" ">
<path fill="none" stroke="#63b8ff" d="M104.59,-23.47C115.75,-22.18 127.81,-20.8 139.75,-19.42"/>
<polygon fill="#63b8ff" stroke="#63b8ff" points="140.13,-22.79 149.67,-18.17 139.33,-15.83 140.13,-22.79"/>
</a>
</g>
</g>
</g>
</svg>
