<?xml version="1.0" encoding="UTF-8" standalone="no"?>
<!DOCTYPE svg PUBLIC "-//W3C//DTD SVG 1.1//EN"
 "http://www.w3.org/Graphics/SVG/1.1/DTD/svg11.dtd">
<!-- Generated by graphviz version 9.0.0 (0)
 -->
<!-- Title: ghc::filesystem::path::relative_path Pages: 1 -->
<svg width="280pt" height="94pt"
 viewBox="0.00 0.00 280.00 93.50" xmlns="http://www.w3.org/2000/svg" xmlns:xlink="http://www.w3.org/1999/xlink">
<g id="graph0" class="graph" transform="scale(1 1) rotate(0) translate(4 89.5)">
<title>ghc::filesystem::path::relative_path</title>
<!-- Node1 -->
<g id="Node000001" class="node">
<title>Node1</title>
<g id="a_Node000001"><a xlink:title=" ">
<polygon fill="#999999" stroke="#666666" points="118,-59.5 0,-59.5 0,-26 118,-26 118,-59.5"/>
<text text-anchor="start" x="8" y="-46" font-family="Helvetica,sans-Serif" font-size="10.00">ghc::filesystem::path</text>
<text text-anchor="middle" x="59" y="-33.25" font-family="Helvetica,sans-Serif" font-size="10.00">::relative_path</text>
</a>
</g>
</g>
<!-- Node2 -->
<g id="Node000002" class="node">
<title>Node2</title>
<g id="a_Node000002"><a xlink:href="classghc_1_1filesystem_1_1path.html#aa69fa98adb4093bf9ff74cca6972d5fb" target="_top" xlink:title=" ">
<polygon fill="white" stroke="#666666" points="272,-85.5 154,-85.5 154,-52 272,-52 272,-85.5"/>
<text text-anchor="start" x="162" y="-72" font-family="Helvetica,sans-Serif" font-size="10.00">ghc::filesystem::path</text>
<text text-anchor="middle" x="213" y="-59.25" font-family="Helvetica,sans-Serif" font-size="10.00">::path</text>
</a>
</g>
</g>
<!-- Node1&#45;&gt;Node2 -->
<g id="edge1_Node000001_Node000002" class="edge">
<title>Node1&#45;&gt;Node2</title>
<g id="a_edge1_Node000001_Node000002"><a xlink:title=" ">
<path fill="none" stroke="#63b8ff" d="M118.33,-52.73C126.19,-54.07 134.3,-55.46 142.33,-56.83"/>
<polygon fill="#63b8ff" stroke="#63b8ff" points="141.63,-60.26 152.08,-58.5 142.81,-53.36 141.63,-60.26"/>
</a>
</g>
</g>
<!-- Node3 -->
<g id="Node000003" class="node">
<title>Node3</title>
<g id="a_Node000003"><a xlink:href="classghc_1_1filesystem_1_1path.html#a89dc8832ede96a8987e1beeb97f5c49d" target="_top" xlink:title=" ">
<polygon fill="white" stroke="#666666" points="272,-33.5 154,-33.5 154,0 272,0 272,-33.5"/>
<text text-anchor="start" x="162" y="-20" font-family="Helvetica,sans-Serif" font-size="10.00">ghc::filesystem::path</text>
<text text-anchor="middle" x="213" y="-7.25" font-family="Helvetica,sans-Serif" font-size="10.00">::has_root_directory</text>
</a>
</g>
</g>
<!-- Node1&#45;&gt;Node3 -->
<g id="edge2_Node000001_Node000003" class="edge">
<title>Node1&#45;&gt;Node3</title>
<g id="a_edge2_Node000001_Node000003"><a xlink:title=" ">
<path fill="none" stroke="#63b8ff" d="M118.33,-32.77C126.19,-31.43 134.3,-30.04 142.33,-28.67"/>
<polygon fill="#63b8ff" stroke="#63b8ff" points="142.81,-32.14 152.08,-27 141.63,-25.24 142.81,-32.14"/>
</a>
</g>
</g>
</g>
</svg>
