<?xml version="1.0" encoding="UTF-8" standalone="no"?>
<!DOCTYPE svg PUBLIC "-//W3C//DTD SVG 1.1//EN"
 "http://www.w3.org/Graphics/SVG/1.1/DTD/svg11.dtd">
<!-- Generated by graphviz version 9.0.0 (0)
 -->
<!-- Title: sisi4s::IPCcsdPreconditioner&lt; F &gt; Pages: 1 -->
<svg width="197pt" height="865pt"
 viewBox="0.00 0.00 196.75 864.50" xmlns="http://www.w3.org/2000/svg" xmlns:xlink="http://www.w3.org/1999/xlink">
<g id="graph0" class="graph" transform="scale(1 1) rotate(0) translate(4 860.5)">
<title>sisi4s::IPCcsdPreconditioner&lt; F &gt;</title>
<!-- Node1 -->
<g id="Node000001" class="node">
<title>Node1</title>
<g id="a_Node000001"><a xlink:title=" ">
<polygon fill="#999999" stroke="none" points="175,-84 0,-84 0,0 175,0 175,-84"/>
<text text-anchor="start" x="5" y="-70.5" font-family="Helvetica,sans-Serif" font-size="10.00">sisi4s::IPCcsdPreconditioner&lt; F &gt;</text>
<text text-anchor="start" x="18.88" y="-54.5" font-family="Helvetica,sans-Serif" font-size="10.00">+</text>
<text text-anchor="start" x="46" y="-54.5" font-family="Helvetica,sans-Serif" font-size="10.00">diagonalH</text>
<text text-anchor="start" x="18.88" y="-38.5" font-family="Helvetica,sans-Serif" font-size="10.00">+</text>
<text text-anchor="start" x="46" y="-38.5" font-family="Helvetica,sans-Serif" font-size="10.00">calculateDiagonal()</text>
<text text-anchor="start" x="18.88" y="-22.5" font-family="Helvetica,sans-Serif" font-size="10.00">+</text>
<text text-anchor="start" x="46" y="-22.5" font-family="Helvetica,sans-Serif" font-size="10.00">getInitialBasis()</text>
<text text-anchor="start" x="18.88" y="-6.5" font-family="Helvetica,sans-Serif" font-size="10.00">+</text>
<text text-anchor="start" x="46" y="-6.5" font-family="Helvetica,sans-Serif" font-size="10.00">getCorrection()</text>
<polygon fill="#666666" stroke="#666666" points="0,-66 0,-66 175,-66 175,-66 0,-66"/>
<polygon fill="#666666" stroke="#666666" points="0,-50 0,-50 44,-50 44,-50 0,-50"/>
<polygon fill="#666666" stroke="#666666" points="44,-50 44,-50 175,-50 175,-50 44,-50"/>
<polygon fill="none" stroke="#666666" points="0,0 0,-84 175,-84 175,0 0,0"/>
</a>
</g>
</g>
<!-- Node2 -->
<g id="Node000002" class="node">
<title>Node2</title>
<g id="a_Node000002"><a xlink:href="classsisi4s_1_1Preconditioner.html" target="_top" xlink:title=" ">
<polygon fill="white" stroke="none" points="157,-458 18,-458 18,-121 157,-121 157,-458"/>
<text text-anchor="start" x="22.62" y="-444.5" font-family="Helvetica,sans-Serif" font-size="10.00">sisi4s::Preconditioner</text>
<text text-anchor="start" x="22.62" y="-431.75" font-family="Helvetica,sans-Serif" font-size="10.00">&lt; F, SDFockVector&lt; F &gt; &gt;</text>
<text text-anchor="start" x="27.88" y="-415.5" font-family="Helvetica,sans-Serif" font-size="10.00">+</text>
<text text-anchor="start" x="46" y="-415.5" font-family="Helvetica,sans-Serif" font-size="10.00">Tai</text>
<text text-anchor="start" x="27.88" y="-399.5" font-family="Helvetica,sans-Serif" font-size="10.00">+</text>
<text text-anchor="start" x="46" y="-399.5" font-family="Helvetica,sans-Serif" font-size="10.00">Tabij</text>
<text text-anchor="start" x="27.88" y="-383.5" font-family="Helvetica,sans-Serif" font-size="10.00">+</text>
<text text-anchor="start" x="46" y="-383.5" font-family="Helvetica,sans-Serif" font-size="10.00">Fij</text>
<text text-anchor="start" x="27.88" y="-367.5" font-family="Helvetica,sans-Serif" font-size="10.00">+</text>
<text text-anchor="start" x="46" y="-367.5" font-family="Helvetica,sans-Serif" font-size="10.00">Fab</text>
<text text-anchor="start" x="27.88" y="-351.5" font-family="Helvetica,sans-Serif" font-size="10.00">+</text>
<text text-anchor="start" x="46" y="-351.5" font-family="Helvetica,sans-Serif" font-size="10.00">Vabcd</text>
<text text-anchor="start" x="27.88" y="-335.5" font-family="Helvetica,sans-Serif" font-size="10.00">+</text>
<text text-anchor="start" x="46" y="-335.5" font-family="Helvetica,sans-Serif" font-size="10.00">Vijab</text>
<text text-anchor="start" x="27.88" y="-319.5" font-family="Helvetica,sans-Serif" font-size="10.00">+</text>
<text text-anchor="start" x="46" y="-319.5" font-family="Helvetica,sans-Serif" font-size="10.00">Viajb</text>
<text text-anchor="start" x="27.88" y="-303.5" font-family="Helvetica,sans-Serif" font-size="10.00">+</text>
<text text-anchor="start" x="46" y="-303.5" font-family="Helvetica,sans-Serif" font-size="10.00">Vijkl</text>
<text text-anchor="start" x="27.88" y="-287.5" font-family="Helvetica,sans-Serif" font-size="10.00">+</text>
<text text-anchor="start" x="46" y="-287.5" font-family="Helvetica,sans-Serif" font-size="10.00">calculateDiagonal()</text>
<text text-anchor="start" x="27.88" y="-271.5" font-family="Helvetica,sans-Serif" font-size="10.00">+</text>
<text text-anchor="start" x="46" y="-271.5" font-family="Helvetica,sans-Serif" font-size="10.00">getInitialBasis()</text>
<text text-anchor="start" x="27.88" y="-255.5" font-family="Helvetica,sans-Serif" font-size="10.00">+</text>
<text text-anchor="start" x="46" y="-255.5" font-family="Helvetica,sans-Serif" font-size="10.00">getCorrection()</text>
<text text-anchor="start" x="27.88" y="-239.5" font-family="Helvetica,sans-Serif" font-size="10.00">+</text>
<text text-anchor="start" x="46" y="-239.5" font-family="Helvetica,sans-Serif" font-size="10.00">setTai()</text>
<text text-anchor="start" x="27.88" y="-223.5" font-family="Helvetica,sans-Serif" font-size="10.00">+</text>
<text text-anchor="start" x="46" y="-223.5" font-family="Helvetica,sans-Serif" font-size="10.00">setTabij()</text>
<text text-anchor="start" x="27.88" y="-207.5" font-family="Helvetica,sans-Serif" font-size="10.00">+</text>
<text text-anchor="start" x="46" y="-207.5" font-family="Helvetica,sans-Serif" font-size="10.00">setFij()</text>
<text text-anchor="start" x="27.88" y="-191.5" font-family="Helvetica,sans-Serif" font-size="10.00">+</text>
<text text-anchor="start" x="46" y="-191.5" font-family="Helvetica,sans-Serif" font-size="10.00">setFab()</text>
<text text-anchor="start" x="27.88" y="-175.5" font-family="Helvetica,sans-Serif" font-size="10.00">+</text>
<text text-anchor="start" x="46" y="-175.5" font-family="Helvetica,sans-Serif" font-size="10.00">setVabcd()</text>
<text text-anchor="start" x="27.88" y="-159.5" font-family="Helvetica,sans-Serif" font-size="10.00">+</text>
<text text-anchor="start" x="46" y="-159.5" font-family="Helvetica,sans-Serif" font-size="10.00">setVijab()</text>
<text text-anchor="start" x="27.88" y="-143.5" font-family="Helvetica,sans-Serif" font-size="10.00">+</text>
<text text-anchor="start" x="46" y="-143.5" font-family="Helvetica,sans-Serif" font-size="10.00">setViajb()</text>
<text text-anchor="start" x="27.88" y="-127.5" font-family="Helvetica,sans-Serif" font-size="10.00">+</text>
<text text-anchor="start" x="46" y="-127.5" font-family="Helvetica,sans-Serif" font-size="10.00">setVijkl()</text>
<polygon fill="#666666" stroke="#666666" points="18,-427 18,-427 157,-427 157,-427 18,-427"/>
<polygon fill="#666666" stroke="#666666" points="18,-299 18,-299 44,-299 44,-299 18,-299"/>
<polygon fill="#666666" stroke="#666666" points="44,-299 44,-299 157,-299 157,-299 44,-299"/>
<polygon fill="none" stroke="#666666" points="18,-121 18,-458 157,-458 157,-121 18,-121"/>
</a>
</g>
</g>
<!-- Node2&#45;&gt;Node1 -->
<g id="edge1_Node000001_Node000002" class="edge">
<title>Node2&#45;&gt;Node1</title>
<g id="a_edge1_Node000001_Node000002"><a xlink:title=" ">
<path fill="none" stroke="#63b8ff" d="M87.5,-109.51C87.5,-100.28 87.5,-91.59 87.5,-83.73"/>
<polygon fill="none" stroke="#63b8ff" points="84,-109.5 87.5,-119.5 91,-109.5 84,-109.5"/>
</a>
</g>
</g>
<!-- Node3 -->
<g id="Node000003" class="node">
<title>Node3</title>
<g id="a_Node000003"><a xlink:href="classsisi4s_1_1Preconditioner.html" target="_top" xlink:title=" ">
<polygon fill="white" stroke="none" points="145,-856.5 30,-856.5 30,-519.5 145,-519.5 145,-856.5"/>
<text text-anchor="start" x="35.38" y="-843" font-family="Helvetica,sans-Serif" font-size="10.00">sisi4s::Preconditioner</text>
<text text-anchor="start" x="66.88" y="-830.25" font-family="Helvetica,sans-Serif" font-size="10.00">&lt; F, V &gt;</text>
<text text-anchor="start" x="33.88" y="-814" font-family="Helvetica,sans-Serif" font-size="10.00">+</text>
<text text-anchor="start" x="46" y="-814" font-family="Helvetica,sans-Serif" font-size="10.00">Tai</text>
<text text-anchor="start" x="33.88" y="-798" font-family="Helvetica,sans-Serif" font-size="10.00">+</text>
<text text-anchor="start" x="46" y="-798" font-family="Helvetica,sans-Serif" font-size="10.00">Tabij</text>
<text text-anchor="start" x="33.88" y="-782" font-family="Helvetica,sans-Serif" font-size="10.00">+</text>
<text text-anchor="start" x="46" y="-782" font-family="Helvetica,sans-Serif" font-size="10.00">Fij</text>
<text text-anchor="start" x="33.88" y="-766" font-family="Helvetica,sans-Serif" font-size="10.00">+</text>
<text text-anchor="start" x="46" y="-766" font-family="Helvetica,sans-Serif" font-size="10.00">Fab</text>
<text text-anchor="start" x="33.88" y="-750" font-family="Helvetica,sans-Serif" font-size="10.00">+</text>
<text text-anchor="start" x="46" y="-750" font-family="Helvetica,sans-Serif" font-size="10.00">Vabcd</text>
<text text-anchor="start" x="33.88" y="-734" font-family="Helvetica,sans-Serif" font-size="10.00">+</text>
<text text-anchor="start" x="46" y="-734" font-family="Helvetica,sans-Serif" font-size="10.00">Vijab</text>
<text text-anchor="start" x="33.88" y="-718" font-family="Helvetica,sans-Serif" font-size="10.00">+</text>
<text text-anchor="start" x="46" y="-718" font-family="Helvetica,sans-Serif" font-size="10.00">Viajb</text>
<text text-anchor="start" x="33.88" y="-702" font-family="Helvetica,sans-Serif" font-size="10.00">+</text>
<text text-anchor="start" x="46" y="-702" font-family="Helvetica,sans-Serif" font-size="10.00">Vijkl</text>
<text text-anchor="start" x="33.88" y="-686" font-family="Helvetica,sans-Serif" font-size="10.00">+</text>
<text text-anchor="start" x="46" y="-686" font-family="Helvetica,sans-Serif" font-size="10.00">calculateDiagonal()</text>
<text text-anchor="start" x="33.88" y="-670" font-family="Helvetica,sans-Serif" font-size="10.00">+</text>
<text text-anchor="start" x="46" y="-670" font-family="Helvetica,sans-Serif" font-size="10.00">getInitialBasis()</text>
<text text-anchor="start" x="33.88" y="-654" font-family="Helvetica,sans-Serif" font-size="10.00">+</text>
<text text-anchor="start" x="46" y="-654" font-family="Helvetica,sans-Serif" font-size="10.00">getCorrection()</text>
<text text-anchor="start" x="33.88" y="-638" font-family="Helvetica,sans-Serif" font-size="10.00">+</text>
<text text-anchor="start" x="46" y="-638" font-family="Helvetica,sans-Serif" font-size="10.00">setTai()</text>
<text text-anchor="start" x="33.88" y="-622" font-family="Helvetica,sans-Serif" font-size="10.00">+</text>
<text text-anchor="start" x="46" y="-622" font-family="Helvetica,sans-Serif" font-size="10.00">setTabij()</text>
<text text-anchor="start" x="33.88" y="-606" font-family="Helvetica,sans-Serif" font-size="10.00">+</text>
<text text-anchor="start" x="46" y="-606" font-family="Helvetica,sans-Serif" font-size="10.00">setFij()</text>
<text text-anchor="start" x="33.88" y="-590" font-family="Helvetica,sans-Serif" font-size="10.00">+</text>
<text text-anchor="start" x="46" y="-590" font-family="Helvetica,sans-Serif" font-size="10.00">setFab()</text>
<text text-anchor="start" x="33.88" y="-574" font-family="Helvetica,sans-Serif" font-size="10.00">+</text>
<text text-anchor="start" x="46" y="-574" font-family="Helvetica,sans-Serif" font-size="10.00">setVabcd()</text>
<text text-anchor="start" x="33.88" y="-558" font-family="Helvetica,sans-Serif" font-size="10.00">+</text>
<text text-anchor="start" x="46" y="-558" font-family="Helvetica,sans-Serif" font-size="10.00">setVijab()</text>
<text text-anchor="start" x="33.88" y="-542" font-family="Helvetica,sans-Serif" font-size="10.00">+</text>
<text text-anchor="start" x="46" y="-542" font-family="Helvetica,sans-Serif" font-size="10.00">setViajb()</text>
<text text-anchor="start" x="33.88" y="-526" font-family="Helvetica,sans-Serif" font-size="10.00">+</text>
<text text-anchor="start" x="46" y="-526" font-family="Helvetica,sans-Serif" font-size="10.00">setVijkl()</text>
<polygon fill="#666666" stroke="#666666" points="30,-825.5 30,-825.5 145,-825.5 145,-825.5 30,-825.5"/>
<polygon fill="#666666" stroke="#666666" points="30,-697.5 30,-697.5 44,-697.5 44,-697.5 30,-697.5"/>
<polygon fill="#666666" stroke="#666666" points="44,-697.5 44,-697.5 145,-697.5 145,-697.5 44,-697.5"/>
<polygon fill="none" stroke="#666666" points="30,-519.5 30,-856.5 145,-856.5 145,-519.5 30,-519.5"/>
</a>
</g>
</g>
<!-- Node3&#45;&gt;Node2 -->
<g id="edge2_Node000002_Node000003" class="edge">
<title>Node3&#45;&gt;Node2</title>
<g id="a_edge2_Node000002_Node000003"><a xlink:title=" ">
<path fill="none" stroke="orange" d="M87.5,-508.61C87.5,-491.67 87.5,-474.54 87.5,-457.71"/>
<polygon fill="orange" stroke="orange" points="84,-508.2 87.5,-518.2 91,-508.2 84,-508.2"/>
</a>
</g>
<text text-anchor="start" x="87.5" y="-492" font-family="Helvetica,sans-Serif" font-size="10.00" fill="grey"> &lt; F, SDFockVector&lt;</text>
<text text-anchor="middle" x="138.12" y="-479.25" font-family="Helvetica,sans-Serif" font-size="10.00" fill="grey"> F &gt; &gt;</text>
</g>
</g>
</svg>
