<?xml version="1.0" encoding="UTF-8" standalone="no"?>
<!DOCTYPE svg PUBLIC "-//W3C//DTD SVG 1.1//EN"
 "http://www.w3.org/Graphics/SVG/1.1/DTD/svg11.dtd">
<!-- Generated by graphviz version 8.1.0 (0)
 -->
<!-- Title: CLI::App::_count_remaining_positionals Pages: 1 -->
<svg width="337pt" height="170pt"
 viewBox="0.00 0.00 337.00 170.12" xmlns="http://www.w3.org/2000/svg" xmlns:xlink="http://www.w3.org/1999/xlink">
<g id="graph0" class="graph" transform="scale(1 1) rotate(0) translate(4 166.12)">
<title>CLI::App::_count_remaining_positionals</title>
<!-- Node1 -->
<g id="Node000001" class="node">
<title>Node1</title>
<g id="a_Node000001"><a xlink:title="Count the required remaining positional arguments.">
<polygon fill="#999999" stroke="#666666" points="148.75,-100.5 0,-100.5 0,-67 148.75,-67 148.75,-100.5"/>
<text text-anchor="start" x="8" y="-87" font-family="Helvetica,sans-Serif" font-size="10.00">CLI::App::_count_remaining</text>
<text text-anchor="middle" x="74.38" y="-74.25" font-family="Helvetica,sans-Serif" font-size="10.00">_positionals</text>
</a>
</g>
</g>
<!-- Node2 -->
<g id="Node000002" class="node">
<title>Node2</title>
<g id="a_Node000002"><a xlink:href="classCLI_1_1Option.html#a154543609c45d9c59c69991a08ca272b" target="_top" xlink:title="Count the total number of times an option was passed.">
<polygon fill="white" stroke="#666666" points="308,-162.12 205.75,-162.12 205.75,-141.38 308,-141.38 308,-162.12"/>
<text text-anchor="middle" x="256.88" y="-148.62" font-family="Helvetica,sans-Serif" font-size="10.00">CLI::Option::count</text>
</a>
</g>
</g>
<!-- Node1&#45;&gt;Node2 -->
<g id="edge1_Node000001_Node000002" class="edge">
<title>Node1&#45;&gt;Node2</title>
<g id="a_edge1_Node000001_Node000002"><a xlink:title=" ">
<path fill="none" stroke="#63b8ff" d="M109.77,-100.87C131.02,-111.01 159.06,-123.63 184.75,-132.75 189.89,-134.57 195.29,-136.32 200.72,-137.96"/>
<polygon fill="#63b8ff" stroke="#63b8ff" points="199.57,-141.56 210.15,-140.97 201.52,-134.83 199.57,-141.56"/>
</a>
</g>
</g>
<!-- Node3 -->
<g id="Node000003" class="node">
<title>Node3</title>
<g id="a_Node000003"><a xlink:href="classCLI_1_1Option.html#af87dffed2cb245673312c993e563710e" target="_top" xlink:title="The total min number of expected string values to be used.">
<polygon fill="white" stroke="#666666" points="318.88,-123.5 194.88,-123.5 194.88,-90 318.88,-90 318.88,-123.5"/>
<text text-anchor="start" x="202.88" y="-110" font-family="Helvetica,sans-Serif" font-size="10.00">CLI::Option::get_items</text>
<text text-anchor="middle" x="256.88" y="-97.25" font-family="Helvetica,sans-Serif" font-size="10.00">_expected_min</text>
</a>
</g>
</g>
<!-- Node1&#45;&gt;Node3 -->
<g id="edge2_Node000001_Node000003" class="edge">
<title>Node1&#45;&gt;Node3</title>
<g id="a_edge2_Node000001_Node000003"><a xlink:title=" ">
<path fill="none" stroke="#63b8ff" d="M149.05,-93.14C160.5,-94.6 172.32,-96.1 183.74,-97.56"/>
<polygon fill="#63b8ff" stroke="#63b8ff" points="183.17,-101.14 193.53,-98.93 184.05,-94.2 183.17,-101.14"/>
</a>
</g>
</g>
<!-- Node4 -->
<g id="Node000004" class="node">
<title>Node4</title>
<g id="a_Node000004"><a xlink:href="classCLI_1_1Option.html#acab7033604b49e314d290b01adea690d" target="_top" xlink:title="True if the argument can be given directly.">
<polygon fill="white" stroke="#666666" points="329,-72.12 184.75,-72.12 184.75,-51.38 329,-51.38 329,-72.12"/>
<text text-anchor="middle" x="256.88" y="-58.62" font-family="Helvetica,sans-Serif" font-size="10.00">CLI::Option::get_positional</text>
</a>
</g>
</g>
<!-- Node1&#45;&gt;Node4 -->
<g id="edge3_Node000001_Node000004" class="edge">
<title>Node1&#45;&gt;Node4</title>
<g id="a_edge3_Node000001_Node000004"><a xlink:title=" ">
<path fill="none" stroke="#63b8ff" d="M149.05,-74.77C157.19,-73.78 165.5,-72.76 173.73,-71.76"/>
<polygon fill="#63b8ff" stroke="#63b8ff" points="173.97,-75.14 183.48,-70.45 173.13,-68.19 173.97,-75.14"/>
</a>
</g>
</g>
<!-- Node5 -->
<g id="Node000005" class="node">
<title>Node5</title>
<g id="a_Node000005"><a xlink:href="classCLI_1_1OptionBase.html#aa902dee6da6d7f5b083b1c7d5f9c1308" target="_top" xlink:title="True if this is a required option.">
<polygon fill="white" stroke="#666666" points="314.38,-33.5 199.38,-33.5 199.38,0 314.38,0 314.38,-33.5"/>
<text text-anchor="start" x="207.38" y="-20" font-family="Helvetica,sans-Serif" font-size="10.00">CLI::OptionBase::get</text>
<text text-anchor="middle" x="256.88" y="-7.25" font-family="Helvetica,sans-Serif" font-size="10.00">_required</text>
</a>
</g>
</g>
<!-- Node1&#45;&gt;Node5 -->
<g id="edge4_Node000001_Node000005" class="edge">
<title>Node1&#45;&gt;Node5</title>
<g id="a_edge4_Node000001_Node000005"><a xlink:title=" ">
<path fill="none" stroke="#63b8ff" d="M121.11,-66.51C140.69,-59.15 163.83,-50.49 184.75,-42.75 189.24,-41.09 193.89,-39.37 198.57,-37.65"/>
<polygon fill="#63b8ff" stroke="#63b8ff" points="199.62,-40.63 207.8,-33.9 197.2,-34.06 199.62,-40.63"/>
</a>
</g>
</g>
</g>
</svg>
