<?xml version="1.0" encoding="UTF-8" standalone="no"?>
<!DOCTYPE svg PUBLIC "-//W3C//DTD SVG 1.1//EN"
 "http://www.w3.org/Graphics/SVG/1.1/DTD/svg11.dtd">
<!-- Generated by graphviz version 7.0.0 (0)
 -->
<!-- Title: ghc::filesystem::path::has_extension Pages: 1 -->
<svg width="616pt" height="129pt"
 viewBox="0.00 0.00 616.00 129.00" xmlns="http://www.w3.org/2000/svg" xmlns:xlink="http://www.w3.org/1999/xlink">
<g id="graph0" class="graph" transform="scale(1 1) rotate(0) translate(4 125)">
<title>ghc::filesystem::path::has_extension</title>
<!-- Node1 -->
<g id="node1" class="node">
<title>Node1</title>
<g id="a_node1"><a xlink:title=" ">
<polygon fill="#999999" stroke="#666666" points="119,-97 0,-97 0,-67 119,-67 119,-97"/>
<text text-anchor="start" x="8" y="-85" font-family="Helvetica,sans-Serif" font-size="10.00">ghc::filesystem::path</text>
<text text-anchor="middle" x="59.5" y="-74" font-family="Helvetica,sans-Serif" font-size="10.00">::has_extension</text>
</a>
</g>
</g>
<!-- Node2 -->
<g id="node2" class="node">
<title>Node2</title>
<g id="a_node2"><a xlink:href="classghc_1_1filesystem_1_1path.html#a66ead77fddc75c0e9ebfbf3f1fe555aa" target="_top" xlink:title=" ">
<polygon fill="white" stroke="#666666" points="274,-121 155,-121 155,-91 274,-91 274,-121"/>
<text text-anchor="start" x="163" y="-109" font-family="Helvetica,sans-Serif" font-size="10.00">ghc::filesystem::path</text>
<text text-anchor="middle" x="214.5" y="-98" font-family="Helvetica,sans-Serif" font-size="10.00">::empty</text>
</a>
</g>
</g>
<!-- Node1&#45;&gt;Node2 -->
<g id="edge1" class="edge">
<title>Node1&#45;&gt;Node2</title>
<path fill="none" stroke="#63b8ff" d="M119.22,-91.21C127.12,-92.45 135.29,-93.73 143.37,-95"/>
<polygon fill="#63b8ff" stroke="#63b8ff" points="142.77,-98.45 153.19,-96.54 143.86,-91.53 142.77,-98.45"/>
</g>
<!-- Node3 -->
<g id="node3" class="node">
<title>Node3</title>
<g id="a_node3"><a xlink:href="classghc_1_1filesystem_1_1path.html#aa47d9996fa2ec80336592991f740aeeb" target="_top" xlink:title=" ">
<polygon fill="white" stroke="#666666" points="274,-73 155,-73 155,-43 274,-43 274,-73"/>
<text text-anchor="start" x="163" y="-61" font-family="Helvetica,sans-Serif" font-size="10.00">ghc::filesystem::path</text>
<text text-anchor="middle" x="214.5" y="-50" font-family="Helvetica,sans-Serif" font-size="10.00">::extension</text>
</a>
</g>
</g>
<!-- Node1&#45;&gt;Node3 -->
<g id="edge2" class="edge">
<title>Node1&#45;&gt;Node3</title>
<path fill="none" stroke="#63b8ff" d="M119.22,-72.79C127.12,-71.55 135.29,-70.27 143.37,-69"/>
<polygon fill="#63b8ff" stroke="#63b8ff" points="143.86,-72.47 153.19,-67.46 142.77,-65.55 143.86,-72.47"/>
</g>
<!-- Node4 -->
<g id="node4" class="node">
<title>Node4</title>
<g id="a_node4"><a xlink:href="classghc_1_1filesystem_1_1path.html#aa69fa98adb4093bf9ff74cca6972d5fb" target="_top" xlink:title=" ">
<polygon fill="white" stroke="#666666" points="441,-116 322,-116 322,-86 441,-86 441,-116"/>
<text text-anchor="start" x="330" y="-104" font-family="Helvetica,sans-Serif" font-size="10.00">ghc::filesystem::path</text>
<text text-anchor="middle" x="381.5" y="-93" font-family="Helvetica,sans-Serif" font-size="10.00">::path</text>
</a>
</g>
</g>
<!-- Node3&#45;&gt;Node4 -->
<g id="edge3" class="edge">
<title>Node3&#45;&gt;Node4</title>
<path fill="none" stroke="#63b8ff" d="M274.14,-73.28C285.98,-76.37 298.54,-79.64 310.72,-82.82"/>
<polygon fill="#63b8ff" stroke="#63b8ff" points="309.75,-86.18 320.31,-85.31 311.51,-79.41 309.75,-86.18"/>
</g>
<!-- Node5 -->
<g id="node5" class="node">
<title>Node5</title>
<g id="a_node5"><a xlink:href="classghc_1_1filesystem_1_1path.html#af62a148e592fc444fea5f195896a6a2e" target="_top" xlink:title=" ">
<polygon fill="white" stroke="#666666" points="453,-67.5 310,-67.5 310,-48.5 453,-48.5 453,-67.5"/>
<text text-anchor="middle" x="381.5" y="-55.5" font-family="Helvetica,sans-Serif" font-size="10.00">ghc::filesystem::path::end</text>
</a>
</g>
</g>
<!-- Node3&#45;&gt;Node5 -->
<g id="edge4" class="edge">
<title>Node3&#45;&gt;Node5</title>
<path fill="none" stroke="#63b8ff" d="M274.14,-58C281.94,-58 290.06,-58 298.18,-58"/>
<polygon fill="#63b8ff" stroke="#63b8ff" points="298.11,-61.5 308.11,-58 298.11,-54.5 298.11,-61.5"/>
</g>
<!-- Node6 -->
<g id="node6" class="node">
<title>Node6</title>
<g id="a_node6"><a xlink:href="classghc_1_1filesystem_1_1path.html#ac9f23d51eb3bd601d2abd758f0be2cf5" target="_top" xlink:title=" ">
<polygon fill="white" stroke="#666666" points="441,-30 322,-30 322,0 441,0 441,-30"/>
<text text-anchor="start" x="330" y="-18" font-family="Helvetica,sans-Serif" font-size="10.00">ghc::filesystem::path</text>
<text text-anchor="middle" x="381.5" y="-7" font-family="Helvetica,sans-Serif" font-size="10.00">::has_relative_path</text>
</a>
</g>
</g>
<!-- Node3&#45;&gt;Node6 -->
<g id="edge5" class="edge">
<title>Node3&#45;&gt;Node6</title>
<path fill="none" stroke="#63b8ff" d="M274.14,-42.72C285.98,-39.63 298.54,-36.36 310.72,-33.18"/>
<polygon fill="#63b8ff" stroke="#63b8ff" points="311.51,-36.59 320.31,-30.69 309.75,-29.82 311.51,-36.59"/>
</g>
<!-- Node7 -->
<g id="node7" class="node">
<title>Node7</title>
<g id="a_node7"><a xlink:href="classghc_1_1filesystem_1_1path.html#a89dc8832ede96a8987e1beeb97f5c49d" target="_top" xlink:title=" ">
<polygon fill="white" stroke="#666666" points="608,-30 489,-30 489,0 608,0 608,-30"/>
<text text-anchor="start" x="497" y="-18" font-family="Helvetica,sans-Serif" font-size="10.00">ghc::filesystem::path</text>
<text text-anchor="middle" x="548.5" y="-7" font-family="Helvetica,sans-Serif" font-size="10.00">::has_root_directory</text>
</a>
</g>
</g>
<!-- Node6&#45;&gt;Node7 -->
<g id="edge6" class="edge">
<title>Node6&#45;&gt;Node7</title>
<path fill="none" stroke="#63b8ff" d="M441.14,-15C452.86,-15 465.29,-15 477.35,-15"/>
<polygon fill="#63b8ff" stroke="#63b8ff" points="477.26,-18.5 487.26,-15 477.26,-11.5 477.26,-18.5"/>
</g>
</g>
</svg>
