<?xml version="1.0" encoding="UTF-8" standalone="no"?>
<!DOCTYPE svg PUBLIC "-//W3C//DTD SVG 1.1//EN"
 "http://www.w3.org/Graphics/SVG/1.1/DTD/svg11.dtd">
<!-- Generated by graphviz version 9.0.0 (0)
 -->
<!-- Title: sisi4s::FromComplexTensor Pages: 1 -->
<svg width="151pt" height="388pt"
 viewBox="0.00 0.00 151.00 388.00" xmlns="http://www.w3.org/2000/svg" xmlns:xlink="http://www.w3.org/1999/xlink">
<g id="graph0" class="graph" transform="scale(1 1) rotate(0) translate(4 384)">
<title>sisi4s::FromComplexTensor</title>
<!-- Node1 -->
<g id="Node000001" class="node">
<title>Node1</title>
<g id="a_Node000001"><a xlink:title=" ">
<polygon fill="#999999" stroke="none" points="143,-100 0,-100 0,0 143,0 143,-100"/>
<text text-anchor="start" x="4.75" y="-86.5" font-family="Helvetica,sans-Serif" font-size="10.00">sisi4s::FromComplexTensor</text>
<text text-anchor="start" x="5.88" y="-70.5" font-family="Helvetica,sans-Serif" font-size="10.00">+</text>
<text text-anchor="start" x="20" y="-70.5" font-family="Helvetica,sans-Serif" font-size="10.00">registrar_</text>
<text text-anchor="start" x="5.88" y="-54.5" font-family="Helvetica,sans-Serif" font-size="10.00">+</text>
<text text-anchor="start" x="20" y="-54.5" font-family="Helvetica,sans-Serif" font-size="10.00">getName()</text>
<text text-anchor="start" x="5.88" y="-38.5" font-family="Helvetica,sans-Serif" font-size="10.00">+</text>
<text text-anchor="start" x="20" y="-38.5" font-family="Helvetica,sans-Serif" font-size="10.00">FromComplexTensor()</text>
<text text-anchor="start" x="5.88" y="-22.5" font-family="Helvetica,sans-Serif" font-size="10.00">+</text>
<text text-anchor="start" x="20" y="-22.5" font-family="Helvetica,sans-Serif" font-size="10.00">~FromComplexTensor()</text>
<text text-anchor="start" x="5.88" y="-6.5" font-family="Helvetica,sans-Serif" font-size="10.00">+</text>
<text text-anchor="start" x="20" y="-6.5" font-family="Helvetica,sans-Serif" font-size="10.00">run()</text>
<polygon fill="#666666" stroke="#666666" points="0,-82 0,-82 143,-82 143,-82 0,-82"/>
<polygon fill="#666666" stroke="#666666" points="0,-66 0,-66 18,-66 18,-66 0,-66"/>
<polygon fill="#666666" stroke="#666666" points="18,-66 18,-66 143,-66 143,-66 18,-66"/>
<polygon fill="none" stroke="#666666" points="0,0 0,-100 143,-100 143,0 0,0"/>
</a>
</g>
</g>
<!-- Node2 -->
<g id="Node000002" class="node">
<title>Node2</title>
<g id="a_Node000002"><a xlink:href="classsisi4s_1_1Algorithm.html" target="_top" xlink:title=" ">
<polygon fill="white" stroke="none" points="137,-380 6,-380 6,-136 137,-136 137,-380"/>
<text text-anchor="start" x="30.62" y="-366.5" font-family="Helvetica,sans-Serif" font-size="10.00">sisi4s::Algorithm</text>
<text text-anchor="start" x="9.88" y="-350.5" font-family="Helvetica,sans-Serif" font-size="10.00">+</text>
<text text-anchor="start" x="22" y="-350.5" font-family="Helvetica,sans-Serif" font-size="10.00">note</text>
<text text-anchor="start" x="9.88" y="-334.5" font-family="Helvetica,sans-Serif" font-size="10.00">+</text>
<text text-anchor="start" x="22" y="-334.5" font-family="Helvetica,sans-Serif" font-size="10.00">fallible</text>
<text text-anchor="start" x="9.88" y="-318.5" font-family="Helvetica,sans-Serif" font-size="10.00">+</text>
<text text-anchor="start" x="22" y="-318.5" font-family="Helvetica,sans-Serif" font-size="10.00">arguments</text>
<text text-anchor="start" x="9.88" y="-302.5" font-family="Helvetica,sans-Serif" font-size="10.00">+</text>
<text text-anchor="start" x="22" y="-302.5" font-family="Helvetica,sans-Serif" font-size="10.00">Algorithm()</text>
<text text-anchor="start" x="9.88" y="-286.5" font-family="Helvetica,sans-Serif" font-size="10.00">+</text>
<text text-anchor="start" x="22" y="-286.5" font-family="Helvetica,sans-Serif" font-size="10.00">~Algorithm()</text>
<text text-anchor="start" x="9.88" y="-270.5" font-family="Helvetica,sans-Serif" font-size="10.00">+</text>
<text text-anchor="start" x="22" y="-270.5" font-family="Helvetica,sans-Serif" font-size="10.00">getName()</text>
<text text-anchor="start" x="9.88" y="-254.5" font-family="Helvetica,sans-Serif" font-size="10.00">+</text>
<text text-anchor="start" x="22" y="-254.5" font-family="Helvetica,sans-Serif" font-size="10.00">run()</text>
<text text-anchor="start" x="9.88" y="-238.5" font-family="Helvetica,sans-Serif" font-size="10.00">+</text>
<text text-anchor="start" x="22" y="-238.5" font-family="Helvetica,sans-Serif" font-size="10.00">dryRun()</text>
<text text-anchor="start" x="9.88" y="-222.5" font-family="Helvetica,sans-Serif" font-size="10.00">+</text>
<text text-anchor="start" x="22" y="-222.5" font-family="Helvetica,sans-Serif" font-size="10.00">isArgumentGiven()</text>
<text text-anchor="start" x="9.88" y="-206.5" font-family="Helvetica,sans-Serif" font-size="10.00">+</text>
<text text-anchor="start" x="22" y="-206.5" font-family="Helvetica,sans-Serif" font-size="10.00">getTextArgument()</text>
<text text-anchor="start" x="9.88" y="-190.5" font-family="Helvetica,sans-Serif" font-size="10.00">+</text>
<text text-anchor="start" x="22" y="-190.5" font-family="Helvetica,sans-Serif" font-size="10.00">getTextArgument()</text>
<text text-anchor="start" x="9.88" y="-174.5" font-family="Helvetica,sans-Serif" font-size="10.00">+</text>
<text text-anchor="start" x="22" y="-174.5" font-family="Helvetica,sans-Serif" font-size="10.00">getBooleanArgument()</text>
<text text-anchor="start" x="9.88" y="-158.5" font-family="Helvetica,sans-Serif" font-size="10.00">+</text>
<text text-anchor="start" x="22" y="-158.5" font-family="Helvetica,sans-Serif" font-size="10.00">getBooleanArgument()</text>
<text text-anchor="start" x="22" y="-142.5" font-family="Helvetica,sans-Serif" font-size="10.00">and 16 more...</text>
<polygon fill="#666666" stroke="#666666" points="6,-362 6,-362 137,-362 137,-362 6,-362"/>
<polygon fill="#666666" stroke="#666666" points="6,-314 6,-314 20,-314 20,-314 6,-314"/>
<polygon fill="#666666" stroke="#666666" points="20,-314 20,-314 137,-314 137,-314 20,-314"/>
<polygon fill="none" stroke="#666666" points="6,-136 6,-380 137,-380 137,-136 6,-136"/>
</a>
</g>
</g>
<!-- Node2&#45;&gt;Node1 -->
<g id="edge1_Node000001_Node000002" class="edge">
<title>Node2&#45;&gt;Node1</title>
<g id="a_edge1_Node000001_Node000002"><a xlink:title=" ">
<path fill="none" stroke="#63b8ff" d="M71.5,-124.98C71.5,-116.17 71.5,-107.68 71.5,-99.77"/>
<polygon fill="none" stroke="#63b8ff" points="68,-124.76 71.5,-134.76 75,-124.76 68,-124.76"/>
</a>
</g>
</g>
</g>
</svg>
