<?xml version="1.0" encoding="UTF-8" standalone="no"?>
<!DOCTYPE svg PUBLIC "-//W3C//DTD SVG 1.1//EN"
 "http://www.w3.org/Graphics/SVG/1.1/DTD/svg11.dtd">
<!-- Generated by graphviz version 7.0.0 (0)
 -->
<!-- Title: sisi4s::TensorReader::read Pages: 1 -->
<svg width="589pt" height="86pt"
 viewBox="0.00 0.00 589.00 86.00" xmlns="http://www.w3.org/2000/svg" xmlns:xlink="http://www.w3.org/1999/xlink">
<g id="graph0" class="graph" transform="scale(1 1) rotate(0) translate(4 82)">
<title>sisi4s::TensorReader::read</title>
<!-- Node1 -->
<g id="node1" class="node">
<title>Node1</title>
<g id="a_node1"><a xlink:title=" ">
<polygon fill="#999999" stroke="#666666" points="116,-54 0,-54 0,-24 116,-24 116,-54"/>
<text text-anchor="start" x="8" y="-42" font-family="Helvetica,sans-Serif" font-size="10.00">sisi4s::TensorReader</text>
<text text-anchor="middle" x="58" y="-31" font-family="Helvetica,sans-Serif" font-size="10.00">::read</text>
</a>
</g>
</g>
<!-- Node2 -->
<g id="node2" class="node">
<title>Node2</title>
<g id="a_node2"><a xlink:href="classsisi4s_1_1Algorithm.html#a5db14be3b0d33bf80218a37223e27667" target="_top" xlink:title=" ">
<polygon fill="white" stroke="#666666" points="267,-78 152,-78 152,-48 267,-48 267,-78"/>
<text text-anchor="start" x="160" y="-66" font-family="Helvetica,sans-Serif" font-size="10.00">sisi4s::Algorithm::</text>
<text text-anchor="middle" x="209.5" y="-55" font-family="Helvetica,sans-Serif" font-size="10.00">getIntegerArgument</text>
</a>
</g>
</g>
<!-- Node1&#45;&gt;Node2 -->
<g id="edge1" class="edge">
<title>Node1&#45;&gt;Node2</title>
<path fill="none" stroke="#63b8ff" d="M116.37,-48.21C124.21,-49.47 132.31,-50.77 140.32,-52.05"/>
<polygon fill="#63b8ff" stroke="#63b8ff" points="139.6,-55.48 150.03,-53.61 140.71,-48.57 139.6,-55.48"/>
</g>
<!-- Node6 -->
<g id="node6" class="node">
<title>Node6</title>
<g id="a_node6"><a xlink:href="classsisi4s_1_1Algorithm.html#a5e80a507fac066ab5714b62364cabaaf" target="_top" xlink:title=" ">
<polygon fill="white" stroke="#666666" points="261.5,-30 157.5,-30 157.5,0 261.5,0 261.5,-30"/>
<text text-anchor="start" x="165.5" y="-18" font-family="Helvetica,sans-Serif" font-size="10.00">sisi4s::Algorithm::</text>
<text text-anchor="middle" x="209.5" y="-7" font-family="Helvetica,sans-Serif" font-size="10.00">getTextArgument</text>
</a>
</g>
</g>
<!-- Node1&#45;&gt;Node6 -->
<g id="edge5" class="edge">
<title>Node1&#45;&gt;Node6</title>
<path fill="none" stroke="#63b8ff" d="M116.37,-29.79C126.08,-28.23 136.2,-26.61 146.03,-25.03"/>
<polygon fill="#63b8ff" stroke="#63b8ff" points="146.58,-28.49 155.9,-23.44 145.47,-21.57 146.58,-28.49"/>
</g>
<!-- Node3 -->
<g id="node3" class="node">
<title>Node3</title>
<g id="a_node3"><a xlink:href="classsisi4s_1_1Algorithm.html#a1e53277220d32a33e20846267c253652" target="_top" xlink:title=" ">
<polygon fill="white" stroke="#666666" points="428.5,-76 324.5,-76 324.5,-46 428.5,-46 428.5,-76"/>
<text text-anchor="start" x="332.5" y="-64" font-family="Helvetica,sans-Serif" font-size="10.00">sisi4s::Algorithm::</text>
<text text-anchor="middle" x="376.5" y="-53" font-family="Helvetica,sans-Serif" font-size="10.00">getArgumentData</text>
</a>
</g>
</g>
<!-- Node2&#45;&gt;Node3 -->
<g id="edge2" class="edge">
<title>Node2&#45;&gt;Node3</title>
<path fill="none" stroke="#63b8ff" d="M267.28,-62.31C281.99,-62.13 297.91,-61.94 312.9,-61.76"/>
<polygon fill="#63b8ff" stroke="#63b8ff" points="312.67,-65.26 322.63,-61.64 312.59,-58.26 312.67,-65.26"/>
</g>
<!-- Node5 -->
<g id="node5" class="node">
<title>Node5</title>
<g id="a_node5"><a xlink:href="classsisi4s_1_1Data.html#a0ec0b1c7f2356fd43d82ee1dd0246789" target="_top" xlink:title=" ">
<polygon fill="white" stroke="#666666" points="450,-26.5 303,-26.5 303,-7.5 450,-7.5 450,-26.5"/>
<text text-anchor="middle" x="376.5" y="-14.5" font-family="Helvetica,sans-Serif" font-size="10.00">sisi4s::Data::getTypeName</text>
</a>
</g>
</g>
<!-- Node2&#45;&gt;Node5 -->
<g id="edge4" class="edge">
<title>Node2&#45;&gt;Node5</title>
<path fill="none" stroke="#63b8ff" d="M265.27,-47.56C277.67,-44.07 290.79,-40.4 303,-37 311.22,-34.71 319.97,-32.29 328.44,-29.95"/>
<polygon fill="#63b8ff" stroke="#63b8ff" points="329.18,-33.37 337.89,-27.34 327.32,-26.62 329.18,-33.37"/>
</g>
<!-- Node4 -->
<g id="node4" class="node">
<title>Node4</title>
<g id="a_node4"><a xlink:href="classsisi4s_1_1Data.html#a5b4676e48b4f437d399587e6903f896a" target="_top" xlink:title=" ">
<polygon fill="white" stroke="#666666" points="581,-70.5 486,-70.5 486,-51.5 581,-51.5 581,-70.5"/>
<text text-anchor="middle" x="533.5" y="-58.5" font-family="Helvetica,sans-Serif" font-size="10.00">sisi4s::Data::get</text>
</a>
</g>
</g>
<!-- Node3&#45;&gt;Node4 -->
<g id="edge3" class="edge">
<title>Node3&#45;&gt;Node4</title>
<path fill="none" stroke="#63b8ff" d="M428.68,-61C443.3,-61 459.33,-61 474.33,-61"/>
<polygon fill="#63b8ff" stroke="#63b8ff" points="474.05,-64.5 484.05,-61 474.05,-57.5 474.05,-64.5"/>
</g>
<!-- Node6&#45;&gt;Node3 -->
<g id="edge6" class="edge">
<title>Node6&#45;&gt;Node3</title>
<path fill="none" stroke="#63b8ff" d="M261.8,-29.3C278.1,-33.85 296.3,-38.92 313.28,-43.65"/>
<polygon fill="#63b8ff" stroke="#63b8ff" points="312.2,-46.99 322.77,-46.3 314.08,-40.24 312.2,-46.99"/>
</g>
<!-- Node6&#45;&gt;Node5 -->
<g id="edge7" class="edge">
<title>Node6&#45;&gt;Node5</title>
<path fill="none" stroke="#63b8ff" d="M261.8,-15.62C271.22,-15.74 281.27,-15.86 291.36,-15.98"/>
<polygon fill="#63b8ff" stroke="#63b8ff" points="291.17,-19.48 301.21,-16.1 291.25,-12.48 291.17,-19.48"/>
</g>
</g>
</svg>
