<?xml version="1.0" encoding="UTF-8" standalone="no"?>
<!DOCTYPE svg PUBLIC "-//W3C//DTD SVG 1.1//EN"
 "http://www.w3.org/Graphics/SVG/1.1/DTD/svg11.dtd">
<!-- Generated by graphviz version 5.0.1 (0)
 -->
<!-- Title: sisi4s::Mp2NaturalOrbitals::run Pages: 1 -->
<svg width="680pt" height="268pt"
 viewBox="0.00 0.00 680.00 268.00" xmlns="http://www.w3.org/2000/svg" xmlns:xlink="http://www.w3.org/1999/xlink">
<g id="graph0" class="graph" transform="scale(1 1) rotate(0) translate(4 264)">
<title>sisi4s::Mp2NaturalOrbitals::run</title>
<!-- Node1 -->
<g id="node1" class="node">
<title>Node1</title>
<g id="a_node1"><a xlink:title="Calculates MP2 energy from Coulomb integrals Vabij.">
<polygon fill="#999999" stroke="#666666" points="167,-134.5 0,-134.5 0,-115.5 167,-115.5 167,-134.5"/>
<text text-anchor="middle" x="83.5" y="-122.5" font-family="Helvetica,sans-Serif" font-size="10.00">sisi4s::Mp2NaturalOrbitals::run</text>
</a>
</g>
</g>
<!-- Node2 -->
<g id="node2" class="node">
<title>Node2</title>
<g id="a_node2"><a xlink:href="classsisi4s_1_1Algorithm.html#a388052a12509b8b641f17bbe8d41f8f3" target="_top" xlink:title="Specifies the location of an output tensor data.">
<polygon fill="white" stroke="#666666" points="344,-260 203,-260 203,-230 344,-230 344,-260"/>
<text text-anchor="start" x="211" y="-248" font-family="Helvetica,sans-Serif" font-size="10.00">sisi4s::Algorithm::</text>
<text text-anchor="middle" x="273.5" y="-237" font-family="Helvetica,sans-Serif" font-size="10.00">allocatedTensorArgument</text>
</a>
</g>
</g>
<!-- Node1&#45;&gt;Node2 -->
<g id="edge1" class="edge">
<title>Node1&#45;&gt;Node2</title>
<path fill="none" stroke="#63b8ff" d="M94.08,-134.78C113.19,-153.8 158.09,-196.07 203,-221 206.05,-222.69 209.24,-224.3 212.51,-225.81"/>
<polygon fill="#63b8ff" stroke="#63b8ff" points="211.29,-229.1 221.86,-229.85 214.07,-222.68 211.29,-229.1"/>
</g>
<!-- Node6 -->
<g id="node6" class="node">
<title>Node6</title>
<g id="a_node6"><a xlink:href="Lapack_8hpp.html#a5dd7884f39150c29793947da3b7a78f4" target="_top" xlink:title=" ">
<polygon fill="white" stroke="#666666" points="299,-67.5 248,-67.5 248,-48.5 299,-48.5 299,-67.5"/>
<text text-anchor="middle" x="273.5" y="-55.5" font-family="Helvetica,sans-Serif" font-size="10.00">dsyev_</text>
</a>
</g>
</g>
<!-- Node1&#45;&gt;Node6 -->
<g id="edge5" class="edge">
<title>Node1&#45;&gt;Node6</title>
<path fill="none" stroke="#63b8ff" d="M106.05,-115.37C129.58,-105.08 168.51,-88.65 203,-77 214.25,-73.2 226.71,-69.6 237.95,-66.58"/>
<polygon fill="#63b8ff" stroke="#63b8ff" points="239.06,-69.91 247.84,-63.98 237.28,-63.14 239.06,-69.91"/>
</g>
<!-- Node7 -->
<g id="node7" class="node">
<title>Node7</title>
<g id="a_node7"><a xlink:href="classsisi4s_1_1Algorithm.html#a5db14be3b0d33bf80218a37223e27667" target="_top" xlink:title=" ">
<polygon fill="white" stroke="#666666" points="331,-212 216,-212 216,-182 331,-182 331,-212"/>
<text text-anchor="start" x="224" y="-200" font-family="Helvetica,sans-Serif" font-size="10.00">sisi4s::Algorithm::</text>
<text text-anchor="middle" x="273.5" y="-189" font-family="Helvetica,sans-Serif" font-size="10.00">getIntegerArgument</text>
</a>
</g>
</g>
<!-- Node1&#45;&gt;Node7 -->
<g id="edge6" class="edge">
<title>Node1&#45;&gt;Node7</title>
<path fill="none" stroke="#63b8ff" d="M107.08,-134.56C130.82,-144.51 169.33,-160.38 203,-173 207.88,-174.83 212.97,-176.69 218.08,-178.51"/>
<polygon fill="#63b8ff" stroke="#63b8ff" points="217.29,-181.95 227.88,-181.98 219.62,-175.35 217.29,-181.95"/>
</g>
<!-- Node9 -->
<g id="node9" class="node">
<title>Node9</title>
<g id="a_node9"><a xlink:href="classsisi4s_1_1Algorithm.html#a36c632fbb19dae4ce2f415705fa5cbcb" target="_top" xlink:title=" ">
<polygon fill="white" stroke="#666666" points="325.5,-116 221.5,-116 221.5,-86 325.5,-86 325.5,-116"/>
<text text-anchor="start" x="229.5" y="-104" font-family="Helvetica,sans-Serif" font-size="10.00">sisi4s::Algorithm::</text>
<text text-anchor="middle" x="273.5" y="-93" font-family="Helvetica,sans-Serif" font-size="10.00">getRealArgument</text>
</a>
</g>
</g>
<!-- Node1&#45;&gt;Node9 -->
<g id="edge9" class="edge">
<title>Node1&#45;&gt;Node9</title>
<path fill="none" stroke="#63b8ff" d="M159.07,-115.48C176.39,-113.27 194.63,-110.94 211.3,-108.81"/>
<polygon fill="#63b8ff" stroke="#63b8ff" points="211.97,-112.26 221.45,-107.52 211.09,-105.31 211.97,-112.26"/>
</g>
<!-- Node12 -->
<g id="node12" class="node">
<title>Node12</title>
<g id="a_node12"><a xlink:href="classsisi4s_1_1Algorithm.html#a338a44c8fd4d6be3b32a6d5e71dfe180" target="_top" xlink:title=" ">
<polygon fill="white" stroke="#666666" points="329.5,-164 217.5,-164 217.5,-134 329.5,-134 329.5,-164"/>
<text text-anchor="start" x="225.5" y="-152" font-family="Helvetica,sans-Serif" font-size="10.00">sisi4s::Algorithm::</text>
<text text-anchor="middle" x="273.5" y="-141" font-family="Helvetica,sans-Serif" font-size="10.00">getTensorArgument</text>
</a>
</g>
</g>
<!-- Node1&#45;&gt;Node12 -->
<g id="edge14" class="edge">
<title>Node1&#45;&gt;Node12</title>
<path fill="none" stroke="#63b8ff" d="M159.07,-134.52C175.05,-136.56 191.81,-138.7 207.4,-140.69"/>
<polygon fill="#63b8ff" stroke="#63b8ff" points="207.09,-144.18 217.45,-141.97 207.98,-137.23 207.09,-144.18"/>
</g>
<!-- Node13 -->
<g id="node13" class="node">
<title>Node13</title>
<g id="a_node13"><a xlink:href="classsisi4s_1_1Algorithm.html#aec9041b31cb64a42ee1fd79d32774266" target="_top" xlink:title=" ">
<polygon fill="white" stroke="#666666" points="325.5,-30 221.5,-30 221.5,0 325.5,0 325.5,-30"/>
<text text-anchor="start" x="229.5" y="-18" font-family="Helvetica,sans-Serif" font-size="10.00">sisi4s::Algorithm::</text>
<text text-anchor="middle" x="273.5" y="-7" font-family="Helvetica,sans-Serif" font-size="10.00">isArgumentGiven</text>
</a>
</g>
</g>
<!-- Node1&#45;&gt;Node13 -->
<g id="edge17" class="edge">
<title>Node1&#45;&gt;Node13</title>
<path fill="none" stroke="#63b8ff" d="M95.53,-115.25C115.64,-97.88 160.16,-61.31 203,-39 206.47,-37.19 210.1,-35.48 213.81,-33.85"/>
<polygon fill="#63b8ff" stroke="#63b8ff" points="215.22,-37.06 223.13,-30.01 212.55,-30.59 215.22,-37.06"/>
</g>
<!-- Node3 -->
<g id="node3" class="node">
<title>Node3</title>
<g id="a_node3"><a xlink:href="classsisi4s_1_1Algorithm.html#a1e53277220d32a33e20846267c253652" target="_top" xlink:title=" ">
<polygon fill="white" stroke="#666666" points="512.5,-210 408.5,-210 408.5,-180 512.5,-180 512.5,-210"/>
<text text-anchor="start" x="416.5" y="-198" font-family="Helvetica,sans-Serif" font-size="10.00">sisi4s::Algorithm::</text>
<text text-anchor="middle" x="460.5" y="-187" font-family="Helvetica,sans-Serif" font-size="10.00">getArgumentData</text>
</a>
</g>
</g>
<!-- Node2&#45;&gt;Node3 -->
<g id="edge2" class="edge">
<title>Node2&#45;&gt;Node3</title>
<path fill="none" stroke="#63b8ff" d="M330.01,-230C351.6,-224.16 376.42,-217.45 398.52,-211.48"/>
<polygon fill="#63b8ff" stroke="#63b8ff" points="399.71,-214.78 408.45,-208.8 397.89,-208.03 399.71,-214.78"/>
</g>
<!-- Node5 -->
<g id="node5" class="node">
<title>Node5</title>
<g id="a_node5"><a xlink:href="classsisi4s_1_1Data.html#a10819dce08cb4dd8d881b9fe02036d69" target="_top" xlink:title=" ">
<polygon fill="white" stroke="#666666" points="523,-254.5 398,-254.5 398,-235.5 523,-235.5 523,-254.5"/>
<text text-anchor="middle" x="460.5" y="-242.5" font-family="Helvetica,sans-Serif" font-size="10.00">sisi4s::Data::getName</text>
</a>
</g>
</g>
<!-- Node2&#45;&gt;Node5 -->
<g id="edge4" class="edge">
<title>Node2&#45;&gt;Node5</title>
<path fill="none" stroke="#63b8ff" d="M344.18,-245C358.35,-245 373.29,-245 387.55,-245"/>
<polygon fill="#63b8ff" stroke="#63b8ff" points="387.78,-248.5 397.78,-245 387.78,-241.5 387.78,-248.5"/>
</g>
<!-- Node4 -->
<g id="node4" class="node">
<title>Node4</title>
<g id="a_node4"><a xlink:href="classsisi4s_1_1Data.html#a5b4676e48b4f437d399587e6903f896a" target="_top" xlink:title=" ">
<polygon fill="white" stroke="#666666" points="672,-204.5 577,-204.5 577,-185.5 672,-185.5 672,-204.5"/>
<text text-anchor="middle" x="624.5" y="-192.5" font-family="Helvetica,sans-Serif" font-size="10.00">sisi4s::Data::get</text>
</a>
</g>
</g>
<!-- Node3&#45;&gt;Node4 -->
<g id="edge3" class="edge">
<title>Node3&#45;&gt;Node4</title>
<path fill="none" stroke="#63b8ff" d="M512.76,-195C529.96,-195 549.24,-195 566.83,-195"/>
<polygon fill="#63b8ff" stroke="#63b8ff" points="566.97,-198.5 576.97,-195 566.97,-191.5 566.97,-198.5"/>
</g>
<!-- Node7&#45;&gt;Node3 -->
<g id="edge7" class="edge">
<title>Node7&#45;&gt;Node3</title>
<path fill="none" stroke="#63b8ff" d="M331.01,-196.39C352.29,-196.16 376.59,-195.9 398.28,-195.66"/>
<polygon fill="#63b8ff" stroke="#63b8ff" points="398.4,-199.16 408.37,-195.55 398.33,-192.16 398.4,-199.16"/>
</g>
<!-- Node8 -->
<g id="node8" class="node">
<title>Node8</title>
<g id="a_node8"><a xlink:href="classsisi4s_1_1Data.html#a0ec0b1c7f2356fd43d82ee1dd0246789" target="_top" xlink:title=" ">
<polygon fill="white" stroke="#666666" points="534,-158.5 387,-158.5 387,-139.5 534,-139.5 534,-158.5"/>
<text text-anchor="middle" x="460.5" y="-146.5" font-family="Helvetica,sans-Serif" font-size="10.00">sisi4s::Data::getTypeName</text>
</a>
</g>
</g>
<!-- Node7&#45;&gt;Node8 -->
<g id="edge8" class="edge">
<title>Node7&#45;&gt;Node8</title>
<path fill="none" stroke="#63b8ff" d="M331.01,-182.34C357.25,-175.53 388.08,-167.53 412.95,-161.08"/>
<polygon fill="#63b8ff" stroke="#63b8ff" points="414.07,-164.4 422.87,-158.5 412.31,-157.63 414.07,-164.4"/>
</g>
<!-- Node9&#45;&gt;Node3 -->
<g id="edge10" class="edge">
<title>Node9&#45;&gt;Node3</title>
<path fill="none" stroke="#63b8ff" d="M325.79,-115.1C332.18,-117.89 338.43,-121.16 344,-125 364.53,-139.14 359.44,-153.91 380,-168 385.74,-171.93 392.1,-175.33 398.65,-178.27"/>
<polygon fill="#63b8ff" stroke="#63b8ff" points="397.75,-181.68 408.33,-182.24 400.41,-175.21 397.75,-181.68"/>
</g>
<!-- Node9&#45;&gt;Node8 -->
<g id="edge13" class="edge">
<title>Node9&#45;&gt;Node8</title>
<path fill="none" stroke="#63b8ff" d="M325.54,-114.24C352.85,-121.33 386.25,-129.99 412.86,-136.9"/>
<polygon fill="#63b8ff" stroke="#63b8ff" points="412.14,-140.33 422.7,-139.45 413.9,-133.55 412.14,-140.33"/>
</g>
<!-- Node10 -->
<g id="node10" class="node">
<title>Node10</title>
<g id="a_node10"><a xlink:href="classsisi4s_1_1Algorithm.html#a1cb9a5e8f19cd8e6b70bb06738ca9413" target="_top" xlink:title=" ">
<polygon fill="white" stroke="#666666" points="541,-71 380,-71 380,-41 541,-41 541,-71"/>
<text text-anchor="start" x="388" y="-59" font-family="Helvetica,sans-Serif" font-size="10.00">sisi4s::Algorithm::</text>
<text text-anchor="middle" x="460.5" y="-48" font-family="Helvetica,sans-Serif" font-size="10.00">getRealArgumentFromInteger</text>
</a>
</g>
</g>
<!-- Node9&#45;&gt;Node10 -->
<g id="edge11" class="edge">
<title>Node9&#45;&gt;Node10</title>
<path fill="none" stroke="#63b8ff" d="M325.54,-88.58C344.84,-83.89 367.17,-78.46 388,-73.39"/>
<polygon fill="#63b8ff" stroke="#63b8ff" points="388.88,-76.78 397.77,-71.02 387.22,-69.98 388.88,-76.78"/>
</g>
<!-- Node11 -->
<g id="node11" class="node">
<title>Node11</title>
<g id="a_node11"><a xlink:href="classsisi4s_1_1Algorithm.html#a89e59623f1c238a871a4fba19371be7d" target="_top" xlink:title=" ">
<polygon fill="white" stroke="#666666" points="539.5,-119 381.5,-119 381.5,-89 539.5,-89 539.5,-119"/>
<text text-anchor="start" x="389.5" y="-107" font-family="Helvetica,sans-Serif" font-size="10.00">sisi4s::Algorithm::</text>
<text text-anchor="middle" x="460.5" y="-96" font-family="Helvetica,sans-Serif" font-size="10.00">getRealArgumentFromTensor</text>
</a>
</g>
</g>
<!-- Node9&#45;&gt;Node11 -->
<g id="edge12" class="edge">
<title>Node9&#45;&gt;Node11</title>
<path fill="none" stroke="#63b8ff" d="M325.54,-101.83C339.67,-102.06 355.42,-102.31 371.02,-102.57"/>
<polygon fill="#63b8ff" stroke="#63b8ff" points="371.17,-106.07 381.23,-102.73 371.28,-99.07 371.17,-106.07"/>
</g>
<!-- Node12&#45;&gt;Node3 -->
<g id="edge15" class="edge">
<title>Node12&#45;&gt;Node3</title>
<path fill="none" stroke="#63b8ff" d="M329.51,-162.68C351.12,-168.05 376.02,-174.24 398.21,-179.76"/>
<polygon fill="#63b8ff" stroke="#63b8ff" points="397.64,-183.22 408.19,-182.24 399.33,-176.43 397.64,-183.22"/>
</g>
<!-- Node12&#45;&gt;Node8 -->
<g id="edge16" class="edge">
<title>Node12&#45;&gt;Node8</title>
<path fill="none" stroke="#63b8ff" d="M329.51,-149C344.27,-149 360.57,-149 376.49,-149"/>
<polygon fill="#63b8ff" stroke="#63b8ff" points="376.88,-152.5 386.88,-149 376.88,-145.5 376.88,-152.5"/>
</g>
</g>
</svg>
