<?xml version="1.0" encoding="UTF-8" standalone="no"?>
<!DOCTYPE svg PUBLIC "-//W3C//DTD SVG 1.1//EN"
 "http://www.w3.org/Graphics/SVG/1.1/DTD/svg11.dtd">
<!-- Generated by graphviz version 5.0.1 (0)
 -->
<!-- Title: sisi4s::LapackMatrix::getColumns Pages: 1 -->
<svg width="554pt" height="264pt"
 viewBox="0.00 0.00 554.00 263.50" xmlns="http://www.w3.org/2000/svg" xmlns:xlink="http://www.w3.org/1999/xlink">
<g id="graph0" class="graph" transform="scale(1 1) rotate(0) translate(4 259.5)">
<title>sisi4s::LapackMatrix::getColumns</title>
<!-- Node1 -->
<g id="node1" class="node">
<title>Node1</title>
<g id="a_node1"><a xlink:title=" ">
<polygon fill="#bfbfbf" stroke="black" points="430,-101.5 430,-131.5 546,-131.5 546,-101.5 430,-101.5"/>
<text text-anchor="start" x="438" y="-119.5" font-family="Helvetica,sans-Serif" font-size="10.00">sisi4s::LapackMatrix</text>
<text text-anchor="middle" x="488" y="-108.5" font-family="Helvetica,sans-Serif" font-size="10.00">::getColumns</text>
</a>
</g>
</g>
<!-- Node2 -->
<g id="node2" class="node">
<title>Node2</title>
<g id="a_node2"><a xlink:href="classsisi4s_1_1LapackGeneralEigenSystem_3_01complex_01_4.html#a8542e1b930fbedc3a8986ff0dc240c18" target="_top" xlink:title=" ">
<polygon fill="none" stroke="black" points="197,-214 197,-255 394,-255 394,-214 197,-214"/>
<text text-anchor="start" x="205" y="-243" font-family="Helvetica,sans-Serif" font-size="10.00">sisi4s::LapackGeneralEigen</text>
<text text-anchor="start" x="205" y="-232" font-family="Helvetica,sans-Serif" font-size="10.00">System&lt; complex &gt;::LapackGeneral</text>
<text text-anchor="middle" x="295.5" y="-221" font-family="Helvetica,sans-Serif" font-size="10.00">EigenSystem</text>
</a>
</g>
</g>
<!-- Node1&#45;&gt;Node2 -->
<g id="edge1" class="edge">
<title>Node1&#45;&gt;Node2</title>
<path fill="none" stroke="midnightblue" d="M468.19,-139.48C450.83,-159.3 423.36,-187.37 394,-204.5 387.96,-208.03 381.46,-211.18 374.79,-213.99"/>
<polygon fill="midnightblue" stroke="midnightblue" points="470.92,-141.67 474.77,-131.8 465.6,-137.12 470.92,-141.67"/>
</g>
<!-- Node3 -->
<g id="node3" class="node">
<title>Node3</title>
<g id="a_node3"><a xlink:href="classsisi4s_1_1LapackInverse_3_01Complex64_01_4.html#ac46c62694eacb361ccae04d2adcebfb7" target="_top" xlink:title=" ">
<polygon fill="none" stroke="black" points="210,-164.5 210,-194.5 381,-194.5 381,-164.5 210,-164.5"/>
<text text-anchor="start" x="218" y="-182.5" font-family="Helvetica,sans-Serif" font-size="10.00">sisi4s::LapackInverse</text>
<text text-anchor="middle" x="295.5" y="-171.5" font-family="Helvetica,sans-Serif" font-size="10.00">&lt; Complex64 &gt;::LapackInverse</text>
</a>
</g>
</g>
<!-- Node1&#45;&gt;Node3 -->
<g id="edge2" class="edge">
<title>Node1&#45;&gt;Node3</title>
<path fill="none" stroke="midnightblue" d="M444.03,-135.49C428.44,-142 410.59,-149.01 394,-154.5 383.22,-158.07 371.62,-161.43 360.33,-164.47"/>
<polygon fill="midnightblue" stroke="midnightblue" points="445.56,-138.65 453.41,-131.53 442.83,-132.2 445.56,-138.65"/>
</g>
<!-- Node4 -->
<g id="node4" class="node">
<title>Node4</title>
<g id="a_node4"><a xlink:href="NaturalTransitionOrbitalsFromRhoAI_8cxx.html#a17a4374cc872225dc976a9c910f9e694" target="_top" xlink:title=" ">
<polygon fill="none" stroke="black" points="260.5,-126 260.5,-145 330.5,-145 330.5,-126 260.5,-126"/>
<text text-anchor="middle" x="295.5" y="-133" font-family="Helvetica,sans-Serif" font-size="10.00">logOverlap</text>
</a>
</g>
</g>
<!-- Node1&#45;&gt;Node4 -->
<g id="edge3" class="edge">
<title>Node1&#45;&gt;Node4</title>
<path fill="none" stroke="midnightblue" d="M419.8,-123.2C389.64,-126.21 355.37,-129.63 330.63,-132.1"/>
<polygon fill="midnightblue" stroke="midnightblue" points="420.24,-126.68 429.84,-122.2 419.55,-119.71 420.24,-126.68"/>
</g>
<!-- Node5 -->
<g id="node5" class="node">
<title>Node5</title>
<g id="a_node5"><a xlink:href="NaturalTransitionOrbitalsFromRhoAI_8cxx.html#a66116addded68ea64321206849fd47f4" target="_top" xlink:title=" ">
<polygon fill="none" stroke="black" points="248,-88 248,-107 343,-107 343,-88 248,-88"/>
<text text-anchor="middle" x="295.5" y="-95" font-family="Helvetica,sans-Serif" font-size="10.00">logVectorNorms</text>
</a>
</g>
</g>
<!-- Node1&#45;&gt;Node5 -->
<g id="edge4" class="edge">
<title>Node1&#45;&gt;Node5</title>
<path fill="none" stroke="midnightblue" d="M419.57,-109.77C394.25,-107.25 366.06,-104.44 343.06,-102.14"/>
<polygon fill="midnightblue" stroke="midnightblue" points="419.55,-113.29 429.84,-110.8 420.24,-106.32 419.55,-113.29"/>
</g>
<!-- Node6 -->
<g id="node6" class="node">
<title>Node6</title>
<g id="a_node6"><a xlink:href="namespacesisi4s.html#ad8f97234396d606aceaefe0bb5473fcb" target="_top" xlink:title=" ">
<polygon fill="none" stroke="black" points="247,-50 247,-69 344,-69 344,-50 247,-50"/>
<text text-anchor="middle" x="295.5" y="-57" font-family="Helvetica,sans-Serif" font-size="10.00">sisi4s::operator*</text>
</a>
</g>
</g>
<!-- Node1&#45;&gt;Node6 -->
<g id="edge5" class="edge">
<title>Node1&#45;&gt;Node6</title>
<path fill="none" stroke="midnightblue" d="M444.97,-97.29C429.22,-90.64 411.02,-83.58 394,-78.5 377.97,-73.71 360.09,-69.83 344.06,-66.84"/>
<polygon fill="midnightblue" stroke="midnightblue" points="443.85,-100.62 454.42,-101.36 446.62,-94.19 443.85,-100.62"/>
</g>
<!-- Node7 -->
<g id="node7" class="node">
<title>Node7</title>
<g id="a_node7"><a xlink:href="classsisi4s_1_1EigenSystemDavidsonMono.html#ae374662234b193df4dbfadedbce69beb" target="_top" xlink:title=" ">
<polygon fill="none" stroke="black" points="215.5,-0.5 215.5,-30.5 375.5,-30.5 375.5,-0.5 215.5,-0.5"/>
<text text-anchor="start" x="223.5" y="-18.5" font-family="Helvetica,sans-Serif" font-size="10.00">sisi4s::EigenSystemDavidson</text>
<text text-anchor="middle" x="295.5" y="-7.5" font-family="Helvetica,sans-Serif" font-size="10.00">Mono::run</text>
</a>
</g>
</g>
<!-- Node1&#45;&gt;Node7 -->
<g id="edge6" class="edge">
<title>Node1&#45;&gt;Node7</title>
<path fill="none" stroke="midnightblue" d="M465.18,-93.96C447.48,-76.93 421.11,-54.21 394,-40.5 386.36,-36.64 378.07,-33.34 369.66,-30.53"/>
<polygon fill="midnightblue" stroke="midnightblue" points="463.09,-96.81 472.67,-101.34 468,-91.83 463.09,-96.81"/>
</g>
<!-- Node8 -->
<g id="node8" class="node">
<title>Node8</title>
<g id="a_node8"><a xlink:href="classsisi4s_1_1CcsdEquationOfMotionDavidson.html#a418beaea4a3a3fe7cf890ba392a7d6ef" target="_top" xlink:title=" ">
<polygon fill="none" stroke="black" points="0,-0.5 0,-30.5 161,-30.5 161,-0.5 0,-0.5"/>
<text text-anchor="start" x="8" y="-18.5" font-family="Helvetica,sans-Serif" font-size="10.00">sisi4s::CcsdEquationOfMotion</text>
<text text-anchor="middle" x="80.5" y="-7.5" font-family="Helvetica,sans-Serif" font-size="10.00">Davidson::run</text>
</a>
</g>
</g>
<!-- Node7&#45;&gt;Node8 -->
<g id="edge7" class="edge">
<title>Node7&#45;&gt;Node8</title>
<path fill="none" stroke="midnightblue" d="M205.4,-15.5C190.7,-15.5 175.54,-15.5 161.09,-15.5"/>
<polygon fill="midnightblue" stroke="midnightblue" points="205.49,-19 215.49,-15.5 205.49,-12 205.49,-19"/>
</g>
</g>
</svg>
