<?xml version="1.0" encoding="UTF-8" standalone="no"?>
<!DOCTYPE svg PUBLIC "-//W3C//DTD SVG 1.1//EN"
 "http://www.w3.org/Graphics/SVG/1.1/DTD/svg11.dtd">
<!-- Generated by graphviz version 9.0.0 (0)
 -->
<!-- Title: sisi4s::CcsdEnergyFromCoulombIntegrals Pages: 1 -->
<svg width="464pt" height="1058pt"
 viewBox="0.00 0.00 463.75 1058.25" xmlns="http://www.w3.org/2000/svg" xmlns:xlink="http://www.w3.org/1999/xlink">
<g id="graph0" class="graph" transform="scale(1 1) rotate(0) translate(4 1054.25)">
<title>sisi4s::CcsdEnergyFromCoulombIntegrals</title>
<!-- Node1 -->
<g id="Node000001" class="node">
<title>Node1</title>
<g id="a_Node000001"><a xlink:title="Implements the iteration routine for the Ccsd method. Calculates the amplitudes &#160;and &#160;from the Coulom...">
<polygon fill="#999999" stroke="none" points="304.5,-161 101.5,-161 101.5,0 304.5,0 304.5,-161"/>
<text text-anchor="start" x="123.5" y="-147.5" font-family="Helvetica,sans-Serif" font-size="10.00">sisi4s::CcsdEnergyFromCoulomb</text>
<text text-anchor="start" x="181.62" y="-134.75" font-family="Helvetica,sans-Serif" font-size="10.00">Integrals</text>
<text text-anchor="start" x="105.38" y="-118.5" font-family="Helvetica,sans-Serif" font-size="10.00">+</text>
<text text-anchor="start" x="117.5" y="-118.5" font-family="Helvetica,sans-Serif" font-size="10.00">DEFAULT_SLICE_SIZE</text>
<text text-anchor="start" x="105.38" y="-102.5" font-family="Helvetica,sans-Serif" font-size="10.00">+</text>
<text text-anchor="start" x="117.5" y="-102.5" font-family="Helvetica,sans-Serif" font-size="10.00">DEFAULT_DISTINGUISHABLE</text>
<text text-anchor="start" x="105.38" y="-86.5" font-family="Helvetica,sans-Serif" font-size="10.00">+</text>
<text text-anchor="start" x="117.5" y="-86.5" font-family="Helvetica,sans-Serif" font-size="10.00">getName()</text>
<text text-anchor="start" x="105.38" y="-70.5" font-family="Helvetica,sans-Serif" font-size="10.00">+</text>
<text text-anchor="start" x="117.5" y="-70.5" font-family="Helvetica,sans-Serif" font-size="10.00">CcsdEnergyFromCoulombIntegrals()</text>
<text text-anchor="start" x="105.38" y="-54.5" font-family="Helvetica,sans-Serif" font-size="10.00">+</text>
<text text-anchor="start" x="117.5" y="-54.5" font-family="Helvetica,sans-Serif" font-size="10.00">~CcsdEnergyFromCoulombIntegrals()</text>
<text text-anchor="start" x="105.38" y="-38.5" font-family="Helvetica,sans-Serif" font-size="10.00">+</text>
<text text-anchor="start" x="117.5" y="-38.5" font-family="Helvetica,sans-Serif" font-size="10.00">getAbbreviation()</text>
<text text-anchor="start" x="105.38" y="-22.5" font-family="Helvetica,sans-Serif" font-size="10.00">#</text>
<text text-anchor="start" x="117.5" y="-22.5" font-family="Helvetica,sans-Serif" font-size="10.00">getResiduum()</text>
<text text-anchor="start" x="105.38" y="-6.5" font-family="Helvetica,sans-Serif" font-size="10.00">#</text>
<text text-anchor="start" x="117.5" y="-6.5" font-family="Helvetica,sans-Serif" font-size="10.00">getResiduum()</text>
<polygon fill="#666666" stroke="#666666" points="101.5,-130 101.5,-130 304.5,-130 304.5,-130 101.5,-130"/>
<polygon fill="#666666" stroke="#666666" points="101.5,-98 101.5,-98 115.5,-98 115.5,-98 101.5,-98"/>
<polygon fill="#666666" stroke="#666666" points="115.5,-98 115.5,-98 304.5,-98 304.5,-98 115.5,-98"/>
<polygon fill="none" stroke="#666666" points="101.5,0 101.5,-161 304.5,-161 304.5,0 101.5,0"/>
</a>
</g>
</g>
<!-- Node2 -->
<g id="Node000002" class="node">
<title>Node2</title>
<g id="a_Node000002"><a xlink:href="classsisi4s_1_1ClusterSinglesDoublesAlgorithm.html" target="_top" xlink:title="Contains all the necessary tools for an algorithm with singles and doubles amplitudes....">
<polygon fill="white" stroke="none" points="200,-559.75 0,-559.75 0,-209.75 200,-209.75 200,-559.75"/>
<text text-anchor="start" x="28.38" y="-546.25" font-family="Helvetica,sans-Serif" font-size="10.00">sisi4s::ClusterSinglesDoubles</text>
<text text-anchor="start" x="76" y="-533.5" font-family="Helvetica,sans-Serif" font-size="10.00">Algorithm</text>
<text text-anchor="start" x="3.88" y="-517.25" font-family="Helvetica,sans-Serif" font-size="10.00">+</text>
<text text-anchor="start" x="16" y="-517.25" font-family="Helvetica,sans-Serif" font-size="10.00">DEFAULT_MAX_ITERATIONS</text>
<text text-anchor="start" x="3.88" y="-501.25" font-family="Helvetica,sans-Serif" font-size="10.00">+</text>
<text text-anchor="start" x="16" y="-501.25" font-family="Helvetica,sans-Serif" font-size="10.00">DEFAULT_ENERGY_CONVERGENCE</text>
<text text-anchor="start" x="3.88" y="-485.25" font-family="Helvetica,sans-Serif" font-size="10.00">+</text>
<text text-anchor="start" x="16" y="-485.25" font-family="Helvetica,sans-Serif" font-size="10.00">DEFAULT_AMPLITUDES</text>
<text text-anchor="start" x="16" y="-472.5" font-family="Helvetica,sans-Serif" font-size="10.00">_CONVERGENCE</text>
<text text-anchor="start" x="3.88" y="-456.25" font-family="Helvetica,sans-Serif" font-size="10.00">+</text>
<text text-anchor="start" x="16" y="-456.25" font-family="Helvetica,sans-Serif" font-size="10.00">DEFAULT_LEVEL_SHIFT</text>
<text text-anchor="start" x="3.88" y="-440.25" font-family="Helvetica,sans-Serif" font-size="10.00">+</text>
<text text-anchor="start" x="16" y="-440.25" font-family="Helvetica,sans-Serif" font-size="10.00">ClusterSinglesDoublesAlgorithm()</text>
<text text-anchor="start" x="3.88" y="-424.25" font-family="Helvetica,sans-Serif" font-size="10.00">+</text>
<text text-anchor="start" x="16" y="-424.25" font-family="Helvetica,sans-Serif" font-size="10.00">~ClusterSinglesDoublesAlgorithm()</text>
<text text-anchor="start" x="3.88" y="-408.25" font-family="Helvetica,sans-Serif" font-size="10.00">+</text>
<text text-anchor="start" x="16" y="-408.25" font-family="Helvetica,sans-Serif" font-size="10.00">run()</text>
<text text-anchor="start" x="3.88" y="-392.25" font-family="Helvetica,sans-Serif" font-size="10.00">+</text>
<text text-anchor="start" x="16" y="-392.25" font-family="Helvetica,sans-Serif" font-size="10.00">getAbbreviation()</text>
<text text-anchor="start" x="3.88" y="-376.25" font-family="Helvetica,sans-Serif" font-size="10.00">#</text>
<text text-anchor="start" x="16" y="-376.25" font-family="Helvetica,sans-Serif" font-size="10.00">run()</text>
<text text-anchor="start" x="3.88" y="-360.25" font-family="Helvetica,sans-Serif" font-size="10.00">#</text>
<text text-anchor="start" x="16" y="-360.25" font-family="Helvetica,sans-Serif" font-size="10.00">getResiduum()</text>
<text text-anchor="start" x="3.88" y="-344.25" font-family="Helvetica,sans-Serif" font-size="10.00">#</text>
<text text-anchor="start" x="16" y="-344.25" font-family="Helvetica,sans-Serif" font-size="10.00">getResiduum()</text>
<text text-anchor="start" x="3.88" y="-328.25" font-family="Helvetica,sans-Serif" font-size="10.00">#</text>
<text text-anchor="start" x="16" y="-328.25" font-family="Helvetica,sans-Serif" font-size="10.00">getEnergy()</text>
<text text-anchor="start" x="3.88" y="-312.25" font-family="Helvetica,sans-Serif" font-size="10.00">#</text>
<text text-anchor="start" x="16" y="-312.25" font-family="Helvetica,sans-Serif" font-size="10.00">estimateAmplitudesFromResiduum()</text>
<text text-anchor="start" x="3.88" y="-296.25" font-family="Helvetica,sans-Serif" font-size="10.00">#</text>
<text text-anchor="start" x="16" y="-296.25" font-family="Helvetica,sans-Serif" font-size="10.00">calculateExcitationEnergies()</text>
<text text-anchor="start" x="3.88" y="-280.25" font-family="Helvetica,sans-Serif" font-size="10.00">#</text>
<text text-anchor="start" x="16" y="-280.25" font-family="Helvetica,sans-Serif" font-size="10.00">dryAmplitudesFromResiduum()</text>
<text text-anchor="start" x="3.88" y="-264.25" font-family="Helvetica,sans-Serif" font-size="10.00">#</text>
<text text-anchor="start" x="16" y="-264.25" font-family="Helvetica,sans-Serif" font-size="10.00">createAmplitudes()</text>
<text text-anchor="start" x="3.88" y="-248.25" font-family="Helvetica,sans-Serif" font-size="10.00">#</text>
<text text-anchor="start" x="16" y="-248.25" font-family="Helvetica,sans-Serif" font-size="10.00">storeAmplitudes()</text>
<text text-anchor="start" x="3.88" y="-232.25" font-family="Helvetica,sans-Serif" font-size="10.00">#</text>
<text text-anchor="start" x="16" y="-232.25" font-family="Helvetica,sans-Serif" font-size="10.00">sliceCoupledCoulombIntegrals()</text>
<text text-anchor="start" x="16" y="-216.25" font-family="Helvetica,sans-Serif" font-size="10.00">and 6 more...</text>
<polygon fill="#666666" stroke="#666666" points="0,-528.75 0,-528.75 200,-528.75 200,-528.75 0,-528.75"/>
<polygon fill="#666666" stroke="#666666" points="0,-451.75 0,-451.75 14,-451.75 14,-451.75 0,-451.75"/>
<polygon fill="#666666" stroke="#666666" points="14,-451.75 14,-451.75 200,-451.75 200,-451.75 14,-451.75"/>
<polygon fill="none" stroke="#666666" points="0,-209.75 0,-559.75 200,-559.75 200,-209.75 0,-209.75"/>
</a>
</g>
</g>
<!-- Node2&#45;&gt;Node1 -->
<g id="edge1_Node000001_Node000002" class="edge">
<title>Node2&#45;&gt;Node1</title>
<g id="a_edge1_Node000001_Node000002"><a xlink:title=" ">
<path fill="none" stroke="#63b8ff" d="M162.84,-199.36C167.38,-186.02 171.8,-173.05 175.94,-160.89"/>
<polygon fill="none" stroke="#63b8ff" points="159.57,-198.09 159.66,-208.69 166.2,-200.35 159.57,-198.09"/>
</a>
</g>
</g>
<!-- Node3 -->
<g id="Node000003" class="node">
<title>Node3</title>
<g id="a_Node000003"><a xlink:href="classsisi4s_1_1Algorithm.html" target="_top" xlink:title=" ">
<polygon fill="white" stroke="none" points="186,-929.25 14,-929.25 14,-621.25 186,-621.25 186,-929.25"/>
<text text-anchor="start" x="59.12" y="-915.75" font-family="Helvetica,sans-Serif" font-size="10.00">sisi4s::Algorithm</text>
<text text-anchor="start" x="17.88" y="-899.75" font-family="Helvetica,sans-Serif" font-size="10.00">+</text>
<text text-anchor="start" x="30" y="-899.75" font-family="Helvetica,sans-Serif" font-size="10.00">note</text>
<text text-anchor="start" x="17.88" y="-883.75" font-family="Helvetica,sans-Serif" font-size="10.00">+</text>
<text text-anchor="start" x="30" y="-883.75" font-family="Helvetica,sans-Serif" font-size="10.00">fallible</text>
<text text-anchor="start" x="17.88" y="-867.75" font-family="Helvetica,sans-Serif" font-size="10.00">#</text>
<text text-anchor="start" x="30" y="-867.75" font-family="Helvetica,sans-Serif" font-size="10.00">arguments</text>
<text text-anchor="start" x="17.88" y="-851.75" font-family="Helvetica,sans-Serif" font-size="10.00">+</text>
<text text-anchor="start" x="30" y="-851.75" font-family="Helvetica,sans-Serif" font-size="10.00">Algorithm()</text>
<text text-anchor="start" x="17.88" y="-835.75" font-family="Helvetica,sans-Serif" font-size="10.00">+</text>
<text text-anchor="start" x="30" y="-835.75" font-family="Helvetica,sans-Serif" font-size="10.00">~Algorithm()</text>
<text text-anchor="start" x="17.88" y="-819.75" font-family="Helvetica,sans-Serif" font-size="10.00">+</text>
<text text-anchor="start" x="30" y="-819.75" font-family="Helvetica,sans-Serif" font-size="10.00">getName()</text>
<text text-anchor="start" x="17.88" y="-803.75" font-family="Helvetica,sans-Serif" font-size="10.00">+</text>
<text text-anchor="start" x="30" y="-803.75" font-family="Helvetica,sans-Serif" font-size="10.00">run()</text>
<text text-anchor="start" x="17.88" y="-787.75" font-family="Helvetica,sans-Serif" font-size="10.00">+</text>
<text text-anchor="start" x="30" y="-787.75" font-family="Helvetica,sans-Serif" font-size="10.00">dryRun()</text>
<text text-anchor="start" x="17.88" y="-771.75" font-family="Helvetica,sans-Serif" font-size="10.00">+</text>
<text text-anchor="start" x="30" y="-771.75" font-family="Helvetica,sans-Serif" font-size="10.00">isArgumentGiven()</text>
<text text-anchor="start" x="17.88" y="-755.75" font-family="Helvetica,sans-Serif" font-size="10.00">+</text>
<text text-anchor="start" x="30" y="-755.75" font-family="Helvetica,sans-Serif" font-size="10.00">getTextArgument()</text>
<text text-anchor="start" x="17.88" y="-739.75" font-family="Helvetica,sans-Serif" font-size="10.00">+</text>
<text text-anchor="start" x="30" y="-739.75" font-family="Helvetica,sans-Serif" font-size="10.00">getTextArgument()</text>
<text text-anchor="start" x="17.88" y="-723.75" font-family="Helvetica,sans-Serif" font-size="10.00">+</text>
<text text-anchor="start" x="30" y="-723.75" font-family="Helvetica,sans-Serif" font-size="10.00">getBooleanArgument()</text>
<text text-anchor="start" x="17.88" y="-707.75" font-family="Helvetica,sans-Serif" font-size="10.00">+</text>
<text text-anchor="start" x="30" y="-707.75" font-family="Helvetica,sans-Serif" font-size="10.00">getBooleanArgument()</text>
<text text-anchor="start" x="30" y="-691.75" font-family="Helvetica,sans-Serif" font-size="10.00">and 12 more...</text>
<text text-anchor="start" x="17.88" y="-675.75" font-family="Helvetica,sans-Serif" font-size="10.00">#</text>
<text text-anchor="start" x="30" y="-675.75" font-family="Helvetica,sans-Serif" font-size="10.00">getRealArgumentFromInteger()</text>
<text text-anchor="start" x="17.88" y="-659.75" font-family="Helvetica,sans-Serif" font-size="10.00">#</text>
<text text-anchor="start" x="30" y="-659.75" font-family="Helvetica,sans-Serif" font-size="10.00">getRealArgumentFromTensor()</text>
<text text-anchor="start" x="17.88" y="-643.75" font-family="Helvetica,sans-Serif" font-size="10.00">#</text>
<text text-anchor="start" x="30" y="-643.75" font-family="Helvetica,sans-Serif" font-size="10.00">getTensorArgumentFromReal()</text>
<text text-anchor="start" x="17.88" y="-627.75" font-family="Helvetica,sans-Serif" font-size="10.00">#</text>
<text text-anchor="start" x="30" y="-627.75" font-family="Helvetica,sans-Serif" font-size="10.00">getArgumentData()</text>
<polygon fill="#666666" stroke="#666666" points="14,-911.25 14,-911.25 186,-911.25 186,-911.25 14,-911.25"/>
<polygon fill="#666666" stroke="#666666" points="14,-863.25 14,-863.25 28,-863.25 28,-863.25 14,-863.25"/>
<polygon fill="#666666" stroke="#666666" points="28,-863.25 28,-863.25 186,-863.25 186,-863.25 28,-863.25"/>
<polygon fill="none" stroke="#666666" points="14,-621.25 14,-929.25 186,-929.25 186,-621.25 14,-621.25"/>
</a>
</g>
</g>
<!-- Node3&#45;&gt;Node2 -->
<g id="edge2_Node000002_Node000003" class="edge">
<title>Node3&#45;&gt;Node2</title>
<g id="a_edge2_Node000002_Node000003"><a xlink:title=" ">
<path fill="none" stroke="#63b8ff" d="M100,-609.8C100,-593.15 100,-576.21 100,-559.48"/>
<polygon fill="none" stroke="#63b8ff" points="96.5,-609.75 100,-619.75 103.5,-609.75 96.5,-609.75"/>
</a>
</g>
</g>
<!-- Node4 -->
<g id="Node000004" class="node">
<title>Node4</title>
<g id="a_Node000004"><a xlink:href="classsisi4s_1_1AlgorithmRegistrar.html" target="_top" xlink:title=" ">
<polygon fill="white" stroke="none" points="398,-423.75 218,-423.75 218,-345.75 398,-345.75 398,-423.75"/>
<text text-anchor="start" x="222.88" y="-410.25" font-family="Helvetica,sans-Serif" font-size="10.00">sisi4s::AlgorithmRegistrar</text>
<text text-anchor="start" x="222.88" y="-397.5" font-family="Helvetica,sans-Serif" font-size="10.00">&lt; sisi4s::CcsdEnergyFromCoulomb</text>
<text text-anchor="start" x="281" y="-384.75" font-family="Helvetica,sans-Serif" font-size="10.00">Integrals &gt;</text>
<text text-anchor="start" x="306.5" y="-368.25" font-family="Helvetica,sans-Serif" font-size="10.00"> </text>
<text text-anchor="start" x="236.88" y="-352.25" font-family="Helvetica,sans-Serif" font-size="10.00">+</text>
<text text-anchor="start" x="264" y="-352.25" font-family="Helvetica,sans-Serif" font-size="10.00">AlgorithmRegistrar()</text>
<polygon fill="#666666" stroke="#666666" points="218,-379.75 218,-379.75 398,-379.75 398,-379.75 218,-379.75"/>
<polygon fill="#666666" stroke="#666666" points="218,-363.75 218,-363.75 398,-363.75 398,-363.75 218,-363.75"/>
<polygon fill="none" stroke="#666666" points="218,-345.75 218,-423.75 398,-423.75 398,-345.75 218,-345.75"/>
</a>
</g>
</g>
<!-- Node4&#45;&gt;Node1 -->
<g id="edge3_Node000001_Node000004" class="edge">
<title>Node4&#45;&gt;Node1</title>
<g id="a_edge3_Node000001_Node000004"><a xlink:title=" ">
<path fill="none" stroke="#63b8ff" d="M294.81,-345.78C279.84,-302.7 254.91,-230.93 234.8,-173.05"/>
<polygon fill="none" stroke="#63b8ff" points="234.82,-173.11 229.08,-168.75 230.89,-161.77 236.63,-166.13 234.82,-173.11"/>
</a>
</g>
<text text-anchor="middle" x="268.88" y="-182.25" font-family="Helvetica,sans-Serif" font-size="10.00" fill="grey"> +registrar_</text>
</g>
<!-- Node5 -->
<g id="Node000005" class="node">
<title>Node5</title>
<g id="a_Node000005"><a xlink:href="classsisi4s_1_1AlgorithmFactory.html" target="_top" xlink:title=" ">
<polygon fill="white" stroke="none" points="338.5,-1050.25 211.5,-1050.25 211.5,-966.25 338.5,-966.25 338.5,-1050.25"/>
<text text-anchor="start" x="216.5" y="-1036.75" font-family="Helvetica,sans-Serif" font-size="10.00">sisi4s::AlgorithmFactory</text>
<text text-anchor="start" x="215.88" y="-1020.75" font-family="Helvetica,sans-Serif" font-size="10.00">#</text>
<text text-anchor="start" x="228.5" y="-1020.75" font-family="Helvetica,sans-Serif" font-size="10.00">algorithmMap</text>
<text text-anchor="start" x="215.88" y="-1004.75" font-family="Helvetica,sans-Serif" font-size="10.00">+</text>
<text text-anchor="start" x="228.5" y="-1004.75" font-family="Helvetica,sans-Serif" font-size="10.00">create()</text>
<text text-anchor="start" x="215.88" y="-988.75" font-family="Helvetica,sans-Serif" font-size="10.00">+</text>
<text text-anchor="start" x="228.5" y="-988.75" font-family="Helvetica,sans-Serif" font-size="10.00">getAlgorithmNames()</text>
<text text-anchor="start" x="215.88" y="-972.75" font-family="Helvetica,sans-Serif" font-size="10.00">#</text>
<text text-anchor="start" x="228.5" y="-972.75" font-family="Helvetica,sans-Serif" font-size="10.00">getAlgorithmMap()</text>
<polygon fill="#666666" stroke="#666666" points="211.5,-1032.25 211.5,-1032.25 338.5,-1032.25 338.5,-1032.25 211.5,-1032.25"/>
<polygon fill="#666666" stroke="#666666" points="211.5,-1016.25 211.5,-1016.25 226.5,-1016.25 226.5,-1016.25 211.5,-1016.25"/>
<polygon fill="#666666" stroke="#666666" points="226.5,-1016.25 226.5,-1016.25 338.5,-1016.25 338.5,-1016.25 226.5,-1016.25"/>
<polygon fill="none" stroke="#666666" points="211.5,-966.25 211.5,-1050.25 338.5,-1050.25 338.5,-966.25 211.5,-966.25"/>
</a>
</g>
</g>
<!-- Node5&#45;&gt;Node4 -->
<g id="edge4_Node000004_Node000005" class="edge">
<title>Node5&#45;&gt;Node4</title>
<g id="a_edge4_Node000004_Node000005"><a xlink:title=" ">
<path fill="none" stroke="darkgreen" d="M266.64,-955.28C265.54,-946.61 264.59,-937.69 264,-929.25 254.42,-792.7 251.38,-757.56 264,-621.25 270.54,-550.64 287.89,-469.62 298.74,-423.38"/>
<polygon fill="none" stroke="darkgreen" points="263.14,-955.54 267.95,-964.98 270.08,-954.6 263.14,-955.54"/>
</a>
</g>
</g>
<!-- Node6 -->
<g id="Node000006" class="node">
<title>Node6</title>
<g id="a_Node000006"><a xlink:href="classsisi4s_1_1AlgorithmRegistrar.html" target="_top" xlink:title="Class to be statically instantiated by an algorithm to register it in the AlgorithmFactory....">
<polygon fill="white" stroke="none" points="409,-807.75 273,-807.75 273,-742.75 409,-742.75 409,-807.75"/>
<text text-anchor="start" x="278" y="-794.25" font-family="Helvetica,sans-Serif" font-size="10.00">sisi4s::AlgorithmRegistrar</text>
<text text-anchor="start" x="294.5" y="-781.5" font-family="Helvetica,sans-Serif" font-size="10.00">&lt; AlgorithmType &gt;</text>
<text text-anchor="start" x="339.5" y="-765.25" font-family="Helvetica,sans-Serif" font-size="10.00"> </text>
<text text-anchor="start" x="280.88" y="-749.25" font-family="Helvetica,sans-Serif" font-size="10.00">+</text>
<text text-anchor="start" x="297" y="-749.25" font-family="Helvetica,sans-Serif" font-size="10.00">AlgorithmRegistrar()</text>
<polygon fill="#666666" stroke="#666666" points="273,-776.75 273,-776.75 409,-776.75 409,-776.75 273,-776.75"/>
<polygon fill="#666666" stroke="#666666" points="273,-760.75 273,-760.75 409,-760.75 409,-760.75 273,-760.75"/>
<polygon fill="none" stroke="#666666" points="273,-742.75 273,-807.75 409,-807.75 409,-742.75 273,-742.75"/>
</a>
</g>
</g>
<!-- Node5&#45;&gt;Node6 -->
<g id="edge6_Node000006_Node000005" class="edge">
<title>Node5&#45;&gt;Node6</title>
<g id="a_edge6_Node000006_Node000005"><a xlink:title=" ">
<path fill="none" stroke="darkgreen" d="M289.73,-955.68C302.69,-910.32 321.14,-845.76 332.01,-807.72"/>
<polygon fill="none" stroke="darkgreen" points="286.45,-954.45 287.06,-965.03 293.18,-956.37 286.45,-954.45"/>
</a>
</g>
</g>
<!-- Node6&#45;&gt;Node4 -->
<g id="edge5_Node000004_Node000006" class="edge">
<title>Node6&#45;&gt;Node4</title>
<g id="a_edge5_Node000004_Node000006"><a xlink:title=" ">
<path fill="none" stroke="orange" d="M337.39,-731.72C330.91,-655.44 317.41,-496.57 311.23,-423.73"/>
<polygon fill="orange" stroke="orange" points="333.87,-731.61 338.2,-741.28 340.84,-731.02 333.87,-731.61"/>
</a>
</g>
<text text-anchor="start" x="326" y="-593.75" font-family="Helvetica,sans-Serif" font-size="10.00" fill="grey"> &lt; sisi4s::CcsdEnergyFrom</text>
<text text-anchor="middle" x="390.88" y="-581" font-family="Helvetica,sans-Serif" font-size="10.00" fill="grey">CoulombIntegrals &gt;</text>
</g>
</g>
</svg>
