<?xml version="1.0" encoding="UTF-8" standalone="no"?>
<!DOCTYPE svg PUBLIC "-//W3C//DTD SVG 1.1//EN"
 "http://www.w3.org/Graphics/SVG/1.1/DTD/svg11.dtd">
<!-- Generated by graphviz version 9.0.0 (0)
 -->
<!-- Title: sisi4s::Sisi4s::run Pages: 1 -->
<svg width="472pt" height="165pt"
 viewBox="0.00 0.00 471.50 164.50" xmlns="http://www.w3.org/2000/svg" xmlns:xlink="http://www.w3.org/1999/xlink">
<g id="graph0" class="graph" transform="scale(1 1) rotate(0) translate(4 160.5)">
<title>sisi4s::Sisi4s::run</title>
<!-- Node1 -->
<g id="Node000001" class="node">
<title>Node1</title>
<g id="a_Node000001"><a xlink:title=" ">
<polygon fill="#999999" stroke="#666666" points="100,-85.12 0,-85.12 0,-64.38 100,-64.38 100,-85.12"/>
<text text-anchor="middle" x="50" y="-71.62" font-family="Helvetica,sans-Serif" font-size="10.00">sisi4s::Sisi4s::run</text>
</a>
</g>
</g>
<!-- Node2 -->
<g id="Node000002" class="node">
<title>Node2</title>
<g id="a_Node000002"><a xlink:href="classsisi4s_1_1Time.html#acde8b004fc350d2767365a72a31e3c47" target="_top" xlink:title=" ">
<polygon fill="white" stroke="#666666" points="284,-156.5 139.75,-156.5 139.75,-123 284,-123 284,-156.5"/>
<text text-anchor="start" x="147.75" y="-143" font-family="Helvetica,sans-Serif" font-size="10.00">sisi4s::Time::getFractional</text>
<text text-anchor="middle" x="211.88" y="-130.25" font-family="Helvetica,sans-Serif" font-size="10.00">Seconds</text>
</a>
</g>
</g>
<!-- Node1&#45;&gt;Node2 -->
<g id="edge1_Node000001_Node000002" class="edge">
<title>Node1&#45;&gt;Node2</title>
<g id="a_edge1_Node000001_Node000002"><a xlink:title=" ">
<path fill="none" stroke="#63b8ff" d="M73.12,-85.61C90.12,-93.78 114.31,-105.03 136,-113.75 140.12,-115.41 144.39,-117.06 148.71,-118.68"/>
<polygon fill="#63b8ff" stroke="#63b8ff" points="147.47,-121.95 158.06,-122.11 149.88,-115.38 147.47,-121.95"/>
</a>
</g>
</g>
<!-- Node3 -->
<g id="Node000003" class="node">
<title>Node3</title>
<g id="a_Node000003"><a xlink:href="classsisi4s_1_1Sisi4s.html#add11d7b556ddc1f5089851d836a8862b" target="_top" xlink:title=" ">
<polygon fill="white" stroke="#666666" points="275.38,-105.12 148.38,-105.12 148.38,-84.38 275.38,-84.38 275.38,-105.12"/>
<text text-anchor="middle" x="211.88" y="-91.62" font-family="Helvetica,sans-Serif" font-size="10.00">sisi4s::Sisi4s::listHosts</text>
</a>
</g>
</g>
<!-- Node1&#45;&gt;Node3 -->
<g id="edge2_Node000001_Node000003" class="edge">
<title>Node1&#45;&gt;Node3</title>
<g id="a_edge2_Node000001_Node000003"><a xlink:title=" ">
<path fill="none" stroke="#63b8ff" d="M100.27,-80.91C111.79,-82.35 124.31,-83.92 136.65,-85.47"/>
<polygon fill="#63b8ff" stroke="#63b8ff" points="136.04,-88.92 146.4,-86.68 136.91,-81.97 136.04,-88.92"/>
</a>
</g>
</g>
<!-- Node4 -->
<g id="Node000004" class="node">
<title>Node4</title>
<g id="a_Node000004"><a xlink:href="classsisi4s_1_1Sisi4s.html#a67898fd5a133742f683a61d0e55e9e6b" target="_top" xlink:title=" ">
<polygon fill="white" stroke="#666666" points="282.5,-66.12 141.25,-66.12 141.25,-45.38 282.5,-45.38 282.5,-66.12"/>
<text text-anchor="middle" x="211.88" y="-52.62" font-family="Helvetica,sans-Serif" font-size="10.00">sisi4s::Sisi4s::printBanner</text>
</a>
</g>
</g>
<!-- Node1&#45;&gt;Node4 -->
<g id="edge3_Node000001_Node000004" class="edge">
<title>Node1&#45;&gt;Node4</title>
<g id="a_edge3_Node000001_Node000004"><a xlink:title=" ">
<path fill="none" stroke="#63b8ff" d="M100.27,-68.89C109.6,-67.79 119.59,-66.6 129.61,-65.41"/>
<polygon fill="#63b8ff" stroke="#63b8ff" points="129.88,-68.9 139.4,-64.24 129.05,-61.95 129.88,-68.9"/>
</a>
</g>
</g>
<!-- Node5 -->
<g id="Node000005" class="node">
<title>Node5</title>
<g id="a_Node000005"><a xlink:href="classsisi4s_1_1Sisi4s.html#afe2096757c8e16bec943b7b7f5acbd7f" target="_top" xlink:title=" ">
<polygon fill="white" stroke="#666666" points="287.75,-27.12 136,-27.12 136,-6.38 287.75,-6.38 287.75,-27.12"/>
<text text-anchor="middle" x="211.88" y="-13.62" font-family="Helvetica,sans-Serif" font-size="10.00">sisi4s::Sisi4s::printStatistics</text>
</a>
</g>
</g>
<!-- Node1&#45;&gt;Node5 -->
<g id="edge4_Node000001_Node000005" class="edge">
<title>Node1&#45;&gt;Node5</title>
<g id="a_edge4_Node000001_Node000005"><a xlink:title=" ">
<path fill="none" stroke="#63b8ff" d="M72.62,-63.93C89.57,-55.73 113.91,-44.58 136,-36.75 142.09,-34.59 148.54,-32.54 154.98,-30.62"/>
<polygon fill="#63b8ff" stroke="#63b8ff" points="155.66,-34.07 164.32,-27.96 153.75,-27.34 155.66,-34.07"/>
</a>
</g>
</g>
<!-- Node6 -->
<g id="Node000006" class="node">
<title>Node6</title>
<g id="a_Node000006"><a xlink:href="classsisi4s_1_1MpiCommunicator.html#a27c1b97bc4e7ae60135dc41a13b226e3" target="_top" xlink:title=" ">
<polygon fill="white" stroke="#666666" points="463.5,-33.5 323.75,-33.5 323.75,0 463.5,0 463.5,-33.5"/>
<text text-anchor="start" x="331.75" y="-20" font-family="Helvetica,sans-Serif" font-size="10.00">sisi4s::MpiCommunicator</text>
<text text-anchor="middle" x="393.62" y="-7.25" font-family="Helvetica,sans-Serif" font-size="10.00">::reduce</text>
</a>
</g>
</g>
<!-- Node5&#45;&gt;Node6 -->
<g id="edge5_Node000005_Node000006" class="edge">
<title>Node5&#45;&gt;Node6</title>
<g id="a_edge5_Node000005_Node000006"><a xlink:title=" ">
<path fill="none" stroke="#63b8ff" d="M288.06,-16.75C296.04,-16.75 304.18,-16.75 312.21,-16.75"/>
<polygon fill="#63b8ff" stroke="#63b8ff" points="311.96,-20.25 321.96,-16.75 311.96,-13.25 311.96,-20.25"/>
</a>
</g>
</g>
</g>
</svg>
