<?xml version="1.0" encoding="UTF-8" standalone="no"?>
<!DOCTYPE svg PUBLIC "-//W3C//DTD SVG 1.1//EN"
 "http://www.w3.org/Graphics/SVG/1.1/DTD/svg11.dtd">
<!-- Generated by graphviz version 5.0.1 (0)
 -->
<!-- Title: sisi4s::IterativePseudoInverse::iterate Pages: 1 -->
<svg width="391pt" height="160pt"
 viewBox="0.00 0.00 391.00 160.00" xmlns="http://www.w3.org/2000/svg" xmlns:xlink="http://www.w3.org/1999/xlink">
<g id="graph0" class="graph" transform="scale(1 1) rotate(0) translate(4 156)">
<title>sisi4s::IterativePseudoInverse::iterate</title>
<!-- Node1 -->
<g id="node1" class="node">
<title>Node1</title>
<g id="a_node1"><a xlink:title=" ">
<polygon fill="#bfbfbf" stroke="black" points="0,-52 0,-82 163,-82 163,-52 0,-52"/>
<text text-anchor="start" x="8" y="-70" font-family="Helvetica,sans-Serif" font-size="10.00">sisi4s::IterativePseudoInverse</text>
<text text-anchor="middle" x="81.5" y="-59" font-family="Helvetica,sans-Serif" font-size="10.00">::iterate</text>
</a>
</g>
</g>
<!-- Node2 -->
<g id="node2" class="node">
<title>Node2</title>
<g id="a_node2"><a xlink:href="namespacesisi4s.html#ab4577a58307bc686ea6f58bc3d0249d3" target="_top" xlink:title=" ">
<polygon fill="none" stroke="black" points="214,-114.5 214,-133.5 282,-133.5 282,-114.5 214,-114.5"/>
<text text-anchor="middle" x="248" y="-121.5" font-family="Helvetica,sans-Serif" font-size="10.00">sisi4s::abs</text>
</a>
</g>
</g>
<!-- Node1&#45;&gt;Node2 -->
<g id="edge1" class="edge">
<title>Node1&#45;&gt;Node2</title>
<path fill="none" stroke="midnightblue" d="M126.15,-82.13C152.08,-91.11 184.64,-102.39 209.42,-110.98"/>
<polygon fill="midnightblue" stroke="midnightblue" points="208.59,-114.4 219.19,-114.36 210.89,-107.78 208.59,-114.4"/>
</g>
<!-- Node3 -->
<g id="node3" class="node">
<title>Node3</title>
<g id="a_node3"><a xlink:href="namespacepars.html#aeacba27dd76dc4dea5604c90285023ac" target="_top" xlink:title=" ">
<polygon fill="none" stroke="black" points="212.5,-76.5 212.5,-95.5 283.5,-95.5 283.5,-76.5 212.5,-76.5"/>
<text text-anchor="middle" x="248" y="-83.5" font-family="Helvetica,sans-Serif" font-size="10.00">pars::alpha</text>
</a>
</g>
</g>
<!-- Node1&#45;&gt;Node3 -->
<g id="edge3" class="edge">
<title>Node1&#45;&gt;Node3</title>
<path fill="none" stroke="midnightblue" d="M163.3,-76.33C176.63,-77.87 190,-79.42 202.03,-80.81"/>
<polygon fill="midnightblue" stroke="midnightblue" points="201.88,-84.31 212.21,-81.98 202.68,-77.36 201.88,-84.31"/>
</g>
<!-- Node4 -->
<g id="node4" class="node">
<title>Node4</title>
<g id="a_node4"><a xlink:href="namespacesisi4s.html#ab3f1696a0e7735d418f8996311daa8c4" target="_top" xlink:title=" ">
<polygon fill="none" stroke="black" points="199,-38.5 199,-57.5 297,-57.5 297,-38.5 199,-38.5"/>
<text text-anchor="middle" x="248" y="-45.5" font-family="Helvetica,sans-Serif" font-size="10.00">sisi4s::conjugate</text>
</a>
</g>
</g>
<!-- Node1&#45;&gt;Node4 -->
<g id="edge4" class="edge">
<title>Node1&#45;&gt;Node4</title>
<path fill="none" stroke="midnightblue" d="M163.3,-57.67C171.97,-56.67 180.66,-55.66 188.98,-54.7"/>
<polygon fill="midnightblue" stroke="midnightblue" points="189.39,-58.18 198.92,-53.55 188.59,-51.22 189.39,-58.18"/>
</g>
<!-- Node5 -->
<g id="node5" class="node">
<title>Node5</title>
<g id="a_node5"><a xlink:href="DiisMixer_8cxx.html#ae6495ef1bd76c6cd022e102143fbed2f" target="_top" xlink:title=" ">
<polygon fill="none" stroke="black" points="221.5,-0.5 221.5,-19.5 274.5,-19.5 274.5,-0.5 221.5,-0.5"/>
<text text-anchor="middle" x="248" y="-7.5" font-family="Helvetica,sans-Serif" font-size="10.00">inverse</text>
</a>
</g>
</g>
<!-- Node1&#45;&gt;Node5 -->
<g id="edge5" class="edge">
<title>Node1&#45;&gt;Node5</title>
<path fill="none" stroke="midnightblue" d="M126.15,-51.87C152.87,-42.62 186.62,-30.92 211.66,-22.25"/>
<polygon fill="midnightblue" stroke="midnightblue" points="212.83,-25.54 221.13,-18.96 210.54,-18.93 212.83,-25.54"/>
</g>
<!-- Node2&#45;&gt;Node2 -->
<g id="edge2" class="edge">
<title>Node2&#45;&gt;Node2</title>
<path fill="none" stroke="midnightblue" d="M231.05,-133.76C222.8,-142.57 228.45,-152 248,-152 260.22,-152 267.01,-148.31 268.37,-143.4"/>
<polygon fill="midnightblue" stroke="midnightblue" points="271.59,-142.01 264.95,-133.76 264.99,-144.35 271.59,-142.01"/>
</g>
<!-- Node6 -->
<g id="node6" class="node">
<title>Node6</title>
<g id="a_node6"><a xlink:href="Lapack_8hpp.html#aaacdf33c1d8272c5fd148b2e002c12a6" target="_top" xlink:title=" ">
<polygon fill="none" stroke="black" points="333,-0.5 333,-19.5 383,-19.5 383,-0.5 333,-0.5"/>
<text text-anchor="middle" x="358" y="-7.5" font-family="Helvetica,sans-Serif" font-size="10.00">dsysv_</text>
</a>
</g>
</g>
<!-- Node5&#45;&gt;Node6 -->
<g id="edge6" class="edge">
<title>Node5&#45;&gt;Node6</title>
<path fill="none" stroke="midnightblue" d="M274.59,-10C288.89,-10 306.89,-10 322.42,-10"/>
<polygon fill="midnightblue" stroke="midnightblue" points="322.7,-13.5 332.7,-10 322.7,-6.5 322.7,-13.5"/>
</g>
</g>
</svg>
