<?xml version="1.0" encoding="UTF-8" standalone="no"?>
<!DOCTYPE svg PUBLIC "-//W3C//DTD SVG 1.1//EN"
 "http://www.w3.org/Graphics/SVG/1.1/DTD/svg11.dtd">
<!-- Generated by graphviz version 7.1.0 (0)
 -->
<!-- Title: sisi4s::CoulombVertexDecomposition::iterateQuadraticFactor Pages: 1 -->
<svg width="977pt" height="419pt"
 viewBox="0.00 0.00 977.00 419.00" xmlns="http://www.w3.org/2000/svg" xmlns:xlink="http://www.w3.org/1999/xlink">
<g id="graph0" class="graph" transform="scale(1 1) rotate(0) translate(4 415)">
<title>sisi4s::CoulombVertexDecomposition::iterateQuadraticFactor</title>
<!-- Node1 -->
<g id="node1" class="node">
<title>Node1</title>
<g id="a_node1"><a xlink:title="Solves the quadratically occurring factor Pi iteratively similar to the Babylonian algorithm.">
<polygon fill="#999999" stroke="#666666" points="199,-207 0,-207 0,-177 199,-177 199,-207"/>
<text text-anchor="start" x="8" y="-195" font-family="Helvetica,sans-Serif" font-size="10.00">sisi4s::CoulombVertexDecomposition</text>
<text text-anchor="middle" x="99.5" y="-184" font-family="Helvetica,sans-Serif" font-size="10.00">::iterateQuadraticFactor</text>
</a>
</g>
</g>
<!-- Node2 -->
<g id="node2" class="node">
<title>Node2</title>
<g id="a_node2"><a xlink:href="classsisi4s_1_1CoulombVertexDecomposition.html#a59e8ee0fafdcbcd77c58dacc579b2b90" target="_top" xlink:title="Takes the incoming factor orbitals and computes the outgoing factor orbitals according to the chosen ...">
<polygon fill="white" stroke="#666666" points="434,-326 235,-326 235,-296 434,-296 434,-326"/>
<text text-anchor="start" x="243" y="-314" font-family="Helvetica,sans-Serif" font-size="10.00">sisi4s::CoulombVertexDecomposition</text>
<text text-anchor="middle" x="334.5" y="-303" font-family="Helvetica,sans-Serif" font-size="10.00">::computeOutgoingPi</text>
</a>
</g>
</g>
<!-- Node1&#45;&gt;Node2 -->
<g id="edge1" class="edge">
<title>Node1&#45;&gt;Node2</title>
<path fill="none" stroke="#63b8ff" d="M119.43,-207.4C144.5,-227.14 190.73,-261.26 235,-282 242.83,-285.67 251.23,-288.99 259.71,-291.96"/>
<polygon fill="#63b8ff" stroke="#63b8ff" points="258.41,-295.22 269,-295.06 260.62,-288.58 258.41,-295.22"/>
</g>
<!-- Node6 -->
<g id="node6" class="node">
<title>Node6</title>
<g id="a_node6"><a xlink:href="classsisi4s_1_1Algorithm.html#a5e80a507fac066ab5714b62364cabaaf" target="_top" xlink:title=" ">
<polygon fill="white" stroke="#666666" points="614.5,-288 510.5,-288 510.5,-258 614.5,-258 614.5,-288"/>
<text text-anchor="start" x="518.5" y="-276" font-family="Helvetica,sans-Serif" font-size="10.00">sisi4s::Algorithm::</text>
<text text-anchor="middle" x="562.5" y="-265" font-family="Helvetica,sans-Serif" font-size="10.00">getTextArgument</text>
</a>
</g>
</g>
<!-- Node1&#45;&gt;Node6 -->
<g id="edge20" class="edge">
<title>Node1&#45;&gt;Node6</title>
<path fill="none" stroke="#63b8ff" d="M148.64,-207.43C174.1,-215.12 206.01,-224.03 235,-230 325.86,-248.72 432.71,-260.98 498.77,-267.45"/>
<polygon fill="#63b8ff" stroke="#63b8ff" points="498.42,-270.94 508.71,-268.41 499.1,-263.97 498.42,-270.94"/>
</g>
<!-- Node10 -->
<g id="node10" class="node">
<title>Node10</title>
<g id="a_node10"><a xlink:href="namespacesisi4s.html#a7aeaa0a35be34eeeb8537d428a75e97d" target="_top" xlink:title=" ">
<polygon fill="white" stroke="#666666" points="404.5,-374 264.5,-374 264.5,-344 404.5,-344 404.5,-374"/>
<text text-anchor="start" x="272.5" y="-362" font-family="Helvetica,sans-Serif" font-size="10.00">sisi4s::fitAlternatingLeast</text>
<text text-anchor="middle" x="334.5" y="-351" font-family="Helvetica,sans-Serif" font-size="10.00">SquaresFactor</text>
</a>
</g>
</g>
<!-- Node1&#45;&gt;Node10 -->
<g id="edge9" class="edge">
<title>Node1&#45;&gt;Node10</title>
<path fill="none" stroke="#63b8ff" d="M110.29,-207.24C130.09,-236.76 177.87,-301.72 235,-335 240.89,-338.43 247.25,-341.37 253.8,-343.89"/>
<polygon fill="#63b8ff" stroke="#63b8ff" points="252.2,-347.04 262.8,-347.03 254.5,-340.43 252.2,-347.04"/>
</g>
<!-- Node13 -->
<g id="node13" class="node">
<title>Node13</title>
<g id="a_node13"><a xlink:href="classsisi4s_1_1FockVector.html#aebf4e090f20a7bb83c434396b274c89c" target="_top" xlink:title="Retrieves the i&#45;th component tensor. Note that the Tensor is not const since rearrangement may be req...">
<polygon fill="white" stroke="#666666" points="397,-201.5 272,-201.5 272,-182.5 397,-182.5 397,-201.5"/>
<text text-anchor="middle" x="334.5" y="-189.5" font-family="Helvetica,sans-Serif" font-size="10.00">sisi4s::FockVector::get</text>
</a>
</g>
</g>
<!-- Node1&#45;&gt;Node13 -->
<g id="edge13" class="edge">
<title>Node1&#45;&gt;Node13</title>
<path fill="none" stroke="#63b8ff" d="M199.31,-192C219.75,-192 240.92,-192 260.25,-192"/>
<polygon fill="#63b8ff" stroke="#63b8ff" points="260.19,-195.5 270.19,-192 260.19,-188.5 260.19,-195.5"/>
</g>
<!-- Node14 -->
<g id="node14" class="node">
<title>Node14</title>
<g id="a_node14"><a xlink:href="classsisi4s_1_1CoulombVertexDecomposition.html#a6b726a7a86ef6edab94bbd836fd1f246" target="_top" xlink:title="Computes and returns the difference.">
<polygon fill="white" stroke="#666666" points="434,-164 235,-164 235,-134 434,-134 434,-164"/>
<text text-anchor="start" x="243" y="-152" font-family="Helvetica,sans-Serif" font-size="10.00">sisi4s::CoulombVertexDecomposition</text>
<text text-anchor="middle" x="334.5" y="-141" font-family="Helvetica,sans-Serif" font-size="10.00">::getDelta</text>
</a>
</g>
</g>
<!-- Node1&#45;&gt;Node14 -->
<g id="edge14" class="edge">
<title>Node1&#45;&gt;Node14</title>
<path fill="none" stroke="#63b8ff" d="M184.29,-176.54C201.9,-173.29 220.6,-169.84 238.58,-166.52"/>
<polygon fill="#63b8ff" stroke="#63b8ff" points="238.98,-170 248.18,-164.75 237.71,-163.12 238.98,-170"/>
</g>
<!-- Node17 -->
<g id="node17" class="node">
<title>Node17</title>
<g id="a_node17"><a xlink:href="classsisi4s_1_1Algorithm.html#a5db14be3b0d33bf80218a37223e27667" target="_top" xlink:title=" ">
<polygon fill="white" stroke="#666666" points="620,-240 505,-240 505,-210 620,-210 620,-240"/>
<text text-anchor="start" x="513" y="-228" font-family="Helvetica,sans-Serif" font-size="10.00">sisi4s::Algorithm::</text>
<text text-anchor="middle" x="562.5" y="-217" font-family="Helvetica,sans-Serif" font-size="10.00">getIntegerArgument</text>
</a>
</g>
</g>
<!-- Node1&#45;&gt;Node17 -->
<g id="edge17" class="edge">
<title>Node1&#45;&gt;Node17</title>
<path fill="none" stroke="#63b8ff" d="M199.17,-207.06C211.22,-208.57 223.38,-209.93 235,-211 324.01,-219.18 427.11,-222.59 493.26,-224.01"/>
<polygon fill="#63b8ff" stroke="#63b8ff" points="493.18,-227.51 503.25,-224.21 493.32,-220.51 493.18,-227.51"/>
</g>
<!-- Node18 -->
<g id="node18" class="node">
<title>Node18</title>
<g id="a_node18"><a xlink:href="classsisi4s_1_1CoulombVertexDecomposition.html#af8f3367c22f6260e0db4b313c0199594" target="_top" xlink:title="Normalizes the given factor orbitals, such that .">
<polygon fill="white" stroke="#666666" points="434,-78 235,-78 235,-48 434,-48 434,-78"/>
<text text-anchor="start" x="243" y="-66" font-family="Helvetica,sans-Serif" font-size="10.00">sisi4s::CoulombVertexDecomposition</text>
<text text-anchor="middle" x="334.5" y="-55" font-family="Helvetica,sans-Serif" font-size="10.00">::normalizePi</text>
</a>
</g>
</g>
<!-- Node1&#45;&gt;Node18 -->
<g id="edge21" class="edge">
<title>Node1&#45;&gt;Node18</title>
<path fill="none" stroke="#63b8ff" d="M117.04,-176.61C141.21,-154.88 188.4,-115.25 235,-92 242.29,-88.36 250.12,-85.1 258.06,-82.19"/>
<polygon fill="#63b8ff" stroke="#63b8ff" points="259.18,-85.51 267.49,-78.94 256.9,-78.89 259.18,-85.51"/>
</g>
<!-- Node19 -->
<g id="node19" class="node">
<title>Node19</title>
<g id="a_node19"><a xlink:href="namespacesisi4s.html#a60e4277fc0d188844658dd5264190e59" target="_top" xlink:title=" ">
<polygon fill="white" stroke="#666666" points="592,-72.5 533,-72.5 533,-53.5 592,-53.5 592,-72.5"/>
<text text-anchor="middle" x="562.5" y="-60.5" font-family="Helvetica,sans-Serif" font-size="10.00">sisi4s::Pi</text>
</a>
</g>
</g>
<!-- Node1&#45;&gt;Node19 -->
<g id="edge23" class="edge">
<title>Node1&#45;&gt;Node19</title>
<path fill="none" stroke="#63b8ff" d="M125.88,-176.71C152.26,-161.45 195.2,-138.41 235,-125 238.41,-123.85 434.94,-86.81 521.41,-70.54"/>
<polygon fill="#63b8ff" stroke="#63b8ff" points="521.93,-74 531.12,-68.71 520.64,-67.12 521.93,-74"/>
</g>
<!-- Node20 -->
<g id="node20" class="node">
<title>Node20</title>
<g id="a_node20"><a xlink:href="classsisi4s_1_1CoulombVertexDecomposition.html#a463569751d49f8acd966ef1f028db483" target="_top" xlink:title="Discards the imaginary part of the given factor orbitals.">
<polygon fill="white" stroke="#666666" points="434,-30 235,-30 235,0 434,0 434,-30"/>
<text text-anchor="start" x="243" y="-18" font-family="Helvetica,sans-Serif" font-size="10.00">sisi4s::CoulombVertexDecomposition</text>
<text text-anchor="middle" x="334.5" y="-7" font-family="Helvetica,sans-Serif" font-size="10.00">::realizePi</text>
</a>
</g>
</g>
<!-- Node1&#45;&gt;Node20 -->
<g id="edge24" class="edge">
<title>Node1&#45;&gt;Node20</title>
<path fill="none" stroke="#63b8ff" d="M109.43,-176.64C128.36,-145.51 175.7,-74.9 235,-39 237.29,-37.62 239.65,-36.31 242.07,-35.08"/>
<polygon fill="#63b8ff" stroke="#63b8ff" points="243.27,-38.38 250.93,-31.06 240.37,-32.01 243.27,-38.38"/>
</g>
<!-- Node3 -->
<g id="node3" class="node">
<title>Node3</title>
<g id="a_node3"><a xlink:href="classsisi4s_1_1IterativePseudoInverse.html#a1549bac3e662a0bdf1cf6ab25608dff4" target="_top" xlink:title=" ">
<polygon fill="white" stroke="#666666" points="655,-325.5 470,-325.5 470,-306.5 655,-306.5 655,-325.5"/>
<text text-anchor="middle" x="562.5" y="-313.5" font-family="Helvetica,sans-Serif" font-size="10.00">sisi4s::IterativePseudoInverse::get</text>
</a>
</g>
</g>
<!-- Node2&#45;&gt;Node3 -->
<g id="edge2" class="edge">
<title>Node2&#45;&gt;Node3</title>
<path fill="none" stroke="#63b8ff" d="M434.3,-313.19C442.29,-313.36 450.38,-313.54 458.4,-313.72"/>
<polygon fill="#63b8ff" stroke="#63b8ff" points="458.09,-317.21 468.17,-313.94 458.25,-310.21 458.09,-317.21"/>
</g>
<!-- Node2&#45;&gt;Node6 -->
<g id="edge5" class="edge">
<title>Node2&#45;&gt;Node6</title>
<path fill="none" stroke="#63b8ff" d="M427.42,-295.54C451.46,-291.5 476.82,-287.24 498.94,-283.52"/>
<polygon fill="#63b8ff" stroke="#63b8ff" points="499.41,-286.99 508.69,-281.88 498.25,-280.09 499.41,-286.99"/>
</g>
<!-- Node4 -->
<g id="node4" class="node">
<title>Node4</title>
<g id="a_node4"><a xlink:href="DiisMixer_8cxx.html#ae6495ef1bd76c6cd022e102143fbed2f" target="_top" xlink:title=" ">
<polygon fill="white" stroke="#666666" points="791,-343.5 738,-343.5 738,-324.5 791,-324.5 791,-343.5"/>
<text text-anchor="middle" x="764.5" y="-331.5" font-family="Helvetica,sans-Serif" font-size="10.00">inverse</text>
</a>
</g>
</g>
<!-- Node3&#45;&gt;Node4 -->
<g id="edge3" class="edge">
<title>Node3&#45;&gt;Node4</title>
<path fill="none" stroke="#63b8ff" d="M655.31,-324.26C680.42,-326.52 706.24,-328.85 726.35,-330.66"/>
<polygon fill="#63b8ff" stroke="#63b8ff" points="726,-334.14 736.27,-331.55 726.63,-327.17 726,-334.14"/>
</g>
<!-- Node5 -->
<g id="node5" class="node">
<title>Node5</title>
<g id="a_node5"><a xlink:href="Lapack_8hpp.html#aaacdf33c1d8272c5fd148b2e002c12a6" target="_top" xlink:title=" ">
<polygon fill="white" stroke="#666666" points="946.5,-343.5 896.5,-343.5 896.5,-324.5 946.5,-324.5 946.5,-343.5"/>
<text text-anchor="middle" x="921.5" y="-331.5" font-family="Helvetica,sans-Serif" font-size="10.00">dsysv_</text>
</a>
</g>
</g>
<!-- Node4&#45;&gt;Node5 -->
<g id="edge4" class="edge">
<title>Node4&#45;&gt;Node5</title>
<path fill="none" stroke="#63b8ff" d="M791.44,-334C816.93,-334 856.04,-334 884.52,-334"/>
<polygon fill="#63b8ff" stroke="#63b8ff" points="884.49,-337.5 894.49,-334 884.49,-330.5 884.49,-337.5"/>
</g>
<!-- Node7 -->
<g id="node7" class="node">
<title>Node7</title>
<g id="a_node7"><a xlink:href="classsisi4s_1_1Algorithm.html#a1e53277220d32a33e20846267c253652" target="_top" xlink:title=" ">
<polygon fill="white" stroke="#666666" points="816.5,-242 712.5,-242 712.5,-212 816.5,-212 816.5,-242"/>
<text text-anchor="start" x="720.5" y="-230" font-family="Helvetica,sans-Serif" font-size="10.00">sisi4s::Algorithm::</text>
<text text-anchor="middle" x="764.5" y="-219" font-family="Helvetica,sans-Serif" font-size="10.00">getArgumentData</text>
</a>
</g>
</g>
<!-- Node6&#45;&gt;Node7 -->
<g id="edge6" class="edge">
<title>Node6&#45;&gt;Node7</title>
<path fill="none" stroke="#63b8ff" d="M614.75,-261.21C640.99,-255.18 673.17,-247.78 700.87,-241.4"/>
<polygon fill="#63b8ff" stroke="#63b8ff" points="701.6,-244.83 710.57,-239.17 700.04,-238.01 701.6,-244.83"/>
</g>
<!-- Node9 -->
<g id="node9" class="node">
<title>Node9</title>
<g id="a_node9"><a xlink:href="classsisi4s_1_1Data.html#a0ec0b1c7f2356fd43d82ee1dd0246789" target="_top" xlink:title=" ">
<polygon fill="white" stroke="#666666" points="838,-280.5 691,-280.5 691,-261.5 838,-261.5 838,-280.5"/>
<text text-anchor="middle" x="764.5" y="-268.5" font-family="Helvetica,sans-Serif" font-size="10.00">sisi4s::Data::getTypeName</text>
</a>
</g>
</g>
<!-- Node6&#45;&gt;Node9 -->
<g id="edge8" class="edge">
<title>Node6&#45;&gt;Node9</title>
<path fill="none" stroke="#63b8ff" d="M614.75,-272.49C634.36,-272.29 657.28,-272.06 679.18,-271.84"/>
<polygon fill="#63b8ff" stroke="#63b8ff" points="679.04,-275.34 689,-271.75 678.97,-268.35 679.04,-275.34"/>
</g>
<!-- Node8 -->
<g id="node8" class="node">
<title>Node8</title>
<g id="a_node8"><a xlink:href="classsisi4s_1_1Data.html#a5b4676e48b4f437d399587e6903f896a" target="_top" xlink:title=" ">
<polygon fill="white" stroke="#666666" points="969,-236.5 874,-236.5 874,-217.5 969,-217.5 969,-236.5"/>
<text text-anchor="middle" x="921.5" y="-224.5" font-family="Helvetica,sans-Serif" font-size="10.00">sisi4s::Data::get</text>
</a>
</g>
</g>
<!-- Node7&#45;&gt;Node8 -->
<g id="edge7" class="edge">
<title>Node7&#45;&gt;Node8</title>
<path fill="none" stroke="#63b8ff" d="M816.68,-227C831.3,-227 847.33,-227 862.33,-227"/>
<polygon fill="#63b8ff" stroke="#63b8ff" points="862.05,-230.5 872.05,-227 862.05,-223.5 862.05,-230.5"/>
</g>
<!-- Node11 -->
<g id="node11" class="node">
<title>Node11</title>
<g id="a_node11"><a xlink:href="namespacesisi4s.html#ab14ed3164e19d771549f3af9f21a00d8" target="_top" xlink:title="Calculates &#160;using a contraction order with minimal memory footprint.">
<polygon fill="white" stroke="#666666" points="646.5,-411 478.5,-411 478.5,-381 646.5,-381 646.5,-411"/>
<text text-anchor="start" x="486.5" y="-399" font-family="Helvetica,sans-Serif" font-size="10.00">sisi4s::contractWithCanonical</text>
<text text-anchor="middle" x="562.5" y="-388" font-family="Helvetica,sans-Serif" font-size="10.00">PolyadicDecompositionTensors</text>
</a>
</g>
</g>
<!-- Node10&#45;&gt;Node11 -->
<g id="edge10" class="edge">
<title>Node10&#45;&gt;Node11</title>
<path fill="none" stroke="#63b8ff" d="M404.84,-370.35C424.53,-373.58 446.31,-377.14 467.21,-380.56"/>
<polygon fill="#63b8ff" stroke="#63b8ff" points="466.44,-383.98 476.88,-382.15 467.58,-377.08 466.44,-383.98"/>
</g>
<!-- Node12 -->
<g id="node12" class="node">
<title>Node12</title>
<g id="a_node12"><a xlink:href="classsisi4s_1_1PseudoInverseSvd.html#a2533006daf67fb34b871189a4e450a0f" target="_top" xlink:title=" ">
<polygon fill="white" stroke="#666666" points="643,-362.5 482,-362.5 482,-343.5 643,-343.5 643,-362.5"/>
<text text-anchor="middle" x="562.5" y="-350.5" font-family="Helvetica,sans-Serif" font-size="10.00">sisi4s::PseudoInverseSvd::get</text>
</a>
</g>
</g>
<!-- Node10&#45;&gt;Node12 -->
<g id="edge11" class="edge">
<title>Node10&#45;&gt;Node12</title>
<path fill="none" stroke="#63b8ff" d="M404.84,-357.16C425.51,-356.61 448.47,-356 470.3,-355.42"/>
<polygon fill="#63b8ff" stroke="#63b8ff" points="470.18,-358.93 480.09,-355.16 470,-351.93 470.18,-358.93"/>
</g>
<!-- Node12&#45;&gt;Node4 -->
<g id="edge12" class="edge">
<title>Node12&#45;&gt;Node4</title>
<path fill="none" stroke="#63b8ff" d="M643.41,-345.41C672.13,-342.68 703.16,-339.73 726.48,-337.52"/>
<polygon fill="#63b8ff" stroke="#63b8ff" points="726.79,-341 736.41,-336.57 726.13,-334.03 726.79,-341"/>
</g>
<!-- Node15 -->
<g id="node15" class="node">
<title>Node15</title>
<g id="a_node15"><a xlink:href="namespacesisi4s.html#a5f1a1c319b7f345b0fbac3d446635845" target="_top" xlink:title="Calculates &#160;with minimal memory footprint.">
<polygon fill="white" stroke="#666666" points="646.5,-175 478.5,-175 478.5,-145 646.5,-145 646.5,-175"/>
<text text-anchor="start" x="486.5" y="-163" font-family="Helvetica,sans-Serif" font-size="10.00">sisi4s::composeCanonical</text>
<text text-anchor="middle" x="562.5" y="-152" font-family="Helvetica,sans-Serif" font-size="10.00">PolyadicDecompositionTensors</text>
</a>
</g>
</g>
<!-- Node14&#45;&gt;Node15 -->
<g id="edge15" class="edge">
<title>Node14&#45;&gt;Node15</title>
<path fill="none" stroke="#63b8ff" d="M434.3,-153.81C445.03,-154.33 455.93,-154.86 466.61,-155.38"/>
<polygon fill="#63b8ff" stroke="#63b8ff" points="466.42,-158.88 476.58,-155.87 466.76,-151.88 466.42,-158.88"/>
</g>
<!-- Node16 -->
<g id="node16" class="node">
<title>Node16</title>
<g id="a_node16"><a xlink:href="namespacesisi4s.html#aae36a475bbea733a01982cbf5f741cc1" target="_top" xlink:title=" ">
<polygon fill="white" stroke="#666666" points="624,-126.5 501,-126.5 501,-107.5 624,-107.5 624,-126.5"/>
<text text-anchor="middle" x="562.5" y="-114.5" font-family="Helvetica,sans-Serif" font-size="10.00">sisi4s::frobeniusNorm</text>
</a>
</g>
</g>
<!-- Node14&#45;&gt;Node16 -->
<g id="edge16" class="edge">
<title>Node14&#45;&gt;Node16</title>
<path fill="none" stroke="#63b8ff" d="M434.3,-135.01C452.81,-132.39 471.84,-129.7 489.35,-127.22"/>
<polygon fill="#63b8ff" stroke="#63b8ff" points="489.72,-130.7 499.13,-125.83 488.74,-123.77 489.72,-130.7"/>
</g>
<!-- Node17&#45;&gt;Node7 -->
<g id="edge18" class="edge">
<title>Node17&#45;&gt;Node7</title>
<path fill="none" stroke="#63b8ff" d="M620.28,-225.57C645.43,-225.82 675.09,-226.12 700.88,-226.37"/>
<polygon fill="#63b8ff" stroke="#63b8ff" points="700.5,-229.87 710.54,-226.47 700.57,-222.87 700.5,-229.87"/>
</g>
<!-- Node17&#45;&gt;Node9 -->
<g id="edge19" class="edge">
<title>Node17&#45;&gt;Node9</title>
<path fill="none" stroke="#63b8ff" d="M620.28,-238.06C648.19,-244.48 681.67,-252.18 709.23,-258.52"/>
<polygon fill="#63b8ff" stroke="#63b8ff" points="708.26,-261.89 718.79,-260.72 709.82,-255.06 708.26,-261.89"/>
</g>
<!-- Node18&#45;&gt;Node19 -->
<g id="edge22" class="edge">
<title>Node18&#45;&gt;Node19</title>
<path fill="none" stroke="#63b8ff" d="M434.3,-63C465.12,-63 497.38,-63 521.7,-63"/>
<polygon fill="#63b8ff" stroke="#63b8ff" points="521.45,-66.5 531.45,-63 521.45,-59.5 521.45,-66.5"/>
</g>
<!-- Node20&#45;&gt;Node19 -->
<g id="edge25" class="edge">
<title>Node20&#45;&gt;Node19</title>
<path fill="none" stroke="#63b8ff" d="M408.25,-30.45C445.95,-38.46 490.52,-47.92 521.84,-54.58"/>
<polygon fill="#63b8ff" stroke="#63b8ff" points="520.76,-57.92 531.27,-56.58 522.21,-51.08 520.76,-57.92"/>
</g>
</g>
</svg>
