<?xml version="1.0" encoding="UTF-8" standalone="no"?>
<!DOCTYPE svg PUBLIC "-//W3C//DTD SVG 1.1//EN"
 "http://www.w3.org/Graphics/SVG/1.1/DTD/svg11.dtd">
<!-- Generated by graphviz version 9.0.0 (0)
 -->
<!-- Title: sisi4s::FockVector::get_components_count Pages: 1 -->
<svg width="336pt" height="198pt"
 viewBox="0.00 0.00 335.50 197.50" xmlns="http://www.w3.org/2000/svg" xmlns:xlink="http://www.w3.org/1999/xlink">
<g id="graph0" class="graph" transform="scale(1 1) rotate(0) translate(4 193.5)">
<title>sisi4s::FockVector::get_components_count</title>
<!-- Node1 -->
<g id="Node000001" class="node">
<title>Node1</title>
<g id="a_Node000001"><a xlink:title="Get the number of component tensors of this FockVector.">
<polygon fill="#999999" stroke="#666666" points="327.5,-111.5 192.25,-111.5 192.25,-78 327.5,-78 327.5,-111.5"/>
<text text-anchor="start" x="200.25" y="-98" font-family="Helvetica,sans-Serif" font-size="10.00">sisi4s::FockVector</text>
<text text-anchor="middle" x="259.88" y="-85.25" font-family="Helvetica,sans-Serif" font-size="10.00">::get_components_count</text>
</a>
</g>
</g>
<!-- Node2 -->
<g id="Node000002" class="node">
<title>Node2</title>
<g id="a_Node000002"><a xlink:href="classsisi4s_1_1CcsdPreconditioner.html#a8aefba0b3f2b4c128f69d6e5eaf5a1fc" target="_top" xlink:title=" ">
<polygon fill="white" stroke="#666666" points="149.88,-189.5 6.38,-189.5 6.38,-156 149.88,-156 149.88,-189.5"/>
<text text-anchor="start" x="14.38" y="-176" font-family="Helvetica,sans-Serif" font-size="10.00">sisi4s::CcsdPreconditioner</text>
<text text-anchor="middle" x="78.12" y="-163.25" font-family="Helvetica,sans-Serif" font-size="10.00">::getCorrection</text>
</a>
</g>
</g>
<!-- Node1&#45;&gt;Node2 -->
<g id="edge1_Node000001_Node000002" class="edge">
<title>Node1&#45;&gt;Node2</title>
<g id="a_edge1_Node000001_Node000002"><a xlink:title=" ">
<path fill="none" stroke="#63b8ff" d="M217.84,-117.25C199.32,-126.96 176.98,-138.06 156.25,-146.75 148.95,-149.81 141.16,-152.78 133.43,-155.54"/>
<polygon fill="#63b8ff" stroke="#63b8ff" points="219.45,-120.36 226.65,-112.58 216.17,-114.17 219.45,-120.36"/>
</a>
</g>
</g>
<!-- Node3 -->
<g id="Node000003" class="node">
<title>Node3</title>
<g id="a_Node000003"><a xlink:href="classsisi4s_1_1IPCcsdPreconditioner.html#a7cbe4d3466c5f79154335c633fce4064" target="_top" xlink:title=" ">
<polygon fill="white" stroke="#666666" points="154.38,-137.5 1.88,-137.5 1.88,-104 154.38,-104 154.38,-137.5"/>
<text text-anchor="start" x="9.88" y="-124" font-family="Helvetica,sans-Serif" font-size="10.00">sisi4s::IPCcsdPreconditioner</text>
<text text-anchor="middle" x="78.12" y="-111.25" font-family="Helvetica,sans-Serif" font-size="10.00">::getCorrection</text>
</a>
</g>
</g>
<!-- Node1&#45;&gt;Node3 -->
<g id="edge2_Node000001_Node000003" class="edge">
<title>Node1&#45;&gt;Node3</title>
<g id="a_edge2_Node000001_Node000003"><a xlink:title=" ">
<path fill="none" stroke="#63b8ff" d="M180.67,-106.06C172.01,-107.31 163.21,-108.59 154.58,-109.84"/>
<polygon fill="#63b8ff" stroke="#63b8ff" points="181.05,-109.54 190.44,-104.65 180.05,-102.62 181.05,-109.54"/>
</a>
</g>
</g>
<!-- Node4 -->
<g id="Node000004" class="node">
<title>Node4</title>
<g id="a_Node000004"><a xlink:href="classsisi4s_1_1EACcsdPreconditioner.html#ad61ee29a85755fee1c132f22135c2091" target="_top" xlink:title=" ">
<polygon fill="white" stroke="#666666" points="156.25,-85.5 0,-85.5 0,-52 156.25,-52 156.25,-85.5"/>
<text text-anchor="start" x="8" y="-72" font-family="Helvetica,sans-Serif" font-size="10.00">sisi4s::EACcsdPreconditioner</text>
<text text-anchor="middle" x="78.12" y="-59.25" font-family="Helvetica,sans-Serif" font-size="10.00">::getCorrection</text>
</a>
</g>
</g>
<!-- Node1&#45;&gt;Node4 -->
<g id="edge3_Node000001_Node000004" class="edge">
<title>Node1&#45;&gt;Node4</title>
<g id="a_edge3_Node000001_Node000004"><a xlink:title=" ">
<path fill="none" stroke="#63b8ff" d="M180.77,-83.45C172.8,-82.3 164.69,-81.13 156.72,-79.97"/>
<polygon fill="#63b8ff" stroke="#63b8ff" points="180.05,-86.88 190.44,-84.85 181.05,-79.96 180.05,-86.88"/>
</a>
</g>
</g>
<!-- Node5 -->
<g id="Node000005" class="node">
<title>Node5</title>
<g id="a_Node000005"><a xlink:href="classsisi4s_1_1CISPreconditioner.html#afdccd5eb5b30718abd4ccb463702b840" target="_top" xlink:title=" ">
<polygon fill="white" stroke="#666666" points="146.12,-33.5 10.12,-33.5 10.12,0 146.12,0 146.12,-33.5"/>
<text text-anchor="start" x="18.12" y="-20" font-family="Helvetica,sans-Serif" font-size="10.00">sisi4s::CISPreconditioner</text>
<text text-anchor="middle" x="78.12" y="-7.25" font-family="Helvetica,sans-Serif" font-size="10.00">::getCorrection</text>
</a>
</g>
</g>
<!-- Node1&#45;&gt;Node5 -->
<g id="edge4_Node000001_Node000005" class="edge">
<title>Node1&#45;&gt;Node5</title>
<g id="a_edge4_Node000001_Node000005"><a xlink:title=" ">
<path fill="none" stroke="#63b8ff" d="M217.84,-72.25C199.32,-62.54 176.98,-51.44 156.25,-42.75 148.95,-39.69 141.16,-36.72 133.43,-33.96"/>
<polygon fill="#63b8ff" stroke="#63b8ff" points="216.17,-75.33 226.65,-76.92 219.45,-69.14 216.17,-75.33"/>
</a>
</g>
</g>
</g>
</svg>
