<?xml version="1.0" encoding="UTF-8" standalone="no"?>
<!DOCTYPE svg PUBLIC "-//W3C//DTD SVG 1.1//EN"
 "http://www.w3.org/Graphics/SVG/1.1/DTD/svg11.dtd">
<!-- Generated by graphviz version 5.0.1 (0)
 -->
<!-- Title: sisi4s::FiniteSizeCorrection::dryRun Pages: 1 -->
<svg width="879pt" height="323pt"
 viewBox="0.00 0.00 879.00 323.00" xmlns="http://www.w3.org/2000/svg" xmlns:xlink="http://www.w3.org/1999/xlink">
<g id="graph0" class="graph" transform="scale(1 1) rotate(0) translate(4 319)">
<title>sisi4s::FiniteSizeCorrection::dryRun</title>
<!-- Node1 -->
<g id="node1" class="node">
<title>Node1</title>
<g id="a_node1"><a xlink:title="Performs a Dry Run.">
<polygon fill="#999999" stroke="#666666" points="148,-155 0,-155 0,-125 148,-125 148,-155"/>
<text text-anchor="start" x="8" y="-143" font-family="Helvetica,sans-Serif" font-size="10.00">sisi4s::FiniteSizeCorrection</text>
<text text-anchor="middle" x="74" y="-132" font-family="Helvetica,sans-Serif" font-size="10.00">::dryRun</text>
</a>
</g>
</g>
<!-- Node2 -->
<g id="node2" class="node">
<title>Node2</title>
<g id="a_node2"><a xlink:href="classsisi4s_1_1FiniteSizeCorrection.html#a100128dd8d514f54d7897e858ac0b8cf" target="_top" xlink:title=" ">
<polygon fill="white" stroke="#666666" points="366,-179 184,-179 184,-149 366,-149 366,-179"/>
<text text-anchor="start" x="192" y="-167" font-family="Helvetica,sans-Serif" font-size="10.00">sisi4s::FiniteSizeCorrection</text>
<text text-anchor="middle" x="275" y="-156" font-family="Helvetica,sans-Serif" font-size="10.00">::dryCalculateFiniteSizeCorrection</text>
</a>
</g>
</g>
<!-- Node1&#45;&gt;Node2 -->
<g id="edge1" class="edge">
<title>Node1&#45;&gt;Node2</title>
<path fill="none" stroke="#63b8ff" d="M148.25,-148.83C156.54,-149.83 165.08,-150.86 173.64,-151.9"/>
<polygon fill="#63b8ff" stroke="#63b8ff" points="173.32,-155.38 183.67,-153.11 174.16,-148.43 173.32,-155.38"/>
</g>
<!-- Node3 -->
<g id="node3" class="node">
<title>Node3</title>
<g id="a_node3"><a xlink:href="classsisi4s_1_1Algorithm.html#a5db14be3b0d33bf80218a37223e27667" target="_top" xlink:title=" ">
<polygon fill="white" stroke="#666666" points="530,-222 415,-222 415,-192 530,-192 530,-222"/>
<text text-anchor="start" x="423" y="-210" font-family="Helvetica,sans-Serif" font-size="10.00">sisi4s::Algorithm::</text>
<text text-anchor="middle" x="472.5" y="-199" font-family="Helvetica,sans-Serif" font-size="10.00">getIntegerArgument</text>
</a>
</g>
</g>
<!-- Node1&#45;&gt;Node3 -->
<g id="edge23" class="edge">
<title>Node1&#45;&gt;Node3</title>
<path fill="none" stroke="#63b8ff" d="M102.28,-155.22C123.78,-166.41 154.88,-180.86 184,-188 258.02,-206.15 345.76,-209.42 404.68,-209.1"/>
<polygon fill="#63b8ff" stroke="#63b8ff" points="405,-212.6 414.97,-209.01 404.94,-205.6 405,-212.6"/>
</g>
<!-- Node12 -->
<g id="node12" class="node">
<title>Node12</title>
<g id="a_node12"><a xlink:href="classsisi4s_1_1FiniteSizeCorrection.html#ab03fab436020be68b42a07d07b0eb3ca" target="_top" xlink:title=" ">
<polygon fill="white" stroke="#666666" points="354,-131 196,-131 196,-101 354,-101 354,-131"/>
<text text-anchor="start" x="204" y="-119" font-family="Helvetica,sans-Serif" font-size="10.00">sisi4s::FiniteSizeCorrection</text>
<text text-anchor="middle" x="275" y="-108" font-family="Helvetica,sans-Serif" font-size="10.00">::dryCalculateStructureFactor</text>
</a>
</g>
</g>
<!-- Node1&#45;&gt;Node12 -->
<g id="edge14" class="edge">
<title>Node1&#45;&gt;Node12</title>
<path fill="none" stroke="#63b8ff" d="M148.25,-131.17C160.49,-129.69 173.31,-128.14 185.88,-126.63"/>
<polygon fill="#63b8ff" stroke="#63b8ff" points="186.38,-130.09 195.89,-125.42 185.54,-123.14 186.38,-130.09"/>
</g>
<!-- Node16 -->
<g id="node16" class="node">
<title>Node16</title>
<g id="a_node16"><a xlink:href="classsisi4s_1_1FiniteSizeCorrection.html#a200f4c2590c7f573670d778ce6d4dc71" target="_top" xlink:title=" ">
<polygon fill="white" stroke="#666666" points="349,-83 201,-83 201,-53 349,-53 349,-83"/>
<text text-anchor="start" x="209" y="-71" font-family="Helvetica,sans-Serif" font-size="10.00">sisi4s::FiniteSizeCorrection</text>
<text text-anchor="middle" x="275" y="-60" font-family="Helvetica,sans-Serif" font-size="10.00">::dryInterpolation3D</text>
</a>
</g>
</g>
<!-- Node1&#45;&gt;Node16 -->
<g id="edge22" class="edge">
<title>Node1&#45;&gt;Node16</title>
<path fill="none" stroke="#63b8ff" d="M105.97,-124.83C127.51,-114.66 157.08,-101.45 184,-92 190.01,-89.89 196.3,-87.86 202.64,-85.94"/>
<polygon fill="#63b8ff" stroke="#63b8ff" points="204,-89.19 212.61,-83.01 202.03,-82.47 204,-89.19"/>
</g>
<!-- Node2&#45;&gt;Node3 -->
<g id="edge2" class="edge">
<title>Node2&#45;&gt;Node3</title>
<path fill="none" stroke="#63b8ff" d="M344.38,-179.04C363.97,-183.35 385.31,-188.04 404.8,-192.33"/>
<polygon fill="#63b8ff" stroke="#63b8ff" points="404.29,-195.8 414.81,-194.53 405.8,-188.96 404.29,-195.8"/>
</g>
<!-- Node7 -->
<g id="node7" class="node">
<title>Node7</title>
<g id="a_node7"><a xlink:href="classsisi4s_1_1Algorithm.html#a36c632fbb19dae4ce2f415705fa5cbcb" target="_top" xlink:title=" ">
<polygon fill="white" stroke="#666666" points="524.5,-270 420.5,-270 420.5,-240 524.5,-240 524.5,-270"/>
<text text-anchor="start" x="428.5" y="-258" font-family="Helvetica,sans-Serif" font-size="10.00">sisi4s::Algorithm::</text>
<text text-anchor="middle" x="472.5" y="-247" font-family="Helvetica,sans-Serif" font-size="10.00">getRealArgument</text>
</a>
</g>
</g>
<!-- Node2&#45;&gt;Node7 -->
<g id="edge6" class="edge">
<title>Node2&#45;&gt;Node7</title>
<path fill="none" stroke="#63b8ff" d="M301.48,-179.07C326.52,-193.52 366.11,-215.37 402,-231 406.31,-232.88 410.82,-234.71 415.37,-236.47"/>
<polygon fill="#63b8ff" stroke="#63b8ff" points="414.16,-239.76 424.76,-239.98 416.62,-233.2 414.16,-239.76"/>
</g>
<!-- Node10 -->
<g id="node10" class="node">
<title>Node10</title>
<g id="a_node10"><a xlink:href="classsisi4s_1_1Algorithm.html#af6f931ab83742cc23b4f4350d54a3fcd" target="_top" xlink:title=" ">
<polygon fill="white" stroke="#666666" points="524.5,-126 420.5,-126 420.5,-96 524.5,-96 524.5,-126"/>
<text text-anchor="start" x="428.5" y="-114" font-family="Helvetica,sans-Serif" font-size="10.00">sisi4s::Algorithm::</text>
<text text-anchor="middle" x="472.5" y="-103" font-family="Helvetica,sans-Serif" font-size="10.00">setRealArgument</text>
</a>
</g>
</g>
<!-- Node2&#45;&gt;Node10 -->
<g id="edge11" class="edge">
<title>Node2&#45;&gt;Node10</title>
<path fill="none" stroke="#63b8ff" d="M332.67,-148.96C343.73,-146 355.23,-142.92 366,-140 380.38,-136.11 395.84,-131.88 410.38,-127.89"/>
<polygon fill="#63b8ff" stroke="#63b8ff" points="411.56,-131.19 420.28,-125.17 409.71,-124.44 411.56,-131.19"/>
</g>
<!-- Node4 -->
<g id="node4" class="node">
<title>Node4</title>
<g id="a_node4"><a xlink:href="classsisi4s_1_1Algorithm.html#a1e53277220d32a33e20846267c253652" target="_top" xlink:title=" ">
<polygon fill="white" stroke="#666666" points="711.5,-174 607.5,-174 607.5,-144 711.5,-144 711.5,-174"/>
<text text-anchor="start" x="615.5" y="-162" font-family="Helvetica,sans-Serif" font-size="10.00">sisi4s::Algorithm::</text>
<text text-anchor="middle" x="659.5" y="-151" font-family="Helvetica,sans-Serif" font-size="10.00">getArgumentData</text>
</a>
</g>
</g>
<!-- Node3&#45;&gt;Node4 -->
<g id="edge3" class="edge">
<title>Node3&#45;&gt;Node4</title>
<path fill="none" stroke="#63b8ff" d="M530.01,-192.34C551.39,-186.79 575.81,-180.46 597.57,-174.81"/>
<polygon fill="#63b8ff" stroke="#63b8ff" points="598.57,-178.17 607.37,-172.27 596.81,-171.39 598.57,-178.17"/>
</g>
<!-- Node6 -->
<g id="node6" class="node">
<title>Node6</title>
<g id="a_node6"><a xlink:href="classsisi4s_1_1Data.html#a0ec0b1c7f2356fd43d82ee1dd0246789" target="_top" xlink:title=" ">
<polygon fill="white" stroke="#666666" points="733,-216.5 586,-216.5 586,-197.5 733,-197.5 733,-216.5"/>
<text text-anchor="middle" x="659.5" y="-204.5" font-family="Helvetica,sans-Serif" font-size="10.00">sisi4s::Data::getTypeName</text>
</a>
</g>
</g>
<!-- Node3&#45;&gt;Node6 -->
<g id="edge5" class="edge">
<title>Node3&#45;&gt;Node6</title>
<path fill="none" stroke="#63b8ff" d="M530.01,-207C544.48,-207 560.34,-207 575.83,-207"/>
<polygon fill="#63b8ff" stroke="#63b8ff" points="575.94,-210.5 585.94,-207 575.94,-203.5 575.94,-210.5"/>
</g>
<!-- Node5 -->
<g id="node5" class="node">
<title>Node5</title>
<g id="a_node5"><a xlink:href="classsisi4s_1_1Data.html#a5b4676e48b4f437d399587e6903f896a" target="_top" xlink:title=" ">
<polygon fill="white" stroke="#666666" points="871,-168.5 776,-168.5 776,-149.5 871,-149.5 871,-168.5"/>
<text text-anchor="middle" x="823.5" y="-156.5" font-family="Helvetica,sans-Serif" font-size="10.00">sisi4s::Data::get</text>
</a>
</g>
</g>
<!-- Node4&#45;&gt;Node5 -->
<g id="edge4" class="edge">
<title>Node4&#45;&gt;Node5</title>
<path fill="none" stroke="#63b8ff" d="M711.76,-159C728.96,-159 748.24,-159 765.83,-159"/>
<polygon fill="#63b8ff" stroke="#63b8ff" points="765.97,-162.5 775.97,-159 765.97,-155.5 765.97,-162.5"/>
</g>
<!-- Node7&#45;&gt;Node4 -->
<g id="edge7" class="edge">
<title>Node7&#45;&gt;Node4</title>
<path fill="none" stroke="#63b8ff" d="M524.74,-240.84C531.15,-238.06 537.41,-234.81 543,-231 563.33,-217.17 558.87,-203.11 579,-189 584.9,-184.87 591.43,-181.22 598.15,-178.02"/>
<polygon fill="#63b8ff" stroke="#63b8ff" points="599.66,-181.18 607.39,-173.94 596.83,-174.78 599.66,-181.18"/>
</g>
<!-- Node7&#45;&gt;Node6 -->
<g id="edge10" class="edge">
<title>Node7&#45;&gt;Node6</title>
<path fill="none" stroke="#63b8ff" d="M524.54,-241.76C551.85,-234.67 585.25,-226.01 611.86,-219.1"/>
<polygon fill="#63b8ff" stroke="#63b8ff" points="612.9,-222.45 621.7,-216.55 611.14,-215.67 612.9,-222.45"/>
</g>
<!-- Node8 -->
<g id="node8" class="node">
<title>Node8</title>
<g id="a_node8"><a xlink:href="classsisi4s_1_1Algorithm.html#a1cb9a5e8f19cd8e6b70bb06738ca9413" target="_top" xlink:title=" ">
<polygon fill="white" stroke="#666666" points="740,-267 579,-267 579,-237 740,-237 740,-267"/>
<text text-anchor="start" x="587" y="-255" font-family="Helvetica,sans-Serif" font-size="10.00">sisi4s::Algorithm::</text>
<text text-anchor="middle" x="659.5" y="-244" font-family="Helvetica,sans-Serif" font-size="10.00">getRealArgumentFromInteger</text>
</a>
</g>
</g>
<!-- Node7&#45;&gt;Node8 -->
<g id="edge8" class="edge">
<title>Node7&#45;&gt;Node8</title>
<path fill="none" stroke="#63b8ff" d="M524.54,-254.17C538.18,-253.95 553.34,-253.71 568.42,-253.46"/>
<polygon fill="#63b8ff" stroke="#63b8ff" points="568.88,-256.95 578.82,-253.29 568.77,-249.95 568.88,-256.95"/>
</g>
<!-- Node9 -->
<g id="node9" class="node">
<title>Node9</title>
<g id="a_node9"><a xlink:href="classsisi4s_1_1Algorithm.html#a89e59623f1c238a871a4fba19371be7d" target="_top" xlink:title=" ">
<polygon fill="white" stroke="#666666" points="738.5,-315 580.5,-315 580.5,-285 738.5,-285 738.5,-315"/>
<text text-anchor="start" x="588.5" y="-303" font-family="Helvetica,sans-Serif" font-size="10.00">sisi4s::Algorithm::</text>
<text text-anchor="middle" x="659.5" y="-292" font-family="Helvetica,sans-Serif" font-size="10.00">getRealArgumentFromTensor</text>
</a>
</g>
</g>
<!-- Node7&#45;&gt;Node9 -->
<g id="edge9" class="edge">
<title>Node7&#45;&gt;Node9</title>
<path fill="none" stroke="#63b8ff" d="M524.54,-267.42C543.84,-272.11 566.17,-277.54 587,-282.61"/>
<polygon fill="#63b8ff" stroke="#63b8ff" points="586.22,-286.02 596.77,-284.98 587.88,-279.22 586.22,-286.02"/>
</g>
<!-- Node10&#45;&gt;Node4 -->
<g id="edge12" class="edge">
<title>Node10&#45;&gt;Node4</title>
<path fill="none" stroke="#63b8ff" d="M524.54,-124.24C547.1,-130.09 573.79,-137.02 597.4,-143.15"/>
<polygon fill="#63b8ff" stroke="#63b8ff" points="596.75,-146.59 607.3,-145.72 598.5,-139.82 596.75,-146.59"/>
</g>
<!-- Node11 -->
<g id="node11" class="node">
<title>Node11</title>
<g id="a_node11"><a xlink:href="classsisi4s_1_1Data.html#a10819dce08cb4dd8d881b9fe02036d69" target="_top" xlink:title=" ">
<polygon fill="white" stroke="#666666" points="722,-72.5 597,-72.5 597,-53.5 722,-53.5 722,-72.5"/>
<text text-anchor="middle" x="659.5" y="-60.5" font-family="Helvetica,sans-Serif" font-size="10.00">sisi4s::Data::getName</text>
</a>
</g>
</g>
<!-- Node10&#45;&gt;Node11 -->
<g id="edge13" class="edge">
<title>Node10&#45;&gt;Node11</title>
<path fill="none" stroke="#63b8ff" d="M524.54,-97.76C551.85,-90.67 585.25,-82.01 611.86,-75.1"/>
<polygon fill="#63b8ff" stroke="#63b8ff" points="612.9,-78.45 621.7,-72.55 611.14,-71.67 612.9,-78.45"/>
</g>
<!-- Node13 -->
<g id="node13" class="node">
<title>Node13</title>
<g id="a_node13"><a xlink:href="classsisi4s_1_1Algorithm.html#a388052a12509b8b641f17bbe8d41f8f3" target="_top" xlink:title="Specifies the location of an output tensor data.">
<polygon fill="white" stroke="#666666" points="543,-30 402,-30 402,0 543,0 543,-30"/>
<text text-anchor="start" x="410" y="-18" font-family="Helvetica,sans-Serif" font-size="10.00">sisi4s::Algorithm::</text>
<text text-anchor="middle" x="472.5" y="-7" font-family="Helvetica,sans-Serif" font-size="10.00">allocatedTensorArgument</text>
</a>
</g>
</g>
<!-- Node12&#45;&gt;Node13 -->
<g id="edge15" class="edge">
<title>Node12&#45;&gt;Node13</title>
<path fill="none" stroke="#63b8ff" d="M350.19,-100.96C355.77,-98.43 361.12,-95.46 366,-92 389.22,-75.52 379.39,-56.31 402,-39 403.81,-37.61 405.71,-36.3 407.67,-35.07"/>
<polygon fill="#63b8ff" stroke="#63b8ff" points="409.59,-38.01 416.63,-30.09 406.19,-31.89 409.59,-38.01"/>
</g>
<!-- Node14 -->
<g id="node14" class="node">
<title>Node14</title>
<g id="a_node14"><a xlink:href="classsisi4s_1_1Algorithm.html#a338a44c8fd4d6be3b32a6d5e71dfe180" target="_top" xlink:title=" ">
<polygon fill="white" stroke="#666666" points="528.5,-174 416.5,-174 416.5,-144 528.5,-144 528.5,-174"/>
<text text-anchor="start" x="424.5" y="-162" font-family="Helvetica,sans-Serif" font-size="10.00">sisi4s::Algorithm::</text>
<text text-anchor="middle" x="472.5" y="-151" font-family="Helvetica,sans-Serif" font-size="10.00">getTensorArgument</text>
</a>
</g>
</g>
<!-- Node12&#45;&gt;Node14 -->
<g id="edge18" class="edge">
<title>Node12&#45;&gt;Node14</title>
<path fill="none" stroke="#63b8ff" d="M344.38,-131.04C364.53,-135.47 386.53,-140.31 406.47,-144.7"/>
<polygon fill="#63b8ff" stroke="#63b8ff" points="405.87,-148.15 416.38,-146.88 407.37,-141.31 405.87,-148.15"/>
</g>
<!-- Node15 -->
<g id="node15" class="node">
<title>Node15</title>
<g id="a_node15"><a xlink:href="classsisi4s_1_1Algorithm.html#aec9041b31cb64a42ee1fd79d32774266" target="_top" xlink:title=" ">
<polygon fill="white" stroke="#666666" points="524.5,-78 420.5,-78 420.5,-48 524.5,-48 524.5,-78"/>
<text text-anchor="start" x="428.5" y="-66" font-family="Helvetica,sans-Serif" font-size="10.00">sisi4s::Algorithm::</text>
<text text-anchor="middle" x="472.5" y="-55" font-family="Helvetica,sans-Serif" font-size="10.00">isArgumentGiven</text>
</a>
</g>
</g>
<!-- Node12&#45;&gt;Node15 -->
<g id="edge21" class="edge">
<title>Node12&#45;&gt;Node15</title>
<path fill="none" stroke="#63b8ff" d="M332.67,-100.96C343.73,-98 355.23,-94.92 366,-92 380.38,-88.11 395.84,-83.88 410.38,-79.89"/>
<polygon fill="#63b8ff" stroke="#63b8ff" points="411.56,-83.19 420.28,-77.17 409.71,-76.44 411.56,-83.19"/>
</g>
<!-- Node13&#45;&gt;Node4 -->
<g id="edge16" class="edge">
<title>Node13&#45;&gt;Node4</title>
<path fill="none" stroke="#63b8ff" d="M526.95,-30.07C532.59,-32.63 538.06,-35.6 543,-39 563.53,-53.14 562.03,-63.75 579,-82 596.88,-101.22 618.32,-121.86 634.43,-136.93"/>
<polygon fill="#63b8ff" stroke="#63b8ff" points="632.16,-139.6 641.87,-143.85 636.93,-134.48 632.16,-139.6"/>
</g>
<!-- Node13&#45;&gt;Node11 -->
<g id="edge17" class="edge">
<title>Node13&#45;&gt;Node11</title>
<path fill="none" stroke="#63b8ff" d="M531.53,-30.06C557.42,-36.77 587.51,-44.58 611.91,-50.91"/>
<polygon fill="#63b8ff" stroke="#63b8ff" points="611.08,-54.31 621.64,-53.44 612.84,-47.54 611.08,-54.31"/>
</g>
<!-- Node14&#45;&gt;Node4 -->
<g id="edge19" class="edge">
<title>Node14&#45;&gt;Node4</title>
<path fill="none" stroke="#63b8ff" d="M528.51,-159C550.02,-159 574.79,-159 596.91,-159"/>
<polygon fill="#63b8ff" stroke="#63b8ff" points="597.19,-162.5 607.19,-159 597.19,-155.5 597.19,-162.5"/>
</g>
<!-- Node14&#45;&gt;Node6 -->
<g id="edge20" class="edge">
<title>Node14&#45;&gt;Node6</title>
<path fill="none" stroke="#63b8ff" d="M528.51,-173.27C555.12,-180.18 586.71,-188.37 612.09,-194.96"/>
<polygon fill="#63b8ff" stroke="#63b8ff" points="611.28,-198.36 621.84,-197.49 613.04,-191.59 611.28,-198.36"/>
</g>
</g>
</svg>
