<?xml version="1.0" encoding="UTF-8" standalone="no"?>
<!DOCTYPE svg PUBLIC "-//W3C//DTD SVG 1.1//EN"
 "http://www.w3.org/Graphics/SVG/1.1/DTD/svg11.dtd">
<!-- Generated by graphviz version 9.0.0 (0)
 -->
<!-- Title: sisi4s::Timer Pages: 1 -->
<svg width="139pt" height="423pt"
 viewBox="0.00 0.00 139.00 422.50" xmlns="http://www.w3.org/2000/svg" xmlns:xlink="http://www.w3.org/1999/xlink">
<g id="graph0" class="graph" transform="scale(1 1) rotate(0) translate(4 418.5)">
<title>sisi4s::Timer</title>
<!-- Node1 -->
<g id="Node000001" class="node">
<title>Node1</title>
<g id="a_Node000001"><a xlink:title=" ">
<polygon fill="#999999" stroke="none" points="101.5,-68 29.5,-68 29.5,0 101.5,0 101.5,-68"/>
<text text-anchor="start" x="34.38" y="-54.5" font-family="Helvetica,sans-Serif" font-size="10.00">sisi4s::Timer</text>
<text text-anchor="start" x="64" y="-38.5" font-family="Helvetica,sans-Serif" font-size="10.00"> </text>
<text text-anchor="start" x="35.38" y="-22.5" font-family="Helvetica,sans-Serif" font-size="10.00">+</text>
<text text-anchor="start" x="49.5" y="-22.5" font-family="Helvetica,sans-Serif" font-size="10.00">Timer()</text>
<text text-anchor="start" x="35.38" y="-6.5" font-family="Helvetica,sans-Serif" font-size="10.00">+</text>
<text text-anchor="start" x="49.5" y="-6.5" font-family="Helvetica,sans-Serif" font-size="10.00">~Timer()</text>
<polygon fill="#666666" stroke="#666666" points="29.5,-50 29.5,-50 101.5,-50 101.5,-50 29.5,-50"/>
<polygon fill="#666666" stroke="#666666" points="29.5,-34 29.5,-34 101.5,-34 101.5,-34 29.5,-34"/>
<polygon fill="none" stroke="#666666" points="29.5,0 29.5,-68 101.5,-68 101.5,0 29.5,0"/>
</a>
</g>
</g>
<!-- Node2 -->
<g id="Node000002" class="node">
<title>Node2</title>
<g id="a_Node000002"><a xlink:href="classsisi4s_1_1Time.html" target="_top" xlink:title=" ">
<polygon fill="white" stroke="none" points="131,-325.5 0,-325.5 0,-129.5 131,-129.5 131,-325.5"/>
<text text-anchor="start" x="36.25" y="-312" font-family="Helvetica,sans-Serif" font-size="10.00">sisi4s::Time</text>
<text text-anchor="start" x="3.88" y="-296" font-family="Helvetica,sans-Serif" font-size="10.00">+</text>
<text text-anchor="start" x="16" y="-296" font-family="Helvetica,sans-Serif" font-size="10.00">FRACTIONS</text>
<text text-anchor="start" x="3.88" y="-280" font-family="Helvetica,sans-Serif" font-size="10.00">+</text>
<text text-anchor="start" x="16" y="-280" font-family="Helvetica,sans-Serif" font-size="10.00">FRACTION_DIGITS</text>
<text text-anchor="start" x="3.88" y="-264" font-family="Helvetica,sans-Serif" font-size="10.00">+</text>
<text text-anchor="start" x="16" y="-264" font-family="Helvetica,sans-Serif" font-size="10.00">Time()</text>
<text text-anchor="start" x="3.88" y="-248" font-family="Helvetica,sans-Serif" font-size="10.00">+</text>
<text text-anchor="start" x="16" y="-248" font-family="Helvetica,sans-Serif" font-size="10.00">Time()</text>
<text text-anchor="start" x="3.88" y="-232" font-family="Helvetica,sans-Serif" font-size="10.00">+</text>
<text text-anchor="start" x="16" y="-232" font-family="Helvetica,sans-Serif" font-size="10.00">Time()</text>
<text text-anchor="start" x="3.88" y="-216" font-family="Helvetica,sans-Serif" font-size="10.00">+</text>
<text text-anchor="start" x="16" y="-216" font-family="Helvetica,sans-Serif" font-size="10.00">getSeconds()</text>
<text text-anchor="start" x="3.88" y="-200" font-family="Helvetica,sans-Serif" font-size="10.00">+</text>
<text text-anchor="start" x="16" y="-200" font-family="Helvetica,sans-Serif" font-size="10.00">getFractions()</text>
<text text-anchor="start" x="3.88" y="-184" font-family="Helvetica,sans-Serif" font-size="10.00">+</text>
<text text-anchor="start" x="16" y="-184" font-family="Helvetica,sans-Serif" font-size="10.00">getFractionalSeconds()</text>
<text text-anchor="start" x="3.88" y="-168" font-family="Helvetica,sans-Serif" font-size="10.00">+</text>
<text text-anchor="start" x="16" y="-168" font-family="Helvetica,sans-Serif" font-size="10.00">operator+=()</text>
<text text-anchor="start" x="3.88" y="-152" font-family="Helvetica,sans-Serif" font-size="10.00">+</text>
<text text-anchor="start" x="16" y="-152" font-family="Helvetica,sans-Serif" font-size="10.00">operator&#45;=()</text>
<text text-anchor="start" x="3.88" y="-136" font-family="Helvetica,sans-Serif" font-size="10.00">+</text>
<text text-anchor="start" x="16" y="-136" font-family="Helvetica,sans-Serif" font-size="10.00">getCurrentRealTime()</text>
<polygon fill="#666666" stroke="#666666" points="0,-307.5 0,-307.5 131,-307.5 131,-307.5 0,-307.5"/>
<polygon fill="#666666" stroke="#666666" points="0,-275.5 0,-275.5 14,-275.5 14,-275.5 0,-275.5"/>
<polygon fill="#666666" stroke="#666666" points="14,-275.5 14,-275.5 131,-275.5 131,-275.5 14,-275.5"/>
<polygon fill="none" stroke="#666666" points="0,-129.5 0,-325.5 131,-325.5 131,-129.5 0,-129.5"/>
</a>
</g>
</g>
<!-- Node2&#45;&gt;Node1 -->
<g id="edge1_Node000001_Node000002" class="edge">
<title>Node2&#45;&gt;Node1</title>
<g id="a_edge1_Node000001_Node000002"><a xlink:title=" ">
<path fill="none" stroke="#63b8ff" d="M65.5,-129.63C65.5,-112.58 65.5,-95.58 65.5,-80.79"/>
<polygon fill="none" stroke="#63b8ff" points="65.5,-80.79 61.5,-74.79 65.5,-68.79 69.5,-74.79 65.5,-80.79"/>
</a>
</g>
<text text-anchor="middle" x="82.38" y="-102" font-family="Helvetica,sans-Serif" font-size="10.00" fill="grey"> #start</text>
<text text-anchor="middle" x="82.38" y="-89.25" font-family="Helvetica,sans-Serif" font-size="10.00" fill="grey">#time</text>
</g>
<!-- Node3 -->
<g id="Node000003" class="node">
<title>Node3</title>
<g id="a_Node000003"><a xlink:title=" ">
<polygon fill="white" stroke="none" points="93,-414.5 38,-414.5 38,-362.5 93,-362.5 93,-414.5"/>
<text text-anchor="start" x="43" y="-401" font-family="Helvetica,sans-Serif" font-size="10.00">timespec</text>
<text text-anchor="start" x="64" y="-385" font-family="Helvetica,sans-Serif" font-size="10.00"> </text>
<text text-anchor="start" x="64" y="-369" font-family="Helvetica,sans-Serif" font-size="10.00"> </text>
<polygon fill="#666666" stroke="#666666" points="38,-396.5 38,-396.5 93,-396.5 93,-396.5 38,-396.5"/>
<polygon fill="#666666" stroke="#666666" points="38,-380.5 38,-380.5 93,-380.5 93,-380.5 38,-380.5"/>
<polygon fill="none" stroke="#666666" points="38,-362.5 38,-414.5 93,-414.5 93,-362.5 38,-362.5"/>
</a>
</g>
</g>
<!-- Node3&#45;&gt;Node2 -->
<g id="edge2_Node000002_Node000003" class="edge">
<title>Node3&#45;&gt;Node2</title>
<g id="a_edge2_Node000002_Node000003"><a xlink:title=" ">
<path fill="none" stroke="darkgreen" d="M65.5,-351.23C65.5,-343.23 65.5,-334.39 65.5,-325.23"/>
<polygon fill="none" stroke="darkgreen" points="62,-351.14 65.5,-361.14 69,-351.14 62,-351.14"/>
</a>
</g>
</g>
</g>
</svg>
