<?xml version="1.0" encoding="UTF-8" standalone="no"?>
<!DOCTYPE svg PUBLIC "-//W3C//DTD SVG 1.1//EN"
 "http://www.w3.org/Graphics/SVG/1.1/DTD/svg11.dtd">
<!-- Generated by graphviz version 5.0.1 (0)
 -->
<!-- Title: CLI::FileError Pages: 1 -->
<svg width="112pt" height="469pt"
 viewBox="0.00 0.00 112.00 469.00" xmlns="http://www.w3.org/2000/svg" xmlns:xlink="http://www.w3.org/1999/xlink">
<g id="graph0" class="graph" transform="scale(1 1) rotate(0) translate(4 465)">
<title>CLI::FileError</title>
<!-- Node1 -->
<g id="node1" class="node">
<title>Node1</title>
<g id="a_node1"><a xlink:title="Thrown when parsing an INI file and it is missing.">
<polygon fill="#bfbfbf" stroke="black" points="13,-0.5 13,-112.5 91,-112.5 91,-0.5 13,-0.5"/>
<text text-anchor="middle" x="52" y="-100.5" font-family="Helvetica,sans-Serif" font-size="10.00">CLI::FileError</text>
<polyline fill="none" stroke="black" points="13,-93.5 91,-93.5"/>
<text text-anchor="middle" x="52" y="-81.5" font-family="Helvetica,sans-Serif" font-size="10.00"> </text>
<polyline fill="none" stroke="black" points="13,-74.5 91,-74.5"/>
<text text-anchor="start" x="21" y="-62.5" font-family="Helvetica,sans-Serif" font-size="10.00">+ FileError()</text>
<text text-anchor="start" x="21" y="-51.5" font-family="Helvetica,sans-Serif" font-size="10.00">+ FileError()</text>
<text text-anchor="start" x="21" y="-40.5" font-family="Helvetica,sans-Serif" font-size="10.00">+ FileError()</text>
<text text-anchor="start" x="21" y="-29.5" font-family="Helvetica,sans-Serif" font-size="10.00">+ Missing()</text>
<text text-anchor="start" x="21" y="-18.5" font-family="Helvetica,sans-Serif" font-size="10.00"># FileError()</text>
<text text-anchor="start" x="21" y="-7.5" font-family="Helvetica,sans-Serif" font-size="10.00"># FileError()</text>
</a>
</g>
</g>
<!-- Node2 -->
<g id="node2" class="node">
<title>Node2</title>
<g id="a_node2"><a xlink:href="classCLI_1_1ParseError.html" target="_top" xlink:title="Anything that can error in Parse.">
<polygon fill="none" stroke="black" points="8.5,-149.5 8.5,-239.5 95.5,-239.5 95.5,-149.5 8.5,-149.5"/>
<text text-anchor="middle" x="52" y="-227.5" font-family="Helvetica,sans-Serif" font-size="10.00">CLI::ParseError</text>
<polyline fill="none" stroke="black" points="8.5,-220.5 95.5,-220.5"/>
<text text-anchor="middle" x="52" y="-208.5" font-family="Helvetica,sans-Serif" font-size="10.00"> </text>
<polyline fill="none" stroke="black" points="8.5,-201.5 95.5,-201.5"/>
<text text-anchor="start" x="16.5" y="-189.5" font-family="Helvetica,sans-Serif" font-size="10.00">+ ParseError()</text>
<text text-anchor="start" x="16.5" y="-178.5" font-family="Helvetica,sans-Serif" font-size="10.00">+ ParseError()</text>
<text text-anchor="start" x="16.5" y="-167.5" font-family="Helvetica,sans-Serif" font-size="10.00"># ParseError()</text>
<text text-anchor="start" x="16.5" y="-156.5" font-family="Helvetica,sans-Serif" font-size="10.00"># ParseError()</text>
</a>
</g>
</g>
<!-- Node2&#45;&gt;Node1 -->
<g id="edge1" class="edge">
<title>Node2&#45;&gt;Node1</title>
<path fill="none" stroke="midnightblue" d="M52,-139.31C52,-130.61 52,-121.59 52,-112.87"/>
<polygon fill="none" stroke="midnightblue" points="48.5,-139.34 52,-149.34 55.5,-139.34 48.5,-139.34"/>
</g>
<!-- Node3 -->
<g id="node3" class="node">
<title>Node3</title>
<g id="a_node3"><a xlink:href="classCLI_1_1Error.html" target="_top" xlink:title="All errors derive from this one.">
<polygon fill="none" stroke="black" points="0,-276.5 0,-366.5 104,-366.5 104,-276.5 0,-276.5"/>
<text text-anchor="middle" x="52" y="-354.5" font-family="Helvetica,sans-Serif" font-size="10.00">CLI::Error</text>
<polyline fill="none" stroke="black" points="0,-347.5 104,-347.5"/>
<text text-anchor="middle" x="52" y="-335.5" font-family="Helvetica,sans-Serif" font-size="10.00"> </text>
<polyline fill="none" stroke="black" points="0,-328.5 104,-328.5"/>
<text text-anchor="start" x="8" y="-316.5" font-family="Helvetica,sans-Serif" font-size="10.00">+ get_exit_code()</text>
<text text-anchor="start" x="8" y="-305.5" font-family="Helvetica,sans-Serif" font-size="10.00">+ get_name()</text>
<text text-anchor="start" x="8" y="-294.5" font-family="Helvetica,sans-Serif" font-size="10.00">+ Error()</text>
<text text-anchor="start" x="8" y="-283.5" font-family="Helvetica,sans-Serif" font-size="10.00">+ Error()</text>
</a>
</g>
</g>
<!-- Node3&#45;&gt;Node2 -->
<g id="edge2" class="edge">
<title>Node3&#45;&gt;Node2</title>
<path fill="none" stroke="midnightblue" d="M52,-266.16C52,-257.28 52,-248.18 52,-239.59"/>
<polygon fill="none" stroke="midnightblue" points="48.5,-266.43 52,-276.43 55.5,-266.43 48.5,-266.43"/>
</g>
<!-- Node4 -->
<g id="node4" class="node">
<title>Node4</title>
<g id="a_node4"><a xlink:title=" ">
<polygon fill="none" stroke="black" points="0,-403.5 0,-460.5 104,-460.5 104,-403.5 0,-403.5"/>
<text text-anchor="middle" x="52" y="-448.5" font-family="Helvetica,sans-Serif" font-size="10.00">std::runtime_error</text>
<polyline fill="none" stroke="black" points="0,-441.5 104,-441.5"/>
<text text-anchor="middle" x="52" y="-429.5" font-family="Helvetica,sans-Serif" font-size="10.00"> </text>
<polyline fill="none" stroke="black" points="0,-422.5 104,-422.5"/>
<text text-anchor="middle" x="52" y="-410.5" font-family="Helvetica,sans-Serif" font-size="10.00"> </text>
</a>
</g>
</g>
<!-- Node4&#45;&gt;Node3 -->
<g id="edge3" class="edge">
<title>Node4&#45;&gt;Node3</title>
<path fill="none" stroke="midnightblue" d="M52,-393.21C52,-384.61 52,-375.39 52,-366.55"/>
<polygon fill="none" stroke="midnightblue" points="48.5,-393.34 52,-403.34 55.5,-393.34 48.5,-393.34"/>
</g>
</g>
</svg>
