<?xml version="1.0" encoding="UTF-8" standalone="no"?>
<!DOCTYPE svg PUBLIC "-//W3C//DTD SVG 1.1//EN"
 "http://www.w3.org/Graphics/SVG/1.1/DTD/svg11.dtd">
<!-- Generated by graphviz version 7.1.0 (0)
 -->
<!-- Title: sisi4s::Sisi4s::run Pages: 1 -->
<svg width="473pt" height="155pt"
 viewBox="0.00 0.00 473.00 155.00" xmlns="http://www.w3.org/2000/svg" xmlns:xlink="http://www.w3.org/1999/xlink">
<g id="graph0" class="graph" transform="scale(1 1) rotate(0) translate(4 151)">
<title>sisi4s::Sisi4s::run</title>
<!-- Node1 -->
<g id="node1" class="node">
<title>Node1</title>
<g id="a_node1"><a xlink:title=" ">
<polygon fill="#999999" stroke="#666666" points="101,-79.5 0,-79.5 0,-60.5 101,-60.5 101,-79.5"/>
<text text-anchor="middle" x="50.5" y="-67.5" font-family="Helvetica,sans-Serif" font-size="10.00">sisi4s::Sisi4s::run</text>
</a>
</g>
</g>
<!-- Node2 -->
<g id="node2" class="node">
<title>Node2</title>
<g id="a_node2"><a xlink:href="classsisi4s_1_1Time.html#acde8b004fc350d2767365a72a31e3c47" target="_top" xlink:title=" ">
<polygon fill="white" stroke="#666666" points="285.5,-147 140.5,-147 140.5,-117 285.5,-117 285.5,-147"/>
<text text-anchor="start" x="148.5" y="-135" font-family="Helvetica,sans-Serif" font-size="10.00">sisi4s::Time::getFractional</text>
<text text-anchor="middle" x="213" y="-124" font-family="Helvetica,sans-Serif" font-size="10.00">Seconds</text>
</a>
</g>
</g>
<!-- Node1&#45;&gt;Node2 -->
<g id="edge1" class="edge">
<title>Node1&#45;&gt;Node2</title>
<path fill="none" stroke="#63b8ff" d="M71.97,-79.85C89.13,-87.92 114.38,-99.38 137,-108 141.38,-109.67 145.94,-111.32 150.54,-112.93"/>
<polygon fill="#63b8ff" stroke="#63b8ff" points="149.28,-116.2 159.88,-116.12 151.54,-109.58 149.28,-116.2"/>
</g>
<!-- Node3 -->
<g id="node3" class="node">
<title>Node3</title>
<g id="a_node3"><a xlink:href="classsisi4s_1_1Sisi4s.html#add11d7b556ddc1f5089851d836a8862b" target="_top" xlink:title=" ">
<polygon fill="white" stroke="#666666" points="277,-98.5 149,-98.5 149,-79.5 277,-79.5 277,-98.5"/>
<text text-anchor="middle" x="213" y="-86.5" font-family="Helvetica,sans-Serif" font-size="10.00">sisi4s::Sisi4s::listHosts</text>
</a>
</g>
</g>
<!-- Node1&#45;&gt;Node3 -->
<g id="edge2" class="edge">
<title>Node1&#45;&gt;Node3</title>
<path fill="none" stroke="#63b8ff" d="M101.4,-75.91C112.82,-77.26 125.19,-78.72 137.39,-80.17"/>
<polygon fill="#63b8ff" stroke="#63b8ff" points="136.67,-83.61 147.01,-81.31 137.49,-76.65 136.67,-83.61"/>
</g>
<!-- Node4 -->
<g id="node4" class="node">
<title>Node4</title>
<g id="a_node4"><a xlink:href="classsisi4s_1_1Sisi4s.html#a67898fd5a133742f683a61d0e55e9e6b" target="_top" xlink:title=" ">
<polygon fill="white" stroke="#666666" points="284,-61.5 142,-61.5 142,-42.5 284,-42.5 284,-61.5"/>
<text text-anchor="middle" x="213" y="-49.5" font-family="Helvetica,sans-Serif" font-size="10.00">sisi4s::Sisi4s::printBanner</text>
</a>
</g>
</g>
<!-- Node1&#45;&gt;Node4 -->
<g id="edge3" class="edge">
<title>Node1&#45;&gt;Node4</title>
<path fill="none" stroke="#63b8ff" d="M101.4,-64.4C110.63,-63.37 120.48,-62.26 130.37,-61.16"/>
<polygon fill="#63b8ff" stroke="#63b8ff" points="130.45,-64.67 140,-60.07 129.67,-57.71 130.45,-64.67"/>
</g>
<!-- Node5 -->
<g id="node5" class="node">
<title>Node5</title>
<g id="a_node5"><a xlink:href="classsisi4s_1_1Sisi4s.html#afe2096757c8e16bec943b7b7f5acbd7f" target="_top" xlink:title=" ">
<polygon fill="white" stroke="#666666" points="289,-24.5 137,-24.5 137,-5.5 289,-5.5 289,-24.5"/>
<text text-anchor="middle" x="213" y="-12.5" font-family="Helvetica,sans-Serif" font-size="10.00">sisi4s::Sisi4s::printStatistics</text>
</a>
</g>
</g>
<!-- Node1&#45;&gt;Node5 -->
<g id="edge4" class="edge">
<title>Node1&#45;&gt;Node5</title>
<path fill="none" stroke="#63b8ff" d="M72.59,-60.07C89.69,-52.28 114.55,-41.52 137,-34 143.52,-31.82 150.43,-29.75 157.32,-27.83"/>
<polygon fill="#63b8ff" stroke="#63b8ff" points="157.84,-31.31 166.59,-25.35 156.03,-24.55 157.84,-31.31"/>
</g>
<!-- Node6 -->
<g id="node6" class="node">
<title>Node6</title>
<g id="a_node6"><a xlink:href="classsisi4s_1_1MpiCommunicator.html#a27c1b97bc4e7ae60135dc41a13b226e3" target="_top" xlink:title=" ">
<polygon fill="white" stroke="#666666" points="465,-30 325,-30 325,0 465,0 465,-30"/>
<text text-anchor="start" x="333" y="-18" font-family="Helvetica,sans-Serif" font-size="10.00">sisi4s::MpiCommunicator</text>
<text text-anchor="middle" x="395" y="-7" font-family="Helvetica,sans-Serif" font-size="10.00">::reduce</text>
</a>
</g>
</g>
<!-- Node5&#45;&gt;Node6 -->
<g id="edge5" class="edge">
<title>Node5&#45;&gt;Node6</title>
<path fill="none" stroke="#63b8ff" d="M289.29,-15C297.28,-15 305.43,-15 313.47,-15"/>
<polygon fill="#63b8ff" stroke="#63b8ff" points="313.24,-18.5 323.24,-15 313.24,-11.5 313.24,-18.5"/>
</g>
</g>
</svg>
