<?xml version="1.0" encoding="UTF-8" standalone="no"?>
<!DOCTYPE svg PUBLIC "-//W3C//DTD SVG 1.1//EN"
 "http://www.w3.org/Graphics/SVG/1.1/DTD/svg11.dtd">
<!-- Generated by graphviz version 5.0.1 (0)
 -->
<!-- Title: sisi4s::DoublesAmplitudesFromVertex Pages: 1 -->
<svg width="490pt" height="624pt"
 viewBox="0.00 0.00 490.00 624.00" xmlns="http://www.w3.org/2000/svg" xmlns:xlink="http://www.w3.org/1999/xlink">
<g id="graph0" class="graph" transform="scale(1 1) rotate(0) translate(4 620)">
<title>sisi4s::DoublesAmplitudesFromVertex</title>
<!-- Node1 -->
<g id="node1" class="node">
<title>Node1</title>
<g id="a_node1"><a xlink:title="Caclulates the doubles amplitudes &#160;from the doubles amplitudes Vertex .">
<polygon fill="#bfbfbf" stroke="black" points="8.5,-0.5 8.5,-112.5 203.5,-112.5 203.5,-0.5 8.5,-0.5"/>
<text text-anchor="start" x="16.5" y="-100.5" font-family="Helvetica,sans-Serif" font-size="10.00">sisi4s::DoublesAmplitudes</text>
<text text-anchor="middle" x="106" y="-89.5" font-family="Helvetica,sans-Serif" font-size="10.00">FromVertex</text>
<polyline fill="none" stroke="black" points="8.5,-82.5 203.5,-82.5"/>
<text text-anchor="middle" x="106" y="-70.5" font-family="Helvetica,sans-Serif" font-size="10.00"> </text>
<polyline fill="none" stroke="black" points="8.5,-63.5 203.5,-63.5"/>
<text text-anchor="start" x="16.5" y="-51.5" font-family="Helvetica,sans-Serif" font-size="10.00">+ getName()</text>
<text text-anchor="start" x="16.5" y="-40.5" font-family="Helvetica,sans-Serif" font-size="10.00">+ DoublesAmplitudesFromVertex()</text>
<text text-anchor="start" x="16.5" y="-29.5" font-family="Helvetica,sans-Serif" font-size="10.00">+ ~DoublesAmplitudesFromVertex()</text>
<text text-anchor="start" x="16.5" y="-18.5" font-family="Helvetica,sans-Serif" font-size="10.00">+ run()</text>
<text text-anchor="start" x="16.5" y="-7.5" font-family="Helvetica,sans-Serif" font-size="10.00">+ dryRun()</text>
</a>
</g>
</g>
<!-- Node2 -->
<g id="node2" class="node">
<title>Node2</title>
<g id="a_node2"><a xlink:href="classsisi4s_1_1Algorithm.html" target="_top" xlink:title=" ">
<polygon fill="none" stroke="black" points="0,-160.5 0,-371.5 180,-371.5 180,-160.5 0,-160.5"/>
<text text-anchor="middle" x="90" y="-359.5" font-family="Helvetica,sans-Serif" font-size="10.00">sisi4s::Algorithm</text>
<polyline fill="none" stroke="black" points="0,-352.5 180,-352.5"/>
<text text-anchor="start" x="8" y="-340.5" font-family="Helvetica,sans-Serif" font-size="10.00"># arguments</text>
<polyline fill="none" stroke="black" points="0,-333.5 180,-333.5"/>
<text text-anchor="start" x="8" y="-321.5" font-family="Helvetica,sans-Serif" font-size="10.00">+ Algorithm()</text>
<text text-anchor="start" x="8" y="-310.5" font-family="Helvetica,sans-Serif" font-size="10.00">+ ~Algorithm()</text>
<text text-anchor="start" x="8" y="-299.5" font-family="Helvetica,sans-Serif" font-size="10.00">+ getName()</text>
<text text-anchor="start" x="8" y="-288.5" font-family="Helvetica,sans-Serif" font-size="10.00">+ run()</text>
<text text-anchor="start" x="8" y="-277.5" font-family="Helvetica,sans-Serif" font-size="10.00">+ dryRun()</text>
<text text-anchor="start" x="8" y="-266.5" font-family="Helvetica,sans-Serif" font-size="10.00">+ isArgumentGiven()</text>
<text text-anchor="start" x="8" y="-255.5" font-family="Helvetica,sans-Serif" font-size="10.00">+ getTextArgument()</text>
<text text-anchor="start" x="8" y="-244.5" font-family="Helvetica,sans-Serif" font-size="10.00">+ getTextArgument()</text>
<text text-anchor="start" x="8" y="-233.5" font-family="Helvetica,sans-Serif" font-size="10.00">+ getBooleanArgument()</text>
<text text-anchor="start" x="8" y="-222.5" font-family="Helvetica,sans-Serif" font-size="10.00">+ getBooleanArgument()</text>
<text text-anchor="start" x="8" y="-211.5" font-family="Helvetica,sans-Serif" font-size="10.00">and 12 more...</text>
<text text-anchor="start" x="8" y="-200.5" font-family="Helvetica,sans-Serif" font-size="10.00"># getRealArgumentFromInteger()</text>
<text text-anchor="start" x="8" y="-189.5" font-family="Helvetica,sans-Serif" font-size="10.00"># getRealArgumentFromTensor()</text>
<text text-anchor="start" x="8" y="-178.5" font-family="Helvetica,sans-Serif" font-size="10.00"># getTensorArgumentFromReal()</text>
<text text-anchor="start" x="8" y="-167.5" font-family="Helvetica,sans-Serif" font-size="10.00"># getArgumentData()</text>
</a>
</g>
</g>
<!-- Node2&#45;&gt;Node1 -->
<g id="edge1" class="edge">
<title>Node2&#45;&gt;Node1</title>
<path fill="none" stroke="midnightblue" d="M98.85,-150.29C99.86,-137.19 100.85,-124.33 101.76,-112.55"/>
<polygon fill="none" stroke="midnightblue" points="95.35,-150.1 98.07,-160.34 102.33,-150.64 95.35,-150.1"/>
</g>
<!-- Node3 -->
<g id="node3" class="node">
<title>Node3</title>
<g id="a_node3"><a xlink:href="classsisi4s_1_1AlgorithmRegistrar.html" target="_top" xlink:title=" ">
<polygon fill="none" stroke="black" points="198,-226.5 198,-305.5 380,-305.5 380,-226.5 198,-226.5"/>
<text text-anchor="start" x="206" y="-293.5" font-family="Helvetica,sans-Serif" font-size="10.00">sisi4s::AlgorithmRegistrar</text>
<text text-anchor="start" x="206" y="-282.5" font-family="Helvetica,sans-Serif" font-size="10.00">&lt; sisi4s::DoublesAmplitudesFrom</text>
<text text-anchor="middle" x="289" y="-271.5" font-family="Helvetica,sans-Serif" font-size="10.00">Vertex &gt;</text>
<polyline fill="none" stroke="black" points="198,-264.5 380,-264.5"/>
<text text-anchor="middle" x="289" y="-252.5" font-family="Helvetica,sans-Serif" font-size="10.00"> </text>
<polyline fill="none" stroke="black" points="198,-245.5 380,-245.5"/>
<text text-anchor="start" x="206" y="-233.5" font-family="Helvetica,sans-Serif" font-size="10.00">+ AlgorithmRegistrar()</text>
</a>
</g>
</g>
<!-- Node3&#45;&gt;Node1 -->
<g id="edge2" class="edge">
<title>Node3&#45;&gt;Node1</title>
<path fill="none" stroke="#404040" d="M255.01,-226.46C229.1,-197.09 192.86,-155.99 162.6,-121.68"/>
<polygon fill="none" stroke="#404040" points="162.58,-121.66 155.62,-119.81 154.65,-112.66 161.62,-114.51 162.58,-121.66"/>
<text text-anchor="middle" x="205" y="-134" font-family="Helvetica,sans-Serif" font-size="10.00"> +registrar_</text>
</g>
<!-- Node4 -->
<g id="node4" class="node">
<title>Node4</title>
<g id="a_node4"><a xlink:href="classsisi4s_1_1AlgorithmFactory.html" target="_top" xlink:title=" ">
<polygon fill="none" stroke="black" points="201,-536.5 201,-615.5 335,-615.5 335,-536.5 201,-536.5"/>
<text text-anchor="middle" x="268" y="-603.5" font-family="Helvetica,sans-Serif" font-size="10.00">sisi4s::AlgorithmFactory</text>
<polyline fill="none" stroke="black" points="201,-596.5 335,-596.5"/>
<text text-anchor="start" x="209" y="-584.5" font-family="Helvetica,sans-Serif" font-size="10.00"># algorithmMap</text>
<polyline fill="none" stroke="black" points="201,-577.5 335,-577.5"/>
<text text-anchor="start" x="209" y="-565.5" font-family="Helvetica,sans-Serif" font-size="10.00">+ create()</text>
<text text-anchor="start" x="209" y="-554.5" font-family="Helvetica,sans-Serif" font-size="10.00">+ getAlgorithmNames()</text>
<text text-anchor="start" x="209" y="-543.5" font-family="Helvetica,sans-Serif" font-size="10.00"># getAlgorithmMap()</text>
</a>
</g>
</g>
<!-- Node4&#45;&gt;Node3 -->
<g id="edge3" class="edge">
<title>Node4&#45;&gt;Node3</title>
<path fill="none" stroke="darkgreen" d="M269.92,-525.85C271.12,-497.76 272.86,-461.89 275,-430 277.86,-387.35 282.2,-338.51 285.28,-305.5"/>
<polygon fill="none" stroke="darkgreen" points="266.4,-526.07 269.48,-536.2 273.4,-526.36 266.4,-526.07"/>
</g>
<!-- Node5 -->
<g id="node5" class="node">
<title>Node5</title>
<g id="a_node5"><a xlink:href="classsisi4s_1_1AlgorithmRegistrar.html" target="_top" xlink:title="Class to be statically instantiated by an algorithm to register it in the AlgorithmFactory....">
<polygon fill="none" stroke="black" points="284.5,-430.5 284.5,-498.5 427.5,-498.5 427.5,-430.5 284.5,-430.5"/>
<text text-anchor="start" x="292.5" y="-486.5" font-family="Helvetica,sans-Serif" font-size="10.00">sisi4s::AlgorithmRegistrar</text>
<text text-anchor="middle" x="356" y="-475.5" font-family="Helvetica,sans-Serif" font-size="10.00">&lt; AlgorithmType &gt;</text>
<polyline fill="none" stroke="black" points="284.5,-468.5 427.5,-468.5"/>
<text text-anchor="middle" x="356" y="-456.5" font-family="Helvetica,sans-Serif" font-size="10.00"> </text>
<polyline fill="none" stroke="black" points="284.5,-449.5 427.5,-449.5"/>
<text text-anchor="start" x="292.5" y="-437.5" font-family="Helvetica,sans-Serif" font-size="10.00">+ AlgorithmRegistrar()</text>
</a>
</g>
</g>
<!-- Node4&#45;&gt;Node5 -->
<g id="edge5" class="edge">
<title>Node4&#45;&gt;Node5</title>
<path fill="none" stroke="darkgreen" d="M305.4,-528.47C313.45,-518.45 321.8,-508.06 329.34,-498.67"/>
<polygon fill="none" stroke="darkgreen" points="302.56,-526.41 299.03,-536.39 308.02,-530.79 302.56,-526.41"/>
</g>
<!-- Node5&#45;&gt;Node3 -->
<g id="edge4" class="edge">
<title>Node5&#45;&gt;Node3</title>
<path fill="none" stroke="orange" d="M341.31,-420.43C329.63,-386.15 313.41,-338.6 302.15,-305.56"/>
<polygon fill="orange" stroke="orange" points="338.09,-421.83 344.63,-430.17 344.72,-419.57 338.09,-421.83"/>
<text text-anchor="start" x="338" y="-404" font-family="Helvetica,sans-Serif" font-size="10.00"> &lt; sisi4s::DoublesAmplitudes</text>
<text text-anchor="middle" x="410" y="-393" font-family="Helvetica,sans-Serif" font-size="10.00">FromVertex &gt;</text>
</g>
</g>
</svg>
