<?xml version="1.0" encoding="UTF-8" standalone="no"?>
<!DOCTYPE svg PUBLIC "-//W3C//DTD SVG 1.1//EN"
 "http://www.w3.org/Graphics/SVG/1.1/DTD/svg11.dtd">
<!-- Generated by graphviz version 9.0.0 (0)
 -->
<!-- Title: sisi4s::ParticleHoleCoulombVertexReader Pages: 1 -->
<svg width="450pt" height="703pt"
 viewBox="0.00 0.00 449.50 703.25" xmlns="http://www.w3.org/2000/svg" xmlns:xlink="http://www.w3.org/1999/xlink">
<g id="graph0" class="graph" transform="scale(1 1) rotate(0) translate(4 699.25)">
<title>sisi4s::ParticleHoleCoulombVertexReader</title>
<!-- Node1 -->
<g id="Node000001" class="node">
<title>Node1</title>
<g id="a_Node000001"><a xlink:title="Reads the particle&#45;hole Coulomb vertex &#160;and the occupied and virtual orbital energies &#160;from binary da...">
<polygon fill="#999999" stroke="none" points="162,-155 1,-155 1,0 162,0 162,-155"/>
<text text-anchor="start" x="13.62" y="-141.5" font-family="Helvetica,sans-Serif" font-size="10.00">sisi4s::ParticleHoleCoulomb</text>
<text text-anchor="start" x="48.5" y="-128.75" font-family="Helvetica,sans-Serif" font-size="10.00">VertexReader</text>
<text text-anchor="start" x="80" y="-112.5" font-family="Helvetica,sans-Serif" font-size="10.00"> </text>
<text text-anchor="start" x="4.88" y="-96.5" font-family="Helvetica,sans-Serif" font-size="10.00">+</text>
<text text-anchor="start" x="17" y="-96.5" font-family="Helvetica,sans-Serif" font-size="10.00">getName()</text>
<text text-anchor="start" x="4.88" y="-80.5" font-family="Helvetica,sans-Serif" font-size="10.00">+</text>
<text text-anchor="start" x="17" y="-80.5" font-family="Helvetica,sans-Serif" font-size="10.00">ParticleHoleCoulombVertex</text>
<text text-anchor="start" x="17" y="-67.75" font-family="Helvetica,sans-Serif" font-size="10.00">Reader()</text>
<text text-anchor="start" x="4.88" y="-51.5" font-family="Helvetica,sans-Serif" font-size="10.00">+</text>
<text text-anchor="start" x="17" y="-51.5" font-family="Helvetica,sans-Serif" font-size="10.00">~ParticleHoleCoulombVertex</text>
<text text-anchor="start" x="17" y="-38.75" font-family="Helvetica,sans-Serif" font-size="10.00">Reader()</text>
<text text-anchor="start" x="4.88" y="-22.5" font-family="Helvetica,sans-Serif" font-size="10.00">+</text>
<text text-anchor="start" x="17" y="-22.5" font-family="Helvetica,sans-Serif" font-size="10.00">run()</text>
<text text-anchor="start" x="4.88" y="-6.5" font-family="Helvetica,sans-Serif" font-size="10.00">+</text>
<text text-anchor="start" x="17" y="-6.5" font-family="Helvetica,sans-Serif" font-size="10.00">dryRun()</text>
<polygon fill="#666666" stroke="#666666" points="1,-124 1,-124 162,-124 162,-124 1,-124"/>
<polygon fill="#666666" stroke="#666666" points="1,-108 1,-108 162,-108 162,-108 1,-108"/>
<polygon fill="none" stroke="#666666" points="1,0 1,-155 162,-155 162,0 1,0"/>
</a>
</g>
</g>
<!-- Node2 -->
<g id="Node000002" class="node">
<title>Node2</title>
<g id="a_Node000002"><a xlink:href="classsisi4s_1_1Algorithm.html" target="_top" xlink:title=" ">
<polygon fill="white" stroke="none" points="131,-447.75 0,-447.75 0,-203.75 131,-203.75 131,-447.75"/>
<text text-anchor="start" x="24.62" y="-434.25" font-family="Helvetica,sans-Serif" font-size="10.00">sisi4s::Algorithm</text>
<text text-anchor="start" x="3.88" y="-418.25" font-family="Helvetica,sans-Serif" font-size="10.00">+</text>
<text text-anchor="start" x="16" y="-418.25" font-family="Helvetica,sans-Serif" font-size="10.00">note</text>
<text text-anchor="start" x="3.88" y="-402.25" font-family="Helvetica,sans-Serif" font-size="10.00">+</text>
<text text-anchor="start" x="16" y="-402.25" font-family="Helvetica,sans-Serif" font-size="10.00">fallible</text>
<text text-anchor="start" x="3.88" y="-386.25" font-family="Helvetica,sans-Serif" font-size="10.00">+</text>
<text text-anchor="start" x="16" y="-386.25" font-family="Helvetica,sans-Serif" font-size="10.00">arguments</text>
<text text-anchor="start" x="3.88" y="-370.25" font-family="Helvetica,sans-Serif" font-size="10.00">+</text>
<text text-anchor="start" x="16" y="-370.25" font-family="Helvetica,sans-Serif" font-size="10.00">Algorithm()</text>
<text text-anchor="start" x="3.88" y="-354.25" font-family="Helvetica,sans-Serif" font-size="10.00">+</text>
<text text-anchor="start" x="16" y="-354.25" font-family="Helvetica,sans-Serif" font-size="10.00">~Algorithm()</text>
<text text-anchor="start" x="3.88" y="-338.25" font-family="Helvetica,sans-Serif" font-size="10.00">+</text>
<text text-anchor="start" x="16" y="-338.25" font-family="Helvetica,sans-Serif" font-size="10.00">getName()</text>
<text text-anchor="start" x="3.88" y="-322.25" font-family="Helvetica,sans-Serif" font-size="10.00">+</text>
<text text-anchor="start" x="16" y="-322.25" font-family="Helvetica,sans-Serif" font-size="10.00">run()</text>
<text text-anchor="start" x="3.88" y="-306.25" font-family="Helvetica,sans-Serif" font-size="10.00">+</text>
<text text-anchor="start" x="16" y="-306.25" font-family="Helvetica,sans-Serif" font-size="10.00">dryRun()</text>
<text text-anchor="start" x="3.88" y="-290.25" font-family="Helvetica,sans-Serif" font-size="10.00">+</text>
<text text-anchor="start" x="16" y="-290.25" font-family="Helvetica,sans-Serif" font-size="10.00">isArgumentGiven()</text>
<text text-anchor="start" x="3.88" y="-274.25" font-family="Helvetica,sans-Serif" font-size="10.00">+</text>
<text text-anchor="start" x="16" y="-274.25" font-family="Helvetica,sans-Serif" font-size="10.00">getTextArgument()</text>
<text text-anchor="start" x="3.88" y="-258.25" font-family="Helvetica,sans-Serif" font-size="10.00">+</text>
<text text-anchor="start" x="16" y="-258.25" font-family="Helvetica,sans-Serif" font-size="10.00">getTextArgument()</text>
<text text-anchor="start" x="3.88" y="-242.25" font-family="Helvetica,sans-Serif" font-size="10.00">+</text>
<text text-anchor="start" x="16" y="-242.25" font-family="Helvetica,sans-Serif" font-size="10.00">getBooleanArgument()</text>
<text text-anchor="start" x="3.88" y="-226.25" font-family="Helvetica,sans-Serif" font-size="10.00">+</text>
<text text-anchor="start" x="16" y="-226.25" font-family="Helvetica,sans-Serif" font-size="10.00">getBooleanArgument()</text>
<text text-anchor="start" x="16" y="-210.25" font-family="Helvetica,sans-Serif" font-size="10.00">and 16 more...</text>
<polygon fill="#666666" stroke="#666666" points="0,-429.75 0,-429.75 131,-429.75 131,-429.75 0,-429.75"/>
<polygon fill="#666666" stroke="#666666" points="0,-381.75 0,-381.75 14,-381.75 14,-381.75 0,-381.75"/>
<polygon fill="#666666" stroke="#666666" points="14,-381.75 14,-381.75 131,-381.75 131,-381.75 14,-381.75"/>
<polygon fill="none" stroke="#666666" points="0,-203.75 0,-447.75 131,-447.75 131,-203.75 0,-203.75"/>
</a>
</g>
</g>
<!-- Node2&#45;&gt;Node1 -->
<g id="edge1_Node000001_Node000002" class="edge">
<title>Node2&#45;&gt;Node1</title>
<g id="a_edge1_Node000001_Node000002"><a xlink:title=" ">
<path fill="none" stroke="#63b8ff" d="M74.09,-192.47C74.93,-179.61 75.76,-166.89 76.54,-154.86"/>
<polygon fill="none" stroke="#63b8ff" points="70.61,-192.07 73.46,-202.28 77.6,-192.53 70.61,-192.07"/>
</a>
</g>
</g>
<!-- Node3 -->
<g id="Node000003" class="node">
<title>Node3</title>
<g id="a_Node000003"><a xlink:href="classsisi4s_1_1AlgorithmRegistrar.html" target="_top" xlink:title=" ">
<polygon fill="white" stroke="none" points="337.5,-364.75 149.5,-364.75 149.5,-286.75 337.5,-286.75 337.5,-364.75"/>
<text text-anchor="start" x="154.25" y="-351.25" font-family="Helvetica,sans-Serif" font-size="10.00">sisi4s::AlgorithmRegistrar</text>
<text text-anchor="start" x="154.25" y="-338.5" font-family="Helvetica,sans-Serif" font-size="10.00">&lt; sisi4s::ParticleHoleCoulombVertex</text>
<text text-anchor="start" x="220.62" y="-325.75" font-family="Helvetica,sans-Serif" font-size="10.00">Reader &gt;</text>
<text text-anchor="start" x="242" y="-309.25" font-family="Helvetica,sans-Serif" font-size="10.00"> </text>
<text text-anchor="start" x="170.38" y="-293.25" font-family="Helvetica,sans-Serif" font-size="10.00">+</text>
<text text-anchor="start" x="199.5" y="-293.25" font-family="Helvetica,sans-Serif" font-size="10.00">AlgorithmRegistrar()</text>
<polygon fill="#666666" stroke="#666666" points="149.5,-320.75 149.5,-320.75 337.5,-320.75 337.5,-320.75 149.5,-320.75"/>
<polygon fill="#666666" stroke="#666666" points="149.5,-304.75 149.5,-304.75 337.5,-304.75 337.5,-304.75 149.5,-304.75"/>
<polygon fill="none" stroke="#666666" points="149.5,-286.75 149.5,-364.75 337.5,-364.75 337.5,-286.75 149.5,-286.75"/>
</a>
</g>
</g>
<!-- Node3&#45;&gt;Node1 -->
<g id="edge2_Node000001_Node000003" class="edge">
<title>Node3&#45;&gt;Node1</title>
<g id="a_edge2_Node000001_Node000003"><a xlink:title=" ">
<path fill="none" stroke="#63b8ff" d="M218.54,-286.81C197.36,-254.61 166.13,-207.15 138.84,-165.66"/>
<polygon fill="none" stroke="#63b8ff" points="138.9,-165.75 132.26,-162.94 132.31,-155.73 138.95,-158.54 138.9,-165.75"/>
</a>
</g>
<text text-anchor="middle" x="177.38" y="-176.25" font-family="Helvetica,sans-Serif" font-size="10.00" fill="grey"> +registrar_</text>
</g>
<!-- Node4 -->
<g id="Node000004" class="node">
<title>Node4</title>
<g id="a_Node000004"><a xlink:href="classsisi4s_1_1AlgorithmFactory.html" target="_top" xlink:title=" ">
<polygon fill="white" stroke="none" points="287,-695.25 160,-695.25 160,-611.25 287,-611.25 287,-695.25"/>
<text text-anchor="start" x="165" y="-681.75" font-family="Helvetica,sans-Serif" font-size="10.00">sisi4s::AlgorithmFactory</text>
<text text-anchor="start" x="164.38" y="-665.75" font-family="Helvetica,sans-Serif" font-size="10.00">#</text>
<text text-anchor="start" x="177" y="-665.75" font-family="Helvetica,sans-Serif" font-size="10.00">algorithmMap</text>
<text text-anchor="start" x="164.38" y="-649.75" font-family="Helvetica,sans-Serif" font-size="10.00">+</text>
<text text-anchor="start" x="177" y="-649.75" font-family="Helvetica,sans-Serif" font-size="10.00">create()</text>
<text text-anchor="start" x="164.38" y="-633.75" font-family="Helvetica,sans-Serif" font-size="10.00">+</text>
<text text-anchor="start" x="177" y="-633.75" font-family="Helvetica,sans-Serif" font-size="10.00">getAlgorithmNames()</text>
<text text-anchor="start" x="164.38" y="-617.75" font-family="Helvetica,sans-Serif" font-size="10.00">#</text>
<text text-anchor="start" x="177" y="-617.75" font-family="Helvetica,sans-Serif" font-size="10.00">getAlgorithmMap()</text>
<polygon fill="#666666" stroke="#666666" points="160,-677.25 160,-677.25 287,-677.25 287,-677.25 160,-677.25"/>
<polygon fill="#666666" stroke="#666666" points="160,-661.25 160,-661.25 175,-661.25 175,-661.25 160,-661.25"/>
<polygon fill="#666666" stroke="#666666" points="175,-661.25 175,-661.25 287,-661.25 287,-661.25 175,-661.25"/>
<polygon fill="none" stroke="#666666" points="160,-611.25 160,-695.25 287,-695.25 287,-611.25 160,-611.25"/>
</a>
</g>
</g>
<!-- Node4&#45;&gt;Node3 -->
<g id="edge3_Node000003_Node000004" class="edge">
<title>Node4&#45;&gt;Node3</title>
<g id="a_edge3_Node000003_Node000004"><a xlink:title=" ">
<path fill="none" stroke="darkgreen" d="M225.76,-600.36C227.02,-573.21 228.69,-539.43 230.5,-509.25 233.51,-459.15 237.76,-401.38 240.57,-364.48"/>
<polygon fill="none" stroke="darkgreen" points="222.28,-599.89 225.32,-610.04 229.27,-600.21 222.28,-599.89"/>
</a>
</g>
</g>
<!-- Node5 -->
<g id="Node000005" class="node">
<title>Node5</title>
<g id="a_Node000005"><a xlink:href="classsisi4s_1_1AlgorithmRegistrar.html" target="_top" xlink:title="Class to be statically instantiated by an algorithm to register it in the AlgorithmFactory....">
<polygon fill="white" stroke="none" points="375.5,-574.25 239.5,-574.25 239.5,-509.25 375.5,-509.25 375.5,-574.25"/>
<text text-anchor="start" x="244.5" y="-560.75" font-family="Helvetica,sans-Serif" font-size="10.00">sisi4s::AlgorithmRegistrar</text>
<text text-anchor="start" x="261" y="-548" font-family="Helvetica,sans-Serif" font-size="10.00">&lt; AlgorithmType &gt;</text>
<text text-anchor="start" x="306" y="-531.75" font-family="Helvetica,sans-Serif" font-size="10.00"> </text>
<text text-anchor="start" x="247.38" y="-515.75" font-family="Helvetica,sans-Serif" font-size="10.00">+</text>
<text text-anchor="start" x="263.5" y="-515.75" font-family="Helvetica,sans-Serif" font-size="10.00">AlgorithmRegistrar()</text>
<polygon fill="#666666" stroke="#666666" points="239.5,-543.25 239.5,-543.25 375.5,-543.25 375.5,-543.25 239.5,-543.25"/>
<polygon fill="#666666" stroke="#666666" points="239.5,-527.25 239.5,-527.25 375.5,-527.25 375.5,-527.25 239.5,-527.25"/>
<polygon fill="none" stroke="#666666" points="239.5,-509.25 239.5,-574.25 375.5,-574.25 375.5,-509.25 239.5,-509.25"/>
</a>
</g>
</g>
<!-- Node4&#45;&gt;Node5 -->
<g id="edge5_Node000005_Node000004" class="edge">
<title>Node4&#45;&gt;Node5</title>
<g id="a_edge5_Node000005_Node000004"><a xlink:title=" ">
<path fill="none" stroke="darkgreen" d="M261.57,-602.62C269.05,-592.87 276.69,-582.91 283.55,-573.97"/>
<polygon fill="none" stroke="darkgreen" points="259.01,-600.21 255.7,-610.28 264.56,-604.47 259.01,-600.21"/>
</a>
</g>
</g>
<!-- Node5&#45;&gt;Node3 -->
<g id="edge4_Node000003_Node000005" class="edge">
<title>Node5&#45;&gt;Node3</title>
<g id="a_edge4_Node000003_Node000005"><a xlink:title=" ">
<path fill="none" stroke="orange" d="M294.91,-498.64C283.22,-459.58 265.99,-401.97 254.76,-364.4"/>
<polygon fill="orange" stroke="orange" points="291.54,-499.6 297.76,-508.18 298.25,-497.6 291.54,-499.6"/>
</a>
</g>
<text text-anchor="start" x="291.5" y="-481.75" font-family="Helvetica,sans-Serif" font-size="10.00" fill="grey"> &lt; sisi4s::ParticleHoleCoulomb</text>
<text text-anchor="middle" x="366.5" y="-469" font-family="Helvetica,sans-Serif" font-size="10.00" fill="grey">VertexReader &gt;</text>
</g>
</g>
</svg>
