<?xml version="1.0" encoding="UTF-8" standalone="no"?>
<!DOCTYPE svg PUBLIC "-//W3C//DTD SVG 1.1//EN"
 "http://www.w3.org/Graphics/SVG/1.1/DTD/svg11.dtd">
<!-- Generated by graphviz version 8.1.0 (0)
 -->
<!-- Title: sisi4s::ApproximateCoulombVertex::dryRun Pages: 1 -->
<svg width="625pt" height="80pt"
 viewBox="0.00 0.00 624.75 80.12" xmlns="http://www.w3.org/2000/svg" xmlns:xlink="http://www.w3.org/1999/xlink">
<g id="graph0" class="graph" transform="scale(1 1) rotate(0) translate(4 76.12)">
<title>sisi4s::ApproximateCoulombVertex::dryRun</title>
<!-- Node1 -->
<g id="Node000001" class="node">
<title>Node1</title>
<g id="a_Node000001"><a xlink:title="Dry run of approximating the Coulomb vertex.">
<polygon fill="#999999" stroke="#666666" points="156.25,-49.12 0,-49.12 0,-15.62 156.25,-15.62 156.25,-49.12"/>
<text text-anchor="start" x="8" y="-35.62" font-family="Helvetica,sans-Serif" font-size="10.00">sisi4s::ApproximateCoulomb</text>
<text text-anchor="middle" x="78.12" y="-22.88" font-family="Helvetica,sans-Serif" font-size="10.00">Vertex::dryRun</text>
</a>
</g>
</g>
<!-- Node2 -->
<g id="Node000002" class="node">
<title>Node2</title>
<g id="a_Node000002"><a xlink:href="classsisi4s_1_1Algorithm.html#a338a44c8fd4d6be3b32a6d5e71dfe180" target="_top" xlink:title=" ">
<polygon fill="white" stroke="#666666" points="303.5,-49.12 192.25,-49.12 192.25,-15.62 303.5,-15.62 303.5,-49.12"/>
<text text-anchor="start" x="200.25" y="-35.62" font-family="Helvetica,sans-Serif" font-size="10.00">sisi4s::Algorithm::</text>
<text text-anchor="middle" x="247.88" y="-22.88" font-family="Helvetica,sans-Serif" font-size="10.00">getTensorArgument</text>
</a>
</g>
</g>
<!-- Node1&#45;&gt;Node2 -->
<g id="edge1_Node000001_Node000002" class="edge">
<title>Node1&#45;&gt;Node2</title>
<g id="a_edge1_Node000001_Node000002"><a xlink:title=" ">
<path fill="none" stroke="#63b8ff" d="M156.62,-32.38C164.88,-32.38 173.23,-32.38 181.33,-32.38"/>
<polygon fill="#63b8ff" stroke="#63b8ff" points="181.2,-35.88 191.2,-32.38 181.2,-28.88 181.2,-35.88"/>
</a>
</g>
</g>
<!-- Node3 -->
<g id="Node000003" class="node">
<title>Node3</title>
<g id="a_Node000003"><a xlink:href="classsisi4s_1_1Algorithm.html#a1e53277220d32a33e20846267c253652" target="_top" xlink:title=" ">
<polygon fill="white" stroke="#666666" points="464.62,-72.12 360.88,-72.12 360.88,-38.62 464.62,-38.62 464.62,-72.12"/>
<text text-anchor="start" x="368.88" y="-58.62" font-family="Helvetica,sans-Serif" font-size="10.00">sisi4s::Algorithm::</text>
<text text-anchor="middle" x="412.75" y="-45.88" font-family="Helvetica,sans-Serif" font-size="10.00">getArgumentData</text>
</a>
</g>
</g>
<!-- Node2&#45;&gt;Node3 -->
<g id="edge2_Node000002_Node000003" class="edge">
<title>Node2&#45;&gt;Node3</title>
<g id="a_edge2_Node000002_Node000003"><a xlink:title=" ">
<path fill="none" stroke="#63b8ff" d="M303.56,-40.1C318.36,-42.19 334.49,-44.46 349.66,-46.61"/>
<polygon fill="#63b8ff" stroke="#63b8ff" points="349.12,-50.21 359.51,-48.14 350.1,-43.28 349.12,-50.21"/>
</a>
</g>
</g>
<!-- Node5 -->
<g id="Node000005" class="node">
<title>Node5</title>
<g id="a_Node000005"><a xlink:href="classsisi4s_1_1Data.html#a0ec0b1c7f2356fd43d82ee1dd0246789" target="_top" xlink:title=" ">
<polygon fill="white" stroke="#666666" points="486,-20.75 339.5,-20.75 339.5,0 486,0 486,-20.75"/>
<text text-anchor="middle" x="412.75" y="-7.25" font-family="Helvetica,sans-Serif" font-size="10.00">sisi4s::Data::getTypeName</text>
</a>
</g>
</g>
<!-- Node2&#45;&gt;Node5 -->
<g id="edge4_Node000002_Node000005" class="edge">
<title>Node2&#45;&gt;Node5</title>
<g id="a_edge4_Node000002_Node000005"><a xlink:title=" ">
<path fill="none" stroke="#63b8ff" d="M303.56,-24.99C311.62,-23.9 320.07,-22.76 328.55,-21.61"/>
<polygon fill="#63b8ff" stroke="#63b8ff" points="328.83,-24.97 338.27,-20.17 327.89,-18.04 328.83,-24.97"/>
</a>
</g>
</g>
<!-- Node4 -->
<g id="Node000004" class="node">
<title>Node4</title>
<g id="a_Node000004"><a xlink:href="classsisi4s_1_1Data.html#a5b4676e48b4f437d399587e6903f896a" target="_top" xlink:title=" ">
<polygon fill="white" stroke="#666666" points="616.75,-65.75 522,-65.75 522,-45 616.75,-45 616.75,-65.75"/>
<text text-anchor="middle" x="569.38" y="-52.25" font-family="Helvetica,sans-Serif" font-size="10.00">sisi4s::Data::get</text>
</a>
</g>
</g>
<!-- Node3&#45;&gt;Node4 -->
<g id="edge3_Node000003_Node000004" class="edge">
<title>Node3&#45;&gt;Node4</title>
<g id="a_edge3_Node000003_Node000004"><a xlink:title=" ">
<path fill="none" stroke="#63b8ff" d="M464.81,-55.38C479.53,-55.38 495.7,-55.38 510.79,-55.38"/>
<polygon fill="#63b8ff" stroke="#63b8ff" points="510.55,-58.88 520.55,-55.38 510.55,-51.88 510.55,-58.88"/>
</a>
</g>
</g>
</g>
</svg>
