<?xml version="1.0" encoding="UTF-8" standalone="no"?>
<!DOCTYPE svg PUBLIC "-//W3C//DTD SVG 1.1//EN"
 "http://www.w3.org/Graphics/SVG/1.1/DTD/svg11.dtd">
<!-- Generated by graphviz version 5.0.1 (0)
 -->
<!-- Title: sisi4s::PerturbativeTriples::runPiecuch Pages: 1 -->
<svg width="626pt" height="210pt"
 viewBox="0.00 0.00 626.00 209.50" xmlns="http://www.w3.org/2000/svg" xmlns:xlink="http://www.w3.org/1999/xlink">
<g id="graph0" class="graph" transform="scale(1 1) rotate(0) translate(4 205.5)">
<title>sisi4s::PerturbativeTriples::runPiecuch</title>
<!-- Node1 -->
<g id="node1" class="node">
<title>Node1</title>
<g id="a_node1"><a xlink:title="Calculates perturbative triples correction. Routine based on Piecuch paper.">
<polygon fill="#999999" stroke="#666666" points="142,-88.5 0,-88.5 0,-58.5 142,-58.5 142,-88.5"/>
<text text-anchor="start" x="8" y="-76.5" font-family="Helvetica,sans-Serif" font-size="10.00">sisi4s::PerturbativeTriples</text>
<text text-anchor="middle" x="71" y="-65.5" font-family="Helvetica,sans-Serif" font-size="10.00">::runPiecuch</text>
</a>
</g>
</g>
<!-- Node2 -->
<g id="node2" class="node">
<title>Node2</title>
<g id="a_node2"><a xlink:href="classsisi4s_1_1Algorithm.html#a36c632fbb19dae4ce2f415705fa5cbcb" target="_top" xlink:title=" ">
<polygon fill="white" stroke="#666666" points="286,-136.5 182,-136.5 182,-106.5 286,-106.5 286,-136.5"/>
<text text-anchor="start" x="190" y="-124.5" font-family="Helvetica,sans-Serif" font-size="10.00">sisi4s::Algorithm::</text>
<text text-anchor="middle" x="234" y="-113.5" font-family="Helvetica,sans-Serif" font-size="10.00">getRealArgument</text>
</a>
</g>
</g>
<!-- Node1&#45;&gt;Node2 -->
<g id="edge1" class="edge">
<title>Node1&#45;&gt;Node2</title>
<path fill="none" stroke="#63b8ff" d="M122.5,-88.56C138.53,-93.34 156.42,-98.67 173.05,-103.63"/>
<polygon fill="#63b8ff" stroke="#63b8ff" points="172.1,-106.99 182.68,-106.5 174.1,-100.29 172.1,-106.99"/>
</g>
<!-- Node8 -->
<g id="node8" class="node">
<title>Node8</title>
<g id="a_node8"><a xlink:href="classsisi4s_1_1Algorithm.html#a338a44c8fd4d6be3b32a6d5e71dfe180" target="_top" xlink:title=" ">
<polygon fill="white" stroke="#666666" points="290,-88.5 178,-88.5 178,-58.5 290,-58.5 290,-88.5"/>
<text text-anchor="start" x="186" y="-76.5" font-family="Helvetica,sans-Serif" font-size="10.00">sisi4s::Algorithm::</text>
<text text-anchor="middle" x="234" y="-65.5" font-family="Helvetica,sans-Serif" font-size="10.00">getTensorArgument</text>
</a>
</g>
</g>
<!-- Node1&#45;&gt;Node8 -->
<g id="edge7" class="edge">
<title>Node1&#45;&gt;Node8</title>
<path fill="none" stroke="#63b8ff" d="M142.15,-73.5C150.58,-73.5 159.17,-73.5 167.53,-73.5"/>
<polygon fill="#63b8ff" stroke="#63b8ff" points="167.6,-77 177.6,-73.5 167.6,-70 167.6,-77"/>
</g>
<!-- Node9 -->
<g id="node9" class="node">
<title>Node9</title>
<g id="a_node9"><a xlink:href="classsisi4s_1_1Algorithm.html#af6f931ab83742cc23b4f4350d54a3fcd" target="_top" xlink:title=" ">
<polygon fill="white" stroke="#666666" points="286,-40.5 182,-40.5 182,-10.5 286,-10.5 286,-40.5"/>
<text text-anchor="start" x="190" y="-28.5" font-family="Helvetica,sans-Serif" font-size="10.00">sisi4s::Algorithm::</text>
<text text-anchor="middle" x="234" y="-17.5" font-family="Helvetica,sans-Serif" font-size="10.00">setRealArgument</text>
</a>
</g>
</g>
<!-- Node1&#45;&gt;Node9 -->
<g id="edge10" class="edge">
<title>Node1&#45;&gt;Node9</title>
<path fill="none" stroke="#63b8ff" d="M122.5,-58.44C138.53,-53.66 156.42,-48.33 173.05,-43.37"/>
<polygon fill="#63b8ff" stroke="#63b8ff" points="174.1,-46.71 182.68,-40.5 172.1,-40.01 174.1,-46.71"/>
</g>
<!-- Node3 -->
<g id="node3" class="node">
<title>Node3</title>
<g id="a_node3"><a xlink:href="classsisi4s_1_1Algorithm.html#a1e53277220d32a33e20846267c253652" target="_top" xlink:title=" ">
<polygon fill="white" stroke="#666666" points="458.5,-67.5 354.5,-67.5 354.5,-37.5 458.5,-37.5 458.5,-67.5"/>
<text text-anchor="start" x="362.5" y="-55.5" font-family="Helvetica,sans-Serif" font-size="10.00">sisi4s::Algorithm::</text>
<text text-anchor="middle" x="406.5" y="-44.5" font-family="Helvetica,sans-Serif" font-size="10.00">getArgumentData</text>
</a>
</g>
</g>
<!-- Node2&#45;&gt;Node3 -->
<g id="edge2" class="edge">
<title>Node2&#45;&gt;Node3</title>
<path fill="none" stroke="#63b8ff" d="M271.03,-106.37C277.4,-103.53 283.93,-100.5 290,-97.5 306.41,-89.39 309.18,-84.73 326,-77.5 332.07,-74.89 338.51,-72.42 344.99,-70.11"/>
<polygon fill="#63b8ff" stroke="#63b8ff" points="346.15,-73.41 354.47,-66.86 343.88,-66.79 346.15,-73.41"/>
</g>
<!-- Node5 -->
<g id="node5" class="node">
<title>Node5</title>
<g id="a_node5"><a xlink:href="classsisi4s_1_1Algorithm.html#a1cb9a5e8f19cd8e6b70bb06738ca9413" target="_top" xlink:title=" ">
<polygon fill="white" stroke="#666666" points="487,-201.5 326,-201.5 326,-171.5 487,-171.5 487,-201.5"/>
<text text-anchor="start" x="334" y="-189.5" font-family="Helvetica,sans-Serif" font-size="10.00">sisi4s::Algorithm::</text>
<text text-anchor="middle" x="406.5" y="-178.5" font-family="Helvetica,sans-Serif" font-size="10.00">getRealArgumentFromInteger</text>
</a>
</g>
</g>
<!-- Node2&#45;&gt;Node5 -->
<g id="edge4" class="edge">
<title>Node2&#45;&gt;Node5</title>
<path fill="none" stroke="#63b8ff" d="M265.75,-136.56C283.19,-144.79 305.55,-154.84 326,-162.5 331.36,-164.51 336.98,-166.47 342.63,-168.35"/>
<polygon fill="#63b8ff" stroke="#63b8ff" points="341.56,-171.69 352.15,-171.44 343.72,-165.03 341.56,-171.69"/>
</g>
<!-- Node6 -->
<g id="node6" class="node">
<title>Node6</title>
<g id="a_node6"><a xlink:href="classsisi4s_1_1Algorithm.html#a89e59623f1c238a871a4fba19371be7d" target="_top" xlink:title=" ">
<polygon fill="white" stroke="#666666" points="485.5,-153.5 327.5,-153.5 327.5,-123.5 485.5,-123.5 485.5,-153.5"/>
<text text-anchor="start" x="335.5" y="-141.5" font-family="Helvetica,sans-Serif" font-size="10.00">sisi4s::Algorithm::</text>
<text text-anchor="middle" x="406.5" y="-130.5" font-family="Helvetica,sans-Serif" font-size="10.00">getRealArgumentFromTensor</text>
</a>
</g>
</g>
<!-- Node2&#45;&gt;Node6 -->
<g id="edge5" class="edge">
<title>Node2&#45;&gt;Node6</title>
<path fill="none" stroke="#63b8ff" d="M286.16,-126.6C295.97,-127.58 306.5,-128.63 317.1,-129.69"/>
<polygon fill="#63b8ff" stroke="#63b8ff" points="316.96,-133.19 327.26,-130.7 317.66,-126.22 316.96,-133.19"/>
</g>
<!-- Node7 -->
<g id="node7" class="node">
<title>Node7</title>
<g id="a_node7"><a xlink:href="classsisi4s_1_1Data.html#a0ec0b1c7f2356fd43d82ee1dd0246789" target="_top" xlink:title=" ">
<polygon fill="white" stroke="#666666" points="480,-105 333,-105 333,-86 480,-86 480,-105"/>
<text text-anchor="middle" x="406.5" y="-93" font-family="Helvetica,sans-Serif" font-size="10.00">sisi4s::Data::getTypeName</text>
</a>
</g>
</g>
<!-- Node2&#45;&gt;Node7 -->
<g id="edge6" class="edge">
<title>Node2&#45;&gt;Node7</title>
<path fill="none" stroke="#63b8ff" d="M286.16,-113.7C300.8,-111.47 317.05,-108.99 332.73,-106.6"/>
<polygon fill="#63b8ff" stroke="#63b8ff" points="333.57,-110.01 342.92,-105.04 332.51,-103.09 333.57,-110.01"/>
</g>
<!-- Node4 -->
<g id="node4" class="node">
<title>Node4</title>
<g id="a_node4"><a xlink:href="classsisi4s_1_1Data.html#a5b4676e48b4f437d399587e6903f896a" target="_top" xlink:title=" ">
<polygon fill="white" stroke="#666666" points="618,-62 523,-62 523,-43 618,-43 618,-62"/>
<text text-anchor="middle" x="570.5" y="-50" font-family="Helvetica,sans-Serif" font-size="10.00">sisi4s::Data::get</text>
</a>
</g>
</g>
<!-- Node3&#45;&gt;Node4 -->
<g id="edge3" class="edge">
<title>Node3&#45;&gt;Node4</title>
<path fill="none" stroke="#63b8ff" d="M458.76,-52.5C475.96,-52.5 495.24,-52.5 512.83,-52.5"/>
<polygon fill="#63b8ff" stroke="#63b8ff" points="512.97,-56 522.97,-52.5 512.97,-49 512.97,-56"/>
</g>
<!-- Node8&#45;&gt;Node3 -->
<g id="edge8" class="edge">
<title>Node8&#45;&gt;Node3</title>
<path fill="none" stroke="#63b8ff" d="M290.36,-66.68C307.59,-64.56 326.69,-62.21 344.29,-60.04"/>
<polygon fill="#63b8ff" stroke="#63b8ff" points="344.97,-63.48 354.46,-58.79 344.11,-56.53 344.97,-63.48"/>
</g>
<!-- Node8&#45;&gt;Node7 -->
<g id="edge9" class="edge">
<title>Node8&#45;&gt;Node7</title>
<path fill="none" stroke="#63b8ff" d="M290.36,-80.64C300.7,-81.98 311.73,-83.4 322.69,-84.82"/>
<polygon fill="#63b8ff" stroke="#63b8ff" points="322.36,-88.3 332.73,-86.11 323.26,-81.36 322.36,-88.3"/>
</g>
<!-- Node9&#45;&gt;Node3 -->
<g id="edge11" class="edge">
<title>Node9&#45;&gt;Node3</title>
<path fill="none" stroke="#63b8ff" d="M286.16,-33.6C304.45,-36.5 325.25,-39.79 344.3,-42.81"/>
<polygon fill="#63b8ff" stroke="#63b8ff" points="343.96,-46.3 354.38,-44.4 345.05,-39.38 343.96,-46.3"/>
</g>
<!-- Node10 -->
<g id="node10" class="node">
<title>Node10</title>
<g id="a_node10"><a xlink:href="classsisi4s_1_1Data.html#a10819dce08cb4dd8d881b9fe02036d69" target="_top" xlink:title=" ">
<polygon fill="white" stroke="#666666" points="469,-19 344,-19 344,0 469,0 469,-19"/>
<text text-anchor="middle" x="406.5" y="-7" font-family="Helvetica,sans-Serif" font-size="10.00">sisi4s::Data::getName</text>
</a>
</g>
</g>
<!-- Node9&#45;&gt;Node10 -->
<g id="edge12" class="edge">
<title>Node9&#45;&gt;Node10</title>
<path fill="none" stroke="#63b8ff" d="M286.16,-20.7C301.04,-19.3 317.59,-17.75 333.5,-16.26"/>
<polygon fill="#63b8ff" stroke="#63b8ff" points="334.22,-19.7 343.85,-15.29 333.56,-12.74 334.22,-19.7"/>
</g>
</g>
</svg>
