<?xml version="1.0" encoding="UTF-8" standalone="no"?>
<!DOCTYPE svg PUBLIC "-//W3C//DTD SVG 1.1//EN"
 "http://www.w3.org/Graphics/SVG/1.1/DTD/svg11.dtd">
<!-- Generated by graphviz version 7.1.0 (0)
 -->
<!-- Title: sisi4s::ParenthesisTriples::getVpppijkOnTheFly Pages: 1 -->
<svg width="609pt" height="107pt"
 viewBox="0.00 0.00 609.00 107.00" xmlns="http://www.w3.org/2000/svg" xmlns:xlink="http://www.w3.org/1999/xlink">
<g id="graph0" class="graph" transform="scale(1 1) rotate(0) translate(4 103)">
<title>sisi4s::ParenthesisTriples::getVpppijkOnTheFly</title>
<!-- Node1 -->
<g id="node1" class="node">
<title>Node1</title>
<g id="a_node1"><a xlink:title=" ">
<polygon fill="#999999" stroke="#666666" points="138,-54 0,-54 0,-24 138,-24 138,-54"/>
<text text-anchor="start" x="8" y="-42" font-family="Helvetica,sans-Serif" font-size="10.00">sisi4s::ParenthesisTriples</text>
<text text-anchor="middle" x="69" y="-31" font-family="Helvetica,sans-Serif" font-size="10.00">::getVpppijkOnTheFly</text>
</a>
</g>
</g>
<!-- Node2 -->
<g id="node2" class="node">
<title>Node2</title>
<g id="a_node2"><a xlink:href="classsisi4s_1_1Algorithm.html#a5e80a507fac066ab5714b62364cabaaf" target="_top" xlink:title=" ">
<polygon fill="white" stroke="#666666" points="282.5,-78 178.5,-78 178.5,-48 282.5,-48 282.5,-78"/>
<text text-anchor="start" x="186.5" y="-66" font-family="Helvetica,sans-Serif" font-size="10.00">sisi4s::Algorithm::</text>
<text text-anchor="middle" x="230.5" y="-55" font-family="Helvetica,sans-Serif" font-size="10.00">getTextArgument</text>
</a>
</g>
</g>
<!-- Node1&#45;&gt;Node2 -->
<g id="edge1" class="edge">
<title>Node1&#45;&gt;Node2</title>
<path fill="none" stroke="#63b8ff" d="M138.11,-49.25C147.62,-50.68 157.35,-52.14 166.76,-53.56"/>
<polygon fill="#63b8ff" stroke="#63b8ff" points="166.12,-57 176.53,-55.03 167.17,-50.08 166.12,-57"/>
</g>
<!-- Node6 -->
<g id="node6" class="node">
<title>Node6</title>
<g id="a_node6"><a xlink:href="structsisi4s_1_1VectorTensor.html#ad294d21f8bffc70e623aaf2fab05d888" target="_top" xlink:title=" ">
<polygon fill="white" stroke="#666666" points="287,-30 174,-30 174,0 287,0 287,-30"/>
<text text-anchor="start" x="182" y="-18" font-family="Helvetica,sans-Serif" font-size="10.00">sisi4s::VectorTensor</text>
<text text-anchor="middle" x="230.5" y="-7" font-family="Helvetica,sans-Serif" font-size="10.00">::withReference</text>
</a>
</g>
</g>
<!-- Node1&#45;&gt;Node6 -->
<g id="edge5" class="edge">
<title>Node1&#45;&gt;Node6</title>
<path fill="none" stroke="#63b8ff" d="M138.11,-28.75C146.16,-27.54 154.38,-26.3 162.42,-25.09"/>
<polygon fill="#63b8ff" stroke="#63b8ff" points="162.78,-28.58 172.14,-23.63 161.73,-21.66 162.78,-28.58"/>
</g>
<!-- Node3 -->
<g id="node3" class="node">
<title>Node3</title>
<g id="a_node3"><a xlink:href="classsisi4s_1_1Algorithm.html#a1e53277220d32a33e20846267c253652" target="_top" xlink:title=" ">
<polygon fill="white" stroke="#666666" points="448.5,-99 344.5,-99 344.5,-69 448.5,-69 448.5,-99"/>
<text text-anchor="start" x="352.5" y="-87" font-family="Helvetica,sans-Serif" font-size="10.00">sisi4s::Algorithm::</text>
<text text-anchor="middle" x="396.5" y="-76" font-family="Helvetica,sans-Serif" font-size="10.00">getArgumentData</text>
</a>
</g>
</g>
<!-- Node2&#45;&gt;Node3 -->
<g id="edge2" class="edge">
<title>Node2&#45;&gt;Node3</title>
<path fill="none" stroke="#63b8ff" d="M282.94,-69.59C298.82,-71.62 316.47,-73.88 333.01,-76"/>
<polygon fill="#63b8ff" stroke="#63b8ff" points="332.38,-79.45 342.74,-77.24 333.27,-72.5 332.38,-79.45"/>
</g>
<!-- Node5 -->
<g id="node5" class="node">
<title>Node5</title>
<g id="a_node5"><a xlink:href="classsisi4s_1_1Data.html#a0ec0b1c7f2356fd43d82ee1dd0246789" target="_top" xlink:title=" ">
<polygon fill="white" stroke="#666666" points="470,-50.5 323,-50.5 323,-31.5 470,-31.5 470,-50.5"/>
<text text-anchor="middle" x="396.5" y="-38.5" font-family="Helvetica,sans-Serif" font-size="10.00">sisi4s::Data::getTypeName</text>
</a>
</g>
</g>
<!-- Node2&#45;&gt;Node5 -->
<g id="edge4" class="edge">
<title>Node2&#45;&gt;Node5</title>
<path fill="none" stroke="#63b8ff" d="M282.94,-56.1C291.99,-54.89 301.61,-53.59 311.28,-52.3"/>
<polygon fill="#63b8ff" stroke="#63b8ff" points="311.67,-55.78 321.12,-50.98 310.74,-48.84 311.67,-55.78"/>
</g>
<!-- Node4 -->
<g id="node4" class="node">
<title>Node4</title>
<g id="a_node4"><a xlink:href="classsisi4s_1_1Data.html#a5b4676e48b4f437d399587e6903f896a" target="_top" xlink:title=" ">
<polygon fill="white" stroke="#666666" points="601,-93.5 506,-93.5 506,-74.5 601,-74.5 601,-93.5"/>
<text text-anchor="middle" x="553.5" y="-81.5" font-family="Helvetica,sans-Serif" font-size="10.00">sisi4s::Data::get</text>
</a>
</g>
</g>
<!-- Node3&#45;&gt;Node4 -->
<g id="edge3" class="edge">
<title>Node3&#45;&gt;Node4</title>
<path fill="none" stroke="#63b8ff" d="M448.68,-84C463.3,-84 479.33,-84 494.33,-84"/>
<polygon fill="#63b8ff" stroke="#63b8ff" points="494.05,-87.5 504.05,-84 494.05,-80.5 494.05,-87.5"/>
</g>
</g>
</svg>
