<?xml version="1.0" encoding="UTF-8" standalone="no"?>
<!DOCTYPE svg PUBLIC "-//W3C//DTD SVG 1.1//EN"
 "http://www.w3.org/Graphics/SVG/1.1/DTD/svg11.dtd">
<!-- Generated by graphviz version 5.0.1 (0)
 -->
<!-- Title: sisi4s::UnrestrictedEquationOfMotionSinglesFromRpa Pages: 1 -->
<svg width="483pt" height="611pt"
 viewBox="0.00 0.00 483.00 611.00" xmlns="http://www.w3.org/2000/svg" xmlns:xlink="http://www.w3.org/1999/xlink">
<g id="graph0" class="graph" transform="scale(1 1) rotate(0) translate(4 607)">
<title>sisi4s::UnrestrictedEquationOfMotionSinglesFromRpa</title>
<!-- Node1 -->
<g id="node1" class="node">
<title>Node1</title>
<g id="a_node1"><a xlink:title=" ">
<polygon fill="#999999" stroke="#666666" points="239,-129 55,-129 55,0 239,0 239,-129"/>
<text text-anchor="start" x="63" y="-117" font-family="Helvetica,sans-Serif" font-size="10.00">{sisi4s::UnrestrictedEquation</text>
<text text-anchor="middle" x="147" y="-106" font-family="Helvetica,sans-Serif" font-size="10.00">OfMotionSinglesFromRpa</text>
<text text-anchor="start" x="63" y="-95" font-family="Helvetica,sans-Serif" font-size="10.00">|# DEFAULT_MAX_ITERATIONS</text>
<text text-anchor="start" x="63" y="-84" font-family="Helvetica,sans-Serif" font-size="10.00">|+ getName()</text>
<text text-anchor="start" x="63" y="-73" font-family="Helvetica,sans-Serif" font-size="10.00">+ UnrestrictedEquationOfMotion</text>
<text text-anchor="start" x="63" y="-62" font-family="Helvetica,sans-Serif" font-size="10.00">SinglesFromRpa()</text>
<text text-anchor="start" x="63" y="-51" font-family="Helvetica,sans-Serif" font-size="10.00">+ ~UnrestrictedEquationOfMotion</text>
<text text-anchor="start" x="63" y="-40" font-family="Helvetica,sans-Serif" font-size="10.00">SinglesFromRpa()</text>
<text text-anchor="start" x="63" y="-29" font-family="Helvetica,sans-Serif" font-size="10.00">+ run()</text>
<text text-anchor="start" x="63" y="-18" font-family="Helvetica,sans-Serif" font-size="10.00">+ run()</text>
<text text-anchor="middle" x="147" y="-7" font-family="Helvetica,sans-Serif" font-size="10.00">}</text>
</a>
</g>
</g>
<!-- Node2 -->
<g id="node2" class="node">
<title>Node2</title>
<g id="a_node2"><a xlink:href="classsisi4s_1_1Algorithm.html" target="_top" xlink:title=" ">
<polygon fill="white" stroke="#666666" points="180,-382 0,-382 0,-176 180,-176 180,-382"/>
<text text-anchor="middle" x="90" y="-370" font-family="Helvetica,sans-Serif" font-size="10.00">{sisi4s::Algorithm</text>
<text text-anchor="start" x="8" y="-359" font-family="Helvetica,sans-Serif" font-size="10.00">|# arguments</text>
<text text-anchor="start" x="8" y="-348" font-family="Helvetica,sans-Serif" font-size="10.00">|+ Algorithm()</text>
<text text-anchor="start" x="8" y="-337" font-family="Helvetica,sans-Serif" font-size="10.00">+ ~Algorithm()</text>
<text text-anchor="start" x="8" y="-326" font-family="Helvetica,sans-Serif" font-size="10.00">+ getName()</text>
<text text-anchor="start" x="8" y="-315" font-family="Helvetica,sans-Serif" font-size="10.00">+ run()</text>
<text text-anchor="start" x="8" y="-304" font-family="Helvetica,sans-Serif" font-size="10.00">+ dryRun()</text>
<text text-anchor="start" x="8" y="-293" font-family="Helvetica,sans-Serif" font-size="10.00">+ isArgumentGiven()</text>
<text text-anchor="start" x="8" y="-282" font-family="Helvetica,sans-Serif" font-size="10.00">+ getTextArgument()</text>
<text text-anchor="start" x="8" y="-271" font-family="Helvetica,sans-Serif" font-size="10.00">+ getTextArgument()</text>
<text text-anchor="start" x="8" y="-260" font-family="Helvetica,sans-Serif" font-size="10.00">+ getBooleanArgument()</text>
<text text-anchor="start" x="8" y="-249" font-family="Helvetica,sans-Serif" font-size="10.00">+ getBooleanArgument()</text>
<text text-anchor="start" x="8" y="-238" font-family="Helvetica,sans-Serif" font-size="10.00">and 12 more...</text>
<text text-anchor="start" x="8" y="-227" font-family="Helvetica,sans-Serif" font-size="10.00"># getRealArgumentFromInteger()</text>
<text text-anchor="start" x="8" y="-216" font-family="Helvetica,sans-Serif" font-size="10.00"># getRealArgumentFromTensor()</text>
<text text-anchor="start" x="8" y="-205" font-family="Helvetica,sans-Serif" font-size="10.00"># getTensorArgumentFromReal()</text>
<text text-anchor="start" x="8" y="-194" font-family="Helvetica,sans-Serif" font-size="10.00"># getArgumentData()</text>
<text text-anchor="middle" x="90" y="-183" font-family="Helvetica,sans-Serif" font-size="10.00">}</text>
</a>
</g>
</g>
<!-- Node2&#45;&gt;Node1 -->
<g id="edge1" class="edge">
<title>Node2&#45;&gt;Node1</title>
<path fill="none" stroke="#63b8ff" d="M120.02,-166.07C123.43,-153.37 126.81,-140.78 129.96,-129.02"/>
<polygon fill="none" stroke="#63b8ff" points="116.63,-165.23 117.41,-175.8 123.39,-167.04 116.63,-165.23"/>
</g>
<!-- Node3 -->
<g id="node3" class="node">
<title>Node3</title>
<g id="a_node3"><a xlink:href="classsisi4s_1_1AlgorithmRegistrar.html" target="_top" xlink:title=" ">
<polygon fill="white" stroke="#666666" points="374,-310.5 198,-310.5 198,-247.5 374,-247.5 374,-310.5"/>
<text text-anchor="start" x="206" y="-298.5" font-family="Helvetica,sans-Serif" font-size="10.00">{sisi4s::AlgorithmRegistrar</text>
<text text-anchor="start" x="206" y="-287.5" font-family="Helvetica,sans-Serif" font-size="10.00">&lt; sisi4s::UnrestrictedEquationOf</text>
<text text-anchor="middle" x="286" y="-276.5" font-family="Helvetica,sans-Serif" font-size="10.00">MotionSinglesFromRpa &gt;</text>
<text text-anchor="start" x="206" y="-265.5" font-family="Helvetica,sans-Serif" font-size="10.00">||+ AlgorithmRegistrar()</text>
<text text-anchor="middle" x="286" y="-254.5" font-family="Helvetica,sans-Serif" font-size="10.00">}</text>
</a>
</g>
</g>
<!-- Node3&#45;&gt;Node1 -->
<g id="edge2" class="edge">
<title>Node3&#45;&gt;Node1</title>
<path fill="none" stroke="#404040" d="M265.79,-247.1C247.41,-219.01 219.56,-176.43 195.45,-139.57"/>
<polygon fill="none" stroke="#404040" points="195.33,-139.38 188.7,-136.55 188.76,-129.34 195.39,-132.17 195.33,-139.38"/>
<text text-anchor="middle" x="233" y="-150" font-family="Helvetica,sans-Serif" font-size="10.00"> +registrar_</text>
</g>
<!-- Node4 -->
<g id="node4" class="node">
<title>Node4</title>
<g id="a_node4"><a xlink:href="classsisi4s_1_1AlgorithmFactory.html" target="_top" xlink:title=" ">
<polygon fill="white" stroke="#666666" points="317,-603 177,-603 177,-529 317,-529 317,-603"/>
<text text-anchor="middle" x="247" y="-591" font-family="Helvetica,sans-Serif" font-size="10.00">{sisi4s::AlgorithmFactory</text>
<text text-anchor="start" x="185" y="-580" font-family="Helvetica,sans-Serif" font-size="10.00">|# algorithmMap</text>
<text text-anchor="start" x="185" y="-569" font-family="Helvetica,sans-Serif" font-size="10.00">|+ create()</text>
<text text-anchor="start" x="185" y="-558" font-family="Helvetica,sans-Serif" font-size="10.00">+ getAlgorithmNames()</text>
<text text-anchor="start" x="185" y="-547" font-family="Helvetica,sans-Serif" font-size="10.00"># getAlgorithmMap()</text>
<text text-anchor="middle" x="247" y="-536" font-family="Helvetica,sans-Serif" font-size="10.00">}</text>
</a>
</g>
</g>
<!-- Node4&#45;&gt;Node3 -->
<g id="edge3" class="edge">
<title>Node4&#45;&gt;Node3</title>
<path fill="none" stroke="darkgreen" d="M248.03,-518.68C248.95,-495.06 250.7,-465.92 254,-440 259.78,-394.62 271,-342.82 278.5,-310.76"/>
<polygon fill="none" stroke="darkgreen" points="244.53,-518.66 247.68,-528.77 251.53,-518.9 244.53,-518.66"/>
</g>
<!-- Node5 -->
<g id="node5" class="node">
<title>Node5</title>
<g id="a_node5"><a xlink:href="classsisi4s_1_1AlgorithmRegistrar.html" target="_top" xlink:title="Class to be statically instantiated by an algorithm to register it in the AlgorithmFactory....">
<polygon fill="white" stroke="#666666" points="411.5,-492 262.5,-492 262.5,-440 411.5,-440 411.5,-492"/>
<text text-anchor="start" x="270.5" y="-480" font-family="Helvetica,sans-Serif" font-size="10.00">{sisi4s::AlgorithmRegistrar</text>
<text text-anchor="middle" x="337" y="-469" font-family="Helvetica,sans-Serif" font-size="10.00">&lt; AlgorithmType &gt;</text>
<text text-anchor="start" x="270.5" y="-458" font-family="Helvetica,sans-Serif" font-size="10.00">||+ AlgorithmRegistrar()</text>
<text text-anchor="middle" x="337" y="-447" font-family="Helvetica,sans-Serif" font-size="10.00">}</text>
</a>
</g>
</g>
<!-- Node4&#45;&gt;Node5 -->
<g id="edge5" class="edge">
<title>Node4&#45;&gt;Node5</title>
<path fill="none" stroke="darkgreen" d="M287.2,-521.23C296.37,-511.24 305.82,-500.95 313.98,-492.06"/>
<polygon fill="none" stroke="darkgreen" points="284.44,-519.05 280.26,-528.79 289.6,-523.79 284.44,-519.05"/>
</g>
<!-- Node5&#45;&gt;Node3 -->
<g id="edge4" class="edge">
<title>Node5&#45;&gt;Node3</title>
<path fill="none" stroke="orange" d="M327.35,-430.01C317.85,-395.54 303.48,-343.41 294.42,-310.56"/>
<polygon fill="orange" stroke="orange" points="323.98,-430.95 330.02,-439.66 330.73,-429.09 323.98,-430.95"/>
<text text-anchor="start" x="324" y="-414" font-family="Helvetica,sans-Serif" font-size="10.00"> &lt; sisi4s::UnrestrictedEquation</text>
<text text-anchor="middle" x="399.5" y="-403" font-family="Helvetica,sans-Serif" font-size="10.00">OfMotionSinglesFromRpa &gt;</text>
</g>
</g>
</svg>
