<?xml version="1.0" encoding="UTF-8" standalone="no"?>
<!DOCTYPE svg PUBLIC "-//W3C//DTD SVG 1.1//EN"
 "http://www.w3.org/Graphics/SVG/1.1/DTD/svg11.dtd">
<!-- Generated by graphviz version 5.0.1 (0)
 -->
<!-- Title: sisi4s::CtfMachineTensor::getName Pages: 1 -->
<svg width="318pt" height="86pt"
 viewBox="0.00 0.00 318.00 86.00" xmlns="http://www.w3.org/2000/svg" xmlns:xlink="http://www.w3.org/1999/xlink">
<g id="graph0" class="graph" transform="scale(1 1) rotate(0) translate(4 82)">
<title>sisi4s::CtfMachineTensor::getName</title>
<!-- Node1 -->
<g id="node1" class="node">
<title>Node1</title>
<g id="a_node1"><a xlink:title=" ">
<polygon fill="#999999" stroke="#666666" points="310,-54 173,-54 173,-24 310,-24 310,-54"/>
<text text-anchor="start" x="181" y="-42" font-family="Helvetica,sans-Serif" font-size="10.00">sisi4s::CtfMachineTensor</text>
<text text-anchor="middle" x="241.5" y="-31" font-family="Helvetica,sans-Serif" font-size="10.00">::getName</text>
</a>
</g>
</g>
<!-- Node2 -->
<g id="node2" class="node">
<title>Node2</title>
<g id="a_node2"><a xlink:href="classsisi4s_1_1CtfMachineTensor.html#a2a05c45644a61a0bdd21cccda2ce3d9c" target="_top" xlink:title=" ">
<polygon fill="white" stroke="#666666" points="137,-78 0,-78 0,-48 137,-48 137,-78"/>
<text text-anchor="start" x="8" y="-66" font-family="Helvetica,sans-Serif" font-size="10.00">sisi4s::CtfMachineTensor</text>
<text text-anchor="middle" x="68.5" y="-55" font-family="Helvetica,sans-Serif" font-size="10.00">::contract</text>
</a>
</g>
</g>
<!-- Node1&#45;&gt;Node2 -->
<g id="edge1" class="edge">
<title>Node1&#45;&gt;Node2</title>
<path fill="none" stroke="#63b8ff" d="M162.9,-49.89C154.31,-51.1 145.61,-52.32 137.15,-53.5"/>
<polygon fill="#63b8ff" stroke="#63b8ff" points="163.5,-53.34 172.92,-48.49 162.53,-46.41 163.5,-53.34"/>
</g>
<!-- Node3 -->
<g id="node3" class="node">
<title>Node3</title>
<g id="a_node3"><a xlink:href="classsisi4s_1_1CtfMachineTensor.html#adbb6518e60bbfe08c51eb0f508178268" target="_top" xlink:title=" ">
<polygon fill="white" stroke="#666666" points="137,-30 0,-30 0,0 137,0 137,-30"/>
<text text-anchor="start" x="8" y="-18" font-family="Helvetica,sans-Serif" font-size="10.00">sisi4s::CtfMachineTensor</text>
<text text-anchor="middle" x="68.5" y="-7" font-family="Helvetica,sans-Serif" font-size="10.00">::move</text>
</a>
</g>
</g>
<!-- Node1&#45;&gt;Node3 -->
<g id="edge2" class="edge">
<title>Node1&#45;&gt;Node3</title>
<path fill="none" stroke="#63b8ff" d="M162.9,-28.11C154.31,-26.9 145.61,-25.68 137.15,-24.5"/>
<polygon fill="#63b8ff" stroke="#63b8ff" points="162.53,-31.59 172.92,-29.51 163.5,-24.66 162.53,-31.59"/>
</g>
</g>
</svg>
