<?xml version="1.0" encoding="UTF-8" standalone="no"?>
<!DOCTYPE svg PUBLIC "-//W3C//DTD SVG 1.1//EN"
 "http://www.w3.org/Graphics/SVG/1.1/DTD/svg11.dtd">
<!-- Generated by graphviz version 9.0.0 (0)
 -->
<!-- Title: sisi4s::CcsdPerturbativeTriples::sliceTensors Pages: 1 -->
<svg width="638pt" height="114pt"
 viewBox="0.00 0.00 638.25 113.75" xmlns="http://www.w3.org/2000/svg" xmlns:xlink="http://www.w3.org/1999/xlink">
<g id="graph0" class="graph" transform="scale(1 1) rotate(0) translate(4 109.75)">
<title>sisi4s::CcsdPerturbativeTriples::sliceTensors</title>
<!-- Node1 -->
<g id="Node000001" class="node">
<title>Node1</title>
<g id="a_Node000001"><a xlink:title=" ">
<polygon fill="#999999" stroke="#666666" points="133,-71.12 0,-71.12 0,-37.62 133,-37.62 133,-71.12"/>
<text text-anchor="start" x="8" y="-57.62" font-family="Helvetica,sans-Serif" font-size="10.00">sisi4s::CcsdPerturbative</text>
<text text-anchor="middle" x="66.5" y="-44.88" font-family="Helvetica,sans-Serif" font-size="10.00">Triples::sliceTensors</text>
</a>
</g>
</g>
<!-- Node2 -->
<g id="Node000002" class="node">
<title>Node2</title>
<g id="a_Node000002"><a xlink:href="namespacesisi4s.html#ad6f7eb8262f28cfa6afcabe5c42c8521" target="_top" xlink:title="Decomposes the tensor of complex elements into two tensors containing the real and imaginary parts,...">
<polygon fill="white" stroke="#666666" points="317,-87.75 169,-87.75 169,-67 317,-67 317,-87.75"/>
<text text-anchor="middle" x="243" y="-74.25" font-family="Helvetica,sans-Serif" font-size="10.00">sisi4s::fromComplexTensor</text>
</a>
</g>
</g>
<!-- Node1&#45;&gt;Node2 -->
<g id="edge1_Node000001_Node000002" class="edge">
<title>Node1&#45;&gt;Node2</title>
<g id="a_edge1_Node000001_Node000002"><a xlink:title=" ">
<path fill="none" stroke="#63b8ff" d="M133.47,-63.07C141.28,-64.1 149.33,-65.16 157.34,-66.22"/>
<polygon fill="#63b8ff" stroke="#63b8ff" points="156.76,-69.67 167.13,-67.51 157.68,-62.73 156.76,-69.67"/>
</a>
</g>
</g>
<!-- Node3 -->
<g id="Node000003" class="node">
<title>Node3</title>
<g id="a_Node000003"><a xlink:href="classsisi4s_1_1Algorithm.html#a338a44c8fd4d6be3b32a6d5e71dfe180" target="_top" xlink:title=" ">
<polygon fill="white" stroke="#666666" points="298.62,-49.12 187.38,-49.12 187.38,-15.62 298.62,-15.62 298.62,-49.12"/>
<text text-anchor="start" x="195.38" y="-35.62" font-family="Helvetica,sans-Serif" font-size="10.00">sisi4s::Algorithm::</text>
<text text-anchor="middle" x="243" y="-22.88" font-family="Helvetica,sans-Serif" font-size="10.00">getTensorArgument</text>
</a>
</g>
</g>
<!-- Node1&#45;&gt;Node3 -->
<g id="edge3_Node000001_Node000003" class="edge">
<title>Node1&#45;&gt;Node3</title>
<g id="a_edge3_Node000001_Node000003"><a xlink:title=" ">
<path fill="none" stroke="#63b8ff" d="M133.47,-46.06C147.27,-44.32 161.82,-42.48 175.64,-40.74"/>
<polygon fill="#63b8ff" stroke="#63b8ff" points="176.05,-44.22 185.53,-39.49 175.17,-37.27 176.05,-44.22"/>
</a>
</g>
</g>
<!-- Node2&#45;&gt;Node2 -->
<g id="edge2_Node000002_Node000002" class="edge">
<title>Node2&#45;&gt;Node2</title>
<g id="a_edge2_Node000002_Node000002"><a xlink:title=" ">
<path fill="none" stroke="#63b8ff" d="M214.56,-88.15C203.18,-96.81 212.66,-105.75 243,-105.75 259.59,-105.75 269.94,-103.08 274.06,-99.24"/>
<polygon fill="#63b8ff" stroke="#63b8ff" points="277.49,-98.55 271.79,-89.62 270.68,-100.16 277.49,-98.55"/>
</a>
</g>
</g>
<!-- Node4 -->
<g id="Node000004" class="node">
<title>Node4</title>
<g id="a_Node000004"><a xlink:href="classsisi4s_1_1Algorithm.html#a1e53277220d32a33e20846267c253652" target="_top" xlink:title=" ">
<polygon fill="white" stroke="#666666" points="478.12,-72.12 374.38,-72.12 374.38,-38.62 478.12,-38.62 478.12,-72.12"/>
<text text-anchor="start" x="382.38" y="-58.62" font-family="Helvetica,sans-Serif" font-size="10.00">sisi4s::Algorithm::</text>
<text text-anchor="middle" x="426.25" y="-45.88" font-family="Helvetica,sans-Serif" font-size="10.00">getArgumentData</text>
</a>
</g>
</g>
<!-- Node3&#45;&gt;Node4 -->
<g id="edge4_Node000003_Node000004" class="edge">
<title>Node3&#45;&gt;Node4</title>
<g id="a_edge4_Node000003_Node000004"><a xlink:title=" ">
<path fill="none" stroke="#63b8ff" d="M298.87,-39.34C319,-41.89 341.94,-44.8 362.7,-47.44"/>
<polygon fill="#63b8ff" stroke="#63b8ff" points="362.11,-50.89 372.47,-48.68 362.99,-43.95 362.11,-50.89"/>
</a>
</g>
</g>
<!-- Node6 -->
<g id="Node000006" class="node">
<title>Node6</title>
<g id="a_Node000006"><a xlink:href="classsisi4s_1_1Data.html#a0ec0b1c7f2356fd43d82ee1dd0246789" target="_top" xlink:title=" ">
<polygon fill="white" stroke="#666666" points="499.5,-20.75 353,-20.75 353,0 499.5,0 499.5,-20.75"/>
<text text-anchor="middle" x="426.25" y="-7.25" font-family="Helvetica,sans-Serif" font-size="10.00">sisi4s::Data::getTypeName</text>
</a>
</g>
</g>
<!-- Node3&#45;&gt;Node6 -->
<g id="edge6_Node000003_Node000006" class="edge">
<title>Node3&#45;&gt;Node6</title>
<g id="a_edge6_Node000003_Node000006"><a xlink:title=" ">
<path fill="none" stroke="#63b8ff" d="M298.87,-25.71C312.41,-24.07 327.21,-22.28 341.76,-20.51"/>
<polygon fill="#63b8ff" stroke="#63b8ff" points="341.81,-24.03 351.31,-19.35 340.97,-17.08 341.81,-24.03"/>
</a>
</g>
</g>
<!-- Node5 -->
<g id="Node000005" class="node">
<title>Node5</title>
<g id="a_Node000005"><a xlink:href="classsisi4s_1_1Data.html#a5b4676e48b4f437d399587e6903f896a" target="_top" xlink:title=" ">
<polygon fill="white" stroke="#666666" points="630.25,-65.75 535.5,-65.75 535.5,-45 630.25,-45 630.25,-65.75"/>
<text text-anchor="middle" x="582.88" y="-52.25" font-family="Helvetica,sans-Serif" font-size="10.00">sisi4s::Data::get</text>
</a>
</g>
</g>
<!-- Node4&#45;&gt;Node5 -->
<g id="edge5_Node000004_Node000005" class="edge">
<title>Node4&#45;&gt;Node5</title>
<g id="a_edge5_Node000004_Node000005"><a xlink:title=" ">
<path fill="none" stroke="#63b8ff" d="M478.31,-55.38C492.89,-55.38 508.88,-55.38 523.85,-55.38"/>
<polygon fill="#63b8ff" stroke="#63b8ff" points="523.54,-58.88 533.54,-55.38 523.54,-51.88 523.54,-58.88"/>
</a>
</g>
</g>
</g>
</svg>
