<?xml version="1.0" encoding="UTF-8" standalone="no"?>
<!DOCTYPE svg PUBLIC "-//W3C//DTD SVG 1.1//EN"
 "http://www.w3.org/Graphics/SVG/1.1/DTD/svg11.dtd">
<!-- Generated by graphviz version 7.1.0 (0)
 -->
<!-- Title: CLI::App::get_groups Pages: 1 -->
<svg width="279pt" height="134pt"
 viewBox="0.00 0.00 279.00 134.00" xmlns="http://www.w3.org/2000/svg" xmlns:xlink="http://www.w3.org/1999/xlink">
<g id="graph0" class="graph" transform="scale(1 1) rotate(0) translate(4 130)">
<title>CLI::App::get_groups</title>
<!-- Node1 -->
<g id="node1" class="node">
<title>Node1</title>
<g id="a_node1"><a xlink:title="Get the groups available directly from this option (in order)">
<polygon fill="#999999" stroke="#666666" points="271,-72.5 155,-72.5 155,-53.5 271,-53.5 271,-72.5"/>
<text text-anchor="middle" x="213" y="-60.5" font-family="Helvetica,sans-Serif" font-size="10.00">CLI::App::get_groups</text>
</a>
</g>
</g>
<!-- Node2 -->
<g id="node2" class="node">
<title>Node2</title>
<g id="a_node2"><a xlink:href="classCLI_1_1Formatter.html#ad48dd6b9432babc0037d6726230221f0" target="_top" xlink:title="This prints out all the groups of options.">
<polygon fill="white" stroke="#666666" points="119,-126 0,-126 0,-96 119,-96 119,-126"/>
<text text-anchor="start" x="8" y="-114" font-family="Helvetica,sans-Serif" font-size="10.00">CLI::Formatter::make</text>
<text text-anchor="middle" x="59.5" y="-103" font-family="Helvetica,sans-Serif" font-size="10.00">_groups</text>
</a>
</g>
</g>
<!-- Node1&#45;&gt;Node2 -->
<g id="edge1" class="edge">
<title>Node1&#45;&gt;Node2</title>
<path fill="none" stroke="#63b8ff" d="M169.69,-76.4C150.89,-82.36 128.64,-89.41 109.16,-95.58"/>
<polygon fill="#63b8ff" stroke="#63b8ff" points="170.69,-79.76 179.17,-73.4 168.58,-73.09 170.69,-79.76"/>
</g>
<!-- Node3 -->
<g id="node3" class="node">
<title>Node3</title>
<g id="a_node3"><a xlink:href="classCLI_1_1Formatter.html#a3aac4a7ce4ca139704e632915892024c" target="_top" xlink:title="This displays the usage line.">
<polygon fill="white" stroke="#666666" points="119,-78 0,-78 0,-48 119,-48 119,-78"/>
<text text-anchor="start" x="8" y="-66" font-family="Helvetica,sans-Serif" font-size="10.00">CLI::Formatter::make</text>
<text text-anchor="middle" x="59.5" y="-55" font-family="Helvetica,sans-Serif" font-size="10.00">_usage</text>
</a>
</g>
</g>
<!-- Node1&#45;&gt;Node3 -->
<g id="edge2" class="edge">
<title>Node1&#45;&gt;Node3</title>
<path fill="none" stroke="#63b8ff" d="M143.46,-63C135.42,-63 127.26,-63 119.37,-63"/>
<polygon fill="#63b8ff" stroke="#63b8ff" points="143.21,-66.5 153.21,-63 143.21,-59.5 143.21,-66.5"/>
</g>
<!-- Node4 -->
<g id="node4" class="node">
<title>Node4</title>
<g id="a_node4"><a xlink:href="classCLI_1_1ConfigBase.html#a5832f6f03212648fa08a8ff83bc9bc08" target="_top" xlink:title="Convert an app into a configuration.">
<polygon fill="white" stroke="#666666" points="113.5,-30 5.5,-30 5.5,0 113.5,0 113.5,-30"/>
<text text-anchor="start" x="13.5" y="-18" font-family="Helvetica,sans-Serif" font-size="10.00">CLI::ConfigBase::to</text>
<text text-anchor="middle" x="59.5" y="-7" font-family="Helvetica,sans-Serif" font-size="10.00">_config</text>
</a>
</g>
</g>
<!-- Node1&#45;&gt;Node4 -->
<g id="edge3" class="edge">
<title>Node1&#45;&gt;Node4</title>
<path fill="none" stroke="#63b8ff" d="M169.69,-49.6C150.89,-43.64 128.64,-36.59 109.16,-30.42"/>
<polygon fill="#63b8ff" stroke="#63b8ff" points="168.58,-52.91 179.17,-52.6 170.69,-46.24 168.58,-52.91"/>
</g>
</g>
</svg>
