<?xml version="1.0" encoding="UTF-8" standalone="no"?>
<!DOCTYPE svg PUBLIC "-//W3C//DTD SVG 1.1//EN"
 "http://www.w3.org/Graphics/SVG/1.1/DTD/svg11.dtd">
<!-- Generated by graphviz version 9.0.0 (0)
 -->
<!-- Title: sisi4s::UCcsdEAEquationOfMotionDavidson Pages: 1 -->
<svg width="212pt" height="446pt"
 viewBox="0.00 0.00 212.00 446.00" xmlns="http://www.w3.org/2000/svg" xmlns:xlink="http://www.w3.org/1999/xlink">
<g id="graph0" class="graph" transform="scale(1 1) rotate(0) translate(4 442)">
<title>sisi4s::UCcsdEAEquationOfMotionDavidson</title>
<!-- Node1 -->
<g id="Node000001" class="node">
<title>Node1</title>
<g id="a_Node000001"><a xlink:title=" ">
<polygon fill="#999999" stroke="none" points="204,-158 0,-158 0,0 204,0 204,-158"/>
<text text-anchor="start" x="36.38" y="-144.5" font-family="Helvetica,sans-Serif" font-size="10.00">sisi4s::UCcsdEAEquationOf</text>
<text text-anchor="start" x="62.25" y="-131.75" font-family="Helvetica,sans-Serif" font-size="10.00">MotionDavidson</text>
<text text-anchor="start" x="3.88" y="-115.5" font-family="Helvetica,sans-Serif" font-size="10.00">+</text>
<text text-anchor="start" x="16" y="-115.5" font-family="Helvetica,sans-Serif" font-size="10.00">registrar_</text>
<text text-anchor="start" x="3.88" y="-99.5" font-family="Helvetica,sans-Serif" font-size="10.00">#</text>
<text text-anchor="start" x="16" y="-99.5" font-family="Helvetica,sans-Serif" font-size="10.00">DEFAULT_MAX_ITERATIONS</text>
<text text-anchor="start" x="3.88" y="-83.5" font-family="Helvetica,sans-Serif" font-size="10.00">+</text>
<text text-anchor="start" x="16" y="-83.5" font-family="Helvetica,sans-Serif" font-size="10.00">getName()</text>
<text text-anchor="start" x="3.88" y="-67.5" font-family="Helvetica,sans-Serif" font-size="10.00">+</text>
<text text-anchor="start" x="16" y="-67.5" font-family="Helvetica,sans-Serif" font-size="10.00">UCcsdEAEquationOfMotionDavidson()</text>
<text text-anchor="start" x="3.88" y="-51.5" font-family="Helvetica,sans-Serif" font-size="10.00">+</text>
<text text-anchor="start" x="16" y="-51.5" font-family="Helvetica,sans-Serif" font-size="10.00">~UCcsdEAEquationOfMotion</text>
<text text-anchor="start" x="16" y="-38.75" font-family="Helvetica,sans-Serif" font-size="10.00">Davidson()</text>
<text text-anchor="start" x="3.88" y="-22.5" font-family="Helvetica,sans-Serif" font-size="10.00">+</text>
<text text-anchor="start" x="16" y="-22.5" font-family="Helvetica,sans-Serif" font-size="10.00">run()</text>
<text text-anchor="start" x="3.88" y="-6.5" font-family="Helvetica,sans-Serif" font-size="10.00">+</text>
<text text-anchor="start" x="16" y="-6.5" font-family="Helvetica,sans-Serif" font-size="10.00">run()</text>
<polygon fill="#666666" stroke="#666666" points="0,-127 0,-127 204,-127 204,-127 0,-127"/>
<polygon fill="#666666" stroke="#666666" points="0,-95 0,-95 14,-95 14,-95 0,-95"/>
<polygon fill="#666666" stroke="#666666" points="14,-95 14,-95 204,-95 204,-95 14,-95"/>
<polygon fill="none" stroke="#666666" points="0,0 0,-158 204,-158 204,0 0,0"/>
</a>
</g>
</g>
<!-- Node2 -->
<g id="Node000002" class="node">
<title>Node2</title>
<g id="a_Node000002"><a xlink:href="classsisi4s_1_1Algorithm.html" target="_top" xlink:title=" ">
<polygon fill="white" stroke="none" points="167.5,-438 36.5,-438 36.5,-194 167.5,-194 167.5,-438"/>
<text text-anchor="start" x="61.12" y="-424.5" font-family="Helvetica,sans-Serif" font-size="10.00">sisi4s::Algorithm</text>
<text text-anchor="start" x="40.38" y="-408.5" font-family="Helvetica,sans-Serif" font-size="10.00">+</text>
<text text-anchor="start" x="52.5" y="-408.5" font-family="Helvetica,sans-Serif" font-size="10.00">note</text>
<text text-anchor="start" x="40.38" y="-392.5" font-family="Helvetica,sans-Serif" font-size="10.00">+</text>
<text text-anchor="start" x="52.5" y="-392.5" font-family="Helvetica,sans-Serif" font-size="10.00">fallible</text>
<text text-anchor="start" x="40.38" y="-376.5" font-family="Helvetica,sans-Serif" font-size="10.00">+</text>
<text text-anchor="start" x="52.5" y="-376.5" font-family="Helvetica,sans-Serif" font-size="10.00">arguments</text>
<text text-anchor="start" x="40.38" y="-360.5" font-family="Helvetica,sans-Serif" font-size="10.00">+</text>
<text text-anchor="start" x="52.5" y="-360.5" font-family="Helvetica,sans-Serif" font-size="10.00">Algorithm()</text>
<text text-anchor="start" x="40.38" y="-344.5" font-family="Helvetica,sans-Serif" font-size="10.00">+</text>
<text text-anchor="start" x="52.5" y="-344.5" font-family="Helvetica,sans-Serif" font-size="10.00">~Algorithm()</text>
<text text-anchor="start" x="40.38" y="-328.5" font-family="Helvetica,sans-Serif" font-size="10.00">+</text>
<text text-anchor="start" x="52.5" y="-328.5" font-family="Helvetica,sans-Serif" font-size="10.00">getName()</text>
<text text-anchor="start" x="40.38" y="-312.5" font-family="Helvetica,sans-Serif" font-size="10.00">+</text>
<text text-anchor="start" x="52.5" y="-312.5" font-family="Helvetica,sans-Serif" font-size="10.00">run()</text>
<text text-anchor="start" x="40.38" y="-296.5" font-family="Helvetica,sans-Serif" font-size="10.00">+</text>
<text text-anchor="start" x="52.5" y="-296.5" font-family="Helvetica,sans-Serif" font-size="10.00">dryRun()</text>
<text text-anchor="start" x="40.38" y="-280.5" font-family="Helvetica,sans-Serif" font-size="10.00">+</text>
<text text-anchor="start" x="52.5" y="-280.5" font-family="Helvetica,sans-Serif" font-size="10.00">isArgumentGiven()</text>
<text text-anchor="start" x="40.38" y="-264.5" font-family="Helvetica,sans-Serif" font-size="10.00">+</text>
<text text-anchor="start" x="52.5" y="-264.5" font-family="Helvetica,sans-Serif" font-size="10.00">getTextArgument()</text>
<text text-anchor="start" x="40.38" y="-248.5" font-family="Helvetica,sans-Serif" font-size="10.00">+</text>
<text text-anchor="start" x="52.5" y="-248.5" font-family="Helvetica,sans-Serif" font-size="10.00">getTextArgument()</text>
<text text-anchor="start" x="40.38" y="-232.5" font-family="Helvetica,sans-Serif" font-size="10.00">+</text>
<text text-anchor="start" x="52.5" y="-232.5" font-family="Helvetica,sans-Serif" font-size="10.00">getBooleanArgument()</text>
<text text-anchor="start" x="40.38" y="-216.5" font-family="Helvetica,sans-Serif" font-size="10.00">+</text>
<text text-anchor="start" x="52.5" y="-216.5" font-family="Helvetica,sans-Serif" font-size="10.00">getBooleanArgument()</text>
<text text-anchor="start" x="52.5" y="-200.5" font-family="Helvetica,sans-Serif" font-size="10.00">and 16 more...</text>
<polygon fill="#666666" stroke="#666666" points="36.5,-420 36.5,-420 167.5,-420 167.5,-420 36.5,-420"/>
<polygon fill="#666666" stroke="#666666" points="36.5,-372 36.5,-372 50.5,-372 50.5,-372 36.5,-372"/>
<polygon fill="#666666" stroke="#666666" points="50.5,-372 50.5,-372 167.5,-372 167.5,-372 50.5,-372"/>
<polygon fill="none" stroke="#666666" points="36.5,-194 36.5,-438 167.5,-438 167.5,-194 36.5,-194"/>
</a>
</g>
</g>
<!-- Node2&#45;&gt;Node1 -->
<g id="edge1_Node000001_Node000002" class="edge">
<title>Node2&#45;&gt;Node1</title>
<g id="a_edge1_Node000001_Node000002"><a xlink:title=" ">
<path fill="none" stroke="#63b8ff" d="M102,-182.6C102,-174.23 102,-165.96 102,-157.97"/>
<polygon fill="none" stroke="#63b8ff" points="98.5,-182.54 102,-192.54 105.5,-182.54 98.5,-182.54"/>
</a>
</g>
</g>
</g>
</svg>
