<?xml version="1.0" encoding="UTF-8" standalone="no"?>
<!DOCTYPE svg PUBLIC "-//W3C//DTD SVG 1.1//EN"
 "http://www.w3.org/Graphics/SVG/1.1/DTD/svg11.dtd">
<!-- Generated by graphviz version 5.0.1 (0)
 -->
<!-- Title: sisi4s::ParticleHoleCoulombVertexSingularVectors::dryRun Pages: 1 -->
<svg width="651pt" height="184pt"
 viewBox="0.00 0.00 651.00 184.00" xmlns="http://www.w3.org/2000/svg" xmlns:xlink="http://www.w3.org/1999/xlink">
<g id="graph0" class="graph" transform="scale(1 1) rotate(0) translate(4 180)">
<title>sisi4s::ParticleHoleCoulombVertexSingularVectors::dryRun</title>
<!-- Node1 -->
<g id="node1" class="node">
<title>Node1</title>
<g id="a_node1"><a xlink:title="Dry run for calculating the left singular vectors of .">
<polygon fill="#bfbfbf" stroke="black" points="0,-96.5 0,-126.5 164,-126.5 164,-96.5 0,-96.5"/>
<text text-anchor="start" x="8" y="-114.5" font-family="Helvetica,sans-Serif" font-size="10.00">sisi4s::ParticleHoleCoulomb</text>
<text text-anchor="middle" x="82" y="-103.5" font-family="Helvetica,sans-Serif" font-size="10.00">VertexSingularVectors::dryRun</text>
</a>
</g>
</g>
<!-- Node2 -->
<g id="node2" class="node">
<title>Node2</title>
<g id="a_node2"><a xlink:href="classsisi4s_1_1Algorithm.html#a5db14be3b0d33bf80218a37223e27667" target="_top" xlink:title=" ">
<polygon fill="none" stroke="black" points="200,-96.5 200,-126.5 315,-126.5 315,-96.5 200,-96.5"/>
<text text-anchor="start" x="208" y="-114.5" font-family="Helvetica,sans-Serif" font-size="10.00">sisi4s::Algorithm::</text>
<text text-anchor="middle" x="257.5" y="-103.5" font-family="Helvetica,sans-Serif" font-size="10.00">getIntegerArgument</text>
</a>
</g>
</g>
<!-- Node1&#45;&gt;Node2 -->
<g id="edge1" class="edge">
<title>Node1&#45;&gt;Node2</title>
<path fill="none" stroke="midnightblue" d="M164.16,-111.5C172.69,-111.5 181.29,-111.5 189.63,-111.5"/>
<polygon fill="midnightblue" stroke="midnightblue" points="189.65,-115 199.65,-111.5 189.65,-108 189.65,-115"/>
</g>
<!-- Node6 -->
<g id="node6" class="node">
<title>Node6</title>
<g id="a_node6"><a xlink:href="classsisi4s_1_1Algorithm.html#a36c632fbb19dae4ce2f415705fa5cbcb" target="_top" xlink:title=" ">
<polygon fill="none" stroke="black" points="205.5,-47.5 205.5,-77.5 309.5,-77.5 309.5,-47.5 205.5,-47.5"/>
<text text-anchor="start" x="213.5" y="-65.5" font-family="Helvetica,sans-Serif" font-size="10.00">sisi4s::Algorithm::</text>
<text text-anchor="middle" x="257.5" y="-54.5" font-family="Helvetica,sans-Serif" font-size="10.00">getRealArgument</text>
</a>
</g>
</g>
<!-- Node1&#45;&gt;Node6 -->
<g id="edge5" class="edge">
<title>Node1&#45;&gt;Node6</title>
<path fill="none" stroke="midnightblue" d="M136.47,-96.4C155.12,-91.13 176.2,-85.18 195.42,-79.75"/>
<polygon fill="midnightblue" stroke="midnightblue" points="196.61,-83.05 205.28,-76.96 194.71,-76.31 196.61,-83.05"/>
</g>
<!-- Node9 -->
<g id="node9" class="node">
<title>Node9</title>
<g id="a_node9"><a xlink:href="classsisi4s_1_1Algorithm.html#a338a44c8fd4d6be3b32a6d5e71dfe180" target="_top" xlink:title=" ">
<polygon fill="none" stroke="black" points="201.5,-145.5 201.5,-175.5 313.5,-175.5 313.5,-145.5 201.5,-145.5"/>
<text text-anchor="start" x="209.5" y="-163.5" font-family="Helvetica,sans-Serif" font-size="10.00">sisi4s::Algorithm::</text>
<text text-anchor="middle" x="257.5" y="-152.5" font-family="Helvetica,sans-Serif" font-size="10.00">getTensorArgument</text>
</a>
</g>
</g>
<!-- Node1&#45;&gt;Node9 -->
<g id="edge10" class="edge">
<title>Node1&#45;&gt;Node9</title>
<path fill="none" stroke="midnightblue" d="M136.47,-126.6C154.53,-131.7 174.86,-137.44 193.58,-142.73"/>
<polygon fill="midnightblue" stroke="midnightblue" points="192.63,-146.1 203.21,-145.45 194.53,-139.36 192.63,-146.1"/>
</g>
<!-- Node3 -->
<g id="node3" class="node">
<title>Node3</title>
<g id="a_node3"><a xlink:href="classsisi4s_1_1Algorithm.html#a1e53277220d32a33e20846267c253652" target="_top" xlink:title=" ">
<polygon fill="none" stroke="black" points="379.5,-139.5 379.5,-169.5 483.5,-169.5 483.5,-139.5 379.5,-139.5"/>
<text text-anchor="start" x="387.5" y="-157.5" font-family="Helvetica,sans-Serif" font-size="10.00">sisi4s::Algorithm::</text>
<text text-anchor="middle" x="431.5" y="-146.5" font-family="Helvetica,sans-Serif" font-size="10.00">getArgumentData</text>
</a>
</g>
</g>
<!-- Node2&#45;&gt;Node3 -->
<g id="edge2" class="edge">
<title>Node2&#45;&gt;Node3</title>
<path fill="none" stroke="midnightblue" d="M315.3,-125.7C332.56,-130.01 351.6,-134.77 369.14,-139.16"/>
<polygon fill="midnightblue" stroke="midnightblue" points="368.72,-142.66 379.27,-141.69 370.42,-135.87 368.72,-142.66"/>
</g>
<!-- Node5 -->
<g id="node5" class="node">
<title>Node5</title>
<g id="a_node5"><a xlink:href="classsisi4s_1_1Data.html#a0ec0b1c7f2356fd43d82ee1dd0246789" target="_top" xlink:title=" ">
<polygon fill="none" stroke="black" points="358,-101 358,-120 505,-120 505,-101 358,-101"/>
<text text-anchor="middle" x="431.5" y="-108" font-family="Helvetica,sans-Serif" font-size="10.00">sisi4s::Data::getTypeName</text>
</a>
</g>
</g>
<!-- Node2&#45;&gt;Node5 -->
<g id="edge4" class="edge">
<title>Node2&#45;&gt;Node5</title>
<path fill="none" stroke="midnightblue" d="M315.3,-111.17C325.71,-111.11 336.77,-111.04 347.76,-110.98"/>
<polygon fill="midnightblue" stroke="midnightblue" points="347.84,-114.48 357.81,-110.92 347.79,-107.48 347.84,-114.48"/>
</g>
<!-- Node4 -->
<g id="node4" class="node">
<title>Node4</title>
<g id="a_node4"><a xlink:href="classsisi4s_1_1Data.html#a5b4676e48b4f437d399587e6903f896a" target="_top" xlink:title=" ">
<polygon fill="none" stroke="black" points="548,-145 548,-164 643,-164 643,-145 548,-145"/>
<text text-anchor="middle" x="595.5" y="-152" font-family="Helvetica,sans-Serif" font-size="10.00">sisi4s::Data::get</text>
</a>
</g>
</g>
<!-- Node3&#45;&gt;Node4 -->
<g id="edge3" class="edge">
<title>Node3&#45;&gt;Node4</title>
<path fill="none" stroke="midnightblue" d="M483.76,-154.5C500.96,-154.5 520.24,-154.5 537.83,-154.5"/>
<polygon fill="midnightblue" stroke="midnightblue" points="537.97,-158 547.97,-154.5 537.97,-151 537.97,-158"/>
</g>
<!-- Node6&#45;&gt;Node3 -->
<g id="edge6" class="edge">
<title>Node6&#45;&gt;Node3</title>
<path fill="none" stroke="midnightblue" d="M300.47,-77.65C305.57,-80.25 310.55,-83.2 315,-86.5 335.03,-101.34 330.28,-115.65 351,-129.5 356.74,-133.34 363.1,-136.61 369.65,-139.4"/>
<polygon fill="midnightblue" stroke="midnightblue" points="368.74,-142.8 379.33,-143.15 371.27,-136.27 368.74,-142.8"/>
</g>
<!-- Node6&#45;&gt;Node5 -->
<g id="edge9" class="edge">
<title>Node6&#45;&gt;Node5</title>
<path fill="none" stroke="midnightblue" d="M309.86,-76.98C323.25,-80.74 337.66,-84.78 351,-88.5 362.31,-91.65 374.53,-95.04 385.91,-98.2"/>
<polygon fill="midnightblue" stroke="midnightblue" points="385.09,-101.6 395.66,-100.89 386.96,-94.85 385.09,-101.6"/>
</g>
<!-- Node7 -->
<g id="node7" class="node">
<title>Node7</title>
<g id="a_node7"><a xlink:href="classsisi4s_1_1Algorithm.html#a1cb9a5e8f19cd8e6b70bb06738ca9413" target="_top" xlink:title=" ">
<polygon fill="none" stroke="black" points="351,-49.5 351,-79.5 512,-79.5 512,-49.5 351,-49.5"/>
<text text-anchor="start" x="359" y="-67.5" font-family="Helvetica,sans-Serif" font-size="10.00">sisi4s::Algorithm::</text>
<text text-anchor="middle" x="431.5" y="-56.5" font-family="Helvetica,sans-Serif" font-size="10.00">getRealArgumentFromInteger</text>
</a>
</g>
</g>
<!-- Node6&#45;&gt;Node7 -->
<g id="edge7" class="edge">
<title>Node6&#45;&gt;Node7</title>
<path fill="none" stroke="midnightblue" d="M309.64,-63.09C319.47,-63.21 330.03,-63.33 340.67,-63.46"/>
<polygon fill="midnightblue" stroke="midnightblue" points="340.84,-66.96 350.88,-63.57 340.92,-59.96 340.84,-66.96"/>
</g>
<!-- Node8 -->
<g id="node8" class="node">
<title>Node8</title>
<g id="a_node8"><a xlink:href="classsisi4s_1_1Algorithm.html#a89e59623f1c238a871a4fba19371be7d" target="_top" xlink:title=" ">
<polygon fill="none" stroke="black" points="352.5,-0.5 352.5,-30.5 510.5,-30.5 510.5,-0.5 352.5,-0.5"/>
<text text-anchor="start" x="360.5" y="-18.5" font-family="Helvetica,sans-Serif" font-size="10.00">sisi4s::Algorithm::</text>
<text text-anchor="middle" x="431.5" y="-7.5" font-family="Helvetica,sans-Serif" font-size="10.00">getRealArgumentFromTensor</text>
</a>
</g>
</g>
<!-- Node6&#45;&gt;Node8 -->
<g id="edge8" class="edge">
<title>Node6&#45;&gt;Node8</title>
<path fill="none" stroke="midnightblue" d="M309.64,-48.53C327.18,-43.73 347.06,-38.3 365.55,-33.25"/>
<polygon fill="midnightblue" stroke="midnightblue" points="366.64,-36.58 375.36,-30.57 364.79,-29.83 366.64,-36.58"/>
</g>
<!-- Node9&#45;&gt;Node3 -->
<g id="edge11" class="edge">
<title>Node9&#45;&gt;Node3</title>
<path fill="none" stroke="midnightblue" d="M313.87,-158.57C331.52,-157.95 351.15,-157.27 369.19,-156.64"/>
<polygon fill="midnightblue" stroke="midnightblue" points="369.45,-160.13 379.32,-156.29 369.2,-153.14 369.45,-160.13"/>
</g>
<!-- Node9&#45;&gt;Node5 -->
<g id="edge12" class="edge">
<title>Node9&#45;&gt;Node5</title>
<path fill="none" stroke="midnightblue" d="M303.01,-145.4C318.17,-140.43 335.26,-135.03 351,-130.5 360.44,-127.78 370.57,-125.08 380.33,-122.58"/>
<polygon fill="midnightblue" stroke="midnightblue" points="381.49,-125.89 390.32,-120.05 379.77,-119.11 381.49,-125.89"/>
</g>
</g>
</svg>
