<?xml version="1.0" encoding="UTF-8" standalone="no"?>
<!DOCTYPE svg PUBLIC "-//W3C//DTD SVG 1.1//EN"
 "http://www.w3.org/Graphics/SVG/1.1/DTD/svg11.dtd">
<!-- Generated by graphviz version 9.0.0 (0)
 -->
<!-- Title: sisi4s::CcsdPerturbativeTriples::getEnergyDenominator Pages: 1 -->
<svg width="635pt" height="80pt"
 viewBox="0.00 0.00 635.25 80.12" xmlns="http://www.w3.org/2000/svg" xmlns:xlink="http://www.w3.org/1999/xlink">
<g id="graph0" class="graph" transform="scale(1 1) rotate(0) translate(4 76.12)">
<title>sisi4s::CcsdPerturbativeTriples::getEnergyDenominator</title>
<!-- Node1 -->
<g id="Node000001" class="node">
<title>Node1</title>
<g id="a_Node000001"><a xlink:title=" ">
<polygon fill="#999999" stroke="#666666" points="166.75,-49.12 0,-49.12 0,-15.62 166.75,-15.62 166.75,-49.12"/>
<text text-anchor="start" x="8" y="-35.62" font-family="Helvetica,sans-Serif" font-size="10.00">sisi4s::CcsdPerturbative</text>
<text text-anchor="middle" x="83.38" y="-22.88" font-family="Helvetica,sans-Serif" font-size="10.00">Triples::getEnergyDenominator</text>
</a>
</g>
</g>
<!-- Node2 -->
<g id="Node000002" class="node">
<title>Node2</title>
<g id="a_Node000002"><a xlink:href="classsisi4s_1_1Algorithm.html#a338a44c8fd4d6be3b32a6d5e71dfe180" target="_top" xlink:title=" ">
<polygon fill="white" stroke="#666666" points="314,-49.12 202.75,-49.12 202.75,-15.62 314,-15.62 314,-49.12"/>
<text text-anchor="start" x="210.75" y="-35.62" font-family="Helvetica,sans-Serif" font-size="10.00">sisi4s::Algorithm::</text>
<text text-anchor="middle" x="258.38" y="-22.88" font-family="Helvetica,sans-Serif" font-size="10.00">getTensorArgument</text>
</a>
</g>
</g>
<!-- Node1&#45;&gt;Node2 -->
<g id="edge1_Node000001_Node000002" class="edge">
<title>Node1&#45;&gt;Node2</title>
<g id="a_edge1_Node000001_Node000002"><a xlink:title=" ">
<path fill="none" stroke="#63b8ff" d="M167.07,-32.38C175.13,-32.38 183.23,-32.38 191.09,-32.38"/>
<polygon fill="#63b8ff" stroke="#63b8ff" points="190.9,-35.88 200.9,-32.38 190.9,-28.88 190.9,-35.88"/>
</a>
</g>
</g>
<!-- Node3 -->
<g id="Node000003" class="node">
<title>Node3</title>
<g id="a_Node000003"><a xlink:href="classsisi4s_1_1Algorithm.html#a1e53277220d32a33e20846267c253652" target="_top" xlink:title=" ">
<polygon fill="white" stroke="#666666" points="475.12,-72.12 371.38,-72.12 371.38,-38.62 475.12,-38.62 475.12,-72.12"/>
<text text-anchor="start" x="379.38" y="-58.62" font-family="Helvetica,sans-Serif" font-size="10.00">sisi4s::Algorithm::</text>
<text text-anchor="middle" x="423.25" y="-45.88" font-family="Helvetica,sans-Serif" font-size="10.00">getArgumentData</text>
</a>
</g>
</g>
<!-- Node2&#45;&gt;Node3 -->
<g id="edge2_Node000002_Node000003" class="edge">
<title>Node2&#45;&gt;Node3</title>
<g id="a_edge2_Node000002_Node000003"><a xlink:title=" ">
<path fill="none" stroke="#63b8ff" d="M314.06,-40.1C328.72,-42.17 344.67,-44.42 359.72,-46.54"/>
<polygon fill="#63b8ff" stroke="#63b8ff" points="359.12,-49.99 369.51,-47.93 360.1,-43.06 359.12,-49.99"/>
</a>
</g>
</g>
<!-- Node5 -->
<g id="Node000005" class="node">
<title>Node5</title>
<g id="a_Node000005"><a xlink:href="classsisi4s_1_1Data.html#a0ec0b1c7f2356fd43d82ee1dd0246789" target="_top" xlink:title=" ">
<polygon fill="white" stroke="#666666" points="496.5,-20.75 350,-20.75 350,0 496.5,0 496.5,-20.75"/>
<text text-anchor="middle" x="423.25" y="-7.25" font-family="Helvetica,sans-Serif" font-size="10.00">sisi4s::Data::getTypeName</text>
</a>
</g>
</g>
<!-- Node2&#45;&gt;Node5 -->
<g id="edge4_Node000002_Node000005" class="edge">
<title>Node2&#45;&gt;Node5</title>
<g id="a_edge4_Node000002_Node000005"><a xlink:title=" ">
<path fill="none" stroke="#63b8ff" d="M314.06,-24.99C321.94,-23.92 330.2,-22.81 338.48,-21.69"/>
<polygon fill="#63b8ff" stroke="#63b8ff" points="338.83,-25.17 348.27,-20.37 337.89,-18.24 338.83,-25.17"/>
</a>
</g>
</g>
<!-- Node4 -->
<g id="Node000004" class="node">
<title>Node4</title>
<g id="a_Node000004"><a xlink:href="classsisi4s_1_1Data.html#a5b4676e48b4f437d399587e6903f896a" target="_top" xlink:title=" ">
<polygon fill="white" stroke="#666666" points="627.25,-65.75 532.5,-65.75 532.5,-45 627.25,-45 627.25,-65.75"/>
<text text-anchor="middle" x="579.88" y="-52.25" font-family="Helvetica,sans-Serif" font-size="10.00">sisi4s::Data::get</text>
</a>
</g>
</g>
<!-- Node3&#45;&gt;Node4 -->
<g id="edge3_Node000003_Node000004" class="edge">
<title>Node3&#45;&gt;Node4</title>
<g id="a_edge3_Node000003_Node000004"><a xlink:title=" ">
<path fill="none" stroke="#63b8ff" d="M475.31,-55.38C489.89,-55.38 505.88,-55.38 520.85,-55.38"/>
<polygon fill="#63b8ff" stroke="#63b8ff" points="520.54,-58.88 530.54,-55.38 520.54,-51.88 520.54,-58.88"/>
</a>
</g>
</g>
</g>
</svg>
