<?xml version="1.0" encoding="UTF-8" standalone="no"?>
<!DOCTYPE svg PUBLIC "-//W3C//DTD SVG 1.1//EN"
 "http://www.w3.org/Graphics/SVG/1.1/DTD/svg11.dtd">
<!-- Generated by graphviz version 5.0.1 (0)
 -->
<!-- Title: sisi4s::UccsdAmplitudesFromCoulombIntegrals::getResiduumTemplate Pages: 1 -->
<svg width="449pt" height="124pt"
 viewBox="0.00 0.00 449.00 123.50" xmlns="http://www.w3.org/2000/svg" xmlns:xlink="http://www.w3.org/1999/xlink">
<g id="graph0" class="graph" transform="scale(1 1) rotate(0) translate(4 119.5)">
<title>sisi4s::UccsdAmplitudesFromCoulombIntegrals::getResiduumTemplate</title>
<!-- Node1 -->
<g id="node1" class="node">
<title>Node1</title>
<g id="a_node1"><a xlink:title=" ">
<polygon fill="#999999" stroke="#666666" points="218,-78 0,-78 0,-48 218,-48 218,-78"/>
<text text-anchor="start" x="8" y="-66" font-family="Helvetica,sans-Serif" font-size="10.00">sisi4s::UccsdAmplitudesFrom</text>
<text text-anchor="middle" x="109" y="-55" font-family="Helvetica,sans-Serif" font-size="10.00">CoulombIntegrals::getResiduumTemplate</text>
</a>
</g>
</g>
<!-- Node2 -->
<g id="node2" class="node">
<title>Node2</title>
<g id="a_node2"><a xlink:href="classsisi4s_1_1FockVector.html#aebf4e090f20a7bb83c434396b274c89c" target="_top" xlink:title="Retrieves the i&#45;th component tensor. Note that the Tensor is not const since rearrangement may be req...">
<polygon fill="white" stroke="#666666" points="410,-115.5 285,-115.5 285,-96.5 410,-96.5 410,-115.5"/>
<text text-anchor="middle" x="347.5" y="-103.5" font-family="Helvetica,sans-Serif" font-size="10.00">sisi4s::FockVector::get</text>
</a>
</g>
</g>
<!-- Node1&#45;&gt;Node2 -->
<g id="edge1" class="edge">
<title>Node1&#45;&gt;Node2</title>
<path fill="none" stroke="#63b8ff" d="M192.72,-78.04C222.73,-83.5 256.11,-89.57 284.08,-94.65"/>
<polygon fill="#63b8ff" stroke="#63b8ff" points="283.66,-98.13 294.13,-96.48 284.92,-91.25 283.66,-98.13"/>
</g>
<!-- Node3 -->
<g id="node3" class="node">
<title>Node3</title>
<g id="a_node3"><a xlink:href="classsisi4s_1_1UccsdAmplitudesFromCoulombIntegrals.html#ae3921eb9f91c5eb8ef4d9b10a140ae05" target="_top" xlink:title="Returns the abbreviation of the concrete algorithm, e.g. &quot;Ccd&quot;, &quot;Dcd&quot;.">
<polygon fill="white" stroke="#666666" points="441,-78 254,-78 254,-48 441,-48 441,-78"/>
<text text-anchor="start" x="262" y="-66" font-family="Helvetica,sans-Serif" font-size="10.00">sisi4s::UccsdAmplitudesFrom</text>
<text text-anchor="middle" x="347.5" y="-55" font-family="Helvetica,sans-Serif" font-size="10.00">CoulombIntegrals::getAbbreviation</text>
</a>
</g>
</g>
<!-- Node1&#45;&gt;Node3 -->
<g id="edge2" class="edge">
<title>Node1&#45;&gt;Node3</title>
<path fill="none" stroke="#63b8ff" d="M218.21,-63C226.69,-63 235.23,-63 243.67,-63"/>
<polygon fill="#63b8ff" stroke="#63b8ff" points="243.89,-66.5 253.89,-63 243.89,-59.5 243.89,-66.5"/>
</g>
<!-- Node4 -->
<g id="node4" class="node">
<title>Node4</title>
<g id="a_node4"><a xlink:href="classsisi4s_1_1Algorithm.html#aec9041b31cb64a42ee1fd79d32774266" target="_top" xlink:title=" ">
<polygon fill="white" stroke="#666666" points="399.5,-30 295.5,-30 295.5,0 399.5,0 399.5,-30"/>
<text text-anchor="start" x="303.5" y="-18" font-family="Helvetica,sans-Serif" font-size="10.00">sisi4s::Algorithm::</text>
<text text-anchor="middle" x="347.5" y="-7" font-family="Helvetica,sans-Serif" font-size="10.00">isArgumentGiven</text>
</a>
</g>
</g>
<!-- Node1&#45;&gt;Node4 -->
<g id="edge3" class="edge">
<title>Node1&#45;&gt;Node4</title>
<path fill="none" stroke="#63b8ff" d="M184.18,-47.94C216.68,-41.35 254.35,-33.7 285.22,-27.44"/>
<polygon fill="#63b8ff" stroke="#63b8ff" points="286.31,-30.79 295.41,-25.37 284.92,-23.93 286.31,-30.79"/>
</g>
</g>
</svg>
