<?xml version="1.0" encoding="UTF-8" standalone="no"?>
<!DOCTYPE svg PUBLIC "-//W3C//DTD SVG 1.1//EN"
 "http://www.w3.org/Graphics/SVG/1.1/DTD/svg11.dtd">
<!-- Generated by graphviz version 7.0.0 (0)
 -->
<!-- Title: sisi4s::CoulombVertexReader::dryRun Pages: 1 -->
<svg width="659pt" height="113pt"
 viewBox="0.00 0.00 659.00 113.00" xmlns="http://www.w3.org/2000/svg" xmlns:xlink="http://www.w3.org/1999/xlink">
<g id="graph0" class="graph" transform="scale(1 1) rotate(0) translate(4 109)">
<title>sisi4s::CoulombVertexReader::dryRun</title>
<!-- Node1 -->
<g id="node1" class="node">
<title>Node1</title>
<g id="a_node1"><a xlink:title="Dry run for reading the Coulomb vertex from binary data file.">
<polygon fill="#999999" stroke="#666666" points="160,-67.5 0,-67.5 0,-37.5 160,-37.5 160,-67.5"/>
<text text-anchor="start" x="8" y="-55.5" font-family="Helvetica,sans-Serif" font-size="10.00">sisi4s::CoulombVertexReader</text>
<text text-anchor="middle" x="80" y="-44.5" font-family="Helvetica,sans-Serif" font-size="10.00">::dryRun</text>
</a>
</g>
</g>
<!-- Node2 -->
<g id="node2" class="node">
<title>Node2</title>
<g id="a_node2"><a xlink:href="classsisi4s_1_1Algorithm.html#a388052a12509b8b641f17bbe8d41f8f3" target="_top" xlink:title="Specifies the location of an output tensor data.">
<polygon fill="white" stroke="#666666" points="337,-91.5 196,-91.5 196,-61.5 337,-61.5 337,-91.5"/>
<text text-anchor="start" x="204" y="-79.5" font-family="Helvetica,sans-Serif" font-size="10.00">sisi4s::Algorithm::</text>
<text text-anchor="middle" x="266.5" y="-68.5" font-family="Helvetica,sans-Serif" font-size="10.00">allocatedTensorArgument</text>
</a>
</g>
</g>
<!-- Node1&#45;&gt;Node2 -->
<g id="edge1" class="edge">
<title>Node1&#45;&gt;Node2</title>
<path fill="none" stroke="#63b8ff" d="M160.32,-62.82C168.28,-63.85 176.38,-64.91 184.36,-65.95"/>
<polygon fill="#63b8ff" stroke="#63b8ff" points="183.68,-69.39 194.05,-67.21 184.59,-62.44 183.68,-69.39"/>
</g>
<!-- Node6 -->
<g id="node6" class="node">
<title>Node6</title>
<g id="a_node6"><a xlink:href="classsisi4s_1_1Algorithm.html#a5e80a507fac066ab5714b62364cabaaf" target="_top" xlink:title=" ">
<polygon fill="white" stroke="#666666" points="318.5,-43.5 214.5,-43.5 214.5,-13.5 318.5,-13.5 318.5,-43.5"/>
<text text-anchor="start" x="222.5" y="-31.5" font-family="Helvetica,sans-Serif" font-size="10.00">sisi4s::Algorithm::</text>
<text text-anchor="middle" x="266.5" y="-20.5" font-family="Helvetica,sans-Serif" font-size="10.00">getTextArgument</text>
</a>
</g>
</g>
<!-- Node1&#45;&gt;Node6 -->
<g id="edge5" class="edge">
<title>Node1&#45;&gt;Node6</title>
<path fill="none" stroke="#63b8ff" d="M160.32,-42.18C174.58,-40.33 189.27,-38.42 202.98,-36.63"/>
<polygon fill="#63b8ff" stroke="#63b8ff" points="203.27,-40.12 212.74,-35.36 202.37,-33.18 203.27,-40.12"/>
</g>
<!-- Node3 -->
<g id="node3" class="node">
<title>Node3</title>
<g id="a_node3"><a xlink:href="classsisi4s_1_1Algorithm.html#a1e53277220d32a33e20846267c253652" target="_top" xlink:title=" ">
<polygon fill="white" stroke="#666666" points="498.5,-67.5 394.5,-67.5 394.5,-37.5 498.5,-37.5 498.5,-67.5"/>
<text text-anchor="start" x="402.5" y="-55.5" font-family="Helvetica,sans-Serif" font-size="10.00">sisi4s::Algorithm::</text>
<text text-anchor="middle" x="446.5" y="-44.5" font-family="Helvetica,sans-Serif" font-size="10.00">getArgumentData</text>
</a>
</g>
</g>
<!-- Node2&#45;&gt;Node3 -->
<g id="edge2" class="edge">
<title>Node2&#45;&gt;Node3</title>
<path fill="none" stroke="#63b8ff" d="M337.34,-67.08C352.4,-65.05 368.22,-62.92 382.98,-60.93"/>
<polygon fill="#63b8ff" stroke="#63b8ff" points="383.08,-64.45 392.52,-59.64 382.15,-57.51 383.08,-64.45"/>
</g>
<!-- Node5 -->
<g id="node5" class="node">
<title>Node5</title>
<g id="a_node5"><a xlink:href="classsisi4s_1_1Data.html#a10819dce08cb4dd8d881b9fe02036d69" target="_top" xlink:title=" ">
<polygon fill="white" stroke="#666666" points="509,-105 384,-105 384,-86 509,-86 509,-105"/>
<text text-anchor="middle" x="446.5" y="-93" font-family="Helvetica,sans-Serif" font-size="10.00">sisi4s::Data::getName</text>
</a>
</g>
</g>
<!-- Node2&#45;&gt;Node5 -->
<g id="edge4" class="edge">
<title>Node2&#45;&gt;Node5</title>
<path fill="none" stroke="#63b8ff" d="M337.34,-83.95C348.81,-85.18 360.72,-86.45 372.27,-87.68"/>
<polygon fill="#63b8ff" stroke="#63b8ff" points="371.85,-91.16 382.16,-88.74 372.59,-84.2 371.85,-91.16"/>
</g>
<!-- Node4 -->
<g id="node4" class="node">
<title>Node4</title>
<g id="a_node4"><a xlink:href="classsisi4s_1_1Data.html#a5b4676e48b4f437d399587e6903f896a" target="_top" xlink:title=" ">
<polygon fill="white" stroke="#666666" points="651,-62 556,-62 556,-43 651,-43 651,-62"/>
<text text-anchor="middle" x="603.5" y="-50" font-family="Helvetica,sans-Serif" font-size="10.00">sisi4s::Data::get</text>
</a>
</g>
</g>
<!-- Node3&#45;&gt;Node4 -->
<g id="edge3" class="edge">
<title>Node3&#45;&gt;Node4</title>
<path fill="none" stroke="#63b8ff" d="M498.68,-52.5C513.3,-52.5 529.33,-52.5 544.33,-52.5"/>
<polygon fill="#63b8ff" stroke="#63b8ff" points="544.05,-56 554.05,-52.5 544.05,-49 544.05,-56"/>
</g>
<!-- Node6&#45;&gt;Node3 -->
<g id="edge6" class="edge">
<title>Node6&#45;&gt;Node3</title>
<path fill="none" stroke="#63b8ff" d="M318.98,-35.44C338.91,-38.13 361.91,-41.23 382.78,-44.04"/>
<polygon fill="#63b8ff" stroke="#63b8ff" points="382.25,-47.5 392.63,-45.37 383.19,-40.57 382.25,-47.5"/>
</g>
<!-- Node7 -->
<g id="node7" class="node">
<title>Node7</title>
<g id="a_node7"><a xlink:href="classsisi4s_1_1Data.html#a0ec0b1c7f2356fd43d82ee1dd0246789" target="_top" xlink:title=" ">
<polygon fill="white" stroke="#666666" points="520,-19 373,-19 373,0 520,0 520,-19"/>
<text text-anchor="middle" x="446.5" y="-7" font-family="Helvetica,sans-Serif" font-size="10.00">sisi4s::Data::getTypeName</text>
</a>
</g>
</g>
<!-- Node6&#45;&gt;Node7 -->
<g id="edge7" class="edge">
<title>Node6&#45;&gt;Node7</title>
<path fill="none" stroke="#63b8ff" d="M318.98,-23C332.32,-21.58 347.03,-20.01 361.57,-18.46"/>
<polygon fill="#63b8ff" stroke="#63b8ff" points="361.54,-21.98 371.11,-17.44 360.8,-15.02 361.54,-21.98"/>
</g>
</g>
</svg>
