<?xml version="1.0" encoding="UTF-8" standalone="no"?>
<!DOCTYPE svg PUBLIC "-//W3C//DTD SVG 1.1//EN"
 "http://www.w3.org/Graphics/SVG/1.1/DTD/svg11.dtd">
<!-- Generated by graphviz version 7.0.0 (0)
 -->
<!-- Title: sisi4s::ParticleHoleCoulombVertexReader::dryRun Pages: 1 -->
<svg width="651pt" height="113pt"
 viewBox="0.00 0.00 651.00 113.00" xmlns="http://www.w3.org/2000/svg" xmlns:xlink="http://www.w3.org/1999/xlink">
<g id="graph0" class="graph" transform="scale(1 1) rotate(0) translate(4 109)">
<title>sisi4s::ParticleHoleCoulombVertexReader::dryRun</title>
<!-- Node1 -->
<g id="node1" class="node">
<title>Node1</title>
<g id="a_node1"><a xlink:title="Performs a dry run on reading the binary Coulomb vertex file from disk. Only the header information i...">
<polygon fill="#999999" stroke="#666666" points="152,-67.5 0,-67.5 0,-37.5 152,-37.5 152,-67.5"/>
<text text-anchor="start" x="8" y="-55.5" font-family="Helvetica,sans-Serif" font-size="10.00">sisi4s::ParticleHoleCoulomb</text>
<text text-anchor="middle" x="76" y="-44.5" font-family="Helvetica,sans-Serif" font-size="10.00">VertexReader::dryRun</text>
</a>
</g>
</g>
<!-- Node2 -->
<g id="node2" class="node">
<title>Node2</title>
<g id="a_node2"><a xlink:href="classsisi4s_1_1Algorithm.html#a388052a12509b8b641f17bbe8d41f8f3" target="_top" xlink:title="Specifies the location of an output tensor data.">
<polygon fill="white" stroke="#666666" points="329,-91.5 188,-91.5 188,-61.5 329,-61.5 329,-91.5"/>
<text text-anchor="start" x="196" y="-79.5" font-family="Helvetica,sans-Serif" font-size="10.00">sisi4s::Algorithm::</text>
<text text-anchor="middle" x="258.5" y="-68.5" font-family="Helvetica,sans-Serif" font-size="10.00">allocatedTensorArgument</text>
</a>
</g>
</g>
<!-- Node1&#45;&gt;Node2 -->
<g id="edge1" class="edge">
<title>Node1&#45;&gt;Node2</title>
<path fill="none" stroke="#63b8ff" d="M152.24,-62.5C160.2,-63.56 168.31,-64.64 176.33,-65.71"/>
<polygon fill="#63b8ff" stroke="#63b8ff" points="175.7,-69.15 186.08,-67 176.63,-62.22 175.7,-69.15"/>
</g>
<!-- Node6 -->
<g id="node6" class="node">
<title>Node6</title>
<g id="a_node6"><a xlink:href="classsisi4s_1_1Algorithm.html#a5e80a507fac066ab5714b62364cabaaf" target="_top" xlink:title=" ">
<polygon fill="white" stroke="#666666" points="310.5,-43.5 206.5,-43.5 206.5,-13.5 310.5,-13.5 310.5,-43.5"/>
<text text-anchor="start" x="214.5" y="-31.5" font-family="Helvetica,sans-Serif" font-size="10.00">sisi4s::Algorithm::</text>
<text text-anchor="middle" x="258.5" y="-20.5" font-family="Helvetica,sans-Serif" font-size="10.00">getTextArgument</text>
</a>
</g>
</g>
<!-- Node1&#45;&gt;Node6 -->
<g id="edge5" class="edge">
<title>Node1&#45;&gt;Node6</title>
<path fill="none" stroke="#63b8ff" d="M152.24,-42.5C166.45,-40.61 181.17,-38.65 194.93,-36.82"/>
<polygon fill="#63b8ff" stroke="#63b8ff" points="195.29,-40.3 204.74,-35.51 194.37,-33.36 195.29,-40.3"/>
</g>
<!-- Node3 -->
<g id="node3" class="node">
<title>Node3</title>
<g id="a_node3"><a xlink:href="classsisi4s_1_1Algorithm.html#a1e53277220d32a33e20846267c253652" target="_top" xlink:title=" ">
<polygon fill="white" stroke="#666666" points="490.5,-67.5 386.5,-67.5 386.5,-37.5 490.5,-37.5 490.5,-67.5"/>
<text text-anchor="start" x="394.5" y="-55.5" font-family="Helvetica,sans-Serif" font-size="10.00">sisi4s::Algorithm::</text>
<text text-anchor="middle" x="438.5" y="-44.5" font-family="Helvetica,sans-Serif" font-size="10.00">getArgumentData</text>
</a>
</g>
</g>
<!-- Node2&#45;&gt;Node3 -->
<g id="edge2" class="edge">
<title>Node2&#45;&gt;Node3</title>
<path fill="none" stroke="#63b8ff" d="M329.34,-67.08C344.4,-65.05 360.22,-62.92 374.98,-60.93"/>
<polygon fill="#63b8ff" stroke="#63b8ff" points="375.08,-64.45 384.52,-59.64 374.15,-57.51 375.08,-64.45"/>
</g>
<!-- Node5 -->
<g id="node5" class="node">
<title>Node5</title>
<g id="a_node5"><a xlink:href="classsisi4s_1_1Data.html#a10819dce08cb4dd8d881b9fe02036d69" target="_top" xlink:title=" ">
<polygon fill="white" stroke="#666666" points="501,-105 376,-105 376,-86 501,-86 501,-105"/>
<text text-anchor="middle" x="438.5" y="-93" font-family="Helvetica,sans-Serif" font-size="10.00">sisi4s::Data::getName</text>
</a>
</g>
</g>
<!-- Node2&#45;&gt;Node5 -->
<g id="edge4" class="edge">
<title>Node2&#45;&gt;Node5</title>
<path fill="none" stroke="#63b8ff" d="M329.34,-83.95C340.81,-85.18 352.72,-86.45 364.27,-87.68"/>
<polygon fill="#63b8ff" stroke="#63b8ff" points="363.85,-91.16 374.16,-88.74 364.59,-84.2 363.85,-91.16"/>
</g>
<!-- Node4 -->
<g id="node4" class="node">
<title>Node4</title>
<g id="a_node4"><a xlink:href="classsisi4s_1_1Data.html#a5b4676e48b4f437d399587e6903f896a" target="_top" xlink:title=" ">
<polygon fill="white" stroke="#666666" points="643,-62 548,-62 548,-43 643,-43 643,-62"/>
<text text-anchor="middle" x="595.5" y="-50" font-family="Helvetica,sans-Serif" font-size="10.00">sisi4s::Data::get</text>
</a>
</g>
</g>
<!-- Node3&#45;&gt;Node4 -->
<g id="edge3" class="edge">
<title>Node3&#45;&gt;Node4</title>
<path fill="none" stroke="#63b8ff" d="M490.68,-52.5C505.3,-52.5 521.33,-52.5 536.33,-52.5"/>
<polygon fill="#63b8ff" stroke="#63b8ff" points="536.05,-56 546.05,-52.5 536.05,-49 536.05,-56"/>
</g>
<!-- Node6&#45;&gt;Node3 -->
<g id="edge6" class="edge">
<title>Node6&#45;&gt;Node3</title>
<path fill="none" stroke="#63b8ff" d="M310.98,-35.44C330.91,-38.13 353.91,-41.23 374.78,-44.04"/>
<polygon fill="#63b8ff" stroke="#63b8ff" points="374.25,-47.5 384.63,-45.37 375.19,-40.57 374.25,-47.5"/>
</g>
<!-- Node7 -->
<g id="node7" class="node">
<title>Node7</title>
<g id="a_node7"><a xlink:href="classsisi4s_1_1Data.html#a0ec0b1c7f2356fd43d82ee1dd0246789" target="_top" xlink:title=" ">
<polygon fill="white" stroke="#666666" points="512,-19 365,-19 365,0 512,0 512,-19"/>
<text text-anchor="middle" x="438.5" y="-7" font-family="Helvetica,sans-Serif" font-size="10.00">sisi4s::Data::getTypeName</text>
</a>
</g>
</g>
<!-- Node6&#45;&gt;Node7 -->
<g id="edge7" class="edge">
<title>Node6&#45;&gt;Node7</title>
<path fill="none" stroke="#63b8ff" d="M310.98,-23C324.32,-21.58 339.03,-20.01 353.57,-18.46"/>
<polygon fill="#63b8ff" stroke="#63b8ff" points="353.54,-21.98 363.11,-17.44 352.8,-15.02 353.54,-21.98"/>
</g>
</g>
</svg>
