<?xml version="1.0" encoding="UTF-8" standalone="no"?>
<!DOCTYPE svg PUBLIC "-//W3C//DTD SVG 1.1//EN"
 "http://www.w3.org/Graphics/SVG/1.1/DTD/svg11.dtd">
<!-- Generated by graphviz version 5.0.1 (0)
 -->
<!-- Title: sisi4s::ComplexTensorContraction Pages: 1 -->
<svg width="536pt" height="556pt"
 viewBox="0.00 0.00 536.00 556.00" xmlns="http://www.w3.org/2000/svg" xmlns:xlink="http://www.w3.org/1999/xlink">
<g id="graph0" class="graph" transform="scale(1 1) rotate(0) translate(4 552)">
<title>sisi4s::ComplexTensorContraction</title>
<!-- Node1 -->
<g id="node1" class="node">
<title>Node1</title>
<g id="a_node1"><a xlink:title=" ">
<polygon fill="#999999" stroke="#666666" points="244,-85 56,-85 56,0 244,0 244,-85"/>
<text text-anchor="middle" x="150" y="-73" font-family="Helvetica,sans-Serif" font-size="10.00">{sisi4s::ComplexTensorContraction</text>
<text text-anchor="start" x="64" y="-62" font-family="Helvetica,sans-Serif" font-size="10.00">||+ getName()</text>
<text text-anchor="start" x="64" y="-51" font-family="Helvetica,sans-Serif" font-size="10.00">+ ComplexTensorContraction()</text>
<text text-anchor="start" x="64" y="-40" font-family="Helvetica,sans-Serif" font-size="10.00">+ ~ComplexTensorContraction()</text>
<text text-anchor="start" x="64" y="-29" font-family="Helvetica,sans-Serif" font-size="10.00">+ run()</text>
<text text-anchor="start" x="64" y="-18" font-family="Helvetica,sans-Serif" font-size="10.00">+ create()</text>
<text text-anchor="middle" x="150" y="-7" font-family="Helvetica,sans-Serif" font-size="10.00">}</text>
</a>
</g>
</g>
<!-- Node2 -->
<g id="node2" class="node">
<title>Node2</title>
<g id="a_node2"><a xlink:href="classsisi4s_1_1Algorithm.html" target="_top" xlink:title=" ">
<polygon fill="white" stroke="#666666" points="180,-338 0,-338 0,-132 180,-132 180,-338"/>
<text text-anchor="middle" x="90" y="-326" font-family="Helvetica,sans-Serif" font-size="10.00">{sisi4s::Algorithm</text>
<text text-anchor="start" x="8" y="-315" font-family="Helvetica,sans-Serif" font-size="10.00">|# arguments</text>
<text text-anchor="start" x="8" y="-304" font-family="Helvetica,sans-Serif" font-size="10.00">|+ Algorithm()</text>
<text text-anchor="start" x="8" y="-293" font-family="Helvetica,sans-Serif" font-size="10.00">+ ~Algorithm()</text>
<text text-anchor="start" x="8" y="-282" font-family="Helvetica,sans-Serif" font-size="10.00">+ getName()</text>
<text text-anchor="start" x="8" y="-271" font-family="Helvetica,sans-Serif" font-size="10.00">+ run()</text>
<text text-anchor="start" x="8" y="-260" font-family="Helvetica,sans-Serif" font-size="10.00">+ dryRun()</text>
<text text-anchor="start" x="8" y="-249" font-family="Helvetica,sans-Serif" font-size="10.00">+ isArgumentGiven()</text>
<text text-anchor="start" x="8" y="-238" font-family="Helvetica,sans-Serif" font-size="10.00">+ getTextArgument()</text>
<text text-anchor="start" x="8" y="-227" font-family="Helvetica,sans-Serif" font-size="10.00">+ getTextArgument()</text>
<text text-anchor="start" x="8" y="-216" font-family="Helvetica,sans-Serif" font-size="10.00">+ getBooleanArgument()</text>
<text text-anchor="start" x="8" y="-205" font-family="Helvetica,sans-Serif" font-size="10.00">+ getBooleanArgument()</text>
<text text-anchor="start" x="8" y="-194" font-family="Helvetica,sans-Serif" font-size="10.00">and 12 more...</text>
<text text-anchor="start" x="8" y="-183" font-family="Helvetica,sans-Serif" font-size="10.00"># getRealArgumentFromInteger()</text>
<text text-anchor="start" x="8" y="-172" font-family="Helvetica,sans-Serif" font-size="10.00"># getRealArgumentFromTensor()</text>
<text text-anchor="start" x="8" y="-161" font-family="Helvetica,sans-Serif" font-size="10.00"># getTensorArgumentFromReal()</text>
<text text-anchor="start" x="8" y="-150" font-family="Helvetica,sans-Serif" font-size="10.00"># getArgumentData()</text>
<text text-anchor="middle" x="90" y="-139" font-family="Helvetica,sans-Serif" font-size="10.00">}</text>
</a>
</g>
</g>
<!-- Node2&#45;&gt;Node1 -->
<g id="edge1" class="edge">
<title>Node2&#45;&gt;Node1</title>
<path fill="none" stroke="#63b8ff" d="M125.21,-122.21C129.33,-109.14 133.3,-96.51 136.83,-85.33"/>
<polygon fill="none" stroke="#63b8ff" points="121.86,-121.19 122.2,-131.78 128.54,-123.29 121.86,-121.19"/>
</g>
<!-- Node3 -->
<g id="node3" class="node">
<title>Node3</title>
<g id="a_node3"><a xlink:href="classsisi4s_1_1AlgorithmRegistrar.html" target="_top" xlink:title=" ">
<polygon fill="white" stroke="#666666" points="402,-261 198,-261 198,-209 402,-209 402,-261"/>
<text text-anchor="start" x="206" y="-249" font-family="Helvetica,sans-Serif" font-size="10.00">{sisi4s::AlgorithmRegistrar</text>
<text text-anchor="middle" x="300" y="-238" font-family="Helvetica,sans-Serif" font-size="10.00">&lt; sisi4s::ComplexTensorContraction &gt;</text>
<text text-anchor="start" x="206" y="-227" font-family="Helvetica,sans-Serif" font-size="10.00">||+ AlgorithmRegistrar()</text>
<text text-anchor="middle" x="300" y="-216" font-family="Helvetica,sans-Serif" font-size="10.00">}</text>
</a>
</g>
</g>
<!-- Node3&#45;&gt;Node1 -->
<g id="edge2" class="edge">
<title>Node3&#45;&gt;Node1</title>
<path fill="none" stroke="#404040" d="M280.08,-208.7C257.33,-179.81 219.51,-131.77 190.49,-94.93"/>
<polygon fill="none" stroke="#404040" points="190.37,-94.77 183.51,-92.53 182.94,-85.34 189.8,-87.58 190.37,-94.77"/>
<text text-anchor="middle" x="231" y="-106" font-family="Helvetica,sans-Serif" font-size="10.00"> +registrar_</text>
</g>
<!-- Node4 -->
<g id="node4" class="node">
<title>Node4</title>
<g id="a_node4"><a xlink:href="classsisi4s_1_1AlgorithmFactory.html" target="_top" xlink:title=" ">
<polygon fill="white" stroke="#666666" points="331,-548 191,-548 191,-474 331,-474 331,-548"/>
<text text-anchor="middle" x="261" y="-536" font-family="Helvetica,sans-Serif" font-size="10.00">{sisi4s::AlgorithmFactory</text>
<text text-anchor="start" x="199" y="-525" font-family="Helvetica,sans-Serif" font-size="10.00">|# algorithmMap</text>
<text text-anchor="start" x="199" y="-514" font-family="Helvetica,sans-Serif" font-size="10.00">|+ create()</text>
<text text-anchor="start" x="199" y="-503" font-family="Helvetica,sans-Serif" font-size="10.00">+ getAlgorithmNames()</text>
<text text-anchor="start" x="199" y="-492" font-family="Helvetica,sans-Serif" font-size="10.00"># getAlgorithmMap()</text>
<text text-anchor="middle" x="261" y="-481" font-family="Helvetica,sans-Serif" font-size="10.00">}</text>
</a>
</g>
</g>
<!-- Node4&#45;&gt;Node3 -->
<g id="edge3" class="edge">
<title>Node4&#45;&gt;Node3</title>
<path fill="none" stroke="darkgreen" d="M261.88,-463.66C262.76,-440.03 264.52,-410.89 268,-385 273.93,-340.95 285.86,-290.55 293.36,-261.1"/>
<polygon fill="none" stroke="darkgreen" points="258.38,-463.65 261.54,-473.76 265.37,-463.88 258.38,-463.65"/>
</g>
<!-- Node5 -->
<g id="node5" class="node">
<title>Node5</title>
<g id="a_node5"><a xlink:href="classsisi4s_1_1AlgorithmRegistrar.html" target="_top" xlink:title="Class to be statically instantiated by an algorithm to register it in the AlgorithmFactory....">
<polygon fill="white" stroke="#666666" points="425.5,-437 276.5,-437 276.5,-385 425.5,-385 425.5,-437"/>
<text text-anchor="start" x="284.5" y="-425" font-family="Helvetica,sans-Serif" font-size="10.00">{sisi4s::AlgorithmRegistrar</text>
<text text-anchor="middle" x="351" y="-414" font-family="Helvetica,sans-Serif" font-size="10.00">&lt; AlgorithmType &gt;</text>
<text text-anchor="start" x="284.5" y="-403" font-family="Helvetica,sans-Serif" font-size="10.00">||+ AlgorithmRegistrar()</text>
<text text-anchor="middle" x="351" y="-392" font-family="Helvetica,sans-Serif" font-size="10.00">}</text>
</a>
</g>
</g>
<!-- Node4&#45;&gt;Node5 -->
<g id="edge5" class="edge">
<title>Node4&#45;&gt;Node5</title>
<path fill="none" stroke="darkgreen" d="M301.2,-466.23C310.37,-456.24 319.82,-445.95 327.98,-437.06"/>
<polygon fill="none" stroke="darkgreen" points="298.44,-464.05 294.26,-473.79 303.6,-468.79 298.44,-464.05"/>
</g>
<!-- Node5&#45;&gt;Node3 -->
<g id="edge4" class="edge">
<title>Node5&#45;&gt;Node3</title>
<path fill="none" stroke="orange" d="M340.68,-374.79C330.78,-341.03 316.1,-290.92 307.34,-261.05"/>
<polygon fill="orange" stroke="orange" points="337.41,-376.09 343.58,-384.7 344.13,-374.12 337.41,-376.09"/>
<text text-anchor="middle" x="432.5" y="-359" font-family="Helvetica,sans-Serif" font-size="10.00"> &lt; sisi4s::ComplexTensorContraction &gt;</text>
</g>
</g>
</svg>
