<?xml version="1.0" encoding="UTF-8" standalone="no"?>
<!DOCTYPE svg PUBLIC "-//W3C//DTD SVG 1.1//EN"
 "http://www.w3.org/Graphics/SVG/1.1/DTD/svg11.dtd">
<!-- Generated by graphviz version 9.0.0 (0)
 -->
<!-- Title: CLI::Validator::non_modifying Pages: 1 -->
<svg width="577pt" height="87pt"
 viewBox="0.00 0.00 576.75 86.75" xmlns="http://www.w3.org/2000/svg" xmlns:xlink="http://www.w3.org/1999/xlink">
<g id="graph0" class="graph" transform="scale(1 1) rotate(0) translate(4 82.75)">
<title>CLI::Validator::non_modifying</title>
<!-- Node1 -->
<g id="Node000001" class="node">
<title>Node1</title>
<g id="a_Node000001"><a xlink:title="Specify whether the Validator can be modifying or not.">
<polygon fill="#999999" stroke="#666666" points="568.75,-65.12 464.25,-65.12 464.25,-31.62 568.75,-31.62 568.75,-65.12"/>
<text text-anchor="start" x="472.25" y="-51.62" font-family="Helvetica,sans-Serif" font-size="10.00">CLI::Validator::non</text>
<text text-anchor="middle" x="516.5" y="-38.88" font-family="Helvetica,sans-Serif" font-size="10.00">_modifying</text>
</a>
</g>
</g>
<!-- Node2 -->
<g id="Node000002" class="node">
<title>Node2</title>
<g id="a_Node000002"><a xlink:href="classCLI_1_1Option.html#ae94ff5bfc6549f9c86aff629be829353" target="_top" xlink:title="Adds a Validator with a built in type name.">
<polygon fill="white" stroke="#666666" points="428.25,-58.75 324.5,-58.75 324.5,-38 428.25,-38 428.25,-58.75"/>
<text text-anchor="middle" x="376.38" y="-45.25" font-family="Helvetica,sans-Serif" font-size="10.00">CLI::Option::check</text>
</a>
</g>
</g>
<!-- Node1&#45;&gt;Node2 -->
<g id="edge1_Node000001_Node000002" class="edge">
<title>Node1&#45;&gt;Node2</title>
<g id="a_edge1_Node000001_Node000002"><a xlink:title=" ">
<path fill="none" stroke="#63b8ff" d="M452.69,-48.38C444.56,-48.38 436.3,-48.38 428.39,-48.38"/>
<polygon fill="#63b8ff" stroke="#63b8ff" points="452.55,-51.88 462.55,-48.38 452.55,-44.88 452.55,-51.88"/>
</a>
</g>
</g>
<!-- Node3 -->
<g id="Node000003" class="node">
<title>Node3</title>
<g id="a_Node000003"><a xlink:href="structsisi4s_1_1Options.html#a6683d7ed27952a4813bb0fae54e17cc0" target="_top" xlink:title=" ">
<polygon fill="white" stroke="#666666" points="288.5,-78.75 157.75,-78.75 157.75,-58 288.5,-58 288.5,-78.75"/>
<text text-anchor="middle" x="223.12" y="-65.25" font-family="Helvetica,sans-Serif" font-size="10.00">sisi4s::Options::Options</text>
</a>
</g>
</g>
<!-- Node2&#45;&gt;Node3 -->
<g id="edge2_Node000002_Node000003" class="edge">
<title>Node2&#45;&gt;Node3</title>
<g id="a_edge2_Node000002_Node000003"><a xlink:title=" ">
<path fill="none" stroke="#63b8ff" d="M312.81,-56.65C304.93,-57.69 296.86,-58.76 288.95,-59.8"/>
<polygon fill="#63b8ff" stroke="#63b8ff" points="313.21,-60.13 322.67,-55.34 312.3,-53.19 313.21,-60.13"/>
</a>
</g>
</g>
<!-- Node4 -->
<g id="Node000004" class="node">
<title>Node4</title>
<g id="a_Node000004"><a xlink:href="namespaceCLI.html#a6cb6f8bfff8c49385fb24f6f23a23c21" target="_top" xlink:title="Helper function to mark an option as deprecated.">
<polygon fill="white" stroke="#666666" points="284,-39.75 162.25,-39.75 162.25,-19 284,-19 284,-39.75"/>
<text text-anchor="middle" x="223.12" y="-26.25" font-family="Helvetica,sans-Serif" font-size="10.00">CLI::deprecate_option</text>
</a>
</g>
</g>
<!-- Node2&#45;&gt;Node4 -->
<g id="edge3_Node000002_Node000004" class="edge">
<title>Node2&#45;&gt;Node4</title>
<g id="a_edge3_Node000002_Node000004"><a xlink:title=" ">
<path fill="none" stroke="#63b8ff" d="M312.88,-40.52C303.47,-39.34 293.78,-38.13 284.43,-36.95"/>
<polygon fill="#63b8ff" stroke="#63b8ff" points="312.31,-43.98 322.67,-41.75 313.18,-37.03 312.31,-43.98"/>
</a>
</g>
</g>
<!-- Node5 -->
<g id="Node000005" class="node">
<title>Node5</title>
<g id="a_Node000005"><a xlink:href="namespaceCLI.html#a5e83d92a6ec271c2439141feaede1136" target="_top" xlink:title="Helper function to mark an option as deprecated.">
<polygon fill="white" stroke="#666666" points="121.75,-59.75 0,-59.75 0,-39 121.75,-39 121.75,-59.75"/>
<text text-anchor="middle" x="60.88" y="-46.25" font-family="Helvetica,sans-Serif" font-size="10.00">CLI::deprecate_option</text>
</a>
</g>
</g>
<!-- Node4&#45;&gt;Node5 -->
<g id="edge4_Node000004_Node000005" class="edge">
<title>Node4&#45;&gt;Node5</title>
<g id="a_edge4_Node000004_Node000005"><a xlink:title=" ">
<path fill="none" stroke="#63b8ff" d="M150.84,-38.27C141.23,-39.47 131.46,-40.69 122.07,-41.86"/>
<polygon fill="#63b8ff" stroke="#63b8ff" points="151.01,-41.78 160.5,-37.07 150.14,-34.83 151.01,-41.78"/>
</a>
</g>
</g>
<!-- Node6 -->
<g id="Node000006" class="node">
<title>Node6</title>
<g id="a_Node000006"><a xlink:href="namespaceCLI.html#ad6d89b5d1aba2ebdca5f94534d658cab" target="_top" xlink:title="Helper function to mark an option as deprecated.">
<polygon fill="white" stroke="#666666" points="121.75,-20.75 0,-20.75 0,0 121.75,0 121.75,-20.75"/>
<text text-anchor="middle" x="60.88" y="-7.25" font-family="Helvetica,sans-Serif" font-size="10.00">CLI::deprecate_option</text>
</a>
</g>
</g>
<!-- Node4&#45;&gt;Node6 -->
<g id="edge5_Node000004_Node000006" class="edge">
<title>Node4&#45;&gt;Node6</title>
<g id="a_edge5_Node000004_Node000006"><a xlink:title=" ">
<path fill="none" stroke="#63b8ff" d="M150.84,-20.92C141.23,-19.78 131.46,-18.63 122.07,-17.51"/>
<polygon fill="#63b8ff" stroke="#63b8ff" points="150.15,-24.37 160.49,-22.07 150.98,-17.41 150.15,-24.37"/>
</a>
</g>
</g>
</g>
</svg>
