<?xml version="1.0" encoding="UTF-8" standalone="no"?>
<!DOCTYPE svg PUBLIC "-//W3C//DTD SVG 1.1//EN"
 "http://www.w3.org/Graphics/SVG/1.1/DTD/svg11.dtd">
<!-- Generated by graphviz version 5.0.1 (0)
 -->
<!-- Title: sisi4s::CcsdPerturbativeTriplesComplex Pages: 1 -->
<svg width="475pt" height="624pt"
 viewBox="0.00 0.00 475.00 624.00" xmlns="http://www.w3.org/2000/svg" xmlns:xlink="http://www.w3.org/1999/xlink">
<g id="graph0" class="graph" transform="scale(1 1) rotate(0) translate(4 620)">
<title>sisi4s::CcsdPerturbativeTriplesComplex</title>
<!-- Node1 -->
<g id="node1" class="node">
<title>Node1</title>
<g id="a_node1"><a xlink:title="Caclulates perturbative triples correction.">
<polygon fill="#bfbfbf" stroke="black" points="9,-0.5 9,-123.5 203,-123.5 203,-0.5 9,-0.5"/>
<text text-anchor="start" x="17" y="-111.5" font-family="Helvetica,sans-Serif" font-size="10.00">sisi4s::CcsdPerturbative</text>
<text text-anchor="middle" x="106" y="-100.5" font-family="Helvetica,sans-Serif" font-size="10.00">TriplesComplex</text>
<polyline fill="none" stroke="black" points="9,-93.5 203,-93.5"/>
<text text-anchor="middle" x="106" y="-81.5" font-family="Helvetica,sans-Serif" font-size="10.00"> </text>
<polyline fill="none" stroke="black" points="9,-74.5 203,-74.5"/>
<text text-anchor="start" x="17" y="-62.5" font-family="Helvetica,sans-Serif" font-size="10.00">+ getName()</text>
<text text-anchor="start" x="17" y="-51.5" font-family="Helvetica,sans-Serif" font-size="10.00">+ CcsdPerturbativeTriplesComplex()</text>
<text text-anchor="start" x="17" y="-40.5" font-family="Helvetica,sans-Serif" font-size="10.00">+ ~CcsdPerturbativeTriples</text>
<text text-anchor="start" x="17" y="-29.5" font-family="Helvetica,sans-Serif" font-size="10.00">Complex()</text>
<text text-anchor="start" x="17" y="-18.5" font-family="Helvetica,sans-Serif" font-size="10.00">+ run()</text>
<text text-anchor="start" x="17" y="-7.5" font-family="Helvetica,sans-Serif" font-size="10.00">+ dryRun()</text>
</a>
</g>
</g>
<!-- Node2 -->
<g id="node2" class="node">
<title>Node2</title>
<g id="a_node2"><a xlink:href="classsisi4s_1_1Algorithm.html" target="_top" xlink:title=" ">
<polygon fill="none" stroke="black" points="0,-171.5 0,-382.5 180,-382.5 180,-171.5 0,-171.5"/>
<text text-anchor="middle" x="90" y="-370.5" font-family="Helvetica,sans-Serif" font-size="10.00">sisi4s::Algorithm</text>
<polyline fill="none" stroke="black" points="0,-363.5 180,-363.5"/>
<text text-anchor="start" x="8" y="-351.5" font-family="Helvetica,sans-Serif" font-size="10.00"># arguments</text>
<polyline fill="none" stroke="black" points="0,-344.5 180,-344.5"/>
<text text-anchor="start" x="8" y="-332.5" font-family="Helvetica,sans-Serif" font-size="10.00">+ Algorithm()</text>
<text text-anchor="start" x="8" y="-321.5" font-family="Helvetica,sans-Serif" font-size="10.00">+ ~Algorithm()</text>
<text text-anchor="start" x="8" y="-310.5" font-family="Helvetica,sans-Serif" font-size="10.00">+ getName()</text>
<text text-anchor="start" x="8" y="-299.5" font-family="Helvetica,sans-Serif" font-size="10.00">+ run()</text>
<text text-anchor="start" x="8" y="-288.5" font-family="Helvetica,sans-Serif" font-size="10.00">+ dryRun()</text>
<text text-anchor="start" x="8" y="-277.5" font-family="Helvetica,sans-Serif" font-size="10.00">+ isArgumentGiven()</text>
<text text-anchor="start" x="8" y="-266.5" font-family="Helvetica,sans-Serif" font-size="10.00">+ getTextArgument()</text>
<text text-anchor="start" x="8" y="-255.5" font-family="Helvetica,sans-Serif" font-size="10.00">+ getTextArgument()</text>
<text text-anchor="start" x="8" y="-244.5" font-family="Helvetica,sans-Serif" font-size="10.00">+ getBooleanArgument()</text>
<text text-anchor="start" x="8" y="-233.5" font-family="Helvetica,sans-Serif" font-size="10.00">+ getBooleanArgument()</text>
<text text-anchor="start" x="8" y="-222.5" font-family="Helvetica,sans-Serif" font-size="10.00">and 12 more...</text>
<text text-anchor="start" x="8" y="-211.5" font-family="Helvetica,sans-Serif" font-size="10.00"># getRealArgumentFromInteger()</text>
<text text-anchor="start" x="8" y="-200.5" font-family="Helvetica,sans-Serif" font-size="10.00"># getRealArgumentFromTensor()</text>
<text text-anchor="start" x="8" y="-189.5" font-family="Helvetica,sans-Serif" font-size="10.00"># getTensorArgumentFromReal()</text>
<text text-anchor="start" x="8" y="-178.5" font-family="Helvetica,sans-Serif" font-size="10.00"># getArgumentData()</text>
</a>
</g>
</g>
<!-- Node2&#45;&gt;Node1 -->
<g id="edge1" class="edge">
<title>Node2&#45;&gt;Node1</title>
<path fill="none" stroke="midnightblue" d="M98.61,-161.38C99.59,-148.33 100.56,-135.45 101.45,-123.52"/>
<polygon fill="none" stroke="midnightblue" points="95.12,-161.14 97.86,-171.37 102.1,-161.66 95.12,-161.14"/>
</g>
<!-- Node3 -->
<g id="node3" class="node">
<title>Node3</title>
<g id="a_node3"><a xlink:href="classsisi4s_1_1AlgorithmRegistrar.html" target="_top" xlink:title=" ">
<polygon fill="none" stroke="black" points="198,-237.5 198,-316.5 374,-316.5 374,-237.5 198,-237.5"/>
<text text-anchor="start" x="206" y="-304.5" font-family="Helvetica,sans-Serif" font-size="10.00">sisi4s::AlgorithmRegistrar</text>
<text text-anchor="start" x="206" y="-293.5" font-family="Helvetica,sans-Serif" font-size="10.00">&lt; sisi4s::CcsdPerturbativeTriples</text>
<text text-anchor="middle" x="286" y="-282.5" font-family="Helvetica,sans-Serif" font-size="10.00">Complex &gt;</text>
<polyline fill="none" stroke="black" points="198,-275.5 374,-275.5"/>
<text text-anchor="middle" x="286" y="-263.5" font-family="Helvetica,sans-Serif" font-size="10.00"> </text>
<polyline fill="none" stroke="black" points="198,-256.5 374,-256.5"/>
<text text-anchor="start" x="206" y="-244.5" font-family="Helvetica,sans-Serif" font-size="10.00">+ AlgorithmRegistrar()</text>
</a>
</g>
</g>
<!-- Node3&#45;&gt;Node1 -->
<g id="edge2" class="edge">
<title>Node3&#45;&gt;Node1</title>
<path fill="none" stroke="#404040" d="M253.4,-237.43C228.96,-208.5 194.81,-168.09 165.54,-133.45"/>
<polygon fill="none" stroke="#404040" points="165.17,-133.02 158.24,-131.01 157.42,-123.85 164.35,-125.85 165.17,-133.02"/>
<text text-anchor="middle" x="209" y="-145" font-family="Helvetica,sans-Serif" font-size="10.00"> +registrar_</text>
</g>
<!-- Node4 -->
<g id="node4" class="node">
<title>Node4</title>
<g id="a_node4"><a xlink:href="classsisi4s_1_1AlgorithmFactory.html" target="_top" xlink:title=" ">
<polygon fill="none" stroke="black" points="198,-547.5 198,-615.5 332,-615.5 332,-547.5 198,-547.5"/>
<text text-anchor="middle" x="265" y="-603.5" font-family="Helvetica,sans-Serif" font-size="10.00">sisi4s::AlgorithmFactory</text>
<polyline fill="none" stroke="black" points="198,-596.5 332,-596.5"/>
<text text-anchor="start" x="206" y="-584.5" font-family="Helvetica,sans-Serif" font-size="10.00"># algorithmMap</text>
<polyline fill="none" stroke="black" points="198,-577.5 332,-577.5"/>
<text text-anchor="start" x="206" y="-565.5" font-family="Helvetica,sans-Serif" font-size="10.00">+ create()</text>
<text text-anchor="start" x="206" y="-554.5" font-family="Helvetica,sans-Serif" font-size="10.00"># getAlgorithmMap()</text>
</a>
</g>
</g>
<!-- Node4&#45;&gt;Node3 -->
<g id="edge3" class="edge">
<title>Node4&#45;&gt;Node3</title>
<path fill="none" stroke="darkgreen" d="M266.78,-537.12C268.01,-509.58 269.81,-473.18 272,-441 274.9,-398.35 279.23,-349.51 282.3,-316.5"/>
<polygon fill="none" stroke="darkgreen" points="263.28,-537.08 266.34,-547.22 270.27,-537.38 263.28,-537.08"/>
</g>
<!-- Node5 -->
<g id="node5" class="node">
<title>Node5</title>
<g id="a_node5"><a xlink:href="classsisi4s_1_1AlgorithmRegistrar.html" target="_top" xlink:title="Class to be statically instantiated by an algorithm to register it in the AlgorithmFactory....">
<polygon fill="none" stroke="black" points="281.5,-441.5 281.5,-509.5 424.5,-509.5 424.5,-441.5 281.5,-441.5"/>
<text text-anchor="start" x="289.5" y="-497.5" font-family="Helvetica,sans-Serif" font-size="10.00">sisi4s::AlgorithmRegistrar</text>
<text text-anchor="middle" x="353" y="-486.5" font-family="Helvetica,sans-Serif" font-size="10.00">&lt; AlgorithmType &gt;</text>
<polyline fill="none" stroke="black" points="281.5,-479.5 424.5,-479.5"/>
<text text-anchor="middle" x="353" y="-467.5" font-family="Helvetica,sans-Serif" font-size="10.00"> </text>
<polyline fill="none" stroke="black" points="281.5,-460.5 424.5,-460.5"/>
<text text-anchor="start" x="289.5" y="-448.5" font-family="Helvetica,sans-Serif" font-size="10.00">+ AlgorithmRegistrar()</text>
</a>
</g>
</g>
<!-- Node4&#45;&gt;Node5 -->
<g id="edge5" class="edge">
<title>Node4&#45;&gt;Node5</title>
<path fill="none" stroke="darkgreen" d="M299.67,-539.53C308.03,-529.65 316.86,-519.21 324.88,-509.73"/>
<polygon fill="none" stroke="darkgreen" points="296.87,-537.41 293.09,-547.31 302.22,-541.93 296.87,-537.41"/>
</g>
<!-- Node5&#45;&gt;Node3 -->
<g id="edge4" class="edge">
<title>Node5&#45;&gt;Node3</title>
<path fill="none" stroke="orange" d="M338.31,-431.43C326.63,-397.15 310.41,-349.6 299.15,-316.56"/>
<polygon fill="orange" stroke="orange" points="335.09,-432.83 341.63,-441.17 341.72,-430.57 335.09,-432.83"/>
<text text-anchor="start" x="335" y="-415" font-family="Helvetica,sans-Serif" font-size="10.00"> &lt; sisi4s::CcsdPerturbative</text>
<text text-anchor="middle" x="401" y="-404" font-family="Helvetica,sans-Serif" font-size="10.00">TriplesComplex &gt;</text>
</g>
</g>
</svg>
