<?xml version="1.0" encoding="UTF-8" standalone="no"?>
<!DOCTYPE svg PUBLIC "-//W3C//DTD SVG 1.1//EN"
 "http://www.w3.org/Graphics/SVG/1.1/DTD/svg11.dtd">
<!-- Generated by graphviz version 8.1.0 (0)
 -->
<!-- Title: sisi4s::DryVector&lt; F &gt; Pages: 1 -->
<svg width="129pt" height="356pt"
 viewBox="0.00 0.00 129.00 356.00" xmlns="http://www.w3.org/2000/svg" xmlns:xlink="http://www.w3.org/1999/xlink">
<g id="graph0" class="graph" transform="scale(1 1) rotate(0) translate(4 352)">
<title>sisi4s::DryVector&lt; F &gt;</title>
<!-- Node1 -->
<g id="Node000001" class="node">
<title>Node1</title>
<g id="a_Node000001"><a xlink:title=" ">
<polygon fill="#999999" stroke="none" points="120.5,-52 0.5,-52 0.5,0 120.5,0 120.5,-52"/>
<text text-anchor="start" x="5.38" y="-38.5" font-family="Helvetica,sans-Serif" font-size="10.00">sisi4s::DryVector&lt; F &gt;</text>
<text text-anchor="start" x="59" y="-22.5" font-family="Helvetica,sans-Serif" font-size="10.00"> </text>
<text text-anchor="start" x="15.38" y="-6.5" font-family="Helvetica,sans-Serif" font-size="10.00">+</text>
<text text-anchor="start" x="38.5" y="-6.5" font-family="Helvetica,sans-Serif" font-size="10.00">DryVector()</text>
<polygon fill="#666666" stroke="#666666" points="0.5,-34 0.5,-34 120.5,-34 120.5,-34 0.5,-34"/>
<polygon fill="#666666" stroke="#666666" points="0.5,-18 0.5,-18 120.5,-18 120.5,-18 0.5,-18"/>
<polygon fill="none" stroke="#666666" points="0.5,0 0.5,-52 120.5,-52 120.5,0 0.5,0"/>
</a>
</g>
</g>
<!-- Node2 -->
<g id="Node000002" class="node">
<title>Node2</title>
<g id="a_Node000002"><a xlink:href="classsisi4s_1_1DryTensor.html" target="_top" xlink:title=" ">
<polygon fill="white" stroke="none" points="121,-348 0,-348 0,-88 121,-88 121,-348"/>
<text text-anchor="start" x="5" y="-334.5" font-family="Helvetica,sans-Serif" font-size="10.00">sisi4s::DryTensor&lt; F &gt;</text>
<text text-anchor="start" x="4.88" y="-318.5" font-family="Helvetica,sans-Serif" font-size="10.00">+</text>
<text text-anchor="start" x="18" y="-318.5" font-family="Helvetica,sans-Serif" font-size="10.00">order</text>
<text text-anchor="start" x="4.88" y="-302.5" font-family="Helvetica,sans-Serif" font-size="10.00">+</text>
<text text-anchor="start" x="18" y="-302.5" font-family="Helvetica,sans-Serif" font-size="10.00">lens</text>
<text text-anchor="start" x="4.88" y="-286.5" font-family="Helvetica,sans-Serif" font-size="10.00">+</text>
<text text-anchor="start" x="18" y="-286.5" font-family="Helvetica,sans-Serif" font-size="10.00">syms</text>
<text text-anchor="start" x="4.88" y="-270.5" font-family="Helvetica,sans-Serif" font-size="10.00">+</text>
<text text-anchor="start" x="18" y="-270.5" font-family="Helvetica,sans-Serif" font-size="10.00">location</text>
<text text-anchor="start" x="4.88" y="-254.5" font-family="Helvetica,sans-Serif" font-size="10.00">+</text>
<text text-anchor="start" x="18" y="-254.5" font-family="Helvetica,sans-Serif" font-size="10.00">name</text>
<text text-anchor="start" x="4.88" y="-238.5" font-family="Helvetica,sans-Serif" font-size="10.00">#</text>
<text text-anchor="start" x="18" y="-238.5" font-family="Helvetica,sans-Serif" font-size="10.00">size</text>
<text text-anchor="start" x="4.88" y="-222.5" font-family="Helvetica,sans-Serif" font-size="10.00">+</text>
<text text-anchor="start" x="18" y="-222.5" font-family="Helvetica,sans-Serif" font-size="10.00">DryTensor()</text>
<text text-anchor="start" x="4.88" y="-206.5" font-family="Helvetica,sans-Serif" font-size="10.00">+</text>
<text text-anchor="start" x="18" y="-206.5" font-family="Helvetica,sans-Serif" font-size="10.00">DryTensor()</text>
<text text-anchor="start" x="4.88" y="-190.5" font-family="Helvetica,sans-Serif" font-size="10.00">+</text>
<text text-anchor="start" x="18" y="-190.5" font-family="Helvetica,sans-Serif" font-size="10.00">~DryTensor()</text>
<text text-anchor="start" x="4.88" y="-174.5" font-family="Helvetica,sans-Serif" font-size="10.00">+</text>
<text text-anchor="start" x="18" y="-174.5" font-family="Helvetica,sans-Serif" font-size="10.00">use()</text>
<text text-anchor="start" x="4.88" y="-158.5" font-family="Helvetica,sans-Serif" font-size="10.00">+</text>
<text text-anchor="start" x="18" y="-158.5" font-family="Helvetica,sans-Serif" font-size="10.00">getElementsCount()</text>
<text text-anchor="start" x="4.88" y="-142.5" font-family="Helvetica,sans-Serif" font-size="10.00">+</text>
<text text-anchor="start" x="18" y="-142.5" font-family="Helvetica,sans-Serif" font-size="10.00">set_name()</text>
<text text-anchor="start" x="4.88" y="-126.5" font-family="Helvetica,sans-Serif" font-size="10.00">+</text>
<text text-anchor="start" x="18" y="-126.5" font-family="Helvetica,sans-Serif" font-size="10.00">get_name()</text>
<text text-anchor="start" x="4.88" y="-110.5" font-family="Helvetica,sans-Serif" font-size="10.00">#</text>
<text text-anchor="start" x="18" y="-110.5" font-family="Helvetica,sans-Serif" font-size="10.00">allocate()</text>
<text text-anchor="start" x="4.88" y="-94.5" font-family="Helvetica,sans-Serif" font-size="10.00">#</text>
<text text-anchor="start" x="18" y="-94.5" font-family="Helvetica,sans-Serif" font-size="10.00">free()</text>
<polygon fill="#666666" stroke="#666666" points="0,-330 0,-330 121,-330 121,-330 0,-330"/>
<polygon fill="#666666" stroke="#666666" points="0,-234 0,-234 16,-234 16,-234 0,-234"/>
<polygon fill="#666666" stroke="#666666" points="16,-234 16,-234 121,-234 121,-234 16,-234"/>
<polygon fill="none" stroke="#666666" points="0,-88 0,-348 121,-348 121,-88 0,-88"/>
</a>
</g>
</g>
<!-- Node2&#45;&gt;Node1 -->
<g id="edge1_Node000001_Node000002" class="edge">
<title>Node2&#45;&gt;Node1</title>
<g id="a_edge1_Node000001_Node000002"><a xlink:title=" ">
<path fill="none" stroke="#63b8ff" d="M60.5,-77.25C60.5,-67.84 60.5,-59.19 60.5,-51.82"/>
<polygon fill="none" stroke="#63b8ff" points="57,-77.16 60.5,-87.16 64,-77.16 57,-77.16"/>
</a>
</g>
</g>
</g>
</svg>
