<?xml version="1.0" encoding="UTF-8" standalone="no"?>
<!DOCTYPE svg PUBLIC "-//W3C//DTD SVG 1.1//EN"
 "http://www.w3.org/Graphics/SVG/1.1/DTD/svg11.dtd">
<!-- Generated by graphviz version 5.0.1 (0)
 -->
<!-- Title: sisi4s::SliceCoulombVertex Pages: 1 -->
<svg width="499pt" height="556pt"
 viewBox="0.00 0.00 499.00 556.00" xmlns="http://www.w3.org/2000/svg" xmlns:xlink="http://www.w3.org/1999/xlink">
<g id="graph0" class="graph" transform="scale(1 1) rotate(0) translate(4 552)">
<title>sisi4s::SliceCoulombVertex</title>
<!-- Node1 -->
<g id="node1" class="node">
<title>Node1</title>
<g id="a_node1"><a xlink:title="Slices the particle hole part &#160;from the full Coulomb vertex .">
<polygon fill="#999999" stroke="#666666" points="183.5,-85 28.5,-85 28.5,0 183.5,0 183.5,-85"/>
<text text-anchor="middle" x="106" y="-73" font-family="Helvetica,sans-Serif" font-size="10.00">{sisi4s::SliceCoulombVertex</text>
<text text-anchor="start" x="36.5" y="-62" font-family="Helvetica,sans-Serif" font-size="10.00">||+ getName()</text>
<text text-anchor="start" x="36.5" y="-51" font-family="Helvetica,sans-Serif" font-size="10.00">+ SliceCoulombVertex()</text>
<text text-anchor="start" x="36.5" y="-40" font-family="Helvetica,sans-Serif" font-size="10.00">+ ~SliceCoulombVertex()</text>
<text text-anchor="start" x="36.5" y="-29" font-family="Helvetica,sans-Serif" font-size="10.00">+ run()</text>
<text text-anchor="start" x="36.5" y="-18" font-family="Helvetica,sans-Serif" font-size="10.00">+ dryRun()</text>
<text text-anchor="middle" x="106" y="-7" font-family="Helvetica,sans-Serif" font-size="10.00">}</text>
</a>
</g>
</g>
<!-- Node2 -->
<g id="node2" class="node">
<title>Node2</title>
<g id="a_node2"><a xlink:href="classsisi4s_1_1Algorithm.html" target="_top" xlink:title=" ">
<polygon fill="white" stroke="#666666" points="180,-338 0,-338 0,-132 180,-132 180,-338"/>
<text text-anchor="middle" x="90" y="-326" font-family="Helvetica,sans-Serif" font-size="10.00">{sisi4s::Algorithm</text>
<text text-anchor="start" x="8" y="-315" font-family="Helvetica,sans-Serif" font-size="10.00">|# arguments</text>
<text text-anchor="start" x="8" y="-304" font-family="Helvetica,sans-Serif" font-size="10.00">|+ Algorithm()</text>
<text text-anchor="start" x="8" y="-293" font-family="Helvetica,sans-Serif" font-size="10.00">+ ~Algorithm()</text>
<text text-anchor="start" x="8" y="-282" font-family="Helvetica,sans-Serif" font-size="10.00">+ getName()</text>
<text text-anchor="start" x="8" y="-271" font-family="Helvetica,sans-Serif" font-size="10.00">+ run()</text>
<text text-anchor="start" x="8" y="-260" font-family="Helvetica,sans-Serif" font-size="10.00">+ dryRun()</text>
<text text-anchor="start" x="8" y="-249" font-family="Helvetica,sans-Serif" font-size="10.00">+ isArgumentGiven()</text>
<text text-anchor="start" x="8" y="-238" font-family="Helvetica,sans-Serif" font-size="10.00">+ getTextArgument()</text>
<text text-anchor="start" x="8" y="-227" font-family="Helvetica,sans-Serif" font-size="10.00">+ getTextArgument()</text>
<text text-anchor="start" x="8" y="-216" font-family="Helvetica,sans-Serif" font-size="10.00">+ getBooleanArgument()</text>
<text text-anchor="start" x="8" y="-205" font-family="Helvetica,sans-Serif" font-size="10.00">+ getBooleanArgument()</text>
<text text-anchor="start" x="8" y="-194" font-family="Helvetica,sans-Serif" font-size="10.00">and 12 more...</text>
<text text-anchor="start" x="8" y="-183" font-family="Helvetica,sans-Serif" font-size="10.00"># getRealArgumentFromInteger()</text>
<text text-anchor="start" x="8" y="-172" font-family="Helvetica,sans-Serif" font-size="10.00"># getRealArgumentFromTensor()</text>
<text text-anchor="start" x="8" y="-161" font-family="Helvetica,sans-Serif" font-size="10.00"># getTensorArgumentFromReal()</text>
<text text-anchor="start" x="8" y="-150" font-family="Helvetica,sans-Serif" font-size="10.00"># getArgumentData()</text>
<text text-anchor="middle" x="90" y="-139" font-family="Helvetica,sans-Serif" font-size="10.00">}</text>
</a>
</g>
</g>
<!-- Node2&#45;&gt;Node1 -->
<g id="edge1" class="edge">
<title>Node2&#45;&gt;Node1</title>
<path fill="none" stroke="#63b8ff" d="M99.45,-121.45C100.53,-108.65 101.57,-96.29 102.49,-85.33"/>
<polygon fill="none" stroke="#63b8ff" points="95.93,-121.52 98.59,-131.78 102.91,-122.11 95.93,-121.52"/>
</g>
<!-- Node3 -->
<g id="node3" class="node">
<title>Node3</title>
<g id="a_node3"><a xlink:href="classsisi4s_1_1AlgorithmRegistrar.html" target="_top" xlink:title=" ">
<polygon fill="white" stroke="#666666" points="369.5,-261 198.5,-261 198.5,-209 369.5,-209 369.5,-261"/>
<text text-anchor="start" x="206.5" y="-249" font-family="Helvetica,sans-Serif" font-size="10.00">{sisi4s::AlgorithmRegistrar</text>
<text text-anchor="middle" x="284" y="-238" font-family="Helvetica,sans-Serif" font-size="10.00">&lt; sisi4s::SliceCoulombVertex &gt;</text>
<text text-anchor="start" x="206.5" y="-227" font-family="Helvetica,sans-Serif" font-size="10.00">||+ AlgorithmRegistrar()</text>
<text text-anchor="middle" x="284" y="-216" font-family="Helvetica,sans-Serif" font-size="10.00">}</text>
</a>
</g>
</g>
<!-- Node3&#45;&gt;Node1 -->
<g id="edge2" class="edge">
<title>Node3&#45;&gt;Node1</title>
<path fill="none" stroke="#404040" d="M260.6,-208.83C241.39,-188.17 213.46,-158.17 189,-132 177.54,-119.74 165.18,-106.54 153.58,-94.17"/>
<polygon fill="none" stroke="#404040" points="153.5,-94.09 146.48,-92.45 145.3,-85.34 152.32,-86.98 153.5,-94.09"/>
<text text-anchor="middle" x="200" y="-106" font-family="Helvetica,sans-Serif" font-size="10.00"> +registrar_</text>
</g>
<!-- Node4 -->
<g id="node4" class="node">
<title>Node4</title>
<g id="a_node4"><a xlink:href="classsisi4s_1_1AlgorithmFactory.html" target="_top" xlink:title=" ">
<polygon fill="white" stroke="#666666" points="332,-548 192,-548 192,-474 332,-474 332,-548"/>
<text text-anchor="middle" x="262" y="-536" font-family="Helvetica,sans-Serif" font-size="10.00">{sisi4s::AlgorithmFactory</text>
<text text-anchor="start" x="200" y="-525" font-family="Helvetica,sans-Serif" font-size="10.00">|# algorithmMap</text>
<text text-anchor="start" x="200" y="-514" font-family="Helvetica,sans-Serif" font-size="10.00">|+ create()</text>
<text text-anchor="start" x="200" y="-503" font-family="Helvetica,sans-Serif" font-size="10.00">+ getAlgorithmNames()</text>
<text text-anchor="start" x="200" y="-492" font-family="Helvetica,sans-Serif" font-size="10.00"># getAlgorithmMap()</text>
<text text-anchor="middle" x="262" y="-481" font-family="Helvetica,sans-Serif" font-size="10.00">}</text>
</a>
</g>
</g>
<!-- Node4&#45;&gt;Node3 -->
<g id="edge3" class="edge">
<title>Node4&#45;&gt;Node3</title>
<path fill="none" stroke="darkgreen" d="M264.1,-463.79C265.29,-440.2 266.96,-411.05 269,-385 272.42,-341.33 277.84,-290.59 281.14,-261.01"/>
<polygon fill="none" stroke="darkgreen" points="260.6,-463.71 263.6,-473.87 267.59,-464.05 260.6,-463.71"/>
</g>
<!-- Node5 -->
<g id="node5" class="node">
<title>Node5</title>
<g id="a_node5"><a xlink:href="classsisi4s_1_1AlgorithmRegistrar.html" target="_top" xlink:title="Class to be statically instantiated by an algorithm to register it in the AlgorithmFactory....">
<polygon fill="white" stroke="#666666" points="426.5,-437 277.5,-437 277.5,-385 426.5,-385 426.5,-437"/>
<text text-anchor="start" x="285.5" y="-425" font-family="Helvetica,sans-Serif" font-size="10.00">{sisi4s::AlgorithmRegistrar</text>
<text text-anchor="middle" x="352" y="-414" font-family="Helvetica,sans-Serif" font-size="10.00">&lt; AlgorithmType &gt;</text>
<text text-anchor="start" x="285.5" y="-403" font-family="Helvetica,sans-Serif" font-size="10.00">||+ AlgorithmRegistrar()</text>
<text text-anchor="middle" x="352" y="-392" font-family="Helvetica,sans-Serif" font-size="10.00">}</text>
</a>
</g>
</g>
<!-- Node4&#45;&gt;Node5 -->
<g id="edge5" class="edge">
<title>Node4&#45;&gt;Node5</title>
<path fill="none" stroke="darkgreen" d="M302.2,-466.23C311.37,-456.24 320.82,-445.95 328.98,-437.06"/>
<polygon fill="none" stroke="darkgreen" points="299.44,-464.05 295.26,-473.79 304.6,-468.79 299.44,-464.05"/>
</g>
<!-- Node5&#45;&gt;Node3 -->
<g id="edge4" class="edge">
<title>Node5&#45;&gt;Node3</title>
<path fill="none" stroke="orange" d="M338.41,-375.22C325.22,-341.46 305.51,-291.05 293.79,-261.05"/>
<polygon fill="orange" stroke="orange" points="335.21,-376.66 342.11,-384.7 341.73,-374.11 335.21,-376.66"/>
<text text-anchor="middle" x="412" y="-359" font-family="Helvetica,sans-Serif" font-size="10.00"> &lt; sisi4s::SliceCoulombVertex &gt;</text>
</g>
</g>
</svg>
