<?xml version="1.0" encoding="UTF-8" standalone="no"?>
<!DOCTYPE svg PUBLIC "-//W3C//DTD SVG 1.1//EN"
 "http://www.w3.org/Graphics/SVG/1.1/DTD/svg11.dtd">
<!-- Generated by graphviz version 8.1.0 (0)
 -->
<!-- Title: ghc::filesystem::directory_entry::refresh Pages: 1 -->
<svg width="324pt" height="146pt"
 viewBox="0.00 0.00 323.50 145.50" xmlns="http://www.w3.org/2000/svg" xmlns:xlink="http://www.w3.org/1999/xlink">
<g id="graph0" class="graph" transform="scale(1 1) rotate(0) translate(4 141.5)">
<title>ghc::filesystem::directory_entry::refresh</title>
<!-- Node1 -->
<g id="Node000001" class="node">
<title>Node1</title>
<g id="a_Node000001"><a xlink:title=" ">
<polygon fill="#999999" stroke="#666666" points="315.5,-85.5 175.75,-85.5 175.75,-52 315.5,-52 315.5,-85.5"/>
<text text-anchor="start" x="183.75" y="-72" font-family="Helvetica,sans-Serif" font-size="10.00">ghc::filesystem::directory</text>
<text text-anchor="middle" x="245.62" y="-59.25" font-family="Helvetica,sans-Serif" font-size="10.00">_entry::refresh</text>
</a>
</g>
</g>
<!-- Node2 -->
<g id="Node000002" class="node">
<title>Node2</title>
<g id="a_Node000002"><a xlink:href="classghc_1_1filesystem_1_1directory__entry.html#a42e5e024725713da277ad7c60cb62dfd" target="_top" xlink:title=" ">
<polygon fill="white" stroke="#666666" points="139.75,-137.5 0,-137.5 0,-104 139.75,-104 139.75,-137.5"/>
<text text-anchor="start" x="8" y="-124" font-family="Helvetica,sans-Serif" font-size="10.00">ghc::filesystem::directory</text>
<text text-anchor="middle" x="69.88" y="-111.25" font-family="Helvetica,sans-Serif" font-size="10.00">_entry::directory_entry</text>
</a>
</g>
</g>
<!-- Node1&#45;&gt;Node2 -->
<g id="edge1_Node000001_Node000002" class="edge">
<title>Node1&#45;&gt;Node2</title>
<g id="a_edge1_Node000001_Node000002"><a xlink:title=" ">
<path fill="none" stroke="#63b8ff" d="M176.89,-89.02C160.9,-93.81 143.99,-98.87 128.49,-103.51"/>
<polygon fill="#63b8ff" stroke="#63b8ff" points="177.67,-92.14 186.25,-85.92 175.67,-85.44 177.67,-92.14"/>
</a>
</g>
</g>
<!-- Node3 -->
<g id="Node000003" class="node">
<title>Node3</title>
<g id="a_Node000003"><a xlink:href="classghc_1_1filesystem_1_1directory__entry.html#a15a1d67f8307b72d0ae8ab13b87ebaee" target="_top" xlink:title=" ">
<polygon fill="white" stroke="#666666" points="139.75,-85.5 0,-85.5 0,-52 139.75,-52 139.75,-85.5"/>
<text text-anchor="start" x="8" y="-72" font-family="Helvetica,sans-Serif" font-size="10.00">ghc::filesystem::directory</text>
<text text-anchor="middle" x="69.88" y="-59.25" font-family="Helvetica,sans-Serif" font-size="10.00">_entry::assign</text>
</a>
</g>
</g>
<!-- Node1&#45;&gt;Node3 -->
<g id="edge2_Node000001_Node000003" class="edge">
<title>Node1&#45;&gt;Node3</title>
<g id="a_edge2_Node000001_Node000003"><a xlink:title=" ">
<path fill="none" stroke="#63b8ff" d="M164.72,-68.75C156.49,-68.75 148.19,-68.75 140.09,-68.75"/>
<polygon fill="#63b8ff" stroke="#63b8ff" points="164.46,-72.25 174.46,-68.75 164.46,-65.25 164.46,-72.25"/>
</a>
</g>
</g>
<!-- Node4 -->
<g id="Node000004" class="node">
<title>Node4</title>
<g id="a_Node000004"><a xlink:href="classghc_1_1filesystem_1_1directory__entry.html#a05e2035adac4a0a7e414a22bac702e98" target="_top" xlink:title=" ">
<polygon fill="white" stroke="#666666" points="139.75,-33.5 0,-33.5 0,0 139.75,0 139.75,-33.5"/>
<text text-anchor="start" x="8" y="-20" font-family="Helvetica,sans-Serif" font-size="10.00">ghc::filesystem::directory</text>
<text text-anchor="middle" x="69.88" y="-7.25" font-family="Helvetica,sans-Serif" font-size="10.00">_entry::replace_filename</text>
</a>
</g>
</g>
<!-- Node1&#45;&gt;Node4 -->
<g id="edge3_Node000001_Node000004" class="edge">
<title>Node1&#45;&gt;Node4</title>
<g id="a_edge3_Node000001_Node000004"><a xlink:title=" ">
<path fill="none" stroke="#63b8ff" d="M176.89,-48.48C160.9,-43.69 143.99,-38.63 128.49,-33.99"/>
<polygon fill="#63b8ff" stroke="#63b8ff" points="175.67,-52.06 186.25,-51.58 177.67,-45.36 175.67,-52.06"/>
</a>
</g>
</g>
</g>
</svg>
