<?xml version="1.0" encoding="UTF-8" standalone="no"?>
<!DOCTYPE svg PUBLIC "-//W3C//DTD SVG 1.1//EN"
 "http://www.w3.org/Graphics/SVG/1.1/DTD/svg11.dtd">
<!-- Generated by graphviz version 5.0.1 (0)
 -->
<!-- Title: CLI::App::get_name Pages: 1 -->
<svg width="468pt" height="302pt"
 viewBox="0.00 0.00 468.00 302.00" xmlns="http://www.w3.org/2000/svg" xmlns:xlink="http://www.w3.org/1999/xlink">
<g id="graph0" class="graph" transform="scale(1 1) rotate(0) translate(4 298)">
<title>CLI::App::get_name</title>
<!-- Node1 -->
<g id="node1" class="node">
<title>Node1</title>
<g id="a_node1"><a xlink:title="Get the name of the current app.">
<polygon fill="#bfbfbf" stroke="black" points="349,-138 349,-157 460,-157 460,-138 349,-138"/>
<text text-anchor="middle" x="404.5" y="-145" font-family="Helvetica,sans-Serif" font-size="10.00">CLI::App::get_name</text>
</a>
</g>
</g>
<!-- Node2 -->
<g id="node2" class="node">
<title>Node2</title>
<g id="a_node2"><a xlink:href="classCLI_1_1App.html#aade2ac30d86141da0d55d9181ac8b710" target="_top" xlink:title="Helper function to run through all possible comparisons of subcommand names to check there is no over...">
<polygon fill="none" stroke="black" points="166,-263.5 166,-293.5 292,-293.5 292,-263.5 166,-263.5"/>
<text text-anchor="start" x="174" y="-281.5" font-family="Helvetica,sans-Serif" font-size="10.00">CLI::App::_compare</text>
<text text-anchor="middle" x="229" y="-270.5" font-family="Helvetica,sans-Serif" font-size="10.00">_subcommand_names</text>
</a>
</g>
</g>
<!-- Node1&#45;&gt;Node2 -->
<g id="edge1" class="edge">
<title>Node1&#45;&gt;Node2</title>
<path fill="none" stroke="midnightblue" d="M392.76,-165.94C377.87,-189.89 348.71,-231.35 313,-254.5 306.58,-258.66 299.42,-262.12 292.08,-264.98"/>
<polygon fill="midnightblue" stroke="midnightblue" points="395.9,-167.5 398.08,-157.13 389.91,-163.88 395.9,-167.5"/>
</g>
<!-- Node3 -->
<g id="node3" class="node">
<title>Node3</title>
<g id="a_node3"><a xlink:href="classCLI_1_1App.html#a4e0c00ce18bbfca1ae890a653bbd2b93" target="_top" xlink:title="Verify required options and cross requirements. Subcommands too (only if selected).">
<polygon fill="none" stroke="black" points="176.5,-214.5 176.5,-244.5 281.5,-244.5 281.5,-214.5 176.5,-214.5"/>
<text text-anchor="start" x="184.5" y="-232.5" font-family="Helvetica,sans-Serif" font-size="10.00">CLI::App::_process</text>
<text text-anchor="middle" x="229" y="-221.5" font-family="Helvetica,sans-Serif" font-size="10.00">_requirements</text>
</a>
</g>
</g>
<!-- Node1&#45;&gt;Node3 -->
<g id="edge2" class="edge">
<title>Node1&#45;&gt;Node3</title>
<path fill="none" stroke="midnightblue" d="M382.18,-163.25C364.41,-175.8 338.04,-193.1 313,-204.5 303.14,-208.99 292.26,-212.93 281.71,-216.28"/>
<polygon fill="midnightblue" stroke="midnightblue" points="384.56,-165.85 390.64,-157.18 380.48,-160.17 384.56,-165.85"/>
</g>
<!-- Node4 -->
<g id="node4" class="node">
<title>Node4</title>
<g id="a_node4"><a xlink:href="classCLI_1_1App.html#ad03898df2eadbe937c81d80215169235" target="_top" xlink:title=" ">
<polygon fill="none" stroke="black" points="154.5,-176 154.5,-195 303.5,-195 303.5,-176 154.5,-176"/>
<text text-anchor="middle" x="229" y="-183" font-family="Helvetica,sans-Serif" font-size="10.00">CLI::App::get_subcommand</text>
</a>
</g>
</g>
<!-- Node1&#45;&gt;Node4 -->
<g id="edge3" class="edge">
<title>Node1&#45;&gt;Node4</title>
<path fill="none" stroke="midnightblue" d="M349.84,-159.25C325.31,-164.63 296.62,-170.91 273.47,-175.98"/>
<polygon fill="midnightblue" stroke="midnightblue" points="350.7,-162.65 359.72,-157.09 349.2,-155.81 350.7,-162.65"/>
</g>
<!-- Node5 -->
<g id="node5" class="node">
<title>Node5</title>
<g id="a_node5"><a xlink:href="classCLI_1_1App.html#a63c0110a3e63515e3b9b70b7b560d676" target="_top" xlink:title="Check to see if a subcommand is part of this command and get a shared_ptr to it.">
<polygon fill="none" stroke="black" points="145,-138 145,-157 313,-157 313,-138 145,-138"/>
<text text-anchor="middle" x="229" y="-145" font-family="Helvetica,sans-Serif" font-size="10.00">CLI::App::get_subcommand_ptr</text>
</a>
</g>
</g>
<!-- Node1&#45;&gt;Node5 -->
<g id="edge4" class="edge">
<title>Node1&#45;&gt;Node5</title>
<path fill="none" stroke="midnightblue" d="M338.6,-147.5C330.27,-147.5 321.64,-147.5 313.07,-147.5"/>
<polygon fill="midnightblue" stroke="midnightblue" points="338.6,-151 348.6,-147.5 338.6,-144 338.6,-151"/>
</g>
<!-- Node7 -->
<g id="node7" class="node">
<title>Node7</title>
<g id="a_node7"><a xlink:href="classCLI_1_1Formatter.html#ade54fd392e2c9f5364744dca82408e60" target="_top" xlink:title="This prints out a subcommand in help&#45;all.">
<polygon fill="none" stroke="black" points="169.5,-88.5 169.5,-118.5 288.5,-118.5 288.5,-88.5 169.5,-88.5"/>
<text text-anchor="start" x="177.5" y="-106.5" font-family="Helvetica,sans-Serif" font-size="10.00">CLI::Formatter::make</text>
<text text-anchor="middle" x="229" y="-95.5" font-family="Helvetica,sans-Serif" font-size="10.00">_expanded</text>
</a>
</g>
</g>
<!-- Node1&#45;&gt;Node7 -->
<g id="edge6" class="edge">
<title>Node1&#45;&gt;Node7</title>
<path fill="none" stroke="midnightblue" d="M355.99,-135.45C335.21,-130.18 310.64,-123.95 288.73,-118.39"/>
<polygon fill="midnightblue" stroke="midnightblue" points="355.3,-138.89 365.85,-137.95 357.02,-132.1 355.3,-138.89"/>
</g>
<!-- Node8 -->
<g id="node8" class="node">
<title>Node8</title>
<g id="a_node8"><a xlink:href="classCLI_1_1Formatter.html#a838e0f47efa4fbd1b738eedb156887b9" target="_top" xlink:title="This puts everything together.">
<polygon fill="none" stroke="black" points="156.5,-50 156.5,-69 301.5,-69 301.5,-50 156.5,-50"/>
<text text-anchor="middle" x="229" y="-57" font-family="Helvetica,sans-Serif" font-size="10.00">CLI::Formatter::make_help</text>
</a>
</g>
</g>
<!-- Node1&#45;&gt;Node8 -->
<g id="edge7" class="edge">
<title>Node1&#45;&gt;Node8</title>
<path fill="none" stroke="midnightblue" d="M385.97,-130.84C368.72,-115.33 340.96,-92.68 313,-79.5 303.88,-75.2 293.75,-71.78 283.79,-69.06"/>
<polygon fill="midnightblue" stroke="midnightblue" points="383.83,-133.62 393.56,-137.81 388.56,-128.46 383.83,-133.62"/>
</g>
<!-- Node9 -->
<g id="node9" class="node">
<title>Node9</title>
<g id="a_node9"><a xlink:href="classCLI_1_1ConfigBase.html#a5832f6f03212648fa08a8ff83bc9bc08" target="_top" xlink:title="Convert an app into a configuration.">
<polygon fill="none" stroke="black" points="175,-0.5 175,-30.5 283,-30.5 283,-0.5 175,-0.5"/>
<text text-anchor="start" x="183" y="-18.5" font-family="Helvetica,sans-Serif" font-size="10.00">CLI::ConfigBase::to</text>
<text text-anchor="middle" x="229" y="-7.5" font-family="Helvetica,sans-Serif" font-size="10.00">_config</text>
</a>
</g>
</g>
<!-- Node1&#45;&gt;Node9 -->
<g id="edge8" class="edge">
<title>Node1&#45;&gt;Node9</title>
<path fill="none" stroke="midnightblue" d="M392.72,-129.12C377.79,-105.24 348.58,-63.84 313,-40.5 304.07,-34.64 293.7,-30.11 283.39,-26.61"/>
<polygon fill="midnightblue" stroke="midnightblue" points="389.87,-131.17 398.06,-137.9 395.85,-127.54 389.87,-131.17"/>
</g>
<!-- Node6 -->
<g id="node6" class="node">
<title>Node6</title>
<g id="a_node6"><a xlink:href="classCLI_1_1Option__group.html#a1be93903743c2cdc64f1237ca956ff0b" target="_top" xlink:title="Add an existing subcommand to be a member of an option_group.">
<polygon fill="none" stroke="black" points="0,-132.5 0,-162.5 109,-162.5 109,-132.5 0,-132.5"/>
<text text-anchor="start" x="8" y="-150.5" font-family="Helvetica,sans-Serif" font-size="10.00">CLI::Option_group::</text>
<text text-anchor="middle" x="54.5" y="-139.5" font-family="Helvetica,sans-Serif" font-size="10.00">add_subcommand</text>
</a>
</g>
</g>
<!-- Node5&#45;&gt;Node6 -->
<g id="edge5" class="edge">
<title>Node5&#45;&gt;Node6</title>
<path fill="none" stroke="midnightblue" d="M134.61,-147.5C125.96,-147.5 117.41,-147.5 109.3,-147.5"/>
<polygon fill="midnightblue" stroke="midnightblue" points="134.78,-151 144.78,-147.5 134.78,-144 134.78,-151"/>
</g>
</g>
</svg>
