<?xml version="1.0" encoding="UTF-8" standalone="no"?>
<!DOCTYPE svg PUBLIC "-//W3C//DTD SVG 1.1//EN"
 "http://www.w3.org/Graphics/SVG/1.1/DTD/svg11.dtd">
<!-- Generated by graphviz version 9.0.0 (0)
 -->
<!-- Title: sisi4s::SingleParticleOccupancies Pages: 1 -->
<svg width="404pt" height="664pt"
 viewBox="0.00 0.00 403.50 664.25" xmlns="http://www.w3.org/2000/svg" xmlns:xlink="http://www.w3.org/1999/xlink">
<g id="graph0" class="graph" transform="scale(1 1) rotate(0) translate(4 660.25)">
<title>sisi4s::SingleParticleOccupancies</title>
<!-- Node1 -->
<g id="Node000001" class="node">
<title>Node1</title>
<g id="a_Node000001"><a xlink:title="Evaluates &#160;given the DoublesAmplitudes from a linearized coupled cluster theory.">
<polygon fill="#999999" stroke="none" points="204,-116 33,-116 33,0 204,0 204,-116"/>
<text text-anchor="start" x="37.88" y="-102.5" font-family="Helvetica,sans-Serif" font-size="10.00">sisi4s::SingleParticleOccupancies</text>
<text text-anchor="start" x="117" y="-86.5" font-family="Helvetica,sans-Serif" font-size="10.00"> </text>
<text text-anchor="start" x="38.88" y="-70.5" font-family="Helvetica,sans-Serif" font-size="10.00">+</text>
<text text-anchor="start" x="53" y="-70.5" font-family="Helvetica,sans-Serif" font-size="10.00">getName()</text>
<text text-anchor="start" x="38.88" y="-54.5" font-family="Helvetica,sans-Serif" font-size="10.00">+</text>
<text text-anchor="start" x="53" y="-54.5" font-family="Helvetica,sans-Serif" font-size="10.00">SingleParticleOccupancies()</text>
<text text-anchor="start" x="38.88" y="-38.5" font-family="Helvetica,sans-Serif" font-size="10.00">+</text>
<text text-anchor="start" x="53" y="-38.5" font-family="Helvetica,sans-Serif" font-size="10.00">~SingleParticleOccupancies()</text>
<text text-anchor="start" x="38.88" y="-22.5" font-family="Helvetica,sans-Serif" font-size="10.00">+</text>
<text text-anchor="start" x="53" y="-22.5" font-family="Helvetica,sans-Serif" font-size="10.00">run()</text>
<text text-anchor="start" x="38.88" y="-6.5" font-family="Helvetica,sans-Serif" font-size="10.00">+</text>
<text text-anchor="start" x="53" y="-6.5" font-family="Helvetica,sans-Serif" font-size="10.00">dryRun()</text>
<polygon fill="#666666" stroke="#666666" points="33,-98 33,-98 204,-98 204,-98 33,-98"/>
<polygon fill="#666666" stroke="#666666" points="33,-82 33,-82 204,-82 204,-82 33,-82"/>
<polygon fill="none" stroke="#666666" points="33,0 33,-116 204,-116 204,0 33,0"/>
</a>
</g>
</g>
<!-- Node2 -->
<g id="Node000002" class="node">
<title>Node2</title>
<g id="a_Node000002"><a xlink:href="classsisi4s_1_1Algorithm.html" target="_top" xlink:title=" ">
<polygon fill="white" stroke="none" points="131,-408.75 0,-408.75 0,-164.75 131,-164.75 131,-408.75"/>
<text text-anchor="start" x="24.62" y="-395.25" font-family="Helvetica,sans-Serif" font-size="10.00">sisi4s::Algorithm</text>
<text text-anchor="start" x="3.88" y="-379.25" font-family="Helvetica,sans-Serif" font-size="10.00">+</text>
<text text-anchor="start" x="16" y="-379.25" font-family="Helvetica,sans-Serif" font-size="10.00">note</text>
<text text-anchor="start" x="3.88" y="-363.25" font-family="Helvetica,sans-Serif" font-size="10.00">+</text>
<text text-anchor="start" x="16" y="-363.25" font-family="Helvetica,sans-Serif" font-size="10.00">fallible</text>
<text text-anchor="start" x="3.88" y="-347.25" font-family="Helvetica,sans-Serif" font-size="10.00">+</text>
<text text-anchor="start" x="16" y="-347.25" font-family="Helvetica,sans-Serif" font-size="10.00">arguments</text>
<text text-anchor="start" x="3.88" y="-331.25" font-family="Helvetica,sans-Serif" font-size="10.00">+</text>
<text text-anchor="start" x="16" y="-331.25" font-family="Helvetica,sans-Serif" font-size="10.00">Algorithm()</text>
<text text-anchor="start" x="3.88" y="-315.25" font-family="Helvetica,sans-Serif" font-size="10.00">+</text>
<text text-anchor="start" x="16" y="-315.25" font-family="Helvetica,sans-Serif" font-size="10.00">~Algorithm()</text>
<text text-anchor="start" x="3.88" y="-299.25" font-family="Helvetica,sans-Serif" font-size="10.00">+</text>
<text text-anchor="start" x="16" y="-299.25" font-family="Helvetica,sans-Serif" font-size="10.00">getName()</text>
<text text-anchor="start" x="3.88" y="-283.25" font-family="Helvetica,sans-Serif" font-size="10.00">+</text>
<text text-anchor="start" x="16" y="-283.25" font-family="Helvetica,sans-Serif" font-size="10.00">run()</text>
<text text-anchor="start" x="3.88" y="-267.25" font-family="Helvetica,sans-Serif" font-size="10.00">+</text>
<text text-anchor="start" x="16" y="-267.25" font-family="Helvetica,sans-Serif" font-size="10.00">dryRun()</text>
<text text-anchor="start" x="3.88" y="-251.25" font-family="Helvetica,sans-Serif" font-size="10.00">+</text>
<text text-anchor="start" x="16" y="-251.25" font-family="Helvetica,sans-Serif" font-size="10.00">isArgumentGiven()</text>
<text text-anchor="start" x="3.88" y="-235.25" font-family="Helvetica,sans-Serif" font-size="10.00">+</text>
<text text-anchor="start" x="16" y="-235.25" font-family="Helvetica,sans-Serif" font-size="10.00">getTextArgument()</text>
<text text-anchor="start" x="3.88" y="-219.25" font-family="Helvetica,sans-Serif" font-size="10.00">+</text>
<text text-anchor="start" x="16" y="-219.25" font-family="Helvetica,sans-Serif" font-size="10.00">getTextArgument()</text>
<text text-anchor="start" x="3.88" y="-203.25" font-family="Helvetica,sans-Serif" font-size="10.00">+</text>
<text text-anchor="start" x="16" y="-203.25" font-family="Helvetica,sans-Serif" font-size="10.00">getBooleanArgument()</text>
<text text-anchor="start" x="3.88" y="-187.25" font-family="Helvetica,sans-Serif" font-size="10.00">+</text>
<text text-anchor="start" x="16" y="-187.25" font-family="Helvetica,sans-Serif" font-size="10.00">getBooleanArgument()</text>
<text text-anchor="start" x="16" y="-171.25" font-family="Helvetica,sans-Serif" font-size="10.00">and 16 more...</text>
<polygon fill="#666666" stroke="#666666" points="0,-390.75 0,-390.75 131,-390.75 131,-390.75 0,-390.75"/>
<polygon fill="#666666" stroke="#666666" points="0,-342.75 0,-342.75 14,-342.75 14,-342.75 0,-342.75"/>
<polygon fill="#666666" stroke="#666666" points="14,-342.75 14,-342.75 131,-342.75 131,-342.75 14,-342.75"/>
<polygon fill="none" stroke="#666666" points="0,-164.75 0,-408.75 131,-408.75 131,-164.75 0,-164.75"/>
</a>
</g>
</g>
<!-- Node2&#45;&gt;Node1 -->
<g id="edge1_Node000001_Node000002" class="edge">
<title>Node2&#45;&gt;Node1</title>
<g id="a_edge1_Node000001_Node000002"><a xlink:title=" ">
<path fill="none" stroke="#63b8ff" d="M96.32,-153.88C99.42,-140.63 102.44,-127.72 105.2,-115.91"/>
<polygon fill="none" stroke="#63b8ff" points="92.92,-153.06 94.05,-163.6 99.74,-154.66 92.92,-153.06"/>
</a>
</g>
</g>
<!-- Node3 -->
<g id="Node000003" class="node">
<title>Node3</title>
<g id="a_Node000003"><a xlink:href="classsisi4s_1_1AlgorithmRegistrar.html" target="_top" xlink:title=" ">
<polygon fill="white" stroke="none" points="342,-319.25 149,-319.25 149,-254.25 342,-254.25 342,-319.25"/>
<text text-anchor="start" x="153.62" y="-305.75" font-family="Helvetica,sans-Serif" font-size="10.00">sisi4s::AlgorithmRegistrar</text>
<text text-anchor="start" x="153.62" y="-293" font-family="Helvetica,sans-Serif" font-size="10.00">&lt; sisi4s::SingleParticleOccupancies &gt;</text>
<text text-anchor="start" x="244" y="-276.75" font-family="Helvetica,sans-Serif" font-size="10.00"> </text>
<text text-anchor="start" x="171.38" y="-260.75" font-family="Helvetica,sans-Serif" font-size="10.00">+</text>
<text text-anchor="start" x="202" y="-260.75" font-family="Helvetica,sans-Serif" font-size="10.00">AlgorithmRegistrar()</text>
<polygon fill="#666666" stroke="#666666" points="149,-288.25 149,-288.25 342,-288.25 342,-288.25 149,-288.25"/>
<polygon fill="#666666" stroke="#666666" points="149,-272.25 149,-272.25 342,-272.25 342,-272.25 149,-272.25"/>
<polygon fill="none" stroke="#666666" points="149,-254.25 149,-319.25 342,-319.25 342,-254.25 149,-254.25"/>
</a>
</g>
</g>
<!-- Node3&#45;&gt;Node1 -->
<g id="edge2_Node000001_Node000003" class="edge">
<title>Node3&#45;&gt;Node1</title>
<g id="a_edge2_Node000001_Node000003"><a xlink:title=" ">
<path fill="none" stroke="#63b8ff" d="M228.11,-254.7C209.81,-222.03 180.44,-169.59 156.7,-127.21"/>
<polygon fill="none" stroke="#63b8ff" points="156.63,-127.08 150.21,-123.8 150.77,-116.61 157.19,-119.89 156.63,-127.08"/>
</a>
</g>
<text text-anchor="middle" x="195.38" y="-137.25" font-family="Helvetica,sans-Serif" font-size="10.00" fill="grey"> +registrar_</text>
</g>
<!-- Node4 -->
<g id="Node000004" class="node">
<title>Node4</title>
<g id="a_Node000004"><a xlink:href="classsisi4s_1_1AlgorithmFactory.html" target="_top" xlink:title=" ">
<polygon fill="white" stroke="none" points="273,-656.25 146,-656.25 146,-572.25 273,-572.25 273,-656.25"/>
<text text-anchor="start" x="151" y="-642.75" font-family="Helvetica,sans-Serif" font-size="10.00">sisi4s::AlgorithmFactory</text>
<text text-anchor="start" x="150.38" y="-626.75" font-family="Helvetica,sans-Serif" font-size="10.00">#</text>
<text text-anchor="start" x="163" y="-626.75" font-family="Helvetica,sans-Serif" font-size="10.00">algorithmMap</text>
<text text-anchor="start" x="150.38" y="-610.75" font-family="Helvetica,sans-Serif" font-size="10.00">+</text>
<text text-anchor="start" x="163" y="-610.75" font-family="Helvetica,sans-Serif" font-size="10.00">create()</text>
<text text-anchor="start" x="150.38" y="-594.75" font-family="Helvetica,sans-Serif" font-size="10.00">+</text>
<text text-anchor="start" x="163" y="-594.75" font-family="Helvetica,sans-Serif" font-size="10.00">getAlgorithmNames()</text>
<text text-anchor="start" x="150.38" y="-578.75" font-family="Helvetica,sans-Serif" font-size="10.00">#</text>
<text text-anchor="start" x="163" y="-578.75" font-family="Helvetica,sans-Serif" font-size="10.00">getAlgorithmMap()</text>
<polygon fill="#666666" stroke="#666666" points="146,-638.25 146,-638.25 273,-638.25 273,-638.25 146,-638.25"/>
<polygon fill="#666666" stroke="#666666" points="146,-622.25 146,-622.25 161,-622.25 161,-622.25 146,-622.25"/>
<polygon fill="#666666" stroke="#666666" points="161,-622.25 161,-622.25 273,-622.25 273,-622.25 161,-622.25"/>
<polygon fill="none" stroke="#666666" points="146,-572.25 146,-656.25 273,-656.25 273,-572.25 146,-572.25"/>
</a>
</g>
</g>
<!-- Node4&#45;&gt;Node3 -->
<g id="edge3_Node000003_Node000004" class="edge">
<title>Node4&#45;&gt;Node3</title>
<g id="a_edge3_Node000003_Node000004"><a xlink:title=" ">
<path fill="none" stroke="darkgreen" d="M210.69,-561.27C211.65,-534.1 213.38,-500.32 216.5,-470.25 222.04,-416.8 232.74,-355.16 239.48,-318.94"/>
<polygon fill="none" stroke="darkgreen" points="207.2,-560.86 210.37,-570.97 214.19,-561.09 207.2,-560.86"/>
</a>
</g>
</g>
<!-- Node5 -->
<g id="Node000005" class="node">
<title>Node5</title>
<g id="a_Node000005"><a xlink:href="classsisi4s_1_1AlgorithmRegistrar.html" target="_top" xlink:title="Class to be statically instantiated by an algorithm to register it in the AlgorithmFactory....">
<polygon fill="white" stroke="none" points="361.5,-535.25 225.5,-535.25 225.5,-470.25 361.5,-470.25 361.5,-535.25"/>
<text text-anchor="start" x="230.5" y="-521.75" font-family="Helvetica,sans-Serif" font-size="10.00">sisi4s::AlgorithmRegistrar</text>
<text text-anchor="start" x="247" y="-509" font-family="Helvetica,sans-Serif" font-size="10.00">&lt; AlgorithmType &gt;</text>
<text text-anchor="start" x="292" y="-492.75" font-family="Helvetica,sans-Serif" font-size="10.00"> </text>
<text text-anchor="start" x="233.38" y="-476.75" font-family="Helvetica,sans-Serif" font-size="10.00">+</text>
<text text-anchor="start" x="249.5" y="-476.75" font-family="Helvetica,sans-Serif" font-size="10.00">AlgorithmRegistrar()</text>
<polygon fill="#666666" stroke="#666666" points="225.5,-504.25 225.5,-504.25 361.5,-504.25 361.5,-504.25 225.5,-504.25"/>
<polygon fill="#666666" stroke="#666666" points="225.5,-488.25 225.5,-488.25 361.5,-488.25 361.5,-488.25 225.5,-488.25"/>
<polygon fill="none" stroke="#666666" points="225.5,-470.25 225.5,-535.25 361.5,-535.25 361.5,-470.25 225.5,-470.25"/>
</a>
</g>
</g>
<!-- Node4&#45;&gt;Node5 -->
<g id="edge5_Node000005_Node000004" class="edge">
<title>Node4&#45;&gt;Node5</title>
<g id="a_edge5_Node000005_Node000004"><a xlink:title=" ">
<path fill="none" stroke="darkgreen" d="M247.57,-563.62C255.05,-553.87 262.69,-543.91 269.55,-534.97"/>
<polygon fill="none" stroke="darkgreen" points="245.01,-561.21 241.7,-571.28 250.56,-565.47 245.01,-561.21"/>
</a>
</g>
</g>
<!-- Node5&#45;&gt;Node3 -->
<g id="edge4_Node000003_Node000005" class="edge">
<title>Node5&#45;&gt;Node3</title>
<g id="a_edge4_Node000003_Node000005"><a xlink:title=" ">
<path fill="none" stroke="orange" d="M284.03,-459.55C274.75,-418.15 260.81,-356.01 252.49,-318.9"/>
<polygon fill="orange" stroke="orange" points="280.59,-460.16 286.19,-469.16 287.42,-458.63 280.59,-460.16"/>
</a>
</g>
<text text-anchor="start" x="281.5" y="-442.75" font-family="Helvetica,sans-Serif" font-size="10.00" fill="grey"> &lt; sisi4s::SingleParticle</text>
<text text-anchor="middle" x="338.5" y="-430" font-family="Helvetica,sans-Serif" font-size="10.00" fill="grey">Occupancies &gt;</text>
</g>
</g>
</svg>
