<?xml version="1.0" encoding="UTF-8" standalone="no"?>
<!DOCTYPE svg PUBLIC "-//W3C//DTD SVG 1.1//EN"
 "http://www.w3.org/Graphics/SVG/1.1/DTD/svg11.dtd">
<!-- Generated by graphviz version 7.1.0 (0)
 -->
<!-- Title: sisi4s::Algorithm::getRealArgument Pages: 1 -->
<svg width="580pt" height="172pt"
 viewBox="0.00 0.00 580.00 171.50" xmlns="http://www.w3.org/2000/svg" xmlns:xlink="http://www.w3.org/1999/xlink">
<g id="graph0" class="graph" transform="scale(1 1) rotate(0) translate(4 167.5)">
<title>sisi4s::Algorithm::getRealArgument</title>
<!-- Node1 -->
<g id="node1" class="node">
<title>Node1</title>
<g id="a_node1"><a xlink:title=" ">
<polygon fill="#999999" stroke="#666666" points="104,-67.5 0,-67.5 0,-37.5 104,-37.5 104,-67.5"/>
<text text-anchor="start" x="8" y="-55.5" font-family="Helvetica,sans-Serif" font-size="10.00">sisi4s::Algorithm::</text>
<text text-anchor="middle" x="52" y="-44.5" font-family="Helvetica,sans-Serif" font-size="10.00">getRealArgument</text>
</a>
</g>
</g>
<!-- Node2 -->
<g id="node2" class="node">
<title>Node2</title>
<g id="a_node2"><a xlink:href="classsisi4s_1_1Algorithm.html#a36c632fbb19dae4ce2f415705fa5cbcb" target="_top" xlink:title=" ">
<polygon fill="white" stroke="#666666" points="244,-91.5 140,-91.5 140,-61.5 244,-61.5 244,-91.5"/>
<text text-anchor="start" x="148" y="-79.5" font-family="Helvetica,sans-Serif" font-size="10.00">sisi4s::Algorithm::</text>
<text text-anchor="middle" x="192" y="-68.5" font-family="Helvetica,sans-Serif" font-size="10.00">getRealArgument</text>
</a>
</g>
</g>
<!-- Node1&#45;&gt;Node2 -->
<g id="edge1" class="edge">
<title>Node1&#45;&gt;Node2</title>
<path fill="none" stroke="#63b8ff" d="M104.39,-61.44C112.2,-62.8 120.33,-64.21 128.35,-65.61"/>
<polygon fill="#63b8ff" stroke="#63b8ff" points="127.63,-69.03 138.08,-67.3 128.83,-62.13 127.63,-69.03"/>
</g>
<!-- Node8 -->
<g id="node8" class="node">
<title>Node8</title>
<g id="a_node8"><a xlink:href="classsisi4s_1_1Algorithm.html#aec9041b31cb64a42ee1fd79d32774266" target="_top" xlink:title=" ">
<polygon fill="white" stroke="#666666" points="244,-43.5 140,-43.5 140,-13.5 244,-13.5 244,-43.5"/>
<text text-anchor="start" x="148" y="-31.5" font-family="Helvetica,sans-Serif" font-size="10.00">sisi4s::Algorithm::</text>
<text text-anchor="middle" x="192" y="-20.5" font-family="Helvetica,sans-Serif" font-size="10.00">isArgumentGiven</text>
</a>
</g>
</g>
<!-- Node1&#45;&gt;Node8 -->
<g id="edge7" class="edge">
<title>Node1&#45;&gt;Node8</title>
<path fill="none" stroke="#63b8ff" d="M104.39,-43.56C112.2,-42.2 120.33,-40.79 128.35,-39.39"/>
<polygon fill="#63b8ff" stroke="#63b8ff" points="128.83,-42.87 138.08,-37.7 127.63,-35.97 128.83,-42.87"/>
</g>
<!-- Node3 -->
<g id="node3" class="node">
<title>Node3</title>
<g id="a_node3"><a xlink:href="classsisi4s_1_1Algorithm.html#a1e53277220d32a33e20846267c253652" target="_top" xlink:title=" ">
<polygon fill="white" stroke="#666666" points="412.5,-163.5 308.5,-163.5 308.5,-133.5 412.5,-133.5 412.5,-163.5"/>
<text text-anchor="start" x="316.5" y="-151.5" font-family="Helvetica,sans-Serif" font-size="10.00">sisi4s::Algorithm::</text>
<text text-anchor="middle" x="360.5" y="-140.5" font-family="Helvetica,sans-Serif" font-size="10.00">getArgumentData</text>
</a>
</g>
</g>
<!-- Node2&#45;&gt;Node3 -->
<g id="edge2" class="edge">
<title>Node2&#45;&gt;Node3</title>
<path fill="none" stroke="#63b8ff" d="M217.43,-91.8C234.49,-102.03 258.06,-115.26 280,-124.5 285.56,-126.84 291.43,-129.06 297.36,-131.14"/>
<polygon fill="#63b8ff" stroke="#63b8ff" points="296.01,-134.37 306.61,-134.22 298.23,-127.74 296.01,-134.37"/>
</g>
<!-- Node5 -->
<g id="node5" class="node">
<title>Node5</title>
<g id="a_node5"><a xlink:href="classsisi4s_1_1Algorithm.html#a1cb9a5e8f19cd8e6b70bb06738ca9413" target="_top" xlink:title=" ">
<polygon fill="white" stroke="#666666" points="441,-115.5 280,-115.5 280,-85.5 441,-85.5 441,-115.5"/>
<text text-anchor="start" x="288" y="-103.5" font-family="Helvetica,sans-Serif" font-size="10.00">sisi4s::Algorithm::</text>
<text text-anchor="middle" x="360.5" y="-92.5" font-family="Helvetica,sans-Serif" font-size="10.00">getRealArgumentFromInteger</text>
</a>
</g>
</g>
<!-- Node2&#45;&gt;Node5 -->
<g id="edge4" class="edge">
<title>Node2&#45;&gt;Node5</title>
<path fill="none" stroke="#63b8ff" d="M244.31,-83.9C252,-85 260.11,-86.17 268.33,-87.36"/>
<polygon fill="#63b8ff" stroke="#63b8ff" points="267.68,-90.8 278.07,-88.76 268.67,-83.87 267.68,-90.8"/>
</g>
<!-- Node6 -->
<g id="node6" class="node">
<title>Node6</title>
<g id="a_node6"><a xlink:href="classsisi4s_1_1Algorithm.html#a89e59623f1c238a871a4fba19371be7d" target="_top" xlink:title=" ">
<polygon fill="white" stroke="#666666" points="439.5,-67.5 281.5,-67.5 281.5,-37.5 439.5,-37.5 439.5,-67.5"/>
<text text-anchor="start" x="289.5" y="-55.5" font-family="Helvetica,sans-Serif" font-size="10.00">sisi4s::Algorithm::</text>
<text text-anchor="middle" x="360.5" y="-44.5" font-family="Helvetica,sans-Serif" font-size="10.00">getRealArgumentFromTensor</text>
</a>
</g>
</g>
<!-- Node2&#45;&gt;Node6 -->
<g id="edge5" class="edge">
<title>Node2&#45;&gt;Node6</title>
<path fill="none" stroke="#63b8ff" d="M244.31,-69.1C252.51,-67.92 261.19,-66.67 269.97,-65.41"/>
<polygon fill="#63b8ff" stroke="#63b8ff" points="270.21,-68.91 279.61,-64.02 269.21,-61.98 270.21,-68.91"/>
</g>
<!-- Node7 -->
<g id="node7" class="node">
<title>Node7</title>
<g id="a_node7"><a xlink:href="classsisi4s_1_1Data.html#a0ec0b1c7f2356fd43d82ee1dd0246789" target="_top" xlink:title=" ">
<polygon fill="white" stroke="#666666" points="434,-19 287,-19 287,0 434,0 434,-19"/>
<text text-anchor="middle" x="360.5" y="-7" font-family="Helvetica,sans-Serif" font-size="10.00">sisi4s::Data::getTypeName</text>
</a>
</g>
</g>
<!-- Node2&#45;&gt;Node7 -->
<g id="edge6" class="edge">
<title>Node2&#45;&gt;Node7</title>
<path fill="none" stroke="#63b8ff" d="M227.64,-61.05C233.19,-58.33 238.8,-55.43 244,-52.5 260.75,-43.05 262.37,-36.19 280,-28.5 284.94,-26.34 290.17,-24.41 295.49,-22.68"/>
<polygon fill="#63b8ff" stroke="#63b8ff" points="296.44,-26.05 305.02,-19.84 294.44,-19.34 296.44,-26.05"/>
</g>
<!-- Node4 -->
<g id="node4" class="node">
<title>Node4</title>
<g id="a_node4"><a xlink:href="classsisi4s_1_1Data.html#a5b4676e48b4f437d399587e6903f896a" target="_top" xlink:title=" ">
<polygon fill="white" stroke="#666666" points="572,-158 477,-158 477,-139 572,-139 572,-158"/>
<text text-anchor="middle" x="524.5" y="-146" font-family="Helvetica,sans-Serif" font-size="10.00">sisi4s::Data::get</text>
</a>
</g>
</g>
<!-- Node3&#45;&gt;Node4 -->
<g id="edge3" class="edge">
<title>Node3&#45;&gt;Node4</title>
<path fill="none" stroke="#63b8ff" d="M412.76,-148.5C429.56,-148.5 448.35,-148.5 465.61,-148.5"/>
<polygon fill="#63b8ff" stroke="#63b8ff" points="465.18,-152 475.18,-148.5 465.18,-145 465.18,-152"/>
</g>
</g>
</svg>
