<?xml version="1.0" encoding="UTF-8" standalone="no"?>
<!DOCTYPE svg PUBLIC "-//W3C//DTD SVG 1.1//EN"
 "http://www.w3.org/Graphics/SVG/1.1/DTD/svg11.dtd">
<!-- Generated by graphviz version 8.1.0 (0)
 -->
<!-- Title: ghc::filesystem::path::append Pages: 1 -->
<svg width="1074pt" height="460pt"
 viewBox="0.00 0.00 1074.00 460.09" xmlns="http://www.w3.org/2000/svg" xmlns:xlink="http://www.w3.org/1999/xlink">
<g id="graph0" class="graph" transform="scale(1 1) rotate(0) translate(4 456.09)">
<title>ghc::filesystem::path::append</title>
<!-- Node1 -->
<g id="Node000001" class="node">
<title>Node1</title>
<g id="a_Node000001"><a xlink:title=" ">
<polygon fill="#999999" stroke="#666666" points="118,-368.5 0,-368.5 0,-335 118,-335 118,-368.5"/>
<text text-anchor="start" x="8" y="-355" font-family="Helvetica,sans-Serif" font-size="10.00">ghc::filesystem::path</text>
<text text-anchor="middle" x="59" y="-342.25" font-family="Helvetica,sans-Serif" font-size="10.00">::append</text>
</a>
</g>
</g>
<!-- Node2 -->
<g id="Node000002" class="node">
<title>Node2</title>
<g id="a_Node000002"><a xlink:href="classghc_1_1filesystem_1_1path.html#a5971ef1172e3d0788f005e76277ea1ab" target="_top" xlink:title=" ">
<polygon fill="white" stroke="#666666" points="272,-368.5 154,-368.5 154,-335 272,-335 272,-368.5"/>
<text text-anchor="start" x="162" y="-355" font-family="Helvetica,sans-Serif" font-size="10.00">ghc::filesystem::path</text>
<text text-anchor="middle" x="213" y="-342.25" font-family="Helvetica,sans-Serif" font-size="10.00">::append</text>
</a>
</g>
</g>
<!-- Node1&#45;&gt;Node2 -->
<g id="edge1_Node000001_Node000002" class="edge">
<title>Node1&#45;&gt;Node2</title>
<g id="a_edge1_Node000001_Node000002"><a xlink:title=" ">
<path fill="none" stroke="#63b8ff" d="M118.33,-351.75C126.28,-351.75 134.49,-351.75 142.61,-351.75"/>
<polygon fill="#63b8ff" stroke="#63b8ff" points="142.57,-355.25 152.57,-351.75 142.57,-348.25 142.57,-355.25"/>
</a>
</g>
</g>
<!-- Node3 -->
<g id="Node000003" class="node">
<title>Node3</title>
<g id="a_Node000003"><a xlink:href="classghc_1_1filesystem_1_1path.html#aa69fa98adb4093bf9ff74cca6972d5fb" target="_top" xlink:title=" ">
<polygon fill="white" stroke="#666666" points="900,-398.5 782,-398.5 782,-365 900,-365 900,-398.5"/>
<text text-anchor="start" x="790" y="-385" font-family="Helvetica,sans-Serif" font-size="10.00">ghc::filesystem::path</text>
<text text-anchor="middle" x="841" y="-372.25" font-family="Helvetica,sans-Serif" font-size="10.00">::path</text>
</a>
</g>
</g>
<!-- Node2&#45;&gt;Node3 -->
<g id="edge2_Node000002_Node000003" class="edge">
<title>Node2&#45;&gt;Node3</title>
<g id="a_edge2_Node000002_Node000003"><a xlink:title=" ">
<path fill="none" stroke="#63b8ff" d="M247.37,-368.89C293.97,-391.75 381.83,-431.07 462,-445.75 577.68,-466.94 713.74,-428.39 786.95,-402.47"/>
<polygon fill="#63b8ff" stroke="#63b8ff" points="787.63,-405.59 795.85,-398.91 785.26,-399 787.63,-405.59"/>
</a>
</g>
</g>
<!-- Node4 -->
<g id="Node000004" class="node">
<title>Node4</title>
<g id="a_Node000004"><a xlink:href="classghc_1_1filesystem_1_1path.html#aa54c02efef679818c5b2370ea6cae089" target="_top" xlink:title=" ">
<polygon fill="white" stroke="#666666" points="426,-256.5 308,-256.5 308,-223 426,-223 426,-256.5"/>
<text text-anchor="start" x="316" y="-243" font-family="Helvetica,sans-Serif" font-size="10.00">ghc::filesystem::path</text>
<text text-anchor="middle" x="367" y="-230.25" font-family="Helvetica,sans-Serif" font-size="10.00">::operator/=</text>
</a>
</g>
</g>
<!-- Node2&#45;&gt;Node4 -->
<g id="edge3_Node000002_Node000004" class="edge">
<title>Node2&#45;&gt;Node4</title>
<g id="a_edge3_Node000002_Node000004"><a xlink:title=" ">
<path fill="none" stroke="#63b8ff" d="M237.09,-334.74C262.98,-315.66 305.13,-284.6 334.15,-263.22"/>
<polygon fill="#63b8ff" stroke="#63b8ff" points="335.72,-265.67 341.7,-256.92 331.57,-260.03 335.72,-265.67"/>
</a>
</g>
</g>
<!-- Node5 -->
<g id="Node000005" class="node">
<title>Node5</title>
<g id="a_Node000005"><a xlink:href="classghc_1_1filesystem_1_1path.html#acca2e4f0a4593dc4ab2f9cf611fe31cb" target="_top" xlink:title=" ">
<polygon fill="white" stroke="#666666" points="580,-256.5 462,-256.5 462,-223 580,-223 580,-256.5"/>
<text text-anchor="start" x="470" y="-243" font-family="Helvetica,sans-Serif" font-size="10.00">ghc::filesystem::path</text>
<text text-anchor="middle" x="521" y="-230.25" font-family="Helvetica,sans-Serif" font-size="10.00">::assign</text>
</a>
</g>
</g>
<!-- Node4&#45;&gt;Node5 -->
<g id="edge4_Node000004_Node000005" class="edge">
<title>Node4&#45;&gt;Node5</title>
<g id="a_edge4_Node000004_Node000005"><a xlink:title=" ">
<path fill="none" stroke="#63b8ff" d="M426.33,-239.75C434.28,-239.75 442.49,-239.75 450.61,-239.75"/>
<polygon fill="#63b8ff" stroke="#63b8ff" points="450.57,-243.25 460.57,-239.75 450.57,-236.25 450.57,-243.25"/>
</a>
</g>
</g>
<!-- Node6 -->
<g id="Node000006" class="node">
<title>Node6</title>
<g id="a_Node000006"><a xlink:href="classghc_1_1filesystem_1_1path.html#a454abf672252e37cc24b9bb23a24b774" target="_top" xlink:title=" ">
<polygon fill="white" stroke="#666666" points="580,-204.5 462,-204.5 462,-171 580,-171 580,-204.5"/>
<text text-anchor="start" x="470" y="-191" font-family="Helvetica,sans-Serif" font-size="10.00">ghc::filesystem::path</text>
<text text-anchor="middle" x="521" y="-178.25" font-family="Helvetica,sans-Serif" font-size="10.00">::begin</text>
</a>
</g>
</g>
<!-- Node4&#45;&gt;Node6 -->
<g id="edge5_Node000004_Node000006" class="edge">
<title>Node4&#45;&gt;Node6</title>
<g id="a_edge5_Node000004_Node000006"><a xlink:title=" ">
<path fill="none" stroke="#63b8ff" d="M418.19,-222.58C431.35,-218.08 445.69,-213.17 459.33,-208.5"/>
<polygon fill="#63b8ff" stroke="#63b8ff" points="460.27,-211.54 468.6,-204.99 458.01,-204.92 460.27,-211.54"/>
</a>
</g>
</g>
<!-- Node7 -->
<g id="Node000007" class="node">
<title>Node7</title>
<g id="a_Node000007"><a xlink:href="classghc_1_1filesystem_1_1path.html#a66ead77fddc75c0e9ebfbf3f1fe555aa" target="_top" xlink:title=" ">
<polygon fill="white" stroke="#666666" points="734,-192.5 616,-192.5 616,-159 734,-159 734,-192.5"/>
<text text-anchor="start" x="624" y="-179" font-family="Helvetica,sans-Serif" font-size="10.00">ghc::filesystem::path</text>
<text text-anchor="middle" x="675" y="-166.25" font-family="Helvetica,sans-Serif" font-size="10.00">::empty</text>
</a>
</g>
</g>
<!-- Node4&#45;&gt;Node7 -->
<g id="edge6_Node000004_Node000007" class="edge">
<title>Node4&#45;&gt;Node7</title>
<g id="a_edge6_Node000004_Node000007"><a xlink:title=" ">
<path fill="none" stroke="#63b8ff" d="M381.81,-222.72C398.48,-203.66 428.49,-173.84 462,-161.75 507.64,-145.28 562.36,-149.43 604.77,-157.36"/>
<polygon fill="#63b8ff" stroke="#63b8ff" points="604.06,-160.99 614.55,-159.51 605.42,-154.12 604.06,-160.99"/>
</a>
</g>
</g>
<!-- Node8 -->
<g id="Node000008" class="node">
<title>Node8</title>
<g id="a_Node000008"><a xlink:href="classghc_1_1filesystem_1_1path.html#af62a148e592fc444fea5f195896a6a2e" target="_top" xlink:title=" ">
<polygon fill="white" stroke="#666666" points="912,-324.12 770,-324.12 770,-303.38 912,-303.38 912,-324.12"/>
<text text-anchor="middle" x="841" y="-310.62" font-family="Helvetica,sans-Serif" font-size="10.00">ghc::filesystem::path::end</text>
</a>
</g>
</g>
<!-- Node4&#45;&gt;Node8 -->
<g id="edge7_Node000004_Node000008" class="edge">
<title>Node4&#45;&gt;Node8</title>
<g id="a_edge7_Node000004_Node000008"><a xlink:title=" ">
<path fill="none" stroke="#63b8ff" d="M381.81,-256.78C398.48,-275.84 428.49,-305.66 462,-317.75 569.38,-356.5 705.35,-340.74 781.49,-326.66"/>
<polygon fill="#63b8ff" stroke="#63b8ff" points="782.11,-329.92 791.28,-324.6 780.8,-323.04 782.11,-329.92"/>
</a>
</g>
</g>
<!-- Node9 -->
<g id="Node000009" class="node">
<title>Node9</title>
<g id="a_Node000009"><a xlink:href="classghc_1_1filesystem_1_1path.html#ae6ee7d5f8e9eeb1850aa54f538d53e74" target="_top" xlink:title=" ">
<polygon fill="white" stroke="#666666" points="580,-308.5 462,-308.5 462,-275 580,-275 580,-308.5"/>
<text text-anchor="start" x="470" y="-295" font-family="Helvetica,sans-Serif" font-size="10.00">ghc::filesystem::path</text>
<text text-anchor="middle" x="521" y="-282.25" font-family="Helvetica,sans-Serif" font-size="10.00">::has_filename</text>
</a>
</g>
</g>
<!-- Node4&#45;&gt;Node9 -->
<g id="edge8_Node000004_Node000009" class="edge">
<title>Node4&#45;&gt;Node9</title>
<g id="a_edge8_Node000004_Node000009"><a xlink:title=" ">
<path fill="none" stroke="#63b8ff" d="M418.19,-256.92C431.35,-261.42 445.69,-266.33 459.33,-271"/>
<polygon fill="#63b8ff" stroke="#63b8ff" points="458.01,-274.58 468.6,-274.51 460.27,-267.96 458.01,-274.58"/>
</a>
</g>
</g>
<!-- Node12 -->
<g id="Node000012" class="node">
<title>Node12</title>
<g id="a_Node000012"><a xlink:href="classghc_1_1filesystem_1_1path.html#a89dc8832ede96a8987e1beeb97f5c49d" target="_top" xlink:title=" ">
<polygon fill="white" stroke="#666666" points="1066,-121.5 948,-121.5 948,-88 1066,-88 1066,-121.5"/>
<text text-anchor="start" x="956" y="-108" font-family="Helvetica,sans-Serif" font-size="10.00">ghc::filesystem::path</text>
<text text-anchor="middle" x="1007" y="-95.25" font-family="Helvetica,sans-Serif" font-size="10.00">::has_root_directory</text>
</a>
</g>
</g>
<!-- Node4&#45;&gt;Node12 -->
<g id="edge16_Node000004_Node000012" class="edge">
<title>Node4&#45;&gt;Node12</title>
<g id="a_edge16_Node000004_Node000012"><a xlink:title=" ">
<path fill="none" stroke="#63b8ff" d="M379.3,-222.72C394.95,-200.77 425.46,-163.44 462,-146.75 544.78,-108.93 809.77,-104.22 936.81,-104.23"/>
<polygon fill="#63b8ff" stroke="#63b8ff" points="936.55,-107.73 946.55,-104.24 936.56,-100.73 936.55,-107.73"/>
</a>
</g>
</g>
<!-- Node13 -->
<g id="Node000013" class="node">
<title>Node13</title>
<g id="a_Node000013"><a xlink:href="classghc_1_1filesystem_1_1path.html#a249764ef9016ebffb229831477b72b83" target="_top" xlink:title=" ">
<polygon fill="white" stroke="#666666" points="734,-33.5 616,-33.5 616,0 734,0 734,-33.5"/>
<text text-anchor="start" x="624" y="-20" font-family="Helvetica,sans-Serif" font-size="10.00">ghc::filesystem::path</text>
<text text-anchor="middle" x="675" y="-7.25" font-family="Helvetica,sans-Serif" font-size="10.00">::has_root_name</text>
</a>
</g>
</g>
<!-- Node4&#45;&gt;Node13 -->
<g id="edge17_Node000004_Node000013" class="edge">
<title>Node4&#45;&gt;Node13</title>
<g id="a_edge17_Node000004_Node000013"><a xlink:title=" ">
<path fill="none" stroke="#63b8ff" d="M370.06,-222.51C375.94,-181.74 396.81,-79.44 462,-33.75 503.06,-4.97 560.22,-1.94 604.84,-5.44"/>
<polygon fill="#63b8ff" stroke="#63b8ff" points="604.32,-9 614.6,-6.43 604.96,-2.03 604.32,-9"/>
</a>
</g>
</g>
<!-- Node14 -->
<g id="Node000014" class="node">
<title>Node14</title>
<g id="a_Node000014"><a xlink:href="classghc_1_1filesystem_1_1path.html#a50c572019ca1961134581b4c96b47d98" target="_top" xlink:title=" ">
<polygon fill="white" stroke="#666666" points="580,-76.5 462,-76.5 462,-43 580,-43 580,-76.5"/>
<text text-anchor="start" x="470" y="-63" font-family="Helvetica,sans-Serif" font-size="10.00">ghc::filesystem::path</text>
<text text-anchor="middle" x="521" y="-50.25" font-family="Helvetica,sans-Serif" font-size="10.00">::is_absolute</text>
</a>
</g>
</g>
<!-- Node4&#45;&gt;Node14 -->
<g id="edge18_Node000004_Node000014" class="edge">
<title>Node4&#45;&gt;Node14</title>
<g id="a_edge18_Node000004_Node000014"><a xlink:title=" ">
<path fill="none" stroke="#63b8ff" d="M375.25,-222.57C388.61,-192.58 419.68,-130.13 462,-90.75 465.06,-87.9 468.44,-85.23 471.97,-82.75"/>
<polygon fill="#63b8ff" stroke="#63b8ff" points="473.46,-85.31 480,-76.97 469.69,-79.41 473.46,-85.31"/>
</a>
</g>
</g>
<!-- Node15 -->
<g id="Node000015" class="node">
<title>Node15</title>
<g id="a_Node000015"><a xlink:href="classghc_1_1filesystem_1_1path.html#a7f972ea2fdb1c64655aba64cef3705fb" target="_top" xlink:title=" ">
<polygon fill="white" stroke="#666666" points="580,-436.5 462,-436.5 462,-403 580,-403 580,-436.5"/>
<text text-anchor="start" x="470" y="-423" font-family="Helvetica,sans-Serif" font-size="10.00">ghc::filesystem::path</text>
<text text-anchor="middle" x="521" y="-410.25" font-family="Helvetica,sans-Serif" font-size="10.00">::native</text>
</a>
</g>
</g>
<!-- Node4&#45;&gt;Node15 -->
<g id="edge21_Node000004_Node000015" class="edge">
<title>Node4&#45;&gt;Node15</title>
<g id="a_edge21_Node000004_Node000015"><a xlink:title=" ">
<path fill="none" stroke="#63b8ff" d="M375.25,-256.93C388.61,-286.92 419.68,-349.37 462,-388.75 465.06,-391.6 468.44,-394.27 471.97,-396.75"/>
<polygon fill="#63b8ff" stroke="#63b8ff" points="469.69,-400.09 480,-402.53 473.46,-394.19 469.69,-400.09"/>
</a>
</g>
</g>
<!-- Node16 -->
<g id="Node000016" class="node">
<title>Node16</title>
<g id="a_Node000016"><a xlink:href="classghc_1_1filesystem_1_1path.html#ad97c0bd4fa7e692e2c81c94bc40b44a1" target="_top" xlink:title=" ">
<polygon fill="white" stroke="#666666" points="734,-398.5 616,-398.5 616,-365 734,-365 734,-398.5"/>
<text text-anchor="start" x="624" y="-385" font-family="Helvetica,sans-Serif" font-size="10.00">ghc::filesystem::path</text>
<text text-anchor="middle" x="675" y="-372.25" font-family="Helvetica,sans-Serif" font-size="10.00">::root_name</text>
</a>
</g>
</g>
<!-- Node4&#45;&gt;Node16 -->
<g id="edge22_Node000004_Node000016" class="edge">
<title>Node4&#45;&gt;Node16</title>
<g id="a_edge22_Node000004_Node000016"><a xlink:title=" ">
<path fill="none" stroke="#63b8ff" d="M376.95,-256.62C391.26,-281.75 421.81,-328.45 462,-350.75 505.48,-374.88 561.35,-382.26 604.82,-383.81"/>
<polygon fill="#63b8ff" stroke="#63b8ff" points="604.51,-387.33 614.59,-384.08 604.68,-380.33 604.51,-387.33"/>
</a>
</g>
</g>
<!-- Node9&#45;&gt;Node7 -->
<g id="edge9_Node000009_Node000007" class="edge">
<title>Node9&#45;&gt;Node7</title>
<g id="a_edge9_Node000009_Node000007"><a xlink:title=" ">
<path fill="none" stroke="#63b8ff" d="M564.73,-274.64C570.02,-271.93 575.24,-268.95 580,-265.75 587.65,-260.6 623.8,-225.39 648.97,-200.57"/>
<polygon fill="#63b8ff" stroke="#63b8ff" points="651.05,-203.45 655.71,-193.93 646.13,-198.47 651.05,-203.45"/>
</a>
</g>
</g>
<!-- Node10 -->
<g id="Node000010" class="node">
<title>Node10</title>
<g id="a_Node000010"><a xlink:href="classghc_1_1filesystem_1_1path.html#a8fa8cb12e511ef8d951559983d26f018" target="_top" xlink:title=" ">
<polygon fill="white" stroke="#666666" points="734,-308.5 616,-308.5 616,-275 734,-275 734,-308.5"/>
<text text-anchor="start" x="624" y="-295" font-family="Helvetica,sans-Serif" font-size="10.00">ghc::filesystem::path</text>
<text text-anchor="middle" x="675" y="-282.25" font-family="Helvetica,sans-Serif" font-size="10.00">::filename</text>
</a>
</g>
</g>
<!-- Node9&#45;&gt;Node10 -->
<g id="edge10_Node000009_Node000010" class="edge">
<title>Node9&#45;&gt;Node10</title>
<g id="a_edge10_Node000009_Node000010"><a xlink:title=" ">
<path fill="none" stroke="#63b8ff" d="M580.33,-291.75C588.28,-291.75 596.49,-291.75 604.61,-291.75"/>
<polygon fill="#63b8ff" stroke="#63b8ff" points="604.57,-295.25 614.57,-291.75 604.57,-288.25 604.57,-295.25"/>
</a>
</g>
</g>
<!-- Node11 -->
<g id="Node000011" class="node">
<title>Node11</title>
<g id="a_Node000011"><a xlink:href="classghc_1_1filesystem_1_1path.html#ac9f23d51eb3bd601d2abd758f0be2cf5" target="_top" xlink:title=" ">
<polygon fill="white" stroke="#666666" points="900,-263.5 782,-263.5 782,-230 900,-230 900,-263.5"/>
<text text-anchor="start" x="790" y="-250" font-family="Helvetica,sans-Serif" font-size="10.00">ghc::filesystem::path</text>
<text text-anchor="middle" x="841" y="-237.25" font-family="Helvetica,sans-Serif" font-size="10.00">::has_relative_path</text>
</a>
</g>
</g>
<!-- Node9&#45;&gt;Node11 -->
<g id="edge15_Node000009_Node000011" class="edge">
<title>Node9&#45;&gt;Node11</title>
<g id="a_edge15_Node000009_Node000011"><a xlink:title=" ">
<path fill="none" stroke="#63b8ff" d="M577.28,-274.63C589.9,-271.23 603.33,-268.02 616,-265.75 667.35,-256.55 726.15,-251.78 770.62,-249.32"/>
<polygon fill="#63b8ff" stroke="#63b8ff" points="770.8,-252.76 780.6,-248.74 770.43,-245.77 770.8,-252.76"/>
</a>
</g>
</g>
<!-- Node10&#45;&gt;Node3 -->
<g id="edge11_Node000010_Node000003" class="edge">
<title>Node10&#45;&gt;Node3</title>
<g id="a_edge11_Node000010_Node000003"><a xlink:title=" ">
<path fill="none" stroke="#63b8ff" d="M707.23,-308.89C733.37,-323.23 770.85,-343.8 799.32,-359.43"/>
<polygon fill="#63b8ff" stroke="#63b8ff" points="797.15,-362.78 807.6,-364.52 800.52,-356.64 797.15,-362.78"/>
</a>
</g>
</g>
<!-- Node10&#45;&gt;Node8 -->
<g id="edge12_Node000010_Node000008" class="edge">
<title>Node10&#45;&gt;Node8</title>
<g id="a_edge12_Node000010_Node000008"><a xlink:title=" ">
<path fill="none" stroke="#63b8ff" d="M734.28,-299.57C742.22,-300.63 750.48,-301.74 758.73,-302.85"/>
<polygon fill="#63b8ff" stroke="#63b8ff" points="758.17,-306.44 768.55,-304.3 759.1,-299.5 758.17,-306.44"/>
</a>
</g>
</g>
<!-- Node10&#45;&gt;Node11 -->
<g id="edge13_Node000010_Node000011" class="edge">
<title>Node10&#45;&gt;Node11</title>
<g id="a_edge13_Node000010_Node000011"><a xlink:title=" ">
<path fill="none" stroke="#63b8ff" d="M734.28,-275.76C746.29,-272.46 759.05,-268.96 771.39,-265.58"/>
<polygon fill="#63b8ff" stroke="#63b8ff" points="771.91,-268.79 780.63,-262.77 770.06,-262.04 771.91,-268.79"/>
</a>
</g>
</g>
<!-- Node11&#45;&gt;Node12 -->
<g id="edge14_Node000011_Node000012" class="edge">
<title>Node11&#45;&gt;Node12</title>
<g id="a_edge14_Node000011_Node000012"><a xlink:title=" ">
<path fill="none" stroke="#63b8ff" d="M861.78,-229.62C890.84,-204.46 945.19,-157.4 978.23,-128.79"/>
<polygon fill="#63b8ff" stroke="#63b8ff" points="979.88,-131.13 985.15,-121.94 975.3,-125.84 979.88,-131.13"/>
</a>
</g>
</g>
<!-- Node14&#45;&gt;Node12 -->
<g id="edge19_Node000014_Node000012" class="edge">
<title>Node14&#45;&gt;Node12</title>
<g id="a_edge19_Node000014_Node000012"><a xlink:title=" ">
<path fill="none" stroke="#63b8ff" d="M580.27,-63.13C656.61,-67.85 794.58,-77.35 912,-90.75 920.04,-91.67 928.44,-92.75 936.78,-93.89"/>
<polygon fill="#63b8ff" stroke="#63b8ff" points="936.27,-97.5 946.66,-95.43 937.25,-90.56 936.27,-97.5"/>
</a>
</g>
</g>
<!-- Node14&#45;&gt;Node13 -->
<g id="edge20_Node000014_Node000013" class="edge">
<title>Node14&#45;&gt;Node13</title>
<g id="a_edge20_Node000014_Node000013"><a xlink:title=" ">
<path fill="none" stroke="#63b8ff" d="M580.33,-43.25C588.46,-40.95 596.86,-38.57 605.16,-36.22"/>
<polygon fill="#63b8ff" stroke="#63b8ff" points="605.9,-39.37 614.57,-33.28 604,-32.63 605.9,-39.37"/>
</a>
</g>
</g>
<!-- Node16&#45;&gt;Node3 -->
<g id="edge23_Node000016_Node000003" class="edge">
<title>Node16&#45;&gt;Node3</title>
<g id="a_edge23_Node000016_Node000003"><a xlink:title=" ">
<path fill="none" stroke="#63b8ff" d="M734.28,-381.75C746.05,-381.75 758.54,-381.75 770.65,-381.75"/>
<polygon fill="#63b8ff" stroke="#63b8ff" points="770.63,-385.25 780.63,-381.75 770.63,-378.25 770.63,-385.25"/>
</a>
</g>
</g>
</g>
</svg>
