<?xml version="1.0" encoding="UTF-8" standalone="no"?>
<!DOCTYPE svg PUBLIC "-//W3C//DTD SVG 1.1//EN"
 "http://www.w3.org/Graphics/SVG/1.1/DTD/svg11.dtd">
<!-- Generated by graphviz version 9.0.0 (0)
 -->
<!-- Title: ghc::filesystem::path::begin Pages: 1 -->
<svg width="808pt" height="239pt"
 viewBox="0.00 0.00 808.00 238.50" xmlns="http://www.w3.org/2000/svg" xmlns:xlink="http://www.w3.org/1999/xlink">
<g id="graph0" class="graph" transform="scale(1 1) rotate(0) translate(4 234.5)">
<title>ghc::filesystem::path::begin</title>
<!-- Node1 -->
<g id="Node000001" class="node">
<title>Node1</title>
<g id="a_Node000001"><a xlink:title=" ">
<polygon fill="#999999" stroke="#666666" points="800,-161.5 682,-161.5 682,-128 800,-128 800,-161.5"/>
<text text-anchor="start" x="690" y="-148" font-family="Helvetica,sans-Serif" font-size="10.00">ghc::filesystem::path</text>
<text text-anchor="middle" x="741" y="-135.25" font-family="Helvetica,sans-Serif" font-size="10.00">::begin</text>
</a>
</g>
</g>
<!-- Node2 -->
<g id="Node000002" class="node">
<title>Node2</title>
<g id="a_Node000002"><a xlink:href="classghc_1_1filesystem_1_1path.html#a42185a97ee9c69f52a70ce798a33f275" target="_top" xlink:title=" ">
<polygon fill="white" stroke="#666666" points="646,-187.5 528,-187.5 528,-154 646,-154 646,-187.5"/>
<text text-anchor="start" x="536" y="-174" font-family="Helvetica,sans-Serif" font-size="10.00">ghc::filesystem::path</text>
<text text-anchor="middle" x="587" y="-161.25" font-family="Helvetica,sans-Serif" font-size="10.00">::lexically_relative</text>
</a>
</g>
</g>
<!-- Node1&#45;&gt;Node2 -->
<g id="edge1_Node000001_Node000002" class="edge">
<title>Node1&#45;&gt;Node2</title>
<g id="a_edge1_Node000001_Node000002"><a xlink:title=" ">
<path fill="none" stroke="#63b8ff" d="M670.43,-156.65C662.4,-158.02 654.28,-159.41 646.43,-160.76"/>
<polygon fill="#63b8ff" stroke="#63b8ff" points="670.91,-160.12 680.18,-154.98 669.73,-153.22 670.91,-160.12"/>
</a>
</g>
</g>
<!-- Node6 -->
<g id="Node000006" class="node">
<title>Node6</title>
<g id="a_Node000006"><a xlink:href="classghc_1_1filesystem_1_1path.html#aa54c02efef679818c5b2370ea6cae089" target="_top" xlink:title=" ">
<polygon fill="white" stroke="#666666" points="646,-135.5 528,-135.5 528,-102 646,-102 646,-135.5"/>
<text text-anchor="start" x="536" y="-122" font-family="Helvetica,sans-Serif" font-size="10.00">ghc::filesystem::path</text>
<text text-anchor="middle" x="587" y="-109.25" font-family="Helvetica,sans-Serif" font-size="10.00">::operator/=</text>
</a>
</g>
</g>
<!-- Node1&#45;&gt;Node6 -->
<g id="edge5_Node000001_Node000006" class="edge">
<title>Node1&#45;&gt;Node6</title>
<g id="a_edge5_Node000001_Node000006"><a xlink:title=" ">
<path fill="none" stroke="#63b8ff" d="M670.43,-132.85C662.4,-131.48 654.28,-130.09 646.43,-128.74"/>
<polygon fill="#63b8ff" stroke="#63b8ff" points="669.73,-136.28 680.18,-134.52 670.91,-129.38 669.73,-136.28"/>
</a>
</g>
</g>
<!-- Node3 -->
<g id="Node000003" class="node">
<title>Node3</title>
<g id="a_Node000003"><a xlink:href="classghc_1_1filesystem_1_1path.html#adb0e3b01125a40da996f9c58465d4c14" target="_top" xlink:title=" ">
<polygon fill="white" stroke="#666666" points="484.5,-230.5 365.75,-230.5 365.75,-197 484.5,-197 484.5,-230.5"/>
<text text-anchor="start" x="373.75" y="-217" font-family="Helvetica,sans-Serif" font-size="10.00">ghc::filesystem::path</text>
<text text-anchor="middle" x="425.12" y="-204.25" font-family="Helvetica,sans-Serif" font-size="10.00">::lexically_proximate</text>
</a>
</g>
</g>
<!-- Node2&#45;&gt;Node3 -->
<g id="edge2_Node000002_Node000003" class="edge">
<title>Node2&#45;&gt;Node3</title>
<g id="a_edge2_Node000002_Node000003"><a xlink:title=" ">
<path fill="none" stroke="#63b8ff" d="M516.83,-189.35C506.15,-192.23 495.21,-195.17 484.79,-197.97"/>
<polygon fill="#63b8ff" stroke="#63b8ff" points="517.62,-192.77 526.37,-186.79 515.8,-186.01 517.62,-192.77"/>
</a>
</g>
</g>
<!-- Node5 -->
<g id="Node000005" class="node">
<title>Node5</title>
<g id="a_Node000005"><a xlink:href="namespaceghc_1_1filesystem.html#ab1f9e9d8c3bd79b032e0a45307c85df4" target="_top" xlink:title=" ">
<polygon fill="white" stroke="#666666" points="492,-179.12 358.25,-179.12 358.25,-158.38 492,-158.38 492,-179.12"/>
<text text-anchor="middle" x="425.12" y="-165.62" font-family="Helvetica,sans-Serif" font-size="10.00">ghc::filesystem::relative</text>
</a>
</g>
</g>
<!-- Node2&#45;&gt;Node5 -->
<g id="edge4_Node000002_Node000005" class="edge">
<title>Node2&#45;&gt;Node5</title>
<g id="a_edge4_Node000002_Node000005"><a xlink:title=" ">
<path fill="none" stroke="#63b8ff" d="M516.32,-169.88C508.37,-169.78 500.28,-169.68 492.38,-169.58"/>
<polygon fill="#63b8ff" stroke="#63b8ff" points="516.27,-173.38 526.32,-170 516.36,-166.38 516.27,-173.38"/>
</a>
</g>
</g>
<!-- Node4 -->
<g id="Node000004" class="node">
<title>Node4</title>
<g id="a_Node000004"><a xlink:href="namespaceghc_1_1filesystem.html#a6e2b11202cc9b071bbdb16d87c197719" target="_top" xlink:title=" ">
<polygon fill="white" stroke="#666666" points="322.25,-224.12 175.75,-224.12 175.75,-203.38 322.25,-203.38 322.25,-224.12"/>
<text text-anchor="middle" x="249" y="-210.62" font-family="Helvetica,sans-Serif" font-size="10.00">ghc::filesystem::proximate</text>
</a>
</g>
</g>
<!-- Node3&#45;&gt;Node4 -->
<g id="edge3_Node000003_Node000004" class="edge">
<title>Node3&#45;&gt;Node4</title>
<g id="a_edge3_Node000003_Node000004"><a xlink:title=" ">
<path fill="none" stroke="#63b8ff" d="M354.44,-213.75C343.94,-213.75 333.09,-213.75 322.54,-213.75"/>
<polygon fill="#63b8ff" stroke="#63b8ff" points="354.15,-217.25 364.15,-213.75 354.15,-210.25 354.15,-217.25"/>
</a>
</g>
</g>
<!-- Node7 -->
<g id="Node000007" class="node">
<title>Node7</title>
<g id="a_Node000007"><a xlink:href="classghc_1_1filesystem_1_1path.html#a3254005a2445165b80da6baeb30b003b" target="_top" xlink:title=" ">
<polygon fill="white" stroke="#666666" points="484.12,-137.5 366.12,-137.5 366.12,-104 484.12,-104 484.12,-137.5"/>
<text text-anchor="start" x="374.12" y="-124" font-family="Helvetica,sans-Serif" font-size="10.00">ghc::filesystem::path</text>
<text text-anchor="middle" x="425.12" y="-111.25" font-family="Helvetica,sans-Serif" font-size="10.00">::append</text>
</a>
</g>
</g>
<!-- Node6&#45;&gt;Node7 -->
<g id="edge6_Node000006_Node000007" class="edge">
<title>Node6&#45;&gt;Node7</title>
<g id="a_edge6_Node000006_Node000007"><a xlink:title=" ">
<path fill="none" stroke="#63b8ff" d="M516.42,-119.62C505.78,-119.75 494.89,-119.89 484.52,-120.02"/>
<polygon fill="#63b8ff" stroke="#63b8ff" points="516.36,-123.12 526.32,-119.5 516.27,-116.12 516.36,-123.12"/>
</a>
</g>
</g>
<!-- Node8 -->
<g id="Node000008" class="node">
<title>Node8</title>
<g id="a_Node000008"><a xlink:href="classghc_1_1filesystem_1_1path.html#a5971ef1172e3d0788f005e76277ea1ab" target="_top" xlink:title=" ">
<polygon fill="white" stroke="#666666" points="484.12,-85.5 366.12,-85.5 366.12,-52 484.12,-52 484.12,-85.5"/>
<text text-anchor="start" x="374.12" y="-72" font-family="Helvetica,sans-Serif" font-size="10.00">ghc::filesystem::path</text>
<text text-anchor="middle" x="425.12" y="-59.25" font-family="Helvetica,sans-Serif" font-size="10.00">::append</text>
</a>
</g>
</g>
<!-- Node6&#45;&gt;Node8 -->
<g id="edge7_Node000006_Node000008" class="edge">
<title>Node6&#45;&gt;Node8</title>
<g id="a_edge7_Node000006_Node000008"><a xlink:title=" ">
<path fill="none" stroke="#63b8ff" d="M520.25,-98.19C507.29,-94.13 493.81,-89.92 481.25,-85.99"/>
<polygon fill="#63b8ff" stroke="#63b8ff" points="518.95,-101.45 529.54,-101.09 521.04,-94.77 518.95,-101.45"/>
</a>
</g>
</g>
<!-- Node9 -->
<g id="Node000009" class="node">
<title>Node9</title>
<g id="a_Node000009"><a xlink:href="classghc_1_1filesystem_1_1path.html#ac18cfd247ec398479e00ca2f391b96c9" target="_top" xlink:title=" ">
<polygon fill="white" stroke="#666666" points="308,-137.5 190,-137.5 190,-104 308,-104 308,-137.5"/>
<text text-anchor="start" x="198" y="-124" font-family="Helvetica,sans-Serif" font-size="10.00">ghc::filesystem::path</text>
<text text-anchor="middle" x="249" y="-111.25" font-family="Helvetica,sans-Serif" font-size="10.00">::append</text>
</a>
</g>
</g>
<!-- Node8&#45;&gt;Node9 -->
<g id="edge8_Node000008_Node000009" class="edge">
<title>Node8&#45;&gt;Node9</title>
<g id="a_edge8_Node000008_Node000009"><a xlink:title=" ">
<path fill="none" stroke="#63b8ff" d="M355.79,-89.16C339.89,-93.9 323.12,-98.91 307.73,-103.51"/>
<polygon fill="#63b8ff" stroke="#63b8ff" points="356.6,-92.57 365.18,-86.35 354.59,-85.86 356.6,-92.57"/>
</a>
</g>
</g>
<!-- Node10 -->
<g id="Node000010" class="node">
<title>Node10</title>
<g id="a_Node000010"><a xlink:href="classghc_1_1filesystem_1_1path.html#a17f5318b66b012b6029be904ab31dbb6" target="_top" xlink:title=" ">
<polygon fill="white" stroke="#666666" points="308,-85.5 190,-85.5 190,-52 308,-52 308,-85.5"/>
<text text-anchor="start" x="198" y="-72" font-family="Helvetica,sans-Serif" font-size="10.00">ghc::filesystem::path</text>
<text text-anchor="middle" x="249" y="-59.25" font-family="Helvetica,sans-Serif" font-size="10.00">::operator/=</text>
</a>
</g>
</g>
<!-- Node8&#45;&gt;Node10 -->
<g id="edge9_Node000008_Node000010" class="edge">
<title>Node8&#45;&gt;Node10</title>
<g id="a_edge9_Node000008_Node000010"><a xlink:title=" ">
<path fill="none" stroke="#63b8ff" d="M354.19,-68.75C338.97,-68.75 323.03,-68.75 308.31,-68.75"/>
<polygon fill="#63b8ff" stroke="#63b8ff" points="354.15,-72.25 364.15,-68.75 354.15,-65.25 354.15,-72.25"/>
</a>
</g>
</g>
<!-- Node11 -->
<g id="Node000011" class="node">
<title>Node11</title>
<g id="a_Node000011"><a xlink:href="classghc_1_1filesystem_1_1path.html#afd229f3954e0cb7c6699748de02bee60" target="_top" xlink:title=" ">
<polygon fill="white" stroke="#666666" points="308,-33.5 190,-33.5 190,0 308,0 308,-33.5"/>
<text text-anchor="start" x="198" y="-20" font-family="Helvetica,sans-Serif" font-size="10.00">ghc::filesystem::path</text>
<text text-anchor="middle" x="249" y="-7.25" font-family="Helvetica,sans-Serif" font-size="10.00">::replace_filename</text>
</a>
</g>
</g>
<!-- Node8&#45;&gt;Node11 -->
<g id="edge10_Node000008_Node000011" class="edge">
<title>Node8&#45;&gt;Node11</title>
<g id="a_edge10_Node000008_Node000011"><a xlink:title=" ">
<path fill="none" stroke="#63b8ff" d="M355.79,-48.34C339.89,-43.6 323.12,-38.59 307.73,-33.99"/>
<polygon fill="#63b8ff" stroke="#63b8ff" points="354.59,-51.64 365.18,-51.15 356.6,-44.93 354.59,-51.64"/>
</a>
</g>
</g>
<!-- Node12 -->
<g id="Node000012" class="node">
<title>Node12</title>
<g id="a_Node000012"><a xlink:href="classghc_1_1filesystem_1_1directory__entry.html#a05e2035adac4a0a7e414a22bac702e98" target="_top" xlink:title=" ">
<polygon fill="white" stroke="#666666" points="139.75,-33.5 0,-33.5 0,0 139.75,0 139.75,-33.5"/>
<text text-anchor="start" x="8" y="-20" font-family="Helvetica,sans-Serif" font-size="10.00">ghc::filesystem::directory</text>
<text text-anchor="middle" x="69.88" y="-7.25" font-family="Helvetica,sans-Serif" font-size="10.00">_entry::replace_filename</text>
</a>
</g>
</g>
<!-- Node11&#45;&gt;Node12 -->
<g id="edge11_Node000011_Node000012" class="edge">
<title>Node11&#45;&gt;Node12</title>
<g id="a_edge11_Node000011_Node000012"><a xlink:title=" ">
<path fill="none" stroke="#63b8ff" d="M178.18,-16.75C165.65,-16.75 152.59,-16.75 140.07,-16.75"/>
<polygon fill="#63b8ff" stroke="#63b8ff" points="178,-20.25 188,-16.75 178,-13.25 178,-20.25"/>
</a>
</g>
</g>
</g>
</svg>
