<?xml version="1.0" encoding="UTF-8" standalone="no"?>
<!DOCTYPE svg PUBLIC "-//W3C//DTD SVG 1.1//EN"
 "http://www.w3.org/Graphics/SVG/1.1/DTD/svg11.dtd">
<!-- Generated by graphviz version 9.0.0 (0)
 -->
<!-- Title: sisi4s::LineNumberStream Pages: 1 -->
<svg width="146pt" height="236pt"
 viewBox="0.00 0.00 146.00 236.00" xmlns="http://www.w3.org/2000/svg" xmlns:xlink="http://www.w3.org/1999/xlink">
<g id="graph0" class="graph" transform="scale(1 1) rotate(0) translate(4 232)">
<title>sisi4s::LineNumberStream</title>
<!-- Node1 -->
<g id="Node000001" class="node">
<title>Node1</title>
<g id="a_Node000001"><a xlink:title="Wrapper for an input stream providing tracking of the current line and the current column during stre...">
<polygon fill="#999999" stroke="none" points="138,-228 0,-228 0,0 138,0 138,-228"/>
<text text-anchor="start" x="4.88" y="-214.5" font-family="Helvetica,sans-Serif" font-size="10.00">sisi4s::LineNumberStream</text>
<text text-anchor="start" x="5.88" y="-198.5" font-family="Helvetica,sans-Serif" font-size="10.00">#</text>
<text text-anchor="start" x="20" y="-198.5" font-family="Helvetica,sans-Serif" font-size="10.00">line</text>
<text text-anchor="start" x="5.88" y="-182.5" font-family="Helvetica,sans-Serif" font-size="10.00">#</text>
<text text-anchor="start" x="20" y="-182.5" font-family="Helvetica,sans-Serif" font-size="10.00">column</text>
<text text-anchor="start" x="5.88" y="-166.5" font-family="Helvetica,sans-Serif" font-size="10.00">#</text>
<text text-anchor="start" x="20" y="-166.5" font-family="Helvetica,sans-Serif" font-size="10.00">tabWidth</text>
<text text-anchor="start" x="5.88" y="-150.5" font-family="Helvetica,sans-Serif" font-size="10.00">#</text>
<text text-anchor="start" x="20" y="-150.5" font-family="Helvetica,sans-Serif" font-size="10.00">stream</text>
<text text-anchor="start" x="5.88" y="-134.5" font-family="Helvetica,sans-Serif" font-size="10.00">#</text>
<text text-anchor="start" x="20" y="-134.5" font-family="Helvetica,sans-Serif" font-size="10.00">source</text>
<text text-anchor="start" x="5.88" y="-118.5" font-family="Helvetica,sans-Serif" font-size="10.00">+</text>
<text text-anchor="start" x="20" y="-118.5" font-family="Helvetica,sans-Serif" font-size="10.00">LineNumberStream()</text>
<text text-anchor="start" x="5.88" y="-102.5" font-family="Helvetica,sans-Serif" font-size="10.00">+</text>
<text text-anchor="start" x="20" y="-102.5" font-family="Helvetica,sans-Serif" font-size="10.00">~LineNumberStream()</text>
<text text-anchor="start" x="5.88" y="-86.5" font-family="Helvetica,sans-Serif" font-size="10.00">+</text>
<text text-anchor="start" x="20" y="-86.5" font-family="Helvetica,sans-Serif" font-size="10.00">peek()</text>
<text text-anchor="start" x="5.88" y="-70.5" font-family="Helvetica,sans-Serif" font-size="10.00">+</text>
<text text-anchor="start" x="20" y="-70.5" font-family="Helvetica,sans-Serif" font-size="10.00">get()</text>
<text text-anchor="start" x="5.88" y="-54.5" font-family="Helvetica,sans-Serif" font-size="10.00">+</text>
<text text-anchor="start" x="20" y="-54.5" font-family="Helvetica,sans-Serif" font-size="10.00">getStream()</text>
<text text-anchor="start" x="5.88" y="-38.5" font-family="Helvetica,sans-Serif" font-size="10.00">+</text>
<text text-anchor="start" x="20" y="-38.5" font-family="Helvetica,sans-Serif" font-size="10.00">getSource()</text>
<text text-anchor="start" x="5.88" y="-22.5" font-family="Helvetica,sans-Serif" font-size="10.00">+</text>
<text text-anchor="start" x="20" y="-22.5" font-family="Helvetica,sans-Serif" font-size="10.00">getLine()</text>
<text text-anchor="start" x="5.88" y="-6.5" font-family="Helvetica,sans-Serif" font-size="10.00">+</text>
<text text-anchor="start" x="20" y="-6.5" font-family="Helvetica,sans-Serif" font-size="10.00">getColumn()</text>
<polygon fill="#666666" stroke="#666666" points="0,-210 0,-210 138,-210 138,-210 0,-210"/>
<polygon fill="#666666" stroke="#666666" points="0,-130 0,-130 18,-130 18,-130 0,-130"/>
<polygon fill="#666666" stroke="#666666" points="18,-130 18,-130 138,-130 138,-130 18,-130"/>
<polygon fill="none" stroke="#666666" points="0,0 0,-228 138,-228 138,0 0,0"/>
</a>
</g>
</g>
</g>
</svg>
