<?xml version="1.0" encoding="UTF-8" standalone="no"?>
<!DOCTYPE svg PUBLIC "-//W3C//DTD SVG 1.1//EN"
 "http://www.w3.org/Graphics/SVG/1.1/DTD/svg11.dtd">
<!-- Generated by graphviz version 9.0.0 (0)
 -->
<!-- Title: CLI::Option::description Pages: 1 -->
<svg width="453pt" height="68pt"
 viewBox="0.00 0.00 452.75 67.75" xmlns="http://www.w3.org/2000/svg" xmlns:xlink="http://www.w3.org/1999/xlink">
<g id="graph0" class="graph" transform="scale(1 1) rotate(0) translate(4 63.75)">
<title>CLI::Option::description</title>
<!-- Node1 -->
<g id="Node000001" class="node">
<title>Node1</title>
<g id="a_Node000001"><a xlink:title="Set the description.">
<polygon fill="#999999" stroke="#666666" points="444.75,-39.75 315.5,-39.75 315.5,-19 444.75,-19 444.75,-39.75"/>
<text text-anchor="middle" x="380.12" y="-26.25" font-family="Helvetica,sans-Serif" font-size="10.00">CLI::Option::description</text>
</a>
</g>
</g>
<!-- Node2 -->
<g id="Node000002" class="node">
<title>Node2</title>
<g id="a_Node000002"><a xlink:href="namespaceCLI.html#a6cb6f8bfff8c49385fb24f6f23a23c21" target="_top" xlink:title="Helper function to mark an option as deprecated.">
<polygon fill="white" stroke="#666666" points="279.5,-39.75 157.75,-39.75 157.75,-19 279.5,-19 279.5,-39.75"/>
<text text-anchor="middle" x="218.62" y="-26.25" font-family="Helvetica,sans-Serif" font-size="10.00">CLI::deprecate_option</text>
</a>
</g>
</g>
<!-- Node1&#45;&gt;Node2 -->
<g id="edge1_Node000001_Node000002" class="edge">
<title>Node1&#45;&gt;Node2</title>
<g id="a_edge1_Node000001_Node000002"><a xlink:title=" ">
<path fill="none" stroke="#63b8ff" d="M303.9,-29.38C295.88,-29.38 287.79,-29.38 279.97,-29.38"/>
<polygon fill="#63b8ff" stroke="#63b8ff" points="303.66,-32.88 313.66,-29.38 303.66,-25.88 303.66,-32.88"/>
</a>
</g>
</g>
<!-- Node3 -->
<g id="Node000003" class="node">
<title>Node3</title>
<g id="a_Node000003"><a xlink:href="namespaceCLI.html#a5e83d92a6ec271c2439141feaede1136" target="_top" xlink:title="Helper function to mark an option as deprecated.">
<polygon fill="white" stroke="#666666" points="121.75,-59.75 0,-59.75 0,-39 121.75,-39 121.75,-59.75"/>
<text text-anchor="middle" x="60.88" y="-46.25" font-family="Helvetica,sans-Serif" font-size="10.00">CLI::deprecate_option</text>
</a>
</g>
</g>
<!-- Node2&#45;&gt;Node3 -->
<g id="edge2_Node000002_Node000003" class="edge">
<title>Node2&#45;&gt;Node3</title>
<g id="a_edge2_Node000002_Node000003"><a xlink:title=" ">
<path fill="none" stroke="#63b8ff" d="M146.17,-38.55C138.15,-39.58 130.05,-40.62 122.19,-41.63"/>
<polygon fill="#63b8ff" stroke="#63b8ff" points="146.43,-42.05 155.91,-37.3 145.54,-35.1 146.43,-42.05"/>
</a>
</g>
</g>
<!-- Node4 -->
<g id="Node000004" class="node">
<title>Node4</title>
<g id="a_Node000004"><a xlink:href="namespaceCLI.html#ad6d89b5d1aba2ebdca5f94534d658cab" target="_top" xlink:title="Helper function to mark an option as deprecated.">
<polygon fill="white" stroke="#666666" points="121.75,-20.75 0,-20.75 0,0 121.75,0 121.75,-20.75"/>
<text text-anchor="middle" x="60.88" y="-7.25" font-family="Helvetica,sans-Serif" font-size="10.00">CLI::deprecate_option</text>
</a>
</g>
</g>
<!-- Node2&#45;&gt;Node4 -->
<g id="edge3_Node000002_Node000004" class="edge">
<title>Node2&#45;&gt;Node4</title>
<g id="a_edge3_Node000002_Node000004"><a xlink:title=" ">
<path fill="none" stroke="#63b8ff" d="M146.17,-20.66C138.15,-19.68 130.05,-18.69 122.19,-17.73"/>
<polygon fill="#63b8ff" stroke="#63b8ff" points="145.56,-24.11 155.91,-21.85 146.4,-17.16 145.56,-24.11"/>
</a>
</g>
</g>
</g>
</svg>
