<?xml version="1.0" encoding="UTF-8" standalone="no"?>
<!DOCTYPE svg PUBLIC "-//W3C//DTD SVG 1.1//EN"
 "http://www.w3.org/Graphics/SVG/1.1/DTD/svg11.dtd">
<!-- Generated by graphviz version 7.1.0 (0)
 -->
<!-- Title: ghc::filesystem::path::string Pages: 1 -->
<svg width="311pt" height="230pt"
 viewBox="0.00 0.00 311.00 230.00" xmlns="http://www.w3.org/2000/svg" xmlns:xlink="http://www.w3.org/1999/xlink">
<g id="graph0" class="graph" transform="scale(1 1) rotate(0) translate(4 226)">
<title>ghc::filesystem::path::string</title>
<!-- Node1 -->
<g id="node1" class="node">
<title>Node1</title>
<g id="a_node1"><a xlink:title=" ">
<polygon fill="#999999" stroke="#666666" points="303,-126 184,-126 184,-96 303,-96 303,-126"/>
<text text-anchor="start" x="192" y="-114" font-family="Helvetica,sans-Serif" font-size="10.00">ghc::filesystem::path</text>
<text text-anchor="middle" x="243.5" y="-103" font-family="Helvetica,sans-Serif" font-size="10.00">::string</text>
</a>
</g>
</g>
<!-- Node2 -->
<g id="node2" class="node">
<title>Node2</title>
<g id="a_node2"><a xlink:href="classghc_1_1filesystem_1_1filesystem__error.html#a3cbffd82b0ecb7c436fc3ee52a11327b" target="_top" xlink:title=" ">
<polygon fill="white" stroke="#666666" points="148,-222 0,-222 0,-192 148,-192 148,-222"/>
<text text-anchor="start" x="8" y="-210" font-family="Helvetica,sans-Serif" font-size="10.00">ghc::filesystem::filesystem</text>
<text text-anchor="middle" x="74" y="-199" font-family="Helvetica,sans-Serif" font-size="10.00">_error::filesystem_error</text>
</a>
</g>
</g>
<!-- Node1&#45;&gt;Node2 -->
<g id="edge1" class="edge">
<title>Node1&#45;&gt;Node2</title>
<path fill="none" stroke="#63b8ff" d="M217.65,-133.64C199.45,-149.26 173.57,-169.55 148,-183 141.98,-186.17 135.46,-189.03 128.88,-191.57"/>
<polygon fill="#63b8ff" stroke="#63b8ff" points="219.56,-136.62 224.79,-127.4 214.96,-131.35 219.56,-136.62"/>
</g>
<!-- Node3 -->
<g id="node3" class="node">
<title>Node3</title>
<g id="a_node3"><a xlink:href="classghc_1_1filesystem_1_1basic__filebuf.html#a78159dfdfa77a0e883c0934b0c5fb348" target="_top" xlink:title=" ">
<polygon fill="white" stroke="#666666" points="135,-174 13,-174 13,-144 135,-144 135,-174"/>
<text text-anchor="start" x="21" y="-162" font-family="Helvetica,sans-Serif" font-size="10.00">ghc::filesystem::basic</text>
<text text-anchor="middle" x="74" y="-151" font-family="Helvetica,sans-Serif" font-size="10.00">_filebuf::open</text>
</a>
</g>
</g>
<!-- Node1&#45;&gt;Node3 -->
<g id="edge2" class="edge">
<title>Node1&#45;&gt;Node3</title>
<path fill="none" stroke="#63b8ff" d="M177.6,-129.6C161.47,-134.22 144.35,-139.13 128.82,-143.58"/>
<polygon fill="#63b8ff" stroke="#63b8ff" points="178.48,-132.99 187.12,-126.87 176.55,-126.26 178.48,-132.99"/>
</g>
<!-- Node4 -->
<g id="node4" class="node">
<title>Node4</title>
<g id="a_node4"><a xlink:href="classghc_1_1filesystem_1_1basic__ifstream.html#a69ed3f7f477c1467d11cf9df419752ca" target="_top" xlink:title=" ">
<polygon fill="white" stroke="#666666" points="135,-126 13,-126 13,-96 135,-96 135,-126"/>
<text text-anchor="start" x="21" y="-114" font-family="Helvetica,sans-Serif" font-size="10.00">ghc::filesystem::basic</text>
<text text-anchor="middle" x="74" y="-103" font-family="Helvetica,sans-Serif" font-size="10.00">_ifstream::open</text>
</a>
</g>
</g>
<!-- Node1&#45;&gt;Node4 -->
<g id="edge3" class="edge">
<title>Node1&#45;&gt;Node4</title>
<path fill="none" stroke="#63b8ff" d="M172.66,-111C160.23,-111 147.38,-111 135.25,-111"/>
<polygon fill="#63b8ff" stroke="#63b8ff" points="172.4,-114.5 182.4,-111 172.4,-107.5 172.4,-114.5"/>
</g>
<!-- Node5 -->
<g id="node5" class="node">
<title>Node5</title>
<g id="a_node5"><a xlink:href="classghc_1_1filesystem_1_1basic__fstream.html#afe5f308435aa9b790f3297c57bd0d15a" target="_top" xlink:title=" ">
<polygon fill="white" stroke="#666666" points="135,-78 13,-78 13,-48 135,-48 135,-78"/>
<text text-anchor="start" x="21" y="-66" font-family="Helvetica,sans-Serif" font-size="10.00">ghc::filesystem::basic</text>
<text text-anchor="middle" x="74" y="-55" font-family="Helvetica,sans-Serif" font-size="10.00">_fstream::open</text>
</a>
</g>
</g>
<!-- Node1&#45;&gt;Node5 -->
<g id="edge4" class="edge">
<title>Node1&#45;&gt;Node5</title>
<path fill="none" stroke="#63b8ff" d="M177.6,-92.4C161.47,-87.78 144.35,-82.87 128.82,-78.42"/>
<polygon fill="#63b8ff" stroke="#63b8ff" points="176.55,-95.74 187.12,-95.13 178.48,-89.01 176.55,-95.74"/>
</g>
<!-- Node6 -->
<g id="node6" class="node">
<title>Node6</title>
<g id="a_node6"><a xlink:href="classghc_1_1filesystem_1_1basic__ofstream.html#afff6b84e15c6d023db9e3fd99b475c2c" target="_top" xlink:title=" ">
<polygon fill="white" stroke="#666666" points="135,-30 13,-30 13,0 135,0 135,-30"/>
<text text-anchor="start" x="21" y="-18" font-family="Helvetica,sans-Serif" font-size="10.00">ghc::filesystem::basic</text>
<text text-anchor="middle" x="74" y="-7" font-family="Helvetica,sans-Serif" font-size="10.00">_ofstream::open</text>
</a>
</g>
</g>
<!-- Node1&#45;&gt;Node6 -->
<g id="edge5" class="edge">
<title>Node1&#45;&gt;Node6</title>
<path fill="none" stroke="#63b8ff" d="M217.65,-88.36C199.45,-72.74 173.57,-52.45 148,-39 141.98,-35.83 135.46,-32.97 128.88,-30.43"/>
<polygon fill="#63b8ff" stroke="#63b8ff" points="214.96,-90.65 224.79,-94.6 219.56,-85.38 214.96,-90.65"/>
</g>
</g>
</svg>
