<?xml version="1.0" encoding="UTF-8" standalone="no"?>
<!DOCTYPE svg PUBLIC "-//W3C//DTD SVG 1.1//EN"
 "http://www.w3.org/Graphics/SVG/1.1/DTD/svg11.dtd">
<!-- Generated by graphviz version 7.0.0 (0)
 -->
<!-- Title: sisi4s::TypedData Pages: 1 -->
<svg width="516pt" height="500pt"
 viewBox="0.00 0.00 516.00 500.00" xmlns="http://www.w3.org/2000/svg" xmlns:xlink="http://www.w3.org/1999/xlink">
<g id="graph0" class="graph" transform="scale(1 1) rotate(0) translate(4 496)">
<title>sisi4s::TypedData</title>
<!-- Node1 -->
<g id="node1" class="node">
<title>Node1</title>
<g id="a_node1"><a xlink:title=" ">
<polygon fill="#999999" stroke="#666666" points="319.5,-294 211.5,-294 211.5,-220 319.5,-220 319.5,-294"/>
<text text-anchor="middle" x="265.5" y="-282" font-family="Helvetica,sans-Serif" font-size="10.00">{sisi4s::TypedData</text>
<text text-anchor="start" x="219.5" y="-271" font-family="Helvetica,sans-Serif" font-size="10.00">|# nextId</text>
<text text-anchor="start" x="219.5" y="-260" font-family="Helvetica,sans-Serif" font-size="10.00">|# TypedData()</text>
<text text-anchor="start" x="219.5" y="-249" font-family="Helvetica,sans-Serif" font-size="10.00"># TypedData()</text>
<text text-anchor="start" x="219.5" y="-238" font-family="Helvetica,sans-Serif" font-size="10.00"># nextName()</text>
<text text-anchor="middle" x="265.5" y="-227" font-family="Helvetica,sans-Serif" font-size="10.00">}</text>
</a>
</g>
</g>
<!-- Node3 -->
<g id="node3" class="node">
<title>Node3</title>
<g id="a_node3"><a xlink:href="classsisi4s_1_1BooleanData.html" target="_top" xlink:title=" ">
<polygon fill="white" stroke="#666666" points="187,-184 68,-184 68,-121 187,-121 187,-184"/>
<text text-anchor="middle" x="127.5" y="-172" font-family="Helvetica,sans-Serif" font-size="10.00">{sisi4s::BooleanData</text>
<text text-anchor="start" x="76" y="-161" font-family="Helvetica,sans-Serif" font-size="10.00">|+ value</text>
<text text-anchor="start" x="76" y="-150" font-family="Helvetica,sans-Serif" font-size="10.00">|+ BooleanData()</text>
<text text-anchor="start" x="76" y="-139" font-family="Helvetica,sans-Serif" font-size="10.00">+ BooleanData()</text>
<text text-anchor="middle" x="127.5" y="-128" font-family="Helvetica,sans-Serif" font-size="10.00">}</text>
</a>
</g>
</g>
<!-- Node1&#45;&gt;Node3 -->
<g id="edge2" class="edge">
<title>Node1&#45;&gt;Node3</title>
<path fill="none" stroke="#63b8ff" d="M207.24,-212.73C194.42,-203.2 181.09,-193.3 169.08,-184.38"/>
<polygon fill="none" stroke="#63b8ff" points="205.13,-215.52 215.24,-218.67 209.3,-209.9 205.13,-215.52"/>
</g>
<!-- Node4 -->
<g id="node4" class="node">
<title>Node4</title>
<g id="a_node4"><a xlink:href="classsisi4s_1_1NumericData.html" target="_top" xlink:title=" ">
<polygon fill="white" stroke="#666666" points="326,-178.5 205,-178.5 205,-126.5 326,-126.5 326,-178.5"/>
<text text-anchor="middle" x="265.5" y="-166.5" font-family="Helvetica,sans-Serif" font-size="10.00">{sisi4s::NumericData</text>
<text text-anchor="start" x="213" y="-155.5" font-family="Helvetica,sans-Serif" font-size="10.00">||# NumericData()</text>
<text text-anchor="start" x="213" y="-144.5" font-family="Helvetica,sans-Serif" font-size="10.00"># NumericData()</text>
<text text-anchor="middle" x="265.5" y="-133.5" font-family="Helvetica,sans-Serif" font-size="10.00">}</text>
</a>
</g>
</g>
<!-- Node1&#45;&gt;Node4 -->
<g id="edge3" class="edge">
<title>Node1&#45;&gt;Node4</title>
<path fill="none" stroke="#63b8ff" d="M265.5,-208.28C265.5,-198.13 265.5,-187.79 265.5,-178.88"/>
<polygon fill="none" stroke="#63b8ff" points="262,-208.06 265.5,-218.06 269,-208.06 262,-208.06"/>
</g>
<!-- Node9 -->
<g id="node9" class="node">
<title>Node9</title>
<g id="a_node9"><a xlink:href="classsisi4s_1_1TextData.html" target="_top" xlink:title=" ">
<polygon fill="white" stroke="#666666" points="444.5,-184 344.5,-184 344.5,-121 444.5,-121 444.5,-184"/>
<text text-anchor="middle" x="394.5" y="-172" font-family="Helvetica,sans-Serif" font-size="10.00">{sisi4s::TextData</text>
<text text-anchor="start" x="352.5" y="-161" font-family="Helvetica,sans-Serif" font-size="10.00">|+ value</text>
<text text-anchor="start" x="352.5" y="-150" font-family="Helvetica,sans-Serif" font-size="10.00">|+ TextData()</text>
<text text-anchor="start" x="352.5" y="-139" font-family="Helvetica,sans-Serif" font-size="10.00">+ TextData()</text>
<text text-anchor="middle" x="394.5" y="-128" font-family="Helvetica,sans-Serif" font-size="10.00">}</text>
</a>
</g>
</g>
<!-- Node1&#45;&gt;Node9 -->
<g id="edge8" class="edge">
<title>Node1&#45;&gt;Node9</title>
<path fill="none" stroke="#63b8ff" d="M320.31,-212.45C332.19,-203.01 344.52,-193.21 355.63,-184.38"/>
<polygon fill="none" stroke="#63b8ff" points="318.18,-209.67 312.53,-218.63 322.54,-215.15 318.18,-209.67"/>
</g>
<!-- Node2 -->
<g id="node2" class="node">
<title>Node2</title>
<g id="a_node2"><a xlink:href="classsisi4s_1_1Data.html" target="_top" xlink:title=" ">
<polygon fill="white" stroke="#666666" points="335.5,-492 195.5,-492 195.5,-330 335.5,-330 335.5,-492"/>
<text text-anchor="middle" x="265.5" y="-480" font-family="Helvetica,sans-Serif" font-size="10.00">{sisi4s::Data</text>
<text text-anchor="start" x="203.5" y="-469" font-family="Helvetica,sans-Serif" font-size="10.00">|# name</text>
<text text-anchor="start" x="203.5" y="-458" font-family="Helvetica,sans-Serif" font-size="10.00"># typeName</text>
<text text-anchor="start" x="203.5" y="-447" font-family="Helvetica,sans-Serif" font-size="10.00"># stage</text>
<text text-anchor="start" x="203.5" y="-436" font-family="Helvetica,sans-Serif" font-size="10.00"># dataMap</text>
<text text-anchor="start" x="203.5" y="-425" font-family="Helvetica,sans-Serif" font-size="10.00"># nextAnynomousDataId</text>
<text text-anchor="start" x="203.5" y="-414" font-family="Helvetica,sans-Serif" font-size="10.00">|+ Data()</text>
<text text-anchor="start" x="203.5" y="-403" font-family="Helvetica,sans-Serif" font-size="10.00">+ ~Data()</text>
<text text-anchor="start" x="203.5" y="-392" font-family="Helvetica,sans-Serif" font-size="10.00">+ getName()</text>
<text text-anchor="start" x="203.5" y="-381" font-family="Helvetica,sans-Serif" font-size="10.00">+ getTypeName()</text>
<text text-anchor="start" x="203.5" y="-370" font-family="Helvetica,sans-Serif" font-size="10.00">+ getStage()</text>
<text text-anchor="start" x="203.5" y="-359" font-family="Helvetica,sans-Serif" font-size="10.00">+ get()</text>
<text text-anchor="start" x="203.5" y="-348" font-family="Helvetica,sans-Serif" font-size="10.00"># Data()</text>
<text text-anchor="middle" x="265.5" y="-337" font-family="Helvetica,sans-Serif" font-size="10.00">}</text>
</a>
</g>
</g>
<!-- Node2&#45;&gt;Node1 -->
<g id="edge1" class="edge">
<title>Node2&#45;&gt;Node1</title>
<path fill="none" stroke="#63b8ff" d="M265.5,-318.3C265.5,-309.84 265.5,-301.65 265.5,-294.18"/>
<polygon fill="none" stroke="#63b8ff" points="262,-318.04 265.5,-328.04 269,-318.04 262,-318.04"/>
</g>
<!-- Node5 -->
<g id="node5" class="node">
<title>Node5</title>
<g id="a_node5"><a xlink:href="structsisi4s_1_1ContainerData.html" target="_top" xlink:title=" ">
<polygon fill="white" stroke="#666666" points="127,-85 0,-85 0,0 127,0 127,-85"/>
<text text-anchor="start" x="8" y="-73" font-family="Helvetica,sans-Serif" font-size="10.00">{sisi4s::ContainerData</text>
<text text-anchor="middle" x="63.5" y="-62" font-family="Helvetica,sans-Serif" font-size="10.00">&lt; F, C &gt;</text>
<text text-anchor="start" x="8" y="-51" font-family="Helvetica,sans-Serif" font-size="10.00">|+ value</text>
<text text-anchor="start" x="8" y="-40" font-family="Helvetica,sans-Serif" font-size="10.00">|+ ContainerData()</text>
<text text-anchor="start" x="8" y="-29" font-family="Helvetica,sans-Serif" font-size="10.00">+ ContainerData()</text>
<text text-anchor="start" x="8" y="-18" font-family="Helvetica,sans-Serif" font-size="10.00">+ ~ContainerData()</text>
<text text-anchor="middle" x="63.5" y="-7" font-family="Helvetica,sans-Serif" font-size="10.00">}</text>
</a>
</g>
</g>
<!-- Node4&#45;&gt;Node5 -->
<g id="edge4" class="edge">
<title>Node4&#45;&gt;Node5</title>
<path fill="none" stroke="#63b8ff" d="M204.95,-120.93C183.25,-109.81 158.69,-97.02 136.5,-85 133.42,-83.33 130.28,-81.61 127.12,-79.87"/>
<polygon fill="none" stroke="#63b8ff" points="203.17,-123.95 213.67,-125.39 206.36,-117.72 203.17,-123.95"/>
</g>
<!-- Node6 -->
<g id="node6" class="node">
<title>Node6</title>
<g id="a_node6"><a xlink:href="classsisi4s_1_1IntegerData.html" target="_top" xlink:title=" ">
<polygon fill="white" stroke="#666666" points="259.5,-74 145.5,-74 145.5,-11 259.5,-11 259.5,-74"/>
<text text-anchor="middle" x="202.5" y="-62" font-family="Helvetica,sans-Serif" font-size="10.00">{sisi4s::IntegerData</text>
<text text-anchor="start" x="153.5" y="-51" font-family="Helvetica,sans-Serif" font-size="10.00">|+ value</text>
<text text-anchor="start" x="153.5" y="-40" font-family="Helvetica,sans-Serif" font-size="10.00">|+ IntegerData()</text>
<text text-anchor="start" x="153.5" y="-29" font-family="Helvetica,sans-Serif" font-size="10.00">+ IntegerData()</text>
<text text-anchor="middle" x="202.5" y="-18" font-family="Helvetica,sans-Serif" font-size="10.00">}</text>
</a>
</g>
</g>
<!-- Node4&#45;&gt;Node6 -->
<g id="edge5" class="edge">
<title>Node4&#45;&gt;Node6</title>
<path fill="none" stroke="#63b8ff" d="M244.95,-116.28C237.08,-102.78 228.17,-87.51 220.55,-74.44"/>
<polygon fill="none" stroke="#63b8ff" points="241.9,-118 249.97,-124.87 247.95,-114.47 241.9,-118"/>
</g>
<!-- Node7 -->
<g id="node7" class="node">
<title>Node7</title>
<g id="a_node7"><a xlink:href="classsisi4s_1_1RealData.html" target="_top" xlink:title=" ">
<polygon fill="white" stroke="#666666" points="379,-74 278,-74 278,-11 379,-11 379,-74"/>
<text text-anchor="middle" x="328.5" y="-62" font-family="Helvetica,sans-Serif" font-size="10.00">{sisi4s::RealData</text>
<text text-anchor="start" x="286" y="-51" font-family="Helvetica,sans-Serif" font-size="10.00">|+ value</text>
<text text-anchor="start" x="286" y="-40" font-family="Helvetica,sans-Serif" font-size="10.00">|+ RealData()</text>
<text text-anchor="start" x="286" y="-29" font-family="Helvetica,sans-Serif" font-size="10.00">+ RealData()</text>
<text text-anchor="middle" x="328.5" y="-18" font-family="Helvetica,sans-Serif" font-size="10.00">}</text>
</a>
</g>
</g>
<!-- Node4&#45;&gt;Node7 -->
<g id="edge6" class="edge">
<title>Node4&#45;&gt;Node7</title>
<path fill="none" stroke="#63b8ff" d="M286.05,-116.28C293.92,-102.78 302.83,-87.51 310.45,-74.44"/>
<polygon fill="none" stroke="#63b8ff" points="283.05,-114.47 281.03,-124.87 289.1,-118 283.05,-114.47"/>
</g>
<!-- Node8 -->
<g id="node8" class="node">
<title>Node8</title>
<g id="a_node8"><a xlink:href="classsisi4s_1_1TensorData.html" target="_top" xlink:title=" ">
<polygon fill="white" stroke="#666666" points="508,-85 397,-85 397,0 508,0 508,-85"/>
<text text-anchor="start" x="405" y="-73" font-family="Helvetica,sans-Serif" font-size="10.00">{sisi4s::TensorData</text>
<text text-anchor="middle" x="452.5" y="-62" font-family="Helvetica,sans-Serif" font-size="10.00">&lt; F, T &gt;</text>
<text text-anchor="start" x="405" y="-51" font-family="Helvetica,sans-Serif" font-size="10.00">|+ value</text>
<text text-anchor="start" x="405" y="-40" font-family="Helvetica,sans-Serif" font-size="10.00">|+ TensorData()</text>
<text text-anchor="start" x="405" y="-29" font-family="Helvetica,sans-Serif" font-size="10.00">+ TensorData()</text>
<text text-anchor="start" x="405" y="-18" font-family="Helvetica,sans-Serif" font-size="10.00">+ ~TensorData()</text>
<text text-anchor="middle" x="452.5" y="-7" font-family="Helvetica,sans-Serif" font-size="10.00">}</text>
</a>
</g>
</g>
<!-- Node4&#45;&gt;Node8 -->
<g id="edge7" class="edge">
<title>Node4&#45;&gt;Node8</title>
<path fill="none" stroke="#63b8ff" d="M324.06,-120.64C344.32,-109.69 367.07,-97.07 387.5,-85 390.5,-83.23 393.56,-81.39 396.63,-79.51"/>
<polygon fill="none" stroke="#63b8ff" points="322.5,-117.51 315.36,-125.33 325.82,-123.67 322.5,-117.51"/>
</g>
</g>
</svg>
