<?xml version="1.0" encoding="UTF-8" standalone="no"?>
<!DOCTYPE svg PUBLIC "-//W3C//DTD SVG 1.1//EN"
 "http://www.w3.org/Graphics/SVG/1.1/DTD/svg11.dtd">
<!-- Generated by graphviz version 5.0.1 (0)
 -->
<!-- Title: sisi4s::CoulombVertexSingularVectors::dryRun Pages: 1 -->
<svg width="652pt" height="180pt"
 viewBox="0.00 0.00 652.00 180.00" xmlns="http://www.w3.org/2000/svg" xmlns:xlink="http://www.w3.org/1999/xlink">
<g id="graph0" class="graph" transform="scale(1 1) rotate(0) translate(4 176)">
<title>sisi4s::CoulombVertexSingularVectors::dryRun</title>
<!-- Node1 -->
<g id="node1" class="node">
<title>Node1</title>
<g id="a_node1"><a xlink:title="Dry run for calculating the left singular vectors of .">
<polygon fill="#999999" stroke="#666666" points="165,-124 0,-124 0,-94 165,-94 165,-124"/>
<text text-anchor="start" x="8" y="-112" font-family="Helvetica,sans-Serif" font-size="10.00">sisi4s::CoulombVertexSingular</text>
<text text-anchor="middle" x="82.5" y="-101" font-family="Helvetica,sans-Serif" font-size="10.00">Vectors::dryRun</text>
</a>
</g>
</g>
<!-- Node2 -->
<g id="node2" class="node">
<title>Node2</title>
<g id="a_node2"><a xlink:href="classsisi4s_1_1Algorithm.html#a5db14be3b0d33bf80218a37223e27667" target="_top" xlink:title=" ">
<polygon fill="white" stroke="#666666" points="316,-124 201,-124 201,-94 316,-94 316,-124"/>
<text text-anchor="start" x="209" y="-112" font-family="Helvetica,sans-Serif" font-size="10.00">sisi4s::Algorithm::</text>
<text text-anchor="middle" x="258.5" y="-101" font-family="Helvetica,sans-Serif" font-size="10.00">getIntegerArgument</text>
</a>
</g>
</g>
<!-- Node1&#45;&gt;Node2 -->
<g id="edge1" class="edge">
<title>Node1&#45;&gt;Node2</title>
<path fill="none" stroke="#63b8ff" d="M165.15,-109C173.69,-109 182.29,-109 190.64,-109"/>
<polygon fill="#63b8ff" stroke="#63b8ff" points="190.67,-112.5 200.67,-109 190.67,-105.5 190.67,-112.5"/>
</g>
<!-- Node6 -->
<g id="node6" class="node">
<title>Node6</title>
<g id="a_node6"><a xlink:href="classsisi4s_1_1Algorithm.html#a36c632fbb19dae4ce2f415705fa5cbcb" target="_top" xlink:title=" ">
<polygon fill="white" stroke="#666666" points="310.5,-76 206.5,-76 206.5,-46 310.5,-46 310.5,-76"/>
<text text-anchor="start" x="214.5" y="-64" font-family="Helvetica,sans-Serif" font-size="10.00">sisi4s::Algorithm::</text>
<text text-anchor="middle" x="258.5" y="-53" font-family="Helvetica,sans-Serif" font-size="10.00">getRealArgument</text>
</a>
</g>
</g>
<!-- Node1&#45;&gt;Node6 -->
<g id="edge5" class="edge">
<title>Node1&#45;&gt;Node6</title>
<path fill="none" stroke="#63b8ff" d="M138.08,-93.94C156.66,-88.82 177.55,-83.05 196.61,-77.8"/>
<polygon fill="#63b8ff" stroke="#63b8ff" points="197.67,-81.14 206.38,-75.1 195.81,-74.39 197.67,-81.14"/>
</g>
<!-- Node9 -->
<g id="node9" class="node">
<title>Node9</title>
<g id="a_node9"><a xlink:href="classsisi4s_1_1Algorithm.html#a338a44c8fd4d6be3b32a6d5e71dfe180" target="_top" xlink:title=" ">
<polygon fill="white" stroke="#666666" points="314.5,-172 202.5,-172 202.5,-142 314.5,-142 314.5,-172"/>
<text text-anchor="start" x="210.5" y="-160" font-family="Helvetica,sans-Serif" font-size="10.00">sisi4s::Algorithm::</text>
<text text-anchor="middle" x="258.5" y="-149" font-family="Helvetica,sans-Serif" font-size="10.00">getTensorArgument</text>
</a>
</g>
</g>
<!-- Node1&#45;&gt;Node9 -->
<g id="edge10" class="edge">
<title>Node1&#45;&gt;Node9</title>
<path fill="none" stroke="#63b8ff" d="M138.08,-124.06C155.65,-128.9 175.28,-134.32 193.47,-139.34"/>
<polygon fill="#63b8ff" stroke="#63b8ff" points="192.55,-142.71 203.12,-142 194.41,-135.96 192.55,-142.71"/>
</g>
<!-- Node3 -->
<g id="node3" class="node">
<title>Node3</title>
<g id="a_node3"><a xlink:href="classsisi4s_1_1Algorithm.html#a1e53277220d32a33e20846267c253652" target="_top" xlink:title=" ">
<polygon fill="white" stroke="#666666" points="484.5,-166 380.5,-166 380.5,-136 484.5,-136 484.5,-166"/>
<text text-anchor="start" x="388.5" y="-154" font-family="Helvetica,sans-Serif" font-size="10.00">sisi4s::Algorithm::</text>
<text text-anchor="middle" x="432.5" y="-143" font-family="Helvetica,sans-Serif" font-size="10.00">getArgumentData</text>
</a>
</g>
</g>
<!-- Node2&#45;&gt;Node3 -->
<g id="edge2" class="edge">
<title>Node2&#45;&gt;Node3</title>
<path fill="none" stroke="#63b8ff" d="M316.3,-122.87C333.56,-127.08 352.6,-131.73 370.14,-136.02"/>
<polygon fill="#63b8ff" stroke="#63b8ff" points="369.73,-139.52 380.27,-138.49 371.39,-132.72 369.73,-139.52"/>
</g>
<!-- Node5 -->
<g id="node5" class="node">
<title>Node5</title>
<g id="a_node5"><a xlink:href="classsisi4s_1_1Data.html#a0ec0b1c7f2356fd43d82ee1dd0246789" target="_top" xlink:title=" ">
<polygon fill="white" stroke="#666666" points="506,-117.5 359,-117.5 359,-98.5 506,-98.5 506,-117.5"/>
<text text-anchor="middle" x="432.5" y="-105.5" font-family="Helvetica,sans-Serif" font-size="10.00">sisi4s::Data::getTypeName</text>
</a>
</g>
</g>
<!-- Node2&#45;&gt;Node5 -->
<g id="edge4" class="edge">
<title>Node2&#45;&gt;Node5</title>
<path fill="none" stroke="#63b8ff" d="M316.3,-108.67C326.71,-108.61 337.77,-108.54 348.76,-108.48"/>
<polygon fill="#63b8ff" stroke="#63b8ff" points="348.84,-111.98 358.81,-108.42 348.79,-104.98 348.84,-111.98"/>
</g>
<!-- Node4 -->
<g id="node4" class="node">
<title>Node4</title>
<g id="a_node4"><a xlink:href="classsisi4s_1_1Data.html#a5b4676e48b4f437d399587e6903f896a" target="_top" xlink:title=" ">
<polygon fill="white" stroke="#666666" points="644,-160.5 549,-160.5 549,-141.5 644,-141.5 644,-160.5"/>
<text text-anchor="middle" x="596.5" y="-148.5" font-family="Helvetica,sans-Serif" font-size="10.00">sisi4s::Data::get</text>
</a>
</g>
</g>
<!-- Node3&#45;&gt;Node4 -->
<g id="edge3" class="edge">
<title>Node3&#45;&gt;Node4</title>
<path fill="none" stroke="#63b8ff" d="M484.76,-151C501.96,-151 521.24,-151 538.83,-151"/>
<polygon fill="#63b8ff" stroke="#63b8ff" points="538.97,-154.5 548.97,-151 538.97,-147.5 538.97,-154.5"/>
</g>
<!-- Node6&#45;&gt;Node3 -->
<g id="edge6" class="edge">
<title>Node6&#45;&gt;Node3</title>
<path fill="none" stroke="#63b8ff" d="M301.14,-76.05C306.35,-78.68 311.44,-81.66 316,-85 335.84,-99.52 331.4,-113.57 352,-127 357.76,-130.76 364.14,-133.95 370.7,-136.65"/>
<polygon fill="#63b8ff" stroke="#63b8ff" points="369.8,-140.05 380.39,-140.27 372.25,-133.49 369.8,-140.05"/>
</g>
<!-- Node6&#45;&gt;Node5 -->
<g id="edge9" class="edge">
<title>Node6&#45;&gt;Node5</title>
<path fill="none" stroke="#63b8ff" d="M310.83,-75.58C324.22,-79.35 338.64,-83.36 352,-87 362.65,-89.9 374.12,-92.97 384.94,-95.83"/>
<polygon fill="#63b8ff" stroke="#63b8ff" points="384.1,-99.23 394.66,-98.4 385.88,-92.46 384.1,-99.23"/>
</g>
<!-- Node7 -->
<g id="node7" class="node">
<title>Node7</title>
<g id="a_node7"><a xlink:href="classsisi4s_1_1Algorithm.html#a1cb9a5e8f19cd8e6b70bb06738ca9413" target="_top" xlink:title=" ">
<polygon fill="white" stroke="#666666" points="513,-78 352,-78 352,-48 513,-48 513,-78"/>
<text text-anchor="start" x="360" y="-66" font-family="Helvetica,sans-Serif" font-size="10.00">sisi4s::Algorithm::</text>
<text text-anchor="middle" x="432.5" y="-55" font-family="Helvetica,sans-Serif" font-size="10.00">getRealArgumentFromInteger</text>
</a>
</g>
</g>
<!-- Node6&#45;&gt;Node7 -->
<g id="edge7" class="edge">
<title>Node6&#45;&gt;Node7</title>
<path fill="none" stroke="#63b8ff" d="M310.64,-61.59C320.47,-61.71 331.03,-61.83 341.67,-61.96"/>
<polygon fill="#63b8ff" stroke="#63b8ff" points="341.84,-65.46 351.88,-62.07 341.92,-58.46 341.84,-65.46"/>
</g>
<!-- Node8 -->
<g id="node8" class="node">
<title>Node8</title>
<g id="a_node8"><a xlink:href="classsisi4s_1_1Algorithm.html#a89e59623f1c238a871a4fba19371be7d" target="_top" xlink:title=" ">
<polygon fill="white" stroke="#666666" points="511.5,-30 353.5,-30 353.5,0 511.5,0 511.5,-30"/>
<text text-anchor="start" x="361.5" y="-18" font-family="Helvetica,sans-Serif" font-size="10.00">sisi4s::Algorithm::</text>
<text text-anchor="middle" x="432.5" y="-7" font-family="Helvetica,sans-Serif" font-size="10.00">getRealArgumentFromTensor</text>
</a>
</g>
</g>
<!-- Node6&#45;&gt;Node8 -->
<g id="edge8" class="edge">
<title>Node6&#45;&gt;Node8</title>
<path fill="none" stroke="#63b8ff" d="M310.64,-47.32C327.85,-42.72 347.3,-37.52 365.48,-32.66"/>
<polygon fill="#63b8ff" stroke="#63b8ff" points="366.39,-36.04 375.15,-30.07 364.58,-29.27 366.39,-36.04"/>
</g>
<!-- Node9&#45;&gt;Node3 -->
<g id="edge11" class="edge">
<title>Node9&#45;&gt;Node3</title>
<path fill="none" stroke="#63b8ff" d="M314.87,-155.07C332.52,-154.45 352.15,-153.77 370.19,-153.14"/>
<polygon fill="#63b8ff" stroke="#63b8ff" points="370.45,-156.63 380.32,-152.79 370.2,-149.64 370.45,-156.63"/>
</g>
<!-- Node9&#45;&gt;Node5 -->
<g id="edge12" class="edge">
<title>Node9&#45;&gt;Node5</title>
<path fill="none" stroke="#63b8ff" d="M303.51,-141.94C318.78,-136.92 336.07,-131.48 352,-127 360.64,-124.57 369.85,-122.18 378.84,-119.97"/>
<polygon fill="#63b8ff" stroke="#63b8ff" points="379.95,-123.3 388.84,-117.54 378.3,-116.5 379.95,-123.3"/>
</g>
</g>
</svg>
