<?xml version="1.0" encoding="UTF-8" standalone="no"?>
<!DOCTYPE svg PUBLIC "-//W3C//DTD SVG 1.1//EN"
 "http://www.w3.org/Graphics/SVG/1.1/DTD/svg11.dtd">
<!-- Generated by graphviz version 8.1.0 (0)
 -->
<!-- Title: sisi4s::LogStream Pages: 1 -->
<svg width="337pt" height="442pt"
 viewBox="0.00 0.00 337.00 441.75" xmlns="http://www.w3.org/2000/svg" xmlns:xlink="http://www.w3.org/1999/xlink">
<g id="graph0" class="graph" transform="scale(1 1) rotate(0) translate(4 437.75)">
<title>sisi4s::LogStream</title>
<!-- Node1 -->
<g id="Node000001" class="node">
<title>Node1</title>
<g id="a_Node000001"><a xlink:title=" ">
<polygon fill="#999999" stroke="none" points="182.5,-100 86.5,-100 86.5,0 182.5,0 182.5,-100"/>
<text text-anchor="start" x="91.38" y="-86.5" font-family="Helvetica,sans-Serif" font-size="10.00">sisi4s::LogStream</text>
<text text-anchor="start" x="94.38" y="-70.5" font-family="Helvetica,sans-Serif" font-size="10.00">#</text>
<text text-anchor="start" x="110.5" y="-70.5" font-family="Helvetica,sans-Serif" font-size="10.00">logFile</text>
<text text-anchor="start" x="94.38" y="-54.5" font-family="Helvetica,sans-Serif" font-size="10.00">#</text>
<text text-anchor="start" x="110.5" y="-54.5" font-family="Helvetica,sans-Serif" font-size="10.00">logLevel</text>
<text text-anchor="start" x="94.38" y="-38.5" font-family="Helvetica,sans-Serif" font-size="10.00">#</text>
<text text-anchor="start" x="110.5" y="-38.5" font-family="Helvetica,sans-Serif" font-size="10.00">indent</text>
<text text-anchor="start" x="94.38" y="-22.5" font-family="Helvetica,sans-Serif" font-size="10.00">+</text>
<text text-anchor="start" x="110.5" y="-22.5" font-family="Helvetica,sans-Serif" font-size="10.00">LogStream()</text>
<text text-anchor="start" x="94.38" y="-6.5" font-family="Helvetica,sans-Serif" font-size="10.00">+</text>
<text text-anchor="start" x="110.5" y="-6.5" font-family="Helvetica,sans-Serif" font-size="10.00">prepare()</text>
<polygon fill="#666666" stroke="#666666" points="86.5,-82 86.5,-82 182.5,-82 182.5,-82 86.5,-82"/>
<polygon fill="#666666" stroke="#666666" points="86.5,-34 86.5,-34 108.5,-34 108.5,-34 86.5,-34"/>
<polygon fill="#666666" stroke="#666666" points="108.5,-34 108.5,-34 182.5,-34 182.5,-34 108.5,-34"/>
<polygon fill="none" stroke="#666666" points="86.5,0 86.5,-100 182.5,-100 182.5,0 86.5,0"/>
</a>
</g>
</g>
<!-- Node2 -->
<g id="Node000002" class="node">
<title>Node2</title>
<g id="a_Node000002"><a xlink:title=" ">
<polygon fill="white" stroke="none" points="71,-272.75 0,-272.75 0,-220.75 71,-220.75 71,-272.75"/>
<text text-anchor="start" x="4.75" y="-259.25" font-family="Helvetica,sans-Serif" font-size="10.00">std::ostream</text>
<text text-anchor="start" x="34" y="-243.25" font-family="Helvetica,sans-Serif" font-size="10.00"> </text>
<text text-anchor="start" x="34" y="-227.25" font-family="Helvetica,sans-Serif" font-size="10.00"> </text>
<polygon fill="#666666" stroke="#666666" points="0,-254.75 0,-254.75 71,-254.75 71,-254.75 0,-254.75"/>
<polygon fill="#666666" stroke="#666666" points="0,-238.75 0,-238.75 71,-238.75 71,-238.75 0,-238.75"/>
<polygon fill="none" stroke="#666666" points="0,-220.75 0,-272.75 71,-272.75 71,-220.75 0,-220.75"/>
</a>
</g>
</g>
<!-- Node2&#45;&gt;Node1 -->
<g id="edge1_Node000001_Node000002" class="edge">
<title>Node2&#45;&gt;Node1</title>
<g id="a_edge1_Node000001_Node000002"><a xlink:title=" ">
<path fill="none" stroke="#63b8ff" d="M50.91,-210.98C59.34,-192.37 70.15,-169.14 80.5,-148.75 88.66,-132.67 98.02,-115.37 106.62,-99.87"/>
<polygon fill="none" stroke="#63b8ff" points="47.41,-209.25 46.49,-219.8 53.79,-212.12 47.41,-209.25"/>
</a>
</g>
</g>
<!-- Node3 -->
<g id="Node000003" class="node">
<title>Node3</title>
<g id="a_Node000003"><a xlink:href="classsisi4s_1_1LogBuffer.html" target="_top" xlink:title=" ">
<polygon fill="white" stroke="none" points="179.5,-296.75 89.5,-296.75 89.5,-196.75 179.5,-196.75 179.5,-296.75"/>
<text text-anchor="start" x="94.38" y="-283.25" font-family="Helvetica,sans-Serif" font-size="10.00">sisi4s::LogBuffer</text>
<text text-anchor="start" x="97.38" y="-267.25" font-family="Helvetica,sans-Serif" font-size="10.00">#</text>
<text text-anchor="start" x="113.5" y="-267.25" font-family="Helvetica,sans-Serif" font-size="10.00">log</text>
<text text-anchor="start" x="97.38" y="-251.25" font-family="Helvetica,sans-Serif" font-size="10.00">#</text>
<text text-anchor="start" x="113.5" y="-251.25" font-family="Helvetica,sans-Serif" font-size="10.00">out</text>
<text text-anchor="start" x="97.38" y="-235.25" font-family="Helvetica,sans-Serif" font-size="10.00">+</text>
<text text-anchor="start" x="113.5" y="-235.25" font-family="Helvetica,sans-Serif" font-size="10.00">LogBuffer()</text>
<text text-anchor="start" x="97.38" y="-219.25" font-family="Helvetica,sans-Serif" font-size="10.00">#</text>
<text text-anchor="start" x="113.5" y="-219.25" font-family="Helvetica,sans-Serif" font-size="10.00">overflow()</text>
<text text-anchor="start" x="97.38" y="-203.25" font-family="Helvetica,sans-Serif" font-size="10.00">#</text>
<text text-anchor="start" x="113.5" y="-203.25" font-family="Helvetica,sans-Serif" font-size="10.00">sync()</text>
<polygon fill="#666666" stroke="#666666" points="89.5,-278.75 89.5,-278.75 179.5,-278.75 179.5,-278.75 89.5,-278.75"/>
<polygon fill="#666666" stroke="#666666" points="89.5,-246.75 89.5,-246.75 111.5,-246.75 111.5,-246.75 89.5,-246.75"/>
<polygon fill="#666666" stroke="#666666" points="111.5,-246.75 111.5,-246.75 179.5,-246.75 179.5,-246.75 111.5,-246.75"/>
<polygon fill="none" stroke="#666666" points="89.5,-196.75 89.5,-296.75 179.5,-296.75 179.5,-196.75 89.5,-196.75"/>
</a>
</g>
</g>
<!-- Node3&#45;&gt;Node1 -->
<g id="edge2_Node000001_Node000003" class="edge">
<title>Node3&#45;&gt;Node1</title>
<g id="a_edge2_Node000001_Node000003"><a xlink:title=" ">
<path fill="none" stroke="#63b8ff" d="M134.5,-196.86C134.5,-171.39 134.5,-139.99 134.5,-112.85"/>
<polygon fill="none" stroke="#63b8ff" points="134.5,-112.81 130.5,-106.81 134.5,-100.81 138.5,-106.81 134.5,-112.81"/>
</a>
</g>
<text text-anchor="middle" x="162.25" y="-121.25" font-family="Helvetica,sans-Serif" font-size="10.00" fill="grey"> #logBuffer</text>
</g>
<!-- Node4 -->
<g id="Node000004" class="node">
<title>Node4</title>
<g id="a_Node000004"><a xlink:title=" ">
<polygon fill="white" stroke="none" points="175,-433.75 94,-433.75 94,-381.75 175,-381.75 175,-433.75"/>
<text text-anchor="start" x="98.88" y="-420.25" font-family="Helvetica,sans-Serif" font-size="10.00">std::streambuf</text>
<text text-anchor="start" x="133" y="-404.25" font-family="Helvetica,sans-Serif" font-size="10.00"> </text>
<text text-anchor="start" x="133" y="-388.25" font-family="Helvetica,sans-Serif" font-size="10.00"> </text>
<polygon fill="#666666" stroke="#666666" points="94,-415.75 94,-415.75 175,-415.75 175,-415.75 94,-415.75"/>
<polygon fill="#666666" stroke="#666666" points="94,-399.75 94,-399.75 175,-399.75 175,-399.75 94,-399.75"/>
<polygon fill="none" stroke="#666666" points="94,-381.75 94,-433.75 175,-433.75 175,-381.75 94,-381.75"/>
</a>
</g>
</g>
<!-- Node4&#45;&gt;Node3 -->
<g id="edge3_Node000003_Node000004" class="edge">
<title>Node4&#45;&gt;Node3</title>
<g id="a_edge3_Node000003_Node000004"><a xlink:title=" ">
<path fill="none" stroke="#63b8ff" d="M134.5,-371.04C134.5,-349.03 134.5,-320.5 134.5,-296.43"/>
<polygon fill="none" stroke="#63b8ff" points="131,-370.91 134.5,-380.91 138,-370.91 131,-370.91"/>
</a>
</g>
</g>
<!-- Node5 -->
<g id="Node000005" class="node">
<title>Node5</title>
<g id="a_Node000005"><a xlink:href="classsisi4s_1_1Time.html" target="_top" xlink:title=" ">
<polygon fill="white" stroke="none" points="329,-344.75 198,-344.75 198,-148.75 329,-148.75 329,-344.75"/>
<text text-anchor="start" x="234.25" y="-331.25" font-family="Helvetica,sans-Serif" font-size="10.00">sisi4s::Time</text>
<text text-anchor="start" x="201.88" y="-315.25" font-family="Helvetica,sans-Serif" font-size="10.00">+</text>
<text text-anchor="start" x="214" y="-315.25" font-family="Helvetica,sans-Serif" font-size="10.00">FRACTIONS</text>
<text text-anchor="start" x="201.88" y="-299.25" font-family="Helvetica,sans-Serif" font-size="10.00">+</text>
<text text-anchor="start" x="214" y="-299.25" font-family="Helvetica,sans-Serif" font-size="10.00">FRACTION_DIGITS</text>
<text text-anchor="start" x="201.88" y="-283.25" font-family="Helvetica,sans-Serif" font-size="10.00">+</text>
<text text-anchor="start" x="214" y="-283.25" font-family="Helvetica,sans-Serif" font-size="10.00">Time()</text>
<text text-anchor="start" x="201.88" y="-267.25" font-family="Helvetica,sans-Serif" font-size="10.00">+</text>
<text text-anchor="start" x="214" y="-267.25" font-family="Helvetica,sans-Serif" font-size="10.00">Time()</text>
<text text-anchor="start" x="201.88" y="-251.25" font-family="Helvetica,sans-Serif" font-size="10.00">+</text>
<text text-anchor="start" x="214" y="-251.25" font-family="Helvetica,sans-Serif" font-size="10.00">Time()</text>
<text text-anchor="start" x="201.88" y="-235.25" font-family="Helvetica,sans-Serif" font-size="10.00">+</text>
<text text-anchor="start" x="214" y="-235.25" font-family="Helvetica,sans-Serif" font-size="10.00">getSeconds()</text>
<text text-anchor="start" x="201.88" y="-219.25" font-family="Helvetica,sans-Serif" font-size="10.00">+</text>
<text text-anchor="start" x="214" y="-219.25" font-family="Helvetica,sans-Serif" font-size="10.00">getFractions()</text>
<text text-anchor="start" x="201.88" y="-203.25" font-family="Helvetica,sans-Serif" font-size="10.00">+</text>
<text text-anchor="start" x="214" y="-203.25" font-family="Helvetica,sans-Serif" font-size="10.00">getFractionalSeconds()</text>
<text text-anchor="start" x="201.88" y="-187.25" font-family="Helvetica,sans-Serif" font-size="10.00">+</text>
<text text-anchor="start" x="214" y="-187.25" font-family="Helvetica,sans-Serif" font-size="10.00">operator+=()</text>
<text text-anchor="start" x="201.88" y="-171.25" font-family="Helvetica,sans-Serif" font-size="10.00">+</text>
<text text-anchor="start" x="214" y="-171.25" font-family="Helvetica,sans-Serif" font-size="10.00">operator&#45;=()</text>
<text text-anchor="start" x="201.88" y="-155.25" font-family="Helvetica,sans-Serif" font-size="10.00">+</text>
<text text-anchor="start" x="214" y="-155.25" font-family="Helvetica,sans-Serif" font-size="10.00">getCurrentRealTime()</text>
<polygon fill="#666666" stroke="#666666" points="198,-326.75 198,-326.75 329,-326.75 329,-326.75 198,-326.75"/>
<polygon fill="#666666" stroke="#666666" points="198,-294.75 198,-294.75 212,-294.75 212,-294.75 198,-294.75"/>
<polygon fill="#666666" stroke="#666666" points="212,-294.75 212,-294.75 329,-294.75 329,-294.75 212,-294.75"/>
<polygon fill="none" stroke="#666666" points="198,-148.75 198,-344.75 329,-344.75 329,-148.75 198,-148.75"/>
</a>
</g>
</g>
<!-- Node5&#45;&gt;Node1 -->
<g id="edge4_Node000001_Node000005" class="edge">
<title>Node5&#45;&gt;Node1</title>
<g id="a_edge4_Node000001_Node000005"><a xlink:title=" ">
<path fill="none" stroke="#63b8ff" d="M213.36,-148.8C207,-138.2 200.33,-127.73 193.5,-118 191.63,-115.34 189.67,-112.66 187.65,-109.98"/>
<polygon fill="none" stroke="#63b8ff" points="187.58,-109.89 180.72,-107.65 180.15,-100.46 187.01,-102.7 187.58,-109.89"/>
</a>
</g>
<text text-anchor="middle" x="229.75" y="-121.25" font-family="Helvetica,sans-Serif" font-size="10.00" fill="grey"> #startTime</text>
</g>
<!-- Node6 -->
<g id="Node000006" class="node">
<title>Node6</title>
<g id="a_Node000006"><a xlink:title=" ">
<polygon fill="white" stroke="none" points="291,-433.75 236,-433.75 236,-381.75 291,-381.75 291,-433.75"/>
<text text-anchor="start" x="241" y="-420.25" font-family="Helvetica,sans-Serif" font-size="10.00">timespec</text>
<text text-anchor="start" x="262" y="-404.25" font-family="Helvetica,sans-Serif" font-size="10.00"> </text>
<text text-anchor="start" x="262" y="-388.25" font-family="Helvetica,sans-Serif" font-size="10.00"> </text>
<polygon fill="#666666" stroke="#666666" points="236,-415.75 236,-415.75 291,-415.75 291,-415.75 236,-415.75"/>
<polygon fill="#666666" stroke="#666666" points="236,-399.75 236,-399.75 291,-399.75 291,-399.75 236,-399.75"/>
<polygon fill="none" stroke="#666666" points="236,-381.75 236,-433.75 291,-433.75 291,-381.75 236,-381.75"/>
</a>
</g>
</g>
<!-- Node6&#45;&gt;Node5 -->
<g id="edge5_Node000005_Node000006" class="edge">
<title>Node6&#45;&gt;Node5</title>
<g id="a_edge5_Node000005_Node000006"><a xlink:title=" ">
<path fill="none" stroke="darkgreen" d="M263.5,-371.04C263.5,-362.89 263.5,-353.85 263.5,-344.48"/>
<polygon fill="none" stroke="darkgreen" points="260,-370.91 263.5,-380.91 267,-370.91 260,-370.91"/>
</a>
</g>
</g>
</g>
</svg>
