<?xml version="1.0" encoding="UTF-8" standalone="no"?>
<!DOCTYPE svg PUBLIC "-//W3C//DTD SVG 1.1//EN"
 "http://www.w3.org/Graphics/SVG/1.1/DTD/svg11.dtd">
<!-- Generated by graphviz version 9.0.0 (0)
 -->
<!-- Title: sisi4s::CoulombVertexFromFactors Pages: 1 -->
<svg width="483pt" height="757pt"
 viewBox="0.00 0.00 482.75 757.25" xmlns="http://www.w3.org/2000/svg" xmlns:xlink="http://www.w3.org/1999/xlink">
<g id="graph0" class="graph" transform="scale(1 1) rotate(0) translate(4 753.25)">
<title>sisi4s::CoulombVertexFromFactors</title>
<!-- Node1 -->
<g id="Node000001" class="node">
<title>Node1</title>
<g id="a_Node000001"><a xlink:title="Caclulates the Coulomb vertex &#160;from the given given factor orbitals &#160;and Coulomb factors .">
<polygon fill="#999999" stroke="none" points="230,-145 60,-145 60,0 230,0 230,-145"/>
<text text-anchor="start" x="78.25" y="-131.5" font-family="Helvetica,sans-Serif" font-size="10.00">sisi4s::CoulombVertexFrom</text>
<text text-anchor="start" x="127.75" y="-118.75" font-family="Helvetica,sans-Serif" font-size="10.00">Factors</text>
<text text-anchor="start" x="143.5" y="-102.5" font-family="Helvetica,sans-Serif" font-size="10.00"> </text>
<text text-anchor="start" x="63.88" y="-86.5" font-family="Helvetica,sans-Serif" font-size="10.00">+</text>
<text text-anchor="start" x="76" y="-86.5" font-family="Helvetica,sans-Serif" font-size="10.00">getName()</text>
<text text-anchor="start" x="63.88" y="-70.5" font-family="Helvetica,sans-Serif" font-size="10.00">+</text>
<text text-anchor="start" x="76" y="-70.5" font-family="Helvetica,sans-Serif" font-size="10.00">CoulombVertexFromFactors()</text>
<text text-anchor="start" x="63.88" y="-54.5" font-family="Helvetica,sans-Serif" font-size="10.00">+</text>
<text text-anchor="start" x="76" y="-54.5" font-family="Helvetica,sans-Serif" font-size="10.00">~CoulombVertexFromFactors()</text>
<text text-anchor="start" x="63.88" y="-38.5" font-family="Helvetica,sans-Serif" font-size="10.00">+</text>
<text text-anchor="start" x="76" y="-38.5" font-family="Helvetica,sans-Serif" font-size="10.00">run()</text>
<text text-anchor="start" x="63.88" y="-22.5" font-family="Helvetica,sans-Serif" font-size="10.00">+</text>
<text text-anchor="start" x="76" y="-22.5" font-family="Helvetica,sans-Serif" font-size="10.00">dryRun()</text>
<text text-anchor="start" x="63.88" y="-6.5" font-family="Helvetica,sans-Serif" font-size="10.00">+</text>
<text text-anchor="start" x="76" y="-6.5" font-family="Helvetica,sans-Serif" font-size="10.00">run()</text>
<polygon fill="#666666" stroke="#666666" points="60,-114 60,-114 230,-114 230,-114 60,-114"/>
<polygon fill="#666666" stroke="#666666" points="60,-98 60,-98 230,-98 230,-98 60,-98"/>
<polygon fill="none" stroke="#666666" points="60,0 60,-145 230,-145 230,0 60,0"/>
</a>
</g>
</g>
<!-- Node2 -->
<g id="Node000002" class="node">
<title>Node2</title>
<g id="a_Node000002"><a xlink:href="classsisi4s_1_1Algorithm.html" target="_top" xlink:title=" ">
<polygon fill="white" stroke="none" points="172,-501.75 0,-501.75 0,-193.75 172,-193.75 172,-501.75"/>
<text text-anchor="start" x="45.12" y="-488.25" font-family="Helvetica,sans-Serif" font-size="10.00">sisi4s::Algorithm</text>
<text text-anchor="start" x="3.88" y="-472.25" font-family="Helvetica,sans-Serif" font-size="10.00">+</text>
<text text-anchor="start" x="16" y="-472.25" font-family="Helvetica,sans-Serif" font-size="10.00">note</text>
<text text-anchor="start" x="3.88" y="-456.25" font-family="Helvetica,sans-Serif" font-size="10.00">+</text>
<text text-anchor="start" x="16" y="-456.25" font-family="Helvetica,sans-Serif" font-size="10.00">fallible</text>
<text text-anchor="start" x="3.88" y="-440.25" font-family="Helvetica,sans-Serif" font-size="10.00">#</text>
<text text-anchor="start" x="16" y="-440.25" font-family="Helvetica,sans-Serif" font-size="10.00">arguments</text>
<text text-anchor="start" x="3.88" y="-424.25" font-family="Helvetica,sans-Serif" font-size="10.00">+</text>
<text text-anchor="start" x="16" y="-424.25" font-family="Helvetica,sans-Serif" font-size="10.00">Algorithm()</text>
<text text-anchor="start" x="3.88" y="-408.25" font-family="Helvetica,sans-Serif" font-size="10.00">+</text>
<text text-anchor="start" x="16" y="-408.25" font-family="Helvetica,sans-Serif" font-size="10.00">~Algorithm()</text>
<text text-anchor="start" x="3.88" y="-392.25" font-family="Helvetica,sans-Serif" font-size="10.00">+</text>
<text text-anchor="start" x="16" y="-392.25" font-family="Helvetica,sans-Serif" font-size="10.00">getName()</text>
<text text-anchor="start" x="3.88" y="-376.25" font-family="Helvetica,sans-Serif" font-size="10.00">+</text>
<text text-anchor="start" x="16" y="-376.25" font-family="Helvetica,sans-Serif" font-size="10.00">run()</text>
<text text-anchor="start" x="3.88" y="-360.25" font-family="Helvetica,sans-Serif" font-size="10.00">+</text>
<text text-anchor="start" x="16" y="-360.25" font-family="Helvetica,sans-Serif" font-size="10.00">dryRun()</text>
<text text-anchor="start" x="3.88" y="-344.25" font-family="Helvetica,sans-Serif" font-size="10.00">+</text>
<text text-anchor="start" x="16" y="-344.25" font-family="Helvetica,sans-Serif" font-size="10.00">isArgumentGiven()</text>
<text text-anchor="start" x="3.88" y="-328.25" font-family="Helvetica,sans-Serif" font-size="10.00">+</text>
<text text-anchor="start" x="16" y="-328.25" font-family="Helvetica,sans-Serif" font-size="10.00">getTextArgument()</text>
<text text-anchor="start" x="3.88" y="-312.25" font-family="Helvetica,sans-Serif" font-size="10.00">+</text>
<text text-anchor="start" x="16" y="-312.25" font-family="Helvetica,sans-Serif" font-size="10.00">getTextArgument()</text>
<text text-anchor="start" x="3.88" y="-296.25" font-family="Helvetica,sans-Serif" font-size="10.00">+</text>
<text text-anchor="start" x="16" y="-296.25" font-family="Helvetica,sans-Serif" font-size="10.00">getBooleanArgument()</text>
<text text-anchor="start" x="3.88" y="-280.25" font-family="Helvetica,sans-Serif" font-size="10.00">+</text>
<text text-anchor="start" x="16" y="-280.25" font-family="Helvetica,sans-Serif" font-size="10.00">getBooleanArgument()</text>
<text text-anchor="start" x="16" y="-264.25" font-family="Helvetica,sans-Serif" font-size="10.00">and 12 more...</text>
<text text-anchor="start" x="3.88" y="-248.25" font-family="Helvetica,sans-Serif" font-size="10.00">#</text>
<text text-anchor="start" x="16" y="-248.25" font-family="Helvetica,sans-Serif" font-size="10.00">getRealArgumentFromInteger()</text>
<text text-anchor="start" x="3.88" y="-232.25" font-family="Helvetica,sans-Serif" font-size="10.00">#</text>
<text text-anchor="start" x="16" y="-232.25" font-family="Helvetica,sans-Serif" font-size="10.00">getRealArgumentFromTensor()</text>
<text text-anchor="start" x="3.88" y="-216.25" font-family="Helvetica,sans-Serif" font-size="10.00">#</text>
<text text-anchor="start" x="16" y="-216.25" font-family="Helvetica,sans-Serif" font-size="10.00">getTensorArgumentFromReal()</text>
<text text-anchor="start" x="3.88" y="-200.25" font-family="Helvetica,sans-Serif" font-size="10.00">#</text>
<text text-anchor="start" x="16" y="-200.25" font-family="Helvetica,sans-Serif" font-size="10.00">getArgumentData()</text>
<polygon fill="#666666" stroke="#666666" points="0,-483.75 0,-483.75 172,-483.75 172,-483.75 0,-483.75"/>
<polygon fill="#666666" stroke="#666666" points="0,-435.75 0,-435.75 14,-435.75 14,-435.75 0,-435.75"/>
<polygon fill="#666666" stroke="#666666" points="14,-435.75 14,-435.75 172,-435.75 172,-435.75 14,-435.75"/>
<polygon fill="none" stroke="#666666" points="0,-193.75 0,-501.75 172,-501.75 172,-193.75 0,-193.75"/>
</a>
</g>
</g>
<!-- Node2&#45;&gt;Node1 -->
<g id="edge1_Node000001_Node000002" class="edge">
<title>Node2&#45;&gt;Node1</title>
<g id="a_edge1_Node000001_Node000002"><a xlink:title=" ">
<path fill="none" stroke="#63b8ff" d="M121.36,-182.98C124.22,-169.76 126.99,-156.9 129.58,-144.91"/>
<polygon fill="none" stroke="#63b8ff" points="117.96,-182.15 119.27,-192.67 124.8,-183.63 117.96,-182.15"/>
</a>
</g>
</g>
<!-- Node3 -->
<g id="Node000003" class="node">
<title>Node3</title>
<g id="a_Node000003"><a xlink:href="classsisi4s_1_1AlgorithmRegistrar.html" target="_top" xlink:title=" ">
<polygon fill="white" stroke="none" points="390,-380.25 190,-380.25 190,-315.25 390,-315.25 390,-380.25"/>
<text text-anchor="start" x="194.75" y="-366.75" font-family="Helvetica,sans-Serif" font-size="10.00">sisi4s::AlgorithmRegistrar</text>
<text text-anchor="start" x="194.75" y="-354" font-family="Helvetica,sans-Serif" font-size="10.00">&lt; sisi4s::CoulombVertexFromFactors &gt;</text>
<text text-anchor="start" x="288.5" y="-337.75" font-family="Helvetica,sans-Serif" font-size="10.00"> </text>
<text text-anchor="start" x="213.88" y="-321.75" font-family="Helvetica,sans-Serif" font-size="10.00">+</text>
<text text-anchor="start" x="246" y="-321.75" font-family="Helvetica,sans-Serif" font-size="10.00">AlgorithmRegistrar()</text>
<polygon fill="#666666" stroke="#666666" points="190,-349.25 190,-349.25 390,-349.25 390,-349.25 190,-349.25"/>
<polygon fill="#666666" stroke="#666666" points="190,-333.25 190,-333.25 390,-333.25 390,-333.25 190,-333.25"/>
<polygon fill="none" stroke="#666666" points="190,-315.25 190,-380.25 390,-380.25 390,-315.25 190,-315.25"/>
</a>
</g>
</g>
<!-- Node3&#45;&gt;Node1 -->
<g id="edge2_Node000001_Node000003" class="edge">
<title>Node3&#45;&gt;Node1</title>
<g id="a_edge2_Node000001_Node000003"><a xlink:title=" ">
<path fill="none" stroke="#63b8ff" d="M273.37,-315.4C252.88,-276.8 217.29,-209.73 188.77,-155.99"/>
<polygon fill="none" stroke="#63b8ff" points="188.85,-156.14 182.51,-152.71 183.23,-145.54 189.57,-148.96 188.85,-156.14"/>
</a>
</g>
<text text-anchor="middle" x="224.88" y="-166.25" font-family="Helvetica,sans-Serif" font-size="10.00" fill="grey"> +registrar_</text>
</g>
<!-- Node4 -->
<g id="Node000004" class="node">
<title>Node4</title>
<g id="a_Node000004"><a xlink:href="classsisi4s_1_1AlgorithmFactory.html" target="_top" xlink:title=" ">
<polygon fill="white" stroke="none" points="317.5,-749.25 190.5,-749.25 190.5,-665.25 317.5,-665.25 317.5,-749.25"/>
<text text-anchor="start" x="195.5" y="-735.75" font-family="Helvetica,sans-Serif" font-size="10.00">sisi4s::AlgorithmFactory</text>
<text text-anchor="start" x="194.88" y="-719.75" font-family="Helvetica,sans-Serif" font-size="10.00">#</text>
<text text-anchor="start" x="207.5" y="-719.75" font-family="Helvetica,sans-Serif" font-size="10.00">algorithmMap</text>
<text text-anchor="start" x="194.88" y="-703.75" font-family="Helvetica,sans-Serif" font-size="10.00">+</text>
<text text-anchor="start" x="207.5" y="-703.75" font-family="Helvetica,sans-Serif" font-size="10.00">create()</text>
<text text-anchor="start" x="194.88" y="-687.75" font-family="Helvetica,sans-Serif" font-size="10.00">+</text>
<text text-anchor="start" x="207.5" y="-687.75" font-family="Helvetica,sans-Serif" font-size="10.00">getAlgorithmNames()</text>
<text text-anchor="start" x="194.88" y="-671.75" font-family="Helvetica,sans-Serif" font-size="10.00">#</text>
<text text-anchor="start" x="207.5" y="-671.75" font-family="Helvetica,sans-Serif" font-size="10.00">getAlgorithmMap()</text>
<polygon fill="#666666" stroke="#666666" points="190.5,-731.25 190.5,-731.25 317.5,-731.25 317.5,-731.25 190.5,-731.25"/>
<polygon fill="#666666" stroke="#666666" points="190.5,-715.25 190.5,-715.25 205.5,-715.25 205.5,-715.25 190.5,-715.25"/>
<polygon fill="#666666" stroke="#666666" points="205.5,-715.25 205.5,-715.25 317.5,-715.25 317.5,-715.25 205.5,-715.25"/>
<polygon fill="none" stroke="#666666" points="190.5,-665.25 190.5,-749.25 317.5,-749.25 317.5,-665.25 190.5,-665.25"/>
</a>
</g>
</g>
<!-- Node4&#45;&gt;Node3 -->
<g id="edge3_Node000003_Node000004" class="edge">
<title>Node4&#45;&gt;Node3</title>
<g id="a_edge3_Node000003_Node000004"><a xlink:title=" ">
<path fill="none" stroke="darkgreen" d="M255.47,-654.3C256.52,-627.13 258.23,-593.35 261,-563.25 267.02,-497.76 278.36,-421.57 284.93,-379.92"/>
<polygon fill="none" stroke="darkgreen" points="251.99,-653.87 255.12,-663.99 258.98,-654.12 251.99,-653.87"/>
</a>
</g>
</g>
<!-- Node5 -->
<g id="Node000005" class="node">
<title>Node5</title>
<g id="a_Node000005"><a xlink:href="classsisi4s_1_1AlgorithmRegistrar.html" target="_top" xlink:title="Class to be statically instantiated by an algorithm to register it in the AlgorithmFactory....">
<polygon fill="white" stroke="none" points="406,-628.25 270,-628.25 270,-563.25 406,-563.25 406,-628.25"/>
<text text-anchor="start" x="275" y="-614.75" font-family="Helvetica,sans-Serif" font-size="10.00">sisi4s::AlgorithmRegistrar</text>
<text text-anchor="start" x="291.5" y="-602" font-family="Helvetica,sans-Serif" font-size="10.00">&lt; AlgorithmType &gt;</text>
<text text-anchor="start" x="336.5" y="-585.75" font-family="Helvetica,sans-Serif" font-size="10.00"> </text>
<text text-anchor="start" x="277.88" y="-569.75" font-family="Helvetica,sans-Serif" font-size="10.00">+</text>
<text text-anchor="start" x="294" y="-569.75" font-family="Helvetica,sans-Serif" font-size="10.00">AlgorithmRegistrar()</text>
<polygon fill="#666666" stroke="#666666" points="270,-597.25 270,-597.25 406,-597.25 406,-597.25 270,-597.25"/>
<polygon fill="#666666" stroke="#666666" points="270,-581.25 270,-581.25 406,-581.25 406,-581.25 270,-581.25"/>
<polygon fill="none" stroke="#666666" points="270,-563.25 270,-628.25 406,-628.25 406,-563.25 270,-563.25"/>
</a>
</g>
</g>
<!-- Node4&#45;&gt;Node5 -->
<g id="edge5_Node000005_Node000004" class="edge">
<title>Node4&#45;&gt;Node5</title>
<g id="a_edge5_Node000005_Node000004"><a xlink:title=" ">
<path fill="none" stroke="darkgreen" d="M292.07,-656.62C299.55,-646.87 307.19,-636.91 314.05,-627.97"/>
<polygon fill="none" stroke="darkgreen" points="289.51,-654.21 286.2,-664.28 295.06,-658.47 289.51,-654.21"/>
</a>
</g>
</g>
<!-- Node5&#45;&gt;Node3 -->
<g id="edge4_Node000003_Node000005" class="edge">
<title>Node5&#45;&gt;Node3</title>
<g id="a_edge4_Node000003_Node000005"><a xlink:title=" ">
<path fill="none" stroke="orange" d="M329.69,-552.16C320.12,-503.1 304.61,-423.64 296.09,-379.97"/>
<polygon fill="orange" stroke="orange" points="326.23,-552.71 331.58,-561.86 333.1,-551.37 326.23,-552.71"/>
</a>
</g>
<text text-anchor="start" x="327" y="-535.75" font-family="Helvetica,sans-Serif" font-size="10.00" fill="grey"> &lt; sisi4s::CoulombVertexFrom</text>
<text text-anchor="middle" x="400.88" y="-523" font-family="Helvetica,sans-Serif" font-size="10.00" fill="grey">Factors &gt;</text>
</g>
</g>
</svg>
