<?xml version="1.0" encoding="UTF-8" standalone="no"?>
<!DOCTYPE svg PUBLIC "-//W3C//DTD SVG 1.1//EN"
 "http://www.w3.org/Graphics/SVG/1.1/DTD/svg11.dtd">
<!-- Generated by graphviz version 9.0.0 (0)
 -->
<!-- Title: sisi4s::ClusterSinglesDoublesAlgorithm::storeAmplitudes Pages: 1 -->
<svg width="376pt" height="146pt"
 viewBox="0.00 0.00 376.00 145.50" xmlns="http://www.w3.org/2000/svg" xmlns:xlink="http://www.w3.org/1999/xlink">
<g id="graph0" class="graph" transform="scale(1 1) rotate(0) translate(4 141.5)">
<title>sisi4s::ClusterSinglesDoublesAlgorithm::storeAmplitudes</title>
<!-- Node1 -->
<g id="Node000001" class="node">
<title>Node1</title>
<g id="a_Node000001"><a xlink:title=" ">
<polygon fill="#999999" stroke="#666666" points="368,-85.5 208.75,-85.5 208.75,-52 368,-52 368,-85.5"/>
<text text-anchor="start" x="216.75" y="-72" font-family="Helvetica,sans-Serif" font-size="10.00">sisi4s::ClusterSinglesDoubles</text>
<text text-anchor="middle" x="288.38" y="-59.25" font-family="Helvetica,sans-Serif" font-size="10.00">Algorithm::storeAmplitudes</text>
</a>
</g>
</g>
<!-- Node2 -->
<g id="Node000002" class="node">
<title>Node2</title>
<g id="a_Node000002"><a xlink:href="classsisi4s_1_1ClusterSinglesDoublesAlgorithm.html#a69e386caf7acdf30c11b476d522d7a9d" target="_top" xlink:title=" ">
<polygon fill="white" stroke="#666666" points="166,-137.5 6.75,-137.5 6.75,-104 166,-104 166,-137.5"/>
<text text-anchor="start" x="14.75" y="-124" font-family="Helvetica,sans-Serif" font-size="10.00">sisi4s::ClusterSinglesDoubles</text>
<text text-anchor="middle" x="86.38" y="-111.25" font-family="Helvetica,sans-Serif" font-size="10.00">Algorithm::run</text>
</a>
</g>
</g>
<!-- Node1&#45;&gt;Node2 -->
<g id="edge1_Node000001_Node000002" class="edge">
<title>Node1&#45;&gt;Node2</title>
<g id="a_edge1_Node000001_Node000002"><a xlink:title=" ">
<path fill="none" stroke="#63b8ff" d="M209.93,-88.89C191.3,-93.73 171.57,-98.86 153.51,-103.55"/>
<polygon fill="#63b8ff" stroke="#63b8ff" points="210.79,-92.28 219.59,-86.37 209.03,-85.5 210.79,-92.28"/>
</a>
</g>
</g>
<!-- Node3 -->
<g id="Node000003" class="node">
<title>Node3</title>
<g id="a_Node000003"><a xlink:href="classsisi4s_1_1ClusterSinglesDoublesTriplesAlgorithm.html#aa86fb955293c874f806a98263ab39213" target="_top" xlink:title="Calculates the energy of a ClusterSinglesDoubles algorithm.">
<polygon fill="white" stroke="#666666" points="166,-85.5 6.75,-85.5 6.75,-52 166,-52 166,-85.5"/>
<text text-anchor="start" x="14.75" y="-72" font-family="Helvetica,sans-Serif" font-size="10.00">sisi4s::ClusterSinglesDoubles</text>
<text text-anchor="middle" x="86.38" y="-59.25" font-family="Helvetica,sans-Serif" font-size="10.00">TriplesAlgorithm::run</text>
</a>
</g>
</g>
<!-- Node1&#45;&gt;Node3 -->
<g id="edge2_Node000001_Node000003" class="edge">
<title>Node1&#45;&gt;Node3</title>
<g id="a_edge2_Node000001_Node000003"><a xlink:title=" ">
<path fill="none" stroke="#63b8ff" d="M196.85,-68.75C186.61,-68.75 176.24,-68.75 166.17,-68.75"/>
<polygon fill="#63b8ff" stroke="#63b8ff" points="196.82,-72.25 206.82,-68.75 196.82,-65.25 196.82,-72.25"/>
</a>
</g>
</g>
<!-- Node4 -->
<g id="Node000004" class="node">
<title>Node4</title>
<g id="a_Node000004"><a xlink:href="classsisi4s_1_1ClusterSinglesDoublesTriplesQuadruplesAlgorithm.html#a3dec5575b0b30cead4a4965230969d73" target="_top" xlink:title="Calculates the energy of a ClusterSinglesDoubles algorithm.">
<polygon fill="white" stroke="#666666" points="172.75,-33.5 0,-33.5 0,0 172.75,0 172.75,-33.5"/>
<text text-anchor="start" x="8" y="-20" font-family="Helvetica,sans-Serif" font-size="10.00">sisi4s::ClusterSinglesDoubles</text>
<text text-anchor="middle" x="86.38" y="-7.25" font-family="Helvetica,sans-Serif" font-size="10.00">TriplesQuadruplesAlgorithm::run</text>
</a>
</g>
</g>
<!-- Node1&#45;&gt;Node4 -->
<g id="edge3_Node000001_Node000004" class="edge">
<title>Node1&#45;&gt;Node4</title>
<g id="a_edge3_Node000001_Node000004"><a xlink:title=" ">
<path fill="none" stroke="#63b8ff" d="M209.93,-48.61C191.3,-43.77 171.57,-38.64 153.51,-33.95"/>
<polygon fill="#63b8ff" stroke="#63b8ff" points="209.03,-52 219.59,-51.13 210.79,-45.22 209.03,-52"/>
</a>
</g>
</g>
</g>
</svg>
