<?xml version="1.0" encoding="UTF-8" standalone="no"?>
<!DOCTYPE svg PUBLIC "-//W3C//DTD SVG 1.1//EN"
 "http://www.w3.org/Graphics/SVG/1.1/DTD/svg11.dtd">
<!-- Generated by graphviz version 5.0.1 (0)
 -->
<!-- Title: sisi4s::FockVector::write Pages: 1 -->
<svg width="305pt" height="134pt"
 viewBox="0.00 0.00 305.00 134.00" xmlns="http://www.w3.org/2000/svg" xmlns:xlink="http://www.w3.org/1999/xlink">
<g id="graph0" class="graph" transform="scale(1 1) rotate(0) translate(4 130)">
<title>sisi4s::FockVector::write</title>
<!-- Node1 -->
<g id="node1" class="node">
<title>Node1</title>
<g id="a_node1"><a xlink:title="Writes the given values together with their respective indices. The indices are between 0 and getDime...">
<polygon fill="#999999" stroke="#666666" points="297,-78 193,-78 193,-48 297,-48 297,-78"/>
<text text-anchor="start" x="201" y="-66" font-family="Helvetica,sans-Serif" font-size="10.00">sisi4s::FockVector</text>
<text text-anchor="middle" x="245" y="-55" font-family="Helvetica,sans-Serif" font-size="10.00">::write</text>
</a>
</g>
</g>
<!-- Node2 -->
<g id="node2" class="node">
<title>Node2</title>
<g id="a_node2"><a xlink:href="classsisi4s_1_1CcsdPreconditioner.html#a885a0ffef1ab5a039a69e40e8e8b1c09" target="_top" xlink:title="Get initial basis.">
<polygon fill="white" stroke="#666666" points="150.5,-126 6.5,-126 6.5,-96 150.5,-96 150.5,-126"/>
<text text-anchor="start" x="14.5" y="-114" font-family="Helvetica,sans-Serif" font-size="10.00">sisi4s::CcsdPreconditioner</text>
<text text-anchor="middle" x="78.5" y="-103" font-family="Helvetica,sans-Serif" font-size="10.00">::getInitialBasis</text>
</a>
</g>
</g>
<!-- Node1&#45;&gt;Node2 -->
<g id="edge1" class="edge">
<title>Node1&#45;&gt;Node2</title>
<path fill="none" stroke="#63b8ff" d="M183,-80.8C165.96,-85.77 147.62,-91.12 131.18,-95.92"/>
<polygon fill="#63b8ff" stroke="#63b8ff" points="184.23,-84.09 192.85,-77.92 182.27,-77.37 184.23,-84.09"/>
</g>
<!-- Node3 -->
<g id="node3" class="node">
<title>Node3</title>
<g id="a_node3"><a xlink:href="classsisi4s_1_1IPCcsdPreconditioner.html#a2e97db095cdebec9c83d1b60295605ec" target="_top" xlink:title=" ">
<polygon fill="white" stroke="#666666" points="155,-78 2,-78 2,-48 155,-48 155,-78"/>
<text text-anchor="start" x="10" y="-66" font-family="Helvetica,sans-Serif" font-size="10.00">sisi4s::IPCcsdPreconditioner</text>
<text text-anchor="middle" x="78.5" y="-55" font-family="Helvetica,sans-Serif" font-size="10.00">::getInitialBasis</text>
</a>
</g>
</g>
<!-- Node1&#45;&gt;Node3 -->
<g id="edge2" class="edge">
<title>Node1&#45;&gt;Node3</title>
<path fill="none" stroke="#63b8ff" d="M182.82,-63C173.78,-63 164.37,-63 155.07,-63"/>
<polygon fill="#63b8ff" stroke="#63b8ff" points="182.85,-66.5 192.85,-63 182.85,-59.5 182.85,-66.5"/>
</g>
<!-- Node4 -->
<g id="node4" class="node">
<title>Node4</title>
<g id="a_node4"><a xlink:href="classsisi4s_1_1EACcsdPreconditioner.html#a49913544736063c43e265facdc2cc393" target="_top" xlink:title=" ">
<polygon fill="white" stroke="#666666" points="157,-30 0,-30 0,0 157,0 157,-30"/>
<text text-anchor="start" x="8" y="-18" font-family="Helvetica,sans-Serif" font-size="10.00">sisi4s::EACcsdPreconditioner</text>
<text text-anchor="middle" x="78.5" y="-7" font-family="Helvetica,sans-Serif" font-size="10.00">::getInitialBasis</text>
</a>
</g>
</g>
<!-- Node1&#45;&gt;Node4 -->
<g id="edge3" class="edge">
<title>Node1&#45;&gt;Node4</title>
<path fill="none" stroke="#63b8ff" d="M183,-45.2C165.96,-40.23 147.62,-34.88 131.18,-30.08"/>
<polygon fill="#63b8ff" stroke="#63b8ff" points="182.27,-48.63 192.85,-48.08 184.23,-41.91 182.27,-48.63"/>
</g>
</g>
</svg>
