<?xml version="1.0" encoding="UTF-8" standalone="no"?>
<!DOCTYPE svg PUBLIC "-//W3C//DTD SVG 1.1//EN"
 "http://www.w3.org/Graphics/SVG/1.1/DTD/svg11.dtd">
<!-- Generated by graphviz version 5.0.1 (0)
 -->
<!-- Title: sisi4s::LinearMixer&lt; F &gt; Pages: 1 -->
<svg width="389pt" height="644pt"
 viewBox="0.00 0.00 389.00 644.00" xmlns="http://www.w3.org/2000/svg" xmlns:xlink="http://www.w3.org/1999/xlink">
<g id="graph0" class="graph" transform="scale(1 1) rotate(0) translate(4 640)">
<title>sisi4s::LinearMixer&lt; F &gt;</title>
<!-- Node1 -->
<g id="node1" class="node">
<title>Node1</title>
<g id="a_node1"><a xlink:title=" ">
<polygon fill="#999999" stroke="#666666" points="230,-129 88,-129 88,0 230,0 230,-129"/>
<text text-anchor="middle" x="159" y="-117" font-family="Helvetica,sans-Serif" font-size="10.00">{sisi4s::LinearMixer&lt; F &gt;</text>
<text text-anchor="start" x="96" y="-106" font-family="Helvetica,sans-Serif" font-size="10.00">|+ last</text>
<text text-anchor="start" x="96" y="-95" font-family="Helvetica,sans-Serif" font-size="10.00">+ lastResiduum</text>
<text text-anchor="start" x="96" y="-84" font-family="Helvetica,sans-Serif" font-size="10.00">+ ratio</text>
<text text-anchor="start" x="96" y="-73" font-family="Helvetica,sans-Serif" font-size="10.00">|+ getName()</text>
<text text-anchor="start" x="96" y="-62" font-family="Helvetica,sans-Serif" font-size="10.00">+ LinearMixer()</text>
<text text-anchor="start" x="96" y="-51" font-family="Helvetica,sans-Serif" font-size="10.00">+ ~LinearMixer()</text>
<text text-anchor="start" x="96" y="-40" font-family="Helvetica,sans-Serif" font-size="10.00">+ append()</text>
<text text-anchor="start" x="96" y="-29" font-family="Helvetica,sans-Serif" font-size="10.00">+ get()</text>
<text text-anchor="start" x="96" y="-18" font-family="Helvetica,sans-Serif" font-size="10.00">+ getResiduum()</text>
<text text-anchor="middle" x="159" y="-7" font-family="Helvetica,sans-Serif" font-size="10.00">}</text>
</a>
</g>
</g>
<!-- Node2 -->
<g id="node2" class="node">
<title>Node2</title>
<g id="a_node2"><a xlink:href="classsisi4s_1_1Mixer.html" target="_top" xlink:title=" ">
<polygon fill="white" stroke="#666666" points="146,-272 34,-272 34,-176 146,-176 146,-272"/>
<text text-anchor="middle" x="90" y="-260" font-family="Helvetica,sans-Serif" font-size="10.00">{sisi4s::Mixer&lt; F &gt;</text>
<text text-anchor="start" x="42" y="-249" font-family="Helvetica,sans-Serif" font-size="10.00">||+ Mixer()</text>
<text text-anchor="start" x="42" y="-238" font-family="Helvetica,sans-Serif" font-size="10.00">+ ~Mixer()</text>
<text text-anchor="start" x="42" y="-227" font-family="Helvetica,sans-Serif" font-size="10.00">+ getName()</text>
<text text-anchor="start" x="42" y="-216" font-family="Helvetica,sans-Serif" font-size="10.00">+ append()</text>
<text text-anchor="start" x="42" y="-205" font-family="Helvetica,sans-Serif" font-size="10.00">+ get()</text>
<text text-anchor="start" x="42" y="-194" font-family="Helvetica,sans-Serif" font-size="10.00">+ getResiduum()</text>
<text text-anchor="middle" x="90" y="-183" font-family="Helvetica,sans-Serif" font-size="10.00">}</text>
</a>
</g>
</g>
<!-- Node2&#45;&gt;Node1 -->
<g id="edge1" class="edge">
<title>Node2&#45;&gt;Node1</title>
<path fill="none" stroke="#63b8ff" d="M114.86,-166.25C120.15,-154.17 125.77,-141.35 131.16,-129.04"/>
<polygon fill="none" stroke="#63b8ff" points="111.51,-165.18 110.7,-175.74 117.92,-167.99 111.51,-165.18"/>
</g>
<!-- Node3 -->
<g id="node3" class="node">
<title>Node3</title>
<g id="a_node3"><a xlink:href="classsisi4s_1_1Algorithm.html" target="_top" xlink:title=" ">
<polygon fill="white" stroke="#666666" points="180,-536 0,-536 0,-330 180,-330 180,-536"/>
<text text-anchor="middle" x="90" y="-524" font-family="Helvetica,sans-Serif" font-size="10.00">{sisi4s::Algorithm</text>
<text text-anchor="start" x="8" y="-513" font-family="Helvetica,sans-Serif" font-size="10.00">|# arguments</text>
<text text-anchor="start" x="8" y="-502" font-family="Helvetica,sans-Serif" font-size="10.00">|+ Algorithm()</text>
<text text-anchor="start" x="8" y="-491" font-family="Helvetica,sans-Serif" font-size="10.00">+ ~Algorithm()</text>
<text text-anchor="start" x="8" y="-480" font-family="Helvetica,sans-Serif" font-size="10.00">+ getName()</text>
<text text-anchor="start" x="8" y="-469" font-family="Helvetica,sans-Serif" font-size="10.00">+ run()</text>
<text text-anchor="start" x="8" y="-458" font-family="Helvetica,sans-Serif" font-size="10.00">+ dryRun()</text>
<text text-anchor="start" x="8" y="-447" font-family="Helvetica,sans-Serif" font-size="10.00">+ isArgumentGiven()</text>
<text text-anchor="start" x="8" y="-436" font-family="Helvetica,sans-Serif" font-size="10.00">+ getTextArgument()</text>
<text text-anchor="start" x="8" y="-425" font-family="Helvetica,sans-Serif" font-size="10.00">+ getTextArgument()</text>
<text text-anchor="start" x="8" y="-414" font-family="Helvetica,sans-Serif" font-size="10.00">+ getBooleanArgument()</text>
<text text-anchor="start" x="8" y="-403" font-family="Helvetica,sans-Serif" font-size="10.00">+ getBooleanArgument()</text>
<text text-anchor="start" x="8" y="-392" font-family="Helvetica,sans-Serif" font-size="10.00">and 12 more...</text>
<text text-anchor="start" x="8" y="-381" font-family="Helvetica,sans-Serif" font-size="10.00"># getRealArgumentFromInteger()</text>
<text text-anchor="start" x="8" y="-370" font-family="Helvetica,sans-Serif" font-size="10.00"># getRealArgumentFromTensor()</text>
<text text-anchor="start" x="8" y="-359" font-family="Helvetica,sans-Serif" font-size="10.00"># getTensorArgumentFromReal()</text>
<text text-anchor="start" x="8" y="-348" font-family="Helvetica,sans-Serif" font-size="10.00"># getArgumentData()</text>
<text text-anchor="middle" x="90" y="-337" font-family="Helvetica,sans-Serif" font-size="10.00">}</text>
</a>
</g>
</g>
<!-- Node3&#45;&gt;Node2 -->
<g id="edge2" class="edge">
<title>Node3&#45;&gt;Node2</title>
<path fill="none" stroke="#404040" d="M90,-329.71C90,-314.11 90,-298.48 90,-284.22"/>
<polygon fill="none" stroke="#404040" points="90,-284.09 86,-278.09 90,-272.09 94,-278.09 90,-284.09"/>
<text text-anchor="middle" x="119.5" y="-298.5" font-family="Helvetica,sans-Serif" font-size="10.00"> +algorithm</text>
</g>
<!-- Node4 -->
<g id="node4" class="node">
<title>Node4</title>
<g id="a_node4"><a xlink:href="classsisi4s_1_1MixerRegistrar.html" target="_top" xlink:title=" ">
<polygon fill="white" stroke="#666666" points="295.5,-255.5 164.5,-255.5 164.5,-192.5 295.5,-192.5 295.5,-255.5"/>
<text text-anchor="start" x="172.5" y="-243.5" font-family="Helvetica,sans-Serif" font-size="10.00">{sisi4s::MixerRegistrar</text>
<text text-anchor="start" x="172.5" y="-232.5" font-family="Helvetica,sans-Serif" font-size="10.00">&lt; F, sisi4s::LinearMixer</text>
<text text-anchor="middle" x="230" y="-221.5" font-family="Helvetica,sans-Serif" font-size="10.00">&lt; F &gt; &gt;</text>
<text text-anchor="start" x="172.5" y="-210.5" font-family="Helvetica,sans-Serif" font-size="10.00">||+ MixerRegistrar()</text>
<text text-anchor="middle" x="230" y="-199.5" font-family="Helvetica,sans-Serif" font-size="10.00">}</text>
</a>
</g>
</g>
<!-- Node4&#45;&gt;Node1 -->
<g id="edge3" class="edge">
<title>Node4&#45;&gt;Node1</title>
<path fill="none" stroke="#404040" d="M216.14,-192.26C209.39,-177.29 200.96,-158.57 192.65,-140.16"/>
<polygon fill="none" stroke="#404040" points="192.59,-140.01 186.48,-136.19 187.66,-129.07 193.77,-132.9 192.59,-140.01"/>
<text text-anchor="middle" x="228" y="-150" font-family="Helvetica,sans-Serif" font-size="10.00"> +registrar_</text>
</g>
<!-- Node5 -->
<g id="node5" class="node">
<title>Node5</title>
<g id="a_node5"><a xlink:href="classsisi4s_1_1MixerFactory.html" target="_top" xlink:title=" ">
<polygon fill="white" stroke="#666666" points="304.5,-636 157.5,-636 157.5,-573 304.5,-573 304.5,-636"/>
<text text-anchor="middle" x="231" y="-624" font-family="Helvetica,sans-Serif" font-size="10.00">{sisi4s::MixerFactory&lt; F &gt;</text>
<text text-anchor="start" x="165.5" y="-613" font-family="Helvetica,sans-Serif" font-size="10.00">|# mixerMap</text>
<text text-anchor="start" x="165.5" y="-602" font-family="Helvetica,sans-Serif" font-size="10.00">|+ create()</text>
<text text-anchor="start" x="165.5" y="-591" font-family="Helvetica,sans-Serif" font-size="10.00"># getMixerMap()</text>
<text text-anchor="middle" x="231" y="-580" font-family="Helvetica,sans-Serif" font-size="10.00">}</text>
</a>
</g>
</g>
<!-- Node5&#45;&gt;Node4 -->
<g id="edge4" class="edge">
<title>Node5&#45;&gt;Node4</title>
<path fill="none" stroke="darkgreen" d="M230.89,-562.66C230.69,-486.31 230.26,-323.52 230.08,-255.68"/>
<polygon fill="none" stroke="darkgreen" points="227.39,-562.86 230.92,-572.85 234.39,-562.84 227.39,-562.86"/>
</g>
<!-- Node6 -->
<g id="node6" class="node">
<title>Node6</title>
<g id="a_node6"><a xlink:href="classsisi4s_1_1MixerRegistrar.html" target="_top" xlink:title="Class to be statically instantiated by a mixer to register it in the MixerFactory....">
<polygon fill="white" stroke="#666666" points="375,-459 247,-459 247,-407 375,-407 375,-459"/>
<text text-anchor="start" x="255" y="-447" font-family="Helvetica,sans-Serif" font-size="10.00">{sisi4s::MixerRegistrar</text>
<text text-anchor="middle" x="311" y="-436" font-family="Helvetica,sans-Serif" font-size="10.00">&lt; F, MixerType &gt;</text>
<text text-anchor="start" x="255" y="-425" font-family="Helvetica,sans-Serif" font-size="10.00">||+ MixerRegistrar()</text>
<text text-anchor="middle" x="311" y="-414" font-family="Helvetica,sans-Serif" font-size="10.00">}</text>
</a>
</g>
</g>
<!-- Node5&#45;&gt;Node6 -->
<g id="edge6" class="edge">
<title>Node5&#45;&gt;Node6</title>
<path fill="none" stroke="darkgreen" d="M249.82,-563.62C265.07,-531.32 286.09,-486.78 299.1,-459.22"/>
<polygon fill="none" stroke="darkgreen" points="246.59,-562.27 245.49,-572.8 252.92,-565.26 246.59,-562.27"/>
</g>
<!-- Node6&#45;&gt;Node4 -->
<g id="edge5" class="edge">
<title>Node6&#45;&gt;Node4</title>
<path fill="none" stroke="orange" d="M297.34,-397.1C281.83,-357.46 256.77,-293.42 241.99,-255.64"/>
<polygon fill="orange" stroke="orange" points="294.16,-398.58 301.07,-406.62 300.68,-396.03 294.16,-398.58"/>
<text text-anchor="start" x="263" y="-304" font-family="Helvetica,sans-Serif" font-size="10.00"> &lt; F, sisi4s::LinearMixer</text>
<text text-anchor="middle" x="322" y="-293" font-family="Helvetica,sans-Serif" font-size="10.00">&lt; F &gt; &gt;</text>
</g>
</g>
</svg>
