<?xml version="1.0" encoding="UTF-8" standalone="no"?>
<!DOCTYPE svg PUBLIC "-//W3C//DTD SVG 1.1//EN"
 "http://www.w3.org/Graphics/SVG/1.1/DTD/svg11.dtd">
<!-- Generated by graphviz version 9.0.0 (0)
 -->
<!-- Title: CLI::App::_process_env Pages: 1 -->
<svg width="298pt" height="68pt"
 viewBox="0.00 0.00 298.00 67.75" xmlns="http://www.w3.org/2000/svg" xmlns:xlink="http://www.w3.org/1999/xlink">
<g id="graph0" class="graph" transform="scale(1 1) rotate(0) translate(4 63.75)">
<title>CLI::App::_process_env</title>
<!-- Node1 -->
<g id="Node000001" class="node">
<title>Node1</title>
<g id="a_Node000001"><a xlink:title="Get envname options if not yet passed. Runs on all subcommands.">
<polygon fill="#999999" stroke="#666666" points="127.75,-39.75 0,-39.75 0,-19 127.75,-19 127.75,-39.75"/>
<text text-anchor="middle" x="63.88" y="-26.25" font-family="Helvetica,sans-Serif" font-size="10.00">CLI::App::_process_env</text>
</a>
</g>
</g>
<!-- Node2 -->
<g id="Node000002" class="node">
<title>Node2</title>
<g id="a_Node000002"><a xlink:href="classCLI_1_1Option.html#a49ba3750688c16a2c001dd2c91ecba3e" target="_top" xlink:title="Puts a result at the end.">
<polygon fill="white" stroke="#666666" points="290,-59.75 163.75,-59.75 163.75,-39 290,-39 290,-59.75"/>
<text text-anchor="middle" x="226.88" y="-46.25" font-family="Helvetica,sans-Serif" font-size="10.00">CLI::Option::add_result</text>
</a>
</g>
</g>
<!-- Node1&#45;&gt;Node2 -->
<g id="edge1_Node000001_Node000002" class="edge">
<title>Node1&#45;&gt;Node2</title>
<g id="a_edge1_Node000001_Node000002"><a xlink:title=" ">
<path fill="none" stroke="#63b8ff" d="M128.04,-37.22C135.95,-38.2 144.09,-39.21 152.13,-40.21"/>
<polygon fill="#63b8ff" stroke="#63b8ff" points="151.56,-43.67 161.91,-41.43 152.42,-36.72 151.56,-43.67"/>
</a>
</g>
</g>
<!-- Node3 -->
<g id="Node000003" class="node">
<title>Node3</title>
<g id="a_Node000003"><a xlink:href="classCLI_1_1Option.html#a154543609c45d9c59c69991a08ca272b" target="_top" xlink:title="Count the total number of times an option was passed.">
<polygon fill="white" stroke="#666666" points="278,-20.75 175.75,-20.75 175.75,0 278,0 278,-20.75"/>
<text text-anchor="middle" x="226.88" y="-7.25" font-family="Helvetica,sans-Serif" font-size="10.00">CLI::Option::count</text>
</a>
</g>
</g>
<!-- Node1&#45;&gt;Node3 -->
<g id="edge2_Node000001_Node000003" class="edge">
<title>Node1&#45;&gt;Node3</title>
<g id="a_edge2_Node000001_Node000003"><a xlink:title=" ">
<path fill="none" stroke="#63b8ff" d="M128.04,-21.92C139.93,-20.52 152.34,-19.05 164.18,-17.66"/>
<polygon fill="#63b8ff" stroke="#63b8ff" points="164.29,-21.17 173.81,-16.52 163.47,-14.22 164.29,-21.17"/>
</a>
</g>
</g>
</g>
</svg>
