<?xml version="1.0" encoding="UTF-8" standalone="no"?>
<!DOCTYPE svg PUBLIC "-//W3C//DTD SVG 1.1//EN"
 "http://www.w3.org/Graphics/SVG/1.1/DTD/svg11.dtd">
<!-- Generated by graphviz version 8.1.0 (0)
 -->
<!-- Title: sisi4s::PseudoInverseSvd::get Pages: 1 -->
<svg width="1116pt" height="170pt"
 viewBox="0.00 0.00 1116.25 170.12" xmlns="http://www.w3.org/2000/svg" xmlns:xlink="http://www.w3.org/1999/xlink">
<g id="graph0" class="graph" transform="scale(1 1) rotate(0) translate(4 166.12)">
<title>sisi4s::PseudoInverseSvd::get</title>
<!-- Node1 -->
<g id="Node000001" class="node">
<title>Node1</title>
<g id="a_Node000001"><a xlink:title=" ">
<polygon fill="#999999" stroke="#666666" points="1108.25,-95.75 947.5,-95.75 947.5,-75 1108.25,-75 1108.25,-95.75"/>
<text text-anchor="middle" x="1027.88" y="-82.25" font-family="Helvetica,sans-Serif" font-size="10.00">sisi4s::PseudoInverseSvd::get</text>
</a>
</g>
</g>
<!-- Node2 -->
<g id="Node000002" class="node">
<title>Node2</title>
<g id="a_Node000002"><a xlink:href="namespacesisi4s.html#a7aeaa0a35be34eeeb8537d428a75e97d" target="_top" xlink:title=" ">
<polygon fill="white" stroke="#666666" points="895.75,-158.12 756,-158.12 756,-124.62 895.75,-124.62 895.75,-158.12"/>
<text text-anchor="start" x="764" y="-144.62" font-family="Helvetica,sans-Serif" font-size="10.00">sisi4s::fitAlternatingLeast</text>
<text text-anchor="middle" x="825.88" y="-131.88" font-family="Helvetica,sans-Serif" font-size="10.00">SquaresFactor</text>
</a>
</g>
</g>
<!-- Node1&#45;&gt;Node2 -->
<g id="edge1_Node000001_Node000002" class="edge">
<title>Node1&#45;&gt;Node2</title>
<g id="a_edge1_Node000001_Node000002"><a xlink:title=" ">
<path fill="none" stroke="#63b8ff" d="M977.92,-99.08C950.85,-106.66 916.96,-116.15 888.14,-124.22"/>
<polygon fill="#63b8ff" stroke="#63b8ff" points="978.63,-102.24 987.31,-96.17 976.74,-95.5 978.63,-102.24"/>
</a>
</g>
</g>
<!-- Node6 -->
<g id="Node000006" class="node">
<title>Node6</title>
<g id="a_Node000006"><a xlink:href="namespacesisi4s.html#a8ca8aaa549414abe940b2f7ecc1f549d" target="_top" xlink:title=" ">
<polygon fill="white" stroke="#666666" points="911.5,-102.12 740.25,-102.12 740.25,-68.62 911.5,-68.62 911.5,-102.12"/>
<text text-anchor="start" x="748.25" y="-88.62" font-family="Helvetica,sans-Serif" font-size="10.00">sisi4s::fitRegularizedAlternating</text>
<text text-anchor="middle" x="825.88" y="-75.88" font-family="Helvetica,sans-Serif" font-size="10.00">LeastSquaresFactor</text>
</a>
</g>
</g>
<!-- Node1&#45;&gt;Node6 -->
<g id="edge5_Node000001_Node000006" class="edge">
<title>Node1&#45;&gt;Node6</title>
<g id="a_edge5_Node000001_Node000006"><a xlink:title=" ">
<path fill="none" stroke="#63b8ff" d="M936.51,-85.38C928.29,-85.38 919.98,-85.38 911.8,-85.38"/>
<polygon fill="#63b8ff" stroke="#63b8ff" points="936.26,-88.88 946.26,-85.38 936.26,-81.88 936.26,-88.88"/>
</a>
</g>
</g>
<!-- Node9 -->
<g id="Node000009" class="node">
<title>Node9</title>
<g id="a_Node000009"><a xlink:href="classsisi4s_1_1BasisSetExtrapolation.html#aaa654eb909579e0b49351aa9ad5d637f" target="_top" xlink:title=" ">
<polygon fill="white" stroke="#666666" points="904.38,-42.12 747.38,-42.12 747.38,-8.62 904.38,-8.62 904.38,-42.12"/>
<text text-anchor="start" x="755.38" y="-28.62" font-family="Helvetica,sans-Serif" font-size="10.00">sisi4s::BasisSetExtrapolation</text>
<text text-anchor="middle" x="825.88" y="-15.88" font-family="Helvetica,sans-Serif" font-size="10.00">::invertQGG</text>
</a>
</g>
</g>
<!-- Node1&#45;&gt;Node9 -->
<g id="edge9_Node000001_Node000009" class="edge">
<title>Node1&#45;&gt;Node9</title>
<g id="a_edge9_Node000001_Node000009"><a xlink:title=" ">
<path fill="none" stroke="#63b8ff" d="M980.47,-71.45C951.72,-62.83 914.57,-51.68 884.01,-42.52"/>
<polygon fill="#63b8ff" stroke="#63b8ff" points="979.07,-74.99 989.66,-74.51 981.08,-68.28 979.07,-74.99"/>
</a>
</g>
</g>
<!-- Node3 -->
<g id="Node000003" class="node">
<title>Node3</title>
<g id="a_Node000003"><a xlink:href="classsisi4s_1_1CoulombVertexDecomposition.html#a9bad578c327384b5b48a0c98a907cded" target="_top" xlink:title="Solves the quadratically occurring factor Pi iteratively similar to the Babylonian algorithm.">
<polygon fill="white" stroke="#666666" points="704.25,-162.12 506,-162.12 506,-128.62 704.25,-128.62 704.25,-162.12"/>
<text text-anchor="start" x="514" y="-148.62" font-family="Helvetica,sans-Serif" font-size="10.00">sisi4s::CoulombVertexDecomposition</text>
<text text-anchor="middle" x="605.12" y="-135.88" font-family="Helvetica,sans-Serif" font-size="10.00">::iterateQuadraticFactor</text>
</a>
</g>
</g>
<!-- Node2&#45;&gt;Node3 -->
<g id="edge2_Node000002_Node000003" class="edge">
<title>Node2&#45;&gt;Node3</title>
<g id="a_edge2_Node000002_Node000003"><a xlink:title=" ">
<path fill="none" stroke="#63b8ff" d="M744.8,-142.84C731.69,-143.08 717.96,-143.33 704.46,-143.58"/>
<polygon fill="#63b8ff" stroke="#63b8ff" points="744.73,-146.32 754.66,-142.64 744.6,-139.32 744.73,-146.32"/>
</a>
</g>
</g>
<!-- Node4 -->
<g id="Node000004" class="node">
<title>Node4</title>
<g id="a_Node000004"><a xlink:href="classsisi4s_1_1CoulombVertexDecomposition.html#acd985462c04c09ccd03c9b85aeff652a" target="_top" xlink:title="Performs one iteration in fitting the factor orbitals and the Coulomb factors according to the given ...">
<polygon fill="white" stroke="#666666" points="470,-132.75 256,-132.75 256,-112 470,-112 470,-132.75"/>
<text text-anchor="middle" x="363" y="-119.25" font-family="Helvetica,sans-Serif" font-size="10.00">sisi4s::CoulombVertexDecomposition::fit</text>
</a>
</g>
</g>
<!-- Node3&#45;&gt;Node4 -->
<g id="edge3_Node000003_Node000004" class="edge">
<title>Node3&#45;&gt;Node4</title>
<g id="a_edge3_Node000003_Node000004"><a xlink:title=" ">
<path fill="none" stroke="#63b8ff" d="M495.04,-134.93C486.85,-134.14 478.58,-133.35 470.41,-132.57"/>
<polygon fill="#63b8ff" stroke="#63b8ff" points="494.48,-138.48 504.76,-135.95 495.14,-131.52 494.48,-138.48"/>
</a>
</g>
</g>
<!-- Node5 -->
<g id="Node000005" class="node">
<title>Node5</title>
<g id="a_Node000005"><a xlink:href="classsisi4s_1_1CoulombVertexDecomposition.html#accb34639975cd2eed1188f32d3f239ff" target="_top" xlink:title=" ">
<polygon fill="white" stroke="#666666" points="220,-132.75 0,-132.75 0,-112 220,-112 220,-132.75"/>
<text text-anchor="middle" x="110" y="-119.25" font-family="Helvetica,sans-Serif" font-size="10.00">sisi4s::CoulombVertexDecomposition::run</text>
</a>
</g>
</g>
<!-- Node4&#45;&gt;Node5 -->
<g id="edge4_Node000004_Node000005" class="edge">
<title>Node4&#45;&gt;Node5</title>
<g id="a_edge4_Node000004_Node000005"><a xlink:title=" ">
<path fill="none" stroke="#63b8ff" d="M244.6,-122.38C236.54,-122.38 228.44,-122.38 220.42,-122.38"/>
<polygon fill="#63b8ff" stroke="#63b8ff" points="244.55,-125.88 254.55,-122.38 244.55,-118.88 244.55,-125.88"/>
</a>
</g>
</g>
<!-- Node6&#45;&gt;Node4 -->
<g id="edge6_Node000006_Node000004" class="edge">
<title>Node6&#45;&gt;Node4</title>
<g id="a_edge6_Node000006_Node000004"><a xlink:title=" ">
<path fill="none" stroke="#63b8ff" d="M728.9,-93.08C653.47,-99.14 548.47,-107.57 470.46,-113.83"/>
<polygon fill="#63b8ff" stroke="#63b8ff" points="729.12,-96.49 738.81,-92.2 728.56,-89.52 729.12,-96.49"/>
</a>
</g>
</g>
<!-- Node7 -->
<g id="Node000007" class="node">
<title>Node7</title>
<g id="a_Node000007"><a xlink:href="classsisi4s_1_1ParticleHoleCoulombVertexDecomposition.html#a89e580fcc9544ae668ccda0d37256f35" target="_top" xlink:title="Performs one iteration in fitting the factor orbitals and the Coulomb factors according to the given ...">
<polygon fill="white" stroke="#666666" points="681,-72.12 529.25,-72.12 529.25,-38.62 681,-38.62 681,-72.12"/>
<text text-anchor="start" x="537.25" y="-58.62" font-family="Helvetica,sans-Serif" font-size="10.00">sisi4s::ParticleHoleCoulomb</text>
<text text-anchor="middle" x="605.12" y="-45.88" font-family="Helvetica,sans-Serif" font-size="10.00">VertexDecomposition::fit</text>
</a>
</g>
</g>
<!-- Node6&#45;&gt;Node7 -->
<g id="edge7_Node000006_Node000007" class="edge">
<title>Node6&#45;&gt;Node7</title>
<g id="a_edge7_Node000006_Node000007"><a xlink:title=" ">
<path fill="none" stroke="#63b8ff" d="M729.48,-72.29C713.37,-70.08 696.84,-67.82 681.34,-65.69"/>
<polygon fill="#63b8ff" stroke="#63b8ff" points="728.6,-75.84 738.99,-73.73 729.56,-68.91 728.6,-75.84"/>
</a>
</g>
</g>
<!-- Node8 -->
<g id="Node000008" class="node">
<title>Node8</title>
<g id="a_Node000008"><a xlink:href="classsisi4s_1_1ParticleHoleCoulombVertexDecomposition.html#a14cd82062611a0e443aff732ae0db121" target="_top" xlink:title=" ">
<polygon fill="white" stroke="#666666" points="438.88,-72.12 287.12,-72.12 287.12,-38.62 438.88,-38.62 438.88,-72.12"/>
<text text-anchor="start" x="295.12" y="-58.62" font-family="Helvetica,sans-Serif" font-size="10.00">sisi4s::ParticleHoleCoulomb</text>
<text text-anchor="middle" x="363" y="-45.88" font-family="Helvetica,sans-Serif" font-size="10.00">VertexDecomposition::run</text>
</a>
</g>
</g>
<!-- Node7&#45;&gt;Node8 -->
<g id="edge8_Node000007_Node000008" class="edge">
<title>Node7&#45;&gt;Node8</title>
<g id="a_edge8_Node000007_Node000008"><a xlink:title=" ">
<path fill="none" stroke="#63b8ff" d="M517.91,-55.38C492.12,-55.38 464.06,-55.38 439.05,-55.38"/>
<polygon fill="#63b8ff" stroke="#63b8ff" points="517.81,-58.88 527.81,-55.38 517.81,-51.88 517.81,-58.88"/>
</a>
</g>
</g>
<!-- Node10 -->
<g id="Node000010" class="node">
<title>Node10</title>
<g id="a_Node000010"><a xlink:href="classsisi4s_1_1BasisSetExtrapolation.html#a4be31f1b32dd68c170238e340981f9dc" target="_top" xlink:title=" ">
<polygon fill="white" stroke="#666666" points="694.5,-20.75 515.75,-20.75 515.75,0 694.5,0 694.5,-20.75"/>
<text text-anchor="middle" x="605.12" y="-7.25" font-family="Helvetica,sans-Serif" font-size="10.00">sisi4s::BasisSetExtrapolation::run</text>
</a>
</g>
</g>
<!-- Node9&#45;&gt;Node10 -->
<g id="edge10_Node000009_Node000010" class="edge">
<title>Node9&#45;&gt;Node10</title>
<g id="a_edge10_Node000009_Node000010"><a xlink:title=" ">
<path fill="none" stroke="#63b8ff" d="M736.28,-19.3C722.6,-18.36 708.48,-17.39 694.8,-16.46"/>
<polygon fill="#63b8ff" stroke="#63b8ff" points="735.92,-22.85 746.14,-20.04 736.4,-15.87 735.92,-22.85"/>
</a>
</g>
</g>
</g>
</svg>
