<?xml version="1.0" encoding="UTF-8" standalone="no"?>
<!DOCTYPE svg PUBLIC "-//W3C//DTD SVG 1.1//EN"
 "http://www.w3.org/Graphics/SVG/1.1/DTD/svg11.dtd">
<!-- Generated by graphviz version 8.1.0 (0)
 -->
<!-- Title: sisi4s::FockVector::operator&#45;= Pages: 1 -->
<svg width="274pt" height="132pt"
 viewBox="0.00 0.00 274.00 131.50" xmlns="http://www.w3.org/2000/svg" xmlns:xlink="http://www.w3.org/1999/xlink">
<g id="graph0" class="graph" transform="scale(1 1) rotate(0) translate(4 127.5)">
<title>sisi4s::FockVector::operator&#45;=</title>
<!-- Node1 -->
<g id="Node000001" class="node">
<title>Node1</title>
<g id="a_Node000001"><a xlink:title="Subtract&#45;from assignment operator subtracting each component of a from the respective component of th...">
<polygon fill="#999999" stroke="#666666" points="103,-78.5 0,-78.5 0,-45 103,-45 103,-78.5"/>
<text text-anchor="start" x="8" y="-65" font-family="Helvetica,sans-Serif" font-size="10.00">sisi4s::FockVector</text>
<text text-anchor="middle" x="51.5" y="-52.25" font-family="Helvetica,sans-Serif" font-size="10.00">::operator&#45;=</text>
</a>
</g>
</g>
<!-- Node2 -->
<g id="Node000002" class="node">
<title>Node2</title>
<g id="a_Node000002"><a xlink:href="classsisi4s_1_1FockVector.html#a71043d7cf50670bf71b593fd0f8289ad" target="_top" xlink:title=" ">
<polygon fill="white" stroke="#666666" points="266,-123.5 139,-123.5 139,-90 266,-90 266,-123.5"/>
<text text-anchor="start" x="147" y="-110" font-family="Helvetica,sans-Serif" font-size="10.00">sisi4s::FockVector</text>
<text text-anchor="middle" x="202.5" y="-97.25" font-family="Helvetica,sans-Serif" font-size="10.00">::checkCompatibilityTo</text>
</a>
</g>
</g>
<!-- Node1&#45;&gt;Node2 -->
<g id="edge1_Node000001_Node000002" class="edge">
<title>Node1&#45;&gt;Node2</title>
<g id="a_edge1_Node000001_Node000002"><a xlink:title=" ">
<path fill="none" stroke="#63b8ff" d="M103.36,-77.11C113.29,-80.11 123.84,-83.3 134.2,-86.43"/>
<polygon fill="#63b8ff" stroke="#63b8ff" points="132.89,-89.99 143.47,-89.53 134.91,-83.29 132.89,-89.99"/>
</a>
</g>
</g>
<!-- Node3 -->
<g id="Node000003" class="node">
<title>Node3</title>
<g id="a_Node000003"><a xlink:href="classsisi4s_1_1FockVector.html#aebf4e090f20a7bb83c434396b274c89c" target="_top" xlink:title="Retrieves the i&#45;th component tensor. Note that the Tensor is not const since rearrangement may be req...">
<polygon fill="white" stroke="#666666" points="264.88,-72.12 140.12,-72.12 140.12,-51.38 264.88,-51.38 264.88,-72.12"/>
<text text-anchor="middle" x="202.5" y="-58.62" font-family="Helvetica,sans-Serif" font-size="10.00">sisi4s::FockVector::get</text>
</a>
</g>
</g>
<!-- Node1&#45;&gt;Node3 -->
<g id="edge2_Node000001_Node000003" class="edge">
<title>Node1&#45;&gt;Node3</title>
<g id="a_edge2_Node000001_Node000003"><a xlink:title=" ">
<path fill="none" stroke="#63b8ff" d="M103.36,-61.75C111.6,-61.75 120.27,-61.75 128.91,-61.75"/>
<polygon fill="#63b8ff" stroke="#63b8ff" points="128.79,-65.25 138.79,-61.75 128.79,-58.25 128.79,-65.25"/>
</a>
</g>
</g>
<!-- Node4 -->
<g id="Node000004" class="node">
<title>Node4</title>
<g id="a_Node000004"><a xlink:href="classsisi4s_1_1FockVector.html#a12f7974afa01def06d0fff6b08c06756" target="_top" xlink:title="Retrieves the i&#45;th component indices.">
<polygon fill="white" stroke="#666666" points="254,-33.5 151,-33.5 151,0 254,0 254,-33.5"/>
<text text-anchor="start" x="159" y="-20" font-family="Helvetica,sans-Serif" font-size="10.00">sisi4s::FockVector</text>
<text text-anchor="middle" x="202.5" y="-7.25" font-family="Helvetica,sans-Serif" font-size="10.00">::getIndices</text>
</a>
</g>
</g>
<!-- Node1&#45;&gt;Node4 -->
<g id="edge3_Node000001_Node000004" class="edge">
<title>Node1&#45;&gt;Node4</title>
<g id="a_edge3_Node000001_Node000004"><a xlink:title=" ">
<path fill="none" stroke="#63b8ff" d="M103.36,-46.39C115.28,-42.79 128.1,-38.92 140.42,-35.2"/>
<polygon fill="#63b8ff" stroke="#63b8ff" points="141.05,-38.36 149.62,-32.12 139.03,-31.66 141.05,-38.36"/>
</a>
</g>
</g>
</g>
</svg>
