<?xml version="1.0" encoding="UTF-8" standalone="no"?>
<!DOCTYPE svg PUBLIC "-//W3C//DTD SVG 1.1//EN"
 "http://www.w3.org/Graphics/SVG/1.1/DTD/svg11.dtd">
<!-- Generated by graphviz version 7.0.0 (0)
 -->
<!-- Title: ghc::filesystem::path::lexically_relative Pages: 1 -->
<svg width="480pt" height="76pt"
 viewBox="0.00 0.00 480.00 75.50" xmlns="http://www.w3.org/2000/svg" xmlns:xlink="http://www.w3.org/1999/xlink">
<g id="graph0" class="graph" transform="scale(1 1) rotate(0) translate(4 71.5)">
<title>ghc::filesystem::path::lexically_relative</title>
<!-- Node1 -->
<g id="node1" class="node">
<title>Node1</title>
<g id="a_node1"><a xlink:title=" ">
<polygon fill="#999999" stroke="#666666" points="472,-45.5 353,-45.5 353,-15.5 472,-15.5 472,-45.5"/>
<text text-anchor="start" x="361" y="-33.5" font-family="Helvetica,sans-Serif" font-size="10.00">ghc::filesystem::path</text>
<text text-anchor="middle" x="412.5" y="-22.5" font-family="Helvetica,sans-Serif" font-size="10.00">::lexically_relative</text>
</a>
</g>
</g>
<!-- Node2 -->
<g id="node2" class="node">
<title>Node2</title>
<g id="a_node2"><a xlink:href="classghc_1_1filesystem_1_1path.html#adb0e3b01125a40da996f9c58465d4c14" target="_top" xlink:title=" ">
<polygon fill="white" stroke="#666666" points="309.5,-67.5 190.5,-67.5 190.5,-37.5 309.5,-37.5 309.5,-67.5"/>
<text text-anchor="start" x="198.5" y="-55.5" font-family="Helvetica,sans-Serif" font-size="10.00">ghc::filesystem::path</text>
<text text-anchor="middle" x="250" y="-44.5" font-family="Helvetica,sans-Serif" font-size="10.00">::lexically_proximate</text>
</a>
</g>
</g>
<!-- Node1&#45;&gt;Node2 -->
<g id="edge1" class="edge">
<title>Node1&#45;&gt;Node2</title>
<path fill="none" stroke="#63b8ff" d="M341.36,-40.11C330.85,-41.56 320.1,-43.03 309.85,-44.43"/>
<polygon fill="#63b8ff" stroke="#63b8ff" points="341.72,-43.6 351.15,-38.77 340.76,-36.66 341.72,-43.6"/>
</g>
<!-- Node4 -->
<g id="node4" class="node">
<title>Node4</title>
<g id="a_node4"><a xlink:href="namespaceghc_1_1filesystem.html#ab1f9e9d8c3bd79b032e0a45307c85df4" target="_top" xlink:title=" ">
<polygon fill="white" stroke="#666666" points="317,-19 183,-19 183,0 317,0 317,-19"/>
<text text-anchor="middle" x="250" y="-7" font-family="Helvetica,sans-Serif" font-size="10.00">ghc::filesystem::relative</text>
</a>
</g>
</g>
<!-- Node1&#45;&gt;Node4 -->
<g id="edge3" class="edge">
<title>Node1&#45;&gt;Node4</title>
<path fill="none" stroke="#63b8ff" d="M341.48,-21.34C333.5,-20.29 325.38,-19.23 317.44,-18.19"/>
<polygon fill="#63b8ff" stroke="#63b8ff" points="340.78,-24.78 351.15,-22.6 341.68,-17.84 340.78,-24.78"/>
</g>
<!-- Node3 -->
<g id="node3" class="node">
<title>Node3</title>
<g id="a_node3"><a xlink:href="namespaceghc_1_1filesystem.html#a6e2b11202cc9b071bbdb16d87c197719" target="_top" xlink:title=" ">
<polygon fill="white" stroke="#666666" points="147,-62 0,-62 0,-43 147,-43 147,-62"/>
<text text-anchor="middle" x="73.5" y="-50" font-family="Helvetica,sans-Serif" font-size="10.00">ghc::filesystem::proximate</text>
</a>
</g>
</g>
<!-- Node2&#45;&gt;Node3 -->
<g id="edge2" class="edge">
<title>Node2&#45;&gt;Node3</title>
<path fill="none" stroke="#63b8ff" d="M179.16,-52.5C168.64,-52.5 157.77,-52.5 147.2,-52.5"/>
<polygon fill="#63b8ff" stroke="#63b8ff" points="178.9,-56 188.9,-52.5 178.9,-49 178.9,-56"/>
</g>
</g>
</svg>
