<?xml version="1.0" encoding="UTF-8" standalone="no"?>
<!DOCTYPE svg PUBLIC "-//W3C//DTD SVG 1.1//EN"
 "http://www.w3.org/Graphics/SVG/1.1/DTD/svg11.dtd">
<!-- Generated by graphviz version 5.0.1 (0)
 -->
<!-- Title: sisi4s::UccsdAmplitudesFromCoulombIntegrals::getResiduumTemplate Pages: 1 -->
<svg width="449pt" height="127pt"
 viewBox="0.00 0.00 449.00 126.50" xmlns="http://www.w3.org/2000/svg" xmlns:xlink="http://www.w3.org/1999/xlink">
<g id="graph0" class="graph" transform="scale(1 1) rotate(0) translate(4 122.5)">
<title>sisi4s::UccsdAmplitudesFromCoulombIntegrals::getResiduumTemplate</title>
<!-- Node1 -->
<g id="node1" class="node">
<title>Node1</title>
<g id="a_node1"><a xlink:title=" ">
<polygon fill="#bfbfbf" stroke="black" points="0,-49.5 0,-79.5 218,-79.5 218,-49.5 0,-49.5"/>
<text text-anchor="start" x="8" y="-67.5" font-family="Helvetica,sans-Serif" font-size="10.00">sisi4s::UccsdAmplitudesFrom</text>
<text text-anchor="middle" x="109" y="-56.5" font-family="Helvetica,sans-Serif" font-size="10.00">CoulombIntegrals::getResiduumTemplate</text>
</a>
</g>
</g>
<!-- Node2 -->
<g id="node2" class="node">
<title>Node2</title>
<g id="a_node2"><a xlink:href="classsisi4s_1_1FockVector.html#ac37c525c89799fb6e2fa419acb4edf4a" target="_top" xlink:title="Retrieves the i&#45;th component tensor. Note that the CTF::Tensor is not const since rearrangement may b...">
<polygon fill="none" stroke="black" points="285,-99 285,-118 410,-118 410,-99 285,-99"/>
<text text-anchor="middle" x="347.5" y="-106" font-family="Helvetica,sans-Serif" font-size="10.00">sisi4s::FockVector::get</text>
</a>
</g>
</g>
<!-- Node1&#45;&gt;Node2 -->
<g id="edge1" class="edge">
<title>Node1&#45;&gt;Node2</title>
<path fill="none" stroke="midnightblue" d="M190.73,-79.52C221.73,-85.29 256.57,-91.77 285.43,-97.14"/>
<polygon fill="midnightblue" stroke="midnightblue" points="284.9,-100.6 295.37,-98.99 286.18,-93.72 284.9,-100.6"/>
</g>
<!-- Node3 -->
<g id="node3" class="node">
<title>Node3</title>
<g id="a_node3"><a xlink:href="classsisi4s_1_1UccsdAmplitudesFromCoulombIntegrals.html#ae3921eb9f91c5eb8ef4d9b10a140ae05" target="_top" xlink:title="Returns the abbreviation of the concrete algorithm, e.g. &quot;Ccd&quot;, &quot;Dcd&quot;.">
<polygon fill="none" stroke="black" points="254,-49.5 254,-79.5 441,-79.5 441,-49.5 254,-49.5"/>
<text text-anchor="start" x="262" y="-67.5" font-family="Helvetica,sans-Serif" font-size="10.00">sisi4s::UccsdAmplitudesFrom</text>
<text text-anchor="middle" x="347.5" y="-56.5" font-family="Helvetica,sans-Serif" font-size="10.00">CoulombIntegrals::getAbbreviation</text>
</a>
</g>
</g>
<!-- Node1&#45;&gt;Node3 -->
<g id="edge2" class="edge">
<title>Node1&#45;&gt;Node3</title>
<path fill="none" stroke="midnightblue" d="M218.21,-64.5C226.69,-64.5 235.23,-64.5 243.67,-64.5"/>
<polygon fill="midnightblue" stroke="midnightblue" points="243.89,-68 253.89,-64.5 243.89,-61 243.89,-68"/>
</g>
<!-- Node4 -->
<g id="node4" class="node">
<title>Node4</title>
<g id="a_node4"><a xlink:href="classsisi4s_1_1Algorithm.html#aec9041b31cb64a42ee1fd79d32774266" target="_top" xlink:title=" ">
<polygon fill="none" stroke="black" points="295.5,-0.5 295.5,-30.5 399.5,-30.5 399.5,-0.5 295.5,-0.5"/>
<text text-anchor="start" x="303.5" y="-18.5" font-family="Helvetica,sans-Serif" font-size="10.00">sisi4s::Algorithm::</text>
<text text-anchor="middle" x="347.5" y="-7.5" font-family="Helvetica,sans-Serif" font-size="10.00">isArgumentGiven</text>
</a>
</g>
</g>
<!-- Node1&#45;&gt;Node4 -->
<g id="edge3" class="edge">
<title>Node1&#45;&gt;Node4</title>
<path fill="none" stroke="midnightblue" d="M182.57,-49.47C215.52,-42.64 254.08,-34.65 285.51,-28.14"/>
<polygon fill="midnightblue" stroke="midnightblue" points="286.37,-31.53 295.45,-26.08 284.95,-24.68 286.37,-31.53"/>
</g>
</g>
</svg>
