<?xml version="1.0" encoding="UTF-8" standalone="no"?>
<!DOCTYPE svg PUBLIC "-//W3C//DTD SVG 1.1//EN"
 "http://www.w3.org/Graphics/SVG/1.1/DTD/svg11.dtd">
<!-- Generated by graphviz version 7.1.0 (0)
 -->
<!-- Title: CLI::App::get_name Pages: 1 -->
<svg width="468pt" height="295pt"
 viewBox="0.00 0.00 468.00 295.00" xmlns="http://www.w3.org/2000/svg" xmlns:xlink="http://www.w3.org/1999/xlink">
<g id="graph0" class="graph" transform="scale(1 1) rotate(0) translate(4 291)">
<title>CLI::App::get_name</title>
<!-- Node1 -->
<g id="node1" class="node">
<title>Node1</title>
<g id="a_node1"><a xlink:title="Get the name of the current app.">
<polygon fill="#999999" stroke="#666666" points="460,-153.5 349,-153.5 349,-134.5 460,-134.5 460,-153.5"/>
<text text-anchor="middle" x="404.5" y="-141.5" font-family="Helvetica,sans-Serif" font-size="10.00">CLI::App::get_name</text>
</a>
</g>
</g>
<!-- Node2 -->
<g id="node2" class="node">
<title>Node2</title>
<g id="a_node2"><a xlink:href="classCLI_1_1App.html#aade2ac30d86141da0d55d9181ac8b710" target="_top" xlink:title="Helper function to run through all possible comparisons of subcommand names to check there is no over...">
<polygon fill="white" stroke="#666666" points="292,-287 166,-287 166,-257 292,-257 292,-287"/>
<text text-anchor="start" x="174" y="-275" font-family="Helvetica,sans-Serif" font-size="10.00">CLI::App::_compare</text>
<text text-anchor="middle" x="229" y="-264" font-family="Helvetica,sans-Serif" font-size="10.00">_subcommand_names</text>
</a>
</g>
</g>
<!-- Node1&#45;&gt;Node2 -->
<g id="edge1" class="edge">
<title>Node1&#45;&gt;Node2</title>
<path fill="none" stroke="#63b8ff" d="M391.56,-163.57C376.23,-187.05 347.47,-226 313,-248 306.68,-252.04 299.66,-255.41 292.46,-258.23"/>
<polygon fill="#63b8ff" stroke="#63b8ff" points="394.43,-165.58 396.82,-155.26 388.51,-161.84 394.43,-165.58"/>
</g>
<!-- Node3 -->
<g id="node3" class="node">
<title>Node3</title>
<g id="a_node3"><a xlink:href="classCLI_1_1App.html#a4e0c00ce18bbfca1ae890a653bbd2b93" target="_top" xlink:title="Verify required options and cross requirements. Subcommands too (only if selected).">
<polygon fill="white" stroke="#666666" points="281.5,-239 176.5,-239 176.5,-209 281.5,-209 281.5,-239"/>
<text text-anchor="start" x="184.5" y="-227" font-family="Helvetica,sans-Serif" font-size="10.00">CLI::App::_process</text>
<text text-anchor="middle" x="229" y="-216" font-family="Helvetica,sans-Serif" font-size="10.00">_requirements</text>
</a>
</g>
</g>
<!-- Node1&#45;&gt;Node3 -->
<g id="edge2" class="edge">
<title>Node1&#45;&gt;Node3</title>
<path fill="none" stroke="#63b8ff" d="M381.07,-160.29C363.31,-172.58 337.51,-189.12 313,-200 303.13,-204.38 292.24,-208.2 281.7,-211.42"/>
<polygon fill="#63b8ff" stroke="#63b8ff" points="382.65,-163.46 388.81,-154.84 378.62,-157.74 382.65,-163.46"/>
</g>
<!-- Node4 -->
<g id="node4" class="node">
<title>Node4</title>
<g id="a_node4"><a xlink:href="classCLI_1_1App.html#ad03898df2eadbe937c81d80215169235" target="_top" xlink:title=" ">
<polygon fill="white" stroke="#666666" points="303.5,-190.5 154.5,-190.5 154.5,-171.5 303.5,-171.5 303.5,-190.5"/>
<text text-anchor="middle" x="229" y="-178.5" font-family="Helvetica,sans-Serif" font-size="10.00">CLI::App::get_subcommand</text>
</a>
</g>
</g>
<!-- Node1&#45;&gt;Node4 -->
<g id="edge3" class="edge">
<title>Node1&#45;&gt;Node4</title>
<path fill="none" stroke="#63b8ff" d="M345.89,-156.29C323.39,-161.08 297.94,-166.51 276.62,-171.06"/>
<polygon fill="#63b8ff" stroke="#63b8ff" points="346.47,-159.74 355.52,-154.23 345.01,-152.89 346.47,-159.74"/>
</g>
<!-- Node5 -->
<g id="node5" class="node">
<title>Node5</title>
<g id="a_node5"><a xlink:href="classCLI_1_1App.html#a63c0110a3e63515e3b9b70b7b560d676" target="_top" xlink:title="Check to see if a subcommand is part of this command and get a shared_ptr to it.">
<polygon fill="white" stroke="#666666" points="313,-153.5 145,-153.5 145,-134.5 313,-134.5 313,-153.5"/>
<text text-anchor="middle" x="229" y="-141.5" font-family="Helvetica,sans-Serif" font-size="10.00">CLI::App::get_subcommand_ptr</text>
</a>
</g>
</g>
<!-- Node1&#45;&gt;Node5 -->
<g id="edge4" class="edge">
<title>Node1&#45;&gt;Node5</title>
<path fill="none" stroke="#63b8ff" d="M337.33,-144C329.49,-144 321.42,-144 313.38,-144"/>
<polygon fill="#63b8ff" stroke="#63b8ff" points="337.09,-147.5 347.09,-144 337.09,-140.5 337.09,-147.5"/>
</g>
<!-- Node7 -->
<g id="node7" class="node">
<title>Node7</title>
<g id="a_node7"><a xlink:href="classCLI_1_1Formatter.html#ade54fd392e2c9f5364744dca82408e60" target="_top" xlink:title="This prints out a subcommand in help&#45;all.">
<polygon fill="white" stroke="#666666" points="288.5,-116 169.5,-116 169.5,-86 288.5,-86 288.5,-116"/>
<text text-anchor="start" x="177.5" y="-104" font-family="Helvetica,sans-Serif" font-size="10.00">CLI::Formatter::make</text>
<text text-anchor="middle" x="229" y="-93" font-family="Helvetica,sans-Serif" font-size="10.00">_expanded</text>
</a>
</g>
</g>
<!-- Node1&#45;&gt;Node7 -->
<g id="edge6" class="edge">
<title>Node1&#45;&gt;Node7</title>
<path fill="none" stroke="#63b8ff" d="M352.23,-131.29C332.3,-126.35 309.36,-120.67 288.77,-115.57"/>
<polygon fill="#63b8ff" stroke="#63b8ff" points="351.24,-134.65 361.79,-133.66 352.93,-127.86 351.24,-134.65"/>
</g>
<!-- Node8 -->
<g id="node8" class="node">
<title>Node8</title>
<g id="a_node8"><a xlink:href="classCLI_1_1Formatter.html#a838e0f47efa4fbd1b738eedb156887b9" target="_top" xlink:title="This puts everything together.">
<polygon fill="white" stroke="#666666" points="301.5,-67.5 156.5,-67.5 156.5,-48.5 301.5,-48.5 301.5,-67.5"/>
<text text-anchor="middle" x="229" y="-55.5" font-family="Helvetica,sans-Serif" font-size="10.00">CLI::Formatter::make_help</text>
</a>
</g>
</g>
<!-- Node1&#45;&gt;Node8 -->
<g id="edge7" class="edge">
<title>Node1&#45;&gt;Node8</title>
<path fill="none" stroke="#63b8ff" d="M385.2,-126.85C367.89,-111.55 340.53,-89.66 313,-77 305.08,-73.35 296.4,-70.38 287.73,-67.96"/>
<polygon fill="#63b8ff" stroke="#63b8ff" points="382.4,-129.04 392.17,-133.15 387.1,-123.85 382.4,-129.04"/>
</g>
<!-- Node9 -->
<g id="node9" class="node">
<title>Node9</title>
<g id="a_node9"><a xlink:href="classCLI_1_1ConfigBase.html#a5832f6f03212648fa08a8ff83bc9bc08" target="_top" xlink:title="Convert an app into a configuration.">
<polygon fill="white" stroke="#666666" points="283,-30 175,-30 175,0 283,0 283,-30"/>
<text text-anchor="start" x="183" y="-18" font-family="Helvetica,sans-Serif" font-size="10.00">CLI::ConfigBase::to</text>
<text text-anchor="middle" x="229" y="-7" font-family="Helvetica,sans-Serif" font-size="10.00">_config</text>
</a>
</g>
</g>
<!-- Node1&#45;&gt;Node9 -->
<g id="edge8" class="edge">
<title>Node1&#45;&gt;Node9</title>
<path fill="none" stroke="#63b8ff" d="M391.52,-124.5C376.15,-101.08 347.34,-62.19 313,-40 304.03,-34.2 293.64,-29.7 283.33,-26.21"/>
<polygon fill="#63b8ff" stroke="#63b8ff" points="388.47,-126.22 396.79,-132.77 394.37,-122.46 388.47,-126.22"/>
</g>
<!-- Node6 -->
<g id="node6" class="node">
<title>Node6</title>
<g id="a_node6"><a xlink:href="classCLI_1_1Option__group.html#a1be93903743c2cdc64f1237ca956ff0b" target="_top" xlink:title="Add an existing subcommand to be a member of an option_group.">
<polygon fill="white" stroke="#666666" points="109,-159 0,-159 0,-129 109,-129 109,-159"/>
<text text-anchor="start" x="8" y="-147" font-family="Helvetica,sans-Serif" font-size="10.00">CLI::Option_group::</text>
<text text-anchor="middle" x="54.5" y="-136" font-family="Helvetica,sans-Serif" font-size="10.00">add_subcommand</text>
</a>
</g>
</g>
<!-- Node5&#45;&gt;Node6 -->
<g id="edge5" class="edge">
<title>Node5&#45;&gt;Node6</title>
<path fill="none" stroke="#63b8ff" d="M133.25,-144C125,-144 116.86,-144 109.13,-144"/>
<polygon fill="#63b8ff" stroke="#63b8ff" points="133.02,-147.5 143.02,-144 133.02,-140.5 133.02,-147.5"/>
</g>
</g>
</svg>
