<?xml version="1.0" encoding="UTF-8" standalone="no"?>
<!DOCTYPE svg PUBLIC "-//W3C//DTD SVG 1.1//EN"
 "http://www.w3.org/Graphics/SVG/1.1/DTD/svg11.dtd">
<!-- Generated by graphviz version 9.0.0 (0)
 -->
<!-- Title: sisi4s::DryMemory Pages: 1 -->
<svg width="127pt" height="108pt"
 viewBox="0.00 0.00 127.00 108.00" xmlns="http://www.w3.org/2000/svg" xmlns:xlink="http://www.w3.org/1999/xlink">
<g id="graph0" class="graph" transform="scale(1 1) rotate(0) translate(4 104)">
<title>sisi4s::DryMemory</title>
<!-- Node1 -->
<g id="Node000001" class="node">
<title>Node1</title>
<g id="a_Node000001"><a xlink:title=" ">
<polygon fill="#999999" stroke="none" points="119,-100 0,-100 0,0 119,0 119,-100"/>
<text text-anchor="start" x="13.75" y="-86.5" font-family="Helvetica,sans-Serif" font-size="10.00">sisi4s::DryMemory</text>
<text text-anchor="start" x="3.88" y="-70.5" font-family="Helvetica,sans-Serif" font-size="10.00">+</text>
<text text-anchor="start" x="16" y="-70.5" font-family="Helvetica,sans-Serif" font-size="10.00">currentTotalSize</text>
<text text-anchor="start" x="3.88" y="-54.5" font-family="Helvetica,sans-Serif" font-size="10.00">+</text>
<text text-anchor="start" x="16" y="-54.5" font-family="Helvetica,sans-Serif" font-size="10.00">maxTotalSize</text>
<text text-anchor="start" x="3.88" y="-38.5" font-family="Helvetica,sans-Serif" font-size="10.00">+</text>
<text text-anchor="start" x="16" y="-38.5" font-family="Helvetica,sans-Serif" font-size="10.00">extendingResources</text>
<text text-anchor="start" x="3.88" y="-22.5" font-family="Helvetica,sans-Serif" font-size="10.00">+</text>
<text text-anchor="start" x="16" y="-22.5" font-family="Helvetica,sans-Serif" font-size="10.00">allocate()</text>
<text text-anchor="start" x="3.88" y="-6.5" font-family="Helvetica,sans-Serif" font-size="10.00">+</text>
<text text-anchor="start" x="16" y="-6.5" font-family="Helvetica,sans-Serif" font-size="10.00">free()</text>
<polygon fill="#666666" stroke="#666666" points="0,-82 0,-82 119,-82 119,-82 0,-82"/>
<polygon fill="#666666" stroke="#666666" points="0,-34 0,-34 14,-34 14,-34 0,-34"/>
<polygon fill="#666666" stroke="#666666" points="14,-34 14,-34 119,-34 119,-34 14,-34"/>
<polygon fill="none" stroke="#666666" points="0,0 0,-100 119,-100 119,0 0,0"/>
</a>
</g>
</g>
</g>
</svg>
