<?xml version="1.0" encoding="UTF-8" standalone="no"?>
<!DOCTYPE svg PUBLIC "-//W3C//DTD SVG 1.1//EN"
 "http://www.w3.org/Graphics/SVG/1.1/DTD/svg11.dtd">
<!-- Generated by graphviz version 9.0.0 (0)
 -->
<!-- Title: sisi4s::FcidumpReader Pages: 1 -->
<svg width="442pt" height="716pt"
 viewBox="0.00 0.00 441.75 715.50" xmlns="http://www.w3.org/2000/svg" xmlns:xlink="http://www.w3.org/1999/xlink">
<g id="graph0" class="graph" transform="scale(1 1) rotate(0) translate(4 711.5)">
<title>sisi4s::FcidumpReader</title>
<!-- Node1 -->
<g id="Node000001" class="node">
<title>Node1</title>
<g id="a_Node000001"><a xlink:title=" ">
<polygon fill="#999999" stroke="none" points="198,-116 78,-116 78,0 198,0 198,-116"/>
<text text-anchor="start" x="82.88" y="-102.5" font-family="Helvetica,sans-Serif" font-size="10.00">sisi4s::FcidumpReader</text>
<text text-anchor="start" x="136.5" y="-86.5" font-family="Helvetica,sans-Serif" font-size="10.00"> </text>
<text text-anchor="start" x="83.88" y="-70.5" font-family="Helvetica,sans-Serif" font-size="10.00">+</text>
<text text-anchor="start" x="98" y="-70.5" font-family="Helvetica,sans-Serif" font-size="10.00">parseHeader()</text>
<text text-anchor="start" x="83.88" y="-54.5" font-family="Helvetica,sans-Serif" font-size="10.00">+</text>
<text text-anchor="start" x="98" y="-54.5" font-family="Helvetica,sans-Serif" font-size="10.00">getName()</text>
<text text-anchor="start" x="83.88" y="-38.5" font-family="Helvetica,sans-Serif" font-size="10.00">+</text>
<text text-anchor="start" x="98" y="-38.5" font-family="Helvetica,sans-Serif" font-size="10.00">FcidumpReader()</text>
<text text-anchor="start" x="83.88" y="-22.5" font-family="Helvetica,sans-Serif" font-size="10.00">+</text>
<text text-anchor="start" x="98" y="-22.5" font-family="Helvetica,sans-Serif" font-size="10.00">~FcidumpReader()</text>
<text text-anchor="start" x="83.88" y="-6.5" font-family="Helvetica,sans-Serif" font-size="10.00">+</text>
<text text-anchor="start" x="98" y="-6.5" font-family="Helvetica,sans-Serif" font-size="10.00">run()</text>
<polygon fill="#666666" stroke="#666666" points="78,-98 78,-98 198,-98 198,-98 78,-98"/>
<polygon fill="#666666" stroke="#666666" points="78,-82 78,-82 198,-82 198,-82 78,-82"/>
<polygon fill="none" stroke="#666666" points="78,0 78,-116 198,-116 198,0 78,0"/>
</a>
</g>
</g>
<!-- Node2 -->
<g id="Node000002" class="node">
<title>Node2</title>
<g id="a_Node000002"><a xlink:href="classsisi4s_1_1Algorithm.html" target="_top" xlink:title=" ">
<polygon fill="white" stroke="none" points="172,-472.75 0,-472.75 0,-164.75 172,-164.75 172,-472.75"/>
<text text-anchor="start" x="45.12" y="-459.25" font-family="Helvetica,sans-Serif" font-size="10.00">sisi4s::Algorithm</text>
<text text-anchor="start" x="3.88" y="-443.25" font-family="Helvetica,sans-Serif" font-size="10.00">+</text>
<text text-anchor="start" x="16" y="-443.25" font-family="Helvetica,sans-Serif" font-size="10.00">note</text>
<text text-anchor="start" x="3.88" y="-427.25" font-family="Helvetica,sans-Serif" font-size="10.00">+</text>
<text text-anchor="start" x="16" y="-427.25" font-family="Helvetica,sans-Serif" font-size="10.00">fallible</text>
<text text-anchor="start" x="3.88" y="-411.25" font-family="Helvetica,sans-Serif" font-size="10.00">#</text>
<text text-anchor="start" x="16" y="-411.25" font-family="Helvetica,sans-Serif" font-size="10.00">arguments</text>
<text text-anchor="start" x="3.88" y="-395.25" font-family="Helvetica,sans-Serif" font-size="10.00">+</text>
<text text-anchor="start" x="16" y="-395.25" font-family="Helvetica,sans-Serif" font-size="10.00">Algorithm()</text>
<text text-anchor="start" x="3.88" y="-379.25" font-family="Helvetica,sans-Serif" font-size="10.00">+</text>
<text text-anchor="start" x="16" y="-379.25" font-family="Helvetica,sans-Serif" font-size="10.00">~Algorithm()</text>
<text text-anchor="start" x="3.88" y="-363.25" font-family="Helvetica,sans-Serif" font-size="10.00">+</text>
<text text-anchor="start" x="16" y="-363.25" font-family="Helvetica,sans-Serif" font-size="10.00">getName()</text>
<text text-anchor="start" x="3.88" y="-347.25" font-family="Helvetica,sans-Serif" font-size="10.00">+</text>
<text text-anchor="start" x="16" y="-347.25" font-family="Helvetica,sans-Serif" font-size="10.00">run()</text>
<text text-anchor="start" x="3.88" y="-331.25" font-family="Helvetica,sans-Serif" font-size="10.00">+</text>
<text text-anchor="start" x="16" y="-331.25" font-family="Helvetica,sans-Serif" font-size="10.00">dryRun()</text>
<text text-anchor="start" x="3.88" y="-315.25" font-family="Helvetica,sans-Serif" font-size="10.00">+</text>
<text text-anchor="start" x="16" y="-315.25" font-family="Helvetica,sans-Serif" font-size="10.00">isArgumentGiven()</text>
<text text-anchor="start" x="3.88" y="-299.25" font-family="Helvetica,sans-Serif" font-size="10.00">+</text>
<text text-anchor="start" x="16" y="-299.25" font-family="Helvetica,sans-Serif" font-size="10.00">getTextArgument()</text>
<text text-anchor="start" x="3.88" y="-283.25" font-family="Helvetica,sans-Serif" font-size="10.00">+</text>
<text text-anchor="start" x="16" y="-283.25" font-family="Helvetica,sans-Serif" font-size="10.00">getTextArgument()</text>
<text text-anchor="start" x="3.88" y="-267.25" font-family="Helvetica,sans-Serif" font-size="10.00">+</text>
<text text-anchor="start" x="16" y="-267.25" font-family="Helvetica,sans-Serif" font-size="10.00">getBooleanArgument()</text>
<text text-anchor="start" x="3.88" y="-251.25" font-family="Helvetica,sans-Serif" font-size="10.00">+</text>
<text text-anchor="start" x="16" y="-251.25" font-family="Helvetica,sans-Serif" font-size="10.00">getBooleanArgument()</text>
<text text-anchor="start" x="16" y="-235.25" font-family="Helvetica,sans-Serif" font-size="10.00">and 12 more...</text>
<text text-anchor="start" x="3.88" y="-219.25" font-family="Helvetica,sans-Serif" font-size="10.00">#</text>
<text text-anchor="start" x="16" y="-219.25" font-family="Helvetica,sans-Serif" font-size="10.00">getRealArgumentFromInteger()</text>
<text text-anchor="start" x="3.88" y="-203.25" font-family="Helvetica,sans-Serif" font-size="10.00">#</text>
<text text-anchor="start" x="16" y="-203.25" font-family="Helvetica,sans-Serif" font-size="10.00">getRealArgumentFromTensor()</text>
<text text-anchor="start" x="3.88" y="-187.25" font-family="Helvetica,sans-Serif" font-size="10.00">#</text>
<text text-anchor="start" x="16" y="-187.25" font-family="Helvetica,sans-Serif" font-size="10.00">getTensorArgumentFromReal()</text>
<text text-anchor="start" x="3.88" y="-171.25" font-family="Helvetica,sans-Serif" font-size="10.00">#</text>
<text text-anchor="start" x="16" y="-171.25" font-family="Helvetica,sans-Serif" font-size="10.00">getArgumentData()</text>
<polygon fill="#666666" stroke="#666666" points="0,-454.75 0,-454.75 172,-454.75 172,-454.75 0,-454.75"/>
<polygon fill="#666666" stroke="#666666" points="0,-406.75 0,-406.75 14,-406.75 14,-406.75 0,-406.75"/>
<polygon fill="#666666" stroke="#666666" points="14,-406.75 14,-406.75 172,-406.75 172,-406.75 14,-406.75"/>
<polygon fill="none" stroke="#666666" points="0,-164.75 0,-472.75 172,-472.75 172,-164.75 0,-164.75"/>
</a>
</g>
</g>
<!-- Node2&#45;&gt;Node1 -->
<g id="edge1_Node000001_Node000002" class="edge">
<title>Node2&#45;&gt;Node1</title>
<g id="a_edge1_Node000001_Node000002"><a xlink:title=" ">
<path fill="none" stroke="#63b8ff" d="M118.89,-154.07C121.6,-140.58 124.21,-127.63 126.57,-115.87"/>
<polygon fill="none" stroke="#63b8ff" points="115.54,-153.01 117,-163.51 122.4,-154.39 115.54,-153.01"/>
</a>
</g>
</g>
<!-- Node3 -->
<g id="Node000003" class="node">
<title>Node3</title>
<g id="a_Node000003"><a xlink:href="classsisi4s_1_1AlgorithmRegistrar.html" target="_top" xlink:title=" ">
<polygon fill="white" stroke="none" points="332,-351.25 190,-351.25 190,-286.25 332,-286.25 332,-351.25"/>
<text text-anchor="start" x="194.62" y="-337.75" font-family="Helvetica,sans-Serif" font-size="10.00">sisi4s::AlgorithmRegistrar</text>
<text text-anchor="start" x="194.62" y="-325" font-family="Helvetica,sans-Serif" font-size="10.00">&lt; sisi4s::FcidumpReader &gt;</text>
<text text-anchor="start" x="259.5" y="-308.75" font-family="Helvetica,sans-Serif" font-size="10.00"> </text>
<text text-anchor="start" x="199.38" y="-292.75" font-family="Helvetica,sans-Serif" font-size="10.00">+</text>
<text text-anchor="start" x="217" y="-292.75" font-family="Helvetica,sans-Serif" font-size="10.00">AlgorithmRegistrar()</text>
<polygon fill="#666666" stroke="#666666" points="190,-320.25 190,-320.25 332,-320.25 332,-320.25 190,-320.25"/>
<polygon fill="#666666" stroke="#666666" points="190,-304.25 190,-304.25 332,-304.25 332,-304.25 190,-304.25"/>
<polygon fill="none" stroke="#666666" points="190,-286.25 190,-351.25 332,-351.25 332,-286.25 190,-286.25"/>
</a>
</g>
</g>
<!-- Node3&#45;&gt;Node1 -->
<g id="edge2_Node000001_Node000003" class="edge">
<title>Node3&#45;&gt;Node1</title>
<g id="a_edge2_Node000001_Node000003"><a xlink:title=" ">
<path fill="none" stroke="#63b8ff" d="M246.04,-286.28C227.42,-247.11 195.09,-179.1 170.64,-127.66"/>
<polygon fill="none" stroke="#63b8ff" points="170.61,-127.61 164.43,-123.91 165.46,-116.77 171.65,-120.47 170.61,-127.61"/>
</a>
</g>
<text text-anchor="middle" x="205.88" y="-137.25" font-family="Helvetica,sans-Serif" font-size="10.00" fill="grey"> +registrar_</text>
</g>
<!-- Node4 -->
<g id="Node000004" class="node">
<title>Node4</title>
<g id="a_Node000004"><a xlink:href="classsisi4s_1_1AlgorithmFactory.html" target="_top" xlink:title=" ">
<polygon fill="white" stroke="none" points="288.5,-707.5 161.5,-707.5 161.5,-623.5 288.5,-623.5 288.5,-707.5"/>
<text text-anchor="start" x="166.5" y="-694" font-family="Helvetica,sans-Serif" font-size="10.00">sisi4s::AlgorithmFactory</text>
<text text-anchor="start" x="165.88" y="-678" font-family="Helvetica,sans-Serif" font-size="10.00">#</text>
<text text-anchor="start" x="178.5" y="-678" font-family="Helvetica,sans-Serif" font-size="10.00">algorithmMap</text>
<text text-anchor="start" x="165.88" y="-662" font-family="Helvetica,sans-Serif" font-size="10.00">+</text>
<text text-anchor="start" x="178.5" y="-662" font-family="Helvetica,sans-Serif" font-size="10.00">create()</text>
<text text-anchor="start" x="165.88" y="-646" font-family="Helvetica,sans-Serif" font-size="10.00">+</text>
<text text-anchor="start" x="178.5" y="-646" font-family="Helvetica,sans-Serif" font-size="10.00">getAlgorithmNames()</text>
<text text-anchor="start" x="165.88" y="-630" font-family="Helvetica,sans-Serif" font-size="10.00">#</text>
<text text-anchor="start" x="178.5" y="-630" font-family="Helvetica,sans-Serif" font-size="10.00">getAlgorithmMap()</text>
<polygon fill="#666666" stroke="#666666" points="161.5,-689.5 161.5,-689.5 288.5,-689.5 288.5,-689.5 161.5,-689.5"/>
<polygon fill="#666666" stroke="#666666" points="161.5,-673.5 161.5,-673.5 176.5,-673.5 176.5,-673.5 161.5,-673.5"/>
<polygon fill="#666666" stroke="#666666" points="176.5,-673.5 176.5,-673.5 288.5,-673.5 288.5,-673.5 176.5,-673.5"/>
<polygon fill="none" stroke="#666666" points="161.5,-623.5 161.5,-707.5 288.5,-707.5 288.5,-623.5 161.5,-623.5"/>
</a>
</g>
</g>
<!-- Node4&#45;&gt;Node3 -->
<g id="edge3_Node000003_Node000004" class="edge">
<title>Node4&#45;&gt;Node3</title>
<g id="a_edge3_Node000003_Node000004"><a xlink:title=" ">
<path fill="none" stroke="darkgreen" d="M226.37,-612.54C227.38,-585.37 229.11,-551.59 232,-521.5 237.82,-460.92 248.91,-390.67 255.56,-351.09"/>
<polygon fill="none" stroke="darkgreen" points="222.88,-612.12 226.03,-622.23 229.88,-612.36 222.88,-612.12"/>
</a>
</g>
</g>
<!-- Node5 -->
<g id="Node000005" class="node">
<title>Node5</title>
<g id="a_Node000005"><a xlink:href="classsisi4s_1_1AlgorithmRegistrar.html" target="_top" xlink:title="Class to be statically instantiated by an algorithm to register it in the AlgorithmFactory....">
<polygon fill="white" stroke="none" points="377,-586.5 241,-586.5 241,-521.5 377,-521.5 377,-586.5"/>
<text text-anchor="start" x="246" y="-573" font-family="Helvetica,sans-Serif" font-size="10.00">sisi4s::AlgorithmRegistrar</text>
<text text-anchor="start" x="262.5" y="-560.25" font-family="Helvetica,sans-Serif" font-size="10.00">&lt; AlgorithmType &gt;</text>
<text text-anchor="start" x="307.5" y="-544" font-family="Helvetica,sans-Serif" font-size="10.00"> </text>
<text text-anchor="start" x="248.88" y="-528" font-family="Helvetica,sans-Serif" font-size="10.00">+</text>
<text text-anchor="start" x="265" y="-528" font-family="Helvetica,sans-Serif" font-size="10.00">AlgorithmRegistrar()</text>
<polygon fill="#666666" stroke="#666666" points="241,-555.5 241,-555.5 377,-555.5 377,-555.5 241,-555.5"/>
<polygon fill="#666666" stroke="#666666" points="241,-539.5 241,-539.5 377,-539.5 377,-539.5 241,-539.5"/>
<polygon fill="none" stroke="#666666" points="241,-521.5 241,-586.5 377,-586.5 377,-521.5 241,-521.5"/>
</a>
</g>
</g>
<!-- Node4&#45;&gt;Node5 -->
<g id="edge5_Node000005_Node000004" class="edge">
<title>Node4&#45;&gt;Node5</title>
<g id="a_edge5_Node000005_Node000004"><a xlink:title=" ">
<path fill="none" stroke="darkgreen" d="M263.07,-614.87C270.55,-605.12 278.19,-595.16 285.05,-586.22"/>
<polygon fill="none" stroke="darkgreen" points="260.51,-612.46 257.2,-622.53 266.06,-616.72 260.51,-612.46"/>
</a>
</g>
</g>
<!-- Node5&#45;&gt;Node3 -->
<g id="edge4_Node000003_Node000005" class="edge">
<title>Node5&#45;&gt;Node3</title>
<g id="a_edge4_Node000003_Node000005"><a xlink:title=" ">
<path fill="none" stroke="orange" d="M300.24,-510.44C290.77,-464.43 275.9,-392.17 267.45,-351.08"/>
<polygon fill="orange" stroke="orange" points="296.78,-510.97 302.22,-520.06 303.63,-509.56 296.78,-510.97"/>
</a>
</g>
<text text-anchor="middle" x="365.88" y="-494" font-family="Helvetica,sans-Serif" font-size="10.00" fill="grey"> &lt; sisi4s::FcidumpReader &gt;</text>
</g>
</g>
</svg>
