<?xml version="1.0" encoding="UTF-8" standalone="no"?>
<!DOCTYPE svg PUBLIC "-//W3C//DTD SVG 1.1//EN"
 "http://www.w3.org/Graphics/SVG/1.1/DTD/svg11.dtd">
<!-- Generated by graphviz version 5.0.1 (0)
 -->
<!-- Title: sisi4s::Algorithm::getRealArgument Pages: 1 -->
<svg width="440pt" height="176pt"
 viewBox="0.00 0.00 440.00 175.50" xmlns="http://www.w3.org/2000/svg" xmlns:xlink="http://www.w3.org/1999/xlink">
<g id="graph0" class="graph" transform="scale(1 1) rotate(0) translate(4 171.5)">
<title>sisi4s::Algorithm::getRealArgument</title>
<!-- Node1 -->
<g id="node1" class="node">
<title>Node1</title>
<g id="a_node1"><a xlink:title=" ">
<polygon fill="#bfbfbf" stroke="black" points="0,-63 0,-93 104,-93 104,-63 0,-63"/>
<text text-anchor="start" x="8" y="-81" font-family="Helvetica,sans-Serif" font-size="10.00">sisi4s::Algorithm::</text>
<text text-anchor="middle" x="52" y="-70" font-family="Helvetica,sans-Serif" font-size="10.00">getRealArgument</text>
</a>
</g>
</g>
<!-- Node2 -->
<g id="node2" class="node">
<title>Node2</title>
<g id="a_node2"><a xlink:href="classsisi4s_1_1Algorithm.html#a1e53277220d32a33e20846267c253652" target="_top" xlink:title=" ">
<polygon fill="none" stroke="black" points="168.5,-137 168.5,-167 272.5,-167 272.5,-137 168.5,-137"/>
<text text-anchor="start" x="176.5" y="-155" font-family="Helvetica,sans-Serif" font-size="10.00">sisi4s::Algorithm::</text>
<text text-anchor="middle" x="220.5" y="-144" font-family="Helvetica,sans-Serif" font-size="10.00">getArgumentData</text>
</a>
</g>
</g>
<!-- Node1&#45;&gt;Node2 -->
<g id="edge1" class="edge">
<title>Node1&#45;&gt;Node2</title>
<path fill="none" stroke="midnightblue" d="M75.88,-93.08C93,-103.89 117.29,-118.2 140,-128 145.91,-130.55 152.17,-132.94 158.49,-135.15"/>
<polygon fill="midnightblue" stroke="midnightblue" points="157.82,-138.61 168.41,-138.47 160.04,-131.98 157.82,-138.61"/>
</g>
<!-- Node4 -->
<g id="node4" class="node">
<title>Node4</title>
<g id="a_node4"><a xlink:href="classsisi4s_1_1Algorithm.html#a1cb9a5e8f19cd8e6b70bb06738ca9413" target="_top" xlink:title=" ">
<polygon fill="none" stroke="black" points="140,-88 140,-118 301,-118 301,-88 140,-88"/>
<text text-anchor="start" x="148" y="-106" font-family="Helvetica,sans-Serif" font-size="10.00">sisi4s::Algorithm::</text>
<text text-anchor="middle" x="220.5" y="-95" font-family="Helvetica,sans-Serif" font-size="10.00">getRealArgumentFromInteger</text>
</a>
</g>
</g>
<!-- Node1&#45;&gt;Node4 -->
<g id="edge3" class="edge">
<title>Node1&#45;&gt;Node4</title>
<path fill="none" stroke="midnightblue" d="M104.31,-85.7C112.51,-86.93 121.18,-88.24 129.96,-89.55"/>
<polygon fill="midnightblue" stroke="midnightblue" points="129.47,-93.02 139.88,-91.04 130.51,-86.1 129.47,-93.02"/>
</g>
<!-- Node5 -->
<g id="node5" class="node">
<title>Node5</title>
<g id="a_node5"><a xlink:href="classsisi4s_1_1Algorithm.html#a89e59623f1c238a871a4fba19371be7d" target="_top" xlink:title=" ">
<polygon fill="none" stroke="black" points="141.5,-39 141.5,-69 299.5,-69 299.5,-39 141.5,-39"/>
<text text-anchor="start" x="149.5" y="-57" font-family="Helvetica,sans-Serif" font-size="10.00">sisi4s::Algorithm::</text>
<text text-anchor="middle" x="220.5" y="-46" font-family="Helvetica,sans-Serif" font-size="10.00">getRealArgumentFromTensor</text>
</a>
</g>
</g>
<!-- Node1&#45;&gt;Node5 -->
<g id="edge4" class="edge">
<title>Node1&#45;&gt;Node5</title>
<path fill="none" stroke="midnightblue" d="M104.31,-70.6C112.94,-69.36 122.12,-68.04 131.37,-66.7"/>
<polygon fill="midnightblue" stroke="midnightblue" points="132.02,-70.15 141.42,-65.26 131.02,-63.22 132.02,-70.15"/>
</g>
<!-- Node6 -->
<g id="node6" class="node">
<title>Node6</title>
<g id="a_node6"><a xlink:href="classsisi4s_1_1Data.html#a0ec0b1c7f2356fd43d82ee1dd0246789" target="_top" xlink:title=" ">
<polygon fill="none" stroke="black" points="147,-0.5 147,-19.5 294,-19.5 294,-0.5 147,-0.5"/>
<text text-anchor="middle" x="220.5" y="-7.5" font-family="Helvetica,sans-Serif" font-size="10.00">sisi4s::Data::getTypeName</text>
</a>
</g>
</g>
<!-- Node1&#45;&gt;Node6 -->
<g id="edge5" class="edge">
<title>Node1&#45;&gt;Node6</title>
<path fill="none" stroke="midnightblue" d="M76.56,-62.82C93.62,-52.38 117.53,-38.85 140,-30 147.36,-27.1 155.26,-24.52 163.13,-22.25"/>
<polygon fill="midnightblue" stroke="midnightblue" points="164.32,-25.56 173.04,-19.55 162.47,-18.81 164.32,-25.56"/>
</g>
<!-- Node3 -->
<g id="node3" class="node">
<title>Node3</title>
<g id="a_node3"><a xlink:href="classsisi4s_1_1Data.html#a5b4676e48b4f437d399587e6903f896a" target="_top" xlink:title=" ">
<polygon fill="none" stroke="black" points="337,-142.5 337,-161.5 432,-161.5 432,-142.5 337,-142.5"/>
<text text-anchor="middle" x="384.5" y="-149.5" font-family="Helvetica,sans-Serif" font-size="10.00">sisi4s::Data::get</text>
</a>
</g>
</g>
<!-- Node2&#45;&gt;Node3 -->
<g id="edge2" class="edge">
<title>Node2&#45;&gt;Node3</title>
<path fill="none" stroke="midnightblue" d="M272.76,-152C289.96,-152 309.24,-152 326.83,-152"/>
<polygon fill="midnightblue" stroke="midnightblue" points="326.97,-155.5 336.97,-152 326.97,-148.5 326.97,-155.5"/>
</g>
</g>
</svg>
