<?xml version="1.0" encoding="UTF-8" standalone="no"?>
<!DOCTYPE svg PUBLIC "-//W3C//DTD SVG 1.1//EN"
 "http://www.w3.org/Graphics/SVG/1.1/DTD/svg11.dtd">
<!-- Generated by graphviz version 5.0.1 (0)
 -->
<!-- Title: sisi4s::DoublesAmplitudesDecomposition::run Pages: 1 -->
<svg width="891pt" height="277pt"
 viewBox="0.00 0.00 891.00 277.00" xmlns="http://www.w3.org/2000/svg" xmlns:xlink="http://www.w3.org/1999/xlink">
<g id="graph0" class="graph" transform="scale(1 1) rotate(0) translate(4 273)">
<title>sisi4s::DoublesAmplitudesDecomposition::run</title>
<!-- Node1 -->
<g id="node1" class="node">
<title>Node1</title>
<g id="a_node1"><a xlink:title="Calculates left singular vectors of the particle&#45;hole Coulomb vertex .">
<polygon fill="#bfbfbf" stroke="black" points="0,-159 0,-189 146,-189 146,-159 0,-159"/>
<text text-anchor="start" x="8" y="-177" font-family="Helvetica,sans-Serif" font-size="10.00">sisi4s::DoublesAmplitudes</text>
<text text-anchor="middle" x="73" y="-166" font-family="Helvetica,sans-Serif" font-size="10.00">Decomposition::run</text>
</a>
</g>
</g>
<!-- Node2 -->
<g id="node2" class="node">
<title>Node2</title>
<g id="a_node2"><a xlink:href="classsisi4s_1_1DoublesAmplitudesDecomposition.html#a95e0f3d1c64b08842dc5c212f054b6c7" target="_top" xlink:title=" ">
<polygon fill="none" stroke="black" points="182,-216 182,-246 384,-246 384,-216 182,-216"/>
<text text-anchor="start" x="190" y="-234" font-family="Helvetica,sans-Serif" font-size="10.00">sisi4s::DoublesAmplitudes</text>
<text text-anchor="middle" x="283" y="-223" font-family="Helvetica,sans-Serif" font-size="10.00">Decomposition::diagonlizeAmplitudes</text>
</a>
</g>
</g>
<!-- Node1&#45;&gt;Node2 -->
<g id="edge1" class="edge">
<title>Node1&#45;&gt;Node2</title>
<path fill="none" stroke="midnightblue" d="M128.92,-189.05C156.05,-196.49 188.97,-205.51 217.31,-213.27"/>
<polygon fill="midnightblue" stroke="midnightblue" points="216.56,-216.7 227.13,-215.96 218.41,-209.95 216.56,-216.7"/>
</g>
<!-- Node4 -->
<g id="node4" class="node">
<title>Node4</title>
<g id="a_node4"><a xlink:href="classsisi4s_1_1DoublesAmplitudesDecomposition.html#aaffeb4b10fc0077f103ac5861dd495e2" target="_top" xlink:title=" ">
<polygon fill="none" stroke="black" points="192,-126.5 192,-167.5 374,-167.5 374,-126.5 192,-126.5"/>
<text text-anchor="start" x="200" y="-155.5" font-family="Helvetica,sans-Serif" font-size="10.00">sisi4s::DoublesAmplitudes</text>
<text text-anchor="start" x="200" y="-144.5" font-family="Helvetica,sans-Serif" font-size="10.00">Decomposition::sliceLargestEigen</text>
<text text-anchor="middle" x="283" y="-133.5" font-family="Helvetica,sans-Serif" font-size="10.00">Values</text>
</a>
</g>
</g>
<!-- Node1&#45;&gt;Node4 -->
<g id="edge4" class="edge">
<title>Node1&#45;&gt;Node4</title>
<path fill="none" stroke="midnightblue" d="M146.16,-164.63C157.62,-163.15 169.65,-161.58 181.62,-160.03"/>
<polygon fill="midnightblue" stroke="midnightblue" points="182.17,-163.49 191.64,-158.73 181.27,-156.55 182.17,-163.49"/>
</g>
<!-- Node3 -->
<g id="node3" class="node">
<title>Node3</title>
<g id="a_node3"><a xlink:href="namespacesisi4s.html#a40947d88c4989cacff153a78af67f686" target="_top" xlink:title=" ">
<polygon fill="none" stroke="black" points="637,-231.5 637,-250.5 706,-250.5 706,-231.5 637,-231.5"/>
<text text-anchor="middle" x="671.5" y="-238.5" font-family="Helvetica,sans-Serif" font-size="10.00">sisi4s::sqrt</text>
</a>
</g>
</g>
<!-- Node2&#45;&gt;Node3 -->
<g id="edge2" class="edge">
<title>Node2&#45;&gt;Node3</title>
<path fill="none" stroke="midnightblue" d="M384.22,-239.21C396.27,-239.95 408.41,-240.57 420,-241 492.43,-243.66 576.71,-242.86 626.72,-241.97"/>
<polygon fill="midnightblue" stroke="midnightblue" points="626.92,-245.47 636.86,-241.78 626.79,-238.47 626.92,-245.47"/>
</g>
<!-- Node3&#45;&gt;Node3 -->
<g id="edge3" class="edge">
<title>Node3&#45;&gt;Node3</title>
<path fill="none" stroke="midnightblue" d="M646.22,-250.76C633.93,-259.57 642.35,-269 671.5,-269 691.08,-269 701.31,-264.74 702.19,-259.27"/>
<polygon fill="midnightblue" stroke="midnightblue" points="705.09,-257.32 696.78,-250.76 699.19,-261.07 705.09,-257.32"/>
</g>
<!-- Node5 -->
<g id="node5" class="node">
<title>Node5</title>
<g id="a_node5"><a xlink:href="namespacesisi4s.html#ab4577a58307bc686ea6f58bc3d0249d3" target="_top" xlink:title=" ">
<polygon fill="none" stroke="black" points="453.5,-0.5 453.5,-19.5 521.5,-19.5 521.5,-0.5 453.5,-0.5"/>
<text text-anchor="middle" x="487.5" y="-7.5" font-family="Helvetica,sans-Serif" font-size="10.00">sisi4s::abs</text>
</a>
</g>
</g>
<!-- Node4&#45;&gt;Node5 -->
<g id="edge5" class="edge">
<title>Node4&#45;&gt;Node5</title>
<path fill="none" stroke="midnightblue" d="M310.48,-126.38C337.45,-105.71 380.77,-73.38 420,-48 432.72,-39.77 447.3,-31.34 459.55,-24.51"/>
<polygon fill="midnightblue" stroke="midnightblue" points="461.33,-27.53 468.4,-19.64 457.95,-21.4 461.33,-27.53"/>
</g>
<!-- Node6 -->
<g id="node6" class="node">
<title>Node6</title>
<g id="a_node6"><a xlink:href="namespacesisi4s.html#a072b9097a4466552d4ee05cea48af554" target="_top" xlink:title=" ">
<polygon fill="none" stroke="black" points="426,-212.5 426,-231.5 549,-231.5 549,-212.5 426,-212.5"/>
<text text-anchor="middle" x="487.5" y="-219.5" font-family="Helvetica,sans-Serif" font-size="10.00">sisi4s::frobeniusNorm</text>
</a>
</g>
</g>
<!-- Node4&#45;&gt;Node6 -->
<g id="edge7" class="edge">
<title>Node4&#45;&gt;Node6</title>
<path fill="none" stroke="midnightblue" d="M330.39,-167.62C356.45,-178.82 389.73,-192.48 420,-203 426.55,-205.28 433.54,-207.49 440.42,-209.56"/>
<polygon fill="midnightblue" stroke="midnightblue" points="439.8,-213.03 450.38,-212.48 441.76,-206.31 439.8,-213.03"/>
</g>
<!-- Node7 -->
<g id="node7" class="node">
<title>Node7</title>
<g id="a_node7"><a xlink:href="classsisi4s_1_1Algorithm.html#a5db14be3b0d33bf80218a37223e27667" target="_top" xlink:title=" ">
<polygon fill="none" stroke="black" points="430,-163 430,-193 545,-193 545,-163 430,-163"/>
<text text-anchor="start" x="438" y="-181" font-family="Helvetica,sans-Serif" font-size="10.00">sisi4s::Algorithm::</text>
<text text-anchor="middle" x="487.5" y="-170" font-family="Helvetica,sans-Serif" font-size="10.00">getIntegerArgument</text>
</a>
</g>
</g>
<!-- Node4&#45;&gt;Node7 -->
<g id="edge9" class="edge">
<title>Node4&#45;&gt;Node7</title>
<path fill="none" stroke="midnightblue" d="M374.29,-160.82C389.63,-163.17 405.31,-165.57 419.9,-167.8"/>
<polygon fill="midnightblue" stroke="midnightblue" points="419.39,-171.27 429.81,-169.32 420.45,-164.35 419.39,-171.27"/>
</g>
<!-- Node11 -->
<g id="node11" class="node">
<title>Node11</title>
<g id="a_node11"><a xlink:href="classsisi4s_1_1Algorithm.html#a36c632fbb19dae4ce2f415705fa5cbcb" target="_top" xlink:title=" ">
<polygon fill="none" stroke="black" points="435.5,-57 435.5,-87 539.5,-87 539.5,-57 435.5,-57"/>
<text text-anchor="start" x="443.5" y="-75" font-family="Helvetica,sans-Serif" font-size="10.00">sisi4s::Algorithm::</text>
<text text-anchor="middle" x="487.5" y="-64" font-family="Helvetica,sans-Serif" font-size="10.00">getRealArgument</text>
</a>
</g>
</g>
<!-- Node4&#45;&gt;Node11 -->
<g id="edge13" class="edge">
<title>Node4&#45;&gt;Node11</title>
<path fill="none" stroke="midnightblue" d="M339.6,-126.41C369.79,-115.22 406.83,-101.51 436.16,-90.64"/>
<polygon fill="midnightblue" stroke="midnightblue" points="437.63,-93.83 445.8,-87.08 435.2,-87.27 437.63,-93.83"/>
</g>
<!-- Node14 -->
<g id="node14" class="node">
<title>Node14</title>
<g id="a_node14"><a xlink:href="namespacesisi4s.html#a20c6b0ad3767206173edfb7bf525e5a7" target="_top" xlink:title="Composes a tensor of complex elements containing of the given tensors of real and imaginary parts....">
<polygon fill="none" stroke="black" points="420,-106.5 420,-125.5 555,-125.5 555,-106.5 420,-106.5"/>
<text text-anchor="middle" x="487.5" y="-113.5" font-family="Helvetica,sans-Serif" font-size="10.00">sisi4s::toComplexTensor</text>
</a>
</g>
</g>
<!-- Node4&#45;&gt;Node14 -->
<g id="edge18" class="edge">
<title>Node4&#45;&gt;Node14</title>
<path fill="none" stroke="midnightblue" d="M374.29,-133.18C387.61,-131.14 401.18,-129.06 414.07,-127.09"/>
<polygon fill="midnightblue" stroke="midnightblue" points="414.89,-130.5 424.25,-125.53 413.83,-123.58 414.89,-130.5"/>
</g>
<!-- Node5&#45;&gt;Node5 -->
<g id="edge6" class="edge">
<title>Node5&#45;&gt;Node5</title>
<path fill="none" stroke="midnightblue" d="M459.14,-19.76C445.34,-28.57 454.8,-38 487.5,-38 509.98,-38 521.48,-33.54 521.98,-27.89"/>
<polygon fill="midnightblue" stroke="midnightblue" points="524.67,-25.64 515.86,-19.76 519.08,-29.85 524.67,-25.64"/>
</g>
<!-- Node6&#45;&gt;Node3 -->
<g id="edge8" class="edge">
<title>Node6&#45;&gt;Node3</title>
<path fill="none" stroke="midnightblue" d="M549.1,-228.33C574.48,-230.98 603.42,-234 626.68,-236.43"/>
<polygon fill="midnightblue" stroke="midnightblue" points="626.62,-239.94 636.93,-237.5 627.35,-232.98 626.62,-239.94"/>
</g>
<!-- Node8 -->
<g id="node8" class="node">
<title>Node8</title>
<g id="a_node8"><a xlink:href="classsisi4s_1_1Algorithm.html#a1e53277220d32a33e20846267c253652" target="_top" xlink:title=" ">
<polygon fill="none" stroke="black" points="619.5,-110 619.5,-140 723.5,-140 723.5,-110 619.5,-110"/>
<text text-anchor="start" x="627.5" y="-128" font-family="Helvetica,sans-Serif" font-size="10.00">sisi4s::Algorithm::</text>
<text text-anchor="middle" x="671.5" y="-117" font-family="Helvetica,sans-Serif" font-size="10.00">getArgumentData</text>
</a>
</g>
</g>
<!-- Node7&#45;&gt;Node8 -->
<g id="edge10" class="edge">
<title>Node7&#45;&gt;Node8</title>
<path fill="none" stroke="midnightblue" d="M540.17,-162.95C561.77,-156.66 587.04,-149.3 609.54,-142.75"/>
<polygon fill="midnightblue" stroke="midnightblue" points="610.71,-146.06 619.33,-139.9 608.75,-139.34 610.71,-146.06"/>
</g>
<!-- Node10 -->
<g id="node10" class="node">
<title>Node10</title>
<g id="a_node10"><a xlink:href="classsisi4s_1_1Data.html#a0ec0b1c7f2356fd43d82ee1dd0246789" target="_top" xlink:title=" ">
<polygon fill="none" stroke="black" points="598,-162.5 598,-181.5 745,-181.5 745,-162.5 598,-162.5"/>
<text text-anchor="middle" x="671.5" y="-169.5" font-family="Helvetica,sans-Serif" font-size="10.00">sisi4s::Data::getTypeName</text>
</a>
</g>
</g>
<!-- Node7&#45;&gt;Node10 -->
<g id="edge12" class="edge">
<title>Node7&#45;&gt;Node10</title>
<path fill="none" stroke="midnightblue" d="M545.09,-176.13C558.52,-175.69 573.13,-175.21 587.47,-174.74"/>
<polygon fill="midnightblue" stroke="midnightblue" points="587.97,-178.22 597.85,-174.4 587.74,-171.23 587.97,-178.22"/>
</g>
<!-- Node9 -->
<g id="node9" class="node">
<title>Node9</title>
<g id="a_node9"><a xlink:href="classsisi4s_1_1Data.html#a5b4676e48b4f437d399587e6903f896a" target="_top" xlink:title=" ">
<polygon fill="none" stroke="black" points="788,-115.5 788,-134.5 883,-134.5 883,-115.5 788,-115.5"/>
<text text-anchor="middle" x="835.5" y="-122.5" font-family="Helvetica,sans-Serif" font-size="10.00">sisi4s::Data::get</text>
</a>
</g>
</g>
<!-- Node8&#45;&gt;Node9 -->
<g id="edge11" class="edge">
<title>Node8&#45;&gt;Node9</title>
<path fill="none" stroke="midnightblue" d="M723.76,-125C740.96,-125 760.24,-125 777.83,-125"/>
<polygon fill="midnightblue" stroke="midnightblue" points="777.97,-128.5 787.97,-125 777.97,-121.5 777.97,-128.5"/>
</g>
<!-- Node11&#45;&gt;Node8 -->
<g id="edge14" class="edge">
<title>Node11&#45;&gt;Node8</title>
<path fill="none" stroke="midnightblue" d="M539.68,-86.9C561.39,-93.23 586.86,-100.64 609.53,-107.24"/>
<polygon fill="midnightblue" stroke="midnightblue" points="608.81,-110.68 619.39,-110.12 610.77,-103.96 608.81,-110.68"/>
</g>
<!-- Node11&#45;&gt;Node10 -->
<g id="edge17" class="edge">
<title>Node11&#45;&gt;Node10</title>
<path fill="none" stroke="midnightblue" d="M538.97,-87.1C544.66,-89.91 550.15,-93.19 555,-97 577.38,-114.61 567.86,-133.41 591,-150 595.77,-153.42 601.05,-156.31 606.56,-158.75"/>
<polygon fill="midnightblue" stroke="midnightblue" points="605.4,-162.06 615.99,-162.45 607.96,-155.54 605.4,-162.06"/>
</g>
<!-- Node12 -->
<g id="node12" class="node">
<title>Node12</title>
<g id="a_node12"><a xlink:href="classsisi4s_1_1Algorithm.html#a1cb9a5e8f19cd8e6b70bb06738ca9413" target="_top" xlink:title=" ">
<polygon fill="none" stroke="black" points="591,-10 591,-40 752,-40 752,-10 591,-10"/>
<text text-anchor="start" x="599" y="-28" font-family="Helvetica,sans-Serif" font-size="10.00">sisi4s::Algorithm::</text>
<text text-anchor="middle" x="671.5" y="-17" font-family="Helvetica,sans-Serif" font-size="10.00">getRealArgumentFromInteger</text>
</a>
</g>
</g>
<!-- Node11&#45;&gt;Node12 -->
<g id="edge15" class="edge">
<title>Node11&#45;&gt;Node12</title>
<path fill="none" stroke="midnightblue" d="M539.68,-58.78C559.2,-53.74 581.75,-47.92 602.58,-42.54"/>
<polygon fill="midnightblue" stroke="midnightblue" points="603.52,-45.91 612.33,-40.02 601.77,-39.13 603.52,-45.91"/>
</g>
<!-- Node13 -->
<g id="node13" class="node">
<title>Node13</title>
<g id="a_node13"><a xlink:href="classsisi4s_1_1Algorithm.html#a89e59623f1c238a871a4fba19371be7d" target="_top" xlink:title=" ">
<polygon fill="none" stroke="black" points="592.5,-59 592.5,-89 750.5,-89 750.5,-59 592.5,-59"/>
<text text-anchor="start" x="600.5" y="-77" font-family="Helvetica,sans-Serif" font-size="10.00">sisi4s::Algorithm::</text>
<text text-anchor="middle" x="671.5" y="-66" font-family="Helvetica,sans-Serif" font-size="10.00">getRealArgumentFromTensor</text>
</a>
</g>
</g>
<!-- Node11&#45;&gt;Node13 -->
<g id="edge16" class="edge">
<title>Node11&#45;&gt;Node13</title>
<path fill="none" stroke="midnightblue" d="M539.68,-72.56C552.92,-72.71 567.56,-72.87 582.12,-73.03"/>
<polygon fill="midnightblue" stroke="midnightblue" points="582.12,-76.53 592.16,-73.14 582.2,-69.53 582.12,-76.53"/>
</g>
<!-- Node14&#45;&gt;Node14 -->
<g id="edge19" class="edge">
<title>Node14&#45;&gt;Node14</title>
<path fill="none" stroke="midnightblue" d="M459.14,-125.76C445.34,-134.57 454.8,-144 487.5,-144 509.98,-144 521.48,-139.54 521.98,-133.89"/>
<polygon fill="midnightblue" stroke="midnightblue" points="524.67,-131.64 515.86,-125.76 519.08,-135.85 524.67,-131.64"/>
</g>
</g>
</svg>
