<?xml version="1.0" encoding="UTF-8" standalone="no"?>
<!DOCTYPE svg PUBLIC "-//W3C//DTD SVG 1.1//EN"
 "http://www.w3.org/Graphics/SVG/1.1/DTD/svg11.dtd">
<!-- Generated by graphviz version 9.0.0 (0)
 -->
<!-- Title: CLI::OptionBase::get_group Pages: 1 -->
<svg width="431pt" height="177pt"
 viewBox="0.00 0.00 431.00 176.50" xmlns="http://www.w3.org/2000/svg" xmlns:xlink="http://www.w3.org/1999/xlink">
<g id="graph0" class="graph" transform="scale(1 1) rotate(0) translate(4 172.5)">
<title>CLI::OptionBase::get_group</title>
<!-- Node1 -->
<g id="Node000001" class="node">
<title>Node1</title>
<g id="a_Node000001"><a xlink:title="Get the group of this option.">
<polygon fill="#999999" stroke="#666666" points="423,-97.5 308,-97.5 308,-64 423,-64 423,-97.5"/>
<text text-anchor="start" x="316" y="-84" font-family="Helvetica,sans-Serif" font-size="10.00">CLI::OptionBase::get</text>
<text text-anchor="middle" x="365.5" y="-71.25" font-family="Helvetica,sans-Serif" font-size="10.00">_group</text>
</a>
</g>
</g>
<!-- Node2 -->
<g id="Node000002" class="node">
<title>Node2</title>
<g id="a_Node000002"><a xlink:href="classCLI_1_1App.html#af0d7e22ac4f12250818bce3e22e8d569" target="_top" xlink:title="Get the groups available directly from this option (in order)">
<polygon fill="white" stroke="#666666" points="270.88,-110.12 155.12,-110.12 155.12,-89.38 270.88,-89.38 270.88,-110.12"/>
<text text-anchor="middle" x="213" y="-96.62" font-family="Helvetica,sans-Serif" font-size="10.00">CLI::App::get_groups</text>
</a>
</g>
</g>
<!-- Node1&#45;&gt;Node2 -->
<g id="edge1_Node000001_Node000002" class="edge">
<title>Node1&#45;&gt;Node2</title>
<g id="a_edge1_Node000001_Node000002"><a xlink:title=" ">
<path fill="none" stroke="#63b8ff" d="M296.29,-89.36C287.91,-90.42 279.42,-91.49 271.23,-92.53"/>
<polygon fill="#63b8ff" stroke="#63b8ff" points="296.62,-92.85 306.1,-88.12 295.74,-85.9 296.62,-92.85"/>
</a>
</g>
</g>
<!-- Node3 -->
<g id="Node000003" class="node">
<title>Node3</title>
<g id="a_Node000003"><a xlink:href="classCLI_1_1Formatter.html#ad48dd6b9432babc0037d6726230221f0" target="_top" xlink:title="This prints out all the groups of options.">
<polygon fill="white" stroke="#666666" points="118,-168.5 0,-168.5 0,-135 118,-135 118,-168.5"/>
<text text-anchor="start" x="8" y="-155" font-family="Helvetica,sans-Serif" font-size="10.00">CLI::Formatter::make</text>
<text text-anchor="middle" x="59" y="-142.25" font-family="Helvetica,sans-Serif" font-size="10.00">_groups</text>
</a>
</g>
</g>
<!-- Node1&#45;&gt;Node3 -->
<g id="edge5_Node000001_Node000003" class="edge">
<title>Node1&#45;&gt;Node3</title>
<g id="a_edge5_Node000001_Node000003"><a xlink:title=" ">
<path fill="none" stroke="#63b8ff" d="M318.07,-102.32C303.56,-108.38 287.34,-114.47 272,-118.75 221.05,-132.97 161.4,-141.56 118.37,-146.4"/>
<polygon fill="#63b8ff" stroke="#63b8ff" points="319.08,-105.69 326.9,-98.54 316.33,-99.26 319.08,-105.69"/>
</a>
</g>
</g>
<!-- Node5 -->
<g id="Node000005" class="node">
<title>Node5</title>
<g id="a_Node000005"><a xlink:href="classCLI_1_1ConfigBase.html#a5832f6f03212648fa08a8ff83bc9bc08" target="_top" xlink:title="Convert an app into a configuration.">
<polygon fill="white" stroke="#666666" points="112.75,-64.5 5.25,-64.5 5.25,-31 112.75,-31 112.75,-64.5"/>
<text text-anchor="start" x="13.25" y="-51" font-family="Helvetica,sans-Serif" font-size="10.00">CLI::ConfigBase::to</text>
<text text-anchor="middle" x="59" y="-38.25" font-family="Helvetica,sans-Serif" font-size="10.00">_config</text>
</a>
</g>
</g>
<!-- Node1&#45;&gt;Node5 -->
<g id="edge7_Node000001_Node000005" class="edge">
<title>Node1&#45;&gt;Node5</title>
<g id="a_edge7_Node000001_Node000005"><a xlink:title=" ">
<path fill="none" stroke="#63b8ff" d="M296.46,-73.38C241.06,-67.37 163.97,-59.02 113.07,-53.5"/>
<polygon fill="#63b8ff" stroke="#63b8ff" points="295.76,-76.82 306.08,-74.42 296.51,-69.86 295.76,-76.82"/>
</a>
</g>
</g>
<!-- Node6 -->
<g id="Node000006" class="node">
<title>Node6</title>
<g id="a_Node000006"><a xlink:href="classCLI_1_1Formatter.html#aab5f07a6d3154ace0be4d9dbf85f795b" target="_top" xlink:title="This prints out just the positionals &quot;group&quot;.">
<polygon fill="white" stroke="#666666" points="272,-33.5 154,-33.5 154,0 272,0 272,-33.5"/>
<text text-anchor="start" x="162" y="-20" font-family="Helvetica,sans-Serif" font-size="10.00">CLI::Formatter::make</text>
<text text-anchor="middle" x="213" y="-7.25" font-family="Helvetica,sans-Serif" font-size="10.00">_positionals</text>
</a>
</g>
</g>
<!-- Node1&#45;&gt;Node6 -->
<g id="edge6_Node000001_Node000006" class="edge">
<title>Node1&#45;&gt;Node6</title>
<g id="a_edge6_Node000001_Node000006"><a xlink:title=" ">
<path fill="none" stroke="#63b8ff" d="M313.72,-59.16C294.41,-50.94 272.68,-41.7 254.44,-33.95"/>
<polygon fill="#63b8ff" stroke="#63b8ff" points="312.2,-62.31 322.78,-63.01 314.94,-55.87 312.2,-62.31"/>
</a>
</g>
</g>
<!-- Node2&#45;&gt;Node3 -->
<g id="edge2_Node000002_Node000003" class="edge">
<title>Node2&#45;&gt;Node3</title>
<g id="a_edge2_Node000002_Node000003"><a xlink:title=" ">
<path fill="none" stroke="#63b8ff" d="M169.79,-114.19C151.35,-120.5 129.58,-127.95 110.3,-134.54"/>
<polygon fill="#63b8ff" stroke="#63b8ff" points="170.74,-117.56 179.07,-111.01 168.48,-110.94 170.74,-117.56"/>
</a>
</g>
</g>
<!-- Node4 -->
<g id="Node000004" class="node">
<title>Node4</title>
<g id="a_Node000004"><a xlink:href="classCLI_1_1Formatter.html#a3aac4a7ce4ca139704e632915892024c" target="_top" xlink:title="This displays the usage line.">
<polygon fill="white" stroke="#666666" points="118,-116.5 0,-116.5 0,-83 118,-83 118,-116.5"/>
<text text-anchor="start" x="8" y="-103" font-family="Helvetica,sans-Serif" font-size="10.00">CLI::Formatter::make</text>
<text text-anchor="middle" x="59" y="-90.25" font-family="Helvetica,sans-Serif" font-size="10.00">_usage</text>
</a>
</g>
</g>
<!-- Node2&#45;&gt;Node4 -->
<g id="edge3_Node000002_Node000004" class="edge">
<title>Node2&#45;&gt;Node4</title>
<g id="a_edge3_Node000002_Node000004"><a xlink:title=" ">
<path fill="none" stroke="#63b8ff" d="M143.6,-99.75C135.17,-99.75 126.62,-99.75 118.36,-99.75"/>
<polygon fill="#63b8ff" stroke="#63b8ff" points="143.45,-103.25 153.45,-99.75 143.45,-96.25 143.45,-103.25"/>
</a>
</g>
</g>
<!-- Node2&#45;&gt;Node5 -->
<g id="edge4_Node000002_Node000005" class="edge">
<title>Node2&#45;&gt;Node5</title>
<g id="a_edge4_Node000002_Node000005"><a xlink:title=" ">
<path fill="none" stroke="#63b8ff" d="M169.79,-85.31C151.35,-79 129.58,-71.55 110.3,-64.96"/>
<polygon fill="#63b8ff" stroke="#63b8ff" points="168.48,-88.56 179.07,-88.49 170.74,-81.94 168.48,-88.56"/>
</a>
</g>
</g>
</g>
</svg>
