<?xml version="1.0" encoding="UTF-8" standalone="no"?>
<!DOCTYPE svg PUBLIC "-//W3C//DTD SVG 1.1//EN"
 "http://www.w3.org/Graphics/SVG/1.1/DTD/svg11.dtd">
<!-- Generated by graphviz version 5.0.1 (0)
 -->
<!-- Title: CLI::Option::run_callback Pages: 1 -->
<svg width="310pt" height="88pt"
 viewBox="0.00 0.00 310.00 88.00" xmlns="http://www.w3.org/2000/svg" xmlns:xlink="http://www.w3.org/1999/xlink">
<g id="graph0" class="graph" transform="scale(1 1) rotate(0) translate(4 84)">
<title>CLI::Option::run_callback</title>
<!-- Node1 -->
<g id="node1" class="node">
<title>Node1</title>
<g id="a_node1"><a xlink:title="Process the callback.">
<polygon fill="#bfbfbf" stroke="black" points="165,-30 165,-49 302,-49 302,-30 165,-30"/>
<text text-anchor="middle" x="233.5" y="-37" font-family="Helvetica,sans-Serif" font-size="10.00">CLI::Option::run_callback</text>
</a>
</g>
</g>
<!-- Node2 -->
<g id="node2" class="node">
<title>Node2</title>
<g id="a_node2"><a xlink:href="classCLI_1_1App.html#a1f7a70f4bc4c375a7de10073a5de709d" target="_top" xlink:title="Fill in a single config option.">
<polygon fill="none" stroke="black" points="0,-49.5 0,-79.5 129,-79.5 129,-49.5 0,-49.5"/>
<text text-anchor="start" x="8" y="-67.5" font-family="Helvetica,sans-Serif" font-size="10.00">CLI::App::_parse_single</text>
<text text-anchor="middle" x="64.5" y="-56.5" font-family="Helvetica,sans-Serif" font-size="10.00">_config</text>
</a>
</g>
</g>
<!-- Node1&#45;&gt;Node2 -->
<g id="edge1" class="edge">
<title>Node1&#45;&gt;Node2</title>
<path fill="none" stroke="midnightblue" d="M158.72,-50.54C148.88,-52.02 138.86,-53.52 129.21,-54.96"/>
<polygon fill="midnightblue" stroke="midnightblue" points="159.52,-53.96 168.89,-49.02 158.48,-47.04 159.52,-53.96"/>
</g>
<!-- Node3 -->
<g id="node3" class="node">
<title>Node3</title>
<g id="a_node3"><a xlink:href="classCLI_1_1App.html#ad9e5d41a1efd28da92235b72682cbf74" target="_top" xlink:title="Process callbacks. Runs on all subcommands.">
<polygon fill="none" stroke="black" points="12,-0.5 12,-30.5 117,-30.5 117,-0.5 12,-0.5"/>
<text text-anchor="start" x="20" y="-18.5" font-family="Helvetica,sans-Serif" font-size="10.00">CLI::App::_process</text>
<text text-anchor="middle" x="64.5" y="-7.5" font-family="Helvetica,sans-Serif" font-size="10.00">_callbacks</text>
</a>
</g>
</g>
<!-- Node1&#45;&gt;Node3 -->
<g id="edge2" class="edge">
<title>Node1&#45;&gt;Node3</title>
<path fill="none" stroke="midnightblue" d="M156.01,-28.51C142.83,-26.61 129.41,-24.68 117.09,-22.91"/>
<polygon fill="midnightblue" stroke="midnightblue" points="155.62,-31.99 166.02,-29.95 156.62,-25.06 155.62,-31.99"/>
</g>
</g>
</svg>
