<?xml version="1.0" encoding="UTF-8" standalone="no"?>
<!DOCTYPE svg PUBLIC "-//W3C//DTD SVG 1.1//EN"
 "http://www.w3.org/Graphics/SVG/1.1/DTD/svg11.dtd">
<!-- Generated by graphviz version 9.0.0 (0)
 -->
<!-- Title: sisi4s::GenerateRandomComplexMatrix::run Pages: 1 -->
<svg width="673pt" height="132pt"
 viewBox="0.00 0.00 672.75 132.12" xmlns="http://www.w3.org/2000/svg" xmlns:xlink="http://www.w3.org/1999/xlink">
<g id="graph0" class="graph" transform="scale(1 1) rotate(0) translate(4 128.12)">
<title>sisi4s::GenerateRandomComplexMatrix::run</title>
<!-- Node1 -->
<g id="Node000001" class="node">
<title>Node1</title>
<g id="a_Node000001"><a xlink:title="Testing environement.">
<polygon fill="#999999" stroke="#666666" points="178.75,-72.12 0,-72.12 0,-38.62 178.75,-38.62 178.75,-72.12"/>
<text text-anchor="start" x="8" y="-58.62" font-family="Helvetica,sans-Serif" font-size="10.00">sisi4s::GenerateRandomComplex</text>
<text text-anchor="middle" x="89.38" y="-45.88" font-family="Helvetica,sans-Serif" font-size="10.00">Matrix::run</text>
</a>
</g>
</g>
<!-- Node2 -->
<g id="Node000002" class="node">
<title>Node2</title>
<g id="a_Node000002"><a xlink:href="classsisi4s_1_1Algorithm.html#a5db14be3b0d33bf80218a37223e27667" target="_top" xlink:title=" ">
<polygon fill="white" stroke="#666666" points="340.25,-72.12 226,-72.12 226,-38.62 340.25,-38.62 340.25,-72.12"/>
<text text-anchor="start" x="234" y="-58.62" font-family="Helvetica,sans-Serif" font-size="10.00">sisi4s::Algorithm::</text>
<text text-anchor="middle" x="283.12" y="-45.88" font-family="Helvetica,sans-Serif" font-size="10.00">getIntegerArgument</text>
</a>
</g>
</g>
<!-- Node1&#45;&gt;Node2 -->
<g id="edge1_Node000001_Node000002" class="edge">
<title>Node1&#45;&gt;Node2</title>
<g id="a_edge1_Node000001_Node000002"><a xlink:title=" ">
<path fill="none" stroke="#63b8ff" d="M179.23,-55.38C191.06,-55.38 203.04,-55.38 214.43,-55.38"/>
<polygon fill="#63b8ff" stroke="#63b8ff" points="214.08,-58.88 224.08,-55.38 214.08,-51.88 214.08,-58.88"/>
</a>
</g>
</g>
<!-- Node6 -->
<g id="Node000006" class="node">
<title>Node6</title>
<g id="a_Node000006"><a xlink:href="classsisi4s_1_1Algorithm.html#a5e80a507fac066ab5714b62364cabaaf" target="_top" xlink:title=" ">
<polygon fill="white" stroke="#666666" points="335,-124.12 231.25,-124.12 231.25,-90.62 335,-90.62 335,-124.12"/>
<text text-anchor="start" x="239.25" y="-110.62" font-family="Helvetica,sans-Serif" font-size="10.00">sisi4s::Algorithm::</text>
<text text-anchor="middle" x="283.12" y="-97.88" font-family="Helvetica,sans-Serif" font-size="10.00">getTextArgument</text>
</a>
</g>
</g>
<!-- Node1&#45;&gt;Node6 -->
<g id="edge5_Node000001_Node000006" class="edge">
<title>Node1&#45;&gt;Node6</title>
<g id="a_edge5_Node000001_Node000006"><a xlink:title=" ">
<path fill="none" stroke="#63b8ff" d="M153.96,-72.62C175.12,-78.36 198.66,-84.74 219.73,-90.45"/>
<polygon fill="#63b8ff" stroke="#63b8ff" points="218.79,-93.83 229.36,-93.07 220.63,-87.07 218.79,-93.83"/>
</a>
</g>
</g>
<!-- Node7 -->
<g id="Node000007" class="node">
<title>Node7</title>
<g id="a_Node000007"><a xlink:href="namespacesisi4s.html#adb5622106d23e3d14c736c4793512e5c" target="_top" xlink:title=" ">
<polygon fill="white" stroke="#666666" points="351.5,-20.75 214.75,-20.75 214.75,0 351.5,0 351.5,-20.75"/>
<text text-anchor="middle" x="283.12" y="-7.25" font-family="Helvetica,sans-Serif" font-size="10.00">sisi4s::setRandomTensor</text>
</a>
</g>
</g>
<!-- Node1&#45;&gt;Node7 -->
<g id="edge8_Node000001_Node000007" class="edge">
<title>Node1&#45;&gt;Node7</title>
<g id="a_edge8_Node000001_Node000007"><a xlink:title=" ">
<path fill="none" stroke="#63b8ff" d="M163.69,-38.17C184.02,-33.4 205.78,-28.29 225.03,-23.77"/>
<polygon fill="#63b8ff" stroke="#63b8ff" points="225.64,-27.23 234.57,-21.53 224.04,-20.41 225.64,-27.23"/>
</a>
</g>
</g>
<!-- Node3 -->
<g id="Node000003" class="node">
<title>Node3</title>
<g id="a_Node000003"><a xlink:href="classsisi4s_1_1Algorithm.html#a1e53277220d32a33e20846267c253652" target="_top" xlink:title=" ">
<polygon fill="white" stroke="#666666" points="512.62,-75.12 408.88,-75.12 408.88,-41.62 512.62,-41.62 512.62,-75.12"/>
<text text-anchor="start" x="416.88" y="-61.62" font-family="Helvetica,sans-Serif" font-size="10.00">sisi4s::Algorithm::</text>
<text text-anchor="middle" x="460.75" y="-48.88" font-family="Helvetica,sans-Serif" font-size="10.00">getArgumentData</text>
</a>
</g>
</g>
<!-- Node2&#45;&gt;Node3 -->
<g id="edge2_Node000002_Node000003" class="edge">
<title>Node2&#45;&gt;Node3</title>
<g id="a_edge2_Node000002_Node000003"><a xlink:title=" ">
<path fill="none" stroke="#63b8ff" d="M340.66,-56.34C358.76,-56.65 378.91,-56.99 397.4,-57.31"/>
<polygon fill="#63b8ff" stroke="#63b8ff" points="397.1,-60.81 407.15,-57.48 397.22,-53.81 397.1,-60.81"/>
</a>
</g>
</g>
<!-- Node5 -->
<g id="Node000005" class="node">
<title>Node5</title>
<g id="a_Node000005"><a xlink:href="classsisi4s_1_1Data.html#a0ec0b1c7f2356fd43d82ee1dd0246789" target="_top" xlink:title=" ">
<polygon fill="white" stroke="#666666" points="534,-115.75 387.5,-115.75 387.5,-95 534,-95 534,-115.75"/>
<text text-anchor="middle" x="460.75" y="-102.25" font-family="Helvetica,sans-Serif" font-size="10.00">sisi4s::Data::getTypeName</text>
</a>
</g>
</g>
<!-- Node2&#45;&gt;Node5 -->
<g id="edge4_Node000002_Node000005" class="edge">
<title>Node2&#45;&gt;Node5</title>
<g id="a_edge4_Node000002_Node000005"><a xlink:title=" ">
<path fill="none" stroke="#63b8ff" d="M340.66,-71.47C363.2,-77.89 388.91,-85.21 410.66,-91.4"/>
<polygon fill="#63b8ff" stroke="#63b8ff" points="409.6,-94.74 420.17,-94.11 411.51,-88 409.6,-94.74"/>
</a>
</g>
</g>
<!-- Node4 -->
<g id="Node000004" class="node">
<title>Node4</title>
<g id="a_Node000004"><a xlink:href="classsisi4s_1_1Data.html#a5b4676e48b4f437d399587e6903f896a" target="_top" xlink:title=" ">
<polygon fill="white" stroke="#666666" points="664.75,-68.75 570,-68.75 570,-48 664.75,-48 664.75,-68.75"/>
<text text-anchor="middle" x="617.38" y="-55.25" font-family="Helvetica,sans-Serif" font-size="10.00">sisi4s::Data::get</text>
</a>
</g>
</g>
<!-- Node3&#45;&gt;Node4 -->
<g id="edge3_Node000003_Node000004" class="edge">
<title>Node3&#45;&gt;Node4</title>
<g id="a_edge3_Node000003_Node000004"><a xlink:title=" ">
<path fill="none" stroke="#63b8ff" d="M512.81,-58.38C527.39,-58.38 543.38,-58.38 558.35,-58.38"/>
<polygon fill="#63b8ff" stroke="#63b8ff" points="558.04,-61.88 568.04,-58.38 558.04,-54.88 558.04,-61.88"/>
</a>
</g>
</g>
<!-- Node6&#45;&gt;Node3 -->
<g id="edge6_Node000006_Node000003" class="edge">
<title>Node6&#45;&gt;Node3</title>
<g id="a_edge6_Node000006_Node000003"><a xlink:title=" ">
<path fill="none" stroke="#63b8ff" d="M335.4,-93.07C354.79,-87.66 377.07,-81.44 397.37,-75.78"/>
<polygon fill="#63b8ff" stroke="#63b8ff" points="398.27,-79.16 406.96,-73.1 396.39,-72.42 398.27,-79.16"/>
</a>
</g>
</g>
<!-- Node6&#45;&gt;Node5 -->
<g id="edge7_Node000006_Node000005" class="edge">
<title>Node6&#45;&gt;Node5</title>
<g id="a_edge7_Node000006_Node000005"><a xlink:title=" ">
<path fill="none" stroke="#63b8ff" d="M335.4,-106.79C348.05,-106.65 361.94,-106.49 375.7,-106.33"/>
<polygon fill="#63b8ff" stroke="#63b8ff" points="375.73,-109.83 385.69,-106.22 375.65,-102.83 375.73,-109.83"/>
</a>
</g>
</g>
<!-- Node8 -->
<g id="Node000008" class="node">
<title>Node8</title>
<g id="a_Node000008"><a xlink:href="namespacesisi4s.html#a2e93670459c4d5d087e89f55952bbe62" target="_top" xlink:title=" ">
<polygon fill="white" stroke="#666666" points="513.38,-20.75 408.12,-20.75 408.12,0 513.38,0 513.38,-20.75"/>
<text text-anchor="middle" x="460.75" y="-7.25" font-family="Helvetica,sans-Serif" font-size="10.00">sisi4s::setRandom</text>
</a>
</g>
</g>
<!-- Node7&#45;&gt;Node8 -->
<g id="edge9_Node000007_Node000008" class="edge">
<title>Node7&#45;&gt;Node8</title>
<g id="a_edge9_Node000007_Node000008"><a xlink:title=" ">
<path fill="none" stroke="#63b8ff" d="M351.77,-10.38C366.41,-10.38 381.84,-10.38 396.31,-10.38"/>
<polygon fill="#63b8ff" stroke="#63b8ff" points="396.17,-13.88 406.17,-10.38 396.17,-6.88 396.17,-13.88"/>
</a>
</g>
</g>
</g>
</svg>
