<?xml version="1.0" encoding="UTF-8" standalone="no"?>
<!DOCTYPE svg PUBLIC "-//W3C//DTD SVG 1.1//EN"
 "http://www.w3.org/Graphics/SVG/1.1/DTD/svg11.dtd">
<!-- Generated by graphviz version 7.1.0 (0)
 -->
<!-- Title: sisi4s::GenerateRandomTensor Pages: 1 -->
<svg width="484pt" height="613pt"
 viewBox="0.00 0.00 484.00 613.00" xmlns="http://www.w3.org/2000/svg" xmlns:xlink="http://www.w3.org/1999/xlink">
<g id="graph0" class="graph" transform="scale(1 1) rotate(0) translate(4 609)">
<title>sisi4s::GenerateRandomTensor</title>
<!-- Node1 -->
<g id="node1" class="node">
<title>Node1</title>
<g id="a_node1"><a xlink:title=" ">
<polygon fill="#999999" stroke="#666666" points="22.5,-0.5 22.5,-101.5 189.5,-101.5 189.5,-0.5 22.5,-0.5"/>
<text text-anchor="middle" x="106" y="-89.5" font-family="Helvetica,sans-Serif" font-size="10.00">sisi4s::GenerateRandomTensor</text>
<polyline fill="none" stroke="#666666" points="22.5,-82.5 189.5,-82.5"/>
<text text-anchor="middle" x="106" y="-70.5" font-family="Helvetica,sans-Serif" font-size="10.00"> </text>
<polyline fill="none" stroke="#666666" points="22.5,-63.5 189.5,-63.5"/>
<text text-anchor="start" x="30.5" y="-51.5" font-family="Helvetica,sans-Serif" font-size="10.00">+ getName()</text>
<text text-anchor="start" x="30.5" y="-40.5" font-family="Helvetica,sans-Serif" font-size="10.00">+ GenerateRandomTensor()</text>
<text text-anchor="start" x="30.5" y="-29.5" font-family="Helvetica,sans-Serif" font-size="10.00">+ ~GenerateRandomTensor()</text>
<text text-anchor="start" x="30.5" y="-18.5" font-family="Helvetica,sans-Serif" font-size="10.00">+ run()</text>
<text text-anchor="start" x="30.5" y="-7.5" font-family="Helvetica,sans-Serif" font-size="10.00">+ create()</text>
</a>
</g>
</g>
<!-- Node2 -->
<g id="node2" class="node">
<title>Node2</title>
<g id="a_node2"><a xlink:href="classsisi4s_1_1Algorithm.html" target="_top" xlink:title=" ">
<polygon fill="white" stroke="#666666" points="0,-149.5 0,-360.5 180,-360.5 180,-149.5 0,-149.5"/>
<text text-anchor="middle" x="90" y="-348.5" font-family="Helvetica,sans-Serif" font-size="10.00">sisi4s::Algorithm</text>
<polyline fill="none" stroke="#666666" points="0,-341.5 180,-341.5"/>
<text text-anchor="start" x="8" y="-329.5" font-family="Helvetica,sans-Serif" font-size="10.00"># arguments</text>
<polyline fill="none" stroke="#666666" points="0,-322.5 180,-322.5"/>
<text text-anchor="start" x="8" y="-310.5" font-family="Helvetica,sans-Serif" font-size="10.00">+ Algorithm()</text>
<text text-anchor="start" x="8" y="-299.5" font-family="Helvetica,sans-Serif" font-size="10.00">+ ~Algorithm()</text>
<text text-anchor="start" x="8" y="-288.5" font-family="Helvetica,sans-Serif" font-size="10.00">+ getName()</text>
<text text-anchor="start" x="8" y="-277.5" font-family="Helvetica,sans-Serif" font-size="10.00">+ run()</text>
<text text-anchor="start" x="8" y="-266.5" font-family="Helvetica,sans-Serif" font-size="10.00">+ dryRun()</text>
<text text-anchor="start" x="8" y="-255.5" font-family="Helvetica,sans-Serif" font-size="10.00">+ isArgumentGiven()</text>
<text text-anchor="start" x="8" y="-244.5" font-family="Helvetica,sans-Serif" font-size="10.00">+ getTextArgument()</text>
<text text-anchor="start" x="8" y="-233.5" font-family="Helvetica,sans-Serif" font-size="10.00">+ getTextArgument()</text>
<text text-anchor="start" x="8" y="-222.5" font-family="Helvetica,sans-Serif" font-size="10.00">+ getBooleanArgument()</text>
<text text-anchor="start" x="8" y="-211.5" font-family="Helvetica,sans-Serif" font-size="10.00">+ getBooleanArgument()</text>
<text text-anchor="start" x="8" y="-200.5" font-family="Helvetica,sans-Serif" font-size="10.00">and 12 more...</text>
<text text-anchor="start" x="8" y="-189.5" font-family="Helvetica,sans-Serif" font-size="10.00"># getRealArgumentFromInteger()</text>
<text text-anchor="start" x="8" y="-178.5" font-family="Helvetica,sans-Serif" font-size="10.00"># getRealArgumentFromTensor()</text>
<text text-anchor="start" x="8" y="-167.5" font-family="Helvetica,sans-Serif" font-size="10.00"># getTensorArgumentFromReal()</text>
<text text-anchor="start" x="8" y="-156.5" font-family="Helvetica,sans-Serif" font-size="10.00"># getArgumentData()</text>
</a>
</g>
</g>
<!-- Node2&#45;&gt;Node1 -->
<g id="edge1" class="edge">
<title>Node2&#45;&gt;Node1</title>
<path fill="none" stroke="#63b8ff" d="M99.16,-138.31C100.19,-125.37 101.19,-112.76 102.09,-101.35"/>
<polygon fill="none" stroke="#63b8ff" points="95.68,-137.99 98.38,-148.24 102.66,-138.54 95.68,-137.99"/>
</g>
<!-- Node3 -->
<g id="node3" class="node">
<title>Node3</title>
<g id="a_node3"><a xlink:href="classsisi4s_1_1AlgorithmRegistrar.html" target="_top" xlink:title=" ">
<polygon fill="white" stroke="#666666" points="198,-221 198,-289 388,-289 388,-221 198,-221"/>
<text text-anchor="start" x="206" y="-277" font-family="Helvetica,sans-Serif" font-size="10.00">sisi4s::AlgorithmRegistrar</text>
<text text-anchor="middle" x="293" y="-266" font-family="Helvetica,sans-Serif" font-size="10.00">&lt; sisi4s::GenerateRandomTensor &gt;</text>
<polyline fill="none" stroke="#666666" points="198,-259 388,-259"/>
<text text-anchor="middle" x="293" y="-247" font-family="Helvetica,sans-Serif" font-size="10.00"> </text>
<polyline fill="none" stroke="#666666" points="198,-240 388,-240"/>
<text text-anchor="start" x="206" y="-228" font-family="Helvetica,sans-Serif" font-size="10.00">+ AlgorithmRegistrar()</text>
</a>
</g>
</g>
<!-- Node3&#45;&gt;Node1 -->
<g id="edge2" class="edge">
<title>Node3&#45;&gt;Node1</title>
<path fill="none" stroke="#404040" d="M262.54,-221.1C234.89,-191.23 193.48,-146.5 160.2,-110.55"/>
<polygon fill="none" stroke="#404040" points="160.25,-110.6 153.24,-108.92 152.1,-101.79 159.11,-103.48 160.25,-110.6"/>
<text text-anchor="middle" x="207" y="-123" font-family="Helvetica,sans-Serif" font-size="10.00"> +registrar_</text>
</g>
<!-- Node4 -->
<g id="node4" class="node">
<title>Node4</title>
<g id="a_node4"><a xlink:href="classsisi4s_1_1AlgorithmFactory.html" target="_top" xlink:title=" ">
<polygon fill="white" stroke="#666666" points="205,-525.5 205,-604.5 339,-604.5 339,-525.5 205,-525.5"/>
<text text-anchor="middle" x="272" y="-592.5" font-family="Helvetica,sans-Serif" font-size="10.00">sisi4s::AlgorithmFactory</text>
<polyline fill="none" stroke="#666666" points="205,-585.5 339,-585.5"/>
<text text-anchor="start" x="213" y="-573.5" font-family="Helvetica,sans-Serif" font-size="10.00"># algorithmMap</text>
<polyline fill="none" stroke="#666666" points="205,-566.5 339,-566.5"/>
<text text-anchor="start" x="213" y="-554.5" font-family="Helvetica,sans-Serif" font-size="10.00">+ create()</text>
<text text-anchor="start" x="213" y="-543.5" font-family="Helvetica,sans-Serif" font-size="10.00">+ getAlgorithmNames()</text>
<text text-anchor="start" x="213" y="-532.5" font-family="Helvetica,sans-Serif" font-size="10.00"># getAlgorithmMap()</text>
</a>
</g>
</g>
<!-- Node4&#45;&gt;Node3 -->
<g id="edge3" class="edge">
<title>Node4&#45;&gt;Node3</title>
<path fill="none" stroke="darkgreen" d="M273.95,-514.02C275.16,-486.06 276.88,-450.57 279,-419 282.03,-373.8 286.72,-321.65 289.82,-288.75"/>
<polygon fill="none" stroke="darkgreen" points="270.45,-513.86 273.53,-524 277.45,-514.16 270.45,-513.86"/>
</g>
<!-- Node5 -->
<g id="node5" class="node">
<title>Node5</title>
<g id="a_node5"><a xlink:href="classsisi4s_1_1AlgorithmRegistrar.html" target="_top" xlink:title="Class to be statically instantiated by an algorithm to register it in the AlgorithmFactory....">
<polygon fill="white" stroke="#666666" points="288.5,-419.5 288.5,-487.5 431.5,-487.5 431.5,-419.5 288.5,-419.5"/>
<text text-anchor="start" x="296.5" y="-475.5" font-family="Helvetica,sans-Serif" font-size="10.00">sisi4s::AlgorithmRegistrar</text>
<text text-anchor="middle" x="360" y="-464.5" font-family="Helvetica,sans-Serif" font-size="10.00">&lt; AlgorithmType &gt;</text>
<polyline fill="none" stroke="#666666" points="288.5,-457.5 431.5,-457.5"/>
<text text-anchor="middle" x="360" y="-445.5" font-family="Helvetica,sans-Serif" font-size="10.00"> </text>
<polyline fill="none" stroke="#666666" points="288.5,-438.5 431.5,-438.5"/>
<text text-anchor="start" x="296.5" y="-426.5" font-family="Helvetica,sans-Serif" font-size="10.00">+ AlgorithmRegistrar()</text>
</a>
</g>
</g>
<!-- Node4&#45;&gt;Node5 -->
<g id="edge5" class="edge">
<title>Node4&#45;&gt;Node5</title>
<path fill="none" stroke="darkgreen" d="M309.95,-516.77C317.88,-506.91 326.08,-496.71 333.48,-487.5"/>
<polygon fill="none" stroke="darkgreen" points="307.26,-514.54 303.73,-524.52 312.72,-518.92 307.26,-514.54"/>
</g>
<!-- Node5&#45;&gt;Node3 -->
<g id="edge4" class="edge">
<title>Node5&#45;&gt;Node3</title>
<path fill="none" stroke="orange" d="M345.12,-408.87C332.77,-372.65 315.47,-321.91 304.25,-289"/>
<polygon fill="orange" stroke="orange" points="341.76,-409.84 348.3,-418.18 348.38,-407.58 341.76,-409.84"/>
<text text-anchor="start" x="342" y="-393" font-family="Helvetica,sans-Serif" font-size="10.00"> &lt; sisi4s::GenerateRandom</text>
<text text-anchor="middle" x="409" y="-382" font-family="Helvetica,sans-Serif" font-size="10.00">Tensor &gt;</text>
</g>
</g>
</svg>
