<?xml version="1.0" encoding="UTF-8" standalone="no"?>
<!DOCTYPE svg PUBLIC "-//W3C//DTD SVG 1.1//EN"
 "http://www.w3.org/Graphics/SVG/1.1/DTD/svg11.dtd">
<!-- Generated by graphviz version 8.1.0 (0)
 -->
<!-- Title: sisi4s::UCcsdIPEquationOfMotionDavidson::run Pages: 1 -->
<svg width="694pt" height="358pt"
 viewBox="0.00 0.00 693.75 358.12" xmlns="http://www.w3.org/2000/svg" xmlns:xlink="http://www.w3.org/1999/xlink">
<g id="graph0" class="graph" transform="scale(1 1) rotate(0) translate(4 354.12)">
<title>sisi4s::UCcsdIPEquationOfMotionDavidson::run</title>
<!-- Node1 -->
<g id="Node000001" class="node">
<title>Node1</title>
<g id="a_Node000001"><a xlink:title=" ">
<polygon fill="#999999" stroke="#666666" points="143.5,-194.12 0,-194.12 0,-160.62 143.5,-160.62 143.5,-194.12"/>
<text text-anchor="start" x="8" y="-180.62" font-family="Helvetica,sans-Serif" font-size="10.00">sisi4s::UCcsdIPEquationOf</text>
<text text-anchor="middle" x="71.75" y="-167.88" font-family="Helvetica,sans-Serif" font-size="10.00">MotionDavidson::run</text>
</a>
</g>
</g>
<!-- Node2 -->
<g id="Node000002" class="node">
<title>Node2</title>
<g id="a_Node000002"><a xlink:href="classsisi4s_1_1Algorithm.html#a5db14be3b0d33bf80218a37223e27667" target="_top" xlink:title=" ">
<polygon fill="white" stroke="#666666" points="326,-350.12 211.75,-350.12 211.75,-316.62 326,-316.62 326,-350.12"/>
<text text-anchor="start" x="219.75" y="-336.62" font-family="Helvetica,sans-Serif" font-size="10.00">sisi4s::Algorithm::</text>
<text text-anchor="middle" x="268.88" y="-323.88" font-family="Helvetica,sans-Serif" font-size="10.00">getIntegerArgument</text>
</a>
</g>
</g>
<!-- Node1&#45;&gt;Node2 -->
<g id="edge1_Node000001_Node000002" class="edge">
<title>Node1&#45;&gt;Node2</title>
<g id="a_edge1_Node000001_Node000002"><a xlink:title=" ">
<path fill="none" stroke="#63b8ff" d="M82.17,-194.49C98.38,-222.35 134.21,-277.39 179.5,-307.38 186.18,-311.79 193.62,-315.48 201.28,-318.55"/>
<polygon fill="#63b8ff" stroke="#63b8ff" points="199.83,-322.11 210.42,-322.24 202.22,-315.53 199.83,-322.11"/>
</a>
</g>
</g>
<!-- Node6 -->
<g id="Node000006" class="node">
<title>Node6</title>
<g id="a_Node000006"><a xlink:href="classsisi4s_1_1Algorithm.html#a36c632fbb19dae4ce2f415705fa5cbcb" target="_top" xlink:title=" ">
<polygon fill="white" stroke="#666666" points="320.75,-194.12 217,-194.12 217,-160.62 320.75,-160.62 320.75,-194.12"/>
<text text-anchor="start" x="225" y="-180.62" font-family="Helvetica,sans-Serif" font-size="10.00">sisi4s::Algorithm::</text>
<text text-anchor="middle" x="268.88" y="-167.88" font-family="Helvetica,sans-Serif" font-size="10.00">getRealArgument</text>
</a>
</g>
</g>
<!-- Node1&#45;&gt;Node6 -->
<g id="edge5_Node000001_Node000006" class="edge">
<title>Node1&#45;&gt;Node6</title>
<g id="a_edge5_Node000001_Node000006"><a xlink:title=" ">
<path fill="none" stroke="#63b8ff" d="M143.75,-177.38C164.16,-177.38 186.25,-177.38 206.06,-177.38"/>
<polygon fill="#63b8ff" stroke="#63b8ff" points="205.8,-180.88 215.8,-177.38 205.8,-173.88 205.8,-180.88"/>
</a>
</g>
</g>
<!-- Node9 -->
<g id="Node000009" class="node">
<title>Node9</title>
<g id="a_Node000009"><a xlink:href="classsisi4s_1_1Algorithm.html#a338a44c8fd4d6be3b32a6d5e71dfe180" target="_top" xlink:title=" ">
<polygon fill="white" stroke="#666666" points="324.5,-298.12 213.25,-298.12 213.25,-264.62 324.5,-264.62 324.5,-298.12"/>
<text text-anchor="start" x="221.25" y="-284.62" font-family="Helvetica,sans-Serif" font-size="10.00">sisi4s::Algorithm::</text>
<text text-anchor="middle" x="268.88" y="-271.88" font-family="Helvetica,sans-Serif" font-size="10.00">getTensorArgument</text>
</a>
</g>
</g>
<!-- Node1&#45;&gt;Node9 -->
<g id="edge10_Node000001_Node000009" class="edge">
<title>Node1&#45;&gt;Node9</title>
<g id="a_edge10_Node000001_Node000009"><a xlink:title=" ">
<path fill="none" stroke="#63b8ff" d="M91.87,-194.54C112.27,-212.05 146.16,-238.91 179.5,-255.38 186.78,-258.97 194.65,-262.16 202.58,-264.97"/>
<polygon fill="#63b8ff" stroke="#63b8ff" points="201.42,-268.6 212.01,-268.43 203.62,-261.96 201.42,-268.6"/>
</a>
</g>
</g>
<!-- Node10 -->
<g id="Node000010" class="node">
<title>Node10</title>
<g id="a_Node000010"><a xlink:href="classsisi4s_1_1Algorithm.html#a5e80a507fac066ab5714b62364cabaaf" target="_top" xlink:title=" ">
<polygon fill="white" stroke="#666666" points="320.75,-246.12 217,-246.12 217,-212.62 320.75,-212.62 320.75,-246.12"/>
<text text-anchor="start" x="225" y="-232.62" font-family="Helvetica,sans-Serif" font-size="10.00">sisi4s::Algorithm::</text>
<text text-anchor="middle" x="268.88" y="-219.88" font-family="Helvetica,sans-Serif" font-size="10.00">getTextArgument</text>
</a>
</g>
</g>
<!-- Node1&#45;&gt;Node10 -->
<g id="edge13_Node000001_Node000010" class="edge">
<title>Node1&#45;&gt;Node10</title>
<g id="a_edge13_Node000001_Node000010"><a xlink:title=" ">
<path fill="none" stroke="#63b8ff" d="M137.45,-194.62C159.57,-200.51 184.24,-207.09 206.12,-212.92"/>
<polygon fill="#63b8ff" stroke="#63b8ff" points="205.05,-216.52 215.61,-215.71 206.85,-209.76 205.05,-216.52"/>
</a>
</g>
</g>
<!-- Node11 -->
<g id="Node000011" class="node">
<title>Node11</title>
<g id="a_Node000011"><a xlink:href="classsisi4s_1_1Algorithm.html#aec9041b31cb64a42ee1fd79d32774266" target="_top" xlink:title=" ">
<polygon fill="white" stroke="#666666" points="320.75,-142.12 217,-142.12 217,-108.62 320.75,-108.62 320.75,-142.12"/>
<text text-anchor="start" x="225" y="-128.62" font-family="Helvetica,sans-Serif" font-size="10.00">sisi4s::Algorithm::</text>
<text text-anchor="middle" x="268.88" y="-115.88" font-family="Helvetica,sans-Serif" font-size="10.00">isArgumentGiven</text>
</a>
</g>
</g>
<!-- Node1&#45;&gt;Node11 -->
<g id="edge16_Node000001_Node000011" class="edge">
<title>Node1&#45;&gt;Node11</title>
<g id="a_edge16_Node000001_Node000011"><a xlink:title=" ">
<path fill="none" stroke="#63b8ff" d="M137.45,-160.13C159.57,-154.24 184.24,-147.66 206.12,-141.83"/>
<polygon fill="#63b8ff" stroke="#63b8ff" points="206.85,-144.99 215.61,-139.04 205.05,-138.23 206.85,-144.99"/>
</a>
</g>
</g>
<!-- Node12 -->
<g id="Node000012" class="node">
<title>Node12</title>
<g id="a_Node000012"><a xlink:href="classsisi4s_1_1SimilarityTransformedHamiltonian.html#a2c0860086c2acd3c6a7e5d80cc846b2b" target="_top" xlink:title=" ">
<polygon fill="white" stroke="#666666" points="358.25,-90.12 179.5,-90.12 179.5,-56.62 358.25,-56.62 358.25,-90.12"/>
<text text-anchor="start" x="187.5" y="-76.62" font-family="Helvetica,sans-Serif" font-size="10.00">sisi4s::SimilarityTransformed</text>
<text text-anchor="middle" x="268.88" y="-63.88" font-family="Helvetica,sans-Serif" font-size="10.00">Hamiltonian::rightApply_CCSD_IP</text>
</a>
</g>
</g>
<!-- Node1&#45;&gt;Node12 -->
<g id="edge17_Node000001_Node000012" class="edge">
<title>Node1&#45;&gt;Node12</title>
<g id="a_edge17_Node000001_Node000012"><a xlink:title=" ">
<path fill="none" stroke="#63b8ff" d="M91.87,-160.21C112.27,-142.7 146.16,-115.84 179.5,-99.38 183,-97.64 186.65,-96.01 190.36,-94.46"/>
<polygon fill="#63b8ff" stroke="#63b8ff" points="191.3,-97.47 199.35,-90.58 188.76,-90.94 191.3,-97.47"/>
</a>
</g>
</g>
<!-- Node13 -->
<g id="Node000013" class="node">
<title>Node13</title>
<g id="a_Node000013"><a xlink:href="namespacesisi4s.html#a2653420c2b1b1224ad8f6b1d538228f1" target="_top" xlink:title="Composes a tensor of complex elements containing of the given tensors of real and imaginary parts....">
<polygon fill="white" stroke="#666666" points="336.12,-20.75 201.62,-20.75 201.62,0 336.12,0 336.12,-20.75"/>
<text text-anchor="middle" x="268.88" y="-7.25" font-family="Helvetica,sans-Serif" font-size="10.00">sisi4s::toComplexTensor</text>
</a>
</g>
</g>
<!-- Node1&#45;&gt;Node13 -->
<g id="edge18_Node000001_Node000013" class="edge">
<title>Node1&#45;&gt;Node13</title>
<g id="a_edge18_Node000001_Node000013"><a xlink:title=" ">
<path fill="none" stroke="#63b8ff" d="M82.83,-160.37C99.71,-133.16 136.16,-79.63 179.5,-47.38 191.95,-38.1 207.08,-30.67 221.26,-24.98"/>
<polygon fill="#63b8ff" stroke="#63b8ff" points="222.27,-27.96 230.38,-21.13 219.79,-21.41 222.27,-27.96"/>
</a>
</g>
</g>
<!-- Node3 -->
<g id="Node000003" class="node">
<title>Node3</title>
<g id="a_Node000003"><a xlink:href="classsisi4s_1_1Algorithm.html#a1e53277220d32a33e20846267c253652" target="_top" xlink:title=" ">
<polygon fill="white" stroke="#666666" points="526.5,-296.12 422.75,-296.12 422.75,-262.62 526.5,-262.62 526.5,-296.12"/>
<text text-anchor="start" x="430.75" y="-282.62" font-family="Helvetica,sans-Serif" font-size="10.00">sisi4s::Algorithm::</text>
<text text-anchor="middle" x="474.62" y="-269.88" font-family="Helvetica,sans-Serif" font-size="10.00">getArgumentData</text>
</a>
</g>
</g>
<!-- Node2&#45;&gt;Node3 -->
<g id="edge2_Node000002_Node000003" class="edge">
<title>Node2&#45;&gt;Node3</title>
<g id="a_edge2_Node000002_Node000003"><a xlink:title=" ">
<path fill="none" stroke="#63b8ff" d="M326.36,-318.4C352.87,-311.38 384.54,-302.99 411.7,-295.79"/>
<polygon fill="#63b8ff" stroke="#63b8ff" points="412.49,-298.93 421.26,-292.99 410.7,-292.17 412.49,-298.93"/>
</a>
</g>
</g>
<!-- Node5 -->
<g id="Node000005" class="node">
<title>Node5</title>
<g id="a_Node000005"><a xlink:href="classsisi4s_1_1Data.html#a0ec0b1c7f2356fd43d82ee1dd0246789" target="_top" xlink:title=" ">
<polygon fill="white" stroke="#666666" points="547.88,-241.75 401.38,-241.75 401.38,-221 547.88,-221 547.88,-241.75"/>
<text text-anchor="middle" x="474.62" y="-228.25" font-family="Helvetica,sans-Serif" font-size="10.00">sisi4s::Data::getTypeName</text>
</a>
</g>
</g>
<!-- Node2&#45;&gt;Node5 -->
<g id="edge4_Node000002_Node000005" class="edge">
<title>Node2&#45;&gt;Node5</title>
<g id="a_edge4_Node000002_Node000005"><a xlink:title=" ">
<path fill="none" stroke="#63b8ff" d="M326.38,-323.12C337.62,-319.38 348.85,-314.3 358.25,-307.38 381.48,-290.28 370.89,-270.29 394.25,-253.38 397.73,-250.85 401.5,-248.62 405.42,-246.64"/>
<polygon fill="#63b8ff" stroke="#63b8ff" points="406.7,-249.46 414.45,-242.24 403.89,-243.05 406.7,-249.46"/>
</a>
</g>
</g>
<!-- Node4 -->
<g id="Node000004" class="node">
<title>Node4</title>
<g id="a_Node000004"><a xlink:href="classsisi4s_1_1Data.html#a5b4676e48b4f437d399587e6903f896a" target="_top" xlink:title=" ">
<polygon fill="white" stroke="#666666" points="685.75,-289.75 591,-289.75 591,-269 685.75,-269 685.75,-289.75"/>
<text text-anchor="middle" x="638.38" y="-276.25" font-family="Helvetica,sans-Serif" font-size="10.00">sisi4s::Data::get</text>
</a>
</g>
</g>
<!-- Node3&#45;&gt;Node4 -->
<g id="edge3_Node000003_Node000004" class="edge">
<title>Node3&#45;&gt;Node4</title>
<g id="a_edge3_Node000003_Node000004"><a xlink:title=" ">
<path fill="none" stroke="#63b8ff" d="M526.8,-279.38C543.74,-279.38 562.7,-279.38 580.07,-279.38"/>
<polygon fill="#63b8ff" stroke="#63b8ff" points="579.64,-282.88 589.64,-279.38 579.64,-275.88 579.64,-282.88"/>
</a>
</g>
</g>
<!-- Node6&#45;&gt;Node3 -->
<g id="edge6_Node000006_Node000003" class="edge">
<title>Node6&#45;&gt;Node3</title>
<g id="a_edge6_Node000006_Node000003"><a xlink:title=" ">
<path fill="none" stroke="#63b8ff" d="M320.95,-186.52C333.85,-190.36 347.17,-195.77 358.25,-203.38 379.94,-218.27 373.05,-234.79 394.25,-250.38 399.89,-254.52 406.18,-258.13 412.69,-261.25"/>
<polygon fill="#63b8ff" stroke="#63b8ff" points="410.77,-264.67 421.33,-265.49 413.59,-258.26 410.77,-264.67"/>
</a>
</g>
</g>
<!-- Node6&#45;&gt;Node5 -->
<g id="edge9_Node000006_Node000005" class="edge">
<title>Node6&#45;&gt;Node5</title>
<g id="a_edge9_Node000006_Node000005"><a xlink:title=" ">
<path fill="none" stroke="#63b8ff" d="M321.03,-190.93C351.92,-199.12 391.18,-209.52 422.13,-217.73"/>
<polygon fill="#63b8ff" stroke="#63b8ff" points="421.15,-221.35 431.71,-220.53 422.94,-214.59 421.15,-221.35"/>
</a>
</g>
</g>
<!-- Node7 -->
<g id="Node000007" class="node">
<title>Node7</title>
<g id="a_Node000007"><a xlink:href="classsisi4s_1_1Algorithm.html#a1cb9a5e8f19cd8e6b70bb06738ca9413" target="_top" xlink:title=" ">
<polygon fill="white" stroke="#666666" points="555,-200.12 394.25,-200.12 394.25,-166.62 555,-166.62 555,-200.12"/>
<text text-anchor="start" x="402.25" y="-186.62" font-family="Helvetica,sans-Serif" font-size="10.00">sisi4s::Algorithm::</text>
<text text-anchor="middle" x="474.62" y="-173.88" font-family="Helvetica,sans-Serif" font-size="10.00">getRealArgumentFromInteger</text>
</a>
</g>
</g>
<!-- Node6&#45;&gt;Node7 -->
<g id="edge7_Node000006_Node000007" class="edge">
<title>Node6&#45;&gt;Node7</title>
<g id="a_edge7_Node000006_Node000007"><a xlink:title=" ">
<path fill="none" stroke="#63b8ff" d="M321.03,-178.88C339.88,-179.44 361.86,-180.08 383.15,-180.71"/>
<polygon fill="#63b8ff" stroke="#63b8ff" points="382.77,-184.23 392.87,-181.03 382.98,-177.23 382.77,-184.23"/>
</a>
</g>
</g>
<!-- Node8 -->
<g id="Node000008" class="node">
<title>Node8</title>
<g id="a_Node000008"><a xlink:href="classsisi4s_1_1Algorithm.html#a89e59623f1c238a871a4fba19371be7d" target="_top" xlink:title=" ">
<polygon fill="white" stroke="#666666" points="553.5,-148.12 395.75,-148.12 395.75,-114.62 553.5,-114.62 553.5,-148.12"/>
<text text-anchor="start" x="403.75" y="-134.62" font-family="Helvetica,sans-Serif" font-size="10.00">sisi4s::Algorithm::</text>
<text text-anchor="middle" x="474.62" y="-121.88" font-family="Helvetica,sans-Serif" font-size="10.00">getRealArgumentFromTensor</text>
</a>
</g>
</g>
<!-- Node6&#45;&gt;Node8 -->
<g id="edge8_Node000006_Node000008" class="edge">
<title>Node6&#45;&gt;Node8</title>
<g id="a_edge8_Node000006_Node000008"><a xlink:title=" ">
<path fill="none" stroke="#63b8ff" d="M321.03,-165.83C340.97,-161.32 364.4,-156.03 386.83,-150.97"/>
<polygon fill="#63b8ff" stroke="#63b8ff" points="387.41,-154.2 396.4,-148.58 385.87,-147.37 387.41,-154.2"/>
</a>
</g>
</g>
<!-- Node9&#45;&gt;Node3 -->
<g id="edge11_Node000009_Node000003" class="edge">
<title>Node9&#45;&gt;Node3</title>
<g id="a_edge11_Node000009_Node000003"><a xlink:title=" ">
<path fill="none" stroke="#63b8ff" d="M324.74,-280.84C351.59,-280.57 384.01,-280.25 411.74,-279.98"/>
<polygon fill="#63b8ff" stroke="#63b8ff" points="411.54,-283.47 421.51,-279.88 411.48,-276.48 411.54,-283.47"/>
</a>
</g>
</g>
<!-- Node9&#45;&gt;Node5 -->
<g id="edge12_Node000009_Node000005" class="edge">
<title>Node9&#45;&gt;Node5</title>
<g id="a_edge12_Node000009_Node000005"><a xlink:title=" ">
<path fill="none" stroke="#63b8ff" d="M324.74,-267.91C354.03,-260.72 389.96,-251.91 419.18,-244.74"/>
<polygon fill="#63b8ff" stroke="#63b8ff" points="419.74,-247.96 428.62,-242.17 418.07,-241.16 419.74,-247.96"/>
</a>
</g>
</g>
<!-- Node10&#45;&gt;Node3 -->
<g id="edge14_Node000010_Node000003" class="edge">
<title>Node10&#45;&gt;Node3</title>
<g id="a_edge14_Node000010_Node000003"><a xlink:title=" ">
<path fill="none" stroke="#63b8ff" d="M321.03,-241.93C348.64,-248.7 382.92,-257.12 412,-264.25"/>
<polygon fill="#63b8ff" stroke="#63b8ff" points="410.91,-267.83 421.45,-266.82 412.57,-261.03 410.91,-267.83"/>
</a>
</g>
</g>
<!-- Node10&#45;&gt;Node5 -->
<g id="edge15_Node000010_Node000005" class="edge">
<title>Node10&#45;&gt;Node5</title>
<g id="a_edge15_Node000010_Node000005"><a xlink:title=" ">
<path fill="none" stroke="#63b8ff" d="M321.03,-229.88C341.89,-230.08 366.56,-230.32 389.91,-230.55"/>
<polygon fill="#63b8ff" stroke="#63b8ff" points="389.86,-234.06 399.89,-230.66 389.93,-227.06 389.86,-234.06"/>
</a>
</g>
</g>
<!-- Node13&#45;&gt;Node13 -->
<g id="edge19_Node000013_Node000013" class="edge">
<title>Node13&#45;&gt;Node13</title>
<g id="a_edge19_Node000013_Node000013"><a xlink:title=" ">
<path fill="none" stroke="#63b8ff" d="M237.11,-21.15C224.41,-29.81 234.99,-38.75 268.88,-38.75 288.99,-38.75 300.9,-35.6 304.59,-31.22"/>
<polygon fill="#63b8ff" stroke="#63b8ff" points="307.55,-30.18 300.64,-22.15 301.03,-32.73 307.55,-30.18"/>
</a>
</g>
</g>
</g>
</svg>
