<?xml version="1.0" encoding="UTF-8" standalone="no"?>
<!DOCTYPE svg PUBLIC "-//W3C//DTD SVG 1.1//EN"
 "http://www.w3.org/Graphics/SVG/1.1/DTD/svg11.dtd">
<!-- Generated by graphviz version 5.0.1 (0)
 -->
<!-- Title: sisi4s::ParticleHoleCoulombVertexDecomposition::dryFit Pages: 1 -->
<svg width="756pt" height="110pt"
 viewBox="0.00 0.00 756.00 110.00" xmlns="http://www.w3.org/2000/svg" xmlns:xlink="http://www.w3.org/1999/xlink">
<g id="graph0" class="graph" transform="scale(1 1) rotate(0) translate(4 106)">
<title>sisi4s::ParticleHoleCoulombVertexDecomposition::dryFit</title>
<!-- Node1 -->
<g id="node1" class="node">
<title>Node1</title>
<g id="a_node1"><a xlink:title="Performs a dry run of one iteration in fitting the factor orbitals and the Coulomb factors according ...">
<polygon fill="#999999" stroke="#666666" points="155,-78 0,-78 0,-48 155,-48 155,-78"/>
<text text-anchor="start" x="8" y="-66" font-family="Helvetica,sans-Serif" font-size="10.00">sisi4s::ParticleHoleCoulomb</text>
<text text-anchor="middle" x="77.5" y="-55" font-family="Helvetica,sans-Serif" font-size="10.00">VertexDecomposition::dryFit</text>
</a>
</g>
</g>
<!-- Node2 -->
<g id="node2" class="node">
<title>Node2</title>
<g id="a_node2"><a xlink:href="namespacesisi4s.html#abfc549a8ae34264be9b654324c1ae036" target="_top" xlink:title="Performs a dry run of the calculation &#160;with minimal memory footprint.">
<polygon fill="white" stroke="#666666" points="359,-102 191,-102 191,-72 359,-72 359,-102"/>
<text text-anchor="start" x="199" y="-90" font-family="Helvetica,sans-Serif" font-size="10.00">sisi4s::dryComposeCanonical</text>
<text text-anchor="middle" x="275" y="-79" font-family="Helvetica,sans-Serif" font-size="10.00">PolyadicDecompositionTensors</text>
</a>
</g>
</g>
<!-- Node1&#45;&gt;Node2 -->
<g id="edge1" class="edge">
<title>Node1&#45;&gt;Node2</title>
<path fill="none" stroke="#63b8ff" d="M155.21,-72.42C163.59,-73.45 172.18,-74.5 180.74,-75.55"/>
<polygon fill="#63b8ff" stroke="#63b8ff" points="180.39,-79.03 190.74,-76.78 181.24,-72.09 180.39,-79.03"/>
</g>
<!-- Node3 -->
<g id="node3" class="node">
<title>Node3</title>
<g id="a_node3"><a xlink:href="namespacesisi4s.html#a7e043fcaaf8e99a86eb9920cf43cc228" target="_top" xlink:title=" ">
<polygon fill="white" stroke="#666666" points="357.5,-54 192.5,-54 192.5,-24 357.5,-24 357.5,-54"/>
<text text-anchor="start" x="200.5" y="-42" font-family="Helvetica,sans-Serif" font-size="10.00">sisi4s::dryFitRegularized</text>
<text text-anchor="middle" x="275" y="-31" font-family="Helvetica,sans-Serif" font-size="10.00">AlternatingLeastSquaresFactor</text>
</a>
</g>
</g>
<!-- Node1&#45;&gt;Node3 -->
<g id="edge2" class="edge">
<title>Node1&#45;&gt;Node3</title>
<path fill="none" stroke="#63b8ff" d="M155.21,-53.58C164.07,-52.5 173.17,-51.38 182.2,-50.27"/>
<polygon fill="#63b8ff" stroke="#63b8ff" points="182.86,-53.72 192.36,-49.02 182.01,-46.77 182.86,-53.72"/>
</g>
<!-- Node4 -->
<g id="node4" class="node">
<title>Node4</title>
<g id="a_node4"><a xlink:href="namespacesisi4s.html#a3c57f2c3b6b413ec8c8cbac80a1bbaca" target="_top" xlink:title="Performs a dry run of the calculation &#160;using a contraction order with minimal memory footprint.">
<polygon fill="white" stroke="#666666" points="573,-78 395,-78 395,-48 573,-48 573,-78"/>
<text text-anchor="start" x="403" y="-66" font-family="Helvetica,sans-Serif" font-size="10.00">sisi4s::dryContractWithCanonical</text>
<text text-anchor="middle" x="484" y="-55" font-family="Helvetica,sans-Serif" font-size="10.00">PolyadicDecompositionTensors</text>
</a>
</g>
</g>
<!-- Node3&#45;&gt;Node4 -->
<g id="edge3" class="edge">
<title>Node3&#45;&gt;Node4</title>
<path fill="none" stroke="#63b8ff" d="M357.51,-48.45C366.39,-49.48 375.5,-50.54 384.55,-51.59"/>
<polygon fill="#63b8ff" stroke="#63b8ff" points="384.4,-55.09 394.73,-52.77 385.2,-48.14 384.4,-55.09"/>
</g>
<!-- Node5 -->
<g id="node5" class="node">
<title>Node5</title>
<g id="a_node5"><a xlink:href="classsisi4s_1_1DryPseudoInverseSvd.html#afe11a03ae59bab6dc745c070a6cc9569" target="_top" xlink:title=" ">
<polygon fill="white" stroke="#666666" points="553.5,-30 414.5,-30 414.5,0 553.5,0 553.5,-30"/>
<text text-anchor="start" x="422.5" y="-18" font-family="Helvetica,sans-Serif" font-size="10.00">sisi4s::DryPseudoInverse</text>
<text text-anchor="middle" x="484" y="-7" font-family="Helvetica,sans-Serif" font-size="10.00">Svd::get</text>
</a>
</g>
</g>
<!-- Node3&#45;&gt;Node5 -->
<g id="edge4" class="edge">
<title>Node3&#45;&gt;Node5</title>
<path fill="none" stroke="#63b8ff" d="M357.51,-29.55C372.92,-27.76 389.01,-25.9 404.33,-24.12"/>
<polygon fill="#63b8ff" stroke="#63b8ff" points="404.73,-27.6 414.26,-22.97 403.93,-20.64 404.73,-27.6"/>
</g>
<!-- Node6 -->
<g id="node6" class="node">
<title>Node6</title>
<g id="a_node6"><a xlink:href="DiisMixer_8cxx.html#ae6495ef1bd76c6cd022e102143fbed2f" target="_top" xlink:title=" ">
<polygon fill="white" stroke="#666666" points="662,-24.5 609,-24.5 609,-5.5 662,-5.5 662,-24.5"/>
<text text-anchor="middle" x="635.5" y="-12.5" font-family="Helvetica,sans-Serif" font-size="10.00">inverse</text>
</a>
</g>
</g>
<!-- Node5&#45;&gt;Node6 -->
<g id="edge5" class="edge">
<title>Node5&#45;&gt;Node6</title>
<path fill="none" stroke="#63b8ff" d="M553.62,-15C569.13,-15 584.99,-15 598.51,-15"/>
<polygon fill="#63b8ff" stroke="#63b8ff" points="598.8,-18.5 608.8,-15 598.8,-11.5 598.8,-18.5"/>
</g>
<!-- Node7 -->
<g id="node7" class="node">
<title>Node7</title>
<g id="a_node7"><a xlink:href="Lapack_8hpp.html#aaacdf33c1d8272c5fd148b2e002c12a6" target="_top" xlink:title=" ">
<polygon fill="white" stroke="#666666" points="748,-24.5 698,-24.5 698,-5.5 748,-5.5 748,-24.5"/>
<text text-anchor="middle" x="723" y="-12.5" font-family="Helvetica,sans-Serif" font-size="10.00">dsysv_</text>
</a>
</g>
</g>
<!-- Node6&#45;&gt;Node7 -->
<g id="edge6" class="edge">
<title>Node6&#45;&gt;Node7</title>
<path fill="none" stroke="#63b8ff" d="M662.15,-15C670.2,-15 679.21,-15 687.74,-15"/>
<polygon fill="#63b8ff" stroke="#63b8ff" points="687.83,-18.5 697.83,-15 687.83,-11.5 687.83,-18.5"/>
</g>
</g>
</svg>
