<?xml version="1.0" encoding="UTF-8" standalone="no"?>
<!DOCTYPE svg PUBLIC "-//W3C//DTD SVG 1.1//EN"
 "http://www.w3.org/Graphics/SVG/1.1/DTD/svg11.dtd">
<!-- Generated by graphviz version 9.0.0 (0)
 -->
<!-- Title: sisi4s::DryTensor&lt; F &gt; Pages: 1 -->
<svg width="679pt" height="691pt"
 viewBox="0.00 0.00 679.00 690.50" xmlns="http://www.w3.org/2000/svg" xmlns:xlink="http://www.w3.org/1999/xlink">
<g id="graph0" class="graph" transform="scale(1 1) rotate(0) translate(4 686.5)">
<title>sisi4s::DryTensor&lt; F &gt;</title>
<!-- Node1 -->
<g id="Node000001" class="node">
<title>Node1</title>
<g id="a_Node000001"><a xlink:title=" ">
<polygon fill="#999999" stroke="none" points="397,-682.5 276,-682.5 276,-422.5 397,-422.5 397,-682.5"/>
<text text-anchor="start" x="281" y="-669" font-family="Helvetica,sans-Serif" font-size="10.00">sisi4s::DryTensor&lt; F &gt;</text>
<text text-anchor="start" x="280.88" y="-653" font-family="Helvetica,sans-Serif" font-size="10.00">+</text>
<text text-anchor="start" x="294" y="-653" font-family="Helvetica,sans-Serif" font-size="10.00">order</text>
<text text-anchor="start" x="280.88" y="-637" font-family="Helvetica,sans-Serif" font-size="10.00">+</text>
<text text-anchor="start" x="294" y="-637" font-family="Helvetica,sans-Serif" font-size="10.00">lens</text>
<text text-anchor="start" x="280.88" y="-621" font-family="Helvetica,sans-Serif" font-size="10.00">+</text>
<text text-anchor="start" x="294" y="-621" font-family="Helvetica,sans-Serif" font-size="10.00">syms</text>
<text text-anchor="start" x="280.88" y="-605" font-family="Helvetica,sans-Serif" font-size="10.00">+</text>
<text text-anchor="start" x="294" y="-605" font-family="Helvetica,sans-Serif" font-size="10.00">location</text>
<text text-anchor="start" x="280.88" y="-589" font-family="Helvetica,sans-Serif" font-size="10.00">+</text>
<text text-anchor="start" x="294" y="-589" font-family="Helvetica,sans-Serif" font-size="10.00">name</text>
<text text-anchor="start" x="280.88" y="-573" font-family="Helvetica,sans-Serif" font-size="10.00">#</text>
<text text-anchor="start" x="294" y="-573" font-family="Helvetica,sans-Serif" font-size="10.00">size</text>
<text text-anchor="start" x="280.88" y="-557" font-family="Helvetica,sans-Serif" font-size="10.00">+</text>
<text text-anchor="start" x="294" y="-557" font-family="Helvetica,sans-Serif" font-size="10.00">DryTensor()</text>
<text text-anchor="start" x="280.88" y="-541" font-family="Helvetica,sans-Serif" font-size="10.00">+</text>
<text text-anchor="start" x="294" y="-541" font-family="Helvetica,sans-Serif" font-size="10.00">DryTensor()</text>
<text text-anchor="start" x="280.88" y="-525" font-family="Helvetica,sans-Serif" font-size="10.00">+</text>
<text text-anchor="start" x="294" y="-525" font-family="Helvetica,sans-Serif" font-size="10.00">~DryTensor()</text>
<text text-anchor="start" x="280.88" y="-509" font-family="Helvetica,sans-Serif" font-size="10.00">+</text>
<text text-anchor="start" x="294" y="-509" font-family="Helvetica,sans-Serif" font-size="10.00">use()</text>
<text text-anchor="start" x="280.88" y="-493" font-family="Helvetica,sans-Serif" font-size="10.00">+</text>
<text text-anchor="start" x="294" y="-493" font-family="Helvetica,sans-Serif" font-size="10.00">getElementsCount()</text>
<text text-anchor="start" x="280.88" y="-477" font-family="Helvetica,sans-Serif" font-size="10.00">+</text>
<text text-anchor="start" x="294" y="-477" font-family="Helvetica,sans-Serif" font-size="10.00">set_name()</text>
<text text-anchor="start" x="280.88" y="-461" font-family="Helvetica,sans-Serif" font-size="10.00">+</text>
<text text-anchor="start" x="294" y="-461" font-family="Helvetica,sans-Serif" font-size="10.00">get_name()</text>
<text text-anchor="start" x="280.88" y="-445" font-family="Helvetica,sans-Serif" font-size="10.00">#</text>
<text text-anchor="start" x="294" y="-445" font-family="Helvetica,sans-Serif" font-size="10.00">allocate()</text>
<text text-anchor="start" x="280.88" y="-429" font-family="Helvetica,sans-Serif" font-size="10.00">#</text>
<text text-anchor="start" x="294" y="-429" font-family="Helvetica,sans-Serif" font-size="10.00">free()</text>
<polygon fill="#666666" stroke="#666666" points="276,-664.5 276,-664.5 397,-664.5 397,-664.5 276,-664.5"/>
<polygon fill="#666666" stroke="#666666" points="276,-568.5 276,-568.5 292,-568.5 292,-568.5 276,-568.5"/>
<polygon fill="#666666" stroke="#666666" points="292,-568.5 292,-568.5 397,-568.5 397,-568.5 292,-568.5"/>
<polygon fill="none" stroke="#666666" points="276,-422.5 276,-682.5 397,-682.5 397,-422.5 276,-422.5"/>
</a>
</g>
</g>
<!-- Node2 -->
<g id="Node000002" class="node">
<title>Node2</title>
<g id="a_Node000002"><a xlink:href="classsisi4s_1_1DryMatrix.html" target="_top" xlink:title=" ">
<polygon fill="white" stroke="none" points="121,-263.25 0,-263.25 0,-211.25 121,-211.25 121,-263.25"/>
<text text-anchor="start" x="5" y="-249.75" font-family="Helvetica,sans-Serif" font-size="10.00">sisi4s::DryMatrix&lt; F &gt;</text>
<text text-anchor="start" x="59" y="-233.75" font-family="Helvetica,sans-Serif" font-size="10.00"> </text>
<text text-anchor="start" x="14.88" y="-217.75" font-family="Helvetica,sans-Serif" font-size="10.00">+</text>
<text text-anchor="start" x="38" y="-217.75" font-family="Helvetica,sans-Serif" font-size="10.00">DryMatrix()</text>
<polygon fill="#666666" stroke="#666666" points="0,-245.25 0,-245.25 121,-245.25 121,-245.25 0,-245.25"/>
<polygon fill="#666666" stroke="#666666" points="0,-229.25 0,-229.25 121,-229.25 121,-229.25 0,-229.25"/>
<polygon fill="none" stroke="#666666" points="0,-211.25 0,-263.25 121,-263.25 121,-211.25 0,-211.25"/>
</a>
</g>
</g>
<!-- Node1&#45;&gt;Node2 -->
<g id="edge1_Node000001_Node000002" class="edge">
<title>Node1&#45;&gt;Node2</title>
<g id="a_edge1_Node000001_Node000002"><a xlink:title=" ">
<path fill="none" stroke="#63b8ff" d="M266.97,-502.85C223.58,-470 168.72,-423.64 129.5,-373.75 102.18,-338.99 81.07,-291.71 69.74,-263.17"/>
<polygon fill="none" stroke="#63b8ff" points="264.73,-505.55 274.83,-508.74 268.93,-499.95 264.73,-505.55"/>
</a>
</g>
</g>
<!-- Node4 -->
<g id="Node000004" class="node">
<title>Node4</title>
<g id="a_Node000004"><a xlink:href="classsisi4s_1_1DryScalar.html" target="_top" xlink:title=" ">
<polygon fill="white" stroke="none" points="258,-271.25 139,-271.25 139,-203.25 258,-203.25 258,-271.25"/>
<text text-anchor="start" x="143.75" y="-257.75" font-family="Helvetica,sans-Serif" font-size="10.00">sisi4s::DryScalar&lt; F &gt;</text>
<text text-anchor="start" x="197" y="-241.75" font-family="Helvetica,sans-Serif" font-size="10.00"> </text>
<text text-anchor="start" x="153.88" y="-225.75" font-family="Helvetica,sans-Serif" font-size="10.00">+</text>
<text text-anchor="start" x="177" y="-225.75" font-family="Helvetica,sans-Serif" font-size="10.00">DryScalar()</text>
<text text-anchor="start" x="153.88" y="-209.75" font-family="Helvetica,sans-Serif" font-size="10.00">+</text>
<text text-anchor="start" x="177" y="-209.75" font-family="Helvetica,sans-Serif" font-size="10.00">DryScalar()</text>
<polygon fill="#666666" stroke="#666666" points="139,-253.25 139,-253.25 258,-253.25 258,-253.25 139,-253.25"/>
<polygon fill="#666666" stroke="#666666" points="139,-237.25 139,-237.25 258,-237.25 258,-237.25 139,-237.25"/>
<polygon fill="none" stroke="#666666" points="139,-203.25 139,-271.25 258,-271.25 258,-203.25 139,-203.25"/>
</a>
</g>
</g>
<!-- Node1&#45;&gt;Node4 -->
<g id="edge3_Node000001_Node000004" class="edge">
<title>Node1&#45;&gt;Node4</title>
<g id="a_edge3_Node000001_Node000004"><a xlink:title=" ">
<path fill="none" stroke="#63b8ff" d="M275.18,-412.31C252.12,-359.96 227.9,-304.98 213,-271.16"/>
<polygon fill="none" stroke="#63b8ff" points="271.93,-413.61 279.16,-421.35 278.33,-410.79 271.93,-413.61"/>
</a>
</g>
</g>
<!-- Node5 -->
<g id="Node000005" class="node">
<title>Node5</title>
<g id="a_Node000005"><a xlink:href="classsisi4s_1_1DryVector.html" target="_top" xlink:title=" ">
<polygon fill="white" stroke="none" points="396.5,-263.25 276.5,-263.25 276.5,-211.25 396.5,-211.25 396.5,-263.25"/>
<text text-anchor="start" x="281.38" y="-249.75" font-family="Helvetica,sans-Serif" font-size="10.00">sisi4s::DryVector&lt; F &gt;</text>
<text text-anchor="start" x="335" y="-233.75" font-family="Helvetica,sans-Serif" font-size="10.00"> </text>
<text text-anchor="start" x="291.38" y="-217.75" font-family="Helvetica,sans-Serif" font-size="10.00">+</text>
<text text-anchor="start" x="314.5" y="-217.75" font-family="Helvetica,sans-Serif" font-size="10.00">DryVector()</text>
<polygon fill="#666666" stroke="#666666" points="276.5,-245.25 276.5,-245.25 396.5,-245.25 396.5,-245.25 276.5,-245.25"/>
<polygon fill="#666666" stroke="#666666" points="276.5,-229.25 276.5,-229.25 396.5,-229.25 396.5,-229.25 276.5,-229.25"/>
<polygon fill="none" stroke="#666666" points="276.5,-211.25 276.5,-263.25 396.5,-263.25 396.5,-211.25 276.5,-211.25"/>
</a>
</g>
</g>
<!-- Node1&#45;&gt;Node5 -->
<g id="edge4_Node000001_Node000005" class="edge">
<title>Node1&#45;&gt;Node5</title>
<g id="a_edge4_Node000001_Node000005"><a xlink:title=" ">
<path fill="none" stroke="#63b8ff" d="M336.5,-411.48C336.5,-354.95 336.5,-295.51 336.5,-263.05"/>
<polygon fill="none" stroke="#63b8ff" points="333,-411.22 336.5,-421.22 340,-411.22 333,-411.22"/>
</a>
</g>
</g>
<!-- Node6 -->
<g id="Node000006" class="node">
<title>Node6</title>
<g id="a_Node000006"><a xlink:href="classsisi4s_1_1DryTensor.html" target="_top" xlink:title=" ">
<polygon fill="white" stroke="none" points="532,-373.75 415,-373.75 415,-100.75 532,-100.75 532,-373.75"/>
<text text-anchor="start" x="428.12" y="-360.25" font-family="Helvetica,sans-Serif" font-size="10.00">sisi4s::DryTensor&lt;</text>
<text text-anchor="start" x="449.88" y="-347.5" font-family="Helvetica,sans-Serif" font-size="10.00"> double &gt;</text>
<text text-anchor="start" x="418.88" y="-331.25" font-family="Helvetica,sans-Serif" font-size="10.00">+</text>
<text text-anchor="start" x="431" y="-331.25" font-family="Helvetica,sans-Serif" font-size="10.00">order</text>
<text text-anchor="start" x="418.88" y="-315.25" font-family="Helvetica,sans-Serif" font-size="10.00">+</text>
<text text-anchor="start" x="431" y="-315.25" font-family="Helvetica,sans-Serif" font-size="10.00">lens</text>
<text text-anchor="start" x="418.88" y="-299.25" font-family="Helvetica,sans-Serif" font-size="10.00">+</text>
<text text-anchor="start" x="431" y="-299.25" font-family="Helvetica,sans-Serif" font-size="10.00">syms</text>
<text text-anchor="start" x="418.88" y="-283.25" font-family="Helvetica,sans-Serif" font-size="10.00">+</text>
<text text-anchor="start" x="431" y="-283.25" font-family="Helvetica,sans-Serif" font-size="10.00">location</text>
<text text-anchor="start" x="418.88" y="-267.25" font-family="Helvetica,sans-Serif" font-size="10.00">+</text>
<text text-anchor="start" x="431" y="-267.25" font-family="Helvetica,sans-Serif" font-size="10.00">name</text>
<text text-anchor="start" x="418.88" y="-251.25" font-family="Helvetica,sans-Serif" font-size="10.00">#</text>
<text text-anchor="start" x="431" y="-251.25" font-family="Helvetica,sans-Serif" font-size="10.00">size</text>
<text text-anchor="start" x="418.88" y="-235.25" font-family="Helvetica,sans-Serif" font-size="10.00">+</text>
<text text-anchor="start" x="431" y="-235.25" font-family="Helvetica,sans-Serif" font-size="10.00">DryTensor()</text>
<text text-anchor="start" x="418.88" y="-219.25" font-family="Helvetica,sans-Serif" font-size="10.00">+</text>
<text text-anchor="start" x="431" y="-219.25" font-family="Helvetica,sans-Serif" font-size="10.00">DryTensor()</text>
<text text-anchor="start" x="418.88" y="-203.25" font-family="Helvetica,sans-Serif" font-size="10.00">+</text>
<text text-anchor="start" x="431" y="-203.25" font-family="Helvetica,sans-Serif" font-size="10.00">~DryTensor()</text>
<text text-anchor="start" x="418.88" y="-187.25" font-family="Helvetica,sans-Serif" font-size="10.00">+</text>
<text text-anchor="start" x="431" y="-187.25" font-family="Helvetica,sans-Serif" font-size="10.00">use()</text>
<text text-anchor="start" x="418.88" y="-171.25" font-family="Helvetica,sans-Serif" font-size="10.00">+</text>
<text text-anchor="start" x="431" y="-171.25" font-family="Helvetica,sans-Serif" font-size="10.00">getElementsCount()</text>
<text text-anchor="start" x="418.88" y="-155.25" font-family="Helvetica,sans-Serif" font-size="10.00">+</text>
<text text-anchor="start" x="431" y="-155.25" font-family="Helvetica,sans-Serif" font-size="10.00">set_name()</text>
<text text-anchor="start" x="418.88" y="-139.25" font-family="Helvetica,sans-Serif" font-size="10.00">+</text>
<text text-anchor="start" x="431" y="-139.25" font-family="Helvetica,sans-Serif" font-size="10.00">get_name()</text>
<text text-anchor="start" x="418.88" y="-123.25" font-family="Helvetica,sans-Serif" font-size="10.00">#</text>
<text text-anchor="start" x="431" y="-123.25" font-family="Helvetica,sans-Serif" font-size="10.00">allocate()</text>
<text text-anchor="start" x="418.88" y="-107.25" font-family="Helvetica,sans-Serif" font-size="10.00">#</text>
<text text-anchor="start" x="431" y="-107.25" font-family="Helvetica,sans-Serif" font-size="10.00">free()</text>
<polygon fill="#666666" stroke="#666666" points="415,-342.75 415,-342.75 532,-342.75 532,-342.75 415,-342.75"/>
<polygon fill="#666666" stroke="#666666" points="415,-246.75 415,-246.75 429,-246.75 429,-246.75 415,-246.75"/>
<polygon fill="#666666" stroke="#666666" points="429,-246.75 429,-246.75 532,-246.75 532,-246.75 429,-246.75"/>
<polygon fill="none" stroke="#666666" points="415,-100.75 415,-373.75 532,-373.75 532,-100.75 415,-100.75"/>
</a>
</g>
</g>
<!-- Node1&#45;&gt;Node6 -->
<g id="edge5_Node000001_Node000006" class="edge">
<title>Node1&#45;&gt;Node6</title>
<g id="a_edge5_Node000001_Node000006"><a xlink:title=" ">
<path fill="none" stroke="orange" d="M397.31,-412.45C403.21,-398.96 409.19,-385.28 415.07,-371.84"/>
<polygon fill="orange" stroke="orange" points="394.22,-410.78 393.42,-421.35 400.64,-413.59 394.22,-410.78"/>
</a>
</g>
<text text-anchor="middle" x="434.75" y="-395" font-family="Helvetica,sans-Serif" font-size="10.00" fill="grey"> &lt; double &gt;</text>
</g>
<!-- Node7 -->
<g id="Node000007" class="node">
<title>Node7</title>
<g id="a_Node000007"><a xlink:href="classsisi4s_1_1DryTensor.html" target="_top" xlink:title=" ">
<polygon fill="white" stroke="none" points="671,-367.25 550,-367.25 550,-107.25 671,-107.25 671,-367.25"/>
<text text-anchor="start" x="555" y="-353.75" font-family="Helvetica,sans-Serif" font-size="10.00">sisi4s::DryTensor&lt; F &gt;</text>
<text text-anchor="start" x="554.88" y="-337.75" font-family="Helvetica,sans-Serif" font-size="10.00">+</text>
<text text-anchor="start" x="568" y="-337.75" font-family="Helvetica,sans-Serif" font-size="10.00">order</text>
<text text-anchor="start" x="554.88" y="-321.75" font-family="Helvetica,sans-Serif" font-size="10.00">+</text>
<text text-anchor="start" x="568" y="-321.75" font-family="Helvetica,sans-Serif" font-size="10.00">lens</text>
<text text-anchor="start" x="554.88" y="-305.75" font-family="Helvetica,sans-Serif" font-size="10.00">+</text>
<text text-anchor="start" x="568" y="-305.75" font-family="Helvetica,sans-Serif" font-size="10.00">syms</text>
<text text-anchor="start" x="554.88" y="-289.75" font-family="Helvetica,sans-Serif" font-size="10.00">+</text>
<text text-anchor="start" x="568" y="-289.75" font-family="Helvetica,sans-Serif" font-size="10.00">location</text>
<text text-anchor="start" x="554.88" y="-273.75" font-family="Helvetica,sans-Serif" font-size="10.00">+</text>
<text text-anchor="start" x="568" y="-273.75" font-family="Helvetica,sans-Serif" font-size="10.00">name</text>
<text text-anchor="start" x="554.88" y="-257.75" font-family="Helvetica,sans-Serif" font-size="10.00">#</text>
<text text-anchor="start" x="568" y="-257.75" font-family="Helvetica,sans-Serif" font-size="10.00">size</text>
<text text-anchor="start" x="554.88" y="-241.75" font-family="Helvetica,sans-Serif" font-size="10.00">+</text>
<text text-anchor="start" x="568" y="-241.75" font-family="Helvetica,sans-Serif" font-size="10.00">DryTensor()</text>
<text text-anchor="start" x="554.88" y="-225.75" font-family="Helvetica,sans-Serif" font-size="10.00">+</text>
<text text-anchor="start" x="568" y="-225.75" font-family="Helvetica,sans-Serif" font-size="10.00">DryTensor()</text>
<text text-anchor="start" x="554.88" y="-209.75" font-family="Helvetica,sans-Serif" font-size="10.00">+</text>
<text text-anchor="start" x="568" y="-209.75" font-family="Helvetica,sans-Serif" font-size="10.00">~DryTensor()</text>
<text text-anchor="start" x="554.88" y="-193.75" font-family="Helvetica,sans-Serif" font-size="10.00">+</text>
<text text-anchor="start" x="568" y="-193.75" font-family="Helvetica,sans-Serif" font-size="10.00">use()</text>
<text text-anchor="start" x="554.88" y="-177.75" font-family="Helvetica,sans-Serif" font-size="10.00">+</text>
<text text-anchor="start" x="568" y="-177.75" font-family="Helvetica,sans-Serif" font-size="10.00">getElementsCount()</text>
<text text-anchor="start" x="554.88" y="-161.75" font-family="Helvetica,sans-Serif" font-size="10.00">+</text>
<text text-anchor="start" x="568" y="-161.75" font-family="Helvetica,sans-Serif" font-size="10.00">set_name()</text>
<text text-anchor="start" x="554.88" y="-145.75" font-family="Helvetica,sans-Serif" font-size="10.00">+</text>
<text text-anchor="start" x="568" y="-145.75" font-family="Helvetica,sans-Serif" font-size="10.00">get_name()</text>
<text text-anchor="start" x="554.88" y="-129.75" font-family="Helvetica,sans-Serif" font-size="10.00">#</text>
<text text-anchor="start" x="568" y="-129.75" font-family="Helvetica,sans-Serif" font-size="10.00">allocate()</text>
<text text-anchor="start" x="554.88" y="-113.75" font-family="Helvetica,sans-Serif" font-size="10.00">#</text>
<text text-anchor="start" x="568" y="-113.75" font-family="Helvetica,sans-Serif" font-size="10.00">free()</text>
<polygon fill="#666666" stroke="#666666" points="550,-349.25 550,-349.25 671,-349.25 671,-349.25 550,-349.25"/>
<polygon fill="#666666" stroke="#666666" points="550,-253.25 550,-253.25 566,-253.25 566,-253.25 550,-253.25"/>
<polygon fill="#666666" stroke="#666666" points="566,-253.25 566,-253.25 671,-253.25 671,-253.25 566,-253.25"/>
<polygon fill="none" stroke="#666666" points="550,-107.25 550,-367.25 671,-367.25 671,-107.25 550,-107.25"/>
</a>
</g>
</g>
<!-- Node1&#45;&gt;Node7 -->
<g id="edge6_Node000001_Node000007" class="edge">
<title>Node1&#45;&gt;Node7</title>
<g id="a_edge6_Node000001_Node000007"><a xlink:title=" ">
<path fill="none" stroke="orange" d="M405.78,-502.38C448.67,-469.5 502.76,-423.29 541.5,-373.75 544.43,-370.01 547.28,-366.12 550.07,-362.13"/>
<polygon fill="orange" stroke="orange" points="403.86,-499.44 398.01,-508.28 408.09,-505.02 403.86,-499.44"/>
</a>
</g>
<text text-anchor="middle" x="538.25" y="-395" font-family="Helvetica,sans-Serif" font-size="10.00" fill="grey"> &lt; F &gt;</text>
</g>
<!-- Node3 -->
<g id="Node000003" class="node">
<title>Node3</title>
<g id="a_Node000003"><a xlink:href="classsisi4s_1_1DryMatrix.html" target="_top" xlink:title=" ">
<polygon fill="white" stroke="none" points="395,-52 274,-52 274,0 395,0 395,-52"/>
<text text-anchor="start" x="279" y="-38.5" font-family="Helvetica,sans-Serif" font-size="10.00">sisi4s::DryMatrix&lt; F &gt;</text>
<text text-anchor="start" x="333" y="-22.5" font-family="Helvetica,sans-Serif" font-size="10.00"> </text>
<text text-anchor="start" x="288.88" y="-6.5" font-family="Helvetica,sans-Serif" font-size="10.00">+</text>
<text text-anchor="start" x="312" y="-6.5" font-family="Helvetica,sans-Serif" font-size="10.00">DryMatrix()</text>
<polygon fill="#666666" stroke="#666666" points="274,-34 274,-34 395,-34 395,-34 274,-34"/>
<polygon fill="#666666" stroke="#666666" points="274,-18 274,-18 395,-18 395,-18 274,-18"/>
<polygon fill="none" stroke="#666666" points="274,0 274,-52 395,-52 395,0 274,0"/>
</a>
</g>
</g>
<!-- Node2&#45;&gt;Node3 -->
<g id="edge2_Node000002_Node000003" class="edge">
<title>Node2&#45;&gt;Node3</title>
<g id="a_edge2_Node000002_Node000003"><a xlink:title=" ">
<path fill="none" stroke="orange" d="M70.36,-200.91C80.54,-170.5 99.25,-127.42 129.5,-100.75 170.21,-64.86 229.7,-46.03 274.11,-36.41"/>
<polygon fill="orange" stroke="orange" points="67.15,-199.46 67.45,-210.05 73.82,-201.58 67.15,-199.46"/>
</a>
</g>
<text text-anchor="middle" x="189.25" y="-73.25" font-family="Helvetica,sans-Serif" font-size="10.00" fill="grey"> &lt; F &gt;</text>
</g>
<!-- Node7&#45;&gt;Node3 -->
<g id="edge7_Node000007_Node000003" class="edge">
<title>Node7&#45;&gt;Node3</title>
<g id="a_edge7_Node000007_Node000003"><a xlink:title=" ">
<path fill="none" stroke="#63b8ff" d="M542.06,-101.24C541.87,-101.08 541.69,-100.91 541.5,-100.75 500.09,-64.36 439.48,-45.55 394.53,-36.07"/>
<polygon fill="none" stroke="#63b8ff" points="539.39,-103.53 549,-107.99 544.27,-98.51 539.39,-103.53"/>
</a>
</g>
</g>
</g>
</svg>
