<?xml version="1.0" encoding="UTF-8" standalone="no"?>
<!DOCTYPE svg PUBLIC "-//W3C//DTD SVG 1.1//EN"
 "http://www.w3.org/Graphics/SVG/1.1/DTD/svg11.dtd">
<!-- Generated by graphviz version 5.0.1 (0)
 -->
<!-- Title: CLI::App::_process_requirements Pages: 1 -->
<svg width="451pt" height="328pt"
 viewBox="0.00 0.00 451.00 327.50" xmlns="http://www.w3.org/2000/svg" xmlns:xlink="http://www.w3.org/1999/xlink">
<g id="graph0" class="graph" transform="scale(1 1) rotate(0) translate(4 323.5)">
<title>CLI::App::_process_requirements</title>
<!-- Node1 -->
<g id="node1" class="node">
<title>Node1</title>
<g id="a_node1"><a xlink:title="Verify required options and cross requirements. Subcommands too (only if selected).">
<polygon fill="#bfbfbf" stroke="black" points="0,-161.5 0,-191.5 105,-191.5 105,-161.5 0,-161.5"/>
<text text-anchor="start" x="8" y="-179.5" font-family="Helvetica,sans-Serif" font-size="10.00">CLI::App::_process</text>
<text text-anchor="middle" x="52.5" y="-168.5" font-family="Helvetica,sans-Serif" font-size="10.00">_requirements</text>
</a>
</g>
</g>
<!-- Node2 -->
<g id="node2" class="node">
<title>Node2</title>
<g id="a_node2"><a xlink:href="classCLI_1_1Option.html#a154543609c45d9c59c69991a08ca272b" target="_top" xlink:title="Count the total number of times an option was passed.">
<polygon fill="none" stroke="black" points="165.5,-300 165.5,-319 268.5,-319 268.5,-300 165.5,-300"/>
<text text-anchor="middle" x="217" y="-307" font-family="Helvetica,sans-Serif" font-size="10.00">CLI::Option::count</text>
</a>
</g>
</g>
<!-- Node1&#45;&gt;Node2 -->
<g id="edge1" class="edge">
<title>Node1&#45;&gt;Node2</title>
<path fill="none" stroke="midnightblue" d="M60.85,-191.69C73.61,-216.37 102.24,-264.99 141,-290.5 145.56,-293.5 150.56,-296.03 155.75,-298.15"/>
<polygon fill="midnightblue" stroke="midnightblue" points="154.63,-301.47 165.23,-301.57 157.01,-294.89 154.63,-301.47"/>
</g>
<!-- Node3 -->
<g id="node3" class="node">
<title>Node3</title>
<g id="a_node3"><a xlink:href="classCLI_1_1App.html#aa75309f557d6cdba74b299e4f9e7cfbe" target="_top" xlink:title="Get a display name for an app.">
<polygon fill="none" stroke="black" points="141,-262 141,-281 293,-281 293,-262 141,-262"/>
<text text-anchor="middle" x="217" y="-269" font-family="Helvetica,sans-Serif" font-size="10.00">CLI::App::get_display_name</text>
</a>
</g>
</g>
<!-- Node1&#45;&gt;Node3 -->
<g id="edge2" class="edge">
<title>Node1&#45;&gt;Node3</title>
<path fill="none" stroke="midnightblue" d="M66.79,-191.72C82.72,-209 111.04,-236.84 141,-252.5 145.5,-254.85 150.3,-256.92 155.22,-258.74"/>
<polygon fill="midnightblue" stroke="midnightblue" points="154.19,-262.09 164.78,-261.95 156.41,-255.45 154.19,-262.09"/>
</g>
<!-- Node4 -->
<g id="node4" class="node">
<title>Node4</title>
<g id="a_node4"><a xlink:href="classCLI_1_1App.html#adeac41bd40859dfbff9817244c09c989" target="_top" xlink:title="Get the name of the current app.">
<polygon fill="none" stroke="black" points="161.5,-224 161.5,-243 272.5,-243 272.5,-224 161.5,-224"/>
<text text-anchor="middle" x="217" y="-231" font-family="Helvetica,sans-Serif" font-size="10.00">CLI::App::get_name</text>
</a>
</g>
</g>
<!-- Node1&#45;&gt;Node4 -->
<g id="edge3" class="edge">
<title>Node1&#45;&gt;Node4</title>
<path fill="none" stroke="midnightblue" d="M92.11,-191.55C107.29,-197.33 124.9,-203.89 141,-209.5 151.97,-213.32 163.92,-217.25 175,-220.8"/>
<polygon fill="midnightblue" stroke="midnightblue" points="174.28,-224.24 184.87,-223.93 176.39,-217.57 174.28,-224.24"/>
</g>
<!-- Node5 -->
<g id="node5" class="node">
<title>Node5</title>
<g id="a_node5"><a xlink:href="classCLI_1_1Option.html#ab84751fbf9037efaed5b64fed17fe57f" target="_top" xlink:title="Gets a comma separated list of names. Will include / prefer the positional name if positional is true...">
<polygon fill="none" stroke="black" points="154.5,-148 154.5,-167 279.5,-167 279.5,-148 154.5,-148"/>
<text text-anchor="middle" x="217" y="-155" font-family="Helvetica,sans-Serif" font-size="10.00">CLI::Option::get_name</text>
</a>
</g>
</g>
<!-- Node1&#45;&gt;Node5 -->
<g id="edge4" class="edge">
<title>Node1&#45;&gt;Node5</title>
<path fill="none" stroke="midnightblue" d="M105.36,-170.44C117.8,-168.98 131.29,-167.4 144.45,-165.87"/>
<polygon fill="midnightblue" stroke="midnightblue" points="144.89,-169.34 154.41,-164.7 144.07,-162.39 144.89,-169.34"/>
</g>
<!-- Node6 -->
<g id="node6" class="node">
<title>Node6</title>
<g id="a_node6"><a xlink:href="namespaceCLI_1_1detail.html#ab351f13ec104e2cba19ec6baf4a552f6" target="_top" xlink:title="Simple function to join a string.">
<polygon fill="none" stroke="black" points="341.5,-167 341.5,-186 430.5,-186 430.5,-167 341.5,-167"/>
<text text-anchor="middle" x="386" y="-174" font-family="Helvetica,sans-Serif" font-size="10.00">CLI::detail::join</text>
</a>
</g>
</g>
<!-- Node1&#45;&gt;Node6 -->
<g id="edge7" class="edge">
<title>Node1&#45;&gt;Node6</title>
<path fill="none" stroke="midnightblue" d="M105.3,-176.5C166.88,-176.5 269.13,-176.5 331.47,-176.5"/>
<polygon fill="midnightblue" stroke="midnightblue" points="331.49,-180 341.49,-176.5 331.49,-173 331.49,-180"/>
</g>
<!-- Node7 -->
<g id="node7" class="node">
<title>Node7</title>
<g id="a_node7"><a xlink:href="classCLI_1_1OptionBase.html#aa902dee6da6d7f5b083b1c7d5f9c1308" target="_top" xlink:title="True if this is a required option.">
<polygon fill="none" stroke="black" points="159,-98.5 159,-128.5 275,-128.5 275,-98.5 159,-98.5"/>
<text text-anchor="start" x="167" y="-116.5" font-family="Helvetica,sans-Serif" font-size="10.00">CLI::OptionBase::get</text>
<text text-anchor="middle" x="217" y="-105.5" font-family="Helvetica,sans-Serif" font-size="10.00">_required</text>
</a>
</g>
</g>
<!-- Node1&#45;&gt;Node7 -->
<g id="edge6" class="edge">
<title>Node1&#45;&gt;Node7</title>
<path fill="none" stroke="midnightblue" d="M86.46,-161.37C102.73,-154.11 122.75,-145.49 141,-138.5 146.8,-136.28 152.9,-134.06 159.01,-131.91"/>
<polygon fill="midnightblue" stroke="midnightblue" points="160.26,-135.18 168.57,-128.61 157.97,-128.57 160.26,-135.18"/>
</g>
<!-- Node8 -->
<g id="node8" class="node">
<title>Node8</title>
<g id="a_node8"><a xlink:href="classCLI_1_1RequiredError.html#a1283b251494d088d860a89bc2a8bce7f" target="_top" xlink:title=" ">
<polygon fill="none" stroke="black" points="165,-49.5 165,-79.5 269,-79.5 269,-49.5 165,-49.5"/>
<text text-anchor="start" x="173" y="-67.5" font-family="Helvetica,sans-Serif" font-size="10.00">CLI::RequiredError</text>
<text text-anchor="middle" x="217" y="-56.5" font-family="Helvetica,sans-Serif" font-size="10.00">::Option</text>
</a>
</g>
</g>
<!-- Node1&#45;&gt;Node8 -->
<g id="edge8" class="edge">
<title>Node1&#45;&gt;Node8</title>
<path fill="none" stroke="midnightblue" d="M64.91,-161.46C80.25,-142.22 109.26,-109.05 141,-89.5 145.6,-86.67 150.56,-84.11 155.66,-81.82"/>
<polygon fill="midnightblue" stroke="midnightblue" points="157.05,-85.03 164.94,-77.97 154.37,-78.57 157.05,-85.03"/>
</g>
<!-- Node11 -->
<g id="node11" class="node">
<title>Node11</title>
<g id="a_node11"><a xlink:href="classCLI_1_1RequiredError.html#af31b1d4286ced90b386783e13f8421b2" target="_top" xlink:title=" ">
<polygon fill="none" stroke="black" points="165,-0.5 165,-30.5 269,-30.5 269,-0.5 165,-0.5"/>
<text text-anchor="start" x="173" y="-18.5" font-family="Helvetica,sans-Serif" font-size="10.00">CLI::RequiredError</text>
<text text-anchor="middle" x="217" y="-7.5" font-family="Helvetica,sans-Serif" font-size="10.00">::Subcommand</text>
</a>
</g>
</g>
<!-- Node1&#45;&gt;Node11 -->
<g id="edge11" class="edge">
<title>Node1&#45;&gt;Node11</title>
<path fill="none" stroke="midnightblue" d="M59.12,-161.29C70.31,-133.09 98.06,-72.55 141,-39.5 145.4,-36.11 150.29,-33.2 155.41,-30.68"/>
<polygon fill="midnightblue" stroke="midnightblue" points="157.04,-33.79 164.81,-26.59 154.24,-27.38 157.04,-33.79"/>
</g>
<!-- Node5&#45;&gt;Node6 -->
<g id="edge5" class="edge">
<title>Node5&#45;&gt;Node6</title>
<path fill="none" stroke="midnightblue" d="M279.71,-164.52C296.64,-166.45 314.85,-168.52 331.29,-170.39"/>
<polygon fill="midnightblue" stroke="midnightblue" points="330.94,-173.87 341.27,-171.52 331.73,-166.92 330.94,-173.87"/>
</g>
<!-- Node9 -->
<g id="node9" class="node">
<title>Node9</title>
<g id="a_node9"><a xlink:href="classCLI_1_1RequiredError.html#aa24b31317e4670f0eacd25cde2acbb35" target="_top" xlink:title=" ">
<polygon fill="none" stroke="black" points="334,-2.5 334,-32.5 438,-32.5 438,-2.5 334,-2.5"/>
<text text-anchor="start" x="342" y="-20.5" font-family="Helvetica,sans-Serif" font-size="10.00">CLI::RequiredError</text>
<text text-anchor="middle" x="386" y="-9.5" font-family="Helvetica,sans-Serif" font-size="10.00">::RequiredError</text>
</a>
</g>
</g>
<!-- Node8&#45;&gt;Node9 -->
<g id="edge9" class="edge">
<title>Node8&#45;&gt;Node9</title>
<path fill="none" stroke="midnightblue" d="M269.01,-50.14C286.33,-45.27 305.86,-39.77 323.89,-34.7"/>
<polygon fill="midnightblue" stroke="midnightblue" points="325.05,-38.01 333.72,-31.93 323.15,-31.27 325.05,-38.01"/>
</g>
<!-- Node10 -->
<g id="node10" class="node">
<title>Node10</title>
<g id="a_node10"><a xlink:href="namespaceCLI_1_1detail.html#a9c070858740ce15aaecb1c5f04e21a09" target="_top" xlink:title="Convert an object to a string (streaming must be supported for that type)">
<polygon fill="none" stroke="black" points="329,-53 329,-72 443,-72 443,-53 329,-53"/>
<text text-anchor="middle" x="386" y="-60" font-family="Helvetica,sans-Serif" font-size="10.00">CLI::detail::to_string</text>
</a>
</g>
</g>
<!-- Node8&#45;&gt;Node10 -->
<g id="edge10" class="edge">
<title>Node8&#45;&gt;Node10</title>
<path fill="none" stroke="midnightblue" d="M269.01,-63.89C284.66,-63.7 302.11,-63.49 318.63,-63.29"/>
<polygon fill="midnightblue" stroke="midnightblue" points="318.81,-66.79 328.77,-63.17 318.73,-59.79 318.81,-66.79"/>
</g>
<!-- Node11&#45;&gt;Node9 -->
<g id="edge12" class="edge">
<title>Node11&#45;&gt;Node9</title>
<path fill="none" stroke="midnightblue" d="M269.01,-16.11C286.25,-16.32 305.68,-16.55 323.64,-16.77"/>
<polygon fill="midnightblue" stroke="midnightblue" points="323.68,-20.27 333.72,-16.89 323.77,-13.27 323.68,-20.27"/>
</g>
<!-- Node11&#45;&gt;Node10 -->
<g id="edge13" class="edge">
<title>Node11&#45;&gt;Node10</title>
<path fill="none" stroke="midnightblue" d="M269.01,-29.86C292.14,-36.37 319.2,-43.98 341.37,-50.22"/>
<polygon fill="midnightblue" stroke="midnightblue" points="340.6,-53.64 351.17,-52.98 342.5,-46.9 340.6,-53.64"/>
</g>
</g>
</svg>
