<?xml version="1.0" encoding="UTF-8" standalone="no"?>
<!DOCTYPE svg PUBLIC "-//W3C//DTD SVG 1.1//EN"
 "http://www.w3.org/Graphics/SVG/1.1/DTD/svg11.dtd">
<!-- Generated by graphviz version 7.0.0 (0)
 -->
<!-- Title: sisi4s::GenerateRandomComplexMatrix Pages: 1 -->
<svg width="488pt" height="578pt"
 viewBox="0.00 0.00 488.00 578.00" xmlns="http://www.w3.org/2000/svg" xmlns:xlink="http://www.w3.org/1999/xlink">
<g id="graph0" class="graph" transform="scale(1 1) rotate(0) translate(4 574)">
<title>sisi4s::GenerateRandomComplexMatrix</title>
<!-- Node1 -->
<g id="node1" class="node">
<title>Node1</title>
<g id="a_node1"><a xlink:title=" ">
<polygon fill="#999999" stroke="#666666" points="208,-96 4,-96 4,0 208,0 208,-96"/>
<text text-anchor="start" x="12" y="-84" font-family="Helvetica,sans-Serif" font-size="10.00">{sisi4s::GenerateRandomComplex</text>
<text text-anchor="middle" x="106" y="-73" font-family="Helvetica,sans-Serif" font-size="10.00">Matrix</text>
<text text-anchor="start" x="12" y="-62" font-family="Helvetica,sans-Serif" font-size="10.00">||+ getName()</text>
<text text-anchor="start" x="12" y="-51" font-family="Helvetica,sans-Serif" font-size="10.00">+ GenerateRandomComplexMatrix()</text>
<text text-anchor="start" x="12" y="-40" font-family="Helvetica,sans-Serif" font-size="10.00">+ ~GenerateRandomComplexMatrix()</text>
<text text-anchor="start" x="12" y="-29" font-family="Helvetica,sans-Serif" font-size="10.00">+ run()</text>
<text text-anchor="start" x="12" y="-18" font-family="Helvetica,sans-Serif" font-size="10.00">+ create()</text>
<text text-anchor="middle" x="106" y="-7" font-family="Helvetica,sans-Serif" font-size="10.00">}</text>
</a>
</g>
</g>
<!-- Node2 -->
<g id="node2" class="node">
<title>Node2</title>
<g id="a_node2"><a xlink:href="classsisi4s_1_1Algorithm.html" target="_top" xlink:title=" ">
<polygon fill="white" stroke="#666666" points="180,-349 0,-349 0,-143 180,-143 180,-349"/>
<text text-anchor="middle" x="90" y="-337" font-family="Helvetica,sans-Serif" font-size="10.00">{sisi4s::Algorithm</text>
<text text-anchor="start" x="8" y="-326" font-family="Helvetica,sans-Serif" font-size="10.00">|# arguments</text>
<text text-anchor="start" x="8" y="-315" font-family="Helvetica,sans-Serif" font-size="10.00">|+ Algorithm()</text>
<text text-anchor="start" x="8" y="-304" font-family="Helvetica,sans-Serif" font-size="10.00">+ ~Algorithm()</text>
<text text-anchor="start" x="8" y="-293" font-family="Helvetica,sans-Serif" font-size="10.00">+ getName()</text>
<text text-anchor="start" x="8" y="-282" font-family="Helvetica,sans-Serif" font-size="10.00">+ run()</text>
<text text-anchor="start" x="8" y="-271" font-family="Helvetica,sans-Serif" font-size="10.00">+ dryRun()</text>
<text text-anchor="start" x="8" y="-260" font-family="Helvetica,sans-Serif" font-size="10.00">+ isArgumentGiven()</text>
<text text-anchor="start" x="8" y="-249" font-family="Helvetica,sans-Serif" font-size="10.00">+ getTextArgument()</text>
<text text-anchor="start" x="8" y="-238" font-family="Helvetica,sans-Serif" font-size="10.00">+ getTextArgument()</text>
<text text-anchor="start" x="8" y="-227" font-family="Helvetica,sans-Serif" font-size="10.00">+ getBooleanArgument()</text>
<text text-anchor="start" x="8" y="-216" font-family="Helvetica,sans-Serif" font-size="10.00">+ getBooleanArgument()</text>
<text text-anchor="start" x="8" y="-205" font-family="Helvetica,sans-Serif" font-size="10.00">and 12 more...</text>
<text text-anchor="start" x="8" y="-194" font-family="Helvetica,sans-Serif" font-size="10.00"># getRealArgumentFromInteger()</text>
<text text-anchor="start" x="8" y="-183" font-family="Helvetica,sans-Serif" font-size="10.00"># getRealArgumentFromTensor()</text>
<text text-anchor="start" x="8" y="-172" font-family="Helvetica,sans-Serif" font-size="10.00"># getTensorArgumentFromReal()</text>
<text text-anchor="start" x="8" y="-161" font-family="Helvetica,sans-Serif" font-size="10.00"># getArgumentData()</text>
<text text-anchor="middle" x="90" y="-150" font-family="Helvetica,sans-Serif" font-size="10.00">}</text>
</a>
</g>
</g>
<!-- Node2&#45;&gt;Node1 -->
<g id="edge1" class="edge">
<title>Node2&#45;&gt;Node1</title>
<path fill="none" stroke="#63b8ff" d="M99.27,-131.39C100.27,-119.15 101.24,-107.25 102.12,-96.47"/>
<polygon fill="none" stroke="#63b8ff" points="95.8,-130.93 98.47,-141.19 102.78,-131.5 95.8,-130.93"/>
</g>
<!-- Node3 -->
<g id="node3" class="node">
<title>Node3</title>
<g id="a_node3"><a xlink:href="classsisi4s_1_1AlgorithmRegistrar.html" target="_top" xlink:title=" ">
<polygon fill="white" stroke="#666666" points="389.5,-277.5 198.5,-277.5 198.5,-214.5 389.5,-214.5 389.5,-277.5"/>
<text text-anchor="start" x="206.5" y="-265.5" font-family="Helvetica,sans-Serif" font-size="10.00">{sisi4s::AlgorithmRegistrar</text>
<text text-anchor="start" x="206.5" y="-254.5" font-family="Helvetica,sans-Serif" font-size="10.00">&lt; sisi4s::GenerateRandomComplex</text>
<text text-anchor="middle" x="294" y="-243.5" font-family="Helvetica,sans-Serif" font-size="10.00">Matrix &gt;</text>
<text text-anchor="start" x="206.5" y="-232.5" font-family="Helvetica,sans-Serif" font-size="10.00">||+ AlgorithmRegistrar()</text>
<text text-anchor="middle" x="294" y="-221.5" font-family="Helvetica,sans-Serif" font-size="10.00">}</text>
</a>
</g>
</g>
<!-- Node3&#45;&gt;Node1 -->
<g id="edge2" class="edge">
<title>Node3&#45;&gt;Node1</title>
<path fill="none" stroke="#404040" d="M264.62,-214.38C236.52,-185.07 193.47,-140.19 159.3,-104.57"/>
<polygon fill="none" stroke="#404040" points="159.58,-104.86 152.54,-103.3 151.27,-96.2 158.31,-97.76 159.58,-104.86"/>
<text text-anchor="middle" x="207" y="-117" font-family="Helvetica,sans-Serif" font-size="10.00"> +registrar_</text>
</g>
<!-- Node4 -->
<g id="node4" class="node">
<title>Node4</title>
<g id="a_node4"><a xlink:href="classsisi4s_1_1AlgorithmFactory.html" target="_top" xlink:title=" ">
<polygon fill="white" stroke="#666666" points="342,-570 202,-570 202,-496 342,-496 342,-570"/>
<text text-anchor="middle" x="272" y="-558" font-family="Helvetica,sans-Serif" font-size="10.00">{sisi4s::AlgorithmFactory</text>
<text text-anchor="start" x="210" y="-547" font-family="Helvetica,sans-Serif" font-size="10.00">|# algorithmMap</text>
<text text-anchor="start" x="210" y="-536" font-family="Helvetica,sans-Serif" font-size="10.00">|+ create()</text>
<text text-anchor="start" x="210" y="-525" font-family="Helvetica,sans-Serif" font-size="10.00">+ getAlgorithmNames()</text>
<text text-anchor="start" x="210" y="-514" font-family="Helvetica,sans-Serif" font-size="10.00"># getAlgorithmMap()</text>
<text text-anchor="middle" x="272" y="-503" font-family="Helvetica,sans-Serif" font-size="10.00">}</text>
</a>
</g>
</g>
<!-- Node4&#45;&gt;Node3 -->
<g id="edge3" class="edge">
<title>Node4&#45;&gt;Node3</title>
<path fill="none" stroke="darkgreen" d="M274.25,-484.27C275.46,-460.95 277.09,-432.5 279,-407 282.36,-362.07 287.45,-310.15 290.75,-277.94"/>
<polygon fill="none" stroke="darkgreen" points="270.76,-483.93 273.75,-494.09 277.76,-484.28 270.76,-483.93"/>
</g>
<!-- Node5 -->
<g id="node5" class="node">
<title>Node5</title>
<g id="a_node5"><a xlink:href="classsisi4s_1_1AlgorithmRegistrar.html" target="_top" xlink:title="Class to be statically instantiated by an algorithm to register it in the AlgorithmFactory....">
<polygon fill="white" stroke="#666666" points="437.5,-459 288.5,-459 288.5,-407 437.5,-407 437.5,-459"/>
<text text-anchor="start" x="296.5" y="-447" font-family="Helvetica,sans-Serif" font-size="10.00">{sisi4s::AlgorithmRegistrar</text>
<text text-anchor="middle" x="363" y="-436" font-family="Helvetica,sans-Serif" font-size="10.00">&lt; AlgorithmType &gt;</text>
<text text-anchor="start" x="296.5" y="-425" font-family="Helvetica,sans-Serif" font-size="10.00">||+ AlgorithmRegistrar()</text>
<text text-anchor="middle" x="363" y="-414" font-family="Helvetica,sans-Serif" font-size="10.00">}</text>
</a>
</g>
</g>
<!-- Node4&#45;&gt;Node5 -->
<g id="edge5" class="edge">
<title>Node4&#45;&gt;Node5</title>
<path fill="none" stroke="darkgreen" d="M313.63,-487.17C322.54,-477.57 331.65,-467.76 339.58,-459.22"/>
<polygon fill="none" stroke="darkgreen" points="311.15,-484.69 306.91,-494.4 316.28,-489.45 311.15,-484.69"/>
</g>
<!-- Node5&#45;&gt;Node3 -->
<g id="edge4" class="edge">
<title>Node5&#45;&gt;Node3</title>
<path fill="none" stroke="orange" d="M349.63,-396.15C336.81,-361.79 317.67,-310.47 305.52,-277.88"/>
<polygon fill="orange" stroke="orange" points="346.25,-397.1 353.02,-405.25 352.81,-394.65 346.25,-397.1"/>
<text text-anchor="start" x="346" y="-381" font-family="Helvetica,sans-Serif" font-size="10.00"> &lt; sisi4s::GenerateRandom</text>
<text text-anchor="middle" x="413" y="-370" font-family="Helvetica,sans-Serif" font-size="10.00">ComplexMatrix &gt;</text>
</g>
</g>
</svg>
