<?xml version="1.0" encoding="UTF-8" standalone="no"?>
<!DOCTYPE svg PUBLIC "-//W3C//DTD SVG 1.1//EN"
 "http://www.w3.org/Graphics/SVG/1.1/DTD/svg11.dtd">
<!-- Generated by graphviz version 5.0.1 (0)
 -->
<!-- Title: CLI::Formatter::make_help Pages: 1 -->
<svg width="304pt" height="101pt"
 viewBox="0.00 0.00 304.00 101.00" xmlns="http://www.w3.org/2000/svg" xmlns:xlink="http://www.w3.org/1999/xlink">
<g id="graph0" class="graph" transform="scale(1 1) rotate(0) translate(4 97)">
<title>CLI::Formatter::make_help</title>
<!-- Node1 -->
<g id="node1" class="node">
<title>Node1</title>
<g id="a_node1"><a xlink:title="This puts everything together.">
<polygon fill="#999999" stroke="#666666" points="145,-56 0,-56 0,-37 145,-37 145,-56"/>
<text text-anchor="middle" x="72.5" y="-44" font-family="Helvetica,sans-Serif" font-size="10.00">CLI::Formatter::make_help</text>
</a>
</g>
</g>
<!-- Node2 -->
<g id="node2" class="node">
<title>Node2</title>
<g id="a_node2"><a xlink:href="classCLI_1_1App.html#a7285a71dac7f168f5d0f992ac75f404d" target="_top" xlink:title="Get the group of this subcommand.">
<polygon fill="white" stroke="#666666" points="294,-93 183,-93 183,-74 294,-74 294,-93"/>
<text text-anchor="middle" x="238.5" y="-81" font-family="Helvetica,sans-Serif" font-size="10.00">CLI::App::get_group</text>
</a>
</g>
</g>
<!-- Node1&#45;&gt;Node2 -->
<g id="edge1" class="edge">
<title>Node1&#45;&gt;Node2</title>
<path fill="none" stroke="#63b8ff" d="M115.73,-56.03C136.89,-60.8 162.69,-66.62 185.1,-71.68"/>
<polygon fill="#63b8ff" stroke="#63b8ff" points="184.6,-75.15 195.12,-73.94 186.14,-68.32 184.6,-75.15"/>
</g>
<!-- Node3 -->
<g id="node3" class="node">
<title>Node3</title>
<g id="a_node3"><a xlink:href="classCLI_1_1App.html#adeac41bd40859dfbff9817244c09c989" target="_top" xlink:title="Get the name of the current app.">
<polygon fill="white" stroke="#666666" points="294,-56 183,-56 183,-37 294,-37 294,-56"/>
<text text-anchor="middle" x="238.5" y="-44" font-family="Helvetica,sans-Serif" font-size="10.00">CLI::App::get_name</text>
</a>
</g>
</g>
<!-- Node1&#45;&gt;Node3 -->
<g id="edge2" class="edge">
<title>Node1&#45;&gt;Node3</title>
<path fill="none" stroke="#63b8ff" d="M145.43,-46.5C154.56,-46.5 163.86,-46.5 172.87,-46.5"/>
<polygon fill="#63b8ff" stroke="#63b8ff" points="172.89,-50 182.89,-46.5 172.88,-43 172.89,-50"/>
</g>
<!-- Node4 -->
<g id="node4" class="node">
<title>Node4</title>
<g id="a_node4"><a xlink:href="classCLI_1_1App.html#a5f31177cf639f148d3a315861ff6ca5c" target="_top" xlink:title="Get the parent of this subcommand (or nullptr if main app)">
<polygon fill="white" stroke="#666666" points="296,-19 181,-19 181,0 296,0 296,-19"/>
<text text-anchor="middle" x="238.5" y="-7" font-family="Helvetica,sans-Serif" font-size="10.00">CLI::App::get_parent</text>
</a>
</g>
</g>
<!-- Node1&#45;&gt;Node4 -->
<g id="edge3" class="edge">
<title>Node1&#45;&gt;Node4</title>
<path fill="none" stroke="#63b8ff" d="M115.73,-36.97C136.89,-32.2 162.69,-26.38 185.1,-21.32"/>
<polygon fill="#63b8ff" stroke="#63b8ff" points="186.14,-24.68 195.12,-19.06 184.6,-17.85 186.14,-24.68"/>
</g>
</g>
</svg>
