<?xml version="1.0" encoding="UTF-8" standalone="no"?>
<!DOCTYPE svg PUBLIC "-//W3C//DTD SVG 1.1//EN"
 "http://www.w3.org/Graphics/SVG/1.1/DTD/svg11.dtd">
<!-- Generated by graphviz version 7.1.0 (0)
 -->
<!-- Title: sisi4s::UccsdtqAmplitudesFromCoulombIntegrals::run Pages: 1 -->
<svg width="889pt" height="128pt"
 viewBox="0.00 0.00 889.00 128.00" xmlns="http://www.w3.org/2000/svg" xmlns:xlink="http://www.w3.org/1999/xlink">
<g id="graph0" class="graph" transform="scale(1 1) rotate(0) translate(4 124)">
<title>sisi4s::UccsdtqAmplitudesFromCoulombIntegrals::run</title>
<!-- Node1 -->
<g id="node1" class="node">
<title>Node1</title>
<g id="a_node1"><a xlink:title="Calculates the energy of a ClusterSinglesDoubles algorithm.">
<polygon fill="#999999" stroke="#666666" points="149,-73 0,-73 0,-43 149,-43 149,-73"/>
<text text-anchor="start" x="8" y="-61" font-family="Helvetica,sans-Serif" font-size="10.00">sisi4s::UccsdtqAmplitudes</text>
<text text-anchor="middle" x="74.5" y="-50" font-family="Helvetica,sans-Serif" font-size="10.00">FromCoulombIntegrals::run</text>
</a>
</g>
</g>
<!-- Node2 -->
<g id="node2" class="node">
<title>Node2</title>
<g id="a_node2"><a xlink:href="classsisi4s_1_1ClusterSinglesDoublesTriplesQuadruplesAlgorithm.html#ad01820e6d569c2444dc5d0aa3bb3359e" target="_top" xlink:title="Calculates the energy of a ClusterSinglesDoubles algorithm.">
<polygon fill="white" stroke="#666666" points="358,-73 185,-73 185,-43 358,-43 358,-73"/>
<text text-anchor="start" x="193" y="-61" font-family="Helvetica,sans-Serif" font-size="10.00">sisi4s::ClusterSinglesDoubles</text>
<text text-anchor="middle" x="271.5" y="-50" font-family="Helvetica,sans-Serif" font-size="10.00">TriplesQuadruplesAlgorithm::run</text>
</a>
</g>
</g>
<!-- Node1&#45;&gt;Node2 -->
<g id="edge1" class="edge">
<title>Node1&#45;&gt;Node2</title>
<path fill="none" stroke="#63b8ff" d="M149.5,-58C157.33,-58 165.39,-58 173.43,-58"/>
<polygon fill="#63b8ff" stroke="#63b8ff" points="173.27,-61.5 183.27,-58 173.27,-54.5 173.27,-61.5"/>
</g>
<!-- Node3 -->
<g id="node3" class="node">
<title>Node3</title>
<g id="a_node3"><a xlink:href="classsisi4s_1_1Algorithm.html#a1e53277220d32a33e20846267c253652" target="_top" xlink:title=" ">
<polygon fill="white" stroke="#666666" points="722,-72 618,-72 618,-42 722,-42 722,-72"/>
<text text-anchor="start" x="626" y="-60" font-family="Helvetica,sans-Serif" font-size="10.00">sisi4s::Algorithm::</text>
<text text-anchor="middle" x="670" y="-49" font-family="Helvetica,sans-Serif" font-size="10.00">getArgumentData</text>
</a>
</g>
</g>
<!-- Node2&#45;&gt;Node3 -->
<g id="edge2" class="edge">
<title>Node2&#45;&gt;Node3</title>
<path fill="none" stroke="#63b8ff" d="M358.05,-57.78C432.72,-57.6 539.35,-57.33 606.33,-57.16"/>
<polygon fill="#63b8ff" stroke="#63b8ff" points="606.04,-60.66 616.03,-57.13 606.02,-53.66 606.04,-60.66"/>
</g>
<!-- Node5 -->
<g id="node5" class="node">
<title>Node5</title>
<g id="a_node5"><a xlink:href="classsisi4s_1_1ClusterSinglesDoublesAlgorithm.html#ac4e86100aee3802ce4a75a737eff7ec0" target="_top" xlink:title=" ">
<polygon fill="white" stroke="#666666" points="554,-118 394,-118 394,-88 554,-88 554,-118"/>
<text text-anchor="start" x="402" y="-106" font-family="Helvetica,sans-Serif" font-size="10.00">sisi4s::ClusterSinglesDoubles</text>
<text text-anchor="middle" x="474" y="-95" font-family="Helvetica,sans-Serif" font-size="10.00">Algorithm::getDataName</text>
</a>
</g>
</g>
<!-- Node2&#45;&gt;Node5 -->
<g id="edge4" class="edge">
<title>Node2&#45;&gt;Node5</title>
<path fill="none" stroke="#63b8ff" d="M341.5,-73.49C358.13,-77.22 376.04,-81.24 393.13,-85.07"/>
<polygon fill="#63b8ff" stroke="#63b8ff" points="392.21,-88.45 402.74,-87.23 393.74,-81.62 392.21,-88.45"/>
</g>
<!-- Node7 -->
<g id="node7" class="node">
<title>Node7</title>
<g id="a_node7"><a xlink:href="classsisi4s_1_1Algorithm.html#af6f931ab83742cc23b4f4350d54a3fcd" target="_top" xlink:title=" ">
<polygon fill="white" stroke="#666666" points="526,-30 422,-30 422,0 526,0 526,-30"/>
<text text-anchor="start" x="430" y="-18" font-family="Helvetica,sans-Serif" font-size="10.00">sisi4s::Algorithm::</text>
<text text-anchor="middle" x="474" y="-7" font-family="Helvetica,sans-Serif" font-size="10.00">setRealArgument</text>
</a>
</g>
</g>
<!-- Node2&#45;&gt;Node7 -->
<g id="edge6" class="edge">
<title>Node2&#45;&gt;Node7</title>
<path fill="none" stroke="#63b8ff" d="M344.6,-42.54C366.2,-37.9 389.7,-32.86 410.62,-28.38"/>
<polygon fill="#63b8ff" stroke="#63b8ff" points="411.1,-31.85 420.15,-26.33 409.64,-25.01 411.1,-31.85"/>
</g>
<!-- Node4 -->
<g id="node4" class="node">
<title>Node4</title>
<g id="a_node4"><a xlink:href="classsisi4s_1_1Data.html#a5b4676e48b4f437d399587e6903f896a" target="_top" xlink:title=" ">
<polygon fill="white" stroke="#666666" points="881,-66.5 786,-66.5 786,-47.5 881,-47.5 881,-66.5"/>
<text text-anchor="middle" x="833.5" y="-54.5" font-family="Helvetica,sans-Serif" font-size="10.00">sisi4s::Data::get</text>
</a>
</g>
</g>
<!-- Node3&#45;&gt;Node4 -->
<g id="edge3" class="edge">
<title>Node3&#45;&gt;Node4</title>
<path fill="none" stroke="#63b8ff" d="M722.1,-57C738.62,-57 757.06,-57 774.07,-57"/>
<polygon fill="#63b8ff" stroke="#63b8ff" points="774.06,-60.5 784.06,-57 774.06,-53.5 774.06,-60.5"/>
</g>
<!-- Node6 -->
<g id="node6" class="node">
<title>Node6</title>
<g id="a_node6"><a xlink:href="classsisi4s_1_1ClusterSinglesDoublesAlgorithm.html#ab3f7208a643558d8c36324038e0d3130" target="_top" xlink:title="Returns the abbreviation of the concrete algorithm, e.g. &quot;Ccd&quot;, &quot;Dcd&quot;.">
<polygon fill="white" stroke="#666666" points="750,-120 590,-120 590,-90 750,-90 750,-120"/>
<text text-anchor="start" x="598" y="-108" font-family="Helvetica,sans-Serif" font-size="10.00">sisi4s::ClusterSinglesDoubles</text>
<text text-anchor="middle" x="670" y="-97" font-family="Helvetica,sans-Serif" font-size="10.00">Algorithm::getAbbreviation</text>
</a>
</g>
</g>
<!-- Node5&#45;&gt;Node6 -->
<g id="edge5" class="edge">
<title>Node5&#45;&gt;Node6</title>
<path fill="none" stroke="#63b8ff" d="M554.47,-103.82C562.36,-103.9 570.42,-103.98 578.41,-104.07"/>
<polygon fill="#63b8ff" stroke="#63b8ff" points="578.11,-107.56 588.14,-104.17 578.18,-100.56 578.11,-107.56"/>
</g>
<!-- Node7&#45;&gt;Node3 -->
<g id="edge7" class="edge">
<title>Node7&#45;&gt;Node3</title>
<path fill="none" stroke="#63b8ff" d="M526.48,-26.14C551.02,-31.46 580.59,-37.86 606.42,-43.45"/>
<polygon fill="#63b8ff" stroke="#63b8ff" points="605.62,-46.86 616.14,-45.56 607.1,-40.02 605.62,-46.86"/>
</g>
<!-- Node8 -->
<g id="node8" class="node">
<title>Node8</title>
<g id="a_node8"><a xlink:href="classsisi4s_1_1Data.html#a10819dce08cb4dd8d881b9fe02036d69" target="_top" xlink:title=" ">
<polygon fill="white" stroke="#666666" points="732.5,-23.5 607.5,-23.5 607.5,-4.5 732.5,-4.5 732.5,-23.5"/>
<text text-anchor="middle" x="670" y="-11.5" font-family="Helvetica,sans-Serif" font-size="10.00">sisi4s::Data::getName</text>
</a>
</g>
</g>
<!-- Node7&#45;&gt;Node8 -->
<g id="edge8" class="edge">
<title>Node7&#45;&gt;Node8</title>
<path fill="none" stroke="#63b8ff" d="M526.48,-14.73C547.7,-14.63 572.68,-14.5 595.76,-14.38"/>
<polygon fill="#63b8ff" stroke="#63b8ff" points="595.76,-17.88 605.74,-14.33 595.73,-10.88 595.76,-17.88"/>
</g>
</g>
</svg>
