<?xml version="1.0" encoding="UTF-8" standalone="no"?>
<!DOCTYPE svg PUBLIC "-//W3C//DTD SVG 1.1//EN"
 "http://www.w3.org/Graphics/SVG/1.1/DTD/svg11.dtd">
<!-- Generated by graphviz version 7.1.0 (0)
 -->
<!-- Title: sisi4s::FromComplexTensor::run Pages: 1 -->
<svg width="657pt" height="163pt"
 viewBox="0.00 0.00 657.00 163.00" xmlns="http://www.w3.org/2000/svg" xmlns:xlink="http://www.w3.org/1999/xlink">
<g id="graph0" class="graph" transform="scale(1 1) rotate(0) translate(4 159)">
<title>sisi4s::FromComplexTensor::run</title>
<!-- Node1 -->
<g id="node1" class="node">
<title>Node1</title>
<g id="a_node1"><a xlink:title="Testing environement.">
<polygon fill="#999999" stroke="#666666" points="172,-67.5 0,-67.5 0,-48.5 172,-48.5 172,-67.5"/>
<text text-anchor="middle" x="86" y="-55.5" font-family="Helvetica,sans-Serif" font-size="10.00">sisi4s::FromComplexTensor::run</text>
</a>
</g>
</g>
<!-- Node2 -->
<g id="node2" class="node">
<title>Node2</title>
<g id="a_node2"><a xlink:href="classsisi4s_1_1Algorithm.html#a388052a12509b8b641f17bbe8d41f8f3" target="_top" xlink:title="Specifies the location of an output tensor data.">
<polygon fill="white" stroke="#666666" points="353,-134 212,-134 212,-104 353,-104 353,-134"/>
<text text-anchor="start" x="220" y="-122" font-family="Helvetica,sans-Serif" font-size="10.00">sisi4s::Algorithm::</text>
<text text-anchor="middle" x="282.5" y="-111" font-family="Helvetica,sans-Serif" font-size="10.00">allocatedTensorArgument</text>
</a>
</g>
</g>
<!-- Node1&#45;&gt;Node2 -->
<g id="edge1" class="edge">
<title>Node1&#45;&gt;Node2</title>
<path fill="none" stroke="#63b8ff" d="M118.68,-67.94C146.46,-76.65 187.6,-89.55 221.58,-100.21"/>
<polygon fill="#63b8ff" stroke="#63b8ff" points="220.3,-103.47 230.89,-103.13 222.39,-96.79 220.3,-103.47"/>
</g>
<!-- Node6 -->
<g id="node6" class="node">
<title>Node6</title>
<g id="a_node6"><a xlink:href="namespacesisi4s.html#ad6f7eb8262f28cfa6afcabe5c42c8521" target="_top" xlink:title="Decomposes the tensor of complex elements into two tensors containing the real and imaginary parts,...">
<polygon fill="white" stroke="#666666" points="357,-67.5 208,-67.5 208,-48.5 357,-48.5 357,-67.5"/>
<text text-anchor="middle" x="282.5" y="-55.5" font-family="Helvetica,sans-Serif" font-size="10.00">sisi4s::fromComplexTensor</text>
</a>
</g>
</g>
<!-- Node1&#45;&gt;Node6 -->
<g id="edge5" class="edge">
<title>Node1&#45;&gt;Node6</title>
<path fill="none" stroke="#63b8ff" d="M172.31,-58C180.2,-58 188.19,-58 196.08,-58"/>
<polygon fill="#63b8ff" stroke="#63b8ff" points="196.02,-61.5 206.02,-58 196.02,-54.5 196.02,-61.5"/>
</g>
<!-- Node7 -->
<g id="node7" class="node">
<title>Node7</title>
<g id="a_node7"><a xlink:href="classsisi4s_1_1Algorithm.html#aec9041b31cb64a42ee1fd79d32774266" target="_top" xlink:title=" ">
<polygon fill="white" stroke="#666666" points="334.5,-30 230.5,-30 230.5,0 334.5,0 334.5,-30"/>
<text text-anchor="start" x="238.5" y="-18" font-family="Helvetica,sans-Serif" font-size="10.00">sisi4s::Algorithm::</text>
<text text-anchor="middle" x="282.5" y="-7" font-family="Helvetica,sans-Serif" font-size="10.00">isArgumentGiven</text>
</a>
</g>
</g>
<!-- Node1&#45;&gt;Node7 -->
<g id="edge7" class="edge">
<title>Node1&#45;&gt;Node7</title>
<path fill="none" stroke="#63b8ff" d="M132.11,-48.03C157.97,-42.31 190.81,-35.05 219.11,-28.79"/>
<polygon fill="#63b8ff" stroke="#63b8ff" points="219.62,-32.26 228.63,-26.69 218.11,-25.43 219.62,-32.26"/>
</g>
<!-- Node3 -->
<g id="node3" class="node">
<title>Node3</title>
<g id="a_node3"><a xlink:href="classsisi4s_1_1Algorithm.html#a1e53277220d32a33e20846267c253652" target="_top" xlink:title=" ">
<polygon fill="white" stroke="#666666" points="507.5,-155 403.5,-155 403.5,-125 507.5,-125 507.5,-155"/>
<text text-anchor="start" x="411.5" y="-143" font-family="Helvetica,sans-Serif" font-size="10.00">sisi4s::Algorithm::</text>
<text text-anchor="middle" x="455.5" y="-132" font-family="Helvetica,sans-Serif" font-size="10.00">getArgumentData</text>
</a>
</g>
</g>
<!-- Node2&#45;&gt;Node3 -->
<g id="edge2" class="edge">
<title>Node2&#45;&gt;Node3</title>
<path fill="none" stroke="#63b8ff" d="M353.05,-127.54C365.87,-129.12 379.18,-130.75 391.77,-132.3"/>
<polygon fill="#63b8ff" stroke="#63b8ff" points="391.25,-135.76 401.61,-133.5 392.11,-128.81 391.25,-135.76"/>
</g>
<!-- Node5 -->
<g id="node5" class="node">
<title>Node5</title>
<g id="a_node5"><a xlink:href="classsisi4s_1_1Data.html#a10819dce08cb4dd8d881b9fe02036d69" target="_top" xlink:title=" ">
<polygon fill="white" stroke="#666666" points="518,-106.5 393,-106.5 393,-87.5 518,-87.5 518,-106.5"/>
<text text-anchor="middle" x="455.5" y="-94.5" font-family="Helvetica,sans-Serif" font-size="10.00">sisi4s::Data::getName</text>
</a>
</g>
</g>
<!-- Node2&#45;&gt;Node5 -->
<g id="edge4" class="edge">
<title>Node2&#45;&gt;Node5</title>
<path fill="none" stroke="#63b8ff" d="M353.05,-110.05C362.39,-108.85 371.98,-107.62 381.38,-106.41"/>
<polygon fill="#63b8ff" stroke="#63b8ff" points="381.73,-109.89 391.2,-105.14 380.84,-102.95 381.73,-109.89"/>
</g>
<!-- Node4 -->
<g id="node4" class="node">
<title>Node4</title>
<g id="a_node4"><a xlink:href="classsisi4s_1_1Data.html#a5b4676e48b4f437d399587e6903f896a" target="_top" xlink:title=" ">
<polygon fill="white" stroke="#666666" points="649,-149.5 554,-149.5 554,-130.5 649,-130.5 649,-149.5"/>
<text text-anchor="middle" x="601.5" y="-137.5" font-family="Helvetica,sans-Serif" font-size="10.00">sisi4s::Data::get</text>
</a>
</g>
</g>
<!-- Node3&#45;&gt;Node4 -->
<g id="edge3" class="edge">
<title>Node3&#45;&gt;Node4</title>
<path fill="none" stroke="#63b8ff" d="M507.67,-140C518.95,-140 530.97,-140 542.5,-140"/>
<polygon fill="#63b8ff" stroke="#63b8ff" points="542.3,-143.5 552.3,-140 542.3,-136.5 542.3,-143.5"/>
</g>
<!-- Node6&#45;&gt;Node6 -->
<g id="edge6" class="edge">
<title>Node6&#45;&gt;Node6</title>
<path fill="none" stroke="#63b8ff" d="M255.42,-67.87C243.06,-76.44 252.09,-85.5 282.5,-85.5 299.61,-85.5 309.95,-82.63 313.52,-78.6"/>
<polygon fill="#63b8ff" stroke="#63b8ff" points="316.84,-77.47 310.11,-69.29 310.26,-79.88 316.84,-77.47"/>
</g>
</g>
</svg>
