<?xml version="1.0" encoding="UTF-8" standalone="no"?>
<!DOCTYPE svg PUBLIC "-//W3C//DTD SVG 1.1//EN"
 "http://www.w3.org/Graphics/SVG/1.1/DTD/svg11.dtd">
<!-- Generated by graphviz version 7.1.0 (0)
 -->
<!-- Title: CLI::IncorrectConstruction Pages: 1 -->
<svg width="150pt" height="535pt"
 viewBox="0.00 0.00 150.00 535.00" xmlns="http://www.w3.org/2000/svg" xmlns:xlink="http://www.w3.org/1999/xlink">
<g id="graph0" class="graph" transform="scale(1 1) rotate(0) translate(4 531)">
<title>CLI::IncorrectConstruction</title>
<!-- Node1 -->
<g id="node1" class="node">
<title>Node1</title>
<g id="a_node1"><a xlink:title="Thrown when an option is set to conflicting values (non&#45;vector and multi args, for example)">
<polygon fill="#999999" stroke="#666666" points="0,-0.5 0,-178.5 142,-178.5 142,-0.5 0,-0.5"/>
<text text-anchor="middle" x="71" y="-166.5" font-family="Helvetica,sans-Serif" font-size="10.00">CLI::IncorrectConstruction</text>
<polyline fill="none" stroke="#666666" points="0,-159.5 142,-159.5"/>
<text text-anchor="middle" x="71" y="-147.5" font-family="Helvetica,sans-Serif" font-size="10.00"> </text>
<polyline fill="none" stroke="#666666" points="0,-140.5 142,-140.5"/>
<text text-anchor="start" x="8" y="-128.5" font-family="Helvetica,sans-Serif" font-size="10.00">+ IncorrectConstruction()</text>
<text text-anchor="start" x="8" y="-117.5" font-family="Helvetica,sans-Serif" font-size="10.00">+ IncorrectConstruction()</text>
<text text-anchor="start" x="8" y="-106.5" font-family="Helvetica,sans-Serif" font-size="10.00">+ IncorrectConstruction()</text>
<text text-anchor="start" x="8" y="-95.5" font-family="Helvetica,sans-Serif" font-size="10.00">+ PositionalFlag()</text>
<text text-anchor="start" x="8" y="-84.5" font-family="Helvetica,sans-Serif" font-size="10.00">+ Set0Opt()</text>
<text text-anchor="start" x="8" y="-73.5" font-family="Helvetica,sans-Serif" font-size="10.00">+ SetFlag()</text>
<text text-anchor="start" x="8" y="-62.5" font-family="Helvetica,sans-Serif" font-size="10.00">+ ChangeNotVector()</text>
<text text-anchor="start" x="8" y="-51.5" font-family="Helvetica,sans-Serif" font-size="10.00">+ AfterMultiOpt()</text>
<text text-anchor="start" x="8" y="-40.5" font-family="Helvetica,sans-Serif" font-size="10.00">+ MissingOption()</text>
<text text-anchor="start" x="8" y="-29.5" font-family="Helvetica,sans-Serif" font-size="10.00">+ MultiOptionPolicy()</text>
<text text-anchor="start" x="8" y="-18.5" font-family="Helvetica,sans-Serif" font-size="10.00"># IncorrectConstruction()</text>
<text text-anchor="start" x="8" y="-7.5" font-family="Helvetica,sans-Serif" font-size="10.00"># IncorrectConstruction()</text>
</a>
</g>
</g>
<!-- Node2 -->
<g id="node2" class="node">
<title>Node2</title>
<g id="a_node2"><a xlink:href="classCLI_1_1ConstructionError.html" target="_top" xlink:title="Construction errors (not in parsing)">
<polygon fill="white" stroke="#666666" points="10,-215.5 10,-305.5 132,-305.5 132,-215.5 10,-215.5"/>
<text text-anchor="middle" x="71" y="-293.5" font-family="Helvetica,sans-Serif" font-size="10.00">CLI::ConstructionError</text>
<polyline fill="none" stroke="#666666" points="10,-286.5 132,-286.5"/>
<text text-anchor="middle" x="71" y="-274.5" font-family="Helvetica,sans-Serif" font-size="10.00"> </text>
<polyline fill="none" stroke="#666666" points="10,-267.5 132,-267.5"/>
<text text-anchor="start" x="18" y="-255.5" font-family="Helvetica,sans-Serif" font-size="10.00">+ ConstructionError()</text>
<text text-anchor="start" x="18" y="-244.5" font-family="Helvetica,sans-Serif" font-size="10.00">+ ConstructionError()</text>
<text text-anchor="start" x="18" y="-233.5" font-family="Helvetica,sans-Serif" font-size="10.00"># ConstructionError()</text>
<text text-anchor="start" x="18" y="-222.5" font-family="Helvetica,sans-Serif" font-size="10.00"># ConstructionError()</text>
</a>
</g>
</g>
<!-- Node2&#45;&gt;Node1 -->
<g id="edge1" class="edge">
<title>Node2&#45;&gt;Node1</title>
<path fill="none" stroke="#63b8ff" d="M71,-204.08C71,-195.75 71,-186.98 71,-178.17"/>
<polygon fill="none" stroke="#63b8ff" points="67.5,-204.02 71,-214.02 74.5,-204.02 67.5,-204.02"/>
</g>
<!-- Node3 -->
<g id="node3" class="node">
<title>Node3</title>
<g id="a_node3"><a xlink:href="classCLI_1_1Error.html" target="_top" xlink:title="All errors derive from this one.">
<polygon fill="white" stroke="#666666" points="19,-342.5 19,-432.5 123,-432.5 123,-342.5 19,-342.5"/>
<text text-anchor="middle" x="71" y="-420.5" font-family="Helvetica,sans-Serif" font-size="10.00">CLI::Error</text>
<polyline fill="none" stroke="#666666" points="19,-413.5 123,-413.5"/>
<text text-anchor="middle" x="71" y="-401.5" font-family="Helvetica,sans-Serif" font-size="10.00"> </text>
<polyline fill="none" stroke="#666666" points="19,-394.5 123,-394.5"/>
<text text-anchor="start" x="27" y="-382.5" font-family="Helvetica,sans-Serif" font-size="10.00">+ get_exit_code()</text>
<text text-anchor="start" x="27" y="-371.5" font-family="Helvetica,sans-Serif" font-size="10.00">+ get_name()</text>
<text text-anchor="start" x="27" y="-360.5" font-family="Helvetica,sans-Serif" font-size="10.00">+ Error()</text>
<text text-anchor="start" x="27" y="-349.5" font-family="Helvetica,sans-Serif" font-size="10.00">+ Error()</text>
</a>
</g>
</g>
<!-- Node3&#45;&gt;Node2 -->
<g id="edge2" class="edge">
<title>Node3&#45;&gt;Node2</title>
<path fill="none" stroke="#63b8ff" d="M71,-331.48C71,-322.76 71,-313.83 71,-305.41"/>
<polygon fill="none" stroke="#63b8ff" points="67.5,-331.27 71,-341.27 74.5,-331.27 67.5,-331.27"/>
</g>
<!-- Node4 -->
<g id="node4" class="node">
<title>Node4</title>
<g id="a_node4"><a xlink:title=" ">
<polygon fill="white" stroke="#666666" points="19,-469.5 19,-526.5 123,-526.5 123,-469.5 19,-469.5"/>
<text text-anchor="middle" x="71" y="-514.5" font-family="Helvetica,sans-Serif" font-size="10.00">std::runtime_error</text>
<polyline fill="none" stroke="#666666" points="19,-507.5 123,-507.5"/>
<text text-anchor="middle" x="71" y="-495.5" font-family="Helvetica,sans-Serif" font-size="10.00"> </text>
<polyline fill="none" stroke="#666666" points="19,-488.5 123,-488.5"/>
<text text-anchor="middle" x="71" y="-476.5" font-family="Helvetica,sans-Serif" font-size="10.00"> </text>
</a>
</g>
</g>
<!-- Node4&#45;&gt;Node3 -->
<g id="edge3" class="edge">
<title>Node4&#45;&gt;Node3</title>
<path fill="none" stroke="#63b8ff" d="M71,-458.22C71,-449.83 71,-440.9 71,-432.34"/>
<polygon fill="none" stroke="#63b8ff" points="67.5,-458.11 71,-468.11 74.5,-458.11 67.5,-458.11"/>
</g>
</g>
</svg>
