<?xml version="1.0" encoding="UTF-8" standalone="no"?>
<!DOCTYPE svg PUBLIC "-//W3C//DTD SVG 1.1//EN"
 "http://www.w3.org/Graphics/SVG/1.1/DTD/svg11.dtd">
<!-- Generated by graphviz version 9.0.0 (0)
 -->
<!-- Title: sisi4s::FockVectorNdCanonical::FockVectorNdCanonical Pages: 1 -->
<svg width="373pt" height="94pt"
 viewBox="0.00 0.00 373.00 93.50" xmlns="http://www.w3.org/2000/svg" xmlns:xlink="http://www.w3.org/1999/xlink">
<g id="graph0" class="graph" transform="scale(1 1) rotate(0) translate(4 89.5)">
<title>sisi4s::FockVectorNdCanonical::FockVectorNdCanonical</title>
<!-- Node1 -->
<g id="Node000001" class="node">
<title>Node1</title>
<g id="a_Node000001"><a xlink:title="Copy constructor copying the tensors owned by a.">
<polygon fill="#999999" stroke="#666666" points="164.5,-59.5 0,-59.5 0,-26 164.5,-26 164.5,-59.5"/>
<text text-anchor="start" x="8" y="-46" font-family="Helvetica,sans-Serif" font-size="10.00">sisi4s::FockVectorNdCanonical</text>
<text text-anchor="middle" x="82.25" y="-33.25" font-family="Helvetica,sans-Serif" font-size="10.00">::FockVectorNdCanonical</text>
</a>
</g>
</g>
<!-- Node2 -->
<g id="Node000002" class="node">
<title>Node2</title>
<g id="a_Node000002"><a xlink:href="classsisi4s_1_1FockVector.html#a5d9cadb1b9e7035318011a41379d0c6d" target="_top" xlink:title=" ">
<polygon fill="white" stroke="#666666" points="365,-85.5 200.5,-85.5 200.5,-52 365,-52 365,-85.5"/>
<text text-anchor="start" x="208.5" y="-72" font-family="Helvetica,sans-Serif" font-size="10.00">sisi4s::FockVector</text>
<text text-anchor="middle" x="282.75" y="-59.25" font-family="Helvetica,sans-Serif" font-size="10.00">&lt; F &gt;::build_index_translation</text>
</a>
</g>
</g>
<!-- Node1&#45;&gt;Node2 -->
<g id="edge1_Node000001_Node000002" class="edge">
<title>Node1&#45;&gt;Node2</title>
<g id="a_edge1_Node000001_Node000002"><a xlink:title=" ">
<path fill="none" stroke="#63b8ff" d="M164.85,-53.44C172.77,-54.48 180.85,-55.53 188.87,-56.58"/>
<polygon fill="#63b8ff" stroke="#63b8ff" points="188.28,-60.04 198.65,-57.87 189.19,-53.1 188.28,-60.04"/>
</a>
</g>
</g>
<!-- Node3 -->
<g id="Node000003" class="node">
<title>Node3</title>
<g id="a_Node000003"><a xlink:href="classsisi4s_1_1FockVector.html#ae25aa32f590626efb8eab6d8f8ceaf56" target="_top" xlink:title="Sets this FockVector&#39;s component tensors by copying the given component tensors. Called by copy const...">
<polygon fill="white" stroke="#666666" points="352.25,-33.5 213.25,-33.5 213.25,0 352.25,0 352.25,-33.5"/>
<text text-anchor="start" x="221.25" y="-20" font-family="Helvetica,sans-Serif" font-size="10.00">sisi4s::FockVector</text>
<text text-anchor="middle" x="282.75" y="-7.25" font-family="Helvetica,sans-Serif" font-size="10.00">&lt; F &gt;::copy_components</text>
</a>
</g>
</g>
<!-- Node1&#45;&gt;Node3 -->
<g id="edge2_Node000001_Node000003" class="edge">
<title>Node1&#45;&gt;Node3</title>
<g id="a_edge2_Node000001_Node000003"><a xlink:title=" ">
<path fill="none" stroke="#63b8ff" d="M164.85,-32.06C176.92,-30.48 189.36,-28.85 201.4,-27.27"/>
<polygon fill="#63b8ff" stroke="#63b8ff" points="201.85,-30.75 211.31,-25.98 200.94,-23.8 201.85,-30.75"/>
</a>
</g>
</g>
</g>
</svg>
