<?xml version="1.0" encoding="UTF-8" standalone="no"?>
<!DOCTYPE svg PUBLIC "-//W3C//DTD SVG 1.1//EN"
 "http://www.w3.org/Graphics/SVG/1.1/DTD/svg11.dtd">
<!-- Generated by graphviz version 5.0.1 (0)
 -->
<!-- Title: sisi4s::ParticleHoleCoulombVertexDecomposition::normalizePi Pages: 1 -->
<svg width="569pt" height="61pt"
 viewBox="0.00 0.00 569.00 61.00" xmlns="http://www.w3.org/2000/svg" xmlns:xlink="http://www.w3.org/1999/xlink">
<g id="graph0" class="graph" transform="scale(1 1) rotate(0) translate(4 57)">
<title>sisi4s::ParticleHoleCoulombVertexDecomposition::normalizePi</title>
<!-- Node1 -->
<g id="node1" class="node">
<title>Node1</title>
<g id="a_node1"><a xlink:title="Normalizes the given factor orbitals, such that .">
<polygon fill="#bfbfbf" stroke="black" points="376,-0.5 376,-30.5 561,-30.5 561,-0.5 376,-0.5"/>
<text text-anchor="start" x="384" y="-18.5" font-family="Helvetica,sans-Serif" font-size="10.00">sisi4s::ParticleHoleCoulomb</text>
<text text-anchor="middle" x="468.5" y="-7.5" font-family="Helvetica,sans-Serif" font-size="10.00">VertexDecomposition::normalizePi</text>
</a>
</g>
</g>
<!-- Node2 -->
<g id="node2" class="node">
<title>Node2</title>
<g id="a_node2"><a xlink:href="classsisi4s_1_1ParticleHoleCoulombVertexDecomposition.html#a89e580fcc9544ae668ccda0d37256f35" target="_top" xlink:title="Performs one iteration in fitting the factor orbitals and the Coulomb factors according to the given ...">
<polygon fill="none" stroke="black" points="188,-22.5 188,-52.5 340,-52.5 340,-22.5 188,-22.5"/>
<text text-anchor="start" x="196" y="-40.5" font-family="Helvetica,sans-Serif" font-size="10.00">sisi4s::ParticleHoleCoulomb</text>
<text text-anchor="middle" x="264" y="-29.5" font-family="Helvetica,sans-Serif" font-size="10.00">VertexDecomposition::fit</text>
</a>
</g>
</g>
<!-- Node1&#45;&gt;Node2 -->
<g id="edge1" class="edge">
<title>Node1&#45;&gt;Node2</title>
<path fill="none" stroke="midnightblue" d="M365.64,-26.57C357.03,-27.5 348.43,-28.44 340.08,-29.34"/>
<polygon fill="midnightblue" stroke="midnightblue" points="366.17,-30.03 375.73,-25.47 365.41,-23.07 366.17,-30.03"/>
</g>
<!-- Node3 -->
<g id="node3" class="node">
<title>Node3</title>
<g id="a_node3"><a xlink:href="classsisi4s_1_1ParticleHoleCoulombVertexDecomposition.html#a14cd82062611a0e443aff732ae0db121" target="_top" xlink:title=" ">
<polygon fill="none" stroke="black" points="0,-0.5 0,-30.5 152,-30.5 152,-0.5 0,-0.5"/>
<text text-anchor="start" x="8" y="-18.5" font-family="Helvetica,sans-Serif" font-size="10.00">sisi4s::ParticleHoleCoulomb</text>
<text text-anchor="middle" x="76" y="-7.5" font-family="Helvetica,sans-Serif" font-size="10.00">VertexDecomposition::run</text>
</a>
</g>
</g>
<!-- Node1&#45;&gt;Node3 -->
<g id="edge3" class="edge">
<title>Node1&#45;&gt;Node3</title>
<path fill="none" stroke="midnightblue" d="M365.71,-13.76C357.01,-13.66 348.35,-13.57 340,-13.5 272.45,-12.97 255.55,-12.89 188,-13.5 176.44,-13.6 164.2,-13.77 152.23,-13.96"/>
<polygon fill="midnightblue" stroke="midnightblue" points="365.88,-17.26 375.92,-13.89 365.97,-10.26 365.88,-17.26"/>
</g>
<!-- Node2&#45;&gt;Node3 -->
<g id="edge2" class="edge">
<title>Node2&#45;&gt;Node3</title>
<path fill="none" stroke="midnightblue" d="M177.85,-27.43C169.26,-26.41 160.57,-25.39 152.1,-24.38"/>
<polygon fill="midnightblue" stroke="midnightblue" points="177.54,-30.92 187.88,-28.62 178.36,-23.96 177.54,-30.92"/>
</g>
</g>
</svg>
