<?xml version="1.0" encoding="UTF-8" standalone="no"?>
<!DOCTYPE svg PUBLIC "-//W3C//DTD SVG 1.1//EN"
 "http://www.w3.org/Graphics/SVG/1.1/DTD/svg11.dtd">
<!-- Generated by graphviz version 5.0.1 (0)
 -->
<!-- Title: CLI::Option::check_name Pages: 1 -->
<svg width="294pt" height="78pt"
 viewBox="0.00 0.00 294.00 77.50" xmlns="http://www.w3.org/2000/svg" xmlns:xlink="http://www.w3.org/1999/xlink">
<g id="graph0" class="graph" transform="scale(1 1) rotate(0) translate(4 73.5)">
<title>CLI::Option::check_name</title>
<!-- Node1 -->
<g id="node1" class="node">
<title>Node1</title>
<g id="a_node1"><a xlink:title="Check a name. Requires &quot;&#45;&quot; or &quot;&#45;&#45;&quot; for short / long, supports positional name.">
<polygon fill="#bfbfbf" stroke="black" points="0,-22.5 0,-41.5 137,-41.5 137,-22.5 0,-22.5"/>
<text text-anchor="middle" x="68.5" y="-29.5" font-family="Helvetica,sans-Serif" font-size="10.00">CLI::Option::check_name</text>
</a>
</g>
</g>
<!-- Node2 -->
<g id="node2" class="node">
<title>Node2</title>
<g id="a_node2"><a xlink:href="namespaceCLI_1_1detail.html#a5359a7a0e33366a12e15523b100f591a" target="_top" xlink:title="remove underscores from a string">
<polygon fill="none" stroke="black" points="175,-39 175,-69 284,-69 284,-39 175,-39"/>
<text text-anchor="start" x="183" y="-57" font-family="Helvetica,sans-Serif" font-size="10.00">CLI::detail::remove</text>
<text text-anchor="middle" x="229.5" y="-46" font-family="Helvetica,sans-Serif" font-size="10.00">_underscore</text>
</a>
</g>
</g>
<!-- Node1&#45;&gt;Node2 -->
<g id="edge1" class="edge">
<title>Node1&#45;&gt;Node2</title>
<path fill="none" stroke="midnightblue" d="M137.39,-41.39C146.47,-42.65 155.75,-43.93 164.75,-45.18"/>
<polygon fill="midnightblue" stroke="midnightblue" points="164.38,-48.66 174.77,-46.57 165.34,-41.73 164.38,-48.66"/>
</g>
<!-- Node3 -->
<g id="node3" class="node">
<title>Node3</title>
<g id="a_node3"><a xlink:href="namespaceCLI_1_1detail.html#ae83709ec148057ec53df4383645727e9" target="_top" xlink:title="Return a lower case version of a string.">
<polygon fill="none" stroke="black" points="173,-0.5 173,-19.5 286,-19.5 286,-0.5 173,-0.5"/>
<text text-anchor="middle" x="229.5" y="-7.5" font-family="Helvetica,sans-Serif" font-size="10.00">CLI::detail::to_lower</text>
</a>
</g>
</g>
<!-- Node1&#45;&gt;Node3 -->
<g id="edge2" class="edge">
<title>Node1&#45;&gt;Node3</title>
<path fill="none" stroke="midnightblue" d="M137.39,-22.61C145.79,-21.44 154.37,-20.26 162.74,-19.1"/>
<polygon fill="midnightblue" stroke="midnightblue" points="163.39,-22.54 172.82,-17.7 162.43,-15.61 163.39,-22.54"/>
</g>
</g>
</svg>
