<?xml version="1.0" encoding="UTF-8" standalone="no"?>
<!DOCTYPE svg PUBLIC "-//W3C//DTD SVG 1.1//EN"
 "http://www.w3.org/Graphics/SVG/1.1/DTD/svg11.dtd">
<!-- Generated by graphviz version 5.0.1 (0)
 -->
<!-- Title: sisi4s::OneBodyRotation::run Pages: 1 -->
<svg width="642pt" height="182pt"
 viewBox="0.00 0.00 642.00 182.00" xmlns="http://www.w3.org/2000/svg" xmlns:xlink="http://www.w3.org/1999/xlink">
<g id="graph0" class="graph" transform="scale(1 1) rotate(0) translate(4 178)">
<title>sisi4s::OneBodyRotation::run</title>
<!-- Node1 -->
<g id="node1" class="node">
<title>Node1</title>
<g id="a_node1"><a xlink:title=" ">
<polygon fill="#999999" stroke="#666666" points="158,-96.5 0,-96.5 0,-77.5 158,-77.5 158,-96.5"/>
<text text-anchor="middle" x="79" y="-84.5" font-family="Helvetica,sans-Serif" font-size="10.00">sisi4s::OneBodyRotation::run</text>
</a>
</g>
</g>
<!-- Node2 -->
<g id="node2" class="node">
<title>Node2</title>
<g id="a_node2"><a xlink:href="classsisi4s_1_1Algorithm.html#a89f4af1584daed17ef628784e7e9c443" target="_top" xlink:title=" ">
<polygon fill="white" stroke="#666666" points="320,-174 194,-174 194,-144 320,-144 320,-174"/>
<text text-anchor="start" x="202" y="-162" font-family="Helvetica,sans-Serif" font-size="10.00">sisi4s::Algorithm::</text>
<text text-anchor="middle" x="257" y="-151" font-family="Helvetica,sans-Serif" font-size="10.00">checkArgumentsOrDie</text>
</a>
</g>
</g>
<!-- Node1&#45;&gt;Node2 -->
<g id="edge1" class="edge">
<title>Node1&#45;&gt;Node2</title>
<path fill="none" stroke="#63b8ff" d="M102.2,-96.57C125.12,-106.4 161.94,-122.05 194,-135 198.21,-136.7 202.58,-138.44 206.98,-140.18"/>
<polygon fill="#63b8ff" stroke="#63b8ff" points="205.99,-143.55 216.57,-143.94 208.54,-137.03 205.99,-143.55"/>
</g>
<!-- Node4 -->
<g id="node4" class="node">
<title>Node4</title>
<g id="a_node4"><a xlink:href="classsisi4s_1_1Algorithm.html#a5db14be3b0d33bf80218a37223e27667" target="_top" xlink:title=" ">
<polygon fill="white" stroke="#666666" points="314.5,-126 199.5,-126 199.5,-96 314.5,-96 314.5,-126"/>
<text text-anchor="start" x="207.5" y="-114" font-family="Helvetica,sans-Serif" font-size="10.00">sisi4s::Algorithm::</text>
<text text-anchor="middle" x="257" y="-103" font-family="Helvetica,sans-Serif" font-size="10.00">getIntegerArgument</text>
</a>
</g>
</g>
<!-- Node1&#45;&gt;Node4 -->
<g id="edge3" class="edge">
<title>Node1&#45;&gt;Node4</title>
<path fill="none" stroke="#63b8ff" d="M149.81,-96.52C162.76,-98.29 176.26,-100.13 189.12,-101.88"/>
<polygon fill="#63b8ff" stroke="#63b8ff" points="188.89,-105.38 199.27,-103.26 189.84,-98.45 188.89,-105.38"/>
</g>
<!-- Node8 -->
<g id="node8" class="node">
<title>Node8</title>
<g id="a_node8"><a xlink:href="classsisi4s_1_1Algorithm.html#a338a44c8fd4d6be3b32a6d5e71dfe180" target="_top" xlink:title=" ">
<polygon fill="white" stroke="#666666" points="313,-78 201,-78 201,-48 313,-48 313,-78"/>
<text text-anchor="start" x="209" y="-66" font-family="Helvetica,sans-Serif" font-size="10.00">sisi4s::Algorithm::</text>
<text text-anchor="middle" x="257" y="-55" font-family="Helvetica,sans-Serif" font-size="10.00">getTensorArgument</text>
</a>
</g>
</g>
<!-- Node1&#45;&gt;Node8 -->
<g id="edge7" class="edge">
<title>Node1&#45;&gt;Node8</title>
<path fill="none" stroke="#63b8ff" d="M149.81,-77.48C163.35,-75.63 177.49,-73.71 190.87,-71.88"/>
<polygon fill="#63b8ff" stroke="#63b8ff" points="191.49,-75.33 200.93,-70.51 190.55,-68.39 191.49,-75.33"/>
</g>
<!-- Node9 -->
<g id="node9" class="node">
<title>Node9</title>
<g id="a_node9"><a xlink:href="classsisi4s_1_1Algorithm.html#aec9041b31cb64a42ee1fd79d32774266" target="_top" xlink:title=" ">
<polygon fill="white" stroke="#666666" points="309,-30 205,-30 205,0 309,0 309,-30"/>
<text text-anchor="start" x="213" y="-18" font-family="Helvetica,sans-Serif" font-size="10.00">sisi4s::Algorithm::</text>
<text text-anchor="middle" x="257" y="-7" font-family="Helvetica,sans-Serif" font-size="10.00">isArgumentGiven</text>
</a>
</g>
</g>
<!-- Node1&#45;&gt;Node9 -->
<g id="edge10" class="edge">
<title>Node1&#45;&gt;Node9</title>
<path fill="none" stroke="#63b8ff" d="M102.2,-77.43C125.12,-67.6 161.94,-51.95 194,-39 198.21,-37.3 202.58,-35.56 206.98,-33.82"/>
<polygon fill="#63b8ff" stroke="#63b8ff" points="208.54,-36.97 216.57,-30.06 205.99,-30.45 208.54,-36.97"/>
</g>
<!-- Node3 -->
<g id="node3" class="node">
<title>Node3</title>
<g id="a_node3"><a xlink:href="classsisi4s_1_1Algorithm.html#acfd102240a53352574ed9b5632f1ef59" target="_top" xlink:title=" ">
<polygon fill="white" stroke="#666666" points="501,-174 358,-174 358,-144 501,-144 501,-174"/>
<text text-anchor="start" x="366" y="-162" font-family="Helvetica,sans-Serif" font-size="10.00">sisi4s::Algorithm::</text>
<text text-anchor="middle" x="429.5" y="-151" font-family="Helvetica,sans-Serif" font-size="10.00">getGivenArgumentNames</text>
</a>
</g>
</g>
<!-- Node2&#45;&gt;Node3 -->
<g id="edge2" class="edge">
<title>Node2&#45;&gt;Node3</title>
<path fill="none" stroke="#63b8ff" d="M320.04,-159C329.06,-159 338.45,-159 347.78,-159"/>
<polygon fill="#63b8ff" stroke="#63b8ff" points="347.84,-162.5 357.84,-159 347.84,-155.5 347.84,-162.5"/>
</g>
<!-- Node5 -->
<g id="node5" class="node">
<title>Node5</title>
<g id="a_node5"><a xlink:href="classsisi4s_1_1Algorithm.html#a1e53277220d32a33e20846267c253652" target="_top" xlink:title=" ">
<polygon fill="white" stroke="#666666" points="481.5,-80 377.5,-80 377.5,-50 481.5,-50 481.5,-80"/>
<text text-anchor="start" x="385.5" y="-68" font-family="Helvetica,sans-Serif" font-size="10.00">sisi4s::Algorithm::</text>
<text text-anchor="middle" x="429.5" y="-57" font-family="Helvetica,sans-Serif" font-size="10.00">getArgumentData</text>
</a>
</g>
</g>
<!-- Node4&#45;&gt;Node5 -->
<g id="edge4" class="edge">
<title>Node4&#45;&gt;Node5</title>
<path fill="none" stroke="#63b8ff" d="M313.83,-95.94C330.96,-91.32 349.89,-86.21 367.36,-81.5"/>
<polygon fill="#63b8ff" stroke="#63b8ff" points="368.71,-84.76 377.45,-78.77 366.88,-78 368.71,-84.76"/>
</g>
<!-- Node7 -->
<g id="node7" class="node">
<title>Node7</title>
<g id="a_node7"><a xlink:href="classsisi4s_1_1Data.html#a0ec0b1c7f2356fd43d82ee1dd0246789" target="_top" xlink:title=" ">
<polygon fill="white" stroke="#666666" points="503,-118.5 356,-118.5 356,-99.5 503,-99.5 503,-118.5"/>
<text text-anchor="middle" x="429.5" y="-106.5" font-family="Helvetica,sans-Serif" font-size="10.00">sisi4s::Data::getTypeName</text>
</a>
</g>
</g>
<!-- Node4&#45;&gt;Node7 -->
<g id="edge6" class="edge">
<title>Node4&#45;&gt;Node7</title>
<path fill="none" stroke="#63b8ff" d="M314.77,-110.33C324.76,-110.22 335.33,-110.09 345.85,-109.97"/>
<polygon fill="#63b8ff" stroke="#63b8ff" points="345.94,-113.47 355.9,-109.85 345.86,-106.47 345.94,-113.47"/>
</g>
<!-- Node6 -->
<g id="node6" class="node">
<title>Node6</title>
<g id="a_node6"><a xlink:href="classsisi4s_1_1Data.html#a5b4676e48b4f437d399587e6903f896a" target="_top" xlink:title=" ">
<polygon fill="white" stroke="#666666" points="634,-74.5 539,-74.5 539,-55.5 634,-55.5 634,-74.5"/>
<text text-anchor="middle" x="586.5" y="-62.5" font-family="Helvetica,sans-Serif" font-size="10.00">sisi4s::Data::get</text>
</a>
</g>
</g>
<!-- Node5&#45;&gt;Node6 -->
<g id="edge5" class="edge">
<title>Node5&#45;&gt;Node6</title>
<path fill="none" stroke="#63b8ff" d="M481.68,-65C496.66,-65 513.12,-65 528.43,-65"/>
<polygon fill="#63b8ff" stroke="#63b8ff" points="528.82,-68.5 538.82,-65 528.82,-61.5 528.82,-68.5"/>
</g>
<!-- Node8&#45;&gt;Node5 -->
<g id="edge8" class="edge">
<title>Node8&#45;&gt;Node5</title>
<path fill="none" stroke="#63b8ff" d="M313.36,-63.65C330.59,-63.85 349.69,-64.08 367.29,-64.28"/>
<polygon fill="#63b8ff" stroke="#63b8ff" points="367.42,-67.78 377.46,-64.4 367.51,-60.78 367.42,-67.78"/>
</g>
<!-- Node8&#45;&gt;Node7 -->
<g id="edge9" class="edge">
<title>Node8&#45;&gt;Node7</title>
<path fill="none" stroke="#63b8ff" d="M313.36,-77.93C336.02,-84.05 361.91,-91.04 383.4,-96.83"/>
<polygon fill="#63b8ff" stroke="#63b8ff" points="382.68,-100.26 393.24,-99.49 384.5,-93.5 382.68,-100.26"/>
</g>
</g>
</svg>
