<?xml version="1.0" encoding="UTF-8" standalone="no"?>
<!DOCTYPE svg PUBLIC "-//W3C//DTD SVG 1.1//EN"
 "http://www.w3.org/Graphics/SVG/1.1/DTD/svg11.dtd">
<!-- Generated by graphviz version 5.0.1 (0)
 -->
<!-- Title: sisi4s::UccsdAmplitudesFromCoulombIntegrals::run Pages: 1 -->
<svg width="914pt" height="303pt"
 viewBox="0.00 0.00 914.00 303.00" xmlns="http://www.w3.org/2000/svg" xmlns:xlink="http://www.w3.org/1999/xlink">
<g id="graph0" class="graph" transform="scale(1 1) rotate(0) translate(4 299)">
<title>sisi4s::UccsdAmplitudesFromCoulombIntegrals::run</title>
<!-- Node1 -->
<g id="node1" class="node">
<title>Node1</title>
<g id="a_node1"><a xlink:title="Calculates the energy of a ClusterSinglesDoubles algorithm.">
<polygon fill="#999999" stroke="#666666" points="160,-199 0,-199 0,-169 160,-169 160,-199"/>
<text text-anchor="start" x="8" y="-187" font-family="Helvetica,sans-Serif" font-size="10.00">sisi4s::UccsdAmplitudesFrom</text>
<text text-anchor="middle" x="80" y="-176" font-family="Helvetica,sans-Serif" font-size="10.00">CoulombIntegrals::run</text>
</a>
</g>
</g>
<!-- Node2 -->
<g id="node2" class="node">
<title>Node2</title>
<g id="a_node2"><a xlink:href="classsisi4s_1_1Algorithm.html#a89f4af1584daed17ef628784e7e9c443" target="_top" xlink:title=" ">
<polygon fill="white" stroke="#666666" points="352.5,-295 226.5,-295 226.5,-265 352.5,-265 352.5,-295"/>
<text text-anchor="start" x="234.5" y="-283" font-family="Helvetica,sans-Serif" font-size="10.00">sisi4s::Algorithm::</text>
<text text-anchor="middle" x="289.5" y="-272" font-family="Helvetica,sans-Serif" font-size="10.00">checkArgumentsOrDie</text>
</a>
</g>
</g>
<!-- Node1&#45;&gt;Node2 -->
<g id="edge1" class="edge">
<title>Node1&#45;&gt;Node2</title>
<path fill="none" stroke="#63b8ff" d="M101.13,-199.29C123.3,-215.47 160.52,-240.72 196,-256 202.6,-258.84 209.61,-261.41 216.71,-263.71"/>
<polygon fill="#63b8ff" stroke="#63b8ff" points="215.83,-267.1 226.42,-266.69 217.89,-260.41 215.83,-267.1"/>
</g>
<!-- Node4 -->
<g id="node4" class="node">
<title>Node4</title>
<g id="a_node4"><a xlink:href="classsisi4s_1_1UccsdAmplitudesFromCoulombIntegrals.html#ae3921eb9f91c5eb8ef4d9b10a140ae05" target="_top" xlink:title="Returns the abbreviation of the concrete algorithm, e.g. &quot;Ccd&quot;, &quot;Dcd&quot;.">
<polygon fill="white" stroke="#666666" points="383,-247 196,-247 196,-217 383,-217 383,-247"/>
<text text-anchor="start" x="204" y="-235" font-family="Helvetica,sans-Serif" font-size="10.00">sisi4s::UccsdAmplitudesFrom</text>
<text text-anchor="middle" x="289.5" y="-224" font-family="Helvetica,sans-Serif" font-size="10.00">CoulombIntegrals::getAbbreviation</text>
</a>
</g>
</g>
<!-- Node1&#45;&gt;Node4 -->
<g id="edge3" class="edge">
<title>Node1&#45;&gt;Node4</title>
<path fill="none" stroke="#63b8ff" d="M146.08,-199.06C167.52,-204.01 191.53,-209.57 213.64,-214.68"/>
<polygon fill="#63b8ff" stroke="#63b8ff" points="213.11,-218.15 223.65,-217 214.69,-211.33 213.11,-218.15"/>
</g>
<!-- Node5 -->
<g id="node5" class="node">
<title>Node5</title>
<g id="a_node5"><a xlink:href="classsisi4s_1_1Algorithm.html#a5db14be3b0d33bf80218a37223e27667" target="_top" xlink:title=" ">
<polygon fill="white" stroke="#666666" points="347,-199 232,-199 232,-169 347,-169 347,-199"/>
<text text-anchor="start" x="240" y="-187" font-family="Helvetica,sans-Serif" font-size="10.00">sisi4s::Algorithm::</text>
<text text-anchor="middle" x="289.5" y="-176" font-family="Helvetica,sans-Serif" font-size="10.00">getIntegerArgument</text>
</a>
</g>
</g>
<!-- Node1&#45;&gt;Node5 -->
<g id="edge4" class="edge">
<title>Node1&#45;&gt;Node5</title>
<path fill="none" stroke="#63b8ff" d="M160.04,-184C180.42,-184 202.16,-184 221.84,-184"/>
<polygon fill="#63b8ff" stroke="#63b8ff" points="221.93,-187.5 231.93,-184 221.93,-180.5 221.93,-187.5"/>
</g>
<!-- Node9 -->
<g id="node9" class="node">
<title>Node9</title>
<g id="a_node9"><a xlink:href="classsisi4s_1_1ClusterSinglesDoublesAlgorithm.html#a4a874bc6491b38c023de6936e298d2f0" target="_top" xlink:title="Calculates the energy of a ClusterSinglesDoubles algorithm.">
<polygon fill="white" stroke="#666666" points="369.5,-136 209.5,-136 209.5,-106 369.5,-106 369.5,-136"/>
<text text-anchor="start" x="217.5" y="-124" font-family="Helvetica,sans-Serif" font-size="10.00">sisi4s::ClusterSinglesDoubles</text>
<text text-anchor="middle" x="289.5" y="-113" font-family="Helvetica,sans-Serif" font-size="10.00">Algorithm::run</text>
</a>
</g>
</g>
<!-- Node1&#45;&gt;Node9 -->
<g id="edge8" class="edge">
<title>Node1&#45;&gt;Node9</title>
<path fill="none" stroke="#63b8ff" d="M130.44,-168.99C160.08,-159.99 197.95,-148.49 229.19,-139.01"/>
<polygon fill="#63b8ff" stroke="#63b8ff" points="230.53,-142.26 239.08,-136 228.5,-135.56 230.53,-142.26"/>
</g>
<!-- Node14 -->
<g id="node14" class="node">
<title>Node14</title>
<g id="a_node14"><a xlink:href="classsisi4s_1_1Algorithm.html#ae7d025ea18b3f0b91db42447c0617540" target="_top" xlink:title=" ">
<polygon fill="white" stroke="#666666" points="556,-30 442,-30 442,0 556,0 556,-30"/>
<text text-anchor="start" x="450" y="-18" font-family="Helvetica,sans-Serif" font-size="10.00">sisi4s::Algorithm::</text>
<text text-anchor="middle" x="499" y="-7" font-family="Helvetica,sans-Serif" font-size="10.00">setIntegerArgument</text>
</a>
</g>
</g>
<!-- Node1&#45;&gt;Node14 -->
<g id="edge15" class="edge">
<title>Node1&#45;&gt;Node14</title>
<path fill="none" stroke="#63b8ff" d="M96.8,-168.85C117.82,-149.49 156.9,-116.2 196,-97 272.46,-59.46 368.53,-37.15 431.52,-25.49"/>
<polygon fill="#63b8ff" stroke="#63b8ff" points="432.5,-28.87 441.72,-23.64 431.26,-21.98 432.5,-28.87"/>
</g>
<!-- Node3 -->
<g id="node3" class="node">
<title>Node3</title>
<g id="a_node3"><a xlink:href="classsisi4s_1_1Algorithm.html#acfd102240a53352574ed9b5632f1ef59" target="_top" xlink:title=" ">
<polygon fill="white" stroke="#666666" points="570.5,-295 427.5,-295 427.5,-265 570.5,-265 570.5,-295"/>
<text text-anchor="start" x="435.5" y="-283" font-family="Helvetica,sans-Serif" font-size="10.00">sisi4s::Algorithm::</text>
<text text-anchor="middle" x="499" y="-272" font-family="Helvetica,sans-Serif" font-size="10.00">getGivenArgumentNames</text>
</a>
</g>
</g>
<!-- Node2&#45;&gt;Node3 -->
<g id="edge2" class="edge">
<title>Node2&#45;&gt;Node3</title>
<path fill="none" stroke="#63b8ff" d="M352.76,-280C373.06,-280 395.9,-280 417.35,-280"/>
<polygon fill="#63b8ff" stroke="#63b8ff" points="417.42,-283.5 427.42,-280 417.42,-276.5 417.42,-283.5"/>
</g>
<!-- Node6 -->
<g id="node6" class="node">
<title>Node6</title>
<g id="a_node6"><a xlink:href="classsisi4s_1_1Algorithm.html#a1e53277220d32a33e20846267c253652" target="_top" xlink:title=" ">
<polygon fill="white" stroke="#666666" points="747,-97 643,-97 643,-67 747,-67 747,-97"/>
<text text-anchor="start" x="651" y="-85" font-family="Helvetica,sans-Serif" font-size="10.00">sisi4s::Algorithm::</text>
<text text-anchor="middle" x="695" y="-74" font-family="Helvetica,sans-Serif" font-size="10.00">getArgumentData</text>
</a>
</g>
</g>
<!-- Node5&#45;&gt;Node6 -->
<g id="edge5" class="edge">
<title>Node5&#45;&gt;Node6</title>
<path fill="none" stroke="#63b8ff" d="M347.01,-195.5C407.97,-204.92 506.08,-211.21 579,-173 602.62,-160.62 594.83,-142.44 615,-125 625.35,-116.05 637.88,-108.18 649.88,-101.71"/>
<polygon fill="#63b8ff" stroke="#63b8ff" points="651.63,-104.75 658.9,-97.04 648.41,-98.53 651.63,-104.75"/>
</g>
<!-- Node8 -->
<g id="node8" class="node">
<title>Node8</title>
<g id="a_node8"><a xlink:href="classsisi4s_1_1Data.html#a0ec0b1c7f2356fd43d82ee1dd0246789" target="_top" xlink:title=" ">
<polygon fill="white" stroke="#666666" points="572.5,-239.5 425.5,-239.5 425.5,-220.5 572.5,-220.5 572.5,-239.5"/>
<text text-anchor="middle" x="499" y="-227.5" font-family="Helvetica,sans-Serif" font-size="10.00">sisi4s::Data::getTypeName</text>
</a>
</g>
</g>
<!-- Node5&#45;&gt;Node8 -->
<g id="edge7" class="edge">
<title>Node5&#45;&gt;Node8</title>
<path fill="none" stroke="#63b8ff" d="M347.2,-196.57C377.71,-203.33 415.11,-211.62 445.03,-218.26"/>
<polygon fill="#63b8ff" stroke="#63b8ff" points="444.34,-221.69 454.86,-220.44 445.86,-214.86 444.34,-221.69"/>
</g>
<!-- Node7 -->
<g id="node7" class="node">
<title>Node7</title>
<g id="a_node7"><a xlink:href="classsisi4s_1_1Data.html#a5b4676e48b4f437d399587e6903f896a" target="_top" xlink:title=" ">
<polygon fill="white" stroke="#666666" points="906,-91.5 811,-91.5 811,-72.5 906,-72.5 906,-91.5"/>
<text text-anchor="middle" x="858.5" y="-79.5" font-family="Helvetica,sans-Serif" font-size="10.00">sisi4s::Data::get</text>
</a>
</g>
</g>
<!-- Node6&#45;&gt;Node7 -->
<g id="edge6" class="edge">
<title>Node6&#45;&gt;Node7</title>
<path fill="none" stroke="#63b8ff" d="M747.1,-82C764.17,-82 783.3,-82 800.77,-82"/>
<polygon fill="#63b8ff" stroke="#63b8ff" points="800.84,-85.5 810.84,-82 800.84,-78.5 800.84,-85.5"/>
</g>
<!-- Node9&#45;&gt;Node6 -->
<g id="edge9" class="edge">
<title>Node9&#45;&gt;Node6</title>
<path fill="none" stroke="#63b8ff" d="M369.74,-113.34C446.85,-105.89 562.39,-94.72 632.72,-87.92"/>
<polygon fill="#63b8ff" stroke="#63b8ff" points="633.14,-91.4 642.75,-86.95 632.46,-84.43 633.14,-91.4"/>
</g>
<!-- Node10 -->
<g id="node10" class="node">
<title>Node10</title>
<g id="a_node10"><a xlink:href="classsisi4s_1_1ClusterSinglesDoublesAlgorithm.html#ac4e86100aee3802ce4a75a737eff7ec0" target="_top" xlink:title=" ">
<polygon fill="white" stroke="#666666" points="579,-164 419,-164 419,-134 579,-134 579,-164"/>
<text text-anchor="start" x="427" y="-152" font-family="Helvetica,sans-Serif" font-size="10.00">sisi4s::ClusterSinglesDoubles</text>
<text text-anchor="middle" x="499" y="-141" font-family="Helvetica,sans-Serif" font-size="10.00">Algorithm::getDataName</text>
</a>
</g>
</g>
<!-- Node9&#45;&gt;Node10 -->
<g id="edge10" class="edge">
<title>Node9&#45;&gt;Node10</title>
<path fill="none" stroke="#63b8ff" d="M369.54,-131.67C382.41,-133.4 395.81,-135.21 408.9,-136.98"/>
<polygon fill="#63b8ff" stroke="#63b8ff" points="408.46,-140.45 418.84,-138.32 409.4,-133.51 408.46,-140.45"/>
</g>
<!-- Node12 -->
<g id="node12" class="node">
<title>Node12</title>
<g id="a_node12"><a xlink:href="classsisi4s_1_1Algorithm.html#af6f931ab83742cc23b4f4350d54a3fcd" target="_top" xlink:title=" ">
<polygon fill="white" stroke="#666666" points="551,-78 447,-78 447,-48 551,-48 551,-78"/>
<text text-anchor="start" x="455" y="-66" font-family="Helvetica,sans-Serif" font-size="10.00">sisi4s::Algorithm::</text>
<text text-anchor="middle" x="499" y="-55" font-family="Helvetica,sans-Serif" font-size="10.00">setRealArgument</text>
</a>
</g>
</g>
<!-- Node9&#45;&gt;Node12 -->
<g id="edge12" class="edge">
<title>Node9&#45;&gt;Node12</title>
<path fill="none" stroke="#63b8ff" d="M344.21,-105.99C372.58,-98.06 407.52,-88.29 436.92,-80.07"/>
<polygon fill="#63b8ff" stroke="#63b8ff" points="437.98,-83.41 446.66,-77.35 436.09,-76.67 437.98,-83.41"/>
</g>
<!-- Node11 -->
<g id="node11" class="node">
<title>Node11</title>
<g id="a_node11"><a xlink:href="classsisi4s_1_1ClusterSinglesDoublesAlgorithm.html#ab3f7208a643558d8c36324038e0d3130" target="_top" xlink:title="Returns the abbreviation of the concrete algorithm, e.g. &quot;Ccd&quot;, &quot;Dcd&quot;.">
<polygon fill="white" stroke="#666666" points="775,-164 615,-164 615,-134 775,-134 775,-164"/>
<text text-anchor="start" x="623" y="-152" font-family="Helvetica,sans-Serif" font-size="10.00">sisi4s::ClusterSinglesDoubles</text>
<text text-anchor="middle" x="695" y="-141" font-family="Helvetica,sans-Serif" font-size="10.00">Algorithm::getAbbreviation</text>
</a>
</g>
</g>
<!-- Node10&#45;&gt;Node11 -->
<g id="edge11" class="edge">
<title>Node10&#45;&gt;Node11</title>
<path fill="none" stroke="#63b8ff" d="M579.19,-149C587.53,-149 596.05,-149 604.5,-149"/>
<polygon fill="#63b8ff" stroke="#63b8ff" points="604.75,-152.5 614.75,-149 604.75,-145.5 604.75,-152.5"/>
</g>
<!-- Node12&#45;&gt;Node6 -->
<g id="edge13" class="edge">
<title>Node12&#45;&gt;Node6</title>
<path fill="none" stroke="#63b8ff" d="M551.22,-68.02C576.2,-70.46 606.43,-73.42 632.63,-75.99"/>
<polygon fill="#63b8ff" stroke="#63b8ff" points="632.53,-79.5 642.82,-76.99 633.21,-72.53 632.53,-79.5"/>
</g>
<!-- Node13 -->
<g id="node13" class="node">
<title>Node13</title>
<g id="a_node13"><a xlink:href="classsisi4s_1_1Data.html#a10819dce08cb4dd8d881b9fe02036d69" target="_top" xlink:title=" ">
<polygon fill="white" stroke="#666666" points="757.5,-46.5 632.5,-46.5 632.5,-27.5 757.5,-27.5 757.5,-46.5"/>
<text text-anchor="middle" x="695" y="-34.5" font-family="Helvetica,sans-Serif" font-size="10.00">sisi4s::Data::getName</text>
</a>
</g>
</g>
<!-- Node12&#45;&gt;Node13 -->
<g id="edge14" class="edge">
<title>Node12&#45;&gt;Node13</title>
<path fill="none" stroke="#63b8ff" d="M551.22,-56.13C573.03,-53.21 598.84,-49.75 622.48,-46.59"/>
<polygon fill="#63b8ff" stroke="#63b8ff" points="623.01,-50.05 632.46,-45.25 622.08,-43.11 623.01,-50.05"/>
</g>
<!-- Node14&#45;&gt;Node6 -->
<g id="edge16" class="edge">
<title>Node14&#45;&gt;Node6</title>
<path fill="none" stroke="#63b8ff" d="M553,-30.11C561.74,-32.89 570.67,-35.9 579,-39 595.41,-45.11 598.7,-48.61 615,-55 622.48,-57.93 630.43,-60.86 638.29,-63.65"/>
<polygon fill="#63b8ff" stroke="#63b8ff" points="637.2,-66.98 647.8,-66.98 639.51,-60.37 637.2,-66.98"/>
</g>
<!-- Node14&#45;&gt;Node13 -->
<g id="edge17" class="edge">
<title>Node14&#45;&gt;Node13</title>
<path fill="none" stroke="#63b8ff" d="M556.11,-21.36C576.69,-23.7 600.27,-26.37 622.05,-28.84"/>
<polygon fill="#63b8ff" stroke="#63b8ff" points="621.91,-32.35 632.24,-30 622.69,-25.39 621.91,-32.35"/>
</g>
</g>
</svg>
