<?xml version="1.0" encoding="UTF-8" standalone="no"?>
<!DOCTYPE svg PUBLIC "-//W3C//DTD SVG 1.1//EN"
 "http://www.w3.org/Graphics/SVG/1.1/DTD/svg11.dtd">
<!-- Generated by graphviz version 8.1.0 (0)
 -->
<!-- Title: CLI::App::enabled_by_default Pages: 1 -->
<svg width="246pt" height="68pt"
 viewBox="0.00 0.00 246.25 67.75" xmlns="http://www.w3.org/2000/svg" xmlns:xlink="http://www.w3.org/1999/xlink">
<g id="graph0" class="graph" transform="scale(1 1) rotate(0) translate(4 63.75)">
<title>CLI::App::enabled_by_default</title>
<!-- Node1 -->
<g id="Node000001" class="node">
<title>Node1</title>
<g id="a_Node000001"><a xlink:title=" ">
<polygon fill="#999999" stroke="#666666" points="238.25,-46.12 120.25,-46.12 120.25,-12.62 238.25,-12.62 238.25,-46.12"/>
<text text-anchor="start" x="128.25" y="-32.62" font-family="Helvetica,sans-Serif" font-size="10.00">CLI::App::enabled_by</text>
<text text-anchor="middle" x="179.25" y="-19.88" font-family="Helvetica,sans-Serif" font-size="10.00">_default</text>
</a>
</g>
</g>
<!-- Node2 -->
<g id="Node000002" class="node">
<title>Node2</title>
<g id="a_Node000002"><a xlink:href="namespaceCLI.html#ae611995dabf1e7d4a2480f1952ef6ba7" target="_top" xlink:title="Helper function to disable one option group/subcommand when another is used.">
<polygon fill="white" stroke="#666666" points="84.25,-59.75 0,-59.75 0,-39 84.25,-39 84.25,-59.75"/>
<text text-anchor="middle" x="42.12" y="-46.25" font-family="Helvetica,sans-Serif" font-size="10.00">CLI::TriggerOff</text>
</a>
</g>
</g>
<!-- Node1&#45;&gt;Node2 -->
<g id="edge1_Node000001_Node000002" class="edge">
<title>Node1&#45;&gt;Node2</title>
<g id="a_edge1_Node000001_Node000002"><a xlink:title=" ">
<path fill="none" stroke="#63b8ff" d="M109.16,-39.6C100.77,-40.84 92.41,-42.08 84.6,-43.24"/>
<polygon fill="#63b8ff" stroke="#63b8ff" points="109.39,-42.96 118.77,-38.03 108.36,-36.03 109.39,-42.96"/>
</a>
</g>
</g>
<!-- Node3 -->
<g id="Node000003" class="node">
<title>Node3</title>
<g id="a_Node000003"><a xlink:href="namespaceCLI.html#a495f418aefacfdfbe91642a18f60d77c" target="_top" xlink:title="Helper function to enable one option group/subcommand when another is used.">
<polygon fill="white" stroke="#666666" points="83.88,-20.75 0.38,-20.75 0.38,0 83.88,0 83.88,-20.75"/>
<text text-anchor="middle" x="42.12" y="-7.25" font-family="Helvetica,sans-Serif" font-size="10.00">CLI::TriggerOn</text>
</a>
</g>
</g>
<!-- Node1&#45;&gt;Node3 -->
<g id="edge2_Node000001_Node000003" class="edge">
<title>Node1&#45;&gt;Node3</title>
<g id="a_edge2_Node000001_Node000003"><a xlink:title=" ">
<path fill="none" stroke="#63b8ff" d="M109.03,-19.64C100.54,-18.45 92.09,-17.26 84.2,-16.15"/>
<polygon fill="#63b8ff" stroke="#63b8ff" points="108.38,-23.23 118.77,-21.15 109.35,-16.29 108.38,-23.23"/>
</a>
</g>
</g>
</g>
</svg>
