<?xml version="1.0" encoding="UTF-8" standalone="no"?>
<!DOCTYPE svg PUBLIC "-//W3C//DTD SVG 1.1//EN"
 "http://www.w3.org/Graphics/SVG/1.1/DTD/svg11.dtd">
<!-- Generated by graphviz version 5.0.1 (0)
 -->
<!-- Title: sisi4s::HartreeFockFromGaussian::run Pages: 1 -->
<svg width="725pt" height="369pt"
 viewBox="0.00 0.00 725.00 368.50" xmlns="http://www.w3.org/2000/svg" xmlns:xlink="http://www.w3.org/1999/xlink">
<g id="graph0" class="graph" transform="scale(1 1) rotate(0) translate(4 364.5)">
<title>sisi4s::HartreeFockFromGaussian::run</title>
<!-- Node1 -->
<g id="node1" class="node">
<title>Node1</title>
<g id="a_node1"><a xlink:title=" ">
<polygon fill="#999999" stroke="#666666" points="201,-173 0,-173 0,-154 201,-154 201,-173"/>
<text text-anchor="middle" x="100.5" y="-161" font-family="Helvetica,sans-Serif" font-size="10.00">sisi4s::HartreeFockFromGaussian::run</text>
</a>
</g>
</g>
<!-- Node2 -->
<g id="node2" class="node">
<title>Node2</title>
<g id="a_node2"><a xlink:href="classsisi4s_1_1Algorithm.html#a89f4af1584daed17ef628784e7e9c443" target="_top" xlink:title=" ">
<polygon fill="white" stroke="#666666" points="376,-360.5 250,-360.5 250,-330.5 376,-330.5 376,-360.5"/>
<text text-anchor="start" x="258" y="-348.5" font-family="Helvetica,sans-Serif" font-size="10.00">sisi4s::Algorithm::</text>
<text text-anchor="middle" x="313" y="-337.5" font-family="Helvetica,sans-Serif" font-size="10.00">checkArgumentsOrDie</text>
</a>
</g>
</g>
<!-- Node1&#45;&gt;Node2 -->
<g id="edge1" class="edge">
<title>Node1&#45;&gt;Node2</title>
<path fill="none" stroke="#63b8ff" d="M107.16,-173.3C123.58,-200.86 174.07,-279.74 237,-321.5 239.4,-323.09 241.92,-324.59 244.51,-325.99"/>
<polygon fill="#63b8ff" stroke="#63b8ff" points="243.06,-329.17 253.59,-330.4 246.12,-322.88 243.06,-329.17"/>
</g>
<!-- Node4 -->
<g id="node4" class="node">
<title>Node4</title>
<g id="a_node4"><a xlink:href="HartreeFockFromGaussian_8cxx.html#acefd08f3c04f11bed5bb670edebf3088" target="_top" xlink:title=" ">
<polygon fill="white" stroke="#666666" points="363,-312 263,-312 263,-293 363,-293 363,-312"/>
<text text-anchor="middle" x="313" y="-300" font-family="Helvetica,sans-Serif" font-size="10.00">eigenToCtfMatrix</text>
</a>
</g>
</g>
<!-- Node1&#45;&gt;Node4 -->
<g id="edge3" class="edge">
<title>Node1&#45;&gt;Node4</title>
<path fill="none" stroke="#63b8ff" d="M109.55,-173.3C128.96,-196.27 180.89,-253.83 237,-283.5 242.1,-286.2 247.59,-288.52 253.21,-290.52"/>
<polygon fill="#63b8ff" stroke="#63b8ff" points="252.14,-293.86 262.73,-293.6 254.29,-287.2 252.14,-293.86"/>
</g>
<!-- Node5 -->
<g id="node5" class="node">
<title>Node5</title>
<g id="a_node5"><a xlink:href="classsisi4s_1_1Algorithm.html#a5db14be3b0d33bf80218a37223e27667" target="_top" xlink:title=" ">
<polygon fill="white" stroke="#666666" points="370.5,-226.5 255.5,-226.5 255.5,-196.5 370.5,-196.5 370.5,-226.5"/>
<text text-anchor="start" x="263.5" y="-214.5" font-family="Helvetica,sans-Serif" font-size="10.00">sisi4s::Algorithm::</text>
<text text-anchor="middle" x="313" y="-203.5" font-family="Helvetica,sans-Serif" font-size="10.00">getIntegerArgument</text>
</a>
</g>
</g>
<!-- Node1&#45;&gt;Node5 -->
<g id="edge4" class="edge">
<title>Node1&#45;&gt;Node5</title>
<path fill="none" stroke="#63b8ff" d="M143.34,-173.04C172.46,-179.68 211.91,-188.68 245.33,-196.3"/>
<polygon fill="#63b8ff" stroke="#63b8ff" points="244.96,-199.8 255.49,-198.61 246.52,-192.98 244.96,-199.8"/>
</g>
<!-- Node9 -->
<g id="node9" class="node">
<title>Node9</title>
<g id="a_node9"><a xlink:href="HartreeFockFromGaussian_8cxx.html#a07b361d629f995b4df9d6b4724e4d68b" target="_top" xlink:title=" ">
<polygon fill="white" stroke="#666666" points="389,-130 237,-130 237,-111 389,-111 389,-130"/>
<text text-anchor="middle" x="313" y="-118" font-family="Helvetica,sans-Serif" font-size="10.00">getNuclearRepulsionEnergy</text>
</a>
</g>
</g>
<!-- Node1&#45;&gt;Node9 -->
<g id="edge8" class="edge">
<title>Node1&#45;&gt;Node9</title>
<path fill="none" stroke="#63b8ff" d="M148.22,-153.96C179.83,-147.5 221.77,-138.93 255.3,-132.08"/>
<polygon fill="#63b8ff" stroke="#63b8ff" points="256.32,-135.45 265.41,-130.02 254.92,-128.59 256.32,-135.45"/>
</g>
<!-- Node11 -->
<g id="node11" class="node">
<title>Node11</title>
<g id="a_node11"><a xlink:href="HartreeFockFromGaussian_8cxx.html#a6e3e58f018a24c4713011a2ea8ed72b6" target="_top" xlink:title=" ">
<polygon fill="white" stroke="#666666" points="375.5,-93 250.5,-93 250.5,-74 375.5,-74 375.5,-93"/>
<text text-anchor="middle" x="313" y="-81" font-family="Helvetica,sans-Serif" font-size="10.00">getOneBodyIntegrals_</text>
</a>
</g>
</g>
<!-- Node1&#45;&gt;Node11 -->
<g id="edge10" class="edge">
<title>Node1&#45;&gt;Node11</title>
<path fill="none" stroke="#63b8ff" d="M119.45,-153.92C144.97,-140.63 193.47,-116.52 237,-101.5 243.06,-99.41 249.48,-97.47 255.92,-95.7"/>
<polygon fill="#63b8ff" stroke="#63b8ff" points="257.2,-98.98 265.98,-93.05 255.42,-92.21 257.2,-98.98"/>
</g>
<!-- Node12 -->
<g id="node12" class="node">
<title>Node12</title>
<g id="a_node12"><a xlink:href="classsisi4s_1_1Algorithm.html#a36c632fbb19dae4ce2f415705fa5cbcb" target="_top" xlink:title=" ">
<polygon fill="white" stroke="#666666" points="365,-178.5 261,-178.5 261,-148.5 365,-148.5 365,-178.5"/>
<text text-anchor="start" x="269" y="-166.5" font-family="Helvetica,sans-Serif" font-size="10.00">sisi4s::Algorithm::</text>
<text text-anchor="middle" x="313" y="-155.5" font-family="Helvetica,sans-Serif" font-size="10.00">getRealArgument</text>
</a>
</g>
</g>
<!-- Node1&#45;&gt;Node12 -->
<g id="edge11" class="edge">
<title>Node1&#45;&gt;Node12</title>
<path fill="none" stroke="#63b8ff" d="M201.2,-163.5C217.95,-163.5 234.89,-163.5 250.31,-163.5"/>
<polygon fill="#63b8ff" stroke="#63b8ff" points="250.73,-167 260.73,-163.5 250.73,-160 250.73,-167"/>
</g>
<!-- Node15 -->
<g id="node15" class="node">
<title>Node15</title>
<g id="a_node15"><a xlink:href="classsisi4s_1_1Algorithm.html#a5e80a507fac066ab5714b62364cabaaf" target="_top" xlink:title=" ">
<polygon fill="white" stroke="#666666" points="365,-274.5 261,-274.5 261,-244.5 365,-244.5 365,-274.5"/>
<text text-anchor="start" x="269" y="-262.5" font-family="Helvetica,sans-Serif" font-size="10.00">sisi4s::Algorithm::</text>
<text text-anchor="middle" x="313" y="-251.5" font-family="Helvetica,sans-Serif" font-size="10.00">getTextArgument</text>
</a>
</g>
</g>
<!-- Node1&#45;&gt;Node15 -->
<g id="edge16" class="edge">
<title>Node1&#45;&gt;Node15</title>
<path fill="none" stroke="#63b8ff" d="M117.31,-173.1C142.14,-187.91 192.08,-216.56 237,-235.5 241.49,-237.39 246.18,-239.22 250.93,-240.97"/>
<polygon fill="#63b8ff" stroke="#63b8ff" points="250.13,-244.4 260.72,-244.44 252.46,-237.8 250.13,-244.4"/>
</g>
<!-- Node16 -->
<g id="node16" class="node">
<title>Node16</title>
<g id="a_node16"><a xlink:href="HartreeFockFromGaussian_8cxx.html#a0bc17e5e0f521dfa8b6ce489f75695ad" target="_top" xlink:title=" ">
<polygon fill="white" stroke="#666666" points="362,-56 264,-56 264,-37 362,-37 362,-56"/>
<text text-anchor="middle" x="313" y="-44" font-family="Helvetica,sans-Serif" font-size="10.00">getTwoBodyFock</text>
</a>
</g>
</g>
<!-- Node1&#45;&gt;Node16 -->
<g id="edge19" class="edge">
<title>Node1&#45;&gt;Node16</title>
<path fill="none" stroke="#63b8ff" d="M111.47,-153.99C132.75,-134.23 184.91,-88.6 237,-64.5 242.37,-62.01 248.13,-59.85 253.97,-57.97"/>
<polygon fill="#63b8ff" stroke="#63b8ff" points="255.23,-61.25 263.83,-55.07 253.25,-54.54 255.23,-61.25"/>
</g>
<!-- Node17 -->
<g id="node17" class="node">
<title>Node17</title>
<g id="a_node17"><a xlink:href="namespacesisi4s.html#ab2414ae2ca7d376f6379d91727cd66a1" target="_top" xlink:title=" ">
<polygon fill="white" stroke="#666666" points="372.5,-19 253.5,-19 253.5,0 372.5,0 372.5,-19"/>
<text text-anchor="middle" x="313" y="-7" font-family="Helvetica,sans-Serif" font-size="10.00">sisi4s::toEigenMatrix</text>
</a>
</g>
</g>
<!-- Node1&#45;&gt;Node17 -->
<g id="edge20" class="edge">
<title>Node1&#45;&gt;Node17</title>
<path fill="none" stroke="#63b8ff" d="M108.14,-153.81C125.87,-128.69 177.12,-61.1 237,-27.5 240.23,-25.69 243.63,-24.06 247.13,-22.59"/>
<polygon fill="#63b8ff" stroke="#63b8ff" points="248.44,-25.84 256.59,-19.08 246,-19.28 248.44,-25.84"/>
</g>
<!-- Node3 -->
<g id="node3" class="node">
<title>Node3</title>
<g id="a_node3"><a xlink:href="classsisi4s_1_1Algorithm.html#acfd102240a53352574ed9b5632f1ef59" target="_top" xlink:title=" ">
<polygon fill="white" stroke="#666666" points="577,-360.5 434,-360.5 434,-330.5 577,-330.5 577,-360.5"/>
<text text-anchor="start" x="442" y="-348.5" font-family="Helvetica,sans-Serif" font-size="10.00">sisi4s::Algorithm::</text>
<text text-anchor="middle" x="505.5" y="-337.5" font-family="Helvetica,sans-Serif" font-size="10.00">getGivenArgumentNames</text>
</a>
</g>
</g>
<!-- Node2&#45;&gt;Node3 -->
<g id="edge2" class="edge">
<title>Node2&#45;&gt;Node3</title>
<path fill="none" stroke="#63b8ff" d="M376.11,-345.5C391.25,-345.5 407.67,-345.5 423.55,-345.5"/>
<polygon fill="#63b8ff" stroke="#63b8ff" points="423.88,-349 433.88,-345.5 423.88,-342 423.88,-349"/>
</g>
<!-- Node6 -->
<g id="node6" class="node">
<title>Node6</title>
<g id="a_node6"><a xlink:href="classsisi4s_1_1Algorithm.html#a1e53277220d32a33e20846267c253652" target="_top" xlink:title=" ">
<polygon fill="white" stroke="#666666" points="557.5,-269.5 453.5,-269.5 453.5,-239.5 557.5,-239.5 557.5,-269.5"/>
<text text-anchor="start" x="461.5" y="-257.5" font-family="Helvetica,sans-Serif" font-size="10.00">sisi4s::Algorithm::</text>
<text text-anchor="middle" x="505.5" y="-246.5" font-family="Helvetica,sans-Serif" font-size="10.00">getArgumentData</text>
</a>
</g>
</g>
<!-- Node5&#45;&gt;Node6 -->
<g id="edge5" class="edge">
<title>Node5&#45;&gt;Node6</title>
<path fill="none" stroke="#63b8ff" d="M370.64,-224.28C393.58,-229.46 420.11,-235.45 443.47,-240.72"/>
<polygon fill="#63b8ff" stroke="#63b8ff" points="442.75,-244.15 453.27,-242.94 444.29,-237.32 442.75,-244.15"/>
</g>
<!-- Node8 -->
<g id="node8" class="node">
<title>Node8</title>
<g id="a_node8"><a xlink:href="classsisi4s_1_1Data.html#a0ec0b1c7f2356fd43d82ee1dd0246789" target="_top" xlink:title=" ">
<polygon fill="white" stroke="#666666" points="579,-221 432,-221 432,-202 579,-202 579,-221"/>
<text text-anchor="middle" x="505.5" y="-209" font-family="Helvetica,sans-Serif" font-size="10.00">sisi4s::Data::getTypeName</text>
</a>
</g>
</g>
<!-- Node5&#45;&gt;Node8 -->
<g id="edge7" class="edge">
<title>Node5&#45;&gt;Node8</title>
<path fill="none" stroke="#63b8ff" d="M370.64,-211.5C386.68,-211.5 404.49,-211.5 421.74,-211.5"/>
<polygon fill="#63b8ff" stroke="#63b8ff" points="421.81,-215 431.81,-211.5 421.81,-208 421.81,-215"/>
</g>
<!-- Node7 -->
<g id="node7" class="node">
<title>Node7</title>
<g id="a_node7"><a xlink:href="classsisi4s_1_1Data.html#a5b4676e48b4f437d399587e6903f896a" target="_top" xlink:title=" ">
<polygon fill="white" stroke="#666666" points="717,-264 622,-264 622,-245 717,-245 717,-264"/>
<text text-anchor="middle" x="669.5" y="-252" font-family="Helvetica,sans-Serif" font-size="10.00">sisi4s::Data::get</text>
</a>
</g>
</g>
<!-- Node6&#45;&gt;Node7 -->
<g id="edge6" class="edge">
<title>Node6&#45;&gt;Node7</title>
<path fill="none" stroke="#63b8ff" d="M557.76,-254.5C574.96,-254.5 594.24,-254.5 611.83,-254.5"/>
<polygon fill="#63b8ff" stroke="#63b8ff" points="611.97,-258 621.97,-254.5 611.97,-251 611.97,-258"/>
</g>
<!-- Node10 -->
<g id="node10" class="node">
<title>Node10</title>
<g id="a_node10"><a xlink:href="namespacesisi4s.html#a40947d88c4989cacff153a78af67f686" target="_top" xlink:title=" ">
<polygon fill="white" stroke="#666666" points="540,-87 471,-87 471,-68 540,-68 540,-87"/>
<text text-anchor="middle" x="505.5" y="-75" font-family="Helvetica,sans-Serif" font-size="10.00">sisi4s::sqrt</text>
</a>
</g>
</g>
<!-- Node9&#45;&gt;Node10 -->
<g id="edge9" class="edge">
<title>Node9&#45;&gt;Node10</title>
<path fill="none" stroke="#63b8ff" d="M356.28,-110.96C387.43,-103.92 429.68,-94.39 461.1,-87.3"/>
<polygon fill="#63b8ff" stroke="#63b8ff" points="461.91,-90.7 470.89,-85.09 460.37,-83.87 461.91,-90.7"/>
</g>
<!-- Node12&#45;&gt;Node6 -->
<g id="edge12" class="edge">
<title>Node12&#45;&gt;Node6</title>
<path fill="none" stroke="#63b8ff" d="M365.03,-175.51C373.42,-178.68 381.74,-182.62 389,-187.5 409.69,-201.4 404.2,-216.77 425,-230.5 430.74,-234.29 437.1,-237.5 443.65,-240.21"/>
<polygon fill="#63b8ff" stroke="#63b8ff" points="442.74,-243.61 453.34,-243.85 445.2,-237.06 442.74,-243.61"/>
</g>
<!-- Node12&#45;&gt;Node8 -->
<g id="edge15" class="edge">
<title>Node12&#45;&gt;Node8</title>
<path fill="none" stroke="#63b8ff" d="M365.06,-177.08C383.88,-182.02 405.39,-187.59 425,-192.5 434.4,-194.85 444.44,-197.3 454.11,-199.63"/>
<polygon fill="#63b8ff" stroke="#63b8ff" points="453.48,-203.07 464.02,-202 455.11,-196.27 453.48,-203.07"/>
</g>
<!-- Node13 -->
<g id="node13" class="node">
<title>Node13</title>
<g id="a_node13"><a xlink:href="classsisi4s_1_1Algorithm.html#a1cb9a5e8f19cd8e6b70bb06738ca9413" target="_top" xlink:title=" ">
<polygon fill="white" stroke="#666666" points="586,-183.5 425,-183.5 425,-153.5 586,-153.5 586,-183.5"/>
<text text-anchor="start" x="433" y="-171.5" font-family="Helvetica,sans-Serif" font-size="10.00">sisi4s::Algorithm::</text>
<text text-anchor="middle" x="505.5" y="-160.5" font-family="Helvetica,sans-Serif" font-size="10.00">getRealArgumentFromInteger</text>
</a>
</g>
</g>
<!-- Node12&#45;&gt;Node13 -->
<g id="edge13" class="edge">
<title>Node12&#45;&gt;Node13</title>
<path fill="none" stroke="#63b8ff" d="M365.05,-164.84C380.44,-165.24 397.8,-165.7 414.92,-166.15"/>
<polygon fill="#63b8ff" stroke="#63b8ff" points="414.86,-169.65 424.95,-166.41 415.05,-162.65 414.86,-169.65"/>
</g>
<!-- Node14 -->
<g id="node14" class="node">
<title>Node14</title>
<g id="a_node14"><a xlink:href="classsisi4s_1_1Algorithm.html#a89e59623f1c238a871a4fba19371be7d" target="_top" xlink:title=" ">
<polygon fill="white" stroke="#666666" points="584.5,-135.5 426.5,-135.5 426.5,-105.5 584.5,-105.5 584.5,-135.5"/>
<text text-anchor="start" x="434.5" y="-123.5" font-family="Helvetica,sans-Serif" font-size="10.00">sisi4s::Algorithm::</text>
<text text-anchor="middle" x="505.5" y="-112.5" font-family="Helvetica,sans-Serif" font-size="10.00">getRealArgumentFromTensor</text>
</a>
</g>
</g>
<!-- Node12&#45;&gt;Node14 -->
<g id="edge14" class="edge">
<title>Node12&#45;&gt;Node14</title>
<path fill="none" stroke="#63b8ff" d="M365.05,-151.98C384.36,-147.62 406.79,-142.55 427.94,-137.78"/>
<polygon fill="#63b8ff" stroke="#63b8ff" points="428.89,-141.15 437.88,-135.54 427.35,-134.33 428.89,-141.15"/>
</g>
<!-- Node15&#45;&gt;Node6 -->
<g id="edge17" class="edge">
<title>Node15&#45;&gt;Node6</title>
<path fill="none" stroke="#63b8ff" d="M365.05,-258.16C389.07,-257.53 417.92,-256.77 443.12,-256.11"/>
<polygon fill="#63b8ff" stroke="#63b8ff" points="443.4,-259.6 453.31,-255.84 443.22,-252.61 443.4,-259.6"/>
</g>
<!-- Node15&#45;&gt;Node8 -->
<g id="edge18" class="edge">
<title>Node15&#45;&gt;Node8</title>
<path fill="none" stroke="#63b8ff" d="M365.06,-245.92C383.88,-240.98 405.39,-235.41 425,-230.5 434.4,-228.15 444.44,-225.7 454.11,-223.37"/>
<polygon fill="#63b8ff" stroke="#63b8ff" points="455.11,-226.73 464.02,-221 453.48,-219.93 455.11,-226.73"/>
</g>
</g>
</svg>
