<?xml version="1.0" encoding="UTF-8" standalone="no"?>
<!DOCTYPE svg PUBLIC "-//W3C//DTD SVG 1.1//EN"
 "http://www.w3.org/Graphics/SVG/1.1/DTD/svg11.dtd">
<!-- Generated by graphviz version 7.0.0 (0)
 -->
<!-- Title: CLI::ParseError Pages: 1 -->
<svg width="1640pt" height="555pt"
 viewBox="0.00 0.00 1639.50 555.00" xmlns="http://www.w3.org/2000/svg" xmlns:xlink="http://www.w3.org/1999/xlink">
<g id="graph0" class="graph" transform="scale(1 1) rotate(0) translate(4 551)">
<title>CLI::ParseError</title>
<!-- Node1 -->
<g id="node1" class="node">
<title>Node1</title>
<g id="a_node1"><a xlink:title="Anything that can error in Parse.">
<polygon fill="#999999" stroke="#666666" points="883.5,-371 790.5,-371 790.5,-297 883.5,-297 883.5,-371"/>
<text text-anchor="middle" x="837" y="-359" font-family="Helvetica,sans-Serif" font-size="10.00">{CLI::ParseError</text>
<text text-anchor="start" x="798.5" y="-348" font-family="Helvetica,sans-Serif" font-size="10.00">||+ ParseError()</text>
<text text-anchor="start" x="798.5" y="-337" font-family="Helvetica,sans-Serif" font-size="10.00">+ ParseError()</text>
<text text-anchor="start" x="798.5" y="-326" font-family="Helvetica,sans-Serif" font-size="10.00"># ParseError()</text>
<text text-anchor="start" x="798.5" y="-315" font-family="Helvetica,sans-Serif" font-size="10.00"># ParseError()</text>
<text text-anchor="middle" x="837" y="-304" font-family="Helvetica,sans-Serif" font-size="10.00">}</text>
</a>
</g>
</g>
<!-- Node4 -->
<g id="node4" class="node">
<title>Node4</title>
<g id="a_node4"><a xlink:href="classCLI_1_1ArgumentMismatch.html" target="_top" xlink:title="Thrown when the wrong number of arguments has been received.">
<polygon fill="white" stroke="#666666" points="140,-261 0,-261 0,-121 140,-121 140,-261"/>
<text text-anchor="middle" x="70" y="-249" font-family="Helvetica,sans-Serif" font-size="10.00">{CLI::ArgumentMismatch</text>
<text text-anchor="start" x="8" y="-238" font-family="Helvetica,sans-Serif" font-size="10.00">||+ ArgumentMismatch()</text>
<text text-anchor="start" x="8" y="-227" font-family="Helvetica,sans-Serif" font-size="10.00">+ ArgumentMismatch()</text>
<text text-anchor="start" x="8" y="-216" font-family="Helvetica,sans-Serif" font-size="10.00">+ ArgumentMismatch()</text>
<text text-anchor="start" x="8" y="-205" font-family="Helvetica,sans-Serif" font-size="10.00">+ ArgumentMismatch()</text>
<text text-anchor="start" x="8" y="-194" font-family="Helvetica,sans-Serif" font-size="10.00">+ AtLeast()</text>
<text text-anchor="start" x="8" y="-183" font-family="Helvetica,sans-Serif" font-size="10.00">+ AtMost()</text>
<text text-anchor="start" x="8" y="-172" font-family="Helvetica,sans-Serif" font-size="10.00">+ TypedAtLeast()</text>
<text text-anchor="start" x="8" y="-161" font-family="Helvetica,sans-Serif" font-size="10.00">+ FlagOverride()</text>
<text text-anchor="start" x="8" y="-150" font-family="Helvetica,sans-Serif" font-size="10.00"># ArgumentMismatch()</text>
<text text-anchor="start" x="8" y="-139" font-family="Helvetica,sans-Serif" font-size="10.00"># ArgumentMismatch()</text>
<text text-anchor="middle" x="70" y="-128" font-family="Helvetica,sans-Serif" font-size="10.00">}</text>
</a>
</g>
</g>
<!-- Node1&#45;&gt;Node4 -->
<g id="edge3" class="edge">
<title>Node1&#45;&gt;Node4</title>
<path fill="none" stroke="#63b8ff" d="M778.78,-331.4C634.07,-326.72 261.68,-310.12 149,-261 146,-259.69 143.02,-258.22 140.09,-256.63"/>
<polygon fill="none" stroke="#63b8ff" points="778.4,-334.89 788.51,-331.71 778.63,-327.9 778.4,-334.89"/>
</g>
<!-- Node5 -->
<g id="node5" class="node">
<title>Node5</title>
<g id="a_node5"><a xlink:href="classCLI_1_1ConfigError.html" target="_top" xlink:title="Thrown when extra values are found in an INI file.">
<polygon fill="white" stroke="#666666" points="272,-244.5 158,-244.5 158,-137.5 272,-137.5 272,-244.5"/>
<text text-anchor="middle" x="215" y="-232.5" font-family="Helvetica,sans-Serif" font-size="10.00">{CLI::ConfigError</text>
<text text-anchor="start" x="166" y="-221.5" font-family="Helvetica,sans-Serif" font-size="10.00">||+ ConfigError()</text>
<text text-anchor="start" x="166" y="-210.5" font-family="Helvetica,sans-Serif" font-size="10.00">+ ConfigError()</text>
<text text-anchor="start" x="166" y="-199.5" font-family="Helvetica,sans-Serif" font-size="10.00">+ ConfigError()</text>
<text text-anchor="start" x="166" y="-188.5" font-family="Helvetica,sans-Serif" font-size="10.00">+ Extras()</text>
<text text-anchor="start" x="166" y="-177.5" font-family="Helvetica,sans-Serif" font-size="10.00">+ NotConfigurable()</text>
<text text-anchor="start" x="166" y="-166.5" font-family="Helvetica,sans-Serif" font-size="10.00"># ConfigError()</text>
<text text-anchor="start" x="166" y="-155.5" font-family="Helvetica,sans-Serif" font-size="10.00"># ConfigError()</text>
<text text-anchor="middle" x="215" y="-144.5" font-family="Helvetica,sans-Serif" font-size="10.00">}</text>
</a>
</g>
</g>
<!-- Node1&#45;&gt;Node5 -->
<g id="edge4" class="edge">
<title>Node1&#45;&gt;Node5</title>
<path fill="none" stroke="#63b8ff" d="M779.05,-330.36C654.86,-323.93 367.34,-304.66 281,-261 272.72,-256.81 264.9,-251.15 257.74,-244.87"/>
<polygon fill="none" stroke="#63b8ff" points="778.52,-333.84 788.68,-330.85 778.87,-326.85 778.52,-333.84"/>
</g>
<!-- Node6 -->
<g id="node6" class="node">
<title>Node6</title>
<g id="a_node6"><a xlink:href="classCLI_1_1ConversionError.html" target="_top" xlink:title="Thrown when conversion call back fails, such as when an int fails to coerce to a string.">
<polygon fill="white" stroke="#666666" points="420,-255.5 290,-255.5 290,-126.5 420,-126.5 420,-255.5"/>
<text text-anchor="middle" x="355" y="-243.5" font-family="Helvetica,sans-Serif" font-size="10.00">{CLI::ConversionError</text>
<text text-anchor="start" x="298" y="-232.5" font-family="Helvetica,sans-Serif" font-size="10.00">||+ ConversionError()</text>
<text text-anchor="start" x="298" y="-221.5" font-family="Helvetica,sans-Serif" font-size="10.00">+ ConversionError()</text>
<text text-anchor="start" x="298" y="-210.5" font-family="Helvetica,sans-Serif" font-size="10.00">+ ConversionError()</text>
<text text-anchor="start" x="298" y="-199.5" font-family="Helvetica,sans-Serif" font-size="10.00">+ ConversionError()</text>
<text text-anchor="start" x="298" y="-188.5" font-family="Helvetica,sans-Serif" font-size="10.00">+ ConversionError()</text>
<text text-anchor="start" x="298" y="-177.5" font-family="Helvetica,sans-Serif" font-size="10.00">+ TooManyInputsFlag()</text>
<text text-anchor="start" x="298" y="-166.5" font-family="Helvetica,sans-Serif" font-size="10.00">+ TrueFalse()</text>
<text text-anchor="start" x="298" y="-155.5" font-family="Helvetica,sans-Serif" font-size="10.00"># ConversionError()</text>
<text text-anchor="start" x="298" y="-144.5" font-family="Helvetica,sans-Serif" font-size="10.00"># ConversionError()</text>
<text text-anchor="middle" x="355" y="-133.5" font-family="Helvetica,sans-Serif" font-size="10.00">}</text>
</a>
</g>
</g>
<!-- Node1&#45;&gt;Node6 -->
<g id="edge5" class="edge">
<title>Node1&#45;&gt;Node6</title>
<path fill="none" stroke="#63b8ff" d="M778.94,-332.95C696.79,-330.68 543.85,-318.27 429,-261 425.86,-259.43 422.75,-257.69 419.7,-255.81"/>
<polygon fill="none" stroke="#63b8ff" points="778.7,-336.44 788.78,-333.17 778.86,-329.45 778.7,-336.44"/>
</g>
<!-- Node7 -->
<g id="node7" class="node">
<title>Node7</title>
<g id="a_node7"><a xlink:href="classCLI_1_1ExcludesError.html" target="_top" xlink:title="Thrown when an excludes option is present.">
<polygon fill="white" stroke="#666666" points="548,-233.5 438,-233.5 438,-148.5 548,-148.5 548,-233.5"/>
<text text-anchor="middle" x="493" y="-221.5" font-family="Helvetica,sans-Serif" font-size="10.00">{CLI::ExcludesError</text>
<text text-anchor="start" x="446" y="-210.5" font-family="Helvetica,sans-Serif" font-size="10.00">||+ ExcludesError()</text>
<text text-anchor="start" x="446" y="-199.5" font-family="Helvetica,sans-Serif" font-size="10.00">+ ExcludesError()</text>
<text text-anchor="start" x="446" y="-188.5" font-family="Helvetica,sans-Serif" font-size="10.00">+ ExcludesError()</text>
<text text-anchor="start" x="446" y="-177.5" font-family="Helvetica,sans-Serif" font-size="10.00"># ExcludesError()</text>
<text text-anchor="start" x="446" y="-166.5" font-family="Helvetica,sans-Serif" font-size="10.00"># ExcludesError()</text>
<text text-anchor="middle" x="493" y="-155.5" font-family="Helvetica,sans-Serif" font-size="10.00">}</text>
</a>
</g>
</g>
<!-- Node1&#45;&gt;Node7 -->
<g id="edge6" class="edge">
<title>Node1&#45;&gt;Node7</title>
<path fill="none" stroke="#63b8ff" d="M778.64,-327.7C719.29,-320.18 626.43,-302.37 557,-261 545.07,-253.89 534.01,-243.9 524.55,-233.72"/>
<polygon fill="none" stroke="#63b8ff" points="778.2,-331.18 788.54,-328.89 779.03,-324.23 778.2,-331.18"/>
</g>
<!-- Node8 -->
<g id="node8" class="node">
<title>Node8</title>
<g id="a_node8"><a xlink:href="classCLI_1_1ExtrasError.html" target="_top" xlink:title="Thrown when too many positionals or options are found.">
<polygon fill="white" stroke="#666666" points="664,-239 566,-239 566,-143 664,-143 664,-239"/>
<text text-anchor="middle" x="615" y="-227" font-family="Helvetica,sans-Serif" font-size="10.00">{CLI::ExtrasError</text>
<text text-anchor="start" x="574" y="-216" font-family="Helvetica,sans-Serif" font-size="10.00">||+ ExtrasError()</text>
<text text-anchor="start" x="574" y="-205" font-family="Helvetica,sans-Serif" font-size="10.00">+ ExtrasError()</text>
<text text-anchor="start" x="574" y="-194" font-family="Helvetica,sans-Serif" font-size="10.00">+ ExtrasError()</text>
<text text-anchor="start" x="574" y="-183" font-family="Helvetica,sans-Serif" font-size="10.00">+ ExtrasError()</text>
<text text-anchor="start" x="574" y="-172" font-family="Helvetica,sans-Serif" font-size="10.00"># ExtrasError()</text>
<text text-anchor="start" x="574" y="-161" font-family="Helvetica,sans-Serif" font-size="10.00"># ExtrasError()</text>
<text text-anchor="middle" x="615" y="-150" font-family="Helvetica,sans-Serif" font-size="10.00">}</text>
</a>
</g>
</g>
<!-- Node1&#45;&gt;Node8 -->
<g id="edge7" class="edge">
<title>Node1&#45;&gt;Node8</title>
<path fill="none" stroke="#63b8ff" d="M779.69,-315.18C746.52,-303.15 705.12,-285.05 673,-261 664.73,-254.81 656.87,-247.22 649.76,-239.38"/>
<polygon fill="none" stroke="#63b8ff" points="778.13,-318.34 788.73,-318.37 780.46,-311.74 778.13,-318.34"/>
</g>
<!-- Node9 -->
<g id="node9" class="node">
<title>Node9</title>
<g id="a_node9"><a xlink:href="classCLI_1_1FileError.html" target="_top" xlink:title="Thrown when parsing an INI file and it is missing.">
<polygon fill="white" stroke="#666666" points="766,-239 682,-239 682,-143 766,-143 766,-239"/>
<text text-anchor="middle" x="724" y="-227" font-family="Helvetica,sans-Serif" font-size="10.00">{CLI::FileError</text>
<text text-anchor="start" x="690" y="-216" font-family="Helvetica,sans-Serif" font-size="10.00">||+ FileError()</text>
<text text-anchor="start" x="690" y="-205" font-family="Helvetica,sans-Serif" font-size="10.00">+ FileError()</text>
<text text-anchor="start" x="690" y="-194" font-family="Helvetica,sans-Serif" font-size="10.00">+ FileError()</text>
<text text-anchor="start" x="690" y="-183" font-family="Helvetica,sans-Serif" font-size="10.00">+ Missing()</text>
<text text-anchor="start" x="690" y="-172" font-family="Helvetica,sans-Serif" font-size="10.00"># FileError()</text>
<text text-anchor="start" x="690" y="-161" font-family="Helvetica,sans-Serif" font-size="10.00"># FileError()</text>
<text text-anchor="middle" x="724" y="-150" font-family="Helvetica,sans-Serif" font-size="10.00">}</text>
</a>
</g>
</g>
<!-- Node1&#45;&gt;Node9 -->
<g id="edge8" class="edge">
<title>Node1&#45;&gt;Node9</title>
<path fill="none" stroke="#63b8ff" d="M797.45,-288.11C789.88,-279.23 782.1,-269.9 775,-261 769.52,-254.13 763.85,-246.76 758.38,-239.49"/>
<polygon fill="none" stroke="#63b8ff" points="794.77,-290.36 803.94,-295.67 800.08,-285.8 794.77,-290.36"/>
</g>
<!-- Node10 -->
<g id="node10" class="node">
<title>Node10</title>
<g id="a_node10"><a xlink:href="classCLI_1_1HorribleError.html" target="_top" xlink:title=" ">
<polygon fill="white" stroke="#666666" points="890,-233.5 784,-233.5 784,-148.5 890,-148.5 890,-233.5"/>
<text text-anchor="middle" x="837" y="-221.5" font-family="Helvetica,sans-Serif" font-size="10.00">{CLI::HorribleError</text>
<text text-anchor="start" x="792" y="-210.5" font-family="Helvetica,sans-Serif" font-size="10.00">||+ HorribleError()</text>
<text text-anchor="start" x="792" y="-199.5" font-family="Helvetica,sans-Serif" font-size="10.00">+ HorribleError()</text>
<text text-anchor="start" x="792" y="-188.5" font-family="Helvetica,sans-Serif" font-size="10.00">+ HorribleError()</text>
<text text-anchor="start" x="792" y="-177.5" font-family="Helvetica,sans-Serif" font-size="10.00"># HorribleError()</text>
<text text-anchor="start" x="792" y="-166.5" font-family="Helvetica,sans-Serif" font-size="10.00"># HorribleError()</text>
<text text-anchor="middle" x="837" y="-155.5" font-family="Helvetica,sans-Serif" font-size="10.00">}</text>
</a>
</g>
</g>
<!-- Node1&#45;&gt;Node10 -->
<g id="edge9" class="edge">
<title>Node1&#45;&gt;Node10</title>
<path fill="none" stroke="#63b8ff" d="M837,-285.49C837,-268.78 837,-250.15 837,-233.93"/>
<polygon fill="none" stroke="#63b8ff" points="833.5,-285.18 837,-295.18 840.5,-285.18 833.5,-285.18"/>
</g>
<!-- Node11 -->
<g id="node11" class="node">
<title>Node11</title>
<g id="a_node11"><a xlink:href="classCLI_1_1InvalidError.html" target="_top" xlink:title="Thrown when validation fails before parsing.">
<polygon fill="white" stroke="#666666" points="1008,-233.5 908,-233.5 908,-148.5 1008,-148.5 1008,-233.5"/>
<text text-anchor="middle" x="958" y="-221.5" font-family="Helvetica,sans-Serif" font-size="10.00">{CLI::InvalidError</text>
<text text-anchor="start" x="916" y="-210.5" font-family="Helvetica,sans-Serif" font-size="10.00">||+ InvalidError()</text>
<text text-anchor="start" x="916" y="-199.5" font-family="Helvetica,sans-Serif" font-size="10.00">+ InvalidError()</text>
<text text-anchor="start" x="916" y="-188.5" font-family="Helvetica,sans-Serif" font-size="10.00">+ InvalidError()</text>
<text text-anchor="start" x="916" y="-177.5" font-family="Helvetica,sans-Serif" font-size="10.00"># InvalidError()</text>
<text text-anchor="start" x="916" y="-166.5" font-family="Helvetica,sans-Serif" font-size="10.00"># InvalidError()</text>
<text text-anchor="middle" x="958" y="-155.5" font-family="Helvetica,sans-Serif" font-size="10.00">}</text>
</a>
</g>
</g>
<!-- Node1&#45;&gt;Node11 -->
<g id="edge10" class="edge">
<title>Node1&#45;&gt;Node11</title>
<path fill="none" stroke="#63b8ff" d="M875.56,-288.27C883.33,-279.24 891.43,-269.82 899,-261 906.49,-252.27 914.51,-242.91 922.14,-233.98"/>
<polygon fill="none" stroke="#63b8ff" points="873.11,-285.75 869.24,-295.62 878.41,-290.32 873.11,-285.75"/>
</g>
<!-- Node12 -->
<g id="node12" class="node">
<title>Node12</title>
<g id="a_node12"><a xlink:href="classCLI_1_1RequiredError.html" target="_top" xlink:title="Thrown when a required option is missing.">
<polygon fill="white" stroke="#666666" points="1136,-244.5 1026,-244.5 1026,-137.5 1136,-137.5 1136,-244.5"/>
<text text-anchor="middle" x="1081" y="-232.5" font-family="Helvetica,sans-Serif" font-size="10.00">{CLI::RequiredError</text>
<text text-anchor="start" x="1034" y="-221.5" font-family="Helvetica,sans-Serif" font-size="10.00">||+ RequiredError()</text>
<text text-anchor="start" x="1034" y="-210.5" font-family="Helvetica,sans-Serif" font-size="10.00">+ RequiredError()</text>
<text text-anchor="start" x="1034" y="-199.5" font-family="Helvetica,sans-Serif" font-size="10.00">+ RequiredError()</text>
<text text-anchor="start" x="1034" y="-188.5" font-family="Helvetica,sans-Serif" font-size="10.00">+ Subcommand()</text>
<text text-anchor="start" x="1034" y="-177.5" font-family="Helvetica,sans-Serif" font-size="10.00">+ Option()</text>
<text text-anchor="start" x="1034" y="-166.5" font-family="Helvetica,sans-Serif" font-size="10.00"># RequiredError()</text>
<text text-anchor="start" x="1034" y="-155.5" font-family="Helvetica,sans-Serif" font-size="10.00"># RequiredError()</text>
<text text-anchor="middle" x="1081" y="-144.5" font-family="Helvetica,sans-Serif" font-size="10.00">}</text>
</a>
</g>
</g>
<!-- Node1&#45;&gt;Node12 -->
<g id="edge11" class="edge">
<title>Node1&#45;&gt;Node12</title>
<path fill="none" stroke="#63b8ff" d="M894.39,-317.23C931.42,-305.38 979.5,-286.75 1017,-261 1023.87,-256.28 1030.54,-250.71 1036.82,-244.8"/>
<polygon fill="none" stroke="#63b8ff" points="893.72,-313.77 885.21,-320.09 895.8,-320.46 893.72,-313.77"/>
</g>
<!-- Node13 -->
<g id="node13" class="node">
<title>Node13</title>
<g id="a_node13"><a xlink:href="classCLI_1_1RequiresError.html" target="_top" xlink:title="Thrown when a requires option is missing.">
<polygon fill="white" stroke="#666666" points="1264,-233.5 1154,-233.5 1154,-148.5 1264,-148.5 1264,-233.5"/>
<text text-anchor="middle" x="1209" y="-221.5" font-family="Helvetica,sans-Serif" font-size="10.00">{CLI::RequiresError</text>
<text text-anchor="start" x="1162" y="-210.5" font-family="Helvetica,sans-Serif" font-size="10.00">||+ RequiresError()</text>
<text text-anchor="start" x="1162" y="-199.5" font-family="Helvetica,sans-Serif" font-size="10.00">+ RequiresError()</text>
<text text-anchor="start" x="1162" y="-188.5" font-family="Helvetica,sans-Serif" font-size="10.00">+ RequiresError()</text>
<text text-anchor="start" x="1162" y="-177.5" font-family="Helvetica,sans-Serif" font-size="10.00"># RequiresError()</text>
<text text-anchor="start" x="1162" y="-166.5" font-family="Helvetica,sans-Serif" font-size="10.00"># RequiresError()</text>
<text text-anchor="middle" x="1209" y="-155.5" font-family="Helvetica,sans-Serif" font-size="10.00">}</text>
</a>
</g>
</g>
<!-- Node1&#45;&gt;Node13 -->
<g id="edge12" class="edge">
<title>Node1&#45;&gt;Node13</title>
<path fill="none" stroke="#63b8ff" d="M895.17,-329.54C960.03,-323.48 1066.16,-306.8 1145,-261 1157.01,-254.02 1168.1,-244.07 1177.56,-233.89"/>
<polygon fill="none" stroke="#63b8ff" points="895.12,-326.03 885.46,-330.39 895.73,-333.01 895.12,-326.03"/>
</g>
<!-- Node14 -->
<g id="node14" class="node">
<title>Node14</title>
<g id="a_node14"><a xlink:href="classCLI_1_1RuntimeError.html" target="_top" xlink:title="Does not output a diagnostic in CLI11_PARSE, but allows main() to return with a specific error code.">
<polygon fill="white" stroke="#666666" points="1390,-233.5 1282,-233.5 1282,-148.5 1390,-148.5 1390,-233.5"/>
<text text-anchor="middle" x="1336" y="-221.5" font-family="Helvetica,sans-Serif" font-size="10.00">{CLI::RuntimeError</text>
<text text-anchor="start" x="1290" y="-210.5" font-family="Helvetica,sans-Serif" font-size="10.00">||+ RuntimeError()</text>
<text text-anchor="start" x="1290" y="-199.5" font-family="Helvetica,sans-Serif" font-size="10.00">+ RuntimeError()</text>
<text text-anchor="start" x="1290" y="-188.5" font-family="Helvetica,sans-Serif" font-size="10.00">+ RuntimeError()</text>
<text text-anchor="start" x="1290" y="-177.5" font-family="Helvetica,sans-Serif" font-size="10.00"># RuntimeError()</text>
<text text-anchor="start" x="1290" y="-166.5" font-family="Helvetica,sans-Serif" font-size="10.00"># RuntimeError()</text>
<text text-anchor="middle" x="1336" y="-155.5" font-family="Helvetica,sans-Serif" font-size="10.00">}</text>
</a>
</g>
</g>
<!-- Node1&#45;&gt;Node14 -->
<g id="edge13" class="edge">
<title>Node1&#45;&gt;Node14</title>
<path fill="none" stroke="#63b8ff" d="M895.16,-328.14C998.37,-318.74 1208.72,-295.89 1273,-261 1285.4,-254.27 1296.65,-244.14 1306.1,-233.71"/>
<polygon fill="none" stroke="#63b8ff" points="894.87,-324.65 885.23,-329.03 895.5,-331.62 894.87,-324.65"/>
</g>
<!-- Node15 -->
<g id="node15" class="node">
<title>Node15</title>
<g id="a_node15"><a xlink:href="classCLI_1_1Success.html" target="_top" xlink:title="This is a successful completion on parsing, supposed to exit.">
<polygon fill="white" stroke="#666666" points="1491.5,-233.5 1408.5,-233.5 1408.5,-148.5 1491.5,-148.5 1491.5,-233.5"/>
<text text-anchor="middle" x="1450" y="-221.5" font-family="Helvetica,sans-Serif" font-size="10.00">{CLI::Success</text>
<text text-anchor="start" x="1416.5" y="-210.5" font-family="Helvetica,sans-Serif" font-size="10.00">||+ Success()</text>
<text text-anchor="start" x="1416.5" y="-199.5" font-family="Helvetica,sans-Serif" font-size="10.00">+ Success()</text>
<text text-anchor="start" x="1416.5" y="-188.5" font-family="Helvetica,sans-Serif" font-size="10.00">+ Success()</text>
<text text-anchor="start" x="1416.5" y="-177.5" font-family="Helvetica,sans-Serif" font-size="10.00"># Success()</text>
<text text-anchor="start" x="1416.5" y="-166.5" font-family="Helvetica,sans-Serif" font-size="10.00"># Success()</text>
<text text-anchor="middle" x="1450" y="-155.5" font-family="Helvetica,sans-Serif" font-size="10.00">}</text>
</a>
</g>
</g>
<!-- Node1&#45;&gt;Node15 -->
<g id="edge14" class="edge">
<title>Node1&#45;&gt;Node15</title>
<path fill="none" stroke="#63b8ff" d="M895.09,-331.27C1021,-326.62 1314.48,-310.62 1399,-261 1410.18,-254.44 1419.65,-244.37 1427.28,-233.93"/>
<polygon fill="none" stroke="#63b8ff" points="895.19,-327.76 885.32,-331.62 895.44,-334.76 895.19,-327.76"/>
</g>
<!-- Node19 -->
<g id="node19" class="node">
<title>Node19</title>
<g id="a_node19"><a xlink:href="classCLI_1_1ValidationError.html" target="_top" xlink:title="Thrown when validation of results fails.">
<polygon fill="white" stroke="#666666" points="1626,-239 1510,-239 1510,-143 1626,-143 1626,-239"/>
<text text-anchor="middle" x="1568" y="-227" font-family="Helvetica,sans-Serif" font-size="10.00">{CLI::ValidationError</text>
<text text-anchor="start" x="1518" y="-216" font-family="Helvetica,sans-Serif" font-size="10.00">||+ ValidationError()</text>
<text text-anchor="start" x="1518" y="-205" font-family="Helvetica,sans-Serif" font-size="10.00">+ ValidationError()</text>
<text text-anchor="start" x="1518" y="-194" font-family="Helvetica,sans-Serif" font-size="10.00">+ ValidationError()</text>
<text text-anchor="start" x="1518" y="-183" font-family="Helvetica,sans-Serif" font-size="10.00">+ ValidationError()</text>
<text text-anchor="start" x="1518" y="-172" font-family="Helvetica,sans-Serif" font-size="10.00"># ValidationError()</text>
<text text-anchor="start" x="1518" y="-161" font-family="Helvetica,sans-Serif" font-size="10.00"># ValidationError()</text>
<text text-anchor="middle" x="1568" y="-150" font-family="Helvetica,sans-Serif" font-size="10.00">}</text>
</a>
</g>
</g>
<!-- Node1&#45;&gt;Node19 -->
<g id="edge18" class="edge">
<title>Node1&#45;&gt;Node19</title>
<path fill="none" stroke="#63b8ff" d="M895.27,-331.65C1036.6,-327.57 1393.8,-312.36 1500,-261 1511.05,-255.65 1521.33,-247.75 1530.38,-239.17"/>
<polygon fill="none" stroke="#63b8ff" points="895.28,-328.14 885.38,-331.92 895.48,-335.14 895.28,-328.14"/>
</g>
<!-- Node2 -->
<g id="node2" class="node">
<title>Node2</title>
<g id="a_node2"><a xlink:href="classCLI_1_1Error.html" target="_top" xlink:title="All errors derive from this one.">
<polygon fill="white" stroke="#666666" points="892,-481 782,-481 782,-407 892,-407 892,-481"/>
<text text-anchor="middle" x="837" y="-469" font-family="Helvetica,sans-Serif" font-size="10.00">{CLI::Error</text>
<text text-anchor="start" x="790" y="-458" font-family="Helvetica,sans-Serif" font-size="10.00">||+ get_exit_code()</text>
<text text-anchor="start" x="790" y="-447" font-family="Helvetica,sans-Serif" font-size="10.00">+ get_name()</text>
<text text-anchor="start" x="790" y="-436" font-family="Helvetica,sans-Serif" font-size="10.00">+ Error()</text>
<text text-anchor="start" x="790" y="-425" font-family="Helvetica,sans-Serif" font-size="10.00">+ Error()</text>
<text text-anchor="middle" x="837" y="-414" font-family="Helvetica,sans-Serif" font-size="10.00">}</text>
</a>
</g>
</g>
<!-- Node2&#45;&gt;Node1 -->
<g id="edge1" class="edge">
<title>Node2&#45;&gt;Node1</title>
<path fill="none" stroke="#63b8ff" d="M837,-395.5C837,-387.4 837,-379.1 837,-371.35"/>
<polygon fill="none" stroke="#63b8ff" points="833.5,-395.22 837,-405.22 840.5,-395.22 833.5,-395.22"/>
</g>
<!-- Node3 -->
<g id="node3" class="node">
<title>Node3</title>
<g id="a_node3"><a xlink:title=" ">
<polygon fill="white" stroke="#666666" points="892,-547 782,-547 782,-517 892,-517 892,-547"/>
<text text-anchor="middle" x="837" y="-535" font-family="Helvetica,sans-Serif" font-size="10.00">{std::runtime_error</text>
<text text-anchor="middle" x="837" y="-524" font-family="Helvetica,sans-Serif" font-size="10.00">||}</text>
</a>
</g>
</g>
<!-- Node3&#45;&gt;Node2 -->
<g id="edge2" class="edge">
<title>Node3&#45;&gt;Node2</title>
<path fill="none" stroke="#63b8ff" d="M837,-505.5C837,-497.97 837,-489.57 837,-481.49"/>
<polygon fill="none" stroke="#63b8ff" points="833.5,-505.29 837,-515.29 840.5,-505.29 833.5,-505.29"/>
</g>
<!-- Node16 -->
<g id="node16" class="node">
<title>Node16</title>
<g id="a_node16"><a xlink:href="classCLI_1_1CallForAllHelp.html" target="_top" xlink:title="Usually something like –help&#45;all on command line.">
<polygon fill="white" stroke="#666666" points="1381.5,-85 1268.5,-85 1268.5,0 1381.5,0 1381.5,-85"/>
<text text-anchor="middle" x="1325" y="-73" font-family="Helvetica,sans-Serif" font-size="10.00">{CLI::CallForAllHelp</text>
<text text-anchor="start" x="1276.5" y="-62" font-family="Helvetica,sans-Serif" font-size="10.00">||+ CallForAllHelp()</text>
<text text-anchor="start" x="1276.5" y="-51" font-family="Helvetica,sans-Serif" font-size="10.00">+ CallForAllHelp()</text>
<text text-anchor="start" x="1276.5" y="-40" font-family="Helvetica,sans-Serif" font-size="10.00">+ CallForAllHelp()</text>
<text text-anchor="start" x="1276.5" y="-29" font-family="Helvetica,sans-Serif" font-size="10.00"># CallForAllHelp()</text>
<text text-anchor="start" x="1276.5" y="-18" font-family="Helvetica,sans-Serif" font-size="10.00"># CallForAllHelp()</text>
<text text-anchor="middle" x="1325" y="-7" font-family="Helvetica,sans-Serif" font-size="10.00">}</text>
</a>
</g>
</g>
<!-- Node15&#45;&gt;Node16 -->
<g id="edge15" class="edge">
<title>Node15&#45;&gt;Node16</title>
<path fill="none" stroke="#63b8ff" d="M1413.5,-139.08C1408.74,-132.9 1403.83,-126.74 1399,-121 1388.94,-109.04 1377.51,-96.59 1366.7,-85.25"/>
<polygon fill="none" stroke="#63b8ff" points="1410.61,-141.06 1419.44,-146.91 1416.18,-136.83 1410.61,-141.06"/>
</g>
<!-- Node17 -->
<g id="node17" class="node">
<title>Node17</title>
<g id="a_node17"><a xlink:href="classCLI_1_1CallForHelp.html" target="_top" xlink:title="&#45;h or –help on command line">
<polygon fill="white" stroke="#666666" points="1500,-85 1400,-85 1400,0 1500,0 1500,-85"/>
<text text-anchor="middle" x="1450" y="-73" font-family="Helvetica,sans-Serif" font-size="10.00">{CLI::CallForHelp</text>
<text text-anchor="start" x="1408" y="-62" font-family="Helvetica,sans-Serif" font-size="10.00">||+ CallForHelp()</text>
<text text-anchor="start" x="1408" y="-51" font-family="Helvetica,sans-Serif" font-size="10.00">+ CallForHelp()</text>
<text text-anchor="start" x="1408" y="-40" font-family="Helvetica,sans-Serif" font-size="10.00">+ CallForHelp()</text>
<text text-anchor="start" x="1408" y="-29" font-family="Helvetica,sans-Serif" font-size="10.00"># CallForHelp()</text>
<text text-anchor="start" x="1408" y="-18" font-family="Helvetica,sans-Serif" font-size="10.00"># CallForHelp()</text>
<text text-anchor="middle" x="1450" y="-7" font-family="Helvetica,sans-Serif" font-size="10.00">}</text>
</a>
</g>
</g>
<!-- Node15&#45;&gt;Node17 -->
<g id="edge16" class="edge">
<title>Node15&#45;&gt;Node17</title>
<path fill="none" stroke="#63b8ff" d="M1450,-136.65C1450,-119.8 1450,-101.43 1450,-85.49"/>
<polygon fill="none" stroke="#63b8ff" points="1446.5,-136.51 1450,-146.51 1453.5,-136.51 1446.5,-136.51"/>
</g>
<!-- Node18 -->
<g id="node18" class="node">
<title>Node18</title>
<g id="a_node18"><a xlink:href="classCLI_1_1CallForVersion.html" target="_top" xlink:title="&#45;v or –version on command line">
<polygon fill="white" stroke="#666666" points="1631.5,-85 1518.5,-85 1518.5,0 1631.5,0 1631.5,-85"/>
<text text-anchor="middle" x="1575" y="-73" font-family="Helvetica,sans-Serif" font-size="10.00">{CLI::CallForVersion</text>
<text text-anchor="start" x="1526.5" y="-62" font-family="Helvetica,sans-Serif" font-size="10.00">||+ CallForVersion()</text>
<text text-anchor="start" x="1526.5" y="-51" font-family="Helvetica,sans-Serif" font-size="10.00">+ CallForVersion()</text>
<text text-anchor="start" x="1526.5" y="-40" font-family="Helvetica,sans-Serif" font-size="10.00">+ CallForVersion()</text>
<text text-anchor="start" x="1526.5" y="-29" font-family="Helvetica,sans-Serif" font-size="10.00"># CallForVersion()</text>
<text text-anchor="start" x="1526.5" y="-18" font-family="Helvetica,sans-Serif" font-size="10.00"># CallForVersion()</text>
<text text-anchor="middle" x="1575" y="-7" font-family="Helvetica,sans-Serif" font-size="10.00">}</text>
</a>
</g>
</g>
<!-- Node15&#45;&gt;Node18 -->
<g id="edge17" class="edge">
<title>Node15&#45;&gt;Node18</title>
<path fill="none" stroke="#63b8ff" d="M1486.5,-139.08C1491.26,-132.9 1496.17,-126.74 1501,-121 1511.06,-109.04 1522.49,-96.59 1533.3,-85.25"/>
<polygon fill="none" stroke="#63b8ff" points="1483.82,-136.83 1480.56,-146.91 1489.39,-141.06 1483.82,-136.83"/>
</g>
</g>
</svg>
