<?xml version="1.0" encoding="UTF-8" standalone="no"?>
<!DOCTYPE svg PUBLIC "-//W3C//DTD SVG 1.1//EN"
 "http://www.w3.org/Graphics/SVG/1.1/DTD/svg11.dtd">
<!-- Generated by graphviz version 8.1.0 (0)
 -->
<!-- Title: sisi4s::PQRSCoulombIntegralsToVertex Pages: 1 -->
<svg width="485pt" height="725pt"
 viewBox="0.00 0.00 484.50 725.25" xmlns="http://www.w3.org/2000/svg" xmlns:xlink="http://www.w3.org/1999/xlink">
<g id="graph0" class="graph" transform="scale(1 1) rotate(0) translate(4 721.25)">
<title>sisi4s::PQRSCoulombIntegralsToVertex</title>
<!-- Node1 -->
<g id="Node000001" class="node">
<title>Node1</title>
<g id="a_Node000001"><a xlink:title=" ">
<polygon fill="#999999" stroke="none" points="237,-113 47,-113 47,0 237,0 237,-113"/>
<text text-anchor="start" x="68.88" y="-99.5" font-family="Helvetica,sans-Serif" font-size="10.00">sisi4s::PQRSCoulombIntegrals</text>
<text text-anchor="start" x="121" y="-86.75" font-family="Helvetica,sans-Serif" font-size="10.00">ToVertex</text>
<text text-anchor="start" x="140.5" y="-70.5" font-family="Helvetica,sans-Serif" font-size="10.00"> </text>
<text text-anchor="start" x="50.88" y="-54.5" font-family="Helvetica,sans-Serif" font-size="10.00">+</text>
<text text-anchor="start" x="63" y="-54.5" font-family="Helvetica,sans-Serif" font-size="10.00">getName()</text>
<text text-anchor="start" x="50.88" y="-38.5" font-family="Helvetica,sans-Serif" font-size="10.00">+</text>
<text text-anchor="start" x="63" y="-38.5" font-family="Helvetica,sans-Serif" font-size="10.00">PQRSCoulombIntegralsToVertex()</text>
<text text-anchor="start" x="50.88" y="-22.5" font-family="Helvetica,sans-Serif" font-size="10.00">+</text>
<text text-anchor="start" x="63" y="-22.5" font-family="Helvetica,sans-Serif" font-size="10.00">~PQRSCoulombIntegralsToVertex()</text>
<text text-anchor="start" x="50.88" y="-6.5" font-family="Helvetica,sans-Serif" font-size="10.00">+</text>
<text text-anchor="start" x="63" y="-6.5" font-family="Helvetica,sans-Serif" font-size="10.00">run()</text>
<polygon fill="#666666" stroke="#666666" points="47,-82 47,-82 237,-82 237,-82 47,-82"/>
<polygon fill="#666666" stroke="#666666" points="47,-66 47,-66 237,-66 237,-66 47,-66"/>
<polygon fill="none" stroke="#666666" points="47,0 47,-113 237,-113 237,0 47,0"/>
</a>
</g>
</g>
<!-- Node2 -->
<g id="Node000002" class="node">
<title>Node2</title>
<g id="a_Node000002"><a xlink:href="classsisi4s_1_1Algorithm.html" target="_top" xlink:title=" ">
<polygon fill="white" stroke="none" points="172,-469.75 0,-469.75 0,-161.75 172,-161.75 172,-469.75"/>
<text text-anchor="start" x="45.12" y="-456.25" font-family="Helvetica,sans-Serif" font-size="10.00">sisi4s::Algorithm</text>
<text text-anchor="start" x="3.88" y="-440.25" font-family="Helvetica,sans-Serif" font-size="10.00">+</text>
<text text-anchor="start" x="16" y="-440.25" font-family="Helvetica,sans-Serif" font-size="10.00">note</text>
<text text-anchor="start" x="3.88" y="-424.25" font-family="Helvetica,sans-Serif" font-size="10.00">+</text>
<text text-anchor="start" x="16" y="-424.25" font-family="Helvetica,sans-Serif" font-size="10.00">fallible</text>
<text text-anchor="start" x="3.88" y="-408.25" font-family="Helvetica,sans-Serif" font-size="10.00">#</text>
<text text-anchor="start" x="16" y="-408.25" font-family="Helvetica,sans-Serif" font-size="10.00">arguments</text>
<text text-anchor="start" x="3.88" y="-392.25" font-family="Helvetica,sans-Serif" font-size="10.00">+</text>
<text text-anchor="start" x="16" y="-392.25" font-family="Helvetica,sans-Serif" font-size="10.00">Algorithm()</text>
<text text-anchor="start" x="3.88" y="-376.25" font-family="Helvetica,sans-Serif" font-size="10.00">+</text>
<text text-anchor="start" x="16" y="-376.25" font-family="Helvetica,sans-Serif" font-size="10.00">~Algorithm()</text>
<text text-anchor="start" x="3.88" y="-360.25" font-family="Helvetica,sans-Serif" font-size="10.00">+</text>
<text text-anchor="start" x="16" y="-360.25" font-family="Helvetica,sans-Serif" font-size="10.00">getName()</text>
<text text-anchor="start" x="3.88" y="-344.25" font-family="Helvetica,sans-Serif" font-size="10.00">+</text>
<text text-anchor="start" x="16" y="-344.25" font-family="Helvetica,sans-Serif" font-size="10.00">run()</text>
<text text-anchor="start" x="3.88" y="-328.25" font-family="Helvetica,sans-Serif" font-size="10.00">+</text>
<text text-anchor="start" x="16" y="-328.25" font-family="Helvetica,sans-Serif" font-size="10.00">dryRun()</text>
<text text-anchor="start" x="3.88" y="-312.25" font-family="Helvetica,sans-Serif" font-size="10.00">+</text>
<text text-anchor="start" x="16" y="-312.25" font-family="Helvetica,sans-Serif" font-size="10.00">isArgumentGiven()</text>
<text text-anchor="start" x="3.88" y="-296.25" font-family="Helvetica,sans-Serif" font-size="10.00">+</text>
<text text-anchor="start" x="16" y="-296.25" font-family="Helvetica,sans-Serif" font-size="10.00">getTextArgument()</text>
<text text-anchor="start" x="3.88" y="-280.25" font-family="Helvetica,sans-Serif" font-size="10.00">+</text>
<text text-anchor="start" x="16" y="-280.25" font-family="Helvetica,sans-Serif" font-size="10.00">getTextArgument()</text>
<text text-anchor="start" x="3.88" y="-264.25" font-family="Helvetica,sans-Serif" font-size="10.00">+</text>
<text text-anchor="start" x="16" y="-264.25" font-family="Helvetica,sans-Serif" font-size="10.00">getBooleanArgument()</text>
<text text-anchor="start" x="3.88" y="-248.25" font-family="Helvetica,sans-Serif" font-size="10.00">+</text>
<text text-anchor="start" x="16" y="-248.25" font-family="Helvetica,sans-Serif" font-size="10.00">getBooleanArgument()</text>
<text text-anchor="start" x="16" y="-232.25" font-family="Helvetica,sans-Serif" font-size="10.00">and 12 more...</text>
<text text-anchor="start" x="3.88" y="-216.25" font-family="Helvetica,sans-Serif" font-size="10.00">#</text>
<text text-anchor="start" x="16" y="-216.25" font-family="Helvetica,sans-Serif" font-size="10.00">getRealArgumentFromInteger()</text>
<text text-anchor="start" x="3.88" y="-200.25" font-family="Helvetica,sans-Serif" font-size="10.00">#</text>
<text text-anchor="start" x="16" y="-200.25" font-family="Helvetica,sans-Serif" font-size="10.00">getRealArgumentFromTensor()</text>
<text text-anchor="start" x="3.88" y="-184.25" font-family="Helvetica,sans-Serif" font-size="10.00">#</text>
<text text-anchor="start" x="16" y="-184.25" font-family="Helvetica,sans-Serif" font-size="10.00">getTensorArgumentFromReal()</text>
<text text-anchor="start" x="3.88" y="-168.25" font-family="Helvetica,sans-Serif" font-size="10.00">#</text>
<text text-anchor="start" x="16" y="-168.25" font-family="Helvetica,sans-Serif" font-size="10.00">getArgumentData()</text>
<polygon fill="#666666" stroke="#666666" points="0,-451.75 0,-451.75 172,-451.75 172,-451.75 0,-451.75"/>
<polygon fill="#666666" stroke="#666666" points="0,-403.75 0,-403.75 14,-403.75 14,-403.75 0,-403.75"/>
<polygon fill="#666666" stroke="#666666" points="14,-403.75 14,-403.75 172,-403.75 172,-403.75 14,-403.75"/>
<polygon fill="none" stroke="#666666" points="0,-161.75 0,-469.75 172,-469.75 172,-161.75 0,-161.75"/>
</a>
</g>
</g>
<!-- Node2&#45;&gt;Node1 -->
<g id="edge1_Node000001_Node000002" class="edge">
<title>Node2&#45;&gt;Node1</title>
<g id="a_edge1_Node000001_Node000002"><a xlink:title=" ">
<path fill="none" stroke="#63b8ff" d="M121.59,-151.26C124.55,-137.66 127.39,-124.63 129.96,-112.83"/>
<polygon fill="none" stroke="#63b8ff" points="118.01,-150.25 119.3,-160.76 124.85,-151.74 118.01,-150.25"/>
</a>
</g>
</g>
<!-- Node3 -->
<g id="Node000003" class="node">
<title>Node3</title>
<g id="a_Node000003"><a xlink:href="classsisi4s_1_1AlgorithmRegistrar.html" target="_top" xlink:title=" ">
<polygon fill="white" stroke="none" points="368,-354.75 190,-354.75 190,-276.75 368,-276.75 368,-354.75"/>
<text text-anchor="start" x="195" y="-341.25" font-family="Helvetica,sans-Serif" font-size="10.00">sisi4s::AlgorithmRegistrar</text>
<text text-anchor="start" x="195" y="-328.5" font-family="Helvetica,sans-Serif" font-size="10.00">&lt; sisi4s::PQRSCoulombIntegralsTo</text>
<text text-anchor="start" x="257.62" y="-315.75" font-family="Helvetica,sans-Serif" font-size="10.00">Vertex &gt;</text>
<text text-anchor="start" x="277.5" y="-299.25" font-family="Helvetica,sans-Serif" font-size="10.00"> </text>
<text text-anchor="start" x="208.38" y="-283.25" font-family="Helvetica,sans-Serif" font-size="10.00">+</text>
<text text-anchor="start" x="235" y="-283.25" font-family="Helvetica,sans-Serif" font-size="10.00">AlgorithmRegistrar()</text>
<polygon fill="#666666" stroke="#666666" points="190,-310.75 190,-310.75 368,-310.75 368,-310.75 190,-310.75"/>
<polygon fill="#666666" stroke="#666666" points="190,-294.75 190,-294.75 368,-294.75 368,-294.75 190,-294.75"/>
<polygon fill="none" stroke="#666666" points="190,-276.75 190,-354.75 368,-354.75 368,-276.75 190,-276.75"/>
</a>
</g>
</g>
<!-- Node3&#45;&gt;Node1 -->
<g id="edge2_Node000001_Node000003" class="edge">
<title>Node3&#45;&gt;Node1</title>
<g id="a_edge2_Node000001_Node000003"><a xlink:title=" ">
<path fill="none" stroke="#63b8ff" d="M258.79,-276.79C237.42,-236.68 203.32,-172.64 177.46,-124.09"/>
<polygon fill="none" stroke="#63b8ff" points="177.48,-124.12 171.13,-120.71 171.84,-113.53 178.19,-116.95 177.48,-124.12"/>
</a>
</g>
<text text-anchor="middle" x="214.88" y="-134.25" font-family="Helvetica,sans-Serif" font-size="10.00" fill="grey"> +registrar_</text>
</g>
<!-- Node4 -->
<g id="Node000004" class="node">
<title>Node4</title>
<g id="a_Node000004"><a xlink:href="classsisi4s_1_1AlgorithmFactory.html" target="_top" xlink:title=" ">
<polygon fill="white" stroke="none" points="306.5,-717.25 179.5,-717.25 179.5,-633.25 306.5,-633.25 306.5,-717.25"/>
<text text-anchor="start" x="184.5" y="-703.75" font-family="Helvetica,sans-Serif" font-size="10.00">sisi4s::AlgorithmFactory</text>
<text text-anchor="start" x="183.88" y="-687.75" font-family="Helvetica,sans-Serif" font-size="10.00">#</text>
<text text-anchor="start" x="196.5" y="-687.75" font-family="Helvetica,sans-Serif" font-size="10.00">algorithmMap</text>
<text text-anchor="start" x="183.88" y="-671.75" font-family="Helvetica,sans-Serif" font-size="10.00">+</text>
<text text-anchor="start" x="196.5" y="-671.75" font-family="Helvetica,sans-Serif" font-size="10.00">create()</text>
<text text-anchor="start" x="183.88" y="-655.75" font-family="Helvetica,sans-Serif" font-size="10.00">+</text>
<text text-anchor="start" x="196.5" y="-655.75" font-family="Helvetica,sans-Serif" font-size="10.00">getAlgorithmNames()</text>
<text text-anchor="start" x="183.88" y="-639.75" font-family="Helvetica,sans-Serif" font-size="10.00">#</text>
<text text-anchor="start" x="196.5" y="-639.75" font-family="Helvetica,sans-Serif" font-size="10.00">getAlgorithmMap()</text>
<polygon fill="#666666" stroke="#666666" points="179.5,-699.25 179.5,-699.25 306.5,-699.25 306.5,-699.25 179.5,-699.25"/>
<polygon fill="#666666" stroke="#666666" points="179.5,-683.25 179.5,-683.25 194.5,-683.25 194.5,-683.25 179.5,-683.25"/>
<polygon fill="#666666" stroke="#666666" points="194.5,-683.25 194.5,-683.25 306.5,-683.25 306.5,-683.25 194.5,-683.25"/>
<polygon fill="none" stroke="#666666" points="179.5,-633.25 179.5,-717.25 306.5,-717.25 306.5,-633.25 179.5,-633.25"/>
</a>
</g>
</g>
<!-- Node4&#45;&gt;Node3 -->
<g id="edge3_Node000003_Node000004" class="edge">
<title>Node4&#45;&gt;Node3</title>
<g id="a_edge3_Node000003_Node000004"><a xlink:title=" ">
<path fill="none" stroke="darkgreen" d="M244.46,-622.66C245.5,-595.43 247.22,-561.49 250,-531.25 255.71,-469.13 266.21,-397.38 272.88,-354.61"/>
<polygon fill="none" stroke="darkgreen" points="240.93,-622.38 244.07,-632.5 247.93,-622.64 240.93,-622.38"/>
</a>
</g>
</g>
<!-- Node5 -->
<g id="Node000005" class="node">
<title>Node5</title>
<g id="a_Node000005"><a xlink:href="classsisi4s_1_1AlgorithmRegistrar.html" target="_top" xlink:title="Class to be statically instantiated by an algorithm to register it in the AlgorithmFactory....">
<polygon fill="white" stroke="none" points="395,-596.25 259,-596.25 259,-531.25 395,-531.25 395,-596.25"/>
<text text-anchor="start" x="264" y="-582.75" font-family="Helvetica,sans-Serif" font-size="10.00">sisi4s::AlgorithmRegistrar</text>
<text text-anchor="start" x="280.5" y="-570" font-family="Helvetica,sans-Serif" font-size="10.00">&lt; AlgorithmType &gt;</text>
<text text-anchor="start" x="325.5" y="-553.75" font-family="Helvetica,sans-Serif" font-size="10.00"> </text>
<text text-anchor="start" x="266.88" y="-537.75" font-family="Helvetica,sans-Serif" font-size="10.00">+</text>
<text text-anchor="start" x="283" y="-537.75" font-family="Helvetica,sans-Serif" font-size="10.00">AlgorithmRegistrar()</text>
<polygon fill="#666666" stroke="#666666" points="259,-565.25 259,-565.25 395,-565.25 395,-565.25 259,-565.25"/>
<polygon fill="#666666" stroke="#666666" points="259,-549.25 259,-549.25 395,-549.25 395,-549.25 259,-549.25"/>
<polygon fill="none" stroke="#666666" points="259,-531.25 259,-596.25 395,-596.25 395,-531.25 259,-531.25"/>
</a>
</g>
</g>
<!-- Node4&#45;&gt;Node5 -->
<g id="edge5_Node000005_Node000004" class="edge">
<title>Node4&#45;&gt;Node5</title>
<g id="a_edge5_Node000005_Node000004"><a xlink:title=" ">
<path fill="none" stroke="darkgreen" d="M280.84,-624.92C288.39,-615.08 296.12,-605 303.05,-595.97"/>
<polygon fill="none" stroke="darkgreen" points="277.59,-622.41 274.28,-632.48 283.14,-626.67 277.59,-622.41"/>
</a>
</g>
</g>
<!-- Node5&#45;&gt;Node3 -->
<g id="edge4_Node000003_Node000005" class="edge">
<title>Node5&#45;&gt;Node3</title>
<g id="a_edge4_Node000003_Node000005"><a xlink:title=" ">
<path fill="none" stroke="orange" d="M318.79,-520.68C309.68,-473.97 295.1,-399.26 286.35,-354.41"/>
<polygon fill="orange" stroke="orange" points="315.52,-521.2 320.87,-530.34 322.39,-519.86 315.52,-521.2"/>
</a>
</g>
<text text-anchor="start" x="316" y="-503.75" font-family="Helvetica,sans-Serif" font-size="10.00" fill="grey"> &lt; sisi4s::PQRSCoulombIntegrals</text>
<text text-anchor="middle" x="396.25" y="-491" font-family="Helvetica,sans-Serif" font-size="10.00" fill="grey">ToVertex &gt;</text>
</g>
</g>
</svg>
