<?xml version="1.0" encoding="UTF-8" standalone="no"?>
<!DOCTYPE svg PUBLIC "-//W3C//DTD SVG 1.1//EN"
 "http://www.w3.org/Graphics/SVG/1.1/DTD/svg11.dtd">
<!-- Generated by graphviz version 8.1.0 (0)
 -->
<!-- Title: ClusterSinglesDoublesTriplesQuadruplesAlgorithm.hpp Pages: 1 -->
<svg width="362pt" height="181pt"
 viewBox="0.00 0.00 361.88 180.50" xmlns="http://www.w3.org/2000/svg" xmlns:xlink="http://www.w3.org/1999/xlink">
<g id="graph0" class="graph" transform="scale(1 1) rotate(0) translate(4 176.5)">
<title>ClusterSinglesDoublesTriplesQuadruplesAlgorithm.hpp</title>
<!-- Node1 -->
<g id="Node000001" class="node">
<title>Node1</title>
<g id="a_Node000001"><a xlink:title=" ">
<polygon fill="#999999" stroke="#666666" points="250,-172.5 93,-172.5 93,-139 250,-139 250,-172.5"/>
<text text-anchor="start" x="101" y="-159" font-family="Helvetica,sans-Serif" font-size="10.00">ClusterSinglesDoublesTriples</text>
<text text-anchor="middle" x="171.5" y="-146.25" font-family="Helvetica,sans-Serif" font-size="10.00">QuadruplesAlgorithm.hpp</text>
</a>
</g>
</g>
<!-- Node2 -->
<g id="Node000002" class="node">
<title>Node2</title>
<g id="a_Node000002"><a xlink:href="ClusterSinglesDoublesTriplesQuadruplesAlgorithm_8cxx.html" target="_top" xlink:title=" ">
<polygon fill="white" stroke="#666666" points="157,-103 0,-103 0,-69.5 157,-69.5 157,-103"/>
<text text-anchor="start" x="8" y="-89.5" font-family="Helvetica,sans-Serif" font-size="10.00">ClusterSinglesDoublesTriples</text>
<text text-anchor="middle" x="78.5" y="-76.75" font-family="Helvetica,sans-Serif" font-size="10.00">QuadruplesAlgorithm.cxx</text>
</a>
</g>
</g>
<!-- Node1&#45;&gt;Node2 -->
<g id="edge1_Node000001_Node000002" class="edge">
<title>Node1&#45;&gt;Node2</title>
<g id="a_edge1_Node000001_Node000002"><a xlink:title=" ">
<path fill="none" stroke="#63b8ff" d="M140.76,-132.44C127.67,-122.94 112.69,-112.06 100.7,-103.37"/>
<polygon fill="#63b8ff" stroke="#63b8ff" points="138.31,-135.71 148.46,-138.75 142.42,-130.05 138.31,-135.71"/>
</a>
</g>
</g>
<!-- Node3 -->
<g id="Node000003" class="node">
<title>Node3</title>
<g id="a_Node000003"><a xlink:href="UccsdtqAmplitudesFromCoulombIntegrals_8hpp.html" target="_top" xlink:title=" ">
<polygon fill="white" stroke="#666666" points="353.88,-103 175.12,-103 175.12,-69.5 353.88,-69.5 353.88,-103"/>
<text text-anchor="start" x="183.12" y="-89.5" font-family="Helvetica,sans-Serif" font-size="10.00">UccsdtqAmplitudesFromCoulomb</text>
<text text-anchor="middle" x="264.5" y="-76.75" font-family="Helvetica,sans-Serif" font-size="10.00">Integrals.hpp</text>
</a>
</g>
</g>
<!-- Node1&#45;&gt;Node3 -->
<g id="edge2_Node000001_Node000003" class="edge">
<title>Node1&#45;&gt;Node3</title>
<g id="a_edge2_Node000001_Node000003"><a xlink:title=" ">
<path fill="none" stroke="#63b8ff" d="M202.24,-132.44C215.33,-122.94 230.31,-112.06 242.3,-103.37"/>
<polygon fill="#63b8ff" stroke="#63b8ff" points="200.58,-130.05 194.54,-138.75 204.69,-135.71 200.58,-130.05"/>
</a>
</g>
</g>
<!-- Node4 -->
<g id="Node000004" class="node">
<title>Node4</title>
<g id="a_Node000004"><a xlink:href="UccsdtqAmplitudesFromCoulombIntegrals_8cxx.html" target="_top" xlink:title=" ">
<polygon fill="white" stroke="#666666" points="353.88,-33.5 175.12,-33.5 175.12,0 353.88,0 353.88,-33.5"/>
<text text-anchor="start" x="183.12" y="-20" font-family="Helvetica,sans-Serif" font-size="10.00">UccsdtqAmplitudesFromCoulomb</text>
<text text-anchor="middle" x="264.5" y="-7.25" font-family="Helvetica,sans-Serif" font-size="10.00">Integrals.cxx</text>
</a>
</g>
</g>
<!-- Node3&#45;&gt;Node4 -->
<g id="edge3_Node000003_Node000004" class="edge">
<title>Node3&#45;&gt;Node4</title>
<g id="a_edge3_Node000003_Node000004"><a xlink:title=" ">
<path fill="none" stroke="#63b8ff" d="M264.5,-58.39C264.5,-50 264.5,-41.01 264.5,-33.63"/>
<polygon fill="#63b8ff" stroke="#63b8ff" points="261,-58.25 264.5,-68.25 268,-58.25 261,-58.25"/>
</a>
</g>
</g>
</g>
</svg>
