<?xml version="1.0" encoding="UTF-8" standalone="no"?>
<!DOCTYPE svg PUBLIC "-//W3C//DTD SVG 1.1//EN"
 "http://www.w3.org/Graphics/SVG/1.1/DTD/svg11.dtd">
<!-- Generated by graphviz version 9.0.0 (0)
 -->
<!-- Title: ClusterSinglesDoublesAlgorithm.hpp Pages: 1 -->
<svg width="1974pt" height="237pt"
 viewBox="0.00 0.00 1973.62 237.25" xmlns="http://www.w3.org/2000/svg" xmlns:xlink="http://www.w3.org/1999/xlink">
<g id="graph0" class="graph" transform="scale(1 1) rotate(0) translate(4 233.25)">
<title>ClusterSinglesDoublesAlgorithm.hpp</title>
<!-- Node1 -->
<g id="Node000001" class="node">
<title>Node1</title>
<g id="a_Node000001"><a xlink:title=" ">
<polygon fill="#999999" stroke="#666666" points="1100.38,-229.25 905.88,-229.25 905.88,-208.5 1100.38,-208.5 1100.38,-229.25"/>
<text text-anchor="middle" x="1003.12" y="-215.75" font-family="Helvetica,sans-Serif" font-size="10.00">ClusterSinglesDoublesAlgorithm.hpp</text>
</a>
</g>
</g>
<!-- Node2 -->
<g id="Node000002" class="node">
<title>Node2</title>
<g id="a_Node000002"><a xlink:href="CcsdEnergyFromCoulombIntegrals_8hpp.html" target="_top" xlink:title=" ">
<polygon fill="white" stroke="#666666" points="254.62,-166.12 49.62,-166.12 49.62,-145.38 254.62,-145.38 254.62,-166.12"/>
<text text-anchor="middle" x="152.12" y="-152.62" font-family="Helvetica,sans-Serif" font-size="10.00">CcsdEnergyFromCoulombIntegrals.hpp</text>
</a>
</g>
</g>
<!-- Node1&#45;&gt;Node2 -->
<g id="edge1_Node000001_Node000002" class="edge">
<title>Node1&#45;&gt;Node2</title>
<g id="a_edge1_Node000001_Node000002"><a xlink:title=" ">
<path fill="none" stroke="#63b8ff" d="M894.08,-210.3C766.52,-201.4 548.98,-186.12 362.12,-172.5 327.21,-169.95 289.04,-167.11 254.92,-164.55"/>
<polygon fill="#63b8ff" stroke="#63b8ff" points="893.65,-213.77 903.87,-210.98 894.14,-206.79 893.65,-213.77"/>
</a>
</g>
</g>
<!-- Node4 -->
<g id="Node000004" class="node">
<title>Node4</title>
<g id="a_Node000004"><a xlink:href="CcsdEnergyFromCoulombIntegralsReference_8hpp.html" target="_top" xlink:title=" ">
<polygon fill="white" stroke="#666666" points="555.12,-172.5 371.12,-172.5 371.12,-139 555.12,-139 555.12,-172.5"/>
<text text-anchor="start" x="379.12" y="-159" font-family="Helvetica,sans-Serif" font-size="10.00">CcsdEnergyFromCoulombIntegrals</text>
<text text-anchor="middle" x="463.12" y="-146.25" font-family="Helvetica,sans-Serif" font-size="10.00">Reference.hpp</text>
</a>
</g>
</g>
<!-- Node1&#45;&gt;Node4 -->
<g id="edge3_Node000001_Node000004" class="edge">
<title>Node1&#45;&gt;Node4</title>
<g id="a_edge3_Node000001_Node000004"><a xlink:title=" ">
<path fill="none" stroke="#63b8ff" d="M904.81,-206.75C805.33,-195.49 652.71,-178.21 555.44,-167.2"/>
<polygon fill="#63b8ff" stroke="#63b8ff" points="904.23,-210.2 914.56,-207.85 905.02,-203.25 904.23,-210.2"/>
</a>
</g>
</g>
<!-- Node6 -->
<g id="Node000006" class="node">
<title>Node6</title>
<g id="a_Node000006"><a xlink:href="ClusterSinglesDoublesAlgorithm_8cxx.html" target="_top" xlink:title=" ">
<polygon fill="white" stroke="#666666" points="816,-166.12 622.25,-166.12 622.25,-145.38 816,-145.38 816,-166.12"/>
<text text-anchor="middle" x="719.12" y="-152.62" font-family="Helvetica,sans-Serif" font-size="10.00">ClusterSinglesDoublesAlgorithm.cxx</text>
</a>
</g>
</g>
<!-- Node1&#45;&gt;Node6 -->
<g id="edge5_Node000001_Node000006" class="edge">
<title>Node1&#45;&gt;Node6</title>
<g id="a_edge5_Node000001_Node000006"><a xlink:title=" ">
<path fill="none" stroke="#63b8ff" d="M946.51,-205.69C893.11,-194.2 814.07,-177.19 764.64,-166.55"/>
<polygon fill="#63b8ff" stroke="#63b8ff" points="945.5,-209.05 956.02,-207.74 946.98,-202.21 945.5,-209.05"/>
</a>
</g>
</g>
<!-- Node7 -->
<g id="Node000007" class="node">
<title>Node7</title>
<g id="a_Node000007"><a xlink:href="ClusterSinglesDoublesTriplesAlgorithm_8hpp.html" target="_top" xlink:title=" ">
<polygon fill="white" stroke="#666666" points="990.62,-172.5 833.62,-172.5 833.62,-139 990.62,-139 990.62,-172.5"/>
<text text-anchor="start" x="841.62" y="-159" font-family="Helvetica,sans-Serif" font-size="10.00">ClusterSinglesDoublesTriples</text>
<text text-anchor="middle" x="912.12" y="-146.25" font-family="Helvetica,sans-Serif" font-size="10.00">Algorithm.hpp</text>
</a>
</g>
</g>
<!-- Node1&#45;&gt;Node7 -->
<g id="edge6_Node000001_Node000007" class="edge">
<title>Node1&#45;&gt;Node7</title>
<g id="a_edge6_Node000001_Node000007"><a xlink:title=" ">
<path fill="none" stroke="#63b8ff" d="M979.11,-201.75C965.89,-192.87 949.54,-181.88 936.29,-172.98"/>
<polygon fill="#63b8ff" stroke="#63b8ff" points="977,-204.54 987.25,-207.21 980.9,-198.73 977,-204.54"/>
</a>
</g>
</g>
<!-- Node13 -->
<g id="Node000013" class="node">
<title>Node13</title>
<g id="a_Node000013"><a xlink:href="ClusterSinglesDoublesTriplesQuadruplesAlgorithm_8hpp.html" target="_top" xlink:title=" ">
<polygon fill="white" stroke="#666666" points="1173.62,-172.5 1016.62,-172.5 1016.62,-139 1173.62,-139 1173.62,-172.5"/>
<text text-anchor="start" x="1024.62" y="-159" font-family="Helvetica,sans-Serif" font-size="10.00">ClusterSinglesDoublesTriples</text>
<text text-anchor="middle" x="1095.12" y="-146.25" font-family="Helvetica,sans-Serif" font-size="10.00">QuadruplesAlgorithm.hpp</text>
</a>
</g>
</g>
<!-- Node1&#45;&gt;Node13 -->
<g id="edge12_Node000001_Node000013" class="edge">
<title>Node1&#45;&gt;Node13</title>
<g id="a_edge12_Node000001_Node000013"><a xlink:title=" ">
<path fill="none" stroke="#63b8ff" d="M1027.4,-201.75C1040.76,-192.87 1057.3,-181.88 1070.69,-172.98"/>
<polygon fill="#63b8ff" stroke="#63b8ff" points="1025.56,-198.77 1019.17,-207.22 1029.43,-204.6 1025.56,-198.77"/>
</a>
</g>
</g>
<!-- Node17 -->
<g id="Node000017" class="node">
<title>Node17</title>
<g id="a_Node000017"><a xlink:href="DrccdEnergyFromCoulombIntegrals_8hpp.html" target="_top" xlink:title=" ">
<polygon fill="white" stroke="#666666" points="1498.88,-166.12 1289.38,-166.12 1289.38,-145.38 1498.88,-145.38 1498.88,-166.12"/>
<text text-anchor="middle" x="1394.12" y="-152.62" font-family="Helvetica,sans-Serif" font-size="10.00">DrccdEnergyFromCoulombIntegrals.hpp</text>
</a>
</g>
</g>
<!-- Node1&#45;&gt;Node17 -->
<g id="edge16_Node000001_Node000017" class="edge">
<title>Node1&#45;&gt;Node17</title>
<g id="a_edge16_Node000001_Node000017"><a xlink:title=" ">
<path fill="none" stroke="#63b8ff" d="M1076.94,-206.34C1150.35,-194.86 1261.77,-177.44 1331.14,-166.6"/>
<polygon fill="#63b8ff" stroke="#63b8ff" points="1076.78,-202.82 1067.44,-207.82 1077.86,-209.73 1076.78,-202.82"/>
</a>
</g>
</g>
<!-- Node19 -->
<g id="Node000019" class="node">
<title>Node19</title>
<g id="a_Node000019"><a xlink:href="UccsdAmplitudesFromCoulombIntegrals_8hpp.html" target="_top" xlink:title=" ">
<polygon fill="white" stroke="#666666" points="1734.62,-172.5 1565.62,-172.5 1565.62,-139 1734.62,-139 1734.62,-172.5"/>
<text text-anchor="start" x="1573.62" y="-159" font-family="Helvetica,sans-Serif" font-size="10.00">UccsdAmplitudesFromCoulomb</text>
<text text-anchor="middle" x="1650.12" y="-146.25" font-family="Helvetica,sans-Serif" font-size="10.00">Integrals.hpp</text>
</a>
</g>
</g>
<!-- Node1&#45;&gt;Node19 -->
<g id="edge18_Node000001_Node000019" class="edge">
<title>Node1&#45;&gt;Node19</title>
<g id="a_edge18_Node000001_Node000019"><a xlink:title=" ">
<path fill="none" stroke="#63b8ff" d="M1111.73,-208.78C1214.04,-200.05 1371.57,-186.21 1508.12,-172.5 1526.63,-170.64 1546.49,-168.52 1565.31,-166.45"/>
<polygon fill="#63b8ff" stroke="#63b8ff" points="1111.64,-205.27 1101.97,-209.61 1112.23,-212.25 1111.64,-205.27"/>
</a>
</g>
</g>
<!-- Node21 -->
<g id="Node000021" class="node">
<title>Node21</title>
<g id="a_Node000021"><a xlink:href="UrpaAmplitudesFromCoulombIntegrals_8hpp.html" target="_top" xlink:title=" ">
<polygon fill="white" stroke="#666666" points="1940.62,-172.5 1777.62,-172.5 1777.62,-139 1940.62,-139 1940.62,-172.5"/>
<text text-anchor="start" x="1785.62" y="-159" font-family="Helvetica,sans-Serif" font-size="10.00">UrpaAmplitudesFromCoulomb</text>
<text text-anchor="middle" x="1859.12" y="-146.25" font-family="Helvetica,sans-Serif" font-size="10.00">Integrals.hpp</text>
</a>
</g>
</g>
<!-- Node1&#45;&gt;Node21 -->
<g id="edge20_Node000001_Node000021" class="edge">
<title>Node1&#45;&gt;Node21</title>
<g id="a_edge20_Node000001_Node000021"><a xlink:title=" ">
<path fill="none" stroke="#63b8ff" d="M1112.2,-213.76C1256.89,-207.71 1520.12,-194.67 1744.12,-172.5 1754.85,-171.44 1766.12,-170.13 1777.23,-168.73"/>
<polygon fill="#63b8ff" stroke="#63b8ff" points="1112.07,-210.26 1102.22,-214.17 1112.36,-217.25 1112.07,-210.26"/>
</a>
</g>
</g>
<!-- Node3 -->
<g id="Node000003" class="node">
<title>Node3</title>
<g id="a_Node000003"><a xlink:href="CcsdEnergyFromCoulombIntegrals_8cxx.html" target="_top" xlink:title=" ">
<polygon fill="white" stroke="#666666" points="204.25,-96.62 0,-96.62 0,-75.88 204.25,-75.88 204.25,-96.62"/>
<text text-anchor="middle" x="102.12" y="-83.12" font-family="Helvetica,sans-Serif" font-size="10.00">CcsdEnergyFromCoulombIntegrals.cxx</text>
</a>
</g>
</g>
<!-- Node2&#45;&gt;Node3 -->
<g id="edge2_Node000002_Node000003" class="edge">
<title>Node2&#45;&gt;Node3</title>
<g id="a_edge2_Node000002_Node000003"><a xlink:title=" ">
<path fill="none" stroke="#63b8ff" d="M138.12,-135.85C128.74,-123.18 116.77,-107.02 109.28,-96.9"/>
<polygon fill="#63b8ff" stroke="#63b8ff" points="135.3,-137.91 144.06,-143.86 140.92,-133.74 135.3,-137.91"/>
</a>
</g>
</g>
<!-- Node5 -->
<g id="Node000005" class="node">
<title>Node5</title>
<g id="a_Node000005"><a xlink:href="CcsdEnergyFromCoulombIntegralsReference_8cxx.html" target="_top" xlink:title=" ">
<polygon fill="white" stroke="#666666" points="406.12,-103 222.12,-103 222.12,-69.5 406.12,-69.5 406.12,-103"/>
<text text-anchor="start" x="230.12" y="-89.5" font-family="Helvetica,sans-Serif" font-size="10.00">CcsdEnergyFromCoulombIntegrals</text>
<text text-anchor="middle" x="314.12" y="-76.75" font-family="Helvetica,sans-Serif" font-size="10.00">Reference.cxx</text>
</a>
</g>
</g>
<!-- Node4&#45;&gt;Node5 -->
<g id="edge4_Node000004_Node000005" class="edge">
<title>Node4&#45;&gt;Node5</title>
<g id="a_edge4_Node000004_Node000005"><a xlink:title=" ">
<path fill="none" stroke="#63b8ff" d="M417.14,-133.92C395.45,-124.09 369.97,-112.55 349.78,-103.4"/>
<polygon fill="#63b8ff" stroke="#63b8ff" points="415.5,-137.02 426.06,-137.96 418.39,-130.64 415.5,-137.02"/>
</a>
</g>
</g>
<!-- Node8 -->
<g id="Node000008" class="node">
<title>Node8</title>
<g id="a_Node000008"><a xlink:href="CcsdtEnergyFromCoulombIntegrals_8hpp.html" target="_top" xlink:title=" ">
<polygon fill="white" stroke="#666666" points="632.5,-96.62 423.75,-96.62 423.75,-75.88 632.5,-75.88 632.5,-96.62"/>
<text text-anchor="middle" x="528.12" y="-83.12" font-family="Helvetica,sans-Serif" font-size="10.00">CcsdtEnergyFromCoulombIntegrals.hpp</text>
</a>
</g>
</g>
<!-- Node7&#45;&gt;Node8 -->
<g id="edge7_Node000007_Node000008" class="edge">
<title>Node7&#45;&gt;Node8</title>
<g id="a_edge7_Node000007_Node000008"><a xlink:title=" ">
<path fill="none" stroke="#63b8ff" d="M822.11,-138.47C733.91,-122.83 642.73,-107.01 585.36,-97.11"/>
<polygon fill="#63b8ff" stroke="#63b8ff" points="821.46,-141.91 831.92,-140.21 822.68,-135.02 821.46,-141.91"/>
</a>
</g>
</g>
<!-- Node10 -->
<g id="Node000010" class="node">
<title>Node10</title>
<g id="a_Node000010"><a xlink:href="ClusterSinglesDoublesTriplesAlgorithm_8cxx.html" target="_top" xlink:title=" ">
<polygon fill="white" stroke="#666666" points="807.62,-103 650.62,-103 650.62,-69.5 807.62,-69.5 807.62,-103"/>
<text text-anchor="start" x="658.62" y="-89.5" font-family="Helvetica,sans-Serif" font-size="10.00">ClusterSinglesDoublesTriples</text>
<text text-anchor="middle" x="729.12" y="-76.75" font-family="Helvetica,sans-Serif" font-size="10.00">Algorithm.cxx</text>
</a>
</g>
</g>
<!-- Node7&#45;&gt;Node10 -->
<g id="edge9_Node000007_Node000010" class="edge">
<title>Node7&#45;&gt;Node10</title>
<g id="a_edge9_Node000007_Node000010"><a xlink:title=" ">
<path fill="none" stroke="#63b8ff" d="M857.81,-134.72C830.72,-124.72 798.39,-112.8 772.92,-103.4"/>
<polygon fill="#63b8ff" stroke="#63b8ff" points="856.28,-137.88 866.87,-138.06 858.7,-131.31 856.28,-137.88"/>
</a>
</g>
</g>
<!-- Node11 -->
<g id="Node000011" class="node">
<title>Node11</title>
<g id="a_Node000011"><a xlink:href="UccsdtAmplitudesFromCoulombIntegrals_8hpp.html" target="_top" xlink:title=" ">
<polygon fill="white" stroke="#666666" points="998.5,-103 825.75,-103 825.75,-69.5 998.5,-69.5 998.5,-103"/>
<text text-anchor="start" x="833.75" y="-89.5" font-family="Helvetica,sans-Serif" font-size="10.00">UccsdtAmplitudesFromCoulomb</text>
<text text-anchor="middle" x="912.12" y="-76.75" font-family="Helvetica,sans-Serif" font-size="10.00">Integrals.hpp</text>
</a>
</g>
</g>
<!-- Node7&#45;&gt;Node11 -->
<g id="edge10_Node000007_Node000011" class="edge">
<title>Node7&#45;&gt;Node11</title>
<g id="a_edge10_Node000007_Node000011"><a xlink:title=" ">
<path fill="none" stroke="#63b8ff" d="M912.12,-127.31C912.12,-119.09 912.12,-110.34 912.12,-103.13"/>
<polygon fill="#63b8ff" stroke="#63b8ff" points="908.63,-127.24 912.13,-137.24 915.63,-127.24 908.63,-127.24"/>
</a>
</g>
</g>
<!-- Node9 -->
<g id="Node000009" class="node">
<title>Node9</title>
<g id="a_Node000009"><a xlink:href="CcsdtEnergyFromCoulombIntegrals_8cxx.html" target="_top" xlink:title=" ">
<polygon fill="white" stroke="#666666" points="632.12,-27.12 424.12,-27.12 424.12,-6.38 632.12,-6.38 632.12,-27.12"/>
<text text-anchor="middle" x="528.12" y="-13.62" font-family="Helvetica,sans-Serif" font-size="10.00">CcsdtEnergyFromCoulombIntegrals.cxx</text>
</a>
</g>
</g>
<!-- Node8&#45;&gt;Node9 -->
<g id="edge8_Node000008_Node000009" class="edge">
<title>Node8&#45;&gt;Node9</title>
<g id="a_edge8_Node000008_Node000009"><a xlink:title=" ">
<path fill="none" stroke="#63b8ff" d="M528.12,-64.44C528.12,-52.09 528.12,-37.02 528.12,-27.4"/>
<polygon fill="#63b8ff" stroke="#63b8ff" points="524.63,-64.07 528.13,-74.07 531.63,-64.07 524.63,-64.07"/>
</a>
</g>
</g>
<!-- Node12 -->
<g id="Node000012" class="node">
<title>Node12</title>
<g id="a_Node000012"><a xlink:href="UccsdtAmplitudesFromCoulombIntegrals_8cxx.html" target="_top" xlink:title=" ">
<polygon fill="white" stroke="#666666" points="998.5,-33.5 825.75,-33.5 825.75,0 998.5,0 998.5,-33.5"/>
<text text-anchor="start" x="833.75" y="-20" font-family="Helvetica,sans-Serif" font-size="10.00">UccsdtAmplitudesFromCoulomb</text>
<text text-anchor="middle" x="912.12" y="-7.25" font-family="Helvetica,sans-Serif" font-size="10.00">Integrals.cxx</text>
</a>
</g>
</g>
<!-- Node11&#45;&gt;Node12 -->
<g id="edge11_Node000011_Node000012" class="edge">
<title>Node11&#45;&gt;Node12</title>
<g id="a_edge11_Node000011_Node000012"><a xlink:title=" ">
<path fill="none" stroke="#63b8ff" d="M912.12,-57.81C912.12,-49.59 912.12,-40.84 912.12,-33.63"/>
<polygon fill="#63b8ff" stroke="#63b8ff" points="908.63,-57.74 912.13,-67.74 915.63,-57.74 908.63,-57.74"/>
</a>
</g>
</g>
<!-- Node14 -->
<g id="Node000014" class="node">
<title>Node14</title>
<g id="a_Node000014"><a xlink:href="ClusterSinglesDoublesTriplesQuadruplesAlgorithm_8cxx.html" target="_top" xlink:title=" ">
<polygon fill="white" stroke="#666666" points="1173.62,-103 1016.62,-103 1016.62,-69.5 1173.62,-69.5 1173.62,-103"/>
<text text-anchor="start" x="1024.62" y="-89.5" font-family="Helvetica,sans-Serif" font-size="10.00">ClusterSinglesDoublesTriples</text>
<text text-anchor="middle" x="1095.12" y="-76.75" font-family="Helvetica,sans-Serif" font-size="10.00">QuadruplesAlgorithm.cxx</text>
</a>
</g>
</g>
<!-- Node13&#45;&gt;Node14 -->
<g id="edge13_Node000013_Node000014" class="edge">
<title>Node13&#45;&gt;Node14</title>
<g id="a_edge13_Node000013_Node000014"><a xlink:title=" ">
<path fill="none" stroke="#63b8ff" d="M1095.12,-127.31C1095.12,-119.09 1095.12,-110.34 1095.12,-103.13"/>
<polygon fill="#63b8ff" stroke="#63b8ff" points="1091.63,-127.24 1095.13,-137.24 1098.63,-127.24 1091.63,-127.24"/>
</a>
</g>
</g>
<!-- Node15 -->
<g id="Node000015" class="node">
<title>Node15</title>
<g id="a_Node000015"><a xlink:href="UccsdtqAmplitudesFromCoulombIntegrals_8hpp.html" target="_top" xlink:title=" ">
<polygon fill="white" stroke="#666666" points="1370.5,-103 1191.75,-103 1191.75,-69.5 1370.5,-69.5 1370.5,-103"/>
<text text-anchor="start" x="1199.75" y="-89.5" font-family="Helvetica,sans-Serif" font-size="10.00">UccsdtqAmplitudesFromCoulomb</text>
<text text-anchor="middle" x="1281.12" y="-76.75" font-family="Helvetica,sans-Serif" font-size="10.00">Integrals.hpp</text>
</a>
</g>
</g>
<!-- Node13&#45;&gt;Node15 -->
<g id="edge14_Node000013_Node000015" class="edge">
<title>Node13&#45;&gt;Node15</title>
<g id="a_edge14_Node000013_Node000015"><a xlink:title=" ">
<path fill="none" stroke="#63b8ff" d="M1150.33,-134.72C1177.86,-124.72 1210.72,-112.8 1236.61,-103.4"/>
<polygon fill="#63b8ff" stroke="#63b8ff" points="1149.31,-131.36 1141.1,-138.07 1151.69,-137.94 1149.31,-131.36"/>
</a>
</g>
</g>
<!-- Node16 -->
<g id="Node000016" class="node">
<title>Node16</title>
<g id="a_Node000016"><a xlink:href="UccsdtqAmplitudesFromCoulombIntegrals_8cxx.html" target="_top" xlink:title=" ">
<polygon fill="white" stroke="#666666" points="1370.5,-33.5 1191.75,-33.5 1191.75,0 1370.5,0 1370.5,-33.5"/>
<text text-anchor="start" x="1199.75" y="-20" font-family="Helvetica,sans-Serif" font-size="10.00">UccsdtqAmplitudesFromCoulomb</text>
<text text-anchor="middle" x="1281.12" y="-7.25" font-family="Helvetica,sans-Serif" font-size="10.00">Integrals.cxx</text>
</a>
</g>
</g>
<!-- Node15&#45;&gt;Node16 -->
<g id="edge15_Node000015_Node000016" class="edge">
<title>Node15&#45;&gt;Node16</title>
<g id="a_edge15_Node000015_Node000016"><a xlink:title=" ">
<path fill="none" stroke="#63b8ff" d="M1281.12,-57.81C1281.12,-49.59 1281.12,-40.84 1281.12,-33.63"/>
<polygon fill="#63b8ff" stroke="#63b8ff" points="1277.63,-57.74 1281.13,-67.74 1284.63,-57.74 1277.63,-57.74"/>
</a>
</g>
</g>
<!-- Node18 -->
<g id="Node000018" class="node">
<title>Node18</title>
<g id="a_Node000018"><a xlink:href="DrccdEnergyFromCoulombIntegrals_8cxx.html" target="_top" xlink:title=" ">
<polygon fill="white" stroke="#666666" points="1597.5,-96.62 1388.75,-96.62 1388.75,-75.88 1597.5,-75.88 1597.5,-96.62"/>
<text text-anchor="middle" x="1493.12" y="-83.12" font-family="Helvetica,sans-Serif" font-size="10.00">DrccdEnergyFromCoulombIntegrals.cxx</text>
</a>
</g>
</g>
<!-- Node17&#45;&gt;Node18 -->
<g id="edge17_Node000017_Node000018" class="edge">
<title>Node17&#45;&gt;Node18</title>
<g id="a_edge17_Node000017_Node000018"><a xlink:title=" ">
<path fill="none" stroke="#63b8ff" d="M1417.74,-138.65C1436.68,-125.73 1462.66,-108.02 1478.65,-97.12"/>
<polygon fill="#63b8ff" stroke="#63b8ff" points="1415.85,-135.7 1409.56,-144.23 1419.79,-141.48 1415.85,-135.7"/>
</a>
</g>
</g>
<!-- Node20 -->
<g id="Node000020" class="node">
<title>Node20</title>
<g id="a_Node000020"><a xlink:href="UccsdAmplitudesFromCoulombIntegrals_8cxx.html" target="_top" xlink:title=" ">
<polygon fill="white" stroke="#666666" points="1784.62,-103 1615.62,-103 1615.62,-69.5 1784.62,-69.5 1784.62,-103"/>
<text text-anchor="start" x="1623.62" y="-89.5" font-family="Helvetica,sans-Serif" font-size="10.00">UccsdAmplitudesFromCoulomb</text>
<text text-anchor="middle" x="1700.12" y="-76.75" font-family="Helvetica,sans-Serif" font-size="10.00">Integrals.cxx</text>
</a>
</g>
</g>
<!-- Node19&#45;&gt;Node20 -->
<g id="edge19_Node000019_Node000020" class="edge">
<title>Node19&#45;&gt;Node20</title>
<g id="a_edge19_Node000019_Node000020"><a xlink:title=" ">
<path fill="none" stroke="#63b8ff" d="M1668.76,-129.59C1675.33,-120.73 1682.52,-111.02 1688.36,-103.13"/>
<polygon fill="#63b8ff" stroke="#63b8ff" points="1666.02,-127.42 1662.88,-137.54 1671.64,-131.58 1666.02,-127.42"/>
</a>
</g>
</g>
<!-- Node22 -->
<g id="Node000022" class="node">
<title>Node22</title>
<g id="a_Node000022"><a xlink:href="UrpaAmplitudesFromCoulombIntegrals_8cxx.html" target="_top" xlink:title=" ">
<polygon fill="white" stroke="#666666" points="1965.62,-103 1802.62,-103 1802.62,-69.5 1965.62,-69.5 1965.62,-103"/>
<text text-anchor="start" x="1810.62" y="-89.5" font-family="Helvetica,sans-Serif" font-size="10.00">UrpaAmplitudesFromCoulomb</text>
<text text-anchor="middle" x="1884.12" y="-76.75" font-family="Helvetica,sans-Serif" font-size="10.00">Integrals.cxx</text>
</a>
</g>
</g>
<!-- Node21&#45;&gt;Node22 -->
<g id="edge21_Node000021_Node000022" class="edge">
<title>Node21&#45;&gt;Node22</title>
<g id="a_edge21_Node000021_Node000022"><a xlink:title=" ">
<path fill="none" stroke="#63b8ff" d="M1868.97,-128.17C1872.11,-119.7 1875.48,-110.6 1878.24,-103.13"/>
<polygon fill="#63b8ff" stroke="#63b8ff" points="1865.77,-126.74 1865.58,-137.33 1872.33,-129.17 1865.77,-126.74"/>
</a>
</g>
</g>
</g>
</svg>
