<?xml version="1.0" encoding="UTF-8" standalone="no"?>
<!DOCTYPE svg PUBLIC "-//W3C//DTD SVG 1.1//EN"
 "http://www.w3.org/Graphics/SVG/1.1/DTD/svg11.dtd">
<!-- Generated by graphviz version 5.0.1 (0)
 -->
<!-- Title: ComplexTensor.cxx Pages: 1 -->
<svg width="467pt" height="252pt"
 viewBox="0.00 0.00 467.00 252.00" xmlns="http://www.w3.org/2000/svg" xmlns:xlink="http://www.w3.org/1999/xlink">
<g id="graph0" class="graph" transform="scale(1 1) rotate(0) translate(4 248)">
<title>ComplexTensor.cxx</title>
<!-- Node1 -->
<g id="node1" class="node">
<title>Node1</title>
<g id="a_node1"><a xlink:title=" ">
<polygon fill="#bfbfbf" stroke="black" points="179.5,-224.5 179.5,-243.5 290.5,-243.5 290.5,-224.5 179.5,-224.5"/>
<text text-anchor="middle" x="235" y="-231.5" font-family="Helvetica,sans-Serif" font-size="10.00">ComplexTensor.cxx</text>
</a>
</g>
</g>
<!-- Node2 -->
<g id="node2" class="node">
<title>Node2</title>
<g id="a_node2"><a xlink:href="ComplexTensor_8hpp.html" target="_top" xlink:title=" ">
<polygon fill="none" stroke="black" points="67,-168.5 67,-187.5 207,-187.5 207,-168.5 67,-168.5"/>
<text text-anchor="middle" x="137" y="-175.5" font-family="Helvetica,sans-Serif" font-size="10.00">math/ComplexTensor.hpp</text>
</a>
</g>
</g>
<!-- Node1&#45;&gt;Node2 -->
<g id="edge1" class="edge">
<title>Node1&#45;&gt;Node2</title>
<path fill="none" stroke="midnightblue" d="M219.25,-224.32C203.68,-215.74 179.62,-202.49 161.54,-192.52"/>
<polygon fill="midnightblue" stroke="midnightblue" points="163.15,-189.42 152.71,-187.65 159.78,-195.55 163.15,-189.42"/>
</g>
<!-- Node6 -->
<g id="node6" class="node">
<title>Node6</title>
<g id="a_node6"><a xlink:title=" ">
<polygon fill="none" stroke="#bfbfbf" points="205.5,-56.5 205.5,-75.5 264.5,-75.5 264.5,-56.5 205.5,-56.5"/>
<text text-anchor="middle" x="235" y="-63.5" font-family="Helvetica,sans-Serif" font-size="10.00">complex</text>
</a>
</g>
</g>
<!-- Node1&#45;&gt;Node6 -->
<g id="edge12" class="edge">
<title>Node1&#45;&gt;Node6</title>
<path fill="none" stroke="midnightblue" d="M235,-224.08C235,-197.95 235,-121.21 235,-85.58"/>
<polygon fill="midnightblue" stroke="midnightblue" points="238.5,-85.57 235,-75.57 231.5,-85.57 238.5,-85.57"/>
</g>
<!-- Node9 -->
<g id="node9" class="node">
<title>Node9</title>
<g id="a_node9"><a xlink:href="Exception_8hpp.html" target="_top" xlink:title=" ">
<polygon fill="none" stroke="black" points="282,-168.5 282,-187.5 386,-187.5 386,-168.5 282,-168.5"/>
<text text-anchor="middle" x="334" y="-175.5" font-family="Helvetica,sans-Serif" font-size="10.00">util/Exception.hpp</text>
</a>
</g>
</g>
<!-- Node1&#45;&gt;Node9 -->
<g id="edge8" class="edge">
<title>Node1&#45;&gt;Node9</title>
<path fill="none" stroke="midnightblue" d="M250.91,-224.32C266.64,-215.74 290.94,-202.49 309.21,-192.52"/>
<polygon fill="midnightblue" stroke="midnightblue" points="311.03,-195.52 318.13,-187.65 307.68,-189.37 311.03,-195.52"/>
</g>
<!-- Node3 -->
<g id="node3" class="node">
<title>Node3</title>
<g id="a_node3"><a xlink:href="Complex_8hpp.html" target="_top" xlink:title=" ">
<polygon fill="none" stroke="black" points="92,-112.5 92,-131.5 202,-131.5 202,-112.5 92,-112.5"/>
<text text-anchor="middle" x="147" y="-119.5" font-family="Helvetica,sans-Serif" font-size="10.00">math/Complex.hpp</text>
</a>
</g>
</g>
<!-- Node2&#45;&gt;Node3 -->
<g id="edge2" class="edge">
<title>Node2&#45;&gt;Node3</title>
<path fill="none" stroke="midnightblue" d="M138.65,-168.08C139.98,-160.93 141.88,-150.64 143.54,-141.69"/>
<polygon fill="midnightblue" stroke="midnightblue" points="147,-142.22 145.38,-131.75 140.12,-140.95 147,-142.22"/>
</g>
<!-- Node7 -->
<g id="node7" class="node">
<title>Node7</title>
<g id="a_node7"><a xlink:href="CTF_8hpp.html" target="_top" xlink:title=" ">
<polygon fill="none" stroke="black" points="0,-112.5 0,-131.5 74,-131.5 74,-112.5 0,-112.5"/>
<text text-anchor="middle" x="37" y="-119.5" font-family="Helvetica,sans-Serif" font-size="10.00">util/CTF.hpp</text>
</a>
</g>
</g>
<!-- Node2&#45;&gt;Node7 -->
<g id="edge6" class="edge">
<title>Node2&#45;&gt;Node7</title>
<path fill="none" stroke="midnightblue" d="M120.93,-168.32C105.04,-159.74 80.49,-146.49 62.04,-136.52"/>
<polygon fill="midnightblue" stroke="midnightblue" points="63.49,-133.33 53.03,-131.65 60.16,-139.49 63.49,-133.33"/>
</g>
<!-- Node4 -->
<g id="node4" class="node">
<title>Node4</title>
<g id="a_node4"><a xlink:href="Float_8hpp.html" target="_top" xlink:title=" ">
<polygon fill="none" stroke="black" points="96.5,-56.5 96.5,-75.5 187.5,-75.5 187.5,-56.5 96.5,-56.5"/>
<text text-anchor="middle" x="142" y="-63.5" font-family="Helvetica,sans-Serif" font-size="10.00">math/Float.hpp</text>
</a>
</g>
</g>
<!-- Node3&#45;&gt;Node4 -->
<g id="edge3" class="edge">
<title>Node3&#45;&gt;Node4</title>
<path fill="none" stroke="midnightblue" d="M146.17,-112.08C145.52,-105.01 144.58,-94.86 143.76,-85.99"/>
<polygon fill="midnightblue" stroke="midnightblue" points="147.22,-85.39 142.81,-75.75 140.25,-86.03 147.22,-85.39"/>
</g>
<!-- Node3&#45;&gt;Node6 -->
<g id="edge5" class="edge">
<title>Node3&#45;&gt;Node6</title>
<path fill="none" stroke="midnightblue" d="M161.14,-112.32C174.87,-103.9 195.94,-90.97 212.06,-81.07"/>
<polygon fill="midnightblue" stroke="midnightblue" points="214.2,-83.87 220.9,-75.65 210.54,-77.9 214.2,-83.87"/>
</g>
<!-- Node5 -->
<g id="node5" class="node">
<title>Node5</title>
<g id="a_node5"><a xlink:title=" ">
<polygon fill="none" stroke="#bfbfbf" points="113.5,-0.5 113.5,-19.5 170.5,-19.5 170.5,-0.5 113.5,-0.5"/>
<text text-anchor="middle" x="142" y="-7.5" font-family="Helvetica,sans-Serif" font-size="10.00">ostream</text>
</a>
</g>
</g>
<!-- Node4&#45;&gt;Node5 -->
<g id="edge4" class="edge">
<title>Node4&#45;&gt;Node5</title>
<path fill="none" stroke="midnightblue" d="M142,-56.08C142,-49.01 142,-38.86 142,-29.99"/>
<polygon fill="midnightblue" stroke="midnightblue" points="145.5,-29.75 142,-19.75 138.5,-29.75 145.5,-29.75"/>
</g>
<!-- Node8 -->
<g id="node8" class="node">
<title>Node8</title>
<g id="a_node8"><a xlink:title=" ">
<polygon fill="none" stroke="#bfbfbf" points="12,-56.5 12,-75.5 62,-75.5 62,-56.5 12,-56.5"/>
<text text-anchor="middle" x="37" y="-63.5" font-family="Helvetica,sans-Serif" font-size="10.00">ctf.hpp</text>
</a>
</g>
</g>
<!-- Node7&#45;&gt;Node8 -->
<g id="edge7" class="edge">
<title>Node7&#45;&gt;Node8</title>
<path fill="none" stroke="midnightblue" d="M37,-112.08C37,-105.01 37,-94.86 37,-85.99"/>
<polygon fill="midnightblue" stroke="midnightblue" points="40.5,-85.75 37,-75.75 33.5,-85.75 40.5,-85.75"/>
</g>
<!-- Node10 -->
<g id="node10" class="node">
<title>Node10</title>
<g id="a_node10"><a xlink:title=" ">
<polygon fill="none" stroke="#bfbfbf" points="263,-112.5 263,-131.5 307,-131.5 307,-112.5 263,-112.5"/>
<text text-anchor="middle" x="285" y="-119.5" font-family="Helvetica,sans-Serif" font-size="10.00">string</text>
</a>
</g>
</g>
<!-- Node9&#45;&gt;Node10 -->
<g id="edge9" class="edge">
<title>Node9&#45;&gt;Node10</title>
<path fill="none" stroke="midnightblue" d="M325.91,-168.08C318.84,-160.3 308.41,-148.8 299.85,-139.37"/>
<polygon fill="midnightblue" stroke="midnightblue" points="302.25,-136.8 292.94,-131.75 297.07,-141.51 302.25,-136.8"/>
</g>
<!-- Node11 -->
<g id="node11" class="node">
<title>Node11</title>
<g id="a_node11"><a xlink:title=" ">
<polygon fill="none" stroke="#bfbfbf" points="325,-112.5 325,-131.5 381,-131.5 381,-112.5 325,-112.5"/>
<text text-anchor="middle" x="353" y="-119.5" font-family="Helvetica,sans-Serif" font-size="10.00">sstream</text>
</a>
</g>
</g>
<!-- Node9&#45;&gt;Node11 -->
<g id="edge10" class="edge">
<title>Node9&#45;&gt;Node11</title>
<path fill="none" stroke="midnightblue" d="M337.14,-168.08C339.68,-160.85 343.36,-150.41 346.53,-141.4"/>
<polygon fill="midnightblue" stroke="midnightblue" points="349.9,-142.35 349.92,-131.75 343.3,-140.02 349.9,-142.35"/>
</g>
<!-- Node12 -->
<g id="node12" class="node">
<title>Node12</title>
<g id="a_node12"><a xlink:title=" ">
<polygon fill="none" stroke="#bfbfbf" points="399,-112.5 399,-131.5 459,-131.5 459,-112.5 399,-112.5"/>
<text text-anchor="middle" x="429" y="-119.5" font-family="Helvetica,sans-Serif" font-size="10.00">iostream</text>
</a>
</g>
</g>
<!-- Node9&#45;&gt;Node12 -->
<g id="edge11" class="edge">
<title>Node9&#45;&gt;Node12</title>
<path fill="none" stroke="midnightblue" d="M349.26,-168.32C364.22,-159.82 387.25,-146.73 404.73,-136.8"/>
<polygon fill="midnightblue" stroke="midnightblue" points="406.81,-139.64 413.77,-131.65 403.35,-133.55 406.81,-139.64"/>
</g>
</g>
</svg>
