<?xml version="1.0" encoding="UTF-8" standalone="no"?>
<!DOCTYPE svg PUBLIC "-//W3C//DTD SVG 1.1//EN"
 "http://www.w3.org/Graphics/SVG/1.1/DTD/svg11.dtd">
<!-- Generated by graphviz version 7.0.0 (0)
 -->
<!-- Title: ComplexTensorReader.cxx Pages: 1 -->
<svg width="2305pt" height="368pt"
 viewBox="0.00 0.00 2305.00 368.00" xmlns="http://www.w3.org/2000/svg" xmlns:xlink="http://www.w3.org/1999/xlink">
<g id="graph0" class="graph" transform="scale(1 1) rotate(0) translate(4 364)">
<title>ComplexTensorReader.cxx</title>
<!-- Node1 -->
<g id="node1" class="node">
<title>Node1</title>
<g id="a_node1"><a xlink:title=" ">
<polygon fill="#999999" stroke="#666666" points="848,-360 702,-360 702,-341 848,-341 848,-360"/>
<text text-anchor="middle" x="775" y="-348" font-family="Helvetica,sans-Serif" font-size="10.00">ComplexTensorReader.cxx</text>
</a>
</g>
</g>
<!-- Node2 -->
<g id="node2" class="node">
<title>Node2</title>
<g id="a_node2"><a xlink:href="ComplexTensorReader_8hpp.html" target="_top" xlink:title=" ">
<polygon fill="white" stroke="#666666" points="797.5,-305 650.5,-305 650.5,-275 797.5,-275 797.5,-305"/>
<text text-anchor="start" x="658.5" y="-293" font-family="Helvetica,sans-Serif" font-size="10.00">algorithms/ComplexTensor</text>
<text text-anchor="middle" x="724" y="-282" font-family="Helvetica,sans-Serif" font-size="10.00">Reader.hpp</text>
</a>
</g>
</g>
<!-- Node1&#45;&gt;Node2 -->
<g id="edge1" class="edge">
<title>Node1&#45;&gt;Node2</title>
<path fill="none" stroke="#63b8ff" d="M767.47,-340.87C761.26,-333.74 752.15,-323.28 743.87,-313.79"/>
<polygon fill="#63b8ff" stroke="#63b8ff" points="746.51,-311.49 737.3,-306.26 741.23,-316.09 746.51,-311.49"/>
</g>
<!-- Node6 -->
<g id="node6" class="node">
<title>Node6</title>
<g id="a_node6"><a xlink:href="Log_8hpp.html" target="_top" xlink:title=" ">
<polygon fill="white" stroke="#666666" points="722,-129 648,-129 648,-110 722,-110 722,-129"/>
<text text-anchor="middle" x="685" y="-117" font-family="Helvetica,sans-Serif" font-size="10.00">util/Log.hpp</text>
</a>
</g>
</g>
<!-- Node1&#45;&gt;Node6 -->
<g id="edge47" class="edge">
<title>Node1&#45;&gt;Node6</title>
<path fill="none" stroke="#63b8ff" d="M783.77,-340.52C791.32,-332.13 801.66,-318.83 806,-305 809.99,-292.28 809.02,-287.99 806,-275 791.89,-214.25 736.09,-161.38 705.43,-136.18"/>
<polygon fill="#63b8ff" stroke="#63b8ff" points="707.98,-133.74 697.98,-130.22 703.6,-139.2 707.98,-133.74"/>
</g>
<!-- Node17 -->
<g id="node17" class="node">
<title>Node17</title>
<g id="a_node17"><a xlink:title=" ">
<polygon fill="#e0e0e0" stroke="#999999" points="973.5,-74 918.5,-74 918.5,-55 973.5,-55 973.5,-74"/>
<text text-anchor="middle" x="946" y="-62" font-family="Helvetica,sans-Serif" font-size="10.00">fstream</text>
</a>
</g>
</g>
<!-- Node1&#45;&gt;Node17 -->
<g id="edge78" class="edge">
<title>Node1&#45;&gt;Node17</title>
<path fill="none" stroke="#63b8ff" d="M836.44,-340.55C933.16,-324.71 1110,-287.9 1110,-230.5 1110,-230.5 1110,-230.5 1110,-173.5 1110,-142.19 1025.56,-100.21 977.86,-78.99"/>
<polygon fill="#63b8ff" stroke="#63b8ff" points="979.39,-75.84 968.83,-75.03 976.58,-82.25 979.39,-75.84"/>
</g>
<!-- Node19 -->
<g id="node19" class="node">
<title>Node19</title>
<g id="a_node19"><a xlink:href="Complex_8hpp.html" target="_top" xlink:title=" ">
<polygon fill="white" stroke="#666666" points="110,-129 0,-129 0,-110 110,-110 110,-129"/>
<text text-anchor="middle" x="55" y="-117" font-family="Helvetica,sans-Serif" font-size="10.00">math/Complex.hpp</text>
</a>
</g>
</g>
<!-- Node1&#45;&gt;Node19 -->
<g id="edge36" class="edge">
<title>Node1&#45;&gt;Node19</title>
<path fill="none" stroke="#63b8ff" d="M701.77,-342.79C644.44,-336.37 563.12,-324.69 494,-305 332.07,-258.88 149.94,-169.37 82.24,-134.7"/>
<polygon fill="#63b8ff" stroke="#63b8ff" points="83.86,-131.6 73.37,-130.13 80.65,-137.82 83.86,-131.6"/>
</g>
<!-- Node22 -->
<g id="node22" class="node">
<title>Node22</title>
<g id="a_node22"><a xlink:href="Tensor_8hpp.html" target="_top" xlink:title=" ">
<polygon fill="white" stroke="#666666" points="469.5,-129 382.5,-129 382.5,-110 469.5,-110 469.5,-129"/>
<text text-anchor="middle" x="426" y="-117" font-family="Helvetica,sans-Serif" font-size="10.00">util/Tensor.hpp</text>
</a>
</g>
</g>
<!-- Node1&#45;&gt;Node22 -->
<g id="edge79" class="edge">
<title>Node1&#45;&gt;Node22</title>
<path fill="none" stroke="#63b8ff" d="M734.9,-340.55C707.35,-333.37 670.55,-321.72 641,-305 556.51,-257.19 474.51,-173.44 441.37,-137.58"/>
<polygon fill="#63b8ff" stroke="#63b8ff" points="444.04,-135.31 434.72,-130.29 438.88,-140.04 444.04,-135.31"/>
</g>
<!-- Node26 -->
<g id="node26" class="node">
<title>Node26</title>
<g id="a_node26"><a xlink:href="TensorIo_8hpp.html" target="_top" xlink:title=" ">
<polygon fill="white" stroke="#666666" points="474.5,-239 377.5,-239 377.5,-220 474.5,-220 474.5,-239"/>
<text text-anchor="middle" x="426" y="-227" font-family="Helvetica,sans-Serif" font-size="10.00">util/TensorIo.hpp</text>
</a>
</g>
</g>
<!-- Node1&#45;&gt;Node26 -->
<g id="edge37" class="edge">
<title>Node1&#45;&gt;Node26</title>
<path fill="none" stroke="#63b8ff" d="M702.22,-340.52C659.07,-333.77 603.83,-322.59 557,-305 516.1,-289.64 472.82,-262.62 447.66,-245.69"/>
<polygon fill="#63b8ff" stroke="#63b8ff" points="449.83,-242.93 439.6,-240.17 445.88,-248.71 449.83,-242.93"/>
</g>
<!-- Node30 -->
<g id="node30" class="node">
<title>Node30</title>
<g id="a_node30"><a xlink:href="Sisi4s_8hpp.html" target="_top" xlink:title=" ">
<polygon fill="white" stroke="#666666" points="1072,-239 1006,-239 1006,-220 1072,-220 1072,-239"/>
<text text-anchor="middle" x="1039" y="-227" font-family="Helvetica,sans-Serif" font-size="10.00">Sisi4s.hpp</text>
</a>
</g>
</g>
<!-- Node1&#45;&gt;Node30 -->
<g id="edge48" class="edge">
<title>Node1&#45;&gt;Node30</title>
<path fill="none" stroke="#63b8ff" d="M794.84,-340.56C840.73,-319.87 954.4,-268.64 1008.9,-244.07"/>
<polygon fill="#63b8ff" stroke="#63b8ff" points="1010.23,-247.31 1017.91,-240.01 1007.35,-240.93 1010.23,-247.31"/>
</g>
<!-- Node48 -->
<g id="node48" class="node">
<title>Node48</title>
<g id="a_node48"><a xlink:href="Emitter_8hpp.html" target="_top" xlink:title=" ">
<polygon fill="white" stroke="#666666" points="1406,-184 1314,-184 1314,-165 1406,-165 1406,-184"/>
<text text-anchor="middle" x="1360" y="-172" font-family="Helvetica,sans-Serif" font-size="10.00">util/Emitter.hpp</text>
</a>
</g>
</g>
<!-- Node1&#45;&gt;Node48 -->
<g id="edge80" class="edge">
<title>Node1&#45;&gt;Node48</title>
<path fill="none" stroke="#63b8ff" d="M848.25,-348.08C920.09,-344.86 1031.93,-334.93 1124,-305 1209.04,-277.35 1298.8,-218.69 1338.72,-190.82"/>
<polygon fill="#63b8ff" stroke="#63b8ff" points="1340.59,-193.78 1346.73,-185.15 1336.55,-188.06 1340.59,-193.78"/>
</g>
<!-- Node3 -->
<g id="node3" class="node">
<title>Node3</title>
<g id="a_node3"><a xlink:title=" ">
<polygon fill="#e0e0e0" stroke="#999999" points="900.5,-74 853.5,-74 853.5,-55 900.5,-55 900.5,-74"/>
<text text-anchor="middle" x="877" y="-62" font-family="Helvetica,sans-Serif" font-size="10.00">vector</text>
</a>
</g>
</g>
<!-- Node2&#45;&gt;Node3 -->
<g id="edge2" class="edge">
<title>Node2&#45;&gt;Node3</title>
<path fill="none" stroke="#63b8ff" d="M742.73,-274.54C754.08,-265.19 768.37,-252.31 779,-239 819.73,-187.97 853.67,-117.87 868.7,-84.56"/>
<polygon fill="#63b8ff" stroke="#63b8ff" points="871.73,-86.35 872.59,-75.79 865.33,-83.51 871.73,-86.35"/>
</g>
<!-- Node4 -->
<g id="node4" class="node">
<title>Node4</title>
<g id="a_node4"><a xlink:href="Algorithm_8hpp.html" target="_top" xlink:title=" ">
<polygon fill="white" stroke="#666666" points="770.5,-239 629.5,-239 629.5,-220 770.5,-220 770.5,-239"/>
<text text-anchor="middle" x="700" y="-227" font-family="Helvetica,sans-Serif" font-size="10.00">algorithms/Algorithm.hpp</text>
</a>
</g>
</g>
<!-- Node2&#45;&gt;Node4 -->
<g id="edge3" class="edge">
<title>Node2&#45;&gt;Node4</title>
<path fill="none" stroke="#63b8ff" d="M718.07,-274.54C714.97,-267 711.15,-257.67 707.81,-249.55"/>
<polygon fill="#63b8ff" stroke="#63b8ff" points="711.17,-248.5 704.13,-240.58 704.69,-251.16 711.17,-248.5"/>
</g>
<!-- Node4&#45;&gt;Node3 -->
<g id="edge33" class="edge">
<title>Node4&#45;&gt;Node3</title>
<path fill="none" stroke="#63b8ff" d="M710.49,-219.79C721.09,-210.93 737.87,-196.72 752,-184 791.4,-148.51 836.2,-105.32 860.01,-82.13"/>
<polygon fill="#63b8ff" stroke="#63b8ff" points="862.26,-84.83 866.97,-75.34 857.37,-79.82 862.26,-84.83"/>
</g>
<!-- Node5 -->
<g id="node5" class="node">
<title>Node5</title>
<g id="a_node5"><a xlink:href="Data_8hpp.html" target="_top" xlink:title=" ">
<polygon fill="white" stroke="#666666" points="715.5,-184 654.5,-184 654.5,-165 715.5,-165 715.5,-184"/>
<text text-anchor="middle" x="685" y="-172" font-family="Helvetica,sans-Serif" font-size="10.00">Data.hpp</text>
</a>
</g>
</g>
<!-- Node4&#45;&gt;Node5 -->
<g id="edge4" class="edge">
<title>Node4&#45;&gt;Node5</title>
<path fill="none" stroke="#63b8ff" d="M697.52,-219.75C695.65,-213.11 692.99,-203.73 690.61,-195.31"/>
<polygon fill="#63b8ff" stroke="#63b8ff" points="694.03,-194.57 687.94,-185.9 687.3,-196.47 694.03,-194.57"/>
</g>
<!-- Node12 -->
<g id="node12" class="node">
<title>Node12</title>
<g id="a_node12"><a xlink:title=" ">
<polygon fill="#e0e0e0" stroke="#999999" points="432,-19 376,-19 376,0 432,0 432,-19"/>
<text text-anchor="middle" x="404" y="-7" font-family="Helvetica,sans-Serif" font-size="10.00">sstream</text>
</a>
</g>
</g>
<!-- Node4&#45;&gt;Node12 -->
<g id="edge34" class="edge">
<title>Node4&#45;&gt;Node12</title>
<path fill="none" stroke="#63b8ff" d="M643.63,-219.54C558.95,-204.81 405.37,-172.69 373,-129 350.62,-98.8 373.92,-53.81 390.49,-28.86"/>
<polygon fill="#63b8ff" stroke="#63b8ff" points="393.31,-30.93 396.16,-20.73 387.57,-26.93 393.31,-30.93"/>
</g>
<!-- Node14 -->
<g id="node14" class="node">
<title>Node14</title>
<g id="a_node14"><a xlink:title=" ">
<polygon fill="#e0e0e0" stroke="#999999" points="835,-74 791,-74 791,-55 835,-55 835,-74"/>
<text text-anchor="middle" x="813" y="-62" font-family="Helvetica,sans-Serif" font-size="10.00">string</text>
</a>
</g>
</g>
<!-- Node4&#45;&gt;Node14 -->
<g id="edge32" class="edge">
<title>Node4&#45;&gt;Node14</title>
<path fill="none" stroke="#63b8ff" d="M706.08,-219.74C723.93,-193.98 776.51,-118.13 800.64,-83.33"/>
<polygon fill="#63b8ff" stroke="#63b8ff" points="803.21,-85.76 806.03,-75.55 797.46,-81.78 803.21,-85.76"/>
</g>
<!-- Node4&#45;&gt;Node22 -->
<g id="edge35" class="edge">
<title>Node4&#45;&gt;Node22</title>
<path fill="none" stroke="#63b8ff" d="M686.36,-219.59C665.33,-206.19 623.41,-180.73 585,-165 550.74,-150.97 510.59,-139.77 479.2,-132.12"/>
<polygon fill="#63b8ff" stroke="#63b8ff" points="480.07,-128.73 469.53,-129.81 478.45,-135.54 480.07,-128.73"/>
</g>
<!-- Node5&#45;&gt;Node3 -->
<g id="edge24" class="edge">
<title>Node5&#45;&gt;Node3</title>
<path fill="none" stroke="#63b8ff" d="M700.71,-164.66C733.76,-146.07 810.75,-102.77 851.17,-80.03"/>
<polygon fill="#63b8ff" stroke="#63b8ff" points="852.75,-83.16 859.75,-75.2 849.32,-77.05 852.75,-83.16"/>
</g>
<!-- Node5&#45;&gt;Node6 -->
<g id="edge5" class="edge">
<title>Node5&#45;&gt;Node6</title>
<path fill="none" stroke="#63b8ff" d="M685,-164.75C685,-158.27 685,-149.16 685,-140.9"/>
<polygon fill="#63b8ff" stroke="#63b8ff" points="688.5,-140.96 685,-130.96 681.5,-140.96 688.5,-140.96"/>
</g>
<!-- Node5&#45;&gt;Node14 -->
<g id="edge22" class="edge">
<title>Node5&#45;&gt;Node14</title>
<path fill="none" stroke="#63b8ff" d="M695.47,-164.66C716.95,-146.55 766.23,-104.96 793.67,-81.81"/>
<polygon fill="#63b8ff" stroke="#63b8ff" points="795.84,-84.56 801.22,-75.44 791.32,-79.21 795.84,-84.56"/>
</g>
<!-- Node18 -->
<g id="node18" class="node">
<title>Node18</title>
<g id="a_node18"><a xlink:href="Float_8hpp.html" target="_top" xlink:title=" ">
<polygon fill="white" stroke="#666666" points="240.5,-74 149.5,-74 149.5,-55 240.5,-55 240.5,-74"/>
<text text-anchor="middle" x="195" y="-62" font-family="Helvetica,sans-Serif" font-size="10.00">math/Float.hpp</text>
</a>
</g>
</g>
<!-- Node5&#45;&gt;Node18 -->
<g id="edge17" class="edge">
<title>Node5&#45;&gt;Node18</title>
<path fill="none" stroke="#63b8ff" d="M654.1,-167.21C619.96,-159.83 563.66,-146.36 517,-129 498.93,-122.28 496.39,-115.78 478,-110 401.72,-86.01 309.62,-74.6 251.67,-69.43"/>
<polygon fill="#63b8ff" stroke="#63b8ff" points="252.32,-65.98 242.06,-68.61 251.72,-72.95 252.32,-65.98"/>
</g>
<!-- Node5&#45;&gt;Node19 -->
<g id="edge19" class="edge">
<title>Node5&#45;&gt;Node19</title>
<path fill="none" stroke="#63b8ff" d="M654.19,-170.91C557.21,-162.75 256.71,-137.47 121.78,-126.12"/>
<polygon fill="#63b8ff" stroke="#63b8ff" points="122.18,-122.64 111.92,-125.29 121.59,-129.61 122.18,-122.64"/>
</g>
<!-- Node21 -->
<g id="node21" class="node">
<title>Node21</title>
<g id="a_node21"><a xlink:title=" ">
<polygon fill="#e0e0e0" stroke="#999999" points="1030,-74 992,-74 992,-55 1030,-55 1030,-74"/>
<text text-anchor="middle" x="1011" y="-62" font-family="Helvetica,sans-Serif" font-size="10.00">map</text>
</a>
</g>
</g>
<!-- Node5&#45;&gt;Node21 -->
<g id="edge23" class="edge">
<title>Node5&#45;&gt;Node21</title>
<path fill="none" stroke="#63b8ff" d="M711.96,-164.57C772.27,-144.59 917.77,-96.39 980.92,-75.47"/>
<polygon fill="#63b8ff" stroke="#63b8ff" points="981.88,-78.83 990.27,-72.37 979.68,-72.19 981.88,-78.83"/>
</g>
<!-- Node5&#45;&gt;Node22 -->
<g id="edge25" class="edge">
<title>Node5&#45;&gt;Node22</title>
<path fill="none" stroke="#63b8ff" d="M654.02,-167.16C611.23,-158.41 533.4,-142.48 480.7,-131.69"/>
<polygon fill="#63b8ff" stroke="#63b8ff" points="481.51,-128.29 471.01,-129.71 480.11,-135.15 481.51,-128.29"/>
</g>
<!-- Node25 -->
<g id="node25" class="node">
<title>Node25</title>
<g id="a_node25"><a xlink:href="Exception_8hpp.html" target="_top" xlink:title=" ">
<polygon fill="white" stroke="#666666" points="630,-129 526,-129 526,-110 630,-110 630,-129"/>
<text text-anchor="middle" x="578" y="-117" font-family="Helvetica,sans-Serif" font-size="10.00">util/Exception.hpp</text>
</a>
</g>
</g>
<!-- Node5&#45;&gt;Node25 -->
<g id="edge28" class="edge">
<title>Node5&#45;&gt;Node25</title>
<path fill="none" stroke="#63b8ff" d="M666.85,-164.51C650.22,-156.27 625.36,-143.96 606.15,-134.45"/>
<polygon fill="#63b8ff" stroke="#63b8ff" points="607.75,-131.33 597.24,-130.03 604.65,-137.6 607.75,-131.33"/>
</g>
<!-- Node7 -->
<g id="node7" class="node">
<title>Node7</title>
<g id="a_node7"><a xlink:href="Time_8hpp.html" target="_top" xlink:title=" ">
<polygon fill="white" stroke="#666666" points="772.5,-74 691.5,-74 691.5,-55 772.5,-55 772.5,-74"/>
<text text-anchor="middle" x="732" y="-62" font-family="Helvetica,sans-Serif" font-size="10.00">util/Time.hpp</text>
</a>
</g>
</g>
<!-- Node6&#45;&gt;Node7 -->
<g id="edge6" class="edge">
<title>Node6&#45;&gt;Node7</title>
<path fill="none" stroke="#63b8ff" d="M692.76,-109.75C699.19,-102.5 708.51,-91.98 716.46,-83.02"/>
<polygon fill="#63b8ff" stroke="#63b8ff" points="719.05,-85.38 723.07,-75.57 713.81,-80.73 719.05,-85.38"/>
</g>
<!-- Node6&#45;&gt;Node14 -->
<g id="edge13" class="edge">
<title>Node6&#45;&gt;Node14</title>
<path fill="none" stroke="#63b8ff" d="M706.71,-109.51C727.16,-101.04 758.02,-88.27 781.23,-78.66"/>
<polygon fill="#63b8ff" stroke="#63b8ff" points="782.31,-82 790.21,-74.94 779.63,-75.53 782.31,-82"/>
</g>
<!-- Node15 -->
<g id="node15" class="node">
<title>Node15</title>
<g id="a_node15"><a xlink:title=" ">
<polygon fill="#e0e0e0" stroke="#999999" points="588,-74 528,-74 528,-55 588,-55 588,-74"/>
<text text-anchor="middle" x="558" y="-62" font-family="Helvetica,sans-Serif" font-size="10.00">iostream</text>
</a>
</g>
</g>
<!-- Node6&#45;&gt;Node15 -->
<g id="edge14" class="edge">
<title>Node6&#45;&gt;Node15</title>
<path fill="none" stroke="#63b8ff" d="M663.46,-109.51C643.26,-101.08 612.83,-88.38 589.84,-78.79"/>
<polygon fill="#63b8ff" stroke="#63b8ff" points="591.2,-75.56 580.62,-74.94 588.5,-82.02 591.2,-75.56"/>
</g>
<!-- Node16 -->
<g id="node16" class="node">
<title>Node16</title>
<g id="a_node16"><a xlink:title=" ">
<polygon fill="#e0e0e0" stroke="#999999" points="673.5,-74 606.5,-74 606.5,-55 673.5,-55 673.5,-74"/>
<text text-anchor="middle" x="640" y="-62" font-family="Helvetica,sans-Serif" font-size="10.00">streambuf</text>
</a>
</g>
</g>
<!-- Node6&#45;&gt;Node16 -->
<g id="edge15" class="edge">
<title>Node6&#45;&gt;Node16</title>
<path fill="none" stroke="#63b8ff" d="M677.57,-109.75C671.42,-102.5 662.49,-91.98 654.87,-83.02"/>
<polygon fill="#63b8ff" stroke="#63b8ff" points="657.71,-80.95 648.57,-75.6 652.38,-85.48 657.71,-80.95"/>
</g>
<!-- Node6&#45;&gt;Node17 -->
<g id="edge16" class="edge">
<title>Node6&#45;&gt;Node17</title>
<path fill="none" stroke="#63b8ff" d="M722.11,-111.59C764.61,-103.59 836.57,-89.74 907.25,-74.54"/>
<polygon fill="#63b8ff" stroke="#63b8ff" points="907.6,-78.05 916.64,-72.51 906.12,-71.2 907.6,-78.05"/>
</g>
<!-- Node8 -->
<g id="node8" class="node">
<title>Node8</title>
<g id="a_node8"><a xlink:title=" ">
<polygon fill="#e0e0e0" stroke="#999999" points="754,-19 710,-19 710,0 754,0 754,-19"/>
<text text-anchor="middle" x="732" y="-7" font-family="Helvetica,sans-Serif" font-size="10.00">ctime</text>
</a>
</g>
</g>
<!-- Node7&#45;&gt;Node8 -->
<g id="edge7" class="edge">
<title>Node7&#45;&gt;Node8</title>
<path fill="none" stroke="#63b8ff" d="M732,-54.75C732,-48.27 732,-39.16 732,-30.9"/>
<polygon fill="#63b8ff" stroke="#63b8ff" points="735.5,-30.96 732,-20.96 728.5,-30.96 735.5,-30.96"/>
</g>
<!-- Node9 -->
<g id="node9" class="node">
<title>Node9</title>
<g id="a_node9"><a xlink:title=" ">
<polygon fill="#e0e0e0" stroke="#999999" points="1191,-19 1141,-19 1141,0 1191,0 1191,-19"/>
<text text-anchor="middle" x="1166" y="-7" font-family="Helvetica,sans-Serif" font-size="10.00">cstdint</text>
</a>
</g>
</g>
<!-- Node7&#45;&gt;Node9 -->
<g id="edge8" class="edge">
<title>Node7&#45;&gt;Node9</title>
<path fill="none" stroke="#63b8ff" d="M772.9,-56.37C775.98,-55.88 779.04,-55.42 782,-55 909.23,-36.83 1060.99,-20.94 1129.39,-14.09"/>
<polygon fill="#63b8ff" stroke="#63b8ff" points="1129.67,-17.58 1139.27,-13.11 1128.98,-10.61 1129.67,-17.58"/>
</g>
<!-- Node10 -->
<g id="node10" class="node">
<title>Node10</title>
<g id="a_node10"><a xlink:title=" ">
<polygon fill="#e0e0e0" stroke="#999999" points="321.5,-19 264.5,-19 264.5,0 321.5,0 321.5,-19"/>
<text text-anchor="middle" x="293" y="-7" font-family="Helvetica,sans-Serif" font-size="10.00">ostream</text>
</a>
</g>
</g>
<!-- Node7&#45;&gt;Node10 -->
<g id="edge9" class="edge">
<title>Node7&#45;&gt;Node10</title>
<path fill="none" stroke="#63b8ff" d="M691.1,-56.36C688.02,-55.88 684.96,-55.42 682,-55 542.49,-35.18 507,-35.04 367,-19 356.06,-17.75 344.2,-16.39 333.25,-15.13"/>
<polygon fill="#63b8ff" stroke="#63b8ff" points="333.65,-11.65 323.32,-13.99 332.86,-18.61 333.65,-11.65"/>
</g>
<!-- Node11 -->
<g id="node11" class="node">
<title>Node11</title>
<g id="a_node11"><a xlink:title=" ">
<polygon fill="#e0e0e0" stroke="#999999" points="1450,-19 1394,-19 1394,0 1450,0 1450,-19"/>
<text text-anchor="middle" x="1422" y="-7" font-family="Helvetica,sans-Serif" font-size="10.00">iomanip</text>
</a>
</g>
</g>
<!-- Node7&#45;&gt;Node11 -->
<g id="edge10" class="edge">
<title>Node7&#45;&gt;Node11</title>
<path fill="none" stroke="#63b8ff" d="M772.88,-56.21C775.96,-55.77 779.03,-55.36 782,-55 1008.1,-27.99 1281.23,-15.74 1382.09,-11.9"/>
<polygon fill="#63b8ff" stroke="#63b8ff" points="1382.14,-15.4 1392.01,-11.53 1381.88,-8.41 1382.14,-15.4"/>
</g>
<!-- Node7&#45;&gt;Node12 -->
<g id="edge11" class="edge">
<title>Node7&#45;&gt;Node12</title>
<path fill="none" stroke="#63b8ff" d="M691.08,-56.47C688.01,-55.97 684.96,-55.47 682,-55 578.61,-38.49 549.33,-39.08 443.42,-19.33"/>
<polygon fill="#63b8ff" stroke="#63b8ff" points="444.2,-15.92 433.72,-17.5 442.9,-22.79 444.2,-15.92"/>
</g>
<!-- Node13 -->
<g id="node13" class="node">
<title>Node13</title>
<g id="a_node13"><a xlink:title=" ">
<polygon fill="#e0e0e0" stroke="#999999" points="1700.5,-19 1653.5,-19 1653.5,0 1700.5,0 1700.5,-19"/>
<text text-anchor="middle" x="1677" y="-7" font-family="Helvetica,sans-Serif" font-size="10.00">cmath</text>
</a>
</g>
</g>
<!-- Node7&#45;&gt;Node13 -->
<g id="edge12" class="edge">
<title>Node7&#45;&gt;Node13</title>
<path fill="none" stroke="#63b8ff" d="M772.87,-56.14C775.96,-55.71 779.02,-55.33 782,-55 868.48,-45.53 1487.07,-18.64 1641.93,-12"/>
<polygon fill="#63b8ff" stroke="#63b8ff" points="1641.71,-15.51 1651.55,-11.58 1641.41,-8.52 1641.71,-15.51"/>
</g>
<!-- Node18&#45;&gt;Node10 -->
<g id="edge18" class="edge">
<title>Node18&#45;&gt;Node10</title>
<path fill="none" stroke="#63b8ff" d="M211.62,-54.51C226.78,-46.31 249.42,-34.07 266.97,-24.58"/>
<polygon fill="#63b8ff" stroke="#63b8ff" points="268.16,-27.91 275.29,-20.08 264.83,-21.76 268.16,-27.91"/>
</g>
<!-- Node19&#45;&gt;Node18 -->
<g id="edge20" class="edge">
<title>Node19&#45;&gt;Node18</title>
<path fill="none" stroke="#63b8ff" d="M78.75,-109.51C101.31,-100.97 135.47,-88.03 160.94,-78.4"/>
<polygon fill="#63b8ff" stroke="#63b8ff" points="162.07,-81.71 170.19,-74.89 159.59,-75.16 162.07,-81.71"/>
</g>
<!-- Node20 -->
<g id="node20" class="node">
<title>Node20</title>
<g id="a_node20"><a xlink:title=" ">
<polygon fill="#e0e0e0" stroke="#999999" points="84.5,-74 25.5,-74 25.5,-55 84.5,-55 84.5,-74"/>
<text text-anchor="middle" x="55" y="-62" font-family="Helvetica,sans-Serif" font-size="10.00">complex</text>
</a>
</g>
</g>
<!-- Node19&#45;&gt;Node20 -->
<g id="edge21" class="edge">
<title>Node19&#45;&gt;Node20</title>
<path fill="none" stroke="#63b8ff" d="M55,-109.75C55,-103.27 55,-94.16 55,-85.9"/>
<polygon fill="#63b8ff" stroke="#63b8ff" points="58.5,-85.96 55,-75.96 51.5,-85.96 58.5,-85.96"/>
</g>
<!-- Node23 -->
<g id="node23" class="node">
<title>Node23</title>
<g id="a_node23"><a xlink:href="CTF_8hpp.html" target="_top" xlink:title=" ">
<polygon fill="white" stroke="#666666" points="510,-74 436,-74 436,-55 510,-55 510,-74"/>
<text text-anchor="middle" x="473" y="-62" font-family="Helvetica,sans-Serif" font-size="10.00">util/CTF.hpp</text>
</a>
</g>
</g>
<!-- Node22&#45;&gt;Node23 -->
<g id="edge26" class="edge">
<title>Node22&#45;&gt;Node23</title>
<path fill="none" stroke="#63b8ff" d="M433.76,-109.75C440.19,-102.5 449.51,-91.98 457.46,-83.02"/>
<polygon fill="#63b8ff" stroke="#63b8ff" points="460.05,-85.38 464.07,-75.57 454.81,-80.73 460.05,-85.38"/>
</g>
<!-- Node24 -->
<g id="node24" class="node">
<title>Node24</title>
<g id="a_node24"><a xlink:title=" ">
<polygon fill="#e0e0e0" stroke="#999999" points="500,-19 450,-19 450,0 500,0 500,-19"/>
<text text-anchor="middle" x="475" y="-7" font-family="Helvetica,sans-Serif" font-size="10.00">ctf.hpp</text>
</a>
</g>
</g>
<!-- Node23&#45;&gt;Node24 -->
<g id="edge27" class="edge">
<title>Node23&#45;&gt;Node24</title>
<path fill="none" stroke="#63b8ff" d="M473.33,-54.75C473.57,-48.27 473.92,-39.16 474.23,-30.9"/>
<polygon fill="#63b8ff" stroke="#63b8ff" points="477.73,-31.08 474.61,-20.95 470.73,-30.82 477.73,-31.08"/>
</g>
<!-- Node25&#45;&gt;Node12 -->
<g id="edge30" class="edge">
<title>Node25&#45;&gt;Node12</title>
<path fill="none" stroke="#63b8ff" d="M531.35,-109.56C492.86,-101.34 442.18,-88.28 427,-74 414.97,-62.68 409.21,-44.59 406.47,-30.61"/>
<polygon fill="#63b8ff" stroke="#63b8ff" points="409.93,-30.08 404.94,-20.73 403.01,-31.15 409.93,-30.08"/>
</g>
<!-- Node25&#45;&gt;Node14 -->
<g id="edge29" class="edge">
<title>Node25&#45;&gt;Node14</title>
<path fill="none" stroke="#63b8ff" d="M621.69,-109.5C660.55,-101.37 719.19,-88.78 779.73,-74.21"/>
<polygon fill="#63b8ff" stroke="#63b8ff" points="780.29,-77.68 789.18,-71.93 778.64,-70.88 780.29,-77.68"/>
</g>
<!-- Node25&#45;&gt;Node15 -->
<g id="edge31" class="edge">
<title>Node25&#45;&gt;Node15</title>
<path fill="none" stroke="#63b8ff" d="M574.7,-109.75C572.17,-103.04 568.57,-93.52 565.37,-85.02"/>
<polygon fill="#63b8ff" stroke="#63b8ff" points="568.71,-83.98 561.91,-75.86 562.16,-86.45 568.71,-83.98"/>
</g>
<!-- Node26&#45;&gt;Node22 -->
<g id="edge46" class="edge">
<title>Node26&#45;&gt;Node22</title>
<path fill="none" stroke="#63b8ff" d="M426,-219.66C426,-202.57 426,-164.61 426,-140.92"/>
<polygon fill="#63b8ff" stroke="#63b8ff" points="429.5,-140.97 426,-130.97 422.5,-140.97 429.5,-140.97"/>
</g>
<!-- Node27 -->
<g id="node27" class="node">
<title>Node27</title>
<g id="a_node27"><a xlink:href="Scanner_8hpp.html" target="_top" xlink:title=" ">
<polygon fill="white" stroke="#666666" points="317.5,-184 222.5,-184 222.5,-165 317.5,-165 317.5,-184"/>
<text text-anchor="middle" x="270" y="-172" font-family="Helvetica,sans-Serif" font-size="10.00">util/Scanner.hpp</text>
</a>
</g>
</g>
<!-- Node26&#45;&gt;Node27 -->
<g id="edge38" class="edge">
<title>Node26&#45;&gt;Node27</title>
<path fill="none" stroke="#63b8ff" d="M399.54,-219.51C374.14,-210.88 335.53,-197.76 307.08,-188.1"/>
<polygon fill="#63b8ff" stroke="#63b8ff" points="308.36,-184.84 297.77,-184.93 306.11,-191.46 308.36,-184.84"/>
</g>
<!-- Node27&#45;&gt;Node6 -->
<g id="edge41" class="edge">
<title>Node27&#45;&gt;Node6</title>
<path fill="none" stroke="#63b8ff" d="M317.9,-168.69C386.26,-161.62 516.02,-147.41 636.61,-129.28"/>
<polygon fill="#63b8ff" stroke="#63b8ff" points="637.02,-132.75 646.38,-127.79 635.97,-125.83 637.02,-132.75"/>
</g>
<!-- Node27&#45;&gt;Node12 -->
<g id="edge43" class="edge">
<title>Node27&#45;&gt;Node12</title>
<path fill="none" stroke="#63b8ff" d="M275.43,-164.66C280.92,-155.71 289.62,-141.43 297,-129 316.42,-96.29 314.22,-82.97 340,-55 350.75,-43.34 365.07,-33.03 377.44,-25.28"/>
<polygon fill="#63b8ff" stroke="#63b8ff" points="379.17,-28.32 385.95,-20.17 375.57,-22.32 379.17,-28.32"/>
</g>
<!-- Node27&#45;&gt;Node18 -->
<g id="edge39" class="edge">
<title>Node27&#45;&gt;Node18</title>
<path fill="none" stroke="#63b8ff" d="M222.01,-167.3C198.25,-161.55 171.6,-150.44 157,-129 146.34,-113.35 160.56,-94.67 174.53,-81.63"/>
<polygon fill="#63b8ff" stroke="#63b8ff" points="176.56,-84.51 181.84,-75.32 171.98,-79.21 176.56,-84.51"/>
</g>
<!-- Node27&#45;&gt;Node19 -->
<g id="edge40" class="edge">
<title>Node27&#45;&gt;Node19</title>
<path fill="none" stroke="#63b8ff" d="M233.53,-164.51C197.36,-155.59 141.77,-141.89 102.24,-132.15"/>
<polygon fill="#63b8ff" stroke="#63b8ff" points="103.31,-128.8 92.76,-129.81 101.63,-135.6 103.31,-128.8"/>
</g>
<!-- Node27&#45;&gt;Node25 -->
<g id="edge42" class="edge">
<title>Node27&#45;&gt;Node25</title>
<path fill="none" stroke="#63b8ff" d="M317.79,-165.28C370.62,-156.19 455.96,-141.5 514.4,-131.44"/>
<polygon fill="#63b8ff" stroke="#63b8ff" points="514.96,-134.9 524.23,-129.75 513.78,-128 514.96,-134.9"/>
</g>
<!-- Node28 -->
<g id="node28" class="node">
<title>Node28</title>
<g id="a_node28"><a xlink:title=" ">
<polygon fill="#e0e0e0" stroke="#999999" points="288,-129 234,-129 234,-110 288,-110 288,-129"/>
<text text-anchor="middle" x="261" y="-117" font-family="Helvetica,sans-Serif" font-size="10.00">istream</text>
</a>
</g>
</g>
<!-- Node27&#45;&gt;Node28 -->
<g id="edge44" class="edge">
<title>Node27&#45;&gt;Node28</title>
<path fill="none" stroke="#63b8ff" d="M268.51,-164.75C267.4,-158.19 265.83,-148.95 264.41,-140.6"/>
<polygon fill="#63b8ff" stroke="#63b8ff" points="267.9,-140.21 262.77,-130.93 261,-141.38 267.9,-140.21"/>
</g>
<!-- Node29 -->
<g id="node29" class="node">
<title>Node29</title>
<g id="a_node29"><a xlink:title=" ">
<polygon fill="#e0e0e0" stroke="#999999" points="216,-129 166,-129 166,-110 216,-110 216,-129"/>
<text text-anchor="middle" x="191" y="-117" font-family="Helvetica,sans-Serif" font-size="10.00">cstring</text>
</a>
</g>
</g>
<!-- Node27&#45;&gt;Node29 -->
<g id="edge45" class="edge">
<title>Node27&#45;&gt;Node29</title>
<path fill="none" stroke="#63b8ff" d="M256.6,-164.51C244.84,-156.62 227.49,-144.98 213.59,-135.65"/>
<polygon fill="#63b8ff" stroke="#63b8ff" points="215.71,-132.87 205.46,-130.2 211.81,-138.68 215.71,-132.87"/>
</g>
<!-- Node30&#45;&gt;Node7 -->
<g id="edge49" class="edge">
<title>Node30&#45;&gt;Node7</title>
<path fill="none" stroke="#63b8ff" d="M1022.06,-219.5C971.42,-192.62 820.92,-112.71 759.04,-79.86"/>
<polygon fill="#63b8ff" stroke="#63b8ff" points="760.7,-76.78 750.23,-75.18 757.42,-82.96 760.7,-76.78"/>
</g>
<!-- Node30&#45;&gt;Node23 -->
<g id="edge50" class="edge">
<title>Node30&#45;&gt;Node23</title>
<path fill="none" stroke="#63b8ff" d="M1014.8,-219.57C990.73,-210.67 952.75,-196.54 920,-184 835.75,-151.76 817.92,-134.12 731,-110 642.33,-85.39 615.11,-90.26 521.3,-74.35"/>
<polygon fill="#63b8ff" stroke="#63b8ff" points="522.09,-70.93 511.64,-72.67 520.89,-77.83 522.09,-70.93"/>
</g>
<!-- Node31 -->
<g id="node31" class="node">
<title>Node31</title>
<g id="a_node31"><a xlink:href="Options_8hpp.html" target="_top" xlink:title=" ">
<polygon fill="white" stroke="#666666" points="1081.5,-184 1006.5,-184 1006.5,-165 1081.5,-165 1081.5,-184"/>
<text text-anchor="middle" x="1044" y="-172" font-family="Helvetica,sans-Serif" font-size="10.00">Options.hpp</text>
</a>
</g>
</g>
<!-- Node30&#45;&gt;Node31 -->
<g id="edge51" class="edge">
<title>Node30&#45;&gt;Node31</title>
<path fill="none" stroke="#63b8ff" d="M1039.83,-219.75C1040.44,-213.27 1041.3,-204.16 1042.08,-195.9"/>
<polygon fill="#63b8ff" stroke="#63b8ff" points="1045.56,-196.23 1043.01,-185.95 1038.59,-195.58 1045.56,-196.23"/>
</g>
<!-- Node31&#45;&gt;Node14 -->
<g id="edge52" class="edge">
<title>Node31&#45;&gt;Node14</title>
<path fill="none" stroke="#63b8ff" d="M1033.6,-164.52C1017.52,-151.03 985.18,-125.45 954,-110 934.96,-100.56 881.56,-84.72 846.22,-74.7"/>
<polygon fill="#63b8ff" stroke="#63b8ff" points="847.47,-71.42 836.9,-72.08 845.58,-78.16 847.47,-71.42"/>
</g>
<!-- Node32 -->
<g id="node32" class="node">
<title>Node32</title>
<g id="a_node32"><a xlink:href="CLI11_8hpp.html" target="_top" xlink:title=" ">
<polygon fill="white" stroke="#666666" points="1511.5,-129 1412.5,-129 1412.5,-110 1511.5,-110 1511.5,-129"/>
<text text-anchor="middle" x="1462" y="-117" font-family="Helvetica,sans-Serif" font-size="10.00">extern/CLI11.hpp</text>
</a>
</g>
</g>
<!-- Node31&#45;&gt;Node32 -->
<g id="edge53" class="edge">
<title>Node31&#45;&gt;Node32</title>
<path fill="none" stroke="#63b8ff" d="M1081.83,-168.7C1154.24,-159.52 1313.02,-139.39 1400.74,-128.27"/>
<polygon fill="#63b8ff" stroke="#63b8ff" points="1401.13,-131.75 1410.61,-127.02 1400.25,-124.8 1401.13,-131.75"/>
</g>
<!-- Node32&#45;&gt;Node3 -->
<g id="edge73" class="edge">
<title>Node32&#45;&gt;Node3</title>
<path fill="none" stroke="#63b8ff" d="M1412.17,-117.34C1316.86,-114.51 1102.08,-105.17 912.02,-74.01"/>
<polygon fill="#63b8ff" stroke="#63b8ff" points="912.62,-70.56 902.18,-72.37 911.47,-77.47 912.62,-70.56"/>
</g>
<!-- Node32&#45;&gt;Node9 -->
<g id="edge67" class="edge">
<title>Node32&#45;&gt;Node9</title>
<path fill="none" stroke="#63b8ff" d="M1493.51,-109.53C1526.58,-98.6 1571.05,-78.63 1550,-55 1527.12,-29.31 1294.54,-16.23 1202.87,-12.03"/>
<polygon fill="#63b8ff" stroke="#63b8ff" points="1203.06,-8.54 1192.91,-11.59 1202.75,-15.53 1203.06,-8.54"/>
</g>
<!-- Node32&#45;&gt;Node11 -->
<g id="edge63" class="edge">
<title>Node32&#45;&gt;Node11</title>
<path fill="none" stroke="#63b8ff" d="M1511.6,-110.82C1554.29,-102.03 1605.7,-84.83 1583,-55 1568.32,-35.71 1504.16,-22.64 1461.4,-15.89"/>
<polygon fill="#63b8ff" stroke="#63b8ff" points="1462.14,-12.46 1451.73,-14.42 1461.09,-19.38 1462.14,-12.46"/>
</g>
<!-- Node32&#45;&gt;Node12 -->
<g id="edge65" class="edge">
<title>Node32&#45;&gt;Node12</title>
<path fill="none" stroke="#63b8ff" d="M1412.15,-118.05C1337.88,-116.19 1194.44,-108.03 1078,-74 1059.49,-68.59 1057.65,-59.9 1039,-55 784.99,11.68 706.68,-55.06 443.25,-19.04"/>
<polygon fill="#63b8ff" stroke="#63b8ff" points="444.08,-15.62 433.69,-17.69 443.1,-22.55 444.08,-15.62"/>
</g>
<!-- Node32&#45;&gt;Node13 -->
<g id="edge56" class="edge">
<title>Node32&#45;&gt;Node13</title>
<path fill="none" stroke="#63b8ff" d="M1511.88,-111.2C1514.96,-110.78 1518.02,-110.38 1521,-110 1592.64,-100.85 1795.84,-127.82 1844,-74 1883.36,-30.01 1771.91,-16.33 1712.12,-12.21"/>
<polygon fill="#63b8ff" stroke="#63b8ff" points="1712.62,-8.73 1702.42,-11.6 1712.18,-15.72 1712.62,-8.73"/>
</g>
<!-- Node32&#45;&gt;Node14 -->
<g id="edge55" class="edge">
<title>Node32&#45;&gt;Node14</title>
<path fill="none" stroke="#63b8ff" d="M1412.34,-118.21C1308.69,-116.89 1061.76,-110.08 846.44,-74.06"/>
<polygon fill="#63b8ff" stroke="#63b8ff" points="847.17,-70.64 836.73,-72.41 846,-77.54 847.17,-70.64"/>
</g>
<!-- Node32&#45;&gt;Node15 -->
<g id="edge68" class="edge">
<title>Node32&#45;&gt;Node15</title>
<path fill="none" stroke="#63b8ff" d="M1412.01,-118.77C1280.41,-118.88 913.51,-115.26 599.3,-74.06"/>
<polygon fill="#63b8ff" stroke="#63b8ff" points="600.02,-70.63 589.65,-72.78 599.1,-77.57 600.02,-70.63"/>
</g>
<!-- Node32&#45;&gt;Node17 -->
<g id="edge60" class="edge">
<title>Node32&#45;&gt;Node17</title>
<path fill="none" stroke="#63b8ff" d="M1412.08,-116.06C1326.64,-111.4 1146.76,-99.51 984.93,-74.08"/>
<polygon fill="#63b8ff" stroke="#63b8ff" points="985.72,-70.66 975.3,-72.54 984.62,-77.57 985.72,-70.66"/>
</g>
<!-- Node32&#45;&gt;Node21 -->
<g id="edge59" class="edge">
<title>Node32&#45;&gt;Node21</title>
<path fill="none" stroke="#63b8ff" d="M1412.12,-115.55C1333.41,-110.37 1175.78,-97.85 1044,-74 1043.17,-73.85 1042.33,-73.69 1041.49,-73.52"/>
<polygon fill="#63b8ff" stroke="#63b8ff" points="1042.44,-70.15 1031.92,-71.35 1040.89,-76.98 1042.44,-70.15"/>
</g>
<!-- Node33 -->
<g id="node33" class="node">
<title>Node33</title>
<g id="a_node33"><a xlink:title=" ">
<polygon fill="#e0e0e0" stroke="#999999" points="2297,-74 2239,-74 2239,-55 2297,-55 2297,-74"/>
<text text-anchor="middle" x="2268" y="-62" font-family="Helvetica,sans-Serif" font-size="10.00">memory</text>
</a>
</g>
</g>
<!-- Node32&#45;&gt;Node33 -->
<g id="edge54" class="edge">
<title>Node32&#45;&gt;Node33</title>
<path fill="none" stroke="#63b8ff" d="M1511.85,-110.99C1514.95,-110.62 1518.01,-110.29 1521,-110 1831.36,-79.83 1915.41,-115.73 2227.43,-74.1"/>
<polygon fill="#63b8ff" stroke="#63b8ff" points="2227.69,-77.6 2237.13,-72.79 2226.75,-70.66 2227.69,-77.6"/>
</g>
<!-- Node34 -->
<g id="node34" class="node">
<title>Node34</title>
<g id="a_node34"><a xlink:title=" ">
<polygon fill="#e0e0e0" stroke="#999999" points="1700.5,-74 1635.5,-74 1635.5,-55 1700.5,-55 1700.5,-74"/>
<text text-anchor="middle" x="1668" y="-62" font-family="Helvetica,sans-Serif" font-size="10.00">functional</text>
</a>
</g>
</g>
<!-- Node32&#45;&gt;Node34 -->
<g id="edge57" class="edge">
<title>Node32&#45;&gt;Node34</title>
<path fill="none" stroke="#63b8ff" d="M1496.95,-109.51C1532.15,-100.45 1586.57,-86.45 1624.54,-76.68"/>
<polygon fill="#63b8ff" stroke="#63b8ff" points="1624.99,-80.18 1633.8,-74.3 1623.25,-73.4 1624.99,-80.18"/>
</g>
<!-- Node35 -->
<g id="node35" class="node">
<title>Node35</title>
<g id="a_node35"><a xlink:title=" ">
<polygon fill="#e0e0e0" stroke="#999999" points="1775,-74 1719,-74 1719,-55 1775,-55 1775,-74"/>
<text text-anchor="middle" x="1747" y="-62" font-family="Helvetica,sans-Serif" font-size="10.00">numeric</text>
</a>
</g>
</g>
<!-- Node32&#45;&gt;Node35 -->
<g id="edge58" class="edge">
<title>Node32&#45;&gt;Node35</title>
<path fill="none" stroke="#63b8ff" d="M1511.54,-110.33C1559.35,-102.29 1634.02,-89.31 1707.86,-74.36"/>
<polygon fill="#63b8ff" stroke="#63b8ff" points="1708.17,-77.87 1717.27,-72.44 1706.77,-71.01 1708.17,-77.87"/>
</g>
<!-- Node36 -->
<g id="node36" class="node">
<title>Node36</title>
<g id="a_node36"><a xlink:title=" ">
<polygon fill="#e0e0e0" stroke="#999999" points="1834.5,-74 1793.5,-74 1793.5,-55 1834.5,-55 1834.5,-74"/>
<text text-anchor="middle" x="1814" y="-62" font-family="Helvetica,sans-Serif" font-size="10.00">tuple</text>
</a>
</g>
</g>
<!-- Node32&#45;&gt;Node36 -->
<g id="edge61" class="edge">
<title>Node32&#45;&gt;Node36</title>
<path fill="none" stroke="#63b8ff" d="M1511.89,-111.29C1514.97,-110.85 1518.03,-110.42 1521,-110 1634.29,-94.09 1666.58,-97.88 1782.05,-74.13"/>
<polygon fill="#63b8ff" stroke="#63b8ff" points="1782.56,-77.6 1791.63,-72.13 1781.13,-70.75 1782.56,-77.6"/>
</g>
<!-- Node37 -->
<g id="node37" class="node">
<title>Node37</title>
<g id="a_node37"><a xlink:title=" ">
<polygon fill="#e0e0e0" stroke="#999999" points="1936.5,-74 1891.5,-74 1891.5,-55 1936.5,-55 1936.5,-74"/>
<text text-anchor="middle" x="1914" y="-62" font-family="Helvetica,sans-Serif" font-size="10.00">utility</text>
</a>
</g>
</g>
<!-- Node32&#45;&gt;Node37 -->
<g id="edge62" class="edge">
<title>Node32&#45;&gt;Node37</title>
<path fill="none" stroke="#63b8ff" d="M1511.87,-111.16C1514.96,-110.76 1518.02,-110.37 1521,-110 1678.85,-90.66 1720.09,-99.85 1877,-74 1878.02,-73.83 1879.06,-73.65 1880.11,-73.46"/>
<polygon fill="#63b8ff" stroke="#63b8ff" points="1880.81,-76.89 1889.91,-71.47 1879.41,-70.03 1880.81,-76.89"/>
</g>
<!-- Node38 -->
<g id="node38" class="node">
<title>Node38</title>
<g id="a_node38"><a xlink:title=" ">
<polygon fill="#e0e0e0" stroke="#999999" points="2001,-74 1955,-74 1955,-55 2001,-55 2001,-74"/>
<text text-anchor="middle" x="1978" y="-62" font-family="Helvetica,sans-Serif" font-size="10.00">locale</text>
</a>
</g>
</g>
<!-- Node32&#45;&gt;Node38 -->
<g id="edge64" class="edge">
<title>Node32&#45;&gt;Node38</title>
<path fill="none" stroke="#63b8ff" d="M1511.87,-111.11C1514.95,-110.71 1518.02,-110.34 1521,-110 1705.66,-88.9 1757.23,-105.77 1943.4,-74.15"/>
<polygon fill="#63b8ff" stroke="#63b8ff" points="1943.94,-77.61 1953.19,-72.46 1942.74,-70.71 1943.94,-77.61"/>
</g>
<!-- Node39 -->
<g id="node39" class="node">
<title>Node39</title>
<g id="a_node39"><a xlink:title=" ">
<polygon fill="#e0e0e0" stroke="#999999" points="2083,-74 2019,-74 2019,-55 2083,-55 2083,-74"/>
<text text-anchor="middle" x="2051" y="-62" font-family="Helvetica,sans-Serif" font-size="10.00">algorithm</text>
</a>
</g>
</g>
<!-- Node32&#45;&gt;Node39 -->
<g id="edge66" class="edge">
<title>Node32&#45;&gt;Node39</title>
<path fill="none" stroke="#63b8ff" d="M1511.86,-111.07C1514.95,-110.68 1518.02,-110.32 1521,-110 1733.94,-86.85 1792.2,-103.59 2007.47,-74.16"/>
<polygon fill="#63b8ff" stroke="#63b8ff" points="2007.92,-77.63 2017.34,-72.79 2006.96,-70.7 2007.92,-77.63"/>
</g>
<!-- Node40 -->
<g id="node40" class="node">
<title>Node40</title>
<g id="a_node40"><a xlink:title=" ">
<polygon fill="#e0e0e0" stroke="#999999" points="2133,-74 2101,-74 2101,-55 2133,-55 2133,-74"/>
<text text-anchor="middle" x="2117" y="-62" font-family="Helvetica,sans-Serif" font-size="10.00">set</text>
</a>
</g>
</g>
<!-- Node32&#45;&gt;Node40 -->
<g id="edge69" class="edge">
<title>Node32&#45;&gt;Node40</title>
<path fill="none" stroke="#63b8ff" d="M1511.86,-111.03C1514.95,-110.66 1518.01,-110.31 1521,-110 1770.23,-84.23 1840.5,-122.22 2089.54,-73.92"/>
<polygon fill="#63b8ff" stroke="#63b8ff" points="2090.14,-77.37 2099.28,-72 2088.79,-70.5 2090.14,-77.37"/>
</g>
<!-- Node41 -->
<g id="node41" class="node">
<title>Node41</title>
<g id="a_node41"><a xlink:title=" ">
<polygon fill="#e0e0e0" stroke="#999999" points="2220.5,-74 2151.5,-74 2151.5,-55 2220.5,-55 2220.5,-74"/>
<text text-anchor="middle" x="2186" y="-62" font-family="Helvetica,sans-Serif" font-size="10.00">type_traits</text>
</a>
</g>
</g>
<!-- Node32&#45;&gt;Node41 -->
<g id="edge70" class="edge">
<title>Node32&#45;&gt;Node41</title>
<path fill="none" stroke="#63b8ff" d="M1511.86,-111.01C1514.95,-110.64 1518.01,-110.3 1521,-110 1792.44,-82.63 1865.75,-107.62 2139.91,-74.07"/>
<polygon fill="#63b8ff" stroke="#63b8ff" points="2140.01,-77.59 2149.5,-72.88 2139.15,-70.64 2140.01,-77.59"/>
</g>
<!-- Node42 -->
<g id="node42" class="node">
<title>Node42</title>
<g id="a_node42"><a xlink:title=" ">
<polygon fill="#e0e0e0" stroke="#999999" points="1139.5,-74 1086.5,-74 1086.5,-55 1139.5,-55 1139.5,-74"/>
<text text-anchor="middle" x="1113" y="-62" font-family="Helvetica,sans-Serif" font-size="10.00">iterator</text>
</a>
</g>
</g>
<!-- Node32&#45;&gt;Node42 -->
<g id="edge71" class="edge">
<title>Node32&#45;&gt;Node42</title>
<path fill="none" stroke="#63b8ff" d="M1412.17,-112.83C1352.46,-105.72 1249.17,-92.44 1150.73,-74.16"/>
<polygon fill="#63b8ff" stroke="#63b8ff" points="1151.64,-70.77 1141.17,-72.36 1150.35,-77.65 1151.64,-70.77"/>
</g>
<!-- Node43 -->
<g id="node43" class="node">
<title>Node43</title>
<g id="a_node43"><a xlink:title=" ">
<polygon fill="#e0e0e0" stroke="#999999" points="1222.5,-74 1157.5,-74 1157.5,-55 1222.5,-55 1222.5,-74"/>
<text text-anchor="middle" x="1190" y="-62" font-family="Helvetica,sans-Serif" font-size="10.00">stdexcept</text>
</a>
</g>
</g>
<!-- Node32&#45;&gt;Node43 -->
<g id="edge72" class="edge">
<title>Node32&#45;&gt;Node43</title>
<path fill="none" stroke="#63b8ff" d="M1415.28,-109.58C1371.16,-101.13 1302.82,-87.98 1233.66,-74.31"/>
<polygon fill="#63b8ff" stroke="#63b8ff" points="1234.53,-70.92 1224.04,-72.41 1233.17,-77.78 1234.53,-70.92"/>
</g>
<!-- Node44 -->
<g id="node44" class="node">
<title>Node44</title>
<g id="a_node44"><a xlink:title=" ">
<polygon fill="#e0e0e0" stroke="#999999" points="1285,-74 1241,-74 1241,-55 1285,-55 1285,-74"/>
<text text-anchor="middle" x="1263" y="-62" font-family="Helvetica,sans-Serif" font-size="10.00">limits</text>
</a>
</g>
</g>
<!-- Node32&#45;&gt;Node44 -->
<g id="edge74" class="edge">
<title>Node32&#45;&gt;Node44</title>
<path fill="none" stroke="#63b8ff" d="M1428.24,-109.51C1391.52,-99.73 1333.17,-84.19 1296.54,-74.43"/>
<polygon fill="#63b8ff" stroke="#63b8ff" points="1297.49,-71.06 1286.92,-71.87 1295.69,-77.83 1297.49,-71.06"/>
</g>
<!-- Node45 -->
<g id="node45" class="node">
<title>Node45</title>
<g id="a_node45"><a xlink:title=" ">
<polygon fill="#e0e0e0" stroke="#999999" points="1368.5,-74 1303.5,-74 1303.5,-55 1368.5,-55 1368.5,-74"/>
<text text-anchor="middle" x="1336" y="-62" font-family="Helvetica,sans-Serif" font-size="10.00">exception</text>
</a>
</g>
</g>
<!-- Node32&#45;&gt;Node45 -->
<g id="edge75" class="edge">
<title>Node32&#45;&gt;Node45</title>
<path fill="none" stroke="#63b8ff" d="M1440.63,-109.51C1420.59,-101.08 1390.4,-88.38 1367.59,-78.79"/>
<polygon fill="#63b8ff" stroke="#63b8ff" points="1369.03,-75.6 1358.45,-74.94 1366.31,-82.05 1369.03,-75.6"/>
</g>
<!-- Node46 -->
<g id="node46" class="node">
<title>Node46</title>
<g id="a_node46"><a xlink:title=" ">
<polygon fill="#e0e0e0" stroke="#999999" points="1451,-74 1387,-74 1387,-55 1451,-55 1451,-74"/>
<text text-anchor="middle" x="1419" y="-62" font-family="Helvetica,sans-Serif" font-size="10.00">sys/stat.h</text>
</a>
</g>
</g>
<!-- Node32&#45;&gt;Node46 -->
<g id="edge76" class="edge">
<title>Node32&#45;&gt;Node46</title>
<path fill="none" stroke="#63b8ff" d="M1454.9,-109.75C1449.08,-102.58 1440.67,-92.2 1433.44,-83.3"/>
<polygon fill="#63b8ff" stroke="#63b8ff" points="1436.23,-81.18 1427.21,-75.62 1430.79,-85.59 1436.23,-81.18"/>
</g>
<!-- Node47 -->
<g id="node47" class="node">
<title>Node47</title>
<g id="a_node47"><a xlink:title=" ">
<polygon fill="#e0e0e0" stroke="#999999" points="1541,-74 1469,-74 1469,-55 1541,-55 1541,-74"/>
<text text-anchor="middle" x="1505" y="-62" font-family="Helvetica,sans-Serif" font-size="10.00">sys/types.h</text>
</a>
</g>
</g>
<!-- Node32&#45;&gt;Node47 -->
<g id="edge77" class="edge">
<title>Node32&#45;&gt;Node47</title>
<path fill="none" stroke="#63b8ff" d="M1469.1,-109.75C1474.92,-102.58 1483.33,-92.2 1490.56,-83.3"/>
<polygon fill="#63b8ff" stroke="#63b8ff" points="1493.21,-85.59 1496.79,-75.62 1487.77,-81.18 1493.21,-85.59"/>
</g>
<!-- Node48&#45;&gt;Node14 -->
<g id="edge83" class="edge">
<title>Node48&#45;&gt;Node14</title>
<path fill="none" stroke="#63b8ff" d="M1313.84,-165.83C1225.14,-150.83 1024.6,-115.62 846.46,-74.43"/>
<polygon fill="#63b8ff" stroke="#63b8ff" points="847.31,-71.03 836.77,-72.18 845.72,-77.85 847.31,-71.03"/>
</g>
<!-- Node49 -->
<g id="node49" class="node">
<title>Node49</title>
<g id="a_node49"><a xlink:href="SharedPointer_8hpp.html" target="_top" xlink:title=" ">
<polygon fill="white" stroke="#666666" points="1654,-129 1530,-129 1530,-110 1654,-110 1654,-129"/>
<text text-anchor="middle" x="1592" y="-117" font-family="Helvetica,sans-Serif" font-size="10.00">util/SharedPointer.hpp</text>
</a>
</g>
</g>
<!-- Node48&#45;&gt;Node49 -->
<g id="edge81" class="edge">
<title>Node48&#45;&gt;Node49</title>
<path fill="none" stroke="#63b8ff" d="M1399.36,-164.51C1438.64,-155.54 1499.14,-141.71 1541.85,-131.96"/>
<polygon fill="#63b8ff" stroke="#63b8ff" points="1542.39,-135.42 1551.36,-129.78 1540.84,-128.6 1542.39,-135.42"/>
</g>
<!-- Node50 -->
<g id="node50" class="node">
<title>Node50</title>
<g id="a_node50"><a xlink:title=" ">
<polygon fill="#e0e0e0" stroke="#999999" points="1771.5,-129 1672.5,-129 1672.5,-110 1771.5,-110 1771.5,-129"/>
<text text-anchor="middle" x="1722" y="-117" font-family="Helvetica,sans-Serif" font-size="10.00">yaml&#45;cpp/yaml.h</text>
</a>
</g>
</g>
<!-- Node48&#45;&gt;Node50 -->
<g id="edge84" class="edge">
<title>Node48&#45;&gt;Node50</title>
<path fill="none" stroke="#63b8ff" d="M1406.22,-166.73C1471.08,-157.24 1589.22,-139.94 1661.16,-129.41"/>
<polygon fill="#63b8ff" stroke="#63b8ff" points="1661.41,-132.91 1670.8,-128 1660.39,-125.98 1661.41,-132.91"/>
</g>
<!-- Node49&#45;&gt;Node33 -->
<g id="edge82" class="edge">
<title>Node49&#45;&gt;Node33</title>
<path fill="none" stroke="#63b8ff" d="M1654.42,-110.92C1657.66,-110.59 1660.87,-110.28 1664,-110 1911.35,-87.55 1978.51,-108.97 2227.4,-74.14"/>
<polygon fill="#63b8ff" stroke="#63b8ff" points="2227.72,-77.63 2237.13,-72.76 2226.73,-70.7 2227.72,-77.63"/>
</g>
</g>
</svg>
