<?xml version="1.0" encoding="UTF-8" standalone="no"?>
<!DOCTYPE svg PUBLIC "-//W3C//DTD SVG 1.1//EN"
 "http://www.w3.org/Graphics/SVG/1.1/DTD/svg11.dtd">
<!-- Generated by graphviz version 5.0.1 (0)
 -->
<!-- Title: ComplexTensorReader.cxx Pages: 1 -->
<svg width="2305pt" height="368pt"
 viewBox="0.00 0.00 2305.00 368.00" xmlns="http://www.w3.org/2000/svg" xmlns:xlink="http://www.w3.org/1999/xlink">
<g id="graph0" class="graph" transform="scale(1 1) rotate(0) translate(4 364)">
<title>ComplexTensorReader.cxx</title>
<!-- Node1 -->
<g id="node1" class="node">
<title>Node1</title>
<g id="a_node1"><a xlink:title=" ">
<polygon fill="#999999" stroke="#666666" points="848,-360 702,-360 702,-341 848,-341 848,-360"/>
<text text-anchor="middle" x="775" y="-348" font-family="Helvetica,sans-Serif" font-size="10.00">ComplexTensorReader.cxx</text>
</a>
</g>
</g>
<!-- Node2 -->
<g id="node2" class="node">
<title>Node2</title>
<g id="a_node2"><a xlink:href="ComplexTensorReader_8hpp.html" target="_top" xlink:title=" ">
<polygon fill="white" stroke="#666666" points="797.5,-305 650.5,-305 650.5,-275 797.5,-275 797.5,-305"/>
<text text-anchor="start" x="658.5" y="-293" font-family="Helvetica,sans-Serif" font-size="10.00">algorithms/ComplexTensor</text>
<text text-anchor="middle" x="724" y="-282" font-family="Helvetica,sans-Serif" font-size="10.00">Reader.hpp</text>
</a>
</g>
</g>
<!-- Node1&#45;&gt;Node2 -->
<g id="edge1" class="edge">
<title>Node1&#45;&gt;Node2</title>
<path fill="none" stroke="#63b8ff" d="M767.47,-340.87C761.07,-333.52 751.58,-322.63 743.1,-312.91"/>
<polygon fill="#63b8ff" stroke="#63b8ff" points="745.51,-310.35 736.31,-305.11 740.24,-314.95 745.51,-310.35"/>
</g>
<!-- Node6 -->
<g id="node6" class="node">
<title>Node6</title>
<g id="a_node6"><a xlink:href="Log_8hpp.html" target="_top" xlink:title=" ">
<polygon fill="white" stroke="#666666" points="722,-129 648,-129 648,-110 722,-110 722,-129"/>
<text text-anchor="middle" x="685" y="-117" font-family="Helvetica,sans-Serif" font-size="10.00">util/Log.hpp</text>
</a>
</g>
</g>
<!-- Node1&#45;&gt;Node6 -->
<g id="edge47" class="edge">
<title>Node1&#45;&gt;Node6</title>
<path fill="none" stroke="#63b8ff" d="M783.48,-340.85C791.05,-332.47 801.6,-319.01 806,-305 809.99,-292.28 809.02,-287.99 806,-275 791.77,-213.72 735.12,-160.47 704.65,-135.54"/>
<polygon fill="#63b8ff" stroke="#63b8ff" points="706.8,-132.78 696.8,-129.27 702.43,-138.25 706.8,-132.78"/>
</g>
<!-- Node17 -->
<g id="node17" class="node">
<title>Node17</title>
<g id="a_node17"><a xlink:title=" ">
<polygon fill="#e0e0e0" stroke="#999999" points="973.5,-74 918.5,-74 918.5,-55 973.5,-55 973.5,-74"/>
<text text-anchor="middle" x="946" y="-62" font-family="Helvetica,sans-Serif" font-size="10.00">fstream</text>
</a>
</g>
</g>
<!-- Node1&#45;&gt;Node17 -->
<g id="edge78" class="edge">
<title>Node1&#45;&gt;Node17</title>
<path fill="none" stroke="#63b8ff" d="M833.74,-340.99C929.81,-325.4 1110,-288.44 1110,-230.5 1110,-230.5 1110,-230.5 1110,-173.5 1110,-141.77 1023.26,-99.07 975.95,-78.14"/>
<polygon fill="#63b8ff" stroke="#63b8ff" points="977.34,-74.93 966.77,-74.13 974.54,-81.34 977.34,-74.93"/>
</g>
<!-- Node19 -->
<g id="node19" class="node">
<title>Node19</title>
<g id="a_node19"><a xlink:href="Complex_8hpp.html" target="_top" xlink:title=" ">
<polygon fill="white" stroke="#666666" points="110,-129 0,-129 0,-110 110,-110 110,-129"/>
<text text-anchor="middle" x="55" y="-117" font-family="Helvetica,sans-Serif" font-size="10.00">math/Complex.hpp</text>
</a>
</g>
</g>
<!-- Node1&#45;&gt;Node19 -->
<g id="edge36" class="edge">
<title>Node1&#45;&gt;Node19</title>
<path fill="none" stroke="#63b8ff" d="M701.77,-342.79C644.44,-336.37 563.12,-324.69 494,-305 330.64,-258.47 146.74,-167.79 80.48,-133.8"/>
<polygon fill="#63b8ff" stroke="#63b8ff" points="81.72,-130.5 71.23,-129.02 78.51,-136.72 81.72,-130.5"/>
</g>
<!-- Node22 -->
<g id="node22" class="node">
<title>Node22</title>
<g id="a_node22"><a xlink:href="Tensor_8hpp.html" target="_top" xlink:title=" ">
<polygon fill="white" stroke="#666666" points="469.5,-129 382.5,-129 382.5,-110 469.5,-110 469.5,-129"/>
<text text-anchor="middle" x="426" y="-117" font-family="Helvetica,sans-Serif" font-size="10.00">util/Tensor.hpp</text>
</a>
</g>
</g>
<!-- Node1&#45;&gt;Node22 -->
<g id="edge79" class="edge">
<title>Node1&#45;&gt;Node22</title>
<path fill="none" stroke="#63b8ff" d="M736.38,-340.93C708.68,-333.79 671.08,-322.02 641,-305 555.79,-256.79 473.11,-172.01 440.54,-136.68"/>
<polygon fill="#63b8ff" stroke="#63b8ff" points="443.02,-134.2 433.7,-129.17 437.85,-138.92 443.02,-134.2"/>
</g>
<!-- Node26 -->
<g id="node26" class="node">
<title>Node26</title>
<g id="a_node26"><a xlink:href="TensorIo_8hpp.html" target="_top" xlink:title=" ">
<polygon fill="white" stroke="#666666" points="474.5,-239 377.5,-239 377.5,-220 474.5,-220 474.5,-239"/>
<text text-anchor="middle" x="426" y="-227" font-family="Helvetica,sans-Serif" font-size="10.00">util/TensorIo.hpp</text>
</a>
</g>
</g>
<!-- Node1&#45;&gt;Node26 -->
<g id="edge37" class="edge">
<title>Node1&#45;&gt;Node26</title>
<path fill="none" stroke="#63b8ff" d="M705.2,-340.99C661.63,-334.28 604.91,-322.99 557,-305 515.33,-289.35 471.2,-261.61 446.27,-244.75"/>
<polygon fill="#63b8ff" stroke="#63b8ff" points="448.23,-241.84 438,-239.07 444.27,-247.62 448.23,-241.84"/>
</g>
<!-- Node30 -->
<g id="node30" class="node">
<title>Node30</title>
<g id="a_node30"><a xlink:href="Sisi4s_8hpp.html" target="_top" xlink:title=" ">
<polygon fill="white" stroke="#666666" points="1072,-239 1006,-239 1006,-220 1072,-220 1072,-239"/>
<text text-anchor="middle" x="1039" y="-227" font-family="Helvetica,sans-Serif" font-size="10.00">Sisi4s.hpp</text>
</a>
</g>
</g>
<!-- Node1&#45;&gt;Node30 -->
<g id="edge48" class="edge">
<title>Node1&#45;&gt;Node30</title>
<path fill="none" stroke="#63b8ff" d="M793.99,-340.94C839.73,-320.32 956.26,-267.8 1010.47,-243.36"/>
<polygon fill="#63b8ff" stroke="#63b8ff" points="1012.15,-246.44 1019.83,-239.14 1009.28,-240.06 1012.15,-246.44"/>
</g>
<!-- Node48 -->
<g id="node48" class="node">
<title>Node48</title>
<g id="a_node48"><a xlink:href="Emitter_8hpp.html" target="_top" xlink:title=" ">
<polygon fill="white" stroke="#666666" points="1406,-184 1314,-184 1314,-165 1406,-165 1406,-184"/>
<text text-anchor="middle" x="1360" y="-172" font-family="Helvetica,sans-Serif" font-size="10.00">util/Emitter.hpp</text>
</a>
</g>
</g>
<!-- Node1&#45;&gt;Node48 -->
<g id="edge80" class="edge">
<title>Node1&#45;&gt;Node48</title>
<path fill="none" stroke="#63b8ff" d="M848.25,-348.08C920.09,-344.86 1031.93,-334.93 1124,-305 1209.58,-277.17 1299.95,-217.94 1339.47,-190.29"/>
<polygon fill="#63b8ff" stroke="#63b8ff" points="1341.83,-192.91 1347.97,-184.28 1337.79,-187.2 1341.83,-192.91"/>
</g>
<!-- Node3 -->
<g id="node3" class="node">
<title>Node3</title>
<g id="a_node3"><a xlink:title=" ">
<polygon fill="#e0e0e0" stroke="#999999" points="900.5,-74 853.5,-74 853.5,-55 900.5,-55 900.5,-74"/>
<text text-anchor="middle" x="877" y="-62" font-family="Helvetica,sans-Serif" font-size="10.00">vector</text>
</a>
</g>
</g>
<!-- Node2&#45;&gt;Node3 -->
<g id="edge2" class="edge">
<title>Node2&#45;&gt;Node3</title>
<path fill="none" stroke="#63b8ff" d="M742.22,-274.97C753.65,-265.58 768.21,-252.52 779,-239 820.28,-187.28 854.59,-115.97 869.29,-83.23"/>
<polygon fill="#63b8ff" stroke="#63b8ff" points="872.52,-84.6 873.36,-74.03 866.12,-81.76 872.52,-84.6"/>
</g>
<!-- Node4 -->
<g id="node4" class="node">
<title>Node4</title>
<g id="a_node4"><a xlink:href="Algorithm_8hpp.html" target="_top" xlink:title=" ">
<polygon fill="white" stroke="#666666" points="770.5,-239 629.5,-239 629.5,-220 770.5,-220 770.5,-239"/>
<text text-anchor="middle" x="700" y="-227" font-family="Helvetica,sans-Serif" font-size="10.00">algorithms/Algorithm.hpp</text>
</a>
</g>
</g>
<!-- Node2&#45;&gt;Node4 -->
<g id="edge3" class="edge">
<title>Node2&#45;&gt;Node4</title>
<path fill="none" stroke="#63b8ff" d="M718.19,-274.84C714.96,-266.95 710.89,-257.05 707.43,-248.61"/>
<polygon fill="#63b8ff" stroke="#63b8ff" points="710.63,-247.19 703.6,-239.27 704.15,-249.85 710.63,-247.19"/>
</g>
<!-- Node4&#45;&gt;Node3 -->
<g id="edge33" class="edge">
<title>Node4&#45;&gt;Node3</title>
<path fill="none" stroke="#63b8ff" d="M710.49,-219.79C721.09,-210.93 737.87,-196.72 752,-184 791.75,-148.19 836.99,-104.56 860.63,-81.53"/>
<polygon fill="#63b8ff" stroke="#63b8ff" points="863.34,-83.77 868.05,-74.28 858.45,-78.77 863.34,-83.77"/>
</g>
<!-- Node5 -->
<g id="node5" class="node">
<title>Node5</title>
<g id="a_node5"><a xlink:href="Data_8hpp.html" target="_top" xlink:title=" ">
<polygon fill="white" stroke="#666666" points="715.5,-184 654.5,-184 654.5,-165 715.5,-165 715.5,-184"/>
<text text-anchor="middle" x="685" y="-172" font-family="Helvetica,sans-Serif" font-size="10.00">Data.hpp</text>
</a>
</g>
</g>
<!-- Node4&#45;&gt;Node5 -->
<g id="edge4" class="edge">
<title>Node4&#45;&gt;Node5</title>
<path fill="none" stroke="#63b8ff" d="M697.52,-219.75C695.54,-212.72 692.68,-202.62 690.19,-193.84"/>
<polygon fill="#63b8ff" stroke="#63b8ff" points="693.52,-192.76 687.43,-184.09 686.79,-194.66 693.52,-192.76"/>
</g>
<!-- Node12 -->
<g id="node12" class="node">
<title>Node12</title>
<g id="a_node12"><a xlink:title=" ">
<polygon fill="#e0e0e0" stroke="#999999" points="432,-19 376,-19 376,0 432,0 432,-19"/>
<text text-anchor="middle" x="404" y="-7" font-family="Helvetica,sans-Serif" font-size="10.00">sstream</text>
</a>
</g>
</g>
<!-- Node4&#45;&gt;Node12 -->
<g id="edge34" class="edge">
<title>Node4&#45;&gt;Node12</title>
<path fill="none" stroke="#63b8ff" d="M646.03,-219.96C561.9,-205.43 405.68,-173.1 373,-129 350.21,-98.24 374.8,-52.15 391.4,-27.5"/>
<polygon fill="#63b8ff" stroke="#63b8ff" points="394.37,-29.37 397.26,-19.17 388.64,-25.34 394.37,-29.37"/>
</g>
<!-- Node14 -->
<g id="node14" class="node">
<title>Node14</title>
<g id="a_node14"><a xlink:title=" ">
<polygon fill="#e0e0e0" stroke="#999999" points="835,-74 791,-74 791,-55 835,-55 835,-74"/>
<text text-anchor="middle" x="813" y="-62" font-family="Helvetica,sans-Serif" font-size="10.00">string</text>
</a>
</g>
</g>
<!-- Node4&#45;&gt;Node14 -->
<g id="edge32" class="edge">
<title>Node4&#45;&gt;Node14</title>
<path fill="none" stroke="#63b8ff" d="M706.08,-219.74C724.01,-193.87 776.96,-117.48 800.95,-82.88"/>
<polygon fill="#63b8ff" stroke="#63b8ff" points="804.07,-84.52 806.89,-74.31 798.32,-80.53 804.07,-84.52"/>
</g>
<!-- Node4&#45;&gt;Node22 -->
<g id="edge35" class="edge">
<title>Node4&#45;&gt;Node22</title>
<path fill="none" stroke="#63b8ff" d="M686.7,-219.81C665.79,-206.47 623.62,-180.82 585,-165 549.69,-150.54 508.12,-139.09 476.34,-131.42"/>
<polygon fill="#63b8ff" stroke="#63b8ff" points="476.93,-127.97 466.39,-129.07 475.31,-134.78 476.93,-127.97"/>
</g>
<!-- Node5&#45;&gt;Node3 -->
<g id="edge24" class="edge">
<title>Node5&#45;&gt;Node3</title>
<path fill="none" stroke="#63b8ff" d="M700.39,-164.84C733.75,-146.08 812.96,-101.52 852.98,-79.01"/>
<polygon fill="#63b8ff" stroke="#63b8ff" points="854.81,-82 861.81,-74.05 851.37,-75.9 854.81,-82"/>
</g>
<!-- Node5&#45;&gt;Node6 -->
<g id="edge5" class="edge">
<title>Node5&#45;&gt;Node6</title>
<path fill="none" stroke="#63b8ff" d="M685,-164.75C685,-157.8 685,-147.85 685,-139.13"/>
<polygon fill="#63b8ff" stroke="#63b8ff" points="688.5,-139.09 685,-129.09 681.5,-139.09 688.5,-139.09"/>
</g>
<!-- Node5&#45;&gt;Node14 -->
<g id="edge22" class="edge">
<title>Node5&#45;&gt;Node14</title>
<path fill="none" stroke="#63b8ff" d="M695.47,-164.66C717.24,-146.3 767.59,-103.81 794.79,-80.87"/>
<polygon fill="#63b8ff" stroke="#63b8ff" points="797.35,-83.28 802.74,-74.16 792.84,-77.93 797.35,-83.28"/>
</g>
<!-- Node18 -->
<g id="node18" class="node">
<title>Node18</title>
<g id="a_node18"><a xlink:href="Float_8hpp.html" target="_top" xlink:title=" ">
<polygon fill="white" stroke="#666666" points="240.5,-74 149.5,-74 149.5,-55 240.5,-55 240.5,-74"/>
<text text-anchor="middle" x="195" y="-62" font-family="Helvetica,sans-Serif" font-size="10.00">math/Float.hpp</text>
</a>
</g>
</g>
<!-- Node5&#45;&gt;Node18 -->
<g id="edge17" class="edge">
<title>Node5&#45;&gt;Node18</title>
<path fill="none" stroke="#63b8ff" d="M654.4,-167.28C620.3,-159.91 563.8,-146.41 517,-129 498.93,-122.28 496.39,-115.78 478,-110 401.24,-85.86 308.47,-74.46 250.59,-69.34"/>
<polygon fill="#63b8ff" stroke="#63b8ff" points="250.81,-65.84 240.55,-68.48 250.22,-72.82 250.81,-65.84"/>
</g>
<!-- Node5&#45;&gt;Node19 -->
<g id="edge19" class="edge">
<title>Node5&#45;&gt;Node19</title>
<path fill="none" stroke="#63b8ff" d="M654.19,-170.91C556.92,-162.72 254.89,-137.32 120.56,-126.02"/>
<polygon fill="#63b8ff" stroke="#63b8ff" points="120.67,-122.51 110.41,-125.16 120.08,-129.49 120.67,-122.51"/>
</g>
<!-- Node21 -->
<g id="node21" class="node">
<title>Node21</title>
<g id="a_node21"><a xlink:title=" ">
<polygon fill="#e0e0e0" stroke="#999999" points="1030,-74 992,-74 992,-55 1030,-55 1030,-74"/>
<text text-anchor="middle" x="1011" y="-62" font-family="Helvetica,sans-Serif" font-size="10.00">map</text>
</a>
</g>
</g>
<!-- Node5&#45;&gt;Node21 -->
<g id="edge23" class="edge">
<title>Node5&#45;&gt;Node21</title>
<path fill="none" stroke="#63b8ff" d="M710.85,-164.94C770.91,-145.04 919.51,-95.81 982.28,-75.01"/>
<polygon fill="#63b8ff" stroke="#63b8ff" points="983.54,-78.28 991.93,-71.82 981.34,-71.64 983.54,-78.28"/>
</g>
<!-- Node5&#45;&gt;Node22 -->
<g id="edge25" class="edge">
<title>Node5&#45;&gt;Node22</title>
<path fill="none" stroke="#63b8ff" d="M654.27,-167.21C610.72,-158.3 530.46,-141.88 477.66,-131.07"/>
<polygon fill="#63b8ff" stroke="#63b8ff" points="478.3,-127.63 467.81,-129.05 476.9,-134.49 478.3,-127.63"/>
</g>
<!-- Node25 -->
<g id="node25" class="node">
<title>Node25</title>
<g id="a_node25"><a xlink:href="Exception_8hpp.html" target="_top" xlink:title=" ">
<polygon fill="white" stroke="#666666" points="630,-129 526,-129 526,-110 630,-110 630,-129"/>
<text text-anchor="middle" x="578" y="-117" font-family="Helvetica,sans-Serif" font-size="10.00">util/Exception.hpp</text>
</a>
</g>
</g>
<!-- Node5&#45;&gt;Node25 -->
<g id="edge28" class="edge">
<title>Node5&#45;&gt;Node25</title>
<path fill="none" stroke="#63b8ff" d="M667.81,-164.98C650.75,-156.54 624.37,-143.47 604.6,-133.68"/>
<polygon fill="#63b8ff" stroke="#63b8ff" points="606.02,-130.47 595.5,-129.17 602.91,-136.75 606.02,-130.47"/>
</g>
<!-- Node7 -->
<g id="node7" class="node">
<title>Node7</title>
<g id="a_node7"><a xlink:href="Time_8hpp.html" target="_top" xlink:title=" ">
<polygon fill="white" stroke="#666666" points="772.5,-74 691.5,-74 691.5,-55 772.5,-55 772.5,-74"/>
<text text-anchor="middle" x="732" y="-62" font-family="Helvetica,sans-Serif" font-size="10.00">util/Time.hpp</text>
</a>
</g>
</g>
<!-- Node6&#45;&gt;Node7 -->
<g id="edge6" class="edge">
<title>Node6&#45;&gt;Node7</title>
<path fill="none" stroke="#63b8ff" d="M692.76,-109.75C699.47,-102.18 709.34,-91.05 717.51,-81.84"/>
<polygon fill="#63b8ff" stroke="#63b8ff" points="720.37,-83.89 724.38,-74.09 715.13,-79.25 720.37,-83.89"/>
</g>
<!-- Node6&#45;&gt;Node14 -->
<g id="edge13" class="edge">
<title>Node6&#45;&gt;Node14</title>
<path fill="none" stroke="#63b8ff" d="M705.57,-109.98C726.43,-101.34 758.97,-87.87 782.77,-78.02"/>
<polygon fill="#63b8ff" stroke="#63b8ff" points="784.16,-81.23 792.06,-74.17 781.48,-74.76 784.16,-81.23"/>
</g>
<!-- Node15 -->
<g id="node15" class="node">
<title>Node15</title>
<g id="a_node15"><a xlink:title=" ">
<polygon fill="#e0e0e0" stroke="#999999" points="588,-74 528,-74 528,-55 588,-55 588,-74"/>
<text text-anchor="middle" x="558" y="-62" font-family="Helvetica,sans-Serif" font-size="10.00">iostream</text>
</a>
</g>
</g>
<!-- Node6&#45;&gt;Node15 -->
<g id="edge14" class="edge">
<title>Node6&#45;&gt;Node15</title>
<path fill="none" stroke="#63b8ff" d="M664.6,-109.98C643.98,-101.38 611.89,-87.99 588.31,-78.15"/>
<polygon fill="#63b8ff" stroke="#63b8ff" points="589.35,-74.79 578.78,-74.17 586.66,-81.25 589.35,-74.79"/>
</g>
<!-- Node16 -->
<g id="node16" class="node">
<title>Node16</title>
<g id="a_node16"><a xlink:title=" ">
<polygon fill="#e0e0e0" stroke="#999999" points="673.5,-74 606.5,-74 606.5,-55 673.5,-55 673.5,-74"/>
<text text-anchor="middle" x="640" y="-62" font-family="Helvetica,sans-Serif" font-size="10.00">streambuf</text>
</a>
</g>
</g>
<!-- Node6&#45;&gt;Node16 -->
<g id="edge15" class="edge">
<title>Node6&#45;&gt;Node16</title>
<path fill="none" stroke="#63b8ff" d="M677.57,-109.75C671.15,-102.18 661.69,-91.05 653.88,-81.84"/>
<polygon fill="#63b8ff" stroke="#63b8ff" points="656.43,-79.45 647.29,-74.09 651.1,-83.98 656.43,-79.45"/>
</g>
<!-- Node6&#45;&gt;Node17 -->
<g id="edge16" class="edge">
<title>Node6&#45;&gt;Node17</title>
<path fill="none" stroke="#63b8ff" d="M722.11,-111.59C764.78,-103.55 837.16,-89.63 908.12,-74.35"/>
<polygon fill="#63b8ff" stroke="#63b8ff" points="909.08,-77.73 918.11,-72.19 907.6,-70.88 909.08,-77.73"/>
</g>
<!-- Node8 -->
<g id="node8" class="node">
<title>Node8</title>
<g id="a_node8"><a xlink:title=" ">
<polygon fill="#e0e0e0" stroke="#999999" points="754,-19 710,-19 710,0 754,0 754,-19"/>
<text text-anchor="middle" x="732" y="-7" font-family="Helvetica,sans-Serif" font-size="10.00">ctime</text>
</a>
</g>
</g>
<!-- Node7&#45;&gt;Node8 -->
<g id="edge7" class="edge">
<title>Node7&#45;&gt;Node8</title>
<path fill="none" stroke="#63b8ff" d="M732,-54.75C732,-47.8 732,-37.85 732,-29.13"/>
<polygon fill="#63b8ff" stroke="#63b8ff" points="735.5,-29.09 732,-19.09 728.5,-29.09 735.5,-29.09"/>
</g>
<!-- Node9 -->
<g id="node9" class="node">
<title>Node9</title>
<g id="a_node9"><a xlink:title=" ">
<polygon fill="#e0e0e0" stroke="#999999" points="1191,-19 1141,-19 1141,0 1191,0 1191,-19"/>
<text text-anchor="middle" x="1166" y="-7" font-family="Helvetica,sans-Serif" font-size="10.00">cstdint</text>
</a>
</g>
</g>
<!-- Node7&#45;&gt;Node9 -->
<g id="edge8" class="edge">
<title>Node7&#45;&gt;Node9</title>
<path fill="none" stroke="#63b8ff" d="M772.63,-56.41C775.8,-55.91 778.95,-55.44 782,-55 910.02,-36.71 1062.88,-20.74 1130.65,-13.96"/>
<polygon fill="#63b8ff" stroke="#63b8ff" points="1131.18,-17.43 1140.78,-12.96 1130.48,-10.46 1131.18,-17.43"/>
</g>
<!-- Node10 -->
<g id="node10" class="node">
<title>Node10</title>
<g id="a_node10"><a xlink:title=" ">
<polygon fill="#e0e0e0" stroke="#999999" points="321.5,-19 264.5,-19 264.5,0 321.5,0 321.5,-19"/>
<text text-anchor="middle" x="293" y="-7" font-family="Helvetica,sans-Serif" font-size="10.00">ostream</text>
</a>
</g>
</g>
<!-- Node7&#45;&gt;Node10 -->
<g id="edge9" class="edge">
<title>Node7&#45;&gt;Node10</title>
<path fill="none" stroke="#63b8ff" d="M691.37,-56.4C688.2,-55.91 685.05,-55.43 682,-55 542.49,-35.18 507,-35.04 367,-19 355.59,-17.69 343.19,-16.27 331.86,-14.97"/>
<polygon fill="#63b8ff" stroke="#63b8ff" points="332.15,-11.48 321.82,-13.81 331.35,-18.43 332.15,-11.48"/>
</g>
<!-- Node11 -->
<g id="node11" class="node">
<title>Node11</title>
<g id="a_node11"><a xlink:title=" ">
<polygon fill="#e0e0e0" stroke="#999999" points="1450,-19 1394,-19 1394,0 1450,0 1450,-19"/>
<text text-anchor="middle" x="1422" y="-7" font-family="Helvetica,sans-Serif" font-size="10.00">iomanip</text>
</a>
</g>
</g>
<!-- Node7&#45;&gt;Node11 -->
<g id="edge10" class="edge">
<title>Node7&#45;&gt;Node11</title>
<path fill="none" stroke="#63b8ff" d="M772.61,-56.25C775.78,-55.79 778.94,-55.37 782,-55 1009.28,-27.85 1284.1,-15.61 1383.66,-11.84"/>
<polygon fill="#63b8ff" stroke="#63b8ff" points="1383.97,-15.33 1393.83,-11.46 1383.71,-8.34 1383.97,-15.33"/>
</g>
<!-- Node7&#45;&gt;Node12 -->
<g id="edge11" class="edge">
<title>Node7&#45;&gt;Node12</title>
<path fill="none" stroke="#63b8ff" d="M691.35,-56.52C688.19,-56 685.04,-55.49 682,-55 578.19,-38.42 549.1,-39.08 442.14,-19.09"/>
<polygon fill="#63b8ff" stroke="#63b8ff" points="442.71,-15.64 432.23,-17.22 441.41,-22.52 442.71,-15.64"/>
</g>
<!-- Node13 -->
<g id="node13" class="node">
<title>Node13</title>
<g id="a_node13"><a xlink:title=" ">
<polygon fill="#e0e0e0" stroke="#999999" points="1700.5,-19 1653.5,-19 1653.5,0 1700.5,0 1700.5,-19"/>
<text text-anchor="middle" x="1677" y="-7" font-family="Helvetica,sans-Serif" font-size="10.00">cmath</text>
</a>
</g>
</g>
<!-- Node7&#45;&gt;Node13 -->
<g id="edge12" class="edge">
<title>Node7&#45;&gt;Node13</title>
<path fill="none" stroke="#63b8ff" d="M772.6,-56.18C775.78,-55.74 778.94,-55.34 782,-55 868.65,-45.51 1489.56,-18.53 1642.85,-11.96"/>
<polygon fill="#63b8ff" stroke="#63b8ff" points="1643.23,-15.44 1653.07,-11.52 1642.93,-8.45 1643.23,-15.44"/>
</g>
<!-- Node18&#45;&gt;Node10 -->
<g id="edge18" class="edge">
<title>Node18&#45;&gt;Node10</title>
<path fill="none" stroke="#63b8ff" d="M210.75,-54.98C226.23,-46.61 250.09,-33.7 268.14,-23.95"/>
<polygon fill="#63b8ff" stroke="#63b8ff" points="269.84,-27.01 276.97,-19.17 266.51,-20.85 269.84,-27.01"/>
</g>
<!-- Node19&#45;&gt;Node18 -->
<g id="edge20" class="edge">
<title>Node19&#45;&gt;Node18</title>
<path fill="none" stroke="#63b8ff" d="M77.49,-109.98C100.52,-101.27 136.54,-87.63 162.63,-77.75"/>
<polygon fill="#63b8ff" stroke="#63b8ff" points="163.98,-80.98 172.1,-74.17 161.51,-74.44 163.98,-80.98"/>
</g>
<!-- Node20 -->
<g id="node20" class="node">
<title>Node20</title>
<g id="a_node20"><a xlink:title=" ">
<polygon fill="#e0e0e0" stroke="#999999" points="84.5,-74 25.5,-74 25.5,-55 84.5,-55 84.5,-74"/>
<text text-anchor="middle" x="55" y="-62" font-family="Helvetica,sans-Serif" font-size="10.00">complex</text>
</a>
</g>
</g>
<!-- Node19&#45;&gt;Node20 -->
<g id="edge21" class="edge">
<title>Node19&#45;&gt;Node20</title>
<path fill="none" stroke="#63b8ff" d="M55,-109.75C55,-102.8 55,-92.85 55,-84.13"/>
<polygon fill="#63b8ff" stroke="#63b8ff" points="58.5,-84.09 55,-74.09 51.5,-84.09 58.5,-84.09"/>
</g>
<!-- Node23 -->
<g id="node23" class="node">
<title>Node23</title>
<g id="a_node23"><a xlink:href="CTF_8hpp.html" target="_top" xlink:title=" ">
<polygon fill="white" stroke="#666666" points="510,-74 436,-74 436,-55 510,-55 510,-74"/>
<text text-anchor="middle" x="473" y="-62" font-family="Helvetica,sans-Serif" font-size="10.00">util/CTF.hpp</text>
</a>
</g>
</g>
<!-- Node22&#45;&gt;Node23 -->
<g id="edge26" class="edge">
<title>Node22&#45;&gt;Node23</title>
<path fill="none" stroke="#63b8ff" d="M433.76,-109.75C440.47,-102.18 450.34,-91.05 458.51,-81.84"/>
<polygon fill="#63b8ff" stroke="#63b8ff" points="461.37,-83.89 465.38,-74.09 456.13,-79.25 461.37,-83.89"/>
</g>
<!-- Node24 -->
<g id="node24" class="node">
<title>Node24</title>
<g id="a_node24"><a xlink:title=" ">
<polygon fill="#e0e0e0" stroke="#999999" points="500,-19 450,-19 450,0 500,0 500,-19"/>
<text text-anchor="middle" x="475" y="-7" font-family="Helvetica,sans-Serif" font-size="10.00">ctf.hpp</text>
</a>
</g>
</g>
<!-- Node23&#45;&gt;Node24 -->
<g id="edge27" class="edge">
<title>Node23&#45;&gt;Node24</title>
<path fill="none" stroke="#63b8ff" d="M473.33,-54.75C473.59,-47.8 473.97,-37.85 474.3,-29.13"/>
<polygon fill="#63b8ff" stroke="#63b8ff" points="477.8,-29.21 474.68,-19.09 470.8,-28.95 477.8,-29.21"/>
</g>
<!-- Node25&#45;&gt;Node12 -->
<g id="edge30" class="edge">
<title>Node25&#45;&gt;Node12</title>
<path fill="none" stroke="#63b8ff" d="M533.24,-109.96C494.53,-101.77 442.43,-88.51 427,-74 414.6,-62.33 408.87,-43.48 406.23,-29.34"/>
<polygon fill="#63b8ff" stroke="#63b8ff" points="409.66,-28.6 404.71,-19.24 402.74,-29.65 409.66,-28.6"/>
</g>
<!-- Node25&#45;&gt;Node14 -->
<g id="edge29" class="edge">
<title>Node25&#45;&gt;Node14</title>
<path fill="none" stroke="#63b8ff" d="M619.33,-109.99C660.44,-101.4 725.25,-87.51 781,-74 781.1,-73.98 781.2,-73.95 781.3,-73.93"/>
<polygon fill="#63b8ff" stroke="#63b8ff" points="782.16,-77.32 791,-71.48 780.45,-70.53 782.16,-77.32"/>
</g>
<!-- Node25&#45;&gt;Node15 -->
<g id="edge31" class="edge">
<title>Node25&#45;&gt;Node15</title>
<path fill="none" stroke="#63b8ff" d="M574.7,-109.75C572.02,-102.65 568.15,-92.4 564.81,-83.56"/>
<polygon fill="#63b8ff" stroke="#63b8ff" points="568.05,-82.21 561.24,-74.09 561.5,-84.68 568.05,-82.21"/>
</g>
<!-- Node26&#45;&gt;Node22 -->
<g id="edge46" class="edge">
<title>Node26&#45;&gt;Node22</title>
<path fill="none" stroke="#63b8ff" d="M426,-219.66C426,-202.17 426,-162.8 426,-139.27"/>
<polygon fill="#63b8ff" stroke="#63b8ff" points="429.5,-139.16 426,-129.16 422.5,-139.16 429.5,-139.16"/>
</g>
<!-- Node27 -->
<g id="node27" class="node">
<title>Node27</title>
<g id="a_node27"><a xlink:href="Scanner_8hpp.html" target="_top" xlink:title=" ">
<polygon fill="white" stroke="#666666" points="317.5,-184 222.5,-184 222.5,-165 317.5,-165 317.5,-184"/>
<text text-anchor="middle" x="270" y="-172" font-family="Helvetica,sans-Serif" font-size="10.00">util/Scanner.hpp</text>
</a>
</g>
</g>
<!-- Node26&#45;&gt;Node27 -->
<g id="edge38" class="edge">
<title>Node26&#45;&gt;Node27</title>
<path fill="none" stroke="#63b8ff" d="M400.94,-219.98C374.97,-211.16 334.19,-197.31 305.04,-187.41"/>
<polygon fill="#63b8ff" stroke="#63b8ff" points="305.85,-183.99 295.26,-184.08 303.6,-190.61 305.85,-183.99"/>
</g>
<!-- Node27&#45;&gt;Node6 -->
<g id="edge41" class="edge">
<title>Node27&#45;&gt;Node6</title>
<path fill="none" stroke="#63b8ff" d="M317.6,-168.72C386.1,-161.64 516.63,-147.35 637.69,-129.11"/>
<polygon fill="#63b8ff" stroke="#63b8ff" points="638.52,-132.53 647.88,-127.57 637.46,-125.61 638.52,-132.53"/>
</g>
<!-- Node27&#45;&gt;Node12 -->
<g id="edge43" class="edge">
<title>Node27&#45;&gt;Node12</title>
<path fill="none" stroke="#63b8ff" d="M275.22,-165C280.7,-156.06 289.53,-141.59 297,-129 316.42,-96.29 314.22,-82.97 340,-55 351.22,-42.83 366.33,-32.13 379.05,-24.28"/>
<polygon fill="#63b8ff" stroke="#63b8ff" points="380.99,-27.19 387.8,-19.08 377.41,-21.18 380.99,-27.19"/>
</g>
<!-- Node27&#45;&gt;Node18 -->
<g id="edge39" class="edge">
<title>Node27&#45;&gt;Node18</title>
<path fill="none" stroke="#63b8ff" d="M222.3,-167.37C198.47,-161.64 171.66,-150.52 157,-129 146.08,-112.96 161.27,-93.75 175.56,-80.68"/>
<polygon fill="#63b8ff" stroke="#63b8ff" points="177.92,-83.28 183.24,-74.12 173.37,-77.96 177.92,-83.28"/>
</g>
<!-- Node27&#45;&gt;Node19 -->
<g id="edge40" class="edge">
<title>Node27&#45;&gt;Node19</title>
<path fill="none" stroke="#63b8ff" d="M235.46,-164.98C198.58,-155.89 140.01,-141.46 99.66,-131.51"/>
<polygon fill="#63b8ff" stroke="#63b8ff" points="100.36,-128.08 89.81,-129.08 98.69,-134.87 100.36,-128.08"/>
</g>
<!-- Node27&#45;&gt;Node25 -->
<g id="edge42" class="edge">
<title>Node27&#45;&gt;Node25</title>
<path fill="none" stroke="#63b8ff" d="M317.79,-165.28C371.82,-155.98 459.87,-140.83 518.37,-130.76"/>
<polygon fill="#63b8ff" stroke="#63b8ff" points="519.31,-134.15 528.57,-129.01 518.12,-127.25 519.31,-134.15"/>
</g>
<!-- Node28 -->
<g id="node28" class="node">
<title>Node28</title>
<g id="a_node28"><a xlink:title=" ">
<polygon fill="#e0e0e0" stroke="#999999" points="288,-129 234,-129 234,-110 288,-110 288,-129"/>
<text text-anchor="middle" x="261" y="-117" font-family="Helvetica,sans-Serif" font-size="10.00">istream</text>
</a>
</g>
</g>
<!-- Node27&#45;&gt;Node28 -->
<g id="edge44" class="edge">
<title>Node27&#45;&gt;Node28</title>
<path fill="none" stroke="#63b8ff" d="M268.51,-164.75C267.33,-157.8 265.64,-147.85 264.16,-139.13"/>
<polygon fill="#63b8ff" stroke="#63b8ff" points="267.58,-138.36 262.46,-129.09 260.68,-139.53 267.58,-138.36"/>
</g>
<!-- Node29 -->
<g id="node29" class="node">
<title>Node29</title>
<g id="a_node29"><a xlink:title=" ">
<polygon fill="#e0e0e0" stroke="#999999" points="216,-129 166,-129 166,-110 216,-110 216,-129"/>
<text text-anchor="middle" x="191" y="-117" font-family="Helvetica,sans-Serif" font-size="10.00">cstring</text>
</a>
</g>
</g>
<!-- Node27&#45;&gt;Node29 -->
<g id="edge45" class="edge">
<title>Node27&#45;&gt;Node29</title>
<path fill="none" stroke="#63b8ff" d="M257.31,-164.98C245.17,-156.84 226.64,-144.41 212.25,-134.76"/>
<polygon fill="#63b8ff" stroke="#63b8ff" points="214.18,-131.84 203.92,-129.17 210.28,-137.65 214.18,-131.84"/>
</g>
<!-- Node30&#45;&gt;Node7 -->
<g id="edge49" class="edge">
<title>Node30&#45;&gt;Node7</title>
<path fill="none" stroke="#63b8ff" d="M1022.93,-219.97C972.69,-193.29 818.33,-111.34 757.26,-78.91"/>
<polygon fill="#63b8ff" stroke="#63b8ff" points="758.76,-75.74 748.28,-74.15 755.48,-81.93 758.76,-75.74"/>
</g>
<!-- Node30&#45;&gt;Node23 -->
<g id="edge50" class="edge">
<title>Node30&#45;&gt;Node23</title>
<path fill="none" stroke="#63b8ff" d="M1015.7,-219.91C991.68,-211.02 953.17,-196.69 920,-184 835.75,-151.76 817.92,-134.12 731,-110 641.97,-85.29 614.89,-90.3 520.15,-74.15"/>
<polygon fill="#63b8ff" stroke="#63b8ff" points="520.6,-70.68 510.15,-72.41 519.4,-77.57 520.6,-70.68"/>
</g>
<!-- Node31 -->
<g id="node31" class="node">
<title>Node31</title>
<g id="a_node31"><a xlink:href="Options_8hpp.html" target="_top" xlink:title=" ">
<polygon fill="white" stroke="#666666" points="1081.5,-184 1006.5,-184 1006.5,-165 1081.5,-165 1081.5,-184"/>
<text text-anchor="middle" x="1044" y="-172" font-family="Helvetica,sans-Serif" font-size="10.00">Options.hpp</text>
</a>
</g>
</g>
<!-- Node30&#45;&gt;Node31 -->
<g id="edge51" class="edge">
<title>Node30&#45;&gt;Node31</title>
<path fill="none" stroke="#63b8ff" d="M1039.83,-219.75C1040.48,-212.8 1041.42,-202.85 1042.24,-194.13"/>
<polygon fill="#63b8ff" stroke="#63b8ff" points="1045.73,-194.37 1043.19,-184.09 1038.77,-193.72 1045.73,-194.37"/>
</g>
<!-- Node31&#45;&gt;Node14 -->
<g id="edge52" class="edge">
<title>Node31&#45;&gt;Node14</title>
<path fill="none" stroke="#63b8ff" d="M1034.13,-164.96C1018.23,-151.59 985.53,-125.62 954,-110 934.74,-100.46 880.34,-84.36 845.02,-74.36"/>
<polygon fill="#63b8ff" stroke="#63b8ff" points="845.74,-70.93 835.16,-71.59 843.84,-77.67 845.74,-70.93"/>
</g>
<!-- Node32 -->
<g id="node32" class="node">
<title>Node32</title>
<g id="a_node32"><a xlink:href="CLI11_8hpp.html" target="_top" xlink:title=" ">
<polygon fill="white" stroke="#666666" points="1511.5,-129 1412.5,-129 1412.5,-110 1511.5,-110 1511.5,-129"/>
<text text-anchor="middle" x="1462" y="-117" font-family="Helvetica,sans-Serif" font-size="10.00">extern/CLI11.hpp</text>
</a>
</g>
</g>
<!-- Node31&#45;&gt;Node32 -->
<g id="edge53" class="edge">
<title>Node31&#45;&gt;Node32</title>
<path fill="none" stroke="#63b8ff" d="M1081.83,-168.7C1154.71,-159.46 1315.07,-139.13 1402.43,-128.05"/>
<polygon fill="#63b8ff" stroke="#63b8ff" points="1402.97,-131.51 1412.45,-126.78 1402.09,-124.57 1402.97,-131.51"/>
</g>
<!-- Node32&#45;&gt;Node3 -->
<g id="edge73" class="edge">
<title>Node32&#45;&gt;Node3</title>
<path fill="none" stroke="#63b8ff" d="M1412.17,-117.34C1316.62,-114.51 1101.01,-105.12 910.6,-73.78"/>
<polygon fill="#63b8ff" stroke="#63b8ff" points="911.13,-70.32 900.69,-72.12 909.98,-77.22 911.13,-70.32"/>
</g>
<!-- Node32&#45;&gt;Node9 -->
<g id="edge67" class="edge">
<title>Node32&#45;&gt;Node9</title>
<path fill="none" stroke="#63b8ff" d="M1492.33,-109.91C1525.51,-99.07 1571.3,-78.92 1550,-55 1526.97,-29.15 1291.62,-16.06 1201.16,-11.96"/>
<polygon fill="#63b8ff" stroke="#63b8ff" points="1201.26,-8.46 1191.11,-11.51 1200.95,-15.45 1201.26,-8.46"/>
</g>
<!-- Node32&#45;&gt;Node11 -->
<g id="edge63" class="edge">
<title>Node32&#45;&gt;Node11</title>
<path fill="none" stroke="#63b8ff" d="M1511.6,-110.82C1554.29,-102.03 1605.7,-84.83 1583,-55 1568.19,-35.55 1503.06,-22.42 1460.31,-15.72"/>
<polygon fill="#63b8ff" stroke="#63b8ff" points="1460.64,-12.23 1450.23,-14.19 1459.59,-19.15 1460.64,-12.23"/>
</g>
<!-- Node32&#45;&gt;Node12 -->
<g id="edge65" class="edge">
<title>Node32&#45;&gt;Node12</title>
<path fill="none" stroke="#63b8ff" d="M1412.46,-118.05C1338.28,-116.21 1194.6,-108.08 1078,-74 1059.49,-68.59 1057.65,-59.9 1039,-55 784.74,11.75 706.52,-55.19 442.47,-18.93"/>
<polygon fill="#63b8ff" stroke="#63b8ff" points="442.58,-15.41 432.19,-17.48 441.6,-22.35 442.58,-15.41"/>
</g>
<!-- Node32&#45;&gt;Node13 -->
<g id="edge56" class="edge">
<title>Node32&#45;&gt;Node13</title>
<path fill="none" stroke="#63b8ff" d="M1511.56,-111.24C1514.75,-110.81 1517.92,-110.39 1521,-110 1592.64,-100.85 1795.84,-127.82 1844,-74 1883.71,-29.62 1769.95,-16.09 1710.56,-12.1"/>
<polygon fill="#63b8ff" stroke="#63b8ff" points="1710.7,-8.6 1700.5,-11.48 1710.27,-15.59 1710.7,-8.6"/>
</g>
<!-- Node32&#45;&gt;Node14 -->
<g id="edge55" class="edge">
<title>Node32&#45;&gt;Node14</title>
<path fill="none" stroke="#63b8ff" d="M1412.34,-118.21C1308.48,-116.89 1060.78,-110.06 845.15,-73.85"/>
<polygon fill="#63b8ff" stroke="#63b8ff" points="845.68,-70.39 835.23,-72.16 844.5,-77.29 845.68,-70.39"/>
</g>
<!-- Node32&#45;&gt;Node15 -->
<g id="edge68" class="edge">
<title>Node32&#45;&gt;Node15</title>
<path fill="none" stroke="#63b8ff" d="M1412.49,-118.77C1281.18,-118.89 913.17,-115.3 598.38,-73.94"/>
<polygon fill="#63b8ff" stroke="#63b8ff" points="598.52,-70.43 588.15,-72.58 597.6,-77.37 598.52,-70.43"/>
</g>
<!-- Node32&#45;&gt;Node17 -->
<g id="edge60" class="edge">
<title>Node32&#45;&gt;Node17</title>
<path fill="none" stroke="#63b8ff" d="M1412.42,-116.08C1326.96,-111.42 1146.25,-99.5 983.97,-73.93"/>
<polygon fill="#63b8ff" stroke="#63b8ff" points="984.23,-70.43 973.8,-72.3 983.13,-77.34 984.23,-70.43"/>
</g>
<!-- Node32&#45;&gt;Node21 -->
<g id="edge59" class="edge">
<title>Node32&#45;&gt;Node21</title>
<path fill="none" stroke="#63b8ff" d="M1412.44,-115.57C1333.84,-110.41 1175.96,-97.89 1044,-74 1042.72,-73.77 1041.42,-73.51 1040.11,-73.24"/>
<polygon fill="#63b8ff" stroke="#63b8ff" points="1040.62,-69.77 1030.09,-70.92 1039.04,-76.59 1040.62,-69.77"/>
</g>
<!-- Node33 -->
<g id="node33" class="node">
<title>Node33</title>
<g id="a_node33"><a xlink:title=" ">
<polygon fill="#e0e0e0" stroke="#999999" points="2297,-74 2239,-74 2239,-55 2297,-55 2297,-74"/>
<text text-anchor="middle" x="2268" y="-62" font-family="Helvetica,sans-Serif" font-size="10.00">memory</text>
</a>
</g>
</g>
<!-- Node32&#45;&gt;Node33 -->
<g id="edge54" class="edge">
<title>Node32&#45;&gt;Node33</title>
<path fill="none" stroke="#63b8ff" d="M1511.53,-111.03C1514.73,-110.65 1517.91,-110.3 1521,-110 1831.66,-79.8 1915.57,-115.8 2228.36,-73.98"/>
<polygon fill="#63b8ff" stroke="#63b8ff" points="2229.19,-77.4 2238.63,-72.59 2228.25,-70.46 2229.19,-77.4"/>
</g>
<!-- Node34 -->
<g id="node34" class="node">
<title>Node34</title>
<g id="a_node34"><a xlink:title=" ">
<polygon fill="#e0e0e0" stroke="#999999" points="1700.5,-74 1635.5,-74 1635.5,-55 1700.5,-55 1700.5,-74"/>
<text text-anchor="middle" x="1668" y="-62" font-family="Helvetica,sans-Serif" font-size="10.00">functional</text>
</a>
</g>
</g>
<!-- Node32&#45;&gt;Node34 -->
<g id="edge57" class="edge">
<title>Node32&#45;&gt;Node34</title>
<path fill="none" stroke="#63b8ff" d="M1495.1,-109.98C1530.49,-100.88 1586.73,-86.41 1625.41,-76.46"/>
<polygon fill="#63b8ff" stroke="#63b8ff" points="1626.51,-79.79 1635.32,-73.91 1624.77,-73.01 1626.51,-79.79"/>
</g>
<!-- Node35 -->
<g id="node35" class="node">
<title>Node35</title>
<g id="a_node35"><a xlink:title=" ">
<polygon fill="#e0e0e0" stroke="#999999" points="1775,-74 1719,-74 1719,-55 1775,-55 1775,-74"/>
<text text-anchor="middle" x="1747" y="-62" font-family="Helvetica,sans-Serif" font-size="10.00">numeric</text>
</a>
</g>
</g>
<!-- Node32&#45;&gt;Node35 -->
<g id="edge58" class="edge">
<title>Node32&#45;&gt;Node35</title>
<path fill="none" stroke="#63b8ff" d="M1511.54,-110.33C1559.54,-102.26 1634.63,-89.2 1708.77,-74.17"/>
<polygon fill="#63b8ff" stroke="#63b8ff" points="1709.65,-77.57 1718.75,-72.14 1708.25,-70.71 1709.65,-77.57"/>
</g>
<!-- Node36 -->
<g id="node36" class="node">
<title>Node36</title>
<g id="a_node36"><a xlink:title=" ">
<polygon fill="#e0e0e0" stroke="#999999" points="1834.5,-74 1793.5,-74 1793.5,-55 1834.5,-55 1834.5,-74"/>
<text text-anchor="middle" x="1814" y="-62" font-family="Helvetica,sans-Serif" font-size="10.00">tuple</text>
</a>
</g>
</g>
<!-- Node32&#45;&gt;Node36 -->
<g id="edge61" class="edge">
<title>Node32&#45;&gt;Node36</title>
<path fill="none" stroke="#63b8ff" d="M1511.57,-111.33C1514.76,-110.88 1517.93,-110.43 1521,-110 1634.64,-94.04 1666.77,-97.91 1783.4,-73.83"/>
<polygon fill="#63b8ff" stroke="#63b8ff" points="1784.36,-77.21 1793.44,-71.74 1782.93,-70.36 1784.36,-77.21"/>
</g>
<!-- Node37 -->
<g id="node37" class="node">
<title>Node37</title>
<g id="a_node37"><a xlink:title=" ">
<polygon fill="#e0e0e0" stroke="#999999" points="1936.5,-74 1891.5,-74 1891.5,-55 1936.5,-55 1936.5,-74"/>
<text text-anchor="middle" x="1914" y="-62" font-family="Helvetica,sans-Serif" font-size="10.00">utility</text>
</a>
</g>
</g>
<!-- Node32&#45;&gt;Node37 -->
<g id="edge62" class="edge">
<title>Node32&#45;&gt;Node37</title>
<path fill="none" stroke="#63b8ff" d="M1511.55,-111.21C1514.75,-110.78 1517.92,-110.38 1521,-110 1678.85,-90.66 1720.09,-99.85 1877,-74 1878.46,-73.76 1879.96,-73.49 1881.46,-73.21"/>
<polygon fill="#63b8ff" stroke="#63b8ff" points="1882.3,-76.61 1891.39,-71.17 1880.89,-69.76 1882.3,-76.61"/>
</g>
<!-- Node38 -->
<g id="node38" class="node">
<title>Node38</title>
<g id="a_node38"><a xlink:title=" ">
<polygon fill="#e0e0e0" stroke="#999999" points="2001,-74 1955,-74 1955,-55 2001,-55 2001,-74"/>
<text text-anchor="middle" x="1978" y="-62" font-family="Helvetica,sans-Serif" font-size="10.00">locale</text>
</a>
</g>
</g>
<!-- Node32&#45;&gt;Node38 -->
<g id="edge64" class="edge">
<title>Node32&#45;&gt;Node38</title>
<path fill="none" stroke="#63b8ff" d="M1511.55,-111.15C1514.74,-110.74 1517.92,-110.35 1521,-110 1706.12,-88.84 1757.49,-105.85 1944.79,-73.91"/>
<polygon fill="#63b8ff" stroke="#63b8ff" points="1945.43,-77.35 1954.69,-72.2 1944.24,-70.45 1945.43,-77.35"/>
</g>
<!-- Node39 -->
<g id="node39" class="node">
<title>Node39</title>
<g id="a_node39"><a xlink:title=" ">
<polygon fill="#e0e0e0" stroke="#999999" points="2083,-74 2019,-74 2019,-55 2083,-55 2083,-74"/>
<text text-anchor="middle" x="2051" y="-62" font-family="Helvetica,sans-Serif" font-size="10.00">algorithm</text>
</a>
</g>
</g>
<!-- Node32&#45;&gt;Node39 -->
<g id="edge66" class="edge">
<title>Node32&#45;&gt;Node39</title>
<path fill="none" stroke="#63b8ff" d="M1511.54,-111.11C1514.74,-110.71 1517.91,-110.34 1521,-110 1734.37,-86.8 1792.43,-103.66 2008.75,-73.98"/>
<polygon fill="#63b8ff" stroke="#63b8ff" points="2009.42,-77.42 2018.84,-72.58 2008.45,-70.49 2009.42,-77.42"/>
</g>
<!-- Node40 -->
<g id="node40" class="node">
<title>Node40</title>
<g id="a_node40"><a xlink:title=" ">
<polygon fill="#e0e0e0" stroke="#999999" points="2133,-74 2101,-74 2101,-55 2133,-55 2133,-74"/>
<text text-anchor="middle" x="2117" y="-62" font-family="Helvetica,sans-Serif" font-size="10.00">set</text>
</a>
</g>
</g>
<!-- Node32&#45;&gt;Node40 -->
<g id="edge69" class="edge">
<title>Node32&#45;&gt;Node40</title>
<path fill="none" stroke="#63b8ff" d="M1511.54,-111.07C1514.74,-110.68 1517.91,-110.32 1521,-110 1770.6,-84.19 1840.71,-122.33 2090.65,-73.71"/>
<polygon fill="#63b8ff" stroke="#63b8ff" points="2091.63,-77.08 2100.76,-71.71 2090.27,-70.21 2091.63,-77.08"/>
</g>
<!-- Node41 -->
<g id="node41" class="node">
<title>Node41</title>
<g id="a_node41"><a xlink:title=" ">
<polygon fill="#e0e0e0" stroke="#999999" points="2220.5,-74 2151.5,-74 2151.5,-55 2220.5,-55 2220.5,-74"/>
<text text-anchor="middle" x="2186" y="-62" font-family="Helvetica,sans-Serif" font-size="10.00">type_traits</text>
</a>
</g>
</g>
<!-- Node32&#45;&gt;Node41 -->
<g id="edge70" class="edge">
<title>Node32&#45;&gt;Node41</title>
<path fill="none" stroke="#63b8ff" d="M1511.54,-111.05C1514.74,-110.67 1517.91,-110.31 1521,-110 1792.71,-82.6 1865.89,-107.67 2141.18,-73.9"/>
<polygon fill="#63b8ff" stroke="#63b8ff" points="2141.99,-77.32 2151.48,-72.62 2141.13,-70.38 2141.99,-77.32"/>
</g>
<!-- Node42 -->
<g id="node42" class="node">
<title>Node42</title>
<g id="a_node42"><a xlink:title=" ">
<polygon fill="#e0e0e0" stroke="#999999" points="1139.5,-74 1086.5,-74 1086.5,-55 1139.5,-55 1139.5,-74"/>
<text text-anchor="middle" x="1113" y="-62" font-family="Helvetica,sans-Serif" font-size="10.00">iterator</text>
</a>
</g>
</g>
<!-- Node32&#45;&gt;Node42 -->
<g id="edge71" class="edge">
<title>Node32&#45;&gt;Node42</title>
<path fill="none" stroke="#63b8ff" d="M1412.44,-112.86C1352.53,-105.73 1248.48,-92.36 1149.54,-73.94"/>
<polygon fill="#63b8ff" stroke="#63b8ff" points="1150.15,-70.49 1139.68,-72.08 1148.86,-77.37 1150.15,-70.49"/>
</g>
<!-- Node43 -->
<g id="node43" class="node">
<title>Node43</title>
<g id="a_node43"><a xlink:title=" ">
<polygon fill="#e0e0e0" stroke="#999999" points="1222.5,-74 1157.5,-74 1157.5,-55 1222.5,-55 1222.5,-74"/>
<text text-anchor="middle" x="1190" y="-62" font-family="Helvetica,sans-Serif" font-size="10.00">stdexcept</text>
</a>
</g>
</g>
<!-- Node32&#45;&gt;Node43 -->
<g id="edge72" class="edge">
<title>Node32&#45;&gt;Node43</title>
<path fill="none" stroke="#63b8ff" d="M1417.46,-110C1373.19,-101.52 1303.09,-88.03 1232.51,-74.09"/>
<polygon fill="#63b8ff" stroke="#63b8ff" points="1233.04,-70.62 1222.55,-72.12 1231.68,-77.49 1233.04,-70.62"/>
</g>
<!-- Node44 -->
<g id="node44" class="node">
<title>Node44</title>
<g id="a_node44"><a xlink:title=" ">
<polygon fill="#e0e0e0" stroke="#999999" points="1285,-74 1241,-74 1241,-55 1285,-55 1285,-74"/>
<text text-anchor="middle" x="1263" y="-62" font-family="Helvetica,sans-Serif" font-size="10.00">limits</text>
</a>
</g>
</g>
<!-- Node32&#45;&gt;Node44 -->
<g id="edge74" class="edge">
<title>Node32&#45;&gt;Node44</title>
<path fill="none" stroke="#63b8ff" d="M1430.03,-109.98C1392.87,-100.09 1331.92,-83.86 1294.83,-73.98"/>
<polygon fill="#63b8ff" stroke="#63b8ff" points="1295.6,-70.56 1285.04,-71.37 1293.8,-77.32 1295.6,-70.56"/>
</g>
<!-- Node45 -->
<g id="node45" class="node">
<title>Node45</title>
<g id="a_node45"><a xlink:title=" ">
<polygon fill="#e0e0e0" stroke="#999999" points="1368.5,-74 1303.5,-74 1303.5,-55 1368.5,-55 1368.5,-74"/>
<text text-anchor="middle" x="1336" y="-62" font-family="Helvetica,sans-Serif" font-size="10.00">exception</text>
</a>
</g>
</g>
<!-- Node32&#45;&gt;Node45 -->
<g id="edge75" class="edge">
<title>Node32&#45;&gt;Node45</title>
<path fill="none" stroke="#63b8ff" d="M1441.76,-109.98C1421.3,-101.38 1389.47,-87.99 1366.07,-78.15"/>
<polygon fill="#63b8ff" stroke="#63b8ff" points="1367.19,-74.82 1356.61,-74.17 1364.47,-81.27 1367.19,-74.82"/>
</g>
<!-- Node46 -->
<g id="node46" class="node">
<title>Node46</title>
<g id="a_node46"><a xlink:title=" ">
<polygon fill="#e0e0e0" stroke="#999999" points="1451,-74 1387,-74 1387,-55 1451,-55 1451,-74"/>
<text text-anchor="middle" x="1419" y="-62" font-family="Helvetica,sans-Serif" font-size="10.00">sys/stat.h</text>
</a>
</g>
</g>
<!-- Node32&#45;&gt;Node46 -->
<g id="edge76" class="edge">
<title>Node32&#45;&gt;Node46</title>
<path fill="none" stroke="#63b8ff" d="M1454.9,-109.75C1448.83,-102.26 1439.91,-91.28 1432.49,-82.13"/>
<polygon fill="#63b8ff" stroke="#63b8ff" points="1434.99,-79.65 1425.97,-74.09 1429.55,-84.06 1434.99,-79.65"/>
</g>
<!-- Node47 -->
<g id="node47" class="node">
<title>Node47</title>
<g id="a_node47"><a xlink:title=" ">
<polygon fill="#e0e0e0" stroke="#999999" points="1541,-74 1469,-74 1469,-55 1541,-55 1541,-74"/>
<text text-anchor="middle" x="1505" y="-62" font-family="Helvetica,sans-Serif" font-size="10.00">sys/types.h</text>
</a>
</g>
</g>
<!-- Node32&#45;&gt;Node47 -->
<g id="edge77" class="edge">
<title>Node32&#45;&gt;Node47</title>
<path fill="none" stroke="#63b8ff" d="M1469.1,-109.75C1475.17,-102.26 1484.09,-91.28 1491.51,-82.13"/>
<polygon fill="#63b8ff" stroke="#63b8ff" points="1494.45,-84.06 1498.03,-74.09 1489.01,-79.65 1494.45,-84.06"/>
</g>
<!-- Node48&#45;&gt;Node14 -->
<g id="edge83" class="edge">
<title>Node48&#45;&gt;Node14</title>
<path fill="none" stroke="#63b8ff" d="M1313.84,-165.83C1224.92,-150.79 1023.59,-115.44 845.13,-74.12"/>
<polygon fill="#63b8ff" stroke="#63b8ff" points="845.83,-70.69 835.3,-71.84 844.25,-77.51 845.83,-70.69"/>
</g>
<!-- Node49 -->
<g id="node49" class="node">
<title>Node49</title>
<g id="a_node49"><a xlink:href="SharedPointer_8hpp.html" target="_top" xlink:title=" ">
<polygon fill="white" stroke="#666666" points="1654,-129 1530,-129 1530,-110 1654,-110 1654,-129"/>
<text text-anchor="middle" x="1592" y="-117" font-family="Helvetica,sans-Serif" font-size="10.00">util/SharedPointer.hpp</text>
</a>
</g>
</g>
<!-- Node48&#45;&gt;Node49 -->
<g id="edge81" class="edge">
<title>Node48&#45;&gt;Node49</title>
<path fill="none" stroke="#63b8ff" d="M1397.27,-164.98C1437.32,-155.84 1501.07,-141.27 1544.64,-131.32"/>
<polygon fill="#63b8ff" stroke="#63b8ff" points="1545.46,-134.72 1554.43,-129.08 1543.9,-127.9 1545.46,-134.72"/>
</g>
<!-- Node50 -->
<g id="node50" class="node">
<title>Node50</title>
<g id="a_node50"><a xlink:title=" ">
<polygon fill="#e0e0e0" stroke="#999999" points="1771.5,-129 1672.5,-129 1672.5,-110 1771.5,-110 1771.5,-129"/>
<text text-anchor="middle" x="1722" y="-117" font-family="Helvetica,sans-Serif" font-size="10.00">yaml&#45;cpp/yaml.h</text>
</a>
</g>
</g>
<!-- Node48&#45;&gt;Node50 -->
<g id="edge84" class="edge">
<title>Node48&#45;&gt;Node50</title>
<path fill="none" stroke="#63b8ff" d="M1406.22,-166.73C1471.34,-157.2 1590.19,-139.8 1662.05,-129.28"/>
<polygon fill="#63b8ff" stroke="#63b8ff" points="1662.91,-132.69 1672.29,-127.78 1661.89,-125.76 1662.91,-132.69"/>
</g>
<!-- Node49&#45;&gt;Node33 -->
<g id="edge82" class="edge">
<title>Node49&#45;&gt;Node33</title>
<path fill="none" stroke="#63b8ff" d="M1654.03,-110.96C1657.4,-110.62 1660.74,-110.3 1664,-110 1911.72,-87.52 1978.71,-109.04 2228.51,-73.98"/>
<polygon fill="#63b8ff" stroke="#63b8ff" points="2229.22,-77.42 2238.63,-72.55 2228.23,-70.49 2229.22,-77.42"/>
</g>
</g>
</svg>
