<?xml version="1.0" encoding="UTF-8" standalone="no"?>
<!DOCTYPE svg PUBLIC "-//W3C//DTD SVG 1.1//EN"
 "http://www.w3.org/Graphics/SVG/1.1/DTD/svg11.dtd">
<!-- Generated by graphviz version 5.0.1 (0)
 -->
<!-- Title: CoulombVertexFromFactors.cxx Pages: 1 -->
<svg width="2133pt" height="375pt"
 viewBox="0.00 0.00 2132.50 375.00" xmlns="http://www.w3.org/2000/svg" xmlns:xlink="http://www.w3.org/1999/xlink">
<g id="graph0" class="graph" transform="scale(1 1) rotate(0) translate(4 371)">
<title>CoulombVertexFromFactors.cxx</title>
<!-- Node1 -->
<g id="node1" class="node">
<title>Node1</title>
<g id="a_node1"><a xlink:title=" ">
<polygon fill="#bfbfbf" stroke="black" points="752,-347.5 752,-366.5 923,-366.5 923,-347.5 752,-347.5"/>
<text text-anchor="middle" x="837.5" y="-354.5" font-family="Helvetica,sans-Serif" font-size="10.00">CoulombVertexFromFactors.cxx</text>
</a>
</g>
</g>
<!-- Node2 -->
<g id="node2" class="node">
<title>Node2</title>
<g id="a_node2"><a xlink:href="CoulombVertexFromFactors_8hpp.html" target="_top" xlink:title=" ">
<polygon fill="none" stroke="black" points="764,-280.5 764,-310.5 911,-310.5 911,-280.5 764,-280.5"/>
<text text-anchor="start" x="772" y="-298.5" font-family="Helvetica,sans-Serif" font-size="10.00">algorithms/CoulombVertex</text>
<text text-anchor="middle" x="837.5" y="-287.5" font-family="Helvetica,sans-Serif" font-size="10.00">FromFactors.hpp</text>
</a>
</g>
</g>
<!-- Node1&#45;&gt;Node2 -->
<g id="edge1" class="edge">
<title>Node1&#45;&gt;Node2</title>
<path fill="none" stroke="midnightblue" d="M837.5,-347.48C837.5,-340.47 837.5,-330.19 837.5,-320.7"/>
<polygon fill="midnightblue" stroke="midnightblue" points="841,-320.52 837.5,-310.52 834,-320.52 841,-320.52"/>
</g>
<!-- Node5 -->
<g id="node5" class="node">
<title>Node5</title>
<g id="a_node5"><a xlink:href="Log_8hpp.html" target="_top" xlink:title=" ">
<polygon fill="none" stroke="black" points="498.5,-112.5 498.5,-131.5 572.5,-131.5 572.5,-112.5 498.5,-112.5"/>
<text text-anchor="middle" x="535.5" y="-119.5" font-family="Helvetica,sans-Serif" font-size="10.00">util/Log.hpp</text>
</a>
</g>
</g>
<!-- Node1&#45;&gt;Node5 -->
<g id="edge75" class="edge">
<title>Node1&#45;&gt;Node5</title>
<path fill="none" stroke="midnightblue" d="M784.09,-347.47C692.79,-331.65 513.07,-294.71 477.5,-244 453.12,-209.24 492.86,-162.64 517.77,-138.68"/>
<polygon fill="midnightblue" stroke="midnightblue" points="520.3,-141.11 525.24,-131.74 515.53,-135.98 520.3,-141.11"/>
</g>
<!-- Node13 -->
<g id="node13" class="node">
<title>Node13</title>
<g id="a_node13"><a xlink:title=" ">
<polygon fill="none" stroke="#bfbfbf" points="492.5,-56.5 492.5,-75.5 536.5,-75.5 536.5,-56.5 492.5,-56.5"/>
<text text-anchor="middle" x="514.5" y="-63.5" font-family="Helvetica,sans-Serif" font-size="10.00">string</text>
</a>
</g>
</g>
<!-- Node1&#45;&gt;Node13 -->
<g id="edge79" class="edge">
<title>Node1&#45;&gt;Node13</title>
<path fill="none" stroke="midnightblue" d="M804.92,-347.47C757.87,-332.95 676.5,-298.64 676.5,-235 676.5,-235 676.5,-235 676.5,-177 676.5,-136.77 646.39,-135.17 613.5,-112 592.68,-97.33 566.3,-85.62 546.01,-77.83"/>
<polygon fill="midnightblue" stroke="midnightblue" points="547.19,-74.53 536.59,-74.32 544.75,-81.09 547.19,-74.53"/>
</g>
<!-- Node18 -->
<g id="node18" class="node">
<title>Node18</title>
<g id="a_node18"><a xlink:href="Complex_8hpp.html" target="_top" xlink:title=" ">
<polygon fill="none" stroke="black" points="58.5,-112.5 58.5,-131.5 168.5,-131.5 168.5,-112.5 58.5,-112.5"/>
<text text-anchor="middle" x="113.5" y="-119.5" font-family="Helvetica,sans-Serif" font-size="10.00">math/Complex.hpp</text>
</a>
</g>
</g>
<!-- Node1&#45;&gt;Node18 -->
<g id="edge37" class="edge">
<title>Node1&#45;&gt;Node18</title>
<path fill="none" stroke="midnightblue" d="M751.75,-354.19C592.76,-350.19 264.32,-338.66 220.5,-311 157.64,-271.32 128.02,-180.62 117.82,-141.51"/>
<polygon fill="midnightblue" stroke="midnightblue" points="121.2,-140.6 115.4,-131.73 114.4,-142.28 121.2,-140.6"/>
</g>
<!-- Node21 -->
<g id="node21" class="node">
<title>Node21</title>
<g id="a_node21"><a xlink:title=" ">
<polygon fill="none" stroke="#bfbfbf" points="225,-56.5 225,-75.5 272,-75.5 272,-56.5 225,-56.5"/>
<text text-anchor="middle" x="248.5" y="-63.5" font-family="Helvetica,sans-Serif" font-size="10.00">vector</text>
</a>
</g>
</g>
<!-- Node1&#45;&gt;Node21 -->
<g id="edge78" class="edge">
<title>Node1&#45;&gt;Node21</title>
<path fill="none" stroke="midnightblue" d="M751.75,-356.4C585.27,-354.86 234.5,-339.24 234.5,-235 234.5,-235 234.5,-235 234.5,-177 234.5,-144.54 240.57,-107.12 244.72,-85.36"/>
<polygon fill="midnightblue" stroke="midnightblue" points="248.16,-86 246.67,-75.51 241.29,-84.64 248.16,-86"/>
</g>
<!-- Node22 -->
<g id="node22" class="node">
<title>Node22</title>
<g id="a_node22"><a xlink:href="Tensor_8hpp.html" target="_top" xlink:title=" ">
<polygon fill="none" stroke="black" points="1159,-112.5 1159,-131.5 1246,-131.5 1246,-112.5 1159,-112.5"/>
<text text-anchor="middle" x="1202.5" y="-119.5" font-family="Helvetica,sans-Serif" font-size="10.00">util/Tensor.hpp</text>
</a>
</g>
</g>
<!-- Node1&#45;&gt;Node22 -->
<g id="edge77" class="edge">
<title>Node1&#45;&gt;Node22</title>
<path fill="none" stroke="midnightblue" d="M923.13,-354.35C1057.29,-350.87 1304.57,-340.49 1331.5,-311 1385.14,-252.25 1275.04,-169.86 1225.24,-137.17"/>
<polygon fill="midnightblue" stroke="midnightblue" points="1227,-134.14 1216.7,-131.66 1223.2,-140.02 1227,-134.14"/>
</g>
<!-- Node27 -->
<g id="node27" class="node">
<title>Node27</title>
<g id="a_node27"><a xlink:title=" ">
<polygon fill="none" stroke="#bfbfbf" points="2066.5,-56.5 2066.5,-75.5 2124.5,-75.5 2124.5,-56.5 2066.5,-56.5"/>
<text text-anchor="middle" x="2095.5" y="-63.5" font-family="Helvetica,sans-Serif" font-size="10.00">memory</text>
</a>
</g>
</g>
<!-- Node1&#45;&gt;Node27 -->
<g id="edge80" class="edge">
<title>Node1&#45;&gt;Node27</title>
<path fill="none" stroke="midnightblue" d="M923.09,-353.68C1151.91,-346.36 1760.5,-318.99 1760.5,-235 1760.5,-235 1760.5,-235 1760.5,-177 1760.5,-161.56 1968.51,-102.15 2056.71,-77.65"/>
<polygon fill="midnightblue" stroke="midnightblue" points="2057.65,-81.03 2066.36,-74.98 2055.79,-74.28 2057.65,-81.03"/>
</g>
<!-- Node28 -->
<g id="node28" class="node">
<title>Node28</title>
<g id="a_node28"><a xlink:title=" ">
<polygon fill="none" stroke="#bfbfbf" points="1090.5,-286 1090.5,-305 1160.5,-305 1160.5,-286 1090.5,-286"/>
<text text-anchor="middle" x="1125.5" y="-293" font-family="Helvetica,sans-Serif" font-size="10.00">tcc/Tcc.hpp</text>
</a>
</g>
</g>
<!-- Node1&#45;&gt;Node28 -->
<g id="edge38" class="edge">
<title>Node1&#45;&gt;Node28</title>
<path fill="none" stroke="midnightblue" d="M896.16,-347.48C945.89,-339.71 1018.9,-327.01 1081.5,-311 1084.88,-310.14 1088.37,-309.15 1091.84,-308.11"/>
<polygon fill="midnightblue" stroke="midnightblue" points="1092.98,-311.42 1101.47,-305.07 1090.88,-304.74 1092.98,-311.42"/>
</g>
<!-- Node29 -->
<g id="node29" class="node">
<title>Node29</title>
<g id="a_node29"><a xlink:title=" ">
<polygon fill="none" stroke="#bfbfbf" points="1178.5,-286 1178.5,-305 1322.5,-305 1322.5,-286 1178.5,-286"/>
<text text-anchor="middle" x="1250.5" y="-293" font-family="Helvetica,sans-Serif" font-size="10.00">tcc/DryMachineTensor.hpp</text>
</a>
</g>
</g>
<!-- Node1&#45;&gt;Node29 -->
<g id="edge39" class="edge">
<title>Node1&#45;&gt;Node29</title>
<path fill="none" stroke="midnightblue" d="M906.62,-347.5C973.86,-339.02 1078.86,-325.25 1169.5,-311 1177.63,-309.72 1186.2,-308.29 1194.6,-306.83"/>
<polygon fill="midnightblue" stroke="midnightblue" points="1195.48,-310.23 1204.72,-305.04 1194.27,-303.33 1195.48,-310.23"/>
</g>
<!-- Node30 -->
<g id="node30" class="node">
<title>Node30</title>
<g id="a_node30"><a xlink:href="CtfMachineTensor_8hpp.html" target="_top" xlink:title=" ">
<polygon fill="none" stroke="black" points="929,-286 929,-305 1072,-305 1072,-286 929,-286"/>
<text text-anchor="middle" x="1000.5" y="-293" font-family="Helvetica,sans-Serif" font-size="10.00">util/CtfMachineTensor.hpp</text>
</a>
</g>
</g>
<!-- Node1&#45;&gt;Node30 -->
<g id="edge40" class="edge">
<title>Node1&#45;&gt;Node30</title>
<path fill="none" stroke="midnightblue" d="M860.85,-347.48C888.81,-337.27 935.83,-320.11 967.49,-308.55"/>
<polygon fill="midnightblue" stroke="midnightblue" points="969,-311.73 977.19,-305.01 966.6,-305.15 969,-311.73"/>
</g>
<!-- Node31 -->
<g id="node31" class="node">
<title>Node31</title>
<g id="a_node31"><a xlink:href="Sisi4s_8hpp.html" target="_top" xlink:title=" ">
<polygon fill="none" stroke="black" points="920.5,-224.5 920.5,-243.5 986.5,-243.5 986.5,-224.5 920.5,-224.5"/>
<text text-anchor="middle" x="953.5" y="-231.5" font-family="Helvetica,sans-Serif" font-size="10.00">Sisi4s.hpp</text>
</a>
</g>
</g>
<!-- Node1&#45;&gt;Node31 -->
<g id="edge76" class="edge">
<title>Node1&#45;&gt;Node31</title>
<path fill="none" stroke="midnightblue" d="M805.69,-347.38C787.55,-340.66 766.34,-329.31 755.5,-311 748.48,-299.14 746.9,-290.77 755.5,-280 774.47,-256.24 857.77,-244.07 910.1,-238.66"/>
<polygon fill="midnightblue" stroke="midnightblue" points="910.52,-242.13 920.12,-237.66 909.83,-235.17 910.52,-242.13"/>
</g>
<!-- Node3 -->
<g id="node3" class="node">
<title>Node3</title>
<g id="a_node3"><a xlink:href="Algorithm_8hpp.html" target="_top" xlink:title=" ">
<polygon fill="none" stroke="black" points="486,-224.5 486,-243.5 627,-243.5 627,-224.5 486,-224.5"/>
<text text-anchor="middle" x="556.5" y="-231.5" font-family="Helvetica,sans-Serif" font-size="10.00">algorithms/Algorithm.hpp</text>
</a>
</g>
</g>
<!-- Node2&#45;&gt;Node3 -->
<g id="edge2" class="edge">
<title>Node2&#45;&gt;Node3</title>
<path fill="none" stroke="midnightblue" d="M771.26,-280.47C720.88,-269.81 652.62,-255.35 606.69,-245.63"/>
<polygon fill="midnightblue" stroke="midnightblue" points="607.18,-242.15 596.67,-243.51 605.73,-249 607.18,-242.15"/>
</g>
<!-- Node26 -->
<g id="node26" class="node">
<title>Node26</title>
<g id="a_node26"><a xlink:title=" ">
<polygon fill="none" stroke="#bfbfbf" points="1047,-224.5 1047,-243.5 1174,-243.5 1174,-224.5 1047,-224.5"/>
<text text-anchor="middle" x="1110.5" y="-231.5" font-family="Helvetica,sans-Serif" font-size="10.00">tcc/MachineTensor.hpp</text>
</a>
</g>
</g>
<!-- Node2&#45;&gt;Node26 -->
<g id="edge35" class="edge">
<title>Node2&#45;&gt;Node26</title>
<path fill="none" stroke="midnightblue" d="M901.85,-280.47C950.7,-269.83 1016.84,-255.41 1061.46,-245.69"/>
<polygon fill="midnightblue" stroke="midnightblue" points="1062.45,-249.06 1071.47,-243.51 1060.95,-242.22 1062.45,-249.06"/>
</g>
<!-- Node2&#45;&gt;Node27 -->
<g id="edge36" class="edge">
<title>Node2&#45;&gt;Node27</title>
<path fill="none" stroke="midnightblue" d="M886.81,-280.48C918.26,-271.12 959.69,-257.99 995.5,-244 1015.13,-236.33 1018.41,-230.38 1038.5,-224 1304.56,-139.56 1379.88,-149.41 1656.5,-112 1830.62,-88.45 1879.13,-104.1 2056.22,-75.99"/>
<polygon fill="midnightblue" stroke="midnightblue" points="2056.81,-79.44 2066.13,-74.4 2055.7,-72.53 2056.81,-79.44"/>
</g>
<!-- Node4 -->
<g id="node4" class="node">
<title>Node4</title>
<g id="a_node4"><a xlink:href="Data_8hpp.html" target="_top" xlink:title=" ">
<polygon fill="none" stroke="black" points="505,-168.5 505,-187.5 566,-187.5 566,-168.5 505,-168.5"/>
<text text-anchor="middle" x="535.5" y="-175.5" font-family="Helvetica,sans-Serif" font-size="10.00">Data.hpp</text>
</a>
</g>
</g>
<!-- Node3&#45;&gt;Node4 -->
<g id="edge3" class="edge">
<title>Node3&#45;&gt;Node4</title>
<path fill="none" stroke="midnightblue" d="M553.03,-224.08C550.19,-216.77 546.07,-206.18 542.54,-197.1"/>
<polygon fill="midnightblue" stroke="midnightblue" points="545.79,-195.8 538.9,-187.75 539.27,-198.34 545.79,-195.8"/>
</g>
<!-- Node11 -->
<g id="node11" class="node">
<title>Node11</title>
<g id="a_node11"><a xlink:title=" ">
<polygon fill="none" stroke="#bfbfbf" points="469.5,-0.5 469.5,-19.5 525.5,-19.5 525.5,-0.5 469.5,-0.5"/>
<text text-anchor="middle" x="497.5" y="-7.5" font-family="Helvetica,sans-Serif" font-size="10.00">sstream</text>
</a>
</g>
</g>
<!-- Node3&#45;&gt;Node11 -->
<g id="edge33" class="edge">
<title>Node3&#45;&gt;Node11</title>
<path fill="none" stroke="midnightblue" d="M485.78,-225.47C401.63,-212.11 266.15,-175.46 215.5,-76 211.47,-68.08 209.73,-62.76 215.5,-56 223.37,-46.77 384.16,-25.34 459.35,-15.76"/>
<polygon fill="midnightblue" stroke="midnightblue" points="459.88,-19.22 469.36,-14.5 459,-12.28 459.88,-19.22"/>
</g>
<!-- Node3&#45;&gt;Node13 -->
<g id="edge31" class="edge">
<title>Node3&#45;&gt;Node13</title>
<path fill="none" stroke="midnightblue" d="M564.13,-224.25C581.2,-203.56 619.26,-150.46 596.5,-112 590.58,-102 565.66,-89.12 544.83,-79.71"/>
<polygon fill="midnightblue" stroke="midnightblue" points="546.19,-76.48 535.63,-75.65 543.37,-82.89 546.19,-76.48"/>
</g>
<!-- Node3&#45;&gt;Node21 -->
<g id="edge32" class="edge">
<title>Node3&#45;&gt;Node21</title>
<path fill="none" stroke="midnightblue" d="M530.2,-224.44C485.83,-209.38 394.14,-175.57 324.5,-132 301.65,-117.7 278.56,-96.84 263.93,-82.64"/>
<polygon fill="midnightblue" stroke="midnightblue" points="266.3,-80.05 256.73,-75.51 261.38,-85.03 266.3,-80.05"/>
</g>
<!-- Node3&#45;&gt;Node22 -->
<g id="edge34" class="edge">
<title>Node3&#45;&gt;Node22</title>
<path fill="none" stroke="midnightblue" d="M627.18,-230.42C715.37,-226.15 870.44,-215.2 1000.5,-188 1062.53,-175.03 1132.41,-150.14 1171.58,-135.21"/>
<polygon fill="midnightblue" stroke="midnightblue" points="1173.01,-138.41 1181.08,-131.55 1170.49,-131.87 1173.01,-138.41"/>
</g>
<!-- Node4&#45;&gt;Node5 -->
<g id="edge4" class="edge">
<title>Node4&#45;&gt;Node5</title>
<path fill="none" stroke="midnightblue" d="M535.5,-168.08C535.5,-161.01 535.5,-150.86 535.5,-141.99"/>
<polygon fill="midnightblue" stroke="midnightblue" points="539,-141.75 535.5,-131.75 532,-141.75 539,-141.75"/>
</g>
<!-- Node4&#45;&gt;Node13 -->
<g id="edge21" class="edge">
<title>Node4&#45;&gt;Node13</title>
<path fill="none" stroke="midnightblue" d="M549.23,-168.42C566.61,-156.4 593.01,-133.59 581.5,-112 573.84,-97.63 559.33,-87.04 545.77,-79.75"/>
<polygon fill="midnightblue" stroke="midnightblue" points="547.14,-76.52 536.63,-75.23 544.04,-82.8 547.14,-76.52"/>
</g>
<!-- Node17 -->
<g id="node17" class="node">
<title>Node17</title>
<g id="a_node17"><a xlink:href="Float_8hpp.html" target="_top" xlink:title=" ">
<polygon fill="none" stroke="black" points="77,-56.5 77,-75.5 168,-75.5 168,-56.5 77,-56.5"/>
<text text-anchor="middle" x="122.5" y="-63.5" font-family="Helvetica,sans-Serif" font-size="10.00">math/Float.hpp</text>
</a>
</g>
</g>
<!-- Node4&#45;&gt;Node17 -->
<g id="edge16" class="edge">
<title>Node4&#45;&gt;Node17</title>
<path fill="none" stroke="midnightblue" d="M504.93,-171.6C463.34,-164.01 386.76,-149.18 322.5,-132 262.96,-116.08 194.98,-92.9 155.58,-78.95"/>
<polygon fill="midnightblue" stroke="midnightblue" points="156.56,-75.58 145.96,-75.52 154.21,-82.17 156.56,-75.58"/>
</g>
<!-- Node4&#45;&gt;Node18 -->
<g id="edge18" class="edge">
<title>Node4&#45;&gt;Node18</title>
<path fill="none" stroke="midnightblue" d="M504.81,-173.07C436.62,-164.35 271.25,-143.19 178.8,-131.36"/>
<polygon fill="midnightblue" stroke="midnightblue" points="179.08,-127.86 168.72,-130.07 178.2,-134.81 179.08,-127.86"/>
</g>
<!-- Node20 -->
<g id="node20" class="node">
<title>Node20</title>
<g id="a_node20"><a xlink:title=" ">
<polygon fill="none" stroke="#bfbfbf" points="628.5,-56.5 628.5,-75.5 666.5,-75.5 666.5,-56.5 628.5,-56.5"/>
<text text-anchor="middle" x="647.5" y="-63.5" font-family="Helvetica,sans-Serif" font-size="10.00">map</text>
</a>
</g>
</g>
<!-- Node4&#45;&gt;Node20 -->
<g id="edge22" class="edge">
<title>Node4&#45;&gt;Node20</title>
<path fill="none" stroke="midnightblue" d="M549.41,-168.31C562.34,-159.88 581.77,-146.3 596.5,-132 611.72,-117.23 626.37,-97.83 636.04,-84.08"/>
<polygon fill="midnightblue" stroke="midnightblue" points="639.09,-85.82 641.87,-75.6 633.32,-81.85 639.09,-85.82"/>
</g>
<!-- Node4&#45;&gt;Node21 -->
<g id="edge23" class="edge">
<title>Node4&#45;&gt;Node21</title>
<path fill="none" stroke="midnightblue" d="M504.75,-171.07C470.52,-163.94 413.89,-150.57 367.5,-132 332.16,-117.85 293.98,-95.64 270.65,-81.2"/>
<polygon fill="midnightblue" stroke="midnightblue" points="272.23,-78.06 261.9,-75.71 268.52,-83.99 272.23,-78.06"/>
</g>
<!-- Node4&#45;&gt;Node22 -->
<g id="edge24" class="edge">
<title>Node4&#45;&gt;Node22</title>
<path fill="none" stroke="midnightblue" d="M566.32,-175.82C655.15,-172.18 919.46,-159.78 1148.66,-132.12"/>
<polygon fill="midnightblue" stroke="midnightblue" points="1149.35,-135.56 1158.85,-130.87 1148.5,-128.61 1149.35,-135.56"/>
</g>
<!-- Node25 -->
<g id="node25" class="node">
<title>Node25</title>
<g id="a_node25"><a xlink:href="Exception_8hpp.html" target="_top" xlink:title=" ">
<polygon fill="none" stroke="black" points="376.5,-112.5 376.5,-131.5 480.5,-131.5 480.5,-112.5 376.5,-112.5"/>
<text text-anchor="middle" x="428.5" y="-119.5" font-family="Helvetica,sans-Serif" font-size="10.00">util/Exception.hpp</text>
</a>
</g>
</g>
<!-- Node4&#45;&gt;Node25 -->
<g id="edge27" class="edge">
<title>Node4&#45;&gt;Node25</title>
<path fill="none" stroke="midnightblue" d="M518.31,-168.32C501.15,-159.66 474.55,-146.24 454.75,-136.25"/>
<polygon fill="midnightblue" stroke="midnightblue" points="456.15,-133.04 445.65,-131.65 453,-139.28 456.15,-133.04"/>
</g>
<!-- Node6 -->
<g id="node6" class="node">
<title>Node6</title>
<g id="a_node6"><a xlink:href="Time_8hpp.html" target="_top" xlink:title=" ">
<polygon fill="none" stroke="black" points="723,-56.5 723,-75.5 804,-75.5 804,-56.5 723,-56.5"/>
<text text-anchor="middle" x="763.5" y="-63.5" font-family="Helvetica,sans-Serif" font-size="10.00">util/Time.hpp</text>
</a>
</g>
</g>
<!-- Node5&#45;&gt;Node6 -->
<g id="edge5" class="edge">
<title>Node5&#45;&gt;Node6</title>
<path fill="none" stroke="midnightblue" d="M571.63,-112.44C611.15,-103.08 674.6,-88.06 717.61,-77.87"/>
<polygon fill="midnightblue" stroke="midnightblue" points="718.62,-81.23 727.54,-75.52 717,-74.42 718.62,-81.23"/>
</g>
<!-- Node5&#45;&gt;Node13 -->
<g id="edge12" class="edge">
<title>Node5&#45;&gt;Node13</title>
<path fill="none" stroke="midnightblue" d="M532.03,-112.08C529.19,-104.77 525.07,-94.18 521.54,-85.1"/>
<polygon fill="midnightblue" stroke="midnightblue" points="524.79,-83.8 517.9,-75.75 518.27,-86.34 524.79,-83.8"/>
</g>
<!-- Node14 -->
<g id="node14" class="node">
<title>Node14</title>
<g id="a_node14"><a xlink:title=" ">
<polygon fill="none" stroke="#bfbfbf" points="328.5,-56.5 328.5,-75.5 388.5,-75.5 388.5,-56.5 328.5,-56.5"/>
<text text-anchor="middle" x="358.5" y="-63.5" font-family="Helvetica,sans-Serif" font-size="10.00">iostream</text>
</a>
</g>
</g>
<!-- Node5&#45;&gt;Node14 -->
<g id="edge13" class="edge">
<title>Node5&#45;&gt;Node14</title>
<path fill="none" stroke="midnightblue" d="M507.45,-112.44C477.42,-103.28 429.59,-88.69 396.26,-78.52"/>
<polygon fill="midnightblue" stroke="midnightblue" points="397,-75.09 386.41,-75.52 394.96,-81.78 397,-75.09"/>
</g>
<!-- Node15 -->
<g id="node15" class="node">
<title>Node15</title>
<g id="a_node15"><a xlink:title=" ">
<polygon fill="none" stroke="#bfbfbf" points="407,-56.5 407,-75.5 474,-75.5 474,-56.5 407,-56.5"/>
<text text-anchor="middle" x="440.5" y="-63.5" font-family="Helvetica,sans-Serif" font-size="10.00">streambuf</text>
</a>
</g>
</g>
<!-- Node5&#45;&gt;Node15 -->
<g id="edge14" class="edge">
<title>Node5&#45;&gt;Node15</title>
<path fill="none" stroke="midnightblue" d="M520.24,-112.32C505.28,-103.82 482.25,-90.73 464.77,-80.8"/>
<polygon fill="midnightblue" stroke="midnightblue" points="466.15,-77.55 455.73,-75.65 462.69,-83.64 466.15,-77.55"/>
</g>
<!-- Node16 -->
<g id="node16" class="node">
<title>Node16</title>
<g id="a_node16"><a xlink:title=" ">
<polygon fill="none" stroke="#bfbfbf" points="555,-56.5 555,-75.5 610,-75.5 610,-56.5 555,-56.5"/>
<text text-anchor="middle" x="582.5" y="-63.5" font-family="Helvetica,sans-Serif" font-size="10.00">fstream</text>
</a>
</g>
</g>
<!-- Node5&#45;&gt;Node16 -->
<g id="edge15" class="edge">
<title>Node5&#45;&gt;Node16</title>
<path fill="none" stroke="midnightblue" d="M543.26,-112.08C550.04,-104.3 560.04,-92.8 568.26,-83.37"/>
<polygon fill="midnightblue" stroke="midnightblue" points="570.96,-85.59 574.88,-75.75 565.68,-81 570.96,-85.59"/>
</g>
<!-- Node7 -->
<g id="node7" class="node">
<title>Node7</title>
<g id="a_node7"><a xlink:title=" ">
<polygon fill="none" stroke="#bfbfbf" points="741.5,-0.5 741.5,-19.5 785.5,-19.5 785.5,-0.5 741.5,-0.5"/>
<text text-anchor="middle" x="763.5" y="-7.5" font-family="Helvetica,sans-Serif" font-size="10.00">ctime</text>
</a>
</g>
</g>
<!-- Node6&#45;&gt;Node7 -->
<g id="edge6" class="edge">
<title>Node6&#45;&gt;Node7</title>
<path fill="none" stroke="midnightblue" d="M763.5,-56.08C763.5,-49.01 763.5,-38.86 763.5,-29.99"/>
<polygon fill="midnightblue" stroke="midnightblue" points="767,-29.75 763.5,-19.75 760,-29.75 767,-29.75"/>
</g>
<!-- Node8 -->
<g id="node8" class="node">
<title>Node8</title>
<g id="a_node8"><a xlink:title=" ">
<polygon fill="none" stroke="#bfbfbf" points="1043.5,-0.5 1043.5,-19.5 1093.5,-19.5 1093.5,-0.5 1043.5,-0.5"/>
<text text-anchor="middle" x="1068.5" y="-7.5" font-family="Helvetica,sans-Serif" font-size="10.00">cstdint</text>
</a>
</g>
</g>
<!-- Node6&#45;&gt;Node8 -->
<g id="edge7" class="edge">
<title>Node6&#45;&gt;Node8</title>
<path fill="none" stroke="midnightblue" d="M804.16,-57.67C807.32,-57.1 810.46,-56.54 813.5,-56 891.84,-42.04 983.76,-25.87 1033.03,-17.22"/>
<polygon fill="midnightblue" stroke="midnightblue" points="1033.91,-20.62 1043.16,-15.44 1032.7,-13.72 1033.91,-20.62"/>
</g>
<!-- Node9 -->
<g id="node9" class="node">
<title>Node9</title>
<g id="a_node9"><a xlink:title=" ">
<polygon fill="none" stroke="#bfbfbf" points="343,-0.5 343,-19.5 400,-19.5 400,-0.5 343,-0.5"/>
<text text-anchor="middle" x="371.5" y="-7.5" font-family="Helvetica,sans-Serif" font-size="10.00">ostream</text>
</a>
</g>
</g>
<!-- Node6&#45;&gt;Node9 -->
<g id="edge8" class="edge">
<title>Node6&#45;&gt;Node9</title>
<path fill="none" stroke="midnightblue" d="M722.66,-59.37C646.78,-48.92 485,-26.64 410.52,-16.38"/>
<polygon fill="midnightblue" stroke="midnightblue" points="410.57,-12.85 400.18,-14.95 409.61,-19.78 410.57,-12.85"/>
</g>
<!-- Node10 -->
<g id="node10" class="node">
<title>Node10</title>
<g id="a_node10"><a xlink:title=" ">
<polygon fill="none" stroke="#bfbfbf" points="1359.5,-0.5 1359.5,-19.5 1415.5,-19.5 1415.5,-0.5 1359.5,-0.5"/>
<text text-anchor="middle" x="1387.5" y="-7.5" font-family="Helvetica,sans-Serif" font-size="10.00">iomanip</text>
</a>
</g>
</g>
<!-- Node6&#45;&gt;Node10 -->
<g id="edge9" class="edge">
<title>Node6&#45;&gt;Node10</title>
<path fill="none" stroke="midnightblue" d="M804.11,-57.34C807.28,-56.85 810.44,-56.39 813.5,-56 1014.44,-30.1 1257.02,-17.01 1349.33,-12.67"/>
<polygon fill="midnightblue" stroke="midnightblue" points="1349.5,-16.17 1359.33,-12.21 1349.17,-9.18 1349.5,-16.17"/>
</g>
<!-- Node6&#45;&gt;Node11 -->
<g id="edge10" class="edge">
<title>Node6&#45;&gt;Node11</title>
<path fill="none" stroke="midnightblue" d="M722.81,-56.74C671.86,-46.4 585.24,-28.81 535.56,-18.73"/>
<polygon fill="midnightblue" stroke="midnightblue" points="536.04,-15.25 525.54,-16.69 534.64,-22.11 536.04,-15.25"/>
</g>
<!-- Node12 -->
<g id="node12" class="node">
<title>Node12</title>
<g id="a_node12"><a xlink:title=" ">
<polygon fill="none" stroke="#bfbfbf" points="891,-0.5 891,-19.5 938,-19.5 938,-0.5 891,-0.5"/>
<text text-anchor="middle" x="914.5" y="-7.5" font-family="Helvetica,sans-Serif" font-size="10.00">cmath</text>
</a>
</g>
</g>
<!-- Node6&#45;&gt;Node12 -->
<g id="edge11" class="edge">
<title>Node6&#45;&gt;Node12</title>
<path fill="none" stroke="midnightblue" d="M787.43,-56.44C812.72,-47.4 852.8,-33.06 881.18,-22.92"/>
<polygon fill="midnightblue" stroke="midnightblue" points="882.45,-26.18 890.69,-19.52 880.09,-19.59 882.45,-26.18"/>
</g>
<!-- Node17&#45;&gt;Node9 -->
<g id="edge17" class="edge">
<title>Node17&#45;&gt;Node9</title>
<path fill="none" stroke="midnightblue" d="M161.95,-56.44C208.74,-46.3 286.23,-29.49 332.72,-19.41"/>
<polygon fill="midnightblue" stroke="midnightblue" points="333.68,-22.78 342.71,-17.24 332.19,-15.94 333.68,-22.78"/>
</g>
<!-- Node18&#45;&gt;Node17 -->
<g id="edge19" class="edge">
<title>Node18&#45;&gt;Node17</title>
<path fill="none" stroke="midnightblue" d="M114.99,-112.08C116.18,-104.93 117.89,-94.64 119.38,-85.69"/>
<polygon fill="midnightblue" stroke="midnightblue" points="122.85,-86.19 121.04,-75.75 115.95,-85.04 122.85,-86.19"/>
</g>
<!-- Node19 -->
<g id="node19" class="node">
<title>Node19</title>
<g id="a_node19"><a xlink:title=" ">
<polygon fill="none" stroke="#bfbfbf" points="0,-56.5 0,-75.5 59,-75.5 59,-56.5 0,-56.5"/>
<text text-anchor="middle" x="29.5" y="-63.5" font-family="Helvetica,sans-Serif" font-size="10.00">complex</text>
</a>
</g>
</g>
<!-- Node18&#45;&gt;Node19 -->
<g id="edge20" class="edge">
<title>Node18&#45;&gt;Node19</title>
<path fill="none" stroke="midnightblue" d="M100,-112.32C86.9,-103.9 66.79,-90.97 51.39,-81.07"/>
<polygon fill="midnightblue" stroke="midnightblue" points="53.27,-78.12 42.96,-75.65 49.48,-84.01 53.27,-78.12"/>
</g>
<!-- Node23 -->
<g id="node23" class="node">
<title>Node23</title>
<g id="a_node23"><a xlink:href="CTF_8hpp.html" target="_top" xlink:title=" ">
<polygon fill="none" stroke="black" points="1974.5,-56.5 1974.5,-75.5 2048.5,-75.5 2048.5,-56.5 1974.5,-56.5"/>
<text text-anchor="middle" x="2011.5" y="-63.5" font-family="Helvetica,sans-Serif" font-size="10.00">util/CTF.hpp</text>
</a>
</g>
</g>
<!-- Node22&#45;&gt;Node23 -->
<g id="edge25" class="edge">
<title>Node22&#45;&gt;Node23</title>
<path fill="none" stroke="midnightblue" d="M1246.14,-113.74C1250.98,-113.08 1255.84,-112.48 1260.5,-112 1569.24,-80.25 1652.32,-113.49 1964.17,-75.97"/>
<polygon fill="midnightblue" stroke="midnightblue" points="1964.91,-79.41 1974.42,-74.73 1964.07,-72.46 1964.91,-79.41"/>
</g>
<!-- Node24 -->
<g id="node24" class="node">
<title>Node24</title>
<g id="a_node24"><a xlink:title=" ">
<polygon fill="none" stroke="#bfbfbf" points="1986.5,-0.5 1986.5,-19.5 2036.5,-19.5 2036.5,-0.5 1986.5,-0.5"/>
<text text-anchor="middle" x="2011.5" y="-7.5" font-family="Helvetica,sans-Serif" font-size="10.00">ctf.hpp</text>
</a>
</g>
</g>
<!-- Node23&#45;&gt;Node24 -->
<g id="edge26" class="edge">
<title>Node23&#45;&gt;Node24</title>
<path fill="none" stroke="midnightblue" d="M2011.5,-56.08C2011.5,-49.01 2011.5,-38.86 2011.5,-29.99"/>
<polygon fill="midnightblue" stroke="midnightblue" points="2015,-29.75 2011.5,-19.75 2008,-29.75 2015,-29.75"/>
</g>
<!-- Node25&#45;&gt;Node11 -->
<g id="edge29" class="edge">
<title>Node25&#45;&gt;Node11</title>
<path fill="none" stroke="midnightblue" d="M385.97,-112.44C346.74,-102.6 297.64,-84.08 319.5,-56 336.48,-34.2 412.11,-21.29 459.16,-15.22"/>
<polygon fill="midnightblue" stroke="midnightblue" points="459.81,-18.67 469.3,-13.96 458.95,-11.72 459.81,-18.67"/>
</g>
<!-- Node25&#45;&gt;Node13 -->
<g id="edge28" class="edge">
<title>Node25&#45;&gt;Node13</title>
<path fill="none" stroke="midnightblue" d="M442.32,-112.32C455.73,-103.9 476.32,-90.97 492.09,-81.07"/>
<polygon fill="midnightblue" stroke="midnightblue" points="494.11,-83.94 500.72,-75.65 490.39,-78.01 494.11,-83.94"/>
</g>
<!-- Node25&#45;&gt;Node14 -->
<g id="edge30" class="edge">
<title>Node25&#45;&gt;Node14</title>
<path fill="none" stroke="midnightblue" d="M417.25,-112.32C406.7,-104.18 390.7,-91.84 378.06,-82.09"/>
<polygon fill="midnightblue" stroke="midnightblue" points="380.01,-79.17 369.95,-75.83 375.73,-84.71 380.01,-79.17"/>
</g>
<!-- Node30&#45;&gt;Node13 -->
<g id="edge73" class="edge">
<title>Node30&#45;&gt;Node13</title>
<path fill="none" stroke="midnightblue" d="M985.01,-285.85C967.2,-275.87 937.14,-258.93 911.5,-244 812.63,-186.43 796.24,-155.68 690.5,-112 629.53,-86.82 610.26,-92.93 546.5,-76 546.4,-75.97 546.3,-75.95 546.2,-75.92"/>
<polygon fill="midnightblue" stroke="midnightblue" points="547.08,-72.53 536.51,-73.28 545.24,-79.29 547.08,-72.53"/>
</g>
<!-- Node30&#45;&gt;Node22 -->
<g id="edge72" class="edge">
<title>Node30&#45;&gt;Node22</title>
<path fill="none" stroke="midnightblue" d="M1040.11,-285.96C1090.97,-274.63 1173.84,-254.82 1183.5,-244 1208.78,-215.67 1208.04,-167.99 1205.28,-141.74"/>
<polygon fill="midnightblue" stroke="midnightblue" points="1208.72,-141.1 1203.99,-131.62 1201.78,-141.98 1208.72,-141.1"/>
</g>
<!-- Node30&#45;&gt;Node26 -->
<g id="edge41" class="edge">
<title>Node30&#45;&gt;Node26</title>
<path fill="none" stroke="midnightblue" d="M1016.26,-285.98C1034.48,-276.12 1064.67,-259.79 1085.97,-248.27"/>
<polygon fill="midnightblue" stroke="midnightblue" points="1087.64,-251.35 1094.77,-243.51 1084.31,-245.19 1087.64,-251.35"/>
</g>
<!-- Node30&#45;&gt;Node27 -->
<g id="edge74" class="edge">
<title>Node30&#45;&gt;Node27</title>
<path fill="none" stroke="midnightblue" d="M1035.03,-285.92C1177.03,-250.68 1710.12,-118.53 1746.5,-112 1880.25,-88 1918.66,-99.5 2056.05,-76.07"/>
<polygon fill="midnightblue" stroke="midnightblue" points="2056.86,-79.48 2066.11,-74.32 2055.66,-72.58 2056.86,-79.48"/>
</g>
<!-- Node30&#45;&gt;Node31 -->
<g id="edge42" class="edge">
<title>Node30&#45;&gt;Node31</title>
<path fill="none" stroke="midnightblue" d="M993.77,-285.98C986.72,-277.05 975.47,-262.81 966.65,-251.64"/>
<polygon fill="midnightblue" stroke="midnightblue" points="969.17,-249.19 960.22,-243.51 963.67,-253.53 969.17,-249.19"/>
</g>
<!-- Node31&#45;&gt;Node6 -->
<g id="edge43" class="edge">
<title>Node31&#45;&gt;Node6</title>
<path fill="none" stroke="midnightblue" d="M943.55,-224.31C913.03,-197.64 820.4,-116.72 781.26,-82.52"/>
<polygon fill="midnightblue" stroke="midnightblue" points="783.18,-79.55 773.35,-75.61 778.58,-84.82 783.18,-79.55"/>
</g>
<!-- Node31&#45;&gt;Node23 -->
<g id="edge44" class="edge">
<title>Node31&#45;&gt;Node23</title>
<path fill="none" stroke="midnightblue" d="M982.62,-224.46C1036.95,-208.26 1157.14,-171.18 1255.5,-132 1275.08,-124.2 1278.05,-117.1 1298.5,-112 1583.3,-40.9 1668.97,-110.98 1964.27,-75.95"/>
<polygon fill="midnightblue" stroke="midnightblue" points="1964.91,-79.4 1974.41,-74.72 1964.06,-72.45 1964.91,-79.4"/>
</g>
<!-- Node32 -->
<g id="node32" class="node">
<title>Node32</title>
<g id="a_node32"><a xlink:href="Options_8hpp.html" target="_top" xlink:title=" ">
<polygon fill="none" stroke="black" points="916,-168.5 916,-187.5 991,-187.5 991,-168.5 916,-168.5"/>
<text text-anchor="middle" x="953.5" y="-175.5" font-family="Helvetica,sans-Serif" font-size="10.00">Options.hpp</text>
</a>
</g>
</g>
<!-- Node31&#45;&gt;Node32 -->
<g id="edge45" class="edge">
<title>Node31&#45;&gt;Node32</title>
<path fill="none" stroke="midnightblue" d="M953.5,-224.08C953.5,-217.01 953.5,-206.86 953.5,-197.99"/>
<polygon fill="midnightblue" stroke="midnightblue" points="957,-197.75 953.5,-187.75 950,-197.75 957,-197.75"/>
</g>
<!-- Node32&#45;&gt;Node13 -->
<g id="edge46" class="edge">
<title>Node32&#45;&gt;Node13</title>
<path fill="none" stroke="midnightblue" d="M936.69,-168.33C908.63,-154.23 850.12,-126.48 797.5,-112 691.92,-82.94 658.64,-98.37 546.77,-75.75"/>
<polygon fill="midnightblue" stroke="midnightblue" points="547.29,-72.28 536.79,-73.67 545.86,-79.14 547.29,-72.28"/>
</g>
<!-- Node33 -->
<g id="node33" class="node">
<title>Node33</title>
<g id="a_node33"><a xlink:href="CLI11_8hpp.html" target="_top" xlink:title=" ">
<polygon fill="none" stroke="black" points="1042,-112.5 1042,-131.5 1141,-131.5 1141,-112.5 1042,-112.5"/>
<text text-anchor="middle" x="1091.5" y="-119.5" font-family="Helvetica,sans-Serif" font-size="10.00">extern/CLI11.hpp</text>
</a>
</g>
</g>
<!-- Node32&#45;&gt;Node33 -->
<g id="edge47" class="edge">
<title>Node32&#45;&gt;Node33</title>
<path fill="none" stroke="midnightblue" d="M975.37,-168.44C998.28,-159.48 1034.48,-145.31 1060.37,-135.18"/>
<polygon fill="midnightblue" stroke="midnightblue" points="1061.7,-138.42 1069.74,-131.52 1059.15,-131.9 1061.7,-138.42"/>
</g>
<!-- Node33&#45;&gt;Node8 -->
<g id="edge61" class="edge">
<title>Node33&#45;&gt;Node8</title>
<path fill="none" stroke="midnightblue" d="M1141.27,-113.77C1185.89,-105.1 1240.98,-87.62 1217.5,-56 1191.51,-21 1139.11,-12.24 1103.91,-10.55"/>
<polygon fill="midnightblue" stroke="midnightblue" points="1103.68,-7.04 1093.58,-10.23 1103.47,-14.04 1103.68,-7.04"/>
</g>
<!-- Node33&#45;&gt;Node10 -->
<g id="edge57" class="edge">
<title>Node33&#45;&gt;Node10</title>
<path fill="none" stroke="midnightblue" d="M1141.04,-113.17C1144.24,-112.75 1147.41,-112.35 1150.5,-112 1201.98,-106.09 1580.3,-114.03 1615.5,-76 1670.78,-16.28 1504.7,-10.03 1426.19,-10.29"/>
<polygon fill="midnightblue" stroke="midnightblue" points="1425.7,-6.79 1415.72,-10.36 1425.75,-13.79 1425.7,-6.79"/>
</g>
<!-- Node33&#45;&gt;Node11 -->
<g id="edge59" class="edge">
<title>Node33&#45;&gt;Node11</title>
<path fill="none" stroke="midnightblue" d="M1041.86,-120.62C968.65,-118.84 828.14,-110.69 714.5,-76 695.87,-70.31 693.73,-62.88 675.5,-56 628.68,-38.34 572.34,-25.41 535.76,-18.06"/>
<polygon fill="midnightblue" stroke="midnightblue" points="536.03,-14.54 525.54,-16.05 534.67,-21.41 536.03,-14.54"/>
</g>
<!-- Node33&#45;&gt;Node12 -->
<g id="edge50" class="edge">
<title>Node33&#45;&gt;Node12</title>
<path fill="none" stroke="midnightblue" d="M1123.57,-112.48C1158.31,-101.71 1206.08,-81.48 1184.5,-56 1169.37,-38.15 1017.7,-21.13 948.54,-14.23"/>
<polygon fill="midnightblue" stroke="midnightblue" points="948.48,-10.7 938.19,-13.21 947.79,-17.67 948.48,-10.7"/>
</g>
<!-- Node33&#45;&gt;Node13 -->
<g id="edge49" class="edge">
<title>Node33&#45;&gt;Node13</title>
<path fill="none" stroke="midnightblue" d="M1041.86,-120.08C947.28,-117.64 734.71,-108.85 546.81,-75.65"/>
<polygon fill="midnightblue" stroke="midnightblue" points="547.21,-72.17 536.75,-73.85 545.98,-79.06 547.21,-72.17"/>
</g>
<!-- Node33&#45;&gt;Node14 -->
<g id="edge62" class="edge">
<title>Node33&#45;&gt;Node14</title>
<path fill="none" stroke="midnightblue" d="M1041.64,-120.43C927.33,-118.55 637.76,-110.47 398.5,-76 398.4,-75.99 398.3,-75.97 398.2,-75.96"/>
<polygon fill="midnightblue" stroke="midnightblue" points="399,-72.54 388.55,-74.29 397.81,-79.44 399,-72.54"/>
</g>
<!-- Node33&#45;&gt;Node16 -->
<g id="edge54" class="edge">
<title>Node33&#45;&gt;Node16</title>
<path fill="none" stroke="midnightblue" d="M1041.93,-118.62C957.38,-114.05 779.79,-102.23 620.29,-75.89"/>
<polygon fill="midnightblue" stroke="midnightblue" points="620.73,-72.41 610.29,-74.21 619.58,-79.32 620.73,-72.41"/>
</g>
<!-- Node33&#45;&gt;Node20 -->
<g id="edge53" class="edge">
<title>Node33&#45;&gt;Node20</title>
<path fill="none" stroke="midnightblue" d="M1041.78,-118.09C964.12,-112.97 809.55,-100.51 680.5,-76 679.22,-75.76 677.92,-75.49 676.6,-75.2"/>
<polygon fill="midnightblue" stroke="midnightblue" points="677.12,-71.73 666.58,-72.75 675.46,-78.53 677.12,-71.73"/>
</g>
<!-- Node33&#45;&gt;Node21 -->
<g id="edge67" class="edge">
<title>Node33&#45;&gt;Node21</title>
<path fill="none" stroke="midnightblue" d="M1041.74,-119.27C918.91,-114.75 591.55,-101.14 319.5,-76 307.25,-74.87 293.86,-73.27 282.04,-71.73"/>
<polygon fill="midnightblue" stroke="midnightblue" points="282.5,-68.26 272.12,-70.4 281.57,-75.19 282.5,-68.26"/>
</g>
<!-- Node33&#45;&gt;Node27 -->
<g id="edge48" class="edge">
<title>Node33&#45;&gt;Node27</title>
<path fill="none" stroke="midnightblue" d="M1141.02,-113.04C1144.23,-112.65 1147.41,-112.3 1150.5,-112 1548.76,-73.84 1656.03,-129.8 2056.04,-75.92"/>
<polygon fill="midnightblue" stroke="midnightblue" points="2056.71,-79.36 2066.15,-74.54 2055.77,-72.42 2056.71,-79.36"/>
</g>
<!-- Node34 -->
<g id="node34" class="node">
<title>Node34</title>
<g id="a_node34"><a xlink:title=" ">
<polygon fill="none" stroke="#bfbfbf" points="913,-56.5 913,-75.5 978,-75.5 978,-56.5 913,-56.5"/>
<text text-anchor="middle" x="945.5" y="-63.5" font-family="Helvetica,sans-Serif" font-size="10.00">functional</text>
</a>
</g>
</g>
<!-- Node33&#45;&gt;Node34 -->
<g id="edge51" class="edge">
<title>Node33&#45;&gt;Node34</title>
<path fill="none" stroke="midnightblue" d="M1068.37,-112.44C1044.02,-103.44 1005.49,-89.19 978.08,-79.05"/>
<polygon fill="midnightblue" stroke="midnightblue" points="979.12,-75.7 968.53,-75.52 976.69,-82.27 979.12,-75.7"/>
</g>
<!-- Node35 -->
<g id="node35" class="node">
<title>Node35</title>
<g id="a_node35"><a xlink:title=" ">
<polygon fill="none" stroke="#bfbfbf" points="996.5,-56.5 996.5,-75.5 1052.5,-75.5 1052.5,-56.5 996.5,-56.5"/>
<text text-anchor="middle" x="1024.5" y="-63.5" font-family="Helvetica,sans-Serif" font-size="10.00">numeric</text>
</a>
</g>
</g>
<!-- Node33&#45;&gt;Node35 -->
<g id="edge52" class="edge">
<title>Node33&#45;&gt;Node35</title>
<path fill="none" stroke="midnightblue" d="M1080.74,-112.32C1070.73,-104.26 1055.61,-92.08 1043.57,-82.37"/>
<polygon fill="midnightblue" stroke="midnightblue" points="1045.44,-79.38 1035.46,-75.83 1041.05,-84.83 1045.44,-79.38"/>
</g>
<!-- Node36 -->
<g id="node36" class="node">
<title>Node36</title>
<g id="a_node36"><a xlink:title=" ">
<polygon fill="none" stroke="#bfbfbf" points="1071,-56.5 1071,-75.5 1112,-75.5 1112,-56.5 1071,-56.5"/>
<text text-anchor="middle" x="1091.5" y="-63.5" font-family="Helvetica,sans-Serif" font-size="10.00">tuple</text>
</a>
</g>
</g>
<!-- Node33&#45;&gt;Node36 -->
<g id="edge55" class="edge">
<title>Node33&#45;&gt;Node36</title>
<path fill="none" stroke="midnightblue" d="M1091.5,-112.08C1091.5,-105.01 1091.5,-94.86 1091.5,-85.99"/>
<polygon fill="midnightblue" stroke="midnightblue" points="1095,-85.75 1091.5,-75.75 1088,-85.75 1095,-85.75"/>
</g>
<!-- Node37 -->
<g id="node37" class="node">
<title>Node37</title>
<g id="a_node37"><a xlink:title=" ">
<polygon fill="none" stroke="#bfbfbf" points="1130,-56.5 1130,-75.5 1175,-75.5 1175,-56.5 1130,-56.5"/>
<text text-anchor="middle" x="1152.5" y="-63.5" font-family="Helvetica,sans-Serif" font-size="10.00">utility</text>
</a>
</g>
</g>
<!-- Node33&#45;&gt;Node37 -->
<g id="edge56" class="edge">
<title>Node33&#45;&gt;Node37</title>
<path fill="none" stroke="midnightblue" d="M1101.3,-112.32C1110.32,-104.34 1123.91,-92.31 1134.82,-82.65"/>
<polygon fill="midnightblue" stroke="midnightblue" points="1137.35,-85.08 1142.52,-75.83 1132.71,-79.84 1137.35,-85.08"/>
</g>
<!-- Node38 -->
<g id="node38" class="node">
<title>Node38</title>
<g id="a_node38"><a xlink:title=" ">
<polygon fill="none" stroke="#bfbfbf" points="1269.5,-56.5 1269.5,-75.5 1315.5,-75.5 1315.5,-56.5 1269.5,-56.5"/>
<text text-anchor="middle" x="1292.5" y="-63.5" font-family="Helvetica,sans-Serif" font-size="10.00">locale</text>
</a>
</g>
</g>
<!-- Node33&#45;&gt;Node38 -->
<g id="edge58" class="edge">
<title>Node33&#45;&gt;Node38</title>
<path fill="none" stroke="midnightblue" d="M1123.35,-112.44C1160.48,-102.47 1221.57,-86.06 1259.28,-75.92"/>
<polygon fill="midnightblue" stroke="midnightblue" points="1260.51,-79.22 1269.26,-73.24 1258.69,-72.46 1260.51,-79.22"/>
</g>
<!-- Node39 -->
<g id="node39" class="node">
<title>Node39</title>
<g id="a_node39"><a xlink:title=" ">
<polygon fill="none" stroke="#bfbfbf" points="1333.5,-56.5 1333.5,-75.5 1397.5,-75.5 1397.5,-56.5 1333.5,-56.5"/>
<text text-anchor="middle" x="1365.5" y="-63.5" font-family="Helvetica,sans-Serif" font-size="10.00">algorithm</text>
</a>
</g>
</g>
<!-- Node33&#45;&gt;Node39 -->
<g id="edge60" class="edge">
<title>Node33&#45;&gt;Node39</title>
<path fill="none" stroke="midnightblue" d="M1137.55,-112.46C1182.48,-104.05 1253.04,-90.63 1323.37,-76.2"/>
<polygon fill="midnightblue" stroke="midnightblue" points="1324.2,-79.6 1333.29,-74.15 1322.79,-72.74 1324.2,-79.6"/>
</g>
<!-- Node40 -->
<g id="node40" class="node">
<title>Node40</title>
<g id="a_node40"><a xlink:title=" ">
<polygon fill="none" stroke="#bfbfbf" points="1415.5,-56.5 1415.5,-75.5 1447.5,-75.5 1447.5,-56.5 1415.5,-56.5"/>
<text text-anchor="middle" x="1431.5" y="-63.5" font-family="Helvetica,sans-Serif" font-size="10.00">set</text>
</a>
</g>
</g>
<!-- Node33&#45;&gt;Node40 -->
<g id="edge63" class="edge">
<title>Node33&#45;&gt;Node40</title>
<path fill="none" stroke="midnightblue" d="M1141.07,-113.4C1144.26,-112.92 1147.42,-112.45 1150.5,-112 1260.96,-95.81 1293.16,-103.16 1405.24,-75.87"/>
<polygon fill="midnightblue" stroke="midnightblue" points="1406.38,-79.2 1415.24,-73.4 1404.69,-72.4 1406.38,-79.2"/>
</g>
<!-- Node41 -->
<g id="node41" class="node">
<title>Node41</title>
<g id="a_node41"><a xlink:title=" ">
<polygon fill="none" stroke="#bfbfbf" points="1466,-56.5 1466,-75.5 1535,-75.5 1535,-56.5 1466,-56.5"/>
<text text-anchor="middle" x="1500.5" y="-63.5" font-family="Helvetica,sans-Serif" font-size="10.00">type_traits</text>
</a>
</g>
</g>
<!-- Node33&#45;&gt;Node41 -->
<g id="edge64" class="edge">
<title>Node33&#45;&gt;Node41</title>
<path fill="none" stroke="midnightblue" d="M1141.06,-113.31C1144.25,-112.86 1147.42,-112.42 1150.5,-112 1283.03,-94.1 1319.6,-97.56 1455.97,-75.95"/>
<polygon fill="midnightblue" stroke="midnightblue" points="1456.64,-79.39 1465.96,-74.35 1455.54,-72.48 1456.64,-79.39"/>
</g>
<!-- Node42 -->
<g id="node42" class="node">
<title>Node42</title>
<g id="a_node42"><a xlink:title=" ">
<polygon fill="none" stroke="#bfbfbf" points="1553,-56.5 1553,-75.5 1606,-75.5 1606,-56.5 1553,-56.5"/>
<text text-anchor="middle" x="1579.5" y="-63.5" font-family="Helvetica,sans-Serif" font-size="10.00">iterator</text>
</a>
</g>
</g>
<!-- Node33&#45;&gt;Node42 -->
<g id="edge65" class="edge">
<title>Node33&#45;&gt;Node42</title>
<path fill="none" stroke="midnightblue" d="M1141.04,-113.22C1144.24,-112.79 1147.41,-112.38 1150.5,-112 1321.81,-91.13 1369.48,-105.44 1542.87,-76.04"/>
<polygon fill="midnightblue" stroke="midnightblue" points="1543.58,-79.47 1552.84,-74.33 1542.39,-72.57 1543.58,-79.47"/>
</g>
<!-- Node43 -->
<g id="node43" class="node">
<title>Node43</title>
<g id="a_node43"><a xlink:title=" ">
<polygon fill="none" stroke="#bfbfbf" points="1663,-56.5 1663,-75.5 1728,-75.5 1728,-56.5 1663,-56.5"/>
<text text-anchor="middle" x="1695.5" y="-63.5" font-family="Helvetica,sans-Serif" font-size="10.00">stdexcept</text>
</a>
</g>
</g>
<!-- Node33&#45;&gt;Node43 -->
<g id="edge66" class="edge">
<title>Node33&#45;&gt;Node43</title>
<path fill="none" stroke="midnightblue" d="M1141.04,-113.15C1144.24,-112.74 1147.41,-112.35 1150.5,-112 1371.03,-87.25 1428.48,-104.92 1648.5,-76 1649.97,-75.81 1651.46,-75.6 1652.96,-75.37"/>
<polygon fill="midnightblue" stroke="midnightblue" points="1653.66,-78.81 1662.96,-73.74 1652.53,-71.9 1653.66,-78.81"/>
</g>
<!-- Node44 -->
<g id="node44" class="node">
<title>Node44</title>
<g id="a_node44"><a xlink:title=" ">
<polygon fill="none" stroke="#bfbfbf" points="1746.5,-56.5 1746.5,-75.5 1790.5,-75.5 1790.5,-56.5 1746.5,-56.5"/>
<text text-anchor="middle" x="1768.5" y="-63.5" font-family="Helvetica,sans-Serif" font-size="10.00">limits</text>
</a>
</g>
</g>
<!-- Node33&#45;&gt;Node44 -->
<g id="edge68" class="edge">
<title>Node33&#45;&gt;Node44</title>
<path fill="none" stroke="midnightblue" d="M1141.03,-113.11C1144.23,-112.71 1147.41,-112.33 1150.5,-112 1407.1,-84.62 1478.18,-119.8 1736.24,-75.82"/>
<polygon fill="midnightblue" stroke="midnightblue" points="1737.03,-79.24 1746.29,-74.09 1735.84,-72.34 1737.03,-79.24"/>
</g>
<!-- Node45 -->
<g id="node45" class="node">
<title>Node45</title>
<g id="a_node45"><a xlink:title=" ">
<polygon fill="none" stroke="#bfbfbf" points="1809,-56.5 1809,-75.5 1874,-75.5 1874,-56.5 1809,-56.5"/>
<text text-anchor="middle" x="1841.5" y="-63.5" font-family="Helvetica,sans-Serif" font-size="10.00">exception</text>
</a>
</g>
</g>
<!-- Node33&#45;&gt;Node45 -->
<g id="edge69" class="edge">
<title>Node33&#45;&gt;Node45</title>
<path fill="none" stroke="midnightblue" d="M1141.03,-113.09C1144.23,-112.69 1147.41,-112.32 1150.5,-112 1434.48,-82.53 1511.38,-113.64 1798.27,-75.93"/>
<polygon fill="midnightblue" stroke="midnightblue" points="1799.12,-79.35 1808.57,-74.56 1798.2,-72.41 1799.12,-79.35"/>
</g>
<!-- Node46 -->
<g id="node46" class="node">
<title>Node46</title>
<g id="a_node46"><a xlink:title=" ">
<polygon fill="none" stroke="#bfbfbf" points="1892.5,-56.5 1892.5,-75.5 1956.5,-75.5 1956.5,-56.5 1892.5,-56.5"/>
<text text-anchor="middle" x="1924.5" y="-63.5" font-family="Helvetica,sans-Serif" font-size="10.00">sys/stat.h</text>
</a>
</g>
</g>
<!-- Node33&#45;&gt;Node46 -->
<g id="edge70" class="edge">
<title>Node33&#45;&gt;Node46</title>
<path fill="none" stroke="midnightblue" d="M1141.03,-113.07C1144.23,-112.67 1147.41,-112.31 1150.5,-112 1471.71,-79.7 1558.42,-118.31 1882.22,-75.93"/>
<polygon fill="midnightblue" stroke="midnightblue" points="1882.91,-79.37 1892.36,-74.59 1881.99,-72.43 1882.91,-79.37"/>
</g>
<!-- Node47 -->
<g id="node47" class="node">
<title>Node47</title>
<g id="a_node47"><a xlink:title=" ">
<polygon fill="none" stroke="#bfbfbf" points="822.5,-56.5 822.5,-75.5 894.5,-75.5 894.5,-56.5 822.5,-56.5"/>
<text text-anchor="middle" x="858.5" y="-63.5" font-family="Helvetica,sans-Serif" font-size="10.00">sys/types.h</text>
</a>
</g>
</g>
<!-- Node33&#45;&gt;Node47 -->
<g id="edge71" class="edge">
<title>Node33&#45;&gt;Node47</title>
<path fill="none" stroke="midnightblue" d="M1054.58,-112.44C1013.99,-103.04 948.7,-87.9 904.73,-77.71"/>
<polygon fill="midnightblue" stroke="midnightblue" points="905.4,-74.28 894.86,-75.43 903.81,-81.09 905.4,-74.28"/>
</g>
</g>
</svg>
