<?xml version="1.0" encoding="UTF-8" standalone="no"?>
<!DOCTYPE svg PUBLIC "-//W3C//DTD SVG 1.1//EN"
 "http://www.w3.org/Graphics/SVG/1.1/DTD/svg11.dtd">
<!-- Generated by graphviz version 9.0.0 (0)
 -->
<!-- Title: computeAndExport Pages: 1 -->
<svg width="584pt" height="116pt"
 viewBox="0.00 0.00 584.25 115.50" xmlns="http://www.w3.org/2000/svg" xmlns:xlink="http://www.w3.org/1999/xlink">
<g id="graph0" class="graph" transform="scale(1 1) rotate(0) translate(4 111.5)">
<title>computeAndExport</title>
<!-- Node1 -->
<g id="Node000001" class="node">
<title>Node1</title>
<g id="a_Node000001"><a xlink:title=" ">
<polygon fill="#999999" stroke="#666666" points="109,-53.12 0,-53.12 0,-32.38 109,-32.38 109,-53.12"/>
<text text-anchor="middle" x="54.5" y="-39.62" font-family="Helvetica,sans-Serif" font-size="10.00">computeAndExport</text>
</a>
</g>
</g>
<!-- Node2 -->
<g id="Node000002" class="node">
<title>Node2</title>
<g id="a_Node000002"><a xlink:href="classsisi4s_1_1Algorithm.html#a388052a12509b8b641f17bbe8d41f8f3" target="_top" xlink:title="Specifies the location of an output tensor data.">
<polygon fill="white" stroke="#666666" points="285.5,-85.5 145,-85.5 145,-52 285.5,-52 285.5,-85.5"/>
<text text-anchor="start" x="153" y="-72" font-family="Helvetica,sans-Serif" font-size="10.00">sisi4s::Algorithm::</text>
<text text-anchor="middle" x="215.25" y="-59.25" font-family="Helvetica,sans-Serif" font-size="10.00">allocatedTensorArgument</text>
</a>
</g>
</g>
<!-- Node1&#45;&gt;Node2 -->
<g id="edge1_Node000001_Node000002" class="edge">
<title>Node1&#45;&gt;Node2</title>
<g id="a_edge1_Node000001_Node000002"><a xlink:title=" ">
<path fill="none" stroke="#63b8ff" d="M109.25,-51.55C117.04,-52.83 125.2,-54.17 133.38,-55.51"/>
<polygon fill="#63b8ff" stroke="#63b8ff" points="132.59,-58.92 143.03,-57.08 133.72,-52.01 132.59,-58.92"/>
</a>
</g>
</g>
<!-- Node6 -->
<g id="Node000006" class="node">
<title>Node6</title>
<g id="a_Node000006"><a xlink:href="classsisi4s_1_1Algorithm.html#aec9041b31cb64a42ee1fd79d32774266" target="_top" xlink:title=" ">
<polygon fill="white" stroke="#666666" points="267.12,-33.5 163.38,-33.5 163.38,0 267.12,0 267.12,-33.5"/>
<text text-anchor="start" x="171.38" y="-20" font-family="Helvetica,sans-Serif" font-size="10.00">sisi4s::Algorithm::</text>
<text text-anchor="middle" x="215.25" y="-7.25" font-family="Helvetica,sans-Serif" font-size="10.00">isArgumentGiven</text>
</a>
</g>
</g>
<!-- Node1&#45;&gt;Node6 -->
<g id="edge5_Node000001_Node000006" class="edge">
<title>Node1&#45;&gt;Node6</title>
<g id="a_edge5_Node000001_Node000006"><a xlink:title=" ">
<path fill="none" stroke="#63b8ff" d="M109.25,-33.95C122.94,-31.7 137.78,-29.27 151.87,-26.97"/>
<polygon fill="#63b8ff" stroke="#63b8ff" points="152.18,-30.46 161.48,-25.39 151.05,-23.55 152.18,-30.46"/>
</a>
</g>
</g>
<!-- Node3 -->
<g id="Node000003" class="node">
<title>Node3</title>
<g id="a_Node000003"><a xlink:href="classsisi4s_1_1Algorithm.html#a1e53277220d32a33e20846267c253652" target="_top" xlink:title=" ">
<polygon fill="white" stroke="#666666" points="435.38,-107.5 331.62,-107.5 331.62,-74 435.38,-74 435.38,-107.5"/>
<text text-anchor="start" x="339.62" y="-94" font-family="Helvetica,sans-Serif" font-size="10.00">sisi4s::Algorithm::</text>
<text text-anchor="middle" x="383.5" y="-81.25" font-family="Helvetica,sans-Serif" font-size="10.00">getArgumentData</text>
</a>
</g>
</g>
<!-- Node2&#45;&gt;Node3 -->
<g id="edge2_Node000002_Node000003" class="edge">
<title>Node2&#45;&gt;Node3</title>
<g id="a_edge2_Node000002_Node000003"><a xlink:title=" ">
<path fill="none" stroke="#63b8ff" d="M285.79,-77.95C297.08,-79.45 308.72,-80.99 319.84,-82.46"/>
<polygon fill="#63b8ff" stroke="#63b8ff" points="319.32,-85.92 329.7,-83.76 320.24,-78.98 319.32,-85.92"/>
</a>
</g>
</g>
<!-- Node5 -->
<g id="Node000005" class="node">
<title>Node5</title>
<g id="a_Node000005"><a xlink:href="classsisi4s_1_1Data.html#a10819dce08cb4dd8d881b9fe02036d69" target="_top" xlink:title=" ">
<polygon fill="white" stroke="#666666" points="445.5,-56.12 321.5,-56.12 321.5,-35.38 445.5,-35.38 445.5,-56.12"/>
<text text-anchor="middle" x="383.5" y="-42.62" font-family="Helvetica,sans-Serif" font-size="10.00">sisi4s::Data::getName</text>
</a>
</g>
</g>
<!-- Node2&#45;&gt;Node5 -->
<g id="edge4_Node000002_Node000005" class="edge">
<title>Node2&#45;&gt;Node5</title>
<g id="a_edge4_Node000002_Node000005"><a xlink:title=" ">
<path fill="none" stroke="#63b8ff" d="M285.79,-59.13C293.77,-58.02 301.93,-56.9 309.95,-55.79"/>
<polygon fill="#63b8ff" stroke="#63b8ff" points="310.24,-59.28 319.67,-54.44 309.29,-52.35 310.24,-59.28"/>
</a>
</g>
</g>
<!-- Node4 -->
<g id="Node000004" class="node">
<title>Node4</title>
<g id="a_Node000004"><a xlink:href="classsisi4s_1_1Data.html#a5b4676e48b4f437d399587e6903f896a" target="_top" xlink:title=" ">
<polygon fill="white" stroke="#666666" points="576.25,-101.12 481.5,-101.12 481.5,-80.38 576.25,-80.38 576.25,-101.12"/>
<text text-anchor="middle" x="528.88" y="-87.62" font-family="Helvetica,sans-Serif" font-size="10.00">sisi4s::Data::get</text>
</a>
</g>
</g>
<!-- Node3&#45;&gt;Node4 -->
<g id="edge3_Node000003_Node000004" class="edge">
<title>Node3&#45;&gt;Node4</title>
<g id="a_edge3_Node000003_Node000004"><a xlink:title=" ">
<path fill="none" stroke="#63b8ff" d="M435.86,-90.75C446.83,-90.75 458.5,-90.75 469.7,-90.75"/>
<polygon fill="#63b8ff" stroke="#63b8ff" points="469.66,-94.25 479.66,-90.75 469.66,-87.25 469.66,-94.25"/>
</a>
</g>
</g>
</g>
</svg>
