<?xml version="1.0" encoding="UTF-8" standalone="no"?>
<!DOCTYPE svg PUBLIC "-//W3C//DTD SVG 1.1//EN"
 "http://www.w3.org/Graphics/SVG/1.1/DTD/svg11.dtd">
<!-- Generated by graphviz version 9.0.0 (0)
 -->
<!-- Title: CoulombVertexReader.hpp Pages: 1 -->
<svg width="788pt" height="313pt"
 viewBox="0.00 0.00 787.76 312.50" xmlns="http://www.w3.org/2000/svg" xmlns:xlink="http://www.w3.org/1999/xlink">
<g id="graph0" class="graph" transform="scale(1 1) rotate(0) translate(4 308.5)">
<title>CoulombVertexReader.hpp</title>
<!-- Node1 -->
<g id="Node000001" class="node">
<title>Node1</title>
<g id="a_Node000001"><a xlink:title=" ">
<polygon fill="#999999" stroke="#666666" points="779.76,-304.5 634.01,-304.5 634.01,-283.75 779.76,-283.75 779.76,-304.5"/>
<text text-anchor="middle" x="706.89" y="-291" font-family="Helvetica,sans-Serif" font-size="10.00">CoulombVertexReader.hpp</text>
</a>
</g>
</g>
<!-- Node2 -->
<g id="Node000002" class="node">
<title>Node2</title>
<g id="a_Node000002"><a xlink:href="Algorithm_8hpp.html" target="_top" xlink:title=" ">
<polygon fill="white" stroke="#666666" points="533.14,-247.75 392.64,-247.75 392.64,-227 533.14,-227 533.14,-247.75"/>
<text text-anchor="middle" x="462.89" y="-234.25" font-family="Helvetica,sans-Serif" font-size="10.00">algorithms/Algorithm.hpp</text>
</a>
</g>
</g>
<!-- Node1&#45;&gt;Node2 -->
<g id="edge1_Node000001_Node000002" class="edge">
<title>Node1&#45;&gt;Node2</title>
<g id="a_edge1_Node000001_Node000002"><a xlink:title=" ">
<path fill="none" stroke="#63b8ff" d="M662.98,-283.27C622.34,-274.15 561.75,-260.56 517.9,-250.72"/>
<polygon fill="#63b8ff" stroke="#63b8ff" points="518.85,-247.35 508.33,-248.57 517.32,-254.18 518.85,-247.35"/>
</a>
</g>
</g>
<!-- Node7 -->
<g id="Node000007" class="node">
<title>Node7</title>
<g id="a_Node000007"><a xlink:title=" ">
<polygon fill="#e0e0e0" stroke="#999999" points="559.39,-20.75 510.39,-20.75 510.39,0 559.39,0 559.39,-20.75"/>
<text text-anchor="middle" x="534.89" y="-7.25" font-family="Helvetica,sans-Serif" font-size="10.00">cstdint</text>
</a>
</g>
</g>
<!-- Node1&#45;&gt;Node7 -->
<g id="edge35_Node000001_Node000007" class="edge">
<title>Node1&#45;&gt;Node7</title>
<g id="a_edge35_Node000001_Node000007"><a xlink:title=" ">
<path fill="none" stroke="#63b8ff" d="M715.79,-283.53C731.82,-265.21 763.89,-223.37 763.89,-181.62 763.89,-181.62 763.89,-181.62 763.89,-122.88 763.89,-88.53 751.63,-77 723.89,-56.75 668.16,-16.08 639.93,-37.01 572.89,-20.75 572.23,-20.59 571.56,-20.43 570.89,-20.26"/>
<polygon fill="#63b8ff" stroke="#63b8ff" points="571.83,-16.89 561.29,-17.92 570.17,-23.69 571.83,-16.89"/>
</a>
</g>
</g>
<!-- Node15 -->
<g id="Node000015" class="node">
<title>Node15</title>
<g id="a_Node000015"><a xlink:title=" ">
<polygon fill="#e0e0e0" stroke="#999999" points="715.01,-77.5 660.76,-77.5 660.76,-56.75 715.01,-56.75 715.01,-77.5"/>
<text text-anchor="middle" x="687.89" y="-64" font-family="Helvetica,sans-Serif" font-size="10.00">fstream</text>
</a>
</g>
</g>
<!-- Node1&#45;&gt;Node15 -->
<g id="edge36_Node000001_Node000015" class="edge">
<title>Node1&#45;&gt;Node15</title>
<g id="a_edge36_Node000001_Node000015"><a xlink:title=" ">
<path fill="none" stroke="#63b8ff" d="M706.07,-283.46C703.21,-249.63 693.63,-136.11 689.64,-88.94"/>
<polygon fill="#63b8ff" stroke="#63b8ff" points="693.16,-88.94 688.83,-79.27 686.18,-89.52 693.16,-88.94"/>
</a>
</g>
</g>
<!-- Node21 -->
<g id="Node000021" class="node">
<title>Node21</title>
<g id="a_Node000021"><a xlink:href="Tensor_8hpp.html" target="_top" xlink:title=" ">
<polygon fill="white" stroke="#666666" points="660.14,-134.25 573.64,-134.25 573.64,-113.5 660.14,-113.5 660.14,-134.25"/>
<text text-anchor="middle" x="616.89" y="-120.75" font-family="Helvetica,sans-Serif" font-size="10.00">util/Tensor.hpp</text>
</a>
</g>
</g>
<!-- Node1&#45;&gt;Node21 -->
<g id="edge34_Node000001_Node000021" class="edge">
<title>Node1&#45;&gt;Node21</title>
<g id="a_edge34_Node000001_Node000021"><a xlink:title=" ">
<path fill="none" stroke="#63b8ff" d="M701.79,-283.6C687.5,-256.89 646.84,-180.87 627.44,-144.6"/>
<polygon fill="#63b8ff" stroke="#63b8ff" points="630.67,-143.22 622.87,-136.05 624.5,-146.52 630.67,-143.22"/>
</a>
</g>
</g>
<!-- Node3 -->
<g id="Node000003" class="node">
<title>Node3</title>
<g id="a_Node000003"><a xlink:href="Data_8hpp.html" target="_top" xlink:title=" ">
<polygon fill="white" stroke="#666666" points="464.01,-191 403.76,-191 403.76,-170.25 464.01,-170.25 464.01,-191"/>
<text text-anchor="middle" x="433.89" y="-177.5" font-family="Helvetica,sans-Serif" font-size="10.00">Data.hpp</text>
</a>
</g>
</g>
<!-- Node2&#45;&gt;Node3 -->
<g id="edge2_Node000002_Node000003" class="edge">
<title>Node2&#45;&gt;Node3</title>
<g id="a_edge2_Node000002_Node000003"><a xlink:title=" ">
<path fill="none" stroke="#63b8ff" d="M457.7,-226.59C453.99,-219.58 448.87,-209.91 444.32,-201.33"/>
<polygon fill="#63b8ff" stroke="#63b8ff" points="447.51,-199.86 439.73,-192.67 441.32,-203.14 447.51,-199.86"/>
</a>
</g>
</g>
<!-- Node10 -->
<g id="Node000010" class="node">
<title>Node10</title>
<g id="a_Node000010"><a xlink:title=" ">
<polygon fill="#e0e0e0" stroke="#999999" points="111.76,-20.75 56.01,-20.75 56.01,0 111.76,0 111.76,-20.75"/>
<text text-anchor="middle" x="83.89" y="-7.25" font-family="Helvetica,sans-Serif" font-size="10.00">sstream</text>
</a>
</g>
</g>
<!-- Node2&#45;&gt;Node10 -->
<g id="edge32_Node000002_Node000010" class="edge">
<title>Node2&#45;&gt;Node10</title>
<g id="a_edge32_Node000002_Node000010"><a xlink:title=" ">
<path fill="none" stroke="#63b8ff" d="M392.47,-231.37C305.07,-224.45 161.47,-210.56 111.89,-191 46.83,-165.33 19.72,-145.38 2.89,-77.5 0.67,-68.55 -1.78,-64.71 2.89,-56.75 12.18,-40.89 29.26,-30.16 45.35,-23.13"/>
<polygon fill="#63b8ff" stroke="#63b8ff" points="46.28,-26.53 54.29,-19.59 43.7,-20.02 46.28,-26.53"/>
</a>
</g>
</g>
<!-- Node12 -->
<g id="Node000012" class="node">
<title>Node12</title>
<g id="a_Node000012"><a xlink:title=" ">
<polygon fill="#e0e0e0" stroke="#999999" points="55.76,-77.5 12.01,-77.5 12.01,-56.75 55.76,-56.75 55.76,-77.5"/>
<text text-anchor="middle" x="33.89" y="-64" font-family="Helvetica,sans-Serif" font-size="10.00">string</text>
</a>
</g>
</g>
<!-- Node2&#45;&gt;Node12 -->
<g id="edge30_Node000002_Node000012" class="edge">
<title>Node2&#45;&gt;Node12</title>
<g id="a_edge30_Node000002_Node000012"><a xlink:title=" ">
<path fill="none" stroke="#63b8ff" d="M392.16,-228.21C286.26,-214.51 93.87,-183.47 46.89,-134.25 35.52,-122.34 32.72,-103.53 32.51,-89.02"/>
<polygon fill="#63b8ff" stroke="#63b8ff" points="36,-89.25 32.79,-79.16 29,-89.05 36,-89.25"/>
</a>
</g>
</g>
<!-- Node20 -->
<g id="Node000020" class="node">
<title>Node20</title>
<g id="a_Node000020"><a xlink:title=" ">
<polygon fill="#e0e0e0" stroke="#999999" points="555.26,-134.25 508.51,-134.25 508.51,-113.5 555.26,-113.5 555.26,-134.25"/>
<text text-anchor="middle" x="531.89" y="-120.75" font-family="Helvetica,sans-Serif" font-size="10.00">vector</text>
</a>
</g>
</g>
<!-- Node2&#45;&gt;Node20 -->
<g id="edge31_Node000002_Node000020" class="edge">
<title>Node2&#45;&gt;Node20</title>
<g id="a_edge31_Node000002_Node000020"><a xlink:title=" ">
<path fill="none" stroke="#63b8ff" d="M468.77,-226.87C480.07,-208.61 505.01,-168.31 519.93,-144.2"/>
<polygon fill="#63b8ff" stroke="#63b8ff" points="522.74,-146.31 525.03,-135.96 516.79,-142.62 522.74,-146.31"/>
</a>
</g>
</g>
<!-- Node2&#45;&gt;Node21 -->
<g id="edge33_Node000002_Node000021" class="edge">
<title>Node2&#45;&gt;Node21</title>
<g id="a_edge33_Node000002_Node000021"><a xlink:title=" ">
<path fill="none" stroke="#63b8ff" d="M476.28,-226.68C502.68,-207.56 561.66,-164.86 594.22,-141.29"/>
<polygon fill="#63b8ff" stroke="#63b8ff" points="596.14,-144.22 602.18,-135.52 592.03,-138.55 596.14,-144.22"/>
</a>
</g>
</g>
<!-- Node4 -->
<g id="Node000004" class="node">
<title>Node4</title>
<g id="a_Node000004"><a xlink:href="Log_8hpp.html" target="_top" xlink:title=" ">
<polygon fill="white" stroke="#666666" points="270.39,-134.25 197.39,-134.25 197.39,-113.5 270.39,-113.5 270.39,-134.25"/>
<text text-anchor="middle" x="233.89" y="-120.75" font-family="Helvetica,sans-Serif" font-size="10.00">util/Log.hpp</text>
</a>
</g>
</g>
<!-- Node3&#45;&gt;Node4 -->
<g id="edge3_Node000003_Node000004" class="edge">
<title>Node3&#45;&gt;Node4</title>
<g id="a_edge3_Node000003_Node000004"><a xlink:title=" ">
<path fill="none" stroke="#63b8ff" d="M403.51,-171.31C370.79,-162.35 318.32,-147.99 280.4,-137.61"/>
<polygon fill="#63b8ff" stroke="#63b8ff" points="281.66,-134.32 271.09,-135.06 279.81,-141.07 281.66,-134.32"/>
</a>
</g>
</g>
<!-- Node3&#45;&gt;Node12 -->
<g id="edge20_Node000003_Node000012" class="edge">
<title>Node3&#45;&gt;Node12</title>
<g id="a_edge20_Node000003_Node000012"><a xlink:title=" ">
<path fill="none" stroke="#63b8ff" d="M403.53,-179.48C325.62,-178.54 120.88,-172.43 66.89,-134.25 51.68,-123.5 43.1,-103.67 38.53,-88.52"/>
<polygon fill="#63b8ff" stroke="#63b8ff" points="41.99,-87.89 36.06,-79.1 35.21,-89.67 41.99,-87.89"/>
</a>
</g>
</g>
<!-- Node16 -->
<g id="Node000016" class="node">
<title>Node16</title>
<g id="a_Node000016"><a xlink:href="Float_8hpp.html" target="_top" xlink:title=" ">
<polygon fill="white" stroke="#666666" points="538.01,-77.5 447.76,-77.5 447.76,-56.75 538.01,-56.75 538.01,-77.5"/>
<text text-anchor="middle" x="492.89" y="-64" font-family="Helvetica,sans-Serif" font-size="10.00">math/Float.hpp</text>
</a>
</g>
</g>
<!-- Node3&#45;&gt;Node16 -->
<g id="edge15_Node000003_Node000016" class="edge">
<title>Node3&#45;&gt;Node16</title>
<g id="a_edge15_Node000003_Node000016"><a xlink:title=" ">
<path fill="none" stroke="#63b8ff" d="M440.22,-170.08C446.12,-161.02 455.02,-146.95 461.89,-134.25 470.09,-119.07 478.34,-101.33 484.26,-88.06"/>
<polygon fill="#63b8ff" stroke="#63b8ff" points="487.38,-89.66 488.2,-79.1 480.97,-86.84 487.38,-89.66"/>
</a>
</g>
</g>
<!-- Node17 -->
<g id="Node000017" class="node">
<title>Node17</title>
<g id="a_Node000017"><a xlink:href="Complex_8hpp.html" target="_top" xlink:title=" ">
<polygon fill="white" stroke="#666666" points="397.39,-134.25 288.39,-134.25 288.39,-113.5 397.39,-113.5 397.39,-134.25"/>
<text text-anchor="middle" x="342.89" y="-120.75" font-family="Helvetica,sans-Serif" font-size="10.00">math/Complex.hpp</text>
</a>
</g>
</g>
<!-- Node3&#45;&gt;Node17 -->
<g id="edge17_Node000003_Node000017" class="edge">
<title>Node3&#45;&gt;Node17</title>
<g id="a_edge17_Node000003_Node000017"><a xlink:title=" ">
<path fill="none" stroke="#63b8ff" d="M417.62,-169.84C404.03,-161.66 384.41,-149.86 368.68,-140.4"/>
<polygon fill="#63b8ff" stroke="#63b8ff" points="370.68,-137.52 360.31,-135.36 367.08,-143.51 370.68,-137.52"/>
</a>
</g>
</g>
<!-- Node19 -->
<g id="Node000019" class="node">
<title>Node19</title>
<g id="a_Node000019"><a xlink:title=" ">
<polygon fill="#e0e0e0" stroke="#999999" points="452.76,-134.25 415.01,-134.25 415.01,-113.5 452.76,-113.5 452.76,-134.25"/>
<text text-anchor="middle" x="433.89" y="-120.75" font-family="Helvetica,sans-Serif" font-size="10.00">map</text>
</a>
</g>
</g>
<!-- Node3&#45;&gt;Node19 -->
<g id="edge21_Node000003_Node000019" class="edge">
<title>Node3&#45;&gt;Node19</title>
<g id="a_edge21_Node000003_Node000019"><a xlink:title=" ">
<path fill="none" stroke="#63b8ff" d="M433.89,-169.84C433.89,-163.22 433.89,-154.22 433.89,-146.02"/>
<polygon fill="#63b8ff" stroke="#63b8ff" points="437.39,-146.09 433.89,-136.09 430.39,-146.09 437.39,-146.09"/>
</a>
</g>
</g>
<!-- Node3&#45;&gt;Node20 -->
<g id="edge22_Node000003_Node000020" class="edge">
<title>Node3&#45;&gt;Node20</title>
<g id="a_edge22_Node000003_Node000020"><a xlink:title=" ">
<path fill="none" stroke="#63b8ff" d="M451.41,-169.84C466.18,-161.58 487.57,-149.63 504.59,-140.13"/>
<polygon fill="#63b8ff" stroke="#63b8ff" points="506.17,-143.25 513.2,-135.32 502.76,-137.14 506.17,-143.25"/>
</a>
</g>
</g>
<!-- Node3&#45;&gt;Node21 -->
<g id="edge23_Node000003_Node000021" class="edge">
<title>Node3&#45;&gt;Node21</title>
<g id="a_edge23_Node000003_Node000021"><a xlink:title=" ">
<path fill="none" stroke="#63b8ff" d="M464.11,-170.58C493.84,-161.69 539.55,-148.01 573.23,-137.94"/>
<polygon fill="#63b8ff" stroke="#63b8ff" points="574.12,-141.32 582.7,-135.1 572.12,-134.62 574.12,-141.32"/>
</a>
</g>
</g>
<!-- Node24 -->
<g id="Node000024" class="node">
<title>Node24</title>
<g id="a_Node000024"><a xlink:href="Exception_8hpp.html" target="_top" xlink:title=" ">
<polygon fill="white" stroke="#666666" points="179.76,-134.25 76.01,-134.25 76.01,-113.5 179.76,-113.5 179.76,-134.25"/>
<text text-anchor="middle" x="127.89" y="-120.75" font-family="Helvetica,sans-Serif" font-size="10.00">util/Exception.hpp</text>
</a>
</g>
</g>
<!-- Node3&#45;&gt;Node24 -->
<g id="edge26_Node000003_Node000024" class="edge">
<title>Node3&#45;&gt;Node24</title>
<g id="a_edge26_Node000003_Node000024"><a xlink:title=" ">
<path fill="none" stroke="#63b8ff" d="M403.43,-174.18C354.23,-165.37 256.24,-147.84 191.37,-136.23"/>
<polygon fill="#63b8ff" stroke="#63b8ff" points="192.01,-132.79 181.55,-134.48 190.78,-139.68 192.01,-132.79"/>
</a>
</g>
</g>
<!-- Node5 -->
<g id="Node000005" class="node">
<title>Node5</title>
<g id="a_Node000005"><a xlink:href="Time_8hpp.html" target="_top" xlink:title=" ">
<polygon fill="white" stroke="#666666" points="354.14,-77.5 273.64,-77.5 273.64,-56.75 354.14,-56.75 354.14,-77.5"/>
<text text-anchor="middle" x="313.89" y="-64" font-family="Helvetica,sans-Serif" font-size="10.00">util/Time.hpp</text>
</a>
</g>
</g>
<!-- Node4&#45;&gt;Node5 -->
<g id="edge4_Node000004_Node000005" class="edge">
<title>Node4&#45;&gt;Node5</title>
<g id="a_edge4_Node000004_Node000005"><a xlink:title=" ">
<path fill="none" stroke="#63b8ff" d="M248.19,-113.09C259.91,-105.07 276.73,-93.56 290.41,-84.19"/>
<polygon fill="#63b8ff" stroke="#63b8ff" points="292.18,-87.22 298.46,-78.68 288.23,-81.44 292.18,-87.22"/>
</a>
</g>
</g>
<!-- Node4&#45;&gt;Node12 -->
<g id="edge11_Node000004_Node000012" class="edge">
<title>Node4&#45;&gt;Node12</title>
<g id="a_edge11_Node000004_Node000012"><a xlink:title=" ">
<path fill="none" stroke="#63b8ff" d="M198.13,-113.09C160.92,-102.9 103.14,-87.08 66.96,-77.18"/>
<polygon fill="#63b8ff" stroke="#63b8ff" points="68.05,-73.85 57.48,-74.58 66.2,-80.6 68.05,-73.85"/>
</a>
</g>
</g>
<!-- Node13 -->
<g id="Node000013" class="node">
<title>Node13</title>
<g id="a_Node000013"><a xlink:title=" ">
<polygon fill="#e0e0e0" stroke="#999999" points="171.64,-77.5 112.14,-77.5 112.14,-56.75 171.64,-56.75 171.64,-77.5"/>
<text text-anchor="middle" x="141.89" y="-64" font-family="Helvetica,sans-Serif" font-size="10.00">iostream</text>
</a>
</g>
</g>
<!-- Node4&#45;&gt;Node13 -->
<g id="edge12_Node000004_Node000013" class="edge">
<title>Node4&#45;&gt;Node13</title>
<g id="a_edge12_Node000004_Node000013"><a xlink:title=" ">
<path fill="none" stroke="#63b8ff" d="M217.44,-113.09C203.7,-104.91 183.87,-93.11 167.97,-83.65"/>
<polygon fill="#63b8ff" stroke="#63b8ff" points="169.88,-80.71 159.49,-78.6 166.3,-86.72 169.88,-80.71"/>
</a>
</g>
</g>
<!-- Node14 -->
<g id="Node000014" class="node">
<title>Node14</title>
<g id="a_Node000014"><a xlink:title=" ">
<polygon fill="#e0e0e0" stroke="#999999" points="256.01,-77.5 189.76,-77.5 189.76,-56.75 256.01,-56.75 256.01,-77.5"/>
<text text-anchor="middle" x="222.89" y="-64" font-family="Helvetica,sans-Serif" font-size="10.00">streambuf</text>
</a>
</g>
</g>
<!-- Node4&#45;&gt;Node14 -->
<g id="edge13_Node000004_Node000014" class="edge">
<title>Node4&#45;&gt;Node14</title>
<g id="a_edge13_Node000004_Node000014"><a xlink:title=" ">
<path fill="none" stroke="#63b8ff" d="M231.92,-113.09C230.57,-106.39 228.74,-97.26 227.08,-88.98"/>
<polygon fill="#63b8ff" stroke="#63b8ff" points="230.54,-88.43 225.13,-79.31 223.67,-89.81 230.54,-88.43"/>
</a>
</g>
</g>
<!-- Node4&#45;&gt;Node15 -->
<g id="edge14_Node000004_Node000015" class="edge">
<title>Node4&#45;&gt;Node15</title>
<g id="a_edge14_Node000004_Node000015"><a xlink:title=" ">
<path fill="none" stroke="#63b8ff" d="M270.66,-114.87C273.44,-114.37 276.2,-113.91 278.89,-113.5 440.01,-89.02 485.94,-105.82 649.52,-77.66"/>
<polygon fill="#63b8ff" stroke="#63b8ff" points="649.73,-81.18 658.98,-76.01 648.52,-74.29 649.73,-81.18"/>
</a>
</g>
</g>
<!-- Node6 -->
<g id="Node000006" class="node">
<title>Node6</title>
<g id="a_Node000006"><a xlink:title=" ">
<polygon fill="#e0e0e0" stroke="#999999" points="267.76,-20.75 224.01,-20.75 224.01,0 267.76,0 267.76,-20.75"/>
<text text-anchor="middle" x="245.89" y="-7.25" font-family="Helvetica,sans-Serif" font-size="10.00">ctime</text>
</a>
</g>
</g>
<!-- Node5&#45;&gt;Node6 -->
<g id="edge5_Node000005_Node000006" class="edge">
<title>Node5&#45;&gt;Node6</title>
<g id="a_edge5_Node000005_Node000006"><a xlink:title=" ">
<path fill="none" stroke="#63b8ff" d="M301.73,-56.34C292.06,-48.55 278.3,-37.47 266.86,-28.26"/>
<polygon fill="#63b8ff" stroke="#63b8ff" points="269.1,-25.57 259.12,-22.03 264.71,-31.03 269.1,-25.57"/>
</a>
</g>
</g>
<!-- Node5&#45;&gt;Node7 -->
<g id="edge6_Node000005_Node000007" class="edge">
<title>Node5&#45;&gt;Node7</title>
<g id="a_edge6_Node000005_Node000007"><a xlink:title=" ">
<path fill="none" stroke="#63b8ff" d="M353.65,-56.27C395.05,-46.02 459.3,-30.1 499.14,-20.23"/>
<polygon fill="#63b8ff" stroke="#63b8ff" points="499.84,-23.66 508.71,-17.86 498.16,-16.87 499.84,-23.66"/>
</a>
</g>
</g>
<!-- Node8 -->
<g id="Node000008" class="node">
<title>Node8</title>
<g id="a_Node000008"><a xlink:title=" ">
<polygon fill="#e0e0e0" stroke="#999999" points="485.14,-20.75 428.64,-20.75 428.64,0 485.14,0 485.14,-20.75"/>
<text text-anchor="middle" x="456.89" y="-7.25" font-family="Helvetica,sans-Serif" font-size="10.00">ostream</text>
</a>
</g>
</g>
<!-- Node5&#45;&gt;Node8 -->
<g id="edge7_Node000005_Node000008" class="edge">
<title>Node5&#45;&gt;Node8</title>
<g id="a_edge7_Node000005_Node000008"><a xlink:title=" ">
<path fill="none" stroke="#63b8ff" d="M339.45,-56.34C362.13,-47.66 395.49,-34.88 420.86,-25.17"/>
<polygon fill="#63b8ff" stroke="#63b8ff" points="422.04,-28.46 430.13,-21.62 419.54,-21.93 422.04,-28.46"/>
</a>
</g>
</g>
<!-- Node9 -->
<g id="Node000009" class="node">
<title>Node9</title>
<g id="a_Node000009"><a xlink:title=" ">
<polygon fill="#e0e0e0" stroke="#999999" points="341.76,-20.75 286.01,-20.75 286.01,0 341.76,0 341.76,-20.75"/>
<text text-anchor="middle" x="313.89" y="-7.25" font-family="Helvetica,sans-Serif" font-size="10.00">iomanip</text>
</a>
</g>
</g>
<!-- Node5&#45;&gt;Node9 -->
<g id="edge8_Node000005_Node000009" class="edge">
<title>Node5&#45;&gt;Node9</title>
<g id="a_edge8_Node000005_Node000009"><a xlink:title=" ">
<path fill="none" stroke="#63b8ff" d="M313.89,-56.34C313.89,-49.72 313.89,-40.72 313.89,-32.52"/>
<polygon fill="#63b8ff" stroke="#63b8ff" points="317.39,-32.59 313.89,-22.59 310.39,-32.59 317.39,-32.59"/>
</a>
</g>
</g>
<!-- Node5&#45;&gt;Node10 -->
<g id="edge9_Node000005_Node000010" class="edge">
<title>Node5&#45;&gt;Node10</title>
<g id="a_edge9_Node000005_Node000010"><a xlink:title=" ">
<path fill="none" stroke="#63b8ff" d="M273.3,-56.46C230.98,-46.39 165.1,-30.71 123.25,-20.74"/>
<polygon fill="#63b8ff" stroke="#63b8ff" points="124.13,-17.36 113.59,-18.45 122.51,-24.17 124.13,-17.36"/>
</a>
</g>
</g>
<!-- Node11 -->
<g id="Node000011" class="node">
<title>Node11</title>
<g id="a_Node000011"><a xlink:title=" ">
<polygon fill="#e0e0e0" stroke="#999999" points="406.26,-20.75 359.51,-20.75 359.51,0 406.26,0 406.26,-20.75"/>
<text text-anchor="middle" x="382.89" y="-7.25" font-family="Helvetica,sans-Serif" font-size="10.00">cmath</text>
</a>
</g>
</g>
<!-- Node5&#45;&gt;Node11 -->
<g id="edge10_Node000005_Node000011" class="edge">
<title>Node5&#45;&gt;Node11</title>
<g id="a_edge10_Node000005_Node000011"><a xlink:title=" ">
<path fill="none" stroke="#63b8ff" d="M326.22,-56.34C336.13,-48.47 350.27,-37.25 361.95,-27.99"/>
<polygon fill="#63b8ff" stroke="#63b8ff" points="363.81,-30.98 369.47,-22.02 359.46,-25.49 363.81,-30.98"/>
</a>
</g>
</g>
<!-- Node16&#45;&gt;Node8 -->
<g id="edge16_Node000016_Node000008" class="edge">
<title>Node16&#45;&gt;Node8</title>
<g id="a_edge16_Node000016_Node000008"><a xlink:title=" ">
<path fill="none" stroke="#63b8ff" d="M486.45,-56.34C481.74,-49.17 475.2,-39.23 469.47,-30.51"/>
<polygon fill="#63b8ff" stroke="#63b8ff" points="472.52,-28.78 464.1,-22.34 466.67,-32.62 472.52,-28.78"/>
</a>
</g>
</g>
<!-- Node17&#45;&gt;Node16 -->
<g id="edge18_Node000017_Node000016" class="edge">
<title>Node17&#45;&gt;Node16</title>
<g id="a_edge18_Node000017_Node000016"><a xlink:title=" ">
<path fill="none" stroke="#63b8ff" d="M369.7,-113.09C393.63,-104.36 428.89,-91.48 455.57,-81.75"/>
<polygon fill="#63b8ff" stroke="#63b8ff" points="456.43,-85.16 464.63,-78.44 454.03,-78.58 456.43,-85.16"/>
</a>
</g>
</g>
<!-- Node18 -->
<g id="Node000018" class="node">
<title>Node18</title>
<g id="a_Node000018"><a xlink:title=" ">
<polygon fill="#e0e0e0" stroke="#999999" points="429.89,-77.5 371.89,-77.5 371.89,-56.75 429.89,-56.75 429.89,-77.5"/>
<text text-anchor="middle" x="400.89" y="-64" font-family="Helvetica,sans-Serif" font-size="10.00">complex</text>
</a>
</g>
</g>
<!-- Node17&#45;&gt;Node18 -->
<g id="edge19_Node000017_Node000018" class="edge">
<title>Node17&#45;&gt;Node18</title>
<g id="a_edge19_Node000017_Node000018"><a xlink:title=" ">
<path fill="none" stroke="#63b8ff" d="M353.26,-113.09C361.34,-105.46 372.77,-94.67 382.41,-85.57"/>
<polygon fill="#63b8ff" stroke="#63b8ff" points="384.64,-88.28 389.51,-78.87 379.83,-83.19 384.64,-88.28"/>
</a>
</g>
</g>
<!-- Node22 -->
<g id="Node000022" class="node">
<title>Node22</title>
<g id="a_Node000022"><a xlink:href="CTF_8hpp.html" target="_top" xlink:title=" ">
<polygon fill="white" stroke="#666666" points="642.39,-77.5 569.39,-77.5 569.39,-56.75 642.39,-56.75 642.39,-77.5"/>
<text text-anchor="middle" x="605.89" y="-64" font-family="Helvetica,sans-Serif" font-size="10.00">util/CTF.hpp</text>
</a>
</g>
</g>
<!-- Node21&#45;&gt;Node22 -->
<g id="edge24_Node000021_Node000022" class="edge">
<title>Node21&#45;&gt;Node22</title>
<g id="a_edge24_Node000021_Node000022"><a xlink:title=" ">
<path fill="none" stroke="#63b8ff" d="M614.92,-113.09C613.57,-106.39 611.74,-97.26 610.08,-88.98"/>
<polygon fill="#63b8ff" stroke="#63b8ff" points="613.54,-88.43 608.13,-79.31 606.67,-89.81 613.54,-88.43"/>
</a>
</g>
</g>
<!-- Node23 -->
<g id="Node000023" class="node">
<title>Node23</title>
<g id="a_Node000023"><a xlink:title=" ">
<polygon fill="#e0e0e0" stroke="#999999" points="630.39,-20.75 581.39,-20.75 581.39,0 630.39,0 630.39,-20.75"/>
<text text-anchor="middle" x="605.89" y="-7.25" font-family="Helvetica,sans-Serif" font-size="10.00">ctf.hpp</text>
</a>
</g>
</g>
<!-- Node22&#45;&gt;Node23 -->
<g id="edge25_Node000022_Node000023" class="edge">
<title>Node22&#45;&gt;Node23</title>
<g id="a_edge25_Node000022_Node000023"><a xlink:title=" ">
<path fill="none" stroke="#63b8ff" d="M605.89,-56.34C605.89,-49.72 605.89,-40.72 605.89,-32.52"/>
<polygon fill="#63b8ff" stroke="#63b8ff" points="609.39,-32.59 605.89,-22.59 602.39,-32.59 609.39,-32.59"/>
</a>
</g>
</g>
<!-- Node24&#45;&gt;Node10 -->
<g id="edge28_Node000024_Node000010" class="edge">
<title>Node24&#45;&gt;Node10</title>
<g id="a_edge28_Node000024_Node000010"><a xlink:title=" ">
<path fill="none" stroke="#63b8ff" d="M121.66,-113.1C116.15,-104.12 108.17,-90.3 102.89,-77.5 96.8,-62.78 91.9,-45.45 88.6,-32.22"/>
<polygon fill="#63b8ff" stroke="#63b8ff" points="92.01,-31.41 86.29,-22.49 85.2,-33.03 92.01,-31.41"/>
</a>
</g>
</g>
<!-- Node24&#45;&gt;Node12 -->
<g id="edge27_Node000024_Node000012" class="edge">
<title>Node24&#45;&gt;Node12</title>
<g id="a_edge27_Node000024_Node000012"><a xlink:title=" ">
<path fill="none" stroke="#63b8ff" d="M111.08,-113.09C96.91,-104.83 76.39,-92.88 60.07,-83.38"/>
<polygon fill="#63b8ff" stroke="#63b8ff" points="62.26,-80.6 51.85,-78.59 58.73,-86.65 62.26,-80.6"/>
</a>
</g>
</g>
<!-- Node24&#45;&gt;Node13 -->
<g id="edge29_Node000024_Node000013" class="edge">
<title>Node24&#45;&gt;Node13</title>
<g id="a_edge29_Node000024_Node000013"><a xlink:title=" ">
<path fill="none" stroke="#63b8ff" d="M130.39,-113.09C132.1,-106.39 134.44,-97.26 136.55,-88.98"/>
<polygon fill="#63b8ff" stroke="#63b8ff" points="139.94,-89.85 139.03,-79.29 133.16,-88.12 139.94,-89.85"/>
</a>
</g>
</g>
</g>
</svg>
