<?xml version="1.0" encoding="UTF-8" standalone="no"?>
<!DOCTYPE svg PUBLIC "-//W3C//DTD SVG 1.1//EN"
 "http://www.w3.org/Graphics/SVG/1.1/DTD/svg11.dtd">
<!-- Generated by graphviz version 5.0.1 (0)
 -->
<!-- Title: computeAndExport Pages: 1 -->
<svg width="587pt" height="149pt"
 viewBox="0.00 0.00 587.00 148.50" xmlns="http://www.w3.org/2000/svg" xmlns:xlink="http://www.w3.org/1999/xlink">
<g id="graph0" class="graph" transform="scale(1 1) rotate(0) translate(4 144.5)">
<title>computeAndExport</title>
<!-- Node1 -->
<g id="node1" class="node">
<title>Node1</title>
<g id="a_node1"><a xlink:title=" ">
<polygon fill="#bfbfbf" stroke="black" points="0,-44.5 0,-63.5 110,-63.5 110,-44.5 0,-44.5"/>
<text text-anchor="middle" x="55" y="-51.5" font-family="Helvetica,sans-Serif" font-size="10.00">computeAndExport</text>
</a>
</g>
</g>
<!-- Node2 -->
<g id="node2" class="node">
<title>Node2</title>
<g id="a_node2"><a xlink:href="classsisi4s_1_1Algorithm.html#a388052a12509b8b641f17bbe8d41f8f3" target="_top" xlink:title="Specifies the location of an output tensor data.">
<polygon fill="none" stroke="black" points="146,-88 146,-118 287,-118 287,-88 146,-88"/>
<text text-anchor="start" x="154" y="-106" font-family="Helvetica,sans-Serif" font-size="10.00">sisi4s::Algorithm::</text>
<text text-anchor="middle" x="216.5" y="-95" font-family="Helvetica,sans-Serif" font-size="10.00">allocatedTensorArgument</text>
</a>
</g>
</g>
<!-- Node1&#45;&gt;Node2 -->
<g id="edge1" class="edge">
<title>Node1&#45;&gt;Node2</title>
<path fill="none" stroke="midnightblue" d="M87.13,-63.56C106.97,-69.66 133.3,-77.75 156.95,-85.01"/>
<polygon fill="midnightblue" stroke="midnightblue" points="155.97,-88.37 166.55,-87.96 158.02,-81.68 155.97,-88.37"/>
</g>
<!-- Node6 -->
<g id="node6" class="node">
<title>Node6</title>
<g id="a_node6"><a xlink:href="classsisi4s_1_1Algorithm.html#aec9041b31cb64a42ee1fd79d32774266" target="_top" xlink:title=" ">
<polygon fill="none" stroke="black" points="164.5,-39 164.5,-69 268.5,-69 268.5,-39 164.5,-39"/>
<text text-anchor="start" x="172.5" y="-57" font-family="Helvetica,sans-Serif" font-size="10.00">sisi4s::Algorithm::</text>
<text text-anchor="middle" x="216.5" y="-46" font-family="Helvetica,sans-Serif" font-size="10.00">isArgumentGiven</text>
</a>
</g>
</g>
<!-- Node1&#45;&gt;Node6 -->
<g id="edge5" class="edge">
<title>Node1&#45;&gt;Node6</title>
<path fill="none" stroke="midnightblue" d="M110.44,-54C124.46,-54 139.64,-54 153.99,-54"/>
<polygon fill="midnightblue" stroke="midnightblue" points="154.26,-57.5 164.26,-54 154.26,-50.5 154.26,-57.5"/>
</g>
<!-- Node7 -->
<g id="node7" class="node">
<title>Node7</title>
<g id="a_node7"><a xlink:href="CoulombIntegralsFromRotatedCoulombIntegrals_8cxx.html#ab1909dd58075ee188ac6b52b69bda1c3" target="_top" xlink:title=" ">
<polygon fill="none" stroke="black" points="164.5,-0.5 164.5,-19.5 268.5,-19.5 268.5,-0.5 164.5,-0.5"/>
<text text-anchor="middle" x="216.5" y="-7.5" font-family="Helvetica,sans-Serif" font-size="10.00">stdVectorToTensor</text>
</a>
</g>
</g>
<!-- Node1&#45;&gt;Node7 -->
<g id="edge6" class="edge">
<title>Node1&#45;&gt;Node7</title>
<path fill="none" stroke="midnightblue" d="M90.18,-44.47C106.99,-39.79 127.55,-34.08 146,-29 153.97,-26.8 162.46,-24.47 170.67,-22.23"/>
<polygon fill="midnightblue" stroke="midnightblue" points="171.77,-25.55 180.49,-19.54 169.92,-18.8 171.77,-25.55"/>
</g>
<!-- Node3 -->
<g id="node3" class="node">
<title>Node3</title>
<g id="a_node3"><a xlink:href="classsisi4s_1_1Algorithm.html#a1e53277220d32a33e20846267c253652" target="_top" xlink:title=" ">
<polygon fill="none" stroke="black" points="333.5,-110 333.5,-140 437.5,-140 437.5,-110 333.5,-110"/>
<text text-anchor="start" x="341.5" y="-128" font-family="Helvetica,sans-Serif" font-size="10.00">sisi4s::Algorithm::</text>
<text text-anchor="middle" x="385.5" y="-117" font-family="Helvetica,sans-Serif" font-size="10.00">getArgumentData</text>
</a>
</g>
</g>
<!-- Node2&#45;&gt;Node3 -->
<g id="edge2" class="edge">
<title>Node2&#45;&gt;Node3</title>
<path fill="none" stroke="midnightblue" d="M287.36,-112.2C299.31,-113.78 311.66,-115.4 323.37,-116.95"/>
<polygon fill="midnightblue" stroke="midnightblue" points="323.1,-120.44 333.47,-118.28 324.01,-113.5 323.1,-120.44"/>
</g>
<!-- Node5 -->
<g id="node5" class="node">
<title>Node5</title>
<g id="a_node5"><a xlink:href="classsisi4s_1_1Data.html#a10819dce08cb4dd8d881b9fe02036d69" target="_top" xlink:title=" ">
<polygon fill="none" stroke="black" points="323,-71.5 323,-90.5 448,-90.5 448,-71.5 323,-71.5"/>
<text text-anchor="middle" x="385.5" y="-78.5" font-family="Helvetica,sans-Serif" font-size="10.00">sisi4s::Data::getName</text>
</a>
</g>
</g>
<!-- Node2&#45;&gt;Node5 -->
<g id="edge4" class="edge">
<title>Node2&#45;&gt;Node5</title>
<path fill="none" stroke="midnightblue" d="M287.36,-93.8C295.74,-92.69 304.32,-91.56 312.73,-90.45"/>
<polygon fill="midnightblue" stroke="midnightblue" points="313.44,-93.89 322.89,-89.12 312.52,-86.95 313.44,-93.89"/>
</g>
<!-- Node4 -->
<g id="node4" class="node">
<title>Node4</title>
<g id="a_node4"><a xlink:href="classsisi4s_1_1Data.html#a5b4676e48b4f437d399587e6903f896a" target="_top" xlink:title=" ">
<polygon fill="none" stroke="black" points="484,-115.5 484,-134.5 579,-134.5 579,-115.5 484,-115.5"/>
<text text-anchor="middle" x="531.5" y="-122.5" font-family="Helvetica,sans-Serif" font-size="10.00">sisi4s::Data::get</text>
</a>
</g>
</g>
<!-- Node3&#45;&gt;Node4 -->
<g id="edge3" class="edge">
<title>Node3&#45;&gt;Node4</title>
<path fill="none" stroke="midnightblue" d="M437.67,-125C449.3,-125 461.73,-125 473.58,-125"/>
<polygon fill="midnightblue" stroke="midnightblue" points="473.81,-128.5 483.81,-125 473.81,-121.5 473.81,-128.5"/>
</g>
</g>
</svg>
