<?xml version="1.0" encoding="UTF-8" standalone="no"?>
<!DOCTYPE svg PUBLIC "-//W3C//DTD SVG 1.1//EN"
 "http://www.w3.org/Graphics/SVG/1.1/DTD/svg11.dtd">
<!-- Generated by graphviz version 8.1.0 (0)
 -->
<!-- Title: CoulombVertexReader.hpp Pages: 1 -->
<svg width="788pt" height="313pt"
 viewBox="0.00 0.00 787.76 312.50" xmlns="http://www.w3.org/2000/svg" xmlns:xlink="http://www.w3.org/1999/xlink">
<g id="graph0" class="graph" transform="scale(1 1) rotate(0) translate(4 308.5)">
<title>CoulombVertexReader.hpp</title>
<!-- Node1 -->
<g id="Node000001" class="node">
<title>Node1</title>
<g id="a_Node000001"><a xlink:title=" ">
<polygon fill="#999999" stroke="#666666" points="779.76,-304.5 634.01,-304.5 634.01,-283.75 779.76,-283.75 779.76,-304.5"/>
<text text-anchor="middle" x="706.89" y="-291" font-family="Helvetica,sans-Serif" font-size="10.00">CoulombVertexReader.hpp</text>
</a>
</g>
</g>
<!-- Node2 -->
<g id="Node000002" class="node">
<title>Node2</title>
<g id="a_Node000002"><a xlink:href="Algorithm_8hpp.html" target="_top" xlink:title=" ">
<polygon fill="white" stroke="#666666" points="533.14,-247.75 392.64,-247.75 392.64,-227 533.14,-227 533.14,-247.75"/>
<text text-anchor="middle" x="462.89" y="-234.25" font-family="Helvetica,sans-Serif" font-size="10.00">algorithms/Algorithm.hpp</text>
</a>
</g>
</g>
<!-- Node1&#45;&gt;Node2 -->
<g id="edge1_Node000001_Node000002" class="edge">
<title>Node1&#45;&gt;Node2</title>
<g id="a_edge1_Node000001_Node000002"><a xlink:title=" ">
<path fill="none" stroke="#63b8ff" d="M662.98,-283.27C622.17,-274.12 561.23,-260.44 517.34,-250.59"/>
<polygon fill="#63b8ff" stroke="#63b8ff" points="518.37,-247.01 507.85,-248.24 516.84,-253.84 518.37,-247.01"/>
</a>
</g>
</g>
<!-- Node7 -->
<g id="Node000007" class="node">
<title>Node7</title>
<g id="a_Node000007"><a xlink:title=" ">
<polygon fill="#e0e0e0" stroke="#999999" points="559.39,-20.75 510.39,-20.75 510.39,0 559.39,0 559.39,-20.75"/>
<text text-anchor="middle" x="534.89" y="-7.25" font-family="Helvetica,sans-Serif" font-size="10.00">cstdint</text>
</a>
</g>
</g>
<!-- Node1&#45;&gt;Node7 -->
<g id="edge35_Node000001_Node000007" class="edge">
<title>Node1&#45;&gt;Node7</title>
<g id="a_edge35_Node000001_Node000007"><a xlink:title=" ">
<path fill="none" stroke="#63b8ff" d="M715.79,-283.53C731.82,-265.21 763.89,-223.37 763.89,-181.62 763.89,-181.62 763.89,-181.62 763.89,-122.88 763.89,-88.53 751.63,-77 723.89,-56.75 668.16,-16.08 639.93,-37.01 572.89,-20.75 572.09,-20.56 571.29,-20.36 570.48,-20.17"/>
<polygon fill="#63b8ff" stroke="#63b8ff" points="571.36,-16.53 560.82,-17.56 569.7,-23.33 571.36,-16.53"/>
</a>
</g>
</g>
<!-- Node15 -->
<g id="Node000015" class="node">
<title>Node15</title>
<g id="a_Node000015"><a xlink:title=" ">
<polygon fill="#e0e0e0" stroke="#999999" points="715.01,-77.5 660.76,-77.5 660.76,-56.75 715.01,-56.75 715.01,-77.5"/>
<text text-anchor="middle" x="687.89" y="-64" font-family="Helvetica,sans-Serif" font-size="10.00">fstream</text>
</a>
</g>
</g>
<!-- Node1&#45;&gt;Node15 -->
<g id="edge36_Node000001_Node000015" class="edge">
<title>Node1&#45;&gt;Node15</title>
<g id="a_edge36_Node000001_Node000015"><a xlink:title=" ">
<path fill="none" stroke="#63b8ff" d="M706.07,-283.46C703.21,-249.56 693.59,-135.62 689.62,-88.64"/>
<polygon fill="#63b8ff" stroke="#63b8ff" points="693.03,-88.43 688.7,-78.76 686.05,-89.02 693.03,-88.43"/>
</a>
</g>
</g>
<!-- Node21 -->
<g id="Node000021" class="node">
<title>Node21</title>
<g id="a_Node000021"><a xlink:href="Tensor_8hpp.html" target="_top" xlink:title=" ">
<polygon fill="white" stroke="#666666" points="660.14,-134.25 573.64,-134.25 573.64,-113.5 660.14,-113.5 660.14,-134.25"/>
<text text-anchor="middle" x="616.89" y="-120.75" font-family="Helvetica,sans-Serif" font-size="10.00">util/Tensor.hpp</text>
</a>
</g>
</g>
<!-- Node1&#45;&gt;Node21 -->
<g id="edge34_Node000001_Node000021" class="edge">
<title>Node1&#45;&gt;Node21</title>
<g id="a_edge34_Node000001_Node000021"><a xlink:title=" ">
<path fill="none" stroke="#63b8ff" d="M701.79,-283.6C687.44,-256.77 646.49,-180.21 627.19,-144.13"/>
<polygon fill="#63b8ff" stroke="#63b8ff" points="629.95,-142.88 622.15,-135.72 623.78,-146.19 629.95,-142.88"/>
</a>
</g>
</g>
<!-- Node3 -->
<g id="Node000003" class="node">
<title>Node3</title>
<g id="a_Node000003"><a xlink:href="Data_8hpp.html" target="_top" xlink:title=" ">
<polygon fill="white" stroke="#666666" points="464.01,-191 403.76,-191 403.76,-170.25 464.01,-170.25 464.01,-191"/>
<text text-anchor="middle" x="433.89" y="-177.5" font-family="Helvetica,sans-Serif" font-size="10.00">Data.hpp</text>
</a>
</g>
</g>
<!-- Node2&#45;&gt;Node3 -->
<g id="edge2_Node000002_Node000003" class="edge">
<title>Node2&#45;&gt;Node3</title>
<g id="a_edge2_Node000002_Node000003"><a xlink:title=" ">
<path fill="none" stroke="#63b8ff" d="M457.7,-226.59C453.95,-219.5 448.75,-209.69 444.17,-201.04"/>
<polygon fill="#63b8ff" stroke="#63b8ff" points="446.8,-199.53 439.03,-192.33 440.61,-202.8 446.8,-199.53"/>
</a>
</g>
</g>
<!-- Node10 -->
<g id="Node000010" class="node">
<title>Node10</title>
<g id="a_Node000010"><a xlink:title=" ">
<polygon fill="#e0e0e0" stroke="#999999" points="111.76,-20.75 56.01,-20.75 56.01,0 111.76,0 111.76,-20.75"/>
<text text-anchor="middle" x="83.89" y="-7.25" font-family="Helvetica,sans-Serif" font-size="10.00">sstream</text>
</a>
</g>
</g>
<!-- Node2&#45;&gt;Node10 -->
<g id="edge32_Node000002_Node000010" class="edge">
<title>Node2&#45;&gt;Node10</title>
<g id="a_edge32_Node000002_Node000010"><a xlink:title=" ">
<path fill="none" stroke="#63b8ff" d="M392.47,-231.37C305.07,-224.45 161.47,-210.56 111.89,-191 46.83,-165.33 19.72,-145.38 2.89,-77.5 0.67,-68.55 -1.78,-64.71 2.89,-56.75 12.27,-40.74 29.59,-29.96 45.81,-22.93"/>
<polygon fill="#63b8ff" stroke="#63b8ff" points="46.68,-25.96 54.69,-19.03 44.11,-19.45 46.68,-25.96"/>
</a>
</g>
</g>
<!-- Node12 -->
<g id="Node000012" class="node">
<title>Node12</title>
<g id="a_Node000012"><a xlink:title=" ">
<polygon fill="#e0e0e0" stroke="#999999" points="55.76,-77.5 12.01,-77.5 12.01,-56.75 55.76,-56.75 55.76,-77.5"/>
<text text-anchor="middle" x="33.89" y="-64" font-family="Helvetica,sans-Serif" font-size="10.00">string</text>
</a>
</g>
</g>
<!-- Node2&#45;&gt;Node12 -->
<g id="edge30_Node000002_Node000012" class="edge">
<title>Node2&#45;&gt;Node12</title>
<g id="a_edge30_Node000002_Node000012"><a xlink:title=" ">
<path fill="none" stroke="#63b8ff" d="M392.16,-228.21C286.26,-214.51 93.87,-183.47 46.89,-134.25 35.4,-122.22 32.66,-103.15 32.5,-88.58"/>
<polygon fill="#63b8ff" stroke="#63b8ff" points="36.03,-88.75 32.83,-78.65 29.03,-88.53 36.03,-88.75"/>
</a>
</g>
</g>
<!-- Node20 -->
<g id="Node000020" class="node">
<title>Node20</title>
<g id="a_Node000020"><a xlink:title=" ">
<polygon fill="#e0e0e0" stroke="#999999" points="555.26,-134.25 508.51,-134.25 508.51,-113.5 555.26,-113.5 555.26,-134.25"/>
<text text-anchor="middle" x="531.89" y="-120.75" font-family="Helvetica,sans-Serif" font-size="10.00">vector</text>
</a>
</g>
</g>
<!-- Node2&#45;&gt;Node20 -->
<g id="edge31_Node000002_Node000020" class="edge">
<title>Node2&#45;&gt;Node20</title>
<g id="a_edge31_Node000002_Node000020"><a xlink:title=" ">
<path fill="none" stroke="#63b8ff" d="M468.77,-226.87C480.12,-208.53 505.23,-167.95 520.13,-143.87"/>
<polygon fill="#63b8ff" stroke="#63b8ff" points="523.54,-146.02 525.82,-135.68 517.58,-142.34 523.54,-146.02"/>
</a>
</g>
</g>
<!-- Node2&#45;&gt;Node21 -->
<g id="edge33_Node000002_Node000021" class="edge">
<title>Node2&#45;&gt;Node21</title>
<g id="a_edge33_Node000002_Node000021"><a xlink:title=" ">
<path fill="none" stroke="#63b8ff" d="M476.28,-226.68C502.79,-207.48 562.17,-164.49 594.64,-140.98"/>
<polygon fill="#63b8ff" stroke="#63b8ff" points="596.36,-143.33 602.41,-134.63 592.26,-137.66 596.36,-143.33"/>
</a>
</g>
</g>
<!-- Node4 -->
<g id="Node000004" class="node">
<title>Node4</title>
<g id="a_Node000004"><a xlink:href="Log_8hpp.html" target="_top" xlink:title=" ">
<polygon fill="white" stroke="#666666" points="270.39,-134.25 197.39,-134.25 197.39,-113.5 270.39,-113.5 270.39,-134.25"/>
<text text-anchor="middle" x="233.89" y="-120.75" font-family="Helvetica,sans-Serif" font-size="10.00">util/Log.hpp</text>
</a>
</g>
</g>
<!-- Node3&#45;&gt;Node4 -->
<g id="edge3_Node000003_Node000004" class="edge">
<title>Node3&#45;&gt;Node4</title>
<g id="a_edge3_Node000003_Node000004"><a xlink:title=" ">
<path fill="none" stroke="#63b8ff" d="M403.51,-171.31C370.65,-162.31 317.87,-147.87 279.91,-137.47"/>
<polygon fill="#63b8ff" stroke="#63b8ff" points="281.2,-133.92 270.63,-134.66 279.35,-140.67 281.2,-133.92"/>
</a>
</g>
</g>
<!-- Node3&#45;&gt;Node12 -->
<g id="edge20_Node000003_Node000012" class="edge">
<title>Node3&#45;&gt;Node12</title>
<g id="a_edge20_Node000003_Node000012"><a xlink:title=" ">
<path fill="none" stroke="#63b8ff" d="M403.53,-179.48C325.62,-178.54 120.88,-172.43 66.89,-134.25 51.53,-123.39 42.94,-103.28 38.4,-88.07"/>
<polygon fill="#63b8ff" stroke="#63b8ff" points="41.59,-87.43 35.67,-78.64 34.81,-89.2 41.59,-87.43"/>
</a>
</g>
</g>
<!-- Node16 -->
<g id="Node000016" class="node">
<title>Node16</title>
<g id="a_Node000016"><a xlink:href="Float_8hpp.html" target="_top" xlink:title=" ">
<polygon fill="white" stroke="#666666" points="538.01,-77.5 447.76,-77.5 447.76,-56.75 538.01,-56.75 538.01,-77.5"/>
<text text-anchor="middle" x="492.89" y="-64" font-family="Helvetica,sans-Serif" font-size="10.00">math/Float.hpp</text>
</a>
</g>
</g>
<!-- Node3&#45;&gt;Node16 -->
<g id="edge15_Node000003_Node000016" class="edge">
<title>Node3&#45;&gt;Node16</title>
<g id="a_edge15_Node000003_Node000016"><a xlink:title=" ">
<path fill="none" stroke="#63b8ff" d="M440.22,-170.08C446.12,-161.02 455.02,-146.95 461.89,-134.25 470.18,-118.91 478.51,-100.98 484.44,-87.66"/>
<polygon fill="#63b8ff" stroke="#63b8ff" points="487.99,-89.27 488.81,-78.71 481.58,-86.46 487.99,-89.27"/>
</a>
</g>
</g>
<!-- Node17 -->
<g id="Node000017" class="node">
<title>Node17</title>
<g id="a_Node000017"><a xlink:href="Complex_8hpp.html" target="_top" xlink:title=" ">
<polygon fill="white" stroke="#666666" points="397.39,-134.25 288.39,-134.25 288.39,-113.5 397.39,-113.5 397.39,-134.25"/>
<text text-anchor="middle" x="342.89" y="-120.75" font-family="Helvetica,sans-Serif" font-size="10.00">math/Complex.hpp</text>
</a>
</g>
</g>
<!-- Node3&#45;&gt;Node17 -->
<g id="edge17_Node000003_Node000017" class="edge">
<title>Node3&#45;&gt;Node17</title>
<g id="a_edge17_Node000003_Node000017"><a xlink:title=" ">
<path fill="none" stroke="#63b8ff" d="M417.62,-169.84C403.9,-161.58 384.04,-149.63 368.24,-140.13"/>
<polygon fill="#63b8ff" stroke="#63b8ff" points="370.39,-136.73 360.01,-134.58 366.78,-142.73 370.39,-136.73"/>
</a>
</g>
</g>
<!-- Node19 -->
<g id="Node000019" class="node">
<title>Node19</title>
<g id="a_Node000019"><a xlink:title=" ">
<polygon fill="#e0e0e0" stroke="#999999" points="452.76,-134.25 415.01,-134.25 415.01,-113.5 452.76,-113.5 452.76,-134.25"/>
<text text-anchor="middle" x="433.89" y="-120.75" font-family="Helvetica,sans-Serif" font-size="10.00">map</text>
</a>
</g>
</g>
<!-- Node3&#45;&gt;Node19 -->
<g id="edge21_Node000003_Node000019" class="edge">
<title>Node3&#45;&gt;Node19</title>
<g id="a_edge21_Node000003_Node000019"><a xlink:title=" ">
<path fill="none" stroke="#63b8ff" d="M433.89,-169.84C433.89,-163.06 433.89,-153.8 433.89,-145.44"/>
<polygon fill="#63b8ff" stroke="#63b8ff" points="437.39,-145.58 433.89,-135.58 430.39,-145.58 437.39,-145.58"/>
</a>
</g>
</g>
<!-- Node3&#45;&gt;Node20 -->
<g id="edge22_Node000003_Node000020" class="edge">
<title>Node3&#45;&gt;Node20</title>
<g id="a_edge22_Node000003_Node000020"><a xlink:title=" ">
<path fill="none" stroke="#63b8ff" d="M451.41,-169.84C466.32,-161.51 487.97,-149.41 505.07,-139.86"/>
<polygon fill="#63b8ff" stroke="#63b8ff" points="506.49,-142.51 513.52,-134.58 503.08,-136.4 506.49,-142.51"/>
</a>
</g>
</g>
<!-- Node3&#45;&gt;Node21 -->
<g id="edge23_Node000003_Node000021" class="edge">
<title>Node3&#45;&gt;Node21</title>
<g id="a_edge23_Node000003_Node000021"><a xlink:title=" ">
<path fill="none" stroke="#63b8ff" d="M464.11,-170.58C493.97,-161.65 539.95,-147.89 573.67,-137.8"/>
<polygon fill="#63b8ff" stroke="#63b8ff" points="574.57,-140.89 583.15,-134.67 572.57,-134.18 574.57,-140.89"/>
</a>
</g>
</g>
<!-- Node24 -->
<g id="Node000024" class="node">
<title>Node24</title>
<g id="a_Node000024"><a xlink:href="Exception_8hpp.html" target="_top" xlink:title=" ">
<polygon fill="white" stroke="#666666" points="179.76,-134.25 76.01,-134.25 76.01,-113.5 179.76,-113.5 179.76,-134.25"/>
<text text-anchor="middle" x="127.89" y="-120.75" font-family="Helvetica,sans-Serif" font-size="10.00">util/Exception.hpp</text>
</a>
</g>
</g>
<!-- Node3&#45;&gt;Node24 -->
<g id="edge26_Node000003_Node000024" class="edge">
<title>Node3&#45;&gt;Node24</title>
<g id="a_edge26_Node000003_Node000024"><a xlink:title=" ">
<path fill="none" stroke="#63b8ff" d="M403.43,-174.18C354.02,-165.34 255.43,-147.69 190.57,-136.09"/>
<polygon fill="#63b8ff" stroke="#63b8ff" points="191.52,-132.53 181.06,-134.21 190.29,-139.42 191.52,-132.53"/>
</a>
</g>
</g>
<!-- Node5 -->
<g id="Node000005" class="node">
<title>Node5</title>
<g id="a_Node000005"><a xlink:href="Time_8hpp.html" target="_top" xlink:title=" ">
<polygon fill="white" stroke="#666666" points="354.14,-77.5 273.64,-77.5 273.64,-56.75 354.14,-56.75 354.14,-77.5"/>
<text text-anchor="middle" x="313.89" y="-64" font-family="Helvetica,sans-Serif" font-size="10.00">util/Time.hpp</text>
</a>
</g>
</g>
<!-- Node4&#45;&gt;Node5 -->
<g id="edge4_Node000004_Node000005" class="edge">
<title>Node4&#45;&gt;Node5</title>
<g id="a_edge4_Node000004_Node000005"><a xlink:title=" ">
<path fill="none" stroke="#63b8ff" d="M248.19,-113.09C260.02,-104.99 277.05,-93.33 290.81,-83.92"/>
<polygon fill="#63b8ff" stroke="#63b8ff" points="292.43,-86.36 298.71,-77.83 288.48,-80.59 292.43,-86.36"/>
</a>
</g>
</g>
<!-- Node4&#45;&gt;Node12 -->
<g id="edge11_Node000004_Node000012" class="edge">
<title>Node4&#45;&gt;Node12</title>
<g id="a_edge11_Node000004_Node000012"><a xlink:title=" ">
<path fill="none" stroke="#63b8ff" d="M198.13,-113.09C160.76,-102.86 102.63,-86.94 66.49,-77.05"/>
<polygon fill="#63b8ff" stroke="#63b8ff" points="67.59,-73.45 57.02,-74.18 65.74,-80.2 67.59,-73.45"/>
</a>
</g>
</g>
<!-- Node13 -->
<g id="Node000013" class="node">
<title>Node13</title>
<g id="a_Node000013"><a xlink:title=" ">
<polygon fill="#e0e0e0" stroke="#999999" points="171.64,-77.5 112.14,-77.5 112.14,-56.75 171.64,-56.75 171.64,-77.5"/>
<text text-anchor="middle" x="141.89" y="-64" font-family="Helvetica,sans-Serif" font-size="10.00">iostream</text>
</a>
</g>
</g>
<!-- Node4&#45;&gt;Node13 -->
<g id="edge12_Node000004_Node000013" class="edge">
<title>Node4&#45;&gt;Node13</title>
<g id="a_edge12_Node000004_Node000013"><a xlink:title=" ">
<path fill="none" stroke="#63b8ff" d="M217.44,-113.09C203.57,-104.83 183.49,-92.88 167.52,-83.38"/>
<polygon fill="#63b8ff" stroke="#63b8ff" points="169.58,-79.93 159.19,-77.83 166,-85.95 169.58,-79.93"/>
</a>
</g>
</g>
<!-- Node14 -->
<g id="Node000014" class="node">
<title>Node14</title>
<g id="a_Node000014"><a xlink:title=" ">
<polygon fill="#e0e0e0" stroke="#999999" points="256.01,-77.5 189.76,-77.5 189.76,-56.75 256.01,-56.75 256.01,-77.5"/>
<text text-anchor="middle" x="222.89" y="-64" font-family="Helvetica,sans-Serif" font-size="10.00">streambuf</text>
</a>
</g>
</g>
<!-- Node4&#45;&gt;Node14 -->
<g id="edge13_Node000004_Node000014" class="edge">
<title>Node4&#45;&gt;Node14</title>
<g id="a_edge13_Node000004_Node000014"><a xlink:title=" ">
<path fill="none" stroke="#63b8ff" d="M231.92,-113.09C230.54,-106.24 228.65,-96.84 226.96,-88.4"/>
<polygon fill="#63b8ff" stroke="#63b8ff" points="230.24,-87.94 224.84,-78.83 223.37,-89.32 230.24,-87.94"/>
</a>
</g>
</g>
<!-- Node4&#45;&gt;Node15 -->
<g id="edge14_Node000004_Node000015" class="edge">
<title>Node4&#45;&gt;Node15</title>
<g id="a_edge14_Node000004_Node000015"><a xlink:title=" ">
<path fill="none" stroke="#63b8ff" d="M270.66,-114.87C273.44,-114.37 276.2,-113.91 278.89,-113.5 440.17,-88.99 486.03,-105.85 650.01,-77.58"/>
<polygon fill="#63b8ff" stroke="#63b8ff" points="650.22,-80.92 659.47,-75.74 649.01,-74.03 650.22,-80.92"/>
</a>
</g>
</g>
<!-- Node6 -->
<g id="Node000006" class="node">
<title>Node6</title>
<g id="a_Node000006"><a xlink:title=" ">
<polygon fill="#e0e0e0" stroke="#999999" points="267.76,-20.75 224.01,-20.75 224.01,0 267.76,0 267.76,-20.75"/>
<text text-anchor="middle" x="245.89" y="-7.25" font-family="Helvetica,sans-Serif" font-size="10.00">ctime</text>
</a>
</g>
</g>
<!-- Node5&#45;&gt;Node6 -->
<g id="edge5_Node000005_Node000006" class="edge">
<title>Node5&#45;&gt;Node6</title>
<g id="a_edge5_Node000005_Node000006"><a xlink:title=" ">
<path fill="none" stroke="#63b8ff" d="M301.73,-56.34C291.87,-48.4 277.75,-37.03 266.18,-27.71"/>
<polygon fill="#63b8ff" stroke="#63b8ff" points="268.92,-24.62 258.94,-21.08 264.53,-30.08 268.92,-24.62"/>
</a>
</g>
</g>
<!-- Node5&#45;&gt;Node7 -->
<g id="edge6_Node000005_Node000007" class="edge">
<title>Node5&#45;&gt;Node7</title>
<g id="a_edge6_Node000005_Node000007"><a xlink:title=" ">
<path fill="none" stroke="#63b8ff" d="M353.65,-56.27C395.23,-45.97 459.85,-29.96 499.65,-20.1"/>
<polygon fill="#63b8ff" stroke="#63b8ff" points="500.31,-23.3 509.18,-17.5 498.63,-16.5 500.31,-23.3"/>
</a>
</g>
</g>
<!-- Node8 -->
<g id="Node000008" class="node">
<title>Node8</title>
<g id="a_Node000008"><a xlink:title=" ">
<polygon fill="#e0e0e0" stroke="#999999" points="485.14,-20.75 428.64,-20.75 428.64,0 485.14,0 485.14,-20.75"/>
<text text-anchor="middle" x="456.89" y="-7.25" font-family="Helvetica,sans-Serif" font-size="10.00">ostream</text>
</a>
</g>
</g>
<!-- Node5&#45;&gt;Node8 -->
<g id="edge7_Node000005_Node000008" class="edge">
<title>Node5&#45;&gt;Node8</title>
<g id="a_edge7_Node000005_Node000008"><a xlink:title=" ">
<path fill="none" stroke="#63b8ff" d="M339.45,-56.34C362.33,-47.58 396.09,-34.65 421.54,-24.91"/>
<polygon fill="#63b8ff" stroke="#63b8ff" points="422.45,-27.92 430.54,-21.08 419.95,-21.39 422.45,-27.92"/>
</a>
</g>
</g>
<!-- Node9 -->
<g id="Node000009" class="node">
<title>Node9</title>
<g id="a_Node000009"><a xlink:title=" ">
<polygon fill="#e0e0e0" stroke="#999999" points="341.76,-20.75 286.01,-20.75 286.01,0 341.76,0 341.76,-20.75"/>
<text text-anchor="middle" x="313.89" y="-7.25" font-family="Helvetica,sans-Serif" font-size="10.00">iomanip</text>
</a>
</g>
</g>
<!-- Node5&#45;&gt;Node9 -->
<g id="edge8_Node000005_Node000009" class="edge">
<title>Node5&#45;&gt;Node9</title>
<g id="a_edge8_Node000005_Node000009"><a xlink:title=" ">
<path fill="none" stroke="#63b8ff" d="M313.89,-56.34C313.89,-49.56 313.89,-40.3 313.89,-31.94"/>
<polygon fill="#63b8ff" stroke="#63b8ff" points="317.39,-32.08 313.89,-22.08 310.39,-32.08 317.39,-32.08"/>
</a>
</g>
</g>
<!-- Node5&#45;&gt;Node10 -->
<g id="edge9_Node000005_Node000010" class="edge">
<title>Node5&#45;&gt;Node10</title>
<g id="a_edge9_Node000005_Node000010"><a xlink:title=" ">
<path fill="none" stroke="#63b8ff" d="M273.3,-56.46C230.8,-46.35 164.54,-30.57 122.71,-20.62"/>
<polygon fill="#63b8ff" stroke="#63b8ff" points="123.66,-17.01 113.12,-18.1 122.03,-23.82 123.66,-17.01"/>
</a>
</g>
</g>
<!-- Node11 -->
<g id="Node000011" class="node">
<title>Node11</title>
<g id="a_Node000011"><a xlink:title=" ">
<polygon fill="#e0e0e0" stroke="#999999" points="406.26,-20.75 359.51,-20.75 359.51,0 406.26,0 406.26,-20.75"/>
<text text-anchor="middle" x="382.89" y="-7.25" font-family="Helvetica,sans-Serif" font-size="10.00">cmath</text>
</a>
</g>
</g>
<!-- Node5&#45;&gt;Node11 -->
<g id="edge10_Node000005_Node000011" class="edge">
<title>Node5&#45;&gt;Node11</title>
<g id="a_edge10_Node000005_Node000011"><a xlink:title=" ">
<path fill="none" stroke="#63b8ff" d="M326.22,-56.34C336.23,-48.4 350.55,-37.03 362.3,-27.71"/>
<polygon fill="#63b8ff" stroke="#63b8ff" points="364,-30.04 369.66,-21.08 359.65,-24.55 364,-30.04"/>
</a>
</g>
</g>
<!-- Node16&#45;&gt;Node8 -->
<g id="edge16_Node000016_Node000008" class="edge">
<title>Node16&#45;&gt;Node8</title>
<g id="a_edge16_Node000016_Node000008"><a xlink:title=" ">
<path fill="none" stroke="#63b8ff" d="M486.45,-56.34C481.69,-49.1 475.06,-39.01 469.28,-30.22"/>
<polygon fill="#63b8ff" stroke="#63b8ff" points="471.69,-28.51 463.27,-22.08 465.84,-32.36 471.69,-28.51"/>
</a>
</g>
</g>
<!-- Node17&#45;&gt;Node16 -->
<g id="edge18_Node000017_Node000016" class="edge">
<title>Node17&#45;&gt;Node16</title>
<g id="a_edge18_Node000017_Node000016"><a xlink:title=" ">
<path fill="none" stroke="#63b8ff" d="M369.7,-113.09C393.73,-104.32 429.2,-91.37 455.92,-81.62"/>
<polygon fill="#63b8ff" stroke="#63b8ff" points="456.86,-84.64 465.05,-77.92 454.46,-78.06 456.86,-84.64"/>
</a>
</g>
</g>
<!-- Node18 -->
<g id="Node000018" class="node">
<title>Node18</title>
<g id="a_Node000018"><a xlink:title=" ">
<polygon fill="#e0e0e0" stroke="#999999" points="429.89,-77.5 371.89,-77.5 371.89,-56.75 429.89,-56.75 429.89,-77.5"/>
<text text-anchor="middle" x="400.89" y="-64" font-family="Helvetica,sans-Serif" font-size="10.00">complex</text>
</a>
</g>
</g>
<!-- Node17&#45;&gt;Node18 -->
<g id="edge19_Node000017_Node000018" class="edge">
<title>Node17&#45;&gt;Node18</title>
<g id="a_edge19_Node000017_Node000018"><a xlink:title=" ">
<path fill="none" stroke="#63b8ff" d="M353.26,-113.09C361.42,-105.38 373,-94.45 382.7,-85.29"/>
<polygon fill="#63b8ff" stroke="#63b8ff" points="384.74,-88.24 389.61,-78.83 379.93,-83.15 384.74,-88.24"/>
</a>
</g>
</g>
<!-- Node22 -->
<g id="Node000022" class="node">
<title>Node22</title>
<g id="a_Node000022"><a xlink:href="CTF_8hpp.html" target="_top" xlink:title=" ">
<polygon fill="white" stroke="#666666" points="642.39,-77.5 569.39,-77.5 569.39,-56.75 642.39,-56.75 642.39,-77.5"/>
<text text-anchor="middle" x="605.89" y="-64" font-family="Helvetica,sans-Serif" font-size="10.00">util/CTF.hpp</text>
</a>
</g>
</g>
<!-- Node21&#45;&gt;Node22 -->
<g id="edge24_Node000021_Node000022" class="edge">
<title>Node21&#45;&gt;Node22</title>
<g id="a_edge24_Node000021_Node000022"><a xlink:title=" ">
<path fill="none" stroke="#63b8ff" d="M614.92,-113.09C613.54,-106.24 611.65,-96.84 609.96,-88.4"/>
<polygon fill="#63b8ff" stroke="#63b8ff" points="613.24,-87.94 607.84,-78.83 606.37,-89.32 613.24,-87.94"/>
</a>
</g>
</g>
<!-- Node23 -->
<g id="Node000023" class="node">
<title>Node23</title>
<g id="a_Node000023"><a xlink:title=" ">
<polygon fill="#e0e0e0" stroke="#999999" points="630.39,-20.75 581.39,-20.75 581.39,0 630.39,0 630.39,-20.75"/>
<text text-anchor="middle" x="605.89" y="-7.25" font-family="Helvetica,sans-Serif" font-size="10.00">ctf.hpp</text>
</a>
</g>
</g>
<!-- Node22&#45;&gt;Node23 -->
<g id="edge25_Node000022_Node000023" class="edge">
<title>Node22&#45;&gt;Node23</title>
<g id="a_edge25_Node000022_Node000023"><a xlink:title=" ">
<path fill="none" stroke="#63b8ff" d="M605.89,-56.34C605.89,-49.56 605.89,-40.3 605.89,-31.94"/>
<polygon fill="#63b8ff" stroke="#63b8ff" points="609.39,-32.08 605.89,-22.08 602.39,-32.08 609.39,-32.08"/>
</a>
</g>
</g>
<!-- Node24&#45;&gt;Node10 -->
<g id="edge28_Node000024_Node000010" class="edge">
<title>Node24&#45;&gt;Node10</title>
<g id="a_edge28_Node000024_Node000010"><a xlink:title=" ">
<path fill="none" stroke="#63b8ff" d="M121.66,-113.1C116.15,-104.12 108.17,-90.3 102.89,-77.5 96.68,-62.47 91.7,-44.73 88.4,-31.41"/>
<polygon fill="#63b8ff" stroke="#63b8ff" points="91.65,-30.94 85.94,-22.02 84.84,-32.56 91.65,-30.94"/>
</a>
</g>
</g>
<!-- Node24&#45;&gt;Node12 -->
<g id="edge27_Node000024_Node000012" class="edge">
<title>Node24&#45;&gt;Node12</title>
<g id="a_edge27_Node000024_Node000012"><a xlink:title=" ">
<path fill="none" stroke="#63b8ff" d="M111.08,-113.09C96.78,-104.76 76.01,-92.66 59.61,-83.11"/>
<polygon fill="#63b8ff" stroke="#63b8ff" points="61.95,-79.84 51.55,-77.83 58.43,-85.89 61.95,-79.84"/>
</a>
</g>
</g>
<!-- Node24&#45;&gt;Node13 -->
<g id="edge29_Node000024_Node000013" class="edge">
<title>Node24&#45;&gt;Node13</title>
<g id="a_edge29_Node000024_Node000013"><a xlink:title=" ">
<path fill="none" stroke="#63b8ff" d="M130.39,-113.09C132.14,-106.24 134.55,-96.84 136.7,-88.4"/>
<polygon fill="#63b8ff" stroke="#63b8ff" points="140.32,-89.38 139.41,-78.83 133.54,-87.65 140.32,-89.38"/>
</a>
</g>
</g>
</g>
</svg>
