<?xml version="1.0" encoding="UTF-8" standalone="no"?>
<!DOCTYPE svg PUBLIC "-//W3C//DTD SVG 1.1//EN"
 "http://www.w3.org/Graphics/SVG/1.1/DTD/svg11.dtd">
<!-- Generated by graphviz version 5.0.1 (0)
 -->
<!-- Title: CoulombVertexReader.hpp Pages: 1 -->
<svg width="793pt" height="302pt"
 viewBox="0.00 0.00 792.67 302.00" xmlns="http://www.w3.org/2000/svg" xmlns:xlink="http://www.w3.org/1999/xlink">
<g id="graph0" class="graph" transform="scale(1 1) rotate(0) translate(4 298)">
<title>CoulombVertexReader.hpp</title>
<!-- Node1 -->
<g id="node1" class="node">
<title>Node1</title>
<g id="a_node1"><a xlink:title=" ">
<polygon fill="#999999" stroke="#666666" points="784.67,-294 638.67,-294 638.67,-275 784.67,-275 784.67,-294"/>
<text text-anchor="middle" x="711.67" y="-282" font-family="Helvetica,sans-Serif" font-size="10.00">CoulombVertexReader.hpp</text>
</a>
</g>
</g>
<!-- Node2 -->
<g id="node2" class="node">
<title>Node2</title>
<g id="a_node2"><a xlink:href="Algorithm_8hpp.html" target="_top" xlink:title=" ">
<polygon fill="white" stroke="#666666" points="537.17,-239 396.17,-239 396.17,-220 537.17,-220 537.17,-239"/>
<text text-anchor="middle" x="466.67" y="-227" font-family="Helvetica,sans-Serif" font-size="10.00">algorithms/Algorithm.hpp</text>
</a>
</g>
</g>
<!-- Node1&#45;&gt;Node2 -->
<g id="edge1" class="edge">
<title>Node1&#45;&gt;Node2</title>
<path fill="none" stroke="#63b8ff" d="M672.31,-274.98C629.93,-265.82 562.41,-251.21 516.4,-241.26"/>
<polygon fill="#63b8ff" stroke="#63b8ff" points="516.86,-237.78 506.34,-239.08 515.38,-244.62 516.86,-237.78"/>
</g>
<!-- Node7 -->
<g id="node7" class="node">
<title>Node7</title>
<g id="a_node7"><a xlink:title=" ">
<polygon fill="#e0e0e0" stroke="#999999" points="563.67,-19 513.67,-19 513.67,0 563.67,0 563.67,-19"/>
<text text-anchor="middle" x="538.67" y="-7" font-family="Helvetica,sans-Serif" font-size="10.00">cstdint</text>
</a>
</g>
</g>
<!-- Node1&#45;&gt;Node7 -->
<g id="edge35" class="edge">
<title>Node1&#45;&gt;Node7</title>
<path fill="none" stroke="#63b8ff" d="M720.08,-274.8C735.94,-257.44 768.67,-216.63 768.67,-175.5 768.67,-175.5 768.67,-175.5 768.67,-118.5 768.67,-85.38 756.54,-74.36 729.67,-55 728.87,-54.42 628.9,-31.31 573.93,-18.63"/>
<polygon fill="#63b8ff" stroke="#63b8ff" points="574.43,-15.15 563.9,-16.31 572.86,-21.97 574.43,-15.15"/>
</g>
<!-- Node15 -->
<g id="node15" class="node">
<title>Node15</title>
<g id="a_node15"><a xlink:title=" ">
<polygon fill="#e0e0e0" stroke="#999999" points="720.17,-74 665.17,-74 665.17,-55 720.17,-55 720.17,-74"/>
<text text-anchor="middle" x="692.67" y="-62" font-family="Helvetica,sans-Serif" font-size="10.00">fstream</text>
</a>
</g>
</g>
<!-- Node1&#45;&gt;Node15 -->
<g id="edge36" class="edge">
<title>Node1&#45;&gt;Node15</title>
<path fill="none" stroke="#63b8ff" d="M710.93,-274.95C708.14,-242.95 698.26,-129.68 694.32,-84.4"/>
<polygon fill="#63b8ff" stroke="#63b8ff" points="697.79,-83.88 693.43,-74.22 690.81,-84.49 697.79,-83.88"/>
</g>
<!-- Node21 -->
<g id="node21" class="node">
<title>Node21</title>
<g id="a_node21"><a xlink:href="Tensor_8hpp.html" target="_top" xlink:title=" ">
<polygon fill="white" stroke="#666666" points="664.17,-129 577.17,-129 577.17,-110 664.17,-110 664.17,-129"/>
<text text-anchor="middle" x="620.67" y="-117" font-family="Helvetica,sans-Serif" font-size="10.00">util/Tensor.hpp</text>
</a>
</g>
</g>
<!-- Node1&#45;&gt;Node21 -->
<g id="edge34" class="edge">
<title>Node1&#45;&gt;Node21</title>
<path fill="none" stroke="#63b8ff" d="M706.78,-274.74C692.4,-248.98 650.06,-173.13 630.62,-138.33"/>
<polygon fill="#63b8ff" stroke="#63b8ff" points="633.52,-136.33 625.59,-129.31 627.41,-139.74 633.52,-136.33"/>
</g>
<!-- Node3 -->
<g id="node3" class="node">
<title>Node3</title>
<g id="a_node3"><a xlink:href="Data_8hpp.html" target="_top" xlink:title=" ">
<polygon fill="white" stroke="#666666" points="467.17,-184 406.17,-184 406.17,-165 467.17,-165 467.17,-184"/>
<text text-anchor="middle" x="436.67" y="-172" font-family="Helvetica,sans-Serif" font-size="10.00">Data.hpp</text>
</a>
</g>
</g>
<!-- Node2&#45;&gt;Node3 -->
<g id="edge2" class="edge">
<title>Node2&#45;&gt;Node3</title>
<path fill="none" stroke="#63b8ff" d="M461.72,-219.75C457.61,-212.49 451.65,-201.95 446.57,-192.98"/>
<polygon fill="#63b8ff" stroke="#63b8ff" points="449.51,-191.07 441.53,-184.09 443.41,-194.52 449.51,-191.07"/>
</g>
<!-- Node10 -->
<g id="node10" class="node">
<title>Node10</title>
<g id="a_node10"><a xlink:title=" ">
<polygon fill="#e0e0e0" stroke="#999999" points="111.67,-19 55.67,-19 55.67,0 111.67,0 111.67,-19"/>
<text text-anchor="middle" x="83.67" y="-7" font-family="Helvetica,sans-Serif" font-size="10.00">sstream</text>
</a>
</g>
</g>
<!-- Node2&#45;&gt;Node10 -->
<g id="edge32" class="edge">
<title>Node2&#45;&gt;Node10</title>
<path fill="none" stroke="#63b8ff" d="M396.1,-223.6C308.06,-216.8 162.96,-203.14 112.67,-184 48.05,-159.41 19.75,-141 2.67,-74 0.58,-65.82 -1.63,-62.27 2.67,-55 12.16,-38.95 29.73,-28.31 46.08,-21.46"/>
<polygon fill="#63b8ff" stroke="#63b8ff" points="47.41,-24.7 55.5,-17.86 44.9,-18.16 47.41,-24.7"/>
</g>
<!-- Node12 -->
<g id="node12" class="node">
<title>Node12</title>
<g id="a_node12"><a xlink:title=" ">
<polygon fill="#e0e0e0" stroke="#999999" points="55.67,-74 11.67,-74 11.67,-55 55.67,-55 55.67,-74"/>
<text text-anchor="middle" x="33.67" y="-62" font-family="Helvetica,sans-Serif" font-size="10.00">string</text>
</a>
</g>
</g>
<!-- Node2&#45;&gt;Node12 -->
<g id="edge30" class="edge">
<title>Node2&#45;&gt;Node12</title>
<path fill="none" stroke="#63b8ff" d="M395.77,-220.9C289.05,-208 94.47,-178.29 46.67,-129 35.3,-117.27 32.64,-98.42 32.48,-84.3"/>
<polygon fill="#63b8ff" stroke="#63b8ff" points="35.98,-84.31 32.76,-74.22 28.98,-84.11 35.98,-84.31"/>
</g>
<!-- Node20 -->
<g id="node20" class="node">
<title>Node20</title>
<g id="a_node20"><a xlink:title=" ">
<polygon fill="#e0e0e0" stroke="#999999" points="559.17,-129 512.17,-129 512.17,-110 559.17,-110 559.17,-129"/>
<text text-anchor="middle" x="535.67" y="-117" font-family="Helvetica,sans-Serif" font-size="10.00">vector</text>
</a>
</g>
</g>
<!-- Node2&#45;&gt;Node20 -->
<g id="edge31" class="edge">
<title>Node2&#45;&gt;Node20</title>
<path fill="none" stroke="#63b8ff" d="M472.32,-219.66C483.75,-201.77 509.79,-161 524.69,-137.69"/>
<polygon fill="#63b8ff" stroke="#63b8ff" points="527.71,-139.47 530.14,-129.16 521.81,-135.7 527.71,-139.47"/>
</g>
<!-- Node2&#45;&gt;Node21 -->
<g id="edge33" class="edge">
<title>Node2&#45;&gt;Node21</title>
<path fill="none" stroke="#63b8ff" d="M479.01,-219.84C505.37,-201.36 567.4,-157.86 599.93,-135.05"/>
<polygon fill="#63b8ff" stroke="#63b8ff" points="602.09,-137.8 608.27,-129.2 598.07,-132.07 602.09,-137.8"/>
</g>
<!-- Node4 -->
<g id="node4" class="node">
<title>Node4</title>
<g id="a_node4"><a xlink:href="Log_8hpp.html" target="_top" xlink:title=" ">
<polygon fill="white" stroke="#666666" points="271.67,-129 197.67,-129 197.67,-110 271.67,-110 271.67,-129"/>
<text text-anchor="middle" x="234.67" y="-117" font-family="Helvetica,sans-Serif" font-size="10.00">util/Log.hpp</text>
</a>
</g>
</g>
<!-- Node3&#45;&gt;Node4 -->
<g id="edge3" class="edge">
<title>Node3&#45;&gt;Node4</title>
<path fill="none" stroke="#63b8ff" d="M405.99,-165.45C371.65,-156.44 315.76,-141.78 277.21,-131.66"/>
<polygon fill="#63b8ff" stroke="#63b8ff" points="277.88,-128.22 267.32,-129.07 276.1,-134.99 277.88,-128.22"/>
</g>
<!-- Node3&#45;&gt;Node12 -->
<g id="edge20" class="edge">
<title>Node3&#45;&gt;Node12</title>
<path fill="none" stroke="#63b8ff" d="M406.11,-173.41C327.66,-172.63 121.46,-166.94 66.67,-129 51.53,-118.52 42.86,-98.89 38.24,-84.22"/>
<polygon fill="#63b8ff" stroke="#63b8ff" points="41.51,-82.9 35.46,-74.2 34.76,-84.77 41.51,-82.9"/>
</g>
<!-- Node16 -->
<g id="node16" class="node">
<title>Node16</title>
<g id="a_node16"><a xlink:href="Float_8hpp.html" target="_top" xlink:title=" ">
<polygon fill="white" stroke="#666666" points="542.17,-74 451.17,-74 451.17,-55 542.17,-55 542.17,-74"/>
<text text-anchor="middle" x="496.67" y="-62" font-family="Helvetica,sans-Serif" font-size="10.00">math/Float.hpp</text>
</a>
</g>
</g>
<!-- Node3&#45;&gt;Node16 -->
<g id="edge15" class="edge">
<title>Node3&#45;&gt;Node16</title>
<path fill="none" stroke="#63b8ff" d="M442.5,-164.78C448.35,-155.92 457.49,-141.72 464.67,-129 473.2,-113.9 482,-96.26 488.21,-83.4"/>
<polygon fill="#63b8ff" stroke="#63b8ff" points="491.43,-84.8 492.58,-74.26 485.11,-81.78 491.43,-84.8"/>
</g>
<!-- Node17 -->
<g id="node17" class="node">
<title>Node17</title>
<g id="a_node17"><a xlink:href="Complex_8hpp.html" target="_top" xlink:title=" ">
<polygon fill="white" stroke="#666666" points="399.67,-129 289.67,-129 289.67,-110 399.67,-110 399.67,-129"/>
<text text-anchor="middle" x="344.67" y="-117" font-family="Helvetica,sans-Serif" font-size="10.00">math/Complex.hpp</text>
</a>
</g>
</g>
<!-- Node3&#45;&gt;Node17 -->
<g id="edge17" class="edge">
<title>Node3&#45;&gt;Node17</title>
<path fill="none" stroke="#63b8ff" d="M421.89,-164.98C407.49,-156.69 385.36,-143.94 368.48,-134.22"/>
<polygon fill="#63b8ff" stroke="#63b8ff" points="370.13,-131.13 359.72,-129.17 366.64,-137.19 370.13,-131.13"/>
</g>
<!-- Node19 -->
<g id="node19" class="node">
<title>Node19</title>
<g id="a_node19"><a xlink:title=" ">
<polygon fill="#e0e0e0" stroke="#999999" points="455.67,-129 417.67,-129 417.67,-110 455.67,-110 455.67,-129"/>
<text text-anchor="middle" x="436.67" y="-117" font-family="Helvetica,sans-Serif" font-size="10.00">map</text>
</a>
</g>
</g>
<!-- Node3&#45;&gt;Node19 -->
<g id="edge21" class="edge">
<title>Node3&#45;&gt;Node19</title>
<path fill="none" stroke="#63b8ff" d="M436.67,-164.75C436.67,-157.8 436.67,-147.85 436.67,-139.13"/>
<polygon fill="#63b8ff" stroke="#63b8ff" points="440.17,-139.09 436.67,-129.09 433.17,-139.09 440.17,-139.09"/>
</g>
<!-- Node3&#45;&gt;Node20 -->
<g id="edge22" class="edge">
<title>Node3&#45;&gt;Node20</title>
<path fill="none" stroke="#63b8ff" d="M452.58,-164.98C468.22,-156.61 492.33,-143.7 510.56,-133.95"/>
<polygon fill="#63b8ff" stroke="#63b8ff" points="512.31,-136.98 519.48,-129.17 509.01,-130.8 512.31,-136.98"/>
</g>
<!-- Node3&#45;&gt;Node21 -->
<g id="edge23" class="edge">
<title>Node3&#45;&gt;Node21</title>
<path fill="none" stroke="#63b8ff" d="M466.23,-164.98C497.39,-156.01 546.64,-141.82 581.13,-131.89"/>
<polygon fill="#63b8ff" stroke="#63b8ff" points="582.24,-135.21 590.88,-129.08 580.3,-128.49 582.24,-135.21"/>
</g>
<!-- Node24 -->
<g id="node24" class="node">
<title>Node24</title>
<g id="a_node24"><a xlink:href="Exception_8hpp.html" target="_top" xlink:title=" ">
<polygon fill="white" stroke="#666666" points="179.67,-129 75.67,-129 75.67,-110 179.67,-110 179.67,-129"/>
<text text-anchor="middle" x="127.67" y="-117" font-family="Helvetica,sans-Serif" font-size="10.00">util/Exception.hpp</text>
</a>
</g>
</g>
<!-- Node3&#45;&gt;Node24 -->
<g id="edge26" class="edge">
<title>Node3&#45;&gt;Node24</title>
<path fill="none" stroke="#63b8ff" d="M405.91,-168.22C355.13,-159.51 252.86,-141.97 187.45,-130.75"/>
<polygon fill="#63b8ff" stroke="#63b8ff" points="187.74,-127.25 177.29,-129.01 186.55,-134.15 187.74,-127.25"/>
</g>
<!-- Node5 -->
<g id="node5" class="node">
<title>Node5</title>
<g id="a_node5"><a xlink:href="Time_8hpp.html" target="_top" xlink:title=" ">
<polygon fill="white" stroke="#666666" points="356.17,-74 275.17,-74 275.17,-55 356.17,-55 356.17,-74"/>
<text text-anchor="middle" x="315.67" y="-62" font-family="Helvetica,sans-Serif" font-size="10.00">util/Time.hpp</text>
</a>
</g>
</g>
<!-- Node4&#45;&gt;Node5 -->
<g id="edge4" class="edge">
<title>Node4&#45;&gt;Node5</title>
<path fill="none" stroke="#63b8ff" d="M247.69,-109.98C260.13,-101.84 279.13,-89.41 293.88,-79.76"/>
<polygon fill="#63b8ff" stroke="#63b8ff" points="295.97,-82.57 302.42,-74.17 292.14,-76.72 295.97,-82.57"/>
</g>
<!-- Node4&#45;&gt;Node12 -->
<g id="edge11" class="edge">
<title>Node4&#45;&gt;Node12</title>
<path fill="none" stroke="#63b8ff" d="M202.38,-109.98C164.85,-100.09 103.29,-83.86 65.82,-73.98"/>
<polygon fill="#63b8ff" stroke="#63b8ff" points="66.49,-70.53 55.93,-71.37 64.71,-77.3 66.49,-70.53"/>
</g>
<!-- Node13 -->
<g id="node13" class="node">
<title>Node13</title>
<g id="a_node13"><a xlink:title=" ">
<polygon fill="#e0e0e0" stroke="#999999" points="171.67,-74 111.67,-74 111.67,-55 171.67,-55 171.67,-74"/>
<text text-anchor="middle" x="141.67" y="-62" font-family="Helvetica,sans-Serif" font-size="10.00">iostream</text>
</a>
</g>
</g>
<!-- Node4&#45;&gt;Node13 -->
<g id="edge12" class="edge">
<title>Node4&#45;&gt;Node13</title>
<path fill="none" stroke="#63b8ff" d="M219.73,-109.98C205.17,-101.69 182.8,-88.94 165.74,-79.22"/>
<polygon fill="#63b8ff" stroke="#63b8ff" points="167.31,-76.08 156.89,-74.17 163.84,-82.16 167.31,-76.08"/>
</g>
<!-- Node14 -->
<g id="node14" class="node">
<title>Node14</title>
<g id="a_node14"><a xlink:title=" ">
<polygon fill="#e0e0e0" stroke="#999999" points="257.17,-74 190.17,-74 190.17,-55 257.17,-55 257.17,-74"/>
<text text-anchor="middle" x="223.67" y="-62" font-family="Helvetica,sans-Serif" font-size="10.00">streambuf</text>
</a>
</g>
</g>
<!-- Node4&#45;&gt;Node14 -->
<g id="edge13" class="edge">
<title>Node4&#45;&gt;Node14</title>
<path fill="none" stroke="#63b8ff" d="M232.86,-109.75C231.41,-102.8 229.35,-92.85 227.54,-84.13"/>
<polygon fill="#63b8ff" stroke="#63b8ff" points="230.91,-83.17 225.45,-74.09 224.06,-84.59 230.91,-83.17"/>
</g>
<!-- Node4&#45;&gt;Node15 -->
<g id="edge14" class="edge">
<title>Node4&#45;&gt;Node15</title>
<path fill="none" stroke="#63b8ff" d="M271.78,-111.36C274.79,-110.87 277.78,-110.41 280.67,-110 443.25,-87.22 488.64,-100.27 654.79,-73.92"/>
<polygon fill="#63b8ff" stroke="#63b8ff" points="655.55,-77.34 664.87,-72.3 654.44,-70.43 655.55,-77.34"/>
</g>
<!-- Node6 -->
<g id="node6" class="node">
<title>Node6</title>
<g id="a_node6"><a xlink:title=" ">
<polygon fill="#e0e0e0" stroke="#999999" points="269.67,-19 225.67,-19 225.67,0 269.67,0 269.67,-19"/>
<text text-anchor="middle" x="247.67" y="-7" font-family="Helvetica,sans-Serif" font-size="10.00">ctime</text>
</a>
</g>
</g>
<!-- Node5&#45;&gt;Node6 -->
<g id="edge5" class="edge">
<title>Node5&#45;&gt;Node6</title>
<path fill="none" stroke="#63b8ff" d="M304.75,-54.98C294.6,-47.07 279.25,-35.11 267.03,-25.58"/>
<polygon fill="#63b8ff" stroke="#63b8ff" points="268.83,-22.56 258.8,-19.17 264.53,-28.08 268.83,-22.56"/>
</g>
<!-- Node5&#45;&gt;Node7 -->
<g id="edge6" class="edge">
<title>Node5&#45;&gt;Node7</title>
<path fill="none" stroke="#63b8ff" d="M351.5,-54.98C393.38,-45.03 462.23,-28.67 503.73,-18.8"/>
<polygon fill="#63b8ff" stroke="#63b8ff" points="504.74,-22.16 513.66,-16.45 503.12,-15.35 504.74,-22.16"/>
</g>
<!-- Node8 -->
<g id="node8" class="node">
<title>Node8</title>
<g id="a_node8"><a xlink:title=" ">
<polygon fill="#e0e0e0" stroke="#999999" points="488.17,-19 431.17,-19 431.17,0 488.17,0 488.17,-19"/>
<text text-anchor="middle" x="459.67" y="-7" font-family="Helvetica,sans-Serif" font-size="10.00">ostream</text>
</a>
</g>
</g>
<!-- Node5&#45;&gt;Node8 -->
<g id="edge7" class="edge">
<title>Node5&#45;&gt;Node8</title>
<path fill="none" stroke="#63b8ff" d="M338.81,-54.98C362.49,-46.27 399.54,-32.63 426.38,-22.75"/>
<polygon fill="#63b8ff" stroke="#63b8ff" points="427.94,-25.91 436.11,-19.17 425.52,-19.34 427.94,-25.91"/>
</g>
<!-- Node9 -->
<g id="node9" class="node">
<title>Node9</title>
<g id="a_node9"><a xlink:title=" ">
<polygon fill="#e0e0e0" stroke="#999999" points="343.67,-19 287.67,-19 287.67,0 343.67,0 343.67,-19"/>
<text text-anchor="middle" x="315.67" y="-7" font-family="Helvetica,sans-Serif" font-size="10.00">iomanip</text>
</a>
</g>
</g>
<!-- Node5&#45;&gt;Node9 -->
<g id="edge8" class="edge">
<title>Node5&#45;&gt;Node9</title>
<path fill="none" stroke="#63b8ff" d="M315.67,-54.75C315.67,-47.8 315.67,-37.85 315.67,-29.13"/>
<polygon fill="#63b8ff" stroke="#63b8ff" points="319.17,-29.09 315.67,-19.09 312.17,-29.09 319.17,-29.09"/>
</g>
<!-- Node5&#45;&gt;Node10 -->
<g id="edge9" class="edge">
<title>Node5&#45;&gt;Node10</title>
<path fill="none" stroke="#63b8ff" d="M278.4,-54.98C235.35,-45.15 164.92,-29.06 121.6,-19.17"/>
<polygon fill="#63b8ff" stroke="#63b8ff" points="122.26,-15.73 111.73,-16.91 120.7,-22.55 122.26,-15.73"/>
</g>
<!-- Node11 -->
<g id="node11" class="node">
<title>Node11</title>
<g id="a_node11"><a xlink:title=" ">
<polygon fill="#e0e0e0" stroke="#999999" points="409.17,-19 362.17,-19 362.17,0 409.17,0 409.17,-19"/>
<text text-anchor="middle" x="385.67" y="-7" font-family="Helvetica,sans-Serif" font-size="10.00">cmath</text>
</a>
</g>
</g>
<!-- Node5&#45;&gt;Node11 -->
<g id="edge10" class="edge">
<title>Node5&#45;&gt;Node11</title>
<path fill="none" stroke="#63b8ff" d="M326.92,-54.98C337.47,-47 353.47,-34.88 366.11,-25.31"/>
<polygon fill="#63b8ff" stroke="#63b8ff" points="368.36,-28 374.22,-19.17 364.13,-22.42 368.36,-28"/>
</g>
<!-- Node16&#45;&gt;Node8 -->
<g id="edge16" class="edge">
<title>Node16&#45;&gt;Node8</title>
<path fill="none" stroke="#63b8ff" d="M490.56,-54.75C485.39,-47.34 477.83,-36.5 471.48,-27.41"/>
<polygon fill="#63b8ff" stroke="#63b8ff" points="474.26,-25.29 465.67,-19.09 468.52,-29.29 474.26,-25.29"/>
</g>
<!-- Node17&#45;&gt;Node16 -->
<g id="edge18" class="edge">
<title>Node17&#45;&gt;Node16</title>
<path fill="none" stroke="#63b8ff" d="M369.09,-109.98C394.39,-101.16 434.13,-87.31 462.53,-77.41"/>
<polygon fill="#63b8ff" stroke="#63b8ff" points="463.77,-80.68 472.06,-74.08 461.46,-74.07 463.77,-80.68"/>
</g>
<!-- Node18 -->
<g id="node18" class="node">
<title>Node18</title>
<g id="a_node18"><a xlink:title=" ">
<polygon fill="#e0e0e0" stroke="#999999" points="433.17,-74 374.17,-74 374.17,-55 433.17,-55 433.17,-74"/>
<text text-anchor="middle" x="403.67" y="-62" font-family="Helvetica,sans-Serif" font-size="10.00">complex</text>
</a>
</g>
</g>
<!-- Node17&#45;&gt;Node18 -->
<g id="edge19" class="edge">
<title>Node17&#45;&gt;Node18</title>
<path fill="none" stroke="#63b8ff" d="M354.15,-109.98C362.87,-102.15 376.01,-90.34 386.57,-80.86"/>
<polygon fill="#63b8ff" stroke="#63b8ff" points="388.92,-83.46 394.02,-74.17 384.24,-78.25 388.92,-83.46"/>
</g>
<!-- Node22 -->
<g id="node22" class="node">
<title>Node22</title>
<g id="a_node22"><a xlink:href="CTF_8hpp.html" target="_top" xlink:title=" ">
<polygon fill="white" stroke="#666666" points="646.67,-74 572.67,-74 572.67,-55 646.67,-55 646.67,-74"/>
<text text-anchor="middle" x="609.67" y="-62" font-family="Helvetica,sans-Serif" font-size="10.00">util/CTF.hpp</text>
</a>
</g>
</g>
<!-- Node21&#45;&gt;Node22 -->
<g id="edge24" class="edge">
<title>Node21&#45;&gt;Node22</title>
<path fill="none" stroke="#63b8ff" d="M618.86,-109.75C617.41,-102.8 615.35,-92.85 613.54,-84.13"/>
<polygon fill="#63b8ff" stroke="#63b8ff" points="616.91,-83.17 611.45,-74.09 610.06,-84.59 616.91,-83.17"/>
</g>
<!-- Node23 -->
<g id="node23" class="node">
<title>Node23</title>
<g id="a_node23"><a xlink:title=" ">
<polygon fill="#e0e0e0" stroke="#999999" points="634.67,-19 584.67,-19 584.67,0 634.67,0 634.67,-19"/>
<text text-anchor="middle" x="609.67" y="-7" font-family="Helvetica,sans-Serif" font-size="10.00">ctf.hpp</text>
</a>
</g>
</g>
<!-- Node22&#45;&gt;Node23 -->
<g id="edge25" class="edge">
<title>Node22&#45;&gt;Node23</title>
<path fill="none" stroke="#63b8ff" d="M609.67,-54.75C609.67,-47.8 609.67,-37.85 609.67,-29.13"/>
<polygon fill="#63b8ff" stroke="#63b8ff" points="613.17,-29.09 609.67,-19.09 606.17,-29.09 613.17,-29.09"/>
</g>
<!-- Node24&#45;&gt;Node10 -->
<g id="edge28" class="edge">
<title>Node24&#45;&gt;Node10</title>
<path fill="none" stroke="#63b8ff" d="M122.1,-109.93C116.59,-101.17 108.21,-87.05 102.67,-74 96.48,-59.42 91.46,-42.15 88.13,-29.31"/>
<polygon fill="#63b8ff" stroke="#63b8ff" points="91.46,-28.21 85.66,-19.34 84.67,-29.89 91.46,-28.21"/>
</g>
<!-- Node24&#45;&gt;Node12 -->
<g id="edge27" class="edge">
<title>Node24&#45;&gt;Node12</title>
<path fill="none" stroke="#63b8ff" d="M112.57,-109.98C97.86,-101.69 75.25,-88.94 58,-79.22"/>
<polygon fill="#63b8ff" stroke="#63b8ff" points="59.48,-76.03 49.05,-74.17 56.04,-82.13 59.48,-76.03"/>
</g>
<!-- Node24&#45;&gt;Node13 -->
<g id="edge29" class="edge">
<title>Node24&#45;&gt;Node13</title>
<path fill="none" stroke="#63b8ff" d="M129.98,-109.75C131.84,-102.72 134.51,-92.62 136.83,-83.84"/>
<polygon fill="#63b8ff" stroke="#63b8ff" points="140.23,-84.65 139.4,-74.09 133.46,-82.86 140.23,-84.65"/>
</g>
</g>
</svg>
