<?xml version="1.0" encoding="UTF-8" standalone="no"?>
<!DOCTYPE svg PUBLIC "-//W3C//DTD SVG 1.1//EN"
 "http://www.w3.org/Graphics/SVG/1.1/DTD/svg11.dtd">
<!-- Generated by graphviz version 5.0.1 (0)
 -->
<!-- Title: CtfMachineTensor.hpp Pages: 1 -->
<svg width="1857pt" height="252pt"
 viewBox="0.00 0.00 1857.00 252.00" xmlns="http://www.w3.org/2000/svg" xmlns:xlink="http://www.w3.org/1999/xlink">
<g id="graph0" class="graph" transform="scale(1 1) rotate(0) translate(4 248)">
<title>CtfMachineTensor.hpp</title>
<!-- Node1 -->
<g id="node1" class="node">
<title>Node1</title>
<g id="a_node1"><a xlink:title=" ">
<polygon fill="#bfbfbf" stroke="black" points="1637,-224.5 1637,-243.5 1761,-243.5 1761,-224.5 1637,-224.5"/>
<text text-anchor="middle" x="1699" y="-231.5" font-family="Helvetica,sans-Serif" font-size="10.00">CtfMachineTensor.hpp</text>
</a>
</g>
</g>
<!-- Node2 -->
<g id="node2" class="node">
<title>Node2</title>
<g id="a_node2"><a xlink:title=" ">
<polygon fill="none" stroke="#bfbfbf" points="1459.5,-168.5 1459.5,-187.5 1586.5,-187.5 1586.5,-168.5 1459.5,-168.5"/>
<text text-anchor="middle" x="1523" y="-175.5" font-family="Helvetica,sans-Serif" font-size="10.00">tcc/MachineTensor.hpp</text>
</a>
</g>
</g>
<!-- Node1&#45;&gt;Node2 -->
<g id="edge1" class="edge">
<title>Node1&#45;&gt;Node2</title>
<path fill="none" stroke="midnightblue" d="M1671.11,-224.44C1641.25,-215.28 1593.69,-200.69 1560.54,-190.52"/>
<polygon fill="midnightblue" stroke="midnightblue" points="1561.34,-187.1 1550.76,-187.52 1559.29,-193.8 1561.34,-187.1"/>
</g>
<!-- Node3 -->
<g id="node3" class="node">
<title>Node3</title>
<g id="a_node3"><a xlink:href="Sisi4s_8hpp.html" target="_top" xlink:title=" ">
<polygon fill="none" stroke="black" points="1605,-168.5 1605,-187.5 1671,-187.5 1671,-168.5 1605,-168.5"/>
<text text-anchor="middle" x="1638" y="-175.5" font-family="Helvetica,sans-Serif" font-size="10.00">Sisi4s.hpp</text>
</a>
</g>
</g>
<!-- Node1&#45;&gt;Node3 -->
<g id="edge2" class="edge">
<title>Node1&#45;&gt;Node3</title>
<path fill="none" stroke="midnightblue" d="M1689.2,-224.32C1680.18,-216.34 1666.59,-204.31 1655.68,-194.65"/>
<polygon fill="midnightblue" stroke="midnightblue" points="1657.79,-191.84 1647.98,-187.83 1653.15,-197.08 1657.79,-191.84"/>
</g>
<!-- Node11 -->
<g id="node11" class="node">
<title>Node11</title>
<g id="a_node11"><a xlink:href="CTF_8hpp.html" target="_top" xlink:title=" ">
<polygon fill="none" stroke="black" points="1649,-112.5 1649,-131.5 1723,-131.5 1723,-112.5 1649,-112.5"/>
<text text-anchor="middle" x="1686" y="-119.5" font-family="Helvetica,sans-Serif" font-size="10.00">util/CTF.hpp</text>
</a>
</g>
</g>
<!-- Node1&#45;&gt;Node11 -->
<g id="edge39" class="edge">
<title>Node1&#45;&gt;Node11</title>
<path fill="none" stroke="midnightblue" d="M1697.98,-224.37C1695.88,-206.62 1691.04,-165.67 1688.2,-141.6"/>
<polygon fill="midnightblue" stroke="midnightblue" points="1691.66,-141.11 1687.02,-131.59 1684.71,-141.93 1691.66,-141.11"/>
</g>
<!-- Node14 -->
<g id="node14" class="node">
<title>Node14</title>
<g id="a_node14"><a xlink:title=" ">
<polygon fill="none" stroke="#bfbfbf" points="1729,-0.5 1729,-19.5 1773,-19.5 1773,-0.5 1729,-0.5"/>
<text text-anchor="middle" x="1751" y="-7.5" font-family="Helvetica,sans-Serif" font-size="10.00">string</text>
</a>
</g>
</g>
<!-- Node1&#45;&gt;Node14 -->
<g id="edge40" class="edge">
<title>Node1&#45;&gt;Node14</title>
<path fill="none" stroke="midnightblue" d="M1702.3,-224.49C1708.85,-207.27 1723.6,-166.98 1732,-132 1740.58,-96.29 1746.23,-53.68 1749,-29.74"/>
<polygon fill="midnightblue" stroke="midnightblue" points="1752.5,-29.93 1750.13,-19.6 1745.54,-29.15 1752.5,-29.93"/>
</g>
<!-- Node16 -->
<g id="node16" class="node">
<title>Node16</title>
<g id="a_node16"><a xlink:title=" ">
<polygon fill="none" stroke="#bfbfbf" points="1791,-0.5 1791,-19.5 1849,-19.5 1849,-0.5 1791,-0.5"/>
<text text-anchor="middle" x="1820" y="-7.5" font-family="Helvetica,sans-Serif" font-size="10.00">memory</text>
</a>
</g>
</g>
<!-- Node1&#45;&gt;Node16 -->
<g id="edge41" class="edge">
<title>Node1&#45;&gt;Node16</title>
<path fill="none" stroke="midnightblue" d="M1706.04,-224.35C1713.06,-215.51 1723.94,-201.24 1732,-188 1765.84,-132.44 1797.82,-62.11 1812.13,-29.35"/>
<polygon fill="midnightblue" stroke="midnightblue" points="1815.53,-30.32 1816.29,-19.75 1809.1,-27.54 1815.53,-30.32"/>
</g>
<!-- Node4 -->
<g id="node4" class="node">
<title>Node4</title>
<g id="a_node4"><a xlink:href="Time_8hpp.html" target="_top" xlink:title=" ">
<polygon fill="none" stroke="black" points="193.5,-56.5 193.5,-75.5 274.5,-75.5 274.5,-56.5 193.5,-56.5"/>
<text text-anchor="middle" x="234" y="-63.5" font-family="Helvetica,sans-Serif" font-size="10.00">util/Time.hpp</text>
</a>
</g>
</g>
<!-- Node3&#45;&gt;Node4 -->
<g id="edge3" class="edge">
<title>Node3&#45;&gt;Node4</title>
<path fill="none" stroke="midnightblue" d="M1604.74,-169.59C1601.46,-168.99 1598.17,-168.45 1595,-168 1086.93,-96.3 464.5,-73.63 284.78,-68.35"/>
<polygon fill="midnightblue" stroke="midnightblue" points="284.67,-64.84 274.57,-68.05 284.46,-71.84 284.67,-64.84"/>
</g>
<!-- Node3&#45;&gt;Node11 -->
<g id="edge10" class="edge">
<title>Node3&#45;&gt;Node11</title>
<path fill="none" stroke="midnightblue" d="M1645.93,-168.08C1652.85,-160.3 1663.07,-148.8 1671.45,-139.37"/>
<polygon fill="midnightblue" stroke="midnightblue" points="1674.19,-141.55 1678.22,-131.75 1668.96,-136.9 1674.19,-141.55"/>
</g>
<!-- Node13 -->
<g id="node13" class="node">
<title>Node13</title>
<g id="a_node13"><a xlink:href="Options_8hpp.html" target="_top" xlink:title=" ">
<polygon fill="none" stroke="black" points="1555.5,-112.5 1555.5,-131.5 1630.5,-131.5 1630.5,-112.5 1555.5,-112.5"/>
<text text-anchor="middle" x="1593" y="-119.5" font-family="Helvetica,sans-Serif" font-size="10.00">Options.hpp</text>
</a>
</g>
</g>
<!-- Node3&#45;&gt;Node13 -->
<g id="edge12" class="edge">
<title>Node3&#45;&gt;Node13</title>
<path fill="none" stroke="midnightblue" d="M1630.57,-168.08C1624.15,-160.38 1614.69,-149.03 1606.88,-139.65"/>
<polygon fill="midnightblue" stroke="midnightblue" points="1609.38,-137.19 1600.29,-131.75 1604.01,-141.67 1609.38,-137.19"/>
</g>
<!-- Node5 -->
<g id="node5" class="node">
<title>Node5</title>
<g id="a_node5"><a xlink:title=" ">
<polygon fill="none" stroke="#bfbfbf" points="0,-0.5 0,-19.5 44,-19.5 44,-0.5 0,-0.5"/>
<text text-anchor="middle" x="22" y="-7.5" font-family="Helvetica,sans-Serif" font-size="10.00">ctime</text>
</a>
</g>
</g>
<!-- Node4&#45;&gt;Node5 -->
<g id="edge4" class="edge">
<title>Node4&#45;&gt;Node5</title>
<path fill="none" stroke="midnightblue" d="M197.83,-56.45C163.3,-48.18 109.55,-35.07 54.29,-20.27"/>
<polygon fill="midnightblue" stroke="midnightblue" points="54.89,-16.81 44.32,-17.59 53.07,-23.57 54.89,-16.81"/>
</g>
<!-- Node6 -->
<g id="node6" class="node">
<title>Node6</title>
<g id="a_node6"><a xlink:title=" ">
<polygon fill="none" stroke="#bfbfbf" points="138,-0.5 138,-19.5 188,-19.5 188,-0.5 138,-0.5"/>
<text text-anchor="middle" x="163" y="-7.5" font-family="Helvetica,sans-Serif" font-size="10.00">cstdint</text>
</a>
</g>
</g>
<!-- Node4&#45;&gt;Node6 -->
<g id="edge5" class="edge">
<title>Node4&#45;&gt;Node6</title>
<path fill="none" stroke="midnightblue" d="M222.59,-56.32C211.89,-48.18 195.66,-35.84 182.84,-26.09"/>
<polygon fill="midnightblue" stroke="midnightblue" points="184.69,-23.1 174.61,-19.83 180.46,-28.67 184.69,-23.1"/>
</g>
<!-- Node7 -->
<g id="node7" class="node">
<title>Node7</title>
<g id="a_node7"><a xlink:title=" ">
<polygon fill="none" stroke="#bfbfbf" points="62.5,-0.5 62.5,-19.5 119.5,-19.5 119.5,-0.5 62.5,-0.5"/>
<text text-anchor="middle" x="91" y="-7.5" font-family="Helvetica,sans-Serif" font-size="10.00">ostream</text>
</a>
</g>
</g>
<!-- Node4&#45;&gt;Node7 -->
<g id="edge6" class="edge">
<title>Node4&#45;&gt;Node7</title>
<path fill="none" stroke="midnightblue" d="M211.34,-56.44C187.6,-47.48 150.09,-33.31 123.26,-23.18"/>
<polygon fill="midnightblue" stroke="midnightblue" points="124.14,-19.77 113.55,-19.52 121.67,-26.32 124.14,-19.77"/>
</g>
<!-- Node8 -->
<g id="node8" class="node">
<title>Node8</title>
<g id="a_node8"><a xlink:title=" ">
<polygon fill="none" stroke="#bfbfbf" points="206,-0.5 206,-19.5 262,-19.5 262,-0.5 206,-0.5"/>
<text text-anchor="middle" x="234" y="-7.5" font-family="Helvetica,sans-Serif" font-size="10.00">iomanip</text>
</a>
</g>
</g>
<!-- Node4&#45;&gt;Node8 -->
<g id="edge7" class="edge">
<title>Node4&#45;&gt;Node8</title>
<path fill="none" stroke="midnightblue" d="M234,-56.08C234,-49.01 234,-38.86 234,-29.99"/>
<polygon fill="midnightblue" stroke="midnightblue" points="237.5,-29.75 234,-19.75 230.5,-29.75 237.5,-29.75"/>
</g>
<!-- Node9 -->
<g id="node9" class="node">
<title>Node9</title>
<g id="a_node9"><a xlink:title=" ">
<polygon fill="none" stroke="#bfbfbf" points="280,-0.5 280,-19.5 336,-19.5 336,-0.5 280,-0.5"/>
<text text-anchor="middle" x="308" y="-7.5" font-family="Helvetica,sans-Serif" font-size="10.00">sstream</text>
</a>
</g>
</g>
<!-- Node4&#45;&gt;Node9 -->
<g id="edge8" class="edge">
<title>Node4&#45;&gt;Node9</title>
<path fill="none" stroke="midnightblue" d="M245.89,-56.32C257.15,-48.11 274.29,-35.6 287.71,-25.81"/>
<polygon fill="midnightblue" stroke="midnightblue" points="289.88,-28.56 295.89,-19.83 285.75,-22.9 289.88,-28.56"/>
</g>
<!-- Node10 -->
<g id="node10" class="node">
<title>Node10</title>
<g id="a_node10"><a xlink:title=" ">
<polygon fill="none" stroke="#bfbfbf" points="354.5,-0.5 354.5,-19.5 401.5,-19.5 401.5,-0.5 354.5,-0.5"/>
<text text-anchor="middle" x="378" y="-7.5" font-family="Helvetica,sans-Serif" font-size="10.00">cmath</text>
</a>
</g>
</g>
<!-- Node4&#45;&gt;Node10 -->
<g id="edge9" class="edge">
<title>Node4&#45;&gt;Node10</title>
<path fill="none" stroke="midnightblue" d="M256.82,-56.44C280.83,-47.44 318.83,-33.19 345.87,-23.05"/>
<polygon fill="midnightblue" stroke="midnightblue" points="347.16,-26.3 355.29,-19.52 344.7,-19.75 347.16,-26.3"/>
</g>
<!-- Node12 -->
<g id="node12" class="node">
<title>Node12</title>
<g id="a_node12"><a xlink:title=" ">
<polygon fill="none" stroke="#bfbfbf" points="1661,-56.5 1661,-75.5 1711,-75.5 1711,-56.5 1661,-56.5"/>
<text text-anchor="middle" x="1686" y="-63.5" font-family="Helvetica,sans-Serif" font-size="10.00">ctf.hpp</text>
</a>
</g>
</g>
<!-- Node11&#45;&gt;Node12 -->
<g id="edge11" class="edge">
<title>Node11&#45;&gt;Node12</title>
<path fill="none" stroke="midnightblue" d="M1686,-112.08C1686,-105.01 1686,-94.86 1686,-85.99"/>
<polygon fill="midnightblue" stroke="midnightblue" points="1689.5,-85.75 1686,-75.75 1682.5,-85.75 1689.5,-85.75"/>
</g>
<!-- Node13&#45;&gt;Node14 -->
<g id="edge13" class="edge">
<title>Node13&#45;&gt;Node14</title>
<path fill="none" stroke="midnightblue" d="M1599,-112.39C1608.78,-98.87 1629.34,-72.53 1652,-56 1672.58,-40.99 1698.97,-29.3 1719.32,-21.6"/>
<polygon fill="midnightblue" stroke="midnightblue" points="1720.59,-24.87 1728.78,-18.15 1718.18,-18.29 1720.59,-24.87"/>
</g>
<!-- Node15 -->
<g id="node15" class="node">
<title>Node15</title>
<g id="a_node15"><a xlink:href="CLI11_8hpp.html" target="_top" xlink:title=" ">
<polygon fill="none" stroke="black" points="983.5,-56.5 983.5,-75.5 1082.5,-75.5 1082.5,-56.5 983.5,-56.5"/>
<text text-anchor="middle" x="1033" y="-63.5" font-family="Helvetica,sans-Serif" font-size="10.00">extern/CLI11.hpp</text>
</a>
</g>
</g>
<!-- Node13&#45;&gt;Node15 -->
<g id="edge14" class="edge">
<title>Node13&#45;&gt;Node15</title>
<path fill="none" stroke="midnightblue" d="M1555.39,-117.37C1460.05,-108.18 1208.31,-83.9 1092.65,-72.75"/>
<polygon fill="midnightblue" stroke="midnightblue" points="1092.85,-69.25 1082.56,-71.78 1092.18,-76.22 1092.85,-69.25"/>
</g>
<!-- Node15&#45;&gt;Node6 -->
<g id="edge28" class="edge">
<title>Node15&#45;&gt;Node6</title>
<path fill="none" stroke="midnightblue" d="M983.38,-63.66C830.79,-59.35 369,-44.71 198.22,-19.81"/>
<polygon fill="midnightblue" stroke="midnightblue" points="198.54,-16.31 188.13,-18.27 197.49,-23.23 198.54,-16.31"/>
</g>
<!-- Node15&#45;&gt;Node8 -->
<g id="edge24" class="edge">
<title>Node15&#45;&gt;Node8</title>
<path fill="none" stroke="midnightblue" d="M983.2,-65.14C862.59,-64.83 545.25,-60.05 272.28,-19.91"/>
<polygon fill="midnightblue" stroke="midnightblue" points="272.58,-16.42 262.18,-18.41 271.55,-23.34 272.58,-16.42"/>
</g>
<!-- Node15&#45;&gt;Node9 -->
<g id="edge26" class="edge">
<title>Node15&#45;&gt;Node9</title>
<path fill="none" stroke="midnightblue" d="M983.46,-64.69C871.44,-63.37 590.07,-56.52 346.3,-19.93"/>
<polygon fill="midnightblue" stroke="midnightblue" points="346.59,-16.43 336.18,-18.39 345.54,-23.35 346.59,-16.43"/>
</g>
<!-- Node15&#45;&gt;Node10 -->
<g id="edge17" class="edge">
<title>Node15&#45;&gt;Node10</title>
<path fill="none" stroke="midnightblue" d="M983.42,-64.67C879.14,-63.27 629.48,-56.23 411.69,-19.75"/>
<polygon fill="midnightblue" stroke="midnightblue" points="412.11,-16.27 401.67,-18.05 410.94,-23.17 412.11,-16.27"/>
</g>
<!-- Node15&#45;&gt;Node14 -->
<g id="edge16" class="edge">
<title>Node15&#45;&gt;Node14</title>
<path fill="none" stroke="midnightblue" d="M1082.59,-65.42C1194.69,-65.59 1476.13,-61.6 1718.72,-19.83"/>
<polygon fill="midnightblue" stroke="midnightblue" points="1719.54,-23.24 1728.79,-18.08 1718.33,-16.35 1719.54,-23.24"/>
</g>
<!-- Node15&#45;&gt;Node16 -->
<g id="edge15" class="edge">
<title>Node15&#45;&gt;Node16</title>
<path fill="none" stroke="midnightblue" d="M1082.82,-64.97C1202.01,-64.25 1512.98,-58.64 1780.73,-19.93"/>
<polygon fill="midnightblue" stroke="midnightblue" points="1781.25,-23.39 1790.64,-18.48 1780.24,-16.47 1781.25,-23.39"/>
</g>
<!-- Node17 -->
<g id="node17" class="node">
<title>Node17</title>
<g id="a_node17"><a xlink:title=" ">
<polygon fill="none" stroke="#bfbfbf" points="1173.5,-0.5 1173.5,-19.5 1238.5,-19.5 1238.5,-0.5 1173.5,-0.5"/>
<text text-anchor="middle" x="1206" y="-7.5" font-family="Helvetica,sans-Serif" font-size="10.00">functional</text>
</a>
</g>
</g>
<!-- Node15&#45;&gt;Node17 -->
<g id="edge18" class="edge">
<title>Node15&#45;&gt;Node17</title>
<path fill="none" stroke="midnightblue" d="M1060.41,-56.44C1089.77,-47.28 1136.52,-32.69 1169.1,-22.52"/>
<polygon fill="midnightblue" stroke="midnightblue" points="1170.21,-25.84 1178.72,-19.52 1168.13,-19.16 1170.21,-25.84"/>
</g>
<!-- Node18 -->
<g id="node18" class="node">
<title>Node18</title>
<g id="a_node18"><a xlink:title=" ">
<polygon fill="none" stroke="#bfbfbf" points="1257,-0.5 1257,-19.5 1313,-19.5 1313,-0.5 1257,-0.5"/>
<text text-anchor="middle" x="1285" y="-7.5" font-family="Helvetica,sans-Serif" font-size="10.00">numeric</text>
</a>
</g>
</g>
<!-- Node15&#45;&gt;Node18 -->
<g id="edge19" class="edge">
<title>Node15&#45;&gt;Node18</title>
<path fill="none" stroke="midnightblue" d="M1075.3,-56.43C1118.52,-47.61 1187.53,-33.29 1247,-20 1247.1,-19.98 1247.2,-19.96 1247.3,-19.93"/>
<polygon fill="midnightblue" stroke="midnightblue" points="1247.83,-23.4 1256.8,-17.76 1246.27,-16.58 1247.83,-23.4"/>
</g>
<!-- Node19 -->
<g id="node19" class="node">
<title>Node19</title>
<g id="a_node19"><a xlink:title=" ">
<polygon fill="none" stroke="#bfbfbf" points="1331,-0.5 1331,-19.5 1369,-19.5 1369,-0.5 1331,-0.5"/>
<text text-anchor="middle" x="1350" y="-7.5" font-family="Helvetica,sans-Serif" font-size="10.00">map</text>
</a>
</g>
</g>
<!-- Node15&#45;&gt;Node19 -->
<g id="edge20" class="edge">
<title>Node15&#45;&gt;Node19</title>
<path fill="none" stroke="midnightblue" d="M1082.55,-59.68C1138.38,-53.15 1231.93,-40.62 1320.85,-19.96"/>
<polygon fill="midnightblue" stroke="midnightblue" points="1321.91,-23.3 1330.83,-17.6 1320.3,-16.49 1321.91,-23.3"/>
</g>
<!-- Node20 -->
<g id="node20" class="node">
<title>Node20</title>
<g id="a_node20"><a xlink:title=" ">
<polygon fill="none" stroke="#bfbfbf" points="1387.5,-0.5 1387.5,-19.5 1442.5,-19.5 1442.5,-0.5 1387.5,-0.5"/>
<text text-anchor="middle" x="1415" y="-7.5" font-family="Helvetica,sans-Serif" font-size="10.00">fstream</text>
</a>
</g>
</g>
<!-- Node15&#45;&gt;Node20 -->
<g id="edge21" class="edge">
<title>Node15&#45;&gt;Node20</title>
<path fill="none" stroke="midnightblue" d="M1082.69,-60.24C1147.99,-53.6 1266.44,-40.25 1377.19,-19.96"/>
<polygon fill="midnightblue" stroke="midnightblue" points="1378,-23.37 1387.19,-18.11 1376.72,-16.49 1378,-23.37"/>
</g>
<!-- Node21 -->
<g id="node21" class="node">
<title>Node21</title>
<g id="a_node21"><a xlink:title=" ">
<polygon fill="none" stroke="#bfbfbf" points="1460.5,-0.5 1460.5,-19.5 1501.5,-19.5 1501.5,-0.5 1460.5,-0.5"/>
<text text-anchor="middle" x="1481" y="-7.5" font-family="Helvetica,sans-Serif" font-size="10.00">tuple</text>
</a>
</g>
</g>
<!-- Node15&#45;&gt;Node21 -->
<g id="edge22" class="edge">
<title>Node15&#45;&gt;Node21</title>
<path fill="none" stroke="midnightblue" d="M1082.68,-62.62C1159.6,-58.28 1312.17,-47.1 1450.53,-19.7"/>
<polygon fill="midnightblue" stroke="midnightblue" points="1451.36,-23.11 1460.47,-17.7 1449.98,-16.25 1451.36,-23.11"/>
</g>
<!-- Node22 -->
<g id="node22" class="node">
<title>Node22</title>
<g id="a_node22"><a xlink:title=" ">
<polygon fill="none" stroke="#bfbfbf" points="1519.5,-0.5 1519.5,-19.5 1564.5,-19.5 1564.5,-0.5 1519.5,-0.5"/>
<text text-anchor="middle" x="1542" y="-7.5" font-family="Helvetica,sans-Serif" font-size="10.00">utility</text>
</a>
</g>
</g>
<!-- Node15&#45;&gt;Node22 -->
<g id="edge23" class="edge">
<title>Node15&#45;&gt;Node22</title>
<path fill="none" stroke="midnightblue" d="M1082.5,-63.27C1167.81,-59.64 1348.06,-49.18 1509.29,-19.77"/>
<polygon fill="midnightblue" stroke="midnightblue" points="1510.2,-23.17 1519.39,-17.9 1508.92,-16.28 1510.2,-23.17"/>
</g>
<!-- Node23 -->
<g id="node23" class="node">
<title>Node23</title>
<g id="a_node23"><a xlink:title=" ">
<polygon fill="none" stroke="#bfbfbf" points="1583,-0.5 1583,-19.5 1629,-19.5 1629,-0.5 1583,-0.5"/>
<text text-anchor="middle" x="1606" y="-7.5" font-family="Helvetica,sans-Serif" font-size="10.00">locale</text>
</a>
</g>
</g>
<!-- Node15&#45;&gt;Node23 -->
<g id="edge25" class="edge">
<title>Node15&#45;&gt;Node23</title>
<path fill="none" stroke="midnightblue" d="M1082.53,-63.9C1176.39,-61.16 1386.64,-51.89 1572.72,-19.68"/>
<polygon fill="midnightblue" stroke="midnightblue" points="1573.44,-23.1 1582.68,-17.93 1572.23,-16.21 1573.44,-23.1"/>
</g>
<!-- Node24 -->
<g id="node24" class="node">
<title>Node24</title>
<g id="a_node24"><a xlink:title=" ">
<polygon fill="none" stroke="#bfbfbf" points="1647,-0.5 1647,-19.5 1711,-19.5 1711,-0.5 1647,-0.5"/>
<text text-anchor="middle" x="1679" y="-7.5" font-family="Helvetica,sans-Serif" font-size="10.00">algorithm</text>
</a>
</g>
</g>
<!-- Node15&#45;&gt;Node24 -->
<g id="edge27" class="edge">
<title>Node15&#45;&gt;Node24</title>
<path fill="none" stroke="midnightblue" d="M1082.67,-63.69C1184.73,-60.48 1425.53,-50.26 1636.81,-19.97"/>
<polygon fill="midnightblue" stroke="midnightblue" points="1637.46,-23.41 1646.85,-18.51 1636.45,-16.48 1637.46,-23.41"/>
</g>
<!-- Node25 -->
<g id="node25" class="node">
<title>Node25</title>
<g id="a_node25"><a xlink:title=" ">
<polygon fill="none" stroke="#bfbfbf" points="420,-0.5 420,-19.5 480,-19.5 480,-0.5 420,-0.5"/>
<text text-anchor="middle" x="450" y="-7.5" font-family="Helvetica,sans-Serif" font-size="10.00">iostream</text>
</a>
</g>
</g>
<!-- Node15&#45;&gt;Node25 -->
<g id="edge29" class="edge">
<title>Node15&#45;&gt;Node25</title>
<path fill="none" stroke="midnightblue" d="M983.21,-63.28C888.83,-59.51 677.32,-48.57 490.17,-19.96"/>
<polygon fill="midnightblue" stroke="midnightblue" points="490.57,-16.48 480.15,-18.41 489.5,-23.4 490.57,-16.48"/>
</g>
<!-- Node26 -->
<g id="node26" class="node">
<title>Node26</title>
<g id="a_node26"><a xlink:title=" ">
<polygon fill="none" stroke="#bfbfbf" points="498,-0.5 498,-19.5 530,-19.5 530,-0.5 498,-0.5"/>
<text text-anchor="middle" x="514" y="-7.5" font-family="Helvetica,sans-Serif" font-size="10.00">set</text>
</a>
</g>
</g>
<!-- Node15&#45;&gt;Node26 -->
<g id="edge30" class="edge">
<title>Node15&#45;&gt;Node26</title>
<path fill="none" stroke="midnightblue" d="M983.28,-64.63C895.24,-63.08 706.31,-55.72 540.13,-19.7"/>
<polygon fill="midnightblue" stroke="midnightblue" points="540.75,-16.25 530.23,-17.52 539.24,-23.09 540.75,-16.25"/>
</g>
<!-- Node27 -->
<g id="node27" class="node">
<title>Node27</title>
<g id="a_node27"><a xlink:title=" ">
<polygon fill="none" stroke="#bfbfbf" points="548.5,-0.5 548.5,-19.5 617.5,-19.5 617.5,-0.5 548.5,-0.5"/>
<text text-anchor="middle" x="583" y="-7.5" font-family="Helvetica,sans-Serif" font-size="10.00">type_traits</text>
</a>
</g>
</g>
<!-- Node15&#45;&gt;Node27 -->
<g id="edge31" class="edge">
<title>Node15&#45;&gt;Node27</title>
<path fill="none" stroke="midnightblue" d="M983.3,-61.06C908.29,-54.77 761.51,-41.13 627.7,-20.15"/>
<polygon fill="midnightblue" stroke="midnightblue" points="628.11,-16.67 617.68,-18.56 627.01,-23.58 628.11,-16.67"/>
</g>
<!-- Node28 -->
<g id="node28" class="node">
<title>Node28</title>
<g id="a_node28"><a xlink:title=" ">
<polygon fill="none" stroke="#bfbfbf" points="635.5,-0.5 635.5,-19.5 688.5,-19.5 688.5,-0.5 635.5,-0.5"/>
<text text-anchor="middle" x="662" y="-7.5" font-family="Helvetica,sans-Serif" font-size="10.00">iterator</text>
</a>
</g>
</g>
<!-- Node15&#45;&gt;Node28 -->
<g id="edge32" class="edge">
<title>Node15&#45;&gt;Node28</title>
<path fill="none" stroke="midnightblue" d="M983.45,-60.22C919.64,-53.66 805.15,-40.5 698.63,-20.14"/>
<polygon fill="midnightblue" stroke="midnightblue" points="699.16,-16.67 688.68,-18.21 697.83,-23.55 699.16,-16.67"/>
</g>
<!-- Node29 -->
<g id="node29" class="node">
<title>Node29</title>
<g id="a_node29"><a xlink:title=" ">
<polygon fill="none" stroke="#bfbfbf" points="706.5,-0.5 706.5,-19.5 771.5,-19.5 771.5,-0.5 706.5,-0.5"/>
<text text-anchor="middle" x="739" y="-7.5" font-family="Helvetica,sans-Serif" font-size="10.00">stdexcept</text>
</a>
</g>
</g>
<!-- Node15&#45;&gt;Node29 -->
<g id="edge33" class="edge">
<title>Node15&#45;&gt;Node29</title>
<path fill="none" stroke="midnightblue" d="M983.44,-56.79C934.55,-48.55 857.43,-35.2 781.82,-20.31"/>
<polygon fill="midnightblue" stroke="midnightblue" points="782.14,-16.8 771.65,-18.29 780.78,-23.67 782.14,-16.8"/>
</g>
<!-- Node30 -->
<g id="node30" class="node">
<title>Node30</title>
<g id="a_node30"><a xlink:title=" ">
<polygon fill="none" stroke="#bfbfbf" points="789.5,-0.5 789.5,-19.5 836.5,-19.5 836.5,-0.5 789.5,-0.5"/>
<text text-anchor="middle" x="813" y="-7.5" font-family="Helvetica,sans-Serif" font-size="10.00">vector</text>
</a>
</g>
</g>
<!-- Node15&#45;&gt;Node30 -->
<g id="edge34" class="edge">
<title>Node15&#45;&gt;Node30</title>
<path fill="none" stroke="midnightblue" d="M996.02,-56.45C960.3,-48.11 904.44,-34.87 846.79,-20.14"/>
<polygon fill="midnightblue" stroke="midnightblue" points="847.33,-16.67 836.77,-17.57 845.59,-23.45 847.33,-16.67"/>
</g>
<!-- Node31 -->
<g id="node31" class="node">
<title>Node31</title>
<g id="a_node31"><a xlink:title=" ">
<polygon fill="none" stroke="#bfbfbf" points="855,-0.5 855,-19.5 899,-19.5 899,-0.5 855,-0.5"/>
<text text-anchor="middle" x="877" y="-7.5" font-family="Helvetica,sans-Serif" font-size="10.00">limits</text>
</a>
</g>
</g>
<!-- Node15&#45;&gt;Node31 -->
<g id="edge35" class="edge">
<title>Node15&#45;&gt;Node31</title>
<path fill="none" stroke="midnightblue" d="M1008.28,-56.44C981.38,-47.13 938.29,-32.22 908.87,-22.03"/>
<polygon fill="midnightblue" stroke="midnightblue" points="909.68,-18.61 899.08,-18.64 907.39,-25.22 909.68,-18.61"/>
</g>
<!-- Node32 -->
<g id="node32" class="node">
<title>Node32</title>
<g id="a_node32"><a xlink:title=" ">
<polygon fill="none" stroke="#bfbfbf" points="917.5,-0.5 917.5,-19.5 982.5,-19.5 982.5,-0.5 917.5,-0.5"/>
<text text-anchor="middle" x="950" y="-7.5" font-family="Helvetica,sans-Serif" font-size="10.00">exception</text>
</a>
</g>
</g>
<!-- Node15&#45;&gt;Node32 -->
<g id="edge36" class="edge">
<title>Node15&#45;&gt;Node32</title>
<path fill="none" stroke="midnightblue" d="M1019.66,-56.32C1006.84,-47.98 987.22,-35.21 972.06,-25.35"/>
<polygon fill="midnightblue" stroke="midnightblue" points="973.59,-22.17 963.3,-19.65 969.78,-28.04 973.59,-22.17"/>
</g>
<!-- Node33 -->
<g id="node33" class="node">
<title>Node33</title>
<g id="a_node33"><a xlink:title=" ">
<polygon fill="none" stroke="#bfbfbf" points="1001,-0.5 1001,-19.5 1065,-19.5 1065,-0.5 1001,-0.5"/>
<text text-anchor="middle" x="1033" y="-7.5" font-family="Helvetica,sans-Serif" font-size="10.00">sys/stat.h</text>
</a>
</g>
</g>
<!-- Node15&#45;&gt;Node33 -->
<g id="edge37" class="edge">
<title>Node15&#45;&gt;Node33</title>
<path fill="none" stroke="midnightblue" d="M1033,-56.08C1033,-49.01 1033,-38.86 1033,-29.99"/>
<polygon fill="midnightblue" stroke="midnightblue" points="1036.5,-29.75 1033,-19.75 1029.5,-29.75 1036.5,-29.75"/>
</g>
<!-- Node34 -->
<g id="node34" class="node">
<title>Node34</title>
<g id="a_node34"><a xlink:title=" ">
<polygon fill="none" stroke="#bfbfbf" points="1083,-0.5 1083,-19.5 1155,-19.5 1155,-0.5 1083,-0.5"/>
<text text-anchor="middle" x="1119" y="-7.5" font-family="Helvetica,sans-Serif" font-size="10.00">sys/types.h</text>
</a>
</g>
</g>
<!-- Node15&#45;&gt;Node34 -->
<g id="edge38" class="edge">
<title>Node15&#45;&gt;Node34</title>
<path fill="none" stroke="midnightblue" d="M1046.82,-56.32C1060.23,-47.9 1080.82,-34.97 1096.59,-25.07"/>
<polygon fill="midnightblue" stroke="midnightblue" points="1098.61,-27.94 1105.22,-19.65 1094.89,-22.01 1098.61,-27.94"/>
</g>
</g>
</svg>
