<?xml version="1.0" encoding="UTF-8" standalone="no"?>
<!DOCTYPE svg PUBLIC "-//W3C//DTD SVG 1.1//EN"
 "http://www.w3.org/Graphics/SVG/1.1/DTD/svg11.dtd">
<!-- Generated by graphviz version 5.0.1 (0)
 -->
<!-- Title: Data.hpp Pages: 1 -->
<svg width="705pt" height="196pt"
 viewBox="0.00 0.00 704.50 196.00" xmlns="http://www.w3.org/2000/svg" xmlns:xlink="http://www.w3.org/1999/xlink">
<g id="graph0" class="graph" transform="scale(1 1) rotate(0) translate(4 192)">
<title>Data.hpp</title>
<!-- Node1 -->
<g id="node1" class="node">
<title>Node1</title>
<g id="a_node1"><a xlink:title=" ">
<polygon fill="#bfbfbf" stroke="black" points="321,-168.5 321,-187.5 382,-187.5 382,-168.5 321,-168.5"/>
<text text-anchor="middle" x="351.5" y="-175.5" font-family="Helvetica,sans-Serif" font-size="10.00">Data.hpp</text>
</a>
</g>
</g>
<!-- Node2 -->
<g id="node2" class="node">
<title>Node2</title>
<g id="a_node2"><a xlink:href="Log_8hpp.html" target="_top" xlink:title=" ">
<polygon fill="none" stroke="black" points="368.5,-112.5 368.5,-131.5 442.5,-131.5 442.5,-112.5 368.5,-112.5"/>
<text text-anchor="middle" x="405.5" y="-119.5" font-family="Helvetica,sans-Serif" font-size="10.00">util/Log.hpp</text>
</a>
</g>
</g>
<!-- Node1&#45;&gt;Node2 -->
<g id="edge1" class="edge">
<title>Node1&#45;&gt;Node2</title>
<path fill="none" stroke="midnightblue" d="M360.42,-168.08C368.28,-160.22 379.93,-148.57 389.42,-139.08"/>
<polygon fill="midnightblue" stroke="midnightblue" points="392.15,-141.3 396.75,-131.75 387.2,-136.35 392.15,-141.3"/>
</g>
<!-- Node10 -->
<g id="node10" class="node">
<title>Node10</title>
<g id="a_node10"><a xlink:title=" ">
<polygon fill="none" stroke="#bfbfbf" points="224.5,-56.5 224.5,-75.5 268.5,-75.5 268.5,-56.5 224.5,-56.5"/>
<text text-anchor="middle" x="246.5" y="-63.5" font-family="Helvetica,sans-Serif" font-size="10.00">string</text>
</a>
</g>
</g>
<!-- Node1&#45;&gt;Node10 -->
<g id="edge18" class="edge">
<title>Node1&#45;&gt;Node10</title>
<path fill="none" stroke="midnightblue" d="M320.93,-174.25C293.93,-170.01 256.05,-159.27 237.5,-132 228.21,-118.34 232.33,-99.29 237.65,-85.35"/>
<polygon fill="midnightblue" stroke="midnightblue" points="241,-86.42 241.76,-75.86 234.58,-83.65 241,-86.42"/>
</g>
<!-- Node14 -->
<g id="node14" class="node">
<title>Node14</title>
<g id="a_node14"><a xlink:href="Float_8hpp.html" target="_top" xlink:title=" ">
<polygon fill="none" stroke="black" points="0,-56.5 0,-75.5 91,-75.5 91,-56.5 0,-56.5"/>
<text text-anchor="middle" x="45.5" y="-63.5" font-family="Helvetica,sans-Serif" font-size="10.00">math/Float.hpp</text>
</a>
</g>
</g>
<!-- Node1&#45;&gt;Node14 -->
<g id="edge13" class="edge">
<title>Node1&#45;&gt;Node14</title>
<path fill="none" stroke="midnightblue" d="M320.76,-175.81C256.24,-172.72 109.56,-162.45 71.5,-132 57.43,-120.75 50.94,-100.73 47.97,-85.88"/>
<polygon fill="midnightblue" stroke="midnightblue" points="51.38,-85.06 46.31,-75.75 44.47,-86.19 51.38,-85.06"/>
</g>
<!-- Node15 -->
<g id="node15" class="node">
<title>Node15</title>
<g id="a_node15"><a xlink:href="Complex_8hpp.html" target="_top" xlink:title=" ">
<polygon fill="none" stroke="black" points="80.5,-112.5 80.5,-131.5 190.5,-131.5 190.5,-112.5 80.5,-112.5"/>
<text text-anchor="middle" x="135.5" y="-119.5" font-family="Helvetica,sans-Serif" font-size="10.00">math/Complex.hpp</text>
</a>
</g>
</g>
<!-- Node1&#45;&gt;Node15 -->
<g id="edge15" class="edge">
<title>Node1&#45;&gt;Node15</title>
<path fill="none" stroke="midnightblue" d="M320.55,-169.26C283.59,-160.02 221.5,-144.5 179.54,-134.01"/>
<polygon fill="midnightblue" stroke="midnightblue" points="180.15,-130.55 169.6,-131.52 178.45,-137.35 180.15,-130.55"/>
</g>
<!-- Node17 -->
<g id="node17" class="node">
<title>Node17</title>
<g id="a_node17"><a xlink:title=" ">
<polygon fill="none" stroke="#bfbfbf" points="460.5,-112.5 460.5,-131.5 498.5,-131.5 498.5,-112.5 460.5,-112.5"/>
<text text-anchor="middle" x="479.5" y="-119.5" font-family="Helvetica,sans-Serif" font-size="10.00">map</text>
</a>
</g>
</g>
<!-- Node1&#45;&gt;Node17 -->
<g id="edge19" class="edge">
<title>Node1&#45;&gt;Node17</title>
<path fill="none" stroke="midnightblue" d="M371.78,-168.44C393.1,-159.45 426.8,-145.23 450.83,-135.1"/>
<polygon fill="midnightblue" stroke="midnightblue" points="452.3,-138.27 460.15,-131.16 449.58,-131.83 452.3,-138.27"/>
</g>
<!-- Node18 -->
<g id="node18" class="node">
<title>Node18</title>
<g id="a_node18"><a xlink:title=" ">
<polygon fill="none" stroke="#bfbfbf" points="517,-112.5 517,-131.5 564,-131.5 564,-112.5 517,-112.5"/>
<text text-anchor="middle" x="540.5" y="-119.5" font-family="Helvetica,sans-Serif" font-size="10.00">vector</text>
</a>
</g>
</g>
<!-- Node1&#45;&gt;Node18 -->
<g id="edge20" class="edge">
<title>Node1&#45;&gt;Node18</title>
<path fill="none" stroke="midnightblue" d="M381.45,-168.44C415.65,-158.67 471.45,-142.73 507.05,-132.56"/>
<polygon fill="midnightblue" stroke="midnightblue" points="508.31,-135.84 516.96,-129.73 506.39,-129.11 508.31,-135.84"/>
</g>
<!-- Node19 -->
<g id="node19" class="node">
<title>Node19</title>
<g id="a_node19"><a xlink:href="Tensor_8hpp.html" target="_top" xlink:title=" ">
<polygon fill="none" stroke="black" points="599,-112.5 599,-131.5 686,-131.5 686,-112.5 599,-112.5"/>
<text text-anchor="middle" x="642.5" y="-119.5" font-family="Helvetica,sans-Serif" font-size="10.00">util/Tensor.hpp</text>
</a>
</g>
</g>
<!-- Node1&#45;&gt;Node19 -->
<g id="edge21" class="edge">
<title>Node1&#45;&gt;Node19</title>
<path fill="none" stroke="midnightblue" d="M382.09,-171.32C431.13,-162.22 527.98,-144.25 588.76,-132.97"/>
<polygon fill="midnightblue" stroke="midnightblue" points="589.73,-136.35 598.92,-131.09 588.45,-129.47 589.73,-136.35"/>
</g>
<!-- Node22 -->
<g id="node22" class="node">
<title>Node22</title>
<g id="a_node22"><a xlink:href="Exception_8hpp.html" target="_top" xlink:title=" ">
<polygon fill="none" stroke="black" points="246.5,-112.5 246.5,-131.5 350.5,-131.5 350.5,-112.5 246.5,-112.5"/>
<text text-anchor="middle" x="298.5" y="-119.5" font-family="Helvetica,sans-Serif" font-size="10.00">util/Exception.hpp</text>
</a>
</g>
</g>
<!-- Node1&#45;&gt;Node22 -->
<g id="edge24" class="edge">
<title>Node1&#45;&gt;Node22</title>
<path fill="none" stroke="midnightblue" d="M342.75,-168.08C335.03,-160.22 323.6,-148.57 314.28,-139.08"/>
<polygon fill="midnightblue" stroke="midnightblue" points="316.59,-136.44 307.09,-131.75 311.6,-141.34 316.59,-136.44"/>
</g>
<!-- Node3 -->
<g id="node3" class="node">
<title>Node3</title>
<g id="a_node3"><a xlink:href="Time_8hpp.html" target="_top" xlink:title=" ">
<polygon fill="none" stroke="black" points="365,-56.5 365,-75.5 446,-75.5 446,-56.5 365,-56.5"/>
<text text-anchor="middle" x="405.5" y="-63.5" font-family="Helvetica,sans-Serif" font-size="10.00">util/Time.hpp</text>
</a>
</g>
</g>
<!-- Node2&#45;&gt;Node3 -->
<g id="edge2" class="edge">
<title>Node2&#45;&gt;Node3</title>
<path fill="none" stroke="midnightblue" d="M405.5,-112.08C405.5,-105.01 405.5,-94.86 405.5,-85.99"/>
<polygon fill="midnightblue" stroke="midnightblue" points="409,-85.75 405.5,-75.75 402,-85.75 409,-85.75"/>
</g>
<!-- Node2&#45;&gt;Node10 -->
<g id="edge9" class="edge">
<title>Node2&#45;&gt;Node10</title>
<path fill="none" stroke="midnightblue" d="M380.31,-112.44C352.61,-103.04 308.08,-87.91 278.08,-77.72"/>
<polygon fill="midnightblue" stroke="midnightblue" points="279.1,-74.37 268.5,-74.47 276.85,-81 279.1,-74.37"/>
</g>
<!-- Node11 -->
<g id="node11" class="node">
<title>Node11</title>
<g id="a_node11"><a xlink:title=" ">
<polygon fill="none" stroke="#bfbfbf" points="286.5,-56.5 286.5,-75.5 346.5,-75.5 346.5,-56.5 286.5,-56.5"/>
<text text-anchor="middle" x="316.5" y="-63.5" font-family="Helvetica,sans-Serif" font-size="10.00">iostream</text>
</a>
</g>
</g>
<!-- Node2&#45;&gt;Node11 -->
<g id="edge10" class="edge">
<title>Node2&#45;&gt;Node11</title>
<path fill="none" stroke="midnightblue" d="M391.2,-112.32C377.32,-103.9 356.01,-90.97 339.7,-81.07"/>
<polygon fill="midnightblue" stroke="midnightblue" points="341.13,-77.85 330.76,-75.65 337.5,-83.83 341.13,-77.85"/>
</g>
<!-- Node12 -->
<g id="node12" class="node">
<title>Node12</title>
<g id="a_node12"><a xlink:title=" ">
<polygon fill="none" stroke="#bfbfbf" points="464,-56.5 464,-75.5 531,-75.5 531,-56.5 464,-56.5"/>
<text text-anchor="middle" x="497.5" y="-63.5" font-family="Helvetica,sans-Serif" font-size="10.00">streambuf</text>
</a>
</g>
</g>
<!-- Node2&#45;&gt;Node12 -->
<g id="edge11" class="edge">
<title>Node2&#45;&gt;Node12</title>
<path fill="none" stroke="midnightblue" d="M420.28,-112.32C434.77,-103.82 457.07,-90.73 473.99,-80.8"/>
<polygon fill="midnightblue" stroke="midnightblue" points="475.9,-83.74 482.76,-75.65 472.36,-77.7 475.9,-83.74"/>
</g>
<!-- Node13 -->
<g id="node13" class="node">
<title>Node13</title>
<g id="a_node13"><a xlink:title=" ">
<polygon fill="none" stroke="#bfbfbf" points="549,-56.5 549,-75.5 604,-75.5 604,-56.5 549,-56.5"/>
<text text-anchor="middle" x="576.5" y="-63.5" font-family="Helvetica,sans-Serif" font-size="10.00">fstream</text>
</a>
</g>
</g>
<!-- Node2&#45;&gt;Node13 -->
<g id="edge12" class="edge">
<title>Node2&#45;&gt;Node13</title>
<path fill="none" stroke="midnightblue" d="M432.6,-112.44C461.49,-103.32 507.42,-88.81 539.61,-78.65"/>
<polygon fill="midnightblue" stroke="midnightblue" points="541.05,-81.87 549.53,-75.52 538.94,-75.19 541.05,-81.87"/>
</g>
<!-- Node4 -->
<g id="node4" class="node">
<title>Node4</title>
<g id="a_node4"><a xlink:title=" ">
<polygon fill="none" stroke="#bfbfbf" points="484.5,-0.5 484.5,-19.5 528.5,-19.5 528.5,-0.5 484.5,-0.5"/>
<text text-anchor="middle" x="506.5" y="-7.5" font-family="Helvetica,sans-Serif" font-size="10.00">ctime</text>
</a>
</g>
</g>
<!-- Node3&#45;&gt;Node4 -->
<g id="edge3" class="edge">
<title>Node3&#45;&gt;Node4</title>
<path fill="none" stroke="midnightblue" d="M421.73,-56.32C437.85,-47.7 462.8,-34.36 481.46,-24.39"/>
<polygon fill="midnightblue" stroke="midnightblue" points="483.14,-27.46 490.31,-19.65 479.84,-21.28 483.14,-27.46"/>
</g>
<!-- Node5 -->
<g id="node5" class="node">
<title>Node5</title>
<g id="a_node5"><a xlink:title=" ">
<polygon fill="none" stroke="#bfbfbf" points="276.5,-0.5 276.5,-19.5 326.5,-19.5 326.5,-0.5 276.5,-0.5"/>
<text text-anchor="middle" x="301.5" y="-7.5" font-family="Helvetica,sans-Serif" font-size="10.00">cstdint</text>
</a>
</g>
</g>
<!-- Node3&#45;&gt;Node5 -->
<g id="edge4" class="edge">
<title>Node3&#45;&gt;Node5</title>
<path fill="none" stroke="midnightblue" d="M388.79,-56.32C372.19,-47.7 346.5,-34.36 327.28,-24.39"/>
<polygon fill="midnightblue" stroke="midnightblue" points="328.66,-21.16 318.17,-19.65 325.43,-27.37 328.66,-21.16"/>
</g>
<!-- Node6 -->
<g id="node6" class="node">
<title>Node6</title>
<g id="a_node6"><a xlink:title=" ">
<polygon fill="none" stroke="#bfbfbf" points="72,-0.5 72,-19.5 129,-19.5 129,-0.5 72,-0.5"/>
<text text-anchor="middle" x="100.5" y="-7.5" font-family="Helvetica,sans-Serif" font-size="10.00">ostream</text>
</a>
</g>
</g>
<!-- Node3&#45;&gt;Node6 -->
<g id="edge5" class="edge">
<title>Node3&#45;&gt;Node6</title>
<path fill="none" stroke="midnightblue" d="M364.84,-57.67C361.68,-57.1 358.54,-56.54 355.5,-56 278.85,-42.34 189.21,-26.57 139.23,-17.79"/>
<polygon fill="midnightblue" stroke="midnightblue" points="139.64,-14.31 129.19,-16.03 138.43,-21.21 139.64,-14.31"/>
</g>
<!-- Node7 -->
<g id="node7" class="node">
<title>Node7</title>
<g id="a_node7"><a xlink:title=" ">
<polygon fill="none" stroke="#bfbfbf" points="344.5,-0.5 344.5,-19.5 400.5,-19.5 400.5,-0.5 344.5,-0.5"/>
<text text-anchor="middle" x="372.5" y="-7.5" font-family="Helvetica,sans-Serif" font-size="10.00">iomanip</text>
</a>
</g>
</g>
<!-- Node3&#45;&gt;Node7 -->
<g id="edge6" class="edge">
<title>Node3&#45;&gt;Node7</title>
<path fill="none" stroke="midnightblue" d="M400.05,-56.08C395.49,-48.61 388.83,-37.72 383.21,-28.52"/>
<polygon fill="midnightblue" stroke="midnightblue" points="386.05,-26.46 377.85,-19.75 380.08,-30.11 386.05,-26.46"/>
</g>
<!-- Node8 -->
<g id="node8" class="node">
<title>Node8</title>
<g id="a_node8"><a xlink:title=" ">
<polygon fill="none" stroke="#bfbfbf" points="185.5,-0.5 185.5,-19.5 241.5,-19.5 241.5,-0.5 185.5,-0.5"/>
<text text-anchor="middle" x="213.5" y="-7.5" font-family="Helvetica,sans-Serif" font-size="10.00">sstream</text>
</a>
</g>
</g>
<!-- Node3&#45;&gt;Node8 -->
<g id="edge7" class="edge">
<title>Node3&#45;&gt;Node8</title>
<path fill="none" stroke="midnightblue" d="M375.08,-56.44C341.54,-47.01 287.55,-31.83 251.31,-21.63"/>
<polygon fill="midnightblue" stroke="midnightblue" points="252.17,-18.24 241.59,-18.9 250.27,-24.98 252.17,-18.24"/>
</g>
<!-- Node9 -->
<g id="node9" class="node">
<title>Node9</title>
<g id="a_node9"><a xlink:title=" ">
<polygon fill="none" stroke="#bfbfbf" points="419,-0.5 419,-19.5 466,-19.5 466,-0.5 419,-0.5"/>
<text text-anchor="middle" x="442.5" y="-7.5" font-family="Helvetica,sans-Serif" font-size="10.00">cmath</text>
</a>
</g>
</g>
<!-- Node3&#45;&gt;Node9 -->
<g id="edge8" class="edge">
<title>Node3&#45;&gt;Node9</title>
<path fill="none" stroke="midnightblue" d="M411.61,-56.08C416.78,-48.53 424.35,-37.49 430.69,-28.23"/>
<polygon fill="midnightblue" stroke="midnightblue" points="433.74,-29.98 436.5,-19.75 427.96,-26.02 433.74,-29.98"/>
</g>
<!-- Node14&#45;&gt;Node6 -->
<g id="edge14" class="edge">
<title>Node14&#45;&gt;Node6</title>
<path fill="none" stroke="midnightblue" d="M54.58,-56.08C62.67,-48.14 74.7,-36.34 84.41,-26.8"/>
<polygon fill="midnightblue" stroke="midnightblue" points="86.9,-29.25 91.59,-19.75 82,-24.26 86.9,-29.25"/>
</g>
<!-- Node15&#45;&gt;Node14 -->
<g id="edge16" class="edge">
<title>Node15&#45;&gt;Node14</title>
<path fill="none" stroke="midnightblue" d="M121.04,-112.32C107,-103.9 85.45,-90.97 68.96,-81.07"/>
<polygon fill="midnightblue" stroke="midnightblue" points="70.3,-77.8 59.92,-75.65 66.7,-83.8 70.3,-77.8"/>
</g>
<!-- Node16 -->
<g id="node16" class="node">
<title>Node16</title>
<g id="a_node16"><a xlink:title=" ">
<polygon fill="none" stroke="#bfbfbf" points="109,-56.5 109,-75.5 168,-75.5 168,-56.5 109,-56.5"/>
<text text-anchor="middle" x="138.5" y="-63.5" font-family="Helvetica,sans-Serif" font-size="10.00">complex</text>
</a>
</g>
</g>
<!-- Node15&#45;&gt;Node16 -->
<g id="edge17" class="edge">
<title>Node15&#45;&gt;Node16</title>
<path fill="none" stroke="midnightblue" d="M136,-112.08C136.39,-105.01 136.95,-94.86 137.45,-85.99"/>
<polygon fill="midnightblue" stroke="midnightblue" points="140.95,-85.93 138.01,-75.75 133.96,-85.54 140.95,-85.93"/>
</g>
<!-- Node20 -->
<g id="node20" class="node">
<title>Node20</title>
<g id="a_node20"><a xlink:href="CTF_8hpp.html" target="_top" xlink:title=" ">
<polygon fill="none" stroke="black" points="622.5,-56.5 622.5,-75.5 696.5,-75.5 696.5,-56.5 622.5,-56.5"/>
<text text-anchor="middle" x="659.5" y="-63.5" font-family="Helvetica,sans-Serif" font-size="10.00">util/CTF.hpp</text>
</a>
</g>
</g>
<!-- Node19&#45;&gt;Node20 -->
<g id="edge22" class="edge">
<title>Node19&#45;&gt;Node20</title>
<path fill="none" stroke="midnightblue" d="M645.31,-112.08C647.58,-104.85 650.87,-94.41 653.71,-85.4"/>
<polygon fill="midnightblue" stroke="midnightblue" points="657.08,-86.34 656.75,-75.75 650.4,-84.24 657.08,-86.34"/>
</g>
<!-- Node21 -->
<g id="node21" class="node">
<title>Node21</title>
<g id="a_node21"><a xlink:title=" ">
<polygon fill="none" stroke="#bfbfbf" points="634.5,-0.5 634.5,-19.5 684.5,-19.5 684.5,-0.5 634.5,-0.5"/>
<text text-anchor="middle" x="659.5" y="-7.5" font-family="Helvetica,sans-Serif" font-size="10.00">ctf.hpp</text>
</a>
</g>
</g>
<!-- Node20&#45;&gt;Node21 -->
<g id="edge23" class="edge">
<title>Node20&#45;&gt;Node21</title>
<path fill="none" stroke="midnightblue" d="M659.5,-56.08C659.5,-49.01 659.5,-38.86 659.5,-29.99"/>
<polygon fill="midnightblue" stroke="midnightblue" points="663,-29.75 659.5,-19.75 656,-29.75 663,-29.75"/>
</g>
<!-- Node22&#45;&gt;Node8 -->
<g id="edge26" class="edge">
<title>Node22&#45;&gt;Node8</title>
<path fill="none" stroke="midnightblue" d="M266.52,-112.37C248.24,-105.63 226.77,-94.28 215.5,-76 207.08,-62.33 207.39,-43.8 209.34,-30.02"/>
<polygon fill="midnightblue" stroke="midnightblue" points="212.86,-30.23 211.2,-19.77 205.97,-28.98 212.86,-30.23"/>
</g>
<!-- Node22&#45;&gt;Node10 -->
<g id="edge25" class="edge">
<title>Node22&#45;&gt;Node10</title>
<path fill="none" stroke="midnightblue" d="M289.91,-112.08C282.34,-104.22 271.12,-92.57 261.99,-83.08"/>
<polygon fill="midnightblue" stroke="midnightblue" points="264.38,-80.53 254.93,-75.75 259.34,-85.38 264.38,-80.53"/>
</g>
<!-- Node22&#45;&gt;Node11 -->
<g id="edge27" class="edge">
<title>Node22&#45;&gt;Node11</title>
<path fill="none" stroke="midnightblue" d="M301.47,-112.08C303.88,-104.85 307.36,-94.41 310.37,-85.4"/>
<polygon fill="midnightblue" stroke="midnightblue" points="313.74,-86.34 313.58,-75.75 307.1,-84.13 313.74,-86.34"/>
</g>
</g>
</svg>
