<?xml version="1.0" encoding="UTF-8" standalone="no"?>
<!DOCTYPE svg PUBLIC "-//W3C//DTD SVG 1.1//EN"
 "http://www.w3.org/Graphics/SVG/1.1/DTD/svg11.dtd">
<!-- Generated by graphviz version 5.0.1 (0)
 -->
<!-- Title: Data.hpp Pages: 1 -->
<svg width="705pt" height="192pt"
 viewBox="0.00 0.00 704.50 192.00" xmlns="http://www.w3.org/2000/svg" xmlns:xlink="http://www.w3.org/1999/xlink">
<g id="graph0" class="graph" transform="scale(1 1) rotate(0) translate(4 188)">
<title>Data.hpp</title>
<!-- Node1 -->
<g id="node1" class="node">
<title>Node1</title>
<g id="a_node1"><a xlink:title=" ">
<polygon fill="#999999" stroke="#666666" points="382,-184 321,-184 321,-165 382,-165 382,-184"/>
<text text-anchor="middle" x="351.5" y="-172" font-family="Helvetica,sans-Serif" font-size="10.00">Data.hpp</text>
</a>
</g>
</g>
<!-- Node2 -->
<g id="node2" class="node">
<title>Node2</title>
<g id="a_node2"><a xlink:href="Log_8hpp.html" target="_top" xlink:title=" ">
<polygon fill="white" stroke="#666666" points="442.5,-129 368.5,-129 368.5,-110 442.5,-110 442.5,-129"/>
<text text-anchor="middle" x="405.5" y="-117" font-family="Helvetica,sans-Serif" font-size="10.00">util/Log.hpp</text>
</a>
</g>
</g>
<!-- Node1&#45;&gt;Node2 -->
<g id="edge1" class="edge">
<title>Node1&#45;&gt;Node2</title>
<path fill="none" stroke="#63b8ff" d="M360.42,-164.75C368.28,-157.03 379.93,-145.6 389.42,-136.28"/>
<polygon fill="#63b8ff" stroke="#63b8ff" points="392.06,-138.59 396.75,-129.09 387.16,-133.6 392.06,-138.59"/>
</g>
<!-- Node10 -->
<g id="node10" class="node">
<title>Node10</title>
<g id="a_node10"><a xlink:title=" ">
<polygon fill="#e0e0e0" stroke="#999999" points="268.5,-74 224.5,-74 224.5,-55 268.5,-55 268.5,-74"/>
<text text-anchor="middle" x="246.5" y="-62" font-family="Helvetica,sans-Serif" font-size="10.00">string</text>
</a>
</g>
</g>
<!-- Node1&#45;&gt;Node10 -->
<g id="edge18" class="edge">
<title>Node1&#45;&gt;Node10</title>
<path fill="none" stroke="#63b8ff" d="M320.94,-170.88C293.95,-166.77 256.08,-156.19 237.5,-129 228.39,-115.67 232.49,-97.06 237.76,-83.43"/>
<polygon fill="#63b8ff" stroke="#63b8ff" points="241.02,-84.72 241.81,-74.16 234.6,-81.92 241.02,-84.72"/>
</g>
<!-- Node14 -->
<g id="node14" class="node">
<title>Node14</title>
<g id="a_node14"><a xlink:href="Float_8hpp.html" target="_top" xlink:title=" ">
<polygon fill="white" stroke="#666666" points="91,-74 0,-74 0,-55 91,-55 91,-74"/>
<text text-anchor="middle" x="45.5" y="-62" font-family="Helvetica,sans-Serif" font-size="10.00">math/Float.hpp</text>
</a>
</g>
</g>
<!-- Node1&#45;&gt;Node14 -->
<g id="edge13" class="edge">
<title>Node1&#45;&gt;Node14</title>
<path fill="none" stroke="#63b8ff" d="M320.78,-172.34C256.31,-169.33 109.7,-159.26 71.5,-129 57.66,-118.04 51.13,-98.48 48.09,-83.96"/>
<polygon fill="#63b8ff" stroke="#63b8ff" points="51.53,-83.32 46.37,-74.06 44.63,-84.51 51.53,-83.32"/>
</g>
<!-- Node15 -->
<g id="node15" class="node">
<title>Node15</title>
<g id="a_node15"><a xlink:href="Complex_8hpp.html" target="_top" xlink:title=" ">
<polygon fill="white" stroke="#666666" points="190.5,-129 80.5,-129 80.5,-110 190.5,-110 190.5,-129"/>
<text text-anchor="middle" x="135.5" y="-117" font-family="Helvetica,sans-Serif" font-size="10.00">math/Complex.hpp</text>
</a>
</g>
</g>
<!-- Node1&#45;&gt;Node15 -->
<g id="edge15" class="edge">
<title>Node1&#45;&gt;Node15</title>
<path fill="none" stroke="#63b8ff" d="M320.55,-165.91C283.8,-156.89 222.22,-141.78 180.28,-131.49"/>
<polygon fill="#63b8ff" stroke="#63b8ff" points="180.87,-128.03 170.33,-129.05 179.2,-134.83 180.87,-128.03"/>
</g>
<!-- Node17 -->
<g id="node17" class="node">
<title>Node17</title>
<g id="a_node17"><a xlink:title=" ">
<polygon fill="#e0e0e0" stroke="#999999" points="498.5,-129 460.5,-129 460.5,-110 498.5,-110 498.5,-129"/>
<text text-anchor="middle" x="479.5" y="-117" font-family="Helvetica,sans-Serif" font-size="10.00">map</text>
</a>
</g>
</g>
<!-- Node1&#45;&gt;Node17 -->
<g id="edge19" class="edge">
<title>Node1&#45;&gt;Node17</title>
<path fill="none" stroke="#63b8ff" d="M372.07,-164.98C393.43,-156.14 427.03,-142.23 450.96,-132.32"/>
<polygon fill="#63b8ff" stroke="#63b8ff" points="452.34,-135.53 460.24,-128.47 449.66,-129.07 452.34,-135.53"/>
</g>
<!-- Node18 -->
<g id="node18" class="node">
<title>Node18</title>
<g id="a_node18"><a xlink:title=" ">
<polygon fill="#e0e0e0" stroke="#999999" points="564,-129 517,-129 517,-110 564,-110 564,-129"/>
<text text-anchor="middle" x="540.5" y="-117" font-family="Helvetica,sans-Serif" font-size="10.00">vector</text>
</a>
</g>
</g>
<!-- Node1&#45;&gt;Node18 -->
<g id="edge20" class="edge">
<title>Node1&#45;&gt;Node18</title>
<path fill="none" stroke="#63b8ff" d="M381.87,-164.98C416.06,-155.4 471.45,-139.86 506.91,-129.92"/>
<polygon fill="#63b8ff" stroke="#63b8ff" points="508.11,-133.22 516.79,-127.15 506.22,-126.48 508.11,-133.22"/>
</g>
<!-- Node19 -->
<g id="node19" class="node">
<title>Node19</title>
<g id="a_node19"><a xlink:href="Tensor_8hpp.html" target="_top" xlink:title=" ">
<polygon fill="white" stroke="#666666" points="686,-129 599,-129 599,-110 686,-110 686,-129"/>
<text text-anchor="middle" x="642.5" y="-117" font-family="Helvetica,sans-Serif" font-size="10.00">util/Tensor.hpp</text>
</a>
</g>
</g>
<!-- Node1&#45;&gt;Node19 -->
<g id="edge21" class="edge">
<title>Node1&#45;&gt;Node19</title>
<path fill="none" stroke="#63b8ff" d="M382.09,-167.93C431.13,-159 527.98,-141.36 588.76,-130.29"/>
<polygon fill="#63b8ff" stroke="#63b8ff" points="589.71,-133.67 598.92,-128.44 588.46,-126.79 589.71,-133.67"/>
</g>
<!-- Node22 -->
<g id="node22" class="node">
<title>Node22</title>
<g id="a_node22"><a xlink:href="Exception_8hpp.html" target="_top" xlink:title=" ">
<polygon fill="white" stroke="#666666" points="350.5,-129 246.5,-129 246.5,-110 350.5,-110 350.5,-129"/>
<text text-anchor="middle" x="298.5" y="-117" font-family="Helvetica,sans-Serif" font-size="10.00">util/Exception.hpp</text>
</a>
</g>
</g>
<!-- Node1&#45;&gt;Node22 -->
<g id="edge24" class="edge">
<title>Node1&#45;&gt;Node22</title>
<path fill="none" stroke="#63b8ff" d="M342.75,-164.75C335.03,-157.03 323.6,-145.6 314.28,-136.28"/>
<polygon fill="#63b8ff" stroke="#63b8ff" points="316.64,-133.69 307.09,-129.09 311.69,-138.64 316.64,-133.69"/>
</g>
<!-- Node3 -->
<g id="node3" class="node">
<title>Node3</title>
<g id="a_node3"><a xlink:href="Time_8hpp.html" target="_top" xlink:title=" ">
<polygon fill="white" stroke="#666666" points="446,-74 365,-74 365,-55 446,-55 446,-74"/>
<text text-anchor="middle" x="405.5" y="-62" font-family="Helvetica,sans-Serif" font-size="10.00">util/Time.hpp</text>
</a>
</g>
</g>
<!-- Node2&#45;&gt;Node3 -->
<g id="edge2" class="edge">
<title>Node2&#45;&gt;Node3</title>
<path fill="none" stroke="#63b8ff" d="M405.5,-109.75C405.5,-102.8 405.5,-92.85 405.5,-84.13"/>
<polygon fill="#63b8ff" stroke="#63b8ff" points="409,-84.09 405.5,-74.09 402,-84.09 409,-84.09"/>
</g>
<!-- Node2&#45;&gt;Node10 -->
<g id="edge9" class="edge">
<title>Node2&#45;&gt;Node10</title>
<path fill="none" stroke="#63b8ff" d="M379.95,-109.98C352.27,-100.76 308.06,-86.02 278.19,-76.06"/>
<polygon fill="#63b8ff" stroke="#63b8ff" points="279.24,-72.72 268.65,-72.88 277.03,-79.37 279.24,-72.72"/>
</g>
<!-- Node11 -->
<g id="node11" class="node">
<title>Node11</title>
<g id="a_node11"><a xlink:title=" ">
<polygon fill="#e0e0e0" stroke="#999999" points="346.5,-74 286.5,-74 286.5,-55 346.5,-55 346.5,-74"/>
<text text-anchor="middle" x="316.5" y="-62" font-family="Helvetica,sans-Serif" font-size="10.00">iostream</text>
</a>
</g>
</g>
<!-- Node2&#45;&gt;Node11 -->
<g id="edge10" class="edge">
<title>Node2&#45;&gt;Node11</title>
<path fill="none" stroke="#63b8ff" d="M391.2,-109.98C377.4,-101.77 356.26,-89.18 339.99,-79.49"/>
<polygon fill="#63b8ff" stroke="#63b8ff" points="341.44,-76.28 331.06,-74.17 337.86,-82.29 341.44,-76.28"/>
</g>
<!-- Node12 -->
<g id="node12" class="node">
<title>Node12</title>
<g id="a_node12"><a xlink:title=" ">
<polygon fill="#e0e0e0" stroke="#999999" points="531,-74 464,-74 464,-55 531,-55 531,-74"/>
<text text-anchor="middle" x="497.5" y="-62" font-family="Helvetica,sans-Serif" font-size="10.00">streambuf</text>
</a>
</g>
</g>
<!-- Node2&#45;&gt;Node12 -->
<g id="edge11" class="edge">
<title>Node2&#45;&gt;Node12</title>
<path fill="none" stroke="#63b8ff" d="M420.28,-109.98C434.68,-101.69 456.81,-88.94 473.69,-79.22"/>
<polygon fill="#63b8ff" stroke="#63b8ff" points="475.53,-82.19 482.45,-74.17 472.04,-76.13 475.53,-82.19"/>
</g>
<!-- Node13 -->
<g id="node13" class="node">
<title>Node13</title>
<g id="a_node13"><a xlink:title=" ">
<polygon fill="#e0e0e0" stroke="#999999" points="604,-74 549,-74 549,-55 604,-55 604,-74"/>
<text text-anchor="middle" x="576.5" y="-62" font-family="Helvetica,sans-Serif" font-size="10.00">fstream</text>
</a>
</g>
</g>
<!-- Node2&#45;&gt;Node13 -->
<g id="edge12" class="edge">
<title>Node2&#45;&gt;Node13</title>
<path fill="none" stroke="#63b8ff" d="M432.97,-109.98C461.68,-101.09 506.92,-87.07 538.92,-77.15"/>
<polygon fill="#63b8ff" stroke="#63b8ff" points="540.3,-80.39 548.81,-74.08 538.22,-73.7 540.3,-80.39"/>
</g>
<!-- Node4 -->
<g id="node4" class="node">
<title>Node4</title>
<g id="a_node4"><a xlink:title=" ">
<polygon fill="#e0e0e0" stroke="#999999" points="528.5,-19 484.5,-19 484.5,0 528.5,0 528.5,-19"/>
<text text-anchor="middle" x="506.5" y="-7" font-family="Helvetica,sans-Serif" font-size="10.00">ctime</text>
</a>
</g>
</g>
<!-- Node3&#45;&gt;Node4 -->
<g id="edge3" class="edge">
<title>Node3&#45;&gt;Node4</title>
<path fill="none" stroke="#63b8ff" d="M421.73,-54.98C437.68,-46.61 462.28,-33.7 480.88,-23.95"/>
<polygon fill="#63b8ff" stroke="#63b8ff" points="482.75,-26.92 489.98,-19.17 479.5,-20.72 482.75,-26.92"/>
</g>
<!-- Node5 -->
<g id="node5" class="node">
<title>Node5</title>
<g id="a_node5"><a xlink:title=" ">
<polygon fill="#e0e0e0" stroke="#999999" points="326.5,-19 276.5,-19 276.5,0 326.5,0 326.5,-19"/>
<text text-anchor="middle" x="301.5" y="-7" font-family="Helvetica,sans-Serif" font-size="10.00">cstdint</text>
</a>
</g>
</g>
<!-- Node3&#45;&gt;Node5 -->
<g id="edge4" class="edge">
<title>Node3&#45;&gt;Node5</title>
<path fill="none" stroke="#63b8ff" d="M388.79,-54.98C372.29,-46.57 346.8,-33.59 327.62,-23.81"/>
<polygon fill="#63b8ff" stroke="#63b8ff" points="329.01,-20.59 318.51,-19.17 325.83,-26.83 329.01,-20.59"/>
</g>
<!-- Node6 -->
<g id="node6" class="node">
<title>Node6</title>
<g id="a_node6"><a xlink:title=" ">
<polygon fill="#e0e0e0" stroke="#999999" points="129,-19 72,-19 72,0 129,0 129,-19"/>
<text text-anchor="middle" x="100.5" y="-7" font-family="Helvetica,sans-Serif" font-size="10.00">ostream</text>
</a>
</g>
</g>
<!-- Node3&#45;&gt;Node6 -->
<g id="edge5" class="edge">
<title>Node3&#45;&gt;Node6</title>
<path fill="none" stroke="#63b8ff" d="M365,-56.46C305.99,-46.21 197.13,-27.29 139.17,-17.22"/>
<polygon fill="#63b8ff" stroke="#63b8ff" points="139.76,-13.77 129.31,-15.51 138.56,-20.67 139.76,-13.77"/>
</g>
<!-- Node7 -->
<g id="node7" class="node">
<title>Node7</title>
<g id="a_node7"><a xlink:title=" ">
<polygon fill="#e0e0e0" stroke="#999999" points="400.5,-19 344.5,-19 344.5,0 400.5,0 400.5,-19"/>
<text text-anchor="middle" x="372.5" y="-7" font-family="Helvetica,sans-Serif" font-size="10.00">iomanip</text>
</a>
</g>
</g>
<!-- Node3&#45;&gt;Node7 -->
<g id="edge6" class="edge">
<title>Node3&#45;&gt;Node7</title>
<path fill="none" stroke="#63b8ff" d="M400.05,-54.75C395.49,-47.42 388.83,-36.73 383.21,-27.7"/>
<polygon fill="#63b8ff" stroke="#63b8ff" points="386.1,-25.73 377.85,-19.09 380.16,-29.43 386.1,-25.73"/>
</g>
<!-- Node8 -->
<g id="node8" class="node">
<title>Node8</title>
<g id="a_node8"><a xlink:title=" ">
<polygon fill="#e0e0e0" stroke="#999999" points="241.5,-19 185.5,-19 185.5,0 241.5,0 241.5,-19"/>
<text text-anchor="middle" x="213.5" y="-7" font-family="Helvetica,sans-Serif" font-size="10.00">sstream</text>
</a>
</g>
</g>
<!-- Node3&#45;&gt;Node8 -->
<g id="edge7" class="edge">
<title>Node3&#45;&gt;Node8</title>
<path fill="none" stroke="#63b8ff" d="M374.65,-54.98C341.13,-45.73 287.53,-30.94 251.45,-20.98"/>
<polygon fill="#63b8ff" stroke="#63b8ff" points="252.34,-17.59 241.77,-18.3 250.48,-24.34 252.34,-17.59"/>
</g>
<!-- Node9 -->
<g id="node9" class="node">
<title>Node9</title>
<g id="a_node9"><a xlink:title=" ">
<polygon fill="#e0e0e0" stroke="#999999" points="466,-19 419,-19 419,0 466,0 466,-19"/>
<text text-anchor="middle" x="442.5" y="-7" font-family="Helvetica,sans-Serif" font-size="10.00">cmath</text>
</a>
</g>
</g>
<!-- Node3&#45;&gt;Node9 -->
<g id="edge8" class="edge">
<title>Node3&#45;&gt;Node9</title>
<path fill="none" stroke="#63b8ff" d="M411.61,-54.75C416.78,-47.34 424.35,-36.5 430.69,-27.41"/>
<polygon fill="#63b8ff" stroke="#63b8ff" points="433.65,-29.29 436.5,-19.09 427.91,-25.29 433.65,-29.29"/>
</g>
<!-- Node14&#45;&gt;Node6 -->
<g id="edge14" class="edge">
<title>Node14&#45;&gt;Node6</title>
<path fill="none" stroke="#63b8ff" d="M54.58,-54.75C62.59,-47.03 74.46,-35.6 84.12,-26.28"/>
<polygon fill="#63b8ff" stroke="#63b8ff" points="86.81,-28.55 91.59,-19.09 81.96,-23.51 86.81,-28.55"/>
</g>
<!-- Node15&#45;&gt;Node14 -->
<g id="edge16" class="edge">
<title>Node15&#45;&gt;Node14</title>
<path fill="none" stroke="#63b8ff" d="M121.04,-109.98C107.08,-101.77 85.71,-89.18 69.25,-79.49"/>
<polygon fill="#63b8ff" stroke="#63b8ff" points="70.62,-76.23 60.22,-74.17 67.06,-82.26 70.62,-76.23"/>
</g>
<!-- Node16 -->
<g id="node16" class="node">
<title>Node16</title>
<g id="a_node16"><a xlink:title=" ">
<polygon fill="#e0e0e0" stroke="#999999" points="168,-74 109,-74 109,-55 168,-55 168,-74"/>
<text text-anchor="middle" x="138.5" y="-62" font-family="Helvetica,sans-Serif" font-size="10.00">complex</text>
</a>
</g>
</g>
<!-- Node15&#45;&gt;Node16 -->
<g id="edge17" class="edge">
<title>Node15&#45;&gt;Node16</title>
<path fill="none" stroke="#63b8ff" d="M136,-109.75C136.39,-102.8 136.95,-92.85 137.45,-84.13"/>
<polygon fill="#63b8ff" stroke="#63b8ff" points="140.94,-84.27 138.01,-74.09 133.95,-83.88 140.94,-84.27"/>
</g>
<!-- Node20 -->
<g id="node20" class="node">
<title>Node20</title>
<g id="a_node20"><a xlink:href="CTF_8hpp.html" target="_top" xlink:title=" ">
<polygon fill="white" stroke="#666666" points="696.5,-74 622.5,-74 622.5,-55 696.5,-55 696.5,-74"/>
<text text-anchor="middle" x="659.5" y="-62" font-family="Helvetica,sans-Serif" font-size="10.00">util/CTF.hpp</text>
</a>
</g>
</g>
<!-- Node19&#45;&gt;Node20 -->
<g id="edge22" class="edge">
<title>Node19&#45;&gt;Node20</title>
<path fill="none" stroke="#63b8ff" d="M645.31,-109.75C647.56,-102.72 650.8,-92.62 653.62,-83.84"/>
<polygon fill="#63b8ff" stroke="#63b8ff" points="657.02,-84.68 656.75,-74.09 650.36,-82.54 657.02,-84.68"/>
</g>
<!-- Node21 -->
<g id="node21" class="node">
<title>Node21</title>
<g id="a_node21"><a xlink:title=" ">
<polygon fill="#e0e0e0" stroke="#999999" points="684.5,-19 634.5,-19 634.5,0 684.5,0 684.5,-19"/>
<text text-anchor="middle" x="659.5" y="-7" font-family="Helvetica,sans-Serif" font-size="10.00">ctf.hpp</text>
</a>
</g>
</g>
<!-- Node20&#45;&gt;Node21 -->
<g id="edge23" class="edge">
<title>Node20&#45;&gt;Node21</title>
<path fill="none" stroke="#63b8ff" d="M659.5,-54.75C659.5,-47.8 659.5,-37.85 659.5,-29.13"/>
<polygon fill="#63b8ff" stroke="#63b8ff" points="663,-29.09 659.5,-19.09 656,-29.09 663,-29.09"/>
</g>
<!-- Node22&#45;&gt;Node8 -->
<g id="edge26" class="edge">
<title>Node22&#45;&gt;Node8</title>
<path fill="none" stroke="#63b8ff" d="M266.11,-109.9C247.93,-103.26 226.7,-92.06 215.5,-74 207.24,-60.67 207.53,-42.56 209.43,-29.09"/>
<polygon fill="#63b8ff" stroke="#63b8ff" points="212.91,-29.54 211.25,-19.07 206.02,-28.29 212.91,-29.54"/>
</g>
<!-- Node22&#45;&gt;Node10 -->
<g id="edge25" class="edge">
<title>Node22&#45;&gt;Node10</title>
<path fill="none" stroke="#63b8ff" d="M289.91,-109.75C282.34,-102.03 271.12,-90.6 261.99,-81.28"/>
<polygon fill="#63b8ff" stroke="#63b8ff" points="264.43,-78.78 254.93,-74.09 259.43,-83.68 264.43,-78.78"/>
</g>
<!-- Node22&#45;&gt;Node11 -->
<g id="edge27" class="edge">
<title>Node22&#45;&gt;Node11</title>
<path fill="none" stroke="#63b8ff" d="M301.47,-109.75C303.86,-102.72 307.29,-92.62 310.27,-83.84"/>
<polygon fill="#63b8ff" stroke="#63b8ff" points="313.68,-84.68 313.58,-74.09 307.05,-82.43 313.68,-84.68"/>
</g>
</g>
</svg>
