<?xml version="1.0" encoding="UTF-8" standalone="no"?>
<!DOCTYPE svg PUBLIC "-//W3C//DTD SVG 1.1//EN"
 "http://www.w3.org/Graphics/SVG/1.1/DTD/svg11.dtd">
<!-- Generated by graphviz version 8.1.0 (0)
 -->
<!-- Title: Data.cxx Pages: 1 -->
<svg width="715pt" height="256pt"
 viewBox="0.00 0.00 715.38 255.75" xmlns="http://www.w3.org/2000/svg" xmlns:xlink="http://www.w3.org/1999/xlink">
<g id="graph0" class="graph" transform="scale(1 1) rotate(0) translate(4 251.75)">
<title>Data.cxx</title>
<!-- Node1 -->
<g id="Node000001" class="node">
<title>Node1</title>
<g id="a_Node000001"><a xlink:title=" ">
<polygon fill="#999999" stroke="#666666" points="175.62,-247.75 116.12,-247.75 116.12,-227 175.62,-227 175.62,-247.75"/>
<text text-anchor="middle" x="145.88" y="-234.25" font-family="Helvetica,sans-Serif" font-size="10.00">Data.cxx</text>
</a>
</g>
</g>
<!-- Node2 -->
<g id="Node000002" class="node">
<title>Node2</title>
<g id="a_Node000002"><a xlink:href="Data_8hpp.html" target="_top" xlink:title=" ">
<polygon fill="white" stroke="#666666" points="332,-191 271.75,-191 271.75,-170.25 332,-170.25 332,-191"/>
<text text-anchor="middle" x="301.88" y="-177.5" font-family="Helvetica,sans-Serif" font-size="10.00">Data.hpp</text>
</a>
</g>
</g>
<!-- Node1&#45;&gt;Node2 -->
<g id="edge1_Node000001_Node000002" class="edge">
<title>Node1&#45;&gt;Node2</title>
<g id="a_edge1_Node000001_Node000002"><a xlink:title=" ">
<path fill="none" stroke="#63b8ff" d="M173.76,-226.59C198.87,-217.78 235.97,-204.75 263.8,-194.99"/>
<polygon fill="#63b8ff" stroke="#63b8ff" points="264.69,-198.03 272.96,-191.42 262.37,-191.43 264.69,-198.03"/>
</a>
</g>
</g>
<!-- Node9 -->
<g id="Node000009" class="node">
<title>Node9</title>
<g id="a_Node000009"><a xlink:title=" ">
<polygon fill="#e0e0e0" stroke="#999999" points="55.75,-20.75 0,-20.75 0,0 55.75,0 55.75,-20.75"/>
<text text-anchor="middle" x="27.88" y="-7.25" font-family="Helvetica,sans-Serif" font-size="10.00">sstream</text>
</a>
</g>
</g>
<!-- Node1&#45;&gt;Node9 -->
<g id="edge29_Node000001_Node000009" class="edge">
<title>Node1&#45;&gt;Node9</title>
<g id="a_edge29_Node000001_Node000009"><a xlink:title=" ">
<path fill="none" stroke="#63b8ff" d="M123.84,-226.53C93.43,-211.58 39.89,-179.97 17.88,-134.25 1.85,-100.97 11.98,-56.72 20.28,-31.42"/>
<polygon fill="#63b8ff" stroke="#63b8ff" points="23.84,-32.82 23.86,-22.23 17.24,-30.5 23.84,-32.82"/>
</a>
</g>
</g>
<!-- Node3 -->
<g id="Node000003" class="node">
<title>Node3</title>
<g id="a_Node000003"><a xlink:href="Log_8hpp.html" target="_top" xlink:title=" ">
<polygon fill="white" stroke="#666666" points="265.38,-134.25 192.38,-134.25 192.38,-113.5 265.38,-113.5 265.38,-134.25"/>
<text text-anchor="middle" x="228.88" y="-120.75" font-family="Helvetica,sans-Serif" font-size="10.00">util/Log.hpp</text>
</a>
</g>
</g>
<!-- Node2&#45;&gt;Node3 -->
<g id="edge2_Node000002_Node000003" class="edge">
<title>Node2&#45;&gt;Node3</title>
<g id="a_edge2_Node000002_Node000003"><a xlink:title=" ">
<path fill="none" stroke="#63b8ff" d="M288.82,-169.84C278.13,-161.82 262.78,-150.31 250.29,-140.94"/>
<polygon fill="#63b8ff" stroke="#63b8ff" points="252.91,-137.78 242.81,-134.58 248.71,-143.38 252.91,-137.78"/>
</a>
</g>
</g>
<!-- Node11 -->
<g id="Node000011" class="node">
<title>Node11</title>
<g id="a_Node000011"><a xlink:title=" ">
<polygon fill="#e0e0e0" stroke="#999999" points="99.75,-77.5 56,-77.5 56,-56.75 99.75,-56.75 99.75,-77.5"/>
<text text-anchor="middle" x="77.88" y="-64" font-family="Helvetica,sans-Serif" font-size="10.00">string</text>
</a>
</g>
</g>
<!-- Node2&#45;&gt;Node11 -->
<g id="edge19_Node000002_Node000011" class="edge">
<title>Node2&#45;&gt;Node11</title>
<g id="a_edge19_Node000002_Node000011"><a xlink:title=" ">
<path fill="none" stroke="#63b8ff" d="M271.34,-169.85C246.87,-161.58 211.95,-148.77 182.88,-134.25 153.09,-119.38 121.01,-98.37 100.25,-84.05"/>
<polygon fill="#63b8ff" stroke="#63b8ff" points="102.5,-80.65 92.3,-77.8 98.49,-86.39 102.5,-80.65"/>
</a>
</g>
</g>
<!-- Node15 -->
<g id="Node000015" class="node">
<title>Node15</title>
<g id="a_Node000015"><a xlink:href="Float_8hpp.html" target="_top" xlink:title=" ">
<polygon fill="white" stroke="#666666" points="616,-77.5 525.75,-77.5 525.75,-56.75 616,-56.75 616,-77.5"/>
<text text-anchor="middle" x="570.88" y="-64" font-family="Helvetica,sans-Serif" font-size="10.00">math/Float.hpp</text>
</a>
</g>
</g>
<!-- Node2&#45;&gt;Node15 -->
<g id="edge14_Node000002_Node000015" class="edge">
<title>Node2&#45;&gt;Node15</title>
<g id="a_edge14_Node000002_Node000015"><a xlink:title=" ">
<path fill="none" stroke="#63b8ff" d="M332.07,-177.4C389.08,-172.65 509.77,-159.8 541.88,-134.25 555.96,-123.04 563.37,-103.6 567.16,-88.69"/>
<polygon fill="#63b8ff" stroke="#63b8ff" points="570.79,-89.46 569.48,-78.95 563.95,-87.98 570.79,-89.46"/>
</a>
</g>
</g>
<!-- Node16 -->
<g id="Node000016" class="node">
<title>Node16</title>
<g id="a_Node000016"><a xlink:href="Complex_8hpp.html" target="_top" xlink:title=" ">
<polygon fill="white" stroke="#666666" points="533.38,-134.25 424.38,-134.25 424.38,-113.5 533.38,-113.5 533.38,-134.25"/>
<text text-anchor="middle" x="478.88" y="-120.75" font-family="Helvetica,sans-Serif" font-size="10.00">math/Complex.hpp</text>
</a>
</g>
</g>
<!-- Node2&#45;&gt;Node16 -->
<g id="edge16_Node000002_Node000016" class="edge">
<title>Node2&#45;&gt;Node16</title>
<g id="a_edge16_Node000002_Node000016"><a xlink:title=" ">
<path fill="none" stroke="#63b8ff" d="M332.3,-170.21C361.07,-161.31 404.51,-147.88 436.63,-137.94"/>
<polygon fill="#63b8ff" stroke="#63b8ff" points="437.54,-141.02 446.06,-134.72 435.47,-134.33 437.54,-141.02"/>
</a>
</g>
</g>
<!-- Node18 -->
<g id="Node000018" class="node">
<title>Node18</title>
<g id="a_Node000018"><a xlink:title=" ">
<polygon fill="#e0e0e0" stroke="#999999" points="320.75,-134.25 283,-134.25 283,-113.5 320.75,-113.5 320.75,-134.25"/>
<text text-anchor="middle" x="301.88" y="-120.75" font-family="Helvetica,sans-Serif" font-size="10.00">map</text>
</a>
</g>
</g>
<!-- Node2&#45;&gt;Node18 -->
<g id="edge20_Node000002_Node000018" class="edge">
<title>Node2&#45;&gt;Node18</title>
<g id="a_edge20_Node000002_Node000018"><a xlink:title=" ">
<path fill="none" stroke="#63b8ff" d="M301.88,-169.84C301.88,-163.06 301.88,-153.8 301.88,-145.44"/>
<polygon fill="#63b8ff" stroke="#63b8ff" points="305.38,-145.58 301.88,-135.58 298.38,-145.58 305.38,-145.58"/>
</a>
</g>
</g>
<!-- Node19 -->
<g id="Node000019" class="node">
<title>Node19</title>
<g id="a_Node000019"><a xlink:title=" ">
<polygon fill="#e0e0e0" stroke="#999999" points="385.25,-134.25 338.5,-134.25 338.5,-113.5 385.25,-113.5 385.25,-134.25"/>
<text text-anchor="middle" x="361.88" y="-120.75" font-family="Helvetica,sans-Serif" font-size="10.00">vector</text>
</a>
</g>
</g>
<!-- Node2&#45;&gt;Node19 -->
<g id="edge21_Node000002_Node000019" class="edge">
<title>Node2&#45;&gt;Node19</title>
<g id="a_edge21_Node000002_Node000019"><a xlink:title=" ">
<path fill="none" stroke="#63b8ff" d="M312.6,-169.84C321.13,-162.05 333.27,-150.97 343.37,-141.76"/>
<polygon fill="#63b8ff" stroke="#63b8ff" points="345.21,-144.9 350.24,-135.58 340.5,-139.73 345.21,-144.9"/>
</a>
</g>
</g>
<!-- Node20 -->
<g id="Node000020" class="node">
<title>Node20</title>
<g id="a_Node000020"><a xlink:href="Tensor_8hpp.html" target="_top" xlink:title=" ">
<polygon fill="white" stroke="#666666" points="697.12,-134.25 610.62,-134.25 610.62,-113.5 697.12,-113.5 697.12,-134.25"/>
<text text-anchor="middle" x="653.88" y="-120.75" font-family="Helvetica,sans-Serif" font-size="10.00">util/Tensor.hpp</text>
</a>
</g>
</g>
<!-- Node2&#45;&gt;Node20 -->
<g id="edge22_Node000002_Node000020" class="edge">
<title>Node2&#45;&gt;Node20</title>
<g id="a_edge22_Node000002_Node000020"><a xlink:title=" ">
<path fill="none" stroke="#63b8ff" d="M332.5,-174.86C392.2,-165.58 524.86,-144.94 599.73,-133.3"/>
<polygon fill="#63b8ff" stroke="#63b8ff" points="600,-136.64 609.34,-131.65 598.92,-129.72 600,-136.64"/>
</a>
</g>
</g>
<!-- Node23 -->
<g id="Node000023" class="node">
<title>Node23</title>
<g id="a_Node000023"><a xlink:href="Exception_8hpp.html" target="_top" xlink:title=" ">
<polygon fill="white" stroke="#666666" points="130.75,-134.25 27,-134.25 27,-113.5 130.75,-113.5 130.75,-134.25"/>
<text text-anchor="middle" x="78.88" y="-120.75" font-family="Helvetica,sans-Serif" font-size="10.00">util/Exception.hpp</text>
</a>
</g>
</g>
<!-- Node2&#45;&gt;Node23 -->
<g id="edge25_Node000002_Node000023" class="edge">
<title>Node2&#45;&gt;Node23</title>
<g id="a_edge25_Node000002_Node000023"><a xlink:title=" ">
<path fill="none" stroke="#63b8ff" d="M271.34,-172.13C234.75,-163.14 172.93,-147.97 129.24,-137.24"/>
<polygon fill="#63b8ff" stroke="#63b8ff" points="130.37,-133.67 119.83,-134.68 128.7,-140.47 130.37,-133.67"/>
</a>
</g>
</g>
<!-- Node4 -->
<g id="Node000004" class="node">
<title>Node4</title>
<g id="a_Node000004"><a xlink:href="Time_8hpp.html" target="_top" xlink:title=" ">
<polygon fill="white" stroke="#666666" points="432.12,-77.5 351.62,-77.5 351.62,-56.75 432.12,-56.75 432.12,-77.5"/>
<text text-anchor="middle" x="391.88" y="-64" font-family="Helvetica,sans-Serif" font-size="10.00">util/Time.hpp</text>
</a>
</g>
</g>
<!-- Node3&#45;&gt;Node4 -->
<g id="edge3_Node000003_Node000004" class="edge">
<title>Node3&#45;&gt;Node4</title>
<g id="a_edge3_Node000003_Node000004"><a xlink:title=" ">
<path fill="none" stroke="#63b8ff" d="M258.02,-113.09C284.36,-104.24 323.36,-91.14 352.47,-81.36"/>
<polygon fill="#63b8ff" stroke="#63b8ff" points="353.35,-84.42 361.71,-77.92 351.12,-77.79 353.35,-84.42"/>
</a>
</g>
</g>
<!-- Node3&#45;&gt;Node11 -->
<g id="edge10_Node000003_Node000011" class="edge">
<title>Node3&#45;&gt;Node11</title>
<g id="a_edge10_Node000003_Node000011"><a xlink:title=" ">
<path fill="none" stroke="#63b8ff" d="M201.88,-113.09C176.27,-103.8 137.74,-89.83 110.44,-79.93"/>
<polygon fill="#63b8ff" stroke="#63b8ff" points="111.81,-76.34 101.21,-76.22 109.42,-82.92 111.81,-76.34"/>
</a>
</g>
</g>
<!-- Node12 -->
<g id="Node000012" class="node">
<title>Node12</title>
<g id="a_Node000012"><a xlink:title=" ">
<polygon fill="#e0e0e0" stroke="#999999" points="177.62,-77.5 118.12,-77.5 118.12,-56.75 177.62,-56.75 177.62,-77.5"/>
<text text-anchor="middle" x="147.88" y="-64" font-family="Helvetica,sans-Serif" font-size="10.00">iostream</text>
</a>
</g>
</g>
<!-- Node3&#45;&gt;Node12 -->
<g id="edge11_Node000003_Node000012" class="edge">
<title>Node3&#45;&gt;Node12</title>
<g id="a_edge11_Node000003_Node000012"><a xlink:title=" ">
<path fill="none" stroke="#63b8ff" d="M214.39,-113.09C202.41,-104.99 185.17,-93.33 171.24,-83.92"/>
<polygon fill="#63b8ff" stroke="#63b8ff" points="173.48,-80.53 163.23,-77.83 169.56,-86.33 173.48,-80.53"/>
</a>
</g>
</g>
<!-- Node13 -->
<g id="Node000013" class="node">
<title>Node13</title>
<g id="a_Node000013"><a xlink:title=" ">
<polygon fill="#e0e0e0" stroke="#999999" points="262,-77.5 195.75,-77.5 195.75,-56.75 262,-56.75 262,-77.5"/>
<text text-anchor="middle" x="228.88" y="-64" font-family="Helvetica,sans-Serif" font-size="10.00">streambuf</text>
</a>
</g>
</g>
<!-- Node3&#45;&gt;Node13 -->
<g id="edge12_Node000003_Node000013" class="edge">
<title>Node3&#45;&gt;Node13</title>
<g id="a_edge12_Node000003_Node000013"><a xlink:title=" ">
<path fill="none" stroke="#63b8ff" d="M228.88,-113.09C228.88,-106.31 228.88,-97.05 228.88,-88.69"/>
<polygon fill="#63b8ff" stroke="#63b8ff" points="232.38,-88.83 228.88,-78.83 225.38,-88.83 232.38,-88.83"/>
</a>
</g>
</g>
<!-- Node14 -->
<g id="Node000014" class="node">
<title>Node14</title>
<g id="a_Node000014"><a xlink:title=" ">
<polygon fill="#e0e0e0" stroke="#999999" points="334,-77.5 279.75,-77.5 279.75,-56.75 334,-56.75 334,-77.5"/>
<text text-anchor="middle" x="306.88" y="-64" font-family="Helvetica,sans-Serif" font-size="10.00">fstream</text>
</a>
</g>
</g>
<!-- Node3&#45;&gt;Node14 -->
<g id="edge13_Node000003_Node000014" class="edge">
<title>Node3&#45;&gt;Node14</title>
<g id="a_edge13_Node000003_Node000014"><a xlink:title=" ">
<path fill="none" stroke="#63b8ff" d="M242.82,-113.09C254.36,-104.99 270.96,-93.33 284.38,-83.92"/>
<polygon fill="#63b8ff" stroke="#63b8ff" points="285.88,-86.44 292.05,-77.83 281.86,-80.71 285.88,-86.44"/>
</a>
</g>
</g>
<!-- Node5 -->
<g id="Node000005" class="node">
<title>Node5</title>
<g id="a_Node000005"><a xlink:title=" ">
<polygon fill="#e0e0e0" stroke="#999999" points="488.75,-20.75 445,-20.75 445,0 488.75,0 488.75,-20.75"/>
<text text-anchor="middle" x="466.88" y="-7.25" font-family="Helvetica,sans-Serif" font-size="10.00">ctime</text>
</a>
</g>
</g>
<!-- Node4&#45;&gt;Node5 -->
<g id="edge4_Node000004_Node000005" class="edge">
<title>Node4&#45;&gt;Node5</title>
<g id="a_edge4_Node000004_Node000005"><a xlink:title=" ">
<path fill="none" stroke="#63b8ff" d="M405.28,-56.34C416.27,-48.32 432.04,-36.81 444.87,-27.44"/>
<polygon fill="#63b8ff" stroke="#63b8ff" points="446.57,-29.8 452.58,-21.08 442.44,-24.15 446.57,-29.8"/>
</a>
</g>
</g>
<!-- Node6 -->
<g id="Node000006" class="node">
<title>Node6</title>
<g id="a_Node000006"><a xlink:title=" ">
<polygon fill="#e0e0e0" stroke="#999999" points="289.38,-20.75 240.38,-20.75 240.38,0 289.38,0 289.38,-20.75"/>
<text text-anchor="middle" x="264.88" y="-7.25" font-family="Helvetica,sans-Serif" font-size="10.00">cstdint</text>
</a>
</g>
</g>
<!-- Node4&#45;&gt;Node6 -->
<g id="edge5_Node000004_Node000006" class="edge">
<title>Node4&#45;&gt;Node6</title>
<g id="a_edge5_Node000004_Node000006"><a xlink:title=" ">
<path fill="none" stroke="#63b8ff" d="M369.17,-56.34C349.21,-47.73 319.94,-35.11 297.48,-25.43"/>
<polygon fill="#63b8ff" stroke="#63b8ff" points="298.95,-21.82 288.38,-21.08 296.18,-28.25 298.95,-21.82"/>
</a>
</g>
</g>
<!-- Node7 -->
<g id="Node000007" class="node">
<title>Node7</title>
<g id="a_Node000007"><a xlink:title=" ">
<polygon fill="#e0e0e0" stroke="#999999" points="575.12,-20.75 518.62,-20.75 518.62,0 575.12,0 575.12,-20.75"/>
<text text-anchor="middle" x="546.88" y="-7.25" font-family="Helvetica,sans-Serif" font-size="10.00">ostream</text>
</a>
</g>
</g>
<!-- Node4&#45;&gt;Node7 -->
<g id="edge6_Node000004_Node000007" class="edge">
<title>Node4&#45;&gt;Node7</title>
<g id="a_edge6_Node000004_Node000007"><a xlink:title=" ">
<path fill="none" stroke="#63b8ff" d="M419.59,-56.34C444.53,-47.53 481.39,-34.5 509.04,-24.74"/>
<polygon fill="#63b8ff" stroke="#63b8ff" points="509.88,-27.8 518.14,-21.17 507.55,-21.2 509.88,-27.8"/>
</a>
</g>
</g>
<!-- Node8 -->
<g id="Node000008" class="node">
<title>Node8</title>
<g id="a_Node000008"><a xlink:title=" ">
<polygon fill="#e0e0e0" stroke="#999999" points="362.75,-20.75 307,-20.75 307,0 362.75,0 362.75,-20.75"/>
<text text-anchor="middle" x="334.88" y="-7.25" font-family="Helvetica,sans-Serif" font-size="10.00">iomanip</text>
</a>
</g>
</g>
<!-- Node4&#45;&gt;Node8 -->
<g id="edge7_Node000004_Node000008" class="edge">
<title>Node4&#45;&gt;Node8</title>
<g id="a_edge7_Node000004_Node000008"><a xlink:title=" ">
<path fill="none" stroke="#63b8ff" d="M381.68,-56.34C373.66,-48.63 362.28,-37.7 352.75,-28.54"/>
<polygon fill="#63b8ff" stroke="#63b8ff" points="355.61,-26.48 345.98,-22.08 350.76,-31.53 355.61,-26.48"/>
</a>
</g>
</g>
<!-- Node4&#45;&gt;Node9 -->
<g id="edge8_Node000004_Node000009" class="edge">
<title>Node4&#45;&gt;Node9</title>
<g id="a_edge8_Node000004_Node000009"><a xlink:title=" ">
<path fill="none" stroke="#63b8ff" d="M351.26,-58.21C348.42,-57.7 345.61,-57.21 342.88,-56.75 243.82,-40.15 126.61,-24.24 66.97,-16.42"/>
<polygon fill="#63b8ff" stroke="#63b8ff" points="67.55,-12.83 57.18,-15.01 66.64,-19.77 67.55,-12.83"/>
</a>
</g>
</g>
<!-- Node10 -->
<g id="Node000010" class="node">
<title>Node10</title>
<g id="a_Node000010"><a xlink:title=" ">
<polygon fill="#e0e0e0" stroke="#999999" points="427.25,-20.75 380.5,-20.75 380.5,0 427.25,0 427.25,-20.75"/>
<text text-anchor="middle" x="403.88" y="-7.25" font-family="Helvetica,sans-Serif" font-size="10.00">cmath</text>
</a>
</g>
</g>
<!-- Node4&#45;&gt;Node10 -->
<g id="edge9_Node000004_Node000010" class="edge">
<title>Node4&#45;&gt;Node10</title>
<g id="a_edge9_Node000004_Node000010"><a xlink:title=" ">
<path fill="none" stroke="#63b8ff" d="M394.02,-56.34C395.52,-49.49 397.58,-40.09 399.43,-31.65"/>
<polygon fill="#63b8ff" stroke="#63b8ff" points="403.03,-32.6 401.75,-22.08 396.19,-31.1 403.03,-32.6"/>
</a>
</g>
</g>
<!-- Node15&#45;&gt;Node7 -->
<g id="edge15_Node000015_Node000007" class="edge">
<title>Node15&#45;&gt;Node7</title>
<g id="a_edge15_Node000015_Node000007"><a xlink:title=" ">
<path fill="none" stroke="#63b8ff" d="M566.58,-56.34C563.51,-49.33 559.27,-39.66 555.51,-31.08"/>
<polygon fill="#63b8ff" stroke="#63b8ff" points="558.35,-29.83 551.13,-22.08 551.94,-32.64 558.35,-29.83"/>
</a>
</g>
</g>
<!-- Node16&#45;&gt;Node15 -->
<g id="edge17_Node000016_Node000015" class="edge">
<title>Node16&#45;&gt;Node15</title>
<g id="a_edge17_Node000016_Node000015"><a xlink:title=" ">
<path fill="none" stroke="#63b8ff" d="M495.32,-113.09C509.19,-104.83 529.27,-92.88 545.25,-83.38"/>
<polygon fill="#63b8ff" stroke="#63b8ff" points="546.77,-85.95 553.57,-77.83 543.19,-79.93 546.77,-85.95"/>
</a>
</g>
</g>
<!-- Node17 -->
<g id="Node000017" class="node">
<title>Node17</title>
<g id="a_Node000017"><a xlink:title=" ">
<polygon fill="#e0e0e0" stroke="#999999" points="507.88,-77.5 449.88,-77.5 449.88,-56.75 507.88,-56.75 507.88,-77.5"/>
<text text-anchor="middle" x="478.88" y="-64" font-family="Helvetica,sans-Serif" font-size="10.00">complex</text>
</a>
</g>
</g>
<!-- Node16&#45;&gt;Node17 -->
<g id="edge18_Node000016_Node000017" class="edge">
<title>Node16&#45;&gt;Node17</title>
<g id="a_edge18_Node000016_Node000017"><a xlink:title=" ">
<path fill="none" stroke="#63b8ff" d="M478.88,-113.09C478.88,-106.31 478.88,-97.05 478.88,-88.69"/>
<polygon fill="#63b8ff" stroke="#63b8ff" points="482.38,-88.83 478.88,-78.83 475.38,-88.83 482.38,-88.83"/>
</a>
</g>
</g>
<!-- Node21 -->
<g id="Node000021" class="node">
<title>Node21</title>
<g id="a_Node000021"><a xlink:href="CTF_8hpp.html" target="_top" xlink:title=" ">
<polygon fill="white" stroke="#666666" points="707.38,-77.5 634.38,-77.5 634.38,-56.75 707.38,-56.75 707.38,-77.5"/>
<text text-anchor="middle" x="670.88" y="-64" font-family="Helvetica,sans-Serif" font-size="10.00">util/CTF.hpp</text>
</a>
</g>
</g>
<!-- Node20&#45;&gt;Node21 -->
<g id="edge23_Node000020_Node000021" class="edge">
<title>Node20&#45;&gt;Node21</title>
<g id="a_edge23_Node000020_Node000021"><a xlink:title=" ">
<path fill="none" stroke="#63b8ff" d="M656.91,-113.09C659.07,-106.16 662.03,-96.62 664.67,-88.11"/>
<polygon fill="#63b8ff" stroke="#63b8ff" points="668.24,-89.42 667.86,-78.83 661.55,-87.34 668.24,-89.42"/>
</a>
</g>
</g>
<!-- Node22 -->
<g id="Node000022" class="node">
<title>Node22</title>
<g id="a_Node000022"><a xlink:title=" ">
<polygon fill="#e0e0e0" stroke="#999999" points="695.38,-20.75 646.38,-20.75 646.38,0 695.38,0 695.38,-20.75"/>
<text text-anchor="middle" x="670.88" y="-7.25" font-family="Helvetica,sans-Serif" font-size="10.00">ctf.hpp</text>
</a>
</g>
</g>
<!-- Node21&#45;&gt;Node22 -->
<g id="edge24_Node000021_Node000022" class="edge">
<title>Node21&#45;&gt;Node22</title>
<g id="a_edge24_Node000021_Node000022"><a xlink:title=" ">
<path fill="none" stroke="#63b8ff" d="M670.88,-56.34C670.88,-49.56 670.88,-40.3 670.88,-31.94"/>
<polygon fill="#63b8ff" stroke="#63b8ff" points="674.38,-32.08 670.88,-22.08 667.38,-32.08 674.38,-32.08"/>
</a>
</g>
</g>
<!-- Node23&#45;&gt;Node9 -->
<g id="edge27_Node000023_Node000009" class="edge">
<title>Node23&#45;&gt;Node9</title>
<g id="a_edge27_Node000023_Node000009"><a xlink:title=" ">
<path fill="none" stroke="#63b8ff" d="M70.46,-113.04C63.3,-104.23 53.21,-90.71 46.88,-77.5 39.85,-62.84 34.92,-45.07 31.85,-31.65"/>
<polygon fill="#63b8ff" stroke="#63b8ff" points="35.12,-31.21 29.62,-22.16 28.27,-32.67 35.12,-31.21"/>
</a>
</g>
</g>
<!-- Node23&#45;&gt;Node11 -->
<g id="edge26_Node000023_Node000011" class="edge">
<title>Node23&#45;&gt;Node11</title>
<g id="a_edge26_Node000023_Node000011"><a xlink:title=" ">
<path fill="none" stroke="#63b8ff" d="M78.7,-113.09C78.57,-106.31 78.4,-97.05 78.25,-88.69"/>
<polygon fill="#63b8ff" stroke="#63b8ff" points="81.73,-88.76 78.05,-78.83 74.74,-88.89 81.73,-88.76"/>
</a>
</g>
</g>
<!-- Node23&#45;&gt;Node12 -->
<g id="edge28_Node000023_Node000012" class="edge">
<title>Node23&#45;&gt;Node12</title>
<g id="a_edge28_Node000023_Node000012"><a xlink:title=" ">
<path fill="none" stroke="#63b8ff" d="M91.21,-113.09C101.22,-105.15 115.54,-93.78 127.28,-84.46"/>
<polygon fill="#63b8ff" stroke="#63b8ff" points="128.99,-86.79 134.65,-77.83 124.64,-81.3 128.99,-86.79"/>
</a>
</g>
</g>
</g>
</svg>
