<?xml version="1.0" encoding="UTF-8" standalone="no"?>
<!DOCTYPE svg PUBLIC "-//W3C//DTD SVG 1.1//EN"
 "http://www.w3.org/Graphics/SVG/1.1/DTD/svg11.dtd">
<!-- Generated by graphviz version 7.1.0 (0)
 -->
<!-- Title: src Pages: 1 -->
<svg width="324pt" height="334pt"
 viewBox="0.00 0.00 324.00 334.00" xmlns="http://www.w3.org/2000/svg" xmlns:xlink="http://www.w3.org/1999/xlink">
<g id="graph0" class="graph" transform="scale(1 1) rotate(0) translate(4 330)">
<title>src</title>
<g id="clust1" class="cluster">
<title>clusterdir_68267d1309a1af8e8297ef4c3efbcdba</title>
<g id="a_clust1"><a xlink:href="dir_68267d1309a1af8e8297ef4c3efbcdba.html" target="_top">
<polygon fill="#f7eded" stroke="#404040" stroke-width="2" points="8,-8 8,-318 308,-318 308,-8 8,-8"/>
</a>
</g>
</g>
<!-- dir_68267d1309a1af8e8297ef4c3efbcdba -->
<g id="node1" class="node">
<title>dir_68267d1309a1af8e8297ef4c3efbcdba</title>
<text text-anchor="middle" x="205" y="-298" font-family="Helvetica,sans-Serif" font-size="10.00">src</text>
</g>
<!-- dir_e6df591b0639d4c4807ef64d058833e2 -->
<g id="node2" class="node">
<title>dir_e6df591b0639d4c4807ef64d058833e2</title>
<g id="a_node2"><a xlink:href="dir_e6df591b0639d4c4807ef64d058833e2.html" target="_top" xlink:title="algorithms">
<polygon fill="#d6a2a2" stroke="#404040" points="205.5,-255 136.5,-255 136.5,-236 205.5,-236 205.5,-255"/>
<text text-anchor="middle" x="171" y="-243" font-family="Helvetica,sans-Serif" font-size="10.00">algorithms</text>
</a>
</g>
</g>
<!-- dir_68267d1309a1af8e8297ef4c3efbcdba&#45;&gt;dir_e6df591b0639d4c4807ef64d058833e2 -->
<g id="edge4" class="edge">
<title>dir_68267d1309a1af8e8297ef4c3efbcdba&#45;&gt;dir_e6df591b0639d4c4807ef64d058833e2</title>
<path fill="none" stroke="#63b8ff" d="M199.69,-291.22C195.18,-284.19 188.54,-273.84 182.78,-264.87"/>
<polygon fill="#63b8ff" stroke="#63b8ff" points="185.78,-263.05 177.43,-256.53 179.89,-266.83 185.78,-263.05"/>
<g id="a_edge4&#45;headlabel"><a xlink:href="dir_000007_000000.html" target="_top" xlink:title="4">
<text text-anchor="middle" x="189.29" y="-260.77" font-family="Helvetica,sans-Serif" font-size="10.00" fill="#63b8ff">4</text>
</a>
</g>
</g>
<!-- dir_ae9a93452e2a84339148a16bcf2eb561 -->
<g id="node4" class="node">
<title>dir_ae9a93452e2a84339148a16bcf2eb561</title>
<g id="a_node4"><a xlink:href="dir_ae9a93452e2a84339148a16bcf2eb561.html" target="_top" xlink:title="math">
<polygon fill="#d6a2a2" stroke="#404040" points="114,-90 72,-90 72,-71 114,-71 114,-90"/>
<text text-anchor="middle" x="93" y="-78" font-family="Helvetica,sans-Serif" font-size="10.00">math</text>
</a>
</g>
</g>
<!-- dir_68267d1309a1af8e8297ef4c3efbcdba&#45;&gt;dir_ae9a93452e2a84339148a16bcf2eb561 -->
<g id="edge2" class="edge">
<title>dir_68267d1309a1af8e8297ef4c3efbcdba&#45;&gt;dir_ae9a93452e2a84339148a16bcf2eb561</title>
<path fill="none" stroke="#63b8ff" d="M189.67,-293.47C150.39,-276.95 47.83,-226.68 27,-145 24.91,-136.82 23.03,-133.46 27,-126 34.37,-112.14 48.2,-101.81 61.31,-94.62"/>
<polygon fill="#63b8ff" stroke="#63b8ff" points="62.79,-97.79 70.17,-90.19 59.66,-91.53 62.79,-97.79"/>
<g id="a_edge2&#45;headlabel"><a xlink:href="dir_000007_000004.html" target="_top" xlink:title="192">
<text text-anchor="middle" x="62.2" y="-98.76" font-family="Helvetica,sans-Serif" font-size="10.00" fill="#63b8ff">192</text>
</a>
</g>
</g>
<!-- dir_b7878ad5ecbf2506f4125b9d34c97e45 -->
<g id="node8" class="node">
<title>dir_b7878ad5ecbf2506f4125b9d34c97e45</title>
<g id="a_node8"><a xlink:href="dir_b7878ad5ecbf2506f4125b9d34c97e45.html" target="_top" xlink:title="util">
<polygon fill="#d6a2a2" stroke="#404040" points="169,-35 137,-35 137,-16 169,-16 169,-35"/>
<text text-anchor="middle" x="153" y="-23" font-family="Helvetica,sans-Serif" font-size="10.00">util</text>
</a>
</g>
</g>
<!-- dir_68267d1309a1af8e8297ef4c3efbcdba&#45;&gt;dir_b7878ad5ecbf2506f4125b9d34c97e45 -->
<g id="edge3" class="edge">
<title>dir_68267d1309a1af8e8297ef4c3efbcdba&#45;&gt;dir_b7878ad5ecbf2506f4125b9d34c97e45</title>
<path fill="none" stroke="#63b8ff" d="M220.1,-291.33C246.67,-275.73 299,-238.98 299,-191.5 299,-191.5 299,-191.5 299,-134.5 299,-104 294.92,-92.2 273,-71 247.51,-46.35 207.18,-35.14 180.41,-30.19"/>
<polygon fill="#63b8ff" stroke="#63b8ff" points="181.09,-26.76 170.66,-28.58 179.95,-33.67 181.09,-26.76"/>
<g id="a_edge3&#45;headlabel"><a xlink:href="dir_000007_000010.html" target="_top" xlink:title="386">
<text text-anchor="middle" x="183.61" y="-21.8" font-family="Helvetica,sans-Serif" font-size="10.00" fill="#63b8ff">386</text>
</a>
</g>
</g>
<!-- dir_90da97247338d9e3ac7f8bf7df478e67 -->
<g id="node9" class="node">
<title>dir_90da97247338d9e3ac7f8bf7df478e67</title>
<g id="a_node9"><a xlink:href="dir_90da97247338d9e3ac7f8bf7df478e67.html" target="_top" xlink:title="vendor">
<polygon fill="#d6a2a2" stroke="#404040" points="280,-200 230,-200 230,-181 280,-181 280,-200"/>
<text text-anchor="middle" x="255" y="-188" font-family="Helvetica,sans-Serif" font-size="10.00">vendor</text>
</a>
</g>
</g>
<!-- dir_68267d1309a1af8e8297ef4c3efbcdba&#45;&gt;dir_90da97247338d9e3ac7f8bf7df478e67 -->
<g id="edge1" class="edge">
<title>dir_68267d1309a1af8e8297ef4c3efbcdba&#45;&gt;dir_90da97247338d9e3ac7f8bf7df478e67</title>
<path fill="none" stroke="#63b8ff" d="M208.92,-291.03C216.92,-273.76 235.26,-234.15 246.24,-210.43"/>
<polygon fill="#63b8ff" stroke="#63b8ff" points="249.29,-212.15 250.32,-201.61 242.94,-209.21 249.29,-212.15"/>
<g id="a_edge1&#45;headlabel"><a xlink:href="dir_000007_000011.html" target="_top" xlink:title="4">
<text text-anchor="middle" x="251" y="-212.74" font-family="Helvetica,sans-Serif" font-size="10.00" fill="#63b8ff">4</text>
</a>
</g>
</g>
<!-- dir_026b903d89613d2d50919c0215a7de0b -->
<g id="node3" class="node">
<title>dir_026b903d89613d2d50919c0215a7de0b</title>
<g id="a_node3"><a xlink:href="dir_026b903d89613d2d50919c0215a7de0b.html" target="_top" xlink:title="extern">
<polygon fill="#d6a2a2" stroke="#404040" points="84,-145 36,-145 36,-126 84,-126 84,-145"/>
<text text-anchor="middle" x="60" y="-133" font-family="Helvetica,sans-Serif" font-size="10.00">extern</text>
</a>
</g>
</g>
<!-- dir_e6df591b0639d4c4807ef64d058833e2&#45;&gt;dir_026b903d89613d2d50919c0215a7de0b -->
<g id="edge5" class="edge">
<title>dir_e6df591b0639d4c4807ef64d058833e2&#45;&gt;dir_026b903d89613d2d50919c0215a7de0b</title>
<path fill="none" stroke="#63b8ff" d="M136.2,-238.08C113.81,-232.08 86.01,-220.8 70,-200 60.61,-187.8 58.44,-170.32 58.43,-156.78"/>
<polygon fill="#63b8ff" stroke="#63b8ff" points="61.92,-156.97 58.85,-146.83 54.93,-156.67 61.92,-156.97"/>
<g id="a_edge5&#45;headlabel"><a xlink:href="dir_000000_000002.html" target="_top" xlink:title="3">
<text text-anchor="middle" x="64.67" y="-156.67" font-family="Helvetica,sans-Serif" font-size="10.00" fill="#63b8ff">3</text>
</a>
</g>
</g>
<!-- dir_e6df591b0639d4c4807ef64d058833e2&#45;&gt;dir_ae9a93452e2a84339148a16bcf2eb561 -->
<g id="edge10" class="edge">
<title>dir_e6df591b0639d4c4807ef64d058833e2&#45;&gt;dir_ae9a93452e2a84339148a16bcf2eb561</title>
<path fill="none" stroke="#63b8ff" d="M166.81,-235.74C154.64,-210.31 119.12,-136.08 102.18,-100.69"/>
<polygon fill="#63b8ff" stroke="#63b8ff" points="105.34,-99.18 97.87,-91.67 99.03,-102.2 105.34,-99.18"/>
<g id="a_edge10&#45;headlabel"><a xlink:href="dir_000000_000004.html" target="_top" xlink:title="167">
<text text-anchor="middle" x="108.8" y="-97.33" font-family="Helvetica,sans-Serif" font-size="10.00" fill="#63b8ff">167</text>
</a>
</g>
</g>
<!-- dir_71815c757f9df927c1643b707b249bef -->
<g id="node5" class="node">
<title>dir_71815c757f9df927c1643b707b249bef</title>
<g id="a_node5"><a xlink:href="dir_71815c757f9df927c1643b707b249bef.html" target="_top" xlink:title="mixers">
<polygon fill="#d6a2a2" stroke="#404040" points="129,-200 79,-200 79,-181 129,-181 129,-200"/>
<text text-anchor="middle" x="104" y="-188" font-family="Helvetica,sans-Serif" font-size="10.00">mixers</text>
</a>
</g>
</g>
<!-- dir_e6df591b0639d4c4807ef64d058833e2&#45;&gt;dir_71815c757f9df927c1643b707b249bef -->
<g id="edge7" class="edge">
<title>dir_e6df591b0639d4c4807ef64d058833e2&#45;&gt;dir_71815c757f9df927c1643b707b249bef</title>
<path fill="none" stroke="#63b8ff" d="M154.42,-235.51C143.36,-228 129.21,-217.1 118.59,-208.03"/>
<polygon fill="#63b8ff" stroke="#63b8ff" points="120.92,-205.42 111.14,-201.37 116.26,-210.64 120.92,-205.42"/>
<g id="a_edge7&#45;headlabel"><a xlink:href="dir_000000_000005.html" target="_top" xlink:title="5">
<text text-anchor="middle" x="124.37" y="-202.19" font-family="Helvetica,sans-Serif" font-size="10.00" fill="#63b8ff">5</text>
</a>
</g>
</g>
<!-- dir_9299a2f0639220a01e15fd74073513e6 -->
<g id="node6" class="node">
<title>dir_9299a2f0639220a01e15fd74073513e6</title>
<g id="a_node6"><a xlink:href="dir_9299a2f0639220a01e15fd74073513e6.html" target="_top" xlink:title="nwchem">
<polygon fill="#d6a2a2" stroke="#404040" points="220,-145 162,-145 162,-126 220,-126 220,-145"/>
<text text-anchor="middle" x="191" y="-133" font-family="Helvetica,sans-Serif" font-size="10.00">nwchem</text>
</a>
</g>
</g>
<!-- dir_e6df591b0639d4c4807ef64d058833e2&#45;&gt;dir_9299a2f0639220a01e15fd74073513e6 -->
<g id="edge9" class="edge">
<title>dir_e6df591b0639d4c4807ef64d058833e2&#45;&gt;dir_9299a2f0639220a01e15fd74073513e6</title>
<path fill="none" stroke="#63b8ff" d="M172.64,-235.66C175.82,-218.5 182.9,-180.26 187.28,-156.6"/>
<polygon fill="#63b8ff" stroke="#63b8ff" points="190.69,-157.42 189.07,-146.95 183.8,-156.14 190.69,-157.42"/>
<g id="a_edge9&#45;headlabel"><a xlink:href="dir_000000_000006.html" target="_top" xlink:title="2">
<text text-anchor="middle" x="193.1" y="-157.48" font-family="Helvetica,sans-Serif" font-size="10.00" fill="#63b8ff">2</text>
</a>
</g>
</g>
<!-- dir_137df1ab3d4649cc953bcdbfc3c6cb4a -->
<g id="node7" class="node">
<title>dir_137df1ab3d4649cc953bcdbfc3c6cb4a</title>
<g id="a_node7"><a xlink:href="dir_137df1ab3d4649cc953bcdbfc3c6cb4a.html" target="_top" xlink:title="turbomole">
<polygon fill="#d6a2a2" stroke="#404040" points="239.5,-90 172.5,-90 172.5,-71 239.5,-71 239.5,-90"/>
<text text-anchor="middle" x="206" y="-78" font-family="Helvetica,sans-Serif" font-size="10.00">turbomole</text>
</a>
</g>
</g>
<!-- dir_e6df591b0639d4c4807ef64d058833e2&#45;&gt;dir_137df1ab3d4649cc953bcdbfc3c6cb4a -->
<g id="edge6" class="edge">
<title>dir_e6df591b0639d4c4807ef64d058833e2&#45;&gt;dir_137df1ab3d4649cc953bcdbfc3c6cb4a</title>
<path fill="none" stroke="#63b8ff" d="M175.58,-235.77C182.1,-223.44 194.55,-200.26 206,-181 215.7,-164.68 223.68,-163.22 229,-145 233.52,-129.52 226.55,-112.35 219.13,-99.77"/>
<polygon fill="#63b8ff" stroke="#63b8ff" points="222.25,-98.16 213.86,-91.69 216.39,-101.98 222.25,-98.16"/>
<g id="a_edge6&#45;headlabel"><a xlink:href="dir_000000_000009.html" target="_top" xlink:title="1">
<text text-anchor="middle" x="225.77" y="-95.85" font-family="Helvetica,sans-Serif" font-size="10.00" fill="#63b8ff">1</text>
</a>
</g>
</g>
<!-- dir_e6df591b0639d4c4807ef64d058833e2&#45;&gt;dir_b7878ad5ecbf2506f4125b9d34c97e45 -->
<g id="edge11" class="edge">
<title>dir_e6df591b0639d4c4807ef64d058833e2&#45;&gt;dir_b7878ad5ecbf2506f4125b9d34c97e45</title>
<path fill="none" stroke="#63b8ff" d="M178.5,-235.62C185.71,-226.86 196.73,-212.94 205,-200 237.63,-148.96 281.61,-122.05 249,-71 234.01,-47.53 203.12,-36.25 180.41,-30.96"/>
<polygon fill="#63b8ff" stroke="#63b8ff" points="181.39,-27.59 170.89,-29.01 179.98,-34.44 181.39,-27.59"/>
<g id="a_edge11&#45;headlabel"><a xlink:href="dir_000000_000010.html" target="_top" xlink:title="310">
<text text-anchor="middle" x="183.99" y="-22.72" font-family="Helvetica,sans-Serif" font-size="10.00" fill="#63b8ff">310</text>
</a>
</g>
</g>
<!-- dir_e6df591b0639d4c4807ef64d058833e2&#45;&gt;dir_90da97247338d9e3ac7f8bf7df478e67 -->
<g id="edge8" class="edge">
<title>dir_e6df591b0639d4c4807ef64d058833e2&#45;&gt;dir_90da97247338d9e3ac7f8bf7df478e67</title>
<path fill="none" stroke="#63b8ff" d="M185.25,-235.51C197.88,-227.54 216.56,-215.75 231.41,-206.38"/>
<polygon fill="#63b8ff" stroke="#63b8ff" points="233.09,-209.46 239.68,-201.17 229.36,-203.54 233.09,-209.46"/>
<g id="a_edge8&#45;headlabel"><a xlink:href="dir_000000_000011.html" target="_top" xlink:title="3">
<text text-anchor="middle" x="232.85" y="-210.47" font-family="Helvetica,sans-Serif" font-size="10.00" fill="#63b8ff">3</text>
</a>
</g>
</g>
<!-- dir_026b903d89613d2d50919c0215a7de0b&#45;&gt;dir_ae9a93452e2a84339148a16bcf2eb561 -->
<g id="edge12" class="edge">
<title>dir_026b903d89613d2d50919c0215a7de0b&#45;&gt;dir_ae9a93452e2a84339148a16bcf2eb561</title>
<path fill="none" stroke="#63b8ff" d="M65.45,-125.75C69.77,-118.81 75.96,-108.86 81.38,-100.16"/>
<polygon fill="#63b8ff" stroke="#63b8ff" points="84.32,-102.07 86.63,-91.73 78.38,-98.37 84.32,-102.07"/>
<g id="a_edge12&#45;headlabel"><a xlink:href="dir_000002_000004.html" target="_top" xlink:title="3">
<text text-anchor="middle" x="85.63" y="-102.83" font-family="Helvetica,sans-Serif" font-size="10.00" fill="#63b8ff">3</text>
</a>
</g>
</g>
<!-- dir_ae9a93452e2a84339148a16bcf2eb561&#45;&gt;dir_b7878ad5ecbf2506f4125b9d34c97e45 -->
<g id="edge13" class="edge">
<title>dir_ae9a93452e2a84339148a16bcf2eb561&#45;&gt;dir_b7878ad5ecbf2506f4125b9d34c97e45</title>
<path fill="none" stroke="#63b8ff" d="M97.74,-70.75C104.81,-63.05 117.36,-51.64 128.83,-42.34"/>
<polygon fill="#63b8ff" stroke="#63b8ff" points="130.75,-45.28 136.48,-36.37 126.44,-39.76 130.75,-45.28"/>
<g id="a_edge13&#45;headlabel"><a xlink:href="dir_000004_000010.html" target="_top" xlink:title="37">
<text text-anchor="middle" x="130.85" y="-46.3" font-family="Helvetica,sans-Serif" font-size="10.00" fill="#63b8ff">37</text>
</a>
</g>
</g>
<!-- dir_71815c757f9df927c1643b707b249bef&#45;&gt;dir_e6df591b0639d4c4807ef64d058833e2 -->
<g id="edge17" class="edge">
<title>dir_71815c757f9df927c1643b707b249bef&#45;&gt;dir_e6df591b0639d4c4807ef64d058833e2</title>
<path fill="none" stroke="#63b8ff" d="M120.39,-200.36C131.52,-207.9 145.85,-218.94 156.55,-228.09"/>
<polygon fill="#63b8ff" stroke="#63b8ff" points="153.93,-230.45 163.72,-234.5 158.6,-225.23 153.93,-230.45"/>
<g id="a_edge17&#45;headlabel"><a xlink:href="dir_000005_000000.html" target="_top" xlink:title="1">
<text text-anchor="middle" x="150.49" y="-228.68" font-family="Helvetica,sans-Serif" font-size="10.00" fill="#63b8ff">1</text>
</a>
</g>
</g>
<!-- dir_71815c757f9df927c1643b707b249bef&#45;&gt;dir_026b903d89613d2d50919c0215a7de0b -->
<g id="edge14" class="edge">
<title>dir_71815c757f9df927c1643b707b249bef&#45;&gt;dir_026b903d89613d2d50919c0215a7de0b</title>
<path fill="none" stroke="#63b8ff" d="M96.73,-180.75C90.72,-173.5 81.99,-162.98 74.54,-154.02"/>
<polygon fill="#63b8ff" stroke="#63b8ff" points="77.47,-152.07 68.39,-146.61 72.08,-156.54 77.47,-152.07"/>
<g id="a_edge14&#45;headlabel"><a xlink:href="dir_000005_000002.html" target="_top" xlink:title="1">
<text text-anchor="middle" x="80.98" y="-149.35" font-family="Helvetica,sans-Serif" font-size="10.00" fill="#63b8ff">1</text>
</a>
</g>
</g>
<!-- dir_71815c757f9df927c1643b707b249bef&#45;&gt;dir_ae9a93452e2a84339148a16bcf2eb561 -->
<g id="edge15" class="edge">
<title>dir_71815c757f9df927c1643b707b249bef&#45;&gt;dir_ae9a93452e2a84339148a16bcf2eb561</title>
<path fill="none" stroke="#63b8ff" d="M103.1,-180.66C101.35,-163.5 97.46,-125.26 95.05,-101.6"/>
<polygon fill="#63b8ff" stroke="#63b8ff" points="98.56,-101.56 94.07,-91.97 91.6,-102.27 98.56,-101.56"/>
<g id="a_edge15&#45;headlabel"><a xlink:href="dir_000005_000004.html" target="_top" xlink:title="3">
<text text-anchor="middle" x="101.6" y="-100.84" font-family="Helvetica,sans-Serif" font-size="10.00" fill="#63b8ff">3</text>
</a>
</g>
</g>
<!-- dir_71815c757f9df927c1643b707b249bef&#45;&gt;dir_b7878ad5ecbf2506f4125b9d34c97e45 -->
<g id="edge16" class="edge">
<title>dir_71815c757f9df927c1643b707b249bef&#45;&gt;dir_b7878ad5ecbf2506f4125b9d34c97e45</title>
<path fill="none" stroke="#63b8ff" d="M106.63,-180.74C114.25,-155.42 136.4,-81.72 147.09,-46.16"/>
<polygon fill="#63b8ff" stroke="#63b8ff" points="150.39,-47.34 149.92,-36.76 143.69,-45.33 150.39,-47.34"/>
<g id="a_edge16&#45;headlabel"><a xlink:href="dir_000005_000010.html" target="_top" xlink:title="11">
<text text-anchor="middle" x="152.51" y="-47.65" font-family="Helvetica,sans-Serif" font-size="10.00" fill="#63b8ff">11</text>
</a>
</g>
</g>
<!-- dir_9299a2f0639220a01e15fd74073513e6&#45;&gt;dir_b7878ad5ecbf2506f4125b9d34c97e45 -->
<g id="edge18" class="edge">
<title>dir_9299a2f0639220a01e15fd74073513e6&#45;&gt;dir_b7878ad5ecbf2506f4125b9d34c97e45</title>
<path fill="none" stroke="#63b8ff" d="M184.36,-125.81C178.12,-117.19 169.01,-103.37 164,-90 158.76,-76.01 155.99,-59.35 154.55,-46.6"/>
<polygon fill="#63b8ff" stroke="#63b8ff" points="158.06,-46.53 153.64,-36.91 151.09,-47.19 158.06,-46.53"/>
<g id="a_edge18&#45;headlabel"><a xlink:href="dir_000006_000010.html" target="_top" xlink:title="7">
<text text-anchor="middle" x="161.08" y="-45.84" font-family="Helvetica,sans-Serif" font-size="10.00" fill="#63b8ff">7</text>
</a>
</g>
</g>
<!-- dir_137df1ab3d4649cc953bcdbfc3c6cb4a&#45;&gt;dir_b7878ad5ecbf2506f4125b9d34c97e45 -->
<g id="edge19" class="edge">
<title>dir_137df1ab3d4649cc953bcdbfc3c6cb4a&#45;&gt;dir_b7878ad5ecbf2506f4125b9d34c97e45</title>
<path fill="none" stroke="#63b8ff" d="M197.25,-70.75C189.85,-63.35 179.04,-52.54 169.95,-43.45"/>
<polygon fill="#63b8ff" stroke="#63b8ff" points="172.56,-41.11 163.01,-36.51 167.61,-46.06 172.56,-41.11"/>
<g id="a_edge19&#45;headlabel"><a xlink:href="dir_000009_000010.html" target="_top" xlink:title="2">
<text text-anchor="middle" x="176.04" y="-38.07" font-family="Helvetica,sans-Serif" font-size="10.00" fill="#63b8ff">2</text>
</a>
</g>
</g>
<!-- dir_b7878ad5ecbf2506f4125b9d34c97e45&#45;&gt;dir_026b903d89613d2d50919c0215a7de0b -->
<g id="edge20" class="edge">
<title>dir_b7878ad5ecbf2506f4125b9d34c97e45&#45;&gt;dir_026b903d89613d2d50919c0215a7de0b</title>
<path fill="none" stroke="#63b8ff" d="M136.69,-29.38C115.63,-34.05 79.7,-45.47 63,-71 54.67,-83.74 54.44,-101.18 56.01,-114.56"/>
<polygon fill="#63b8ff" stroke="#63b8ff" points="52.54,-115.06 57.61,-124.37 59.45,-113.94 52.54,-115.06"/>
<g id="a_edge20&#45;headlabel"><a xlink:href="dir_000010_000002.html" target="_top" xlink:title="8">
<text text-anchor="middle" x="49.4" y="-110.97" font-family="Helvetica,sans-Serif" font-size="10.00" fill="#63b8ff">8</text>
</a>
</g>
</g>
<!-- dir_b7878ad5ecbf2506f4125b9d34c97e45&#45;&gt;dir_ae9a93452e2a84339148a16bcf2eb561 -->
<g id="edge21" class="edge">
<title>dir_b7878ad5ecbf2506f4125b9d34c97e45&#45;&gt;dir_ae9a93452e2a84339148a16bcf2eb561</title>
<path fill="none" stroke="#63b8ff" d="M148.16,-35.36C141.08,-43.05 128.61,-54.39 117.19,-63.64"/>
<polygon fill="#63b8ff" stroke="#63b8ff" points="115.32,-60.67 109.59,-69.58 119.62,-66.18 115.32,-60.67"/>
<g id="a_edge21&#45;headlabel"><a xlink:href="dir_000010_000004.html" target="_top" xlink:title="15">
<text text-anchor="middle" x="115.21" y="-54.65" font-family="Helvetica,sans-Serif" font-size="10.00" fill="#63b8ff">15</text>
</a>
</g>
</g>
<!-- dir_90da97247338d9e3ac7f8bf7df478e67&#45;&gt;dir_b7878ad5ecbf2506f4125b9d34c97e45 -->
<g id="edge22" class="edge">
<title>dir_90da97247338d9e3ac7f8bf7df478e67&#45;&gt;dir_b7878ad5ecbf2506f4125b9d34c97e45</title>
<path fill="none" stroke="#63b8ff" d="M259.15,-180.51C268.25,-159.34 287.35,-105.52 264,-71 245.44,-43.56 206.89,-33.04 180.49,-29.01"/>
<polygon fill="#63b8ff" stroke="#63b8ff" points="181.19,-25.57 170.82,-27.76 180.3,-32.51 181.19,-25.57"/>
<g id="a_edge22&#45;headlabel"><a xlink:href="dir_000011_000010.html" target="_top" xlink:title="2">
<text text-anchor="middle" x="183.61" y="-20.52" font-family="Helvetica,sans-Serif" font-size="10.00" fill="#63b8ff">2</text>
</a>
</g>
</g>
</g>
</svg>
