<?xml version="1.0" encoding="UTF-8" standalone="no"?>
<!DOCTYPE svg PUBLIC "-//W3C//DTD SVG 1.1//EN"
 "http://www.w3.org/Graphics/SVG/1.1/DTD/svg11.dtd">
<!-- Generated by graphviz version 7.0.0 (0)
 -->
<!-- Title: src Pages: 1 -->
<svg width="336pt" height="334pt"
 viewBox="0.00 0.00 336.00 334.00" xmlns="http://www.w3.org/2000/svg" xmlns:xlink="http://www.w3.org/1999/xlink">
<g id="graph0" class="graph" transform="scale(1 1) rotate(0) translate(4 330)">
<title>src</title>
<g id="clust1" class="cluster">
<title>clusterdir_68267d1309a1af8e8297ef4c3efbcdba</title>
<g id="a_clust1"><a xlink:href="dir_68267d1309a1af8e8297ef4c3efbcdba.html" target="_top">
<polygon fill="#f7eded" stroke="#404040" stroke-width="2" points="8,-8 8,-318 320,-318 320,-8 8,-8"/>
</a>
</g>
</g>
<!-- dir_68267d1309a1af8e8297ef4c3efbcdba -->
<g id="node1" class="node">
<title>dir_68267d1309a1af8e8297ef4c3efbcdba</title>
<text text-anchor="middle" x="281" y="-298" font-family="Helvetica,sans-Serif" font-size="10.00">src</text>
</g>
<!-- dir_e6df591b0639d4c4807ef64d058833e2 -->
<g id="node2" class="node">
<title>dir_e6df591b0639d4c4807ef64d058833e2</title>
<g id="a_node2"><a xlink:href="dir_e6df591b0639d4c4807ef64d058833e2.html" target="_top" xlink:title="algorithms">
<polygon fill="#d6a2a2" stroke="#404040" points="221.5,-255 152.5,-255 152.5,-236 221.5,-236 221.5,-255"/>
<text text-anchor="middle" x="187" y="-243" font-family="Helvetica,sans-Serif" font-size="10.00">algorithms</text>
</a>
</g>
</g>
<!-- dir_68267d1309a1af8e8297ef4c3efbcdba&#45;&gt;dir_e6df591b0639d4c4807ef64d058833e2 -->
<g id="edge4" class="edge">
<title>dir_68267d1309a1af8e8297ef4c3efbcdba&#45;&gt;dir_e6df591b0639d4c4807ef64d058833e2</title>
<path fill="none" stroke="#63b8ff" d="M266.31,-291.22C252.03,-283.17 230.03,-270.76 212.82,-261.06"/>
<polygon fill="#63b8ff" stroke="#63b8ff" points="214.59,-258.04 204.16,-256.17 211.15,-264.13 214.59,-258.04"/>
<g id="a_edge4&#45;headlabel"><a xlink:href="dir_000007_000000.html" target="_top" xlink:title="4">
<text text-anchor="middle" x="217.8" y="-254.09" font-family="Helvetica,sans-Serif" font-size="10.00" fill="#63b8ff">4</text>
</a>
</g>
</g>
<!-- dir_026b903d89613d2d50919c0215a7de0b -->
<g id="node3" class="node">
<title>dir_026b903d89613d2d50919c0215a7de0b</title>
<g id="a_node3"><a xlink:href="dir_026b903d89613d2d50919c0215a7de0b.html" target="_top" xlink:title="extern">
<polygon fill="#d6a2a2" stroke="#404040" points="252,-145 204,-145 204,-126 252,-126 252,-145"/>
<text text-anchor="middle" x="228" y="-133" font-family="Helvetica,sans-Serif" font-size="10.00">extern</text>
</a>
</g>
</g>
<!-- dir_68267d1309a1af8e8297ef4c3efbcdba&#45;&gt;dir_026b903d89613d2d50919c0215a7de0b -->
<g id="edge1" class="edge">
<title>dir_68267d1309a1af8e8297ef4c3efbcdba&#45;&gt;dir_026b903d89613d2d50919c0215a7de0b</title>
<path fill="none" stroke="#63b8ff" d="M278.3,-291.19C270.22,-266.35 246.1,-192.16 234.44,-156.32"/>
<polygon fill="#63b8ff" stroke="#63b8ff" points="237.78,-155.25 231.36,-146.82 231.12,-157.41 237.78,-155.25"/>
<g id="a_edge1&#45;headlabel"><a xlink:href="dir_000007_000002.html" target="_top" xlink:title="14">
<text text-anchor="middle" x="241.12" y="-153.85" font-family="Helvetica,sans-Serif" font-size="10.00" fill="#63b8ff">14</text>
</a>
</g>
</g>
<!-- dir_ae9a93452e2a84339148a16bcf2eb561 -->
<g id="node5" class="node">
<title>dir_ae9a93452e2a84339148a16bcf2eb561</title>
<g id="a_node5"><a xlink:href="dir_ae9a93452e2a84339148a16bcf2eb561.html" target="_top" xlink:title="math">
<polygon fill="#d6a2a2" stroke="#404040" points="248,-90 206,-90 206,-71 248,-71 248,-90"/>
<text text-anchor="middle" x="227" y="-78" font-family="Helvetica,sans-Serif" font-size="10.00">math</text>
</a>
</g>
</g>
<!-- dir_68267d1309a1af8e8297ef4c3efbcdba&#45;&gt;dir_ae9a93452e2a84339148a16bcf2eb561 -->
<g id="edge2" class="edge">
<title>dir_68267d1309a1af8e8297ef4c3efbcdba&#45;&gt;dir_ae9a93452e2a84339148a16bcf2eb561</title>
<path fill="none" stroke="#63b8ff" d="M282.05,-291.11C284.93,-265.25 291.13,-184.96 266,-126 261.5,-115.45 253.51,-105.64 245.93,-97.93"/>
<polygon fill="#63b8ff" stroke="#63b8ff" points="248.81,-95.84 239.15,-91.5 243.99,-100.92 248.81,-95.84"/>
<g id="a_edge2&#45;headlabel"><a xlink:href="dir_000007_000004.html" target="_top" xlink:title="192">
<text text-anchor="middle" x="252.27" y="-92.71" font-family="Helvetica,sans-Serif" font-size="10.00" fill="#63b8ff">192</text>
</a>
</g>
</g>
<!-- dir_b7878ad5ecbf2506f4125b9d34c97e45 -->
<g id="node9" class="node">
<title>dir_b7878ad5ecbf2506f4125b9d34c97e45</title>
<g id="a_node9"><a xlink:href="dir_b7878ad5ecbf2506f4125b9d34c97e45.html" target="_top" xlink:title="util">
<polygon fill="#d6a2a2" stroke="#404040" points="181,-35 149,-35 149,-16 181,-16 181,-35"/>
<text text-anchor="middle" x="165" y="-23" font-family="Helvetica,sans-Serif" font-size="10.00">util</text>
</a>
</g>
</g>
<!-- dir_68267d1309a1af8e8297ef4c3efbcdba&#45;&gt;dir_b7878ad5ecbf2506f4125b9d34c97e45 -->
<g id="edge3" class="edge">
<title>dir_68267d1309a1af8e8297ef4c3efbcdba&#45;&gt;dir_b7878ad5ecbf2506f4125b9d34c97e45</title>
<path fill="none" stroke="#63b8ff" d="M285.05,-291.04C293.23,-273.13 311,-229.84 311,-191.5 311,-191.5 311,-191.5 311,-134.5 311,-76.14 234.67,-45.71 192.39,-33.33"/>
<polygon fill="#63b8ff" stroke="#63b8ff" points="193.49,-30.01 182.92,-30.72 191.63,-36.75 193.49,-30.01"/>
<g id="a_edge3&#45;headlabel"><a xlink:href="dir_000007_000010.html" target="_top" xlink:title="384">
<text text-anchor="middle" x="196.26" y="-25.33" font-family="Helvetica,sans-Serif" font-size="10.00" fill="#63b8ff">384</text>
</a>
</g>
</g>
<!-- dir_e6df591b0639d4c4807ef64d058833e2&#45;&gt;dir_026b903d89613d2d50919c0215a7de0b -->
<g id="edge5" class="edge">
<title>dir_e6df591b0639d4c4807ef64d058833e2&#45;&gt;dir_026b903d89613d2d50919c0215a7de0b</title>
<path fill="none" stroke="#63b8ff" d="M196.24,-235.56C204.26,-227.18 215.43,-213.9 221,-200 226.51,-186.26 228.17,-169.58 228.51,-156.76"/>
<polygon fill="#63b8ff" stroke="#63b8ff" points="232.01,-157 228.49,-147 225.01,-157.01 232.01,-157"/>
<g id="a_edge5&#45;headlabel"><a xlink:href="dir_000000_000002.html" target="_top" xlink:title="4">
<text text-anchor="middle" x="234.85" y="-156.57" font-family="Helvetica,sans-Serif" font-size="10.00" fill="#63b8ff">4</text>
</a>
</g>
</g>
<!-- dir_0a6daa01447580e4996c669bb7b952d0 -->
<g id="node4" class="node">
<title>dir_0a6daa01447580e4996c669bb7b952d0</title>
<g id="a_node4"><a xlink:href="dir_0a6daa01447580e4996c669bb7b952d0.html" target="_top" xlink:title="gte">
<polygon fill="#d6a2a2" stroke="#404040" points="146,-145 114,-145 114,-126 146,-126 146,-145"/>
<text text-anchor="middle" x="130" y="-133" font-family="Helvetica,sans-Serif" font-size="10.00">gte</text>
</a>
</g>
</g>
<!-- dir_e6df591b0639d4c4807ef64d058833e2&#45;&gt;dir_0a6daa01447580e4996c669bb7b952d0 -->
<g id="edge6" class="edge">
<title>dir_e6df591b0639d4c4807ef64d058833e2&#45;&gt;dir_0a6daa01447580e4996c669bb7b952d0</title>
<path fill="none" stroke="#63b8ff" d="M178.82,-235.53C171.31,-226.92 160.27,-213.31 153,-200 145.42,-186.12 139.44,-169.24 135.48,-156.37"/>
<polygon fill="#63b8ff" stroke="#63b8ff" points="138.89,-155.57 132.74,-146.94 132.17,-157.52 138.89,-155.57"/>
<g id="a_edge6&#45;headlabel"><a xlink:href="dir_000000_000003.html" target="_top" xlink:title="2">
<text text-anchor="middle" x="142.2" y="-154.28" font-family="Helvetica,sans-Serif" font-size="10.00" fill="#63b8ff">2</text>
</a>
</g>
</g>
<!-- dir_e6df591b0639d4c4807ef64d058833e2&#45;&gt;dir_ae9a93452e2a84339148a16bcf2eb561 -->
<g id="edge10" class="edge">
<title>dir_e6df591b0639d4c4807ef64d058833e2&#45;&gt;dir_ae9a93452e2a84339148a16bcf2eb561</title>
<path fill="none" stroke="#63b8ff" d="M197.32,-235.68C214.98,-219.76 250.14,-184.21 261,-145 263.25,-136.86 263.71,-134 261,-126 257.59,-115.92 250.88,-106.32 244.31,-98.64"/>
<polygon fill="#63b8ff" stroke="#63b8ff" points="246.99,-96.38 237.63,-91.42 241.86,-101.14 246.99,-96.38"/>
<g id="a_edge10&#45;headlabel"><a xlink:href="dir_000000_000004.html" target="_top" xlink:title="167">
<text text-anchor="middle" x="250.49" y="-93.48" font-family="Helvetica,sans-Serif" font-size="10.00" fill="#63b8ff">167</text>
</a>
</g>
</g>
<!-- dir_71815c757f9df927c1643b707b249bef -->
<g id="node6" class="node">
<title>dir_71815c757f9df927c1643b707b249bef</title>
<g id="a_node6"><a xlink:href="dir_71815c757f9df927c1643b707b249bef.html" target="_top" xlink:title="mixers">
<polygon fill="#d6a2a2" stroke="#404040" points="212,-200 162,-200 162,-181 212,-181 212,-200"/>
<text text-anchor="middle" x="187" y="-188" font-family="Helvetica,sans-Serif" font-size="10.00">mixers</text>
</a>
</g>
</g>
<!-- dir_e6df591b0639d4c4807ef64d058833e2&#45;&gt;dir_71815c757f9df927c1643b707b249bef -->
<g id="edge8" class="edge">
<title>dir_e6df591b0639d4c4807ef64d058833e2&#45;&gt;dir_71815c757f9df927c1643b707b249bef</title>
<path fill="none" stroke="#63b8ff" d="M181.83,-235.75C180.42,-229.19 179.96,-219.95 180.43,-211.6"/>
<polygon fill="#63b8ff" stroke="#63b8ff" points="183.87,-212.3 181.61,-201.94 176.92,-211.45 183.87,-212.3"/>
<g id="a_edge8&#45;headlabel"><a xlink:href="dir_000000_000005.html" target="_top" xlink:title="5">
<text text-anchor="middle" x="186.44" y="-212.21" font-family="Helvetica,sans-Serif" font-size="10.00" fill="#63b8ff">5</text>
</a>
</g>
</g>
<!-- dir_9299a2f0639220a01e15fd74073513e6 -->
<g id="node7" class="node">
<title>dir_9299a2f0639220a01e15fd74073513e6</title>
<g id="a_node7"><a xlink:href="dir_9299a2f0639220a01e15fd74073513e6.html" target="_top" xlink:title="nwchem">
<polygon fill="#d6a2a2" stroke="#404040" points="74,-90 16,-90 16,-71 74,-71 74,-90"/>
<text text-anchor="middle" x="45" y="-78" font-family="Helvetica,sans-Serif" font-size="10.00">nwchem</text>
</a>
</g>
</g>
<!-- dir_e6df591b0639d4c4807ef64d058833e2&#45;&gt;dir_9299a2f0639220a01e15fd74073513e6 -->
<g id="edge9" class="edge">
<title>dir_e6df591b0639d4c4807ef64d058833e2&#45;&gt;dir_9299a2f0639220a01e15fd74073513e6</title>
<path fill="none" stroke="#63b8ff" d="M152.21,-239.76C109.85,-233.2 42.09,-219.86 27,-200 4.84,-170.83 21.67,-125.74 34.34,-100.42"/>
<polygon fill="#63b8ff" stroke="#63b8ff" points="37.41,-102.12 39.01,-91.65 31.22,-98.83 37.41,-102.12"/>
<g id="a_edge9&#45;headlabel"><a xlink:href="dir_000000_000006.html" target="_top" xlink:title="2">
<text text-anchor="middle" x="38.94" y="-102.79" font-family="Helvetica,sans-Serif" font-size="10.00" fill="#63b8ff">2</text>
</a>
</g>
</g>
<!-- dir_137df1ab3d4649cc953bcdbfc3c6cb4a -->
<g id="node8" class="node">
<title>dir_137df1ab3d4649cc953bcdbfc3c6cb4a</title>
<g id="a_node8"><a xlink:href="dir_137df1ab3d4649cc953bcdbfc3c6cb4a.html" target="_top" xlink:title="turbomole">
<polygon fill="#d6a2a2" stroke="#404040" points="103.5,-200 36.5,-200 36.5,-181 103.5,-181 103.5,-200"/>
<text text-anchor="middle" x="70" y="-188" font-family="Helvetica,sans-Serif" font-size="10.00">turbomole</text>
</a>
</g>
</g>
<!-- dir_e6df591b0639d4c4807ef64d058833e2&#45;&gt;dir_137df1ab3d4649cc953bcdbfc3c6cb4a -->
<g id="edge7" class="edge">
<title>dir_e6df591b0639d4c4807ef64d058833e2&#45;&gt;dir_137df1ab3d4649cc953bcdbfc3c6cb4a</title>
<path fill="none" stroke="#63b8ff" d="M167.15,-235.51C148.72,-227.16 121.02,-214.61 99.91,-205.05"/>
<polygon fill="#63b8ff" stroke="#63b8ff" points="101.49,-201.92 90.93,-200.98 98.6,-208.3 101.49,-201.92"/>
<g id="a_edge7&#45;headlabel"><a xlink:href="dir_000000_000009.html" target="_top" xlink:title="1">
<text text-anchor="middle" x="104.55" y="-197.69" font-family="Helvetica,sans-Serif" font-size="10.00" fill="#63b8ff">1</text>
</a>
</g>
</g>
<!-- dir_e6df591b0639d4c4807ef64d058833e2&#45;&gt;dir_b7878ad5ecbf2506f4125b9d34c97e45 -->
<g id="edge11" class="edge">
<title>dir_e6df591b0639d4c4807ef64d058833e2&#45;&gt;dir_b7878ad5ecbf2506f4125b9d34c97e45</title>
<path fill="none" stroke="#63b8ff" d="M175.21,-235.72C155.47,-220.13 116.77,-185.4 105,-145 93.78,-106.47 125.54,-65.57 147.03,-43.32"/>
<polygon fill="#63b8ff" stroke="#63b8ff" points="149.47,-45.83 154.11,-36.31 144.55,-40.85 149.47,-45.83"/>
<g id="a_edge11&#45;headlabel"><a xlink:href="dir_000000_000010.html" target="_top" xlink:title="309">
<text text-anchor="middle" x="149.99" y="-46.81" font-family="Helvetica,sans-Serif" font-size="10.00" fill="#63b8ff">309</text>
</a>
</g>
</g>
<!-- dir_026b903d89613d2d50919c0215a7de0b&#45;&gt;dir_ae9a93452e2a84339148a16bcf2eb561 -->
<g id="edge12" class="edge">
<title>dir_026b903d89613d2d50919c0215a7de0b&#45;&gt;dir_ae9a93452e2a84339148a16bcf2eb561</title>
<path fill="none" stroke="#63b8ff" d="M227.83,-125.75C227.71,-119.27 227.54,-110.16 227.38,-101.9"/>
<polygon fill="#63b8ff" stroke="#63b8ff" points="230.89,-101.89 227.2,-91.96 223.89,-102.02 230.89,-101.89"/>
<g id="a_edge12&#45;headlabel"><a xlink:href="dir_000002_000004.html" target="_top" xlink:title="3">
<text text-anchor="middle" x="233.76" y="-101.41" font-family="Helvetica,sans-Serif" font-size="10.00" fill="#63b8ff">3</text>
</a>
</g>
</g>
<!-- dir_0a6daa01447580e4996c669bb7b952d0&#45;&gt;dir_b7878ad5ecbf2506f4125b9d34c97e45 -->
<g id="edge13" class="edge">
<title>dir_0a6daa01447580e4996c669bb7b952d0&#45;&gt;dir_b7878ad5ecbf2506f4125b9d34c97e45</title>
<path fill="none" stroke="#63b8ff" d="M132.86,-125.66C138.45,-108.42 150.93,-69.9 158.59,-46.27"/>
<polygon fill="#63b8ff" stroke="#63b8ff" points="161.88,-47.49 161.63,-36.9 155.22,-45.33 161.88,-47.49"/>
<g id="a_edge13&#45;headlabel"><a xlink:href="dir_000003_000010.html" target="_top" xlink:title="2">
<text text-anchor="middle" x="163.94" y="-47.85" font-family="Helvetica,sans-Serif" font-size="10.00" fill="#63b8ff">2</text>
</a>
</g>
</g>
<!-- dir_ae9a93452e2a84339148a16bcf2eb561&#45;&gt;dir_b7878ad5ecbf2506f4125b9d34c97e45 -->
<g id="edge14" class="edge">
<title>dir_ae9a93452e2a84339148a16bcf2eb561&#45;&gt;dir_b7878ad5ecbf2506f4125b9d34c97e45</title>
<path fill="none" stroke="#63b8ff" d="M211.27,-70.51C201.02,-63.08 188.06,-52.32 178.33,-43.31"/>
<polygon fill="#63b8ff" stroke="#63b8ff" points="180.86,-40.89 171.26,-36.41 175.98,-45.9 180.86,-40.89"/>
<g id="a_edge14&#45;headlabel"><a xlink:href="dir_000004_000010.html" target="_top" xlink:title="37">
<text text-anchor="middle" x="184.33" y="-37.81" font-family="Helvetica,sans-Serif" font-size="10.00" fill="#63b8ff">37</text>
</a>
</g>
</g>
<!-- dir_71815c757f9df927c1643b707b249bef&#45;&gt;dir_e6df591b0639d4c4807ef64d058833e2 -->
<g id="edge18" class="edge">
<title>dir_71815c757f9df927c1643b707b249bef&#45;&gt;dir_e6df591b0639d4c4807ef64d058833e2</title>
<path fill="none" stroke="#63b8ff" d="M192.21,-200.44C193.58,-206.97 194.04,-216.1 193.57,-224.35"/>
<polygon fill="#63b8ff" stroke="#63b8ff" points="190.1,-223.89 192.35,-234.25 197.05,-224.75 190.1,-223.89"/>
<g id="a_edge18&#45;headlabel"><a xlink:href="dir_000005_000000.html" target="_top" xlink:title="1">
<text text-anchor="middle" x="187.54" y="-218.98" font-family="Helvetica,sans-Serif" font-size="10.00" fill="#63b8ff">1</text>
</a>
</g>
</g>
<!-- dir_71815c757f9df927c1643b707b249bef&#45;&gt;dir_026b903d89613d2d50919c0215a7de0b -->
<g id="edge15" class="edge">
<title>dir_71815c757f9df927c1643b707b249bef&#45;&gt;dir_026b903d89613d2d50919c0215a7de0b</title>
<path fill="none" stroke="#63b8ff" d="M193.77,-180.75C199.32,-173.58 207.34,-163.2 214.23,-154.3"/>
<polygon fill="#63b8ff" stroke="#63b8ff" points="216.81,-156.69 220.16,-146.64 211.27,-152.41 216.81,-156.69"/>
<g id="a_edge15&#45;headlabel"><a xlink:href="dir_000005_000002.html" target="_top" xlink:title="1">
<text text-anchor="middle" x="217.78" y="-157.57" font-family="Helvetica,sans-Serif" font-size="10.00" fill="#63b8ff">1</text>
</a>
</g>
</g>
<!-- dir_71815c757f9df927c1643b707b249bef&#45;&gt;dir_ae9a93452e2a84339148a16bcf2eb561 -->
<g id="edge16" class="edge">
<title>dir_71815c757f9df927c1643b707b249bef&#45;&gt;dir_ae9a93452e2a84339148a16bcf2eb561</title>
<path fill="none" stroke="#63b8ff" d="M186.76,-180.53C186.72,-167.92 187.77,-144.41 195,-126 198.82,-116.29 205.24,-106.73 211.33,-98.97"/>
<polygon fill="#63b8ff" stroke="#63b8ff" points="213.94,-101.31 217.68,-91.4 208.57,-96.81 213.94,-101.31"/>
<g id="a_edge16&#45;headlabel"><a xlink:href="dir_000005_000004.html" target="_top" xlink:title="3">
<text text-anchor="middle" x="214.77" y="-102.23" font-family="Helvetica,sans-Serif" font-size="10.00" fill="#63b8ff">3</text>
</a>
</g>
</g>
<!-- dir_71815c757f9df927c1643b707b249bef&#45;&gt;dir_b7878ad5ecbf2506f4125b9d34c97e45 -->
<g id="edge17" class="edge">
<title>dir_71815c757f9df927c1643b707b249bef&#45;&gt;dir_b7878ad5ecbf2506f4125b9d34c97e45</title>
<path fill="none" stroke="#63b8ff" d="M185.82,-180.74C182.42,-155.53 172.54,-82.36 167.72,-46.62"/>
<polygon fill="#63b8ff" stroke="#63b8ff" points="171.2,-46.25 166.39,-36.81 164.26,-47.19 171.2,-46.25"/>
<g id="a_edge17&#45;headlabel"><a xlink:href="dir_000005_000010.html" target="_top" xlink:title="11">
<text text-anchor="middle" x="174.29" y="-45.43" font-family="Helvetica,sans-Serif" font-size="10.00" fill="#63b8ff">11</text>
</a>
</g>
</g>
<!-- dir_9299a2f0639220a01e15fd74073513e6&#45;&gt;dir_b7878ad5ecbf2506f4125b9d34c97e45 -->
<g id="edge19" class="edge">
<title>dir_9299a2f0639220a01e15fd74073513e6&#45;&gt;dir_b7878ad5ecbf2506f4125b9d34c97e45</title>
<path fill="none" stroke="#63b8ff" d="M65.36,-70.51C85.49,-61.62 116.41,-47.96 138.46,-38.22"/>
<polygon fill="#63b8ff" stroke="#63b8ff" points="139.67,-41.51 147.4,-34.27 136.84,-35.11 139.67,-41.51"/>
<g id="a_edge19&#45;headlabel"><a xlink:href="dir_000006_000010.html" target="_top" xlink:title="7">
<text text-anchor="middle" x="138.91" y="-42.45" font-family="Helvetica,sans-Serif" font-size="10.00" fill="#63b8ff">7</text>
</a>
</g>
</g>
<!-- dir_137df1ab3d4649cc953bcdbfc3c6cb4a&#45;&gt;dir_b7878ad5ecbf2506f4125b9d34c97e45 -->
<g id="edge20" class="edge">
<title>dir_137df1ab3d4649cc953bcdbfc3c6cb4a&#45;&gt;dir_b7878ad5ecbf2506f4125b9d34c97e45</title>
<path fill="none" stroke="#63b8ff" d="M71.01,-180.67C73.76,-159.85 82.92,-106.72 108,-71 116.17,-59.36 128.28,-49.3 139.23,-41.71"/>
<polygon fill="#63b8ff" stroke="#63b8ff" points="141.09,-44.68 147.56,-36.28 137.27,-38.81 141.09,-44.68"/>
<g id="a_edge20&#45;headlabel"><a xlink:href="dir_000009_000010.html" target="_top" xlink:title="2">
<text text-anchor="middle" x="140.9" y="-45.69" font-family="Helvetica,sans-Serif" font-size="10.00" fill="#63b8ff">2</text>
</a>
</g>
</g>
<!-- dir_b7878ad5ecbf2506f4125b9d34c97e45&#45;&gt;dir_026b903d89613d2d50919c0215a7de0b -->
<g id="edge21" class="edge">
<title>dir_b7878ad5ecbf2506f4125b9d34c97e45&#45;&gt;dir_026b903d89613d2d50919c0215a7de0b</title>
<path fill="none" stroke="#63b8ff" d="M168.97,-35.34C174.67,-47.8 185.75,-71.13 197,-90 202.36,-98.98 208.9,-108.55 214.6,-116.5"/>
<polygon fill="#63b8ff" stroke="#63b8ff" points="211.58,-118.31 220.31,-124.32 217.24,-114.18 211.58,-118.31"/>
<g id="a_edge21&#45;headlabel"><a xlink:href="dir_000010_000002.html" target="_top" xlink:title="8">
<text text-anchor="middle" x="208.06" y="-115.81" font-family="Helvetica,sans-Serif" font-size="10.00" fill="#63b8ff">8</text>
</a>
</g>
</g>
<!-- dir_b7878ad5ecbf2506f4125b9d34c97e45&#45;&gt;dir_ae9a93452e2a84339148a16bcf2eb561 -->
<g id="edge22" class="edge">
<title>dir_b7878ad5ecbf2506f4125b9d34c97e45&#45;&gt;dir_ae9a93452e2a84339148a16bcf2eb561</title>
<path fill="none" stroke="#63b8ff" d="M180.67,-35.44C190.96,-42.9 203.99,-53.72 213.76,-62.78"/>
<polygon fill="#63b8ff" stroke="#63b8ff" points="211.24,-65.21 220.85,-69.69 216.13,-60.2 211.24,-65.21"/>
<g id="a_edge22&#45;headlabel"><a xlink:href="dir_000010_000004.html" target="_top" xlink:title="15">
<text text-anchor="middle" x="207.77" y="-63.29" font-family="Helvetica,sans-Serif" font-size="10.00" fill="#63b8ff">15</text>
</a>
</g>
</g>
</g>
</svg>
