<?xml version="1.0" encoding="UTF-8" standalone="no"?>
<!DOCTYPE svg PUBLIC "-//W3C//DTD SVG 1.1//EN"
 "http://www.w3.org/Graphics/SVG/1.1/DTD/svg11.dtd">
<!-- Generated by graphviz version 5.0.1 (0)
 -->
<!-- Title: DoublesAmplitudesFromVertex.cxx Pages: 1 -->
<svg width="2247pt" height="375pt"
 viewBox="0.00 0.00 2246.69 375.00" xmlns="http://www.w3.org/2000/svg" xmlns:xlink="http://www.w3.org/1999/xlink">
<g id="graph0" class="graph" transform="scale(1 1) rotate(0) translate(4 371)">
<title>DoublesAmplitudesFromVertex.cxx</title>
<!-- Node1 -->
<g id="node1" class="node">
<title>Node1</title>
<g id="a_node1"><a xlink:title=" ">
<polygon fill="#bfbfbf" stroke="black" points="522,-347.5 522,-366.5 710,-366.5 710,-347.5 522,-347.5"/>
<text text-anchor="middle" x="616" y="-354.5" font-family="Helvetica,sans-Serif" font-size="10.00">DoublesAmplitudesFromVertex.cxx</text>
</a>
</g>
</g>
<!-- Node2 -->
<g id="node2" class="node">
<title>Node2</title>
<g id="a_node2"><a xlink:href="DoublesAmplitudesFromVertex_8hpp.html" target="_top" xlink:title=" ">
<polygon fill="none" stroke="black" points="1179.5,-280.5 1179.5,-310.5 1346.5,-310.5 1346.5,-280.5 1179.5,-280.5"/>
<text text-anchor="start" x="1187.5" y="-298.5" font-family="Helvetica,sans-Serif" font-size="10.00">algorithms/DoublesAmplitudes</text>
<text text-anchor="middle" x="1263" y="-287.5" font-family="Helvetica,sans-Serif" font-size="10.00">FromVertex.hpp</text>
</a>
</g>
</g>
<!-- Node1&#45;&gt;Node2 -->
<g id="edge1" class="edge">
<title>Node1&#45;&gt;Node2</title>
<path fill="none" stroke="midnightblue" d="M708.7,-347.48C831.3,-336.2 1046.2,-316.44 1169.3,-305.12"/>
<polygon fill="midnightblue" stroke="midnightblue" points="1169.83,-308.58 1179.46,-304.18 1169.18,-301.61 1169.83,-308.58"/>
</g>
<!-- Node5 -->
<g id="node5" class="node">
<title>Node5</title>
<g id="a_node5"><a xlink:href="Log_8hpp.html" target="_top" xlink:title=" ">
<polygon fill="none" stroke="black" points="324,-112.5 324,-131.5 398,-131.5 398,-112.5 324,-112.5"/>
<text text-anchor="middle" x="361" y="-119.5" font-family="Helvetica,sans-Serif" font-size="10.00">util/Log.hpp</text>
</a>
</g>
</g>
<!-- Node1&#45;&gt;Node5 -->
<g id="edge47" class="edge">
<title>Node1&#45;&gt;Node5</title>
<path fill="none" stroke="midnightblue" d="M597.01,-347.45C553.05,-326.68 443.66,-269.26 386,-188 375.95,-173.84 369.31,-155.11 365.41,-141.4"/>
<polygon fill="midnightblue" stroke="midnightblue" points="368.78,-140.44 362.87,-131.66 362.01,-142.22 368.78,-140.44"/>
</g>
<!-- Node22 -->
<g id="node22" class="node">
<title>Node22</title>
<g id="a_node22"><a xlink:href="Tensor_8hpp.html" target="_top" xlink:title=" ">
<polygon fill="none" stroke="black" points="2130.5,-112.5 2130.5,-131.5 2217.5,-131.5 2217.5,-112.5 2130.5,-112.5"/>
<text text-anchor="middle" x="2174" y="-119.5" font-family="Helvetica,sans-Serif" font-size="10.00">util/Tensor.hpp</text>
</a>
</g>
</g>
<!-- Node1&#45;&gt;Node22 -->
<g id="edge79" class="edge">
<title>Node1&#45;&gt;Node22</title>
<path fill="none" stroke="midnightblue" d="M710.24,-355.93C886.23,-354.86 1276.61,-348.06 1603,-311 1886.9,-278.76 2054.14,-410.01 2234,-188 2249.12,-169.33 2223.36,-149.21 2201.03,-136.37"/>
<polygon fill="midnightblue" stroke="midnightblue" points="2202.56,-133.23 2192.11,-131.51 2199.21,-139.37 2202.56,-133.23"/>
</g>
<!-- Node25 -->
<g id="node25" class="node">
<title>Node25</title>
<g id="a_node25"><a xlink:href="Exception_8hpp.html" target="_top" xlink:title=" ">
<polygon fill="none" stroke="black" points="564,-112.5 564,-131.5 668,-131.5 668,-112.5 564,-112.5"/>
<text text-anchor="middle" x="616" y="-119.5" font-family="Helvetica,sans-Serif" font-size="10.00">util/Exception.hpp</text>
</a>
</g>
</g>
<!-- Node1&#45;&gt;Node25 -->
<g id="edge48" class="edge">
<title>Node1&#45;&gt;Node25</title>
<path fill="none" stroke="midnightblue" d="M616,-347.43C616,-313.75 616,-189.99 616,-142.1"/>
<polygon fill="midnightblue" stroke="midnightblue" points="619.5,-141.9 616,-131.9 612.5,-141.9 619.5,-141.9"/>
</g>
<!-- Node26 -->
<g id="node26" class="node">
<title>Node26</title>
<g id="a_node26"><a xlink:href="ComplexTensor_8hpp.html" target="_top" xlink:title=" ">
<polygon fill="none" stroke="black" points="2069,-168.5 2069,-187.5 2209,-187.5 2209,-168.5 2069,-168.5"/>
<text text-anchor="middle" x="2139" y="-175.5" font-family="Helvetica,sans-Serif" font-size="10.00">math/ComplexTensor.hpp</text>
</a>
</g>
</g>
<!-- Node1&#45;&gt;Node26 -->
<g id="edge35" class="edge">
<title>Node1&#45;&gt;Node26</title>
<path fill="none" stroke="midnightblue" d="M710.14,-355.34C925.87,-352.21 1471.69,-335.13 1917,-244 1984.75,-230.14 2061.8,-205.51 2104.99,-190.88"/>
<polygon fill="midnightblue" stroke="midnightblue" points="2106.36,-194.11 2114.7,-187.56 2104.1,-187.48 2106.36,-194.11"/>
</g>
<!-- Node27 -->
<g id="node27" class="node">
<title>Node27</title>
<g id="a_node27"><a xlink:href="DryTensor_8hpp.html" target="_top" xlink:title=" ">
<polygon fill="none" stroke="black" points="252,-168.5 252,-187.5 338,-187.5 338,-168.5 252,-168.5"/>
<text text-anchor="middle" x="295" y="-175.5" font-family="Helvetica,sans-Serif" font-size="10.00">DryTensor.hpp</text>
</a>
</g>
</g>
<!-- Node1&#45;&gt;Node27 -->
<g id="edge38" class="edge">
<title>Node1&#45;&gt;Node27</title>
<path fill="none" stroke="midnightblue" d="M521.69,-349.38C456.9,-343.09 378.05,-331.47 352,-311 315.96,-282.68 302.29,-227.07 297.45,-197.9"/>
<polygon fill="midnightblue" stroke="midnightblue" points="300.88,-197.18 295.95,-187.8 293.96,-198.2 300.88,-197.18"/>
</g>
<!-- Node29 -->
<g id="node29" class="node">
<title>Node29</title>
<g id="a_node29"><a xlink:href="Sisi4s_8hpp.html" target="_top" xlink:title=" ">
<polygon fill="none" stroke="black" points="461,-224.5 461,-243.5 527,-243.5 527,-224.5 461,-224.5"/>
<text text-anchor="middle" x="494" y="-231.5" font-family="Helvetica,sans-Serif" font-size="10.00">Sisi4s.hpp</text>
</a>
</g>
</g>
<!-- Node1&#45;&gt;Node29 -->
<g id="edge49" class="edge">
<title>Node1&#45;&gt;Node29</title>
<path fill="none" stroke="midnightblue" d="M607.23,-347.3C586.83,-327.07 535.97,-276.62 509.92,-250.79"/>
<polygon fill="midnightblue" stroke="midnightblue" points="512.26,-248.18 502.69,-243.62 507.33,-253.15 512.26,-248.18"/>
</g>
<!-- Node3 -->
<g id="node3" class="node">
<title>Node3</title>
<g id="a_node3"><a xlink:href="Algorithm_8hpp.html" target="_top" xlink:title=" ">
<polygon fill="none" stroke="black" points="1766.5,-224.5 1766.5,-243.5 1907.5,-243.5 1907.5,-224.5 1766.5,-224.5"/>
<text text-anchor="middle" x="1837" y="-231.5" font-family="Helvetica,sans-Serif" font-size="10.00">algorithms/Algorithm.hpp</text>
</a>
</g>
</g>
<!-- Node2&#45;&gt;Node3 -->
<g id="edge2" class="edge">
<title>Node2&#45;&gt;Node3</title>
<path fill="none" stroke="midnightblue" d="M1346.77,-285.82C1456.5,-274.44 1647.61,-254.63 1755.97,-243.4"/>
<polygon fill="midnightblue" stroke="midnightblue" points="1756.6,-246.85 1766.19,-242.34 1755.88,-239.89 1756.6,-246.85"/>
</g>
<!-- Node4 -->
<g id="node4" class="node">
<title>Node4</title>
<g id="a_node4"><a xlink:href="Data_8hpp.html" target="_top" xlink:title=" ">
<polygon fill="none" stroke="black" points="1768.5,-168.5 1768.5,-187.5 1829.5,-187.5 1829.5,-168.5 1768.5,-168.5"/>
<text text-anchor="middle" x="1799" y="-175.5" font-family="Helvetica,sans-Serif" font-size="10.00">Data.hpp</text>
</a>
</g>
</g>
<!-- Node3&#45;&gt;Node4 -->
<g id="edge3" class="edge">
<title>Node3&#45;&gt;Node4</title>
<path fill="none" stroke="midnightblue" d="M1830.73,-224.08C1825.36,-216.46 1817.48,-205.26 1810.92,-195.94"/>
<polygon fill="midnightblue" stroke="midnightblue" points="1813.78,-193.91 1805.16,-187.75 1808.05,-197.94 1813.78,-193.91"/>
</g>
<!-- Node11 -->
<g id="node11" class="node">
<title>Node11</title>
<g id="a_node11"><a xlink:title=" ">
<polygon fill="none" stroke="#bfbfbf" points="507,-0.5 507,-19.5 563,-19.5 563,-0.5 507,-0.5"/>
<text text-anchor="middle" x="535" y="-7.5" font-family="Helvetica,sans-Serif" font-size="10.00">sstream</text>
</a>
</g>
</g>
<!-- Node3&#45;&gt;Node11 -->
<g id="edge33" class="edge">
<title>Node3&#45;&gt;Node11</title>
<path fill="none" stroke="midnightblue" d="M1870.99,-224.45C1956.23,-201.55 2166.95,-135.21 2090,-56 2062.73,-27.93 809.81,-13.8 573.29,-11.38"/>
<polygon fill="midnightblue" stroke="midnightblue" points="573.15,-7.88 563.11,-11.27 573.08,-14.88 573.15,-7.88"/>
</g>
<!-- Node13 -->
<g id="node13" class="node">
<title>Node13</title>
<g id="a_node13"><a xlink:title=" ">
<polygon fill="none" stroke="#bfbfbf" points="273,-56.5 273,-75.5 317,-75.5 317,-56.5 273,-56.5"/>
<text text-anchor="middle" x="295" y="-63.5" font-family="Helvetica,sans-Serif" font-size="10.00">string</text>
</a>
</g>
</g>
<!-- Node3&#45;&gt;Node13 -->
<g id="edge31" class="edge">
<title>Node3&#45;&gt;Node13</title>
<path fill="none" stroke="midnightblue" d="M1766.28,-232.93C1567.12,-231.59 985.22,-219.85 512,-132 444.67,-119.5 368.53,-93.93 326.72,-78.85"/>
<polygon fill="midnightblue" stroke="midnightblue" points="327.7,-75.48 317.1,-75.35 325.3,-82.06 327.7,-75.48"/>
</g>
<!-- Node21 -->
<g id="node21" class="node">
<title>Node21</title>
<g id="a_node21"><a xlink:title=" ">
<polygon fill="none" stroke="#bfbfbf" points="1847.5,-56.5 1847.5,-75.5 1894.5,-75.5 1894.5,-56.5 1847.5,-56.5"/>
<text text-anchor="middle" x="1871" y="-63.5" font-family="Helvetica,sans-Serif" font-size="10.00">vector</text>
</a>
</g>
</g>
<!-- Node3&#45;&gt;Node21 -->
<g id="edge32" class="edge">
<title>Node3&#45;&gt;Node21</title>
<path fill="none" stroke="midnightblue" d="M1838.83,-224.08C1844.18,-197.95 1859.9,-121.21 1867.2,-85.58"/>
<polygon fill="midnightblue" stroke="midnightblue" points="1870.67,-86.07 1869.25,-75.57 1863.81,-84.66 1870.67,-86.07"/>
</g>
<!-- Node3&#45;&gt;Node22 -->
<g id="edge34" class="edge">
<title>Node3&#45;&gt;Node22</title>
<path fill="none" stroke="midnightblue" d="M1907.76,-229.64C2012.27,-223.95 2197.78,-210.74 2218,-188 2232.16,-172.07 2212.59,-151.34 2195.23,-137.63"/>
<polygon fill="midnightblue" stroke="midnightblue" points="2197.14,-134.69 2187.03,-131.51 2192.95,-140.3 2197.14,-134.69"/>
</g>
<!-- Node4&#45;&gt;Node5 -->
<g id="edge4" class="edge">
<title>Node4&#45;&gt;Node5</title>
<path fill="none" stroke="midnightblue" d="M1768.35,-176.15C1626.51,-172.19 1019.51,-154.67 522,-132 483.64,-130.25 440.17,-127.79 408.08,-125.89"/>
<polygon fill="midnightblue" stroke="midnightblue" points="408.27,-122.39 398.08,-125.29 407.85,-129.38 408.27,-122.39"/>
</g>
<!-- Node4&#45;&gt;Node13 -->
<g id="edge21" class="edge">
<title>Node4&#45;&gt;Node13</title>
<path fill="none" stroke="midnightblue" d="M1768.33,-176.62C1588.63,-174.29 676.16,-161.1 555,-132 534.51,-127.08 532.05,-118.5 512,-112 434.87,-87.01 409.71,-95.09 327.1,-76.06"/>
<polygon fill="midnightblue" stroke="midnightblue" points="327.82,-72.63 317.29,-73.73 326.21,-79.44 327.82,-72.63"/>
</g>
<!-- Node17 -->
<g id="node17" class="node">
<title>Node17</title>
<g id="a_node17"><a xlink:href="Float_8hpp.html" target="_top" xlink:title=" ">
<polygon fill="none" stroke="black" points="1912.5,-56.5 1912.5,-75.5 2003.5,-75.5 2003.5,-56.5 1912.5,-56.5"/>
<text text-anchor="middle" x="1958" y="-63.5" font-family="Helvetica,sans-Serif" font-size="10.00">math/Float.hpp</text>
</a>
</g>
</g>
<!-- Node4&#45;&gt;Node17 -->
<g id="edge16" class="edge">
<title>Node4&#45;&gt;Node17</title>
<path fill="none" stroke="midnightblue" d="M1811.48,-168.37C1838.64,-149.57 1903.41,-104.77 1936.99,-81.53"/>
<polygon fill="midnightblue" stroke="midnightblue" points="1939.35,-84.16 1945.58,-75.59 1935.37,-78.4 1939.35,-84.16"/>
</g>
<!-- Node18 -->
<g id="node18" class="node">
<title>Node18</title>
<g id="a_node18"><a xlink:href="Complex_8hpp.html" target="_top" xlink:title=" ">
<polygon fill="none" stroke="black" points="1903,-112.5 1903,-131.5 2013,-131.5 2013,-112.5 1903,-112.5"/>
<text text-anchor="middle" x="1958" y="-119.5" font-family="Helvetica,sans-Serif" font-size="10.00">math/Complex.hpp</text>
</a>
</g>
</g>
<!-- Node4&#45;&gt;Node18 -->
<g id="edge18" class="edge">
<title>Node4&#45;&gt;Node18</title>
<path fill="none" stroke="midnightblue" d="M1824.19,-168.44C1850.94,-159.36 1893.4,-144.94 1923.31,-134.78"/>
<polygon fill="midnightblue" stroke="midnightblue" points="1924.58,-138.05 1932.92,-131.52 1922.33,-131.42 1924.58,-138.05"/>
</g>
<!-- Node20 -->
<g id="node20" class="node">
<title>Node20</title>
<g id="a_node20"><a xlink:title=" ">
<polygon fill="none" stroke="#bfbfbf" points="1791,-56.5 1791,-75.5 1829,-75.5 1829,-56.5 1791,-56.5"/>
<text text-anchor="middle" x="1810" y="-63.5" font-family="Helvetica,sans-Serif" font-size="10.00">map</text>
</a>
</g>
</g>
<!-- Node4&#45;&gt;Node20 -->
<g id="edge22" class="edge">
<title>Node4&#45;&gt;Node20</title>
<path fill="none" stroke="midnightblue" d="M1794.46,-168.11C1788.63,-155.55 1779.85,-131.89 1785,-112 1787.55,-102.18 1792.75,-92.21 1797.76,-84.17"/>
<polygon fill="midnightblue" stroke="midnightblue" points="1800.75,-85.99 1803.37,-75.73 1794.92,-82.11 1800.75,-85.99"/>
</g>
<!-- Node4&#45;&gt;Node21 -->
<g id="edge23" class="edge">
<title>Node4&#45;&gt;Node21</title>
<path fill="none" stroke="midnightblue" d="M1800.82,-168.42C1803.87,-155.4 1810.9,-130.24 1823,-112 1830.52,-100.66 1841.43,-90.13 1850.95,-82.11"/>
<polygon fill="midnightblue" stroke="midnightblue" points="1853.25,-84.76 1858.84,-75.76 1848.86,-79.31 1853.25,-84.76"/>
</g>
<!-- Node4&#45;&gt;Node22 -->
<g id="edge24" class="edge">
<title>Node4&#45;&gt;Node22</title>
<path fill="none" stroke="midnightblue" d="M1829.69,-172.58C1893.3,-163.42 2040.26,-142.26 2120.07,-130.77"/>
<polygon fill="midnightblue" stroke="midnightblue" points="2121,-134.17 2130.4,-129.28 2120,-127.24 2121,-134.17"/>
</g>
<!-- Node4&#45;&gt;Node25 -->
<g id="edge27" class="edge">
<title>Node4&#45;&gt;Node25</title>
<path fill="none" stroke="midnightblue" d="M1768.27,-175.6C1610.99,-168.42 895.12,-135.74 678.37,-125.85"/>
<polygon fill="midnightblue" stroke="midnightblue" points="678.27,-122.34 668.13,-125.38 677.96,-129.33 678.27,-122.34"/>
</g>
<!-- Node6 -->
<g id="node6" class="node">
<title>Node6</title>
<g id="a_node6"><a xlink:href="Time_8hpp.html" target="_top" xlink:title=" ">
<polygon fill="none" stroke="black" points="49.5,-56.5 49.5,-75.5 130.5,-75.5 130.5,-56.5 49.5,-56.5"/>
<text text-anchor="middle" x="90" y="-63.5" font-family="Helvetica,sans-Serif" font-size="10.00">util/Time.hpp</text>
</a>
</g>
</g>
<!-- Node5&#45;&gt;Node6 -->
<g id="edge5" class="edge">
<title>Node5&#45;&gt;Node6</title>
<path fill="none" stroke="midnightblue" d="M323.89,-113.6C276.36,-104.13 193.79,-87.68 140.55,-77.07"/>
<polygon fill="midnightblue" stroke="midnightblue" points="141.13,-73.62 130.64,-75.1 139.76,-80.48 141.13,-73.62"/>
</g>
<!-- Node5&#45;&gt;Node13 -->
<g id="edge12" class="edge">
<title>Node5&#45;&gt;Node13</title>
<path fill="none" stroke="midnightblue" d="M350.4,-112.32C340.54,-104.26 325.65,-92.08 313.78,-82.37"/>
<polygon fill="midnightblue" stroke="midnightblue" points="315.75,-79.46 305.8,-75.83 311.32,-84.88 315.75,-79.46"/>
</g>
<!-- Node14 -->
<g id="node14" class="node">
<title>Node14</title>
<g id="a_node14"><a xlink:title=" ">
<polygon fill="none" stroke="#bfbfbf" points="409,-56.5 409,-75.5 469,-75.5 469,-56.5 409,-56.5"/>
<text text-anchor="middle" x="439" y="-63.5" font-family="Helvetica,sans-Serif" font-size="10.00">iostream</text>
</a>
</g>
</g>
<!-- Node5&#45;&gt;Node14 -->
<g id="edge13" class="edge">
<title>Node5&#45;&gt;Node14</title>
<path fill="none" stroke="midnightblue" d="M373.53,-112.32C385.59,-103.98 404.03,-91.21 418.27,-81.35"/>
<polygon fill="midnightblue" stroke="midnightblue" points="420.27,-84.22 426.5,-75.65 416.28,-78.47 420.27,-84.22"/>
</g>
<!-- Node15 -->
<g id="node15" class="node">
<title>Node15</title>
<g id="a_node15"><a xlink:title=" ">
<polygon fill="none" stroke="#bfbfbf" points="187.5,-56.5 187.5,-75.5 254.5,-75.5 254.5,-56.5 187.5,-56.5"/>
<text text-anchor="middle" x="221" y="-63.5" font-family="Helvetica,sans-Serif" font-size="10.00">streambuf</text>
</a>
</g>
</g>
<!-- Node5&#45;&gt;Node15 -->
<g id="edge14" class="edge">
<title>Node5&#45;&gt;Node15</title>
<path fill="none" stroke="midnightblue" d="M338.82,-112.44C315.57,-103.48 278.85,-89.31 252.58,-79.18"/>
<polygon fill="midnightblue" stroke="midnightblue" points="253.67,-75.85 243.08,-75.52 251.15,-82.38 253.67,-75.85"/>
</g>
<!-- Node16 -->
<g id="node16" class="node">
<title>Node16</title>
<g id="a_node16"><a xlink:title=" ">
<polygon fill="none" stroke="#bfbfbf" points="335.5,-56.5 335.5,-75.5 390.5,-75.5 390.5,-56.5 335.5,-56.5"/>
<text text-anchor="middle" x="363" y="-63.5" font-family="Helvetica,sans-Serif" font-size="10.00">fstream</text>
</a>
</g>
</g>
<!-- Node5&#45;&gt;Node16 -->
<g id="edge15" class="edge">
<title>Node5&#45;&gt;Node16</title>
<path fill="none" stroke="midnightblue" d="M361.33,-112.08C361.59,-105.01 361.97,-94.86 362.3,-85.99"/>
<polygon fill="midnightblue" stroke="midnightblue" points="365.8,-85.87 362.68,-75.75 358.81,-85.61 365.8,-85.87"/>
</g>
<!-- Node7 -->
<g id="node7" class="node">
<title>Node7</title>
<g id="a_node7"><a xlink:title=" ">
<polygon fill="none" stroke="#bfbfbf" points="68,-0.5 68,-19.5 112,-19.5 112,-0.5 68,-0.5"/>
<text text-anchor="middle" x="90" y="-7.5" font-family="Helvetica,sans-Serif" font-size="10.00">ctime</text>
</a>
</g>
</g>
<!-- Node6&#45;&gt;Node7 -->
<g id="edge6" class="edge">
<title>Node6&#45;&gt;Node7</title>
<path fill="none" stroke="midnightblue" d="M90,-56.08C90,-49.01 90,-38.86 90,-29.99"/>
<polygon fill="midnightblue" stroke="midnightblue" points="93.5,-29.75 90,-19.75 86.5,-29.75 93.5,-29.75"/>
</g>
<!-- Node8 -->
<g id="node8" class="node">
<title>Node8</title>
<g id="a_node8"><a xlink:title=" ">
<polygon fill="none" stroke="#bfbfbf" points="0,-0.5 0,-19.5 50,-19.5 50,-0.5 0,-0.5"/>
<text text-anchor="middle" x="25" y="-7.5" font-family="Helvetica,sans-Serif" font-size="10.00">cstdint</text>
</a>
</g>
</g>
<!-- Node6&#45;&gt;Node8 -->
<g id="edge7" class="edge">
<title>Node6&#45;&gt;Node8</title>
<path fill="none" stroke="midnightblue" d="M79.56,-56.32C69.85,-48.26 55.18,-36.08 43.5,-26.37"/>
<polygon fill="midnightblue" stroke="midnightblue" points="45.56,-23.53 35.63,-19.83 41.09,-28.92 45.56,-23.53"/>
</g>
<!-- Node9 -->
<g id="node9" class="node">
<title>Node9</title>
<g id="a_node9"><a xlink:title=" ">
<polygon fill="none" stroke="#bfbfbf" points="130.5,-0.5 130.5,-19.5 187.5,-19.5 187.5,-0.5 130.5,-0.5"/>
<text text-anchor="middle" x="159" y="-7.5" font-family="Helvetica,sans-Serif" font-size="10.00">ostream</text>
</a>
</g>
</g>
<!-- Node6&#45;&gt;Node9 -->
<g id="edge8" class="edge">
<title>Node6&#45;&gt;Node9</title>
<path fill="none" stroke="midnightblue" d="M101.09,-56.32C111.49,-48.18 127.26,-35.84 139.72,-26.09"/>
<polygon fill="midnightblue" stroke="midnightblue" points="141.99,-28.75 147.71,-19.83 137.68,-23.24 141.99,-28.75"/>
</g>
<!-- Node10 -->
<g id="node10" class="node">
<title>Node10</title>
<g id="a_node10"><a xlink:title=" ">
<polygon fill="none" stroke="#bfbfbf" points="247,-0.5 247,-19.5 303,-19.5 303,-0.5 247,-0.5"/>
<text text-anchor="middle" x="275" y="-7.5" font-family="Helvetica,sans-Serif" font-size="10.00">iomanip</text>
</a>
</g>
</g>
<!-- Node6&#45;&gt;Node10 -->
<g id="edge9" class="edge">
<title>Node6&#45;&gt;Node10</title>
<path fill="none" stroke="midnightblue" d="M119.31,-56.44C151.12,-47.16 202.02,-32.3 236.9,-22.12"/>
<polygon fill="midnightblue" stroke="midnightblue" points="238.11,-25.41 246.73,-19.25 236.15,-18.69 238.11,-25.41"/>
</g>
<!-- Node6&#45;&gt;Node11 -->
<g id="edge10" class="edge">
<title>Node6&#45;&gt;Node11</title>
<path fill="none" stroke="midnightblue" d="M130.52,-58.15C135.39,-57.39 140.3,-56.65 145,-56 283.69,-36.69 318.9,-36.13 458,-20 470.64,-18.53 484.44,-16.92 496.83,-15.48"/>
<polygon fill="midnightblue" stroke="midnightblue" points="497.32,-18.94 506.84,-14.3 496.5,-11.99 497.32,-18.94"/>
</g>
<!-- Node12 -->
<g id="node12" class="node">
<title>Node12</title>
<g id="a_node12"><a xlink:title=" ">
<polygon fill="none" stroke="#bfbfbf" points="401.5,-0.5 401.5,-19.5 448.5,-19.5 448.5,-0.5 401.5,-0.5"/>
<text text-anchor="middle" x="425" y="-7.5" font-family="Helvetica,sans-Serif" font-size="10.00">cmath</text>
</a>
</g>
</g>
<!-- Node6&#45;&gt;Node12 -->
<g id="edge11" class="edge">
<title>Node6&#45;&gt;Node12</title>
<path fill="none" stroke="midnightblue" d="M130.55,-58.35C135.42,-57.56 140.32,-56.76 145,-56 233.89,-41.58 338.69,-24.8 391.29,-16.39"/>
<polygon fill="midnightblue" stroke="midnightblue" points="392.07,-19.81 401.4,-14.77 390.97,-12.89 392.07,-19.81"/>
</g>
<!-- Node17&#45;&gt;Node9 -->
<g id="edge17" class="edge">
<title>Node17&#45;&gt;Node9</title>
<path fill="none" stroke="midnightblue" d="M1912.4,-56.93C1909.56,-56.57 1906.74,-56.26 1904,-56 1166.61,13.06 976.93,-69.97 238,-20 224.98,-19.12 210.8,-17.66 198.1,-16.17"/>
<polygon fill="midnightblue" stroke="midnightblue" points="198.18,-12.66 187.83,-14.93 197.34,-19.61 198.18,-12.66"/>
</g>
<!-- Node18&#45;&gt;Node17 -->
<g id="edge19" class="edge">
<title>Node18&#45;&gt;Node17</title>
<path fill="none" stroke="midnightblue" d="M1958,-112.08C1958,-105.01 1958,-94.86 1958,-85.99"/>
<polygon fill="midnightblue" stroke="midnightblue" points="1961.5,-85.75 1958,-75.75 1954.5,-85.75 1961.5,-85.75"/>
</g>
<!-- Node19 -->
<g id="node19" class="node">
<title>Node19</title>
<g id="a_node19"><a xlink:title=" ">
<polygon fill="none" stroke="#bfbfbf" points="2021.5,-56.5 2021.5,-75.5 2080.5,-75.5 2080.5,-56.5 2021.5,-56.5"/>
<text text-anchor="middle" x="2051" y="-63.5" font-family="Helvetica,sans-Serif" font-size="10.00">complex</text>
</a>
</g>
</g>
<!-- Node18&#45;&gt;Node19 -->
<g id="edge20" class="edge">
<title>Node18&#45;&gt;Node19</title>
<path fill="none" stroke="midnightblue" d="M1972.94,-112.32C1987.59,-103.82 2010.13,-90.73 2027.24,-80.8"/>
<polygon fill="midnightblue" stroke="midnightblue" points="2029.2,-83.7 2036.1,-75.65 2025.69,-77.65 2029.2,-83.7"/>
</g>
<!-- Node23 -->
<g id="node23" class="node">
<title>Node23</title>
<g id="a_node23"><a xlink:href="CTF_8hpp.html" target="_top" xlink:title=" ">
<polygon fill="none" stroke="black" points="2137,-56.5 2137,-75.5 2211,-75.5 2211,-56.5 2137,-56.5"/>
<text text-anchor="middle" x="2174" y="-63.5" font-family="Helvetica,sans-Serif" font-size="10.00">util/CTF.hpp</text>
</a>
</g>
</g>
<!-- Node22&#45;&gt;Node23 -->
<g id="edge25" class="edge">
<title>Node22&#45;&gt;Node23</title>
<path fill="none" stroke="midnightblue" d="M2174,-112.08C2174,-105.01 2174,-94.86 2174,-85.99"/>
<polygon fill="midnightblue" stroke="midnightblue" points="2177.5,-85.75 2174,-75.75 2170.5,-85.75 2177.5,-85.75"/>
</g>
<!-- Node24 -->
<g id="node24" class="node">
<title>Node24</title>
<g id="a_node24"><a xlink:title=" ">
<polygon fill="none" stroke="#bfbfbf" points="2149,-0.5 2149,-19.5 2199,-19.5 2199,-0.5 2149,-0.5"/>
<text text-anchor="middle" x="2174" y="-7.5" font-family="Helvetica,sans-Serif" font-size="10.00">ctf.hpp</text>
</a>
</g>
</g>
<!-- Node23&#45;&gt;Node24 -->
<g id="edge26" class="edge">
<title>Node23&#45;&gt;Node24</title>
<path fill="none" stroke="midnightblue" d="M2174,-56.08C2174,-49.01 2174,-38.86 2174,-29.99"/>
<polygon fill="midnightblue" stroke="midnightblue" points="2177.5,-29.75 2174,-19.75 2170.5,-29.75 2177.5,-29.75"/>
</g>
<!-- Node25&#45;&gt;Node11 -->
<g id="edge29" class="edge">
<title>Node25&#45;&gt;Node11</title>
<path fill="none" stroke="midnightblue" d="M609.64,-112.37C596.22,-94.14 564.77,-51.43 547.28,-27.68"/>
<polygon fill="midnightblue" stroke="midnightblue" points="550.07,-25.57 541.33,-19.59 544.44,-29.72 550.07,-25.57"/>
</g>
<!-- Node25&#45;&gt;Node13 -->
<g id="edge28" class="edge">
<title>Node25&#45;&gt;Node13</title>
<path fill="none" stroke="midnightblue" d="M563.97,-113.75C497.33,-104.33 384.49,-87.89 327.28,-76"/>
<polygon fill="midnightblue" stroke="midnightblue" points="327.78,-72.53 317.26,-73.83 326.3,-79.37 327.78,-72.53"/>
</g>
<!-- Node25&#45;&gt;Node14 -->
<g id="edge30" class="edge">
<title>Node25&#45;&gt;Node14</title>
<path fill="none" stroke="midnightblue" d="M587.95,-112.44C557.92,-103.28 510.09,-88.69 476.76,-78.52"/>
<polygon fill="midnightblue" stroke="midnightblue" points="477.5,-75.09 466.91,-75.52 475.46,-81.78 477.5,-75.09"/>
</g>
<!-- Node26&#45;&gt;Node18 -->
<g id="edge36" class="edge">
<title>Node26&#45;&gt;Node18</title>
<path fill="none" stroke="midnightblue" d="M2110.32,-168.44C2079.47,-159.24 2030.27,-144.56 1996.17,-134.39"/>
<polygon fill="midnightblue" stroke="midnightblue" points="1997.13,-131.02 1986.55,-131.52 1995.13,-137.73 1997.13,-131.02"/>
</g>
<!-- Node26&#45;&gt;Node22 -->
<g id="edge37" class="edge">
<title>Node26&#45;&gt;Node22</title>
<path fill="none" stroke="midnightblue" d="M2144.78,-168.08C2149.67,-160.53 2156.83,-149.49 2162.83,-140.23"/>
<polygon fill="midnightblue" stroke="midnightblue" points="2165.83,-142.05 2168.33,-131.75 2159.95,-138.24 2165.83,-142.05"/>
</g>
<!-- Node27&#45;&gt;Node5 -->
<g id="edge43" class="edge">
<title>Node27&#45;&gt;Node5</title>
<path fill="none" stroke="midnightblue" d="M305.6,-168.32C315.46,-160.26 330.35,-148.08 342.22,-138.37"/>
<polygon fill="midnightblue" stroke="midnightblue" points="344.68,-140.88 350.2,-131.83 340.25,-135.46 344.68,-140.88"/>
</g>
<!-- Node27&#45;&gt;Node8 -->
<g id="edge44" class="edge">
<title>Node27&#45;&gt;Node8</title>
<path fill="none" stroke="midnightblue" d="M251.74,-172.11C212.04,-166.41 152.39,-154.7 105,-132 68.44,-114.48 53.01,-111.26 33,-76 25.02,-61.94 23.44,-43.45 23.61,-29.78"/>
<polygon fill="midnightblue" stroke="midnightblue" points="27.11,-29.79 24.06,-19.64 20.12,-29.48 27.11,-29.79"/>
</g>
<!-- Node27&#45;&gt;Node13 -->
<g id="edge46" class="edge">
<title>Node27&#45;&gt;Node13</title>
<path fill="none" stroke="midnightblue" d="M295,-168.37C295,-150.62 295,-109.67 295,-85.6"/>
<polygon fill="midnightblue" stroke="midnightblue" points="298.5,-85.59 295,-75.59 291.5,-85.59 298.5,-85.59"/>
</g>
<!-- Node27&#45;&gt;Node21 -->
<g id="edge45" class="edge">
<title>Node27&#45;&gt;Node21</title>
<path fill="none" stroke="midnightblue" d="M338.01,-172.31C353.17,-170.77 370.33,-169.16 386,-168 707.73,-144.12 789.03,-152.39 1111,-132 1431.1,-111.73 1516.94,-130.92 1837.29,-75.77"/>
<polygon fill="midnightblue" stroke="midnightblue" points="1838.07,-79.19 1847.33,-74.03 1836.88,-72.29 1838.07,-79.19"/>
</g>
<!-- Node28 -->
<g id="node28" class="node">
<title>Node28</title>
<g id="a_node28"><a xlink:href="SourceLocation_8hpp.html" target="_top" xlink:title=" ">
<polygon fill="none" stroke="black" points="114.5,-112.5 114.5,-131.5 245.5,-131.5 245.5,-112.5 114.5,-112.5"/>
<text text-anchor="middle" x="180" y="-119.5" font-family="Helvetica,sans-Serif" font-size="10.00">util/SourceLocation.hpp</text>
</a>
</g>
</g>
<!-- Node27&#45;&gt;Node28 -->
<g id="edge39" class="edge">
<title>Node27&#45;&gt;Node28</title>
<path fill="none" stroke="midnightblue" d="M276.78,-168.44C258.1,-159.68 228.84,-145.94 207.38,-135.86"/>
<polygon fill="midnightblue" stroke="midnightblue" points="208.68,-132.6 198.14,-131.52 205.7,-138.93 208.68,-132.6"/>
</g>
<!-- Node28&#45;&gt;Node9 -->
<g id="edge42" class="edge">
<title>Node28&#45;&gt;Node9</title>
<path fill="none" stroke="midnightblue" d="M114.39,-116.53C86.78,-111.02 57.14,-99.52 40,-76 34.76,-68.82 34.95,-63.31 40,-56 49.52,-42.23 89.49,-28.99 120.51,-20.48"/>
<polygon fill="midnightblue" stroke="midnightblue" points="121.46,-23.85 130.22,-17.89 119.66,-17.08 121.46,-23.85"/>
</g>
<!-- Node28&#45;&gt;Node11 -->
<g id="edge41" class="edge">
<title>Node28&#45;&gt;Node11</title>
<path fill="none" stroke="midnightblue" d="M176.35,-112.16C171.3,-98.34 164.26,-71.58 178,-56 180.63,-53.01 405.53,-26.24 496.98,-15.46"/>
<polygon fill="midnightblue" stroke="midnightblue" points="497.41,-18.94 506.93,-14.29 496.59,-11.98 497.41,-18.94"/>
</g>
<!-- Node28&#45;&gt;Node13 -->
<g id="edge40" class="edge">
<title>Node28&#45;&gt;Node13</title>
<path fill="none" stroke="midnightblue" d="M198.22,-112.44C216.9,-103.68 246.16,-89.94 267.62,-79.86"/>
<polygon fill="midnightblue" stroke="midnightblue" points="269.3,-82.93 276.86,-75.52 266.32,-76.6 269.3,-82.93"/>
</g>
<!-- Node29&#45;&gt;Node6 -->
<g id="edge50" class="edge">
<title>Node29&#45;&gt;Node6</title>
<path fill="none" stroke="midnightblue" d="M460.93,-229.24C375.64,-218.84 151.69,-186.75 105,-132 94.09,-119.21 90.73,-100.02 89.87,-85.8"/>
<polygon fill="midnightblue" stroke="midnightblue" points="93.36,-85.59 89.61,-75.68 86.36,-85.77 93.36,-85.59"/>
</g>
<!-- Node29&#45;&gt;Node23 -->
<g id="edge51" class="edge">
<title>Node29&#45;&gt;Node23</title>
<path fill="none" stroke="midnightblue" d="M527.22,-233.07C708.04,-233.29 1575.27,-231.97 1839,-188 1959.26,-167.95 2092.99,-107.01 2148.1,-80.06"/>
<polygon fill="midnightblue" stroke="midnightblue" points="2149.74,-83.15 2157.16,-75.59 2146.65,-76.88 2149.74,-83.15"/>
</g>
<!-- Node30 -->
<g id="node30" class="node">
<title>Node30</title>
<g id="a_node30"><a xlink:href="Options_8hpp.html" target="_top" xlink:title=" ">
<polygon fill="none" stroke="black" points="394.5,-168.5 394.5,-187.5 469.5,-187.5 469.5,-168.5 394.5,-168.5"/>
<text text-anchor="middle" x="432" y="-175.5" font-family="Helvetica,sans-Serif" font-size="10.00">Options.hpp</text>
</a>
</g>
</g>
<!-- Node29&#45;&gt;Node30 -->
<g id="edge52" class="edge">
<title>Node29&#45;&gt;Node30</title>
<path fill="none" stroke="midnightblue" d="M484.04,-224.32C474.87,-216.34 461.06,-204.31 449.97,-194.65"/>
<polygon fill="midnightblue" stroke="midnightblue" points="451.98,-191.76 442.14,-187.83 447.38,-197.04 451.98,-191.76"/>
</g>
<!-- Node30&#45;&gt;Node13 -->
<g id="edge53" class="edge">
<title>Node30&#45;&gt;Node13</title>
<path fill="none" stroke="midnightblue" d="M430.88,-168.23C428.7,-154.49 422.61,-127.85 407,-112 395.42,-100.25 355.73,-85.93 326.87,-76.65"/>
<polygon fill="midnightblue" stroke="midnightblue" points="327.77,-73.26 317.18,-73.59 325.67,-79.94 327.77,-73.26"/>
</g>
<!-- Node31 -->
<g id="node31" class="node">
<title>Node31</title>
<g id="a_node31"><a xlink:href="CLI11_8hpp.html" target="_top" xlink:title=" ">
<polygon fill="none" stroke="black" points="1002.5,-112.5 1002.5,-131.5 1101.5,-131.5 1101.5,-112.5 1002.5,-112.5"/>
<text text-anchor="middle" x="1052" y="-119.5" font-family="Helvetica,sans-Serif" font-size="10.00">extern/CLI11.hpp</text>
</a>
</g>
</g>
<!-- Node30&#45;&gt;Node31 -->
<g id="edge54" class="edge">
<title>Node30&#45;&gt;Node31</title>
<path fill="none" stroke="midnightblue" d="M469.85,-173.7C573.93,-164.64 865.08,-139.28 991.8,-128.24"/>
<polygon fill="midnightblue" stroke="midnightblue" points="992.43,-131.7 1002.09,-127.35 991.83,-124.73 992.43,-131.7"/>
</g>
<!-- Node31&#45;&gt;Node8 -->
<g id="edge68" class="edge">
<title>Node31&#45;&gt;Node8</title>
<path fill="none" stroke="midnightblue" d="M1002.46,-119.77C886.74,-116.45 601.65,-105.43 511,-76 494.69,-70.7 494.3,-61.32 478,-56 303.43,0.94 245.19,-50.17 60.2,-19.88"/>
<polygon fill="midnightblue" stroke="midnightblue" points="60.59,-16.4 50.14,-18.17 59.42,-23.3 60.59,-16.4"/>
</g>
<!-- Node31&#45;&gt;Node10 -->
<g id="edge64" class="edge">
<title>Node31&#45;&gt;Node10</title>
<path fill="none" stroke="midnightblue" d="M1002.45,-118.45C917.96,-113.58 740.81,-101.14 593,-76 556.02,-69.71 547.66,-63.96 511,-56 441.46,-40.9 359.8,-25.94 313.05,-17.64"/>
<polygon fill="midnightblue" stroke="midnightblue" points="313.52,-14.17 303.07,-15.88 312.3,-21.06 313.52,-14.17"/>
</g>
<!-- Node31&#45;&gt;Node11 -->
<g id="edge66" class="edge">
<title>Node31&#45;&gt;Node11</title>
<path fill="none" stroke="midnightblue" d="M1101.52,-119.59C1255.56,-114.97 1717.23,-99.24 1739,-76 1745.08,-69.51 1745.17,-62.4 1739,-56 1697.61,-13.03 773.57,-10.91 573.13,-10.96"/>
<polygon fill="midnightblue" stroke="midnightblue" points="573.08,-7.46 563.08,-10.96 573.08,-14.46 573.08,-7.46"/>
</g>
<!-- Node31&#45;&gt;Node12 -->
<g id="edge57" class="edge">
<title>Node31&#45;&gt;Node12</title>
<path fill="none" stroke="midnightblue" d="M1101.76,-119.41C1250.93,-114.42 1685.43,-98.03 1706,-76 1712.07,-69.5 1712.19,-62.38 1706,-56 1659.24,-7.82 564.95,-25.11 498,-20 485.07,-19.01 470.91,-17.39 458.53,-15.8"/>
<polygon fill="midnightblue" stroke="midnightblue" points="458.99,-12.33 448.62,-14.48 458.07,-19.27 458.99,-12.33"/>
</g>
<!-- Node31&#45;&gt;Node13 -->
<g id="edge56" class="edge">
<title>Node31&#45;&gt;Node13</title>
<path fill="none" stroke="midnightblue" d="M1002.25,-119.35C863.84,-114.53 475.28,-99.43 327.43,-75.8"/>
<polygon fill="midnightblue" stroke="midnightblue" points="327.65,-72.29 317.21,-74.09 326.5,-79.19 327.65,-72.29"/>
</g>
<!-- Node31&#45;&gt;Node14 -->
<g id="edge69" class="edge">
<title>Node31&#45;&gt;Node14</title>
<path fill="none" stroke="midnightblue" d="M1002.3,-119.12C903.14,-114.93 673.84,-102.96 483,-76 481.74,-75.82 480.46,-75.63 479.17,-75.43"/>
<polygon fill="midnightblue" stroke="midnightblue" points="479.66,-71.96 469.21,-73.69 478.46,-78.86 479.66,-71.96"/>
</g>
<!-- Node31&#45;&gt;Node16 -->
<g id="edge61" class="edge">
<title>Node31&#45;&gt;Node16</title>
<path fill="none" stroke="midnightblue" d="M1002.2,-120.44C894.27,-118.6 630.72,-110.77 401,-75.87"/>
<polygon fill="midnightblue" stroke="midnightblue" points="401.2,-72.36 390.78,-74.29 400.13,-79.27 401.2,-72.36"/>
</g>
<!-- Node31&#45;&gt;Node20 -->
<g id="edge60" class="edge">
<title>Node31&#45;&gt;Node20</title>
<path fill="none" stroke="midnightblue" d="M1101.66,-119.24C1243.15,-114.02 1646.52,-97.61 1777,-76 1778.29,-75.79 1779.59,-75.54 1780.91,-75.28"/>
<polygon fill="midnightblue" stroke="midnightblue" points="1782.03,-78.61 1790.95,-72.9 1780.41,-71.8 1782.03,-78.61"/>
</g>
<!-- Node31&#45;&gt;Node21 -->
<g id="edge74" class="edge">
<title>Node31&#45;&gt;Node21</title>
<path fill="none" stroke="midnightblue" d="M1101.53,-119.52C1247.66,-114.94 1676.22,-99.96 1837.13,-75.7"/>
<polygon fill="midnightblue" stroke="midnightblue" points="1838.01,-79.11 1847.34,-74.09 1836.91,-72.19 1838.01,-79.11"/>
</g>
<!-- Node32 -->
<g id="node32" class="node">
<title>Node32</title>
<g id="a_node32"><a xlink:title=" ">
<polygon fill="none" stroke="#bfbfbf" points="1421,-56.5 1421,-75.5 1479,-75.5 1479,-56.5 1421,-56.5"/>
<text text-anchor="middle" x="1450" y="-63.5" font-family="Helvetica,sans-Serif" font-size="10.00">memory</text>
</a>
</g>
</g>
<!-- Node31&#45;&gt;Node32 -->
<g id="edge55" class="edge">
<title>Node31&#45;&gt;Node32</title>
<path fill="none" stroke="midnightblue" d="M1101.75,-116.5C1169.48,-109.99 1294.63,-96.63 1410.5,-76.11"/>
<polygon fill="midnightblue" stroke="midnightblue" points="1411.38,-79.5 1420.61,-74.29 1410.15,-72.61 1411.38,-79.5"/>
</g>
<!-- Node33 -->
<g id="node33" class="node">
<title>Node33</title>
<g id="a_node33"><a xlink:title=" ">
<polygon fill="none" stroke="#bfbfbf" points="1497.5,-56.5 1497.5,-75.5 1562.5,-75.5 1562.5,-56.5 1497.5,-56.5"/>
<text text-anchor="middle" x="1530" y="-63.5" font-family="Helvetica,sans-Serif" font-size="10.00">functional</text>
</a>
</g>
</g>
<!-- Node31&#45;&gt;Node33 -->
<g id="edge58" class="edge">
<title>Node31&#45;&gt;Node33</title>
<path fill="none" stroke="midnightblue" d="M1101.59,-117.64C1180.91,-111.88 1341.35,-98.65 1487.03,-75.99"/>
<polygon fill="midnightblue" stroke="midnightblue" points="1487.71,-79.43 1497.05,-74.41 1486.63,-72.51 1487.71,-79.43"/>
</g>
<!-- Node34 -->
<g id="node34" class="node">
<title>Node34</title>
<g id="a_node34"><a xlink:title=" ">
<polygon fill="none" stroke="#bfbfbf" points="1581,-56.5 1581,-75.5 1637,-75.5 1637,-56.5 1581,-56.5"/>
<text text-anchor="middle" x="1609" y="-63.5" font-family="Helvetica,sans-Serif" font-size="10.00">numeric</text>
</a>
</g>
</g>
<!-- Node31&#45;&gt;Node34 -->
<g id="edge59" class="edge">
<title>Node31&#45;&gt;Node34</title>
<path fill="none" stroke="midnightblue" d="M1101.78,-119.22C1193.01,-115.4 1393.15,-104.48 1570.76,-75.96"/>
<polygon fill="midnightblue" stroke="midnightblue" points="1571.5,-79.39 1580.81,-74.33 1570.38,-72.48 1571.5,-79.39"/>
</g>
<!-- Node35 -->
<g id="node35" class="node">
<title>Node35</title>
<g id="a_node35"><a xlink:title=" ">
<polygon fill="none" stroke="#bfbfbf" points="1655.5,-56.5 1655.5,-75.5 1696.5,-75.5 1696.5,-56.5 1655.5,-56.5"/>
<text text-anchor="middle" x="1676" y="-63.5" font-family="Helvetica,sans-Serif" font-size="10.00">tuple</text>
</a>
</g>
</g>
<!-- Node31&#45;&gt;Node35 -->
<g id="edge62" class="edge">
<title>Node31&#45;&gt;Node35</title>
<path fill="none" stroke="midnightblue" d="M1101.75,-120.84C1202.73,-119.74 1438.93,-113.21 1645.37,-75.66"/>
<polygon fill="midnightblue" stroke="midnightblue" points="1646.29,-79.05 1655.49,-73.79 1645.02,-72.17 1646.29,-79.05"/>
</g>
<!-- Node36 -->
<g id="node36" class="node">
<title>Node36</title>
<g id="a_node36"><a xlink:title=" ">
<polygon fill="none" stroke="#bfbfbf" points="601.5,-56.5 601.5,-75.5 646.5,-75.5 646.5,-56.5 601.5,-56.5"/>
<text text-anchor="middle" x="624" y="-63.5" font-family="Helvetica,sans-Serif" font-size="10.00">utility</text>
</a>
</g>
</g>
<!-- Node31&#45;&gt;Node36 -->
<g id="edge63" class="edge">
<title>Node31&#45;&gt;Node36</title>
<path fill="none" stroke="midnightblue" d="M1002.22,-117.93C928.7,-112.82 786.68,-100.8 656.75,-75.83"/>
<polygon fill="midnightblue" stroke="midnightblue" points="657.1,-72.33 646.62,-73.85 655.76,-79.2 657.1,-72.33"/>
</g>
<!-- Node37 -->
<g id="node37" class="node">
<title>Node37</title>
<g id="a_node37"><a xlink:title=" ">
<polygon fill="none" stroke="#bfbfbf" points="665,-56.5 665,-75.5 711,-75.5 711,-56.5 665,-56.5"/>
<text text-anchor="middle" x="688" y="-63.5" font-family="Helvetica,sans-Serif" font-size="10.00">locale</text>
</a>
</g>
</g>
<!-- Node31&#45;&gt;Node37 -->
<g id="edge65" class="edge">
<title>Node31&#45;&gt;Node37</title>
<path fill="none" stroke="midnightblue" d="M1002.42,-116.46C939.18,-110.19 826.34,-97.38 721.15,-75.99"/>
<polygon fill="midnightblue" stroke="midnightblue" points="721.83,-72.56 711.33,-73.97 720.41,-79.42 721.83,-72.56"/>
</g>
<!-- Node38 -->
<g id="node38" class="node">
<title>Node38</title>
<g id="a_node38"><a xlink:title=" ">
<polygon fill="none" stroke="#bfbfbf" points="729,-56.5 729,-75.5 793,-75.5 793,-56.5 729,-56.5"/>
<text text-anchor="middle" x="761" y="-63.5" font-family="Helvetica,sans-Serif" font-size="10.00">algorithm</text>
</a>
</g>
</g>
<!-- Node31&#45;&gt;Node38 -->
<g id="edge67" class="edge">
<title>Node31&#45;&gt;Node38</title>
<path fill="none" stroke="midnightblue" d="M1002.09,-112.59C953.72,-104.31 878.05,-91.02 803.27,-76.2"/>
<polygon fill="midnightblue" stroke="midnightblue" points="803.7,-72.71 793.2,-74.19 802.33,-79.58 803.7,-72.71"/>
</g>
<!-- Node39 -->
<g id="node39" class="node">
<title>Node39</title>
<g id="a_node39"><a xlink:title=" ">
<polygon fill="none" stroke="#bfbfbf" points="811,-56.5 811,-75.5 843,-75.5 843,-56.5 811,-56.5"/>
<text text-anchor="middle" x="827" y="-63.5" font-family="Helvetica,sans-Serif" font-size="10.00">set</text>
</a>
</g>
</g>
<!-- Node31&#45;&gt;Node39 -->
<g id="edge70" class="edge">
<title>Node31&#45;&gt;Node39</title>
<path fill="none" stroke="midnightblue" d="M1007.78,-112.47C967.21,-104.29 905.63,-91.01 853,-76 852.9,-75.97 852.8,-75.94 852.7,-75.91"/>
<polygon fill="midnightblue" stroke="midnightblue" points="853.73,-72.57 843.14,-72.9 851.62,-79.24 853.73,-72.57"/>
</g>
<!-- Node40 -->
<g id="node40" class="node">
<title>Node40</title>
<g id="a_node40"><a xlink:title=" ">
<polygon fill="none" stroke="#bfbfbf" points="861.5,-56.5 861.5,-75.5 930.5,-75.5 930.5,-56.5 861.5,-56.5"/>
<text text-anchor="middle" x="896" y="-63.5" font-family="Helvetica,sans-Serif" font-size="10.00">type_traits</text>
</a>
</g>
</g>
<!-- Node31&#45;&gt;Node40 -->
<g id="edge71" class="edge">
<title>Node31&#45;&gt;Node40</title>
<path fill="none" stroke="midnightblue" d="M1027.28,-112.44C1001.15,-103.4 959.74,-89.06 930.42,-78.92"/>
<polygon fill="midnightblue" stroke="midnightblue" points="931.2,-75.48 920.6,-75.52 928.91,-82.1 931.2,-75.48"/>
</g>
<!-- Node41 -->
<g id="node41" class="node">
<title>Node41</title>
<g id="a_node41"><a xlink:title=" ">
<polygon fill="none" stroke="#bfbfbf" points="948.5,-56.5 948.5,-75.5 1001.5,-75.5 1001.5,-56.5 948.5,-56.5"/>
<text text-anchor="middle" x="975" y="-63.5" font-family="Helvetica,sans-Serif" font-size="10.00">iterator</text>
</a>
</g>
</g>
<!-- Node31&#45;&gt;Node41 -->
<g id="edge72" class="edge">
<title>Node31&#45;&gt;Node41</title>
<path fill="none" stroke="midnightblue" d="M1039.63,-112.32C1027.84,-104.06 1009.87,-91.45 995.86,-81.63"/>
<polygon fill="midnightblue" stroke="midnightblue" points="997.54,-78.53 987.34,-75.65 993.52,-84.26 997.54,-78.53"/>
</g>
<!-- Node42 -->
<g id="node42" class="node">
<title>Node42</title>
<g id="a_node42"><a xlink:title=" ">
<polygon fill="none" stroke="#bfbfbf" points="1019.5,-56.5 1019.5,-75.5 1084.5,-75.5 1084.5,-56.5 1019.5,-56.5"/>
<text text-anchor="middle" x="1052" y="-63.5" font-family="Helvetica,sans-Serif" font-size="10.00">stdexcept</text>
</a>
</g>
</g>
<!-- Node31&#45;&gt;Node42 -->
<g id="edge73" class="edge">
<title>Node31&#45;&gt;Node42</title>
<path fill="none" stroke="midnightblue" d="M1052,-112.08C1052,-105.01 1052,-94.86 1052,-85.99"/>
<polygon fill="midnightblue" stroke="midnightblue" points="1055.5,-85.75 1052,-75.75 1048.5,-85.75 1055.5,-85.75"/>
</g>
<!-- Node43 -->
<g id="node43" class="node">
<title>Node43</title>
<g id="a_node43"><a xlink:title=" ">
<polygon fill="none" stroke="#bfbfbf" points="1103,-56.5 1103,-75.5 1147,-75.5 1147,-56.5 1103,-56.5"/>
<text text-anchor="middle" x="1125" y="-63.5" font-family="Helvetica,sans-Serif" font-size="10.00">limits</text>
</a>
</g>
</g>
<!-- Node31&#45;&gt;Node43 -->
<g id="edge75" class="edge">
<title>Node31&#45;&gt;Node43</title>
<path fill="none" stroke="midnightblue" d="M1063.73,-112.32C1074.84,-104.11 1091.74,-91.6 1104.98,-81.81"/>
<polygon fill="midnightblue" stroke="midnightblue" points="1107.1,-84.59 1113.06,-75.83 1102.94,-78.97 1107.1,-84.59"/>
</g>
<!-- Node44 -->
<g id="node44" class="node">
<title>Node44</title>
<g id="a_node44"><a xlink:title=" ">
<polygon fill="none" stroke="#bfbfbf" points="1165.5,-56.5 1165.5,-75.5 1230.5,-75.5 1230.5,-56.5 1165.5,-56.5"/>
<text text-anchor="middle" x="1198" y="-63.5" font-family="Helvetica,sans-Serif" font-size="10.00">exception</text>
</a>
</g>
</g>
<!-- Node31&#45;&gt;Node44 -->
<g id="edge76" class="edge">
<title>Node31&#45;&gt;Node44</title>
<path fill="none" stroke="midnightblue" d="M1075.13,-112.44C1099.48,-103.44 1138.01,-89.19 1165.42,-79.05"/>
<polygon fill="midnightblue" stroke="midnightblue" points="1166.81,-82.27 1174.97,-75.52 1164.38,-75.7 1166.81,-82.27"/>
</g>
<!-- Node45 -->
<g id="node45" class="node">
<title>Node45</title>
<g id="a_node45"><a xlink:title=" ">
<polygon fill="none" stroke="#bfbfbf" points="1249,-56.5 1249,-75.5 1313,-75.5 1313,-56.5 1249,-56.5"/>
<text text-anchor="middle" x="1281" y="-63.5" font-family="Helvetica,sans-Serif" font-size="10.00">sys/stat.h</text>
</a>
</g>
</g>
<!-- Node31&#45;&gt;Node45 -->
<g id="edge77" class="edge">
<title>Node31&#45;&gt;Node45</title>
<path fill="none" stroke="midnightblue" d="M1088.29,-112.44C1129.27,-102.78 1195.86,-87.08 1239.04,-76.89"/>
<polygon fill="midnightblue" stroke="midnightblue" points="1240.02,-80.26 1248.95,-74.56 1238.41,-73.45 1240.02,-80.26"/>
</g>
<!-- Node46 -->
<g id="node46" class="node">
<title>Node46</title>
<g id="a_node46"><a xlink:title=" ">
<polygon fill="none" stroke="#bfbfbf" points="1331,-56.5 1331,-75.5 1403,-75.5 1403,-56.5 1331,-56.5"/>
<text text-anchor="middle" x="1367" y="-63.5" font-family="Helvetica,sans-Serif" font-size="10.00">sys/types.h</text>
</a>
</g>
</g>
<!-- Node31&#45;&gt;Node46 -->
<g id="edge78" class="edge">
<title>Node31&#45;&gt;Node46</title>
<path fill="none" stroke="midnightblue" d="M1101.85,-113.19C1153.97,-104.9 1238.42,-91.18 1320.65,-76.2"/>
<polygon fill="midnightblue" stroke="midnightblue" points="1321.46,-79.61 1330.67,-74.37 1320.2,-72.73 1321.46,-79.61"/>
</g>
</g>
</svg>
