<?xml version="1.0" encoding="UTF-8" standalone="no"?>
<!DOCTYPE svg PUBLIC "-//W3C//DTD SVG 1.1//EN"
 "http://www.w3.org/Graphics/SVG/1.1/DTD/svg11.dtd">
<!-- Generated by graphviz version 5.0.1 (0)
 -->
<!-- Title: EigenSystemDavidson.hpp Pages: 1 -->
<svg width="1023pt" height="308pt"
 viewBox="0.00 0.00 1022.50 308.00" xmlns="http://www.w3.org/2000/svg" xmlns:xlink="http://www.w3.org/1999/xlink">
<g id="graph0" class="graph" transform="scale(1 1) rotate(0) translate(4 304)">
<title>EigenSystemDavidson.hpp</title>
<!-- Node1 -->
<g id="node1" class="node">
<title>Node1</title>
<g id="a_node1"><a xlink:title=" ">
<polygon fill="#bfbfbf" stroke="black" points="528,-280.5 528,-299.5 675,-299.5 675,-280.5 528,-280.5"/>
<text text-anchor="middle" x="601.5" y="-287.5" font-family="Helvetica,sans-Serif" font-size="10.00">EigenSystemDavidson.hpp</text>
</a>
</g>
</g>
<!-- Node2 -->
<g id="node2" class="node">
<title>Node2</title>
<g id="a_node2"><a xlink:href="LapackMatrix_8hpp.html" target="_top" xlink:title=" ">
<polygon fill="none" stroke="black" points="253.5,-168.5 253.5,-187.5 375.5,-187.5 375.5,-168.5 253.5,-168.5"/>
<text text-anchor="middle" x="314.5" y="-175.5" font-family="Helvetica,sans-Serif" font-size="10.00">util/LapackMatrix.hpp</text>
</a>
</g>
</g>
<!-- Node1&#45;&gt;Node2 -->
<g id="edge1" class="edge">
<title>Node1&#45;&gt;Node2</title>
<path fill="none" stroke="midnightblue" d="M578.98,-280.37C528.26,-260.93 404.97,-213.67 346.4,-191.23"/>
<polygon fill="midnightblue" stroke="midnightblue" points="347.51,-187.9 336.92,-187.59 345,-194.44 347.51,-187.9"/>
</g>
<!-- Node3 -->
<g id="node3" class="node">
<title>Node3</title>
<g id="a_node3"><a xlink:href="Complex_8hpp.html" target="_top" xlink:title=" ">
<polygon fill="none" stroke="black" points="76.5,-112.5 76.5,-131.5 186.5,-131.5 186.5,-112.5 76.5,-112.5"/>
<text text-anchor="middle" x="131.5" y="-119.5" font-family="Helvetica,sans-Serif" font-size="10.00">math/Complex.hpp</text>
</a>
</g>
</g>
<!-- Node1&#45;&gt;Node3 -->
<g id="edge39" class="edge">
<title>Node1&#45;&gt;Node3</title>
<path fill="none" stroke="midnightblue" d="M527.79,-289.13C447.62,-287.31 316.57,-278.58 209.5,-244 161.03,-228.34 135.26,-231.95 109.5,-188 100.69,-172.97 109.13,-153.9 117.98,-140.31"/>
<polygon fill="midnightblue" stroke="midnightblue" points="121.02,-142.07 123.97,-131.89 115.32,-138.01 121.02,-142.07"/>
</g>
<!-- Node7 -->
<g id="node7" class="node">
<title>Node7</title>
<g id="a_node7"><a xlink:title=" ">
<polygon fill="none" stroke="#bfbfbf" points="0,-112.5 0,-131.5 47,-131.5 47,-112.5 0,-112.5"/>
<text text-anchor="middle" x="23.5" y="-119.5" font-family="Helvetica,sans-Serif" font-size="10.00">vector</text>
</a>
</g>
</g>
<!-- Node1&#45;&gt;Node7 -->
<g id="edge40" class="edge">
<title>Node1&#45;&gt;Node7</title>
<path fill="none" stroke="midnightblue" d="M527.65,-286.93C415.86,-282.93 209.51,-271.93 141.5,-244 91,-223.26 51.57,-168.75 33.8,-140.51"/>
<polygon fill="midnightblue" stroke="midnightblue" points="36.63,-138.43 28.44,-131.72 30.66,-142.08 36.63,-138.43"/>
</g>
<!-- Node11 -->
<g id="node11" class="node">
<title>Node11</title>
<g id="a_node11"><a xlink:href="LapackGeneralEigenSystem_8hpp.html" target="_top" xlink:title=" ">
<polygon fill="none" stroke="black" points="218,-224.5 218,-243.5 411,-243.5 411,-224.5 218,-224.5"/>
<text text-anchor="middle" x="314.5" y="-231.5" font-family="Helvetica,sans-Serif" font-size="10.00">util/LapackGeneralEigenSystem.hpp</text>
</a>
</g>
</g>
<!-- Node1&#45;&gt;Node11 -->
<g id="edge10" class="edge">
<title>Node1&#45;&gt;Node11</title>
<path fill="none" stroke="midnightblue" d="M556.02,-280.44C505.54,-270.94 424.04,-255.61 369.88,-245.42"/>
<polygon fill="midnightblue" stroke="midnightblue" points="370.24,-241.93 359.76,-243.52 368.94,-248.81 370.24,-241.93"/>
</g>
<!-- Node20 -->
<g id="node20" class="node">
<title>Node20</title>
<g id="a_node20"><a xlink:title=" ">
<polygon fill="none" stroke="#bfbfbf" points="854.5,-56.5 854.5,-75.5 910.5,-75.5 910.5,-56.5 854.5,-56.5"/>
<text text-anchor="middle" x="882.5" y="-63.5" font-family="Helvetica,sans-Serif" font-size="10.00">iomanip</text>
</a>
</g>
</g>
<!-- Node1&#45;&gt;Node20 -->
<g id="edge41" class="edge">
<title>Node1&#45;&gt;Node20</title>
<path fill="none" stroke="midnightblue" d="M621.59,-280.4C656.12,-265.04 727.95,-230.48 779.5,-188 804.8,-167.16 806.25,-156.96 827.5,-132 841.49,-115.57 857.42,-96.73 868.52,-83.58"/>
<polygon fill="midnightblue" stroke="midnightblue" points="871.27,-85.75 875.05,-75.85 865.92,-81.23 871.27,-85.75"/>
</g>
<!-- Node24 -->
<g id="node24" class="node">
<title>Node24</title>
<g id="a_node24"><a xlink:href="MathFunctions_8hpp.html" target="_top" xlink:title=" ">
<polygon fill="none" stroke="black" points="533,-224.5 533,-243.5 670,-243.5 670,-224.5 533,-224.5"/>
<text text-anchor="middle" x="601.5" y="-231.5" font-family="Helvetica,sans-Serif" font-size="10.00">math/MathFunctions.hpp</text>
</a>
</g>
</g>
<!-- Node1&#45;&gt;Node24 -->
<g id="edge33" class="edge">
<title>Node1&#45;&gt;Node24</title>
<path fill="none" stroke="midnightblue" d="M601.5,-280.08C601.5,-273.01 601.5,-262.86 601.5,-253.99"/>
<polygon fill="midnightblue" stroke="midnightblue" points="605,-253.75 601.5,-243.75 598,-253.75 605,-253.75"/>
</g>
<!-- Node25 -->
<g id="node25" class="node">
<title>Node25</title>
<g id="a_node25"><a xlink:title=" ">
<polygon fill="none" stroke="#bfbfbf" points="811,-224.5 811,-243.5 856,-243.5 856,-224.5 811,-224.5"/>
<text text-anchor="middle" x="833.5" y="-231.5" font-family="Helvetica,sans-Serif" font-size="10.00">utility</text>
</a>
</g>
</g>
<!-- Node1&#45;&gt;Node25 -->
<g id="edge42" class="edge">
<title>Node1&#45;&gt;Node25</title>
<path fill="none" stroke="midnightblue" d="M639.28,-280.42C678.58,-271.46 741.9,-256.94 796.5,-244 797.95,-243.66 799.43,-243.3 800.92,-242.95"/>
<polygon fill="midnightblue" stroke="midnightblue" points="801.91,-246.31 810.81,-240.56 800.27,-239.5 801.91,-246.31"/>
</g>
<!-- Node26 -->
<g id="node26" class="node">
<title>Node26</title>
<g id="a_node26"><a xlink:title=" ">
<polygon fill="none" stroke="#bfbfbf" points="874.5,-224.5 874.5,-243.5 938.5,-243.5 938.5,-224.5 874.5,-224.5"/>
<text text-anchor="middle" x="906.5" y="-231.5" font-family="Helvetica,sans-Serif" font-size="10.00">algorithm</text>
</a>
</g>
</g>
<!-- Node1&#45;&gt;Node26 -->
<g id="edge43" class="edge">
<title>Node1&#45;&gt;Node26</title>
<path fill="none" stroke="midnightblue" d="M655.99,-280.48C707.27,-272.29 786.46,-259.2 864.32,-244.16"/>
<polygon fill="midnightblue" stroke="midnightblue" points="865.15,-247.56 874.3,-242.22 863.82,-240.69 865.15,-247.56"/>
</g>
<!-- Node27 -->
<g id="node27" class="node">
<title>Node27</title>
<g id="a_node27"><a xlink:title=" ">
<polygon fill="none" stroke="#bfbfbf" points="956.5,-224.5 956.5,-243.5 1014.5,-243.5 1014.5,-224.5 956.5,-224.5"/>
<text text-anchor="middle" x="985.5" y="-231.5" font-family="Helvetica,sans-Serif" font-size="10.00">memory</text>
</a>
</g>
</g>
<!-- Node1&#45;&gt;Node27 -->
<g id="edge44" class="edge">
<title>Node1&#45;&gt;Node27</title>
<path fill="none" stroke="midnightblue" d="M675.08,-281.66C743.09,-274.36 847.13,-261.92 946.22,-244.08"/>
<polygon fill="midnightblue" stroke="midnightblue" points="946.89,-247.51 956.1,-242.28 945.64,-240.63 946.89,-247.51"/>
</g>
<!-- Node2&#45;&gt;Node3 -->
<g id="edge2" class="edge">
<title>Node2&#45;&gt;Node3</title>
<path fill="none" stroke="midnightblue" d="M285.5,-168.44C254.32,-159.24 204.57,-144.56 170.09,-134.39"/>
<polygon fill="midnightblue" stroke="midnightblue" points="170.94,-130.99 160.36,-131.52 168.96,-137.7 170.94,-130.99"/>
</g>
<!-- Node2&#45;&gt;Node7 -->
<g id="edge6" class="edge">
<title>Node2&#45;&gt;Node7</title>
<path fill="none" stroke="midnightblue" d="M265.7,-168.43C215.83,-159.6 136.19,-145.28 67.5,-132 64.11,-131.34 60.57,-130.64 57.04,-129.94"/>
<polygon fill="midnightblue" stroke="midnightblue" points="57.73,-126.51 47.23,-127.95 56.34,-133.37 57.73,-126.51"/>
</g>
<!-- Node8 -->
<g id="node8" class="node">
<title>Node8</title>
<g id="a_node8"><a xlink:title=" ">
<polygon fill="none" stroke="#bfbfbf" points="365.5,-56.5 365.5,-75.5 421.5,-75.5 421.5,-56.5 365.5,-56.5"/>
<text text-anchor="middle" x="393.5" y="-63.5" font-family="Helvetica,sans-Serif" font-size="10.00">sstream</text>
</a>
</g>
</g>
<!-- Node2&#45;&gt;Node8 -->
<g id="edge7" class="edge">
<title>Node2&#45;&gt;Node8</title>
<path fill="none" stroke="midnightblue" d="M320.7,-168.37C333.74,-150.22 364.2,-107.8 381.3,-83.99"/>
<polygon fill="midnightblue" stroke="midnightblue" points="384.34,-85.76 387.33,-75.59 378.65,-81.67 384.34,-85.76"/>
</g>
<!-- Node9 -->
<g id="node9" class="node">
<title>Node9</title>
<g id="a_node9"><a xlink:href="CTF_8hpp.html" target="_top" xlink:title=" ">
<polygon fill="none" stroke="black" points="253.5,-112.5 253.5,-131.5 327.5,-131.5 327.5,-112.5 253.5,-112.5"/>
<text text-anchor="middle" x="290.5" y="-119.5" font-family="Helvetica,sans-Serif" font-size="10.00">util/CTF.hpp</text>
</a>
</g>
</g>
<!-- Node2&#45;&gt;Node9 -->
<g id="edge8" class="edge">
<title>Node2&#45;&gt;Node9</title>
<path fill="none" stroke="midnightblue" d="M310.54,-168.08C307.29,-160.77 302.58,-150.18 298.55,-141.1"/>
<polygon fill="midnightblue" stroke="midnightblue" points="301.65,-139.47 294.39,-131.75 295.25,-142.31 301.65,-139.47"/>
</g>
<!-- Node4 -->
<g id="node4" class="node">
<title>Node4</title>
<g id="a_node4"><a xlink:href="Float_8hpp.html" target="_top" xlink:title=" ">
<polygon fill="none" stroke="black" points="169,-56.5 169,-75.5 260,-75.5 260,-56.5 169,-56.5"/>
<text text-anchor="middle" x="214.5" y="-63.5" font-family="Helvetica,sans-Serif" font-size="10.00">math/Float.hpp</text>
</a>
</g>
</g>
<!-- Node3&#45;&gt;Node4 -->
<g id="edge3" class="edge">
<title>Node3&#45;&gt;Node4</title>
<path fill="none" stroke="midnightblue" d="M144.84,-112.32C157.66,-103.98 177.28,-91.21 192.44,-81.35"/>
<polygon fill="midnightblue" stroke="midnightblue" points="194.72,-84.04 201.2,-75.65 190.91,-78.17 194.72,-84.04"/>
</g>
<!-- Node6 -->
<g id="node6" class="node">
<title>Node6</title>
<g id="a_node6"><a xlink:title=" ">
<polygon fill="none" stroke="#bfbfbf" points="92,-56.5 92,-75.5 151,-75.5 151,-56.5 92,-56.5"/>
<text text-anchor="middle" x="121.5" y="-63.5" font-family="Helvetica,sans-Serif" font-size="10.00">complex</text>
</a>
</g>
</g>
<!-- Node3&#45;&gt;Node6 -->
<g id="edge5" class="edge">
<title>Node3&#45;&gt;Node6</title>
<path fill="none" stroke="midnightblue" d="M129.85,-112.08C128.52,-104.93 126.62,-94.64 124.96,-85.69"/>
<polygon fill="midnightblue" stroke="midnightblue" points="128.38,-84.95 123.12,-75.75 121.5,-86.22 128.38,-84.95"/>
</g>
<!-- Node5 -->
<g id="node5" class="node">
<title>Node5</title>
<g id="a_node5"><a xlink:title=" ">
<polygon fill="none" stroke="#bfbfbf" points="386,-0.5 386,-19.5 443,-19.5 443,-0.5 386,-0.5"/>
<text text-anchor="middle" x="414.5" y="-7.5" font-family="Helvetica,sans-Serif" font-size="10.00">ostream</text>
</a>
</g>
</g>
<!-- Node4&#45;&gt;Node5 -->
<g id="edge4" class="edge">
<title>Node4&#45;&gt;Node5</title>
<path fill="none" stroke="midnightblue" d="M246.19,-56.44C281.33,-46.96 338.02,-31.65 375.76,-21.46"/>
<polygon fill="midnightblue" stroke="midnightblue" points="377.13,-24.71 385.87,-18.73 375.31,-17.96 377.13,-24.71"/>
</g>
<!-- Node10 -->
<g id="node10" class="node">
<title>Node10</title>
<g id="a_node10"><a xlink:title=" ">
<polygon fill="none" stroke="#bfbfbf" points="278.5,-56.5 278.5,-75.5 328.5,-75.5 328.5,-56.5 278.5,-56.5"/>
<text text-anchor="middle" x="303.5" y="-63.5" font-family="Helvetica,sans-Serif" font-size="10.00">ctf.hpp</text>
</a>
</g>
</g>
<!-- Node9&#45;&gt;Node10 -->
<g id="edge9" class="edge">
<title>Node9&#45;&gt;Node10</title>
<path fill="none" stroke="midnightblue" d="M292.65,-112.08C294.37,-104.93 296.85,-94.64 299,-85.69"/>
<polygon fill="midnightblue" stroke="midnightblue" points="302.46,-86.29 301.39,-75.75 295.65,-84.65 302.46,-86.29"/>
</g>
<!-- Node11&#45;&gt;Node2 -->
<g id="edge12" class="edge">
<title>Node11&#45;&gt;Node2</title>
<path fill="none" stroke="midnightblue" d="M314.5,-224.08C314.5,-217.01 314.5,-206.86 314.5,-197.99"/>
<polygon fill="midnightblue" stroke="midnightblue" points="318,-197.75 314.5,-187.75 311,-197.75 318,-197.75"/>
</g>
<!-- Node11&#45;&gt;Node3 -->
<g id="edge11" class="edge">
<title>Node11&#45;&gt;Node3</title>
<path fill="none" stroke="midnightblue" d="M233.72,-224.49C186.74,-217.69 133.99,-206.22 119.5,-188 108.92,-174.7 114.59,-155.04 121.26,-140.83"/>
<polygon fill="midnightblue" stroke="midnightblue" points="124.54,-142.1 126.07,-131.61 118.34,-138.86 124.54,-142.1"/>
</g>
<!-- Node11&#45;&gt;Node7 -->
<g id="edge32" class="edge">
<title>Node11&#45;&gt;Node7</title>
<path fill="none" stroke="midnightblue" d="M239.44,-224.44C199.52,-217.96 150.37,-206.83 109.5,-188 82.58,-175.6 56.05,-153.66 39.73,-138.73"/>
<polygon fill="midnightblue" stroke="midnightblue" points="41.87,-135.94 32.18,-131.66 37.08,-141.05 41.87,-135.94"/>
</g>
<!-- Node12 -->
<g id="node12" class="node">
<title>Node12</title>
<g id="a_node12"><a xlink:href="Exception_8hpp.html" target="_top" xlink:title=" ">
<polygon fill="none" stroke="black" points="469.5,-168.5 469.5,-187.5 573.5,-187.5 573.5,-168.5 469.5,-168.5"/>
<text text-anchor="middle" x="521.5" y="-175.5" font-family="Helvetica,sans-Serif" font-size="10.00">util/Exception.hpp</text>
</a>
</g>
</g>
<!-- Node11&#45;&gt;Node12 -->
<g id="edge13" class="edge">
<title>Node11&#45;&gt;Node12</title>
<path fill="none" stroke="midnightblue" d="M347.3,-224.44C382.88,-215.16 439.81,-200.31 478.85,-190.13"/>
<polygon fill="midnightblue" stroke="midnightblue" points="480.06,-193.43 488.85,-187.52 478.29,-186.65 480.06,-193.43"/>
</g>
<!-- Node15 -->
<g id="node15" class="node">
<title>Node15</title>
<g id="a_node15"><a xlink:href="Lapack_8hpp.html" target="_top" xlink:title=" ">
<polygon fill="none" stroke="black" points="128,-168.5 128,-187.5 235,-187.5 235,-168.5 128,-168.5"/>
<text text-anchor="middle" x="181.5" y="-175.5" font-family="Helvetica,sans-Serif" font-size="10.00">extern/Lapack.hpp</text>
</a>
</g>
</g>
<!-- Node11&#45;&gt;Node15 -->
<g id="edge17" class="edge">
<title>Node11&#45;&gt;Node15</title>
<path fill="none" stroke="midnightblue" d="M293.43,-224.44C271.44,-215.52 236.77,-201.44 211.84,-191.32"/>
<polygon fill="midnightblue" stroke="midnightblue" points="213.06,-188.04 202.48,-187.52 210.42,-194.52 213.06,-188.04"/>
</g>
<!-- Node16 -->
<g id="node16" class="node">
<title>Node16</title>
<g id="a_node16"><a xlink:href="Log_8hpp.html" target="_top" xlink:title=" ">
<polygon fill="none" stroke="black" points="629.5,-168.5 629.5,-187.5 703.5,-187.5 703.5,-168.5 629.5,-168.5"/>
<text text-anchor="middle" x="666.5" y="-175.5" font-family="Helvetica,sans-Serif" font-size="10.00">util/Log.hpp</text>
</a>
</g>
</g>
<!-- Node11&#45;&gt;Node16 -->
<g id="edge20" class="edge">
<title>Node11&#45;&gt;Node16</title>
<path fill="none" stroke="midnightblue" d="M370.28,-224.44C439.1,-213.89 554.9,-196.12 619.44,-186.22"/>
<polygon fill="midnightblue" stroke="midnightblue" points="619.99,-189.68 629.34,-184.7 618.93,-182.76 619.99,-189.68"/>
</g>
<!-- Node12&#45;&gt;Node8 -->
<g id="edge15" class="edge">
<title>Node12&#45;&gt;Node8</title>
<path fill="none" stroke="midnightblue" d="M477.71,-168.43C455.36,-161.94 429.4,-150.81 412.5,-132 401.09,-119.3 396.51,-100.1 394.69,-85.86"/>
<polygon fill="midnightblue" stroke="midnightblue" points="398.15,-85.34 393.73,-75.71 391.18,-86 398.15,-85.34"/>
</g>
<!-- Node13 -->
<g id="node13" class="node">
<title>Node13</title>
<g id="a_node13"><a xlink:title=" ">
<polygon fill="none" stroke="#bfbfbf" points="499.5,-112.5 499.5,-131.5 543.5,-131.5 543.5,-112.5 499.5,-112.5"/>
<text text-anchor="middle" x="521.5" y="-119.5" font-family="Helvetica,sans-Serif" font-size="10.00">string</text>
</a>
</g>
</g>
<!-- Node12&#45;&gt;Node13 -->
<g id="edge14" class="edge">
<title>Node12&#45;&gt;Node13</title>
<path fill="none" stroke="midnightblue" d="M521.5,-168.08C521.5,-161.01 521.5,-150.86 521.5,-141.99"/>
<polygon fill="midnightblue" stroke="midnightblue" points="525,-141.75 521.5,-131.75 518,-141.75 525,-141.75"/>
</g>
<!-- Node14 -->
<g id="node14" class="node">
<title>Node14</title>
<g id="a_node14"><a xlink:title=" ">
<polygon fill="none" stroke="#bfbfbf" points="421.5,-112.5 421.5,-131.5 481.5,-131.5 481.5,-112.5 421.5,-112.5"/>
<text text-anchor="middle" x="451.5" y="-119.5" font-family="Helvetica,sans-Serif" font-size="10.00">iostream</text>
</a>
</g>
</g>
<!-- Node12&#45;&gt;Node14 -->
<g id="edge16" class="edge">
<title>Node12&#45;&gt;Node14</title>
<path fill="none" stroke="midnightblue" d="M510.25,-168.32C499.7,-160.18 483.7,-147.84 471.06,-138.09"/>
<polygon fill="midnightblue" stroke="midnightblue" points="473.01,-135.17 462.95,-131.83 468.73,-140.71 473.01,-135.17"/>
</g>
<!-- Node15&#45;&gt;Node3 -->
<g id="edge19" class="edge">
<title>Node15&#45;&gt;Node3</title>
<path fill="none" stroke="midnightblue" d="M173.24,-168.08C166.04,-160.3 155.39,-148.8 146.65,-139.37"/>
<polygon fill="midnightblue" stroke="midnightblue" points="148.97,-136.71 139.6,-131.75 143.83,-141.47 148.97,-136.71"/>
</g>
<!-- Node15&#45;&gt;Node4 -->
<g id="edge18" class="edge">
<title>Node15&#45;&gt;Node4</title>
<path fill="none" stroke="midnightblue" d="M184.23,-168.39C187.08,-159.34 191.67,-144.69 195.5,-132 200.22,-116.35 205.42,-98.52 209.18,-85.5"/>
<polygon fill="midnightblue" stroke="midnightblue" points="212.56,-86.42 211.97,-75.85 205.83,-84.49 212.56,-86.42"/>
</g>
<!-- Node16&#45;&gt;Node13 -->
<g id="edge28" class="edge">
<title>Node16&#45;&gt;Node13</title>
<path fill="none" stroke="midnightblue" d="M643.52,-168.44C619.2,-159.39 580.63,-145.02 553.37,-134.87"/>
<polygon fill="midnightblue" stroke="midnightblue" points="554.48,-131.55 543.89,-131.34 552.04,-138.11 554.48,-131.55"/>
</g>
<!-- Node16&#45;&gt;Node14 -->
<g id="edge29" class="edge">
<title>Node16&#45;&gt;Node14</title>
<path fill="none" stroke="midnightblue" d="M632.43,-168.44C594.12,-158.82 531.97,-143.21 491.41,-133.02"/>
<polygon fill="midnightblue" stroke="midnightblue" points="492.14,-129.6 481.59,-130.56 490.44,-136.39 492.14,-129.6"/>
</g>
<!-- Node17 -->
<g id="node17" class="node">
<title>Node17</title>
<g id="a_node17"><a xlink:href="Time_8hpp.html" target="_top" xlink:title=" ">
<polygon fill="none" stroke="black" points="720,-112.5 720,-131.5 801,-131.5 801,-112.5 720,-112.5"/>
<text text-anchor="middle" x="760.5" y="-119.5" font-family="Helvetica,sans-Serif" font-size="10.00">util/Time.hpp</text>
</a>
</g>
</g>
<!-- Node16&#45;&gt;Node17 -->
<g id="edge21" class="edge">
<title>Node16&#45;&gt;Node17</title>
<path fill="none" stroke="midnightblue" d="M681.6,-168.32C696.4,-159.82 719.19,-146.73 736.48,-136.8"/>
<polygon fill="midnightblue" stroke="midnightblue" points="738.51,-139.67 745.43,-131.65 735.02,-133.6 738.51,-139.67"/>
</g>
<!-- Node22 -->
<g id="node22" class="node">
<title>Node22</title>
<g id="a_node22"><a xlink:title=" ">
<polygon fill="none" stroke="#bfbfbf" points="562,-112.5 562,-131.5 629,-131.5 629,-112.5 562,-112.5"/>
<text text-anchor="middle" x="595.5" y="-119.5" font-family="Helvetica,sans-Serif" font-size="10.00">streambuf</text>
</a>
</g>
</g>
<!-- Node16&#45;&gt;Node22 -->
<g id="edge30" class="edge">
<title>Node16&#45;&gt;Node22</title>
<path fill="none" stroke="midnightblue" d="M655.09,-168.32C644.39,-160.18 628.16,-147.84 615.34,-138.09"/>
<polygon fill="midnightblue" stroke="midnightblue" points="617.19,-135.1 607.11,-131.83 612.96,-140.67 617.19,-135.1"/>
</g>
<!-- Node23 -->
<g id="node23" class="node">
<title>Node23</title>
<g id="a_node23"><a xlink:title=" ">
<polygon fill="none" stroke="#bfbfbf" points="647,-112.5 647,-131.5 702,-131.5 702,-112.5 647,-112.5"/>
<text text-anchor="middle" x="674.5" y="-119.5" font-family="Helvetica,sans-Serif" font-size="10.00">fstream</text>
</a>
</g>
</g>
<!-- Node16&#45;&gt;Node23 -->
<g id="edge31" class="edge">
<title>Node16&#45;&gt;Node23</title>
<path fill="none" stroke="midnightblue" d="M667.82,-168.08C668.88,-160.93 670.41,-150.64 671.73,-141.69"/>
<polygon fill="midnightblue" stroke="midnightblue" points="675.2,-142.16 673.2,-131.75 668.28,-141.13 675.2,-142.16"/>
</g>
<!-- Node17&#45;&gt;Node5 -->
<g id="edge24" class="edge">
<title>Node17&#45;&gt;Node5</title>
<path fill="none" stroke="midnightblue" d="M733.64,-112.46C672.2,-92.93 521.33,-44.96 451.31,-22.7"/>
<polygon fill="midnightblue" stroke="midnightblue" points="452.17,-19.3 441.58,-19.61 450.05,-25.98 452.17,-19.3"/>
</g>
<!-- Node17&#45;&gt;Node8 -->
<g id="edge26" class="edge">
<title>Node17&#45;&gt;Node8</title>
<path fill="none" stroke="midnightblue" d="M719.88,-113.41C717.05,-112.92 714.23,-112.44 711.5,-112 610.78,-95.63 491.55,-79.67 431.75,-71.9"/>
<polygon fill="midnightblue" stroke="midnightblue" points="432,-68.4 421.63,-70.59 431.1,-75.34 432,-68.4"/>
</g>
<!-- Node18 -->
<g id="node18" class="node">
<title>Node18</title>
<g id="a_node18"><a xlink:title=" ">
<polygon fill="none" stroke="#bfbfbf" points="658.5,-56.5 658.5,-75.5 702.5,-75.5 702.5,-56.5 658.5,-56.5"/>
<text text-anchor="middle" x="680.5" y="-63.5" font-family="Helvetica,sans-Serif" font-size="10.00">ctime</text>
</a>
</g>
</g>
<!-- Node17&#45;&gt;Node18 -->
<g id="edge22" class="edge">
<title>Node17&#45;&gt;Node18</title>
<path fill="none" stroke="midnightblue" d="M747.65,-112.32C735.28,-103.98 716.37,-91.21 701.76,-81.35"/>
<polygon fill="midnightblue" stroke="midnightblue" points="703.57,-78.35 693.32,-75.65 699.65,-84.15 703.57,-78.35"/>
</g>
<!-- Node19 -->
<g id="node19" class="node">
<title>Node19</title>
<g id="a_node19"><a xlink:title=" ">
<polygon fill="none" stroke="#bfbfbf" points="720.5,-56.5 720.5,-75.5 770.5,-75.5 770.5,-56.5 720.5,-56.5"/>
<text text-anchor="middle" x="745.5" y="-63.5" font-family="Helvetica,sans-Serif" font-size="10.00">cstdint</text>
</a>
</g>
</g>
<!-- Node17&#45;&gt;Node19 -->
<g id="edge23" class="edge">
<title>Node17&#45;&gt;Node19</title>
<path fill="none" stroke="midnightblue" d="M758.02,-112.08C756.01,-104.85 753.11,-94.41 750.61,-85.4"/>
<polygon fill="midnightblue" stroke="midnightblue" points="753.98,-84.45 747.93,-75.75 747.24,-86.32 753.98,-84.45"/>
</g>
<!-- Node17&#45;&gt;Node20 -->
<g id="edge25" class="edge">
<title>Node17&#45;&gt;Node20</title>
<path fill="none" stroke="midnightblue" d="M779.83,-112.44C799.82,-103.6 831.24,-89.69 854.06,-79.59"/>
<polygon fill="midnightblue" stroke="midnightblue" points="855.53,-82.76 863.26,-75.52 852.7,-76.36 855.53,-82.76"/>
</g>
<!-- Node21 -->
<g id="node21" class="node">
<title>Node21</title>
<g id="a_node21"><a xlink:title=" ">
<polygon fill="none" stroke="#bfbfbf" points="789,-56.5 789,-75.5 836,-75.5 836,-56.5 789,-56.5"/>
<text text-anchor="middle" x="812.5" y="-63.5" font-family="Helvetica,sans-Serif" font-size="10.00">cmath</text>
</a>
</g>
</g>
<!-- Node17&#45;&gt;Node21 -->
<g id="edge27" class="edge">
<title>Node17&#45;&gt;Node21</title>
<path fill="none" stroke="midnightblue" d="M769.09,-112.08C776.66,-104.22 787.88,-92.57 797.01,-83.08"/>
<polygon fill="midnightblue" stroke="midnightblue" points="799.66,-85.38 804.07,-75.75 794.62,-80.53 799.66,-85.38"/>
</g>
<!-- Node24&#45;&gt;Node3 -->
<g id="edge34" class="edge">
<title>Node24&#45;&gt;Node3</title>
<path fill="none" stroke="midnightblue" d="M548.6,-224.5C511.08,-217.41 460.04,-205.6 417.5,-188 401.65,-181.44 400.55,-174.05 384.5,-168 323.15,-144.88 248.87,-133.47 196.72,-127.95"/>
<polygon fill="midnightblue" stroke="midnightblue" points="196.89,-124.45 186.59,-126.93 196.19,-131.42 196.89,-124.45"/>
</g>
<!-- Node24&#45;&gt;Node9 -->
<g id="edge37" class="edge">
<title>Node24&#45;&gt;Node9</title>
<path fill="none" stroke="midnightblue" d="M570.86,-224.44C542.03,-216.1 497.84,-202.58 460.5,-188 440.87,-180.34 437.01,-175.97 417.5,-168 387.3,-155.66 352.3,-143.41 326.71,-134.81"/>
<polygon fill="midnightblue" stroke="midnightblue" points="327.64,-131.43 317.04,-131.59 325.42,-138.07 327.64,-131.43"/>
</g>
<!-- Node24&#45;&gt;Node13 -->
<g id="edge36" class="edge">
<title>Node24&#45;&gt;Node13</title>
<path fill="none" stroke="midnightblue" d="M600.73,-224.24C599.19,-210.99 594.75,-185.54 582.5,-168 573.55,-155.19 559.78,-144.58 547.59,-136.89"/>
<polygon fill="midnightblue" stroke="midnightblue" points="549.06,-133.69 538.68,-131.59 545.48,-139.71 549.06,-133.69"/>
</g>
<!-- Node24&#45;&gt;Node16 -->
<g id="edge38" class="edge">
<title>Node24&#45;&gt;Node16</title>
<path fill="none" stroke="midnightblue" d="M611.94,-224.32C621.65,-216.26 636.32,-204.08 648,-194.37"/>
<polygon fill="midnightblue" stroke="midnightblue" points="650.41,-196.92 655.87,-187.83 645.94,-191.53 650.41,-196.92"/>
</g>
<!-- Node24&#45;&gt;Node21 -->
<g id="edge35" class="edge">
<title>Node24&#45;&gt;Node21</title>
<path fill="none" stroke="midnightblue" d="M653.14,-224.46C703.49,-213.06 777.18,-187.44 810.5,-132 818.77,-118.24 818.47,-99.71 816.57,-85.96"/>
<polygon fill="midnightblue" stroke="midnightblue" points="819.95,-84.97 814.75,-75.74 813.06,-86.2 819.95,-84.97"/>
</g>
</g>
</svg>
