<?xml version="1.0" encoding="UTF-8" standalone="no"?>
<!DOCTYPE svg PUBLIC "-//W3C//DTD SVG 1.1//EN"
 "http://www.w3.org/Graphics/SVG/1.1/DTD/svg11.dtd">
<!-- Generated by graphviz version 5.0.1 (0)
 -->
<!-- Title: EigenSystemDavidson.hpp Pages: 1 -->
<svg width="1023pt" height="302pt"
 viewBox="0.00 0.00 1022.50 302.00" xmlns="http://www.w3.org/2000/svg" xmlns:xlink="http://www.w3.org/1999/xlink">
<g id="graph0" class="graph" transform="scale(1 1) rotate(0) translate(4 298)">
<title>EigenSystemDavidson.hpp</title>
<!-- Node1 -->
<g id="node1" class="node">
<title>Node1</title>
<g id="a_node1"><a xlink:title=" ">
<polygon fill="#999999" stroke="#666666" points="675,-294 528,-294 528,-275 675,-275 675,-294"/>
<text text-anchor="middle" x="601.5" y="-282" font-family="Helvetica,sans-Serif" font-size="10.00">EigenSystemDavidson.hpp</text>
</a>
</g>
</g>
<!-- Node2 -->
<g id="node2" class="node">
<title>Node2</title>
<g id="a_node2"><a xlink:href="LapackMatrix_8hpp.html" target="_top" xlink:title=" ">
<polygon fill="white" stroke="#666666" points="173.5,-184 51.5,-184 51.5,-165 173.5,-165 173.5,-184"/>
<text text-anchor="middle" x="112.5" y="-172" font-family="Helvetica,sans-Serif" font-size="10.00">util/LapackMatrix.hpp</text>
</a>
</g>
</g>
<!-- Node1&#45;&gt;Node2 -->
<g id="edge1" class="edge">
<title>Node1&#45;&gt;Node2</title>
<path fill="none" stroke="#63b8ff" d="M527.96,-283.26C450.81,-281.07 326.91,-272.03 225.5,-239 190.49,-227.6 154.07,-204.83 132.35,-189.88"/>
<polygon fill="#63b8ff" stroke="#63b8ff" points="134.18,-186.89 123.98,-184.01 130.16,-192.62 134.18,-186.89"/>
</g>
<!-- Node3 -->
<g id="node3" class="node">
<title>Node3</title>
<g id="a_node3"><a xlink:href="Complex_8hpp.html" target="_top" xlink:title=" ">
<polygon fill="white" stroke="#666666" points="327.5,-129 217.5,-129 217.5,-110 327.5,-110 327.5,-129"/>
<text text-anchor="middle" x="272.5" y="-117" font-family="Helvetica,sans-Serif" font-size="10.00">math/Complex.hpp</text>
</a>
</g>
</g>
<!-- Node1&#45;&gt;Node3 -->
<g id="edge40" class="edge">
<title>Node1&#45;&gt;Node3</title>
<path fill="none" stroke="#63b8ff" d="M527.97,-282.68C447.02,-280.16 324.01,-270.98 291.5,-239 264.98,-212.91 266.21,-165.56 269.38,-139.3"/>
<polygon fill="#63b8ff" stroke="#63b8ff" points="272.88,-139.56 270.84,-129.17 265.95,-138.57 272.88,-139.56"/>
</g>
<!-- Node7 -->
<g id="node7" class="node">
<title>Node7</title>
<g id="a_node7"><a xlink:title=" ">
<polygon fill="#e0e0e0" stroke="#999999" points="47,-129 0,-129 0,-110 47,-110 47,-129"/>
<text text-anchor="middle" x="23.5" y="-117" font-family="Helvetica,sans-Serif" font-size="10.00">vector</text>
</a>
</g>
</g>
<!-- Node1&#45;&gt;Node7 -->
<g id="edge41" class="edge">
<title>Node1&#45;&gt;Node7</title>
<path fill="none" stroke="#63b8ff" d="M527.82,-281.08C442.9,-277.06 299.61,-266.5 179.5,-239 109.06,-222.87 69.45,-242.11 26.5,-184 17.17,-171.38 17.28,-153.19 19.22,-139.51"/>
<polygon fill="#63b8ff" stroke="#63b8ff" points="22.73,-139.77 21.11,-129.3 15.85,-138.49 22.73,-139.77"/>
</g>
<!-- Node12 -->
<g id="node12" class="node">
<title>Node12</title>
<g id="a_node12"><a xlink:href="LapackGeneralEigenSystem_8hpp.html" target="_top" xlink:title=" ">
<polygon fill="white" stroke="#666666" points="494,-239 301,-239 301,-220 494,-220 494,-239"/>
<text text-anchor="middle" x="397.5" y="-227" font-family="Helvetica,sans-Serif" font-size="10.00">util/LapackGeneralEigenSystem.hpp</text>
</a>
</g>
</g>
<!-- Node1&#45;&gt;Node12 -->
<g id="edge11" class="edge">
<title>Node1&#45;&gt;Node12</title>
<path fill="none" stroke="#63b8ff" d="M568.72,-274.98C533.88,-265.93 478.63,-251.58 440.36,-241.64"/>
<polygon fill="#63b8ff" stroke="#63b8ff" points="441.09,-238.21 430.53,-239.08 439.33,-244.98 441.09,-238.21"/>
</g>
<!-- Node21 -->
<g id="node21" class="node">
<title>Node21</title>
<g id="a_node21"><a xlink:title=" ">
<polygon fill="#e0e0e0" stroke="#999999" points="888.5,-74 832.5,-74 832.5,-55 888.5,-55 888.5,-74"/>
<text text-anchor="middle" x="860.5" y="-62" font-family="Helvetica,sans-Serif" font-size="10.00">iomanip</text>
</a>
</g>
</g>
<!-- Node1&#45;&gt;Node21 -->
<g id="edge42" class="edge">
<title>Node1&#45;&gt;Node21</title>
<path fill="none" stroke="#63b8ff" d="M622.67,-274.88C657.87,-259.9 729.62,-226.52 780.5,-184 814.65,-155.46 840.21,-108.77 852.45,-83.35"/>
<polygon fill="#63b8ff" stroke="#63b8ff" points="855.69,-84.7 856.75,-74.16 849.34,-81.74 855.69,-84.7"/>
</g>
<!-- Node25 -->
<g id="node25" class="node">
<title>Node25</title>
<g id="a_node25"><a xlink:href="MathFunctions_8hpp.html" target="_top" xlink:title=" ">
<polygon fill="white" stroke="#666666" points="670,-239 533,-239 533,-220 670,-220 670,-239"/>
<text text-anchor="middle" x="601.5" y="-227" font-family="Helvetica,sans-Serif" font-size="10.00">math/MathFunctions.hpp</text>
</a>
</g>
</g>
<!-- Node1&#45;&gt;Node25 -->
<g id="edge34" class="edge">
<title>Node1&#45;&gt;Node25</title>
<path fill="none" stroke="#63b8ff" d="M601.5,-274.75C601.5,-267.8 601.5,-257.85 601.5,-249.13"/>
<polygon fill="#63b8ff" stroke="#63b8ff" points="605,-249.09 601.5,-239.09 598,-249.09 605,-249.09"/>
</g>
<!-- Node26 -->
<g id="node26" class="node">
<title>Node26</title>
<g id="a_node26"><a xlink:title=" ">
<polygon fill="#e0e0e0" stroke="#999999" points="856,-239 811,-239 811,-220 856,-220 856,-239"/>
<text text-anchor="middle" x="833.5" y="-227" font-family="Helvetica,sans-Serif" font-size="10.00">utility</text>
</a>
</g>
</g>
<!-- Node1&#45;&gt;Node26 -->
<g id="edge43" class="edge">
<title>Node1&#45;&gt;Node26</title>
<path fill="none" stroke="#63b8ff" d="M638.89,-274.99C678.14,-266.04 741.67,-251.56 796.5,-239 797.95,-238.67 799.42,-238.33 800.92,-237.99"/>
<polygon fill="#63b8ff" stroke="#63b8ff" points="801.84,-241.37 810.8,-235.72 800.27,-234.54 801.84,-241.37"/>
</g>
<!-- Node27 -->
<g id="node27" class="node">
<title>Node27</title>
<g id="a_node27"><a xlink:title=" ">
<polygon fill="#e0e0e0" stroke="#999999" points="938.5,-239 874.5,-239 874.5,-220 938.5,-220 938.5,-239"/>
<text text-anchor="middle" x="906.5" y="-227" font-family="Helvetica,sans-Serif" font-size="10.00">algorithm</text>
</a>
</g>
</g>
<!-- Node1&#45;&gt;Node27 -->
<g id="edge44" class="edge">
<title>Node1&#45;&gt;Node27</title>
<path fill="none" stroke="#63b8ff" d="M655.71,-274.97C706.96,-266.77 786.26,-253.73 864.29,-239.17"/>
<polygon fill="#63b8ff" stroke="#63b8ff" points="865.11,-242.58 874.29,-237.3 863.82,-235.7 865.11,-242.58"/>
</g>
<!-- Node28 -->
<g id="node28" class="node">
<title>Node28</title>
<g id="a_node28"><a xlink:title=" ">
<polygon fill="#e0e0e0" stroke="#999999" points="1014.5,-239 956.5,-239 956.5,-220 1014.5,-220 1014.5,-239"/>
<text text-anchor="middle" x="985.5" y="-227" font-family="Helvetica,sans-Serif" font-size="10.00">memory</text>
</a>
</g>
</g>
<!-- Node1&#45;&gt;Node28 -->
<g id="edge45" class="edge">
<title>Node1&#45;&gt;Node28</title>
<path fill="none" stroke="#63b8ff" d="M675.03,-276.03C743.01,-268.67 847.03,-256.27 946.21,-239.09"/>
<polygon fill="#63b8ff" stroke="#63b8ff" points="946.85,-242.53 956.1,-237.36 945.64,-235.64 946.85,-242.53"/>
</g>
<!-- Node2&#45;&gt;Node3 -->
<g id="edge2" class="edge">
<title>Node2&#45;&gt;Node3</title>
<path fill="none" stroke="#63b8ff" d="M138.21,-164.98C164.95,-156.13 207.03,-142.19 236.95,-132.28"/>
<polygon fill="#63b8ff" stroke="#63b8ff" points="238.2,-135.55 246.59,-129.08 236,-128.9 238.2,-135.55"/>
</g>
<!-- Node2&#45;&gt;Node7 -->
<g id="edge6" class="edge">
<title>Node2&#45;&gt;Node7</title>
<path fill="none" stroke="#63b8ff" d="M98.2,-164.98C84.4,-156.77 63.26,-144.18 46.99,-134.49"/>
<polygon fill="#63b8ff" stroke="#63b8ff" points="48.44,-131.28 38.06,-129.17 44.86,-137.29 48.44,-131.28"/>
</g>
<!-- Node8 -->
<g id="node8" class="node">
<title>Node8</title>
<g id="a_node8"><a xlink:title=" ">
<polygon fill="#e0e0e0" stroke="#999999" points="475.5,-74 419.5,-74 419.5,-55 475.5,-55 475.5,-74"/>
<text text-anchor="middle" x="447.5" y="-62" font-family="Helvetica,sans-Serif" font-size="10.00">sstream</text>
</a>
</g>
</g>
<!-- Node2&#45;&gt;Node8 -->
<g id="edge7" class="edge">
<title>Node2&#45;&gt;Node8</title>
<path fill="none" stroke="#63b8ff" d="M122.37,-164.95C138.95,-151.07 173.99,-123.8 208.5,-110 290.28,-77.3 319.17,-91.17 409.43,-74.08"/>
<polygon fill="#63b8ff" stroke="#63b8ff" points="410.11,-77.51 419.25,-72.14 408.76,-70.64 410.11,-77.51"/>
</g>
<!-- Node9 -->
<g id="node9" class="node">
<title>Node9</title>
<g id="a_node9"><a xlink:href="Tensor_8hpp.html" target="_top" xlink:title=" ">
<polygon fill="white" stroke="#666666" points="157,-129 70,-129 70,-110 157,-110 157,-129"/>
<text text-anchor="middle" x="113.5" y="-117" font-family="Helvetica,sans-Serif" font-size="10.00">util/Tensor.hpp</text>
</a>
</g>
</g>
<!-- Node2&#45;&gt;Node9 -->
<g id="edge8" class="edge">
<title>Node2&#45;&gt;Node9</title>
<path fill="none" stroke="#63b8ff" d="M112.67,-164.75C112.8,-157.8 112.98,-147.85 113.15,-139.13"/>
<polygon fill="#63b8ff" stroke="#63b8ff" points="116.65,-139.15 113.34,-129.09 109.65,-139.02 116.65,-139.15"/>
</g>
<!-- Node4 -->
<g id="node4" class="node">
<title>Node4</title>
<g id="a_node4"><a xlink:href="Float_8hpp.html" target="_top" xlink:title=" ">
<polygon fill="white" stroke="#666666" points="401,-74 310,-74 310,-55 401,-55 401,-74"/>
<text text-anchor="middle" x="355.5" y="-62" font-family="Helvetica,sans-Serif" font-size="10.00">math/Float.hpp</text>
</a>
</g>
</g>
<!-- Node3&#45;&gt;Node4 -->
<g id="edge3" class="edge">
<title>Node3&#45;&gt;Node4</title>
<path fill="none" stroke="#63b8ff" d="M285.84,-109.98C298.59,-101.84 318.05,-89.41 333.17,-79.76"/>
<polygon fill="#63b8ff" stroke="#63b8ff" points="335.38,-82.5 341.92,-74.17 331.61,-76.6 335.38,-82.5"/>
</g>
<!-- Node6 -->
<g id="node6" class="node">
<title>Node6</title>
<g id="a_node6"><a xlink:title=" ">
<polygon fill="#e0e0e0" stroke="#999999" points="292,-74 233,-74 233,-55 292,-55 292,-74"/>
<text text-anchor="middle" x="262.5" y="-62" font-family="Helvetica,sans-Serif" font-size="10.00">complex</text>
</a>
</g>
</g>
<!-- Node3&#45;&gt;Node6 -->
<g id="edge5" class="edge">
<title>Node3&#45;&gt;Node6</title>
<path fill="none" stroke="#63b8ff" d="M270.85,-109.75C269.54,-102.8 267.66,-92.85 266.02,-84.13"/>
<polygon fill="#63b8ff" stroke="#63b8ff" points="269.41,-83.27 264.12,-74.09 262.54,-84.56 269.41,-83.27"/>
</g>
<!-- Node5 -->
<g id="node5" class="node">
<title>Node5</title>
<g id="a_node5"><a xlink:title=" ">
<polygon fill="#e0e0e0" stroke="#999999" points="472,-19 415,-19 415,0 472,0 472,-19"/>
<text text-anchor="middle" x="443.5" y="-7" font-family="Helvetica,sans-Serif" font-size="10.00">ostream</text>
</a>
</g>
</g>
<!-- Node4&#45;&gt;Node5 -->
<g id="edge4" class="edge">
<title>Node4&#45;&gt;Node5</title>
<path fill="none" stroke="#63b8ff" d="M369.64,-54.98C383.29,-46.77 404.19,-34.18 420.28,-24.49"/>
<polygon fill="#63b8ff" stroke="#63b8ff" points="422.34,-27.33 429.1,-19.17 418.73,-21.33 422.34,-27.33"/>
</g>
<!-- Node10 -->
<g id="node10" class="node">
<title>Node10</title>
<g id="a_node10"><a xlink:href="CTF_8hpp.html" target="_top" xlink:title=" ">
<polygon fill="white" stroke="#666666" points="150.5,-74 76.5,-74 76.5,-55 150.5,-55 150.5,-74"/>
<text text-anchor="middle" x="113.5" y="-62" font-family="Helvetica,sans-Serif" font-size="10.00">util/CTF.hpp</text>
</a>
</g>
</g>
<!-- Node9&#45;&gt;Node10 -->
<g id="edge9" class="edge">
<title>Node9&#45;&gt;Node10</title>
<path fill="none" stroke="#63b8ff" d="M113.5,-109.75C113.5,-102.8 113.5,-92.85 113.5,-84.13"/>
<polygon fill="#63b8ff" stroke="#63b8ff" points="117,-84.09 113.5,-74.09 110,-84.09 117,-84.09"/>
</g>
<!-- Node11 -->
<g id="node11" class="node">
<title>Node11</title>
<g id="a_node11"><a xlink:title=" ">
<polygon fill="#e0e0e0" stroke="#999999" points="138.5,-19 88.5,-19 88.5,0 138.5,0 138.5,-19"/>
<text text-anchor="middle" x="113.5" y="-7" font-family="Helvetica,sans-Serif" font-size="10.00">ctf.hpp</text>
</a>
</g>
</g>
<!-- Node10&#45;&gt;Node11 -->
<g id="edge10" class="edge">
<title>Node10&#45;&gt;Node11</title>
<path fill="none" stroke="#63b8ff" d="M113.5,-54.75C113.5,-47.8 113.5,-37.85 113.5,-29.13"/>
<polygon fill="#63b8ff" stroke="#63b8ff" points="117,-29.09 113.5,-19.09 110,-29.09 117,-29.09"/>
</g>
<!-- Node12&#45;&gt;Node2 -->
<g id="edge13" class="edge">
<title>Node12&#45;&gt;Node2</title>
<path fill="none" stroke="#63b8ff" d="M351.71,-219.98C301.89,-210.72 222.22,-195.9 168.66,-185.94"/>
<polygon fill="#63b8ff" stroke="#63b8ff" points="169.12,-182.47 158.65,-184.08 167.84,-189.35 169.12,-182.47"/>
</g>
<!-- Node12&#45;&gt;Node3 -->
<g id="edge12" class="edge">
<title>Node12&#45;&gt;Node3</title>
<path fill="none" stroke="#63b8ff" d="M365.15,-219.86C344.73,-213 318.99,-201.59 301.5,-184 289.23,-171.66 281.6,-153.18 277.26,-139.33"/>
<polygon fill="#63b8ff" stroke="#63b8ff" points="280.55,-138.1 274.47,-129.43 273.82,-140 280.55,-138.1"/>
</g>
<!-- Node12&#45;&gt;Node7 -->
<g id="edge33" class="edge">
<title>Node12&#45;&gt;Node7</title>
<path fill="none" stroke="#63b8ff" d="M300.75,-227.95C209.22,-225.43 80.37,-216.05 42.5,-184 29.61,-173.09 25.25,-153.82 23.88,-139.36"/>
<polygon fill="#63b8ff" stroke="#63b8ff" points="27.36,-138.84 23.32,-129.05 20.37,-139.22 27.36,-138.84"/>
</g>
<!-- Node13 -->
<g id="node13" class="node">
<title>Node13</title>
<g id="a_node13"><a xlink:href="Exception_8hpp.html" target="_top" xlink:title=" ">
<polygon fill="white" stroke="#666666" points="573.5,-184 469.5,-184 469.5,-165 573.5,-165 573.5,-184"/>
<text text-anchor="middle" x="521.5" y="-172" font-family="Helvetica,sans-Serif" font-size="10.00">util/Exception.hpp</text>
</a>
</g>
</g>
<!-- Node12&#45;&gt;Node13 -->
<g id="edge14" class="edge">
<title>Node12&#45;&gt;Node13</title>
<path fill="none" stroke="#63b8ff" d="M417.42,-219.98C437.55,-211.38 468.88,-197.99 491.91,-188.15"/>
<polygon fill="#63b8ff" stroke="#63b8ff" points="493.4,-191.32 501.21,-184.17 490.64,-184.88 493.4,-191.32"/>
</g>
<!-- Node16 -->
<g id="node16" class="node">
<title>Node16</title>
<g id="a_node16"><a xlink:href="Lapack_8hpp.html" target="_top" xlink:title=" ">
<polygon fill="white" stroke="#666666" points="451,-184 344,-184 344,-165 451,-165 451,-184"/>
<text text-anchor="middle" x="397.5" y="-172" font-family="Helvetica,sans-Serif" font-size="10.00">extern/Lapack.hpp</text>
</a>
</g>
</g>
<!-- Node12&#45;&gt;Node16 -->
<g id="edge18" class="edge">
<title>Node12&#45;&gt;Node16</title>
<path fill="none" stroke="#63b8ff" d="M397.5,-219.75C397.5,-212.8 397.5,-202.85 397.5,-194.13"/>
<polygon fill="#63b8ff" stroke="#63b8ff" points="401,-194.09 397.5,-184.09 394,-194.09 401,-194.09"/>
</g>
<!-- Node17 -->
<g id="node17" class="node">
<title>Node17</title>
<g id="a_node17"><a xlink:href="Log_8hpp.html" target="_top" xlink:title=" ">
<polygon fill="white" stroke="#666666" points="703.5,-184 629.5,-184 629.5,-165 703.5,-165 703.5,-184"/>
<text text-anchor="middle" x="666.5" y="-172" font-family="Helvetica,sans-Serif" font-size="10.00">util/Log.hpp</text>
</a>
</g>
</g>
<!-- Node12&#45;&gt;Node17 -->
<g id="edge21" class="edge">
<title>Node12&#45;&gt;Node17</title>
<path fill="none" stroke="#63b8ff" d="M440.72,-219.98C489.63,-210.35 569.02,-194.71 619.46,-184.77"/>
<polygon fill="#63b8ff" stroke="#63b8ff" points="620.31,-188.17 629.45,-182.8 618.96,-181.3 620.31,-188.17"/>
</g>
<!-- Node13&#45;&gt;Node8 -->
<g id="edge16" class="edge">
<title>Node13&#45;&gt;Node8</title>
<path fill="none" stroke="#63b8ff" d="M469.24,-165.22C447.93,-158.99 425.32,-148.09 412.5,-129 402.05,-113.45 415.58,-94.53 428.73,-81.4"/>
<polygon fill="#63b8ff" stroke="#63b8ff" points="431.31,-83.78 436.25,-74.41 426.54,-78.66 431.31,-83.78"/>
</g>
<!-- Node14 -->
<g id="node14" class="node">
<title>Node14</title>
<g id="a_node14"><a xlink:title=" ">
<polygon fill="#e0e0e0" stroke="#999999" points="543.5,-129 499.5,-129 499.5,-110 543.5,-110 543.5,-129"/>
<text text-anchor="middle" x="521.5" y="-117" font-family="Helvetica,sans-Serif" font-size="10.00">string</text>
</a>
</g>
</g>
<!-- Node13&#45;&gt;Node14 -->
<g id="edge15" class="edge">
<title>Node13&#45;&gt;Node14</title>
<path fill="none" stroke="#63b8ff" d="M521.5,-164.75C521.5,-157.8 521.5,-147.85 521.5,-139.13"/>
<polygon fill="#63b8ff" stroke="#63b8ff" points="525,-139.09 521.5,-129.09 518,-139.09 525,-139.09"/>
</g>
<!-- Node15 -->
<g id="node15" class="node">
<title>Node15</title>
<g id="a_node15"><a xlink:title=" ">
<polygon fill="#e0e0e0" stroke="#999999" points="481.5,-129 421.5,-129 421.5,-110 481.5,-110 481.5,-129"/>
<text text-anchor="middle" x="451.5" y="-117" font-family="Helvetica,sans-Serif" font-size="10.00">iostream</text>
</a>
</g>
</g>
<!-- Node13&#45;&gt;Node15 -->
<g id="edge17" class="edge">
<title>Node13&#45;&gt;Node15</title>
<path fill="none" stroke="#63b8ff" d="M510.25,-164.98C499.7,-157 483.7,-144.88 471.06,-135.31"/>
<polygon fill="#63b8ff" stroke="#63b8ff" points="473.04,-132.42 462.95,-129.17 468.81,-138 473.04,-132.42"/>
</g>
<!-- Node16&#45;&gt;Node3 -->
<g id="edge20" class="edge">
<title>Node16&#45;&gt;Node3</title>
<path fill="none" stroke="#63b8ff" d="M377.42,-164.98C357.13,-156.38 325.54,-142.99 302.33,-133.15"/>
<polygon fill="#63b8ff" stroke="#63b8ff" points="303.52,-129.85 292.95,-129.17 300.79,-136.3 303.52,-129.85"/>
</g>
<!-- Node16&#45;&gt;Node4 -->
<g id="edge19" class="edge">
<title>Node16&#45;&gt;Node4</title>
<path fill="none" stroke="#63b8ff" d="M393.99,-164.99C390.32,-156.05 384.42,-141.57 379.5,-129 373.53,-113.74 366.96,-96.32 362.21,-83.59"/>
<polygon fill="#63b8ff" stroke="#63b8ff" points="365.47,-82.3 358.7,-74.15 358.91,-84.74 365.47,-82.3"/>
</g>
<!-- Node17&#45;&gt;Node14 -->
<g id="edge29" class="edge">
<title>Node17&#45;&gt;Node14</title>
<path fill="none" stroke="#63b8ff" d="M643.2,-164.98C618.82,-156.07 580.37,-142.02 553.23,-132.1"/>
<polygon fill="#63b8ff" stroke="#63b8ff" points="554.38,-128.79 543.79,-128.65 551.98,-135.37 554.38,-128.79"/>
</g>
<!-- Node17&#45;&gt;Node15 -->
<g id="edge30" class="edge">
<title>Node17&#45;&gt;Node15</title>
<path fill="none" stroke="#63b8ff" d="M631.96,-164.98C593.66,-155.54 531.96,-140.34 491.57,-130.38"/>
<polygon fill="#63b8ff" stroke="#63b8ff" points="492.33,-126.96 481.79,-127.97 490.66,-133.76 492.33,-126.96"/>
</g>
<!-- Node18 -->
<g id="node18" class="node">
<title>Node18</title>
<g id="a_node18"><a xlink:href="Time_8hpp.html" target="_top" xlink:title=" ">
<polygon fill="white" stroke="#666666" points="716,-129 635,-129 635,-110 716,-110 716,-129"/>
<text text-anchor="middle" x="675.5" y="-117" font-family="Helvetica,sans-Serif" font-size="10.00">util/Time.hpp</text>
</a>
</g>
</g>
<!-- Node17&#45;&gt;Node18 -->
<g id="edge22" class="edge">
<title>Node17&#45;&gt;Node18</title>
<path fill="none" stroke="#63b8ff" d="M667.99,-164.75C669.17,-157.8 670.86,-147.85 672.34,-139.13"/>
<polygon fill="#63b8ff" stroke="#63b8ff" points="675.82,-139.53 674.04,-129.09 668.92,-138.36 675.82,-139.53"/>
</g>
<!-- Node23 -->
<g id="node23" class="node">
<title>Node23</title>
<g id="a_node23"><a xlink:title=" ">
<polygon fill="#e0e0e0" stroke="#999999" points="801,-129 734,-129 734,-110 801,-110 801,-129"/>
<text text-anchor="middle" x="767.5" y="-117" font-family="Helvetica,sans-Serif" font-size="10.00">streambuf</text>
</a>
</g>
</g>
<!-- Node17&#45;&gt;Node23 -->
<g id="edge31" class="edge">
<title>Node17&#45;&gt;Node23</title>
<path fill="none" stroke="#63b8ff" d="M682.73,-164.98C698.68,-156.61 723.28,-143.7 741.88,-133.95"/>
<polygon fill="#63b8ff" stroke="#63b8ff" points="743.75,-136.92 750.98,-129.17 740.5,-130.72 743.75,-136.92"/>
</g>
<!-- Node24 -->
<g id="node24" class="node">
<title>Node24</title>
<g id="a_node24"><a xlink:title=" ">
<polygon fill="#e0e0e0" stroke="#999999" points="617,-129 562,-129 562,-110 617,-110 617,-129"/>
<text text-anchor="middle" x="589.5" y="-117" font-family="Helvetica,sans-Serif" font-size="10.00">fstream</text>
</a>
</g>
</g>
<!-- Node17&#45;&gt;Node24 -->
<g id="edge32" class="edge">
<title>Node17&#45;&gt;Node24</title>
<path fill="none" stroke="#63b8ff" d="M654.13,-164.98C642.41,-156.92 624.58,-144.65 610.61,-135.03"/>
<polygon fill="#63b8ff" stroke="#63b8ff" points="612.32,-131.96 602.1,-129.17 608.35,-137.72 612.32,-131.96"/>
</g>
<!-- Node18&#45;&gt;Node5 -->
<g id="edge25" class="edge">
<title>Node18&#45;&gt;Node5</title>
<path fill="none" stroke="#63b8ff" d="M656.91,-109.84C616.17,-90.88 518.85,-45.58 471.01,-23.31"/>
<polygon fill="#63b8ff" stroke="#63b8ff" points="472.4,-20.09 461.86,-19.05 469.45,-26.44 472.4,-20.09"/>
</g>
<!-- Node18&#45;&gt;Node8 -->
<g id="edge27" class="edge">
<title>Node18&#45;&gt;Node8</title>
<path fill="none" stroke="#63b8ff" d="M638.87,-109.98C596.89,-100.23 528.4,-84.31 485.75,-74.39"/>
<polygon fill="#63b8ff" stroke="#63b8ff" points="486.29,-70.92 475.76,-72.07 484.71,-77.74 486.29,-70.92"/>
</g>
<!-- Node19 -->
<g id="node19" class="node">
<title>Node19</title>
<g id="a_node19"><a xlink:title=" ">
<polygon fill="#e0e0e0" stroke="#999999" points="639.5,-74 595.5,-74 595.5,-55 639.5,-55 639.5,-74"/>
<text text-anchor="middle" x="617.5" y="-62" font-family="Helvetica,sans-Serif" font-size="10.00">ctime</text>
</a>
</g>
</g>
<!-- Node18&#45;&gt;Node19 -->
<g id="edge23" class="edge">
<title>Node18&#45;&gt;Node19</title>
<path fill="none" stroke="#63b8ff" d="M666.18,-109.98C657.69,-102.23 644.94,-90.58 634.62,-81.14"/>
<polygon fill="#63b8ff" stroke="#63b8ff" points="636.73,-78.33 626.99,-74.17 632.01,-83.5 636.73,-78.33"/>
</g>
<!-- Node20 -->
<g id="node20" class="node">
<title>Node20</title>
<g id="a_node20"><a xlink:title=" ">
<polygon fill="#e0e0e0" stroke="#999999" points="707.5,-74 657.5,-74 657.5,-55 707.5,-55 707.5,-74"/>
<text text-anchor="middle" x="682.5" y="-62" font-family="Helvetica,sans-Serif" font-size="10.00">cstdint</text>
</a>
</g>
</g>
<!-- Node18&#45;&gt;Node20 -->
<g id="edge24" class="edge">
<title>Node18&#45;&gt;Node20</title>
<path fill="none" stroke="#63b8ff" d="M676.66,-109.75C677.57,-102.8 678.89,-92.85 680.04,-84.13"/>
<polygon fill="#63b8ff" stroke="#63b8ff" points="683.53,-84.46 681.37,-74.09 676.59,-83.54 683.53,-84.46"/>
</g>
<!-- Node18&#45;&gt;Node21 -->
<g id="edge26" class="edge">
<title>Node18&#45;&gt;Node21</title>
<path fill="none" stroke="#63b8ff" d="M705.22,-109.98C737.11,-100.85 787.84,-86.32 822.58,-76.36"/>
<polygon fill="#63b8ff" stroke="#63b8ff" points="823.72,-79.68 832.37,-73.56 821.79,-72.95 823.72,-79.68"/>
</g>
<!-- Node22 -->
<g id="node22" class="node">
<title>Node22</title>
<g id="a_node22"><a xlink:title=" ">
<polygon fill="#e0e0e0" stroke="#999999" points="800,-74 753,-74 753,-55 800,-55 800,-74"/>
<text text-anchor="middle" x="776.5" y="-62" font-family="Helvetica,sans-Serif" font-size="10.00">cmath</text>
</a>
</g>
</g>
<!-- Node18&#45;&gt;Node22 -->
<g id="edge28" class="edge">
<title>Node18&#45;&gt;Node22</title>
<path fill="none" stroke="#63b8ff" d="M691.73,-109.98C707.68,-101.61 732.28,-88.7 750.88,-78.95"/>
<polygon fill="#63b8ff" stroke="#63b8ff" points="752.75,-81.92 759.98,-74.17 749.5,-75.72 752.75,-81.92"/>
</g>
<!-- Node25&#45;&gt;Node3 -->
<g id="edge35" class="edge">
<title>Node25&#45;&gt;Node3</title>
<path fill="none" stroke="#63b8ff" d="M532.96,-221.97C465.6,-214.68 368.14,-201.57 334.5,-184 313.46,-173.01 295.3,-152.26 284.16,-137.47"/>
<polygon fill="#63b8ff" stroke="#63b8ff" points="286.86,-135.23 278.17,-129.17 281.19,-139.33 286.86,-135.23"/>
</g>
<!-- Node25&#45;&gt;Node9 -->
<g id="edge38" class="edge">
<title>Node25&#45;&gt;Node9</title>
<path fill="none" stroke="#63b8ff" d="M532.98,-221.55C472.57,-214.63 382.46,-202.37 305.5,-184 247.66,-170.19 182.32,-146.86 144.71,-132.65"/>
<polygon fill="#63b8ff" stroke="#63b8ff" points="145.91,-129.36 135.32,-129.07 143.42,-135.9 145.91,-129.36"/>
</g>
<!-- Node25&#45;&gt;Node14 -->
<g id="edge37" class="edge">
<title>Node25&#45;&gt;Node14</title>
<path fill="none" stroke="#63b8ff" d="M600.69,-219.94C599.1,-206.98 594.59,-182.1 582.5,-165 573.57,-152.38 559.92,-141.94 547.8,-134.36"/>
<polygon fill="#63b8ff" stroke="#63b8ff" points="549.32,-131.19 538.93,-129.12 545.76,-137.22 549.32,-131.19"/>
</g>
<!-- Node25&#45;&gt;Node17 -->
<g id="edge39" class="edge">
<title>Node25&#45;&gt;Node17</title>
<path fill="none" stroke="#63b8ff" d="M611.94,-219.98C621.65,-212.07 636.32,-200.11 648,-190.58"/>
<polygon fill="#63b8ff" stroke="#63b8ff" points="650.33,-193.2 655.87,-184.17 645.9,-187.78 650.33,-193.2"/>
</g>
<!-- Node25&#45;&gt;Node22 -->
<g id="edge36" class="edge">
<title>Node25&#45;&gt;Node22</title>
<path fill="none" stroke="#63b8ff" d="M656.31,-219.9C706.78,-208.69 778.52,-183.62 810.5,-129 819.81,-113.09 807.13,-94.45 794.69,-81.5"/>
<polygon fill="#63b8ff" stroke="#63b8ff" points="796.8,-78.67 787.18,-74.24 791.94,-83.71 796.8,-78.67"/>
</g>
</g>
</svg>
