<?xml version="1.0" encoding="UTF-8" standalone="no"?>
<!DOCTYPE svg PUBLIC "-//W3C//DTD SVG 1.1//EN"
 "http://www.w3.org/Graphics/SVG/1.1/DTD/svg11.dtd">
<!-- Generated by graphviz version 9.0.0 (0)
 -->
<!-- Title: Emitter.hpp Pages: 1 -->
<svg width="3291pt" height="98pt"
 viewBox="0.00 0.00 3290.62 98.25" xmlns="http://www.w3.org/2000/svg" xmlns:xlink="http://www.w3.org/1999/xlink">
<g id="graph0" class="graph" transform="scale(1 1) rotate(0) translate(4 94.25)">
<title>Emitter.hpp</title>
<!-- Node1 -->
<g id="Node000001" class="node">
<title>Node1</title>
<g id="a_Node000001"><a xlink:title=" ">
<polygon fill="#999999" stroke="#666666" points="1837.25,-90.25 1765,-90.25 1765,-69.5 1837.25,-69.5 1837.25,-90.25"/>
<text text-anchor="middle" x="1801.12" y="-76.75" font-family="Helvetica,sans-Serif" font-size="10.00">Emitter.hpp</text>
</a>
</g>
</g>
<!-- Node2 -->
<g id="Node000002" class="node">
<title>Node2</title>
<g id="a_Node000002"><a xlink:href="Algorithm_8cxx.html" target="_top" xlink:title=" ">
<polygon fill="white" stroke="#666666" points="84.25,-27.12 0,-27.12 0,-6.38 84.25,-6.38 84.25,-27.12"/>
<text text-anchor="middle" x="42.12" y="-13.62" font-family="Helvetica,sans-Serif" font-size="10.00">Algorithm.cxx</text>
</a>
</g>
</g>
<!-- Node1&#45;&gt;Node2 -->
<g id="edge1_Node000001_Node000002" class="edge">
<title>Node1&#45;&gt;Node2</title>
<g id="a_edge1_Node000001_Node000002"><a xlink:title=" ">
<path fill="none" stroke="#63b8ff" d="M1753.24,-78.38C1493.65,-75.61 260.59,-61.05 93.12,-33.5 85.17,-32.19 76.73,-29.95 69.06,-27.57"/>
<polygon fill="#63b8ff" stroke="#63b8ff" points="1752.97,-81.88 1763,-78.49 1753.04,-74.88 1752.97,-81.88"/>
</a>
</g>
</g>
<!-- Node3 -->
<g id="Node000003" class="node">
<title>Node3</title>
<g id="a_Node000003"><a xlink:href="CcsdEquationOfMotionDavidson_8cxx.html" target="_top" xlink:title=" ">
<polygon fill="white" stroke="#666666" points="295.62,-27.12 102.62,-27.12 102.62,-6.38 295.62,-6.38 295.62,-27.12"/>
<text text-anchor="middle" x="199.12" y="-13.62" font-family="Helvetica,sans-Serif" font-size="10.00">CcsdEquationOfMotionDavidson.cxx</text>
</a>
</g>
</g>
<!-- Node1&#45;&gt;Node3 -->
<g id="edge2_Node000001_Node000003" class="edge">
<title>Node1&#45;&gt;Node3</title>
<g id="a_edge2_Node000001_Node000003"><a xlink:title=" ">
<path fill="none" stroke="#63b8ff" d="M1753.33,-78.19C1530.87,-74.89 595.44,-59.67 304.12,-33.5 288.61,-32.11 271.9,-29.92 256.47,-27.61"/>
<polygon fill="#63b8ff" stroke="#63b8ff" points="1753.01,-81.69 1763.06,-78.33 1753.12,-74.69 1753.01,-81.69"/>
</a>
</g>
</g>
<!-- Node4 -->
<g id="Node000004" class="node">
<title>Node4</title>
<g id="a_Node000004"><a xlink:href="ClusterSinglesDoublesAlgorithm_8cxx.html" target="_top" xlink:title=" ">
<polygon fill="white" stroke="#666666" points="507,-27.12 313.25,-27.12 313.25,-6.38 507,-6.38 507,-27.12"/>
<text text-anchor="middle" x="410.12" y="-13.62" font-family="Helvetica,sans-Serif" font-size="10.00">ClusterSinglesDoublesAlgorithm.cxx</text>
</a>
</g>
</g>
<!-- Node1&#45;&gt;Node4 -->
<g id="edge3_Node000001_Node000004" class="edge">
<title>Node1&#45;&gt;Node4</title>
<g id="a_edge3_Node000001_Node000004"><a xlink:title=" ">
<path fill="none" stroke="#63b8ff" d="M1753.25,-79.14C1583.8,-79.68 996.86,-77.98 515.12,-33.5 499.71,-32.08 483.1,-29.89 467.75,-27.6"/>
<polygon fill="#63b8ff" stroke="#63b8ff" points="1753.22,-82.64 1763.2,-79.11 1753.19,-75.64 1753.22,-82.64"/>
</a>
</g>
</g>
<!-- Node5 -->
<g id="Node000005" class="node">
<title>Node5</title>
<g id="a_Node000005"><a xlink:href="ClusterSinglesDoublesTriplesAlgorithm_8cxx.html" target="_top" xlink:title=" ">
<polygon fill="white" stroke="#666666" points="681.62,-33.5 524.62,-33.5 524.62,0 681.62,0 681.62,-33.5"/>
<text text-anchor="start" x="532.62" y="-20" font-family="Helvetica,sans-Serif" font-size="10.00">ClusterSinglesDoublesTriples</text>
<text text-anchor="middle" x="603.12" y="-7.25" font-family="Helvetica,sans-Serif" font-size="10.00">Algorithm.cxx</text>
</a>
</g>
</g>
<!-- Node1&#45;&gt;Node5 -->
<g id="edge4_Node000001_Node000005" class="edge">
<title>Node1&#45;&gt;Node5</title>
<g id="a_edge4_Node000001_Node000005"><a xlink:title=" ">
<path fill="none" stroke="#63b8ff" d="M1753.17,-79.28C1598.59,-80.08 1099.67,-78.71 690.12,-33.5 687.38,-33.2 684.59,-32.86 681.77,-32.49"/>
<polygon fill="#63b8ff" stroke="#63b8ff" points="1753.05,-82.78 1763.03,-79.22 1753.01,-75.78 1753.05,-82.78"/>
</a>
</g>
</g>
<!-- Node6 -->
<g id="Node000006" class="node">
<title>Node6</title>
<g id="a_Node000006"><a xlink:href="ComplexTensorReader_8cxx.html" target="_top" xlink:title=" ">
<polygon fill="white" stroke="#666666" points="844.62,-27.12 699.62,-27.12 699.62,-6.38 844.62,-6.38 844.62,-27.12"/>
<text text-anchor="middle" x="772.12" y="-13.62" font-family="Helvetica,sans-Serif" font-size="10.00">ComplexTensorReader.cxx</text>
</a>
</g>
</g>
<!-- Node1&#45;&gt;Node6 -->
<g id="edge5_Node000001_Node000006" class="edge">
<title>Node1&#45;&gt;Node6</title>
<g id="a_edge5_Node000001_Node000006"><a xlink:title=" ">
<path fill="none" stroke="#63b8ff" d="M1753.4,-78.97C1614.25,-78.75 1197.15,-74.45 854.12,-33.5 842.03,-32.06 829.05,-29.86 817.06,-27.57"/>
<polygon fill="#63b8ff" stroke="#63b8ff" points="1753.33,-82.47 1763.33,-78.98 1753.34,-75.47 1753.33,-82.47"/>
</a>
</g>
</g>
<!-- Node7 -->
<g id="Node000007" class="node">
<title>Node7</title>
<g id="a_Node000007"><a xlink:href="ComplexTensorWriter_8cxx.html" target="_top" xlink:title=" ">
<polygon fill="white" stroke="#666666" points="1003.38,-27.12 862.88,-27.12 862.88,-6.38 1003.38,-6.38 1003.38,-27.12"/>
<text text-anchor="middle" x="933.12" y="-13.62" font-family="Helvetica,sans-Serif" font-size="10.00">ComplexTensorWriter.cxx</text>
</a>
</g>
</g>
<!-- Node1&#45;&gt;Node7 -->
<g id="edge6_Node000001_Node000007" class="edge">
<title>Node1&#45;&gt;Node7</title>
<g id="a_edge6_Node000001_Node000007"><a xlink:title=" ">
<path fill="none" stroke="#63b8ff" d="M1753.56,-78.44C1630.47,-76.83 1291.64,-69.22 1012.12,-33.5 1000.61,-32.03 988.26,-29.86 976.82,-27.59"/>
<polygon fill="#63b8ff" stroke="#63b8ff" points="1753.23,-81.94 1763.27,-78.56 1753.31,-74.94 1753.23,-81.94"/>
</a>
</g>
</g>
<!-- Node8 -->
<g id="Node000008" class="node">
<title>Node8</title>
<g id="a_Node000008"><a xlink:href="CoulombIntegralsFromGaussian_8cxx.html" target="_top" xlink:title=" ">
<polygon fill="white" stroke="#666666" points="1213.25,-27.12 1021,-27.12 1021,-6.38 1213.25,-6.38 1213.25,-27.12"/>
<text text-anchor="middle" x="1117.12" y="-13.62" font-family="Helvetica,sans-Serif" font-size="10.00">CoulombIntegralsFromGaussian.cxx</text>
</a>
</g>
</g>
<!-- Node1&#45;&gt;Node8 -->
<g id="edge7_Node000001_Node000008" class="edge">
<title>Node1&#45;&gt;Node8</title>
<g id="a_edge7_Node000001_Node000008"><a xlink:title=" ">
<path fill="none" stroke="#63b8ff" d="M1753.39,-76.28C1654.22,-70.63 1418.75,-55.92 1222.12,-33.5 1207.75,-31.86 1192.32,-29.75 1177.83,-27.6"/>
<polygon fill="#63b8ff" stroke="#63b8ff" points="1753.1,-79.77 1763.28,-76.84 1753.5,-72.78 1753.1,-79.77"/>
</a>
</g>
</g>
<!-- Node9 -->
<g id="Node000009" class="node">
<title>Node9</title>
<g id="a_Node000009"><a xlink:href="CoulombIntegralsFromRotatedCoulombIntegrals_8cxx.html" target="_top" xlink:title=" ">
<polygon fill="white" stroke="#666666" points="1396.75,-33.5 1231.5,-33.5 1231.5,0 1396.75,0 1396.75,-33.5"/>
<text text-anchor="start" x="1239.5" y="-20" font-family="Helvetica,sans-Serif" font-size="10.00">CoulombIntegralsFromRotated</text>
<text text-anchor="middle" x="1314.12" y="-7.25" font-family="Helvetica,sans-Serif" font-size="10.00">CoulombIntegrals.cxx</text>
</a>
</g>
</g>
<!-- Node1&#45;&gt;Node9 -->
<g id="edge8_Node000001_Node000009" class="edge">
<title>Node1&#45;&gt;Node9</title>
<g id="a_edge8_Node000001_Node000009"><a xlink:title=" ">
<path fill="none" stroke="#63b8ff" d="M1753.25,-74.24C1678.84,-66.83 1530.99,-51.35 1406.12,-33.5 1403.08,-33.06 1399.97,-32.61 1396.84,-32.13"/>
<polygon fill="#63b8ff" stroke="#63b8ff" points="1752.75,-77.7 1763.05,-75.21 1753.44,-70.74 1752.75,-77.7"/>
</a>
</g>
</g>
<!-- Node10 -->
<g id="Node000010" class="node">
<title>Node10</title>
<g id="a_Node000010"><a xlink:href="CoulombIntegralsFromVertex_8cxx.html" target="_top" xlink:title=" ">
<polygon fill="white" stroke="#666666" points="1593.5,-27.12 1414.75,-27.12 1414.75,-6.38 1593.5,-6.38 1593.5,-27.12"/>
<text text-anchor="middle" x="1504.12" y="-13.62" font-family="Helvetica,sans-Serif" font-size="10.00">CoulombIntegralsFromVertex.cxx</text>
</a>
</g>
</g>
<!-- Node1&#45;&gt;Node10 -->
<g id="edge9_Node000001_Node000010" class="edge">
<title>Node1&#45;&gt;Node10</title>
<g id="a_edge9_Node000001_Node000010"><a xlink:title=" ">
<path fill="none" stroke="#63b8ff" d="M1753.46,-69.06C1698.09,-57.67 1607.3,-38.98 1551.89,-27.58"/>
<polygon fill="#63b8ff" stroke="#63b8ff" points="1752.72,-72.49 1763.22,-71.07 1754.14,-65.63 1752.72,-72.49"/>
</a>
</g>
</g>
<!-- Node11 -->
<g id="Node000011" class="node">
<title>Node11</title>
<g id="a_Node000011"><a xlink:href="Emitter_8cxx.html" target="_top" xlink:title=" ">
<polygon fill="white" stroke="#666666" points="1682.88,-27.12 1611.38,-27.12 1611.38,-6.38 1682.88,-6.38 1682.88,-27.12"/>
<text text-anchor="middle" x="1647.12" y="-13.62" font-family="Helvetica,sans-Serif" font-size="10.00">Emitter.cxx</text>
</a>
</g>
</g>
<!-- Node1&#45;&gt;Node11 -->
<g id="edge10_Node000001_Node000011" class="edge">
<title>Node1&#45;&gt;Node11</title>
<g id="a_edge10_Node000001_Node000011"><a xlink:title=" ">
<path fill="none" stroke="#63b8ff" d="M1765.96,-64.92C1737.2,-53.5 1697.27,-37.65 1671.81,-27.55"/>
<polygon fill="#63b8ff" stroke="#63b8ff" points="1764.39,-68.06 1774.98,-68.5 1766.97,-61.55 1764.39,-68.06"/>
</a>
</g>
</g>
<!-- Node12 -->
<g id="Node000012" class="node">
<title>Node12</title>
<g id="a_Node000012"><a xlink:href="FockMatrixFromCoulombIntegrals_8cxx.html" target="_top" xlink:title=" ">
<polygon fill="white" stroke="#666666" points="1901.75,-27.12 1700.5,-27.12 1700.5,-6.38 1901.75,-6.38 1901.75,-27.12"/>
<text text-anchor="middle" x="1801.12" y="-13.62" font-family="Helvetica,sans-Serif" font-size="10.00">FockMatrixFromCoulombIntegrals.cxx</text>
</a>
</g>
</g>
<!-- Node1&#45;&gt;Node12 -->
<g id="edge11_Node000001_Node000012" class="edge">
<title>Node1&#45;&gt;Node12</title>
<g id="a_edge11_Node000001_Node000012"><a xlink:title=" ">
<path fill="none" stroke="#63b8ff" d="M1801.12,-57.61C1801.12,-47.3 1801.12,-35.43 1801.12,-27.34"/>
<polygon fill="#63b8ff" stroke="#63b8ff" points="1797.63,-57.54 1801.13,-67.54 1804.63,-57.54 1797.63,-57.54"/>
</a>
</g>
</g>
<!-- Node13 -->
<g id="Node000013" class="node">
<title>Node13</title>
<g id="a_Node000013"><a xlink:href="HartreeFockFromGaussian_8cxx.html" target="_top" xlink:title=" ">
<polygon fill="white" stroke="#666666" points="2084.75,-27.12 1919.5,-27.12 1919.5,-6.38 2084.75,-6.38 2084.75,-27.12"/>
<text text-anchor="middle" x="2002.12" y="-13.62" font-family="Helvetica,sans-Serif" font-size="10.00">HartreeFockFromGaussian.cxx</text>
</a>
</g>
</g>
<!-- Node1&#45;&gt;Node13 -->
<g id="edge12_Node000001_Node000013" class="edge">
<title>Node1&#45;&gt;Node13</title>
<g id="a_edge12_Node000001_Node000013"><a xlink:title=" ">
<path fill="none" stroke="#63b8ff" d="M1844.08,-65.81C1881.79,-54.35 1935.8,-37.92 1969.91,-27.55"/>
<polygon fill="#63b8ff" stroke="#63b8ff" points="1843.42,-62.36 1834.87,-68.61 1845.45,-69.05 1843.42,-62.36"/>
</a>
</g>
</g>
<!-- Node14 -->
<g id="Node000014" class="node">
<title>Node14</title>
<g id="a_Node000014"><a xlink:href="LinearMixer_8cxx.html" target="_top" xlink:title=" ">
<polygon fill="white" stroke="#666666" points="2195.38,-27.12 2102.88,-27.12 2102.88,-6.38 2195.38,-6.38 2195.38,-27.12"/>
<text text-anchor="middle" x="2149.12" y="-13.62" font-family="Helvetica,sans-Serif" font-size="10.00">LinearMixer.cxx</text>
</a>
</g>
</g>
<!-- Node1&#45;&gt;Node14 -->
<g id="edge13_Node000001_Node000014" class="edge">
<title>Node1&#45;&gt;Node14</title>
<g id="a_edge13_Node000001_Node000014"><a xlink:title=" ">
<path fill="none" stroke="#63b8ff" d="M1848.89,-73.34C1907.17,-66.17 2008.52,-52.31 2094.12,-33.5 2101.69,-31.84 2109.75,-29.73 2117.31,-27.59"/>
<polygon fill="#63b8ff" stroke="#63b8ff" points="1848.49,-69.87 1838.98,-74.55 1849.33,-76.82 1848.49,-69.87"/>
</a>
</g>
</g>
<!-- Node15 -->
<g id="Node000015" class="node">
<title>Node15</title>
<g id="a_Node000015"><a xlink:href="MeanCorrelationHoleDepth_8cxx.html" target="_top" xlink:title=" ">
<polygon fill="white" stroke="#666666" points="2382.62,-27.12 2213.62,-27.12 2213.62,-6.38 2382.62,-6.38 2382.62,-27.12"/>
<text text-anchor="middle" x="2298.12" y="-13.62" font-family="Helvetica,sans-Serif" font-size="10.00">MeanCorrelationHoleDepth.cxx</text>
</a>
</g>
</g>
<!-- Node1&#45;&gt;Node15 -->
<g id="edge14_Node000001_Node000015" class="edge">
<title>Node1&#45;&gt;Node15</title>
<g id="a_edge14_Node000001_Node000015"><a xlink:title=" ">
<path fill="none" stroke="#63b8ff" d="M1848.61,-74.37C1924.07,-67.01 2075.96,-51.44 2204.12,-33.5 2216.58,-31.76 2229.92,-29.66 2242.53,-27.57"/>
<polygon fill="#63b8ff" stroke="#63b8ff" points="1848.73,-70.84 1839.11,-75.29 1849.4,-77.8 1848.73,-70.84"/>
</a>
</g>
</g>
<!-- Node16 -->
<g id="Node000016" class="node">
<title>Node16</title>
<g id="a_Node000016"><a xlink:href="MoReader_8cxx.html" target="_top" xlink:title=" ">
<polygon fill="white" stroke="#666666" points="2485.62,-27.12 2400.62,-27.12 2400.62,-6.38 2485.62,-6.38 2485.62,-27.12"/>
<text text-anchor="middle" x="2443.12" y="-13.62" font-family="Helvetica,sans-Serif" font-size="10.00">MoReader.cxx</text>
</a>
</g>
</g>
<!-- Node1&#45;&gt;Node16 -->
<g id="edge15_Node000001_Node000016" class="edge">
<title>Node1&#45;&gt;Node16</title>
<g id="a_edge15_Node000001_Node000016"><a xlink:title=" ">
<path fill="none" stroke="#63b8ff" d="M1848.8,-78.8C1949.88,-77.85 2192.78,-71.44 2392.12,-33.5 2399.77,-32.04 2407.89,-29.85 2415.35,-27.55"/>
<polygon fill="#63b8ff" stroke="#63b8ff" points="1848.96,-75.3 1838.99,-78.87 1849.01,-82.3 1848.96,-75.3"/>
</a>
</g>
</g>
<!-- Node17 -->
<g id="Node000017" class="node">
<title>Node17</title>
<g id="a_Node000017"><a xlink:href="NuclearRepulsionEnergy_8cxx.html" target="_top" xlink:title=" ">
<polygon fill="white" stroke="#666666" points="2658.12,-27.12 2504.12,-27.12 2504.12,-6.38 2658.12,-6.38 2658.12,-27.12"/>
<text text-anchor="middle" x="2581.12" y="-13.62" font-family="Helvetica,sans-Serif" font-size="10.00">NuclearRepulsionEnergy.cxx</text>
</a>
</g>
</g>
<!-- Node1&#45;&gt;Node17 -->
<g id="edge16_Node000001_Node000017" class="edge">
<title>Node1&#45;&gt;Node17</title>
<g id="a_edge16_Node000001_Node000017"><a xlink:title=" ">
<path fill="none" stroke="#63b8ff" d="M1848.67,-77.66C1961.33,-74.38 2253.24,-63.45 2495.12,-33.5 2507.48,-31.97 2520.74,-29.8 2533.06,-27.57"/>
<polygon fill="#63b8ff" stroke="#63b8ff" points="1848.8,-74.16 1838.9,-77.94 1849,-81.16 1848.8,-74.16"/>
</a>
</g>
</g>
<!-- Node18 -->
<g id="Node000018" class="node">
<title>Node18</title>
<g id="a_Node000018"><a xlink:href="OneBodyFromGaussian_8cxx.html" target="_top" xlink:title=" ">
<polygon fill="white" stroke="#666666" points="2826.25,-27.12 2676,-27.12 2676,-6.38 2826.25,-6.38 2826.25,-27.12"/>
<text text-anchor="middle" x="2751.12" y="-13.62" font-family="Helvetica,sans-Serif" font-size="10.00">OneBodyFromGaussian.cxx</text>
</a>
</g>
</g>
<!-- Node1&#45;&gt;Node18 -->
<g id="edge17_Node000001_Node000018" class="edge">
<title>Node1&#45;&gt;Node18</title>
<g id="a_edge17_Node000001_Node000018"><a xlink:title=" ">
<path fill="none" stroke="#63b8ff" d="M1848.76,-78.6C1979.8,-77.36 2356.59,-70.58 2667.12,-33.5 2679.35,-32.04 2692.48,-29.87 2704.64,-27.61"/>
<polygon fill="#63b8ff" stroke="#63b8ff" points="1849.06,-75.1 1839.09,-78.68 1849.12,-82.1 1849.06,-75.1"/>
</a>
</g>
</g>
<!-- Node19 -->
<g id="Node000019" class="node">
<title>Node19</title>
<g id="a_Node000019"><a xlink:href="OneBodyRotation_8cxx.html" target="_top" xlink:title=" ">
<polygon fill="white" stroke="#666666" points="2966,-27.12 2844.25,-27.12 2844.25,-6.38 2966,-6.38 2966,-27.12"/>
<text text-anchor="middle" x="2905.12" y="-13.62" font-family="Helvetica,sans-Serif" font-size="10.00">OneBodyRotation.cxx</text>
</a>
</g>
</g>
<!-- Node1&#45;&gt;Node19 -->
<g id="edge18_Node000001_Node000019" class="edge">
<title>Node1&#45;&gt;Node19</title>
<g id="a_edge18_Node000001_Node000019"><a xlink:title=" ">
<path fill="none" stroke="#63b8ff" d="M1849.01,-77.9C2025.66,-74.14 2640.67,-59.43 2835.12,-33.5 2845.62,-32.1 2856.86,-29.89 2867.2,-27.57"/>
<polygon fill="#63b8ff" stroke="#63b8ff" points="1848.97,-74.4 1839.05,-78.11 1849.12,-81.4 1848.97,-74.4"/>
</a>
</g>
</g>
<!-- Node20 -->
<g id="Node000020" class="node">
<title>Node20</title>
<g id="a_Node000020"><a xlink:href="Sisi4s_8cxx.html" target="_top" xlink:title=" ">
<polygon fill="white" stroke="#666666" points="3048.5,-27.12 2983.75,-27.12 2983.75,-6.38 3048.5,-6.38 3048.5,-27.12"/>
<text text-anchor="middle" x="3016.12" y="-13.62" font-family="Helvetica,sans-Serif" font-size="10.00">Sisi4s.cxx</text>
</a>
</g>
</g>
<!-- Node1&#45;&gt;Node20 -->
<g id="edge19_Node000001_Node000020" class="edge">
<title>Node1&#45;&gt;Node20</title>
<g id="a_edge19_Node000001_Node000020"><a xlink:title=" ">
<path fill="none" stroke="#63b8ff" d="M1848.9,-79.11C2040.63,-79.72 2754.48,-78.85 2975.12,-33.5 2981.55,-32.18 2988.28,-29.97 2994.4,-27.62"/>
<polygon fill="#63b8ff" stroke="#63b8ff" points="1849.08,-75.61 1839.07,-79.07 1849.06,-82.61 1849.08,-75.61"/>
</a>
</g>
</g>
<!-- Node21 -->
<g id="Node000021" class="node">
<title>Node21</title>
<g id="a_Node000021"><a xlink:href="TensorReader_8cxx.html" target="_top" xlink:title=" ">
<polygon fill="white" stroke="#666666" points="3167.88,-27.12 3066.38,-27.12 3066.38,-6.38 3167.88,-6.38 3167.88,-27.12"/>
<text text-anchor="middle" x="3117.12" y="-13.62" font-family="Helvetica,sans-Serif" font-size="10.00">TensorReader.cxx</text>
</a>
</g>
</g>
<!-- Node1&#45;&gt;Node21 -->
<g id="edge20_Node000001_Node000021" class="edge">
<title>Node1&#45;&gt;Node21</title>
<g id="a_edge20_Node000001_Node000021"><a xlink:title=" ">
<path fill="none" stroke="#63b8ff" d="M1848.82,-78.56C2048.42,-77.01 2817.43,-68.85 3057.12,-33.5 3066.29,-32.15 3076.07,-29.93 3085.01,-27.57"/>
<polygon fill="#63b8ff" stroke="#63b8ff" points="1849.06,-75.06 1839.09,-78.63 1849.12,-82.06 1849.06,-75.06"/>
</a>
</g>
</g>
<!-- Node22 -->
<g id="Node000022" class="node">
<title>Node22</title>
<g id="a_Node000022"><a xlink:href="TensorWriter_8cxx.html" target="_top" xlink:title=" ">
<polygon fill="white" stroke="#666666" points="3282.62,-27.12 3185.62,-27.12 3185.62,-6.38 3282.62,-6.38 3282.62,-27.12"/>
<text text-anchor="middle" x="3234.12" y="-13.62" font-family="Helvetica,sans-Serif" font-size="10.00">TensorWriter.cxx</text>
</a>
</g>
</g>
<!-- Node1&#45;&gt;Node22 -->
<g id="edge21_Node000001_Node000022" class="edge">
<title>Node1&#45;&gt;Node22</title>
<g id="a_edge21_Node000001_Node000022"><a xlink:title=" ">
<path fill="none" stroke="#63b8ff" d="M1848.84,-78.81C2060.16,-78.31 2912.9,-73.78 3177.12,-33.5 3185.85,-32.17 3195.15,-29.96 3203.65,-27.6"/>
<polygon fill="#63b8ff" stroke="#63b8ff" points="1849.06,-75.31 1839.07,-78.84 1849.07,-82.31 1849.06,-75.31"/>
</a>
</g>
</g>
</g>
</svg>
