<?xml version="1.0" encoding="UTF-8" standalone="no"?>
<!DOCTYPE svg PUBLIC "-//W3C//DTD SVG 1.1//EN"
 "http://www.w3.org/Graphics/SVG/1.1/DTD/svg11.dtd">
<!-- Generated by graphviz version 5.0.1 (0)
 -->
<!-- Title: FcidumpReader.cxx Pages: 1 -->
<svg width="2157pt" height="364pt"
 viewBox="0.00 0.00 2156.50 364.00" xmlns="http://www.w3.org/2000/svg" xmlns:xlink="http://www.w3.org/1999/xlink">
<g id="graph0" class="graph" transform="scale(1 1) rotate(0) translate(4 360)">
<title>FcidumpReader.cxx</title>
<!-- Node1 -->
<g id="node1" class="node">
<title>Node1</title>
<g id="a_node1"><a xlink:title=" ">
<polygon fill="#bfbfbf" stroke="black" points="781,-336.5 781,-355.5 894,-355.5 894,-336.5 781,-336.5"/>
<text text-anchor="middle" x="837.5" y="-343.5" font-family="Helvetica,sans-Serif" font-size="10.00">FcidumpReader.cxx</text>
</a>
</g>
</g>
<!-- Node2 -->
<g id="node2" class="node">
<title>Node2</title>
<g id="a_node2"><a xlink:href="FcidumpReader_8hpp.html" target="_top" xlink:title=" ">
<polygon fill="none" stroke="black" points="322,-280.5 322,-299.5 491,-299.5 491,-280.5 322,-280.5"/>
<text text-anchor="middle" x="406.5" y="-287.5" font-family="Helvetica,sans-Serif" font-size="10.00">algorithms/FcidumpReader.hpp</text>
</a>
</g>
</g>
<!-- Node1&#45;&gt;Node2 -->
<g id="edge1" class="edge">
<title>Node1&#45;&gt;Node2</title>
<path fill="none" stroke="midnightblue" d="M780.71,-337.88C704.82,-328.38 570,-311.49 484.59,-300.78"/>
<polygon fill="midnightblue" stroke="midnightblue" points="484.78,-297.28 474.43,-299.51 483.91,-304.23 484.78,-297.28"/>
</g>
<!-- Node5 -->
<g id="node5" class="node">
<title>Node5</title>
<g id="a_node5"><a xlink:href="Log_8hpp.html" target="_top" xlink:title=" ">
<polygon fill="none" stroke="black" points="629.5,-112.5 629.5,-131.5 703.5,-131.5 703.5,-112.5 629.5,-112.5"/>
<text text-anchor="middle" x="666.5" y="-119.5" font-family="Helvetica,sans-Serif" font-size="10.00">util/Log.hpp</text>
</a>
</g>
</g>
<!-- Node1&#45;&gt;Node5 -->
<g id="edge36" class="edge">
<title>Node1&#45;&gt;Node5</title>
<path fill="none" stroke="midnightblue" d="M830.22,-336.49C815.56,-319.29 781.58,-279.01 754.5,-244 726.3,-207.54 694.91,-163.49 678.31,-139.89"/>
<polygon fill="midnightblue" stroke="midnightblue" points="681.13,-137.81 672.52,-131.64 675.4,-141.83 681.13,-137.81"/>
</g>
<!-- Node16 -->
<g id="node16" class="node">
<title>Node16</title>
<g id="a_node16"><a xlink:title=" ">
<polygon fill="none" stroke="#bfbfbf" points="707,-56.5 707,-75.5 762,-75.5 762,-56.5 707,-56.5"/>
<text text-anchor="middle" x="734.5" y="-63.5" font-family="Helvetica,sans-Serif" font-size="10.00">fstream</text>
</a>
</g>
</g>
<!-- Node1&#45;&gt;Node16 -->
<g id="edge71" class="edge">
<title>Node1&#45;&gt;Node16</title>
<path fill="none" stroke="midnightblue" d="M843.9,-336.39C856.54,-318.5 883.5,-275.57 883.5,-235 883.5,-235 883.5,-235 883.5,-177 883.5,-121.55 815.88,-90.89 771.75,-76.78"/>
<polygon fill="midnightblue" stroke="midnightblue" points="772.76,-73.43 762.18,-73.86 770.72,-80.13 772.76,-73.43"/>
</g>
<!-- Node22 -->
<g id="node22" class="node">
<title>Node22</title>
<g id="a_node22"><a xlink:href="Tensor_8hpp.html" target="_top" xlink:title=" ">
<polygon fill="none" stroke="black" points="46,-112.5 46,-131.5 133,-131.5 133,-112.5 46,-112.5"/>
<text text-anchor="middle" x="89.5" y="-119.5" font-family="Helvetica,sans-Serif" font-size="10.00">util/Tensor.hpp</text>
</a>
</g>
</g>
<!-- Node1&#45;&gt;Node22 -->
<g id="edge35" class="edge">
<title>Node1&#45;&gt;Node22</title>
<path fill="none" stroke="midnightblue" d="M780.94,-344.25C663.34,-342.03 396.45,-333.36 312.5,-300 220.64,-263.5 136.22,-176.03 103.67,-139.48"/>
<polygon fill="midnightblue" stroke="midnightblue" points="106.09,-136.93 96.86,-131.73 100.83,-141.55 106.09,-136.93"/>
</g>
<!-- Node25 -->
<g id="node25" class="node">
<title>Node25</title>
<g id="a_node25"><a xlink:href="Exception_8hpp.html" target="_top" xlink:title=" ">
<polygon fill="none" stroke="black" points="469.5,-112.5 469.5,-131.5 573.5,-131.5 573.5,-112.5 469.5,-112.5"/>
<text text-anchor="middle" x="521.5" y="-119.5" font-family="Helvetica,sans-Serif" font-size="10.00">util/Exception.hpp</text>
</a>
</g>
</g>
<!-- Node1&#45;&gt;Node25 -->
<g id="edge67" class="edge">
<title>Node1&#45;&gt;Node25</title>
<path fill="none" stroke="midnightblue" d="M825.11,-336.3C777.03,-302.52 602.45,-179.87 542.15,-137.51"/>
<polygon fill="midnightblue" stroke="midnightblue" points="544,-134.53 533.8,-131.64 539.97,-140.25 544,-134.53"/>
</g>
<!-- Node26 -->
<g id="node26" class="node">
<title>Node26</title>
<g id="a_node26"><a xlink:href="Sisi4s_8hpp.html" target="_top" xlink:title=" ">
<polygon fill="none" stroke="black" points="763.5,-224.5 763.5,-243.5 829.5,-243.5 829.5,-224.5 763.5,-224.5"/>
<text text-anchor="middle" x="796.5" y="-231.5" font-family="Helvetica,sans-Serif" font-size="10.00">Sisi4s.hpp</text>
</a>
</g>
</g>
<!-- Node1&#45;&gt;Node26 -->
<g id="edge37" class="edge">
<title>Node1&#45;&gt;Node26</title>
<path fill="none" stroke="midnightblue" d="M834.28,-336.37C827.64,-318.54 812.26,-277.3 803.31,-253.27"/>
<polygon fill="midnightblue" stroke="midnightblue" points="806.47,-251.74 799.7,-243.59 799.92,-254.18 806.47,-251.74"/>
</g>
<!-- Node31 -->
<g id="node31" class="node">
<title>Node31</title>
<g id="a_node31"><a xlink:title=" ">
<polygon fill="none" stroke="#bfbfbf" points="2010.5,-56.5 2010.5,-75.5 2066.5,-75.5 2066.5,-56.5 2010.5,-56.5"/>
<text text-anchor="middle" x="2038.5" y="-63.5" font-family="Helvetica,sans-Serif" font-size="10.00">numeric</text>
</a>
</g>
</g>
<!-- Node1&#45;&gt;Node31 -->
<g id="edge74" class="edge">
<title>Node1&#45;&gt;Node31</title>
<path fill="none" stroke="midnightblue" d="M894.34,-344.48C1026.14,-341.73 1341.5,-325.68 1341.5,-235 1341.5,-235 1341.5,-235 1341.5,-177 1341.5,-146.2 1340.74,-130.31 1365.5,-112 1420.35,-71.43 1895.29,-85.29 2000.13,-75.61"/>
<polygon fill="midnightblue" stroke="midnightblue" points="2000.8,-79.05 2010.32,-74.41 1999.98,-72.1 2000.8,-79.05"/>
</g>
<!-- Node35 -->
<g id="node35" class="node">
<title>Node35</title>
<g id="a_node35"><a xlink:title=" ">
<polygon fill="none" stroke="#bfbfbf" points="2084.5,-56.5 2084.5,-75.5 2148.5,-75.5 2148.5,-56.5 2084.5,-56.5"/>
<text text-anchor="middle" x="2116.5" y="-63.5" font-family="Helvetica,sans-Serif" font-size="10.00">algorithm</text>
</a>
</g>
</g>
<!-- Node1&#45;&gt;Node35 -->
<g id="edge73" class="edge">
<title>Node1&#45;&gt;Node35</title>
<path fill="none" stroke="midnightblue" d="M894.22,-345.36C1033.21,-344.71 1379.5,-333.24 1379.5,-235 1379.5,-235 1379.5,-235 1379.5,-177 1379.5,-23.77 1900.77,-100.83 2074.36,-75.91"/>
<polygon fill="midnightblue" stroke="midnightblue" points="2075,-79.35 2084.32,-74.29 2073.88,-72.44 2075,-79.35"/>
</g>
<!-- Node44 -->
<g id="node44" class="node">
<title>Node44</title>
<g id="a_node44"><a xlink:href="Integrals_8hpp.html" target="_top" xlink:title=" ">
<polygon fill="none" stroke="black" points="912,-280.5 912,-299.5 1011,-299.5 1011,-280.5 912,-280.5"/>
<text text-anchor="middle" x="961.5" y="-287.5" font-family="Helvetica,sans-Serif" font-size="10.00">util/Integrals.hpp</text>
</a>
</g>
</g>
<!-- Node1&#45;&gt;Node44 -->
<g id="edge68" class="edge">
<title>Node1&#45;&gt;Node44</title>
<path fill="none" stroke="midnightblue" d="M857.15,-336.44C877.46,-327.6 909.4,-313.69 932.6,-303.59"/>
<polygon fill="midnightblue" stroke="midnightblue" points="934.17,-306.72 941.94,-299.52 931.38,-300.3 934.17,-306.72"/>
</g>
<!-- Node46 -->
<g id="node46" class="node">
<title>Node46</title>
<g id="a_node46"><a xlink:title=" ">
<polygon fill="none" stroke="#bfbfbf" points="1407.5,-280.5 1407.5,-299.5 1451.5,-299.5 1451.5,-280.5 1407.5,-280.5"/>
<text text-anchor="middle" x="1429.5" y="-287.5" font-family="Helvetica,sans-Serif" font-size="10.00">regex</text>
</a>
</g>
</g>
<!-- Node1&#45;&gt;Node46 -->
<g id="edge72" class="edge">
<title>Node1&#45;&gt;Node46</title>
<path fill="none" stroke="midnightblue" d="M894.3,-343.48C995.33,-340.09 1212.65,-329.72 1393.5,-300 1394.75,-299.79 1396.02,-299.57 1397.31,-299.32"/>
<polygon fill="midnightblue" stroke="midnightblue" points="1398.12,-302.73 1407.15,-297.19 1396.64,-295.89 1398.12,-302.73"/>
</g>
<!-- Node3 -->
<g id="node3" class="node">
<title>Node3</title>
<g id="a_node3"><a xlink:href="Algorithm_8hpp.html" target="_top" xlink:title=" ">
<polygon fill="none" stroke="black" points="335,-224.5 335,-243.5 476,-243.5 476,-224.5 335,-224.5"/>
<text text-anchor="middle" x="405.5" y="-231.5" font-family="Helvetica,sans-Serif" font-size="10.00">algorithms/Algorithm.hpp</text>
</a>
</g>
</g>
<!-- Node2&#45;&gt;Node3 -->
<g id="edge2" class="edge">
<title>Node2&#45;&gt;Node3</title>
<path fill="none" stroke="midnightblue" d="M406.33,-280.08C406.2,-273.01 406.02,-262.86 405.85,-253.99"/>
<polygon fill="midnightblue" stroke="midnightblue" points="409.35,-253.68 405.66,-243.75 402.35,-253.81 409.35,-253.68"/>
</g>
<!-- Node4 -->
<g id="node4" class="node">
<title>Node4</title>
<g id="a_node4"><a xlink:href="Data_8hpp.html" target="_top" xlink:title=" ">
<polygon fill="none" stroke="black" points="432,-168.5 432,-187.5 493,-187.5 493,-168.5 432,-168.5"/>
<text text-anchor="middle" x="462.5" y="-175.5" font-family="Helvetica,sans-Serif" font-size="10.00">Data.hpp</text>
</a>
</g>
</g>
<!-- Node3&#45;&gt;Node4 -->
<g id="edge3" class="edge">
<title>Node3&#45;&gt;Node4</title>
<path fill="none" stroke="midnightblue" d="M414.66,-224.32C423,-216.42 435.53,-204.55 445.68,-194.94"/>
<polygon fill="midnightblue" stroke="midnightblue" points="448.32,-197.25 453.18,-187.83 443.51,-192.17 448.32,-197.25"/>
</g>
<!-- Node11 -->
<g id="node11" class="node">
<title>Node11</title>
<g id="a_node11"><a xlink:title=" ">
<polygon fill="none" stroke="#bfbfbf" points="480.5,-0.5 480.5,-19.5 536.5,-19.5 536.5,-0.5 480.5,-0.5"/>
<text text-anchor="middle" x="508.5" y="-7.5" font-family="Helvetica,sans-Serif" font-size="10.00">sstream</text>
</a>
</g>
</g>
<!-- Node3&#45;&gt;Node11 -->
<g id="edge33" class="edge">
<title>Node3&#45;&gt;Node11</title>
<path fill="none" stroke="midnightblue" d="M398.97,-224.28C379.17,-196.73 323.6,-110.16 363.5,-56 387.8,-23.02 436.04,-13.5 470.19,-11.11"/>
<polygon fill="midnightblue" stroke="midnightblue" points="470.5,-14.6 480.3,-10.58 470.13,-7.61 470.5,-14.6"/>
</g>
<!-- Node13 -->
<g id="node13" class="node">
<title>Node13</title>
<g id="a_node13"><a xlink:title=" ">
<polygon fill="none" stroke="#bfbfbf" points="381.5,-56.5 381.5,-75.5 425.5,-75.5 425.5,-56.5 381.5,-56.5"/>
<text text-anchor="middle" x="403.5" y="-63.5" font-family="Helvetica,sans-Serif" font-size="10.00">string</text>
</a>
</g>
</g>
<!-- Node3&#45;&gt;Node13 -->
<g id="edge31" class="edge">
<title>Node3&#45;&gt;Node13</title>
<path fill="none" stroke="midnightblue" d="M405.39,-224.08C405.08,-197.95 404.15,-121.21 403.72,-85.58"/>
<polygon fill="midnightblue" stroke="midnightblue" points="407.22,-85.53 403.6,-75.57 400.22,-85.61 407.22,-85.53"/>
</g>
<!-- Node21 -->
<g id="node21" class="node">
<title>Node21</title>
<g id="a_node21"><a xlink:title=" ">
<polygon fill="none" stroke="#bfbfbf" points="837,-56.5 837,-75.5 884,-75.5 884,-56.5 837,-56.5"/>
<text text-anchor="middle" x="860.5" y="-63.5" font-family="Helvetica,sans-Serif" font-size="10.00">vector</text>
</a>
</g>
</g>
<!-- Node3&#45;&gt;Node21 -->
<g id="edge32" class="edge">
<title>Node3&#45;&gt;Node21</title>
<path fill="none" stroke="midnightblue" d="M464.49,-224.45C540.12,-211.85 673.86,-183.96 777.5,-132 803.14,-119.15 828.48,-97.68 844.29,-82.95"/>
<polygon fill="midnightblue" stroke="midnightblue" points="846.82,-85.38 851.64,-75.95 841.99,-80.32 846.82,-85.38"/>
</g>
<!-- Node3&#45;&gt;Node22 -->
<g id="edge34" class="edge">
<title>Node3&#45;&gt;Node22</title>
<path fill="none" stroke="midnightblue" d="M380.57,-224.4C354.4,-215.35 312.04,-200.71 275.5,-188 222.49,-169.56 161.03,-148.06 123.72,-134.99"/>
<polygon fill="midnightblue" stroke="midnightblue" points="124.46,-131.54 113.87,-131.54 122.15,-138.15 124.46,-131.54"/>
</g>
<!-- Node4&#45;&gt;Node5 -->
<g id="edge4" class="edge">
<title>Node4&#45;&gt;Node5</title>
<path fill="none" stroke="midnightblue" d="M493.04,-168.92C527.91,-159.69 585.16,-144.53 624.28,-134.17"/>
<polygon fill="midnightblue" stroke="midnightblue" points="625.29,-137.53 634.06,-131.59 623.5,-130.76 625.29,-137.53"/>
</g>
<!-- Node4&#45;&gt;Node13 -->
<g id="edge21" class="edge">
<title>Node4&#45;&gt;Node13</title>
<path fill="none" stroke="midnightblue" d="M457.87,-168.37C448.22,-150.38 425.79,-108.55 412.95,-84.63"/>
<polygon fill="midnightblue" stroke="midnightblue" points="415.92,-82.75 408.11,-75.59 409.75,-86.06 415.92,-82.75"/>
</g>
<!-- Node17 -->
<g id="node17" class="node">
<title>Node17</title>
<g id="a_node17"><a xlink:href="Float_8hpp.html" target="_top" xlink:title=" ">
<polygon fill="none" stroke="black" points="170,-56.5 170,-75.5 261,-75.5 261,-56.5 170,-56.5"/>
<text text-anchor="middle" x="215.5" y="-63.5" font-family="Helvetica,sans-Serif" font-size="10.00">math/Float.hpp</text>
</a>
</g>
</g>
<!-- Node4&#45;&gt;Node17 -->
<g id="edge16" class="edge">
<title>Node4&#45;&gt;Node17</title>
<path fill="none" stroke="midnightblue" d="M443.12,-168.37C399.83,-149.09 295.11,-102.45 244.22,-79.79"/>
<polygon fill="midnightblue" stroke="midnightblue" points="245.35,-76.46 234.79,-75.59 242.5,-82.86 245.35,-76.46"/>
</g>
<!-- Node18 -->
<g id="node18" class="node">
<title>Node18</title>
<g id="a_node18"><a xlink:href="Complex_8hpp.html" target="_top" xlink:title=" ">
<polygon fill="none" stroke="black" points="151.5,-112.5 151.5,-131.5 261.5,-131.5 261.5,-112.5 151.5,-112.5"/>
<text text-anchor="middle" x="206.5" y="-119.5" font-family="Helvetica,sans-Serif" font-size="10.00">math/Complex.hpp</text>
</a>
</g>
</g>
<!-- Node4&#45;&gt;Node18 -->
<g id="edge18" class="edge">
<title>Node4&#45;&gt;Node18</title>
<path fill="none" stroke="midnightblue" d="M431.87,-170.54C388.58,-161.41 308.95,-144.61 256.87,-133.63"/>
<polygon fill="midnightblue" stroke="midnightblue" points="257.35,-130.15 246.84,-131.51 255.9,-137 257.35,-130.15"/>
</g>
<!-- Node20 -->
<g id="node20" class="node">
<title>Node20</title>
<g id="a_node20"><a xlink:title=" ">
<polygon fill="none" stroke="#bfbfbf" points="780.5,-56.5 780.5,-75.5 818.5,-75.5 818.5,-56.5 780.5,-56.5"/>
<text text-anchor="middle" x="799.5" y="-63.5" font-family="Helvetica,sans-Serif" font-size="10.00">map</text>
</a>
</g>
</g>
<!-- Node4&#45;&gt;Node20 -->
<g id="edge22" class="edge">
<title>Node4&#45;&gt;Node20</title>
<path fill="none" stroke="midnightblue" d="M493.04,-176C541.49,-173.44 638.08,-164.34 712.5,-132 739.89,-120.1 766.69,-98.04 783.15,-82.95"/>
<polygon fill="midnightblue" stroke="midnightblue" points="785.88,-85.19 790.76,-75.79 781.08,-80.09 785.88,-85.19"/>
</g>
<!-- Node4&#45;&gt;Node21 -->
<g id="edge23" class="edge">
<title>Node4&#45;&gt;Node21</title>
<path fill="none" stroke="midnightblue" d="M493.16,-175.51C545.58,-172.22 655.21,-162.04 742.5,-132 778.85,-119.49 817.16,-96.25 839.94,-81.22"/>
<polygon fill="midnightblue" stroke="midnightblue" points="842.07,-84 848.42,-75.52 838.16,-78.19 842.07,-84"/>
</g>
<!-- Node4&#45;&gt;Node22 -->
<g id="edge24" class="edge">
<title>Node4&#45;&gt;Node22</title>
<path fill="none" stroke="midnightblue" d="M431.57,-172.95C376.08,-165.62 255.71,-149.42 143.31,-132.09"/>
<polygon fill="midnightblue" stroke="midnightblue" points="143.57,-128.59 133.16,-130.51 142.5,-135.5 143.57,-128.59"/>
</g>
<!-- Node4&#45;&gt;Node25 -->
<g id="edge27" class="edge">
<title>Node4&#45;&gt;Node25</title>
<path fill="none" stroke="midnightblue" d="M471.98,-168.32C480.7,-160.34 493.84,-148.31 504.4,-138.65"/>
<polygon fill="midnightblue" stroke="midnightblue" points="506.83,-141.17 511.85,-131.83 502.11,-136 506.83,-141.17"/>
</g>
<!-- Node6 -->
<g id="node6" class="node">
<title>Node6</title>
<g id="a_node6"><a xlink:href="Time_8hpp.html" target="_top" xlink:title=" ">
<polygon fill="none" stroke="black" points="608,-56.5 608,-75.5 689,-75.5 689,-56.5 608,-56.5"/>
<text text-anchor="middle" x="648.5" y="-63.5" font-family="Helvetica,sans-Serif" font-size="10.00">util/Time.hpp</text>
</a>
</g>
</g>
<!-- Node5&#45;&gt;Node6 -->
<g id="edge5" class="edge">
<title>Node5&#45;&gt;Node6</title>
<path fill="none" stroke="midnightblue" d="M663.53,-112.08C661.12,-104.85 657.64,-94.41 654.63,-85.4"/>
<polygon fill="midnightblue" stroke="midnightblue" points="657.9,-84.13 651.42,-75.75 651.26,-86.34 657.9,-84.13"/>
</g>
<!-- Node5&#45;&gt;Node13 -->
<g id="edge12" class="edge">
<title>Node5&#45;&gt;Node13</title>
<path fill="none" stroke="midnightblue" d="M629.11,-114.18C577.12,-104.62 484.67,-87.37 435.81,-76.11"/>
<polygon fill="midnightblue" stroke="midnightblue" points="436.32,-72.63 425.79,-73.73 434.71,-79.45 436.32,-72.63"/>
</g>
<!-- Node14 -->
<g id="node14" class="node">
<title>Node14</title>
<g id="a_node14"><a xlink:title=" ">
<polygon fill="none" stroke="#bfbfbf" points="529.5,-56.5 529.5,-75.5 589.5,-75.5 589.5,-56.5 529.5,-56.5"/>
<text text-anchor="middle" x="559.5" y="-63.5" font-family="Helvetica,sans-Serif" font-size="10.00">iostream</text>
</a>
</g>
</g>
<!-- Node5&#45;&gt;Node14 -->
<g id="edge13" class="edge">
<title>Node5&#45;&gt;Node14</title>
<path fill="none" stroke="midnightblue" d="M649.31,-112.32C632.15,-103.66 605.55,-90.24 585.75,-80.25"/>
<polygon fill="midnightblue" stroke="midnightblue" points="587.15,-77.04 576.65,-75.65 584,-83.28 587.15,-77.04"/>
</g>
<!-- Node15 -->
<g id="node15" class="node">
<title>Node15</title>
<g id="a_node15"><a xlink:title=" ">
<polygon fill="none" stroke="#bfbfbf" points="444,-56.5 444,-75.5 511,-75.5 511,-56.5 444,-56.5"/>
<text text-anchor="middle" x="477.5" y="-63.5" font-family="Helvetica,sans-Serif" font-size="10.00">streambuf</text>
</a>
</g>
</g>
<!-- Node5&#45;&gt;Node15 -->
<g id="edge14" class="edge">
<title>Node5&#45;&gt;Node15</title>
<path fill="none" stroke="midnightblue" d="M636.55,-112.44C604.34,-103.24 552.97,-88.56 517.36,-78.39"/>
<polygon fill="midnightblue" stroke="midnightblue" points="517.88,-74.9 507.31,-75.52 515.96,-81.63 517.88,-74.9"/>
</g>
<!-- Node5&#45;&gt;Node16 -->
<g id="edge15" class="edge">
<title>Node5&#45;&gt;Node16</title>
<path fill="none" stroke="midnightblue" d="M677.43,-112.32C687.67,-104.18 703.22,-91.84 715.5,-82.09"/>
<polygon fill="midnightblue" stroke="midnightblue" points="717.72,-84.79 723.38,-75.83 713.37,-79.31 717.72,-84.79"/>
</g>
<!-- Node7 -->
<g id="node7" class="node">
<title>Node7</title>
<g id="a_node7"><a xlink:title=" ">
<polygon fill="none" stroke="#bfbfbf" points="626.5,-0.5 626.5,-19.5 670.5,-19.5 670.5,-0.5 626.5,-0.5"/>
<text text-anchor="middle" x="648.5" y="-7.5" font-family="Helvetica,sans-Serif" font-size="10.00">ctime</text>
</a>
</g>
</g>
<!-- Node6&#45;&gt;Node7 -->
<g id="edge6" class="edge">
<title>Node6&#45;&gt;Node7</title>
<path fill="none" stroke="midnightblue" d="M648.5,-56.08C648.5,-49.01 648.5,-38.86 648.5,-29.99"/>
<polygon fill="midnightblue" stroke="midnightblue" points="652,-29.75 648.5,-19.75 645,-29.75 652,-29.75"/>
</g>
<!-- Node8 -->
<g id="node8" class="node">
<title>Node8</title>
<g id="a_node8"><a xlink:title=" ">
<polygon fill="none" stroke="#bfbfbf" points="902.5,-0.5 902.5,-19.5 952.5,-19.5 952.5,-0.5 902.5,-0.5"/>
<text text-anchor="middle" x="927.5" y="-7.5" font-family="Helvetica,sans-Serif" font-size="10.00">cstdint</text>
</a>
</g>
</g>
<!-- Node6&#45;&gt;Node8 -->
<g id="edge7" class="edge">
<title>Node6&#45;&gt;Node8</title>
<path fill="none" stroke="midnightblue" d="M689.07,-57.15C743.79,-46.56 840.35,-27.87 892.21,-17.83"/>
<polygon fill="midnightblue" stroke="midnightblue" points="893.11,-21.22 902.26,-15.88 891.78,-14.35 893.11,-21.22"/>
</g>
<!-- Node9 -->
<g id="node9" class="node">
<title>Node9</title>
<g id="a_node9"><a xlink:title=" ">
<polygon fill="none" stroke="#bfbfbf" points="260,-0.5 260,-19.5 317,-19.5 317,-0.5 260,-0.5"/>
<text text-anchor="middle" x="288.5" y="-7.5" font-family="Helvetica,sans-Serif" font-size="10.00">ostream</text>
</a>
</g>
</g>
<!-- Node6&#45;&gt;Node9 -->
<g id="edge8" class="edge">
<title>Node6&#45;&gt;Node9</title>
<path fill="none" stroke="midnightblue" d="M607.86,-57.57C604.7,-57.02 601.55,-56.5 598.5,-56 501.02,-40.16 385.85,-24.15 327.13,-16.18"/>
<polygon fill="midnightblue" stroke="midnightblue" points="327.56,-12.71 317.18,-14.83 326.63,-19.64 327.56,-12.71"/>
</g>
<!-- Node10 -->
<g id="node10" class="node">
<title>Node10</title>
<g id="a_node10"><a xlink:title=" ">
<polygon fill="none" stroke="#bfbfbf" points="1077.5,-0.5 1077.5,-19.5 1133.5,-19.5 1133.5,-0.5 1077.5,-0.5"/>
<text text-anchor="middle" x="1105.5" y="-7.5" font-family="Helvetica,sans-Serif" font-size="10.00">iomanip</text>
</a>
</g>
</g>
<!-- Node6&#45;&gt;Node10 -->
<g id="edge9" class="edge">
<title>Node6&#45;&gt;Node10</title>
<path fill="none" stroke="midnightblue" d="M689.12,-57.45C692.29,-56.93 695.44,-56.44 698.5,-56 833.62,-36.39 995.07,-20.88 1067.3,-14.35"/>
<polygon fill="midnightblue" stroke="midnightblue" points="1067.64,-17.83 1077.29,-13.45 1067.02,-10.86 1067.64,-17.83"/>
</g>
<!-- Node6&#45;&gt;Node11 -->
<g id="edge10" class="edge">
<title>Node6&#45;&gt;Node11</title>
<path fill="none" stroke="midnightblue" d="M626.32,-56.44C603.07,-47.48 566.35,-33.31 540.08,-23.18"/>
<polygon fill="midnightblue" stroke="midnightblue" points="541.17,-19.85 530.58,-19.52 538.65,-26.38 541.17,-19.85"/>
</g>
<!-- Node12 -->
<g id="node12" class="node">
<title>Node12</title>
<g id="a_node12"><a xlink:title=" ">
<polygon fill="none" stroke="#bfbfbf" points="1205,-0.5 1205,-19.5 1252,-19.5 1252,-0.5 1205,-0.5"/>
<text text-anchor="middle" x="1228.5" y="-7.5" font-family="Helvetica,sans-Serif" font-size="10.00">cmath</text>
</a>
</g>
</g>
<!-- Node6&#45;&gt;Node12 -->
<g id="edge11" class="edge">
<title>Node6&#45;&gt;Node12</title>
<path fill="none" stroke="midnightblue" d="M689.11,-57.35C692.28,-56.86 695.44,-56.4 698.5,-56 894.82,-30.43 945.37,-38.3 1142.5,-20 1159.62,-18.41 1178.65,-16.44 1194.44,-14.75"/>
<polygon fill="midnightblue" stroke="midnightblue" points="1195.22,-18.19 1204.79,-13.63 1194.47,-11.23 1195.22,-18.19"/>
</g>
<!-- Node17&#45;&gt;Node9 -->
<g id="edge17" class="edge">
<title>Node17&#45;&gt;Node9</title>
<path fill="none" stroke="midnightblue" d="M227.23,-56.32C238.34,-48.11 255.24,-35.6 268.48,-25.81"/>
<polygon fill="midnightblue" stroke="midnightblue" points="270.6,-28.59 276.56,-19.83 266.44,-22.97 270.6,-28.59"/>
</g>
<!-- Node18&#45;&gt;Node17 -->
<g id="edge19" class="edge">
<title>Node18&#45;&gt;Node17</title>
<path fill="none" stroke="midnightblue" d="M207.99,-112.08C209.18,-104.93 210.89,-94.64 212.38,-85.69"/>
<polygon fill="midnightblue" stroke="midnightblue" points="215.85,-86.19 214.04,-75.75 208.95,-85.04 215.85,-86.19"/>
</g>
<!-- Node19 -->
<g id="node19" class="node">
<title>Node19</title>
<g id="a_node19"><a xlink:title=" ">
<polygon fill="none" stroke="#bfbfbf" points="0,-56.5 0,-75.5 59,-75.5 59,-56.5 0,-56.5"/>
<text text-anchor="middle" x="29.5" y="-63.5" font-family="Helvetica,sans-Serif" font-size="10.00">complex</text>
</a>
</g>
</g>
<!-- Node18&#45;&gt;Node19 -->
<g id="edge20" class="edge">
<title>Node18&#45;&gt;Node19</title>
<path fill="none" stroke="midnightblue" d="M178.45,-112.44C148.42,-103.28 100.59,-88.69 67.26,-78.52"/>
<polygon fill="midnightblue" stroke="midnightblue" points="68,-75.09 57.41,-75.52 65.96,-81.78 68,-75.09"/>
</g>
<!-- Node23 -->
<g id="node23" class="node">
<title>Node23</title>
<g id="a_node23"><a xlink:href="CTF_8hpp.html" target="_top" xlink:title=" ">
<polygon fill="none" stroke="black" points="77.5,-56.5 77.5,-75.5 151.5,-75.5 151.5,-56.5 77.5,-56.5"/>
<text text-anchor="middle" x="114.5" y="-63.5" font-family="Helvetica,sans-Serif" font-size="10.00">util/CTF.hpp</text>
</a>
</g>
</g>
<!-- Node22&#45;&gt;Node23 -->
<g id="edge25" class="edge">
<title>Node22&#45;&gt;Node23</title>
<path fill="none" stroke="midnightblue" d="M93.63,-112.08C97.01,-104.77 101.92,-94.18 106.12,-85.1"/>
<polygon fill="midnightblue" stroke="midnightblue" points="109.42,-86.3 110.45,-75.75 103.07,-83.36 109.42,-86.3"/>
</g>
<!-- Node24 -->
<g id="node24" class="node">
<title>Node24</title>
<g id="a_node24"><a xlink:title=" ">
<polygon fill="none" stroke="#bfbfbf" points="89.5,-0.5 89.5,-19.5 139.5,-19.5 139.5,-0.5 89.5,-0.5"/>
<text text-anchor="middle" x="114.5" y="-7.5" font-family="Helvetica,sans-Serif" font-size="10.00">ctf.hpp</text>
</a>
</g>
</g>
<!-- Node23&#45;&gt;Node24 -->
<g id="edge26" class="edge">
<title>Node23&#45;&gt;Node24</title>
<path fill="none" stroke="midnightblue" d="M114.5,-56.08C114.5,-49.01 114.5,-38.86 114.5,-29.99"/>
<polygon fill="midnightblue" stroke="midnightblue" points="118,-29.75 114.5,-19.75 111,-29.75 118,-29.75"/>
</g>
<!-- Node25&#45;&gt;Node11 -->
<g id="edge29" class="edge">
<title>Node25&#45;&gt;Node11</title>
<path fill="none" stroke="midnightblue" d="M469.15,-120.14C435.69,-116.52 394.57,-105.72 372.5,-76 344.83,-38.73 420.8,-21.9 470.07,-15.08"/>
<polygon fill="midnightblue" stroke="midnightblue" points="470.67,-18.53 480.13,-13.77 469.76,-11.59 470.67,-18.53"/>
</g>
<!-- Node25&#45;&gt;Node13 -->
<g id="edge28" class="edge">
<title>Node25&#45;&gt;Node13</title>
<path fill="none" stroke="midnightblue" d="M502.8,-112.44C483.56,-103.64 453.35,-89.81 431.3,-79.72"/>
<polygon fill="midnightblue" stroke="midnightblue" points="432.66,-76.5 422.11,-75.52 429.75,-82.86 432.66,-76.5"/>
</g>
<!-- Node25&#45;&gt;Node14 -->
<g id="edge30" class="edge">
<title>Node25&#45;&gt;Node14</title>
<path fill="none" stroke="midnightblue" d="M527.77,-112.08C533.14,-104.46 541.02,-93.26 547.58,-83.94"/>
<polygon fill="midnightblue" stroke="midnightblue" points="550.45,-85.94 553.34,-75.75 544.72,-81.91 550.45,-85.94"/>
</g>
<!-- Node26&#45;&gt;Node6 -->
<g id="edge38" class="edge">
<title>Node26&#45;&gt;Node6</title>
<path fill="none" stroke="midnightblue" d="M803.74,-224.12C813.37,-211.16 828.03,-186.57 817.5,-168 790.39,-120.21 730.69,-92.62 690.02,-78.7"/>
<polygon fill="midnightblue" stroke="midnightblue" points="690.97,-75.32 680.38,-75.53 688.78,-81.97 690.97,-75.32"/>
</g>
<!-- Node26&#45;&gt;Node23 -->
<g id="edge39" class="edge">
<title>Node26&#45;&gt;Node23</title>
<path fill="none" stroke="midnightblue" d="M763.14,-224.88C651.05,-197.6 287.77,-109.18 159.7,-78"/>
<polygon fill="midnightblue" stroke="midnightblue" points="160.37,-74.56 149.82,-75.6 158.71,-81.36 160.37,-74.56"/>
</g>
<!-- Node27 -->
<g id="node27" class="node">
<title>Node27</title>
<g id="a_node27"><a xlink:href="Options_8hpp.html" target="_top" xlink:title=" ">
<polygon fill="none" stroke="black" points="733,-168.5 733,-187.5 808,-187.5 808,-168.5 733,-168.5"/>
<text text-anchor="middle" x="770.5" y="-175.5" font-family="Helvetica,sans-Serif" font-size="10.00">Options.hpp</text>
</a>
</g>
</g>
<!-- Node26&#45;&gt;Node27 -->
<g id="edge40" class="edge">
<title>Node26&#45;&gt;Node27</title>
<path fill="none" stroke="midnightblue" d="M792.21,-224.08C788.65,-216.69 783.48,-205.95 779.08,-196.81"/>
<polygon fill="midnightblue" stroke="midnightblue" points="782.21,-195.24 774.71,-187.75 775.9,-198.28 782.21,-195.24"/>
</g>
<!-- Node27&#45;&gt;Node13 -->
<g id="edge41" class="edge">
<title>Node27&#45;&gt;Node13</title>
<path fill="none" stroke="midnightblue" d="M735.29,-168.49C704.46,-160.57 658.75,-147.63 620.5,-132 602.83,-124.78 600.35,-118.75 582.5,-112 522.15,-89.18 501.81,-93 435.89,-76.24"/>
<polygon fill="midnightblue" stroke="midnightblue" points="436.38,-72.75 425.82,-73.61 434.61,-79.52 436.38,-72.75"/>
</g>
<!-- Node28 -->
<g id="node28" class="node">
<title>Node28</title>
<g id="a_node28"><a xlink:href="CLI11_8hpp.html" target="_top" xlink:title=" ">
<polygon fill="none" stroke="black" points="1214,-112.5 1214,-131.5 1313,-131.5 1313,-112.5 1214,-112.5"/>
<text text-anchor="middle" x="1263.5" y="-119.5" font-family="Helvetica,sans-Serif" font-size="10.00">extern/CLI11.hpp</text>
</a>
</g>
</g>
<!-- Node27&#45;&gt;Node28 -->
<g id="edge42" class="edge">
<title>Node27&#45;&gt;Node28</title>
<path fill="none" stroke="midnightblue" d="M808.37,-172.85C893.49,-163.53 1100.54,-140.85 1203.43,-129.58"/>
<polygon fill="midnightblue" stroke="midnightblue" points="1204.09,-133.03 1213.65,-128.46 1203.33,-126.07 1204.09,-133.03"/>
</g>
<!-- Node28&#45;&gt;Node8 -->
<g id="edge56" class="edge">
<title>Node28&#45;&gt;Node8</title>
<path fill="none" stroke="midnightblue" d="M1256.12,-112.16C1243.6,-97.83 1216.72,-69.74 1187.5,-56 1112.84,-20.9 1014.55,-12.91 962.83,-11.26"/>
<polygon fill="midnightblue" stroke="midnightblue" points="962.91,-7.77 952.82,-11.01 962.73,-14.76 962.91,-7.77"/>
</g>
<!-- Node28&#45;&gt;Node10 -->
<g id="edge52" class="edge">
<title>Node28&#45;&gt;Node10</title>
<path fill="none" stroke="midnightblue" d="M1259.8,-112.18C1253.61,-98.38 1239.86,-71.65 1220.5,-56 1198.18,-37.96 1167.75,-26.48 1143.8,-19.64"/>
<polygon fill="midnightblue" stroke="midnightblue" points="1144.55,-16.21 1133.98,-16.98 1142.72,-22.97 1144.55,-16.21"/>
</g>
<!-- Node28&#45;&gt;Node11 -->
<g id="edge54" class="edge">
<title>Node28&#45;&gt;Node11</title>
<path fill="none" stroke="midnightblue" d="M1213.85,-119.46C1148.11,-116.25 1029.18,-106.38 932.5,-76 913.92,-70.16 912.14,-61.67 893.5,-56 860.79,-46.06 637.43,-23.55 546.7,-14.68"/>
<polygon fill="midnightblue" stroke="midnightblue" points="546.86,-11.18 536.56,-13.7 546.18,-18.15 546.86,-11.18"/>
</g>
<!-- Node28&#45;&gt;Node12 -->
<g id="edge45" class="edge">
<title>Node28&#45;&gt;Node12</title>
<path fill="none" stroke="midnightblue" d="M1264.2,-112.31C1264.92,-99.57 1265.15,-75.26 1258.5,-56 1254.95,-45.7 1248.45,-35.49 1242.41,-27.41"/>
<polygon fill="midnightblue" stroke="midnightblue" points="1245.15,-25.23 1236.19,-19.57 1239.66,-29.58 1245.15,-25.23"/>
</g>
<!-- Node28&#45;&gt;Node13 -->
<g id="edge44" class="edge">
<title>Node28&#45;&gt;Node13</title>
<path fill="none" stroke="midnightblue" d="M1214,-119.8C1062.33,-115.88 604.66,-102.29 435.7,-75.75"/>
<polygon fill="midnightblue" stroke="midnightblue" points="436.14,-72.28 425.71,-74.11 435.01,-79.18 436.14,-72.28"/>
</g>
<!-- Node28&#45;&gt;Node14 -->
<g id="edge57" class="edge">
<title>Node28&#45;&gt;Node14</title>
<path fill="none" stroke="midnightblue" d="M1213.99,-120.34C1104.72,-118.3 834.65,-110.09 599.74,-75.94"/>
<polygon fill="midnightblue" stroke="midnightblue" points="600.05,-72.45 589.64,-74.46 599.03,-79.38 600.05,-72.45"/>
</g>
<!-- Node28&#45;&gt;Node16 -->
<g id="edge49" class="edge">
<title>Node28&#45;&gt;Node16</title>
<path fill="none" stroke="midnightblue" d="M1213.96,-118.89C1126.64,-114.64 939.54,-103.18 772.26,-75.88"/>
<polygon fill="midnightblue" stroke="midnightblue" points="772.73,-72.4 762.29,-74.22 771.58,-79.31 772.73,-72.4"/>
</g>
<!-- Node28&#45;&gt;Node20 -->
<g id="edge48" class="edge">
<title>Node28&#45;&gt;Node20</title>
<path fill="none" stroke="midnightblue" d="M1213.76,-119.05C1132.45,-115.16 966.29,-104.22 828.5,-76 828.4,-75.98 828.3,-75.96 828.2,-75.94"/>
<polygon fill="midnightblue" stroke="midnightblue" points="829.26,-72.6 818.7,-73.54 827.54,-79.38 829.26,-72.6"/>
</g>
<!-- Node28&#45;&gt;Node21 -->
<g id="edge62" class="edge">
<title>Node28&#45;&gt;Node21</title>
<path fill="none" stroke="midnightblue" d="M1213.95,-116.63C1143.5,-110.03 1010.52,-96.11 898.5,-76 897.04,-75.74 895.55,-75.46 894.05,-75.16"/>
<polygon fill="midnightblue" stroke="midnightblue" points="894.65,-71.7 884.13,-73.02 893.17,-78.55 894.65,-71.7"/>
</g>
<!-- Node29 -->
<g id="node29" class="node">
<title>Node29</title>
<g id="a_node29"><a xlink:title=" ">
<polygon fill="none" stroke="#bfbfbf" points="1310.5,-56.5 1310.5,-75.5 1368.5,-75.5 1368.5,-56.5 1310.5,-56.5"/>
<text text-anchor="middle" x="1339.5" y="-63.5" font-family="Helvetica,sans-Serif" font-size="10.00">memory</text>
</a>
</g>
</g>
<!-- Node28&#45;&gt;Node29 -->
<g id="edge43" class="edge">
<title>Node28&#45;&gt;Node29</title>
<path fill="none" stroke="midnightblue" d="M1275.71,-112.32C1287.28,-104.11 1304.88,-91.6 1318.66,-81.81"/>
<polygon fill="midnightblue" stroke="midnightblue" points="1320.94,-84.48 1327.07,-75.83 1316.89,-78.77 1320.94,-84.48"/>
</g>
<!-- Node30 -->
<g id="node30" class="node">
<title>Node30</title>
<g id="a_node30"><a xlink:title=" ">
<polygon fill="none" stroke="#bfbfbf" points="1387,-56.5 1387,-75.5 1452,-75.5 1452,-56.5 1387,-56.5"/>
<text text-anchor="middle" x="1419.5" y="-63.5" font-family="Helvetica,sans-Serif" font-size="10.00">functional</text>
</a>
</g>
</g>
<!-- Node28&#45;&gt;Node30 -->
<g id="edge46" class="edge">
<title>Node28&#45;&gt;Node30</title>
<path fill="none" stroke="midnightblue" d="M1288.22,-112.44C1314.35,-103.4 1355.76,-89.06 1385.08,-78.92"/>
<polygon fill="midnightblue" stroke="midnightblue" points="1386.59,-82.1 1394.9,-75.52 1384.3,-75.48 1386.59,-82.1"/>
</g>
<!-- Node28&#45;&gt;Node31 -->
<g id="edge47" class="edge">
<title>Node28&#45;&gt;Node31</title>
<path fill="none" stroke="midnightblue" d="M1313.06,-113.6C1317.94,-113 1322.81,-112.45 1327.5,-112 1622.73,-83.41 1702.91,-118.83 2000.11,-75.92"/>
<polygon fill="midnightblue" stroke="midnightblue" points="2000.94,-79.33 2010.32,-74.42 1999.92,-72.41 2000.94,-79.33"/>
</g>
<!-- Node32 -->
<g id="node32" class="node">
<title>Node32</title>
<g id="a_node32"><a xlink:title=" ">
<polygon fill="none" stroke="#bfbfbf" points="1470,-56.5 1470,-75.5 1511,-75.5 1511,-56.5 1470,-56.5"/>
<text text-anchor="middle" x="1490.5" y="-63.5" font-family="Helvetica,sans-Serif" font-size="10.00">tuple</text>
</a>
</g>
</g>
<!-- Node28&#45;&gt;Node32 -->
<g id="edge50" class="edge">
<title>Node28&#45;&gt;Node32</title>
<path fill="none" stroke="midnightblue" d="M1305.45,-112.45C1343.56,-104.47 1401.53,-91.77 1460.17,-76.21"/>
<polygon fill="midnightblue" stroke="midnightblue" points="1461.21,-79.56 1469.96,-73.59 1459.4,-72.8 1461.21,-79.56"/>
</g>
<!-- Node33 -->
<g id="node33" class="node">
<title>Node33</title>
<g id="a_node33"><a xlink:title=" ">
<polygon fill="none" stroke="#bfbfbf" points="1529,-56.5 1529,-75.5 1574,-75.5 1574,-56.5 1529,-56.5"/>
<text text-anchor="middle" x="1551.5" y="-63.5" font-family="Helvetica,sans-Serif" font-size="10.00">utility</text>
</a>
</g>
</g>
<!-- Node28&#45;&gt;Node33 -->
<g id="edge51" class="edge">
<title>Node28&#45;&gt;Node33</title>
<path fill="none" stroke="midnightblue" d="M1313.09,-113.96C1362.96,-106.52 1442.19,-93.69 1519.04,-76.15"/>
<polygon fill="midnightblue" stroke="midnightblue" points="1519.93,-79.54 1528.89,-73.87 1518.36,-72.72 1519.93,-79.54"/>
</g>
<!-- Node34 -->
<g id="node34" class="node">
<title>Node34</title>
<g id="a_node34"><a xlink:title=" ">
<polygon fill="none" stroke="#bfbfbf" points="1592.5,-56.5 1592.5,-75.5 1638.5,-75.5 1638.5,-56.5 1592.5,-56.5"/>
<text text-anchor="middle" x="1615.5" y="-63.5" font-family="Helvetica,sans-Serif" font-size="10.00">locale</text>
</a>
</g>
</g>
<!-- Node28&#45;&gt;Node34 -->
<g id="edge53" class="edge">
<title>Node28&#45;&gt;Node34</title>
<path fill="none" stroke="midnightblue" d="M1313.11,-114.03C1392.23,-102.9 1541.6,-81.9 1582.14,-75.63"/>
<polygon fill="midnightblue" stroke="midnightblue" points="1582.89,-79.05 1592.17,-73.95 1581.73,-72.15 1582.89,-79.05"/>
</g>
<!-- Node28&#45;&gt;Node35 -->
<g id="edge55" class="edge">
<title>Node28&#45;&gt;Node35</title>
<path fill="none" stroke="midnightblue" d="M1313.02,-116.26C1329.68,-114.76 1348.39,-113.19 1365.5,-112 1677.32,-90.35 1760.56,-117.42 2074.07,-75.96"/>
<polygon fill="midnightblue" stroke="midnightblue" points="2074.91,-79.37 2084.36,-74.58 2073.99,-72.44 2074.91,-79.37"/>
</g>
<!-- Node36 -->
<g id="node36" class="node">
<title>Node36</title>
<g id="a_node36"><a xlink:title=" ">
<polygon fill="none" stroke="#bfbfbf" points="1656.5,-56.5 1656.5,-75.5 1688.5,-75.5 1688.5,-56.5 1656.5,-56.5"/>
<text text-anchor="middle" x="1672.5" y="-63.5" font-family="Helvetica,sans-Serif" font-size="10.00">set</text>
</a>
</g>
</g>
<!-- Node28&#45;&gt;Node36 -->
<g id="edge58" class="edge">
<title>Node28&#45;&gt;Node36</title>
<path fill="none" stroke="midnightblue" d="M1313.1,-113.89C1317.96,-113.23 1322.82,-112.59 1327.5,-112 1466.3,-94.44 1506.32,-107.83 1646.44,-75.75"/>
<polygon fill="midnightblue" stroke="midnightblue" points="1647.31,-79.14 1656.26,-73.46 1645.73,-72.32 1647.31,-79.14"/>
</g>
<!-- Node37 -->
<g id="node37" class="node">
<title>Node37</title>
<g id="a_node37"><a xlink:title=" ">
<polygon fill="none" stroke="#bfbfbf" points="1707,-56.5 1707,-75.5 1776,-75.5 1776,-56.5 1707,-56.5"/>
<text text-anchor="middle" x="1741.5" y="-63.5" font-family="Helvetica,sans-Serif" font-size="10.00">type_traits</text>
</a>
</g>
</g>
<!-- Node28&#45;&gt;Node37 -->
<g id="edge59" class="edge">
<title>Node28&#45;&gt;Node37</title>
<path fill="none" stroke="midnightblue" d="M1313.09,-113.81C1317.95,-113.17 1322.82,-112.56 1327.5,-112 1488.36,-92.87 1532.41,-100.28 1696.99,-75.91"/>
<polygon fill="midnightblue" stroke="midnightblue" points="1697.6,-79.36 1706.97,-74.42 1696.57,-72.44 1697.6,-79.36"/>
</g>
<!-- Node38 -->
<g id="node38" class="node">
<title>Node38</title>
<g id="a_node38"><a xlink:title=" ">
<polygon fill="none" stroke="#bfbfbf" points="1794,-56.5 1794,-75.5 1847,-75.5 1847,-56.5 1794,-56.5"/>
<text text-anchor="middle" x="1820.5" y="-63.5" font-family="Helvetica,sans-Serif" font-size="10.00">iterator</text>
</a>
</g>
</g>
<!-- Node28&#45;&gt;Node38 -->
<g id="edge60" class="edge">
<title>Node28&#45;&gt;Node38</title>
<path fill="none" stroke="midnightblue" d="M1313.08,-113.72C1317.95,-113.1 1322.82,-112.51 1327.5,-112 1527.2,-90.13 1582.33,-108.92 1783.83,-76.02"/>
<polygon fill="midnightblue" stroke="midnightblue" points="1784.55,-79.45 1793.85,-74.36 1783.41,-72.54 1784.55,-79.45"/>
</g>
<!-- Node39 -->
<g id="node39" class="node">
<title>Node39</title>
<g id="a_node39"><a xlink:title=" ">
<polygon fill="none" stroke="#bfbfbf" points="1865,-56.5 1865,-75.5 1930,-75.5 1930,-56.5 1865,-56.5"/>
<text text-anchor="middle" x="1897.5" y="-63.5" font-family="Helvetica,sans-Serif" font-size="10.00">stdexcept</text>
</a>
</g>
</g>
<!-- Node28&#45;&gt;Node39 -->
<g id="edge61" class="edge">
<title>Node28&#45;&gt;Node39</title>
<path fill="none" stroke="midnightblue" d="M1313.07,-113.67C1317.94,-113.06 1322.81,-112.49 1327.5,-112 1558.57,-87.92 1621.45,-108.75 1854.75,-76.05"/>
<polygon fill="midnightblue" stroke="midnightblue" points="1855.5,-79.48 1864.91,-74.61 1854.51,-72.55 1855.5,-79.48"/>
</g>
<!-- Node40 -->
<g id="node40" class="node">
<title>Node40</title>
<g id="a_node40"><a xlink:title=" ">
<polygon fill="none" stroke="#bfbfbf" points="1948.5,-56.5 1948.5,-75.5 1992.5,-75.5 1992.5,-56.5 1948.5,-56.5"/>
<text text-anchor="middle" x="1970.5" y="-63.5" font-family="Helvetica,sans-Serif" font-size="10.00">limits</text>
</a>
</g>
</g>
<!-- Node28&#45;&gt;Node40 -->
<g id="edge63" class="edge">
<title>Node28&#45;&gt;Node40</title>
<path fill="none" stroke="midnightblue" d="M1313.07,-113.63C1317.94,-113.02 1322.81,-112.47 1327.5,-112 1595.32,-85.34 1669.19,-121.37 1938.22,-75.82"/>
<polygon fill="midnightblue" stroke="midnightblue" points="1939.02,-79.23 1948.29,-74.09 1937.84,-72.34 1939.02,-79.23"/>
</g>
<!-- Node41 -->
<g id="node41" class="node">
<title>Node41</title>
<g id="a_node41"><a xlink:title=" ">
<polygon fill="none" stroke="#bfbfbf" points="941,-56.5 941,-75.5 1006,-75.5 1006,-56.5 941,-56.5"/>
<text text-anchor="middle" x="973.5" y="-63.5" font-family="Helvetica,sans-Serif" font-size="10.00">exception</text>
</a>
</g>
</g>
<!-- Node28&#45;&gt;Node41 -->
<g id="edge64" class="edge">
<title>Node28&#45;&gt;Node41</title>
<path fill="none" stroke="midnightblue" d="M1214.01,-112.49C1166.04,-104.14 1090.98,-90.8 1016.12,-76.07"/>
<polygon fill="midnightblue" stroke="midnightblue" points="1016.53,-72.58 1006.04,-74.08 1015.17,-79.45 1016.53,-72.58"/>
</g>
<!-- Node42 -->
<g id="node42" class="node">
<title>Node42</title>
<g id="a_node42"><a xlink:title=" ">
<polygon fill="none" stroke="#bfbfbf" points="1024.5,-56.5 1024.5,-75.5 1088.5,-75.5 1088.5,-56.5 1024.5,-56.5"/>
<text text-anchor="middle" x="1056.5" y="-63.5" font-family="Helvetica,sans-Serif" font-size="10.00">sys/stat.h</text>
</a>
</g>
</g>
<!-- Node28&#45;&gt;Node42 -->
<g id="edge65" class="edge">
<title>Node28&#45;&gt;Node42</title>
<path fill="none" stroke="midnightblue" d="M1230.7,-112.44C1195.01,-103.13 1137.85,-88.22 1098.81,-78.04"/>
<polygon fill="midnightblue" stroke="midnightblue" points="1099.37,-74.57 1088.81,-75.43 1097.6,-81.34 1099.37,-74.57"/>
</g>
<!-- Node43 -->
<g id="node43" class="node">
<title>Node43</title>
<g id="a_node43"><a xlink:title=" ">
<polygon fill="none" stroke="#bfbfbf" points="1106.5,-56.5 1106.5,-75.5 1178.5,-75.5 1178.5,-56.5 1106.5,-56.5"/>
<text text-anchor="middle" x="1142.5" y="-63.5" font-family="Helvetica,sans-Serif" font-size="10.00">sys/types.h</text>
</a>
</g>
</g>
<!-- Node28&#45;&gt;Node43 -->
<g id="edge66" class="edge">
<title>Node28&#45;&gt;Node43</title>
<path fill="none" stroke="midnightblue" d="M1244.33,-112.44C1224.59,-103.64 1193.61,-89.81 1171.01,-79.72"/>
<polygon fill="midnightblue" stroke="midnightblue" points="1172.14,-76.4 1161.58,-75.52 1169.29,-82.79 1172.14,-76.4"/>
</g>
<!-- Node44&#45;&gt;Node21 -->
<g id="edge69" class="edge">
<title>Node44&#45;&gt;Node21</title>
<path fill="none" stroke="midnightblue" d="M956.99,-280.18C952.5,-271.2 945.56,-256.83 940.5,-244 917.86,-186.6 927.16,-166.1 897.5,-112 891.74,-101.49 883.38,-91.07 876.07,-82.9"/>
<polygon fill="midnightblue" stroke="midnightblue" points="878.62,-80.5 869.24,-75.57 873.49,-85.28 878.62,-80.5"/>
</g>
<!-- Node45 -->
<g id="node45" class="node">
<title>Node45</title>
<g id="a_node45"><a xlink:title=" ">
<polygon fill="none" stroke="#bfbfbf" points="949.5,-224.5 949.5,-243.5 991.5,-243.5 991.5,-224.5 949.5,-224.5"/>
<text text-anchor="middle" x="970.5" y="-231.5" font-family="Helvetica,sans-Serif" font-size="10.00">array</text>
</a>
</g>
</g>
<!-- Node44&#45;&gt;Node45 -->
<g id="edge70" class="edge">
<title>Node44&#45;&gt;Node45</title>
<path fill="none" stroke="midnightblue" d="M962.99,-280.08C964.18,-272.93 965.89,-262.64 967.38,-253.69"/>
<polygon fill="midnightblue" stroke="midnightblue" points="970.85,-254.19 969.04,-243.75 963.95,-253.04 970.85,-254.19"/>
</g>
</g>
</svg>
