<?xml version="1.0" encoding="UTF-8" standalone="no"?>
<!DOCTYPE svg PUBLIC "-//W3C//DTD SVG 1.1//EN"
 "http://www.w3.org/Graphics/SVG/1.1/DTD/svg11.dtd">
<!-- Generated by graphviz version 7.0.0 (0)
 -->
<!-- Title: FockMatrixFromCoulombIntegrals.cxx Pages: 1 -->
<svg width="2355pt" height="368pt"
 viewBox="0.00 0.00 2354.82 368.00" xmlns="http://www.w3.org/2000/svg" xmlns:xlink="http://www.w3.org/1999/xlink">
<g id="graph0" class="graph" transform="scale(1 1) rotate(0) translate(4 364)">
<title>FockMatrixFromCoulombIntegrals.cxx</title>
<!-- Node1 -->
<g id="node1" class="node">
<title>Node1</title>
<g id="a_node1"><a xlink:title=" ">
<polygon fill="#999999" stroke="#666666" points="1068.82,-360 866.82,-360 866.82,-341 1068.82,-341 1068.82,-360"/>
<text text-anchor="middle" x="967.82" y="-348" font-family="Helvetica,sans-Serif" font-size="10.00">FockMatrixFromCoulombIntegrals.cxx</text>
</a>
</g>
</g>
<!-- Node2 -->
<g id="node2" class="node">
<title>Node2</title>
<g id="a_node2"><a xlink:href="FockMatrixFromCoulombIntegrals_8hpp.html" target="_top" xlink:title=" ">
<polygon fill="white" stroke="#666666" points="822.32,-305 671.32,-305 671.32,-275 822.32,-275 822.32,-305"/>
<text text-anchor="start" x="679.32" y="-293" font-family="Helvetica,sans-Serif" font-size="10.00">algorithms/FockMatrixFrom</text>
<text text-anchor="middle" x="746.82" y="-282" font-family="Helvetica,sans-Serif" font-size="10.00">CoulombIntegrals.hpp</text>
</a>
</g>
</g>
<!-- Node1&#45;&gt;Node2 -->
<g id="edge1" class="edge">
<title>Node1&#45;&gt;Node2</title>
<path fill="none" stroke="#63b8ff" d="M934.25,-340.62C902.02,-332.08 852.46,-318.96 812.39,-308.36"/>
<polygon fill="#63b8ff" stroke="#63b8ff" points="813.39,-305 802.83,-305.83 811.6,-311.77 813.39,-305"/>
</g>
<!-- Node5 -->
<g id="node5" class="node">
<title>Node5</title>
<g id="a_node5"><a xlink:href="Log_8hpp.html" target="_top" xlink:title=" ">
<polygon fill="white" stroke="#666666" points="542.82,-129 468.82,-129 468.82,-110 542.82,-110 542.82,-129"/>
<text text-anchor="middle" x="505.82" y="-117" font-family="Helvetica,sans-Serif" font-size="10.00">util/Log.hpp</text>
</a>
</g>
</g>
<!-- Node1&#45;&gt;Node5 -->
<g id="edge75" class="edge">
<title>Node1&#45;&gt;Node5</title>
<path fill="none" stroke="#63b8ff" d="M967.8,-340.57C967.24,-316.82 962.2,-251.74 924.82,-220 910.54,-207.88 661.74,-153.74 554.43,-130.81"/>
<polygon fill="#63b8ff" stroke="#63b8ff" points="555.27,-127.41 544.76,-128.75 553.81,-134.26 555.27,-127.41"/>
</g>
<!-- Node13 -->
<g id="node13" class="node">
<title>Node13</title>
<g id="a_node13"><a xlink:title=" ">
<polygon fill="#e0e0e0" stroke="#999999" points="340.82,-74 296.82,-74 296.82,-55 340.82,-55 340.82,-74"/>
<text text-anchor="middle" x="318.82" y="-62" font-family="Helvetica,sans-Serif" font-size="10.00">string</text>
</a>
</g>
</g>
<!-- Node1&#45;&gt;Node13 -->
<g id="edge35" class="edge">
<title>Node1&#45;&gt;Node13</title>
<path fill="none" stroke="#63b8ff" d="M866.61,-347.5C618.64,-341.26 0.82,-317.03 0.82,-230.5 0.82,-230.5 0.82,-230.5 0.82,-173.5 0.82,-144.04 -2.45,-129.29 19.82,-110 39.68,-92.79 211.58,-75.26 285.38,-68.45"/>
<polygon fill="#63b8ff" stroke="#63b8ff" points="285.61,-71.95 295.25,-67.56 284.97,-64.98 285.61,-71.95"/>
</g>
<!-- Node14 -->
<g id="node14" class="node">
<title>Node14</title>
<g id="a_node14"><a xlink:title=" ">
<polygon fill="#e0e0e0" stroke="#999999" points="808.82,-74 748.82,-74 748.82,-55 808.82,-55 808.82,-74"/>
<text text-anchor="middle" x="778.82" y="-62" font-family="Helvetica,sans-Serif" font-size="10.00">iostream</text>
</a>
</g>
</g>
<!-- Node1&#45;&gt;Node14 -->
<g id="edge85" class="edge">
<title>Node1&#45;&gt;Node14</title>
<path fill="none" stroke="#63b8ff" d="M1069.18,-345.4C1372.61,-332.47 2252.82,-289.84 2252.82,-230.5 2252.82,-230.5 2252.82,-230.5 2252.82,-173.5 2252.82,-144.04 2257.17,-127.95 2233.82,-110 2219.42,-98.94 1057.66,-71.86 820.72,-66.45"/>
<polygon fill="#63b8ff" stroke="#63b8ff" points="820.8,-62.95 810.73,-66.22 820.64,-69.95 820.8,-62.95"/>
</g>
<!-- Node20 -->
<g id="node20" class="node">
<title>Node20</title>
<g id="a_node20"><a xlink:title=" ">
<polygon fill="#e0e0e0" stroke="#999999" points="704.82,-129 666.82,-129 666.82,-110 704.82,-110 704.82,-129"/>
<text text-anchor="middle" x="685.82" y="-117" font-family="Helvetica,sans-Serif" font-size="10.00">map</text>
</a>
</g>
</g>
<!-- Node1&#45;&gt;Node20 -->
<g id="edge87" class="edge">
<title>Node1&#45;&gt;Node20</title>
<path fill="none" stroke="#63b8ff" d="M866.47,-346.18C744.68,-341.12 553.84,-329.39 531.82,-305 523.51,-295.81 529.41,-235.29 536.82,-220 560.18,-171.8 619.52,-143.43 655.87,-130.01"/>
<polygon fill="#63b8ff" stroke="#63b8ff" points="656.65,-133.45 664.92,-126.83 654.33,-126.85 656.65,-133.45"/>
</g>
<!-- Node21 -->
<g id="node21" class="node">
<title>Node21</title>
<g id="a_node21"><a xlink:title=" ">
<polygon fill="#e0e0e0" stroke="#999999" points="770.32,-129 723.32,-129 723.32,-110 770.32,-110 770.32,-129"/>
<text text-anchor="middle" x="746.82" y="-117" font-family="Helvetica,sans-Serif" font-size="10.00">vector</text>
</a>
</g>
</g>
<!-- Node1&#45;&gt;Node21 -->
<g id="edge36" class="edge">
<title>Node1&#45;&gt;Node21</title>
<path fill="none" stroke="#63b8ff" d="M866.39,-345.51C750.14,-339.89 572.84,-327.69 551.82,-305 526.13,-277.28 530.01,-252.18 549.82,-220 568.19,-190.13 661.03,-152.1 712.43,-132.85"/>
<polygon fill="#63b8ff" stroke="#63b8ff" points="713.45,-136.21 721.61,-129.46 711.02,-129.64 713.45,-136.21"/>
</g>
<!-- Node22 -->
<g id="node22" class="node">
<title>Node22</title>
<g id="a_node22"><a xlink:href="Tensor_8hpp.html" target="_top" xlink:title=" ">
<polygon fill="white" stroke="#666666" points="648.32,-129 561.32,-129 561.32,-110 648.32,-110 648.32,-129"/>
<text text-anchor="middle" x="604.82" y="-117" font-family="Helvetica,sans-Serif" font-size="10.00">util/Tensor.hpp</text>
</a>
</g>
</g>
<!-- Node1&#45;&gt;Node22 -->
<g id="edge44" class="edge">
<title>Node1&#45;&gt;Node22</title>
<path fill="none" stroke="#63b8ff" d="M991.78,-340.62C1040.11,-321.35 1141.65,-273.12 1104.82,-220 1084.94,-191.34 991.71,-173.25 957.82,-165 830.78,-134.08 792.8,-146.91 659.78,-129.19"/>
<polygon fill="#63b8ff" stroke="#63b8ff" points="660.64,-125.78 650.26,-127.89 659.69,-132.71 660.64,-125.78"/>
</g>
<!-- Node26 -->
<g id="node26" class="node">
<title>Node26</title>
<g id="a_node26"><a xlink:href="MathFunctions_8hpp.html" target="_top" xlink:title=" ">
<polygon fill="white" stroke="#666666" points="214.32,-184 77.32,-184 77.32,-165 214.32,-165 214.32,-184"/>
<text text-anchor="middle" x="145.82" y="-172" font-family="Helvetica,sans-Serif" font-size="10.00">math/MathFunctions.hpp</text>
</a>
</g>
</g>
<!-- Node1&#45;&gt;Node26 -->
<g id="edge37" class="edge">
<title>Node1&#45;&gt;Node26</title>
<path fill="none" stroke="#63b8ff" d="M866.59,-344.91C736.67,-338.34 518.74,-324.81 440.82,-305 335.77,-278.3 220.72,-217.82 171.01,-190"/>
<polygon fill="#63b8ff" stroke="#63b8ff" points="172.89,-187.04 162.47,-185.17 169.45,-193.14 172.89,-187.04"/>
</g>
<!-- Node27 -->
<g id="node27" class="node">
<title>Node27</title>
<g id="a_node27"><a xlink:title=" ">
<polygon fill="#e0e0e0" stroke="#999999" points="2100.82,-129 2036.82,-129 2036.82,-110 2100.82,-110 2100.82,-129"/>
<text text-anchor="middle" x="2068.82" y="-117" font-family="Helvetica,sans-Serif" font-size="10.00">algorithm</text>
</a>
</g>
</g>
<!-- Node1&#45;&gt;Node27 -->
<g id="edge43" class="edge">
<title>Node1&#45;&gt;Node27</title>
<path fill="none" stroke="#63b8ff" d="M1015.75,-340.53C1110.34,-322.65 1327.57,-280.69 1508.82,-239 1638.03,-209.28 1668.05,-192.21 1797.82,-165 1840.41,-156.07 1960.05,-137.25 2025.2,-127.18"/>
<polygon fill="#63b8ff" stroke="#63b8ff" points="2025.47,-130.68 2034.82,-125.7 2024.41,-123.76 2025.47,-130.68"/>
</g>
<!-- Node28 -->
<g id="node28" class="node">
<title>Node28</title>
<g id="a_node28"><a xlink:href="Sisi4s_8hpp.html" target="_top" xlink:title=" ">
<polygon fill="white" stroke="#666666" points="2346.82,-299.5 2280.82,-299.5 2280.82,-280.5 2346.82,-280.5 2346.82,-299.5"/>
<text text-anchor="middle" x="2313.82" y="-287.5" font-family="Helvetica,sans-Serif" font-size="10.00">Sisi4s.hpp</text>
</a>
</g>
</g>
<!-- Node1&#45;&gt;Node28 -->
<g id="edge45" class="edge">
<title>Node1&#45;&gt;Node28</title>
<path fill="none" stroke="#63b8ff" d="M1068.94,-349.36C1332.67,-348.48 2036.88,-342.55 2266.82,-305 2270.24,-304.44 2273.75,-303.71 2277.26,-302.87"/>
<polygon fill="#63b8ff" stroke="#63b8ff" points="2278.03,-306.28 2286.77,-300.3 2276.21,-299.52 2278.03,-306.28"/>
</g>
<!-- Node33 -->
<g id="node33" class="node">
<title>Node33</title>
<g id="a_node33"><a xlink:title=" ">
<polygon fill="#e0e0e0" stroke="#999999" points="2174.82,-129 2118.82,-129 2118.82,-110 2174.82,-110 2174.82,-129"/>
<text text-anchor="middle" x="2146.82" y="-117" font-family="Helvetica,sans-Serif" font-size="10.00">numeric</text>
</a>
</g>
</g>
<!-- Node1&#45;&gt;Node33 -->
<g id="edge86" class="edge">
<title>Node1&#45;&gt;Node33</title>
<path fill="none" stroke="#63b8ff" d="M1042.91,-340.53C1107.5,-332.44 1203.06,-319.61 1285.82,-305 1604.84,-248.68 1985.68,-159.18 2107.39,-130.02"/>
<polygon fill="#63b8ff" stroke="#63b8ff" points="2107.97,-133.48 2116.88,-127.74 2106.34,-126.67 2107.97,-133.48"/>
</g>
<!-- Node37 -->
<g id="node37" class="node">
<title>Node37</title>
<g id="a_node37"><a xlink:title=" ">
<polygon fill="#e0e0e0" stroke="#999999" points="2224.82,-129 2192.82,-129 2192.82,-110 2224.82,-110 2224.82,-129"/>
<text text-anchor="middle" x="2208.82" y="-117" font-family="Helvetica,sans-Serif" font-size="10.00">set</text>
</a>
</g>
</g>
<!-- Node1&#45;&gt;Node37 -->
<g id="edge88" class="edge">
<title>Node1&#45;&gt;Node37</title>
<path fill="none" stroke="#63b8ff" d="M1069.32,-341.51C1152.53,-334.23 1273.23,-322.02 1377.82,-305 1453.88,-292.62 2042.33,-166.19 2181.49,-129.33"/>
<polygon fill="#63b8ff" stroke="#63b8ff" points="2182.3,-132.74 2191.03,-126.74 2180.46,-125.99 2182.3,-132.74"/>
</g>
<!-- Node45 -->
<g id="node45" class="node">
<title>Node45</title>
<g id="a_node45"><a xlink:href="Emitter_8hpp.html" target="_top" xlink:title=" ">
<polygon fill="white" stroke="#666666" points="652.82,-299.5 560.82,-299.5 560.82,-280.5 652.82,-280.5 652.82,-299.5"/>
<text text-anchor="middle" x="606.82" y="-287.5" font-family="Helvetica,sans-Serif" font-size="10.00">util/Emitter.hpp</text>
</a>
</g>
</g>
<!-- Node1&#45;&gt;Node45 -->
<g id="edge76" class="edge">
<title>Node1&#45;&gt;Node45</title>
<path fill="none" stroke="#63b8ff" d="M890.41,-340.52C828.31,-332.77 739.08,-320.41 661.82,-305 658.19,-304.28 654.45,-303.47 650.7,-302.61"/>
<polygon fill="#63b8ff" stroke="#63b8ff" points="651.56,-299.22 641.02,-300.29 649.93,-306.02 651.56,-299.22"/>
</g>
<!-- Node46 -->
<g id="node46" class="node">
<title>Node46</title>
<g id="a_node46"><a xlink:href="SharedPointer_8hpp.html" target="_top" xlink:title=" ">
<polygon fill="white" stroke="#666666" points="1095.82,-239 971.82,-239 971.82,-220 1095.82,-220 1095.82,-239"/>
<text text-anchor="middle" x="1033.82" y="-227" font-family="Helvetica,sans-Serif" font-size="10.00">util/SharedPointer.hpp</text>
</a>
</g>
</g>
<!-- Node1&#45;&gt;Node46 -->
<g id="edge81" class="edge">
<title>Node1&#45;&gt;Node46</title>
<path fill="none" stroke="#63b8ff" d="M972.78,-340.56C983.53,-321.16 1009.18,-274.91 1023.57,-248.97"/>
<polygon fill="#63b8ff" stroke="#63b8ff" points="1026.45,-250.99 1028.24,-240.55 1020.33,-247.6 1026.45,-250.99"/>
</g>
<!-- Node48 -->
<g id="node48" class="node">
<title>Node48</title>
<g id="a_node48"><a xlink:href="Integrals_8hpp.html" target="_top" xlink:title=" ">
<polygon fill="white" stroke="#666666" points="939.32,-299.5 840.32,-299.5 840.32,-280.5 939.32,-280.5 939.32,-299.5"/>
<text text-anchor="middle" x="889.82" y="-287.5" font-family="Helvetica,sans-Serif" font-size="10.00">util/Integrals.hpp</text>
</a>
</g>
</g>
<!-- Node1&#45;&gt;Node48 -->
<g id="edge82" class="edge">
<title>Node1&#45;&gt;Node48</title>
<path fill="none" stroke="#63b8ff" d="M955.97,-340.62C944.06,-331.68 925.44,-317.72 910.98,-306.87"/>
<polygon fill="#63b8ff" stroke="#63b8ff" points="913.09,-304.08 902.99,-300.88 908.89,-309.68 913.09,-304.08"/>
</g>
<!-- Node3 -->
<g id="node3" class="node">
<title>Node3</title>
<g id="a_node3"><a xlink:href="Algorithm_8hpp.html" target="_top" xlink:title=" ">
<polygon fill="white" stroke="#666666" points="817.32,-239 676.32,-239 676.32,-220 817.32,-220 817.32,-239"/>
<text text-anchor="middle" x="746.82" y="-227" font-family="Helvetica,sans-Serif" font-size="10.00">algorithms/Algorithm.hpp</text>
</a>
</g>
</g>
<!-- Node2&#45;&gt;Node3 -->
<g id="edge2" class="edge">
<title>Node2&#45;&gt;Node3</title>
<path fill="none" stroke="#63b8ff" d="M746.82,-274.54C746.82,-267.34 746.82,-258.53 746.82,-250.68"/>
<polygon fill="#63b8ff" stroke="#63b8ff" points="750.32,-250.69 746.82,-240.69 743.32,-250.69 750.32,-250.69"/>
</g>
<!-- Node4 -->
<g id="node4" class="node">
<title>Node4</title>
<g id="a_node4"><a xlink:href="Data_8hpp.html" target="_top" xlink:title=" ">
<polygon fill="white" stroke="#666666" points="426.32,-184 365.32,-184 365.32,-165 426.32,-165 426.32,-184"/>
<text text-anchor="middle" x="395.82" y="-172" font-family="Helvetica,sans-Serif" font-size="10.00">Data.hpp</text>
</a>
</g>
</g>
<!-- Node3&#45;&gt;Node4 -->
<g id="edge3" class="edge">
<title>Node3&#45;&gt;Node4</title>
<path fill="none" stroke="#63b8ff" d="M687.27,-219.51C616.35,-208.8 499.69,-191.18 437.65,-181.82"/>
<polygon fill="#63b8ff" stroke="#63b8ff" points="438.27,-178.37 427.86,-180.34 437.23,-185.29 438.27,-178.37"/>
</g>
<!-- Node11 -->
<g id="node11" class="node">
<title>Node11</title>
<g id="a_node11"><a xlink:title=" ">
<polygon fill="#e0e0e0" stroke="#999999" points="1248.82,-19 1192.82,-19 1192.82,0 1248.82,0 1248.82,-19"/>
<text text-anchor="middle" x="1220.82" y="-7" font-family="Helvetica,sans-Serif" font-size="10.00">sstream</text>
</a>
</g>
</g>
<!-- Node3&#45;&gt;Node11 -->
<g id="edge33" class="edge">
<title>Node3&#45;&gt;Node11</title>
<path fill="none" stroke="#63b8ff" d="M752.24,-219.81C766.42,-197.86 806.86,-139.79 855.82,-110 911.29,-76.24 1098.83,-35.27 1181.32,-18.37"/>
<polygon fill="#63b8ff" stroke="#63b8ff" points="1181.89,-21.83 1190.99,-16.4 1180.49,-14.97 1181.89,-21.83"/>
</g>
<!-- Node3&#45;&gt;Node13 -->
<g id="edge31" class="edge">
<title>Node3&#45;&gt;Node13</title>
<path fill="none" stroke="#63b8ff" d="M675.84,-220.83C564.03,-208.69 359.13,-186.19 355.82,-184 323.87,-162.82 318.45,-113.88 318.12,-85.97"/>
<polygon fill="#63b8ff" stroke="#63b8ff" points="321.62,-86.04 318.25,-76 314.62,-85.96 321.62,-86.04"/>
</g>
<!-- Node3&#45;&gt;Node21 -->
<g id="edge32" class="edge">
<title>Node3&#45;&gt;Node21</title>
<path fill="none" stroke="#63b8ff" d="M746.82,-219.66C746.82,-202.57 746.82,-164.61 746.82,-140.92"/>
<polygon fill="#63b8ff" stroke="#63b8ff" points="750.32,-140.97 746.82,-130.97 743.32,-140.97 750.32,-140.97"/>
</g>
<!-- Node3&#45;&gt;Node22 -->
<g id="edge34" class="edge">
<title>Node3&#45;&gt;Node22</title>
<path fill="none" stroke="#63b8ff" d="M735.2,-219.66C711.17,-201.39 655.74,-159.23 625.47,-136.21"/>
<polygon fill="#63b8ff" stroke="#63b8ff" points="627.88,-133.64 617.8,-130.38 623.64,-139.22 627.88,-133.64"/>
</g>
<!-- Node4&#45;&gt;Node5 -->
<g id="edge4" class="edge">
<title>Node4&#45;&gt;Node5</title>
<path fill="none" stroke="#63b8ff" d="M414.48,-164.51C431.65,-156.24 457.37,-143.84 477.15,-134.31"/>
<polygon fill="#63b8ff" stroke="#63b8ff" points="478.58,-137.51 486.07,-130.01 475.54,-131.2 478.58,-137.51"/>
</g>
<!-- Node4&#45;&gt;Node13 -->
<g id="edge21" class="edge">
<title>Node4&#45;&gt;Node13</title>
<path fill="none" stroke="#63b8ff" d="M378.98,-164.52C365.96,-156.75 348.41,-144.36 337.82,-129 328.91,-116.08 324.1,-98.9 321.55,-85.67"/>
<polygon fill="#63b8ff" stroke="#63b8ff" points="325.03,-85.27 319.98,-75.95 318.12,-86.38 325.03,-85.27"/>
</g>
<!-- Node17 -->
<g id="node17" class="node">
<title>Node17</title>
<g id="a_node17"><a xlink:href="Float_8hpp.html" target="_top" xlink:title=" ">
<polygon fill="white" stroke="#666666" points="217.32,-74 126.32,-74 126.32,-55 217.32,-55 217.32,-74"/>
<text text-anchor="middle" x="171.82" y="-62" font-family="Helvetica,sans-Serif" font-size="10.00">math/Float.hpp</text>
</a>
</g>
</g>
<!-- Node4&#45;&gt;Node17 -->
<g id="edge16" class="edge">
<title>Node4&#45;&gt;Node17</title>
<path fill="none" stroke="#63b8ff" d="M377.49,-164.66C338.6,-145.91 247.58,-102.03 200.76,-79.45"/>
<polygon fill="#63b8ff" stroke="#63b8ff" points="202.29,-76.31 191.76,-75.12 199.25,-82.61 202.29,-76.31"/>
</g>
<!-- Node18 -->
<g id="node18" class="node">
<title>Node18</title>
<g id="a_node18"><a xlink:href="Complex_8hpp.html" target="_top" xlink:title=" ">
<polygon fill="white" stroke="#666666" points="138.82,-129 28.82,-129 28.82,-110 138.82,-110 138.82,-129"/>
<text text-anchor="middle" x="83.82" y="-117" font-family="Helvetica,sans-Serif" font-size="10.00">math/Complex.hpp</text>
</a>
</g>
</g>
<!-- Node4&#45;&gt;Node18 -->
<g id="edge18" class="edge">
<title>Node4&#45;&gt;Node18</title>
<path fill="none" stroke="#63b8ff" d="M365.05,-168.27C314.76,-159.73 213.95,-142.61 147.7,-131.35"/>
<polygon fill="#63b8ff" stroke="#63b8ff" points="148.5,-127.94 138.05,-129.71 147.32,-134.84 148.5,-127.94"/>
</g>
<!-- Node4&#45;&gt;Node20 -->
<g id="edge22" class="edge">
<title>Node4&#45;&gt;Node20</title>
<path fill="none" stroke="#63b8ff" d="M426.79,-167.56C431.48,-166.68 436.28,-165.81 440.82,-165 533.18,-148.58 560.03,-150.55 655.52,-129.02"/>
<polygon fill="#63b8ff" stroke="#63b8ff" points="656.11,-132.47 665.08,-126.83 654.55,-125.65 656.11,-132.47"/>
</g>
<!-- Node4&#45;&gt;Node21 -->
<g id="edge23" class="edge">
<title>Node4&#45;&gt;Node21</title>
<path fill="none" stroke="#63b8ff" d="M426.71,-170.35C481.92,-164.47 601.35,-150.62 712.07,-129.12"/>
<polygon fill="#63b8ff" stroke="#63b8ff" points="712.48,-132.61 721.61,-127.24 711.12,-125.74 712.48,-132.61"/>
</g>
<!-- Node4&#45;&gt;Node22 -->
<g id="edge24" class="edge">
<title>Node4&#45;&gt;Node22</title>
<path fill="none" stroke="#63b8ff" d="M426.65,-165.68C461.45,-156.86 518.43,-142.41 558.56,-132.23"/>
<polygon fill="#63b8ff" stroke="#63b8ff" points="559.36,-135.64 568.19,-129.79 557.64,-128.85 559.36,-135.64"/>
</g>
<!-- Node25 -->
<g id="node25" class="node">
<title>Node25</title>
<g id="a_node25"><a xlink:href="Exception_8hpp.html" target="_top" xlink:title=" ">
<polygon fill="white" stroke="#666666" points="450.82,-129 346.82,-129 346.82,-110 450.82,-110 450.82,-129"/>
<text text-anchor="middle" x="398.82" y="-117" font-family="Helvetica,sans-Serif" font-size="10.00">util/Exception.hpp</text>
</a>
</g>
</g>
<!-- Node4&#45;&gt;Node25 -->
<g id="edge27" class="edge">
<title>Node4&#45;&gt;Node25</title>
<path fill="none" stroke="#63b8ff" d="M396.31,-164.75C396.68,-158.27 397.19,-149.16 397.66,-140.9"/>
<polygon fill="#63b8ff" stroke="#63b8ff" points="401.15,-141.13 398.22,-130.95 394.16,-140.74 401.15,-141.13"/>
</g>
<!-- Node6 -->
<g id="node6" class="node">
<title>Node6</title>
<g id="a_node6"><a xlink:href="Time_8hpp.html" target="_top" xlink:title=" ">
<polygon fill="white" stroke="#666666" points="1419.32,-74 1338.32,-74 1338.32,-55 1419.32,-55 1419.32,-74"/>
<text text-anchor="middle" x="1378.82" y="-62" font-family="Helvetica,sans-Serif" font-size="10.00">util/Time.hpp</text>
</a>
</g>
</g>
<!-- Node5&#45;&gt;Node6 -->
<g id="edge5" class="edge">
<title>Node5&#45;&gt;Node6</title>
<path fill="none" stroke="#63b8ff" d="M543.16,-111.16C546.08,-110.72 548.99,-110.32 551.82,-110 892,-70.88 983.76,-110.78 1326.7,-74.2"/>
<polygon fill="#63b8ff" stroke="#63b8ff" points="1326.89,-77.7 1336.46,-73.14 1326.14,-70.74 1326.89,-77.7"/>
</g>
<!-- Node5&#45;&gt;Node13 -->
<g id="edge12" class="edge">
<title>Node5&#45;&gt;Node13</title>
<path fill="none" stroke="#63b8ff" d="M474.09,-109.51C440.2,-99.9 386.71,-84.74 352.2,-74.96"/>
<polygon fill="#63b8ff" stroke="#63b8ff" points="353.31,-71.64 342.73,-72.28 351.4,-78.37 353.31,-71.64"/>
</g>
<!-- Node5&#45;&gt;Node14 -->
<g id="edge13" class="edge">
<title>Node5&#45;&gt;Node14</title>
<path fill="none" stroke="#63b8ff" d="M543.2,-111.24C594.09,-101.36 684.83,-83.75 737.62,-73.5"/>
<polygon fill="#63b8ff" stroke="#63b8ff" points="737.96,-77 747.11,-71.66 736.63,-70.13 737.96,-77"/>
</g>
<!-- Node15 -->
<g id="node15" class="node">
<title>Node15</title>
<g id="a_node15"><a xlink:title=" ">
<polygon fill="#e0e0e0" stroke="#999999" points="539.32,-74 472.32,-74 472.32,-55 539.32,-55 539.32,-74"/>
<text text-anchor="middle" x="505.82" y="-62" font-family="Helvetica,sans-Serif" font-size="10.00">streambuf</text>
</a>
</g>
</g>
<!-- Node5&#45;&gt;Node15 -->
<g id="edge14" class="edge">
<title>Node5&#45;&gt;Node15</title>
<path fill="none" stroke="#63b8ff" d="M505.82,-109.75C505.82,-103.27 505.82,-94.16 505.82,-85.9"/>
<polygon fill="#63b8ff" stroke="#63b8ff" points="509.32,-85.96 505.82,-75.96 502.32,-85.96 509.32,-85.96"/>
</g>
<!-- Node16 -->
<g id="node16" class="node">
<title>Node16</title>
<g id="a_node16"><a xlink:title=" ">
<polygon fill="#e0e0e0" stroke="#999999" points="1320.32,-74 1265.32,-74 1265.32,-55 1320.32,-55 1320.32,-74"/>
<text text-anchor="middle" x="1292.82" y="-62" font-family="Helvetica,sans-Serif" font-size="10.00">fstream</text>
</a>
</g>
</g>
<!-- Node5&#45;&gt;Node16 -->
<g id="edge15" class="edge">
<title>Node5&#45;&gt;Node16</title>
<path fill="none" stroke="#63b8ff" d="M543.16,-111.2C546.08,-110.75 548.99,-110.34 551.82,-110 819.05,-77.41 1143.54,-68.38 1253.92,-66.16"/>
<polygon fill="#63b8ff" stroke="#63b8ff" points="1253.67,-69.66 1263.6,-65.97 1253.54,-62.66 1253.67,-69.66"/>
</g>
<!-- Node7 -->
<g id="node7" class="node">
<title>Node7</title>
<g id="a_node7"><a xlink:title=" ">
<polygon fill="#e0e0e0" stroke="#999999" points="1400.82,-19 1356.82,-19 1356.82,0 1400.82,0 1400.82,-19"/>
<text text-anchor="middle" x="1378.82" y="-7" font-family="Helvetica,sans-Serif" font-size="10.00">ctime</text>
</a>
</g>
</g>
<!-- Node6&#45;&gt;Node7 -->
<g id="edge6" class="edge">
<title>Node6&#45;&gt;Node7</title>
<path fill="none" stroke="#63b8ff" d="M1378.82,-54.75C1378.82,-48.27 1378.82,-39.16 1378.82,-30.9"/>
<polygon fill="#63b8ff" stroke="#63b8ff" points="1382.32,-30.96 1378.82,-20.96 1375.32,-30.96 1382.32,-30.96"/>
</g>
<!-- Node8 -->
<g id="node8" class="node">
<title>Node8</title>
<g id="a_node8"><a xlink:title=" ">
<polygon fill="#e0e0e0" stroke="#999999" points="1881.82,-19 1831.82,-19 1831.82,0 1881.82,0 1881.82,-19"/>
<text text-anchor="middle" x="1856.82" y="-7" font-family="Helvetica,sans-Serif" font-size="10.00">cstdint</text>
</a>
</g>
</g>
<!-- Node6&#45;&gt;Node8 -->
<g id="edge7" class="edge">
<title>Node6&#45;&gt;Node8</title>
<path fill="none" stroke="#63b8ff" d="M1419.57,-58.98C1511.31,-48.81 1732.82,-24.25 1820.35,-14.54"/>
<polygon fill="#63b8ff" stroke="#63b8ff" points="1820.49,-18.05 1830.04,-13.47 1819.71,-11.09 1820.49,-18.05"/>
</g>
<!-- Node9 -->
<g id="node9" class="node">
<title>Node9</title>
<g id="a_node9"><a xlink:title=" ">
<polygon fill="#e0e0e0" stroke="#999999" points="1142.32,-19 1085.32,-19 1085.32,0 1142.32,0 1142.32,-19"/>
<text text-anchor="middle" x="1113.82" y="-7" font-family="Helvetica,sans-Serif" font-size="10.00">ostream</text>
</a>
</g>
</g>
<!-- Node6&#45;&gt;Node9 -->
<g id="edge8" class="edge">
<title>Node6&#45;&gt;Node9</title>
<path fill="none" stroke="#63b8ff" d="M1337.99,-55.33C1287.86,-45.31 1203.38,-28.41 1153.68,-18.47"/>
<polygon fill="#63b8ff" stroke="#63b8ff" points="1154.41,-15.05 1143.92,-16.52 1153.04,-21.91 1154.41,-15.05"/>
</g>
<!-- Node10 -->
<g id="node10" class="node">
<title>Node10</title>
<g id="a_node10"><a xlink:title=" ">
<polygon fill="#e0e0e0" stroke="#999999" points="1663.82,-19 1607.82,-19 1607.82,0 1663.82,0 1663.82,-19"/>
<text text-anchor="middle" x="1635.82" y="-7" font-family="Helvetica,sans-Serif" font-size="10.00">iomanip</text>
</a>
</g>
</g>
<!-- Node6&#45;&gt;Node10 -->
<g id="edge9" class="edge">
<title>Node6&#45;&gt;Node10</title>
<path fill="none" stroke="#63b8ff" d="M1419.54,-55.1C1468.05,-45.1 1548.53,-28.5 1596.44,-18.62"/>
<polygon fill="#63b8ff" stroke="#63b8ff" points="1597.02,-22.07 1606.11,-16.63 1595.61,-15.22 1597.02,-22.07"/>
</g>
<!-- Node6&#45;&gt;Node11 -->
<g id="edge10" class="edge">
<title>Node6&#45;&gt;Node11</title>
<path fill="none" stroke="#63b8ff" d="M1352.01,-54.51C1326.29,-45.88 1287.19,-32.76 1258.37,-23.1"/>
<polygon fill="#63b8ff" stroke="#63b8ff" points="1259.52,-19.79 1248.92,-19.93 1257.29,-26.43 1259.52,-19.79"/>
</g>
<!-- Node12 -->
<g id="node12" class="node">
<title>Node12</title>
<g id="a_node12"><a xlink:title=" ">
<polygon fill="#e0e0e0" stroke="#999999" points="1050.32,-19 1003.32,-19 1003.32,0 1050.32,0 1050.32,-19"/>
<text text-anchor="middle" x="1026.82" y="-7" font-family="Helvetica,sans-Serif" font-size="10.00">cmath</text>
</a>
</g>
</g>
<!-- Node6&#45;&gt;Node12 -->
<g id="edge11" class="edge">
<title>Node6&#45;&gt;Node12</title>
<path fill="none" stroke="#63b8ff" d="M1337.92,-56.31C1335.18,-55.86 1332.46,-55.42 1329.82,-55 1217.63,-37.29 1189.03,-36.52 1076.82,-19 1072.02,-18.25 1066.97,-17.43 1062,-16.6"/>
<polygon fill="#63b8ff" stroke="#63b8ff" points="1062.64,-13.16 1052.19,-14.95 1061.47,-20.06 1062.64,-13.16"/>
</g>
<!-- Node17&#45;&gt;Node9 -->
<g id="edge17" class="edge">
<title>Node17&#45;&gt;Node9</title>
<path fill="none" stroke="#63b8ff" d="M217.8,-59.85C239.1,-58.23 264.74,-56.38 287.82,-55 630.68,-34.45 718.1,-53.76 1059.82,-19 1064.31,-18.54 1069,-17.96 1073.65,-17.32"/>
<polygon fill="#63b8ff" stroke="#63b8ff" points="1074.15,-20.78 1083.53,-15.85 1073.12,-13.86 1074.15,-20.78"/>
</g>
<!-- Node18&#45;&gt;Node17 -->
<g id="edge19" class="edge">
<title>Node18&#45;&gt;Node17</title>
<path fill="none" stroke="#63b8ff" d="M98.74,-109.51C112.1,-101.47 131.92,-89.53 147.55,-80.11"/>
<polygon fill="#63b8ff" stroke="#63b8ff" points="149.05,-83.3 155.81,-75.14 145.44,-77.3 149.05,-83.3"/>
</g>
<!-- Node19 -->
<g id="node19" class="node">
<title>Node19</title>
<g id="a_node19"><a xlink:title=" ">
<polygon fill="#e0e0e0" stroke="#999999" points="108.32,-74 49.32,-74 49.32,-55 108.32,-55 108.32,-74"/>
<text text-anchor="middle" x="78.82" y="-62" font-family="Helvetica,sans-Serif" font-size="10.00">complex</text>
</a>
</g>
</g>
<!-- Node18&#45;&gt;Node19 -->
<g id="edge20" class="edge">
<title>Node18&#45;&gt;Node19</title>
<path fill="none" stroke="#63b8ff" d="M82.99,-109.75C82.38,-103.27 81.52,-94.16 80.74,-85.9"/>
<polygon fill="#63b8ff" stroke="#63b8ff" points="84.23,-85.58 79.8,-75.95 77.26,-86.23 84.23,-85.58"/>
</g>
<!-- Node23 -->
<g id="node23" class="node">
<title>Node23</title>
<g id="a_node23"><a xlink:href="CTF_8hpp.html" target="_top" xlink:title=" ">
<polygon fill="white" stroke="#666666" points="2111.82,-74 2037.82,-74 2037.82,-55 2111.82,-55 2111.82,-74"/>
<text text-anchor="middle" x="2074.82" y="-62" font-family="Helvetica,sans-Serif" font-size="10.00">util/CTF.hpp</text>
</a>
</g>
</g>
<!-- Node22&#45;&gt;Node23 -->
<g id="edge25" class="edge">
<title>Node22&#45;&gt;Node23</title>
<path fill="none" stroke="#63b8ff" d="M648.72,-111.02C651.79,-110.63 654.85,-110.28 657.82,-110 931.94,-83.82 1809.41,-69.41 2026.09,-66.19"/>
<polygon fill="#63b8ff" stroke="#63b8ff" points="2025.91,-69.7 2035.86,-66.05 2025.81,-62.7 2025.91,-69.7"/>
</g>
<!-- Node24 -->
<g id="node24" class="node">
<title>Node24</title>
<g id="a_node24"><a xlink:title=" ">
<polygon fill="#e0e0e0" stroke="#999999" points="2099.82,-19 2049.82,-19 2049.82,0 2099.82,0 2099.82,-19"/>
<text text-anchor="middle" x="2074.82" y="-7" font-family="Helvetica,sans-Serif" font-size="10.00">ctf.hpp</text>
</a>
</g>
</g>
<!-- Node23&#45;&gt;Node24 -->
<g id="edge26" class="edge">
<title>Node23&#45;&gt;Node24</title>
<path fill="none" stroke="#63b8ff" d="M2074.82,-54.75C2074.82,-48.27 2074.82,-39.16 2074.82,-30.9"/>
<polygon fill="#63b8ff" stroke="#63b8ff" points="2078.32,-30.96 2074.82,-20.96 2071.32,-30.96 2078.32,-30.96"/>
</g>
<!-- Node25&#45;&gt;Node11 -->
<g id="edge29" class="edge">
<title>Node25&#45;&gt;Node11</title>
<path fill="none" stroke="#63b8ff" d="M404.27,-109.96C414.01,-95.58 435.91,-66.91 462.82,-55 532.91,-23.96 1075.45,-25.69 1151.82,-19 1161.3,-18.17 1171.5,-17.04 1181.06,-15.88"/>
<polygon fill="#63b8ff" stroke="#63b8ff" points="1181.34,-19.37 1190.83,-14.66 1180.47,-12.43 1181.34,-19.37"/>
</g>
<!-- Node25&#45;&gt;Node13 -->
<g id="edge28" class="edge">
<title>Node25&#45;&gt;Node13</title>
<path fill="none" stroke="#63b8ff" d="M385.25,-109.51C373.34,-101.62 355.77,-89.98 341.69,-80.65"/>
<polygon fill="#63b8ff" stroke="#63b8ff" points="343.72,-77.8 333.45,-75.19 339.85,-83.63 343.72,-77.8"/>
</g>
<!-- Node25&#45;&gt;Node14 -->
<g id="edge30" class="edge">
<title>Node25&#45;&gt;Node14</title>
<path fill="none" stroke="#63b8ff" d="M451.25,-111.19C527.47,-100.56 667.34,-81.05 737.04,-71.33"/>
<polygon fill="#63b8ff" stroke="#63b8ff" points="737.49,-74.8 746.91,-69.95 736.52,-67.87 737.49,-74.8"/>
</g>
<!-- Node26&#45;&gt;Node5 -->
<g id="edge42" class="edge">
<title>Node26&#45;&gt;Node5</title>
<path fill="none" stroke="#63b8ff" d="M214.55,-164.6C275.7,-156.5 367.85,-143.81 457.48,-129.32"/>
<polygon fill="#63b8ff" stroke="#63b8ff" points="457.88,-132.8 467.19,-127.74 456.76,-125.89 457.88,-132.8"/>
</g>
<!-- Node26&#45;&gt;Node12 -->
<g id="edge39" class="edge">
<title>Node26&#45;&gt;Node12</title>
<path fill="none" stroke="#63b8ff" d="M77.07,-165.07C55.15,-158.76 33.15,-147.85 19.82,-129 4.92,-107.94 23.48,-67 39.82,-55 78.92,-26.27 820.28,-13.56 991.67,-11"/>
<polygon fill="#63b8ff" stroke="#63b8ff" points="991.54,-14.5 1001.49,-10.85 991.44,-7.5 991.54,-14.5"/>
</g>
<!-- Node26&#45;&gt;Node13 -->
<g id="edge40" class="edge">
<title>Node26&#45;&gt;Node13</title>
<path fill="none" stroke="#63b8ff" d="M156.08,-164.59C171.31,-151.63 201.08,-127.24 228.82,-110 247.57,-98.34 269.81,-87.32 287.49,-79.17"/>
<polygon fill="#63b8ff" stroke="#63b8ff" points="288.79,-82.42 296.45,-75.1 285.9,-76.04 288.79,-82.42"/>
</g>
<!-- Node26&#45;&gt;Node18 -->
<g id="edge38" class="edge">
<title>Node26&#45;&gt;Node18</title>
<path fill="none" stroke="#63b8ff" d="M135.3,-164.51C126.43,-156.93 113.51,-145.88 102.83,-136.75"/>
<polygon fill="#63b8ff" stroke="#63b8ff" points="105.2,-134.18 95.33,-130.34 100.66,-139.5 105.2,-134.18"/>
</g>
<!-- Node26&#45;&gt;Node22 -->
<g id="edge41" class="edge">
<title>Node26&#45;&gt;Node22</title>
<path fill="none" stroke="#63b8ff" d="M214.55,-167.02C293.02,-159.39 425.54,-145.78 549.67,-129.23"/>
<polygon fill="#63b8ff" stroke="#63b8ff" points="549.94,-132.72 559.38,-127.92 549,-125.78 549.94,-132.72"/>
</g>
<!-- Node28&#45;&gt;Node6 -->
<g id="edge46" class="edge">
<title>Node28&#45;&gt;Node6</title>
<path fill="none" stroke="#63b8ff" d="M2314.71,-280.05C2317.14,-250.2 2320.44,-153.55 2266.82,-110 2234.24,-83.55 1616.25,-69.93 1430.92,-66.42"/>
<polygon fill="#63b8ff" stroke="#63b8ff" points="1431.18,-62.93 1421.11,-66.24 1431.05,-69.93 1431.18,-62.93"/>
</g>
<!-- Node28&#45;&gt;Node23 -->
<g id="edge47" class="edge">
<title>Node28&#45;&gt;Node23</title>
<path fill="none" stroke="#63b8ff" d="M2316.69,-280.19C2325.43,-251.58 2348.47,-160.28 2304.82,-110 2281.58,-83.24 2183.4,-72.29 2123.07,-68.03"/>
<polygon fill="#63b8ff" stroke="#63b8ff" points="2123.63,-64.56 2113.42,-67.39 2123.17,-71.54 2123.63,-64.56"/>
</g>
<!-- Node29 -->
<g id="node29" class="node">
<title>Node29</title>
<g id="a_node29"><a xlink:href="Options_8hpp.html" target="_top" xlink:title=" ">
<polygon fill="white" stroke="#666666" points="1499.32,-239 1424.32,-239 1424.32,-220 1499.32,-220 1499.32,-239"/>
<text text-anchor="middle" x="1461.82" y="-227" font-family="Helvetica,sans-Serif" font-size="10.00">Options.hpp</text>
</a>
</g>
</g>
<!-- Node28&#45;&gt;Node29 -->
<g id="edge48" class="edge">
<title>Node28&#45;&gt;Node29</title>
<path fill="none" stroke="#63b8ff" d="M2280.42,-286.71C2148.95,-277.68 1666.74,-244.57 1510.81,-233.86"/>
<polygon fill="#63b8ff" stroke="#63b8ff" points="1511.45,-230.4 1501.24,-233.21 1510.98,-237.38 1511.45,-230.4"/>
</g>
<!-- Node29&#45;&gt;Node13 -->
<g id="edge49" class="edge">
<title>Node29&#45;&gt;Node13</title>
<path fill="none" stroke="#63b8ff" d="M1424.04,-223.36C1328.46,-210.12 1069.4,-172.81 855.82,-129 821.29,-121.92 813.56,-115.93 778.82,-110 620.41,-82.94 428.31,-70.98 352.19,-67.06"/>
<polygon fill="#63b8ff" stroke="#63b8ff" points="352.67,-63.58 342.5,-66.58 352.31,-70.57 352.67,-63.58"/>
</g>
<!-- Node30 -->
<g id="node30" class="node">
<title>Node30</title>
<g id="a_node30"><a xlink:href="CLI11_8hpp.html" target="_top" xlink:title=" ">
<polygon fill="white" stroke="#666666" points="1511.32,-184 1412.32,-184 1412.32,-165 1511.32,-165 1511.32,-184"/>
<text text-anchor="middle" x="1461.82" y="-172" font-family="Helvetica,sans-Serif" font-size="10.00">extern/CLI11.hpp</text>
</a>
</g>
</g>
<!-- Node29&#45;&gt;Node30 -->
<g id="edge50" class="edge">
<title>Node29&#45;&gt;Node30</title>
<path fill="none" stroke="#63b8ff" d="M1461.82,-219.75C1461.82,-213.27 1461.82,-204.16 1461.82,-195.9"/>
<polygon fill="#63b8ff" stroke="#63b8ff" points="1465.32,-195.96 1461.82,-185.96 1458.32,-195.96 1465.32,-195.96"/>
</g>
<!-- Node30&#45;&gt;Node8 -->
<g id="edge64" class="edge">
<title>Node30&#45;&gt;Node8</title>
<path fill="none" stroke="#63b8ff" d="M1511.6,-171.11C1640.05,-164.72 1973.75,-146.48 1989.82,-129 2028.13,-87.32 1943.63,-44.65 1892.38,-23.72"/>
<polygon fill="#63b8ff" stroke="#63b8ff" points="1893.69,-20.48 1883.1,-20.04 1891.1,-26.98 1893.69,-20.48"/>
</g>
<!-- Node30&#45;&gt;Node10 -->
<g id="edge60" class="edge">
<title>Node30&#45;&gt;Node10</title>
<path fill="none" stroke="#63b8ff" d="M1511.5,-174.21C1592.9,-174.2 1749.11,-168.84 1783.82,-129 1823.35,-83.63 1730.95,-42.63 1674.88,-22.89"/>
<polygon fill="#63b8ff" stroke="#63b8ff" points="1676.23,-19.66 1665.64,-19.73 1673.96,-26.28 1676.23,-19.66"/>
</g>
<!-- Node30&#45;&gt;Node11 -->
<g id="edge62" class="edge">
<title>Node30&#45;&gt;Node11</title>
<path fill="none" stroke="#63b8ff" d="M1411.86,-168.46C1358.64,-162.12 1279.04,-149.49 1256.82,-129 1228.97,-103.32 1222.4,-56.87 1221.01,-30.39"/>
<polygon fill="#63b8ff" stroke="#63b8ff" points="1224.52,-30.58 1220.72,-20.69 1217.52,-30.79 1224.52,-30.58"/>
</g>
<!-- Node30&#45;&gt;Node12 -->
<g id="edge53" class="edge">
<title>Node30&#45;&gt;Node12</title>
<path fill="none" stroke="#63b8ff" d="M1411.84,-171.51C1307.08,-166.87 1071.93,-153.78 1045.82,-129 1019.19,-103.73 1020.21,-57.12 1023.44,-30.51"/>
<polygon fill="#63b8ff" stroke="#63b8ff" points="1026.89,-31.13 1024.87,-20.73 1019.96,-30.12 1026.89,-31.13"/>
</g>
<!-- Node30&#45;&gt;Node13 -->
<g id="edge52" class="edge">
<title>Node30&#45;&gt;Node13</title>
<path fill="none" stroke="#63b8ff" d="M1411.92,-171.76C1303.02,-167.51 1047.22,-155.02 964.82,-129 948.68,-123.9 948,-114.96 931.82,-110 903.96,-101.46 477.19,-75.09 352.67,-67.54"/>
<polygon fill="#63b8ff" stroke="#63b8ff" points="352.97,-64.05 342.78,-66.94 352.55,-71.04 352.97,-64.05"/>
</g>
<!-- Node30&#45;&gt;Node14 -->
<g id="edge65" class="edge">
<title>Node30&#45;&gt;Node14</title>
<path fill="none" stroke="#63b8ff" d="M1411.9,-173.05C1328.21,-171.31 1154.79,-163.42 1012.82,-129 990.52,-123.59 986.7,-116.91 964.82,-110 915.89,-94.55 858.27,-81.54 820.27,-73.65"/>
<polygon fill="#63b8ff" stroke="#63b8ff" points="821.12,-70.25 810.62,-71.67 819.71,-77.11 821.12,-70.25"/>
</g>
<!-- Node30&#45;&gt;Node16 -->
<g id="edge57" class="edge">
<title>Node30&#45;&gt;Node16</title>
<path fill="none" stroke="#63b8ff" d="M1511.56,-173.8C1589.6,-173.09 1735.28,-166.61 1767.82,-129 1773.34,-122.61 1773.54,-116.21 1767.82,-110 1736.44,-75.94 1414.12,-80.84 1331.85,-73.63"/>
<polygon fill="#63b8ff" stroke="#63b8ff" points="1332.45,-70.18 1322.12,-72.51 1331.65,-77.13 1332.45,-70.18"/>
</g>
<!-- Node30&#45;&gt;Node20 -->
<g id="edge56" class="edge">
<title>Node30&#45;&gt;Node20</title>
<path fill="none" stroke="#63b8ff" d="M1411.84,-172.06C1270.5,-167.75 868.78,-153.81 716.23,-128.93"/>
<polygon fill="#63b8ff" stroke="#63b8ff" points="717.2,-125.54 706.75,-127.3 716.01,-132.44 717.2,-125.54"/>
</g>
<!-- Node30&#45;&gt;Node21 -->
<g id="edge70" class="edge">
<title>Node30&#45;&gt;Node21</title>
<path fill="none" stroke="#63b8ff" d="M1411.93,-169.91C1308.31,-162.45 1062.25,-144.63 855.82,-129 831.18,-127.13 803.41,-124.97 782.07,-123.29"/>
<polygon fill="#63b8ff" stroke="#63b8ff" points="782.38,-119.8 772.14,-122.51 781.83,-126.78 782.38,-119.8"/>
</g>
<!-- Node30&#45;&gt;Node27 -->
<g id="edge63" class="edge">
<title>Node30&#45;&gt;Node27</title>
<path fill="none" stroke="#63b8ff" d="M1511.53,-171.29C1609.62,-166.54 1834.9,-153.75 2022.82,-129 2023.66,-128.89 2024.52,-128.77 2025.37,-128.65"/>
<polygon fill="#63b8ff" stroke="#63b8ff" points="2025.88,-132.11 2035.22,-127.11 2024.8,-125.2 2025.88,-132.11"/>
</g>
<!-- Node31 -->
<g id="node31" class="node">
<title>Node31</title>
<g id="a_node31"><a xlink:title=" ">
<polygon fill="#e0e0e0" stroke="#999999" points="922.82,-129 864.82,-129 864.82,-110 922.82,-110 922.82,-129"/>
<text text-anchor="middle" x="893.82" y="-117" font-family="Helvetica,sans-Serif" font-size="10.00">memory</text>
</a>
</g>
</g>
<!-- Node30&#45;&gt;Node31 -->
<g id="edge51" class="edge">
<title>Node30&#45;&gt;Node31</title>
<path fill="none" stroke="#63b8ff" d="M1412.03,-171.12C1318.54,-166.24 1110.5,-153.45 936.82,-129 935.83,-128.86 934.83,-128.71 933.82,-128.56"/>
<polygon fill="#63b8ff" stroke="#63b8ff" points="934.82,-125.18 924.38,-126.95 933.65,-132.08 934.82,-125.18"/>
</g>
<!-- Node32 -->
<g id="node32" class="node">
<title>Node32</title>
<g id="a_node32"><a xlink:title=" ">
<polygon fill="#e0e0e0" stroke="#999999" points="1330.32,-129 1265.32,-129 1265.32,-110 1330.32,-110 1330.32,-129"/>
<text text-anchor="middle" x="1297.82" y="-117" font-family="Helvetica,sans-Serif" font-size="10.00">functional</text>
</a>
</g>
</g>
<!-- Node30&#45;&gt;Node32 -->
<g id="edge54" class="edge">
<title>Node30&#45;&gt;Node32</title>
<path fill="none" stroke="#63b8ff" d="M1434,-164.51C1407.17,-155.84 1366.35,-142.65 1336.4,-132.97"/>
<polygon fill="#63b8ff" stroke="#63b8ff" points="1337.53,-129.66 1326.94,-129.91 1335.38,-136.32 1337.53,-129.66"/>
</g>
<!-- Node30&#45;&gt;Node33 -->
<g id="edge55" class="edge">
<title>Node30&#45;&gt;Node33</title>
<path fill="none" stroke="#63b8ff" d="M1511.69,-172.74C1619,-170.54 1879.81,-162.11 2107.46,-129.1"/>
<polygon fill="#63b8ff" stroke="#63b8ff" points="2107.74,-132.6 2117.12,-127.68 2106.72,-125.67 2107.74,-132.6"/>
</g>
<!-- Node34 -->
<g id="node34" class="node">
<title>Node34</title>
<g id="a_node34"><a xlink:title=" ">
<polygon fill="#e0e0e0" stroke="#999999" points="1389.32,-129 1348.32,-129 1348.32,-110 1389.32,-110 1389.32,-129"/>
<text text-anchor="middle" x="1368.82" y="-117" font-family="Helvetica,sans-Serif" font-size="10.00">tuple</text>
</a>
</g>
</g>
<!-- Node30&#45;&gt;Node34 -->
<g id="edge58" class="edge">
<title>Node30&#45;&gt;Node34</title>
<path fill="none" stroke="#63b8ff" d="M1446.04,-164.51C1431.79,-156.39 1410.58,-144.3 1393.99,-134.85"/>
<polygon fill="#63b8ff" stroke="#63b8ff" points="1396.1,-132.02 1385.67,-130.11 1392.63,-138.1 1396.1,-132.02"/>
</g>
<!-- Node35 -->
<g id="node35" class="node">
<title>Node35</title>
<g id="a_node35"><a xlink:title=" ">
<polygon fill="#e0e0e0" stroke="#999999" points="1452.32,-129 1407.32,-129 1407.32,-110 1452.32,-110 1452.32,-129"/>
<text text-anchor="middle" x="1429.82" y="-117" font-family="Helvetica,sans-Serif" font-size="10.00">utility</text>
</a>
</g>
</g>
<!-- Node30&#45;&gt;Node35 -->
<g id="edge59" class="edge">
<title>Node30&#45;&gt;Node35</title>
<path fill="none" stroke="#63b8ff" d="M1456.53,-164.75C1452.34,-157.81 1446.34,-147.86 1441.08,-139.16"/>
<polygon fill="#63b8ff" stroke="#63b8ff" points="1444.16,-137.49 1436,-130.74 1438.17,-141.11 1444.16,-137.49"/>
</g>
<!-- Node36 -->
<g id="node36" class="node">
<title>Node36</title>
<g id="a_node36"><a xlink:title=" ">
<polygon fill="#e0e0e0" stroke="#999999" points="1516.82,-129 1470.82,-129 1470.82,-110 1516.82,-110 1516.82,-129"/>
<text text-anchor="middle" x="1493.82" y="-117" font-family="Helvetica,sans-Serif" font-size="10.00">locale</text>
</a>
</g>
</g>
<!-- Node30&#45;&gt;Node36 -->
<g id="edge61" class="edge">
<title>Node30&#45;&gt;Node36</title>
<path fill="none" stroke="#63b8ff" d="M1467.1,-164.75C1471.29,-157.81 1477.29,-147.86 1482.55,-139.16"/>
<polygon fill="#63b8ff" stroke="#63b8ff" points="1485.46,-141.11 1487.64,-130.74 1479.47,-137.49 1485.46,-141.11"/>
</g>
<!-- Node30&#45;&gt;Node37 -->
<g id="edge66" class="edge">
<title>Node30&#45;&gt;Node37</title>
<path fill="none" stroke="#63b8ff" d="M1511.6,-172.15C1649.33,-168.17 2034.44,-155.14 2181.57,-128.8"/>
<polygon fill="#63b8ff" stroke="#63b8ff" points="2181.92,-132.3 2191.09,-127 2180.62,-125.42 2181.92,-132.3"/>
</g>
<!-- Node38 -->
<g id="node38" class="node">
<title>Node38</title>
<g id="a_node38"><a xlink:title=" ">
<polygon fill="#e0e0e0" stroke="#999999" points="1604.32,-129 1535.32,-129 1535.32,-110 1604.32,-110 1604.32,-129"/>
<text text-anchor="middle" x="1569.82" y="-117" font-family="Helvetica,sans-Serif" font-size="10.00">type_traits</text>
</a>
</g>
</g>
<!-- Node30&#45;&gt;Node38 -->
<g id="edge67" class="edge">
<title>Node30&#45;&gt;Node38</title>
<path fill="none" stroke="#63b8ff" d="M1480.14,-164.51C1497,-156.24 1522.25,-143.84 1541.67,-134.31"/>
<polygon fill="#63b8ff" stroke="#63b8ff" points="1542.97,-137.57 1550.41,-130.02 1539.89,-131.29 1542.97,-137.57"/>
</g>
<!-- Node39 -->
<g id="node39" class="node">
<title>Node39</title>
<g id="a_node39"><a xlink:title=" ">
<polygon fill="#e0e0e0" stroke="#999999" points="1675.32,-129 1622.32,-129 1622.32,-110 1675.32,-110 1675.32,-129"/>
<text text-anchor="middle" x="1648.82" y="-117" font-family="Helvetica,sans-Serif" font-size="10.00">iterator</text>
</a>
</g>
</g>
<!-- Node30&#45;&gt;Node39 -->
<g id="edge68" class="edge">
<title>Node30&#45;&gt;Node39</title>
<path fill="none" stroke="#63b8ff" d="M1493.54,-164.51C1526.02,-155.3 1576.52,-140.99 1611.05,-131.2"/>
<polygon fill="#63b8ff" stroke="#63b8ff" points="1611.97,-134.58 1620.64,-128.49 1610.07,-127.85 1611.97,-134.58"/>
</g>
<!-- Node40 -->
<g id="node40" class="node">
<title>Node40</title>
<g id="a_node40"><a xlink:title=" ">
<polygon fill="#e0e0e0" stroke="#999999" points="1758.32,-129 1693.32,-129 1693.32,-110 1758.32,-110 1758.32,-129"/>
<text text-anchor="middle" x="1725.82" y="-117" font-family="Helvetica,sans-Serif" font-size="10.00">stdexcept</text>
</a>
</g>
</g>
<!-- Node30&#45;&gt;Node40 -->
<g id="edge69" class="edge">
<title>Node30&#45;&gt;Node40</title>
<path fill="none" stroke="#63b8ff" d="M1507.11,-164.56C1549.8,-156.12 1615.88,-142.99 1682.09,-129.54"/>
<polygon fill="#63b8ff" stroke="#63b8ff" points="1682.56,-133.02 1691.66,-127.6 1681.17,-126.16 1682.56,-133.02"/>
</g>
<!-- Node41 -->
<g id="node41" class="node">
<title>Node41</title>
<g id="a_node41"><a xlink:title=" ">
<polygon fill="#e0e0e0" stroke="#999999" points="1896.82,-129 1852.82,-129 1852.82,-110 1896.82,-110 1896.82,-129"/>
<text text-anchor="middle" x="1874.82" y="-117" font-family="Helvetica,sans-Serif" font-size="10.00">limits</text>
</a>
</g>
</g>
<!-- Node30&#45;&gt;Node41 -->
<g id="edge71" class="edge">
<title>Node30&#45;&gt;Node41</title>
<path fill="none" stroke="#63b8ff" d="M1511.79,-169.44C1584.23,-163.13 1722.48,-149.53 1838.82,-129 1839.65,-128.85 1840.49,-128.7 1841.33,-128.54"/>
<polygon fill="#63b8ff" stroke="#63b8ff" points="1841.88,-132 1850.95,-126.52 1840.44,-125.15 1841.88,-132"/>
</g>
<!-- Node42 -->
<g id="node42" class="node">
<title>Node42</title>
<g id="a_node42"><a xlink:title=" ">
<polygon fill="#e0e0e0" stroke="#999999" points="1980.32,-129 1915.32,-129 1915.32,-110 1980.32,-110 1980.32,-129"/>
<text text-anchor="middle" x="1947.82" y="-117" font-family="Helvetica,sans-Serif" font-size="10.00">exception</text>
</a>
</g>
</g>
<!-- Node30&#45;&gt;Node42 -->
<g id="edge72" class="edge">
<title>Node30&#45;&gt;Node42</title>
<path fill="none" stroke="#63b8ff" d="M1511.63,-170.14C1591.96,-164.36 1755.3,-151.14 1903.74,-129.16"/>
<polygon fill="#63b8ff" stroke="#63b8ff" points="1903.99,-132.66 1913.36,-127.72 1902.95,-125.74 1903.99,-132.66"/>
</g>
<!-- Node43 -->
<g id="node43" class="node">
<title>Node43</title>
<g id="a_node43"><a xlink:title=" ">
<polygon fill="#e0e0e0" stroke="#999999" points="1118.82,-129 1054.82,-129 1054.82,-110 1118.82,-110 1118.82,-129"/>
<text text-anchor="middle" x="1086.82" y="-117" font-family="Helvetica,sans-Serif" font-size="10.00">sys/stat.h</text>
</a>
</g>
</g>
<!-- Node30&#45;&gt;Node43 -->
<g id="edge73" class="edge">
<title>Node30&#45;&gt;Node43</title>
<path fill="none" stroke="#63b8ff" d="M1411.85,-167.98C1348.64,-160.75 1236.18,-147.04 1130.23,-129.3"/>
<polygon fill="#63b8ff" stroke="#63b8ff" points="1130.94,-125.87 1120.5,-127.65 1129.77,-132.77 1130.94,-125.87"/>
</g>
<!-- Node44 -->
<g id="node44" class="node">
<title>Node44</title>
<g id="a_node44"><a xlink:title=" ">
<polygon fill="#e0e0e0" stroke="#999999" points="1208.82,-129 1136.82,-129 1136.82,-110 1208.82,-110 1208.82,-129"/>
<text text-anchor="middle" x="1172.82" y="-117" font-family="Helvetica,sans-Serif" font-size="10.00">sys/types.h</text>
</a>
</g>
</g>
<!-- Node30&#45;&gt;Node44 -->
<g id="edge74" class="edge">
<title>Node30&#45;&gt;Node44</title>
<path fill="none" stroke="#63b8ff" d="M1412.79,-164.51C1359.08,-154.66 1273.51,-138.97 1220.39,-129.22"/>
<polygon fill="#63b8ff" stroke="#63b8ff" points="1221.2,-125.81 1210.73,-127.45 1219.93,-132.7 1221.2,-125.81"/>
</g>
<!-- Node45&#45;&gt;Node13 -->
<g id="edge79" class="edge">
<title>Node45&#45;&gt;Node13</title>
<path fill="none" stroke="#63b8ff" d="M560.57,-283.22C500.55,-273.33 396.23,-247.66 334.82,-184 309.55,-157.81 311.38,-111.92 315.05,-85.59"/>
<polygon fill="#63b8ff" stroke="#63b8ff" points="318.48,-86.34 316.64,-75.9 311.57,-85.2 318.48,-86.34"/>
</g>
<!-- Node45&#45;&gt;Node46 -->
<g id="edge77" class="edge">
<title>Node45&#45;&gt;Node46</title>
<path fill="none" stroke="#63b8ff" d="M639.23,-280C646.62,-278.16 654.45,-276.37 661.82,-275 764.6,-255.85 884.98,-243.21 960.33,-236.45"/>
<polygon fill="#63b8ff" stroke="#63b8ff" points="960.41,-239.95 970.06,-235.58 959.79,-232.98 960.41,-239.95"/>
</g>
<!-- Node47 -->
<g id="node47" class="node">
<title>Node47</title>
<g id="a_node47"><a xlink:title=" ">
<polygon fill="#e0e0e0" stroke="#999999" points="658.32,-239 559.32,-239 559.32,-220 658.32,-220 658.32,-239"/>
<text text-anchor="middle" x="608.82" y="-227" font-family="Helvetica,sans-Serif" font-size="10.00">yaml&#45;cpp/yaml.h</text>
</a>
</g>
</g>
<!-- Node45&#45;&gt;Node47 -->
<g id="edge80" class="edge">
<title>Node45&#45;&gt;Node47</title>
<path fill="none" stroke="#63b8ff" d="M607.11,-280.37C607.38,-272.5 607.79,-260.6 608.14,-250.39"/>
<polygon fill="#63b8ff" stroke="#63b8ff" points="611.62,-250.79 608.47,-240.68 604.63,-250.55 611.62,-250.79"/>
</g>
<!-- Node46&#45;&gt;Node31 -->
<g id="edge78" class="edge">
<title>Node46&#45;&gt;Node31</title>
<path fill="none" stroke="#63b8ff" d="M1023.73,-219.58C1009.39,-207.01 982.15,-183.57 957.82,-165 944.54,-154.87 929.18,-144.16 916.84,-135.79"/>
<polygon fill="#63b8ff" stroke="#63b8ff" points="918.81,-132.89 908.55,-130.21 914.9,-138.7 918.81,-132.89"/>
</g>
<!-- Node48&#45;&gt;Node21 -->
<g id="edge83" class="edge">
<title>Node48&#45;&gt;Node21</title>
<path fill="none" stroke="#63b8ff" d="M882.53,-280.41C860.06,-253.94 791.57,-173.24 761.38,-137.66"/>
<polygon fill="#63b8ff" stroke="#63b8ff" points="764.38,-135.79 755.24,-130.43 759.04,-140.32 764.38,-135.79"/>
</g>
<!-- Node49 -->
<g id="node49" class="node">
<title>Node49</title>
<g id="a_node49"><a xlink:title=" ">
<polygon fill="#e0e0e0" stroke="#999999" points="915.82,-239 873.82,-239 873.82,-220 915.82,-220 915.82,-239"/>
<text text-anchor="middle" x="894.82" y="-227" font-family="Helvetica,sans-Serif" font-size="10.00">array</text>
</a>
</g>
</g>
<!-- Node48&#45;&gt;Node49 -->
<g id="edge84" class="edge">
<title>Node48&#45;&gt;Node49</title>
<path fill="none" stroke="#63b8ff" d="M890.55,-280.37C891.23,-272.5 892.24,-260.6 893.12,-250.39"/>
<polygon fill="#63b8ff" stroke="#63b8ff" points="896.58,-250.94 893.95,-240.68 889.61,-250.34 896.58,-250.94"/>
</g>
</g>
</svg>
