<?xml version="1.0" encoding="UTF-8" standalone="no"?>
<!DOCTYPE svg PUBLIC "-//W3C//DTD SVG 1.1//EN"
 "http://www.w3.org/Graphics/SVG/1.1/DTD/svg11.dtd">
<!-- Generated by graphviz version 5.0.1 (0)
 -->
<!-- Title: GenerateRandomMatrix.cxx Pages: 1 -->
<svg width="2105pt" height="368pt"
 viewBox="0.00 0.00 2104.90 368.00" xmlns="http://www.w3.org/2000/svg" xmlns:xlink="http://www.w3.org/1999/xlink">
<g id="graph0" class="graph" transform="scale(1 1) rotate(0) translate(4 364)">
<title>GenerateRandomMatrix.cxx</title>
<!-- Node1 -->
<g id="node1" class="node">
<title>Node1</title>
<g id="a_node1"><a xlink:title=" ">
<polygon fill="#999999" stroke="#666666" points="1218.4,-360 1064.4,-360 1064.4,-341 1218.4,-341 1218.4,-360"/>
<text text-anchor="middle" x="1141.4" y="-348" font-family="Helvetica,sans-Serif" font-size="10.00">GenerateRandomMatrix.cxx</text>
</a>
</g>
</g>
<!-- Node2 -->
<g id="node2" class="node">
<title>Node2</title>
<g id="a_node2"><a xlink:href="GenerateRandomMatrix_8hpp.html" target="_top" xlink:title=" ">
<polygon fill="white" stroke="#666666" points="819.4,-305 661.4,-305 661.4,-275 819.4,-275 819.4,-305"/>
<text text-anchor="start" x="669.4" y="-293" font-family="Helvetica,sans-Serif" font-size="10.00">algorithms/GenerateRandom</text>
<text text-anchor="middle" x="740.4" y="-282" font-family="Helvetica,sans-Serif" font-size="10.00">Matrix.hpp</text>
</a>
</g>
</g>
<!-- Node1&#45;&gt;Node2 -->
<g id="edge1" class="edge">
<title>Node1&#45;&gt;Node2</title>
<path fill="none" stroke="#63b8ff" d="M1083.09,-340.99C1016.57,-331.29 907.02,-315.31 829.71,-304.03"/>
<polygon fill="#63b8ff" stroke="#63b8ff" points="829.9,-300.52 819.5,-302.54 828.89,-307.45 829.9,-300.52"/>
</g>
<!-- Node18 -->
<g id="node18" class="node">
<title>Node18</title>
<g id="a_node18"><a xlink:href="Complex_8hpp.html" target="_top" xlink:title=" ">
<polygon fill="white" stroke="#666666" points="1396.4,-129 1286.4,-129 1286.4,-110 1396.4,-110 1396.4,-129"/>
<text text-anchor="middle" x="1341.4" y="-117" font-family="Helvetica,sans-Serif" font-size="10.00">math/Complex.hpp</text>
</a>
</g>
</g>
<!-- Node1&#45;&gt;Node18 -->
<g id="edge35" class="edge">
<title>Node1&#45;&gt;Node18</title>
<path fill="none" stroke="#63b8ff" d="M1204.41,-341C1248.25,-333.74 1301.43,-321.79 1316.4,-305 1358.14,-258.2 1350.97,-176.37 1345.05,-139.49"/>
<polygon fill="#63b8ff" stroke="#63b8ff" points="1348.42,-138.43 1343.24,-129.19 1341.53,-139.65 1348.42,-138.43"/>
</g>
<!-- Node22 -->
<g id="node22" class="node">
<title>Node22</title>
<g id="a_node22"><a xlink:href="Tensor_8hpp.html" target="_top" xlink:title=" ">
<polygon fill="white" stroke="#666666" points="1074.9,-129 987.9,-129 987.9,-110 1074.9,-110 1074.9,-129"/>
<text text-anchor="middle" x="1031.4" y="-117" font-family="Helvetica,sans-Serif" font-size="10.00">util/Tensor.hpp</text>
</a>
</g>
</g>
<!-- Node1&#45;&gt;Node22 -->
<g id="edge72" class="edge">
<title>Node1&#45;&gt;Node22</title>
<path fill="none" stroke="#63b8ff" d="M1141.83,-340.82C1142.54,-319.25 1142.28,-261.88 1122.4,-220 1105.65,-184.72 1072.08,-153.16 1050.73,-135.46"/>
<polygon fill="#63b8ff" stroke="#63b8ff" points="1052.92,-132.73 1042.94,-129.17 1048.52,-138.17 1052.92,-132.73"/>
</g>
<!-- Node26 -->
<g id="node26" class="node">
<title>Node26</title>
<g id="a_node26"><a xlink:href="RandomTensor_8hpp.html" target="_top" xlink:title=" ">
<polygon fill="white" stroke="#666666" points="1306.9,-299.5 1169.9,-299.5 1169.9,-280.5 1306.9,-280.5 1306.9,-299.5"/>
<text text-anchor="middle" x="1238.4" y="-287.5" font-family="Helvetica,sans-Serif" font-size="10.00">math/RandomTensor.hpp</text>
</a>
</g>
</g>
<!-- Node1&#45;&gt;Node26 -->
<g id="edge36" class="edge">
<title>Node1&#45;&gt;Node26</title>
<path fill="none" stroke="#63b8ff" d="M1155.71,-340.87C1171.4,-331.41 1196.8,-316.09 1215.31,-304.92"/>
<polygon fill="#63b8ff" stroke="#63b8ff" points="1217.27,-307.83 1224.03,-299.67 1213.66,-301.83 1217.27,-307.83"/>
</g>
<!-- Node27 -->
<g id="node27" class="node">
<title>Node27</title>
<g id="a_node27"><a xlink:href="Sisi4s_8hpp.html" target="_top" xlink:title=" ">
<polygon fill="white" stroke="#666666" points="1113.4,-239 1047.4,-239 1047.4,-220 1113.4,-220 1113.4,-239"/>
<text text-anchor="middle" x="1080.4" y="-227" font-family="Helvetica,sans-Serif" font-size="10.00">Sisi4s.hpp</text>
</a>
</g>
</g>
<!-- Node1&#45;&gt;Node27 -->
<g id="edge71" class="edge">
<title>Node1&#45;&gt;Node27</title>
<path fill="none" stroke="#63b8ff" d="M1137.01,-340.94C1127.12,-321.65 1102.92,-274.44 1089.59,-248.43"/>
<polygon fill="#63b8ff" stroke="#63b8ff" points="1092.59,-246.6 1084.91,-239.3 1086.36,-249.8 1092.59,-246.6"/>
</g>
<!-- Node3 -->
<g id="node3" class="node">
<title>Node3</title>
<g id="a_node3"><a xlink:href="Algorithm_8hpp.html" target="_top" xlink:title=" ">
<polygon fill="white" stroke="#666666" points="508.9,-239 367.9,-239 367.9,-220 508.9,-220 508.9,-239"/>
<text text-anchor="middle" x="438.4" y="-227" font-family="Helvetica,sans-Serif" font-size="10.00">algorithms/Algorithm.hpp</text>
</a>
</g>
</g>
<!-- Node2&#45;&gt;Node3 -->
<g id="edge2" class="edge">
<title>Node2&#45;&gt;Node3</title>
<path fill="none" stroke="#63b8ff" d="M668.06,-274.99C614.14,-264.54 541.65,-250.5 492.64,-241.01"/>
<polygon fill="#63b8ff" stroke="#63b8ff" points="493.04,-237.52 482.56,-239.05 491.71,-244.39 493.04,-237.52"/>
</g>
<!-- Node4 -->
<g id="node4" class="node">
<title>Node4</title>
<g id="a_node4"><a xlink:href="Data_8hpp.html" target="_top" xlink:title=" ">
<polygon fill="white" stroke="#666666" points="438.9,-184 377.9,-184 377.9,-165 438.9,-165 438.9,-184"/>
<text text-anchor="middle" x="408.4" y="-172" font-family="Helvetica,sans-Serif" font-size="10.00">Data.hpp</text>
</a>
</g>
</g>
<!-- Node3&#45;&gt;Node4 -->
<g id="edge3" class="edge">
<title>Node3&#45;&gt;Node4</title>
<path fill="none" stroke="#63b8ff" d="M433.45,-219.75C429.34,-212.49 423.37,-201.95 418.29,-192.98"/>
<polygon fill="#63b8ff" stroke="#63b8ff" points="421.23,-191.07 413.26,-184.09 415.14,-194.52 421.23,-191.07"/>
</g>
<!-- Node11 -->
<g id="node11" class="node">
<title>Node11</title>
<g id="a_node11"><a xlink:title=" ">
<polygon fill="#e0e0e0" stroke="#999999" points="292.4,-19 236.4,-19 236.4,0 292.4,0 292.4,-19"/>
<text text-anchor="middle" x="264.4" y="-7" font-family="Helvetica,sans-Serif" font-size="10.00">sstream</text>
</a>
</g>
</g>
<!-- Node3&#45;&gt;Node11 -->
<g id="edge33" class="edge">
<title>Node3&#45;&gt;Node11</title>
<path fill="none" stroke="#63b8ff" d="M367.81,-223.11C286.84,-216.18 159.56,-202.75 115.4,-184 51.18,-156.74 25.75,-140.09 3.4,-74 0.69,-66 -2.05,-61.45 3.4,-55 31.41,-21.81 160.3,-13.37 225.86,-11.23"/>
<polygon fill="#63b8ff" stroke="#63b8ff" points="226.3,-14.72 236.19,-10.93 226.09,-7.72 226.3,-14.72"/>
</g>
<!-- Node13 -->
<g id="node13" class="node">
<title>Node13</title>
<g id="a_node13"><a xlink:title=" ">
<polygon fill="#e0e0e0" stroke="#999999" points="56.4,-74 12.4,-74 12.4,-55 56.4,-55 56.4,-74"/>
<text text-anchor="middle" x="34.4" y="-62" font-family="Helvetica,sans-Serif" font-size="10.00">string</text>
</a>
</g>
</g>
<!-- Node3&#45;&gt;Node13 -->
<g id="edge31" class="edge">
<title>Node3&#45;&gt;Node13</title>
<path fill="none" stroke="#63b8ff" d="M367.69,-227.25C285.56,-222.2 150.27,-202.3 63.4,-129 49.82,-117.54 42.28,-98.38 38.32,-84.09"/>
<polygon fill="#63b8ff" stroke="#63b8ff" points="41.71,-83.22 35.95,-74.33 34.91,-84.87 41.71,-83.22"/>
</g>
<!-- Node21 -->
<g id="node21" class="node">
<title>Node21</title>
<g id="a_node21"><a xlink:title=" ">
<polygon fill="#e0e0e0" stroke="#999999" points="452.9,-74 405.9,-74 405.9,-55 452.9,-55 452.9,-74"/>
<text text-anchor="middle" x="429.4" y="-62" font-family="Helvetica,sans-Serif" font-size="10.00">vector</text>
</a>
</g>
</g>
<!-- Node3&#45;&gt;Node21 -->
<g id="edge32" class="edge">
<title>Node3&#45;&gt;Node21</title>
<path fill="none" stroke="#63b8ff" d="M440.97,-219.73C443.45,-210.83 447,-196.59 448.4,-184 452.37,-148.25 442.34,-106.82 435.39,-83.63"/>
<polygon fill="#63b8ff" stroke="#63b8ff" points="438.73,-82.57 432.39,-74.08 432.05,-84.67 438.73,-82.57"/>
</g>
<!-- Node3&#45;&gt;Node22 -->
<g id="edge34" class="edge">
<title>Node3&#45;&gt;Node22</title>
<path fill="none" stroke="#63b8ff" d="M485.43,-219.94C594.19,-200.13 862.56,-151.25 977.62,-130.3"/>
<polygon fill="#63b8ff" stroke="#63b8ff" points="978.39,-133.71 987.61,-128.48 977.14,-126.82 978.39,-133.71"/>
</g>
<!-- Node5 -->
<g id="node5" class="node">
<title>Node5</title>
<g id="a_node5"><a xlink:href="Log_8hpp.html" target="_top" xlink:title=" ">
<polygon fill="white" stroke="#666666" points="334.4,-129 260.4,-129 260.4,-110 334.4,-110 334.4,-129"/>
<text text-anchor="middle" x="297.4" y="-117" font-family="Helvetica,sans-Serif" font-size="10.00">util/Log.hpp</text>
</a>
</g>
</g>
<!-- Node4&#45;&gt;Node5 -->
<g id="edge4" class="edge">
<title>Node4&#45;&gt;Node5</title>
<path fill="none" stroke="#63b8ff" d="M390.57,-164.98C372.79,-156.5 345.25,-143.35 324.72,-133.54"/>
<polygon fill="#63b8ff" stroke="#63b8ff" points="326.09,-130.32 315.56,-129.17 323.07,-136.64 326.09,-130.32"/>
</g>
<!-- Node4&#45;&gt;Node13 -->
<g id="edge21" class="edge">
<title>Node4&#45;&gt;Node13</title>
<path fill="none" stroke="#63b8ff" d="M377.78,-166.62C374.95,-166.04 372.13,-165.5 369.4,-165 260.69,-145.22 225.91,-170.24 123.4,-129 108.54,-123.02 74.6,-97.33 53.19,-80.52"/>
<polygon fill="#63b8ff" stroke="#63b8ff" points="55.15,-77.61 45.14,-74.15 50.81,-83.1 55.15,-77.61"/>
</g>
<!-- Node17 -->
<g id="node17" class="node">
<title>Node17</title>
<g id="a_node17"><a xlink:href="Float_8hpp.html" target="_top" xlink:title=" ">
<polygon fill="white" stroke="#666666" points="1926.9,-74 1835.9,-74 1835.9,-55 1926.9,-55 1926.9,-74"/>
<text text-anchor="middle" x="1881.4" y="-62" font-family="Helvetica,sans-Serif" font-size="10.00">math/Float.hpp</text>
</a>
</g>
</g>
<!-- Node4&#45;&gt;Node17 -->
<g id="edge16" class="edge">
<title>Node4&#45;&gt;Node17</title>
<path fill="none" stroke="#63b8ff" d="M438.96,-172.36C516.77,-169.12 728.51,-158.11 902.4,-129 937.16,-123.18 944.51,-115 979.4,-110 1349.1,-57.07 1449.66,-109.89 1825.76,-73.92"/>
<polygon fill="#63b8ff" stroke="#63b8ff" points="1826.22,-77.39 1835.83,-72.94 1825.54,-70.42 1826.22,-77.39"/>
</g>
<!-- Node4&#45;&gt;Node18 -->
<g id="edge18" class="edge">
<title>Node4&#45;&gt;Node18</title>
<path fill="none" stroke="#63b8ff" d="M438.91,-171.77C570.52,-164.29 1091.31,-134.71 1276.02,-124.21"/>
<polygon fill="#63b8ff" stroke="#63b8ff" points="1276.34,-127.7 1286.13,-123.64 1275.94,-120.71 1276.34,-127.7"/>
</g>
<!-- Node20 -->
<g id="node20" class="node">
<title>Node20</title>
<g id="a_node20"><a xlink:title=" ">
<polygon fill="#e0e0e0" stroke="#999999" points="387.4,-74 349.4,-74 349.4,-55 387.4,-55 387.4,-74"/>
<text text-anchor="middle" x="368.4" y="-62" font-family="Helvetica,sans-Serif" font-size="10.00">map</text>
</a>
</g>
</g>
<!-- Node4&#45;&gt;Node20 -->
<g id="edge22" class="edge">
<title>Node4&#45;&gt;Node20</title>
<path fill="none" stroke="#63b8ff" d="M405.13,-164.66C398.59,-147.01 383.8,-107.09 375.12,-83.64"/>
<polygon fill="#63b8ff" stroke="#63b8ff" points="378.36,-82.32 371.61,-74.16 371.8,-84.75 378.36,-82.32"/>
</g>
<!-- Node4&#45;&gt;Node21 -->
<g id="edge23" class="edge">
<title>Node4&#45;&gt;Node21</title>
<path fill="none" stroke="#63b8ff" d="M410.12,-164.66C413.52,-147.17 421.17,-107.8 425.75,-84.27"/>
<polygon fill="#63b8ff" stroke="#63b8ff" points="429.24,-84.64 427.72,-74.16 422.37,-83.31 429.24,-84.64"/>
</g>
<!-- Node4&#45;&gt;Node22 -->
<g id="edge24" class="edge">
<title>Node4&#45;&gt;Node22</title>
<path fill="none" stroke="#63b8ff" d="M439,-170.96C520,-164.23 746.73,-145.32 935.4,-129 948.95,-127.83 963.57,-126.54 977.22,-125.34"/>
<polygon fill="#63b8ff" stroke="#63b8ff" points="977.78,-128.8 987.43,-124.43 977.16,-121.83 977.78,-128.8"/>
</g>
<!-- Node25 -->
<g id="node25" class="node">
<title>Node25</title>
<g id="a_node25"><a xlink:href="Exception_8hpp.html" target="_top" xlink:title=" ">
<polygon fill="white" stroke="#666666" points="236.4,-129 132.4,-129 132.4,-110 236.4,-110 236.4,-129"/>
<text text-anchor="middle" x="184.4" y="-117" font-family="Helvetica,sans-Serif" font-size="10.00">util/Exception.hpp</text>
</a>
</g>
</g>
<!-- Node4&#45;&gt;Node25 -->
<g id="edge27" class="edge">
<title>Node4&#45;&gt;Node25</title>
<path fill="none" stroke="#63b8ff" d="M377.72,-166.24C339.71,-157.25 274.57,-141.83 230.52,-131.41"/>
<polygon fill="#63b8ff" stroke="#63b8ff" points="231.17,-127.97 220.63,-129.07 229.56,-134.78 231.17,-127.97"/>
</g>
<!-- Node6 -->
<g id="node6" class="node">
<title>Node6</title>
<g id="a_node6"><a xlink:href="Time_8hpp.html" target="_top" xlink:title=" ">
<polygon fill="white" stroke="#666666" points="982.9,-74 901.9,-74 901.9,-55 982.9,-55 982.9,-74"/>
<text text-anchor="middle" x="942.4" y="-62" font-family="Helvetica,sans-Serif" font-size="10.00">util/Time.hpp</text>
</a>
</g>
</g>
<!-- Node5&#45;&gt;Node6 -->
<g id="edge5" class="edge">
<title>Node5&#45;&gt;Node6</title>
<path fill="none" stroke="#63b8ff" d="M334.42,-116.94C426.69,-112.79 674.47,-100.07 891.79,-73.95"/>
<polygon fill="#63b8ff" stroke="#63b8ff" points="892.28,-77.41 901.79,-72.73 891.44,-70.46 892.28,-77.41"/>
</g>
<!-- Node5&#45;&gt;Node13 -->
<g id="edge12" class="edge">
<title>Node5&#45;&gt;Node13</title>
<path fill="none" stroke="#63b8ff" d="M260.28,-111.02C208.57,-100.6 115.7,-81.88 66.7,-72.01"/>
<polygon fill="#63b8ff" stroke="#63b8ff" points="67.15,-68.53 56.66,-69.99 65.77,-75.39 67.15,-68.53"/>
</g>
<!-- Node14 -->
<g id="node14" class="node">
<title>Node14</title>
<g id="a_node14"><a xlink:title=" ">
<polygon fill="#e0e0e0" stroke="#999999" points="172.4,-74 112.4,-74 112.4,-55 172.4,-55 172.4,-74"/>
<text text-anchor="middle" x="142.4" y="-62" font-family="Helvetica,sans-Serif" font-size="10.00">iostream</text>
</a>
</g>
</g>
<!-- Node5&#45;&gt;Node14 -->
<g id="edge13" class="edge">
<title>Node5&#45;&gt;Node14</title>
<path fill="none" stroke="#63b8ff" d="M272.5,-109.98C246.7,-101.16 206.18,-87.31 177.22,-77.41"/>
<polygon fill="#63b8ff" stroke="#63b8ff" points="178.09,-74.01 167.5,-74.08 175.83,-80.63 178.09,-74.01"/>
</g>
<!-- Node15 -->
<g id="node15" class="node">
<title>Node15</title>
<g id="a_node15"><a xlink:title=" ">
<polygon fill="#e0e0e0" stroke="#999999" points="257.9,-74 190.9,-74 190.9,-55 257.9,-55 257.9,-74"/>
<text text-anchor="middle" x="224.4" y="-62" font-family="Helvetica,sans-Serif" font-size="10.00">streambuf</text>
</a>
</g>
</g>
<!-- Node5&#45;&gt;Node15 -->
<g id="edge14" class="edge">
<title>Node5&#45;&gt;Node15</title>
<path fill="none" stroke="#63b8ff" d="M285.67,-109.98C274.67,-102 257.98,-89.88 244.8,-80.31"/>
<polygon fill="#63b8ff" stroke="#63b8ff" points="246.49,-77.21 236.34,-74.17 242.38,-82.88 246.49,-77.21"/>
</g>
<!-- Node16 -->
<g id="node16" class="node">
<title>Node16</title>
<g id="a_node16"><a xlink:title=" ">
<polygon fill="#e0e0e0" stroke="#999999" points="330.9,-74 275.9,-74 275.9,-55 330.9,-55 330.9,-74"/>
<text text-anchor="middle" x="303.4" y="-62" font-family="Helvetica,sans-Serif" font-size="10.00">fstream</text>
</a>
</g>
</g>
<!-- Node5&#45;&gt;Node16 -->
<g id="edge15" class="edge">
<title>Node5&#45;&gt;Node16</title>
<path fill="none" stroke="#63b8ff" d="M298.39,-109.75C299.18,-102.8 300.3,-92.85 301.29,-84.13"/>
<polygon fill="#63b8ff" stroke="#63b8ff" points="304.78,-84.42 302.43,-74.09 297.82,-83.63 304.78,-84.42"/>
</g>
<!-- Node7 -->
<g id="node7" class="node">
<title>Node7</title>
<g id="a_node7"><a xlink:title=" ">
<polygon fill="#e0e0e0" stroke="#999999" points="964.4,-19 920.4,-19 920.4,0 964.4,0 964.4,-19"/>
<text text-anchor="middle" x="942.4" y="-7" font-family="Helvetica,sans-Serif" font-size="10.00">ctime</text>
</a>
</g>
</g>
<!-- Node6&#45;&gt;Node7 -->
<g id="edge6" class="edge">
<title>Node6&#45;&gt;Node7</title>
<path fill="none" stroke="#63b8ff" d="M942.4,-54.75C942.4,-47.8 942.4,-37.85 942.4,-29.13"/>
<polygon fill="#63b8ff" stroke="#63b8ff" points="945.9,-29.09 942.4,-19.09 938.9,-29.09 945.9,-29.09"/>
</g>
<!-- Node8 -->
<g id="node8" class="node">
<title>Node8</title>
<g id="a_node8"><a xlink:title=" ">
<polygon fill="#e0e0e0" stroke="#999999" points="1090.4,-19 1040.4,-19 1040.4,0 1090.4,0 1090.4,-19"/>
<text text-anchor="middle" x="1065.4" y="-7" font-family="Helvetica,sans-Serif" font-size="10.00">cstdint</text>
</a>
</g>
</g>
<!-- Node6&#45;&gt;Node8 -->
<g id="edge7" class="edge">
<title>Node6&#45;&gt;Node8</title>
<path fill="none" stroke="#63b8ff" d="M962.16,-54.98C982.13,-46.38 1013.2,-32.99 1036.05,-23.15"/>
<polygon fill="#63b8ff" stroke="#63b8ff" points="1037.48,-26.34 1045.28,-19.17 1034.71,-19.91 1037.48,-26.34"/>
</g>
<!-- Node9 -->
<g id="node9" class="node">
<title>Node9</title>
<g id="a_node9"><a xlink:title=" ">
<polygon fill="#e0e0e0" stroke="#999999" points="1598.9,-19 1541.9,-19 1541.9,0 1598.9,0 1598.9,-19"/>
<text text-anchor="middle" x="1570.4" y="-7" font-family="Helvetica,sans-Serif" font-size="10.00">ostream</text>
</a>
</g>
</g>
<!-- Node6&#45;&gt;Node9 -->
<g id="edge8" class="edge">
<title>Node6&#45;&gt;Node9</title>
<path fill="none" stroke="#63b8ff" d="M983.01,-56.28C986.18,-55.81 989.34,-55.38 992.4,-55 1194.62,-30.08 1438.48,-16.74 1531.65,-12.26"/>
<polygon fill="#63b8ff" stroke="#63b8ff" points="1531.92,-15.75 1541.74,-11.78 1531.58,-8.75 1531.92,-15.75"/>
</g>
<!-- Node10 -->
<g id="node10" class="node">
<title>Node10</title>
<g id="a_node10"><a xlink:title=" ">
<polygon fill="#e0e0e0" stroke="#999999" points="724.4,-19 668.4,-19 668.4,0 724.4,0 724.4,-19"/>
<text text-anchor="middle" x="696.4" y="-7" font-family="Helvetica,sans-Serif" font-size="10.00">iomanip</text>
</a>
</g>
</g>
<!-- Node6&#45;&gt;Node10 -->
<g id="edge9" class="edge">
<title>Node6&#45;&gt;Node10</title>
<path fill="none" stroke="#63b8ff" d="M902.88,-54.98C856.53,-45 780.26,-28.57 734.53,-18.72"/>
<polygon fill="#63b8ff" stroke="#63b8ff" points="735.22,-15.28 724.71,-16.6 733.75,-22.13 735.22,-15.28"/>
</g>
<!-- Node6&#45;&gt;Node11 -->
<g id="edge10" class="edge">
<title>Node6&#45;&gt;Node11</title>
<path fill="none" stroke="#63b8ff" d="M901.79,-56.26C898.62,-55.79 895.46,-55.37 892.4,-55 669.9,-28.27 400.98,-15.81 302.71,-11.91"/>
<polygon fill="#63b8ff" stroke="#63b8ff" points="302.79,-8.41 292.66,-11.52 302.52,-15.41 302.79,-8.41"/>
</g>
<!-- Node12 -->
<g id="node12" class="node">
<title>Node12</title>
<g id="a_node12"><a xlink:title=" ">
<polygon fill="#e0e0e0" stroke="#999999" points="1212.9,-19 1165.9,-19 1165.9,0 1212.9,0 1212.9,-19"/>
<text text-anchor="middle" x="1189.4" y="-7" font-family="Helvetica,sans-Serif" font-size="10.00">cmath</text>
</a>
</g>
</g>
<!-- Node6&#45;&gt;Node12 -->
<g id="edge11" class="edge">
<title>Node6&#45;&gt;Node12</title>
<path fill="none" stroke="#63b8ff" d="M982.08,-54.98C1030.29,-44.64 1110.74,-27.38 1155.94,-17.68"/>
<polygon fill="#63b8ff" stroke="#63b8ff" points="1156.79,-21.08 1165.83,-15.56 1155.32,-14.23 1156.79,-21.08"/>
</g>
<!-- Node17&#45;&gt;Node9 -->
<g id="edge17" class="edge">
<title>Node17&#45;&gt;Node9</title>
<path fill="none" stroke="#63b8ff" d="M1835.84,-55.74C1774.69,-45.32 1667.1,-26.98 1609.46,-17.16"/>
<polygon fill="#63b8ff" stroke="#63b8ff" points="1609.75,-13.66 1599.3,-15.43 1608.57,-20.56 1609.75,-13.66"/>
</g>
<!-- Node18&#45;&gt;Node17 -->
<g id="edge19" class="edge">
<title>Node18&#45;&gt;Node17</title>
<path fill="none" stroke="#63b8ff" d="M1396.43,-114.56C1484.65,-108.01 1663.41,-93.73 1825.64,-74.01"/>
<polygon fill="#63b8ff" stroke="#63b8ff" points="1826.31,-77.46 1835.81,-72.77 1825.46,-70.51 1826.31,-77.46"/>
</g>
<!-- Node19 -->
<g id="node19" class="node">
<title>Node19</title>
<g id="a_node19"><a xlink:title=" ">
<polygon fill="#e0e0e0" stroke="#999999" points="2096.9,-74 2037.9,-74 2037.9,-55 2096.9,-55 2096.9,-74"/>
<text text-anchor="middle" x="2067.4" y="-62" font-family="Helvetica,sans-Serif" font-size="10.00">complex</text>
</a>
</g>
</g>
<!-- Node18&#45;&gt;Node19 -->
<g id="edge20" class="edge">
<title>Node18&#45;&gt;Node19</title>
<path fill="none" stroke="#63b8ff" d="M1396.45,-117.73C1511.79,-115.51 1787.27,-107.05 2027.69,-73.85"/>
<polygon fill="#63b8ff" stroke="#63b8ff" points="2028.25,-77.31 2037.67,-72.46 2027.28,-70.38 2028.25,-77.31"/>
</g>
<!-- Node23 -->
<g id="node23" class="node">
<title>Node23</title>
<g id="a_node23"><a xlink:href="CTF_8hpp.html" target="_top" xlink:title=" ">
<polygon fill="white" stroke="#666666" points="2019.4,-74 1945.4,-74 1945.4,-55 2019.4,-55 2019.4,-74"/>
<text text-anchor="middle" x="1982.4" y="-62" font-family="Helvetica,sans-Serif" font-size="10.00">util/CTF.hpp</text>
</a>
</g>
</g>
<!-- Node22&#45;&gt;Node23 -->
<g id="edge25" class="edge">
<title>Node22&#45;&gt;Node23</title>
<path fill="none" stroke="#63b8ff" d="M1075.05,-111.61C1079.88,-111 1084.74,-110.44 1089.4,-110 1461.22,-74.95 1560.27,-115.61 1935.27,-73.94"/>
<polygon fill="#63b8ff" stroke="#63b8ff" points="1935.76,-77.41 1945.31,-72.82 1934.98,-70.45 1935.76,-77.41"/>
</g>
<!-- Node24 -->
<g id="node24" class="node">
<title>Node24</title>
<g id="a_node24"><a xlink:title=" ">
<polygon fill="#e0e0e0" stroke="#999999" points="2007.4,-19 1957.4,-19 1957.4,0 2007.4,0 2007.4,-19"/>
<text text-anchor="middle" x="1982.4" y="-7" font-family="Helvetica,sans-Serif" font-size="10.00">ctf.hpp</text>
</a>
</g>
</g>
<!-- Node23&#45;&gt;Node24 -->
<g id="edge26" class="edge">
<title>Node23&#45;&gt;Node24</title>
<path fill="none" stroke="#63b8ff" d="M1982.4,-54.75C1982.4,-47.8 1982.4,-37.85 1982.4,-29.13"/>
<polygon fill="#63b8ff" stroke="#63b8ff" points="1985.9,-29.09 1982.4,-19.09 1978.9,-29.09 1985.9,-29.09"/>
</g>
<!-- Node25&#45;&gt;Node11 -->
<g id="edge29" class="edge">
<title>Node25&#45;&gt;Node11</title>
<path fill="none" stroke="#63b8ff" d="M156.89,-110C126.76,-99.24 85,-79.17 103.4,-55 118.2,-35.55 183.34,-22.42 226.09,-15.72"/>
<polygon fill="#63b8ff" stroke="#63b8ff" points="226.81,-19.15 236.17,-14.19 225.76,-12.23 226.81,-19.15"/>
</g>
<!-- Node25&#45;&gt;Node13 -->
<g id="edge28" class="edge">
<title>Node25&#45;&gt;Node13</title>
<path fill="none" stroke="#63b8ff" d="M160.3,-109.98C134.78,-100.97 94.37,-86.69 66.24,-76.75"/>
<polygon fill="#63b8ff" stroke="#63b8ff" points="67.08,-73.33 56.48,-73.3 64.75,-79.94 67.08,-73.33"/>
</g>
<!-- Node25&#45;&gt;Node14 -->
<g id="edge30" class="edge">
<title>Node25&#45;&gt;Node14</title>
<path fill="none" stroke="#63b8ff" d="M177.46,-109.75C171.53,-102.26 162.83,-91.28 155.58,-82.13"/>
<polygon fill="#63b8ff" stroke="#63b8ff" points="158.16,-79.75 149.21,-74.09 152.67,-84.1 158.16,-79.75"/>
</g>
<!-- Node26&#45;&gt;Node18 -->
<g id="edge37" class="edge">
<title>Node26&#45;&gt;Node18</title>
<path fill="none" stroke="#63b8ff" d="M1238.37,-280.46C1238.65,-266.94 1240.54,-240.08 1250.4,-220 1267.54,-185.1 1300.75,-153.59 1321.96,-135.78"/>
<polygon fill="#63b8ff" stroke="#63b8ff" points="1324.45,-138.26 1329.97,-129.22 1320.02,-132.85 1324.45,-138.26"/>
</g>
<!-- Node26&#45;&gt;Node19 -->
<g id="edge69" class="edge">
<title>Node26&#45;&gt;Node19</title>
<path fill="none" stroke="#63b8ff" d="M1270.14,-280.44C1399.22,-245.64 1884.69,-114.76 2027.59,-76.23"/>
<polygon fill="#63b8ff" stroke="#63b8ff" points="2028.92,-79.5 2037.67,-73.52 2027.1,-72.74 2028.92,-79.5"/>
</g>
<!-- Node26&#45;&gt;Node22 -->
<g id="edge68" class="edge">
<title>Node26&#45;&gt;Node22</title>
<path fill="none" stroke="#63b8ff" d="M1234.95,-280.41C1225.58,-258.12 1197.47,-197.83 1155.4,-165 1134.89,-148.99 1108.12,-138.42 1084.71,-131.62"/>
<polygon fill="#63b8ff" stroke="#63b8ff" points="1085.48,-128.2 1074.91,-128.93 1083.63,-134.95 1085.48,-128.2"/>
</g>
<!-- Node26&#45;&gt;Node27 -->
<g id="edge38" class="edge">
<title>Node26&#45;&gt;Node27</title>
<path fill="none" stroke="#63b8ff" d="M1215.42,-280.49C1188.51,-270.53 1143.73,-253.95 1113.17,-242.63"/>
<polygon fill="#63b8ff" stroke="#63b8ff" points="1113.99,-239.21 1103.4,-239.02 1111.56,-245.77 1113.99,-239.21"/>
</g>
<!-- Node45 -->
<g id="node45" class="node">
<title>Node45</title>
<g id="a_node45"><a xlink:title=" ">
<polygon fill="#e0e0e0" stroke="#999999" points="1313.4,-239 1259.4,-239 1259.4,-220 1313.4,-220 1313.4,-239"/>
<text text-anchor="middle" x="1286.4" y="-227" font-family="Helvetica,sans-Serif" font-size="10.00">random</text>
</a>
</g>
</g>
<!-- Node26&#45;&gt;Node45 -->
<g id="edge70" class="edge">
<title>Node26&#45;&gt;Node45</title>
<path fill="none" stroke="#63b8ff" d="M1245.48,-280.37C1252.64,-271.64 1263.89,-257.93 1272.78,-247.09"/>
<polygon fill="#63b8ff" stroke="#63b8ff" points="1275.65,-249.12 1279.29,-239.17 1270.24,-244.68 1275.65,-249.12"/>
</g>
<!-- Node27&#45;&gt;Node6 -->
<g id="edge39" class="edge">
<title>Node27&#45;&gt;Node6</title>
<path fill="none" stroke="#63b8ff" d="M1070.05,-219.95C1050.7,-203.63 1008.38,-166.33 979.4,-129 968.18,-114.54 957.91,-96.35 951.06,-83.15"/>
<polygon fill="#63b8ff" stroke="#63b8ff" points="954.16,-81.52 946.52,-74.17 947.91,-84.67 954.16,-81.52"/>
</g>
<!-- Node27&#45;&gt;Node23 -->
<g id="edge40" class="edge">
<title>Node27&#45;&gt;Node23</title>
<path fill="none" stroke="#63b8ff" d="M1090.61,-219.8C1118.36,-196.77 1198.42,-134.26 1277.4,-110 1414.58,-67.86 1774.84,-90.34 1935.05,-73.92"/>
<polygon fill="#63b8ff" stroke="#63b8ff" points="1935.75,-77.36 1945.3,-72.78 1934.98,-70.4 1935.75,-77.36"/>
</g>
<!-- Node28 -->
<g id="node28" class="node">
<title>Node28</title>
<g id="a_node28"><a xlink:href="Options_8hpp.html" target="_top" xlink:title=" ">
<polygon fill="white" stroke="#666666" points="359.9,-184 284.9,-184 284.9,-165 359.9,-165 359.9,-184"/>
<text text-anchor="middle" x="322.4" y="-172" font-family="Helvetica,sans-Serif" font-size="10.00">Options.hpp</text>
</a>
</g>
</g>
<!-- Node27&#45;&gt;Node28 -->
<g id="edge41" class="edge">
<title>Node27&#45;&gt;Node28</title>
<path fill="none" stroke="#63b8ff" d="M1047.32,-227.8C947.01,-225.38 637.38,-215.78 370.33,-183.95"/>
<polygon fill="#63b8ff" stroke="#63b8ff" points="370.4,-180.43 360.05,-182.71 369.56,-187.38 370.4,-180.43"/>
</g>
<!-- Node28&#45;&gt;Node13 -->
<g id="edge42" class="edge">
<title>Node28&#45;&gt;Node13</title>
<path fill="none" stroke="#63b8ff" d="M284.9,-173.61C236.79,-172.18 152.19,-164.28 90.4,-129 70.92,-117.88 54.77,-97.46 44.9,-82.77"/>
<polygon fill="#63b8ff" stroke="#63b8ff" points="47.69,-80.64 39.35,-74.11 41.79,-84.41 47.69,-80.64"/>
</g>
<!-- Node29 -->
<g id="node29" class="node">
<title>Node29</title>
<g id="a_node29"><a xlink:href="CLI11_8hpp.html" target="_top" xlink:title=" ">
<polygon fill="white" stroke="#666666" points="892.9,-129 793.9,-129 793.9,-110 892.9,-110 892.9,-129"/>
<text text-anchor="middle" x="843.4" y="-117" font-family="Helvetica,sans-Serif" font-size="10.00">extern/CLI11.hpp</text>
</a>
</g>
</g>
<!-- Node28&#45;&gt;Node29 -->
<g id="edge43" class="edge">
<title>Node28&#45;&gt;Node29</title>
<path fill="none" stroke="#63b8ff" d="M360.06,-166.4C363.22,-165.89 366.36,-165.42 369.4,-165 517.83,-144.65 693.71,-130.81 783.74,-124.46"/>
<polygon fill="#63b8ff" stroke="#63b8ff" points="784.03,-127.95 793.77,-123.76 783.55,-120.97 784.03,-127.95"/>
</g>
<!-- Node29&#45;&gt;Node8 -->
<g id="edge57" class="edge">
<title>Node29&#45;&gt;Node8</title>
<path fill="none" stroke="#63b8ff" d="M893,-111.78C897.86,-111.16 902.72,-110.56 907.4,-110 982.84,-101 1196.58,-130.48 1247.4,-74 1253.05,-67.72 1252.61,-61.64 1247.4,-55 1229.52,-32.22 1148.49,-19.6 1100.78,-14.03"/>
<polygon fill="#63b8ff" stroke="#63b8ff" points="1100.9,-10.52 1090.58,-12.89 1100.12,-17.48 1100.9,-10.52"/>
</g>
<!-- Node29&#45;&gt;Node10 -->
<g id="edge53" class="edge">
<title>Node29&#45;&gt;Node10</title>
<path fill="none" stroke="#63b8ff" d="M793.82,-118.77C716.03,-118.03 570.82,-111.49 538.4,-74 502.72,-32.74 600.56,-17.97 657.97,-12.94"/>
<polygon fill="#63b8ff" stroke="#63b8ff" points="658.5,-16.41 668.18,-12.11 657.93,-9.43 658.5,-16.41"/>
</g>
<!-- Node29&#45;&gt;Node11 -->
<g id="edge55" class="edge">
<title>Node29&#45;&gt;Node11</title>
<path fill="none" stroke="#63b8ff" d="M793.85,-113.86C731.12,-107.45 619.94,-94.33 526.4,-74 497.4,-67.7 491.11,-62.48 462.4,-55 407.04,-40.58 342.26,-26.55 302.27,-18.22"/>
<polygon fill="#63b8ff" stroke="#63b8ff" points="302.92,-14.78 292.41,-16.17 301.5,-21.63 302.92,-14.78"/>
</g>
<!-- Node29&#45;&gt;Node12 -->
<g id="edge46" class="edge">
<title>Node29&#45;&gt;Node12</title>
<path fill="none" stroke="#63b8ff" d="M892.99,-111.76C897.86,-111.14 902.72,-110.55 907.4,-110 946.89,-105.38 1236.74,-103.49 1263.4,-74 1281.17,-54.34 1249.54,-34.98 1222.28,-22.9"/>
<polygon fill="#63b8ff" stroke="#63b8ff" points="1223.48,-19.61 1212.9,-18.95 1220.75,-26.06 1223.48,-19.61"/>
</g>
<!-- Node29&#45;&gt;Node13 -->
<g id="edge45" class="edge">
<title>Node29&#45;&gt;Node13</title>
<path fill="none" stroke="#63b8ff" d="M793.51,-116.58C674.13,-111.74 362.62,-97.74 103.4,-74 91.34,-72.9 78.14,-71.35 66.55,-69.88"/>
<polygon fill="#63b8ff" stroke="#63b8ff" points="66.79,-66.39 56.42,-68.57 65.89,-73.33 66.79,-66.39"/>
</g>
<!-- Node29&#45;&gt;Node14 -->
<g id="edge58" class="edge">
<title>Node29&#45;&gt;Node14</title>
<path fill="none" stroke="#63b8ff" d="M793.73,-117.66C684.74,-115.28 416.38,-106.48 182.61,-73.95"/>
<polygon fill="#63b8ff" stroke="#63b8ff" points="182.94,-70.46 172.55,-72.53 181.97,-77.39 182.94,-70.46"/>
</g>
<!-- Node29&#45;&gt;Node16 -->
<g id="edge50" class="edge">
<title>Node29&#45;&gt;Node16</title>
<path fill="none" stroke="#63b8ff" d="M793.86,-116.38C705.07,-112.09 512.85,-100.57 341.17,-73.89"/>
<polygon fill="#63b8ff" stroke="#63b8ff" points="341.62,-70.42 331.2,-72.32 340.53,-77.33 341.62,-70.42"/>
</g>
<!-- Node29&#45;&gt;Node20 -->
<g id="edge49" class="edge">
<title>Node29&#45;&gt;Node20</title>
<path fill="none" stroke="#63b8ff" d="M793.8,-116.56C710.99,-112.65 539.66,-101.7 397.4,-74 397.3,-73.98 397.2,-73.96 397.1,-73.94"/>
<polygon fill="#63b8ff" stroke="#63b8ff" points="398.16,-70.6 387.62,-71.67 396.53,-77.4 398.16,-70.6"/>
</g>
<!-- Node29&#45;&gt;Node21 -->
<g id="edge63" class="edge">
<title>Node29&#45;&gt;Node21</title>
<path fill="none" stroke="#63b8ff" d="M793.9,-114.27C721.77,-107.73 583.71,-93.84 467.4,-74 465.94,-73.75 464.46,-73.48 462.96,-73.2"/>
<polygon fill="#63b8ff" stroke="#63b8ff" points="463.54,-69.75 453.04,-71.18 462.14,-76.61 463.54,-69.75"/>
</g>
<!-- Node30 -->
<g id="node30" class="node">
<title>Node30</title>
<g id="a_node30"><a xlink:title=" ">
<polygon fill="#e0e0e0" stroke="#999999" points="1390.4,-74 1332.4,-74 1332.4,-55 1390.4,-55 1390.4,-74"/>
<text text-anchor="middle" x="1361.4" y="-62" font-family="Helvetica,sans-Serif" font-size="10.00">memory</text>
</a>
</g>
</g>
<!-- Node29&#45;&gt;Node30 -->
<g id="edge44" class="edge">
<title>Node29&#45;&gt;Node30</title>
<path fill="none" stroke="#63b8ff" d="M892.99,-111.69C897.85,-111.09 902.72,-110.52 907.4,-110 1089.66,-89.92 1136.86,-99.82 1318.4,-74 1319.67,-73.82 1320.96,-73.63 1322.26,-73.42"/>
<polygon fill="#63b8ff" stroke="#63b8ff" points="1323.07,-76.83 1332.33,-71.69 1321.88,-69.94 1323.07,-76.83"/>
</g>
<!-- Node31 -->
<g id="node31" class="node">
<title>Node31</title>
<g id="a_node31"><a xlink:title=" ">
<polygon fill="#e0e0e0" stroke="#999999" points="1473.9,-74 1408.9,-74 1408.9,-55 1473.9,-55 1473.9,-74"/>
<text text-anchor="middle" x="1441.4" y="-62" font-family="Helvetica,sans-Serif" font-size="10.00">functional</text>
</a>
</g>
</g>
<!-- Node29&#45;&gt;Node31 -->
<g id="edge47" class="edge">
<title>Node29&#45;&gt;Node31</title>
<path fill="none" stroke="#63b8ff" d="M892.98,-111.62C897.85,-111.03 902.72,-110.48 907.4,-110 1122.2,-87.9 1180.43,-103.32 1398.29,-73.96"/>
<polygon fill="#63b8ff" stroke="#63b8ff" points="1399.02,-77.4 1408.45,-72.58 1398.07,-70.46 1399.02,-77.4"/>
</g>
<!-- Node32 -->
<g id="node32" class="node">
<title>Node32</title>
<g id="a_node32"><a xlink:title=" ">
<polygon fill="#e0e0e0" stroke="#999999" points="1548.4,-74 1492.4,-74 1492.4,-55 1548.4,-55 1548.4,-74"/>
<text text-anchor="middle" x="1520.4" y="-62" font-family="Helvetica,sans-Serif" font-size="10.00">numeric</text>
</a>
</g>
</g>
<!-- Node29&#45;&gt;Node32 -->
<g id="edge48" class="edge">
<title>Node29&#45;&gt;Node32</title>
<path fill="none" stroke="#63b8ff" d="M892.97,-111.57C897.84,-110.99 902.71,-110.46 907.4,-110 1159.45,-85.42 1227.83,-110.19 1482.3,-73.91"/>
<polygon fill="#63b8ff" stroke="#63b8ff" points="1482.81,-77.37 1492.21,-72.48 1481.81,-70.44 1482.81,-77.37"/>
</g>
<!-- Node33 -->
<g id="node33" class="node">
<title>Node33</title>
<g id="a_node33"><a xlink:title=" ">
<polygon fill="#e0e0e0" stroke="#999999" points="1607.9,-74 1566.9,-74 1566.9,-55 1607.9,-55 1607.9,-74"/>
<text text-anchor="middle" x="1587.4" y="-62" font-family="Helvetica,sans-Serif" font-size="10.00">tuple</text>
</a>
</g>
</g>
<!-- Node29&#45;&gt;Node33 -->
<g id="edge51" class="edge">
<title>Node29&#45;&gt;Node33</title>
<path fill="none" stroke="#63b8ff" d="M892.97,-111.53C897.84,-110.97 902.71,-110.44 907.4,-110 1192.09,-83.25 1270.21,-120.83 1556.6,-73.67"/>
<polygon fill="#63b8ff" stroke="#63b8ff" points="1557.59,-77.06 1566.88,-71.96 1556.44,-70.15 1557.59,-77.06"/>
</g>
<!-- Node34 -->
<g id="node34" class="node">
<title>Node34</title>
<g id="a_node34"><a xlink:title=" ">
<polygon fill="#e0e0e0" stroke="#999999" points="1670.9,-74 1625.9,-74 1625.9,-55 1670.9,-55 1670.9,-74"/>
<text text-anchor="middle" x="1648.4" y="-62" font-family="Helvetica,sans-Serif" font-size="10.00">utility</text>
</a>
</g>
</g>
<!-- Node29&#45;&gt;Node34 -->
<g id="edge52" class="edge">
<title>Node29&#45;&gt;Node34</title>
<path fill="none" stroke="#63b8ff" d="M892.97,-111.51C897.84,-110.95 902.71,-110.43 907.4,-110 1218.66,-81.49 1303.61,-123.16 1615.59,-73.93"/>
<polygon fill="#63b8ff" stroke="#63b8ff" points="1616.51,-77.33 1625.84,-72.29 1615.41,-70.42 1616.51,-77.33"/>
</g>
<!-- Node35 -->
<g id="node35" class="node">
<title>Node35</title>
<g id="a_node35"><a xlink:title=" ">
<polygon fill="#e0e0e0" stroke="#999999" points="1735.4,-74 1689.4,-74 1689.4,-55 1735.4,-55 1735.4,-74"/>
<text text-anchor="middle" x="1712.4" y="-62" font-family="Helvetica,sans-Serif" font-size="10.00">locale</text>
</a>
</g>
</g>
<!-- Node29&#45;&gt;Node35 -->
<g id="edge54" class="edge">
<title>Node29&#45;&gt;Node35</title>
<path fill="none" stroke="#63b8ff" d="M892.97,-111.49C897.84,-110.93 902.71,-110.42 907.4,-110 1246.7,-79.62 1338.75,-125.55 1679.21,-73.82"/>
<polygon fill="#63b8ff" stroke="#63b8ff" points="1679.75,-77.28 1689.1,-72.3 1678.69,-70.36 1679.75,-77.28"/>
</g>
<!-- Node36 -->
<g id="node36" class="node">
<title>Node36</title>
<g id="a_node36"><a xlink:title=" ">
<polygon fill="#e0e0e0" stroke="#999999" points="1817.4,-74 1753.4,-74 1753.4,-55 1817.4,-55 1817.4,-74"/>
<text text-anchor="middle" x="1785.4" y="-62" font-family="Helvetica,sans-Serif" font-size="10.00">algorithm</text>
</a>
</g>
</g>
<!-- Node29&#45;&gt;Node36 -->
<g id="edge56" class="edge">
<title>Node29&#45;&gt;Node36</title>
<path fill="none" stroke="#63b8ff" d="M892.97,-111.47C897.84,-110.92 902.71,-110.41 907.4,-110 1274.97,-77.75 1373.13,-119.18 1743.07,-73.94"/>
<polygon fill="#63b8ff" stroke="#63b8ff" points="1743.76,-77.38 1753.25,-72.68 1742.9,-70.43 1743.76,-77.38"/>
</g>
<!-- Node37 -->
<g id="node37" class="node">
<title>Node37</title>
<g id="a_node37"><a xlink:title=" ">
<polygon fill="#e0e0e0" stroke="#999999" points="579.4,-74 547.4,-74 547.4,-55 579.4,-55 579.4,-74"/>
<text text-anchor="middle" x="563.4" y="-62" font-family="Helvetica,sans-Serif" font-size="10.00">set</text>
</a>
</g>
</g>
<!-- Node29&#45;&gt;Node37 -->
<g id="edge59" class="edge">
<title>Node29&#45;&gt;Node37</title>
<path fill="none" stroke="#63b8ff" d="M793.79,-111.95C742.28,-104.64 659.55,-91.52 589.4,-74 589.3,-73.97 589.2,-73.95 589.1,-73.92"/>
<polygon fill="#63b8ff" stroke="#63b8ff" points="590.1,-70.57 579.52,-71.17 588.16,-77.3 590.1,-70.57"/>
</g>
<!-- Node38 -->
<g id="node38" class="node">
<title>Node38</title>
<g id="a_node38"><a xlink:title=" ">
<polygon fill="#e0e0e0" stroke="#999999" points="666.9,-74 597.9,-74 597.9,-55 666.9,-55 666.9,-74"/>
<text text-anchor="middle" x="632.4" y="-62" font-family="Helvetica,sans-Serif" font-size="10.00">type_traits</text>
</a>
</g>
</g>
<!-- Node29&#45;&gt;Node38 -->
<g id="edge60" class="edge">
<title>Node29&#45;&gt;Node38</title>
<path fill="none" stroke="#63b8ff" d="M809.5,-109.98C773.38,-100.91 716.07,-86.52 676.48,-76.57"/>
<polygon fill="#63b8ff" stroke="#63b8ff" points="677.12,-73.12 666.57,-74.08 675.41,-79.91 677.12,-73.12"/>
</g>
<!-- Node39 -->
<g id="node39" class="node">
<title>Node39</title>
<g id="a_node39"><a xlink:title=" ">
<polygon fill="#e0e0e0" stroke="#999999" points="737.9,-74 684.9,-74 684.9,-55 737.9,-55 737.9,-74"/>
<text text-anchor="middle" x="711.4" y="-62" font-family="Helvetica,sans-Serif" font-size="10.00">iterator</text>
</a>
</g>
</g>
<!-- Node29&#45;&gt;Node39 -->
<g id="edge61" class="edge">
<title>Node29&#45;&gt;Node39</title>
<path fill="none" stroke="#63b8ff" d="M822.19,-109.98C800.67,-101.34 767.12,-87.87 742.57,-78.02"/>
<polygon fill="#63b8ff" stroke="#63b8ff" points="743.58,-74.65 732.99,-74.17 740.97,-81.14 743.58,-74.65"/>
</g>
<!-- Node40 -->
<g id="node40" class="node">
<title>Node40</title>
<g id="a_node40"><a xlink:title=" ">
<polygon fill="#e0e0e0" stroke="#999999" points="820.9,-74 755.9,-74 755.9,-55 820.9,-55 820.9,-74"/>
<text text-anchor="middle" x="788.4" y="-62" font-family="Helvetica,sans-Serif" font-size="10.00">stdexcept</text>
</a>
</g>
</g>
<!-- Node29&#45;&gt;Node40 -->
<g id="edge62" class="edge">
<title>Node29&#45;&gt;Node40</title>
<path fill="none" stroke="#63b8ff" d="M834.32,-109.75C826.31,-102.03 814.44,-90.6 804.78,-81.28"/>
<polygon fill="#63b8ff" stroke="#63b8ff" points="806.94,-78.51 797.31,-74.09 802.08,-83.55 806.94,-78.51"/>
</g>
<!-- Node41 -->
<g id="node41" class="node">
<title>Node41</title>
<g id="a_node41"><a xlink:title=" ">
<polygon fill="#e0e0e0" stroke="#999999" points="883.4,-74 839.4,-74 839.4,-55 883.4,-55 883.4,-74"/>
<text text-anchor="middle" x="861.4" y="-62" font-family="Helvetica,sans-Serif" font-size="10.00">limits</text>
</a>
</g>
</g>
<!-- Node29&#45;&gt;Node41 -->
<g id="edge64" class="edge">
<title>Node29&#45;&gt;Node41</title>
<path fill="none" stroke="#63b8ff" d="M846.37,-109.75C848.76,-102.72 852.19,-92.62 855.17,-83.84"/>
<polygon fill="#63b8ff" stroke="#63b8ff" points="858.58,-84.68 858.48,-74.09 851.95,-82.43 858.58,-84.68"/>
</g>
<!-- Node42 -->
<g id="node42" class="node">
<title>Node42</title>
<g id="a_node42"><a xlink:title=" ">
<polygon fill="#e0e0e0" stroke="#999999" points="1065.9,-74 1000.9,-74 1000.9,-55 1065.9,-55 1065.9,-74"/>
<text text-anchor="middle" x="1033.4" y="-62" font-family="Helvetica,sans-Serif" font-size="10.00">exception</text>
</a>
</g>
</g>
<!-- Node29&#45;&gt;Node42 -->
<g id="edge65" class="edge">
<title>Node29&#45;&gt;Node42</title>
<path fill="none" stroke="#63b8ff" d="M873.93,-109.98C906.1,-101.01 956.96,-86.82 992.57,-76.89"/>
<polygon fill="#63b8ff" stroke="#63b8ff" points="993.94,-80.14 1002.63,-74.08 992.06,-73.4 993.94,-80.14"/>
</g>
<!-- Node43 -->
<g id="node43" class="node">
<title>Node43</title>
<g id="a_node43"><a xlink:title=" ">
<polygon fill="#e0e0e0" stroke="#999999" points="1148.4,-74 1084.4,-74 1084.4,-55 1148.4,-55 1148.4,-74"/>
<text text-anchor="middle" x="1116.4" y="-62" font-family="Helvetica,sans-Serif" font-size="10.00">sys/stat.h</text>
</a>
</g>
</g>
<!-- Node29&#45;&gt;Node43 -->
<g id="edge66" class="edge">
<title>Node29&#45;&gt;Node43</title>
<path fill="none" stroke="#63b8ff" d="M889.22,-109.92C933.94,-101.5 1004.18,-88.15 1074.29,-74.2"/>
<polygon fill="#63b8ff" stroke="#63b8ff" points="1075.06,-77.61 1084.18,-72.23 1073.69,-70.75 1075.06,-77.61"/>
</g>
<!-- Node44 -->
<g id="node44" class="node">
<title>Node44</title>
<g id="a_node44"><a xlink:title=" ">
<polygon fill="#e0e0e0" stroke="#999999" points="1238.4,-74 1166.4,-74 1166.4,-55 1238.4,-55 1238.4,-74"/>
<text text-anchor="middle" x="1202.4" y="-62" font-family="Helvetica,sans-Serif" font-size="10.00">sys/types.h</text>
</a>
</g>
</g>
<!-- Node29&#45;&gt;Node44 -->
<g id="edge67" class="edge">
<title>Node29&#45;&gt;Node44</title>
<path fill="none" stroke="#63b8ff" d="M893,-111.75C964.25,-102.02 1093.1,-84.23 1156.17,-74.12"/>
<polygon fill="#63b8ff" stroke="#63b8ff" points="1156.77,-77.57 1166.08,-72.51 1155.64,-70.66 1156.77,-77.57"/>
</g>
</g>
</svg>
