<?xml version="1.0" encoding="UTF-8" standalone="no"?>
<!DOCTYPE svg PUBLIC "-//W3C//DTD SVG 1.1//EN"
 "http://www.w3.org/Graphics/SVG/1.1/DTD/svg11.dtd">
<!-- Generated by graphviz version 5.0.1 (0)
 -->
<!-- Title: GenerateRandomTensor.cxx Pages: 1 -->
<svg width="2148pt" height="375pt"
 viewBox="0.00 0.00 2147.50 375.00" xmlns="http://www.w3.org/2000/svg" xmlns:xlink="http://www.w3.org/1999/xlink">
<g id="graph0" class="graph" transform="scale(1 1) rotate(0) translate(4 371)">
<title>GenerateRandomTensor.cxx</title>
<!-- Node1 -->
<g id="node1" class="node">
<title>Node1</title>
<g id="a_node1"><a xlink:title=" ">
<polygon fill="#bfbfbf" stroke="black" points="758,-347.5 758,-366.5 911,-366.5 911,-347.5 758,-347.5"/>
<text text-anchor="middle" x="834.5" y="-354.5" font-family="Helvetica,sans-Serif" font-size="10.00">GenerateRandomTensor.cxx</text>
</a>
</g>
</g>
<!-- Node2 -->
<g id="node2" class="node">
<title>Node2</title>
<g id="a_node2"><a xlink:href="GenerateRandomTensor_8hpp.html" target="_top" xlink:title=" ">
<polygon fill="none" stroke="black" points="541.5,-280.5 541.5,-310.5 699.5,-310.5 699.5,-280.5 541.5,-280.5"/>
<text text-anchor="start" x="549.5" y="-298.5" font-family="Helvetica,sans-Serif" font-size="10.00">algorithms/GenerateRandom</text>
<text text-anchor="middle" x="620.5" y="-287.5" font-family="Helvetica,sans-Serif" font-size="10.00">Tensor.hpp</text>
</a>
</g>
</g>
<!-- Node1&#45;&gt;Node2 -->
<g id="edge1" class="edge">
<title>Node1&#45;&gt;Node2</title>
<path fill="none" stroke="midnightblue" d="M803.84,-347.48C771.81,-338.57 720.73,-324.37 680.62,-313.22"/>
<polygon fill="midnightblue" stroke="midnightblue" points="681.51,-309.83 670.94,-310.52 679.63,-316.57 681.51,-309.83"/>
</g>
<!-- Node22 -->
<g id="node22" class="node">
<title>Node22</title>
<g id="a_node22"><a xlink:href="Tensor_8hpp.html" target="_top" xlink:title=" ">
<polygon fill="none" stroke="black" points="1194,-112.5 1194,-131.5 1281,-131.5 1281,-112.5 1194,-112.5"/>
<text text-anchor="middle" x="1237.5" y="-119.5" font-family="Helvetica,sans-Serif" font-size="10.00">util/Tensor.hpp</text>
</a>
</g>
</g>
<!-- Node1&#45;&gt;Node22 -->
<g id="edge71" class="edge">
<title>Node1&#45;&gt;Node22</title>
<path fill="none" stroke="midnightblue" d="M849.32,-347.43C909.92,-312.39 1139.17,-179.85 1213.84,-136.68"/>
<polygon fill="midnightblue" stroke="midnightblue" points="1215.64,-139.68 1222.54,-131.65 1212.14,-133.62 1215.64,-139.68"/>
</g>
<!-- Node26 -->
<g id="node26" class="node">
<title>Node26</title>
<g id="a_node26"><a xlink:href="RandomTensor_8hpp.html" target="_top" xlink:title=" ">
<polygon fill="none" stroke="black" points="718,-286 718,-305 855,-305 855,-286 718,-286"/>
<text text-anchor="middle" x="786.5" y="-293" font-family="Helvetica,sans-Serif" font-size="10.00">math/RandomTensor.hpp</text>
</a>
</g>
</g>
<!-- Node1&#45;&gt;Node26 -->
<g id="edge35" class="edge">
<title>Node1&#45;&gt;Node26</title>
<path fill="none" stroke="midnightblue" d="M827.62,-347.48C820.35,-338.46 808.7,-324.02 799.66,-312.81"/>
<polygon fill="midnightblue" stroke="midnightblue" points="802.37,-310.59 793.36,-305.01 796.92,-314.99 802.37,-310.59"/>
</g>
<!-- Node27 -->
<g id="node27" class="node">
<title>Node27</title>
<g id="a_node27"><a xlink:href="Sisi4s_8hpp.html" target="_top" xlink:title=" ">
<polygon fill="none" stroke="black" points="841.5,-224.5 841.5,-243.5 907.5,-243.5 907.5,-224.5 841.5,-224.5"/>
<text text-anchor="middle" x="874.5" y="-231.5" font-family="Helvetica,sans-Serif" font-size="10.00">Sisi4s.hpp</text>
</a>
</g>
</g>
<!-- Node1&#45;&gt;Node27 -->
<g id="edge70" class="edge">
<title>Node1&#45;&gt;Node27</title>
<path fill="none" stroke="midnightblue" d="M842.03,-347.37C849.08,-338.77 859.28,-324.89 864.5,-311 871.51,-292.35 873.74,-269.53 874.38,-253.79"/>
<polygon fill="midnightblue" stroke="midnightblue" points="877.88,-253.82 874.62,-243.74 870.89,-253.66 877.88,-253.82"/>
</g>
<!-- Node3 -->
<g id="node3" class="node">
<title>Node3</title>
<g id="a_node3"><a xlink:href="Algorithm_8hpp.html" target="_top" xlink:title=" ">
<polygon fill="none" stroke="black" points="550,-224.5 550,-243.5 691,-243.5 691,-224.5 550,-224.5"/>
<text text-anchor="middle" x="620.5" y="-231.5" font-family="Helvetica,sans-Serif" font-size="10.00">algorithms/Algorithm.hpp</text>
</a>
</g>
</g>
<!-- Node2&#45;&gt;Node3 -->
<g id="edge2" class="edge">
<title>Node2&#45;&gt;Node3</title>
<path fill="none" stroke="midnightblue" d="M620.5,-280.4C620.5,-272.47 620.5,-262.46 620.5,-253.86"/>
<polygon fill="midnightblue" stroke="midnightblue" points="624,-253.66 620.5,-243.66 617,-253.66 624,-253.66"/>
</g>
<!-- Node4 -->
<g id="node4" class="node">
<title>Node4</title>
<g id="a_node4"><a xlink:href="Data_8hpp.html" target="_top" xlink:title=" ">
<polygon fill="none" stroke="black" points="449,-168.5 449,-187.5 510,-187.5 510,-168.5 449,-168.5"/>
<text text-anchor="middle" x="479.5" y="-175.5" font-family="Helvetica,sans-Serif" font-size="10.00">Data.hpp</text>
</a>
</g>
</g>
<!-- Node3&#45;&gt;Node4 -->
<g id="edge3" class="edge">
<title>Node3&#45;&gt;Node4</title>
<path fill="none" stroke="midnightblue" d="M598.16,-224.44C574.75,-215.48 537.76,-201.31 511.31,-191.18"/>
<polygon fill="midnightblue" stroke="midnightblue" points="512.33,-187.82 501.74,-187.52 509.82,-194.36 512.33,-187.82"/>
</g>
<!-- Node11 -->
<g id="node11" class="node">
<title>Node11</title>
<g id="a_node11"><a xlink:title=" ">
<polygon fill="none" stroke="#bfbfbf" points="602.5,-0.5 602.5,-19.5 658.5,-19.5 658.5,-0.5 602.5,-0.5"/>
<text text-anchor="middle" x="630.5" y="-7.5" font-family="Helvetica,sans-Serif" font-size="10.00">sstream</text>
</a>
</g>
</g>
<!-- Node3&#45;&gt;Node11 -->
<g id="edge33" class="edge">
<title>Node3&#45;&gt;Node11</title>
<path fill="none" stroke="midnightblue" d="M613.79,-224.47C593.97,-198.19 538.94,-116.52 569.5,-56 576.31,-42.52 589.27,-32.08 601.5,-24.67"/>
<polygon fill="midnightblue" stroke="midnightblue" points="603.57,-27.52 610.59,-19.59 600.16,-21.41 603.57,-27.52"/>
</g>
<!-- Node13 -->
<g id="node13" class="node">
<title>Node13</title>
<g id="a_node13"><a xlink:title=" ">
<polygon fill="none" stroke="#bfbfbf" points="241.5,-56.5 241.5,-75.5 285.5,-75.5 285.5,-56.5 241.5,-56.5"/>
<text text-anchor="middle" x="263.5" y="-63.5" font-family="Helvetica,sans-Serif" font-size="10.00">string</text>
</a>
</g>
</g>
<!-- Node3&#45;&gt;Node13 -->
<g id="edge31" class="edge">
<title>Node3&#45;&gt;Node13</title>
<path fill="none" stroke="midnightblue" d="M555.7,-224.48C461.4,-210.58 293.73,-179.7 258.5,-132 248.64,-118.65 251.72,-99.27 256.14,-85.15"/>
<polygon fill="midnightblue" stroke="midnightblue" points="259.5,-86.15 259.6,-75.56 252.92,-83.78 259.5,-86.15"/>
</g>
<!-- Node21 -->
<g id="node21" class="node">
<title>Node21</title>
<g id="a_node21"><a xlink:title=" ">
<polygon fill="none" stroke="#bfbfbf" points="635,-56.5 635,-75.5 682,-75.5 682,-56.5 635,-56.5"/>
<text text-anchor="middle" x="658.5" y="-63.5" font-family="Helvetica,sans-Serif" font-size="10.00">vector</text>
</a>
</g>
</g>
<!-- Node3&#45;&gt;Node21 -->
<g id="edge32" class="edge">
<title>Node3&#45;&gt;Node21</title>
<path fill="none" stroke="midnightblue" d="M623.46,-224.45C626.5,-215.45 631.24,-200.85 634.5,-188 643.61,-152.15 651.35,-109.59 655.42,-85.7"/>
<polygon fill="midnightblue" stroke="midnightblue" points="658.92,-86.02 657.12,-75.58 652.02,-84.86 658.92,-86.02"/>
</g>
<!-- Node3&#45;&gt;Node22 -->
<g id="edge34" class="edge">
<title>Node3&#45;&gt;Node22</title>
<path fill="none" stroke="midnightblue" d="M668.4,-224.46C781.61,-204.28 1065.08,-153.74 1183.84,-132.57"/>
<polygon fill="midnightblue" stroke="midnightblue" points="1184.56,-135.99 1193.79,-130.79 1183.34,-129.1 1184.56,-135.99"/>
</g>
<!-- Node5 -->
<g id="node5" class="node">
<title>Node5</title>
<g id="a_node5"><a xlink:href="Log_8hpp.html" target="_top" xlink:title=" ">
<polygon fill="none" stroke="black" points="442.5,-112.5 442.5,-131.5 516.5,-131.5 516.5,-112.5 442.5,-112.5"/>
<text text-anchor="middle" x="479.5" y="-119.5" font-family="Helvetica,sans-Serif" font-size="10.00">util/Log.hpp</text>
</a>
</g>
</g>
<!-- Node4&#45;&gt;Node5 -->
<g id="edge4" class="edge">
<title>Node4&#45;&gt;Node5</title>
<path fill="none" stroke="midnightblue" d="M479.5,-168.08C479.5,-161.01 479.5,-150.86 479.5,-141.99"/>
<polygon fill="midnightblue" stroke="midnightblue" points="483,-141.75 479.5,-131.75 476,-141.75 483,-141.75"/>
</g>
<!-- Node4&#45;&gt;Node13 -->
<g id="edge21" class="edge">
<title>Node4&#45;&gt;Node13</title>
<path fill="none" stroke="midnightblue" d="M448.6,-174.47C397.11,-169.59 297.06,-157.08 273.5,-132 262.15,-119.92 260.46,-100.63 261.12,-86.2"/>
<polygon fill="midnightblue" stroke="midnightblue" points="264.64,-86.16 262.01,-75.9 257.66,-85.56 264.64,-86.16"/>
</g>
<!-- Node17 -->
<g id="node17" class="node">
<title>Node17</title>
<g id="a_node17"><a xlink:href="Float_8hpp.html" target="_top" xlink:title=" ">
<polygon fill="none" stroke="black" points="94,-56.5 94,-75.5 185,-75.5 185,-56.5 94,-56.5"/>
<text text-anchor="middle" x="139.5" y="-63.5" font-family="Helvetica,sans-Serif" font-size="10.00">math/Float.hpp</text>
</a>
</g>
</g>
<!-- Node4&#45;&gt;Node17 -->
<g id="edge16" class="edge">
<title>Node4&#45;&gt;Node17</title>
<path fill="none" stroke="midnightblue" d="M448.68,-173.68C405.24,-168.34 323.96,-155.93 258.5,-132 222.35,-118.79 183.85,-95.94 160.73,-81.16"/>
<polygon fill="midnightblue" stroke="midnightblue" points="162.39,-78.06 152.1,-75.55 158.58,-83.93 162.39,-78.06"/>
</g>
<!-- Node18 -->
<g id="node18" class="node">
<title>Node18</title>
<g id="a_node18"><a xlink:href="Complex_8hpp.html" target="_top" xlink:title=" ">
<polygon fill="none" stroke="black" points="40.5,-112.5 40.5,-131.5 150.5,-131.5 150.5,-112.5 40.5,-112.5"/>
<text text-anchor="middle" x="95.5" y="-119.5" font-family="Helvetica,sans-Serif" font-size="10.00">math/Complex.hpp</text>
</a>
</g>
</g>
<!-- Node4&#45;&gt;Node18 -->
<g id="edge18" class="edge">
<title>Node4&#45;&gt;Node18</title>
<path fill="none" stroke="midnightblue" d="M448.72,-172.67C386.47,-163.92 244.42,-143.94 160.66,-132.16"/>
<polygon fill="midnightblue" stroke="midnightblue" points="161.13,-128.7 150.74,-130.77 160.16,-135.63 161.13,-128.7"/>
</g>
<!-- Node20 -->
<g id="node20" class="node">
<title>Node20</title>
<g id="a_node20"><a xlink:title=" ">
<polygon fill="none" stroke="#bfbfbf" points="578.5,-56.5 578.5,-75.5 616.5,-75.5 616.5,-56.5 578.5,-56.5"/>
<text text-anchor="middle" x="597.5" y="-63.5" font-family="Helvetica,sans-Serif" font-size="10.00">map</text>
</a>
</g>
</g>
<!-- Node4&#45;&gt;Node20 -->
<g id="edge22" class="edge">
<title>Node4&#45;&gt;Node20</title>
<path fill="none" stroke="midnightblue" d="M488.76,-168.37C508.66,-149.81 555.76,-105.91 580.94,-82.44"/>
<polygon fill="midnightblue" stroke="midnightblue" points="583.36,-84.97 588.28,-75.59 578.58,-79.85 583.36,-84.97"/>
</g>
<!-- Node4&#45;&gt;Node21 -->
<g id="edge23" class="edge">
<title>Node4&#45;&gt;Node21</title>
<path fill="none" stroke="midnightblue" d="M493.55,-168.37C524.39,-149.41 598.29,-104 635.81,-80.94"/>
<polygon fill="midnightblue" stroke="midnightblue" points="637.83,-83.81 644.52,-75.59 634.17,-77.85 637.83,-83.81"/>
</g>
<!-- Node4&#45;&gt;Node22 -->
<g id="edge24" class="edge">
<title>Node4&#45;&gt;Node22</title>
<path fill="none" stroke="midnightblue" d="M510.01,-175.25C604.4,-169.77 900.01,-152.1 1144.5,-132 1157.26,-130.95 1170.98,-129.69 1183.87,-128.46"/>
<polygon fill="midnightblue" stroke="midnightblue" points="1184.38,-131.92 1194,-127.47 1183.7,-124.96 1184.38,-131.92"/>
</g>
<!-- Node25 -->
<g id="node25" class="node">
<title>Node25</title>
<g id="a_node25"><a xlink:href="Exception_8hpp.html" target="_top" xlink:title=" ">
<polygon fill="none" stroke="black" points="282.5,-112.5 282.5,-131.5 386.5,-131.5 386.5,-112.5 282.5,-112.5"/>
<text text-anchor="middle" x="334.5" y="-119.5" font-family="Helvetica,sans-Serif" font-size="10.00">util/Exception.hpp</text>
</a>
</g>
</g>
<!-- Node4&#45;&gt;Node25 -->
<g id="edge27" class="edge">
<title>Node4&#45;&gt;Node25</title>
<path fill="none" stroke="midnightblue" d="M456.52,-168.44C432.34,-159.44 394.08,-145.19 366.85,-135.05"/>
<polygon fill="midnightblue" stroke="midnightblue" points="367.96,-131.73 357.37,-131.52 365.52,-138.29 367.96,-131.73"/>
</g>
<!-- Node6 -->
<g id="node6" class="node">
<title>Node6</title>
<g id="a_node6"><a xlink:href="Time_8hpp.html" target="_top" xlink:title=" ">
<polygon fill="none" stroke="black" points="739,-56.5 739,-75.5 820,-75.5 820,-56.5 739,-56.5"/>
<text text-anchor="middle" x="779.5" y="-63.5" font-family="Helvetica,sans-Serif" font-size="10.00">util/Time.hpp</text>
</a>
</g>
</g>
<!-- Node5&#45;&gt;Node6 -->
<g id="edge5" class="edge">
<title>Node5&#45;&gt;Node6</title>
<path fill="none" stroke="midnightblue" d="M516.59,-114.32C569.94,-104.72 668.52,-86.98 728.63,-76.16"/>
<polygon fill="midnightblue" stroke="midnightblue" points="729.44,-79.57 738.66,-74.35 728.2,-72.68 729.44,-79.57"/>
</g>
<!-- Node5&#45;&gt;Node13 -->
<g id="edge12" class="edge">
<title>Node5&#45;&gt;Node13</title>
<path fill="none" stroke="midnightblue" d="M442.17,-112.43C406.77,-104.19 351.86,-91.11 295.59,-76.21"/>
<polygon fill="midnightblue" stroke="midnightblue" points="296.38,-72.8 285.82,-73.61 294.58,-79.56 296.38,-72.8"/>
</g>
<!-- Node14 -->
<g id="node14" class="node">
<title>Node14</title>
<g id="a_node14"><a xlink:title=" ">
<polygon fill="none" stroke="#bfbfbf" points="303.5,-56.5 303.5,-75.5 363.5,-75.5 363.5,-56.5 303.5,-56.5"/>
<text text-anchor="middle" x="333.5" y="-63.5" font-family="Helvetica,sans-Serif" font-size="10.00">iostream</text>
</a>
</g>
</g>
<!-- Node5&#45;&gt;Node14 -->
<g id="edge13" class="edge">
<title>Node5&#45;&gt;Node14</title>
<path fill="none" stroke="midnightblue" d="M456.37,-112.44C432.02,-103.44 393.49,-89.19 366.08,-79.05"/>
<polygon fill="midnightblue" stroke="midnightblue" points="367.12,-75.7 356.53,-75.52 364.69,-82.27 367.12,-75.7"/>
</g>
<!-- Node15 -->
<g id="node15" class="node">
<title>Node15</title>
<g id="a_node15"><a xlink:title=" ">
<polygon fill="none" stroke="#bfbfbf" points="382,-56.5 382,-75.5 449,-75.5 449,-56.5 382,-56.5"/>
<text text-anchor="middle" x="415.5" y="-63.5" font-family="Helvetica,sans-Serif" font-size="10.00">streambuf</text>
</a>
</g>
</g>
<!-- Node5&#45;&gt;Node15 -->
<g id="edge14" class="edge">
<title>Node5&#45;&gt;Node15</title>
<path fill="none" stroke="midnightblue" d="M469.22,-112.32C459.66,-104.26 445.22,-92.08 433.72,-82.37"/>
<polygon fill="midnightblue" stroke="midnightblue" points="435.87,-79.61 425.97,-75.83 431.36,-84.96 435.87,-79.61"/>
</g>
<!-- Node16 -->
<g id="node16" class="node">
<title>Node16</title>
<g id="a_node16"><a xlink:title=" ">
<polygon fill="none" stroke="#bfbfbf" points="467,-56.5 467,-75.5 522,-75.5 522,-56.5 467,-56.5"/>
<text text-anchor="middle" x="494.5" y="-63.5" font-family="Helvetica,sans-Serif" font-size="10.00">fstream</text>
</a>
</g>
</g>
<!-- Node5&#45;&gt;Node16 -->
<g id="edge15" class="edge">
<title>Node5&#45;&gt;Node16</title>
<path fill="none" stroke="midnightblue" d="M481.98,-112.08C483.99,-104.85 486.89,-94.41 489.39,-85.4"/>
<polygon fill="midnightblue" stroke="midnightblue" points="492.76,-86.32 492.07,-75.75 486.02,-84.45 492.76,-86.32"/>
</g>
<!-- Node7 -->
<g id="node7" class="node">
<title>Node7</title>
<g id="a_node7"><a xlink:title=" ">
<polygon fill="none" stroke="#bfbfbf" points="757.5,-0.5 757.5,-19.5 801.5,-19.5 801.5,-0.5 757.5,-0.5"/>
<text text-anchor="middle" x="779.5" y="-7.5" font-family="Helvetica,sans-Serif" font-size="10.00">ctime</text>
</a>
</g>
</g>
<!-- Node6&#45;&gt;Node7 -->
<g id="edge6" class="edge">
<title>Node6&#45;&gt;Node7</title>
<path fill="none" stroke="midnightblue" d="M779.5,-56.08C779.5,-49.01 779.5,-38.86 779.5,-29.99"/>
<polygon fill="midnightblue" stroke="midnightblue" points="783,-29.75 779.5,-19.75 776,-29.75 783,-29.75"/>
</g>
<!-- Node8 -->
<g id="node8" class="node">
<title>Node8</title>
<g id="a_node8"><a xlink:title=" ">
<polygon fill="none" stroke="#bfbfbf" points="821.5,-0.5 821.5,-19.5 871.5,-19.5 871.5,-0.5 821.5,-0.5"/>
<text text-anchor="middle" x="846.5" y="-7.5" font-family="Helvetica,sans-Serif" font-size="10.00">cstdint</text>
</a>
</g>
</g>
<!-- Node6&#45;&gt;Node8 -->
<g id="edge7" class="edge">
<title>Node6&#45;&gt;Node8</title>
<path fill="none" stroke="midnightblue" d="M790.26,-56.32C800.27,-48.26 815.39,-36.08 827.43,-26.37"/>
<polygon fill="midnightblue" stroke="midnightblue" points="829.95,-28.83 835.54,-19.83 825.56,-23.38 829.95,-28.83"/>
</g>
<!-- Node9 -->
<g id="node9" class="node">
<title>Node9</title>
<g id="a_node9"><a xlink:title=" ">
<polygon fill="none" stroke="#bfbfbf" points="359,-0.5 359,-19.5 416,-19.5 416,-0.5 359,-0.5"/>
<text text-anchor="middle" x="387.5" y="-7.5" font-family="Helvetica,sans-Serif" font-size="10.00">ostream</text>
</a>
</g>
</g>
<!-- Node6&#45;&gt;Node9 -->
<g id="edge8" class="edge">
<title>Node6&#45;&gt;Node9</title>
<path fill="none" stroke="midnightblue" d="M738.66,-59.37C662.78,-48.92 501,-26.64 426.52,-16.38"/>
<polygon fill="midnightblue" stroke="midnightblue" points="426.57,-12.85 416.18,-14.95 425.61,-19.78 426.57,-12.85"/>
</g>
<!-- Node10 -->
<g id="node10" class="node">
<title>Node10</title>
<g id="a_node10"><a xlink:title=" ">
<polygon fill="none" stroke="#bfbfbf" points="1112.5,-0.5 1112.5,-19.5 1168.5,-19.5 1168.5,-0.5 1112.5,-0.5"/>
<text text-anchor="middle" x="1140.5" y="-7.5" font-family="Helvetica,sans-Serif" font-size="10.00">iomanip</text>
</a>
</g>
</g>
<!-- Node6&#45;&gt;Node10 -->
<g id="edge9" class="edge">
<title>Node6&#45;&gt;Node10</title>
<path fill="none" stroke="midnightblue" d="M820.21,-58.91C890.54,-48.39 1033.84,-26.96 1102.35,-16.71"/>
<polygon fill="midnightblue" stroke="midnightblue" points="1102.92,-20.16 1112.29,-15.22 1101.88,-13.24 1102.92,-20.16"/>
</g>
<!-- Node6&#45;&gt;Node11 -->
<g id="edge10" class="edge">
<title>Node6&#45;&gt;Node11</title>
<path fill="none" stroke="midnightblue" d="M755.89,-56.44C731.04,-47.44 691.73,-33.19 663.75,-23.05"/>
<polygon fill="midnightblue" stroke="midnightblue" points="664.59,-19.63 654,-19.52 662.21,-26.21 664.59,-19.63"/>
</g>
<!-- Node12 -->
<g id="node12" class="node">
<title>Node12</title>
<g id="a_node12"><a xlink:title=" ">
<polygon fill="none" stroke="#bfbfbf" points="1563,-0.5 1563,-19.5 1610,-19.5 1610,-0.5 1563,-0.5"/>
<text text-anchor="middle" x="1586.5" y="-7.5" font-family="Helvetica,sans-Serif" font-size="10.00">cmath</text>
</a>
</g>
</g>
<!-- Node6&#45;&gt;Node12 -->
<g id="edge11" class="edge">
<title>Node6&#45;&gt;Node12</title>
<path fill="none" stroke="midnightblue" d="M820.23,-60.55C835.38,-58.98 852.71,-57.29 868.5,-56 1131.8,-34.44 1450.15,-17.79 1552.84,-12.65"/>
<polygon fill="midnightblue" stroke="midnightblue" points="1553.11,-16.14 1562.92,-12.15 1552.76,-9.15 1553.11,-16.14"/>
</g>
<!-- Node17&#45;&gt;Node9 -->
<g id="edge17" class="edge">
<title>Node17&#45;&gt;Node9</title>
<path fill="none" stroke="midnightblue" d="M178.8,-56.44C225.4,-46.3 302.57,-29.49 348.88,-19.41"/>
<polygon fill="midnightblue" stroke="midnightblue" points="349.8,-22.79 358.83,-17.24 348.31,-15.95 349.8,-22.79"/>
</g>
<!-- Node18&#45;&gt;Node17 -->
<g id="edge19" class="edge">
<title>Node18&#45;&gt;Node17</title>
<path fill="none" stroke="midnightblue" d="M102.77,-112.08C109.04,-104.38 118.29,-93.03 125.93,-83.65"/>
<polygon fill="midnightblue" stroke="midnightblue" points="128.77,-85.71 132.37,-75.75 123.34,-81.29 128.77,-85.71"/>
</g>
<!-- Node19 -->
<g id="node19" class="node">
<title>Node19</title>
<g id="a_node19"><a xlink:title=" ">
<polygon fill="none" stroke="#bfbfbf" points="0,-56.5 0,-75.5 59,-75.5 59,-56.5 0,-56.5"/>
<text text-anchor="middle" x="29.5" y="-63.5" font-family="Helvetica,sans-Serif" font-size="10.00">complex</text>
</a>
</g>
</g>
<!-- Node18&#45;&gt;Node19 -->
<g id="edge20" class="edge">
<title>Node18&#45;&gt;Node19</title>
<path fill="none" stroke="midnightblue" d="M84.9,-112.32C75.04,-104.26 60.15,-92.08 48.28,-82.37"/>
<polygon fill="midnightblue" stroke="midnightblue" points="50.25,-79.46 40.3,-75.83 45.82,-84.88 50.25,-79.46"/>
</g>
<!-- Node23 -->
<g id="node23" class="node">
<title>Node23</title>
<g id="a_node23"><a xlink:href="CTF_8hpp.html" target="_top" xlink:title=" ">
<polygon fill="none" stroke="black" points="2065.5,-56.5 2065.5,-75.5 2139.5,-75.5 2139.5,-56.5 2065.5,-56.5"/>
<text text-anchor="middle" x="2102.5" y="-63.5" font-family="Helvetica,sans-Serif" font-size="10.00">util/CTF.hpp</text>
</a>
</g>
</g>
<!-- Node22&#45;&gt;Node23 -->
<g id="edge25" class="edge">
<title>Node22&#45;&gt;Node23</title>
<path fill="none" stroke="midnightblue" d="M1281.2,-120.72C1402.52,-119.5 1753.86,-112.89 2055.17,-75.98"/>
<polygon fill="midnightblue" stroke="midnightblue" points="2055.92,-79.42 2065.41,-74.71 2055.06,-72.47 2055.92,-79.42"/>
</g>
<!-- Node24 -->
<g id="node24" class="node">
<title>Node24</title>
<g id="a_node24"><a xlink:title=" ">
<polygon fill="none" stroke="#bfbfbf" points="2077.5,-0.5 2077.5,-19.5 2127.5,-19.5 2127.5,-0.5 2077.5,-0.5"/>
<text text-anchor="middle" x="2102.5" y="-7.5" font-family="Helvetica,sans-Serif" font-size="10.00">ctf.hpp</text>
</a>
</g>
</g>
<!-- Node23&#45;&gt;Node24 -->
<g id="edge26" class="edge">
<title>Node23&#45;&gt;Node24</title>
<path fill="none" stroke="midnightblue" d="M2102.5,-56.08C2102.5,-49.01 2102.5,-38.86 2102.5,-29.99"/>
<polygon fill="midnightblue" stroke="midnightblue" points="2106,-29.75 2102.5,-19.75 2099,-29.75 2106,-29.75"/>
</g>
<!-- Node25&#45;&gt;Node11 -->
<g id="edge29" class="edge">
<title>Node25&#45;&gt;Node11</title>
<path fill="none" stroke="midnightblue" d="M297.96,-112.47C259.97,-101.96 209.07,-82.23 232.5,-56 256.25,-29.41 497.32,-16.55 592.32,-12.48"/>
<polygon fill="midnightblue" stroke="midnightblue" points="592.52,-15.97 602.37,-12.06 592.23,-8.98 592.52,-15.97"/>
</g>
<!-- Node25&#45;&gt;Node13 -->
<g id="edge28" class="edge">
<title>Node25&#45;&gt;Node13</title>
<path fill="none" stroke="midnightblue" d="M323.09,-112.32C312.39,-104.18 296.16,-91.84 283.34,-82.09"/>
<polygon fill="midnightblue" stroke="midnightblue" points="285.19,-79.1 275.11,-75.83 280.96,-84.67 285.19,-79.1"/>
</g>
<!-- Node25&#45;&gt;Node14 -->
<g id="edge30" class="edge">
<title>Node25&#45;&gt;Node14</title>
<path fill="none" stroke="midnightblue" d="M334.33,-112.08C334.2,-105.01 334.02,-94.86 333.85,-85.99"/>
<polygon fill="midnightblue" stroke="midnightblue" points="337.35,-85.68 333.66,-75.75 330.35,-85.81 337.35,-85.68"/>
</g>
<!-- Node26&#45;&gt;Node18 -->
<g id="edge36" class="edge">
<title>Node26&#45;&gt;Node18</title>
<path fill="none" stroke="midnightblue" d="M742.2,-285.99C657.68,-269.45 467.79,-230.81 310.5,-188 247.28,-170.79 174.42,-148.17 131.82,-134.66"/>
<polygon fill="midnightblue" stroke="midnightblue" points="132.77,-131.28 122.18,-131.59 130.64,-137.96 132.77,-131.28"/>
</g>
<!-- Node26&#45;&gt;Node19 -->
<g id="edge68" class="edge">
<title>Node26&#45;&gt;Node19</title>
<path fill="none" stroke="midnightblue" d="M742.42,-285.96C731.36,-283.92 719.51,-281.8 708.5,-280 595.98,-261.58 566.29,-266.41 454.5,-244 263.81,-205.78 152.16,-284.52 31.5,-132 21.33,-119.14 22.05,-99.96 24.58,-85.77"/>
<polygon fill="midnightblue" stroke="midnightblue" points="28.08,-86.19 26.83,-75.67 21.24,-84.67 28.08,-86.19"/>
</g>
<!-- Node26&#45;&gt;Node22 -->
<g id="edge67" class="edge">
<title>Node26&#45;&gt;Node22</title>
<path fill="none" stroke="midnightblue" d="M808.87,-286C882.72,-257.91 1119.04,-168.05 1205.46,-135.18"/>
<polygon fill="midnightblue" stroke="midnightblue" points="1206.9,-138.38 1215,-131.56 1204.41,-131.84 1206.9,-138.38"/>
</g>
<!-- Node26&#45;&gt;Node27 -->
<g id="edge37" class="edge">
<title>Node26&#45;&gt;Node27</title>
<path fill="none" stroke="midnightblue" d="M799.11,-285.98C813.22,-276.43 836.33,-260.81 853.25,-249.37"/>
<polygon fill="midnightblue" stroke="midnightblue" points="855.59,-252.01 861.92,-243.51 851.67,-246.21 855.59,-252.01"/>
</g>
<!-- Node45 -->
<g id="node45" class="node">
<title>Node45</title>
<g id="a_node45"><a xlink:title=" ">
<polygon fill="none" stroke="#bfbfbf" points="759.5,-224.5 759.5,-243.5 813.5,-243.5 813.5,-224.5 759.5,-224.5"/>
<text text-anchor="middle" x="786.5" y="-231.5" font-family="Helvetica,sans-Serif" font-size="10.00">random</text>
</a>
</g>
</g>
<!-- Node26&#45;&gt;Node45 -->
<g id="edge69" class="edge">
<title>Node26&#45;&gt;Node45</title>
<path fill="none" stroke="midnightblue" d="M786.5,-285.98C786.5,-277.58 786.5,-264.48 786.5,-253.66"/>
<polygon fill="midnightblue" stroke="midnightblue" points="790,-253.51 786.5,-243.51 783,-253.51 790,-253.51"/>
</g>
<!-- Node27&#45;&gt;Node6 -->
<g id="edge38" class="edge">
<title>Node27&#45;&gt;Node6</title>
<path fill="none" stroke="midnightblue" d="M872.98,-224.22C870.52,-211.37 864.98,-186.92 855.5,-168 839.05,-135.19 811.66,-102.14 794.64,-83.17"/>
<polygon fill="midnightblue" stroke="midnightblue" points="797.16,-80.74 787.83,-75.72 791.99,-85.46 797.16,-80.74"/>
</g>
<!-- Node27&#45;&gt;Node23 -->
<g id="edge39" class="edge">
<title>Node27&#45;&gt;Node23</title>
<path fill="none" stroke="midnightblue" d="M899.76,-224.46C947.92,-207.98 1055.99,-170.04 1144.5,-132 1163.13,-123.99 1165.84,-116.97 1185.5,-112 1370.29,-65.29 1848.37,-97.58 2055.46,-75.87"/>
<polygon fill="midnightblue" stroke="midnightblue" points="2055.87,-79.34 2065.42,-74.76 2055.09,-72.39 2055.87,-79.34"/>
</g>
<!-- Node28 -->
<g id="node28" class="node">
<title>Node28</title>
<g id="a_node28"><a xlink:href="Options_8hpp.html" target="_top" xlink:title=" ">
<polygon fill="none" stroke="black" points="771,-168.5 771,-187.5 846,-187.5 846,-168.5 771,-168.5"/>
<text text-anchor="middle" x="808.5" y="-175.5" font-family="Helvetica,sans-Serif" font-size="10.00">Options.hpp</text>
</a>
</g>
</g>
<!-- Node27&#45;&gt;Node28 -->
<g id="edge40" class="edge">
<title>Node27&#45;&gt;Node28</title>
<path fill="none" stroke="midnightblue" d="M863.9,-224.32C854.04,-216.26 839.15,-204.08 827.28,-194.37"/>
<polygon fill="midnightblue" stroke="midnightblue" points="829.25,-191.46 819.3,-187.83 824.82,-196.88 829.25,-191.46"/>
</g>
<!-- Node28&#45;&gt;Node13 -->
<g id="edge41" class="edge">
<title>Node28&#45;&gt;Node13</title>
<path fill="none" stroke="midnightblue" d="M770.84,-176.97C702.18,-175.93 552.76,-169.15 433.5,-132 415.28,-126.32 413.03,-119.55 395.5,-112 362.17,-97.65 322.63,-84.68 295.57,-76.39"/>
<polygon fill="midnightblue" stroke="midnightblue" points="296.44,-73 285.85,-73.45 294.41,-79.7 296.44,-73"/>
</g>
<!-- Node29 -->
<g id="node29" class="node">
<title>Node29</title>
<g id="a_node29"><a xlink:href="CLI11_8hpp.html" target="_top" xlink:title=" ">
<polygon fill="none" stroke="black" points="1036,-112.5 1036,-131.5 1135,-131.5 1135,-112.5 1036,-112.5"/>
<text text-anchor="middle" x="1085.5" y="-119.5" font-family="Helvetica,sans-Serif" font-size="10.00">extern/CLI11.hpp</text>
</a>
</g>
</g>
<!-- Node28&#45;&gt;Node29 -->
<g id="edge42" class="edge">
<title>Node28&#45;&gt;Node29</title>
<path fill="none" stroke="midnightblue" d="M846.15,-169.66C894.05,-160.32 977.11,-144.13 1031.69,-133.49"/>
<polygon fill="midnightblue" stroke="midnightblue" points="1032.39,-136.92 1041.54,-131.57 1031.05,-130.05 1032.39,-136.92"/>
</g>
<!-- Node29&#45;&gt;Node8 -->
<g id="edge56" class="edge">
<title>Node29&#45;&gt;Node8</title>
<path fill="none" stroke="midnightblue" d="M1035.78,-116.41C979.62,-110.26 892.85,-97.55 868.5,-76 855.28,-64.3 849.99,-44.36 847.88,-29.64"/>
<polygon fill="midnightblue" stroke="midnightblue" points="851.36,-29.2 846.81,-19.63 844.4,-29.94 851.36,-29.2"/>
</g>
<!-- Node29&#45;&gt;Node10 -->
<g id="edge52" class="edge">
<title>Node29&#45;&gt;Node10</title>
<path fill="none" stroke="midnightblue" d="M1135.03,-114.06C1208.32,-103.55 1337.78,-83.99 1344.5,-76 1390.82,-20.94 1250.47,-11.98 1179.25,-10.89"/>
<polygon fill="midnightblue" stroke="midnightblue" points="1178.9,-7.38 1168.86,-10.78 1178.83,-14.38 1178.9,-7.38"/>
</g>
<!-- Node29&#45;&gt;Node11 -->
<g id="edge54" class="edge">
<title>Node29&#45;&gt;Node11</title>
<path fill="none" stroke="midnightblue" d="M1035.93,-121.61C965.77,-120.96 834.48,-114.1 730.5,-76 713.86,-69.9 674.78,-42.91 650.7,-25.68"/>
<polygon fill="midnightblue" stroke="midnightblue" points="652.44,-22.63 642.28,-19.62 648.35,-28.31 652.44,-22.63"/>
</g>
<!-- Node29&#45;&gt;Node12 -->
<g id="edge45" class="edge">
<title>Node29&#45;&gt;Node12</title>
<path fill="none" stroke="midnightblue" d="M1135.06,-113.56C1139.93,-112.97 1144.81,-112.44 1149.5,-112 1193.41,-107.92 1912.03,-107.88 1942.5,-76 1988.21,-28.17 1717.77,-15.05 1620.42,-11.89"/>
<polygon fill="midnightblue" stroke="midnightblue" points="1620.33,-8.39 1610.23,-11.58 1620.12,-15.39 1620.33,-8.39"/>
</g>
<!-- Node29&#45;&gt;Node13 -->
<g id="edge44" class="edge">
<title>Node29&#45;&gt;Node13</title>
<path fill="none" stroke="midnightblue" d="M1035.9,-119.64C889.06,-115.4 457.22,-101.24 295.94,-75.79"/>
<polygon fill="midnightblue" stroke="midnightblue" points="296.15,-72.28 285.71,-74.1 295.01,-79.18 296.15,-72.28"/>
</g>
<!-- Node29&#45;&gt;Node14 -->
<g id="edge57" class="edge">
<title>Node29&#45;&gt;Node14</title>
<path fill="none" stroke="midnightblue" d="M1035.59,-120.55C919.06,-118.92 620.25,-111.33 373.5,-76 373.4,-75.99 373.3,-75.97 373.2,-75.96"/>
<polygon fill="midnightblue" stroke="midnightblue" points="374,-72.54 363.55,-74.3 372.81,-79.44 374,-72.54"/>
</g>
<!-- Node29&#45;&gt;Node16 -->
<g id="edge49" class="edge">
<title>Node29&#45;&gt;Node16</title>
<path fill="none" stroke="midnightblue" d="M1036,-117.22C944.02,-110.08 740.56,-93.72 569.5,-76 557.39,-74.75 544.21,-73.22 532.32,-71.78"/>
<polygon fill="midnightblue" stroke="midnightblue" points="532.61,-68.29 522.26,-70.55 531.76,-75.24 532.61,-68.29"/>
</g>
<!-- Node29&#45;&gt;Node20 -->
<g id="edge48" class="edge">
<title>Node29&#45;&gt;Node20</title>
<path fill="none" stroke="midnightblue" d="M1035.77,-119.43C951.01,-116.02 773.46,-105.69 626.5,-76 626.4,-75.98 626.3,-75.96 626.2,-75.94"/>
<polygon fill="midnightblue" stroke="midnightblue" points="627.25,-72.59 616.7,-73.56 625.55,-79.38 627.25,-72.59"/>
</g>
<!-- Node29&#45;&gt;Node21 -->
<g id="edge62" class="edge">
<title>Node29&#45;&gt;Node21</title>
<path fill="none" stroke="midnightblue" d="M1035.8,-117.13C961.57,-110.93 817.53,-97.26 696.5,-76 695.04,-75.74 693.55,-75.47 692.05,-75.17"/>
<polygon fill="midnightblue" stroke="midnightblue" points="692.64,-71.72 682.13,-73.05 691.17,-78.56 692.64,-71.72"/>
</g>
<!-- Node30 -->
<g id="node30" class="node">
<title>Node30</title>
<g id="a_node30"><a xlink:title=" ">
<polygon fill="none" stroke="#bfbfbf" points="1989.5,-56.5 1989.5,-75.5 2047.5,-75.5 2047.5,-56.5 1989.5,-56.5"/>
<text text-anchor="middle" x="2018.5" y="-63.5" font-family="Helvetica,sans-Serif" font-size="10.00">memory</text>
</a>
</g>
</g>
<!-- Node29&#45;&gt;Node30 -->
<g id="edge43" class="edge">
<title>Node29&#45;&gt;Node30</title>
<path fill="none" stroke="midnightblue" d="M1135.06,-113.55C1139.93,-112.96 1144.81,-112.43 1149.5,-112 1515.42,-78.38 1610.9,-121.79 1975.5,-76 1976.78,-75.84 1978.07,-75.66 1979.38,-75.47"/>
<polygon fill="midnightblue" stroke="midnightblue" points="1980.2,-78.88 1989.46,-73.75 1979.02,-71.98 1980.2,-78.88"/>
</g>
<!-- Node31 -->
<g id="node31" class="node">
<title>Node31</title>
<g id="a_node31"><a xlink:title=" ">
<polygon fill="none" stroke="#bfbfbf" points="877,-56.5 877,-75.5 942,-75.5 942,-56.5 877,-56.5"/>
<text text-anchor="middle" x="909.5" y="-63.5" font-family="Helvetica,sans-Serif" font-size="10.00">functional</text>
</a>
</g>
</g>
<!-- Node29&#45;&gt;Node31 -->
<g id="edge46" class="edge">
<title>Node29&#45;&gt;Node31</title>
<path fill="none" stroke="midnightblue" d="M1057.61,-112.44C1027.75,-103.28 980.19,-88.69 947.04,-78.52"/>
<polygon fill="midnightblue" stroke="midnightblue" points="947.84,-75.1 937.26,-75.52 945.79,-81.8 947.84,-75.1"/>
</g>
<!-- Node32 -->
<g id="node32" class="node">
<title>Node32</title>
<g id="a_node32"><a xlink:title=" ">
<polygon fill="none" stroke="#bfbfbf" points="960.5,-56.5 960.5,-75.5 1016.5,-75.5 1016.5,-56.5 960.5,-56.5"/>
<text text-anchor="middle" x="988.5" y="-63.5" font-family="Helvetica,sans-Serif" font-size="10.00">numeric</text>
</a>
</g>
</g>
<!-- Node29&#45;&gt;Node32 -->
<g id="edge47" class="edge">
<title>Node29&#45;&gt;Node32</title>
<path fill="none" stroke="midnightblue" d="M1069.92,-112.32C1054.5,-103.74 1030.69,-90.49 1012.79,-80.52"/>
<polygon fill="midnightblue" stroke="midnightblue" points="1014.49,-77.46 1004.05,-75.65 1011.08,-83.58 1014.49,-77.46"/>
</g>
<!-- Node33 -->
<g id="node33" class="node">
<title>Node33</title>
<g id="a_node33"><a xlink:title=" ">
<polygon fill="none" stroke="#bfbfbf" points="1035,-56.5 1035,-75.5 1076,-75.5 1076,-56.5 1035,-56.5"/>
<text text-anchor="middle" x="1055.5" y="-63.5" font-family="Helvetica,sans-Serif" font-size="10.00">tuple</text>
</a>
</g>
</g>
<!-- Node29&#45;&gt;Node33 -->
<g id="edge50" class="edge">
<title>Node29&#45;&gt;Node33</title>
<path fill="none" stroke="midnightblue" d="M1080.55,-112.08C1076.4,-104.61 1070.35,-93.72 1065.23,-84.52"/>
<polygon fill="midnightblue" stroke="midnightblue" points="1068.28,-82.79 1060.36,-75.75 1062.16,-86.19 1068.28,-82.79"/>
</g>
<!-- Node34 -->
<g id="node34" class="node">
<title>Node34</title>
<g id="a_node34"><a xlink:title=" ">
<polygon fill="none" stroke="#bfbfbf" points="1094,-56.5 1094,-75.5 1139,-75.5 1139,-56.5 1094,-56.5"/>
<text text-anchor="middle" x="1116.5" y="-63.5" font-family="Helvetica,sans-Serif" font-size="10.00">utility</text>
</a>
</g>
</g>
<!-- Node29&#45;&gt;Node34 -->
<g id="edge51" class="edge">
<title>Node29&#45;&gt;Node34</title>
<path fill="none" stroke="midnightblue" d="M1090.62,-112.08C1094.91,-104.61 1101.16,-93.72 1106.44,-84.52"/>
<polygon fill="midnightblue" stroke="midnightblue" points="1109.53,-86.17 1111.48,-75.75 1103.46,-82.68 1109.53,-86.17"/>
</g>
<!-- Node35 -->
<g id="node35" class="node">
<title>Node35</title>
<g id="a_node35"><a xlink:title=" ">
<polygon fill="none" stroke="#bfbfbf" points="1157.5,-56.5 1157.5,-75.5 1203.5,-75.5 1203.5,-56.5 1157.5,-56.5"/>
<text text-anchor="middle" x="1180.5" y="-63.5" font-family="Helvetica,sans-Serif" font-size="10.00">locale</text>
</a>
</g>
</g>
<!-- Node29&#45;&gt;Node35 -->
<g id="edge53" class="edge">
<title>Node29&#45;&gt;Node35</title>
<path fill="none" stroke="midnightblue" d="M1100.76,-112.32C1115.72,-103.82 1138.75,-90.73 1156.23,-80.8"/>
<polygon fill="midnightblue" stroke="midnightblue" points="1158.31,-83.64 1165.27,-75.65 1154.85,-77.55 1158.31,-83.64"/>
</g>
<!-- Node36 -->
<g id="node36" class="node">
<title>Node36</title>
<g id="a_node36"><a xlink:title=" ">
<polygon fill="none" stroke="#bfbfbf" points="1221.5,-56.5 1221.5,-75.5 1285.5,-75.5 1285.5,-56.5 1221.5,-56.5"/>
<text text-anchor="middle" x="1253.5" y="-63.5" font-family="Helvetica,sans-Serif" font-size="10.00">algorithm</text>
</a>
</g>
</g>
<!-- Node29&#45;&gt;Node36 -->
<g id="edge55" class="edge">
<title>Node29&#45;&gt;Node36</title>
<path fill="none" stroke="midnightblue" d="M1112.12,-112.44C1140.51,-103.32 1185.64,-88.81 1217.25,-78.65"/>
<polygon fill="midnightblue" stroke="midnightblue" points="1218.56,-81.91 1227,-75.52 1216.41,-75.24 1218.56,-81.91"/>
</g>
<!-- Node37 -->
<g id="node37" class="node">
<title>Node37</title>
<g id="a_node37"><a xlink:title=" ">
<polygon fill="none" stroke="#bfbfbf" points="1303.5,-56.5 1303.5,-75.5 1335.5,-75.5 1335.5,-56.5 1303.5,-56.5"/>
<text text-anchor="middle" x="1319.5" y="-63.5" font-family="Helvetica,sans-Serif" font-size="10.00">set</text>
</a>
</g>
</g>
<!-- Node29&#45;&gt;Node37 -->
<g id="edge58" class="edge">
<title>Node29&#45;&gt;Node37</title>
<path fill="none" stroke="midnightblue" d="M1134.1,-112.44C1174.59,-104.88 1233.87,-92.83 1293.84,-75.89"/>
<polygon fill="midnightblue" stroke="midnightblue" points="1294.82,-79.25 1303.47,-73.13 1292.89,-72.52 1294.82,-79.25"/>
</g>
<!-- Node38 -->
<g id="node38" class="node">
<title>Node38</title>
<g id="a_node38"><a xlink:title=" ">
<polygon fill="none" stroke="#bfbfbf" points="1392,-56.5 1392,-75.5 1461,-75.5 1461,-56.5 1392,-56.5"/>
<text text-anchor="middle" x="1426.5" y="-63.5" font-family="Helvetica,sans-Serif" font-size="10.00">type_traits</text>
</a>
</g>
</g>
<!-- Node29&#45;&gt;Node38 -->
<g id="edge59" class="edge">
<title>Node29&#45;&gt;Node38</title>
<path fill="none" stroke="midnightblue" d="M1135.17,-113.79C1193.33,-105.24 1292.53,-90.35 1377.5,-76 1378.97,-75.75 1380.46,-75.5 1381.96,-75.24"/>
<polygon fill="midnightblue" stroke="midnightblue" points="1382.75,-78.65 1391.99,-73.47 1381.53,-71.76 1382.75,-78.65"/>
</g>
<!-- Node39 -->
<g id="node39" class="node">
<title>Node39</title>
<g id="a_node39"><a xlink:title=" ">
<polygon fill="none" stroke="#bfbfbf" points="1479,-56.5 1479,-75.5 1532,-75.5 1532,-56.5 1479,-56.5"/>
<text text-anchor="middle" x="1505.5" y="-63.5" font-family="Helvetica,sans-Serif" font-size="10.00">iterator</text>
</a>
</g>
</g>
<!-- Node29&#45;&gt;Node39 -->
<g id="edge60" class="edge">
<title>Node29&#45;&gt;Node39</title>
<path fill="none" stroke="midnightblue" d="M1135.1,-113.89C1139.96,-113.23 1144.82,-112.59 1149.5,-112 1288.73,-94.41 1327.57,-101.6 1468.92,-76.08"/>
<polygon fill="midnightblue" stroke="midnightblue" points="1469.62,-79.51 1478.83,-74.27 1468.37,-72.62 1469.62,-79.51"/>
</g>
<!-- Node40 -->
<g id="node40" class="node">
<title>Node40</title>
<g id="a_node40"><a xlink:title=" ">
<polygon fill="none" stroke="#bfbfbf" points="1550,-56.5 1550,-75.5 1615,-75.5 1615,-56.5 1550,-56.5"/>
<text text-anchor="middle" x="1582.5" y="-63.5" font-family="Helvetica,sans-Serif" font-size="10.00">stdexcept</text>
</a>
</g>
</g>
<!-- Node29&#45;&gt;Node40 -->
<g id="edge61" class="edge">
<title>Node29&#45;&gt;Node40</title>
<path fill="none" stroke="midnightblue" d="M1135.08,-113.79C1139.95,-113.15 1144.82,-112.54 1149.5,-112 1320.06,-92.19 1366.88,-102.41 1539.94,-76.07"/>
<polygon fill="midnightblue" stroke="midnightblue" points="1540.54,-79.52 1549.9,-74.54 1539.48,-72.6 1540.54,-79.52"/>
</g>
<!-- Node41 -->
<g id="node41" class="node">
<title>Node41</title>
<g id="a_node41"><a xlink:title=" ">
<polygon fill="none" stroke="#bfbfbf" points="1633.5,-56.5 1633.5,-75.5 1677.5,-75.5 1677.5,-56.5 1633.5,-56.5"/>
<text text-anchor="middle" x="1655.5" y="-63.5" font-family="Helvetica,sans-Serif" font-size="10.00">limits</text>
</a>
</g>
</g>
<!-- Node29&#45;&gt;Node41 -->
<g id="edge63" class="edge">
<title>Node29&#45;&gt;Node41</title>
<path fill="none" stroke="midnightblue" d="M1135.08,-113.71C1139.94,-113.09 1144.81,-112.51 1149.5,-112 1356.7,-89.6 1414.38,-112.96 1623.22,-75.86"/>
<polygon fill="midnightblue" stroke="midnightblue" points="1624.06,-79.27 1633.28,-74.05 1622.82,-72.38 1624.06,-79.27"/>
</g>
<!-- Node42 -->
<g id="node42" class="node">
<title>Node42</title>
<g id="a_node42"><a xlink:title=" ">
<polygon fill="none" stroke="#bfbfbf" points="1696,-56.5 1696,-75.5 1761,-75.5 1761,-56.5 1696,-56.5"/>
<text text-anchor="middle" x="1728.5" y="-63.5" font-family="Helvetica,sans-Serif" font-size="10.00">exception</text>
</a>
</g>
</g>
<!-- Node29&#45;&gt;Node42 -->
<g id="edge64" class="edge">
<title>Node29&#45;&gt;Node42</title>
<path fill="none" stroke="midnightblue" d="M1135.07,-113.67C1139.94,-113.05 1144.81,-112.49 1149.5,-112 1384.17,-87.67 1447.87,-108.56 1685.58,-75.92"/>
<polygon fill="midnightblue" stroke="midnightblue" points="1686.14,-79.37 1695.56,-74.53 1685.18,-72.44 1686.14,-79.37"/>
</g>
<!-- Node43 -->
<g id="node43" class="node">
<title>Node43</title>
<g id="a_node43"><a xlink:title=" ">
<polygon fill="none" stroke="#bfbfbf" points="1779.5,-56.5 1779.5,-75.5 1843.5,-75.5 1843.5,-56.5 1779.5,-56.5"/>
<text text-anchor="middle" x="1811.5" y="-63.5" font-family="Helvetica,sans-Serif" font-size="10.00">sys/stat.h</text>
</a>
</g>
</g>
<!-- Node29&#45;&gt;Node43 -->
<g id="edge65" class="edge">
<title>Node29&#45;&gt;Node43</title>
<path fill="none" stroke="midnightblue" d="M1135.07,-113.62C1139.94,-113.02 1144.81,-112.46 1149.5,-112 1421.26,-85.06 1494.84,-113.06 1769.1,-75.96"/>
<polygon fill="midnightblue" stroke="midnightblue" points="1769.92,-79.38 1779.36,-74.56 1768.98,-72.45 1769.92,-79.38"/>
</g>
<!-- Node44 -->
<g id="node44" class="node">
<title>Node44</title>
<g id="a_node44"><a xlink:title=" ">
<polygon fill="none" stroke="#bfbfbf" points="1861.5,-56.5 1861.5,-75.5 1933.5,-75.5 1933.5,-56.5 1861.5,-56.5"/>
<text text-anchor="middle" x="1897.5" y="-63.5" font-family="Helvetica,sans-Serif" font-size="10.00">sys/types.h</text>
</a>
</g>
</g>
<!-- Node29&#45;&gt;Node44 -->
<g id="edge66" class="edge">
<title>Node29&#45;&gt;Node44</title>
<path fill="none" stroke="midnightblue" d="M1135.06,-113.59C1139.93,-112.99 1144.81,-112.45 1149.5,-112 1457.58,-82.51 1540.29,-114.09 1851.02,-75.99"/>
<polygon fill="midnightblue" stroke="midnightblue" points="1851.73,-79.43 1861.23,-74.73 1850.87,-72.49 1851.73,-79.43"/>
</g>
</g>
</svg>
