<?xml version="1.0" encoding="UTF-8" standalone="no"?>
<!DOCTYPE svg PUBLIC "-//W3C//DTD SVG 1.1//EN"
 "http://www.w3.org/Graphics/SVG/1.1/DTD/svg11.dtd">
<!-- Generated by graphviz version 7.1.0 (0)
 -->
<!-- Title: getFockMatrix Pages: 1 -->
<svg width="249pt" height="64pt"
 viewBox="0.00 0.00 249.00 64.00" xmlns="http://www.w3.org/2000/svg" xmlns:xlink="http://www.w3.org/1999/xlink">
<g id="graph0" class="graph" transform="scale(1 1) rotate(0) translate(4 60)">
<title>getFockMatrix</title>
<!-- Node1 -->
<g id="node1" class="node">
<title>Node1</title>
<g id="a_node1"><a xlink:title=" ">
<polygon fill="#999999" stroke="#666666" points="86,-37 0,-37 0,-18 86,-18 86,-37"/>
<text text-anchor="middle" x="43" y="-25" font-family="Helvetica,sans-Serif" font-size="10.00">getFockMatrix</text>
</a>
</g>
</g>
<!-- Node2 -->
<g id="node2" class="node">
<title>Node2</title>
<g id="a_node2"><a xlink:href="HartreeFockFromCoulombIntegrals_8cxx.html#ad28f76bdb11aaa9570da5f134cfcdedb" target="_top" xlink:title=" ">
<polygon fill="white" stroke="#666666" points="217.5,-56 145.5,-56 145.5,-37 217.5,-37 217.5,-56"/>
<text text-anchor="middle" x="181.5" y="-44" font-family="Helvetica,sans-Serif" font-size="10.00">toCtfMatrix</text>
</a>
</g>
</g>
<!-- Node1&#45;&gt;Node2 -->
<g id="edge1" class="edge">
<title>Node1&#45;&gt;Node2</title>
<path fill="none" stroke="#63b8ff" d="M86.44,-33.41C101.68,-35.53 118.94,-37.93 134.47,-40.09"/>
<polygon fill="#63b8ff" stroke="#63b8ff" points="133.53,-43.5 143.92,-41.41 134.5,-36.56 133.53,-43.5"/>
</g>
<!-- Node3 -->
<g id="node3" class="node">
<title>Node3</title>
<g id="a_node3"><a xlink:href="namespacesisi4s.html#ab2414ae2ca7d376f6379d91727cd66a1" target="_top" xlink:title=" ">
<polygon fill="white" stroke="#666666" points="241,-19 122,-19 122,0 241,0 241,-19"/>
<text text-anchor="middle" x="181.5" y="-7" font-family="Helvetica,sans-Serif" font-size="10.00">sisi4s::toEigenMatrix</text>
</a>
</g>
</g>
<!-- Node1&#45;&gt;Node3 -->
<g id="edge2" class="edge">
<title>Node1&#45;&gt;Node3</title>
<path fill="none" stroke="#63b8ff" d="M86.44,-21.9C93.99,-20.91 102.04,-19.85 110.13,-18.78"/>
<polygon fill="#63b8ff" stroke="#63b8ff" points="110.59,-22.25 120.04,-17.47 109.67,-15.31 110.59,-22.25"/>
</g>
</g>
</svg>
