<?xml version="1.0" encoding="UTF-8" standalone="no"?>
<!DOCTYPE svg PUBLIC "-//W3C//DTD SVG 1.1//EN"
 "http://www.w3.org/Graphics/SVG/1.1/DTD/svg11.dtd">
<!-- Generated by graphviz version 5.0.1 (0)
 -->
<!-- Title: Graphical Class Hierarchy Pages: 1 -->
<svg width="358pt" height="124pt"
 viewBox="0.00 0.00 358.00 123.50" xmlns="http://www.w3.org/2000/svg" xmlns:xlink="http://www.w3.org/1999/xlink">
<g id="graph0" class="graph" transform="scale(1 1) rotate(0) translate(4 119.5)">
<title>Graphical Class Hierarchy</title>
<!-- Node0 -->
<g id="node1" class="node">
<title>Node0</title>
<g id="a_node1"><a xlink:href="classsisi4s_1_1ScaLapackDescriptor.html" target="_top" xlink:title=" ">
<polygon fill="white" stroke="#666666" points="152,-62 0,-62 0,-43 152,-43 152,-62"/>
<text text-anchor="middle" x="76" y="-50" font-family="Helvetica,sans-Serif" font-size="10.00">sisi4s::ScaLapackDescriptor</text>
</a>
</g>
</g>
<!-- Node1 -->
<g id="node2" class="node">
<title>Node1</title>
<g id="a_node2"><a xlink:href="classsisi4s_1_1ScaLapackMatrix.html" target="_top" xlink:title=" ">
<polygon fill="white" stroke="#666666" points="336,-115.5 202,-115.5 202,-85.5 336,-85.5 336,-115.5"/>
<text text-anchor="start" x="210" y="-103.5" font-family="Helvetica,sans-Serif" font-size="10.00">sisi4s::ScaLapackMatrix</text>
<text text-anchor="middle" x="269" y="-92.5" font-family="Helvetica,sans-Serif" font-size="10.00">&lt; complex &gt;</text>
</a>
</g>
</g>
<!-- Node0&#45;&gt;Node1 -->
<g id="edge1" class="edge">
<title>Node0&#45;&gt;Node1</title>
<path fill="none" stroke="#63b8ff" d="M124.89,-64.54C150.1,-70.87 181.26,-78.7 208.06,-85.44"/>
<polygon fill="#63b8ff" stroke="#63b8ff" points="125.74,-61.14 115.19,-62.1 124.04,-67.93 125.74,-61.14"/>
</g>
<!-- Node2 -->
<g id="node3" class="node">
<title>Node2</title>
<g id="a_node3"><a xlink:href="classsisi4s_1_1ScaLapackMatrix.html" target="_top" xlink:title=" ">
<polygon fill="white" stroke="#666666" points="336,-67.5 202,-67.5 202,-37.5 336,-37.5 336,-67.5"/>
<text text-anchor="start" x="210" y="-55.5" font-family="Helvetica,sans-Serif" font-size="10.00">sisi4s::ScaLapackMatrix</text>
<text text-anchor="middle" x="269" y="-44.5" font-family="Helvetica,sans-Serif" font-size="10.00">&lt; double &gt;</text>
</a>
</g>
</g>
<!-- Node0&#45;&gt;Node2 -->
<g id="edge2" class="edge">
<title>Node0&#45;&gt;Node2</title>
<path fill="none" stroke="#63b8ff" d="M162.29,-52.5C175.55,-52.5 189.08,-52.5 201.84,-52.5"/>
<polygon fill="#63b8ff" stroke="#63b8ff" points="162.21,-49 152.21,-52.5 162.21,-56 162.21,-49"/>
</g>
<!-- Node3 -->
<g id="node4" class="node">
<title>Node3</title>
<g id="a_node4"><a xlink:href="classsisi4s_1_1ScaLapackMatrix.html" target="_top" xlink:title=" ">
<polygon fill="white" stroke="#666666" points="350,-19 188,-19 188,0 350,0 350,-19"/>
<text text-anchor="middle" x="269" y="-7" font-family="Helvetica,sans-Serif" font-size="10.00">sisi4s::ScaLapackMatrix&lt; F &gt;</text>
</a>
</g>
</g>
<!-- Node0&#45;&gt;Node3 -->
<g id="edge3" class="edge">
<title>Node0&#45;&gt;Node3</title>
<path fill="none" stroke="#63b8ff" d="M129.36,-40.71C159.67,-33.89 197.32,-25.41 225.73,-19.02"/>
<polygon fill="#63b8ff" stroke="#63b8ff" points="128.38,-37.35 119.39,-42.96 129.91,-44.18 128.38,-37.35"/>
</g>
</g>
</svg>
