<?xml version="1.0" encoding="UTF-8" standalone="no"?>
<!DOCTYPE svg PUBLIC "-//W3C//DTD SVG 1.1//EN"
 "http://www.w3.org/Graphics/SVG/1.1/DTD/svg11.dtd">
<!-- Generated by graphviz version 9.0.0 (0)
 -->
<!-- Title: Graphical Class Hierarchy Pages: 1 -->
<svg width="375pt" height="68pt"
 viewBox="0.00 0.00 374.50 67.75" xmlns="http://www.w3.org/2000/svg" xmlns:xlink="http://www.w3.org/1999/xlink">
<g id="graph0" class="graph" transform="scale(1 1) rotate(0) translate(4 63.75)">
<title>Graphical Class Hierarchy</title>
<!-- Node0 -->
<g id="Node000000" class="node">
<title>Node0</title>
<g id="a_Node000000"><a xlink:href="classsisi4s_1_1Preconditioner.html" target="_top" xlink:title=" ">
<polygon fill="white" stroke="#666666" points="145.75,-46.12 0,-46.12 0,-12.62 145.75,-12.62 145.75,-46.12"/>
<text text-anchor="start" x="8" y="-32.62" font-family="Helvetica,sans-Serif" font-size="10.00">sisi4s::Preconditioner</text>
<text text-anchor="middle" x="72.88" y="-19.88" font-family="Helvetica,sans-Serif" font-size="10.00">&lt; F, SDFockVector&lt; F &gt; &gt;</text>
</a>
</g>
</g>
<!-- Node1 -->
<g id="Node000001" class="node">
<title>Node1</title>
<g id="a_Node000001"><a xlink:href="classsisi4s_1_1EACcsdPreconditioner.html" target="_top" xlink:title=" ">
<polygon fill="white" stroke="#666666" points="366.5,-59.75 181.75,-59.75 181.75,-39 366.5,-39 366.5,-59.75"/>
<text text-anchor="middle" x="274.12" y="-46.25" font-family="Helvetica,sans-Serif" font-size="10.00">sisi4s::EACcsdPreconditioner&lt; F &gt;</text>
</a>
</g>
</g>
<!-- Node0&#45;&gt;Node1 -->
<g id="edge223_Node000000_Node000001" class="edge">
<title>Node0&#45;&gt;Node1</title>
<g id="a_edge223_Node000000_Node000001"><a xlink:title=" ">
<path fill="none" stroke="#63b8ff" d="M157.53,-37.77C165.42,-38.56 173.45,-39.37 181.41,-40.17"/>
<polygon fill="#63b8ff" stroke="#63b8ff" points="157.9,-34.29 147.6,-36.77 157.2,-41.26 157.9,-34.29"/>
</a>
</g>
</g>
<!-- Node2 -->
<g id="Node000002" class="node">
<title>Node2</title>
<g id="a_Node000002"><a xlink:href="classsisi4s_1_1IPCcsdPreconditioner.html" target="_top" xlink:title=" ">
<polygon fill="white" stroke="#666666" points="364.62,-20.75 183.62,-20.75 183.62,0 364.62,0 364.62,-20.75"/>
<text text-anchor="middle" x="274.12" y="-7.25" font-family="Helvetica,sans-Serif" font-size="10.00">sisi4s::IPCcsdPreconditioner&lt; F &gt;</text>
</a>
</g>
</g>
<!-- Node0&#45;&gt;Node2 -->
<g id="edge224_Node000000_Node000002" class="edge">
<title>Node0&#45;&gt;Node2</title>
<g id="a_edge224_Node000000_Node000002"><a xlink:title=" ">
<path fill="none" stroke="#63b8ff" d="M157.51,-21.4C165.98,-20.59 174.6,-19.77 183.13,-18.96"/>
<polygon fill="#63b8ff" stroke="#63b8ff" points="157.22,-17.91 147.6,-22.35 157.88,-24.88 157.22,-17.91"/>
</a>
</g>
</g>
</g>
</svg>
