<?xml version="1.0" encoding="UTF-8" standalone="no"?>
<!DOCTYPE svg PUBLIC "-//W3C//DTD SVG 1.1//EN"
 "http://www.w3.org/Graphics/SVG/1.1/DTD/svg11.dtd">
<!-- Generated by graphviz version 8.1.0 (0)
 -->
<!-- Title: Graphical Class Hierarchy Pages: 1 -->
<svg width="285pt" height="68pt"
 viewBox="0.00 0.00 284.50 67.75" xmlns="http://www.w3.org/2000/svg" xmlns:xlink="http://www.w3.org/1999/xlink">
<g id="graph0" class="graph" transform="scale(1 1) rotate(0) translate(4 63.75)">
<title>Graphical Class Hierarchy</title>
<!-- Node0 -->
<g id="Node000000" class="node">
<title>Node0</title>
<g id="a_Node000000"><a xlink:href="classsisi4s_1_1Mixer.html" target="_top" xlink:title=" ">
<polygon fill="white" stroke="#666666" points="105.25,-39.75 0,-39.75 0,-19 105.25,-19 105.25,-39.75"/>
<text text-anchor="middle" x="52.62" y="-26.25" font-family="Helvetica,sans-Serif" font-size="10.00">sisi4s::Mixer&lt; F &gt;</text>
</a>
</g>
</g>
<!-- Node1 -->
<g id="Node000001" class="node">
<title>Node1</title>
<g id="a_Node000001"><a xlink:href="classsisi4s_1_1DiisMixer.html" target="_top" xlink:title=" ">
<polygon fill="white" stroke="#666666" points="270.88,-59.75 146.88,-59.75 146.88,-39 270.88,-39 270.88,-59.75"/>
<text text-anchor="middle" x="208.88" y="-46.25" font-family="Helvetica,sans-Serif" font-size="10.00">sisi4s::DiisMixer&lt; F &gt;</text>
</a>
</g>
</g>
<!-- Node0&#45;&gt;Node1 -->
<g id="edge213_Node000000_Node000001" class="edge">
<title>Node0&#45;&gt;Node1</title>
<g id="a_edge213_Node000000_Node000001"><a xlink:title=" ">
<path fill="none" stroke="#63b8ff" d="M116.15,-37.48C126.2,-38.78 136.59,-40.13 146.61,-41.43"/>
<polygon fill="#63b8ff" stroke="#63b8ff" points="116.78,-33.91 106.42,-36.09 115.88,-40.85 116.78,-33.91"/>
</a>
</g>
</g>
<!-- Node2 -->
<g id="Node000002" class="node">
<title>Node2</title>
<g id="a_Node000002"><a xlink:href="classsisi4s_1_1LinearMixer.html" target="_top" xlink:title=" ">
<polygon fill="white" stroke="#666666" points="276.5,-20.75 141.25,-20.75 141.25,0 276.5,0 276.5,-20.75"/>
<text text-anchor="middle" x="208.88" y="-7.25" font-family="Helvetica,sans-Serif" font-size="10.00">sisi4s::LinearMixer&lt; F &gt;</text>
</a>
</g>
</g>
<!-- Node0&#45;&gt;Node2 -->
<g id="edge214_Node000000_Node000002" class="edge">
<title>Node0&#45;&gt;Node2</title>
<g id="a_edge214_Node000000_Node000002"><a xlink:title=" ">
<path fill="none" stroke="#63b8ff" d="M116.29,-21.66C124.39,-20.66 132.71,-19.63 140.88,-18.63"/>
<polygon fill="#63b8ff" stroke="#63b8ff" points="115.91,-18.3 106.42,-23 116.77,-25.25 115.91,-18.3"/>
</a>
</g>
</g>
</g>
</svg>
