<?xml version="1.0" encoding="UTF-8" standalone="no"?>
<!DOCTYPE svg PUBLIC "-//W3C//DTD SVG 1.1//EN"
 "http://www.w3.org/Graphics/SVG/1.1/DTD/svg11.dtd">
<!-- Generated by graphviz version 7.0.0 (0)
 -->
<!-- Title: Graphical Class Hierarchy Pages: 1 -->
<svg width="475pt" height="38pt"
 viewBox="0.00 0.00 475.00 38.00" xmlns="http://www.w3.org/2000/svg" xmlns:xlink="http://www.w3.org/1999/xlink">
<g id="graph0" class="graph" transform="scale(1 1) rotate(0) translate(4 34)">
<title>Graphical Class Hierarchy</title>
<!-- Node0 -->
<g id="node1" class="node">
<title>Node0</title>
<g id="a_node1"><a xlink:href="structIntegralProvider.html" target="_top" xlink:title=" ">
<polygon fill="white" stroke="#666666" points="121,-30 0,-30 0,0 121,0 121,-30"/>
<text text-anchor="start" x="8" y="-18" font-family="Helvetica,sans-Serif" font-size="10.00">IntegralProvider&lt; std</text>
<text text-anchor="middle" x="60.5" y="-7" font-family="Helvetica,sans-Serif" font-size="10.00">::vector&lt; double &gt; &gt;</text>
</a>
</g>
</g>
<!-- Node1 -->
<g id="node2" class="node">
<title>Node1</title>
<g id="a_node2"><a xlink:href="structVectorIntegralProvider.html" target="_top" xlink:title=" ">
<polygon fill="white" stroke="#666666" points="282,-24.5 157,-24.5 157,-5.5 282,-5.5 282,-24.5"/>
<text text-anchor="middle" x="219.5" y="-12.5" font-family="Helvetica,sans-Serif" font-size="10.00">VectorIntegralProvider</text>
</a>
</g>
</g>
<!-- Node0&#45;&gt;Node1 -->
<g id="edge1" class="edge">
<title>Node0&#45;&gt;Node1</title>
<path fill="none" stroke="#63b8ff" d="M132.79,-15C140.71,-15 148.73,-15 156.52,-15"/>
<polygon fill="#63b8ff" stroke="#63b8ff" points="132.82,-11.5 122.82,-15 132.82,-18.5 132.82,-11.5"/>
</g>
<!-- Node2 -->
<g id="node3" class="node">
<title>Node2</title>
<g id="a_node3"><a xlink:href="structSlowVectorIntegralProvider.html" target="_top" xlink:title=" ">
<polygon fill="white" stroke="#666666" points="467,-24.5 318,-24.5 318,-5.5 467,-5.5 467,-24.5"/>
<text text-anchor="middle" x="392.5" y="-12.5" font-family="Helvetica,sans-Serif" font-size="10.00">SlowVectorIntegralProvider</text>
</a>
</g>
</g>
<!-- Node1&#45;&gt;Node2 -->
<g id="edge2" class="edge">
<title>Node1&#45;&gt;Node2</title>
<path fill="none" stroke="#63b8ff" d="M293.7,-15C301.62,-15 309.69,-15 317.62,-15"/>
<polygon fill="#63b8ff" stroke="#63b8ff" points="293.75,-11.5 283.75,-15 293.75,-18.5 293.75,-11.5"/>
</g>
</g>
</svg>
