<?xml version="1.0" encoding="UTF-8" standalone="no"?>
<!DOCTYPE svg PUBLIC "-//W3C//DTD SVG 1.1//EN"
 "http://www.w3.org/Graphics/SVG/1.1/DTD/svg11.dtd">
<!-- Generated by graphviz version 5.0.1 (0)
 -->
<!-- Title: Graphical Class Hierarchy Pages: 1 -->
<svg width="413pt" height="528pt"
 viewBox="0.00 0.00 413.00 527.50" xmlns="http://www.w3.org/2000/svg" xmlns:xlink="http://www.w3.org/1999/xlink">
<g id="graph0" class="graph" transform="scale(1 1) rotate(0) translate(4 523.5)">
<title>Graphical Class Hierarchy</title>
<!-- Node0 -->
<g id="node1" class="node">
<title>Node0</title>
<g id="a_node1"><a xlink:href="classCLI_1_1Validator.html" target="_top" xlink:title="Some validators that are provided.">
<polygon fill="white" stroke="#666666" points="81,-297.5 0,-297.5 0,-278.5 81,-278.5 81,-297.5"/>
<text text-anchor="middle" x="40.5" y="-285.5" font-family="Helvetica,sans-Serif" font-size="10.00">CLI::Validator</text>
</a>
</g>
</g>
<!-- Node1 -->
<g id="node2" class="node">
<title>Node1</title>
<g id="a_node2"><a xlink:href="classCLI_1_1AsNumberWithUnit.html" target="_top" xlink:title=" ">
<polygon fill="white" stroke="#666666" points="260,-519.5 129,-519.5 129,-500.5 260,-500.5 260,-519.5"/>
<text text-anchor="middle" x="194.5" y="-507.5" font-family="Helvetica,sans-Serif" font-size="10.00">CLI::AsNumberWithUnit</text>
</a>
</g>
</g>
<!-- Node0&#45;&gt;Node1 -->
<g id="edge1" class="edge">
<title>Node0&#45;&gt;Node1</title>
<path fill="none" stroke="#63b8ff" d="M42.83,-307.96C46.66,-348.94 61.39,-442.86 117,-492 120.78,-495.34 125.07,-498.1 129.64,-500.36"/>
<polygon fill="#63b8ff" stroke="#63b8ff" points="46.31,-307.57 42.01,-297.88 39.33,-308.14 46.31,-307.57"/>
</g>
<!-- Node3 -->
<g id="node4" class="node">
<title>Node3</title>
<g id="a_node4"><a xlink:href="classCLI_1_1Bound.html" target="_top" xlink:title="Produce a bounded range (factory). Min and max are inclusive.">
<polygon fill="white" stroke="#666666" points="228.5,-482.5 160.5,-482.5 160.5,-463.5 228.5,-463.5 228.5,-482.5"/>
<text text-anchor="middle" x="194.5" y="-470.5" font-family="Helvetica,sans-Serif" font-size="10.00">CLI::Bound</text>
</a>
</g>
</g>
<!-- Node0&#45;&gt;Node3 -->
<g id="edge3" class="edge">
<title>Node0&#45;&gt;Node3</title>
<path fill="none" stroke="#63b8ff" d="M44.62,-307.7C51.26,-342.89 70.23,-416.5 117,-455 129.11,-464.97 145.78,-469.62 160.47,-471.71"/>
<polygon fill="#63b8ff" stroke="#63b8ff" points="48.04,-306.96 42.87,-297.71 41.15,-308.16 48.04,-306.96"/>
</g>
<!-- Node4 -->
<g id="node5" class="node">
<title>Node4</title>
<g id="a_node5"><a xlink:href="classCLI_1_1CheckedTransformer.html" target="_top" xlink:title="translate named items to other or a value set">
<polygon fill="white" stroke="#666666" points="263,-445.5 126,-445.5 126,-426.5 263,-426.5 263,-445.5"/>
<text text-anchor="middle" x="194.5" y="-433.5" font-family="Helvetica,sans-Serif" font-size="10.00">CLI::CheckedTransformer</text>
</a>
</g>
</g>
<!-- Node0&#45;&gt;Node4 -->
<g id="edge4" class="edge">
<title>Node0&#45;&gt;Node4</title>
<path fill="none" stroke="#63b8ff" d="M47.25,-307.32C56.83,-336.07 78.89,-389.75 117,-418 121.6,-421.41 126.76,-424.19 132.15,-426.45"/>
<polygon fill="#63b8ff" stroke="#63b8ff" points="50.53,-306.11 44.18,-297.63 43.86,-308.22 50.53,-306.11"/>
</g>
<!-- Node5 -->
<g id="node6" class="node">
<title>Node5</title>
<g id="a_node6"><a xlink:href="classCLI_1_1CustomValidator.html" target="_top" xlink:title="Class wrapping some of the accessors of Validator.">
<polygon fill="white" stroke="#666666" points="254,-408.5 135,-408.5 135,-389.5 254,-389.5 254,-408.5"/>
<text text-anchor="middle" x="194.5" y="-396.5" font-family="Helvetica,sans-Serif" font-size="10.00">CLI::CustomValidator</text>
</a>
</g>
</g>
<!-- Node0&#45;&gt;Node5 -->
<g id="edge5" class="edge">
<title>Node0&#45;&gt;Node5</title>
<path fill="none" stroke="#63b8ff" d="M51.39,-306.42C63.83,-327.74 87.2,-362.32 117,-381 122.43,-384.41 128.45,-387.17 134.65,-389.41"/>
<polygon fill="#63b8ff" stroke="#63b8ff" points="54.42,-304.66 46.46,-297.66 48.32,-308.09 54.42,-304.66"/>
</g>
<!-- Node6 -->
<g id="node7" class="node">
<title>Node6</title>
<g id="a_node7"><a xlink:href="classCLI_1_1IsMember.html" target="_top" xlink:title="Verify items are in a set.">
<polygon fill="white" stroke="#666666" points="237.5,-371.5 151.5,-371.5 151.5,-352.5 237.5,-352.5 237.5,-371.5"/>
<text text-anchor="middle" x="194.5" y="-359.5" font-family="Helvetica,sans-Serif" font-size="10.00">CLI::IsMember</text>
</a>
</g>
</g>
<!-- Node0&#45;&gt;Node6 -->
<g id="edge6" class="edge">
<title>Node0&#45;&gt;Node6</title>
<path fill="none" stroke="#63b8ff" d="M59.53,-304.72C74.03,-317.29 95.47,-334 117,-344 127.64,-348.94 139.77,-352.59 151.18,-355.27"/>
<polygon fill="#63b8ff" stroke="#63b8ff" points="61.64,-301.91 51.85,-297.88 56.99,-307.14 61.64,-301.91"/>
</g>
<!-- Node7 -->
<g id="node8" class="node">
<title>Node7</title>
<g id="a_node8"><a xlink:href="classCLI_1_1Range.html" target="_top" xlink:title="Produce a range (factory). Min and max are inclusive.">
<polygon fill="white" stroke="#666666" points="228.5,-334.5 160.5,-334.5 160.5,-315.5 228.5,-315.5 228.5,-334.5"/>
<text text-anchor="middle" x="194.5" y="-322.5" font-family="Helvetica,sans-Serif" font-size="10.00">CLI::Range</text>
</a>
</g>
</g>
<!-- Node0&#45;&gt;Node7 -->
<g id="edge7" class="edge">
<title>Node0&#45;&gt;Node7</title>
<path fill="none" stroke="#63b8ff" d="M88.98,-300.07C98.27,-302.39 107.93,-304.79 117,-307 131.18,-310.45 146.88,-314.16 160.34,-317.31"/>
<polygon fill="#63b8ff" stroke="#63b8ff" points="89.66,-296.63 79.11,-297.59 87.95,-303.42 89.66,-296.63"/>
</g>
<!-- Node8 -->
<g id="node9" class="node">
<title>Node8</title>
<g id="a_node9"><a xlink:href="classCLI_1_1Transformer.html" target="_top" xlink:title="Translate named items to other or a value set.">
<polygon fill="white" stroke="#666666" points="242.5,-297.5 146.5,-297.5 146.5,-278.5 242.5,-278.5 242.5,-297.5"/>
<text text-anchor="middle" x="194.5" y="-285.5" font-family="Helvetica,sans-Serif" font-size="10.00">CLI::Transformer</text>
</a>
</g>
</g>
<!-- Node0&#45;&gt;Node8 -->
<g id="edge8" class="edge">
<title>Node0&#45;&gt;Node8</title>
<path fill="none" stroke="#63b8ff" d="M91.19,-288C108.91,-288 128.81,-288 146.32,-288"/>
<polygon fill="#63b8ff" stroke="#63b8ff" points="91.04,-284.5 81.04,-288 91.04,-291.5 91.04,-284.5"/>
</g>
<!-- Node9 -->
<g id="node10" class="node">
<title>Node9</title>
<g id="a_node10"><a xlink:href="classCLI_1_1TypeValidator.html" target="_top" xlink:title="Validate the input as a particular type.">
<polygon fill="white" stroke="#666666" points="246.5,-260 142.5,-260 142.5,-230 246.5,-230 246.5,-260"/>
<text text-anchor="start" x="150.5" y="-248" font-family="Helvetica,sans-Serif" font-size="10.00">CLI::TypeValidator</text>
<text text-anchor="middle" x="194.5" y="-237" font-family="Helvetica,sans-Serif" font-size="10.00">&lt; DesiredType &gt;</text>
</a>
</g>
</g>
<!-- Node0&#45;&gt;Node9 -->
<g id="edge9" class="edge">
<title>Node0&#45;&gt;Node9</title>
<path fill="none" stroke="#63b8ff" d="M85.33,-275.6C103.1,-270.57 123.76,-264.73 142.23,-259.5"/>
<polygon fill="#63b8ff" stroke="#63b8ff" points="83.9,-272.37 75.23,-278.46 85.81,-279.1 83.9,-272.37"/>
</g>
<!-- Node10 -->
<g id="node11" class="node">
<title>Node10</title>
<g id="a_node11"><a xlink:href="classCLI_1_1detail_1_1ExistingDirectoryValidator.html" target="_top" xlink:title="Check for an existing directory (returns error message if check fails)">
<polygon fill="white" stroke="#666666" points="272,-212 117,-212 117,-182 272,-182 272,-212"/>
<text text-anchor="start" x="125" y="-200" font-family="Helvetica,sans-Serif" font-size="10.00">CLI::detail::ExistingDirectory</text>
<text text-anchor="middle" x="194.5" y="-189" font-family="Helvetica,sans-Serif" font-size="10.00">Validator</text>
</a>
</g>
</g>
<!-- Node0&#45;&gt;Node10 -->
<g id="edge10" class="edge">
<title>Node0&#45;&gt;Node10</title>
<path fill="none" stroke="#63b8ff" d="M56.84,-270.77C71.09,-255.71 93.58,-234.25 117,-221 122.94,-217.64 129.4,-214.69 135.98,-212.11"/>
<polygon fill="#63b8ff" stroke="#63b8ff" points="54.03,-268.66 49.82,-278.38 59.17,-273.4 54.03,-268.66"/>
</g>
<!-- Node11 -->
<g id="node12" class="node">
<title>Node11</title>
<g id="a_node12"><a xlink:href="classCLI_1_1detail_1_1ExistingFileValidator.html" target="_top" xlink:title="Check for an existing file (returns error message if check fails)">
<polygon fill="white" stroke="#666666" points="258.5,-164 130.5,-164 130.5,-134 258.5,-134 258.5,-164"/>
<text text-anchor="start" x="138.5" y="-152" font-family="Helvetica,sans-Serif" font-size="10.00">CLI::detail::ExistingFile</text>
<text text-anchor="middle" x="194.5" y="-141" font-family="Helvetica,sans-Serif" font-size="10.00">Validator</text>
</a>
</g>
</g>
<!-- Node0&#45;&gt;Node11 -->
<g id="edge11" class="edge">
<title>Node0&#45;&gt;Node11</title>
<path fill="none" stroke="#63b8ff" d="M49.06,-269.04C60.18,-243.53 83.33,-198.43 117,-173 121.55,-169.56 126.61,-166.61 131.89,-164.07"/>
<polygon fill="#63b8ff" stroke="#63b8ff" points="45.79,-267.79 45.15,-278.36 52.24,-270.49 45.79,-267.79"/>
</g>
<!-- Node12 -->
<g id="node13" class="node">
<title>Node12</title>
<g id="a_node13"><a xlink:href="classCLI_1_1detail_1_1ExistingPathValidator.html" target="_top" xlink:title="Check for an existing path.">
<polygon fill="white" stroke="#666666" points="260,-116 129,-116 129,-86 260,-86 260,-116"/>
<text text-anchor="start" x="137" y="-104" font-family="Helvetica,sans-Serif" font-size="10.00">CLI::detail::ExistingPath</text>
<text text-anchor="middle" x="194.5" y="-93" font-family="Helvetica,sans-Serif" font-size="10.00">Validator</text>
</a>
</g>
</g>
<!-- Node0&#45;&gt;Node12 -->
<g id="edge12" class="edge">
<title>Node0&#45;&gt;Node12</title>
<path fill="none" stroke="#63b8ff" d="M45.24,-268.16C52.73,-233.96 72.78,-163.82 117,-125 120.87,-121.6 125.22,-118.68 129.83,-116.18"/>
<polygon fill="#63b8ff" stroke="#63b8ff" points="41.75,-267.79 43.17,-278.29 48.61,-269.19 41.75,-267.79"/>
</g>
<!-- Node13 -->
<g id="node14" class="node">
<title>Node13</title>
<g id="a_node14"><a xlink:href="classCLI_1_1detail_1_1IPV4Validator.html" target="_top" xlink:title="Validate the given string is a legal ipv4 address.">
<polygon fill="white" stroke="#666666" points="263,-67.5 126,-67.5 126,-48.5 263,-48.5 263,-67.5"/>
<text text-anchor="middle" x="194.5" y="-55.5" font-family="Helvetica,sans-Serif" font-size="10.00">CLI::detail::IPV4Validator</text>
</a>
</g>
</g>
<!-- Node0&#45;&gt;Node13 -->
<g id="edge13" class="edge">
<title>Node0&#45;&gt;Node13</title>
<path fill="none" stroke="#63b8ff" d="M42.58,-268.28C45.97,-226.5 59.91,-128.64 117,-77 121.26,-73.14 126.19,-70.04 131.44,-67.55"/>
<polygon fill="#63b8ff" stroke="#63b8ff" points="39.09,-268.07 41.89,-278.28 46.07,-268.55 39.09,-268.07"/>
</g>
<!-- Node14 -->
<g id="node15" class="node">
<title>Node14</title>
<g id="a_node15"><a xlink:href="classCLI_1_1detail_1_1NonexistentPathValidator.html" target="_top" xlink:title="Check for an non&#45;existing path.">
<polygon fill="white" stroke="#666666" points="260,-30 129,-30 129,0 260,0 260,-30"/>
<text text-anchor="start" x="137" y="-18" font-family="Helvetica,sans-Serif" font-size="10.00">CLI::detail::Nonexistent</text>
<text text-anchor="middle" x="194.5" y="-7" font-family="Helvetica,sans-Serif" font-size="10.00">PathValidator</text>
</a>
</g>
</g>
<!-- Node0&#45;&gt;Node14 -->
<g id="edge14" class="edge">
<title>Node0&#45;&gt;Node14</title>
<path fill="none" stroke="#63b8ff" d="M41.67,-268.14C43.16,-221.68 53.41,-104.9 117,-40 120.81,-36.11 125.24,-32.82 130.01,-30.05"/>
<polygon fill="#63b8ff" stroke="#63b8ff" points="38.17,-268.3 41.45,-278.37 45.16,-268.44 38.17,-268.3"/>
</g>
<!-- Node2 -->
<g id="node3" class="node">
<title>Node2</title>
<g id="a_node3"><a xlink:href="classCLI_1_1AsSizeValue.html" target="_top" xlink:title=" ">
<polygon fill="white" stroke="#666666" points="405,-519.5 308,-519.5 308,-500.5 405,-500.5 405,-519.5"/>
<text text-anchor="middle" x="356.5" y="-507.5" font-family="Helvetica,sans-Serif" font-size="10.00">CLI::AsSizeValue</text>
</a>
</g>
</g>
<!-- Node1&#45;&gt;Node2 -->
<g id="edge2" class="edge">
<title>Node1&#45;&gt;Node2</title>
<path fill="none" stroke="#63b8ff" d="M270.3,-510C283.08,-510 296.04,-510 307.87,-510"/>
<polygon fill="#63b8ff" stroke="#63b8ff" points="270.12,-506.5 260.12,-510 270.12,-513.5 270.12,-506.5"/>
</g>
</g>
</svg>
