<?xml version="1.0" encoding="UTF-8" standalone="no"?>
<!DOCTYPE svg PUBLIC "-//W3C//DTD SVG 1.1//EN"
 "http://www.w3.org/Graphics/SVG/1.1/DTD/svg11.dtd">
<!-- Generated by graphviz version 9.0.0 (0)
 -->
<!-- Title: Graphical Class Hierarchy Pages: 1 -->
<svg width="294pt" height="379pt"
 viewBox="0.00 0.00 293.50 378.50" xmlns="http://www.w3.org/2000/svg" xmlns:xlink="http://www.w3.org/1999/xlink">
<g id="graph0" class="graph" transform="scale(1 1) rotate(0) translate(4 374.5)">
<title>Graphical Class Hierarchy</title>
<!-- Node0 -->
<g id="Node000000" class="node">
<title>Node0</title>
<g id="a_Node000000"><a xlink:title=" ">
<polygon fill="#e0e0e0" stroke="#999999" points="88,-185.12 0,-185.12 0,-164.38 88,-164.38 88,-185.12"/>
<text text-anchor="middle" x="44" y="-171.62" font-family="Helvetica,sans-Serif" font-size="10.00">std::false_type</text>
</a>
</g>
</g>
<!-- Node1 -->
<g id="Node000001" class="node">
<title>Node1</title>
<g id="a_Node000001"><a xlink:href="structCLI_1_1detail_1_1is__mutable__container.html" target="_top" xlink:title=" ">
<polygon fill="white" stroke="#666666" points="267.12,-370.5 142.38,-370.5 142.38,-337 267.12,-337 267.12,-370.5"/>
<text text-anchor="start" x="150.38" y="-357" font-family="Helvetica,sans-Serif" font-size="10.00">CLI::detail::is_mutable</text>
<text text-anchor="middle" x="204.75" y="-344.25" font-family="Helvetica,sans-Serif" font-size="10.00">_container&lt; T, _ &gt;</text>
</a>
</g>
</g>
<!-- Node0&#45;&gt;Node1 -->
<g id="edge231_Node000000_Node000001" class="edge">
<title>Node0&#45;&gt;Node1</title>
<g id="a_edge231_Node000000_Node000001"><a xlink:title=" ">
<path fill="none" stroke="#63b8ff" d="M50.49,-196.52C59.94,-229.59 82.4,-292.38 124,-327.75 129.33,-332.28 135.46,-336.02 141.91,-339.12"/>
<polygon fill="#63b8ff" stroke="#63b8ff" points="53.88,-195.62 47.89,-186.88 47.12,-197.44 53.88,-195.62"/>
</a>
</g>
</g>
<!-- Node2 -->
<g id="Node000002" class="node">
<title>Node2</title>
<g id="a_Node000002"><a xlink:href="structCLI_1_1detail_1_1is__readable__container.html" target="_top" xlink:title=" ">
<polygon fill="white" stroke="#666666" points="268.25,-318.5 141.25,-318.5 141.25,-285 268.25,-285 268.25,-318.5"/>
<text text-anchor="start" x="149.25" y="-305" font-family="Helvetica,sans-Serif" font-size="10.00">CLI::detail::is_readable</text>
<text text-anchor="middle" x="204.75" y="-292.25" font-family="Helvetica,sans-Serif" font-size="10.00">_container&lt; T, _ &gt;</text>
</a>
</g>
</g>
<!-- Node0&#45;&gt;Node2 -->
<g id="edge232_Node000000_Node000002" class="edge">
<title>Node0&#45;&gt;Node2</title>
<g id="a_edge232_Node000000_Node000002"><a xlink:title=" ">
<path fill="none" stroke="#63b8ff" d="M56.24,-195.62C69.54,-218.44 93.76,-254.57 124,-275.75 129.25,-279.43 135.05,-282.61 141.05,-285.35"/>
<polygon fill="#63b8ff" stroke="#63b8ff" points="59.3,-193.93 51.35,-186.93 53.2,-197.36 59.3,-193.93"/>
</a>
</g>
</g>
<!-- Node3 -->
<g id="Node000003" class="node">
<title>Node3</title>
<g id="a_Node000003"><a xlink:href="structCLI_1_1detail_1_1is__wrapper.html" target="_top" xlink:title=" ">
<polygon fill="white" stroke="#666666" points="266.75,-266.5 142.75,-266.5 142.75,-233 266.75,-233 266.75,-266.5"/>
<text text-anchor="start" x="150.75" y="-253" font-family="Helvetica,sans-Serif" font-size="10.00">CLI::detail::is_wrapper</text>
<text text-anchor="middle" x="204.75" y="-240.25" font-family="Helvetica,sans-Serif" font-size="10.00">&lt; T, _ &gt;</text>
</a>
</g>
</g>
<!-- Node0&#45;&gt;Node3 -->
<g id="edge233_Node000000_Node000003" class="edge">
<title>Node0&#45;&gt;Node3</title>
<g id="a_edge233_Node000000_Node000003"><a xlink:title=" ">
<path fill="none" stroke="#63b8ff" d="M69.03,-191.76C84.26,-202.01 104.67,-214.76 124,-223.75 130.87,-226.94 138.23,-229.91 145.62,-232.61"/>
<polygon fill="#63b8ff" stroke="#63b8ff" points="71.3,-189.08 61.08,-186.32 67.35,-194.86 71.3,-189.08"/>
</a>
</g>
</g>
<!-- Node4 -->
<g id="Node000004" class="node">
<title>Node4</title>
<g id="a_Node000004"><a xlink:href="structCLI_1_1detail_1_1pair__adaptor.html" target="_top" xlink:title="Adaptor for set&#45;like structure: This just wraps a normal container in a few utilities that do almost ...">
<polygon fill="white" stroke="#666666" points="270.88,-214.5 138.62,-214.5 138.62,-181 270.88,-181 270.88,-214.5"/>
<text text-anchor="start" x="146.62" y="-201" font-family="Helvetica,sans-Serif" font-size="10.00">CLI::detail::pair_adaptor</text>
<text text-anchor="middle" x="204.75" y="-188.25" font-family="Helvetica,sans-Serif" font-size="10.00">&lt; T, _ &gt;</text>
</a>
</g>
</g>
<!-- Node0&#45;&gt;Node4 -->
<g id="edge234_Node000000_Node000004" class="edge">
<title>Node0&#45;&gt;Node4</title>
<g id="a_edge234_Node000000_Node000004"><a xlink:title=" ">
<path fill="none" stroke="#63b8ff" d="M99.56,-182.65C112.06,-184.47 125.48,-186.41 138.38,-188.28"/>
<polygon fill="#63b8ff" stroke="#63b8ff" points="100.28,-179.22 89.88,-181.25 99.27,-186.15 100.28,-179.22"/>
</a>
</g>
</g>
<!-- Node5 -->
<g id="Node000005" class="node">
<title>Node5</title>
<g id="a_Node000005"><a xlink:href="structCLI_1_1is__bool.html" target="_top" xlink:title="Check to see if something is bool (fail check by default)">
<polygon fill="white" stroke="#666666" points="254.75,-163.12 154.75,-163.12 154.75,-142.38 254.75,-142.38 254.75,-163.12"/>
<text text-anchor="middle" x="204.75" y="-149.62" font-family="Helvetica,sans-Serif" font-size="10.00">CLI::is_bool&lt; T &gt;</text>
</a>
</g>
</g>
<!-- Node0&#45;&gt;Node5 -->
<g id="edge235_Node000000_Node000005" class="edge">
<title>Node0&#45;&gt;Node5</title>
<g id="a_edge235_Node000000_Node000005"><a xlink:title=" ">
<path fill="none" stroke="#63b8ff" d="M99.71,-167.17C117.42,-164.71 136.95,-162.01 154.25,-159.61"/>
<polygon fill="#63b8ff" stroke="#63b8ff" points="99.3,-163.69 89.88,-168.53 100.26,-170.62 99.3,-163.69"/>
</a>
</g>
</g>
<!-- Node6 -->
<g id="Node000006" class="node">
<title>Node6</title>
<g id="a_Node000006"><a xlink:href="structCLI_1_1is__shared__ptr.html" target="_top" xlink:title="Check to see if something is a shared pointer.">
<polygon fill="white" stroke="#666666" points="270.12,-124.12 139.38,-124.12 139.38,-103.38 270.12,-103.38 270.12,-124.12"/>
<text text-anchor="middle" x="204.75" y="-110.62" font-family="Helvetica,sans-Serif" font-size="10.00">CLI::is_shared_ptr&lt; T &gt;</text>
</a>
</g>
</g>
<!-- Node0&#45;&gt;Node6 -->
<g id="edge236_Node000000_Node000006" class="edge">
<title>Node0&#45;&gt;Node6</title>
<g id="a_edge236_Node000000_Node000006"><a xlink:title=" ">
<path fill="none" stroke="#63b8ff" d="M72.96,-158.2C87.75,-149.98 106.44,-140.4 124,-133.75 133.21,-130.26 143.25,-127.2 153,-124.59"/>
<polygon fill="#63b8ff" stroke="#63b8ff" points="71.24,-155.16 64.27,-163.14 74.7,-161.24 71.24,-155.16"/>
</a>
</g>
</g>
<!-- Node7 -->
<g id="Node000007" class="node">
<title>Node7</title>
<g id="a_Node000007"><a xlink:href="structghc_1_1filesystem_1_1detail_1_1has__d__type.html" target="_top" xlink:title=" ">
<polygon fill="white" stroke="#666666" points="285.5,-85.5 124,-85.5 124,-52 285.5,-52 285.5,-85.5"/>
<text text-anchor="start" x="132" y="-72" font-family="Helvetica,sans-Serif" font-size="10.00">ghc::filesystem::detail</text>
<text text-anchor="middle" x="204.75" y="-59.25" font-family="Helvetica,sans-Serif" font-size="10.00">::has_d_type&lt; T, typename &gt;</text>
</a>
</g>
</g>
<!-- Node0&#45;&gt;Node7 -->
<g id="edge237_Node000000_Node000007" class="edge">
<title>Node0&#45;&gt;Node7</title>
<g id="a_edge237_Node000000_Node000007"><a xlink:title=" ">
<path fill="none" stroke="#63b8ff" d="M59.86,-155.02C74.4,-136.99 98.08,-110.76 124,-94.75 129.33,-91.46 135.11,-88.54 141.06,-85.96"/>
<polygon fill="#63b8ff" stroke="#63b8ff" points="57.11,-152.86 53.7,-162.89 62.62,-157.17 57.11,-152.86"/>
</a>
</g>
</g>
<!-- Node8 -->
<g id="Node000008" class="node">
<title>Node8</title>
<g id="a_Node000008"><a xlink:href="structghc_1_1filesystem_1_1path_1_1__is__basic__string.html" target="_top" xlink:title=" ">
<polygon fill="white" stroke="#666666" points="268.62,-33.5 140.88,-33.5 140.88,0 268.62,0 268.62,-33.5"/>
<text text-anchor="start" x="148.88" y="-20" font-family="Helvetica,sans-Serif" font-size="10.00">ghc::filesystem::path</text>
<text text-anchor="middle" x="204.75" y="-7.25" font-family="Helvetica,sans-Serif" font-size="10.00">::_is_basic_string&lt; T &gt;</text>
</a>
</g>
</g>
<!-- Node0&#45;&gt;Node8 -->
<g id="edge238_Node000000_Node000008" class="edge">
<title>Node0&#45;&gt;Node8</title>
<g id="a_edge238_Node000000_Node000008"><a xlink:title=" ">
<path fill="none" stroke="#63b8ff" d="M52.27,-153.48C63.28,-124.36 86.93,-72.32 124,-42.75 129.01,-38.75 134.65,-35.36 140.56,-32.49"/>
<polygon fill="#63b8ff" stroke="#63b8ff" points="49.05,-152.08 48.95,-162.68 55.64,-154.46 49.05,-152.08"/>
</a>
</g>
</g>
</g>
</svg>
