<?xml version="1.0" encoding="UTF-8" standalone="no"?>
<!DOCTYPE svg PUBLIC "-//W3C//DTD SVG 1.1//EN"
 "http://www.w3.org/Graphics/SVG/1.1/DTD/svg11.dtd">
<!-- Generated by graphviz version 5.0.1 (0)
 -->
<!-- Title: Graphical Class Hierarchy Pages: 1 -->
<svg width="688pt" height="582pt"
 viewBox="0.00 0.00 688.00 582.00" xmlns="http://www.w3.org/2000/svg" xmlns:xlink="http://www.w3.org/1999/xlink">
<g id="graph0" class="graph" transform="scale(1 1) rotate(0) translate(4 578)">
<title>Graphical Class Hierarchy</title>
<!-- Node0 -->
<g id="node1" class="node">
<title>Node0</title>
<g id="a_node1"><a xlink:title=" ">
<polygon fill="#e0e0e0" stroke="#999999" points="104,-380 0,-380 0,-361 104,-361 104,-380"/>
<text text-anchor="middle" x="52" y="-368" font-family="Helvetica,sans-Serif" font-size="10.00">std::runtime_error</text>
</a>
</g>
</g>
<!-- Node1 -->
<g id="node2" class="node">
<title>Node1</title>
<g id="a_node2"><a xlink:href="classCLI_1_1Error.html" target="_top" xlink:title="All errors derive from this one.">
<polygon fill="white" stroke="#666666" points="201,-380 140,-380 140,-361 201,-361 201,-380"/>
<text text-anchor="middle" x="170.5" y="-368" font-family="Helvetica,sans-Serif" font-size="10.00">CLI::Error</text>
</a>
</g>
</g>
<!-- Node0&#45;&gt;Node1 -->
<g id="edge1" class="edge">
<title>Node0&#45;&gt;Node1</title>
<path fill="none" stroke="#63b8ff" d="M114.18,-370.5C123.11,-370.5 131.96,-370.5 139.86,-370.5"/>
<polygon fill="#63b8ff" stroke="#63b8ff" points="114.1,-367 104.1,-370.5 114.1,-374 114.1,-367"/>
</g>
<!-- Node2 -->
<g id="node3" class="node">
<title>Node2</title>
<g id="a_node3"><a xlink:href="classCLI_1_1ConstructionError.html" target="_top" xlink:title="Construction errors (not in parsing)">
<polygon fill="white" stroke="#666666" points="359,-518 237,-518 237,-499 359,-499 359,-518"/>
<text text-anchor="middle" x="298" y="-506" font-family="Helvetica,sans-Serif" font-size="10.00">CLI::ConstructionError</text>
</a>
</g>
</g>
<!-- Node1&#45;&gt;Node2 -->
<g id="edge2" class="edge">
<title>Node1&#45;&gt;Node2</title>
<path fill="none" stroke="#63b8ff" d="M187.29,-387.87C213.94,-417.16 266.97,-475.48 288.06,-498.67"/>
<polygon fill="#63b8ff" stroke="#63b8ff" points="189.84,-385.47 180.53,-380.42 184.66,-390.18 189.84,-385.47"/>
</g>
<!-- Node6 -->
<g id="node7" class="node">
<title>Node6</title>
<g id="a_node7"><a xlink:href="classCLI_1_1OptionNotFound.html" target="_top" xlink:title="Thrown when counting a non&#45;existent option.">
<polygon fill="white" stroke="#666666" points="356,-380 240,-380 240,-361 356,-361 356,-380"/>
<text text-anchor="middle" x="298" y="-368" font-family="Helvetica,sans-Serif" font-size="10.00">CLI::OptionNotFound</text>
</a>
</g>
</g>
<!-- Node1&#45;&gt;Node6 -->
<g id="edge6" class="edge">
<title>Node1&#45;&gt;Node6</title>
<path fill="none" stroke="#63b8ff" d="M211.47,-370.5C220.52,-370.5 230.3,-370.5 239.9,-370.5"/>
<polygon fill="#63b8ff" stroke="#63b8ff" points="211.24,-367 201.24,-370.5 211.24,-374 211.24,-367"/>
</g>
<!-- Node7 -->
<g id="node8" class="node">
<title>Node7</title>
<g id="a_node8"><a xlink:href="classCLI_1_1ParseError.html" target="_top" xlink:title="Anything that can error in Parse.">
<polygon fill="white" stroke="#666666" points="341.5,-260 254.5,-260 254.5,-241 341.5,-241 341.5,-260"/>
<text text-anchor="middle" x="298" y="-248" font-family="Helvetica,sans-Serif" font-size="10.00">CLI::ParseError</text>
</a>
</g>
</g>
<!-- Node1&#45;&gt;Node7 -->
<g id="edge7" class="edge">
<title>Node1&#45;&gt;Node7</title>
<path fill="none" stroke="#63b8ff" d="M189.27,-353.51C216,-327.95 265.69,-280.44 286.94,-260.12"/>
<polygon fill="#63b8ff" stroke="#63b8ff" points="186.58,-351.24 181.77,-360.68 191.42,-356.3 186.58,-351.24"/>
</g>
<!-- Node3 -->
<g id="node4" class="node">
<title>Node3</title>
<g id="a_node4"><a xlink:href="classCLI_1_1BadNameString.html" target="_top" xlink:title="Thrown on construction of a bad name.">
<polygon fill="white" stroke="#666666" points="523,-574 409,-574 409,-555 523,-555 523,-574"/>
<text text-anchor="middle" x="466" y="-562" font-family="Helvetica,sans-Serif" font-size="10.00">CLI::BadNameString</text>
</a>
</g>
</g>
<!-- Node2&#45;&gt;Node3 -->
<g id="edge3" class="edge">
<title>Node2&#45;&gt;Node3</title>
<path fill="none" stroke="#63b8ff" d="M330.27,-522.03C348.86,-529.78 373.04,-539.36 395,-546.5 404.43,-549.56 414.7,-552.45 424.4,-554.98"/>
<polygon fill="#63b8ff" stroke="#63b8ff" points="331.4,-518.71 320.83,-518.05 328.68,-525.16 331.4,-518.71"/>
</g>
<!-- Node4 -->
<g id="node5" class="node">
<title>Node4</title>
<g id="a_node5"><a xlink:href="classCLI_1_1IncorrectConstruction.html" target="_top" xlink:title="Thrown when an option is set to conflicting values (non&#45;vector and multi args, for example)">
<polygon fill="white" stroke="#666666" points="537,-537 395,-537 395,-518 537,-518 537,-537"/>
<text text-anchor="middle" x="466" y="-525" font-family="Helvetica,sans-Serif" font-size="10.00">CLI::IncorrectConstruction</text>
</a>
</g>
</g>
<!-- Node2&#45;&gt;Node4 -->
<g id="edge4" class="edge">
<title>Node2&#45;&gt;Node4</title>
<path fill="none" stroke="#63b8ff" d="M369.5,-516.57C377.87,-517.53 386.42,-518.51 394.79,-519.46"/>
<polygon fill="#63b8ff" stroke="#63b8ff" points="369.73,-513.07 359.4,-515.41 368.94,-520.03 369.73,-513.07"/>
</g>
<!-- Node5 -->
<g id="node6" class="node">
<title>Node5</title>
<g id="a_node6"><a xlink:href="classCLI_1_1OptionAlreadyAdded.html" target="_top" xlink:title="Thrown when an option already exists.">
<polygon fill="white" stroke="#666666" points="535,-500 397,-500 397,-481 535,-481 535,-500"/>
<text text-anchor="middle" x="466" y="-488" font-family="Helvetica,sans-Serif" font-size="10.00">CLI::OptionAlreadyAdded</text>
</a>
</g>
</g>
<!-- Node2&#45;&gt;Node5 -->
<g id="edge5" class="edge">
<title>Node2&#45;&gt;Node5</title>
<path fill="none" stroke="#63b8ff" d="M369.49,-500.86C378.53,-499.88 387.77,-498.87 396.77,-497.9"/>
<polygon fill="#63b8ff" stroke="#63b8ff" points="368.96,-497.39 359.4,-501.95 369.72,-504.35 368.96,-497.39"/>
</g>
<!-- Node8 -->
<g id="node9" class="node">
<title>Node8</title>
<g id="a_node9"><a xlink:href="classCLI_1_1ArgumentMismatch.html" target="_top" xlink:title="Thrown when the wrong number of arguments has been received.">
<polygon fill="white" stroke="#666666" points="533,-463 399,-463 399,-444 533,-444 533,-463"/>
<text text-anchor="middle" x="466" y="-451" font-family="Helvetica,sans-Serif" font-size="10.00">CLI::ArgumentMismatch</text>
</a>
</g>
</g>
<!-- Node7&#45;&gt;Node8 -->
<g id="edge8" class="edge">
<title>Node7&#45;&gt;Node8</title>
<path fill="none" stroke="#63b8ff" d="M310.56,-268.59C323.18,-288.69 343.64,-322.3 359,-352.5 377.23,-388.34 364.42,-409.39 395,-435.5 399.01,-438.92 403.59,-441.71 408.44,-443.97"/>
<polygon fill="#63b8ff" stroke="#63b8ff" points="313.5,-266.7 305.2,-260.12 307.59,-270.45 313.5,-266.7"/>
</g>
<!-- Node9 -->
<g id="node10" class="node">
<title>Node9</title>
<g id="a_node10"><a xlink:href="classCLI_1_1ConfigError.html" target="_top" xlink:title="Thrown when extra values are found in an INI file.">
<polygon fill="white" stroke="#666666" points="512,-426 420,-426 420,-407 512,-407 512,-426"/>
<text text-anchor="middle" x="466" y="-414" font-family="Helvetica,sans-Serif" font-size="10.00">CLI::ConfigError</text>
</a>
</g>
</g>
<!-- Node7&#45;&gt;Node9 -->
<g id="edge9" class="edge">
<title>Node7&#45;&gt;Node9</title>
<path fill="none" stroke="#63b8ff" d="M310.19,-269.38C332.79,-307.26 382.79,-389.72 395,-398.5 402.33,-403.78 411.08,-407.51 419.86,-410.15"/>
<polygon fill="#63b8ff" stroke="#63b8ff" points="312.95,-267.18 304.83,-260.37 306.93,-270.76 312.95,-267.18"/>
</g>
<!-- Node10 -->
<g id="node11" class="node">
<title>Node10</title>
<g id="a_node11"><a xlink:href="classCLI_1_1ConversionError.html" target="_top" xlink:title="Thrown when conversion call back fails, such as when an int fails to coerce to a string.">
<polygon fill="white" stroke="#666666" points="524,-389 408,-389 408,-370 524,-370 524,-389"/>
<text text-anchor="middle" x="466" y="-377" font-family="Helvetica,sans-Serif" font-size="10.00">CLI::ConversionError</text>
</a>
</g>
</g>
<!-- Node7&#45;&gt;Node10 -->
<g id="edge10" class="edge">
<title>Node7&#45;&gt;Node10</title>
<path fill="none" stroke="#63b8ff" d="M309.95,-269.09C325.6,-293.99 356.76,-337.81 395,-361.5 400.55,-364.94 406.73,-367.72 413.06,-369.97"/>
<polygon fill="#63b8ff" stroke="#63b8ff" points="312.75,-266.97 304.55,-260.26 306.78,-270.62 312.75,-266.97"/>
</g>
<!-- Node11 -->
<g id="node12" class="node">
<title>Node11</title>
<g id="a_node12"><a xlink:href="classCLI_1_1ExcludesError.html" target="_top" xlink:title="Thrown when an excludes option is present.">
<polygon fill="white" stroke="#666666" points="518,-352 414,-352 414,-333 518,-333 518,-352"/>
<text text-anchor="middle" x="466" y="-340" font-family="Helvetica,sans-Serif" font-size="10.00">CLI::ExcludesError</text>
</a>
</g>
</g>
<!-- Node7&#45;&gt;Node11 -->
<g id="edge11" class="edge">
<title>Node7&#45;&gt;Node11</title>
<path fill="none" stroke="#63b8ff" d="M316.17,-267.27C334.32,-284.11 364.5,-309.61 395,-324.5 401.88,-327.86 409.45,-330.64 417,-332.92"/>
<polygon fill="#63b8ff" stroke="#63b8ff" points="318.39,-264.55 308.72,-260.22 313.58,-269.64 318.39,-264.55"/>
</g>
<!-- Node12 -->
<g id="node13" class="node">
<title>Node12</title>
<g id="a_node13"><a xlink:href="classCLI_1_1ExtrasError.html" target="_top" xlink:title="Thrown when too many positionals or options are found.">
<polygon fill="white" stroke="#666666" points="512,-315 420,-315 420,-296 512,-296 512,-315"/>
<text text-anchor="middle" x="466" y="-303" font-family="Helvetica,sans-Serif" font-size="10.00">CLI::ExtrasError</text>
</a>
</g>
</g>
<!-- Node7&#45;&gt;Node12 -->
<g id="edge12" class="edge">
<title>Node7&#45;&gt;Node12</title>
<path fill="none" stroke="#63b8ff" d="M331.04,-263.92C349.54,-271.4 373.37,-280.58 395,-287.5 404.44,-290.52 414.72,-293.39 424.42,-295.92"/>
<polygon fill="#63b8ff" stroke="#63b8ff" points="332.2,-260.62 321.62,-260.08 329.56,-267.1 332.2,-260.62"/>
</g>
<!-- Node13 -->
<g id="node14" class="node">
<title>Node13</title>
<g id="a_node14"><a xlink:href="classCLI_1_1FileError.html" target="_top" xlink:title="Thrown when parsing an INI file and it is missing.">
<polygon fill="white" stroke="#666666" points="505,-278 427,-278 427,-259 505,-259 505,-278"/>
<text text-anchor="middle" x="466" y="-266" font-family="Helvetica,sans-Serif" font-size="10.00">CLI::FileError</text>
</a>
</g>
</g>
<!-- Node7&#45;&gt;Node13 -->
<g id="edge13" class="edge">
<title>Node7&#45;&gt;Node13</title>
<path fill="none" stroke="#63b8ff" d="M351.92,-256.24C376.31,-258.88 404.69,-261.96 426.93,-264.37"/>
<polygon fill="#63b8ff" stroke="#63b8ff" points="352.07,-252.73 341.75,-255.14 351.31,-259.69 352.07,-252.73"/>
</g>
<!-- Node14 -->
<g id="node15" class="node">
<title>Node14</title>
<g id="a_node15"><a xlink:href="classCLI_1_1HorribleError.html" target="_top" xlink:title=" ">
<polygon fill="white" stroke="#666666" points="516,-241 416,-241 416,-222 516,-222 516,-241"/>
<text text-anchor="middle" x="466" y="-229" font-family="Helvetica,sans-Serif" font-size="10.00">CLI::HorribleError</text>
</a>
</g>
</g>
<!-- Node7&#45;&gt;Node14 -->
<g id="edge14" class="edge">
<title>Node7&#45;&gt;Node14</title>
<path fill="none" stroke="#63b8ff" d="M351.88,-244.45C372.41,-242.1 395.78,-239.42 415.93,-237.12"/>
<polygon fill="#63b8ff" stroke="#63b8ff" points="351.29,-240.99 341.75,-245.61 352.08,-247.95 351.29,-240.99"/>
</g>
<!-- Node15 -->
<g id="node16" class="node">
<title>Node15</title>
<g id="a_node16"><a xlink:href="classCLI_1_1InvalidError.html" target="_top" xlink:title="Thrown when validation fails before parsing.">
<polygon fill="white" stroke="#666666" points="513,-204 419,-204 419,-185 513,-185 513,-204"/>
<text text-anchor="middle" x="466" y="-192" font-family="Helvetica,sans-Serif" font-size="10.00">CLI::InvalidError</text>
</a>
</g>
</g>
<!-- Node7&#45;&gt;Node15 -->
<g id="edge15" class="edge">
<title>Node7&#45;&gt;Node15</title>
<path fill="none" stroke="#63b8ff" d="M331.45,-237.04C349.91,-229.62 373.56,-220.52 395,-213.5 405.29,-210.13 416.57,-206.88 427.01,-204.05"/>
<polygon fill="#63b8ff" stroke="#63b8ff" points="329.99,-233.85 322.04,-240.85 332.62,-240.34 329.99,-233.85"/>
</g>
<!-- Node16 -->
<g id="node17" class="node">
<title>Node16</title>
<g id="a_node17"><a xlink:href="classCLI_1_1RequiredError.html" target="_top" xlink:title="Thrown when a required option is missing.">
<polygon fill="white" stroke="#666666" points="518,-167 414,-167 414,-148 518,-148 518,-167"/>
<text text-anchor="middle" x="466" y="-155" font-family="Helvetica,sans-Serif" font-size="10.00">CLI::RequiredError</text>
</a>
</g>
</g>
<!-- Node7&#45;&gt;Node16 -->
<g id="edge16" class="edge">
<title>Node7&#45;&gt;Node16</title>
<path fill="none" stroke="#63b8ff" d="M316.21,-233.81C334.4,-217.05 364.6,-191.6 395,-176.5 402.67,-172.69 411.2,-169.57 419.6,-167.03"/>
<polygon fill="#63b8ff" stroke="#63b8ff" points="313.63,-231.43 308.74,-240.83 318.43,-236.53 313.63,-231.43"/>
</g>
<!-- Node17 -->
<g id="node18" class="node">
<title>Node17</title>
<g id="a_node18"><a xlink:href="classCLI_1_1RequiresError.html" target="_top" xlink:title="Thrown when a requires option is missing.">
<polygon fill="white" stroke="#666666" points="518,-130 414,-130 414,-111 518,-111 518,-130"/>
<text text-anchor="middle" x="466" y="-118" font-family="Helvetica,sans-Serif" font-size="10.00">CLI::RequiresError</text>
</a>
</g>
</g>
<!-- Node7&#45;&gt;Node17 -->
<g id="edge17" class="edge">
<title>Node7&#45;&gt;Node17</title>
<path fill="none" stroke="#63b8ff" d="M309.99,-231.99C325.7,-207.16 356.92,-163.45 395,-139.5 401.18,-135.61 408.16,-132.51 415.25,-130.04"/>
<polygon fill="#63b8ff" stroke="#63b8ff" points="306.84,-230.43 304.58,-240.78 312.8,-234.1 306.84,-230.43"/>
</g>
<!-- Node18 -->
<g id="node19" class="node">
<title>Node18</title>
<g id="a_node19"><a xlink:href="classCLI_1_1RuntimeError.html" target="_top" xlink:title="Does not output a diagnostic in CLI11_PARSE, but allows main() to return with a specific error code.">
<polygon fill="white" stroke="#666666" points="517,-93 415,-93 415,-74 517,-74 517,-93"/>
<text text-anchor="middle" x="466" y="-81" font-family="Helvetica,sans-Serif" font-size="10.00">CLI::RuntimeError</text>
</a>
</g>
</g>
<!-- Node7&#45;&gt;Node18 -->
<g id="edge18" class="edge">
<title>Node7&#45;&gt;Node18</title>
<path fill="none" stroke="#63b8ff" d="M306.1,-231.33C318.87,-199.58 348.76,-136.23 395,-102.5 400.9,-98.2 407.72,-94.87 414.74,-92.29"/>
<polygon fill="#63b8ff" stroke="#63b8ff" points="302.78,-230.21 302.43,-240.8 309.31,-232.74 302.78,-230.21"/>
</g>
<!-- Node19 -->
<g id="node20" class="node">
<title>Node19</title>
<g id="a_node20"><a xlink:href="classCLI_1_1Success.html" target="_top" xlink:title="This is a successful completion on parsing, supposed to exit.">
<polygon fill="white" stroke="#666666" points="504.5,-56 427.5,-56 427.5,-37 504.5,-37 504.5,-56"/>
<text text-anchor="middle" x="466" y="-44" font-family="Helvetica,sans-Serif" font-size="10.00">CLI::Success</text>
</a>
</g>
</g>
<!-- Node7&#45;&gt;Node19 -->
<g id="edge19" class="edge">
<title>Node7&#45;&gt;Node19</title>
<path fill="none" stroke="#63b8ff" d="M303.57,-230.88C313.44,-192.97 340.39,-109.53 395,-65.5 404.21,-58.07 416.1,-53.53 427.45,-50.77"/>
<polygon fill="#63b8ff" stroke="#63b8ff" points="300.15,-230.14 301.14,-240.69 306.94,-231.83 300.15,-230.14"/>
</g>
<!-- Node23 -->
<g id="node24" class="node">
<title>Node23</title>
<g id="a_node24"><a xlink:href="classCLI_1_1ValidationError.html" target="_top" xlink:title="Thrown when validation of results fails.">
<polygon fill="white" stroke="#666666" points="521,-19 411,-19 411,0 521,0 521,-19"/>
<text text-anchor="middle" x="466" y="-7" font-family="Helvetica,sans-Serif" font-size="10.00">CLI::ValidationError</text>
</a>
</g>
</g>
<!-- Node7&#45;&gt;Node23 -->
<g id="edge23" class="edge">
<title>Node7&#45;&gt;Node23</title>
<path fill="none" stroke="#63b8ff" d="M301.74,-230.65C308.82,-187.22 331.78,-83.27 395,-28.5 399.66,-24.46 405.11,-21.27 410.86,-18.75"/>
<polygon fill="#63b8ff" stroke="#63b8ff" points="298.25,-230.36 300.21,-240.77 305.17,-231.4 298.25,-230.36"/>
</g>
<!-- Node20 -->
<g id="node21" class="node">
<title>Node20</title>
<g id="a_node21"><a xlink:href="classCLI_1_1CallForAllHelp.html" target="_top" xlink:title="Usually something like –help&#45;all on command line.">
<polygon fill="white" stroke="#666666" points="680,-93 573,-93 573,-74 680,-74 680,-93"/>
<text text-anchor="middle" x="626.5" y="-81" font-family="Helvetica,sans-Serif" font-size="10.00">CLI::CallForAllHelp</text>
</a>
</g>
</g>
<!-- Node19&#45;&gt;Node20 -->
<g id="edge20" class="edge">
<title>Node19&#45;&gt;Node20</title>
<path fill="none" stroke="#63b8ff" d="M514.5,-57.59C536.82,-62.8 563.17,-68.95 584.59,-73.95"/>
<polygon fill="#63b8ff" stroke="#63b8ff" points="515.1,-54.13 504.56,-55.27 513.5,-60.95 515.1,-54.13"/>
</g>
<!-- Node21 -->
<g id="node22" class="node">
<title>Node21</title>
<g id="a_node22"><a xlink:href="classCLI_1_1CallForHelp.html" target="_top" xlink:title="&#45;h or –help on command line">
<polygon fill="white" stroke="#666666" points="673.5,-56 579.5,-56 579.5,-37 673.5,-37 673.5,-56"/>
<text text-anchor="middle" x="626.5" y="-44" font-family="Helvetica,sans-Serif" font-size="10.00">CLI::CallForHelp</text>
</a>
</g>
</g>
<!-- Node19&#45;&gt;Node21 -->
<g id="edge21" class="edge">
<title>Node19&#45;&gt;Node21</title>
<path fill="none" stroke="#63b8ff" d="M514.64,-46.5C535.17,-46.5 559.08,-46.5 579.43,-46.5"/>
<polygon fill="#63b8ff" stroke="#63b8ff" points="514.56,-43 504.56,-46.5 514.56,-50 514.56,-43"/>
</g>
<!-- Node22 -->
<g id="node23" class="node">
<title>Node22</title>
<g id="a_node23"><a xlink:href="classCLI_1_1CallForVersion.html" target="_top" xlink:title="&#45;v or –version on command line">
<polygon fill="white" stroke="#666666" points="680,-19 573,-19 573,0 680,0 680,-19"/>
<text text-anchor="middle" x="626.5" y="-7" font-family="Helvetica,sans-Serif" font-size="10.00">CLI::CallForVersion</text>
</a>
</g>
</g>
<!-- Node19&#45;&gt;Node22 -->
<g id="edge22" class="edge">
<title>Node19&#45;&gt;Node22</title>
<path fill="none" stroke="#63b8ff" d="M514.5,-35.41C536.82,-30.2 563.17,-24.05 584.59,-19.05"/>
<polygon fill="#63b8ff" stroke="#63b8ff" points="513.5,-32.05 504.56,-37.73 515.1,-38.87 513.5,-32.05"/>
</g>
</g>
</svg>
