<?xml version="1.0" encoding="UTF-8" standalone="no"?>
<!DOCTYPE svg PUBLIC "-//W3C//DTD SVG 1.1//EN"
 "http://www.w3.org/Graphics/SVG/1.1/DTD/svg11.dtd">
<!-- Generated by graphviz version 5.0.1 (0)
 -->
<!-- Title: Integrals.hpp Pages: 1 -->
<svg width="1388pt" height="93pt"
 viewBox="0.00 0.00 1388.00 93.00" xmlns="http://www.w3.org/2000/svg" xmlns:xlink="http://www.w3.org/1999/xlink">
<g id="graph0" class="graph" transform="scale(1 1) rotate(0) translate(4 89)">
<title>Integrals.hpp</title>
<!-- Node1 -->
<g id="node1" class="node">
<title>Node1</title>
<g id="a_node1"><a xlink:title=" ">
<polygon fill="#999999" stroke="#666666" points="707.5,-85 627.5,-85 627.5,-66 707.5,-66 707.5,-85"/>
<text text-anchor="middle" x="667.5" y="-73" font-family="Helvetica,sans-Serif" font-size="10.00">Integrals.hpp</text>
</a>
</g>
</g>
<!-- Node2 -->
<g id="node2" class="node">
<title>Node2</title>
<g id="a_node2"><a xlink:href="CoulombIntegralsFromGaussian_8cxx.html" target="_top" xlink:title=" ">
<polygon fill="white" stroke="#666666" points="193,-24.5 0,-24.5 0,-5.5 193,-5.5 193,-24.5"/>
<text text-anchor="middle" x="96.5" y="-12.5" font-family="Helvetica,sans-Serif" font-size="10.00">CoulombIntegralsFromGaussian.cxx</text>
</a>
</g>
</g>
<!-- Node1&#45;&gt;Node2 -->
<g id="edge1" class="edge">
<title>Node1&#45;&gt;Node2</title>
<path fill="none" stroke="#63b8ff" d="M617.14,-70.28C531.75,-62.98 353.14,-47.15 202.5,-30 188.11,-28.36 172.65,-26.42 158.11,-24.52"/>
<polygon fill="#63b8ff" stroke="#63b8ff" points="617.07,-73.78 627.33,-71.15 617.66,-66.81 617.07,-73.78"/>
</g>
<!-- Node3 -->
<g id="node3" class="node">
<title>Node3</title>
<g id="a_node3"><a xlink:href="CoulombIntegralsFromRotatedCoulombIntegrals_8cxx.html" target="_top" xlink:title=" ">
<polygon fill="white" stroke="#666666" points="377.5,-30 211.5,-30 211.5,0 377.5,0 377.5,-30"/>
<text text-anchor="start" x="219.5" y="-18" font-family="Helvetica,sans-Serif" font-size="10.00">CoulombIntegralsFromRotated</text>
<text text-anchor="middle" x="294.5" y="-7" font-family="Helvetica,sans-Serif" font-size="10.00">CoulombIntegrals.cxx</text>
</a>
</g>
</g>
<!-- Node1&#45;&gt;Node3 -->
<g id="edge2" class="edge">
<title>Node1&#45;&gt;Node3</title>
<path fill="none" stroke="#63b8ff" d="M617.02,-66.58C555.59,-56.95 451.02,-40.55 377.65,-29.04"/>
<polygon fill="#63b8ff" stroke="#63b8ff" points="616.81,-70.09 627.23,-68.18 617.89,-63.18 616.81,-70.09"/>
</g>
<!-- Node4 -->
<g id="node4" class="node">
<title>Node4</title>
<g id="a_node4"><a xlink:href="FcidumpReader_8cxx.html" target="_top" xlink:title=" ">
<polygon fill="white" stroke="#666666" points="509,-24.5 396,-24.5 396,-5.5 509,-5.5 509,-24.5"/>
<text text-anchor="middle" x="452.5" y="-12.5" font-family="Helvetica,sans-Serif" font-size="10.00">FcidumpReader.cxx</text>
</a>
</g>
</g>
<!-- Node1&#45;&gt;Node4 -->
<g id="edge3" class="edge">
<title>Node1&#45;&gt;Node4</title>
<path fill="none" stroke="#63b8ff" d="M626.42,-63.32C584.85,-52.01 521.48,-34.77 483.8,-24.52"/>
<polygon fill="#63b8ff" stroke="#63b8ff" points="625.67,-66.75 636.24,-65.99 627.51,-59.99 625.67,-66.75"/>
</g>
<!-- Node5 -->
<g id="node5" class="node">
<title>Node5</title>
<g id="a_node5"><a xlink:href="FcidumpWriter_8cxx.html" target="_top" xlink:title=" ">
<polygon fill="white" stroke="#666666" points="635.5,-24.5 527.5,-24.5 527.5,-5.5 635.5,-5.5 635.5,-24.5"/>
<text text-anchor="middle" x="581.5" y="-12.5" font-family="Helvetica,sans-Serif" font-size="10.00">FcidumpWriter.cxx</text>
</a>
</g>
</g>
<!-- Node1&#45;&gt;Node5 -->
<g id="edge4" class="edge">
<title>Node1&#45;&gt;Node5</title>
<path fill="none" stroke="#63b8ff" d="M646.42,-60.16C630.08,-49.05 607.98,-34.01 594.24,-24.67"/>
<polygon fill="#63b8ff" stroke="#63b8ff" points="644.57,-63.14 654.81,-65.87 648.51,-57.35 644.57,-63.14"/>
</g>
<!-- Node6 -->
<g id="node6" class="node">
<title>Node6</title>
<g id="a_node6"><a xlink:href="FockMatrixFromCoulombIntegrals_8cxx.html" target="_top" xlink:title=" ">
<polygon fill="white" stroke="#666666" points="855.5,-24.5 653.5,-24.5 653.5,-5.5 855.5,-5.5 855.5,-24.5"/>
<text text-anchor="middle" x="754.5" y="-12.5" font-family="Helvetica,sans-Serif" font-size="10.00">FockMatrixFromCoulombIntegrals.cxx</text>
</a>
</g>
</g>
<!-- Node1&#45;&gt;Node6 -->
<g id="edge5" class="edge">
<title>Node1&#45;&gt;Node6</title>
<path fill="none" stroke="#63b8ff" d="M688.83,-60.16C705.36,-49.05 727.71,-34.01 741.61,-24.67"/>
<polygon fill="#63b8ff" stroke="#63b8ff" points="686.68,-57.38 680.34,-65.87 690.59,-63.19 686.68,-57.38"/>
</g>
<!-- Node7 -->
<g id="node7" class="node">
<title>Node7</title>
<g id="a_node7"><a xlink:href="MeanCorrelationHoleDepth_8cxx.html" target="_top" xlink:title=" ">
<polygon fill="white" stroke="#666666" points="1043.5,-24.5 873.5,-24.5 873.5,-5.5 1043.5,-5.5 1043.5,-24.5"/>
<text text-anchor="middle" x="958.5" y="-12.5" font-family="Helvetica,sans-Serif" font-size="10.00">MeanCorrelationHoleDepth.cxx</text>
</a>
</g>
</g>
<!-- Node1&#45;&gt;Node7 -->
<g id="edge6" class="edge">
<title>Node1&#45;&gt;Node7</title>
<path fill="none" stroke="#63b8ff" d="M717.7,-64.41C773.68,-53.16 863.24,-35.15 915.92,-24.56"/>
<polygon fill="#63b8ff" stroke="#63b8ff" points="716.77,-61.02 707.66,-66.43 718.15,-67.89 716.77,-61.02"/>
</g>
<!-- Node8 -->
<g id="node8" class="node">
<title>Node8</title>
<g id="a_node8"><a xlink:href="OneBodyFromGaussian_8cxx.html" target="_top" xlink:title=" ">
<polygon fill="white" stroke="#666666" points="1213,-24.5 1062,-24.5 1062,-5.5 1213,-5.5 1213,-24.5"/>
<text text-anchor="middle" x="1137.5" y="-12.5" font-family="Helvetica,sans-Serif" font-size="10.00">OneBodyFromGaussian.cxx</text>
</a>
</g>
</g>
<!-- Node1&#45;&gt;Node8 -->
<g id="edge7" class="edge">
<title>Node1&#45;&gt;Node8</title>
<path fill="none" stroke="#63b8ff" d="M718.14,-69.43C791.85,-61.88 932.94,-46.75 1052.5,-30 1064.05,-28.38 1076.46,-26.45 1088.12,-24.55"/>
<polygon fill="#63b8ff" stroke="#63b8ff" points="717.36,-65.99 707.77,-70.49 718.07,-72.96 717.36,-65.99"/>
</g>
<!-- Node9 -->
<g id="node9" class="node">
<title>Node9</title>
<g id="a_node9"><a xlink:href="TensorAntisymmetrizer_8cxx.html" target="_top" xlink:title=" ">
<polygon fill="white" stroke="#666666" points="1380,-24.5 1231,-24.5 1231,-5.5 1380,-5.5 1380,-24.5"/>
<text text-anchor="middle" x="1305.5" y="-12.5" font-family="Helvetica,sans-Serif" font-size="10.00">TensorAntisymmetrizer.cxx</text>
</a>
</g>
</g>
<!-- Node1&#45;&gt;Node9 -->
<g id="edge8" class="edge">
<title>Node1&#45;&gt;Node9</title>
<path fill="none" stroke="#63b8ff" d="M717.84,-71.94C815.45,-66.64 1037.16,-53.02 1222.5,-30 1234.39,-28.52 1247.18,-26.56 1259.07,-24.56"/>
<polygon fill="#63b8ff" stroke="#63b8ff" points="717.47,-68.45 707.67,-72.48 717.84,-75.44 717.47,-68.45"/>
</g>
</g>
</svg>
