<?xml version="1.0" encoding="UTF-8" standalone="no"?>
<!DOCTYPE svg PUBLIC "-//W3C//DTD SVG 1.1//EN"
 "http://www.w3.org/Graphics/SVG/1.1/DTD/svg11.dtd">
<!-- Generated by graphviz version 9.0.0 (0)
 -->
<!-- Title: Integration.hpp Pages: 1 -->
<svg width="723pt" height="256pt"
 viewBox="0.00 0.00 723.38 255.75" xmlns="http://www.w3.org/2000/svg" xmlns:xlink="http://www.w3.org/1999/xlink">
<g id="graph0" class="graph" transform="scale(1 1) rotate(0) translate(4 251.75)">
<title>Integration.hpp</title>
<!-- Node1 -->
<g id="Node000001" class="node">
<title>Node1</title>
<g id="a_Node000001"><a xlink:title=" ">
<polygon fill="#999999" stroke="#666666" points="379,-247.75 288.75,-247.75 288.75,-227 379,-227 379,-247.75"/>
<text text-anchor="middle" x="333.88" y="-234.25" font-family="Helvetica,sans-Serif" font-size="10.00">Integration.hpp</text>
</a>
</g>
</g>
<!-- Node2 -->
<g id="Node000002" class="node">
<title>Node2</title>
<g id="a_Node000002"><a xlink:href="MathFunctions_8hpp.html" target="_top" xlink:title=" ">
<polygon fill="white" stroke="#666666" points="498.25,-191 361.5,-191 361.5,-170.25 498.25,-170.25 498.25,-191"/>
<text text-anchor="middle" x="429.88" y="-177.5" font-family="Helvetica,sans-Serif" font-size="10.00">math/MathFunctions.hpp</text>
</a>
</g>
</g>
<!-- Node1&#45;&gt;Node2 -->
<g id="edge1_Node000001_Node000002" class="edge">
<title>Node1&#45;&gt;Node2</title>
<g id="a_edge1_Node000001_Node000002"><a xlink:title=" ">
<path fill="none" stroke="#63b8ff" d="M351.04,-226.59C365.51,-218.33 386.46,-206.38 403.13,-196.88"/>
<polygon fill="#63b8ff" stroke="#63b8ff" points="404.59,-200.07 411.55,-192.08 401.13,-193.99 404.59,-200.07"/>
</a>
</g>
</g>
<!-- Node8 -->
<g id="Node000008" class="node">
<title>Node8</title>
<g id="a_Node000008"><a xlink:title=" ">
<polygon fill="#e0e0e0" stroke="#999999" points="69.75,-77.5 26,-77.5 26,-56.75 69.75,-56.75 69.75,-77.5"/>
<text text-anchor="middle" x="47.88" y="-64" font-family="Helvetica,sans-Serif" font-size="10.00">string</text>
</a>
</g>
</g>
<!-- Node1&#45;&gt;Node8 -->
<g id="edge24_Node000001_Node000008" class="edge">
<title>Node1&#45;&gt;Node8</title>
<g id="a_edge24_Node000001_Node000008"><a xlink:title=" ">
<path fill="none" stroke="#63b8ff" d="M314.31,-226.54C279.76,-208.98 205.88,-170.68 145.88,-134.25 119.58,-118.29 90.48,-98.35 70.88,-84.56"/>
<polygon fill="#63b8ff" stroke="#63b8ff" points="72.98,-81.76 62.79,-78.84 68.94,-87.48 72.98,-81.76"/>
</a>
</g>
</g>
<!-- Node18 -->
<g id="Node000018" class="node">
<title>Node18</title>
<g id="a_Node000018"><a xlink:title=" ">
<polygon fill="#e0e0e0" stroke="#999999" points="401.62,-77.5 342.12,-77.5 342.12,-56.75 401.62,-56.75 401.62,-77.5"/>
<text text-anchor="middle" x="371.88" y="-64" font-family="Helvetica,sans-Serif" font-size="10.00">iostream</text>
</a>
</g>
</g>
<!-- Node1&#45;&gt;Node18 -->
<g id="edge23_Node000001_Node000018" class="edge">
<title>Node1&#45;&gt;Node18</title>
<g id="a_edge23_Node000001_Node000018"><a xlink:title=" ">
<path fill="none" stroke="#63b8ff" d="M336.03,-226.85C342.01,-200.37 358.93,-125.43 367.21,-88.8"/>
<polygon fill="#63b8ff" stroke="#63b8ff" points="370.53,-89.97 369.32,-79.44 363.7,-88.43 370.53,-89.97"/>
</a>
</g>
</g>
<!-- Node3 -->
<g id="Node000003" class="node">
<title>Node3</title>
<g id="a_Node000003"><a xlink:href="Complex_8hpp.html" target="_top" xlink:title=" ">
<polygon fill="white" stroke="#666666" points="567.38,-134.25 458.38,-134.25 458.38,-113.5 567.38,-113.5 567.38,-134.25"/>
<text text-anchor="middle" x="512.88" y="-120.75" font-family="Helvetica,sans-Serif" font-size="10.00">math/Complex.hpp</text>
</a>
</g>
</g>
<!-- Node2&#45;&gt;Node3 -->
<g id="edge2_Node000002_Node000003" class="edge">
<title>Node2&#45;&gt;Node3</title>
<g id="a_edge2_Node000002_Node000003"><a xlink:title=" ">
<path fill="none" stroke="#63b8ff" d="M444.71,-169.84C456.99,-161.74 474.66,-150.08 488.93,-140.67"/>
<polygon fill="#63b8ff" stroke="#63b8ff" points="490.48,-143.84 496.9,-135.41 486.63,-138 490.48,-143.84"/>
</a>
</g>
</g>
<!-- Node7 -->
<g id="Node000007" class="node">
<title>Node7</title>
<g id="a_Node000007"><a xlink:title=" ">
<polygon fill="#e0e0e0" stroke="#999999" points="404.25,-20.75 357.5,-20.75 357.5,0 404.25,0 404.25,-20.75"/>
<text text-anchor="middle" x="380.88" y="-7.25" font-family="Helvetica,sans-Serif" font-size="10.00">cmath</text>
</a>
</g>
</g>
<!-- Node2&#45;&gt;Node7 -->
<g id="edge6_Node000002_Node000007" class="edge">
<title>Node2&#45;&gt;Node7</title>
<g id="a_edge6_Node000002_Node000007"><a xlink:title=" ">
<path fill="none" stroke="#63b8ff" d="M429.77,-170.02C429.25,-148.84 426.36,-96.82 410.88,-56.75 407.28,-47.44 401.54,-38.08 396.04,-30.31"/>
<polygon fill="#63b8ff" stroke="#63b8ff" points="398.86,-28.23 390.05,-22.34 393.26,-32.44 398.86,-28.23"/>
</a>
</g>
</g>
<!-- Node2&#45;&gt;Node8 -->
<g id="edge7_Node000002_Node000008" class="edge">
<title>Node2&#45;&gt;Node8</title>
<g id="a_edge7_Node000002_Node000008"><a xlink:title=" ">
<path fill="none" stroke="#63b8ff" d="M365.43,-169.79C320.68,-162.16 259.98,-150.18 207.88,-134.25 161.59,-120.1 110.24,-97.59 78.5,-82.83"/>
<polygon fill="#63b8ff" stroke="#63b8ff" points="80.04,-79.69 69.5,-78.61 77.06,-86.03 80.04,-79.69"/>
</a>
</g>
</g>
<!-- Node9 -->
<g id="Node000009" class="node">
<title>Node9</title>
<g id="a_Node000009"><a xlink:href="Tensor_8hpp.html" target="_top" xlink:title=" ">
<polygon fill="white" stroke="#666666" points="697.12,-134.25 610.62,-134.25 610.62,-113.5 697.12,-113.5 697.12,-134.25"/>
<text text-anchor="middle" x="653.88" y="-120.75" font-family="Helvetica,sans-Serif" font-size="10.00">util/Tensor.hpp</text>
</a>
</g>
</g>
<!-- Node2&#45;&gt;Node9 -->
<g id="edge8_Node000002_Node000009" class="edge">
<title>Node2&#45;&gt;Node9</title>
<g id="a_edge8_Node000002_Node000009"><a xlink:title=" ">
<path fill="none" stroke="#63b8ff" d="M470.18,-169.77C507.17,-160.73 562.17,-147.29 602.35,-137.47"/>
<polygon fill="#63b8ff" stroke="#63b8ff" points="603.16,-140.87 612.05,-135.1 601.5,-134.07 603.16,-140.87"/>
</a>
</g>
</g>
<!-- Node12 -->
<g id="Node000012" class="node">
<title>Node12</title>
<g id="a_Node000012"><a xlink:href="Log_8hpp.html" target="_top" xlink:title=" ">
<polygon fill="white" stroke="#666666" points="290.38,-134.25 217.38,-134.25 217.38,-113.5 290.38,-113.5 290.38,-134.25"/>
<text text-anchor="middle" x="253.88" y="-120.75" font-family="Helvetica,sans-Serif" font-size="10.00">util/Log.hpp</text>
</a>
</g>
</g>
<!-- Node2&#45;&gt;Node12 -->
<g id="edge11_Node000002_Node000012" class="edge">
<title>Node2&#45;&gt;Node12</title>
<g id="a_edge11_Node000002_Node000012"><a xlink:title=" ">
<path fill="none" stroke="#63b8ff" d="M398.41,-169.84C369.84,-160.95 327.49,-147.77 296.01,-137.98"/>
<polygon fill="#63b8ff" stroke="#63b8ff" points="297.4,-134.75 286.81,-135.12 295.32,-141.43 297.4,-134.75"/>
</a>
</g>
</g>
<!-- Node4 -->
<g id="Node000004" class="node">
<title>Node4</title>
<g id="a_Node000004"><a xlink:href="Float_8hpp.html" target="_top" xlink:title=" ">
<polygon fill="white" stroke="#666666" points="548,-77.5 457.75,-77.5 457.75,-56.75 548,-56.75 548,-77.5"/>
<text text-anchor="middle" x="502.88" y="-64" font-family="Helvetica,sans-Serif" font-size="10.00">math/Float.hpp</text>
</a>
</g>
</g>
<!-- Node3&#45;&gt;Node4 -->
<g id="edge3_Node000003_Node000004" class="edge">
<title>Node3&#45;&gt;Node4</title>
<g id="a_edge3_Node000003_Node000004"><a xlink:title=" ">
<path fill="none" stroke="#63b8ff" d="M511.09,-113.09C509.86,-106.39 508.2,-97.26 506.68,-88.98"/>
<polygon fill="#63b8ff" stroke="#63b8ff" points="510.16,-88.53 504.92,-79.32 503.27,-89.78 510.16,-88.53"/>
</a>
</g>
</g>
<!-- Node6 -->
<g id="Node000006" class="node">
<title>Node6</title>
<g id="a_Node000006"><a xlink:title=" ">
<polygon fill="#e0e0e0" stroke="#999999" points="623.88,-77.5 565.88,-77.5 565.88,-56.75 623.88,-56.75 623.88,-77.5"/>
<text text-anchor="middle" x="594.88" y="-64" font-family="Helvetica,sans-Serif" font-size="10.00">complex</text>
</a>
</g>
</g>
<!-- Node3&#45;&gt;Node6 -->
<g id="edge5_Node000003_Node000006" class="edge">
<title>Node3&#45;&gt;Node6</title>
<g id="a_edge5_Node000003_Node000006"><a xlink:title=" ">
<path fill="none" stroke="#63b8ff" d="M527.53,-113.09C539.55,-105.07 556.79,-93.56 570.81,-84.19"/>
<polygon fill="#63b8ff" stroke="#63b8ff" points="572.71,-87.13 579.08,-78.67 568.82,-81.31 572.71,-87.13"/>
</a>
</g>
</g>
<!-- Node5 -->
<g id="Node000005" class="node">
<title>Node5</title>
<g id="a_Node000005"><a xlink:title=" ">
<polygon fill="#e0e0e0" stroke="#999999" points="505.12,-20.75 448.62,-20.75 448.62,0 505.12,0 505.12,-20.75"/>
<text text-anchor="middle" x="476.88" y="-7.25" font-family="Helvetica,sans-Serif" font-size="10.00">ostream</text>
</a>
</g>
</g>
<!-- Node4&#45;&gt;Node5 -->
<g id="edge4_Node000004_Node000005" class="edge">
<title>Node4&#45;&gt;Node5</title>
<g id="a_edge4_Node000004_Node000005"><a xlink:title=" ">
<path fill="none" stroke="#63b8ff" d="M498.23,-56.34C494.94,-49.41 490.41,-39.87 486.37,-31.36"/>
<polygon fill="#63b8ff" stroke="#63b8ff" points="489.58,-29.98 482.13,-22.45 483.26,-32.98 489.58,-29.98"/>
</a>
</g>
</g>
<!-- Node10 -->
<g id="Node000010" class="node">
<title>Node10</title>
<g id="a_Node000010"><a xlink:href="CTF_8hpp.html" target="_top" xlink:title=" ">
<polygon fill="white" stroke="#666666" points="715.38,-77.5 642.38,-77.5 642.38,-56.75 715.38,-56.75 715.38,-77.5"/>
<text text-anchor="middle" x="678.88" y="-64" font-family="Helvetica,sans-Serif" font-size="10.00">util/CTF.hpp</text>
</a>
</g>
</g>
<!-- Node9&#45;&gt;Node10 -->
<g id="edge9_Node000009_Node000010" class="edge">
<title>Node9&#45;&gt;Node10</title>
<g id="a_edge9_Node000009_Node000010"><a xlink:title=" ">
<path fill="none" stroke="#63b8ff" d="M658.34,-113.09C661.51,-106.16 665.86,-96.62 669.75,-88.11"/>
<polygon fill="#63b8ff" stroke="#63b8ff" points="672.85,-89.76 673.82,-79.21 666.48,-86.85 672.85,-89.76"/>
</a>
</g>
</g>
<!-- Node11 -->
<g id="Node000011" class="node">
<title>Node11</title>
<g id="a_Node000011"><a xlink:title=" ">
<polygon fill="#e0e0e0" stroke="#999999" points="703.38,-20.75 654.38,-20.75 654.38,0 703.38,0 703.38,-20.75"/>
<text text-anchor="middle" x="678.88" y="-7.25" font-family="Helvetica,sans-Serif" font-size="10.00">ctf.hpp</text>
</a>
</g>
</g>
<!-- Node10&#45;&gt;Node11 -->
<g id="edge10_Node000010_Node000011" class="edge">
<title>Node10&#45;&gt;Node11</title>
<g id="a_edge10_Node000010_Node000011"><a xlink:title=" ">
<path fill="none" stroke="#63b8ff" d="M678.88,-56.34C678.88,-49.72 678.88,-40.72 678.88,-32.52"/>
<polygon fill="#63b8ff" stroke="#63b8ff" points="682.38,-32.59 678.88,-22.59 675.38,-32.59 682.38,-32.59"/>
</a>
</g>
</g>
<!-- Node12&#45;&gt;Node8 -->
<g id="edge19_Node000012_Node000008" class="edge">
<title>Node12&#45;&gt;Node8</title>
<g id="a_edge19_Node000012_Node000008"><a xlink:title=" ">
<path fill="none" stroke="#63b8ff" d="M216.89,-113.74C183.68,-105.44 133.34,-92.61 81.03,-78.03"/>
<polygon fill="#63b8ff" stroke="#63b8ff" points="82.23,-74.73 71.65,-75.4 80.34,-81.47 82.23,-74.73"/>
</a>
</g>
</g>
<!-- Node13 -->
<g id="Node000013" class="node">
<title>Node13</title>
<g id="a_Node000013"><a xlink:href="Time_8hpp.html" target="_top" xlink:title=" ">
<polygon fill="white" stroke="#666666" points="168.12,-77.5 87.62,-77.5 87.62,-56.75 168.12,-56.75 168.12,-77.5"/>
<text text-anchor="middle" x="127.88" y="-64" font-family="Helvetica,sans-Serif" font-size="10.00">util/Time.hpp</text>
</a>
</g>
</g>
<!-- Node12&#45;&gt;Node13 -->
<g id="edge12_Node000012_Node000013" class="edge">
<title>Node12&#45;&gt;Node13</title>
<g id="a_edge12_Node000012_Node000013"><a xlink:title=" ">
<path fill="none" stroke="#63b8ff" d="M231.35,-113.09C211.64,-104.52 182.77,-91.98 160.52,-82.31"/>
<polygon fill="#63b8ff" stroke="#63b8ff" points="162.16,-79.21 151.59,-78.43 159.37,-85.63 162.16,-79.21"/>
</a>
</g>
</g>
<!-- Node12&#45;&gt;Node18 -->
<g id="edge20_Node000012_Node000018" class="edge">
<title>Node12&#45;&gt;Node18</title>
<g id="a_edge20_Node000012_Node000018"><a xlink:title=" ">
<path fill="none" stroke="#63b8ff" d="M274.97,-113.09C293.26,-104.6 319.98,-92.2 340.73,-82.58"/>
<polygon fill="#63b8ff" stroke="#63b8ff" points="341.99,-85.85 349.59,-78.47 339.04,-79.5 341.99,-85.85"/>
</a>
</g>
</g>
<!-- Node19 -->
<g id="Node000019" class="node">
<title>Node19</title>
<g id="a_Node000019"><a xlink:title=" ">
<polygon fill="#e0e0e0" stroke="#999999" points="252,-77.5 185.75,-77.5 185.75,-56.75 252,-56.75 252,-77.5"/>
<text text-anchor="middle" x="218.88" y="-64" font-family="Helvetica,sans-Serif" font-size="10.00">streambuf</text>
</a>
</g>
</g>
<!-- Node12&#45;&gt;Node19 -->
<g id="edge21_Node000012_Node000019" class="edge">
<title>Node12&#45;&gt;Node19</title>
<g id="a_edge21_Node000012_Node000019"><a xlink:title=" ">
<path fill="none" stroke="#63b8ff" d="M247.62,-113.09C243.04,-105.92 236.68,-95.98 231.11,-87.26"/>
<polygon fill="#63b8ff" stroke="#63b8ff" points="234.23,-85.64 225.89,-79.1 228.33,-89.41 234.23,-85.64"/>
</a>
</g>
</g>
<!-- Node20 -->
<g id="Node000020" class="node">
<title>Node20</title>
<g id="a_Node000020"><a xlink:title=" ">
<polygon fill="#e0e0e0" stroke="#999999" points="324,-77.5 269.75,-77.5 269.75,-56.75 324,-56.75 324,-77.5"/>
<text text-anchor="middle" x="296.88" y="-64" font-family="Helvetica,sans-Serif" font-size="10.00">fstream</text>
</a>
</g>
</g>
<!-- Node12&#45;&gt;Node20 -->
<g id="edge22_Node000012_Node000020" class="edge">
<title>Node12&#45;&gt;Node20</title>
<g id="a_edge22_Node000012_Node000020"><a xlink:title=" ">
<path fill="none" stroke="#63b8ff" d="M261.56,-113.09C267.31,-105.77 275.34,-95.54 282.29,-86.69"/>
<polygon fill="#63b8ff" stroke="#63b8ff" points="284.9,-89.05 288.32,-79.02 279.39,-84.72 284.9,-89.05"/>
</a>
</g>
</g>
<!-- Node13&#45;&gt;Node5 -->
<g id="edge15_Node000013_Node000005" class="edge">
<title>Node13&#45;&gt;Node5</title>
<g id="a_edge15_Node000013_Node000005"><a xlink:title=" ">
<path fill="none" stroke="#63b8ff" d="M168.49,-58.23C171.33,-57.72 174.14,-57.22 176.88,-56.75 226.2,-48.3 367.57,-27.4 437.18,-17.18"/>
<polygon fill="#63b8ff" stroke="#63b8ff" points="437.62,-20.65 447.01,-15.74 436.61,-13.73 437.62,-20.65"/>
</a>
</g>
</g>
<!-- Node13&#45;&gt;Node7 -->
<g id="edge18_Node000013_Node000007" class="edge">
<title>Node13&#45;&gt;Node7</title>
<g id="a_edge18_Node000013_Node000007"><a xlink:title=" ">
<path fill="none" stroke="#63b8ff" d="M168.52,-57.33C217.71,-46.68 299.7,-28.94 346.09,-18.9"/>
<polygon fill="#63b8ff" stroke="#63b8ff" points="346.56,-22.38 355.6,-16.85 345.08,-15.54 346.56,-22.38"/>
</a>
</g>
</g>
<!-- Node14 -->
<g id="Node000014" class="node">
<title>Node14</title>
<g id="a_Node000014"><a xlink:title=" ">
<polygon fill="#e0e0e0" stroke="#999999" points="117.75,-20.75 74,-20.75 74,0 117.75,0 117.75,-20.75"/>
<text text-anchor="middle" x="95.88" y="-7.25" font-family="Helvetica,sans-Serif" font-size="10.00">ctime</text>
</a>
</g>
</g>
<!-- Node13&#45;&gt;Node14 -->
<g id="edge13_Node000013_Node000014" class="edge">
<title>Node13&#45;&gt;Node14</title>
<g id="a_edge13_Node000013_Node000014"><a xlink:title=" ">
<path fill="none" stroke="#63b8ff" d="M122.15,-56.34C118.01,-49.25 112.28,-39.44 107.22,-30.79"/>
<polygon fill="#63b8ff" stroke="#63b8ff" points="110.38,-29.25 102.31,-22.39 104.33,-32.78 110.38,-29.25"/>
</a>
</g>
</g>
<!-- Node15 -->
<g id="Node000015" class="node">
<title>Node15</title>
<g id="a_Node000015"><a xlink:title=" ">
<polygon fill="#e0e0e0" stroke="#999999" points="184.38,-20.75 135.38,-20.75 135.38,0 184.38,0 184.38,-20.75"/>
<text text-anchor="middle" x="159.88" y="-7.25" font-family="Helvetica,sans-Serif" font-size="10.00">cstdint</text>
</a>
</g>
</g>
<!-- Node13&#45;&gt;Node15 -->
<g id="edge14_Node000013_Node000015" class="edge">
<title>Node13&#45;&gt;Node15</title>
<g id="a_edge14_Node000013_Node000015"><a xlink:title=" ">
<path fill="none" stroke="#63b8ff" d="M133.6,-56.34C137.74,-49.25 143.47,-39.44 148.53,-30.79"/>
<polygon fill="#63b8ff" stroke="#63b8ff" points="151.42,-32.78 153.44,-22.39 145.37,-29.25 151.42,-32.78"/>
</a>
</g>
</g>
<!-- Node16 -->
<g id="Node000016" class="node">
<title>Node16</title>
<g id="a_Node000016"><a xlink:title=" ">
<polygon fill="#e0e0e0" stroke="#999999" points="257.75,-20.75 202,-20.75 202,0 257.75,0 257.75,-20.75"/>
<text text-anchor="middle" x="229.88" y="-7.25" font-family="Helvetica,sans-Serif" font-size="10.00">iomanip</text>
</a>
</g>
</g>
<!-- Node13&#45;&gt;Node16 -->
<g id="edge16_Node000013_Node000016" class="edge">
<title>Node13&#45;&gt;Node16</title>
<g id="a_edge16_Node000013_Node000016"><a xlink:title=" ">
<path fill="none" stroke="#63b8ff" d="M146.11,-56.34C161.56,-48.05 183.96,-36.02 201.71,-26.49"/>
<polygon fill="#63b8ff" stroke="#63b8ff" points="203.31,-29.61 210.46,-21.79 200,-23.44 203.31,-29.61"/>
</a>
</g>
</g>
<!-- Node17 -->
<g id="Node000017" class="node">
<title>Node17</title>
<g id="a_Node000017"><a xlink:title=" ">
<polygon fill="#e0e0e0" stroke="#999999" points="55.75,-20.75 0,-20.75 0,0 55.75,0 55.75,-20.75"/>
<text text-anchor="middle" x="27.88" y="-7.25" font-family="Helvetica,sans-Serif" font-size="10.00">sstream</text>
</a>
</g>
</g>
<!-- Node13&#45;&gt;Node17 -->
<g id="edge17_Node000013_Node000017" class="edge">
<title>Node13&#45;&gt;Node17</title>
<g id="a_edge17_Node000013_Node000017"><a xlink:title=" ">
<path fill="none" stroke="#63b8ff" d="M110,-56.34C94.78,-48.01 72.68,-35.91 55.24,-26.36"/>
<polygon fill="#63b8ff" stroke="#63b8ff" points="57.38,-23.54 46.93,-21.81 54.02,-29.68 57.38,-23.54"/>
</a>
</g>
</g>
</g>
</svg>
