<?xml version="1.0" encoding="UTF-8" standalone="no"?>
<!DOCTYPE svg PUBLIC "-//W3C//DTD SVG 1.1//EN"
 "http://www.w3.org/Graphics/SVG/1.1/DTD/svg11.dtd">
<!-- Generated by graphviz version 9.0.0 (0)
 -->
<!-- Title: IterativePseudoInverse.hpp Pages: 1 -->
<svg width="360pt" height="86pt"
 viewBox="0.00 0.00 359.75 85.50" xmlns="http://www.w3.org/2000/svg" xmlns:xlink="http://www.w3.org/1999/xlink">
<g id="graph0" class="graph" transform="scale(1 1) rotate(0) translate(4 81.5)">
<title>IterativePseudoInverse.hpp</title>
<!-- Node1 -->
<g id="Node000001" class="node">
<title>Node1</title>
<g id="a_Node000001"><a xlink:title=" ">
<polygon fill="#999999" stroke="#666666" points="259.12,-77.5 109.62,-77.5 109.62,-56.75 259.12,-56.75 259.12,-77.5"/>
<text text-anchor="middle" x="184.38" y="-64" font-family="Helvetica,sans-Serif" font-size="10.00">IterativePseudoInverse.hpp</text>
</a>
</g>
</g>
<!-- Node2 -->
<g id="Node000002" class="node">
<title>Node2</title>
<g id="a_Node000002"><a xlink:href="CoulombVertexDecomposition_8cxx.html" target="_top" xlink:title=" ">
<polygon fill="white" stroke="#666666" points="184.75,-20.75 0,-20.75 0,0 184.75,0 184.75,-20.75"/>
<text text-anchor="middle" x="92.38" y="-7.25" font-family="Helvetica,sans-Serif" font-size="10.00">CoulombVertexDecomposition.cxx</text>
</a>
</g>
</g>
<!-- Node1&#45;&gt;Node2 -->
<g id="edge1_Node000001_Node000002" class="edge">
<title>Node1&#45;&gt;Node2</title>
<g id="a_edge1_Node000001_Node000002"><a xlink:title=" ">
<path fill="none" stroke="#63b8ff" d="M158.13,-50.51C142.2,-41.03 122.37,-29.23 108.68,-21.08"/>
<polygon fill="#63b8ff" stroke="#63b8ff" points="156.24,-53.46 166.63,-55.56 159.82,-47.44 156.24,-53.46"/>
</a>
</g>
</g>
<!-- Node3 -->
<g id="Node000003" class="node">
<title>Node3</title>
<g id="a_Node000003"><a xlink:href="IterativePseudoInverse_8cxx.html" target="_top" xlink:title=" ">
<polygon fill="white" stroke="#666666" points="351.75,-20.75 203,-20.75 203,0 351.75,0 351.75,-20.75"/>
<text text-anchor="middle" x="277.38" y="-7.25" font-family="Helvetica,sans-Serif" font-size="10.00">IterativePseudoInverse.cxx</text>
</a>
</g>
</g>
<!-- Node1&#45;&gt;Node3 -->
<g id="edge2_Node000001_Node000003" class="edge">
<title>Node1&#45;&gt;Node3</title>
<g id="a_edge2_Node000001_Node000003"><a xlink:title=" ">
<path fill="none" stroke="#63b8ff" d="M210.91,-50.51C227.01,-41.03 247.05,-29.23 260.89,-21.08"/>
<polygon fill="#63b8ff" stroke="#63b8ff" points="209.15,-47.48 202.31,-55.57 212.7,-53.51 209.15,-47.48"/>
</a>
</g>
</g>
</g>
</svg>
