<?xml version="1.0" encoding="UTF-8" standalone="no"?>
<!DOCTYPE svg PUBLIC "-//W3C//DTD SVG 1.1//EN"
 "http://www.w3.org/Graphics/SVG/1.1/DTD/svg11.dtd">
<!-- Generated by graphviz version 5.0.1 (0)
 -->
<!-- Title: LapackGeneralEigenSystem.hpp Pages: 1 -->
<svg width="826pt" height="247pt"
 viewBox="0.00 0.00 826.00 247.00" xmlns="http://www.w3.org/2000/svg" xmlns:xlink="http://www.w3.org/1999/xlink">
<g id="graph0" class="graph" transform="scale(1 1) rotate(0) translate(4 243)">
<title>LapackGeneralEigenSystem.hpp</title>
<!-- Node1 -->
<g id="node1" class="node">
<title>Node1</title>
<g id="a_node1"><a xlink:title=" ">
<polygon fill="#999999" stroke="#666666" points="405.5,-239 231.5,-239 231.5,-220 405.5,-220 405.5,-239"/>
<text text-anchor="middle" x="318.5" y="-227" font-family="Helvetica,sans-Serif" font-size="10.00">LapackGeneralEigenSystem.hpp</text>
</a>
</g>
</g>
<!-- Node2 -->
<g id="node2" class="node">
<title>Node2</title>
<g id="a_node2"><a xlink:href="Complex_8hpp.html" target="_top" xlink:title=" ">
<polygon fill="white" stroke="#666666" points="172.5,-129 62.5,-129 62.5,-110 172.5,-110 172.5,-129"/>
<text text-anchor="middle" x="117.5" y="-117" font-family="Helvetica,sans-Serif" font-size="10.00">math/Complex.hpp</text>
</a>
</g>
</g>
<!-- Node1&#45;&gt;Node2 -->
<g id="edge1" class="edge">
<title>Node1&#45;&gt;Node2</title>
<path fill="none" stroke="#63b8ff" d="M290.9,-219.96C267.24,-212.13 232.63,-199.42 204.5,-184 178.95,-170 152.26,-149.51 135.3,-135.62"/>
<polygon fill="#63b8ff" stroke="#63b8ff" points="137.3,-132.73 127.37,-129.03 132.82,-138.12 137.3,-132.73"/>
</g>
<!-- Node6 -->
<g id="node6" class="node">
<title>Node6</title>
<g id="a_node6"><a xlink:href="LapackMatrix_8hpp.html" target="_top" xlink:title=" ">
<polygon fill="white" stroke="#666666" points="335.5,-184 213.5,-184 213.5,-165 335.5,-165 335.5,-184"/>
<text text-anchor="middle" x="274.5" y="-172" font-family="Helvetica,sans-Serif" font-size="10.00">util/LapackMatrix.hpp</text>
</a>
</g>
</g>
<!-- Node1&#45;&gt;Node6 -->
<g id="edge5" class="edge">
<title>Node1&#45;&gt;Node6</title>
<path fill="none" stroke="#63b8ff" d="M311.23,-219.75C304.96,-212.18 295.71,-201.05 288.07,-191.84"/>
<polygon fill="#63b8ff" stroke="#63b8ff" points="290.71,-189.55 281.63,-184.09 285.33,-194.02 290.71,-189.55"/>
</g>
<!-- Node7 -->
<g id="node7" class="node">
<title>Node7</title>
<g id="a_node7"><a xlink:title=" ">
<polygon fill="#e0e0e0" stroke="#999999" points="382,-129 335,-129 335,-110 382,-110 382,-129"/>
<text text-anchor="middle" x="358.5" y="-117" font-family="Helvetica,sans-Serif" font-size="10.00">vector</text>
</a>
</g>
</g>
<!-- Node1&#45;&gt;Node7 -->
<g id="edge31" class="edge">
<title>Node1&#45;&gt;Node7</title>
<path fill="none" stroke="#63b8ff" d="M324.75,-219.72C330.65,-211.03 339.35,-197.17 344.5,-184 350.16,-169.53 353.78,-152.26 355.92,-139.38"/>
<polygon fill="#63b8ff" stroke="#63b8ff" points="359.4,-139.79 357.43,-129.38 352.48,-138.75 359.4,-139.79"/>
</g>
<!-- Node12 -->
<g id="node12" class="node">
<title>Node12</title>
<g id="a_node12"><a xlink:href="Exception_8hpp.html" target="_top" xlink:title=" ">
<polygon fill="white" stroke="#666666" points="506.5,-184 402.5,-184 402.5,-165 506.5,-165 506.5,-184"/>
<text text-anchor="middle" x="454.5" y="-172" font-family="Helvetica,sans-Serif" font-size="10.00">util/Exception.hpp</text>
</a>
</g>
</g>
<!-- Node1&#45;&gt;Node12 -->
<g id="edge12" class="edge">
<title>Node1&#45;&gt;Node12</title>
<path fill="none" stroke="#63b8ff" d="M340.35,-219.98C362.62,-211.3 397.4,-197.75 422.72,-187.88"/>
<polygon fill="#63b8ff" stroke="#63b8ff" points="424.21,-191.06 432.25,-184.17 421.66,-184.54 424.21,-191.06"/>
</g>
<!-- Node15 -->
<g id="node15" class="node">
<title>Node15</title>
<g id="a_node15"><a xlink:href="Lapack_8hpp.html" target="_top" xlink:title=" ">
<polygon fill="white" stroke="#666666" points="157,-184 50,-184 50,-165 157,-165 157,-184"/>
<text text-anchor="middle" x="103.5" y="-172" font-family="Helvetica,sans-Serif" font-size="10.00">extern/Lapack.hpp</text>
</a>
</g>
</g>
<!-- Node1&#45;&gt;Node15 -->
<g id="edge16" class="edge">
<title>Node1&#45;&gt;Node15</title>
<path fill="none" stroke="#63b8ff" d="M283.96,-219.98C247.08,-210.89 188.51,-196.46 148.16,-186.51"/>
<polygon fill="#63b8ff" stroke="#63b8ff" points="148.86,-183.08 138.31,-184.08 147.19,-189.87 148.86,-183.08"/>
</g>
<!-- Node16 -->
<g id="node16" class="node">
<title>Node16</title>
<g id="a_node16"><a xlink:href="Log_8hpp.html" target="_top" xlink:title=" ">
<polygon fill="white" stroke="#666666" points="623.5,-184 549.5,-184 549.5,-165 623.5,-165 623.5,-184"/>
<text text-anchor="middle" x="586.5" y="-172" font-family="Helvetica,sans-Serif" font-size="10.00">util/Log.hpp</text>
</a>
</g>
</g>
<!-- Node1&#45;&gt;Node16 -->
<g id="edge19" class="edge">
<title>Node1&#45;&gt;Node16</title>
<path fill="none" stroke="#63b8ff" d="M361.56,-219.98C410.15,-210.38 488.94,-194.79 539.2,-184.85"/>
<polygon fill="#63b8ff" stroke="#63b8ff" points="540.04,-188.26 549.17,-182.88 538.68,-181.39 540.04,-188.26"/>
</g>
<!-- Node3 -->
<g id="node3" class="node">
<title>Node3</title>
<g id="a_node3"><a xlink:href="Float_8hpp.html" target="_top" xlink:title=" ">
<polygon fill="white" stroke="#666666" points="91,-74 0,-74 0,-55 91,-55 91,-74"/>
<text text-anchor="middle" x="45.5" y="-62" font-family="Helvetica,sans-Serif" font-size="10.00">math/Float.hpp</text>
</a>
</g>
</g>
<!-- Node2&#45;&gt;Node3 -->
<g id="edge2" class="edge">
<title>Node2&#45;&gt;Node3</title>
<path fill="none" stroke="#63b8ff" d="M105.93,-109.98C95.08,-102 78.62,-89.88 65.62,-80.31"/>
<polygon fill="#63b8ff" stroke="#63b8ff" points="67.41,-77.28 57.28,-74.17 63.26,-82.92 67.41,-77.28"/>
</g>
<!-- Node5 -->
<g id="node5" class="node">
<title>Node5</title>
<g id="a_node5"><a xlink:title=" ">
<polygon fill="#e0e0e0" stroke="#999999" points="168,-74 109,-74 109,-55 168,-55 168,-74"/>
<text text-anchor="middle" x="138.5" y="-62" font-family="Helvetica,sans-Serif" font-size="10.00">complex</text>
</a>
</g>
</g>
<!-- Node2&#45;&gt;Node5 -->
<g id="edge4" class="edge">
<title>Node2&#45;&gt;Node5</title>
<path fill="none" stroke="#63b8ff" d="M120.97,-109.75C123.78,-102.65 127.84,-92.4 131.35,-83.56"/>
<polygon fill="#63b8ff" stroke="#63b8ff" points="134.67,-84.68 135.1,-74.09 128.16,-82.1 134.67,-84.68"/>
</g>
<!-- Node4 -->
<g id="node4" class="node">
<title>Node4</title>
<g id="a_node4"><a xlink:title=" ">
<polygon fill="#e0e0e0" stroke="#999999" points="465,-19 408,-19 408,0 465,0 465,-19"/>
<text text-anchor="middle" x="436.5" y="-7" font-family="Helvetica,sans-Serif" font-size="10.00">ostream</text>
</a>
</g>
</g>
<!-- Node3&#45;&gt;Node4 -->
<g id="edge3" class="edge">
<title>Node3&#45;&gt;Node4</title>
<path fill="none" stroke="#63b8ff" d="M91.15,-56.23C93.98,-55.81 96.78,-55.39 99.5,-55 207.16,-39.42 334.51,-23.2 397.37,-15.35"/>
<polygon fill="#63b8ff" stroke="#63b8ff" points="398.13,-18.78 407.62,-14.07 397.26,-11.83 398.13,-18.78"/>
</g>
<!-- Node6&#45;&gt;Node2 -->
<g id="edge6" class="edge">
<title>Node6&#45;&gt;Node2</title>
<path fill="none" stroke="#63b8ff" d="M249.28,-164.98C223.14,-156.16 182.1,-142.31 152.77,-132.41"/>
<polygon fill="#63b8ff" stroke="#63b8ff" points="153.52,-128.96 142.92,-129.08 151.28,-135.6 153.52,-128.96"/>
</g>
<!-- Node6&#45;&gt;Node7 -->
<g id="edge7" class="edge">
<title>Node6&#45;&gt;Node7</title>
<path fill="none" stroke="#63b8ff" d="M288,-164.98C300.9,-156.84 320.6,-144.41 335.9,-134.76"/>
<polygon fill="#63b8ff" stroke="#63b8ff" points="338.17,-137.47 344.76,-129.17 334.43,-131.55 338.17,-137.47"/>
</g>
<!-- Node8 -->
<g id="node8" class="node">
<title>Node8</title>
<g id="a_node8"><a xlink:title=" ">
<polygon fill="#e0e0e0" stroke="#999999" points="438.5,-74 382.5,-74 382.5,-55 438.5,-55 438.5,-74"/>
<text text-anchor="middle" x="410.5" y="-62" font-family="Helvetica,sans-Serif" font-size="10.00">sstream</text>
</a>
</g>
</g>
<!-- Node6&#45;&gt;Node8 -->
<g id="edge8" class="edge">
<title>Node6&#45;&gt;Node8</title>
<path fill="none" stroke="#63b8ff" d="M279.84,-164.75C288.23,-151.54 305.62,-126.35 325.5,-110 341.52,-96.82 362.08,-85.93 378.96,-78.23"/>
<polygon fill="#63b8ff" stroke="#63b8ff" points="380.67,-81.3 388.41,-74.06 377.85,-74.89 380.67,-81.3"/>
</g>
<!-- Node9 -->
<g id="node9" class="node">
<title>Node9</title>
<g id="a_node9"><a xlink:href="Tensor_8hpp.html" target="_top" xlink:title=" ">
<polygon fill="white" stroke="#666666" points="278,-129 191,-129 191,-110 278,-110 278,-129"/>
<text text-anchor="middle" x="234.5" y="-117" font-family="Helvetica,sans-Serif" font-size="10.00">util/Tensor.hpp</text>
</a>
</g>
</g>
<!-- Node6&#45;&gt;Node9 -->
<g id="edge9" class="edge">
<title>Node6&#45;&gt;Node9</title>
<path fill="none" stroke="#63b8ff" d="M267.89,-164.75C262.24,-157.26 253.96,-146.28 247.05,-137.13"/>
<polygon fill="#63b8ff" stroke="#63b8ff" points="249.8,-134.96 240.98,-129.09 244.21,-139.18 249.8,-134.96"/>
</g>
<!-- Node10 -->
<g id="node10" class="node">
<title>Node10</title>
<g id="a_node10"><a xlink:href="CTF_8hpp.html" target="_top" xlink:title=" ">
<polygon fill="white" stroke="#666666" points="271.5,-74 197.5,-74 197.5,-55 271.5,-55 271.5,-74"/>
<text text-anchor="middle" x="234.5" y="-62" font-family="Helvetica,sans-Serif" font-size="10.00">util/CTF.hpp</text>
</a>
</g>
</g>
<!-- Node9&#45;&gt;Node10 -->
<g id="edge10" class="edge">
<title>Node9&#45;&gt;Node10</title>
<path fill="none" stroke="#63b8ff" d="M234.5,-109.75C234.5,-102.8 234.5,-92.85 234.5,-84.13"/>
<polygon fill="#63b8ff" stroke="#63b8ff" points="238,-84.09 234.5,-74.09 231,-84.09 238,-84.09"/>
</g>
<!-- Node11 -->
<g id="node11" class="node">
<title>Node11</title>
<g id="a_node11"><a xlink:title=" ">
<polygon fill="#e0e0e0" stroke="#999999" points="259.5,-19 209.5,-19 209.5,0 259.5,0 259.5,-19"/>
<text text-anchor="middle" x="234.5" y="-7" font-family="Helvetica,sans-Serif" font-size="10.00">ctf.hpp</text>
</a>
</g>
</g>
<!-- Node10&#45;&gt;Node11 -->
<g id="edge11" class="edge">
<title>Node10&#45;&gt;Node11</title>
<path fill="none" stroke="#63b8ff" d="M234.5,-54.75C234.5,-47.8 234.5,-37.85 234.5,-29.13"/>
<polygon fill="#63b8ff" stroke="#63b8ff" points="238,-29.09 234.5,-19.09 231,-29.09 238,-29.09"/>
</g>
<!-- Node12&#45;&gt;Node8 -->
<g id="edge14" class="edge">
<title>Node12&#45;&gt;Node8</title>
<path fill="none" stroke="#63b8ff" d="M448.93,-164.93C443.42,-156.17 435.04,-142.05 429.5,-129 423.31,-114.42 418.28,-97.15 414.96,-84.31"/>
<polygon fill="#63b8ff" stroke="#63b8ff" points="418.29,-83.21 412.49,-74.34 411.5,-84.89 418.29,-83.21"/>
</g>
<!-- Node13 -->
<g id="node13" class="node">
<title>Node13</title>
<g id="a_node13"><a xlink:title=" ">
<polygon fill="#e0e0e0" stroke="#999999" points="482.5,-129 438.5,-129 438.5,-110 482.5,-110 482.5,-129"/>
<text text-anchor="middle" x="460.5" y="-117" font-family="Helvetica,sans-Serif" font-size="10.00">string</text>
</a>
</g>
</g>
<!-- Node12&#45;&gt;Node13 -->
<g id="edge13" class="edge">
<title>Node12&#45;&gt;Node13</title>
<path fill="none" stroke="#63b8ff" d="M455.49,-164.75C456.28,-157.8 457.4,-147.85 458.39,-139.13"/>
<polygon fill="#63b8ff" stroke="#63b8ff" points="461.88,-139.42 459.53,-129.09 454.92,-138.63 461.88,-139.42"/>
</g>
<!-- Node14 -->
<g id="node14" class="node">
<title>Node14</title>
<g id="a_node14"><a xlink:title=" ">
<polygon fill="#e0e0e0" stroke="#999999" points="560.5,-129 500.5,-129 500.5,-110 560.5,-110 560.5,-129"/>
<text text-anchor="middle" x="530.5" y="-117" font-family="Helvetica,sans-Serif" font-size="10.00">iostream</text>
</a>
</g>
</g>
<!-- Node12&#45;&gt;Node14 -->
<g id="edge15" class="edge">
<title>Node12&#45;&gt;Node14</title>
<path fill="none" stroke="#63b8ff" d="M466.71,-164.98C478.28,-156.92 495.88,-144.65 509.66,-135.03"/>
<polygon fill="#63b8ff" stroke="#63b8ff" points="511.87,-137.76 518.07,-129.17 507.86,-132.02 511.87,-137.76"/>
</g>
<!-- Node15&#45;&gt;Node2 -->
<g id="edge18" class="edge">
<title>Node15&#45;&gt;Node2</title>
<path fill="none" stroke="#63b8ff" d="M105.81,-164.75C107.67,-157.72 110.34,-147.62 112.65,-138.84"/>
<polygon fill="#63b8ff" stroke="#63b8ff" points="116.06,-139.65 115.23,-129.09 109.29,-137.86 116.06,-139.65"/>
</g>
<!-- Node15&#45;&gt;Node3 -->
<g id="edge17" class="edge">
<title>Node15&#45;&gt;Node3</title>
<path fill="none" stroke="#63b8ff" d="M89.06,-164.86C77.39,-157.05 61.62,-144.43 53.5,-129 46.3,-115.31 44.56,-97.73 44.48,-84.54"/>
<polygon fill="#63b8ff" stroke="#63b8ff" points="47.98,-84.37 44.73,-74.29 40.99,-84.2 47.98,-84.37"/>
</g>
<!-- Node16&#45;&gt;Node13 -->
<g id="edge27" class="edge">
<title>Node16&#45;&gt;Node13</title>
<path fill="none" stroke="#63b8ff" d="M566.26,-164.98C545.8,-156.38 513.97,-142.99 490.57,-133.15"/>
<polygon fill="#63b8ff" stroke="#63b8ff" points="491.69,-129.82 481.11,-129.17 488.97,-136.27 491.69,-129.82"/>
</g>
<!-- Node16&#45;&gt;Node14 -->
<g id="edge28" class="edge">
<title>Node16&#45;&gt;Node14</title>
<path fill="none" stroke="#63b8ff" d="M577.5,-164.98C569.31,-157.23 556.99,-145.58 547.03,-136.14"/>
<polygon fill="#63b8ff" stroke="#63b8ff" points="549.33,-133.5 539.66,-129.17 544.52,-138.59 549.33,-133.5"/>
</g>
<!-- Node17 -->
<g id="node17" class="node">
<title>Node17</title>
<g id="a_node17"><a xlink:href="Time_8hpp.html" target="_top" xlink:title=" ">
<polygon fill="white" stroke="#666666" points="733,-129 652,-129 652,-110 733,-110 733,-129"/>
<text text-anchor="middle" x="692.5" y="-117" font-family="Helvetica,sans-Serif" font-size="10.00">util/Time.hpp</text>
</a>
</g>
</g>
<!-- Node16&#45;&gt;Node17 -->
<g id="edge20" class="edge">
<title>Node16&#45;&gt;Node17</title>
<path fill="none" stroke="#63b8ff" d="M603.53,-164.98C620.43,-156.54 646.56,-143.47 666.14,-133.68"/>
<polygon fill="#63b8ff" stroke="#63b8ff" points="667.78,-136.77 675.16,-129.17 664.65,-130.51 667.78,-136.77"/>
</g>
<!-- Node22 -->
<g id="node22" class="node">
<title>Node22</title>
<g id="a_node22"><a xlink:title=" ">
<polygon fill="#e0e0e0" stroke="#999999" points="818,-129 751,-129 751,-110 818,-110 818,-129"/>
<text text-anchor="middle" x="784.5" y="-117" font-family="Helvetica,sans-Serif" font-size="10.00">streambuf</text>
</a>
</g>
</g>
<!-- Node16&#45;&gt;Node22 -->
<g id="edge29" class="edge">
<title>Node16&#45;&gt;Node22</title>
<path fill="none" stroke="#63b8ff" d="M618.31,-164.98C651.99,-155.97 705.3,-141.7 742.42,-131.76"/>
<polygon fill="#63b8ff" stroke="#63b8ff" points="743.68,-135.05 752.44,-129.08 741.87,-128.29 743.68,-135.05"/>
</g>
<!-- Node23 -->
<g id="node23" class="node">
<title>Node23</title>
<g id="a_node23"><a xlink:title=" ">
<polygon fill="#e0e0e0" stroke="#999999" points="634,-129 579,-129 579,-110 634,-110 634,-129"/>
<text text-anchor="middle" x="606.5" y="-117" font-family="Helvetica,sans-Serif" font-size="10.00">fstream</text>
</a>
</g>
</g>
<!-- Node16&#45;&gt;Node23 -->
<g id="edge30" class="edge">
<title>Node16&#45;&gt;Node23</title>
<path fill="none" stroke="#63b8ff" d="M589.8,-164.75C592.48,-157.65 596.35,-147.4 599.69,-138.56"/>
<polygon fill="#63b8ff" stroke="#63b8ff" points="603,-139.68 603.26,-129.09 596.45,-137.21 603,-139.68"/>
</g>
<!-- Node17&#45;&gt;Node4 -->
<g id="edge23" class="edge">
<title>Node17&#45;&gt;Node4</title>
<path fill="none" stroke="#63b8ff" d="M678.56,-109.92C653.54,-94.61 601.82,-63.39 582.5,-55 547.28,-39.7 505.15,-27.47 475.22,-19.73"/>
<polygon fill="#63b8ff" stroke="#63b8ff" points="475.73,-16.24 465.17,-17.18 474,-23.03 475.73,-16.24"/>
</g>
<!-- Node17&#45;&gt;Node8 -->
<g id="edge25" class="edge">
<title>Node17&#45;&gt;Node8</title>
<path fill="none" stroke="#63b8ff" d="M651.8,-110.85C597.46,-100.64 501.92,-82.68 448.82,-72.7"/>
<polygon fill="#63b8ff" stroke="#63b8ff" points="449.26,-69.22 438.79,-70.82 447.97,-76.1 449.26,-69.22"/>
</g>
<!-- Node18 -->
<g id="node18" class="node">
<title>Node18</title>
<g id="a_node18"><a xlink:title=" ">
<polygon fill="#e0e0e0" stroke="#999999" points="813.5,-74 769.5,-74 769.5,-55 813.5,-55 813.5,-74"/>
<text text-anchor="middle" x="791.5" y="-62" font-family="Helvetica,sans-Serif" font-size="10.00">ctime</text>
</a>
</g>
</g>
<!-- Node17&#45;&gt;Node18 -->
<g id="edge21" class="edge">
<title>Node17&#45;&gt;Node18</title>
<path fill="none" stroke="#63b8ff" d="M708.41,-109.98C724.05,-101.61 748.16,-88.7 766.38,-78.95"/>
<polygon fill="#63b8ff" stroke="#63b8ff" points="768.14,-81.98 775.3,-74.17 764.84,-75.8 768.14,-81.98"/>
</g>
<!-- Node19 -->
<g id="node19" class="node">
<title>Node19</title>
<g id="a_node19"><a xlink:title=" ">
<polygon fill="#e0e0e0" stroke="#999999" points="573.5,-74 523.5,-74 523.5,-55 573.5,-55 573.5,-74"/>
<text text-anchor="middle" x="548.5" y="-62" font-family="Helvetica,sans-Serif" font-size="10.00">cstdint</text>
</a>
</g>
</g>
<!-- Node17&#45;&gt;Node19 -->
<g id="edge22" class="edge">
<title>Node17&#45;&gt;Node19</title>
<path fill="none" stroke="#63b8ff" d="M669.36,-109.98C645.68,-101.27 608.63,-87.63 581.79,-77.75"/>
<polygon fill="#63b8ff" stroke="#63b8ff" points="582.65,-74.34 572.06,-74.17 580.23,-80.91 582.65,-74.34"/>
</g>
<!-- Node20 -->
<g id="node20" class="node">
<title>Node20</title>
<g id="a_node20"><a xlink:title=" ">
<polygon fill="#e0e0e0" stroke="#999999" points="685.5,-74 629.5,-74 629.5,-55 685.5,-55 685.5,-74"/>
<text text-anchor="middle" x="657.5" y="-62" font-family="Helvetica,sans-Serif" font-size="10.00">iomanip</text>
</a>
</g>
</g>
<!-- Node17&#45;&gt;Node20 -->
<g id="edge24" class="edge">
<title>Node17&#45;&gt;Node20</title>
<path fill="none" stroke="#63b8ff" d="M686.72,-109.75C681.88,-102.42 674.82,-91.73 668.86,-82.7"/>
<polygon fill="#63b8ff" stroke="#63b8ff" points="671.6,-80.5 663.17,-74.09 665.76,-84.36 671.6,-80.5"/>
</g>
<!-- Node21 -->
<g id="node21" class="node">
<title>Node21</title>
<g id="a_node21"><a xlink:title=" ">
<polygon fill="#e0e0e0" stroke="#999999" points="751,-74 704,-74 704,-55 751,-55 751,-74"/>
<text text-anchor="middle" x="727.5" y="-62" font-family="Helvetica,sans-Serif" font-size="10.00">cmath</text>
</a>
</g>
</g>
<!-- Node17&#45;&gt;Node21 -->
<g id="edge26" class="edge">
<title>Node17&#45;&gt;Node21</title>
<path fill="none" stroke="#63b8ff" d="M698.28,-109.75C703.12,-102.42 710.18,-91.73 716.14,-82.7"/>
<polygon fill="#63b8ff" stroke="#63b8ff" points="719.24,-84.36 721.83,-74.09 713.4,-80.5 719.24,-84.36"/>
</g>
</g>
</svg>
