<?xml version="1.0" encoding="UTF-8" standalone="no"?>
<!DOCTYPE svg PUBLIC "-//W3C//DTD SVG 1.1//EN"
 "http://www.w3.org/Graphics/SVG/1.1/DTD/svg11.dtd">
<!-- Generated by graphviz version 5.0.1 (0)
 -->
<!-- Title: LapackMatrix.hpp Pages: 1 -->
<svg width="400pt" height="196pt"
 viewBox="0.00 0.00 400.00 196.00" xmlns="http://www.w3.org/2000/svg" xmlns:xlink="http://www.w3.org/1999/xlink">
<g id="graph0" class="graph" transform="scale(1 1) rotate(0) translate(4 192)">
<title>LapackMatrix.hpp</title>
<!-- Node1 -->
<g id="node1" class="node">
<title>Node1</title>
<g id="a_node1"><a xlink:title=" ">
<polygon fill="#bfbfbf" stroke="black" points="171.5,-168.5 171.5,-187.5 275.5,-187.5 275.5,-168.5 171.5,-168.5"/>
<text text-anchor="middle" x="223.5" y="-175.5" font-family="Helvetica,sans-Serif" font-size="10.00">LapackMatrix.hpp</text>
</a>
</g>
</g>
<!-- Node2 -->
<g id="node2" class="node">
<title>Node2</title>
<g id="a_node2"><a xlink:href="Complex_8hpp.html" target="_top" xlink:title=" ">
<polygon fill="none" stroke="black" points="36.5,-112.5 36.5,-131.5 146.5,-131.5 146.5,-112.5 36.5,-112.5"/>
<text text-anchor="middle" x="91.5" y="-119.5" font-family="Helvetica,sans-Serif" font-size="10.00">math/Complex.hpp</text>
</a>
</g>
</g>
<!-- Node1&#45;&gt;Node2 -->
<g id="edge1" class="edge">
<title>Node1&#45;&gt;Node2</title>
<path fill="none" stroke="midnightblue" d="M202.58,-168.44C180.76,-159.52 146.35,-145.44 121.61,-135.32"/>
<polygon fill="midnightblue" stroke="midnightblue" points="122.9,-132.06 112.32,-131.52 120.25,-138.54 122.9,-132.06"/>
</g>
<!-- Node6 -->
<g id="node6" class="node">
<title>Node6</title>
<g id="a_node6"><a xlink:title=" ">
<polygon fill="none" stroke="#bfbfbf" points="165,-112.5 165,-131.5 212,-131.5 212,-112.5 165,-112.5"/>
<text text-anchor="middle" x="188.5" y="-119.5" font-family="Helvetica,sans-Serif" font-size="10.00">vector</text>
</a>
</g>
</g>
<!-- Node1&#45;&gt;Node6 -->
<g id="edge5" class="edge">
<title>Node1&#45;&gt;Node6</title>
<path fill="none" stroke="midnightblue" d="M217.72,-168.08C212.83,-160.53 205.67,-149.49 199.67,-140.23"/>
<polygon fill="midnightblue" stroke="midnightblue" points="202.55,-138.24 194.17,-131.75 196.67,-142.05 202.55,-138.24"/>
</g>
<!-- Node7 -->
<g id="node7" class="node">
<title>Node7</title>
<g id="a_node7"><a xlink:title=" ">
<polygon fill="none" stroke="#bfbfbf" points="230.5,-112.5 230.5,-131.5 286.5,-131.5 286.5,-112.5 230.5,-112.5"/>
<text text-anchor="middle" x="258.5" y="-119.5" font-family="Helvetica,sans-Serif" font-size="10.00">sstream</text>
</a>
</g>
</g>
<!-- Node1&#45;&gt;Node7 -->
<g id="edge6" class="edge">
<title>Node1&#45;&gt;Node7</title>
<path fill="none" stroke="midnightblue" d="M229.28,-168.08C234.17,-160.53 241.33,-149.49 247.33,-140.23"/>
<polygon fill="midnightblue" stroke="midnightblue" points="250.33,-142.05 252.83,-131.75 244.45,-138.24 250.33,-142.05"/>
</g>
<!-- Node8 -->
<g id="node8" class="node">
<title>Node8</title>
<g id="a_node8"><a xlink:href="Tensor_8hpp.html" target="_top" xlink:title=" ">
<polygon fill="none" stroke="black" points="305,-112.5 305,-131.5 392,-131.5 392,-112.5 305,-112.5"/>
<text text-anchor="middle" x="348.5" y="-119.5" font-family="Helvetica,sans-Serif" font-size="10.00">util/Tensor.hpp</text>
</a>
</g>
</g>
<!-- Node1&#45;&gt;Node8 -->
<g id="edge7" class="edge">
<title>Node1&#45;&gt;Node8</title>
<path fill="none" stroke="midnightblue" d="M243.31,-168.44C263.79,-159.6 295.98,-145.69 319.36,-135.59"/>
<polygon fill="midnightblue" stroke="midnightblue" points="320.99,-138.7 328.79,-131.52 318.22,-132.27 320.99,-138.7"/>
</g>
<!-- Node3 -->
<g id="node3" class="node">
<title>Node3</title>
<g id="a_node3"><a xlink:href="Float_8hpp.html" target="_top" xlink:title=" ">
<polygon fill="none" stroke="black" points="0,-56.5 0,-75.5 91,-75.5 91,-56.5 0,-56.5"/>
<text text-anchor="middle" x="45.5" y="-63.5" font-family="Helvetica,sans-Serif" font-size="10.00">math/Float.hpp</text>
</a>
</g>
</g>
<!-- Node2&#45;&gt;Node3 -->
<g id="edge2" class="edge">
<title>Node2&#45;&gt;Node3</title>
<path fill="none" stroke="midnightblue" d="M83.9,-112.08C77.27,-104.3 67.48,-92.8 59.44,-83.37"/>
<polygon fill="midnightblue" stroke="midnightblue" points="62.1,-81.09 52.95,-75.75 56.77,-85.63 62.1,-81.09"/>
</g>
<!-- Node5 -->
<g id="node5" class="node">
<title>Node5</title>
<g id="a_node5"><a xlink:title=" ">
<polygon fill="none" stroke="#bfbfbf" points="109,-56.5 109,-75.5 168,-75.5 168,-56.5 109,-56.5"/>
<text text-anchor="middle" x="138.5" y="-63.5" font-family="Helvetica,sans-Serif" font-size="10.00">complex</text>
</a>
</g>
</g>
<!-- Node2&#45;&gt;Node5 -->
<g id="edge4" class="edge">
<title>Node2&#45;&gt;Node5</title>
<path fill="none" stroke="midnightblue" d="M99.26,-112.08C106.04,-104.3 116.04,-92.8 124.26,-83.37"/>
<polygon fill="midnightblue" stroke="midnightblue" points="126.96,-85.59 130.88,-75.75 121.68,-81 126.96,-85.59"/>
</g>
<!-- Node4 -->
<g id="node4" class="node">
<title>Node4</title>
<g id="a_node4"><a xlink:title=" ">
<polygon fill="none" stroke="#bfbfbf" points="17,-0.5 17,-19.5 74,-19.5 74,-0.5 17,-0.5"/>
<text text-anchor="middle" x="45.5" y="-7.5" font-family="Helvetica,sans-Serif" font-size="10.00">ostream</text>
</a>
</g>
</g>
<!-- Node3&#45;&gt;Node4 -->
<g id="edge3" class="edge">
<title>Node3&#45;&gt;Node4</title>
<path fill="none" stroke="midnightblue" d="M45.5,-56.08C45.5,-49.01 45.5,-38.86 45.5,-29.99"/>
<polygon fill="midnightblue" stroke="midnightblue" points="49,-29.75 45.5,-19.75 42,-29.75 49,-29.75"/>
</g>
<!-- Node9 -->
<g id="node9" class="node">
<title>Node9</title>
<g id="a_node9"><a xlink:href="CTF_8hpp.html" target="_top" xlink:title=" ">
<polygon fill="none" stroke="black" points="311.5,-56.5 311.5,-75.5 385.5,-75.5 385.5,-56.5 311.5,-56.5"/>
<text text-anchor="middle" x="348.5" y="-63.5" font-family="Helvetica,sans-Serif" font-size="10.00">util/CTF.hpp</text>
</a>
</g>
</g>
<!-- Node8&#45;&gt;Node9 -->
<g id="edge8" class="edge">
<title>Node8&#45;&gt;Node9</title>
<path fill="none" stroke="midnightblue" d="M348.5,-112.08C348.5,-105.01 348.5,-94.86 348.5,-85.99"/>
<polygon fill="midnightblue" stroke="midnightblue" points="352,-85.75 348.5,-75.75 345,-85.75 352,-85.75"/>
</g>
<!-- Node10 -->
<g id="node10" class="node">
<title>Node10</title>
<g id="a_node10"><a xlink:title=" ">
<polygon fill="none" stroke="#bfbfbf" points="323.5,-0.5 323.5,-19.5 373.5,-19.5 373.5,-0.5 323.5,-0.5"/>
<text text-anchor="middle" x="348.5" y="-7.5" font-family="Helvetica,sans-Serif" font-size="10.00">ctf.hpp</text>
</a>
</g>
</g>
<!-- Node9&#45;&gt;Node10 -->
<g id="edge9" class="edge">
<title>Node9&#45;&gt;Node10</title>
<path fill="none" stroke="midnightblue" d="M348.5,-56.08C348.5,-49.01 348.5,-38.86 348.5,-29.99"/>
<polygon fill="midnightblue" stroke="midnightblue" points="352,-29.75 348.5,-19.75 345,-29.75 352,-29.75"/>
</g>
</g>
</svg>
