<?xml version="1.0" encoding="UTF-8" standalone="no"?>
<!DOCTYPE svg PUBLIC "-//W3C//DTD SVG 1.1//EN"
 "http://www.w3.org/Graphics/SVG/1.1/DTD/svg11.dtd">
<!-- Generated by graphviz version 7.0.0 (0)
 -->
<!-- Title: Lapack.hpp Pages: 1 -->
<svg width="192pt" height="192pt"
 viewBox="0.00 0.00 191.50 192.00" xmlns="http://www.w3.org/2000/svg" xmlns:xlink="http://www.w3.org/1999/xlink">
<g id="graph0" class="graph" transform="scale(1 1) rotate(0) translate(4 188)">
<title>Lapack.hpp</title>
<!-- Node1 -->
<g id="node1" class="node">
<title>Node1</title>
<g id="a_node1"><a xlink:title=" ">
<polygon fill="#999999" stroke="#666666" points="122.5,-184 50.5,-184 50.5,-165 122.5,-165 122.5,-184"/>
<text text-anchor="middle" x="86.5" y="-172" font-family="Helvetica,sans-Serif" font-size="10.00">Lapack.hpp</text>
</a>
</g>
</g>
<!-- Node2 -->
<g id="node2" class="node">
<title>Node2</title>
<g id="a_node2"><a xlink:href="Float_8hpp.html" target="_top" xlink:title=" ">
<polygon fill="white" stroke="#666666" points="91,-74 0,-74 0,-55 91,-55 91,-74"/>
<text text-anchor="middle" x="45.5" y="-62" font-family="Helvetica,sans-Serif" font-size="10.00">math/Float.hpp</text>
</a>
</g>
</g>
<!-- Node1&#45;&gt;Node2 -->
<g id="edge1" class="edge">
<title>Node1&#45;&gt;Node2</title>
<path fill="none" stroke="#63b8ff" d="M81.67,-164.83C76.88,-156.01 69.55,-141.83 64.5,-129 58.87,-114.71 53.95,-98.05 50.52,-85.39"/>
<polygon fill="#63b8ff" stroke="#63b8ff" points="53.92,-84.54 48.01,-75.75 47.15,-86.31 53.92,-84.54"/>
</g>
<!-- Node4 -->
<g id="node4" class="node">
<title>Node4</title>
<g id="a_node4"><a xlink:href="Complex_8hpp.html" target="_top" xlink:title=" ">
<polygon fill="white" stroke="#666666" points="183.5,-129 73.5,-129 73.5,-110 183.5,-110 183.5,-129"/>
<text text-anchor="middle" x="128.5" y="-117" font-family="Helvetica,sans-Serif" font-size="10.00">math/Complex.hpp</text>
</a>
</g>
</g>
<!-- Node1&#45;&gt;Node4 -->
<g id="edge3" class="edge">
<title>Node1&#45;&gt;Node4</title>
<path fill="none" stroke="#63b8ff" d="M93.44,-164.75C99.12,-157.58 107.34,-147.2 114.39,-138.3"/>
<polygon fill="#63b8ff" stroke="#63b8ff" points="117.01,-140.64 120.47,-130.63 111.52,-136.29 117.01,-140.64"/>
</g>
<!-- Node3 -->
<g id="node3" class="node">
<title>Node3</title>
<g id="a_node3"><a xlink:title=" ">
<polygon fill="#e0e0e0" stroke="#999999" points="74,-19 17,-19 17,0 74,0 74,-19"/>
<text text-anchor="middle" x="45.5" y="-7" font-family="Helvetica,sans-Serif" font-size="10.00">ostream</text>
</a>
</g>
</g>
<!-- Node2&#45;&gt;Node3 -->
<g id="edge2" class="edge">
<title>Node2&#45;&gt;Node3</title>
<path fill="none" stroke="#63b8ff" d="M45.5,-54.75C45.5,-48.27 45.5,-39.16 45.5,-30.9"/>
<polygon fill="#63b8ff" stroke="#63b8ff" points="49,-30.96 45.5,-20.96 42,-30.96 49,-30.96"/>
</g>
<!-- Node4&#45;&gt;Node2 -->
<g id="edge4" class="edge">
<title>Node4&#45;&gt;Node2</title>
<path fill="none" stroke="#63b8ff" d="M114.42,-109.51C101.94,-101.54 83.48,-89.75 68.81,-80.38"/>
<polygon fill="#63b8ff" stroke="#63b8ff" points="70.96,-77.6 60.65,-75.17 67.19,-83.5 70.96,-77.6"/>
</g>
<!-- Node5 -->
<g id="node5" class="node">
<title>Node5</title>
<g id="a_node5"><a xlink:title=" ">
<polygon fill="#e0e0e0" stroke="#999999" points="168,-74 109,-74 109,-55 168,-55 168,-74"/>
<text text-anchor="middle" x="138.5" y="-62" font-family="Helvetica,sans-Serif" font-size="10.00">complex</text>
</a>
</g>
</g>
<!-- Node4&#45;&gt;Node5 -->
<g id="edge5" class="edge">
<title>Node4&#45;&gt;Node5</title>
<path fill="none" stroke="#63b8ff" d="M130.15,-109.75C131.39,-103.19 133.13,-93.95 134.71,-85.6"/>
<polygon fill="#63b8ff" stroke="#63b8ff" points="138.12,-86.4 136.53,-75.93 131.24,-85.11 138.12,-86.4"/>
</g>
</g>
</svg>
