<?xml version="1.0" encoding="UTF-8" standalone="no"?>
<!DOCTYPE svg PUBLIC "-//W3C//DTD SVG 1.1//EN"
 "http://www.w3.org/Graphics/SVG/1.1/DTD/svg11.dtd">
<!-- Generated by graphviz version 5.0.1 (0)
 -->
<!-- Title: MathFunctions.hpp Pages: 1 -->
<svg width="7591pt" height="162pt"
 viewBox="0.00 0.00 7590.50 162.00" xmlns="http://www.w3.org/2000/svg" xmlns:xlink="http://www.w3.org/1999/xlink">
<g id="graph0" class="graph" transform="scale(1 1) rotate(0) translate(4 158)">
<title>MathFunctions.hpp</title>
<!-- Node1 -->
<g id="node1" class="node">
<title>Node1</title>
<g id="a_node1"><a xlink:title=" ">
<polygon fill="#bfbfbf" stroke="black" points="3694,-134.5 3694,-153.5 3803,-153.5 3803,-134.5 3694,-134.5"/>
<text text-anchor="middle" x="3748.5" y="-141.5" font-family="Helvetica,sans-Serif" font-size="10.00">MathFunctions.hpp</text>
</a>
</g>
</g>
<!-- Node2 -->
<g id="node2" class="node">
<title>Node2</title>
<g id="a_node2"><a xlink:href="CcsdDiagrammaticDecomposition_8cxx.html" target="_top" xlink:title=" ">
<polygon fill="none" stroke="black" points="0,-73 0,-92 203,-92 203,-73 0,-73"/>
<text text-anchor="middle" x="101.5" y="-80" font-family="Helvetica,sans-Serif" font-size="10.00">CcsdDiagrammaticDecomposition.cxx</text>
</a>
</g>
</g>
<!-- Node1&#45;&gt;Node2 -->
<g id="edge1" class="edge">
<title>Node1&#45;&gt;Node2</title>
<path fill="none" stroke="midnightblue" d="M3683.86,-143.22C3264.48,-144.52 924.29,-149.33 211.5,-98 193.44,-96.7 173.81,-94.4 156.2,-92.01"/>
<polygon fill="midnightblue" stroke="midnightblue" points="3683.99,-146.72 3693.98,-143.19 3683.97,-139.72 3683.99,-146.72"/>
</g>
<!-- Node3 -->
<g id="node3" class="node">
<title>Node3</title>
<g id="a_node3"><a xlink:href="CcsdEnergyFromCoulombIntegrals_8cxx.html" target="_top" xlink:title=" ">
<polygon fill="none" stroke="black" points="221,-73 221,-92 426,-92 426,-73 221,-73"/>
<text text-anchor="middle" x="323.5" y="-80" font-family="Helvetica,sans-Serif" font-size="10.00">CcsdEnergyFromCoulombIntegrals.cxx</text>
</a>
</g>
</g>
<!-- Node1&#45;&gt;Node3 -->
<g id="edge2" class="edge">
<title>Node1&#45;&gt;Node3</title>
<path fill="none" stroke="midnightblue" d="M3683.81,-143.15C3279.92,-143.93 1100.07,-145.83 434.5,-98 416.38,-96.7 396.68,-94.41 378.99,-92.04"/>
<polygon fill="midnightblue" stroke="midnightblue" points="3683.87,-146.65 3693.86,-143.13 3683.85,-139.65 3683.87,-146.65"/>
</g>
<!-- Node4 -->
<g id="node4" class="node">
<title>Node4</title>
<g id="a_node4"><a xlink:href="CcsdEnergyFromCoulombIntegralsReference_8cxx.html" target="_top" xlink:title=" ">
<polygon fill="none" stroke="black" points="444,-67.5 444,-97.5 629,-97.5 629,-67.5 444,-67.5"/>
<text text-anchor="start" x="452" y="-85.5" font-family="Helvetica,sans-Serif" font-size="10.00">CcsdEnergyFromCoulombIntegrals</text>
<text text-anchor="middle" x="536.5" y="-74.5" font-family="Helvetica,sans-Serif" font-size="10.00">Reference.cxx</text>
</a>
</g>
</g>
<!-- Node1&#45;&gt;Node4 -->
<g id="edge3" class="edge">
<title>Node1&#45;&gt;Node4</title>
<path fill="none" stroke="midnightblue" d="M3683.6,-143.13C3294.22,-143.78 1263.84,-144.82 642.5,-98 638.15,-97.67 633.7,-97.28 629.21,-96.84"/>
<polygon fill="midnightblue" stroke="midnightblue" points="3683.85,-146.63 3693.84,-143.12 3683.83,-139.63 3683.85,-146.63"/>
</g>
<!-- Node5 -->
<g id="node5" class="node">
<title>Node5</title>
<g id="a_node5"><a xlink:href="CcsdEquationOfMotionDavidson_8cxx.html" target="_top" xlink:title=" ">
<polygon fill="none" stroke="black" points="635.5,-6 635.5,-25 829.5,-25 829.5,-6 635.5,-6"/>
<text text-anchor="middle" x="732.5" y="-13" font-family="Helvetica,sans-Serif" font-size="10.00">CcsdEquationOfMotionDavidson.cxx</text>
</a>
</g>
</g>
<!-- Node1&#45;&gt;Node5 -->
<g id="edge4" class="edge">
<title>Node1&#45;&gt;Node5</title>
<path fill="none" stroke="midnightblue" d="M3683.68,-143.12C3252.19,-143.82 810.59,-145.63 751.5,-98 729.44,-80.22 729.96,-42.24 731.46,-25.15"/>
<polygon fill="midnightblue" stroke="midnightblue" points="3683.8,-146.62 3693.8,-143.11 3683.79,-139.62 3683.8,-146.62"/>
</g>
<!-- Node6 -->
<g id="node6" class="node">
<title>Node6</title>
<g id="a_node6"><a xlink:href="CcsdPerturbativeTriples_8cxx.html" target="_top" xlink:title=" ">
<polygon fill="none" stroke="black" points="1148.5,-73 1148.5,-92 1300.5,-92 1300.5,-73 1148.5,-73"/>
<text text-anchor="middle" x="1224.5" y="-80" font-family="Helvetica,sans-Serif" font-size="10.00">CcsdPerturbativeTriples.cxx</text>
</a>
</g>
</g>
<!-- Node1&#45;&gt;Node6 -->
<g id="edge5" class="edge">
<title>Node1&#45;&gt;Node6</title>
<path fill="none" stroke="midnightblue" d="M3683.84,-143.13C3346.93,-143.58 1789.82,-143.14 1309.5,-98 1295.64,-96.7 1280.63,-94.43 1267.14,-92.07"/>
<polygon fill="midnightblue" stroke="midnightblue" points="3683.92,-146.63 3693.91,-143.11 3683.91,-139.63 3683.92,-146.63"/>
</g>
<!-- Node7 -->
<g id="node7" class="node">
<title>Node7</title>
<g id="a_node7"><a xlink:href="CcsdPerturbativeTriplesComplex_8cxx.html" target="_top" xlink:title=" ">
<polygon fill="none" stroke="black" points="1319,-73 1319,-92 1514,-92 1514,-73 1319,-73"/>
<text text-anchor="middle" x="1416.5" y="-80" font-family="Helvetica,sans-Serif" font-size="10.00">CcsdPerturbativeTriplesComplex.cxx</text>
</a>
</g>
</g>
<!-- Node1&#45;&gt;Node7 -->
<g id="edge6" class="edge">
<title>Node1&#45;&gt;Node7</title>
<path fill="none" stroke="midnightblue" d="M3683.67,-142.7C3364.58,-141.09 1958.76,-132.13 1522.5,-98 1505.28,-96.65 1486.58,-94.37 1469.75,-92.01"/>
<polygon fill="midnightblue" stroke="midnightblue" points="3683.66,-146.2 3693.68,-142.75 3683.69,-139.2 3683.66,-146.2"/>
</g>
<!-- Node8 -->
<g id="node8" class="node">
<title>Node8</title>
<g id="a_node8"><a xlink:href="CcsdPreconditioner_8cxx.html" target="_top" xlink:title=" ">
<polygon fill="none" stroke="black" points="271.5,-6 271.5,-25 401.5,-25 401.5,-6 271.5,-6"/>
<text text-anchor="middle" x="336.5" y="-13" font-family="Helvetica,sans-Serif" font-size="10.00">CcsdPreconditioner.cxx</text>
</a>
</g>
</g>
<!-- Node1&#45;&gt;Node8 -->
<g id="edge7" class="edge">
<title>Node1&#45;&gt;Node8</title>
<path fill="none" stroke="midnightblue" d="M3683.6,-142.7C3246.13,-140.59 742.83,-127.26 670.5,-98 651.85,-90.45 655.57,-75.86 637.5,-67 545.78,-22.04 511.08,-48.82 410.5,-31 400.19,-29.17 389.09,-27.07 378.71,-25.05"/>
<polygon fill="midnightblue" stroke="midnightblue" points="3683.83,-146.2 3693.85,-142.75 3683.87,-139.2 3683.83,-146.2"/>
</g>
<!-- Node9 -->
<g id="node9" class="node">
<title>Node9</title>
<g id="a_node9"><a xlink:href="CcsdtEquationOfMotionDavidson_8cxx.html" target="_top" xlink:title=" ">
<polygon fill="none" stroke="black" points="420,-6 420,-25 617,-25 617,-6 420,-6"/>
<text text-anchor="middle" x="518.5" y="-13" font-family="Helvetica,sans-Serif" font-size="10.00">CcsdtEquationOfMotionDavidson.cxx</text>
</a>
</g>
</g>
<!-- Node1&#45;&gt;Node9 -->
<g id="edge8" class="edge">
<title>Node1&#45;&gt;Node9</title>
<path fill="none" stroke="midnightblue" d="M3683.65,-142.88C3258.17,-141.96 878.56,-135.16 730.5,-98 701.39,-90.69 698.16,-78.66 670.5,-67 629.24,-49.61 579.76,-34.12 548.72,-25.02"/>
<polygon fill="midnightblue" stroke="midnightblue" points="3683.91,-146.38 3693.92,-142.9 3683.93,-139.38 3683.91,-146.38"/>
</g>
<!-- Node10 -->
<g id="node10" class="node">
<title>Node10</title>
<g id="a_node10"><a xlink:href="ClusterSinglesDoublesAlgorithm_8cxx.html" target="_top" xlink:title=" ">
<polygon fill="none" stroke="black" points="1531.5,-73 1531.5,-92 1725.5,-92 1725.5,-73 1531.5,-73"/>
<text text-anchor="middle" x="1628.5" y="-80" font-family="Helvetica,sans-Serif" font-size="10.00">ClusterSinglesDoublesAlgorithm.cxx</text>
</a>
</g>
</g>
<!-- Node1&#45;&gt;Node10 -->
<g id="edge9" class="edge">
<title>Node1&#45;&gt;Node10</title>
<path fill="none" stroke="midnightblue" d="M3683.65,-142.54C3383.4,-140.28 2126.44,-129.08 1734.5,-98 1717.37,-96.64 1698.78,-94.37 1682.02,-92.03"/>
<polygon fill="midnightblue" stroke="midnightblue" points="3683.89,-146.05 3693.92,-142.62 3683.95,-139.05 3683.89,-146.05"/>
</g>
<!-- Node11 -->
<g id="node11" class="node">
<title>Node11</title>
<g id="a_node11"><a xlink:href="ClusterSinglesDoublesTriplesAlgorithm_8cxx.html" target="_top" xlink:title=" ">
<polygon fill="none" stroke="black" points="1743.5,-67.5 1743.5,-97.5 1901.5,-97.5 1901.5,-67.5 1743.5,-67.5"/>
<text text-anchor="start" x="1751.5" y="-85.5" font-family="Helvetica,sans-Serif" font-size="10.00">ClusterSinglesDoublesTriples</text>
<text text-anchor="middle" x="1822.5" y="-74.5" font-family="Helvetica,sans-Serif" font-size="10.00">Algorithm.cxx</text>
</a>
</g>
</g>
<!-- Node1&#45;&gt;Node11 -->
<g id="edge10" class="edge">
<title>Node1&#45;&gt;Node11</title>
<path fill="none" stroke="midnightblue" d="M3683.81,-142.62C3400.24,-140.78 2265.41,-131.42 1910.5,-98 1907.57,-97.72 1904.59,-97.41 1901.59,-97.06"/>
<polygon fill="midnightblue" stroke="midnightblue" points="3683.91,-146.12 3693.93,-142.69 3683.95,-139.12 3683.91,-146.12"/>
</g>
<!-- Node12 -->
<g id="node12" class="node">
<title>Node12</title>
<g id="a_node12"><a xlink:href="ClusterSinglesDoublesTriplesQuadruplesAlgorithm_8cxx.html" target="_top" xlink:title=" ">
<polygon fill="none" stroke="black" points="1919.5,-67.5 1919.5,-97.5 2077.5,-97.5 2077.5,-67.5 1919.5,-67.5"/>
<text text-anchor="start" x="1927.5" y="-85.5" font-family="Helvetica,sans-Serif" font-size="10.00">ClusterSinglesDoublesTriples</text>
<text text-anchor="middle" x="1998.5" y="-74.5" font-family="Helvetica,sans-Serif" font-size="10.00">QuadruplesAlgorithm.cxx</text>
</a>
</g>
</g>
<!-- Node1&#45;&gt;Node12 -->
<g id="edge11" class="edge">
<title>Node1&#45;&gt;Node12</title>
<path fill="none" stroke="midnightblue" d="M3683.57,-142.43C3416.86,-139.88 2404.79,-128.39 2086.5,-98 2083.57,-97.72 2080.59,-97.4 2077.59,-97.05"/>
<polygon fill="midnightblue" stroke="midnightblue" points="3683.82,-145.93 3693.85,-142.52 3683.89,-138.93 3683.82,-145.93"/>
</g>
<!-- Node13 -->
<g id="node13" class="node">
<title>Node13</title>
<g id="a_node13"><a xlink:href="ComplexTensorNorm_8cxx.html" target="_top" xlink:title=" ">
<polygon fill="none" stroke="black" points="2096,-73 2096,-92 2235,-92 2235,-73 2096,-73"/>
<text text-anchor="middle" x="2165.5" y="-80" font-family="Helvetica,sans-Serif" font-size="10.00">ComplexTensorNorm.cxx</text>
</a>
</g>
</g>
<!-- Node1&#45;&gt;Node13 -->
<g id="edge12" class="edge">
<title>Node1&#45;&gt;Node13</title>
<path fill="none" stroke="midnightblue" d="M3683.96,-142.39C3433.97,-139.84 2529.18,-128.64 2243.5,-98 2230.9,-96.65 2217.28,-94.4 2205.01,-92.06"/>
<polygon fill="midnightblue" stroke="midnightblue" points="3683.94,-145.89 3693.97,-142.5 3684.01,-138.89 3683.94,-145.89"/>
</g>
<!-- Node14 -->
<g id="node14" class="node">
<title>Node14</title>
<g id="a_node14"><a xlink:href="CoulombIntegralsFromGaussian_8cxx.html" target="_top" xlink:title=" ">
<polygon fill="none" stroke="black" points="2253,-73 2253,-92 2446,-92 2446,-73 2253,-73"/>
<text text-anchor="middle" x="2349.5" y="-80" font-family="Helvetica,sans-Serif" font-size="10.00">CoulombIntegralsFromGaussian.cxx</text>
</a>
</g>
</g>
<!-- Node1&#45;&gt;Node14 -->
<g id="edge13" class="edge">
<title>Node1&#45;&gt;Node14</title>
<path fill="none" stroke="midnightblue" d="M3683.81,-143.06C3494.53,-142.74 2925.5,-138.22 2455.5,-98 2438.66,-96.56 2420.4,-94.31 2403.85,-92.01"/>
<polygon fill="midnightblue" stroke="midnightblue" points="3683.87,-146.56 3693.87,-143.07 3683.88,-139.56 3683.87,-146.56"/>
</g>
<!-- Node15 -->
<g id="node15" class="node">
<title>Node15</title>
<g id="a_node15"><a xlink:href="CoulombIntegralsFromRotatedCoulombIntegrals_8cxx.html" target="_top" xlink:title=" ">
<polygon fill="none" stroke="black" points="2464.5,-67.5 2464.5,-97.5 2630.5,-97.5 2630.5,-67.5 2464.5,-67.5"/>
<text text-anchor="start" x="2472.5" y="-85.5" font-family="Helvetica,sans-Serif" font-size="10.00">CoulombIntegralsFromRotated</text>
<text text-anchor="middle" x="2547.5" y="-74.5" font-family="Helvetica,sans-Serif" font-size="10.00">CoulombIntegrals.cxx</text>
</a>
</g>
</g>
<!-- Node1&#45;&gt;Node15 -->
<g id="edge14" class="edge">
<title>Node1&#45;&gt;Node15</title>
<path fill="none" stroke="midnightblue" d="M3683.72,-142.99C3512.67,-142.39 3034.84,-137.04 2639.5,-98 2636.6,-97.71 2633.66,-97.4 2630.69,-97.05"/>
<polygon fill="midnightblue" stroke="midnightblue" points="3683.81,-146.49 3693.82,-143.02 3683.83,-139.49 3683.81,-146.49"/>
</g>
<!-- Node16 -->
<g id="node16" class="node">
<title>Node16</title>
<g id="a_node16"><a xlink:href="CoulombIntegralsFromVertex_8cxx.html" target="_top" xlink:title=" ">
<polygon fill="none" stroke="black" points="2649,-73 2649,-92 2828,-92 2828,-73 2649,-73"/>
<text text-anchor="middle" x="2738.5" y="-80" font-family="Helvetica,sans-Serif" font-size="10.00">CoulombIntegralsFromVertex.cxx</text>
</a>
</g>
</g>
<!-- Node1&#45;&gt;Node16 -->
<g id="edge15" class="edge">
<title>Node1&#45;&gt;Node16</title>
<path fill="none" stroke="midnightblue" d="M3683.5,-141.97C3533.78,-139.12 3153.11,-129.16 2836.5,-98 2821.18,-96.49 2804.59,-94.27 2789.5,-92.01"/>
<polygon fill="midnightblue" stroke="midnightblue" points="3683.82,-145.48 3693.88,-142.16 3683.95,-138.48 3683.82,-145.48"/>
</g>
<!-- Node17 -->
<g id="node17" class="node">
<title>Node17</title>
<g id="a_node17"><a xlink:href="CoulombVertexDecomposition_8cxx.html" target="_top" xlink:title=" ">
<polygon fill="none" stroke="black" points="2846,-73 2846,-92 3031,-92 3031,-73 2846,-73"/>
<text text-anchor="middle" x="2938.5" y="-80" font-family="Helvetica,sans-Serif" font-size="10.00">CoulombVertexDecomposition.cxx</text>
</a>
</g>
</g>
<!-- Node1&#45;&gt;Node17 -->
<g id="edge16" class="edge">
<title>Node1&#45;&gt;Node17</title>
<path fill="none" stroke="midnightblue" d="M3683.6,-140.56C3558.79,-135.51 3276.75,-122.26 3040.5,-98 3025.02,-96.41 3008.28,-94.23 2992.93,-92.04"/>
<polygon fill="midnightblue" stroke="midnightblue" points="3683.62,-144.07 3693.75,-140.97 3683.9,-137.07 3683.62,-144.07"/>
</g>
<!-- Node18 -->
<g id="node18" class="node">
<title>Node18</title>
<g id="a_node18"><a xlink:href="CoulombVertexReader_8cxx.html" target="_top" xlink:title=" ">
<polygon fill="none" stroke="black" points="3049.5,-73 3049.5,-92 3195.5,-92 3195.5,-73 3049.5,-73"/>
<text text-anchor="middle" x="3122.5" y="-80" font-family="Helvetica,sans-Serif" font-size="10.00">CoulombVertexReader.cxx</text>
</a>
</g>
</g>
<!-- Node1&#45;&gt;Node18 -->
<g id="edge17" class="edge">
<title>Node1&#45;&gt;Node18</title>
<path fill="none" stroke="midnightblue" d="M3683.73,-139.59C3581.57,-133.76 3376.91,-120.33 3204.5,-98 3192.03,-96.38 3178.56,-94.19 3166.22,-92"/>
<polygon fill="midnightblue" stroke="midnightblue" points="3683.71,-143.09 3693.89,-140.16 3684.1,-136.1 3683.71,-143.09"/>
</g>
<!-- Node19 -->
<g id="node19" class="node">
<title>Node19</title>
<g id="a_node19"><a xlink:href="CoulombVertexSingularVectors_8cxx.html" target="_top" xlink:title=" ">
<polygon fill="none" stroke="black" points="3213.5,-73 3213.5,-92 3401.5,-92 3401.5,-73 3213.5,-73"/>
<text text-anchor="middle" x="3307.5" y="-80" font-family="Helvetica,sans-Serif" font-size="10.00">CoulombVertexSingularVectors.cxx</text>
</a>
</g>
</g>
<!-- Node1&#45;&gt;Node19 -->
<g id="edge18" class="edge">
<title>Node1&#45;&gt;Node19</title>
<path fill="none" stroke="midnightblue" d="M3683.6,-134.51C3615.54,-125.57 3505.48,-111.01 3410.5,-98 3396.54,-96.09 3381.53,-94 3367.4,-92.01"/>
<polygon fill="midnightblue" stroke="midnightblue" points="3683.38,-138.01 3693.75,-135.84 3684.29,-131.07 3683.38,-138.01"/>
</g>
<!-- Node20 -->
<g id="node20" class="node">
<title>Node20</title>
<g id="a_node20"><a xlink:href="DoublesAmplitudesDecomposition_8cxx.html" target="_top" xlink:title=" ">
<polygon fill="none" stroke="black" points="3419.5,-73 3419.5,-92 3625.5,-92 3625.5,-73 3419.5,-73"/>
<text text-anchor="middle" x="3522.5" y="-80" font-family="Helvetica,sans-Serif" font-size="10.00">DoublesAmplitudesDecomposition.cxx</text>
</a>
</g>
</g>
<!-- Node1&#45;&gt;Node20 -->
<g id="edge19" class="edge">
<title>Node1&#45;&gt;Node20</title>
<path fill="none" stroke="midnightblue" d="M3706.32,-131.9C3662.43,-120.34 3594.65,-102.5 3554.82,-92.01"/>
<polygon fill="midnightblue" stroke="midnightblue" points="3705.56,-135.31 3716.12,-134.48 3707.34,-128.54 3705.56,-135.31"/>
</g>
<!-- Node21 -->
<g id="node21" class="node">
<title>Node21</title>
<g id="a_node21"><a xlink:href="DrccdEnergyFromCoulombIntegrals_8cxx.html" target="_top" xlink:title=" ">
<polygon fill="none" stroke="black" points="3644,-73 3644,-92 3853,-92 3853,-73 3644,-73"/>
<text text-anchor="middle" x="3748.5" y="-80" font-family="Helvetica,sans-Serif" font-size="10.00">DrccdEnergyFromCoulombIntegrals.cxx</text>
</a>
</g>
</g>
<!-- Node1&#45;&gt;Node21 -->
<g id="edge20" class="edge">
<title>Node1&#45;&gt;Node21</title>
<path fill="none" stroke="midnightblue" d="M3748.5,-124.32C3748.5,-113.5 3748.5,-100.4 3748.5,-92.01"/>
<polygon fill="midnightblue" stroke="midnightblue" points="3745,-124.48 3748.5,-134.48 3752,-124.48 3745,-124.48"/>
</g>
<!-- Node22 -->
<g id="node22" class="node">
<title>Node22</title>
<g id="a_node22"><a xlink:href="EigenSystemDavidson_8hpp.html" target="_top" xlink:title=" ">
<polygon fill="none" stroke="black" points="907,-73 907,-92 1054,-92 1054,-73 907,-73"/>
<text text-anchor="middle" x="980.5" y="-80" font-family="Helvetica,sans-Serif" font-size="10.00">EigenSystemDavidson.hpp</text>
</a>
</g>
</g>
<!-- Node1&#45;&gt;Node22 -->
<g id="edge21" class="edge">
<title>Node1&#45;&gt;Node22</title>
<path fill="none" stroke="midnightblue" d="M3683.6,-143.2C3326.68,-144.11 1599.43,-145.94 1068.5,-98 1054.16,-96.71 1038.62,-94.44 1024.65,-92.07"/>
<polygon fill="midnightblue" stroke="midnightblue" points="3683.77,-146.7 3693.76,-143.17 3683.75,-139.7 3683.77,-146.7"/>
</g>
<!-- Node23 -->
<g id="node23" class="node">
<title>Node23</title>
<g id="a_node23"><a xlink:href="UCcsdEAEquationOfMotionDavidson_8cxx.html" target="_top" xlink:title=" ">
<polygon fill="none" stroke="black" points="847.5,-6 847.5,-25 1061.5,-25 1061.5,-6 847.5,-6"/>
<text text-anchor="middle" x="954.5" y="-13" font-family="Helvetica,sans-Serif" font-size="10.00">UCcsdEAEquationOfMotionDavidson.cxx</text>
</a>
</g>
</g>
<!-- Node1&#45;&gt;Node23 -->
<g id="edge53" class="edge">
<title>Node1&#45;&gt;Node23</title>
<path fill="none" stroke="midnightblue" d="M3683.75,-143.22C3264.36,-144.52 948.03,-149.33 897.5,-98 874.37,-74.5 917.48,-40.7 940.87,-25.05"/>
<polygon fill="midnightblue" stroke="midnightblue" points="3683.89,-146.72 3693.88,-143.19 3683.87,-139.72 3683.89,-146.72"/>
</g>
<!-- Node24 -->
<g id="node24" class="node">
<title>Node24</title>
<g id="a_node24"><a xlink:href="UCcsdIPEquationOfMotionDavidson_8cxx.html" target="_top" xlink:title=" ">
<polygon fill="none" stroke="black" points="1261.5,-6 1261.5,-25 1471.5,-25 1471.5,-6 1261.5,-6"/>
<text text-anchor="middle" x="1366.5" y="-13" font-family="Helvetica,sans-Serif" font-size="10.00">UCcsdIPEquationOfMotionDavidson.cxx</text>
</a>
</g>
</g>
<!-- Node1&#45;&gt;Node24 -->
<g id="edge54" class="edge">
<title>Node1&#45;&gt;Node24</title>
<path fill="none" stroke="midnightblue" d="M3683.66,-143.13C3285.35,-143.74 1185.49,-144.79 1139.5,-98 1129.84,-88.17 1130.88,-77.75 1139.5,-67 1150.31,-53.52 1248.24,-35.47 1311.89,-25.01"/>
<polygon fill="midnightblue" stroke="midnightblue" points="3683.86,-146.63 3693.85,-143.11 3683.85,-139.63 3683.86,-146.63"/>
</g>
<!-- Node25 -->
<g id="node25" class="node">
<title>Node25</title>
<g id="a_node25"><a xlink:href="UnrestrictedEquationOfMotionSinglesFromRpa_8cxx.html" target="_top" xlink:title=" ">
<polygon fill="none" stroke="black" points="1079.5,-0.5 1079.5,-30.5 1243.5,-30.5 1243.5,-0.5 1079.5,-0.5"/>
<text text-anchor="start" x="1087.5" y="-18.5" font-family="Helvetica,sans-Serif" font-size="10.00">UnrestrictedEquationOfMotion</text>
<text text-anchor="middle" x="1161.5" y="-7.5" font-family="Helvetica,sans-Serif" font-size="10.00">SinglesFromRpa.cxx</text>
</a>
</g>
</g>
<!-- Node1&#45;&gt;Node25 -->
<g id="edge59" class="edge">
<title>Node1&#45;&gt;Node25</title>
<path fill="none" stroke="midnightblue" d="M3683.73,-143.13C3284.71,-143.78 1175.68,-144.98 1129.5,-98 1111.07,-79.25 1132.16,-48.62 1147.78,-30.73"/>
<polygon fill="midnightblue" stroke="midnightblue" points="3683.95,-146.63 3693.94,-143.11 3683.93,-139.63 3683.95,-146.63"/>
</g>
<!-- Node26 -->
<g id="node26" class="node">
<title>Node26</title>
<g id="a_node26"><a xlink:href="FiniteSizeCorrection_8cxx.html" target="_top" xlink:title=" ">
<polygon fill="none" stroke="black" points="3892.5,-6 3892.5,-25 4026.5,-25 4026.5,-6 3892.5,-6"/>
<text text-anchor="middle" x="3959.5" y="-13" font-family="Helvetica,sans-Serif" font-size="10.00">FiniteSizeCorrection.cxx</text>
</a>
</g>
</g>
<!-- Node1&#45;&gt;Node26 -->
<g id="edge27" class="edge">
<title>Node1&#45;&gt;Node26</title>
<path fill="none" stroke="midnightblue" d="M3786.64,-131.18C3809.22,-123.38 3837.94,-112.01 3861.5,-98 3871.11,-92.29 3926.57,-44.85 3949.54,-25.09"/>
<polygon fill="midnightblue" stroke="midnightblue" points="3785.41,-127.91 3777.05,-134.41 3787.64,-134.54 3785.41,-127.91"/>
</g>
<!-- Node27 -->
<g id="node27" class="node">
<title>Node27</title>
<g id="a_node27"><a xlink:href="FockMatrixFromCoulombIntegrals_8cxx.html" target="_top" xlink:title=" ">
<polygon fill="none" stroke="black" points="4113.5,-73 4113.5,-92 4315.5,-92 4315.5,-73 4113.5,-73"/>
<text text-anchor="middle" x="4214.5" y="-80" font-family="Helvetica,sans-Serif" font-size="10.00">FockMatrixFromCoulombIntegrals.cxx</text>
</a>
</g>
</g>
<!-- Node1&#45;&gt;Node27 -->
<g id="edge28" class="edge">
<title>Node1&#45;&gt;Node27</title>
<path fill="none" stroke="midnightblue" d="M3813.28,-134.92C3884.63,-125.99 4002.77,-111.13 4104.5,-98 4119.31,-96.09 4135.23,-94.01 4150.23,-92.03"/>
<polygon fill="midnightblue" stroke="midnightblue" points="3812.58,-131.48 3803.1,-136.19 3813.45,-138.42 3812.58,-131.48"/>
</g>
<!-- Node28 -->
<g id="node28" class="node">
<title>Node28</title>
<g id="a_node28"><a xlink:href="FockVector_8hpp.html" target="_top" xlink:title=" ">
<polygon fill="none" stroke="red" points="760.5,-73 760.5,-92 850.5,-92 850.5,-73 760.5,-73"/>
<text text-anchor="middle" x="805.5" y="-80" font-family="Helvetica,sans-Serif" font-size="10.00">FockVector.hpp</text>
</a>
</g>
</g>
<!-- Node1&#45;&gt;Node28 -->
<g id="edge29" class="edge">
<title>Node1&#45;&gt;Node28</title>
<path fill="none" stroke="midnightblue" d="M3683.55,-142.86C3282.65,-141.91 1152.25,-135.12 864.5,-98 854.67,-96.73 844.1,-94.44 834.66,-92.05"/>
<polygon fill="midnightblue" stroke="midnightblue" points="3683.8,-146.36 3693.81,-142.89 3683.81,-139.36 3683.8,-146.36"/>
</g>
<!-- Node62 -->
<g id="node29" class="node">
<title>Node62</title>
<g id="a_node29"><a xlink:href="Integration_8hpp.html" target="_top" xlink:title=" ">
<polygon fill="none" stroke="black" points="4334,-73 4334,-92 4425,-92 4425,-73 4334,-73"/>
<text text-anchor="middle" x="4379.5" y="-80" font-family="Helvetica,sans-Serif" font-size="10.00">Integration.hpp</text>
</a>
</g>
</g>
<!-- Node1&#45;&gt;Node62 -->
<g id="edge36" class="edge">
<title>Node1&#45;&gt;Node62</title>
<path fill="none" stroke="midnightblue" d="M3813.31,-141.73C3920.41,-138.78 4140.8,-129.13 4324.5,-98 4333.26,-96.52 4342.66,-94.28 4351.17,-92.01"/>
<polygon fill="midnightblue" stroke="midnightblue" points="3813.2,-138.23 3803.3,-141.99 3813.39,-145.23 3813.2,-138.23"/>
</g>
<!-- Node63 -->
<g id="node30" class="node">
<title>Node63</title>
<g id="a_node30"><a xlink:href="Interpolation_8hpp.html" target="_top" xlink:title=" ">
<polygon fill="none" stroke="red" points="3909.5,-73 3909.5,-92 4009.5,-92 4009.5,-73 3909.5,-73"/>
<text text-anchor="middle" x="3959.5" y="-80" font-family="Helvetica,sans-Serif" font-size="10.00">Interpolation.hpp</text>
</a>
</g>
</g>
<!-- Node1&#45;&gt;Node63 -->
<g id="edge37" class="edge">
<title>Node1&#45;&gt;Node63</title>
<path fill="none" stroke="midnightblue" d="M3788.4,-131.75C3829.39,-120.19 3892.3,-102.45 3929.32,-92.01"/>
<polygon fill="midnightblue" stroke="midnightblue" points="3787.41,-128.39 3778.73,-134.48 3789.31,-135.13 3787.41,-128.39"/>
</g>
<!-- Node65 -->
<g id="node31" class="node">
<title>Node65</title>
<g id="a_node31"><a xlink:href="IterativePseudoInverse_8cxx.html" target="_top" xlink:title=" ">
<polygon fill="none" stroke="black" points="4443,-73 4443,-92 4592,-92 4592,-73 4443,-73"/>
<text text-anchor="middle" x="4517.5" y="-80" font-family="Helvetica,sans-Serif" font-size="10.00">IterativePseudoInverse.cxx</text>
</a>
</g>
</g>
<!-- Node1&#45;&gt;Node65 -->
<g id="edge39" class="edge">
<title>Node1&#45;&gt;Node65</title>
<path fill="none" stroke="midnightblue" d="M3813.67,-141.06C3935.81,-136.9 4207.37,-125.21 4434.5,-98 4447.28,-96.47 4461.08,-94.28 4473.69,-92.06"/>
<polygon fill="midnightblue" stroke="midnightblue" points="3813.25,-137.57 3803.37,-141.4 3813.48,-144.57 3813.25,-137.57"/>
</g>
<!-- Node66 -->
<g id="node32" class="node">
<title>Node66</title>
<g id="a_node32"><a xlink:href="MathFunctions_8cxx.html" target="_top" xlink:title=" ">
<polygon fill="none" stroke="black" points="4610.5,-73 4610.5,-92 4718.5,-92 4718.5,-73 4610.5,-73"/>
<text text-anchor="middle" x="4664.5" y="-80" font-family="Helvetica,sans-Serif" font-size="10.00">MathFunctions.cxx</text>
</a>
</g>
</g>
<!-- Node1&#45;&gt;Node66 -->
<g id="edge40" class="edge">
<title>Node1&#45;&gt;Node66</title>
<path fill="none" stroke="midnightblue" d="M3813.55,-143.4C3956.72,-143.45 4309.59,-138.98 4601.5,-98 4611.61,-96.58 4622.5,-94.34 4632.33,-92.04"/>
<polygon fill="midnightblue" stroke="midnightblue" points="3813.21,-139.9 3803.2,-143.39 3813.2,-146.9 3813.21,-139.9"/>
</g>
<!-- Node67 -->
<g id="node33" class="node">
<title>Node67</title>
<g id="a_node33"><a xlink:href="MeanCorrelationHoleDepth_8cxx.html" target="_top" xlink:title=" ">
<polygon fill="none" stroke="black" points="4736.5,-73 4736.5,-92 4906.5,-92 4906.5,-73 4736.5,-73"/>
<text text-anchor="middle" x="4821.5" y="-80" font-family="Helvetica,sans-Serif" font-size="10.00">MeanCorrelationHoleDepth.cxx</text>
</a>
</g>
</g>
<!-- Node1&#45;&gt;Node67 -->
<g id="edge41" class="edge">
<title>Node1&#45;&gt;Node67</title>
<path fill="none" stroke="midnightblue" d="M3813.47,-142.42C3970.75,-140.48 4384.29,-132.26 4727.5,-98 4742.29,-96.52 4758.3,-94.29 4772.84,-92.02"/>
<polygon fill="midnightblue" stroke="midnightblue" points="3813,-138.92 3803.04,-142.54 3813.08,-145.92 3813,-138.92"/>
</g>
<!-- Node68 -->
<g id="node34" class="node">
<title>Node68</title>
<g id="a_node34"><a xlink:href="ParticleHoleCoulombVertexDecomposition_8cxx.html" target="_top" xlink:title=" ">
<polygon fill="none" stroke="black" points="4924.5,-67.5 4924.5,-97.5 5074.5,-97.5 5074.5,-67.5 4924.5,-67.5"/>
<text text-anchor="start" x="4932.5" y="-85.5" font-family="Helvetica,sans-Serif" font-size="10.00">ParticleHoleCoulombVertex</text>
<text text-anchor="middle" x="4999.5" y="-74.5" font-family="Helvetica,sans-Serif" font-size="10.00">Decomposition.cxx</text>
</a>
</g>
</g>
<!-- Node1&#45;&gt;Node68 -->
<g id="edge42" class="edge">
<title>Node1&#45;&gt;Node68</title>
<path fill="none" stroke="midnightblue" d="M3813.26,-143.5C3990.3,-144.23 4497.11,-141.98 4915.5,-98 4918.44,-97.69 4921.44,-97.34 4924.46,-96.96"/>
<polygon fill="midnightblue" stroke="midnightblue" points="3813.09,-140 3803.07,-143.46 3813.06,-147 3813.09,-140"/>
</g>
<!-- Node69 -->
<g id="node35" class="node">
<title>Node69</title>
<g id="a_node35"><a xlink:href="ParticleHoleCoulombVertexSingularVectors_8cxx.html" target="_top" xlink:title=" ">
<polygon fill="none" stroke="black" points="5092.5,-67.5 5092.5,-97.5 5242.5,-97.5 5242.5,-67.5 5092.5,-67.5"/>
<text text-anchor="start" x="5100.5" y="-85.5" font-family="Helvetica,sans-Serif" font-size="10.00">ParticleHoleCoulombVertex</text>
<text text-anchor="middle" x="5167.5" y="-74.5" font-family="Helvetica,sans-Serif" font-size="10.00">SingularVectors.cxx</text>
</a>
</g>
</g>
<!-- Node1&#45;&gt;Node69 -->
<g id="edge43" class="edge">
<title>Node1&#45;&gt;Node69</title>
<path fill="none" stroke="midnightblue" d="M3813.66,-141.99C4045.94,-138.2 4832.87,-123.73 5083.5,-98 5086.44,-97.7 5089.44,-97.35 5092.46,-96.98"/>
<polygon fill="midnightblue" stroke="midnightblue" points="3813.29,-138.49 3803.35,-142.16 3813.41,-145.49 3813.29,-138.49"/>
</g>
<!-- Node70 -->
<g id="node36" class="node">
<title>Node70</title>
<g id="a_node36"><a xlink:href="PerturbativeTriples_8cxx.html" target="_top" xlink:title=" ">
<polygon fill="none" stroke="black" points="5260.5,-73 5260.5,-92 5388.5,-92 5388.5,-73 5260.5,-73"/>
<text text-anchor="middle" x="5324.5" y="-80" font-family="Helvetica,sans-Serif" font-size="10.00">PerturbativeTriples.cxx</text>
</a>
</g>
</g>
<!-- Node1&#45;&gt;Node70 -->
<g id="edge44" class="edge">
<title>Node1&#45;&gt;Node70</title>
<path fill="none" stroke="midnightblue" d="M3813.39,-142.49C4063.68,-140.31 4966.55,-130.34 5251.5,-98 5263.44,-96.64 5276.34,-94.36 5287.92,-92"/>
<polygon fill="midnightblue" stroke="midnightblue" points="3813.33,-138.99 3803.36,-142.58 3813.39,-145.99 3813.33,-138.99"/>
</g>
<!-- Node71 -->
<g id="node37" class="node">
<title>Node71</title>
<g id="a_node37"><a xlink:href="PseudoInverseHermitianSvd_8cxx.html" target="_top" xlink:title=" ">
<polygon fill="none" stroke="black" points="5407,-73 5407,-92 5582,-92 5582,-73 5407,-73"/>
<text text-anchor="middle" x="5494.5" y="-80" font-family="Helvetica,sans-Serif" font-size="10.00">PseudoInverseHermitianSvd.cxx</text>
</a>
</g>
</g>
<!-- Node1&#45;&gt;Node71 -->
<g id="edge45" class="edge">
<title>Node1&#45;&gt;Node71</title>
<path fill="none" stroke="midnightblue" d="M3813.36,-142.28C4078.6,-139.18 5081.66,-125.81 5397.5,-98 5413.1,-96.63 5430.02,-94.37 5445.29,-92.04"/>
<polygon fill="midnightblue" stroke="midnightblue" points="3813.08,-138.78 3803.13,-142.4 3813.17,-145.78 3813.08,-138.78"/>
</g>
<!-- Node72 -->
<g id="node38" class="node">
<title>Node72</title>
<g id="a_node38"><a xlink:href="PseudoInverseSvd_8cxx.html" target="_top" xlink:title=" ">
<polygon fill="none" stroke="black" points="5600.5,-73 5600.5,-92 5726.5,-92 5726.5,-73 5600.5,-73"/>
<text text-anchor="middle" x="5663.5" y="-80" font-family="Helvetica,sans-Serif" font-size="10.00">PseudoInverseSvd.cxx</text>
</a>
</g>
</g>
<!-- Node1&#45;&gt;Node72 -->
<g id="edge46" class="edge">
<title>Node1&#45;&gt;Node72</title>
<path fill="none" stroke="midnightblue" d="M3813.4,-142.93C4097.88,-142.41 5236.27,-137.8 5591.5,-98 5603.28,-96.68 5616.01,-94.41 5627.44,-92.04"/>
<polygon fill="midnightblue" stroke="midnightblue" points="3813.24,-139.43 3803.25,-142.95 3813.25,-146.43 3813.24,-139.43"/>
</g>
<!-- Node73 -->
<g id="node39" class="node">
<title>Node73</title>
<g id="a_node39"><a xlink:href="RegularizedAlternatingLeastSquares_8cxx.html" target="_top" xlink:title=" ">
<polygon fill="none" stroke="black" points="5745,-67.5 5745,-97.5 5900,-97.5 5900,-67.5 5745,-67.5"/>
<text text-anchor="start" x="5753" y="-85.5" font-family="Helvetica,sans-Serif" font-size="10.00">RegularizedAlternatingLeast</text>
<text text-anchor="middle" x="5822.5" y="-74.5" font-family="Helvetica,sans-Serif" font-size="10.00">Squares.cxx</text>
</a>
</g>
</g>
<!-- Node1&#45;&gt;Node73 -->
<g id="edge47" class="edge">
<title>Node1&#45;&gt;Node73</title>
<path fill="none" stroke="midnightblue" d="M3813.49,-142.77C4111.55,-141.55 5349.73,-134.33 5735.5,-98 5738.55,-97.71 5741.65,-97.38 5744.78,-97.02"/>
<polygon fill="midnightblue" stroke="midnightblue" points="3813.27,-139.28 3803.28,-142.82 3813.3,-146.28 3813.27,-139.28"/>
</g>
<!-- Node52 -->
<g id="node40" class="node">
<title>Node52</title>
<g id="a_node40"><a xlink:href="SimilarityTransformedHamiltonian_8cxx.html" target="_top" xlink:title=" ">
<polygon fill="none" stroke="black" points="5918,-73 5918,-92 6123,-92 6123,-73 5918,-73"/>
<text text-anchor="middle" x="6020.5" y="-80" font-family="Helvetica,sans-Serif" font-size="10.00">SimilarityTransformedHamiltonian.cxx</text>
</a>
</g>
</g>
<!-- Node1&#45;&gt;Node52 -->
<g id="edge48" class="edge">
<title>Node1&#45;&gt;Node52</title>
<path fill="none" stroke="midnightblue" d="M3813.43,-142.6C4127,-140.55 5486.79,-129.92 5909.5,-98 5927.43,-96.65 5946.89,-94.38 5964.44,-92.03"/>
<polygon fill="midnightblue" stroke="midnightblue" points="3813.13,-139.11 3803.15,-142.67 3813.18,-146.11 3813.13,-139.11"/>
</g>
<!-- Node74 -->
<g id="node41" class="node">
<title>Node74</title>
<g id="a_node41"><a xlink:href="SingleParticleOccupancies_8cxx.html" target="_top" xlink:title=" ">
<polygon fill="none" stroke="black" points="6141.5,-73 6141.5,-92 6305.5,-92 6305.5,-73 6141.5,-73"/>
<text text-anchor="middle" x="6223.5" y="-80" font-family="Helvetica,sans-Serif" font-size="10.00">SingleParticleOccupancies.cxx</text>
</a>
</g>
</g>
<!-- Node1&#45;&gt;Node74 -->
<g id="edge49" class="edge">
<title>Node1&#45;&gt;Node74</title>
<path fill="none" stroke="midnightblue" d="M3813.54,-143C4146.59,-142.8 5663.65,-139.57 6132.5,-98 6147.32,-96.69 6163.38,-94.41 6177.83,-92.05"/>
<polygon fill="midnightblue" stroke="midnightblue" points="3813.11,-139.5 3803.11,-143 3813.11,-146.5 3813.11,-139.5"/>
</g>
<!-- Node75 -->
<g id="node42" class="node">
<title>Node75</title>
<g id="a_node42"><a xlink:href="Sisi4s_8cxx.html" target="_top" xlink:title=" ">
<polygon fill="none" stroke="black" points="6324,-73 6324,-92 6389,-92 6389,-73 6324,-73"/>
<text text-anchor="middle" x="6356.5" y="-80" font-family="Helvetica,sans-Serif" font-size="10.00">Sisi4s.cxx</text>
</a>
</g>
</g>
<!-- Node1&#45;&gt;Node75 -->
<g id="edge50" class="edge">
<title>Node1&#45;&gt;Node75</title>
<path fill="none" stroke="midnightblue" d="M3813.34,-143.08C4187.43,-143.38 6061.91,-142.66 6314.5,-98 6321.64,-96.74 6329.2,-94.45 6335.91,-92.05"/>
<polygon fill="midnightblue" stroke="midnightblue" points="3813.24,-139.58 3803.23,-143.07 3813.23,-146.58 3813.24,-139.58"/>
</g>
<!-- Node76 -->
<g id="node43" class="node">
<title>Node76</title>
<g id="a_node43"><a xlink:href="TensorAntisymmetrizer_8cxx.html" target="_top" xlink:title=" ">
<polygon fill="none" stroke="black" points="6407,-73 6407,-92 6556,-92 6556,-73 6407,-73"/>
<text text-anchor="middle" x="6481.5" y="-80" font-family="Helvetica,sans-Serif" font-size="10.00">TensorAntisymmetrizer.cxx</text>
</a>
</g>
</g>
<!-- Node1&#45;&gt;Node76 -->
<g id="edge51" class="edge">
<title>Node1&#45;&gt;Node76</title>
<path fill="none" stroke="midnightblue" d="M3813.25,-143.27C4167.5,-144.55 5874.04,-147.96 6398.5,-98 6412.19,-96.7 6427.01,-94.39 6440.3,-92"/>
<polygon fill="midnightblue" stroke="midnightblue" points="3813.18,-139.77 3803.17,-143.23 3813.15,-146.77 3813.18,-139.77"/>
</g>
<!-- Node77 -->
<g id="node44" class="node">
<title>Node77</title>
<g id="a_node44"><a xlink:href="TensorNorm_8cxx.html" target="_top" xlink:title=" ">
<polygon fill="none" stroke="black" points="6574,-73 6574,-92 6669,-92 6669,-73 6574,-73"/>
<text text-anchor="middle" x="6621.5" y="-80" font-family="Helvetica,sans-Serif" font-size="10.00">TensorNorm.cxx</text>
</a>
</g>
</g>
<!-- Node1&#45;&gt;Node77 -->
<g id="edge52" class="edge">
<title>Node1&#45;&gt;Node77</title>
<path fill="none" stroke="midnightblue" d="M3813.21,-142.89C4208.02,-142.07 6284.97,-136.01 6565.5,-98 6574.85,-96.73 6584.89,-94.44 6593.84,-92.05"/>
<polygon fill="midnightblue" stroke="midnightblue" points="3813.1,-139.39 3803.1,-142.91 3813.11,-146.39 3813.1,-139.39"/>
</g>
<!-- Node78 -->
<g id="node45" class="node">
<title>Node78</title>
<g id="a_node45"><a xlink:href="UPerturbativeTriples_8cxx.html" target="_top" xlink:title=" ">
<polygon fill="none" stroke="black" points="6687.5,-73 6687.5,-92 6823.5,-92 6823.5,-73 6687.5,-73"/>
<text text-anchor="middle" x="6755.5" y="-80" font-family="Helvetica,sans-Serif" font-size="10.00">UPerturbativeTriples.cxx</text>
</a>
</g>
</g>
<!-- Node1&#45;&gt;Node78 -->
<g id="edge55" class="edge">
<title>Node1&#45;&gt;Node78</title>
<path fill="none" stroke="midnightblue" d="M3813.18,-142.67C4217.07,-140.52 6384.93,-127.68 6678.5,-98 6691.22,-96.71 6704.98,-94.42 6717.3,-92.03"/>
<polygon fill="midnightblue" stroke="midnightblue" points="3813.12,-139.17 3803.14,-142.72 3813.16,-146.17 3813.12,-139.17"/>
</g>
<!-- Node43 -->
<g id="node46" class="node">
<title>Node43</title>
<g id="a_node46"><a xlink:href="UccsdAmplitudesFromCoulombIntegrals_8cxx.html" target="_top" xlink:title=" ">
<polygon fill="none" stroke="black" points="6841.5,-67.5 6841.5,-97.5 7011.5,-97.5 7011.5,-67.5 6841.5,-67.5"/>
<text text-anchor="start" x="6849.5" y="-85.5" font-family="Helvetica,sans-Serif" font-size="10.00">UccsdAmplitudesFromCoulomb</text>
<text text-anchor="middle" x="6926.5" y="-74.5" font-family="Helvetica,sans-Serif" font-size="10.00">Integrals.cxx</text>
</a>
</g>
</g>
<!-- Node1&#45;&gt;Node43 -->
<g id="edge56" class="edge">
<title>Node1&#45;&gt;Node43</title>
<path fill="none" stroke="midnightblue" d="M3813.23,-142.59C4229.5,-139.92 6522.19,-124.07 6832.5,-98 6835.38,-97.76 6838.3,-97.48 6841.26,-97.18"/>
<polygon fill="midnightblue" stroke="midnightblue" points="3813.15,-139.1 3803.17,-142.66 3813.2,-146.09 3813.15,-139.1"/>
</g>
<!-- Node37 -->
<g id="node47" class="node">
<title>Node37</title>
<g id="a_node47"><a xlink:href="UccsdtAmplitudesFromCoulombIntegrals_8cxx.html" target="_top" xlink:title=" ">
<polygon fill="none" stroke="black" points="7030,-67.5 7030,-97.5 7203,-97.5 7203,-67.5 7030,-67.5"/>
<text text-anchor="start" x="7038" y="-85.5" font-family="Helvetica,sans-Serif" font-size="10.00">UccsdtAmplitudesFromCoulomb</text>
<text text-anchor="middle" x="7116.5" y="-74.5" font-family="Helvetica,sans-Serif" font-size="10.00">Integrals.cxx</text>
</a>
</g>
</g>
<!-- Node1&#45;&gt;Node37 -->
<g id="edge57" class="edge">
<title>Node1&#45;&gt;Node37</title>
<path fill="none" stroke="midnightblue" d="M3813.37,-142.64C4244.63,-140.18 6690.27,-125.08 7020.5,-98 7023.61,-97.75 7026.77,-97.45 7029.96,-97.13"/>
<polygon fill="midnightblue" stroke="midnightblue" points="3813.24,-139.14 3803.26,-142.7 3813.28,-146.14 3813.24,-139.14"/>
</g>
<!-- Node40 -->
<g id="node48" class="node">
<title>Node40</title>
<g id="a_node48"><a xlink:href="UccsdtqAmplitudesFromCoulombIntegrals_8cxx.html" target="_top" xlink:title=" ">
<polygon fill="none" stroke="black" points="7221,-67.5 7221,-97.5 7400,-97.5 7400,-67.5 7221,-67.5"/>
<text text-anchor="start" x="7229" y="-85.5" font-family="Helvetica,sans-Serif" font-size="10.00">UccsdtqAmplitudesFromCoulomb</text>
<text text-anchor="middle" x="7310.5" y="-74.5" font-family="Helvetica,sans-Serif" font-size="10.00">Integrals.cxx</text>
</a>
</g>
</g>
<!-- Node1&#45;&gt;Node40 -->
<g id="edge58" class="edge">
<title>Node1&#45;&gt;Node40</title>
<path fill="none" stroke="midnightblue" d="M3813.25,-142.68C4258.68,-140.42 6861.83,-126.09 7212.5,-98 7215.24,-97.78 7218.03,-97.53 7220.83,-97.26"/>
<polygon fill="midnightblue" stroke="midnightblue" points="3813.11,-139.18 3803.13,-142.73 3813.15,-146.18 3813.11,-139.18"/>
</g>
<!-- Node45 -->
<g id="node49" class="node">
<title>Node45</title>
<g id="a_node49"><a xlink:href="UrpaAmplitudesFromCoulombIntegrals_8cxx.html" target="_top" xlink:title=" ">
<polygon fill="none" stroke="black" points="7418.5,-67.5 7418.5,-97.5 7582.5,-97.5 7582.5,-67.5 7418.5,-67.5"/>
<text text-anchor="start" x="7426.5" y="-85.5" font-family="Helvetica,sans-Serif" font-size="10.00">UrpaAmplitudesFromCoulomb</text>
<text text-anchor="middle" x="7500.5" y="-74.5" font-family="Helvetica,sans-Serif" font-size="10.00">Integrals.cxx</text>
</a>
</g>
</g>
<!-- Node1&#45;&gt;Node45 -->
<g id="edge60" class="edge">
<title>Node1&#45;&gt;Node45</title>
<path fill="none" stroke="midnightblue" d="M3813.27,-142.77C4273.22,-141.09 7038.07,-129.7 7409.5,-98 7412.37,-97.76 7415.28,-97.47 7418.23,-97.16"/>
<polygon fill="midnightblue" stroke="midnightblue" points="3813.13,-139.27 3803.15,-142.81 3813.16,-146.27 3813.13,-139.27"/>
</g>
<!-- Node79 -->
<g id="node50" class="node">
<title>Node79</title>
<g id="a_node50"><a xlink:href="Vector_8hpp.html" target="_top" xlink:title=" ">
<polygon fill="none" stroke="red" points="4027.5,-73 4027.5,-92 4095.5,-92 4095.5,-73 4027.5,-73"/>
<text text-anchor="middle" x="4061.5" y="-80" font-family="Helvetica,sans-Serif" font-size="10.00">Vector.hpp</text>
</a>
</g>
</g>
<!-- Node1&#45;&gt;Node79 -->
<g id="edge61" class="edge">
<title>Node1&#45;&gt;Node79</title>
<path fill="none" stroke="midnightblue" d="M3813.04,-135.2C3868.12,-127.84 3949.17,-115.35 4018.5,-98 4025.07,-96.36 4032.08,-94.18 4038.49,-92.01"/>
<polygon fill="midnightblue" stroke="midnightblue" points="3812.53,-131.74 3803.07,-136.51 3813.44,-138.68 3812.53,-131.74"/>
</g>
<!-- Node22&#45;&gt;Node5 -->
<g id="edge22" class="edge">
<title>Node22&#45;&gt;Node5</title>
<path fill="none" stroke="midnightblue" d="M937.86,-70.32C888.89,-57.49 809.62,-36.71 765.25,-25.08"/>
<polygon fill="midnightblue" stroke="midnightblue" points="937.26,-73.79 947.82,-72.94 939.04,-67.01 937.26,-73.79"/>
</g>
<!-- Node22&#45;&gt;Node9 -->
<g id="edge23" class="edge">
<title>Node22&#45;&gt;Node9</title>
<path fill="none" stroke="midnightblue" d="M909.46,-71.51C819.02,-58.78 664.3,-37.01 579.14,-25.03"/>
<polygon fill="midnightblue" stroke="midnightblue" points="909.24,-75.01 919.63,-72.94 910.21,-68.08 909.24,-75.01"/>
</g>
<!-- Node22&#45;&gt;Node23 -->
<g id="edge24" class="edge">
<title>Node22&#45;&gt;Node23</title>
<path fill="none" stroke="midnightblue" d="M973.22,-63.29C968.22,-50.81 961.83,-34.81 957.95,-25.13"/>
<polygon fill="midnightblue" stroke="midnightblue" points="970.03,-64.75 976.99,-72.73 976.53,-62.15 970.03,-64.75"/>
</g>
<!-- Node22&#45;&gt;Node24 -->
<g id="edge25" class="edge">
<title>Node22&#45;&gt;Node24</title>
<path fill="none" stroke="midnightblue" d="M1041.24,-71.27C1116.99,-58.52 1245.11,-36.94 1315.83,-25.03"/>
<polygon fill="midnightblue" stroke="midnightblue" points="1040.64,-67.82 1031.36,-72.94 1041.8,-74.73 1040.64,-67.82"/>
</g>
<!-- Node22&#45;&gt;Node25 -->
<g id="edge26" class="edge">
<title>Node22&#45;&gt;Node25</title>
<path fill="none" stroke="midnightblue" d="M1014.34,-69.35C1045.02,-58.33 1090.23,-42.09 1122.44,-30.53"/>
<polygon fill="midnightblue" stroke="midnightblue" points="1012.76,-66.19 1004.54,-72.87 1015.13,-72.78 1012.76,-66.19"/>
</g>
<!-- Node28&#45;&gt;Node5 -->
<g id="edge30" class="edge">
<title>Node28&#45;&gt;Node5</title>
<path fill="none" stroke="midnightblue" d="M787.93,-65.86C773.58,-53.08 753.83,-35.49 742.19,-25.13"/>
<polygon fill="midnightblue" stroke="midnightblue" points="785.86,-68.7 795.65,-72.73 790.51,-63.47 785.86,-68.7"/>
</g>
<!-- Node28&#45;&gt;Node8 -->
<g id="edge31" class="edge">
<title>Node28&#45;&gt;Node8</title>
<path fill="none" stroke="midnightblue" d="M749.98,-75.58C673.38,-67.14 531.09,-50.5 410.5,-31 399.77,-29.27 388.22,-27.13 377.51,-25.04"/>
<polygon fill="midnightblue" stroke="midnightblue" points="750.02,-79.1 760.34,-76.71 750.78,-72.14 750.02,-79.1"/>
</g>
<!-- Node28&#45;&gt;Node9 -->
<g id="edge32" class="edge">
<title>Node28&#45;&gt;Node9</title>
<path fill="none" stroke="midnightblue" d="M757.92,-70.72C701.4,-57.92 608.28,-36.83 556.4,-25.08"/>
<polygon fill="midnightblue" stroke="midnightblue" points="757.16,-74.14 767.68,-72.94 758.7,-67.31 757.16,-74.14"/>
</g>
<!-- Node28&#45;&gt;Node23 -->
<g id="edge33" class="edge">
<title>Node28&#45;&gt;Node23</title>
<path fill="none" stroke="midnightblue" d="M834.66,-68.78C864.16,-55.91 908.99,-36.35 934.63,-25.17"/>
<polygon fill="midnightblue" stroke="midnightblue" points="833.05,-65.66 825.29,-72.87 835.85,-72.08 833.05,-65.66"/>
</g>
<!-- Node28&#45;&gt;Node24 -->
<g id="edge34" class="edge">
<title>Node28&#45;&gt;Node24</title>
<path fill="none" stroke="midnightblue" d="M860.78,-72.28C872.87,-70.41 885.6,-68.54 897.5,-67 1054.78,-46.65 1094.94,-49.01 1252.5,-31 1268.46,-29.18 1285.65,-27.07 1301.73,-25.03"/>
<polygon fill="midnightblue" stroke="midnightblue" points="860.15,-68.84 850.82,-73.85 861.24,-75.75 860.15,-68.84"/>
</g>
<!-- Node28&#45;&gt;Node25 -->
<g id="edge35" class="edge">
<title>Node28&#45;&gt;Node25</title>
<path fill="none" stroke="midnightblue" d="M860.63,-71.43C920.69,-60.47 1017.2,-42.85 1084.67,-30.53"/>
<polygon fill="midnightblue" stroke="midnightblue" points="859.8,-68.03 850.59,-73.27 861.05,-74.91 859.8,-68.03"/>
</g>
<!-- Node63&#45;&gt;Node26 -->
<g id="edge38" class="edge">
<title>Node63&#45;&gt;Node26</title>
<path fill="none" stroke="midnightblue" d="M3959.5,-62.54C3959.5,-50.17 3959.5,-34.62 3959.5,-25.13"/>
<polygon fill="midnightblue" stroke="midnightblue" points="3956,-62.73 3959.5,-72.73 3963,-62.73 3956,-62.73"/>
</g>
<!-- Node79&#45;&gt;Node26 -->
<g id="edge62" class="edge">
<title>Node79&#45;&gt;Node26</title>
<path fill="none" stroke="midnightblue" d="M4039.17,-67.27C4018.98,-54.4 3989.91,-35.88 3973.04,-25.13"/>
<polygon fill="midnightblue" stroke="midnightblue" points="4037.43,-70.31 4047.74,-72.73 4041.19,-64.41 4037.43,-70.31"/>
</g>
</g>
</svg>
