<?xml version="1.0" encoding="UTF-8" standalone="no"?>
<!DOCTYPE svg PUBLIC "-//W3C//DTD SVG 1.1//EN"
 "http://www.w3.org/Graphics/SVG/1.1/DTD/svg11.dtd">
<!-- Generated by graphviz version 5.0.1 (0)
 -->
<!-- Title: MathFunctions.hpp Pages: 1 -->
<svg width="7591pt" height="159pt"
 viewBox="0.00 0.00 7590.50 159.00" xmlns="http://www.w3.org/2000/svg" xmlns:xlink="http://www.w3.org/1999/xlink">
<g id="graph0" class="graph" transform="scale(1 1) rotate(0) translate(4 155)">
<title>MathFunctions.hpp</title>
<!-- Node1 -->
<g id="node1" class="node">
<title>Node1</title>
<g id="a_node1"><a xlink:title=" ">
<polygon fill="#999999" stroke="#666666" points="3803,-151 3694,-151 3694,-132 3803,-132 3803,-151"/>
<text text-anchor="middle" x="3748.5" y="-139" font-family="Helvetica,sans-Serif" font-size="10.00">MathFunctions.hpp</text>
</a>
</g>
</g>
<!-- Node2 -->
<g id="node2" class="node">
<title>Node2</title>
<g id="a_node2"><a xlink:href="CcsdDiagrammaticDecomposition_8cxx.html" target="_top" xlink:title=" ">
<polygon fill="white" stroke="#666666" points="203,-90.5 0,-90.5 0,-71.5 203,-71.5 203,-90.5"/>
<text text-anchor="middle" x="101.5" y="-78.5" font-family="Helvetica,sans-Serif" font-size="10.00">CcsdDiagrammaticDecomposition.cxx</text>
</a>
</g>
</g>
<!-- Node1&#45;&gt;Node2 -->
<g id="edge1" class="edge">
<title>Node1&#45;&gt;Node2</title>
<path fill="none" stroke="#63b8ff" d="M3683.86,-140.7C3264.5,-141.81 924.41,-145.69 211.5,-96 194.22,-94.8 175.49,-92.71 158.47,-90.51"/>
<polygon fill="#63b8ff" stroke="#63b8ff" points="3684,-144.2 3693.99,-140.67 3683.98,-137.2 3684,-144.2"/>
</g>
<!-- Node3 -->
<g id="node3" class="node">
<title>Node3</title>
<g id="a_node3"><a xlink:href="CcsdEnergyFromCoulombIntegrals_8cxx.html" target="_top" xlink:title=" ">
<polygon fill="white" stroke="#666666" points="426,-90.5 221,-90.5 221,-71.5 426,-71.5 426,-90.5"/>
<text text-anchor="middle" x="323.5" y="-78.5" font-family="Helvetica,sans-Serif" font-size="10.00">CcsdEnergyFromCoulombIntegrals.cxx</text>
</a>
</g>
</g>
<!-- Node1&#45;&gt;Node3 -->
<g id="edge2" class="edge">
<title>Node1&#45;&gt;Node3</title>
<path fill="none" stroke="#63b8ff" d="M3683.82,-140.62C3279.94,-141.23 1100.18,-142.3 434.5,-96 417.16,-94.79 398.37,-92.72 381.28,-90.53"/>
<polygon fill="#63b8ff" stroke="#63b8ff" points="3683.87,-144.12 3693.86,-140.61 3683.86,-137.12 3683.87,-144.12"/>
</g>
<!-- Node4 -->
<g id="node4" class="node">
<title>Node4</title>
<g id="a_node4"><a xlink:href="CcsdEnergyFromCoulombIntegralsReference_8cxx.html" target="_top" xlink:title=" ">
<polygon fill="white" stroke="#666666" points="629,-96 444,-96 444,-66 629,-66 629,-96"/>
<text text-anchor="start" x="452" y="-84" font-family="Helvetica,sans-Serif" font-size="10.00">CcsdEnergyFromCoulombIntegrals</text>
<text text-anchor="middle" x="536.5" y="-73" font-family="Helvetica,sans-Serif" font-size="10.00">Reference.cxx</text>
</a>
</g>
</g>
<!-- Node1&#45;&gt;Node4 -->
<g id="edge3" class="edge">
<title>Node1&#45;&gt;Node4</title>
<path fill="none" stroke="#63b8ff" d="M3683.61,-140.61C3294.24,-141.08 1263.95,-141.33 642.5,-96 638.15,-95.68 633.7,-95.31 629.22,-94.88"/>
<polygon fill="#63b8ff" stroke="#63b8ff" points="3683.85,-144.11 3693.84,-140.59 3683.84,-137.11 3683.85,-144.11"/>
</g>
<!-- Node5 -->
<g id="node5" class="node">
<title>Node5</title>
<g id="a_node5"><a xlink:href="CcsdEquationOfMotionDavidson_8cxx.html" target="_top" xlink:title=" ">
<polygon fill="white" stroke="#666666" points="829.5,-24.5 635.5,-24.5 635.5,-5.5 829.5,-5.5 829.5,-24.5"/>
<text text-anchor="middle" x="732.5" y="-12.5" font-family="Helvetica,sans-Serif" font-size="10.00">CcsdEquationOfMotionDavidson.cxx</text>
</a>
</g>
</g>
<!-- Node1&#45;&gt;Node5 -->
<g id="edge4" class="edge">
<title>Node1&#45;&gt;Node5</title>
<path fill="none" stroke="#63b8ff" d="M3683.69,-140.63C3252.2,-141.38 810.69,-143.5 751.5,-96 729.9,-78.67 730.13,-41.66 731.5,-24.75"/>
<polygon fill="#63b8ff" stroke="#63b8ff" points="3683.8,-144.13 3693.8,-140.61 3683.79,-137.13 3683.8,-144.13"/>
</g>
<!-- Node6 -->
<g id="node6" class="node">
<title>Node6</title>
<g id="a_node6"><a xlink:href="CcsdPerturbativeTriples_8cxx.html" target="_top" xlink:title=" ">
<polygon fill="white" stroke="#666666" points="1300.5,-90.5 1148.5,-90.5 1148.5,-71.5 1300.5,-71.5 1300.5,-90.5"/>
<text text-anchor="middle" x="1224.5" y="-78.5" font-family="Helvetica,sans-Serif" font-size="10.00">CcsdPerturbativeTriples.cxx</text>
</a>
</g>
</g>
<!-- Node1&#45;&gt;Node6 -->
<g id="edge5" class="edge">
<title>Node1&#45;&gt;Node6</title>
<path fill="none" stroke="#63b8ff" d="M3683.84,-140.59C3346.96,-140.87 1789.95,-139.72 1309.5,-96 1296.24,-94.79 1281.93,-92.73 1268.9,-90.56"/>
<polygon fill="#63b8ff" stroke="#63b8ff" points="3683.92,-144.09 3693.92,-140.58 3683.91,-137.09 3683.92,-144.09"/>
</g>
<!-- Node7 -->
<g id="node7" class="node">
<title>Node7</title>
<g id="a_node7"><a xlink:href="CcsdPerturbativeTriplesComplex_8cxx.html" target="_top" xlink:title=" ">
<polygon fill="white" stroke="#666666" points="1514,-90.5 1319,-90.5 1319,-71.5 1514,-71.5 1514,-90.5"/>
<text text-anchor="middle" x="1416.5" y="-78.5" font-family="Helvetica,sans-Serif" font-size="10.00">CcsdPerturbativeTriplesComplex.cxx</text>
</a>
</g>
</g>
<!-- Node1&#45;&gt;Node7 -->
<g id="edge6" class="edge">
<title>Node1&#45;&gt;Node7</title>
<path fill="none" stroke="#63b8ff" d="M3683.67,-140.18C3364.6,-138.45 1958.84,-129.07 1522.5,-96 1506.03,-94.75 1488.2,-92.68 1471.94,-90.51"/>
<polygon fill="#63b8ff" stroke="#63b8ff" points="3683.66,-143.68 3693.68,-140.23 3683.7,-136.68 3683.66,-143.68"/>
</g>
<!-- Node8 -->
<g id="node8" class="node">
<title>Node8</title>
<g id="a_node8"><a xlink:href="CcsdPreconditioner_8cxx.html" target="_top" xlink:title=" ">
<polygon fill="white" stroke="#666666" points="401.5,-24.5 271.5,-24.5 271.5,-5.5 401.5,-5.5 401.5,-24.5"/>
<text text-anchor="middle" x="336.5" y="-12.5" font-family="Helvetica,sans-Serif" font-size="10.00">CcsdPreconditioner.cxx</text>
</a>
</g>
</g>
<!-- Node1&#45;&gt;Node8 -->
<g id="edge7" class="edge">
<title>Node1&#45;&gt;Node8</title>
<path fill="none" stroke="#63b8ff" d="M3683.61,-140.2C3246.17,-138.07 743.07,-124.66 670.5,-96 652.06,-88.72 655.37,-74.58 637.5,-66 545.41,-21.79 511.14,-47.5 410.5,-30 400.71,-28.3 390.21,-26.37 380.29,-24.51"/>
<polygon fill="#63b8ff" stroke="#63b8ff" points="3683.84,-143.7 3693.86,-140.25 3683.87,-136.7 3683.84,-143.7"/>
</g>
<!-- Node9 -->
<g id="node9" class="node">
<title>Node9</title>
<g id="a_node9"><a xlink:href="CcsdtEquationOfMotionDavidson_8cxx.html" target="_top" xlink:title=" ">
<polygon fill="white" stroke="#666666" points="617,-24.5 420,-24.5 420,-5.5 617,-5.5 617,-24.5"/>
<text text-anchor="middle" x="518.5" y="-12.5" font-family="Helvetica,sans-Serif" font-size="10.00">CcsdtEquationOfMotionDavidson.cxx</text>
</a>
</g>
</g>
<!-- Node1&#45;&gt;Node9 -->
<g id="edge8" class="edge">
<title>Node1&#45;&gt;Node9</title>
<path fill="none" stroke="#63b8ff" d="M3683.66,-140.36C3258.21,-139.36 878.81,-132.17 730.5,-96 701.53,-88.94 698.07,-77.35 670.5,-66 629.15,-48.97 579.69,-33.58 548.68,-24.51"/>
<polygon fill="#63b8ff" stroke="#63b8ff" points="3683.92,-143.86 3693.93,-140.39 3683.93,-136.86 3683.92,-143.86"/>
</g>
<!-- Node10 -->
<g id="node10" class="node">
<title>Node10</title>
<g id="a_node10"><a xlink:href="ClusterSinglesDoublesAlgorithm_8cxx.html" target="_top" xlink:title=" ">
<polygon fill="white" stroke="#666666" points="1725.5,-90.5 1531.5,-90.5 1531.5,-71.5 1725.5,-71.5 1725.5,-90.5"/>
<text text-anchor="middle" x="1628.5" y="-78.5" font-family="Helvetica,sans-Serif" font-size="10.00">ClusterSinglesDoublesAlgorithm.cxx</text>
</a>
</g>
</g>
<!-- Node1&#45;&gt;Node10 -->
<g id="edge9" class="edge">
<title>Node1&#45;&gt;Node10</title>
<path fill="none" stroke="#63b8ff" d="M3683.65,-140.02C3383.42,-137.66 2126.51,-126.13 1734.5,-96 1718.12,-94.74 1700.4,-92.68 1684.22,-90.52"/>
<polygon fill="#63b8ff" stroke="#63b8ff" points="3683.89,-143.52 3693.92,-140.1 3683.95,-136.52 3683.89,-143.52"/>
</g>
<!-- Node11 -->
<g id="node11" class="node">
<title>Node11</title>
<g id="a_node11"><a xlink:href="ClusterSinglesDoublesTriplesAlgorithm_8cxx.html" target="_top" xlink:title=" ">
<polygon fill="white" stroke="#666666" points="1901.5,-96 1743.5,-96 1743.5,-66 1901.5,-66 1901.5,-96"/>
<text text-anchor="start" x="1751.5" y="-84" font-family="Helvetica,sans-Serif" font-size="10.00">ClusterSinglesDoublesTriples</text>
<text text-anchor="middle" x="1822.5" y="-73" font-family="Helvetica,sans-Serif" font-size="10.00">Algorithm.cxx</text>
</a>
</g>
</g>
<!-- Node1&#45;&gt;Node11 -->
<g id="edge10" class="edge">
<title>Node1&#45;&gt;Node11</title>
<path fill="none" stroke="#63b8ff" d="M3683.81,-140.09C3400.26,-138.14 2265.51,-128.39 1910.5,-96 1907.57,-95.73 1904.6,-95.43 1901.59,-95.09"/>
<polygon fill="#63b8ff" stroke="#63b8ff" points="3683.91,-143.59 3693.93,-140.16 3683.96,-136.59 3683.91,-143.59"/>
</g>
<!-- Node12 -->
<g id="node12" class="node">
<title>Node12</title>
<g id="a_node12"><a xlink:href="ClusterSinglesDoublesTriplesQuadruplesAlgorithm_8cxx.html" target="_top" xlink:title=" ">
<polygon fill="white" stroke="#666666" points="2077.5,-96 1919.5,-96 1919.5,-66 2077.5,-66 2077.5,-96"/>
<text text-anchor="start" x="1927.5" y="-84" font-family="Helvetica,sans-Serif" font-size="10.00">ClusterSinglesDoublesTriples</text>
<text text-anchor="middle" x="1998.5" y="-73" font-family="Helvetica,sans-Serif" font-size="10.00">QuadruplesAlgorithm.cxx</text>
</a>
</g>
</g>
<!-- Node1&#45;&gt;Node12 -->
<g id="edge11" class="edge">
<title>Node1&#45;&gt;Node12</title>
<path fill="none" stroke="#63b8ff" d="M3683.57,-139.9C3416.89,-137.26 2404.87,-125.46 2086.5,-96 2083.57,-95.73 2080.6,-95.42 2077.59,-95.08"/>
<polygon fill="#63b8ff" stroke="#63b8ff" points="3683.82,-143.4 3693.86,-140 3683.89,-136.4 3683.82,-143.4"/>
</g>
<!-- Node13 -->
<g id="node13" class="node">
<title>Node13</title>
<g id="a_node13"><a xlink:href="ComplexTensorNorm_8cxx.html" target="_top" xlink:title=" ">
<polygon fill="white" stroke="#666666" points="2235,-90.5 2096,-90.5 2096,-71.5 2235,-71.5 2235,-90.5"/>
<text text-anchor="middle" x="2165.5" y="-78.5" font-family="Helvetica,sans-Serif" font-size="10.00">ComplexTensorNorm.cxx</text>
</a>
</g>
</g>
<!-- Node1&#45;&gt;Node13 -->
<g id="edge12" class="edge">
<title>Node1&#45;&gt;Node13</title>
<path fill="none" stroke="#63b8ff" d="M3683.97,-139.86C3434,-137.21 2529.27,-125.71 2243.5,-96 2231.46,-94.75 2218.48,-92.7 2206.63,-90.56"/>
<polygon fill="#63b8ff" stroke="#63b8ff" points="3683.94,-143.36 3693.98,-139.97 3684.02,-136.37 3683.94,-143.36"/>
</g>
<!-- Node14 -->
<g id="node14" class="node">
<title>Node14</title>
<g id="a_node14"><a xlink:href="CoulombIntegralsFromGaussian_8cxx.html" target="_top" xlink:title=" ">
<polygon fill="white" stroke="#666666" points="2446,-90.5 2253,-90.5 2253,-71.5 2446,-71.5 2446,-90.5"/>
<text text-anchor="middle" x="2349.5" y="-78.5" font-family="Helvetica,sans-Serif" font-size="10.00">CoulombIntegralsFromGaussian.cxx</text>
</a>
</g>
</g>
<!-- Node1&#45;&gt;Node14 -->
<g id="edge13" class="edge">
<title>Node1&#45;&gt;Node14</title>
<path fill="none" stroke="#63b8ff" d="M3683.82,-140.49C3494.57,-139.97 2925.59,-135.04 2455.5,-96 2439.41,-94.66 2422.01,-92.62 2406.05,-90.5"/>
<polygon fill="#63b8ff" stroke="#63b8ff" points="3683.87,-143.99 3693.88,-140.51 3683.89,-136.99 3683.87,-143.99"/>
</g>
<!-- Node15 -->
<g id="node15" class="node">
<title>Node15</title>
<g id="a_node15"><a xlink:href="CoulombIntegralsFromRotatedCoulombIntegrals_8cxx.html" target="_top" xlink:title=" ">
<polygon fill="white" stroke="#666666" points="2630.5,-96 2464.5,-96 2464.5,-66 2630.5,-66 2630.5,-96"/>
<text text-anchor="start" x="2472.5" y="-84" font-family="Helvetica,sans-Serif" font-size="10.00">CoulombIntegralsFromRotated</text>
<text text-anchor="middle" x="2547.5" y="-73" font-family="Helvetica,sans-Serif" font-size="10.00">CoulombIntegrals.cxx</text>
</a>
</g>
</g>
<!-- Node1&#45;&gt;Node15 -->
<g id="edge14" class="edge">
<title>Node1&#45;&gt;Node15</title>
<path fill="none" stroke="#63b8ff" d="M3683.74,-140.41C3512.71,-139.62 3034.94,-133.9 2639.5,-96 2636.61,-95.72 2633.66,-95.41 2630.69,-95.08"/>
<polygon fill="#63b8ff" stroke="#63b8ff" points="3683.82,-143.91 3693.83,-140.45 3683.85,-136.91 3683.82,-143.91"/>
</g>
<!-- Node16 -->
<g id="node16" class="node">
<title>Node16</title>
<g id="a_node16"><a xlink:href="CoulombIntegralsFromVertex_8cxx.html" target="_top" xlink:title=" ">
<polygon fill="white" stroke="#666666" points="2828,-90.5 2649,-90.5 2649,-71.5 2828,-71.5 2828,-90.5"/>
<text text-anchor="middle" x="2738.5" y="-78.5" font-family="Helvetica,sans-Serif" font-size="10.00">CoulombIntegralsFromVertex.cxx</text>
</a>
</g>
</g>
<!-- Node1&#45;&gt;Node16 -->
<g id="edge15" class="edge">
<title>Node1&#45;&gt;Node16</title>
<path fill="none" stroke="#63b8ff" d="M3683.52,-139.41C3533.81,-136.43 3153.18,-126.28 2836.5,-96 2821.96,-94.61 2806.27,-92.6 2791.8,-90.53"/>
<polygon fill="#63b8ff" stroke="#63b8ff" points="3683.82,-142.91 3693.89,-139.61 3683.96,-135.91 3683.82,-142.91"/>
</g>
<!-- Node17 -->
<g id="node17" class="node">
<title>Node17</title>
<g id="a_node17"><a xlink:href="CoulombVertexDecomposition_8cxx.html" target="_top" xlink:title=" ">
<polygon fill="white" stroke="#666666" points="3031,-90.5 2846,-90.5 2846,-71.5 3031,-71.5 3031,-90.5"/>
<text text-anchor="middle" x="2938.5" y="-78.5" font-family="Helvetica,sans-Serif" font-size="10.00">CoulombVertexDecomposition.cxx</text>
</a>
</g>
</g>
<!-- Node1&#45;&gt;Node17 -->
<g id="edge16" class="edge">
<title>Node1&#45;&gt;Node17</title>
<path fill="none" stroke="#63b8ff" d="M3683.61,-138.02C3558.82,-132.9 3276.81,-119.61 3040.5,-96 3025.74,-94.53 3009.83,-92.53 2995.06,-90.52"/>
<polygon fill="#63b8ff" stroke="#63b8ff" points="3683.62,-141.52 3693.76,-138.43 3683.91,-134.53 3683.62,-141.52"/>
</g>
<!-- Node18 -->
<g id="node18" class="node">
<title>Node18</title>
<g id="a_node18"><a xlink:href="CoulombVertexReader_8cxx.html" target="_top" xlink:title=" ">
<polygon fill="white" stroke="#666666" points="3195.5,-90.5 3049.5,-90.5 3049.5,-71.5 3195.5,-71.5 3195.5,-90.5"/>
<text text-anchor="middle" x="3122.5" y="-78.5" font-family="Helvetica,sans-Serif" font-size="10.00">CoulombVertexReader.cxx</text>
</a>
</g>
</g>
<!-- Node1&#45;&gt;Node18 -->
<g id="edge17" class="edge">
<title>Node1&#45;&gt;Node18</title>
<path fill="none" stroke="#63b8ff" d="M3683.75,-137.04C3581.61,-131.17 3376.97,-117.74 3204.5,-96 3192.75,-94.52 3180.11,-92.55 3168.37,-90.56"/>
<polygon fill="#63b8ff" stroke="#63b8ff" points="3683.72,-140.54 3693.9,-137.62 3684.12,-133.56 3683.72,-140.54"/>
</g>
<!-- Node19 -->
<g id="node19" class="node">
<title>Node19</title>
<g id="a_node19"><a xlink:href="CoulombVertexSingularVectors_8cxx.html" target="_top" xlink:title=" ">
<polygon fill="white" stroke="#666666" points="3401.5,-90.5 3213.5,-90.5 3213.5,-71.5 3401.5,-71.5 3401.5,-90.5"/>
<text text-anchor="middle" x="3307.5" y="-78.5" font-family="Helvetica,sans-Serif" font-size="10.00">CoulombVertexSingularVectors.cxx</text>
</a>
</g>
</g>
<!-- Node1&#45;&gt;Node19 -->
<g id="edge18" class="edge">
<title>Node1&#45;&gt;Node19</title>
<path fill="none" stroke="#63b8ff" d="M3683.61,-132.04C3615.56,-123.15 3505.5,-108.71 3410.5,-96 3397.35,-94.24 3383.26,-92.34 3369.86,-90.52"/>
<polygon fill="#63b8ff" stroke="#63b8ff" points="3683.38,-135.54 3693.75,-133.36 3684.29,-128.6 3683.38,-135.54"/>
</g>
<!-- Node20 -->
<g id="node20" class="node">
<title>Node20</title>
<g id="a_node20"><a xlink:href="DoublesAmplitudesDecomposition_8cxx.html" target="_top" xlink:title=" ">
<polygon fill="white" stroke="#666666" points="3625.5,-90.5 3419.5,-90.5 3419.5,-71.5 3625.5,-71.5 3625.5,-90.5"/>
<text text-anchor="middle" x="3522.5" y="-78.5" font-family="Helvetica,sans-Serif" font-size="10.00">DoublesAmplitudesDecomposition.cxx</text>
</a>
</g>
</g>
<!-- Node1&#45;&gt;Node20 -->
<g id="edge19" class="edge">
<title>Node1&#45;&gt;Node20</title>
<path fill="none" stroke="#63b8ff" d="M3705.88,-129.47C3662.18,-118.16 3595.17,-100.81 3555.4,-90.52"/>
<polygon fill="#63b8ff" stroke="#63b8ff" points="3705.08,-132.88 3715.64,-131.99 3706.83,-126.1 3705.08,-132.88"/>
</g>
<!-- Node21 -->
<g id="node21" class="node">
<title>Node21</title>
<g id="a_node21"><a xlink:href="DrccdEnergyFromCoulombIntegrals_8cxx.html" target="_top" xlink:title=" ">
<polygon fill="white" stroke="#666666" points="3853,-90.5 3644,-90.5 3644,-71.5 3853,-71.5 3853,-90.5"/>
<text text-anchor="middle" x="3748.5" y="-78.5" font-family="Helvetica,sans-Serif" font-size="10.00">DrccdEnergyFromCoulombIntegrals.cxx</text>
</a>
</g>
</g>
<!-- Node1&#45;&gt;Node21 -->
<g id="edge20" class="edge">
<title>Node1&#45;&gt;Node21</title>
<path fill="none" stroke="#63b8ff" d="M3748.5,-121.66C3748.5,-111.24 3748.5,-98.8 3748.5,-90.67"/>
<polygon fill="#63b8ff" stroke="#63b8ff" points="3745,-121.87 3748.5,-131.87 3752,-121.87 3745,-121.87"/>
</g>
<!-- Node22 -->
<g id="node22" class="node">
<title>Node22</title>
<g id="a_node22"><a xlink:href="EigenSystemDavidson_8hpp.html" target="_top" xlink:title=" ">
<polygon fill="white" stroke="#666666" points="1054,-90.5 907,-90.5 907,-71.5 1054,-71.5 1054,-90.5"/>
<text text-anchor="middle" x="980.5" y="-78.5" font-family="Helvetica,sans-Serif" font-size="10.00">EigenSystemDavidson.hpp</text>
</a>
</g>
</g>
<!-- Node1&#45;&gt;Node22 -->
<g id="edge21" class="edge">
<title>Node1&#45;&gt;Node22</title>
<path fill="none" stroke="#63b8ff" d="M3683.61,-140.67C3326.7,-141.39 1599.56,-142.42 1068.5,-96 1054.78,-94.8 1039.97,-92.74 1026.48,-90.57"/>
<polygon fill="#63b8ff" stroke="#63b8ff" points="3683.77,-144.17 3693.76,-140.65 3683.76,-137.17 3683.77,-144.17"/>
</g>
<!-- Node23 -->
<g id="node23" class="node">
<title>Node23</title>
<g id="a_node23"><a xlink:href="UCcsdEAEquationOfMotionDavidson_8cxx.html" target="_top" xlink:title=" ">
<polygon fill="white" stroke="#666666" points="1061.5,-24.5 847.5,-24.5 847.5,-5.5 1061.5,-5.5 1061.5,-24.5"/>
<text text-anchor="middle" x="954.5" y="-12.5" font-family="Helvetica,sans-Serif" font-size="10.00">UCcsdEAEquationOfMotionDavidson.cxx</text>
</a>
</g>
</g>
<!-- Node1&#45;&gt;Node23 -->
<g id="edge53" class="edge">
<title>Node1&#45;&gt;Node23</title>
<path fill="none" stroke="#63b8ff" d="M3683.8,-140.11C3262.27,-137.47 922.78,-121.68 897.5,-96 874.77,-72.91 917.18,-40.03 940.55,-24.61"/>
<polygon fill="#63b8ff" stroke="#63b8ff" points="3683.96,-143.61 3693.98,-140.17 3684.01,-136.61 3683.96,-143.61"/>
</g>
<!-- Node24 -->
<g id="node24" class="node">
<title>Node24</title>
<g id="a_node24"><a xlink:href="UCcsdIPEquationOfMotionDavidson_8cxx.html" target="_top" xlink:title=" ">
<polygon fill="white" stroke="#666666" points="1471.5,-24.5 1261.5,-24.5 1261.5,-5.5 1471.5,-5.5 1471.5,-24.5"/>
<text text-anchor="middle" x="1366.5" y="-12.5" font-family="Helvetica,sans-Serif" font-size="10.00">UCcsdIPEquationOfMotionDavidson.cxx</text>
</a>
</g>
</g>
<!-- Node1&#45;&gt;Node24 -->
<g id="edge54" class="edge">
<title>Node1&#45;&gt;Node24</title>
<path fill="none" stroke="#63b8ff" d="M3683.66,-140.64C3285.36,-141.33 1185.49,-142.78 1139.5,-96 1130.15,-86.49 1131.15,-76.39 1139.5,-66 1150.28,-52.59 1247.39,-34.87 1311.06,-24.52"/>
<polygon fill="#63b8ff" stroke="#63b8ff" points="3683.86,-144.14 3693.85,-140.62 3683.85,-137.14 3683.86,-144.14"/>
</g>
<!-- Node25 -->
<g id="node25" class="node">
<title>Node25</title>
<g id="a_node25"><a xlink:href="UnrestrictedEquationOfMotionSinglesFromRpa_8cxx.html" target="_top" xlink:title=" ">
<polygon fill="white" stroke="#666666" points="1243.5,-30 1079.5,-30 1079.5,0 1243.5,0 1243.5,-30"/>
<text text-anchor="start" x="1087.5" y="-18" font-family="Helvetica,sans-Serif" font-size="10.00">UnrestrictedEquationOfMotion</text>
<text text-anchor="middle" x="1161.5" y="-7" font-family="Helvetica,sans-Serif" font-size="10.00">SinglesFromRpa.cxx</text>
</a>
</g>
</g>
<!-- Node1&#45;&gt;Node25 -->
<g id="edge59" class="edge">
<title>Node1&#45;&gt;Node25</title>
<path fill="none" stroke="#63b8ff" d="M3683.73,-140.64C3284.71,-141.37 1175.68,-142.97 1129.5,-96 1111.46,-77.65 1132.11,-47.85 1147.6,-30.26"/>
<polygon fill="#63b8ff" stroke="#63b8ff" points="3683.95,-144.14 3693.94,-140.62 3683.93,-137.14 3683.95,-144.14"/>
</g>
<!-- Node26 -->
<g id="node26" class="node">
<title>Node26</title>
<g id="a_node26"><a xlink:href="FiniteSizeCorrection_8cxx.html" target="_top" xlink:title=" ">
<polygon fill="white" stroke="#666666" points="4026.5,-24.5 3892.5,-24.5 3892.5,-5.5 4026.5,-5.5 4026.5,-24.5"/>
<text text-anchor="middle" x="3959.5" y="-12.5" font-family="Helvetica,sans-Serif" font-size="10.00">FiniteSizeCorrection.cxx</text>
</a>
</g>
</g>
<!-- Node1&#45;&gt;Node26 -->
<g id="edge27" class="edge">
<title>Node1&#45;&gt;Node26</title>
<path fill="none" stroke="#63b8ff" d="M3786.6,-128.8C3809.17,-121.08 3837.89,-109.83 3861.5,-96 3871.02,-90.42 3926.01,-44.29 3949.19,-24.72"/>
<polygon fill="#63b8ff" stroke="#63b8ff" points="3785.39,-125.51 3777.01,-132 3787.61,-132.15 3785.39,-125.51"/>
</g>
<!-- Node27 -->
<g id="node27" class="node">
<title>Node27</title>
<g id="a_node27"><a xlink:href="FockMatrixFromCoulombIntegrals_8cxx.html" target="_top" xlink:title=" ">
<polygon fill="white" stroke="#666666" points="4315.5,-90.5 4113.5,-90.5 4113.5,-71.5 4315.5,-71.5 4315.5,-90.5"/>
<text text-anchor="middle" x="4214.5" y="-78.5" font-family="Helvetica,sans-Serif" font-size="10.00">FockMatrixFromCoulombIntegrals.cxx</text>
</a>
</g>
</g>
<!-- Node1&#45;&gt;Node27 -->
<g id="edge28" class="edge">
<title>Node1&#45;&gt;Node27</title>
<path fill="none" stroke="#63b8ff" d="M3813.27,-132.45C3884.62,-123.57 4002.75,-108.83 4104.5,-96 4118.54,-94.23 4133.58,-92.32 4147.9,-90.5"/>
<polygon fill="#63b8ff" stroke="#63b8ff" points="3812.58,-129.01 3803.09,-133.71 3813.44,-135.95 3812.58,-129.01"/>
</g>
<!-- Node28 -->
<g id="node28" class="node">
<title>Node28</title>
<g id="a_node28"><a xlink:href="FockVector_8hpp.html" target="_top" xlink:title=" ">
<polygon fill="#fff0f0" stroke="red" points="850.5,-90.5 760.5,-90.5 760.5,-71.5 850.5,-71.5 850.5,-90.5"/>
<text text-anchor="middle" x="805.5" y="-78.5" font-family="Helvetica,sans-Serif" font-size="10.00">FockVector.hpp</text>
</a>
</g>
</g>
<!-- Node1&#45;&gt;Node28 -->
<g id="edge29" class="edge">
<title>Node1&#45;&gt;Node28</title>
<path fill="none" stroke="#63b8ff" d="M3683.56,-140.35C3282.68,-139.28 1152.4,-131.94 864.5,-96 855.1,-94.83 845.01,-92.75 835.89,-90.54"/>
<polygon fill="#63b8ff" stroke="#63b8ff" points="3683.8,-143.85 3693.81,-140.37 3683.82,-136.85 3683.8,-143.85"/>
</g>
<!-- Node62 -->
<g id="node29" class="node">
<title>Node62</title>
<g id="a_node29"><a xlink:href="Integration_8hpp.html" target="_top" xlink:title=" ">
<polygon fill="white" stroke="#666666" points="4425,-90.5 4334,-90.5 4334,-71.5 4425,-71.5 4425,-90.5"/>
<text text-anchor="middle" x="4379.5" y="-78.5" font-family="Helvetica,sans-Serif" font-size="10.00">Integration.hpp</text>
</a>
</g>
</g>
<!-- Node1&#45;&gt;Node62 -->
<g id="edge36" class="edge">
<title>Node1&#45;&gt;Node62</title>
<path fill="none" stroke="#63b8ff" d="M3813.28,-139.12C3920.34,-136.04 4140.66,-126.27 4324.5,-96 4332.86,-94.62 4341.81,-92.59 4350.01,-90.5"/>
<polygon fill="#63b8ff" stroke="#63b8ff" points="3813.17,-135.63 3803.27,-139.4 3813.37,-142.62 3813.17,-135.63"/>
</g>
<!-- Node63 -->
<g id="node30" class="node">
<title>Node63</title>
<g id="a_node30"><a xlink:href="Interpolation_8hpp.html" target="_top" xlink:title=" ">
<polygon fill="#fff0f0" stroke="red" points="4009.5,-90.5 3909.5,-90.5 3909.5,-71.5 4009.5,-71.5 4009.5,-90.5"/>
<text text-anchor="middle" x="3959.5" y="-78.5" font-family="Helvetica,sans-Serif" font-size="10.00">Interpolation.hpp</text>
</a>
</g>
</g>
<!-- Node1&#45;&gt;Node63 -->
<g id="edge37" class="edge">
<title>Node1&#45;&gt;Node63</title>
<path fill="none" stroke="#63b8ff" d="M3789.07,-129.25C3829.88,-117.94 3891.89,-100.75 3928.78,-90.52"/>
<polygon fill="#63b8ff" stroke="#63b8ff" points="3787.88,-125.95 3779.18,-131.99 3789.75,-132.69 3787.88,-125.95"/>
</g>
<!-- Node65 -->
<g id="node31" class="node">
<title>Node65</title>
<g id="a_node31"><a xlink:href="IterativePseudoInverse_8cxx.html" target="_top" xlink:title=" ">
<polygon fill="white" stroke="#666666" points="4592,-90.5 4443,-90.5 4443,-71.5 4592,-71.5 4592,-90.5"/>
<text text-anchor="middle" x="4517.5" y="-78.5" font-family="Helvetica,sans-Serif" font-size="10.00">IterativePseudoInverse.cxx</text>
</a>
</g>
</g>
<!-- Node1&#45;&gt;Node65 -->
<g id="edge39" class="edge">
<title>Node1&#45;&gt;Node65</title>
<path fill="none" stroke="#63b8ff" d="M3813.65,-138.49C3935.77,-134.24 4207.29,-122.46 4434.5,-96 4446.69,-94.58 4459.82,-92.58 4471.96,-90.54"/>
<polygon fill="#63b8ff" stroke="#63b8ff" points="3813.23,-135.01 3803.36,-138.85 3813.47,-142 3813.23,-135.01"/>
</g>
<!-- Node66 -->
<g id="node32" class="node">
<title>Node66</title>
<g id="a_node32"><a xlink:href="MathFunctions_8cxx.html" target="_top" xlink:title=" ">
<polygon fill="white" stroke="#666666" points="4718.5,-90.5 4610.5,-90.5 4610.5,-71.5 4718.5,-71.5 4718.5,-90.5"/>
<text text-anchor="middle" x="4664.5" y="-78.5" font-family="Helvetica,sans-Serif" font-size="10.00">MathFunctions.cxx</text>
</a>
</g>
</g>
<!-- Node1&#45;&gt;Node66 -->
<g id="edge40" class="edge">
<title>Node1&#45;&gt;Node66</title>
<path fill="none" stroke="#63b8ff" d="M3813.53,-140.79C3956.65,-140.62 4309.43,-135.79 4601.5,-96 4611.16,-94.68 4621.53,-92.65 4631.01,-90.53"/>
<polygon fill="#63b8ff" stroke="#63b8ff" points="3813.18,-137.29 3803.18,-140.79 3813.18,-144.29 3813.18,-137.29"/>
</g>
<!-- Node67 -->
<g id="node33" class="node">
<title>Node67</title>
<g id="a_node33"><a xlink:href="MeanCorrelationHoleDepth_8cxx.html" target="_top" xlink:title=" ">
<polygon fill="white" stroke="#666666" points="4906.5,-90.5 4736.5,-90.5 4736.5,-71.5 4906.5,-71.5 4906.5,-90.5"/>
<text text-anchor="middle" x="4821.5" y="-78.5" font-family="Helvetica,sans-Serif" font-size="10.00">MeanCorrelationHoleDepth.cxx</text>
</a>
</g>
</g>
<!-- Node1&#45;&gt;Node67 -->
<g id="edge41" class="edge">
<title>Node1&#45;&gt;Node67</title>
<path fill="none" stroke="#63b8ff" d="M3813.46,-139.84C3970.72,-137.76 4384.2,-129.28 4727.5,-96 4741.62,-94.63 4756.87,-92.6 4770.88,-90.51"/>
<polygon fill="#63b8ff" stroke="#63b8ff" points="3812.99,-136.35 3803.03,-139.98 3813.08,-143.35 3812.99,-136.35"/>
</g>
<!-- Node68 -->
<g id="node34" class="node">
<title>Node68</title>
<g id="a_node34"><a xlink:href="ParticleHoleCoulombVertexDecomposition_8cxx.html" target="_top" xlink:title=" ">
<polygon fill="white" stroke="#666666" points="5074.5,-96 4924.5,-96 4924.5,-66 5074.5,-66 5074.5,-96"/>
<text text-anchor="start" x="4932.5" y="-84" font-family="Helvetica,sans-Serif" font-size="10.00">ParticleHoleCoulombVertex</text>
<text text-anchor="middle" x="4999.5" y="-73" font-family="Helvetica,sans-Serif" font-size="10.00">Decomposition.cxx</text>
</a>
</g>
</g>
<!-- Node1&#45;&gt;Node68 -->
<g id="edge42" class="edge">
<title>Node1&#45;&gt;Node68</title>
<path fill="none" stroke="#63b8ff" d="M3813.24,-140.91C3990.25,-141.41 4496.98,-138.68 4915.5,-96 4918.44,-95.7 4921.44,-95.36 4924.46,-94.99"/>
<polygon fill="#63b8ff" stroke="#63b8ff" points="3813.07,-137.41 3803.06,-140.88 3813.05,-144.41 3813.07,-137.41"/>
</g>
<!-- Node69 -->
<g id="node35" class="node">
<title>Node69</title>
<g id="a_node35"><a xlink:href="ParticleHoleCoulombVertexSingularVectors_8cxx.html" target="_top" xlink:title=" ">
<polygon fill="white" stroke="#666666" points="5242.5,-96 5092.5,-96 5092.5,-66 5242.5,-66 5242.5,-96"/>
<text text-anchor="start" x="5100.5" y="-84" font-family="Helvetica,sans-Serif" font-size="10.00">ParticleHoleCoulombVertex</text>
<text text-anchor="middle" x="5167.5" y="-73" font-family="Helvetica,sans-Serif" font-size="10.00">SingularVectors.cxx</text>
</a>
</g>
</g>
<!-- Node1&#45;&gt;Node69 -->
<g id="edge43" class="edge">
<title>Node1&#45;&gt;Node69</title>
<path fill="none" stroke="#63b8ff" d="M3813.66,-139.47C4045.92,-135.61 4832.8,-120.96 5083.5,-96 5086.44,-95.71 5089.44,-95.37 5092.46,-95.01"/>
<polygon fill="#63b8ff" stroke="#63b8ff" points="3813.29,-135.97 3803.35,-139.64 3813.4,-142.97 3813.29,-135.97"/>
</g>
<!-- Node70 -->
<g id="node36" class="node">
<title>Node70</title>
<g id="a_node36"><a xlink:href="PerturbativeTriples_8cxx.html" target="_top" xlink:title=" ">
<polygon fill="white" stroke="#666666" points="5388.5,-90.5 5260.5,-90.5 5260.5,-71.5 5388.5,-71.5 5388.5,-90.5"/>
<text text-anchor="middle" x="5324.5" y="-78.5" font-family="Helvetica,sans-Serif" font-size="10.00">PerturbativeTriples.cxx</text>
</a>
</g>
</g>
<!-- Node1&#45;&gt;Node70 -->
<g id="edge44" class="edge">
<title>Node1&#45;&gt;Node70</title>
<path fill="none" stroke="#63b8ff" d="M3813.38,-139.96C4063.65,-137.67 4966.45,-127.35 5251.5,-96 5262.79,-94.76 5274.94,-92.72 5286.03,-90.57"/>
<polygon fill="#63b8ff" stroke="#63b8ff" points="3813.32,-136.46 3803.35,-140.05 3813.38,-143.46 3813.32,-136.46"/>
</g>
<!-- Node71 -->
<g id="node37" class="node">
<title>Node71</title>
<g id="a_node37"><a xlink:href="PseudoInverseHermitianSvd_8cxx.html" target="_top" xlink:title=" ">
<polygon fill="white" stroke="#666666" points="5582,-90.5 5407,-90.5 5407,-71.5 5582,-71.5 5582,-90.5"/>
<text text-anchor="middle" x="5494.5" y="-78.5" font-family="Helvetica,sans-Serif" font-size="10.00">PseudoInverseHermitianSvd.cxx</text>
</a>
</g>
</g>
<!-- Node1&#45;&gt;Node71 -->
<g id="edge45" class="edge">
<title>Node1&#45;&gt;Node71</title>
<path fill="none" stroke="#63b8ff" d="M3813.35,-139.76C4078.58,-136.58 5081.59,-122.97 5397.5,-96 5412.42,-94.73 5428.54,-92.67 5443.28,-90.53"/>
<polygon fill="#63b8ff" stroke="#63b8ff" points="3813.08,-136.26 3803.12,-139.88 3813.16,-143.26 3813.08,-136.26"/>
</g>
<!-- Node72 -->
<g id="node38" class="node">
<title>Node72</title>
<g id="a_node38"><a xlink:href="PseudoInverseSvd_8cxx.html" target="_top" xlink:title=" ">
<polygon fill="white" stroke="#666666" points="5726.5,-90.5 5600.5,-90.5 5600.5,-71.5 5726.5,-71.5 5726.5,-90.5"/>
<text text-anchor="middle" x="5663.5" y="-78.5" font-family="Helvetica,sans-Serif" font-size="10.00">PseudoInverseSvd.cxx</text>
</a>
</g>
</g>
<!-- Node1&#45;&gt;Node72 -->
<g id="edge46" class="edge">
<title>Node1&#45;&gt;Node72</title>
<path fill="none" stroke="#63b8ff" d="M3813.39,-140.39C4097.84,-139.71 5236.14,-134.56 5591.5,-96 5602.77,-94.78 5614.9,-92.71 5625.94,-90.54"/>
<polygon fill="#63b8ff" stroke="#63b8ff" points="3813.23,-136.9 3803.24,-140.42 3813.25,-143.9 3813.23,-136.9"/>
</g>
<!-- Node73 -->
<g id="node39" class="node">
<title>Node73</title>
<g id="a_node39"><a xlink:href="RegularizedAlternatingLeastSquares_8cxx.html" target="_top" xlink:title=" ">
<polygon fill="white" stroke="#666666" points="5900,-96 5745,-96 5745,-66 5900,-66 5900,-96"/>
<text text-anchor="start" x="5753" y="-84" font-family="Helvetica,sans-Serif" font-size="10.00">RegularizedAlternatingLeast</text>
<text text-anchor="middle" x="5822.5" y="-73" font-family="Helvetica,sans-Serif" font-size="10.00">Squares.cxx</text>
</a>
</g>
</g>
<!-- Node1&#45;&gt;Node73 -->
<g id="edge47" class="edge">
<title>Node1&#45;&gt;Node73</title>
<path fill="none" stroke="#63b8ff" d="M3813.48,-140.24C4111.52,-138.89 5349.63,-131.2 5735.5,-96 5738.55,-95.72 5741.65,-95.4 5744.78,-95.05"/>
<polygon fill="#63b8ff" stroke="#63b8ff" points="3813.26,-136.75 3803.28,-140.29 3813.3,-143.75 3813.26,-136.75"/>
</g>
<!-- Node52 -->
<g id="node40" class="node">
<title>Node52</title>
<g id="a_node40"><a xlink:href="SimilarityTransformedHamiltonian_8cxx.html" target="_top" xlink:title=" ">
<polygon fill="white" stroke="#666666" points="6123,-90.5 5918,-90.5 5918,-71.5 6123,-71.5 6123,-90.5"/>
<text text-anchor="middle" x="6020.5" y="-78.5" font-family="Helvetica,sans-Serif" font-size="10.00">SimilarityTransformedHamiltonian.cxx</text>
</a>
</g>
</g>
<!-- Node1&#45;&gt;Node52 -->
<g id="edge48" class="edge">
<title>Node1&#45;&gt;Node52</title>
<path fill="none" stroke="#63b8ff" d="M3813.43,-140.08C4126.99,-137.93 5486.72,-126.93 5909.5,-96 5926.64,-94.75 5945.2,-92.69 5962.14,-90.53"/>
<polygon fill="#63b8ff" stroke="#63b8ff" points="3813.13,-136.58 3803.15,-140.15 3813.17,-143.58 3813.13,-136.58"/>
</g>
<!-- Node74 -->
<g id="node41" class="node">
<title>Node74</title>
<g id="a_node41"><a xlink:href="SingleParticleOccupancies_8cxx.html" target="_top" xlink:title=" ">
<polygon fill="white" stroke="#666666" points="6305.5,-90.5 6141.5,-90.5 6141.5,-71.5 6305.5,-71.5 6305.5,-90.5"/>
<text text-anchor="middle" x="6223.5" y="-78.5" font-family="Helvetica,sans-Serif" font-size="10.00">SingleParticleOccupancies.cxx</text>
</a>
</g>
</g>
<!-- Node1&#45;&gt;Node74 -->
<g id="edge49" class="edge">
<title>Node1&#45;&gt;Node74</title>
<path fill="none" stroke="#63b8ff" d="M3813.53,-140.47C4146.56,-140.11 5663.54,-136.27 6132.5,-96 6146.67,-94.78 6161.99,-92.72 6175.94,-90.55"/>
<polygon fill="#63b8ff" stroke="#63b8ff" points="3813.1,-136.97 3803.11,-140.48 3813.11,-143.97 3813.1,-136.97"/>
</g>
<!-- Node75 -->
<g id="node42" class="node">
<title>Node75</title>
<g id="a_node42"><a xlink:href="Sisi4s_8cxx.html" target="_top" xlink:title=" ">
<polygon fill="white" stroke="#666666" points="6389,-90.5 6324,-90.5 6324,-71.5 6389,-71.5 6389,-90.5"/>
<text text-anchor="middle" x="6356.5" y="-78.5" font-family="Helvetica,sans-Serif" font-size="10.00">Sisi4s.cxx</text>
</a>
</g>
</g>
<!-- Node1&#45;&gt;Node75 -->
<g id="edge50" class="edge">
<title>Node1&#45;&gt;Node75</title>
<path fill="none" stroke="#63b8ff" d="M3813.34,-140.55C4187.38,-140.7 6061.67,-139.28 6314.5,-96 6321.32,-94.83 6328.53,-92.76 6335.02,-90.55"/>
<polygon fill="#63b8ff" stroke="#63b8ff" points="3813.23,-137.05 3803.23,-140.55 3813.23,-144.05 3813.23,-137.05"/>
</g>
<!-- Node76 -->
<g id="node43" class="node">
<title>Node76</title>
<g id="a_node43"><a xlink:href="TensorAntisymmetrizer_8cxx.html" target="_top" xlink:title=" ">
<polygon fill="white" stroke="#666666" points="6556,-90.5 6407,-90.5 6407,-71.5 6556,-71.5 6556,-90.5"/>
<text text-anchor="middle" x="6481.5" y="-78.5" font-family="Helvetica,sans-Serif" font-size="10.00">TensorAntisymmetrizer.cxx</text>
</a>
</g>
</g>
<!-- Node1&#45;&gt;Node76 -->
<g id="edge51" class="edge">
<title>Node1&#45;&gt;Node76</title>
<path fill="none" stroke="#63b8ff" d="M3813.25,-140.73C4167.47,-141.81 5873.89,-144.37 6398.5,-96 6411.6,-94.79 6425.74,-92.7 6438.58,-90.5"/>
<polygon fill="#63b8ff" stroke="#63b8ff" points="3813.17,-137.23 3803.16,-140.7 3813.15,-144.23 3813.17,-137.23"/>
</g>
<!-- Node77 -->
<g id="node44" class="node">
<title>Node77</title>
<g id="a_node44"><a xlink:href="TensorNorm_8cxx.html" target="_top" xlink:title=" ">
<polygon fill="white" stroke="#666666" points="6669,-90.5 6574,-90.5 6574,-71.5 6669,-71.5 6669,-90.5"/>
<text text-anchor="middle" x="6621.5" y="-78.5" font-family="Helvetica,sans-Serif" font-size="10.00">TensorNorm.cxx</text>
</a>
</g>
</g>
<!-- Node1&#45;&gt;Node77 -->
<g id="edge52" class="edge">
<title>Node1&#45;&gt;Node77</title>
<path fill="none" stroke="#63b8ff" d="M3813.2,-140.37C4207.99,-139.44 6284.81,-132.81 6565.5,-96 6574.44,-94.83 6584.02,-92.75 6592.68,-90.55"/>
<polygon fill="#63b8ff" stroke="#63b8ff" points="3813.09,-136.87 3803.1,-140.39 3813.11,-143.87 3813.09,-136.87"/>
</g>
<!-- Node78 -->
<g id="node45" class="node">
<title>Node78</title>
<g id="a_node45"><a xlink:href="UPerturbativeTriples_8cxx.html" target="_top" xlink:title=" ">
<polygon fill="white" stroke="#666666" points="6823.5,-90.5 6687.5,-90.5 6687.5,-71.5 6823.5,-71.5 6823.5,-90.5"/>
<text text-anchor="middle" x="6755.5" y="-78.5" font-family="Helvetica,sans-Serif" font-size="10.00">UPerturbativeTriples.cxx</text>
</a>
</g>
</g>
<!-- Node1&#45;&gt;Node78 -->
<g id="edge55" class="edge">
<title>Node1&#45;&gt;Node78</title>
<path fill="none" stroke="#63b8ff" d="M3813.18,-140.16C4217.05,-137.93 6384.83,-124.73 6678.5,-96 6690.67,-94.81 6703.8,-92.73 6715.71,-90.52"/>
<polygon fill="#63b8ff" stroke="#63b8ff" points="3813.12,-136.66 3803.13,-140.21 3813.15,-143.66 3813.12,-136.66"/>
</g>
<!-- Node43 -->
<g id="node46" class="node">
<title>Node43</title>
<g id="a_node46"><a xlink:href="UccsdAmplitudesFromCoulombIntegrals_8cxx.html" target="_top" xlink:title=" ">
<polygon fill="white" stroke="#666666" points="7011.5,-96 6841.5,-96 6841.5,-66 7011.5,-66 7011.5,-96"/>
<text text-anchor="start" x="6849.5" y="-84" font-family="Helvetica,sans-Serif" font-size="10.00">UccsdAmplitudesFromCoulomb</text>
<text text-anchor="middle" x="6926.5" y="-73" font-family="Helvetica,sans-Serif" font-size="10.00">Integrals.cxx</text>
</a>
</g>
</g>
<!-- Node1&#45;&gt;Node43 -->
<g id="edge56" class="edge">
<title>Node1&#45;&gt;Node43</title>
<path fill="none" stroke="#63b8ff" d="M3813.26,-140.74C4200.7,-142.02 6216.01,-146.13 6832.5,-96 6835.38,-95.77 6838.3,-95.5 6841.25,-95.2"/>
<polygon fill="#63b8ff" stroke="#63b8ff" points="3813.08,-137.24 3803.07,-140.71 3813.06,-144.24 3813.08,-137.24"/>
</g>
<!-- Node37 -->
<g id="node47" class="node">
<title>Node37</title>
<g id="a_node47"><a xlink:href="UccsdtAmplitudesFromCoulombIntegrals_8cxx.html" target="_top" xlink:title=" ">
<polygon fill="white" stroke="#666666" points="7203,-96 7030,-96 7030,-66 7203,-66 7203,-96"/>
<text text-anchor="start" x="7038" y="-84" font-family="Helvetica,sans-Serif" font-size="10.00">UccsdtAmplitudesFromCoulomb</text>
<text text-anchor="middle" x="7116.5" y="-73" font-family="Helvetica,sans-Serif" font-size="10.00">Integrals.cxx</text>
</a>
</g>
</g>
<!-- Node1&#45;&gt;Node37 -->
<g id="edge57" class="edge">
<title>Node1&#45;&gt;Node37</title>
<path fill="none" stroke="#63b8ff" d="M3813.37,-140.13C4244.62,-137.61 6690.2,-122.22 7020.5,-96 7023.61,-95.75 7026.76,-95.47 7029.95,-95.15"/>
<polygon fill="#63b8ff" stroke="#63b8ff" points="3813.24,-136.63 3803.26,-140.19 3813.28,-143.63 3813.24,-136.63"/>
</g>
<!-- Node40 -->
<g id="node48" class="node">
<title>Node40</title>
<g id="a_node48"><a xlink:href="UccsdtqAmplitudesFromCoulombIntegrals_8cxx.html" target="_top" xlink:title=" ">
<polygon fill="white" stroke="#666666" points="7400,-96 7221,-96 7221,-66 7400,-66 7400,-96"/>
<text text-anchor="start" x="7229" y="-84" font-family="Helvetica,sans-Serif" font-size="10.00">UccsdtqAmplitudesFromCoulomb</text>
<text text-anchor="middle" x="7310.5" y="-73" font-family="Helvetica,sans-Serif" font-size="10.00">Integrals.cxx</text>
</a>
</g>
</g>
<!-- Node1&#45;&gt;Node40 -->
<g id="edge58" class="edge">
<title>Node1&#45;&gt;Node40</title>
<path fill="none" stroke="#63b8ff" d="M3813.25,-140.17C4258.66,-137.85 6861.76,-123.19 7212.5,-96 7215.24,-95.79 7218.02,-95.55 7220.83,-95.28"/>
<polygon fill="#63b8ff" stroke="#63b8ff" points="3813.11,-136.67 3803.13,-140.22 3813.15,-143.67 3813.11,-136.67"/>
</g>
<!-- Node45 -->
<g id="node49" class="node">
<title>Node45</title>
<g id="a_node49"><a xlink:href="UrpaAmplitudesFromCoulombIntegrals_8cxx.html" target="_top" xlink:title=" ">
<polygon fill="white" stroke="#666666" points="7582.5,-96 7418.5,-96 7418.5,-66 7582.5,-66 7582.5,-96"/>
<text text-anchor="start" x="7426.5" y="-84" font-family="Helvetica,sans-Serif" font-size="10.00">UrpaAmplitudesFromCoulomb</text>
<text text-anchor="middle" x="7500.5" y="-73" font-family="Helvetica,sans-Serif" font-size="10.00">Integrals.cxx</text>
</a>
</g>
</g>
<!-- Node1&#45;&gt;Node45 -->
<g id="edge60" class="edge">
<title>Node1&#45;&gt;Node45</title>
<path fill="none" stroke="#63b8ff" d="M3813.26,-140.26C4273.2,-138.5 7037.99,-126.68 7409.5,-96 7412.37,-95.76 7415.28,-95.49 7418.22,-95.19"/>
<polygon fill="#63b8ff" stroke="#63b8ff" points="3813.13,-136.76 3803.15,-140.3 3813.16,-143.76 3813.13,-136.76"/>
</g>
<!-- Node79 -->
<g id="node50" class="node">
<title>Node79</title>
<g id="a_node50"><a xlink:href="Vector_8hpp.html" target="_top" xlink:title=" ">
<polygon fill="#fff0f0" stroke="red" points="4095.5,-90.5 4027.5,-90.5 4027.5,-71.5 4095.5,-71.5 4095.5,-90.5"/>
<text text-anchor="middle" x="4061.5" y="-78.5" font-family="Helvetica,sans-Serif" font-size="10.00">Vector.hpp</text>
</a>
</g>
</g>
<!-- Node1&#45;&gt;Node79 -->
<g id="edge61" class="edge">
<title>Node1&#45;&gt;Node79</title>
<path fill="none" stroke="#63b8ff" d="M3813,-132.67C3868.05,-125.32 3949.09,-112.92 4018.5,-96 4024.6,-94.51 4031.09,-92.59 4037.13,-90.64"/>
<polygon fill="#63b8ff" stroke="#63b8ff" points="3812.49,-129.2 3803.03,-133.98 3813.4,-136.14 3812.49,-129.2"/>
</g>
<!-- Node22&#45;&gt;Node5 -->
<g id="edge22" class="edge">
<title>Node22&#45;&gt;Node5</title>
<path fill="none" stroke="#63b8ff" d="M937.35,-68.86C888.43,-56.24 809.75,-35.94 765.49,-24.51"/>
<polygon fill="#63b8ff" stroke="#63b8ff" points="936.75,-72.33 947.31,-71.44 938.5,-65.55 936.75,-72.33"/>
</g>
<!-- Node22&#45;&gt;Node9 -->
<g id="edge23" class="edge">
<title>Node22&#45;&gt;Node9</title>
<path fill="none" stroke="#63b8ff" d="M908.52,-70.03C818.24,-57.52 665,-36.29 579.96,-24.51"/>
<polygon fill="#63b8ff" stroke="#63b8ff" points="908.29,-73.53 918.67,-71.44 909.25,-66.6 908.29,-73.53"/>
</g>
<!-- Node22&#45;&gt;Node23 -->
<g id="edge24" class="edge">
<title>Node22&#45;&gt;Node23</title>
<path fill="none" stroke="#63b8ff" d="M973.11,-61.82C968.21,-49.74 961.98,-34.41 958.12,-24.91"/>
<polygon fill="#63b8ff" stroke="#63b8ff" points="969.99,-63.42 976.99,-71.37 976.47,-60.79 969.99,-63.42"/>
</g>
<!-- Node22&#45;&gt;Node24 -->
<g id="edge25" class="edge">
<title>Node22&#45;&gt;Node24</title>
<path fill="none" stroke="#63b8ff" d="M1042.48,-69.72C1118.14,-57.18 1244.68,-36.2 1315.15,-24.51"/>
<polygon fill="#63b8ff" stroke="#63b8ff" points="1041.45,-66.35 1032.16,-71.44 1042.59,-73.25 1041.45,-66.35"/>
</g>
<!-- Node22&#45;&gt;Node25 -->
<g id="edge26" class="edge">
<title>Node22&#45;&gt;Node25</title>
<path fill="none" stroke="#63b8ff" d="M1014.64,-67.93C1045.04,-57.18 1089.54,-41.44 1121.58,-30.12"/>
<polygon fill="#63b8ff" stroke="#63b8ff" points="1013.17,-64.74 1004.91,-71.37 1015.51,-71.33 1013.17,-64.74"/>
</g>
<!-- Node28&#45;&gt;Node5 -->
<g id="edge30" class="edge">
<title>Node28&#45;&gt;Node5</title>
<path fill="none" stroke="#63b8ff" d="M788.02,-64.68C773.86,-52.26 754.38,-35.18 742.66,-24.91"/>
<polygon fill="#63b8ff" stroke="#63b8ff" points="785.83,-67.41 795.65,-71.37 790.44,-62.14 785.83,-67.41"/>
</g>
<!-- Node28&#45;&gt;Node8 -->
<g id="edge31" class="edge">
<title>Node28&#45;&gt;Node8</title>
<path fill="none" stroke="#63b8ff" d="M749.99,-74.06C673.42,-65.61 531.14,-49.03 410.5,-30 400.3,-28.39 389.34,-26.44 379.08,-24.52"/>
<polygon fill="#63b8ff" stroke="#63b8ff" points="750.03,-77.58 760.35,-75.19 750.79,-70.62 750.03,-77.58"/>
</g>
<!-- Node28&#45;&gt;Node9 -->
<g id="edge32" class="edge">
<title>Node28&#45;&gt;Node9</title>
<path fill="none" stroke="#63b8ff" d="M757.33,-69.26C700.86,-56.67 608.44,-36.06 556.68,-24.51"/>
<polygon fill="#63b8ff" stroke="#63b8ff" points="756.57,-72.67 767.09,-71.44 758.09,-65.84 756.57,-72.67"/>
</g>
<!-- Node28&#45;&gt;Node23 -->
<g id="edge33" class="edge">
<title>Node28&#45;&gt;Node23</title>
<path fill="none" stroke="#63b8ff" d="M834.93,-67.36C864.29,-54.75 908.62,-35.71 934.25,-24.7"/>
<polygon fill="#63b8ff" stroke="#63b8ff" points="833.4,-64.21 825.59,-71.37 836.16,-70.64 833.4,-64.21"/>
</g>
<!-- Node28&#45;&gt;Node24 -->
<g id="edge34" class="edge">
<title>Node28&#45;&gt;Node24</title>
<path fill="none" stroke="#63b8ff" d="M860.79,-71.13C872.87,-69.32 885.6,-67.51 897.5,-66 1054.83,-46.06 1094.9,-47.67 1252.5,-30 1267.56,-28.31 1283.73,-26.39 1299.01,-24.53"/>
<polygon fill="#63b8ff" stroke="#63b8ff" points="860.19,-67.68 850.83,-72.64 861.24,-74.6 860.19,-67.68"/>
</g>
<!-- Node28&#45;&gt;Node25 -->
<g id="edge35" class="edge">
<title>Node28&#45;&gt;Node25</title>
<path fill="none" stroke="#63b8ff" d="M860.57,-70.1C920.22,-59.38 1015.88,-42.18 1083.3,-30.06"/>
<polygon fill="#63b8ff" stroke="#63b8ff" points="859.81,-66.68 850.59,-71.89 861.05,-73.57 859.81,-66.68"/>
</g>
<!-- Node63&#45;&gt;Node26 -->
<g id="edge38" class="edge">
<title>Node63&#45;&gt;Node26</title>
<path fill="none" stroke="#63b8ff" d="M3959.5,-61.08C3959.5,-49.13 3959.5,-34.22 3959.5,-24.91"/>
<polygon fill="#63b8ff" stroke="#63b8ff" points="3956,-61.37 3959.5,-71.37 3963,-61.37 3956,-61.37"/>
</g>
<!-- Node79&#45;&gt;Node26 -->
<g id="edge62" class="edge">
<title>Node79&#45;&gt;Node26</title>
<path fill="none" stroke="#63b8ff" d="M4039.22,-66.02C4019.16,-53.43 3990.3,-35.32 3973.36,-24.7"/>
<polygon fill="#63b8ff" stroke="#63b8ff" points="4037.41,-69.02 4047.74,-71.37 4041.13,-63.09 4037.41,-69.02"/>
</g>
</g>
</svg>
