<?xml version="1.0" encoding="UTF-8" standalone="no"?>
<!DOCTYPE svg PUBLIC "-//W3C//DTD SVG 1.1//EN"
 "http://www.w3.org/Graphics/SVG/1.1/DTD/svg11.dtd">
<!-- Generated by graphviz version 7.0.0 (0)
 -->
<!-- Title: Mp2NaturalOrbitals.cxx Pages: 1 -->
<svg width="2107pt" height="357pt"
 viewBox="0.00 0.00 2106.50 357.00" xmlns="http://www.w3.org/2000/svg" xmlns:xlink="http://www.w3.org/1999/xlink">
<g id="graph0" class="graph" transform="scale(1 1) rotate(0) translate(4 353)">
<title>Mp2NaturalOrbitals.cxx</title>
<!-- Node1 -->
<g id="node1" class="node">
<title>Node1</title>
<g id="a_node1"><a xlink:title=" ">
<polygon fill="#999999" stroke="#666666" points="584,-349 452,-349 452,-330 584,-330 584,-349"/>
<text text-anchor="middle" x="518" y="-337" font-family="Helvetica,sans-Serif" font-size="10.00">Mp2NaturalOrbitals.cxx</text>
</a>
</g>
</g>
<!-- Node2 -->
<g id="node2" class="node">
<title>Node2</title>
<g id="a_node2"><a xlink:href="Mp2NaturalOrbitals_8hpp.html" target="_top" xlink:title=" ">
<polygon fill="white" stroke="#666666" points="487,-294 299,-294 299,-275 487,-275 487,-294"/>
<text text-anchor="middle" x="393" y="-282" font-family="Helvetica,sans-Serif" font-size="10.00">algorithms/Mp2NaturalOrbitals.hpp</text>
</a>
</g>
</g>
<!-- Node1&#45;&gt;Node2 -->
<g id="edge1" class="edge">
<title>Node1&#45;&gt;Node2</title>
<path fill="none" stroke="#63b8ff" d="M496.8,-329.51C476.92,-321.08 446.97,-308.38 424.34,-298.79"/>
<polygon fill="#63b8ff" stroke="#63b8ff" points="425.86,-295.63 415.28,-294.95 423.13,-302.07 425.86,-295.63"/>
</g>
<!-- Node5 -->
<g id="node5" class="node">
<title>Node5</title>
<g id="a_node5"><a xlink:href="Log_8hpp.html" target="_top" xlink:title=" ">
<polygon fill="white" stroke="#666666" points="262,-129 188,-129 188,-110 262,-110 262,-129"/>
<text text-anchor="middle" x="225" y="-117" font-family="Helvetica,sans-Serif" font-size="10.00">util/Log.hpp</text>
</a>
</g>
</g>
<!-- Node1&#45;&gt;Node5 -->
<g id="edge40" class="edge">
<title>Node1&#45;&gt;Node5</title>
<path fill="none" stroke="#63b8ff" d="M451.52,-332.71C393.17,-326.37 313.97,-314.29 290,-294 243.01,-254.21 229.95,-176.91 226.35,-140.45"/>
<polygon fill="#63b8ff" stroke="#63b8ff" points="229.87,-140.57 225.56,-130.89 222.9,-141.15 229.87,-140.57"/>
</g>
<!-- Node14 -->
<g id="node14" class="node">
<title>Node14</title>
<g id="a_node14"><a xlink:title=" ">
<polygon fill="#e0e0e0" stroke="#999999" points="111,-74 51,-74 51,-55 111,-55 111,-74"/>
<text text-anchor="middle" x="81" y="-62" font-family="Helvetica,sans-Serif" font-size="10.00">iostream</text>
</a>
</g>
</g>
<!-- Node1&#45;&gt;Node14 -->
<g id="edge74" class="edge">
<title>Node1&#45;&gt;Node14</title>
<path fill="none" stroke="#63b8ff" d="M451.61,-338.4C311.83,-336.41 0,-321.73 0,-230.5 0,-230.5 0,-230.5 0,-173.5 0,-134.19 34.77,-100.03 58.75,-81.14"/>
<polygon fill="#63b8ff" stroke="#63b8ff" points="60.54,-84.18 66.42,-75.37 56.32,-78.59 60.54,-84.18"/>
</g>
<!-- Node22 -->
<g id="node22" class="node">
<title>Node22</title>
<g id="a_node22"><a xlink:href="Tensor_8hpp.html" target="_top" xlink:title=" ">
<polygon fill="white" stroke="#666666" points="557.5,-129 470.5,-129 470.5,-110 557.5,-110 557.5,-129"/>
<text text-anchor="middle" x="514" y="-117" font-family="Helvetica,sans-Serif" font-size="10.00">util/Tensor.hpp</text>
</a>
</g>
</g>
<!-- Node1&#45;&gt;Node22 -->
<g id="edge73" class="edge">
<title>Node1&#45;&gt;Node22</title>
<path fill="none" stroke="#63b8ff" d="M517.84,-329.68C517.25,-297.57 515.21,-186.33 514.37,-140.49"/>
<polygon fill="#63b8ff" stroke="#63b8ff" points="517.87,-140.63 514.19,-130.7 510.87,-140.76 517.87,-140.63"/>
</g>
<!-- Node25 -->
<g id="node25" class="node">
<title>Node25</title>
<g id="a_node25"><a xlink:href="Exception_8hpp.html" target="_top" xlink:title=" ">
<polygon fill="white" stroke="#666666" points="170,-129 66,-129 66,-110 170,-110 170,-129"/>
<text text-anchor="middle" x="118" y="-117" font-family="Helvetica,sans-Serif" font-size="10.00">util/Exception.hpp</text>
</a>
</g>
</g>
<!-- Node1&#45;&gt;Node25 -->
<g id="edge41" class="edge">
<title>Node1&#45;&gt;Node25</title>
<path fill="none" stroke="#63b8ff" d="M451.54,-338.6C398.66,-335.98 324.43,-326.09 268,-294 200.56,-255.65 148.88,-175.17 128.04,-138.91"/>
<polygon fill="#63b8ff" stroke="#63b8ff" points="131.27,-137.5 123.32,-130.49 125.16,-140.92 131.27,-137.5"/>
</g>
<!-- Node26 -->
<g id="node26" class="node">
<title>Node26</title>
<g id="a_node26"><a xlink:title=" ">
<polygon fill="#e0e0e0" stroke="#999999" points="1838,-74 1774,-74 1774,-55 1838,-55 1838,-74"/>
<text text-anchor="middle" x="1806" y="-62" font-family="Helvetica,sans-Serif" font-size="10.00">algorithm</text>
</a>
</g>
</g>
<!-- Node1&#45;&gt;Node26 -->
<g id="edge35" class="edge">
<title>Node1&#45;&gt;Node26</title>
<path fill="none" stroke="#63b8ff" d="M584.4,-337.53C792.94,-333.6 1421,-314.77 1421,-230.5 1421,-230.5 1421,-230.5 1421,-173.5 1421,-155.93 1661.77,-98.61 1762.51,-75.39"/>
<polygon fill="#63b8ff" stroke="#63b8ff" points="1763.07,-78.86 1772.03,-73.21 1761.5,-72.03 1763.07,-78.86"/>
</g>
<!-- Node27 -->
<g id="node27" class="node">
<title>Node27</title>
<g id="a_node27"><a xlink:title=" ">
<polygon fill="#e0e0e0" stroke="#999999" points="1912,-74 1856,-74 1856,-55 1912,-55 1912,-74"/>
<text text-anchor="middle" x="1884" y="-62" font-family="Helvetica,sans-Serif" font-size="10.00">numeric</text>
</a>
</g>
</g>
<!-- Node1&#45;&gt;Node27 -->
<g id="edge36" class="edge">
<title>Node1&#45;&gt;Node27</title>
<path fill="none" stroke="#63b8ff" d="M584.35,-336.77C857.91,-329.22 1884,-296.48 1884,-230.5 1884,-230.5 1884,-230.5 1884,-173.5 1884,-142.92 1884,-107.48 1884,-85.77"/>
<polygon fill="#63b8ff" stroke="#63b8ff" points="1887.5,-85.97 1884,-75.97 1880.5,-85.97 1887.5,-85.97"/>
</g>
<!-- Node28 -->
<g id="node28" class="node">
<title>Node28</title>
<g id="a_node28"><a xlink:href="Lapack_8hpp.html" target="_top" xlink:title=" ">
<polygon fill="white" stroke="#666666" points="1855.5,-184 1748.5,-184 1748.5,-165 1855.5,-165 1855.5,-184"/>
<text text-anchor="middle" x="1802" y="-172" font-family="Helvetica,sans-Serif" font-size="10.00">extern/Lapack.hpp</text>
</a>
</g>
</g>
<!-- Node1&#45;&gt;Node28 -->
<g id="edge37" class="edge">
<title>Node1&#45;&gt;Node28</title>
<path fill="none" stroke="#63b8ff" d="M584.33,-330.08C805.68,-301.98 1517.35,-211.64 1736.89,-183.77"/>
<polygon fill="#63b8ff" stroke="#63b8ff" points="1737.22,-187.25 1746.7,-182.52 1736.33,-180.31 1737.22,-187.25"/>
</g>
<!-- Node29 -->
<g id="node29" class="node">
<title>Node29</title>
<g id="a_node29"><a xlink:href="Sisi4s_8hpp.html" target="_top" xlink:title=" ">
<polygon fill="white" stroke="#666666" points="740,-239 674,-239 674,-220 740,-220 740,-239"/>
<text text-anchor="middle" x="707" y="-227" font-family="Helvetica,sans-Serif" font-size="10.00">Sisi4s.hpp</text>
</a>
</g>
</g>
<!-- Node1&#45;&gt;Node29 -->
<g id="edge42" class="edge">
<title>Node1&#45;&gt;Node29</title>
<path fill="none" stroke="#63b8ff" d="M533.47,-329.66C566,-311.07 641.78,-267.77 681.57,-245.03"/>
<polygon fill="#63b8ff" stroke="#63b8ff" points="683.06,-248.21 690.01,-240.21 679.59,-242.13 683.06,-248.21"/>
</g>
<!-- Node3 -->
<g id="node3" class="node">
<title>Node3</title>
<g id="a_node3"><a xlink:href="Algorithm_8hpp.html" target="_top" xlink:title=" ">
<polygon fill="white" stroke="#666666" points="457.5,-239 316.5,-239 316.5,-220 457.5,-220 457.5,-239"/>
<text text-anchor="middle" x="387" y="-227" font-family="Helvetica,sans-Serif" font-size="10.00">algorithms/Algorithm.hpp</text>
</a>
</g>
</g>
<!-- Node2&#45;&gt;Node3 -->
<g id="edge2" class="edge">
<title>Node2&#45;&gt;Node3</title>
<path fill="none" stroke="#63b8ff" d="M392.01,-274.75C391.27,-268.19 390.22,-258.95 389.28,-250.6"/>
<polygon fill="#63b8ff" stroke="#63b8ff" points="392.79,-250.49 388.18,-240.95 385.83,-251.28 392.79,-250.49"/>
</g>
<!-- Node4 -->
<g id="node4" class="node">
<title>Node4</title>
<g id="a_node4"><a xlink:href="Data_8hpp.html" target="_top" xlink:title=" ">
<polygon fill="white" stroke="#666666" points="413.5,-184 352.5,-184 352.5,-165 413.5,-165 413.5,-184"/>
<text text-anchor="middle" x="383" y="-172" font-family="Helvetica,sans-Serif" font-size="10.00">Data.hpp</text>
</a>
</g>
</g>
<!-- Node3&#45;&gt;Node4 -->
<g id="edge3" class="edge">
<title>Node3&#45;&gt;Node4</title>
<path fill="none" stroke="#63b8ff" d="M386.34,-219.75C385.85,-213.27 385.16,-204.16 384.54,-195.9"/>
<polygon fill="#63b8ff" stroke="#63b8ff" points="388.03,-195.66 383.79,-185.95 381.05,-196.19 388.03,-195.66"/>
</g>
<!-- Node11 -->
<g id="node11" class="node">
<title>Node11</title>
<g id="a_node11"><a xlink:title=" ">
<polygon fill="#e0e0e0" stroke="#999999" points="259,-19 203,-19 203,0 259,0 259,-19"/>
<text text-anchor="middle" x="231" y="-7" font-family="Helvetica,sans-Serif" font-size="10.00">sstream</text>
</a>
</g>
</g>
<!-- Node3&#45;&gt;Node11 -->
<g id="edge33" class="edge">
<title>Node3&#45;&gt;Node11</title>
<path fill="none" stroke="#63b8ff" d="M316.33,-224.47C243.07,-216.73 129.33,-194.22 57,-129 37.32,-111.26 39.21,-99.98 34,-74 32.34,-65.72 28.73,-61.6 34,-55 53.29,-30.86 139.42,-18.87 191.19,-13.74"/>
<polygon fill="#63b8ff" stroke="#63b8ff" points="191.48,-17.22 201.11,-12.8 190.83,-10.26 191.48,-17.22"/>
</g>
<!-- Node13 -->
<g id="node13" class="node">
<title>Node13</title>
<g id="a_node13"><a xlink:title=" ">
<polygon fill="#e0e0e0" stroke="#999999" points="259,-74 215,-74 215,-55 259,-55 259,-74"/>
<text text-anchor="middle" x="237" y="-62" font-family="Helvetica,sans-Serif" font-size="10.00">string</text>
</a>
</g>
</g>
<!-- Node3&#45;&gt;Node13 -->
<g id="edge31" class="edge">
<title>Node3&#45;&gt;Node13</title>
<path fill="none" stroke="#63b8ff" d="M378.34,-219.72C369.6,-210.8 355.73,-196.56 344,-184 310.74,-148.39 272.71,-105.81 252.14,-82.63"/>
<polygon fill="#63b8ff" stroke="#63b8ff" points="254.94,-80.51 245.69,-75.35 249.7,-85.15 254.94,-80.51"/>
</g>
<!-- Node21 -->
<g id="node21" class="node">
<title>Node21</title>
<g id="a_node21"><a xlink:title=" ">
<polygon fill="#e0e0e0" stroke="#999999" points="454.5,-74 407.5,-74 407.5,-55 454.5,-55 454.5,-74"/>
<text text-anchor="middle" x="431" y="-62" font-family="Helvetica,sans-Serif" font-size="10.00">vector</text>
</a>
</g>
</g>
<!-- Node3&#45;&gt;Node21 -->
<g id="edge32" class="edge">
<title>Node3&#45;&gt;Node21</title>
<path fill="none" stroke="#63b8ff" d="M396.93,-219.72C405.52,-211.46 417.41,-198.25 423,-184 435.83,-151.29 435.12,-109.63 433.22,-85.42"/>
<polygon fill="#63b8ff" stroke="#63b8ff" points="436.73,-85.34 432.29,-75.72 429.76,-86.01 436.73,-85.34"/>
</g>
<!-- Node3&#45;&gt;Node22 -->
<g id="edge34" class="edge">
<title>Node3&#45;&gt;Node22</title>
<path fill="none" stroke="#63b8ff" d="M403.43,-219.52C417.95,-211.22 439.34,-198.08 456,-184 472.52,-170.04 488.91,-151.55 500.03,-138.12"/>
<polygon fill="#63b8ff" stroke="#63b8ff" points="502.59,-140.53 506.17,-130.55 497.15,-136.12 502.59,-140.53"/>
</g>
<!-- Node4&#45;&gt;Node5 -->
<g id="edge4" class="edge">
<title>Node4&#45;&gt;Node5</title>
<path fill="none" stroke="#63b8ff" d="M356.2,-164.51C330.47,-155.88 291.37,-142.76 262.55,-133.1"/>
<polygon fill="#63b8ff" stroke="#63b8ff" points="263.7,-129.79 253.1,-129.93 261.47,-136.43 263.7,-129.79"/>
</g>
<!-- Node4&#45;&gt;Node13 -->
<g id="edge21" class="edge">
<title>Node4&#45;&gt;Node13</title>
<path fill="none" stroke="#63b8ff" d="M372.51,-164.56C357.6,-151.97 329.28,-128.5 304,-110 289.95,-99.72 273.69,-88.9 260.71,-80.5"/>
<polygon fill="#63b8ff" stroke="#63b8ff" points="262.69,-77.61 252.38,-75.16 258.91,-83.5 262.69,-77.61"/>
</g>
<!-- Node17 -->
<g id="node17" class="node">
<title>Node17</title>
<g id="a_node17"><a xlink:href="Float_8hpp.html" target="_top" xlink:title=" ">
<polygon fill="white" stroke="#666666" points="2021.5,-74 1930.5,-74 1930.5,-55 2021.5,-55 2021.5,-74"/>
<text text-anchor="middle" x="1976" y="-62" font-family="Helvetica,sans-Serif" font-size="10.00">math/Float.hpp</text>
</a>
</g>
</g>
<!-- Node4&#45;&gt;Node17 -->
<g id="edge16" class="edge">
<title>Node4&#45;&gt;Node17</title>
<path fill="none" stroke="#63b8ff" d="M413.93,-171.66C613.69,-159.79 1719.29,-93.75 1918.8,-74.08"/>
<polygon fill="#63b8ff" stroke="#63b8ff" points="1919.03,-77.57 1928.62,-73.06 1918.31,-70.61 1919.03,-77.57"/>
</g>
<!-- Node18 -->
<g id="node18" class="node">
<title>Node18</title>
<g id="a_node18"><a xlink:href="Complex_8hpp.html" target="_top" xlink:title=" ">
<polygon fill="white" stroke="#666666" points="2026,-129 1916,-129 1916,-110 2026,-110 2026,-129"/>
<text text-anchor="middle" x="1971" y="-117" font-family="Helvetica,sans-Serif" font-size="10.00">math/Complex.hpp</text>
</a>
</g>
</g>
<!-- Node4&#45;&gt;Node18 -->
<g id="edge18" class="edge">
<title>Node4&#45;&gt;Node18</title>
<path fill="none" stroke="#63b8ff" d="M413.97,-171.61C445.63,-169.73 496.23,-166.87 540,-165 1065.57,-142.6 1700.19,-126.82 1904.33,-122.03"/>
<polygon fill="#63b8ff" stroke="#63b8ff" points="1904.3,-125.53 1914.22,-121.8 1904.14,-118.53 1904.3,-125.53"/>
</g>
<!-- Node20 -->
<g id="node20" class="node">
<title>Node20</title>
<g id="a_node20"><a xlink:title=" ">
<polygon fill="#e0e0e0" stroke="#999999" points="389,-74 351,-74 351,-55 389,-55 389,-74"/>
<text text-anchor="middle" x="370" y="-62" font-family="Helvetica,sans-Serif" font-size="10.00">map</text>
</a>
</g>
</g>
<!-- Node4&#45;&gt;Node20 -->
<g id="edge22" class="edge">
<title>Node4&#45;&gt;Node20</title>
<path fill="none" stroke="#63b8ff" d="M381.94,-164.66C379.87,-147.5 375.27,-109.26 372.42,-85.6"/>
<polygon fill="#63b8ff" stroke="#63b8ff" points="375.93,-85.47 371.26,-75.96 368.98,-86.31 375.93,-85.47"/>
</g>
<!-- Node4&#45;&gt;Node21 -->
<g id="edge23" class="edge">
<title>Node4&#45;&gt;Node21</title>
<path fill="none" stroke="#63b8ff" d="M386.93,-164.66C394.63,-147.34 411.87,-108.55 422.36,-84.95"/>
<polygon fill="#63b8ff" stroke="#63b8ff" points="425.54,-86.4 426.4,-75.84 419.14,-83.56 425.54,-86.4"/>
</g>
<!-- Node4&#45;&gt;Node22 -->
<g id="edge24" class="edge">
<title>Node4&#45;&gt;Node22</title>
<path fill="none" stroke="#63b8ff" d="M405.22,-164.51C426.14,-156.04 457.73,-143.27 481.48,-133.66"/>
<polygon fill="#63b8ff" stroke="#63b8ff" points="482.75,-136.92 490.7,-129.93 480.12,-130.43 482.75,-136.92"/>
</g>
<!-- Node4&#45;&gt;Node25 -->
<g id="edge27" class="edge">
<title>Node4&#45;&gt;Node25</title>
<path fill="none" stroke="#63b8ff" d="M352.08,-167.32C308.49,-158.6 228.23,-142.55 174,-131.7"/>
<polygon fill="#63b8ff" stroke="#63b8ff" points="174.82,-128.29 164.32,-129.76 173.44,-135.16 174.82,-128.29"/>
</g>
<!-- Node6 -->
<g id="node6" class="node">
<title>Node6</title>
<g id="a_node6"><a xlink:href="Time_8hpp.html" target="_top" xlink:title=" ">
<polygon fill="white" stroke="#666666" points="1124.5,-74 1043.5,-74 1043.5,-55 1124.5,-55 1124.5,-74"/>
<text text-anchor="middle" x="1084" y="-62" font-family="Helvetica,sans-Serif" font-size="10.00">util/Time.hpp</text>
</a>
</g>
</g>
<!-- Node5&#45;&gt;Node6 -->
<g id="edge5" class="edge">
<title>Node5&#45;&gt;Node6</title>
<path fill="none" stroke="#63b8ff" d="M262.34,-116.86C373.88,-111.84 714.27,-95.73 996,-74 1007.71,-73.1 1020.29,-71.97 1032.16,-70.84"/>
<polygon fill="#63b8ff" stroke="#63b8ff" points="1032.16,-74.36 1041.78,-69.91 1031.49,-67.39 1032.16,-74.36"/>
</g>
<!-- Node5&#45;&gt;Node13 -->
<g id="edge12" class="edge">
<title>Node5&#45;&gt;Node13</title>
<path fill="none" stroke="#63b8ff" d="M226.98,-109.75C228.47,-103.19 230.56,-93.95 232.45,-85.6"/>
<polygon fill="#63b8ff" stroke="#63b8ff" points="235.85,-86.44 234.64,-75.92 229.02,-84.9 235.85,-86.44"/>
</g>
<!-- Node5&#45;&gt;Node14 -->
<g id="edge13" class="edge">
<title>Node5&#45;&gt;Node14</title>
<path fill="none" stroke="#63b8ff" d="M200.57,-109.51C177.26,-100.93 141.91,-87.92 115.69,-78.27"/>
<polygon fill="#63b8ff" stroke="#63b8ff" points="117.08,-75.05 106.49,-74.88 114.66,-81.62 117.08,-75.05"/>
</g>
<!-- Node15 -->
<g id="node15" class="node">
<title>Node15</title>
<g id="a_node15"><a xlink:title=" ">
<polygon fill="#e0e0e0" stroke="#999999" points="196.5,-74 129.5,-74 129.5,-55 196.5,-55 196.5,-74"/>
<text text-anchor="middle" x="163" y="-62" font-family="Helvetica,sans-Serif" font-size="10.00">streambuf</text>
</a>
</g>
</g>
<!-- Node5&#45;&gt;Node15 -->
<g id="edge14" class="edge">
<title>Node5&#45;&gt;Node15</title>
<path fill="none" stroke="#63b8ff" d="M214.48,-109.51C205.61,-101.93 192.69,-90.88 182.01,-81.75"/>
<polygon fill="#63b8ff" stroke="#63b8ff" points="184.39,-79.18 174.51,-75.34 179.84,-84.5 184.39,-79.18"/>
</g>
<!-- Node16 -->
<g id="node16" class="node">
<title>Node16</title>
<g id="a_node16"><a xlink:title=" ">
<polygon fill="#e0e0e0" stroke="#999999" points="332.5,-74 277.5,-74 277.5,-55 332.5,-55 332.5,-74"/>
<text text-anchor="middle" x="305" y="-62" font-family="Helvetica,sans-Serif" font-size="10.00">fstream</text>
</a>
</g>
</g>
<!-- Node5&#45;&gt;Node16 -->
<g id="edge15" class="edge">
<title>Node5&#45;&gt;Node16</title>
<path fill="none" stroke="#63b8ff" d="M238.57,-109.51C250.48,-101.62 268.05,-89.98 282.13,-80.65"/>
<polygon fill="#63b8ff" stroke="#63b8ff" points="283.96,-83.63 290.37,-75.19 280.1,-77.8 283.96,-83.63"/>
</g>
<!-- Node7 -->
<g id="node7" class="node">
<title>Node7</title>
<g id="a_node7"><a xlink:title=" ">
<polygon fill="#e0e0e0" stroke="#999999" points="1102,-19 1058,-19 1058,0 1102,0 1102,-19"/>
<text text-anchor="middle" x="1080" y="-7" font-family="Helvetica,sans-Serif" font-size="10.00">ctime</text>
</a>
</g>
</g>
<!-- Node6&#45;&gt;Node7 -->
<g id="edge6" class="edge">
<title>Node6&#45;&gt;Node7</title>
<path fill="none" stroke="#63b8ff" d="M1083.34,-54.75C1082.85,-48.27 1082.16,-39.16 1081.54,-30.9"/>
<polygon fill="#63b8ff" stroke="#63b8ff" points="1085.03,-30.66 1080.79,-20.95 1078.05,-31.19 1085.03,-30.66"/>
</g>
<!-- Node8 -->
<g id="node8" class="node">
<title>Node8</title>
<g id="a_node8"><a xlink:title=" ">
<polygon fill="#e0e0e0" stroke="#999999" points="1040,-19 990,-19 990,0 1040,0 1040,-19"/>
<text text-anchor="middle" x="1015" y="-7" font-family="Helvetica,sans-Serif" font-size="10.00">cstdint</text>
</a>
</g>
</g>
<!-- Node6&#45;&gt;Node8 -->
<g id="edge7" class="edge">
<title>Node6&#45;&gt;Node8</title>
<path fill="none" stroke="#63b8ff" d="M1072.3,-54.51C1062.22,-46.77 1047.46,-35.43 1035.44,-26.2"/>
<polygon fill="#63b8ff" stroke="#63b8ff" points="1037.79,-23.6 1027.73,-20.28 1033.53,-29.15 1037.79,-23.6"/>
</g>
<!-- Node9 -->
<g id="node9" class="node">
<title>Node9</title>
<g id="a_node9"><a xlink:title=" ">
<polygon fill="#e0e0e0" stroke="#999999" points="1660.5,-19 1603.5,-19 1603.5,0 1660.5,0 1660.5,-19"/>
<text text-anchor="middle" x="1632" y="-7" font-family="Helvetica,sans-Serif" font-size="10.00">ostream</text>
</a>
</g>
</g>
<!-- Node6&#45;&gt;Node9 -->
<g id="edge8" class="edge">
<title>Node6&#45;&gt;Node9</title>
<path fill="none" stroke="#63b8ff" d="M1124.74,-59.56C1226.5,-49.72 1490.87,-24.15 1591.92,-14.38"/>
<polygon fill="#63b8ff" stroke="#63b8ff" points="1592.01,-17.88 1601.63,-13.44 1591.34,-10.92 1592.01,-17.88"/>
</g>
<!-- Node10 -->
<g id="node10" class="node">
<title>Node10</title>
<g id="a_node10"><a xlink:title=" ">
<polygon fill="#e0e0e0" stroke="#999999" points="1176,-19 1120,-19 1120,0 1176,0 1176,-19"/>
<text text-anchor="middle" x="1148" y="-7" font-family="Helvetica,sans-Serif" font-size="10.00">iomanip</text>
</a>
</g>
</g>
<!-- Node6&#45;&gt;Node10 -->
<g id="edge9" class="edge">
<title>Node6&#45;&gt;Node10</title>
<path fill="none" stroke="#63b8ff" d="M1094.86,-54.51C1104.11,-46.85 1117.62,-35.66 1128.71,-26.47"/>
<polygon fill="#63b8ff" stroke="#63b8ff" points="1130.67,-29.4 1136.14,-20.32 1126.2,-24.01 1130.67,-29.4"/>
</g>
<!-- Node6&#45;&gt;Node11 -->
<g id="edge10" class="edge">
<title>Node6&#45;&gt;Node11</title>
<path fill="none" stroke="#63b8ff" d="M1043.28,-59.24C1028.41,-57.77 1011.46,-56.2 996,-55 718.61,-33.54 383.91,-17.45 270.64,-12.27"/>
<polygon fill="#63b8ff" stroke="#63b8ff" points="270.82,-8.78 260.67,-11.82 270.5,-15.77 270.82,-8.78"/>
</g>
<!-- Node12 -->
<g id="node12" class="node">
<title>Node12</title>
<g id="a_node12"><a xlink:title=" ">
<polygon fill="#e0e0e0" stroke="#999999" points="1241.5,-19 1194.5,-19 1194.5,0 1241.5,0 1241.5,-19"/>
<text text-anchor="middle" x="1218" y="-7" font-family="Helvetica,sans-Serif" font-size="10.00">cmath</text>
</a>
</g>
</g>
<!-- Node6&#45;&gt;Node12 -->
<g id="edge11" class="edge">
<title>Node6&#45;&gt;Node12</title>
<path fill="none" stroke="#63b8ff" d="M1106.73,-54.51C1128.23,-46.01 1160.73,-33.15 1185.07,-23.53"/>
<polygon fill="#63b8ff" stroke="#63b8ff" points="1186.19,-26.85 1194.2,-19.91 1183.61,-20.34 1186.19,-26.85"/>
</g>
<!-- Node17&#45;&gt;Node9 -->
<g id="edge17" class="edge">
<title>Node17&#45;&gt;Node9</title>
<path fill="none" stroke="#63b8ff" d="M1930.08,-56.4C1927.01,-55.93 1923.96,-55.46 1921,-55 1832,-41.27 1727.59,-25.2 1671.85,-16.63"/>
<polygon fill="#63b8ff" stroke="#63b8ff" points="1672.63,-13.21 1662.21,-15.15 1671.56,-20.13 1672.63,-13.21"/>
</g>
<!-- Node18&#45;&gt;Node17 -->
<g id="edge19" class="edge">
<title>Node18&#45;&gt;Node17</title>
<path fill="none" stroke="#63b8ff" d="M1971.83,-109.75C1972.44,-103.27 1973.3,-94.16 1974.08,-85.9"/>
<polygon fill="#63b8ff" stroke="#63b8ff" points="1977.56,-86.23 1975.01,-75.95 1970.59,-85.58 1977.56,-86.23"/>
</g>
<!-- Node19 -->
<g id="node19" class="node">
<title>Node19</title>
<g id="a_node19"><a xlink:title=" ">
<polygon fill="#e0e0e0" stroke="#999999" points="2098.5,-74 2039.5,-74 2039.5,-55 2098.5,-55 2098.5,-74"/>
<text text-anchor="middle" x="2069" y="-62" font-family="Helvetica,sans-Serif" font-size="10.00">complex</text>
</a>
</g>
</g>
<!-- Node18&#45;&gt;Node19 -->
<g id="edge20" class="edge">
<title>Node18&#45;&gt;Node19</title>
<path fill="none" stroke="#63b8ff" d="M1987.62,-109.51C2002.78,-101.31 2025.42,-89.07 2042.97,-79.58"/>
<polygon fill="#63b8ff" stroke="#63b8ff" points="2044.16,-82.91 2051.29,-75.08 2040.83,-76.76 2044.16,-82.91"/>
</g>
<!-- Node23 -->
<g id="node23" class="node">
<title>Node23</title>
<g id="a_node23"><a xlink:href="CTF_8hpp.html" target="_top" xlink:title=" ">
<polygon fill="white" stroke="#666666" points="547,-74 473,-74 473,-55 547,-55 547,-74"/>
<text text-anchor="middle" x="510" y="-62" font-family="Helvetica,sans-Serif" font-size="10.00">util/CTF.hpp</text>
</a>
</g>
</g>
<!-- Node22&#45;&gt;Node23 -->
<g id="edge25" class="edge">
<title>Node22&#45;&gt;Node23</title>
<path fill="none" stroke="#63b8ff" d="M513.34,-109.75C512.85,-103.27 512.16,-94.16 511.54,-85.9"/>
<polygon fill="#63b8ff" stroke="#63b8ff" points="515.03,-85.66 510.79,-75.95 508.05,-86.19 515.03,-85.66"/>
</g>
<!-- Node24 -->
<g id="node24" class="node">
<title>Node24</title>
<g id="a_node24"><a xlink:title=" ">
<polygon fill="#e0e0e0" stroke="#999999" points="535,-19 485,-19 485,0 535,0 535,-19"/>
<text text-anchor="middle" x="510" y="-7" font-family="Helvetica,sans-Serif" font-size="10.00">ctf.hpp</text>
</a>
</g>
</g>
<!-- Node23&#45;&gt;Node24 -->
<g id="edge26" class="edge">
<title>Node23&#45;&gt;Node24</title>
<path fill="none" stroke="#63b8ff" d="M510,-54.75C510,-48.27 510,-39.16 510,-30.9"/>
<polygon fill="#63b8ff" stroke="#63b8ff" points="513.5,-30.96 510,-20.96 506.5,-30.96 513.5,-30.96"/>
</g>
<!-- Node25&#45;&gt;Node11 -->
<g id="edge29" class="edge">
<title>Node25&#45;&gt;Node11</title>
<path fill="none" stroke="#63b8ff" d="M91.89,-109.57C63.32,-98.4 23.85,-77.91 42,-55 60.26,-31.94 141.45,-19.64 191.29,-14.15"/>
<polygon fill="#63b8ff" stroke="#63b8ff" points="191.54,-17.64 201.12,-13.11 190.81,-10.68 191.54,-17.64"/>
</g>
<!-- Node25&#45;&gt;Node13 -->
<g id="edge28" class="edge">
<title>Node25&#45;&gt;Node13</title>
<path fill="none" stroke="#63b8ff" d="M138.19,-109.51C157.02,-101.12 185.37,-88.5 206.87,-78.92"/>
<polygon fill="#63b8ff" stroke="#63b8ff" points="208.02,-82.24 215.73,-74.97 205.17,-75.85 208.02,-82.24"/>
</g>
<!-- Node25&#45;&gt;Node14 -->
<g id="edge30" class="edge">
<title>Node25&#45;&gt;Node14</title>
<path fill="none" stroke="#63b8ff" d="M111.89,-109.75C106.99,-102.73 99.95,-92.64 93.83,-83.87"/>
<polygon fill="#63b8ff" stroke="#63b8ff" points="96.7,-81.88 88.11,-75.68 90.96,-85.89 96.7,-81.88"/>
</g>
<!-- Node28&#45;&gt;Node17 -->
<g id="edge38" class="edge">
<title>Node28&#45;&gt;Node17</title>
<path fill="none" stroke="#63b8ff" d="M1816.24,-164.66C1846.06,-146.15 1915.37,-103.13 1952.12,-80.32"/>
<polygon fill="#63b8ff" stroke="#63b8ff" points="1953.63,-83.51 1960.28,-75.26 1949.94,-77.56 1953.63,-83.51"/>
</g>
<!-- Node28&#45;&gt;Node18 -->
<g id="edge39" class="edge">
<title>Node28&#45;&gt;Node18</title>
<path fill="none" stroke="#63b8ff" d="M1830.67,-164.51C1858.43,-155.8 1900.75,-142.53 1931.65,-132.84"/>
<polygon fill="#63b8ff" stroke="#63b8ff" points="1932.53,-136.23 1941.03,-129.9 1930.44,-129.55 1932.53,-136.23"/>
</g>
<!-- Node29&#45;&gt;Node6 -->
<g id="edge43" class="edge">
<title>Node29&#45;&gt;Node6</title>
<path fill="none" stroke="#63b8ff" d="M740.32,-224.12C801.37,-214.86 933.47,-189 1027,-129 1045.46,-117.16 1061.64,-97.77 1071.99,-83.53"/>
<polygon fill="#63b8ff" stroke="#63b8ff" points="1074.75,-85.7 1077.59,-75.49 1069,-81.7 1074.75,-85.7"/>
</g>
<!-- Node29&#45;&gt;Node23 -->
<g id="edge45" class="edge">
<title>Node29&#45;&gt;Node23</title>
<path fill="none" stroke="#63b8ff" d="M732.82,-219.67C760.54,-208.74 798.52,-188.63 782,-165 755.75,-127.45 629.02,-92.93 558.18,-76.17"/>
<polygon fill="#63b8ff" stroke="#63b8ff" points="559.32,-72.84 548.79,-73.97 557.73,-79.65 559.32,-72.84"/>
</g>
<!-- Node30 -->
<g id="node30" class="node">
<title>Node30</title>
<g id="a_node30"><a xlink:href="Documentation_8hpp.html" target="_top" xlink:title=" ">
<polygon fill="white" stroke="#666666" points="772.5,-184 641.5,-184 641.5,-165 772.5,-165 772.5,-184"/>
<text text-anchor="middle" x="707" y="-172" font-family="Helvetica,sans-Serif" font-size="10.00">util/Documentation.hpp</text>
</a>
</g>
</g>
<!-- Node29&#45;&gt;Node30 -->
<g id="edge44" class="edge">
<title>Node29&#45;&gt;Node30</title>
<path fill="none" stroke="#63b8ff" d="M707,-219.75C707,-213.27 707,-204.16 707,-195.9"/>
<polygon fill="#63b8ff" stroke="#63b8ff" points="710.5,-195.96 707,-185.96 703.5,-195.96 710.5,-195.96"/>
</g>
<!-- Node31 -->
<g id="node31" class="node">
<title>Node31</title>
<g id="a_node31"><a xlink:href="Options_8hpp.html" target="_top" xlink:title=" ">
<polygon fill="white" stroke="#666666" points="623.5,-184 548.5,-184 548.5,-165 623.5,-165 623.5,-184"/>
<text text-anchor="middle" x="586" y="-172" font-family="Helvetica,sans-Serif" font-size="10.00">Options.hpp</text>
</a>
</g>
</g>
<!-- Node29&#45;&gt;Node31 -->
<g id="edge46" class="edge">
<title>Node29&#45;&gt;Node31</title>
<path fill="none" stroke="#63b8ff" d="M686.47,-219.51C667.32,-211.12 638.5,-198.5 616.63,-188.92"/>
<polygon fill="#63b8ff" stroke="#63b8ff" points="618.17,-185.77 607.61,-184.97 615.36,-192.18 618.17,-185.77"/>
</g>
<!-- Node31&#45;&gt;Node13 -->
<g id="edge47" class="edge">
<title>Node31&#45;&gt;Node13</title>
<path fill="none" stroke="#63b8ff" d="M586.19,-164.95C585.98,-151.06 583.37,-123.79 567,-110 518.38,-69.04 351.23,-84.9 270.54,-73.7"/>
<polygon fill="#63b8ff" stroke="#63b8ff" points="271.22,-70.27 260.78,-72.09 270.08,-77.17 271.22,-70.27"/>
</g>
<!-- Node32 -->
<g id="node32" class="node">
<title>Node32</title>
<g id="a_node32"><a xlink:href="CLI11_8hpp.html" target="_top" xlink:title=" ">
<polygon fill="white" stroke="#666666" points="1017.5,-129 918.5,-129 918.5,-110 1017.5,-110 1017.5,-129"/>
<text text-anchor="middle" x="968" y="-117" font-family="Helvetica,sans-Serif" font-size="10.00">extern/CLI11.hpp</text>
</a>
</g>
</g>
<!-- Node31&#45;&gt;Node32 -->
<g id="edge48" class="edge">
<title>Node31&#45;&gt;Node32</title>
<path fill="none" stroke="#63b8ff" d="M623.94,-166.48C627,-165.96 630.05,-165.46 633,-165 728.48,-150.03 839.78,-135.9 907.02,-127.73"/>
<polygon fill="#63b8ff" stroke="#63b8ff" points="907.22,-131.23 916.73,-126.55 906.38,-124.28 907.22,-131.23"/>
</g>
<!-- Node32&#45;&gt;Node8 -->
<g id="edge62" class="edge">
<title>Node32&#45;&gt;Node8</title>
<path fill="none" stroke="#63b8ff" d="M974.55,-109.7C980.77,-101.01 990.04,-87.13 996,-74 1002.35,-60.01 1007.24,-43.34 1010.47,-30.6"/>
<polygon fill="#63b8ff" stroke="#63b8ff" points="1013.88,-31.41 1012.79,-20.87 1007.07,-29.79 1013.88,-31.41"/>
</g>
<!-- Node32&#45;&gt;Node10 -->
<g id="edge58" class="edge">
<title>Node32&#45;&gt;Node10</title>
<path fill="none" stroke="#63b8ff" d="M1017.67,-110.99C1060.54,-103.5 1118.02,-90.71 1134,-74 1144.99,-62.5 1148.12,-44.43 1148.72,-30.5"/>
<polygon fill="#63b8ff" stroke="#63b8ff" points="1152.22,-30.69 1148.71,-20.69 1145.22,-30.7 1152.22,-30.69"/>
</g>
<!-- Node32&#45;&gt;Node11 -->
<g id="edge60" class="edge">
<title>Node32&#45;&gt;Node11</title>
<path fill="none" stroke="#63b8ff" d="M918.26,-114.64C831.11,-107.53 654.44,-91.48 595,-74 576.5,-68.56 574.45,-60.6 556,-55 456.17,-24.7 332.79,-14.98 270.69,-11.9"/>
<polygon fill="#63b8ff" stroke="#63b8ff" points="271.13,-8.41 260.98,-11.45 270.8,-15.41 271.13,-8.41"/>
</g>
<!-- Node32&#45;&gt;Node12 -->
<g id="edge51" class="edge">
<title>Node32&#45;&gt;Node12</title>
<path fill="none" stroke="#63b8ff" d="M1017.65,-109.65C1064.22,-100.79 1130.01,-86.7 1153,-74 1173.64,-62.59 1192.34,-42.85 1204.33,-28.4"/>
<polygon fill="#63b8ff" stroke="#63b8ff" points="1207.06,-30.6 1210.55,-20.59 1201.58,-26.23 1207.06,-30.6"/>
</g>
<!-- Node32&#45;&gt;Node13 -->
<g id="edge50" class="edge">
<title>Node32&#45;&gt;Node13</title>
<path fill="none" stroke="#63b8ff" d="M918.05,-118.66C804.52,-118.32 518.47,-113.42 270.3,-73.8"/>
<polygon fill="#63b8ff" stroke="#63b8ff" points="271.18,-70.4 260.75,-72.25 270.06,-77.31 271.18,-70.4"/>
</g>
<!-- Node32&#45;&gt;Node14 -->
<g id="edge63" class="edge">
<title>Node32&#45;&gt;Node14</title>
<path fill="none" stroke="#63b8ff" d="M918.27,-116.95C764.48,-112 297.05,-95.68 122.46,-74.04"/>
<polygon fill="#63b8ff" stroke="#63b8ff" points="123.02,-70.58 112.65,-72.77 122.12,-77.53 123.02,-70.58"/>
</g>
<!-- Node32&#45;&gt;Node16 -->
<g id="edge55" class="edge">
<title>Node32&#45;&gt;Node16</title>
<path fill="none" stroke="#63b8ff" d="M918.21,-117.57C813.62,-115.07 563.31,-106.12 343.88,-74.02"/>
<polygon fill="#63b8ff" stroke="#63b8ff" points="344.69,-70.6 334.29,-72.59 343.67,-77.52 344.69,-70.6"/>
</g>
<!-- Node32&#45;&gt;Node20 -->
<g id="edge54" class="edge">
<title>Node32&#45;&gt;Node20</title>
<path fill="none" stroke="#63b8ff" d="M918.08,-118.06C820.37,-116.44 597.04,-109.08 400.34,-73.77"/>
<polygon fill="#63b8ff" stroke="#63b8ff" points="401.16,-70.36 390.7,-72.01 399.91,-77.25 401.16,-70.36"/>
</g>
<!-- Node32&#45;&gt;Node21 -->
<g id="edge68" class="edge">
<title>Node32&#45;&gt;Node21</title>
<path fill="none" stroke="#63b8ff" d="M918.29,-116.81C829.43,-113.21 637.4,-102.78 465.95,-74.02"/>
<polygon fill="#63b8ff" stroke="#63b8ff" points="466.63,-70.58 456.18,-72.35 465.45,-77.48 466.63,-70.58"/>
</g>
<!-- Node32&#45;&gt;Node26 -->
<g id="edge61" class="edge">
<title>Node32&#45;&gt;Node26</title>
<path fill="none" stroke="#63b8ff" d="M1017.92,-111.46C1022.67,-110.92 1027.42,-110.42 1032,-110 1353.19,-80.83 1439.52,-114.46 1762.74,-74.06"/>
<polygon fill="#63b8ff" stroke="#63b8ff" points="1762.87,-77.58 1772.35,-72.85 1761.99,-70.63 1762.87,-77.58"/>
</g>
<!-- Node32&#45;&gt;Node27 -->
<g id="edge53" class="edge">
<title>Node32&#45;&gt;Node27</title>
<path fill="none" stroke="#63b8ff" d="M1017.91,-111.44C1022.67,-110.9 1027.42,-110.4 1032,-110 1389.47,-78.43 1485.76,-121.88 1844.58,-74.05"/>
<polygon fill="#63b8ff" stroke="#63b8ff" points="1844.87,-77.54 1854.32,-72.73 1843.94,-70.6 1844.87,-77.54"/>
</g>
<!-- Node33 -->
<g id="node33" class="node">
<title>Node33</title>
<g id="a_node33"><a xlink:title=" ">
<polygon fill="#e0e0e0" stroke="#999999" points="1277,-74 1219,-74 1219,-55 1277,-55 1277,-74"/>
<text text-anchor="middle" x="1248" y="-62" font-family="Helvetica,sans-Serif" font-size="10.00">memory</text>
</a>
</g>
</g>
<!-- Node32&#45;&gt;Node33 -->
<g id="edge49" class="edge">
<title>Node32&#45;&gt;Node33</title>
<path fill="none" stroke="#63b8ff" d="M1016.59,-109.52C1064.52,-100.62 1139.84,-86.56 1205,-74 1205.98,-73.81 1206.97,-73.62 1207.98,-73.42"/>
<polygon fill="#63b8ff" stroke="#63b8ff" points="1208.23,-76.94 1217.38,-71.59 1206.89,-70.07 1208.23,-76.94"/>
</g>
<!-- Node34 -->
<g id="node34" class="node">
<title>Node34</title>
<g id="a_node34"><a xlink:title=" ">
<polygon fill="#e0e0e0" stroke="#999999" points="1360.5,-74 1295.5,-74 1295.5,-55 1360.5,-55 1360.5,-74"/>
<text text-anchor="middle" x="1328" y="-62" font-family="Helvetica,sans-Serif" font-size="10.00">functional</text>
</a>
</g>
</g>
<!-- Node32&#45;&gt;Node34 -->
<g id="edge52" class="edge">
<title>Node32&#45;&gt;Node34</title>
<path fill="none" stroke="#63b8ff" d="M1017.92,-111.68C1093.82,-101.3 1233.94,-82.02 1283.72,-74.21"/>
<polygon fill="#63b8ff" stroke="#63b8ff" points="1284.22,-77.68 1293.53,-72.61 1283.09,-70.77 1284.22,-77.68"/>
</g>
<!-- Node35 -->
<g id="node35" class="node">
<title>Node35</title>
<g id="a_node35"><a xlink:title=" ">
<polygon fill="#e0e0e0" stroke="#999999" points="1419.5,-74 1378.5,-74 1378.5,-55 1419.5,-55 1419.5,-74"/>
<text text-anchor="middle" x="1399" y="-62" font-family="Helvetica,sans-Serif" font-size="10.00">tuple</text>
</a>
</g>
</g>
<!-- Node32&#45;&gt;Node35 -->
<g id="edge56" class="edge">
<title>Node32&#45;&gt;Node35</title>
<path fill="none" stroke="#63b8ff" d="M1017.95,-111.74C1022.69,-111.14 1027.44,-110.55 1032,-110 1178.34,-92.49 1219.8,-102.83 1366.95,-74.3"/>
<polygon fill="#63b8ff" stroke="#63b8ff" points="1367.58,-77.74 1376.72,-72.37 1366.23,-70.87 1367.58,-77.74"/>
</g>
<!-- Node36 -->
<g id="node36" class="node">
<title>Node36</title>
<g id="a_node36"><a xlink:title=" ">
<polygon fill="#e0e0e0" stroke="#999999" points="1482.5,-74 1437.5,-74 1437.5,-55 1482.5,-55 1482.5,-74"/>
<text text-anchor="middle" x="1460" y="-62" font-family="Helvetica,sans-Serif" font-size="10.00">utility</text>
</a>
</g>
</g>
<!-- Node32&#45;&gt;Node36 -->
<g id="edge57" class="edge">
<title>Node32&#45;&gt;Node36</title>
<path fill="none" stroke="#63b8ff" d="M1017.94,-111.66C1022.69,-111.07 1027.43,-110.51 1032,-110 1204.38,-90.75 1252.65,-104.92 1425.77,-74.3"/>
<polygon fill="#63b8ff" stroke="#63b8ff" points="1426.37,-77.75 1435.59,-72.54 1425.13,-70.86 1426.37,-77.75"/>
</g>
<!-- Node37 -->
<g id="node37" class="node">
<title>Node37</title>
<g id="a_node37"><a xlink:title=" ">
<polygon fill="#e0e0e0" stroke="#999999" points="1547,-74 1501,-74 1501,-55 1547,-55 1547,-74"/>
<text text-anchor="middle" x="1524" y="-62" font-family="Helvetica,sans-Serif" font-size="10.00">locale</text>
</a>
</g>
</g>
<!-- Node32&#45;&gt;Node37 -->
<g id="edge59" class="edge">
<title>Node32&#45;&gt;Node37</title>
<path fill="none" stroke="#63b8ff" d="M1017.93,-111.6C1022.68,-111.03 1027.43,-110.48 1032,-110 1232.25,-88.88 1287.85,-107.76 1489.41,-74.13"/>
<polygon fill="#63b8ff" stroke="#63b8ff" points="1489.92,-77.59 1499.2,-72.47 1488.75,-70.69 1489.92,-77.59"/>
</g>
<!-- Node38 -->
<g id="node38" class="node">
<title>Node38</title>
<g id="a_node38"><a xlink:title=" ">
<polygon fill="#e0e0e0" stroke="#999999" points="1597,-74 1565,-74 1565,-55 1597,-55 1597,-74"/>
<text text-anchor="middle" x="1581" y="-62" font-family="Helvetica,sans-Serif" font-size="10.00">set</text>
</a>
</g>
</g>
<!-- Node32&#45;&gt;Node38 -->
<g id="edge64" class="edge">
<title>Node32&#45;&gt;Node38</title>
<path fill="none" stroke="#63b8ff" d="M1017.93,-111.56C1022.68,-110.99 1027.43,-110.46 1032,-110 1260.64,-86.99 1325.12,-118.93 1553.75,-73.9"/>
<polygon fill="#63b8ff" stroke="#63b8ff" points="1554.16,-77.39 1563.28,-71.99 1552.78,-70.52 1554.16,-77.39"/>
</g>
<!-- Node39 -->
<g id="node39" class="node">
<title>Node39</title>
<g id="a_node39"><a xlink:title=" ">
<polygon fill="#e0e0e0" stroke="#999999" points="1684.5,-74 1615.5,-74 1615.5,-55 1684.5,-55 1684.5,-74"/>
<text text-anchor="middle" x="1650" y="-62" font-family="Helvetica,sans-Serif" font-size="10.00">type_traits</text>
</a>
</g>
</g>
<!-- Node32&#45;&gt;Node39 -->
<g id="edge65" class="edge">
<title>Node32&#45;&gt;Node39</title>
<path fill="none" stroke="#63b8ff" d="M1017.92,-111.53C1022.68,-110.97 1027.43,-110.45 1032,-110 1282.68,-85.52 1350.46,-105.7 1603.59,-74.12"/>
<polygon fill="#63b8ff" stroke="#63b8ff" points="1604.02,-77.6 1613.5,-72.87 1603.14,-70.65 1604.02,-77.6"/>
</g>
<!-- Node40 -->
<g id="node40" class="node">
<title>Node40</title>
<g id="a_node40"><a xlink:title=" ">
<polygon fill="#e0e0e0" stroke="#999999" points="1755.5,-74 1702.5,-74 1702.5,-55 1755.5,-55 1755.5,-74"/>
<text text-anchor="middle" x="1729" y="-62" font-family="Helvetica,sans-Serif" font-size="10.00">iterator</text>
</a>
</g>
</g>
<!-- Node32&#45;&gt;Node40 -->
<g id="edge66" class="edge">
<title>Node32&#45;&gt;Node40</title>
<path fill="none" stroke="#63b8ff" d="M1017.92,-111.49C1022.67,-110.94 1027.42,-110.43 1032,-110 1321.65,-82.93 1400.5,-116.09 1691.03,-74.16"/>
<polygon fill="#63b8ff" stroke="#63b8ff" points="1691.46,-77.64 1700.85,-72.73 1690.45,-70.71 1691.46,-77.64"/>
</g>
<!-- Node41 -->
<g id="node41" class="node">
<title>Node41</title>
<g id="a_node41"><a xlink:title=" ">
<polygon fill="#e0e0e0" stroke="#999999" points="668.5,-74 603.5,-74 603.5,-55 668.5,-55 668.5,-74"/>
<text text-anchor="middle" x="636" y="-62" font-family="Helvetica,sans-Serif" font-size="10.00">stdexcept</text>
</a>
</g>
</g>
<!-- Node32&#45;&gt;Node41 -->
<g id="edge67" class="edge">
<title>Node32&#45;&gt;Node41</title>
<path fill="none" stroke="#63b8ff" d="M918.11,-111.58C862.55,-103.71 769.8,-90.08 680.18,-74.31"/>
<polygon fill="#63b8ff" stroke="#63b8ff" points="680.93,-70.89 670.48,-72.59 679.71,-77.79 680.93,-70.89"/>
</g>
<!-- Node42 -->
<g id="node42" class="node">
<title>Node42</title>
<g id="a_node42"><a xlink:title=" ">
<polygon fill="#e0e0e0" stroke="#999999" points="731,-74 687,-74 687,-55 731,-55 731,-74"/>
<text text-anchor="middle" x="709" y="-62" font-family="Helvetica,sans-Serif" font-size="10.00">limits</text>
</a>
</g>
</g>
<!-- Node32&#45;&gt;Node42 -->
<g id="edge69" class="edge">
<title>Node32&#45;&gt;Node42</title>
<path fill="none" stroke="#63b8ff" d="M918.2,-109.72C874.51,-101.79 809.02,-89.38 742.46,-74.2"/>
<polygon fill="#63b8ff" stroke="#63b8ff" points="743.34,-70.81 732.81,-71.97 741.77,-77.63 743.34,-70.81"/>
</g>
<!-- Node43 -->
<g id="node43" class="node">
<title>Node43</title>
<g id="a_node43"><a xlink:title=" ">
<polygon fill="#e0e0e0" stroke="#999999" points="814.5,-74 749.5,-74 749.5,-55 814.5,-55 814.5,-74"/>
<text text-anchor="middle" x="782" y="-62" font-family="Helvetica,sans-Serif" font-size="10.00">exception</text>
</a>
</g>
</g>
<!-- Node32&#45;&gt;Node43 -->
<g id="edge70" class="edge">
<title>Node32&#45;&gt;Node43</title>
<path fill="none" stroke="#63b8ff" d="M936.45,-109.51C905.63,-100.73 858.5,-87.3 824.41,-77.59"/>
<polygon fill="#63b8ff" stroke="#63b8ff" points="825.43,-74.24 814.85,-74.86 823.51,-80.97 825.43,-74.24"/>
</g>
<!-- Node44 -->
<g id="node44" class="node">
<title>Node44</title>
<g id="a_node44"><a xlink:title=" ">
<polygon fill="#e0e0e0" stroke="#999999" points="897,-74 833,-74 833,-55 897,-55 897,-74"/>
<text text-anchor="middle" x="865" y="-62" font-family="Helvetica,sans-Serif" font-size="10.00">sys/stat.h</text>
</a>
</g>
</g>
<!-- Node32&#45;&gt;Node44 -->
<g id="edge71" class="edge">
<title>Node32&#45;&gt;Node44</title>
<path fill="none" stroke="#63b8ff" d="M950.53,-109.51C934.6,-101.31 910.81,-89.07 892.36,-79.58"/>
<polygon fill="#63b8ff" stroke="#63b8ff" points="894.05,-76.51 883.56,-75.05 890.85,-82.74 894.05,-76.51"/>
</g>
<!-- Node45 -->
<g id="node45" class="node">
<title>Node45</title>
<g id="a_node45"><a xlink:title=" ">
<polygon fill="#e0e0e0" stroke="#999999" points="987,-74 915,-74 915,-55 987,-55 987,-74"/>
<text text-anchor="middle" x="951" y="-62" font-family="Helvetica,sans-Serif" font-size="10.00">sys/types.h</text>
</a>
</g>
</g>
<!-- Node32&#45;&gt;Node45 -->
<g id="edge72" class="edge">
<title>Node32&#45;&gt;Node45</title>
<path fill="none" stroke="#63b8ff" d="M965.19,-109.75C963.06,-103.11 960.06,-93.73 957.36,-85.31"/>
<polygon fill="#63b8ff" stroke="#63b8ff" points="960.72,-84.34 954.33,-75.88 954.05,-86.47 960.72,-84.34"/>
</g>
</g>
</svg>
