<?xml version="1.0" encoding="UTF-8" standalone="no"?>
<!DOCTYPE svg PUBLIC "-//W3C//DTD SVG 1.1//EN"
 "http://www.w3.org/Graphics/SVG/1.1/DTD/svg11.dtd">
<!-- Generated by graphviz version 8.1.0 (0)
 -->
<!-- Title: ghc::filesystem::detail::make_error_code Pages: 1 -->
<svg width="655pt" height="270pt"
 viewBox="0.00 0.00 654.75 270.45" xmlns="http://www.w3.org/2000/svg" xmlns:xlink="http://www.w3.org/1999/xlink">
<g id="graph0" class="graph" transform="scale(1 1) rotate(0) translate(4 266.45)">
<title>ghc::filesystem::detail::make_error_code</title>
<!-- Node1 -->
<g id="Node000001" class="node">
<title>Node1</title>
<g id="a_Node000001"><a xlink:title=" ">
<polygon fill="#999999" stroke="#666666" points="646.75,-157.12 522.75,-157.12 522.75,-123.62 646.75,-123.62 646.75,-157.12"/>
<text text-anchor="start" x="530.75" y="-143.62" font-family="Helvetica,sans-Serif" font-size="10.00">ghc::filesystem::detail</text>
<text text-anchor="middle" x="584.75" y="-130.88" font-family="Helvetica,sans-Serif" font-size="10.00">::make_error_code</text>
</a>
</g>
</g>
<!-- Node2 -->
<g id="Node000002" class="node">
<title>Node2</title>
<g id="a_Node000002"><a xlink:href="namespaceghc_1_1filesystem.html#a7b3c694c41ff9bc3881305d910fbdfe2" target="_top" xlink:title=" ">
<polygon fill="white" stroke="#666666" points="119.5,-163.75 0,-163.75 0,-143 119.5,-143 119.5,-163.75"/>
<text text-anchor="middle" x="59.75" y="-150.25" font-family="Helvetica,sans-Serif" font-size="10.00">ghc::filesystem::copy</text>
</a>
</g>
</g>
<!-- Node1&#45;&gt;Node2 -->
<g id="edge1_Node000001_Node000002" class="edge">
<title>Node1&#45;&gt;Node2</title>
<g id="a_edge1_Node000001_Node000002"><a xlink:title=" ">
<path fill="none" stroke="#63b8ff" d="M564.41,-165.96C546.81,-186.95 518.73,-215.13 486.75,-227.38 349.23,-280.01 294.88,-268.85 155.5,-221.38 120.62,-209.49 87.44,-180.14 71.18,-164.16"/>
<polygon fill="#63b8ff" stroke="#63b8ff" points="567.72,-168.44 571.3,-158.47 562.28,-164.03 567.72,-168.44"/>
</a>
</g>
</g>
<!-- Node3 -->
<g id="Node000003" class="node">
<title>Node3</title>
<g id="a_Node000003"><a xlink:href="namespaceghc_1_1filesystem.html#a099a0149ef7c7a5e22977a35e39ac072" target="_top" xlink:title=" ">
<polygon fill="white" stroke="#666666" points="478.88,-218.75 339.12,-218.75 339.12,-198 478.88,-198 478.88,-218.75"/>
<text text-anchor="middle" x="409" y="-205.25" font-family="Helvetica,sans-Serif" font-size="10.00">ghc::filesystem::copy_file</text>
</a>
</g>
</g>
<!-- Node1&#45;&gt;Node3 -->
<g id="edge2_Node000001_Node000003" class="edge">
<title>Node1&#45;&gt;Node3</title>
<g id="a_edge2_Node000001_Node000003"><a xlink:title=" ">
<path fill="none" stroke="#63b8ff" d="M545.11,-162.41C527.69,-171.69 506.6,-182.01 486.75,-189.38 478.38,-192.48 469.32,-195.23 460.45,-197.61"/>
<polygon fill="#63b8ff" stroke="#63b8ff" points="546.26,-165.23 553.38,-157.4 542.92,-159.08 546.26,-165.23"/>
</a>
</g>
</g>
<!-- Node4 -->
<g id="Node000004" class="node">
<title>Node4</title>
<g id="a_Node000004"><a xlink:href="namespaceghc_1_1filesystem.html#a71844f4df785fdb9020a0cca08d68772" target="_top" xlink:title=" ">
<polygon fill="white" stroke="#666666" points="468,-180.12 350,-180.12 350,-146.62 468,-146.62 468,-180.12"/>
<text text-anchor="start" x="358" y="-166.62" font-family="Helvetica,sans-Serif" font-size="10.00">ghc::filesystem::hard</text>
<text text-anchor="middle" x="409" y="-153.88" font-family="Helvetica,sans-Serif" font-size="10.00">_link_count</text>
</a>
</g>
</g>
<!-- Node1&#45;&gt;Node4 -->
<g id="edge3_Node000001_Node000004" class="edge">
<title>Node1&#45;&gt;Node4</title>
<g id="a_edge3_Node000001_Node000004"><a xlink:title=" ">
<path fill="none" stroke="#63b8ff" d="M511.61,-149.92C497.21,-151.83 482.25,-153.81 468.37,-155.65"/>
<polygon fill="#63b8ff" stroke="#63b8ff" points="512.04,-153.27 521.49,-148.48 511.12,-146.33 512.04,-153.27"/>
</a>
</g>
</g>
<!-- Node7 -->
<g id="Node000007" class="node">
<title>Node7</title>
<g id="a_Node000007"><a xlink:href="namespaceghc_1_1filesystem.html#a207525516cd985b88413c1827ebf573e" target="_top" xlink:title=" ">
<polygon fill="white" stroke="#666666" points="486.75,-128.75 331.25,-128.75 331.25,-108 486.75,-108 486.75,-128.75"/>
<text text-anchor="middle" x="409" y="-115.25" font-family="Helvetica,sans-Serif" font-size="10.00">ghc::filesystem::permissions</text>
</a>
</g>
</g>
<!-- Node1&#45;&gt;Node7 -->
<g id="edge6_Node000001_Node000007" class="edge">
<title>Node1&#45;&gt;Node7</title>
<g id="a_edge6_Node000001_Node000007"><a xlink:title=" ">
<path fill="none" stroke="#63b8ff" d="M511.61,-131.24C503.53,-130.22 495.28,-129.17 487.14,-128.14"/>
<polygon fill="#63b8ff" stroke="#63b8ff" points="511.13,-134.83 521.49,-132.62 512.01,-127.89 511.13,-134.83"/>
</a>
</g>
</g>
<!-- Node8 -->
<g id="Node000008" class="node">
<title>Node8</title>
<g id="a_Node000008"><a xlink:href="namespaceghc_1_1filesystem.html#ae137f8365fc1d40f58b411d36213c154" target="_top" xlink:title=" ">
<polygon fill="white" stroke="#666666" points="468,-90.12 350,-90.12 350,-56.62 468,-56.62 468,-90.12"/>
<text text-anchor="start" x="358" y="-76.62" font-family="Helvetica,sans-Serif" font-size="10.00">ghc::filesystem::read</text>
<text text-anchor="middle" x="409" y="-63.88" font-family="Helvetica,sans-Serif" font-size="10.00">_symlink</text>
</a>
</g>
</g>
<!-- Node1&#45;&gt;Node8 -->
<g id="edge7_Node000001_Node000008" class="edge">
<title>Node1&#45;&gt;Node8</title>
<g id="a_edge7_Node000001_Node000008"><a xlink:title=" ">
<path fill="none" stroke="#63b8ff" d="M535.03,-118.96C519.68,-112.43 502.59,-105.4 486.75,-99.38 478.86,-96.38 470.45,-93.35 462.2,-90.49"/>
<polygon fill="#63b8ff" stroke="#63b8ff" points="533.27,-122.44 543.84,-123.16 536.03,-116.01 533.27,-122.44"/>
</a>
</g>
</g>
<!-- Node10 -->
<g id="Node000010" class="node">
<title>Node10</title>
<g id="a_Node000010"><a xlink:href="namespaceghc_1_1filesystem.html#a1b6f115fbbafa333441fc326a9dcb4a5" target="_top" xlink:title=" ">
<polygon fill="white" stroke="#666666" points="484.5,-20.75 333.5,-20.75 333.5,0 484.5,0 484.5,-20.75"/>
<text text-anchor="middle" x="409" y="-7.25" font-family="Helvetica,sans-Serif" font-size="10.00">ghc::filesystem::remove_all</text>
</a>
</g>
</g>
<!-- Node1&#45;&gt;Node10 -->
<g id="edge10_Node000001_Node000010" class="edge">
<title>Node1&#45;&gt;Node10</title>
<g id="a_edge10_Node000001_Node000010"><a xlink:title=" ">
<path fill="none" stroke="#63b8ff" d="M561.62,-115.15C543.06,-95.02 515.09,-67.05 486.75,-47.38 471.56,-36.83 452.91,-27.76 437.79,-21.24"/>
<polygon fill="#63b8ff" stroke="#63b8ff" points="558.66,-117.19 567.98,-122.24 563.84,-112.49 558.66,-117.19"/>
</a>
</g>
</g>
<!-- Node5 -->
<g id="Node000005" class="node">
<title>Node5</title>
<g id="a_Node000005"><a xlink:href="classghc_1_1filesystem_1_1directory__entry.html#ade774f6f7531d691ab013106980d0027" target="_top" xlink:title=" ">
<polygon fill="white" stroke="#666666" points="295.25,-212.12 155.5,-212.12 155.5,-178.62 295.25,-178.62 295.25,-212.12"/>
<text text-anchor="start" x="163.5" y="-198.62" font-family="Helvetica,sans-Serif" font-size="10.00">ghc::filesystem::directory</text>
<text text-anchor="middle" x="225.38" y="-185.88" font-family="Helvetica,sans-Serif" font-size="10.00">_entry::hard_link_count</text>
</a>
</g>
</g>
<!-- Node4&#45;&gt;Node5 -->
<g id="edge4_Node000004_Node000005" class="edge">
<title>Node4&#45;&gt;Node5</title>
<g id="a_edge4_Node000004_Node000005"><a xlink:title=" ">
<path fill="none" stroke="#63b8ff" d="M338.85,-175.56C324.65,-178.06 309.7,-180.69 295.51,-183.2"/>
<polygon fill="#63b8ff" stroke="#63b8ff" points="339.29,-178.86 348.53,-173.68 338.08,-171.96 339.29,-178.86"/>
</a>
</g>
</g>
<!-- Node6 -->
<g id="Node000006" class="node">
<title>Node6</title>
<g id="a_Node000006"><a xlink:href="classghc_1_1filesystem_1_1directory__entry.html#aa9cb09a4d0c29cdaaee1fc41cabdc118" target="_top" xlink:title=" ">
<polygon fill="white" stroke="#666666" points="295.25,-160.12 155.5,-160.12 155.5,-126.62 295.25,-126.62 295.25,-160.12"/>
<text text-anchor="start" x="163.5" y="-146.62" font-family="Helvetica,sans-Serif" font-size="10.00">ghc::filesystem::directory</text>
<text text-anchor="middle" x="225.38" y="-133.88" font-family="Helvetica,sans-Serif" font-size="10.00">_entry::operator=</text>
</a>
</g>
</g>
<!-- Node4&#45;&gt;Node6 -->
<g id="edge5_Node000004_Node000006" class="edge">
<title>Node4&#45;&gt;Node6</title>
<g id="a_edge5_Node000004_Node000006"><a xlink:title=" ">
<path fill="none" stroke="#63b8ff" d="M338.85,-155.76C324.65,-154.2 309.7,-152.55 295.51,-150.99"/>
<polygon fill="#63b8ff" stroke="#63b8ff" points="338.21,-159.32 348.53,-156.94 338.98,-152.36 338.21,-159.32"/>
</a>
</g>
</g>
<!-- Node9 -->
<g id="Node000009" class="node">
<title>Node9</title>
<g id="a_Node000009"><a xlink:href="namespaceghc_1_1filesystem.html#ae53bc3ef946a2f45fb2eeb5c0cdb46b1" target="_top" xlink:title=" ">
<polygon fill="white" stroke="#666666" points="285.12,-96.12 165.62,-96.12 165.62,-62.62 285.12,-62.62 285.12,-96.12"/>
<text text-anchor="start" x="173.62" y="-82.62" font-family="Helvetica,sans-Serif" font-size="10.00">ghc::filesystem::copy</text>
<text text-anchor="middle" x="225.38" y="-69.88" font-family="Helvetica,sans-Serif" font-size="10.00">_symlink</text>
</a>
</g>
</g>
<!-- Node8&#45;&gt;Node9 -->
<g id="edge8_Node000008_Node000009" class="edge">
<title>Node8&#45;&gt;Node9</title>
<g id="a_edge8_Node000008_Node000009"><a xlink:title=" ">
<path fill="none" stroke="#63b8ff" d="M338.75,-75.66C321.14,-76.24 302.39,-76.86 285.36,-77.43"/>
<polygon fill="#63b8ff" stroke="#63b8ff" points="338.65,-79.13 348.53,-75.31 338.42,-72.14 338.65,-79.13"/>
</a>
</g>
</g>
<!-- Node9&#45;&gt;Node2 -->
<g id="edge9_Node000009_Node000002" class="edge">
<title>Node9&#45;&gt;Node2</title>
<g id="a_edge9_Node000009_Node000002"><a xlink:title=" ">
<path fill="none" stroke="#63b8ff" d="M176.47,-101.04C146.16,-114.75 108.31,-131.87 84.32,-142.71"/>
<polygon fill="#63b8ff" stroke="#63b8ff" points="177.76,-103.85 185.42,-96.54 174.87,-97.47 177.76,-103.85"/>
</a>
</g>
</g>
<!-- Node10&#45;&gt;Node10 -->
<g id="edge11_Node000010_Node000010" class="edge">
<title>Node10&#45;&gt;Node10</title>
<g id="a_edge11_Node000010_Node000010"><a xlink:title=" ">
<path fill="none" stroke="#63b8ff" d="M440.57,-31.57C436.99,-35.76 426.46,-38.75 409,-38.75 378.79,-38.75 369.35,-29.81 380.68,-21.15"/>
<polygon fill="#63b8ff" stroke="#63b8ff" points="443.64,-30.65 437.32,-22.15 436.95,-32.74 443.64,-30.65"/>
</a>
</g>
</g>
</g>
</svg>
