<?xml version="1.0" encoding="UTF-8" standalone="no"?>
<!DOCTYPE svg PUBLIC "-//W3C//DTD SVG 1.1//EN"
 "http://www.w3.org/Graphics/SVG/1.1/DTD/svg11.dtd">
<!-- Generated by graphviz version 5.0.1 (0)
 -->
<!-- Title: CLI::detail::ini_join Pages: 1 -->
<svg width="259pt" height="56pt"
 viewBox="0.00 0.00 259.00 56.00" xmlns="http://www.w3.org/2000/svg" xmlns:xlink="http://www.w3.org/1999/xlink">
<g id="graph0" class="graph" transform="scale(1 1) rotate(0) translate(4 52)">
<title>CLI::detail::ini_join</title>
<!-- Node1 -->
<g id="node1" class="node">
<title>Node1</title>
<g id="a_node1"><a xlink:title="Comma separated join, adds quotes if needed.">
<polygon fill="#999999" stroke="#666666" points="107,-24.5 0,-24.5 0,-5.5 107,-5.5 107,-24.5"/>
<text text-anchor="middle" x="53.5" y="-12.5" font-family="Helvetica,sans-Serif" font-size="10.00">CLI::detail::ini_join</text>
</a>
</g>
</g>
<!-- Node1&#45;&gt;Node1 -->
<g id="edge3" class="edge">
<title>Node1&#45;&gt;Node1</title>
<path fill="none" stroke="#63b8ff" d="M31.61,-24.58C20.97,-33.23 28.26,-42.5 53.5,-42.5 69.67,-42.5 78.47,-38.7 79.91,-33.69"/>
<polygon fill="#63b8ff" stroke="#63b8ff" points="82.97,-31.98 75.39,-24.58 76.7,-35.1 82.97,-31.98"/>
</g>
<!-- Node2 -->
<g id="node2" class="node">
<title>Node2</title>
<g id="a_node2"><a xlink:href="namespaceCLI_1_1detail.html#a2382165480a50710d41e421dd54079a7" target="_top" xlink:title=" ">
<polygon fill="white" stroke="#666666" points="251,-30 143,-30 143,0 251,0 251,-30"/>
<text text-anchor="start" x="151" y="-18" font-family="Helvetica,sans-Serif" font-size="10.00">CLI::detail::convert</text>
<text text-anchor="middle" x="197" y="-7" font-family="Helvetica,sans-Serif" font-size="10.00">_arg_for_ini</text>
</a>
</g>
</g>
<!-- Node1&#45;&gt;Node2 -->
<g id="edge1" class="edge">
<title>Node1&#45;&gt;Node2</title>
<path fill="none" stroke="#63b8ff" d="M107.19,-15C115.46,-15 124.08,-15 132.56,-15"/>
<polygon fill="#63b8ff" stroke="#63b8ff" points="132.79,-18.5 142.79,-15 132.79,-11.5 132.79,-18.5"/>
</g>
<!-- Node2&#45;&gt;Node2 -->
<g id="edge2" class="edge">
<title>Node2&#45;&gt;Node2</title>
<path fill="none" stroke="#63b8ff" d="M172.04,-30.28C166.49,-39.41 174.81,-48 197,-48 210.17,-48 218.46,-44.97 221.86,-40.6"/>
<polygon fill="#63b8ff" stroke="#63b8ff" points="225.36,-40.31 221.96,-30.28 218.36,-40.24 225.36,-40.31"/>
</g>
</g>
</svg>
