<?xml version="1.0" encoding="UTF-8" standalone="no"?>
<!DOCTYPE svg PUBLIC "-//W3C//DTD SVG 1.1//EN"
 "http://www.w3.org/Graphics/SVG/1.1/DTD/svg11.dtd">
<!-- Generated by graphviz version 8.1.0 (0)
 -->
<!-- Title: ghc::filesystem::weakly_canonical Pages: 1 -->
<svg width="1121pt" height="436pt"
 viewBox="0.00 0.00 1120.50 436.12" xmlns="http://www.w3.org/2000/svg" xmlns:xlink="http://www.w3.org/1999/xlink">
<g id="graph0" class="graph" transform="scale(1 1) rotate(0) translate(4 432.12)">
<title>ghc::filesystem::weakly_canonical</title>
<!-- Node1 -->
<g id="Node000001" class="node">
<title>Node1</title>
<g id="a_Node000001"><a xlink:title=" ">
<polygon fill="#999999" stroke="#666666" points="131.5,-344.5 0,-344.5 0,-311 131.5,-311 131.5,-344.5"/>
<text text-anchor="start" x="8" y="-331" font-family="Helvetica,sans-Serif" font-size="10.00">ghc::filesystem::weakly</text>
<text text-anchor="middle" x="65.75" y="-318.25" font-family="Helvetica,sans-Serif" font-size="10.00">_canonical</text>
</a>
</g>
</g>
<!-- Node2 -->
<g id="Node000002" class="node">
<title>Node2</title>
<g id="a_Node000002"><a xlink:href="namespaceghc_1_1filesystem.html#a83d56af2b2b953afe4fb17de0bd64987" target="_top" xlink:title=" ">
<polygon fill="white" stroke="#666666" points="310.25,-428.12 167.5,-428.12 167.5,-407.38 310.25,-407.38 310.25,-428.12"/>
<text text-anchor="middle" x="238.88" y="-414.62" font-family="Helvetica,sans-Serif" font-size="10.00">ghc::filesystem::canonical</text>
</a>
</g>
</g>
<!-- Node1&#45;&gt;Node2 -->
<g id="edge1_Node000001_Node000002" class="edge">
<title>Node1&#45;&gt;Node2</title>
<g id="a_edge1_Node000001_Node000002"><a xlink:title=" ">
<path fill="none" stroke="#63b8ff" d="M86.65,-344.99C106.08,-361.01 137.09,-384.48 167.5,-398.75 171.09,-400.44 174.86,-401.99 178.7,-403.43"/>
<polygon fill="#63b8ff" stroke="#63b8ff" points="177.4,-407.03 188,-406.95 179.67,-400.4 177.4,-407.03"/>
</a>
</g>
</g>
<!-- Node3 -->
<g id="Node000003" class="node">
<title>Node3</title>
<g id="a_Node000003"><a xlink:href="classghc_1_1filesystem_1_1path.html#a08d9cc6bfa72c5a9ff2acde0b1e89465" target="_top" xlink:title=" ">
<polygon fill="white" stroke="#666666" points="297.88,-389.5 179.88,-389.5 179.88,-356 297.88,-356 297.88,-389.5"/>
<text text-anchor="start" x="187.88" y="-376" font-family="Helvetica,sans-Serif" font-size="10.00">ghc::filesystem::path</text>
<text text-anchor="middle" x="238.88" y="-363.25" font-family="Helvetica,sans-Serif" font-size="10.00">::clear</text>
</a>
</g>
</g>
<!-- Node1&#45;&gt;Node3 -->
<g id="edge2_Node000001_Node000003" class="edge">
<title>Node1&#45;&gt;Node3</title>
<g id="a_edge2_Node000001_Node000003"><a xlink:title=" ">
<path fill="none" stroke="#63b8ff" d="M131.93,-344.89C144.06,-348.08 156.77,-351.42 169,-354.64"/>
<polygon fill="#63b8ff" stroke="#63b8ff" points="168.04,-358.27 178.6,-357.43 169.82,-351.5 168.04,-358.27"/>
</a>
</g>
</g>
<!-- Node4 -->
<g id="Node000004" class="node">
<title>Node4</title>
<g id="a_Node000004"><a xlink:href="classghc_1_1filesystem_1_1path.html#a66ead77fddc75c0e9ebfbf3f1fe555aa" target="_top" xlink:title=" ">
<polygon fill="white" stroke="#666666" points="780.5,-265.5 662.5,-265.5 662.5,-232 780.5,-232 780.5,-265.5"/>
<text text-anchor="start" x="670.5" y="-252" font-family="Helvetica,sans-Serif" font-size="10.00">ghc::filesystem::path</text>
<text text-anchor="middle" x="721.5" y="-239.25" font-family="Helvetica,sans-Serif" font-size="10.00">::empty</text>
</a>
</g>
</g>
<!-- Node1&#45;&gt;Node4 -->
<g id="edge3_Node000001_Node000004" class="edge">
<title>Node1&#45;&gt;Node4</title>
<g id="a_edge3_Node000001_Node000004"><a xlink:title=" ">
<path fill="none" stroke="#63b8ff" d="M131.9,-320.87C236.38,-309.69 447.81,-286.43 626.5,-262.75 634.52,-261.69 642.91,-260.52 651.24,-259.32"/>
<polygon fill="#63b8ff" stroke="#63b8ff" points="651.73,-262.64 661.12,-257.74 650.72,-255.72 651.73,-262.64"/>
</a>
</g>
</g>
<!-- Node5 -->
<g id="Node000005" class="node">
<title>Node5</title>
<g id="a_Node000005"><a xlink:href="namespaceghc_1_1filesystem.html#a4e2495a21917ad1123a992e55a0b3e32" target="_top" xlink:title=" ">
<polygon fill="white" stroke="#666666" points="301.62,-169.12 176.12,-169.12 176.12,-148.38 301.62,-148.38 301.62,-169.12"/>
<text text-anchor="middle" x="238.88" y="-155.62" font-family="Helvetica,sans-Serif" font-size="10.00">ghc::filesystem::exists</text>
</a>
</g>
</g>
<!-- Node1&#45;&gt;Node5 -->
<g id="edge4_Node000001_Node000005" class="edge">
<title>Node1&#45;&gt;Node5</title>
<g id="a_edge4_Node000001_Node000005"><a xlink:title=" ">
<path fill="none" stroke="#63b8ff" d="M82.46,-310.68C101.99,-289.61 136.55,-252.89 167.5,-222.75 183.86,-206.82 203.09,-189.42 217.3,-176.79"/>
<polygon fill="#63b8ff" stroke="#63b8ff" points="219.26,-179.85 224.44,-170.6 214.63,-174.6 219.26,-179.85"/>
</a>
</g>
</g>
<!-- Node7 -->
<g id="Node000007" class="node">
<title>Node7</title>
<g id="a_Node000007"><a xlink:href="classghc_1_1filesystem_1_1path.html#afdd1e7ec9fb46eba045ddb6c95c42bf1" target="_top" xlink:title=" ">
<polygon fill="white" stroke="#666666" points="297.88,-265.5 179.88,-265.5 179.88,-232 297.88,-232 297.88,-265.5"/>
<text text-anchor="start" x="187.88" y="-252" font-family="Helvetica,sans-Serif" font-size="10.00">ghc::filesystem::path</text>
<text text-anchor="middle" x="238.88" y="-239.25" font-family="Helvetica,sans-Serif" font-size="10.00">::lexically_normal</text>
</a>
</g>
</g>
<!-- Node1&#45;&gt;Node7 -->
<g id="edge6_Node000001_Node000007" class="edge">
<title>Node1&#45;&gt;Node7</title>
<g id="a_edge6_Node000001_Node000007"><a xlink:title=" ">
<path fill="none" stroke="#63b8ff" d="M103.88,-310.61C129.36,-298.85 163.38,-283.14 190.76,-270.5"/>
<polygon fill="#63b8ff" stroke="#63b8ff" points="191.91,-273.36 199.52,-265.99 188.97,-267.01 191.91,-273.36"/>
</a>
</g>
</g>
<!-- Node6 -->
<g id="Node000006" class="node">
<title>Node6</title>
<g id="a_Node000006"><a xlink:href="namespaceghc_1_1filesystem.html#a2f5d075292823eda15f4b1091ef1da60" target="_top" xlink:title=" ">
<polygon fill="white" stroke="#666666" points="472.5,-130.5 346.25,-130.5 346.25,-97 472.5,-97 472.5,-130.5"/>
<text text-anchor="start" x="354.25" y="-117" font-family="Helvetica,sans-Serif" font-size="10.00">ghc::filesystem::status</text>
<text text-anchor="middle" x="409.38" y="-104.25" font-family="Helvetica,sans-Serif" font-size="10.00">_known</text>
</a>
</g>
</g>
<!-- Node5&#45;&gt;Node6 -->
<g id="edge5_Node000005_Node000006" class="edge">
<title>Node5&#45;&gt;Node6</title>
<g id="a_edge5_Node000005_Node000006"><a xlink:title=" ">
<path fill="none" stroke="#63b8ff" d="M280.23,-147.97C296.83,-143.54 316.57,-138.27 335.54,-133.2"/>
<polygon fill="#63b8ff" stroke="#63b8ff" points="336.2,-136.38 344.96,-130.42 334.4,-129.62 336.2,-136.38"/>
</a>
</g>
</g>
<!-- Node7&#45;&gt;Node4 -->
<g id="edge7_Node000007_Node000004" class="edge">
<title>Node7&#45;&gt;Node4</title>
<g id="a_edge7_Node000007_Node000004"><a xlink:title=" ">
<path fill="none" stroke="#63b8ff" d="M298.33,-248.75C387.25,-248.75 556.16,-248.75 651.15,-248.75"/>
<polygon fill="#63b8ff" stroke="#63b8ff" points="651.08,-252.25 661.08,-248.75 651.08,-245.25 651.08,-252.25"/>
</a>
</g>
</g>
<!-- Node8 -->
<g id="Node000008" class="node">
<title>Node8</title>
<g id="a_Node000008"><a xlink:href="classghc_1_1filesystem_1_1path.html#af62a148e592fc444fea5f195896a6a2e" target="_top" xlink:title=" ">
<polygon fill="white" stroke="#666666" points="958.5,-259.12 816.5,-259.12 816.5,-238.38 958.5,-238.38 958.5,-259.12"/>
<text text-anchor="middle" x="887.5" y="-245.62" font-family="Helvetica,sans-Serif" font-size="10.00">ghc::filesystem::path::end</text>
</a>
</g>
</g>
<!-- Node7&#45;&gt;Node8 -->
<g id="edge8_Node000007_Node000008" class="edge">
<title>Node7&#45;&gt;Node8</title>
<g id="a_edge8_Node000007_Node000008"><a xlink:title=" ">
<path fill="none" stroke="#63b8ff" d="M298.11,-257.94C397.44,-272.18 605.82,-295.86 780.5,-274.75 800.63,-272.32 822.45,-267.38 841.03,-262.45"/>
<polygon fill="#63b8ff" stroke="#63b8ff" points="841.84,-265.58 850.56,-259.57 839.99,-258.83 841.84,-265.58"/>
</a>
</g>
</g>
<!-- Node9 -->
<g id="Node000009" class="node">
<title>Node9</title>
<g id="a_Node000009"><a xlink:href="classghc_1_1filesystem_1_1path.html#a23fdbee15598b1dadf86db61704820ef" target="_top" xlink:title=" ">
<polygon fill="white" stroke="#666666" points="468.38,-220.5 350.38,-220.5 350.38,-187 468.38,-187 468.38,-220.5"/>
<text text-anchor="start" x="358.38" y="-207" font-family="Helvetica,sans-Serif" font-size="10.00">ghc::filesystem::path</text>
<text text-anchor="middle" x="409.38" y="-194.25" font-family="Helvetica,sans-Serif" font-size="10.00">::remove_filename</text>
</a>
</g>
</g>
<!-- Node7&#45;&gt;Node9 -->
<g id="edge9_Node000007_Node000009" class="edge">
<title>Node7&#45;&gt;Node9</title>
<g id="a_edge9_Node000007_Node000009"><a xlink:title=" ">
<path fill="none" stroke="#63b8ff" d="M298.34,-233.14C311.67,-229.58 325.95,-225.76 339.67,-222.1"/>
<polygon fill="#63b8ff" stroke="#63b8ff" points="340.26,-225.3 349.02,-219.33 338.45,-218.53 340.26,-225.3"/>
</a>
</g>
</g>
<!-- Node15 -->
<g id="Node000015" class="node">
<title>Node15</title>
<g id="a_Node000015"><a xlink:href="classghc_1_1filesystem_1_1path.html#ae8451e2b8923d24c4cafb3093d483482" target="_top" xlink:title=" ">
<polygon fill="white" stroke="#666666" points="626.5,-101.5 508.5,-101.5 508.5,-68 626.5,-68 626.5,-101.5"/>
<text text-anchor="start" x="516.5" y="-88" font-family="Helvetica,sans-Serif" font-size="10.00">ghc::filesystem::path</text>
<text text-anchor="middle" x="567.5" y="-75.25" font-family="Helvetica,sans-Serif" font-size="10.00">::root_path</text>
</a>
</g>
</g>
<!-- Node7&#45;&gt;Node15 -->
<g id="edge19_Node000007_Node000015" class="edge">
<title>Node7&#45;&gt;Node15</title>
<g id="a_edge19_Node000007_Node000015"><a xlink:title=" ">
<path fill="none" stroke="#63b8ff" d="M261.15,-231.78C281.85,-215.95 314.72,-192.61 346.25,-177.75 399.26,-152.77 418.78,-163.15 472.5,-139.75 492.98,-130.83 514.57,-118.43 531.89,-107.66"/>
<polygon fill="#63b8ff" stroke="#63b8ff" points="533.45,-110.18 540.04,-101.88 529.71,-104.27 533.45,-110.18"/>
</a>
</g>
</g>
<!-- Node10 -->
<g id="Node000010" class="node">
<title>Node10</title>
<g id="a_Node000010"><a xlink:href="classghc_1_1filesystem_1_1path.html#a8fa8cb12e511ef8d951559983d26f018" target="_top" xlink:title=" ">
<polygon fill="white" stroke="#666666" points="780.5,-175.5 662.5,-175.5 662.5,-142 780.5,-142 780.5,-175.5"/>
<text text-anchor="start" x="670.5" y="-162" font-family="Helvetica,sans-Serif" font-size="10.00">ghc::filesystem::path</text>
<text text-anchor="middle" x="721.5" y="-149.25" font-family="Helvetica,sans-Serif" font-size="10.00">::filename</text>
</a>
</g>
</g>
<!-- Node9&#45;&gt;Node10 -->
<g id="edge10_Node000009_Node000010" class="edge">
<title>Node9&#45;&gt;Node10</title>
<g id="a_edge10_Node000009_Node000010"><a xlink:title=" ">
<path fill="none" stroke="#63b8ff" d="M468.65,-186.57C481.67,-183.22 495.48,-180.04 508.5,-177.75 555.77,-169.43 609.65,-164.66 651.26,-161.98"/>
<polygon fill="#63b8ff" stroke="#63b8ff" points="651.35,-165.42 661.11,-161.31 650.92,-158.44 651.35,-165.42"/>
</a>
</g>
</g>
<!-- Node14 -->
<g id="Node000014" class="node">
<title>Node14</title>
<g id="a_Node000014"><a xlink:href="classghc_1_1filesystem_1_1path.html#ae6ee7d5f8e9eeb1850aa54f538d53e74" target="_top" xlink:title=" ">
<polygon fill="white" stroke="#666666" points="626.5,-220.5 508.5,-220.5 508.5,-187 626.5,-187 626.5,-220.5"/>
<text text-anchor="start" x="516.5" y="-207" font-family="Helvetica,sans-Serif" font-size="10.00">ghc::filesystem::path</text>
<text text-anchor="middle" x="567.5" y="-194.25" font-family="Helvetica,sans-Serif" font-size="10.00">::has_filename</text>
</a>
</g>
</g>
<!-- Node9&#45;&gt;Node14 -->
<g id="edge15_Node000009_Node000014" class="edge">
<title>Node9&#45;&gt;Node14</title>
<g id="a_edge15_Node000009_Node000014"><a xlink:title=" ">
<path fill="none" stroke="#63b8ff" d="M468.51,-203.75C477.9,-203.75 487.69,-203.75 497.31,-203.75"/>
<polygon fill="#63b8ff" stroke="#63b8ff" points="497.06,-207.25 507.06,-203.75 497.06,-200.25 497.06,-207.25"/>
</a>
</g>
</g>
<!-- Node10&#45;&gt;Node8 -->
<g id="edge12_Node000010_Node000008" class="edge">
<title>Node10&#45;&gt;Node8</title>
<g id="a_edge12_Node000010_Node000008"><a xlink:title=" ">
<path fill="none" stroke="#63b8ff" d="M753.73,-175.89C783.5,-192.22 827.97,-216.63 857.1,-232.62"/>
<polygon fill="#63b8ff" stroke="#63b8ff" points="855.27,-236.15 865.72,-237.9 858.64,-230.02 855.27,-236.15"/>
</a>
</g>
</g>
<!-- Node11 -->
<g id="Node000011" class="node">
<title>Node11</title>
<g id="a_Node000011"><a xlink:href="classghc_1_1filesystem_1_1path.html#aa69fa98adb4093bf9ff74cca6972d5fb" target="_top" xlink:title=" ">
<polygon fill="white" stroke="#666666" points="946.5,-112.5 828.5,-112.5 828.5,-79 946.5,-79 946.5,-112.5"/>
<text text-anchor="start" x="836.5" y="-99" font-family="Helvetica,sans-Serif" font-size="10.00">ghc::filesystem::path</text>
<text text-anchor="middle" x="887.5" y="-86.25" font-family="Helvetica,sans-Serif" font-size="10.00">::path</text>
</a>
</g>
</g>
<!-- Node10&#45;&gt;Node11 -->
<g id="edge11_Node000010_Node000011" class="edge">
<title>Node10&#45;&gt;Node11</title>
<g id="a_edge11_Node000010_Node000011"><a xlink:title=" ">
<path fill="none" stroke="#63b8ff" d="M767.31,-141.53C787.2,-133.9 810.79,-124.83 831.71,-116.8"/>
<polygon fill="#63b8ff" stroke="#63b8ff" points="832.66,-119.8 840.74,-112.94 830.15,-113.26 832.66,-119.8"/>
</a>
</g>
</g>
<!-- Node12 -->
<g id="Node000012" class="node">
<title>Node12</title>
<g id="a_Node000012"><a xlink:href="classghc_1_1filesystem_1_1path.html#ac9f23d51eb3bd601d2abd758f0be2cf5" target="_top" xlink:title=" ">
<polygon fill="white" stroke="#666666" points="946.5,-175.5 828.5,-175.5 828.5,-142 946.5,-142 946.5,-175.5"/>
<text text-anchor="start" x="836.5" y="-162" font-family="Helvetica,sans-Serif" font-size="10.00">ghc::filesystem::path</text>
<text text-anchor="middle" x="887.5" y="-149.25" font-family="Helvetica,sans-Serif" font-size="10.00">::has_relative_path</text>
</a>
</g>
</g>
<!-- Node10&#45;&gt;Node12 -->
<g id="edge13_Node000010_Node000012" class="edge">
<title>Node10&#45;&gt;Node12</title>
<g id="a_edge13_Node000010_Node000012"><a xlink:title=" ">
<path fill="none" stroke="#63b8ff" d="M780.78,-158.75C792.55,-158.75 805.04,-158.75 817.15,-158.75"/>
<polygon fill="#63b8ff" stroke="#63b8ff" points="817.13,-162.25 827.13,-158.75 817.13,-155.25 817.13,-162.25"/>
</a>
</g>
</g>
<!-- Node13 -->
<g id="Node000013" class="node">
<title>Node13</title>
<g id="a_Node000013"><a xlink:href="classghc_1_1filesystem_1_1path.html#a89dc8832ede96a8987e1beeb97f5c49d" target="_top" xlink:title=" ">
<polygon fill="white" stroke="#666666" points="1112.5,-93.5 994.5,-93.5 994.5,-60 1112.5,-60 1112.5,-93.5"/>
<text text-anchor="start" x="1002.5" y="-80" font-family="Helvetica,sans-Serif" font-size="10.00">ghc::filesystem::path</text>
<text text-anchor="middle" x="1053.5" y="-67.25" font-family="Helvetica,sans-Serif" font-size="10.00">::has_root_directory</text>
</a>
</g>
</g>
<!-- Node12&#45;&gt;Node13 -->
<g id="edge14_Node000012_Node000013" class="edge">
<title>Node12&#45;&gt;Node13</title>
<g id="a_edge14_Node000012_Node000013"><a xlink:title=" ">
<path fill="none" stroke="#63b8ff" d="M922.88,-141.56C947.81,-129.1 981.72,-112.14 1008.61,-98.7"/>
<polygon fill="#63b8ff" stroke="#63b8ff" points="1009.79,-101.52 1017.17,-93.92 1006.66,-95.26 1009.79,-101.52"/>
</a>
</g>
</g>
<!-- Node14&#45;&gt;Node4 -->
<g id="edge16_Node000014_Node000004" class="edge">
<title>Node14&#45;&gt;Node4</title>
<g id="a_edge16_Node000014_Node000004"><a xlink:title=" ">
<path fill="none" stroke="#63b8ff" d="M626.4,-220.89C634.75,-223.36 643.41,-225.93 651.94,-228.45"/>
<polygon fill="#63b8ff" stroke="#63b8ff" points="650.68,-232.02 661.26,-231.51 652.66,-225.31 650.68,-232.02"/>
</a>
</g>
</g>
<!-- Node14&#45;&gt;Node10 -->
<g id="edge17_Node000014_Node000010" class="edge">
<title>Node14&#45;&gt;Node10</title>
<g id="a_edge17_Node000014_Node000010"><a xlink:title=" ">
<path fill="none" stroke="#63b8ff" d="M626.4,-186.61C634.75,-184.14 643.41,-181.57 651.94,-179.05"/>
<polygon fill="#63b8ff" stroke="#63b8ff" points="652.66,-182.19 661.26,-175.99 650.68,-175.48 652.66,-182.19"/>
</a>
</g>
</g>
<!-- Node14&#45;&gt;Node12 -->
<g id="edge18_Node000014_Node000012" class="edge">
<title>Node14&#45;&gt;Node12</title>
<g id="a_edge18_Node000014_Node000012"><a xlink:title=" ">
<path fill="none" stroke="#63b8ff" d="M626.84,-200.9C669.59,-198.24 728.92,-193.34 780.5,-184.75 792.57,-182.74 805.3,-180.09 817.58,-177.25"/>
<polygon fill="#63b8ff" stroke="#63b8ff" points="818.31,-180.44 827.23,-174.72 816.7,-173.63 818.31,-180.44"/>
</a>
</g>
</g>
<!-- Node15&#45;&gt;Node11 -->
<g id="edge20_Node000015_Node000011" class="edge">
<title>Node15&#45;&gt;Node11</title>
<g id="a_edge20_Node000015_Node000011"><a xlink:title=" ">
<path fill="none" stroke="#63b8ff" d="M626.9,-81.88C638.69,-81.41 650.99,-80.99 662.5,-80.75 714.93,-79.63 728.19,-77.07 780.5,-80.75 792.47,-81.59 805.15,-82.97 817.42,-84.55"/>
<polygon fill="#63b8ff" stroke="#63b8ff" points="816.68,-88.11 827.06,-85.98 817.62,-81.18 816.68,-88.11"/>
</a>
</g>
</g>
<!-- Node16 -->
<g id="Node000016" class="node">
<title>Node16</title>
<g id="a_Node000016"><a xlink:href="classghc_1_1filesystem_1_1path.html#a624bf57df2fa8b9bf3329563adfd4554" target="_top" xlink:title=" ">
<polygon fill="white" stroke="#666666" points="780.5,-33.5 662.5,-33.5 662.5,0 780.5,0 780.5,-33.5"/>
<text text-anchor="start" x="670.5" y="-20" font-family="Helvetica,sans-Serif" font-size="10.00">ghc::filesystem::path</text>
<text text-anchor="middle" x="721.5" y="-7.25" font-family="Helvetica,sans-Serif" font-size="10.00">::root_directory</text>
</a>
</g>
</g>
<!-- Node15&#45;&gt;Node16 -->
<g id="edge21_Node000015_Node000016" class="edge">
<title>Node15&#45;&gt;Node16</title>
<g id="a_edge21_Node000015_Node000016"><a xlink:title=" ">
<path fill="none" stroke="#63b8ff" d="M606.86,-67.59C626.75,-58.69 651.24,-47.73 672.39,-38.27"/>
<polygon fill="#63b8ff" stroke="#63b8ff" points="673.46,-41.18 681.16,-33.9 670.6,-34.79 673.46,-41.18"/>
</a>
</g>
</g>
<!-- Node17 -->
<g id="Node000017" class="node">
<title>Node17</title>
<g id="a_Node000017"><a xlink:href="classghc_1_1filesystem_1_1path.html#ad97c0bd4fa7e692e2c81c94bc40b44a1" target="_top" xlink:title=" ">
<polygon fill="white" stroke="#666666" points="780.5,-123.5 662.5,-123.5 662.5,-90 780.5,-90 780.5,-123.5"/>
<text text-anchor="start" x="670.5" y="-110" font-family="Helvetica,sans-Serif" font-size="10.00">ghc::filesystem::path</text>
<text text-anchor="middle" x="721.5" y="-97.25" font-family="Helvetica,sans-Serif" font-size="10.00">::root_name</text>
</a>
</g>
</g>
<!-- Node15&#45;&gt;Node17 -->
<g id="edge24_Node000015_Node000017" class="edge">
<title>Node15&#45;&gt;Node17</title>
<g id="a_edge24_Node000015_Node000017"><a xlink:title=" ">
<path fill="none" stroke="#63b8ff" d="M626.83,-93.19C634.87,-94.36 643.18,-95.56 651.38,-96.75"/>
<polygon fill="#63b8ff" stroke="#63b8ff" points="650.67,-100.32 661.07,-98.29 651.68,-93.4 650.67,-100.32"/>
</a>
</g>
</g>
<!-- Node16&#45;&gt;Node11 -->
<g id="edge22_Node000016_Node000011" class="edge">
<title>Node16&#45;&gt;Node11</title>
<g id="a_edge22_Node000016_Node000011"><a xlink:title=" ">
<path fill="none" stroke="#63b8ff" d="M758.09,-33.89C782.39,-45.6 814.82,-61.22 841,-73.83"/>
<polygon fill="#63b8ff" stroke="#63b8ff" points="839.17,-77.32 849.7,-78.51 842.21,-71.01 839.17,-77.32"/>
</a>
</g>
</g>
<!-- Node16&#45;&gt;Node13 -->
<g id="edge23_Node000016_Node000013" class="edge">
<title>Node16&#45;&gt;Node13</title>
<g id="a_edge23_Node000016_Node000013"><a xlink:title=" ">
<path fill="none" stroke="#63b8ff" d="M780.74,-27.34C837.38,-37.64 923.44,-53.28 983.49,-64.2"/>
<polygon fill="#63b8ff" stroke="#63b8ff" points="982.55,-67.77 993.01,-66.12 983.8,-60.88 982.55,-67.77"/>
</a>
</g>
</g>
<!-- Node17&#45;&gt;Node11 -->
<g id="edge25_Node000017_Node000011" class="edge">
<title>Node17&#45;&gt;Node11</title>
<g id="a_edge25_Node000017_Node000011"><a xlink:title=" ">
<path fill="none" stroke="#63b8ff" d="M780.78,-102.84C792.67,-102.04 805.29,-101.2 817.52,-100.38"/>
<polygon fill="#63b8ff" stroke="#63b8ff" points="817.39,-103.83 827.13,-99.67 816.92,-96.84 817.39,-103.83"/>
</a>
</g>
</g>
</g>
</svg>
