<?xml version="1.0" encoding="UTF-8" standalone="no"?>
<!DOCTYPE svg PUBLIC "-//W3C//DTD SVG 1.1//EN"
 "http://www.w3.org/Graphics/SVG/1.1/DTD/svg11.dtd">
<!-- Generated by graphviz version 7.1.0 (0)
 -->
<!-- Title: sisi4s::fromComplexTensor Pages: 1 -->
<svg width="851pt" height="594pt"
 viewBox="0.00 0.00 851.00 594.00" xmlns="http://www.w3.org/2000/svg" xmlns:xlink="http://www.w3.org/1999/xlink">
<g id="graph0" class="graph" transform="scale(1 1) rotate(0) translate(4 590)">
<title>sisi4s::fromComplexTensor</title>
<!-- Node1 -->
<g id="node1" class="node">
<title>Node1</title>
<g id="a_node1"><a xlink:title="Decomposes the tensor of complex elements into two tensors containing the real and imaginary parts,...">
<polygon fill="#999999" stroke="#666666" points="843,-302.5 694,-302.5 694,-283.5 843,-283.5 843,-302.5"/>
<text text-anchor="middle" x="768.5" y="-290.5" font-family="Helvetica,sans-Serif" font-size="10.00">sisi4s::fromComplexTensor</text>
</a>
</g>
</g>
<!-- Node1&#45;&gt;Node1 -->
<g id="edge13" class="edge">
<title>Node1&#45;&gt;Node1</title>
<path fill="none" stroke="#63b8ff" d="M808.91,-312.57C805.53,-317.13 792.07,-320.5 768.5,-320.5 729.83,-320.5 718.35,-311.44 734.06,-302.87"/>
<polygon fill="#63b8ff" stroke="#63b8ff" points="811.95,-310.84 803.73,-304.16 805.99,-314.51 811.95,-310.84"/>
</g>
<!-- Node2 -->
<g id="node2" class="node">
<title>Node2</title>
<g id="a_node2"><a xlink:href="classsisi4s_1_1FiniteSizeCorrection.html#a011bf1004b284365e04ac9bafe86618d" target="_top" xlink:title=" ">
<polygon fill="white" stroke="#666666" points="640.5,-586 456.5,-586 456.5,-556 640.5,-556 640.5,-586"/>
<text text-anchor="start" x="464.5" y="-574" font-family="Helvetica,sans-Serif" font-size="10.00">sisi4s::FiniteSizeCorrection</text>
<text text-anchor="middle" x="548.5" y="-563" font-family="Helvetica,sans-Serif" font-size="10.00">::calculateComplexStructureFactor</text>
</a>
</g>
</g>
<!-- Node1&#45;&gt;Node2 -->
<g id="edge1" class="edge">
<title>Node1&#45;&gt;Node2</title>
<path fill="none" stroke="#63b8ff" d="M764.86,-314.26C757.59,-363.4 732.58,-485.36 658,-547 652.8,-551.3 646.99,-554.88 640.83,-557.84"/>
<polygon fill="#63b8ff" stroke="#63b8ff" points="768.32,-314.8 766.21,-304.42 761.39,-313.86 768.32,-314.8"/>
</g>
<!-- Node4 -->
<g id="node4" class="node">
<title>Node4</title>
<g id="a_node4"><a xlink:href="classsisi4s_1_1CoulombIntegralsFromVertex.html#a5a8d285e19c8e3dbca1e9107da4c3460" target="_top" xlink:title=" ">
<polygon fill="white" stroke="#666666" points="642.5,-490 454.5,-490 454.5,-460 642.5,-460 642.5,-490"/>
<text text-anchor="start" x="462.5" y="-478" font-family="Helvetica,sans-Serif" font-size="10.00">sisi4s::CoulombIntegrals</text>
<text text-anchor="middle" x="548.5" y="-467" font-family="Helvetica,sans-Serif" font-size="10.00">FromVertex::calculateRealIntegrals</text>
</a>
</g>
</g>
<!-- Node1&#45;&gt;Node4 -->
<g id="edge3" class="edge">
<title>Node1&#45;&gt;Node4</title>
<path fill="none" stroke="#63b8ff" d="M759.42,-313.2C744.67,-347.32 710.05,-416.06 658,-451 653.11,-454.28 647.85,-457.12 642.37,-459.58"/>
<polygon fill="#63b8ff" stroke="#63b8ff" points="762.6,-314.66 763.22,-304.08 756.14,-311.97 762.6,-314.66"/>
</g>
<!-- Node6 -->
<g id="node6" class="node">
<title>Node6</title>
<g id="a_node6"><a xlink:href="classsisi4s_1_1FiniteSizeCorrection.html#a40817a0c8ab25b2ab9ac7586a00fc792" target="_top" xlink:title=" ">
<polygon fill="white" stroke="#666666" points="629.5,-538 467.5,-538 467.5,-508 629.5,-508 629.5,-538"/>
<text text-anchor="start" x="475.5" y="-526" font-family="Helvetica,sans-Serif" font-size="10.00">sisi4s::FiniteSizeCorrection</text>
<text text-anchor="middle" x="548.5" y="-515" font-family="Helvetica,sans-Serif" font-size="10.00">::calculateRealStructureFactor</text>
</a>
</g>
</g>
<!-- Node1&#45;&gt;Node6 -->
<g id="edge5" class="edge">
<title>Node1&#45;&gt;Node6</title>
<path fill="none" stroke="#63b8ff" d="M762.72,-313.62C751.87,-355.56 721.25,-450.92 658,-499 649.63,-505.36 639.91,-510.1 629.78,-513.63"/>
<polygon fill="#63b8ff" stroke="#63b8ff" points="766.07,-314.65 765.06,-304.11 759.27,-312.98 766.07,-314.65"/>
</g>
<!-- Node7 -->
<g id="node7" class="node">
<title>Node7</title>
<g id="a_node7"><a xlink:href="classsisi4s_1_1ParticleHoleCoulombVertexDecomposition.html#ae8dc9156a24e3e2cc3499e2b31e1448b" target="_top" xlink:title="Evaluates the MP2 energy for the given Coulomb vertex.">
<polygon fill="white" stroke="#666666" points="644,-442 453,-442 453,-412 644,-412 644,-442"/>
<text text-anchor="start" x="461" y="-430" font-family="Helvetica,sans-Serif" font-size="10.00">sisi4s::ParticleHoleCoulomb</text>
<text text-anchor="middle" x="548.5" y="-419" font-family="Helvetica,sans-Serif" font-size="10.00">VertexDecomposition::evaluateMp2</text>
</a>
</g>
</g>
<!-- Node1&#45;&gt;Node7 -->
<g id="edge7" class="edge">
<title>Node1&#45;&gt;Node7</title>
<path fill="none" stroke="#63b8ff" d="M754.21,-311.91C735.64,-336.84 699.51,-380.18 658,-403 652,-406.3 645.58,-409.15 638.96,-411.6"/>
<polygon fill="#63b8ff" stroke="#63b8ff" points="756.92,-314.13 759.96,-303.99 751.26,-310.02 756.92,-314.13"/>
</g>
<!-- Node10 -->
<g id="node10" class="node">
<title>Node10</title>
<g id="a_node10"><a xlink:href="classsisi4s_1_1BasisSetExtrapolation.html#a3d9834f6a2ed4100e47b32e498914129" target="_top" xlink:title=" ">
<polygon fill="white" stroke="#666666" points="627.5,-394 469.5,-394 469.5,-364 627.5,-364 627.5,-394"/>
<text text-anchor="start" x="477.5" y="-382" font-family="Helvetica,sans-Serif" font-size="10.00">sisi4s::BasisSetExtrapolation</text>
<text text-anchor="middle" x="548.5" y="-371" font-family="Helvetica,sans-Serif" font-size="10.00">::evaluateQGG</text>
</a>
</g>
</g>
<!-- Node1&#45;&gt;Node10 -->
<g id="edge11" class="edge">
<title>Node1&#45;&gt;Node10</title>
<path fill="none" stroke="#63b8ff" d="M741.56,-308.57C719.83,-321.1 687.7,-338.46 658,-350 644.82,-355.12 630.41,-359.66 616.51,-363.55"/>
<polygon fill="#63b8ff" stroke="#63b8ff" points="743.16,-311.69 750.02,-303.62 739.63,-305.65 743.16,-311.69"/>
</g>
<!-- Node12 -->
<g id="node12" class="node">
<title>Node12</title>
<g id="a_node12"><a xlink:href="classsisi4s_1_1CcsdEnergyFromCoulombIntegrals.html#a5ec0fe08374df8bf74029a3eee23942c" target="_top" xlink:title="Implements the iterate method with the CCSD iteration. Iteration routine taken from So Hirata,...">
<polygon fill="white" stroke="#666666" points="383.5,-232 207.5,-232 207.5,-202 383.5,-202 383.5,-232"/>
<text text-anchor="start" x="215.5" y="-220" font-family="Helvetica,sans-Serif" font-size="10.00">sisi4s::CcsdEnergyFromCoulomb</text>
<text text-anchor="middle" x="295.5" y="-209" font-family="Helvetica,sans-Serif" font-size="10.00">Integrals::getResiduum</text>
</a>
</g>
</g>
<!-- Node1&#45;&gt;Node12 -->
<g id="edge14" class="edge">
<title>Node1&#45;&gt;Node12</title>
<path fill="none" stroke="#63b8ff" d="M724.98,-305.96C661.21,-323.23 537.76,-348.2 439,-317 385.97,-300.25 335.56,-255.92 311.39,-232.31"/>
<polygon fill="#63b8ff" stroke="#63b8ff" points="725.65,-309.41 734.34,-303.36 723.77,-302.67 725.65,-309.41"/>
</g>
<!-- Node13 -->
<g id="node13" class="node">
<title>Node13</title>
<g id="a_node13"><a xlink:href="classsisi4s_1_1CcsdDiagrammaticDecomposition.html#a88ea20dff4ea90e58247c8437c9f661f" target="_top" xlink:title=" ">
<polygon fill="white" stroke="#666666" points="620,-308 477,-308 477,-278 620,-278 620,-308"/>
<text text-anchor="start" x="485" y="-296" font-family="Helvetica,sans-Serif" font-size="10.00">sisi4s::CcsdDiagrammatic</text>
<text text-anchor="middle" x="548.5" y="-285" font-family="Helvetica,sans-Serif" font-size="10.00">Decomposition::run</text>
</a>
</g>
</g>
<!-- Node1&#45;&gt;Node13 -->
<g id="edge15" class="edge">
<title>Node1&#45;&gt;Node13</title>
<path fill="none" stroke="#63b8ff" d="M682.42,-293C661.86,-293 640.1,-293 620.28,-293"/>
<polygon fill="#63b8ff" stroke="#63b8ff" points="682.18,-296.5 692.18,-293 682.18,-289.5 682.18,-296.5"/>
</g>
<!-- Node14 -->
<g id="node14" class="node">
<title>Node14</title>
<g id="a_node14"><a xlink:href="classsisi4s_1_1DoublesAmplitudesFromVertex.html#ac84baa2cdf181d22f093b777fe95a23d" target="_top" xlink:title="Calculates doubles amplitudes Tabij.">
<polygon fill="white" stroke="#666666" points="621.5,-260 475.5,-260 475.5,-230 621.5,-230 621.5,-260"/>
<text text-anchor="start" x="483.5" y="-248" font-family="Helvetica,sans-Serif" font-size="10.00">sisi4s::DoublesAmplitudes</text>
<text text-anchor="middle" x="548.5" y="-237" font-family="Helvetica,sans-Serif" font-size="10.00">FromVertex::run</text>
</a>
</g>
</g>
<!-- Node1&#45;&gt;Node14 -->
<g id="edge16" class="edge">
<title>Node1&#45;&gt;Node14</title>
<path fill="none" stroke="#63b8ff" d="M711.15,-280.59C683.18,-274.43 649.13,-266.94 619.51,-260.42"/>
<polygon fill="#63b8ff" stroke="#63b8ff" points="710.33,-284 720.85,-282.73 711.84,-277.16 710.33,-284"/>
</g>
<!-- Node15 -->
<g id="node15" class="node">
<title>Node15</title>
<g id="a_node15"><a xlink:href="classsisi4s_1_1FromComplexTensor.html#aaf3fa74437f68d888f812cb739b399b5" target="_top" xlink:title="Testing environement.">
<polygon fill="white" stroke="#666666" points="634.5,-211.5 462.5,-211.5 462.5,-192.5 634.5,-192.5 634.5,-211.5"/>
<text text-anchor="middle" x="548.5" y="-199.5" font-family="Helvetica,sans-Serif" font-size="10.00">sisi4s::FromComplexTensor::run</text>
</a>
</g>
</g>
<!-- Node1&#45;&gt;Node15 -->
<g id="edge17" class="edge">
<title>Node1&#45;&gt;Node15</title>
<path fill="none" stroke="#63b8ff" d="M747.01,-275.79C726.03,-259.1 691.78,-234.39 658,-221 648.76,-217.33 638.79,-214.37 628.78,-211.98"/>
<polygon fill="#63b8ff" stroke="#63b8ff" points="744.79,-278.49 754.76,-282.08 749.21,-273.06 744.79,-278.49"/>
</g>
<!-- Node16 -->
<g id="node16" class="node">
<title>Node16</title>
<g id="a_node16"><a xlink:href="classsisi4s_1_1ParenthesisTriples.html#a13c648b58b994e20cb35843b25b23312" target="_top" xlink:title="Calculates perturbative triples correction, third attemp.">
<polygon fill="white" stroke="#666666" points="628.5,-174.5 468.5,-174.5 468.5,-155.5 628.5,-155.5 628.5,-174.5"/>
<text text-anchor="middle" x="548.5" y="-162.5" font-family="Helvetica,sans-Serif" font-size="10.00">sisi4s::ParenthesisTriples::run</text>
</a>
</g>
</g>
<!-- Node1&#45;&gt;Node16 -->
<g id="edge18" class="edge">
<title>Node1&#45;&gt;Node16</title>
<path fill="none" stroke="#63b8ff" d="M754.31,-273.99C735.86,-248.99 699.86,-205.7 658,-184 649,-179.34 639.08,-175.79 629,-173.1"/>
<polygon fill="#63b8ff" stroke="#63b8ff" points="751.35,-275.87 760.03,-281.95 757.04,-271.78 751.35,-275.87"/>
</g>
<!-- Node17 -->
<g id="node17" class="node">
<title>Node17</title>
<g id="a_node17"><a xlink:href="classsisi4s_1_1ClusterSinglesDoublesAlgorithm.html#aa15c5a3edcb4102f112028ff53f27179" target="_top" xlink:title="Calculates and returns one slice Fabij of the residuum from the dressed Coulomb factors....">
<polygon fill="white" stroke="#666666" points="655,-137.5 442,-137.5 442,-96.5 655,-96.5 655,-137.5"/>
<text text-anchor="start" x="450" y="-125.5" font-family="Helvetica,sans-Serif" font-size="10.00">sisi4s::ClusterSinglesDoubles</text>
<text text-anchor="start" x="450" y="-114.5" font-family="Helvetica,sans-Serif" font-size="10.00">Algorithm::sliceAmplitudesFromCoupled</text>
<text text-anchor="middle" x="548.5" y="-103.5" font-family="Helvetica,sans-Serif" font-size="10.00">CoulombFactors</text>
</a>
</g>
</g>
<!-- Node1&#45;&gt;Node17 -->
<g id="edge19" class="edge">
<title>Node1&#45;&gt;Node17</title>
<path fill="none" stroke="#63b8ff" d="M757.91,-272.83C741.8,-241.14 706.26,-179.91 658,-147 652.99,-143.59 647.61,-140.56 642.01,-137.88"/>
<polygon fill="#63b8ff" stroke="#63b8ff" points="754.73,-274.28 762.29,-281.7 761,-271.19 754.73,-274.28"/>
</g>
<!-- Node18 -->
<g id="node18" class="node">
<title>Node18</title>
<g id="a_node18"><a xlink:href="classsisi4s_1_1ClusterSinglesDoublesAlgorithm.html#a4cc0b4527b8b77bdde36752e3aca89cc" target="_top" xlink:title="Calculates and returns one slice Xxycd of the Coulomb integrals &#160;coupled to the singles amplitudes....">
<polygon fill="white" stroke="#666666" points="658,-78 439,-78 439,-48 658,-48 658,-78"/>
<text text-anchor="start" x="447" y="-66" font-family="Helvetica,sans-Serif" font-size="10.00">sisi4s::ClusterSinglesDoubles</text>
<text text-anchor="middle" x="548.5" y="-55" font-family="Helvetica,sans-Serif" font-size="10.00">Algorithm::sliceCoupledCoulombIntegrals</text>
</a>
</g>
</g>
<!-- Node1&#45;&gt;Node18 -->
<g id="edge21" class="edge">
<title>Node1&#45;&gt;Node18</title>
<path fill="none" stroke="#63b8ff" d="M762.65,-272.53C751.68,-230.87 720.85,-136.11 658,-88 653.16,-84.3 647.88,-81.13 642.32,-78.42"/>
<polygon fill="#63b8ff" stroke="#63b8ff" points="759.19,-273.11 765.02,-281.96 765.98,-271.41 759.19,-273.11"/>
</g>
<!-- Node19 -->
<g id="node19" class="node">
<title>Node19</title>
<g id="a_node19"><a xlink:href="classsisi4s_1_1CcsdPerturbativeTriples.html#a91a20736900b7a0c000ff7352ef38301" target="_top" xlink:title=" ">
<polygon fill="white" stroke="#666666" points="615.5,-30 481.5,-30 481.5,0 615.5,0 615.5,-30"/>
<text text-anchor="start" x="489.5" y="-18" font-family="Helvetica,sans-Serif" font-size="10.00">sisi4s::CcsdPerturbative</text>
<text text-anchor="middle" x="548.5" y="-7" font-family="Helvetica,sans-Serif" font-size="10.00">Triples::sliceTensors</text>
</a>
</g>
</g>
<!-- Node1&#45;&gt;Node19 -->
<g id="edge22" class="edge">
<title>Node1&#45;&gt;Node19</title>
<path fill="none" stroke="#63b8ff" d="M764.86,-271.74C757.59,-222.6 732.58,-100.64 658,-39 646.1,-29.17 631.05,-23.14 615.97,-19.49"/>
<polygon fill="#63b8ff" stroke="#63b8ff" points="761.39,-272.14 766.21,-281.58 768.32,-271.2 761.39,-272.14"/>
</g>
<!-- Node3 -->
<g id="node3" class="node">
<title>Node3</title>
<g id="a_node3"><a xlink:href="classsisi4s_1_1FiniteSizeCorrection.html#a8a7b438545c815dc93309d16208128de" target="_top" xlink:title="Calculates the finite size correction.">
<polygon fill="white" stroke="#666666" points="380.5,-556.5 210.5,-556.5 210.5,-537.5 380.5,-537.5 380.5,-556.5"/>
<text text-anchor="middle" x="295.5" y="-544.5" font-family="Helvetica,sans-Serif" font-size="10.00">sisi4s::FiniteSizeCorrection::run</text>
</a>
</g>
</g>
<!-- Node2&#45;&gt;Node3 -->
<g id="edge2" class="edge">
<title>Node2&#45;&gt;Node3</title>
<path fill="none" stroke="#63b8ff" d="M444.78,-561.18C423.46,-559.14 401.23,-557.01 380.67,-555.05"/>
<polygon fill="#63b8ff" stroke="#63b8ff" points="444.38,-564.66 454.67,-562.12 445.05,-557.69 444.38,-564.66"/>
</g>
<!-- Node5 -->
<g id="node5" class="node">
<title>Node5</title>
<g id="a_node5"><a xlink:href="classsisi4s_1_1CoulombIntegralsFromVertex.html#aeda1514e735c74e71a87fbb9c35102e0" target="_top" xlink:title="Calculates Coulomb integrals Vabcd,Vabij,Vaibj,Vabci,Vijka,Vijkl from GammaGai,GammaGab,...">
<polygon fill="white" stroke="#666666" points="364,-504 227,-504 227,-474 364,-474 364,-504"/>
<text text-anchor="start" x="235" y="-492" font-family="Helvetica,sans-Serif" font-size="10.00">sisi4s::CoulombIntegrals</text>
<text text-anchor="middle" x="295.5" y="-481" font-family="Helvetica,sans-Serif" font-size="10.00">FromVertex::run</text>
</a>
</g>
</g>
<!-- Node4&#45;&gt;Node5 -->
<g id="edge4" class="edge">
<title>Node4&#45;&gt;Node5</title>
<path fill="none" stroke="#63b8ff" d="M442.74,-480.84C416.18,-482.32 388.34,-483.88 364.17,-485.23"/>
<polygon fill="#63b8ff" stroke="#63b8ff" points="442.74,-484.35 452.53,-480.3 442.35,-477.36 442.74,-484.35"/>
</g>
<!-- Node6&#45;&gt;Node3 -->
<g id="edge6" class="edge">
<title>Node6&#45;&gt;Node3</title>
<path fill="none" stroke="#63b8ff" d="M455.92,-531.76C431.37,-534.1 404.95,-536.63 380.82,-538.94"/>
<polygon fill="#63b8ff" stroke="#63b8ff" points="455.92,-535.27 465.54,-530.84 455.25,-528.3 455.92,-535.27"/>
</g>
<!-- Node8 -->
<g id="node8" class="node">
<title>Node8</title>
<g id="a_node8"><a xlink:href="classsisi4s_1_1ParticleHoleCoulombVertexDecomposition.html#aaa1e2c268f0caa1a362d7da3a3528944" target="_top" xlink:title="Evaluates and prints the error of the MP2 energy between the current decomposition and the full MP2 e...">
<polygon fill="white" stroke="#666666" points="403,-456 188,-456 188,-426 403,-426 403,-456"/>
<text text-anchor="start" x="196" y="-444" font-family="Helvetica,sans-Serif" font-size="10.00">sisi4s::ParticleHoleCoulomb</text>
<text text-anchor="middle" x="295.5" y="-433" font-family="Helvetica,sans-Serif" font-size="10.00">VertexDecomposition::evaluateMp2Error</text>
</a>
</g>
</g>
<!-- Node7&#45;&gt;Node8 -->
<g id="edge8" class="edge">
<title>Node7&#45;&gt;Node8</title>
<path fill="none" stroke="#63b8ff" d="M441.18,-432.93C428.64,-433.63 415.84,-434.34 403.3,-435.04"/>
<polygon fill="#63b8ff" stroke="#63b8ff" points="441.31,-436.43 451.1,-432.38 440.92,-429.44 441.31,-436.43"/>
</g>
<!-- Node9 -->
<g id="node9" class="node">
<title>Node9</title>
<g id="a_node9"><a xlink:href="classsisi4s_1_1ParticleHoleCoulombVertexDecomposition.html#a14cd82062611a0e443aff732ae0db121" target="_top" xlink:title=" ">
<polygon fill="white" stroke="#666666" points="152,-434 0,-434 0,-404 152,-404 152,-434"/>
<text text-anchor="start" x="8" y="-422" font-family="Helvetica,sans-Serif" font-size="10.00">sisi4s::ParticleHoleCoulomb</text>
<text text-anchor="middle" x="76" y="-411" font-family="Helvetica,sans-Serif" font-size="10.00">VertexDecomposition::run</text>
</a>
</g>
</g>
<!-- Node7&#45;&gt;Node9 -->
<g id="edge10" class="edge">
<title>Node7&#45;&gt;Node9</title>
<path fill="none" stroke="#63b8ff" d="M441.4,-418.82C428.47,-418.07 415.44,-417.43 403,-417 307.5,-413.7 283.55,-416.14 188,-417 176.44,-417.1 164.2,-417.27 152.23,-417.46"/>
<polygon fill="#63b8ff" stroke="#63b8ff" points="441.02,-422.3 451.21,-419.41 441.44,-415.31 441.02,-422.3"/>
</g>
<!-- Node8&#45;&gt;Node9 -->
<g id="edge9" class="edge">
<title>Node8&#45;&gt;Node9</title>
<path fill="none" stroke="#63b8ff" d="M176.21,-429.04C168.13,-428.22 160.13,-427.41 152.37,-426.62"/>
<polygon fill="#63b8ff" stroke="#63b8ff" points="175.85,-432.52 186.16,-430.04 176.56,-425.55 175.85,-432.52"/>
</g>
<!-- Node11 -->
<g id="node11" class="node">
<title>Node11</title>
<g id="a_node11"><a xlink:href="classsisi4s_1_1BasisSetExtrapolation.html#a4be31f1b32dd68c170238e340981f9dc" target="_top" xlink:title=" ">
<polygon fill="white" stroke="#666666" points="385,-369.5 206,-369.5 206,-350.5 385,-350.5 385,-369.5"/>
<text text-anchor="middle" x="295.5" y="-357.5" font-family="Helvetica,sans-Serif" font-size="10.00">sisi4s::BasisSetExtrapolation::run</text>
</a>
</g>
</g>
<!-- Node10&#45;&gt;Node11 -->
<g id="edge12" class="edge">
<title>Node10&#45;&gt;Node11</title>
<path fill="none" stroke="#63b8ff" d="M457.71,-372.2C434.14,-370.42 408.74,-368.5 385.23,-366.72"/>
<polygon fill="#63b8ff" stroke="#63b8ff" points="457.37,-375.69 467.61,-372.95 457.9,-368.71 457.37,-375.69"/>
</g>
<!-- Node17&#45;&gt;Node12 -->
<g id="edge20" class="edge">
<title>Node17&#45;&gt;Node12</title>
<path fill="none" stroke="#63b8ff" d="M454.39,-141.51C449.15,-143.27 443.99,-145.1 439,-147 397.65,-162.72 352.13,-186.24 323.93,-201.6"/>
<polygon fill="#63b8ff" stroke="#63b8ff" points="455.34,-144.88 463.78,-138.46 453.18,-138.22 455.34,-144.88"/>
</g>
<!-- Node20 -->
<g id="node20" class="node">
<title>Node20</title>
<g id="a_node20"><a xlink:href="classsisi4s_1_1CcsdPerturbativeTriples.html#ad094260a4c533e1734768a72b3ae0161" target="_top" xlink:title="Calculates perturbative triples correction. Routine based on Helgaker book.">
<polygon fill="white" stroke="#666666" points="362.5,-30 228.5,-30 228.5,0 362.5,0 362.5,-30"/>
<text text-anchor="start" x="236.5" y="-18" font-family="Helvetica,sans-Serif" font-size="10.00">sisi4s::CcsdPerturbative</text>
<text text-anchor="middle" x="295.5" y="-7" font-family="Helvetica,sans-Serif" font-size="10.00">Triples::run</text>
</a>
</g>
</g>
<!-- Node19&#45;&gt;Node20 -->
<g id="edge23" class="edge">
<title>Node19&#45;&gt;Node20</title>
<path fill="none" stroke="#63b8ff" d="M469.82,-15C435.51,-15 395.59,-15 362.71,-15"/>
<polygon fill="#63b8ff" stroke="#63b8ff" points="469.71,-18.5 479.71,-15 469.71,-11.5 469.71,-18.5"/>
</g>
</g>
</svg>
