<?xml version="1.0" encoding="UTF-8" standalone="no"?>
<!DOCTYPE svg PUBLIC "-//W3C//DTD SVG 1.1//EN"
 "http://www.w3.org/Graphics/SVG/1.1/DTD/svg11.dtd">
<!-- Generated by graphviz version 7.1.0 (0)
 -->
<!-- Title: CLI::detail::valid_name_string Pages: 1 -->
<svg width="234pt" height="86pt"
 viewBox="0.00 0.00 234.00 86.00" xmlns="http://www.w3.org/2000/svg" xmlns:xlink="http://www.w3.org/1999/xlink">
<g id="graph0" class="graph" transform="scale(1 1) rotate(0) translate(4 82)">
<title>CLI::detail::valid_name_string</title>
<!-- Node1 -->
<g id="node1" class="node">
<title>Node1</title>
<g id="a_node1"><a xlink:title="Verify an option/subcommand name.">
<polygon fill="#999999" stroke="#666666" points="95,-54 0,-54 0,-24 95,-24 95,-54"/>
<text text-anchor="start" x="8" y="-42" font-family="Helvetica,sans-Serif" font-size="10.00">CLI::detail::valid</text>
<text text-anchor="middle" x="47.5" y="-31" font-family="Helvetica,sans-Serif" font-size="10.00">_name_string</text>
</a>
</g>
</g>
<!-- Node2 -->
<g id="node2" class="node">
<title>Node2</title>
<g id="a_node2"><a xlink:href="namespaceCLI_1_1detail.html#a3a05d1129df69e88135e178137b1fd89" target="_top" xlink:title=" ">
<polygon fill="white" stroke="#666666" points="226,-78 131,-78 131,-48 226,-48 226,-78"/>
<text text-anchor="start" x="139" y="-66" font-family="Helvetica,sans-Serif" font-size="10.00">CLI::detail::valid</text>
<text text-anchor="middle" x="178.5" y="-55" font-family="Helvetica,sans-Serif" font-size="10.00">_first_char</text>
</a>
</g>
</g>
<!-- Node1&#45;&gt;Node2 -->
<g id="edge1" class="edge">
<title>Node1&#45;&gt;Node2</title>
<path fill="none" stroke="#63b8ff" d="M95.44,-47.73C103.27,-49.19 111.48,-50.72 119.55,-52.22"/>
<polygon fill="#63b8ff" stroke="#63b8ff" points="118.85,-55.65 129.33,-54.04 120.13,-48.77 118.85,-55.65"/>
</g>
<!-- Node3 -->
<g id="node3" class="node">
<title>Node3</title>
<g id="a_node3"><a xlink:href="namespaceCLI_1_1detail.html#a841371d5dbb0a52f453de4cc1d00cc51" target="_top" xlink:title="Verify following characters of an option.">
<polygon fill="white" stroke="#666666" points="226,-30 131,-30 131,0 226,0 226,-30"/>
<text text-anchor="start" x="139" y="-18" font-family="Helvetica,sans-Serif" font-size="10.00">CLI::detail::valid</text>
<text text-anchor="middle" x="178.5" y="-7" font-family="Helvetica,sans-Serif" font-size="10.00">_later_char</text>
</a>
</g>
</g>
<!-- Node1&#45;&gt;Node3 -->
<g id="edge2" class="edge">
<title>Node1&#45;&gt;Node3</title>
<path fill="none" stroke="#63b8ff" d="M95.44,-30.27C103.27,-28.81 111.48,-27.28 119.55,-25.78"/>
<polygon fill="#63b8ff" stroke="#63b8ff" points="120.13,-29.23 129.33,-23.96 118.85,-22.35 120.13,-29.23"/>
</g>
</g>
</svg>
