<?xml version="1.0" encoding="UTF-8" standalone="no"?>
<!DOCTYPE svg PUBLIC "-//W3C//DTD SVG 1.1//EN"
 "http://www.w3.org/Graphics/SVG/1.1/DTD/svg11.dtd">
<!-- Generated by graphviz version 8.1.0 (0)
 -->
<!-- Title: CLI::detail::trim Pages: 1 -->
<svg width="574pt" height="200pt"
 viewBox="0.00 0.00 573.75 200.12" xmlns="http://www.w3.org/2000/svg" xmlns:xlink="http://www.w3.org/1999/xlink">
<g id="graph0" class="graph" transform="scale(1 1) rotate(0) translate(4 196.12)">
<title>CLI::detail::trim</title>
<!-- Node1 -->
<g id="Node000001" class="node">
<title>Node1</title>
<g id="a_Node000001"><a xlink:title="Trim whitespace from string.">
<polygon fill="#999999" stroke="#666666" points="565.75,-98.75 474.75,-98.75 474.75,-78 565.75,-78 565.75,-98.75"/>
<text text-anchor="middle" x="520.25" y="-85.25" font-family="Helvetica,sans-Serif" font-size="10.00">CLI::detail::trim</text>
</a>
</g>
</g>
<!-- Node2 -->
<g id="Node000002" class="node">
<title>Node2</title>
<g id="a_Node000002"><a xlink:href="classCLI_1_1ConfigBase.html#a1395eecde5af65b73e3670529df0e17b" target="_top" xlink:title="Convert a configuration into an app.">
<polygon fill="white" stroke="#666666" points="283.25,-121.12 162.25,-121.12 162.25,-87.62 283.25,-87.62 283.25,-121.12"/>
<text text-anchor="start" x="170.25" y="-107.62" font-family="Helvetica,sans-Serif" font-size="10.00">CLI::ConfigBase::from</text>
<text text-anchor="middle" x="222.75" y="-94.88" font-family="Helvetica,sans-Serif" font-size="10.00">_config</text>
</a>
</g>
</g>
<!-- Node1&#45;&gt;Node2 -->
<g id="edge1_Node000001_Node000002" class="edge">
<title>Node1&#45;&gt;Node2</title>
<g id="a_edge1_Node000001_Node000002"><a xlink:title=" ">
<path fill="none" stroke="#63b8ff" d="M508.06,-108.54C494.75,-130.19 470.31,-163.36 438.75,-177.38 390.21,-198.92 369.56,-194.4 319.25,-177.38 286.63,-166.34 256.39,-139.2 239.01,-121.31"/>
<polygon fill="#63b8ff" stroke="#63b8ff" points="511.47,-110.63 513.53,-100.24 505.44,-107.08 511.47,-110.63"/>
</a>
</g>
</g>
<!-- Node3 -->
<g id="Node000003" class="node">
<title>Node3</title>
<g id="a_Node000003"><a xlink:href="namespaceCLI_1_1detail.html#a86c8be4c04334eea7717547ed6816533" target="_top" xlink:title=" ">
<polygon fill="white" stroke="#666666" points="426.75,-150.12 331.25,-150.12 331.25,-116.62 426.75,-116.62 426.75,-150.12"/>
<text text-anchor="start" x="339.25" y="-136.62" font-family="Helvetica,sans-Serif" font-size="10.00">CLI::detail::split</text>
<text text-anchor="middle" x="379" y="-123.88" font-family="Helvetica,sans-Serif" font-size="10.00">_program_name</text>
</a>
</g>
</g>
<!-- Node1&#45;&gt;Node3 -->
<g id="edge2_Node000001_Node000003" class="edge">
<title>Node1&#45;&gt;Node3</title>
<g id="a_edge2_Node000001_Node000003"><a xlink:title=" ">
<path fill="none" stroke="#63b8ff" d="M475.58,-102.49C460.15,-107.47 442.73,-113.1 427.04,-118.18"/>
<polygon fill="#63b8ff" stroke="#63b8ff" points="476.46,-105.56 484.9,-99.15 474.3,-98.9 476.46,-105.56"/>
</a>
</g>
</g>
<!-- Node4 -->
<g id="Node000004" class="node">
<title>Node4</title>
<g id="a_Node000004"><a xlink:href="namespaceCLI_1_1detail.html#a53c98c658b23ec5530f755118d632f90" target="_top" xlink:title=" ">
<polygon fill="white" stroke="#666666" points="433.5,-98.75 324.5,-98.75 324.5,-78 433.5,-78 433.5,-98.75"/>
<text text-anchor="middle" x="379" y="-85.25" font-family="Helvetica,sans-Serif" font-size="10.00">CLI::detail::split_up</text>
</a>
</g>
</g>
<!-- Node1&#45;&gt;Node4 -->
<g id="edge4_Node000001_Node000004" class="edge">
<title>Node1&#45;&gt;Node4</title>
<g id="a_edge4_Node000001_Node000004"><a xlink:title=" ">
<path fill="none" stroke="#63b8ff" d="M463.61,-88.38C453.85,-88.38 443.71,-88.38 433.99,-88.38"/>
<polygon fill="#63b8ff" stroke="#63b8ff" points="463.42,-91.88 473.42,-88.38 463.42,-84.88 463.42,-91.88"/>
</a>
</g>
</g>
<!-- Node5 -->
<g id="Node000005" class="node">
<title>Node5</title>
<g id="a_Node000005"><a xlink:href="namespaceCLI_1_1detail.html#a5c7b00a328b3b2da564794081646c251" target="_top" xlink:title="Make a copy of the string and then trim it.">
<polygon fill="white" stroke="#666666" points="438.75,-59.75 319.25,-59.75 319.25,-39 438.75,-39 438.75,-59.75"/>
<text text-anchor="middle" x="379" y="-46.25" font-family="Helvetica,sans-Serif" font-size="10.00">CLI::detail::trim_copy</text>
</a>
</g>
</g>
<!-- Node1&#45;&gt;Node5 -->
<g id="edge6_Node000001_Node000005" class="edge">
<title>Node1&#45;&gt;Node5</title>
<g id="a_edge6_Node000001_Node000005"><a xlink:title=" ">
<path fill="none" stroke="#63b8ff" d="M470.19,-74.64C453.26,-69.89 434.55,-64.65 418.58,-60.18"/>
<polygon fill="#63b8ff" stroke="#63b8ff" points="468.89,-78.18 479.46,-77.51 470.78,-71.44 468.89,-78.18"/>
</a>
</g>
</g>
<!-- Node8 -->
<g id="Node000008" class="node">
<title>Node8</title>
<g id="a_Node000008"><a xlink:href="namespaceCLI_1_1detail.html#a09bd3735d1104a453e5376a43140d5a8" target="_top" xlink:title="Make a copy of the string and then trim it, any filter string can be used (any char in string is filt...">
<polygon fill="white" stroke="#666666" points="438.75,-20.75 319.25,-20.75 319.25,0 438.75,0 438.75,-20.75"/>
<text text-anchor="middle" x="379" y="-7.25" font-family="Helvetica,sans-Serif" font-size="10.00">CLI::detail::trim_copy</text>
</a>
</g>
</g>
<!-- Node1&#45;&gt;Node8 -->
<g id="edge12_Node000001_Node000008" class="edge">
<title>Node1&#45;&gt;Node8</title>
<g id="a_edge12_Node000001_Node000008"><a xlink:title=" ">
<path fill="none" stroke="#63b8ff" d="M498.55,-70.81C482.91,-58.23 460.51,-41.6 438.75,-30.38 432.05,-26.92 424.62,-23.86 417.36,-21.23"/>
<polygon fill="#63b8ff" stroke="#63b8ff" points="495.96,-74.04 505.91,-77.68 500.4,-68.63 495.96,-74.04"/>
</a>
</g>
</g>
<!-- Node3&#45;&gt;Node3 -->
<g id="edge3_Node000003_Node000003" class="edge">
<title>Node3&#45;&gt;Node3</title>
<g id="a_edge3_Node000003_Node000003"><a xlink:title=" ">
<path fill="none" stroke="#63b8ff" d="M403.03,-161.18C399.29,-165.32 391.28,-168.12 379,-168.12 357.76,-168.12 349.29,-159.74 353.61,-150.54"/>
<polygon fill="#63b8ff" stroke="#63b8ff" points="406.59,-161.9 404.39,-151.54 399.65,-161.01 406.59,-161.9"/>
</a>
</g>
</g>
<!-- Node4&#45;&gt;Node2 -->
<g id="edge5_Node000004_Node000002" class="edge">
<title>Node4&#45;&gt;Node2</title>
<g id="a_edge5_Node000004_Node000002"><a xlink:title=" ">
<path fill="none" stroke="#63b8ff" d="M313.18,-95.1C303.41,-96.11 293.38,-97.15 283.73,-98.15"/>
<polygon fill="#63b8ff" stroke="#63b8ff" points="313.47,-98.48 323.05,-93.97 312.74,-91.52 313.47,-98.48"/>
</a>
</g>
</g>
<!-- Node5&#45;&gt;Node2 -->
<g id="edge7_Node000005_Node000002" class="edge">
<title>Node5&#45;&gt;Node2</title>
<g id="a_edge7_Node000005_Node000002"><a xlink:title=" ">
<path fill="none" stroke="#63b8ff" d="M335.34,-63.77C329.92,-65.63 324.45,-67.54 319.25,-69.38 303.1,-75.08 285.48,-81.49 269.82,-87.25"/>
<polygon fill="#63b8ff" stroke="#63b8ff" points="336.3,-66.79 344.63,-60.24 334.04,-60.17 336.3,-66.79"/>
</a>
</g>
</g>
<!-- Node6 -->
<g id="Node000006" class="node">
<title>Node6</title>
<g id="a_Node000006"><a xlink:href="namespaceCLI_1_1detail.html#a001565020c65971162bae8cc2ba7d3e1" target="_top" xlink:title=" ">
<polygon fill="white" stroke="#666666" points="268.62,-51.12 176.88,-51.12 176.88,-17.62 268.62,-17.62 268.62,-51.12"/>
<text text-anchor="start" x="184.88" y="-37.62" font-family="Helvetica,sans-Serif" font-size="10.00">CLI::detail::split</text>
<text text-anchor="middle" x="222.75" y="-24.88" font-family="Helvetica,sans-Serif" font-size="10.00">_names</text>
</a>
</g>
</g>
<!-- Node5&#45;&gt;Node6 -->
<g id="edge8_Node000005_Node000006" class="edge">
<title>Node5&#45;&gt;Node6</title>
<g id="a_edge8_Node000005_Node000006"><a xlink:title=" ">
<path fill="none" stroke="#63b8ff" d="M308.14,-42.58C294.73,-41.28 281.01,-39.94 268.65,-38.74"/>
<polygon fill="#63b8ff" stroke="#63b8ff" points="307.51,-46.13 317.8,-43.62 308.19,-39.17 307.51,-46.13"/>
</a>
</g>
</g>
<!-- Node6&#45;&gt;Node6 -->
<g id="edge11_Node000006_Node000006" class="edge">
<title>Node6&#45;&gt;Node6</title>
<g id="a_edge11_Node000006_Node000006"><a xlink:title=" ">
<path fill="none" stroke="#63b8ff" d="M249.33,-62.18C245.2,-66.32 236.34,-69.12 222.75,-69.12 199.25,-69.12 189.89,-60.74 194.66,-51.54"/>
<polygon fill="#63b8ff" stroke="#63b8ff" points="252.9,-62.93 250.84,-52.54 245.97,-61.95 252.9,-62.93"/>
</a>
</g>
</g>
<!-- Node7 -->
<g id="Node000007" class="node">
<title>Node7</title>
<g id="a_Node000007"><a xlink:href="namespaceCLI_1_1detail.html#aef5e2e24cdf5eb20ac37c5fdabec8f62" target="_top" xlink:title="extract default flag values either {def} or starting with a !">
<polygon fill="white" stroke="#666666" points="126.25,-51.12 0,-51.12 0,-17.62 126.25,-17.62 126.25,-51.12"/>
<text text-anchor="start" x="8" y="-37.62" font-family="Helvetica,sans-Serif" font-size="10.00">CLI::detail::get_default</text>
<text text-anchor="middle" x="63.12" y="-24.88" font-family="Helvetica,sans-Serif" font-size="10.00">_flag_values</text>
</a>
</g>
</g>
<!-- Node6&#45;&gt;Node7 -->
<g id="edge9_Node000006_Node000007" class="edge">
<title>Node6&#45;&gt;Node7</title>
<g id="a_edge9_Node000006_Node000007"><a xlink:title=" ">
<path fill="none" stroke="#63b8ff" d="M165.71,-34.38C153.05,-34.38 139.53,-34.38 126.63,-34.38"/>
<polygon fill="#63b8ff" stroke="#63b8ff" points="165.58,-37.88 175.58,-34.38 165.58,-30.88 165.58,-37.88"/>
</a>
</g>
</g>
<!-- Node7&#45;&gt;Node7 -->
<g id="edge10_Node000007_Node000007" class="edge">
<title>Node7&#45;&gt;Node7</title>
<g id="a_edge10_Node000007_Node000007"><a xlink:title=" ">
<path fill="none" stroke="#63b8ff" d="M90.28,-62.18C86.06,-66.32 77,-69.12 63.12,-69.12 39.12,-69.12 29.55,-60.74 34.43,-51.54"/>
<polygon fill="#63b8ff" stroke="#63b8ff" points="93.85,-62.94 91.82,-52.54 86.92,-61.94 93.85,-62.94"/>
</a>
</g>
</g>
</g>
</svg>
