<?xml version="1.0" encoding="UTF-8" standalone="no"?>
<!DOCTYPE svg PUBLIC "-//W3C//DTD SVG 1.1//EN"
 "http://www.w3.org/Graphics/SVG/1.1/DTD/svg11.dtd">
<!-- Generated by graphviz version 8.1.0 (0)
 -->
<!-- Title: CLI::detail::split_program_name Pages: 1 -->
<svg width="382pt" height="138pt"
 viewBox="0.00 0.00 382.25 138.12" xmlns="http://www.w3.org/2000/svg" xmlns:xlink="http://www.w3.org/1999/xlink">
<g id="graph0" class="graph" transform="scale(1 1) rotate(0) translate(4 134.12)">
<title>CLI::detail::split_program_name</title>
<!-- Node1 -->
<g id="Node000001" class="node">
<title>Node1</title>
<g id="a_Node000001"><a xlink:title=" ">
<polygon fill="#999999" stroke="#666666" points="95.5,-66.12 0,-66.12 0,-32.62 95.5,-32.62 95.5,-66.12"/>
<text text-anchor="start" x="8" y="-52.62" font-family="Helvetica,sans-Serif" font-size="10.00">CLI::detail::split</text>
<text text-anchor="middle" x="47.75" y="-39.88" font-family="Helvetica,sans-Serif" font-size="10.00">_program_name</text>
</a>
</g>
</g>
<!-- Node1&#45;&gt;Node1 -->
<g id="edge4_Node000001_Node000001" class="edge">
<title>Node1&#45;&gt;Node1</title>
<g id="a_edge4_Node000001_Node000001"><a xlink:title=" ">
<path fill="none" stroke="#63b8ff" d="M22.63,-66.54C18.36,-75.74 26.73,-84.12 47.75,-84.12 59.9,-84.12 67.83,-81.32 71.52,-77.18"/>
<polygon fill="#63b8ff" stroke="#63b8ff" points="75.09,-77.9 72.87,-67.54 68.14,-77.02 75.09,-77.9"/>
</a>
</g>
</g>
<!-- Node2 -->
<g id="Node000002" class="node">
<title>Node2</title>
<g id="a_Node000002"><a xlink:href="namespaceCLI_1_1detail.html#ab39b1977d7375250cc57d90723cf1554" target="_top" xlink:title="Find and replace a substring with another substring.">
<polygon fill="white" stroke="#666666" points="243.5,-130.12 131.5,-130.12 131.5,-96.62 243.5,-96.62 243.5,-130.12"/>
<text text-anchor="start" x="139.5" y="-116.62" font-family="Helvetica,sans-Serif" font-size="10.00">CLI::detail::find_and</text>
<text text-anchor="middle" x="187.5" y="-103.88" font-family="Helvetica,sans-Serif" font-size="10.00">_replace</text>
</a>
</g>
</g>
<!-- Node1&#45;&gt;Node2 -->
<g id="edge1_Node000001_Node000002" class="edge">
<title>Node1&#45;&gt;Node2</title>
<g id="a_edge1_Node000001_Node000002"><a xlink:title=" ">
<path fill="none" stroke="#63b8ff" d="M85.66,-66.53C102.34,-74.27 122.23,-83.51 139.92,-91.73"/>
<polygon fill="#63b8ff" stroke="#63b8ff" points="137.94,-95.14 148.48,-96.18 140.89,-88.79 137.94,-95.14"/>
</a>
</g>
</g>
<!-- Node3 -->
<g id="Node000003" class="node">
<title>Node3</title>
<g id="a_Node000003"><a xlink:href="namespaceCLI_1_1detail.html#aa06bf54cb3fb347d68d23d31384af42f" target="_top" xlink:title="Trim whitespace from left of string.">
<polygon fill="white" stroke="#666666" points="373.88,-68.75 279.88,-68.75 279.88,-48 373.88,-48 373.88,-68.75"/>
<text text-anchor="middle" x="326.88" y="-55.25" font-family="Helvetica,sans-Serif" font-size="10.00">CLI::detail::ltrim</text>
</a>
</g>
</g>
<!-- Node1&#45;&gt;Node3 -->
<g id="edge2_Node000001_Node000003" class="edge">
<title>Node1&#45;&gt;Node3</title>
<g id="a_edge2_Node000001_Node000003"><a xlink:title=" ">
<path fill="none" stroke="#63b8ff" d="M95.76,-50.9C143.52,-52.45 217.56,-54.86 268.69,-56.52"/>
<polygon fill="#63b8ff" stroke="#63b8ff" points="268.45,-60.04 278.56,-56.87 268.68,-53.05 268.45,-60.04"/>
</a>
</g>
</g>
<!-- Node4 -->
<g id="Node000004" class="node">
<title>Node4</title>
<g id="a_Node000004"><a xlink:href="namespaceCLI_1_1detail.html#a32d84ce1a65de779e88fdf4aa3b54ea6" target="_top" xlink:title="Trim whitespace from right of string.">
<polygon fill="white" stroke="#666666" points="374.25,-20.75 279.5,-20.75 279.5,0 374.25,0 374.25,-20.75"/>
<text text-anchor="middle" x="326.88" y="-7.25" font-family="Helvetica,sans-Serif" font-size="10.00">CLI::detail::rtrim</text>
</a>
</g>
</g>
<!-- Node1&#45;&gt;Node4 -->
<g id="edge3_Node000001_Node000004" class="edge">
<title>Node1&#45;&gt;Node4</title>
<g id="a_edge3_Node000001_Node000004"><a xlink:title=" ">
<path fill="none" stroke="#63b8ff" d="M77.93,-32.27C93.32,-24.22 112.82,-15.51 131.5,-11.38 176.73,-1.36 229.34,-1.8 268.42,-4.36"/>
<polygon fill="#63b8ff" stroke="#63b8ff" points="268.09,-7.92 278.31,-5.15 268.59,-0.94 268.09,-7.92"/>
</a>
</g>
</g>
<!-- Node5 -->
<g id="Node000005" class="node">
<title>Node5</title>
<g id="a_Node000005"><a xlink:href="namespaceCLI_1_1detail.html#a621323632158048f6168deacc432b838" target="_top" xlink:title="Trim whitespace from string.">
<polygon fill="white" stroke="#666666" points="233,-40.75 142,-40.75 142,-20 233,-20 233,-40.75"/>
<text text-anchor="middle" x="187.5" y="-27.25" font-family="Helvetica,sans-Serif" font-size="10.00">CLI::detail::trim</text>
</a>
</g>
</g>
<!-- Node1&#45;&gt;Node5 -->
<g id="edge5_Node000001_Node000005" class="edge">
<title>Node1&#45;&gt;Node5</title>
<g id="a_edge5_Node000001_Node000005"><a xlink:title=" ">
<path fill="none" stroke="#63b8ff" d="M95.77,-42.89C107.11,-41.33 119.33,-39.64 131.01,-38.03"/>
<polygon fill="#63b8ff" stroke="#63b8ff" points="131.12,-41.41 140.55,-36.57 130.17,-34.47 131.12,-41.41"/>
</a>
</g>
</g>
<!-- Node5&#45;&gt;Node3 -->
<g id="edge6_Node000005_Node000003" class="edge">
<title>Node5&#45;&gt;Node3</title>
<g id="a_edge6_Node000005_Node000003"><a xlink:title=" ">
<path fill="none" stroke="#63b8ff" d="M233.48,-39.54C244.74,-41.84 256.98,-44.33 268.74,-46.73"/>
<polygon fill="#63b8ff" stroke="#63b8ff" points="267.88,-50.33 278.38,-48.9 269.28,-43.47 267.88,-50.33"/>
</a>
</g>
</g>
<!-- Node5&#45;&gt;Node4 -->
<g id="edge7_Node000005_Node000004" class="edge">
<title>Node5&#45;&gt;Node4</title>
<g id="a_edge7_Node000005_Node000004"><a xlink:title=" ">
<path fill="none" stroke="#63b8ff" d="M233.48,-23.83C244.74,-22.19 256.98,-20.41 268.74,-18.69"/>
<polygon fill="#63b8ff" stroke="#63b8ff" points="268.99,-22.05 278.38,-17.14 267.98,-15.12 268.99,-22.05"/>
</a>
</g>
</g>
</g>
</svg>
