<?xml version="1.0" encoding="UTF-8" standalone="no"?>
<!DOCTYPE svg PUBLIC "-//W3C//DTD SVG 1.1//EN"
 "http://www.w3.org/Graphics/SVG/1.1/DTD/svg11.dtd">
<!-- Generated by graphviz version 5.0.1 (0)
 -->
<!-- Title: CLI::detail::convert_arg_for_ini Pages: 1 -->
<svg width="403pt" height="53pt"
 viewBox="0.00 0.00 403.00 52.50" xmlns="http://www.w3.org/2000/svg" xmlns:xlink="http://www.w3.org/1999/xlink">
<g id="graph0" class="graph" transform="scale(1 1) rotate(0) translate(4 48.5)">
<title>CLI::detail::convert_arg_for_ini</title>
<!-- Node1 -->
<g id="node1" class="node">
<title>Node1</title>
<g id="a_node1"><a xlink:title=" ">
<polygon fill="#bfbfbf" stroke="black" points="287,-0.5 287,-30.5 395,-30.5 395,-0.5 287,-0.5"/>
<text text-anchor="start" x="295" y="-18.5" font-family="Helvetica,sans-Serif" font-size="10.00">CLI::detail::convert</text>
<text text-anchor="middle" x="341" y="-7.5" font-family="Helvetica,sans-Serif" font-size="10.00">_arg_for_ini</text>
</a>
</g>
</g>
<!-- Node2 -->
<g id="node2" class="node">
<title>Node2</title>
<g id="a_node2"><a xlink:href="namespaceCLI_1_1detail.html#a0b12b08c7bc02a39431b3da4f123e93d" target="_top" xlink:title="Comma separated join, adds quotes if needed.">
<polygon fill="none" stroke="black" points="144,-25 144,-44 251,-44 251,-25 144,-25"/>
<text text-anchor="middle" x="197.5" y="-32" font-family="Helvetica,sans-Serif" font-size="10.00">CLI::detail::ini_join</text>
</a>
</g>
</g>
<!-- Node1&#45;&gt;Node2 -->
<g id="edge1" class="edge">
<title>Node1&#45;&gt;Node2</title>
<path fill="none" stroke="midnightblue" d="M276.98,-23.96C268.45,-25.11 259.76,-26.27 251.42,-27.39"/>
<polygon fill="midnightblue" stroke="midnightblue" points="277.46,-27.43 286.91,-22.63 276.53,-20.49 277.46,-27.43"/>
</g>
<!-- Node3 -->
<g id="node3" class="node">
<title>Node3</title>
<g id="a_node3"><a xlink:href="classCLI_1_1ConfigBase.html#a5832f6f03212648fa08a8ff83bc9bc08" target="_top" xlink:title="Convert an app into a configuration.">
<polygon fill="none" stroke="black" points="0,-0.5 0,-30.5 108,-30.5 108,-0.5 0,-0.5"/>
<text text-anchor="start" x="8" y="-18.5" font-family="Helvetica,sans-Serif" font-size="10.00">CLI::ConfigBase::to</text>
<text text-anchor="middle" x="54" y="-7.5" font-family="Helvetica,sans-Serif" font-size="10.00">_config</text>
</a>
</g>
</g>
<!-- Node1&#45;&gt;Node3 -->
<g id="edge3" class="edge">
<title>Node1&#45;&gt;Node3</title>
<path fill="none" stroke="midnightblue" d="M276.55,-15.5C225.88,-15.5 155.71,-15.5 108.01,-15.5"/>
<polygon fill="midnightblue" stroke="midnightblue" points="276.73,-19 286.73,-15.5 276.73,-12 276.73,-19"/>
</g>
<!-- Node2&#45;&gt;Node3 -->
<g id="edge2" class="edge">
<title>Node2&#45;&gt;Node3</title>
<path fill="none" stroke="midnightblue" d="M133.86,-26.09C125.3,-24.94 116.58,-23.77 108.21,-22.64"/>
<polygon fill="midnightblue" stroke="midnightblue" points="133.43,-29.56 143.81,-27.43 134.37,-22.63 133.43,-29.56"/>
</g>
</g>
</svg>
