<?xml version="1.0" encoding="UTF-8" standalone="no"?>
<!DOCTYPE svg PUBLIC "-//W3C//DTD SVG 1.1//EN"
 "http://www.w3.org/Graphics/SVG/1.1/DTD/svg11.dtd">
<!-- Generated by graphviz version 8.1.0 (0)
 -->
<!-- Title: CLI::detail::rtrim Pages: 1 -->
<svg width="705pt" height="214pt"
 viewBox="0.00 0.00 704.50 214.12" xmlns="http://www.w3.org/2000/svg" xmlns:xlink="http://www.w3.org/1999/xlink">
<g id="graph0" class="graph" transform="scale(1 1) rotate(0) translate(4 210.12)">
<title>CLI::detail::rtrim</title>
<!-- Node1 -->
<g id="Node000001" class="node">
<title>Node1</title>
<g id="a_Node000001"><a xlink:title="Trim whitespace from right of string.">
<polygon fill="#999999" stroke="#666666" points="696.5,-109.75 601.75,-109.75 601.75,-89 696.5,-89 696.5,-109.75"/>
<text text-anchor="middle" x="649.12" y="-96.25" font-family="Helvetica,sans-Serif" font-size="10.00">CLI::detail::rtrim</text>
</a>
</g>
</g>
<!-- Node2 -->
<g id="Node000002" class="node">
<title>Node2</title>
<g id="a_Node000002"><a xlink:href="namespaceCLI_1_1detail.html#a86c8be4c04334eea7717547ed6816533" target="_top" xlink:title=" ">
<polygon fill="white" stroke="#666666" points="426.75,-188.12 331.25,-188.12 331.25,-154.62 426.75,-154.62 426.75,-188.12"/>
<text text-anchor="start" x="339.25" y="-174.62" font-family="Helvetica,sans-Serif" font-size="10.00">CLI::detail::split</text>
<text text-anchor="middle" x="379" y="-161.88" font-family="Helvetica,sans-Serif" font-size="10.00">_program_name</text>
</a>
</g>
</g>
<!-- Node1&#45;&gt;Node2 -->
<g id="edge1_Node000001_Node000002" class="edge">
<title>Node1&#45;&gt;Node2</title>
<g id="a_edge1_Node000001_Node000002"><a xlink:title=" ">
<path fill="none" stroke="#63b8ff" d="M597.33,-113.02C548.34,-126.17 474.79,-145.92 427.09,-158.73"/>
<polygon fill="#63b8ff" stroke="#63b8ff" points="597.94,-116.21 606.69,-110.23 596.13,-109.45 597.94,-116.21"/>
</a>
</g>
</g>
<!-- Node3 -->
<g id="Node000003" class="node">
<title>Node3</title>
<g id="a_Node000003"><a xlink:href="namespaceCLI_1_1detail.html#a621323632158048f6168deacc432b838" target="_top" xlink:title="Trim whitespace from string.">
<polygon fill="white" stroke="#666666" points="565.75,-109.75 474.75,-109.75 474.75,-89 565.75,-89 565.75,-109.75"/>
<text text-anchor="middle" x="520.25" y="-96.25" font-family="Helvetica,sans-Serif" font-size="10.00">CLI::detail::trim</text>
</a>
</g>
</g>
<!-- Node1&#45;&gt;Node3 -->
<g id="edge3_Node000001_Node000003" class="edge">
<title>Node1&#45;&gt;Node3</title>
<g id="a_edge3_Node000001_Node000003"><a xlink:title=" ">
<path fill="none" stroke="#63b8ff" d="M590.82,-99.38C582.52,-99.38 574.08,-99.38 566.08,-99.38"/>
<polygon fill="#63b8ff" stroke="#63b8ff" points="590.6,-102.88 600.6,-99.38 590.6,-95.88 590.6,-102.88"/>
</a>
</g>
</g>
<!-- Node10 -->
<g id="Node000010" class="node">
<title>Node10</title>
<g id="a_Node000010"><a xlink:href="namespaceCLI_1_1detail.html#a0f03e175032897c99f1ae0e0f1cde27a" target="_top" xlink:title="Trim anything from string.">
<polygon fill="white" stroke="#666666" points="565.75,-70.75 474.75,-70.75 474.75,-50 565.75,-50 565.75,-70.75"/>
<text text-anchor="middle" x="520.25" y="-57.25" font-family="Helvetica,sans-Serif" font-size="10.00">CLI::detail::trim</text>
</a>
</g>
</g>
<!-- Node1&#45;&gt;Node10 -->
<g id="edge15_Node000001_Node000010" class="edge">
<title>Node1&#45;&gt;Node10</title>
<g id="a_edge15_Node000001_Node000010"><a xlink:title=" ">
<path fill="none" stroke="#63b8ff" d="M602.55,-85.37C587.36,-80.7 570.68,-75.57 556.4,-71.18"/>
<polygon fill="#63b8ff" stroke="#63b8ff" points="601.2,-88.92 611.78,-88.51 603.25,-82.23 601.2,-88.92"/>
</a>
</g>
</g>
<!-- Node2&#45;&gt;Node2 -->
<g id="edge2_Node000002_Node000002" class="edge">
<title>Node2&#45;&gt;Node2</title>
<g id="a_edge2_Node000002_Node000002"><a xlink:title=" ">
<path fill="none" stroke="#63b8ff" d="M403.03,-199.18C399.29,-203.32 391.28,-206.12 379,-206.12 357.76,-206.12 349.29,-197.74 353.61,-188.54"/>
<polygon fill="#63b8ff" stroke="#63b8ff" points="406.59,-199.9 404.39,-189.54 399.65,-199.01 406.59,-199.9"/>
</a>
</g>
</g>
<!-- Node3&#45;&gt;Node2 -->
<g id="edge5_Node000003_Node000002" class="edge">
<title>Node3&#45;&gt;Node2</title>
<g id="a_edge5_Node000003_Node000002"><a xlink:title=" ">
<path fill="none" stroke="#63b8ff" d="M488.75,-115.14C466.42,-126.69 436.12,-142.36 413.18,-154.22"/>
<polygon fill="#63b8ff" stroke="#63b8ff" points="490.13,-117.86 497.4,-110.15 486.91,-111.64 490.13,-117.86"/>
</a>
</g>
</g>
<!-- Node4 -->
<g id="Node000004" class="node">
<title>Node4</title>
<g id="a_Node000004"><a xlink:href="classCLI_1_1ConfigBase.html#a1395eecde5af65b73e3670529df0e17b" target="_top" xlink:title="Convert a configuration into an app.">
<polygon fill="white" stroke="#666666" points="283.25,-121.12 162.25,-121.12 162.25,-87.62 283.25,-87.62 283.25,-121.12"/>
<text text-anchor="start" x="170.25" y="-107.62" font-family="Helvetica,sans-Serif" font-size="10.00">CLI::ConfigBase::from</text>
<text text-anchor="middle" x="222.75" y="-94.88" font-family="Helvetica,sans-Serif" font-size="10.00">_config</text>
</a>
</g>
</g>
<!-- Node3&#45;&gt;Node4 -->
<g id="edge4_Node000003_Node000004" class="edge">
<title>Node3&#45;&gt;Node4</title>
<g id="a_edge4_Node000003_Node000004"><a xlink:title=" ">
<path fill="none" stroke="#63b8ff" d="M463.75,-105.62C455.38,-106.35 446.85,-106.97 438.75,-107.38 386.37,-109.97 326.72,-108.81 283.56,-107.24"/>
<polygon fill="#63b8ff" stroke="#63b8ff" points="463.97,-109.02 473.6,-104.61 463.32,-102.05 463.97,-109.02"/>
</a>
</g>
</g>
<!-- Node5 -->
<g id="Node000005" class="node">
<title>Node5</title>
<g id="a_Node000005"><a xlink:href="namespaceCLI_1_1detail.html#a53c98c658b23ec5530f755118d632f90" target="_top" xlink:title=" ">
<polygon fill="white" stroke="#666666" points="433.5,-98.75 324.5,-98.75 324.5,-78 433.5,-78 433.5,-98.75"/>
<text text-anchor="middle" x="379" y="-85.25" font-family="Helvetica,sans-Serif" font-size="10.00">CLI::detail::split_up</text>
</a>
</g>
</g>
<!-- Node3&#45;&gt;Node5 -->
<g id="edge6_Node000003_Node000005" class="edge">
<title>Node3&#45;&gt;Node5</title>
<g id="a_edge6_Node000003_Node000005"><a xlink:title=" ">
<path fill="none" stroke="#63b8ff" d="M463.61,-94.98C453.85,-94.21 443.71,-93.41 433.99,-92.64"/>
<polygon fill="#63b8ff" stroke="#63b8ff" points="463.18,-98.54 473.42,-95.83 463.73,-91.56 463.18,-98.54"/>
</a>
</g>
</g>
<!-- Node6 -->
<g id="Node000006" class="node">
<title>Node6</title>
<g id="a_Node000006"><a xlink:href="namespaceCLI_1_1detail.html#a5c7b00a328b3b2da564794081646c251" target="_top" xlink:title="Make a copy of the string and then trim it.">
<polygon fill="white" stroke="#666666" points="438.75,-59.75 319.25,-59.75 319.25,-39 438.75,-39 438.75,-59.75"/>
<text text-anchor="middle" x="379" y="-46.25" font-family="Helvetica,sans-Serif" font-size="10.00">CLI::detail::trim_copy</text>
</a>
</g>
</g>
<!-- Node3&#45;&gt;Node6 -->
<g id="edge8_Node000003_Node000006" class="edge">
<title>Node3&#45;&gt;Node6</title>
<g id="a_edge8_Node000003_Node000006"><a xlink:title=" ">
<path fill="none" stroke="#63b8ff" d="M480.78,-84.78C467.49,-79.81 452.5,-74.27 438.75,-69.38 430.22,-66.34 420.97,-63.14 412.38,-60.21"/>
<polygon fill="#63b8ff" stroke="#63b8ff" points="479.42,-88.39 490.01,-88.63 481.88,-81.83 479.42,-88.39"/>
</a>
</g>
</g>
<!-- Node9 -->
<g id="Node000009" class="node">
<title>Node9</title>
<g id="a_Node000009"><a xlink:href="namespaceCLI_1_1detail.html#a09bd3735d1104a453e5376a43140d5a8" target="_top" xlink:title="Make a copy of the string and then trim it, any filter string can be used (any char in string is filt...">
<polygon fill="white" stroke="#666666" points="438.75,-20.75 319.25,-20.75 319.25,0 438.75,0 438.75,-20.75"/>
<text text-anchor="middle" x="379" y="-7.25" font-family="Helvetica,sans-Serif" font-size="10.00">CLI::detail::trim_copy</text>
</a>
</g>
</g>
<!-- Node3&#45;&gt;Node9 -->
<g id="edge14_Node000003_Node000009" class="edge">
<title>Node3&#45;&gt;Node9</title>
<g id="a_edge14_Node000003_Node000009"><a xlink:title=" ">
<path fill="none" stroke="#63b8ff" d="M480.54,-83.54C478.51,-82.23 476.57,-80.85 474.75,-79.38 453.73,-62.39 460.54,-46.35 438.75,-30.38 433.71,-26.68 427.94,-23.63 422.02,-21.13"/>
<polygon fill="#63b8ff" stroke="#63b8ff" points="478.32,-86.86 488.75,-88.72 481.75,-80.76 478.32,-86.86"/>
</a>
</g>
</g>
<!-- Node5&#45;&gt;Node4 -->
<g id="edge7_Node000005_Node000004" class="edge">
<title>Node5&#45;&gt;Node4</title>
<g id="a_edge7_Node000005_Node000004"><a xlink:title=" ">
<path fill="none" stroke="#63b8ff" d="M313.18,-95.1C303.41,-96.11 293.38,-97.15 283.73,-98.15"/>
<polygon fill="#63b8ff" stroke="#63b8ff" points="313.47,-98.48 323.05,-93.97 312.74,-91.52 313.47,-98.48"/>
</a>
</g>
</g>
<!-- Node6&#45;&gt;Node4 -->
<g id="edge9_Node000006_Node000004" class="edge">
<title>Node6&#45;&gt;Node4</title>
<g id="a_edge9_Node000006_Node000004"><a xlink:title=" ">
<path fill="none" stroke="#63b8ff" d="M335.34,-63.77C329.92,-65.63 324.45,-67.54 319.25,-69.38 303.1,-75.08 285.48,-81.49 269.82,-87.25"/>
<polygon fill="#63b8ff" stroke="#63b8ff" points="336.3,-66.79 344.63,-60.24 334.04,-60.17 336.3,-66.79"/>
</a>
</g>
</g>
<!-- Node7 -->
<g id="Node000007" class="node">
<title>Node7</title>
<g id="a_Node000007"><a xlink:href="namespaceCLI_1_1detail.html#a001565020c65971162bae8cc2ba7d3e1" target="_top" xlink:title=" ">
<polygon fill="white" stroke="#666666" points="268.62,-51.12 176.88,-51.12 176.88,-17.62 268.62,-17.62 268.62,-51.12"/>
<text text-anchor="start" x="184.88" y="-37.62" font-family="Helvetica,sans-Serif" font-size="10.00">CLI::detail::split</text>
<text text-anchor="middle" x="222.75" y="-24.88" font-family="Helvetica,sans-Serif" font-size="10.00">_names</text>
</a>
</g>
</g>
<!-- Node6&#45;&gt;Node7 -->
<g id="edge10_Node000006_Node000007" class="edge">
<title>Node6&#45;&gt;Node7</title>
<g id="a_edge10_Node000006_Node000007"><a xlink:title=" ">
<path fill="none" stroke="#63b8ff" d="M308.14,-42.58C294.73,-41.28 281.01,-39.94 268.65,-38.74"/>
<polygon fill="#63b8ff" stroke="#63b8ff" points="307.51,-46.13 317.8,-43.62 308.19,-39.17 307.51,-46.13"/>
</a>
</g>
</g>
<!-- Node7&#45;&gt;Node7 -->
<g id="edge13_Node000007_Node000007" class="edge">
<title>Node7&#45;&gt;Node7</title>
<g id="a_edge13_Node000007_Node000007"><a xlink:title=" ">
<path fill="none" stroke="#63b8ff" d="M249.33,-62.18C245.2,-66.32 236.34,-69.12 222.75,-69.12 199.25,-69.12 189.89,-60.74 194.66,-51.54"/>
<polygon fill="#63b8ff" stroke="#63b8ff" points="252.9,-62.93 250.84,-52.54 245.97,-61.95 252.9,-62.93"/>
</a>
</g>
</g>
<!-- Node8 -->
<g id="Node000008" class="node">
<title>Node8</title>
<g id="a_Node000008"><a xlink:href="namespaceCLI_1_1detail.html#aef5e2e24cdf5eb20ac37c5fdabec8f62" target="_top" xlink:title="extract default flag values either {def} or starting with a !">
<polygon fill="white" stroke="#666666" points="126.25,-51.12 0,-51.12 0,-17.62 126.25,-17.62 126.25,-51.12"/>
<text text-anchor="start" x="8" y="-37.62" font-family="Helvetica,sans-Serif" font-size="10.00">CLI::detail::get_default</text>
<text text-anchor="middle" x="63.12" y="-24.88" font-family="Helvetica,sans-Serif" font-size="10.00">_flag_values</text>
</a>
</g>
</g>
<!-- Node7&#45;&gt;Node8 -->
<g id="edge11_Node000007_Node000008" class="edge">
<title>Node7&#45;&gt;Node8</title>
<g id="a_edge11_Node000007_Node000008"><a xlink:title=" ">
<path fill="none" stroke="#63b8ff" d="M165.71,-34.38C153.05,-34.38 139.53,-34.38 126.63,-34.38"/>
<polygon fill="#63b8ff" stroke="#63b8ff" points="165.58,-37.88 175.58,-34.38 165.58,-30.88 165.58,-37.88"/>
</a>
</g>
</g>
<!-- Node8&#45;&gt;Node8 -->
<g id="edge12_Node000008_Node000008" class="edge">
<title>Node8&#45;&gt;Node8</title>
<g id="a_edge12_Node000008_Node000008"><a xlink:title=" ">
<path fill="none" stroke="#63b8ff" d="M90.28,-62.18C86.06,-66.32 77,-69.12 63.12,-69.12 39.12,-69.12 29.55,-60.74 34.43,-51.54"/>
<polygon fill="#63b8ff" stroke="#63b8ff" points="93.85,-62.94 91.82,-52.54 86.92,-61.94 93.85,-62.94"/>
</a>
</g>
</g>
</g>
</svg>
