<?xml version="1.0" encoding="UTF-8" standalone="no"?>
<!DOCTYPE svg PUBLIC "-//W3C//DTD SVG 1.1//EN"
 "http://www.w3.org/Graphics/SVG/1.1/DTD/svg11.dtd">
<!-- Generated by graphviz version 9.0.0 (0)
 -->
<!-- Title: CLI::deprecate_option Pages: 1 -->
<svg width="466pt" height="168pt"
 viewBox="0.00 0.00 466.25 167.75" xmlns="http://www.w3.org/2000/svg" xmlns:xlink="http://www.w3.org/1999/xlink">
<g id="graph0" class="graph" transform="scale(1 1) rotate(0) translate(4 163.75)">
<title>CLI::deprecate_option</title>
<!-- Node1 -->
<g id="Node000001" class="node">
<title>Node1</title>
<g id="a_Node000001"><a xlink:title="Helper function to mark an option as deprecated.">
<polygon fill="#999999" stroke="#666666" points="121.75,-78.75 0,-78.75 0,-58 121.75,-58 121.75,-78.75"/>
<text text-anchor="middle" x="60.88" y="-65.25" font-family="Helvetica,sans-Serif" font-size="10.00">CLI::deprecate_option</text>
</a>
</g>
</g>
<!-- Node2 -->
<g id="Node000002" class="node">
<title>Node2</title>
<g id="a_Node000002"><a xlink:href="classCLI_1_1Option.html#ae94ff5bfc6549f9c86aff629be829353" target="_top" xlink:title="Adds a Validator with a built in type name.">
<polygon fill="white" stroke="#666666" points="284.75,-137.75 181,-137.75 181,-117 284.75,-117 284.75,-137.75"/>
<text text-anchor="middle" x="232.88" y="-124.25" font-family="Helvetica,sans-Serif" font-size="10.00">CLI::Option::check</text>
</a>
</g>
</g>
<!-- Node1&#45;&gt;Node2 -->
<g id="edge1_Node000001_Node000002" class="edge">
<title>Node1&#45;&gt;Node2</title>
<g id="a_edge1_Node000001_Node000002"><a xlink:title=" ">
<path fill="none" stroke="#63b8ff" d="M86,-79.15C105.2,-87.49 132.89,-99 157.75,-107.38 163.98,-109.47 170.56,-111.51 177.13,-113.42"/>
<polygon fill="#63b8ff" stroke="#63b8ff" points="176.07,-116.76 186.64,-116.11 177.97,-110.02 176.07,-116.76"/>
</a>
</g>
</g>
<!-- Node5 -->
<g id="Node000005" class="node">
<title>Node5</title>
<g id="a_Node000005"><a xlink:href="classCLI_1_1Option.html#adb517865b2f89c023e9544085cb332e4" target="_top" xlink:title="Set the description.">
<polygon fill="white" stroke="#666666" points="297.5,-98.75 168.25,-98.75 168.25,-78 297.5,-78 297.5,-98.75"/>
<text text-anchor="middle" x="232.88" y="-85.25" font-family="Helvetica,sans-Serif" font-size="10.00">CLI::Option::description</text>
</a>
</g>
</g>
<!-- Node1&#45;&gt;Node5 -->
<g id="edge4_Node000001_Node000005" class="edge">
<title>Node1&#45;&gt;Node5</title>
<g id="a_edge4_Node000001_Node000005"><a xlink:title=" ">
<path fill="none" stroke="#63b8ff" d="M121.81,-75.43C133.11,-76.76 145.06,-78.16 156.76,-79.54"/>
<polygon fill="#63b8ff" stroke="#63b8ff" points="156.02,-82.98 166.36,-80.67 156.84,-76.02 156.02,-82.98"/>
</a>
</g>
</g>
<!-- Node6 -->
<g id="Node000006" class="node">
<title>Node6</title>
<g id="a_Node000006"><a xlink:href="classCLI_1_1Option.html#a6298f2354e3e02d262f1f6815621639a" target="_top" xlink:title="Get the description.">
<polygon fill="white" stroke="#666666" points="308,-59.75 157.75,-59.75 157.75,-39 308,-39 308,-59.75"/>
<text text-anchor="middle" x="232.88" y="-46.25" font-family="Helvetica,sans-Serif" font-size="10.00">CLI::Option::get_description</text>
</a>
</g>
</g>
<!-- Node1&#45;&gt;Node6 -->
<g id="edge5_Node000001_Node000006" class="edge">
<title>Node1&#45;&gt;Node6</title>
<g id="a_edge5_Node000001_Node000006"><a xlink:title=" ">
<path fill="none" stroke="#63b8ff" d="M121.81,-61.68C129.7,-60.79 137.9,-59.88 146.11,-58.96"/>
<polygon fill="#63b8ff" stroke="#63b8ff" points="146.23,-62.47 155.78,-57.88 145.46,-55.51 146.23,-62.47"/>
</a>
</g>
</g>
<!-- Node7 -->
<g id="Node000007" class="node">
<title>Node7</title>
<g id="a_Node000007"><a xlink:href="classCLI_1_1Option.html#ab84751fbf9037efaed5b64fed17fe57f" target="_top" xlink:title="Gets a comma separated list of names. Will include / prefer the positional name if positional is true...">
<polygon fill="white" stroke="#666666" points="294.88,-20.75 170.88,-20.75 170.88,0 294.88,0 294.88,-20.75"/>
<text text-anchor="middle" x="232.88" y="-7.25" font-family="Helvetica,sans-Serif" font-size="10.00">CLI::Option::get_name</text>
</a>
</g>
</g>
<!-- Node1&#45;&gt;Node7 -->
<g id="edge6_Node000001_Node000007" class="edge">
<title>Node1&#45;&gt;Node7</title>
<g id="a_edge6_Node000001_Node000007"><a xlink:title=" ">
<path fill="none" stroke="#63b8ff" d="M86.82,-57.58C106,-49.5 133.28,-38.5 157.75,-30.38 164.23,-28.23 171.08,-26.14 177.89,-24.17"/>
<polygon fill="#63b8ff" stroke="#63b8ff" points="178.37,-27.67 187.06,-21.6 176.48,-20.93 178.37,-27.67"/>
</a>
</g>
</g>
<!-- Node3 -->
<g id="Node000003" class="node">
<title>Node3</title>
<g id="a_Node000003"><a xlink:href="classCLI_1_1Validator.html#a8fc0ddaaa61f5dc5a7fa527d697991da" target="_top" xlink:title="Specify the type string.">
<polygon fill="white" stroke="#666666" points="458.25,-159.75 344,-159.75 344,-139 458.25,-139 458.25,-159.75"/>
<text text-anchor="middle" x="401.12" y="-146.25" font-family="Helvetica,sans-Serif" font-size="10.00">CLI::Validator::name</text>
</a>
</g>
</g>
<!-- Node2&#45;&gt;Node3 -->
<g id="edge2_Node000002_Node000003" class="edge">
<title>Node2&#45;&gt;Node3</title>
<g id="a_edge2_Node000002_Node000003"><a xlink:title=" ">
<path fill="none" stroke="#63b8ff" d="M285.11,-134.16C300.01,-136.13 316.51,-138.31 332.26,-140.39"/>
<polygon fill="#63b8ff" stroke="#63b8ff" points="331.68,-143.85 342.06,-141.69 332.6,-136.91 331.68,-143.85"/>
</a>
</g>
</g>
<!-- Node4 -->
<g id="Node000004" class="node">
<title>Node4</title>
<g id="a_Node000004"><a xlink:href="classCLI_1_1Validator.html#a356d979d984dffff3489caf4baca9160" target="_top" xlink:title="Specify whether the Validator can be modifying or not.">
<polygon fill="white" stroke="#666666" points="453.38,-121.12 348.88,-121.12 348.88,-87.62 453.38,-87.62 453.38,-121.12"/>
<text text-anchor="start" x="356.88" y="-107.62" font-family="Helvetica,sans-Serif" font-size="10.00">CLI::Validator::non</text>
<text text-anchor="middle" x="401.12" y="-94.88" font-family="Helvetica,sans-Serif" font-size="10.00">_modifying</text>
</a>
</g>
</g>
<!-- Node2&#45;&gt;Node4 -->
<g id="edge3_Node000002_Node000004" class="edge">
<title>Node2&#45;&gt;Node4</title>
<g id="a_edge3_Node000002_Node000004"><a xlink:title=" ">
<path fill="none" stroke="#63b8ff" d="M285.11,-120.29C301.63,-118 320.12,-115.44 337.36,-113.06"/>
<polygon fill="#63b8ff" stroke="#63b8ff" points="337.56,-116.56 346.99,-111.73 336.6,-109.63 337.56,-116.56"/>
</a>
</g>
</g>
</g>
</svg>
