<?xml version="1.0" encoding="UTF-8" standalone="no"?>
<!DOCTYPE svg PUBLIC "-//W3C//DTD SVG 1.1//EN"
 "http://www.w3.org/Graphics/SVG/1.1/DTD/svg11.dtd">
<!-- Generated by graphviz version 9.0.0 (0)
 -->
<!-- Title: ghc::filesystem::current_path Pages: 1 -->
<svg width="340pt" height="104pt"
 viewBox="0.00 0.00 340.00 103.75" xmlns="http://www.w3.org/2000/svg" xmlns:xlink="http://www.w3.org/1999/xlink">
<g id="graph0" class="graph" transform="scale(1 1) rotate(0) translate(4 99.75)">
<title>ghc::filesystem::current_path</title>
<!-- Node1 -->
<g id="Node000001" class="node">
<title>Node1</title>
<g id="a_Node000001"><a xlink:title=" ">
<polygon fill="#999999" stroke="#666666" points="332,-48.75 174.25,-48.75 174.25,-28 332,-28 332,-48.75"/>
<text text-anchor="middle" x="253.12" y="-35.25" font-family="Helvetica,sans-Serif" font-size="10.00">ghc::filesystem::current_path</text>
</a>
</g>
</g>
<!-- Node2 -->
<g id="Node000002" class="node">
<title>Node2</title>
<g id="a_Node000002"><a xlink:href="namespaceghc_1_1filesystem.html#aa55acfbcb365c1d60c2a27a4df65f862" target="_top" xlink:title=" ">
<polygon fill="white" stroke="#666666" points="138.25,-77.75 0,-77.75 0,-57 138.25,-57 138.25,-77.75"/>
<text text-anchor="middle" x="69.12" y="-64.25" font-family="Helvetica,sans-Serif" font-size="10.00">ghc::filesystem::absolute</text>
</a>
</g>
</g>
<!-- Node1&#45;&gt;Node2 -->
<g id="edge1_Node000001_Node000002" class="edge">
<title>Node1&#45;&gt;Node2</title>
<g id="a_edge1_Node000001_Node000002"><a xlink:title=" ">
<path fill="none" stroke="#63b8ff" d="M172.75,-51.02C161.29,-52.85 149.59,-54.71 138.37,-56.5"/>
<polygon fill="#63b8ff" stroke="#63b8ff" points="173.28,-54.48 182.6,-49.45 172.18,-47.57 173.28,-54.48"/>
</a>
</g>
</g>
<!-- Node3 -->
<g id="Node000003" class="node">
<title>Node3</title>
<g id="a_Node000003"><a xlink:href="namespaceghc_1_1filesystem.html#a94cde8e109dd979c1ff5c3a384b927ea" target="_top" xlink:title=" ">
<polygon fill="white" stroke="#666666" points="136,-20.75 2.25,-20.75 2.25,0 136,0 136,-20.75"/>
<text text-anchor="middle" x="69.12" y="-7.25" font-family="Helvetica,sans-Serif" font-size="10.00">ghc::filesystem::relative</text>
</a>
</g>
</g>
<!-- Node1&#45;&gt;Node3 -->
<g id="edge3_Node000001_Node000003" class="edge">
<title>Node1&#45;&gt;Node3</title>
<g id="a_edge3_Node000001_Node000003"><a xlink:title=" ">
<path fill="none" stroke="#63b8ff" d="M170.22,-25.77C158.84,-24.02 147.28,-22.24 136.24,-20.55"/>
<polygon fill="#63b8ff" stroke="#63b8ff" points="169.59,-29.22 180,-27.28 170.65,-22.3 169.59,-29.22"/>
</a>
</g>
</g>
<!-- Node2&#45;&gt;Node2 -->
<g id="edge2_Node000002_Node000002" class="edge">
<title>Node2&#45;&gt;Node2</title>
<g id="a_edge2_Node000002_Node000002"><a xlink:title=" ">
<path fill="none" stroke="#63b8ff" d="M101.5,-89.24C97.21,-93.08 86.42,-95.75 69.12,-95.75 37.5,-95.75 27.62,-86.81 39.48,-78.15"/>
<polygon fill="#63b8ff" stroke="#63b8ff" points="104.92,-88.49 99.14,-79.62 98.13,-90.16 104.92,-88.49"/>
</a>
</g>
</g>
<!-- Node3&#45;&gt;Node3 -->
<g id="edge4_Node000003_Node000003" class="edge">
<title>Node3&#45;&gt;Node3</title>
<g id="a_edge4_Node000003_Node000003"><a xlink:title=" ">
<path fill="none" stroke="#63b8ff" d="M101.5,-32.24C97.21,-36.08 86.42,-38.75 69.12,-38.75 37.5,-38.75 27.62,-29.81 39.48,-21.15"/>
<polygon fill="#63b8ff" stroke="#63b8ff" points="104.92,-31.49 99.14,-22.62 98.13,-33.16 104.92,-31.49"/>
</a>
</g>
</g>
</g>
</svg>
