<?xml version="1.0" encoding="UTF-8" standalone="no"?>
<!DOCTYPE svg PUBLIC "-//W3C//DTD SVG 1.1//EN"
 "http://www.w3.org/Graphics/SVG/1.1/DTD/svg11.dtd">
<!-- Generated by graphviz version 5.0.1 (0)
 -->
<!-- Title: CLI::FailureMessage::simple Pages: 1 -->
<svg width="407pt" height="135pt"
 viewBox="0.00 0.00 407.00 134.50" xmlns="http://www.w3.org/2000/svg" xmlns:xlink="http://www.w3.org/1999/xlink">
<g id="graph0" class="graph" transform="scale(1 1) rotate(0) translate(4 130.5)">
<title>CLI::FailureMessage::simple</title>
<!-- Node1 -->
<g id="node1" class="node">
<title>Node1</title>
<g id="a_node1"><a xlink:title="Printout a clean, simple message on error (the default in CLI11 1.5+)">
<polygon fill="#bfbfbf" stroke="black" points="0,-33 0,-63 113,-63 113,-33 0,-33"/>
<text text-anchor="start" x="8" y="-51" font-family="Helvetica,sans-Serif" font-size="10.00">CLI::FailureMessage</text>
<text text-anchor="middle" x="56.5" y="-40" font-family="Helvetica,sans-Serif" font-size="10.00">::simple</text>
</a>
</g>
</g>
<!-- Node2 -->
<g id="node2" class="node">
<title>Node2</title>
<g id="a_node2"><a xlink:href="classCLI_1_1App.html#a389fe480583b713747db067b3ce1d5a5" target="_top" xlink:title="Get a pointer to the help all flag. (const)">
<polygon fill="none" stroke="black" points="159.5,-96 159.5,-126 263.5,-126 263.5,-96 159.5,-96"/>
<text text-anchor="start" x="167.5" y="-114" font-family="Helvetica,sans-Serif" font-size="10.00">CLI::App::get_help</text>
<text text-anchor="middle" x="211.5" y="-103" font-family="Helvetica,sans-Serif" font-size="10.00">_all_ptr</text>
</a>
</g>
</g>
<!-- Node1&#45;&gt;Node2 -->
<g id="edge1" class="edge">
<title>Node1&#45;&gt;Node2</title>
<path fill="none" stroke="midnightblue" d="M93.54,-63.04C110.38,-70.05 130.7,-78.48 149,-86 153.81,-87.98 158.83,-90.03 163.84,-92.08"/>
<polygon fill="midnightblue" stroke="midnightblue" points="162.83,-95.44 173.41,-95.97 165.47,-88.96 162.83,-95.44"/>
</g>
<!-- Node3 -->
<g id="node3" class="node">
<title>Node3</title>
<g id="a_node3"><a xlink:href="classCLI_1_1App.html#a4720d5ded12ab00d3aa76bd195ad92be" target="_top" xlink:title="Get a pointer to the help flag.">
<polygon fill="none" stroke="black" points="150,-57.5 150,-76.5 273,-76.5 273,-57.5 150,-57.5"/>
<text text-anchor="middle" x="211.5" y="-64.5" font-family="Helvetica,sans-Serif" font-size="10.00">CLI::App::get_help_ptr</text>
</a>
</g>
</g>
<!-- Node1&#45;&gt;Node3 -->
<g id="edge2" class="edge">
<title>Node1&#45;&gt;Node3</title>
<path fill="none" stroke="midnightblue" d="M113.17,-54.91C121.86,-55.99 130.94,-57.12 139.91,-58.23"/>
<polygon fill="midnightblue" stroke="midnightblue" points="139.61,-61.72 149.97,-59.48 140.47,-54.78 139.61,-61.72"/>
</g>
<!-- Node4 -->
<g id="node4" class="node">
<title>Node4</title>
<g id="a_node4"><a xlink:href="classCLI_1_1Option.html#ab84751fbf9037efaed5b64fed17fe57f" target="_top" xlink:title="Gets a comma separated list of names. Will include / prefer the positional name if positional is true...">
<polygon fill="none" stroke="black" points="149,-19.5 149,-38.5 274,-38.5 274,-19.5 149,-19.5"/>
<text text-anchor="middle" x="211.5" y="-26.5" font-family="Helvetica,sans-Serif" font-size="10.00">CLI::Option::get_name</text>
</a>
</g>
</g>
<!-- Node1&#45;&gt;Node4 -->
<g id="edge3" class="edge">
<title>Node1&#45;&gt;Node4</title>
<path fill="none" stroke="midnightblue" d="M113.17,-41.09C121.52,-40.05 130.23,-38.97 138.86,-37.9"/>
<polygon fill="midnightblue" stroke="midnightblue" points="139.43,-41.35 148.92,-36.65 138.57,-34.41 139.43,-41.35"/>
</g>
<!-- Node5 -->
<g id="node5" class="node">
<title>Node5</title>
<g id="a_node5"><a xlink:href="namespaceCLI_1_1detail.html#ab351f13ec104e2cba19ec6baf4a552f6" target="_top" xlink:title="Simple function to join a string.">
<polygon fill="none" stroke="black" points="310,-0.5 310,-19.5 399,-19.5 399,-0.5 310,-0.5"/>
<text text-anchor="middle" x="354.5" y="-7.5" font-family="Helvetica,sans-Serif" font-size="10.00">CLI::detail::join</text>
</a>
</g>
</g>
<!-- Node1&#45;&gt;Node5 -->
<g id="edge5" class="edge">
<title>Node1&#45;&gt;Node5</title>
<path fill="none" stroke="midnightblue" d="M85.84,-32.82C103.46,-24.25 126.9,-14.41 149,-10 199.39,0.05 258.17,-1.27 299.75,-4.31"/>
<polygon fill="midnightblue" stroke="midnightblue" points="299.69,-7.81 309.93,-5.11 300.24,-0.83 299.69,-7.81"/>
</g>
<!-- Node4&#45;&gt;Node5 -->
<g id="edge4" class="edge">
<title>Node4&#45;&gt;Node5</title>
<path fill="none" stroke="midnightblue" d="M274.34,-20.67C282.87,-19.52 291.56,-18.35 299.92,-17.22"/>
<polygon fill="midnightblue" stroke="midnightblue" points="300.47,-20.68 309.91,-15.87 299.53,-13.74 300.47,-20.68"/>
</g>
</g>
</svg>
