<?xml version="1.0" encoding="UTF-8" standalone="no"?>
<!DOCTYPE svg PUBLIC "-//W3C//DTD SVG 1.1//EN"
 "http://www.w3.org/Graphics/SVG/1.1/DTD/svg11.dtd">
<!-- Generated by graphviz version 9.0.0 (0)
 -->
<!-- Title: ghc::filesystem::status_known Pages: 1 -->
<svg width="665pt" height="399pt"
 viewBox="0.00 0.00 665.25 399.40" xmlns="http://www.w3.org/2000/svg" xmlns:xlink="http://www.w3.org/1999/xlink">
<g id="graph0" class="graph" transform="scale(1 1) rotate(0) translate(4 395.4)">
<title>ghc::filesystem::status_known</title>
<!-- Node1 -->
<g id="Node000001" class="node">
<title>Node1</title>
<g id="a_Node000001"><a xlink:title=" ">
<polygon fill="#999999" stroke="#666666" points="657.25,-346.4 531,-346.4 531,-312.9 657.25,-312.9 657.25,-346.4"/>
<text text-anchor="start" x="539" y="-332.9" font-family="Helvetica,sans-Serif" font-size="10.00">ghc::filesystem::status</text>
<text text-anchor="middle" x="594.12" y="-320.15" font-family="Helvetica,sans-Serif" font-size="10.00">_known</text>
</a>
</g>
</g>
<!-- Node2 -->
<g id="Node000002" class="node">
<title>Node2</title>
<g id="a_Node000002"><a xlink:href="namespaceghc_1_1filesystem.html#a19bc98b3966f5697b0f599d2712ecfda" target="_top" xlink:title=" ">
<polygon fill="white" stroke="#666666" points="321.5,-391.4 194.5,-391.4 194.5,-357.9 321.5,-357.9 321.5,-391.4"/>
<text text-anchor="start" x="202.5" y="-377.9" font-family="Helvetica,sans-Serif" font-size="10.00">ghc::filesystem::create</text>
<text text-anchor="middle" x="258" y="-365.15" font-family="Helvetica,sans-Serif" font-size="10.00">_directory</text>
</a>
</g>
</g>
<!-- Node1&#45;&gt;Node2 -->
<g id="edge1_Node000001_Node000002" class="edge">
<title>Node1&#45;&gt;Node2</title>
<g id="a_edge1_Node000001_Node000002"><a xlink:title=" ">
<path fill="none" stroke="#63b8ff" d="M519.41,-340.26C511.18,-341.42 502.91,-342.57 495,-343.65 436.25,-351.7 369.21,-360.47 321.63,-366.62"/>
<polygon fill="#63b8ff" stroke="#63b8ff" points="519.68,-343.76 529.09,-338.9 518.7,-336.83 519.68,-343.76"/>
</a>
</g>
</g>
<!-- Node3 -->
<g id="Node000003" class="node">
<title>Node3</title>
<g id="a_Node000003"><a xlink:href="namespaceghc_1_1filesystem.html#a2d1ed5090c34c9343bb6aca0d7dadc70" target="_top" xlink:title=" ">
<polygon fill="white" stroke="#666666" points="320.75,-340.03 195.25,-340.03 195.25,-319.28 320.75,-319.28 320.75,-340.03"/>
<text text-anchor="middle" x="258" y="-326.53" font-family="Helvetica,sans-Serif" font-size="10.00">ghc::filesystem::exists</text>
</a>
</g>
</g>
<!-- Node1&#45;&gt;Node3 -->
<g id="edge2_Node000001_Node000003" class="edge">
<title>Node1&#45;&gt;Node3</title>
<g id="a_edge2_Node000001_Node000003"><a xlink:title=" ">
<path fill="none" stroke="#63b8ff" d="M519.48,-329.65C460.02,-329.65 377.3,-329.65 321.15,-329.65"/>
<polygon fill="#63b8ff" stroke="#63b8ff" points="519.16,-333.15 529.16,-329.65 519.16,-326.15 519.16,-333.15"/>
</a>
</g>
</g>
<!-- Node4 -->
<g id="Node000004" class="node">
<title>Node4</title>
<g id="a_Node000004"><a xlink:href="namespaceghc_1_1filesystem.html#a4e2495a21917ad1123a992e55a0b3e32" target="_top" xlink:title=" ">
<polygon fill="white" stroke="#666666" points="495,-222.03 369.5,-222.03 369.5,-201.28 495,-201.28 495,-222.03"/>
<text text-anchor="middle" x="432.25" y="-208.53" font-family="Helvetica,sans-Serif" font-size="10.00">ghc::filesystem::exists</text>
</a>
</g>
</g>
<!-- Node1&#45;&gt;Node4 -->
<g id="edge3_Node000001_Node000004" class="edge">
<title>Node1&#45;&gt;Node4</title>
<g id="a_edge3_Node000001_Node000004"><a xlink:title=" ">
<path fill="none" stroke="#63b8ff" d="M560.69,-305.72C526.26,-280.3 473.38,-241.27 447.93,-222.49"/>
<polygon fill="#63b8ff" stroke="#63b8ff" points="558.54,-308.48 568.66,-311.6 562.69,-302.84 558.54,-308.48"/>
</a>
</g>
</g>
<!-- Node4&#45;&gt;Node2 -->
<g id="edge8_Node000004_Node000002" class="edge">
<title>Node4&#45;&gt;Node2</title>
<g id="a_edge8_Node000004_Node000002"><a xlink:title=" ">
<path fill="none" stroke="#63b8ff" d="M421.65,-232.36C406.81,-262.19 375.58,-317.1 333.5,-348.65 329.01,-352.02 324.04,-354.98 318.87,-357.57"/>
<polygon fill="#63b8ff" stroke="#63b8ff" points="424.67,-234.15 425.86,-223.63 418.36,-231.11 424.67,-234.15"/>
</a>
</g>
</g>
<!-- Node4&#45;&gt;Node3 -->
<g id="edge9_Node000004_Node000003" class="edge">
<title>Node4&#45;&gt;Node3</title>
<g id="a_edge9_Node000004_Node000003"><a xlink:title=" ">
<path fill="none" stroke="#63b8ff" d="M417.05,-231.5C399.84,-254.09 368.73,-290.45 333.5,-310.65 327.83,-313.91 321.6,-316.61 315.23,-318.86"/>
<polygon fill="#63b8ff" stroke="#63b8ff" points="419.7,-233.81 422.85,-223.69 414.08,-229.64 419.7,-233.81"/>
</a>
</g>
</g>
<!-- Node5 -->
<g id="Node000005" class="node">
<title>Node5</title>
<g id="a_Node000005"><a xlink:href="namespaceghc_1_1filesystem.html#a7b3c694c41ff9bc3881305d910fbdfe2" target="_top" xlink:title=" ">
<polygon fill="white" stroke="#666666" points="133,-58.03 13.5,-58.03 13.5,-37.28 133,-37.28 133,-58.03"/>
<text text-anchor="middle" x="73.25" y="-44.53" font-family="Helvetica,sans-Serif" font-size="10.00">ghc::filesystem::copy</text>
</a>
</g>
</g>
<!-- Node4&#45;&gt;Node5 -->
<g id="edge4_Node000004_Node000005" class="edge">
<title>Node4&#45;&gt;Node5</title>
<g id="a_edge4_Node000004_Node000005"><a xlink:title=" ">
<path fill="none" stroke="#63b8ff" d="M427.51,-189.59C419.15,-148.03 394.63,-58.95 333.5,-21.65 257.24,24.87 144.34,-15.86 96.73,-36.91"/>
<polygon fill="#63b8ff" stroke="#63b8ff" points="424.06,-190.18 429.33,-199.37 430.94,-188.9 424.06,-190.18"/>
</a>
</g>
</g>
<!-- Node6 -->
<g id="Node000006" class="node">
<title>Node6</title>
<g id="a_Node000006"><a xlink:href="namespaceghc_1_1filesystem.html#a099a0149ef7c7a5e22977a35e39ac072" target="_top" xlink:title=" ">
<polygon fill="white" stroke="#666666" points="327.88,-250.03 188.12,-250.03 188.12,-229.28 327.88,-229.28 327.88,-250.03"/>
<text text-anchor="middle" x="258" y="-236.53" font-family="Helvetica,sans-Serif" font-size="10.00">ghc::filesystem::copy_file</text>
</a>
</g>
</g>
<!-- Node4&#45;&gt;Node6 -->
<g id="edge5_Node000004_Node000006" class="edge">
<title>Node4&#45;&gt;Node6</title>
<g id="a_edge5_Node000004_Node000006"><a xlink:title=" ">
<path fill="none" stroke="#63b8ff" d="M358.03,-223.56C347.31,-225.3 336.33,-227.09 325.75,-228.8"/>
<polygon fill="#63b8ff" stroke="#63b8ff" points="358.26,-227.07 367.57,-222.01 357.14,-220.16 358.26,-227.07"/>
</a>
</g>
</g>
<!-- Node7 -->
<g id="Node000007" class="node">
<title>Node7</title>
<g id="a_Node000007"><a xlink:href="namespaceghc_1_1filesystem.html#ae53bc3ef946a2f45fb2eeb5c0cdb46b1" target="_top" xlink:title=" ">
<polygon fill="white" stroke="#666666" points="317.75,-64.4 198.25,-64.4 198.25,-30.9 317.75,-30.9 317.75,-64.4"/>
<text text-anchor="start" x="206.25" y="-50.9" font-family="Helvetica,sans-Serif" font-size="10.00">ghc::filesystem::copy</text>
<text text-anchor="middle" x="258" y="-38.15" font-family="Helvetica,sans-Serif" font-size="10.00">_symlink</text>
</a>
</g>
</g>
<!-- Node4&#45;&gt;Node7 -->
<g id="edge6_Node000004_Node000007" class="edge">
<title>Node4&#45;&gt;Node7</title>
<g id="a_edge6_Node000004_Node000007"><a xlink:title=" ">
<path fill="none" stroke="#63b8ff" d="M421.69,-190.79C406.9,-160.75 375.73,-105.43 333.5,-73.65 328.79,-70.11 323.57,-67.03 318.13,-64.34"/>
<polygon fill="#63b8ff" stroke="#63b8ff" points="418.42,-192.08 425.89,-199.6 424.74,-189.07 418.42,-192.08"/>
</a>
</g>
</g>
<!-- Node8 -->
<g id="Node000008" class="node">
<title>Node8</title>
<g id="a_Node000008"><a xlink:href="namespaceghc_1_1filesystem.html#ab0aa83e5dcedde352002250325967441" target="_top" xlink:title=" ">
<polygon fill="white" stroke="#666666" points="310.25,-116.4 205.75,-116.4 205.75,-82.9 310.25,-82.9 310.25,-116.4"/>
<text text-anchor="start" x="213.75" y="-102.9" font-family="Helvetica,sans-Serif" font-size="10.00">ghc::filesystem::is</text>
<text text-anchor="middle" x="258" y="-90.15" font-family="Helvetica,sans-Serif" font-size="10.00">_other</text>
</a>
</g>
</g>
<!-- Node4&#45;&gt;Node8 -->
<g id="edge10_Node000004_Node000008" class="edge">
<title>Node4&#45;&gt;Node8</title>
<g id="a_edge10_Node000004_Node000008"><a xlink:title=" ">
<path fill="none" stroke="#63b8ff" d="M412.39,-193.09C393.61,-175.33 363.34,-148.67 333.5,-130.65 324.98,-125.51 315.46,-120.84 306.15,-116.77"/>
<polygon fill="#63b8ff" stroke="#63b8ff" points="409.91,-195.56 419.55,-199.96 414.76,-190.51 409.91,-195.56"/>
</a>
</g>
</g>
<!-- Node10 -->
<g id="Node000010" class="node">
<title>Node10</title>
<g id="a_Node000010"><a xlink:href="classghc_1_1filesystem_1_1directory__entry.html#aa9cb09a4d0c29cdaaee1fc41cabdc118" target="_top" xlink:title=" ">
<polygon fill="white" stroke="#666666" points="143.12,-161.4 3.38,-161.4 3.38,-127.9 143.12,-127.9 143.12,-161.4"/>
<text text-anchor="start" x="11.38" y="-147.9" font-family="Helvetica,sans-Serif" font-size="10.00">ghc::filesystem::directory</text>
<text text-anchor="middle" x="73.25" y="-135.15" font-family="Helvetica,sans-Serif" font-size="10.00">_entry::operator=</text>
</a>
</g>
</g>
<!-- Node4&#45;&gt;Node10 -->
<g id="edge14_Node000004_Node000010" class="edge">
<title>Node4&#45;&gt;Node10</title>
<g id="a_edge14_Node000004_Node000010"><a xlink:title=" ">
<path fill="none" stroke="#63b8ff" d="M404.64,-195.1C385.59,-184.14 358.9,-170.54 333.5,-163.65 270.67,-146.62 196.33,-142.75 143.41,-142.62"/>
<polygon fill="#63b8ff" stroke="#63b8ff" points="402.7,-198.02 413.09,-200.1 406.26,-191.99 402.7,-198.02"/>
</a>
</g>
</g>
<!-- Node11 -->
<g id="Node000011" class="node">
<title>Node11</title>
<g id="a_Node000011"><a xlink:href="namespaceghc_1_1filesystem.html#a1b6f115fbbafa333441fc326a9dcb4a5" target="_top" xlink:title=" ">
<polygon fill="white" stroke="#666666" points="333.5,-193.03 182.5,-193.03 182.5,-172.28 333.5,-172.28 333.5,-193.03"/>
<text text-anchor="middle" x="258" y="-179.53" font-family="Helvetica,sans-Serif" font-size="10.00">ghc::filesystem::remove_all</text>
</a>
</g>
</g>
<!-- Node4&#45;&gt;Node11 -->
<g id="edge15_Node000004_Node000011" class="edge">
<title>Node4&#45;&gt;Node11</title>
<g id="a_edge15_Node000004_Node000011"><a xlink:title=" ">
<path fill="none" stroke="#63b8ff" d="M357.77,-199.28C346.35,-197.36 334.62,-195.39 323.42,-193.5"/>
<polygon fill="#63b8ff" stroke="#63b8ff" points="357.13,-202.73 367.57,-200.93 358.29,-195.82 357.13,-202.73"/>
</a>
</g>
</g>
<!-- Node12 -->
<g id="Node000012" class="node">
<title>Node12</title>
<g id="a_Node000012"><a xlink:href="namespaceghc_1_1filesystem.html#aae07b99c0f8d33847eb48b985e43ca3b" target="_top" xlink:title=" ">
<polygon fill="white" stroke="#666666" points="323.75,-301.4 192.25,-301.4 192.25,-267.9 323.75,-267.9 323.75,-301.4"/>
<text text-anchor="start" x="200.25" y="-287.9" font-family="Helvetica,sans-Serif" font-size="10.00">ghc::filesystem::weakly</text>
<text text-anchor="middle" x="258" y="-275.15" font-family="Helvetica,sans-Serif" font-size="10.00">_canonical</text>
</a>
</g>
</g>
<!-- Node4&#45;&gt;Node12 -->
<g id="edge17_Node000004_Node000012" class="edge">
<title>Node4&#45;&gt;Node12</title>
<g id="a_edge17_Node000004_Node000012"><a xlink:title=" ">
<path fill="none" stroke="#63b8ff" d="M400.41,-227.59C381.36,-237.14 356.3,-249.23 333.5,-258.65 326.16,-261.69 318.32,-264.68 310.58,-267.5"/>
<polygon fill="#63b8ff" stroke="#63b8ff" points="401.89,-230.75 409.23,-223.11 398.73,-224.51 401.89,-230.75"/>
</a>
</g>
</g>
<!-- Node7&#45;&gt;Node5 -->
<g id="edge7_Node000007_Node000005" class="edge">
<title>Node7&#45;&gt;Node5</title>
<g id="a_edge7_Node000007_Node000005"><a xlink:title=" ">
<path fill="none" stroke="#63b8ff" d="M186.57,-47.65C169.02,-47.65 150.39,-47.65 133.44,-47.65"/>
<polygon fill="#63b8ff" stroke="#63b8ff" points="186.41,-51.15 196.41,-47.65 186.41,-44.15 186.41,-51.15"/>
</a>
</g>
</g>
<!-- Node8&#45;&gt;Node5 -->
<g id="edge11_Node000008_Node000005" class="edge">
<title>Node8&#45;&gt;Node5</title>
<g id="a_edge11_Node000008_Node000005"><a xlink:title=" ">
<path fill="none" stroke="#63b8ff" d="M194.72,-80.66C179.01,-75.98 162.16,-71.05 146.5,-66.65 136.76,-63.92 126.25,-61.09 116.34,-58.47"/>
<polygon fill="#63b8ff" stroke="#63b8ff" points="193.35,-83.91 203.93,-83.42 195.36,-77.2 193.35,-83.91"/>
</a>
</g>
</g>
<!-- Node9 -->
<g id="Node000009" class="node">
<title>Node9</title>
<g id="a_Node000009"><a xlink:href="namespaceghc_1_1filesystem.html#a773b14c6f3e10353b05669f9537949ae" target="_top" xlink:title=" ">
<polygon fill="white" stroke="#666666" points="125.5,-109.4 21,-109.4 21,-75.9 125.5,-75.9 125.5,-109.4"/>
<text text-anchor="start" x="29" y="-95.9" font-family="Helvetica,sans-Serif" font-size="10.00">ghc::filesystem::is</text>
<text text-anchor="middle" x="73.25" y="-83.15" font-family="Helvetica,sans-Serif" font-size="10.00">_other</text>
</a>
</g>
</g>
<!-- Node8&#45;&gt;Node9 -->
<g id="edge12_Node000008_Node000009" class="edge">
<title>Node8&#45;&gt;Node9</title>
<g id="a_edge12_Node000008_Node000009"><a xlink:title=" ">
<path fill="none" stroke="#63b8ff" d="M194.22,-97.25C171.94,-96.4 147.13,-95.45 125.89,-94.63"/>
<polygon fill="#63b8ff" stroke="#63b8ff" points="193.97,-100.74 204.1,-97.63 194.24,-93.75 193.97,-100.74"/>
</a>
</g>
</g>
<!-- Node8&#45;&gt;Node10 -->
<g id="edge13_Node000008_Node000010" class="edge">
<title>Node8&#45;&gt;Node10</title>
<g id="a_edge13_Node000008_Node000010"><a xlink:title=" ">
<path fill="none" stroke="#63b8ff" d="M194.46,-115.06C177.99,-119.11 160.12,-123.51 143.33,-127.65"/>
<polygon fill="#63b8ff" stroke="#63b8ff" points="195.26,-118.46 204.14,-112.67 193.59,-111.66 195.26,-118.46"/>
</a>
</g>
</g>
<!-- Node11&#45;&gt;Node11 -->
<g id="edge16_Node000011_Node000011" class="edge">
<title>Node11&#45;&gt;Node11</title>
<g id="a_edge16_Node000011_Node000011"><a xlink:title=" ">
<path fill="none" stroke="#63b8ff" d="M288.66,-204.52C284.6,-208.36 274.38,-211.03 258,-211.03 228.05,-211.03 218.69,-202.09 229.92,-193.43"/>
<polygon fill="#63b8ff" stroke="#63b8ff" points="292.1,-203.85 286.42,-194.9 285.28,-205.43 292.1,-203.85"/>
</a>
</g>
</g>
<!-- Node13 -->
<g id="Node000013" class="node">
<title>Node13</title>
<g id="a_Node000013"><a xlink:href="namespaceghc_1_1filesystem.html#a6e2b11202cc9b071bbdb16d87c197719" target="_top" xlink:title=" ">
<polygon fill="white" stroke="#666666" points="146.5,-314.03 0,-314.03 0,-293.28 146.5,-293.28 146.5,-314.03"/>
<text text-anchor="middle" x="73.25" y="-300.53" font-family="Helvetica,sans-Serif" font-size="10.00">ghc::filesystem::proximate</text>
</a>
</g>
</g>
<!-- Node12&#45;&gt;Node13 -->
<g id="edge18_Node000012_Node000013" class="edge">
<title>Node12&#45;&gt;Node13</title>
<g id="a_edge18_Node000012_Node000013"><a xlink:title=" ">
<path fill="none" stroke="#63b8ff" d="M180.37,-292.62C169.28,-293.77 157.89,-294.96 146.88,-296.1"/>
<polygon fill="#63b8ff" stroke="#63b8ff" points="180.71,-296.11 190.29,-291.59 179.98,-289.14 180.71,-296.11"/>
</a>
</g>
</g>
<!-- Node14 -->
<g id="Node000014" class="node">
<title>Node14</title>
<g id="a_Node000014"><a xlink:href="namespaceghc_1_1filesystem.html#ab1f9e9d8c3bd79b032e0a45307c85df4" target="_top" xlink:title=" ">
<polygon fill="white" stroke="#666666" points="140.12,-275.03 6.38,-275.03 6.38,-254.28 140.12,-254.28 140.12,-275.03"/>
<text text-anchor="middle" x="73.25" y="-261.53" font-family="Helvetica,sans-Serif" font-size="10.00">ghc::filesystem::relative</text>
</a>
</g>
</g>
<!-- Node12&#45;&gt;Node14 -->
<g id="edge19_Node000012_Node000014" class="edge">
<title>Node12&#45;&gt;Node14</title>
<g id="a_edge19_Node000012_Node000014"><a xlink:title=" ">
<path fill="none" stroke="#63b8ff" d="M180.68,-276.3C167.28,-274.84 153.44,-273.32 140.35,-271.89"/>
<polygon fill="#63b8ff" stroke="#63b8ff" points="179.97,-279.75 190.29,-277.35 180.73,-272.79 179.97,-279.75"/>
</a>
</g>
</g>
</g>
</svg>
