<?xml version="1.0" encoding="UTF-8" standalone="no"?>
<!DOCTYPE svg PUBLIC "-//W3C//DTD SVG 1.1//EN"
 "http://www.w3.org/Graphics/SVG/1.1/DTD/svg11.dtd">
<!-- Generated by graphviz version 9.0.0 (0)
 -->
<!-- Title: ghc::filesystem::relative Pages: 1 -->
<svg width="496pt" height="94pt"
 viewBox="0.00 0.00 495.50 93.50" xmlns="http://www.w3.org/2000/svg" xmlns:xlink="http://www.w3.org/1999/xlink">
<g id="graph0" class="graph" transform="scale(1 1) rotate(0) translate(4 89.5)">
<title>ghc::filesystem::relative</title>
<!-- Node1 -->
<g id="Node000001" class="node">
<title>Node1</title>
<g id="a_Node000001"><a xlink:title=" ">
<polygon fill="#999999" stroke="#666666" points="133.75,-53.12 0,-53.12 0,-32.38 133.75,-32.38 133.75,-53.12"/>
<text text-anchor="middle" x="66.88" y="-39.62" font-family="Helvetica,sans-Serif" font-size="10.00">ghc::filesystem::relative</text>
</a>
</g>
</g>
<!-- Node1&#45;&gt;Node1 -->
<g id="edge4_Node000001_Node000001" class="edge">
<title>Node1&#45;&gt;Node1</title>
<g id="a_edge4_Node000001_Node000001"><a xlink:title=" ">
<path fill="none" stroke="#63b8ff" d="M37.59,-53.52C25.87,-62.18 35.64,-71.12 66.88,-71.12 83.96,-71.12 94.62,-68.45 98.86,-64.61"/>
<polygon fill="#63b8ff" stroke="#63b8ff" points="102.28,-63.88 96.52,-54.99 95.48,-65.54 102.28,-63.88"/>
</a>
</g>
</g>
<!-- Node2 -->
<g id="Node000002" class="node">
<title>Node2</title>
<g id="a_Node000002"><a xlink:href="namespaceghc_1_1filesystem.html#ad46916bacd79119d20d9a46c93126642" target="_top" xlink:title=" ">
<polygon fill="white" stroke="#666666" points="327.5,-53.12 169.75,-53.12 169.75,-32.38 327.5,-32.38 327.5,-53.12"/>
<text text-anchor="middle" x="248.62" y="-39.62" font-family="Helvetica,sans-Serif" font-size="10.00">ghc::filesystem::current_path</text>
</a>
</g>
</g>
<!-- Node1&#45;&gt;Node2 -->
<g id="edge1_Node000001_Node000002" class="edge">
<title>Node1&#45;&gt;Node2</title>
<g id="a_edge1_Node000001_Node000002"><a xlink:title=" ">
<path fill="none" stroke="#63b8ff" d="M134.04,-42.75C141.87,-42.75 149.95,-42.75 158.03,-42.75"/>
<polygon fill="#63b8ff" stroke="#63b8ff" points="157.91,-46.25 167.91,-42.75 157.91,-39.25 157.91,-46.25"/>
</a>
</g>
</g>
<!-- Node3 -->
<g id="Node000003" class="node">
<title>Node3</title>
<g id="a_Node000003"><a xlink:href="classghc_1_1filesystem_1_1path.html#a08d9cc6bfa72c5a9ff2acde0b1e89465" target="_top" xlink:title=" ">
<polygon fill="white" stroke="#666666" points="484.5,-85.5 366.5,-85.5 366.5,-52 484.5,-52 484.5,-85.5"/>
<text text-anchor="start" x="374.5" y="-72" font-family="Helvetica,sans-Serif" font-size="10.00">ghc::filesystem::path</text>
<text text-anchor="middle" x="425.5" y="-59.25" font-family="Helvetica,sans-Serif" font-size="10.00">::clear</text>
</a>
</g>
</g>
<!-- Node2&#45;&gt;Node3 -->
<g id="edge2_Node000002_Node000003" class="edge">
<title>Node2&#45;&gt;Node3</title>
<g id="a_edge2_Node000002_Node000003"><a xlink:title=" ">
<path fill="none" stroke="#63b8ff" d="M322.52,-53.59C333.19,-55.17 344.15,-56.8 354.76,-58.38"/>
<polygon fill="#63b8ff" stroke="#63b8ff" points="354.19,-61.83 364.59,-59.84 355.21,-54.91 354.19,-61.83"/>
</a>
</g>
</g>
<!-- Node4 -->
<g id="Node000004" class="node">
<title>Node4</title>
<g id="a_Node000004"><a xlink:href="namespaceghc_1_1filesystem_1_1detail.html#ada571d5c1f47892dc26420eb4a8adaee" target="_top" xlink:title=" ">
<polygon fill="white" stroke="#666666" points="487.5,-33.5 363.5,-33.5 363.5,0 487.5,0 487.5,-33.5"/>
<text text-anchor="start" x="371.5" y="-20" font-family="Helvetica,sans-Serif" font-size="10.00">ghc::filesystem::detail</text>
<text text-anchor="middle" x="425.5" y="-7.25" font-family="Helvetica,sans-Serif" font-size="10.00">::make_system_error</text>
</a>
</g>
</g>
<!-- Node2&#45;&gt;Node4 -->
<g id="edge3_Node000002_Node000004" class="edge">
<title>Node2&#45;&gt;Node4</title>
<g id="a_edge3_Node000002_Node000004"><a xlink:title=" ">
<path fill="none" stroke="#63b8ff" d="M322.52,-31.91C332.22,-30.47 342.17,-28.99 351.86,-27.55"/>
<polygon fill="#63b8ff" stroke="#63b8ff" points="352.23,-31.03 361.6,-26.1 351.2,-24.11 352.23,-31.03"/>
</a>
</g>
</g>
</g>
</svg>
