<?xml version="1.0" encoding="UTF-8" standalone="no"?>
<!DOCTYPE svg PUBLIC "-//W3C//DTD SVG 1.1//EN"
 "http://www.w3.org/Graphics/SVG/1.1/DTD/svg11.dtd">
<!-- Generated by graphviz version 9.0.0 (0)
 -->
<!-- Title: ghc::filesystem::is_fifo Pages: 1 -->
<svg width="978pt" height="392pt"
 viewBox="0.00 0.00 977.75 391.50" xmlns="http://www.w3.org/2000/svg" xmlns:xlink="http://www.w3.org/1999/xlink">
<g id="graph0" class="graph" transform="scale(1 1) rotate(0) translate(4 387.5)">
<title>ghc::filesystem::is_fifo</title>
<!-- Node1 -->
<g id="Node000001" class="node">
<title>Node1</title>
<g id="a_Node000001"><a xlink:title=" ">
<polygon fill="#999999" stroke="#666666" points="125.5,-191.12 0,-191.12 0,-170.38 125.5,-170.38 125.5,-191.12"/>
<text text-anchor="middle" x="62.75" y="-177.62" font-family="Helvetica,sans-Serif" font-size="10.00">ghc::filesystem::is_fifo</text>
</a>
</g>
</g>
<!-- Node2 -->
<g id="Node000002" class="node">
<title>Node2</title>
<g id="a_Node000002"><a xlink:href="namespaceghc_1_1filesystem.html#a5d49cffbc4ef5bc130146228c74eb979" target="_top" xlink:title=" ">
<polygon fill="white" stroke="#666666" points="287.38,-211.12 161.88,-211.12 161.88,-190.38 287.38,-190.38 287.38,-211.12"/>
<text text-anchor="middle" x="224.62" y="-197.62" font-family="Helvetica,sans-Serif" font-size="10.00">ghc::filesystem::is_fifo</text>
</a>
</g>
</g>
<!-- Node1&#45;&gt;Node2 -->
<g id="edge1_Node000001_Node000002" class="edge">
<title>Node1&#45;&gt;Node2</title>
<g id="a_edge1_Node000001_Node000002"><a xlink:title=" ">
<path fill="none" stroke="#63b8ff" d="M125.56,-188.48C133.66,-189.5 142.01,-190.54 150.28,-191.57"/>
<polygon fill="#63b8ff" stroke="#63b8ff" points="149.59,-195.02 159.95,-192.78 150.46,-188.07 149.59,-195.02"/>
</a>
</g>
</g>
<!-- Node3 -->
<g id="Node000003" class="node">
<title>Node3</title>
<g id="a_Node000003"><a xlink:href="namespaceghc_1_1filesystem.html#a07a1093e04d9ba754019595cb25dc975" target="_top" xlink:title=" ">
<polygon fill="white" stroke="#666666" points="287.75,-172.12 161.5,-172.12 161.5,-151.38 287.75,-151.38 287.75,-172.12"/>
<text text-anchor="middle" x="224.62" y="-158.62" font-family="Helvetica,sans-Serif" font-size="10.00">ghc::filesystem::status</text>
</a>
</g>
</g>
<!-- Node1&#45;&gt;Node3 -->
<g id="edge2_Node000001_Node000003" class="edge">
<title>Node1&#45;&gt;Node3</title>
<g id="a_edge2_Node000001_Node000003"><a xlink:title=" ">
<path fill="none" stroke="#63b8ff" d="M125.56,-173.4C133.51,-172.46 141.7,-171.49 149.81,-170.52"/>
<polygon fill="#63b8ff" stroke="#63b8ff" points="150.17,-174 159.68,-169.35 149.34,-167.05 150.17,-174"/>
</a>
</g>
</g>
<!-- Node4 -->
<g id="Node000004" class="node">
<title>Node4</title>
<g id="a_Node000004"><a xlink:href="namespaceghc_1_1filesystem_1_1detail.html#a94bff40b1f870262e0993c747311451c" target="_top" xlink:title=" ">
<polygon fill="white" stroke="#666666" points="447.75,-178.5 323.75,-178.5 323.75,-145 447.75,-145 447.75,-178.5"/>
<text text-anchor="start" x="331.75" y="-165" font-family="Helvetica,sans-Serif" font-size="10.00">ghc::filesystem::detail</text>
<text text-anchor="middle" x="385.75" y="-152.25" font-family="Helvetica,sans-Serif" font-size="10.00">::status_ex</text>
</a>
</g>
</g>
<!-- Node3&#45;&gt;Node4 -->
<g id="edge3_Node000003_Node000004" class="edge">
<title>Node3&#45;&gt;Node4</title>
<g id="a_edge3_Node000003_Node000004"><a xlink:title=" ">
<path fill="none" stroke="#63b8ff" d="M288.06,-161.75C295.84,-161.75 303.85,-161.75 311.77,-161.75"/>
<polygon fill="#63b8ff" stroke="#63b8ff" points="311.77,-165.25 321.77,-161.75 311.77,-158.25 311.77,-165.25"/>
</a>
</g>
</g>
<!-- Node4&#45;&gt;Node4 -->
<g id="edge20_Node000004_Node000004" class="edge">
<title>Node4&#45;&gt;Node4</title>
<g id="a_edge20_Node000004_Node000004"><a xlink:title=" ">
<path fill="none" stroke="#63b8ff" d="M356.79,-178.91C351.86,-188.12 361.52,-196.5 385.75,-196.5 399.38,-196.5 408.4,-193.85 412.8,-189.89"/>
<polygon fill="#63b8ff" stroke="#63b8ff" points="416.19,-190.86 414.45,-180.41 409.29,-189.66 416.19,-190.86"/>
</a>
</g>
</g>
<!-- Node5 -->
<g id="Node000005" class="node">
<title>Node5</title>
<g id="a_Node000005"><a xlink:href="classghc_1_1filesystem_1_1path.html#a43eccd3bf97a5b8d83ce16d4426fd00e" target="_top" xlink:title=" ">
<polygon fill="white" stroke="#666666" points="788.75,-383.5 670.75,-383.5 670.75,-350 788.75,-350 788.75,-383.5"/>
<text text-anchor="start" x="678.75" y="-370" font-family="Helvetica,sans-Serif" font-size="10.00">ghc::filesystem::path</text>
<text text-anchor="middle" x="729.75" y="-357.25" font-family="Helvetica,sans-Serif" font-size="10.00">::c_str</text>
</a>
</g>
</g>
<!-- Node4&#45;&gt;Node5 -->
<g id="edge4_Node000004_Node000005" class="edge">
<title>Node4&#45;&gt;Node5</title>
<g id="a_edge4_Node000004_Node000005"><a xlink:title=" ">
<path fill="none" stroke="#63b8ff" d="M395.64,-178.95C410.39,-205.81 442.42,-257.66 483.75,-286.75 536.42,-323.82 607.31,-344.49 659.29,-355.49"/>
<polygon fill="#63b8ff" stroke="#63b8ff" points="658.43,-358.89 668.93,-357.46 659.83,-352.03 658.43,-358.89"/>
</a>
</g>
</g>
<!-- Node7 -->
<g id="Node000007" class="node">
<title>Node7</title>
<g id="a_Node000007"><a xlink:href="classghc_1_1filesystem_1_1path.html#a66ead77fddc75c0e9ebfbf3f1fe555aa" target="_top" xlink:title=" ">
<polygon fill="white" stroke="#666666" points="957.75,-130.5 839.75,-130.5 839.75,-97 957.75,-97 957.75,-130.5"/>
<text text-anchor="start" x="847.75" y="-117" font-family="Helvetica,sans-Serif" font-size="10.00">ghc::filesystem::path</text>
<text text-anchor="middle" x="898.75" y="-104.25" font-family="Helvetica,sans-Serif" font-size="10.00">::empty</text>
</a>
</g>
</g>
<!-- Node4&#45;&gt;Node7 -->
<g id="edge6_Node000004_Node000007" class="edge">
<title>Node4&#45;&gt;Node7</title>
<g id="a_edge6_Node000004_Node000007"><a xlink:title=" ">
<path fill="none" stroke="#63b8ff" d="M448.11,-155.05C505.01,-148.93 592.06,-139.78 667.75,-132.75 721.63,-127.74 782.67,-122.73 828.33,-119.11"/>
<polygon fill="#63b8ff" stroke="#63b8ff" points="828.38,-122.62 838.08,-118.34 827.83,-115.64 828.38,-122.62"/>
</a>
</g>
</g>
<!-- Node8 -->
<g id="Node000008" class="node">
<title>Node8</title>
<g id="a_Node000008"><a xlink:href="namespaceghc_1_1filesystem_1_1detail.html#aaea3652d22642d81afbfaed47ea425b3" target="_top" xlink:title=" ">
<polygon fill="white" stroke="#666666" points="631.75,-85.5 483.75,-85.5 483.75,-52 631.75,-52 631.75,-85.5"/>
<text text-anchor="start" x="491.75" y="-72" font-family="Helvetica,sans-Serif" font-size="10.00">ghc::filesystem::detail</text>
<text text-anchor="middle" x="557.75" y="-59.25" font-family="Helvetica,sans-Serif" font-size="10.00">::file_status_from_st_mode</text>
</a>
</g>
</g>
<!-- Node4&#45;&gt;Node8 -->
<g id="edge7_Node000004_Node000008" class="edge">
<title>Node4&#45;&gt;Node8</title>
<g id="a_edge7_Node000004_Node000008"><a xlink:title=" ">
<path fill="none" stroke="#63b8ff" d="M411.19,-144.51C430.4,-131.36 458.11,-113.26 483.75,-99.75 489.82,-96.55 496.3,-93.42 502.8,-90.45"/>
<polygon fill="#63b8ff" stroke="#63b8ff" points="503.86,-93.81 511.58,-86.55 501.02,-87.41 503.86,-93.81"/>
</a>
</g>
</g>
<!-- Node9 -->
<g id="Node000009" class="node">
<title>Node9</title>
<g id="a_Node000009"><a xlink:href="namespaceghc_1_1filesystem_1_1detail.html#a3b8a14e2872af12da82499a0284cc1f2" target="_top" xlink:title=" ">
<polygon fill="white" stroke="#666666" points="619.75,-33.5 495.75,-33.5 495.75,0 619.75,0 619.75,-33.5"/>
<text text-anchor="start" x="503.75" y="-20" font-family="Helvetica,sans-Serif" font-size="10.00">ghc::filesystem::detail</text>
<text text-anchor="middle" x="557.75" y="-7.25" font-family="Helvetica,sans-Serif" font-size="10.00">::is_not_found_error</text>
</a>
</g>
</g>
<!-- Node4&#45;&gt;Node9 -->
<g id="edge8_Node000004_Node000009" class="edge">
<title>Node4&#45;&gt;Node9</title>
<g id="a_edge8_Node000004_Node000009"><a xlink:title=" ">
<path fill="none" stroke="#63b8ff" d="M396.44,-144.68C411.81,-119.07 444.12,-70.72 483.75,-42.75 485.52,-41.5 487.36,-40.3 489.25,-39.16"/>
<polygon fill="#63b8ff" stroke="#63b8ff" points="490.58,-42.42 497.72,-34.59 487.26,-36.26 490.58,-42.42"/>
</a>
</g>
</g>
<!-- Node10 -->
<g id="Node000010" class="node">
<title>Node10</title>
<g id="a_Node000010"><a xlink:href="namespaceghc_1_1filesystem_1_1detail.html#ada571d5c1f47892dc26420eb4a8adaee" target="_top" xlink:title=" ">
<polygon fill="white" stroke="#666666" points="791.75,-331.5 667.75,-331.5 667.75,-298 791.75,-298 791.75,-331.5"/>
<text text-anchor="start" x="675.75" y="-318" font-family="Helvetica,sans-Serif" font-size="10.00">ghc::filesystem::detail</text>
<text text-anchor="middle" x="729.75" y="-305.25" font-family="Helvetica,sans-Serif" font-size="10.00">::make_system_error</text>
</a>
</g>
</g>
<!-- Node4&#45;&gt;Node10 -->
<g id="edge9_Node000004_Node000010" class="edge">
<title>Node4&#45;&gt;Node10</title>
<g id="a_edge9_Node000004_Node000010"><a xlink:title=" ">
<path fill="none" stroke="#63b8ff" d="M401.47,-178.87C419.12,-198.34 450.5,-229.75 483.75,-247.75 537.83,-277.02 605.69,-294.29 656.27,-303.94"/>
<polygon fill="#63b8ff" stroke="#63b8ff" points="655.48,-307.35 665.95,-305.72 656.75,-300.47 655.48,-307.35"/>
</a>
</g>
</g>
<!-- Node11 -->
<g id="Node000011" class="node">
<title>Node11</title>
<g id="a_Node000011"><a xlink:href="namespaceghc_1_1filesystem_1_1detail.html#a25d9339be66e8445b643517fecdfbbd7" target="_top" xlink:title=" ">
<polygon fill="white" stroke="#666666" points="619.75,-238.5 495.75,-238.5 495.75,-205 619.75,-205 619.75,-238.5"/>
<text text-anchor="start" x="503.75" y="-225" font-family="Helvetica,sans-Serif" font-size="10.00">ghc::filesystem::detail</text>
<text text-anchor="middle" x="557.75" y="-212.25" font-family="Helvetica,sans-Serif" font-size="10.00">::resolveSymlink</text>
</a>
</g>
</g>
<!-- Node4&#45;&gt;Node11 -->
<g id="edge10_Node000004_Node000011" class="edge">
<title>Node4&#45;&gt;Node11</title>
<g id="a_edge10_Node000004_Node000011"><a xlink:title=" ">
<path fill="none" stroke="#63b8ff" d="M435.47,-178.94C454.76,-185.75 477.13,-193.65 497.36,-200.79"/>
<polygon fill="#63b8ff" stroke="#63b8ff" points="496.01,-204.02 506.6,-204.05 498.34,-197.42 496.01,-204.02"/>
</a>
</g>
</g>
<!-- Node6 -->
<g id="Node000006" class="node">
<title>Node6</title>
<g id="a_Node000006"><a xlink:href="classghc_1_1filesystem_1_1path.html#a7f972ea2fdb1c64655aba64cef3705fb" target="_top" xlink:title=" ">
<polygon fill="white" stroke="#666666" points="957.75,-383.5 839.75,-383.5 839.75,-350 957.75,-350 957.75,-383.5"/>
<text text-anchor="start" x="847.75" y="-370" font-family="Helvetica,sans-Serif" font-size="10.00">ghc::filesystem::path</text>
<text text-anchor="middle" x="898.75" y="-357.25" font-family="Helvetica,sans-Serif" font-size="10.00">::native</text>
</a>
</g>
</g>
<!-- Node5&#45;&gt;Node6 -->
<g id="edge5_Node000005_Node000006" class="edge">
<title>Node5&#45;&gt;Node6</title>
<g id="a_edge5_Node000005_Node000006"><a xlink:title=" ">
<path fill="none" stroke="#63b8ff" d="M789.16,-366.75C801.74,-366.75 815.17,-366.75 828.13,-366.75"/>
<polygon fill="#63b8ff" stroke="#63b8ff" points="827.86,-370.25 837.86,-366.75 827.86,-363.25 827.86,-370.25"/>
</a>
</g>
</g>
<!-- Node11&#45;&gt;Node5 -->
<g id="edge11_Node000011_Node000005" class="edge">
<title>Node11&#45;&gt;Node5</title>
<g id="a_edge11_Node000011_Node000005"><a xlink:title=" ">
<path fill="none" stroke="#63b8ff" d="M570.68,-238.86C589.01,-264.09 626.36,-311.45 667.75,-340.75 669.33,-341.87 670.97,-342.96 672.65,-344.01"/>
<polygon fill="#63b8ff" stroke="#63b8ff" points="670.88,-347.03 681.31,-348.89 674.32,-340.93 670.88,-347.03"/>
</a>
</g>
</g>
<!-- Node11&#45;&gt;Node10 -->
<g id="edge13_Node000011_Node000010" class="edge">
<title>Node11&#45;&gt;Node10</title>
<g id="a_edge13_Node000011_Node000010"><a xlink:title=" ">
<path fill="none" stroke="#63b8ff" d="M584.11,-238.83C605.82,-253.08 638.15,-273.45 667.75,-288.75 670.3,-290.07 672.93,-291.38 675.61,-292.66"/>
<polygon fill="#63b8ff" stroke="#63b8ff" points="674.13,-295.83 684.67,-296.87 677.07,-289.48 674.13,-295.83"/>
</a>
</g>
</g>
<!-- Node12 -->
<g id="Node000012" class="node">
<title>Node12</title>
<g id="a_Node000012"><a xlink:href="namespaceghc_1_1filesystem_1_1detail.html#a2e1ecc6f9082f0f63d5c80fce474f043" target="_top" xlink:title=" ">
<polygon fill="white" stroke="#666666" points="791.75,-279.5 667.75,-279.5 667.75,-246 791.75,-246 791.75,-279.5"/>
<text text-anchor="start" x="675.75" y="-266" font-family="Helvetica,sans-Serif" font-size="10.00">ghc::filesystem::detail</text>
<text text-anchor="middle" x="729.75" y="-253.25" font-family="Helvetica,sans-Serif" font-size="10.00">::endsWith</text>
</a>
</g>
</g>
<!-- Node11&#45;&gt;Node12 -->
<g id="edge12_Node000011_Node000012" class="edge">
<title>Node11&#45;&gt;Node12</title>
<g id="a_edge12_Node000011_Node000012"><a xlink:title=" ">
<path fill="none" stroke="#63b8ff" d="M620.12,-236.55C631.92,-239.4 644.38,-242.4 656.48,-245.32"/>
<polygon fill="#63b8ff" stroke="#63b8ff" points="655.45,-248.67 665.99,-247.61 657.09,-241.87 655.45,-248.67"/>
</a>
</g>
</g>
<!-- Node13 -->
<g id="Node000013" class="node">
<title>Node13</title>
<g id="a_Node000013"><a xlink:href="classghc_1_1filesystem_1_1path.html#a134c8cb9d67499b1b57d2ae6974eece5" target="_top" xlink:title=" ">
<polygon fill="white" stroke="#666666" points="788.75,-227.5 670.75,-227.5 670.75,-194 788.75,-194 788.75,-227.5"/>
<text text-anchor="start" x="678.75" y="-214" font-family="Helvetica,sans-Serif" font-size="10.00">ghc::filesystem::path</text>
<text text-anchor="middle" x="729.75" y="-201.25" font-family="Helvetica,sans-Serif" font-size="10.00">::parent_path</text>
</a>
</g>
</g>
<!-- Node11&#45;&gt;Node13 -->
<g id="edge14_Node000011_Node000013" class="edge">
<title>Node11&#45;&gt;Node13</title>
<g id="a_edge14_Node000011_Node000013"><a xlink:title=" ">
<path fill="none" stroke="#63b8ff" d="M620.12,-217.78C632.78,-216.96 646.19,-216.09 659.11,-215.26"/>
<polygon fill="#63b8ff" stroke="#63b8ff" points="659.04,-218.77 668.79,-214.63 658.59,-211.78 659.04,-218.77"/>
</a>
</g>
</g>
<!-- Node17 -->
<g id="Node000017" class="node">
<title>Node17</title>
<g id="a_Node000017"><a xlink:href="namespaceghc_1_1filesystem_1_1detail.html#a01fbfc7a0ba29c21136281886f7d751a" target="_top" xlink:title=" ">
<polygon fill="white" stroke="#666666" points="791.75,-175.5 667.75,-175.5 667.75,-142 791.75,-142 791.75,-175.5"/>
<text text-anchor="start" x="675.75" y="-162" font-family="Helvetica,sans-Serif" font-size="10.00">ghc::filesystem::detail</text>
<text text-anchor="middle" x="729.75" y="-149.25" font-family="Helvetica,sans-Serif" font-size="10.00">::startsWith</text>
</a>
</g>
</g>
<!-- Node11&#45;&gt;Node17 -->
<g id="edge19_Node000011_Node000017" class="edge">
<title>Node11&#45;&gt;Node17</title>
<g id="a_edge19_Node000011_Node000017"><a xlink:title=" ">
<path fill="none" stroke="#63b8ff" d="M605.2,-204.53C625.72,-196.93 650.05,-187.92 671.66,-179.91"/>
<polygon fill="#63b8ff" stroke="#63b8ff" points="672.77,-183.23 680.93,-176.47 670.34,-176.66 672.77,-183.23"/>
</a>
</g>
</g>
<!-- Node13&#45;&gt;Node7 -->
<g id="edge16_Node000013_Node000007" class="edge">
<title>Node13&#45;&gt;Node7</title>
<g id="a_edge16_Node000013_Node000007"><a xlink:title=" ">
<path fill="none" stroke="#63b8ff" d="M777.72,-193.6C782.66,-190.97 787.44,-188.02 791.75,-184.75 812.15,-169.26 806.99,-154.75 827.75,-139.75 829.48,-138.5 831.28,-137.3 833.14,-136.15"/>
<polygon fill="#63b8ff" stroke="#63b8ff" points="834.37,-139.47 841.43,-131.57 830.98,-133.34 834.37,-139.47"/>
</a>
</g>
</g>
<!-- Node14 -->
<g id="Node000014" class="node">
<title>Node14</title>
<g id="a_Node000014"><a xlink:href="classghc_1_1filesystem_1_1path.html#aa69fa98adb4093bf9ff74cca6972d5fb" target="_top" xlink:title=" ">
<polygon fill="white" stroke="#666666" points="957.75,-272.5 839.75,-272.5 839.75,-239 957.75,-239 957.75,-272.5"/>
<text text-anchor="start" x="847.75" y="-259" font-family="Helvetica,sans-Serif" font-size="10.00">ghc::filesystem::path</text>
<text text-anchor="middle" x="898.75" y="-246.25" font-family="Helvetica,sans-Serif" font-size="10.00">::path</text>
</a>
</g>
</g>
<!-- Node13&#45;&gt;Node14 -->
<g id="edge15_Node000013_Node000014" class="edge">
<title>Node13&#45;&gt;Node14</title>
<g id="a_edge15_Node000013_Node000014"><a xlink:title=" ">
<path fill="none" stroke="#63b8ff" d="M789.16,-226.49C801.87,-229.91 815.44,-233.57 828.53,-237.1"/>
<polygon fill="#63b8ff" stroke="#63b8ff" points="827.35,-240.4 837.91,-239.63 829.17,-233.64 827.35,-240.4"/>
</a>
</g>
</g>
<!-- Node15 -->
<g id="Node000015" class="node">
<title>Node15</title>
<g id="a_Node000015"><a xlink:href="classghc_1_1filesystem_1_1path.html#af62a148e592fc444fea5f195896a6a2e" target="_top" xlink:title=" ">
<polygon fill="white" stroke="#666666" points="969.75,-221.12 827.75,-221.12 827.75,-200.38 969.75,-200.38 969.75,-221.12"/>
<text text-anchor="middle" x="898.75" y="-207.62" font-family="Helvetica,sans-Serif" font-size="10.00">ghc::filesystem::path::end</text>
</a>
</g>
</g>
<!-- Node13&#45;&gt;Node15 -->
<g id="edge17_Node000013_Node000015" class="edge">
<title>Node13&#45;&gt;Node15</title>
<g id="a_edge17_Node000013_Node000015"><a xlink:title=" ">
<path fill="none" stroke="#63b8ff" d="M789.16,-210.75C797.82,-210.75 806.88,-210.75 815.92,-210.75"/>
<polygon fill="#63b8ff" stroke="#63b8ff" points="815.8,-214.25 825.8,-210.75 815.8,-207.25 815.8,-214.25"/>
</a>
</g>
</g>
<!-- Node16 -->
<g id="Node000016" class="node">
<title>Node16</title>
<g id="a_Node000016"><a xlink:href="classghc_1_1filesystem_1_1path.html#a89dc8832ede96a8987e1beeb97f5c49d" target="_top" xlink:title=" ">
<polygon fill="white" stroke="#666666" points="957.75,-182.5 839.75,-182.5 839.75,-149 957.75,-149 957.75,-182.5"/>
<text text-anchor="start" x="847.75" y="-169" font-family="Helvetica,sans-Serif" font-size="10.00">ghc::filesystem::path</text>
<text text-anchor="middle" x="898.75" y="-156.25" font-family="Helvetica,sans-Serif" font-size="10.00">::has_root_directory</text>
</a>
</g>
</g>
<!-- Node13&#45;&gt;Node16 -->
<g id="edge18_Node000013_Node000016" class="edge">
<title>Node13&#45;&gt;Node16</title>
<g id="a_edge18_Node000013_Node000016"><a xlink:title=" ">
<path fill="none" stroke="#63b8ff" d="M789.16,-195.01C801.87,-191.59 815.44,-187.93 828.53,-184.4"/>
<polygon fill="#63b8ff" stroke="#63b8ff" points="829.17,-187.86 837.91,-181.87 827.35,-181.1 829.17,-187.86"/>
</a>
</g>
</g>
</g>
</svg>
