<?xml version="1.0" encoding="UTF-8" standalone="no"?>
<!DOCTYPE svg PUBLIC "-//W3C//DTD SVG 1.1//EN"
 "http://www.w3.org/Graphics/SVG/1.1/DTD/svg11.dtd">
<!-- Generated by graphviz version 9.0.0 (0)
 -->
<!-- Title: CLI::detail::trim_copy Pages: 1 -->
<svg width="385pt" height="68pt"
 viewBox="0.00 0.00 385.25 67.75" xmlns="http://www.w3.org/2000/svg" xmlns:xlink="http://www.w3.org/1999/xlink">
<g id="graph0" class="graph" transform="scale(1 1) rotate(0) translate(4 63.75)">
<title>CLI::detail::trim_copy</title>
<!-- Node1 -->
<g id="Node000001" class="node">
<title>Node1</title>
<g id="a_Node000001"><a xlink:title="Make a copy of the string and then trim it.">
<polygon fill="#999999" stroke="#666666" points="119.5,-39.75 0,-39.75 0,-19 119.5,-19 119.5,-39.75"/>
<text text-anchor="middle" x="59.75" y="-26.25" font-family="Helvetica,sans-Serif" font-size="10.00">CLI::detail::trim_copy</text>
</a>
</g>
</g>
<!-- Node2 -->
<g id="Node000002" class="node">
<title>Node2</title>
<g id="a_Node000002"><a xlink:href="namespaceCLI_1_1detail.html#a621323632158048f6168deacc432b838" target="_top" xlink:title="Trim whitespace from string.">
<polygon fill="white" stroke="#666666" points="246.5,-39.75 155.5,-39.75 155.5,-19 246.5,-19 246.5,-39.75"/>
<text text-anchor="middle" x="201" y="-26.25" font-family="Helvetica,sans-Serif" font-size="10.00">CLI::detail::trim</text>
</a>
</g>
</g>
<!-- Node1&#45;&gt;Node2 -->
<g id="edge1_Node000001_Node000002" class="edge">
<title>Node1&#45;&gt;Node2</title>
<g id="a_edge1_Node000001_Node000002"><a xlink:title=" ">
<path fill="none" stroke="#63b8ff" d="M119.8,-29.38C127.77,-29.38 135.93,-29.38 143.85,-29.38"/>
<polygon fill="#63b8ff" stroke="#63b8ff" points="143.71,-32.88 153.71,-29.38 143.71,-25.88 143.71,-32.88"/>
</a>
</g>
</g>
<!-- Node3 -->
<g id="Node000003" class="node">
<title>Node3</title>
<g id="a_Node000003"><a xlink:href="namespaceCLI_1_1detail.html#aa06bf54cb3fb347d68d23d31384af42f" target="_top" xlink:title="Trim whitespace from left of string.">
<polygon fill="white" stroke="#666666" points="376.88,-59.75 282.88,-59.75 282.88,-39 376.88,-39 376.88,-59.75"/>
<text text-anchor="middle" x="329.88" y="-46.25" font-family="Helvetica,sans-Serif" font-size="10.00">CLI::detail::ltrim</text>
</a>
</g>
</g>
<!-- Node2&#45;&gt;Node3 -->
<g id="edge2_Node000002_Node000003" class="edge">
<title>Node2&#45;&gt;Node3</title>
<g id="a_edge2_Node000002_Node000003"><a xlink:title=" ">
<path fill="none" stroke="#63b8ff" d="M246.73,-36.43C254.68,-37.68 263.05,-39 271.3,-40.3"/>
<polygon fill="#63b8ff" stroke="#63b8ff" points="270.48,-43.71 280.91,-41.81 271.57,-36.8 270.48,-43.71"/>
</a>
</g>
</g>
<!-- Node4 -->
<g id="Node000004" class="node">
<title>Node4</title>
<g id="a_Node000004"><a xlink:href="namespaceCLI_1_1detail.html#a32d84ce1a65de779e88fdf4aa3b54ea6" target="_top" xlink:title="Trim whitespace from right of string.">
<polygon fill="white" stroke="#666666" points="377.25,-20.75 282.5,-20.75 282.5,0 377.25,0 377.25,-20.75"/>
<text text-anchor="middle" x="329.88" y="-7.25" font-family="Helvetica,sans-Serif" font-size="10.00">CLI::detail::rtrim</text>
</a>
</g>
</g>
<!-- Node2&#45;&gt;Node4 -->
<g id="edge3_Node000002_Node000004" class="edge">
<title>Node2&#45;&gt;Node4</title>
<g id="a_edge3_Node000002_Node000004"><a xlink:title=" ">
<path fill="none" stroke="#63b8ff" d="M246.73,-22.68C254.59,-21.5 262.86,-20.26 271.02,-19.04"/>
<polygon fill="#63b8ff" stroke="#63b8ff" points="271.53,-22.5 280.9,-17.56 270.5,-15.58 271.53,-22.5"/>
</a>
</g>
</g>
</g>
</svg>
