<?xml version="1.0" encoding="UTF-8" standalone="no"?>
<!DOCTYPE svg PUBLIC "-//W3C//DTD SVG 1.1//EN"
 "http://www.w3.org/Graphics/SVG/1.1/DTD/svg11.dtd">
<!-- Generated by graphviz version 7.0.0 (0)
 -->
<!-- Title: CLI::detail::to_string Pages: 1 -->
<svg width="272pt" height="45pt"
 viewBox="0.00 0.00 272.00 45.00" xmlns="http://www.w3.org/2000/svg" xmlns:xlink="http://www.w3.org/1999/xlink">
<g id="graph0" class="graph" transform="scale(1 1) rotate(0) translate(4 41)">
<title>CLI::detail::to_string</title>
<!-- Node1 -->
<g id="node1" class="node">
<title>Node1</title>
<g id="a_node1"><a xlink:title="Convert an object to a string (streaming must be supported for that type)">
<polygon fill="#999999" stroke="#666666" points="114,-19 0,-19 0,0 114,0 114,-19"/>
<text text-anchor="middle" x="57" y="-7" font-family="Helvetica,sans-Serif" font-size="10.00">CLI::detail::to_string</text>
</a>
</g>
</g>
<!-- Node2 -->
<g id="node2" class="node">
<title>Node2</title>
<g id="a_node2"><a xlink:href="namespaceCLI_1_1detail.html#a0e94052d485636fc9f18c21009026577" target="_top" xlink:title="Convert an object to a string (directly forward if this can become a string)">
<polygon fill="white" stroke="#666666" points="264,-19 150,-19 150,0 264,0 264,-19"/>
<text text-anchor="middle" x="207" y="-7" font-family="Helvetica,sans-Serif" font-size="10.00">CLI::detail::to_string</text>
</a>
</g>
</g>
<!-- Node1&#45;&gt;Node2 -->
<g id="edge1" class="edge">
<title>Node1&#45;&gt;Node2</title>
<path fill="none" stroke="#63b8ff" d="M114.37,-9.5C122.26,-9.5 130.43,-9.5 138.49,-9.5"/>
<polygon fill="#63b8ff" stroke="#63b8ff" points="138.27,-13 148.27,-9.5 138.27,-6 138.27,-13"/>
</g>
<!-- Node2&#45;&gt;Node2 -->
<g id="edge2" class="edge">
<title>Node2&#45;&gt;Node2</title>
<path fill="none" stroke="#63b8ff" d="M183.52,-19.37C172.81,-27.94 180.63,-37 207,-37 221.42,-37 230.29,-34.29 233.62,-30.43"/>
<polygon fill="#63b8ff" stroke="#63b8ff" points="237,-29.49 230.9,-20.82 230.26,-31.4 237,-29.49"/>
</g>
</g>
</svg>
