<?xml version="1.0" encoding="UTF-8" standalone="no"?>
<!DOCTYPE svg PUBLIC "-//W3C//DTD SVG 1.1//EN"
 "http://www.w3.org/Graphics/SVG/1.1/DTD/svg11.dtd">
<!-- Generated by graphviz version 8.1.0 (0)
 -->
<!-- Title: CLI::detail::split_short Pages: 1 -->
<svg width="231pt" height="60pt"
 viewBox="0.00 0.00 230.50 59.50" xmlns="http://www.w3.org/2000/svg" xmlns:xlink="http://www.w3.org/1999/xlink">
<g id="graph0" class="graph" transform="scale(1 1) rotate(0) translate(4 55.5)">
<title>CLI::detail::split_short</title>
<!-- Node1 -->
<g id="Node000001" class="node">
<title>Node1</title>
<g id="a_Node000001"><a xlink:title=" ">
<polygon fill="#999999" stroke="#666666" points="91.75,-33.5 0,-33.5 0,0 91.75,0 91.75,-33.5"/>
<text text-anchor="start" x="8" y="-20" font-family="Helvetica,sans-Serif" font-size="10.00">CLI::detail::split</text>
<text text-anchor="middle" x="45.88" y="-7.25" font-family="Helvetica,sans-Serif" font-size="10.00">_short</text>
</a>
</g>
</g>
<!-- Node1&#45;&gt;Node1 -->
<g id="edge1_Node000001_Node000001" class="edge">
<title>Node1&#45;&gt;Node1</title>
<g id="a_edge1_Node000001_Node000001"><a xlink:title=" ">
<path fill="none" stroke="#63b8ff" d="M22.64,-33.91C18.69,-43.12 26.44,-51.5 45.88,-51.5 57.11,-51.5 64.44,-48.7 67.86,-44.56"/>
<polygon fill="#63b8ff" stroke="#63b8ff" points="71.42,-45.25 69.11,-34.91 64.47,-44.44 71.42,-45.25"/>
</a>
</g>
</g>
<!-- Node2 -->
<g id="Node000002" class="node">
<title>Node2</title>
<g id="a_Node000002"><a xlink:href="namespaceCLI_1_1detail.html#a3a05d1129df69e88135e178137b1fd89" target="_top" xlink:title=" ">
<polygon fill="white" stroke="#666666" points="222.5,-33.5 127.75,-33.5 127.75,0 222.5,0 222.5,-33.5"/>
<text text-anchor="start" x="135.75" y="-20" font-family="Helvetica,sans-Serif" font-size="10.00">CLI::detail::valid</text>
<text text-anchor="middle" x="175.12" y="-7.25" font-family="Helvetica,sans-Serif" font-size="10.00">_first_char</text>
</a>
</g>
</g>
<!-- Node1&#45;&gt;Node2 -->
<g id="edge2_Node000001_Node000002" class="edge">
<title>Node1&#45;&gt;Node2</title>
<g id="a_edge2_Node000001_Node000002"><a xlink:title=" ">
<path fill="none" stroke="#63b8ff" d="M92.1,-16.75C99.95,-16.75 108.22,-16.75 116.36,-16.75"/>
<polygon fill="#63b8ff" stroke="#63b8ff" points="116.33,-20.25 126.33,-16.75 116.33,-13.25 116.33,-20.25"/>
</a>
</g>
</g>
</g>
</svg>
