<?xml version="1.0" encoding="UTF-8" standalone="no"?>
<!DOCTYPE svg PUBLIC "-//W3C//DTD SVG 1.1//EN"
 "http://www.w3.org/Graphics/SVG/1.1/DTD/svg11.dtd">
<!-- Generated by graphviz version 8.1.0 (0)
 -->
<!-- Title: ghc::filesystem::remove_all Pages: 1 -->
<svg width="831pt" height="288pt"
 viewBox="0.00 0.00 830.50 287.50" xmlns="http://www.w3.org/2000/svg" xmlns:xlink="http://www.w3.org/1999/xlink">
<g id="graph0" class="graph" transform="scale(1 1) rotate(0) translate(4 283.5)">
<title>ghc::filesystem::remove_all</title>
<!-- Node1 -->
<g id="Node000001" class="node">
<title>Node1</title>
<g id="a_Node000001"><a xlink:title=" ">
<polygon fill="#999999" stroke="#666666" points="151,-183.12 0,-183.12 0,-162.38 151,-162.38 151,-183.12"/>
<text text-anchor="middle" x="75.5" y="-169.62" font-family="Helvetica,sans-Serif" font-size="10.00">ghc::filesystem::remove_all</text>
</a>
</g>
</g>
<!-- Node1&#45;&gt;Node1 -->
<g id="edge6_Node000001_Node000001" class="edge">
<title>Node1&#45;&gt;Node1</title>
<g id="a_edge6_Node000001_Node000001"><a xlink:title=" ">
<path fill="none" stroke="#63b8ff" d="M46.64,-183.52C35.09,-192.18 44.71,-201.12 75.5,-201.12 93.3,-201.12 104.02,-198.14 107.67,-193.94"/>
<polygon fill="#63b8ff" stroke="#63b8ff" points="110.73,-192.99 104.36,-184.52 104.06,-195.11 110.73,-192.99"/>
</a>
</g>
</g>
<!-- Node2 -->
<g id="Node000002" class="node">
<title>Node2</title>
<g id="a_Node000002"><a xlink:href="namespaceghc_1_1filesystem.html#a4e2495a21917ad1123a992e55a0b3e32" target="_top" xlink:title=" ">
<polygon fill="white" stroke="#666666" points="317.38,-273.12 191.88,-273.12 191.88,-252.38 317.38,-252.38 317.38,-273.12"/>
<text text-anchor="middle" x="254.62" y="-259.62" font-family="Helvetica,sans-Serif" font-size="10.00">ghc::filesystem::exists</text>
</a>
</g>
</g>
<!-- Node1&#45;&gt;Node2 -->
<g id="edge1_Node000001_Node000002" class="edge">
<title>Node1&#45;&gt;Node2</title>
<g id="a_edge1_Node000001_Node000002"><a xlink:title=" ">
<path fill="none" stroke="#63b8ff" d="M90.38,-183.59C110.6,-198.93 149.81,-226.94 187,-243.75 190.78,-245.46 194.74,-247.05 198.78,-248.52"/>
<polygon fill="#63b8ff" stroke="#63b8ff" points="197.3,-252.06 207.89,-251.96 199.55,-245.43 197.3,-252.06"/>
</a>
</g>
</g>
<!-- Node4 -->
<g id="Node000004" class="node">
<title>Node4</title>
<g id="a_Node000004"><a xlink:href="namespaceghc_1_1filesystem.html#aa51846cdfd8bfe65b2b16718cf46d178" target="_top" xlink:title=" ">
<polygon fill="white" stroke="#666666" points="306.88,-234.5 202.38,-234.5 202.38,-201 306.88,-201 306.88,-234.5"/>
<text text-anchor="start" x="210.38" y="-221" font-family="Helvetica,sans-Serif" font-size="10.00">ghc::filesystem::is</text>
<text text-anchor="middle" x="254.62" y="-208.25" font-family="Helvetica,sans-Serif" font-size="10.00">_directory</text>
</a>
</g>
</g>
<!-- Node1&#45;&gt;Node4 -->
<g id="edge3_Node000001_Node000004" class="edge">
<title>Node1&#45;&gt;Node4</title>
<g id="a_edge3_Node000001_Node000004"><a xlink:title=" ">
<path fill="none" stroke="#63b8ff" d="M118.93,-183.53C140.68,-189.06 167.58,-195.89 191.62,-202"/>
<polygon fill="#63b8ff" stroke="#63b8ff" points="190.52,-205.58 201.07,-204.65 192.24,-198.8 190.52,-205.58"/>
</a>
</g>
</g>
<!-- Node5 -->
<g id="Node000005" class="node">
<title>Node5</title>
<g id="a_Node000005"><a xlink:href="namespaceghc_1_1filesystem_1_1detail.html#a3b8a14e2872af12da82499a0284cc1f2" target="_top" xlink:title=" ">
<polygon fill="white" stroke="#666666" points="656.5,-189.5 532.5,-189.5 532.5,-156 656.5,-156 656.5,-189.5"/>
<text text-anchor="start" x="540.5" y="-176" font-family="Helvetica,sans-Serif" font-size="10.00">ghc::filesystem::detail</text>
<text text-anchor="middle" x="594.5" y="-163.25" font-family="Helvetica,sans-Serif" font-size="10.00">::is_not_found_error</text>
</a>
</g>
</g>
<!-- Node1&#45;&gt;Node5 -->
<g id="edge4_Node000001_Node000005" class="edge">
<title>Node1&#45;&gt;Node5</title>
<g id="a_edge4_Node000001_Node000005"><a xlink:title=" ">
<path fill="none" stroke="#63b8ff" d="M151.4,-172.75C250.43,-172.75 423.75,-172.75 521.37,-172.75"/>
<polygon fill="#63b8ff" stroke="#63b8ff" points="521.31,-176.25 531.31,-172.75 521.31,-169.25 521.31,-176.25"/>
</a>
</g>
</g>
<!-- Node6 -->
<g id="Node000006" class="node">
<title>Node6</title>
<g id="a_Node000006"><a xlink:href="namespaceghc_1_1filesystem_1_1detail.html#ac555f3c3dbbaf319c87425eedd38ac1f" target="_top" xlink:title=" ">
<polygon fill="white" stroke="#666666" points="316.62,-144.5 192.62,-144.5 192.62,-111 316.62,-111 316.62,-144.5"/>
<text text-anchor="start" x="200.62" y="-131" font-family="Helvetica,sans-Serif" font-size="10.00">ghc::filesystem::detail</text>
<text text-anchor="middle" x="254.62" y="-118.25" font-family="Helvetica,sans-Serif" font-size="10.00">::make_error_code</text>
</a>
</g>
</g>
<!-- Node1&#45;&gt;Node6 -->
<g id="edge5_Node000001_Node000006" class="edge">
<title>Node1&#45;&gt;Node6</title>
<g id="a_edge5_Node000001_Node000006"><a xlink:title=" ">
<path fill="none" stroke="#63b8ff" d="M118.93,-161.97C137.84,-157.17 160.64,-151.37 182.06,-145.93"/>
<polygon fill="#63b8ff" stroke="#63b8ff" points="182.62,-149.15 191.45,-143.29 180.89,-142.36 182.62,-149.15"/>
</a>
</g>
</g>
<!-- Node7 -->
<g id="Node000007" class="node">
<title>Node7</title>
<g id="a_Node000007"><a xlink:href="namespaceghc_1_1filesystem.html#aebf6cccf2aa8da7b8e7b7e5eb42c883b" target="_top" xlink:title=" ">
<polygon fill="white" stroke="#666666" points="322.25,-92.5 187,-92.5 187,-59 322.25,-59 322.25,-92.5"/>
<text text-anchor="start" x="195" y="-79" font-family="Helvetica,sans-Serif" font-size="10.00">ghc::filesystem::symlink</text>
<text text-anchor="middle" x="254.62" y="-66.25" font-family="Helvetica,sans-Serif" font-size="10.00">_status</text>
</a>
</g>
</g>
<!-- Node1&#45;&gt;Node7 -->
<g id="edge7_Node000001_Node000007" class="edge">
<title>Node1&#45;&gt;Node7</title>
<g id="a_edge7_Node000001_Node000007"><a xlink:title=" ">
<path fill="none" stroke="#63b8ff" d="M91.3,-161.88C111.99,-147.01 151.04,-120.09 187,-101.75 189.95,-100.25 193,-98.78 196.11,-97.35"/>
<polygon fill="#63b8ff" stroke="#63b8ff" points="197.41,-100.16 205.16,-92.93 194.59,-93.75 197.41,-100.16"/>
</a>
</g>
</g>
<!-- Node3 -->
<g id="Node000003" class="node">
<title>Node3</title>
<g id="a_Node000003"><a xlink:href="namespaceghc_1_1filesystem.html#a2f5d075292823eda15f4b1091ef1da60" target="_top" xlink:title=" ">
<polygon fill="white" stroke="#666666" points="484.5,-279.5 358.25,-279.5 358.25,-246 484.5,-246 484.5,-279.5"/>
<text text-anchor="start" x="366.25" y="-266" font-family="Helvetica,sans-Serif" font-size="10.00">ghc::filesystem::status</text>
<text text-anchor="middle" x="421.38" y="-253.25" font-family="Helvetica,sans-Serif" font-size="10.00">_known</text>
</a>
</g>
</g>
<!-- Node2&#45;&gt;Node3 -->
<g id="edge2_Node000002_Node000003" class="edge">
<title>Node2&#45;&gt;Node3</title>
<g id="a_edge2_Node000002_Node000003"><a xlink:title=" ">
<path fill="none" stroke="#63b8ff" d="M317.44,-262.75C327.16,-262.75 337.29,-262.75 347.24,-262.75"/>
<polygon fill="#63b8ff" stroke="#63b8ff" points="346.94,-266.25 356.94,-262.75 346.94,-259.25 346.94,-266.25"/>
</a>
</g>
</g>
<!-- Node8 -->
<g id="Node000008" class="node">
<title>Node8</title>
<g id="a_Node000008"><a xlink:href="namespaceghc_1_1filesystem_1_1detail.html#a48fd7805ec3035ed78c33b0f1dd23e80" target="_top" xlink:title=" ">
<polygon fill="white" stroke="#666666" points="483.38,-92.5 359.38,-92.5 359.38,-59 483.38,-59 483.38,-92.5"/>
<text text-anchor="start" x="367.38" y="-79" font-family="Helvetica,sans-Serif" font-size="10.00">ghc::filesystem::detail</text>
<text text-anchor="middle" x="421.38" y="-66.25" font-family="Helvetica,sans-Serif" font-size="10.00">::symlink_status_ex</text>
</a>
</g>
</g>
<!-- Node7&#45;&gt;Node8 -->
<g id="edge8_Node000007_Node000008" class="edge">
<title>Node7&#45;&gt;Node8</title>
<g id="a_edge8_Node000007_Node000008"><a xlink:title=" ">
<path fill="none" stroke="#63b8ff" d="M322.64,-75.75C331,-75.75 339.58,-75.75 348.02,-75.75"/>
<polygon fill="#63b8ff" stroke="#63b8ff" points="348,-79.25 358,-75.75 348,-72.25 348,-79.25"/>
</a>
</g>
</g>
<!-- Node8&#45;&gt;Node5 -->
<g id="edge12_Node000008_Node000005" class="edge">
<title>Node8&#45;&gt;Node5</title>
<g id="a_edge12_Node000008_Node000005"><a xlink:title=" ">
<path fill="none" stroke="#63b8ff" d="M442.31,-92.8C461.38,-108.45 491.47,-131.48 520.5,-146.75 523.54,-148.35 526.69,-149.88 529.91,-151.36"/>
<polygon fill="#63b8ff" stroke="#63b8ff" points="528.15,-154.84 538.72,-155.58 530.92,-148.41 528.15,-154.84"/>
</a>
</g>
</g>
<!-- Node9 -->
<g id="Node000009" class="node">
<title>Node9</title>
<g id="a_Node000009"><a xlink:href="classghc_1_1filesystem_1_1path.html#a43eccd3bf97a5b8d83ce16d4426fd00e" target="_top" xlink:title=" ">
<polygon fill="white" stroke="#666666" points="653.5,-137.5 535.5,-137.5 535.5,-104 653.5,-104 653.5,-137.5"/>
<text text-anchor="start" x="543.5" y="-124" font-family="Helvetica,sans-Serif" font-size="10.00">ghc::filesystem::path</text>
<text text-anchor="middle" x="594.5" y="-111.25" font-family="Helvetica,sans-Serif" font-size="10.00">::c_str</text>
</a>
</g>
</g>
<!-- Node8&#45;&gt;Node9 -->
<g id="edge9_Node000008_Node000009" class="edge">
<title>Node8&#45;&gt;Node9</title>
<g id="a_edge9_Node000008_Node000009"><a xlink:title=" ">
<path fill="none" stroke="#63b8ff" d="M483.67,-91.87C497.05,-95.39 511.28,-99.13 524.92,-102.72"/>
<polygon fill="#63b8ff" stroke="#63b8ff" points="523.64,-106.26 534.21,-105.42 525.42,-99.49 523.64,-106.26"/>
</a>
</g>
</g>
<!-- Node11 -->
<g id="Node000011" class="node">
<title>Node11</title>
<g id="a_Node000011"><a xlink:href="namespaceghc_1_1filesystem_1_1detail.html#aaea3652d22642d81afbfaed47ea425b3" target="_top" xlink:title=" ">
<polygon fill="white" stroke="#666666" points="668.5,-85.5 520.5,-85.5 520.5,-52 668.5,-52 668.5,-85.5"/>
<text text-anchor="start" x="528.5" y="-72" font-family="Helvetica,sans-Serif" font-size="10.00">ghc::filesystem::detail</text>
<text text-anchor="middle" x="594.5" y="-59.25" font-family="Helvetica,sans-Serif" font-size="10.00">::file_status_from_st_mode</text>
</a>
</g>
</g>
<!-- Node8&#45;&gt;Node11 -->
<g id="edge11_Node000008_Node000011" class="edge">
<title>Node8&#45;&gt;Node11</title>
<g id="a_edge11_Node000008_Node000011"><a xlink:title=" ">
<path fill="none" stroke="#63b8ff" d="M483.67,-73.24C491.97,-72.9 500.59,-72.55 509.2,-72.2"/>
<polygon fill="#63b8ff" stroke="#63b8ff" points="509.22,-75.66 519.07,-71.75 508.93,-68.67 509.22,-75.66"/>
</a>
</g>
</g>
<!-- Node12 -->
<g id="Node000012" class="node">
<title>Node12</title>
<g id="a_Node000012"><a xlink:href="namespaceghc_1_1filesystem_1_1detail.html#ada571d5c1f47892dc26420eb4a8adaee" target="_top" xlink:title=" ">
<polygon fill="white" stroke="#666666" points="656.5,-33.5 532.5,-33.5 532.5,0 656.5,0 656.5,-33.5"/>
<text text-anchor="start" x="540.5" y="-20" font-family="Helvetica,sans-Serif" font-size="10.00">ghc::filesystem::detail</text>
<text text-anchor="middle" x="594.5" y="-7.25" font-family="Helvetica,sans-Serif" font-size="10.00">::make_system_error</text>
</a>
</g>
</g>
<!-- Node8&#45;&gt;Node12 -->
<g id="edge13_Node000008_Node000012" class="edge">
<title>Node8&#45;&gt;Node12</title>
<g id="a_edge13_Node000008_Node000012"><a xlink:title=" ">
<path fill="none" stroke="#63b8ff" d="M472.33,-58.53C491.4,-51.95 513.34,-44.39 533.27,-37.52"/>
<polygon fill="#63b8ff" stroke="#63b8ff" points="534.17,-40.56 542.48,-34 531.89,-33.95 534.17,-40.56"/>
</a>
</g>
</g>
<!-- Node10 -->
<g id="Node000010" class="node">
<title>Node10</title>
<g id="a_Node000010"><a xlink:href="classghc_1_1filesystem_1_1path.html#a7f972ea2fdb1c64655aba64cef3705fb" target="_top" xlink:title=" ">
<polygon fill="white" stroke="#666666" points="822.5,-137.5 704.5,-137.5 704.5,-104 822.5,-104 822.5,-137.5"/>
<text text-anchor="start" x="712.5" y="-124" font-family="Helvetica,sans-Serif" font-size="10.00">ghc::filesystem::path</text>
<text text-anchor="middle" x="763.5" y="-111.25" font-family="Helvetica,sans-Serif" font-size="10.00">::native</text>
</a>
</g>
</g>
<!-- Node9&#45;&gt;Node10 -->
<g id="edge10_Node000009_Node000010" class="edge">
<title>Node9&#45;&gt;Node10</title>
<g id="a_edge10_Node000009_Node000010"><a xlink:title=" ">
<path fill="none" stroke="#63b8ff" d="M653.91,-120.75C666.62,-120.75 680.19,-120.75 693.28,-120.75"/>
<polygon fill="#63b8ff" stroke="#63b8ff" points="693.12,-124.25 703.12,-120.75 693.12,-117.25 693.12,-124.25"/>
</a>
</g>
</g>
</g>
</svg>
