<?xml version="1.0" encoding="UTF-8" standalone="no"?>
<!DOCTYPE svg PUBLIC "-//W3C//DTD SVG 1.1//EN"
 "http://www.w3.org/Graphics/SVG/1.1/DTD/svg11.dtd">
<!-- Generated by graphviz version 9.0.0 (0)
 -->
<!-- Title: ghc::filesystem::weakly_canonical Pages: 1 -->
<svg width="1121pt" height="436pt"
 viewBox="0.00 0.00 1120.50 436.12" xmlns="http://www.w3.org/2000/svg" xmlns:xlink="http://www.w3.org/1999/xlink">
<g id="graph0" class="graph" transform="scale(1 1) rotate(0) translate(4 432.12)">
<title>ghc::filesystem::weakly_canonical</title>
<!-- Node1 -->
<g id="Node000001" class="node">
<title>Node1</title>
<g id="a_Node000001"><a xlink:title=" ">
<polygon fill="#999999" stroke="#666666" points="131.5,-344.5 0,-344.5 0,-311 131.5,-311 131.5,-344.5"/>
<text text-anchor="start" x="8" y="-331" font-family="Helvetica,sans-Serif" font-size="10.00">ghc::filesystem::weakly</text>
<text text-anchor="middle" x="65.75" y="-318.25" font-family="Helvetica,sans-Serif" font-size="10.00">_canonical</text>
</a>
</g>
</g>
<!-- Node2 -->
<g id="Node000002" class="node">
<title>Node2</title>
<g id="a_Node000002"><a xlink:href="namespaceghc_1_1filesystem.html#a83d56af2b2b953afe4fb17de0bd64987" target="_top" xlink:title=" ">
<polygon fill="white" stroke="#666666" points="310.25,-428.12 167.5,-428.12 167.5,-407.38 310.25,-407.38 310.25,-428.12"/>
<text text-anchor="middle" x="238.88" y="-414.62" font-family="Helvetica,sans-Serif" font-size="10.00">ghc::filesystem::canonical</text>
</a>
</g>
</g>
<!-- Node1&#45;&gt;Node2 -->
<g id="edge1_Node000001_Node000002" class="edge">
<title>Node1&#45;&gt;Node2</title>
<g id="a_edge1_Node000001_Node000002"><a xlink:title=" ">
<path fill="none" stroke="#63b8ff" d="M86.65,-344.99C106.08,-361.01 137.09,-384.48 167.5,-398.75 170.99,-400.39 174.64,-401.9 178.36,-403.3"/>
<polygon fill="#63b8ff" stroke="#63b8ff" points="176.97,-406.52 187.57,-406.46 179.24,-399.9 176.97,-406.52"/>
</a>
</g>
</g>
<!-- Node3 -->
<g id="Node000003" class="node">
<title>Node3</title>
<g id="a_Node000003"><a xlink:href="classghc_1_1filesystem_1_1path.html#a08d9cc6bfa72c5a9ff2acde0b1e89465" target="_top" xlink:title=" ">
<polygon fill="white" stroke="#666666" points="297.88,-389.5 179.88,-389.5 179.88,-356 297.88,-356 297.88,-389.5"/>
<text text-anchor="start" x="187.88" y="-376" font-family="Helvetica,sans-Serif" font-size="10.00">ghc::filesystem::path</text>
<text text-anchor="middle" x="238.88" y="-363.25" font-family="Helvetica,sans-Serif" font-size="10.00">::clear</text>
</a>
</g>
</g>
<!-- Node1&#45;&gt;Node3 -->
<g id="edge2_Node000001_Node000003" class="edge">
<title>Node1&#45;&gt;Node3</title>
<g id="a_edge2_Node000001_Node000003"><a xlink:title=" ">
<path fill="none" stroke="#63b8ff" d="M131.93,-344.89C143.94,-348.05 156.51,-351.35 168.63,-354.54"/>
<polygon fill="#63b8ff" stroke="#63b8ff" points="167.58,-357.88 178.14,-357.04 169.36,-351.11 167.58,-357.88"/>
</a>
</g>
</g>
<!-- Node4 -->
<g id="Node000004" class="node">
<title>Node4</title>
<g id="a_Node000004"><a xlink:href="classghc_1_1filesystem_1_1path.html#a66ead77fddc75c0e9ebfbf3f1fe555aa" target="_top" xlink:title=" ">
<polygon fill="white" stroke="#666666" points="780.5,-265.5 662.5,-265.5 662.5,-232 780.5,-232 780.5,-265.5"/>
<text text-anchor="start" x="670.5" y="-252" font-family="Helvetica,sans-Serif" font-size="10.00">ghc::filesystem::path</text>
<text text-anchor="middle" x="721.5" y="-239.25" font-family="Helvetica,sans-Serif" font-size="10.00">::empty</text>
</a>
</g>
</g>
<!-- Node1&#45;&gt;Node4 -->
<g id="edge3_Node000001_Node000004" class="edge">
<title>Node1&#45;&gt;Node4</title>
<g id="a_edge3_Node000001_Node000004"><a xlink:title=" ">
<path fill="none" stroke="#63b8ff" d="M131.9,-320.87C236.38,-309.69 447.81,-286.43 626.5,-262.75 634.43,-261.7 642.72,-260.55 650.96,-259.36"/>
<polygon fill="#63b8ff" stroke="#63b8ff" points="651.23,-262.86 660.63,-257.96 650.23,-255.93 651.23,-262.86"/>
</a>
</g>
</g>
<!-- Node5 -->
<g id="Node000005" class="node">
<title>Node5</title>
<g id="a_Node000005"><a xlink:href="namespaceghc_1_1filesystem.html#a4e2495a21917ad1123a992e55a0b3e32" target="_top" xlink:title=" ">
<polygon fill="white" stroke="#666666" points="301.62,-169.12 176.12,-169.12 176.12,-148.38 301.62,-148.38 301.62,-169.12"/>
<text text-anchor="middle" x="238.88" y="-155.62" font-family="Helvetica,sans-Serif" font-size="10.00">ghc::filesystem::exists</text>
</a>
</g>
</g>
<!-- Node1&#45;&gt;Node5 -->
<g id="edge4_Node000001_Node000005" class="edge">
<title>Node1&#45;&gt;Node5</title>
<g id="a_edge4_Node000001_Node000005"><a xlink:title=" ">
<path fill="none" stroke="#63b8ff" d="M82.46,-310.68C101.99,-289.61 136.55,-252.89 167.5,-222.75 183.71,-206.97 202.72,-189.75 216.9,-177.15"/>
<polygon fill="#63b8ff" stroke="#63b8ff" points="219.13,-179.85 224.3,-170.6 214.49,-174.61 219.13,-179.85"/>
</a>
</g>
</g>
<!-- Node7 -->
<g id="Node000007" class="node">
<title>Node7</title>
<g id="a_Node000007"><a xlink:href="classghc_1_1filesystem_1_1path.html#afdd1e7ec9fb46eba045ddb6c95c42bf1" target="_top" xlink:title=" ">
<polygon fill="white" stroke="#666666" points="297.88,-265.5 179.88,-265.5 179.88,-232 297.88,-232 297.88,-265.5"/>
<text text-anchor="start" x="187.88" y="-252" font-family="Helvetica,sans-Serif" font-size="10.00">ghc::filesystem::path</text>
<text text-anchor="middle" x="238.88" y="-239.25" font-family="Helvetica,sans-Serif" font-size="10.00">::lexically_normal</text>
</a>
</g>
</g>
<!-- Node1&#45;&gt;Node7 -->
<g id="edge6_Node000001_Node000007" class="edge">
<title>Node1&#45;&gt;Node7</title>
<g id="a_edge6_Node000001_Node000007"><a xlink:title=" ">
<path fill="none" stroke="#63b8ff" d="M103.88,-310.61C129.25,-298.9 163.08,-283.28 190.4,-270.67"/>
<polygon fill="#63b8ff" stroke="#63b8ff" points="191.53,-274 199.15,-266.63 188.6,-267.64 191.53,-274"/>
</a>
</g>
</g>
<!-- Node6 -->
<g id="Node000006" class="node">
<title>Node6</title>
<g id="a_Node000006"><a xlink:href="namespaceghc_1_1filesystem.html#a2f5d075292823eda15f4b1091ef1da60" target="_top" xlink:title=" ">
<polygon fill="white" stroke="#666666" points="472.5,-130.5 346.25,-130.5 346.25,-97 472.5,-97 472.5,-130.5"/>
<text text-anchor="start" x="354.25" y="-117" font-family="Helvetica,sans-Serif" font-size="10.00">ghc::filesystem::status</text>
<text text-anchor="middle" x="409.38" y="-104.25" font-family="Helvetica,sans-Serif" font-size="10.00">_known</text>
</a>
</g>
</g>
<!-- Node5&#45;&gt;Node6 -->
<g id="edge5_Node000005_Node000006" class="edge">
<title>Node5&#45;&gt;Node6</title>
<g id="a_edge5_Node000005_Node000006"><a xlink:title=" ">
<path fill="none" stroke="#63b8ff" d="M280.23,-147.97C296.68,-143.58 316.21,-138.36 335.01,-133.34"/>
<polygon fill="#63b8ff" stroke="#63b8ff" points="335.74,-136.77 344.5,-130.81 333.94,-130.01 335.74,-136.77"/>
</a>
</g>
</g>
<!-- Node7&#45;&gt;Node4 -->
<g id="edge7_Node000007_Node000004" class="edge">
<title>Node7&#45;&gt;Node4</title>
<g id="a_edge7_Node000007_Node000004"><a xlink:title=" ">
<path fill="none" stroke="#63b8ff" d="M298.33,-248.75C387.07,-248.75 555.47,-248.75 650.57,-248.75"/>
<polygon fill="#63b8ff" stroke="#63b8ff" points="650.56,-252.25 660.56,-248.75 650.56,-245.25 650.56,-252.25"/>
</a>
</g>
</g>
<!-- Node8 -->
<g id="Node000008" class="node">
<title>Node8</title>
<g id="a_Node000008"><a xlink:href="classghc_1_1filesystem_1_1path.html#af62a148e592fc444fea5f195896a6a2e" target="_top" xlink:title=" ">
<polygon fill="white" stroke="#666666" points="958.5,-259.12 816.5,-259.12 816.5,-238.38 958.5,-238.38 958.5,-259.12"/>
<text text-anchor="middle" x="887.5" y="-245.62" font-family="Helvetica,sans-Serif" font-size="10.00">ghc::filesystem::path::end</text>
</a>
</g>
</g>
<!-- Node7&#45;&gt;Node8 -->
<g id="edge8_Node000007_Node000008" class="edge">
<title>Node7&#45;&gt;Node8</title>
<g id="a_edge8_Node000007_Node000008"><a xlink:title=" ">
<path fill="none" stroke="#63b8ff" d="M298.11,-257.94C397.44,-272.18 605.82,-295.86 780.5,-274.75 800.44,-272.34 822.04,-267.47 840.51,-262.59"/>
<polygon fill="#63b8ff" stroke="#63b8ff" points="841.37,-265.98 850.1,-259.97 839.53,-259.23 841.37,-265.98"/>
</a>
</g>
</g>
<!-- Node9 -->
<g id="Node000009" class="node">
<title>Node9</title>
<g id="a_Node000009"><a xlink:href="classghc_1_1filesystem_1_1path.html#a23fdbee15598b1dadf86db61704820ef" target="_top" xlink:title=" ">
<polygon fill="white" stroke="#666666" points="468.38,-220.5 350.38,-220.5 350.38,-187 468.38,-187 468.38,-220.5"/>
<text text-anchor="start" x="358.38" y="-207" font-family="Helvetica,sans-Serif" font-size="10.00">ghc::filesystem::path</text>
<text text-anchor="middle" x="409.38" y="-194.25" font-family="Helvetica,sans-Serif" font-size="10.00">::remove_filename</text>
</a>
</g>
</g>
<!-- Node7&#45;&gt;Node9 -->
<g id="edge9_Node000007_Node000009" class="edge">
<title>Node7&#45;&gt;Node9</title>
<g id="a_edge9_Node000007_Node000009"><a xlink:title=" ">
<path fill="none" stroke="#63b8ff" d="M298.34,-233.14C311.54,-229.61 325.67,-225.84 339.26,-222.21"/>
<polygon fill="#63b8ff" stroke="#63b8ff" points="339.8,-225.69 348.56,-219.73 337.99,-218.92 339.8,-225.69"/>
</a>
</g>
</g>
<!-- Node15 -->
<g id="Node000015" class="node">
<title>Node15</title>
<g id="a_Node000015"><a xlink:href="classghc_1_1filesystem_1_1path.html#ae8451e2b8923d24c4cafb3093d483482" target="_top" xlink:title=" ">
<polygon fill="white" stroke="#666666" points="626.5,-101.5 508.5,-101.5 508.5,-68 626.5,-68 626.5,-101.5"/>
<text text-anchor="start" x="516.5" y="-88" font-family="Helvetica,sans-Serif" font-size="10.00">ghc::filesystem::path</text>
<text text-anchor="middle" x="567.5" y="-75.25" font-family="Helvetica,sans-Serif" font-size="10.00">::root_path</text>
</a>
</g>
</g>
<!-- Node7&#45;&gt;Node15 -->
<g id="edge19_Node000007_Node000015" class="edge">
<title>Node7&#45;&gt;Node15</title>
<g id="a_edge19_Node000007_Node000015"><a xlink:title=" ">
<path fill="none" stroke="#63b8ff" d="M261.15,-231.78C281.85,-215.95 314.72,-192.61 346.25,-177.75 399.26,-152.77 418.78,-163.15 472.5,-139.75 492.79,-130.91 514.17,-118.66 531.41,-107.96"/>
<polygon fill="#63b8ff" stroke="#63b8ff" points="533.17,-110.99 539.76,-102.69 529.43,-105.07 533.17,-110.99"/>
</a>
</g>
</g>
<!-- Node10 -->
<g id="Node000010" class="node">
<title>Node10</title>
<g id="a_Node000010"><a xlink:href="classghc_1_1filesystem_1_1path.html#a8fa8cb12e511ef8d951559983d26f018" target="_top" xlink:title=" ">
<polygon fill="white" stroke="#666666" points="780.5,-175.5 662.5,-175.5 662.5,-142 780.5,-142 780.5,-175.5"/>
<text text-anchor="start" x="670.5" y="-162" font-family="Helvetica,sans-Serif" font-size="10.00">ghc::filesystem::path</text>
<text text-anchor="middle" x="721.5" y="-149.25" font-family="Helvetica,sans-Serif" font-size="10.00">::filename</text>
</a>
</g>
</g>
<!-- Node9&#45;&gt;Node10 -->
<g id="edge10_Node000009_Node000010" class="edge">
<title>Node9&#45;&gt;Node10</title>
<g id="a_edge10_Node000009_Node000010"><a xlink:title=" ">
<path fill="none" stroke="#63b8ff" d="M468.65,-186.57C481.67,-183.22 495.48,-180.04 508.5,-177.75 555.57,-169.47 609.19,-164.7 650.73,-162.02"/>
<polygon fill="#63b8ff" stroke="#63b8ff" points="650.84,-165.52 660.6,-161.41 650.41,-158.53 650.84,-165.52"/>
</a>
</g>
</g>
<!-- Node14 -->
<g id="Node000014" class="node">
<title>Node14</title>
<g id="a_Node000014"><a xlink:href="classghc_1_1filesystem_1_1path.html#ae6ee7d5f8e9eeb1850aa54f538d53e74" target="_top" xlink:title=" ">
<polygon fill="white" stroke="#666666" points="626.5,-220.5 508.5,-220.5 508.5,-187 626.5,-187 626.5,-220.5"/>
<text text-anchor="start" x="516.5" y="-207" font-family="Helvetica,sans-Serif" font-size="10.00">ghc::filesystem::path</text>
<text text-anchor="middle" x="567.5" y="-194.25" font-family="Helvetica,sans-Serif" font-size="10.00">::has_filename</text>
</a>
</g>
</g>
<!-- Node9&#45;&gt;Node14 -->
<g id="edge15_Node000009_Node000014" class="edge">
<title>Node9&#45;&gt;Node14</title>
<g id="a_edge15_Node000009_Node000014"><a xlink:title=" ">
<path fill="none" stroke="#63b8ff" d="M468.51,-203.75C477.69,-203.75 487.27,-203.75 496.69,-203.75"/>
<polygon fill="#63b8ff" stroke="#63b8ff" points="496.54,-207.25 506.54,-203.75 496.54,-200.25 496.54,-207.25"/>
</a>
</g>
</g>
<!-- Node10&#45;&gt;Node8 -->
<g id="edge12_Node000010_Node000008" class="edge">
<title>Node10&#45;&gt;Node8</title>
<g id="a_edge12_Node000010_Node000008"><a xlink:title=" ">
<path fill="none" stroke="#63b8ff" d="M753.73,-175.89C783.37,-192.15 827.58,-216.42 856.72,-232.41"/>
<polygon fill="#63b8ff" stroke="#63b8ff" points="854.94,-235.43 865.39,-237.17 858.31,-229.29 854.94,-235.43"/>
</a>
</g>
</g>
<!-- Node11 -->
<g id="Node000011" class="node">
<title>Node11</title>
<g id="a_Node000011"><a xlink:href="classghc_1_1filesystem_1_1path.html#aa69fa98adb4093bf9ff74cca6972d5fb" target="_top" xlink:title=" ">
<polygon fill="white" stroke="#666666" points="946.5,-112.5 828.5,-112.5 828.5,-79 946.5,-79 946.5,-112.5"/>
<text text-anchor="start" x="836.5" y="-99" font-family="Helvetica,sans-Serif" font-size="10.00">ghc::filesystem::path</text>
<text text-anchor="middle" x="887.5" y="-86.25" font-family="Helvetica,sans-Serif" font-size="10.00">::path</text>
</a>
</g>
</g>
<!-- Node10&#45;&gt;Node11 -->
<g id="edge11_Node000010_Node000011" class="edge">
<title>Node10&#45;&gt;Node11</title>
<g id="a_edge11_Node000010_Node000011"><a xlink:title=" ">
<path fill="none" stroke="#63b8ff" d="M767.31,-141.53C787.02,-133.97 810.36,-125 831.14,-117.02"/>
<polygon fill="#63b8ff" stroke="#63b8ff" points="832.25,-120.34 840.33,-113.49 829.74,-113.81 832.25,-120.34"/>
</a>
</g>
</g>
<!-- Node12 -->
<g id="Node000012" class="node">
<title>Node12</title>
<g id="a_Node000012"><a xlink:href="classghc_1_1filesystem_1_1path.html#ac9f23d51eb3bd601d2abd758f0be2cf5" target="_top" xlink:title=" ">
<polygon fill="white" stroke="#666666" points="946.5,-175.5 828.5,-175.5 828.5,-142 946.5,-142 946.5,-175.5"/>
<text text-anchor="start" x="836.5" y="-162" font-family="Helvetica,sans-Serif" font-size="10.00">ghc::filesystem::path</text>
<text text-anchor="middle" x="887.5" y="-149.25" font-family="Helvetica,sans-Serif" font-size="10.00">::has_relative_path</text>
</a>
</g>
</g>
<!-- Node10&#45;&gt;Node12 -->
<g id="edge13_Node000010_Node000012" class="edge">
<title>Node10&#45;&gt;Node12</title>
<g id="a_edge13_Node000010_Node000012"><a xlink:title=" ">
<path fill="none" stroke="#63b8ff" d="M780.78,-158.75C792.43,-158.75 804.78,-158.75 816.78,-158.75"/>
<polygon fill="#63b8ff" stroke="#63b8ff" points="816.62,-162.25 826.62,-158.75 816.62,-155.25 816.62,-162.25"/>
</a>
</g>
</g>
<!-- Node13 -->
<g id="Node000013" class="node">
<title>Node13</title>
<g id="a_Node000013"><a xlink:href="classghc_1_1filesystem_1_1path.html#a89dc8832ede96a8987e1beeb97f5c49d" target="_top" xlink:title=" ">
<polygon fill="white" stroke="#666666" points="1112.5,-93.5 994.5,-93.5 994.5,-60 1112.5,-60 1112.5,-93.5"/>
<text text-anchor="start" x="1002.5" y="-80" font-family="Helvetica,sans-Serif" font-size="10.00">ghc::filesystem::path</text>
<text text-anchor="middle" x="1053.5" y="-67.25" font-family="Helvetica,sans-Serif" font-size="10.00">::has_root_directory</text>
</a>
</g>
</g>
<!-- Node12&#45;&gt;Node13 -->
<g id="edge14_Node000012_Node000013" class="edge">
<title>Node12&#45;&gt;Node13</title>
<g id="a_edge14_Node000012_Node000013"><a xlink:title=" ">
<path fill="none" stroke="#63b8ff" d="M922.88,-141.56C947.59,-129.21 981.13,-112.44 1007.9,-99.05"/>
<polygon fill="#63b8ff" stroke="#63b8ff" points="1009.43,-102.2 1016.81,-94.59 1006.3,-95.94 1009.43,-102.2"/>
</a>
</g>
</g>
<!-- Node14&#45;&gt;Node4 -->
<g id="edge16_Node000014_Node000004" class="edge">
<title>Node14&#45;&gt;Node4</title>
<g id="a_edge16_Node000014_Node000004"><a xlink:title=" ">
<path fill="none" stroke="#63b8ff" d="M626.4,-220.89C634.57,-223.31 643.03,-225.81 651.38,-228.29"/>
<polygon fill="#63b8ff" stroke="#63b8ff" points="650.23,-231.6 660.81,-231.08 652.21,-224.88 650.23,-231.6"/>
</a>
</g>
</g>
<!-- Node14&#45;&gt;Node10 -->
<g id="edge17_Node000014_Node000010" class="edge">
<title>Node14&#45;&gt;Node10</title>
<g id="a_edge17_Node000014_Node000010"><a xlink:title=" ">
<path fill="none" stroke="#63b8ff" d="M626.4,-186.61C634.57,-184.19 643.03,-181.69 651.38,-179.21"/>
<polygon fill="#63b8ff" stroke="#63b8ff" points="652.21,-182.62 660.81,-176.42 650.23,-175.9 652.21,-182.62"/>
</a>
</g>
</g>
<!-- Node14&#45;&gt;Node12 -->
<g id="edge18_Node000014_Node000012" class="edge">
<title>Node14&#45;&gt;Node12</title>
<g id="a_edge18_Node000014_Node000012"><a xlink:title=" ">
<path fill="none" stroke="#63b8ff" d="M626.84,-200.9C669.59,-198.24 728.92,-193.34 780.5,-184.75 792.45,-182.76 805.04,-180.14 817.21,-177.34"/>
<polygon fill="#63b8ff" stroke="#63b8ff" points="817.84,-180.78 826.76,-175.07 816.22,-173.97 817.84,-180.78"/>
</a>
</g>
</g>
<!-- Node15&#45;&gt;Node11 -->
<g id="edge20_Node000015_Node000011" class="edge">
<title>Node15&#45;&gt;Node11</title>
<g id="a_edge20_Node000015_Node000011"><a xlink:title=" ">
<path fill="none" stroke="#63b8ff" d="M626.9,-81.88C638.69,-81.41 650.99,-80.99 662.5,-80.75 714.93,-79.63 728.19,-77.07 780.5,-80.75 792.23,-81.58 804.64,-82.91 816.67,-84.45"/>
<polygon fill="#63b8ff" stroke="#63b8ff" points="816.18,-87.92 826.56,-85.78 817.12,-80.98 816.18,-87.92"/>
</a>
</g>
</g>
<!-- Node16 -->
<g id="Node000016" class="node">
<title>Node16</title>
<g id="a_Node000016"><a xlink:href="classghc_1_1filesystem_1_1path.html#a624bf57df2fa8b9bf3329563adfd4554" target="_top" xlink:title=" ">
<polygon fill="white" stroke="#666666" points="780.5,-33.5 662.5,-33.5 662.5,0 780.5,0 780.5,-33.5"/>
<text text-anchor="start" x="670.5" y="-20" font-family="Helvetica,sans-Serif" font-size="10.00">ghc::filesystem::path</text>
<text text-anchor="middle" x="721.5" y="-7.25" font-family="Helvetica,sans-Serif" font-size="10.00">::root_directory</text>
</a>
</g>
</g>
<!-- Node15&#45;&gt;Node16 -->
<g id="edge21_Node000015_Node000016" class="edge">
<title>Node15&#45;&gt;Node16</title>
<g id="a_edge21_Node000015_Node000016"><a xlink:title=" ">
<path fill="none" stroke="#63b8ff" d="M606.86,-67.59C626.57,-58.77 650.8,-47.93 671.82,-38.53"/>
<polygon fill="#63b8ff" stroke="#63b8ff" points="673.08,-41.8 680.77,-34.52 670.22,-35.41 673.08,-41.8"/>
</a>
</g>
</g>
<!-- Node17 -->
<g id="Node000017" class="node">
<title>Node17</title>
<g id="a_Node000017"><a xlink:href="classghc_1_1filesystem_1_1path.html#ad97c0bd4fa7e692e2c81c94bc40b44a1" target="_top" xlink:title=" ">
<polygon fill="white" stroke="#666666" points="780.5,-123.5 662.5,-123.5 662.5,-90 780.5,-90 780.5,-123.5"/>
<text text-anchor="start" x="670.5" y="-110" font-family="Helvetica,sans-Serif" font-size="10.00">ghc::filesystem::path</text>
<text text-anchor="middle" x="721.5" y="-97.25" font-family="Helvetica,sans-Serif" font-size="10.00">::root_name</text>
</a>
</g>
</g>
<!-- Node15&#45;&gt;Node17 -->
<g id="edge24_Node000015_Node000017" class="edge">
<title>Node15&#45;&gt;Node17</title>
<g id="a_edge24_Node000015_Node000017"><a xlink:title=" ">
<path fill="none" stroke="#63b8ff" d="M626.83,-93.19C634.69,-94.33 642.8,-95.5 650.83,-96.67"/>
<polygon fill="#63b8ff" stroke="#63b8ff" points="650.18,-100.11 660.57,-98.08 651.18,-93.18 650.18,-100.11"/>
</a>
</g>
</g>
<!-- Node16&#45;&gt;Node11 -->
<g id="edge22_Node000016_Node000011" class="edge">
<title>Node16&#45;&gt;Node11</title>
<g id="a_edge22_Node000016_Node000011"><a xlink:title=" ">
<path fill="none" stroke="#63b8ff" d="M758.09,-33.89C782.29,-45.55 814.53,-61.08 840.65,-73.67"/>
<polygon fill="#63b8ff" stroke="#63b8ff" points="838.81,-76.66 849.34,-77.85 841.85,-70.36 838.81,-76.66"/>
</a>
</g>
</g>
<!-- Node16&#45;&gt;Node13 -->
<g id="edge23_Node000016_Node000013" class="edge">
<title>Node16&#45;&gt;Node13</title>
<g id="a_edge23_Node000016_Node000013"><a xlink:title=" ">
<path fill="none" stroke="#63b8ff" d="M780.74,-27.34C837.15,-37.59 922.73,-53.15 982.74,-64.07"/>
<polygon fill="#63b8ff" stroke="#63b8ff" points="982.06,-67.5 992.52,-65.85 983.31,-60.61 982.06,-67.5"/>
</a>
</g>
</g>
<!-- Node17&#45;&gt;Node11 -->
<g id="edge25_Node000017_Node000011" class="edge">
<title>Node17&#45;&gt;Node11</title>
<g id="a_edge25_Node000017_Node000011"><a xlink:title=" ">
<path fill="none" stroke="#63b8ff" d="M780.78,-102.84C792.43,-102.06 804.78,-101.23 816.78,-100.43"/>
<polygon fill="#63b8ff" stroke="#63b8ff" points="816.88,-103.93 826.62,-99.77 816.41,-96.94 816.88,-103.93"/>
</a>
</g>
</g>
</g>
</svg>
