<?xml version="1.0" encoding="UTF-8" standalone="no"?>
<!DOCTYPE svg PUBLIC "-//W3C//DTD SVG 1.1//EN"
 "http://www.w3.org/Graphics/SVG/1.1/DTD/svg11.dtd">
<!-- Generated by graphviz version 8.1.0 (0)
 -->
<!-- Title: CLI::detail::split_names Pages: 1 -->
<svg width="262pt" height="60pt"
 viewBox="0.00 0.00 262.00 59.50" xmlns="http://www.w3.org/2000/svg" xmlns:xlink="http://www.w3.org/1999/xlink">
<g id="graph0" class="graph" transform="scale(1 1) rotate(0) translate(4 55.5)">
<title>CLI::detail::split_names</title>
<!-- Node1 -->
<g id="Node000001" class="node">
<title>Node1</title>
<g id="a_Node000001"><a xlink:title=" ">
<polygon fill="#999999" stroke="#666666" points="254,-33.5 162.25,-33.5 162.25,0 254,0 254,-33.5"/>
<text text-anchor="start" x="170.25" y="-20" font-family="Helvetica,sans-Serif" font-size="10.00">CLI::detail::split</text>
<text text-anchor="middle" x="208.12" y="-7.25" font-family="Helvetica,sans-Serif" font-size="10.00">_names</text>
</a>
</g>
</g>
<!-- Node1&#45;&gt;Node1 -->
<g id="edge3_Node000001_Node000001" class="edge">
<title>Node1&#45;&gt;Node1</title>
<g id="a_edge3_Node000001_Node000001"><a xlink:title=" ">
<path fill="none" stroke="#63b8ff" d="M232.79,-44.56C228.95,-48.7 220.73,-51.5 208.12,-51.5 186.32,-51.5 177.63,-43.12 182.06,-33.91"/>
<polygon fill="#63b8ff" stroke="#63b8ff" points="236.36,-45.29 234.19,-34.91 229.42,-44.37 236.36,-45.29"/>
</a>
</g>
</g>
<!-- Node2 -->
<g id="Node000002" class="node">
<title>Node2</title>
<g id="a_Node000002"><a xlink:href="namespaceCLI_1_1detail.html#aef5e2e24cdf5eb20ac37c5fdabec8f62" target="_top" xlink:title="extract default flag values either {def} or starting with a !">
<polygon fill="white" stroke="#666666" points="126.25,-33.5 0,-33.5 0,0 126.25,0 126.25,-33.5"/>
<text text-anchor="start" x="8" y="-20" font-family="Helvetica,sans-Serif" font-size="10.00">CLI::detail::get_default</text>
<text text-anchor="middle" x="63.12" y="-7.25" font-family="Helvetica,sans-Serif" font-size="10.00">_flag_values</text>
</a>
</g>
</g>
<!-- Node1&#45;&gt;Node2 -->
<g id="edge1_Node000001_Node000002" class="edge">
<title>Node1&#45;&gt;Node2</title>
<g id="a_edge1_Node000001_Node000002"><a xlink:title=" ">
<path fill="none" stroke="#63b8ff" d="M151.12,-16.75C143.07,-16.75 134.75,-16.75 126.59,-16.75"/>
<polygon fill="#63b8ff" stroke="#63b8ff" points="150.88,-20.25 160.88,-16.75 150.88,-13.25 150.88,-20.25"/>
</a>
</g>
</g>
<!-- Node2&#45;&gt;Node2 -->
<g id="edge2_Node000002_Node000002" class="edge">
<title>Node2&#45;&gt;Node2</title>
<g id="a_edge2_Node000002_Node000002"><a xlink:title=" ">
<path fill="none" stroke="#63b8ff" d="M87.79,-44.56C83.95,-48.7 75.73,-51.5 63.12,-51.5 41.32,-51.5 32.63,-43.12 37.06,-33.91"/>
<polygon fill="#63b8ff" stroke="#63b8ff" points="91.36,-45.29 89.19,-34.91 84.42,-44.37 91.36,-45.29"/>
</a>
</g>
</g>
</g>
</svg>
