<?xml version="1.0" encoding="UTF-8" standalone="no"?>
<!DOCTYPE svg PUBLIC "-//W3C//DTD SVG 1.1//EN"
 "http://www.w3.org/Graphics/SVG/1.1/DTD/svg11.dtd">
<!-- Generated by graphviz version 7.0.0 (0)
 -->
<!-- Title: CLI::detail::checked_multiply Pages: 1 -->
<svg width="445pt" height="56pt"
 viewBox="0.00 0.00 445.00 56.00" xmlns="http://www.w3.org/2000/svg" xmlns:xlink="http://www.w3.org/1999/xlink">
<g id="graph0" class="graph" transform="scale(1 1) rotate(0) translate(4 52)">
<title>CLI::detail::checked_multiply</title>
<!-- Node1 -->
<g id="node1" class="node">
<title>Node1</title>
<g id="a_node1"><a xlink:title="Performs a *= b; if it doesn&#39;t equal infinity. Returns false otherwise.">
<polygon fill="#999999" stroke="#666666" points="111,-30 0,-30 0,0 111,0 111,-30"/>
<text text-anchor="start" x="8" y="-18" font-family="Helvetica,sans-Serif" font-size="10.00">CLI::detail::checked</text>
<text text-anchor="middle" x="55.5" y="-7" font-family="Helvetica,sans-Serif" font-size="10.00">_multiply</text>
</a>
</g>
</g>
<!-- Node2 -->
<g id="node2" class="node">
<title>Node2</title>
<g id="a_node2"><a xlink:href="namespaceCLI_1_1detail.html#a58ce723daebf6cd298565eb365d1b157" target="_top" xlink:title="Performs a *= b; if it doesn&#39;t cause integer overflow. Returns false otherwise.">
<polygon fill="white" stroke="#666666" points="258,-30 147,-30 147,0 258,0 258,-30"/>
<text text-anchor="start" x="155" y="-18" font-family="Helvetica,sans-Serif" font-size="10.00">CLI::detail::checked</text>
<text text-anchor="middle" x="202.5" y="-7" font-family="Helvetica,sans-Serif" font-size="10.00">_multiply</text>
</a>
</g>
</g>
<!-- Node1&#45;&gt;Node2 -->
<g id="edge1" class="edge">
<title>Node1&#45;&gt;Node2</title>
<path fill="none" stroke="#63b8ff" d="M111.32,-15C119.17,-15 127.31,-15 135.35,-15"/>
<polygon fill="#63b8ff" stroke="#63b8ff" points="135.09,-18.5 145.09,-15 135.09,-11.5 135.09,-18.5"/>
</g>
<!-- Node2&#45;&gt;Node2 -->
<g id="edge2" class="edge">
<title>Node2&#45;&gt;Node2</title>
<path fill="none" stroke="#63b8ff" d="M176.66,-30.28C170.92,-39.41 179.53,-48 202.5,-48 215.06,-48 223.33,-45.43 227.3,-41.61"/>
<polygon fill="#63b8ff" stroke="#63b8ff" points="230.78,-42.06 228.2,-31.78 223.81,-41.42 230.78,-42.06"/>
</g>
<!-- Node3 -->
<g id="node3" class="node">
<title>Node3</title>
<g id="a_node3"><a xlink:href="namespaceCLI_1_1detail.html#a569135c6e266940a5f914698b9deef66" target="_top" xlink:title="Do a check for overflow on signed numbers.">
<polygon fill="white" stroke="#666666" points="437,-24.5 294,-24.5 294,-5.5 437,-5.5 437,-24.5"/>
<text text-anchor="middle" x="365.5" y="-12.5" font-family="Helvetica,sans-Serif" font-size="10.00">CLI::detail::overflowCheck</text>
</a>
</g>
</g>
<!-- Node2&#45;&gt;Node3 -->
<g id="edge3" class="edge">
<title>Node2&#45;&gt;Node3</title>
<path fill="none" stroke="#63b8ff" d="M258.46,-15C266.13,-15 274.16,-15 282.21,-15"/>
<polygon fill="#63b8ff" stroke="#63b8ff" points="282.05,-18.5 292.05,-15 282.05,-11.5 282.05,-18.5"/>
</g>
<!-- Node3&#45;&gt;Node3 -->
<g id="edge4" class="edge">
<title>Node3&#45;&gt;Node3</title>
<path fill="none" stroke="#63b8ff" d="M339.98,-24.87C328.34,-33.44 336.85,-42.5 365.5,-42.5 381.62,-42.5 391.36,-39.63 394.73,-35.6"/>
<polygon fill="#63b8ff" stroke="#63b8ff" points="398.09,-34.61 391.51,-26.3 391.47,-36.89 398.09,-34.61"/>
</g>
</g>
</svg>
