<?xml version="1.0" encoding="UTF-8" standalone="no"?>
<!DOCTYPE svg PUBLIC "-//W3C//DTD SVG 1.1//EN"
 "http://www.w3.org/Graphics/SVG/1.1/DTD/svg11.dtd">
<!-- Generated by graphviz version 7.0.0 (0)
 -->
<!-- Title: CLI::detail::valid_first_char Pages: 1 -->
<svg width="419pt" height="251pt"
 viewBox="0.00 0.00 419.00 251.07" xmlns="http://www.w3.org/2000/svg" xmlns:xlink="http://www.w3.org/1999/xlink">
<g id="graph0" class="graph" transform="scale(1 1) rotate(0) translate(4 247.07)">
<title>CLI::detail::valid_first_char</title>
<!-- Node1 -->
<g id="node1" class="node">
<title>Node1</title>
<g id="a_node1"><a xlink:title=" ">
<polygon fill="#999999" stroke="#666666" points="411,-144 316,-144 316,-114 411,-114 411,-144"/>
<text text-anchor="start" x="324" y="-132" font-family="Helvetica,sans-Serif" font-size="10.00">CLI::detail::valid</text>
<text text-anchor="middle" x="363.5" y="-121" font-family="Helvetica,sans-Serif" font-size="10.00">_first_char</text>
</a>
</g>
</g>
<!-- Node2 -->
<g id="node2" class="node">
<title>Node2</title>
<g id="a_node2"><a xlink:href="namespaceCLI_1_1detail.html#a2f845e274b0701ae700150328804badf" target="_top" xlink:title="Get a vector of short names, one of long names, and a single name.">
<polygon fill="white" stroke="#666666" points="125,-139.5 0,-139.5 0,-120.5 125,-120.5 125,-139.5"/>
<text text-anchor="middle" x="62.5" y="-127.5" font-family="Helvetica,sans-Serif" font-size="10.00">CLI::detail::get_names</text>
</a>
</g>
</g>
<!-- Node1&#45;&gt;Node2 -->
<g id="edge1" class="edge">
<title>Node1&#45;&gt;Node2</title>
<path fill="none" stroke="#63b8ff" d="M349.67,-154.26C336.03,-178.02 312,-212.11 280,-227 232.05,-249.31 209.89,-247.18 161,-227 117.3,-208.96 82.87,-160.8 69.52,-139.9"/>
<polygon fill="#63b8ff" stroke="#63b8ff" points="352.74,-155.95 354.47,-145.5 346.6,-152.59 352.74,-155.95"/>
</g>
<!-- Node3 -->
<g id="node3" class="node">
<title>Node3</title>
<g id="a_node3"><a xlink:href="namespaceCLI_1_1detail.html#a0de15b0ba0d12c9170d15693477808ed" target="_top" xlink:title=" ">
<polygon fill="white" stroke="#666666" points="280,-199.5 161,-199.5 161,-180.5 280,-180.5 280,-199.5"/>
<text text-anchor="middle" x="220.5" y="-187.5" font-family="Helvetica,sans-Serif" font-size="10.00">CLI::detail::split_long</text>
</a>
</g>
</g>
<!-- Node1&#45;&gt;Node3 -->
<g id="edge3" class="edge">
<title>Node1&#45;&gt;Node3</title>
<path fill="none" stroke="#63b8ff" d="M324.97,-149.67C311.07,-156.91 295.03,-164.78 280,-171 272.11,-174.27 263.43,-177.35 255.24,-180.04"/>
<polygon fill="#63b8ff" stroke="#63b8ff" points="326.59,-152.78 333.8,-145.01 323.32,-146.59 326.59,-152.78"/>
</g>
<!-- Node4 -->
<g id="node4" class="node">
<title>Node4</title>
<g id="a_node4"><a xlink:href="namespaceCLI_1_1detail.html#a1e6f215bcb727ff49f126ac3e1a13e40" target="_top" xlink:title=" ">
<polygon fill="white" stroke="#666666" points="266.5,-144 174.5,-144 174.5,-114 266.5,-114 266.5,-144"/>
<text text-anchor="start" x="182.5" y="-132" font-family="Helvetica,sans-Serif" font-size="10.00">CLI::detail::split</text>
<text text-anchor="middle" x="220.5" y="-121" font-family="Helvetica,sans-Serif" font-size="10.00">_short</text>
</a>
</g>
</g>
<!-- Node1&#45;&gt;Node4 -->
<g id="edge5" class="edge">
<title>Node1&#45;&gt;Node4</title>
<path fill="none" stroke="#63b8ff" d="M304.27,-129C291.77,-129 278.73,-129 266.81,-129"/>
<polygon fill="#63b8ff" stroke="#63b8ff" points="304.04,-132.5 314.04,-129 304.04,-125.5 304.04,-132.5"/>
</g>
<!-- Node5 -->
<g id="node5" class="node">
<title>Node5</title>
<g id="a_node5"><a xlink:href="namespaceCLI_1_1detail.html#aadbd2b5b93afe2f10427dd6e32639b0c" target="_top" xlink:title=" ">
<polygon fill="white" stroke="#666666" points="267.5,-78 173.5,-78 173.5,-48 267.5,-48 267.5,-78"/>
<text text-anchor="start" x="181.5" y="-66" font-family="Helvetica,sans-Serif" font-size="10.00">CLI::detail::split</text>
<text text-anchor="middle" x="220.5" y="-55" font-family="Helvetica,sans-Serif" font-size="10.00">_windows_style</text>
</a>
</g>
</g>
<!-- Node1&#45;&gt;Node5 -->
<g id="edge7" class="edge">
<title>Node1&#45;&gt;Node5</title>
<path fill="none" stroke="#63b8ff" d="M319.22,-108.74C298.33,-98.96 273.67,-87.42 254.35,-78.38"/>
<polygon fill="#63b8ff" stroke="#63b8ff" points="317.53,-111.81 328.07,-112.88 320.5,-105.47 317.53,-111.81"/>
</g>
<!-- Node6 -->
<g id="node6" class="node">
<title>Node6</title>
<g id="a_node6"><a xlink:href="namespaceCLI_1_1detail.html#a4274628d24f9e3fbc719284f1db263b8" target="_top" xlink:title="Verify an option/subcommand name.">
<polygon fill="white" stroke="#666666" points="268,-30 173,-30 173,0 268,0 268,-30"/>
<text text-anchor="start" x="181" y="-18" font-family="Helvetica,sans-Serif" font-size="10.00">CLI::detail::valid</text>
<text text-anchor="middle" x="220.5" y="-7" font-family="Helvetica,sans-Serif" font-size="10.00">_name_string</text>
</a>
</g>
</g>
<!-- Node1&#45;&gt;Node6 -->
<g id="edge9" class="edge">
<title>Node1&#45;&gt;Node6</title>
<path fill="none" stroke="#63b8ff" d="M345.05,-104.66C329.77,-84.79 306,-57.13 280,-39 275.41,-35.8 270.32,-32.92 265.13,-30.36"/>
<polygon fill="#63b8ff" stroke="#63b8ff" points="342.13,-106.6 350.93,-112.5 347.73,-102.4 342.13,-106.6"/>
</g>
<!-- Node2&#45;&gt;Node2 -->
<g id="edge2" class="edge">
<title>Node2&#45;&gt;Node2</title>
<path fill="none" stroke="#63b8ff" d="M90.83,-150.6C87.57,-154.63 78.12,-157.5 62.5,-157.5 34.73,-157.5 26.48,-148.44 37.76,-139.87"/>
<polygon fill="#63b8ff" stroke="#63b8ff" points="94.21,-149.67 87.72,-141.3 87.58,-151.9 94.21,-149.67"/>
</g>
<!-- Node3&#45;&gt;Node3 -->
<g id="edge4" class="edge">
<title>Node3&#45;&gt;Node3</title>
<path fill="none" stroke="#63b8ff" d="M245.88,-210.93C242.71,-214.79 234.25,-217.5 220.5,-217.5 195.36,-217.5 187.9,-208.44 198.11,-199.87"/>
<polygon fill="#63b8ff" stroke="#63b8ff" points="249.27,-210.07 243.28,-201.33 242.52,-211.9 249.27,-210.07"/>
</g>
<!-- Node4&#45;&gt;Node4 -->
<g id="edge6" class="edge">
<title>Node4&#45;&gt;Node4</title>
<path fill="none" stroke="#63b8ff" d="M244.63,-155.61C240.76,-159.43 232.72,-162 220.5,-162 198.16,-162 189.78,-153.41 195.36,-144.28"/>
<polygon fill="#63b8ff" stroke="#63b8ff" points="248.1,-156.05 245.5,-145.78 241.13,-155.43 248.1,-156.05"/>
</g>
<!-- Node5&#45;&gt;Node5 -->
<g id="edge8" class="edge">
<title>Node5&#45;&gt;Node5</title>
<path fill="none" stroke="#63b8ff" d="M244.63,-89.61C240.76,-93.43 232.72,-96 220.5,-96 198.16,-96 189.78,-87.41 195.36,-78.28"/>
<polygon fill="#63b8ff" stroke="#63b8ff" points="248.1,-90.05 245.5,-79.78 241.13,-89.43 248.1,-90.05"/>
</g>
<!-- Node6&#45;&gt;Node2 -->
<g id="edge10" class="edge">
<title>Node6&#45;&gt;Node2</title>
<path fill="none" stroke="#63b8ff" d="M166.69,-35.58C164.74,-36.68 162.84,-37.82 161,-39 123.58,-62.99 87.44,-102.18 71.72,-120.28"/>
<polygon fill="#63b8ff" stroke="#63b8ff" points="168.09,-38.8 175.38,-31.11 164.89,-32.58 168.09,-38.8"/>
</g>
</g>
</svg>
