<?xml version="1.0" encoding="UTF-8" standalone="no"?>
<!DOCTYPE svg PUBLIC "-//W3C//DTD SVG 1.1//EN"
 "http://www.w3.org/Graphics/SVG/1.1/DTD/svg11.dtd">
<!-- Generated by graphviz version 8.1.0 (0)
 -->
<!-- Title: ghc::filesystem::detail::symlink_status_ex Pages: 1 -->
<svg width="470pt" height="198pt"
 viewBox="0.00 0.00 470.00 197.50" xmlns="http://www.w3.org/2000/svg" xmlns:xlink="http://www.w3.org/1999/xlink">
<g id="graph0" class="graph" transform="scale(1 1) rotate(0) translate(4 193.5)">
<title>ghc::filesystem::detail::symlink_status_ex</title>
<!-- Node1 -->
<g id="Node000001" class="node">
<title>Node1</title>
<g id="a_Node000001"><a xlink:title=" ">
<polygon fill="#999999" stroke="#666666" points="124,-111.5 0,-111.5 0,-78 124,-78 124,-111.5"/>
<text text-anchor="start" x="8" y="-98" font-family="Helvetica,sans-Serif" font-size="10.00">ghc::filesystem::detail</text>
<text text-anchor="middle" x="62" y="-85.25" font-family="Helvetica,sans-Serif" font-size="10.00">::symlink_status_ex</text>
</a>
</g>
</g>
<!-- Node2 -->
<g id="Node000002" class="node">
<title>Node2</title>
<g id="a_Node000002"><a xlink:href="classghc_1_1filesystem_1_1path.html#a43eccd3bf97a5b8d83ce16d4426fd00e" target="_top" xlink:title=" ">
<polygon fill="white" stroke="#666666" points="293,-189.5 175,-189.5 175,-156 293,-156 293,-189.5"/>
<text text-anchor="start" x="183" y="-176" font-family="Helvetica,sans-Serif" font-size="10.00">ghc::filesystem::path</text>
<text text-anchor="middle" x="234" y="-163.25" font-family="Helvetica,sans-Serif" font-size="10.00">::c_str</text>
</a>
</g>
</g>
<!-- Node1&#45;&gt;Node2 -->
<g id="edge1_Node000001_Node000002" class="edge">
<title>Node1&#45;&gt;Node2</title>
<g id="a_edge1_Node000001_Node000002"><a xlink:title=" ">
<path fill="none" stroke="#63b8ff" d="M92.14,-111.86C111.11,-122.62 136.59,-136.38 160,-146.75 163.77,-148.42 167.68,-150.06 171.64,-151.66"/>
<polygon fill="#63b8ff" stroke="#63b8ff" points="169.98,-155.15 180.56,-155.53 172.52,-148.63 169.98,-155.15"/>
</a>
</g>
</g>
<!-- Node4 -->
<g id="Node000004" class="node">
<title>Node4</title>
<g id="a_Node000004"><a xlink:href="namespaceghc_1_1filesystem_1_1detail.html#aaea3652d22642d81afbfaed47ea425b3" target="_top" xlink:title=" ">
<polygon fill="white" stroke="#666666" points="308,-137.5 160,-137.5 160,-104 308,-104 308,-137.5"/>
<text text-anchor="start" x="168" y="-124" font-family="Helvetica,sans-Serif" font-size="10.00">ghc::filesystem::detail</text>
<text text-anchor="middle" x="234" y="-111.25" font-family="Helvetica,sans-Serif" font-size="10.00">::file_status_from_st_mode</text>
</a>
</g>
</g>
<!-- Node1&#45;&gt;Node4 -->
<g id="edge3_Node000001_Node000004" class="edge">
<title>Node1&#45;&gt;Node4</title>
<g id="a_edge3_Node000001_Node000004"><a xlink:title=" ">
<path fill="none" stroke="#63b8ff" d="M124.37,-104.14C132.31,-105.35 140.54,-106.61 148.77,-107.87"/>
<polygon fill="#63b8ff" stroke="#63b8ff" points="148.13,-111.46 158.55,-109.52 149.19,-104.54 148.13,-111.46"/>
</a>
</g>
</g>
<!-- Node5 -->
<g id="Node000005" class="node">
<title>Node5</title>
<g id="a_Node000005"><a xlink:href="namespaceghc_1_1filesystem_1_1detail.html#a3b8a14e2872af12da82499a0284cc1f2" target="_top" xlink:title=" ">
<polygon fill="white" stroke="#666666" points="296,-85.5 172,-85.5 172,-52 296,-52 296,-85.5"/>
<text text-anchor="start" x="180" y="-72" font-family="Helvetica,sans-Serif" font-size="10.00">ghc::filesystem::detail</text>
<text text-anchor="middle" x="234" y="-59.25" font-family="Helvetica,sans-Serif" font-size="10.00">::is_not_found_error</text>
</a>
</g>
</g>
<!-- Node1&#45;&gt;Node5 -->
<g id="edge4_Node000001_Node000005" class="edge">
<title>Node1&#45;&gt;Node5</title>
<g id="a_edge4_Node000001_Node000005"><a xlink:title=" ">
<path fill="none" stroke="#63b8ff" d="M124.37,-85.36C136.29,-83.54 148.88,-81.62 161.1,-79.75"/>
<polygon fill="#63b8ff" stroke="#63b8ff" points="161.36,-83.09 170.72,-78.12 160.3,-76.17 161.36,-83.09"/>
</a>
</g>
</g>
<!-- Node6 -->
<g id="Node000006" class="node">
<title>Node6</title>
<g id="a_Node000006"><a xlink:href="namespaceghc_1_1filesystem_1_1detail.html#ada571d5c1f47892dc26420eb4a8adaee" target="_top" xlink:title=" ">
<polygon fill="white" stroke="#666666" points="296,-33.5 172,-33.5 172,0 296,0 296,-33.5"/>
<text text-anchor="start" x="180" y="-20" font-family="Helvetica,sans-Serif" font-size="10.00">ghc::filesystem::detail</text>
<text text-anchor="middle" x="234" y="-7.25" font-family="Helvetica,sans-Serif" font-size="10.00">::make_system_error</text>
</a>
</g>
</g>
<!-- Node1&#45;&gt;Node6 -->
<g id="edge5_Node000001_Node000006" class="edge">
<title>Node1&#45;&gt;Node6</title>
<g id="a_edge5_Node000001_Node000006"><a xlink:title=" ">
<path fill="none" stroke="#63b8ff" d="M92.14,-77.64C111.11,-66.88 136.59,-53.12 160,-42.75 163.77,-41.08 167.68,-39.44 171.64,-37.84"/>
<polygon fill="#63b8ff" stroke="#63b8ff" points="172.52,-40.87 180.56,-33.97 169.98,-34.35 172.52,-40.87"/>
</a>
</g>
</g>
<!-- Node3 -->
<g id="Node000003" class="node">
<title>Node3</title>
<g id="a_Node000003"><a xlink:href="classghc_1_1filesystem_1_1path.html#a7f972ea2fdb1c64655aba64cef3705fb" target="_top" xlink:title=" ">
<polygon fill="white" stroke="#666666" points="462,-189.5 344,-189.5 344,-156 462,-156 462,-189.5"/>
<text text-anchor="start" x="352" y="-176" font-family="Helvetica,sans-Serif" font-size="10.00">ghc::filesystem::path</text>
<text text-anchor="middle" x="403" y="-163.25" font-family="Helvetica,sans-Serif" font-size="10.00">::native</text>
</a>
</g>
</g>
<!-- Node2&#45;&gt;Node3 -->
<g id="edge2_Node000002_Node000003" class="edge">
<title>Node2&#45;&gt;Node3</title>
<g id="a_edge2_Node000002_Node000003"><a xlink:title=" ">
<path fill="none" stroke="#63b8ff" d="M293.41,-172.75C306.12,-172.75 319.69,-172.75 332.78,-172.75"/>
<polygon fill="#63b8ff" stroke="#63b8ff" points="332.62,-176.25 342.62,-172.75 332.62,-169.25 332.62,-176.25"/>
</a>
</g>
</g>
</g>
</svg>
