<?xml version="1.0" encoding="UTF-8" standalone="no"?>
<!DOCTYPE svg PUBLIC "-//W3C//DTD SVG 1.1//EN"
 "http://www.w3.org/Graphics/SVG/1.1/DTD/svg11.dtd">
<!-- Generated by graphviz version 5.0.1 (0)
 -->
<!-- Title: sisi4s::operator&lt;&lt; Pages: 1 -->
<svg width="277pt" height="78pt"
 viewBox="0.00 0.00 277.00 77.50" xmlns="http://www.w3.org/2000/svg" xmlns:xlink="http://www.w3.org/1999/xlink">
<g id="graph0" class="graph" transform="scale(1 1) rotate(0) translate(4 73.5)">
<title>sisi4s::operator&lt;&lt;</title>
<!-- Node1 -->
<g id="node1" class="node">
<title>Node1</title>
<g id="a_node1"><a xlink:title="Writes the FockVector a to the given stream and returns it for further stream operations.">
<polygon fill="#bfbfbf" stroke="black" points="0,-28 0,-47 108,-47 108,-28 0,-28"/>
<text text-anchor="middle" x="54" y="-35" font-family="Helvetica,sans-Serif" font-size="10.00">sisi4s::operator&lt;&lt;</text>
</a>
</g>
</g>
<!-- Node2 -->
<g id="node2" class="node">
<title>Node2</title>
<g id="a_node2"><a xlink:href="classsisi4s_1_1FockVector.html#ac37c525c89799fb6e2fa419acb4edf4a" target="_top" xlink:title="Retrieves the i&#45;th component tensor. Note that the CTF::Tensor is not const since rearrangement may b...">
<polygon fill="none" stroke="black" points="144,-50 144,-69 269,-69 269,-50 144,-50"/>
<text text-anchor="middle" x="206.5" y="-57" font-family="Helvetica,sans-Serif" font-size="10.00">sisi4s::FockVector::get</text>
</a>
</g>
</g>
<!-- Node1&#45;&gt;Node2 -->
<g id="edge1" class="edge">
<title>Node1&#45;&gt;Node2</title>
<path fill="none" stroke="midnightblue" d="M108.06,-45.26C116.39,-46.47 125.13,-47.75 133.8,-49.02"/>
<polygon fill="midnightblue" stroke="midnightblue" points="133.51,-52.51 143.92,-50.5 134.53,-45.59 133.51,-52.51"/>
</g>
<!-- Node3 -->
<g id="node3" class="node">
<title>Node3</title>
<g id="a_node3"><a xlink:href="classsisi4s_1_1FockVector.html#a12f7974afa01def06d0fff6b08c06756" target="_top" xlink:title="Retrieves the i&#45;th component indices.">
<polygon fill="none" stroke="black" points="154.5,-0.5 154.5,-30.5 258.5,-30.5 258.5,-0.5 154.5,-0.5"/>
<text text-anchor="start" x="162.5" y="-18.5" font-family="Helvetica,sans-Serif" font-size="10.00">sisi4s::FockVector</text>
<text text-anchor="middle" x="206.5" y="-7.5" font-family="Helvetica,sans-Serif" font-size="10.00">::getIndices</text>
</a>
</g>
</g>
<!-- Node1&#45;&gt;Node3 -->
<g id="edge2" class="edge">
<title>Node1&#45;&gt;Node3</title>
<path fill="none" stroke="midnightblue" d="M108.06,-29.74C119.83,-28.02 132.39,-26.19 144.45,-24.42"/>
<polygon fill="midnightblue" stroke="midnightblue" points="145.05,-27.87 154.43,-22.96 144.03,-20.95 145.05,-27.87"/>
</g>
</g>
</svg>
