<?xml version="1.0" encoding="UTF-8" standalone="no"?>
<!DOCTYPE svg PUBLIC "-//W3C//DTD SVG 1.1//EN"
 "http://www.w3.org/Graphics/SVG/1.1/DTD/svg11.dtd">
<!-- Generated by graphviz version 9.0.0 (0)
 -->
<!-- Title: sisi4s::abs Pages: 1 -->
<svg width="678pt" height="317pt"
 viewBox="0.00 0.00 678.00 316.50" xmlns="http://www.w3.org/2000/svg" xmlns:xlink="http://www.w3.org/1999/xlink">
<g id="graph0" class="graph" transform="scale(1 1) rotate(0) translate(4 312.5)">
<title>sisi4s::abs</title>
<!-- Node1 -->
<g id="Node000001" class="node">
<title>Node1</title>
<g id="a_Node000001"><a xlink:title=" ">
<polygon fill="#999999" stroke="#666666" points="670,-157.12 603,-157.12 603,-136.38 670,-136.38 670,-157.12"/>
<text text-anchor="middle" x="636.5" y="-143.62" font-family="Helvetica,sans-Serif" font-size="10.00">sisi4s::abs</text>
</a>
</g>
</g>
<!-- Node2 -->
<g id="Node000002" class="node">
<title>Node2</title>
<g id="a_Node000002"><a xlink:href="classsisi4s_1_1Inter1D.html#a09df214d5aab2db417ef87280fe54200" target="_top" xlink:title=" ">
<polygon fill="white" stroke="#666666" points="553.12,-266.12 418.62,-266.12 418.62,-245.38 553.12,-245.38 553.12,-266.12"/>
<text text-anchor="middle" x="485.88" y="-252.62" font-family="Helvetica,sans-Serif" font-size="10.00">sisi4s::Inter1D::getValue</text>
</a>
</g>
</g>
<!-- Node1&#45;&gt;Node2 -->
<g id="edge1_Node000001_Node000002" class="edge">
<title>Node1&#45;&gt;Node2</title>
<g id="a_edge1_Node000001_Node000002"><a xlink:title=" ">
<path fill="none" stroke="#63b8ff" d="M624.14,-167.01C612.28,-186.36 591.95,-214.98 567,-231.75 558.68,-237.34 549.03,-241.66 539.36,-244.99"/>
<polygon fill="#63b8ff" stroke="#63b8ff" points="627,-169.05 629.06,-158.65 620.97,-165.49 627,-169.05"/>
</a>
</g>
</g>
<!-- Node7 -->
<g id="Node000007" class="node">
<title>Node7</title>
<g id="a_Node000007"><a xlink:href="classsisi4s_1_1FiniteSizeCorrection.html#a1263e86e1cfbd0547e5198c46c6eac51" target="_top" xlink:title=" ">
<polygon fill="white" stroke="#666666" points="360.5,-204.5 213.25,-204.5 213.25,-171 360.5,-171 360.5,-204.5"/>
<text text-anchor="start" x="221.25" y="-191" font-family="Helvetica,sans-Serif" font-size="10.00">sisi4s::FiniteSizeCorrection</text>
<text text-anchor="middle" x="286.88" y="-178.25" font-family="Helvetica,sans-Serif" font-size="10.00">::interpolation3D</text>
</a>
</g>
</g>
<!-- Node1&#45;&gt;Node7 -->
<g id="edge6_Node000001_Node000007" class="edge">
<title>Node1&#45;&gt;Node7</title>
<g id="a_edge6_Node000001_Node000007"><a xlink:title=" ">
<path fill="none" stroke="#63b8ff" d="M618.19,-165.06C605.37,-177.21 586.78,-192.09 567,-198.75 499.78,-221.37 418.26,-214.56 360.73,-204.56"/>
<polygon fill="#63b8ff" stroke="#63b8ff" points="620.37,-167.82 625,-158.29 615.44,-162.86 620.37,-167.82"/>
</a>
</g>
</g>
<!-- Node8 -->
<g id="Node000008" class="node">
<title>Node8</title>
<g id="a_Node000008"><a xlink:href="classsisi4s_1_1FiniteSizeCorrection.html#a5debe508e1f3f2713edc13d922058da1" target="_top" xlink:title=" ">
<polygon fill="white" stroke="#666666" points="559.5,-189.5 412.25,-189.5 412.25,-156 559.5,-156 559.5,-189.5"/>
<text text-anchor="start" x="420.25" y="-176" font-family="Helvetica,sans-Serif" font-size="10.00">sisi4s::FiniteSizeCorrection</text>
<text text-anchor="middle" x="485.88" y="-163.25" font-family="Helvetica,sans-Serif" font-size="10.00">::IsInSmallBZ</text>
</a>
</g>
</g>
<!-- Node1&#45;&gt;Node8 -->
<g id="edge8_Node000001_Node000008" class="edge">
<title>Node1&#45;&gt;Node8</title>
<g id="a_edge8_Node000001_Node000008"><a xlink:title=" ">
<path fill="none" stroke="#63b8ff" d="M591.33,-154.48C581.43,-156.21 570.66,-158.09 559.92,-159.97"/>
<polygon fill="#63b8ff" stroke="#63b8ff" points="591.78,-157.95 601.02,-152.78 590.57,-151.06 591.78,-157.95"/>
</a>
</g>
</g>
<!-- Node9 -->
<g id="Node000009" class="node">
<title>Node9</title>
<g id="a_Node000009"><a xlink:href="classsisi4s_1_1IterativePseudoInverse.html#a96558b1a79ac7e0bcdeb64127855241e" target="_top" xlink:title=" ">
<polygon fill="white" stroke="#666666" points="567,-137.5 404.75,-137.5 404.75,-104 567,-104 567,-137.5"/>
<text text-anchor="start" x="412.75" y="-124" font-family="Helvetica,sans-Serif" font-size="10.00">sisi4s::IterativePseudoInverse</text>
<text text-anchor="middle" x="485.88" y="-111.25" font-family="Helvetica,sans-Serif" font-size="10.00">::iterate</text>
</a>
</g>
</g>
<!-- Node1&#45;&gt;Node9 -->
<g id="edge10_Node000001_Node000009" class="edge">
<title>Node1&#45;&gt;Node9</title>
<g id="a_edge10_Node000001_Node000009"><a xlink:title=" ">
<path fill="none" stroke="#63b8ff" d="M591.42,-139.04C583.81,-137.71 575.7,-136.29 567.48,-134.85"/>
<polygon fill="#63b8ff" stroke="#63b8ff" points="590.57,-142.44 601.02,-140.72 591.78,-135.55 590.57,-142.44"/>
</a>
</g>
</g>
<!-- Node10 -->
<g id="Node000010" class="node">
<title>Node10</title>
<g id="a_Node000010"><a xlink:href="classsisi4s_1_1IterativePseudoInverse.html#a206b9b605d859aec9f8abbc15e919ed1" target="_top" xlink:title=" ">
<polygon fill="white" stroke="#666666" points="567,-85.5 404.75,-85.5 404.75,-52 567,-52 567,-85.5"/>
<text text-anchor="start" x="412.75" y="-72" font-family="Helvetica,sans-Serif" font-size="10.00">sisi4s::IterativePseudoInverse</text>
<text text-anchor="middle" x="485.88" y="-59.25" font-family="Helvetica,sans-Serif" font-size="10.00">::iterateQuadratically</text>
</a>
</g>
</g>
<!-- Node1&#45;&gt;Node10 -->
<g id="edge11_Node000001_Node000010" class="edge">
<title>Node1&#45;&gt;Node10</title>
<g id="a_edge11_Node000001_Node000010"><a xlink:title=" ">
<path fill="none" stroke="#63b8ff" d="M615.61,-128.79C602.56,-117.74 584.68,-103.99 567,-94.75 560.78,-91.5 554.07,-88.55 547.28,-85.91"/>
<polygon fill="#63b8ff" stroke="#63b8ff" points="613.21,-131.33 623.06,-135.25 617.8,-126.05 613.21,-131.33"/>
</a>
</g>
</g>
<!-- Node11 -->
<g id="Node000011" class="node">
<title>Node11</title>
<g id="a_Node000011"><a xlink:href="classsisi4s_1_1IterativePseudoInverse.html#a1998a3534a76b40320d273d324b2470e" target="_top" xlink:title=" ">
<polygon fill="white" stroke="#666666" points="567,-33.5 404.75,-33.5 404.75,0 567,0 567,-33.5"/>
<text text-anchor="start" x="412.75" y="-20" font-family="Helvetica,sans-Serif" font-size="10.00">sisi4s::IterativePseudoInverse</text>
<text text-anchor="middle" x="485.88" y="-7.25" font-family="Helvetica,sans-Serif" font-size="10.00">::test</text>
</a>
</g>
</g>
<!-- Node1&#45;&gt;Node11 -->
<g id="edge12_Node000001_Node000011" class="edge">
<title>Node1&#45;&gt;Node11</title>
<g id="a_edge12_Node000001_Node000011"><a xlink:title=" ">
<path fill="none" stroke="#63b8ff" d="M626.78,-125.6C616.05,-102.1 595.67,-64.59 567,-42.75 562.58,-39.38 557.71,-36.44 552.61,-33.87"/>
<polygon fill="#63b8ff" stroke="#63b8ff" points="623.45,-126.72 630.66,-134.49 629.87,-123.92 623.45,-126.72"/>
</a>
</g>
</g>
<!-- Node3 -->
<g id="Node000003" class="node">
<title>Node3</title>
<g id="a_Node000003"><a xlink:href="classsisi4s_1_1FiniteSizeCorrection.html#a22f55b903c4a3f38bd3e395bf51f7aa3" target="_top" xlink:title=" ">
<polygon fill="white" stroke="#666666" points="368.75,-256.5 205,-256.5 205,-223 368.75,-223 368.75,-256.5"/>
<text text-anchor="start" x="213" y="-243" font-family="Helvetica,sans-Serif" font-size="10.00">sisi4s::FiniteSizeCorrection</text>
<text text-anchor="middle" x="286.88" y="-230.25" font-family="Helvetica,sans-Serif" font-size="10.00">::calculateFiniteSizeCorrection</text>
</a>
</g>
</g>
<!-- Node2&#45;&gt;Node3 -->
<g id="edge2_Node000002_Node000003" class="edge">
<title>Node2&#45;&gt;Node3</title>
<g id="a_edge2_Node000002_Node000003"><a xlink:title=" ">
<path fill="none" stroke="#63b8ff" d="M406.94,-249.42C394.53,-248.41 381.67,-247.37 369.18,-246.35"/>
<polygon fill="#63b8ff" stroke="#63b8ff" points="406.42,-252.89 416.67,-250.21 406.99,-245.91 406.42,-252.89"/>
</a>
</g>
</g>
<!-- Node5 -->
<g id="Node000005" class="node">
<title>Node5</title>
<g id="a_Node000005"><a xlink:href="classsisi4s_1_1FiniteSizeCorrection.html#a0b0230201e4d274b939c205e3f0464f5" target="_top" xlink:title=" ">
<polygon fill="white" stroke="#666666" points="360.5,-308.5 213.25,-308.5 213.25,-275 360.5,-275 360.5,-308.5"/>
<text text-anchor="start" x="221.25" y="-295" font-family="Helvetica,sans-Serif" font-size="10.00">sisi4s::FiniteSizeCorrection</text>
<text text-anchor="middle" x="286.88" y="-282.25" font-family="Helvetica,sans-Serif" font-size="10.00">::SGxVG</text>
</a>
</g>
</g>
<!-- Node2&#45;&gt;Node5 -->
<g id="edge4_Node000002_Node000005" class="edge">
<title>Node2&#45;&gt;Node5</title>
<g id="a_edge4_Node000002_Node000005"><a xlink:title=" ">
<path fill="none" stroke="#63b8ff" d="M414.28,-268.65C396.88,-271.83 378.21,-275.24 360.71,-278.44"/>
<polygon fill="#63b8ff" stroke="#63b8ff" points="414.8,-272.11 424.01,-266.87 413.55,-265.23 414.8,-272.11"/>
</a>
</g>
</g>
<!-- Node4 -->
<g id="Node000004" class="node">
<title>Node4</title>
<g id="a_Node000004"><a xlink:href="classsisi4s_1_1FiniteSizeCorrection.html#a8a7b438545c815dc93309d16208128de" target="_top" xlink:title="Calculates the finite size correction.">
<polygon fill="white" stroke="#666666" points="169,-224.12 0,-224.12 0,-203.38 169,-203.38 169,-224.12"/>
<text text-anchor="middle" x="84.5" y="-210.62" font-family="Helvetica,sans-Serif" font-size="10.00">sisi4s::FiniteSizeCorrection::run</text>
</a>
</g>
</g>
<!-- Node3&#45;&gt;Node4 -->
<g id="edge3_Node000003_Node000004" class="edge">
<title>Node3&#45;&gt;Node4</title>
<g id="a_edge3_Node000003_Node000004"><a xlink:title=" ">
<path fill="none" stroke="#63b8ff" d="M193.32,-227.74C185.24,-226.69 177.1,-225.64 169.11,-224.6"/>
<polygon fill="#63b8ff" stroke="#63b8ff" points="192.8,-231.2 203.16,-229.02 193.7,-224.26 192.8,-231.2"/>
</a>
</g>
</g>
<!-- Node6 -->
<g id="Node000006" class="node">
<title>Node6</title>
<g id="a_Node000006"><a xlink:href="classsisi4s_1_1FiniteSizeCorrection.html#a8e228d06ce5699114b77698c9c0ddbee" target="_top" xlink:title=" ">
<polygon fill="white" stroke="#666666" points="158.12,-308.5 10.88,-308.5 10.88,-275 158.12,-275 158.12,-308.5"/>
<text text-anchor="start" x="18.88" y="-295" font-family="Helvetica,sans-Serif" font-size="10.00">sisi4s::FiniteSizeCorrection</text>
<text text-anchor="middle" x="84.5" y="-282.25" font-family="Helvetica,sans-Serif" font-size="10.00">::simpson</text>
</a>
</g>
</g>
<!-- Node5&#45;&gt;Node6 -->
<g id="edge5_Node000005_Node000006" class="edge">
<title>Node5&#45;&gt;Node6</title>
<g id="a_edge5_Node000005_Node000006"><a xlink:title=" ">
<path fill="none" stroke="#63b8ff" d="M201.57,-291.75C187.2,-291.75 172.39,-291.75 158.35,-291.75"/>
<polygon fill="#63b8ff" stroke="#63b8ff" points="201.45,-295.25 211.45,-291.75 201.45,-288.25 201.45,-295.25"/>
</a>
</g>
</g>
<!-- Node7&#45;&gt;Node4 -->
<g id="edge7_Node000007_Node000004" class="edge">
<title>Node7&#45;&gt;Node4</title>
<g id="a_edge7_Node000007_Node000004"><a xlink:title=" ">
<path fill="none" stroke="#63b8ff" d="M201.84,-198.65C191.05,-200.05 180.01,-201.49 169.22,-202.89"/>
<polygon fill="#63b8ff" stroke="#63b8ff" points="202,-202.16 211.47,-197.4 201.1,-195.22 202,-202.16"/>
</a>
</g>
</g>
<!-- Node8&#45;&gt;Node7 -->
<g id="edge9_Node000008_Node000007" class="edge">
<title>Node8&#45;&gt;Node7</title>
<g id="a_edge9_Node000008_Node000007"><a xlink:title=" ">
<path fill="none" stroke="#63b8ff" d="M400.35,-179.19C387.2,-180.19 373.7,-181.21 360.83,-182.19"/>
<polygon fill="#63b8ff" stroke="#63b8ff" points="400.58,-182.68 410.29,-178.43 400.05,-175.7 400.58,-182.68"/>
</a>
</g>
</g>
</g>
</svg>
