<?xml version="1.0" encoding="UTF-8" standalone="no"?>
<!DOCTYPE svg PUBLIC "-//W3C//DTD SVG 1.1//EN"
 "http://www.w3.org/Graphics/SVG/1.1/DTD/svg11.dtd">
<!-- Generated by graphviz version 8.1.0 (0)
 -->
<!-- Title: pars::parseVector&lt; int &gt; Pages: 1 -->
<svg width="283pt" height="68pt"
 viewBox="0.00 0.00 283.00 67.75" xmlns="http://www.w3.org/2000/svg" xmlns:xlink="http://www.w3.org/1999/xlink">
<g id="graph0" class="graph" transform="scale(1 1) rotate(0) translate(4 63.75)">
<title>pars::parseVector&lt; int &gt;</title>
<!-- Node1 -->
<g id="Node000001" class="node">
<title>Node1</title>
<g id="a_Node000001"><a xlink:title=" ">
<polygon fill="#999999" stroke="#666666" points="275,-46.12 166,-46.12 166,-12.62 275,-12.62 275,-46.12"/>
<text text-anchor="start" x="174" y="-32.62" font-family="Helvetica,sans-Serif" font-size="10.00">pars::parseVector&lt;</text>
<text text-anchor="middle" x="220.5" y="-19.88" font-family="Helvetica,sans-Serif" font-size="10.00"> int &gt;</text>
</a>
</g>
</g>
<!-- Node2 -->
<g id="Node000002" class="node">
<title>Node2</title>
<g id="a_Node000002"><a xlink:href="classsisi4s_1_1MoReader.html#a379f28cce98f856ff1e9d6f26de76d29" target="_top" xlink:title=" ">
<polygon fill="white" stroke="#666666" points="125.5,-59.75 4.5,-59.75 4.5,-39 125.5,-39 125.5,-59.75"/>
<text text-anchor="middle" x="65" y="-46.25" font-family="Helvetica,sans-Serif" font-size="10.00">sisi4s::MoReader::run</text>
</a>
</g>
</g>
<!-- Node1&#45;&gt;Node2 -->
<g id="edge1_Node000001_Node000002" class="edge">
<title>Node1&#45;&gt;Node2</title>
<g id="a_edge1_Node000001_Node000002"><a xlink:title=" ">
<path fill="none" stroke="#63b8ff" d="M155.07,-37.77C145.42,-39.03 135.5,-40.32 125.95,-41.56"/>
<polygon fill="#63b8ff" stroke="#63b8ff" points="155.35,-41.13 164.81,-36.37 154.44,-34.19 155.35,-41.13"/>
</a>
</g>
</g>
<!-- Node3 -->
<g id="Node000003" class="node">
<title>Node3</title>
<g id="a_Node000003"><a xlink:href="structsisi4s_1_1TensorSlicer.html#a2a5a3ba1ccb504d6bc5e7b0799ee85a7" target="_top" xlink:title=" ">
<polygon fill="white" stroke="#666666" points="130,-20.75 0,-20.75 0,0 130,0 130,-20.75"/>
<text text-anchor="middle" x="65" y="-7.25" font-family="Helvetica,sans-Serif" font-size="10.00">sisi4s::TensorSlicer::run</text>
</a>
</g>
</g>
<!-- Node1&#45;&gt;Node3 -->
<g id="edge2_Node000001_Node000003" class="edge">
<title>Node1&#45;&gt;Node3</title>
<g id="a_edge2_Node000001_Node000003"><a xlink:title=" ">
<path fill="none" stroke="#63b8ff" d="M154.93,-21.38C146.84,-20.38 138.56,-19.36 130.47,-18.36"/>
<polygon fill="#63b8ff" stroke="#63b8ff" points="154.46,-24.97 164.81,-22.73 155.32,-18.03 154.46,-24.97"/>
</a>
</g>
</g>
</g>
</svg>
