<?xml version="1.0" encoding="UTF-8" standalone="no"?>
<!DOCTYPE svg PUBLIC "-//W3C//DTD SVG 1.1//EN"
 "http://www.w3.org/Graphics/SVG/1.1/DTD/svg11.dtd">
<!-- Generated by graphviz version 8.1.0 (0)
 -->
<!-- Title: CLI::deprecate_option Pages: 1 -->
<svg width="288pt" height="68pt"
 viewBox="0.00 0.00 287.50 67.75" xmlns="http://www.w3.org/2000/svg" xmlns:xlink="http://www.w3.org/1999/xlink">
<g id="graph0" class="graph" transform="scale(1 1) rotate(0) translate(4 63.75)">
<title>CLI::deprecate_option</title>
<!-- Node1 -->
<g id="Node000001" class="node">
<title>Node1</title>
<g id="a_Node000001"><a xlink:title="Helper function to mark an option as deprecated.">
<polygon fill="#999999" stroke="#666666" points="279.5,-39.75 157.75,-39.75 157.75,-19 279.5,-19 279.5,-39.75"/>
<text text-anchor="middle" x="218.62" y="-26.25" font-family="Helvetica,sans-Serif" font-size="10.00">CLI::deprecate_option</text>
</a>
</g>
</g>
<!-- Node2 -->
<g id="Node000002" class="node">
<title>Node2</title>
<g id="a_Node000002"><a xlink:href="namespaceCLI.html#a5e83d92a6ec271c2439141feaede1136" target="_top" xlink:title="Helper function to mark an option as deprecated.">
<polygon fill="white" stroke="#666666" points="121.75,-59.75 0,-59.75 0,-39 121.75,-39 121.75,-59.75"/>
<text text-anchor="middle" x="60.88" y="-46.25" font-family="Helvetica,sans-Serif" font-size="10.00">CLI::deprecate_option</text>
</a>
</g>
</g>
<!-- Node1&#45;&gt;Node2 -->
<g id="edge1_Node000001_Node000002" class="edge">
<title>Node1&#45;&gt;Node2</title>
<g id="a_edge1_Node000001_Node000002"><a xlink:title=" ">
<path fill="none" stroke="#63b8ff" d="M146.72,-38.48C138.53,-39.53 130.23,-40.6 122.19,-41.63"/>
<polygon fill="#63b8ff" stroke="#63b8ff" points="146.94,-41.85 156.41,-37.11 146.04,-34.91 146.94,-41.85"/>
</a>
</g>
</g>
<!-- Node3 -->
<g id="Node000003" class="node">
<title>Node3</title>
<g id="a_Node000003"><a xlink:href="namespaceCLI.html#ad6d89b5d1aba2ebdca5f94534d658cab" target="_top" xlink:title="Helper function to mark an option as deprecated.">
<polygon fill="white" stroke="#666666" points="121.75,-20.75 0,-20.75 0,0 121.75,0 121.75,-20.75"/>
<text text-anchor="middle" x="60.88" y="-7.25" font-family="Helvetica,sans-Serif" font-size="10.00">CLI::deprecate_option</text>
</a>
</g>
</g>
<!-- Node1&#45;&gt;Node3 -->
<g id="edge2_Node000001_Node000003" class="edge">
<title>Node1&#45;&gt;Node3</title>
<g id="a_edge2_Node000001_Node000003"><a xlink:title=" ">
<path fill="none" stroke="#63b8ff" d="M146.72,-20.73C138.53,-19.73 130.23,-18.71 122.19,-17.73"/>
<polygon fill="#63b8ff" stroke="#63b8ff" points="146.06,-24.29 156.41,-22.03 146.91,-17.34 146.06,-24.29"/>
</a>
</g>
</g>
</g>
</svg>
