<?xml version="1.0" encoding="UTF-8" standalone="no"?>
<!DOCTYPE svg PUBLIC "-//W3C//DTD SVG 1.1//EN"
 "http://www.w3.org/Graphics/SVG/1.1/DTD/svg11.dtd">
<!-- Generated by graphviz version 5.0.1 (0)
 -->
<!-- Title: sisi4s::dryContractWithCanonicalPolyadicDecompositionTensors Pages: 1 -->
<svg width="857pt" height="88pt"
 viewBox="0.00 0.00 857.00 88.00" xmlns="http://www.w3.org/2000/svg" xmlns:xlink="http://www.w3.org/1999/xlink">
<g id="graph0" class="graph" transform="scale(1 1) rotate(0) translate(4 84)">
<title>sisi4s::dryContractWithCanonicalPolyadicDecompositionTensors</title>
<!-- Node1 -->
<g id="node1" class="node">
<title>Node1</title>
<g id="a_node1"><a xlink:title="Performs a dry run of the calculation &#160;using a contraction order with minimal memory footprint.">
<polygon fill="#bfbfbf" stroke="black" points="671,-24.5 671,-54.5 849,-54.5 849,-24.5 671,-24.5"/>
<text text-anchor="start" x="679" y="-42.5" font-family="Helvetica,sans-Serif" font-size="10.00">sisi4s::dryContractWithCanonical</text>
<text text-anchor="middle" x="760" y="-31.5" font-family="Helvetica,sans-Serif" font-size="10.00">PolyadicDecompositionTensors</text>
</a>
</g>
</g>
<!-- Node2 -->
<g id="node2" class="node">
<title>Node2</title>
<g id="a_node2"><a xlink:href="namespacesisi4s.html#a7e043fcaaf8e99a86eb9920cf43cc228" target="_top" xlink:title=" ">
<polygon fill="none" stroke="black" points="470,-24.5 470,-54.5 635,-54.5 635,-24.5 470,-24.5"/>
<text text-anchor="start" x="478" y="-42.5" font-family="Helvetica,sans-Serif" font-size="10.00">sisi4s::dryFitRegularized</text>
<text text-anchor="middle" x="552.5" y="-31.5" font-family="Helvetica,sans-Serif" font-size="10.00">AlternatingLeastSquaresFactor</text>
</a>
</g>
</g>
<!-- Node1&#45;&gt;Node2 -->
<g id="edge1" class="edge">
<title>Node1&#45;&gt;Node2</title>
<path fill="none" stroke="midnightblue" d="M660.89,-39.5C652.28,-39.5 643.63,-39.5 635.18,-39.5"/>
<polygon fill="midnightblue" stroke="midnightblue" points="660.96,-43 670.96,-39.5 660.96,-36 660.96,-43"/>
</g>
<!-- Node3 -->
<g id="node3" class="node">
<title>Node3</title>
<g id="a_node3"><a xlink:href="classsisi4s_1_1ParticleHoleCoulombVertexDecomposition.html#a1d7aed53263c884eccb9c64c0cfcfd0a" target="_top" xlink:title="Performs a dry run of one iteration in fitting the factor orbitals and the Coulomb factors according ...">
<polygon fill="none" stroke="black" points="257,-49.5 257,-79.5 412,-79.5 412,-49.5 257,-49.5"/>
<text text-anchor="start" x="265" y="-67.5" font-family="Helvetica,sans-Serif" font-size="10.00">sisi4s::ParticleHoleCoulomb</text>
<text text-anchor="middle" x="334.5" y="-56.5" font-family="Helvetica,sans-Serif" font-size="10.00">VertexDecomposition::dryFit</text>
</a>
</g>
</g>
<!-- Node2&#45;&gt;Node3 -->
<g id="edge2" class="edge">
<title>Node2&#45;&gt;Node3</title>
<path fill="none" stroke="midnightblue" d="M459.57,-50.14C443.81,-51.96 427.59,-53.84 412.29,-55.61"/>
<polygon fill="midnightblue" stroke="midnightblue" points="460.31,-53.58 469.84,-48.95 459.5,-46.62 460.31,-53.58"/>
</g>
<!-- Node5 -->
<g id="node5" class="node">
<title>Node5</title>
<g id="a_node5"><a xlink:href="classsisi4s_1_1CoulombVertexDecomposition.html#ada47c641a50e19ac728504e718bac626" target="_top" xlink:title="Performs a dry run of one iteration in fitting the factor orbitals and the Coulomb factors according ...">
<polygon fill="none" stroke="black" points="235,-0.5 235,-30.5 434,-30.5 434,-0.5 235,-0.5"/>
<text text-anchor="start" x="243" y="-18.5" font-family="Helvetica,sans-Serif" font-size="10.00">sisi4s::CoulombVertexDecomposition</text>
<text text-anchor="middle" x="334.5" y="-7.5" font-family="Helvetica,sans-Serif" font-size="10.00">::dryFit</text>
</a>
</g>
</g>
<!-- Node2&#45;&gt;Node5 -->
<g id="edge4" class="edge">
<title>Node2&#45;&gt;Node5</title>
<path fill="none" stroke="midnightblue" d="M459.7,-29.3C451.32,-28.37 442.8,-27.42 434.36,-26.48"/>
<polygon fill="midnightblue" stroke="midnightblue" points="459.51,-32.8 469.84,-30.43 460.29,-25.84 459.51,-32.8"/>
</g>
<!-- Node4 -->
<g id="node4" class="node">
<title>Node4</title>
<g id="a_node4"><a xlink:href="classsisi4s_1_1ParticleHoleCoulombVertexDecomposition.html#a40fbdeb633e7771f3ef19466965f8000" target="_top" xlink:title="The dryRun estimates resource consumption, especially memory and processor time.">
<polygon fill="none" stroke="black" points="18.5,-49.5 18.5,-79.5 180.5,-79.5 180.5,-49.5 18.5,-49.5"/>
<text text-anchor="start" x="26.5" y="-67.5" font-family="Helvetica,sans-Serif" font-size="10.00">sisi4s::ParticleHoleCoulomb</text>
<text text-anchor="middle" x="99.5" y="-56.5" font-family="Helvetica,sans-Serif" font-size="10.00">VertexDecomposition::dryRun</text>
</a>
</g>
</g>
<!-- Node3&#45;&gt;Node4 -->
<g id="edge3" class="edge">
<title>Node3&#45;&gt;Node4</title>
<path fill="none" stroke="midnightblue" d="M246.74,-64.5C225.12,-64.5 202.05,-64.5 180.76,-64.5"/>
<polygon fill="midnightblue" stroke="midnightblue" points="246.88,-68 256.88,-64.5 246.88,-61 246.88,-68"/>
</g>
<!-- Node6 -->
<g id="node6" class="node">
<title>Node6</title>
<g id="a_node6"><a xlink:href="classsisi4s_1_1CoulombVertexDecomposition.html#afe2db43c1a0ebdd3b494fafa105641d4" target="_top" xlink:title="The dryRun estimates resource consumption, especially memory and processor time.">
<polygon fill="none" stroke="black" points="0,-0.5 0,-30.5 199,-30.5 199,-0.5 0,-0.5"/>
<text text-anchor="start" x="8" y="-18.5" font-family="Helvetica,sans-Serif" font-size="10.00">sisi4s::CoulombVertexDecomposition</text>
<text text-anchor="middle" x="99.5" y="-7.5" font-family="Helvetica,sans-Serif" font-size="10.00">::dryRun</text>
</a>
</g>
</g>
<!-- Node5&#45;&gt;Node6 -->
<g id="edge5" class="edge">
<title>Node5&#45;&gt;Node6</title>
<path fill="none" stroke="midnightblue" d="M224.42,-15.5C215.97,-15.5 207.47,-15.5 199.09,-15.5"/>
<polygon fill="midnightblue" stroke="midnightblue" points="224.69,-19 234.69,-15.5 224.69,-12 224.69,-19"/>
</g>
</g>
</svg>
