<?xml version="1.0" encoding="UTF-8" standalone="no"?>
<!DOCTYPE svg PUBLIC "-//W3C//DTD SVG 1.1//EN"
 "http://www.w3.org/Graphics/SVG/1.1/DTD/svg11.dtd">
<!-- Generated by graphviz version 8.1.0 (0)
 -->
<!-- Title: sisi4s::fitAlternatingLeastSquaresFactor Pages: 1 -->
<svg width="888pt" height="42pt"
 viewBox="0.00 0.00 888.00 41.50" xmlns="http://www.w3.org/2000/svg" xmlns:xlink="http://www.w3.org/1999/xlink">
<g id="graph0" class="graph" transform="scale(1 1) rotate(0) translate(4 37.5)">
<title>sisi4s::fitAlternatingLeastSquaresFactor</title>
<!-- Node1 -->
<g id="Node000001" class="node">
<title>Node1</title>
<g id="a_Node000001"><a xlink:title=" ">
<polygon fill="#999999" stroke="#666666" points="880,-33.5 740.25,-33.5 740.25,0 880,0 880,-33.5"/>
<text text-anchor="start" x="748.25" y="-20" font-family="Helvetica,sans-Serif" font-size="10.00">sisi4s::fitAlternatingLeast</text>
<text text-anchor="middle" x="810.12" y="-7.25" font-family="Helvetica,sans-Serif" font-size="10.00">SquaresFactor</text>
</a>
</g>
</g>
<!-- Node2 -->
<g id="Node000002" class="node">
<title>Node2</title>
<g id="a_Node000002"><a xlink:href="classsisi4s_1_1CoulombVertexDecomposition.html#a9bad578c327384b5b48a0c98a907cded" target="_top" xlink:title="Solves the quadratically occurring factor Pi iteratively similar to the Babylonian algorithm.">
<polygon fill="white" stroke="#666666" points="704.25,-33.5 506,-33.5 506,0 704.25,0 704.25,-33.5"/>
<text text-anchor="start" x="514" y="-20" font-family="Helvetica,sans-Serif" font-size="10.00">sisi4s::CoulombVertexDecomposition</text>
<text text-anchor="middle" x="605.12" y="-7.25" font-family="Helvetica,sans-Serif" font-size="10.00">::iterateQuadraticFactor</text>
</a>
</g>
</g>
<!-- Node1&#45;&gt;Node2 -->
<g id="edge1_Node000001_Node000002" class="edge">
<title>Node1&#45;&gt;Node2</title>
<g id="a_edge1_Node000001_Node000002"><a xlink:title=" ">
<path fill="none" stroke="#63b8ff" d="M729.02,-16.75C720.98,-16.75 712.76,-16.75 704.57,-16.75"/>
<polygon fill="#63b8ff" stroke="#63b8ff" points="728.83,-20.25 738.83,-16.75 728.83,-13.25 728.83,-20.25"/>
</a>
</g>
</g>
<!-- Node3 -->
<g id="Node000003" class="node">
<title>Node3</title>
<g id="a_Node000003"><a xlink:href="classsisi4s_1_1CoulombVertexDecomposition.html#acd985462c04c09ccd03c9b85aeff652a" target="_top" xlink:title="Performs one iteration in fitting the factor orbitals and the Coulomb factors according to the given ...">
<polygon fill="white" stroke="#666666" points="470,-27.12 256,-27.12 256,-6.38 470,-6.38 470,-27.12"/>
<text text-anchor="middle" x="363" y="-13.62" font-family="Helvetica,sans-Serif" font-size="10.00">sisi4s::CoulombVertexDecomposition::fit</text>
</a>
</g>
</g>
<!-- Node2&#45;&gt;Node3 -->
<g id="edge2_Node000002_Node000003" class="edge">
<title>Node2&#45;&gt;Node3</title>
<g id="a_edge2_Node000002_Node000003"><a xlink:title=" ">
<path fill="none" stroke="#63b8ff" d="M494.77,-16.75C486.66,-16.75 478.49,-16.75 470.41,-16.75"/>
<polygon fill="#63b8ff" stroke="#63b8ff" points="494.76,-20.25 504.76,-16.75 494.76,-13.25 494.76,-20.25"/>
</a>
</g>
</g>
<!-- Node4 -->
<g id="Node000004" class="node">
<title>Node4</title>
<g id="a_Node000004"><a xlink:href="classsisi4s_1_1CoulombVertexDecomposition.html#accb34639975cd2eed1188f32d3f239ff" target="_top" xlink:title=" ">
<polygon fill="white" stroke="#666666" points="220,-27.12 0,-27.12 0,-6.38 220,-6.38 220,-27.12"/>
<text text-anchor="middle" x="110" y="-13.62" font-family="Helvetica,sans-Serif" font-size="10.00">sisi4s::CoulombVertexDecomposition::run</text>
</a>
</g>
</g>
<!-- Node3&#45;&gt;Node4 -->
<g id="edge3_Node000003_Node000004" class="edge">
<title>Node3&#45;&gt;Node4</title>
<g id="a_edge3_Node000003_Node000004"><a xlink:title=" ">
<path fill="none" stroke="#63b8ff" d="M244.6,-16.75C236.54,-16.75 228.44,-16.75 220.42,-16.75"/>
<polygon fill="#63b8ff" stroke="#63b8ff" points="244.55,-20.25 254.55,-16.75 244.55,-13.25 244.55,-20.25"/>
</a>
</g>
</g>
</g>
</svg>
