<?xml version="1.0" encoding="UTF-8" standalone="no"?>
<!DOCTYPE svg PUBLIC "-//W3C//DTD SVG 1.1//EN"
 "http://www.w3.org/Graphics/SVG/1.1/DTD/svg11.dtd">
<!-- Generated by graphviz version 7.0.0 (0)
 -->
<!-- Title: sisi4s::conj Pages: 1 -->
<svg width="1003pt" height="279pt"
 viewBox="0.00 0.00 1003.00 279.00" xmlns="http://www.w3.org/2000/svg" xmlns:xlink="http://www.w3.org/1999/xlink">
<g id="graph0" class="graph" transform="scale(1 1) rotate(0) translate(4 275)">
<title>sisi4s::conj</title>
<!-- Node1 -->
<g id="node1" class="node">
<title>Node1</title>
<g id="a_node1"><a xlink:title=" ">
<polygon fill="#999999" stroke="#666666" points="995,-96.5 924,-96.5 924,-77.5 995,-77.5 995,-96.5"/>
<text text-anchor="middle" x="959.5" y="-84.5" font-family="Helvetica,sans-Serif" font-size="10.00">sisi4s::conj</text>
</a>
</g>
</g>
<!-- Node2 -->
<g id="node2" class="node">
<title>Node2</title>
<g id="a_node2"><a xlink:href="namespacesisi4s.html#a92d239b67d4a13717f4e7f93ad9591f2" target="_top" xlink:title=" ">
<polygon fill="white" stroke="#666666" points="878,-115.5 812,-115.5 812,-96.5 878,-96.5 878,-115.5"/>
<text text-anchor="middle" x="845" y="-103.5" font-family="Helvetica,sans-Serif" font-size="10.00">sisi4s::dot</text>
</a>
</g>
</g>
<!-- Node1&#45;&gt;Node2 -->
<g id="edge1" class="edge">
<title>Node1&#45;&gt;Node2</title>
<path fill="none" stroke="#63b8ff" d="M912.35,-94.79C900.91,-96.73 888.89,-98.76 878.28,-100.55"/>
<polygon fill="#63b8ff" stroke="#63b8ff" points="912.75,-98.28 922.03,-93.16 911.59,-91.37 912.75,-98.28"/>
</g>
<!-- Node17 -->
<g id="node17" class="node">
<title>Node17</title>
<g id="a_node17"><a xlink:href="namespacesisi4s.html#a9fa5b3be804515448387f0d0a362aee4" target="_top" xlink:title="Calculates only the real part of x*conj(y).">
<polygon fill="white" stroke="#666666" points="888,-78.5 802,-78.5 802,-59.5 888,-59.5 888,-78.5"/>
<text text-anchor="middle" x="845" y="-66.5" font-family="Helvetica,sans-Serif" font-size="10.00">sisi4s::realDot</text>
</a>
</g>
</g>
<!-- Node1&#45;&gt;Node17 -->
<g id="edge19" class="edge">
<title>Node1&#45;&gt;Node17</title>
<path fill="none" stroke="#63b8ff" d="M912.26,-79.6C904.39,-78.34 896.24,-77.04 888.48,-75.8"/>
<polygon fill="#63b8ff" stroke="#63b8ff" points="911.6,-83.04 922.03,-81.16 912.71,-76.13 911.6,-83.04"/>
</g>
<!-- Node3 -->
<g id="node3" class="node">
<title>Node3</title>
<g id="a_node3"><a xlink:href="classsisi4s_1_1DiisMixer.html#aeb57aba18a31947900185a6ca031277a" target="_top" xlink:title="Appends the given pair (A,R) of FockVectors to the mixer, where R is the residuum when using the ampl...">
<polygon fill="white" stroke="#666666" points="737,-221 635,-221 635,-191 737,-191 737,-221"/>
<text text-anchor="start" x="643" y="-209" font-family="Helvetica,sans-Serif" font-size="10.00">sisi4s::DiisMixer::</text>
<text text-anchor="middle" x="686" y="-198" font-family="Helvetica,sans-Serif" font-size="10.00">append</text>
</a>
</g>
</g>
<!-- Node2&#45;&gt;Node3 -->
<g id="edge2" class="edge">
<title>Node2&#45;&gt;Node3</title>
<path fill="none" stroke="#63b8ff" d="M829.48,-124.55C815.08,-141.76 791.55,-166.91 766,-182 757.24,-187.18 747.26,-191.33 737.41,-194.63"/>
<polygon fill="#63b8ff" stroke="#63b8ff" points="831.94,-127.07 835.53,-117.1 826.51,-122.66 831.94,-127.07"/>
</g>
<!-- Node4 -->
<g id="node4" class="node">
<title>Node4</title>
<g id="a_node4"><a xlink:href="classsisi4s_1_1Vector.html#a8d8a0dd7fa816afad751865285eec6be" target="_top" xlink:title=" ">
<polygon fill="white" stroke="#666666" points="737.5,-172.5 634.5,-172.5 634.5,-153.5 737.5,-153.5 737.5,-172.5"/>
<text text-anchor="middle" x="686" y="-160.5" font-family="Helvetica,sans-Serif" font-size="10.00">sisi4s::Vector::dot</text>
</a>
</g>
</g>
<!-- Node2&#45;&gt;Node4 -->
<g id="edge3" class="edge">
<title>Node2&#45;&gt;Node4</title>
<path fill="none" stroke="#63b8ff" d="M805.94,-119.82C777.62,-130.1 739.64,-143.89 714.3,-153.09"/>
<polygon fill="#63b8ff" stroke="#63b8ff" points="807.02,-123.15 815.23,-116.45 804.64,-116.57 807.02,-123.15"/>
</g>
<!-- Node8 -->
<g id="node8" class="node">
<title>Node8</title>
<g id="a_node8"><a xlink:href="classsisi4s_1_1FiniteSizeCorrection.html#a1263e86e1cfbd0547e5198c46c6eac51" target="_top" xlink:title=" ">
<polygon fill="white" stroke="#666666" points="368,-125 220,-125 220,-95 368,-95 368,-125"/>
<text text-anchor="start" x="228" y="-113" font-family="Helvetica,sans-Serif" font-size="10.00">sisi4s::FiniteSizeCorrection</text>
<text text-anchor="middle" x="294" y="-102" font-family="Helvetica,sans-Serif" font-size="10.00">::interpolation3D</text>
</a>
</g>
</g>
<!-- Node2&#45;&gt;Node8 -->
<g id="edge14" class="edge">
<title>Node2&#45;&gt;Node8</title>
<path fill="none" stroke="#63b8ff" d="M800.37,-106.32C706.42,-107 484.07,-108.62 368.16,-109.47"/>
<polygon fill="#63b8ff" stroke="#63b8ff" points="800.22,-109.82 810.19,-106.25 800.17,-102.82 800.22,-109.82"/>
</g>
<!-- Node14 -->
<g id="node14" class="node">
<title>Node14</title>
<g id="a_node14"><a xlink:href="classsisi4s_1_1FiniteSizeCorrection.html#a5debe508e1f3f2713edc13d922058da1" target="_top" xlink:title=" ">
<polygon fill="white" stroke="#666666" points="760,-78 612,-78 612,-48 760,-48 760,-78"/>
<text text-anchor="start" x="620" y="-66" font-family="Helvetica,sans-Serif" font-size="10.00">sisi4s::FiniteSizeCorrection</text>
<text text-anchor="middle" x="686" y="-55" font-family="Helvetica,sans-Serif" font-size="10.00">::IsInSmallBZ</text>
</a>
</g>
</g>
<!-- Node2&#45;&gt;Node14 -->
<g id="edge15" class="edge">
<title>Node2&#45;&gt;Node14</title>
<path fill="none" stroke="#63b8ff" d="M800.98,-94.22C783.26,-89.36 762.49,-83.67 743.56,-78.49"/>
<polygon fill="#63b8ff" stroke="#63b8ff" points="799.82,-97.53 810.39,-96.79 801.67,-90.78 799.82,-97.53"/>
</g>
<!-- Node15 -->
<g id="node15" class="node">
<title>Node15</title>
<g id="a_node15"><a xlink:href="classsisi4s_1_1EigenSystemDavidsonMono.html#ae374662234b193df4dbfadedbce69beb" target="_top" xlink:title=" ">
<polygon fill="white" stroke="#666666" points="766,-30 606,-30 606,0 766,0 766,-30"/>
<text text-anchor="start" x="614" y="-18" font-family="Helvetica,sans-Serif" font-size="10.00">sisi4s::EigenSystemDavidson</text>
<text text-anchor="middle" x="686" y="-7" font-family="Helvetica,sans-Serif" font-size="10.00">Mono::run</text>
</a>
</g>
</g>
<!-- Node2&#45;&gt;Node15 -->
<g id="edge17" class="edge">
<title>Node2&#45;&gt;Node15</title>
<path fill="none" stroke="#63b8ff" d="M805.49,-90.56C804.29,-89.74 803.12,-88.89 802,-88 780.84,-71.2 788.06,-54.61 766,-39 761.32,-35.69 756.17,-32.82 750.82,-30.35"/>
<polygon fill="#63b8ff" stroke="#63b8ff" points="803.54,-93.47 813.96,-95.39 807.01,-87.39 803.54,-93.47"/>
</g>
<!-- Node5 -->
<g id="node5" class="node">
<title>Node5</title>
<g id="a_node5"><a xlink:href="classsisi4s_1_1Vector.html#a870d78ed4c66ea4465255c6ad9d3ff7e" target="_top" xlink:title=" ">
<polygon fill="white" stroke="#666666" points="568.5,-265.5 410.5,-265.5 410.5,-246.5 568.5,-246.5 568.5,-265.5"/>
<text text-anchor="middle" x="489.5" y="-253.5" font-family="Helvetica,sans-Serif" font-size="10.00">sisi4s::Vector::approximately</text>
</a>
</g>
</g>
<!-- Node4&#45;&gt;Node5 -->
<g id="edge4" class="edge">
<title>Node4&#45;&gt;Node5</title>
<path fill="none" stroke="#63b8ff" d="M623.46,-172.77C617.26,-175.2 611.3,-178.23 606,-182 581.88,-199.14 594.23,-221.02 570,-238 565.36,-241.25 560.24,-243.92 554.88,-246.12"/>
<polygon fill="#63b8ff" stroke="#63b8ff" points="624.26,-176.2 632.63,-169.7 622.03,-169.56 624.26,-176.2"/>
</g>
<!-- Node7 -->
<g id="node7" class="node">
<title>Node7</title>
<g id="a_node7"><a xlink:href="classsisi4s_1_1Vector.html#ab43048a9eee60f5064956c080acba338" target="_top" xlink:title=" ">
<polygon fill="white" stroke="#666666" points="553.5,-228.5 425.5,-228.5 425.5,-209.5 553.5,-209.5 553.5,-228.5"/>
<text text-anchor="middle" x="489.5" y="-216.5" font-family="Helvetica,sans-Serif" font-size="10.00">sisi4s::Vector::distance</text>
</a>
</g>
</g>
<!-- Node4&#45;&gt;Node7 -->
<g id="edge6" class="edge">
<title>Node4&#45;&gt;Node7</title>
<path fill="none" stroke="#63b8ff" d="M624.04,-176.03C617.88,-177.83 611.77,-179.82 606,-182 589.07,-188.39 586.97,-194.73 570,-201 561.64,-204.09 552.58,-206.75 543.67,-209.01"/>
<polygon fill="#63b8ff" stroke="#63b8ff" points="624.94,-179.41 633.66,-173.39 623.09,-172.66 624.94,-179.41"/>
</g>
<!-- Node4&#45;&gt;Node8 -->
<g id="edge7" class="edge">
<title>Node4&#45;&gt;Node8</title>
<path fill="none" stroke="#63b8ff" d="M622.86,-154.56C553.61,-145.14 441.75,-129.94 368.29,-119.96"/>
<polygon fill="#63b8ff" stroke="#63b8ff" points="622.13,-157.99 632.51,-155.87 623.08,-151.05 622.13,-157.99"/>
</g>
<!-- Node10 -->
<g id="node10" class="node">
<title>Node10</title>
<g id="a_node10"><a xlink:href="classsisi4s_1_1Vector.html#a136ec801253ede3aa5c4b20b16951230" target="_top" xlink:title=" ">
<polygon fill="white" stroke="#666666" points="548.5,-191.5 430.5,-191.5 430.5,-172.5 548.5,-172.5 548.5,-191.5"/>
<text text-anchor="middle" x="489.5" y="-179.5" font-family="Helvetica,sans-Serif" font-size="10.00">sisi4s::Vector::length</text>
</a>
</g>
</g>
<!-- Node4&#45;&gt;Node10 -->
<g id="edge9" class="edge">
<title>Node4&#45;&gt;Node10</title>
<path fill="none" stroke="#63b8ff" d="M622.82,-169.07C599.15,-171.39 572.28,-174.01 548.97,-176.29"/>
<polygon fill="#63b8ff" stroke="#63b8ff" points="623.03,-172.57 632.65,-168.11 622.35,-165.6 623.03,-172.57"/>
</g>
<!-- Node6 -->
<g id="node6" class="node">
<title>Node6</title>
<g id="a_node6"><a xlink:href="classFiniteSizeCorrection_1_1Momentum.html#a37b30471d767f05cb492e1033fba0281" target="_top" xlink:title=" ">
<polygon fill="white" stroke="#666666" points="368,-271 220,-271 220,-241 368,-241 368,-271"/>
<text text-anchor="start" x="228" y="-259" font-family="Helvetica,sans-Serif" font-size="10.00">sisi4s::FiniteSizeCorrection</text>
<text text-anchor="middle" x="294" y="-248" font-family="Helvetica,sans-Serif" font-size="10.00">::Momentum::locate</text>
</a>
</g>
</g>
<!-- Node5&#45;&gt;Node6 -->
<g id="edge5" class="edge">
<title>Node5&#45;&gt;Node6</title>
<path fill="none" stroke="#63b8ff" d="M398.64,-256C388.45,-256 378.16,-256 368.22,-256"/>
<polygon fill="#63b8ff" stroke="#63b8ff" points="398.56,-259.5 408.56,-256 398.56,-252.5 398.56,-259.5"/>
</g>
<!-- Node9 -->
<g id="node9" class="node">
<title>Node9</title>
<g id="a_node9"><a xlink:href="classsisi4s_1_1FiniteSizeCorrection.html#a8a7b438545c815dc93309d16208128de" target="_top" xlink:title="Calculates the finite size correction.">
<polygon fill="white" stroke="#666666" points="174.5,-119.5 4.5,-119.5 4.5,-100.5 174.5,-100.5 174.5,-119.5"/>
<text text-anchor="middle" x="89.5" y="-107.5" font-family="Helvetica,sans-Serif" font-size="10.00">sisi4s::FiniteSizeCorrection::run</text>
</a>
</g>
</g>
<!-- Node8&#45;&gt;Node9 -->
<g id="edge8" class="edge">
<title>Node8&#45;&gt;Node9</title>
<path fill="none" stroke="#63b8ff" d="M208.26,-110C197.26,-110 185.98,-110 174.99,-110"/>
<polygon fill="#63b8ff" stroke="#63b8ff" points="208.09,-113.5 218.09,-110 208.09,-106.5 208.09,-113.5"/>
</g>
<!-- Node10&#45;&gt;Node8 -->
<g id="edge12" class="edge">
<title>Node10&#45;&gt;Node8</title>
<path fill="none" stroke="#63b8ff" d="M441.28,-168.81C430.58,-165.52 419.33,-161.84 409,-158 392.59,-151.9 389.1,-148.88 373,-142 360.08,-136.48 345.88,-130.6 333.18,-125.41"/>
<polygon fill="#63b8ff" stroke="#63b8ff" points="440.14,-172.12 450.72,-171.64 442.15,-165.41 440.14,-172.12"/>
</g>
<!-- Node11 -->
<g id="node11" class="node">
<title>Node11</title>
<g id="a_node11"><a xlink:href="classsisi4s_1_1BasisSetExtrapolation.html#a3d9834f6a2ed4100e47b32e498914129" target="_top" xlink:title=" ">
<polygon fill="white" stroke="#666666" points="373,-181 215,-181 215,-151 373,-151 373,-181"/>
<text text-anchor="start" x="223" y="-169" font-family="Helvetica,sans-Serif" font-size="10.00">sisi4s::BasisSetExtrapolation</text>
<text text-anchor="middle" x="294" y="-158" font-family="Helvetica,sans-Serif" font-size="10.00">::evaluateQGG</text>
</a>
</g>
</g>
<!-- Node10&#45;&gt;Node11 -->
<g id="edge10" class="edge">
<title>Node10&#45;&gt;Node11</title>
<path fill="none" stroke="#63b8ff" d="M419.03,-176.26C404.18,-175.03 388.39,-173.72 373.23,-172.47"/>
<polygon fill="#63b8ff" stroke="#63b8ff" points="418.42,-179.72 428.67,-177.05 419,-172.74 418.42,-179.72"/>
</g>
<!-- Node13 -->
<g id="node13" class="node">
<title>Node13</title>
<g id="a_node13"><a xlink:href="classsisi4s_1_1Vector.html#a4b15047ac7ee22a715a2a9e574e1bfae" target="_top" xlink:title=" ">
<polygon fill="white" stroke="#666666" points="370,-218.5 218,-218.5 218,-199.5 370,-199.5 370,-218.5"/>
<text text-anchor="middle" x="294" y="-206.5" font-family="Helvetica,sans-Serif" font-size="10.00">sisi4s::Vector::sortByLength</text>
</a>
</g>
</g>
<!-- Node10&#45;&gt;Node13 -->
<g id="edge13" class="edge">
<title>Node10&#45;&gt;Node13</title>
<path fill="none" stroke="#63b8ff" d="M419.15,-191.68C402.06,-194.06 383.73,-196.62 366.54,-199.02"/>
<polygon fill="#63b8ff" stroke="#63b8ff" points="419.26,-195.2 428.68,-190.35 418.29,-188.26 419.26,-195.2"/>
</g>
<!-- Node12 -->
<g id="node12" class="node">
<title>Node12</title>
<g id="a_node12"><a xlink:href="classsisi4s_1_1BasisSetExtrapolation.html#a4be31f1b32dd68c170238e340981f9dc" target="_top" xlink:title=" ">
<polygon fill="white" stroke="#666666" points="179,-175.5 0,-175.5 0,-156.5 179,-156.5 179,-175.5"/>
<text text-anchor="middle" x="89.5" y="-163.5" font-family="Helvetica,sans-Serif" font-size="10.00">sisi4s::BasisSetExtrapolation::run</text>
</a>
</g>
</g>
<!-- Node11&#45;&gt;Node12 -->
<g id="edge11" class="edge">
<title>Node11&#45;&gt;Node12</title>
<path fill="none" stroke="#63b8ff" d="M203.2,-166C195.28,-166 187.27,-166 179.37,-166"/>
<polygon fill="#63b8ff" stroke="#63b8ff" points="203.19,-169.5 213.19,-166 203.19,-162.5 203.19,-169.5"/>
</g>
<!-- Node14&#45;&gt;Node8 -->
<g id="edge16" class="edge">
<title>Node14&#45;&gt;Node8</title>
<path fill="none" stroke="#63b8ff" d="M600.27,-70.75C545.6,-76.04 473,-83.59 409,-92 395.79,-93.74 381.75,-95.78 368.2,-97.87"/>
<polygon fill="#63b8ff" stroke="#63b8ff" points="600.53,-74.25 610.15,-69.81 599.86,-67.28 600.53,-74.25"/>
</g>
<!-- Node16 -->
<g id="node16" class="node">
<title>Node16</title>
<g id="a_node16"><a xlink:href="classsisi4s_1_1CcsdEquationOfMotionDavidson.html#a418beaea4a3a3fe7cf890ba392a7d6ef" target="_top" xlink:title=" ">
<polygon fill="white" stroke="#666666" points="570,-30 409,-30 409,0 570,0 570,-30"/>
<text text-anchor="start" x="417" y="-18" font-family="Helvetica,sans-Serif" font-size="10.00">sisi4s::CcsdEquationOfMotion</text>
<text text-anchor="middle" x="489.5" y="-7" font-family="Helvetica,sans-Serif" font-size="10.00">Davidson::run</text>
</a>
</g>
</g>
<!-- Node15&#45;&gt;Node16 -->
<g id="edge18" class="edge">
<title>Node15&#45;&gt;Node16</title>
<path fill="none" stroke="#63b8ff" d="M594.32,-15C586.29,-15 578.2,-15 570.27,-15"/>
<polygon fill="#63b8ff" stroke="#63b8ff" points="594.1,-18.5 604.1,-15 594.1,-11.5 594.1,-18.5"/>
</g>
</g>
</svg>
