<?xml version="1.0" encoding="UTF-8" standalone="no"?>
<!DOCTYPE svg PUBLIC "-//W3C//DTD SVG 1.1//EN"
 "http://www.w3.org/Graphics/SVG/1.1/DTD/svg11.dtd">
<!-- Generated by graphviz version 9.0.0 (0)
 -->
<!-- Title: ghc::filesystem::detail::create_symlink Pages: 1 -->
<svg width="606pt" height="94pt"
 viewBox="0.00 0.00 606.00 93.50" xmlns="http://www.w3.org/2000/svg" xmlns:xlink="http://www.w3.org/1999/xlink">
<g id="graph0" class="graph" transform="scale(1 1) rotate(0) translate(4 89.5)">
<title>ghc::filesystem::detail::create_symlink</title>
<!-- Node1 -->
<g id="Node000001" class="node">
<title>Node1</title>
<g id="a_Node000001"><a xlink:title=" ">
<polygon fill="#999999" stroke="#666666" points="598,-59.5 474,-59.5 474,-26 598,-26 598,-59.5"/>
<text text-anchor="start" x="482" y="-46" font-family="Helvetica,sans-Serif" font-size="10.00">ghc::filesystem::detail</text>
<text text-anchor="middle" x="536" y="-33.25" font-family="Helvetica,sans-Serif" font-size="10.00">::create_symlink</text>
</a>
</g>
</g>
<!-- Node2 -->
<g id="Node000002" class="node">
<title>Node2</title>
<g id="a_Node000002"><a xlink:href="namespaceghc_1_1filesystem.html#a18afc2ba71ef8f05b6645b25d275e8f9" target="_top" xlink:title=" ">
<polygon fill="white" stroke="#666666" points="438,-85.5 311,-85.5 311,-52 438,-52 438,-85.5"/>
<text text-anchor="start" x="319" y="-72" font-family="Helvetica,sans-Serif" font-size="10.00">ghc::filesystem::create</text>
<text text-anchor="middle" x="374.5" y="-59.25" font-family="Helvetica,sans-Serif" font-size="10.00">_directory_symlink</text>
</a>
</g>
</g>
<!-- Node1&#45;&gt;Node2 -->
<g id="edge1_Node000001_Node000002" class="edge">
<title>Node1&#45;&gt;Node2</title>
<g id="a_edge1_Node000001_Node000002"><a xlink:title=" ">
<path fill="none" stroke="#63b8ff" d="M462.51,-54.57C454.46,-55.88 446.31,-57.21 438.4,-58.5"/>
<polygon fill="#63b8ff" stroke="#63b8ff" points="462.99,-58.03 472.3,-52.97 461.86,-51.13 462.99,-58.03"/>
</a>
</g>
</g>
<!-- Node5 -->
<g id="Node000005" class="node">
<title>Node5</title>
<g id="a_Node000005"><a xlink:href="namespaceghc_1_1filesystem.html#a61737ec48dcb411ac9c3b1d94fe867ed" target="_top" xlink:title=" ">
<polygon fill="white" stroke="#666666" points="438,-33.5 311,-33.5 311,0 438,0 438,-33.5"/>
<text text-anchor="start" x="319" y="-20" font-family="Helvetica,sans-Serif" font-size="10.00">ghc::filesystem::create</text>
<text text-anchor="middle" x="374.5" y="-7.25" font-family="Helvetica,sans-Serif" font-size="10.00">_symlink</text>
</a>
</g>
</g>
<!-- Node1&#45;&gt;Node5 -->
<g id="edge4_Node000001_Node000005" class="edge">
<title>Node1&#45;&gt;Node5</title>
<g id="a_edge4_Node000001_Node000005"><a xlink:title=" ">
<path fill="none" stroke="#63b8ff" d="M462.51,-30.93C454.46,-29.62 446.31,-28.29 438.4,-27"/>
<polygon fill="#63b8ff" stroke="#63b8ff" points="461.86,-34.37 472.3,-32.53 462.99,-27.47 461.86,-34.37"/>
</a>
</g>
</g>
<!-- Node3 -->
<g id="Node000003" class="node">
<title>Node3</title>
<g id="a_Node000003"><a xlink:href="namespaceghc_1_1filesystem.html#ae53bc3ef946a2f45fb2eeb5c0cdb46b1" target="_top" xlink:title=" ">
<polygon fill="white" stroke="#666666" points="275,-78.5 155.5,-78.5 155.5,-45 275,-45 275,-78.5"/>
<text text-anchor="start" x="163.5" y="-65" font-family="Helvetica,sans-Serif" font-size="10.00">ghc::filesystem::copy</text>
<text text-anchor="middle" x="215.25" y="-52.25" font-family="Helvetica,sans-Serif" font-size="10.00">_symlink</text>
</a>
</g>
</g>
<!-- Node2&#45;&gt;Node3 -->
<g id="edge2_Node000002_Node000003" class="edge">
<title>Node2&#45;&gt;Node3</title>
<g id="a_edge2_Node000002_Node000003"><a xlink:title=" ">
<path fill="none" stroke="#63b8ff" d="M299.51,-65.46C291.39,-65.09 283.21,-64.73 275.31,-64.38"/>
<polygon fill="#63b8ff" stroke="#63b8ff" points="299.24,-68.95 309.39,-65.9 299.55,-61.95 299.24,-68.95"/>
</a>
</g>
</g>
<!-- Node4 -->
<g id="Node000004" class="node">
<title>Node4</title>
<g id="a_Node000004"><a xlink:href="namespaceghc_1_1filesystem.html#a7b3c694c41ff9bc3881305d910fbdfe2" target="_top" xlink:title=" ">
<polygon fill="white" stroke="#666666" points="119.5,-49.12 0,-49.12 0,-28.38 119.5,-28.38 119.5,-49.12"/>
<text text-anchor="middle" x="59.75" y="-35.62" font-family="Helvetica,sans-Serif" font-size="10.00">ghc::filesystem::copy</text>
</a>
</g>
</g>
<!-- Node3&#45;&gt;Node4 -->
<g id="edge3_Node000003_Node000004" class="edge">
<title>Node3&#45;&gt;Node4</title>
<g id="a_edge3_Node000003_Node000004"><a xlink:title=" ">
<path fill="none" stroke="#63b8ff" d="M143.99,-51.22C135.89,-50.01 127.69,-48.78 119.75,-47.59"/>
<polygon fill="#63b8ff" stroke="#63b8ff" points="143.44,-54.68 153.85,-52.7 144.47,-47.76 143.44,-54.68"/>
</a>
</g>
</g>
<!-- Node5&#45;&gt;Node3 -->
<g id="edge6_Node000005_Node000003" class="edge">
<title>Node5&#45;&gt;Node3</title>
<g id="a_edge6_Node000005_Node000003"><a xlink:title=" ">
<path fill="none" stroke="#63b8ff" d="M302.63,-37.03C293.55,-39.63 284.33,-42.27 275.46,-44.81"/>
<polygon fill="#63b8ff" stroke="#63b8ff" points="303.5,-40.42 312.15,-34.31 301.57,-33.69 303.5,-40.42"/>
</a>
</g>
</g>
<!-- Node5&#45;&gt;Node4 -->
<g id="edge5_Node000005_Node000004" class="edge">
<title>Node5&#45;&gt;Node4</title>
<g id="a_edge5_Node000005_Node000004"><a xlink:title=" ">
<path fill="none" stroke="#63b8ff" d="M299.18,-21.98C244.34,-25.84 170.72,-31.01 119.86,-34.59"/>
<polygon fill="#63b8ff" stroke="#63b8ff" points="299.35,-25.47 309.08,-21.28 298.86,-18.49 299.35,-25.47"/>
</a>
</g>
</g>
</g>
</svg>
