<?xml version="1.0" encoding="UTF-8" standalone="no"?>
<!DOCTYPE svg PUBLIC "-//W3C//DTD SVG 1.1//EN"
 "http://www.w3.org/Graphics/SVG/1.1/DTD/svg11.dtd">
<!-- Generated by graphviz version 8.1.0 (0)
 -->
<!-- Title: ghc::filesystem::create_directory Pages: 1 -->
<svg width="291pt" height="60pt"
 viewBox="0.00 0.00 290.50 59.50" xmlns="http://www.w3.org/2000/svg" xmlns:xlink="http://www.w3.org/1999/xlink">
<g id="graph0" class="graph" transform="scale(1 1) rotate(0) translate(4 55.5)">
<title>ghc::filesystem::create_directory</title>
<!-- Node1 -->
<g id="Node000001" class="node">
<title>Node1</title>
<g id="a_Node000001"><a xlink:title=" ">
<polygon fill="#999999" stroke="#666666" points="282.5,-33.5 155.5,-33.5 155.5,0 282.5,0 282.5,-33.5"/>
<text text-anchor="start" x="163.5" y="-20" font-family="Helvetica,sans-Serif" font-size="10.00">ghc::filesystem::create</text>
<text text-anchor="middle" x="219" y="-7.25" font-family="Helvetica,sans-Serif" font-size="10.00">_directory</text>
</a>
</g>
</g>
<!-- Node1&#45;&gt;Node1 -->
<g id="edge2_Node000001_Node000001" class="edge">
<title>Node1&#45;&gt;Node1</title>
<g id="a_edge2_Node000001_Node000001"><a xlink:title=" ">
<path fill="none" stroke="#63b8ff" d="M246.09,-44.56C241.88,-48.7 232.85,-51.5 219,-51.5 195.05,-51.5 185.51,-43.12 190.37,-33.91"/>
<polygon fill="#63b8ff" stroke="#63b8ff" points="249.66,-45.31 247.63,-34.91 242.73,-44.31 249.66,-45.31"/>
</a>
</g>
</g>
<!-- Node2 -->
<g id="Node000002" class="node">
<title>Node2</title>
<g id="a_Node000002"><a xlink:href="namespaceghc_1_1filesystem.html#a7b3c694c41ff9bc3881305d910fbdfe2" target="_top" xlink:title=" ">
<polygon fill="white" stroke="#666666" points="119.5,-27.12 0,-27.12 0,-6.38 119.5,-6.38 119.5,-27.12"/>
<text text-anchor="middle" x="59.75" y="-13.62" font-family="Helvetica,sans-Serif" font-size="10.00">ghc::filesystem::copy</text>
</a>
</g>
</g>
<!-- Node1&#45;&gt;Node2 -->
<g id="edge1_Node000001_Node000002" class="edge">
<title>Node1&#45;&gt;Node2</title>
<g id="a_edge1_Node000001_Node000002"><a xlink:title=" ">
<path fill="none" stroke="#63b8ff" d="M144.57,-16.75C136.27,-16.75 127.89,-16.75 119.81,-16.75"/>
<polygon fill="#63b8ff" stroke="#63b8ff" points="144.4,-20.25 154.4,-16.75 144.4,-13.25 144.4,-20.25"/>
</a>
</g>
</g>
</g>
</svg>
