<?xml version="1.0" encoding="UTF-8" standalone="no"?>
<!DOCTYPE svg PUBLIC "-//W3C//DTD SVG 1.1//EN"
 "http://www.w3.org/Graphics/SVG/1.1/DTD/svg11.dtd">
<!-- Generated by graphviz version 8.1.0 (0)
 -->
<!-- Title: CLI::detail::check_path Pages: 1 -->
<svg width="363pt" height="210pt"
 viewBox="0.00 0.00 363.25 209.88" xmlns="http://www.w3.org/2000/svg" xmlns:xlink="http://www.w3.org/1999/xlink">
<g id="graph0" class="graph" transform="scale(1 1) rotate(0) translate(4 205.88)">
<title>CLI::detail::check_path</title>
<!-- Node1 -->
<g id="Node000001" class="node">
<title>Node1</title>
<g id="a_Node000001"><a xlink:title="get the type of the path from a file name">
<polygon fill="#999999" stroke="#666666" points="355.25,-117.5 229,-117.5 229,-96.75 355.25,-96.75 355.25,-117.5"/>
<text text-anchor="middle" x="292.12" y="-104" font-family="Helvetica,sans-Serif" font-size="10.00">CLI::detail::check_path</text>
</a>
</g>
</g>
<!-- Node1&#45;&gt;Node1 -->
<g id="edge5_Node000001_Node000001" class="edge">
<title>Node1&#45;&gt;Node1</title>
<g id="a_edge5_Node000001_Node000001"><a xlink:title=" ">
<path fill="none" stroke="#63b8ff" d="M327.57,-127.97C323.9,-132.35 312.09,-135.5 292.12,-135.5 258.5,-135.5 247.99,-126.56 260.6,-117.9"/>
<polygon fill="#63b8ff" stroke="#63b8ff" points="330.54,-126.95 323.65,-118.9 324.01,-129.49 330.54,-126.95"/>
</a>
</g>
</g>
<!-- Node2 -->
<g id="Node000002" class="node">
<title>Node2</title>
<g id="a_Node000002"><a xlink:href="classCLI_1_1detail_1_1ExistingDirectoryValidator.html#a75f836841c9a0b7f2eaccb32f25d59f4" target="_top" xlink:title=" ">
<polygon fill="white" stroke="#666666" points="193,-201.88 0,-201.88 0,-168.38 193,-168.38 193,-201.88"/>
<text text-anchor="start" x="8" y="-188.38" font-family="Helvetica,sans-Serif" font-size="10.00">CLI::detail::ExistingDirectory</text>
<text text-anchor="middle" x="96.5" y="-175.62" font-family="Helvetica,sans-Serif" font-size="10.00">Validator::ExistingDirectoryValidator</text>
</a>
</g>
</g>
<!-- Node1&#45;&gt;Node2 -->
<g id="edge1_Node000001_Node000002" class="edge">
<title>Node1&#45;&gt;Node2</title>
<g id="a_edge1_Node000001_Node000002"><a xlink:title=" ">
<path fill="none" stroke="#63b8ff" d="M264.26,-123.45C244.96,-134.65 218.04,-149.22 193,-159.12 184.93,-162.32 176.33,-165.26 167.72,-167.93"/>
<polygon fill="#63b8ff" stroke="#63b8ff" points="265.77,-126.03 272.61,-117.94 262.22,-120 265.77,-126.03"/>
</a>
</g>
</g>
<!-- Node3 -->
<g id="Node000003" class="node">
<title>Node3</title>
<g id="a_Node000003"><a xlink:href="classCLI_1_1detail_1_1ExistingFileValidator.html#a93a39cd927968e7868fc2c145f2793e3" target="_top" xlink:title=" ">
<polygon fill="white" stroke="#666666" points="179.12,-149.88 13.88,-149.88 13.88,-116.38 179.12,-116.38 179.12,-149.88"/>
<text text-anchor="start" x="21.88" y="-136.38" font-family="Helvetica,sans-Serif" font-size="10.00">CLI::detail::ExistingFile</text>
<text text-anchor="middle" x="96.5" y="-123.62" font-family="Helvetica,sans-Serif" font-size="10.00">Validator::ExistingFileValidator</text>
</a>
</g>
</g>
<!-- Node1&#45;&gt;Node3 -->
<g id="edge2_Node000001_Node000003" class="edge">
<title>Node1&#45;&gt;Node3</title>
<g id="a_edge2_Node000001_Node000003"><a xlink:title=" ">
<path fill="none" stroke="#63b8ff" d="M217.68,-116.99C205.14,-118.67 192.04,-120.43 179.3,-122.14"/>
<polygon fill="#63b8ff" stroke="#63b8ff" points="218.08,-120.33 227.53,-115.53 217.15,-113.39 218.08,-120.33"/>
</a>
</g>
</g>
<!-- Node4 -->
<g id="Node000004" class="node">
<title>Node4</title>
<g id="a_Node000004"><a xlink:href="classCLI_1_1detail_1_1ExistingPathValidator.html#ae0e2b8aca632fce3e902fcf99e2b8ad4" target="_top" xlink:title=" ">
<polygon fill="white" stroke="#666666" points="181,-97.88 12,-97.88 12,-64.38 181,-64.38 181,-97.88"/>
<text text-anchor="start" x="20" y="-84.38" font-family="Helvetica,sans-Serif" font-size="10.00">CLI::detail::ExistingPath</text>
<text text-anchor="middle" x="96.5" y="-71.62" font-family="Helvetica,sans-Serif" font-size="10.00">Validator::ExistingPathValidator</text>
</a>
</g>
</g>
<!-- Node1&#45;&gt;Node4 -->
<g id="edge3_Node000001_Node000004" class="edge">
<title>Node1&#45;&gt;Node4</title>
<g id="a_edge3_Node000001_Node000004"><a xlink:title=" ">
<path fill="none" stroke="#63b8ff" d="M217.78,-97.28C205.89,-95.68 193.51,-94.02 181.39,-92.39"/>
<polygon fill="#63b8ff" stroke="#63b8ff" points="217.15,-100.86 227.53,-98.72 218.08,-93.92 217.15,-100.86"/>
</a>
</g>
</g>
<!-- Node5 -->
<g id="Node000005" class="node">
<title>Node5</title>
<g id="a_Node000005"><a xlink:href="classCLI_1_1detail_1_1NonexistentPathValidator.html#a1708ec7b5892f369b64be668870df677" target="_top" xlink:title=" ">
<polygon fill="white" stroke="#666666" points="179.88,-46.25 13.12,-46.25 13.12,0 179.88,0 179.88,-46.25"/>
<text text-anchor="start" x="21.12" y="-32.75" font-family="Helvetica,sans-Serif" font-size="10.00">CLI::detail::Nonexistent</text>
<text text-anchor="start" x="21.12" y="-20" font-family="Helvetica,sans-Serif" font-size="10.00">PathValidator::NonexistentPath</text>
<text text-anchor="middle" x="96.5" y="-7.25" font-family="Helvetica,sans-Serif" font-size="10.00">Validator</text>
</a>
</g>
</g>
<!-- Node1&#45;&gt;Node5 -->
<g id="edge4_Node000001_Node000005" class="edge">
<title>Node1&#45;&gt;Node5</title>
<g id="a_edge4_Node000001_Node000005"><a xlink:title=" ">
<path fill="none" stroke="#63b8ff" d="M263.72,-91.04C244.36,-80.07 217.59,-65.68 193,-55.12 186.17,-52.19 178.98,-49.36 171.73,-46.66"/>
<polygon fill="#63b8ff" stroke="#63b8ff" points="261.7,-94.49 272.12,-96.43 265.18,-88.42 261.7,-94.49"/>
</a>
</g>
</g>
</g>
</svg>
