<?xml version="1.0" encoding="UTF-8" standalone="no"?>
<!DOCTYPE svg PUBLIC "-//W3C//DTD SVG 1.1//EN"
 "http://www.w3.org/Graphics/SVG/1.1/DTD/svg11.dtd">
<!-- Generated by graphviz version 7.0.0 (0)
 -->
<!-- Title: sisi4s::setRandomTensor Pages: 1 -->
<svg width="402pt" height="295pt"
 viewBox="0.00 0.00 402.00 295.00" xmlns="http://www.w3.org/2000/svg" xmlns:xlink="http://www.w3.org/1999/xlink">
<g id="graph0" class="graph" transform="scale(1 1) rotate(0) translate(4 291)">
<title>sisi4s::setRandomTensor</title>
<!-- Node1 -->
<g id="node1" class="node">
<title>Node1</title>
<g id="a_node1"><a xlink:title=" ">
<polygon fill="#999999" stroke="#666666" points="394,-152.5 257,-152.5 257,-133.5 394,-133.5 394,-152.5"/>
<text text-anchor="middle" x="325.5" y="-140.5" font-family="Helvetica,sans-Serif" font-size="10.00">sisi4s::setRandomTensor</text>
</a>
</g>
</g>
<!-- Node2 -->
<g id="node2" class="node">
<title>Node2</title>
<g id="a_node2"><a xlink:href="classsisi4s_1_1CcsdPreconditioner.html#a885a0ffef1ab5a039a69e40e8e8b1c09" target="_top" xlink:title="Get initial basis.">
<polygon fill="white" stroke="#666666" points="182.5,-287 38.5,-287 38.5,-257 182.5,-257 182.5,-287"/>
<text text-anchor="start" x="46.5" y="-275" font-family="Helvetica,sans-Serif" font-size="10.00">sisi4s::CcsdPreconditioner</text>
<text text-anchor="middle" x="110.5" y="-264" font-family="Helvetica,sans-Serif" font-size="10.00">::getInitialBasis</text>
</a>
</g>
</g>
<!-- Node1&#45;&gt;Node2 -->
<g id="edge1" class="edge">
<title>Node1&#45;&gt;Node2</title>
<path fill="none" stroke="#63b8ff" d="M311.22,-162.11C293.5,-186.06 259.83,-226.58 221,-248 209.33,-254.44 196.06,-259.15 182.89,-262.6"/>
<polygon fill="#63b8ff" stroke="#63b8ff" points="313.92,-164.35 316.92,-154.19 308.24,-160.26 313.92,-164.35"/>
</g>
<!-- Node3 -->
<g id="node3" class="node">
<title>Node3</title>
<g id="a_node3"><a xlink:href="classsisi4s_1_1CoulombVertexDecomposition.html#accb34639975cd2eed1188f32d3f239ff" target="_top" xlink:title=" ">
<polygon fill="white" stroke="#666666" points="221,-238.5 0,-238.5 0,-219.5 221,-219.5 221,-238.5"/>
<text text-anchor="middle" x="110.5" y="-226.5" font-family="Helvetica,sans-Serif" font-size="10.00">sisi4s::CoulombVertexDecomposition::run</text>
</a>
</g>
</g>
<!-- Node1&#45;&gt;Node3 -->
<g id="edge2" class="edge">
<title>Node1&#45;&gt;Node3</title>
<path fill="none" stroke="#63b8ff" d="M303.85,-159.99C283.89,-175.49 252.17,-197.8 221,-210 211.66,-213.66 201.59,-216.61 191.48,-219"/>
<polygon fill="#63b8ff" stroke="#63b8ff" points="305.81,-162.9 311.46,-153.94 301.46,-157.42 305.81,-162.9"/>
</g>
<!-- Node4 -->
<g id="node4" class="node">
<title>Node4</title>
<g id="a_node4"><a xlink:href="classsisi4s_1_1GenerateRandomComplexMatrix.html#a336f654cde6a8de4a1ea6d21e2e2f792" target="_top" xlink:title="Testing environement.">
<polygon fill="white" stroke="#666666" points="200,-201 21,-201 21,-171 200,-171 200,-201"/>
<text text-anchor="start" x="29" y="-189" font-family="Helvetica,sans-Serif" font-size="10.00">sisi4s::GenerateRandomComplex</text>
<text text-anchor="middle" x="110.5" y="-178" font-family="Helvetica,sans-Serif" font-size="10.00">Matrix::run</text>
</a>
</g>
</g>
<!-- Node1&#45;&gt;Node4 -->
<g id="edge3" class="edge">
<title>Node1&#45;&gt;Node4</title>
<path fill="none" stroke="#63b8ff" d="M263.86,-155.24C240.31,-160 213.06,-165.5 188.17,-170.52"/>
<polygon fill="#63b8ff" stroke="#63b8ff" points="264.5,-158.68 273.61,-153.27 263.12,-151.82 264.5,-158.68"/>
</g>
<!-- Node5 -->
<g id="node5" class="node">
<title>Node5</title>
<g id="a_node5"><a xlink:href="classsisi4s_1_1GenerateRandomMatrix.html#ab9d29a0b8d1df8d3d5610ff71e1096d3" target="_top" xlink:title="Testing environement.">
<polygon fill="white" stroke="#666666" points="205,-152.5 16,-152.5 16,-133.5 205,-133.5 205,-152.5"/>
<text text-anchor="middle" x="110.5" y="-140.5" font-family="Helvetica,sans-Serif" font-size="10.00">sisi4s::GenerateRandomMatrix::run</text>
</a>
</g>
</g>
<!-- Node1&#45;&gt;Node5 -->
<g id="edge4" class="edge">
<title>Node1&#45;&gt;Node5</title>
<path fill="none" stroke="#63b8ff" d="M245.24,-143C232.2,-143 218.59,-143 205.24,-143"/>
<polygon fill="#63b8ff" stroke="#63b8ff" points="245.01,-146.5 255.01,-143 245.01,-139.5 245.01,-146.5"/>
</g>
<!-- Node6 -->
<g id="node6" class="node">
<title>Node6</title>
<g id="a_node6"><a xlink:href="classsisi4s_1_1GenerateRandomTensor.html#a61e87f5bb5703da14b559f7ce43f68e2" target="_top" xlink:title="Testing environement.">
<polygon fill="white" stroke="#666666" points="205,-115.5 16,-115.5 16,-96.5 205,-96.5 205,-115.5"/>
<text text-anchor="middle" x="110.5" y="-103.5" font-family="Helvetica,sans-Serif" font-size="10.00">sisi4s::GenerateRandomTensor::run</text>
</a>
</g>
</g>
<!-- Node1&#45;&gt;Node6 -->
<g id="edge5" class="edge">
<title>Node1&#45;&gt;Node6</title>
<path fill="none" stroke="#63b8ff" d="M256.18,-131.11C244.44,-129.07 232.37,-126.98 221,-125 204.08,-122.06 185.69,-118.87 168.9,-115.96"/>
<polygon fill="#63b8ff" stroke="#63b8ff" points="255.35,-134.52 265.8,-132.79 256.54,-127.63 255.35,-134.52"/>
</g>
<!-- Node7 -->
<g id="node7" class="node">
<title>Node7</title>
<g id="a_node7"><a xlink:href="classsisi4s_1_1ParticleHoleCoulombVertexDecomposition.html#a14cd82062611a0e443aff732ae0db121" target="_top" xlink:title=" ">
<polygon fill="white" stroke="#666666" points="186.5,-78 34.5,-78 34.5,-48 186.5,-48 186.5,-78"/>
<text text-anchor="start" x="42.5" y="-66" font-family="Helvetica,sans-Serif" font-size="10.00">sisi4s::ParticleHoleCoulomb</text>
<text text-anchor="middle" x="110.5" y="-55" font-family="Helvetica,sans-Serif" font-size="10.00">VertexDecomposition::run</text>
</a>
</g>
</g>
<!-- Node1&#45;&gt;Node7 -->
<g id="edge6" class="edge">
<title>Node1&#45;&gt;Node7</title>
<path fill="none" stroke="#63b8ff" d="M299.21,-127.12C278.78,-114.9 248.93,-98.4 221,-88 210.13,-83.95 198.39,-80.43 186.79,-77.42"/>
<polygon fill="#63b8ff" stroke="#63b8ff" points="297.32,-130.07 307.68,-132.28 300.96,-124.09 297.32,-130.07"/>
</g>
<!-- Node8 -->
<g id="node8" class="node">
<title>Node8</title>
<g id="a_node8"><a xlink:href="classsisi4s_1_1IterativePseudoInverse.html#a1998a3534a76b40320d273d324b2470e" target="_top" xlink:title=" ">
<polygon fill="white" stroke="#666666" points="192,-30 29,-30 29,0 192,0 192,-30"/>
<text text-anchor="start" x="37" y="-18" font-family="Helvetica,sans-Serif" font-size="10.00">sisi4s::IterativePseudoInverse</text>
<text text-anchor="middle" x="110.5" y="-7" font-family="Helvetica,sans-Serif" font-size="10.00">::test</text>
</a>
</g>
</g>
<!-- Node1&#45;&gt;Node8 -->
<g id="edge7" class="edge">
<title>Node1&#45;&gt;Node8</title>
<path fill="none" stroke="#63b8ff" d="M311.18,-124.08C293.42,-100.36 259.69,-60.23 221,-39 212.13,-34.13 202.34,-30.25 192.38,-27.16"/>
<polygon fill="#63b8ff" stroke="#63b8ff" points="308.17,-125.9 316.89,-131.92 313.83,-121.77 308.17,-125.9"/>
</g>
</g>
</svg>
