<?xml version="1.0" encoding="UTF-8" standalone="no"?>
<!DOCTYPE svg PUBLIC "-//W3C//DTD SVG 1.1//EN"
 "http://www.w3.org/Graphics/SVG/1.1/DTD/svg11.dtd">
<!-- Generated by graphviz version 9.0.0 (0)
 -->
<!-- Title: sisi4s::dryFitRegularizedAlternatingLeastSquaresFactor Pages: 1 -->
<svg width="641pt" height="94pt"
 viewBox="0.00 0.00 641.00 93.50" xmlns="http://www.w3.org/2000/svg" xmlns:xlink="http://www.w3.org/1999/xlink">
<g id="graph0" class="graph" transform="scale(1 1) rotate(0) translate(4 89.5)">
<title>sisi4s::dryFitRegularizedAlternatingLeastSquaresFactor</title>
<!-- Node1 -->
<g id="Node000001" class="node">
<title>Node1</title>
<g id="a_Node000001"><a xlink:title=" ">
<polygon fill="#999999" stroke="#666666" points="633,-59.5 468.5,-59.5 468.5,-26 633,-26 633,-59.5"/>
<text text-anchor="start" x="476.5" y="-46" font-family="Helvetica,sans-Serif" font-size="10.00">sisi4s::dryFitRegularized</text>
<text text-anchor="middle" x="550.75" y="-33.25" font-family="Helvetica,sans-Serif" font-size="10.00">AlternatingLeastSquaresFactor</text>
</a>
</g>
</g>
<!-- Node2 -->
<g id="Node000002" class="node">
<title>Node2</title>
<g id="a_Node000002"><a xlink:href="classsisi4s_1_1ParticleHoleCoulombVertexDecomposition.html#a1d7aed53263c884eccb9c64c0cfcfd0a" target="_top" xlink:title="Performs a dry run of one iteration in fitting the factor orbitals and the Coulomb factors according ...">
<polygon fill="white" stroke="#666666" points="410.75,-85.5 256,-85.5 256,-52 410.75,-52 410.75,-85.5"/>
<text text-anchor="start" x="264" y="-72" font-family="Helvetica,sans-Serif" font-size="10.00">sisi4s::ParticleHoleCoulomb</text>
<text text-anchor="middle" x="333.38" y="-59.25" font-family="Helvetica,sans-Serif" font-size="10.00">VertexDecomposition::dryFit</text>
</a>
</g>
</g>
<!-- Node1&#45;&gt;Node2 -->
<g id="edge1_Node000001_Node000002" class="edge">
<title>Node1&#45;&gt;Node2</title>
<g id="a_edge1_Node000001_Node000002"><a xlink:title=" ">
<path fill="none" stroke="#63b8ff" d="M456.96,-53.95C441.66,-55.8 425.94,-57.7 411.08,-59.49"/>
<polygon fill="#63b8ff" stroke="#63b8ff" points="457.01,-57.47 466.52,-52.8 456.17,-50.52 457.01,-57.47"/>
</a>
</g>
</g>
<!-- Node4 -->
<g id="Node000004" class="node">
<title>Node4</title>
<g id="a_Node000004"><a xlink:href="classsisi4s_1_1CoulombVertexDecomposition.html#ada47c641a50e19ac728504e718bac626" target="_top" xlink:title="Performs a dry run of one iteration in fitting the factor orbitals and the Coulomb factors according ...">
<polygon fill="white" stroke="#666666" points="432.5,-33.5 234.25,-33.5 234.25,0 432.5,0 432.5,-33.5"/>
<text text-anchor="start" x="242.25" y="-20" font-family="Helvetica,sans-Serif" font-size="10.00">sisi4s::CoulombVertexDecomposition</text>
<text text-anchor="middle" x="333.38" y="-7.25" font-family="Helvetica,sans-Serif" font-size="10.00">::dryFit</text>
</a>
</g>
</g>
<!-- Node1&#45;&gt;Node4 -->
<g id="edge3_Node000001_Node000004" class="edge">
<title>Node1&#45;&gt;Node4</title>
<g id="a_edge3_Node000001_Node000004"><a xlink:title=" ">
<path fill="none" stroke="#63b8ff" d="M456.82,-31.53C448.83,-30.57 440.73,-29.59 432.7,-28.62"/>
<polygon fill="#63b8ff" stroke="#63b8ff" points="456.17,-34.98 466.52,-32.7 457.01,-28.03 456.17,-34.98"/>
</a>
</g>
</g>
<!-- Node3 -->
<g id="Node000003" class="node">
<title>Node3</title>
<g id="a_Node000003"><a xlink:href="classsisi4s_1_1ParticleHoleCoulombVertexDecomposition.html#a40fbdeb633e7771f3ef19466965f8000" target="_top" xlink:title="The dryRun estimates resource consumption, especially memory and processor time.">
<polygon fill="white" stroke="#666666" points="179.88,-85.5 18.38,-85.5 18.38,-52 179.88,-52 179.88,-85.5"/>
<text text-anchor="start" x="26.38" y="-72" font-family="Helvetica,sans-Serif" font-size="10.00">sisi4s::ParticleHoleCoulomb</text>
<text text-anchor="middle" x="99.12" y="-59.25" font-family="Helvetica,sans-Serif" font-size="10.00">VertexDecomposition::dryRun</text>
</a>
</g>
</g>
<!-- Node2&#45;&gt;Node3 -->
<g id="edge2_Node000002_Node000003" class="edge">
<title>Node2&#45;&gt;Node3</title>
<g id="a_edge2_Node000002_Node000003"><a xlink:title=" ">
<path fill="none" stroke="#63b8ff" d="M244.18,-68.75C223.2,-68.75 200.92,-68.75 180.32,-68.75"/>
<polygon fill="#63b8ff" stroke="#63b8ff" points="244.17,-72.25 254.17,-68.75 244.17,-65.25 244.17,-72.25"/>
</a>
</g>
</g>
<!-- Node5 -->
<g id="Node000005" class="node">
<title>Node5</title>
<g id="a_Node000005"><a xlink:href="classsisi4s_1_1CoulombVertexDecomposition.html#afe2db43c1a0ebdd3b494fafa105641d4" target="_top" xlink:title="The dryRun estimates resource consumption, especially memory and processor time.">
<polygon fill="white" stroke="#666666" points="198.25,-33.5 0,-33.5 0,0 198.25,0 198.25,-33.5"/>
<text text-anchor="start" x="8" y="-20" font-family="Helvetica,sans-Serif" font-size="10.00">sisi4s::CoulombVertexDecomposition</text>
<text text-anchor="middle" x="99.12" y="-7.25" font-family="Helvetica,sans-Serif" font-size="10.00">::dryRun</text>
</a>
</g>
</g>
<!-- Node4&#45;&gt;Node5 -->
<g id="edge4_Node000004_Node000005" class="edge">
<title>Node4&#45;&gt;Node5</title>
<g id="a_edge4_Node000004_Node000005"><a xlink:title=" ">
<path fill="none" stroke="#63b8ff" d="M222.53,-16.75C214.48,-16.75 206.38,-16.75 198.4,-16.75"/>
<polygon fill="#63b8ff" stroke="#63b8ff" points="222.37,-20.25 232.37,-16.75 222.37,-13.25 222.37,-20.25"/>
</a>
</g>
</g>
</g>
</svg>
