<?xml version="1.0" encoding="UTF-8" standalone="no"?>
<!DOCTYPE svg PUBLIC "-//W3C//DTD SVG 1.1//EN"
 "http://www.w3.org/Graphics/SVG/1.1/DTD/svg11.dtd">
<!-- Generated by graphviz version 5.0.1 (0)
 -->
<!-- Title: sisi4s::vSym Pages: 1 -->
<svg width="641pt" height="39pt"
 viewBox="0.00 0.00 641.00 39.00" xmlns="http://www.w3.org/2000/svg" xmlns:xlink="http://www.w3.org/1999/xlink">
<g id="graph0" class="graph" transform="scale(1 1) rotate(0) translate(4 35)">
<title>sisi4s::vSym</title>
<!-- Node1 -->
<g id="node1" class="node">
<title>Node1</title>
<g id="a_node1"><a xlink:title=" ">
<polygon fill="#bfbfbf" stroke="black" points="555,-6 555,-25 633,-25 633,-6 555,-6"/>
<text text-anchor="middle" x="594" y="-13" font-family="Helvetica,sans-Serif" font-size="10.00">sisi4s::vSym</text>
</a>
</g>
</g>
<!-- Node2 -->
<g id="node2" class="node">
<title>Node2</title>
<g id="a_node2"><a xlink:href="structsisi4s_1_1IntegralInfo.html#a243d2bc78b8a39c37eef509f0ca7565a" target="_top" xlink:title=" ">
<polygon fill="none" stroke="black" points="394,-0.5 394,-30.5 519,-30.5 519,-0.5 394,-0.5"/>
<text text-anchor="start" x="402" y="-18.5" font-family="Helvetica,sans-Serif" font-size="10.00">sisi4s::IntegralInfo</text>
<text text-anchor="middle" x="456.5" y="-7.5" font-family="Helvetica,sans-Serif" font-size="10.00">::getAntisymmetrizers</text>
</a>
</g>
</g>
<!-- Node1&#45;&gt;Node2 -->
<g id="edge1" class="edge">
<title>Node1&#45;&gt;Node2</title>
<path fill="none" stroke="midnightblue" d="M544.69,-15.5C536.42,-15.5 527.72,-15.5 519.16,-15.5"/>
<polygon fill="midnightblue" stroke="midnightblue" points="544.9,-19 554.9,-15.5 544.9,-12 544.9,-19"/>
</g>
<!-- Node3 -->
<g id="node3" class="node">
<title>Node3</title>
<g id="a_node3"><a xlink:href="TensorAntisymmetrizer_8cxx.html#a87f06a530b5bbfd1b7f2ff260d45ec7e" target="_top" xlink:title=" ">
<polygon fill="none" stroke="black" points="221,-6 221,-25 358,-25 358,-6 221,-6"/>
<text text-anchor="middle" x="289.5" y="-13" font-family="Helvetica,sans-Serif" font-size="10.00">isSelfAntisymmetrizable</text>
</a>
</g>
</g>
<!-- Node2&#45;&gt;Node3 -->
<g id="edge2" class="edge">
<title>Node2&#45;&gt;Node3</title>
<path fill="none" stroke="midnightblue" d="M383.4,-15.5C374.96,-15.5 366.38,-15.5 358.01,-15.5"/>
<polygon fill="midnightblue" stroke="midnightblue" points="383.59,-19 393.59,-15.5 383.59,-12 383.59,-19"/>
</g>
<!-- Node4 -->
<g id="node4" class="node">
<title>Node4</title>
<g id="a_node4"><a xlink:href="structsisi4s_1_1TensorAntisymmetrizer.html#a08e30cc781b351e0b505def08c1fad1b" target="_top" xlink:title=" ">
<polygon fill="none" stroke="black" points="0,-6 0,-25 185,-25 185,-6 0,-6"/>
<text text-anchor="middle" x="92.5" y="-13" font-family="Helvetica,sans-Serif" font-size="10.00">sisi4s::TensorAntisymmetrizer::run</text>
</a>
</g>
</g>
<!-- Node3&#45;&gt;Node4 -->
<g id="edge3" class="edge">
<title>Node3&#45;&gt;Node4</title>
<path fill="none" stroke="midnightblue" d="M210.69,-15.5C202.27,-15.5 193.64,-15.5 185.08,-15.5"/>
<polygon fill="midnightblue" stroke="midnightblue" points="210.85,-19 220.85,-15.5 210.85,-12 210.85,-19"/>
</g>
</g>
</svg>
