<?xml version="1.0" encoding="UTF-8" standalone="no"?>
<!DOCTYPE svg PUBLIC "-//W3C//DTD SVG 1.1//EN"
 "http://www.w3.org/Graphics/SVG/1.1/DTD/svg11.dtd">
<!-- Generated by graphviz version 8.1.0 (0)
 -->
<!-- Title: CLI::detail::checked_multiply Pages: 1 -->
<svg width="444pt" height="60pt"
 viewBox="0.00 0.00 443.75 59.50" xmlns="http://www.w3.org/2000/svg" xmlns:xlink="http://www.w3.org/1999/xlink">
<g id="graph0" class="graph" transform="scale(1 1) rotate(0) translate(4 55.5)">
<title>CLI::detail::checked_multiply</title>
<!-- Node1 -->
<g id="Node000001" class="node">
<title>Node1</title>
<g id="a_Node000001"><a xlink:title="Performs a *= b; if it doesn&#39;t equal infinity. Returns false otherwise.">
<polygon fill="#999999" stroke="#666666" points="110.5,-33.5 0,-33.5 0,0 110.5,0 110.5,-33.5"/>
<text text-anchor="start" x="8" y="-20" font-family="Helvetica,sans-Serif" font-size="10.00">CLI::detail::checked</text>
<text text-anchor="middle" x="55.25" y="-7.25" font-family="Helvetica,sans-Serif" font-size="10.00">_multiply</text>
</a>
</g>
</g>
<!-- Node2 -->
<g id="Node000002" class="node">
<title>Node2</title>
<g id="a_Node000002"><a xlink:href="namespaceCLI_1_1detail.html#a58ce723daebf6cd298565eb365d1b157" target="_top" xlink:title="Performs a *= b; if it doesn&#39;t cause integer overflow. Returns false otherwise.">
<polygon fill="white" stroke="#666666" points="257,-33.5 146.5,-33.5 146.5,0 257,0 257,-33.5"/>
<text text-anchor="start" x="154.5" y="-20" font-family="Helvetica,sans-Serif" font-size="10.00">CLI::detail::checked</text>
<text text-anchor="middle" x="201.75" y="-7.25" font-family="Helvetica,sans-Serif" font-size="10.00">_multiply</text>
</a>
</g>
</g>
<!-- Node1&#45;&gt;Node2 -->
<g id="edge1_Node000001_Node000002" class="edge">
<title>Node1&#45;&gt;Node2</title>
<g id="a_edge1_Node000001_Node000002"><a xlink:title=" ">
<path fill="none" stroke="#63b8ff" d="M110.88,-16.75C118.79,-16.75 127,-16.75 135.1,-16.75"/>
<polygon fill="#63b8ff" stroke="#63b8ff" points="135.04,-20.25 145.04,-16.75 135.04,-13.25 135.04,-20.25"/>
</a>
</g>
</g>
<!-- Node2&#45;&gt;Node2 -->
<g id="edge2_Node000002_Node000002" class="edge">
<title>Node2&#45;&gt;Node2</title>
<g id="a_edge2_Node000002_Node000002"><a xlink:title=" ">
<path fill="none" stroke="#63b8ff" d="M175.41,-33.91C170.94,-43.12 179.72,-51.5 201.75,-51.5 214.49,-51.5 222.79,-48.7 226.67,-44.56"/>
<polygon fill="#63b8ff" stroke="#63b8ff" points="230.24,-45.29 228.09,-34.91 223.3,-44.37 230.24,-45.29"/>
</a>
</g>
</g>
<!-- Node3 -->
<g id="Node000003" class="node">
<title>Node3</title>
<g id="a_Node000003"><a xlink:href="namespaceCLI_1_1detail.html#a569135c6e266940a5f914698b9deef66" target="_top" xlink:title="Do a check for overflow on signed numbers.">
<polygon fill="white" stroke="#666666" points="435.75,-27.12 293,-27.12 293,-6.38 435.75,-6.38 435.75,-27.12"/>
<text text-anchor="middle" x="364.38" y="-13.62" font-family="Helvetica,sans-Serif" font-size="10.00">CLI::detail::overflowCheck</text>
</a>
</g>
</g>
<!-- Node2&#45;&gt;Node3 -->
<g id="edge3_Node000002_Node000003" class="edge">
<title>Node2&#45;&gt;Node3</title>
<g id="a_edge3_Node000002_Node000003"><a xlink:title=" ">
<path fill="none" stroke="#63b8ff" d="M257.13,-16.75C265.04,-16.75 273.33,-16.75 281.63,-16.75"/>
<polygon fill="#63b8ff" stroke="#63b8ff" points="281.54,-20.25 291.54,-16.75 281.54,-13.25 281.54,-20.25"/>
</a>
</g>
</g>
<!-- Node3&#45;&gt;Node3 -->
<g id="edge4_Node000003_Node000003" class="edge">
<title>Node3&#45;&gt;Node3</title>
<g id="a_edge4_Node000003_Node000003"><a xlink:title=" ">
<path fill="none" stroke="#63b8ff" d="M338.17,-27.52C327.69,-36.18 336.42,-45.12 364.38,-45.12 380.53,-45.12 390.27,-42.14 393.58,-37.94"/>
<polygon fill="#63b8ff" stroke="#63b8ff" points="396.71,-37.16 390.58,-28.52 389.99,-39.1 396.71,-37.16"/>
</a>
</g>
</g>
</g>
</svg>
