<?xml version="1.0" encoding="UTF-8" standalone="no"?>
<!DOCTYPE svg PUBLIC "-//W3C//DTD SVG 1.1//EN"
 "http://www.w3.org/Graphics/SVG/1.1/DTD/svg11.dtd">
<!-- Generated by graphviz version 5.0.1 (0)
 -->
<!-- Title: CLI::FailureMessage::help Pages: 1 -->
<svg width="273pt" height="69pt"
 viewBox="0.00 0.00 273.00 68.50" xmlns="http://www.w3.org/2000/svg" xmlns:xlink="http://www.w3.org/1999/xlink">
<g id="graph0" class="graph" transform="scale(1 1) rotate(0) translate(4 64.5)">
<title>CLI::FailureMessage::help</title>
<!-- Node1 -->
<g id="node1" class="node">
<title>Node1</title>
<g id="a_node1"><a xlink:title="Printout the full help string on error (if this fn is set, the old default for CLI11)">
<polygon fill="#999999" stroke="#666666" points="113,-42.5 0,-42.5 0,-12.5 113,-12.5 113,-42.5"/>
<text text-anchor="start" x="8" y="-30.5" font-family="Helvetica,sans-Serif" font-size="10.00">CLI::FailureMessage</text>
<text text-anchor="middle" x="56.5" y="-19.5" font-family="Helvetica,sans-Serif" font-size="10.00">::help</text>
</a>
</g>
</g>
<!-- Node1&#45;&gt;Node1 -->
<g id="edge2" class="edge">
<title>Node1&#45;&gt;Node1</title>
<path fill="none" stroke="#63b8ff" d="M30.13,-42.78C24.27,-51.91 33.06,-60.5 56.5,-60.5 70.42,-60.5 79.17,-57.47 82.76,-53.1"/>
<polygon fill="#63b8ff" stroke="#63b8ff" points="86.26,-52.81 82.87,-42.78 79.26,-52.74 86.26,-52.81"/>
</g>
<!-- Node2 -->
<g id="node2" class="node">
<title>Node2</title>
<g id="a_node2"><a xlink:href="classCLI_1_1Error.html#a725f16d721c2320ba75b4d6c99d2056a" target="_top" xlink:title=" ">
<polygon fill="white" stroke="#666666" points="265,-56 149,-56 149,-37 265,-37 265,-56"/>
<text text-anchor="middle" x="207" y="-44" font-family="Helvetica,sans-Serif" font-size="10.00">CLI::Error::get_name</text>
</a>
</g>
</g>
<!-- Node1&#45;&gt;Node2 -->
<g id="edge1" class="edge">
<title>Node1&#45;&gt;Node2</title>
<path fill="none" stroke="#63b8ff" d="M113.22,-34.63C121.62,-35.7 130.36,-36.82 138.96,-37.92"/>
<polygon fill="#63b8ff" stroke="#63b8ff" points="138.62,-41.41 148.98,-39.2 139.5,-34.46 138.62,-41.41"/>
</g>
<!-- Node3 -->
<g id="node3" class="node">
<title>Node3</title>
<g id="a_node3"><a xlink:href="classCLI_1_1App.html#a2d6847ad9eec079214a61d834f29e35f" target="_top" xlink:title=" ">
<polygon fill="white" stroke="#666666" points="248.5,-19 165.5,-19 165.5,0 248.5,0 248.5,-19"/>
<text text-anchor="middle" x="207" y="-7" font-family="Helvetica,sans-Serif" font-size="10.00">CLI::App::help</text>
</a>
</g>
</g>
<!-- Node1&#45;&gt;Node3 -->
<g id="edge3" class="edge">
<title>Node1&#45;&gt;Node3</title>
<path fill="none" stroke="#63b8ff" d="M113.22,-20.75C126.99,-19.08 141.67,-17.3 155.2,-15.66"/>
<polygon fill="#63b8ff" stroke="#63b8ff" points="155.77,-19.11 165.28,-14.44 154.93,-12.16 155.77,-19.11"/>
</g>
</g>
</svg>
