<?xml version="1.0" encoding="UTF-8" standalone="no"?>
<!DOCTYPE svg PUBLIC "-//W3C//DTD SVG 1.1//EN"
 "http://www.w3.org/Graphics/SVG/1.1/DTD/svg11.dtd">
<!-- Generated by graphviz version 9.0.0 (0)
 -->
<!-- Title: CLI::detail::checked_multiply Pages: 1 -->
<svg width="297pt" height="60pt"
 viewBox="0.00 0.00 297.25 59.50" xmlns="http://www.w3.org/2000/svg" xmlns:xlink="http://www.w3.org/1999/xlink">
<g id="graph0" class="graph" transform="scale(1 1) rotate(0) translate(4 55.5)">
<title>CLI::detail::checked_multiply</title>
<!-- Node1 -->
<g id="Node000001" class="node">
<title>Node1</title>
<g id="a_Node000001"><a xlink:title="Performs a *= b; if it doesn&#39;t cause integer overflow. Returns false otherwise.">
<polygon fill="#999999" stroke="#666666" points="110.5,-33.5 0,-33.5 0,0 110.5,0 110.5,-33.5"/>
<text text-anchor="start" x="8" y="-20" font-family="Helvetica,sans-Serif" font-size="10.00">CLI::detail::checked</text>
<text text-anchor="middle" x="55.25" y="-7.25" font-family="Helvetica,sans-Serif" font-size="10.00">_multiply</text>
</a>
</g>
</g>
<!-- Node1&#45;&gt;Node1 -->
<g id="edge1_Node000001_Node000001" class="edge">
<title>Node1&#45;&gt;Node1</title>
<g id="a_edge1_Node000001_Node000001"><a xlink:title=" ">
<path fill="none" stroke="#63b8ff" d="M26.02,-33.91C21.05,-43.12 30.79,-51.5 55.25,-51.5 69.01,-51.5 78.11,-48.85 82.56,-44.89"/>
<polygon fill="#63b8ff" stroke="#63b8ff" points="85.94,-45.86 84.22,-35.41 79.04,-44.65 85.94,-45.86"/>
</a>
</g>
</g>
<!-- Node2 -->
<g id="Node000002" class="node">
<title>Node2</title>
<g id="a_Node000002"><a xlink:href="namespaceCLI_1_1detail.html#a569135c6e266940a5f914698b9deef66" target="_top" xlink:title="Do a check for overflow on signed numbers.">
<polygon fill="white" stroke="#666666" points="289.25,-27.12 146.5,-27.12 146.5,-6.38 289.25,-6.38 289.25,-27.12"/>
<text text-anchor="middle" x="217.88" y="-13.62" font-family="Helvetica,sans-Serif" font-size="10.00">CLI::detail::overflowCheck</text>
</a>
</g>
</g>
<!-- Node1&#45;&gt;Node2 -->
<g id="edge2_Node000001_Node000002" class="edge">
<title>Node1&#45;&gt;Node2</title>
<g id="a_edge2_Node000001_Node000002"><a xlink:title=" ">
<path fill="none" stroke="#63b8ff" d="M110.63,-16.75C118.36,-16.75 126.45,-16.75 134.57,-16.75"/>
<polygon fill="#63b8ff" stroke="#63b8ff" points="134.52,-20.25 144.52,-16.75 134.52,-13.25 134.52,-20.25"/>
</a>
</g>
</g>
<!-- Node2&#45;&gt;Node2 -->
<g id="edge3_Node000002_Node000002" class="edge">
<title>Node2&#45;&gt;Node2</title>
<g id="a_edge3_Node000002_Node000002"><a xlink:title=" ">
<path fill="none" stroke="#63b8ff" d="M191.67,-27.52C181.19,-36.18 189.92,-45.12 217.88,-45.12 233.16,-45.12 242.7,-42.45 246.49,-38.61"/>
<polygon fill="#63b8ff" stroke="#63b8ff" points="249.95,-38.03 244.4,-29 243.11,-39.52 249.95,-38.03"/>
</a>
</g>
</g>
</g>
</svg>
