<?xml version="1.0" encoding="UTF-8" standalone="no"?>
<!DOCTYPE svg PUBLIC "-//W3C//DTD SVG 1.1//EN"
 "http://www.w3.org/Graphics/SVG/1.1/DTD/svg11.dtd">
<!-- Generated by graphviz version 5.0.1 (0)
 -->
<!-- Title: sisi4s::toComplexTensor Pages: 1 -->
<svg width="837pt" height="628pt"
 viewBox="0.00 0.00 837.00 627.50" xmlns="http://www.w3.org/2000/svg" xmlns:xlink="http://www.w3.org/1999/xlink">
<g id="graph0" class="graph" transform="scale(1 1) rotate(0) translate(4 623.5)">
<title>sisi4s::toComplexTensor</title>
<!-- Node1 -->
<g id="node1" class="node">
<title>Node1</title>
<g id="a_node1"><a xlink:title="Composes a tensor of complex elements containing of the given tensors of real and imaginary parts....">
<polygon fill="#999999" stroke="#666666" points="829,-336 694,-336 694,-317 829,-317 829,-336"/>
<text text-anchor="middle" x="761.5" y="-324" font-family="Helvetica,sans-Serif" font-size="10.00">sisi4s::toComplexTensor</text>
</a>
</g>
</g>
<!-- Node1&#45;&gt;Node1 -->
<g id="edge22" class="edge">
<title>Node1&#45;&gt;Node1</title>
<path fill="none" stroke="#63b8ff" d="M801.23,-343.31C801.83,-349.21 788.58,-354 761.5,-354 723.82,-354 712.93,-344.73 728.82,-336.08"/>
<polygon fill="#63b8ff" stroke="#63b8ff" points="803.67,-340.79 794.18,-336.08 798.66,-345.68 803.67,-340.79"/>
</g>
<!-- Node2 -->
<g id="node2" class="node">
<title>Node2</title>
<g id="a_node2"><a xlink:href="classsisi4s_1_1FiniteSizeCorrection.html#a011bf1004b284365e04ac9bafe86618d" target="_top" xlink:title=" ">
<polygon fill="white" stroke="#666666" points="640.5,-619.5 456.5,-619.5 456.5,-589.5 640.5,-589.5 640.5,-619.5"/>
<text text-anchor="start" x="464.5" y="-607.5" font-family="Helvetica,sans-Serif" font-size="10.00">sisi4s::FiniteSizeCorrection</text>
<text text-anchor="middle" x="548.5" y="-596.5" font-family="Helvetica,sans-Serif" font-size="10.00">::calculateComplexStructureFactor</text>
</a>
</g>
</g>
<!-- Node1&#45;&gt;Node2 -->
<g id="edge1" class="edge">
<title>Node1&#45;&gt;Node2</title>
<path fill="none" stroke="#63b8ff" d="M758.67,-346.16C753.1,-394.14 731.92,-517.92 658,-580.5 652.77,-584.92 646.91,-588.58 640.69,-591.61"/>
<polygon fill="#63b8ff" stroke="#63b8ff" points="762.16,-346.46 759.73,-336.15 755.19,-345.72 762.16,-346.46"/>
</g>
<!-- Node4 -->
<g id="node4" class="node">
<title>Node4</title>
<g id="a_node4"><a xlink:href="classsisi4s_1_1ClusterSinglesDoublesAlgorithm.html#ae4959c22cc14927799d18483a690b71f" target="_top" xlink:title="Calculates eps_a+eps_b+...&#45;eps_i&#45;eps_j&#45;... into D^ab..._ij...">
<polygon fill="white" stroke="#666666" points="651.5,-523.5 445.5,-523.5 445.5,-493.5 651.5,-493.5 651.5,-523.5"/>
<text text-anchor="start" x="453.5" y="-511.5" font-family="Helvetica,sans-Serif" font-size="10.00">sisi4s::ClusterSinglesDoubles</text>
<text text-anchor="middle" x="548.5" y="-500.5" font-family="Helvetica,sans-Serif" font-size="10.00">Algorithm::calculateExcitationEnergies</text>
</a>
</g>
</g>
<!-- Node1&#45;&gt;Node4 -->
<g id="edge3" class="edge">
<title>Node1&#45;&gt;Node4</title>
<path fill="none" stroke="#63b8ff" d="M753.65,-345.8C740.61,-379.58 708.91,-449.18 658,-484.5 653.01,-487.96 647.6,-490.94 641.96,-493.49"/>
<polygon fill="#63b8ff" stroke="#63b8ff" points="757.02,-346.77 757.23,-336.18 750.46,-344.33 757.02,-346.77"/>
</g>
<!-- Node9 -->
<g id="node9" class="node">
<title>Node9</title>
<g id="a_node9"><a xlink:href="classsisi4s_1_1FiniteSizeCorrection.html#a40817a0c8ab25b2ab9ac7586a00fc792" target="_top" xlink:title=" ">
<polygon fill="white" stroke="#666666" points="629.5,-571.5 467.5,-571.5 467.5,-541.5 629.5,-541.5 629.5,-571.5"/>
<text text-anchor="start" x="475.5" y="-559.5" font-family="Helvetica,sans-Serif" font-size="10.00">sisi4s::FiniteSizeCorrection</text>
<text text-anchor="middle" x="548.5" y="-548.5" font-family="Helvetica,sans-Serif" font-size="10.00">::calculateRealStructureFactor</text>
</a>
</g>
</g>
<!-- Node1&#45;&gt;Node9 -->
<g id="edge8" class="edge">
<title>Node1&#45;&gt;Node9</title>
<path fill="none" stroke="#63b8ff" d="M756.68,-346.02C747.52,-387.34 720.27,-483.83 658,-532.5 649.64,-539.03 639.86,-543.87 629.67,-547.43"/>
<polygon fill="#63b8ff" stroke="#63b8ff" points="760.12,-346.63 758.75,-336.12 753.27,-345.19 760.12,-346.63"/>
</g>
<!-- Node10 -->
<g id="node10" class="node">
<title>Node10</title>
<g id="a_node10"><a xlink:href="classsisi4s_1_1CcsdEquationOfMotionDavidson.html#a418beaea4a3a3fe7cf890ba392a7d6ef" target="_top" xlink:title=" ">
<polygon fill="white" stroke="#666666" points="629,-475.5 468,-475.5 468,-445.5 629,-445.5 629,-475.5"/>
<text text-anchor="start" x="476" y="-463.5" font-family="Helvetica,sans-Serif" font-size="10.00">sisi4s::CcsdEquationOfMotion</text>
<text text-anchor="middle" x="548.5" y="-452.5" font-family="Helvetica,sans-Serif" font-size="10.00">Davidson::run</text>
</a>
</g>
</g>
<!-- Node1&#45;&gt;Node10 -->
<g id="edge10" class="edge">
<title>Node1&#45;&gt;Node10</title>
<path fill="none" stroke="#63b8ff" d="M748.8,-344.77C731.89,-369.6 698.19,-413.53 658,-436.5 649.12,-441.57 639.27,-445.57 629.23,-448.73"/>
<polygon fill="#63b8ff" stroke="#63b8ff" points="751.83,-346.54 754.44,-336.27 745.99,-342.67 751.83,-346.54"/>
</g>
<!-- Node11 -->
<g id="node11" class="node">
<title>Node11</title>
<g id="a_node11"><a xlink:href="classsisi4s_1_1CcsdtEquationOfMotionDavidson.html#a12e416e743f23f8ec453a9ee2f9a8aad" target="_top" xlink:title=" ">
<polygon fill="white" stroke="#666666" points="631,-427.5 466,-427.5 466,-397.5 631,-397.5 631,-427.5"/>
<text text-anchor="start" x="474" y="-415.5" font-family="Helvetica,sans-Serif" font-size="10.00">sisi4s::CcsdtEquationOfMotion</text>
<text text-anchor="middle" x="548.5" y="-404.5" font-family="Helvetica,sans-Serif" font-size="10.00">Davidson::run</text>
</a>
</g>
</g>
<!-- Node1&#45;&gt;Node11 -->
<g id="edge11" class="edge">
<title>Node1&#45;&gt;Node11</title>
<path fill="none" stroke="#63b8ff" d="M739.29,-342.18C719.28,-356.26 687.97,-376.5 658,-388.5 649.49,-391.91 640.41,-394.87 631.25,-397.45"/>
<polygon fill="#63b8ff" stroke="#63b8ff" points="741.55,-344.87 747.64,-336.2 737.47,-339.18 741.55,-344.87"/>
</g>
<!-- Node12 -->
<g id="node12" class="node">
<title>Node12</title>
<g id="a_node12"><a xlink:href="classsisi4s_1_1CoulombVertexReader.html#ab7a866749df48712c5b9b02d892be4d9" target="_top" xlink:title="Reads the Full Coulomb Vertex &#160;and the occupied and virtual orbital energies &#160;from binary data file,...">
<polygon fill="white" stroke="#666666" points="639.5,-379 457.5,-379 457.5,-360 639.5,-360 639.5,-379"/>
<text text-anchor="middle" x="548.5" y="-367" font-family="Helvetica,sans-Serif" font-size="10.00">sisi4s::CoulombVertexReader::run</text>
</a>
</g>
</g>
<!-- Node1&#45;&gt;Node12 -->
<g id="edge12" class="edge">
<title>Node1&#45;&gt;Node12</title>
<path fill="none" stroke="#63b8ff" d="M712.38,-338.36C695.26,-342.42 675.81,-346.86 658,-350.5 641.61,-353.85 623.74,-357.13 607.33,-360"/>
<polygon fill="#63b8ff" stroke="#63b8ff" points="713.25,-341.75 722.16,-336.02 711.62,-334.94 713.25,-341.75"/>
</g>
<!-- Node13 -->
<g id="node13" class="node">
<title>Node13</title>
<g id="a_node13"><a xlink:href="classsisi4s_1_1ParticleHoleCoulombVertexReader.html#a58665fc9e95f299e4daec496b5d64764" target="_top" xlink:title="Reads the Full Coulomb Vertex &#160;from FTODDUMP file.">
<polygon fill="white" stroke="#666666" points="624.5,-341.5 472.5,-341.5 472.5,-311.5 624.5,-311.5 624.5,-341.5"/>
<text text-anchor="start" x="480.5" y="-329.5" font-family="Helvetica,sans-Serif" font-size="10.00">sisi4s::ParticleHoleCoulomb</text>
<text text-anchor="middle" x="548.5" y="-318.5" font-family="Helvetica,sans-Serif" font-size="10.00">VertexReader::run</text>
</a>
</g>
</g>
<!-- Node1&#45;&gt;Node13 -->
<g id="edge13" class="edge">
<title>Node1&#45;&gt;Node13</title>
<path fill="none" stroke="#63b8ff" d="M683.53,-326.5C664.32,-326.5 643.75,-326.5 624.63,-326.5"/>
<polygon fill="#63b8ff" stroke="#63b8ff" points="683.74,-330 693.74,-326.5 683.74,-323 683.74,-330"/>
</g>
<!-- Node14 -->
<g id="node14" class="node">
<title>Node14</title>
<g id="a_node14"><a xlink:href="classsisi4s_1_1UCcsdEAEquationOfMotionDavidson.html#ab3fa58fddbd938517fed45a270cbd77e" target="_top" xlink:title=" ">
<polygon fill="white" stroke="#666666" points="622.5,-293.5 474.5,-293.5 474.5,-263.5 622.5,-263.5 622.5,-293.5"/>
<text text-anchor="start" x="482.5" y="-281.5" font-family="Helvetica,sans-Serif" font-size="10.00">sisi4s::UCcsdEAEquationOf</text>
<text text-anchor="middle" x="548.5" y="-270.5" font-family="Helvetica,sans-Serif" font-size="10.00">MotionDavidson::run</text>
</a>
</g>
</g>
<!-- Node1&#45;&gt;Node14 -->
<g id="edge14" class="edge">
<title>Node1&#45;&gt;Node14</title>
<path fill="none" stroke="#63b8ff" d="M710.08,-314.56C693.5,-310.67 674.97,-306.36 658,-302.5 645.11,-299.57 631.36,-296.48 618.12,-293.54"/>
<polygon fill="#63b8ff" stroke="#63b8ff" points="709.58,-318.04 720.12,-316.92 711.19,-311.23 709.58,-318.04"/>
</g>
<!-- Node15 -->
<g id="node15" class="node">
<title>Node15</title>
<g id="a_node15"><a xlink:href="classsisi4s_1_1UCcsdIPEquationOfMotionDavidson.html#a6a73d3c0c1a3ea5ad52001e8213bfbaf" target="_top" xlink:title=" ">
<polygon fill="white" stroke="#666666" points="620.5,-245.5 476.5,-245.5 476.5,-215.5 620.5,-215.5 620.5,-245.5"/>
<text text-anchor="start" x="484.5" y="-233.5" font-family="Helvetica,sans-Serif" font-size="10.00">sisi4s::UCcsdIPEquationOf</text>
<text text-anchor="middle" x="548.5" y="-222.5" font-family="Helvetica,sans-Serif" font-size="10.00">MotionDavidson::run</text>
</a>
</g>
</g>
<!-- Node1&#45;&gt;Node15 -->
<g id="edge15" class="edge">
<title>Node1&#45;&gt;Node15</title>
<path fill="none" stroke="#63b8ff" d="M742.24,-310.26C722.73,-293.77 690.24,-268.71 658,-254.5 646.26,-249.33 633.3,-245.22 620.54,-241.98"/>
<polygon fill="#63b8ff" stroke="#63b8ff" points="740.14,-313.07 750,-316.95 744.71,-307.77 740.14,-313.07"/>
</g>
<!-- Node16 -->
<g id="node16" class="node">
<title>Node16</title>
<g id="a_node16"><a xlink:href="classsisi4s_1_1UnrestrictedEquationOfMotionSinglesFromRpa.html#ade4d95a7d53a8b596e67d584e98d7f02" target="_top" xlink:title=" ">
<polygon fill="white" stroke="#666666" points="629.5,-197.5 467.5,-197.5 467.5,-167.5 629.5,-167.5 629.5,-197.5"/>
<text text-anchor="start" x="475.5" y="-185.5" font-family="Helvetica,sans-Serif" font-size="10.00">sisi4s::UnrestrictedEquation</text>
<text text-anchor="middle" x="548.5" y="-174.5" font-family="Helvetica,sans-Serif" font-size="10.00">OfMotionSinglesFromRpa::run</text>
</a>
</g>
</g>
<!-- Node1&#45;&gt;Node16 -->
<g id="edge16" class="edge">
<title>Node1&#45;&gt;Node16</title>
<path fill="none" stroke="#63b8ff" d="M750.16,-308.12C734.07,-281.34 700.47,-232 658,-206.5 649.32,-201.29 639.63,-197.2 629.72,-194"/>
<polygon fill="#63b8ff" stroke="#63b8ff" points="747.21,-310.01 755.27,-316.88 753.25,-306.48 747.21,-310.01"/>
</g>
<!-- Node17 -->
<g id="node17" class="node">
<title>Node17</title>
<g id="a_node17"><a xlink:href="classsisi4s_1_1ClusterSinglesDoublesAlgorithm.html#aa15c5a3edcb4102f112028ff53f27179" target="_top" xlink:title="Calculates and returns one slice Fabij of the residuum from the dressed Coulomb factors....">
<polygon fill="white" stroke="#666666" points="655,-149 442,-149 442,-108 655,-108 655,-149"/>
<text text-anchor="start" x="450" y="-137" font-family="Helvetica,sans-Serif" font-size="10.00">sisi4s::ClusterSinglesDoubles</text>
<text text-anchor="start" x="450" y="-126" font-family="Helvetica,sans-Serif" font-size="10.00">Algorithm::sliceAmplitudesFromCoupled</text>
<text text-anchor="middle" x="548.5" y="-115" font-family="Helvetica,sans-Serif" font-size="10.00">CoulombFactors</text>
</a>
</g>
</g>
<!-- Node1&#45;&gt;Node17 -->
<g id="edge17" class="edge">
<title>Node1&#45;&gt;Node17</title>
<path fill="none" stroke="#63b8ff" d="M754.15,-307.23C741.58,-272.15 710.15,-197.85 658,-158.5 653.32,-154.97 648.25,-151.85 642.94,-149.1"/>
<polygon fill="#63b8ff" stroke="#63b8ff" points="750.87,-308.47 757.45,-316.78 757.49,-306.18 750.87,-308.47"/>
</g>
<!-- Node19 -->
<g id="node19" class="node">
<title>Node19</title>
<g id="a_node19"><a xlink:href="classsisi4s_1_1ClusterSinglesDoublesAlgorithm.html#a4cc0b4527b8b77bdde36752e3aca89cc" target="_top" xlink:title="Calculates and returns one slice Xxycd of the Coulomb integrals &#160;coupled to the singles amplitudes....">
<polygon fill="white" stroke="#666666" points="658,-89.5 439,-89.5 439,-59.5 658,-59.5 658,-89.5"/>
<text text-anchor="start" x="447" y="-77.5" font-family="Helvetica,sans-Serif" font-size="10.00">sisi4s::ClusterSinglesDoubles</text>
<text text-anchor="middle" x="548.5" y="-66.5" font-family="Helvetica,sans-Serif" font-size="10.00">Algorithm::sliceCoupledCoulombIntegrals</text>
</a>
</g>
</g>
<!-- Node1&#45;&gt;Node19 -->
<g id="edge19" class="edge">
<title>Node1&#45;&gt;Node19</title>
<path fill="none" stroke="#63b8ff" d="M757.6,-306.9C749.96,-262.62 725.07,-154.47 658,-99.5 653.29,-95.64 648.1,-92.35 642.61,-89.55"/>
<polygon fill="#63b8ff" stroke="#63b8ff" points="754.17,-307.61 759.21,-316.93 761.08,-306.5 754.17,-307.61"/>
</g>
<!-- Node20 -->
<g id="node20" class="node">
<title>Node20</title>
<g id="a_node20"><a xlink:href="classsisi4s_1_1DoublesAmplitudesDecomposition.html#aaffeb4b10fc0077f103ac5861dd495e2" target="_top" xlink:title=" ">
<polygon fill="white" stroke="#666666" points="639.5,-41 457.5,-41 457.5,0 639.5,0 639.5,-41"/>
<text text-anchor="start" x="465.5" y="-29" font-family="Helvetica,sans-Serif" font-size="10.00">sisi4s::DoublesAmplitudes</text>
<text text-anchor="start" x="465.5" y="-18" font-family="Helvetica,sans-Serif" font-size="10.00">Decomposition::sliceLargestEigen</text>
<text text-anchor="middle" x="548.5" y="-7" font-family="Helvetica,sans-Serif" font-size="10.00">Values</text>
</a>
</g>
</g>
<!-- Node1&#45;&gt;Node20 -->
<g id="edge20" class="edge">
<title>Node1&#45;&gt;Node20</title>
<path fill="none" stroke="#63b8ff" d="M759.14,-306.8C754.58,-256.36 735.39,-121.52 658,-50.5 652.53,-45.48 646.29,-41.29 639.63,-37.79"/>
<polygon fill="#63b8ff" stroke="#63b8ff" points="755.67,-307.3 759.96,-316.98 762.65,-306.74 755.67,-307.3"/>
</g>
<!-- Node3 -->
<g id="node3" class="node">
<title>Node3</title>
<g id="a_node3"><a xlink:href="classsisi4s_1_1FiniteSizeCorrection.html#a8a7b438545c815dc93309d16208128de" target="_top" xlink:title="Calculates the finite size correction.">
<polygon fill="white" stroke="#666666" points="391,-590 221,-590 221,-571 391,-571 391,-590"/>
<text text-anchor="middle" x="306" y="-578" font-family="Helvetica,sans-Serif" font-size="10.00">sisi4s::FiniteSizeCorrection::run</text>
</a>
</g>
</g>
<!-- Node2&#45;&gt;Node3 -->
<g id="edge2" class="edge">
<title>Node2&#45;&gt;Node3</title>
<path fill="none" stroke="#63b8ff" d="M446.12,-594.38C427.79,-592.55 408.85,-590.66 391.08,-588.89"/>
<polygon fill="#63b8ff" stroke="#63b8ff" points="445.94,-597.88 456.23,-595.39 446.63,-590.92 445.94,-597.88"/>
</g>
<!-- Node5 -->
<g id="node5" class="node">
<title>Node5</title>
<g id="a_node5"><a xlink:href="classsisi4s_1_1ClusterSinglesDoublesAlgorithm.html#a8327421acb8285d0fc20f9605cfa5937" target="_top" xlink:title="Calculates an improved estimate of the amplitudes provided the given the residuum....">
<polygon fill="white" stroke="#666666" points="403,-529 209,-529 209,-488 403,-488 403,-529"/>
<text text-anchor="start" x="217" y="-517" font-family="Helvetica,sans-Serif" font-size="10.00">sisi4s::ClusterSinglesDoubles</text>
<text text-anchor="start" x="217" y="-506" font-family="Helvetica,sans-Serif" font-size="10.00">Algorithm::estimateAmplitudesFrom</text>
<text text-anchor="middle" x="306" y="-495" font-family="Helvetica,sans-Serif" font-size="10.00">Residuum</text>
</a>
</g>
</g>
<!-- Node4&#45;&gt;Node5 -->
<g id="edge4" class="edge">
<title>Node4&#45;&gt;Node5</title>
<path fill="none" stroke="#63b8ff" d="M434.99,-508.5C424.34,-508.5 413.61,-508.5 403.14,-508.5"/>
<polygon fill="#63b8ff" stroke="#63b8ff" points="435.16,-512 445.16,-508.5 435.16,-505 435.16,-512"/>
</g>
<!-- Node6 -->
<g id="node6" class="node">
<title>Node6</title>
<g id="a_node6"><a xlink:href="classsisi4s_1_1ClusterSinglesDoublesAlgorithm.html#a69e386caf7acdf30c11b476d522d7a9d" target="_top" xlink:title=" ">
<polygon fill="white" stroke="#666666" points="166.5,-571.5 6.5,-571.5 6.5,-541.5 166.5,-541.5 166.5,-571.5"/>
<text text-anchor="start" x="14.5" y="-559.5" font-family="Helvetica,sans-Serif" font-size="10.00">sisi4s::ClusterSinglesDoubles</text>
<text text-anchor="middle" x="86.5" y="-548.5" font-family="Helvetica,sans-Serif" font-size="10.00">Algorithm::run</text>
</a>
</g>
</g>
<!-- Node5&#45;&gt;Node6 -->
<g id="edge5" class="edge">
<title>Node5&#45;&gt;Node6</title>
<path fill="none" stroke="#63b8ff" d="M202.02,-531.23C186.24,-534.71 170.29,-538.23 155.51,-541.49"/>
<polygon fill="#63b8ff" stroke="#63b8ff" points="202.8,-534.64 211.81,-529.07 201.29,-527.8 202.8,-534.64"/>
</g>
<!-- Node7 -->
<g id="node7" class="node">
<title>Node7</title>
<g id="a_node7"><a xlink:href="classsisi4s_1_1ClusterSinglesDoublesTriplesAlgorithm.html#aa86fb955293c874f806a98263ab39213" target="_top" xlink:title="Calculates the energy of a ClusterSinglesDoubles algorithm.">
<polygon fill="white" stroke="#666666" points="166.5,-523.5 6.5,-523.5 6.5,-493.5 166.5,-493.5 166.5,-523.5"/>
<text text-anchor="start" x="14.5" y="-511.5" font-family="Helvetica,sans-Serif" font-size="10.00">sisi4s::ClusterSinglesDoubles</text>
<text text-anchor="middle" x="86.5" y="-500.5" font-family="Helvetica,sans-Serif" font-size="10.00">TriplesAlgorithm::run</text>
</a>
</g>
</g>
<!-- Node5&#45;&gt;Node7 -->
<g id="edge6" class="edge">
<title>Node5&#45;&gt;Node7</title>
<path fill="none" stroke="#63b8ff" d="M198.68,-508.5C187.92,-508.5 177.13,-508.5 166.73,-508.5"/>
<polygon fill="#63b8ff" stroke="#63b8ff" points="198.97,-512 208.97,-508.5 198.97,-505 198.97,-512"/>
</g>
<!-- Node8 -->
<g id="node8" class="node">
<title>Node8</title>
<g id="a_node8"><a xlink:href="classsisi4s_1_1ClusterSinglesDoublesTriplesQuadruplesAlgorithm.html#a3dec5575b0b30cead4a4965230969d73" target="_top" xlink:title="Calculates the energy of a ClusterSinglesDoubles algorithm.">
<polygon fill="white" stroke="#666666" points="173,-475.5 0,-475.5 0,-445.5 173,-445.5 173,-475.5"/>
<text text-anchor="start" x="8" y="-463.5" font-family="Helvetica,sans-Serif" font-size="10.00">sisi4s::ClusterSinglesDoubles</text>
<text text-anchor="middle" x="86.5" y="-452.5" font-family="Helvetica,sans-Serif" font-size="10.00">TriplesQuadruplesAlgorithm::run</text>
</a>
</g>
</g>
<!-- Node5&#45;&gt;Node8 -->
<g id="edge7" class="edge">
<title>Node5&#45;&gt;Node8</title>
<path fill="none" stroke="#63b8ff" d="M202.02,-485.77C186.24,-482.29 170.29,-478.77 155.51,-475.51"/>
<polygon fill="#63b8ff" stroke="#63b8ff" points="201.29,-489.2 211.81,-487.93 202.8,-482.36 201.29,-489.2"/>
</g>
<!-- Node9&#45;&gt;Node3 -->
<g id="edge9" class="edge">
<title>Node9&#45;&gt;Node3</title>
<path fill="none" stroke="#63b8ff" d="M457.26,-565.51C435.63,-567.66 412.61,-569.96 391.27,-572.09"/>
<polygon fill="#63b8ff" stroke="#63b8ff" points="457.81,-568.97 467.42,-564.49 457.12,-562 457.81,-568.97"/>
</g>
<!-- Node18 -->
<g id="node18" class="node">
<title>Node18</title>
<g id="a_node18"><a xlink:href="classsisi4s_1_1CcsdEnergyFromCoulombIntegrals.html#a5ec0fe08374df8bf74029a3eee23942c" target="_top" xlink:title="Implements the iterate method with the CCSD iteration. Iteration routine taken from So Hirata,...">
<polygon fill="white" stroke="#666666" points="394,-143.5 218,-143.5 218,-113.5 394,-113.5 394,-143.5"/>
<text text-anchor="start" x="226" y="-131.5" font-family="Helvetica,sans-Serif" font-size="10.00">sisi4s::CcsdEnergyFromCoulomb</text>
<text text-anchor="middle" x="306" y="-120.5" font-family="Helvetica,sans-Serif" font-size="10.00">Integrals::getResiduum</text>
</a>
</g>
</g>
<!-- Node17&#45;&gt;Node18 -->
<g id="edge18" class="edge">
<title>Node17&#45;&gt;Node18</title>
<path fill="none" stroke="#63b8ff" d="M431.58,-128.5C418.98,-128.5 406.31,-128.5 394.14,-128.5"/>
<polygon fill="#63b8ff" stroke="#63b8ff" points="431.66,-132 441.66,-128.5 431.66,-125 431.66,-132"/>
</g>
<!-- Node21 -->
<g id="node21" class="node">
<title>Node21</title>
<g id="a_node21"><a xlink:href="classsisi4s_1_1DoublesAmplitudesDecomposition.html#a14c9672ba5169481ab566208c359db5b" target="_top" xlink:title="Calculates left singular vectors of the particle&#45;hole Coulomb vertex .">
<polygon fill="white" stroke="#666666" points="379,-35.5 233,-35.5 233,-5.5 379,-5.5 379,-35.5"/>
<text text-anchor="start" x="241" y="-23.5" font-family="Helvetica,sans-Serif" font-size="10.00">sisi4s::DoublesAmplitudes</text>
<text text-anchor="middle" x="306" y="-12.5" font-family="Helvetica,sans-Serif" font-size="10.00">Decomposition::run</text>
</a>
</g>
</g>
<!-- Node20&#45;&gt;Node21 -->
<g id="edge21" class="edge">
<title>Node20&#45;&gt;Node21</title>
<path fill="none" stroke="#63b8ff" d="M447.23,-20.5C424.45,-20.5 400.7,-20.5 379.35,-20.5"/>
<polygon fill="#63b8ff" stroke="#63b8ff" points="447.26,-24 457.26,-20.5 447.26,-17 447.26,-24"/>
</g>
</g>
</svg>
