<?xml version="1.0" encoding="UTF-8" standalone="no"?>
<!DOCTYPE svg PUBLIC "-//W3C//DTD SVG 1.1//EN"
 "http://www.w3.org/Graphics/SVG/1.1/DTD/svg11.dtd">
<!-- Generated by graphviz version 8.1.0 (0)
 -->
<!-- Title: ghc::filesystem::detail::file_status_from_st_mode Pages: 1 -->
<svg width="1036pt" height="1263pt"
 viewBox="0.00 0.00 1036.25 1262.50" xmlns="http://www.w3.org/2000/svg" xmlns:xlink="http://www.w3.org/1999/xlink">
<g id="graph0" class="graph" transform="scale(1 1) rotate(0) translate(4 1258.5)">
<title>ghc::filesystem::detail::file_status_from_st_mode</title>
<!-- Node1 -->
<g id="Node000001" class="node">
<title>Node1</title>
<g id="a_Node000001"><a xlink:title=" ">
<polygon fill="#999999" stroke="#666666" points="1028.25,-356.5 880.25,-356.5 880.25,-323 1028.25,-323 1028.25,-356.5"/>
<text text-anchor="start" x="888.25" y="-343" font-family="Helvetica,sans-Serif" font-size="10.00">ghc::filesystem::detail</text>
<text text-anchor="middle" x="954.25" y="-330.25" font-family="Helvetica,sans-Serif" font-size="10.00">::file_status_from_st_mode</text>
</a>
</g>
</g>
<!-- Node2 -->
<g id="Node000002" class="node">
<title>Node2</title>
<g id="a_Node000002"><a xlink:href="namespaceghc_1_1filesystem_1_1detail.html#a94bff40b1f870262e0993c747311451c" target="_top" xlink:title=" ">
<polygon fill="white" stroke="#666666" points="844.25,-478.5 720.25,-478.5 720.25,-445 844.25,-445 844.25,-478.5"/>
<text text-anchor="start" x="728.25" y="-465" font-family="Helvetica,sans-Serif" font-size="10.00">ghc::filesystem::detail</text>
<text text-anchor="middle" x="782.25" y="-452.25" font-family="Helvetica,sans-Serif" font-size="10.00">::status_ex</text>
</a>
</g>
</g>
<!-- Node1&#45;&gt;Node2 -->
<g id="edge1_Node000001_Node000002" class="edge">
<title>Node1&#45;&gt;Node2</title>
<g id="a_edge1_Node000001_Node000002"><a xlink:title=" ">
<path fill="none" stroke="#63b8ff" d="M920.38,-363.34C887.17,-387.17 836.68,-423.4 807.12,-444.62"/>
<polygon fill="#63b8ff" stroke="#63b8ff" points="922.17,-365.64 928.25,-356.97 918.09,-359.96 922.17,-365.64"/>
</a>
</g>
</g>
<!-- Node26 -->
<g id="Node000026" class="node">
<title>Node26</title>
<g id="a_Node000026"><a xlink:href="namespaceghc_1_1filesystem_1_1detail.html#a48fd7805ec3035ed78c33b0f1dd23e80" target="_top" xlink:title=" ">
<polygon fill="white" stroke="#666666" points="844.25,-330.5 720.25,-330.5 720.25,-297 844.25,-297 844.25,-330.5"/>
<text text-anchor="start" x="728.25" y="-317" font-family="Helvetica,sans-Serif" font-size="10.00">ghc::filesystem::detail</text>
<text text-anchor="middle" x="782.25" y="-304.25" font-family="Helvetica,sans-Serif" font-size="10.00">::symlink_status_ex</text>
</a>
</g>
</g>
<!-- Node1&#45;&gt;Node26 -->
<g id="edge29_Node000001_Node000026" class="edge">
<title>Node1&#45;&gt;Node26</title>
<g id="a_edge29_Node000001_Node000026"><a xlink:title=" ">
<path fill="none" stroke="#63b8ff" d="M869.53,-326.95C861.1,-325.66 852.66,-324.37 844.53,-323.12"/>
<polygon fill="#63b8ff" stroke="#63b8ff" points="868.75,-330.52 879.17,-328.57 869.81,-323.6 868.75,-330.52"/>
</a>
</g>
</g>
<!-- Node2&#45;&gt;Node2 -->
<g id="edge28_Node000002_Node000002" class="edge">
<title>Node2&#45;&gt;Node2</title>
<g id="a_edge28_Node000002_Node000002"><a xlink:title=" ">
<path fill="none" stroke="#63b8ff" d="M810.81,-489.56C806.37,-493.7 796.85,-496.5 782.25,-496.5 757,-496.5 746.94,-488.12 752.07,-478.91"/>
<polygon fill="#63b8ff" stroke="#63b8ff" points="814.38,-490.33 812.43,-479.91 807.46,-489.27 814.38,-490.33"/>
</a>
</g>
</g>
<!-- Node3 -->
<g id="Node000003" class="node">
<title>Node3</title>
<g id="a_Node000003"><a xlink:href="namespaceghc_1_1filesystem.html#a71844f4df785fdb9020a0cca08d68772" target="_top" xlink:title=" ">
<polygon fill="white" stroke="#666666" points="673.38,-478.5 555.38,-478.5 555.38,-445 673.38,-445 673.38,-478.5"/>
<text text-anchor="start" x="563.38" y="-465" font-family="Helvetica,sans-Serif" font-size="10.00">ghc::filesystem::hard</text>
<text text-anchor="middle" x="614.38" y="-452.25" font-family="Helvetica,sans-Serif" font-size="10.00">_link_count</text>
</a>
</g>
</g>
<!-- Node2&#45;&gt;Node3 -->
<g id="edge2_Node000002_Node000003" class="edge">
<title>Node2&#45;&gt;Node3</title>
<g id="a_edge2_Node000002_Node000003"><a xlink:title=" ">
<path fill="none" stroke="#63b8ff" d="M709.17,-461.75C697.31,-461.75 685.14,-461.75 673.66,-461.75"/>
<polygon fill="#63b8ff" stroke="#63b8ff" points="708.96,-465.25 718.96,-461.75 708.96,-458.25 708.96,-465.25"/>
</a>
</g>
</g>
<!-- Node6 -->
<g id="Node000006" class="node">
<title>Node6</title>
<g id="a_Node000006"><a xlink:href="namespaceghc_1_1filesystem.html#a77d39983738deaaf54e19d998c33e60d" target="_top" xlink:title=" ">
<polygon fill="white" stroke="#666666" points="671.5,-426.5 557.25,-426.5 557.25,-393 671.5,-393 671.5,-426.5"/>
<text text-anchor="start" x="565.25" y="-413" font-family="Helvetica,sans-Serif" font-size="10.00">ghc::filesystem::last</text>
<text text-anchor="middle" x="614.38" y="-400.25" font-family="Helvetica,sans-Serif" font-size="10.00">_write_time</text>
</a>
</g>
</g>
<!-- Node2&#45;&gt;Node6 -->
<g id="edge5_Node000002_Node000006" class="edge">
<title>Node2&#45;&gt;Node6</title>
<g id="a_edge5_Node000002_Node000006"><a xlink:title=" ">
<path fill="none" stroke="#63b8ff" d="M716.15,-441.34C701.01,-436.6 685.03,-431.59 670.37,-426.99"/>
<polygon fill="#63b8ff" stroke="#63b8ff" points="714.89,-444.93 725.48,-444.58 716.98,-438.25 714.89,-444.93"/>
</a>
</g>
</g>
<!-- Node9 -->
<g id="Node000009" class="node">
<title>Node9</title>
<g id="a_Node000009"><a xlink:href="classghc_1_1filesystem_1_1directory__entry.html#ae7ec3fb6a1fbdeae966a8691c2f4de16" target="_top" xlink:title=" ">
<polygon fill="white" stroke="#666666" points="684.25,-1176.5 544.5,-1176.5 544.5,-1143 684.25,-1143 684.25,-1176.5"/>
<text text-anchor="start" x="552.5" y="-1163" font-family="Helvetica,sans-Serif" font-size="10.00">ghc::filesystem::directory</text>
<text text-anchor="middle" x="614.38" y="-1150.25" font-family="Helvetica,sans-Serif" font-size="10.00">_entry::refresh</text>
</a>
</g>
</g>
<!-- Node2&#45;&gt;Node9 -->
<g id="edge9_Node000002_Node000009" class="edge">
<title>Node2&#45;&gt;Node9</title>
<g id="a_edge9_Node000002_Node000009"><a xlink:title=" ">
<path fill="none" stroke="#63b8ff" d="M774.76,-489.06C747.35,-604.39 641.47,-1049.94 619.41,-1142.75"/>
<polygon fill="#63b8ff" stroke="#63b8ff" points="778.32,-490.2 777.23,-479.66 771.51,-488.58 778.32,-490.2"/>
</a>
</g>
</g>
<!-- Node13 -->
<g id="Node000013" class="node">
<title>Node13</title>
<g id="a_Node000013"><a xlink:href="namespaceghc_1_1filesystem.html#a07a1093e04d9ba754019595cb25dc975" target="_top" xlink:title=" ">
<polygon fill="white" stroke="#666666" points="677.5,-749.12 551.25,-749.12 551.25,-728.38 677.5,-728.38 677.5,-749.12"/>
<text text-anchor="middle" x="614.38" y="-735.62" font-family="Helvetica,sans-Serif" font-size="10.00">ghc::filesystem::status</text>
</a>
</g>
</g>
<!-- Node2&#45;&gt;Node13 -->
<g id="edge13_Node000002_Node000013" class="edge">
<title>Node2&#45;&gt;Node13</title>
<g id="a_edge13_Node000002_Node000013"><a xlink:title=" ">
<path fill="none" stroke="#63b8ff" d="M765.5,-488.05C730.12,-547.13 645.59,-688.29 621.74,-728.12"/>
<polygon fill="#63b8ff" stroke="#63b8ff" points="768.99,-490.04 771.12,-479.66 762.98,-486.44 768.99,-490.04"/>
</a>
</g>
</g>
<!-- Node4 -->
<g id="Node000004" class="node">
<title>Node4</title>
<g id="a_Node000004"><a xlink:href="classghc_1_1filesystem_1_1directory__entry.html#ade774f6f7531d691ab013106980d0027" target="_top" xlink:title=" ">
<polygon fill="white" stroke="#666666" points="500.62,-478.5 360.88,-478.5 360.88,-445 500.62,-445 500.62,-478.5"/>
<text text-anchor="start" x="368.88" y="-465" font-family="Helvetica,sans-Serif" font-size="10.00">ghc::filesystem::directory</text>
<text text-anchor="middle" x="430.75" y="-452.25" font-family="Helvetica,sans-Serif" font-size="10.00">_entry::hard_link_count</text>
</a>
</g>
</g>
<!-- Node3&#45;&gt;Node4 -->
<g id="edge3_Node000003_Node000004" class="edge">
<title>Node3&#45;&gt;Node4</title>
<g id="a_edge3_Node000003_Node000004"><a xlink:title=" ">
<path fill="none" stroke="#63b8ff" d="M544.22,-461.75C530.02,-461.75 515.08,-461.75 500.88,-461.75"/>
<polygon fill="#63b8ff" stroke="#63b8ff" points="543.91,-465.25 553.91,-461.75 543.91,-458.25 543.91,-465.25"/>
</a>
</g>
</g>
<!-- Node5 -->
<g id="Node000005" class="node">
<title>Node5</title>
<g id="a_Node000005"><a xlink:href="classghc_1_1filesystem_1_1directory__entry.html#aa9cb09a4d0c29cdaaee1fc41cabdc118" target="_top" xlink:title=" ">
<polygon fill="white" stroke="#666666" points="500.62,-426.5 360.88,-426.5 360.88,-393 500.62,-393 500.62,-426.5"/>
<text text-anchor="start" x="368.88" y="-413" font-family="Helvetica,sans-Serif" font-size="10.00">ghc::filesystem::directory</text>
<text text-anchor="middle" x="430.75" y="-400.25" font-family="Helvetica,sans-Serif" font-size="10.00">_entry::operator=</text>
</a>
</g>
</g>
<!-- Node3&#45;&gt;Node5 -->
<g id="edge4_Node000003_Node000005" class="edge">
<title>Node3&#45;&gt;Node5</title>
<g id="a_edge4_Node000003_Node000005"><a xlink:title=" ">
<path fill="none" stroke="#63b8ff" d="M544.34,-441.99C527.1,-437.05 508.75,-431.8 491.98,-426.99"/>
<polygon fill="#63b8ff" stroke="#63b8ff" points="543.33,-445.62 553.91,-445.01 545.26,-438.89 543.33,-445.62"/>
</a>
</g>
</g>
<!-- Node6&#45;&gt;Node5 -->
<g id="edge8_Node000006_Node000005" class="edge">
<title>Node6&#45;&gt;Node5</title>
<g id="a_edge8_Node000006_Node000005"><a xlink:title=" ">
<path fill="none" stroke="#63b8ff" d="M546.32,-409.75C531.54,-409.75 515.85,-409.75 500.98,-409.75"/>
<polygon fill="#63b8ff" stroke="#63b8ff" points="545.9,-413.25 555.9,-409.75 545.9,-406.25 545.9,-413.25"/>
</a>
</g>
</g>
<!-- Node7 -->
<g id="Node000007" class="node">
<title>Node7</title>
<g id="a_Node000007"><a xlink:href="namespaceghc_1_1filesystem.html#a099a0149ef7c7a5e22977a35e39ac072" target="_top" xlink:title=" ">
<polygon fill="white" stroke="#666666" points="500.62,-517.12 360.88,-517.12 360.88,-496.38 500.62,-496.38 500.62,-517.12"/>
<text text-anchor="middle" x="430.75" y="-503.62" font-family="Helvetica,sans-Serif" font-size="10.00">ghc::filesystem::copy_file</text>
</a>
</g>
</g>
<!-- Node6&#45;&gt;Node7 -->
<g id="edge6_Node000006_Node000007" class="edge">
<title>Node6&#45;&gt;Node7</title>
<g id="a_edge6_Node000006_Node000007"><a xlink:title=" ">
<path fill="none" stroke="#63b8ff" d="M549.02,-432.48C547.46,-433.52 545.95,-434.61 544.5,-435.75 522.35,-453.05 531.64,-471.79 508.5,-487.75 503.75,-491.02 498.5,-493.74 493.03,-495.98"/>
<polygon fill="#63b8ff" stroke="#63b8ff" points="550.51,-435.07 557.32,-426.95 546.94,-429.05 550.51,-435.07"/>
</a>
</g>
</g>
<!-- Node8 -->
<g id="Node000008" class="node">
<title>Node8</title>
<g id="a_Node000008"><a xlink:href="classghc_1_1filesystem_1_1directory__entry.html#a9efb65c02dc852ac48754a4893ddf340" target="_top" xlink:title=" ">
<polygon fill="white" stroke="#666666" points="500.62,-374.5 360.88,-374.5 360.88,-341 500.62,-341 500.62,-374.5"/>
<text text-anchor="start" x="368.88" y="-361" font-family="Helvetica,sans-Serif" font-size="10.00">ghc::filesystem::directory</text>
<text text-anchor="middle" x="430.75" y="-348.25" font-family="Helvetica,sans-Serif" font-size="10.00">_entry::last_write_time</text>
</a>
</g>
</g>
<!-- Node6&#45;&gt;Node8 -->
<g id="edge7_Node000006_Node000008" class="edge">
<title>Node6&#45;&gt;Node8</title>
<g id="a_edge7_Node000006_Node000008"><a xlink:title=" ">
<path fill="none" stroke="#63b8ff" d="M546.55,-390.62C528.68,-385.5 509.46,-380 491.96,-374.99"/>
<polygon fill="#63b8ff" stroke="#63b8ff" points="545.33,-394.19 555.9,-393.58 547.25,-387.46 545.33,-394.19"/>
</a>
</g>
</g>
<!-- Node10 -->
<g id="Node000010" class="node">
<title>Node10</title>
<g id="a_Node000010"><a xlink:href="classghc_1_1filesystem_1_1directory__entry.html#a42e5e024725713da277ad7c60cb62dfd" target="_top" xlink:title=" ">
<polygon fill="white" stroke="#666666" points="500.62,-1202.5 360.88,-1202.5 360.88,-1169 500.62,-1169 500.62,-1202.5"/>
<text text-anchor="start" x="368.88" y="-1189" font-family="Helvetica,sans-Serif" font-size="10.00">ghc::filesystem::directory</text>
<text text-anchor="middle" x="430.75" y="-1176.25" font-family="Helvetica,sans-Serif" font-size="10.00">_entry::directory_entry</text>
</a>
</g>
</g>
<!-- Node9&#45;&gt;Node10 -->
<g id="edge10_Node000009_Node000010" class="edge">
<title>Node9&#45;&gt;Node10</title>
<g id="a_edge10_Node000009_Node000010"><a xlink:title=" ">
<path fill="none" stroke="#63b8ff" d="M533.47,-1171.19C522.66,-1172.74 511.65,-1174.31 501.04,-1175.83"/>
<polygon fill="#63b8ff" stroke="#63b8ff" points="533.79,-1174.54 543.19,-1169.65 532.8,-1167.61 533.79,-1174.54"/>
</a>
</g>
</g>
<!-- Node11 -->
<g id="Node000011" class="node">
<title>Node11</title>
<g id="a_Node000011"><a xlink:href="classghc_1_1filesystem_1_1directory__entry.html#a15a1d67f8307b72d0ae8ab13b87ebaee" target="_top" xlink:title=" ">
<polygon fill="white" stroke="#666666" points="500.62,-1150.5 360.88,-1150.5 360.88,-1117 500.62,-1117 500.62,-1150.5"/>
<text text-anchor="start" x="368.88" y="-1137" font-family="Helvetica,sans-Serif" font-size="10.00">ghc::filesystem::directory</text>
<text text-anchor="middle" x="430.75" y="-1124.25" font-family="Helvetica,sans-Serif" font-size="10.00">_entry::assign</text>
</a>
</g>
</g>
<!-- Node9&#45;&gt;Node11 -->
<g id="edge11_Node000009_Node000011" class="edge">
<title>Node9&#45;&gt;Node11</title>
<g id="a_edge11_Node000009_Node000011"><a xlink:title=" ">
<path fill="none" stroke="#63b8ff" d="M533.47,-1148.31C522.66,-1146.76 511.65,-1145.19 501.04,-1143.67"/>
<polygon fill="#63b8ff" stroke="#63b8ff" points="532.8,-1151.89 543.19,-1149.85 533.79,-1144.96 532.8,-1151.89"/>
</a>
</g>
</g>
<!-- Node12 -->
<g id="Node000012" class="node">
<title>Node12</title>
<g id="a_Node000012"><a xlink:href="classghc_1_1filesystem_1_1directory__entry.html#a05e2035adac4a0a7e414a22bac702e98" target="_top" xlink:title=" ">
<polygon fill="white" stroke="#666666" points="500.62,-1254.5 360.88,-1254.5 360.88,-1221 500.62,-1221 500.62,-1254.5"/>
<text text-anchor="start" x="368.88" y="-1241" font-family="Helvetica,sans-Serif" font-size="10.00">ghc::filesystem::directory</text>
<text text-anchor="middle" x="430.75" y="-1228.25" font-family="Helvetica,sans-Serif" font-size="10.00">_entry::replace_filename</text>
</a>
</g>
</g>
<!-- Node9&#45;&gt;Node12 -->
<g id="edge12_Node000009_Node000012" class="edge">
<title>Node9&#45;&gt;Node12</title>
<g id="a_edge12_Node000009_Node000012"><a xlink:title=" ">
<path fill="none" stroke="#63b8ff" d="M572.17,-1181.77C553.08,-1191.56 529.92,-1202.86 508.5,-1211.75 501.09,-1214.82 493.18,-1217.82 485.35,-1220.62"/>
<polygon fill="#63b8ff" stroke="#63b8ff" points="573.49,-1184.52 580.76,-1176.81 570.27,-1178.3 573.49,-1184.52"/>
</a>
</g>
</g>
<!-- Node13&#45;&gt;Node5 -->
<g id="edge26_Node000013_Node000005" class="edge">
<title>Node13&#45;&gt;Node5</title>
<g id="a_edge26_Node000013_Node000005"><a xlink:title=" ">
<path fill="none" stroke="#63b8ff" d="M608.64,-717.71C594.35,-655.98 550.14,-477.12 508.5,-435.75 505.11,-432.38 501.26,-429.44 497.14,-426.89"/>
<polygon fill="#63b8ff" stroke="#63b8ff" points="605.37,-718.15 611.02,-727.12 612.2,-716.59 605.37,-718.15"/>
</a>
</g>
</g>
<!-- Node13&#45;&gt;Node7 -->
<g id="edge15_Node000013_Node000007" class="edge">
<title>Node13&#45;&gt;Node7</title>
<g id="a_edge15_Node000013_Node000007"><a xlink:title=" ">
<path fill="none" stroke="#63b8ff" d="M608.62,-717.76C598.07,-675.93 568.7,-581.81 508.5,-530.75 501.9,-525.15 493.99,-520.86 485.8,-517.56"/>
<polygon fill="#63b8ff" stroke="#63b8ff" points="605.42,-718.41 611.16,-727.31 612.23,-716.77 605.42,-718.41"/>
</a>
</g>
</g>
<!-- Node14 -->
<g id="Node000014" class="node">
<title>Node14</title>
<g id="a_Node000014"><a xlink:href="namespaceghc_1_1filesystem.html#a7b3c694c41ff9bc3881305d910fbdfe2" target="_top" xlink:title=" ">
<polygon fill="white" stroke="#666666" points="119.5,-323.12 0,-323.12 0,-302.38 119.5,-302.38 119.5,-323.12"/>
<text text-anchor="middle" x="59.75" y="-309.62" font-family="Helvetica,sans-Serif" font-size="10.00">ghc::filesystem::copy</text>
</a>
</g>
</g>
<!-- Node13&#45;&gt;Node14 -->
<g id="edge14_Node000013_Node000014" class="edge">
<title>Node13&#45;&gt;Node14</title>
<g id="a_edge14_Node000013_Node000014"><a xlink:title=" ">
<path fill="none" stroke="#63b8ff" d="M606.92,-718C594.3,-680.99 562.76,-603.75 508.5,-563.75 451.24,-521.53 417.53,-555.71 353,-525.75 231.14,-469.16 108.79,-358.34 71.93,-323.5"/>
<polygon fill="#63b8ff" stroke="#63b8ff" points="603.79,-718.69 610.23,-727.11 610.44,-716.51 603.79,-718.69"/>
</a>
</g>
</g>
<!-- Node15 -->
<g id="Node000015" class="node">
<title>Node15</title>
<g id="a_Node000015"><a xlink:href="namespaceghc_1_1filesystem.html#a19bc98b3966f5697b0f599d2712ecfda" target="_top" xlink:title=" ">
<polygon fill="white" stroke="#666666" points="494.25,-1046.5 367.25,-1046.5 367.25,-1013 494.25,-1013 494.25,-1046.5"/>
<text text-anchor="start" x="375.25" y="-1033" font-family="Helvetica,sans-Serif" font-size="10.00">ghc::filesystem::create</text>
<text text-anchor="middle" x="430.75" y="-1020.25" font-family="Helvetica,sans-Serif" font-size="10.00">_directory</text>
</a>
</g>
</g>
<!-- Node13&#45;&gt;Node15 -->
<g id="edge16_Node000013_Node000015" class="edge">
<title>Node13&#45;&gt;Node15</title>
<g id="a_edge16_Node000013_Node000015"><a xlink:title=" ">
<path fill="none" stroke="#63b8ff" d="M610.95,-760.4C604.21,-810.45 580.71,-935.08 508.5,-1003.75 504.32,-1007.72 499.51,-1011.09 494.38,-1013.95"/>
<polygon fill="#63b8ff" stroke="#63b8ff" points="614.53,-760.98 612.3,-750.62 607.59,-760.11 614.53,-760.98"/>
</a>
</g>
</g>
<!-- Node16 -->
<g id="Node000016" class="node">
<title>Node16</title>
<g id="a_Node000016"><a xlink:href="namespaceghc_1_1filesystem.html#a2d1ed5090c34c9343bb6aca0d7dadc70" target="_top" xlink:title=" ">
<polygon fill="white" stroke="#666666" points="493.5,-995.12 368,-995.12 368,-974.38 493.5,-974.38 493.5,-995.12"/>
<text text-anchor="middle" x="430.75" y="-981.62" font-family="Helvetica,sans-Serif" font-size="10.00">ghc::filesystem::exists</text>
</a>
</g>
</g>
<!-- Node13&#45;&gt;Node16 -->
<g id="edge17_Node000013_Node000016" class="edge">
<title>Node13&#45;&gt;Node16</title>
<g id="a_edge17_Node000013_Node000016"><a xlink:title=" ">
<path fill="none" stroke="#63b8ff" d="M609.85,-760.12C601.22,-805.34 574.72,-911.06 508.5,-965.75 504.05,-969.42 499,-972.4 493.66,-974.81"/>
<polygon fill="#63b8ff" stroke="#63b8ff" points="613.43,-760.98 611.75,-750.52 606.54,-759.75 613.43,-760.98"/>
</a>
</g>
</g>
<!-- Node17 -->
<g id="Node000017" class="node">
<title>Node17</title>
<g id="a_Node000017"><a xlink:href="namespaceghc_1_1filesystem.html#aadd2e81ece775bda26c76a7190495ddc" target="_top" xlink:title=" ">
<polygon fill="white" stroke="#666666" points="483,-956.5 378.5,-956.5 378.5,-923 483,-923 483,-956.5"/>
<text text-anchor="start" x="386.5" y="-943" font-family="Helvetica,sans-Serif" font-size="10.00">ghc::filesystem::is</text>
<text text-anchor="middle" x="430.75" y="-930.25" font-family="Helvetica,sans-Serif" font-size="10.00">_block_file</text>
</a>
</g>
</g>
<!-- Node13&#45;&gt;Node17 -->
<g id="edge18_Node000013_Node000017" class="edge">
<title>Node13&#45;&gt;Node17</title>
<g id="a_edge18_Node000013_Node000017"><a xlink:title=" ">
<path fill="none" stroke="#63b8ff" d="M606.38,-759.56C593.08,-796.04 560.72,-871.63 508.5,-913.75 501.16,-919.67 492.41,-924.27 483.48,-927.84"/>
<polygon fill="#63b8ff" stroke="#63b8ff" points="609.87,-761.18 609.89,-750.58 603.27,-758.85 609.87,-761.18"/>
</a>
</g>
</g>
<!-- Node18 -->
<g id="Node000018" class="node">
<title>Node18</title>
<g id="a_Node000018"><a xlink:href="namespaceghc_1_1filesystem.html#a63706fe9c6dfb7de2d384671abbf97b1" target="_top" xlink:title=" ">
<polygon fill="white" stroke="#666666" points="483,-904.5 378.5,-904.5 378.5,-871 483,-871 483,-904.5"/>
<text text-anchor="start" x="386.5" y="-891" font-family="Helvetica,sans-Serif" font-size="10.00">ghc::filesystem::is</text>
<text text-anchor="middle" x="430.75" y="-878.25" font-family="Helvetica,sans-Serif" font-size="10.00">_character_file</text>
</a>
</g>
</g>
<!-- Node13&#45;&gt;Node18 -->
<g id="edge19_Node000013_Node000018" class="edge">
<title>Node13&#45;&gt;Node18</title>
<g id="a_edge19_Node000013_Node000018"><a xlink:title=" ">
<path fill="none" stroke="#63b8ff" d="M601.42,-758.54C584.14,-785.56 549.7,-833.83 508.5,-861.75 500.81,-866.96 491.99,-871.21 483.13,-874.65"/>
<polygon fill="#63b8ff" stroke="#63b8ff" points="604.86,-760.65 607.18,-750.31 598.92,-756.94 604.86,-760.65"/>
</a>
</g>
</g>
<!-- Node19 -->
<g id="Node000019" class="node">
<title>Node19</title>
<g id="a_Node000019"><a xlink:href="namespaceghc_1_1filesystem.html#a023e40915a41c2f274a5db72000709e4" target="_top" xlink:title=" ">
<polygon fill="white" stroke="#666666" points="483,-852.5 378.5,-852.5 378.5,-819 483,-819 483,-852.5"/>
<text text-anchor="start" x="386.5" y="-839" font-family="Helvetica,sans-Serif" font-size="10.00">ghc::filesystem::is</text>
<text text-anchor="middle" x="430.75" y="-826.25" font-family="Helvetica,sans-Serif" font-size="10.00">_directory</text>
</a>
</g>
</g>
<!-- Node13&#45;&gt;Node19 -->
<g id="edge20_Node000013_Node000019" class="edge">
<title>Node13&#45;&gt;Node19</title>
<g id="a_edge20_Node000013_Node000019"><a xlink:title=" ">
<path fill="none" stroke="#63b8ff" d="M591.63,-756.04C571.13,-771.7 539.07,-794.57 508.5,-809.75 500.56,-813.69 491.88,-817.27 483.31,-820.42"/>
<polygon fill="#63b8ff" stroke="#63b8ff" points="593.43,-758.3 599.19,-749.41 589.14,-752.76 593.43,-758.3"/>
</a>
</g>
</g>
<!-- Node20 -->
<g id="Node000020" class="node">
<title>Node20</title>
<g id="a_Node000020"><a xlink:href="namespaceghc_1_1filesystem.html#a6d3162aa30975b8165ae0244b8b3742e" target="_top" xlink:title=" ">
<polygon fill="white" stroke="#666666" points="483,-800.5 378.5,-800.5 378.5,-767 483,-767 483,-800.5"/>
<text text-anchor="start" x="386.5" y="-787" font-family="Helvetica,sans-Serif" font-size="10.00">ghc::filesystem::is</text>
<text text-anchor="middle" x="430.75" y="-774.25" font-family="Helvetica,sans-Serif" font-size="10.00">_empty</text>
</a>
</g>
</g>
<!-- Node13&#45;&gt;Node20 -->
<g id="edge21_Node000013_Node000020" class="edge">
<title>Node13&#45;&gt;Node20</title>
<g id="a_edge21_Node000013_Node000020"><a xlink:title=" ">
<path fill="none" stroke="#63b8ff" d="M559.48,-752.1C535.38,-758.07 507.1,-765.08 483.29,-770.98"/>
<polygon fill="#63b8ff" stroke="#63b8ff" points="560.01,-755.33 568.87,-749.53 558.32,-748.54 560.01,-755.33"/>
</a>
</g>
</g>
<!-- Node21 -->
<g id="Node000021" class="node">
<title>Node21</title>
<g id="a_Node000021"><a xlink:href="namespaceghc_1_1filesystem.html#ac1dd7c7ac147bbc77483430f25e03562" target="_top" xlink:title=" ">
<polygon fill="white" stroke="#666666" points="493.5,-749.12 368,-749.12 368,-728.38 493.5,-728.38 493.5,-749.12"/>
<text text-anchor="middle" x="430.75" y="-735.62" font-family="Helvetica,sans-Serif" font-size="10.00">ghc::filesystem::is_fifo</text>
</a>
</g>
</g>
<!-- Node13&#45;&gt;Node21 -->
<g id="edge22_Node000013_Node000021" class="edge">
<title>Node13&#45;&gt;Node21</title>
<g id="a_edge22_Node000013_Node000021"><a xlink:title=" ">
<path fill="none" stroke="#63b8ff" d="M539.88,-738.75C524.57,-738.75 508.59,-738.75 493.75,-738.75"/>
<polygon fill="#63b8ff" stroke="#63b8ff" points="539.87,-742.25 549.87,-738.75 539.87,-735.25 539.87,-742.25"/>
</a>
</g>
</g>
<!-- Node22 -->
<g id="Node000022" class="node">
<title>Node22</title>
<g id="a_Node000022"><a xlink:href="namespaceghc_1_1filesystem.html#a773b14c6f3e10353b05669f9537949ae" target="_top" xlink:title=" ">
<polygon fill="white" stroke="#666666" points="483,-710.5 378.5,-710.5 378.5,-677 483,-677 483,-710.5"/>
<text text-anchor="start" x="386.5" y="-697" font-family="Helvetica,sans-Serif" font-size="10.00">ghc::filesystem::is</text>
<text text-anchor="middle" x="430.75" y="-684.25" font-family="Helvetica,sans-Serif" font-size="10.00">_other</text>
</a>
</g>
</g>
<!-- Node13&#45;&gt;Node22 -->
<g id="edge23_Node000013_Node000022" class="edge">
<title>Node13&#45;&gt;Node22</title>
<g id="a_edge23_Node000013_Node000022"><a xlink:title=" ">
<path fill="none" stroke="#63b8ff" d="M559.48,-725.4C535.38,-719.43 507.1,-712.42 483.29,-706.52"/>
<polygon fill="#63b8ff" stroke="#63b8ff" points="558.32,-728.96 568.87,-727.97 560.01,-722.17 558.32,-728.96"/>
</a>
</g>
</g>
<!-- Node23 -->
<g id="Node000023" class="node">
<title>Node23</title>
<g id="a_Node000023"><a xlink:href="namespaceghc_1_1filesystem.html#a4f9d4d3e915d8614778c675523c1c402" target="_top" xlink:title=" ">
<polygon fill="white" stroke="#666666" points="483,-658.5 378.5,-658.5 378.5,-625 483,-625 483,-658.5"/>
<text text-anchor="start" x="386.5" y="-645" font-family="Helvetica,sans-Serif" font-size="10.00">ghc::filesystem::is</text>
<text text-anchor="middle" x="430.75" y="-632.25" font-family="Helvetica,sans-Serif" font-size="10.00">_regular_file</text>
</a>
</g>
</g>
<!-- Node13&#45;&gt;Node23 -->
<g id="edge24_Node000013_Node000023" class="edge">
<title>Node13&#45;&gt;Node23</title>
<g id="a_edge24_Node000013_Node000023"><a xlink:title=" ">
<path fill="none" stroke="#63b8ff" d="M591.63,-721.46C571.13,-705.8 539.07,-682.93 508.5,-667.75 500.56,-663.81 491.88,-660.23 483.31,-657.08"/>
<polygon fill="#63b8ff" stroke="#63b8ff" points="589.14,-724.74 599.19,-728.09 593.43,-719.2 589.14,-724.74"/>
</a>
</g>
</g>
<!-- Node24 -->
<g id="Node000024" class="node">
<title>Node24</title>
<g id="a_Node000024"><a xlink:href="namespaceghc_1_1filesystem.html#a76a280cb3931983075b641fb5b0c4c5a" target="_top" xlink:title=" ">
<polygon fill="white" stroke="#666666" points="483,-606.5 378.5,-606.5 378.5,-573 483,-573 483,-606.5"/>
<text text-anchor="start" x="386.5" y="-593" font-family="Helvetica,sans-Serif" font-size="10.00">ghc::filesystem::is</text>
<text text-anchor="middle" x="430.75" y="-580.25" font-family="Helvetica,sans-Serif" font-size="10.00">_socket</text>
</a>
</g>
</g>
<!-- Node13&#45;&gt;Node24 -->
<g id="edge25_Node000013_Node000024" class="edge">
<title>Node13&#45;&gt;Node24</title>
<g id="a_edge25_Node000013_Node000024"><a xlink:title=" ">
<path fill="none" stroke="#63b8ff" d="M601.42,-718.96C584.14,-691.94 549.7,-643.67 508.5,-615.75 500.81,-610.54 491.99,-606.29 483.13,-602.85"/>
<polygon fill="#63b8ff" stroke="#63b8ff" points="598.92,-720.56 607.18,-727.19 604.86,-716.85 598.92,-720.56"/>
</a>
</g>
</g>
<!-- Node25 -->
<g id="Node000025" class="node">
<title>Node25</title>
<g id="a_Node000025"><a xlink:href="classghc_1_1filesystem_1_1directory__entry.html#a2e8f7e9a941a06938c9a459bc0f168cd" target="_top" xlink:title=" ">
<polygon fill="white" stroke="#666666" points="500.62,-1098.5 360.88,-1098.5 360.88,-1065 500.62,-1065 500.62,-1098.5"/>
<text text-anchor="start" x="368.88" y="-1085" font-family="Helvetica,sans-Serif" font-size="10.00">ghc::filesystem::directory</text>
<text text-anchor="middle" x="430.75" y="-1072.25" font-family="Helvetica,sans-Serif" font-size="10.00">_entry::status</text>
</a>
</g>
</g>
<!-- Node13&#45;&gt;Node25 -->
<g id="edge27_Node000013_Node000025" class="edge">
<title>Node13&#45;&gt;Node25</title>
<g id="a_edge27_Node000013_Node000025"><a xlink:title=" ">
<path fill="none" stroke="#63b8ff" d="M612.58,-760.31C609.33,-816.85 592.78,-970.86 508.5,-1055.75 505.13,-1059.14 501.3,-1062.1 497.19,-1064.66"/>
<polygon fill="#63b8ff" stroke="#63b8ff" points="616.12,-760.66 613.1,-750.51 609.13,-760.33 616.12,-760.66"/>
</a>
</g>
</g>
<!-- Node27 -->
<g id="Node000027" class="node">
<title>Node27</title>
<g id="a_Node000027"><a xlink:href="namespaceghc_1_1filesystem.html#aebf6cccf2aa8da7b8e7b7e5eb42c883b" target="_top" xlink:title=" ">
<polygon fill="white" stroke="#666666" points="682,-234.5 546.75,-234.5 546.75,-201 682,-201 682,-234.5"/>
<text text-anchor="start" x="554.75" y="-221" font-family="Helvetica,sans-Serif" font-size="10.00">ghc::filesystem::symlink</text>
<text text-anchor="middle" x="614.38" y="-208.25" font-family="Helvetica,sans-Serif" font-size="10.00">_status</text>
</a>
</g>
</g>
<!-- Node26&#45;&gt;Node27 -->
<g id="edge30_Node000026_Node000027" class="edge">
<title>Node26&#45;&gt;Node27</title>
<g id="a_edge30_Node000026_Node000027"><a xlink:title=" ">
<path fill="none" stroke="#63b8ff" d="M742.34,-291.23C712.6,-274.02 672.22,-250.65 645.05,-234.93"/>
<polygon fill="#63b8ff" stroke="#63b8ff" points="740.19,-294.61 750.59,-296.59 743.69,-288.55 740.19,-294.61"/>
</a>
</g>
</g>
<!-- Node27&#45;&gt;Node5 -->
<g id="edge35_Node000027_Node000005" class="edge">
<title>Node27&#45;&gt;Node5</title>
<g id="a_edge35_Node000027_Node000005"><a xlink:title=" ">
<path fill="none" stroke="#63b8ff" d="M603.13,-244.74C587.9,-281.34 555.91,-346.42 508.5,-383.75 504.19,-387.14 499.41,-390.11 494.41,-392.69"/>
<polygon fill="#63b8ff" stroke="#63b8ff" points="606.65,-246.37 607.14,-235.79 600.16,-243.75 606.65,-246.37"/>
</a>
</g>
</g>
<!-- Node27&#45;&gt;Node14 -->
<g id="edge31_Node000027_Node000014" class="edge">
<title>Node27&#45;&gt;Node14</title>
<g id="a_edge31_Node000027_Node000014"><a xlink:title=" ">
<path fill="none" stroke="#63b8ff" d="M588.79,-242.09C568.95,-260 539.35,-283.02 508.5,-293.75 375.67,-339.95 207.2,-330.38 119.64,-320.77"/>
<polygon fill="#63b8ff" stroke="#63b8ff" points="590.72,-245.15 595.67,-235.78 585.96,-240.01 590.72,-245.15"/>
</a>
</g>
</g>
<!-- Node28 -->
<g id="Node000028" class="node">
<title>Node28</title>
<g id="a_Node000028"><a xlink:href="namespaceghc_1_1filesystem.html#aea3ca17482acce4248ed36dde3b02815" target="_top" xlink:title=" ">
<polygon fill="white" stroke="#666666" points="483,-137.5 378.5,-137.5 378.5,-104 483,-104 483,-137.5"/>
<text text-anchor="start" x="386.5" y="-124" font-family="Helvetica,sans-Serif" font-size="10.00">ghc::filesystem::is</text>
<text text-anchor="middle" x="430.75" y="-111.25" font-family="Helvetica,sans-Serif" font-size="10.00">_symlink</text>
</a>
</g>
</g>
<!-- Node27&#45;&gt;Node28 -->
<g id="edge32_Node000027_Node000028" class="edge">
<title>Node27&#45;&gt;Node28</title>
<g id="a_edge32_Node000027_Node000028"><a xlink:title=" ">
<path fill="none" stroke="#63b8ff" d="M583.18,-194.1C562.91,-179.05 535.14,-159.98 508.5,-146.75 500.56,-142.81 491.88,-139.23 483.31,-136.08"/>
<polygon fill="#63b8ff" stroke="#63b8ff" points="580.84,-197.47 590.93,-200.7 585.05,-191.88 580.84,-197.47"/>
</a>
</g>
</g>
<!-- Node29 -->
<g id="Node000029" class="node">
<title>Node29</title>
<g id="a_Node000029"><a xlink:href="classghc_1_1filesystem_1_1directory__entry.html#af281d33567749e6558c35d72ecf9d4f8" target="_top" xlink:title=" ">
<polygon fill="white" stroke="#666666" points="500.62,-33.5 360.88,-33.5 360.88,0 500.62,0 500.62,-33.5"/>
<text text-anchor="start" x="368.88" y="-20" font-family="Helvetica,sans-Serif" font-size="10.00">ghc::filesystem::directory</text>
<text text-anchor="middle" x="430.75" y="-7.25" font-family="Helvetica,sans-Serif" font-size="10.00">_entry::is_symlink</text>
</a>
</g>
</g>
<!-- Node27&#45;&gt;Node29 -->
<g id="edge33_Node000027_Node000029" class="edge">
<title>Node27&#45;&gt;Node29</title>
<g id="a_edge33_Node000027_Node000029"><a xlink:title=" ">
<path fill="none" stroke="#63b8ff" d="M604.05,-190.68C589.52,-152.38 557.89,-82.59 508.5,-42.75 504.34,-39.39 499.72,-36.46 494.88,-33.9"/>
<polygon fill="#63b8ff" stroke="#63b8ff" points="600.96,-191.42 607.7,-199.6 607.53,-189.01 600.96,-191.42"/>
</a>
</g>
</g>
<!-- Node31 -->
<g id="Node000031" class="node">
<title>Node31</title>
<g id="a_Node000031"><a xlink:href="namespaceghc_1_1filesystem.html#a207525516cd985b88413c1827ebf573e" target="_top" xlink:title=" ">
<polygon fill="white" stroke="#666666" points="508.5,-285.12 353,-285.12 353,-264.38 508.5,-264.38 508.5,-285.12"/>
<text text-anchor="middle" x="430.75" y="-271.62" font-family="Helvetica,sans-Serif" font-size="10.00">ghc::filesystem::permissions</text>
</a>
</g>
</g>
<!-- Node27&#45;&gt;Node31 -->
<g id="edge36_Node000027_Node000031" class="edge">
<title>Node27&#45;&gt;Node31</title>
<g id="a_edge36_Node000027_Node000031"><a xlink:title=" ">
<path fill="none" stroke="#63b8ff" d="M557.13,-238.57C541.48,-244.1 524.4,-249.88 508.5,-254.75 497.97,-257.97 486.52,-261.14 475.76,-263.96"/>
<polygon fill="#63b8ff" stroke="#63b8ff" points="557.94,-241.64 566.19,-234.99 555.59,-235.05 557.94,-241.64"/>
</a>
</g>
</g>
<!-- Node32 -->
<g id="Node000032" class="node">
<title>Node32</title>
<g id="a_Node000032"><a xlink:href="namespaceghc_1_1filesystem.html#ae137f8365fc1d40f58b411d36213c154" target="_top" xlink:title=" ">
<polygon fill="white" stroke="#666666" points="489.75,-85.5 371.75,-85.5 371.75,-52 489.75,-52 489.75,-85.5"/>
<text text-anchor="start" x="379.75" y="-72" font-family="Helvetica,sans-Serif" font-size="10.00">ghc::filesystem::read</text>
<text text-anchor="middle" x="430.75" y="-59.25" font-family="Helvetica,sans-Serif" font-size="10.00">_symlink</text>
</a>
</g>
</g>
<!-- Node27&#45;&gt;Node32 -->
<g id="edge37_Node000027_Node000032" class="edge">
<title>Node27&#45;&gt;Node32</title>
<g id="a_edge37_Node000027_Node000032"><a xlink:title=" ">
<path fill="none" stroke="#63b8ff" d="M597.43,-191.82C579.16,-164.1 546.73,-120.67 508.5,-94.75 502.79,-90.88 496.46,-87.54 489.95,-84.67"/>
<polygon fill="#63b8ff" stroke="#63b8ff" points="594.94,-193.4 603.3,-199.91 600.82,-189.61 594.94,-193.4"/>
</a>
</g>
</g>
<!-- Node34 -->
<g id="Node000034" class="node">
<title>Node34</title>
<g id="a_Node000034"><a xlink:href="namespaceghc_1_1filesystem.html#a1b6f115fbbafa333441fc326a9dcb4a5" target="_top" xlink:title=" ">
<polygon fill="white" stroke="#666666" points="506.25,-228.12 355.25,-228.12 355.25,-207.38 506.25,-207.38 506.25,-228.12"/>
<text text-anchor="middle" x="430.75" y="-214.62" font-family="Helvetica,sans-Serif" font-size="10.00">ghc::filesystem::remove_all</text>
</a>
</g>
</g>
<!-- Node27&#45;&gt;Node34 -->
<g id="edge40_Node000027_Node000034" class="edge">
<title>Node27&#45;&gt;Node34</title>
<g id="a_edge40_Node000027_Node000034"><a xlink:title=" ">
<path fill="none" stroke="#63b8ff" d="M535.52,-217.75C525.91,-217.75 516.1,-217.75 506.54,-217.75"/>
<polygon fill="#63b8ff" stroke="#63b8ff" points="535.26,-221.25 545.26,-217.75 535.26,-214.25 535.26,-221.25"/>
</a>
</g>
</g>
<!-- Node35 -->
<g id="Node000035" class="node">
<title>Node35</title>
<g id="a_Node000035"><a xlink:href="classghc_1_1filesystem_1_1directory__entry.html#a7ae03cb034061d78e3dc5f8da09a02a9" target="_top" xlink:title=" ">
<polygon fill="white" stroke="#666666" points="500.62,-189.5 360.88,-189.5 360.88,-156 500.62,-156 500.62,-189.5"/>
<text text-anchor="start" x="368.88" y="-176" font-family="Helvetica,sans-Serif" font-size="10.00">ghc::filesystem::directory</text>
<text text-anchor="middle" x="430.75" y="-163.25" font-family="Helvetica,sans-Serif" font-size="10.00">_entry::symlink_status</text>
</a>
</g>
</g>
<!-- Node27&#45;&gt;Node35 -->
<g id="edge42_Node000027_Node000035" class="edge">
<title>Node27&#45;&gt;Node35</title>
<g id="a_edge42_Node000027_Node000035"><a xlink:title=" ">
<path fill="none" stroke="#63b8ff" d="M535.76,-198.52C524.22,-195.66 512.38,-192.73 501.02,-189.91"/>
<polygon fill="#63b8ff" stroke="#63b8ff" points="534.71,-202.11 545.26,-201.12 536.4,-195.32 534.71,-202.11"/>
</a>
</g>
</g>
<!-- Node30 -->
<g id="Node000030" class="node">
<title>Node30</title>
<g id="a_Node000030"><a xlink:href="classghc_1_1filesystem_1_1recursive__directory__iterator.html#acb3a481c8f98bb1264000d9835b6ed63" target="_top" xlink:title=" ">
<polygon fill="white" stroke="#666666" points="317,-33.5 155.5,-33.5 155.5,0 317,0 317,-33.5"/>
<text text-anchor="start" x="163.5" y="-20" font-family="Helvetica,sans-Serif" font-size="10.00">ghc::filesystem::recursive</text>
<text text-anchor="middle" x="236.25" y="-7.25" font-family="Helvetica,sans-Serif" font-size="10.00">_directory_iterator::increment</text>
</a>
</g>
</g>
<!-- Node29&#45;&gt;Node30 -->
<g id="edge34_Node000029_Node000030" class="edge">
<title>Node29&#45;&gt;Node30</title>
<g id="a_edge34_Node000029_Node000030"><a xlink:title=" ">
<path fill="none" stroke="#63b8ff" d="M349.54,-16.75C338.89,-16.75 327.97,-16.75 317.32,-16.75"/>
<polygon fill="#63b8ff" stroke="#63b8ff" points="349.53,-20.25 359.53,-16.75 349.53,-13.25 349.53,-20.25"/>
</a>
</g>
</g>
<!-- Node33 -->
<g id="Node000033" class="node">
<title>Node33</title>
<g id="a_Node000033"><a xlink:href="namespaceghc_1_1filesystem.html#ae53bc3ef946a2f45fb2eeb5c0cdb46b1" target="_top" xlink:title=" ">
<polygon fill="white" stroke="#666666" points="296,-185.5 176.5,-185.5 176.5,-152 296,-152 296,-185.5"/>
<text text-anchor="start" x="184.5" y="-172" font-family="Helvetica,sans-Serif" font-size="10.00">ghc::filesystem::copy</text>
<text text-anchor="middle" x="236.25" y="-159.25" font-family="Helvetica,sans-Serif" font-size="10.00">_symlink</text>
</a>
</g>
</g>
<!-- Node32&#45;&gt;Node33 -->
<g id="edge38_Node000032_Node000033" class="edge">
<title>Node32&#45;&gt;Node33</title>
<g id="a_edge38_Node000032_Node000033"><a xlink:title=" ">
<path fill="none" stroke="#63b8ff" d="M363.85,-89.89C360.14,-91.45 356.5,-93.07 353,-94.75 319.03,-111.06 282.9,-135.43 260.22,-151.69"/>
<polygon fill="#63b8ff" stroke="#63b8ff" points="364.78,-92.89 372.78,-85.93 362.19,-86.39 364.78,-92.89"/>
</a>
</g>
</g>
<!-- Node33&#45;&gt;Node14 -->
<g id="edge39_Node000033_Node000014" class="edge">
<title>Node33&#45;&gt;Node14</title>
<g id="a_edge39_Node000033_Node000014"><a xlink:title=" ">
<path fill="none" stroke="#63b8ff" d="M206.32,-192.63C167.8,-224.41 101.3,-279.29 73.52,-302.21"/>
<polygon fill="#63b8ff" stroke="#63b8ff" points="208.06,-194.9 213.55,-185.83 203.61,-189.5 208.06,-194.9"/>
</a>
</g>
</g>
<!-- Node34&#45;&gt;Node34 -->
<g id="edge41_Node000034_Node000034" class="edge">
<title>Node34&#45;&gt;Node34</title>
<g id="a_edge41_Node000034_Node000034"><a xlink:title=" ">
<path fill="none" stroke="#63b8ff" d="M463.73,-238.94C459.99,-243.14 449,-246.12 430.75,-246.12 399.19,-246.12 389.33,-237.18 401.16,-228.52"/>
<polygon fill="#63b8ff" stroke="#63b8ff" points="466.76,-237.95 460.34,-229.52 460.11,-240.11 466.76,-237.95"/>
</a>
</g>
</g>
</g>
</svg>
