<?xml version="1.0" encoding="UTF-8" standalone="no"?>
<!DOCTYPE svg PUBLIC "-//W3C//DTD SVG 1.1//EN"
 "http://www.w3.org/Graphics/SVG/1.1/DTD/svg11.dtd">
<!-- Generated by graphviz version 9.0.0 (0)
 -->
<!-- Title: ghc::filesystem::detail::status_ex Pages: 1 -->
<svg width="484pt" height="922pt"
 viewBox="0.00 0.00 483.50 921.50" xmlns="http://www.w3.org/2000/svg" xmlns:xlink="http://www.w3.org/1999/xlink">
<g id="graph0" class="graph" transform="scale(1 1) rotate(0) translate(4 917.5)">
<title>ghc::filesystem::detail::status_ex</title>
<!-- Node1 -->
<g id="Node000001" class="node">
<title>Node1</title>
<g id="a_Node000001"><a xlink:title=" ">
<polygon fill="#999999" stroke="#666666" points="475.5,-641.5 351.5,-641.5 351.5,-608 475.5,-608 475.5,-641.5"/>
<text text-anchor="start" x="359.5" y="-628" font-family="Helvetica,sans-Serif" font-size="10.00">ghc::filesystem::detail</text>
<text text-anchor="middle" x="413.5" y="-615.25" font-family="Helvetica,sans-Serif" font-size="10.00">::status_ex</text>
</a>
</g>
</g>
<!-- Node1&#45;&gt;Node1 -->
<g id="edge27_Node000001_Node000001" class="edge">
<title>Node1&#45;&gt;Node1</title>
<g id="a_edge27_Node000001_Node000001"><a xlink:title=" ">
<path fill="none" stroke="#63b8ff" d="M441.69,-652.89C437.1,-656.85 427.7,-659.5 413.5,-659.5 388.25,-659.5 378.19,-651.12 383.32,-641.91"/>
<polygon fill="#63b8ff" stroke="#63b8ff" points="445.07,-653.87 443.41,-643.4 438.18,-652.62 445.07,-653.87"/>
</a>
</g>
</g>
<!-- Node2 -->
<g id="Node000002" class="node">
<title>Node2</title>
<g id="a_Node000002"><a xlink:href="namespaceghc_1_1filesystem.html#a71844f4df785fdb9020a0cca08d68772" target="_top" xlink:title=" ">
<polygon fill="white" stroke="#666666" points="304.62,-816.5 186.62,-816.5 186.62,-783 304.62,-783 304.62,-816.5"/>
<text text-anchor="start" x="194.62" y="-803" font-family="Helvetica,sans-Serif" font-size="10.00">ghc::filesystem::hard</text>
<text text-anchor="middle" x="245.62" y="-790.25" font-family="Helvetica,sans-Serif" font-size="10.00">_link_count</text>
</a>
</g>
</g>
<!-- Node1&#45;&gt;Node2 -->
<g id="edge1_Node000001_Node000002" class="edge">
<title>Node1&#45;&gt;Node2</title>
<g id="a_edge1_Node000001_Node000002"><a xlink:title=" ">
<path fill="none" stroke="#63b8ff" d="M401.28,-651.83C386.3,-684.91 356.77,-740.55 315.5,-773.75 311.32,-777.11 306.65,-780.07 301.78,-782.67"/>
<polygon fill="#63b8ff" stroke="#63b8ff" points="404.37,-653.49 405.19,-642.93 397.97,-650.68 404.37,-653.49"/>
</a>
</g>
</g>
<!-- Node5 -->
<g id="Node000005" class="node">
<title>Node5</title>
<g id="a_Node000005"><a xlink:href="namespaceghc_1_1filesystem.html#a77d39983738deaaf54e19d998c33e60d" target="_top" xlink:title=" ">
<polygon fill="white" stroke="#666666" points="302.75,-764.5 188.5,-764.5 188.5,-731 302.75,-731 302.75,-764.5"/>
<text text-anchor="start" x="196.5" y="-751" font-family="Helvetica,sans-Serif" font-size="10.00">ghc::filesystem::last</text>
<text text-anchor="middle" x="245.62" y="-738.25" font-family="Helvetica,sans-Serif" font-size="10.00">_write_time</text>
</a>
</g>
</g>
<!-- Node1&#45;&gt;Node5 -->
<g id="edge4_Node000001_Node000005" class="edge">
<title>Node1&#45;&gt;Node5</title>
<g id="a_edge4_Node000001_Node000005"><a xlink:title=" ">
<path fill="none" stroke="#63b8ff" d="M380.35,-648.59C347.89,-672.66 298.56,-709.24 269.76,-730.59"/>
<polygon fill="#63b8ff" stroke="#63b8ff" points="382.27,-651.52 388.22,-642.75 378.1,-645.9 382.27,-651.52"/>
</a>
</g>
</g>
<!-- Node8 -->
<g id="Node000008" class="node">
<title>Node8</title>
<g id="a_Node000008"><a xlink:href="classghc_1_1filesystem_1_1directory__entry.html#ae7ec3fb6a1fbdeae966a8691c2f4de16" target="_top" xlink:title=" ">
<polygon fill="white" stroke="#666666" points="315.5,-111.5 175.75,-111.5 175.75,-78 315.5,-78 315.5,-111.5"/>
<text text-anchor="start" x="183.75" y="-98" font-family="Helvetica,sans-Serif" font-size="10.00">ghc::filesystem::directory</text>
<text text-anchor="middle" x="245.62" y="-85.25" font-family="Helvetica,sans-Serif" font-size="10.00">_entry::refresh</text>
</a>
</g>
</g>
<!-- Node1&#45;&gt;Node8 -->
<g id="edge8_Node000001_Node000008" class="edge">
<title>Node1&#45;&gt;Node8</title>
<g id="a_edge8_Node000001_Node000008"><a xlink:title=" ">
<path fill="none" stroke="#63b8ff" d="M403.8,-596.94C373.93,-501.5 276.1,-188.94 252.02,-111.99"/>
<polygon fill="#63b8ff" stroke="#63b8ff" points="400.39,-597.77 406.72,-606.27 407.07,-595.68 400.39,-597.77"/>
</a>
</g>
</g>
<!-- Node12 -->
<g id="Node000012" class="node">
<title>Node12</title>
<g id="a_Node000012"><a xlink:href="namespaceghc_1_1filesystem.html#a07a1093e04d9ba754019595cb25dc975" target="_top" xlink:title=" ">
<polygon fill="white" stroke="#666666" points="308.75,-512.12 182.5,-512.12 182.5,-491.38 308.75,-491.38 308.75,-512.12"/>
<text text-anchor="middle" x="245.62" y="-498.62" font-family="Helvetica,sans-Serif" font-size="10.00">ghc::filesystem::status</text>
</a>
</g>
</g>
<!-- Node1&#45;&gt;Node12 -->
<g id="edge12_Node000001_Node000012" class="edge">
<title>Node1&#45;&gt;Node12</title>
<g id="a_edge12_Node000001_Node000012"><a xlink:title=" ">
<path fill="none" stroke="#63b8ff" d="M380.32,-600.89C344.35,-574.21 287.66,-532.18 261.17,-512.54"/>
<polygon fill="#63b8ff" stroke="#63b8ff" points="378.1,-603.6 388.22,-606.75 382.27,-597.98 378.1,-603.6"/>
</a>
</g>
</g>
<!-- Node3 -->
<g id="Node000003" class="node">
<title>Node3</title>
<g id="a_Node000003"><a xlink:href="classghc_1_1filesystem_1_1directory__entry.html#ade774f6f7531d691ab013106980d0027" target="_top" xlink:title=" ">
<polygon fill="white" stroke="#666666" points="139.75,-913.5 0,-913.5 0,-880 139.75,-880 139.75,-913.5"/>
<text text-anchor="start" x="8" y="-900" font-family="Helvetica,sans-Serif" font-size="10.00">ghc::filesystem::directory</text>
<text text-anchor="middle" x="69.88" y="-887.25" font-family="Helvetica,sans-Serif" font-size="10.00">_entry::hard_link_count</text>
</a>
</g>
</g>
<!-- Node2&#45;&gt;Node3 -->
<g id="edge2_Node000002_Node000003" class="edge">
<title>Node2&#45;&gt;Node3</title>
<g id="a_edge2_Node000002_Node000003"><a xlink:title=" ">
<path fill="none" stroke="#63b8ff" d="M213.61,-823.58C193.34,-838.43 165.87,-857.22 139.75,-870.75 133.74,-873.87 127.26,-876.81 120.77,-879.51"/>
<polygon fill="#63b8ff" stroke="#63b8ff" points="215.5,-826.54 221.45,-817.77 211.33,-820.92 215.5,-826.54"/>
</a>
</g>
</g>
<!-- Node4 -->
<g id="Node000004" class="node">
<title>Node4</title>
<g id="a_Node000004"><a xlink:href="classghc_1_1filesystem_1_1directory__entry.html#aa9cb09a4d0c29cdaaee1fc41cabdc118" target="_top" xlink:title=" ">
<polygon fill="white" stroke="#666666" points="139.75,-809.5 0,-809.5 0,-776 139.75,-776 139.75,-809.5"/>
<text text-anchor="start" x="8" y="-796" font-family="Helvetica,sans-Serif" font-size="10.00">ghc::filesystem::directory</text>
<text text-anchor="middle" x="69.88" y="-783.25" font-family="Helvetica,sans-Serif" font-size="10.00">_entry::operator=</text>
</a>
</g>
</g>
<!-- Node2&#45;&gt;Node4 -->
<g id="edge3_Node000002_Node000004" class="edge">
<title>Node2&#45;&gt;Node4</title>
<g id="a_edge3_Node000002_Node000004"><a xlink:title=" ">
<path fill="none" stroke="#63b8ff" d="M174.99,-796.94C163.53,-796.48 151.65,-796 140.2,-795.54"/>
<polygon fill="#63b8ff" stroke="#63b8ff" points="174.64,-800.43 184.77,-797.34 174.92,-793.44 174.64,-800.43"/>
</a>
</g>
</g>
<!-- Node5&#45;&gt;Node4 -->
<g id="edge7_Node000005_Node000004" class="edge">
<title>Node5&#45;&gt;Node4</title>
<g id="a_edge7_Node000005_Node000004"><a xlink:title=" ">
<path fill="none" stroke="#63b8ff" d="M177.34,-765.18C164.19,-768.58 150.41,-772.15 137.29,-775.55"/>
<polygon fill="#63b8ff" stroke="#63b8ff" points="177.95,-768.64 186.75,-762.74 176.19,-761.86 177.95,-768.64"/>
</a>
</g>
</g>
<!-- Node6 -->
<g id="Node000006" class="node">
<title>Node6</title>
<g id="a_Node000006"><a xlink:href="namespaceghc_1_1filesystem.html#a099a0149ef7c7a5e22977a35e39ac072" target="_top" xlink:title=" ">
<polygon fill="white" stroke="#666666" points="139.75,-758.12 0,-758.12 0,-737.38 139.75,-737.38 139.75,-758.12"/>
<text text-anchor="middle" x="69.88" y="-744.62" font-family="Helvetica,sans-Serif" font-size="10.00">ghc::filesystem::copy_file</text>
</a>
</g>
</g>
<!-- Node5&#45;&gt;Node6 -->
<g id="edge5_Node000005_Node000006" class="edge">
<title>Node5&#45;&gt;Node6</title>
<g id="a_edge5_Node000005_Node000006"><a xlink:title=" ">
<path fill="none" stroke="#63b8ff" d="M176.83,-747.75C164.76,-747.75 152.17,-747.75 140.06,-747.75"/>
<polygon fill="#63b8ff" stroke="#63b8ff" points="176.7,-751.25 186.7,-747.75 176.7,-744.25 176.7,-751.25"/>
</a>
</g>
</g>
<!-- Node7 -->
<g id="Node000007" class="node">
<title>Node7</title>
<g id="a_Node000007"><a xlink:href="classghc_1_1filesystem_1_1directory__entry.html#a9efb65c02dc852ac48754a4893ddf340" target="_top" xlink:title=" ">
<polygon fill="white" stroke="#666666" points="139.75,-861.5 0,-861.5 0,-828 139.75,-828 139.75,-861.5"/>
<text text-anchor="start" x="8" y="-848" font-family="Helvetica,sans-Serif" font-size="10.00">ghc::filesystem::directory</text>
<text text-anchor="middle" x="69.88" y="-835.25" font-family="Helvetica,sans-Serif" font-size="10.00">_entry::last_write_time</text>
</a>
</g>
</g>
<!-- Node5&#45;&gt;Node7 -->
<g id="edge6_Node000005_Node000007" class="edge">
<title>Node5&#45;&gt;Node7</title>
<g id="a_edge6_Node000005_Node000007"><a xlink:title=" ">
<path fill="none" stroke="#63b8ff" d="M180.6,-770.47C178.93,-771.52 177.31,-772.61 175.75,-773.75 155.03,-788.81 160.47,-803.69 139.75,-818.75 135.2,-822.06 130.18,-824.99 124.99,-827.59"/>
<polygon fill="#63b8ff" stroke="#63b8ff" points="182.18,-773.59 189.19,-765.65 178.76,-767.49 182.18,-773.59"/>
</a>
</g>
</g>
<!-- Node9 -->
<g id="Node000009" class="node">
<title>Node9</title>
<g id="a_Node000009"><a xlink:href="classghc_1_1filesystem_1_1directory__entry.html#a42e5e024725713da277ad7c60cb62dfd" target="_top" xlink:title=" ">
<polygon fill="white" stroke="#666666" points="139.75,-137.5 0,-137.5 0,-104 139.75,-104 139.75,-137.5"/>
<text text-anchor="start" x="8" y="-124" font-family="Helvetica,sans-Serif" font-size="10.00">ghc::filesystem::directory</text>
<text text-anchor="middle" x="69.88" y="-111.25" font-family="Helvetica,sans-Serif" font-size="10.00">_entry::directory_entry</text>
</a>
</g>
</g>
<!-- Node8&#45;&gt;Node9 -->
<g id="edge9_Node000008_Node000009" class="edge">
<title>Node8&#45;&gt;Node9</title>
<g id="a_edge9_Node000008_Node000009"><a xlink:title=" ">
<path fill="none" stroke="#63b8ff" d="M164.16,-106.79C156.12,-107.99 148,-109.21 140.09,-110.39"/>
<polygon fill="#63b8ff" stroke="#63b8ff" points="164.59,-110.27 173.96,-105.32 163.55,-103.34 164.59,-110.27"/>
</a>
</g>
</g>
<!-- Node10 -->
<g id="Node000010" class="node">
<title>Node10</title>
<g id="a_Node000010"><a xlink:href="classghc_1_1filesystem_1_1directory__entry.html#a15a1d67f8307b72d0ae8ab13b87ebaee" target="_top" xlink:title=" ">
<polygon fill="white" stroke="#666666" points="139.75,-85.5 0,-85.5 0,-52 139.75,-52 139.75,-85.5"/>
<text text-anchor="start" x="8" y="-72" font-family="Helvetica,sans-Serif" font-size="10.00">ghc::filesystem::directory</text>
<text text-anchor="middle" x="69.88" y="-59.25" font-family="Helvetica,sans-Serif" font-size="10.00">_entry::assign</text>
</a>
</g>
</g>
<!-- Node8&#45;&gt;Node10 -->
<g id="edge10_Node000008_Node000010" class="edge">
<title>Node8&#45;&gt;Node10</title>
<g id="a_edge10_Node000008_Node000010"><a xlink:title=" ">
<path fill="none" stroke="#63b8ff" d="M164.16,-82.71C156.12,-81.51 148,-80.29 140.09,-79.11"/>
<polygon fill="#63b8ff" stroke="#63b8ff" points="163.55,-86.16 173.96,-84.18 164.59,-79.23 163.55,-86.16"/>
</a>
</g>
</g>
<!-- Node11 -->
<g id="Node000011" class="node">
<title>Node11</title>
<g id="a_Node000011"><a xlink:href="classghc_1_1filesystem_1_1directory__entry.html#a05e2035adac4a0a7e414a22bac702e98" target="_top" xlink:title=" ">
<polygon fill="white" stroke="#666666" points="139.75,-33.5 0,-33.5 0,0 139.75,0 139.75,-33.5"/>
<text text-anchor="start" x="8" y="-20" font-family="Helvetica,sans-Serif" font-size="10.00">ghc::filesystem::directory</text>
<text text-anchor="middle" x="69.88" y="-7.25" font-family="Helvetica,sans-Serif" font-size="10.00">_entry::replace_filename</text>
</a>
</g>
</g>
<!-- Node8&#45;&gt;Node11 -->
<g id="edge11_Node000008_Node000011" class="edge">
<title>Node8&#45;&gt;Node11</title>
<g id="a_edge11_Node000008_Node000011"><a xlink:title=" ">
<path fill="none" stroke="#63b8ff" d="M201.9,-72.36C183.05,-62.8 160.5,-51.79 139.75,-42.75 132.84,-39.74 125.45,-36.74 118.18,-33.9"/>
<polygon fill="#63b8ff" stroke="#63b8ff" points="200.11,-75.38 210.61,-76.82 203.3,-69.15 200.11,-75.38"/>
</a>
</g>
</g>
<!-- Node12&#45;&gt;Node4 -->
<g id="edge25_Node000012_Node000004" class="edge">
<title>Node12&#45;&gt;Node4</title>
<g id="a_edge25_Node000012_Node000004"><a xlink:title=" ">
<path fill="none" stroke="#63b8ff" d="M241.95,-523.87C234.75,-573.97 210.47,-697.15 139.75,-766.75 136.38,-770.07 132.54,-772.97 128.45,-775.51"/>
<polygon fill="#63b8ff" stroke="#63b8ff" points="245.41,-524.41 243.26,-514.03 238.47,-523.48 245.41,-524.41"/>
</a>
</g>
</g>
<!-- Node12&#45;&gt;Node6 -->
<g id="edge14_Node000012_Node000006" class="edge">
<title>Node12&#45;&gt;Node6</title>
<g id="a_edge14_Node000012_Node000006"><a xlink:title=" ">
<path fill="none" stroke="#63b8ff" d="M240.87,-523.56C231.91,-568.84 204.96,-673.43 139.75,-728.75 135.87,-732.04 131.47,-734.76 126.81,-737.02"/>
<polygon fill="#63b8ff" stroke="#63b8ff" points="244.27,-524.41 242.66,-513.94 237.39,-523.13 244.27,-524.41"/>
</a>
</g>
</g>
<!-- Node13 -->
<g id="Node000013" class="node">
<title>Node13</title>
<g id="a_Node000013"><a xlink:href="namespaceghc_1_1filesystem.html#a7b3c694c41ff9bc3881305d910fbdfe2" target="_top" xlink:title=" ">
<polygon fill="white" stroke="#666666" points="129.62,-266.12 10.12,-266.12 10.12,-245.38 129.62,-245.38 129.62,-266.12"/>
<text text-anchor="middle" x="69.88" y="-252.62" font-family="Helvetica,sans-Serif" font-size="10.00">ghc::filesystem::copy</text>
</a>
</g>
</g>
<!-- Node12&#45;&gt;Node13 -->
<g id="edge13_Node000012_Node000013" class="edge">
<title>Node12&#45;&gt;Node13</title>
<g id="a_edge13_Node000012_Node000013"><a xlink:title=" ">
<path fill="none" stroke="#63b8ff" d="M240.87,-479.94C231.91,-434.66 204.96,-330.07 139.75,-274.75 135.87,-271.46 131.47,-268.74 126.81,-266.48"/>
<polygon fill="#63b8ff" stroke="#63b8ff" points="237.39,-480.37 242.66,-489.56 244.27,-479.09 237.39,-480.37"/>
</a>
</g>
</g>
<!-- Node14 -->
<g id="Node000014" class="node">
<title>Node14</title>
<g id="a_Node000014"><a xlink:href="namespaceghc_1_1filesystem.html#a19bc98b3966f5697b0f599d2712ecfda" target="_top" xlink:title=" ">
<polygon fill="white" stroke="#666666" points="133.38,-227.5 6.37,-227.5 6.37,-194 133.38,-194 133.38,-227.5"/>
<text text-anchor="start" x="14.38" y="-214" font-family="Helvetica,sans-Serif" font-size="10.00">ghc::filesystem::create</text>
<text text-anchor="middle" x="69.88" y="-201.25" font-family="Helvetica,sans-Serif" font-size="10.00">_directory</text>
</a>
</g>
</g>
<!-- Node12&#45;&gt;Node14 -->
<g id="edge15_Node000012_Node000014" class="edge">
<title>Node12&#45;&gt;Node14</title>
<g id="a_edge15_Node000012_Node000014"><a xlink:title=" ">
<path fill="none" stroke="#63b8ff" d="M241.95,-479.63C234.75,-429.53 210.47,-306.35 139.75,-236.75 136.38,-233.43 132.54,-230.53 128.45,-227.99"/>
<polygon fill="#63b8ff" stroke="#63b8ff" points="238.47,-480.02 243.26,-489.47 245.41,-479.09 238.47,-480.02"/>
</a>
</g>
</g>
<!-- Node15 -->
<g id="Node000015" class="node">
<title>Node15</title>
<g id="a_Node000015"><a xlink:href="namespaceghc_1_1filesystem.html#a2d1ed5090c34c9343bb6aca0d7dadc70" target="_top" xlink:title=" ">
<polygon fill="white" stroke="#666666" points="132.62,-176.12 7.12,-176.12 7.12,-155.38 132.62,-155.38 132.62,-176.12"/>
<text text-anchor="middle" x="69.88" y="-162.62" font-family="Helvetica,sans-Serif" font-size="10.00">ghc::filesystem::exists</text>
</a>
</g>
</g>
<!-- Node12&#45;&gt;Node15 -->
<g id="edge16_Node000012_Node000015" class="edge">
<title>Node12&#45;&gt;Node15</title>
<g id="a_edge16_Node000012_Node000015"><a xlink:title=" ">
<path fill="none" stroke="#63b8ff" d="M244.1,-479.94C241.52,-422.75 226.45,-267.19 139.75,-184.75 136.33,-181.5 132.41,-178.8 128.22,-176.55"/>
<polygon fill="#63b8ff" stroke="#63b8ff" points="240.6,-479.77 244.45,-489.64 247.59,-479.52 240.6,-479.77"/>
</a>
</g>
</g>
<!-- Node16 -->
<g id="Node000016" class="node">
<title>Node16</title>
<g id="a_Node000016"><a xlink:href="namespaceghc_1_1filesystem.html#aadd2e81ece775bda26c76a7190495ddc" target="_top" xlink:title=" ">
<polygon fill="white" stroke="#666666" points="122.12,-719.5 17.62,-719.5 17.62,-686 122.12,-686 122.12,-719.5"/>
<text text-anchor="start" x="25.62" y="-706" font-family="Helvetica,sans-Serif" font-size="10.00">ghc::filesystem::is</text>
<text text-anchor="middle" x="69.88" y="-693.25" font-family="Helvetica,sans-Serif" font-size="10.00">_block_file</text>
</a>
</g>
</g>
<!-- Node12&#45;&gt;Node16 -->
<g id="edge17_Node000012_Node000016" class="edge">
<title>Node12&#45;&gt;Node16</title>
<g id="a_edge17_Node000012_Node000016"><a xlink:title=" ">
<path fill="none" stroke="#63b8ff" d="M237.3,-522.85C223.66,-559.23 191.02,-633.93 139.75,-676.75 134.55,-681.09 128.55,-684.75 122.31,-687.82"/>
<polygon fill="#63b8ff" stroke="#63b8ff" points="240.43,-524.5 240.55,-513.9 233.85,-522.11 240.43,-524.5"/>
</a>
</g>
</g>
<!-- Node17 -->
<g id="Node000017" class="node">
<title>Node17</title>
<g id="a_Node000017"><a xlink:href="namespaceghc_1_1filesystem.html#a63706fe9c6dfb7de2d384671abbf97b1" target="_top" xlink:title=" ">
<polygon fill="white" stroke="#666666" points="122.12,-667.5 17.62,-667.5 17.62,-634 122.12,-634 122.12,-667.5"/>
<text text-anchor="start" x="25.62" y="-654" font-family="Helvetica,sans-Serif" font-size="10.00">ghc::filesystem::is</text>
<text text-anchor="middle" x="69.88" y="-641.25" font-family="Helvetica,sans-Serif" font-size="10.00">_character_file</text>
</a>
</g>
</g>
<!-- Node12&#45;&gt;Node17 -->
<g id="edge18_Node000012_Node000017" class="edge">
<title>Node12&#45;&gt;Node17</title>
<g id="a_edge18_Node000012_Node000017"><a xlink:title=" ">
<path fill="none" stroke="#63b8ff" d="M232.04,-522.1C214.45,-549.03 180.08,-596.39 139.75,-624.75 134.42,-628.5 128.48,-631.79 122.38,-634.65"/>
<polygon fill="#63b8ff" stroke="#63b8ff" points="234.89,-524.14 237.32,-513.83 228.99,-520.37 234.89,-524.14"/>
</a>
</g>
</g>
<!-- Node18 -->
<g id="Node000018" class="node">
<title>Node18</title>
<g id="a_Node000018"><a xlink:href="namespaceghc_1_1filesystem.html#a023e40915a41c2f274a5db72000709e4" target="_top" xlink:title=" ">
<polygon fill="white" stroke="#666666" points="122.12,-615.5 17.62,-615.5 17.62,-582 122.12,-582 122.12,-615.5"/>
<text text-anchor="start" x="25.62" y="-602" font-family="Helvetica,sans-Serif" font-size="10.00">ghc::filesystem::is</text>
<text text-anchor="middle" x="69.88" y="-589.25" font-family="Helvetica,sans-Serif" font-size="10.00">_directory</text>
</a>
</g>
</g>
<!-- Node12&#45;&gt;Node18 -->
<g id="edge19_Node000012_Node000018" class="edge">
<title>Node12&#45;&gt;Node18</title>
<g id="a_edge19_Node000012_Node000018"><a xlink:title=" ">
<path fill="none" stroke="#63b8ff" d="M222.13,-519.26C201.52,-534.74 169.75,-557.21 139.75,-572.75 133.74,-575.87 127.26,-578.81 120.77,-581.51"/>
<polygon fill="#63b8ff" stroke="#63b8ff" points="223.99,-522.25 229.82,-513.41 219.75,-516.68 223.99,-522.25"/>
</a>
</g>
</g>
<!-- Node19 -->
<g id="Node000019" class="node">
<title>Node19</title>
<g id="a_Node000019"><a xlink:href="namespaceghc_1_1filesystem.html#a6d3162aa30975b8165ae0244b8b3742e" target="_top" xlink:title=" ">
<polygon fill="white" stroke="#666666" points="122.12,-563.5 17.62,-563.5 17.62,-530 122.12,-530 122.12,-563.5"/>
<text text-anchor="start" x="25.62" y="-550" font-family="Helvetica,sans-Serif" font-size="10.00">ghc::filesystem::is</text>
<text text-anchor="middle" x="69.88" y="-537.25" font-family="Helvetica,sans-Serif" font-size="10.00">_empty</text>
</a>
</g>
</g>
<!-- Node12&#45;&gt;Node19 -->
<g id="edge20_Node000012_Node000019" class="edge">
<title>Node12&#45;&gt;Node19</title>
<g id="a_edge20_Node000012_Node000019"><a xlink:title=" ">
<path fill="none" stroke="#63b8ff" d="M192.14,-515.34C170.04,-521.07 144.4,-527.71 122.41,-533.4"/>
<polygon fill="#63b8ff" stroke="#63b8ff" points="192.74,-518.8 201.54,-512.91 190.98,-512.03 192.74,-518.8"/>
</a>
</g>
</g>
<!-- Node20 -->
<g id="Node000020" class="node">
<title>Node20</title>
<g id="a_Node000020"><a xlink:href="namespaceghc_1_1filesystem.html#ac1dd7c7ac147bbc77483430f25e03562" target="_top" xlink:title=" ">
<polygon fill="white" stroke="#666666" points="132.62,-512.12 7.12,-512.12 7.12,-491.38 132.62,-491.38 132.62,-512.12"/>
<text text-anchor="middle" x="69.88" y="-498.62" font-family="Helvetica,sans-Serif" font-size="10.00">ghc::filesystem::is_fifo</text>
</a>
</g>
</g>
<!-- Node12&#45;&gt;Node20 -->
<g id="edge21_Node000012_Node000020" class="edge">
<title>Node12&#45;&gt;Node20</title>
<g id="a_edge21_Node000012_Node000020"><a xlink:title=" ">
<path fill="none" stroke="#63b8ff" d="M170.92,-501.75C158.28,-501.75 145.26,-501.75 132.97,-501.75"/>
<polygon fill="#63b8ff" stroke="#63b8ff" points="170.87,-505.25 180.87,-501.75 170.87,-498.25 170.87,-505.25"/>
</a>
</g>
</g>
<!-- Node21 -->
<g id="Node000021" class="node">
<title>Node21</title>
<g id="a_Node000021"><a xlink:href="namespaceghc_1_1filesystem.html#a773b14c6f3e10353b05669f9537949ae" target="_top" xlink:title=" ">
<polygon fill="white" stroke="#666666" points="122.12,-473.5 17.62,-473.5 17.62,-440 122.12,-440 122.12,-473.5"/>
<text text-anchor="start" x="25.62" y="-460" font-family="Helvetica,sans-Serif" font-size="10.00">ghc::filesystem::is</text>
<text text-anchor="middle" x="69.88" y="-447.25" font-family="Helvetica,sans-Serif" font-size="10.00">_other</text>
</a>
</g>
</g>
<!-- Node12&#45;&gt;Node21 -->
<g id="edge22_Node000012_Node000021" class="edge">
<title>Node12&#45;&gt;Node21</title>
<g id="a_edge22_Node000012_Node000021"><a xlink:title=" ">
<path fill="none" stroke="#63b8ff" d="M192.14,-488.16C170.04,-482.43 144.4,-475.79 122.41,-470.1"/>
<polygon fill="#63b8ff" stroke="#63b8ff" points="190.98,-491.47 201.54,-490.59 192.74,-484.7 190.98,-491.47"/>
</a>
</g>
</g>
<!-- Node22 -->
<g id="Node000022" class="node">
<title>Node22</title>
<g id="a_Node000022"><a xlink:href="namespaceghc_1_1filesystem.html#a4f9d4d3e915d8614778c675523c1c402" target="_top" xlink:title=" ">
<polygon fill="white" stroke="#666666" points="122.12,-421.5 17.62,-421.5 17.62,-388 122.12,-388 122.12,-421.5"/>
<text text-anchor="start" x="25.62" y="-408" font-family="Helvetica,sans-Serif" font-size="10.00">ghc::filesystem::is</text>
<text text-anchor="middle" x="69.88" y="-395.25" font-family="Helvetica,sans-Serif" font-size="10.00">_regular_file</text>
</a>
</g>
</g>
<!-- Node12&#45;&gt;Node22 -->
<g id="edge23_Node000012_Node000022" class="edge">
<title>Node12&#45;&gt;Node22</title>
<g id="a_edge23_Node000012_Node000022"><a xlink:title=" ">
<path fill="none" stroke="#63b8ff" d="M222.13,-484.24C201.52,-468.76 169.75,-446.29 139.75,-430.75 133.74,-427.63 127.26,-424.69 120.77,-421.99"/>
<polygon fill="#63b8ff" stroke="#63b8ff" points="219.75,-486.82 229.82,-490.09 223.99,-481.25 219.75,-486.82"/>
</a>
</g>
</g>
<!-- Node23 -->
<g id="Node000023" class="node">
<title>Node23</title>
<g id="a_Node000023"><a xlink:href="namespaceghc_1_1filesystem.html#a76a280cb3931983075b641fb5b0c4c5a" target="_top" xlink:title=" ">
<polygon fill="white" stroke="#666666" points="122.12,-369.5 17.62,-369.5 17.62,-336 122.12,-336 122.12,-369.5"/>
<text text-anchor="start" x="25.62" y="-356" font-family="Helvetica,sans-Serif" font-size="10.00">ghc::filesystem::is</text>
<text text-anchor="middle" x="69.88" y="-343.25" font-family="Helvetica,sans-Serif" font-size="10.00">_socket</text>
</a>
</g>
</g>
<!-- Node12&#45;&gt;Node23 -->
<g id="edge24_Node000012_Node000023" class="edge">
<title>Node12&#45;&gt;Node23</title>
<g id="a_edge24_Node000012_Node000023"><a xlink:title=" ">
<path fill="none" stroke="#63b8ff" d="M232.04,-481.4C214.45,-454.47 180.08,-407.11 139.75,-378.75 134.42,-375 128.48,-371.71 122.38,-368.85"/>
<polygon fill="#63b8ff" stroke="#63b8ff" points="228.99,-483.13 237.32,-489.67 234.89,-479.36 228.99,-483.13"/>
</a>
</g>
</g>
<!-- Node24 -->
<g id="Node000024" class="node">
<title>Node24</title>
<g id="a_Node000024"><a xlink:href="classghc_1_1filesystem_1_1directory__entry.html#a2e8f7e9a941a06938c9a459bc0f168cd" target="_top" xlink:title=" ">
<polygon fill="white" stroke="#666666" points="139.75,-317.5 0,-317.5 0,-284 139.75,-284 139.75,-317.5"/>
<text text-anchor="start" x="8" y="-304" font-family="Helvetica,sans-Serif" font-size="10.00">ghc::filesystem::directory</text>
<text text-anchor="middle" x="69.88" y="-291.25" font-family="Helvetica,sans-Serif" font-size="10.00">_entry::status</text>
</a>
</g>
</g>
<!-- Node12&#45;&gt;Node24 -->
<g id="edge26_Node000012_Node000024" class="edge">
<title>Node12&#45;&gt;Node24</title>
<g id="a_edge26_Node000012_Node000024"><a xlink:title=" ">
<path fill="none" stroke="#63b8ff" d="M237.3,-480.65C223.66,-444.27 191.02,-369.57 139.75,-326.75 135.73,-323.39 131.23,-320.44 126.51,-317.85"/>
<polygon fill="#63b8ff" stroke="#63b8ff" points="233.85,-481.39 240.55,-489.6 240.43,-479 233.85,-481.39"/>
</a>
</g>
</g>
</g>
</svg>
