<?xml version="1.0" encoding="UTF-8" standalone="no"?>
<!DOCTYPE svg PUBLIC "-//W3C//DTD SVG 1.1//EN"
 "http://www.w3.org/Graphics/SVG/1.1/DTD/svg11.dtd">
<!-- Generated by graphviz version 5.0.1 (0)
 -->
<!-- Title: CLI::detail::get_names Pages: 1 -->
<svg width="449pt" height="279pt"
 viewBox="0.00 0.00 449.00 279.00" xmlns="http://www.w3.org/2000/svg" xmlns:xlink="http://www.w3.org/1999/xlink">
<g id="graph0" class="graph" transform="scale(1 1) rotate(0) translate(4 275)">
<title>CLI::detail::get_names</title>
<!-- Node1 -->
<g id="node1" class="node">
<title>Node1</title>
<g id="a_node1"><a xlink:title="Get a vector of short names, one of long names, and a single name.">
<polygon fill="#bfbfbf" stroke="black" points="0,-123 0,-142 125,-142 125,-123 0,-123"/>
<text text-anchor="middle" x="62.5" y="-130" font-family="Helvetica,sans-Serif" font-size="10.00">CLI::detail::get_names</text>
</a>
</g>
</g>
<!-- Node2 -->
<g id="node2" class="node">
<title>Node2</title>
<g id="a_node2"><a xlink:href="classCLI_1_1BadNameString.html#a4c84dfdba8d943ad494daead50c9097d" target="_top" xlink:title=" ">
<polygon fill="none" stroke="black" points="169,-240.5 169,-270.5 283,-270.5 283,-240.5 169,-240.5"/>
<text text-anchor="start" x="177" y="-258.5" font-family="Helvetica,sans-Serif" font-size="10.00">CLI::BadNameString</text>
<text text-anchor="middle" x="226" y="-247.5" font-family="Helvetica,sans-Serif" font-size="10.00">::BadLongName</text>
</a>
</g>
</g>
<!-- Node1&#45;&gt;Node2 -->
<g id="edge1" class="edge">
<title>Node1&#45;&gt;Node2</title>
<path fill="none" stroke="midnightblue" d="M70.52,-142.02C85.26,-161.4 121.34,-205.75 161,-231.5 163.43,-233.08 165.97,-234.57 168.59,-235.98"/>
<polygon fill="midnightblue" stroke="midnightblue" points="167.19,-239.19 177.71,-240.47 170.28,-232.91 167.19,-239.19"/>
</g>
<!-- Node4 -->
<g id="node4" class="node">
<title>Node4</title>
<g id="a_node4"><a xlink:href="classCLI_1_1BadNameString.html#abd6369da75ae466d1eeef28bf764d6a7" target="_top" xlink:title=" ">
<polygon fill="none" stroke="black" points="169,-191.5 169,-221.5 283,-221.5 283,-191.5 169,-191.5"/>
<text text-anchor="start" x="177" y="-209.5" font-family="Helvetica,sans-Serif" font-size="10.00">CLI::BadNameString</text>
<text text-anchor="middle" x="226" y="-198.5" font-family="Helvetica,sans-Serif" font-size="10.00">::DashesOnly</text>
</a>
</g>
</g>
<!-- Node1&#45;&gt;Node4 -->
<g id="edge3" class="edge">
<title>Node1&#45;&gt;Node4</title>
<path fill="none" stroke="midnightblue" d="M80.82,-142.15C100.09,-152.71 132.29,-169.81 161,-182.5 164.91,-184.23 168.98,-185.94 173.1,-187.62"/>
<polygon fill="midnightblue" stroke="midnightblue" points="172.14,-191 182.72,-191.43 174.71,-184.49 172.14,-191"/>
</g>
<!-- Node5 -->
<g id="node5" class="node">
<title>Node5</title>
<g id="a_node5"><a xlink:href="classCLI_1_1BadNameString.html#ac798ab322c49c3f922e325d269070c38" target="_top" xlink:title=" ">
<polygon fill="none" stroke="black" points="161,-142.5 161,-172.5 291,-172.5 291,-142.5 161,-142.5"/>
<text text-anchor="start" x="169" y="-160.5" font-family="Helvetica,sans-Serif" font-size="10.00">CLI::BadNameString</text>
<text text-anchor="middle" x="226" y="-149.5" font-family="Helvetica,sans-Serif" font-size="10.00">::MultiPositionalNames</text>
</a>
</g>
</g>
<!-- Node1&#45;&gt;Node5 -->
<g id="edge5" class="edge">
<title>Node1&#45;&gt;Node5</title>
<path fill="none" stroke="midnightblue" d="M125.02,-142.02C133.47,-143.33 142.23,-144.69 150.88,-146.03"/>
<polygon fill="midnightblue" stroke="midnightblue" points="150.55,-149.52 160.97,-147.59 151.62,-142.6 150.55,-149.52"/>
</g>
<!-- Node6 -->
<g id="node6" class="node">
<title>Node6</title>
<g id="a_node6"><a xlink:href="classCLI_1_1BadNameString.html#a5c63c850d783ad2b132085266269bcdc" target="_top" xlink:title=" ">
<polygon fill="none" stroke="black" points="169,-93.5 169,-123.5 283,-123.5 283,-93.5 169,-93.5"/>
<text text-anchor="start" x="177" y="-111.5" font-family="Helvetica,sans-Serif" font-size="10.00">CLI::BadNameString</text>
<text text-anchor="middle" x="226" y="-100.5" font-family="Helvetica,sans-Serif" font-size="10.00">::OneCharName</text>
</a>
</g>
</g>
<!-- Node1&#45;&gt;Node6 -->
<g id="edge7" class="edge">
<title>Node1&#45;&gt;Node6</title>
<path fill="none" stroke="midnightblue" d="M125.02,-123.36C136.07,-121.72 147.64,-120 158.82,-118.33"/>
<polygon fill="midnightblue" stroke="midnightblue" points="159.58,-121.76 168.96,-116.83 158.55,-114.84 159.58,-121.76"/>
</g>
<!-- Node7 -->
<g id="node7" class="node">
<title>Node7</title>
<g id="a_node7"><a xlink:href="namespaceCLI_1_1detail.html#a3a05d1129df69e88135e178137b1fd89" target="_top" xlink:title=" ">
<polygon fill="none" stroke="black" points="336.5,-49.5 336.5,-79.5 431.5,-79.5 431.5,-49.5 336.5,-49.5"/>
<text text-anchor="start" x="344.5" y="-67.5" font-family="Helvetica,sans-Serif" font-size="10.00">CLI::detail::valid</text>
<text text-anchor="middle" x="384" y="-56.5" font-family="Helvetica,sans-Serif" font-size="10.00">_first_char</text>
</a>
</g>
</g>
<!-- Node1&#45;&gt;Node7 -->
<g id="edge9" class="edge">
<title>Node1&#45;&gt;Node7</title>
<path fill="none" stroke="midnightblue" d="M78.66,-122.82C97.26,-111.49 130.12,-93.17 161,-84.5 215.61,-69.17 280.47,-64.84 325.93,-63.94"/>
<polygon fill="midnightblue" stroke="midnightblue" points="326.24,-67.43 336.19,-63.78 326.14,-60.43 326.24,-67.43"/>
</g>
<!-- Node8 -->
<g id="node8" class="node">
<title>Node8</title>
<g id="a_node8"><a xlink:href="namespaceCLI_1_1detail.html#a4274628d24f9e3fbc719284f1db263b8" target="_top" xlink:title="Verify an option/subcommand name.">
<polygon fill="none" stroke="black" points="178.5,-5.5 178.5,-35.5 273.5,-35.5 273.5,-5.5 178.5,-5.5"/>
<text text-anchor="start" x="186.5" y="-23.5" font-family="Helvetica,sans-Serif" font-size="10.00">CLI::detail::valid</text>
<text text-anchor="middle" x="226" y="-12.5" font-family="Helvetica,sans-Serif" font-size="10.00">_name_string</text>
</a>
</g>
</g>
<!-- Node1&#45;&gt;Node8 -->
<g id="edge10" class="edge">
<title>Node1&#45;&gt;Node8</title>
<path fill="none" stroke="midnightblue" d="M73.07,-122.96C89.81,-106.62 125.97,-72.9 161,-50.5 166.77,-46.81 173.06,-43.31 179.37,-40.08"/>
<polygon fill="midnightblue" stroke="midnightblue" points="181.14,-43.11 188.58,-35.57 178.06,-36.83 181.14,-43.11"/>
</g>
<!-- Node3 -->
<g id="node3" class="node">
<title>Node3</title>
<g id="a_node3"><a xlink:href="classCLI_1_1BadNameString.html#a6d75766b91320dd6c0ce89cdca8774c2" target="_top" xlink:title=" ">
<polygon fill="none" stroke="black" points="327,-166.5 327,-196.5 441,-196.5 441,-166.5 327,-166.5"/>
<text text-anchor="start" x="335" y="-184.5" font-family="Helvetica,sans-Serif" font-size="10.00">CLI::BadNameString</text>
<text text-anchor="middle" x="384" y="-173.5" font-family="Helvetica,sans-Serif" font-size="10.00">::BadNameString</text>
</a>
</g>
</g>
<!-- Node2&#45;&gt;Node3 -->
<g id="edge2" class="edge">
<title>Node2&#45;&gt;Node3</title>
<path fill="none" stroke="midnightblue" d="M269.68,-240.44C276.87,-237.64 284.2,-234.6 291,-231.5 310.39,-222.65 331.33,-211.41 348.32,-201.83"/>
<polygon fill="midnightblue" stroke="midnightblue" points="350.36,-204.7 357.32,-196.71 346.9,-198.62 350.36,-204.7"/>
</g>
<!-- Node4&#45;&gt;Node3 -->
<g id="edge4" class="edge">
<title>Node4&#45;&gt;Node3</title>
<path fill="none" stroke="midnightblue" d="M283.32,-197.47C294.14,-195.74 305.57,-193.91 316.68,-192.13"/>
<polygon fill="midnightblue" stroke="midnightblue" points="317.44,-195.55 326.76,-190.51 316.34,-188.64 317.44,-195.55"/>
</g>
<!-- Node5&#45;&gt;Node3 -->
<g id="edge6" class="edge">
<title>Node5&#45;&gt;Node3</title>
<path fill="none" stroke="midnightblue" d="M291.35,-167.4C299.71,-168.69 308.27,-170 316.66,-171.29"/>
<polygon fill="midnightblue" stroke="midnightblue" points="316.35,-174.79 326.77,-172.85 317.42,-167.87 316.35,-174.79"/>
</g>
<!-- Node6&#45;&gt;Node3 -->
<g id="edge8" class="edge">
<title>Node6&#45;&gt;Node3</title>
<path fill="none" stroke="midnightblue" d="M267.56,-123.58C275.4,-126.71 283.51,-130.09 291,-133.5 309.82,-142.05 330.25,-152.58 347.07,-161.6"/>
<polygon fill="midnightblue" stroke="midnightblue" points="345.55,-164.76 356.01,-166.43 348.88,-158.6 345.55,-164.76"/>
</g>
<!-- Node8&#45;&gt;Node7 -->
<g id="edge11" class="edge">
<title>Node8&#45;&gt;Node7</title>
<path fill="none" stroke="midnightblue" d="M273.81,-33.7C290.39,-38.38 309.22,-43.69 326.52,-48.57"/>
<polygon fill="midnightblue" stroke="midnightblue" points="325.92,-52.04 336.5,-51.38 327.82,-45.3 325.92,-52.04"/>
</g>
<!-- Node9 -->
<g id="node9" class="node">
<title>Node9</title>
<g id="a_node9"><a xlink:href="namespaceCLI_1_1detail.html#a841371d5dbb0a52f453de4cc1d00cc51" target="_top" xlink:title="Verify following characters of an option.">
<polygon fill="none" stroke="black" points="336.5,-0.5 336.5,-30.5 431.5,-30.5 431.5,-0.5 336.5,-0.5"/>
<text text-anchor="start" x="344.5" y="-18.5" font-family="Helvetica,sans-Serif" font-size="10.00">CLI::detail::valid</text>
<text text-anchor="middle" x="384" y="-7.5" font-family="Helvetica,sans-Serif" font-size="10.00">_later_char</text>
</a>
</g>
</g>
<!-- Node8&#45;&gt;Node9 -->
<g id="edge12" class="edge">
<title>Node8&#45;&gt;Node9</title>
<path fill="none" stroke="midnightblue" d="M273.81,-19C290.23,-18.47 308.87,-17.88 326.03,-17.33"/>
<polygon fill="midnightblue" stroke="midnightblue" points="326.61,-20.81 336.5,-16.99 326.39,-13.81 326.61,-20.81"/>
</g>
</g>
</svg>
