<?xml version="1.0" encoding="UTF-8" standalone="no"?>
<!DOCTYPE svg PUBLIC "-//W3C//DTD SVG 1.1//EN"
 "http://www.w3.org/Graphics/SVG/1.1/DTD/svg11.dtd">
<!-- Generated by graphviz version 7.1.0 (0)
 -->
<!-- Title: sisi4s::toEigenMatrix Pages: 1 -->
<svg width="578pt" height="103pt"
 viewBox="0.00 0.00 578.00 103.00" xmlns="http://www.w3.org/2000/svg" xmlns:xlink="http://www.w3.org/1999/xlink">
<g id="graph0" class="graph" transform="scale(1 1) rotate(0) translate(4 99)">
<title>sisi4s::toEigenMatrix</title>
<!-- Node1 -->
<g id="node1" class="node">
<title>Node1</title>
<g id="a_node1"><a xlink:title=" ">
<polygon fill="#999999" stroke="#666666" points="570,-57 451,-57 451,-38 570,-38 570,-57"/>
<text text-anchor="middle" x="510.5" y="-45" font-family="Helvetica,sans-Serif" font-size="10.00">sisi4s::toEigenMatrix</text>
</a>
</g>
</g>
<!-- Node2 -->
<g id="node2" class="node">
<title>Node2</title>
<g id="a_node2"><a xlink:href="HartreeFockFromCoulombIntegrals_8cxx.html#ad975fce2e7f66fbfc1fa217992c552c5" target="_top" xlink:title=" ">
<polygon fill="white" stroke="#666666" points="357.5,-95 271.5,-95 271.5,-76 357.5,-76 357.5,-95"/>
<text text-anchor="middle" x="314.5" y="-83" font-family="Helvetica,sans-Serif" font-size="10.00">getFockMatrix</text>
</a>
</g>
</g>
<!-- Node1&#45;&gt;Node2 -->
<g id="edge1" class="edge">
<title>Node1&#45;&gt;Node2</title>
<path fill="none" stroke="#63b8ff" d="M447.59,-59.63C418.35,-65.35 384.2,-72.04 357.94,-77.19"/>
<polygon fill="#63b8ff" stroke="#63b8ff" points="447.9,-63.13 457.04,-57.78 446.56,-56.26 447.9,-63.13"/>
</g>
<!-- Node3 -->
<g id="node3" class="node">
<title>Node3</title>
<g id="a_node3"><a xlink:href="classsisi4s_1_1HartreeFockFromCoulombIntegrals.html#a6a4014120ac80decf9affec475f45d03" target="_top" xlink:title=" ">
<polygon fill="white" stroke="#666666" points="178,-81.5 0,-81.5 0,-51.5 178,-51.5 178,-81.5"/>
<text text-anchor="start" x="8" y="-69.5" font-family="Helvetica,sans-Serif" font-size="10.00">sisi4s::HartreeFockFromCoulomb</text>
<text text-anchor="middle" x="89" y="-58.5" font-family="Helvetica,sans-Serif" font-size="10.00">Integrals::run</text>
</a>
</g>
</g>
<!-- Node1&#45;&gt;Node3 -->
<g id="edge3" class="edge">
<title>Node1&#45;&gt;Node3</title>
<path fill="none" stroke="#63b8ff" d="M439.58,-50.67C367.87,-53.91 256.13,-58.98 178.35,-62.5"/>
<polygon fill="#63b8ff" stroke="#63b8ff" points="439.39,-54.18 449.22,-50.23 439.07,-47.19 439.39,-54.18"/>
</g>
<!-- Node4 -->
<g id="node4" class="node">
<title>Node4</title>
<g id="a_node4"><a xlink:href="classsisi4s_1_1HartreeFockFromGaussian.html#a78840a71ffbe05fbccb0a8ef6ec569af" target="_top" xlink:title=" ">
<polygon fill="white" stroke="#666666" points="415,-19 214,-19 214,0 415,0 415,-19"/>
<text text-anchor="middle" x="314.5" y="-7" font-family="Helvetica,sans-Serif" font-size="10.00">sisi4s::HartreeFockFromGaussian::run</text>
</a>
</g>
</g>
<!-- Node1&#45;&gt;Node4 -->
<g id="edge4" class="edge">
<title>Node1&#45;&gt;Node4</title>
<path fill="none" stroke="#63b8ff" d="M447.23,-35.3C421.15,-30.19 391.21,-24.33 366.47,-19.48"/>
<polygon fill="#63b8ff" stroke="#63b8ff" points="446.56,-38.74 457.04,-37.22 447.9,-31.87 446.56,-38.74"/>
</g>
<!-- Node2&#45;&gt;Node3 -->
<g id="edge2" class="edge">
<title>Node2&#45;&gt;Node3</title>
<path fill="none" stroke="#63b8ff" d="M260.01,-80.95C235.58,-78.88 206,-76.36 178.41,-74.02"/>
<polygon fill="#63b8ff" stroke="#63b8ff" points="259.43,-84.42 269.69,-81.78 260.02,-77.44 259.43,-84.42"/>
</g>
</g>
</svg>
