<?xml version="1.0" encoding="UTF-8" standalone="no"?>
<!DOCTYPE svg PUBLIC "-//W3C//DTD SVG 1.1//EN"
 "http://www.w3.org/Graphics/SVG/1.1/DTD/svg11.dtd">
<!-- Generated by graphviz version 7.0.0 (0)
 -->
<!-- Title: sisi4s::operator&lt;&lt; Pages: 1 -->
<svg width="277pt" height="142pt"
 viewBox="0.00 0.00 277.00 141.50" xmlns="http://www.w3.org/2000/svg" xmlns:xlink="http://www.w3.org/1999/xlink">
<g id="graph0" class="graph" transform="scale(1 1) rotate(0) translate(4 137.5)">
<title>sisi4s::operator&lt;&lt;</title>
<!-- Node1 -->
<g id="node1" class="node">
<title>Node1</title>
<g id="a_node1"><a xlink:title=" ">
<polygon fill="#999999" stroke="#666666" points="108,-80 0,-80 0,-61 108,-61 108,-80"/>
<text text-anchor="middle" x="54" y="-68" font-family="Helvetica,sans-Serif" font-size="10.00">sisi4s::operator&lt;&lt;</text>
</a>
</g>
</g>
<!-- Node2 -->
<g id="node2" class="node">
<title>Node2</title>
<g id="a_node2"><a xlink:href="classsisi4s_1_1SourceLocation.html#a12d3414060a42cc145109c13954e06a3" target="_top" xlink:title=" ">
<polygon fill="white" stroke="#666666" points="269,-133.5 144,-133.5 144,-103.5 269,-103.5 269,-133.5"/>
<text text-anchor="start" x="152" y="-121.5" font-family="Helvetica,sans-Serif" font-size="10.00">sisi4s::SourceLocation</text>
<text text-anchor="middle" x="206.5" y="-110.5" font-family="Helvetica,sans-Serif" font-size="10.00">::getFile</text>
</a>
</g>
</g>
<!-- Node1&#45;&gt;Node2 -->
<g id="edge1" class="edge">
<title>Node1&#45;&gt;Node2</title>
<path fill="none" stroke="#63b8ff" d="M86.18,-80.45C103.55,-85.99 125.76,-93.07 146.29,-99.62"/>
<polygon fill="#63b8ff" stroke="#63b8ff" points="145.13,-102.92 155.72,-102.62 147.26,-96.25 145.13,-102.92"/>
</g>
<!-- Node3 -->
<g id="node3" class="node">
<title>Node3</title>
<g id="a_node3"><a xlink:href="classsisi4s_1_1SourceLocation.html#ae3fa7f4644a8702a1c33d2a97e7feee4" target="_top" xlink:title=" ">
<polygon fill="white" stroke="#666666" points="269,-85.5 144,-85.5 144,-55.5 269,-55.5 269,-85.5"/>
<text text-anchor="start" x="152" y="-73.5" font-family="Helvetica,sans-Serif" font-size="10.00">sisi4s::SourceLocation</text>
<text text-anchor="middle" x="206.5" y="-62.5" font-family="Helvetica,sans-Serif" font-size="10.00">::getLine</text>
</a>
</g>
</g>
<!-- Node1&#45;&gt;Node3 -->
<g id="edge2" class="edge">
<title>Node1&#45;&gt;Node3</title>
<path fill="none" stroke="#63b8ff" d="M108.48,-70.5C116.24,-70.5 124.33,-70.5 132.38,-70.5"/>
<polygon fill="#63b8ff" stroke="#63b8ff" points="132.2,-74 142.2,-70.5 132.2,-67 132.2,-74"/>
</g>
<!-- Node4 -->
<g id="node4" class="node">
<title>Node4</title>
<g id="a_node4"><a xlink:href="FcidumpWriter_8cxx.html#a61c1198de1cc7778444ba3c329482b50" target="_top" xlink:title=" ">
<polygon fill="white" stroke="#666666" points="243.5,-19 169.5,-19 169.5,0 243.5,0 243.5,-19"/>
<text text-anchor="middle" x="206.5" y="-7" font-family="Helvetica,sans-Serif" font-size="10.00">operator&lt;&lt;</text>
</a>
</g>
</g>
<!-- Node1&#45;&gt;Node4 -->
<g id="edge3" class="edge">
<title>Node1&#45;&gt;Node4</title>
<path fill="none" stroke="#63b8ff" d="M79.52,-60.56C104.22,-50.55 142.59,-35 170.49,-23.69"/>
<polygon fill="#63b8ff" stroke="#63b8ff" points="171.64,-27 179.59,-20 169.01,-20.51 171.64,-27"/>
</g>
<!-- Node4&#45;&gt;Node4 -->
<g id="edge4" class="edge">
<title>Node4&#45;&gt;Node4</title>
<path fill="none" stroke="#63b8ff" d="M182.63,-19.37C171.74,-27.94 179.69,-37 206.5,-37 221.58,-37 230.69,-34.13 233.84,-30.1"/>
<polygon fill="#63b8ff" stroke="#63b8ff" points="237.25,-29.25 230.84,-20.81 230.59,-31.4 237.25,-29.25"/>
</g>
</g>
</svg>
