<?xml version="1.0" encoding="UTF-8" standalone="no"?>
<!DOCTYPE svg PUBLIC "-//W3C//DTD SVG 1.1//EN"
 "http://www.w3.org/Graphics/SVG/1.1/DTD/svg11.dtd">
<!-- Generated by graphviz version 5.0.1 (0)
 -->
<!-- Title: sisi4s::abs Pages: 1 -->
<svg width="681pt" height="294pt"
 viewBox="0.00 0.00 681.00 294.00" xmlns="http://www.w3.org/2000/svg" xmlns:xlink="http://www.w3.org/1999/xlink">
<g id="graph0" class="graph" transform="scale(1 1) rotate(0) translate(4 290)">
<title>sisi4s::abs</title>
<!-- Node1 -->
<g id="node1" class="node">
<title>Node1</title>
<g id="a_node1"><a xlink:title=" ">
<polygon fill="#999999" stroke="#666666" points="673,-144.5 605,-144.5 605,-125.5 673,-125.5 673,-144.5"/>
<text text-anchor="middle" x="639" y="-132.5" font-family="Helvetica,sans-Serif" font-size="10.00">sisi4s::abs</text>
</a>
</g>
</g>
<!-- Node2 -->
<g id="node2" class="node">
<title>Node2</title>
<g id="a_node2"><a xlink:href="classsisi4s_1_1Inter1D.html#a09df214d5aab2db417ef87280fe54200" target="_top" xlink:title=" ">
<polygon fill="white" stroke="#666666" points="555,-249.5 420,-249.5 420,-230.5 555,-230.5 555,-249.5"/>
<text text-anchor="middle" x="487.5" y="-237.5" font-family="Helvetica,sans-Serif" font-size="10.00">sisi4s::Inter1D::getValue</text>
</a>
</g>
</g>
<!-- Node1&#45;&gt;Node2 -->
<g id="edge1" class="edge">
<title>Node1&#45;&gt;Node2</title>
<path fill="none" stroke="#63b8ff" d="M627.02,-153.2C614.99,-171.64 594.04,-199.68 569,-216 559.35,-222.29 547.99,-226.98 536.89,-230.47"/>
<polygon fill="#63b8ff" stroke="#63b8ff" points="630.1,-154.88 632.47,-144.55 624.18,-151.15 630.1,-154.88"/>
</g>
<!-- Node7 -->
<g id="node7" class="node">
<title>Node7</title>
<g id="a_node7"><a xlink:href="classsisi4s_1_1FiniteSizeCorrection.html#a1263e86e1cfbd0547e5198c46c6eac51" target="_top" xlink:title=" ">
<polygon fill="white" stroke="#666666" points="362,-190 214,-190 214,-160 362,-160 362,-190"/>
<text text-anchor="start" x="222" y="-178" font-family="Helvetica,sans-Serif" font-size="10.00">sisi4s::FiniteSizeCorrection</text>
<text text-anchor="middle" x="288" y="-167" font-family="Helvetica,sans-Serif" font-size="10.00">::interpolation3D</text>
</a>
</g>
</g>
<!-- Node1&#45;&gt;Node7 -->
<g id="edge6" class="edge">
<title>Node1&#45;&gt;Node7</title>
<path fill="none" stroke="#63b8ff" d="M620.65,-151.61C607.6,-162.89 588.65,-176.84 569,-183 501.25,-204.25 419.71,-198.66 362.14,-189.93"/>
<polygon fill="#63b8ff" stroke="#63b8ff" points="623.24,-153.98 628.32,-144.69 618.55,-148.78 623.24,-153.98"/>
</g>
<!-- Node8 -->
<g id="node8" class="node">
<title>Node8</title>
<g id="a_node8"><a xlink:href="classsisi4s_1_1FiniteSizeCorrection.html#a5debe508e1f3f2713edc13d922058da1" target="_top" xlink:title=" ">
<polygon fill="white" stroke="#666666" points="561.5,-174 413.5,-174 413.5,-144 561.5,-144 561.5,-174"/>
<text text-anchor="start" x="421.5" y="-162" font-family="Helvetica,sans-Serif" font-size="10.00">sisi4s::FiniteSizeCorrection</text>
<text text-anchor="middle" x="487.5" y="-151" font-family="Helvetica,sans-Serif" font-size="10.00">::IsInSmallBZ</text>
</a>
</g>
</g>
<!-- Node1&#45;&gt;Node8 -->
<g id="edge8" class="edge">
<title>Node1&#45;&gt;Node8</title>
<path fill="none" stroke="#63b8ff" d="M594.8,-141.94C584.4,-143.6 573.01,-145.43 561.67,-147.25"/>
<polygon fill="#63b8ff" stroke="#63b8ff" points="595.5,-145.37 604.82,-140.33 594.39,-138.46 595.5,-145.37"/>
</g>
<!-- Node9 -->
<g id="node9" class="node">
<title>Node9</title>
<g id="a_node9"><a xlink:href="classsisi4s_1_1IterativePseudoInverse.html#a96558b1a79ac7e0bcdeb64127855241e" target="_top" xlink:title=" ">
<polygon fill="white" stroke="#666666" points="569,-126 406,-126 406,-96 569,-96 569,-126"/>
<text text-anchor="start" x="414" y="-114" font-family="Helvetica,sans-Serif" font-size="10.00">sisi4s::IterativePseudoInverse</text>
<text text-anchor="middle" x="487.5" y="-103" font-family="Helvetica,sans-Serif" font-size="10.00">::iterate</text>
</a>
</g>
</g>
<!-- Node1&#45;&gt;Node9 -->
<g id="edge10" class="edge">
<title>Node1&#45;&gt;Node9</title>
<path fill="none" stroke="#63b8ff" d="M594.92,-128.08C586.82,-126.78 578.11,-125.38 569.28,-123.97"/>
<polygon fill="#63b8ff" stroke="#63b8ff" points="594.39,-131.54 604.82,-129.67 595.5,-124.63 594.39,-131.54"/>
</g>
<!-- Node10 -->
<g id="node10" class="node">
<title>Node10</title>
<g id="a_node10"><a xlink:href="classsisi4s_1_1IterativePseudoInverse.html#a206b9b605d859aec9f8abbc15e919ed1" target="_top" xlink:title=" ">
<polygon fill="white" stroke="#666666" points="569,-78 406,-78 406,-48 569,-48 569,-78"/>
<text text-anchor="start" x="414" y="-66" font-family="Helvetica,sans-Serif" font-size="10.00">sisi4s::IterativePseudoInverse</text>
<text text-anchor="middle" x="487.5" y="-55" font-family="Helvetica,sans-Serif" font-size="10.00">::iterateQuadratically</text>
</a>
</g>
</g>
<!-- Node1&#45;&gt;Node10 -->
<g id="edge11" class="edge">
<title>Node1&#45;&gt;Node10</title>
<path fill="none" stroke="#63b8ff" d="M618.57,-118.96C605.28,-108.65 586.9,-95.62 569,-87 562.04,-83.65 554.51,-80.65 546.94,-78.01"/>
<polygon fill="#63b8ff" stroke="#63b8ff" points="616.5,-121.79 626.5,-125.27 620.85,-116.31 616.5,-121.79"/>
</g>
<!-- Node11 -->
<g id="node11" class="node">
<title>Node11</title>
<g id="a_node11"><a xlink:href="classsisi4s_1_1IterativePseudoInverse.html#a1998a3534a76b40320d273d324b2470e" target="_top" xlink:title=" ">
<polygon fill="white" stroke="#666666" points="569,-30 406,-30 406,0 569,0 569,-30"/>
<text text-anchor="start" x="414" y="-18" font-family="Helvetica,sans-Serif" font-size="10.00">sisi4s::IterativePseudoInverse</text>
<text text-anchor="middle" x="487.5" y="-7" font-family="Helvetica,sans-Serif" font-size="10.00">::test</text>
</a>
</g>
</g>
<!-- Node1&#45;&gt;Node11 -->
<g id="edge12" class="edge">
<title>Node1&#45;&gt;Node11</title>
<path fill="none" stroke="#63b8ff" d="M629.34,-116.32C618.33,-94.6 597.29,-59.14 569,-39 564.13,-35.53 558.75,-32.56 553.16,-30.01"/>
<polygon fill="#63b8ff" stroke="#63b8ff" points="626.28,-118.04 633.81,-125.5 632.58,-114.97 626.28,-118.04"/>
</g>
<!-- Node3 -->
<g id="node3" class="node">
<title>Node3</title>
<g id="a_node3"><a xlink:href="classsisi4s_1_1FiniteSizeCorrection.html#a22f55b903c4a3f38bd3e395bf51f7aa3" target="_top" xlink:title=" ">
<polygon fill="white" stroke="#666666" points="370,-238 206,-238 206,-208 370,-208 370,-238"/>
<text text-anchor="start" x="214" y="-226" font-family="Helvetica,sans-Serif" font-size="10.00">sisi4s::FiniteSizeCorrection</text>
<text text-anchor="middle" x="288" y="-215" font-family="Helvetica,sans-Serif" font-size="10.00">::calculateFiniteSizeCorrection</text>
</a>
</g>
</g>
<!-- Node2&#45;&gt;Node3 -->
<g id="edge2" class="edge">
<title>Node2&#45;&gt;Node3</title>
<path fill="none" stroke="#63b8ff" d="M409.63,-233.38C396.64,-232.26 383.12,-231.1 370.03,-229.97"/>
<polygon fill="#63b8ff" stroke="#63b8ff" points="409.65,-236.9 419.91,-234.27 410.25,-229.92 409.65,-236.9"/>
</g>
<!-- Node5 -->
<g id="node5" class="node">
<title>Node5</title>
<g id="a_node5"><a xlink:href="classsisi4s_1_1FiniteSizeCorrection.html#a0b0230201e4d274b939c205e3f0464f5" target="_top" xlink:title=" ">
<polygon fill="white" stroke="#666666" points="362,-286 214,-286 214,-256 362,-256 362,-286"/>
<text text-anchor="start" x="222" y="-274" font-family="Helvetica,sans-Serif" font-size="10.00">sisi4s::FiniteSizeCorrection</text>
<text text-anchor="middle" x="288" y="-263" font-family="Helvetica,sans-Serif" font-size="10.00">::SGxVG</text>
</a>
</g>
</g>
<!-- Node2&#45;&gt;Node5 -->
<g id="edge4" class="edge">
<title>Node2&#45;&gt;Node5</title>
<path fill="none" stroke="#63b8ff" d="M415.84,-251.09C398.47,-253.82 379.84,-256.74 362.35,-259.49"/>
<polygon fill="#63b8ff" stroke="#63b8ff" points="416.56,-254.52 425.9,-249.51 415.48,-247.6 416.56,-254.52"/>
</g>
<!-- Node4 -->
<g id="node4" class="node">
<title>Node4</title>
<g id="a_node4"><a xlink:href="classsisi4s_1_1FiniteSizeCorrection.html#a8a7b438545c815dc93309d16208128de" target="_top" xlink:title="Calculates the finite size correction.">
<polygon fill="white" stroke="#666666" points="170,-208.5 0,-208.5 0,-189.5 170,-189.5 170,-208.5"/>
<text text-anchor="middle" x="85" y="-196.5" font-family="Helvetica,sans-Serif" font-size="10.00">sisi4s::FiniteSizeCorrection::run</text>
</a>
</g>
</g>
<!-- Node3&#45;&gt;Node4 -->
<g id="edge3" class="edge">
<title>Node3&#45;&gt;Node4</title>
<path fill="none" stroke="#63b8ff" d="M195.87,-212.12C185.85,-210.92 175.71,-209.71 165.85,-208.53"/>
<polygon fill="#63b8ff" stroke="#63b8ff" points="195.48,-215.6 205.82,-213.31 196.31,-208.65 195.48,-215.6"/>
</g>
<!-- Node6 -->
<g id="node6" class="node">
<title>Node6</title>
<g id="a_node6"><a xlink:href="classsisi4s_1_1FiniteSizeCorrection.html#a8e228d06ce5699114b77698c9c0ddbee" target="_top" xlink:title=" ">
<polygon fill="white" stroke="#666666" points="159,-286 11,-286 11,-256 159,-256 159,-286"/>
<text text-anchor="start" x="19" y="-274" font-family="Helvetica,sans-Serif" font-size="10.00">sisi4s::FiniteSizeCorrection</text>
<text text-anchor="middle" x="85" y="-263" font-family="Helvetica,sans-Serif" font-size="10.00">::simpson</text>
</a>
</g>
</g>
<!-- Node5&#45;&gt;Node6 -->
<g id="edge5" class="edge">
<title>Node5&#45;&gt;Node6</title>
<path fill="none" stroke="#63b8ff" d="M203.71,-271C188.9,-271 173.58,-271 159.08,-271"/>
<polygon fill="#63b8ff" stroke="#63b8ff" points="203.87,-274.5 213.87,-271 203.87,-267.5 203.87,-274.5"/>
</g>
<!-- Node7&#45;&gt;Node4 -->
<g id="edge7" class="edge">
<title>Node7&#45;&gt;Node4</title>
<path fill="none" stroke="#63b8ff" d="M203.88,-184.92C191.31,-186.43 178.37,-187.97 165.87,-189.46"/>
<polygon fill="#63b8ff" stroke="#63b8ff" points="204.35,-188.39 213.87,-183.73 203.52,-181.44 204.35,-188.39"/>
</g>
<!-- Node8&#45;&gt;Node7 -->
<g id="edge9" class="edge">
<title>Node8&#45;&gt;Node7</title>
<path fill="none" stroke="#63b8ff" d="M402.96,-165.77C389.39,-166.87 375.44,-168 362.14,-169.07"/>
<polygon fill="#63b8ff" stroke="#63b8ff" points="403.55,-169.23 413.24,-164.94 402.99,-162.25 403.55,-169.23"/>
</g>
</g>
</svg>
