<?xml version="1.0" encoding="UTF-8" standalone="no"?>
<!DOCTYPE svg PUBLIC "-//W3C//DTD SVG 1.1//EN"
 "http://www.w3.org/Graphics/SVG/1.1/DTD/svg11.dtd">
<!-- Generated by graphviz version 5.0.1 (0)
 -->
<!-- Title: CLI::detail::overflowCheck Pages: 1 -->
<svg width="255pt" height="46pt"
 viewBox="0.00 0.00 255.00 46.00" xmlns="http://www.w3.org/2000/svg" xmlns:xlink="http://www.w3.org/1999/xlink">
<g id="graph0" class="graph" transform="scale(1 1) rotate(0) translate(4 42)">
<title>CLI::detail::overflowCheck</title>
<!-- Node1 -->
<g id="node1" class="node">
<title>Node1</title>
<g id="a_node1"><a xlink:title="Do a check for overflow on signed numbers.">
<polygon fill="#bfbfbf" stroke="black" points="0,-0.5 0,-19.5 143,-19.5 143,-0.5 0,-0.5"/>
<text text-anchor="middle" x="71.5" y="-7.5" font-family="Helvetica,sans-Serif" font-size="10.00">CLI::detail::overflowCheck</text>
</a>
</g>
</g>
<!-- Node2 -->
<g id="node2" class="node">
<title>Node2</title>
<g id="a_node2"><a xlink:href="namespacesisi4s.html#ab4577a58307bc686ea6f58bc3d0249d3" target="_top" xlink:title=" ">
<polygon fill="none" stroke="black" points="179,-0.5 179,-19.5 247,-19.5 247,-0.5 179,-0.5"/>
<text text-anchor="middle" x="213" y="-7.5" font-family="Helvetica,sans-Serif" font-size="10.00">sisi4s::abs</text>
</a>
</g>
</g>
<!-- Node1&#45;&gt;Node2 -->
<g id="edge1" class="edge">
<title>Node1&#45;&gt;Node2</title>
<path fill="none" stroke="midnightblue" d="M143.07,-10C151.71,-10 160.34,-10 168.42,-10"/>
<polygon fill="midnightblue" stroke="midnightblue" points="168.69,-13.5 178.69,-10 168.69,-6.5 168.69,-13.5"/>
</g>
<!-- Node2&#45;&gt;Node2 -->
<g id="edge2" class="edge">
<title>Node2&#45;&gt;Node2</title>
<path fill="none" stroke="midnightblue" d="M191.42,-19.76C180.92,-28.57 188.12,-38 213,-38 228.94,-38 237.62,-34.13 239.04,-29.03"/>
<polygon fill="midnightblue" stroke="midnightblue" points="242.07,-27.25 234.58,-19.76 235.76,-30.29 242.07,-27.25"/>
</g>
</g>
</svg>
