<?xml version="1.0" encoding="UTF-8" standalone="no"?>
<!DOCTYPE svg PUBLIC "-//W3C//DTD SVG 1.1//EN"
 "http://www.w3.org/Graphics/SVG/1.1/DTD/svg11.dtd">
<!-- Generated by graphviz version 5.0.1 (0)
 -->
<!-- Title: CLI::detail::to_string Pages: 1 -->
<svg width="269pt" height="104pt"
 viewBox="0.00 0.00 269.00 104.00" xmlns="http://www.w3.org/2000/svg" xmlns:xlink="http://www.w3.org/1999/xlink">
<g id="graph0" class="graph" transform="scale(1 1) rotate(0) translate(4 100)">
<title>CLI::detail::to_string</title>
<!-- Node1 -->
<g id="node1" class="node">
<title>Node1</title>
<g id="a_node1"><a xlink:title="Convert an object to a string (directly forward if this can become a string)">
<polygon fill="#999999" stroke="#666666" points="261,-48.5 147,-48.5 147,-29.5 261,-29.5 261,-48.5"/>
<text text-anchor="middle" x="204" y="-36.5" font-family="Helvetica,sans-Serif" font-size="10.00">CLI::detail::to_string</text>
</a>
</g>
</g>
<!-- Node1&#45;&gt;Node1 -->
<g id="edge3" class="edge">
<title>Node1&#45;&gt;Node1</title>
<path fill="none" stroke="#63b8ff" d="M231.53,-57.69C230.03,-62.7 220.85,-66.5 204,-66.5 177.7,-66.5 170.09,-57.23 181.19,-48.58"/>
<polygon fill="#63b8ff" stroke="#63b8ff" points="234.52,-55.85 226.81,-48.58 228.3,-59.07 234.52,-55.85"/>
</g>
<!-- Node2 -->
<g id="node2" class="node">
<title>Node2</title>
<g id="a_node2"><a xlink:href="namespaceCLI_1_1detail.html#a1bcb244a7701fc68da3a863b58daf615" target="_top" xlink:title="special template overload">
<polygon fill="white" stroke="#666666" points="111,-78 0,-78 0,-48 111,-48 111,-78"/>
<text text-anchor="start" x="8" y="-66" font-family="Helvetica,sans-Serif" font-size="10.00">CLI::detail::checked</text>
<text text-anchor="middle" x="55.5" y="-55" font-family="Helvetica,sans-Serif" font-size="10.00">_to_string</text>
</a>
</g>
</g>
<!-- Node1&#45;&gt;Node2 -->
<g id="edge1" class="edge">
<title>Node1&#45;&gt;Node2</title>
<path fill="none" stroke="#63b8ff" d="M136.86,-49.84C128.33,-51.23 119.68,-52.65 111.36,-54.01"/>
<polygon fill="#63b8ff" stroke="#63b8ff" points="137.48,-53.28 146.78,-48.21 136.34,-46.37 137.48,-53.28"/>
</g>
<!-- Node3 -->
<g id="node3" class="node">
<title>Node3</title>
<g id="a_node3"><a xlink:href="namespaceCLI_1_1detail.html#a130e048f492ea4619246e2f4cabaf4ac" target="_top" xlink:title="for other types just use the regular to_string function">
<polygon fill="white" stroke="#666666" points="104.5,-30 6.5,-30 6.5,0 104.5,0 104.5,-30"/>
<text text-anchor="start" x="14.5" y="-18" font-family="Helvetica,sans-Serif" font-size="10.00">CLI::detail::value</text>
<text text-anchor="middle" x="55.5" y="-7" font-family="Helvetica,sans-Serif" font-size="10.00">_string</text>
</a>
</g>
</g>
<!-- Node1&#45;&gt;Node3 -->
<g id="edge4" class="edge">
<title>Node1&#45;&gt;Node3</title>
<path fill="none" stroke="#63b8ff" d="M136.91,-28.17C126.06,-26.4 115,-24.58 104.7,-22.9"/>
<polygon fill="#63b8ff" stroke="#63b8ff" points="136.34,-31.63 146.78,-29.79 137.48,-24.72 136.34,-31.63"/>
</g>
<!-- Node2&#45;&gt;Node2 -->
<g id="edge2" class="edge">
<title>Node2&#45;&gt;Node2</title>
<path fill="none" stroke="#63b8ff" d="M81.41,-88.6C77.87,-92.97 69.23,-96 55.5,-96 32.37,-96 23.7,-87.41 29.48,-78.28"/>
<polygon fill="#63b8ff" stroke="#63b8ff" points="84.91,-88.31 81.52,-78.28 77.91,-88.24 84.91,-88.31"/>
</g>
</g>
</svg>
