<?xml version="1.0" encoding="UTF-8" standalone="no"?>
<!DOCTYPE svg PUBLIC "-//W3C//DTD SVG 1.1//EN"
 "http://www.w3.org/Graphics/SVG/1.1/DTD/svg11.dtd">
<!-- Generated by graphviz version 5.0.1 (0)
 -->
<!-- Title: logVectorNorms Pages: 1 -->
<svg width="362pt" height="127pt"
 viewBox="0.00 0.00 362.00 126.50" xmlns="http://www.w3.org/2000/svg" xmlns:xlink="http://www.w3.org/1999/xlink">
<g id="graph0" class="graph" transform="scale(1 1) rotate(0) translate(4 122.5)">
<title>logVectorNorms</title>
<!-- Node1 -->
<g id="node1" class="node">
<title>Node1</title>
<g id="a_node1"><a xlink:title=" ">
<polygon fill="#bfbfbf" stroke="black" points="0,-55 0,-74 95,-74 95,-55 0,-55"/>
<text text-anchor="middle" x="47.5" y="-62" font-family="Helvetica,sans-Serif" font-size="10.00">logVectorNorms</text>
</a>
</g>
</g>
<!-- Node2 -->
<g id="node2" class="node">
<title>Node2</title>
<g id="a_node2"><a xlink:href="namespacesisi4s.html#abc3ea35f1434b9c5021b9195449d1f9b" target="_top" xlink:title=" ">
<polygon fill="none" stroke="black" points="153.5,-99 153.5,-118 224.5,-118 224.5,-99 153.5,-99"/>
<text text-anchor="middle" x="189" y="-106" font-family="Helvetica,sans-Serif" font-size="10.00">sisi4s::conj</text>
</a>
</g>
</g>
<!-- Node1&#45;&gt;Node2 -->
<g id="edge1" class="edge">
<title>Node1&#45;&gt;Node2</title>
<path fill="none" stroke="midnightblue" d="M78.77,-74.05C99.06,-80.45 126,-88.94 148.05,-95.9"/>
<polygon fill="midnightblue" stroke="midnightblue" points="147.2,-99.3 157.79,-98.97 149.31,-92.63 147.2,-99.3"/>
</g>
<!-- Node4 -->
<g id="node4" class="node">
<title>Node4</title>
<g id="a_node4"><a xlink:href="classsisi4s_1_1LapackMatrix.html#a5b733258c657d65b923dd8831dcf65f1" target="_top" xlink:title=" ">
<polygon fill="none" stroke="black" points="131,-49.5 131,-79.5 247,-79.5 247,-49.5 131,-49.5"/>
<text text-anchor="start" x="139" y="-67.5" font-family="Helvetica,sans-Serif" font-size="10.00">sisi4s::LapackMatrix</text>
<text text-anchor="middle" x="189" y="-56.5" font-family="Helvetica,sans-Serif" font-size="10.00">::getColumns</text>
</a>
</g>
</g>
<!-- Node1&#45;&gt;Node4 -->
<g id="edge3" class="edge">
<title>Node1&#45;&gt;Node4</title>
<path fill="none" stroke="midnightblue" d="M95.34,-64.5C103.53,-64.5 112.2,-64.5 120.81,-64.5"/>
<polygon fill="midnightblue" stroke="midnightblue" points="120.87,-68 130.87,-64.5 120.87,-61 120.87,-68"/>
</g>
<!-- Node5 -->
<g id="node5" class="node">
<title>Node5</title>
<g id="a_node5"><a xlink:href="classsisi4s_1_1LapackMatrix.html#af17845e3e518413996316885e56e0367" target="_top" xlink:title=" ">
<polygon fill="none" stroke="black" points="131,-0.5 131,-30.5 247,-30.5 247,-0.5 131,-0.5"/>
<text text-anchor="start" x="139" y="-18.5" font-family="Helvetica,sans-Serif" font-size="10.00">sisi4s::LapackMatrix</text>
<text text-anchor="middle" x="189" y="-7.5" font-family="Helvetica,sans-Serif" font-size="10.00">::getRows</text>
</a>
</g>
</g>
<!-- Node1&#45;&gt;Node5 -->
<g id="edge4" class="edge">
<title>Node1&#45;&gt;Node5</title>
<path fill="none" stroke="midnightblue" d="M75.73,-54.94C92.77,-48.95 115.29,-41.04 135.69,-33.87"/>
<polygon fill="midnightblue" stroke="midnightblue" points="136.92,-37.15 145.19,-30.54 134.6,-30.55 136.92,-37.15"/>
</g>
<!-- Node3 -->
<g id="node3" class="node">
<title>Node3</title>
<g id="a_node3"><a xlink:href="namespacesisi4s.html#aa8b450b30cd5b37aaf1fe14ba54b6d86" target="_top" xlink:title=" ">
<polygon fill="none" stroke="black" points="283,-99 283,-118 354,-118 354,-99 283,-99"/>
<text text-anchor="middle" x="318.5" y="-106" font-family="Helvetica,sans-Serif" font-size="10.00">sisi4s::conj</text>
</a>
</g>
</g>
<!-- Node2&#45;&gt;Node3 -->
<g id="edge2" class="edge">
<title>Node2&#45;&gt;Node3</title>
<path fill="none" stroke="midnightblue" d="M224.5,-108.5C239.39,-108.5 256.98,-108.5 272.84,-108.5"/>
<polygon fill="midnightblue" stroke="midnightblue" points="272.97,-112 282.97,-108.5 272.97,-105 272.97,-112"/>
</g>
</g>
</svg>
