<?xml version="1.0" encoding="UTF-8" standalone="no"?>
<!DOCTYPE svg PUBLIC "-//W3C//DTD SVG 1.1//EN"
 "http://www.w3.org/Graphics/SVG/1.1/DTD/svg11.dtd">
<!-- Generated by graphviz version 9.0.0 (0)
 -->
<!-- Title: OneBodyReducedDensityMatrix.hpp Pages: 1 -->
<svg width="1904pt" height="313pt"
 viewBox="0.00 0.00 1904.12 312.50" xmlns="http://www.w3.org/2000/svg" xmlns:xlink="http://www.w3.org/1999/xlink">
<g id="graph0" class="graph" transform="scale(1 1) rotate(0) translate(4 308.5)">
<title>OneBodyReducedDensityMatrix.hpp</title>
<!-- Node1 -->
<g id="Node000001" class="node">
<title>Node1</title>
<g id="a_Node000001"><a xlink:title=" ">
<polygon fill="#999999" stroke="#666666" points="360.88,-304.5 168.62,-304.5 168.62,-283.75 360.88,-283.75 360.88,-304.5"/>
<text text-anchor="middle" x="264.75" y="-291" font-family="Helvetica,sans-Serif" font-size="10.00">OneBodyReducedDensityMatrix.hpp</text>
</a>
</g>
</g>
<!-- Node2 -->
<g id="Node000002" class="node">
<title>Node2</title>
<g id="a_Node000002"><a xlink:title=" ">
<polygon fill="#e0e0e0" stroke="#999999" points="59.5,-20.75 0,-20.75 0,0 59.5,0 59.5,-20.75"/>
<text text-anchor="middle" x="29.75" y="-7.25" font-family="Helvetica,sans-Serif" font-size="10.00">iostream</text>
</a>
</g>
</g>
<!-- Node1&#45;&gt;Node2 -->
<g id="edge1_Node000001_Node000002" class="edge">
<title>Node1&#45;&gt;Node2</title>
<g id="a_edge1_Node000001_Node000002"><a xlink:title=" ">
<path fill="none" stroke="#63b8ff" d="M168.32,-289.04C95.4,-280.15 7.75,-254.34 7.75,-181.62 7.75,-181.62 7.75,-181.62 7.75,-122.88 7.75,-90.58 16.74,-54 23.23,-31.82"/>
<polygon fill="#63b8ff" stroke="#63b8ff" points="26.49,-33.13 26.06,-22.54 19.8,-31.08 26.49,-33.13"/>
</a>
</g>
</g>
<!-- Node3 -->
<g id="Node000003" class="node">
<title>Node3</title>
<g id="a_Node000003"><a xlink:href="SharedPointer_8hpp.html" target="_top" xlink:title=" ">
<polygon fill="white" stroke="#666666" points="236.38,-191 113.12,-191 113.12,-170.25 236.38,-170.25 236.38,-191"/>
<text text-anchor="middle" x="174.75" y="-177.5" font-family="Helvetica,sans-Serif" font-size="10.00">util/SharedPointer.hpp</text>
</a>
</g>
</g>
<!-- Node1&#45;&gt;Node3 -->
<g id="edge2_Node000001_Node000003" class="edge">
<title>Node1&#45;&gt;Node3</title>
<g id="a_edge2_Node000001_Node000003"><a xlink:title=" ">
<path fill="none" stroke="#63b8ff" d="M257.08,-283.62C242.21,-265.2 209.23,-224.34 189.82,-200.3"/>
<polygon fill="#63b8ff" stroke="#63b8ff" points="192.62,-198.19 183.61,-192.6 187.17,-202.58 192.62,-198.19"/>
</a>
</g>
</g>
<!-- Node5 -->
<g id="Node000005" class="node">
<title>Node5</title>
<g id="a_Node000005"><a xlink:href="Tensor_8hpp.html" target="_top" xlink:title=" ">
<polygon fill="white" stroke="#666666" points="1231,-134.25 1144.5,-134.25 1144.5,-113.5 1231,-113.5 1231,-134.25"/>
<text text-anchor="middle" x="1187.75" y="-120.75" font-family="Helvetica,sans-Serif" font-size="10.00">util/Tensor.hpp</text>
</a>
</g>
</g>
<!-- Node1&#45;&gt;Node5 -->
<g id="edge4_Node000001_Node000005" class="edge">
<title>Node1&#45;&gt;Node5</title>
<g id="a_edge4_Node000001_Node000005"><a xlink:title=" ">
<path fill="none" stroke="#63b8ff" d="M361.37,-290.19C595.18,-282.08 1176.53,-255.56 1233.75,-191 1247.73,-175.23 1229.3,-155.1 1211.78,-141.22"/>
<polygon fill="#63b8ff" stroke="#63b8ff" points="1214.2,-138.66 1204.09,-135.49 1210.02,-144.27 1214.2,-138.66"/>
</a>
</g>
</g>
<!-- Node8 -->
<g id="Node000008" class="node">
<title>Node8</title>
<g id="a_Node000008"><a xlink:href="Log_8hpp.html" target="_top" xlink:title=" ">
<polygon fill="white" stroke="#666666" points="280.25,-134.25 207.25,-134.25 207.25,-113.5 280.25,-113.5 280.25,-134.25"/>
<text text-anchor="middle" x="243.75" y="-120.75" font-family="Helvetica,sans-Serif" font-size="10.00">util/Log.hpp</text>
</a>
</g>
</g>
<!-- Node1&#45;&gt;Node8 -->
<g id="edge7_Node000001_Node000008" class="edge">
<title>Node1&#45;&gt;Node8</title>
<g id="a_edge7_Node000001_Node000008"><a xlink:title=" ">
<path fill="none" stroke="#63b8ff" d="M263.56,-283.6C260.27,-257.23 250.98,-182.83 246.39,-146.03"/>
<polygon fill="#63b8ff" stroke="#63b8ff" points="249.88,-145.71 245.17,-136.22 242.93,-146.58 249.88,-145.71"/>
</a>
</g>
</g>
<!-- Node19 -->
<g id="Node000019" class="node">
<title>Node19</title>
<g id="a_Node000019"><a xlink:href="FockVector_8hpp.html" target="_top" xlink:title=" ">
<polygon fill="white" stroke="#666666" points="755.75,-247.75 637.75,-247.75 637.75,-227 755.75,-227 755.75,-247.75"/>
<text text-anchor="middle" x="696.75" y="-234.25" font-family="Helvetica,sans-Serif" font-size="10.00">math/FockVector.hpp</text>
</a>
</g>
</g>
<!-- Node1&#45;&gt;Node19 -->
<g id="edge19_Node000001_Node000019" class="edge">
<title>Node1&#45;&gt;Node19</title>
<g id="a_edge19_Node000001_Node000019"><a xlink:title=" ">
<path fill="none" stroke="#63b8ff" d="M342.48,-283.27C423.17,-273.05 548.27,-257.19 626.2,-247.32"/>
<polygon fill="#63b8ff" stroke="#63b8ff" points="626.36,-250.82 635.84,-246.09 625.48,-243.88 626.36,-250.82"/>
</a>
</g>
</g>
<!-- Node4 -->
<g id="Node000004" class="node">
<title>Node4</title>
<g id="a_Node000004"><a xlink:title=" ">
<polygon fill="#e0e0e0" stroke="#999999" points="134.38,-20.75 77.12,-20.75 77.12,0 134.38,0 134.38,-20.75"/>
<text text-anchor="middle" x="105.75" y="-7.25" font-family="Helvetica,sans-Serif" font-size="10.00">memory</text>
</a>
</g>
</g>
<!-- Node3&#45;&gt;Node4 -->
<g id="edge3_Node000003_Node000004" class="edge">
<title>Node3&#45;&gt;Node4</title>
<g id="a_edge3_Node000003_Node000004"><a xlink:title=" ">
<path fill="none" stroke="#63b8ff" d="M164.55,-169.79C147.78,-152.84 115.01,-116.17 102.75,-77.5 98.12,-62.89 99.13,-45.55 101.16,-32.3"/>
<polygon fill="#63b8ff" stroke="#63b8ff" points="104.58,-33.02 102.98,-22.55 97.7,-31.73 104.58,-33.02"/>
</a>
</g>
</g>
<!-- Node6 -->
<g id="Node000006" class="node">
<title>Node6</title>
<g id="a_Node000006"><a xlink:href="CTF_8hpp.html" target="_top" xlink:title=" ">
<polygon fill="white" stroke="#666666" points="1224.25,-77.5 1151.25,-77.5 1151.25,-56.75 1224.25,-56.75 1224.25,-77.5"/>
<text text-anchor="middle" x="1187.75" y="-64" font-family="Helvetica,sans-Serif" font-size="10.00">util/CTF.hpp</text>
</a>
</g>
</g>
<!-- Node5&#45;&gt;Node6 -->
<g id="edge5_Node000005_Node000006" class="edge">
<title>Node5&#45;&gt;Node6</title>
<g id="a_edge5_Node000005_Node000006"><a xlink:title=" ">
<path fill="none" stroke="#63b8ff" d="M1187.75,-113.09C1187.75,-106.47 1187.75,-97.47 1187.75,-89.27"/>
<polygon fill="#63b8ff" stroke="#63b8ff" points="1191.25,-89.34 1187.75,-79.34 1184.25,-89.34 1191.25,-89.34"/>
</a>
</g>
</g>
<!-- Node7 -->
<g id="Node000007" class="node">
<title>Node7</title>
<g id="a_Node000007"><a xlink:title=" ">
<polygon fill="#e0e0e0" stroke="#999999" points="1831.25,-20.75 1782.25,-20.75 1782.25,0 1831.25,0 1831.25,-20.75"/>
<text text-anchor="middle" x="1806.75" y="-7.25" font-family="Helvetica,sans-Serif" font-size="10.00">ctf.hpp</text>
</a>
</g>
</g>
<!-- Node6&#45;&gt;Node7 -->
<g id="edge6_Node000006_Node000007" class="edge">
<title>Node6&#45;&gt;Node7</title>
<g id="a_edge6_Node000006_Node000007"><a xlink:title=" ">
<path fill="none" stroke="#63b8ff" d="M1224.42,-65.82C1315.53,-64.51 1559.56,-57.74 1770.71,-20.98"/>
<polygon fill="#63b8ff" stroke="#63b8ff" points="1771.28,-24.43 1780.52,-19.24 1770.06,-17.54 1771.28,-24.43"/>
</a>
</g>
</g>
<!-- Node8&#45;&gt;Node2 -->
<g id="edge16_Node000008_Node000002" class="edge">
<title>Node8&#45;&gt;Node2</title>
<g id="a_edge16_Node000008_Node000002"><a xlink:title=" ">
<path fill="none" stroke="#63b8ff" d="M206.94,-115.55C177.4,-108.64 135.6,-96.47 102.75,-77.5 80.43,-64.61 59.09,-43.98 45.31,-29.19"/>
<polygon fill="#63b8ff" stroke="#63b8ff" points="48.09,-27.04 38.78,-21.98 42.9,-31.74 48.09,-27.04"/>
</a>
</g>
</g>
<!-- Node9 -->
<g id="Node000009" class="node">
<title>Node9</title>
<g id="a_Node000009"><a xlink:href="Time_8hpp.html" target="_top" xlink:title=" ">
<polygon fill="white" stroke="#666666" points="626,-77.5 545.5,-77.5 545.5,-56.75 626,-56.75 626,-77.5"/>
<text text-anchor="middle" x="585.75" y="-64" font-family="Helvetica,sans-Serif" font-size="10.00">util/Time.hpp</text>
</a>
</g>
</g>
<!-- Node8&#45;&gt;Node9 -->
<g id="edge8_Node000008_Node000009" class="edge">
<title>Node8&#45;&gt;Node9</title>
<g id="a_edge8_Node000008_Node000009"><a xlink:title=" ">
<path fill="none" stroke="#63b8ff" d="M280.67,-116.96C341.78,-107.18 464.12,-87.6 533.88,-76.43"/>
<polygon fill="#63b8ff" stroke="#63b8ff" points="534.2,-79.92 543.52,-74.88 533.1,-73.01 534.2,-79.92"/>
</a>
</g>
</g>
<!-- Node16 -->
<g id="Node000016" class="node">
<title>Node16</title>
<g id="a_Node000016"><a xlink:title=" ">
<polygon fill="#e0e0e0" stroke="#999999" points="268.62,-20.75 224.88,-20.75 224.88,0 268.62,0 268.62,-20.75"/>
<text text-anchor="middle" x="246.75" y="-7.25" font-family="Helvetica,sans-Serif" font-size="10.00">string</text>
</a>
</g>
</g>
<!-- Node8&#45;&gt;Node16 -->
<g id="edge15_Node000008_Node000016" class="edge">
<title>Node8&#45;&gt;Node16</title>
<g id="a_edge15_Node000008_Node000016"><a xlink:title=" ">
<path fill="none" stroke="#63b8ff" d="M244.01,-113.37C244.48,-95.6 245.52,-56.97 246.18,-32.68"/>
<polygon fill="#63b8ff" stroke="#63b8ff" points="249.68,-32.78 246.45,-22.69 242.68,-32.59 249.68,-32.78"/>
</a>
</g>
</g>
<!-- Node17 -->
<g id="Node000017" class="node">
<title>Node17</title>
<g id="a_Node000017"><a xlink:title=" ">
<polygon fill="#e0e0e0" stroke="#999999" points="177.88,-77.5 111.62,-77.5 111.62,-56.75 177.88,-56.75 177.88,-77.5"/>
<text text-anchor="middle" x="144.75" y="-64" font-family="Helvetica,sans-Serif" font-size="10.00">streambuf</text>
</a>
</g>
</g>
<!-- Node8&#45;&gt;Node17 -->
<g id="edge17_Node000008_Node000017" class="edge">
<title>Node8&#45;&gt;Node17</title>
<g id="a_edge17_Node000008_Node000017"><a xlink:title=" ">
<path fill="none" stroke="#63b8ff" d="M226.05,-113.09C211.13,-104.83 189.52,-92.88 172.33,-83.38"/>
<polygon fill="#63b8ff" stroke="#63b8ff" points="174.07,-80.34 163.62,-78.56 170.68,-86.46 174.07,-80.34"/>
</a>
</g>
</g>
<!-- Node18 -->
<g id="Node000018" class="node">
<title>Node18</title>
<g id="a_Node000018"><a xlink:title=" ">
<polygon fill="#e0e0e0" stroke="#999999" points="206.88,-20.75 152.62,-20.75 152.62,0 206.88,0 206.88,-20.75"/>
<text text-anchor="middle" x="179.75" y="-7.25" font-family="Helvetica,sans-Serif" font-size="10.00">fstream</text>
</a>
</g>
</g>
<!-- Node8&#45;&gt;Node18 -->
<g id="edge18_Node000008_Node000018" class="edge">
<title>Node8&#45;&gt;Node18</title>
<g id="a_edge18_Node000008_Node000018"><a xlink:title=" ">
<path fill="none" stroke="#63b8ff" d="M238.29,-113.37C227.86,-95.19 204.89,-55.17 191.03,-31.02"/>
<polygon fill="#63b8ff" stroke="#63b8ff" points="194.14,-29.42 186.13,-22.49 188.07,-32.9 194.14,-29.42"/>
</a>
</g>
</g>
<!-- Node10 -->
<g id="Node000010" class="node">
<title>Node10</title>
<g id="a_Node000010"><a xlink:title=" ">
<polygon fill="#e0e0e0" stroke="#999999" points="404.62,-20.75 360.88,-20.75 360.88,0 404.62,0 404.62,-20.75"/>
<text text-anchor="middle" x="382.75" y="-7.25" font-family="Helvetica,sans-Serif" font-size="10.00">ctime</text>
</a>
</g>
</g>
<!-- Node9&#45;&gt;Node10 -->
<g id="edge9_Node000009_Node000010" class="edge">
<title>Node9&#45;&gt;Node10</title>
<g id="a_edge9_Node000009_Node000010"><a xlink:title=" ">
<path fill="none" stroke="#63b8ff" d="M547.05,-56.34C514.44,-47.99 466.29,-35.46 415.86,-21.28"/>
<polygon fill="#63b8ff" stroke="#63b8ff" points="417.1,-17.99 406.53,-18.64 415.2,-24.73 417.1,-17.99"/>
</a>
</g>
</g>
<!-- Node11 -->
<g id="Node000011" class="node">
<title>Node11</title>
<g id="a_Node000011"><a xlink:title=" ">
<polygon fill="#e0e0e0" stroke="#999999" points="536.25,-20.75 487.25,-20.75 487.25,0 536.25,0 536.25,-20.75"/>
<text text-anchor="middle" x="511.75" y="-7.25" font-family="Helvetica,sans-Serif" font-size="10.00">cstdint</text>
</a>
</g>
</g>
<!-- Node9&#45;&gt;Node11 -->
<g id="edge10_Node000009_Node000011" class="edge">
<title>Node9&#45;&gt;Node11</title>
<g id="a_edge10_Node000009_Node000011"><a xlink:title=" ">
<path fill="none" stroke="#63b8ff" d="M572.52,-56.34C561.79,-48.4 546.43,-37.03 533.83,-27.71"/>
<polygon fill="#63b8ff" stroke="#63b8ff" points="536.2,-25.11 526.08,-21.98 532.04,-30.74 536.2,-25.11"/>
</a>
</g>
</g>
<!-- Node12 -->
<g id="Node000012" class="node">
<title>Node12</title>
<g id="a_Node000012"><a xlink:title=" ">
<polygon fill="#e0e0e0" stroke="#999999" points="1683,-20.75 1626.5,-20.75 1626.5,0 1683,0 1683,-20.75"/>
<text text-anchor="middle" x="1654.75" y="-7.25" font-family="Helvetica,sans-Serif" font-size="10.00">ostream</text>
</a>
</g>
</g>
<!-- Node9&#45;&gt;Node12 -->
<g id="edge11_Node000009_Node000012" class="edge">
<title>Node9&#45;&gt;Node12</title>
<g id="a_edge11_Node000009_Node000012"><a xlink:title=" ">
<path fill="none" stroke="#63b8ff" d="M626.39,-61.57C643.19,-59.83 662.89,-57.97 680.75,-56.75 1092.77,-28.53 1203.28,-79.32 1614.86,-20.87"/>
<polygon fill="#63b8ff" stroke="#63b8ff" points="1615.29,-24.34 1624.69,-19.46 1614.29,-17.41 1615.29,-24.34"/>
</a>
</g>
</g>
<!-- Node13 -->
<g id="Node000013" class="node">
<title>Node13</title>
<g id="a_Node000013"><a xlink:title=" ">
<polygon fill="#e0e0e0" stroke="#999999" points="609.62,-20.75 553.88,-20.75 553.88,0 609.62,0 609.62,-20.75"/>
<text text-anchor="middle" x="581.75" y="-7.25" font-family="Helvetica,sans-Serif" font-size="10.00">iomanip</text>
</a>
</g>
</g>
<!-- Node9&#45;&gt;Node13 -->
<g id="edge12_Node000009_Node000013" class="edge">
<title>Node9&#45;&gt;Node13</title>
<g id="a_edge12_Node000009_Node000013"><a xlink:title=" ">
<path fill="none" stroke="#63b8ff" d="M585.03,-56.34C584.55,-49.72 583.89,-40.72 583.29,-32.52"/>
<polygon fill="#63b8ff" stroke="#63b8ff" points="586.79,-32.31 582.57,-22.59 579.81,-32.82 586.79,-32.31"/>
</a>
</g>
</g>
<!-- Node14 -->
<g id="Node000014" class="node">
<title>Node14</title>
<g id="a_Node000014"><a xlink:title=" ">
<polygon fill="#e0e0e0" stroke="#999999" points="342.62,-20.75 286.88,-20.75 286.88,0 342.62,0 342.62,-20.75"/>
<text text-anchor="middle" x="314.75" y="-7.25" font-family="Helvetica,sans-Serif" font-size="10.00">sstream</text>
</a>
</g>
</g>
<!-- Node9&#45;&gt;Node14 -->
<g id="edge13_Node000009_Node000014" class="edge">
<title>Node9&#45;&gt;Node14</title>
<g id="a_edge13_Node000009_Node000014"><a xlink:title=" ">
<path fill="none" stroke="#63b8ff" d="M545.02,-58.95C500.51,-50.95 426.84,-37.24 354.17,-21.2"/>
<polygon fill="#63b8ff" stroke="#63b8ff" points="354.99,-17.79 344.47,-19.04 353.47,-24.63 354.99,-17.79"/>
</a>
</g>
</g>
<!-- Node15 -->
<g id="Node000015" class="node">
<title>Node15</title>
<g id="a_Node000015"><a xlink:title=" ">
<polygon fill="#e0e0e0" stroke="#999999" points="469.12,-20.75 422.38,-20.75 422.38,0 469.12,0 469.12,-20.75"/>
<text text-anchor="middle" x="445.75" y="-7.25" font-family="Helvetica,sans-Serif" font-size="10.00">cmath</text>
</a>
</g>
</g>
<!-- Node9&#45;&gt;Node15 -->
<g id="edge14_Node000009_Node000015" class="edge">
<title>Node9&#45;&gt;Node15</title>
<g id="a_edge14_Node000009_Node000015"><a xlink:title=" ">
<path fill="none" stroke="#63b8ff" d="M560.72,-56.34C538.11,-47.5 504.65,-34.41 479.65,-24.63"/>
<polygon fill="#63b8ff" stroke="#63b8ff" points="481.16,-21.47 470.58,-21.08 478.61,-27.99 481.16,-21.47"/>
</a>
</g>
</g>
<!-- Node19&#45;&gt;Node3 -->
<g id="edge32_Node000019_Node000003" class="edge">
<title>Node19&#45;&gt;Node3</title>
<g id="a_edge32_Node000019_Node000003"><a xlink:title=" ">
<path fill="none" stroke="#63b8ff" d="M637.38,-230.15C541.31,-220.07 352.05,-200.22 247.84,-189.29"/>
<polygon fill="#63b8ff" stroke="#63b8ff" points="248.31,-185.82 238,-188.26 247.58,-192.78 248.31,-185.82"/>
</a>
</g>
</g>
<!-- Node19&#45;&gt;Node5 -->
<g id="edge72_Node000019_Node000005" class="edge">
<title>Node19&#45;&gt;Node5</title>
<g id="a_edge72_Node000019_Node000005"><a xlink:title=" ">
<path fill="none" stroke="#63b8ff" d="M756.23,-235.62C886.34,-233.34 1187.07,-224.46 1217.75,-191 1230.45,-177.15 1218.19,-157.01 1205.73,-142.6"/>
<polygon fill="#63b8ff" stroke="#63b8ff" points="1208.57,-140.52 1199.2,-135.58 1203.45,-145.29 1208.57,-140.52"/>
</a>
</g>
</g>
<!-- Node19&#45;&gt;Node12 -->
<g id="edge71_Node000019_Node000012" class="edge">
<title>Node19&#45;&gt;Node12</title>
<g id="a_edge71_Node000019_Node000012"><a xlink:title=" ">
<path fill="none" stroke="#63b8ff" d="M731.75,-226.58C781.83,-211.59 875.62,-179.82 945.75,-134.25 987.53,-107.1 981.1,-76.71 1026.75,-56.75 1144.13,-5.44 1469.94,-39.11 1614.81,-20.78"/>
<polygon fill="#63b8ff" stroke="#63b8ff" points="1615.27,-24.25 1624.68,-19.39 1614.29,-17.32 1615.27,-24.25"/>
</a>
</g>
</g>
<!-- Node19&#45;&gt;Node16 -->
<g id="edge69_Node000019_Node000016" class="edge">
<title>Node19&#45;&gt;Node16</title>
<g id="a_edge69_Node000019_Node000016"><a xlink:title=" ">
<path fill="none" stroke="#63b8ff" d="M637.53,-233.12C595.34,-228.49 538.73,-217.41 495.75,-191 429.79,-150.47 448.7,-100.39 384.75,-56.75 380.26,-53.69 319.18,-34.15 279.8,-21.74"/>
<polygon fill="#63b8ff" stroke="#63b8ff" points="280.88,-18.41 270.29,-18.74 278.78,-25.08 280.88,-18.41"/>
</a>
</g>
</g>
<!-- Node20 -->
<g id="Node000020" class="node">
<title>Node20</title>
<g id="a_Node000020"><a xlink:href="ComplexTensor_8hpp.html" target="_top" xlink:title=" ">
<polygon fill="white" stroke="#666666" points="1208.62,-191 1068.88,-191 1068.88,-170.25 1208.62,-170.25 1208.62,-191"/>
<text text-anchor="middle" x="1138.75" y="-177.5" font-family="Helvetica,sans-Serif" font-size="10.00">math/ComplexTensor.hpp</text>
</a>
</g>
</g>
<!-- Node19&#45;&gt;Node20 -->
<g id="edge20_Node000019_Node000020" class="edge">
<title>Node19&#45;&gt;Node20</title>
<g id="a_edge20_Node000019_Node000020"><a xlink:title=" ">
<path fill="none" stroke="#63b8ff" d="M755.9,-229.05C833.54,-219.43 970.16,-202.51 1057.47,-191.69"/>
<polygon fill="#63b8ff" stroke="#63b8ff" points="1057.66,-195.2 1067.15,-190.49 1056.8,-188.25 1057.66,-195.2"/>
</a>
</g>
</g>
<!-- Node24 -->
<g id="Node000024" class="node">
<title>Node24</title>
<g id="a_Node000024"><a xlink:href="MathFunctions_8hpp.html" target="_top" xlink:title=" ">
<polygon fill="white" stroke="#666666" points="641.12,-191 504.38,-191 504.38,-170.25 641.12,-170.25 641.12,-191"/>
<text text-anchor="middle" x="572.75" y="-177.5" font-family="Helvetica,sans-Serif" font-size="10.00">math/MathFunctions.hpp</text>
</a>
</g>
</g>
<!-- Node19&#45;&gt;Node24 -->
<g id="edge26_Node000019_Node000024" class="edge">
<title>Node19&#45;&gt;Node24</title>
<g id="a_edge26_Node000019_Node000024"><a xlink:title=" ">
<path fill="none" stroke="#63b8ff" d="M674.58,-226.59C655.27,-218.06 627.03,-205.59 605.18,-195.94"/>
<polygon fill="#63b8ff" stroke="#63b8ff" points="606.67,-192.78 596.11,-191.94 603.85,-199.18 606.67,-192.78"/>
</a>
</g>
</g>
<!-- Node25 -->
<g id="Node000025" class="node">
<title>Node25</title>
<g id="a_Node000025"><a xlink:href="Exception_8hpp.html" target="_top" xlink:title=" ">
<polygon fill="white" stroke="#666666" points="375.62,-77.5 271.88,-77.5 271.88,-56.75 375.62,-56.75 375.62,-77.5"/>
<text text-anchor="middle" x="323.75" y="-64" font-family="Helvetica,sans-Serif" font-size="10.00">util/Exception.hpp</text>
</a>
</g>
</g>
<!-- Node19&#45;&gt;Node25 -->
<g id="edge33_Node000019_Node000025" class="edge">
<title>Node19&#45;&gt;Node25</title>
<g id="a_edge33_Node000019_Node000025"><a xlink:title=" ">
<path fill="none" stroke="#63b8ff" d="M637.57,-233.87C559.85,-229.54 428.66,-218.33 389.75,-191 354.54,-166.27 336.41,-116.66 328.61,-88.64"/>
<polygon fill="#63b8ff" stroke="#63b8ff" points="332.07,-88.04 326.19,-79.23 325.29,-89.78 332.07,-88.04"/>
</a>
</g>
</g>
<!-- Node26 -->
<g id="Node000026" class="node">
<title>Node26</title>
<g id="a_Node000026"><a xlink:href="Sisi4s_8hpp.html" target="_top" xlink:title=" ">
<polygon fill="white" stroke="#666666" points="729.5,-191 664,-191 664,-170.25 729.5,-170.25 729.5,-191"/>
<text text-anchor="middle" x="696.75" y="-177.5" font-family="Helvetica,sans-Serif" font-size="10.00">Sisi4s.hpp</text>
</a>
</g>
</g>
<!-- Node19&#45;&gt;Node26 -->
<g id="edge37_Node000019_Node000026" class="edge">
<title>Node19&#45;&gt;Node26</title>
<g id="a_edge37_Node000019_Node000026"><a xlink:title=" ">
<path fill="none" stroke="#63b8ff" d="M696.75,-226.59C696.75,-219.97 696.75,-210.97 696.75,-202.77"/>
<polygon fill="#63b8ff" stroke="#63b8ff" points="700.25,-202.84 696.75,-192.84 693.25,-202.84 700.25,-202.84"/>
</a>
</g>
</g>
<!-- Node36 -->
<g id="Node000036" class="node">
<title>Node36</title>
<g id="a_Node000036"><a xlink:title=" ">
<polygon fill="#e0e0e0" stroke="#999999" points="1764.38,-20.75 1701.12,-20.75 1701.12,0 1764.38,0 1764.38,-20.75"/>
<text text-anchor="middle" x="1732.75" y="-7.25" font-family="Helvetica,sans-Serif" font-size="10.00">algorithm</text>
</a>
</g>
</g>
<!-- Node19&#45;&gt;Node36 -->
<g id="edge70_Node000019_Node000036" class="edge">
<title>Node19&#45;&gt;Node36</title>
<g id="a_edge70_Node000019_Node000036"><a xlink:title=" ">
<path fill="none" stroke="#63b8ff" d="M745.2,-226.52C780.56,-218.66 829.36,-206.43 870.75,-191 997.07,-143.91 1012.54,-91.67 1142.75,-56.75 1375.36,5.62 1447.61,-54.25 1689.77,-20.76"/>
<polygon fill="#63b8ff" stroke="#63b8ff" points="1690.16,-24.24 1699.56,-19.36 1689.17,-17.31 1690.16,-24.24"/>
</a>
</g>
</g>
<!-- Node41 -->
<g id="Node000041" class="node">
<title>Node41</title>
<g id="a_Node000041"><a xlink:title=" ">
<polygon fill="#e0e0e0" stroke="#999999" points="1896.12,-20.75 1849.38,-20.75 1849.38,0 1896.12,0 1896.12,-20.75"/>
<text text-anchor="middle" x="1872.75" y="-7.25" font-family="Helvetica,sans-Serif" font-size="10.00">vector</text>
</a>
</g>
</g>
<!-- Node19&#45;&gt;Node41 -->
<g id="edge68_Node000019_Node000041" class="edge">
<title>Node19&#45;&gt;Node41</title>
<g id="a_edge68_Node000019_Node000041"><a xlink:title=" ">
<path fill="none" stroke="#63b8ff" d="M756.03,-235.02C855.51,-231.94 1062.04,-222.05 1233.75,-191 1469.4,-148.39 1743.52,-56.6 1838.39,-23.55"/>
<polygon fill="#63b8ff" stroke="#63b8ff" points="1839.34,-26.92 1847.62,-20.32 1837.03,-20.31 1839.34,-26.92"/>
</a>
</g>
</g>
<!-- Node20&#45;&gt;Node5 -->
<g id="edge25_Node000020_Node000005" class="edge">
<title>Node20&#45;&gt;Node5</title>
<g id="a_edge25_Node000020_Node000005"><a xlink:title=" ">
<path fill="none" stroke="#63b8ff" d="M1147.51,-169.84C1154.2,-162.36 1163.6,-151.86 1171.64,-142.88"/>
<polygon fill="#63b8ff" stroke="#63b8ff" points="1174,-145.49 1178.06,-135.71 1168.78,-140.82 1174,-145.49"/>
</a>
</g>
</g>
<!-- Node21 -->
<g id="Node000021" class="node">
<title>Node21</title>
<g id="a_Node000021"><a xlink:href="Complex_8hpp.html" target="_top" xlink:title=" ">
<polygon fill="white" stroke="#666666" points="936.25,-134.25 827.25,-134.25 827.25,-113.5 936.25,-113.5 936.25,-134.25"/>
<text text-anchor="middle" x="881.75" y="-120.75" font-family="Helvetica,sans-Serif" font-size="10.00">math/Complex.hpp</text>
</a>
</g>
</g>
<!-- Node20&#45;&gt;Node21 -->
<g id="edge21_Node000020_Node000021" class="edge">
<title>Node20&#45;&gt;Node21</title>
<g id="a_edge21_Node000020_Node000021"><a xlink:title=" ">
<path fill="none" stroke="#63b8ff" d="M1092.51,-169.77C1049.52,-160.62 985.34,-146.94 939.1,-137.09"/>
<polygon fill="#63b8ff" stroke="#63b8ff" points="940.04,-133.72 929.54,-135.05 938.59,-140.56 940.04,-133.72"/>
</a>
</g>
</g>
<!-- Node22 -->
<g id="Node000022" class="node">
<title>Node22</title>
<g id="a_Node000022"><a xlink:href="Float_8hpp.html" target="_top" xlink:title=" ">
<polygon fill="white" stroke="#666666" points="898.88,-77.5 808.62,-77.5 808.62,-56.75 898.88,-56.75 898.88,-77.5"/>
<text text-anchor="middle" x="853.75" y="-64" font-family="Helvetica,sans-Serif" font-size="10.00">math/Float.hpp</text>
</a>
</g>
</g>
<!-- Node21&#45;&gt;Node22 -->
<g id="edge22_Node000021_Node000022" class="edge">
<title>Node21&#45;&gt;Node22</title>
<g id="a_edge22_Node000021_Node000022"><a xlink:title=" ">
<path fill="none" stroke="#63b8ff" d="M876.74,-113.09C873.16,-106.08 868.21,-96.41 863.83,-87.83"/>
<polygon fill="#63b8ff" stroke="#63b8ff" points="867.07,-86.49 859.4,-79.18 860.84,-89.67 867.07,-86.49"/>
</a>
</g>
</g>
<!-- Node23 -->
<g id="Node000023" class="node">
<title>Node23</title>
<g id="a_Node000023"><a xlink:title=" ">
<polygon fill="#e0e0e0" stroke="#999999" points="974.75,-77.5 916.75,-77.5 916.75,-56.75 974.75,-56.75 974.75,-77.5"/>
<text text-anchor="middle" x="945.75" y="-64" font-family="Helvetica,sans-Serif" font-size="10.00">complex</text>
</a>
</g>
</g>
<!-- Node21&#45;&gt;Node23 -->
<g id="edge24_Node000021_Node000023" class="edge">
<title>Node21&#45;&gt;Node23</title>
<g id="a_edge24_Node000021_Node000023"><a xlink:title=" ">
<path fill="none" stroke="#63b8ff" d="M893.19,-113.09C902.2,-105.38 914.98,-94.45 925.68,-85.29"/>
<polygon fill="#63b8ff" stroke="#63b8ff" points="927.93,-87.97 933.26,-78.81 923.38,-82.65 927.93,-87.97"/>
</a>
</g>
</g>
<!-- Node22&#45;&gt;Node12 -->
<g id="edge23_Node000022_Node000012" class="edge">
<title>Node22&#45;&gt;Node12</title>
<g id="a_edge23_Node000022_Node000012"><a xlink:title=" ">
<path fill="none" stroke="#63b8ff" d="M899.36,-57.81C902.19,-57.41 905.01,-57.06 907.75,-56.75 1218.08,-22.07 1303.32,-66.71 1615,-20.88"/>
<polygon fill="#63b8ff" stroke="#63b8ff" points="1615.31,-24.37 1624.68,-19.43 1614.28,-17.45 1615.31,-24.37"/>
</a>
</g>
</g>
<!-- Node24&#45;&gt;Node5 -->
<g id="edge30_Node000024_Node000005" class="edge">
<title>Node24&#45;&gt;Node5</title>
<g id="a_edge30_Node000024_Node000005"><a xlink:title=" ">
<path fill="none" stroke="#63b8ff" d="M641.19,-171.65C645.78,-171.16 650.33,-170.69 654.75,-170.25 829.24,-152.85 1036.3,-136.43 1132.95,-129.01"/>
<polygon fill="#63b8ff" stroke="#63b8ff" points="1132.97,-132.52 1142.68,-128.27 1132.44,-125.54 1132.97,-132.52"/>
</a>
</g>
</g>
<!-- Node24&#45;&gt;Node8 -->
<g id="edge31_Node000024_Node000008" class="edge">
<title>Node24&#45;&gt;Node8</title>
<g id="a_edge31_Node000024_Node000008"><a xlink:title=" ">
<path fill="none" stroke="#63b8ff" d="M513.55,-169.77C450.07,-159.21 350.5,-142.64 291.73,-132.86"/>
<polygon fill="#63b8ff" stroke="#63b8ff" points="292.47,-129.43 282.03,-131.25 291.32,-136.34 292.47,-129.43"/>
</a>
</g>
</g>
<!-- Node24&#45;&gt;Node15 -->
<g id="edge28_Node000024_Node000015" class="edge">
<title>Node24&#45;&gt;Node15</title>
<g id="a_edge28_Node000024_Node000015"><a xlink:title=" ">
<path fill="none" stroke="#63b8ff" d="M565.56,-170.1C545.22,-143.16 487.02,-66.06 459.94,-30.17"/>
<polygon fill="#63b8ff" stroke="#63b8ff" points="462.91,-28.3 454.09,-22.43 457.32,-32.52 462.91,-28.3"/>
</a>
</g>
</g>
<!-- Node24&#45;&gt;Node16 -->
<g id="edge29_Node000024_Node000016" class="edge">
<title>Node24&#45;&gt;Node16</title>
<g id="a_edge29_Node000024_Node000016"><a xlink:title=" ">
<path fill="none" stroke="#63b8ff" d="M561.82,-169.96C532.07,-143.82 449.74,-72.64 417.75,-56.75 363.24,-29.68 341.9,-37.12 279.83,-21.14"/>
<polygon fill="#63b8ff" stroke="#63b8ff" points="281.1,-17.86 270.53,-18.64 279.28,-24.62 281.1,-17.86"/>
</a>
</g>
</g>
<!-- Node24&#45;&gt;Node21 -->
<g id="edge27_Node000024_Node000021" class="edge">
<title>Node24&#45;&gt;Node21</title>
<g id="a_edge27_Node000024_Node000021"><a xlink:title=" ">
<path fill="none" stroke="#63b8ff" d="M628.35,-169.77C680.94,-160.46 759.9,-146.47 815.67,-136.58"/>
<polygon fill="#63b8ff" stroke="#63b8ff" points="816.13,-140.06 825.37,-134.87 814.91,-133.16 816.13,-140.06"/>
</a>
</g>
</g>
<!-- Node25&#45;&gt;Node2 -->
<g id="edge36_Node000025_Node000002" class="edge">
<title>Node25&#45;&gt;Node2</title>
<g id="a_edge36_Node000025_Node000002"><a xlink:title=" ">
<path fill="none" stroke="#63b8ff" d="M271.58,-57.92C222.14,-49.91 145.56,-36.91 70.98,-21.34"/>
<polygon fill="#63b8ff" stroke="#63b8ff" points="71.98,-17.98 61.47,-19.34 70.54,-24.83 71.98,-17.98"/>
</a>
</g>
</g>
<!-- Node25&#45;&gt;Node14 -->
<g id="edge35_Node000025_Node000014" class="edge">
<title>Node25&#45;&gt;Node14</title>
<g id="a_edge35_Node000025_Node000014"><a xlink:title=" ">
<path fill="none" stroke="#63b8ff" d="M322.14,-56.34C321.04,-49.64 319.54,-40.51 318.18,-32.23"/>
<polygon fill="#63b8ff" stroke="#63b8ff" points="321.67,-31.87 316.59,-22.57 314.76,-33.01 321.67,-31.87"/>
</a>
</g>
</g>
<!-- Node25&#45;&gt;Node16 -->
<g id="edge34_Node000025_Node000016" class="edge">
<title>Node25&#45;&gt;Node16</title>
<g id="a_edge34_Node000025_Node000016"><a xlink:title=" ">
<path fill="none" stroke="#63b8ff" d="M309.98,-56.34C298.82,-48.4 282.83,-37.03 269.73,-27.71"/>
<polygon fill="#63b8ff" stroke="#63b8ff" points="271.81,-24.9 261.63,-21.96 267.75,-30.6 271.81,-24.9"/>
</a>
</g>
</g>
<!-- Node26&#45;&gt;Node6 -->
<g id="edge40_Node000026_Node000006" class="edge">
<title>Node26&#45;&gt;Node6</title>
<g id="a_edge40_Node000026_Node000006"><a xlink:title=" ">
<path fill="none" stroke="#63b8ff" d="M729.96,-174.51C777.87,-166.92 869.05,-151.68 945.75,-134.25 1015.93,-118.3 1096.35,-95.39 1144.54,-81.15"/>
<polygon fill="#63b8ff" stroke="#63b8ff" points="1145.44,-84.53 1154.03,-78.33 1143.45,-77.82 1145.44,-84.53"/>
</a>
</g>
</g>
<!-- Node26&#45;&gt;Node9 -->
<g id="edge38_Node000026_Node000009" class="edge">
<title>Node26&#45;&gt;Node9</title>
<g id="a_edge38_Node000026_Node000009"><a xlink:title=" ">
<path fill="none" stroke="#63b8ff" d="M687.54,-170.16C674.98,-157.29 651.77,-133.55 631.75,-113.5 622.57,-104.31 612.29,-94.15 603.77,-85.78"/>
<polygon fill="#63b8ff" stroke="#63b8ff" points="606.33,-83.38 596.74,-78.88 601.43,-88.38 606.33,-83.38"/>
</a>
</g>
</g>
<!-- Node27 -->
<g id="Node000027" class="node">
<title>Node27</title>
<g id="a_Node000027"><a xlink:href="Documentation_8hpp.html" target="_top" xlink:title=" ">
<polygon fill="white" stroke="#666666" points="809.12,-134.25 678.38,-134.25 678.38,-113.5 809.12,-113.5 809.12,-134.25"/>
<text text-anchor="middle" x="743.75" y="-120.75" font-family="Helvetica,sans-Serif" font-size="10.00">util/Documentation.hpp</text>
</a>
</g>
</g>
<!-- Node26&#45;&gt;Node27 -->
<g id="edge39_Node000026_Node000027" class="edge">
<title>Node26&#45;&gt;Node27</title>
<g id="a_edge39_Node000026_Node000027"><a xlink:title=" ">
<path fill="none" stroke="#63b8ff" d="M705.15,-169.84C711.5,-162.44 720.4,-152.07 728.05,-143.16"/>
<polygon fill="#63b8ff" stroke="#63b8ff" points="730.58,-145.59 734.43,-135.73 725.26,-141.03 730.58,-145.59"/>
</a>
</g>
</g>
<!-- Node28 -->
<g id="Node000028" class="node">
<title>Node28</title>
<g id="a_Node000028"><a xlink:href="Options_8hpp.html" target="_top" xlink:title=" ">
<polygon fill="white" stroke="#666666" points="623,-134.25 548.5,-134.25 548.5,-113.5 623,-113.5 623,-134.25"/>
<text text-anchor="middle" x="585.75" y="-120.75" font-family="Helvetica,sans-Serif" font-size="10.00">Options.hpp</text>
</a>
</g>
</g>
<!-- Node26&#45;&gt;Node28 -->
<g id="edge41_Node000026_Node000028" class="edge">
<title>Node26&#45;&gt;Node28</title>
<g id="a_edge41_Node000026_Node000028"><a xlink:title=" ">
<path fill="none" stroke="#63b8ff" d="M676.91,-169.84C659.86,-161.43 635.03,-149.18 615.59,-139.59"/>
<polygon fill="#63b8ff" stroke="#63b8ff" points="617.3,-136.53 606.78,-135.25 614.2,-142.81 617.3,-136.53"/>
</a>
</g>
</g>
<!-- Node28&#45;&gt;Node16 -->
<g id="edge42_Node000028_Node000016" class="edge">
<title>Node28&#45;&gt;Node16</title>
<g id="a_edge42_Node000028_Node000016"><a xlink:title=" ">
<path fill="none" stroke="#63b8ff" d="M569.96,-113.05C546.1,-98.64 499.03,-71.82 455.75,-56.75 382.8,-31.35 358.14,-39.64 279.9,-21.06"/>
<polygon fill="#63b8ff" stroke="#63b8ff" points="281.05,-17.74 270.5,-18.75 279.38,-24.53 281.05,-17.74"/>
</a>
</g>
</g>
<!-- Node29 -->
<g id="Node000029" class="node">
<title>Node29</title>
<g id="a_Node000029"><a xlink:href="CLI11_8hpp.html" target="_top" xlink:title=" ">
<polygon fill="white" stroke="#666666" points="790.12,-77.5 689.38,-77.5 689.38,-56.75 790.12,-56.75 790.12,-77.5"/>
<text text-anchor="middle" x="739.75" y="-64" font-family="Helvetica,sans-Serif" font-size="10.00">vendor/CLI11.hpp</text>
</a>
</g>
</g>
<!-- Node28&#45;&gt;Node29 -->
<g id="edge43_Node000028_Node000029" class="edge">
<title>Node28&#45;&gt;Node29</title>
<g id="a_edge43_Node000028_Node000029"><a xlink:title=" ">
<path fill="none" stroke="#63b8ff" d="M613.28,-113.09C637.84,-104.36 674.05,-91.48 701.43,-81.75"/>
<polygon fill="#63b8ff" stroke="#63b8ff" points="702.52,-85.08 710.77,-78.43 700.18,-78.48 702.52,-85.08"/>
</a>
</g>
</g>
<!-- Node29&#45;&gt;Node2 -->
<g id="edge58_Node000029_Node000002" class="edge">
<title>Node29&#45;&gt;Node2</title>
<g id="a_edge58_Node000029_Node000002"><a xlink:title=" ">
<path fill="none" stroke="#63b8ff" d="M689.04,-61.33C671.81,-59.78 652.45,-58.1 634.75,-56.75 386.66,-37.8 319.28,-58.52 71.12,-21.05"/>
<polygon fill="#63b8ff" stroke="#63b8ff" points="71.84,-17.62 61.43,-19.57 70.79,-24.54 71.84,-17.62"/>
</a>
</g>
</g>
<!-- Node29&#45;&gt;Node4 -->
<g id="edge44_Node000029_Node000004" class="edge">
<title>Node29&#45;&gt;Node4</title>
<g id="a_edge44_Node000029_Node000004"><a xlink:title=" ">
<path fill="none" stroke="#63b8ff" d="M689.03,-61.43C671.8,-59.88 652.44,-58.19 634.75,-56.75 420.28,-39.31 361.78,-54.55 145.77,-20.8"/>
<polygon fill="#63b8ff" stroke="#63b8ff" points="146.61,-17.39 136.19,-19.29 145.52,-24.3 146.61,-17.39"/>
</a>
</g>
</g>
<!-- Node29&#45;&gt;Node11 -->
<g id="edge57_Node000029_Node000011" class="edge">
<title>Node29&#45;&gt;Node11</title>
<g id="a_edge57_Node000029_Node000011"><a xlink:title=" ">
<path fill="none" stroke="#63b8ff" d="M694.68,-56.28C657.53,-48.03 603.22,-35.63 547.7,-21.43"/>
<polygon fill="#63b8ff" stroke="#63b8ff" points="548.6,-18.05 538.05,-18.95 546.86,-24.83 548.6,-18.05"/>
</a>
</g>
</g>
<!-- Node29&#45;&gt;Node13 -->
<g id="edge53_Node000029_Node000013" class="edge">
<title>Node29&#45;&gt;Node13</title>
<g id="a_edge53_Node000029_Node000013"><a xlink:title=" ">
<path fill="none" stroke="#63b8ff" d="M711.5,-56.34C686.19,-47.57 648.83,-34.62 620.69,-24.87"/>
<polygon fill="#63b8ff" stroke="#63b8ff" points="622.04,-21.63 611.45,-21.67 619.75,-28.25 622.04,-21.63"/>
</a>
</g>
</g>
<!-- Node29&#45;&gt;Node14 -->
<g id="edge55_Node000029_Node000014" class="edge">
<title>Node29&#45;&gt;Node14</title>
<g id="a_edge55_Node000029_Node000014"><a xlink:title=" ">
<path fill="none" stroke="#63b8ff" d="M689.02,-61.03C603.33,-52.3 432.31,-34.26 353.83,-20.87"/>
<polygon fill="#63b8ff" stroke="#63b8ff" points="354.9,-17.5 344.44,-19.19 353.67,-24.39 354.9,-17.5"/>
</a>
</g>
</g>
<!-- Node29&#45;&gt;Node15 -->
<g id="edge46_Node000029_Node000015" class="edge">
<title>Node29&#45;&gt;Node15</title>
<g id="a_edge46_Node000029_Node000015"><a xlink:title=" ">
<path fill="none" stroke="#63b8ff" d="M688.91,-58.9C638.46,-51.37 558.73,-38.5 480.49,-20.94"/>
<polygon fill="#63b8ff" stroke="#63b8ff" points="481.47,-17.58 470.94,-18.77 479.92,-24.4 481.47,-17.58"/>
</a>
</g>
</g>
<!-- Node29&#45;&gt;Node16 -->
<g id="edge45_Node000029_Node000016" class="edge">
<title>Node29&#45;&gt;Node16</title>
<g id="a_edge45_Node000029_Node000016"><a xlink:title=" ">
<path fill="none" stroke="#63b8ff" d="M688.99,-61.41C582.19,-51.45 339.75,-28.66 280.02,-20.43"/>
<polygon fill="#63b8ff" stroke="#63b8ff" points="280.89,-17.02 270.46,-18.9 279.79,-23.93 280.89,-17.02"/>
</a>
</g>
</g>
<!-- Node29&#45;&gt;Node18 -->
<g id="edge50_Node000029_Node000018" class="edge">
<title>Node29&#45;&gt;Node18</title>
<g id="a_edge50_Node000029_Node000018"><a xlink:title=" ">
<path fill="none" stroke="#63b8ff" d="M689.02,-61.56C671.79,-60.02 652.43,-58.3 634.75,-56.75 452.19,-40.76 401.91,-51.96 218.3,-20.93"/>
<polygon fill="#63b8ff" stroke="#63b8ff" points="219.1,-17.52 208.66,-19.28 217.92,-24.42 219.1,-17.52"/>
</a>
</g>
</g>
<!-- Node30 -->
<g id="Node000030" class="node">
<title>Node30</title>
<g id="a_Node000030"><a xlink:title=" ">
<polygon fill="#e0e0e0" stroke="#999999" points="1245.12,-20.75 1180.38,-20.75 1180.38,0 1245.12,0 1245.12,-20.75"/>
<text text-anchor="middle" x="1212.75" y="-7.25" font-family="Helvetica,sans-Serif" font-size="10.00">functional</text>
</a>
</g>
</g>
<!-- Node29&#45;&gt;Node30 -->
<g id="edge47_Node000029_Node000030" class="edge">
<title>Node29&#45;&gt;Node30</title>
<g id="a_edge47_Node000029_Node000030"><a xlink:title=" ">
<path fill="none" stroke="#63b8ff" d="M790.46,-57.99C793.6,-57.55 796.72,-57.13 799.75,-56.75 961,-36.37 1005.87,-46.84 1169.22,-20.98"/>
<polygon fill="#63b8ff" stroke="#63b8ff" points="1169.34,-24.51 1178.66,-19.47 1168.23,-17.6 1169.34,-24.51"/>
</a>
</g>
</g>
<!-- Node31 -->
<g id="Node000031" class="node">
<title>Node31</title>
<g id="a_Node000031"><a xlink:title=" ">
<polygon fill="#e0e0e0" stroke="#999999" points="1318.62,-20.75 1262.88,-20.75 1262.88,0 1318.62,0 1318.62,-20.75"/>
<text text-anchor="middle" x="1290.75" y="-7.25" font-family="Helvetica,sans-Serif" font-size="10.00">numeric</text>
</a>
</g>
</g>
<!-- Node29&#45;&gt;Node31 -->
<g id="edge48_Node000029_Node000031" class="edge">
<title>Node29&#45;&gt;Node31</title>
<g id="a_edge48_Node000029_Node000031"><a xlink:title=" ">
<path fill="none" stroke="#63b8ff" d="M790.45,-57.93C793.59,-57.5 796.71,-57.11 799.75,-56.75 997.14,-33.54 1052.07,-52.99 1251.42,-20.86"/>
<polygon fill="#63b8ff" stroke="#63b8ff" points="1251.78,-24.35 1261.08,-19.28 1250.64,-17.44 1251.78,-24.35"/>
</a>
</g>
</g>
<!-- Node32 -->
<g id="Node000032" class="node">
<title>Node32</title>
<g id="a_Node000032"><a xlink:title=" ">
<polygon fill="#e0e0e0" stroke="#999999" points="1374.62,-20.75 1336.88,-20.75 1336.88,0 1374.62,0 1374.62,-20.75"/>
<text text-anchor="middle" x="1355.75" y="-7.25" font-family="Helvetica,sans-Serif" font-size="10.00">map</text>
</a>
</g>
</g>
<!-- Node29&#45;&gt;Node32 -->
<g id="edge49_Node000029_Node000032" class="edge">
<title>Node29&#45;&gt;Node32</title>
<g id="a_edge49_Node000029_Node000032"><a xlink:title=" ">
<path fill="none" stroke="#63b8ff" d="M790.45,-57.89C793.59,-57.47 796.71,-57.09 799.75,-56.75 1029.85,-30.98 1095,-65.35 1325.54,-20.68"/>
<polygon fill="#63b8ff" stroke="#63b8ff" points="1326.02,-24.15 1335.16,-18.78 1324.67,-17.28 1326.02,-24.15"/>
</a>
</g>
</g>
<!-- Node33 -->
<g id="Node000033" class="node">
<title>Node33</title>
<g id="a_Node000033"><a xlink:title=" ">
<polygon fill="#e0e0e0" stroke="#999999" points="1433.12,-20.75 1392.38,-20.75 1392.38,0 1433.12,0 1433.12,-20.75"/>
<text text-anchor="middle" x="1412.75" y="-7.25" font-family="Helvetica,sans-Serif" font-size="10.00">tuple</text>
</a>
</g>
</g>
<!-- Node29&#45;&gt;Node33 -->
<g id="edge51_Node000029_Node000033" class="edge">
<title>Node29&#45;&gt;Node33</title>
<g id="a_edge51_Node000029_Node000033"><a xlink:title=" ">
<path fill="none" stroke="#63b8ff" d="M790.44,-57.86C793.59,-57.46 796.71,-57.08 799.75,-56.75 1054.61,-29.04 1126.22,-67.99 1380.91,-20.86"/>
<polygon fill="#63b8ff" stroke="#63b8ff" points="1381.34,-24.34 1390.52,-19.05 1380.04,-17.46 1381.34,-24.34"/>
</a>
</g>
</g>
<!-- Node34 -->
<g id="Node000034" class="node">
<title>Node34</title>
<g id="a_Node000034"><a xlink:title=" ">
<polygon fill="#e0e0e0" stroke="#999999" points="1496,-20.75 1451.5,-20.75 1451.5,0 1496,0 1496,-20.75"/>
<text text-anchor="middle" x="1473.75" y="-7.25" font-family="Helvetica,sans-Serif" font-size="10.00">utility</text>
</a>
</g>
</g>
<!-- Node29&#45;&gt;Node34 -->
<g id="edge52_Node000029_Node000034" class="edge">
<title>Node29&#45;&gt;Node34</title>
<g id="a_edge52_Node000029_Node000034"><a xlink:title=" ">
<path fill="none" stroke="#63b8ff" d="M790.44,-57.84C793.59,-57.44 796.71,-57.07 799.75,-56.75 1080.33,-27.04 1158.14,-68.17 1440.19,-20.56"/>
<polygon fill="#63b8ff" stroke="#63b8ff" points="1440.42,-24.08 1449.68,-18.94 1439.24,-17.18 1440.42,-24.08"/>
</a>
</g>
</g>
<!-- Node35 -->
<g id="Node000035" class="node">
<title>Node35</title>
<g id="a_Node000035"><a xlink:title=" ">
<polygon fill="#e0e0e0" stroke="#999999" points="1559.38,-20.75 1514.12,-20.75 1514.12,0 1559.38,0 1559.38,-20.75"/>
<text text-anchor="middle" x="1536.75" y="-7.25" font-family="Helvetica,sans-Serif" font-size="10.00">locale</text>
</a>
</g>
</g>
<!-- Node29&#45;&gt;Node35 -->
<g id="edge54_Node000029_Node000035" class="edge">
<title>Node29&#45;&gt;Node35</title>
<g id="a_edge54_Node000029_Node000035"><a xlink:title=" ">
<path fill="none" stroke="#63b8ff" d="M790.44,-57.83C793.59,-57.43 796.71,-57.06 799.75,-56.75 1108.17,-24.87 1193.44,-72.08 1502.73,-20.66"/>
<polygon fill="#63b8ff" stroke="#63b8ff" points="1503.06,-24.15 1512.34,-19.04 1501.89,-17.25 1503.06,-24.15"/>
</a>
</g>
</g>
<!-- Node29&#45;&gt;Node36 -->
<g id="edge56_Node000029_Node000036" class="edge">
<title>Node29&#45;&gt;Node36</title>
<g id="a_edge56_Node000029_Node000036"><a xlink:title=" ">
<path fill="none" stroke="#63b8ff" d="M790.44,-57.79C793.58,-57.4 796.71,-57.05 799.75,-56.75 1190.96,-18.42 1296.51,-72.18 1689.94,-20.7"/>
<polygon fill="#63b8ff" stroke="#63b8ff" points="1690.12,-24.21 1699.57,-19.42 1689.2,-17.27 1690.12,-24.21"/>
</a>
</g>
</g>
<!-- Node37 -->
<g id="Node000037" class="node">
<title>Node37</title>
<g id="a_Node000037"><a xlink:title=" ">
<polygon fill="#e0e0e0" stroke="#999999" points="1608.25,-20.75 1577.25,-20.75 1577.25,0 1608.25,0 1608.25,-20.75"/>
<text text-anchor="middle" x="1592.75" y="-7.25" font-family="Helvetica,sans-Serif" font-size="10.00">set</text>
</a>
</g>
</g>
<!-- Node29&#45;&gt;Node37 -->
<g id="edge59_Node000029_Node000037" class="edge">
<title>Node29&#45;&gt;Node37</title>
<g id="a_edge59_Node000029_Node000037"><a xlink:title=" ">
<path fill="none" stroke="#63b8ff" d="M790.44,-57.81C793.59,-57.42 796.71,-57.06 799.75,-56.75 1136.51,-22.66 1232.04,-90.45 1566,-20.69"/>
<polygon fill="#63b8ff" stroke="#63b8ff" points="1566.43,-24.18 1575.48,-18.69 1564.98,-17.33 1566.43,-24.18"/>
</a>
</g>
</g>
<!-- Node38 -->
<g id="Node000038" class="node">
<title>Node38</title>
<g id="a_Node000038"><a xlink:title=" ">
<polygon fill="#e0e0e0" stroke="#999999" points="696,-20.75 627.5,-20.75 627.5,0 696,0 696,-20.75"/>
<text text-anchor="middle" x="661.75" y="-7.25" font-family="Helvetica,sans-Serif" font-size="10.00">type_traits</text>
</a>
</g>
</g>
<!-- Node29&#45;&gt;Node38 -->
<g id="edge60_Node000029_Node000038" class="edge">
<title>Node29&#45;&gt;Node38</title>
<g id="a_edge60_Node000029_Node000038"><a xlink:title=" ">
<path fill="none" stroke="#63b8ff" d="M725.81,-56.34C714.38,-48.32 697.98,-36.81 684.64,-27.44"/>
<polygon fill="#63b8ff" stroke="#63b8ff" points="687.01,-24.83 676.81,-21.95 682.99,-30.56 687.01,-24.83"/>
</a>
</g>
</g>
<!-- Node39 -->
<g id="Node000039" class="node">
<title>Node39</title>
<g id="a_Node000039"><a xlink:title=" ">
<polygon fill="#e0e0e0" stroke="#999999" points="765.75,-20.75 713.75,-20.75 713.75,0 765.75,0 765.75,-20.75"/>
<text text-anchor="middle" x="739.75" y="-7.25" font-family="Helvetica,sans-Serif" font-size="10.00">iterator</text>
</a>
</g>
</g>
<!-- Node29&#45;&gt;Node39 -->
<g id="edge61_Node000029_Node000039" class="edge">
<title>Node29&#45;&gt;Node39</title>
<g id="a_edge61_Node000029_Node000039"><a xlink:title=" ">
<path fill="none" stroke="#63b8ff" d="M739.75,-56.34C739.75,-49.72 739.75,-40.72 739.75,-32.52"/>
<polygon fill="#63b8ff" stroke="#63b8ff" points="743.25,-32.59 739.75,-22.59 736.25,-32.59 743.25,-32.59"/>
</a>
</g>
</g>
<!-- Node40 -->
<g id="Node000040" class="node">
<title>Node40</title>
<g id="a_Node000040"><a xlink:title=" ">
<polygon fill="#e0e0e0" stroke="#999999" points="847.75,-20.75 783.75,-20.75 783.75,0 847.75,0 847.75,-20.75"/>
<text text-anchor="middle" x="815.75" y="-7.25" font-family="Helvetica,sans-Serif" font-size="10.00">stdexcept</text>
</a>
</g>
</g>
<!-- Node29&#45;&gt;Node40 -->
<g id="edge62_Node000029_Node000040" class="edge">
<title>Node29&#45;&gt;Node40</title>
<g id="a_edge62_Node000029_Node000040"><a xlink:title=" ">
<path fill="none" stroke="#63b8ff" d="M753.34,-56.34C764.36,-48.4 780.14,-37.03 793.07,-27.71"/>
<polygon fill="#63b8ff" stroke="#63b8ff" points="794.98,-30.65 801.05,-21.96 790.89,-24.97 794.98,-30.65"/>
</a>
</g>
</g>
<!-- Node29&#45;&gt;Node41 -->
<g id="edge63_Node000029_Node000041" class="edge">
<title>Node29&#45;&gt;Node41</title>
<g id="a_edge63_Node000029_Node000041"><a xlink:title=" ">
<path fill="none" stroke="#63b8ff" d="M790.43,-57.77C793.58,-57.38 796.71,-57.04 799.75,-56.75 1256.9,-13.29 1381.7,-93.1 1837.95,-20.8"/>
<polygon fill="#63b8ff" stroke="#63b8ff" points="1838.32,-24.29 1847.64,-19.25 1837.21,-17.38 1838.32,-24.29"/>
</a>
</g>
</g>
<!-- Node42 -->
<g id="Node000042" class="node">
<title>Node42</title>
<g id="a_Node000042"><a xlink:title=" ">
<polygon fill="#e0e0e0" stroke="#999999" points="909.62,-20.75 865.88,-20.75 865.88,0 909.62,0 909.62,-20.75"/>
<text text-anchor="middle" x="887.75" y="-7.25" font-family="Helvetica,sans-Serif" font-size="10.00">limits</text>
</a>
</g>
</g>
<!-- Node29&#45;&gt;Node42 -->
<g id="edge64_Node000029_Node000042" class="edge">
<title>Node29&#45;&gt;Node42</title>
<g id="a_edge64_Node000029_Node000042"><a xlink:title=" ">
<path fill="none" stroke="#63b8ff" d="M766.21,-56.34C790.94,-47.19 827.97,-33.49 854.65,-23.62"/>
<polygon fill="#63b8ff" stroke="#63b8ff" points="855.8,-26.92 863.97,-20.17 853.37,-20.36 855.8,-26.92"/>
</a>
</g>
</g>
<!-- Node43 -->
<g id="Node000043" class="node">
<title>Node43</title>
<g id="a_Node000043"><a xlink:title=" ">
<polygon fill="#e0e0e0" stroke="#999999" points="991.75,-20.75 927.75,-20.75 927.75,0 991.75,0 991.75,-20.75"/>
<text text-anchor="middle" x="959.75" y="-7.25" font-family="Helvetica,sans-Serif" font-size="10.00">exception</text>
</a>
</g>
</g>
<!-- Node29&#45;&gt;Node43 -->
<g id="edge65_Node000029_Node000043" class="edge">
<title>Node29&#45;&gt;Node43</title>
<g id="a_edge65_Node000029_Node000043"><a xlink:title=" ">
<path fill="none" stroke="#63b8ff" d="M779.34,-56.27C817.93,-46.67 876.46,-32.1 916.32,-22.18"/>
<polygon fill="#63b8ff" stroke="#63b8ff" points="916.95,-25.63 925.81,-19.82 915.26,-18.84 916.95,-25.63"/>
</a>
</g>
</g>
<!-- Node44 -->
<g id="Node000044" class="node">
<title>Node44</title>
<g id="a_Node000044"><a xlink:title=" ">
<polygon fill="#e0e0e0" stroke="#999999" points="1073.38,-20.75 1010.12,-20.75 1010.12,0 1073.38,0 1073.38,-20.75"/>
<text text-anchor="middle" x="1041.75" y="-7.25" font-family="Helvetica,sans-Serif" font-size="10.00">sys/stat.h</text>
</a>
</g>
</g>
<!-- Node29&#45;&gt;Node44 -->
<g id="edge66_Node000029_Node000044" class="edge">
<title>Node29&#45;&gt;Node44</title>
<g id="a_edge66_Node000029_Node000044"><a xlink:title=" ">
<path fill="none" stroke="#63b8ff" d="M790.42,-58.13C840.75,-50 920.38,-36.66 998.93,-21.03"/>
<polygon fill="#63b8ff" stroke="#63b8ff" points="999.4,-24.5 1008.52,-19.11 998.02,-17.64 999.4,-24.5"/>
</a>
</g>
</g>
<!-- Node45 -->
<g id="Node000045" class="node">
<title>Node45</title>
<g id="a_Node000045"><a xlink:title=" ">
<polygon fill="#e0e0e0" stroke="#999999" points="1162.5,-20.75 1091,-20.75 1091,0 1162.5,0 1162.5,-20.75"/>
<text text-anchor="middle" x="1126.75" y="-7.25" font-family="Helvetica,sans-Serif" font-size="10.00">sys/types.h</text>
</a>
</g>
</g>
<!-- Node29&#45;&gt;Node45 -->
<g id="edge67_Node000029_Node000045" class="edge">
<title>Node29&#45;&gt;Node45</title>
<g id="a_edge67_Node000029_Node000045"><a xlink:title=" ">
<path fill="none" stroke="#63b8ff" d="M790.47,-58.1C793.61,-57.63 796.72,-57.18 799.75,-56.75 921.73,-39.47 955.84,-41.83 1079.71,-21.16"/>
<polygon fill="#63b8ff" stroke="#63b8ff" points="1080.01,-24.66 1089.29,-19.55 1078.84,-17.76 1080.01,-24.66"/>
</a>
</g>
</g>
</g>
</svg>
