<?xml version="1.0" encoding="UTF-8" standalone="no"?>
<!DOCTYPE svg PUBLIC "-//W3C//DTD SVG 1.1//EN"
 "http://www.w3.org/Graphics/SVG/1.1/DTD/svg11.dtd">
<!-- Generated by graphviz version 5.0.1 (0)
 -->
<!-- Title: OneBodyRotation.cxx Pages: 1 -->
<svg width="2108pt" height="364pt"
 viewBox="0.00 0.00 2108.30 364.00" xmlns="http://www.w3.org/2000/svg" xmlns:xlink="http://www.w3.org/1999/xlink">
<g id="graph0" class="graph" transform="scale(1 1) rotate(0) translate(4 360)">
<title>OneBodyRotation.cxx</title>
<!-- Node1 -->
<g id="node1" class="node">
<title>Node1</title>
<g id="a_node1"><a xlink:title=" ">
<polygon fill="#bfbfbf" stroke="black" points="650.3,-336.5 650.3,-355.5 772.3,-355.5 772.3,-336.5 650.3,-336.5"/>
<text text-anchor="middle" x="711.3" y="-343.5" font-family="Helvetica,sans-Serif" font-size="10.00">OneBodyRotation.cxx</text>
</a>
</g>
</g>
<!-- Node2 -->
<g id="node2" class="node">
<title>Node2</title>
<g id="a_node2"><a xlink:title=" ">
<polygon fill="none" stroke="#bfbfbf" points="107.8,-56.5 107.8,-75.5 154.8,-75.5 154.8,-56.5 107.8,-56.5"/>
<text text-anchor="middle" x="131.3" y="-63.5" font-family="Helvetica,sans-Serif" font-size="10.00">vector</text>
</a>
</g>
</g>
<!-- Node1&#45;&gt;Node2 -->
<g id="edge1" class="edge">
<title>Node1&#45;&gt;Node2</title>
<path fill="none" stroke="midnightblue" d="M650.24,-344.02C517.78,-341.32 207.96,-331.72 108.3,-300 54.92,-283.01 0.3,-291.02 0.3,-235 0.3,-235 0.3,-235 0.3,-177 0.3,-146.9 -0.91,-134.3 19.3,-112 30.23,-99.95 69.07,-85.97 97.97,-76.83"/>
<polygon fill="midnightblue" stroke="midnightblue" points="99.2,-80.12 107.71,-73.81 97.12,-73.43 99.2,-80.12"/>
</g>
<!-- Node3 -->
<g id="node3" class="node">
<title>Node3</title>
<g id="a_node3"><a xlink:href="OneBodyRotation_8hpp.html" target="_top" xlink:title=" ">
<polygon fill="none" stroke="black" points="140.8,-280.5 140.8,-299.5 319.8,-299.5 319.8,-280.5 140.8,-280.5"/>
<text text-anchor="middle" x="230.3" y="-287.5" font-family="Helvetica,sans-Serif" font-size="10.00">algorithms/OneBodyRotation.hpp</text>
</a>
</g>
</g>
<!-- Node1&#45;&gt;Node3 -->
<g id="edge2" class="edge">
<title>Node1&#45;&gt;Node3</title>
<path fill="none" stroke="midnightblue" d="M649.9,-338.11C565.26,-328.6 412.36,-311.44 316.36,-300.66"/>
<polygon fill="midnightblue" stroke="midnightblue" points="316.72,-297.18 306.39,-299.54 315.94,-304.14 316.72,-297.18"/>
</g>
<!-- Node6 -->
<g id="node6" class="node">
<title>Node6</title>
<g id="a_node6"><a xlink:href="Log_8hpp.html" target="_top" xlink:title=" ">
<polygon fill="none" stroke="black" points="674.3,-112.5 674.3,-131.5 748.3,-131.5 748.3,-112.5 674.3,-112.5"/>
<text text-anchor="middle" x="711.3" y="-119.5" font-family="Helvetica,sans-Serif" font-size="10.00">util/Log.hpp</text>
</a>
</g>
</g>
<!-- Node1&#45;&gt;Node6 -->
<g id="edge65" class="edge">
<title>Node1&#45;&gt;Node6</title>
<path fill="none" stroke="midnightblue" d="M711.3,-336.3C711.3,-303.63 711.3,-187.87 711.3,-141.96"/>
<polygon fill="midnightblue" stroke="midnightblue" points="714.8,-141.88 711.3,-131.88 707.8,-141.88 714.8,-141.88"/>
</g>
<!-- Node15 -->
<g id="node15" class="node">
<title>Node15</title>
<g id="a_node15"><a xlink:title=" ">
<polygon fill="none" stroke="#bfbfbf" points="700.3,-56.5 700.3,-75.5 760.3,-75.5 760.3,-56.5 700.3,-56.5"/>
<text text-anchor="middle" x="730.3" y="-63.5" font-family="Helvetica,sans-Serif" font-size="10.00">iostream</text>
</a>
</g>
</g>
<!-- Node1&#45;&gt;Node15 -->
<g id="edge66" class="edge">
<title>Node1&#45;&gt;Node15</title>
<path fill="none" stroke="midnightblue" d="M772.51,-336.7C830.02,-325.05 907.3,-297.73 907.3,-235 907.3,-235 907.3,-235 907.3,-177 907.3,-143.25 813.3,-100.27 762.31,-79.44"/>
<polygon fill="midnightblue" stroke="midnightblue" points="763.31,-76.07 752.72,-75.58 760.69,-82.56 763.31,-76.07"/>
</g>
<!-- Node22 -->
<g id="node22" class="node">
<title>Node22</title>
<g id="a_node22"><a xlink:href="CTF_8hpp.html" target="_top" xlink:title=" ">
<polygon fill="none" stroke="black" points="28.3,-112.5 28.3,-131.5 102.3,-131.5 102.3,-112.5 28.3,-112.5"/>
<text text-anchor="middle" x="65.3" y="-119.5" font-family="Helvetica,sans-Serif" font-size="10.00">util/CTF.hpp</text>
</a>
</g>
</g>
<!-- Node1&#45;&gt;Node22 -->
<g id="edge67" class="edge">
<title>Node1&#45;&gt;Node22</title>
<path fill="none" stroke="midnightblue" d="M650.21,-343.93C509.61,-340.97 172.04,-330.69 131.3,-300 80.27,-261.55 68.69,-179.1 66.07,-141.89"/>
<polygon fill="midnightblue" stroke="midnightblue" points="69.56,-141.69 65.51,-131.9 62.57,-142.08 69.56,-141.69"/>
</g>
<!-- Node25 -->
<g id="node25" class="node">
<title>Node25</title>
<g id="a_node25"><a xlink:href="Sisi4s_8hpp.html" target="_top" xlink:title=" ">
<polygon fill="none" stroke="black" points="741.3,-224.5 741.3,-243.5 807.3,-243.5 807.3,-224.5 741.3,-224.5"/>
<text text-anchor="middle" x="774.3" y="-231.5" font-family="Helvetica,sans-Serif" font-size="10.00">Sisi4s.hpp</text>
</a>
</g>
</g>
<!-- Node1&#45;&gt;Node25 -->
<g id="edge35" class="edge">
<title>Node1&#45;&gt;Node25</title>
<path fill="none" stroke="midnightblue" d="M716.25,-336.37C726.6,-318.3 750.72,-276.18 764.39,-252.31"/>
<polygon fill="midnightblue" stroke="midnightblue" points="767.45,-254.01 769.38,-243.59 761.38,-250.53 767.45,-254.01"/>
</g>
<!-- Node43 -->
<g id="node43" class="node">
<title>Node43</title>
<g id="a_node43"><a xlink:href="Emitter_8hpp.html" target="_top" xlink:title=" ">
<polygon fill="none" stroke="black" points="1095.3,-168.5 1095.3,-187.5 1187.3,-187.5 1187.3,-168.5 1095.3,-168.5"/>
<text text-anchor="middle" x="1141.3" y="-175.5" font-family="Helvetica,sans-Serif" font-size="10.00">util/Emitter.hpp</text>
</a>
</g>
</g>
<!-- Node1&#45;&gt;Node43 -->
<g id="edge68" class="edge">
<title>Node1&#45;&gt;Node43</title>
<path fill="none" stroke="midnightblue" d="M772.37,-336.74C815.01,-329.82 872.74,-318.11 921.3,-300 998.49,-271.21 1081.61,-218.99 1119.84,-193.62"/>
<polygon fill="midnightblue" stroke="midnightblue" points="1122.2,-196.25 1128.56,-187.78 1118.3,-190.43 1122.2,-196.25"/>
</g>
<!-- Node4 -->
<g id="node4" class="node">
<title>Node4</title>
<g id="a_node4"><a xlink:href="Algorithm_8hpp.html" target="_top" xlink:title=" ">
<polygon fill="none" stroke="black" points="121.8,-224.5 121.8,-243.5 262.8,-243.5 262.8,-224.5 121.8,-224.5"/>
<text text-anchor="middle" x="192.3" y="-231.5" font-family="Helvetica,sans-Serif" font-size="10.00">algorithms/Algorithm.hpp</text>
</a>
</g>
</g>
<!-- Node3&#45;&gt;Node4 -->
<g id="edge3" class="edge">
<title>Node3&#45;&gt;Node4</title>
<path fill="none" stroke="midnightblue" d="M224.03,-280.08C218.66,-272.46 210.79,-261.26 204.23,-251.94"/>
<polygon fill="midnightblue" stroke="midnightblue" points="207.08,-249.91 198.46,-243.75 201.36,-253.94 207.08,-249.91"/>
</g>
<!-- Node4&#45;&gt;Node2 -->
<g id="edge32" class="edge">
<title>Node4&#45;&gt;Node2</title>
<path fill="none" stroke="midnightblue" d="M189.02,-224.08C179.38,-197.83 150.98,-120.55 137.96,-85.12"/>
<polygon fill="midnightblue" stroke="midnightblue" points="141.19,-83.75 134.45,-75.57 134.62,-86.16 141.19,-83.75"/>
</g>
<!-- Node5 -->
<g id="node5" class="node">
<title>Node5</title>
<g id="a_node5"><a xlink:href="Data_8hpp.html" target="_top" xlink:title=" ">
<polygon fill="none" stroke="black" points="258.8,-168.5 258.8,-187.5 319.8,-187.5 319.8,-168.5 258.8,-168.5"/>
<text text-anchor="middle" x="289.3" y="-175.5" font-family="Helvetica,sans-Serif" font-size="10.00">Data.hpp</text>
</a>
</g>
</g>
<!-- Node4&#45;&gt;Node5 -->
<g id="edge4" class="edge">
<title>Node4&#45;&gt;Node5</title>
<path fill="none" stroke="midnightblue" d="M207.89,-224.32C223.3,-215.74 247.12,-202.49 265.01,-192.52"/>
<polygon fill="midnightblue" stroke="midnightblue" points="266.72,-195.58 273.76,-187.65 263.32,-189.46 266.72,-195.58"/>
</g>
<!-- Node12 -->
<g id="node12" class="node">
<title>Node12</title>
<g id="a_node12"><a xlink:title=" ">
<polygon fill="none" stroke="#bfbfbf" points="475.3,-0.5 475.3,-19.5 531.3,-19.5 531.3,-0.5 475.3,-0.5"/>
<text text-anchor="middle" x="503.3" y="-7.5" font-family="Helvetica,sans-Serif" font-size="10.00">sstream</text>
</a>
</g>
</g>
<!-- Node4&#45;&gt;Node12 -->
<g id="edge33" class="edge">
<title>Node4&#45;&gt;Node12</title>
<path fill="none" stroke="midnightblue" d="M156.2,-224.47C113.79,-212.21 45.88,-185.01 19.3,-132 9.65,-112.74 19.13,-66.12 30.3,-56 46.37,-41.45 355.09,-20.45 464.92,-13.4"/>
<polygon fill="midnightblue" stroke="midnightblue" points="465.46,-16.88 475.21,-12.75 465.01,-9.89 465.46,-16.88"/>
</g>
<!-- Node14 -->
<g id="node14" class="node">
<title>Node14</title>
<g id="a_node14"><a xlink:title=" ">
<polygon fill="none" stroke="#bfbfbf" points="453.3,-56.5 453.3,-75.5 497.3,-75.5 497.3,-56.5 453.3,-56.5"/>
<text text-anchor="middle" x="475.3" y="-63.5" font-family="Helvetica,sans-Serif" font-size="10.00">string</text>
</a>
</g>
</g>
<!-- Node4&#45;&gt;Node14 -->
<g id="edge31" class="edge">
<title>Node4&#45;&gt;Node14</title>
<path fill="none" stroke="midnightblue" d="M255.27,-224.45C348.37,-210.37 515.63,-179.09 551.3,-132 568,-109.96 534.52,-90.19 506.83,-78.4"/>
<polygon fill="midnightblue" stroke="midnightblue" points="507.95,-75.07 497.37,-74.56 505.32,-81.56 507.95,-75.07"/>
</g>
<!-- Node4&#45;&gt;Node22 -->
<g id="edge34" class="edge">
<title>Node4&#45;&gt;Node22</title>
<path fill="none" stroke="midnightblue" d="M173.54,-224.36C157.33,-216.35 133.83,-203.37 116.3,-188 100.36,-174.01 85.82,-154.5 76.38,-140.51"/>
<polygon fill="midnightblue" stroke="midnightblue" points="79.11,-138.29 70.71,-131.84 73.25,-142.12 79.11,-138.29"/>
</g>
<!-- Node5&#45;&gt;Node2 -->
<g id="edge24" class="edge">
<title>Node5&#45;&gt;Node2</title>
<path fill="none" stroke="midnightblue" d="M273.73,-168.41C258.31,-159.73 234.2,-145.68 214.3,-132 191.06,-116.02 165.72,-95.72 149.23,-82.09"/>
<polygon fill="midnightblue" stroke="midnightblue" points="151.4,-79.34 141.47,-75.63 146.92,-84.72 151.4,-79.34"/>
</g>
<!-- Node5&#45;&gt;Node6 -->
<g id="edge5" class="edge">
<title>Node5&#45;&gt;Node6</title>
<path fill="none" stroke="midnightblue" d="M319.99,-173.07C392.9,-163.74 576.88,-140.2 664.07,-129.04"/>
<polygon fill="midnightblue" stroke="midnightblue" points="664.74,-132.49 674.21,-127.75 663.85,-125.54 664.74,-132.49"/>
</g>
<!-- Node5&#45;&gt;Node14 -->
<g id="edge22" class="edge">
<title>Node5&#45;&gt;Node14</title>
<path fill="none" stroke="midnightblue" d="M306.02,-168.35C322.91,-159.52 349.67,-145.26 372.3,-132 400.78,-115.32 432.83,-94.81 453.5,-81.35"/>
<polygon fill="midnightblue" stroke="midnightblue" points="455.69,-84.1 462.14,-75.7 451.86,-78.24 455.69,-84.1"/>
</g>
<!-- Node18 -->
<g id="node18" class="node">
<title>Node18</title>
<g id="a_node18"><a xlink:href="Float_8hpp.html" target="_top" xlink:title=" ">
<polygon fill="none" stroke="black" points="172.8,-56.5 172.8,-75.5 263.8,-75.5 263.8,-56.5 172.8,-56.5"/>
<text text-anchor="middle" x="218.3" y="-63.5" font-family="Helvetica,sans-Serif" font-size="10.00">math/Float.hpp</text>
</a>
</g>
</g>
<!-- Node5&#45;&gt;Node18 -->
<g id="edge17" class="edge">
<title>Node5&#45;&gt;Node18</title>
<path fill="none" stroke="midnightblue" d="M268.98,-168.37C254.25,-160.98 235.24,-148.85 225.3,-132 217.11,-118.1 215.86,-99.59 216.37,-85.88"/>
<polygon fill="midnightblue" stroke="midnightblue" points="219.87,-85.92 217.09,-75.69 212.89,-85.42 219.87,-85.92"/>
</g>
<!-- Node19 -->
<g id="node19" class="node">
<title>Node19</title>
<g id="a_node19"><a xlink:href="Complex_8hpp.html" target="_top" xlink:title=" ">
<polygon fill="none" stroke="black" points="234.3,-112.5 234.3,-131.5 344.3,-131.5 344.3,-112.5 234.3,-112.5"/>
<text text-anchor="middle" x="289.3" y="-119.5" font-family="Helvetica,sans-Serif" font-size="10.00">math/Complex.hpp</text>
</a>
</g>
</g>
<!-- Node5&#45;&gt;Node19 -->
<g id="edge19" class="edge">
<title>Node5&#45;&gt;Node19</title>
<path fill="none" stroke="midnightblue" d="M289.3,-168.08C289.3,-161.01 289.3,-150.86 289.3,-141.99"/>
<polygon fill="midnightblue" stroke="midnightblue" points="292.8,-141.75 289.3,-131.75 285.8,-141.75 292.8,-141.75"/>
</g>
<!-- Node21 -->
<g id="node21" class="node">
<title>Node21</title>
<g id="a_node21"><a xlink:title=" ">
<polygon fill="none" stroke="#bfbfbf" points="359.3,-56.5 359.3,-75.5 397.3,-75.5 397.3,-56.5 359.3,-56.5"/>
<text text-anchor="middle" x="378.3" y="-63.5" font-family="Helvetica,sans-Serif" font-size="10.00">map</text>
</a>
</g>
</g>
<!-- Node5&#45;&gt;Node21 -->
<g id="edge23" class="edge">
<title>Node5&#45;&gt;Node21</title>
<path fill="none" stroke="midnightblue" d="M306.98,-168.35C321.22,-160.58 340.85,-147.96 353.3,-132 363.99,-118.31 370.55,-99.53 374.26,-85.67"/>
<polygon fill="midnightblue" stroke="midnightblue" points="377.69,-86.35 376.64,-75.8 370.89,-84.7 377.69,-86.35"/>
</g>
<!-- Node5&#45;&gt;Node22 -->
<g id="edge25" class="edge">
<title>Node5&#45;&gt;Node22</title>
<path fill="none" stroke="midnightblue" d="M258.63,-169.6C220.39,-160.39 154.71,-144.55 110.65,-133.93"/>
<polygon fill="midnightblue" stroke="midnightblue" points="111.32,-130.49 100.77,-131.55 109.68,-137.3 111.32,-130.49"/>
</g>
<!-- Node24 -->
<g id="node24" class="node">
<title>Node24</title>
<g id="a_node24"><a xlink:href="Exception_8hpp.html" target="_top" xlink:title=" ">
<polygon fill="none" stroke="black" points="438.3,-112.5 438.3,-131.5 542.3,-131.5 542.3,-112.5 438.3,-112.5"/>
<text text-anchor="middle" x="490.3" y="-119.5" font-family="Helvetica,sans-Serif" font-size="10.00">util/Exception.hpp</text>
</a>
</g>
</g>
<!-- Node5&#45;&gt;Node24 -->
<g id="edge27" class="edge">
<title>Node5&#45;&gt;Node24</title>
<path fill="none" stroke="midnightblue" d="M319.83,-168.8C354.21,-159.56 410.27,-144.5 448.65,-134.19"/>
<polygon fill="midnightblue" stroke="midnightblue" points="449.74,-137.52 458.49,-131.55 447.93,-130.76 449.74,-137.52"/>
</g>
<!-- Node7 -->
<g id="node7" class="node">
<title>Node7</title>
<g id="a_node7"><a xlink:href="Time_8hpp.html" target="_top" xlink:title=" ">
<polygon fill="none" stroke="black" points="600.8,-56.5 600.8,-75.5 681.8,-75.5 681.8,-56.5 600.8,-56.5"/>
<text text-anchor="middle" x="641.3" y="-63.5" font-family="Helvetica,sans-Serif" font-size="10.00">util/Time.hpp</text>
</a>
</g>
</g>
<!-- Node6&#45;&gt;Node7 -->
<g id="edge6" class="edge">
<title>Node6&#45;&gt;Node7</title>
<path fill="none" stroke="midnightblue" d="M700.06,-112.32C689.51,-104.18 673.5,-91.84 660.86,-82.09"/>
<polygon fill="midnightblue" stroke="midnightblue" points="662.81,-79.17 652.76,-75.83 658.54,-84.71 662.81,-79.17"/>
</g>
<!-- Node6&#45;&gt;Node14 -->
<g id="edge13" class="edge">
<title>Node6&#45;&gt;Node14</title>
<path fill="none" stroke="midnightblue" d="M674.3,-113.5C635.32,-105.45 571.92,-91.95 507.56,-75.94"/>
<polygon fill="midnightblue" stroke="midnightblue" points="508.19,-72.49 497.64,-73.46 506.49,-79.28 508.19,-72.49"/>
</g>
<!-- Node6&#45;&gt;Node15 -->
<g id="edge14" class="edge">
<title>Node6&#45;&gt;Node15</title>
<path fill="none" stroke="midnightblue" d="M714.44,-112.08C716.99,-104.85 720.66,-94.41 723.83,-85.4"/>
<polygon fill="midnightblue" stroke="midnightblue" points="727.21,-86.35 727.23,-75.75 720.6,-84.02 727.21,-86.35"/>
</g>
<!-- Node16 -->
<g id="node16" class="node">
<title>Node16</title>
<g id="a_node16"><a xlink:title=" ">
<polygon fill="none" stroke="#bfbfbf" points="515.8,-56.5 515.8,-75.5 582.8,-75.5 582.8,-56.5 515.8,-56.5"/>
<text text-anchor="middle" x="549.3" y="-63.5" font-family="Helvetica,sans-Serif" font-size="10.00">streambuf</text>
</a>
</g>
</g>
<!-- Node6&#45;&gt;Node16 -->
<g id="edge15" class="edge">
<title>Node6&#45;&gt;Node16</title>
<path fill="none" stroke="midnightblue" d="M685.64,-112.44C658.38,-103.36 615.12,-88.94 584.65,-78.78"/>
<polygon fill="midnightblue" stroke="midnightblue" points="585.45,-75.36 574.85,-75.52 583.23,-82 585.45,-75.36"/>
</g>
<!-- Node17 -->
<g id="node17" class="node">
<title>Node17</title>
<g id="a_node17"><a xlink:title=" ">
<polygon fill="none" stroke="#bfbfbf" points="778.8,-56.5 778.8,-75.5 833.8,-75.5 833.8,-56.5 778.8,-56.5"/>
<text text-anchor="middle" x="806.3" y="-63.5" font-family="Helvetica,sans-Serif" font-size="10.00">fstream</text>
</a>
</g>
</g>
<!-- Node6&#45;&gt;Node17 -->
<g id="edge16" class="edge">
<title>Node6&#45;&gt;Node17</title>
<path fill="none" stroke="midnightblue" d="M726.57,-112.32C741.53,-103.82 764.56,-90.73 782.03,-80.8"/>
<polygon fill="midnightblue" stroke="midnightblue" points="784.11,-83.64 791.08,-75.65 780.66,-77.55 784.11,-83.64"/>
</g>
<!-- Node8 -->
<g id="node8" class="node">
<title>Node8</title>
<g id="a_node8"><a xlink:title=" ">
<polygon fill="none" stroke="#bfbfbf" points="619.3,-0.5 619.3,-19.5 663.3,-19.5 663.3,-0.5 619.3,-0.5"/>
<text text-anchor="middle" x="641.3" y="-7.5" font-family="Helvetica,sans-Serif" font-size="10.00">ctime</text>
</a>
</g>
</g>
<!-- Node7&#45;&gt;Node8 -->
<g id="edge7" class="edge">
<title>Node7&#45;&gt;Node8</title>
<path fill="none" stroke="midnightblue" d="M641.3,-56.08C641.3,-49.01 641.3,-38.86 641.3,-29.99"/>
<polygon fill="midnightblue" stroke="midnightblue" points="644.8,-29.75 641.3,-19.75 637.8,-29.75 644.8,-29.75"/>
</g>
<!-- Node9 -->
<g id="node9" class="node">
<title>Node9</title>
<g id="a_node9"><a xlink:title=" ">
<polygon fill="none" stroke="#bfbfbf" points="1155.3,-0.5 1155.3,-19.5 1205.3,-19.5 1205.3,-0.5 1155.3,-0.5"/>
<text text-anchor="middle" x="1180.3" y="-7.5" font-family="Helvetica,sans-Serif" font-size="10.00">cstdint</text>
</a>
</g>
</g>
<!-- Node7&#45;&gt;Node9 -->
<g id="edge8" class="edge">
<title>Node7&#45;&gt;Node9</title>
<path fill="none" stroke="midnightblue" d="M681.92,-57.39C685.09,-56.89 688.25,-56.42 691.3,-56 860.68,-33.01 1064.7,-18.43 1145.2,-13.19"/>
<polygon fill="midnightblue" stroke="midnightblue" points="1145.53,-16.67 1155.28,-12.54 1145.08,-9.69 1145.53,-16.67"/>
</g>
<!-- Node10 -->
<g id="node10" class="node">
<title>Node10</title>
<g id="a_node10"><a xlink:title=" ">
<polygon fill="none" stroke="#bfbfbf" points="259.8,-0.5 259.8,-19.5 316.8,-19.5 316.8,-0.5 259.8,-0.5"/>
<text text-anchor="middle" x="288.3" y="-7.5" font-family="Helvetica,sans-Serif" font-size="10.00">ostream</text>
</a>
</g>
</g>
<!-- Node7&#45;&gt;Node10 -->
<g id="edge9" class="edge">
<title>Node7&#45;&gt;Node10</title>
<path fill="none" stroke="midnightblue" d="M600.68,-57.43C597.85,-56.93 595.04,-56.45 592.3,-56 497.17,-40.23 384.83,-24.29 327,-16.29"/>
<polygon fill="midnightblue" stroke="midnightblue" points="327.24,-12.79 316.86,-14.89 326.28,-19.72 327.24,-12.79"/>
</g>
<!-- Node11 -->
<g id="node11" class="node">
<title>Node11</title>
<g id="a_node11"><a xlink:title=" ">
<polygon fill="none" stroke="#bfbfbf" points="1460.3,-0.5 1460.3,-19.5 1516.3,-19.5 1516.3,-0.5 1460.3,-0.5"/>
<text text-anchor="middle" x="1488.3" y="-7.5" font-family="Helvetica,sans-Serif" font-size="10.00">iomanip</text>
</a>
</g>
</g>
<!-- Node7&#45;&gt;Node11 -->
<g id="edge10" class="edge">
<title>Node7&#45;&gt;Node11</title>
<path fill="none" stroke="midnightblue" d="M681.9,-57.27C685.08,-56.79 688.24,-56.36 691.3,-56 841.04,-38.36 1311.98,-18.2 1449.96,-12.54"/>
<polygon fill="midnightblue" stroke="midnightblue" points="1450.21,-16.04 1460.05,-12.13 1449.92,-9.04 1450.21,-16.04"/>
</g>
<!-- Node7&#45;&gt;Node12 -->
<g id="edge11" class="edge">
<title>Node7&#45;&gt;Node12</title>
<path fill="none" stroke="midnightblue" d="M619.44,-56.44C596.53,-47.48 560.33,-33.31 534.44,-23.18"/>
<polygon fill="midnightblue" stroke="midnightblue" points="535.66,-19.9 525.07,-19.52 533.11,-26.42 535.66,-19.9"/>
</g>
<!-- Node13 -->
<g id="node13" class="node">
<title>Node13</title>
<g id="a_node13"><a xlink:title=" ">
<polygon fill="none" stroke="#bfbfbf" points="1653.8,-0.5 1653.8,-19.5 1700.8,-19.5 1700.8,-0.5 1653.8,-0.5"/>
<text text-anchor="middle" x="1677.3" y="-7.5" font-family="Helvetica,sans-Serif" font-size="10.00">cmath</text>
</a>
</g>
</g>
<!-- Node7&#45;&gt;Node13 -->
<g id="edge12" class="edge">
<title>Node7&#45;&gt;Node13</title>
<path fill="none" stroke="midnightblue" d="M681.9,-57.22C685.07,-56.76 688.24,-56.34 691.3,-56 1060.05,-15.04 1154.78,-38.97 1525.3,-20 1565.92,-17.92 1612.62,-15.09 1643.42,-13.16"/>
<polygon fill="midnightblue" stroke="midnightblue" points="1643.86,-16.64 1653.62,-12.52 1643.42,-9.66 1643.86,-16.64"/>
</g>
<!-- Node18&#45;&gt;Node10 -->
<g id="edge18" class="edge">
<title>Node18&#45;&gt;Node10</title>
<path fill="none" stroke="midnightblue" d="M229.55,-56.32C240.1,-48.18 256.11,-35.84 268.75,-26.09"/>
<polygon fill="midnightblue" stroke="midnightblue" points="271.07,-28.71 276.85,-19.83 266.8,-23.17 271.07,-28.71"/>
</g>
<!-- Node19&#45;&gt;Node18 -->
<g id="edge20" class="edge">
<title>Node19&#45;&gt;Node18</title>
<path fill="none" stroke="midnightblue" d="M277.9,-112.32C267.2,-104.18 250.96,-91.84 238.14,-82.09"/>
<polygon fill="midnightblue" stroke="midnightblue" points="240,-79.1 229.92,-75.83 235.76,-84.67 240,-79.1"/>
</g>
<!-- Node20 -->
<g id="node20" class="node">
<title>Node20</title>
<g id="a_node20"><a xlink:title=" ">
<polygon fill="none" stroke="#bfbfbf" points="281.8,-56.5 281.8,-75.5 340.8,-75.5 340.8,-56.5 281.8,-56.5"/>
<text text-anchor="middle" x="311.3" y="-63.5" font-family="Helvetica,sans-Serif" font-size="10.00">complex</text>
</a>
</g>
</g>
<!-- Node19&#45;&gt;Node20 -->
<g id="edge21" class="edge">
<title>Node19&#45;&gt;Node20</title>
<path fill="none" stroke="midnightblue" d="M292.94,-112.08C295.92,-104.77 300.23,-94.18 303.93,-85.1"/>
<polygon fill="midnightblue" stroke="midnightblue" points="307.21,-86.33 307.74,-75.75 300.72,-83.69 307.21,-86.33"/>
</g>
<!-- Node23 -->
<g id="node23" class="node">
<title>Node23</title>
<g id="a_node23"><a xlink:title=" ">
<polygon fill="none" stroke="#bfbfbf" points="39.3,-56.5 39.3,-75.5 89.3,-75.5 89.3,-56.5 39.3,-56.5"/>
<text text-anchor="middle" x="64.3" y="-63.5" font-family="Helvetica,sans-Serif" font-size="10.00">ctf.hpp</text>
</a>
</g>
</g>
<!-- Node22&#45;&gt;Node23 -->
<g id="edge26" class="edge">
<title>Node22&#45;&gt;Node23</title>
<path fill="none" stroke="midnightblue" d="M65.14,-112.08C65.01,-105.01 64.82,-94.86 64.66,-85.99"/>
<polygon fill="midnightblue" stroke="midnightblue" points="68.15,-85.68 64.47,-75.75 61.15,-85.81 68.15,-85.68"/>
</g>
<!-- Node24&#45;&gt;Node12 -->
<g id="edge29" class="edge">
<title>Node24&#45;&gt;Node12</title>
<path fill="none" stroke="midnightblue" d="M476.47,-112.31C459.3,-100.35 433.51,-77.81 444.3,-56 450.91,-42.66 463.57,-32.19 475.48,-24.73"/>
<polygon fill="midnightblue" stroke="midnightblue" points="477.42,-27.64 484.32,-19.6 473.91,-21.59 477.42,-27.64"/>
</g>
<!-- Node24&#45;&gt;Node14 -->
<g id="edge28" class="edge">
<title>Node24&#45;&gt;Node14</title>
<path fill="none" stroke="midnightblue" d="M487.83,-112.08C485.82,-104.85 482.92,-94.41 480.41,-85.4"/>
<polygon fill="midnightblue" stroke="midnightblue" points="483.78,-84.45 477.74,-75.75 477.04,-86.32 483.78,-84.45"/>
</g>
<!-- Node24&#45;&gt;Node15 -->
<g id="edge30" class="edge">
<title>Node24&#45;&gt;Node15</title>
<path fill="none" stroke="midnightblue" d="M528.85,-112.45C567.27,-103.91 628.23,-90.31 690.13,-76.26"/>
<polygon fill="midnightblue" stroke="midnightblue" points="691.1,-79.63 700.08,-74 689.55,-72.8 691.1,-79.63"/>
</g>
<!-- Node25&#45;&gt;Node7 -->
<g id="edge36" class="edge">
<title>Node25&#45;&gt;Node7</title>
<path fill="none" stroke="midnightblue" d="M775.81,-224.25C779.02,-202.61 784.18,-145.92 757.3,-112 747.66,-99.83 712.27,-87.14 683.09,-78.35"/>
<polygon fill="midnightblue" stroke="midnightblue" points="684.06,-74.99 673.48,-75.52 682.09,-81.7 684.06,-74.99"/>
</g>
<!-- Node25&#45;&gt;Node22 -->
<g id="edge37" class="edge">
<title>Node25&#45;&gt;Node22</title>
<path fill="none" stroke="midnightblue" d="M741.01,-233.06C657.34,-232.58 431.95,-227.41 249.3,-188 192.55,-175.75 129.32,-150.77 93.72,-135.59"/>
<polygon fill="midnightblue" stroke="midnightblue" points="95.01,-132.34 84.44,-131.59 92.24,-138.77 95.01,-132.34"/>
</g>
<!-- Node26 -->
<g id="node26" class="node">
<title>Node26</title>
<g id="a_node26"><a xlink:href="Options_8hpp.html" target="_top" xlink:title=" ">
<polygon fill="none" stroke="black" points="803.8,-168.5 803.8,-187.5 878.8,-187.5 878.8,-168.5 803.8,-168.5"/>
<text text-anchor="middle" x="841.3" y="-175.5" font-family="Helvetica,sans-Serif" font-size="10.00">Options.hpp</text>
</a>
</g>
</g>
<!-- Node25&#45;&gt;Node26 -->
<g id="edge38" class="edge">
<title>Node25&#45;&gt;Node26</title>
<path fill="none" stroke="midnightblue" d="M785.07,-224.32C795.07,-216.26 810.19,-204.08 822.24,-194.37"/>
<polygon fill="midnightblue" stroke="midnightblue" points="824.75,-196.83 830.34,-187.83 820.36,-191.38 824.75,-196.83"/>
</g>
<!-- Node26&#45;&gt;Node14 -->
<g id="edge39" class="edge">
<title>Node26&#45;&gt;Node14</title>
<path fill="none" stroke="midnightblue" d="M803.77,-171.05C761.53,-163.87 691.1,-150.41 632.3,-132 610.25,-125.09 605.65,-120.85 584.3,-112 557.74,-100.98 527.5,-88.5 505.63,-79.49"/>
<polygon fill="midnightblue" stroke="midnightblue" points="506.79,-76.18 496.21,-75.61 504.12,-82.65 506.79,-76.18"/>
</g>
<!-- Node27 -->
<g id="node27" class="node">
<title>Node27</title>
<g id="a_node27"><a xlink:href="CLI11_8hpp.html" target="_top" xlink:title=" ">
<polygon fill="none" stroke="black" points="1174.8,-112.5 1174.8,-131.5 1273.8,-131.5 1273.8,-112.5 1174.8,-112.5"/>
<text text-anchor="middle" x="1224.3" y="-119.5" font-family="Helvetica,sans-Serif" font-size="10.00">extern/CLI11.hpp</text>
</a>
</g>
</g>
<!-- Node26&#45;&gt;Node27 -->
<g id="edge40" class="edge">
<title>Node26&#45;&gt;Node27</title>
<path fill="none" stroke="midnightblue" d="M879.08,-171.67C945.63,-162.29 1084.29,-142.74 1164.15,-131.48"/>
<polygon fill="midnightblue" stroke="midnightblue" points="1165.12,-134.88 1174.54,-130.02 1164.15,-127.95 1165.12,-134.88"/>
</g>
<!-- Node27&#45;&gt;Node2 -->
<g id="edge60" class="edge">
<title>Node27&#45;&gt;Node2</title>
<path fill="none" stroke="midnightblue" d="M1174.54,-120.42C995.18,-118.08 381.46,-108.01 164.94,-75.85"/>
<polygon fill="midnightblue" stroke="midnightblue" points="165.35,-72.37 154.93,-74.3 164.28,-79.29 165.35,-72.37"/>
</g>
<!-- Node27&#45;&gt;Node9 -->
<g id="edge54" class="edge">
<title>Node27&#45;&gt;Node9</title>
<path fill="none" stroke="midnightblue" d="M1273.85,-113.2C1277.04,-112.77 1280.22,-112.37 1283.3,-112 1376.36,-100.91 1764.66,-125.06 1701.3,-56 1684.85,-38.06 1330.02,-18.58 1215.56,-12.75"/>
<polygon fill="midnightblue" stroke="midnightblue" points="1215.72,-9.25 1205.56,-12.24 1215.37,-16.24 1215.72,-9.25"/>
</g>
<!-- Node27&#45;&gt;Node11 -->
<g id="edge50" class="edge">
<title>Node27&#45;&gt;Node11</title>
<path fill="none" stroke="midnightblue" d="M1273.85,-113.19C1277.04,-112.76 1280.22,-112.36 1283.3,-112 1331.47,-106.34 1685.46,-111.68 1718.3,-76 1724.33,-69.46 1723.95,-62.86 1718.3,-56 1694.46,-27.03 1585.6,-16.45 1526.59,-12.79"/>
<polygon fill="midnightblue" stroke="midnightblue" points="1526.72,-9.29 1516.53,-12.21 1526.31,-16.28 1526.72,-9.29"/>
</g>
<!-- Node27&#45;&gt;Node12 -->
<g id="edge52" class="edge">
<title>Node27&#45;&gt;Node12</title>
<path fill="none" stroke="midnightblue" d="M1174.75,-119.77C1107.19,-116.91 983.07,-107.43 882.3,-76 863.71,-70.2 861.9,-61.81 843.3,-56 787.67,-38.62 618.26,-21.5 541.65,-14.41"/>
<polygon fill="midnightblue" stroke="midnightblue" points="541.75,-10.91 531.47,-13.48 541.11,-17.88 541.75,-10.91"/>
</g>
<!-- Node27&#45;&gt;Node13 -->
<g id="edge43" class="edge">
<title>Node27&#45;&gt;Node13</title>
<path fill="none" stroke="midnightblue" d="M1273.84,-113.18C1277.04,-112.76 1280.22,-112.36 1283.3,-112 1333.24,-106.21 1700.2,-112.93 1734.3,-76 1750.41,-58.55 1724.84,-37.85 1702.96,-24.57"/>
<polygon fill="midnightblue" stroke="midnightblue" points="1704.65,-21.51 1694.24,-19.54 1701.15,-27.57 1704.65,-21.51"/>
</g>
<!-- Node27&#45;&gt;Node14 -->
<g id="edge42" class="edge">
<title>Node27&#45;&gt;Node14</title>
<path fill="none" stroke="midnightblue" d="M1174.78,-121.48C1059.3,-121.82 763.32,-118.28 507.77,-75.63"/>
<polygon fill="midnightblue" stroke="midnightblue" points="507.99,-72.12 497.55,-73.9 506.82,-79.02 507.99,-72.12"/>
</g>
<!-- Node27&#45;&gt;Node15 -->
<g id="edge55" class="edge">
<title>Node27&#45;&gt;Node15</title>
<path fill="none" stroke="midnightblue" d="M1174.67,-118.08C1090.91,-112.7 916.33,-99.57 770.3,-76 770.2,-75.98 770.1,-75.97 770,-75.95"/>
<polygon fill="midnightblue" stroke="midnightblue" points="770.84,-72.55 760.37,-74.18 769.57,-79.43 770.84,-72.55"/>
</g>
<!-- Node27&#45;&gt;Node17 -->
<g id="edge47" class="edge">
<title>Node27&#45;&gt;Node17</title>
<path fill="none" stroke="midnightblue" d="M1174.53,-116.51C1102.35,-109.68 964.55,-95.37 848.3,-76 847.02,-75.79 845.72,-75.56 844.4,-75.32"/>
<polygon fill="midnightblue" stroke="midnightblue" points="844.73,-71.82 834.25,-73.36 843.41,-78.7 844.73,-71.82"/>
</g>
<!-- Node27&#45;&gt;Node21 -->
<g id="edge46" class="edge">
<title>Node27&#45;&gt;Node21</title>
<path fill="none" stroke="midnightblue" d="M1174.47,-119.47C1050.69,-115.38 719.39,-102.65 444.3,-76 432.14,-74.82 418.78,-73.08 407.27,-71.45"/>
<polygon fill="midnightblue" stroke="midnightblue" points="407.72,-67.98 397.32,-69.99 406.71,-74.9 407.72,-67.98"/>
</g>
<!-- Node28 -->
<g id="node28" class="node">
<title>Node28</title>
<g id="a_node28"><a xlink:title=" ">
<polygon fill="none" stroke="#bfbfbf" points="2042.3,-56.5 2042.3,-75.5 2100.3,-75.5 2100.3,-56.5 2042.3,-56.5"/>
<text text-anchor="middle" x="2071.3" y="-63.5" font-family="Helvetica,sans-Serif" font-size="10.00">memory</text>
</a>
</g>
</g>
<!-- Node27&#45;&gt;Node28 -->
<g id="edge41" class="edge">
<title>Node27&#45;&gt;Node28</title>
<path fill="none" stroke="midnightblue" d="M1273.83,-113.07C1277.03,-112.67 1280.21,-112.31 1283.3,-112 1611.96,-79.13 1701.04,-121.76 2031.6,-75.97"/>
<polygon fill="midnightblue" stroke="midnightblue" points="2032.53,-79.37 2041.95,-74.52 2031.56,-72.44 2032.53,-79.37"/>
</g>
<!-- Node29 -->
<g id="node29" class="node">
<title>Node29</title>
<g id="a_node29"><a xlink:title=" ">
<polygon fill="none" stroke="#bfbfbf" points="1824.8,-56.5 1824.8,-75.5 1889.8,-75.5 1889.8,-56.5 1824.8,-56.5"/>
<text text-anchor="middle" x="1857.3" y="-63.5" font-family="Helvetica,sans-Serif" font-size="10.00">functional</text>
</a>
</g>
</g>
<!-- Node27&#45;&gt;Node29 -->
<g id="edge44" class="edge">
<title>Node27&#45;&gt;Node29</title>
<path fill="none" stroke="midnightblue" d="M1273.84,-113.14C1277.04,-112.72 1280.21,-112.34 1283.3,-112 1516.66,-86.28 1577.48,-106.13 1810.3,-76 1811.77,-75.81 1813.26,-75.6 1814.77,-75.38"/>
<polygon fill="midnightblue" stroke="midnightblue" points="1815.46,-78.82 1824.77,-73.76 1814.34,-71.91 1815.46,-78.82"/>
</g>
<!-- Node30 -->
<g id="node30" class="node">
<title>Node30</title>
<g id="a_node30"><a xlink:title=" ">
<polygon fill="none" stroke="#bfbfbf" points="1908.3,-56.5 1908.3,-75.5 1964.3,-75.5 1964.3,-56.5 1908.3,-56.5"/>
<text text-anchor="middle" x="1936.3" y="-63.5" font-family="Helvetica,sans-Serif" font-size="10.00">numeric</text>
</a>
</g>
</g>
<!-- Node27&#45;&gt;Node30 -->
<g id="edge45" class="edge">
<title>Node27&#45;&gt;Node30</title>
<path fill="none" stroke="midnightblue" d="M1273.84,-113.1C1277.04,-112.7 1280.21,-112.33 1283.3,-112 1552.71,-83.64 1626.29,-115.77 1897.96,-75.92"/>
<polygon fill="midnightblue" stroke="midnightblue" points="1898.75,-79.34 1908.13,-74.41 1897.72,-72.42 1898.75,-79.34"/>
</g>
<!-- Node31 -->
<g id="node31" class="node">
<title>Node31</title>
<g id="a_node31"><a xlink:title=" ">
<polygon fill="none" stroke="#bfbfbf" points="1982.8,-56.5 1982.8,-75.5 2023.8,-75.5 2023.8,-56.5 1982.8,-56.5"/>
<text text-anchor="middle" x="2003.3" y="-63.5" font-family="Helvetica,sans-Serif" font-size="10.00">tuple</text>
</a>
</g>
</g>
<!-- Node27&#45;&gt;Node31 -->
<g id="edge48" class="edge">
<title>Node27&#45;&gt;Node31</title>
<path fill="none" stroke="midnightblue" d="M1273.83,-113.08C1277.03,-112.68 1280.21,-112.32 1283.3,-112 1585.52,-81.14 1668.95,-127.48 1972.83,-75.58"/>
<polygon fill="midnightblue" stroke="midnightblue" points="1973.55,-79.01 1982.8,-73.86 1972.35,-72.11 1973.55,-79.01"/>
</g>
<!-- Node32 -->
<g id="node32" class="node">
<title>Node32</title>
<g id="a_node32"><a xlink:title=" ">
<polygon fill="none" stroke="#bfbfbf" points="890.8,-56.5 890.8,-75.5 935.8,-75.5 935.8,-56.5 890.8,-56.5"/>
<text text-anchor="middle" x="913.3" y="-63.5" font-family="Helvetica,sans-Serif" font-size="10.00">utility</text>
</a>
</g>
</g>
<!-- Node27&#45;&gt;Node32 -->
<g id="edge49" class="edge">
<title>Node27&#45;&gt;Node32</title>
<path fill="none" stroke="midnightblue" d="M1174.59,-114.73C1120.62,-107.53 1031.74,-94.55 945.86,-75.9"/>
<polygon fill="midnightblue" stroke="midnightblue" points="946.47,-72.45 935.95,-73.71 944.96,-79.28 946.47,-72.45"/>
</g>
<!-- Node33 -->
<g id="node33" class="node">
<title>Node33</title>
<g id="a_node33"><a xlink:title=" ">
<polygon fill="none" stroke="#bfbfbf" points="954.3,-56.5 954.3,-75.5 1000.3,-75.5 1000.3,-56.5 954.3,-56.5"/>
<text text-anchor="middle" x="977.3" y="-63.5" font-family="Helvetica,sans-Serif" font-size="10.00">locale</text>
</a>
</g>
</g>
<!-- Node27&#45;&gt;Node33 -->
<g id="edge51" class="edge">
<title>Node27&#45;&gt;Node33</title>
<path fill="none" stroke="midnightblue" d="M1179.22,-112.49C1137.71,-104.44 1074.22,-91.62 1010.19,-76.09"/>
<polygon fill="midnightblue" stroke="midnightblue" points="1010.87,-72.65 1000.33,-73.68 1009.21,-79.45 1010.87,-72.65"/>
</g>
<!-- Node34 -->
<g id="node34" class="node">
<title>Node34</title>
<g id="a_node34"><a xlink:title=" ">
<polygon fill="none" stroke="#bfbfbf" points="1018.3,-56.5 1018.3,-75.5 1082.3,-75.5 1082.3,-56.5 1018.3,-56.5"/>
<text text-anchor="middle" x="1050.3" y="-63.5" font-family="Helvetica,sans-Serif" font-size="10.00">algorithm</text>
</a>
</g>
</g>
<!-- Node27&#45;&gt;Node34 -->
<g id="edge53" class="edge">
<title>Node27&#45;&gt;Node34</title>
<path fill="none" stroke="midnightblue" d="M1196.73,-112.44C1167.21,-103.28 1120.19,-88.69 1087.42,-78.52"/>
<polygon fill="midnightblue" stroke="midnightblue" points="1088.33,-75.14 1077.75,-75.52 1086.26,-81.82 1088.33,-75.14"/>
</g>
<!-- Node35 -->
<g id="node35" class="node">
<title>Node35</title>
<g id="a_node35"><a xlink:title=" ">
<polygon fill="none" stroke="#bfbfbf" points="1100.3,-56.5 1100.3,-75.5 1132.3,-75.5 1132.3,-56.5 1100.3,-56.5"/>
<text text-anchor="middle" x="1116.3" y="-63.5" font-family="Helvetica,sans-Serif" font-size="10.00">set</text>
</a>
</g>
</g>
<!-- Node27&#45;&gt;Node35 -->
<g id="edge56" class="edge">
<title>Node27&#45;&gt;Node35</title>
<path fill="none" stroke="midnightblue" d="M1206.95,-112.32C1189.33,-103.51 1161.83,-89.76 1141.74,-79.72"/>
<polygon fill="midnightblue" stroke="midnightblue" points="1143.06,-76.47 1132.55,-75.12 1139.93,-82.73 1143.06,-76.47"/>
</g>
<!-- Node36 -->
<g id="node36" class="node">
<title>Node36</title>
<g id="a_node36"><a xlink:title=" ">
<polygon fill="none" stroke="#bfbfbf" points="1150.8,-56.5 1150.8,-75.5 1219.8,-75.5 1219.8,-56.5 1150.8,-56.5"/>
<text text-anchor="middle" x="1185.3" y="-63.5" font-family="Helvetica,sans-Serif" font-size="10.00">type_traits</text>
</a>
</g>
</g>
<!-- Node27&#45;&gt;Node36 -->
<g id="edge57" class="edge">
<title>Node27&#45;&gt;Node36</title>
<path fill="none" stroke="midnightblue" d="M1217.86,-112.08C1212.36,-104.46 1204.27,-93.26 1197.54,-83.94"/>
<polygon fill="midnightblue" stroke="midnightblue" points="1200.32,-81.81 1191.62,-75.75 1194.64,-85.91 1200.32,-81.81"/>
</g>
<!-- Node37 -->
<g id="node37" class="node">
<title>Node37</title>
<g id="a_node37"><a xlink:title=" ">
<polygon fill="none" stroke="#bfbfbf" points="1237.8,-56.5 1237.8,-75.5 1290.8,-75.5 1290.8,-56.5 1237.8,-56.5"/>
<text text-anchor="middle" x="1264.3" y="-63.5" font-family="Helvetica,sans-Serif" font-size="10.00">iterator</text>
</a>
</g>
</g>
<!-- Node27&#45;&gt;Node37 -->
<g id="edge58" class="edge">
<title>Node27&#45;&gt;Node37</title>
<path fill="none" stroke="midnightblue" d="M1230.91,-112.08C1236.56,-104.46 1244.85,-93.26 1251.76,-83.94"/>
<polygon fill="midnightblue" stroke="midnightblue" points="1254.68,-85.87 1257.82,-75.75 1249.06,-81.7 1254.68,-85.87"/>
</g>
<!-- Node38 -->
<g id="node38" class="node">
<title>Node38</title>
<g id="a_node38"><a xlink:title=" ">
<polygon fill="none" stroke="#bfbfbf" points="1308.8,-56.5 1308.8,-75.5 1373.8,-75.5 1373.8,-56.5 1308.8,-56.5"/>
<text text-anchor="middle" x="1341.3" y="-63.5" font-family="Helvetica,sans-Serif" font-size="10.00">stdexcept</text>
</a>
</g>
</g>
<!-- Node27&#45;&gt;Node38 -->
<g id="edge59" class="edge">
<title>Node27&#45;&gt;Node38</title>
<path fill="none" stroke="midnightblue" d="M1242.84,-112.44C1261.93,-103.64 1291.88,-89.81 1313.74,-79.72"/>
<polygon fill="midnightblue" stroke="midnightblue" points="1315.24,-82.88 1322.85,-75.52 1312.31,-76.53 1315.24,-82.88"/>
</g>
<!-- Node39 -->
<g id="node39" class="node">
<title>Node39</title>
<g id="a_node39"><a xlink:title=" ">
<polygon fill="none" stroke="#bfbfbf" points="1392.3,-56.5 1392.3,-75.5 1436.3,-75.5 1436.3,-56.5 1392.3,-56.5"/>
<text text-anchor="middle" x="1414.3" y="-63.5" font-family="Helvetica,sans-Serif" font-size="10.00">limits</text>
</a>
</g>
</g>
<!-- Node27&#45;&gt;Node39 -->
<g id="edge61" class="edge">
<title>Node27&#45;&gt;Node39</title>
<path fill="none" stroke="midnightblue" d="M1254.8,-112.43C1284.89,-103.97 1332.43,-90.56 1382.57,-76.2"/>
<polygon fill="midnightblue" stroke="midnightblue" points="1383.65,-79.53 1392.29,-73.41 1381.72,-72.8 1383.65,-79.53"/>
</g>
<!-- Node40 -->
<g id="node40" class="node">
<title>Node40</title>
<g id="a_node40"><a xlink:title=" ">
<polygon fill="none" stroke="#bfbfbf" points="1454.8,-56.5 1454.8,-75.5 1519.8,-75.5 1519.8,-56.5 1454.8,-56.5"/>
<text text-anchor="middle" x="1487.3" y="-63.5" font-family="Helvetica,sans-Serif" font-size="10.00">exception</text>
</a>
</g>
</g>
<!-- Node27&#45;&gt;Node40 -->
<g id="edge62" class="edge">
<title>Node27&#45;&gt;Node40</title>
<path fill="none" stroke="midnightblue" d="M1267.11,-112.42C1309.56,-103.88 1376.74,-90.28 1444.72,-76.11"/>
<polygon fill="midnightblue" stroke="midnightblue" points="1445.68,-79.48 1454.75,-74.01 1444.25,-72.63 1445.68,-79.48"/>
</g>
<!-- Node41 -->
<g id="node41" class="node">
<title>Node41</title>
<g id="a_node41"><a xlink:title=" ">
<polygon fill="none" stroke="#bfbfbf" points="1538.3,-56.5 1538.3,-75.5 1602.3,-75.5 1602.3,-56.5 1538.3,-56.5"/>
<text text-anchor="middle" x="1570.3" y="-63.5" font-family="Helvetica,sans-Serif" font-size="10.00">sys/stat.h</text>
</a>
</g>
</g>
<!-- Node27&#45;&gt;Node41 -->
<g id="edge63" class="edge">
<title>Node27&#45;&gt;Node41</title>
<path fill="none" stroke="midnightblue" d="M1273.88,-113.42C1277.07,-112.93 1280.23,-112.46 1283.3,-112 1389.39,-96.15 1418.89,-95.86 1528.02,-76.13"/>
<polygon fill="midnightblue" stroke="midnightblue" points="1528.91,-79.53 1538.12,-74.29 1527.65,-72.64 1528.91,-79.53"/>
</g>
<!-- Node42 -->
<g id="node42" class="node">
<title>Node42</title>
<g id="a_node42"><a xlink:title=" ">
<polygon fill="none" stroke="#bfbfbf" points="1620.3,-56.5 1620.3,-75.5 1692.3,-75.5 1692.3,-56.5 1620.3,-56.5"/>
<text text-anchor="middle" x="1656.3" y="-63.5" font-family="Helvetica,sans-Serif" font-size="10.00">sys/types.h</text>
</a>
</g>
</g>
<!-- Node27&#45;&gt;Node42 -->
<g id="edge64" class="edge">
<title>Node27&#45;&gt;Node42</title>
<path fill="none" stroke="midnightblue" d="M1273.86,-113.29C1277.05,-112.84 1280.22,-112.4 1283.3,-112 1425.45,-93.37 1464.63,-98.17 1609.82,-76.11"/>
<polygon fill="midnightblue" stroke="midnightblue" points="1610.65,-79.52 1620,-74.55 1609.59,-72.6 1610.65,-79.52"/>
</g>
<!-- Node43&#45;&gt;Node14 -->
<g id="edge71" class="edge">
<title>Node43&#45;&gt;Node14</title>
<path fill="none" stroke="midnightblue" d="M1095.21,-174.64C992.11,-169.05 745.62,-153.78 665.3,-132 644.96,-126.48 641.98,-119.55 622.3,-112 601.18,-103.9 543.55,-86.79 507.04,-76.16"/>
<polygon fill="midnightblue" stroke="midnightblue" points="507.93,-72.77 497.35,-73.34 505.98,-79.49 507.93,-72.77"/>
</g>
<!-- Node44 -->
<g id="node44" class="node">
<title>Node44</title>
<g id="a_node44"><a xlink:href="SharedPointer_8hpp.html" target="_top" xlink:title=" ">
<polygon fill="none" stroke="black" points="1728.3,-112.5 1728.3,-131.5 1852.3,-131.5 1852.3,-112.5 1728.3,-112.5"/>
<text text-anchor="middle" x="1790.3" y="-119.5" font-family="Helvetica,sans-Serif" font-size="10.00">util/SharedPointer.hpp</text>
</a>
</g>
</g>
<!-- Node43&#45;&gt;Node44 -->
<g id="edge69" class="edge">
<title>Node43&#45;&gt;Node44</title>
<path fill="none" stroke="midnightblue" d="M1187.46,-173.16C1298.94,-163.88 1583.6,-140.2 1717.98,-129.02"/>
<polygon fill="midnightblue" stroke="midnightblue" points="1718.5,-132.49 1728.17,-128.17 1717.92,-125.51 1718.5,-132.49"/>
</g>
<!-- Node45 -->
<g id="node45" class="node">
<title>Node45</title>
<g id="a_node45"><a xlink:title=" ">
<polygon fill="none" stroke="#bfbfbf" points="1291.8,-112.5 1291.8,-131.5 1390.8,-131.5 1390.8,-112.5 1291.8,-112.5"/>
<text text-anchor="middle" x="1341.3" y="-119.5" font-family="Helvetica,sans-Serif" font-size="10.00">yaml&#45;cpp/yaml.h</text>
</a>
</g>
</g>
<!-- Node43&#45;&gt;Node45 -->
<g id="edge72" class="edge">
<title>Node43&#45;&gt;Node45</title>
<path fill="none" stroke="midnightblue" d="M1173,-168.44C1207.37,-159.16 1262.38,-144.31 1300.09,-134.13"/>
<polygon fill="midnightblue" stroke="midnightblue" points="1301.02,-137.5 1309.76,-131.52 1299.2,-130.74 1301.02,-137.5"/>
</g>
<!-- Node44&#45;&gt;Node28 -->
<g id="edge70" class="edge">
<title>Node44&#45;&gt;Node28</title>
<path fill="none" stroke="midnightblue" d="M1840.24,-112.5C1887.26,-104.32 1959.88,-91.27 2032.11,-76.17"/>
<polygon fill="midnightblue" stroke="midnightblue" points="2033.23,-79.51 2042.29,-74.03 2031.79,-72.66 2033.23,-79.51"/>
</g>
</g>
</svg>
