<?xml version="1.0" encoding="UTF-8" standalone="no"?>
<!DOCTYPE svg PUBLIC "-//W3C//DTD SVG 1.1//EN"
 "http://www.w3.org/Graphics/SVG/1.1/DTD/svg11.dtd">
<!-- Generated by graphviz version 7.0.0 (0)
 -->
<!-- Title: OneBodyFromGaussian.cxx Pages: 1 -->
<svg width="2267pt" height="357pt"
 viewBox="0.00 0.00 2267.17 357.00" xmlns="http://www.w3.org/2000/svg" xmlns:xlink="http://www.w3.org/1999/xlink">
<g id="graph0" class="graph" transform="scale(1 1) rotate(0) translate(4 353)">
<title>OneBodyFromGaussian.cxx</title>
<!-- Node1 -->
<g id="node1" class="node">
<title>Node1</title>
<g id="a_node1"><a xlink:title=" ">
<polygon fill="#999999" stroke="#666666" points="855.11,-349 704.11,-349 704.11,-330 855.11,-330 855.11,-349"/>
<text text-anchor="middle" x="779.61" y="-337" font-family="Helvetica,sans-Serif" font-size="10.00">OneBodyFromGaussian.cxx</text>
</a>
</g>
</g>
<!-- Node2 -->
<g id="node2" class="node">
<title>Node2</title>
<g id="a_node2"><a xlink:title=" ">
<polygon fill="#e0e0e0" stroke="#999999" points="637.61,-74 593.61,-74 593.61,-55 637.61,-55 637.61,-74"/>
<text text-anchor="middle" x="615.61" y="-62" font-family="Helvetica,sans-Serif" font-size="10.00">string</text>
</a>
</g>
</g>
<!-- Node1&#45;&gt;Node2 -->
<g id="edge1" class="edge">
<title>Node1&#45;&gt;Node2</title>
<path fill="none" stroke="#63b8ff" d="M771.8,-329.57C747.88,-301.79 674.85,-213.7 634.61,-129 627.95,-114.98 623.03,-98.1 619.87,-85.28"/>
<polygon fill="#63b8ff" stroke="#63b8ff" points="623.37,-84.88 617.72,-75.92 616.55,-86.45 623.37,-84.88"/>
</g>
<!-- Node3 -->
<g id="node3" class="node">
<title>Node3</title>
<g id="a_node3"><a xlink:title=" ">
<polygon fill="#e0e0e0" stroke="#999999" points="185.11,-129 138.11,-129 138.11,-110 185.11,-110 185.11,-129"/>
<text text-anchor="middle" x="161.61" y="-117" font-family="Helvetica,sans-Serif" font-size="10.00">vector</text>
</a>
</g>
</g>
<!-- Node1&#45;&gt;Node3 -->
<g id="edge2" class="edge">
<title>Node1&#45;&gt;Node3</title>
<path fill="none" stroke="#63b8ff" d="M703.81,-336.84C566.51,-333.17 282.14,-322.32 187.61,-294 96.7,-266.77 49.73,-267.48 4.61,-184 -21.32,-136.03 72.73,-124.24 126.52,-121.38"/>
<polygon fill="#63b8ff" stroke="#63b8ff" points="126.62,-124.88 136.45,-120.94 126.31,-117.89 126.62,-124.88"/>
</g>
<!-- Node4 -->
<g id="node4" class="node">
<title>Node4</title>
<g id="a_node4"><a xlink:title=" ">
<polygon fill="#e0e0e0" stroke="#999999" points="1037.61,-129 973.61,-129 973.61,-110 1037.61,-110 1037.61,-129"/>
<text text-anchor="middle" x="1005.61" y="-117" font-family="Helvetica,sans-Serif" font-size="10.00">algorithm</text>
</a>
</g>
</g>
<!-- Node1&#45;&gt;Node4 -->
<g id="edge3" class="edge">
<title>Node1&#45;&gt;Node4</title>
<path fill="none" stroke="#63b8ff" d="M844.27,-329.58C888.96,-322.13 943.2,-310.14 959.61,-294 1001.96,-252.36 1006.74,-176.55 1006.43,-140.53"/>
<polygon fill="#63b8ff" stroke="#63b8ff" points="1009.93,-140.62 1006.18,-130.72 1002.93,-140.8 1009.93,-140.62"/>
</g>
<!-- Node5 -->
<g id="node5" class="node">
<title>Node5</title>
<g id="a_node5"><a xlink:href="Libint_8hpp.html" target="_top" xlink:title=" ">
<polygon fill="white" stroke="#666666" points="181.11,-239 98.11,-239 98.11,-220 181.11,-220 181.11,-239"/>
<text text-anchor="middle" x="139.61" y="-227" font-family="Helvetica,sans-Serif" font-size="10.00">util/Libint.hpp</text>
</a>
</g>
</g>
<!-- Node1&#45;&gt;Node5 -->
<g id="edge4" class="edge">
<title>Node1&#45;&gt;Node5</title>
<path fill="none" stroke="#63b8ff" d="M703.8,-337.59C572.89,-335.17 310.24,-326.31 224.61,-294 197.56,-283.79 171.73,-262.24 155.79,-247.08"/>
<polygon fill="#63b8ff" stroke="#63b8ff" points="158.67,-245.01 149.09,-240.49 153.77,-250 158.67,-245.01"/>
</g>
<!-- Node8 -->
<g id="node8" class="node">
<title>Node8</title>
<g id="a_node8"><a xlink:href="OneBodyFromGaussian_8hpp.html" target="_top" xlink:title=" ">
<polygon fill="white" stroke="#666666" points="441.11,-294 234.11,-294 234.11,-275 441.11,-275 441.11,-294"/>
<text text-anchor="middle" x="337.61" y="-282" font-family="Helvetica,sans-Serif" font-size="10.00">algorithms/OneBodyFromGaussian.hpp</text>
</a>
</g>
</g>
<!-- Node1&#45;&gt;Node8 -->
<g id="edge7" class="edge">
<title>Node1&#45;&gt;Node8</title>
<path fill="none" stroke="#63b8ff" d="M704.63,-329.51C626.88,-320.19 505.5,-305.63 423.84,-295.84"/>
<polygon fill="#63b8ff" stroke="#63b8ff" points="424.43,-292.39 414.09,-294.67 423.6,-299.34 424.43,-292.39"/>
</g>
<!-- Node11 -->
<g id="node11" class="node">
<title>Node11</title>
<g id="a_node11"><a xlink:href="Log_8hpp.html" target="_top" xlink:title=" ">
<polygon fill="white" stroke="#666666" points="717.61,-129 643.61,-129 643.61,-110 717.61,-110 717.61,-129"/>
<text text-anchor="middle" x="680.61" y="-117" font-family="Helvetica,sans-Serif" font-size="10.00">util/Log.hpp</text>
</a>
</g>
</g>
<!-- Node1&#45;&gt;Node11 -->
<g id="edge74" class="edge">
<title>Node1&#45;&gt;Node11</title>
<path fill="none" stroke="#63b8ff" d="M775.6,-329.68C760.93,-297.36 709.85,-184.9 689.29,-139.61"/>
<polygon fill="#63b8ff" stroke="#63b8ff" points="692.5,-138.22 685.18,-130.56 686.13,-141.12 692.5,-138.22"/>
</g>
<!-- Node19 -->
<g id="node19" class="node">
<title>Node19</title>
<g id="a_node19"><a xlink:title=" ">
<polygon fill="#e0e0e0" stroke="#999999" points="888.61,-74 828.61,-74 828.61,-55 888.61,-55 888.61,-74"/>
<text text-anchor="middle" x="858.61" y="-62" font-family="Helvetica,sans-Serif" font-size="10.00">iostream</text>
</a>
</g>
</g>
<!-- Node1&#45;&gt;Node19 -->
<g id="edge78" class="edge">
<title>Node1&#45;&gt;Node19</title>
<path fill="none" stroke="#63b8ff" d="M824.53,-329.58C873.69,-316.89 945.61,-288.43 945.61,-230.5 945.61,-230.5 945.61,-230.5 945.61,-173.5 945.61,-133.15 908.32,-99.34 882.57,-80.81"/>
<polygon fill="#63b8ff" stroke="#63b8ff" points="884.83,-78.12 874.61,-75.33 880.86,-83.88 884.83,-78.12"/>
</g>
<!-- Node25 -->
<g id="node25" class="node">
<title>Node25</title>
<g id="a_node25"><a xlink:title=" ">
<polygon fill="#e0e0e0" stroke="#999999" points="879.61,-129 841.61,-129 841.61,-110 879.61,-110 879.61,-129"/>
<text text-anchor="middle" x="860.61" y="-117" font-family="Helvetica,sans-Serif" font-size="10.00">map</text>
</a>
</g>
</g>
<!-- Node1&#45;&gt;Node25 -->
<g id="edge82" class="edge">
<title>Node1&#45;&gt;Node25</title>
<path fill="none" stroke="#63b8ff" d="M782.88,-329.68C794.87,-297.43 836.5,-185.38 853.4,-139.9"/>
<polygon fill="#63b8ff" stroke="#63b8ff" points="856.65,-141.2 856.85,-130.61 850.09,-138.76 856.65,-141.2"/>
</g>
<!-- Node26 -->
<g id="node26" class="node">
<title>Node26</title>
<g id="a_node26"><a xlink:href="Tensor_8hpp.html" target="_top" xlink:title=" ">
<polygon fill="white" stroke="#666666" points="823.11,-129 736.11,-129 736.11,-110 823.11,-110 823.11,-129"/>
<text text-anchor="middle" x="779.61" y="-117" font-family="Helvetica,sans-Serif" font-size="10.00">util/Tensor.hpp</text>
</a>
</g>
</g>
<!-- Node1&#45;&gt;Node26 -->
<g id="edge45" class="edge">
<title>Node1&#45;&gt;Node26</title>
<path fill="none" stroke="#63b8ff" d="M779.61,-329.68C779.61,-297.57 779.61,-186.33 779.61,-140.49"/>
<polygon fill="#63b8ff" stroke="#63b8ff" points="783.11,-140.7 779.61,-130.7 776.11,-140.7 783.11,-140.7"/>
</g>
<!-- Node30 -->
<g id="node30" class="node">
<title>Node30</title>
<g id="a_node30"><a xlink:title=" ">
<polygon fill="#e0e0e0" stroke="#999999" points="524.61,-239 450.61,-239 450.61,-220 524.61,-220 524.61,-239"/>
<text text-anchor="middle" x="487.61" y="-227" font-family="Helvetica,sans-Serif" font-size="10.00">Eigen/Eigen</text>
</a>
</g>
</g>
<!-- Node1&#45;&gt;Node30 -->
<g id="edge79" class="edge">
<title>Node1&#45;&gt;Node30</title>
<path fill="none" stroke="#63b8ff" d="M703.92,-333.97C635.87,-328.48 542.33,-316.94 513.61,-294 500.36,-283.42 493.81,-264.98 490.6,-250.69"/>
<polygon fill="#63b8ff" stroke="#63b8ff" points="494.07,-250.2 488.83,-240.99 487.18,-251.45 494.07,-250.2"/>
</g>
<!-- Node31 -->
<g id="node31" class="node">
<title>Node31</title>
<g id="a_node31"><a xlink:href="Sisi4s_8hpp.html" target="_top" xlink:title=" ">
<polygon fill="white" stroke="#666666" points="1748.61,-294 1682.61,-294 1682.61,-275 1748.61,-275 1748.61,-294"/>
<text text-anchor="middle" x="1715.61" y="-282" font-family="Helvetica,sans-Serif" font-size="10.00">Sisi4s.hpp</text>
</a>
</g>
</g>
<!-- Node1&#45;&gt;Node31 -->
<g id="edge46" class="edge">
<title>Node1&#45;&gt;Node31</title>
<path fill="none" stroke="#63b8ff" d="M855.41,-334.21C1042.7,-323.6 1522.86,-296.41 1671.24,-288.01"/>
<polygon fill="#63b8ff" stroke="#63b8ff" points="1671.26,-291.52 1681.04,-287.46 1670.86,-284.53 1671.26,-291.52"/>
</g>
<!-- Node37 -->
<g id="node37" class="node">
<title>Node37</title>
<g id="a_node37"><a xlink:title=" ">
<polygon fill="#e0e0e0" stroke="#999999" points="1990.61,-129 1934.61,-129 1934.61,-110 1990.61,-110 1990.61,-129"/>
<text text-anchor="middle" x="1962.61" y="-117" font-family="Helvetica,sans-Serif" font-size="10.00">numeric</text>
</a>
</g>
</g>
<!-- Node1&#45;&gt;Node37 -->
<g id="edge80" class="edge">
<title>Node1&#45;&gt;Node37</title>
<path fill="none" stroke="#63b8ff" d="M855.33,-337.86C1070.37,-335.65 1674.59,-326.57 1757.61,-294 1843.67,-260.23 1919.4,-174.69 1949.17,-137.83"/>
<polygon fill="#63b8ff" stroke="#63b8ff" points="1951.61,-140.39 1955.08,-130.38 1946.13,-136.04 1951.61,-140.39"/>
</g>
<!-- Node41 -->
<g id="node41" class="node">
<title>Node41</title>
<g id="a_node41"><a xlink:title=" ">
<polygon fill="#e0e0e0" stroke="#999999" points="2116.61,-129 2084.61,-129 2084.61,-110 2116.61,-110 2116.61,-129"/>
<text text-anchor="middle" x="2100.61" y="-117" font-family="Helvetica,sans-Serif" font-size="10.00">set</text>
</a>
</g>
</g>
<!-- Node1&#45;&gt;Node41 -->
<g id="edge81" class="edge">
<title>Node1&#45;&gt;Node41</title>
<path fill="none" stroke="#63b8ff" d="M855.44,-338.88C1084.05,-339.52 1764.04,-337.6 1980.61,-294 2108.85,-268.18 2181.8,-293.34 2253.61,-184 2284.3,-137.26 2180.13,-124.89 2128.24,-121.64"/>
<polygon fill="#63b8ff" stroke="#63b8ff" points="2128.55,-118.15 2118.38,-121.11 2128.17,-125.14 2128.55,-118.15"/>
</g>
<!-- Node49 -->
<g id="node46" class="node">
<title>Node49</title>
<g id="a_node46"><a xlink:href="Integrals_8hpp.html" target="_top" xlink:title=" ">
<polygon fill="white" stroke="#666666" points="622.11,-294 523.11,-294 523.11,-275 622.11,-275 622.11,-294"/>
<text text-anchor="middle" x="572.61" y="-282" font-family="Helvetica,sans-Serif" font-size="10.00">util/Integrals.hpp</text>
</a>
</g>
</g>
<!-- Node1&#45;&gt;Node49 -->
<g id="edge75" class="edge">
<title>Node1&#45;&gt;Node49</title>
<path fill="none" stroke="#63b8ff" d="M744.49,-329.51C709.74,-320.61 656.38,-306.95 618.33,-297.21"/>
<polygon fill="#63b8ff" stroke="#63b8ff" points="619.57,-293.91 609.02,-294.82 617.83,-300.69 619.57,-293.91"/>
</g>
<!-- Node51 -->
<g id="node48" class="node">
<title>Node51</title>
<g id="a_node48"><a xlink:href="Emitter_8hpp.html" target="_top" xlink:title=" ">
<polygon fill="white" stroke="#666666" points="2117.61,-239 2025.61,-239 2025.61,-220 2117.61,-220 2117.61,-239"/>
<text text-anchor="middle" x="2071.61" y="-227" font-family="Helvetica,sans-Serif" font-size="10.00">util/Emitter.hpp</text>
</a>
</g>
</g>
<!-- Node1&#45;&gt;Node51 -->
<g id="edge83" class="edge">
<title>Node1&#45;&gt;Node51</title>
<path fill="none" stroke="#63b8ff" d="M855.49,-337.4C1096.69,-333.65 1836.03,-320.13 1940.61,-294 1980.73,-283.98 2023.08,-260.82 2048.42,-245.42"/>
<polygon fill="#63b8ff" stroke="#63b8ff" points="2050.25,-248.41 2056.9,-240.15 2046.55,-242.46 2050.25,-248.41"/>
</g>
<!-- Node6 -->
<g id="node6" class="node">
<title>Node6</title>
<g id="a_node6"><a xlink:title=" ">
<polygon fill="#e0e0e0" stroke="#999999" points="95.11,-184 14.11,-184 14.11,-165 95.11,-165 95.11,-184"/>
<text text-anchor="middle" x="54.61" y="-172" font-family="Helvetica,sans-Serif" font-size="10.00">system_error</text>
</a>
</g>
</g>
<!-- Node5&#45;&gt;Node6 -->
<g id="edge5" class="edge">
<title>Node5&#45;&gt;Node6</title>
<path fill="none" stroke="#63b8ff" d="M125.19,-219.51C112.41,-211.54 93.51,-199.75 78.48,-190.38"/>
<polygon fill="#63b8ff" stroke="#63b8ff" points="80.44,-187.48 70.1,-185.16 76.73,-193.42 80.44,-187.48"/>
</g>
<!-- Node7 -->
<g id="node7" class="node">
<title>Node7</title>
<g id="a_node7"><a xlink:title=" ">
<polygon fill="#e0e0e0" stroke="#999999" points="181.61,-184 113.61,-184 113.61,-165 181.61,-165 181.61,-184"/>
<text text-anchor="middle" x="147.61" y="-172" font-family="Helvetica,sans-Serif" font-size="10.00">libint2.hpp</text>
</a>
</g>
</g>
<!-- Node5&#45;&gt;Node7 -->
<g id="edge6" class="edge">
<title>Node5&#45;&gt;Node7</title>
<path fill="none" stroke="#63b8ff" d="M140.93,-219.75C141.92,-213.19 143.31,-203.95 144.57,-195.6"/>
<polygon fill="#63b8ff" stroke="#63b8ff" points="148,-196.35 146.03,-185.94 141.08,-195.3 148,-196.35"/>
</g>
<!-- Node8&#45;&gt;Node3 -->
<g id="edge8" class="edge">
<title>Node8&#45;&gt;Node3</title>
<path fill="none" stroke="#63b8ff" d="M322.75,-274.63C309.13,-266.21 288.69,-252.8 272.61,-239 234.82,-206.57 196.32,-162.47 176.09,-138.25"/>
<polygon fill="#63b8ff" stroke="#63b8ff" points="178.86,-136.09 169.79,-130.62 173.46,-140.55 178.86,-136.09"/>
</g>
<!-- Node8&#45;&gt;Node5 -->
<g id="edge43" class="edge">
<title>Node8&#45;&gt;Node5</title>
<path fill="none" stroke="#63b8ff" d="M304.02,-274.51C270.92,-265.65 220.17,-252.07 183.82,-242.33"/>
<polygon fill="#63b8ff" stroke="#63b8ff" points="185.06,-239.04 174.49,-239.84 183.25,-245.8 185.06,-239.04"/>
</g>
<!-- Node9 -->
<g id="node9" class="node">
<title>Node9</title>
<g id="a_node9"><a xlink:href="Algorithm_8hpp.html" target="_top" xlink:title=" ">
<polygon fill="white" stroke="#666666" points="432.11,-239 291.11,-239 291.11,-220 432.11,-220 432.11,-239"/>
<text text-anchor="middle" x="361.61" y="-227" font-family="Helvetica,sans-Serif" font-size="10.00">algorithms/Algorithm.hpp</text>
</a>
</g>
</g>
<!-- Node8&#45;&gt;Node9 -->
<g id="edge9" class="edge">
<title>Node8&#45;&gt;Node9</title>
<path fill="none" stroke="#63b8ff" d="M341.57,-274.75C344.64,-267.96 349.02,-258.3 352.9,-249.73"/>
<polygon fill="#63b8ff" stroke="#63b8ff" points="356,-251.37 356.93,-240.82 349.62,-248.49 356,-251.37"/>
</g>
<!-- Node23 -->
<g id="node23" class="node">
<title>Node23</title>
<g id="a_node23"><a xlink:href="Complex_8hpp.html" target="_top" xlink:title=" ">
<polygon fill="white" stroke="#666666" points="351.61,-129 241.61,-129 241.61,-110 351.61,-110 351.61,-129"/>
<text text-anchor="middle" x="296.61" y="-117" font-family="Helvetica,sans-Serif" font-size="10.00">math/Complex.hpp</text>
</a>
</g>
</g>
<!-- Node8&#45;&gt;Node23 -->
<g id="edge42" class="edge">
<title>Node8&#45;&gt;Node23</title>
<path fill="none" stroke="#63b8ff" d="M319.29,-274.65C306.13,-267.17 289.38,-255.1 281.61,-239 266.04,-206.74 278.31,-164.06 287.94,-139.72"/>
<polygon fill="#63b8ff" stroke="#63b8ff" points="291.06,-141.33 291.73,-130.75 284.61,-138.6 291.06,-141.33"/>
</g>
<!-- Node8&#45;&gt;Node30 -->
<g id="edge44" class="edge">
<title>Node8&#45;&gt;Node30</title>
<path fill="none" stroke="#63b8ff" d="M363.05,-274.51C387.37,-265.92 424.27,-252.88 451.59,-243.22"/>
<polygon fill="#63b8ff" stroke="#63b8ff" points="452.6,-246.58 460.86,-239.95 450.27,-239.98 452.6,-246.58"/>
</g>
<!-- Node9&#45;&gt;Node2 -->
<g id="edge38" class="edge">
<title>Node9&#45;&gt;Node2</title>
<path fill="none" stroke="#63b8ff" d="M366.84,-219.54C380.19,-197.46 417.82,-140.05 464.61,-110 500.96,-86.65 550,-75.17 582.19,-69.8"/>
<polygon fill="#63b8ff" stroke="#63b8ff" points="582.39,-73.31 591.74,-68.32 581.32,-66.4 582.39,-73.31"/>
</g>
<!-- Node9&#45;&gt;Node3 -->
<g id="edge39" class="edge">
<title>Node9&#45;&gt;Node3</title>
<path fill="none" stroke="#63b8ff" d="M345.24,-219.66C310.74,-201.03 230.28,-157.58 188.25,-134.89"/>
<polygon fill="#63b8ff" stroke="#63b8ff" points="189.99,-131.85 179.53,-130.18 186.67,-138.01 189.99,-131.85"/>
</g>
<!-- Node10 -->
<g id="node10" class="node">
<title>Node10</title>
<g id="a_node10"><a xlink:href="Data_8hpp.html" target="_top" xlink:title=" ">
<polygon fill="white" stroke="#666666" points="507.11,-184 446.11,-184 446.11,-165 507.11,-165 507.11,-184"/>
<text text-anchor="middle" x="476.61" y="-172" font-family="Helvetica,sans-Serif" font-size="10.00">Data.hpp</text>
</a>
</g>
</g>
<!-- Node9&#45;&gt;Node10 -->
<g id="edge10" class="edge">
<title>Node9&#45;&gt;Node10</title>
<path fill="none" stroke="#63b8ff" d="M381.12,-219.51C399.23,-211.16 426.46,-198.61 447.21,-189.05"/>
<polygon fill="#63b8ff" stroke="#63b8ff" points="448.4,-192.36 456.01,-184.99 445.47,-186 448.4,-192.36"/>
</g>
<!-- Node17 -->
<g id="node17" class="node">
<title>Node17</title>
<g id="a_node17"><a xlink:title=" ">
<polygon fill="#e0e0e0" stroke="#999999" points="1045.61,-19 989.61,-19 989.61,0 1045.61,0 1045.61,-19"/>
<text text-anchor="middle" x="1017.61" y="-7" font-family="Helvetica,sans-Serif" font-size="10.00">sstream</text>
</a>
</g>
</g>
<!-- Node9&#45;&gt;Node17 -->
<g id="edge40" class="edge">
<title>Node9&#45;&gt;Node17</title>
<path fill="none" stroke="#63b8ff" d="M349.59,-219.68C318.19,-196.57 235.84,-135.57 232.61,-129 221.06,-105.5 246.58,-59.49 252.61,-55 311.05,-11.48 829.66,-9.86 978.08,-10.29"/>
<polygon fill="#63b8ff" stroke="#63b8ff" points="977.79,-13.79 987.8,-10.33 977.81,-6.79 977.79,-13.79"/>
</g>
<!-- Node9&#45;&gt;Node26 -->
<g id="edge41" class="edge">
<title>Node9&#45;&gt;Node26</title>
<path fill="none" stroke="#63b8ff" d="M396.17,-219.57C471.35,-200.15 649.72,-154.06 734,-132.28"/>
<polygon fill="#63b8ff" stroke="#63b8ff" points="734.73,-135.71 743.54,-129.82 732.98,-128.93 734.73,-135.71"/>
</g>
<!-- Node10&#45;&gt;Node2 -->
<g id="edge28" class="edge">
<title>Node10&#45;&gt;Node2</title>
<path fill="none" stroke="#63b8ff" d="M473.23,-164.71C468.76,-151.45 462.74,-126.19 474.61,-110 499,-76.72 548.36,-67.69 581.71,-65.58"/>
<polygon fill="#63b8ff" stroke="#63b8ff" points="581.85,-69.07 591.69,-65.14 581.54,-62.08 581.85,-69.07"/>
</g>
<!-- Node10&#45;&gt;Node3 -->
<g id="edge30" class="edge">
<title>Node10&#45;&gt;Node3</title>
<path fill="none" stroke="#63b8ff" d="M445.83,-168.32C386.93,-158.41 258.61,-136.82 196.58,-126.38"/>
<polygon fill="#63b8ff" stroke="#63b8ff" points="197.38,-122.97 186.94,-124.76 196.22,-129.87 197.38,-122.97"/>
</g>
<!-- Node10&#45;&gt;Node11 -->
<g id="edge11" class="edge">
<title>Node10&#45;&gt;Node11</title>
<path fill="none" stroke="#63b8ff" d="M507.59,-165.45C541.58,-156.62 596.44,-142.37 635.27,-132.28"/>
<polygon fill="#63b8ff" stroke="#63b8ff" points="636,-135.71 644.79,-129.8 634.24,-128.93 636,-135.71"/>
</g>
<!-- Node22 -->
<g id="node22" class="node">
<title>Node22</title>
<g id="a_node22"><a xlink:href="Float_8hpp.html" target="_top" xlink:title=" ">
<polygon fill="white" stroke="#666666" points="430.11,-74 339.11,-74 339.11,-55 430.11,-55 430.11,-74"/>
<text text-anchor="middle" x="384.61" y="-62" font-family="Helvetica,sans-Serif" font-size="10.00">math/Float.hpp</text>
</a>
</g>
</g>
<!-- Node10&#45;&gt;Node22 -->
<g id="edge23" class="edge">
<title>Node10&#45;&gt;Node22</title>
<path fill="none" stroke="#63b8ff" d="M469.08,-164.66C453.92,-146.86 419.45,-106.41 399.55,-83.04"/>
<polygon fill="#63b8ff" stroke="#63b8ff" points="402.37,-80.96 393.22,-75.61 397.04,-85.49 402.37,-80.96"/>
</g>
<!-- Node10&#45;&gt;Node23 -->
<g id="edge25" class="edge">
<title>Node10&#45;&gt;Node23</title>
<path fill="none" stroke="#63b8ff" d="M446.07,-164.51C416.25,-155.73 370.64,-142.3 337.65,-132.59"/>
<polygon fill="#63b8ff" stroke="#63b8ff" points="339.02,-129.34 328.44,-129.87 337.05,-136.06 339.02,-129.34"/>
</g>
<!-- Node10&#45;&gt;Node25 -->
<g id="edge29" class="edge">
<title>Node10&#45;&gt;Node25</title>
<path fill="none" stroke="#63b8ff" d="M507.38,-171.43C567.62,-166.99 705.42,-155 829.9,-129.24"/>
<polygon fill="#63b8ff" stroke="#63b8ff" points="830.59,-132.68 839.66,-127.19 829.15,-125.83 830.59,-132.68"/>
</g>
<!-- Node10&#45;&gt;Node26 -->
<g id="edge31" class="edge">
<title>Node10&#45;&gt;Node26</title>
<path fill="none" stroke="#63b8ff" d="M507.33,-168.13C558.28,-159.21 660.96,-141.25 724.64,-130.12"/>
<polygon fill="#63b8ff" stroke="#63b8ff" points="724.93,-133.62 734.18,-128.45 723.72,-126.72 724.93,-133.62"/>
</g>
<!-- Node29 -->
<g id="node29" class="node">
<title>Node29</title>
<g id="a_node29"><a xlink:href="Exception_8hpp.html" target="_top" xlink:title=" ">
<polygon fill="white" stroke="#666666" points="587.61,-129 483.61,-129 483.61,-110 587.61,-110 587.61,-129"/>
<text text-anchor="middle" x="535.61" y="-117" font-family="Helvetica,sans-Serif" font-size="10.00">util/Exception.hpp</text>
</a>
</g>
</g>
<!-- Node10&#45;&gt;Node29 -->
<g id="edge34" class="edge">
<title>Node10&#45;&gt;Node29</title>
<path fill="none" stroke="#63b8ff" d="M486.62,-164.51C494.97,-157 507.11,-146.1 517.21,-137.03"/>
<polygon fill="#63b8ff" stroke="#63b8ff" points="519.52,-139.66 524.62,-130.37 514.84,-134.45 519.52,-139.66"/>
</g>
<!-- Node11&#45;&gt;Node2 -->
<g id="edge19" class="edge">
<title>Node11&#45;&gt;Node2</title>
<path fill="none" stroke="#63b8ff" d="M669.58,-109.51C660.19,-101.85 646.46,-90.66 635.2,-81.47"/>
<polygon fill="#63b8ff" stroke="#63b8ff" points="637.61,-78.92 627.64,-75.31 633.18,-84.35 637.61,-78.92"/>
</g>
<!-- Node12 -->
<g id="node12" class="node">
<title>Node12</title>
<g id="a_node12"><a xlink:href="Time_8hpp.html" target="_top" xlink:title=" ">
<polygon fill="white" stroke="#666666" points="1764.11,-74 1683.11,-74 1683.11,-55 1764.11,-55 1764.11,-74"/>
<text text-anchor="middle" x="1723.61" y="-62" font-family="Helvetica,sans-Serif" font-size="10.00">util/Time.hpp</text>
</a>
</g>
</g>
<!-- Node11&#45;&gt;Node12 -->
<g id="edge12" class="edge">
<title>Node11&#45;&gt;Node12</title>
<path fill="none" stroke="#63b8ff" d="M717.99,-111.25C721.24,-110.77 724.48,-110.34 727.61,-110 1142.21,-64.85 1253.15,-116.43 1671.54,-74.04"/>
<polygon fill="#63b8ff" stroke="#63b8ff" points="1671.64,-77.55 1681.23,-73.05 1670.93,-70.59 1671.64,-77.55"/>
</g>
<!-- Node11&#45;&gt;Node19 -->
<g id="edge20" class="edge">
<title>Node11&#45;&gt;Node19</title>
<path fill="none" stroke="#63b8ff" d="M710.8,-109.51C740.17,-100.76 785,-87.42 817.59,-77.71"/>
<polygon fill="#63b8ff" stroke="#63b8ff" points="818.53,-81.09 827.11,-74.88 816.53,-74.38 818.53,-81.09"/>
</g>
<!-- Node20 -->
<g id="node20" class="node">
<title>Node20</title>
<g id="a_node20"><a xlink:title=" ">
<polygon fill="#e0e0e0" stroke="#999999" points="723.11,-74 656.11,-74 656.11,-55 723.11,-55 723.11,-74"/>
<text text-anchor="middle" x="689.61" y="-62" font-family="Helvetica,sans-Serif" font-size="10.00">streambuf</text>
</a>
</g>
</g>
<!-- Node11&#45;&gt;Node20 -->
<g id="edge21" class="edge">
<title>Node11&#45;&gt;Node20</title>
<path fill="none" stroke="#63b8ff" d="M682.09,-109.75C683.21,-103.19 684.78,-93.95 686.19,-85.6"/>
<polygon fill="#63b8ff" stroke="#63b8ff" points="689.61,-86.38 687.84,-75.93 682.71,-85.21 689.61,-86.38"/>
</g>
<!-- Node21 -->
<g id="node21" class="node">
<title>Node21</title>
<g id="a_node21"><a xlink:title=" ">
<polygon fill="#e0e0e0" stroke="#999999" points="1248.11,-74 1193.11,-74 1193.11,-55 1248.11,-55 1248.11,-74"/>
<text text-anchor="middle" x="1220.61" y="-62" font-family="Helvetica,sans-Serif" font-size="10.00">fstream</text>
</a>
</g>
</g>
<!-- Node11&#45;&gt;Node21 -->
<g id="edge22" class="edge">
<title>Node11&#45;&gt;Node21</title>
<path fill="none" stroke="#63b8ff" d="M718.02,-111.43C721.25,-110.91 724.49,-110.42 727.61,-110 895.63,-87.27 1097.49,-73.14 1181.23,-67.86"/>
<polygon fill="#63b8ff" stroke="#63b8ff" points="1181.44,-71.35 1191.2,-67.24 1181,-64.37 1181.44,-71.35"/>
</g>
<!-- Node13 -->
<g id="node13" class="node">
<title>Node13</title>
<g id="a_node13"><a xlink:title=" ">
<polygon fill="#e0e0e0" stroke="#999999" points="1717.61,-19 1673.61,-19 1673.61,0 1717.61,0 1717.61,-19"/>
<text text-anchor="middle" x="1695.61" y="-7" font-family="Helvetica,sans-Serif" font-size="10.00">ctime</text>
</a>
</g>
</g>
<!-- Node12&#45;&gt;Node13 -->
<g id="edge13" class="edge">
<title>Node12&#45;&gt;Node13</title>
<path fill="none" stroke="#63b8ff" d="M1718.98,-54.75C1715.36,-47.88 1710.18,-38.08 1705.62,-29.45"/>
<polygon fill="#63b8ff" stroke="#63b8ff" points="1708.8,-27.99 1701.04,-20.78 1702.62,-31.26 1708.8,-27.99"/>
</g>
<!-- Node14 -->
<g id="node14" class="node">
<title>Node14</title>
<g id="a_node14"><a xlink:title=" ">
<polygon fill="#e0e0e0" stroke="#999999" points="1785.61,-19 1735.61,-19 1735.61,0 1785.61,0 1785.61,-19"/>
<text text-anchor="middle" x="1760.61" y="-7" font-family="Helvetica,sans-Serif" font-size="10.00">cstdint</text>
</a>
</g>
</g>
<!-- Node12&#45;&gt;Node14 -->
<g id="edge14" class="edge">
<title>Node12&#45;&gt;Node14</title>
<path fill="none" stroke="#63b8ff" d="M1729.72,-54.75C1734.62,-47.73 1741.66,-37.64 1747.78,-28.87"/>
<polygon fill="#63b8ff" stroke="#63b8ff" points="1750.64,-30.89 1753.5,-20.68 1744.9,-26.88 1750.64,-30.89"/>
</g>
<!-- Node15 -->
<g id="node15" class="node">
<title>Node15</title>
<g id="a_node15"><a xlink:title=" ">
<polygon fill="#e0e0e0" stroke="#999999" points="1655.11,-19 1598.11,-19 1598.11,0 1655.11,0 1655.11,-19"/>
<text text-anchor="middle" x="1626.61" y="-7" font-family="Helvetica,sans-Serif" font-size="10.00">ostream</text>
</a>
</g>
</g>
<!-- Node12&#45;&gt;Node15 -->
<g id="edge15" class="edge">
<title>Node12&#45;&gt;Node15</title>
<path fill="none" stroke="#63b8ff" d="M1707.15,-54.51C1692.29,-46.39 1670.17,-34.3 1652.86,-24.85"/>
<polygon fill="#63b8ff" stroke="#63b8ff" points="1654.6,-21.81 1644.15,-20.08 1651.25,-27.95 1654.6,-21.81"/>
</g>
<!-- Node16 -->
<g id="node16" class="node">
<title>Node16</title>
<g id="a_node16"><a xlink:title=" ">
<polygon fill="#e0e0e0" stroke="#999999" points="1859.61,-19 1803.61,-19 1803.61,0 1859.61,0 1859.61,-19"/>
<text text-anchor="middle" x="1831.61" y="-7" font-family="Helvetica,sans-Serif" font-size="10.00">iomanip</text>
</a>
</g>
</g>
<!-- Node12&#45;&gt;Node16 -->
<g id="edge16" class="edge">
<title>Node12&#45;&gt;Node16</title>
<path fill="none" stroke="#63b8ff" d="M1741.93,-54.51C1758.79,-46.24 1784.04,-33.84 1803.46,-24.31"/>
<polygon fill="#63b8ff" stroke="#63b8ff" points="1804.76,-27.57 1812.2,-20.02 1801.68,-21.29 1804.76,-27.57"/>
</g>
<!-- Node12&#45;&gt;Node17 -->
<g id="edge17" class="edge">
<title>Node12&#45;&gt;Node17</title>
<path fill="none" stroke="#63b8ff" d="M1682.73,-56.21C1679.65,-55.76 1676.58,-55.35 1673.61,-55 1440.81,-27.39 1159.35,-15.44 1057.12,-11.79"/>
<polygon fill="#63b8ff" stroke="#63b8ff" points="1057.46,-8.3 1047.35,-11.45 1057.22,-15.3 1057.46,-8.3"/>
</g>
<!-- Node18 -->
<g id="node18" class="node">
<title>Node18</title>
<g id="a_node18"><a xlink:title=" ">
<polygon fill="#e0e0e0" stroke="#999999" points="1928.11,-19 1881.11,-19 1881.11,0 1928.11,0 1928.11,-19"/>
<text text-anchor="middle" x="1904.61" y="-7" font-family="Helvetica,sans-Serif" font-size="10.00">cmath</text>
</a>
</g>
</g>
<!-- Node12&#45;&gt;Node18 -->
<g id="edge18" class="edge">
<title>Node12&#45;&gt;Node18</title>
<path fill="none" stroke="#63b8ff" d="M1754.31,-54.51C1786.39,-45.12 1836.61,-30.41 1870.06,-20.62"/>
<polygon fill="#63b8ff" stroke="#63b8ff" points="1870.64,-24.09 1879.25,-17.92 1868.67,-17.38 1870.64,-24.09"/>
</g>
<!-- Node22&#45;&gt;Node15 -->
<g id="edge24" class="edge">
<title>Node22&#45;&gt;Node15</title>
<path fill="none" stroke="#63b8ff" d="M430.28,-61.47C470.81,-59.69 531.65,-57.07 584.61,-55 1027.07,-37.67 1143.82,-75.34 1586.48,-18.99"/>
<polygon fill="#63b8ff" stroke="#63b8ff" points="1586.68,-22.49 1596.16,-17.74 1585.79,-15.55 1586.68,-22.49"/>
</g>
<!-- Node23&#45;&gt;Node22 -->
<g id="edge26" class="edge">
<title>Node23&#45;&gt;Node22</title>
<path fill="none" stroke="#63b8ff" d="M311.54,-109.51C324.89,-101.47 344.71,-89.53 360.34,-80.11"/>
<polygon fill="#63b8ff" stroke="#63b8ff" points="361.84,-83.3 368.6,-75.14 358.23,-77.3 361.84,-83.3"/>
</g>
<!-- Node24 -->
<g id="node24" class="node">
<title>Node24</title>
<g id="a_node24"><a xlink:title=" ">
<polygon fill="#e0e0e0" stroke="#999999" points="321.11,-74 262.11,-74 262.11,-55 321.11,-55 321.11,-74"/>
<text text-anchor="middle" x="291.61" y="-62" font-family="Helvetica,sans-Serif" font-size="10.00">complex</text>
</a>
</g>
</g>
<!-- Node23&#45;&gt;Node24 -->
<g id="edge27" class="edge">
<title>Node23&#45;&gt;Node24</title>
<path fill="none" stroke="#63b8ff" d="M295.78,-109.75C295.17,-103.27 294.31,-94.16 293.53,-85.9"/>
<polygon fill="#63b8ff" stroke="#63b8ff" points="297.02,-85.58 292.59,-75.95 290.05,-86.23 297.02,-85.58"/>
</g>
<!-- Node27 -->
<g id="node27" class="node">
<title>Node27</title>
<g id="a_node27"><a xlink:href="CTF_8hpp.html" target="_top" xlink:title=" ">
<polygon fill="white" stroke="#666666" points="1664.61,-74 1590.61,-74 1590.61,-55 1664.61,-55 1664.61,-74"/>
<text text-anchor="middle" x="1627.61" y="-62" font-family="Helvetica,sans-Serif" font-size="10.00">util/CTF.hpp</text>
</a>
</g>
</g>
<!-- Node26&#45;&gt;Node27 -->
<g id="edge32" class="edge">
<title>Node26&#45;&gt;Node27</title>
<path fill="none" stroke="#63b8ff" d="M823.52,-111.1C826.59,-110.69 829.64,-110.32 832.61,-110 1114.21,-79.62 1454.3,-69.36 1578.87,-66.48"/>
<polygon fill="#63b8ff" stroke="#63b8ff" points="1578.81,-69.98 1588.73,-66.26 1578.65,-62.98 1578.81,-69.98"/>
</g>
<!-- Node28 -->
<g id="node28" class="node">
<title>Node28</title>
<g id="a_node28"><a xlink:title=" ">
<polygon fill="#e0e0e0" stroke="#999999" points="1579.61,-19 1529.61,-19 1529.61,0 1579.61,0 1579.61,-19"/>
<text text-anchor="middle" x="1554.61" y="-7" font-family="Helvetica,sans-Serif" font-size="10.00">ctf.hpp</text>
</a>
</g>
</g>
<!-- Node27&#45;&gt;Node28 -->
<g id="edge33" class="edge">
<title>Node27&#45;&gt;Node28</title>
<path fill="none" stroke="#63b8ff" d="M1615.22,-54.51C1604.46,-46.7 1588.64,-35.21 1575.86,-25.93"/>
<polygon fill="#63b8ff" stroke="#63b8ff" points="1578.18,-23.29 1568.03,-20.25 1574.07,-28.95 1578.18,-23.29"/>
</g>
<!-- Node29&#45;&gt;Node2 -->
<g id="edge35" class="edge">
<title>Node29&#45;&gt;Node2</title>
<path fill="none" stroke="#63b8ff" d="M549.18,-109.51C561.09,-101.62 578.66,-89.98 592.73,-80.65"/>
<polygon fill="#63b8ff" stroke="#63b8ff" points="594.57,-83.63 600.98,-75.19 590.71,-77.8 594.57,-83.63"/>
</g>
<!-- Node29&#45;&gt;Node17 -->
<g id="edge36" class="edge">
<title>Node29&#45;&gt;Node17</title>
<path fill="none" stroke="#63b8ff" d="M539.52,-109.68C546.37,-95.41 561.98,-67.6 584.61,-55 651.57,-17.72 884.23,-11.58 977.99,-10.64"/>
<polygon fill="#63b8ff" stroke="#63b8ff" points="977.75,-14.14 987.72,-10.56 977.69,-7.14 977.75,-14.14"/>
</g>
<!-- Node29&#45;&gt;Node19 -->
<g id="edge37" class="edge">
<title>Node29&#45;&gt;Node19</title>
<path fill="none" stroke="#63b8ff" d="M587.86,-109.93C651.8,-99.43 758.76,-81.88 817.27,-72.28"/>
<polygon fill="#63b8ff" stroke="#63b8ff" points="817.5,-75.79 826.81,-70.72 816.37,-68.88 817.5,-75.79"/>
</g>
<!-- Node31&#45;&gt;Node12 -->
<g id="edge47" class="edge">
<title>Node31&#45;&gt;Node12</title>
<path fill="none" stroke="#63b8ff" d="M1749.03,-283.22C1857.77,-281.46 2197.69,-269.15 2253.61,-184 2307.78,-101.51 1918.98,-74.69 1775.43,-67.65"/>
<polygon fill="#63b8ff" stroke="#63b8ff" points="1775.99,-64.18 1765.83,-67.2 1775.65,-71.17 1775.99,-64.18"/>
</g>
<!-- Node31&#45;&gt;Node27 -->
<g id="edge49" class="edge">
<title>Node31&#45;&gt;Node27</title>
<path fill="none" stroke="#63b8ff" d="M1744.39,-274.52C1761.09,-267.66 1780.72,-256.37 1790.61,-239 1808.84,-206.98 1856.47,-205.61 1773.61,-110 1760.67,-95.07 1713.29,-82.44 1675.97,-74.49"/>
<polygon fill="#63b8ff" stroke="#63b8ff" points="1676.74,-71.08 1666.24,-72.48 1675.33,-77.93 1676.74,-71.08"/>
</g>
<!-- Node32 -->
<g id="node32" class="node">
<title>Node32</title>
<g id="a_node32"><a xlink:href="Documentation_8hpp.html" target="_top" xlink:title=" ">
<polygon fill="white" stroke="#666666" points="1781.11,-239 1650.11,-239 1650.11,-220 1781.11,-220 1781.11,-239"/>
<text text-anchor="middle" x="1715.61" y="-227" font-family="Helvetica,sans-Serif" font-size="10.00">util/Documentation.hpp</text>
</a>
</g>
</g>
<!-- Node31&#45;&gt;Node32 -->
<g id="edge48" class="edge">
<title>Node31&#45;&gt;Node32</title>
<path fill="none" stroke="#63b8ff" d="M1715.61,-274.75C1715.61,-268.27 1715.61,-259.16 1715.61,-250.9"/>
<polygon fill="#63b8ff" stroke="#63b8ff" points="1719.11,-250.96 1715.61,-240.96 1712.11,-250.96 1719.11,-250.96"/>
</g>
<!-- Node33 -->
<g id="node33" class="node">
<title>Node33</title>
<g id="a_node33"><a xlink:href="Options_8hpp.html" target="_top" xlink:title=" ">
<polygon fill="white" stroke="#666666" points="1573.11,-239 1498.11,-239 1498.11,-220 1573.11,-220 1573.11,-239"/>
<text text-anchor="middle" x="1535.61" y="-227" font-family="Helvetica,sans-Serif" font-size="10.00">Options.hpp</text>
</a>
</g>
</g>
<!-- Node31&#45;&gt;Node33 -->
<g id="edge50" class="edge">
<title>Node31&#45;&gt;Node33</title>
<path fill="none" stroke="#63b8ff" d="M1685.07,-274.51C1655.25,-265.73 1609.64,-252.3 1576.65,-242.59"/>
<polygon fill="#63b8ff" stroke="#63b8ff" points="1578.02,-239.34 1567.44,-239.87 1576.05,-246.06 1578.02,-239.34"/>
</g>
<!-- Node33&#45;&gt;Node2 -->
<g id="edge51" class="edge">
<title>Node33&#45;&gt;Node2</title>
<path fill="none" stroke="#63b8ff" d="M1497.68,-222.86C1405.8,-209 1164.2,-171.28 964.61,-129 930.55,-121.78 922.75,-116.8 888.61,-110 785.92,-89.54 755.66,-95.5 649.16,-74.07"/>
<polygon fill="#63b8ff" stroke="#63b8ff" points="649.89,-70.65 639.39,-72.07 648.49,-77.51 649.89,-70.65"/>
</g>
<!-- Node34 -->
<g id="node34" class="node">
<title>Node34</title>
<g id="a_node34"><a xlink:href="CLI11_8hpp.html" target="_top" xlink:title=" ">
<polygon fill="#fff0f0" stroke="red" points="1585.11,-184 1486.11,-184 1486.11,-165 1585.11,-165 1585.11,-184"/>
<text text-anchor="middle" x="1535.61" y="-172" font-family="Helvetica,sans-Serif" font-size="10.00">extern/CLI11.hpp</text>
</a>
</g>
</g>
<!-- Node33&#45;&gt;Node34 -->
<g id="edge52" class="edge">
<title>Node33&#45;&gt;Node34</title>
<path fill="none" stroke="#63b8ff" d="M1535.61,-219.75C1535.61,-213.27 1535.61,-204.16 1535.61,-195.9"/>
<polygon fill="#63b8ff" stroke="#63b8ff" points="1539.11,-195.96 1535.61,-185.96 1532.11,-195.96 1539.11,-195.96"/>
</g>
<!-- Node34&#45;&gt;Node2 -->
<g id="edge54" class="edge">
<title>Node34&#45;&gt;Node2</title>
<path fill="none" stroke="#63b8ff" d="M1485.94,-174.26C1401.86,-174.31 1226.86,-169 1085.61,-129 1067.06,-123.75 1065.18,-115.17 1046.61,-110 878.6,-63.2 825.14,-103.25 649.1,-73.87"/>
<polygon fill="#63b8ff" stroke="#63b8ff" points="649.82,-70.44 639.37,-72.19 648.63,-77.34 649.82,-70.44"/>
</g>
<!-- Node34&#45;&gt;Node3 -->
<g id="edge72" class="edge">
<title>Node34&#45;&gt;Node3</title>
<path fill="none" stroke="#63b8ff" d="M1485.82,-173.32C1312.57,-172.38 720.08,-166.44 232.61,-129 220.94,-128.1 208.24,-126.72 196.85,-125.32"/>
<polygon fill="#63b8ff" stroke="#63b8ff" points="197.41,-121.86 187.05,-124.07 196.53,-128.81 197.41,-121.86"/>
</g>
<!-- Node34&#45;&gt;Node4 -->
<g id="edge65" class="edge">
<title>Node34&#45;&gt;Node4</title>
<path fill="none" stroke="#63b8ff" d="M1485.62,-170.41C1397.61,-164.64 1209.38,-150.78 1051.61,-129 1050.76,-128.88 1049.91,-128.76 1049.05,-128.64"/>
<polygon fill="#63b8ff" stroke="#63b8ff" points="1049.64,-125.19 1039.21,-127.06 1048.53,-132.1 1049.64,-125.19"/>
</g>
<!-- Node34&#45;&gt;Node14 -->
<g id="edge66" class="edge">
<title>Node34&#45;&gt;Node14</title>
<path fill="none" stroke="#63b8ff" d="M1585.49,-171.42C1648.11,-167.64 1750.18,-157.22 1773.61,-129 1796.88,-100.97 1782,-55.46 1770.43,-29.76"/>
<polygon fill="#63b8ff" stroke="#63b8ff" points="1773.64,-28.34 1766.15,-20.84 1767.33,-31.37 1773.64,-28.34"/>
</g>
<!-- Node34&#45;&gt;Node16 -->
<g id="edge62" class="edge">
<title>Node34&#45;&gt;Node16</title>
<path fill="none" stroke="#63b8ff" d="M1585.59,-170.79C1651.15,-166.25 1761.38,-154.91 1791.61,-129 1820.65,-104.1 1828.66,-57.35 1830.84,-30.62"/>
<polygon fill="#63b8ff" stroke="#63b8ff" points="1834.32,-30.98 1831.41,-20.8 1827.33,-30.57 1834.32,-30.98"/>
</g>
<!-- Node34&#45;&gt;Node17 -->
<g id="edge64" class="edge">
<title>Node34&#45;&gt;Node17</title>
<path fill="none" stroke="#63b8ff" d="M1545.24,-164.92C1558.67,-151.94 1579.83,-127.04 1565.61,-110 1500.37,-31.85 1171.76,-14.95 1057.13,-11.41"/>
<polygon fill="#63b8ff" stroke="#63b8ff" points="1057.39,-7.91 1047.29,-11.12 1057.19,-14.91 1057.39,-7.91"/>
</g>
<!-- Node34&#45;&gt;Node18 -->
<g id="edge55" class="edge">
<title>Node34&#45;&gt;Node18</title>
<path fill="none" stroke="#63b8ff" d="M1585.53,-169.88C1654.62,-164.13 1775.11,-151.22 1812.61,-129 1852.8,-105.18 1881.84,-56.56 1895.62,-29.59"/>
<polygon fill="#63b8ff" stroke="#63b8ff" points="1898.64,-31.37 1899.91,-20.85 1892.36,-28.29 1898.64,-31.37"/>
</g>
<!-- Node34&#45;&gt;Node19 -->
<g id="edge67" class="edge">
<title>Node34&#45;&gt;Node19</title>
<path fill="none" stroke="#63b8ff" d="M1535.87,-164.85C1535.78,-150.82 1533.33,-123.35 1516.61,-110 1492.46,-90.72 1040.91,-72.3 900.15,-67.01"/>
<polygon fill="#63b8ff" stroke="#63b8ff" points="900.67,-63.53 890.54,-66.65 900.41,-70.52 900.67,-63.53"/>
</g>
<!-- Node34&#45;&gt;Node21 -->
<g id="edge59" class="edge">
<title>Node34&#45;&gt;Node21</title>
<path fill="none" stroke="#63b8ff" d="M1541.83,-164.53C1550.35,-151.04 1563.13,-125.47 1549.61,-110 1512.36,-67.38 1338.59,-63.96 1259.73,-64.68"/>
<polygon fill="#63b8ff" stroke="#63b8ff" points="1259.83,-61.18 1249.87,-64.8 1259.92,-68.18 1259.83,-61.18"/>
</g>
<!-- Node34&#45;&gt;Node25 -->
<g id="edge58" class="edge">
<title>Node34&#45;&gt;Node25</title>
<path fill="none" stroke="#63b8ff" d="M1485.96,-169.69C1386.84,-162.08 1157.39,-144.39 964.61,-129 939.85,-127.02 911.78,-124.73 891.05,-123.02"/>
<polygon fill="#63b8ff" stroke="#63b8ff" points="891.54,-119.55 881.28,-122.21 890.96,-126.52 891.54,-119.55"/>
</g>
<!-- Node35 -->
<g id="node35" class="node">
<title>Node35</title>
<g id="a_node35"><a xlink:title=" ">
<polygon fill="#e0e0e0" stroke="#999999" points="2066.61,-129 2008.61,-129 2008.61,-110 2066.61,-110 2066.61,-129"/>
<text text-anchor="middle" x="2037.61" y="-117" font-family="Helvetica,sans-Serif" font-size="10.00">memory</text>
</a>
</g>
</g>
<!-- Node34&#45;&gt;Node35 -->
<g id="edge53" class="edge">
<title>Node34&#45;&gt;Node35</title>
<path fill="none" stroke="#63b8ff" d="M1585.31,-170.77C1668.51,-165.76 1841.41,-153.45 1997.04,-129.22"/>
<polygon fill="#63b8ff" stroke="#63b8ff" points="1997.39,-132.71 2006.72,-127.69 1996.3,-125.79 1997.39,-132.71"/>
</g>
<!-- Node36 -->
<g id="node36" class="node">
<title>Node36</title>
<g id="a_node36"><a xlink:title=" ">
<polygon fill="#e0e0e0" stroke="#999999" points="1705.11,-129 1640.11,-129 1640.11,-110 1705.11,-110 1705.11,-129"/>
<text text-anchor="middle" x="1672.61" y="-117" font-family="Helvetica,sans-Serif" font-size="10.00">functional</text>
</a>
</g>
</g>
<!-- Node34&#45;&gt;Node36 -->
<g id="edge56" class="edge">
<title>Node34&#45;&gt;Node36</title>
<path fill="none" stroke="#63b8ff" d="M1558.85,-164.51C1580.93,-155.97 1614.36,-143.03 1639.27,-133.4"/>
<polygon fill="#63b8ff" stroke="#63b8ff" points="1640.24,-136.78 1648.3,-129.9 1637.71,-130.25 1640.24,-136.78"/>
</g>
<!-- Node34&#45;&gt;Node37 -->
<g id="edge57" class="edge">
<title>Node34&#45;&gt;Node37</title>
<path fill="none" stroke="#63b8ff" d="M1585.32,-169.11C1658.85,-162.31 1800.83,-148.01 1920.61,-129 1921.43,-128.87 1922.27,-128.73 1923.11,-128.59"/>
<polygon fill="#63b8ff" stroke="#63b8ff" points="1923.49,-132.08 1932.71,-126.86 1922.25,-125.19 1923.49,-132.08"/>
</g>
<!-- Node38 -->
<g id="node38" class="node">
<title>Node38</title>
<g id="a_node38"><a xlink:title=" ">
<polygon fill="#e0e0e0" stroke="#999999" points="1764.11,-129 1723.11,-129 1723.11,-110 1764.11,-110 1764.11,-129"/>
<text text-anchor="middle" x="1743.61" y="-117" font-family="Helvetica,sans-Serif" font-size="10.00">tuple</text>
</a>
</g>
</g>
<!-- Node34&#45;&gt;Node38 -->
<g id="edge60" class="edge">
<title>Node34&#45;&gt;Node38</title>
<path fill="none" stroke="#63b8ff" d="M1573.44,-164.58C1607.41,-156.46 1658.9,-143.89 1711.78,-129.69"/>
<polygon fill="#63b8ff" stroke="#63b8ff" points="1712.53,-133.11 1721.27,-127.13 1710.7,-126.36 1712.53,-133.11"/>
</g>
<!-- Node39 -->
<g id="node39" class="node">
<title>Node39</title>
<g id="a_node39"><a xlink:title=" ">
<polygon fill="#e0e0e0" stroke="#999999" points="1139.11,-129 1094.11,-129 1094.11,-110 1139.11,-110 1139.11,-129"/>
<text text-anchor="middle" x="1116.61" y="-117" font-family="Helvetica,sans-Serif" font-size="10.00">utility</text>
</a>
</g>
</g>
<!-- Node34&#45;&gt;Node39 -->
<g id="edge61" class="edge">
<title>Node34&#45;&gt;Node39</title>
<path fill="none" stroke="#63b8ff" d="M1485.78,-170.1C1413.84,-164.67 1276.61,-152.42 1150.58,-129.1"/>
<polygon fill="#63b8ff" stroke="#63b8ff" points="1151.55,-125.72 1141.08,-127.31 1150.26,-132.6 1151.55,-125.72"/>
</g>
<!-- Node40 -->
<g id="node40" class="node">
<title>Node40</title>
<g id="a_node40"><a xlink:title=" ">
<polygon fill="#e0e0e0" stroke="#999999" points="1203.61,-129 1157.61,-129 1157.61,-110 1203.61,-110 1203.61,-129"/>
<text text-anchor="middle" x="1180.61" y="-117" font-family="Helvetica,sans-Serif" font-size="10.00">locale</text>
</a>
</g>
</g>
<!-- Node34&#45;&gt;Node40 -->
<g id="edge63" class="edge">
<title>Node34&#45;&gt;Node40</title>
<path fill="none" stroke="#63b8ff" d="M1485.67,-168.4C1424.35,-161.73 1317,-148.79 1215.08,-129.05"/>
<polygon fill="#63b8ff" stroke="#63b8ff" points="1215.94,-125.66 1205.45,-127.16 1214.59,-132.52 1215.94,-125.66"/>
</g>
<!-- Node34&#45;&gt;Node41 -->
<g id="edge68" class="edge">
<title>Node34&#45;&gt;Node41</title>
<path fill="none" stroke="#63b8ff" d="M1585.33,-173.46C1679.28,-172.5 1889.23,-166.21 2073.13,-128.98"/>
<polygon fill="#63b8ff" stroke="#63b8ff" points="2073.79,-132.42 2082.88,-126.97 2072.38,-125.57 2073.79,-132.42"/>
</g>
<!-- Node42 -->
<g id="node42" class="node">
<title>Node42</title>
<g id="a_node42"><a xlink:title=" ">
<polygon fill="#e0e0e0" stroke="#999999" points="1291.11,-129 1222.11,-129 1222.11,-110 1291.11,-110 1291.11,-129"/>
<text text-anchor="middle" x="1256.61" y="-117" font-family="Helvetica,sans-Serif" font-size="10.00">type_traits</text>
</a>
</g>
</g>
<!-- Node34&#45;&gt;Node42 -->
<g id="edge69" class="edge">
<title>Node34&#45;&gt;Node42</title>
<path fill="none" stroke="#63b8ff" d="M1487.89,-164.52C1442.72,-156 1372.71,-142.77 1302.07,-129.27"/>
<polygon fill="#63b8ff" stroke="#63b8ff" points="1303.16,-125.92 1292.68,-127.48 1301.84,-132.79 1303.16,-125.92"/>
</g>
<!-- Node43 -->
<g id="node43" class="node">
<title>Node43</title>
<g id="a_node43"><a xlink:title=" ">
<polygon fill="#e0e0e0" stroke="#999999" points="1362.11,-129 1309.11,-129 1309.11,-110 1362.11,-110 1362.11,-129"/>
<text text-anchor="middle" x="1335.61" y="-117" font-family="Helvetica,sans-Serif" font-size="10.00">iterator</text>
</a>
</g>
</g>
<!-- Node34&#45;&gt;Node43 -->
<g id="edge70" class="edge">
<title>Node34&#45;&gt;Node43</title>
<path fill="none" stroke="#63b8ff" d="M1501.68,-164.51C1466.03,-155.06 1410.09,-140.24 1373.14,-130.45"/>
<polygon fill="#63b8ff" stroke="#63b8ff" points="1374.35,-127.15 1363.79,-127.97 1372.56,-133.91 1374.35,-127.15"/>
</g>
<!-- Node44 -->
<g id="node44" class="node">
<title>Node44</title>
<g id="a_node44"><a xlink:title=" ">
<polygon fill="#e0e0e0" stroke="#999999" points="1445.11,-129 1380.11,-129 1380.11,-110 1445.11,-110 1445.11,-129"/>
<text text-anchor="middle" x="1412.61" y="-117" font-family="Helvetica,sans-Serif" font-size="10.00">stdexcept</text>
</a>
</g>
</g>
<!-- Node34&#45;&gt;Node44 -->
<g id="edge71" class="edge">
<title>Node34&#45;&gt;Node44</title>
<path fill="none" stroke="#63b8ff" d="M1514.74,-164.51C1495.19,-156.08 1465.71,-143.38 1443.44,-133.79"/>
<polygon fill="#63b8ff" stroke="#63b8ff" points="1445.12,-130.7 1434.56,-129.96 1442.35,-137.13 1445.12,-130.7"/>
</g>
<!-- Node45 -->
<g id="node45" class="node">
<title>Node45</title>
<g id="a_node45"><a xlink:title=" ">
<polygon fill="#e0e0e0" stroke="#999999" points="1507.61,-129 1463.61,-129 1463.61,-110 1507.61,-110 1507.61,-129"/>
<text text-anchor="middle" x="1485.61" y="-117" font-family="Helvetica,sans-Serif" font-size="10.00">limits</text>
</a>
</g>
</g>
<!-- Node34&#45;&gt;Node45 -->
<g id="edge73" class="edge">
<title>Node34&#45;&gt;Node45</title>
<path fill="none" stroke="#63b8ff" d="M1527.35,-164.75C1520.44,-157.43 1510.38,-146.76 1501.87,-137.74"/>
<polygon fill="#63b8ff" stroke="#63b8ff" points="1504.49,-135.42 1495.08,-130.54 1499.4,-140.22 1504.49,-135.42"/>
</g>
<!-- Node49&#45;&gt;Node3 -->
<g id="edge76" class="edge">
<title>Node49&#45;&gt;Node3</title>
<path fill="none" stroke="#63b8ff" d="M569.62,-274.63C564.49,-260.81 552.69,-234.23 533.61,-220 506.13,-199.51 283.96,-148 196.65,-128.31"/>
<polygon fill="#63b8ff" stroke="#63b8ff" points="197.5,-124.92 186.98,-126.14 195.97,-131.75 197.5,-124.92"/>
</g>
<!-- Node50 -->
<g id="node47" class="node">
<title>Node50</title>
<g id="a_node47"><a xlink:title=" ">
<polygon fill="#e0e0e0" stroke="#999999" points="622.61,-239 580.61,-239 580.61,-220 622.61,-220 622.61,-239"/>
<text text-anchor="middle" x="601.61" y="-227" font-family="Helvetica,sans-Serif" font-size="10.00">array</text>
</a>
</g>
</g>
<!-- Node49&#45;&gt;Node50 -->
<g id="edge77" class="edge">
<title>Node49&#45;&gt;Node50</title>
<path fill="none" stroke="#63b8ff" d="M577.4,-274.75C581.15,-267.88 586.52,-258.08 591.24,-249.45"/>
<polygon fill="#63b8ff" stroke="#63b8ff" points="594.26,-251.22 595.99,-240.77 588.12,-247.86 594.26,-251.22"/>
</g>
<!-- Node51&#45;&gt;Node2 -->
<g id="edge86" class="edge">
<title>Node51&#45;&gt;Node2</title>
<path fill="none" stroke="#63b8ff" d="M2081.72,-219.59C2104.93,-198.11 2157.66,-142.85 2125.61,-110 2069.92,-52.94 806.29,-83.69 649,-73.19"/>
<polygon fill="#63b8ff" stroke="#63b8ff" points="649.64,-69.74 639.36,-72.27 648.98,-76.7 649.64,-69.74"/>
</g>
<!-- Node52 -->
<g id="node49" class="node">
<title>Node52</title>
<g id="a_node49"><a xlink:href="SharedPointer_8hpp.html" target="_top" xlink:title=" ">
<polygon fill="white" stroke="#666666" points="2088.61,-184 1964.61,-184 1964.61,-165 2088.61,-165 2088.61,-184"/>
<text text-anchor="middle" x="2026.61" y="-172" font-family="Helvetica,sans-Serif" font-size="10.00">util/SharedPointer.hpp</text>
</a>
</g>
</g>
<!-- Node51&#45;&gt;Node52 -->
<g id="edge84" class="edge">
<title>Node51&#45;&gt;Node52</title>
<path fill="none" stroke="#63b8ff" d="M2064.18,-219.75C2058.03,-212.5 2049.09,-201.98 2041.48,-193.02"/>
<polygon fill="#63b8ff" stroke="#63b8ff" points="2044.32,-190.95 2035.18,-185.6 2038.98,-195.48 2044.32,-190.95"/>
</g>
<!-- Node53 -->
<g id="node50" class="node">
<title>Node53</title>
<g id="a_node50"><a xlink:title=" ">
<polygon fill="#e0e0e0" stroke="#999999" points="2244.11,-184 2145.11,-184 2145.11,-165 2244.11,-165 2244.11,-184"/>
<text text-anchor="middle" x="2194.61" y="-172" font-family="Helvetica,sans-Serif" font-size="10.00">yaml&#45;cpp/yaml.h</text>
</a>
</g>
</g>
<!-- Node51&#45;&gt;Node53 -->
<g id="edge87" class="edge">
<title>Node51&#45;&gt;Node53</title>
<path fill="none" stroke="#63b8ff" d="M2092.47,-219.51C2112.03,-211.08 2141.51,-198.38 2163.77,-188.79"/>
<polygon fill="#63b8ff" stroke="#63b8ff" points="2164.86,-192.13 2172.66,-184.96 2162.09,-185.7 2164.86,-192.13"/>
</g>
<!-- Node52&#45;&gt;Node35 -->
<g id="edge85" class="edge">
<title>Node52&#45;&gt;Node35</title>
<path fill="none" stroke="#63b8ff" d="M2028.42,-164.75C2029.79,-158.19 2031.7,-148.95 2033.44,-140.6"/>
<polygon fill="#63b8ff" stroke="#63b8ff" points="2036.84,-141.43 2035.44,-130.92 2029.99,-140 2036.84,-141.43"/>
</g>
</g>
</svg>
