<?xml version="1.0" encoding="UTF-8" standalone="no"?>
<!DOCTYPE svg PUBLIC "-//W3C//DTD SVG 1.1//EN"
 "http://www.w3.org/Graphics/SVG/1.1/DTD/svg11.dtd">
<!-- Generated by graphviz version 9.0.0 (0)
 -->
<!-- Title: Options.hpp Pages: 1 -->
<svg width="7716pt" height="225pt"
 viewBox="0.00 0.00 7716.12 224.50" xmlns="http://www.w3.org/2000/svg" xmlns:xlink="http://www.w3.org/1999/xlink">
<g id="graph0" class="graph" transform="scale(1 1) rotate(0) translate(4 220.5)">
<title>Options.hpp</title>
<!-- Node1 -->
<g id="Node000001" class="node">
<title>Node1</title>
<g id="a_Node000001"><a xlink:title=" ">
<polygon fill="#999999" stroke="#666666" points="626.12,-216.5 551.62,-216.5 551.62,-195.75 626.12,-195.75 626.12,-216.5"/>
<text text-anchor="middle" x="588.88" y="-203" font-family="Helvetica,sans-Serif" font-size="10.00">Options.hpp</text>
</a>
</g>
</g>
<!-- Node2 -->
<g id="Node000002" class="node">
<title>Node2</title>
<g id="a_Node000002"><a xlink:href="ClusterSinglesDoublesAlgorithm_8cxx.html" target="_top" xlink:title=" ">
<polygon fill="white" stroke="#666666" points="193.75,-96.62 0,-96.62 0,-75.88 193.75,-75.88 193.75,-96.62"/>
<text text-anchor="middle" x="96.88" y="-83.12" font-family="Helvetica,sans-Serif" font-size="10.00">ClusterSinglesDoublesAlgorithm.cxx</text>
</a>
</g>
</g>
<!-- Node1&#45;&gt;Node2 -->
<g id="edge1_Node000001_Node000002" class="edge">
<title>Node1&#45;&gt;Node2</title>
<g id="a_edge1_Node000001_Node000002"><a xlink:title=" ">
<path fill="none" stroke="#63b8ff" d="M540.59,-193.56C443.96,-170.41 228.35,-118.75 137.98,-97.1"/>
<polygon fill="#63b8ff" stroke="#63b8ff" points="539.48,-196.89 550.02,-195.82 541.11,-190.08 539.48,-196.89"/>
</a>
</g>
</g>
<!-- Node3 -->
<g id="Node000003" class="node">
<title>Node3</title>
<g id="a_Node000003"><a xlink:href="ClusterSinglesDoublesTriplesAlgorithm_8cxx.html" target="_top" xlink:title=" ">
<polygon fill="white" stroke="#666666" points="368.38,-103 211.38,-103 211.38,-69.5 368.38,-69.5 368.38,-103"/>
<text text-anchor="start" x="219.38" y="-89.5" font-family="Helvetica,sans-Serif" font-size="10.00">ClusterSinglesDoublesTriples</text>
<text text-anchor="middle" x="289.88" y="-76.75" font-family="Helvetica,sans-Serif" font-size="10.00">Algorithm.cxx</text>
</a>
</g>
</g>
<!-- Node1&#45;&gt;Node3 -->
<g id="edge2_Node000001_Node000003" class="edge">
<title>Node1&#45;&gt;Node3</title>
<g id="a_edge2_Node000001_Node000003"><a xlink:title=" ">
<path fill="none" stroke="#63b8ff" d="M553.48,-191.17C497.8,-169.22 389.99,-126.72 330.97,-103.45"/>
<polygon fill="#63b8ff" stroke="#63b8ff" points="551.9,-194.31 562.49,-194.72 554.47,-187.8 551.9,-194.31"/>
</a>
</g>
</g>
<!-- Node4 -->
<g id="Node000004" class="node">
<title>Node4</title>
<g id="a_Node000004"><a xlink:href="ClusterSinglesDoublesTriplesQuadruplesAlgorithm_8cxx.html" target="_top" xlink:title=" ">
<polygon fill="white" stroke="#666666" points="543.38,-103 386.38,-103 386.38,-69.5 543.38,-69.5 543.38,-103"/>
<text text-anchor="start" x="394.38" y="-89.5" font-family="Helvetica,sans-Serif" font-size="10.00">ClusterSinglesDoublesTriples</text>
<text text-anchor="middle" x="464.88" y="-76.75" font-family="Helvetica,sans-Serif" font-size="10.00">QuadruplesAlgorithm.cxx</text>
</a>
</g>
</g>
<!-- Node1&#45;&gt;Node4 -->
<g id="edge3_Node000001_Node000004" class="edge">
<title>Node1&#45;&gt;Node4</title>
<g id="a_edge3_Node000001_Node000004"><a xlink:title=" ">
<path fill="none" stroke="#63b8ff" d="M570.48,-187.64C546.53,-164.87 504.97,-125.37 481.78,-103.32"/>
<polygon fill="#63b8ff" stroke="#63b8ff" points="567.97,-190.08 577.63,-194.44 572.79,-185.01 567.97,-190.08"/>
</a>
</g>
</g>
<!-- Node5 -->
<g id="Node000005" class="node">
<title>Node5</title>
<g id="a_Node000005"><a xlink:href="Options_8cxx.html" target="_top" xlink:title=" ">
<polygon fill="white" stroke="#666666" points="3960.75,-159.75 3887,-159.75 3887,-139 3960.75,-139 3960.75,-159.75"/>
<text text-anchor="middle" x="3923.88" y="-146.25" font-family="Helvetica,sans-Serif" font-size="10.00">Options.cxx</text>
</a>
</g>
</g>
<!-- Node1&#45;&gt;Node5 -->
<g id="edge4_Node000001_Node000005" class="edge">
<title>Node1&#45;&gt;Node5</title>
<g id="a_edge4_Node000001_Node000005"><a xlink:title=" ">
<path fill="none" stroke="#63b8ff" d="M638.02,-205C1022.54,-203.98 3542.37,-195.93 3877.88,-159.75 3880.71,-159.44 3883.63,-159.05 3886.56,-158.59"/>
<polygon fill="#63b8ff" stroke="#63b8ff" points="638.01,-201.5 628.02,-205.03 638.03,-208.5 638.01,-201.5"/>
</a>
</g>
</g>
<!-- Node6 -->
<g id="Node000006" class="node">
<title>Node6</title>
<g id="a_Node000006"><a xlink:href="SimilarityTransformedHamiltonian_8cxx.html" target="_top" xlink:title=" ">
<polygon fill="white" stroke="#666666" points="766,-96.62 561.75,-96.62 561.75,-75.88 766,-75.88 766,-96.62"/>
<text text-anchor="middle" x="663.88" y="-83.12" font-family="Helvetica,sans-Serif" font-size="10.00">SimilarityTransformedHamiltonian.cxx</text>
</a>
</g>
</g>
<!-- Node1&#45;&gt;Node6 -->
<g id="edge5_Node000001_Node000006" class="edge">
<title>Node1&#45;&gt;Node6</title>
<g id="a_edge5_Node000001_Node000006"><a xlink:title=" ">
<path fill="none" stroke="#63b8ff" d="M601.16,-185.81C617.37,-160.34 645.28,-116.48 657.65,-97.03"/>
<polygon fill="#63b8ff" stroke="#63b8ff" points="598.24,-183.89 595.83,-194.2 604.15,-187.64 598.24,-183.89"/>
</a>
</g>
</g>
<!-- Node7 -->
<g id="Node000007" class="node">
<title>Node7</title>
<g id="a_Node000007"><a xlink:href="Sisi4s_8hpp.html" target="_top" xlink:title=" ">
<polygon fill="#fff0f0" stroke="red" points="3868.62,-159.75 3803.12,-159.75 3803.12,-139 3868.62,-139 3868.62,-159.75"/>
<text text-anchor="middle" x="3835.88" y="-146.25" font-family="Helvetica,sans-Serif" font-size="10.00">Sisi4s.hpp</text>
</a>
</g>
</g>
<!-- Node1&#45;&gt;Node7 -->
<g id="edge6_Node000001_Node000007" class="edge">
<title>Node1&#45;&gt;Node7</title>
<g id="a_edge6_Node000001_Node000007"><a xlink:title=" ">
<path fill="none" stroke="#63b8ff" d="M637.84,-204.3C1017.71,-197.89 3487.69,-156.25 3802.81,-150.93"/>
<polygon fill="#63b8ff" stroke="#63b8ff" points="637.92,-200.8 627.98,-204.47 638.03,-207.8 637.92,-200.8"/>
</a>
</g>
</g>
<!-- Node7&#45;&gt;Node2 -->
<g id="edge19_Node000007_Node000002" class="edge">
<title>Node7&#45;&gt;Node2</title>
<g id="a_edge19_Node000007_Node000002"><a xlink:title=" ">
<path fill="none" stroke="#63b8ff" d="M3791.44,-148.19C3402.1,-146.5 576.51,-133.29 201.88,-103 185.89,-101.71 168.64,-99.47 152.84,-97.09"/>
<polygon fill="#63b8ff" stroke="#63b8ff" points="3791.23,-151.69 3801.24,-148.23 3791.26,-144.69 3791.23,-151.69"/>
</a>
</g>
</g>
<!-- Node7&#45;&gt;Node3 -->
<g id="edge20_Node000007_Node000003" class="edge">
<title>Node7&#45;&gt;Node3</title>
<g id="a_edge20_Node000007_Node000003"><a xlink:title=" ">
<path fill="none" stroke="#63b8ff" d="M3791.55,-148.24C3413.23,-147.03 732.34,-137.27 376.88,-103 374.12,-102.73 371.33,-102.43 368.51,-102.09"/>
<polygon fill="#63b8ff" stroke="#63b8ff" points="3791.28,-151.74 3801.29,-148.27 3791.3,-144.74 3791.28,-151.74"/>
</a>
</g>
</g>
<!-- Node7&#45;&gt;Node4 -->
<g id="edge21_Node000007_Node000004" class="edge">
<title>Node7&#45;&gt;Node4</title>
<g id="a_edge21_Node000007_Node000004"><a xlink:title=" ">
<path fill="none" stroke="#63b8ff" d="M3791.28,-148.2C3422.98,-146.7 889.5,-135.23 552.88,-103 549.79,-102.7 546.64,-102.36 543.47,-101.97"/>
<polygon fill="#63b8ff" stroke="#63b8ff" points="3791.22,-151.7 3801.23,-148.24 3791.24,-144.7 3791.22,-151.7"/>
</a>
</g>
</g>
<!-- Node7&#45;&gt;Node6 -->
<g id="edge58_Node000007_Node000006" class="edge">
<title>Node7&#45;&gt;Node6</title>
<g id="a_edge58_Node000007_Node000006"><a xlink:title=" ">
<path fill="none" stroke="#63b8ff" d="M3791.47,-148.49C3462.41,-149.2 1398.38,-151.66 774.88,-103 758.09,-101.69 739.97,-99.47 723.35,-97.1"/>
<polygon fill="#63b8ff" stroke="#63b8ff" points="3791.37,-151.99 3801.36,-148.46 3791.35,-144.99 3791.37,-151.99"/>
</a>
</g>
</g>
<!-- Node8 -->
<g id="Node000008" class="node">
<title>Node8</title>
<g id="a_Node000008"><a xlink:href="ApproximateCoulombVertex_8cxx.html" target="_top" xlink:title=" ">
<polygon fill="white" stroke="#666666" points="6064,-96.62 5889.75,-96.62 5889.75,-75.88 6064,-75.88 6064,-96.62"/>
<text text-anchor="middle" x="5976.88" y="-83.12" font-family="Helvetica,sans-Serif" font-size="10.00">ApproximateCoulombVertex.cxx</text>
</a>
</g>
</g>
<!-- Node7&#45;&gt;Node8 -->
<g id="edge7_Node000007_Node000008" class="edge">
<title>Node7&#45;&gt;Node8</title>
<g id="a_edge7_Node000007_Node000008"><a xlink:title=" ">
<path fill="none" stroke="#63b8ff" d="M3880.15,-139.05C4338.43,-87.18 5441.19,-142.81 5880.88,-103 5895.51,-101.68 5911.28,-99.43 5925.73,-97.05"/>
<polygon fill="#63b8ff" stroke="#63b8ff" points="3879.81,-135.56 3870.29,-140.2 3880.62,-142.52 3879.81,-135.56"/>
</a>
</g>
</g>
<!-- Node9 -->
<g id="Node000009" class="node">
<title>Node9</title>
<g id="a_Node000009"><a xlink:href="ApproximateParticleHoleCoulombVertex_8cxx.html" target="_top" xlink:title=" ">
<polygon fill="white" stroke="#666666" points="6263.38,-103 6082.38,-103 6082.38,-69.5 6263.38,-69.5 6263.38,-103"/>
<text text-anchor="start" x="6090.38" y="-89.5" font-family="Helvetica,sans-Serif" font-size="10.00">ApproximateParticleHoleCoulomb</text>
<text text-anchor="middle" x="6172.88" y="-76.75" font-family="Helvetica,sans-Serif" font-size="10.00">Vertex.cxx</text>
</a>
</g>
</g>
<!-- Node7&#45;&gt;Node9 -->
<g id="edge8_Node000007_Node000009" class="edge">
<title>Node7&#45;&gt;Node9</title>
<g id="a_edge8_Node000007_Node000009"><a xlink:title=" ">
<path fill="none" stroke="#63b8ff" d="M3880.11,-139.05C4380.82,-82.52 5590.53,-144.73 6072.88,-103 6075.85,-102.74 6078.87,-102.45 6081.92,-102.13"/>
<polygon fill="#63b8ff" stroke="#63b8ff" points="3879.81,-135.56 3870.28,-140.19 3880.62,-142.52 3879.81,-135.56"/>
</a>
</g>
</g>
<!-- Node10 -->
<g id="Node000010" class="node">
<title>Node10</title>
<g id="a_Node000010"><a xlink:href="BasisSetExtrapolation_8cxx.html" target="_top" xlink:title=" ">
<polygon fill="white" stroke="#666666" points="6424.62,-96.62 6281.12,-96.62 6281.12,-75.88 6424.62,-75.88 6424.62,-96.62"/>
<text text-anchor="middle" x="6352.88" y="-83.12" font-family="Helvetica,sans-Serif" font-size="10.00">BasisSetExtrapolation.cxx</text>
</a>
</g>
</g>
<!-- Node7&#45;&gt;Node10 -->
<g id="edge9_Node000007_Node000010" class="edge">
<title>Node7&#45;&gt;Node10</title>
<g id="a_edge9_Node000007_Node000010"><a xlink:title=" ">
<path fill="none" stroke="#63b8ff" d="M3879.91,-139.08C4424.51,-77.82 5746.28,-157.62 6271.88,-103 6284.27,-101.71 6297.6,-99.48 6309.79,-97.1"/>
<polygon fill="#63b8ff" stroke="#63b8ff" points="3879.82,-135.57 3870.28,-140.19 3880.62,-142.52 3879.82,-135.57"/>
</a>
</g>
</g>
<!-- Node11 -->
<g id="Node000011" class="node">
<title>Node11</title>
<g id="a_Node000011"><a xlink:href="CcsdDiagrammaticDecomposition_8cxx.html" target="_top" xlink:title=" ">
<polygon fill="white" stroke="#666666" points="6645.25,-96.62 6442.5,-96.62 6442.5,-75.88 6645.25,-75.88 6645.25,-96.62"/>
<text text-anchor="middle" x="6543.88" y="-83.12" font-family="Helvetica,sans-Serif" font-size="10.00">CcsdDiagrammaticDecomposition.cxx</text>
</a>
</g>
</g>
<!-- Node7&#45;&gt;Node11 -->
<g id="edge10_Node000007_Node000011" class="edge">
<title>Node7&#45;&gt;Node11</title>
<g id="a_edge10_Node000007_Node000011"><a xlink:title=" ">
<path fill="none" stroke="#63b8ff" d="M3879.8,-139.09C4460.12,-73.72 5871.15,-147.07 6433.88,-103 6450.51,-101.7 6468.46,-99.48 6484.94,-97.11"/>
<polygon fill="#63b8ff" stroke="#63b8ff" points="3879.82,-135.56 3870.28,-140.19 3880.62,-142.52 3879.82,-135.56"/>
</a>
</g>
</g>
<!-- Node12 -->
<g id="Node000012" class="node">
<title>Node12</title>
<g id="a_Node000012"><a xlink:href="CcsdEnergyFromCoulombIntegrals_8cxx.html" target="_top" xlink:title=" ">
<polygon fill="white" stroke="#666666" points="6868,-96.62 6663.75,-96.62 6663.75,-75.88 6868,-75.88 6868,-96.62"/>
<text text-anchor="middle" x="6765.88" y="-83.12" font-family="Helvetica,sans-Serif" font-size="10.00">CcsdEnergyFromCoulombIntegrals.cxx</text>
</a>
</g>
</g>
<!-- Node7&#45;&gt;Node12 -->
<g id="edge11_Node000007_Node000012" class="edge">
<title>Node7&#45;&gt;Node12</title>
<g id="a_edge11_Node000007_Node000012"><a xlink:title=" ">
<path fill="none" stroke="#63b8ff" d="M3879.81,-139.09C4508.76,-68.38 6042.34,-149.77 6653.88,-103 6670.81,-101.7 6689.09,-99.49 6705.87,-97.12"/>
<polygon fill="#63b8ff" stroke="#63b8ff" points="3879.82,-135.56 3870.28,-140.18 3880.62,-142.52 3879.82,-135.56"/>
</a>
</g>
</g>
<!-- Node13 -->
<g id="Node000013" class="node">
<title>Node13</title>
<g id="a_Node000013"><a xlink:href="CcsdEnergyFromCoulombIntegralsReference_8cxx.html" target="_top" xlink:title=" ">
<polygon fill="white" stroke="#666666" points="7069.88,-103 6885.88,-103 6885.88,-69.5 7069.88,-69.5 7069.88,-103"/>
<text text-anchor="start" x="6893.88" y="-89.5" font-family="Helvetica,sans-Serif" font-size="10.00">CcsdEnergyFromCoulombIntegrals</text>
<text text-anchor="middle" x="6977.88" y="-76.75" font-family="Helvetica,sans-Serif" font-size="10.00">Reference.cxx</text>
</a>
</g>
</g>
<!-- Node7&#45;&gt;Node13 -->
<g id="edge12_Node000007_Node000013" class="edge">
<title>Node7&#45;&gt;Node13</title>
<g id="a_edge12_Node000007_Node000013"><a xlink:title=" ">
<path fill="none" stroke="#63b8ff" d="M3880.18,-139.05C4558.66,-63.07 6216.43,-158.18 6876.88,-103 6879.7,-102.76 6882.58,-102.5 6885.47,-102.2"/>
<polygon fill="#63b8ff" stroke="#63b8ff" points="3879.82,-135.57 3870.28,-140.18 3880.62,-142.52 3879.82,-135.57"/>
</a>
</g>
</g>
<!-- Node14 -->
<g id="Node000014" class="node">
<title>Node14</title>
<g id="a_Node000014"><a xlink:href="CcsdEquationOfMotionDavidson_8cxx.html" target="_top" xlink:title=" ">
<polygon fill="white" stroke="#666666" points="2032.38,-27.12 1839.38,-27.12 1839.38,-6.38 2032.38,-6.38 2032.38,-27.12"/>
<text text-anchor="middle" x="1935.88" y="-13.62" font-family="Helvetica,sans-Serif" font-size="10.00">CcsdEquationOfMotionDavidson.cxx</text>
</a>
</g>
</g>
<!-- Node7&#45;&gt;Node14 -->
<g id="edge13_Node000007_Node000014" class="edge">
<title>Node7&#45;&gt;Node14</title>
<g id="a_edge13_Node000007_Node000014"><a xlink:title=" ">
<path fill="none" stroke="#63b8ff" d="M3791.63,-148.22C3500.16,-147.11 1866.34,-139.28 1830.88,-103 1820.47,-92.35 1823.01,-82.14 1830.88,-69.5 1844.29,-47.93 1869.64,-35.08 1892.07,-27.59"/>
<polygon fill="#63b8ff" stroke="#63b8ff" points="3791.44,-151.72 3801.45,-148.26 3791.47,-144.72 3791.44,-151.72"/>
</a>
</g>
</g>
<!-- Node15 -->
<g id="Node000015" class="node">
<title>Node15</title>
<g id="a_Node000015"><a xlink:href="CcsdPerturbativeTriples_8cxx.html" target="_top" xlink:title=" ">
<polygon fill="white" stroke="#666666" points="7495.38,-96.62 7344.38,-96.62 7344.38,-75.88 7495.38,-75.88 7495.38,-96.62"/>
<text text-anchor="middle" x="7419.88" y="-83.12" font-family="Helvetica,sans-Serif" font-size="10.00">CcsdPerturbativeTriples.cxx</text>
</a>
</g>
</g>
<!-- Node7&#45;&gt;Node15 -->
<g id="edge14_Node000007_Node000015" class="edge">
<title>Node7&#45;&gt;Node15</title>
<g id="a_edge14_Node000007_Node000015"><a xlink:title=" ">
<path fill="none" stroke="#63b8ff" d="M3880.16,-139.05C4658.74,-52.15 6569.69,-173.01 7329.88,-103 7343.62,-101.73 7358.41,-99.51 7371.96,-97.12"/>
<polygon fill="#63b8ff" stroke="#63b8ff" points="3879.82,-135.57 3870.28,-140.18 3880.61,-142.52 3879.82,-135.57"/>
</a>
</g>
</g>
<!-- Node16 -->
<g id="Node000016" class="node">
<title>Node16</title>
<g id="a_Node000016"><a xlink:href="CcsdPerturbativeTriplesComplex_8cxx.html" target="_top" xlink:title=" ">
<polygon fill="white" stroke="#666666" points="7708.12,-96.62 7513.62,-96.62 7513.62,-75.88 7708.12,-75.88 7708.12,-96.62"/>
<text text-anchor="middle" x="7610.88" y="-83.12" font-family="Helvetica,sans-Serif" font-size="10.00">CcsdPerturbativeTriplesComplex.cxx</text>
</a>
</g>
</g>
<!-- Node7&#45;&gt;Node16 -->
<g id="edge15_Node000007_Node000016" class="edge">
<title>Node7&#45;&gt;Node16</title>
<g id="a_edge15_Node000007_Node000016"><a xlink:title=" ">
<path fill="none" stroke="#63b8ff" d="M3880.13,-139.11C4327.71,-93.58 7106.63,-134.41 7504.88,-103 7521.01,-101.73 7538.42,-99.5 7554.38,-97.12"/>
<polygon fill="#63b8ff" stroke="#63b8ff" points="3879.85,-135.62 3870.28,-140.18 3880.6,-142.58 3879.85,-135.62"/>
</a>
</g>
</g>
<!-- Node17 -->
<g id="Node000017" class="node">
<title>Node17</title>
<g id="a_Node000017"><a xlink:href="CcsdPreconditioner_8cxx.html" target="_top" xlink:title=" ">
<polygon fill="white" stroke="#666666" points="4637.5,-27.12 4508.25,-27.12 4508.25,-6.38 4637.5,-6.38 4637.5,-27.12"/>
<text text-anchor="middle" x="4572.88" y="-13.62" font-family="Helvetica,sans-Serif" font-size="10.00">CcsdPreconditioner.cxx</text>
</a>
</g>
</g>
<!-- Node7&#45;&gt;Node17 -->
<g id="edge16_Node000007_Node000017" class="edge">
<title>Node7&#45;&gt;Node17</title>
<g id="a_edge16_Node000007_Node000017"><a xlink:title=" ">
<path fill="none" stroke="#63b8ff" d="M3880.23,-139.83C4093.63,-133.9 7048.48,-133.74 7078.88,-103 7089.34,-92.41 7089.29,-80.14 7078.88,-69.5 7034.88,-24.58 5026.59,-18.59 4637.7,-17.85"/>
<polygon fill="#63b8ff" stroke="#63b8ff" points="3880.12,-136.33 3870.29,-140.28 3880.44,-143.32 3880.12,-136.33"/>
</a>
</g>
</g>
<!-- Node18 -->
<g id="Node000018" class="node">
<title>Node18</title>
<g id="a_Node000018"><a xlink:href="CcsdtEnergyFromCoulombIntegrals_8cxx.html" target="_top" xlink:title=" ">
<polygon fill="white" stroke="#666666" points="991.88,-96.62 783.88,-96.62 783.88,-75.88 991.88,-75.88 991.88,-96.62"/>
<text text-anchor="middle" x="887.88" y="-83.12" font-family="Helvetica,sans-Serif" font-size="10.00">CcsdtEnergyFromCoulombIntegrals.cxx</text>
</a>
</g>
</g>
<!-- Node7&#45;&gt;Node18 -->
<g id="edge17_Node000007_Node000018" class="edge">
<title>Node7&#45;&gt;Node18</title>
<g id="a_edge17_Node000007_Node000018"><a xlink:title=" ">
<path fill="none" stroke="#63b8ff" d="M3791.36,-148.41C3476.09,-148.55 1576.28,-147.54 1000.88,-103 983.89,-101.69 965.57,-99.48 948.72,-97.12"/>
<polygon fill="#63b8ff" stroke="#63b8ff" points="3791.22,-151.91 3801.22,-148.41 3791.21,-144.91 3791.22,-151.91"/>
</a>
</g>
</g>
<!-- Node19 -->
<g id="Node000019" class="node">
<title>Node19</title>
<g id="a_Node000019"><a xlink:href="CcsdtEquationOfMotionDavidson_8cxx.html" target="_top" xlink:title=" ">
<polygon fill="white" stroke="#666666" points="1821.25,-27.12 1624.5,-27.12 1624.5,-6.38 1821.25,-6.38 1821.25,-27.12"/>
<text text-anchor="middle" x="1722.88" y="-13.62" font-family="Helvetica,sans-Serif" font-size="10.00">CcsdtEquationOfMotionDavidson.cxx</text>
</a>
</g>
</g>
<!-- Node7&#45;&gt;Node19 -->
<g id="edge18_Node000007_Node000019" class="edge">
<title>Node7&#45;&gt;Node19</title>
<g id="a_edge18_Node000007_Node000019"><a xlink:title=" ">
<path fill="none" stroke="#63b8ff" d="M3791.47,-148.23C3504.05,-147.18 1915.83,-139.74 1820.88,-103 1780.08,-87.21 1744.83,-46.4 1730.16,-27.55"/>
<polygon fill="#63b8ff" stroke="#63b8ff" points="3791.14,-151.73 3801.15,-148.26 3791.16,-144.73 3791.14,-151.73"/>
</a>
</g>
</g>
<!-- Node20 -->
<g id="Node000020" class="node">
<title>Node20</title>
<g id="a_Node000020"><a xlink:href="ComplexTensorReader_8cxx.html" target="_top" xlink:title=" ">
<polygon fill="white" stroke="#666666" points="1155.38,-96.62 1010.38,-96.62 1010.38,-75.88 1155.38,-75.88 1155.38,-96.62"/>
<text text-anchor="middle" x="1082.88" y="-83.12" font-family="Helvetica,sans-Serif" font-size="10.00">ComplexTensorReader.cxx</text>
</a>
</g>
</g>
<!-- Node7&#45;&gt;Node20 -->
<g id="edge22_Node000007_Node000020" class="edge">
<title>Node7&#45;&gt;Node20</title>
<g id="a_edge22_Node000007_Node000020"><a xlink:title=" ">
<path fill="none" stroke="#63b8ff" d="M3791.29,-148.08C3463.86,-145.88 1436.14,-131.14 1164.88,-103 1152.33,-101.7 1138.84,-99.46 1126.5,-97.08"/>
<polygon fill="#63b8ff" stroke="#63b8ff" points="3791.11,-151.58 3801.13,-148.15 3791.15,-144.58 3791.11,-151.58"/>
</a>
</g>
</g>
<!-- Node21 -->
<g id="Node000021" class="node">
<title>Node21</title>
<g id="a_Node000021"><a xlink:href="CoulombIntegralsFromGaussian_8cxx.html" target="_top" xlink:title=" ">
<polygon fill="white" stroke="#666666" points="1366,-96.62 1173.75,-96.62 1173.75,-75.88 1366,-75.88 1366,-96.62"/>
<text text-anchor="middle" x="1269.88" y="-83.12" font-family="Helvetica,sans-Serif" font-size="10.00">CoulombIntegralsFromGaussian.cxx</text>
</a>
</g>
</g>
<!-- Node7&#45;&gt;Node21 -->
<g id="edge23_Node000007_Node000021" class="edge">
<title>Node7&#45;&gt;Node21</title>
<g id="a_edge23_Node000007_Node000021"><a xlink:title=" ">
<path fill="none" stroke="#63b8ff" d="M3791.48,-148.35C3501.23,-148.06 1870.75,-144.58 1374.88,-103 1359.08,-101.68 1342.04,-99.46 1326.39,-97.11"/>
<polygon fill="#63b8ff" stroke="#63b8ff" points="3791.25,-151.85 3801.25,-148.36 3791.26,-144.85 3791.25,-151.85"/>
</a>
</g>
</g>
<!-- Node22 -->
<g id="Node000022" class="node">
<title>Node22</title>
<g id="a_Node000022"><a xlink:href="CoulombIntegralsFromRotatedCoulombIntegrals_8cxx.html" target="_top" xlink:title=" ">
<polygon fill="white" stroke="#666666" points="1549.5,-103 1384.25,-103 1384.25,-69.5 1549.5,-69.5 1549.5,-103"/>
<text text-anchor="start" x="1392.25" y="-89.5" font-family="Helvetica,sans-Serif" font-size="10.00">CoulombIntegralsFromRotated</text>
<text text-anchor="middle" x="1466.88" y="-76.75" font-family="Helvetica,sans-Serif" font-size="10.00">CoulombIntegrals.cxx</text>
</a>
</g>
</g>
<!-- Node7&#45;&gt;Node22 -->
<g id="edge24_Node000007_Node000022" class="edge">
<title>Node7&#45;&gt;Node22</title>
<g id="a_edge24_Node000007_Node000022"><a xlink:title=" ">
<path fill="none" stroke="#63b8ff" d="M3791.78,-148.4C3515.11,-148.4 2015.55,-146.4 1558.88,-103 1555.81,-102.71 1552.69,-102.37 1549.55,-102"/>
<polygon fill="#63b8ff" stroke="#63b8ff" points="3791.42,-151.9 3801.42,-148.4 3791.42,-144.9 3791.42,-151.9"/>
</a>
</g>
</g>
<!-- Node23 -->
<g id="Node000023" class="node">
<title>Node23</title>
<g id="a_Node000023"><a xlink:href="CoulombIntegralsFromVertex_8cxx.html" target="_top" xlink:title=" ">
<polygon fill="white" stroke="#666666" points="1746.25,-96.62 1567.5,-96.62 1567.5,-75.88 1746.25,-75.88 1746.25,-96.62"/>
<text text-anchor="middle" x="1656.88" y="-83.12" font-family="Helvetica,sans-Serif" font-size="10.00">CoulombIntegralsFromVertex.cxx</text>
</a>
</g>
</g>
<!-- Node7&#45;&gt;Node23 -->
<g id="edge25_Node000007_Node000023" class="edge">
<title>Node7&#45;&gt;Node23</title>
<g id="a_edge25_Node000007_Node000023"><a xlink:title=" ">
<path fill="none" stroke="#63b8ff" d="M3791.63,-148.19C3529.2,-146.98 2174.38,-139.07 1759.88,-103 1744.47,-101.66 1727.86,-99.46 1712.58,-97.12"/>
<polygon fill="#63b8ff" stroke="#63b8ff" points="3791.42,-151.69 3801.43,-148.24 3791.45,-144.69 3791.42,-151.69"/>
</a>
</g>
</g>
<!-- Node24 -->
<g id="Node000024" class="node">
<title>Node24</title>
<g id="a_Node000024"><a xlink:href="CoulombVertexFromFactors_8cxx.html" target="_top" xlink:title=" ">
<polygon fill="white" stroke="#666666" points="7400.12,-27.12 7229.62,-27.12 7229.62,-6.38 7400.12,-6.38 7400.12,-27.12"/>
<text text-anchor="middle" x="7314.88" y="-13.62" font-family="Helvetica,sans-Serif" font-size="10.00">CoulombVertexFromFactors.cxx</text>
</a>
</g>
</g>
<!-- Node7&#45;&gt;Node24 -->
<g id="edge26_Node000007_Node000024" class="edge">
<title>Node7&#45;&gt;Node24</title>
<g id="a_edge26_Node000007_Node000024"><a xlink:title=" ">
<path fill="none" stroke="#63b8ff" d="M3880.28,-139.81C4101.8,-133.5 7261.13,-132.3 7296.88,-103 7319.34,-84.59 7318.23,-45.84 7316.27,-27.62"/>
<polygon fill="#63b8ff" stroke="#63b8ff" points="3880.12,-136.32 3870.29,-140.28 3880.44,-143.31 3880.12,-136.32"/>
</a>
</g>
</g>
<!-- Node25 -->
<g id="Node000025" class="node">
<title>Node25</title>
<g id="a_Node000025"><a xlink:href="CoulombVertexReader_8cxx.html" target="_top" xlink:title=" ">
<polygon fill="white" stroke="#666666" points="2092.38,-96.62 1947.38,-96.62 1947.38,-75.88 2092.38,-75.88 2092.38,-96.62"/>
<text text-anchor="middle" x="2019.88" y="-83.12" font-family="Helvetica,sans-Serif" font-size="10.00">CoulombVertexReader.cxx</text>
</a>
</g>
</g>
<!-- Node7&#45;&gt;Node25 -->
<g id="edge27_Node000007_Node000025" class="edge">
<title>Node7&#45;&gt;Node25</title>
<g id="a_edge27_Node000007_Node000025"><a xlink:title=" ">
<path fill="none" stroke="#63b8ff" d="M3791.63,-148.21C3555.63,-147.2 2442.93,-140.47 2100.88,-103 2088.63,-101.66 2075.47,-99.44 2063.39,-97.09"/>
<polygon fill="#63b8ff" stroke="#63b8ff" points="3791.3,-151.71 3801.31,-148.25 3791.33,-144.71 3791.3,-151.71"/>
</a>
</g>
</g>
<!-- Node26 -->
<g id="Node000026" class="node">
<title>Node26</title>
<g id="a_Node000026"><a xlink:href="CoulombVertexSingularVectors_8cxx.html" target="_top" xlink:title=" ">
<polygon fill="white" stroke="#666666" points="2297.38,-96.62 2110.38,-96.62 2110.38,-75.88 2297.38,-75.88 2297.38,-96.62"/>
<text text-anchor="middle" x="2203.88" y="-83.12" font-family="Helvetica,sans-Serif" font-size="10.00">CoulombVertexSingularVectors.cxx</text>
</a>
</g>
</g>
<!-- Node7&#45;&gt;Node26 -->
<g id="edge28_Node000007_Node000026" class="edge">
<title>Node7&#45;&gt;Node26</title>
<g id="a_edge28_Node000007_Node000026"><a xlink:title=" ">
<path fill="none" stroke="#63b8ff" d="M3791.43,-147.8C3572.29,-144.85 2605.52,-130.47 2305.88,-103 2290.8,-101.62 2274.56,-99.43 2259.57,-97.12"/>
<polygon fill="#63b8ff" stroke="#63b8ff" points="3791.19,-151.3 3801.24,-147.93 3791.29,-144.3 3791.19,-151.3"/>
</a>
</g>
</g>
<!-- Node27 -->
<g id="Node000027" class="node">
<title>Node27</title>
<g id="a_Node000027"><a xlink:href="CtfMachineTensor_8hpp.html" target="_top" xlink:title=" ">
<polygon fill="white" stroke="#666666" points="7287.5,-96.62 7164.25,-96.62 7164.25,-75.88 7287.5,-75.88 7287.5,-96.62"/>
<text text-anchor="middle" x="7225.88" y="-83.12" font-family="Helvetica,sans-Serif" font-size="10.00">CtfMachineTensor.hpp</text>
</a>
</g>
</g>
<!-- Node7&#45;&gt;Node27 -->
<g id="edge29_Node000007_Node000027" class="edge">
<title>Node7&#45;&gt;Node27</title>
<g id="a_edge29_Node000007_Node000027"><a xlink:title=" ">
<path fill="none" stroke="#63b8ff" d="M3880.12,-139.06C4618.9,-56.62 6430.64,-180.74 7149.88,-103 7161.66,-101.73 7174.33,-99.47 7185.87,-97.05"/>
<polygon fill="#63b8ff" stroke="#63b8ff" points="3879.82,-135.57 3870.28,-140.18 3880.61,-142.52 3879.82,-135.57"/>
</a>
</g>
</g>
<!-- Node28 -->
<g id="Node000028" class="node">
<title>Node28</title>
<g id="a_Node000028"><a xlink:href="ParticleHoleCoulombVertexFromFactors_8cxx.html" target="_top" xlink:title=" ">
<polygon fill="white" stroke="#666666" points="7210.62,-33.5 7061.12,-33.5 7061.12,0 7210.62,0 7210.62,-33.5"/>
<text text-anchor="start" x="7069.12" y="-20" font-family="Helvetica,sans-Serif" font-size="10.00">ParticleHoleCoulombVertex</text>
<text text-anchor="middle" x="7135.88" y="-7.25" font-family="Helvetica,sans-Serif" font-size="10.00">FromFactors.cxx</text>
</a>
</g>
</g>
<!-- Node7&#45;&gt;Node28 -->
<g id="edge57_Node000007_Node000028" class="edge">
<title>Node7&#45;&gt;Node28</title>
<g id="a_edge57_Node000007_Node000028"><a xlink:title=" ">
<path fill="none" stroke="#63b8ff" d="M3880.12,-139.6C4105.36,-129.72 7023.62,-150.62 7096.88,-103 7120.48,-87.65 7129.99,-54.12 7133.68,-33.98"/>
<polygon fill="#63b8ff" stroke="#63b8ff" points="3880.04,-136.1 3870.29,-140.25 3880.5,-143.08 3880.04,-136.1"/>
</a>
</g>
</g>
<!-- Node29 -->
<g id="Node000029" class="node">
<title>Node29</title>
<g id="a_Node000029"><a xlink:href="DefineHolesAndParticles_8cxx.html" target="_top" xlink:title=" ">
<polygon fill="white" stroke="#666666" points="2470.62,-96.62 2315.12,-96.62 2315.12,-75.88 2470.62,-75.88 2470.62,-96.62"/>
<text text-anchor="middle" x="2392.88" y="-83.12" font-family="Helvetica,sans-Serif" font-size="10.00">DefineHolesAndParticles.cxx</text>
</a>
</g>
</g>
<!-- Node7&#45;&gt;Node29 -->
<g id="edge32_Node000007_Node000029" class="edge">
<title>Node7&#45;&gt;Node29</title>
<g id="a_edge32_Node000007_Node000029"><a xlink:title=" ">
<path fill="none" stroke="#63b8ff" d="M3791.32,-147.77C3587.42,-144.87 2741.98,-131.33 2478.88,-103 2466.05,-101.62 2452.26,-99.42 2439.56,-97.09"/>
<polygon fill="#63b8ff" stroke="#63b8ff" points="3791.17,-151.27 3801.22,-147.91 3791.27,-144.27 3791.17,-151.27"/>
</a>
</g>
</g>
<!-- Node30 -->
<g id="Node000030" class="node">
<title>Node30</title>
<g id="a_Node000030"><a xlink:href="DoublesAmplitudesDecomposition_8cxx.html" target="_top" xlink:title=" ">
<polygon fill="white" stroke="#666666" points="2693.38,-96.62 2488.38,-96.62 2488.38,-75.88 2693.38,-75.88 2693.38,-96.62"/>
<text text-anchor="middle" x="2590.88" y="-83.12" font-family="Helvetica,sans-Serif" font-size="10.00">DoublesAmplitudesDecomposition.cxx</text>
</a>
</g>
</g>
<!-- Node7&#45;&gt;Node30 -->
<g id="edge33_Node000007_Node000030" class="edge">
<title>Node7&#45;&gt;Node30</title>
<g id="a_edge33_Node000007_Node000030"><a xlink:title=" ">
<path fill="none" stroke="#63b8ff" d="M3791.74,-148.21C3639.88,-147.3 3125,-141.39 2701.88,-103 2685.79,-101.54 2668.46,-99.37 2652.39,-97.11"/>
<polygon fill="#63b8ff" stroke="#63b8ff" points="3791.33,-151.71 3801.35,-148.26 3791.37,-144.71 3791.33,-151.71"/>
</a>
</g>
</g>
<!-- Node31 -->
<g id="Node000031" class="node">
<title>Node31</title>
<g id="a_Node000031"><a xlink:href="DoublesAmplitudesFromVertex_8cxx.html" target="_top" xlink:title=" ">
<polygon fill="white" stroke="#666666" points="2898.75,-96.62 2711,-96.62 2711,-75.88 2898.75,-75.88 2898.75,-96.62"/>
<text text-anchor="middle" x="2804.88" y="-83.12" font-family="Helvetica,sans-Serif" font-size="10.00">DoublesAmplitudesFromVertex.cxx</text>
</a>
</g>
</g>
<!-- Node7&#45;&gt;Node31 -->
<g id="edge34_Node000007_Node000031" class="edge">
<title>Node7&#45;&gt;Node31</title>
<g id="a_edge34_Node000007_Node000031"><a xlink:title=" ">
<path fill="none" stroke="#63b8ff" d="M3791.57,-147.82C3657.85,-145.82 3246.72,-137.1 2907.88,-103 2893.03,-101.51 2877.05,-99.34 2862.22,-97.09"/>
<polygon fill="#63b8ff" stroke="#63b8ff" points="3791.34,-151.32 3801.39,-147.97 3791.44,-144.32 3791.34,-151.32"/>
</a>
</g>
</g>
<!-- Node32 -->
<g id="Node000032" class="node">
<title>Node32</title>
<g id="a_Node000032"><a xlink:href="FcidumpReader_8cxx.html" target="_top" xlink:title=" ">
<polygon fill="white" stroke="#666666" points="3028.88,-96.62 2916.88,-96.62 2916.88,-75.88 3028.88,-75.88 3028.88,-96.62"/>
<text text-anchor="middle" x="2972.88" y="-83.12" font-family="Helvetica,sans-Serif" font-size="10.00">FcidumpReader.cxx</text>
</a>
</g>
</g>
<!-- Node7&#45;&gt;Node32 -->
<g id="edge35_Node000007_Node000032" class="edge">
<title>Node7&#45;&gt;Node32</title>
<g id="a_edge35_Node000007_Node000032"><a xlink:title=" ">
<path fill="none" stroke="#63b8ff" d="M3791.62,-148.66C3670.36,-148.82 3322.82,-145.27 3037.88,-103 3028.23,-101.57 3017.91,-99.38 3008.41,-97.09"/>
<polygon fill="#63b8ff" stroke="#63b8ff" points="3791.47,-152.16 3801.46,-148.63 3791.45,-145.16 3791.47,-152.16"/>
</a>
</g>
</g>
<!-- Node33 -->
<g id="Node000033" class="node">
<title>Node33</title>
<g id="a_Node000033"><a xlink:href="FcidumpWriter_8cxx.html" target="_top" xlink:title=" ">
<polygon fill="white" stroke="#666666" points="3154.62,-96.62 3047.12,-96.62 3047.12,-75.88 3154.62,-75.88 3154.62,-96.62"/>
<text text-anchor="middle" x="3100.88" y="-83.12" font-family="Helvetica,sans-Serif" font-size="10.00">FcidumpWriter.cxx</text>
</a>
</g>
</g>
<!-- Node7&#45;&gt;Node33 -->
<g id="edge36_Node000007_Node000033" class="edge">
<title>Node7&#45;&gt;Node33</title>
<g id="a_edge36_Node000007_Node000033"><a xlink:title=" ">
<path fill="none" stroke="#63b8ff" d="M3791.37,-148.09C3683.22,-146.81 3398.24,-139.91 3163.88,-103 3154.63,-101.54 3144.76,-99.38 3135.64,-97.11"/>
<polygon fill="#63b8ff" stroke="#63b8ff" points="3791.23,-151.59 3801.27,-148.2 3791.3,-144.59 3791.23,-151.59"/>
</a>
</g>
</g>
<!-- Node34 -->
<g id="Node000034" class="node">
<title>Node34</title>
<g id="a_Node000034"><a xlink:href="FiniteSizeCorrection_8cxx.html" target="_top" xlink:title=" ">
<polygon fill="white" stroke="#666666" points="3306.75,-96.62 3173,-96.62 3173,-75.88 3306.75,-75.88 3306.75,-96.62"/>
<text text-anchor="middle" x="3239.88" y="-83.12" font-family="Helvetica,sans-Serif" font-size="10.00">FiniteSizeCorrection.cxx</text>
</a>
</g>
</g>
<!-- Node7&#45;&gt;Node34 -->
<g id="edge37_Node000007_Node000034" class="edge">
<title>Node7&#45;&gt;Node34</title>
<g id="a_edge37_Node000007_Node000034"><a xlink:title=" ">
<path fill="none" stroke="#63b8ff" d="M3791.48,-146.26C3701.41,-141.58 3490.92,-128.69 3315.88,-103 3305.08,-101.42 3293.5,-99.26 3282.72,-97.05"/>
<polygon fill="#63b8ff" stroke="#63b8ff" points="3791.19,-149.75 3801.35,-146.76 3791.55,-142.76 3791.19,-149.75"/>
</a>
</g>
</g>
<!-- Node35 -->
<g id="Node000035" class="node">
<title>Node35</title>
<g id="a_Node000035"><a xlink:href="FockMatrixFromCoulombIntegrals_8cxx.html" target="_top" xlink:title=" ">
<polygon fill="white" stroke="#666666" points="3526.5,-96.62 3325.25,-96.62 3325.25,-75.88 3526.5,-75.88 3526.5,-96.62"/>
<text text-anchor="middle" x="3425.88" y="-83.12" font-family="Helvetica,sans-Serif" font-size="10.00">FockMatrixFromCoulombIntegrals.cxx</text>
</a>
</g>
</g>
<!-- Node7&#45;&gt;Node35 -->
<g id="edge38_Node000007_Node000035" class="edge">
<title>Node7&#45;&gt;Node35</title>
<g id="a_edge38_Node000007_Node000035"><a xlink:title=" ">
<path fill="none" stroke="#63b8ff" d="M3791.29,-141.73C3719.09,-130.96 3576.21,-109.66 3492.1,-97.12"/>
<polygon fill="#63b8ff" stroke="#63b8ff" points="3790.77,-145.19 3801.17,-143.2 3791.8,-138.27 3790.77,-145.19"/>
</a>
</g>
</g>
<!-- Node36 -->
<g id="Node000036" class="node">
<title>Node36</title>
<g id="a_Node000036"><a xlink:href="FockVector_8hpp.html" target="_top" xlink:title=" ">
<polygon fill="#fff0f0" stroke="red" points="1929.62,-96.62 1840.12,-96.62 1840.12,-75.88 1929.62,-75.88 1929.62,-96.62"/>
<text text-anchor="middle" x="1884.88" y="-83.12" font-family="Helvetica,sans-Serif" font-size="10.00">FockVector.hpp</text>
</a>
</g>
</g>
<!-- Node7&#45;&gt;Node36 -->
<g id="edge39_Node000007_Node000036" class="edge">
<title>Node7&#45;&gt;Node36</title>
<g id="a_edge39_Node000007_Node000036"><a xlink:title=" ">
<path fill="none" stroke="#63b8ff" d="M3791.57,-148.02C3523.76,-145.77 2126.15,-132.69 1937.88,-103 1929.63,-101.7 1920.86,-99.46 1912.89,-97.08"/>
<polygon fill="#63b8ff" stroke="#63b8ff" points="3791.22,-151.52 3801.25,-148.1 3791.28,-144.52 3791.22,-151.52"/>
</a>
</g>
</g>
<!-- Node76 -->
<g id="Node000076" class="node">
<title>Node76</title>
<g id="a_Node000076"><a xlink:href="GenerateRandomComplexMatrix_8cxx.html" target="_top" xlink:title=" ">
<polygon fill="white" stroke="#666666" points="3741.25,-96.62 3544.5,-96.62 3544.5,-75.88 3741.25,-75.88 3741.25,-96.62"/>
<text text-anchor="middle" x="3642.88" y="-83.12" font-family="Helvetica,sans-Serif" font-size="10.00">GenerateRandomComplexMatrix.cxx</text>
</a>
</g>
</g>
<!-- Node7&#45;&gt;Node76 -->
<g id="edge43_Node000007_Node000076" class="edge">
<title>Node7&#45;&gt;Node76</title>
<g id="a_edge43_Node000007_Node000076"><a xlink:title=" ">
<path fill="none" stroke="#63b8ff" d="M3794.17,-135.17C3757.98,-123.7 3706.42,-107.37 3673.81,-97.05"/>
<polygon fill="#63b8ff" stroke="#63b8ff" points="3792.83,-138.41 3803.42,-138.1 3794.95,-131.74 3792.83,-138.41"/>
</a>
</g>
</g>
<!-- Node77 -->
<g id="Node000077" class="node">
<title>Node77</title>
<g id="a_Node000077"><a xlink:href="GenerateRandomMatrix_8cxx.html" target="_top" xlink:title=" ">
<polygon fill="white" stroke="#666666" points="3912.5,-96.62 3759.25,-96.62 3759.25,-75.88 3912.5,-75.88 3912.5,-96.62"/>
<text text-anchor="middle" x="3835.88" y="-83.12" font-family="Helvetica,sans-Serif" font-size="10.00">GenerateRandomMatrix.cxx</text>
</a>
</g>
</g>
<!-- Node7&#45;&gt;Node77 -->
<g id="edge44_Node000007_Node000077" class="edge">
<title>Node7&#45;&gt;Node77</title>
<g id="a_edge44_Node000007_Node000077"><a xlink:title=" ">
<path fill="none" stroke="#63b8ff" d="M3835.88,-127.11C3835.88,-116.8 3835.88,-104.93 3835.88,-96.84"/>
<polygon fill="#63b8ff" stroke="#63b8ff" points="3832.38,-127.04 3835.88,-137.04 3839.38,-127.04 3832.38,-127.04"/>
</a>
</g>
</g>
<!-- Node78 -->
<g id="Node000078" class="node">
<title>Node78</title>
<g id="a_Node000078"><a xlink:href="GenerateRandomTensor_8cxx.html" target="_top" xlink:title=" ">
<polygon fill="white" stroke="#666666" points="4083.12,-96.62 3930.62,-96.62 3930.62,-75.88 4083.12,-75.88 4083.12,-96.62"/>
<text text-anchor="middle" x="4006.88" y="-83.12" font-family="Helvetica,sans-Serif" font-size="10.00">GenerateRandomTensor.cxx</text>
</a>
</g>
</g>
<!-- Node7&#45;&gt;Node78 -->
<g id="edge45_Node000007_Node000078" class="edge">
<title>Node7&#45;&gt;Node78</title>
<g id="a_edge45_Node000007_Node000078"><a xlink:title=" ">
<path fill="none" stroke="#63b8ff" d="M3874.08,-134.72C3906.07,-123.28 3950.95,-107.24 3979.47,-97.05"/>
<polygon fill="#63b8ff" stroke="#63b8ff" points="3873.01,-131.38 3864.77,-138.04 3875.37,-137.97 3873.01,-131.38"/>
</a>
</g>
</g>
<!-- Node79 -->
<g id="Node000079" class="node">
<title>Node79</title>
<g id="a_Node000079"><a xlink:href="HartreeFockFromCoulombIntegrals_8cxx.html" target="_top" xlink:title=" ">
<polygon fill="white" stroke="#666666" points="4308.12,-96.62 4101.62,-96.62 4101.62,-75.88 4308.12,-75.88 4308.12,-96.62"/>
<text text-anchor="middle" x="4204.88" y="-83.12" font-family="Helvetica,sans-Serif" font-size="10.00">HartreeFockFromCoulombIntegrals.cxx</text>
</a>
</g>
</g>
<!-- Node7&#45;&gt;Node79 -->
<g id="edge46_Node000007_Node000079" class="edge">
<title>Node7&#45;&gt;Node79</title>
<g id="a_edge46_Node000007_Node000079"><a xlink:title=" ">
<path fill="none" stroke="#63b8ff" d="M3879.96,-138.7C3973.68,-121.04 4070.64,-106.31 4134.49,-97.09"/>
<polygon fill="#63b8ff" stroke="#63b8ff" points="3879.51,-135.22 3870.34,-140.53 3880.81,-142.1 3879.51,-135.22"/>
</a>
</g>
</g>
<!-- Node80 -->
<g id="Node000080" class="node">
<title>Node80</title>
<g id="a_Node000080"><a xlink:href="HartreeFockFromGaussian_8cxx.html" target="_top" xlink:title=" ">
<polygon fill="white" stroke="#666666" points="4491.5,-96.62 4326.25,-96.62 4326.25,-75.88 4491.5,-75.88 4491.5,-96.62"/>
<text text-anchor="middle" x="4408.88" y="-83.12" font-family="Helvetica,sans-Serif" font-size="10.00">HartreeFockFromGaussian.cxx</text>
</a>
</g>
</g>
<!-- Node7&#45;&gt;Node80 -->
<g id="edge47_Node000007_Node000080" class="edge">
<title>Node7&#45;&gt;Node80</title>
<g id="a_edge47_Node000007_Node000080"><a xlink:title=" ">
<path fill="none" stroke="#63b8ff" d="M3879.93,-138.9C4073.37,-110.26 4126.26,-127.09 4316.88,-103 4329.58,-101.4 4343.2,-99.28 4355.97,-97.12"/>
<polygon fill="#63b8ff" stroke="#63b8ff" points="3879.67,-135.4 3870.31,-140.35 3880.72,-142.32 3879.67,-135.4"/>
</a>
</g>
</g>
<!-- Node65 -->
<g id="Node000065" class="node">
<title>Node65</title>
<g id="a_Node000065"><a xlink:href="LinearMixer_8cxx.html" target="_top" xlink:title=" ">
<polygon fill="white" stroke="#666666" points="4602.12,-96.62 4509.62,-96.62 4509.62,-75.88 4602.12,-75.88 4602.12,-96.62"/>
<text text-anchor="middle" x="4555.88" y="-83.12" font-family="Helvetica,sans-Serif" font-size="10.00">LinearMixer.cxx</text>
</a>
</g>
</g>
<!-- Node7&#45;&gt;Node65 -->
<g id="edge48_Node000007_Node000065" class="edge">
<title>Node7&#45;&gt;Node65</title>
<g id="a_edge48_Node000007_Node000065"><a xlink:title=" ">
<path fill="none" stroke="#63b8ff" d="M3879.91,-138.97C4154.57,-101.93 4231.05,-148.85 4500.88,-103 4509.2,-101.59 4518.06,-99.37 4526.18,-97.05"/>
<polygon fill="#63b8ff" stroke="#63b8ff" points="3879.73,-135.46 3870.3,-140.29 3880.68,-142.39 3879.73,-135.46"/>
</a>
</g>
</g>
<!-- Node81 -->
<g id="Node000081" class="node">
<title>Node81</title>
<g id="a_Node000081"><a xlink:href="MeanCorrelationHoleDepth_8cxx.html" target="_top" xlink:title=" ">
<polygon fill="white" stroke="#666666" points="4789.38,-96.62 4620.38,-96.62 4620.38,-75.88 4789.38,-75.88 4789.38,-96.62"/>
<text text-anchor="middle" x="4704.88" y="-83.12" font-family="Helvetica,sans-Serif" font-size="10.00">MeanCorrelationHoleDepth.cxx</text>
</a>
</g>
</g>
<!-- Node7&#45;&gt;Node81 -->
<g id="edge49_Node000007_Node000081" class="edge">
<title>Node7&#45;&gt;Node81</title>
<g id="a_edge49_Node000007_Node000081"><a xlink:title=" ">
<path fill="none" stroke="#63b8ff" d="M3879.9,-138.98C4203.06,-96.26 4290.23,-137.62 4610.88,-103 4624.53,-101.53 4639.21,-99.35 4652.82,-97.09"/>
<polygon fill="#63b8ff" stroke="#63b8ff" points="3879.74,-135.47 3870.29,-140.27 3880.67,-142.41 3879.74,-135.47"/>
</a>
</g>
</g>
<!-- Node82 -->
<g id="Node000082" class="node">
<title>Node82</title>
<g id="a_Node000082"><a xlink:href="MoReader_8cxx.html" target="_top" xlink:title=" ">
<polygon fill="white" stroke="#666666" points="4892.38,-96.62 4807.38,-96.62 4807.38,-75.88 4892.38,-75.88 4892.38,-96.62"/>
<text text-anchor="middle" x="4849.88" y="-83.12" font-family="Helvetica,sans-Serif" font-size="10.00">MoReader.cxx</text>
</a>
</g>
</g>
<!-- Node7&#45;&gt;Node82 -->
<g id="edge50_Node000007_Node000082" class="edge">
<title>Node7&#45;&gt;Node82</title>
<g id="a_edge50_Node000007_Node000082"><a xlink:title=" ">
<path fill="none" stroke="#63b8ff" d="M3879.96,-139C4285.68,-87.73 4397.98,-170.25 4797.88,-103 4805.87,-101.65 4814.37,-99.44 4822.12,-97.08"/>
<polygon fill="#63b8ff" stroke="#63b8ff" points="3879.76,-135.5 3870.29,-140.25 3880.66,-142.44 3879.76,-135.5"/>
</a>
</g>
</g>
<!-- Node83 -->
<g id="Node000083" class="node">
<title>Node83</title>
<g id="a_Node000083"><a xlink:href="Mp2NaturalOrbitals_8cxx.html" target="_top" xlink:title=" ">
<polygon fill="white" stroke="#666666" points="5041.62,-96.62 4910.12,-96.62 4910.12,-75.88 5041.62,-75.88 5041.62,-96.62"/>
<text text-anchor="middle" x="4975.88" y="-83.12" font-family="Helvetica,sans-Serif" font-size="10.00">Mp2NaturalOrbitals.cxx</text>
</a>
</g>
</g>
<!-- Node7&#45;&gt;Node83 -->
<g id="edge51_Node000007_Node000083" class="edge">
<title>Node7&#45;&gt;Node83</title>
<g id="a_edge51_Node000007_Node000083"><a xlink:title=" ">
<path fill="none" stroke="#63b8ff" d="M3880.18,-138.98C4331.15,-82.46 4453.01,-157.5 4900.88,-103 4912.1,-101.63 4924.14,-99.44 4935.22,-97.12"/>
<polygon fill="#63b8ff" stroke="#63b8ff" points="3879.77,-135.5 3870.29,-140.24 3880.65,-142.45 3879.77,-135.5"/>
</a>
</g>
</g>
<!-- Node84 -->
<g id="Node000084" class="node">
<title>Node84</title>
<g id="a_Node000084"><a xlink:href="NuclearRepulsionEnergy_8cxx.html" target="_top" xlink:title=" ">
<polygon fill="white" stroke="#666666" points="5213.88,-96.62 5059.88,-96.62 5059.88,-75.88 5213.88,-75.88 5213.88,-96.62"/>
<text text-anchor="middle" x="5136.88" y="-83.12" font-family="Helvetica,sans-Serif" font-size="10.00">NuclearRepulsionEnergy.cxx</text>
</a>
</g>
</g>
<!-- Node7&#45;&gt;Node84 -->
<g id="edge52_Node000007_Node000084" class="edge">
<title>Node7&#45;&gt;Node84</title>
<g id="a_edge52_Node000007_Node000084"><a xlink:title=" ">
<path fill="none" stroke="#63b8ff" d="M3879.91,-139.02C4397.33,-75.08 4535.89,-157.75 5050.88,-103 5063.7,-101.64 5077.5,-99.44 5090.2,-97.12"/>
<polygon fill="#63b8ff" stroke="#63b8ff" points="3879.78,-135.51 3870.29,-140.22 3880.65,-142.46 3879.78,-135.51"/>
</a>
</g>
</g>
<!-- Node85 -->
<g id="Node000085" class="node">
<title>Node85</title>
<g id="a_Node000085"><a xlink:href="OneBodyFromGaussian_8cxx.html" target="_top" xlink:title=" ">
<polygon fill="white" stroke="#666666" points="5382,-96.62 5231.75,-96.62 5231.75,-75.88 5382,-75.88 5382,-96.62"/>
<text text-anchor="middle" x="5306.88" y="-83.12" font-family="Helvetica,sans-Serif" font-size="10.00">OneBodyFromGaussian.cxx</text>
</a>
</g>
</g>
<!-- Node7&#45;&gt;Node85 -->
<g id="edge53_Node000007_Node000085" class="edge">
<title>Node7&#45;&gt;Node85</title>
<g id="a_edge53_Node000007_Node000085"><a xlink:title=" ">
<path fill="none" stroke="#63b8ff" d="M3880.21,-138.99C4473.34,-66.79 4632.02,-165.9 5222.88,-103 5235.56,-101.65 5249.21,-99.43 5261.73,-97.07"/>
<polygon fill="#63b8ff" stroke="#63b8ff" points="3879.79,-135.52 3870.29,-140.21 3880.64,-142.47 3879.79,-135.52"/>
</a>
</g>
</g>
<!-- Node86 -->
<g id="Node000086" class="node">
<title>Node86</title>
<g id="a_Node000086"><a xlink:href="OneBodyRotation_8cxx.html" target="_top" xlink:title=" ">
<polygon fill="white" stroke="#666666" points="5521.75,-96.62 5400,-96.62 5400,-75.88 5521.75,-75.88 5521.75,-96.62"/>
<text text-anchor="middle" x="5460.88" y="-83.12" font-family="Helvetica,sans-Serif" font-size="10.00">OneBodyRotation.cxx</text>
</a>
</g>
</g>
<!-- Node7&#45;&gt;Node86 -->
<g id="edge54_Node000007_Node000086" class="edge">
<title>Node7&#45;&gt;Node86</title>
<g id="a_edge54_Node000007_Node000086"><a xlink:title=" ">
<path fill="none" stroke="#63b8ff" d="M3880.14,-139.01C4547.55,-58.77 4727.03,-184.76 5390.88,-103 5401.63,-101.68 5413.16,-99.43 5423.7,-97.05"/>
<polygon fill="#63b8ff" stroke="#63b8ff" points="3879.79,-135.53 3870.29,-140.21 3880.64,-142.48 3879.79,-135.53"/>
</a>
</g>
</g>
<!-- Node87 -->
<g id="Node000087" class="node">
<title>Node87</title>
<g id="a_Node000087"><a xlink:href="PQRSCoulombIntegralsToVertex_8cxx.html" target="_top" xlink:title=" ">
<polygon fill="white" stroke="#666666" points="5730.25,-96.62 5539.5,-96.62 5539.5,-75.88 5730.25,-75.88 5730.25,-96.62"/>
<text text-anchor="middle" x="5634.88" y="-83.12" font-family="Helvetica,sans-Serif" font-size="10.00">PQRSCoulombIntegralsToVertex.cxx</text>
</a>
</g>
</g>
<!-- Node7&#45;&gt;Node87 -->
<g id="edge55_Node000007_Node000087" class="edge">
<title>Node7&#45;&gt;Node87</title>
<g id="a_edge55_Node000007_Node000087"><a xlink:title=" ">
<path fill="none" stroke="#63b8ff" d="M3880.1,-139.02C4609.35,-51.7 4802.51,-165.82 5530.88,-103 5546.43,-101.66 5563.2,-99.46 5578.63,-97.12"/>
<polygon fill="#63b8ff" stroke="#63b8ff" points="3879.79,-135.53 3870.29,-140.2 3880.63,-142.48 3879.79,-135.53"/>
</a>
</g>
</g>
<!-- Node88 -->
<g id="Node000088" class="node">
<title>Node88</title>
<g id="a_Node000088"><a xlink:href="ParenthesisTriples_8cxx.html" target="_top" xlink:title=" ">
<polygon fill="white" stroke="#666666" points="5871.88,-96.62 5747.88,-96.62 5747.88,-75.88 5871.88,-75.88 5871.88,-96.62"/>
<text text-anchor="middle" x="5809.88" y="-83.12" font-family="Helvetica,sans-Serif" font-size="10.00">ParenthesisTriples.cxx</text>
</a>
</g>
</g>
<!-- Node7&#45;&gt;Node88 -->
<g id="edge56_Node000007_Node000088" class="edge">
<title>Node7&#45;&gt;Node88</title>
<g id="a_edge56_Node000007_Node000088"><a xlink:title=" ">
<path fill="none" stroke="#63b8ff" d="M3880,-139.04C4701.23,-41.84 4921.15,-200.62 5738.88,-103 5749.78,-101.7 5761.48,-99.46 5772.16,-97.08"/>
<polygon fill="#63b8ff" stroke="#63b8ff" points="3879.8,-135.54 3870.29,-140.2 3880.63,-142.49 3879.8,-135.54"/>
</a>
</g>
</g>
<!-- Node27&#45;&gt;Node24 -->
<g id="edge30_Node000027_Node000024" class="edge">
<title>Node27&#45;&gt;Node24</title>
<g id="a_edge30_Node000027_Node000024"><a xlink:title=" ">
<path fill="none" stroke="#63b8ff" d="M7247.34,-68.97C7264.35,-56.07 7287.55,-38.47 7301.86,-27.62"/>
<polygon fill="#63b8ff" stroke="#63b8ff" points="7245.69,-65.83 7239.83,-74.66 7249.92,-71.41 7245.69,-65.83"/>
</a>
</g>
</g>
<!-- Node27&#45;&gt;Node28 -->
<g id="edge31_Node000027_Node000028" class="edge">
<title>Node27&#45;&gt;Node28</title>
<g id="a_edge31_Node000027_Node000028"><a xlink:title=" ">
<path fill="none" stroke="#63b8ff" d="M7203.96,-68.81C7189.82,-58.21 7171.5,-44.47 7157.43,-33.92"/>
<polygon fill="#63b8ff" stroke="#63b8ff" points="7201.67,-71.47 7211.77,-74.67 7205.87,-65.87 7201.67,-71.47"/>
</a>
</g>
</g>
<!-- Node36&#45;&gt;Node14 -->
<g id="edge40_Node000036_Node000014" class="edge">
<title>Node36&#45;&gt;Node14</title>
<g id="a_edge40_Node000036_Node000014"><a xlink:title=" ">
<path fill="none" stroke="#63b8ff" d="M1898.87,-66.72C1908.49,-54 1920.86,-37.62 1928.58,-27.4"/>
<polygon fill="#63b8ff" stroke="#63b8ff" points="1896.33,-64.28 1893.09,-74.37 1901.92,-68.5 1896.33,-64.28"/>
</a>
</g>
</g>
<!-- Node36&#45;&gt;Node17 -->
<g id="edge41_Node000036_Node000017" class="edge">
<title>Node36&#45;&gt;Node17</title>
<g id="a_edge41_Node000036_Node000017"><a xlink:title=" ">
<path fill="none" stroke="#63b8ff" d="M1923.69,-72.42C1928.43,-71.24 1933.23,-70.22 1937.88,-69.5 2198.55,-28.97 4128.07,-19.47 4508.02,-17.98"/>
<polygon fill="#63b8ff" stroke="#63b8ff" points="1923.06,-68.97 1914.34,-75 1924.91,-75.72 1923.06,-68.97"/>
</a>
</g>
</g>
<!-- Node36&#45;&gt;Node19 -->
<g id="edge42_Node000036_Node000019" class="edge">
<title>Node36&#45;&gt;Node19</title>
<g id="a_edge42_Node000036_Node000019"><a xlink:title=" ">
<path fill="none" stroke="#63b8ff" d="M1850.9,-71.09C1819.59,-58.05 1773.95,-39.03 1746.46,-27.58"/>
<polygon fill="#63b8ff" stroke="#63b8ff" points="1849.34,-74.24 1859.92,-74.85 1852.04,-67.78 1849.34,-74.24"/>
</a>
</g>
</g>
</g>
</svg>
