<?xml version="1.0" encoding="UTF-8" standalone="no"?>
<!DOCTYPE svg PUBLIC "-//W3C//DTD SVG 1.1//EN"
 "http://www.w3.org/Graphics/SVG/1.1/DTD/svg11.dtd">
<!-- Generated by graphviz version 5.0.1 (0)
 -->
<!-- Title: permuteMoveTwo Pages: 1 -->
<svg width="482pt" height="38pt"
 viewBox="0.00 0.00 482.00 38.00" xmlns="http://www.w3.org/2000/svg" xmlns:xlink="http://www.w3.org/1999/xlink">
<g id="graph0" class="graph" transform="scale(1 1) rotate(0) translate(4 34)">
<title>permuteMoveTwo</title>
<!-- Node1 -->
<g id="node1" class="node">
<title>Node1</title>
<g id="a_node1"><a xlink:title=" ">
<polygon fill="#999999" stroke="#666666" points="474,-24.5 370,-24.5 370,-5.5 474,-5.5 474,-24.5"/>
<text text-anchor="middle" x="422" y="-12.5" font-family="Helvetica,sans-Serif" font-size="10.00">permuteMoveTwo</text>
</a>
</g>
</g>
<!-- Node2 -->
<g id="node2" class="node">
<title>Node2</title>
<g id="a_node2"><a xlink:href="classsisi4s_1_1ParenthesisTriples.html#a04ca6faf70e57b3cd25336597f20a261" target="_top" xlink:title=" ">
<polygon fill="white" stroke="#666666" points="334,-30 196,-30 196,0 334,0 334,-30"/>
<text text-anchor="start" x="204" y="-18" font-family="Helvetica,sans-Serif" font-size="10.00">sisi4s::ParenthesisTriples</text>
<text text-anchor="middle" x="265" y="-7" font-family="Helvetica,sans-Serif" font-size="10.00">::doublesContribution</text>
</a>
</g>
</g>
<!-- Node1&#45;&gt;Node2 -->
<g id="edge1" class="edge">
<title>Node1&#45;&gt;Node2</title>
<path fill="none" stroke="#63b8ff" d="M359.77,-15C351.39,-15 342.76,-15 334.27,-15"/>
<polygon fill="#63b8ff" stroke="#63b8ff" points="359.82,-18.5 369.82,-15 359.82,-11.5 359.82,-18.5"/>
</g>
<!-- Node3 -->
<g id="node3" class="node">
<title>Node3</title>
<g id="a_node3"><a xlink:href="classsisi4s_1_1ParenthesisTriples.html#a13c648b58b994e20cb35843b25b23312" target="_top" xlink:title="Calculates perturbative triples correction, third attemp.">
<polygon fill="white" stroke="#666666" points="160,-24.5 0,-24.5 0,-5.5 160,-5.5 160,-24.5"/>
<text text-anchor="middle" x="80" y="-12.5" font-family="Helvetica,sans-Serif" font-size="10.00">sisi4s::ParenthesisTriples::run</text>
</a>
</g>
</g>
<!-- Node2&#45;&gt;Node3 -->
<g id="edge2" class="edge">
<title>Node2&#45;&gt;Node3</title>
<path fill="none" stroke="#63b8ff" d="M185.7,-15C177.29,-15 168.73,-15 160.31,-15"/>
<polygon fill="#63b8ff" stroke="#63b8ff" points="185.86,-18.5 195.86,-15 185.86,-11.5 185.86,-18.5"/>
</g>
</g>
</svg>
