<?xml version="1.0" encoding="UTF-8" standalone="no"?>
<!DOCTYPE svg PUBLIC "-//W3C//DTD SVG 1.1//EN"
 "http://www.w3.org/Graphics/SVG/1.1/DTD/svg11.dtd">
<!-- Generated by graphviz version 7.1.0 (0)
 -->
<!-- Title: Parsing.hpp Pages: 1 -->
<svg width="674pt" height="137pt"
 viewBox="0.00 0.00 674.00 137.00" xmlns="http://www.w3.org/2000/svg" xmlns:xlink="http://www.w3.org/1999/xlink">
<g id="graph0" class="graph" transform="scale(1 1) rotate(0) translate(4 133)">
<title>Parsing.hpp</title>
<!-- Node1 -->
<g id="node1" class="node">
<title>Node1</title>
<g id="a_node1"><a xlink:title=" ">
<polygon fill="#999999" stroke="#666666" points="333,-129 260,-129 260,-110 333,-110 333,-129"/>
<text text-anchor="middle" x="296.5" y="-117" font-family="Helvetica,sans-Serif" font-size="10.00">Parsing.hpp</text>
</a>
</g>
</g>
<!-- Node2 -->
<g id="node2" class="node">
<title>Node2</title>
<g id="a_node2"><a xlink:href="BasisParser_8hpp.html" target="_top" xlink:title=" ">
<polygon fill="white" stroke="#666666" points="93,-74 0,-74 0,-55 93,-55 93,-74"/>
<text text-anchor="middle" x="46.5" y="-62" font-family="Helvetica,sans-Serif" font-size="10.00">BasisParser.hpp</text>
</a>
</g>
</g>
<!-- Node1&#45;&gt;Node2 -->
<g id="edge1" class="edge">
<title>Node1&#45;&gt;Node2</title>
<path fill="none" stroke="#63b8ff" d="M248.36,-108.29C202.04,-98.48 132.71,-83.78 88.56,-74.42"/>
<polygon fill="#63b8ff" stroke="#63b8ff" points="247.62,-111.72 258.13,-110.37 249.07,-104.87 247.62,-111.72"/>
</g>
<!-- Node4 -->
<g id="node4" class="node">
<title>Node4</title>
<g id="a_node4"><a xlink:href="MoReader_8cxx.html" target="_top" xlink:title=" ">
<polygon fill="white" stroke="#666666" points="235.5,-19 149.5,-19 149.5,0 235.5,0 235.5,-19"/>
<text text-anchor="middle" x="192.5" y="-7" font-family="Helvetica,sans-Serif" font-size="10.00">MoReader.cxx</text>
</a>
</g>
</g>
<!-- Node1&#45;&gt;Node4 -->
<g id="edge4" class="edge">
<title>Node1&#45;&gt;Node4</title>
<path fill="none" stroke="#63b8ff" d="M275.6,-102.53C265.49,-94.42 253.43,-84.15 243.5,-74 225.7,-55.81 207.72,-31.81 198.61,-19.16"/>
<polygon fill="#63b8ff" stroke="#63b8ff" points="273.34,-105.2 283.37,-108.63 277.67,-99.7 273.34,-105.2"/>
</g>
<!-- Node5 -->
<g id="node5" class="node">
<title>Node5</title>
<g id="a_node5"><a xlink:href="MosParser_8hpp.html" target="_top" xlink:title=" ">
<polygon fill="white" stroke="#666666" points="340,-74 253,-74 253,-55 340,-55 340,-74"/>
<text text-anchor="middle" x="296.5" y="-62" font-family="Helvetica,sans-Serif" font-size="10.00">MosParser.hpp</text>
</a>
</g>
</g>
<!-- Node1&#45;&gt;Node5 -->
<g id="edge5" class="edge">
<title>Node1&#45;&gt;Node5</title>
<path fill="none" stroke="#63b8ff" d="M296.5,-98.35C296.5,-90.1 296.5,-80.97 296.5,-74.44"/>
<polygon fill="#63b8ff" stroke="#63b8ff" points="293,-98.23 296.5,-108.23 300,-98.23 293,-98.23"/>
</g>
<!-- Node7 -->
<g id="node7" class="node">
<title>Node7</title>
<g id="a_node7"><a xlink:href="MovecsParser_8hpp.html" target="_top" xlink:title=" ">
<polygon fill="white" stroke="#666666" points="462.5,-74 358.5,-74 358.5,-55 462.5,-55 462.5,-74"/>
<text text-anchor="middle" x="410.5" y="-62" font-family="Helvetica,sans-Serif" font-size="10.00">MovecsParser.hpp</text>
</a>
</g>
</g>
<!-- Node1&#45;&gt;Node7 -->
<g id="edge8" class="edge">
<title>Node1&#45;&gt;Node7</title>
<path fill="none" stroke="#63b8ff" d="M326.26,-104.67C346.86,-95.09 373.67,-82.62 391.45,-74.36"/>
<polygon fill="#63b8ff" stroke="#63b8ff" points="324.8,-101.48 317.21,-108.87 327.75,-107.83 324.8,-101.48"/>
</g>
<!-- Node9 -->
<g id="node9" class="node">
<title>Node9</title>
<g id="a_node9"><a xlink:href="Parsing_8cxx.html" target="_top" xlink:title=" ">
<polygon fill="white" stroke="#666666" points="552.5,-74 480.5,-74 480.5,-55 552.5,-55 552.5,-74"/>
<text text-anchor="middle" x="516.5" y="-62" font-family="Helvetica,sans-Serif" font-size="10.00">Parsing.cxx</text>
</a>
</g>
</g>
<!-- Node1&#45;&gt;Node9 -->
<g id="edge11" class="edge">
<title>Node1&#45;&gt;Node9</title>
<path fill="none" stroke="#63b8ff" d="M344.37,-106.97C385.25,-97.12 443.17,-83.17 480.29,-74.22"/>
<polygon fill="#63b8ff" stroke="#63b8ff" points="343.7,-103.53 334.79,-109.27 345.34,-110.33 343.7,-103.53"/>
</g>
<!-- Node10 -->
<g id="node10" class="node">
<title>Node10</title>
<g id="a_node10"><a xlink:href="TensorSlicer_8cxx.html" target="_top" xlink:title=" ">
<polygon fill="white" stroke="#666666" points="666,-74 571,-74 571,-55 666,-55 666,-74"/>
<text text-anchor="middle" x="618.5" y="-62" font-family="Helvetica,sans-Serif" font-size="10.00">TensorSlicer.cxx</text>
</a>
</g>
</g>
<!-- Node1&#45;&gt;Node10 -->
<g id="edge12" class="edge">
<title>Node1&#45;&gt;Node10</title>
<path fill="none" stroke="#63b8ff" d="M344.65,-110.58C405.53,-100.55 509.72,-83.4 570.52,-73.4"/>
<polygon fill="#63b8ff" stroke="#63b8ff" points="344.23,-107.1 334.93,-112.17 345.37,-114 344.23,-107.1"/>
</g>
<!-- Node11 -->
<g id="node11" class="node">
<title>Node11</title>
<g id="a_node11"><a xlink:href="XyzParser_8hpp.html" target="_top" xlink:title=" ">
<polygon fill="white" stroke="#666666" points="196,-74 111,-74 111,-55 196,-55 196,-74"/>
<text text-anchor="middle" x="153.5" y="-62" font-family="Helvetica,sans-Serif" font-size="10.00">XyzParser.hpp</text>
</a>
</g>
</g>
<!-- Node1&#45;&gt;Node11 -->
<g id="edge13" class="edge">
<title>Node1&#45;&gt;Node11</title>
<path fill="none" stroke="#63b8ff" d="M261.65,-105.58C235.51,-95.9 200.42,-82.89 177.4,-74.36"/>
<polygon fill="#63b8ff" stroke="#63b8ff" points="260.23,-108.79 270.82,-108.98 262.66,-102.23 260.23,-108.79"/>
</g>
<!-- Node3 -->
<g id="node3" class="node">
<title>Node3</title>
<g id="a_node3"><a xlink:href="BasisParser_8cxx.html" target="_top" xlink:title=" ">
<polygon fill="white" stroke="#666666" points="92.5,-19 0.5,-19 0.5,0 92.5,0 92.5,-19"/>
<text text-anchor="middle" x="46.5" y="-7" font-family="Helvetica,sans-Serif" font-size="10.00">BasisParser.cxx</text>
</a>
</g>
</g>
<!-- Node2&#45;&gt;Node3 -->
<g id="edge2" class="edge">
<title>Node2&#45;&gt;Node3</title>
<path fill="none" stroke="#63b8ff" d="M46.5,-43.35C46.5,-35.1 46.5,-25.97 46.5,-19.44"/>
<polygon fill="#63b8ff" stroke="#63b8ff" points="43,-43.23 46.5,-53.23 50,-43.23 43,-43.23"/>
</g>
<!-- Node2&#45;&gt;Node4 -->
<g id="edge3" class="edge">
<title>Node2&#45;&gt;Node4</title>
<path fill="none" stroke="#63b8ff" d="M82.08,-50.58C108.76,-40.9 144.59,-27.89 168.1,-19.36"/>
<polygon fill="#63b8ff" stroke="#63b8ff" points="80.9,-47.29 72.69,-53.99 83.28,-53.87 80.9,-47.29"/>
</g>
<!-- Node5&#45;&gt;Node4 -->
<g id="edge6" class="edge">
<title>Node5&#45;&gt;Node4</title>
<path fill="none" stroke="#63b8ff" d="M268.83,-49.4C250.11,-39.86 225.95,-27.55 209.88,-19.36"/>
<polygon fill="#63b8ff" stroke="#63b8ff" points="267.01,-52.4 277.51,-53.82 270.19,-46.16 267.01,-52.4"/>
</g>
<!-- Node6 -->
<g id="node6" class="node">
<title>Node6</title>
<g id="a_node6"><a xlink:href="MosParser_8cxx.html" target="_top" xlink:title=" ">
<polygon fill="white" stroke="#666666" points="339.5,-19 253.5,-19 253.5,0 339.5,0 339.5,-19"/>
<text text-anchor="middle" x="296.5" y="-7" font-family="Helvetica,sans-Serif" font-size="10.00">MosParser.cxx</text>
</a>
</g>
</g>
<!-- Node5&#45;&gt;Node6 -->
<g id="edge7" class="edge">
<title>Node5&#45;&gt;Node6</title>
<path fill="none" stroke="#63b8ff" d="M296.5,-43.35C296.5,-35.1 296.5,-25.97 296.5,-19.44"/>
<polygon fill="#63b8ff" stroke="#63b8ff" points="293,-43.23 296.5,-53.23 300,-43.23 293,-43.23"/>
</g>
<!-- Node7&#45;&gt;Node4 -->
<g id="edge9" class="edge">
<title>Node7&#45;&gt;Node4</title>
<path fill="none" stroke="#63b8ff" d="M362.4,-51.81C322.27,-42.05 265.91,-28.35 229.3,-19.45"/>
<polygon fill="#63b8ff" stroke="#63b8ff" points="361.5,-55.19 372.05,-54.15 363.16,-48.39 361.5,-55.19"/>
</g>
<!-- Node8 -->
<g id="node8" class="node">
<title>Node8</title>
<g id="a_node8"><a xlink:href="MovecsParser_8cxx.html" target="_top" xlink:title=" ">
<polygon fill="white" stroke="#666666" points="462.5,-19 358.5,-19 358.5,0 462.5,0 462.5,-19"/>
<text text-anchor="middle" x="410.5" y="-7" font-family="Helvetica,sans-Serif" font-size="10.00">MovecsParser.cxx</text>
</a>
</g>
</g>
<!-- Node7&#45;&gt;Node8 -->
<g id="edge10" class="edge">
<title>Node7&#45;&gt;Node8</title>
<path fill="none" stroke="#63b8ff" d="M410.5,-43.35C410.5,-35.1 410.5,-25.97 410.5,-19.44"/>
<polygon fill="#63b8ff" stroke="#63b8ff" points="407,-43.23 410.5,-53.23 414,-43.23 407,-43.23"/>
</g>
<!-- Node11&#45;&gt;Node4 -->
<g id="edge14" class="edge">
<title>Node11&#45;&gt;Node4</title>
<path fill="none" stroke="#63b8ff" d="M166.64,-45.65C173.12,-36.84 180.66,-26.59 185.92,-19.44"/>
<polygon fill="#63b8ff" stroke="#63b8ff" points="163.94,-43.4 160.84,-53.53 169.58,-47.55 163.94,-43.4"/>
</g>
</g>
</svg>
