<?xml version="1.0" encoding="UTF-8" standalone="no"?>
<!DOCTYPE svg PUBLIC "-//W3C//DTD SVG 1.1//EN"
 "http://www.w3.org/Graphics/SVG/1.1/DTD/svg11.dtd">
<!-- Generated by graphviz version 9.0.0 (0)
 -->
<!-- Title: Parser.hpp Pages: 1 -->
<svg width="1029pt" height="313pt"
 viewBox="0.00 0.00 1028.62 312.50" xmlns="http://www.w3.org/2000/svg" xmlns:xlink="http://www.w3.org/1999/xlink">
<g id="graph0" class="graph" transform="scale(1 1) rotate(0) translate(4 308.5)">
<title>Parser.hpp</title>
<!-- Node1 -->
<g id="Node000001" class="node">
<title>Node1</title>
<g id="a_Node000001"><a xlink:title=" ">
<polygon fill="#999999" stroke="#666666" points="777.62,-304.5 711.38,-304.5 711.38,-283.75 777.62,-283.75 777.62,-304.5"/>
<text text-anchor="middle" x="744.5" y="-291" font-family="Helvetica,sans-Serif" font-size="10.00">Parser.hpp</text>
</a>
</g>
</g>
<!-- Node2 -->
<g id="Node000002" class="node">
<title>Node2</title>
<g id="a_Node000002"><a xlink:href="Data_8hpp.html" target="_top" xlink:title=" ">
<polygon fill="white" stroke="#666666" points="588.62,-191 528.38,-191 528.38,-170.25 588.62,-170.25 588.62,-191"/>
<text text-anchor="middle" x="558.5" y="-177.5" font-family="Helvetica,sans-Serif" font-size="10.00">Data.hpp</text>
</a>
</g>
</g>
<!-- Node1&#45;&gt;Node2 -->
<g id="edge1_Node000001_Node000002" class="edge">
<title>Node1&#45;&gt;Node2</title>
<g id="a_edge1_Node000001_Node000002"><a xlink:title=" ">
<path fill="none" stroke="#63b8ff" d="M712.2,-283.35C689.03,-275.57 657.61,-263.39 632.5,-247.75 610.7,-234.17 589.2,-213.99 575.04,-199.49"/>
<polygon fill="#63b8ff" stroke="#63b8ff" points="577.71,-197.23 568.28,-192.41 572.65,-202.06 577.71,-197.23"/>
</a>
</g>
</g>
<!-- Node11 -->
<g id="Node000011" class="node">
<title>Node11</title>
<g id="a_Node000011"><a xlink:title=" ">
<polygon fill="#e0e0e0" stroke="#999999" points="652.38,-77.5 608.62,-77.5 608.62,-56.75 652.38,-56.75 652.38,-77.5"/>
<text text-anchor="middle" x="630.5" y="-64" font-family="Helvetica,sans-Serif" font-size="10.00">string</text>
</a>
</g>
</g>
<!-- Node1&#45;&gt;Node11 -->
<g id="edge37_Node000001_Node000011" class="edge">
<title>Node1&#45;&gt;Node11</title>
<g id="a_edge37_Node000001_Node000011"><a xlink:title=" ">
<path fill="none" stroke="#63b8ff" d="M715.01,-283.29C697.96,-276.09 677.55,-264.6 665.5,-247.75 630.76,-199.19 628.16,-125.13 629.24,-89.18"/>
<polygon fill="#63b8ff" stroke="#63b8ff" points="632.73,-89.43 629.68,-79.28 625.74,-89.12 632.73,-89.43"/>
</a>
</g>
</g>
<!-- Node19 -->
<g id="Node000019" class="node">
<title>Node19</title>
<g id="a_Node000019"><a xlink:title=" ">
<polygon fill="#e0e0e0" stroke="#999999" points="901.88,-134.25 855.12,-134.25 855.12,-113.5 901.88,-113.5 901.88,-134.25"/>
<text text-anchor="middle" x="878.5" y="-120.75" font-family="Helvetica,sans-Serif" font-size="10.00">vector</text>
</a>
</g>
</g>
<!-- Node1&#45;&gt;Node19 -->
<g id="edge38_Node000001_Node000019" class="edge">
<title>Node1&#45;&gt;Node19</title>
<g id="a_edge38_Node000001_Node000019"><a xlink:title=" ">
<path fill="none" stroke="#63b8ff" d="M770.05,-283.41C787.05,-275.86 808.86,-263.94 823.5,-247.75 830.83,-239.64 856.81,-177.8 870.27,-145.06"/>
<polygon fill="#63b8ff" stroke="#63b8ff" points="873.48,-146.45 874.03,-135.87 867.01,-143.8 873.48,-146.45"/>
</a>
</g>
</g>
<!-- Node24 -->
<g id="Node000024" class="node">
<title>Node24</title>
<g id="a_Node000024"><a xlink:href="Algorithm_8hpp.html" target="_top" xlink:title=" ">
<polygon fill="white" stroke="#666666" points="814.75,-247.75 674.25,-247.75 674.25,-227 814.75,-227 814.75,-247.75"/>
<text text-anchor="middle" x="744.5" y="-234.25" font-family="Helvetica,sans-Serif" font-size="10.00">algorithms/Algorithm.hpp</text>
</a>
</g>
</g>
<!-- Node1&#45;&gt;Node24 -->
<g id="edge29_Node000001_Node000024" class="edge">
<title>Node1&#45;&gt;Node24</title>
<g id="a_edge29_Node000001_Node000024"><a xlink:title=" ">
<path fill="none" stroke="#63b8ff" d="M744.5,-283.34C744.5,-276.72 744.5,-267.72 744.5,-259.52"/>
<polygon fill="#63b8ff" stroke="#63b8ff" points="748,-259.59 744.5,-249.59 741,-259.59 748,-259.59"/>
</a>
</g>
</g>
<!-- Node25 -->
<g id="Node000025" class="node">
<title>Node25</title>
<g id="a_Node000025"><a xlink:href="LineNumberStream_8hpp.html" target="_top" xlink:title=" ">
<polygon fill="white" stroke="#666666" points="1020.62,-191 870.38,-191 870.38,-170.25 1020.62,-170.25 1020.62,-191"/>
<text text-anchor="middle" x="945.5" y="-177.5" font-family="Helvetica,sans-Serif" font-size="10.00">util/LineNumberStream.hpp</text>
</a>
</g>
</g>
<!-- Node1&#45;&gt;Node25 -->
<g id="edge35_Node000001_Node000025" class="edge">
<title>Node1&#45;&gt;Node25</title>
<g id="a_edge35_Node000001_Node000025"><a xlink:title=" ">
<path fill="none" stroke="#63b8ff" d="M774.45,-283.34C797.57,-275.23 829.98,-262.65 856.5,-247.75 881.85,-233.51 908.26,-213.05 925.66,-198.68"/>
<polygon fill="#63b8ff" stroke="#63b8ff" points="927.77,-201.48 933.18,-192.37 923.27,-196.11 927.77,-201.48"/>
</a>
</g>
</g>
<!-- Node3 -->
<g id="Node000003" class="node">
<title>Node3</title>
<g id="a_Node000003"><a xlink:href="Log_8hpp.html" target="_top" xlink:title=" ">
<polygon fill="white" stroke="#666666" points="238,-134.25 165,-134.25 165,-113.5 238,-113.5 238,-134.25"/>
<text text-anchor="middle" x="201.5" y="-120.75" font-family="Helvetica,sans-Serif" font-size="10.00">util/Log.hpp</text>
</a>
</g>
</g>
<!-- Node2&#45;&gt;Node3 -->
<g id="edge2_Node000002_Node000003" class="edge">
<title>Node2&#45;&gt;Node3</title>
<g id="a_edge2_Node000002_Node000003"><a xlink:title=" ">
<path fill="none" stroke="#63b8ff" d="M528.04,-175.46C472.96,-167.86 353.16,-150.96 252.5,-134.25 251.49,-134.08 250.47,-133.91 249.44,-133.74"/>
<polygon fill="#63b8ff" stroke="#63b8ff" points="250.19,-130.31 239.74,-132.05 248.99,-137.21 250.19,-130.31"/>
</a>
</g>
</g>
<!-- Node2&#45;&gt;Node11 -->
<g id="edge19_Node000002_Node000011" class="edge">
<title>Node2&#45;&gt;Node11</title>
<g id="a_edge19_Node000002_Node000011"><a xlink:title=" ">
<path fill="none" stroke="#63b8ff" d="M565.28,-169.97C571.64,-160.84 581.38,-146.72 589.5,-134.25 599.74,-118.53 610.93,-100.41 619.03,-87.11"/>
<polygon fill="#63b8ff" stroke="#63b8ff" points="621.81,-89.28 624.01,-78.92 615.83,-85.65 621.81,-89.28"/>
</a>
</g>
</g>
<!-- Node15 -->
<g id="Node000015" class="node">
<title>Node15</title>
<g id="a_Node000015"><a xlink:href="Float_8hpp.html" target="_top" xlink:title=" ">
<polygon fill="white" stroke="#666666" points="381.62,-77.5 291.38,-77.5 291.38,-56.75 381.62,-56.75 381.62,-77.5"/>
<text text-anchor="middle" x="336.5" y="-64" font-family="Helvetica,sans-Serif" font-size="10.00">math/Float.hpp</text>
</a>
</g>
</g>
<!-- Node2&#45;&gt;Node15 -->
<g id="edge14_Node000002_Node000015" class="edge">
<title>Node2&#45;&gt;Node15</title>
<g id="a_edge14_Node000002_Node000015"><a xlink:title=" ">
<path fill="none" stroke="#63b8ff" d="M528.04,-179.29C463.49,-177.87 316.33,-170.63 285.5,-134.25 271.47,-117.69 291.29,-97.89 310.17,-84.29"/>
<polygon fill="#63b8ff" stroke="#63b8ff" points="311.92,-87.34 318.23,-78.83 307.99,-81.54 311.92,-87.34"/>
</a>
</g>
</g>
<!-- Node16 -->
<g id="Node000016" class="node">
<title>Node16</title>
<g id="a_Node000016"><a xlink:href="Complex_8hpp.html" target="_top" xlink:title=" ">
<polygon fill="white" stroke="#666666" points="459,-134.25 350,-134.25 350,-113.5 459,-113.5 459,-134.25"/>
<text text-anchor="middle" x="404.5" y="-120.75" font-family="Helvetica,sans-Serif" font-size="10.00">math/Complex.hpp</text>
</a>
</g>
</g>
<!-- Node2&#45;&gt;Node16 -->
<g id="edge16_Node000002_Node000016" class="edge">
<title>Node2&#45;&gt;Node16</title>
<g id="a_edge16_Node000002_Node000016"><a xlink:title=" ">
<path fill="none" stroke="#63b8ff" d="M530.97,-169.84C506.41,-161.11 470.2,-148.23 442.82,-138.5"/>
<polygon fill="#63b8ff" stroke="#63b8ff" points="444.07,-135.23 433.48,-135.18 441.73,-141.83 444.07,-135.23"/>
</a>
</g>
</g>
<!-- Node18 -->
<g id="Node000018" class="node">
<title>Node18</title>
<g id="a_Node000018"><a xlink:title=" ">
<polygon fill="#e0e0e0" stroke="#999999" points="332.38,-134.25 294.62,-134.25 294.62,-113.5 332.38,-113.5 332.38,-134.25"/>
<text text-anchor="middle" x="313.5" y="-120.75" font-family="Helvetica,sans-Serif" font-size="10.00">map</text>
</a>
</g>
</g>
<!-- Node2&#45;&gt;Node18 -->
<g id="edge20_Node000002_Node000018" class="edge">
<title>Node2&#45;&gt;Node18</title>
<g id="a_edge20_Node000002_Node000018"><a xlink:title=" ">
<path fill="none" stroke="#63b8ff" d="M528.23,-174.6C487.93,-167.63 414.29,-153.96 343.71,-134.91"/>
<polygon fill="#63b8ff" stroke="#63b8ff" points="344.9,-131.61 334.33,-132.34 343.05,-138.36 344.9,-131.61"/>
</a>
</g>
</g>
<!-- Node2&#45;&gt;Node19 -->
<g id="edge21_Node000002_Node000019" class="edge">
<title>Node2&#45;&gt;Node19</title>
<g id="a_edge21_Node000002_Node000019"><a xlink:title=" ">
<path fill="none" stroke="#63b8ff" d="M588.89,-176.04C639.61,-169.79 744.91,-155.72 843.71,-134.4"/>
<polygon fill="#63b8ff" stroke="#63b8ff" points="844.3,-137.86 853.31,-132.3 842.8,-131.02 844.3,-137.86"/>
</a>
</g>
</g>
<!-- Node20 -->
<g id="Node000020" class="node">
<title>Node20</title>
<g id="a_Node000020"><a xlink:href="Tensor_8hpp.html" target="_top" xlink:title=" ">
<polygon fill="white" stroke="#666666" points="836.75,-134.25 750.25,-134.25 750.25,-113.5 836.75,-113.5 836.75,-134.25"/>
<text text-anchor="middle" x="793.5" y="-120.75" font-family="Helvetica,sans-Serif" font-size="10.00">util/Tensor.hpp</text>
</a>
</g>
</g>
<!-- Node2&#45;&gt;Node20 -->
<g id="edge22_Node000002_Node000020" class="edge">
<title>Node2&#45;&gt;Node20</title>
<g id="a_edge22_Node000002_Node000020"><a xlink:title=" ">
<path fill="none" stroke="#63b8ff" d="M588.74,-172.58C626.99,-163.67 693.5,-148.17 740.32,-137.26"/>
<polygon fill="#63b8ff" stroke="#63b8ff" points="741.06,-140.69 750,-135.01 739.47,-133.87 741.06,-140.69"/>
</a>
</g>
</g>
<!-- Node23 -->
<g id="Node000023" class="node">
<title>Node23</title>
<g id="a_Node000023"><a xlink:href="Exception_8hpp.html" target="_top" xlink:title=" ">
<polygon fill="white" stroke="#666666" points="580.38,-134.25 476.62,-134.25 476.62,-113.5 580.38,-113.5 580.38,-134.25"/>
<text text-anchor="middle" x="528.5" y="-120.75" font-family="Helvetica,sans-Serif" font-size="10.00">util/Exception.hpp</text>
</a>
</g>
</g>
<!-- Node2&#45;&gt;Node23 -->
<g id="edge25_Node000002_Node000023" class="edge">
<title>Node2&#45;&gt;Node23</title>
<g id="a_edge25_Node000002_Node000023"><a xlink:title=" ">
<path fill="none" stroke="#63b8ff" d="M553.14,-169.84C549.3,-162.83 544,-153.16 539.3,-144.58"/>
<polygon fill="#63b8ff" stroke="#63b8ff" points="542.42,-142.99 534.54,-135.91 536.28,-146.36 542.42,-142.99"/>
</a>
</g>
</g>
<!-- Node4 -->
<g id="Node000004" class="node">
<title>Node4</title>
<g id="a_Node000004"><a xlink:href="Time_8hpp.html" target="_top" xlink:title=" ">
<polygon fill="white" stroke="#666666" points="189.75,-77.5 109.25,-77.5 109.25,-56.75 189.75,-56.75 189.75,-77.5"/>
<text text-anchor="middle" x="149.5" y="-64" font-family="Helvetica,sans-Serif" font-size="10.00">util/Time.hpp</text>
</a>
</g>
</g>
<!-- Node3&#45;&gt;Node4 -->
<g id="edge3_Node000003_Node000004" class="edge">
<title>Node3&#45;&gt;Node4</title>
<g id="a_edge3_Node000003_Node000004"><a xlink:title=" ">
<path fill="none" stroke="#63b8ff" d="M192.2,-113.09C185.1,-105.61 175.13,-95.11 166.6,-86.13"/>
<polygon fill="#63b8ff" stroke="#63b8ff" points="169.18,-83.77 159.76,-78.93 164.11,-88.59 169.18,-83.77"/>
</a>
</g>
</g>
<!-- Node3&#45;&gt;Node11 -->
<g id="edge10_Node000003_Node000011" class="edge">
<title>Node3&#45;&gt;Node11</title>
<g id="a_edge10_Node000003_Node000011"><a xlink:title=" ">
<path fill="none" stroke="#63b8ff" d="M238.45,-118.16C320.8,-107.65 518.36,-82.44 597.19,-72.38"/>
<polygon fill="#63b8ff" stroke="#63b8ff" points="597.38,-75.88 606.86,-71.14 596.5,-68.94 597.38,-75.88"/>
</a>
</g>
</g>
<!-- Node12 -->
<g id="Node000012" class="node">
<title>Node12</title>
<g id="a_Node000012"><a xlink:title=" ">
<polygon fill="#e0e0e0" stroke="#999999" points="535.25,-77.5 475.75,-77.5 475.75,-56.75 535.25,-56.75 535.25,-77.5"/>
<text text-anchor="middle" x="505.5" y="-64" font-family="Helvetica,sans-Serif" font-size="10.00">iostream</text>
</a>
</g>
</g>
<!-- Node3&#45;&gt;Node12 -->
<g id="edge11_Node000003_Node000012" class="edge">
<title>Node3&#45;&gt;Node12</title>
<g id="a_edge11_Node000003_Node000012"><a xlink:title=" ">
<path fill="none" stroke="#63b8ff" d="M238.08,-117.4C287.23,-109.87 377.55,-95.43 464.21,-77.86"/>
<polygon fill="#63b8ff" stroke="#63b8ff" points="464.73,-81.33 473.83,-75.89 463.33,-74.47 464.73,-81.33"/>
</a>
</g>
</g>
<!-- Node13 -->
<g id="Node000013" class="node">
<title>Node13</title>
<g id="a_Node000013"><a xlink:title=" ">
<polygon fill="#e0e0e0" stroke="#999999" points="273.62,-77.5 207.38,-77.5 207.38,-56.75 273.62,-56.75 273.62,-77.5"/>
<text text-anchor="middle" x="240.5" y="-64" font-family="Helvetica,sans-Serif" font-size="10.00">streambuf</text>
</a>
</g>
</g>
<!-- Node3&#45;&gt;Node13 -->
<g id="edge12_Node000003_Node000013" class="edge">
<title>Node3&#45;&gt;Node13</title>
<g id="a_edge12_Node000003_Node000013"><a xlink:title=" ">
<path fill="none" stroke="#63b8ff" d="M208.47,-113.09C213.63,-105.85 220.82,-95.76 227.07,-86.97"/>
<polygon fill="#63b8ff" stroke="#63b8ff" points="229.76,-89.24 232.71,-79.06 224.06,-85.18 229.76,-89.24"/>
</a>
</g>
</g>
<!-- Node14 -->
<g id="Node000014" class="node">
<title>Node14</title>
<g id="a_Node000014"><a xlink:title=" ">
<polygon fill="#e0e0e0" stroke="#999999" points="91.62,-77.5 37.38,-77.5 37.38,-56.75 91.62,-56.75 91.62,-77.5"/>
<text text-anchor="middle" x="64.5" y="-64" font-family="Helvetica,sans-Serif" font-size="10.00">fstream</text>
</a>
</g>
</g>
<!-- Node3&#45;&gt;Node14 -->
<g id="edge13_Node000003_Node000014" class="edge">
<title>Node3&#45;&gt;Node14</title>
<g id="a_edge13_Node000003_Node000014"><a xlink:title=" ">
<path fill="none" stroke="#63b8ff" d="M177.01,-113.09C155.38,-104.44 123.61,-91.75 99.34,-82.05"/>
<polygon fill="#63b8ff" stroke="#63b8ff" points="100.77,-78.85 90.19,-78.39 98.17,-85.35 100.77,-78.85"/>
</a>
</g>
</g>
<!-- Node5 -->
<g id="Node000005" class="node">
<title>Node5</title>
<g id="a_Node000005"><a xlink:title=" ">
<polygon fill="#e0e0e0" stroke="#999999" points="248.38,-20.75 204.62,-20.75 204.62,0 248.38,0 248.38,-20.75"/>
<text text-anchor="middle" x="226.5" y="-7.25" font-family="Helvetica,sans-Serif" font-size="10.00">ctime</text>
</a>
</g>
</g>
<!-- Node4&#45;&gt;Node5 -->
<g id="edge4_Node000004_Node000005" class="edge">
<title>Node4&#45;&gt;Node5</title>
<g id="a_edge4_Node000004_Node000005"><a xlink:title=" ">
<path fill="none" stroke="#63b8ff" d="M163.27,-56.34C174.43,-48.4 190.42,-37.03 203.52,-27.71"/>
<polygon fill="#63b8ff" stroke="#63b8ff" points="205.5,-30.6 211.62,-21.96 201.44,-24.9 205.5,-30.6"/>
</a>
</g>
</g>
<!-- Node6 -->
<g id="Node000006" class="node">
<title>Node6</title>
<g id="a_Node000006"><a xlink:title=" ">
<polygon fill="#e0e0e0" stroke="#999999" points="49,-20.75 0,-20.75 0,0 49,0 49,-20.75"/>
<text text-anchor="middle" x="24.5" y="-7.25" font-family="Helvetica,sans-Serif" font-size="10.00">cstdint</text>
</a>
</g>
</g>
<!-- Node4&#45;&gt;Node6 -->
<g id="edge5_Node000004_Node000006" class="edge">
<title>Node4&#45;&gt;Node6</title>
<g id="a_edge5_Node000004_Node000006"><a xlink:title=" ">
<path fill="none" stroke="#63b8ff" d="M127.15,-56.34C107.69,-47.81 79.21,-35.34 57.19,-25.69"/>
<polygon fill="#63b8ff" stroke="#63b8ff" points="58.6,-22.49 48.04,-21.69 55.8,-28.9 58.6,-22.49"/>
</a>
</g>
</g>
<!-- Node7 -->
<g id="Node000007" class="node">
<title>Node7</title>
<g id="a_Node000007"><a xlink:title=" ">
<polygon fill="#e0e0e0" stroke="#999999" points="336.75,-20.75 280.25,-20.75 280.25,0 336.75,0 336.75,-20.75"/>
<text text-anchor="middle" x="308.5" y="-7.25" font-family="Helvetica,sans-Serif" font-size="10.00">ostream</text>
</a>
</g>
</g>
<!-- Node4&#45;&gt;Node7 -->
<g id="edge6_Node000004_Node000007" class="edge">
<title>Node4&#45;&gt;Node7</title>
<g id="a_edge6_Node000004_Node000007"><a xlink:title=" ">
<path fill="none" stroke="#63b8ff" d="M177.93,-56.34C203.4,-47.57 241,-34.62 269.32,-24.87"/>
<polygon fill="#63b8ff" stroke="#63b8ff" points="270.31,-28.23 278.62,-21.66 268.03,-21.61 270.31,-28.23"/>
</a>
</g>
</g>
<!-- Node8 -->
<g id="Node000008" class="node">
<title>Node8</title>
<g id="a_Node000008"><a xlink:title=" ">
<polygon fill="#e0e0e0" stroke="#999999" points="122.38,-20.75 66.62,-20.75 66.62,0 122.38,0 122.38,-20.75"/>
<text text-anchor="middle" x="94.5" y="-7.25" font-family="Helvetica,sans-Serif" font-size="10.00">iomanip</text>
</a>
</g>
</g>
<!-- Node4&#45;&gt;Node8 -->
<g id="edge7_Node000004_Node000008" class="edge">
<title>Node4&#45;&gt;Node8</title>
<g id="a_edge7_Node000004_Node000008"><a xlink:title=" ">
<path fill="none" stroke="#63b8ff" d="M139.67,-56.34C132.08,-48.78 121.38,-38.14 112.3,-29.1"/>
<polygon fill="#63b8ff" stroke="#63b8ff" points="114.88,-26.72 105.32,-22.15 109.94,-31.68 114.88,-26.72"/>
</a>
</g>
</g>
<!-- Node9 -->
<g id="Node000009" class="node">
<title>Node9</title>
<g id="a_Node000009"><a xlink:title=" ">
<polygon fill="#e0e0e0" stroke="#999999" points="591.38,-20.75 535.62,-20.75 535.62,0 591.38,0 591.38,-20.75"/>
<text text-anchor="middle" x="563.5" y="-7.25" font-family="Helvetica,sans-Serif" font-size="10.00">sstream</text>
</a>
</g>
</g>
<!-- Node4&#45;&gt;Node9 -->
<g id="edge8_Node000004_Node000009" class="edge">
<title>Node4&#45;&gt;Node9</title>
<g id="a_edge8_Node000004_Node000009"><a xlink:title=" ">
<path fill="none" stroke="#63b8ff" d="M190.11,-58.14C192.94,-57.65 195.76,-57.18 198.5,-56.75 316.62,-38.13 457.23,-22.47 524.23,-15.41"/>
<polygon fill="#63b8ff" stroke="#63b8ff" points="524.39,-18.91 533.97,-14.38 523.66,-11.95 524.39,-18.91"/>
</a>
</g>
</g>
<!-- Node10 -->
<g id="Node000010" class="node">
<title>Node10</title>
<g id="a_Node000010"><a xlink:title=" ">
<polygon fill="#e0e0e0" stroke="#999999" points="186.88,-20.75 140.12,-20.75 140.12,0 186.88,0 186.88,-20.75"/>
<text text-anchor="middle" x="163.5" y="-7.25" font-family="Helvetica,sans-Serif" font-size="10.00">cmath</text>
</a>
</g>
</g>
<!-- Node4&#45;&gt;Node10 -->
<g id="edge9_Node000004_Node000010" class="edge">
<title>Node4&#45;&gt;Node10</title>
<g id="a_edge9_Node000004_Node000010"><a xlink:title=" ">
<path fill="none" stroke="#63b8ff" d="M152,-56.34C153.72,-49.64 156.05,-40.51 158.17,-32.23"/>
<polygon fill="#63b8ff" stroke="#63b8ff" points="161.56,-33.1 160.64,-22.54 154.78,-31.37 161.56,-33.1"/>
</a>
</g>
</g>
<!-- Node15&#45;&gt;Node7 -->
<g id="edge15_Node000015_Node000007" class="edge">
<title>Node15&#45;&gt;Node7</title>
<g id="a_edge15_Node000015_Node000007"><a xlink:title=" ">
<path fill="none" stroke="#63b8ff" d="M331.49,-56.34C327.91,-49.33 322.96,-39.66 318.58,-31.08"/>
<polygon fill="#63b8ff" stroke="#63b8ff" points="321.82,-29.74 314.15,-22.43 315.59,-32.92 321.82,-29.74"/>
</a>
</g>
</g>
<!-- Node16&#45;&gt;Node15 -->
<g id="edge17_Node000016_Node000015" class="edge">
<title>Node16&#45;&gt;Node15</title>
<g id="a_edge17_Node000016_Node000015"><a xlink:title=" ">
<path fill="none" stroke="#63b8ff" d="M392.34,-113.09C382.67,-105.3 368.92,-94.22 357.48,-85.01"/>
<polygon fill="#63b8ff" stroke="#63b8ff" points="359.71,-82.32 349.73,-78.78 355.32,-87.78 359.71,-82.32"/>
</a>
</g>
</g>
<!-- Node17 -->
<g id="Node000017" class="node">
<title>Node17</title>
<g id="a_Node000017"><a xlink:title=" ">
<polygon fill="#e0e0e0" stroke="#999999" points="457.5,-77.5 399.5,-77.5 399.5,-56.75 457.5,-56.75 457.5,-77.5"/>
<text text-anchor="middle" x="428.5" y="-64" font-family="Helvetica,sans-Serif" font-size="10.00">complex</text>
</a>
</g>
</g>
<!-- Node16&#45;&gt;Node17 -->
<g id="edge18_Node000016_Node000017" class="edge">
<title>Node16&#45;&gt;Node17</title>
<g id="a_edge18_Node000016_Node000017"><a xlink:title=" ">
<path fill="none" stroke="#63b8ff" d="M408.79,-113.09C411.83,-106.16 416.01,-96.62 419.74,-88.11"/>
<polygon fill="#63b8ff" stroke="#63b8ff" points="422.83,-89.78 423.64,-79.21 416.42,-86.97 422.83,-89.78"/>
</a>
</g>
</g>
<!-- Node21 -->
<g id="Node000021" class="node">
<title>Node21</title>
<g id="a_Node000021"><a xlink:href="CTF_8hpp.html" target="_top" xlink:title=" ">
<polygon fill="white" stroke="#666666" points="830,-77.5 757,-77.5 757,-56.75 830,-56.75 830,-77.5"/>
<text text-anchor="middle" x="793.5" y="-64" font-family="Helvetica,sans-Serif" font-size="10.00">util/CTF.hpp</text>
</a>
</g>
</g>
<!-- Node20&#45;&gt;Node21 -->
<g id="edge23_Node000020_Node000021" class="edge">
<title>Node20&#45;&gt;Node21</title>
<g id="a_edge23_Node000020_Node000021"><a xlink:title=" ">
<path fill="none" stroke="#63b8ff" d="M793.5,-113.09C793.5,-106.47 793.5,-97.47 793.5,-89.27"/>
<polygon fill="#63b8ff" stroke="#63b8ff" points="797,-89.34 793.5,-79.34 790,-89.34 797,-89.34"/>
</a>
</g>
</g>
<!-- Node22 -->
<g id="Node000022" class="node">
<title>Node22</title>
<g id="a_Node000022"><a xlink:title=" ">
<polygon fill="#e0e0e0" stroke="#999999" points="818,-20.75 769,-20.75 769,0 818,0 818,-20.75"/>
<text text-anchor="middle" x="793.5" y="-7.25" font-family="Helvetica,sans-Serif" font-size="10.00">ctf.hpp</text>
</a>
</g>
</g>
<!-- Node21&#45;&gt;Node22 -->
<g id="edge24_Node000021_Node000022" class="edge">
<title>Node21&#45;&gt;Node22</title>
<g id="a_edge24_Node000021_Node000022"><a xlink:title=" ">
<path fill="none" stroke="#63b8ff" d="M793.5,-56.34C793.5,-49.72 793.5,-40.72 793.5,-32.52"/>
<polygon fill="#63b8ff" stroke="#63b8ff" points="797,-32.59 793.5,-22.59 790,-32.59 797,-32.59"/>
</a>
</g>
</g>
<!-- Node23&#45;&gt;Node9 -->
<g id="edge27_Node000023_Node000009" class="edge">
<title>Node23&#45;&gt;Node9</title>
<g id="a_edge27_Node000023_Node000009"><a xlink:title=" ">
<path fill="none" stroke="#63b8ff" d="M532.1,-113.19C535.46,-104.05 540.53,-89.91 544.5,-77.5 549.35,-62.33 554.3,-45.01 557.94,-31.91"/>
<polygon fill="#63b8ff" stroke="#63b8ff" points="561.3,-32.87 560.57,-22.3 554.55,-31.02 561.3,-32.87"/>
</a>
</g>
</g>
<!-- Node23&#45;&gt;Node11 -->
<g id="edge26_Node000023_Node000011" class="edge">
<title>Node23&#45;&gt;Node11</title>
<g id="a_edge26_Node000023_Node000011"><a xlink:title=" ">
<path fill="none" stroke="#63b8ff" d="M546.74,-113.09C562.18,-104.8 584.59,-92.77 602.34,-83.24"/>
<polygon fill="#63b8ff" stroke="#63b8ff" points="603.93,-86.36 611.09,-78.54 600.62,-80.19 603.93,-86.36"/>
</a>
</g>
</g>
<!-- Node23&#45;&gt;Node12 -->
<g id="edge28_Node000023_Node000012" class="edge">
<title>Node23&#45;&gt;Node12</title>
<g id="a_edge28_Node000023_Node000012"><a xlink:title=" ">
<path fill="none" stroke="#63b8ff" d="M524.39,-113.09C521.51,-106.24 517.56,-96.84 514.02,-88.4"/>
<polygon fill="#63b8ff" stroke="#63b8ff" points="517.26,-87.09 510.16,-79.22 510.81,-89.8 517.26,-87.09"/>
</a>
</g>
</g>
<!-- Node24&#45;&gt;Node2 -->
<g id="edge30_Node000024_Node000002" class="edge">
<title>Node24&#45;&gt;Node2</title>
<g id="a_edge30_Node000024_Node000002"><a xlink:title=" ">
<path fill="none" stroke="#63b8ff" d="M711.25,-226.59C680.08,-217.41 633.38,-203.67 599.83,-193.79"/>
<polygon fill="#63b8ff" stroke="#63b8ff" points="601.03,-190.5 590.45,-191.03 599.06,-197.21 601.03,-190.5"/>
</a>
</g>
</g>
<!-- Node24&#45;&gt;Node9 -->
<g id="edge33_Node000024_Node000009" class="edge">
<title>Node24&#45;&gt;Node9</title>
<g id="a_edge33_Node000024_Node000009"><a xlink:title=" ">
<path fill="none" stroke="#63b8ff" d="M742.55,-226.85C736.12,-197.64 712.98,-108.27 661.5,-56.75 645.25,-40.49 622.08,-29.39 602.36,-22.25"/>
<polygon fill="#63b8ff" stroke="#63b8ff" points="603.54,-18.96 592.95,-19.07 601.3,-25.59 603.54,-18.96"/>
</a>
</g>
</g>
<!-- Node24&#45;&gt;Node11 -->
<g id="edge31_Node000024_Node000011" class="edge">
<title>Node24&#45;&gt;Node11</title>
<g id="a_edge31_Node000024_Node000011"><a xlink:title=" ">
<path fill="none" stroke="#63b8ff" d="M736.15,-226.54C728.62,-217.52 717.4,-203.67 708.5,-191 685.2,-157.85 682.34,-147.62 660.5,-113.5 654.98,-104.87 648.75,-95.41 643.4,-87.37"/>
<polygon fill="#63b8ff" stroke="#63b8ff" points="646.32,-85.44 637.86,-79.07 640.5,-89.33 646.32,-85.44"/>
</a>
</g>
</g>
<!-- Node24&#45;&gt;Node19 -->
<g id="edge32_Node000024_Node000019" class="edge">
<title>Node24&#45;&gt;Node19</title>
<g id="a_edge32_Node000024_Node000019"><a xlink:title=" ">
<path fill="none" stroke="#63b8ff" d="M755.92,-226.87C778.56,-208.04 829.36,-165.76 857.95,-141.97"/>
<polygon fill="#63b8ff" stroke="#63b8ff" points="860.11,-144.73 865.56,-135.64 855.63,-139.35 860.11,-144.73"/>
</a>
</g>
</g>
<!-- Node24&#45;&gt;Node20 -->
<g id="edge34_Node000024_Node000020" class="edge">
<title>Node24&#45;&gt;Node20</title>
<g id="a_edge34_Node000024_Node000020"><a xlink:title=" ">
<path fill="none" stroke="#63b8ff" d="M748.68,-226.87C756.59,-208.86 773.94,-169.39 784.58,-145.18"/>
<polygon fill="#63b8ff" stroke="#63b8ff" points="787.77,-146.62 788.58,-136.06 781.36,-143.81 787.77,-146.62"/>
</a>
</g>
</g>
<!-- Node25&#45;&gt;Node11 -->
<g id="edge36_Node000025_Node000011" class="edge">
<title>Node25&#45;&gt;Node11</title>
<g id="a_edge36_Node000025_Node000011"><a xlink:title=" ">
<path fill="none" stroke="#63b8ff" d="M943.36,-170.18C939.5,-155.5 929.92,-127.43 910.5,-113.5 890.69,-99.29 733.96,-79.91 664.01,-71.86"/>
<polygon fill="#63b8ff" stroke="#63b8ff" points="664.62,-68.41 654.29,-70.76 663.83,-75.37 664.62,-68.41"/>
</a>
</g>
</g>
</g>
</svg>
