<?xml version="1.0" encoding="UTF-8" standalone="no"?>
<!DOCTYPE svg PUBLIC "-//W3C//DTD SVG 1.1//EN"
 "http://www.w3.org/Graphics/SVG/1.1/DTD/svg11.dtd">
<!-- Generated by graphviz version 9.0.0 (0)
 -->
<!-- Title: Parser.hpp Pages: 1 -->
<svg width="156pt" height="86pt"
 viewBox="0.00 0.00 156.12 85.50" xmlns="http://www.w3.org/2000/svg" xmlns:xlink="http://www.w3.org/1999/xlink">
<g id="graph0" class="graph" transform="scale(1 1) rotate(0) translate(4 81.5)">
<title>Parser.hpp</title>
<!-- Node1 -->
<g id="Node000001" class="node">
<title>Node1</title>
<g id="a_Node000001"><a xlink:title=" ">
<polygon fill="#999999" stroke="#666666" points="106.88,-77.5 40.62,-77.5 40.62,-56.75 106.88,-56.75 106.88,-77.5"/>
<text text-anchor="middle" x="73.75" y="-64" font-family="Helvetica,sans-Serif" font-size="10.00">Parser.hpp</text>
</a>
</g>
</g>
<!-- Node2 -->
<g id="Node000002" class="node">
<title>Node2</title>
<g id="a_Node000002"><a xlink:href="Parser_8cxx.html" target="_top" xlink:title=" ">
<polygon fill="white" stroke="#666666" points="65.5,-20.75 0,-20.75 0,0 65.5,0 65.5,-20.75"/>
<text text-anchor="middle" x="32.75" y="-7.25" font-family="Helvetica,sans-Serif" font-size="10.00">Parser.cxx</text>
</a>
</g>
</g>
<!-- Node1&#45;&gt;Node2 -->
<g id="edge1_Node000001_Node000002" class="edge">
<title>Node1&#45;&gt;Node2</title>
<g id="a_edge1_Node000001_Node000002"><a xlink:title=" ">
<path fill="none" stroke="#63b8ff" d="M59.56,-47.17C52.97,-38.38 45.42,-28.3 40.02,-21.08"/>
<polygon fill="#63b8ff" stroke="#63b8ff" points="56.72,-49.22 65.51,-55.13 62.32,-45.02 56.72,-49.22"/>
</a>
</g>
</g>
<!-- Node3 -->
<g id="Node000003" class="node">
<title>Node3</title>
<g id="a_Node000003"><a xlink:href="Sisi4s_8cxx.html" target="_top" xlink:title=" ">
<polygon fill="white" stroke="#666666" points="148.12,-20.75 83.38,-20.75 83.38,0 148.12,0 148.12,-20.75"/>
<text text-anchor="middle" x="115.75" y="-7.25" font-family="Helvetica,sans-Serif" font-size="10.00">Sisi4s.cxx</text>
</a>
</g>
</g>
<!-- Node1&#45;&gt;Node3 -->
<g id="edge2_Node000001_Node000003" class="edge">
<title>Node1&#45;&gt;Node3</title>
<g id="a_edge2_Node000001_Node000003"><a xlink:title=" ">
<path fill="none" stroke="#63b8ff" d="M88.07,-47.46C94.87,-38.59 102.71,-28.37 108.31,-21.08"/>
<polygon fill="#63b8ff" stroke="#63b8ff" points="85.49,-45.07 82.18,-55.14 91.04,-49.33 85.49,-45.07"/>
</a>
</g>
</g>
</g>
</svg>
