<?xml version="1.0" encoding="UTF-8" standalone="no"?>
<!DOCTYPE svg PUBLIC "-//W3C//DTD SVG 1.1//EN"
 "http://www.w3.org/Graphics/SVG/1.1/DTD/svg11.dtd">
<!-- Generated by graphviz version 5.0.1 (0)
 -->
<!-- Title: ParticleHoleCoulombVertexReader.hpp Pages: 1 -->
<svg width="978pt" height="313pt"
 viewBox="0.00 0.00 978.49 313.00" xmlns="http://www.w3.org/2000/svg" xmlns:xlink="http://www.w3.org/1999/xlink">
<g id="graph0" class="graph" transform="scale(1 1) rotate(0) translate(4 309)">
<title>ParticleHoleCoulombVertexReader.hpp</title>
<!-- Node1 -->
<g id="node1" class="node">
<title>Node1</title>
<g id="a_node1"><a xlink:title=" ">
<polygon fill="#999999" stroke="#666666" points="614,-305 464,-305 464,-275 614,-275 614,-305"/>
<text text-anchor="start" x="472" y="-293" font-family="Helvetica,sans-Serif" font-size="10.00">ParticleHoleCoulombVertex</text>
<text text-anchor="middle" x="539" y="-282" font-family="Helvetica,sans-Serif" font-size="10.00">Reader.hpp</text>
</a>
</g>
</g>
<!-- Node2 -->
<g id="node2" class="node">
<title>Node2</title>
<g id="a_node2"><a xlink:href="Algorithm_8hpp.html" target="_top" xlink:title=" ">
<polygon fill="white" stroke="#666666" points="609.5,-239 468.5,-239 468.5,-220 609.5,-220 609.5,-239"/>
<text text-anchor="middle" x="539" y="-227" font-family="Helvetica,sans-Serif" font-size="10.00">algorithms/Algorithm.hpp</text>
</a>
</g>
</g>
<!-- Node1&#45;&gt;Node2 -->
<g id="edge1" class="edge">
<title>Node1&#45;&gt;Node2</title>
<path fill="none" stroke="#63b8ff" d="M539,-274.84C539,-267.21 539,-257.7 539,-249.45"/>
<polygon fill="#63b8ff" stroke="#63b8ff" points="542.5,-249.27 539,-239.27 535.5,-249.27 542.5,-249.27"/>
</g>
<!-- Node7 -->
<g id="node7" class="node">
<title>Node7</title>
<g id="a_node7"><a xlink:title=" ">
<polygon fill="#e0e0e0" stroke="#999999" points="57,-19 7,-19 7,0 57,0 57,-19"/>
<text text-anchor="middle" x="32" y="-7" font-family="Helvetica,sans-Serif" font-size="10.00">cstdint</text>
</a>
</g>
</g>
<!-- Node1&#45;&gt;Node7 -->
<g id="edge44" class="edge">
<title>Node1&#45;&gt;Node7</title>
<path fill="none" stroke="#63b8ff" d="M463.77,-288.66C315.55,-285.94 0,-269.16 0,-175.5 0,-175.5 0,-175.5 0,-118.5 0,-85.71 13.73,-49.54 23.2,-28.49"/>
<polygon fill="#63b8ff" stroke="#63b8ff" points="26.48,-29.74 27.55,-19.2 20.14,-26.77 26.48,-29.74"/>
</g>
<!-- Node15 -->
<g id="node15" class="node">
<title>Node15</title>
<g id="a_node15"><a xlink:title=" ">
<polygon fill="#e0e0e0" stroke="#999999" points="813.5,-74 758.5,-74 758.5,-55 813.5,-55 813.5,-74"/>
<text text-anchor="middle" x="786" y="-62" font-family="Helvetica,sans-Serif" font-size="10.00">fstream</text>
</a>
</g>
</g>
<!-- Node1&#45;&gt;Node15 -->
<g id="edge45" class="edge">
<title>Node1&#45;&gt;Node15</title>
<path fill="none" stroke="#63b8ff" d="M614.07,-284.36C672.52,-278.73 754.74,-266.31 822,-239 896.95,-208.57 933.25,-202.51 967,-129 970.52,-121.33 972.21,-116.65 967,-110 949.52,-87.7 871.23,-75.08 823.53,-69.34"/>
<polygon fill="#63b8ff" stroke="#63b8ff" points="823.89,-65.86 813.56,-68.18 823.09,-72.81 823.89,-65.86"/>
</g>
<!-- Node21 -->
<g id="node21" class="node">
<title>Node21</title>
<g id="a_node21"><a xlink:href="Tensor_8hpp.html" target="_top" xlink:title=" ">
<polygon fill="white" stroke="#666666" points="957.5,-129 870.5,-129 870.5,-110 957.5,-110 957.5,-129"/>
<text text-anchor="middle" x="914" y="-117" font-family="Helvetica,sans-Serif" font-size="10.00">util/Tensor.hpp</text>
</a>
</g>
</g>
<!-- Node1&#45;&gt;Node21 -->
<g id="edge43" class="edge">
<title>Node1&#45;&gt;Node21</title>
<path fill="none" stroke="#63b8ff" d="M614.33,-283.01C689.81,-273.42 805.47,-248.53 882,-184 895.84,-172.33 904.32,-153.2 909.05,-138.98"/>
<polygon fill="#63b8ff" stroke="#63b8ff" points="912.44,-139.85 911.95,-129.27 905.73,-137.85 912.44,-139.85"/>
</g>
<!-- Node25 -->
<g id="node25" class="node">
<title>Node25</title>
<g id="a_node25"><a xlink:href="DryTensor_8hpp.html" target="_top" xlink:title=" ">
<polygon fill="white" stroke="#666666" points="264,-184 178,-184 178,-165 264,-165 264,-184"/>
<text text-anchor="middle" x="221" y="-172" font-family="Helvetica,sans-Serif" font-size="10.00">DryTensor.hpp</text>
</a>
</g>
</g>
<!-- Node1&#45;&gt;Node25 -->
<g id="edge34" class="edge">
<title>Node1&#45;&gt;Node25</title>
<path fill="none" stroke="#63b8ff" d="M499.69,-274.97C436.7,-252.49 314.22,-208.77 254.86,-187.59"/>
<polygon fill="#63b8ff" stroke="#63b8ff" points="255.82,-184.21 245.22,-184.14 253.46,-190.8 255.82,-184.21"/>
</g>
<!-- Node3 -->
<g id="node3" class="node">
<title>Node3</title>
<g id="a_node3"><a xlink:href="Data_8hpp.html" target="_top" xlink:title=" ">
<polygon fill="white" stroke="#666666" points="569.5,-184 508.5,-184 508.5,-165 569.5,-165 569.5,-184"/>
<text text-anchor="middle" x="539" y="-172" font-family="Helvetica,sans-Serif" font-size="10.00">Data.hpp</text>
</a>
</g>
</g>
<!-- Node2&#45;&gt;Node3 -->
<g id="edge2" class="edge">
<title>Node2&#45;&gt;Node3</title>
<path fill="none" stroke="#63b8ff" d="M539,-219.75C539,-212.8 539,-202.85 539,-194.13"/>
<polygon fill="#63b8ff" stroke="#63b8ff" points="542.5,-194.09 539,-184.09 535.5,-194.09 542.5,-194.09"/>
</g>
<!-- Node10 -->
<g id="node10" class="node">
<title>Node10</title>
<g id="a_node10"><a xlink:title=" ">
<polygon fill="#e0e0e0" stroke="#999999" points="584,-19 528,-19 528,0 584,0 584,-19"/>
<text text-anchor="middle" x="556" y="-7" font-family="Helvetica,sans-Serif" font-size="10.00">sstream</text>
</a>
</g>
</g>
<!-- Node2&#45;&gt;Node10 -->
<g id="edge32" class="edge">
<title>Node2&#45;&gt;Node10</title>
<path fill="none" stroke="#63b8ff" d="M609.72,-225.65C677.03,-218.73 774.94,-196.76 823,-129 842.03,-102.17 844.26,-80.09 823,-55 794.17,-20.96 661.26,-12.94 594.5,-11.06"/>
<polygon fill="#63b8ff" stroke="#63b8ff" points="594.46,-7.56 584.38,-10.81 594.29,-14.56 594.46,-7.56"/>
</g>
<!-- Node12 -->
<g id="node12" class="node">
<title>Node12</title>
<g id="a_node12"><a xlink:title=" ">
<polygon fill="#e0e0e0" stroke="#999999" points="352,-74 308,-74 308,-55 352,-55 352,-74"/>
<text text-anchor="middle" x="330" y="-62" font-family="Helvetica,sans-Serif" font-size="10.00">string</text>
</a>
</g>
</g>
<!-- Node2&#45;&gt;Node12 -->
<g id="edge30" class="edge">
<title>Node2&#45;&gt;Node12</title>
<path fill="none" stroke="#63b8ff" d="M514.29,-219.99C477.09,-206.11 406.33,-175.38 362,-129 349.75,-116.18 341.17,-97.76 336.01,-84.06"/>
<polygon fill="#63b8ff" stroke="#63b8ff" points="339.19,-82.56 332.58,-74.28 332.58,-84.87 339.19,-82.56"/>
</g>
<!-- Node20 -->
<g id="node20" class="node">
<title>Node20</title>
<g id="a_node20"><a xlink:title=" ">
<polygon fill="#e0e0e0" stroke="#999999" points="301.5,-129 254.5,-129 254.5,-110 301.5,-110 301.5,-129"/>
<text text-anchor="middle" x="278" y="-117" font-family="Helvetica,sans-Serif" font-size="10.00">vector</text>
</a>
</g>
</g>
<!-- Node2&#45;&gt;Node20 -->
<g id="edge31" class="edge">
<title>Node2&#45;&gt;Node20</title>
<path fill="none" stroke="#63b8ff" d="M468.41,-220.71C412.6,-213.41 340.2,-201.06 316,-184 300.29,-172.92 289.96,-153.09 284.09,-138.53"/>
<polygon fill="#63b8ff" stroke="#63b8ff" points="287.34,-137.23 280.59,-129.06 280.77,-139.65 287.34,-137.23"/>
</g>
<!-- Node2&#45;&gt;Node21 -->
<g id="edge33" class="edge">
<title>Node2&#45;&gt;Node21</title>
<path fill="none" stroke="#63b8ff" d="M609.56,-224.16C689.61,-218.28 814.46,-205.9 856,-184 876.15,-173.38 892.89,-152.86 903.12,-138.02"/>
<polygon fill="#63b8ff" stroke="#63b8ff" points="906.31,-139.52 908.87,-129.24 900.46,-135.68 906.31,-139.52"/>
</g>
<!-- Node4 -->
<g id="node4" class="node">
<title>Node4</title>
<g id="a_node4"><a xlink:href="Log_8hpp.html" target="_top" xlink:title=" ">
<polygon fill="white" stroke="#666666" points="470,-129 396,-129 396,-110 470,-110 470,-129"/>
<text text-anchor="middle" x="433" y="-117" font-family="Helvetica,sans-Serif" font-size="10.00">util/Log.hpp</text>
</a>
</g>
</g>
<!-- Node3&#45;&gt;Node4 -->
<g id="edge3" class="edge">
<title>Node3&#45;&gt;Node4</title>
<path fill="none" stroke="#63b8ff" d="M521.97,-164.98C505.07,-156.54 478.94,-143.47 459.36,-133.68"/>
<polygon fill="#63b8ff" stroke="#63b8ff" points="460.85,-130.51 450.34,-129.17 457.72,-136.77 460.85,-130.51"/>
</g>
<!-- Node3&#45;&gt;Node12 -->
<g id="edge20" class="edge">
<title>Node3&#45;&gt;Node12</title>
<path fill="none" stroke="#63b8ff" d="M508.41,-169.61C476.18,-164.39 424.92,-152.89 387,-129 368.08,-117.08 351.66,-97.14 341.36,-82.79"/>
<polygon fill="#63b8ff" stroke="#63b8ff" points="344.07,-80.55 335.52,-74.3 338.3,-84.52 344.07,-80.55"/>
</g>
<!-- Node16 -->
<g id="node16" class="node">
<title>Node16</title>
<g id="a_node16"><a xlink:href="Float_8hpp.html" target="_top" xlink:title=" ">
<polygon fill="white" stroke="#666666" points="546.5,-74 455.5,-74 455.5,-55 546.5,-55 546.5,-74"/>
<text text-anchor="middle" x="501" y="-62" font-family="Helvetica,sans-Serif" font-size="10.00">math/Float.hpp</text>
</a>
</g>
</g>
<!-- Node3&#45;&gt;Node16 -->
<g id="edge15" class="edge">
<title>Node3&#45;&gt;Node16</title>
<path fill="none" stroke="#63b8ff" d="M534.05,-164.88C529.17,-156.09 521.77,-141.94 517,-129 511.59,-114.31 507.37,-97.06 504.63,-84.24"/>
<polygon fill="#63b8ff" stroke="#63b8ff" points="508.03,-83.4 502.6,-74.3 501.17,-84.8 508.03,-83.4"/>
</g>
<!-- Node17 -->
<g id="node17" class="node">
<title>Node17</title>
<g id="a_node17"><a xlink:href="Complex_8hpp.html" target="_top" xlink:title=" ">
<polygon fill="white" stroke="#666666" points="636,-129 526,-129 526,-110 636,-110 636,-129"/>
<text text-anchor="middle" x="581" y="-117" font-family="Helvetica,sans-Serif" font-size="10.00">math/Complex.hpp</text>
</a>
</g>
</g>
<!-- Node3&#45;&gt;Node17 -->
<g id="edge17" class="edge">
<title>Node3&#45;&gt;Node17</title>
<path fill="none" stroke="#63b8ff" d="M545.94,-164.75C551.87,-157.26 560.57,-146.28 567.82,-137.13"/>
<polygon fill="#63b8ff" stroke="#63b8ff" points="570.73,-139.1 574.19,-129.09 565.24,-134.75 570.73,-139.1"/>
</g>
<!-- Node19 -->
<g id="node19" class="node">
<title>Node19</title>
<g id="a_node19"><a xlink:title=" ">
<polygon fill="#e0e0e0" stroke="#999999" points="692,-129 654,-129 654,-110 692,-110 692,-129"/>
<text text-anchor="middle" x="673" y="-117" font-family="Helvetica,sans-Serif" font-size="10.00">map</text>
</a>
</g>
</g>
<!-- Node3&#45;&gt;Node19 -->
<g id="edge21" class="edge">
<title>Node3&#45;&gt;Node19</title>
<path fill="none" stroke="#63b8ff" d="M560.53,-164.98C583.26,-155.99 619.2,-141.78 644.32,-131.84"/>
<polygon fill="#63b8ff" stroke="#63b8ff" points="645.69,-135.07 653.7,-128.13 643.11,-128.56 645.69,-135.07"/>
</g>
<!-- Node3&#45;&gt;Node20 -->
<g id="edge22" class="edge">
<title>Node3&#45;&gt;Node20</title>
<path fill="none" stroke="#63b8ff" d="M508.29,-167.26C459,-157.25 362.59,-137.68 311.55,-127.31"/>
<polygon fill="#63b8ff" stroke="#63b8ff" points="312.18,-123.87 301.68,-125.31 310.78,-130.73 312.18,-123.87"/>
</g>
<!-- Node3&#45;&gt;Node21 -->
<g id="edge23" class="edge">
<title>Node3&#45;&gt;Node21</title>
<path fill="none" stroke="#63b8ff" d="M569.69,-169.16C633.3,-160.17 780.26,-139.4 860.07,-128.12"/>
<polygon fill="#63b8ff" stroke="#63b8ff" points="860.99,-131.53 870.4,-126.66 860.01,-124.6 860.99,-131.53"/>
</g>
<!-- Node24 -->
<g id="node24" class="node">
<title>Node24</title>
<g id="a_node24"><a xlink:href="Exception_8hpp.html" target="_top" xlink:title=" ">
<polygon fill="white" stroke="#666666" points="814,-129 710,-129 710,-110 814,-110 814,-129"/>
<text text-anchor="middle" x="762" y="-117" font-family="Helvetica,sans-Serif" font-size="10.00">util/Exception.hpp</text>
</a>
</g>
</g>
<!-- Node3&#45;&gt;Node24 -->
<g id="edge26" class="edge">
<title>Node3&#45;&gt;Node24</title>
<path fill="none" stroke="#63b8ff" d="M569.54,-166.24C607.39,-157.25 672.24,-141.83 716.09,-131.41"/>
<polygon fill="#63b8ff" stroke="#63b8ff" points="717.01,-134.79 725.93,-129.07 715.39,-127.98 717.01,-134.79"/>
</g>
<!-- Node5 -->
<g id="node5" class="node">
<title>Node5</title>
<g id="a_node5"><a xlink:href="Time_8hpp.html" target="_top" xlink:title=" ">
<polygon fill="white" stroke="#666666" points="213.5,-74 132.5,-74 132.5,-55 213.5,-55 213.5,-74"/>
<text text-anchor="middle" x="173" y="-62" font-family="Helvetica,sans-Serif" font-size="10.00">util/Time.hpp</text>
</a>
</g>
</g>
<!-- Node4&#45;&gt;Node5 -->
<g id="edge4" class="edge">
<title>Node4&#45;&gt;Node5</title>
<path fill="none" stroke="#63b8ff" d="M395.75,-110.91C350.56,-101.69 274.17,-86.12 223.66,-75.83"/>
<polygon fill="#63b8ff" stroke="#63b8ff" points="224.1,-72.35 213.61,-73.78 222.71,-79.2 224.1,-72.35"/>
</g>
<!-- Node4&#45;&gt;Node12 -->
<g id="edge11" class="edge">
<title>Node4&#45;&gt;Node12</title>
<path fill="none" stroke="#63b8ff" d="M416.45,-109.98C400.11,-101.57 374.87,-88.59 355.87,-78.81"/>
<polygon fill="#63b8ff" stroke="#63b8ff" points="357.34,-75.63 346.85,-74.17 354.14,-81.86 357.34,-75.63"/>
</g>
<!-- Node13 -->
<g id="node13" class="node">
<title>Node13</title>
<g id="a_node13"><a xlink:title=" ">
<polygon fill="#e0e0e0" stroke="#999999" points="702,-74 642,-74 642,-55 702,-55 702,-74"/>
<text text-anchor="middle" x="672" y="-62" font-family="Helvetica,sans-Serif" font-size="10.00">iostream</text>
</a>
</g>
</g>
<!-- Node4&#45;&gt;Node13 -->
<g id="edge12" class="edge">
<title>Node4&#45;&gt;Node13</title>
<path fill="none" stroke="#63b8ff" d="M470.08,-110.28C513.87,-100.57 586.45,-84.47 631.63,-74.45"/>
<polygon fill="#63b8ff" stroke="#63b8ff" points="632.65,-77.81 641.66,-72.23 631.14,-70.98 632.65,-77.81"/>
</g>
<!-- Node14 -->
<g id="node14" class="node">
<title>Node14</title>
<g id="a_node14"><a xlink:title=" ">
<polygon fill="#e0e0e0" stroke="#999999" points="437.5,-74 370.5,-74 370.5,-55 437.5,-55 437.5,-74"/>
<text text-anchor="middle" x="404" y="-62" font-family="Helvetica,sans-Serif" font-size="10.00">streambuf</text>
</a>
</g>
</g>
<!-- Node4&#45;&gt;Node14 -->
<g id="edge13" class="edge">
<title>Node4&#45;&gt;Node14</title>
<path fill="none" stroke="#63b8ff" d="M428.21,-109.75C424.24,-102.49 418.47,-91.95 413.57,-82.98"/>
<polygon fill="#63b8ff" stroke="#63b8ff" points="416.57,-81.18 408.7,-74.09 410.43,-84.54 416.57,-81.18"/>
</g>
<!-- Node4&#45;&gt;Node15 -->
<g id="edge14" class="edge">
<title>Node4&#45;&gt;Node15</title>
<path fill="none" stroke="#63b8ff" d="M470.11,-112.93C537.66,-102.79 679.98,-81.42 748.1,-71.19"/>
<polygon fill="#63b8ff" stroke="#63b8ff" points="749.01,-74.59 758.38,-69.65 747.97,-67.67 749.01,-74.59"/>
</g>
<!-- Node6 -->
<g id="node6" class="node">
<title>Node6</title>
<g id="a_node6"><a xlink:title=" ">
<polygon fill="#e0e0e0" stroke="#999999" points="259,-19 215,-19 215,0 259,0 259,-19"/>
<text text-anchor="middle" x="237" y="-7" font-family="Helvetica,sans-Serif" font-size="10.00">ctime</text>
</a>
</g>
</g>
<!-- Node5&#45;&gt;Node6 -->
<g id="edge5" class="edge">
<title>Node5&#45;&gt;Node6</title>
<path fill="none" stroke="#63b8ff" d="M183.28,-54.98C192.84,-47.07 207.28,-35.11 218.78,-25.58"/>
<polygon fill="#63b8ff" stroke="#63b8ff" points="221.06,-28.24 226.53,-19.17 216.6,-22.85 221.06,-28.24"/>
</g>
<!-- Node5&#45;&gt;Node7 -->
<g id="edge6" class="edge">
<title>Node5&#45;&gt;Node7</title>
<path fill="none" stroke="#63b8ff" d="M150.35,-54.98C127.15,-46.27 90.88,-32.63 64.6,-22.75"/>
<polygon fill="#63b8ff" stroke="#63b8ff" points="65.66,-19.41 55.07,-19.17 63.2,-25.97 65.66,-19.41"/>
</g>
<!-- Node8 -->
<g id="node8" class="node">
<title>Node8</title>
<g id="a_node8"><a xlink:title=" ">
<polygon fill="#e0e0e0" stroke="#999999" points="334.5,-19 277.5,-19 277.5,0 334.5,0 334.5,-19"/>
<text text-anchor="middle" x="306" y="-7" font-family="Helvetica,sans-Serif" font-size="10.00">ostream</text>
</a>
</g>
</g>
<!-- Node5&#45;&gt;Node8 -->
<g id="edge7" class="edge">
<title>Node5&#45;&gt;Node8</title>
<path fill="none" stroke="#63b8ff" d="M194.37,-54.98C216.15,-46.3 250.16,-32.75 274.92,-22.88"/>
<polygon fill="#63b8ff" stroke="#63b8ff" points="276.25,-26.12 284.24,-19.17 273.66,-19.62 276.25,-26.12"/>
</g>
<!-- Node9 -->
<g id="node9" class="node">
<title>Node9</title>
<g id="a_node9"><a xlink:title=" ">
<polygon fill="#e0e0e0" stroke="#999999" points="131,-19 75,-19 75,0 131,0 131,-19"/>
<text text-anchor="middle" x="103" y="-7" font-family="Helvetica,sans-Serif" font-size="10.00">iomanip</text>
</a>
</g>
</g>
<!-- Node5&#45;&gt;Node9 -->
<g id="edge8" class="edge">
<title>Node5&#45;&gt;Node9</title>
<path fill="none" stroke="#63b8ff" d="M161.75,-54.98C151.2,-47 135.2,-34.88 122.56,-25.31"/>
<polygon fill="#63b8ff" stroke="#63b8ff" points="124.54,-22.42 114.45,-19.17 120.31,-28 124.54,-22.42"/>
</g>
<!-- Node5&#45;&gt;Node10 -->
<g id="edge9" class="edge">
<title>Node5&#45;&gt;Node10</title>
<path fill="none" stroke="#63b8ff" d="M213.63,-57.88C287.94,-47.59 444.81,-25.89 517.51,-15.83"/>
<polygon fill="#63b8ff" stroke="#63b8ff" points="518.18,-19.27 527.61,-14.43 517.22,-12.33 518.18,-19.27"/>
</g>
<!-- Node11 -->
<g id="node11" class="node">
<title>Node11</title>
<g id="a_node11"><a xlink:title=" ">
<polygon fill="#e0e0e0" stroke="#999999" points="196.5,-19 149.5,-19 149.5,0 196.5,0 196.5,-19"/>
<text text-anchor="middle" x="173" y="-7" font-family="Helvetica,sans-Serif" font-size="10.00">cmath</text>
</a>
</g>
</g>
<!-- Node5&#45;&gt;Node11 -->
<g id="edge10" class="edge">
<title>Node5&#45;&gt;Node11</title>
<path fill="none" stroke="#63b8ff" d="M173,-54.75C173,-47.8 173,-37.85 173,-29.13"/>
<polygon fill="#63b8ff" stroke="#63b8ff" points="176.5,-29.09 173,-19.09 169.5,-29.09 176.5,-29.09"/>
</g>
<!-- Node16&#45;&gt;Node8 -->
<g id="edge16" class="edge">
<title>Node16&#45;&gt;Node8</title>
<path fill="none" stroke="#63b8ff" d="M469.67,-54.98C435.62,-45.73 381.19,-30.94 344.54,-20.98"/>
<polygon fill="#63b8ff" stroke="#63b8ff" points="345.28,-17.55 334.71,-18.3 343.44,-24.3 345.28,-17.55"/>
</g>
<!-- Node17&#45;&gt;Node16 -->
<g id="edge18" class="edge">
<title>Node17&#45;&gt;Node16</title>
<path fill="none" stroke="#63b8ff" d="M568.15,-109.98C555.86,-101.84 537.09,-89.41 522.52,-79.76"/>
<polygon fill="#63b8ff" stroke="#63b8ff" points="524.36,-76.78 514.09,-74.17 520.49,-82.61 524.36,-76.78"/>
</g>
<!-- Node18 -->
<g id="node18" class="node">
<title>Node18</title>
<g id="a_node18"><a xlink:title=" ">
<polygon fill="#e0e0e0" stroke="#999999" points="623.5,-74 564.5,-74 564.5,-55 623.5,-55 623.5,-74"/>
<text text-anchor="middle" x="594" y="-62" font-family="Helvetica,sans-Serif" font-size="10.00">complex</text>
</a>
</g>
</g>
<!-- Node17&#45;&gt;Node18 -->
<g id="edge19" class="edge">
<title>Node17&#45;&gt;Node18</title>
<path fill="none" stroke="#63b8ff" d="M583.15,-109.75C584.87,-102.72 587.35,-92.62 589.5,-83.84"/>
<polygon fill="#63b8ff" stroke="#63b8ff" points="592.91,-84.63 591.89,-74.09 586.11,-82.97 592.91,-84.63"/>
</g>
<!-- Node22 -->
<g id="node22" class="node">
<title>Node22</title>
<g id="a_node22"><a xlink:href="CTF_8hpp.html" target="_top" xlink:title=" ">
<polygon fill="white" stroke="#666666" points="951,-74 877,-74 877,-55 951,-55 951,-74"/>
<text text-anchor="middle" x="914" y="-62" font-family="Helvetica,sans-Serif" font-size="10.00">util/CTF.hpp</text>
</a>
</g>
</g>
<!-- Node21&#45;&gt;Node22 -->
<g id="edge24" class="edge">
<title>Node21&#45;&gt;Node22</title>
<path fill="none" stroke="#63b8ff" d="M914,-109.75C914,-102.8 914,-92.85 914,-84.13"/>
<polygon fill="#63b8ff" stroke="#63b8ff" points="917.5,-84.09 914,-74.09 910.5,-84.09 917.5,-84.09"/>
</g>
<!-- Node23 -->
<g id="node23" class="node">
<title>Node23</title>
<g id="a_node23"><a xlink:title=" ">
<polygon fill="#e0e0e0" stroke="#999999" points="939,-19 889,-19 889,0 939,0 939,-19"/>
<text text-anchor="middle" x="914" y="-7" font-family="Helvetica,sans-Serif" font-size="10.00">ctf.hpp</text>
</a>
</g>
</g>
<!-- Node22&#45;&gt;Node23 -->
<g id="edge25" class="edge">
<title>Node22&#45;&gt;Node23</title>
<path fill="none" stroke="#63b8ff" d="M914,-54.75C914,-47.8 914,-37.85 914,-29.13"/>
<polygon fill="#63b8ff" stroke="#63b8ff" points="917.5,-29.09 914,-19.09 910.5,-29.09 917.5,-29.09"/>
</g>
<!-- Node24&#45;&gt;Node10 -->
<g id="edge28" class="edge">
<title>Node24&#45;&gt;Node10</title>
<path fill="none" stroke="#63b8ff" d="M757.31,-109.68C749.53,-95.91 732.66,-69.41 711,-55 675.55,-31.43 627.54,-20.16 594.38,-14.89"/>
<polygon fill="#63b8ff" stroke="#63b8ff" points="594.58,-11.38 584.18,-13.39 593.56,-18.31 594.58,-11.38"/>
</g>
<!-- Node24&#45;&gt;Node12 -->
<g id="edge27" class="edge">
<title>Node24&#45;&gt;Node12</title>
<path fill="none" stroke="#63b8ff" d="M709.77,-111.11C706.81,-110.72 703.87,-110.35 701,-110 553.41,-91.91 512.08,-101.74 362.28,-73.95"/>
<polygon fill="#63b8ff" stroke="#63b8ff" points="362.72,-70.47 352.25,-72.07 361.43,-77.35 362.72,-70.47"/>
</g>
<!-- Node24&#45;&gt;Node13 -->
<g id="edge29" class="edge">
<title>Node24&#45;&gt;Node13</title>
<path fill="none" stroke="#63b8ff" d="M747.54,-109.98C733.58,-101.77 712.21,-89.18 695.75,-79.49"/>
<polygon fill="#63b8ff" stroke="#63b8ff" points="697.12,-76.23 686.72,-74.17 693.56,-82.26 697.12,-76.23"/>
</g>
<!-- Node25&#45;&gt;Node4 -->
<g id="edge39" class="edge">
<title>Node25&#45;&gt;Node4</title>
<path fill="none" stroke="#63b8ff" d="M255.06,-164.98C291.42,-155.89 349.17,-141.46 388.97,-131.51"/>
<polygon fill="#63b8ff" stroke="#63b8ff" points="389.82,-134.9 398.67,-129.08 388.12,-128.11 389.82,-134.9"/>
</g>
<!-- Node25&#45;&gt;Node7 -->
<g id="edge40" class="edge">
<title>Node25&#45;&gt;Node7</title>
<path fill="none" stroke="#63b8ff" d="M177.77,-173.62C140.52,-171.3 87.99,-161.81 57,-129 31.33,-101.83 29.26,-55.25 30.39,-29.32"/>
<polygon fill="#63b8ff" stroke="#63b8ff" points="33.9,-29.21 31.06,-19 26.92,-28.76 33.9,-29.21"/>
</g>
<!-- Node25&#45;&gt;Node12 -->
<g id="edge42" class="edge">
<title>Node25&#45;&gt;Node12</title>
<path fill="none" stroke="#63b8ff" d="M222.29,-164.67C224.65,-151.38 230.78,-126.06 245,-110 259.26,-93.9 280.75,-82.73 298.56,-75.6"/>
<polygon fill="#63b8ff" stroke="#63b8ff" points="299.87,-78.84 308,-72.05 297.41,-72.29 299.87,-78.84"/>
</g>
<!-- Node25&#45;&gt;Node20 -->
<g id="edge41" class="edge">
<title>Node25&#45;&gt;Node20</title>
<path fill="none" stroke="#63b8ff" d="M230.16,-164.98C238.5,-157.23 251.03,-145.58 261.18,-136.14"/>
<polygon fill="#63b8ff" stroke="#63b8ff" points="263.74,-138.54 268.68,-129.17 258.97,-133.42 263.74,-138.54"/>
</g>
<!-- Node26 -->
<g id="node26" class="node">
<title>Node26</title>
<g id="a_node26"><a xlink:href="SourceLocation_8hpp.html" target="_top" xlink:title=" ">
<polygon fill="white" stroke="#666666" points="197.5,-129 66.5,-129 66.5,-110 197.5,-110 197.5,-129"/>
<text text-anchor="middle" x="132" y="-117" font-family="Helvetica,sans-Serif" font-size="10.00">util/SourceLocation.hpp</text>
</a>
</g>
</g>
<!-- Node25&#45;&gt;Node26 -->
<g id="edge35" class="edge">
<title>Node25&#45;&gt;Node26</title>
<path fill="none" stroke="#63b8ff" d="M206.7,-164.98C192.9,-156.77 171.76,-144.18 155.49,-134.49"/>
<polygon fill="#63b8ff" stroke="#63b8ff" points="156.94,-131.28 146.56,-129.17 153.36,-137.29 156.94,-131.28"/>
</g>
<!-- Node26&#45;&gt;Node8 -->
<g id="edge38" class="edge">
<title>Node26&#45;&gt;Node8</title>
<path fill="none" stroke="#63b8ff" d="M151.88,-109.97C170.51,-101.69 198.86,-88.29 222,-74 245.97,-59.19 271.53,-39.2 288.07,-25.63"/>
<polygon fill="#63b8ff" stroke="#63b8ff" points="290.38,-28.26 295.84,-19.18 285.91,-22.87 290.38,-28.26"/>
</g>
<!-- Node26&#45;&gt;Node10 -->
<g id="edge37" class="edge">
<title>Node26&#45;&gt;Node10</title>
<path fill="none" stroke="#63b8ff" d="M155.09,-109.87C178.89,-100.95 217.08,-86.59 250,-74 271.82,-65.66 276.49,-61.25 299,-55 375.18,-33.86 466.98,-20.86 517.66,-14.73"/>
<polygon fill="#63b8ff" stroke="#63b8ff" points="518.32,-18.17 527.84,-13.52 517.49,-11.22 518.32,-18.17"/>
</g>
<!-- Node26&#45;&gt;Node12 -->
<g id="edge36" class="edge">
<title>Node26&#45;&gt;Node12</title>
<path fill="none" stroke="#63b8ff" d="M163.81,-109.98C200.68,-100.12 261.1,-83.94 298.03,-74.06"/>
<polygon fill="#63b8ff" stroke="#63b8ff" points="299.04,-77.41 307.79,-71.45 297.23,-70.65 299.04,-77.41"/>
</g>
</g>
</svg>
