<?xml version="1.0" encoding="UTF-8" standalone="no"?>
<!DOCTYPE svg PUBLIC "-//W3C//DTD SVG 1.1//EN"
 "http://www.w3.org/Graphics/SVG/1.1/DTD/svg11.dtd">
<!-- Generated by graphviz version 5.0.1 (0)
 -->
<!-- Title: ParticleHoleCoulombVertexReader.cxx Pages: 1 -->
<svg width="2427pt" height="386pt"
 viewBox="0.00 0.00 2426.97 386.00" xmlns="http://www.w3.org/2000/svg" xmlns:xlink="http://www.w3.org/1999/xlink">
<g id="graph0" class="graph" transform="scale(1 1) rotate(0) translate(4 382)">
<title>ParticleHoleCoulombVertexReader.cxx</title>
<!-- Node1 -->
<g id="node1" class="node">
<title>Node1</title>
<g id="a_node1"><a xlink:title=" ">
<polygon fill="#bfbfbf" stroke="black" points="1430.47,-347.5 1430.47,-377.5 1580.47,-377.5 1580.47,-347.5 1430.47,-347.5"/>
<text text-anchor="start" x="1438.47" y="-365.5" font-family="Helvetica,sans-Serif" font-size="10.00">ParticleHoleCoulombVertex</text>
<text text-anchor="middle" x="1505.47" y="-354.5" font-family="Helvetica,sans-Serif" font-size="10.00">Reader.cxx</text>
</a>
</g>
</g>
<!-- Node2 -->
<g id="node2" class="node">
<title>Node2</title>
<g id="a_node2"><a xlink:href="ParticleHoleCoulombVertexReader_8hpp.html" target="_top" xlink:title=" ">
<polygon fill="none" stroke="black" points="1476.47,-280.5 1476.47,-310.5 1650.47,-310.5 1650.47,-280.5 1476.47,-280.5"/>
<text text-anchor="start" x="1484.47" y="-298.5" font-family="Helvetica,sans-Serif" font-size="10.00">algorithms/ParticleHoleCoulomb</text>
<text text-anchor="middle" x="1563.47" y="-287.5" font-family="Helvetica,sans-Serif" font-size="10.00">VertexReader.hpp</text>
</a>
</g>
</g>
<!-- Node1&#45;&gt;Node2 -->
<g id="edge1" class="edge">
<title>Node1&#45;&gt;Node2</title>
<path fill="none" stroke="midnightblue" d="M1518.06,-347.4C1525.66,-338.88 1535.5,-327.85 1544.08,-318.23"/>
<polygon fill="midnightblue" stroke="midnightblue" points="1546.87,-320.37 1550.91,-310.58 1541.64,-315.71 1546.87,-320.37"/>
</g>
<!-- Node5 -->
<g id="node5" class="node">
<title>Node5</title>
<g id="a_node5"><a xlink:href="Log_8hpp.html" target="_top" xlink:title=" ">
<polygon fill="none" stroke="black" points="1421.47,-112.5 1421.47,-131.5 1495.47,-131.5 1495.47,-112.5 1421.47,-112.5"/>
<text text-anchor="middle" x="1458.47" y="-119.5" font-family="Helvetica,sans-Serif" font-size="10.00">util/Log.hpp</text>
</a>
</g>
</g>
<!-- Node1&#45;&gt;Node5 -->
<g id="edge51" class="edge">
<title>Node1&#45;&gt;Node5</title>
<path fill="none" stroke="midnightblue" d="M1487.09,-347.28C1476.85,-338.16 1465.08,-325.36 1459.47,-311 1436.77,-252.81 1447.45,-176.56 1454.29,-141.77"/>
<polygon fill="midnightblue" stroke="midnightblue" points="1457.79,-142.15 1456.41,-131.65 1450.94,-140.72 1457.79,-142.15"/>
</g>
<!-- Node16 -->
<g id="node16" class="node">
<title>Node16</title>
<g id="a_node16"><a xlink:title=" ">
<polygon fill="none" stroke="#bfbfbf" points="1172.97,-56.5 1172.97,-75.5 1227.97,-75.5 1227.97,-56.5 1172.97,-56.5"/>
<text text-anchor="middle" x="1200.47" y="-63.5" font-family="Helvetica,sans-Serif" font-size="10.00">fstream</text>
</a>
</g>
</g>
<!-- Node1&#45;&gt;Node16 -->
<g id="edge84" class="edge">
<title>Node1&#45;&gt;Node16</title>
<path fill="none" stroke="midnightblue" d="M1430.11,-359.27C1345.98,-352.28 1221.47,-326.49 1221.47,-235 1221.47,-235 1221.47,-235 1221.47,-177 1221.47,-144.38 1212.46,-107.28 1206.24,-85.57"/>
<polygon fill="midnightblue" stroke="midnightblue" points="1209.52,-84.32 1203.31,-75.73 1202.81,-86.32 1209.52,-84.32"/>
</g>
<!-- Node22 -->
<g id="node22" class="node">
<title>Node22</title>
<g id="a_node22"><a xlink:href="Tensor_8hpp.html" target="_top" xlink:title=" ">
<polygon fill="none" stroke="black" points="2331.97,-112.5 2331.97,-131.5 2418.97,-131.5 2418.97,-112.5 2331.97,-112.5"/>
<text text-anchor="middle" x="2375.47" y="-119.5" font-family="Helvetica,sans-Serif" font-size="10.00">util/Tensor.hpp</text>
</a>
</g>
</g>
<!-- Node1&#45;&gt;Node22 -->
<g id="edge83" class="edge">
<title>Node1&#45;&gt;Node22</title>
<path fill="none" stroke="midnightblue" d="M1580.61,-355.66C1667.31,-348.24 1813.93,-333.62 1938.47,-311 2060.12,-288.91 2090.14,-279.82 2208.47,-244 2278.98,-222.66 2317.19,-244.49 2364.47,-188 2375.14,-175.26 2377.25,-156.06 2377.07,-141.83"/>
<polygon fill="midnightblue" stroke="midnightblue" points="2380.56,-141.51 2376.56,-131.7 2373.57,-141.86 2380.56,-141.51"/>
</g>
<!-- Node25 -->
<g id="node25" class="node">
<title>Node25</title>
<g id="a_node25"><a xlink:href="Exception_8hpp.html" target="_top" xlink:title=" ">
<polygon fill="none" stroke="black" points="1627.47,-112.5 1627.47,-131.5 1731.47,-131.5 1731.47,-112.5 1627.47,-112.5"/>
<text text-anchor="middle" x="1679.47" y="-119.5" font-family="Helvetica,sans-Serif" font-size="10.00">util/Exception.hpp</text>
</a>
</g>
</g>
<!-- Node1&#45;&gt;Node25 -->
<g id="edge52" class="edge">
<title>Node1&#45;&gt;Node25</title>
<path fill="none" stroke="midnightblue" d="M1580.82,-354.17C1609.69,-347.43 1640.28,-334.74 1659.47,-311 1699.69,-261.27 1690.27,-178.33 1683.48,-141.55"/>
<polygon fill="midnightblue" stroke="midnightblue" points="1686.9,-140.82 1681.51,-131.7 1680.04,-142.19 1686.9,-140.82"/>
</g>
<!-- Node26 -->
<g id="node26" class="node">
<title>Node26</title>
<g id="a_node26"><a xlink:href="DryTensor_8hpp.html" target="_top" xlink:title=" ">
<polygon fill="none" stroke="black" points="1520.47,-168.5 1520.47,-187.5 1606.47,-187.5 1606.47,-168.5 1520.47,-168.5"/>
<text text-anchor="middle" x="1563.47" y="-175.5" font-family="Helvetica,sans-Serif" font-size="10.00">DryTensor.hpp</text>
</a>
</g>
</g>
<!-- Node1&#45;&gt;Node26 -->
<g id="edge50" class="edge">
<title>Node1&#45;&gt;Node26</title>
<path fill="none" stroke="midnightblue" d="M1490.6,-347.1C1482.02,-337.73 1472.07,-324.74 1467.47,-311 1463.11,-297.93 1462.36,-292.79 1467.47,-280 1482.43,-242.55 1518.62,-211.04 1542.04,-193.62"/>
<polygon fill="midnightblue" stroke="midnightblue" points="1544.26,-196.34 1550.32,-187.65 1540.16,-190.66 1544.26,-196.34"/>
</g>
<!-- Node28 -->
<g id="node28" class="node">
<title>Node28</title>
<g id="a_node28"><a xlink:href="ComplexTensor_8hpp.html" target="_top" xlink:title=" ">
<polygon fill="none" stroke="black" points="2167.47,-168.5 2167.47,-187.5 2307.47,-187.5 2307.47,-168.5 2167.47,-168.5"/>
<text text-anchor="middle" x="2237.47" y="-175.5" font-family="Helvetica,sans-Serif" font-size="10.00">math/ComplexTensor.hpp</text>
</a>
</g>
</g>
<!-- Node1&#45;&gt;Node28 -->
<g id="edge47" class="edge">
<title>Node1&#45;&gt;Node28</title>
<path fill="none" stroke="midnightblue" d="M1580.48,-353.91C1696.76,-340.61 1926.44,-308.18 2111.47,-244 2149.66,-230.75 2190.7,-207.76 2215.22,-192.97"/>
<polygon fill="midnightblue" stroke="midnightblue" points="2217.36,-195.76 2224.07,-187.56 2213.71,-189.79 2217.36,-195.76"/>
</g>
<!-- Node29 -->
<g id="node29" class="node">
<title>Node29</title>
<g id="a_node29"><a xlink:href="Sisi4s_8hpp.html" target="_top" xlink:title=" ">
<polygon fill="none" stroke="black" points="1314.47,-224.5 1314.47,-243.5 1380.47,-243.5 1380.47,-224.5 1314.47,-224.5"/>
<text text-anchor="middle" x="1347.47" y="-231.5" font-family="Helvetica,sans-Serif" font-size="10.00">Sisi4s.hpp</text>
</a>
</g>
</g>
<!-- Node1&#45;&gt;Node29 -->
<g id="edge53" class="edge">
<title>Node1&#45;&gt;Node29</title>
<path fill="none" stroke="midnightblue" d="M1461.06,-347.48C1439.86,-339.25 1415.12,-327.22 1396.47,-311 1377.84,-294.79 1363.6,-269.79 1355.39,-252.94"/>
<polygon fill="midnightblue" stroke="midnightblue" points="1358.47,-251.24 1351.08,-243.65 1352.12,-254.19 1358.47,-251.24"/>
</g>
<!-- Node3 -->
<g id="node3" class="node">
<title>Node3</title>
<g id="a_node3"><a xlink:href="Algorithm_8hpp.html" target="_top" xlink:title=" ">
<polygon fill="none" stroke="black" points="1960.97,-224.5 1960.97,-243.5 2101.97,-243.5 2101.97,-224.5 1960.97,-224.5"/>
<text text-anchor="middle" x="2031.47" y="-231.5" font-family="Helvetica,sans-Serif" font-size="10.00">algorithms/Algorithm.hpp</text>
</a>
</g>
</g>
<!-- Node2&#45;&gt;Node3 -->
<g id="edge2" class="edge">
<title>Node2&#45;&gt;Node3</title>
<path fill="none" stroke="midnightblue" d="M1650.68,-283.41C1737.97,-272.32 1870.98,-255.4 1954.48,-244.79"/>
<polygon fill="midnightblue" stroke="midnightblue" points="1954.93,-248.26 1964.41,-243.53 1954.05,-241.32 1954.93,-248.26"/>
</g>
<!-- Node8 -->
<g id="node8" class="node">
<title>Node8</title>
<g id="a_node8"><a xlink:title=" ">
<polygon fill="none" stroke="#bfbfbf" points="1328.47,-0.5 1328.47,-19.5 1378.47,-19.5 1378.47,-0.5 1328.47,-0.5"/>
<text text-anchor="middle" x="1353.47" y="-7.5" font-family="Helvetica,sans-Serif" font-size="10.00">cstdint</text>
</a>
</g>
</g>
<!-- Node2&#45;&gt;Node8 -->
<g id="edge45" class="edge">
<title>Node2&#45;&gt;Node8</title>
<path fill="none" stroke="midnightblue" d="M1551.2,-280.5C1538.49,-266.11 1517.94,-243.17 1499.47,-224 1458.92,-181.9 1438.53,-180.21 1405.47,-132 1382.83,-98.97 1366.82,-54.49 1358.98,-29.69"/>
<polygon fill="midnightblue" stroke="midnightblue" points="1362.22,-28.33 1355.95,-19.8 1355.53,-30.38 1362.22,-28.33"/>
</g>
<!-- Node2&#45;&gt;Node16 -->
<g id="edge46" class="edge">
<title>Node2&#45;&gt;Node16</title>
<path fill="none" stroke="midnightblue" d="M1546.01,-280.3C1515.6,-255.9 1450.51,-205.03 1391.47,-168 1335.47,-132.87 1266.05,-98.24 1228.23,-80.07"/>
<polygon fill="midnightblue" stroke="midnightblue" points="1229.41,-76.76 1218.88,-75.61 1226.39,-83.07 1229.41,-76.76"/>
</g>
<!-- Node2&#45;&gt;Node22 -->
<g id="edge44" class="edge">
<title>Node2&#45;&gt;Node22</title>
<path fill="none" stroke="midnightblue" d="M1650.82,-290.39C1759.39,-284.38 1950.08,-270.85 2111.47,-244 2215.68,-226.66 2259.63,-253.55 2342.47,-188 2357.18,-176.36 2365.92,-156.41 2370.67,-141.67"/>
<polygon fill="midnightblue" stroke="midnightblue" points="2374.16,-142.22 2373.56,-131.65 2367.43,-140.29 2374.16,-142.22"/>
</g>
<!-- Node2&#45;&gt;Node26 -->
<g id="edge35" class="edge">
<title>Node2&#45;&gt;Node26</title>
<path fill="none" stroke="midnightblue" d="M1563.47,-280.34C1563.47,-259.62 1563.47,-221.02 1563.47,-197.9"/>
<polygon fill="midnightblue" stroke="midnightblue" points="1566.97,-197.67 1563.47,-187.67 1559.97,-197.67 1566.97,-197.67"/>
</g>
<!-- Node4 -->
<g id="node4" class="node">
<title>Node4</title>
<g id="a_node4"><a xlink:href="Data_8hpp.html" target="_top" xlink:title=" ">
<polygon fill="none" stroke="black" points="1971.97,-168.5 1971.97,-187.5 2032.97,-187.5 2032.97,-168.5 1971.97,-168.5"/>
<text text-anchor="middle" x="2002.47" y="-175.5" font-family="Helvetica,sans-Serif" font-size="10.00">Data.hpp</text>
</a>
</g>
</g>
<!-- Node3&#45;&gt;Node4 -->
<g id="edge3" class="edge">
<title>Node3&#45;&gt;Node4</title>
<path fill="none" stroke="midnightblue" d="M2026.69,-224.08C2022.72,-216.69 2016.95,-205.95 2012.04,-196.81"/>
<polygon fill="midnightblue" stroke="midnightblue" points="2014.99,-194.91 2007.17,-187.75 2008.82,-198.22 2014.99,-194.91"/>
</g>
<!-- Node11 -->
<g id="node11" class="node">
<title>Node11</title>
<g id="a_node11"><a xlink:title=" ">
<polygon fill="none" stroke="#bfbfbf" points="1723.47,-0.5 1723.47,-19.5 1779.47,-19.5 1779.47,-0.5 1723.47,-0.5"/>
<text text-anchor="middle" x="1751.47" y="-7.5" font-family="Helvetica,sans-Serif" font-size="10.00">sstream</text>
</a>
</g>
</g>
<!-- Node3&#45;&gt;Node11 -->
<g id="edge33" class="edge">
<title>Node3&#45;&gt;Node11</title>
<path fill="none" stroke="midnightblue" d="M2038.1,-224.27C2044.24,-215.61 2052.93,-201.67 2056.47,-188 2067.61,-145.02 2073.92,-92.01 2037.47,-56 2020.09,-38.83 1864.13,-21.78 1790.12,-14.58"/>
<polygon fill="midnightblue" stroke="midnightblue" points="1790.11,-11.06 1779.82,-13.59 1789.44,-18.03 1790.11,-11.06"/>
</g>
<!-- Node13 -->
<g id="node13" class="node">
<title>Node13</title>
<g id="a_node13"><a xlink:title=" ">
<polygon fill="none" stroke="#bfbfbf" points="1679.47,-56.5 1679.47,-75.5 1723.47,-75.5 1723.47,-56.5 1679.47,-56.5"/>
<text text-anchor="middle" x="1701.47" y="-63.5" font-family="Helvetica,sans-Serif" font-size="10.00">string</text>
</a>
</g>
</g>
<!-- Node3&#45;&gt;Node13 -->
<g id="edge31" class="edge">
<title>Node3&#45;&gt;Node13</title>
<path fill="none" stroke="midnightblue" d="M1999.18,-224.45C1948.56,-210.18 1848.55,-178.42 1773.47,-132 1751.44,-118.38 1729.89,-97.66 1716.2,-83.29"/>
<polygon fill="midnightblue" stroke="midnightblue" points="1718.48,-80.6 1709.1,-75.67 1713.35,-85.37 1718.48,-80.6"/>
</g>
<!-- Node21 -->
<g id="node21" class="node">
<title>Node21</title>
<g id="a_node21"><a xlink:title=" ">
<polygon fill="none" stroke="#bfbfbf" points="1980.97,-56.5 1980.97,-75.5 2027.97,-75.5 2027.97,-56.5 1980.97,-56.5"/>
<text text-anchor="middle" x="2004.47" y="-63.5" font-family="Helvetica,sans-Serif" font-size="10.00">vector</text>
</a>
</g>
</g>
<!-- Node3&#45;&gt;Node21 -->
<g id="edge32" class="edge">
<title>Node3&#45;&gt;Node21</title>
<path fill="none" stroke="midnightblue" d="M2034.93,-224.16C2039.38,-211.64 2046.12,-188.04 2042.47,-168 2036.94,-137.55 2022.72,-104.34 2013.33,-84.61"/>
<polygon fill="midnightblue" stroke="midnightblue" points="2016.47,-83.06 2008.94,-75.61 2010.18,-86.13 2016.47,-83.06"/>
</g>
<!-- Node3&#45;&gt;Node22 -->
<g id="edge34" class="edge">
<title>Node3&#45;&gt;Node22</title>
<path fill="none" stroke="midnightblue" d="M2102.1,-227.24C2174.18,-220.42 2280.44,-207.46 2316.47,-188 2337.13,-176.85 2354.29,-155.58 2364.68,-140.41"/>
<polygon fill="midnightblue" stroke="midnightblue" points="2367.7,-142.19 2370.25,-131.9 2361.85,-138.35 2367.7,-142.19"/>
</g>
<!-- Node4&#45;&gt;Node5 -->
<g id="edge4" class="edge">
<title>Node4&#45;&gt;Node5</title>
<path fill="none" stroke="midnightblue" d="M1971.85,-173.99C1898.55,-166.8 1707.22,-147.98 1547.47,-132 1533.93,-130.65 1519.22,-129.16 1505.74,-127.8"/>
<polygon fill="midnightblue" stroke="midnightblue" points="1506.01,-124.31 1495.71,-126.78 1505.31,-131.27 1506.01,-124.31"/>
</g>
<!-- Node4&#45;&gt;Node13 -->
<g id="edge21" class="edge">
<title>Node4&#45;&gt;Node13</title>
<path fill="none" stroke="midnightblue" d="M1971.9,-172.2C1934.57,-165.74 1869.92,-152.63 1817.47,-132 1782.54,-118.26 1745.19,-95.75 1722.58,-81.16"/>
<polygon fill="midnightblue" stroke="midnightblue" points="1724.41,-78.17 1714.12,-75.62 1720.57,-84.03 1724.41,-78.17"/>
</g>
<!-- Node17 -->
<g id="node17" class="node">
<title>Node17</title>
<g id="a_node17"><a xlink:href="Float_8hpp.html" target="_top" xlink:title=" ">
<polygon fill="none" stroke="black" points="2127.97,-56.5 2127.97,-75.5 2218.97,-75.5 2218.97,-56.5 2127.97,-56.5"/>
<text text-anchor="middle" x="2173.47" y="-63.5" font-family="Helvetica,sans-Serif" font-size="10.00">math/Float.hpp</text>
</a>
</g>
</g>
<!-- Node4&#45;&gt;Node17 -->
<g id="edge16" class="edge">
<title>Node4&#45;&gt;Node17</title>
<path fill="none" stroke="midnightblue" d="M2015.89,-168.37C2045.24,-149.49 2115.36,-104.38 2151.34,-81.24"/>
<polygon fill="midnightblue" stroke="midnightblue" points="2153.6,-83.95 2160.12,-75.59 2149.82,-78.06 2153.6,-83.95"/>
</g>
<!-- Node18 -->
<g id="node18" class="node">
<title>Node18</title>
<g id="a_node18"><a xlink:href="Complex_8hpp.html" target="_top" xlink:title=" ">
<polygon fill="none" stroke="black" points="2165.47,-112.5 2165.47,-131.5 2275.47,-131.5 2275.47,-112.5 2165.47,-112.5"/>
<text text-anchor="middle" x="2220.47" y="-119.5" font-family="Helvetica,sans-Serif" font-size="10.00">math/Complex.hpp</text>
</a>
</g>
</g>
<!-- Node4&#45;&gt;Node18 -->
<g id="edge18" class="edge">
<title>Node4&#45;&gt;Node18</title>
<path fill="none" stroke="midnightblue" d="M2033.25,-169.38C2070.52,-160.15 2133.57,-144.53 2176.1,-133.99"/>
<polygon fill="midnightblue" stroke="midnightblue" points="2177.04,-137.37 2185.9,-131.56 2175.35,-130.57 2177.04,-137.37"/>
</g>
<!-- Node20 -->
<g id="node20" class="node">
<title>Node20</title>
<g id="a_node20"><a xlink:title=" ">
<polygon fill="none" stroke="#bfbfbf" points="1421.47,-56.5 1421.47,-75.5 1459.47,-75.5 1459.47,-56.5 1421.47,-56.5"/>
<text text-anchor="middle" x="1440.47" y="-63.5" font-family="Helvetica,sans-Serif" font-size="10.00">map</text>
</a>
</g>
</g>
<!-- Node4&#45;&gt;Node20 -->
<g id="edge22" class="edge">
<title>Node4&#45;&gt;Node20</title>
<path fill="none" stroke="midnightblue" d="M1971.94,-175.84C1906.37,-172.82 1747.61,-162.7 1618.47,-132 1564,-119.05 1503.28,-94.59 1468.7,-79.65"/>
<polygon fill="midnightblue" stroke="midnightblue" points="1469.82,-76.32 1459.25,-75.52 1467.02,-82.73 1469.82,-76.32"/>
</g>
<!-- Node4&#45;&gt;Node21 -->
<g id="edge23" class="edge">
<title>Node4&#45;&gt;Node21</title>
<path fill="none" stroke="midnightblue" d="M2002.63,-168.37C2002.95,-150.62 2003.7,-109.67 2004.14,-85.6"/>
<polygon fill="midnightblue" stroke="midnightblue" points="2007.64,-85.65 2004.32,-75.59 2000.64,-85.53 2007.64,-85.65"/>
</g>
<!-- Node4&#45;&gt;Node22 -->
<g id="edge24" class="edge">
<title>Node4&#45;&gt;Node22</title>
<path fill="none" stroke="midnightblue" d="M2033,-172.58C2096.19,-163.43 2242.06,-142.31 2321.52,-130.81"/>
<polygon fill="midnightblue" stroke="midnightblue" points="2322.41,-134.22 2331.8,-129.32 2321.41,-127.29 2322.41,-134.22"/>
</g>
<!-- Node4&#45;&gt;Node25 -->
<g id="edge27" class="edge">
<title>Node4&#45;&gt;Node25</title>
<path fill="none" stroke="midnightblue" d="M1971.8,-171.87C1918.92,-163.03 1809.68,-144.77 1740.74,-133.24"/>
<polygon fill="midnightblue" stroke="midnightblue" points="1740.9,-129.72 1730.46,-131.52 1739.74,-136.62 1740.9,-129.72"/>
</g>
<!-- Node6 -->
<g id="node6" class="node">
<title>Node6</title>
<g id="a_node6"><a xlink:href="Time_8hpp.html" target="_top" xlink:title=" ">
<polygon fill="none" stroke="black" points="1245.97,-56.5 1245.97,-75.5 1326.97,-75.5 1326.97,-56.5 1245.97,-56.5"/>
<text text-anchor="middle" x="1286.47" y="-63.5" font-family="Helvetica,sans-Serif" font-size="10.00">util/Time.hpp</text>
</a>
</g>
</g>
<!-- Node5&#45;&gt;Node6 -->
<g id="edge5" class="edge">
<title>Node5&#45;&gt;Node6</title>
<path fill="none" stroke="midnightblue" d="M1431.22,-112.44C1402.03,-103.28 1355.55,-88.69 1323.17,-78.52"/>
<polygon fill="midnightblue" stroke="midnightblue" points="1324.19,-75.17 1313.6,-75.52 1322.09,-81.85 1324.19,-75.17"/>
</g>
<!-- Node5&#45;&gt;Node13 -->
<g id="edge12" class="edge">
<title>Node5&#45;&gt;Node13</title>
<path fill="none" stroke="midnightblue" d="M1495.81,-113.94C1536.32,-106.08 1603.08,-92.59 1669.4,-76.13"/>
<polygon fill="midnightblue" stroke="midnightblue" points="1670.33,-79.51 1679.18,-73.69 1668.63,-72.72 1670.33,-79.51"/>
</g>
<!-- Node14 -->
<g id="node14" class="node">
<title>Node14</title>
<g id="a_node14"><a xlink:title=" ">
<polygon fill="none" stroke="#bfbfbf" points="1515.47,-56.5 1515.47,-75.5 1575.47,-75.5 1575.47,-56.5 1515.47,-56.5"/>
<text text-anchor="middle" x="1545.47" y="-63.5" font-family="Helvetica,sans-Serif" font-size="10.00">iostream</text>
</a>
</g>
</g>
<!-- Node5&#45;&gt;Node14 -->
<g id="edge13" class="edge">
<title>Node5&#45;&gt;Node14</title>
<path fill="none" stroke="midnightblue" d="M1472.45,-112.32C1486.02,-103.9 1506.85,-90.97 1522.8,-81.07"/>
<polygon fill="midnightblue" stroke="midnightblue" points="1524.88,-83.9 1531.53,-75.65 1521.19,-77.95 1524.88,-83.9"/>
</g>
<!-- Node15 -->
<g id="node15" class="node">
<title>Node15</title>
<g id="a_node15"><a xlink:title=" ">
<polygon fill="none" stroke="#bfbfbf" points="1593.97,-56.5 1593.97,-75.5 1660.97,-75.5 1660.97,-56.5 1593.97,-56.5"/>
<text text-anchor="middle" x="1627.47" y="-63.5" font-family="Helvetica,sans-Serif" font-size="10.00">streambuf</text>
</a>
</g>
</g>
<!-- Node5&#45;&gt;Node15 -->
<g id="edge14" class="edge">
<title>Node5&#45;&gt;Node15</title>
<path fill="none" stroke="midnightblue" d="M1485.25,-112.44C1513.81,-103.32 1559.21,-88.81 1591.01,-78.65"/>
<polygon fill="midnightblue" stroke="midnightblue" points="1592.36,-81.89 1600.82,-75.52 1590.23,-75.23 1592.36,-81.89"/>
</g>
<!-- Node5&#45;&gt;Node16 -->
<g id="edge15" class="edge">
<title>Node5&#45;&gt;Node16</title>
<path fill="none" stroke="midnightblue" d="M1421.44,-114.02C1379.27,-105.96 1308.06,-91.99 1238.2,-76.32"/>
<polygon fill="midnightblue" stroke="midnightblue" points="1238.88,-72.89 1228.35,-74.1 1237.34,-79.72 1238.88,-72.89"/>
</g>
<!-- Node7 -->
<g id="node7" class="node">
<title>Node7</title>
<g id="a_node7"><a xlink:title=" ">
<polygon fill="none" stroke="#bfbfbf" points="1264.47,-0.5 1264.47,-19.5 1308.47,-19.5 1308.47,-0.5 1264.47,-0.5"/>
<text text-anchor="middle" x="1286.47" y="-7.5" font-family="Helvetica,sans-Serif" font-size="10.00">ctime</text>
</a>
</g>
</g>
<!-- Node6&#45;&gt;Node7 -->
<g id="edge6" class="edge">
<title>Node6&#45;&gt;Node7</title>
<path fill="none" stroke="midnightblue" d="M1286.47,-56.08C1286.47,-49.01 1286.47,-38.86 1286.47,-29.99"/>
<polygon fill="midnightblue" stroke="midnightblue" points="1289.97,-29.75 1286.47,-19.75 1282.97,-29.75 1289.97,-29.75"/>
</g>
<!-- Node6&#45;&gt;Node8 -->
<g id="edge7" class="edge">
<title>Node6&#45;&gt;Node8</title>
<path fill="none" stroke="midnightblue" d="M1297.24,-56.32C1307.24,-48.26 1322.36,-36.08 1334.4,-26.37"/>
<polygon fill="midnightblue" stroke="midnightblue" points="1336.92,-28.83 1342.51,-19.83 1332.53,-23.38 1336.92,-28.83"/>
</g>
<!-- Node9 -->
<g id="node9" class="node">
<title>Node9</title>
<g id="a_node9"><a xlink:title=" ">
<polygon fill="none" stroke="#bfbfbf" points="1862.97,-0.5 1862.97,-19.5 1919.97,-19.5 1919.97,-0.5 1862.97,-0.5"/>
<text text-anchor="middle" x="1891.47" y="-7.5" font-family="Helvetica,sans-Serif" font-size="10.00">ostream</text>
</a>
</g>
</g>
<!-- Node6&#45;&gt;Node9 -->
<g id="edge8" class="edge">
<title>Node6&#45;&gt;Node9</title>
<path fill="none" stroke="midnightblue" d="M1327.11,-61.37C1437.87,-51.49 1744.05,-24.16 1852.65,-14.47"/>
<polygon fill="midnightblue" stroke="midnightblue" points="1853.18,-17.93 1862.83,-13.56 1852.56,-10.96 1853.18,-17.93"/>
</g>
<!-- Node10 -->
<g id="node10" class="node">
<title>Node10</title>
<g id="a_node10"><a xlink:title=" ">
<polygon fill="none" stroke="#bfbfbf" points="227.47,-0.5 227.47,-19.5 283.47,-19.5 283.47,-0.5 227.47,-0.5"/>
<text text-anchor="middle" x="255.47" y="-7.5" font-family="Helvetica,sans-Serif" font-size="10.00">iomanip</text>
</a>
</g>
</g>
<!-- Node6&#45;&gt;Node10 -->
<g id="edge9" class="edge">
<title>Node6&#45;&gt;Node10</title>
<path fill="none" stroke="midnightblue" d="M1245.88,-57.23C1242.71,-56.76 1239.54,-56.34 1236.47,-56 871.46,-14.96 426.03,-11.13 294.05,-10.94"/>
<polygon fill="midnightblue" stroke="midnightblue" points="293.68,-7.44 283.68,-10.93 293.67,-14.44 293.68,-7.44"/>
</g>
<!-- Node6&#45;&gt;Node11 -->
<g id="edge10" class="edge">
<title>Node6&#45;&gt;Node11</title>
<path fill="none" stroke="midnightblue" d="M1327.33,-60.26C1416.26,-49.93 1626.31,-25.53 1713.01,-15.47"/>
<polygon fill="midnightblue" stroke="midnightblue" points="1713.67,-18.91 1723.2,-14.28 1712.87,-11.96 1713.67,-18.91"/>
</g>
<!-- Node12 -->
<g id="node12" class="node">
<title>Node12</title>
<g id="a_node12"><a xlink:title=" ">
<polygon fill="none" stroke="#bfbfbf" points="899.97,-0.5 899.97,-19.5 946.97,-19.5 946.97,-0.5 899.97,-0.5"/>
<text text-anchor="middle" x="923.47" y="-7.5" font-family="Helvetica,sans-Serif" font-size="10.00">cmath</text>
</a>
</g>
</g>
<!-- Node6&#45;&gt;Node12 -->
<g id="edge11" class="edge">
<title>Node6&#45;&gt;Node12</title>
<path fill="none" stroke="midnightblue" d="M1245.84,-57.56C1242.67,-57.02 1239.52,-56.49 1236.47,-56 1134.95,-39.57 1014.4,-23.09 957.03,-15.43"/>
<polygon fill="midnightblue" stroke="midnightblue" points="957.45,-11.95 947.08,-14.1 956.53,-18.89 957.45,-11.95"/>
</g>
<!-- Node17&#45;&gt;Node9 -->
<g id="edge17" class="edge">
<title>Node17&#45;&gt;Node9</title>
<path fill="none" stroke="midnightblue" d="M2128.79,-56.44C2074.01,-45.95 1982.09,-28.35 1930.19,-18.41"/>
<polygon fill="midnightblue" stroke="midnightblue" points="1930.54,-14.92 1920.06,-16.47 1929.22,-21.79 1930.54,-14.92"/>
</g>
<!-- Node18&#45;&gt;Node17 -->
<g id="edge19" class="edge">
<title>Node18&#45;&gt;Node17</title>
<path fill="none" stroke="midnightblue" d="M2212.71,-112.08C2205.94,-104.3 2195.93,-92.8 2187.72,-83.37"/>
<polygon fill="midnightblue" stroke="midnightblue" points="2190.3,-81 2181.09,-75.75 2185.02,-85.59 2190.3,-81"/>
</g>
<!-- Node19 -->
<g id="node19" class="node">
<title>Node19</title>
<g id="a_node19"><a xlink:title=" ">
<polygon fill="none" stroke="#bfbfbf" points="2236.97,-56.5 2236.97,-75.5 2295.97,-75.5 2295.97,-56.5 2236.97,-56.5"/>
<text text-anchor="middle" x="2266.47" y="-63.5" font-family="Helvetica,sans-Serif" font-size="10.00">complex</text>
</a>
</g>
</g>
<!-- Node18&#45;&gt;Node19 -->
<g id="edge20" class="edge">
<title>Node18&#45;&gt;Node19</title>
<path fill="none" stroke="midnightblue" d="M2228.07,-112.08C2234.7,-104.3 2244.5,-92.8 2252.53,-83.37"/>
<polygon fill="midnightblue" stroke="midnightblue" points="2255.2,-85.63 2259.02,-75.75 2249.87,-81.09 2255.2,-85.63"/>
</g>
<!-- Node23 -->
<g id="node23" class="node">
<title>Node23</title>
<g id="a_node23"><a xlink:href="CTF_8hpp.html" target="_top" xlink:title=" ">
<polygon fill="none" stroke="black" points="2326.47,-56.5 2326.47,-75.5 2400.47,-75.5 2400.47,-56.5 2326.47,-56.5"/>
<text text-anchor="middle" x="2363.47" y="-63.5" font-family="Helvetica,sans-Serif" font-size="10.00">util/CTF.hpp</text>
</a>
</g>
</g>
<!-- Node22&#45;&gt;Node23 -->
<g id="edge25" class="edge">
<title>Node22&#45;&gt;Node23</title>
<path fill="none" stroke="midnightblue" d="M2373.49,-112.08C2371.9,-104.93 2369.62,-94.64 2367.63,-85.69"/>
<polygon fill="midnightblue" stroke="midnightblue" points="2371.01,-84.75 2365.42,-75.75 2364.17,-86.27 2371.01,-84.75"/>
</g>
<!-- Node24 -->
<g id="node24" class="node">
<title>Node24</title>
<g id="a_node24"><a xlink:title=" ">
<polygon fill="none" stroke="#bfbfbf" points="2338.47,-0.5 2338.47,-19.5 2388.47,-19.5 2388.47,-0.5 2338.47,-0.5"/>
<text text-anchor="middle" x="2363.47" y="-7.5" font-family="Helvetica,sans-Serif" font-size="10.00">ctf.hpp</text>
</a>
</g>
</g>
<!-- Node23&#45;&gt;Node24 -->
<g id="edge26" class="edge">
<title>Node23&#45;&gt;Node24</title>
<path fill="none" stroke="midnightblue" d="M2363.47,-56.08C2363.47,-49.01 2363.47,-38.86 2363.47,-29.99"/>
<polygon fill="midnightblue" stroke="midnightblue" points="2366.97,-29.75 2363.47,-19.75 2359.97,-29.75 2366.97,-29.75"/>
</g>
<!-- Node25&#45;&gt;Node11 -->
<g id="edge29" class="edge">
<title>Node25&#45;&gt;Node11</title>
<path fill="none" stroke="midnightblue" d="M1693.66,-112.37C1705.68,-104.37 1722.49,-91.39 1732.47,-76 1741.57,-61.98 1746.43,-43.48 1748.94,-29.8"/>
<polygon fill="midnightblue" stroke="midnightblue" points="1752.44,-30.08 1750.55,-19.65 1745.53,-28.98 1752.44,-30.08"/>
</g>
<!-- Node25&#45;&gt;Node13 -->
<g id="edge28" class="edge">
<title>Node25&#45;&gt;Node13</title>
<path fill="none" stroke="midnightblue" d="M1683.11,-112.08C1686.09,-104.77 1690.4,-94.18 1694.1,-85.1"/>
<polygon fill="midnightblue" stroke="midnightblue" points="1697.38,-86.33 1697.91,-75.75 1690.89,-83.69 1697.38,-86.33"/>
</g>
<!-- Node25&#45;&gt;Node14 -->
<g id="edge30" class="edge">
<title>Node25&#45;&gt;Node14</title>
<path fill="none" stroke="midnightblue" d="M1658.24,-112.44C1636.09,-103.52 1601.16,-89.44 1576.04,-79.32"/>
<polygon fill="midnightblue" stroke="midnightblue" points="1577.19,-76.01 1566.61,-75.52 1574.57,-82.5 1577.19,-76.01"/>
</g>
<!-- Node26&#45;&gt;Node5 -->
<g id="edge40" class="edge">
<title>Node26&#45;&gt;Node5</title>
<path fill="none" stroke="midnightblue" d="M1546.6,-168.32C1529.77,-159.66 1503.67,-146.24 1484.24,-136.25"/>
<polygon fill="midnightblue" stroke="midnightblue" points="1485.8,-133.12 1475.3,-131.65 1482.59,-139.34 1485.8,-133.12"/>
</g>
<!-- Node26&#45;&gt;Node8 -->
<g id="edge41" class="edge">
<title>Node26&#45;&gt;Node8</title>
<path fill="none" stroke="midnightblue" d="M1520.46,-170.02C1480.57,-162.57 1425.47,-149.44 1412.47,-132 1407.16,-124.87 1408.22,-119.8 1412.47,-112 1426.65,-86.03 1454.3,-101.97 1468.47,-76 1472.73,-68.2 1473.49,-63.34 1468.47,-56 1450.76,-30.05 1415.64,-19.06 1388.85,-14.41"/>
<polygon fill="midnightblue" stroke="midnightblue" points="1389.09,-10.91 1378.68,-12.88 1388.05,-17.83 1389.09,-10.91"/>
</g>
<!-- Node26&#45;&gt;Node13 -->
<g id="edge43" class="edge">
<title>Node26&#45;&gt;Node13</title>
<path fill="none" stroke="midnightblue" d="M1569.37,-168.1C1578.61,-154.67 1597.6,-128.97 1618.47,-112 1634.53,-98.95 1654.93,-87.83 1671.49,-79.9"/>
<polygon fill="midnightblue" stroke="midnightblue" points="1673.13,-83 1680.73,-75.62 1670.19,-76.65 1673.13,-83"/>
</g>
<!-- Node26&#45;&gt;Node21 -->
<g id="edge42" class="edge">
<title>Node26&#45;&gt;Node21</title>
<path fill="none" stroke="midnightblue" d="M1606.81,-176.97C1698.39,-176.15 1907.97,-170.04 1966.47,-132 1982.88,-121.34 1993.09,-100.92 1998.74,-85.81"/>
<polygon fill="midnightblue" stroke="midnightblue" points="2002.19,-86.54 2002.08,-75.95 1995.56,-84.3 2002.19,-86.54"/>
</g>
<!-- Node27 -->
<g id="node27" class="node">
<title>Node27</title>
<g id="a_node27"><a xlink:href="SourceLocation_8hpp.html" target="_top" xlink:title=" ">
<polygon fill="none" stroke="black" points="1825.97,-112.5 1825.97,-131.5 1956.97,-131.5 1956.97,-112.5 1825.97,-112.5"/>
<text text-anchor="middle" x="1891.47" y="-119.5" font-family="Helvetica,sans-Serif" font-size="10.00">util/SourceLocation.hpp</text>
</a>
</g>
</g>
<!-- Node26&#45;&gt;Node27 -->
<g id="edge36" class="edge">
<title>Node26&#45;&gt;Node27</title>
<path fill="none" stroke="midnightblue" d="M1606.69,-169.88C1663.74,-160.49 1764.55,-143.9 1829.65,-133.18"/>
<polygon fill="midnightblue" stroke="midnightblue" points="1830.48,-136.59 1839.78,-131.51 1829.34,-129.68 1830.48,-136.59"/>
</g>
<!-- Node27&#45;&gt;Node9 -->
<g id="edge39" class="edge">
<title>Node27&#45;&gt;Node9</title>
<path fill="none" stroke="midnightblue" d="M1891.47,-112.37C1891.47,-94.62 1891.47,-53.67 1891.47,-29.6"/>
<polygon fill="midnightblue" stroke="midnightblue" points="1894.97,-29.59 1891.47,-19.59 1887.97,-29.59 1894.97,-29.59"/>
</g>
<!-- Node27&#45;&gt;Node11 -->
<g id="edge38" class="edge">
<title>Node27&#45;&gt;Node11</title>
<path fill="none" stroke="midnightblue" d="M1880.49,-112.37C1856.67,-93.65 1800.03,-49.15 1770.35,-25.83"/>
<polygon fill="midnightblue" stroke="midnightblue" points="1772.43,-23.02 1762.41,-19.59 1768.11,-28.52 1772.43,-23.02"/>
</g>
<!-- Node27&#45;&gt;Node13 -->
<g id="edge37" class="edge">
<title>Node27&#45;&gt;Node13</title>
<path fill="none" stroke="midnightblue" d="M1861.37,-112.44C1826.51,-102.54 1769.33,-86.28 1733.62,-76.14"/>
<polygon fill="midnightblue" stroke="midnightblue" points="1734.3,-72.69 1723.72,-73.32 1732.38,-79.42 1734.3,-72.69"/>
</g>
<!-- Node28&#45;&gt;Node18 -->
<g id="edge48" class="edge">
<title>Node28&#45;&gt;Node18</title>
<path fill="none" stroke="midnightblue" d="M2234.67,-168.08C2232.39,-160.85 2229.1,-150.41 2226.27,-141.4"/>
<polygon fill="midnightblue" stroke="midnightblue" points="2229.57,-140.24 2223.23,-131.75 2222.89,-142.34 2229.57,-140.24"/>
</g>
<!-- Node28&#45;&gt;Node22 -->
<g id="edge49" class="edge">
<title>Node28&#45;&gt;Node22</title>
<path fill="none" stroke="midnightblue" d="M2259.34,-168.44C2282.25,-159.48 2318.45,-145.31 2344.34,-135.18"/>
<polygon fill="midnightblue" stroke="midnightblue" points="2345.67,-138.42 2353.71,-131.52 2343.12,-131.9 2345.67,-138.42"/>
</g>
<!-- Node29&#45;&gt;Node6 -->
<g id="edge54" class="edge">
<title>Node29&#45;&gt;Node6</title>
<path fill="none" stroke="midnightblue" d="M1333.21,-224.21C1321.71,-216.28 1306.22,-203.5 1298.47,-188 1282.02,-155.07 1282.41,-110.86 1284.34,-86.01"/>
<polygon fill="midnightblue" stroke="midnightblue" points="1287.85,-86.07 1285.31,-75.79 1280.88,-85.41 1287.85,-86.07"/>
</g>
<!-- Node29&#45;&gt;Node23 -->
<g id="edge55" class="edge">
<title>Node29&#45;&gt;Node23</title>
<path fill="none" stroke="midnightblue" d="M1380.59,-232.76C1480.87,-231.64 1789.77,-225.17 2042.47,-188 2097.09,-179.97 2234.96,-156.4 2284.47,-132 2309.48,-119.68 2333.51,-98.03 2348.37,-83.13"/>
<polygon fill="midnightblue" stroke="midnightblue" points="2351.18,-85.26 2355.63,-75.65 2346.16,-80.39 2351.18,-85.26"/>
</g>
<!-- Node30 -->
<g id="node30" class="node">
<title>Node30</title>
<g id="a_node30"><a xlink:href="Options_8hpp.html" target="_top" xlink:title=" ">
<polygon fill="none" stroke="black" points="1307.97,-168.5 1307.97,-187.5 1382.97,-187.5 1382.97,-168.5 1307.97,-168.5"/>
<text text-anchor="middle" x="1345.47" y="-175.5" font-family="Helvetica,sans-Serif" font-size="10.00">Options.hpp</text>
</a>
</g>
</g>
<!-- Node29&#45;&gt;Node30 -->
<g id="edge56" class="edge">
<title>Node29&#45;&gt;Node30</title>
<path fill="none" stroke="midnightblue" d="M1347.14,-224.08C1346.88,-217.01 1346.51,-206.86 1346.18,-197.99"/>
<polygon fill="midnightblue" stroke="midnightblue" points="1349.67,-197.61 1345.8,-187.75 1342.67,-197.87 1349.67,-197.61"/>
</g>
<!-- Node30&#45;&gt;Node13 -->
<g id="edge57" class="edge">
<title>Node30&#45;&gt;Node13</title>
<path fill="none" stroke="midnightblue" d="M1377.27,-168.43C1409.45,-159.66 1460.59,-145.44 1504.47,-132 1563.11,-114.04 1630.9,-91.21 1669.73,-77.94"/>
<polygon fill="midnightblue" stroke="midnightblue" points="1671.09,-81.17 1679.42,-74.62 1668.82,-74.55 1671.09,-81.17"/>
</g>
<!-- Node31 -->
<g id="node31" class="node">
<title>Node31</title>
<g id="a_node31"><a xlink:href="CLI11_8hpp.html" target="_top" xlink:title=" ">
<polygon fill="none" stroke="black" points="715.97,-112.5 715.97,-131.5 814.97,-131.5 814.97,-112.5 715.97,-112.5"/>
<text text-anchor="middle" x="765.47" y="-119.5" font-family="Helvetica,sans-Serif" font-size="10.00">extern/CLI11.hpp</text>
</a>
</g>
</g>
<!-- Node30&#45;&gt;Node31 -->
<g id="edge58" class="edge">
<title>Node30&#45;&gt;Node31</title>
<path fill="none" stroke="midnightblue" d="M1307.87,-173.5C1209.57,-164.35 944.36,-139.65 825.05,-128.55"/>
<polygon fill="midnightblue" stroke="midnightblue" points="825.28,-125.05 815,-127.61 824.63,-132.02 825.28,-125.05"/>
</g>
<!-- Node31&#45;&gt;Node8 -->
<g id="edge72" class="edge">
<title>Node31&#45;&gt;Node8</title>
<path fill="none" stroke="midnightblue" d="M814.99,-120.39C885.51,-118.28 1018.21,-109.7 1125.47,-76 1143.68,-70.28 1145.59,-62.67 1163.47,-56 1229.33,-31.43 1249.15,-36.52 1317.47,-20 1317.8,-19.92 1318.13,-19.84 1318.47,-19.76"/>
<polygon fill="midnightblue" stroke="midnightblue" points="1319.43,-23.13 1328.31,-17.34 1317.76,-16.33 1319.43,-23.13"/>
</g>
<!-- Node31&#45;&gt;Node10 -->
<g id="edge68" class="edge">
<title>Node31&#45;&gt;Node10</title>
<path fill="none" stroke="midnightblue" d="M715.91,-119.92C550.87,-116.08 28.91,-101.93 4.47,-76 -1.62,-69.53 -1.23,-62.82 4.47,-56 31.18,-24.08 154.07,-14.77 217.44,-12.08"/>
<polygon fill="midnightblue" stroke="midnightblue" points="217.59,-15.58 227.44,-11.69 217.31,-8.58 217.59,-15.58"/>
</g>
<!-- Node31&#45;&gt;Node11 -->
<g id="edge70" class="edge">
<title>Node31&#45;&gt;Node11</title>
<path fill="none" stroke="midnightblue" d="M815.01,-120.01C914.37,-117.37 1144.83,-108.03 1335.47,-76 1370.34,-70.14 1377.77,-62.78 1412.47,-56 1520.43,-34.9 1649.7,-20.77 1712.87,-14.57"/>
<polygon fill="midnightblue" stroke="midnightblue" points="1713.54,-18.03 1723.16,-13.58 1712.87,-11.06 1713.54,-18.03"/>
</g>
<!-- Node31&#45;&gt;Node12 -->
<g id="edge61" class="edge">
<title>Node31&#45;&gt;Node12</title>
<path fill="none" stroke="midnightblue" d="M715.86,-119.89C551.92,-115.96 36.62,-101.63 12.47,-76 6.38,-69.53 6.35,-62.44 12.47,-56 43.26,-23.66 727.07,-13.37 889.22,-11.39"/>
<polygon fill="midnightblue" stroke="midnightblue" points="889.6,-14.88 899.55,-11.26 889.51,-7.88 889.6,-14.88"/>
</g>
<!-- Node31&#45;&gt;Node13 -->
<g id="edge60" class="edge">
<title>Node31&#45;&gt;Node13</title>
<path fill="none" stroke="midnightblue" d="M815.13,-120.05C976.29,-116.74 1484.45,-104.42 1669.14,-75.76"/>
<polygon fill="midnightblue" stroke="midnightblue" points="1669.96,-79.18 1679.27,-74.12 1668.84,-72.27 1669.96,-79.18"/>
</g>
<!-- Node31&#45;&gt;Node14 -->
<g id="edge73" class="edge">
<title>Node31&#45;&gt;Node14</title>
<path fill="none" stroke="midnightblue" d="M814.98,-118.73C929.9,-113.25 1223.65,-98.13 1468.47,-76 1480.4,-74.92 1493.33,-73.51 1505.13,-72.12"/>
<polygon fill="midnightblue" stroke="midnightblue" points="1505.65,-75.58 1515.16,-70.92 1504.81,-68.63 1505.65,-75.58"/>
</g>
<!-- Node31&#45;&gt;Node16 -->
<g id="edge65" class="edge">
<title>Node31&#45;&gt;Node16</title>
<path fill="none" stroke="midnightblue" d="M815.01,-116.88C889.74,-110.32 1035.64,-96.14 1158.47,-76 1159.76,-75.79 1161.06,-75.57 1162.38,-75.33"/>
<polygon fill="midnightblue" stroke="midnightblue" points="1163.37,-78.71 1172.53,-73.38 1162.05,-71.83 1163.37,-78.71"/>
</g>
<!-- Node31&#45;&gt;Node20 -->
<g id="edge64" class="edge">
<title>Node31&#45;&gt;Node20</title>
<path fill="none" stroke="midnightblue" d="M815,-120.83C923.26,-119.73 1188.81,-113.11 1407.47,-76 1408.76,-75.78 1410.07,-75.54 1411.38,-75.27"/>
<polygon fill="midnightblue" stroke="midnightblue" points="1412.5,-78.6 1421.42,-72.88 1410.88,-71.79 1412.5,-78.6"/>
</g>
<!-- Node31&#45;&gt;Node21 -->
<g id="edge78" class="edge">
<title>Node31&#45;&gt;Node21</title>
<path fill="none" stroke="midnightblue" d="M815.19,-118.83C1020.35,-109.89 1798.38,-75.98 1970.59,-68.48"/>
<polygon fill="midnightblue" stroke="midnightblue" points="1970.76,-71.97 1980.6,-68.04 1970.46,-64.98 1970.76,-71.97"/>
</g>
<!-- Node32 -->
<g id="node32" class="node">
<title>Node32</title>
<g id="a_node32"><a xlink:title=" ">
<polygon fill="none" stroke="#bfbfbf" points="21.47,-56.5 21.47,-75.5 79.47,-75.5 79.47,-56.5 21.47,-56.5"/>
<text text-anchor="middle" x="50.47" y="-63.5" font-family="Helvetica,sans-Serif" font-size="10.00">memory</text>
</a>
</g>
</g>
<!-- Node31&#45;&gt;Node32 -->
<g id="edge59" class="edge">
<title>Node31&#45;&gt;Node32</title>
<path fill="none" stroke="midnightblue" d="M715.9,-120.52C605.14,-118.84 329.12,-111.29 89.77,-75.95"/>
<polygon fill="midnightblue" stroke="midnightblue" points="90.25,-72.48 79.84,-74.46 89.21,-79.4 90.25,-72.48"/>
</g>
<!-- Node33 -->
<g id="node33" class="node">
<title>Node33</title>
<g id="a_node33"><a xlink:title=" ">
<polygon fill="none" stroke="#bfbfbf" points="97.97,-56.5 97.97,-75.5 162.97,-75.5 162.97,-56.5 97.97,-56.5"/>
<text text-anchor="middle" x="130.47" y="-63.5" font-family="Helvetica,sans-Serif" font-size="10.00">functional</text>
</a>
</g>
</g>
<!-- Node31&#45;&gt;Node33 -->
<g id="edge62" class="edge">
<title>Node31&#45;&gt;Node33</title>
<path fill="none" stroke="midnightblue" d="M715.64,-119.5C615,-115.97 380.23,-105.24 173.55,-75.95"/>
<polygon fill="midnightblue" stroke="midnightblue" points="173.81,-72.45 163.41,-74.5 172.81,-79.38 173.81,-72.45"/>
</g>
<!-- Node34 -->
<g id="node34" class="node">
<title>Node34</title>
<g id="a_node34"><a xlink:title=" ">
<polygon fill="none" stroke="#bfbfbf" points="181.47,-56.5 181.47,-75.5 237.47,-75.5 237.47,-56.5 181.47,-56.5"/>
<text text-anchor="middle" x="209.47" y="-63.5" font-family="Helvetica,sans-Serif" font-size="10.00">numeric</text>
</a>
</g>
</g>
<!-- Node31&#45;&gt;Node34 -->
<g id="edge63" class="edge">
<title>Node31&#45;&gt;Node34</title>
<path fill="none" stroke="midnightblue" d="M715.79,-119.21C624.74,-115.38 424.98,-104.45 247.7,-75.96"/>
<polygon fill="midnightblue" stroke="midnightblue" points="248.1,-72.48 237.67,-74.33 246.97,-79.39 248.1,-72.48"/>
</g>
<!-- Node35 -->
<g id="node35" class="node">
<title>Node35</title>
<g id="a_node35"><a xlink:title=" ">
<polygon fill="none" stroke="#bfbfbf" points="255.97,-56.5 255.97,-75.5 296.97,-75.5 296.97,-56.5 255.97,-56.5"/>
<text text-anchor="middle" x="276.47" y="-63.5" font-family="Helvetica,sans-Serif" font-size="10.00">tuple</text>
</a>
</g>
</g>
<!-- Node31&#45;&gt;Node35 -->
<g id="edge66" class="edge">
<title>Node31&#45;&gt;Node35</title>
<path fill="none" stroke="midnightblue" d="M715.97,-119.45C632.98,-116.15 460.57,-106.21 307.32,-76.02"/>
<polygon fill="midnightblue" stroke="midnightblue" points="307.75,-72.54 297.25,-74 306.37,-79.4 307.75,-72.54"/>
</g>
<!-- Node36 -->
<g id="node36" class="node">
<title>Node36</title>
<g id="a_node36"><a xlink:title=" ">
<polygon fill="none" stroke="#bfbfbf" points="314.97,-56.5 314.97,-75.5 359.97,-75.5 359.97,-56.5 314.97,-56.5"/>
<text text-anchor="middle" x="337.47" y="-63.5" font-family="Helvetica,sans-Serif" font-size="10.00">utility</text>
</a>
</g>
</g>
<!-- Node31&#45;&gt;Node36 -->
<g id="edge67" class="edge">
<title>Node31&#45;&gt;Node36</title>
<path fill="none" stroke="midnightblue" d="M715.69,-117.93C642.17,-112.82 500.16,-100.8 370.22,-75.83"/>
<polygon fill="midnightblue" stroke="midnightblue" points="370.58,-72.33 360.09,-73.85 369.24,-79.2 370.58,-72.33"/>
</g>
<!-- Node37 -->
<g id="node37" class="node">
<title>Node37</title>
<g id="a_node37"><a xlink:title=" ">
<polygon fill="none" stroke="#bfbfbf" points="378.47,-56.5 378.47,-75.5 424.47,-75.5 424.47,-56.5 378.47,-56.5"/>
<text text-anchor="middle" x="401.47" y="-63.5" font-family="Helvetica,sans-Serif" font-size="10.00">locale</text>
</a>
</g>
</g>
<!-- Node31&#45;&gt;Node37 -->
<g id="edge69" class="edge">
<title>Node31&#45;&gt;Node37</title>
<path fill="none" stroke="midnightblue" d="M715.89,-116.46C652.65,-110.19 539.81,-97.38 434.63,-75.99"/>
<polygon fill="midnightblue" stroke="midnightblue" points="435.3,-72.56 424.8,-73.97 433.89,-79.42 435.3,-72.56"/>
</g>
<!-- Node38 -->
<g id="node38" class="node">
<title>Node38</title>
<g id="a_node38"><a xlink:title=" ">
<polygon fill="none" stroke="#bfbfbf" points="442.47,-56.5 442.47,-75.5 506.47,-75.5 506.47,-56.5 442.47,-56.5"/>
<text text-anchor="middle" x="474.47" y="-63.5" font-family="Helvetica,sans-Serif" font-size="10.00">algorithm</text>
</a>
</g>
</g>
<!-- Node31&#45;&gt;Node38 -->
<g id="edge71" class="edge">
<title>Node31&#45;&gt;Node38</title>
<path fill="none" stroke="midnightblue" d="M715.56,-112.59C667.2,-104.31 591.52,-91.02 516.74,-76.2"/>
<polygon fill="midnightblue" stroke="midnightblue" points="517.17,-72.71 506.68,-74.19 515.8,-79.58 517.17,-72.71"/>
</g>
<!-- Node39 -->
<g id="node39" class="node">
<title>Node39</title>
<g id="a_node39"><a xlink:title=" ">
<polygon fill="none" stroke="#bfbfbf" points="524.47,-56.5 524.47,-75.5 556.47,-75.5 556.47,-56.5 524.47,-56.5"/>
<text text-anchor="middle" x="540.47" y="-63.5" font-family="Helvetica,sans-Serif" font-size="10.00">set</text>
</a>
</g>
</g>
<!-- Node31&#45;&gt;Node39 -->
<g id="edge74" class="edge">
<title>Node31&#45;&gt;Node39</title>
<path fill="none" stroke="midnightblue" d="M720.19,-112.48C681.53,-104.84 624.35,-92.65 566.23,-75.94"/>
<polygon fill="midnightblue" stroke="midnightblue" points="567.1,-72.55 556.52,-73.11 565.14,-79.27 567.1,-72.55"/>
</g>
<!-- Node40 -->
<g id="node40" class="node">
<title>Node40</title>
<g id="a_node40"><a xlink:title=" ">
<polygon fill="none" stroke="#bfbfbf" points="574.97,-56.5 574.97,-75.5 643.97,-75.5 643.97,-56.5 574.97,-56.5"/>
<text text-anchor="middle" x="609.47" y="-63.5" font-family="Helvetica,sans-Serif" font-size="10.00">type_traits</text>
</a>
</g>
</g>
<!-- Node31&#45;&gt;Node40 -->
<g id="edge75" class="edge">
<title>Node31&#45;&gt;Node40</title>
<path fill="none" stroke="midnightblue" d="M740.76,-112.44C714.63,-103.4 673.22,-89.06 643.9,-78.92"/>
<polygon fill="midnightblue" stroke="midnightblue" points="644.67,-75.48 634.08,-75.52 642.38,-82.1 644.67,-75.48"/>
</g>
<!-- Node41 -->
<g id="node41" class="node">
<title>Node41</title>
<g id="a_node41"><a xlink:title=" ">
<polygon fill="none" stroke="#bfbfbf" points="661.97,-56.5 661.97,-75.5 714.97,-75.5 714.97,-56.5 661.97,-56.5"/>
<text text-anchor="middle" x="688.47" y="-63.5" font-family="Helvetica,sans-Serif" font-size="10.00">iterator</text>
</a>
</g>
</g>
<!-- Node31&#45;&gt;Node41 -->
<g id="edge76" class="edge">
<title>Node31&#45;&gt;Node41</title>
<path fill="none" stroke="midnightblue" d="M753.1,-112.32C741.32,-104.06 723.34,-91.45 709.34,-81.63"/>
<polygon fill="midnightblue" stroke="midnightblue" points="711.01,-78.53 700.82,-75.65 706.99,-84.26 711.01,-78.53"/>
</g>
<!-- Node42 -->
<g id="node42" class="node">
<title>Node42</title>
<g id="a_node42"><a xlink:title=" ">
<polygon fill="none" stroke="#bfbfbf" points="732.97,-56.5 732.97,-75.5 797.97,-75.5 797.97,-56.5 732.97,-56.5"/>
<text text-anchor="middle" x="765.47" y="-63.5" font-family="Helvetica,sans-Serif" font-size="10.00">stdexcept</text>
</a>
</g>
</g>
<!-- Node31&#45;&gt;Node42 -->
<g id="edge77" class="edge">
<title>Node31&#45;&gt;Node42</title>
<path fill="none" stroke="midnightblue" d="M765.47,-112.08C765.47,-105.01 765.47,-94.86 765.47,-85.99"/>
<polygon fill="midnightblue" stroke="midnightblue" points="768.97,-85.75 765.47,-75.75 761.97,-85.75 768.97,-85.75"/>
</g>
<!-- Node43 -->
<g id="node43" class="node">
<title>Node43</title>
<g id="a_node43"><a xlink:title=" ">
<polygon fill="none" stroke="#bfbfbf" points="816.47,-56.5 816.47,-75.5 860.47,-75.5 860.47,-56.5 816.47,-56.5"/>
<text text-anchor="middle" x="838.47" y="-63.5" font-family="Helvetica,sans-Serif" font-size="10.00">limits</text>
</a>
</g>
</g>
<!-- Node31&#45;&gt;Node43 -->
<g id="edge79" class="edge">
<title>Node31&#45;&gt;Node43</title>
<path fill="none" stroke="midnightblue" d="M777.2,-112.32C788.31,-104.11 805.22,-91.6 818.46,-81.81"/>
<polygon fill="midnightblue" stroke="midnightblue" points="820.57,-84.59 826.53,-75.83 816.41,-78.97 820.57,-84.59"/>
</g>
<!-- Node44 -->
<g id="node44" class="node">
<title>Node44</title>
<g id="a_node44"><a xlink:title=" ">
<polygon fill="none" stroke="#bfbfbf" points="878.97,-56.5 878.97,-75.5 943.97,-75.5 943.97,-56.5 878.97,-56.5"/>
<text text-anchor="middle" x="911.47" y="-63.5" font-family="Helvetica,sans-Serif" font-size="10.00">exception</text>
</a>
</g>
</g>
<!-- Node31&#45;&gt;Node44 -->
<g id="edge80" class="edge">
<title>Node31&#45;&gt;Node44</title>
<path fill="none" stroke="midnightblue" d="M788.61,-112.44C812.96,-103.44 851.48,-89.19 878.9,-79.05"/>
<polygon fill="midnightblue" stroke="midnightblue" points="880.28,-82.27 888.45,-75.52 877.86,-75.7 880.28,-82.27"/>
</g>
<!-- Node45 -->
<g id="node45" class="node">
<title>Node45</title>
<g id="a_node45"><a xlink:title=" ">
<polygon fill="none" stroke="#bfbfbf" points="962.47,-56.5 962.47,-75.5 1026.47,-75.5 1026.47,-56.5 962.47,-56.5"/>
<text text-anchor="middle" x="994.47" y="-63.5" font-family="Helvetica,sans-Serif" font-size="10.00">sys/stat.h</text>
</a>
</g>
</g>
<!-- Node31&#45;&gt;Node45 -->
<g id="edge81" class="edge">
<title>Node31&#45;&gt;Node45</title>
<path fill="none" stroke="midnightblue" d="M801.76,-112.44C842.74,-102.78 909.33,-87.08 952.51,-76.89"/>
<polygon fill="midnightblue" stroke="midnightblue" points="953.49,-80.26 962.42,-74.56 951.89,-73.45 953.49,-80.26"/>
</g>
<!-- Node46 -->
<g id="node46" class="node">
<title>Node46</title>
<g id="a_node46"><a xlink:title=" ">
<polygon fill="none" stroke="#bfbfbf" points="1044.47,-56.5 1044.47,-75.5 1116.47,-75.5 1116.47,-56.5 1044.47,-56.5"/>
<text text-anchor="middle" x="1080.47" y="-63.5" font-family="Helvetica,sans-Serif" font-size="10.00">sys/types.h</text>
</a>
</g>
</g>
<!-- Node31&#45;&gt;Node46 -->
<g id="edge82" class="edge">
<title>Node31&#45;&gt;Node46</title>
<path fill="none" stroke="midnightblue" d="M815.32,-113.19C867.45,-104.9 951.9,-91.18 1034.13,-76.2"/>
<polygon fill="midnightblue" stroke="midnightblue" points="1034.94,-79.61 1044.14,-74.37 1033.68,-72.73 1034.94,-79.61"/>
</g>
</g>
</svg>
