<?xml version="1.0" encoding="UTF-8" standalone="no"?>
<!DOCTYPE svg PUBLIC "-//W3C//DTD SVG 1.1//EN"
 "http://www.w3.org/Graphics/SVG/1.1/DTD/svg11.dtd">
<!-- Generated by graphviz version 7.0.0 (0)
 -->
<!-- Title: PQRSCoulombIntegralsToVertex.hpp Pages: 1 -->
<svg width="859pt" height="302pt"
 viewBox="0.00 0.00 859.45 302.00" xmlns="http://www.w3.org/2000/svg" xmlns:xlink="http://www.w3.org/1999/xlink">
<g id="graph0" class="graph" transform="scale(1 1) rotate(0) translate(4 298)">
<title>PQRSCoulombIntegralsToVertex.hpp</title>
<!-- Node1 -->
<g id="node1" class="node">
<title>Node1</title>
<g id="a_node1"><a xlink:title=" ">
<polygon fill="#999999" stroke="#666666" points="809.5,-294 617.5,-294 617.5,-275 809.5,-275 809.5,-294"/>
<text text-anchor="middle" x="713.5" y="-282" font-family="Helvetica,sans-Serif" font-size="10.00">PQRSCoulombIntegralsToVertex.hpp</text>
</a>
</g>
</g>
<!-- Node2 -->
<g id="node2" class="node">
<title>Node2</title>
<g id="a_node2"><a xlink:href="Algorithm_8hpp.html" target="_top" xlink:title=" ">
<polygon fill="white" stroke="#666666" points="784,-239 643,-239 643,-220 784,-220 784,-239"/>
<text text-anchor="middle" x="713.5" y="-227" font-family="Helvetica,sans-Serif" font-size="10.00">algorithms/Algorithm.hpp</text>
</a>
</g>
</g>
<!-- Node1&#45;&gt;Node2 -->
<g id="edge1" class="edge">
<title>Node1&#45;&gt;Node2</title>
<path fill="none" stroke="#63b8ff" d="M713.5,-274.75C713.5,-268.27 713.5,-259.16 713.5,-250.9"/>
<polygon fill="#63b8ff" stroke="#63b8ff" points="717,-250.96 713.5,-240.96 710,-250.96 717,-250.96"/>
</g>
<!-- Node20 -->
<g id="node20" class="node">
<title>Node20</title>
<g id="a_node20"><a xlink:title=" ">
<polygon fill="#e0e0e0" stroke="#999999" points="836,-129 789,-129 789,-110 836,-110 836,-129"/>
<text text-anchor="middle" x="812.5" y="-117" font-family="Helvetica,sans-Serif" font-size="10.00">vector</text>
</a>
</g>
</g>
<!-- Node1&#45;&gt;Node20 -->
<g id="edge42" class="edge">
<title>Node1&#45;&gt;Node20</title>
<path fill="none" stroke="#63b8ff" d="M742.76,-274.54C760.25,-267.65 781.37,-256.31 793.5,-239 814.06,-209.65 815.57,-166.24 814.35,-140.92"/>
<polygon fill="#63b8ff" stroke="#63b8ff" points="817.84,-140.73 813.65,-131 810.86,-141.22 817.84,-140.73"/>
</g>
<!-- Node25 -->
<g id="node25" class="node">
<title>Node25</title>
<g id="a_node25"><a xlink:href="Vector_8hpp.html" target="_top" xlink:title=" ">
<polygon fill="white" stroke="#666666" points="355.5,-239 259.5,-239 259.5,-220 355.5,-220 355.5,-239"/>
<text text-anchor="middle" x="307.5" y="-227" font-family="Helvetica,sans-Serif" font-size="10.00">math/Vector.hpp</text>
</a>
</g>
</g>
<!-- Node1&#45;&gt;Node25 -->
<g id="edge34" class="edge">
<title>Node1&#45;&gt;Node25</title>
<path fill="none" stroke="#63b8ff" d="M644.63,-274.51C566.78,-264.35 441.3,-247.97 367.37,-238.32"/>
<polygon fill="#63b8ff" stroke="#63b8ff" points="367.84,-234.85 357.47,-237.02 366.93,-241.79 367.84,-234.85"/>
</g>
<!-- Node3 -->
<g id="node3" class="node">
<title>Node3</title>
<g id="a_node3"><a xlink:href="Data_8hpp.html" target="_top" xlink:title=" ">
<polygon fill="white" stroke="#666666" points="614,-184 553,-184 553,-165 614,-165 614,-184"/>
<text text-anchor="middle" x="583.5" y="-172" font-family="Helvetica,sans-Serif" font-size="10.00">Data.hpp</text>
</a>
</g>
</g>
<!-- Node2&#45;&gt;Node3 -->
<g id="edge2" class="edge">
<title>Node2&#45;&gt;Node3</title>
<path fill="none" stroke="#63b8ff" d="M691.45,-219.51C670.69,-211.04 639.34,-198.27 615.77,-188.66"/>
<polygon fill="#63b8ff" stroke="#63b8ff" points="617.21,-185.46 606.63,-184.93 614.57,-191.95 617.21,-185.46"/>
</g>
<!-- Node10 -->
<g id="node10" class="node">
<title>Node10</title>
<g id="a_node10"><a xlink:title=" ">
<polygon fill="#e0e0e0" stroke="#999999" points="576.5,-19 520.5,-19 520.5,0 576.5,0 576.5,-19"/>
<text text-anchor="middle" x="548.5" y="-7" font-family="Helvetica,sans-Serif" font-size="10.00">sstream</text>
</a>
</g>
</g>
<!-- Node2&#45;&gt;Node10 -->
<g id="edge32" class="edge">
<title>Node2&#45;&gt;Node10</title>
<path fill="none" stroke="#63b8ff" d="M739.93,-219.51C786.24,-202.19 874.47,-161.37 845.5,-110 822.28,-68.84 798.42,-72.45 754.5,-55 698.87,-32.89 630.2,-20.87 587.88,-15.07"/>
<polygon fill="#63b8ff" stroke="#63b8ff" points="588.55,-11.62 578.18,-13.79 587.64,-18.56 588.55,-11.62"/>
</g>
<!-- Node12 -->
<g id="node12" class="node">
<title>Node12</title>
<g id="a_node12"><a xlink:title=" ">
<polygon fill="#e0e0e0" stroke="#999999" points="520.5,-74 476.5,-74 476.5,-55 520.5,-55 520.5,-74"/>
<text text-anchor="middle" x="498.5" y="-62" font-family="Helvetica,sans-Serif" font-size="10.00">string</text>
</a>
</g>
</g>
<!-- Node2&#45;&gt;Node12 -->
<g id="edge30" class="edge">
<title>Node2&#45;&gt;Node12</title>
<path fill="none" stroke="#63b8ff" d="M715.87,-219.74C721.14,-198.11 731.29,-141.65 703.5,-110 692.22,-97.16 587.25,-79.22 532.06,-70.57"/>
<polygon fill="#63b8ff" stroke="#63b8ff" points="532.69,-67.12 522.27,-69.05 531.61,-74.04 532.69,-67.12"/>
</g>
<!-- Node2&#45;&gt;Node20 -->
<g id="edge31" class="edge">
<title>Node2&#45;&gt;Node20</title>
<path fill="none" stroke="#63b8ff" d="M721.6,-219.66C737.99,-201.78 775.33,-161.05 796.71,-137.73"/>
<polygon fill="#63b8ff" stroke="#63b8ff" points="799.09,-140.31 803.26,-130.58 793.93,-135.58 799.09,-140.31"/>
</g>
<!-- Node21 -->
<g id="node21" class="node">
<title>Node21</title>
<g id="a_node21"><a xlink:href="Tensor_8hpp.html" target="_top" xlink:title=" ">
<polygon fill="white" stroke="#666666" points="87,-129 0,-129 0,-110 87,-110 87,-129"/>
<text text-anchor="middle" x="43.5" y="-117" font-family="Helvetica,sans-Serif" font-size="10.00">util/Tensor.hpp</text>
</a>
</g>
</g>
<!-- Node2&#45;&gt;Node21 -->
<g id="edge33" class="edge">
<title>Node2&#45;&gt;Node21</title>
<path fill="none" stroke="#63b8ff" d="M642.58,-227.23C547.56,-224.33 374.12,-214.88 229.5,-184 173.55,-172.06 111.11,-148.52 74.68,-133.7"/>
<polygon fill="#63b8ff" stroke="#63b8ff" points="76.22,-130.55 65.64,-129.98 73.55,-137.02 76.22,-130.55"/>
</g>
<!-- Node4 -->
<g id="node4" class="node">
<title>Node4</title>
<g id="a_node4"><a xlink:href="Log_8hpp.html" target="_top" xlink:title=" ">
<polygon fill="white" stroke="#666666" points="312.5,-129 238.5,-129 238.5,-110 312.5,-110 312.5,-129"/>
<text text-anchor="middle" x="275.5" y="-117" font-family="Helvetica,sans-Serif" font-size="10.00">util/Log.hpp</text>
</a>
</g>
</g>
<!-- Node3&#45;&gt;Node4 -->
<g id="edge3" class="edge">
<title>Node3&#45;&gt;Node4</title>
<path fill="none" stroke="#63b8ff" d="M552.56,-168.18C498.74,-158.91 387.53,-139.78 323.58,-128.77"/>
<polygon fill="#63b8ff" stroke="#63b8ff" points="324.54,-125.39 314.09,-127.14 323.35,-132.29 324.54,-125.39"/>
</g>
<!-- Node3&#45;&gt;Node12 -->
<g id="edge20" class="edge">
<title>Node3&#45;&gt;Node12</title>
<path fill="none" stroke="#63b8ff" d="M552.52,-170.65C504.71,-165.55 416.47,-153.05 397.5,-129 392.27,-122.37 392.89,-117.07 397.5,-110 405.42,-97.85 439.29,-84.51 465.65,-75.64"/>
<polygon fill="#63b8ff" stroke="#63b8ff" points="466.53,-79.03 474.95,-72.59 464.36,-72.38 466.53,-79.03"/>
</g>
<!-- Node16 -->
<g id="node16" class="node">
<title>Node16</title>
<g id="a_node16"><a xlink:href="Float_8hpp.html" target="_top" xlink:title=" ">
<polygon fill="white" stroke="#666666" points="745,-74 654,-74 654,-55 745,-55 745,-74"/>
<text text-anchor="middle" x="699.5" y="-62" font-family="Helvetica,sans-Serif" font-size="10.00">math/Float.hpp</text>
</a>
</g>
</g>
<!-- Node3&#45;&gt;Node16 -->
<g id="edge15" class="edge">
<title>Node3&#45;&gt;Node16</title>
<path fill="none" stroke="#63b8ff" d="M614.25,-171.56C642.7,-167.95 683.51,-157.73 703.5,-129 712.29,-116.36 710.33,-98.67 706.71,-85.17"/>
<polygon fill="#63b8ff" stroke="#63b8ff" points="710.04,-84.1 703.65,-75.65 703.38,-86.25 710.04,-84.1"/>
</g>
<!-- Node17 -->
<g id="node17" class="node">
<title>Node17</title>
<g id="a_node17"><a xlink:href="Complex_8hpp.html" target="_top" xlink:title=" ">
<polygon fill="white" stroke="#666666" points="638.5,-129 528.5,-129 528.5,-110 638.5,-110 638.5,-129"/>
<text text-anchor="middle" x="583.5" y="-117" font-family="Helvetica,sans-Serif" font-size="10.00">math/Complex.hpp</text>
</a>
</g>
</g>
<!-- Node3&#45;&gt;Node17 -->
<g id="edge17" class="edge">
<title>Node3&#45;&gt;Node17</title>
<path fill="none" stroke="#63b8ff" d="M583.5,-164.75C583.5,-158.27 583.5,-149.16 583.5,-140.9"/>
<polygon fill="#63b8ff" stroke="#63b8ff" points="587,-140.96 583.5,-130.96 580,-140.96 587,-140.96"/>
</g>
<!-- Node19 -->
<g id="node19" class="node">
<title>Node19</title>
<g id="a_node19"><a xlink:title=" ">
<polygon fill="#e0e0e0" stroke="#999999" points="694.5,-129 656.5,-129 656.5,-110 694.5,-110 694.5,-129"/>
<text text-anchor="middle" x="675.5" y="-117" font-family="Helvetica,sans-Serif" font-size="10.00">map</text>
</a>
</g>
</g>
<!-- Node3&#45;&gt;Node19 -->
<g id="edge21" class="edge">
<title>Node3&#45;&gt;Node19</title>
<path fill="none" stroke="#63b8ff" d="M599.11,-164.51C613.2,-156.39 634.19,-144.3 650.6,-134.85"/>
<polygon fill="#63b8ff" stroke="#63b8ff" points="651.89,-138.14 658.81,-130.11 648.4,-132.07 651.89,-138.14"/>
</g>
<!-- Node3&#45;&gt;Node20 -->
<g id="edge22" class="edge">
<title>Node3&#45;&gt;Node20</title>
<path fill="none" stroke="#63b8ff" d="M614.38,-166.35C656.86,-156.52 733.09,-138.88 777.58,-128.58"/>
<polygon fill="#63b8ff" stroke="#63b8ff" points="778.28,-132.01 787.23,-126.35 776.7,-125.19 778.28,-132.01"/>
</g>
<!-- Node3&#45;&gt;Node21 -->
<g id="edge23" class="edge">
<title>Node3&#45;&gt;Node21</title>
<path fill="none" stroke="#63b8ff" d="M552.53,-170.46C464.43,-161.81 211.57,-137 98.86,-125.93"/>
<polygon fill="#63b8ff" stroke="#63b8ff" points="99.24,-122.45 88.94,-124.96 98.55,-129.42 99.24,-122.45"/>
</g>
<!-- Node24 -->
<g id="node24" class="node">
<title>Node24</title>
<g id="a_node24"><a xlink:href="Exception_8hpp.html" target="_top" xlink:title=" ">
<polygon fill="white" stroke="#666666" points="510.5,-129 406.5,-129 406.5,-110 510.5,-110 510.5,-129"/>
<text text-anchor="middle" x="458.5" y="-117" font-family="Helvetica,sans-Serif" font-size="10.00">util/Exception.hpp</text>
</a>
</g>
</g>
<!-- Node3&#45;&gt;Node24 -->
<g id="edge26" class="edge">
<title>Node3&#45;&gt;Node24</title>
<path fill="none" stroke="#63b8ff" d="M562.3,-164.51C542.42,-156.08 512.47,-143.38 489.84,-133.79"/>
<polygon fill="#63b8ff" stroke="#63b8ff" points="491.36,-130.63 480.78,-129.95 488.63,-137.07 491.36,-130.63"/>
</g>
<!-- Node5 -->
<g id="node5" class="node">
<title>Node5</title>
<g id="a_node5"><a xlink:href="Time_8hpp.html" target="_top" xlink:title=" ">
<polygon fill="white" stroke="#666666" points="294,-74 213,-74 213,-55 294,-55 294,-74"/>
<text text-anchor="middle" x="253.5" y="-62" font-family="Helvetica,sans-Serif" font-size="10.00">util/Time.hpp</text>
</a>
</g>
</g>
<!-- Node4&#45;&gt;Node5 -->
<g id="edge4" class="edge">
<title>Node4&#45;&gt;Node5</title>
<path fill="none" stroke="#63b8ff" d="M271.87,-109.75C269.08,-103.04 265.13,-93.52 261.6,-85.02"/>
<polygon fill="#63b8ff" stroke="#63b8ff" points="264.86,-83.73 257.79,-75.84 258.39,-86.42 264.86,-83.73"/>
</g>
<!-- Node4&#45;&gt;Node12 -->
<g id="edge11" class="edge">
<title>Node4&#45;&gt;Node12</title>
<path fill="none" stroke="#63b8ff" d="M312.91,-110.14C349.22,-101.95 406.14,-88.9 465.11,-74.28"/>
<polygon fill="#63b8ff" stroke="#63b8ff" points="465.82,-77.71 474.67,-71.9 464.12,-70.92 465.82,-77.71"/>
</g>
<!-- Node13 -->
<g id="node13" class="node">
<title>Node13</title>
<g id="a_node13"><a xlink:title=" ">
<polygon fill="#e0e0e0" stroke="#999999" points="372.5,-74 312.5,-74 312.5,-55 372.5,-55 372.5,-74"/>
<text text-anchor="middle" x="342.5" y="-62" font-family="Helvetica,sans-Serif" font-size="10.00">iostream</text>
</a>
</g>
</g>
<!-- Node4&#45;&gt;Node13 -->
<g id="edge12" class="edge">
<title>Node4&#45;&gt;Node13</title>
<path fill="none" stroke="#63b8ff" d="M286.87,-109.51C296.55,-101.85 310.7,-90.66 322.31,-81.47"/>
<polygon fill="#63b8ff" stroke="#63b8ff" points="324.44,-84.25 330.12,-75.3 320.1,-78.76 324.44,-84.25"/>
</g>
<!-- Node14 -->
<g id="node14" class="node">
<title>Node14</title>
<g id="a_node14"><a xlink:title=" ">
<polygon fill="#e0e0e0" stroke="#999999" points="458,-74 391,-74 391,-55 458,-55 458,-74"/>
<text text-anchor="middle" x="424.5" y="-62" font-family="Helvetica,sans-Serif" font-size="10.00">streambuf</text>
</a>
</g>
</g>
<!-- Node4&#45;&gt;Node14 -->
<g id="edge13" class="edge">
<title>Node4&#45;&gt;Node14</title>
<path fill="none" stroke="#63b8ff" d="M300.78,-109.51C325,-100.89 361.8,-87.8 388.97,-78.14"/>
<polygon fill="#63b8ff" stroke="#63b8ff" points="389.92,-81.51 398.17,-74.87 387.58,-74.92 389.92,-81.51"/>
</g>
<!-- Node15 -->
<g id="node15" class="node">
<title>Node15</title>
<g id="a_node15"><a xlink:title=" ">
<polygon fill="#e0e0e0" stroke="#999999" points="195,-74 140,-74 140,-55 195,-55 195,-74"/>
<text text-anchor="middle" x="167.5" y="-62" font-family="Helvetica,sans-Serif" font-size="10.00">fstream</text>
</a>
</g>
</g>
<!-- Node4&#45;&gt;Node15 -->
<g id="edge14" class="edge">
<title>Node4&#45;&gt;Node15</title>
<path fill="none" stroke="#63b8ff" d="M257.18,-109.51C240.32,-101.24 215.07,-88.84 195.65,-79.31"/>
<polygon fill="#63b8ff" stroke="#63b8ff" points="197.43,-76.29 186.91,-75.02 194.34,-82.57 197.43,-76.29"/>
</g>
<!-- Node6 -->
<g id="node6" class="node">
<title>Node6</title>
<g id="a_node6"><a xlink:title=" ">
<polygon fill="#e0e0e0" stroke="#999999" points="210.5,-19 166.5,-19 166.5,0 210.5,0 210.5,-19"/>
<text text-anchor="middle" x="188.5" y="-7" font-family="Helvetica,sans-Serif" font-size="10.00">ctime</text>
</a>
</g>
</g>
<!-- Node5&#45;&gt;Node6 -->
<g id="edge5" class="edge">
<title>Node5&#45;&gt;Node6</title>
<path fill="none" stroke="#63b8ff" d="M242.47,-54.51C233.08,-46.85 219.35,-35.66 208.09,-26.47"/>
<polygon fill="#63b8ff" stroke="#63b8ff" points="210.5,-23.92 200.54,-20.31 206.07,-29.35 210.5,-23.92"/>
</g>
<!-- Node7 -->
<g id="node7" class="node">
<title>Node7</title>
<g id="a_node7"><a xlink:title=" ">
<polygon fill="#e0e0e0" stroke="#999999" points="278.5,-19 228.5,-19 228.5,0 278.5,0 278.5,-19"/>
<text text-anchor="middle" x="253.5" y="-7" font-family="Helvetica,sans-Serif" font-size="10.00">cstdint</text>
</a>
</g>
</g>
<!-- Node5&#45;&gt;Node7 -->
<g id="edge6" class="edge">
<title>Node5&#45;&gt;Node7</title>
<path fill="none" stroke="#63b8ff" d="M253.5,-54.75C253.5,-48.27 253.5,-39.16 253.5,-30.9"/>
<polygon fill="#63b8ff" stroke="#63b8ff" points="257,-30.96 253.5,-20.96 250,-30.96 257,-30.96"/>
</g>
<!-- Node8 -->
<g id="node8" class="node">
<title>Node8</title>
<g id="a_node8"><a xlink:title=" ">
<polygon fill="#e0e0e0" stroke="#999999" points="465,-19 408,-19 408,0 465,0 465,-19"/>
<text text-anchor="middle" x="436.5" y="-7" font-family="Helvetica,sans-Serif" font-size="10.00">ostream</text>
</a>
</g>
</g>
<!-- Node5&#45;&gt;Node8 -->
<g id="edge7" class="edge">
<title>Node5&#45;&gt;Node8</title>
<path fill="none" stroke="#63b8ff" d="M284.54,-54.51C315.51,-45.54 363.2,-31.73 396.88,-21.97"/>
<polygon fill="#63b8ff" stroke="#63b8ff" points="397.64,-25.4 406.27,-19.26 395.69,-18.68 397.64,-25.4"/>
</g>
<!-- Node9 -->
<g id="node9" class="node">
<title>Node9</title>
<g id="a_node9"><a xlink:title=" ">
<polygon fill="#e0e0e0" stroke="#999999" points="352.5,-19 296.5,-19 296.5,0 352.5,0 352.5,-19"/>
<text text-anchor="middle" x="324.5" y="-7" font-family="Helvetica,sans-Serif" font-size="10.00">iomanip</text>
</a>
</g>
</g>
<!-- Node5&#45;&gt;Node9 -->
<g id="edge8" class="edge">
<title>Node5&#45;&gt;Node9</title>
<path fill="none" stroke="#63b8ff" d="M265.54,-54.51C275.91,-46.77 291.1,-35.43 303.47,-26.2"/>
<polygon fill="#63b8ff" stroke="#63b8ff" points="305.5,-29.05 311.42,-20.26 301.31,-23.44 305.5,-29.05"/>
</g>
<!-- Node5&#45;&gt;Node10 -->
<g id="edge9" class="edge">
<title>Node5&#45;&gt;Node10</title>
<path fill="none" stroke="#63b8ff" d="M294.21,-56.19C350.87,-46.01 452.86,-27.68 508.92,-17.61"/>
<polygon fill="#63b8ff" stroke="#63b8ff" points="509.43,-21.07 518.66,-15.86 508.2,-14.19 509.43,-21.07"/>
</g>
<!-- Node11 -->
<g id="node11" class="node">
<title>Node11</title>
<g id="a_node11"><a xlink:title=" ">
<polygon fill="#e0e0e0" stroke="#999999" points="143,-19 96,-19 96,0 143,0 143,-19"/>
<text text-anchor="middle" x="119.5" y="-7" font-family="Helvetica,sans-Serif" font-size="10.00">cmath</text>
</a>
</g>
</g>
<!-- Node5&#45;&gt;Node11 -->
<g id="edge10" class="edge">
<title>Node5&#45;&gt;Node11</title>
<path fill="none" stroke="#63b8ff" d="M230.77,-54.51C209.27,-46.01 176.77,-33.15 152.43,-23.53"/>
<polygon fill="#63b8ff" stroke="#63b8ff" points="153.89,-20.34 143.3,-19.91 151.31,-26.85 153.89,-20.34"/>
</g>
<!-- Node16&#45;&gt;Node8 -->
<g id="edge16" class="edge">
<title>Node16&#45;&gt;Node8</title>
<path fill="none" stroke="#63b8ff" d="M654.89,-54.51C604.93,-44.44 524.68,-28.27 476.63,-18.59"/>
<polygon fill="#63b8ff" stroke="#63b8ff" points="477.41,-15.17 466.92,-16.63 476.03,-22.04 477.41,-15.17"/>
</g>
<!-- Node17&#45;&gt;Node16 -->
<g id="edge18" class="edge">
<title>Node17&#45;&gt;Node16</title>
<path fill="none" stroke="#63b8ff" d="M603.18,-109.51C621.45,-101.16 648.91,-88.61 669.85,-79.05"/>
<polygon fill="#63b8ff" stroke="#63b8ff" points="671.1,-82.33 678.74,-74.99 668.19,-75.96 671.1,-82.33"/>
</g>
<!-- Node18 -->
<g id="node18" class="node">
<title>Node18</title>
<g id="a_node18"><a xlink:title=" ">
<polygon fill="#e0e0e0" stroke="#999999" points="636,-74 577,-74 577,-55 636,-55 636,-74"/>
<text text-anchor="middle" x="606.5" y="-62" font-family="Helvetica,sans-Serif" font-size="10.00">complex</text>
</a>
</g>
</g>
<!-- Node17&#45;&gt;Node18 -->
<g id="edge19" class="edge">
<title>Node17&#45;&gt;Node18</title>
<path fill="none" stroke="#63b8ff" d="M587.3,-109.75C590.24,-102.96 594.44,-93.3 598.15,-84.73"/>
<polygon fill="#63b8ff" stroke="#63b8ff" points="601.25,-86.4 602.02,-75.83 594.83,-83.61 601.25,-86.4"/>
</g>
<!-- Node22 -->
<g id="node22" class="node">
<title>Node22</title>
<g id="a_node22"><a xlink:href="CTF_8hpp.html" target="_top" xlink:title=" ">
<polygon fill="white" stroke="#666666" points="80.5,-74 6.5,-74 6.5,-55 80.5,-55 80.5,-74"/>
<text text-anchor="middle" x="43.5" y="-62" font-family="Helvetica,sans-Serif" font-size="10.00">util/CTF.hpp</text>
</a>
</g>
</g>
<!-- Node21&#45;&gt;Node22 -->
<g id="edge24" class="edge">
<title>Node21&#45;&gt;Node22</title>
<path fill="none" stroke="#63b8ff" d="M43.5,-109.75C43.5,-103.27 43.5,-94.16 43.5,-85.9"/>
<polygon fill="#63b8ff" stroke="#63b8ff" points="47,-85.96 43.5,-75.96 40,-85.96 47,-85.96"/>
</g>
<!-- Node23 -->
<g id="node23" class="node">
<title>Node23</title>
<g id="a_node23"><a xlink:title=" ">
<polygon fill="#e0e0e0" stroke="#999999" points="68.5,-19 18.5,-19 18.5,0 68.5,0 68.5,-19"/>
<text text-anchor="middle" x="43.5" y="-7" font-family="Helvetica,sans-Serif" font-size="10.00">ctf.hpp</text>
</a>
</g>
</g>
<!-- Node22&#45;&gt;Node23 -->
<g id="edge25" class="edge">
<title>Node22&#45;&gt;Node23</title>
<path fill="none" stroke="#63b8ff" d="M43.5,-54.75C43.5,-48.27 43.5,-39.16 43.5,-30.9"/>
<polygon fill="#63b8ff" stroke="#63b8ff" points="47,-30.96 43.5,-20.96 40,-30.96 47,-30.96"/>
</g>
<!-- Node24&#45;&gt;Node10 -->
<g id="edge28" class="edge">
<title>Node24&#45;&gt;Node10</title>
<path fill="none" stroke="#63b8ff" d="M481.09,-109.51C496.8,-102.16 517.07,-90.32 529.5,-74 539.12,-61.37 543.89,-43.92 546.24,-30.51"/>
<polygon fill="#63b8ff" stroke="#63b8ff" points="549.7,-31.06 547.62,-20.67 542.76,-30.09 549.7,-31.06"/>
</g>
<!-- Node24&#45;&gt;Node12 -->
<g id="edge27" class="edge">
<title>Node24&#45;&gt;Node12</title>
<path fill="none" stroke="#63b8ff" d="M465.11,-109.75C470.46,-102.66 478.18,-92.42 484.85,-83.59"/>
<polygon fill="#63b8ff" stroke="#63b8ff" points="487.61,-85.74 490.84,-75.65 482.02,-81.52 487.61,-85.74"/>
</g>
<!-- Node24&#45;&gt;Node13 -->
<g id="edge29" class="edge">
<title>Node24&#45;&gt;Node13</title>
<path fill="none" stroke="#63b8ff" d="M438.82,-109.51C420.55,-101.16 393.09,-88.61 372.15,-79.05"/>
<polygon fill="#63b8ff" stroke="#63b8ff" points="373.81,-75.96 363.26,-74.99 370.9,-82.33 373.81,-75.96"/>
</g>
<!-- Node25&#45;&gt;Node13 -->
<g id="edge41" class="edge">
<title>Node25&#45;&gt;Node13</title>
<path fill="none" stroke="#63b8ff" d="M276.81,-219.51C259.63,-212.73 239.68,-201.53 229.5,-184 212.98,-155.56 210.99,-137.18 229.5,-110 238.01,-97.5 272.47,-85.03 301.12,-76.49"/>
<polygon fill="#63b8ff" stroke="#63b8ff" points="302.06,-79.86 310.69,-73.73 300.12,-73.14 302.06,-79.86"/>
</g>
<!-- Node26 -->
<g id="node26" class="node">
<title>Node26</title>
<g id="a_node26"><a xlink:href="MathFunctions_8hpp.html" target="_top" xlink:title=" ">
<polygon fill="white" stroke="#666666" points="376,-184 239,-184 239,-165 376,-165 376,-184"/>
<text text-anchor="middle" x="307.5" y="-172" font-family="Helvetica,sans-Serif" font-size="10.00">math/MathFunctions.hpp</text>
</a>
</g>
</g>
<!-- Node25&#45;&gt;Node26 -->
<g id="edge35" class="edge">
<title>Node25&#45;&gt;Node26</title>
<path fill="none" stroke="#63b8ff" d="M307.5,-219.75C307.5,-213.27 307.5,-204.16 307.5,-195.9"/>
<polygon fill="#63b8ff" stroke="#63b8ff" points="311,-195.96 307.5,-185.96 304,-195.96 311,-195.96"/>
</g>
<!-- Node26&#45;&gt;Node4 -->
<g id="edge40" class="edge">
<title>Node26&#45;&gt;Node4</title>
<path fill="none" stroke="#63b8ff" d="M302.22,-164.75C298.03,-157.81 292.02,-147.86 286.77,-139.16"/>
<polygon fill="#63b8ff" stroke="#63b8ff" points="289.85,-137.49 281.68,-130.74 283.85,-141.11 289.85,-137.49"/>
</g>
<!-- Node26&#45;&gt;Node11 -->
<g id="edge37" class="edge">
<title>Node26&#45;&gt;Node11</title>
<path fill="none" stroke="#63b8ff" d="M274.84,-164.61C234.15,-151.74 165.69,-123.81 130.5,-74 121.6,-61.4 119.09,-43.94 118.68,-30.52"/>
<polygon fill="#63b8ff" stroke="#63b8ff" points="122.18,-30.73 118.77,-20.69 115.18,-30.66 122.18,-30.73"/>
</g>
<!-- Node26&#45;&gt;Node12 -->
<g id="edge38" class="edge">
<title>Node26&#45;&gt;Node12</title>
<path fill="none" stroke="#63b8ff" d="M317.12,-164.78C332,-151.61 361.88,-126.46 390.5,-110 414.45,-96.22 443.5,-84.51 465.44,-76.56"/>
<polygon fill="#63b8ff" stroke="#63b8ff" points="466.51,-79.89 474.77,-73.26 464.17,-73.29 466.51,-79.89"/>
</g>
<!-- Node26&#45;&gt;Node17 -->
<g id="edge36" class="edge">
<title>Node26&#45;&gt;Node17</title>
<path fill="none" stroke="#63b8ff" d="M354.32,-164.51C401.65,-155.42 474.87,-141.36 525.77,-131.59"/>
<polygon fill="#63b8ff" stroke="#63b8ff" points="526.27,-135.05 535.43,-129.73 524.95,-128.18 526.27,-135.05"/>
</g>
<!-- Node26&#45;&gt;Node21 -->
<g id="edge39" class="edge">
<title>Node26&#45;&gt;Node21</title>
<path fill="none" stroke="#63b8ff" d="M262.72,-164.51C217.36,-155.4 147.15,-141.31 98.46,-131.53"/>
<polygon fill="#63b8ff" stroke="#63b8ff" points="99.16,-128.1 88.67,-129.57 97.78,-134.97 99.16,-128.1"/>
</g>
</g>
</svg>
