<?xml version="1.0" encoding="UTF-8" standalone="no"?>
<!DOCTYPE svg PUBLIC "-//W3C//DTD SVG 1.1//EN"
 "http://www.w3.org/Graphics/SVG/1.1/DTD/svg11.dtd">
<!-- Generated by graphviz version 5.0.1 (0)
 -->
<!-- Title: PseudoInverse.cxx Pages: 1 -->
<svg width="1087pt" height="368pt"
 viewBox="0.00 0.00 1086.50 368.00" xmlns="http://www.w3.org/2000/svg" xmlns:xlink="http://www.w3.org/1999/xlink">
<g id="graph0" class="graph" transform="scale(1 1) rotate(0) translate(4 364)">
<title>PseudoInverse.cxx</title>
<!-- Node1 -->
<g id="node1" class="node">
<title>Node1</title>
<g id="a_node1"><a xlink:title=" ">
<polygon fill="#999999" stroke="#666666" points="737,-360 629,-360 629,-341 737,-341 737,-360"/>
<text text-anchor="middle" x="683" y="-348" font-family="Helvetica,sans-Serif" font-size="10.00">PseudoInverse.cxx</text>
</a>
</g>
</g>
<!-- Node2 -->
<g id="node2" class="node">
<title>Node2</title>
<g id="a_node2"><a xlink:href="PseudoInverse_8hpp.html" target="_top" xlink:title=" ">
<polygon fill="white" stroke="#666666" points="646,-305 482,-305 482,-286 646,-286 646,-305"/>
<text text-anchor="middle" x="564" y="-293" font-family="Helvetica,sans-Serif" font-size="10.00">algorithms/PseudoInverse.hpp</text>
</a>
</g>
</g>
<!-- Node1&#45;&gt;Node2 -->
<g id="edge1" class="edge">
<title>Node1&#45;&gt;Node2</title>
<path fill="none" stroke="#63b8ff" d="M663.88,-340.98C644.65,-332.42 614.77,-319.11 592.69,-309.28"/>
<polygon fill="#63b8ff" stroke="#63b8ff" points="594.03,-306.04 583.47,-305.17 591.18,-312.44 594.03,-306.04"/>
</g>
<!-- Node5 -->
<g id="node5" class="node">
<title>Node5</title>
<g id="a_node5"><a xlink:href="Log_8hpp.html" target="_top" xlink:title=" ">
<polygon fill="white" stroke="#666666" points="261,-129 187,-129 187,-110 261,-110 261,-129"/>
<text text-anchor="middle" x="224" y="-117" font-family="Helvetica,sans-Serif" font-size="10.00">util/Log.hpp</text>
</a>
</g>
</g>
<!-- Node1&#45;&gt;Node5 -->
<g id="edge48" class="edge">
<title>Node1&#45;&gt;Node5</title>
<path fill="none" stroke="#63b8ff" d="M628.82,-344.46C585.2,-338.91 523.12,-327.58 473,-305 374.49,-260.62 277.31,-172.34 239.99,-136.34"/>
<polygon fill="#63b8ff" stroke="#63b8ff" points="242.18,-133.58 232.58,-129.11 237.29,-138.6 242.18,-133.58"/>
</g>
<!-- Node22 -->
<g id="node22" class="node">
<title>Node22</title>
<g id="a_node22"><a xlink:href="Tensor_8hpp.html" target="_top" xlink:title=" ">
<polygon fill="white" stroke="#666666" points="1078.5,-129 991.5,-129 991.5,-110 1078.5,-110 1078.5,-129"/>
<text text-anchor="middle" x="1035" y="-117" font-family="Helvetica,sans-Serif" font-size="10.00">util/Tensor.hpp</text>
</a>
</g>
</g>
<!-- Node1&#45;&gt;Node22 -->
<g id="edge49" class="edge">
<title>Node1&#45;&gt;Node22</title>
<path fill="none" stroke="#63b8ff" d="M729.01,-340.92C785.04,-328.61 880.32,-301.52 946,-250 985.4,-219.09 1014.05,-165.93 1027.12,-138.32"/>
<polygon fill="#63b8ff" stroke="#63b8ff" points="1030.36,-139.64 1031.35,-129.09 1024,-136.72 1030.36,-139.64"/>
</g>
<!-- Node26 -->
<g id="node26" class="node">
<title>Node26</title>
<g id="a_node26"><a xlink:href="PseudoInverseHermitianSvd_8hpp.html" target="_top" xlink:title=" ">
<polygon fill="white" stroke="#666666" points="936.5,-250 771.5,-250 771.5,-220 936.5,-220 936.5,-250"/>
<text text-anchor="start" x="779.5" y="-238" font-family="Helvetica,sans-Serif" font-size="10.00">math/PseudoInverseHermitian</text>
<text text-anchor="middle" x="854" y="-227" font-family="Helvetica,sans-Serif" font-size="10.00">Svd.hpp</text>
</a>
</g>
</g>
<!-- Node1&#45;&gt;Node26 -->
<g id="edge35" class="edge">
<title>Node1&#45;&gt;Node26</title>
<path fill="none" stroke="#63b8ff" d="M695.85,-340.97C722.89,-323.02 786.26,-280.96 824.07,-255.87"/>
<polygon fill="#63b8ff" stroke="#63b8ff" points="826.24,-258.63 832.63,-250.18 822.37,-252.8 826.24,-258.63"/>
</g>
<!-- Node3 -->
<g id="node3" class="node">
<title>Node3</title>
<g id="a_node3"><a xlink:href="Algorithm_8hpp.html" target="_top" xlink:title=" ">
<polygon fill="white" stroke="#666666" points="604.5,-244.5 463.5,-244.5 463.5,-225.5 604.5,-225.5 604.5,-244.5"/>
<text text-anchor="middle" x="534" y="-232.5" font-family="Helvetica,sans-Serif" font-size="10.00">algorithms/Algorithm.hpp</text>
</a>
</g>
</g>
<!-- Node2&#45;&gt;Node3 -->
<g id="edge2" class="edge">
<title>Node2&#45;&gt;Node3</title>
<path fill="none" stroke="#63b8ff" d="M559.57,-285.87C555.23,-277.4 548.48,-264.24 543.01,-253.57"/>
<polygon fill="#63b8ff" stroke="#63b8ff" points="546.12,-251.97 538.44,-244.67 539.89,-255.16 546.12,-251.97"/>
</g>
<!-- Node4 -->
<g id="node4" class="node">
<title>Node4</title>
<g id="a_node4"><a xlink:href="Data_8hpp.html" target="_top" xlink:title=" ">
<polygon fill="white" stroke="#666666" points="535.5,-184 474.5,-184 474.5,-165 535.5,-165 535.5,-184"/>
<text text-anchor="middle" x="505" y="-172" font-family="Helvetica,sans-Serif" font-size="10.00">Data.hpp</text>
</a>
</g>
</g>
<!-- Node3&#45;&gt;Node4 -->
<g id="edge3" class="edge">
<title>Node3&#45;&gt;Node4</title>
<path fill="none" stroke="#63b8ff" d="M529.72,-225.37C525.57,-216.99 519.13,-204.01 513.87,-193.39"/>
<polygon fill="#63b8ff" stroke="#63b8ff" points="516.87,-191.57 509.3,-184.17 510.6,-194.68 516.87,-191.57"/>
</g>
<!-- Node11 -->
<g id="node11" class="node">
<title>Node11</title>
<g id="a_node11"><a xlink:title=" ">
<polygon fill="#e0e0e0" stroke="#999999" points="360,-19 304,-19 304,0 360,0 360,-19"/>
<text text-anchor="middle" x="332" y="-7" font-family="Helvetica,sans-Serif" font-size="10.00">sstream</text>
</a>
</g>
</g>
<!-- Node3&#45;&gt;Node11 -->
<g id="edge33" class="edge">
<title>Node3&#45;&gt;Node11</title>
<path fill="none" stroke="#63b8ff" d="M476.38,-225.45C385.09,-210.59 213.84,-176.93 178,-129 158.31,-102.66 158.23,-81.29 178,-55 191.95,-36.44 253.14,-23.17 294.06,-16.18"/>
<polygon fill="#63b8ff" stroke="#63b8ff" points="294.69,-19.62 303.99,-14.54 293.55,-12.72 294.69,-19.62"/>
</g>
<!-- Node13 -->
<g id="node13" class="node">
<title>Node13</title>
<g id="a_node13"><a xlink:title=" ">
<polygon fill="#e0e0e0" stroke="#999999" points="517,-74 473,-74 473,-55 517,-55 517,-74"/>
<text text-anchor="middle" x="495" y="-62" font-family="Helvetica,sans-Serif" font-size="10.00">string</text>
</a>
</g>
</g>
<!-- Node3&#45;&gt;Node13 -->
<g id="edge31" class="edge">
<title>Node3&#45;&gt;Node13</title>
<path fill="none" stroke="#63b8ff" d="M518.8,-225.49C493.41,-210.18 443.78,-175.22 430,-129 427.59,-120.91 426.06,-117.47 430,-110 437.24,-96.27 450.83,-85.97 463.72,-78.76"/>
<polygon fill="#63b8ff" stroke="#63b8ff" points="465.59,-81.73 472.88,-74.05 462.39,-75.51 465.59,-81.73"/>
</g>
<!-- Node21 -->
<g id="node21" class="node">
<title>Node21</title>
<g id="a_node21"><a xlink:title=" ">
<polygon fill="#e0e0e0" stroke="#999999" points="580.5,-129 533.5,-129 533.5,-110 580.5,-110 580.5,-129"/>
<text text-anchor="middle" x="557" y="-117" font-family="Helvetica,sans-Serif" font-size="10.00">vector</text>
</a>
</g>
</g>
<!-- Node3&#45;&gt;Node21 -->
<g id="edge32" class="edge">
<title>Node3&#45;&gt;Node21</title>
<path fill="none" stroke="#63b8ff" d="M536.03,-225.17C538.3,-215.19 542.04,-198.46 545,-184 548.06,-169.02 551.27,-151.99 553.59,-139.34"/>
<polygon fill="#63b8ff" stroke="#63b8ff" points="557.1,-139.61 555.45,-129.14 550.21,-138.35 557.1,-139.61"/>
</g>
<!-- Node3&#45;&gt;Node22 -->
<g id="edge34" class="edge">
<title>Node3&#45;&gt;Node22</title>
<path fill="none" stroke="#63b8ff" d="M571.66,-225.47C661.44,-205.13 887.98,-153.81 987.2,-131.33"/>
<polygon fill="#63b8ff" stroke="#63b8ff" points="988.27,-134.68 997.25,-129.05 986.72,-127.85 988.27,-134.68"/>
</g>
<!-- Node4&#45;&gt;Node5 -->
<g id="edge4" class="edge">
<title>Node4&#45;&gt;Node5</title>
<path fill="none" stroke="#63b8ff" d="M474.39,-167.73C425.41,-158.49 329.07,-140.32 271.22,-129.41"/>
<polygon fill="#63b8ff" stroke="#63b8ff" points="271.71,-125.94 261.23,-127.52 270.41,-132.81 271.71,-125.94"/>
</g>
<!-- Node4&#45;&gt;Node13 -->
<g id="edge21" class="edge">
<title>Node4&#45;&gt;Node13</title>
<path fill="none" stroke="#63b8ff" d="M504.18,-164.66C502.56,-147.17 498.92,-107.8 496.74,-84.27"/>
<polygon fill="#63b8ff" stroke="#63b8ff" points="500.21,-83.79 495.8,-74.16 493.24,-84.44 500.21,-83.79"/>
</g>
<!-- Node17 -->
<g id="node17" class="node">
<title>Node17</title>
<g id="a_node17"><a xlink:href="Float_8hpp.html" target="_top" xlink:title=" ">
<polygon fill="white" stroke="#666666" points="837.5,-74 746.5,-74 746.5,-55 837.5,-55 837.5,-74"/>
<text text-anchor="middle" x="792" y="-62" font-family="Helvetica,sans-Serif" font-size="10.00">math/Float.hpp</text>
</a>
</g>
</g>
<!-- Node4&#45;&gt;Node17 -->
<g id="edge16" class="edge">
<title>Node4&#45;&gt;Node17</title>
<path fill="none" stroke="#63b8ff" d="M535.72,-170.44C603.35,-163.42 760.54,-145.52 778,-129 789.91,-117.74 792.81,-98.82 793.09,-84.56"/>
<polygon fill="#63b8ff" stroke="#63b8ff" points="796.59,-84.28 792.88,-74.36 789.59,-84.43 796.59,-84.28"/>
</g>
<!-- Node18 -->
<g id="node18" class="node">
<title>Node18</title>
<g id="a_node18"><a xlink:href="Complex_8hpp.html" target="_top" xlink:title=" ">
<polygon fill="white" stroke="#666666" points="935,-129 825,-129 825,-110 935,-110 935,-129"/>
<text text-anchor="middle" x="880" y="-117" font-family="Helvetica,sans-Serif" font-size="10.00">math/Complex.hpp</text>
</a>
</g>
</g>
<!-- Node4&#45;&gt;Node18 -->
<g id="edge18" class="edge">
<title>Node4&#45;&gt;Node18</title>
<path fill="none" stroke="#63b8ff" d="M535.69,-169.16C596.41,-160.58 733.08,-141.26 814.79,-129.72"/>
<polygon fill="#63b8ff" stroke="#63b8ff" points="815.55,-133.14 824.96,-128.28 814.57,-126.21 815.55,-133.14"/>
</g>
<!-- Node20 -->
<g id="node20" class="node">
<title>Node20</title>
<g id="a_node20"><a xlink:title=" ">
<polygon fill="#e0e0e0" stroke="#999999" points="477,-129 439,-129 439,-110 477,-110 477,-129"/>
<text text-anchor="middle" x="458" y="-117" font-family="Helvetica,sans-Serif" font-size="10.00">map</text>
</a>
</g>
</g>
<!-- Node4&#45;&gt;Node20 -->
<g id="edge22" class="edge">
<title>Node4&#45;&gt;Node20</title>
<path fill="none" stroke="#63b8ff" d="M497.24,-164.75C490.53,-157.18 480.66,-146.05 472.49,-136.84"/>
<polygon fill="#63b8ff" stroke="#63b8ff" points="474.87,-134.25 465.62,-129.09 469.63,-138.89 474.87,-134.25"/>
</g>
<!-- Node4&#45;&gt;Node21 -->
<g id="edge23" class="edge">
<title>Node4&#45;&gt;Node21</title>
<path fill="none" stroke="#63b8ff" d="M513.59,-164.75C521.16,-157.03 532.38,-145.6 541.51,-136.28"/>
<polygon fill="#63b8ff" stroke="#63b8ff" points="544.07,-138.68 548.57,-129.09 539.07,-133.78 544.07,-138.68"/>
</g>
<!-- Node4&#45;&gt;Node22 -->
<g id="edge24" class="edge">
<title>Node4&#45;&gt;Node22</title>
<path fill="none" stroke="#63b8ff" d="M535.79,-170.42C622.68,-161.73 870.66,-136.93 980.97,-125.9"/>
<polygon fill="#63b8ff" stroke="#63b8ff" points="981.6,-129.36 991.2,-124.88 980.9,-122.39 981.6,-129.36"/>
</g>
<!-- Node25 -->
<g id="node25" class="node">
<title>Node25</title>
<g id="a_node25"><a xlink:href="Exception_8hpp.html" target="_top" xlink:title=" ">
<polygon fill="white" stroke="#666666" points="383,-129 279,-129 279,-110 383,-110 383,-129"/>
<text text-anchor="middle" x="331" y="-117" font-family="Helvetica,sans-Serif" font-size="10.00">util/Exception.hpp</text>
</a>
</g>
</g>
<!-- Node4&#45;&gt;Node25 -->
<g id="edge27" class="edge">
<title>Node4&#45;&gt;Node25</title>
<path fill="none" stroke="#63b8ff" d="M477.04,-164.98C447.7,-156.05 401.4,-141.94 368.81,-132.02"/>
<polygon fill="#63b8ff" stroke="#63b8ff" points="369.76,-128.65 359.18,-129.08 367.72,-135.34 369.76,-128.65"/>
</g>
<!-- Node6 -->
<g id="node6" class="node">
<title>Node6</title>
<g id="a_node6"><a xlink:href="Time_8hpp.html" target="_top" xlink:title=" ">
<polygon fill="white" stroke="#666666" points="130.5,-74 49.5,-74 49.5,-55 130.5,-55 130.5,-74"/>
<text text-anchor="middle" x="90" y="-62" font-family="Helvetica,sans-Serif" font-size="10.00">util/Time.hpp</text>
</a>
</g>
</g>
<!-- Node5&#45;&gt;Node6 -->
<g id="edge5" class="edge">
<title>Node5&#45;&gt;Node6</title>
<path fill="none" stroke="#63b8ff" d="M202.47,-109.98C180.53,-101.3 146.26,-87.75 121.31,-77.88"/>
<polygon fill="#63b8ff" stroke="#63b8ff" points="122.51,-74.59 111.92,-74.17 119.93,-81.1 122.51,-74.59"/>
</g>
<!-- Node5&#45;&gt;Node13 -->
<g id="edge12" class="edge">
<title>Node5&#45;&gt;Node13</title>
<path fill="none" stroke="#63b8ff" d="M261.11,-111.24C314.57,-100.79 412.35,-81.66 462.88,-71.78"/>
<polygon fill="#63b8ff" stroke="#63b8ff" points="463.77,-75.17 472.91,-69.82 462.43,-68.3 463.77,-75.17"/>
</g>
<!-- Node14 -->
<g id="node14" class="node">
<title>Node14</title>
<g id="a_node14"><a xlink:title=" ">
<polygon fill="#e0e0e0" stroke="#999999" points="406,-74 346,-74 346,-55 406,-55 406,-74"/>
<text text-anchor="middle" x="376" y="-62" font-family="Helvetica,sans-Serif" font-size="10.00">iostream</text>
</a>
</g>
</g>
<!-- Node5&#45;&gt;Node14 -->
<g id="edge13" class="edge">
<title>Node5&#45;&gt;Node14</title>
<path fill="none" stroke="#63b8ff" d="M248.42,-109.98C273.72,-101.16 313.45,-87.31 341.86,-77.41"/>
<polygon fill="#63b8ff" stroke="#63b8ff" points="343.1,-80.68 351.39,-74.08 340.79,-74.07 343.1,-80.68"/>
</g>
<!-- Node15 -->
<g id="node15" class="node">
<title>Node15</title>
<g id="a_node15"><a xlink:title=" ">
<polygon fill="#e0e0e0" stroke="#999999" points="254.5,-74 187.5,-74 187.5,-55 254.5,-55 254.5,-74"/>
<text text-anchor="middle" x="221" y="-62" font-family="Helvetica,sans-Serif" font-size="10.00">streambuf</text>
</a>
</g>
</g>
<!-- Node5&#45;&gt;Node15 -->
<g id="edge14" class="edge">
<title>Node5&#45;&gt;Node15</title>
<path fill="none" stroke="#63b8ff" d="M223.5,-109.75C223.11,-102.8 222.55,-92.85 222.05,-84.13"/>
<polygon fill="#63b8ff" stroke="#63b8ff" points="225.55,-83.88 221.49,-74.09 218.56,-84.27 225.55,-83.88"/>
</g>
<!-- Node16 -->
<g id="node16" class="node">
<title>Node16</title>
<g id="a_node16"><a xlink:title=" ">
<polygon fill="#e0e0e0" stroke="#999999" points="327.5,-74 272.5,-74 272.5,-55 327.5,-55 327.5,-74"/>
<text text-anchor="middle" x="300" y="-62" font-family="Helvetica,sans-Serif" font-size="10.00">fstream</text>
</a>
</g>
</g>
<!-- Node5&#45;&gt;Node16 -->
<g id="edge15" class="edge">
<title>Node5&#45;&gt;Node16</title>
<path fill="none" stroke="#63b8ff" d="M236.21,-109.98C247.78,-101.92 265.38,-89.65 279.16,-80.03"/>
<polygon fill="#63b8ff" stroke="#63b8ff" points="281.37,-82.76 287.57,-74.17 277.36,-77.02 281.37,-82.76"/>
</g>
<!-- Node7 -->
<g id="node7" class="node">
<title>Node7</title>
<g id="a_node7"><a xlink:title=" ">
<polygon fill="#e0e0e0" stroke="#999999" points="44,-19 0,-19 0,0 44,0 44,-19"/>
<text text-anchor="middle" x="22" y="-7" font-family="Helvetica,sans-Serif" font-size="10.00">ctime</text>
</a>
</g>
</g>
<!-- Node6&#45;&gt;Node7 -->
<g id="edge6" class="edge">
<title>Node6&#45;&gt;Node7</title>
<path fill="none" stroke="#63b8ff" d="M79.07,-54.98C68.92,-47.07 53.58,-35.11 41.35,-25.58"/>
<polygon fill="#63b8ff" stroke="#63b8ff" points="43.16,-22.56 33.12,-19.17 38.86,-28.08 43.16,-22.56"/>
</g>
<!-- Node8 -->
<g id="node8" class="node">
<title>Node8</title>
<g id="a_node8"><a xlink:title=" ">
<polygon fill="#e0e0e0" stroke="#999999" points="894,-19 844,-19 844,0 894,0 894,-19"/>
<text text-anchor="middle" x="869" y="-7" font-family="Helvetica,sans-Serif" font-size="10.00">cstdint</text>
</a>
</g>
</g>
<!-- Node6&#45;&gt;Node8 -->
<g id="edge7" class="edge">
<title>Node6&#45;&gt;Node8</title>
<path fill="none" stroke="#63b8ff" d="M130.72,-59.29C145.59,-57.82 162.55,-56.24 178,-55 427.93,-34.94 490.8,-35.31 741,-19 772.45,-16.95 808.24,-14.57 833.96,-12.85"/>
<polygon fill="#63b8ff" stroke="#63b8ff" points="834.24,-16.34 843.98,-12.18 833.77,-9.35 834.24,-16.34"/>
</g>
<!-- Node9 -->
<g id="node9" class="node">
<title>Node9</title>
<g id="a_node9"><a xlink:title=" ">
<polygon fill="#e0e0e0" stroke="#999999" points="731.5,-19 674.5,-19 674.5,0 731.5,0 731.5,-19"/>
<text text-anchor="middle" x="703" y="-7" font-family="Helvetica,sans-Serif" font-size="10.00">ostream</text>
</a>
</g>
</g>
<!-- Node6&#45;&gt;Node9 -->
<g id="edge8" class="edge">
<title>Node6&#45;&gt;Node9</title>
<path fill="none" stroke="#63b8ff" d="M130.74,-59.46C145.61,-58.02 162.56,-56.4 178,-55 359.68,-38.53 576.91,-20.71 664.04,-13.65"/>
<polygon fill="#63b8ff" stroke="#63b8ff" points="664.57,-17.11 674.25,-12.82 664,-10.14 664.57,-17.11"/>
</g>
<!-- Node10 -->
<g id="node10" class="node">
<title>Node10</title>
<g id="a_node10"><a xlink:title=" ">
<polygon fill="#e0e0e0" stroke="#999999" points="118,-19 62,-19 62,0 118,0 118,-19"/>
<text text-anchor="middle" x="90" y="-7" font-family="Helvetica,sans-Serif" font-size="10.00">iomanip</text>
</a>
</g>
</g>
<!-- Node6&#45;&gt;Node10 -->
<g id="edge9" class="edge">
<title>Node6&#45;&gt;Node10</title>
<path fill="none" stroke="#63b8ff" d="M90,-54.75C90,-47.8 90,-37.85 90,-29.13"/>
<polygon fill="#63b8ff" stroke="#63b8ff" points="93.5,-29.09 90,-19.09 86.5,-29.09 93.5,-29.09"/>
</g>
<!-- Node6&#45;&gt;Node11 -->
<g id="edge10" class="edge">
<title>Node6&#45;&gt;Node11</title>
<path fill="none" stroke="#63b8ff" d="M128.88,-54.98C174.25,-45.05 248.78,-28.73 293.83,-18.86"/>
<polygon fill="#63b8ff" stroke="#63b8ff" points="294.78,-22.23 303.8,-16.68 293.28,-15.4 294.78,-22.23"/>
</g>
<!-- Node12 -->
<g id="node12" class="node">
<title>Node12</title>
<g id="a_node12"><a xlink:title=" ">
<polygon fill="#e0e0e0" stroke="#999999" points="183.5,-19 136.5,-19 136.5,0 183.5,0 183.5,-19"/>
<text text-anchor="middle" x="160" y="-7" font-family="Helvetica,sans-Serif" font-size="10.00">cmath</text>
</a>
</g>
</g>
<!-- Node6&#45;&gt;Node12 -->
<g id="edge11" class="edge">
<title>Node6&#45;&gt;Node12</title>
<path fill="none" stroke="#63b8ff" d="M101.25,-54.98C111.8,-47 127.8,-34.88 140.44,-25.31"/>
<polygon fill="#63b8ff" stroke="#63b8ff" points="142.69,-28 148.55,-19.17 138.46,-22.42 142.69,-28"/>
</g>
<!-- Node17&#45;&gt;Node9 -->
<g id="edge17" class="edge">
<title>Node17&#45;&gt;Node9</title>
<path fill="none" stroke="#63b8ff" d="M777.7,-54.98C763.9,-46.77 742.76,-34.18 726.49,-24.49"/>
<polygon fill="#63b8ff" stroke="#63b8ff" points="727.94,-21.28 717.56,-19.17 724.36,-27.29 727.94,-21.28"/>
</g>
<!-- Node18&#45;&gt;Node17 -->
<g id="edge19" class="edge">
<title>Node18&#45;&gt;Node17</title>
<path fill="none" stroke="#63b8ff" d="M865.86,-109.98C852.21,-101.77 831.31,-89.18 815.22,-79.49"/>
<polygon fill="#63b8ff" stroke="#63b8ff" points="816.77,-76.33 806.4,-74.17 813.16,-82.33 816.77,-76.33"/>
</g>
<!-- Node19 -->
<g id="node19" class="node">
<title>Node19</title>
<g id="a_node19"><a xlink:title=" ">
<polygon fill="#e0e0e0" stroke="#999999" points="914.5,-74 855.5,-74 855.5,-55 914.5,-55 914.5,-74"/>
<text text-anchor="middle" x="885" y="-62" font-family="Helvetica,sans-Serif" font-size="10.00">complex</text>
</a>
</g>
</g>
<!-- Node18&#45;&gt;Node19 -->
<g id="edge20" class="edge">
<title>Node18&#45;&gt;Node19</title>
<path fill="none" stroke="#63b8ff" d="M880.83,-109.75C881.48,-102.8 882.42,-92.85 883.24,-84.13"/>
<polygon fill="#63b8ff" stroke="#63b8ff" points="886.73,-84.37 884.19,-74.09 879.77,-83.72 886.73,-84.37"/>
</g>
<!-- Node23 -->
<g id="node23" class="node">
<title>Node23</title>
<g id="a_node23"><a xlink:href="CTF_8hpp.html" target="_top" xlink:title=" ">
<polygon fill="white" stroke="#666666" points="1072,-74 998,-74 998,-55 1072,-55 1072,-74"/>
<text text-anchor="middle" x="1035" y="-62" font-family="Helvetica,sans-Serif" font-size="10.00">util/CTF.hpp</text>
</a>
</g>
</g>
<!-- Node22&#45;&gt;Node23 -->
<g id="edge25" class="edge">
<title>Node22&#45;&gt;Node23</title>
<path fill="none" stroke="#63b8ff" d="M1035,-109.75C1035,-102.8 1035,-92.85 1035,-84.13"/>
<polygon fill="#63b8ff" stroke="#63b8ff" points="1038.5,-84.09 1035,-74.09 1031.5,-84.09 1038.5,-84.09"/>
</g>
<!-- Node24 -->
<g id="node24" class="node">
<title>Node24</title>
<g id="a_node24"><a xlink:title=" ">
<polygon fill="#e0e0e0" stroke="#999999" points="1060,-19 1010,-19 1010,0 1060,0 1060,-19"/>
<text text-anchor="middle" x="1035" y="-7" font-family="Helvetica,sans-Serif" font-size="10.00">ctf.hpp</text>
</a>
</g>
</g>
<!-- Node23&#45;&gt;Node24 -->
<g id="edge26" class="edge">
<title>Node23&#45;&gt;Node24</title>
<path fill="none" stroke="#63b8ff" d="M1035,-54.75C1035,-47.8 1035,-37.85 1035,-29.13"/>
<polygon fill="#63b8ff" stroke="#63b8ff" points="1038.5,-29.09 1035,-19.09 1031.5,-29.09 1038.5,-29.09"/>
</g>
<!-- Node25&#45;&gt;Node11 -->
<g id="edge29" class="edge">
<title>Node25&#45;&gt;Node11</title>
<path fill="none" stroke="#63b8ff" d="M364.4,-109.98C382.78,-103.4 404.02,-92.24 415,-74 429.06,-50.64 398.01,-32.82 369.97,-22.09"/>
<polygon fill="#63b8ff" stroke="#63b8ff" points="370.85,-18.69 360.25,-18.59 368.48,-25.27 370.85,-18.69"/>
</g>
<!-- Node25&#45;&gt;Node13 -->
<g id="edge28" class="edge">
<title>Node25&#45;&gt;Node13</title>
<path fill="none" stroke="#63b8ff" d="M357.35,-109.98C386.15,-100.68 432.28,-85.77 463.1,-75.81"/>
<polygon fill="#63b8ff" stroke="#63b8ff" points="464.48,-79.04 472.92,-72.63 462.33,-72.38 464.48,-79.04"/>
</g>
<!-- Node25&#45;&gt;Node14 -->
<g id="edge30" class="edge">
<title>Node25&#45;&gt;Node14</title>
<path fill="none" stroke="#63b8ff" d="M338.43,-109.75C344.85,-102.18 354.31,-91.05 362.12,-81.84"/>
<polygon fill="#63b8ff" stroke="#63b8ff" points="364.9,-83.98 368.71,-74.09 359.57,-79.45 364.9,-83.98"/>
</g>
<!-- Node26&#45;&gt;Node18 -->
<g id="edge36" class="edge">
<title>Node26&#45;&gt;Node18</title>
<path fill="none" stroke="#63b8ff" d="M857.29,-219.63C861.97,-199.21 870.54,-161.81 875.71,-139.24"/>
<polygon fill="#63b8ff" stroke="#63b8ff" points="879.18,-139.76 878,-129.23 872.36,-138.2 879.18,-139.76"/>
</g>
<!-- Node26&#45;&gt;Node22 -->
<g id="edge46" class="edge">
<title>Node26&#45;&gt;Node22</title>
<path fill="none" stroke="#63b8ff" d="M881.53,-219.9C899.83,-210.29 924.21,-196.99 945,-184 969.86,-168.47 997.21,-148.77 1015.17,-135.46"/>
<polygon fill="#63b8ff" stroke="#63b8ff" points="1017.71,-137.93 1023.63,-129.14 1013.52,-132.32 1017.71,-137.93"/>
</g>
<!-- Node27 -->
<g id="node27" class="node">
<title>Node27</title>
<g id="a_node27"><a xlink:href="DryTensor_8hpp.html" target="_top" xlink:title=" ">
<polygon fill="white" stroke="#666666" points="712,-184 626,-184 626,-165 712,-165 712,-184"/>
<text text-anchor="middle" x="669" y="-172" font-family="Helvetica,sans-Serif" font-size="10.00">DryTensor.hpp</text>
</a>
</g>
</g>
<!-- Node26&#45;&gt;Node27 -->
<g id="edge37" class="edge">
<title>Node26&#45;&gt;Node27</title>
<path fill="none" stroke="#63b8ff" d="M809.69,-219.99C777.9,-209.94 735.58,-196.55 705.68,-187.1"/>
<polygon fill="#63b8ff" stroke="#63b8ff" points="706.64,-183.73 696.05,-184.05 704.53,-190.41 706.64,-183.73"/>
</g>
<!-- Node29 -->
<g id="node29" class="node">
<title>Node29</title>
<g id="a_node29"><a xlink:title=" ">
<polygon fill="#e0e0e0" stroke="#999999" points="936,-184 882,-184 882,-165 936,-165 936,-184"/>
<text text-anchor="middle" x="909" y="-172" font-family="Helvetica,sans-Serif" font-size="10.00">random</text>
</a>
</g>
</g>
<!-- Node26&#45;&gt;Node29 -->
<g id="edge47" class="edge">
<title>Node26&#45;&gt;Node29</title>
<path fill="none" stroke="#63b8ff" d="M867.31,-219.84C875.3,-211.35 885.48,-200.52 893.78,-191.69"/>
<polygon fill="#63b8ff" stroke="#63b8ff" points="896.46,-193.95 900.76,-184.27 891.36,-189.15 896.46,-193.95"/>
</g>
<!-- Node27&#45;&gt;Node5 -->
<g id="edge42" class="edge">
<title>Node27&#45;&gt;Node5</title>
<path fill="none" stroke="#63b8ff" d="M625.77,-169.7C554.2,-163.19 406.38,-148.8 271.24,-129.09"/>
<polygon fill="#63b8ff" stroke="#63b8ff" points="271.52,-125.59 261.12,-127.59 270.5,-132.51 271.52,-125.59"/>
</g>
<!-- Node27&#45;&gt;Node8 -->
<g id="edge43" class="edge">
<title>Node27&#45;&gt;Node8</title>
<path fill="none" stroke="#63b8ff" d="M712.02,-169.58C785.6,-162.45 929.15,-146.45 944,-129 973.14,-94.77 921.23,-48.27 890.03,-25.01"/>
<polygon fill="#63b8ff" stroke="#63b8ff" points="892.01,-22.13 881.86,-19.09 887.9,-27.79 892.01,-22.13"/>
</g>
<!-- Node27&#45;&gt;Node13 -->
<g id="edge45" class="edge">
<title>Node27&#45;&gt;Node13</title>
<path fill="none" stroke="#63b8ff" d="M659.83,-164.9C645.64,-151.89 617.18,-126.95 590,-110 569.86,-97.44 545.62,-86.14 526.66,-78.07"/>
<polygon fill="#63b8ff" stroke="#63b8ff" points="527.85,-74.78 517.28,-74.15 525.16,-81.24 527.85,-74.78"/>
</g>
<!-- Node27&#45;&gt;Node21 -->
<g id="edge44" class="edge">
<title>Node27&#45;&gt;Node21</title>
<path fill="none" stroke="#63b8ff" d="M651.01,-164.98C633.07,-156.5 605.28,-143.35 584.57,-133.54"/>
<polygon fill="#63b8ff" stroke="#63b8ff" points="585.86,-130.28 575.32,-129.17 582.86,-136.61 585.86,-130.28"/>
</g>
<!-- Node28 -->
<g id="node28" class="node">
<title>Node28</title>
<g id="a_node28"><a xlink:href="SourceLocation_8hpp.html" target="_top" xlink:title=" ">
<polygon fill="white" stroke="#666666" points="768.5,-129 637.5,-129 637.5,-110 768.5,-110 768.5,-129"/>
<text text-anchor="middle" x="703" y="-117" font-family="Helvetica,sans-Serif" font-size="10.00">util/SourceLocation.hpp</text>
</a>
</g>
</g>
<!-- Node27&#45;&gt;Node28 -->
<g id="edge38" class="edge">
<title>Node27&#45;&gt;Node28</title>
<path fill="none" stroke="#63b8ff" d="M674.61,-164.75C679.32,-157.42 686.17,-146.73 691.97,-137.7"/>
<polygon fill="#63b8ff" stroke="#63b8ff" points="695.04,-139.4 697.49,-129.09 689.14,-135.62 695.04,-139.4"/>
</g>
<!-- Node28&#45;&gt;Node9 -->
<g id="edge41" class="edge">
<title>Node28&#45;&gt;Node9</title>
<path fill="none" stroke="#63b8ff" d="M703,-109.66C703,-92.17 703,-52.8 703,-29.27"/>
<polygon fill="#63b8ff" stroke="#63b8ff" points="706.5,-29.16 703,-19.16 699.5,-29.16 706.5,-29.16"/>
</g>
<!-- Node28&#45;&gt;Node11 -->
<g id="edge40" class="edge">
<title>Node28&#45;&gt;Node11</title>
<path fill="none" stroke="#63b8ff" d="M681.75,-109.94C648.79,-96.89 583.18,-71.75 526,-55 472.58,-39.35 409.56,-25.77 370.19,-17.86"/>
<polygon fill="#63b8ff" stroke="#63b8ff" points="370.71,-14.4 360.22,-15.88 369.34,-21.26 370.71,-14.4"/>
</g>
<!-- Node28&#45;&gt;Node13 -->
<g id="edge39" class="edge">
<title>Node28&#45;&gt;Node13</title>
<path fill="none" stroke="#63b8ff" d="M669.58,-109.98C630.43,-100.01 566,-83.59 527.33,-73.74"/>
<polygon fill="#63b8ff" stroke="#63b8ff" points="527.7,-70.22 517.14,-71.14 525.97,-77 527.7,-70.22"/>
</g>
</g>
</svg>
