<?xml version="1.0" encoding="UTF-8" standalone="no"?>
<!DOCTYPE svg PUBLIC "-//W3C//DTD SVG 1.1//EN"
 "http://www.w3.org/Graphics/SVG/1.1/DTD/svg11.dtd">
<!-- Generated by graphviz version 5.0.1 (0)
 -->
<!-- Title: RandomTensor.hpp Pages: 1 -->
<svg width="2002pt" height="247pt"
 viewBox="0.00 0.00 2002.00 247.00" xmlns="http://www.w3.org/2000/svg" xmlns:xlink="http://www.w3.org/1999/xlink">
<g id="graph0" class="graph" transform="scale(1 1) rotate(0) translate(4 243)">
<title>RandomTensor.hpp</title>
<!-- Node1 -->
<g id="node1" class="node">
<title>Node1</title>
<g id="a_node1"><a xlink:title=" ">
<polygon fill="#999999" stroke="#666666" points="1883.5,-239 1774.5,-239 1774.5,-220 1883.5,-220 1883.5,-239"/>
<text text-anchor="middle" x="1829" y="-227" font-family="Helvetica,sans-Serif" font-size="10.00">RandomTensor.hpp</text>
</a>
</g>
</g>
<!-- Node2 -->
<g id="node2" class="node">
<title>Node2</title>
<g id="a_node2"><a xlink:href="Complex_8hpp.html" target="_top" xlink:title=" ">
<polygon fill="white" stroke="#666666" points="1884,-184 1774,-184 1774,-165 1884,-165 1884,-184"/>
<text text-anchor="middle" x="1829" y="-172" font-family="Helvetica,sans-Serif" font-size="10.00">math/Complex.hpp</text>
</a>
</g>
</g>
<!-- Node1&#45;&gt;Node2 -->
<g id="edge1" class="edge">
<title>Node1&#45;&gt;Node2</title>
<path fill="none" stroke="#63b8ff" d="M1829,-219.75C1829,-212.8 1829,-202.85 1829,-194.13"/>
<polygon fill="#63b8ff" stroke="#63b8ff" points="1832.5,-194.09 1829,-184.09 1825.5,-194.09 1832.5,-194.09"/>
</g>
<!-- Node5 -->
<g id="node5" class="node">
<title>Node5</title>
<g id="a_node5"><a xlink:title=" ">
<polygon fill="#e0e0e0" stroke="#999999" points="1942.5,-129 1883.5,-129 1883.5,-110 1942.5,-110 1942.5,-129"/>
<text text-anchor="middle" x="1913" y="-117" font-family="Helvetica,sans-Serif" font-size="10.00">complex</text>
</a>
</g>
</g>
<!-- Node1&#45;&gt;Node5 -->
<g id="edge44" class="edge">
<title>Node1&#45;&gt;Node5</title>
<path fill="none" stroke="#63b8ff" d="M1847.52,-219.88C1861.86,-212.32 1881.21,-200.03 1893,-184 1902.74,-170.76 1907.83,-152.64 1910.43,-139.14"/>
<polygon fill="#63b8ff" stroke="#63b8ff" points="1913.91,-139.54 1912.08,-129.1 1907,-138.4 1913.91,-139.54"/>
</g>
<!-- Node6 -->
<g id="node6" class="node">
<title>Node6</title>
<g id="a_node6"><a xlink:href="Sisi4s_8hpp.html" target="_top" xlink:title=" ">
<polygon fill="white" stroke="#666666" points="1650,-184 1584,-184 1584,-165 1650,-165 1650,-184"/>
<text text-anchor="middle" x="1617" y="-172" font-family="Helvetica,sans-Serif" font-size="10.00">Sisi4s.hpp</text>
</a>
</g>
</g>
<!-- Node1&#45;&gt;Node6 -->
<g id="edge5" class="edge">
<title>Node1&#45;&gt;Node6</title>
<path fill="none" stroke="#63b8ff" d="M1794.94,-219.98C1758.33,-210.83 1700.05,-196.26 1660.23,-186.31"/>
<polygon fill="#63b8ff" stroke="#63b8ff" points="1660.83,-182.85 1650.28,-183.82 1659.13,-189.64 1660.83,-182.85"/>
</g>
<!-- Node37 -->
<g id="node37" class="node">
<title>Node37</title>
<g id="a_node37"><a xlink:href="Tensor_8hpp.html" target="_top" xlink:title=" ">
<polygon fill="white" stroke="#666666" points="1755.5,-184 1668.5,-184 1668.5,-165 1755.5,-165 1755.5,-184"/>
<text text-anchor="middle" x="1712" y="-172" font-family="Helvetica,sans-Serif" font-size="10.00">util/Tensor.hpp</text>
</a>
</g>
</g>
<!-- Node1&#45;&gt;Node37 -->
<g id="edge42" class="edge">
<title>Node1&#45;&gt;Node37</title>
<path fill="none" stroke="#63b8ff" d="M1810.2,-219.98C1791.38,-211.46 1762.18,-198.23 1740.5,-188.41"/>
<polygon fill="#63b8ff" stroke="#63b8ff" points="1741.69,-185.11 1731.14,-184.17 1738.8,-191.48 1741.69,-185.11"/>
</g>
<!-- Node38 -->
<g id="node38" class="node">
<title>Node38</title>
<g id="a_node38"><a xlink:title=" ">
<polygon fill="#e0e0e0" stroke="#999999" points="1994,-184 1940,-184 1940,-165 1994,-165 1994,-184"/>
<text text-anchor="middle" x="1967" y="-172" font-family="Helvetica,sans-Serif" font-size="10.00">random</text>
</a>
</g>
</g>
<!-- Node1&#45;&gt;Node38 -->
<g id="edge45" class="edge">
<title>Node1&#45;&gt;Node38</title>
<path fill="none" stroke="#63b8ff" d="M1851.17,-219.98C1873.77,-211.3 1909.06,-197.75 1934.75,-187.88"/>
<polygon fill="#63b8ff" stroke="#63b8ff" points="1936.34,-191.02 1944.42,-184.17 1933.83,-184.49 1936.34,-191.02"/>
</g>
<!-- Node3 -->
<g id="node3" class="node">
<title>Node3</title>
<g id="a_node3"><a xlink:href="Float_8hpp.html" target="_top" xlink:title=" ">
<polygon fill="white" stroke="#666666" points="1865.5,-129 1774.5,-129 1774.5,-110 1865.5,-110 1865.5,-129"/>
<text text-anchor="middle" x="1820" y="-117" font-family="Helvetica,sans-Serif" font-size="10.00">math/Float.hpp</text>
</a>
</g>
</g>
<!-- Node2&#45;&gt;Node3 -->
<g id="edge2" class="edge">
<title>Node2&#45;&gt;Node3</title>
<path fill="none" stroke="#63b8ff" d="M1827.51,-164.75C1826.33,-157.8 1824.64,-147.85 1823.16,-139.13"/>
<polygon fill="#63b8ff" stroke="#63b8ff" points="1826.58,-138.36 1821.46,-129.09 1819.68,-139.53 1826.58,-138.36"/>
</g>
<!-- Node2&#45;&gt;Node5 -->
<g id="edge4" class="edge">
<title>Node2&#45;&gt;Node5</title>
<path fill="none" stroke="#63b8ff" d="M1842.5,-164.98C1855.4,-156.84 1875.1,-144.41 1890.4,-134.76"/>
<polygon fill="#63b8ff" stroke="#63b8ff" points="1892.67,-137.47 1899.26,-129.17 1888.93,-131.55 1892.67,-137.47"/>
</g>
<!-- Node4 -->
<g id="node4" class="node">
<title>Node4</title>
<g id="a_node4"><a xlink:title=" ">
<polygon fill="#e0e0e0" stroke="#999999" points="1848.5,-19 1791.5,-19 1791.5,0 1848.5,0 1848.5,-19"/>
<text text-anchor="middle" x="1820" y="-7" font-family="Helvetica,sans-Serif" font-size="10.00">ostream</text>
</a>
</g>
</g>
<!-- Node3&#45;&gt;Node4 -->
<g id="edge3" class="edge">
<title>Node3&#45;&gt;Node4</title>
<path fill="none" stroke="#63b8ff" d="M1820,-109.66C1820,-92.17 1820,-52.8 1820,-29.27"/>
<polygon fill="#63b8ff" stroke="#63b8ff" points="1823.5,-29.16 1820,-19.16 1816.5,-29.16 1823.5,-29.16"/>
</g>
<!-- Node7 -->
<g id="node7" class="node">
<title>Node7</title>
<g id="a_node7"><a xlink:href="Time_8hpp.html" target="_top" xlink:title=" ">
<polygon fill="white" stroke="#666666" points="1657.5,-74 1576.5,-74 1576.5,-55 1657.5,-55 1657.5,-74"/>
<text text-anchor="middle" x="1617" y="-62" font-family="Helvetica,sans-Serif" font-size="10.00">util/Time.hpp</text>
</a>
</g>
</g>
<!-- Node6&#45;&gt;Node7 -->
<g id="edge6" class="edge">
<title>Node6&#45;&gt;Node7</title>
<path fill="none" stroke="#63b8ff" d="M1617,-164.66C1617,-147.17 1617,-107.8 1617,-84.27"/>
<polygon fill="#63b8ff" stroke="#63b8ff" points="1620.5,-84.16 1617,-74.16 1613.5,-84.16 1620.5,-84.16"/>
</g>
<!-- Node13 -->
<g id="node13" class="node">
<title>Node13</title>
<g id="a_node13"><a xlink:href="CTF_8hpp.html" target="_top" xlink:title=" ">
<polygon fill="white" stroke="#666666" points="1744,-129 1670,-129 1670,-110 1744,-110 1744,-129"/>
<text text-anchor="middle" x="1707" y="-117" font-family="Helvetica,sans-Serif" font-size="10.00">util/CTF.hpp</text>
</a>
</g>
</g>
<!-- Node6&#45;&gt;Node13 -->
<g id="edge13" class="edge">
<title>Node6&#45;&gt;Node13</title>
<path fill="none" stroke="#63b8ff" d="M1631.46,-164.98C1645.42,-156.77 1666.79,-144.18 1683.25,-134.49"/>
<polygon fill="#63b8ff" stroke="#63b8ff" points="1685.44,-137.26 1692.28,-129.17 1681.88,-131.23 1685.44,-137.26"/>
</g>
<!-- Node15 -->
<g id="node15" class="node">
<title>Node15</title>
<g id="a_node15"><a xlink:href="Options_8hpp.html" target="_top" xlink:title=" ">
<polygon fill="white" stroke="#666666" points="852.5,-129 777.5,-129 777.5,-110 852.5,-110 852.5,-129"/>
<text text-anchor="middle" x="815" y="-117" font-family="Helvetica,sans-Serif" font-size="10.00">Options.hpp</text>
</a>
</g>
</g>
<!-- Node6&#45;&gt;Node15 -->
<g id="edge15" class="edge">
<title>Node6&#45;&gt;Node15</title>
<path fill="none" stroke="#63b8ff" d="M1583.81,-171.31C1458.09,-163 1010.77,-133.44 862.86,-123.66"/>
<polygon fill="#63b8ff" stroke="#63b8ff" points="862.95,-120.16 852.74,-122.99 862.49,-127.15 862.95,-120.16"/>
</g>
<!-- Node7&#45;&gt;Node4 -->
<g id="edge9" class="edge">
<title>Node7&#45;&gt;Node4</title>
<path fill="none" stroke="#63b8ff" d="M1649.62,-54.98C1685.62,-45.58 1743.53,-30.46 1781.68,-20.5"/>
<polygon fill="#63b8ff" stroke="#63b8ff" points="1782.61,-23.88 1791.4,-17.97 1780.84,-17.11 1782.61,-23.88"/>
</g>
<!-- Node8 -->
<g id="node8" class="node">
<title>Node8</title>
<g id="a_node8"><a xlink:title=" ">
<polygon fill="#e0e0e0" stroke="#999999" points="1773,-19 1729,-19 1729,0 1773,0 1773,-19"/>
<text text-anchor="middle" x="1751" y="-7" font-family="Helvetica,sans-Serif" font-size="10.00">ctime</text>
</a>
</g>
</g>
<!-- Node7&#45;&gt;Node8 -->
<g id="edge7" class="edge">
<title>Node7&#45;&gt;Node8</title>
<path fill="none" stroke="#63b8ff" d="M1638.53,-54.98C1660.47,-46.3 1694.74,-32.75 1719.69,-22.88"/>
<polygon fill="#63b8ff" stroke="#63b8ff" points="1721.07,-26.1 1729.08,-19.17 1718.49,-19.59 1721.07,-26.1"/>
</g>
<!-- Node9 -->
<g id="node9" class="node">
<title>Node9</title>
<g id="a_node9"><a xlink:title=" ">
<polygon fill="#e0e0e0" stroke="#999999" points="1497,-19 1447,-19 1447,0 1497,0 1497,-19"/>
<text text-anchor="middle" x="1472" y="-7" font-family="Helvetica,sans-Serif" font-size="10.00">cstdint</text>
</a>
</g>
</g>
<!-- Node7&#45;&gt;Node9 -->
<g id="edge8" class="edge">
<title>Node7&#45;&gt;Node9</title>
<path fill="none" stroke="#63b8ff" d="M1593.7,-54.98C1569.75,-46.23 1532.22,-32.51 1505.17,-22.62"/>
<polygon fill="#63b8ff" stroke="#63b8ff" points="1506.31,-19.32 1495.72,-19.17 1503.91,-25.89 1506.31,-19.32"/>
</g>
<!-- Node10 -->
<g id="node10" class="node">
<title>Node10</title>
<g id="a_node10"><a xlink:title=" ">
<polygon fill="#e0e0e0" stroke="#999999" points="1571,-19 1515,-19 1515,0 1571,0 1571,-19"/>
<text text-anchor="middle" x="1543" y="-7" font-family="Helvetica,sans-Serif" font-size="10.00">iomanip</text>
</a>
</g>
</g>
<!-- Node7&#45;&gt;Node10 -->
<g id="edge10" class="edge">
<title>Node7&#45;&gt;Node10</title>
<path fill="none" stroke="#63b8ff" d="M1605.11,-54.98C1593.85,-46.92 1576.71,-34.65 1563.29,-25.03"/>
<polygon fill="#63b8ff" stroke="#63b8ff" points="1565.27,-22.15 1555.11,-19.17 1561.2,-27.84 1565.27,-22.15"/>
</g>
<!-- Node11 -->
<g id="node11" class="node">
<title>Node11</title>
<g id="a_node11"><a xlink:title=" ">
<polygon fill="#e0e0e0" stroke="#999999" points="1645,-19 1589,-19 1589,0 1645,0 1645,-19"/>
<text text-anchor="middle" x="1617" y="-7" font-family="Helvetica,sans-Serif" font-size="10.00">sstream</text>
</a>
</g>
</g>
<!-- Node7&#45;&gt;Node11 -->
<g id="edge11" class="edge">
<title>Node7&#45;&gt;Node11</title>
<path fill="none" stroke="#63b8ff" d="M1617,-54.75C1617,-47.8 1617,-37.85 1617,-29.13"/>
<polygon fill="#63b8ff" stroke="#63b8ff" points="1620.5,-29.09 1617,-19.09 1613.5,-29.09 1620.5,-29.09"/>
</g>
<!-- Node12 -->
<g id="node12" class="node">
<title>Node12</title>
<g id="a_node12"><a xlink:title=" ">
<polygon fill="#e0e0e0" stroke="#999999" points="1710.5,-19 1663.5,-19 1663.5,0 1710.5,0 1710.5,-19"/>
<text text-anchor="middle" x="1687" y="-7" font-family="Helvetica,sans-Serif" font-size="10.00">cmath</text>
</a>
</g>
</g>
<!-- Node7&#45;&gt;Node12 -->
<g id="edge12" class="edge">
<title>Node7&#45;&gt;Node12</title>
<path fill="none" stroke="#63b8ff" d="M1628.25,-54.98C1638.8,-47 1654.8,-34.88 1667.44,-25.31"/>
<polygon fill="#63b8ff" stroke="#63b8ff" points="1669.69,-28 1675.55,-19.17 1665.46,-22.42 1669.69,-28"/>
</g>
<!-- Node14 -->
<g id="node14" class="node">
<title>Node14</title>
<g id="a_node14"><a xlink:title=" ">
<polygon fill="#e0e0e0" stroke="#999999" points="1732,-74 1682,-74 1682,-55 1732,-55 1732,-74"/>
<text text-anchor="middle" x="1707" y="-62" font-family="Helvetica,sans-Serif" font-size="10.00">ctf.hpp</text>
</a>
</g>
</g>
<!-- Node13&#45;&gt;Node14 -->
<g id="edge14" class="edge">
<title>Node13&#45;&gt;Node14</title>
<path fill="none" stroke="#63b8ff" d="M1707,-109.75C1707,-102.8 1707,-92.85 1707,-84.13"/>
<polygon fill="#63b8ff" stroke="#63b8ff" points="1710.5,-84.09 1707,-74.09 1703.5,-84.09 1710.5,-84.09"/>
</g>
<!-- Node16 -->
<g id="node16" class="node">
<title>Node16</title>
<g id="a_node16"><a xlink:title=" ">
<polygon fill="#e0e0e0" stroke="#999999" points="44,-19 0,-19 0,0 44,0 44,-19"/>
<text text-anchor="middle" x="22" y="-7" font-family="Helvetica,sans-Serif" font-size="10.00">string</text>
</a>
</g>
</g>
<!-- Node15&#45;&gt;Node16 -->
<g id="edge16" class="edge">
<title>Node15&#45;&gt;Node16</title>
<path fill="none" stroke="#63b8ff" d="M777.43,-115.44C667.37,-106.09 336.2,-75.18 54.27,-19.01"/>
<polygon fill="#63b8ff" stroke="#63b8ff" points="54.76,-15.54 44.26,-17 53.38,-22.4 54.76,-15.54"/>
</g>
<!-- Node17 -->
<g id="node17" class="node">
<title>Node17</title>
<g id="a_node17"><a xlink:href="CLI11_8hpp.html" target="_top" xlink:title=" ">
<polygon fill="white" stroke="#666666" points="864.5,-74 765.5,-74 765.5,-55 864.5,-55 864.5,-74"/>
<text text-anchor="middle" x="815" y="-62" font-family="Helvetica,sans-Serif" font-size="10.00">extern/CLI11.hpp</text>
</a>
</g>
</g>
<!-- Node15&#45;&gt;Node17 -->
<g id="edge17" class="edge">
<title>Node15&#45;&gt;Node17</title>
<path fill="none" stroke="#63b8ff" d="M815,-109.75C815,-102.8 815,-92.85 815,-84.13"/>
<polygon fill="#63b8ff" stroke="#63b8ff" points="818.5,-84.09 815,-74.09 811.5,-84.09 818.5,-84.09"/>
</g>
<!-- Node17&#45;&gt;Node9 -->
<g id="edge31" class="edge">
<title>Node17&#45;&gt;Node9</title>
<path fill="none" stroke="#63b8ff" d="M864.5,-62.76C970.24,-60.56 1225.74,-51.97 1437,-19 1437.1,-18.98 1437.2,-18.97 1437.3,-18.95"/>
<polygon fill="#63b8ff" stroke="#63b8ff" points="1437.7,-22.44 1446.87,-17.14 1436.39,-15.56 1437.7,-22.44"/>
</g>
<!-- Node17&#45;&gt;Node10 -->
<g id="edge27" class="edge">
<title>Node17&#45;&gt;Node10</title>
<path fill="none" stroke="#63b8ff" d="M864.72,-63.04C977.17,-61.43 1259.64,-54.05 1504.64,-18.95"/>
<polygon fill="#63b8ff" stroke="#63b8ff" points="1505.41,-22.37 1514.81,-17.47 1504.41,-15.44 1505.41,-22.37"/>
</g>
<!-- Node17&#45;&gt;Node11 -->
<g id="edge29" class="edge">
<title>Node17&#45;&gt;Node11</title>
<path fill="none" stroke="#63b8ff" d="M864.51,-63.49C985.18,-62.84 1304.08,-57.44 1578.65,-18.93"/>
<polygon fill="#63b8ff" stroke="#63b8ff" points="1579.4,-22.36 1588.81,-17.49 1578.42,-15.43 1579.4,-22.36"/>
</g>
<!-- Node17&#45;&gt;Node12 -->
<g id="edge20" class="edge">
<title>Node17&#45;&gt;Node12</title>
<path fill="none" stroke="#63b8ff" d="M864.52,-62.17C1017.43,-57.86 1481.66,-43.22 1653.41,-18.68"/>
<polygon fill="#63b8ff" stroke="#63b8ff" points="1653.95,-22.14 1663.32,-17.2 1652.92,-15.21 1653.95,-22.14"/>
</g>
<!-- Node17&#45;&gt;Node16 -->
<g id="edge19" class="edge">
<title>Node17&#45;&gt;Node16</title>
<path fill="none" stroke="#63b8ff" d="M765.13,-64.18C644.35,-65.05 326.65,-62.76 54.3,-18.84"/>
<polygon fill="#63b8ff" stroke="#63b8ff" points="54.66,-15.35 44.23,-17.19 53.53,-22.26 54.66,-15.35"/>
</g>
<!-- Node18 -->
<g id="node18" class="node">
<title>Node18</title>
<g id="a_node18"><a xlink:title=" ">
<polygon fill="#e0e0e0" stroke="#999999" points="1345,-19 1287,-19 1287,0 1345,0 1345,-19"/>
<text text-anchor="middle" x="1316" y="-7" font-family="Helvetica,sans-Serif" font-size="10.00">memory</text>
</a>
</g>
</g>
<!-- Node17&#45;&gt;Node18 -->
<g id="edge18" class="edge">
<title>Node17&#45;&gt;Node18</title>
<path fill="none" stroke="#63b8ff" d="M864.59,-60.76C947.78,-55.73 1120.83,-43.36 1276.39,-19.07"/>
<polygon fill="#63b8ff" stroke="#63b8ff" points="1277.28,-22.47 1286.61,-17.45 1276.19,-15.56 1277.28,-22.47"/>
</g>
<!-- Node19 -->
<g id="node19" class="node">
<title>Node19</title>
<g id="a_node19"><a xlink:title=" ">
<polygon fill="#e0e0e0" stroke="#999999" points="1428.5,-19 1363.5,-19 1363.5,0 1428.5,0 1428.5,-19"/>
<text text-anchor="middle" x="1396" y="-7" font-family="Helvetica,sans-Serif" font-size="10.00">functional</text>
</a>
</g>
</g>
<!-- Node17&#45;&gt;Node19 -->
<g id="edge21" class="edge">
<title>Node17&#45;&gt;Node19</title>
<path fill="none" stroke="#63b8ff" d="M864.63,-61.35C958.22,-56.88 1167.3,-44.87 1353.1,-18.95"/>
<polygon fill="#63b8ff" stroke="#63b8ff" points="1353.64,-22.41 1363.05,-17.55 1352.66,-15.48 1353.64,-22.41"/>
</g>
<!-- Node20 -->
<g id="node20" class="node">
<title>Node20</title>
<g id="a_node20"><a xlink:title=" ">
<polygon fill="#e0e0e0" stroke="#999999" points="118,-19 62,-19 62,0 118,0 118,-19"/>
<text text-anchor="middle" x="90" y="-7" font-family="Helvetica,sans-Serif" font-size="10.00">numeric</text>
</a>
</g>
</g>
<!-- Node17&#45;&gt;Node20 -->
<g id="edge22" class="edge">
<title>Node17&#45;&gt;Node20</title>
<path fill="none" stroke="#63b8ff" d="M765.49,-63.03C653.54,-61.38 372.29,-53.93 128.32,-18.94"/>
<polygon fill="#63b8ff" stroke="#63b8ff" points="128.59,-15.44 118.19,-17.47 127.59,-22.37 128.59,-15.44"/>
</g>
<!-- Node21 -->
<g id="node21" class="node">
<title>Node21</title>
<g id="a_node21"><a xlink:title=" ">
<polygon fill="#e0e0e0" stroke="#999999" points="174,-19 136,-19 136,0 174,0 174,-19"/>
<text text-anchor="middle" x="155" y="-7" font-family="Helvetica,sans-Serif" font-size="10.00">map</text>
</a>
</g>
</g>
<!-- Node17&#45;&gt;Node21 -->
<g id="edge23" class="edge">
<title>Node17&#45;&gt;Node21</title>
<path fill="none" stroke="#63b8ff" d="M765.36,-63.77C659.74,-63.54 405.03,-58.68 184.29,-18.79"/>
<polygon fill="#63b8ff" stroke="#63b8ff" points="184.61,-15.29 174.14,-16.93 183.34,-22.18 184.61,-15.29"/>
</g>
<!-- Node22 -->
<g id="node22" class="node">
<title>Node22</title>
<g id="a_node22"><a xlink:title=" ">
<polygon fill="#e0e0e0" stroke="#999999" points="247.5,-19 192.5,-19 192.5,0 247.5,0 247.5,-19"/>
<text text-anchor="middle" x="220" y="-7" font-family="Helvetica,sans-Serif" font-size="10.00">fstream</text>
</a>
</g>
</g>
<!-- Node17&#45;&gt;Node22 -->
<g id="edge24" class="edge">
<title>Node17&#45;&gt;Node22</title>
<path fill="none" stroke="#63b8ff" d="M765.35,-62.09C669.07,-58.79 450.23,-48.63 257.84,-19.07"/>
<polygon fill="#63b8ff" stroke="#63b8ff" points="258.24,-15.59 247.83,-17.51 257.17,-22.51 258.24,-15.59"/>
</g>
<!-- Node23 -->
<g id="node23" class="node">
<title>Node23</title>
<g id="a_node23"><a xlink:title=" ">
<polygon fill="#e0e0e0" stroke="#999999" points="306.5,-19 265.5,-19 265.5,0 306.5,0 306.5,-19"/>
<text text-anchor="middle" x="286" y="-7" font-family="Helvetica,sans-Serif" font-size="10.00">tuple</text>
</a>
</g>
</g>
<!-- Node17&#45;&gt;Node23 -->
<g id="edge25" class="edge">
<title>Node17&#45;&gt;Node23</title>
<path fill="none" stroke="#63b8ff" d="M765.23,-62.3C676.6,-59.46 485.56,-50.19 316.84,-19.01"/>
<polygon fill="#63b8ff" stroke="#63b8ff" points="317.26,-15.53 306.79,-17.12 315.97,-22.41 317.26,-15.53"/>
</g>
<!-- Node24 -->
<g id="node24" class="node">
<title>Node24</title>
<g id="a_node24"><a xlink:title=" ">
<polygon fill="#e0e0e0" stroke="#999999" points="369.5,-19 324.5,-19 324.5,0 369.5,0 369.5,-19"/>
<text text-anchor="middle" x="347" y="-7" font-family="Helvetica,sans-Serif" font-size="10.00">utility</text>
</a>
</g>
</g>
<!-- Node17&#45;&gt;Node24 -->
<g id="edge26" class="edge">
<title>Node17&#45;&gt;Node24</title>
<path fill="none" stroke="#63b8ff" d="M765.27,-60.99C685.78,-56.41 525.09,-44.86 379.63,-18.8"/>
<polygon fill="#63b8ff" stroke="#63b8ff" points="380.09,-15.33 369.63,-16.98 378.84,-22.22 380.09,-15.33"/>
</g>
<!-- Node25 -->
<g id="node25" class="node">
<title>Node25</title>
<g id="a_node25"><a xlink:title=" ">
<polygon fill="#e0e0e0" stroke="#999999" points="434,-19 388,-19 388,0 434,0 434,-19"/>
<text text-anchor="middle" x="411" y="-7" font-family="Helvetica,sans-Serif" font-size="10.00">locale</text>
</a>
</g>
</g>
<!-- Node17&#45;&gt;Node25 -->
<g id="edge28" class="edge">
<title>Node17&#45;&gt;Node25</title>
<path fill="none" stroke="#63b8ff" d="M765.32,-59.79C695.62,-54.1 564.75,-41.62 444.45,-19.03"/>
<polygon fill="#63b8ff" stroke="#63b8ff" points="444.81,-15.54 434.33,-17.1 443.5,-22.41 444.81,-15.54"/>
</g>
<!-- Node26 -->
<g id="node26" class="node">
<title>Node26</title>
<g id="a_node26"><a xlink:title=" ">
<polygon fill="#e0e0e0" stroke="#999999" points="516,-19 452,-19 452,0 516,0 516,-19"/>
<text text-anchor="middle" x="484" y="-7" font-family="Helvetica,sans-Serif" font-size="10.00">algorithm</text>
</a>
</g>
</g>
<!-- Node17&#45;&gt;Node26 -->
<g id="edge30" class="edge">
<title>Node17&#45;&gt;Node26</title>
<path fill="none" stroke="#63b8ff" d="M765.35,-56.69C709.59,-48.85 616.15,-35.19 526.29,-19.15"/>
<polygon fill="#63b8ff" stroke="#63b8ff" points="526.66,-15.66 516.2,-17.34 525.42,-22.55 526.66,-15.66"/>
</g>
<!-- Node27 -->
<g id="node27" class="node">
<title>Node27</title>
<g id="a_node27"><a xlink:title=" ">
<polygon fill="#e0e0e0" stroke="#999999" points="594,-19 534,-19 534,0 594,0 594,-19"/>
<text text-anchor="middle" x="564" y="-7" font-family="Helvetica,sans-Serif" font-size="10.00">iostream</text>
</a>
</g>
</g>
<!-- Node17&#45;&gt;Node27 -->
<g id="edge32" class="edge">
<title>Node17&#45;&gt;Node27</title>
<path fill="none" stroke="#63b8ff" d="M773.94,-54.98C733.31,-46.52 669.05,-33.1 604.22,-19.25"/>
<polygon fill="#63b8ff" stroke="#63b8ff" points="604.74,-15.78 594.23,-17.11 603.28,-22.63 604.74,-15.78"/>
</g>
<!-- Node28 -->
<g id="node28" class="node">
<title>Node28</title>
<g id="a_node28"><a xlink:title=" ">
<polygon fill="#e0e0e0" stroke="#999999" points="644,-19 612,-19 612,0 644,0 644,-19"/>
<text text-anchor="middle" x="628" y="-7" font-family="Helvetica,sans-Serif" font-size="10.00">set</text>
</a>
</g>
</g>
<!-- Node17&#45;&gt;Node28 -->
<g id="edge33" class="edge">
<title>Node17&#45;&gt;Node28</title>
<path fill="none" stroke="#63b8ff" d="M781.63,-54.96C750.75,-46.91 703.37,-34.22 653.72,-19.09"/>
<polygon fill="#63b8ff" stroke="#63b8ff" points="654.68,-15.72 644.09,-16.13 652.62,-22.41 654.68,-15.72"/>
</g>
<!-- Node29 -->
<g id="node29" class="node">
<title>Node29</title>
<g id="a_node29"><a xlink:title=" ">
<polygon fill="#e0e0e0" stroke="#999999" points="731.5,-19 662.5,-19 662.5,0 731.5,0 731.5,-19"/>
<text text-anchor="middle" x="697" y="-7" font-family="Helvetica,sans-Serif" font-size="10.00">type_traits</text>
</a>
</g>
</g>
<!-- Node17&#45;&gt;Node29 -->
<g id="edge34" class="edge">
<title>Node17&#45;&gt;Node29</title>
<path fill="none" stroke="#63b8ff" d="M796.04,-54.98C776.97,-46.42 747.34,-33.11 725.45,-23.28"/>
<polygon fill="#63b8ff" stroke="#63b8ff" points="726.86,-20.07 716.3,-19.17 723.99,-26.46 726.86,-20.07"/>
</g>
<!-- Node30 -->
<g id="node30" class="node">
<title>Node30</title>
<g id="a_node30"><a xlink:title=" ">
<polygon fill="#e0e0e0" stroke="#999999" points="802.5,-19 749.5,-19 749.5,0 802.5,0 802.5,-19"/>
<text text-anchor="middle" x="776" y="-7" font-family="Helvetica,sans-Serif" font-size="10.00">iterator</text>
</a>
</g>
</g>
<!-- Node17&#45;&gt;Node30 -->
<g id="edge35" class="edge">
<title>Node17&#45;&gt;Node30</title>
<path fill="none" stroke="#63b8ff" d="M808.56,-54.75C803.11,-47.34 795.14,-36.5 788.44,-27.41"/>
<polygon fill="#63b8ff" stroke="#63b8ff" points="791.07,-25.07 782.32,-19.09 785.43,-29.22 791.07,-25.07"/>
</g>
<!-- Node31 -->
<g id="node31" class="node">
<title>Node31</title>
<g id="a_node31"><a xlink:title=" ">
<polygon fill="#e0e0e0" stroke="#999999" points="885.5,-19 820.5,-19 820.5,0 885.5,0 885.5,-19"/>
<text text-anchor="middle" x="853" y="-7" font-family="Helvetica,sans-Serif" font-size="10.00">stdexcept</text>
</a>
</g>
</g>
<!-- Node17&#45;&gt;Node31 -->
<g id="edge36" class="edge">
<title>Node17&#45;&gt;Node31</title>
<path fill="none" stroke="#63b8ff" d="M821.27,-54.75C826.59,-47.34 834.36,-36.5 840.88,-27.41"/>
<polygon fill="#63b8ff" stroke="#63b8ff" points="843.86,-29.26 846.84,-19.09 838.17,-25.18 843.86,-29.26"/>
</g>
<!-- Node32 -->
<g id="node32" class="node">
<title>Node32</title>
<g id="a_node32"><a xlink:title=" ">
<polygon fill="#e0e0e0" stroke="#999999" points="950.5,-19 903.5,-19 903.5,0 950.5,0 950.5,-19"/>
<text text-anchor="middle" x="927" y="-7" font-family="Helvetica,sans-Serif" font-size="10.00">vector</text>
</a>
</g>
</g>
<!-- Node17&#45;&gt;Node32 -->
<g id="edge37" class="edge">
<title>Node17&#45;&gt;Node32</title>
<path fill="none" stroke="#63b8ff" d="M832.99,-54.98C850.93,-46.5 878.72,-33.35 899.43,-23.54"/>
<polygon fill="#63b8ff" stroke="#63b8ff" points="901.14,-26.61 908.68,-19.17 898.14,-20.28 901.14,-26.61"/>
</g>
<!-- Node33 -->
<g id="node33" class="node">
<title>Node33</title>
<g id="a_node33"><a xlink:title=" ">
<polygon fill="#e0e0e0" stroke="#999999" points="1013,-19 969,-19 969,0 1013,0 1013,-19"/>
<text text-anchor="middle" x="991" y="-7" font-family="Helvetica,sans-Serif" font-size="10.00">limits</text>
</a>
</g>
</g>
<!-- Node17&#45;&gt;Node33 -->
<g id="edge38" class="edge">
<title>Node17&#45;&gt;Node33</title>
<path fill="none" stroke="#63b8ff" d="M843.28,-54.98C874.98,-45.44 926.26,-30 959.3,-20.05"/>
<polygon fill="#63b8ff" stroke="#63b8ff" points="960.36,-23.38 968.92,-17.15 958.34,-16.68 960.36,-23.38"/>
</g>
<!-- Node34 -->
<g id="node34" class="node">
<title>Node34</title>
<g id="a_node34"><a xlink:title=" ">
<polygon fill="#e0e0e0" stroke="#999999" points="1096.5,-19 1031.5,-19 1031.5,0 1096.5,0 1096.5,-19"/>
<text text-anchor="middle" x="1064" y="-7" font-family="Helvetica,sans-Serif" font-size="10.00">exception</text>
</a>
</g>
</g>
<!-- Node17&#45;&gt;Node34 -->
<g id="edge39" class="edge">
<title>Node17&#45;&gt;Node34</title>
<path fill="none" stroke="#63b8ff" d="M855.01,-54.98C900.6,-45.28 974.82,-29.48 1021.45,-19.56"/>
<polygon fill="#63b8ff" stroke="#63b8ff" points="1022.2,-22.98 1031.25,-17.47 1020.74,-16.13 1022.2,-22.98"/>
</g>
<!-- Node35 -->
<g id="node35" class="node">
<title>Node35</title>
<g id="a_node35"><a xlink:title=" ">
<polygon fill="#e0e0e0" stroke="#999999" points="1179,-19 1115,-19 1115,0 1179,0 1179,-19"/>
<text text-anchor="middle" x="1147" y="-7" font-family="Helvetica,sans-Serif" font-size="10.00">sys/stat.h</text>
</a>
</g>
</g>
<!-- Node17&#45;&gt;Node35 -->
<g id="edge40" class="edge">
<title>Node17&#45;&gt;Node35</title>
<path fill="none" stroke="#63b8ff" d="M864.64,-56.61C922.48,-48.42 1020.87,-33.96 1105,-19 1105.1,-18.98 1105.2,-18.96 1105.3,-18.95"/>
<polygon fill="#63b8ff" stroke="#63b8ff" points="1105.74,-22.43 1114.93,-17.15 1104.45,-15.54 1105.74,-22.43"/>
</g>
<!-- Node36 -->
<g id="node36" class="node">
<title>Node36</title>
<g id="a_node36"><a xlink:title=" ">
<polygon fill="#e0e0e0" stroke="#999999" points="1269,-19 1197,-19 1197,0 1269,0 1269,-19"/>
<text text-anchor="middle" x="1233" y="-7" font-family="Helvetica,sans-Serif" font-size="10.00">sys/types.h</text>
</a>
</g>
</g>
<!-- Node17&#45;&gt;Node36 -->
<g id="edge41" class="edge">
<title>Node17&#45;&gt;Node36</title>
<path fill="none" stroke="#63b8ff" d="M864.62,-58.66C934.27,-51.64 1065.21,-37.56 1186.48,-19.14"/>
<polygon fill="#63b8ff" stroke="#63b8ff" points="1187.33,-22.55 1196.69,-17.58 1186.27,-15.63 1187.33,-22.55"/>
</g>
<!-- Node37&#45;&gt;Node13 -->
<g id="edge43" class="edge">
<title>Node37&#45;&gt;Node13</title>
<path fill="none" stroke="#63b8ff" d="M1711.17,-164.75C1710.52,-157.8 1709.58,-147.85 1708.76,-139.13"/>
<polygon fill="#63b8ff" stroke="#63b8ff" points="1712.23,-138.72 1707.81,-129.09 1705.27,-139.37 1712.23,-138.72"/>
</g>
</g>
</svg>
