<?xml version="1.0" encoding="UTF-8" standalone="no"?>
<!DOCTYPE svg PUBLIC "-//W3C//DTD SVG 1.1//EN"
 "http://www.w3.org/Graphics/SVG/1.1/DTD/svg11.dtd">
<!-- Generated by graphviz version 5.0.1 (0)
 -->
<!-- Title: RegularizedAlternatingLeastSquares.hpp Pages: 1 -->
<svg width="812pt" height="258pt"
 viewBox="0.00 0.00 811.50 258.00" xmlns="http://www.w3.org/2000/svg" xmlns:xlink="http://www.w3.org/1999/xlink">
<g id="graph0" class="graph" transform="scale(1 1) rotate(0) translate(4 254)">
<title>RegularizedAlternatingLeastSquares.hpp</title>
<!-- Node1 -->
<g id="node1" class="node">
<title>Node1</title>
<g id="a_node1"><a xlink:title=" ">
<polygon fill="#999999" stroke="#666666" points="495,-250 340,-250 340,-220 495,-220 495,-250"/>
<text text-anchor="start" x="348" y="-238" font-family="Helvetica,sans-Serif" font-size="10.00">RegularizedAlternatingLeast</text>
<text text-anchor="middle" x="417.5" y="-227" font-family="Helvetica,sans-Serif" font-size="10.00">Squares.hpp</text>
</a>
</g>
</g>
<!-- Node2 -->
<g id="node2" class="node">
<title>Node2</title>
<g id="a_node2"><a xlink:href="Complex_8hpp.html" target="_top" xlink:title=" ">
<polygon fill="white" stroke="#666666" points="193.5,-184 83.5,-184 83.5,-165 193.5,-165 193.5,-184"/>
<text text-anchor="middle" x="138.5" y="-172" font-family="Helvetica,sans-Serif" font-size="10.00">math/Complex.hpp</text>
</a>
</g>
</g>
<!-- Node1&#45;&gt;Node2 -->
<g id="edge1" class="edge">
<title>Node1&#45;&gt;Node2</title>
<path fill="none" stroke="#63b8ff" d="M350.67,-219.99C301.06,-209.59 234.44,-195.62 189.18,-186.13"/>
<polygon fill="#63b8ff" stroke="#63b8ff" points="189.8,-182.68 179.29,-184.05 188.36,-189.53 189.8,-182.68"/>
</g>
<!-- Node6 -->
<g id="node6" class="node">
<title>Node6</title>
<g id="a_node6"><a xlink:href="DryTensor_8hpp.html" target="_top" xlink:title=" ">
<polygon fill="white" stroke="#666666" points="496.5,-184 410.5,-184 410.5,-165 496.5,-165 496.5,-184"/>
<text text-anchor="middle" x="453.5" y="-172" font-family="Helvetica,sans-Serif" font-size="10.00">DryTensor.hpp</text>
</a>
</g>
</g>
<!-- Node1&#45;&gt;Node6 -->
<g id="edge5" class="edge">
<title>Node1&#45;&gt;Node6</title>
<path fill="none" stroke="#63b8ff" d="M426.21,-219.84C431.17,-211.78 437.43,-201.62 442.7,-193.06"/>
<polygon fill="#63b8ff" stroke="#63b8ff" points="445.85,-194.62 448.11,-184.27 439.88,-190.95 445.85,-194.62"/>
</g>
<!-- Node10 -->
<g id="node10" class="node">
<title>Node10</title>
<g id="a_node10"><a xlink:href="Log_8hpp.html" target="_top" xlink:title=" ">
<polygon fill="white" stroke="#666666" points="455.5,-129 381.5,-129 381.5,-110 455.5,-110 455.5,-129"/>
<text text-anchor="middle" x="418.5" y="-117" font-family="Helvetica,sans-Serif" font-size="10.00">util/Log.hpp</text>
</a>
</g>
</g>
<!-- Node1&#45;&gt;Node10 -->
<g id="edge25" class="edge">
<title>Node1&#45;&gt;Node10</title>
<path fill="none" stroke="#63b8ff" d="M410.71,-219.81C404.9,-205.91 397.97,-184.11 401.5,-165 403.17,-155.95 406.6,-146.36 409.94,-138.41"/>
<polygon fill="#63b8ff" stroke="#63b8ff" points="413.23,-139.65 414.13,-129.09 406.84,-136.78 413.23,-139.65"/>
</g>
<!-- Node20 -->
<g id="node20" class="node">
<title>Node20</title>
<g id="a_node20"><a xlink:href="Tensor_8hpp.html" target="_top" xlink:title=" ">
<polygon fill="white" stroke="#666666" points="723,-184 636,-184 636,-165 723,-165 723,-184"/>
<text text-anchor="middle" x="679.5" y="-172" font-family="Helvetica,sans-Serif" font-size="10.00">util/Tensor.hpp</text>
</a>
</g>
</g>
<!-- Node1&#45;&gt;Node20 -->
<g id="edge26" class="edge">
<title>Node1&#45;&gt;Node20</title>
<path fill="none" stroke="#63b8ff" d="M480.26,-219.99C526.65,-209.63 588.88,-195.73 631.37,-186.25"/>
<polygon fill="#63b8ff" stroke="#63b8ff" points="632.19,-189.65 641.19,-184.05 630.67,-182.82 632.19,-189.65"/>
</g>
<!-- Node3 -->
<g id="node3" class="node">
<title>Node3</title>
<g id="a_node3"><a xlink:href="Float_8hpp.html" target="_top" xlink:title=" ">
<polygon fill="white" stroke="#666666" points="91,-129 0,-129 0,-110 91,-110 91,-129"/>
<text text-anchor="middle" x="45.5" y="-117" font-family="Helvetica,sans-Serif" font-size="10.00">math/Float.hpp</text>
</a>
</g>
</g>
<!-- Node2&#45;&gt;Node3 -->
<g id="edge2" class="edge">
<title>Node2&#45;&gt;Node3</title>
<path fill="none" stroke="#63b8ff" d="M123.56,-164.98C109,-156.69 86.63,-143.94 69.57,-134.22"/>
<polygon fill="#63b8ff" stroke="#63b8ff" points="71.14,-131.08 60.71,-129.17 67.67,-137.16 71.14,-131.08"/>
</g>
<!-- Node5 -->
<g id="node5" class="node">
<title>Node5</title>
<g id="a_node5"><a xlink:title=" ">
<polygon fill="#e0e0e0" stroke="#999999" points="168,-129 109,-129 109,-110 168,-110 168,-129"/>
<text text-anchor="middle" x="138.5" y="-117" font-family="Helvetica,sans-Serif" font-size="10.00">complex</text>
</a>
</g>
</g>
<!-- Node2&#45;&gt;Node5 -->
<g id="edge4" class="edge">
<title>Node2&#45;&gt;Node5</title>
<path fill="none" stroke="#63b8ff" d="M138.5,-164.75C138.5,-157.8 138.5,-147.85 138.5,-139.13"/>
<polygon fill="#63b8ff" stroke="#63b8ff" points="142,-139.09 138.5,-129.09 135,-139.09 142,-139.09"/>
</g>
<!-- Node4 -->
<g id="node4" class="node">
<title>Node4</title>
<g id="a_node4"><a xlink:title=" ">
<polygon fill="#e0e0e0" stroke="#999999" points="161,-19 104,-19 104,0 161,0 161,-19"/>
<text text-anchor="middle" x="132.5" y="-7" font-family="Helvetica,sans-Serif" font-size="10.00">ostream</text>
</a>
</g>
</g>
<!-- Node3&#45;&gt;Node4 -->
<g id="edge3" class="edge">
<title>Node3&#45;&gt;Node4</title>
<path fill="none" stroke="#63b8ff" d="M52.62,-109.66C67.16,-91.61 100.46,-50.28 119.15,-27.08"/>
<polygon fill="#63b8ff" stroke="#63b8ff" points="121.98,-29.14 125.53,-19.16 116.53,-24.75 121.98,-29.14"/>
</g>
<!-- Node7 -->
<g id="node7" class="node">
<title>Node7</title>
<g id="a_node7"><a xlink:href="SourceLocation_8hpp.html" target="_top" xlink:title=" ">
<polygon fill="white" stroke="#666666" points="317,-129 186,-129 186,-110 317,-110 317,-129"/>
<text text-anchor="middle" x="251.5" y="-117" font-family="Helvetica,sans-Serif" font-size="10.00">util/SourceLocation.hpp</text>
</a>
</g>
</g>
<!-- Node6&#45;&gt;Node7 -->
<g id="edge6" class="edge">
<title>Node6&#45;&gt;Node7</title>
<path fill="none" stroke="#63b8ff" d="M421.05,-164.98C386.54,-155.93 331.84,-141.58 293.94,-131.64"/>
<polygon fill="#63b8ff" stroke="#63b8ff" points="294.77,-128.23 284.21,-129.08 292.99,-135.01 294.77,-128.23"/>
</g>
<!-- Node8 -->
<g id="node8" class="node">
<title>Node8</title>
<g id="a_node8"><a xlink:title=" ">
<polygon fill="#e0e0e0" stroke="#999999" points="270.5,-74 226.5,-74 226.5,-55 270.5,-55 270.5,-74"/>
<text text-anchor="middle" x="248.5" y="-62" font-family="Helvetica,sans-Serif" font-size="10.00">string</text>
</a>
</g>
</g>
<!-- Node6&#45;&gt;Node8 -->
<g id="edge24" class="edge">
<title>Node6&#45;&gt;Node8</title>
<path fill="none" stroke="#63b8ff" d="M437.07,-164.84C401.3,-146 316.16,-101.14 273.61,-78.73"/>
<polygon fill="#63b8ff" stroke="#63b8ff" points="275.2,-75.61 264.72,-74.05 271.94,-81.8 275.2,-75.61"/>
</g>
<!-- Node6&#45;&gt;Node10 -->
<g id="edge10" class="edge">
<title>Node6&#45;&gt;Node10</title>
<path fill="none" stroke="#63b8ff" d="M447.72,-164.75C442.88,-157.42 435.82,-146.73 429.86,-137.7"/>
<polygon fill="#63b8ff" stroke="#63b8ff" points="432.6,-135.5 424.17,-129.09 426.76,-139.36 432.6,-135.5"/>
</g>
<!-- Node13 -->
<g id="node13" class="node">
<title>Node13</title>
<g id="a_node13"><a xlink:title=" ">
<polygon fill="#e0e0e0" stroke="#999999" points="587.5,-19 537.5,-19 537.5,0 587.5,0 587.5,-19"/>
<text text-anchor="middle" x="562.5" y="-7" font-family="Helvetica,sans-Serif" font-size="10.00">cstdint</text>
</a>
</g>
</g>
<!-- Node6&#45;&gt;Node13 -->
<g id="edge22" class="edge">
<title>Node6&#45;&gt;Node13</title>
<path fill="none" stroke="#63b8ff" d="M484.27,-164.9C523.11,-152.2 588.27,-124.31 616.5,-74 627.14,-55.04 606.7,-36.47 587.99,-24.36"/>
<polygon fill="#63b8ff" stroke="#63b8ff" points="589.73,-21.32 579.36,-19.11 586.09,-27.3 589.73,-21.32"/>
</g>
<!-- Node19 -->
<g id="node19" class="node">
<title>Node19</title>
<g id="a_node19"><a xlink:title=" ">
<polygon fill="#e0e0e0" stroke="#999999" points="711,-129 664,-129 664,-110 711,-110 711,-129"/>
<text text-anchor="middle" x="687.5" y="-117" font-family="Helvetica,sans-Serif" font-size="10.00">vector</text>
</a>
</g>
</g>
<!-- Node6&#45;&gt;Node19 -->
<g id="edge23" class="edge">
<title>Node6&#45;&gt;Node19</title>
<path fill="none" stroke="#63b8ff" d="M491.1,-164.98C536.09,-154.79 610.75,-137.88 653.9,-128.11"/>
<polygon fill="#63b8ff" stroke="#63b8ff" points="654.92,-131.47 663.9,-125.85 653.37,-124.64 654.92,-131.47"/>
</g>
<!-- Node7&#45;&gt;Node4 -->
<g id="edge9" class="edge">
<title>Node7&#45;&gt;Node4</title>
<path fill="none" stroke="#63b8ff" d="M241.76,-109.66C221.61,-91.38 175.12,-49.18 149.76,-26.17"/>
<polygon fill="#63b8ff" stroke="#63b8ff" points="151.8,-23.29 142.04,-19.16 147.09,-28.47 151.8,-23.29"/>
</g>
<!-- Node7&#45;&gt;Node8 -->
<g id="edge7" class="edge">
<title>Node7&#45;&gt;Node8</title>
<path fill="none" stroke="#63b8ff" d="M251,-109.75C250.61,-102.8 250.05,-92.85 249.55,-84.13"/>
<polygon fill="#63b8ff" stroke="#63b8ff" points="253.05,-83.88 248.99,-74.09 246.06,-84.27 253.05,-83.88"/>
</g>
<!-- Node9 -->
<g id="node9" class="node">
<title>Node9</title>
<g id="a_node9"><a xlink:title=" ">
<polygon fill="#e0e0e0" stroke="#999999" points="235.5,-19 179.5,-19 179.5,0 235.5,0 235.5,-19"/>
<text text-anchor="middle" x="207.5" y="-7" font-family="Helvetica,sans-Serif" font-size="10.00">sstream</text>
</a>
</g>
</g>
<!-- Node7&#45;&gt;Node9 -->
<g id="edge8" class="edge">
<title>Node7&#45;&gt;Node9</title>
<path fill="none" stroke="#63b8ff" d="M242.72,-109.82C234.79,-101.42 223.47,-87.94 217.5,-74 211.39,-59.72 208.97,-42.19 208.03,-29.17"/>
<polygon fill="#63b8ff" stroke="#63b8ff" points="211.52,-28.9 207.53,-19.08 204.53,-29.24 211.52,-28.9"/>
</g>
<!-- Node10&#45;&gt;Node8 -->
<g id="edge18" class="edge">
<title>Node10&#45;&gt;Node8</title>
<path fill="none" stroke="#63b8ff" d="M391.19,-109.98C360.95,-100.56 312.28,-85.38 280.34,-75.43"/>
<polygon fill="#63b8ff" stroke="#63b8ff" points="281.19,-72.03 270.6,-72.39 279.11,-78.71 281.19,-72.03"/>
</g>
<!-- Node11 -->
<g id="node11" class="node">
<title>Node11</title>
<g id="a_node11"><a xlink:href="Time_8hpp.html" target="_top" xlink:title=" ">
<polygon fill="white" stroke="#666666" points="370,-74 289,-74 289,-55 370,-55 370,-74"/>
<text text-anchor="middle" x="329.5" y="-62" font-family="Helvetica,sans-Serif" font-size="10.00">util/Time.hpp</text>
</a>
</g>
</g>
<!-- Node10&#45;&gt;Node11 -->
<g id="edge11" class="edge">
<title>Node10&#45;&gt;Node11</title>
<path fill="none" stroke="#63b8ff" d="M404.2,-109.98C390.4,-101.77 369.26,-89.18 352.99,-79.49"/>
<polygon fill="#63b8ff" stroke="#63b8ff" points="354.44,-76.28 344.06,-74.17 350.86,-82.29 354.44,-76.28"/>
</g>
<!-- Node16 -->
<g id="node16" class="node">
<title>Node16</title>
<g id="a_node16"><a xlink:title=" ">
<polygon fill="#e0e0e0" stroke="#999999" points="448.5,-74 388.5,-74 388.5,-55 448.5,-55 448.5,-74"/>
<text text-anchor="middle" x="418.5" y="-62" font-family="Helvetica,sans-Serif" font-size="10.00">iostream</text>
</a>
</g>
</g>
<!-- Node10&#45;&gt;Node16 -->
<g id="edge19" class="edge">
<title>Node10&#45;&gt;Node16</title>
<path fill="none" stroke="#63b8ff" d="M418.5,-109.75C418.5,-102.8 418.5,-92.85 418.5,-84.13"/>
<polygon fill="#63b8ff" stroke="#63b8ff" points="422,-84.09 418.5,-74.09 415,-84.09 422,-84.09"/>
</g>
<!-- Node17 -->
<g id="node17" class="node">
<title>Node17</title>
<g id="a_node17"><a xlink:title=" ">
<polygon fill="#e0e0e0" stroke="#999999" points="534,-74 467,-74 467,-55 534,-55 534,-74"/>
<text text-anchor="middle" x="500.5" y="-62" font-family="Helvetica,sans-Serif" font-size="10.00">streambuf</text>
</a>
</g>
</g>
<!-- Node10&#45;&gt;Node17 -->
<g id="edge20" class="edge">
<title>Node10&#45;&gt;Node17</title>
<path fill="none" stroke="#63b8ff" d="M431.67,-109.98C444.27,-101.84 463.5,-89.41 478.44,-79.76"/>
<polygon fill="#63b8ff" stroke="#63b8ff" points="480.59,-82.54 487.09,-74.17 476.79,-76.66 480.59,-82.54"/>
</g>
<!-- Node18 -->
<g id="node18" class="node">
<title>Node18</title>
<g id="a_node18"><a xlink:title=" ">
<polygon fill="#e0e0e0" stroke="#999999" points="607,-74 552,-74 552,-55 607,-55 607,-74"/>
<text text-anchor="middle" x="579.5" y="-62" font-family="Helvetica,sans-Serif" font-size="10.00">fstream</text>
</a>
</g>
</g>
<!-- Node10&#45;&gt;Node18 -->
<g id="edge21" class="edge">
<title>Node10&#45;&gt;Node18</title>
<path fill="none" stroke="#63b8ff" d="M444.37,-109.98C471.28,-101.13 513.62,-87.19 543.73,-77.28"/>
<polygon fill="#63b8ff" stroke="#63b8ff" points="545.03,-80.53 553.43,-74.08 542.84,-73.88 545.03,-80.53"/>
</g>
<!-- Node11&#45;&gt;Node4 -->
<g id="edge14" class="edge">
<title>Node11&#45;&gt;Node4</title>
<path fill="none" stroke="#63b8ff" d="M297.85,-54.98C263.35,-45.7 208.14,-30.85 171.12,-20.89"/>
<polygon fill="#63b8ff" stroke="#63b8ff" points="171.76,-17.44 161.19,-18.22 169.94,-24.2 171.76,-17.44"/>
</g>
<!-- Node11&#45;&gt;Node9 -->
<g id="edge16" class="edge">
<title>Node11&#45;&gt;Node9</title>
<path fill="none" stroke="#63b8ff" d="M309.9,-54.98C290.18,-46.42 259.55,-33.11 236.92,-23.28"/>
<polygon fill="#63b8ff" stroke="#63b8ff" points="238.02,-19.94 227.46,-19.17 235.24,-26.37 238.02,-19.94"/>
</g>
<!-- Node12 -->
<g id="node12" class="node">
<title>Node12</title>
<g id="a_node12"><a xlink:title=" ">
<polygon fill="#e0e0e0" stroke="#999999" points="297.5,-19 253.5,-19 253.5,0 297.5,0 297.5,-19"/>
<text text-anchor="middle" x="275.5" y="-7" font-family="Helvetica,sans-Serif" font-size="10.00">ctime</text>
</a>
</g>
</g>
<!-- Node11&#45;&gt;Node12 -->
<g id="edge12" class="edge">
<title>Node11&#45;&gt;Node12</title>
<path fill="none" stroke="#63b8ff" d="M320.58,-54.75C312.72,-47.03 301.07,-35.6 291.58,-26.28"/>
<polygon fill="#63b8ff" stroke="#63b8ff" points="293.84,-23.6 284.25,-19.09 288.94,-28.59 293.84,-23.6"/>
</g>
<!-- Node11&#45;&gt;Node13 -->
<g id="edge13" class="edge">
<title>Node11&#45;&gt;Node13</title>
<path fill="none" stroke="#63b8ff" d="M366.94,-54.98C411.24,-44.91 484.42,-28.26 527.59,-18.44"/>
<polygon fill="#63b8ff" stroke="#63b8ff" points="528.39,-21.85 537.36,-16.22 526.84,-15.02 528.39,-21.85"/>
</g>
<!-- Node14 -->
<g id="node14" class="node">
<title>Node14</title>
<g id="a_node14"><a xlink:title=" ">
<polygon fill="#e0e0e0" stroke="#999999" points="371.5,-19 315.5,-19 315.5,0 371.5,0 371.5,-19"/>
<text text-anchor="middle" x="343.5" y="-7" font-family="Helvetica,sans-Serif" font-size="10.00">iomanip</text>
</a>
</g>
</g>
<!-- Node11&#45;&gt;Node14 -->
<g id="edge15" class="edge">
<title>Node11&#45;&gt;Node14</title>
<path fill="none" stroke="#63b8ff" d="M331.81,-54.75C333.67,-47.72 336.34,-37.62 338.65,-28.84"/>
<polygon fill="#63b8ff" stroke="#63b8ff" points="342.06,-29.65 341.23,-19.09 335.29,-27.86 342.06,-29.65"/>
</g>
<!-- Node15 -->
<g id="node15" class="node">
<title>Node15</title>
<g id="a_node15"><a xlink:title=" ">
<polygon fill="#e0e0e0" stroke="#999999" points="437,-19 390,-19 390,0 437,0 437,-19"/>
<text text-anchor="middle" x="413.5" y="-7" font-family="Helvetica,sans-Serif" font-size="10.00">cmath</text>
</a>
</g>
</g>
<!-- Node11&#45;&gt;Node15 -->
<g id="edge17" class="edge">
<title>Node11&#45;&gt;Node15</title>
<path fill="none" stroke="#63b8ff" d="M343,-54.98C355.9,-46.84 375.6,-34.41 390.9,-24.76"/>
<polygon fill="#63b8ff" stroke="#63b8ff" points="393.17,-27.47 399.76,-19.17 389.43,-21.55 393.17,-27.47"/>
</g>
<!-- Node21 -->
<g id="node21" class="node">
<title>Node21</title>
<g id="a_node21"><a xlink:href="CTF_8hpp.html" target="_top" xlink:title=" ">
<polygon fill="white" stroke="#666666" points="803.5,-129 729.5,-129 729.5,-110 803.5,-110 803.5,-129"/>
<text text-anchor="middle" x="766.5" y="-117" font-family="Helvetica,sans-Serif" font-size="10.00">util/CTF.hpp</text>
</a>
</g>
</g>
<!-- Node20&#45;&gt;Node21 -->
<g id="edge27" class="edge">
<title>Node20&#45;&gt;Node21</title>
<path fill="none" stroke="#63b8ff" d="M693.48,-164.98C706.97,-156.77 727.63,-144.18 743.54,-134.49"/>
<polygon fill="#63b8ff" stroke="#63b8ff" points="745.55,-137.36 752.27,-129.17 741.91,-131.38 745.55,-137.36"/>
</g>
<!-- Node22 -->
<g id="node22" class="node">
<title>Node22</title>
<g id="a_node22"><a xlink:title=" ">
<polygon fill="#e0e0e0" stroke="#999999" points="791.5,-74 741.5,-74 741.5,-55 791.5,-55 791.5,-74"/>
<text text-anchor="middle" x="766.5" y="-62" font-family="Helvetica,sans-Serif" font-size="10.00">ctf.hpp</text>
</a>
</g>
</g>
<!-- Node21&#45;&gt;Node22 -->
<g id="edge28" class="edge">
<title>Node21&#45;&gt;Node22</title>
<path fill="none" stroke="#63b8ff" d="M766.5,-109.75C766.5,-102.8 766.5,-92.85 766.5,-84.13"/>
<polygon fill="#63b8ff" stroke="#63b8ff" points="770,-84.09 766.5,-74.09 763,-84.09 770,-84.09"/>
</g>
</g>
</svg>
