<?xml version="1.0" encoding="UTF-8" standalone="no"?>
<!DOCTYPE svg PUBLIC "-//W3C//DTD SVG 1.1//EN"
 "http://www.w3.org/Graphics/SVG/1.1/DTD/svg11.dtd">
<!-- Generated by graphviz version 5.0.1 (0)
 -->
<!-- Title: pdsyevd_ Pages: 1 -->
<svg width="307pt" height="110pt"
 viewBox="0.00 0.00 307.00 110.00" xmlns="http://www.w3.org/2000/svg" xmlns:xlink="http://www.w3.org/1999/xlink">
<g id="graph0" class="graph" transform="scale(1 1) rotate(0) translate(4 106)">
<title>pdsyevd_</title>
<!-- Node1 -->
<g id="node1" class="node">
<title>Node1</title>
<g id="a_node1"><a xlink:title=" ">
<polygon fill="#bfbfbf" stroke="black" points="236,-41.5 236,-60.5 299,-60.5 299,-41.5 236,-41.5"/>
<text text-anchor="middle" x="267.5" y="-48.5" font-family="Helvetica,sans-Serif" font-size="10.00">pdsyevd_</text>
</a>
</g>
</g>
<!-- Node2 -->
<g id="node2" class="node">
<title>Node2</title>
<g id="a_node2"><a xlink:href="classsisi4s_1_1ScaLapackHermitianEigenSystemDc_3_01double_01_4.html#aca65e9d7ae9aa12de5ee47caa644c947" target="_top" xlink:title=" ">
<polygon fill="none" stroke="black" points="0,-60.5 0,-101.5 200,-101.5 200,-60.5 0,-60.5"/>
<text text-anchor="start" x="8" y="-89.5" font-family="Helvetica,sans-Serif" font-size="10.00">sisi4s::ScaLapackHermitian</text>
<text text-anchor="start" x="8" y="-78.5" font-family="Helvetica,sans-Serif" font-size="10.00">EigenSystemDc&lt; double &gt;</text>
<text text-anchor="middle" x="100" y="-67.5" font-family="Helvetica,sans-Serif" font-size="10.00">::ScaLapackHermitianEigenSystemDc</text>
</a>
</g>
</g>
<!-- Node1&#45;&gt;Node2 -->
<g id="edge1" class="edge">
<title>Node1&#45;&gt;Node2</title>
<path fill="none" stroke="midnightblue" d="M225.71,-58.39C217.72,-59.84 209.02,-61.42 200.06,-63.04"/>
<polygon fill="midnightblue" stroke="midnightblue" points="226.54,-61.8 235.76,-56.57 225.29,-54.91 226.54,-61.8"/>
</g>
<!-- Node3 -->
<g id="node3" class="node">
<title>Node3</title>
<g id="a_node3"><a xlink:href="classsisi4s_1_1ScaLapackHermitianEigenSystemDc_3_01double_01_4.html#a2206b1129be420da0861ee33d12dec79" target="_top" xlink:title=" ">
<polygon fill="none" stroke="black" points="24.5,-0.5 24.5,-41.5 175.5,-41.5 175.5,-0.5 24.5,-0.5"/>
<text text-anchor="start" x="32.5" y="-29.5" font-family="Helvetica,sans-Serif" font-size="10.00">sisi4s::ScaLapackHermitian</text>
<text text-anchor="start" x="32.5" y="-18.5" font-family="Helvetica,sans-Serif" font-size="10.00">EigenSystemDc&lt; double &gt;</text>
<text text-anchor="middle" x="100" y="-7.5" font-family="Helvetica,sans-Serif" font-size="10.00">::solve</text>
</a>
</g>
</g>
<!-- Node1&#45;&gt;Node3 -->
<g id="edge2" class="edge">
<title>Node1&#45;&gt;Node3</title>
<path fill="none" stroke="midnightblue" d="M225.71,-43.61C210.54,-40.86 192.82,-37.64 175.58,-34.52"/>
<polygon fill="midnightblue" stroke="midnightblue" points="225.29,-47.09 235.76,-45.43 226.54,-40.2 225.29,-47.09"/>
</g>
</g>
</svg>
