<?xml version="1.0" encoding="UTF-8" standalone="no"?>
<!DOCTYPE svg PUBLIC "-//W3C//DTD SVG 1.1//EN"
 "http://www.w3.org/Graphics/SVG/1.1/DTD/svg11.dtd">
<!-- Generated by graphviz version 9.0.0 (0)
 -->
<!-- Title: ScaLapackMatrix.cxx Pages: 1 -->
<svg width="925pt" height="256pt"
 viewBox="0.00 0.00 924.88 255.75" xmlns="http://www.w3.org/2000/svg" xmlns:xlink="http://www.w3.org/1999/xlink">
<g id="graph0" class="graph" transform="scale(1 1) rotate(0) translate(4 251.75)">
<title>ScaLapackMatrix.cxx</title>
<!-- Node1 -->
<g id="Node000001" class="node">
<title>Node1</title>
<g id="a_Node000001"><a xlink:title=" ">
<polygon fill="#999999" stroke="#666666" points="331.5,-247.75 212,-247.75 212,-227 331.5,-227 331.5,-247.75"/>
<text text-anchor="middle" x="271.75" y="-234.25" font-family="Helvetica,sans-Serif" font-size="10.00">ScaLapackMatrix.cxx</text>
</a>
</g>
</g>
<!-- Node2 -->
<g id="Node000002" class="node">
<title>Node2</title>
<g id="a_Node000002"><a xlink:title=" ">
<polygon fill="#e0e0e0" stroke="#999999" points="41.5,-191 0,-191 0,-170.25 41.5,-170.25 41.5,-191"/>
<text text-anchor="middle" x="20.75" y="-177.5" font-family="Helvetica,sans-Serif" font-size="10.00">array</text>
</a>
</g>
</g>
<!-- Node1&#45;&gt;Node2 -->
<g id="edge1_Node000001_Node000002" class="edge">
<title>Node1&#45;&gt;Node2</title>
<g id="a_edge1_Node000001_Node000002"><a xlink:title=" ">
<path fill="none" stroke="#63b8ff" d="M214.78,-226.53C172.25,-218.78 112.53,-207.03 52.67,-191.58"/>
<polygon fill="#63b8ff" stroke="#63b8ff" points="53.92,-188.29 43.36,-189.14 52.14,-195.06 53.92,-188.29"/>
</a>
</g>
</g>
<!-- Node3 -->
<g id="Node000003" class="node">
<title>Node3</title>
<g id="a_Node000003"><a xlink:href="ScaLapackMatrix_8hpp.html" target="_top" xlink:title=" ">
<polygon fill="white" stroke="#666666" points="198.25,-191 59.25,-191 59.25,-170.25 198.25,-170.25 198.25,-191"/>
<text text-anchor="middle" x="128.75" y="-177.5" font-family="Helvetica,sans-Serif" font-size="10.00">util/ScaLapackMatrix.hpp</text>
</a>
</g>
</g>
<!-- Node1&#45;&gt;Node3 -->
<g id="edge2_Node000001_Node000003" class="edge">
<title>Node1&#45;&gt;Node3</title>
<g id="a_edge2_Node000001_Node000003"><a xlink:title=" ">
<path fill="none" stroke="#63b8ff" d="M246.18,-226.59C223.51,-217.91 190.15,-205.13 164.77,-195.42"/>
<polygon fill="#63b8ff" stroke="#63b8ff" points="166.1,-192.18 155.51,-191.87 163.6,-198.71 166.1,-192.18"/>
</a>
</g>
</g>
<!-- Node5 -->
<g id="Node000005" class="node">
<title>Node5</title>
<g id="a_Node000005"><a xlink:href="Tensor_8hpp.html" target="_top" xlink:title=" ">
<polygon fill="white" stroke="#666666" points="264,-134.25 177.5,-134.25 177.5,-113.5 264,-113.5 264,-134.25"/>
<text text-anchor="middle" x="220.75" y="-120.75" font-family="Helvetica,sans-Serif" font-size="10.00">util/Tensor.hpp</text>
</a>
</g>
</g>
<!-- Node1&#45;&gt;Node5 -->
<g id="edge25_Node000001_Node000005" class="edge">
<title>Node1&#45;&gt;Node5</title>
<g id="a_edge25_Node000001_Node000005"><a xlink:title=" ">
<path fill="none" stroke="#63b8ff" d="M265.5,-226.53C259.91,-217.5 251.72,-203.64 245.75,-191 238.69,-176.04 232.14,-158.51 227.51,-145.26"/>
<polygon fill="#63b8ff" stroke="#63b8ff" points="230.87,-144.26 224.34,-135.92 224.24,-146.52 230.87,-144.26"/>
</a>
</g>
</g>
<!-- Node8 -->
<g id="Node000008" class="node">
<title>Node8</title>
<g id="a_Node000008"><a xlink:href="ScaLapack_8hpp.html" target="_top" xlink:title=" ">
<polygon fill="white" stroke="#666666" points="378.38,-191 255.12,-191 255.12,-170.25 378.38,-170.25 378.38,-191"/>
<text text-anchor="middle" x="316.75" y="-177.5" font-family="Helvetica,sans-Serif" font-size="10.00">extern/ScaLapack.hpp</text>
</a>
</g>
</g>
<!-- Node1&#45;&gt;Node8 -->
<g id="edge7_Node000001_Node000008" class="edge">
<title>Node1&#45;&gt;Node8</title>
<g id="a_edge7_Node000001_Node000008"><a xlink:title=" ">
<path fill="none" stroke="#63b8ff" d="M279.8,-226.59C285.81,-219.27 294.22,-209.04 301.49,-200.19"/>
<polygon fill="#63b8ff" stroke="#63b8ff" points="304.17,-202.45 307.81,-192.5 298.76,-198 304.17,-202.45"/>
</a>
</g>
</g>
<!-- Node9 -->
<g id="Node000009" class="node">
<title>Node9</title>
<g id="a_Node000009"><a xlink:href="Complex_8hpp.html" target="_top" xlink:title=" ">
<polygon fill="white" stroke="#666666" points="426.25,-134.25 317.25,-134.25 317.25,-113.5 426.25,-113.5 426.25,-134.25"/>
<text text-anchor="middle" x="371.75" y="-120.75" font-family="Helvetica,sans-Serif" font-size="10.00">math/Complex.hpp</text>
</a>
</g>
</g>
<!-- Node1&#45;&gt;Node9 -->
<g id="edge12_Node000001_Node000009" class="edge">
<title>Node1&#45;&gt;Node9</title>
<g id="a_edge12_Node000001_Node000009"><a xlink:title=" ">
<path fill="none" stroke="#63b8ff" d="M331.85,-227.21C353.13,-220.76 374.95,-209.75 387.75,-191 397.2,-177.16 391.26,-158.36 384.09,-144.34"/>
<polygon fill="#63b8ff" stroke="#63b8ff" points="387.35,-142.98 379.35,-136.03 381.27,-146.45 387.35,-142.98"/>
</a>
</g>
</g>
<!-- Node13 -->
<g id="Node000013" class="node">
<title>Node13</title>
<g id="a_Node000013"><a xlink:href="Log_8hpp.html" target="_top" xlink:title=" ">
<polygon fill="white" stroke="#666666" points="732.25,-191 659.25,-191 659.25,-170.25 732.25,-170.25 732.25,-191"/>
<text text-anchor="middle" x="695.75" y="-177.5" font-family="Helvetica,sans-Serif" font-size="10.00">util/Log.hpp</text>
</a>
</g>
</g>
<!-- Node1&#45;&gt;Node13 -->
<g id="edge13_Node000001_Node000013" class="edge">
<title>Node1&#45;&gt;Node13</title>
<g id="a_edge13_Node000001_Node000013"><a xlink:title=" ">
<path fill="none" stroke="#63b8ff" d="M331.6,-228.65C416.39,-217.7 569.8,-197.89 647.65,-187.84"/>
<polygon fill="#63b8ff" stroke="#63b8ff" points="648.05,-191.31 657.52,-186.56 647.16,-184.37 648.05,-191.31"/>
</a>
</g>
</g>
<!-- Node4 -->
<g id="Node000004" class="node">
<title>Node4</title>
<g id="a_Node000004"><a xlink:href="BlacsWorld_8hpp.html" target="_top" xlink:title=" ">
<polygon fill="white" stroke="#666666" points="159.62,-134.25 49.88,-134.25 49.88,-113.5 159.62,-113.5 159.62,-134.25"/>
<text text-anchor="middle" x="104.75" y="-120.75" font-family="Helvetica,sans-Serif" font-size="10.00">util/BlacsWorld.hpp</text>
</a>
</g>
</g>
<!-- Node3&#45;&gt;Node4 -->
<g id="edge3_Node000003_Node000004" class="edge">
<title>Node3&#45;&gt;Node4</title>
<g id="a_edge3_Node000003_Node000004"><a xlink:title=" ">
<path fill="none" stroke="#63b8ff" d="M124.46,-169.84C121.42,-162.91 117.24,-153.37 113.51,-144.86"/>
<polygon fill="#63b8ff" stroke="#63b8ff" points="116.83,-143.72 109.61,-135.96 110.42,-146.53 116.83,-143.72"/>
</a>
</g>
</g>
<!-- Node3&#45;&gt;Node5 -->
<g id="edge4_Node000003_Node000005" class="edge">
<title>Node3&#45;&gt;Node5</title>
<g id="a_edge4_Node000003_Node000005"><a xlink:title=" ">
<path fill="none" stroke="#63b8ff" d="M145.2,-169.84C158.93,-161.66 178.77,-149.86 194.67,-140.4"/>
<polygon fill="#63b8ff" stroke="#63b8ff" points="196.34,-143.47 203.14,-135.35 192.76,-137.46 196.34,-143.47"/>
</a>
</g>
</g>
<!-- Node6 -->
<g id="Node000006" class="node">
<title>Node6</title>
<g id="a_Node000006"><a xlink:href="CTF_8hpp.html" target="_top" xlink:title=" ">
<polygon fill="white" stroke="#666666" points="254.25,-77.5 181.25,-77.5 181.25,-56.75 254.25,-56.75 254.25,-77.5"/>
<text text-anchor="middle" x="217.75" y="-64" font-family="Helvetica,sans-Serif" font-size="10.00">util/CTF.hpp</text>
</a>
</g>
</g>
<!-- Node5&#45;&gt;Node6 -->
<g id="edge5_Node000005_Node000006" class="edge">
<title>Node5&#45;&gt;Node6</title>
<g id="a_edge5_Node000005_Node000006"><a xlink:title=" ">
<path fill="none" stroke="#63b8ff" d="M220.21,-113.09C219.85,-106.47 219.36,-97.47 218.91,-89.27"/>
<polygon fill="#63b8ff" stroke="#63b8ff" points="222.41,-89.13 218.36,-79.34 215.42,-89.52 222.41,-89.13"/>
</a>
</g>
</g>
<!-- Node7 -->
<g id="Node000007" class="node">
<title>Node7</title>
<g id="a_Node000007"><a xlink:title=" ">
<polygon fill="#e0e0e0" stroke="#999999" points="242.25,-20.75 193.25,-20.75 193.25,0 242.25,0 242.25,-20.75"/>
<text text-anchor="middle" x="217.75" y="-7.25" font-family="Helvetica,sans-Serif" font-size="10.00">ctf.hpp</text>
</a>
</g>
</g>
<!-- Node6&#45;&gt;Node7 -->
<g id="edge6_Node000006_Node000007" class="edge">
<title>Node6&#45;&gt;Node7</title>
<g id="a_edge6_Node000006_Node000007"><a xlink:title=" ">
<path fill="none" stroke="#63b8ff" d="M217.75,-56.34C217.75,-49.72 217.75,-40.72 217.75,-32.52"/>
<polygon fill="#63b8ff" stroke="#63b8ff" points="221.25,-32.59 217.75,-22.59 214.25,-32.59 221.25,-32.59"/>
</a>
</g>
</g>
<!-- Node8&#45;&gt;Node9 -->
<g id="edge8_Node000008_Node000009" class="edge">
<title>Node8&#45;&gt;Node9</title>
<g id="a_edge8_Node000008_Node000009"><a xlink:title=" ">
<path fill="none" stroke="#63b8ff" d="M326.58,-169.84C334.17,-162.28 344.87,-151.64 353.95,-142.6"/>
<polygon fill="#63b8ff" stroke="#63b8ff" points="356.31,-145.18 360.93,-135.65 351.37,-140.22 356.31,-145.18"/>
</a>
</g>
</g>
<!-- Node10 -->
<g id="Node000010" class="node">
<title>Node10</title>
<g id="a_Node000010"><a xlink:href="Float_8hpp.html" target="_top" xlink:title=" ">
<polygon fill="white" stroke="#666666" points="362.88,-77.5 272.62,-77.5 272.62,-56.75 362.88,-56.75 362.88,-77.5"/>
<text text-anchor="middle" x="317.75" y="-64" font-family="Helvetica,sans-Serif" font-size="10.00">math/Float.hpp</text>
</a>
</g>
</g>
<!-- Node9&#45;&gt;Node10 -->
<g id="edge9_Node000009_Node000010" class="edge">
<title>Node9&#45;&gt;Node10</title>
<g id="a_edge9_Node000009_Node000010"><a xlink:title=" ">
<path fill="none" stroke="#63b8ff" d="M362.1,-113.09C354.65,-105.53 344.14,-94.89 335.23,-85.85"/>
<polygon fill="#63b8ff" stroke="#63b8ff" points="337.9,-83.57 328.38,-78.91 332.91,-88.48 337.9,-83.57"/>
</a>
</g>
</g>
<!-- Node12 -->
<g id="Node000012" class="node">
<title>Node12</title>
<g id="a_Node000012"><a xlink:title=" ">
<polygon fill="#e0e0e0" stroke="#999999" points="438.75,-77.5 380.75,-77.5 380.75,-56.75 438.75,-56.75 438.75,-77.5"/>
<text text-anchor="middle" x="409.75" y="-64" font-family="Helvetica,sans-Serif" font-size="10.00">complex</text>
</a>
</g>
</g>
<!-- Node9&#45;&gt;Node12 -->
<g id="edge11_Node000009_Node000012" class="edge">
<title>Node9&#45;&gt;Node12</title>
<g id="a_edge11_Node000009_Node000012"><a xlink:title=" ">
<path fill="none" stroke="#63b8ff" d="M378.54,-113.09C383.52,-105.92 390.42,-95.98 396.47,-87.26"/>
<polygon fill="#63b8ff" stroke="#63b8ff" points="399.33,-89.28 402.15,-79.07 393.57,-85.29 399.33,-89.28"/>
</a>
</g>
</g>
<!-- Node11 -->
<g id="Node000011" class="node">
<title>Node11</title>
<g id="a_Node000011"><a xlink:title=" ">
<polygon fill="#e0e0e0" stroke="#999999" points="420,-20.75 363.5,-20.75 363.5,0 420,0 420,-20.75"/>
<text text-anchor="middle" x="391.75" y="-7.25" font-family="Helvetica,sans-Serif" font-size="10.00">ostream</text>
</a>
</g>
</g>
<!-- Node10&#45;&gt;Node11 -->
<g id="edge10_Node000010_Node000011" class="edge">
<title>Node10&#45;&gt;Node11</title>
<g id="a_edge10_Node000010_Node000011"><a xlink:title=" ">
<path fill="none" stroke="#63b8ff" d="M330.98,-56.34C341.71,-48.4 357.07,-37.03 369.67,-27.71"/>
<polygon fill="#63b8ff" stroke="#63b8ff" points="371.46,-30.74 377.42,-21.98 367.3,-25.11 371.46,-30.74"/>
</a>
</g>
</g>
<!-- Node14 -->
<g id="Node000014" class="node">
<title>Node14</title>
<g id="a_Node000014"><a xlink:href="Time_8hpp.html" target="_top" xlink:title=" ">
<polygon fill="white" stroke="#666666" points="621,-134.25 540.5,-134.25 540.5,-113.5 621,-113.5 621,-134.25"/>
<text text-anchor="middle" x="580.75" y="-120.75" font-family="Helvetica,sans-Serif" font-size="10.00">util/Time.hpp</text>
</a>
</g>
</g>
<!-- Node13&#45;&gt;Node14 -->
<g id="edge14_Node000013_Node000014" class="edge">
<title>Node13&#45;&gt;Node14</title>
<g id="a_edge14_Node000013_Node000014"><a xlink:title=" ">
<path fill="none" stroke="#63b8ff" d="M675.19,-169.84C657.45,-161.39 631.57,-149.07 611.38,-139.46"/>
<polygon fill="#63b8ff" stroke="#63b8ff" points="613.03,-136.37 602.5,-135.23 610.02,-142.69 613.03,-136.37"/>
</a>
</g>
</g>
<!-- Node20 -->
<g id="Node000020" class="node">
<title>Node20</title>
<g id="a_Node000020"><a xlink:title=" ">
<polygon fill="#e0e0e0" stroke="#999999" points="682.62,-134.25 638.88,-134.25 638.88,-113.5 682.62,-113.5 682.62,-134.25"/>
<text text-anchor="middle" x="660.75" y="-120.75" font-family="Helvetica,sans-Serif" font-size="10.00">string</text>
</a>
</g>
</g>
<!-- Node13&#45;&gt;Node20 -->
<g id="edge21_Node000013_Node000020" class="edge">
<title>Node13&#45;&gt;Node20</title>
<g id="a_edge21_Node000013_Node000020"><a xlink:title=" ">
<path fill="none" stroke="#63b8ff" d="M689.49,-169.84C684.91,-162.67 678.55,-152.73 672.98,-144.01"/>
<polygon fill="#63b8ff" stroke="#63b8ff" points="676.1,-142.39 667.77,-135.85 670.21,-146.16 676.1,-142.39"/>
</a>
</g>
</g>
<!-- Node21 -->
<g id="Node000021" class="node">
<title>Node21</title>
<g id="a_Node000021"><a xlink:title=" ">
<polygon fill="#e0e0e0" stroke="#999999" points="760.5,-134.25 701,-134.25 701,-113.5 760.5,-113.5 760.5,-134.25"/>
<text text-anchor="middle" x="730.75" y="-120.75" font-family="Helvetica,sans-Serif" font-size="10.00">iostream</text>
</a>
</g>
</g>
<!-- Node13&#45;&gt;Node21 -->
<g id="edge22_Node000013_Node000021" class="edge">
<title>Node13&#45;&gt;Node21</title>
<g id="a_edge22_Node000013_Node000021"><a xlink:title=" ">
<path fill="none" stroke="#63b8ff" d="M702.01,-169.84C706.59,-162.67 712.95,-152.73 718.52,-144.01"/>
<polygon fill="#63b8ff" stroke="#63b8ff" points="721.29,-146.16 723.73,-135.85 715.4,-142.39 721.29,-146.16"/>
</a>
</g>
</g>
<!-- Node22 -->
<g id="Node000022" class="node">
<title>Node22</title>
<g id="a_Node000022"><a xlink:title=" ">
<polygon fill="#e0e0e0" stroke="#999999" points="844.88,-134.25 778.62,-134.25 778.62,-113.5 844.88,-113.5 844.88,-134.25"/>
<text text-anchor="middle" x="811.75" y="-120.75" font-family="Helvetica,sans-Serif" font-size="10.00">streambuf</text>
</a>
</g>
</g>
<!-- Node13&#45;&gt;Node22 -->
<g id="edge23_Node000013_Node000022" class="edge">
<title>Node13&#45;&gt;Node22</title>
<g id="a_edge23_Node000013_Node000022"><a xlink:title=" ">
<path fill="none" stroke="#63b8ff" d="M716.49,-169.84C734.39,-161.39 760.49,-149.07 780.85,-139.46"/>
<polygon fill="#63b8ff" stroke="#63b8ff" points="782.27,-142.66 789.82,-135.22 779.29,-136.33 782.27,-142.66"/>
</a>
</g>
</g>
<!-- Node23 -->
<g id="Node000023" class="node">
<title>Node23</title>
<g id="a_Node000023"><a xlink:title=" ">
<polygon fill="#e0e0e0" stroke="#999999" points="916.88,-134.25 862.62,-134.25 862.62,-113.5 916.88,-113.5 916.88,-134.25"/>
<text text-anchor="middle" x="889.75" y="-120.75" font-family="Helvetica,sans-Serif" font-size="10.00">fstream</text>
</a>
</g>
</g>
<!-- Node13&#45;&gt;Node23 -->
<g id="edge24_Node000013_Node000023" class="edge">
<title>Node13&#45;&gt;Node23</title>
<g id="a_edge24_Node000013_Node000023"><a xlink:title=" ">
<path fill="none" stroke="#63b8ff" d="M730.43,-169.84C764.46,-160.23 816.23,-145.62 851.45,-135.68"/>
<polygon fill="#63b8ff" stroke="#63b8ff" points="852.13,-139.13 860.8,-133.04 850.23,-132.39 852.13,-139.13"/>
</a>
</g>
</g>
<!-- Node14&#45;&gt;Node11 -->
<g id="edge17_Node000014_Node000011" class="edge">
<title>Node14&#45;&gt;Node11</title>
<g id="a_edge17_Node000014_Node000011"><a xlink:title=" ">
<path fill="none" stroke="#63b8ff" d="M557.55,-113.1C537.96,-104.54 509.41,-91.34 485.75,-77.5 459.76,-62.3 431.76,-42.05 413.14,-27.98"/>
<polygon fill="#63b8ff" stroke="#63b8ff" points="415.35,-25.26 405.28,-21.97 411.1,-30.83 415.35,-25.26"/>
</a>
</g>
</g>
<!-- Node15 -->
<g id="Node000015" class="node">
<title>Node15</title>
<g id="a_Node000015"><a xlink:title=" ">
<polygon fill="#e0e0e0" stroke="#999999" points="538.62,-77.5 494.88,-77.5 494.88,-56.75 538.62,-56.75 538.62,-77.5"/>
<text text-anchor="middle" x="516.75" y="-64" font-family="Helvetica,sans-Serif" font-size="10.00">ctime</text>
</a>
</g>
</g>
<!-- Node14&#45;&gt;Node15 -->
<g id="edge15_Node000014_Node000015" class="edge">
<title>Node14&#45;&gt;Node15</title>
<g id="a_edge15_Node000014_Node000015"><a xlink:title=" ">
<path fill="none" stroke="#63b8ff" d="M569.31,-113.09C560.3,-105.38 547.52,-94.45 536.82,-85.29"/>
<polygon fill="#63b8ff" stroke="#63b8ff" points="539.12,-82.65 529.24,-78.81 534.57,-87.97 539.12,-82.65"/>
</a>
</g>
</g>
<!-- Node16 -->
<g id="Node000016" class="node">
<title>Node16</title>
<g id="a_Node000016"><a xlink:title=" ">
<polygon fill="#e0e0e0" stroke="#999999" points="605.25,-77.5 556.25,-77.5 556.25,-56.75 605.25,-56.75 605.25,-77.5"/>
<text text-anchor="middle" x="580.75" y="-64" font-family="Helvetica,sans-Serif" font-size="10.00">cstdint</text>
</a>
</g>
</g>
<!-- Node14&#45;&gt;Node16 -->
<g id="edge16_Node000014_Node000016" class="edge">
<title>Node14&#45;&gt;Node16</title>
<g id="a_edge16_Node000014_Node000016"><a xlink:title=" ">
<path fill="none" stroke="#63b8ff" d="M580.75,-113.09C580.75,-106.47 580.75,-97.47 580.75,-89.27"/>
<polygon fill="#63b8ff" stroke="#63b8ff" points="584.25,-89.34 580.75,-79.34 577.25,-89.34 584.25,-89.34"/>
</a>
</g>
</g>
<!-- Node17 -->
<g id="Node000017" class="node">
<title>Node17</title>
<g id="a_Node000017"><a xlink:title=" ">
<polygon fill="#e0e0e0" stroke="#999999" points="678.62,-77.5 622.88,-77.5 622.88,-56.75 678.62,-56.75 678.62,-77.5"/>
<text text-anchor="middle" x="650.75" y="-64" font-family="Helvetica,sans-Serif" font-size="10.00">iomanip</text>
</a>
</g>
</g>
<!-- Node14&#45;&gt;Node17 -->
<g id="edge18_Node000014_Node000017" class="edge">
<title>Node14&#45;&gt;Node17</title>
<g id="a_edge18_Node000014_Node000017"><a xlink:title=" ">
<path fill="none" stroke="#63b8ff" d="M593.26,-113.09C603.32,-105.22 617.66,-94 629.51,-84.74"/>
<polygon fill="#63b8ff" stroke="#63b8ff" points="631.43,-87.68 637.15,-78.76 627.12,-82.16 631.43,-87.68"/>
</a>
</g>
</g>
<!-- Node18 -->
<g id="Node000018" class="node">
<title>Node18</title>
<g id="a_Node000018"><a xlink:title=" ">
<polygon fill="#e0e0e0" stroke="#999999" points="752.62,-77.5 696.88,-77.5 696.88,-56.75 752.62,-56.75 752.62,-77.5"/>
<text text-anchor="middle" x="724.75" y="-64" font-family="Helvetica,sans-Serif" font-size="10.00">sstream</text>
</a>
</g>
</g>
<!-- Node14&#45;&gt;Node18 -->
<g id="edge19_Node000014_Node000018" class="edge">
<title>Node14&#45;&gt;Node18</title>
<g id="a_edge19_Node000014_Node000018"><a xlink:title=" ">
<path fill="none" stroke="#63b8ff" d="M606.49,-113.09C629.33,-104.41 662.92,-91.63 688.47,-81.92"/>
<polygon fill="#63b8ff" stroke="#63b8ff" points="689.71,-85.19 697.81,-78.37 687.22,-78.65 689.71,-85.19"/>
</a>
</g>
</g>
<!-- Node19 -->
<g id="Node000019" class="node">
<title>Node19</title>
<g id="a_Node000019"><a xlink:title=" ">
<polygon fill="#e0e0e0" stroke="#999999" points="817.12,-77.5 770.38,-77.5 770.38,-56.75 817.12,-56.75 817.12,-77.5"/>
<text text-anchor="middle" x="793.75" y="-64" font-family="Helvetica,sans-Serif" font-size="10.00">cmath</text>
</a>
</g>
</g>
<!-- Node14&#45;&gt;Node19 -->
<g id="edge20_Node000014_Node000019" class="edge">
<title>Node14&#45;&gt;Node19</title>
<g id="a_edge20_Node000014_Node000019"><a xlink:title=" ">
<path fill="none" stroke="#63b8ff" d="M621.48,-113.15C655.88,-104.83 706.68,-92.29 759.15,-78.14"/>
<polygon fill="#63b8ff" stroke="#63b8ff" points="759.82,-81.58 768.55,-75.59 757.99,-74.83 759.82,-81.58"/>
</a>
</g>
</g>
</g>
</svg>
