<?xml version="1.0" encoding="UTF-8" standalone="no"?>
<!DOCTYPE svg PUBLIC "-//W3C//DTD SVG 1.1//EN"
 "http://www.w3.org/Graphics/SVG/1.1/DTD/svg11.dtd">
<!-- Generated by graphviz version 7.0.0 (0)
 -->
<!-- Title: ScaLapackMatrix.hpp Pages: 1 -->
<svg width="1243pt" height="159pt"
 viewBox="0.00 0.00 1243.00 159.00" xmlns="http://www.w3.org/2000/svg" xmlns:xlink="http://www.w3.org/1999/xlink">
<g id="graph0" class="graph" transform="scale(1 1) rotate(0) translate(4 155)">
<title>ScaLapackMatrix.hpp</title>
<!-- Node1 -->
<g id="node1" class="node">
<title>Node1</title>
<g id="a_node1"><a xlink:title=" ">
<polygon fill="#999999" stroke="#666666" points="641.5,-151 520.5,-151 520.5,-132 641.5,-132 641.5,-151"/>
<text text-anchor="middle" x="581" y="-139" font-family="Helvetica,sans-Serif" font-size="10.00">ScaLapackMatrix.hpp</text>
</a>
</g>
</g>
<!-- Node2 -->
<g id="node2" class="node">
<title>Node2</title>
<g id="a_node2"><a xlink:href="CoulombVertexSingularVectors_8cxx.html" target="_top" xlink:title=" ">
<polygon fill="white" stroke="#666666" points="188,-24.5 0,-24.5 0,-5.5 188,-5.5 188,-24.5"/>
<text text-anchor="middle" x="94" y="-12.5" font-family="Helvetica,sans-Serif" font-size="10.00">CoulombVertexSingularVectors.cxx</text>
</a>
</g>
</g>
<!-- Node1&#45;&gt;Node2 -->
<g id="edge1" class="edge">
<title>Node1&#45;&gt;Node2</title>
<path fill="none" stroke="#63b8ff" d="M508.96,-132.85C453,-125.95 373.76,-114.07 306,-96 233.21,-76.59 150.69,-41.45 113.73,-24.98"/>
<polygon fill="#63b8ff" stroke="#63b8ff" points="508.33,-136.3 518.68,-134.02 509.17,-129.35 508.33,-136.3"/>
</g>
<!-- Node3 -->
<g id="node3" class="node">
<title>Node3</title>
<g id="a_node3"><a xlink:href="DoublesAmplitudesDecomposition_8cxx.html" target="_top" xlink:title=" ">
<polygon fill="white" stroke="#666666" points="412,-24.5 206,-24.5 206,-5.5 412,-5.5 412,-24.5"/>
<text text-anchor="middle" x="309" y="-12.5" font-family="Helvetica,sans-Serif" font-size="10.00">DoublesAmplitudesDecomposition.cxx</text>
</a>
</g>
</g>
<!-- Node1&#45;&gt;Node3 -->
<g id="edge2" class="edge">
<title>Node1&#45;&gt;Node3</title>
<path fill="none" stroke="#63b8ff" d="M508.77,-137.02C442.07,-132.26 349.56,-121.21 324,-96 304.68,-76.95 305.9,-41.47 307.72,-24.93"/>
<polygon fill="#63b8ff" stroke="#63b8ff" points="508.35,-140.5 518.56,-137.69 508.82,-133.52 508.35,-140.5"/>
</g>
<!-- Node4 -->
<g id="node4" class="node">
<title>Node4</title>
<g id="a_node4"><a xlink:href="ParticleHoleCoulombVertexSingularVectors_8cxx.html" target="_top" xlink:title=" ">
<polygon fill="white" stroke="#666666" points="580,-30 430,-30 430,0 580,0 580,-30"/>
<text text-anchor="start" x="438" y="-18" font-family="Helvetica,sans-Serif" font-size="10.00">ParticleHoleCoulombVertex</text>
<text text-anchor="middle" x="505" y="-7" font-family="Helvetica,sans-Serif" font-size="10.00">SingularVectors.cxx</text>
</a>
</g>
</g>
<!-- Node1&#45;&gt;Node4 -->
<g id="edge3" class="edge">
<title>Node1&#45;&gt;Node4</title>
<path fill="none" stroke="#63b8ff" d="M569.6,-121.82C554.34,-96.83 527.63,-53.06 513.82,-30.45"/>
<polygon fill="#63b8ff" stroke="#63b8ff" points="566.55,-123.54 574.75,-130.25 572.52,-119.9 566.55,-123.54"/>
</g>
<!-- Node5 -->
<g id="node5" class="node">
<title>Node5</title>
<g id="a_node5"><a xlink:href="PseudoInverseHermitianSvd_8cxx.html" target="_top" xlink:title=" ">
<polygon fill="white" stroke="#666666" points="773.5,-24.5 598.5,-24.5 598.5,-5.5 773.5,-5.5 773.5,-24.5"/>
<text text-anchor="middle" x="686" y="-12.5" font-family="Helvetica,sans-Serif" font-size="10.00">PseudoInverseHermitianSvd.cxx</text>
</a>
</g>
</g>
<!-- Node1&#45;&gt;Node5 -->
<g id="edge4" class="edge">
<title>Node1&#45;&gt;Node5</title>
<path fill="none" stroke="#63b8ff" d="M581.92,-120.44C583.58,-104.3 588.07,-81.8 600,-66 614.99,-46.16 640.33,-32.82 659.63,-24.94"/>
<polygon fill="#63b8ff" stroke="#63b8ff" points="578.44,-120.03 581.22,-130.25 585.42,-120.53 578.44,-120.03"/>
</g>
<!-- Node6 -->
<g id="node6" class="node">
<title>Node6</title>
<g id="a_node6"><a xlink:href="PseudoInverseSvd_8cxx.html" target="_top" xlink:title=" ">
<polygon fill="white" stroke="#666666" points="926,-24.5 800,-24.5 800,-5.5 926,-5.5 926,-24.5"/>
<text text-anchor="middle" x="863" y="-12.5" font-family="Helvetica,sans-Serif" font-size="10.00">PseudoInverseSvd.cxx</text>
</a>
</g>
</g>
<!-- Node1&#45;&gt;Node6 -->
<g id="edge5" class="edge">
<title>Node1&#45;&gt;Node6</title>
<path fill="none" stroke="#63b8ff" d="M653.12,-137.59C722.59,-133.23 821.02,-122.45 848,-96 867.38,-77.01 866.13,-41.5 864.29,-24.94"/>
<polygon fill="#63b8ff" stroke="#63b8ff" points="653.09,-134.08 643.31,-138.17 653.5,-141.07 653.09,-134.08"/>
</g>
<!-- Node7 -->
<g id="node7" class="node">
<title>Node7</title>
<g id="a_node7"><a xlink:href="ScaLapackHermitianEigenSystem_8hpp.html" target="_top" xlink:title=" ">
<polygon fill="white" stroke="#666666" points="1097,-90.5 895,-90.5 895,-71.5 1097,-71.5 1097,-90.5"/>
<text text-anchor="middle" x="996" y="-78.5" font-family="Helvetica,sans-Serif" font-size="10.00">ScaLapackHermitianEigenSystem.hpp</text>
</a>
</g>
</g>
<!-- Node1&#45;&gt;Node7 -->
<g id="edge6" class="edge">
<title>Node1&#45;&gt;Node7</title>
<path fill="none" stroke="#63b8ff" d="M653.07,-130.34C731.89,-119.23 856.99,-101.6 932.32,-90.98"/>
<polygon fill="#63b8ff" stroke="#63b8ff" points="652.7,-126.86 643.29,-131.72 653.68,-133.79 652.7,-126.86"/>
</g>
<!-- Node8 -->
<g id="node8" class="node">
<title>Node8</title>
<g id="a_node8"><a xlink:href="ScaLapackHermitianEigenSystemDc_8hpp.html" target="_top" xlink:title=" ">
<polygon fill="white" stroke="#666666" points="514.5,-96 333.5,-96 333.5,-66 514.5,-66 514.5,-96"/>
<text text-anchor="start" x="341.5" y="-84" font-family="Helvetica,sans-Serif" font-size="10.00">ScaLapackHermitianEigenSystem</text>
<text text-anchor="middle" x="424" y="-73" font-family="Helvetica,sans-Serif" font-size="10.00">Dc.hpp</text>
</a>
</g>
</g>
<!-- Node1&#45;&gt;Node8 -->
<g id="edge7" class="edge">
<title>Node1&#45;&gt;Node8</title>
<path fill="none" stroke="#63b8ff" d="M546.45,-127.63C521.72,-118.41 488.39,-105.99 462.75,-96.44"/>
<polygon fill="#63b8ff" stroke="#63b8ff" points="545.14,-130.87 555.74,-131.09 547.59,-124.32 545.14,-130.87"/>
</g>
<!-- Node9 -->
<g id="node9" class="node">
<title>Node9</title>
<g id="a_node9"><a xlink:href="ScaLapackMatrix_8cxx.html" target="_top" xlink:title=" ">
<polygon fill="white" stroke="#666666" points="1235,-90.5 1115,-90.5 1115,-71.5 1235,-71.5 1235,-90.5"/>
<text text-anchor="middle" x="1175" y="-78.5" font-family="Helvetica,sans-Serif" font-size="10.00">ScaLapackMatrix.cxx</text>
</a>
</g>
</g>
<!-- Node1&#45;&gt;Node9 -->
<g id="edge12" class="edge">
<title>Node1&#45;&gt;Node9</title>
<path fill="none" stroke="#63b8ff" d="M653.22,-137.03C754.71,-131.54 945.14,-119.06 1106,-96 1115.44,-94.65 1125.53,-92.82 1135,-90.93"/>
<polygon fill="#63b8ff" stroke="#63b8ff" points="653.2,-133.52 643.4,-137.55 653.57,-140.51 653.2,-133.52"/>
</g>
<!-- Node10 -->
<g id="node10" class="node">
<title>Node10</title>
<g id="a_node10"><a xlink:href="ScaLapackSingularValueDecomposition_8hpp.html" target="_top" xlink:title=" ">
<polygon fill="white" stroke="#666666" points="839,-90.5 609,-90.5 609,-71.5 839,-71.5 839,-90.5"/>
<text text-anchor="middle" x="724" y="-78.5" font-family="Helvetica,sans-Serif" font-size="10.00">ScaLapackSingularValueDecomposition.hpp</text>
</a>
</g>
</g>
<!-- Node1&#45;&gt;Node10 -->
<g id="edge13" class="edge">
<title>Node1&#45;&gt;Node10</title>
<path fill="none" stroke="#63b8ff" d="M613.24,-127.31C640.35,-116.22 678.37,-100.67 702.08,-90.97"/>
<polygon fill="#63b8ff" stroke="#63b8ff" points="612.05,-124.02 604.12,-131.04 614.7,-130.5 612.05,-124.02"/>
</g>
<!-- Node8&#45;&gt;Node2 -->
<g id="edge8" class="edge">
<title>Node8&#45;&gt;Node2</title>
<path fill="none" stroke="#63b8ff" d="M338.37,-63.39C275.11,-51.12 191.42,-34.89 140.21,-24.96"/>
<polygon fill="#63b8ff" stroke="#63b8ff" points="337.56,-66.8 348.04,-65.27 338.89,-59.93 337.56,-66.8"/>
</g>
<!-- Node8&#45;&gt;Node3 -->
<g id="edge9" class="edge">
<title>Node8&#45;&gt;Node3</title>
<path fill="none" stroke="#63b8ff" d="M388.26,-60.11C367.14,-48.36 341.44,-34.05 325.15,-24.99"/>
<polygon fill="#63b8ff" stroke="#63b8ff" points="386.43,-63.1 396.87,-64.9 389.83,-56.98 386.43,-63.1"/>
</g>
<!-- Node8&#45;&gt;Node4 -->
<g id="edge10" class="edge">
<title>Node8&#45;&gt;Node4</title>
<path fill="none" stroke="#63b8ff" d="M450.96,-58.7C462.73,-49.4 476.23,-38.73 486.79,-30.39"/>
<polygon fill="#63b8ff" stroke="#63b8ff" points="448.84,-55.91 443.16,-64.86 453.18,-61.4 448.84,-55.91"/>
</g>
<!-- Node8&#45;&gt;Node5 -->
<g id="edge11" class="edge">
<title>Node8&#45;&gt;Node5</title>
<path fill="none" stroke="#63b8ff" d="M494.18,-62.86C544.13,-50.66 609.24,-34.75 649.31,-24.96"/>
<polygon fill="#63b8ff" stroke="#63b8ff" points="493.48,-59.43 484.59,-65.2 495.14,-66.23 493.48,-59.43"/>
</g>
<!-- Node10&#45;&gt;Node6 -->
<g id="edge14" class="edge">
<title>Node10&#45;&gt;Node6</title>
<path fill="none" stroke="#63b8ff" d="M753.46,-66.44C780.72,-53.88 820.47,-35.58 843.84,-24.82"/>
<polygon fill="#63b8ff" stroke="#63b8ff" points="752.32,-63.11 744.7,-70.47 755.25,-69.46 752.32,-63.11"/>
</g>
</g>
</svg>
