<?xml version="1.0" encoding="UTF-8" standalone="no"?>
<!DOCTYPE svg PUBLIC "-//W3C//DTD SVG 1.1//EN"
 "http://www.w3.org/Graphics/SVG/1.1/DTD/svg11.dtd">
<!-- Generated by graphviz version 5.0.1 (0)
 -->
<!-- Title: ScaLapackHermitianEigenSystemDc.hpp Pages: 1 -->
<svg width="782pt" height="106pt"
 viewBox="0.00 0.00 781.50 106.00" xmlns="http://www.w3.org/2000/svg" xmlns:xlink="http://www.w3.org/1999/xlink">
<g id="graph0" class="graph" transform="scale(1 1) rotate(0) translate(4 102)">
<title>ScaLapackHermitianEigenSystemDc.hpp</title>
<!-- Node1 -->
<g id="node1" class="node">
<title>Node1</title>
<g id="a_node1"><a xlink:title=" ">
<polygon fill="#bfbfbf" stroke="black" points="316.5,-67.5 316.5,-97.5 497.5,-97.5 497.5,-67.5 316.5,-67.5"/>
<text text-anchor="start" x="324.5" y="-85.5" font-family="Helvetica,sans-Serif" font-size="10.00">ScaLapackHermitianEigenSystem</text>
<text text-anchor="middle" x="407" y="-74.5" font-family="Helvetica,sans-Serif" font-size="10.00">Dc.hpp</text>
</a>
</g>
</g>
<!-- Node2 -->
<g id="node2" class="node">
<title>Node2</title>
<g id="a_node2"><a xlink:href="CoulombVertexSingularVectors_8cxx.html" target="_top" xlink:title=" ">
<polygon fill="none" stroke="black" points="0,-6 0,-25 188,-25 188,-6 0,-6"/>
<text text-anchor="middle" x="94" y="-13" font-family="Helvetica,sans-Serif" font-size="10.00">CoulombVertexSingularVectors.cxx</text>
</a>
</g>
</g>
<!-- Node1&#45;&gt;Node2 -->
<g id="edge1" class="edge">
<title>Node1&#45;&gt;Node2</title>
<path fill="none" stroke="midnightblue" d="M329.41,-65.39C267.88,-52.61 184.31,-35.25 135.07,-25.03"/>
<polygon fill="midnightblue" stroke="midnightblue" points="328.97,-68.87 339.47,-67.48 330.39,-62.02 328.97,-68.87"/>
</g>
<!-- Node3 -->
<g id="node3" class="node">
<title>Node3</title>
<g id="a_node3"><a xlink:href="DoublesAmplitudesDecomposition_8cxx.html" target="_top" xlink:title=" ">
<polygon fill="none" stroke="black" points="206,-6 206,-25 412,-25 412,-6 206,-6"/>
<text text-anchor="middle" x="309" y="-13" font-family="Helvetica,sans-Serif" font-size="10.00">DoublesAmplitudesDecomposition.cxx</text>
</a>
</g>
</g>
<!-- Node1&#45;&gt;Node3 -->
<g id="edge2" class="edge">
<title>Node1&#45;&gt;Node3</title>
<path fill="none" stroke="midnightblue" d="M377.31,-61.81C358.77,-49.51 335.84,-34.3 321.83,-25.01"/>
<polygon fill="midnightblue" stroke="midnightblue" points="375.47,-64.79 385.74,-67.4 379.34,-58.95 375.47,-64.79"/>
</g>
<!-- Node4 -->
<g id="node4" class="node">
<title>Node4</title>
<g id="a_node4"><a xlink:href="ParticleHoleCoulombVertexSingularVectors_8cxx.html" target="_top" xlink:title=" ">
<polygon fill="none" stroke="black" points="430,-0.5 430,-30.5 580,-30.5 580,-0.5 430,-0.5"/>
<text text-anchor="start" x="438" y="-18.5" font-family="Helvetica,sans-Serif" font-size="10.00">ParticleHoleCoulombVertex</text>
<text text-anchor="middle" x="505" y="-7.5" font-family="Helvetica,sans-Serif" font-size="10.00">SingularVectors.cxx</text>
</a>
</g>
</g>
<!-- Node1&#45;&gt;Node4 -->
<g id="edge3" class="edge">
<title>Node1&#45;&gt;Node4</title>
<path fill="none" stroke="midnightblue" d="M436.8,-61.73C451.97,-51.68 470.04,-39.68 483.78,-30.58"/>
<polygon fill="midnightblue" stroke="midnightblue" points="434.66,-58.95 428.26,-67.4 438.53,-64.79 434.66,-58.95"/>
</g>
<!-- Node5 -->
<g id="node5" class="node">
<title>Node5</title>
<g id="a_node5"><a xlink:href="PseudoInverseHermitianSvd_8cxx.html" target="_top" xlink:title=" ">
<polygon fill="none" stroke="black" points="598.5,-6 598.5,-25 773.5,-25 773.5,-6 598.5,-6"/>
<text text-anchor="middle" x="686" y="-13" font-family="Helvetica,sans-Serif" font-size="10.00">PseudoInverseHermitianSvd.cxx</text>
</a>
</g>
</g>
<!-- Node1&#45;&gt;Node5 -->
<g id="edge4" class="edge">
<title>Node1&#45;&gt;Node5</title>
<path fill="none" stroke="midnightblue" d="M477.18,-65.15C531.93,-52.39 605.77,-35.19 649.39,-25.03"/>
<polygon fill="midnightblue" stroke="midnightblue" points="476.14,-61.8 467.2,-67.48 477.73,-68.62 476.14,-61.8"/>
</g>
</g>
</svg>
