<?xml version="1.0" encoding="UTF-8" standalone="no"?>
<!DOCTYPE svg PUBLIC "-//W3C//DTD SVG 1.1//EN"
 "http://www.w3.org/Graphics/SVG/1.1/DTD/svg11.dtd">
<!-- Generated by graphviz version 8.1.0 (0)
 -->
<!-- Title: main Pages: 1 -->
<svg width="397pt" height="345pt"
 viewBox="0.00 0.00 396.50 345.12" xmlns="http://www.w3.org/2000/svg" xmlns:xlink="http://www.w3.org/1999/xlink">
<g id="graph0" class="graph" transform="scale(1 1) rotate(0) translate(4 341.12)">
<title>main</title>
<!-- Node1 -->
<g id="Node000001" class="node">
<title>Node1</title>
<g id="a_Node000001"><a xlink:title=" ">
<polygon fill="#999999" stroke="#666666" points="40.75,-156.75 0,-156.75 0,-136 40.75,-136 40.75,-156.75"/>
<text text-anchor="middle" x="20.38" y="-143.25" font-family="Helvetica,sans-Serif" font-size="10.00">main</text>
</a>
</g>
</g>
<!-- Node2 -->
<g id="Node000002" class="node">
<title>Node2</title>
<g id="a_Node000002"><a xlink:href="classsisi4s_1_1AlgorithmFactory.html#a44e7b5116de2d0f47648df28288fa48e" target="_top" xlink:title=" ">
<polygon fill="white" stroke="#666666" points="219.88,-337.12 86.88,-337.12 86.88,-303.62 219.88,-303.62 219.88,-337.12"/>
<text text-anchor="start" x="94.88" y="-323.62" font-family="Helvetica,sans-Serif" font-size="10.00">sisi4s::AlgorithmFactory</text>
<text text-anchor="middle" x="153.38" y="-310.88" font-family="Helvetica,sans-Serif" font-size="10.00">::getAlgorithmNames</text>
</a>
</g>
</g>
<!-- Node1&#45;&gt;Node2 -->
<g id="edge1_Node000001_Node000002" class="edge">
<title>Node1&#45;&gt;Node2</title>
<g id="a_edge1_Node000001_Node000002"><a xlink:title=" ">
<path fill="none" stroke="#63b8ff" d="M22.29,-156.99C25.18,-183.84 36.45,-255.15 76.75,-294.38 77.73,-295.33 78.75,-296.25 79.79,-297.13"/>
<polygon fill="#63b8ff" stroke="#63b8ff" points="77.22,-300.31 87.39,-303.28 81.29,-294.61 77.22,-300.31"/>
</a>
</g>
</g>
<!-- Node3 -->
<g id="Node000003" class="node">
<title>Node3</title>
<g id="a_Node000003"><a xlink:href="classsisi4s_1_1DetailedException.html#ab039eec76ac9bfe6cccdcb731d5c0e01" target="_top" xlink:title=" ">
<polygon fill="white" stroke="#666666" points="222.88,-285.12 83.88,-285.12 83.88,-251.62 222.88,-251.62 222.88,-285.12"/>
<text text-anchor="start" x="91.88" y="-271.62" font-family="Helvetica,sans-Serif" font-size="10.00">sisi4s::DetailedException</text>
<text text-anchor="middle" x="153.38" y="-258.88" font-family="Helvetica,sans-Serif" font-size="10.00">::getMessage</text>
</a>
</g>
</g>
<!-- Node1&#45;&gt;Node3 -->
<g id="edge2_Node000001_Node000003" class="edge">
<title>Node1&#45;&gt;Node3</title>
<g id="a_edge2_Node000001_Node000003"><a xlink:title=" ">
<path fill="none" stroke="#63b8ff" d="M24.68,-156.97C31.35,-176.63 48.24,-218.88 76.75,-242.38 78.15,-243.53 79.6,-244.63 81.1,-245.69"/>
<polygon fill="#63b8ff" stroke="#63b8ff" points="78.76,-248.97 89.11,-251.22 82.42,-243.01 78.76,-248.97"/>
</a>
</g>
</g>
<!-- Node4 -->
<g id="Node000004" class="node">
<title>Node4</title>
<g id="a_Node000004"><a xlink:href="structsisi4s_1_1Options.html#ad20c3a9a952216298228bf397501ba20" target="_top" xlink:title=" ">
<polygon fill="white" stroke="#666666" points="213.5,-215.75 93.25,-215.75 93.25,-195 213.5,-195 213.5,-215.75"/>
<text text-anchor="middle" x="153.38" y="-202.25" font-family="Helvetica,sans-Serif" font-size="10.00">sisi4s::Options::parse</text>
</a>
</g>
</g>
<!-- Node1&#45;&gt;Node4 -->
<g id="edge3_Node000001_Node000004" class="edge">
<title>Node1&#45;&gt;Node4</title>
<g id="a_edge3_Node000001_Node000004"><a xlink:title=" ">
<path fill="none" stroke="#63b8ff" d="M33.77,-157.07C44.5,-165.82 60.76,-177.92 76.75,-185.38 81.35,-187.52 86.23,-189.47 91.19,-191.22"/>
<polygon fill="#63b8ff" stroke="#63b8ff" points="89.87,-194.8 100.46,-194.57 92.04,-188.14 89.87,-194.8"/>
</a>
</g>
</g>
<!-- Node7 -->
<g id="Node000007" class="node">
<title>Node7</title>
<g id="a_Node000007"><a xlink:href="classsisi4s_1_1Emitter.html#a6b88ef0ebdfcf5c0c155d7b88b8cfe64" target="_top" xlink:title=" ">
<polygon fill="white" stroke="#666666" points="230,-176.75 76.75,-176.75 76.75,-156 230,-156 230,-176.75"/>
<text text-anchor="middle" x="153.38" y="-163.25" font-family="Helvetica,sans-Serif" font-size="10.00">sisi4s::Emitter::setFileName</text>
</a>
</g>
</g>
<!-- Node1&#45;&gt;Node7 -->
<g id="edge7_Node000001_Node000007" class="edge">
<title>Node1&#45;&gt;Node7</title>
<g id="a_edge7_Node000001_Node000007"><a xlink:title=" ">
<path fill="none" stroke="#63b8ff" d="M40.99,-149.37C49.32,-150.64 59.64,-152.22 70.61,-153.89"/>
<polygon fill="#63b8ff" stroke="#63b8ff" points="69.86,-157.47 80.28,-155.52 70.92,-150.55 69.86,-157.47"/>
</a>
</g>
</g>
<!-- Node8 -->
<g id="Node000008" class="node">
<title>Node8</title>
<g id="a_Node000008"><a xlink:href="classsisi4s_1_1Log.html#a01a3b96d6c41bc8c2e23724a1f3f2326" target="_top" xlink:title=" ">
<polygon fill="white" stroke="#666666" points="220.62,-137.75 86.12,-137.75 86.12,-117 220.62,-117 220.62,-137.75"/>
<text text-anchor="middle" x="153.38" y="-124.25" font-family="Helvetica,sans-Serif" font-size="10.00">sisi4s::Log::setFileName</text>
</a>
</g>
</g>
<!-- Node1&#45;&gt;Node8 -->
<g id="edge8_Node000001_Node000008" class="edge">
<title>Node1&#45;&gt;Node8</title>
<g id="a_edge8_Node000001_Node000008"><a xlink:title=" ">
<path fill="none" stroke="#63b8ff" d="M40.99,-143.53C50.47,-142.16 62.52,-140.41 75.18,-138.57"/>
<polygon fill="#63b8ff" stroke="#63b8ff" points="75.52,-141.91 84.91,-137.01 74.52,-134.99 75.52,-141.91"/>
</a>
</g>
</g>
<!-- Node9 -->
<g id="Node000009" class="node">
<title>Node9</title>
<g id="a_Node000009"><a xlink:href="classsisi4s_1_1Log.html#ac56f4fbed34ddc6d8abc0452078b9b7b" target="_top" xlink:title=" ">
<polygon fill="white" stroke="#666666" points="219.12,-98.75 87.62,-98.75 87.62,-78 219.12,-78 219.12,-98.75"/>
<text text-anchor="middle" x="153.38" y="-85.25" font-family="Helvetica,sans-Serif" font-size="10.00">sisi4s::Log::setLogLevel</text>
</a>
</g>
</g>
<!-- Node1&#45;&gt;Node9 -->
<g id="edge9_Node000001_Node000009" class="edge">
<title>Node1&#45;&gt;Node9</title>
<g id="a_edge9_Node000001_Node000009"><a xlink:title=" ">
<path fill="none" stroke="#63b8ff" d="M34.25,-135.63C45.01,-127.15 61.06,-115.57 76.75,-108.38 81.44,-106.22 86.41,-104.27 91.46,-102.5"/>
<polygon fill="#63b8ff" stroke="#63b8ff" points="92.46,-105.54 100.9,-99.14 90.31,-98.88 92.46,-105.54"/>
</a>
</g>
</g>
<!-- Node10 -->
<g id="Node000010" class="node">
<title>Node10</title>
<g id="a_Node000010"><a xlink:href="classsisi4s_1_1Emitter.html#ad9c082d5eee1ca18f0111a95b9980977" target="_top" xlink:title=" ">
<polygon fill="white" stroke="#666666" points="219.12,-59.75 87.62,-59.75 87.62,-39 219.12,-39 219.12,-59.75"/>
<text text-anchor="middle" x="153.38" y="-46.25" font-family="Helvetica,sans-Serif" font-size="10.00">sisi4s::Emitter::setRank</text>
</a>
</g>
</g>
<!-- Node1&#45;&gt;Node10 -->
<g id="edge10_Node000001_Node000010" class="edge">
<title>Node1&#45;&gt;Node10</title>
<g id="a_edge10_Node000001_Node000010"><a xlink:title=" ">
<path fill="none" stroke="#63b8ff" d="M26.13,-135.61C34.11,-118.82 51.79,-86.56 76.75,-69.38 79.18,-67.7 81.75,-66.17 84.41,-64.76"/>
<polygon fill="#63b8ff" stroke="#63b8ff" points="85.72,-67.55 93.36,-60.21 82.81,-61.18 85.72,-67.55"/>
</a>
</g>
</g>
<!-- Node11 -->
<g id="Node000011" class="node">
<title>Node11</title>
<g id="a_Node000011"><a xlink:href="classsisi4s_1_1Log.html#aaa38a78a397ea02b283caa4dacca90e0" target="_top" xlink:title=" ">
<polygon fill="white" stroke="#666666" points="209.75,-20.75 97,-20.75 97,0 209.75,0 209.75,-20.75"/>
<text text-anchor="middle" x="153.38" y="-7.25" font-family="Helvetica,sans-Serif" font-size="10.00">sisi4s::Log::setRank</text>
</a>
</g>
</g>
<!-- Node1&#45;&gt;Node11 -->
<g id="edge11_Node000001_Node000011" class="edge">
<title>Node1&#45;&gt;Node11</title>
<g id="a_edge11_Node000001_Node000011"><a xlink:title=" ">
<path fill="none" stroke="#63b8ff" d="M23.38,-135.55C28.21,-112.54 42.73,-58.57 76.75,-30.38 79.86,-27.8 83.27,-25.55 86.87,-23.59"/>
<polygon fill="#63b8ff" stroke="#63b8ff" points="88.13,-26.4 95.75,-19.04 85.2,-20.04 88.13,-26.4"/>
</a>
</g>
</g>
<!-- Node4&#45;&gt;Node4 -->
<g id="edge6_Node000004_Node000004" class="edge">
<title>Node4&#45;&gt;Node4</title>
<g id="a_edge6_Node000004_Node000004"><a xlink:title=" ">
<path fill="none" stroke="#63b8ff" d="M131.94,-216.15C123.37,-224.81 130.52,-233.75 153.38,-233.75 166.23,-233.75 174.12,-230.92 177.03,-226.9"/>
<polygon fill="#63b8ff" stroke="#63b8ff" points="180.26,-226.23 174.81,-217.15 173.41,-227.65 180.26,-226.23"/>
</a>
</g>
</g>
<!-- Node5 -->
<g id="Node000005" class="node">
<title>Node5</title>
<g id="a_Node000005"><a xlink:href="classCLI_1_1Option.html#a154543609c45d9c59c69991a08ca272b" target="_top" xlink:title="Count the total number of times an option was passed.">
<polygon fill="white" stroke="#666666" points="378.38,-234.75 276.12,-234.75 276.12,-214 378.38,-214 378.38,-234.75"/>
<text text-anchor="middle" x="327.25" y="-221.25" font-family="Helvetica,sans-Serif" font-size="10.00">CLI::Option::count</text>
</a>
</g>
</g>
<!-- Node4&#45;&gt;Node5 -->
<g id="edge4_Node000004_Node000005" class="edge">
<title>Node4&#45;&gt;Node5</title>
<g id="a_edge4_Node000004_Node000005"><a xlink:title=" ">
<path fill="none" stroke="#63b8ff" d="M213.52,-211.91C230.17,-213.75 248.31,-215.76 265.07,-217.61"/>
<polygon fill="#63b8ff" stroke="#63b8ff" points="264.54,-221.18 274.86,-218.8 265.31,-214.23 264.54,-221.18"/>
</a>
</g>
</g>
<!-- Node6 -->
<g id="Node000006" class="node">
<title>Node6</title>
<g id="a_Node000006"><a xlink:href="classCLI_1_1App.html#a4720d5ded12ab00d3aa76bd195ad92be" target="_top" xlink:title="Get a pointer to the help flag.">
<polygon fill="white" stroke="#666666" points="388.5,-195.75 266,-195.75 266,-175 388.5,-175 388.5,-195.75"/>
<text text-anchor="middle" x="327.25" y="-182.25" font-family="Helvetica,sans-Serif" font-size="10.00">CLI::App::get_help_ptr</text>
</a>
</g>
</g>
<!-- Node4&#45;&gt;Node6 -->
<g id="edge5_Node000004_Node000006" class="edge">
<title>Node4&#45;&gt;Node6</title>
<g id="a_edge5_Node000004_Node000006"><a xlink:title=" ">
<path fill="none" stroke="#63b8ff" d="M213.52,-198.49C226.78,-196.95 240.98,-195.3 254.68,-193.7"/>
<polygon fill="#63b8ff" stroke="#63b8ff" points="255,-197.07 264.53,-192.44 254.19,-190.12 255,-197.07"/>
</a>
</g>
</g>
</g>
</svg>
