<?xml version="1.0" encoding="UTF-8" standalone="no"?>
<!DOCTYPE svg PUBLIC "-//W3C//DTD SVG 1.1//EN"
 "http://www.w3.org/Graphics/SVG/1.1/DTD/svg11.dtd">
<!-- Generated by graphviz version 5.0.1 (0)
 -->
<!-- Title: main Pages: 1 -->
<svg width="398pt" height="327pt"
 viewBox="0.00 0.00 398.00 326.50" xmlns="http://www.w3.org/2000/svg" xmlns:xlink="http://www.w3.org/1999/xlink">
<g id="graph0" class="graph" transform="scale(1 1) rotate(0) translate(4 322.5)">
<title>main</title>
<!-- Node1 -->
<g id="node1" class="node">
<title>Node1</title>
<g id="a_node1"><a xlink:title=" ">
<polygon fill="#999999" stroke="#666666" points="41,-148 0,-148 0,-129 41,-129 41,-148"/>
<text text-anchor="middle" x="20.5" y="-136" font-family="Helvetica,sans-Serif" font-size="10.00">main</text>
</a>
</g>
</g>
<!-- Node2 -->
<g id="node2" class="node">
<title>Node2</title>
<g id="a_node2"><a xlink:href="classsisi4s_1_1AlgorithmFactory.html#a44e7b5116de2d0f47648df28288fa48e" target="_top" xlink:title=" ">
<polygon fill="white" stroke="#666666" points="221,-318.5 87,-318.5 87,-288.5 221,-288.5 221,-318.5"/>
<text text-anchor="start" x="95" y="-306.5" font-family="Helvetica,sans-Serif" font-size="10.00">sisi4s::AlgorithmFactory</text>
<text text-anchor="middle" x="154" y="-295.5" font-family="Helvetica,sans-Serif" font-size="10.00">::getAlgorithmNames</text>
</a>
</g>
</g>
<!-- Node1&#45;&gt;Node2 -->
<g id="edge1" class="edge">
<title>Node1&#45;&gt;Node2</title>
<path fill="none" stroke="#63b8ff" d="M22.49,-148.3C25.59,-173.76 37.38,-242.53 77,-279.5 78.14,-280.56 79.32,-281.58 80.55,-282.55"/>
<polygon fill="#63b8ff" stroke="#63b8ff" points="78.9,-285.66 89.15,-288.32 82.8,-279.84 78.9,-285.66"/>
</g>
<!-- Node3 -->
<g id="node3" class="node">
<title>Node3</title>
<g id="a_node3"><a xlink:href="classsisi4s_1_1DetailedException.html#ab039eec76ac9bfe6cccdcb731d5c0e01" target="_top" xlink:title=" ">
<polygon fill="white" stroke="#666666" points="224,-270.5 84,-270.5 84,-240.5 224,-240.5 224,-270.5"/>
<text text-anchor="start" x="92" y="-258.5" font-family="Helvetica,sans-Serif" font-size="10.00">sisi4s::DetailedException</text>
<text text-anchor="middle" x="154" y="-247.5" font-family="Helvetica,sans-Serif" font-size="10.00">::getMessage</text>
</a>
</g>
</g>
<!-- Node1&#45;&gt;Node3 -->
<g id="edge2" class="edge">
<title>Node1&#45;&gt;Node3</title>
<path fill="none" stroke="#63b8ff" d="M24.66,-148.24C31.27,-167.13 48.39,-208.87 77,-231.5 78.76,-232.9 80.61,-234.21 82.52,-235.45"/>
<polygon fill="#63b8ff" stroke="#63b8ff" points="80.83,-238.52 91.26,-240.41 84.29,-232.43 80.83,-238.52"/>
</g>
<!-- Node4 -->
<g id="node4" class="node">
<title>Node4</title>
<g id="a_node4"><a xlink:href="structsisi4s_1_1Options.html#ad20c3a9a952216298228bf397501ba20" target="_top" xlink:title=" ">
<polygon fill="white" stroke="#666666" points="214.5,-204 93.5,-204 93.5,-185 214.5,-185 214.5,-204"/>
<text text-anchor="middle" x="154" y="-192" font-family="Helvetica,sans-Serif" font-size="10.00">sisi4s::Options::parse</text>
</a>
</g>
</g>
<!-- Node1&#45;&gt;Node4 -->
<g id="edge3" class="edge">
<title>Node1&#45;&gt;Node4</title>
<path fill="none" stroke="#63b8ff" d="M33.14,-148C43.92,-156.36 60.69,-168.29 77,-175.5 82.5,-177.93 88.36,-180.09 94.3,-182"/>
<polygon fill="#63b8ff" stroke="#63b8ff" points="93.74,-185.48 104.33,-184.97 95.74,-178.77 93.74,-185.48"/>
</g>
<!-- Node7 -->
<g id="node7" class="node">
<title>Node7</title>
<g id="a_node7"><a xlink:href="classsisi4s_1_1Emitter.html#a6b88ef0ebdfcf5c0c155d7b88b8cfe64" target="_top" xlink:title=" ">
<polygon fill="white" stroke="#666666" points="231,-167 77,-167 77,-148 231,-148 231,-167"/>
<text text-anchor="middle" x="154" y="-155" font-family="Helvetica,sans-Serif" font-size="10.00">sisi4s::Emitter::setFileName</text>
</a>
</g>
</g>
<!-- Node1&#45;&gt;Node7 -->
<g id="edge7" class="edge">
<title>Node1&#45;&gt;Node7</title>
<path fill="none" stroke="#63b8ff" d="M41.19,-141.34C51.06,-142.77 63.73,-144.6 76.96,-146.51"/>
<polygon fill="#63b8ff" stroke="#63b8ff" points="76.76,-150.02 87.16,-147.99 77.76,-143.09 76.76,-150.02"/>
</g>
<!-- Node8 -->
<g id="node8" class="node">
<title>Node8</title>
<g id="a_node8"><a xlink:href="classsisi4s_1_1Log.html#a01a3b96d6c41bc8c2e23724a1f3f2326" target="_top" xlink:title=" ">
<polygon fill="white" stroke="#666666" points="221.5,-130 86.5,-130 86.5,-111 221.5,-111 221.5,-130"/>
<text text-anchor="middle" x="154" y="-118" font-family="Helvetica,sans-Serif" font-size="10.00">sisi4s::Log::setFileName</text>
</a>
</g>
</g>
<!-- Node1&#45;&gt;Node8 -->
<g id="edge8" class="edge">
<title>Node1&#45;&gt;Node8</title>
<path fill="none" stroke="#63b8ff" d="M41.19,-135.81C50.89,-134.48 63.29,-132.78 76.28,-131"/>
<polygon fill="#63b8ff" stroke="#63b8ff" points="76.85,-134.46 86.29,-129.63 75.9,-127.52 76.85,-134.46"/>
</g>
<!-- Node9 -->
<g id="node9" class="node">
<title>Node9</title>
<g id="a_node9"><a xlink:href="classsisi4s_1_1Log.html#ac56f4fbed34ddc6d8abc0452078b9b7b" target="_top" xlink:title=" ">
<polygon fill="white" stroke="#666666" points="220,-93 88,-93 88,-74 220,-74 220,-93"/>
<text text-anchor="middle" x="154" y="-81" font-family="Helvetica,sans-Serif" font-size="10.00">sisi4s::Log::setLogLevel</text>
</a>
</g>
</g>
<!-- Node1&#45;&gt;Node9 -->
<g id="edge9" class="edge">
<title>Node1&#45;&gt;Node9</title>
<path fill="none" stroke="#63b8ff" d="M33.12,-128.95C43.88,-120.56 60.65,-108.61 77,-101.5 81.7,-99.46 86.66,-97.62 91.72,-95.99"/>
<polygon fill="#63b8ff" stroke="#63b8ff" points="92.91,-99.28 101.5,-93.07 90.91,-92.57 92.91,-99.28"/>
</g>
<!-- Node10 -->
<g id="node10" class="node">
<title>Node10</title>
<g id="a_node10"><a xlink:href="classsisi4s_1_1Emitter.html#ad9c082d5eee1ca18f0111a95b9980977" target="_top" xlink:title=" ">
<polygon fill="white" stroke="#666666" points="220,-56 88,-56 88,-37 220,-37 220,-56"/>
<text text-anchor="middle" x="154" y="-44" font-family="Helvetica,sans-Serif" font-size="10.00">sisi4s::Emitter::setRank</text>
</a>
</g>
</g>
<!-- Node1&#45;&gt;Node10 -->
<g id="edge10" class="edge">
<title>Node1&#45;&gt;Node10</title>
<path fill="none" stroke="#63b8ff" d="M25.95,-128.86C33.84,-112.86 51.88,-80.96 77,-64.5 79.45,-62.9 82.02,-61.44 84.68,-60.11"/>
<polygon fill="#63b8ff" stroke="#63b8ff" points="86.23,-63.25 94.01,-56.07 83.45,-56.83 86.23,-63.25"/>
</g>
<!-- Node11 -->
<g id="node11" class="node">
<title>Node11</title>
<g id="a_node11"><a xlink:href="classsisi4s_1_1Log.html#aaa38a78a397ea02b283caa4dacca90e0" target="_top" xlink:title=" ">
<polygon fill="white" stroke="#666666" points="210.5,-19 97.5,-19 97.5,0 210.5,0 210.5,-19"/>
<text text-anchor="middle" x="154" y="-7" font-family="Helvetica,sans-Serif" font-size="10.00">sisi4s::Log::setRank</text>
</a>
</g>
</g>
<!-- Node1&#45;&gt;Node11 -->
<g id="edge11" class="edge">
<title>Node1&#45;&gt;Node11</title>
<path fill="none" stroke="#63b8ff" d="M23.46,-128.73C28.35,-106.95 43.22,-54.25 77,-27.5 80.35,-24.85 84.02,-22.58 87.89,-20.63"/>
<polygon fill="#63b8ff" stroke="#63b8ff" points="89.39,-23.8 97.22,-16.66 86.65,-17.36 89.39,-23.8"/>
</g>
<!-- Node4&#45;&gt;Node4 -->
<g id="edge6" class="edge">
<title>Node4&#45;&gt;Node4</title>
<path fill="none" stroke="#63b8ff" d="M133.65,-204.08C123.76,-212.73 130.54,-222 154,-222 169.03,-222 177.21,-218.2 178.55,-213.19"/>
<polygon fill="#63b8ff" stroke="#63b8ff" points="181.72,-211.69 174.35,-204.08 175.36,-214.63 181.72,-211.69"/>
</g>
<!-- Node5 -->
<g id="node5" class="node">
<title>Node5</title>
<g id="a_node5"><a xlink:href="classCLI_1_1Option.html#a154543609c45d9c59c69991a08ca272b" target="_top" xlink:title="Count the total number of times an option was passed.">
<polygon fill="white" stroke="#666666" points="380,-222 277,-222 277,-203 380,-203 380,-222"/>
<text text-anchor="middle" x="328.5" y="-210" font-family="Helvetica,sans-Serif" font-size="10.00">CLI::Option::count</text>
</a>
</g>
</g>
<!-- Node4&#45;&gt;Node5 -->
<g id="edge4" class="edge">
<title>Node4&#45;&gt;Node5</title>
<path fill="none" stroke="#63b8ff" d="M214.85,-200.75C231.61,-202.49 249.84,-204.4 266.66,-206.15"/>
<polygon fill="#63b8ff" stroke="#63b8ff" points="266.62,-209.67 276.92,-207.22 267.34,-202.7 266.62,-209.67"/>
</g>
<!-- Node6 -->
<g id="node6" class="node">
<title>Node6</title>
<g id="a_node6"><a xlink:href="classCLI_1_1App.html#a4720d5ded12ab00d3aa76bd195ad92be" target="_top" xlink:title="Get a pointer to the help flag.">
<polygon fill="white" stroke="#666666" points="390,-185 267,-185 267,-166 390,-166 390,-185"/>
<text text-anchor="middle" x="328.5" y="-173" font-family="Helvetica,sans-Serif" font-size="10.00">CLI::App::get_help_ptr</text>
</a>
</g>
</g>
<!-- Node4&#45;&gt;Node6 -->
<g id="edge5" class="edge">
<title>Node4&#45;&gt;Node6</title>
<path fill="none" stroke="#63b8ff" d="M214.85,-187.91C228.39,-186.42 242.9,-184.82 256.85,-183.28"/>
<polygon fill="#63b8ff" stroke="#63b8ff" points="257.32,-186.75 266.88,-182.18 256.56,-179.79 257.32,-186.75"/>
</g>
</g>
</svg>
