<?xml version="1.0" encoding="UTF-8" standalone="no"?>
<!DOCTYPE svg PUBLIC "-//W3C//DTD SVG 1.1//EN"
 "http://www.w3.org/Graphics/SVG/1.1/DTD/svg11.dtd">
<!-- Generated by graphviz version 8.1.0 (0)
 -->
<!-- Title: Sisi4s.hpp Pages: 1 -->
<svg width="1836pt" height="199pt"
 viewBox="0.00 0.00 1836.25 199.00" xmlns="http://www.w3.org/2000/svg" xmlns:xlink="http://www.w3.org/1999/xlink">
<g id="graph0" class="graph" transform="scale(1 1) rotate(0) translate(4 195)">
<title>Sisi4s.hpp</title>
<!-- Node1 -->
<g id="Node000001" class="node">
<title>Node1</title>
<g id="a_Node000001"><a xlink:title=" ">
<polygon fill="#999999" stroke="#666666" points="637.62,-191 572.12,-191 572.12,-170.25 637.62,-170.25 637.62,-191"/>
<text text-anchor="middle" x="604.88" y="-177.5" font-family="Helvetica,sans-Serif" font-size="10.00">Sisi4s.hpp</text>
</a>
</g>
</g>
<!-- Node2 -->
<g id="Node000002" class="node">
<title>Node2</title>
<g id="a_Node000002"><a xlink:href="Time_8hpp.html" target="_top" xlink:title=" ">
<polygon fill="white" stroke="#666666" points="271.12,-77.5 190.62,-77.5 190.62,-56.75 271.12,-56.75 271.12,-77.5"/>
<text text-anchor="middle" x="230.88" y="-64" font-family="Helvetica,sans-Serif" font-size="10.00">util/Time.hpp</text>
</a>
</g>
</g>
<!-- Node1&#45;&gt;Node2 -->
<g id="edge1_Node000001_Node000002" class="edge">
<title>Node1&#45;&gt;Node2</title>
<g id="a_edge1_Node000001_Node000002"><a xlink:title=" ">
<path fill="none" stroke="#63b8ff" d="M572.01,-169.83C504.34,-149.65 349.47,-103.48 273.91,-80.96"/>
<polygon fill="#63b8ff" stroke="#63b8ff" points="275.38,-77.44 264.8,-77.94 273.38,-84.15 275.38,-77.44"/>
</a>
</g>
</g>
<!-- Node9 -->
<g id="Node000009" class="node">
<title>Node9</title>
<g id="a_Node000009"><a xlink:href="Documentation_8hpp.html" target="_top" xlink:title=" ">
<polygon fill="white" stroke="#666666" points="731.25,-134.25 600.5,-134.25 600.5,-113.5 731.25,-113.5 731.25,-134.25"/>
<text text-anchor="middle" x="665.88" y="-120.75" font-family="Helvetica,sans-Serif" font-size="10.00">util/Documentation.hpp</text>
</a>
</g>
</g>
<!-- Node1&#45;&gt;Node9 -->
<g id="edge8_Node000001_Node000009" class="edge">
<title>Node1&#45;&gt;Node9</title>
<g id="a_edge8_Node000001_Node000009"><a xlink:title=" ">
<path fill="none" stroke="#63b8ff" d="M615.78,-169.84C624.45,-162.05 636.8,-150.97 647.06,-141.76"/>
<polygon fill="#63b8ff" stroke="#63b8ff" points="648.96,-144.86 654.06,-135.58 644.28,-139.65 648.96,-144.86"/>
</a>
</g>
</g>
<!-- Node10 -->
<g id="Node000010" class="node">
<title>Node10</title>
<g id="a_Node000010"><a xlink:href="CTF_8hpp.html" target="_top" xlink:title=" ">
<polygon fill="white" stroke="#666666" points="870.38,-134.25 797.38,-134.25 797.38,-113.5 870.38,-113.5 870.38,-134.25"/>
<text text-anchor="middle" x="833.88" y="-120.75" font-family="Helvetica,sans-Serif" font-size="10.00">util/CTF.hpp</text>
</a>
</g>
</g>
<!-- Node1&#45;&gt;Node10 -->
<g id="edge9_Node000001_Node000010" class="edge">
<title>Node1&#45;&gt;Node10</title>
<g id="a_edge9_Node000001_Node000010"><a xlink:title=" ">
<path fill="none" stroke="#63b8ff" d="M637.69,-171.78C676.65,-162.47 741.93,-146.86 786.4,-136.22"/>
<polygon fill="#63b8ff" stroke="#63b8ff" points="787.04,-139.43 795.95,-133.7 785.41,-132.62 787.04,-139.43"/>
</a>
</g>
</g>
<!-- Node12 -->
<g id="Node000012" class="node">
<title>Node12</title>
<g id="a_Node000012"><a xlink:href="Options_8hpp.html" target="_top" xlink:title=" ">
<polygon fill="white" stroke="#666666" points="582.12,-134.25 507.62,-134.25 507.62,-113.5 582.12,-113.5 582.12,-134.25"/>
<text text-anchor="middle" x="544.88" y="-120.75" font-family="Helvetica,sans-Serif" font-size="10.00">Options.hpp</text>
</a>
</g>
</g>
<!-- Node1&#45;&gt;Node12 -->
<g id="edge11_Node000001_Node000012" class="edge">
<title>Node1&#45;&gt;Node12</title>
<g id="a_edge11_Node000001_Node000012"><a xlink:title=" ">
<path fill="none" stroke="#63b8ff" d="M594.15,-169.84C585.62,-162.05 573.48,-150.97 563.38,-141.76"/>
<polygon fill="#63b8ff" stroke="#63b8ff" points="566.25,-139.73 556.51,-135.58 561.54,-144.9 566.25,-139.73"/>
</a>
</g>
</g>
<!-- Node3 -->
<g id="Node000003" class="node">
<title>Node3</title>
<g id="a_Node000003"><a xlink:title=" ">
<polygon fill="#e0e0e0" stroke="#999999" points="43.75,-20.75 0,-20.75 0,0 43.75,0 43.75,-20.75"/>
<text text-anchor="middle" x="21.88" y="-7.25" font-family="Helvetica,sans-Serif" font-size="10.00">ctime</text>
</a>
</g>
</g>
<!-- Node2&#45;&gt;Node3 -->
<g id="edge2_Node000002_Node000003" class="edge">
<title>Node2&#45;&gt;Node3</title>
<g id="a_edge2_Node000002_Node000003"><a xlink:title=" ">
<path fill="none" stroke="#63b8ff" d="M190.44,-56.36C156.54,-48.05 106.61,-35.53 54.61,-21.15"/>
<polygon fill="#63b8ff" stroke="#63b8ff" points="55.76,-17.56 45.19,-18.25 53.89,-24.3 55.76,-17.56"/>
</a>
</g>
</g>
<!-- Node4 -->
<g id="Node000004" class="node">
<title>Node4</title>
<g id="a_Node000004"><a xlink:title=" ">
<polygon fill="#e0e0e0" stroke="#999999" points="185.38,-20.75 136.38,-20.75 136.38,0 185.38,0 185.38,-20.75"/>
<text text-anchor="middle" x="160.88" y="-7.25" font-family="Helvetica,sans-Serif" font-size="10.00">cstdint</text>
</a>
</g>
</g>
<!-- Node2&#45;&gt;Node4 -->
<g id="edge3_Node000002_Node000004" class="edge">
<title>Node2&#45;&gt;Node4</title>
<g id="a_edge3_Node000002_Node000004"><a xlink:title=" ">
<path fill="none" stroke="#63b8ff" d="M218.36,-56.34C208.21,-48.4 193.68,-37.03 181.76,-27.71"/>
<polygon fill="#63b8ff" stroke="#63b8ff" points="184.31,-24.48 174.28,-21.08 180,-30 184.31,-24.48"/>
</a>
</g>
</g>
<!-- Node5 -->
<g id="Node000005" class="node">
<title>Node5</title>
<g id="a_Node000005"><a xlink:title=" ">
<polygon fill="#e0e0e0" stroke="#999999" points="118.12,-20.75 61.62,-20.75 61.62,0 118.12,0 118.12,-20.75"/>
<text text-anchor="middle" x="89.88" y="-7.25" font-family="Helvetica,sans-Serif" font-size="10.00">ostream</text>
</a>
</g>
</g>
<!-- Node2&#45;&gt;Node5 -->
<g id="edge4_Node000002_Node000005" class="edge">
<title>Node2&#45;&gt;Node5</title>
<g id="a_edge4_Node000002_Node000005"><a xlink:title=" ">
<path fill="none" stroke="#63b8ff" d="M205.67,-56.34C183.21,-47.62 150.12,-34.77 125.06,-25.04"/>
<polygon fill="#63b8ff" stroke="#63b8ff" points="126.45,-21.44 115.86,-21.08 123.92,-27.96 126.45,-21.44"/>
</a>
</g>
</g>
<!-- Node6 -->
<g id="Node000006" class="node">
<title>Node6</title>
<g id="a_Node000006"><a xlink:title=" ">
<polygon fill="#e0e0e0" stroke="#999999" points="258.75,-20.75 203,-20.75 203,0 258.75,0 258.75,-20.75"/>
<text text-anchor="middle" x="230.88" y="-7.25" font-family="Helvetica,sans-Serif" font-size="10.00">iomanip</text>
</a>
</g>
</g>
<!-- Node2&#45;&gt;Node6 -->
<g id="edge5_Node000002_Node000006" class="edge">
<title>Node2&#45;&gt;Node6</title>
<g id="a_edge5_Node000002_Node000006"><a xlink:title=" ">
<path fill="none" stroke="#63b8ff" d="M230.88,-56.34C230.88,-49.56 230.88,-40.3 230.88,-31.94"/>
<polygon fill="#63b8ff" stroke="#63b8ff" points="234.38,-32.08 230.88,-22.08 227.38,-32.08 234.38,-32.08"/>
</a>
</g>
</g>
<!-- Node7 -->
<g id="Node000007" class="node">
<title>Node7</title>
<g id="a_Node000007"><a xlink:title=" ">
<polygon fill="#e0e0e0" stroke="#999999" points="332.75,-20.75 277,-20.75 277,0 332.75,0 332.75,-20.75"/>
<text text-anchor="middle" x="304.88" y="-7.25" font-family="Helvetica,sans-Serif" font-size="10.00">sstream</text>
</a>
</g>
</g>
<!-- Node2&#45;&gt;Node7 -->
<g id="edge6_Node000002_Node000007" class="edge">
<title>Node2&#45;&gt;Node7</title>
<g id="a_edge6_Node000002_Node000007"><a xlink:title=" ">
<path fill="none" stroke="#63b8ff" d="M244.1,-56.34C254.94,-48.32 270.5,-36.81 283.16,-27.44"/>
<polygon fill="#63b8ff" stroke="#63b8ff" points="284.8,-29.84 290.76,-21.08 280.64,-24.21 284.8,-29.84"/>
</a>
</g>
</g>
<!-- Node8 -->
<g id="Node000008" class="node">
<title>Node8</title>
<g id="a_Node000008"><a xlink:title=" ">
<polygon fill="#e0e0e0" stroke="#999999" points="397.25,-20.75 350.5,-20.75 350.5,0 397.25,0 397.25,-20.75"/>
<text text-anchor="middle" x="373.88" y="-7.25" font-family="Helvetica,sans-Serif" font-size="10.00">cmath</text>
</a>
</g>
</g>
<!-- Node2&#45;&gt;Node8 -->
<g id="edge7_Node000002_Node000008" class="edge">
<title>Node2&#45;&gt;Node8</title>
<g id="a_edge7_Node000002_Node000008"><a xlink:title=" ">
<path fill="none" stroke="#63b8ff" d="M256.44,-56.34C279.88,-47.36 314.75,-34.01 340.4,-24.19"/>
<polygon fill="#63b8ff" stroke="#63b8ff" points="341.34,-27.2 349.43,-20.35 338.84,-20.66 341.34,-27.2"/>
</a>
</g>
</g>
<!-- Node11 -->
<g id="Node000011" class="node">
<title>Node11</title>
<g id="a_Node000011"><a xlink:title=" ">
<polygon fill="#e0e0e0" stroke="#999999" points="977.38,-77.5 928.38,-77.5 928.38,-56.75 977.38,-56.75 977.38,-77.5"/>
<text text-anchor="middle" x="952.88" y="-64" font-family="Helvetica,sans-Serif" font-size="10.00">ctf.hpp</text>
</a>
</g>
</g>
<!-- Node10&#45;&gt;Node11 -->
<g id="edge10_Node000010_Node000011" class="edge">
<title>Node10&#45;&gt;Node11</title>
<g id="a_edge10_Node000010_Node000011"><a xlink:title=" ">
<path fill="none" stroke="#63b8ff" d="M855.15,-113.09C873.76,-104.52 901.03,-91.98 922.04,-82.31"/>
<polygon fill="#63b8ff" stroke="#63b8ff" points="923.16,-85.19 930.78,-77.83 920.24,-78.83 923.16,-85.19"/>
</a>
</g>
</g>
<!-- Node13 -->
<g id="Node000013" class="node">
<title>Node13</title>
<g id="a_Node000013"><a xlink:title=" ">
<polygon fill="#e0e0e0" stroke="#999999" points="458.75,-20.75 415,-20.75 415,0 458.75,0 458.75,-20.75"/>
<text text-anchor="middle" x="436.88" y="-7.25" font-family="Helvetica,sans-Serif" font-size="10.00">string</text>
</a>
</g>
</g>
<!-- Node12&#45;&gt;Node13 -->
<g id="edge12_Node000012_Node000013" class="edge">
<title>Node12&#45;&gt;Node13</title>
<g id="a_edge12_Node000012_Node000013"><a xlink:title=" ">
<path fill="none" stroke="#63b8ff" d="M535.67,-113.37C517.51,-94.62 476.83,-52.63 453.74,-28.78"/>
<polygon fill="#63b8ff" stroke="#63b8ff" points="456.84,-26.92 447.37,-22.18 451.81,-31.79 456.84,-26.92"/>
</a>
</g>
</g>
<!-- Node14 -->
<g id="Node000014" class="node">
<title>Node14</title>
<g id="a_Node000014"><a xlink:href="CLI11_8hpp.html" target="_top" xlink:title=" ">
<polygon fill="white" stroke="#666666" points="910.25,-77.5 809.5,-77.5 809.5,-56.75 910.25,-56.75 910.25,-77.5"/>
<text text-anchor="middle" x="859.88" y="-64" font-family="Helvetica,sans-Serif" font-size="10.00">vendor/CLI11.hpp</text>
</a>
</g>
</g>
<!-- Node12&#45;&gt;Node14 -->
<g id="edge13_Node000012_Node000014" class="edge">
<title>Node12&#45;&gt;Node14</title>
<g id="a_edge13_Node000012_Node000014"><a xlink:title=" ">
<path fill="none" stroke="#63b8ff" d="M582.57,-115.26C585.71,-114.65 588.85,-114.06 591.88,-113.5 662.64,-100.45 744.2,-86.85 798.58,-77.98"/>
<polygon fill="#63b8ff" stroke="#63b8ff" points="799.11,-81.28 808.42,-76.22 797.98,-74.37 799.11,-81.28"/>
</a>
</g>
</g>
<!-- Node14&#45;&gt;Node4 -->
<g id="edge27_Node000014_Node000004" class="edge">
<title>Node14&#45;&gt;Node4</title>
<g id="a_edge27_Node000014_Node000004"><a xlink:title=" ">
<path fill="none" stroke="#63b8ff" d="M809.32,-66.26C699.19,-65.79 429.41,-60.48 196.33,-20.85"/>
<polygon fill="#63b8ff" stroke="#63b8ff" points="197.06,-17.25 186.61,-19 195.87,-24.15 197.06,-17.25"/>
</a>
</g>
</g>
<!-- Node14&#45;&gt;Node6 -->
<g id="edge23_Node000014_Node000006" class="edge">
<title>Node14&#45;&gt;Node6</title>
<g id="a_edge23_Node000014_Node000006"><a xlink:title=" ">
<path fill="none" stroke="#63b8ff" d="M809.24,-65.17C708.26,-62.63 474.66,-53.59 269.71,-20.78"/>
<polygon fill="#63b8ff" stroke="#63b8ff" points="270.48,-17.19 260.05,-19.04 269.36,-24.1 270.48,-17.19"/>
</a>
</g>
</g>
<!-- Node14&#45;&gt;Node7 -->
<g id="edge25_Node000014_Node000007" class="edge">
<title>Node14&#45;&gt;Node7</title>
<g id="a_edge25_Node000014_Node000007"><a xlink:title=" ">
<path fill="none" stroke="#63b8ff" d="M809.16,-64.39C717.88,-60.68 519.79,-49.95 343.81,-20.82"/>
<polygon fill="#63b8ff" stroke="#63b8ff" points="344.5,-17.22 334.06,-19.01 343.34,-24.12 344.5,-17.22"/>
</a>
</g>
</g>
<!-- Node14&#45;&gt;Node8 -->
<g id="edge16_Node000014_Node000008" class="edge">
<title>Node14&#45;&gt;Node8</title>
<g id="a_edge16_Node000014_Node000008"><a xlink:title=" ">
<path fill="none" stroke="#63b8ff" d="M809.04,-64.12C726.61,-60.2 558.61,-49.43 408.31,-20.92"/>
<polygon fill="#63b8ff" stroke="#63b8ff" points="409,-17.29 398.52,-18.83 407.67,-24.17 409,-17.29"/>
</a>
</g>
</g>
<!-- Node14&#45;&gt;Node13 -->
<g id="edge15_Node000014_Node000013" class="edge">
<title>Node14&#45;&gt;Node13</title>
<g id="a_edge15_Node000014_Node000013"><a xlink:title=" ">
<path fill="none" stroke="#63b8ff" d="M809.29,-63.16C736.23,-58.26 596.85,-46.52 469.79,-20.82"/>
<polygon fill="#63b8ff" stroke="#63b8ff" points="470.6,-17.21 460.1,-18.62 469.19,-24.06 470.6,-17.21"/>
</a>
</g>
</g>
<!-- Node15 -->
<g id="Node000015" class="node">
<title>Node15</title>
<g id="a_Node000015"><a xlink:title=" ">
<polygon fill="#e0e0e0" stroke="#999999" points="1745.5,-20.75 1688.25,-20.75 1688.25,0 1745.5,0 1745.5,-20.75"/>
<text text-anchor="middle" x="1716.88" y="-7.25" font-family="Helvetica,sans-Serif" font-size="10.00">memory</text>
</a>
</g>
</g>
<!-- Node14&#45;&gt;Node15 -->
<g id="edge14_Node000014_Node000015" class="edge">
<title>Node14&#45;&gt;Node15</title>
<g id="a_edge14_Node000014_Node000015"><a xlink:title=" ">
<path fill="none" stroke="#63b8ff" d="M910.56,-57.81C913.71,-57.42 916.83,-57.06 919.88,-56.75 1252.85,-22.95 1343.55,-69.55 1677.45,-20.85"/>
<polygon fill="#63b8ff" stroke="#63b8ff" points="1677.52,-24.23 1686.9,-19.3 1676.5,-17.3 1677.52,-24.23"/>
</a>
</g>
</g>
<!-- Node16 -->
<g id="Node000016" class="node">
<title>Node16</title>
<g id="a_Node000016"><a xlink:title=" ">
<polygon fill="#e0e0e0" stroke="#999999" points="1828.25,-20.75 1763.5,-20.75 1763.5,0 1828.25,0 1828.25,-20.75"/>
<text text-anchor="middle" x="1795.88" y="-7.25" font-family="Helvetica,sans-Serif" font-size="10.00">functional</text>
</a>
</g>
</g>
<!-- Node14&#45;&gt;Node16 -->
<g id="edge17_Node000014_Node000016" class="edge">
<title>Node14&#45;&gt;Node16</title>
<g id="a_edge17_Node000014_Node000016"><a xlink:title=" ">
<path fill="none" stroke="#63b8ff" d="M910.56,-57.8C913.71,-57.41 916.83,-57.05 919.88,-56.75 1285.99,-20.37 1384.87,-69.4 1752.62,-20.81"/>
<polygon fill="#63b8ff" stroke="#63b8ff" points="1752.85,-24.18 1762.3,-19.39 1751.92,-17.24 1752.85,-24.18"/>
</a>
</g>
</g>
<!-- Node17 -->
<g id="Node000017" class="node">
<title>Node17</title>
<g id="a_Node000017"><a xlink:title=" ">
<polygon fill="#e0e0e0" stroke="#999999" points="532.75,-20.75 477,-20.75 477,0 532.75,0 532.75,-20.75"/>
<text text-anchor="middle" x="504.88" y="-7.25" font-family="Helvetica,sans-Serif" font-size="10.00">numeric</text>
</a>
</g>
</g>
<!-- Node14&#45;&gt;Node17 -->
<g id="edge18_Node000014_Node000017" class="edge">
<title>Node14&#45;&gt;Node17</title>
<g id="a_edge18_Node000014_Node000017"><a xlink:title=" ">
<path fill="none" stroke="#63b8ff" d="M809.2,-60.58C748.36,-53.55 643.08,-40.2 543.62,-20.92"/>
<polygon fill="#63b8ff" stroke="#63b8ff" points="544.57,-17.35 534.09,-18.85 543.22,-24.21 544.57,-17.35"/>
</a>
</g>
</g>
<!-- Node18 -->
<g id="Node000018" class="node">
<title>Node18</title>
<g id="a_Node000018"><a xlink:title=" ">
<polygon fill="#e0e0e0" stroke="#999999" points="588.75,-20.75 551,-20.75 551,0 588.75,0 588.75,-20.75"/>
<text text-anchor="middle" x="569.88" y="-7.25" font-family="Helvetica,sans-Serif" font-size="10.00">map</text>
</a>
</g>
</g>
<!-- Node14&#45;&gt;Node18 -->
<g id="edge19_Node000014_Node000018" class="edge">
<title>Node14&#45;&gt;Node18</title>
<g id="a_edge19_Node000014_Node000018"><a xlink:title=" ">
<path fill="none" stroke="#63b8ff" d="M809.17,-59.67C758.33,-52.68 677.69,-40.19 599.55,-20.86"/>
<polygon fill="#63b8ff" stroke="#63b8ff" points="600.59,-17.27 590.04,-18.22 598.88,-24.05 600.59,-17.27"/>
</a>
</g>
</g>
<!-- Node19 -->
<g id="Node000019" class="node">
<title>Node19</title>
<g id="a_Node000019"><a xlink:title=" ">
<polygon fill="#e0e0e0" stroke="#999999" points="661,-20.75 606.75,-20.75 606.75,0 661,0 661,-20.75"/>
<text text-anchor="middle" x="633.88" y="-7.25" font-family="Helvetica,sans-Serif" font-size="10.00">fstream</text>
</a>
</g>
</g>
<!-- Node14&#45;&gt;Node19 -->
<g id="edge20_Node000014_Node000019" class="edge">
<title>Node14&#45;&gt;Node19</title>
<g id="a_edge20_Node000014_Node000019"><a xlink:title=" ">
<path fill="none" stroke="#63b8ff" d="M818.17,-56.27C782.1,-47.71 728.26,-34.86 671.9,-20.98"/>
<polygon fill="#63b8ff" stroke="#63b8ff" points="672.89,-17.37 662.34,-18.38 671.22,-24.17 672.89,-17.37"/>
</a>
</g>
</g>
<!-- Node20 -->
<g id="Node000020" class="node">
<title>Node20</title>
<g id="a_Node000020"><a xlink:title=" ">
<polygon fill="#e0e0e0" stroke="#999999" points="720.25,-20.75 679.5,-20.75 679.5,0 720.25,0 720.25,-20.75"/>
<text text-anchor="middle" x="699.88" y="-7.25" font-family="Helvetica,sans-Serif" font-size="10.00">tuple</text>
</a>
</g>
</g>
<!-- Node14&#45;&gt;Node20 -->
<g id="edge21_Node000014_Node000020" class="edge">
<title>Node14&#45;&gt;Node20</title>
<g id="a_edge21_Node000014_Node000020"><a xlink:title=" ">
<path fill="none" stroke="#63b8ff" d="M831.27,-56.34C803.06,-46.68 760.05,-31.97 730.99,-22.02"/>
<polygon fill="#63b8ff" stroke="#63b8ff" points="732.19,-18.39 721.6,-18.47 729.93,-25.02 732.19,-18.39"/>
</a>
</g>
</g>
<!-- Node21 -->
<g id="Node000021" class="node">
<title>Node21</title>
<g id="a_Node000021"><a xlink:title=" ">
<polygon fill="#e0e0e0" stroke="#999999" points="783.12,-20.75 738.62,-20.75 738.62,0 783.12,0 783.12,-20.75"/>
<text text-anchor="middle" x="760.88" y="-7.25" font-family="Helvetica,sans-Serif" font-size="10.00">utility</text>
</a>
</g>
</g>
<!-- Node14&#45;&gt;Node21 -->
<g id="edge22_Node000014_Node000021" class="edge">
<title>Node14&#45;&gt;Node21</title>
<g id="a_edge22_Node000014_Node000021"><a xlink:title=" ">
<path fill="none" stroke="#63b8ff" d="M842.18,-56.34C827.11,-48.01 805.24,-35.91 787.97,-26.36"/>
<polygon fill="#63b8ff" stroke="#63b8ff" points="789.87,-22.86 779.42,-21.08 786.48,-28.98 789.87,-22.86"/>
</a>
</g>
</g>
<!-- Node22 -->
<g id="Node000022" class="node">
<title>Node22</title>
<g id="a_Node000022"><a xlink:title=" ">
<polygon fill="#e0e0e0" stroke="#999999" points="846.5,-20.75 801.25,-20.75 801.25,0 846.5,0 846.5,-20.75"/>
<text text-anchor="middle" x="823.88" y="-7.25" font-family="Helvetica,sans-Serif" font-size="10.00">locale</text>
</a>
</g>
</g>
<!-- Node14&#45;&gt;Node22 -->
<g id="edge24_Node000014_Node000022" class="edge">
<title>Node14&#45;&gt;Node22</title>
<g id="a_edge24_Node000014_Node000022"><a xlink:title=" ">
<path fill="none" stroke="#63b8ff" d="M853.44,-56.34C848.68,-49.1 842.05,-39.01 836.27,-30.22"/>
<polygon fill="#63b8ff" stroke="#63b8ff" points="838.67,-28.51 830.26,-22.08 832.83,-32.36 838.67,-28.51"/>
</a>
</g>
</g>
<!-- Node23 -->
<g id="Node000023" class="node">
<title>Node23</title>
<g id="a_Node000023"><a xlink:title=" ">
<polygon fill="#e0e0e0" stroke="#999999" points="927.5,-20.75 864.25,-20.75 864.25,0 927.5,0 927.5,-20.75"/>
<text text-anchor="middle" x="895.88" y="-7.25" font-family="Helvetica,sans-Serif" font-size="10.00">algorithm</text>
</a>
</g>
</g>
<!-- Node14&#45;&gt;Node23 -->
<g id="edge26_Node000014_Node000023" class="edge">
<title>Node14&#45;&gt;Node23</title>
<g id="a_edge26_Node000014_Node000023"><a xlink:title=" ">
<path fill="none" stroke="#63b8ff" d="M866.31,-56.34C871.07,-49.1 877.7,-39.01 883.48,-30.22"/>
<polygon fill="#63b8ff" stroke="#63b8ff" points="886.92,-32.36 889.49,-22.08 881.08,-28.51 886.92,-32.36"/>
</a>
</g>
</g>
<!-- Node24 -->
<g id="Node000024" class="node">
<title>Node24</title>
<g id="a_Node000024"><a xlink:title=" ">
<polygon fill="#e0e0e0" stroke="#999999" points="1004.62,-20.75 945.12,-20.75 945.12,0 1004.62,0 1004.62,-20.75"/>
<text text-anchor="middle" x="974.88" y="-7.25" font-family="Helvetica,sans-Serif" font-size="10.00">iostream</text>
</a>
</g>
</g>
<!-- Node14&#45;&gt;Node24 -->
<g id="edge28_Node000014_Node000024" class="edge">
<title>Node14&#45;&gt;Node24</title>
<g id="a_edge28_Node000014_Node000024"><a xlink:title=" ">
<path fill="none" stroke="#63b8ff" d="M880.43,-56.34C898.34,-47.81 924.54,-35.34 944.8,-25.69"/>
<polygon fill="#63b8ff" stroke="#63b8ff" points="945.97,-28.54 953.49,-21.08 942.96,-22.22 945.97,-28.54"/>
</a>
</g>
</g>
<!-- Node25 -->
<g id="Node000025" class="node">
<title>Node25</title>
<g id="a_Node000025"><a xlink:title=" ">
<polygon fill="#e0e0e0" stroke="#999999" points="1053.38,-20.75 1022.38,-20.75 1022.38,0 1053.38,0 1053.38,-20.75"/>
<text text-anchor="middle" x="1037.88" y="-7.25" font-family="Helvetica,sans-Serif" font-size="10.00">set</text>
</a>
</g>
</g>
<!-- Node14&#45;&gt;Node25 -->
<g id="edge29_Node000014_Node000025" class="edge">
<title>Node14&#45;&gt;Node25</title>
<g id="a_edge29_Node000014_Node000025"><a xlink:title=" ">
<path fill="none" stroke="#63b8ff" d="M896.56,-56.27C925.67,-48.24 967.58,-36.22 1011.61,-21.35"/>
<polygon fill="#63b8ff" stroke="#63b8ff" points="1012.61,-24.37 1020.94,-17.82 1010.34,-17.74 1012.61,-24.37"/>
</a>
</g>
</g>
<!-- Node26 -->
<g id="Node000026" class="node">
<title>Node26</title>
<g id="a_Node000026"><a xlink:title=" ">
<polygon fill="#e0e0e0" stroke="#999999" points="1140.12,-20.75 1071.62,-20.75 1071.62,0 1140.12,0 1140.12,-20.75"/>
<text text-anchor="middle" x="1105.88" y="-7.25" font-family="Helvetica,sans-Serif" font-size="10.00">type_traits</text>
</a>
</g>
</g>
<!-- Node14&#45;&gt;Node26 -->
<g id="edge30_Node000014_Node000026" class="edge">
<title>Node14&#45;&gt;Node26</title>
<g id="a_edge30_Node000014_Node000026"><a xlink:title=" ">
<path fill="none" stroke="#63b8ff" d="M904.14,-56.27C948.48,-46.4 1016.38,-31.29 1060.96,-21.37"/>
<polygon fill="#63b8ff" stroke="#63b8ff" points="1061.48,-24.62 1070.48,-19.03 1059.96,-17.79 1061.48,-24.62"/>
</a>
</g>
</g>
<!-- Node27 -->
<g id="Node000027" class="node">
<title>Node27</title>
<g id="a_Node000027"><a xlink:title=" ">
<polygon fill="#e0e0e0" stroke="#999999" points="1209.88,-20.75 1157.88,-20.75 1157.88,0 1209.88,0 1209.88,-20.75"/>
<text text-anchor="middle" x="1183.88" y="-7.25" font-family="Helvetica,sans-Serif" font-size="10.00">iterator</text>
</a>
</g>
</g>
<!-- Node14&#45;&gt;Node27 -->
<g id="edge31_Node000014_Node000027" class="edge">
<title>Node14&#45;&gt;Node27</title>
<g id="a_edge31_Node000014_Node000027"><a xlink:title=" ">
<path fill="none" stroke="#63b8ff" d="M910.58,-58.2C982.43,-46.96 1108.76,-27.19 1147,-20.66"/>
<polygon fill="#63b8ff" stroke="#63b8ff" points="1147.36,-23.97 1156.57,-18.74 1146.11,-17.09 1147.36,-23.97"/>
</a>
</g>
</g>
<!-- Node28 -->
<g id="Node000028" class="node">
<title>Node28</title>
<g id="a_Node000028"><a xlink:title=" ">
<polygon fill="#e0e0e0" stroke="#999999" points="1291.88,-20.75 1227.88,-20.75 1227.88,0 1291.88,0 1291.88,-20.75"/>
<text text-anchor="middle" x="1259.88" y="-7.25" font-family="Helvetica,sans-Serif" font-size="10.00">stdexcept</text>
</a>
</g>
</g>
<!-- Node14&#45;&gt;Node28 -->
<g id="edge32_Node000014_Node000028" class="edge">
<title>Node14&#45;&gt;Node28</title>
<g id="a_edge32_Node000014_Node000028"><a xlink:title=" ">
<path fill="none" stroke="#63b8ff" d="M910.6,-58.07C913.73,-57.61 916.85,-57.17 919.88,-56.75 1049.1,-38.88 1085.19,-43.45 1217.2,-20.88"/>
<polygon fill="#63b8ff" stroke="#63b8ff" points="1217.45,-24.22 1226.71,-19.07 1216.26,-17.32 1217.45,-24.22"/>
</a>
</g>
</g>
<!-- Node29 -->
<g id="Node000029" class="node">
<title>Node29</title>
<g id="a_Node000029"><a xlink:title=" ">
<polygon fill="#e0e0e0" stroke="#999999" points="1356.25,-20.75 1309.5,-20.75 1309.5,0 1356.25,0 1356.25,-20.75"/>
<text text-anchor="middle" x="1332.88" y="-7.25" font-family="Helvetica,sans-Serif" font-size="10.00">vector</text>
</a>
</g>
</g>
<!-- Node14&#45;&gt;Node29 -->
<g id="edge33_Node000014_Node000029" class="edge">
<title>Node14&#45;&gt;Node29</title>
<g id="a_edge33_Node000014_Node000029"><a xlink:title=" ">
<path fill="none" stroke="#63b8ff" d="M910.58,-57.98C913.72,-57.54 916.84,-57.13 919.88,-56.75 1085.18,-36.04 1131.93,-52.12 1298.6,-20.87"/>
<polygon fill="#63b8ff" stroke="#63b8ff" points="1299.06,-24.16 1308.23,-18.85 1297.75,-17.28 1299.06,-24.16"/>
</a>
</g>
</g>
<!-- Node30 -->
<g id="Node000030" class="node">
<title>Node30</title>
<g id="a_Node000030"><a xlink:title=" ">
<polygon fill="#e0e0e0" stroke="#999999" points="1417.75,-20.75 1374,-20.75 1374,0 1417.75,0 1417.75,-20.75"/>
<text text-anchor="middle" x="1395.88" y="-7.25" font-family="Helvetica,sans-Serif" font-size="10.00">limits</text>
</a>
</g>
</g>
<!-- Node14&#45;&gt;Node30 -->
<g id="edge34_Node000014_Node000030" class="edge">
<title>Node14&#45;&gt;Node30</title>
<g id="a_edge34_Node000014_Node000030"><a xlink:title=" ">
<path fill="none" stroke="#63b8ff" d="M910.58,-57.93C913.72,-57.51 916.84,-57.11 919.88,-56.75 1113.46,-33.83 1168.01,-56.84 1363.06,-20.71"/>
<polygon fill="#63b8ff" stroke="#63b8ff" points="1363.49,-24 1372.67,-18.71 1362.19,-17.12 1363.49,-24"/>
</a>
</g>
</g>
<!-- Node31 -->
<g id="Node000031" class="node">
<title>Node31</title>
<g id="a_Node000031"><a xlink:title=" ">
<polygon fill="#e0e0e0" stroke="#999999" points="1499.88,-20.75 1435.88,-20.75 1435.88,0 1499.88,0 1499.88,-20.75"/>
<text text-anchor="middle" x="1467.88" y="-7.25" font-family="Helvetica,sans-Serif" font-size="10.00">exception</text>
</a>
</g>
</g>
<!-- Node14&#45;&gt;Node31 -->
<g id="edge35_Node000014_Node000031" class="edge">
<title>Node14&#45;&gt;Node31</title>
<g id="a_edge35_Node000014_Node000031"><a xlink:title=" ">
<path fill="none" stroke="#63b8ff" d="M910.57,-57.9C913.72,-57.48 916.84,-57.09 919.88,-56.75 1140.83,-31.69 1201.55,-53.33 1424.97,-20.81"/>
<polygon fill="#63b8ff" stroke="#63b8ff" points="1425.35,-24.14 1434.73,-19.22 1424.33,-17.22 1425.35,-24.14"/>
</a>
</g>
</g>
<!-- Node32 -->
<g id="Node000032" class="node">
<title>Node32</title>
<g id="a_Node000032"><a xlink:title=" ">
<polygon fill="#e0e0e0" stroke="#999999" points="1581.5,-20.75 1518.25,-20.75 1518.25,0 1581.5,0 1581.5,-20.75"/>
<text text-anchor="middle" x="1549.88" y="-7.25" font-family="Helvetica,sans-Serif" font-size="10.00">sys/stat.h</text>
</a>
</g>
</g>
<!-- Node14&#45;&gt;Node32 -->
<g id="edge36_Node000014_Node000032" class="edge">
<title>Node14&#45;&gt;Node32</title>
<g id="a_edge36_Node000014_Node000032"><a xlink:title=" ">
<path fill="none" stroke="#63b8ff" d="M910.57,-57.86C913.71,-57.45 916.84,-57.08 919.88,-56.75 1177.18,-28.85 1247.44,-57.33 1507.66,-20.66"/>
<polygon fill="#63b8ff" stroke="#63b8ff" points="1507.78,-24.04 1517.19,-19.16 1506.79,-17.11 1507.78,-24.04"/>
</a>
</g>
</g>
<!-- Node33 -->
<g id="Node000033" class="node">
<title>Node33</title>
<g id="a_Node000033"><a xlink:title=" ">
<polygon fill="#e0e0e0" stroke="#999999" points="1670.62,-20.75 1599.12,-20.75 1599.12,0 1670.62,0 1670.62,-20.75"/>
<text text-anchor="middle" x="1634.88" y="-7.25" font-family="Helvetica,sans-Serif" font-size="10.00">sys/types.h</text>
</a>
</g>
</g>
<!-- Node14&#45;&gt;Node33 -->
<g id="edge37_Node000014_Node000033" class="edge">
<title>Node14&#45;&gt;Node33</title>
<g id="a_edge37_Node000014_Node000033"><a xlink:title=" ">
<path fill="none" stroke="#63b8ff" d="M910.57,-57.83C913.71,-57.43 916.83,-57.07 919.88,-56.75 1213.42,-26.02 1292.96,-59.19 1588.34,-20.9"/>
<polygon fill="#63b8ff" stroke="#63b8ff" points="1588.48,-24.28 1597.94,-19.51 1587.57,-17.34 1588.48,-24.28"/>
</a>
</g>
</g>
</g>
</svg>
