<?xml version="1.0" encoding="UTF-8" standalone="no"?>
<!DOCTYPE svg PUBLIC "-//W3C//DTD SVG 1.1//EN"
 "http://www.w3.org/Graphics/SVG/1.1/DTD/svg11.dtd">
<!-- Generated by graphviz version 7.1.0 (0)
 -->
<!-- Title: SlicedCtfTensor.hpp Pages: 1 -->
<svg width="405pt" height="192pt"
 viewBox="0.00 0.00 405.00 192.00" xmlns="http://www.w3.org/2000/svg" xmlns:xlink="http://www.w3.org/1999/xlink">
<g id="graph0" class="graph" transform="scale(1 1) rotate(0) translate(4 188)">
<title>SlicedCtfTensor.hpp</title>
<!-- Node1 -->
<g id="node1" class="node">
<title>Node1</title>
<g id="a_node1"><a xlink:title=" ">
<polygon fill="#999999" stroke="#666666" points="282,-184 170,-184 170,-165 282,-165 282,-184"/>
<text text-anchor="middle" x="226" y="-172" font-family="Helvetica,sans-Serif" font-size="10.00">SlicedCtfTensor.hpp</text>
</a>
</g>
</g>
<!-- Node2 -->
<g id="node2" class="node">
<title>Node2</title>
<g id="a_node2"><a xlink:href="Permutation_8hpp.html" target="_top" xlink:title=" ">
<polygon fill="white" stroke="#666666" points="126,-129 0,-129 0,-110 126,-110 126,-129"/>
<text text-anchor="middle" x="63" y="-117" font-family="Helvetica,sans-Serif" font-size="10.00">math/Permutation.hpp</text>
</a>
</g>
</g>
<!-- Node1&#45;&gt;Node2 -->
<g id="edge1" class="edge">
<title>Node1&#45;&gt;Node2</title>
<path fill="none" stroke="#63b8ff" d="M198.35,-164.51C171.69,-155.84 131.12,-142.65 101.34,-132.97"/>
<polygon fill="#63b8ff" stroke="#63b8ff" points="102.55,-129.68 91.95,-129.91 100.38,-136.33 102.55,-129.68"/>
</g>
<!-- Node4 -->
<g id="node4" class="node">
<title>Node4</title>
<g id="a_node4"><a xlink:title=" ">
<polygon fill="#e0e0e0" stroke="#999999" points="182.5,-74 99.5,-74 99.5,-55 182.5,-55 182.5,-74"/>
<text text-anchor="middle" x="141" y="-62" font-family="Helvetica,sans-Serif" font-size="10.00">initializer_list</text>
</a>
</g>
</g>
<!-- Node1&#45;&gt;Node4 -->
<g id="edge7" class="edge">
<title>Node1&#45;&gt;Node4</title>
<path fill="none" stroke="#63b8ff" d="M212.48,-164.52C200.89,-156.32 184.33,-143.32 173,-129 162.33,-115.52 153.8,-97.93 148.24,-84.67"/>
<polygon fill="#63b8ff" stroke="#63b8ff" points="151.65,-83.76 144.7,-75.77 145.14,-86.35 151.65,-83.76"/>
</g>
<!-- Node5 -->
<g id="node5" class="node">
<title>Node5</title>
<g id="a_node5"><a xlink:href="Tensor_8hpp.html" target="_top" xlink:title=" ">
<polygon fill="white" stroke="#666666" points="269.5,-129 182.5,-129 182.5,-110 269.5,-110 269.5,-129"/>
<text text-anchor="middle" x="226" y="-117" font-family="Helvetica,sans-Serif" font-size="10.00">util/Tensor.hpp</text>
</a>
</g>
</g>
<!-- Node1&#45;&gt;Node5 -->
<g id="edge4" class="edge">
<title>Node1&#45;&gt;Node5</title>
<path fill="none" stroke="#63b8ff" d="M226,-164.75C226,-158.27 226,-149.16 226,-140.9"/>
<polygon fill="#63b8ff" stroke="#63b8ff" points="229.5,-140.96 226,-130.96 222.5,-140.96 229.5,-140.96"/>
</g>
<!-- Node8 -->
<g id="node8" class="node">
<title>Node8</title>
<g id="a_node8"><a xlink:title=" ">
<polygon fill="#e0e0e0" stroke="#999999" points="334.5,-129 287.5,-129 287.5,-110 334.5,-110 334.5,-129"/>
<text text-anchor="middle" x="311" y="-117" font-family="Helvetica,sans-Serif" font-size="10.00">vector</text>
</a>
</g>
</g>
<!-- Node1&#45;&gt;Node8 -->
<g id="edge8" class="edge">
<title>Node1&#45;&gt;Node8</title>
<path fill="none" stroke="#63b8ff" d="M240.42,-164.51C253.2,-156.54 272.1,-144.75 287.13,-135.38"/>
<polygon fill="#63b8ff" stroke="#63b8ff" points="288.88,-138.42 295.51,-130.16 285.17,-132.48 288.88,-138.42"/>
</g>
<!-- Node9 -->
<g id="node9" class="node">
<title>Node9</title>
<g id="a_node9"><a xlink:title=" ">
<polygon fill="#e0e0e0" stroke="#999999" points="397,-129 353,-129 353,-110 397,-110 397,-129"/>
<text text-anchor="middle" x="375" y="-117" font-family="Helvetica,sans-Serif" font-size="10.00">string</text>
</a>
</g>
</g>
<!-- Node1&#45;&gt;Node9 -->
<g id="edge9" class="edge">
<title>Node1&#45;&gt;Node9</title>
<path fill="none" stroke="#63b8ff" d="M251.28,-164.51C276.23,-155.63 314.53,-142.01 341.9,-132.27"/>
<polygon fill="#63b8ff" stroke="#63b8ff" points="342.85,-135.65 351.1,-129 340.51,-129.05 342.85,-135.65"/>
</g>
<!-- Node3 -->
<g id="node3" class="node">
<title>Node3</title>
<g id="a_node3"><a xlink:title=" ">
<polygon fill="#e0e0e0" stroke="#999999" points="81,-74 21,-74 21,-55 81,-55 81,-74"/>
<text text-anchor="middle" x="51" y="-62" font-family="Helvetica,sans-Serif" font-size="10.00">iostream</text>
</a>
</g>
</g>
<!-- Node2&#45;&gt;Node3 -->
<g id="edge2" class="edge">
<title>Node2&#45;&gt;Node3</title>
<path fill="none" stroke="#63b8ff" d="M61.02,-109.75C59.53,-103.19 57.44,-93.95 55.55,-85.6"/>
<polygon fill="#63b8ff" stroke="#63b8ff" points="58.98,-84.9 53.36,-75.92 52.15,-86.44 58.98,-84.9"/>
</g>
<!-- Node2&#45;&gt;Node4 -->
<g id="edge3" class="edge">
<title>Node2&#45;&gt;Node4</title>
<path fill="none" stroke="#63b8ff" d="M76.23,-109.51C87.84,-101.62 104.97,-89.98 118.7,-80.65"/>
<polygon fill="#63b8ff" stroke="#63b8ff" points="120.41,-83.72 126.71,-75.21 116.47,-77.93 120.41,-83.72"/>
</g>
<!-- Node6 -->
<g id="node6" class="node">
<title>Node6</title>
<g id="a_node6"><a xlink:href="CTF_8hpp.html" target="_top" xlink:title=" ">
<polygon fill="white" stroke="#666666" points="275,-74 201,-74 201,-55 275,-55 275,-74"/>
<text text-anchor="middle" x="238" y="-62" font-family="Helvetica,sans-Serif" font-size="10.00">util/CTF.hpp</text>
</a>
</g>
</g>
<!-- Node5&#45;&gt;Node6 -->
<g id="edge5" class="edge">
<title>Node5&#45;&gt;Node6</title>
<path fill="none" stroke="#63b8ff" d="M227.98,-109.75C229.47,-103.19 231.56,-93.95 233.45,-85.6"/>
<polygon fill="#63b8ff" stroke="#63b8ff" points="236.85,-86.44 235.64,-75.92 230.02,-84.9 236.85,-86.44"/>
</g>
<!-- Node7 -->
<g id="node7" class="node">
<title>Node7</title>
<g id="a_node7"><a xlink:title=" ">
<polygon fill="#e0e0e0" stroke="#999999" points="263,-19 213,-19 213,0 263,0 263,-19"/>
<text text-anchor="middle" x="238" y="-7" font-family="Helvetica,sans-Serif" font-size="10.00">ctf.hpp</text>
</a>
</g>
</g>
<!-- Node6&#45;&gt;Node7 -->
<g id="edge6" class="edge">
<title>Node6&#45;&gt;Node7</title>
<path fill="none" stroke="#63b8ff" d="M238,-54.75C238,-48.27 238,-39.16 238,-30.9"/>
<polygon fill="#63b8ff" stroke="#63b8ff" points="241.5,-30.96 238,-20.96 234.5,-30.96 241.5,-30.96"/>
</g>
</g>
</svg>
