<?xml version="1.0" encoding="UTF-8" standalone="no"?>
<!DOCTYPE svg PUBLIC "-//W3C//DTD SVG 1.1//EN"
 "http://www.w3.org/Graphics/SVG/1.1/DTD/svg11.dtd">
<!-- Generated by graphviz version 5.0.1 (0)
 -->
<!-- Title: SliceCoulombVertex.cxx Pages: 1 -->
<svg width="2398pt" height="357pt"
 viewBox="0.00 0.00 2397.54 357.00" xmlns="http://www.w3.org/2000/svg" xmlns:xlink="http://www.w3.org/1999/xlink">
<g id="graph0" class="graph" transform="scale(1 1) rotate(0) translate(4 353)">
<title>SliceCoulombVertex.cxx</title>
<!-- Node1 -->
<g id="node1" class="node">
<title>Node1</title>
<g id="a_node1"><a xlink:title=" ">
<polygon fill="#999999" stroke="#666666" points="1867.5,-349 1732.5,-349 1732.5,-330 1867.5,-330 1867.5,-349"/>
<text text-anchor="middle" x="1800" y="-337" font-family="Helvetica,sans-Serif" font-size="10.00">SliceCoulombVertex.cxx</text>
</a>
</g>
</g>
<!-- Node2 -->
<g id="node2" class="node">
<title>Node2</title>
<g id="a_node2"><a xlink:href="SliceCoulombVertex_8hpp.html" target="_top" xlink:title=" ">
<polygon fill="white" stroke="#666666" points="2015.5,-294 1824.5,-294 1824.5,-275 2015.5,-275 2015.5,-294"/>
<text text-anchor="middle" x="1920" y="-282" font-family="Helvetica,sans-Serif" font-size="10.00">algorithms/SliceCoulombVertex.hpp</text>
</a>
</g>
</g>
<!-- Node1&#45;&gt;Node2 -->
<g id="edge1" class="edge">
<title>Node1&#45;&gt;Node2</title>
<path fill="none" stroke="#63b8ff" d="M1819.28,-329.98C1838.67,-321.42 1868.81,-308.11 1891.07,-298.28"/>
<polygon fill="#63b8ff" stroke="#63b8ff" points="1892.64,-301.41 1900.37,-294.17 1889.81,-295.01 1892.64,-301.41"/>
</g>
<!-- Node5 -->
<g id="node5" class="node">
<title>Node5</title>
<g id="a_node5"><a xlink:href="Log_8hpp.html" target="_top" xlink:title=" ">
<polygon fill="white" stroke="#666666" points="1434,-129 1360,-129 1360,-110 1434,-110 1434,-129"/>
<text text-anchor="middle" x="1397" y="-117" font-family="Helvetica,sans-Serif" font-size="10.00">util/Log.hpp</text>
</a>
</g>
</g>
<!-- Node1&#45;&gt;Node5 -->
<g id="edge48" class="edge">
<title>Node1&#45;&gt;Node5</title>
<path fill="none" stroke="#63b8ff" d="M1732.1,-333.49C1690.92,-328.13 1638.49,-317.02 1597,-294 1526.92,-255.12 1533.85,-214.72 1471,-165 1456.05,-153.17 1437.7,-142.12 1423.01,-133.98"/>
<polygon fill="#63b8ff" stroke="#63b8ff" points="1424.42,-130.77 1413.96,-129.08 1421.08,-136.92 1424.42,-130.77"/>
</g>
<!-- Node18 -->
<g id="node18" class="node">
<title>Node18</title>
<g id="a_node18"><a xlink:href="Complex_8hpp.html" target="_top" xlink:title=" ">
<polygon fill="white" stroke="#666666" points="2214,-129 2104,-129 2104,-110 2214,-110 2214,-129"/>
<text text-anchor="middle" x="2159" y="-117" font-family="Helvetica,sans-Serif" font-size="10.00">math/Complex.hpp</text>
</a>
</g>
</g>
<!-- Node1&#45;&gt;Node18 -->
<g id="edge35" class="edge">
<title>Node1&#45;&gt;Node18</title>
<path fill="none" stroke="#63b8ff" d="M1867.53,-337.44C1914.75,-333.9 1977.6,-323.34 2025,-294 2088.33,-254.81 2133.14,-174.16 2150.74,-138.33"/>
<polygon fill="#63b8ff" stroke="#63b8ff" points="2153.99,-139.64 2155.14,-129.11 2147.67,-136.62 2153.99,-139.64"/>
</g>
<!-- Node22 -->
<g id="node22" class="node">
<title>Node22</title>
<g id="a_node22"><a xlink:href="Tensor_8hpp.html" target="_top" xlink:title=" ">
<polygon fill="white" stroke="#666666" points="2357.5,-129 2270.5,-129 2270.5,-110 2357.5,-110 2357.5,-129"/>
<text text-anchor="middle" x="2314" y="-117" font-family="Helvetica,sans-Serif" font-size="10.00">util/Tensor.hpp</text>
</a>
</g>
</g>
<!-- Node1&#45;&gt;Node22 -->
<g id="edge80" class="edge">
<title>Node1&#45;&gt;Node22</title>
<path fill="none" stroke="#63b8ff" d="M1867.71,-337.7C1943.8,-335.16 2070.26,-325.92 2174,-294 2275.46,-262.78 2330.87,-274.71 2386,-184 2398.97,-162.66 2372.08,-144.54 2347.56,-133.19"/>
<polygon fill="#63b8ff" stroke="#63b8ff" points="2348.93,-129.97 2338.36,-129.18 2346.13,-136.38 2348.93,-129.97"/>
</g>
<!-- Node25 -->
<g id="node25" class="node">
<title>Node25</title>
<g id="a_node25"><a xlink:href="Exception_8hpp.html" target="_top" xlink:title=" ">
<polygon fill="white" stroke="#666666" points="1708,-129 1604,-129 1604,-110 1708,-110 1708,-129"/>
<text text-anchor="middle" x="1656" y="-117" font-family="Helvetica,sans-Serif" font-size="10.00">util/Exception.hpp</text>
</a>
</g>
</g>
<!-- Node1&#45;&gt;Node25 -->
<g id="edge49" class="edge">
<title>Node1&#45;&gt;Node25</title>
<path fill="none" stroke="#63b8ff" d="M1794.36,-329.95C1772.94,-297.54 1696.48,-181.78 1667.37,-137.71"/>
<polygon fill="#63b8ff" stroke="#63b8ff" points="1670.19,-135.64 1661.76,-129.22 1664.35,-139.5 1670.19,-135.64"/>
</g>
<!-- Node26 -->
<g id="node26" class="node">
<title>Node26</title>
<g id="a_node26"><a xlink:href="ComplexTensor_8hpp.html" target="_top" xlink:title=" ">
<polygon fill="white" stroke="#666666" points="2377,-184 2237,-184 2237,-165 2377,-165 2377,-184"/>
<text text-anchor="middle" x="2307" y="-172" font-family="Helvetica,sans-Serif" font-size="10.00">math/ComplexTensor.hpp</text>
</a>
</g>
</g>
<!-- Node1&#45;&gt;Node26 -->
<g id="edge36" class="edge">
<title>Node1&#45;&gt;Node26</title>
<path fill="none" stroke="#63b8ff" d="M1867.76,-339.23C1938.35,-337.83 2051,-329.41 2141,-294 2202.78,-269.69 2263.11,-217.43 2290.97,-191.19"/>
<polygon fill="#63b8ff" stroke="#63b8ff" points="2293.44,-193.68 2298.24,-184.24 2288.6,-188.62 2293.44,-193.68"/>
</g>
<!-- Node27 -->
<g id="node27" class="node">
<title>Node27</title>
<g id="a_node27"><a xlink:href="DryTensor_8hpp.html" target="_top" xlink:title=" ">
<polygon fill="white" stroke="#666666" points="1605,-184 1519,-184 1519,-165 1605,-165 1605,-184"/>
<text text-anchor="middle" x="1562" y="-172" font-family="Helvetica,sans-Serif" font-size="10.00">DryTensor.hpp</text>
</a>
</g>
</g>
<!-- Node1&#45;&gt;Node27 -->
<g id="edge39" class="edge">
<title>Node1&#45;&gt;Node27</title>
<path fill="none" stroke="#63b8ff" d="M1732.31,-335.66C1695.35,-330.96 1650.78,-319.8 1619,-294 1587.2,-268.19 1571.98,-220.37 1565.72,-194.06"/>
<polygon fill="#63b8ff" stroke="#63b8ff" points="1569.12,-193.24 1563.56,-184.22 1562.28,-194.74 1569.12,-193.24"/>
</g>
<!-- Node29 -->
<g id="node29" class="node">
<title>Node29</title>
<g id="a_node29"><a xlink:href="Sisi4s_8hpp.html" target="_top" xlink:title=" ">
<polygon fill="white" stroke="#666666" points="1461,-239 1395,-239 1395,-220 1461,-220 1461,-239"/>
<text text-anchor="middle" x="1428" y="-227" font-family="Helvetica,sans-Serif" font-size="10.00">Sisi4s.hpp</text>
</a>
</g>
</g>
<!-- Node1&#45;&gt;Node29 -->
<g id="edge50" class="edge">
<title>Node1&#45;&gt;Node29</title>
<path fill="none" stroke="#63b8ff" d="M1732.45,-335.18C1650.83,-330.14 1519.18,-318.45 1477,-294 1458.79,-283.45 1445.01,-263.23 1436.77,-248.43"/>
<polygon fill="#63b8ff" stroke="#63b8ff" points="1439.69,-246.48 1431.96,-239.23 1433.49,-249.72 1439.69,-246.48"/>
</g>
<!-- Node3 -->
<g id="node3" class="node">
<title>Node3</title>
<g id="a_node3"><a xlink:href="Algorithm_8hpp.html" target="_top" xlink:title=" ">
<polygon fill="white" stroke="#666666" points="2041.5,-239 1900.5,-239 1900.5,-220 2041.5,-220 2041.5,-239"/>
<text text-anchor="middle" x="1971" y="-227" font-family="Helvetica,sans-Serif" font-size="10.00">algorithms/Algorithm.hpp</text>
</a>
</g>
</g>
<!-- Node2&#45;&gt;Node3 -->
<g id="edge2" class="edge">
<title>Node2&#45;&gt;Node3</title>
<path fill="none" stroke="#63b8ff" d="M1928.42,-274.75C1935.77,-267.11 1946.63,-255.82 1955.54,-246.56"/>
<polygon fill="#63b8ff" stroke="#63b8ff" points="1958.32,-248.72 1962.74,-239.09 1953.28,-243.87 1958.32,-248.72"/>
</g>
<!-- Node4 -->
<g id="node4" class="node">
<title>Node4</title>
<g id="a_node4"><a xlink:href="Data_8hpp.html" target="_top" xlink:title=" ">
<polygon fill="white" stroke="#666666" points="1971.5,-184 1910.5,-184 1910.5,-165 1971.5,-165 1971.5,-184"/>
<text text-anchor="middle" x="1941" y="-172" font-family="Helvetica,sans-Serif" font-size="10.00">Data.hpp</text>
</a>
</g>
</g>
<!-- Node3&#45;&gt;Node4 -->
<g id="edge3" class="edge">
<title>Node3&#45;&gt;Node4</title>
<path fill="none" stroke="#63b8ff" d="M1966.05,-219.75C1961.94,-212.49 1955.97,-201.95 1950.9,-192.98"/>
<polygon fill="#63b8ff" stroke="#63b8ff" points="1953.83,-191.07 1945.86,-184.09 1947.74,-194.52 1953.83,-191.07"/>
</g>
<!-- Node11 -->
<g id="node11" class="node">
<title>Node11</title>
<g id="a_node11"><a xlink:title=" ">
<polygon fill="#e0e0e0" stroke="#999999" points="1798,-19 1742,-19 1742,0 1798,0 1798,-19"/>
<text text-anchor="middle" x="1770" y="-7" font-family="Helvetica,sans-Serif" font-size="10.00">sstream</text>
</a>
</g>
</g>
<!-- Node3&#45;&gt;Node11 -->
<g id="edge33" class="edge">
<title>Node3&#45;&gt;Node11</title>
<path fill="none" stroke="#63b8ff" d="M1977.37,-219.84C1983.26,-211.25 1991.61,-197.45 1995,-184 2005.66,-141.79 2011.84,-92.35 1976,-55 1923.43,-0.21 1883.2,-35.08 1809,-19 1808.67,-18.93 1808.34,-18.86 1808,-18.78"/>
<polygon fill="#63b8ff" stroke="#63b8ff" points="1808.63,-15.34 1798.12,-16.64 1807.15,-22.18 1808.63,-15.34"/>
</g>
<!-- Node13 -->
<g id="node13" class="node">
<title>Node13</title>
<g id="a_node13"><a xlink:title=" ">
<polygon fill="#e0e0e0" stroke="#999999" points="1742,-74 1698,-74 1698,-55 1742,-55 1742,-74"/>
<text text-anchor="middle" x="1720" y="-62" font-family="Helvetica,sans-Serif" font-size="10.00">string</text>
</a>
</g>
</g>
<!-- Node3&#45;&gt;Node13 -->
<g id="edge31" class="edge">
<title>Node3&#45;&gt;Node13</title>
<path fill="none" stroke="#63b8ff" d="M1900.24,-220.02C1801.95,-206.62 1631.97,-177.02 1595,-129 1589.85,-122.31 1590.13,-116.9 1595,-110 1600.59,-102.08 1652.9,-85.32 1688.06,-74.79"/>
<polygon fill="#63b8ff" stroke="#63b8ff" points="1689.32,-78.06 1697.91,-71.86 1687.32,-71.35 1689.32,-78.06"/>
</g>
<!-- Node21 -->
<g id="node21" class="node">
<title>Node21</title>
<g id="a_node21"><a xlink:title=" ">
<polygon fill="#e0e0e0" stroke="#999999" points="1966.5,-74 1919.5,-74 1919.5,-55 1966.5,-55 1966.5,-74"/>
<text text-anchor="middle" x="1943" y="-62" font-family="Helvetica,sans-Serif" font-size="10.00">vector</text>
</a>
</g>
</g>
<!-- Node3&#45;&gt;Node21 -->
<g id="edge32" class="edge">
<title>Node3&#45;&gt;Node21</title>
<path fill="none" stroke="#63b8ff" d="M1974.22,-219.85C1978.36,-207.6 1984.6,-184.54 1981,-165 1975.51,-135.25 1961.52,-102.89 1952.13,-83.4"/>
<polygon fill="#63b8ff" stroke="#63b8ff" points="1955.17,-81.64 1947.6,-74.24 1948.89,-84.75 1955.17,-81.64"/>
</g>
<!-- Node3&#45;&gt;Node22 -->
<g id="edge34" class="edge">
<title>Node3&#45;&gt;Node22</title>
<path fill="none" stroke="#63b8ff" d="M2032.52,-219.94C2075.89,-212.88 2134.94,-201.22 2185,-184 2205.43,-176.97 2257.21,-150.42 2288.6,-133.96"/>
<polygon fill="#63b8ff" stroke="#63b8ff" points="2290.41,-136.96 2297.63,-129.2 2287.15,-130.76 2290.41,-136.96"/>
</g>
<!-- Node4&#45;&gt;Node5 -->
<g id="edge4" class="edge">
<title>Node4&#45;&gt;Node5</title>
<path fill="none" stroke="#63b8ff" d="M1910.34,-171.54C1832.73,-166.39 1622.32,-151.36 1448,-129 1446.75,-128.84 1445.48,-128.67 1444.2,-128.5"/>
<polygon fill="#63b8ff" stroke="#63b8ff" points="1444.68,-125.03 1434.28,-127.04 1443.66,-131.95 1444.68,-125.03"/>
</g>
<!-- Node4&#45;&gt;Node13 -->
<g id="edge21" class="edge">
<title>Node4&#45;&gt;Node13</title>
<path fill="none" stroke="#63b8ff" d="M1910.35,-173.37C1870.88,-171.71 1801.91,-163.58 1756,-129 1741.16,-117.82 1731.51,-98.62 1725.97,-84.25"/>
<polygon fill="#63b8ff" stroke="#63b8ff" points="1729.13,-82.69 1722.52,-74.41 1722.53,-85.01 1729.13,-82.69"/>
</g>
<!-- Node17 -->
<g id="node17" class="node">
<title>Node17</title>
<g id="a_node17"><a xlink:href="Float_8hpp.html" target="_top" xlink:title=" ">
<polygon fill="white" stroke="#666666" points="2181.5,-74 2090.5,-74 2090.5,-55 2181.5,-55 2181.5,-74"/>
<text text-anchor="middle" x="2136" y="-62" font-family="Helvetica,sans-Serif" font-size="10.00">math/Float.hpp</text>
</a>
</g>
</g>
<!-- Node4&#45;&gt;Node17 -->
<g id="edge16" class="edge">
<title>Node4&#45;&gt;Node17</title>
<path fill="none" stroke="#63b8ff" d="M1956.63,-164.84C1990.51,-146.08 2070.96,-101.52 2111.61,-79.01"/>
<polygon fill="#63b8ff" stroke="#63b8ff" points="2113.52,-81.95 2120.57,-74.05 2110.12,-75.83 2113.52,-81.95"/>
</g>
<!-- Node4&#45;&gt;Node18 -->
<g id="edge18" class="edge">
<title>Node4&#45;&gt;Node18</title>
<path fill="none" stroke="#63b8ff" d="M1971.77,-166.02C2008.82,-157.01 2071.36,-141.81 2113.88,-131.47"/>
<polygon fill="#63b8ff" stroke="#63b8ff" points="2114.8,-134.85 2123.69,-129.08 2113.15,-128.05 2114.8,-134.85"/>
</g>
<!-- Node20 -->
<g id="node20" class="node">
<title>Node20</title>
<g id="a_node20"><a xlink:title=" ">
<polygon fill="#e0e0e0" stroke="#999999" points="1516,-74 1478,-74 1478,-55 1516,-55 1516,-74"/>
<text text-anchor="middle" x="1497" y="-62" font-family="Helvetica,sans-Serif" font-size="10.00">map</text>
</a>
</g>
</g>
<!-- Node4&#45;&gt;Node20 -->
<g id="edge22" class="edge">
<title>Node4&#45;&gt;Node20</title>
<path fill="none" stroke="#63b8ff" d="M1910.31,-174.05C1848.6,-174.19 1705.88,-169.65 1595,-129 1564.27,-117.73 1533.33,-95.43 1514.66,-80.48"/>
<polygon fill="#63b8ff" stroke="#63b8ff" points="1516.72,-77.64 1506.76,-74.01 1512.28,-83.05 1516.72,-77.64"/>
</g>
<!-- Node4&#45;&gt;Node21 -->
<g id="edge23" class="edge">
<title>Node4&#45;&gt;Node21</title>
<path fill="none" stroke="#63b8ff" d="M1941.16,-164.66C1941.49,-147.17 1942.22,-107.8 1942.65,-84.27"/>
<polygon fill="#63b8ff" stroke="#63b8ff" points="1946.15,-84.22 1942.84,-74.16 1939.16,-84.09 1946.15,-84.22"/>
</g>
<!-- Node4&#45;&gt;Node22 -->
<g id="edge24" class="edge">
<title>Node4&#45;&gt;Node22</title>
<path fill="none" stroke="#63b8ff" d="M1971.52,-169.16C2034.72,-160.18 2180.59,-139.46 2260.04,-128.17"/>
<polygon fill="#63b8ff" stroke="#63b8ff" points="2260.92,-131.58 2270.33,-126.71 2259.94,-124.65 2260.92,-131.58"/>
</g>
<!-- Node4&#45;&gt;Node25 -->
<g id="edge27" class="edge">
<title>Node4&#45;&gt;Node25</title>
<path fill="none" stroke="#63b8ff" d="M1910.23,-167.78C1862.81,-158.96 1771.16,-141.92 1711.83,-130.88"/>
<polygon fill="#63b8ff" stroke="#63b8ff" points="1712.34,-127.42 1701.87,-129.03 1711.06,-134.3 1712.34,-127.42"/>
</g>
<!-- Node6 -->
<g id="node6" class="node">
<title>Node6</title>
<g id="a_node6"><a xlink:href="Time_8hpp.html" target="_top" xlink:title=" ">
<polygon fill="white" stroke="#666666" points="1347.5,-74 1266.5,-74 1266.5,-55 1347.5,-55 1347.5,-74"/>
<text text-anchor="middle" x="1307" y="-62" font-family="Helvetica,sans-Serif" font-size="10.00">util/Time.hpp</text>
</a>
</g>
</g>
<!-- Node5&#45;&gt;Node6 -->
<g id="edge5" class="edge">
<title>Node5&#45;&gt;Node6</title>
<path fill="none" stroke="#63b8ff" d="M1382.54,-109.98C1368.58,-101.77 1347.21,-89.18 1330.75,-79.49"/>
<polygon fill="#63b8ff" stroke="#63b8ff" points="1332.12,-76.23 1321.72,-74.17 1328.56,-82.26 1332.12,-76.23"/>
</g>
<!-- Node5&#45;&gt;Node13 -->
<g id="edge12" class="edge">
<title>Node5&#45;&gt;Node13</title>
<path fill="none" stroke="#63b8ff" d="M1434.13,-114.25C1487.99,-107.77 1591.07,-94.23 1687.79,-74.04"/>
<polygon fill="#63b8ff" stroke="#63b8ff" points="1688.67,-77.44 1697.72,-71.94 1687.22,-70.59 1688.67,-77.44"/>
</g>
<!-- Node14 -->
<g id="node14" class="node">
<title>Node14</title>
<g id="a_node14"><a xlink:title=" ">
<polygon fill="#e0e0e0" stroke="#999999" points="1594,-74 1534,-74 1534,-55 1594,-55 1594,-74"/>
<text text-anchor="middle" x="1564" y="-62" font-family="Helvetica,sans-Serif" font-size="10.00">iostream</text>
</a>
</g>
</g>
<!-- Node5&#45;&gt;Node14 -->
<g id="edge13" class="edge">
<title>Node5&#45;&gt;Node14</title>
<path fill="none" stroke="#63b8ff" d="M1423.83,-109.98C1451.87,-101.09 1496.05,-87.07 1527.3,-77.15"/>
<polygon fill="#63b8ff" stroke="#63b8ff" points="1528.49,-80.44 1536.96,-74.08 1526.37,-73.77 1528.49,-80.44"/>
</g>
<!-- Node15 -->
<g id="node15" class="node">
<title>Node15</title>
<g id="a_node15"><a xlink:title=" ">
<polygon fill="#e0e0e0" stroke="#999999" points="1679.5,-74 1612.5,-74 1612.5,-55 1679.5,-55 1679.5,-74"/>
<text text-anchor="middle" x="1646" y="-62" font-family="Helvetica,sans-Serif" font-size="10.00">streambuf</text>
</a>
</g>
</g>
<!-- Node5&#45;&gt;Node15 -->
<g id="edge14" class="edge">
<title>Node5&#45;&gt;Node15</title>
<path fill="none" stroke="#63b8ff" d="M1434.01,-110.62C1478.94,-101.06 1554.62,-84.95 1602.35,-74.79"/>
<polygon fill="#63b8ff" stroke="#63b8ff" points="1603.33,-78.16 1612.38,-72.66 1601.87,-71.31 1603.33,-78.16"/>
</g>
<!-- Node16 -->
<g id="node16" class="node">
<title>Node16</title>
<g id="a_node16"><a xlink:title=" ">
<polygon fill="#e0e0e0" stroke="#999999" points="1459.5,-74 1404.5,-74 1404.5,-55 1459.5,-55 1459.5,-74"/>
<text text-anchor="middle" x="1432" y="-62" font-family="Helvetica,sans-Serif" font-size="10.00">fstream</text>
</a>
</g>
</g>
<!-- Node5&#45;&gt;Node16 -->
<g id="edge15" class="edge">
<title>Node5&#45;&gt;Node16</title>
<path fill="none" stroke="#63b8ff" d="M1402.78,-109.75C1407.62,-102.42 1414.68,-91.73 1420.64,-82.7"/>
<polygon fill="#63b8ff" stroke="#63b8ff" points="1423.74,-84.36 1426.33,-74.09 1417.9,-80.5 1423.74,-84.36"/>
</g>
<!-- Node7 -->
<g id="node7" class="node">
<title>Node7</title>
<g id="a_node7"><a xlink:title=" ">
<polygon fill="#e0e0e0" stroke="#999999" points="1329,-19 1285,-19 1285,0 1329,0 1329,-19"/>
<text text-anchor="middle" x="1307" y="-7" font-family="Helvetica,sans-Serif" font-size="10.00">ctime</text>
</a>
</g>
</g>
<!-- Node6&#45;&gt;Node7 -->
<g id="edge6" class="edge">
<title>Node6&#45;&gt;Node7</title>
<path fill="none" stroke="#63b8ff" d="M1307,-54.75C1307,-47.8 1307,-37.85 1307,-29.13"/>
<polygon fill="#63b8ff" stroke="#63b8ff" points="1310.5,-29.09 1307,-19.09 1303.5,-29.09 1310.5,-29.09"/>
</g>
<!-- Node8 -->
<g id="node8" class="node">
<title>Node8</title>
<g id="a_node8"><a xlink:title=" ">
<polygon fill="#e0e0e0" stroke="#999999" points="1263,-19 1213,-19 1213,0 1263,0 1263,-19"/>
<text text-anchor="middle" x="1238" y="-7" font-family="Helvetica,sans-Serif" font-size="10.00">cstdint</text>
</a>
</g>
</g>
<!-- Node6&#45;&gt;Node8 -->
<g id="edge7" class="edge">
<title>Node6&#45;&gt;Node8</title>
<path fill="none" stroke="#63b8ff" d="M1295.91,-54.98C1285.51,-47 1269.74,-34.88 1257.28,-25.31"/>
<polygon fill="#63b8ff" stroke="#63b8ff" points="1259.35,-22.49 1249.29,-19.17 1255.09,-28.04 1259.35,-22.49"/>
</g>
<!-- Node9 -->
<g id="node9" class="node">
<title>Node9</title>
<g id="a_node9"><a xlink:title=" ">
<polygon fill="#e0e0e0" stroke="#999999" points="1874.5,-19 1817.5,-19 1817.5,0 1874.5,0 1874.5,-19"/>
<text text-anchor="middle" x="1846" y="-7" font-family="Helvetica,sans-Serif" font-size="10.00">ostream</text>
</a>
</g>
</g>
<!-- Node6&#45;&gt;Node9 -->
<g id="edge8" class="edge">
<title>Node6&#45;&gt;Node9</title>
<path fill="none" stroke="#63b8ff" d="M1347.74,-59.49C1362.61,-58.04 1379.56,-56.42 1395,-55 1578.04,-38.16 1625.28,-46.63 1807,-19 1807.1,-18.98 1807.21,-18.97 1807.31,-18.95"/>
<polygon fill="#63b8ff" stroke="#63b8ff" points="1807.87,-22.41 1817.11,-17.23 1806.66,-15.51 1807.87,-22.41"/>
</g>
<!-- Node10 -->
<g id="node10" class="node">
<title>Node10</title>
<g id="a_node10"><a xlink:title=" ">
<polygon fill="#e0e0e0" stroke="#999999" points="957,-19 901,-19 901,0 957,0 957,-19"/>
<text text-anchor="middle" x="929" y="-7" font-family="Helvetica,sans-Serif" font-size="10.00">iomanip</text>
</a>
</g>
</g>
<!-- Node6&#45;&gt;Node10 -->
<g id="edge9" class="edge">
<title>Node6&#45;&gt;Node10</title>
<path fill="none" stroke="#63b8ff" d="M1266.19,-57.78C1192.68,-47.47 1039.02,-25.93 967.35,-15.88"/>
<polygon fill="#63b8ff" stroke="#63b8ff" points="967.77,-12.4 957.38,-14.48 966.8,-19.33 967.77,-12.4"/>
</g>
<!-- Node6&#45;&gt;Node11 -->
<g id="edge10" class="edge">
<title>Node6&#45;&gt;Node11</title>
<path fill="none" stroke="#63b8ff" d="M1347.52,-57.03C1352.39,-56.31 1357.31,-55.62 1362,-55 1497.67,-37.13 1659.41,-21.03 1731.74,-14.1"/>
<polygon fill="#63b8ff" stroke="#63b8ff" points="1732.13,-17.58 1741.75,-13.14 1731.47,-10.61 1732.13,-17.58"/>
</g>
<!-- Node12 -->
<g id="node12" class="node">
<title>Node12</title>
<g id="a_node12"><a xlink:title=" ">
<polygon fill="#e0e0e0" stroke="#999999" points="406.5,-19 359.5,-19 359.5,0 406.5,0 406.5,-19"/>
<text text-anchor="middle" x="383" y="-7" font-family="Helvetica,sans-Serif" font-size="10.00">cmath</text>
</a>
</g>
</g>
<!-- Node6&#45;&gt;Node12 -->
<g id="edge11" class="edge">
<title>Node6&#45;&gt;Node12</title>
<path fill="none" stroke="#63b8ff" d="M1266.4,-60.67C1241.47,-58.96 1208.89,-56.77 1180,-55 884.49,-36.86 527.15,-18.01 416.98,-12.26"/>
<polygon fill="#63b8ff" stroke="#63b8ff" points="416.97,-8.76 406.8,-11.73 416.61,-15.75 416.97,-8.76"/>
</g>
<!-- Node17&#45;&gt;Node9 -->
<g id="edge17" class="edge">
<title>Node17&#45;&gt;Node9</title>
<path fill="none" stroke="#63b8ff" d="M2090.37,-55.16C2033.69,-44.8 1937.99,-27.31 1884.73,-17.58"/>
<polygon fill="#63b8ff" stroke="#63b8ff" points="1885.13,-14.09 1874.66,-15.74 1883.87,-20.98 1885.13,-14.09"/>
</g>
<!-- Node18&#45;&gt;Node17 -->
<g id="edge19" class="edge">
<title>Node18&#45;&gt;Node17</title>
<path fill="none" stroke="#63b8ff" d="M2155.2,-109.75C2152.09,-102.57 2147.58,-92.18 2143.71,-83.27"/>
<polygon fill="#63b8ff" stroke="#63b8ff" points="2146.92,-81.87 2139.73,-74.09 2140.5,-84.66 2146.92,-81.87"/>
</g>
<!-- Node19 -->
<g id="node19" class="node">
<title>Node19</title>
<g id="a_node19"><a xlink:title=" ">
<polygon fill="#e0e0e0" stroke="#999999" points="2258.5,-74 2199.5,-74 2199.5,-55 2258.5,-55 2258.5,-74"/>
<text text-anchor="middle" x="2229" y="-62" font-family="Helvetica,sans-Serif" font-size="10.00">complex</text>
</a>
</g>
</g>
<!-- Node18&#45;&gt;Node19 -->
<g id="edge20" class="edge">
<title>Node18&#45;&gt;Node19</title>
<path fill="none" stroke="#63b8ff" d="M2170.25,-109.98C2180.8,-102 2196.8,-89.88 2209.44,-80.31"/>
<polygon fill="#63b8ff" stroke="#63b8ff" points="2211.69,-83 2217.55,-74.17 2207.46,-77.42 2211.69,-83"/>
</g>
<!-- Node23 -->
<g id="node23" class="node">
<title>Node23</title>
<g id="a_node23"><a xlink:href="CTF_8hpp.html" target="_top" xlink:title=" ">
<polygon fill="white" stroke="#666666" points="2351,-74 2277,-74 2277,-55 2351,-55 2351,-74"/>
<text text-anchor="middle" x="2314" y="-62" font-family="Helvetica,sans-Serif" font-size="10.00">util/CTF.hpp</text>
</a>
</g>
</g>
<!-- Node22&#45;&gt;Node23 -->
<g id="edge25" class="edge">
<title>Node22&#45;&gt;Node23</title>
<path fill="none" stroke="#63b8ff" d="M2314,-109.75C2314,-102.8 2314,-92.85 2314,-84.13"/>
<polygon fill="#63b8ff" stroke="#63b8ff" points="2317.5,-84.09 2314,-74.09 2310.5,-84.09 2317.5,-84.09"/>
</g>
<!-- Node24 -->
<g id="node24" class="node">
<title>Node24</title>
<g id="a_node24"><a xlink:title=" ">
<polygon fill="#e0e0e0" stroke="#999999" points="2339,-19 2289,-19 2289,0 2339,0 2339,-19"/>
<text text-anchor="middle" x="2314" y="-7" font-family="Helvetica,sans-Serif" font-size="10.00">ctf.hpp</text>
</a>
</g>
</g>
<!-- Node23&#45;&gt;Node24 -->
<g id="edge26" class="edge">
<title>Node23&#45;&gt;Node24</title>
<path fill="none" stroke="#63b8ff" d="M2314,-54.75C2314,-47.8 2314,-37.85 2314,-29.13"/>
<polygon fill="#63b8ff" stroke="#63b8ff" points="2317.5,-29.09 2314,-19.09 2310.5,-29.09 2317.5,-29.09"/>
</g>
<!-- Node25&#45;&gt;Node11 -->
<g id="edge29" class="edge">
<title>Node25&#45;&gt;Node11</title>
<path fill="none" stroke="#63b8ff" d="M1690.68,-109.95C1710.91,-103.3 1735.42,-92.07 1751,-74 1761.69,-61.61 1766.36,-43.39 1768.41,-29.65"/>
<polygon fill="#63b8ff" stroke="#63b8ff" points="1771.93,-29.71 1769.58,-19.37 1764.97,-28.91 1771.93,-29.71"/>
</g>
<!-- Node25&#45;&gt;Node13 -->
<g id="edge28" class="edge">
<title>Node25&#45;&gt;Node13</title>
<path fill="none" stroke="#63b8ff" d="M1666.28,-109.98C1675.84,-102.07 1690.28,-90.11 1701.78,-80.58"/>
<polygon fill="#63b8ff" stroke="#63b8ff" points="1704.06,-83.24 1709.53,-74.17 1699.6,-77.85 1704.06,-83.24"/>
</g>
<!-- Node25&#45;&gt;Node14 -->
<g id="edge30" class="edge">
<title>Node25&#45;&gt;Node14</title>
<path fill="none" stroke="#63b8ff" d="M1641.22,-109.98C1626.82,-101.69 1604.69,-88.94 1587.81,-79.22"/>
<polygon fill="#63b8ff" stroke="#63b8ff" points="1589.46,-76.13 1579.05,-74.17 1585.97,-82.19 1589.46,-76.13"/>
</g>
<!-- Node26&#45;&gt;Node18 -->
<g id="edge37" class="edge">
<title>Node26&#45;&gt;Node18</title>
<path fill="none" stroke="#63b8ff" d="M2283.22,-164.98C2258.77,-156.23 2220.47,-142.51 2192.85,-132.62"/>
<polygon fill="#63b8ff" stroke="#63b8ff" points="2193.81,-129.25 2183.21,-129.17 2191.45,-135.84 2193.81,-129.25"/>
</g>
<!-- Node26&#45;&gt;Node22 -->
<g id="edge38" class="edge">
<title>Node26&#45;&gt;Node22</title>
<path fill="none" stroke="#63b8ff" d="M2308.16,-164.75C2309.07,-157.8 2310.39,-147.85 2311.54,-139.13"/>
<polygon fill="#63b8ff" stroke="#63b8ff" points="2315.03,-139.46 2312.87,-129.09 2308.09,-138.54 2315.03,-139.46"/>
</g>
<!-- Node27&#45;&gt;Node5 -->
<g id="edge44" class="edge">
<title>Node27&#45;&gt;Node5</title>
<path fill="none" stroke="#63b8ff" d="M1535.49,-164.98C1507.79,-156.09 1464.14,-142.07 1433.26,-132.15"/>
<polygon fill="#63b8ff" stroke="#63b8ff" points="1434.31,-128.81 1423.72,-129.08 1432.17,-135.47 1434.31,-128.81"/>
</g>
<!-- Node27&#45;&gt;Node8 -->
<g id="edge45" class="edge">
<title>Node27&#45;&gt;Node8</title>
<path fill="none" stroke="#63b8ff" d="M1518.81,-168.53C1475.33,-162.57 1406.88,-150.58 1351,-129 1305.85,-111.56 1286.91,-112.06 1257,-74 1246.89,-61.14 1242.15,-42.97 1239.93,-29.36"/>
<polygon fill="#63b8ff" stroke="#63b8ff" points="1243.37,-28.68 1238.6,-19.22 1236.43,-29.59 1243.37,-28.68"/>
</g>
<!-- Node27&#45;&gt;Node13 -->
<g id="edge47" class="edge">
<title>Node27&#45;&gt;Node13</title>
<path fill="none" stroke="#63b8ff" d="M1558.96,-164.66C1555,-151.34 1549.89,-126 1562,-110 1562.49,-109.35 1641.93,-87.19 1687.96,-74.4"/>
<polygon fill="#63b8ff" stroke="#63b8ff" points="1689.09,-77.72 1697.79,-71.67 1687.21,-70.97 1689.09,-77.72"/>
</g>
<!-- Node27&#45;&gt;Node21 -->
<g id="edge46" class="edge">
<title>Node27&#45;&gt;Node21</title>
<path fill="none" stroke="#63b8ff" d="M1605.29,-172.51C1686.2,-169.93 1856.54,-160.77 1905,-129 1921.08,-118.46 1931.35,-98.54 1937.1,-83.81"/>
<polygon fill="#63b8ff" stroke="#63b8ff" points="1940.46,-84.8 1940.51,-74.21 1933.87,-82.46 1940.46,-84.8"/>
</g>
<!-- Node28 -->
<g id="node28" class="node">
<title>Node28</title>
<g id="a_node28"><a xlink:href="SourceLocation_8hpp.html" target="_top" xlink:title=" ">
<polygon fill="white" stroke="#666666" points="1895.5,-129 1764.5,-129 1764.5,-110 1895.5,-110 1895.5,-129"/>
<text text-anchor="middle" x="1830" y="-117" font-family="Helvetica,sans-Serif" font-size="10.00">util/SourceLocation.hpp</text>
</a>
</g>
</g>
<!-- Node27&#45;&gt;Node28 -->
<g id="edge40" class="edge">
<title>Node27&#45;&gt;Node28</title>
<path fill="none" stroke="#63b8ff" d="M1605.06,-164.98C1651.71,-155.76 1726.2,-141.03 1776.56,-131.07"/>
<polygon fill="#63b8ff" stroke="#63b8ff" points="1777.47,-134.46 1786.6,-129.08 1776.11,-127.59 1777.47,-134.46"/>
</g>
<!-- Node28&#45;&gt;Node9 -->
<g id="edge43" class="edge">
<title>Node28&#45;&gt;Node9</title>
<path fill="none" stroke="#63b8ff" d="M1831.31,-109.66C1833.9,-92.17 1839.73,-52.8 1843.22,-29.27"/>
<polygon fill="#63b8ff" stroke="#63b8ff" points="1846.71,-29.56 1844.72,-19.16 1839.79,-28.54 1846.71,-29.56"/>
</g>
<!-- Node28&#45;&gt;Node11 -->
<g id="edge42" class="edge">
<title>Node28&#45;&gt;Node11</title>
<path fill="none" stroke="#63b8ff" d="M1825.09,-109.66C1815.2,-91.85 1792.7,-51.37 1779.73,-28.01"/>
<polygon fill="#63b8ff" stroke="#63b8ff" points="1782.73,-26.2 1774.81,-19.16 1776.61,-29.6 1782.73,-26.2"/>
</g>
<!-- Node28&#45;&gt;Node13 -->
<g id="edge41" class="edge">
<title>Node28&#45;&gt;Node13</title>
<path fill="none" stroke="#63b8ff" d="M1812.33,-109.98C1794.71,-101.5 1767.42,-88.35 1747.07,-78.54"/>
<polygon fill="#63b8ff" stroke="#63b8ff" points="1748.52,-75.36 1737.99,-74.17 1745.48,-81.66 1748.52,-75.36"/>
</g>
<!-- Node29&#45;&gt;Node6 -->
<g id="edge51" class="edge">
<title>Node29&#45;&gt;Node6</title>
<path fill="none" stroke="#63b8ff" d="M1416.37,-219.83C1405.6,-211.43 1389.56,-197.96 1378,-184 1350.96,-151.35 1327.41,-107.3 1315.43,-83.15"/>
<polygon fill="#63b8ff" stroke="#63b8ff" points="1318.55,-81.57 1311.02,-74.11 1312.26,-84.64 1318.55,-81.57"/>
</g>
<!-- Node29&#45;&gt;Node23 -->
<g id="edge52" class="edge">
<title>Node29&#45;&gt;Node23</title>
<path fill="none" stroke="#63b8ff" d="M1461.23,-227.48C1547.47,-224.49 1785.35,-213.95 1981,-184 2090.03,-167.31 2122.12,-173.61 2223,-129 2251.01,-116.61 2279.33,-95.12 2296.77,-80.61"/>
<polygon fill="#63b8ff" stroke="#63b8ff" points="2299.05,-83.26 2304.41,-74.12 2294.52,-77.93 2299.05,-83.26"/>
</g>
<!-- Node30 -->
<g id="node30" class="node">
<title>Node30</title>
<g id="a_node30"><a xlink:href="Options_8hpp.html" target="_top" xlink:title=" ">
<polygon fill="white" stroke="#666666" points="1462.5,-184 1387.5,-184 1387.5,-165 1462.5,-165 1462.5,-184"/>
<text text-anchor="middle" x="1425" y="-172" font-family="Helvetica,sans-Serif" font-size="10.00">Options.hpp</text>
</a>
</g>
</g>
<!-- Node29&#45;&gt;Node30 -->
<g id="edge53" class="edge">
<title>Node29&#45;&gt;Node30</title>
<path fill="none" stroke="#63b8ff" d="M1427.5,-219.75C1427.11,-212.8 1426.55,-202.85 1426.05,-194.13"/>
<polygon fill="#63b8ff" stroke="#63b8ff" points="1429.55,-193.88 1425.49,-184.09 1422.56,-194.27 1429.55,-193.88"/>
</g>
<!-- Node30&#45;&gt;Node13 -->
<g id="edge54" class="edge">
<title>Node30&#45;&gt;Node13</title>
<path fill="none" stroke="#63b8ff" d="M1439.53,-164.8C1462.36,-151.44 1508.34,-125.76 1550,-110 1606.77,-88.52 1625.51,-90.2 1688.01,-74.19"/>
<polygon fill="#63b8ff" stroke="#63b8ff" points="1689.21,-77.49 1697.99,-71.58 1687.43,-70.72 1689.21,-77.49"/>
</g>
<!-- Node31 -->
<g id="node31" class="node">
<title>Node31</title>
<g id="a_node31"><a xlink:href="CLI11_8hpp.html" target="_top" xlink:title=" ">
<polygon fill="white" stroke="#666666" points="856.5,-129 757.5,-129 757.5,-110 856.5,-110 856.5,-129"/>
<text text-anchor="middle" x="807" y="-117" font-family="Helvetica,sans-Serif" font-size="10.00">extern/CLI11.hpp</text>
</a>
</g>
</g>
<!-- Node30&#45;&gt;Node31 -->
<g id="edge55" class="edge">
<title>Node30&#45;&gt;Node31</title>
<path fill="none" stroke="#63b8ff" d="M1387.27,-170.26C1283.53,-161.37 993.31,-136.48 867,-125.65"/>
<polygon fill="#63b8ff" stroke="#63b8ff" points="867.01,-122.13 856.75,-124.77 866.41,-129.11 867.01,-122.13"/>
</g>
<!-- Node31&#45;&gt;Node8 -->
<g id="edge69" class="edge">
<title>Node31&#45;&gt;Node8</title>
<path fill="none" stroke="#63b8ff" d="M856.56,-116.84C944.71,-113.2 1124.68,-102.43 1180,-74 1200.46,-63.49 1217.29,-42.64 1227.46,-27.69"/>
<polygon fill="#63b8ff" stroke="#63b8ff" points="1230.4,-29.59 1232.9,-19.3 1224.53,-25.79 1230.4,-29.59"/>
</g>
<!-- Node31&#45;&gt;Node10 -->
<g id="edge65" class="edge">
<title>Node31&#45;&gt;Node10</title>
<path fill="none" stroke="#63b8ff" d="M757.25,-117.58C640.66,-114.9 357.45,-105.23 329,-74 323.31,-67.76 323.25,-61.19 329,-55 367.16,-13.91 763.48,-10.44 890.24,-10.39"/>
<polygon fill="#63b8ff" stroke="#63b8ff" points="890.62,-13.89 900.62,-10.4 890.62,-6.89 890.62,-13.89"/>
</g>
<!-- Node31&#45;&gt;Node11 -->
<g id="edge67" class="edge">
<title>Node31&#45;&gt;Node11</title>
<path fill="none" stroke="#63b8ff" d="M856.67,-116.83C973.45,-112.53 1262.61,-99.56 1356,-74 1374.6,-68.91 1376.5,-60.43 1395,-55 1514.12,-20.01 1662.2,-12.43 1731.22,-10.86"/>
<polygon fill="#63b8ff" stroke="#63b8ff" points="1731.67,-14.35 1741.6,-10.66 1731.54,-7.36 1731.67,-14.35"/>
</g>
<!-- Node31&#45;&gt;Node12 -->
<g id="edge58" class="edge">
<title>Node31&#45;&gt;Node12</title>
<path fill="none" stroke="#63b8ff" d="M757.27,-118.87C613.21,-119.42 203.26,-117.14 163,-74 108.58,-15.69 274.59,-9.77 348.94,-9.94"/>
<polygon fill="#63b8ff" stroke="#63b8ff" points="349.19,-13.45 359.21,-10.01 349.23,-6.45 349.19,-13.45"/>
</g>
<!-- Node31&#45;&gt;Node13 -->
<g id="edge57" class="edge">
<title>Node31&#45;&gt;Node13</title>
<path fill="none" stroke="#63b8ff" d="M856.5,-117.42C1014.67,-113.74 1507.47,-100.54 1687.64,-73.79"/>
<polygon fill="#63b8ff" stroke="#63b8ff" points="1688.43,-77.21 1697.78,-72.21 1687.36,-70.29 1688.43,-77.21"/>
</g>
<!-- Node31&#45;&gt;Node14 -->
<g id="edge70" class="edge">
<title>Node31&#45;&gt;Node14</title>
<path fill="none" stroke="#63b8ff" d="M856.88,-118.02C972.5,-116.36 1267.82,-108.88 1523.62,-73.96"/>
<polygon fill="#63b8ff" stroke="#63b8ff" points="1524.42,-77.38 1533.85,-72.55 1523.46,-70.45 1524.42,-77.38"/>
</g>
<!-- Node31&#45;&gt;Node16 -->
<g id="edge62" class="edge">
<title>Node31&#45;&gt;Node16</title>
<path fill="none" stroke="#63b8ff" d="M856.74,-116.78C957.69,-112.82 1193.68,-101.25 1390,-74 1391.28,-73.82 1392.59,-73.63 1393.91,-73.42"/>
<polygon fill="#63b8ff" stroke="#63b8ff" points="1394.82,-76.82 1404.07,-71.65 1393.62,-69.92 1394.82,-76.82"/>
</g>
<!-- Node31&#45;&gt;Node20 -->
<g id="edge61" class="edge">
<title>Node31&#45;&gt;Node20</title>
<path fill="none" stroke="#63b8ff" d="M856.78,-118.83C967.55,-118.76 1242.38,-114.16 1468,-74 1468.1,-73.98 1468.2,-73.96 1468.3,-73.95"/>
<polygon fill="#63b8ff" stroke="#63b8ff" points="1468.83,-77.41 1477.8,-71.76 1467.27,-70.59 1468.83,-77.41"/>
</g>
<!-- Node31&#45;&gt;Node21 -->
<g id="edge75" class="edge">
<title>Node31&#45;&gt;Node21</title>
<path fill="none" stroke="#63b8ff" d="M856.54,-116.19C1049.2,-107.2 1745.85,-74.7 1908.76,-67.1"/>
<polygon fill="#63b8ff" stroke="#63b8ff" points="1909.3,-70.58 1919.13,-66.61 1908.98,-63.58 1909.3,-70.58"/>
</g>
<!-- Node32 -->
<g id="node32" class="node">
<title>Node32</title>
<g id="a_node32"><a xlink:title=" ">
<polygon fill="#e0e0e0" stroke="#999999" points="1088,-74 1030,-74 1030,-55 1088,-55 1088,-74"/>
<text text-anchor="middle" x="1059" y="-62" font-family="Helvetica,sans-Serif" font-size="10.00">memory</text>
</a>
</g>
</g>
<!-- Node31&#45;&gt;Node32 -->
<g id="edge56" class="edge">
<title>Node31&#45;&gt;Node32</title>
<path fill="none" stroke="#63b8ff" d="M848.87,-109.99C889.93,-101.6 954.58,-88.27 1019.9,-74.21"/>
<polygon fill="#63b8ff" stroke="#63b8ff" points="1020.93,-77.57 1029.96,-72.04 1019.45,-70.73 1020.93,-77.57"/>
</g>
<!-- Node33 -->
<g id="node33" class="node">
<title>Node33</title>
<g id="a_node33"><a xlink:title=" ">
<polygon fill="#e0e0e0" stroke="#999999" points="1171.5,-74 1106.5,-74 1106.5,-55 1171.5,-55 1171.5,-74"/>
<text text-anchor="middle" x="1139" y="-62" font-family="Helvetica,sans-Serif" font-size="10.00">functional</text>
</a>
</g>
</g>
<!-- Node31&#45;&gt;Node33 -->
<g id="edge59" class="edge">
<title>Node31&#45;&gt;Node33</title>
<path fill="none" stroke="#63b8ff" d="M856.64,-111.61C912.44,-103.71 1006.01,-89.97 1096.58,-74"/>
<polygon fill="#63b8ff" stroke="#63b8ff" points="1097.24,-77.44 1106.47,-72.24 1096.01,-70.54 1097.24,-77.44"/>
</g>
<!-- Node34 -->
<g id="node34" class="node">
<title>Node34</title>
<g id="a_node34"><a xlink:title=" ">
<polygon fill="#e0e0e0" stroke="#999999" points="56,-74 0,-74 0,-55 56,-55 56,-74"/>
<text text-anchor="middle" x="28" y="-62" font-family="Helvetica,sans-Serif" font-size="10.00">numeric</text>
</a>
</g>
</g>
<!-- Node31&#45;&gt;Node34 -->
<g id="edge60" class="edge">
<title>Node31&#45;&gt;Node34</title>
<path fill="none" stroke="#63b8ff" d="M757.22,-118.36C638.91,-117.41 331.6,-111.36 66.4,-73.94"/>
<polygon fill="#63b8ff" stroke="#63b8ff" points="66.59,-70.43 56.19,-72.48 65.6,-77.36 66.59,-70.43"/>
</g>
<!-- Node35 -->
<g id="node35" class="node">
<title>Node35</title>
<g id="a_node35"><a xlink:title=" ">
<polygon fill="#e0e0e0" stroke="#999999" points="115.5,-74 74.5,-74 74.5,-55 115.5,-55 115.5,-74"/>
<text text-anchor="middle" x="95" y="-62" font-family="Helvetica,sans-Serif" font-size="10.00">tuple</text>
</a>
</g>
</g>
<!-- Node31&#45;&gt;Node35 -->
<g id="edge63" class="edge">
<title>Node31&#45;&gt;Node35</title>
<path fill="none" stroke="#63b8ff" d="M757.42,-118.16C645.09,-116.76 362.86,-109.66 130,-74 128.53,-73.78 127.04,-73.52 125.53,-73.24"/>
<polygon fill="#63b8ff" stroke="#63b8ff" points="126.12,-69.79 115.61,-71.13 124.66,-76.63 126.12,-69.79"/>
</g>
<!-- Node36 -->
<g id="node36" class="node">
<title>Node36</title>
<g id="a_node36"><a xlink:title=" ">
<polygon fill="#e0e0e0" stroke="#999999" points="217.5,-74 172.5,-74 172.5,-55 217.5,-55 217.5,-74"/>
<text text-anchor="middle" x="195" y="-62" font-family="Helvetica,sans-Serif" font-size="10.00">utility</text>
</a>
</g>
</g>
<!-- Node31&#45;&gt;Node36 -->
<g id="edge64" class="edge">
<title>Node31&#45;&gt;Node36</title>
<path fill="none" stroke="#63b8ff" d="M757.36,-117.75C658.28,-115.58 428.95,-107.27 227.49,-73.72"/>
<polygon fill="#63b8ff" stroke="#63b8ff" points="228.06,-70.27 217.61,-72.05 226.89,-77.17 228.06,-70.27"/>
</g>
<!-- Node37 -->
<g id="node37" class="node">
<title>Node37</title>
<g id="a_node37"><a xlink:title=" ">
<polygon fill="#e0e0e0" stroke="#999999" points="282,-74 236,-74 236,-55 282,-55 282,-74"/>
<text text-anchor="middle" x="259" y="-62" font-family="Helvetica,sans-Serif" font-size="10.00">locale</text>
</a>
</g>
</g>
<!-- Node31&#45;&gt;Node37 -->
<g id="edge66" class="edge">
<title>Node31&#45;&gt;Node37</title>
<path fill="none" stroke="#63b8ff" d="M757.39,-116.47C665.77,-112.22 464.01,-100.48 296,-74 294.75,-73.8 293.49,-73.59 292.21,-73.36"/>
<polygon fill="#63b8ff" stroke="#63b8ff" points="292.89,-69.93 282.39,-71.39 291.51,-76.79 292.89,-69.93"/>
</g>
<!-- Node38 -->
<g id="node38" class="node">
<title>Node38</title>
<g id="a_node38"><a xlink:title=" ">
<polygon fill="#e0e0e0" stroke="#999999" points="402,-74 338,-74 338,-55 402,-55 402,-74"/>
<text text-anchor="middle" x="370" y="-62" font-family="Helvetica,sans-Serif" font-size="10.00">algorithm</text>
</a>
</g>
</g>
<!-- Node31&#45;&gt;Node38 -->
<g id="edge68" class="edge">
<title>Node31&#45;&gt;Node38</title>
<path fill="none" stroke="#63b8ff" d="M757.41,-114.41C684.13,-108.05 542.43,-94.49 412.32,-74.07"/>
<polygon fill="#63b8ff" stroke="#63b8ff" points="412.6,-70.57 402.18,-72.46 411.51,-77.49 412.6,-70.57"/>
</g>
<!-- Node39 -->
<g id="node39" class="node">
<title>Node39</title>
<g id="a_node39"><a xlink:title=" ">
<polygon fill="#e0e0e0" stroke="#999999" points="452,-74 420,-74 420,-55 452,-55 452,-74"/>
<text text-anchor="middle" x="436" y="-62" font-family="Helvetica,sans-Serif" font-size="10.00">set</text>
</a>
</g>
</g>
<!-- Node31&#45;&gt;Node39 -->
<g id="edge71" class="edge">
<title>Node31&#45;&gt;Node39</title>
<path fill="none" stroke="#63b8ff" d="M757.46,-115.25C691.77,-110.26 572.25,-98.81 461.96,-73.77"/>
<polygon fill="#63b8ff" stroke="#63b8ff" points="462.53,-70.31 452,-71.47 460.95,-77.13 462.53,-70.31"/>
</g>
<!-- Node40 -->
<g id="node40" class="node">
<title>Node40</title>
<g id="a_node40"><a xlink:title=" ">
<polygon fill="#e0e0e0" stroke="#999999" points="539.5,-74 470.5,-74 470.5,-55 539.5,-55 539.5,-74"/>
<text text-anchor="middle" x="505" y="-62" font-family="Helvetica,sans-Serif" font-size="10.00">type_traits</text>
</a>
</g>
</g>
<!-- Node31&#45;&gt;Node40 -->
<g id="edge72" class="edge">
<title>Node31&#45;&gt;Node40</title>
<path fill="none" stroke="#63b8ff" d="M757.28,-110.34C707.23,-102.03 627.55,-88.59 549.7,-74.28"/>
<polygon fill="#63b8ff" stroke="#63b8ff" points="550.19,-70.81 539.72,-72.44 548.92,-77.7 550.19,-70.81"/>
</g>
<!-- Node41 -->
<g id="node41" class="node">
<title>Node41</title>
<g id="a_node41"><a xlink:title=" ">
<polygon fill="#e0e0e0" stroke="#999999" points="610.5,-74 557.5,-74 557.5,-55 610.5,-55 610.5,-74"/>
<text text-anchor="middle" x="584" y="-62" font-family="Helvetica,sans-Serif" font-size="10.00">iterator</text>
</a>
</g>
</g>
<!-- Node31&#45;&gt;Node41 -->
<g id="edge73" class="edge">
<title>Node31&#45;&gt;Node41</title>
<path fill="none" stroke="#63b8ff" d="M770.59,-109.95C734.78,-101.52 678.28,-88.19 620.74,-74.41"/>
<polygon fill="#63b8ff" stroke="#63b8ff" points="621.29,-70.94 610.75,-72.01 619.66,-77.75 621.29,-70.94"/>
</g>
<!-- Node42 -->
<g id="node42" class="node">
<title>Node42</title>
<g id="a_node42"><a xlink:title=" ">
<polygon fill="#e0e0e0" stroke="#999999" points="693.5,-74 628.5,-74 628.5,-55 693.5,-55 693.5,-74"/>
<text text-anchor="middle" x="661" y="-62" font-family="Helvetica,sans-Serif" font-size="10.00">stdexcept</text>
</a>
</g>
</g>
<!-- Node31&#45;&gt;Node42 -->
<g id="edge74" class="edge">
<title>Node31&#45;&gt;Node42</title>
<path fill="none" stroke="#63b8ff" d="M783.54,-109.98C759.42,-101.23 721.63,-87.51 694.4,-77.62"/>
<polygon fill="#63b8ff" stroke="#63b8ff" points="695.48,-74.29 684.88,-74.17 693.09,-80.87 695.48,-74.29"/>
</g>
<!-- Node43 -->
<g id="node43" class="node">
<title>Node43</title>
<g id="a_node43"><a xlink:title=" ">
<polygon fill="#e0e0e0" stroke="#999999" points="756,-74 712,-74 712,-55 756,-55 756,-74"/>
<text text-anchor="middle" x="734" y="-62" font-family="Helvetica,sans-Serif" font-size="10.00">limits</text>
</a>
</g>
</g>
<!-- Node31&#45;&gt;Node43 -->
<g id="edge76" class="edge">
<title>Node31&#45;&gt;Node43</title>
<path fill="none" stroke="#63b8ff" d="M795.27,-109.98C784.27,-102 767.58,-89.88 754.4,-80.31"/>
<polygon fill="#63b8ff" stroke="#63b8ff" points="756.09,-77.21 745.94,-74.17 751.98,-82.88 756.09,-77.21"/>
</g>
<!-- Node44 -->
<g id="node44" class="node">
<title>Node44</title>
<g id="a_node44"><a xlink:title=" ">
<polygon fill="#e0e0e0" stroke="#999999" points="839.5,-74 774.5,-74 774.5,-55 839.5,-55 839.5,-74"/>
<text text-anchor="middle" x="807" y="-62" font-family="Helvetica,sans-Serif" font-size="10.00">exception</text>
</a>
</g>
</g>
<!-- Node31&#45;&gt;Node44 -->
<g id="edge77" class="edge">
<title>Node31&#45;&gt;Node44</title>
<path fill="none" stroke="#63b8ff" d="M807,-109.75C807,-102.8 807,-92.85 807,-84.13"/>
<polygon fill="#63b8ff" stroke="#63b8ff" points="810.5,-84.09 807,-74.09 803.5,-84.09 810.5,-84.09"/>
</g>
<!-- Node45 -->
<g id="node45" class="node">
<title>Node45</title>
<g id="a_node45"><a xlink:title=" ">
<polygon fill="#e0e0e0" stroke="#999999" points="922,-74 858,-74 858,-55 922,-55 922,-74"/>
<text text-anchor="middle" x="890" y="-62" font-family="Helvetica,sans-Serif" font-size="10.00">sys/stat.h</text>
</a>
</g>
</g>
<!-- Node31&#45;&gt;Node45 -->
<g id="edge78" class="edge">
<title>Node31&#45;&gt;Node45</title>
<path fill="none" stroke="#63b8ff" d="M820.34,-109.98C833.09,-101.84 852.55,-89.41 867.67,-79.76"/>
<polygon fill="#63b8ff" stroke="#63b8ff" points="869.88,-82.5 876.42,-74.17 866.11,-76.6 869.88,-82.5"/>
</g>
<!-- Node46 -->
<g id="node46" class="node">
<title>Node46</title>
<g id="a_node46"><a xlink:title=" ">
<polygon fill="#e0e0e0" stroke="#999999" points="1012,-74 940,-74 940,-55 1012,-55 1012,-74"/>
<text text-anchor="middle" x="976" y="-62" font-family="Helvetica,sans-Serif" font-size="10.00">sys/types.h</text>
</a>
</g>
</g>
<!-- Node31&#45;&gt;Node46 -->
<g id="edge79" class="edge">
<title>Node31&#45;&gt;Node46</title>
<path fill="none" stroke="#63b8ff" d="M834.15,-109.98C862.53,-101.09 907.23,-87.07 938.86,-77.15"/>
<polygon fill="#63b8ff" stroke="#63b8ff" points="940.14,-80.41 948.63,-74.08 938.05,-73.73 940.14,-80.41"/>
</g>
</g>
</svg>
