<?xml version="1.0" encoding="UTF-8" standalone="no"?>
<!DOCTYPE svg PUBLIC "-//W3C//DTD SVG 1.1//EN"
 "http://www.w3.org/Graphics/SVG/1.1/DTD/svg11.dtd">
<!-- Generated by graphviz version 8.1.0 (0)
 -->
<!-- Title: CLI::detail::type_count&lt; T, typename std::enable_if&lt; is_complex&lt; T &gt;::value &gt;::type &gt; Pages: 1 -->
<svg width="158pt" height="99pt"
 viewBox="0.00 0.00 158.00 99.00" xmlns="http://www.w3.org/2000/svg" xmlns:xlink="http://www.w3.org/1999/xlink">
<g id="graph0" class="graph" transform="scale(1 1) rotate(0) translate(4 95)">
<title>CLI::detail::type_count&lt; T, typename std::enable_if&lt; is_complex&lt; T &gt;::value &gt;::type &gt;</title>
<!-- Node1 -->
<g id="Node000001" class="node">
<title>Node1</title>
<g id="a_Node000001"><a xlink:title="Type size for complex since it sometimes looks like a wrapper.">
<polygon fill="#999999" stroke="none" points="150,-91 0,-91 0,0 150,0 150,-91"/>
<text text-anchor="start" x="4.88" y="-77.5" font-family="Helvetica,sans-Serif" font-size="10.00">CLI::detail::type_count</text>
<text text-anchor="start" x="4.88" y="-64.75" font-family="Helvetica,sans-Serif" font-size="10.00">&lt; T, typename std::enable</text>
<text text-anchor="start" x="4.88" y="-52" font-family="Helvetica,sans-Serif" font-size="10.00">_if&lt; is_complex&lt; T &gt;::value</text>
<text text-anchor="start" x="49.88" y="-39.25" font-family="Helvetica,sans-Serif" font-size="10.00"> &gt;::type &gt;</text>
<text text-anchor="start" x="29.38" y="-22.5" font-family="Helvetica,sans-Serif" font-size="10.00">+</text>
<text text-anchor="start" x="67" y="-22.5" font-family="Helvetica,sans-Serif" font-size="10.00">value</text>
<text text-anchor="start" x="73.5" y="-6.5" font-family="Helvetica,sans-Serif" font-size="10.00"> </text>
<polygon fill="#666666" stroke="#666666" points="0,-34 0,-34 150,-34 150,-34 0,-34"/>
<polygon fill="#666666" stroke="#666666" points="0,-18 0,-18 65,-18 65,-18 0,-18"/>
<polygon fill="#666666" stroke="#666666" points="65,-18 65,-18 150,-18 150,-18 65,-18"/>
<polygon fill="none" stroke="#666666" points="0,0 0,-91 150,-91 150,0 0,0"/>
</a>
</g>
</g>
</g>
</svg>
