<?xml version="1.0" encoding="UTF-8" standalone="no"?>
<!DOCTYPE svg PUBLIC "-//W3C//DTD SVG 1.1//EN"
 "http://www.w3.org/Graphics/SVG/1.1/DTD/svg11.dtd">
<!-- Generated by graphviz version 5.0.1 (0)
 -->
<!-- Title: nwchem::BasisSetParser::parseFile Pages: 1 -->
<svg width="488pt" height="83pt"
 viewBox="0.00 0.00 488.00 83.00" xmlns="http://www.w3.org/2000/svg" xmlns:xlink="http://www.w3.org/1999/xlink">
<g id="graph0" class="graph" transform="scale(1 1) rotate(0) translate(4 79)">
<title>nwchem::BasisSetParser::parseFile</title>
<!-- Node1 -->
<g id="node1" class="node">
<title>Node1</title>
<g id="a_node1"><a xlink:title=" ">
<polygon fill="#bfbfbf" stroke="black" points="0,-22.5 0,-52.5 136,-52.5 136,-22.5 0,-22.5"/>
<text text-anchor="start" x="8" y="-40.5" font-family="Helvetica,sans-Serif" font-size="10.00">nwchem::BasisSetParser</text>
<text text-anchor="middle" x="68" y="-29.5" font-family="Helvetica,sans-Serif" font-size="10.00">::parseFile</text>
</a>
</g>
</g>
<!-- Node2 -->
<g id="node2" class="node">
<title>Node2</title>
<g id="a_node2"><a xlink:href="structnwchem_1_1BasisSetParser.html#a897f82a03eca6f0768e6fee1da071dc5" target="_top" xlink:title=" ">
<polygon fill="none" stroke="black" points="344,-44.5 344,-74.5 480,-74.5 480,-44.5 344,-44.5"/>
<text text-anchor="start" x="352" y="-62.5" font-family="Helvetica,sans-Serif" font-size="10.00">nwchem::BasisSetParser</text>
<text text-anchor="middle" x="412" y="-51.5" font-family="Helvetica,sans-Serif" font-size="10.00">::matches</text>
</a>
</g>
</g>
<!-- Node1&#45;&gt;Node2 -->
<g id="edge1" class="edge">
<title>Node1&#45;&gt;Node2</title>
<path fill="none" stroke="midnightblue" d="M136.16,-41.82C192.98,-45.48 274.43,-50.71 333.9,-54.54"/>
<polygon fill="midnightblue" stroke="midnightblue" points="333.79,-58.04 343.99,-55.19 334.24,-51.05 333.79,-58.04"/>
</g>
<!-- Node3 -->
<g id="node3" class="node">
<title>Node3</title>
<g id="a_node3"><a xlink:href="structnwchem_1_1BasisSetParser.html#abdc326c61770f5a0554e09c676496cab" target="_top" xlink:title=" ">
<polygon fill="none" stroke="black" points="172,-0.5 172,-30.5 308,-30.5 308,-0.5 172,-0.5"/>
<text text-anchor="start" x="180" y="-18.5" font-family="Helvetica,sans-Serif" font-size="10.00">nwchem::BasisSetParser</text>
<text text-anchor="middle" x="240" y="-7.5" font-family="Helvetica,sans-Serif" font-size="10.00">::parseBasis</text>
</a>
</g>
</g>
<!-- Node1&#45;&gt;Node3 -->
<g id="edge2" class="edge">
<title>Node1&#45;&gt;Node3</title>
<path fill="none" stroke="midnightblue" d="M136.19,-28.81C144.59,-27.72 153.24,-26.6 161.78,-25.49"/>
<polygon fill="midnightblue" stroke="midnightblue" points="162.27,-28.96 171.74,-24.2 161.38,-22.02 162.27,-28.96"/>
</g>
<!-- Node3&#45;&gt;Node2 -->
<g id="edge4" class="edge">
<title>Node3&#45;&gt;Node2</title>
<path fill="none" stroke="midnightblue" d="M299.03,-30.52C313.17,-34.18 328.43,-38.13 342.99,-41.9"/>
<polygon fill="midnightblue" stroke="midnightblue" points="342.39,-45.36 352.94,-44.47 344.14,-38.58 342.39,-45.36"/>
</g>
<!-- Node4 -->
<g id="node4" class="node">
<title>Node4</title>
<g id="a_node4"><a xlink:href="namespaceam.html#ac6b40085587bff5481ac689700436e24" target="_top" xlink:title=" ">
<polygon fill="none" stroke="black" points="367,-6 367,-25 457,-25 457,-6 367,-6"/>
<text text-anchor="middle" x="412" y="-13" font-family="Helvetica,sans-Serif" font-size="10.00">am::fromString</text>
</a>
</g>
</g>
<!-- Node3&#45;&gt;Node4 -->
<g id="edge3" class="edge">
<title>Node3&#45;&gt;Node4</title>
<path fill="none" stroke="midnightblue" d="M308.19,-15.5C324.25,-15.5 341.2,-15.5 356.6,-15.5"/>
<polygon fill="midnightblue" stroke="midnightblue" points="356.99,-19 366.99,-15.5 356.99,-12 356.99,-19"/>
</g>
</g>
</svg>
