<?xml version="1.0" encoding="UTF-8" standalone="no"?>
<!DOCTYPE svg PUBLIC "-//W3C//DTD SVG 1.1//EN"
 "http://www.w3.org/Graphics/SVG/1.1/DTD/svg11.dtd">
<!-- Generated by graphviz version 5.0.1 (0)
 -->
<!-- Title: sisi4s::TensorReduceijij Pages: 1 -->
<svg width="468pt" height="580pt"
 viewBox="0.00 0.00 468.00 580.00" xmlns="http://www.w3.org/2000/svg" xmlns:xlink="http://www.w3.org/1999/xlink">
<g id="graph0" class="graph" transform="scale(1 1) rotate(0) translate(4 576)">
<title>sisi4s::TensorReduceijij</title>
<!-- Node1 -->
<g id="node1" class="node">
<title>Node1</title>
<g id="a_node1"><a xlink:title=" ">
<polygon fill="#bfbfbf" stroke="black" points="41,-0.5 41,-90.5 171,-90.5 171,-0.5 41,-0.5"/>
<text text-anchor="middle" x="106" y="-78.5" font-family="Helvetica,sans-Serif" font-size="10.00">sisi4s::TensorReduceijij</text>
<polyline fill="none" stroke="black" points="41,-71.5 171,-71.5"/>
<text text-anchor="middle" x="106" y="-59.5" font-family="Helvetica,sans-Serif" font-size="10.00"> </text>
<polyline fill="none" stroke="black" points="41,-52.5 171,-52.5"/>
<text text-anchor="start" x="49" y="-40.5" font-family="Helvetica,sans-Serif" font-size="10.00">+ getName()</text>
<text text-anchor="start" x="49" y="-29.5" font-family="Helvetica,sans-Serif" font-size="10.00">+ TensorReduceijij()</text>
<text text-anchor="start" x="49" y="-18.5" font-family="Helvetica,sans-Serif" font-size="10.00">+ ~TensorReduceijij()</text>
<text text-anchor="start" x="49" y="-7.5" font-family="Helvetica,sans-Serif" font-size="10.00">+ run()</text>
</a>
</g>
</g>
<!-- Node2 -->
<g id="node2" class="node">
<title>Node2</title>
<g id="a_node2"><a xlink:href="classsisi4s_1_1Algorithm.html" target="_top" xlink:title=" ">
<polygon fill="none" stroke="black" points="0,-138.5 0,-349.5 180,-349.5 180,-138.5 0,-138.5"/>
<text text-anchor="middle" x="90" y="-337.5" font-family="Helvetica,sans-Serif" font-size="10.00">sisi4s::Algorithm</text>
<polyline fill="none" stroke="black" points="0,-330.5 180,-330.5"/>
<text text-anchor="start" x="8" y="-318.5" font-family="Helvetica,sans-Serif" font-size="10.00"># arguments</text>
<polyline fill="none" stroke="black" points="0,-311.5 180,-311.5"/>
<text text-anchor="start" x="8" y="-299.5" font-family="Helvetica,sans-Serif" font-size="10.00">+ Algorithm()</text>
<text text-anchor="start" x="8" y="-288.5" font-family="Helvetica,sans-Serif" font-size="10.00">+ ~Algorithm()</text>
<text text-anchor="start" x="8" y="-277.5" font-family="Helvetica,sans-Serif" font-size="10.00">+ getName()</text>
<text text-anchor="start" x="8" y="-266.5" font-family="Helvetica,sans-Serif" font-size="10.00">+ run()</text>
<text text-anchor="start" x="8" y="-255.5" font-family="Helvetica,sans-Serif" font-size="10.00">+ dryRun()</text>
<text text-anchor="start" x="8" y="-244.5" font-family="Helvetica,sans-Serif" font-size="10.00">+ isArgumentGiven()</text>
<text text-anchor="start" x="8" y="-233.5" font-family="Helvetica,sans-Serif" font-size="10.00">+ getTextArgument()</text>
<text text-anchor="start" x="8" y="-222.5" font-family="Helvetica,sans-Serif" font-size="10.00">+ getTextArgument()</text>
<text text-anchor="start" x="8" y="-211.5" font-family="Helvetica,sans-Serif" font-size="10.00">+ getBooleanArgument()</text>
<text text-anchor="start" x="8" y="-200.5" font-family="Helvetica,sans-Serif" font-size="10.00">+ getBooleanArgument()</text>
<text text-anchor="start" x="8" y="-189.5" font-family="Helvetica,sans-Serif" font-size="10.00">and 12 more...</text>
<text text-anchor="start" x="8" y="-178.5" font-family="Helvetica,sans-Serif" font-size="10.00"># getRealArgumentFromInteger()</text>
<text text-anchor="start" x="8" y="-167.5" font-family="Helvetica,sans-Serif" font-size="10.00"># getRealArgumentFromTensor()</text>
<text text-anchor="start" x="8" y="-156.5" font-family="Helvetica,sans-Serif" font-size="10.00"># getTensorArgumentFromReal()</text>
<text text-anchor="start" x="8" y="-145.5" font-family="Helvetica,sans-Serif" font-size="10.00"># getArgumentData()</text>
</a>
</g>
</g>
<!-- Node2&#45;&gt;Node1 -->
<g id="edge1" class="edge">
<title>Node2&#45;&gt;Node1</title>
<path fill="none" stroke="midnightblue" d="M99.35,-128.19C100.43,-114.9 101.48,-102.02 102.41,-90.58"/>
<polygon fill="none" stroke="midnightblue" points="95.84,-128.17 98.52,-138.42 102.82,-128.74 95.84,-128.17"/>
</g>
<!-- Node3 -->
<g id="node3" class="node">
<title>Node3</title>
<g id="a_node3"><a xlink:href="classsisi4s_1_1AlgorithmRegistrar.html" target="_top" xlink:title=" ">
<polygon fill="none" stroke="black" points="198,-210 198,-278 350,-278 350,-210 198,-210"/>
<text text-anchor="start" x="206" y="-266" font-family="Helvetica,sans-Serif" font-size="10.00">sisi4s::AlgorithmRegistrar</text>
<text text-anchor="middle" x="274" y="-255" font-family="Helvetica,sans-Serif" font-size="10.00">&lt; sisi4s::TensorReduceijij &gt;</text>
<polyline fill="none" stroke="black" points="198,-248 350,-248"/>
<text text-anchor="middle" x="274" y="-236" font-family="Helvetica,sans-Serif" font-size="10.00"> </text>
<polyline fill="none" stroke="black" points="198,-229 350,-229"/>
<text text-anchor="start" x="206" y="-217" font-family="Helvetica,sans-Serif" font-size="10.00">+ AlgorithmRegistrar()</text>
</a>
</g>
</g>
<!-- Node3&#45;&gt;Node1 -->
<g id="edge2" class="edge">
<title>Node3&#45;&gt;Node1</title>
<path fill="none" stroke="#404040" d="M248.05,-209.98C231.45,-189.1 209.3,-161.68 189,-138 178.22,-125.42 166.38,-112.1 155.12,-99.63"/>
<polygon fill="none" stroke="#404040" points="155.1,-99.62 148.11,-97.86 147.04,-90.73 154.03,-92.48 155.1,-99.62"/>
<text text-anchor="middle" x="201" y="-112" font-family="Helvetica,sans-Serif" font-size="10.00"> +registrar_</text>
</g>
<!-- Node4 -->
<g id="node4" class="node">
<title>Node4</title>
<g id="a_node4"><a xlink:href="classsisi4s_1_1AlgorithmFactory.html" target="_top" xlink:title=" ">
<polygon fill="none" stroke="black" points="186,-503.5 186,-571.5 320,-571.5 320,-503.5 186,-503.5"/>
<text text-anchor="middle" x="253" y="-559.5" font-family="Helvetica,sans-Serif" font-size="10.00">sisi4s::AlgorithmFactory</text>
<polyline fill="none" stroke="black" points="186,-552.5 320,-552.5"/>
<text text-anchor="start" x="194" y="-540.5" font-family="Helvetica,sans-Serif" font-size="10.00"># algorithmMap</text>
<polyline fill="none" stroke="black" points="186,-533.5 320,-533.5"/>
<text text-anchor="start" x="194" y="-521.5" font-family="Helvetica,sans-Serif" font-size="10.00">+ create()</text>
<text text-anchor="start" x="194" y="-510.5" font-family="Helvetica,sans-Serif" font-size="10.00"># getAlgorithmMap()</text>
</a>
</g>
</g>
<!-- Node4&#45;&gt;Node3 -->
<g id="edge3" class="edge">
<title>Node4&#45;&gt;Node3</title>
<path fill="none" stroke="darkgreen" d="M254.7,-493.39C255.9,-465.81 257.7,-429.28 260,-397 262.91,-356.03 267.43,-308.95 270.54,-278.18"/>
<polygon fill="none" stroke="darkgreen" points="251.2,-493.36 254.27,-503.5 258.19,-493.66 251.2,-493.36"/>
</g>
<!-- Node5 -->
<g id="node5" class="node">
<title>Node5</title>
<g id="a_node5"><a xlink:href="classsisi4s_1_1AlgorithmRegistrar.html" target="_top" xlink:title="Class to be statically instantiated by an algorithm to register it in the AlgorithmFactory....">
<polygon fill="none" stroke="black" points="269.5,-397.5 269.5,-465.5 412.5,-465.5 412.5,-397.5 269.5,-397.5"/>
<text text-anchor="start" x="277.5" y="-453.5" font-family="Helvetica,sans-Serif" font-size="10.00">sisi4s::AlgorithmRegistrar</text>
<text text-anchor="middle" x="341" y="-442.5" font-family="Helvetica,sans-Serif" font-size="10.00">&lt; AlgorithmType &gt;</text>
<polyline fill="none" stroke="black" points="269.5,-435.5 412.5,-435.5"/>
<text text-anchor="middle" x="341" y="-423.5" font-family="Helvetica,sans-Serif" font-size="10.00"> </text>
<polyline fill="none" stroke="black" points="269.5,-416.5 412.5,-416.5"/>
<text text-anchor="start" x="277.5" y="-404.5" font-family="Helvetica,sans-Serif" font-size="10.00">+ AlgorithmRegistrar()</text>
</a>
</g>
</g>
<!-- Node4&#45;&gt;Node5 -->
<g id="edge5" class="edge">
<title>Node4&#45;&gt;Node5</title>
<path fill="none" stroke="darkgreen" d="M287.67,-495.53C296.03,-485.65 304.86,-475.21 312.88,-465.73"/>
<polygon fill="none" stroke="darkgreen" points="284.87,-493.41 281.09,-503.31 290.22,-497.93 284.87,-493.41"/>
</g>
<!-- Node5&#45;&gt;Node3 -->
<g id="edge4" class="edge">
<title>Node5&#45;&gt;Node3</title>
<path fill="none" stroke="orange" d="M325.6,-387.85C313.55,-354.51 297.06,-308.83 285.99,-278.19"/>
<polygon fill="orange" stroke="orange" points="322.33,-389.12 329.02,-397.34 328.92,-386.74 322.33,-389.12"/>
<text text-anchor="middle" x="390.5" y="-371" font-family="Helvetica,sans-Serif" font-size="10.00"> &lt; sisi4s::TensorReduceijij &gt;</text>
</g>
</g>
</svg>
