<?xml version="1.0" encoding="UTF-8" standalone="no"?>
<!DOCTYPE svg PUBLIC "-//W3C//DTD SVG 1.1//EN"
 "http://www.w3.org/Graphics/SVG/1.1/DTD/svg11.dtd">
<!-- Generated by graphviz version 9.0.0 (0)
 -->
<!-- Title: sisi4s::Options::parse Pages: 1 -->
<svg width="205pt" height="47pt"
 viewBox="0.00 0.00 205.00 46.75" xmlns="http://www.w3.org/2000/svg" xmlns:xlink="http://www.w3.org/1999/xlink">
<g id="graph0" class="graph" transform="scale(1 1) rotate(0) translate(4 42.75)">
<title>sisi4s::Options::parse</title>
<!-- Node1 -->
<g id="Node000001" class="node">
<title>Node1</title>
<g id="a_Node000001"><a xlink:title=" ">
<polygon fill="#999999" stroke="#666666" points="197,-20.75 76.75,-20.75 76.75,0 197,0 197,-20.75"/>
<text text-anchor="middle" x="136.88" y="-7.25" font-family="Helvetica,sans-Serif" font-size="10.00">sisi4s::Options::parse</text>
</a>
</g>
</g>
<!-- Node1&#45;&gt;Node1 -->
<g id="edge2_Node000001_Node000001" class="edge">
<title>Node1&#45;&gt;Node1</title>
<g id="a_edge2_Node000001_Node000001"><a xlink:title=" ">
<path fill="none" stroke="#63b8ff" d="M157.13,-32.56C154.26,-36.23 147.51,-38.75 136.88,-38.75 116.85,-38.75 110.59,-29.81 118.1,-21.15"/>
<polygon fill="#63b8ff" stroke="#63b8ff" points="160.6,-32.11 155.84,-22.65 153.66,-33.02 160.6,-32.11"/>
</a>
</g>
</g>
<!-- Node2 -->
<g id="Node000002" class="node">
<title>Node2</title>
<g id="a_Node000002"><a xlink:href="Sisi4s_8cxx.html#a599af1d1867ff8a4fa0cf7be6fe311c8" target="_top" xlink:title=" ">
<polygon fill="white" stroke="#666666" points="40.75,-20.75 0,-20.75 0,0 40.75,0 40.75,-20.75"/>
<text text-anchor="middle" x="20.38" y="-7.25" font-family="Helvetica,sans-Serif" font-size="10.00">main</text>
</a>
</g>
</g>
<!-- Node1&#45;&gt;Node2 -->
<g id="edge1_Node000001_Node000002" class="edge">
<title>Node1&#45;&gt;Node2</title>
<g id="a_edge1_Node000001_Node000002"><a xlink:title=" ">
<path fill="none" stroke="#63b8ff" d="M64.77,-10.38C56.16,-10.38 47.99,-10.38 41.11,-10.38"/>
<polygon fill="#63b8ff" stroke="#63b8ff" points="64.76,-13.88 74.76,-10.38 64.76,-6.88 64.76,-13.88"/>
</a>
</g>
</g>
</g>
</svg>
