<?xml version="1.0" encoding="UTF-8" standalone="no"?>
<!DOCTYPE svg PUBLIC "-//W3C//DTD SVG 1.1//EN"
 "http://www.w3.org/Graphics/SVG/1.1/DTD/svg11.dtd">
<!-- Generated by graphviz version 8.1.0 (0)
 -->
<!-- Title: sisi4s::NaturalTransitionOrbitalsFromRhoAI::run Pages: 1 -->
<svg width="545pt" height="80pt"
 viewBox="0.00 0.00 545.00 80.12" xmlns="http://www.w3.org/2000/svg" xmlns:xlink="http://www.w3.org/1999/xlink">
<g id="graph0" class="graph" transform="scale(1 1) rotate(0) translate(4 76.12)">
<title>sisi4s::NaturalTransitionOrbitalsFromRhoAI::run</title>
<!-- Node1 -->
<g id="Node000001" class="node">
<title>Node1</title>
<g id="a_Node000001"><a xlink:title=" ">
<polygon fill="#999999" stroke="#666666" points="133,-55.5 0,-55.5 0,-22 133,-22 133,-55.5"/>
<text text-anchor="start" x="8" y="-42" font-family="Helvetica,sans-Serif" font-size="10.00">sisi4s::NaturalTransition</text>
<text text-anchor="middle" x="66.5" y="-29.25" font-family="Helvetica,sans-Serif" font-size="10.00">OrbitalsFromRhoAI::run</text>
</a>
</g>
</g>
<!-- Node2 -->
<g id="Node000002" class="node">
<title>Node2</title>
<g id="a_Node000002"><a xlink:href="structsisi4s_1_1NaturalTransitionOrbitalsFromRhoAI.html#a664dfd859b6247f83ddb5c29c330554e" target="_top" xlink:title=" ">
<polygon fill="white" stroke="#666666" points="385.25,-33.5 169,-33.5 169,0 385.25,0 385.25,-33.5"/>
<text text-anchor="start" x="177" y="-20" font-family="Helvetica,sans-Serif" font-size="10.00">sisi4s::NaturalTransition</text>
<text text-anchor="middle" x="277.12" y="-7.25" font-family="Helvetica,sans-Serif" font-size="10.00">OrbitalsFromRhoAI::buildTransformations</text>
</a>
</g>
</g>
<!-- Node1&#45;&gt;Node2 -->
<g id="edge1_Node000001_Node000002" class="edge">
<title>Node1&#45;&gt;Node2</title>
<g id="a_edge1_Node000001_Node000002"><a xlink:title=" ">
<path fill="none" stroke="#63b8ff" d="M133.22,-31.82C141.2,-30.98 149.53,-30.1 157.98,-29.21"/>
<polygon fill="#63b8ff" stroke="#63b8ff" points="158.16,-32.6 167.74,-28.07 157.43,-25.64 158.16,-32.6"/>
</a>
</g>
</g>
<!-- Node3 -->
<g id="Node000003" class="node">
<title>Node3</title>
<g id="a_Node000003"><a xlink:href="namespacesisi4s.html#ab3f1696a0e7735d418f8996311daa8c4" target="_top" xlink:title=" ">
<polygon fill="white" stroke="#666666" points="528,-72.12 430.25,-72.12 430.25,-51.38 528,-51.38 528,-72.12"/>
<text text-anchor="middle" x="479.12" y="-58.62" font-family="Helvetica,sans-Serif" font-size="10.00">sisi4s::conjugate</text>
</a>
</g>
</g>
<!-- Node1&#45;&gt;Node3 -->
<g id="edge4_Node000001_Node000003" class="edge">
<title>Node1&#45;&gt;Node3</title>
<g id="a_edge4_Node000001_Node000003"><a xlink:title=" ">
<path fill="none" stroke="#63b8ff" d="M133.47,-42.45C212.45,-46.87 343.51,-54.21 419.22,-58.45"/>
<polygon fill="#63b8ff" stroke="#63b8ff" points="418.79,-61.99 428.97,-59.05 419.18,-55 418.79,-61.99"/>
</a>
</g>
</g>
<!-- Node2&#45;&gt;Node3 -->
<g id="edge2_Node000002_Node000003" class="edge">
<title>Node2&#45;&gt;Node3</title>
<g id="a_edge2_Node000002_Node000003"><a xlink:title=" ">
<path fill="none" stroke="#63b8ff" d="M354.59,-33.96C376.09,-38.79 399.13,-43.98 419.42,-48.54"/>
<polygon fill="#63b8ff" stroke="#63b8ff" points="418.54,-52.16 429.06,-50.94 420.08,-45.33 418.54,-52.16"/>
</a>
</g>
</g>
<!-- Node4 -->
<g id="Node000004" class="node">
<title>Node4</title>
<g id="a_Node000004"><a xlink:href="classsisi4s_1_1LapackMatrix.html#a4cea0ed82779b1a9acae7635b7b0b82d" target="_top" xlink:title="Returns the pointer to the column major data.">
<polygon fill="white" stroke="#666666" points="537,-33.5 421.25,-33.5 421.25,0 537,0 537,-33.5"/>
<text text-anchor="start" x="429.25" y="-20" font-family="Helvetica,sans-Serif" font-size="10.00">sisi4s::LapackMatrix</text>
<text text-anchor="middle" x="479.12" y="-7.25" font-family="Helvetica,sans-Serif" font-size="10.00">::getValues</text>
</a>
</g>
</g>
<!-- Node2&#45;&gt;Node4 -->
<g id="edge3_Node000002_Node000004" class="edge">
<title>Node2&#45;&gt;Node4</title>
<g id="a_edge3_Node000002_Node000004"><a xlink:title=" ">
<path fill="none" stroke="#63b8ff" d="M385.74,-16.75C393.97,-16.75 402.13,-16.75 410,-16.75"/>
<polygon fill="#63b8ff" stroke="#63b8ff" points="409.91,-20.25 419.91,-16.75 409.91,-13.25 409.91,-20.25"/>
</a>
</g>
</g>
</g>
</svg>
