<?xml version="1.0" encoding="UTF-8" standalone="no"?>
<!DOCTYPE svg PUBLIC "-//W3C//DTD SVG 1.1//EN"
 "http://www.w3.org/Graphics/SVG/1.1/DTD/svg11.dtd">
<!-- Generated by graphviz version 8.1.0 (0)
 -->
<!-- Title: ShellParser Pages: 1 -->
<svg width="122pt" height="244pt"
 viewBox="0.00 0.00 122.25 243.75" xmlns="http://www.w3.org/2000/svg" xmlns:xlink="http://www.w3.org/1999/xlink">
<g id="graph0" class="graph" transform="scale(1 1) rotate(0) translate(4 239.75)">
<title>ShellParser</title>
<!-- Node1 -->
<g id="Node000001" class="node">
<title>Node1</title>
<g id="a_Node000001"><a xlink:title=" ">
<polygon fill="#999999" stroke="none" points="83,-52 0,-52 0,0 83,0 83,-52"/>
<text text-anchor="start" x="14.5" y="-38.5" font-family="Helvetica,sans-Serif" font-size="10.00">ShellParser</text>
<text text-anchor="start" x="40" y="-22.5" font-family="Helvetica,sans-Serif" font-size="10.00"> </text>
<text text-anchor="start" x="3.88" y="-6.5" font-family="Helvetica,sans-Serif" font-size="10.00">+</text>
<text text-anchor="start" x="16" y="-6.5" font-family="Helvetica,sans-Serif" font-size="10.00">parseString()</text>
<polygon fill="#666666" stroke="#666666" points="0,-34 0,-34 83,-34 83,-34 0,-34"/>
<polygon fill="#666666" stroke="#666666" points="0,-18 0,-18 83,-18 83,-18 0,-18"/>
<polygon fill="none" stroke="#666666" points="0,0 0,-52 83,-52 83,0 0,0"/>
</a>
</g>
</g>
<!-- Node2 -->
<g id="Node000002" class="node">
<title>Node2</title>
<g id="a_Node000002"><a xlink:href="structpars_1_1Regex.html" target="_top" xlink:title=" ">
<polygon fill="white" stroke="none" points="75,-235.75 8,-235.75 8,-151.75 75,-151.75 75,-235.75"/>
<text text-anchor="start" x="12.62" y="-222.25" font-family="Helvetica,sans-Serif" font-size="10.00">pars::Regex</text>
<text text-anchor="start" x="13.88" y="-206.25" font-family="Helvetica,sans-Serif" font-size="10.00">+</text>
<text text-anchor="start" x="28" y="-206.25" font-family="Helvetica,sans-Serif" font-size="10.00">s</text>
<text text-anchor="start" x="13.88" y="-190.25" font-family="Helvetica,sans-Serif" font-size="10.00">+</text>
<text text-anchor="start" x="28" y="-190.25" font-family="Helvetica,sans-Serif" font-size="10.00">r</text>
<text text-anchor="start" x="13.88" y="-174.25" font-family="Helvetica,sans-Serif" font-size="10.00">+</text>
<text text-anchor="start" x="28" y="-174.25" font-family="Helvetica,sans-Serif" font-size="10.00">Regex()</text>
<text text-anchor="start" x="13.88" y="-158.25" font-family="Helvetica,sans-Serif" font-size="10.00">+</text>
<text text-anchor="start" x="28" y="-158.25" font-family="Helvetica,sans-Serif" font-size="10.00">Regex()</text>
<polygon fill="#666666" stroke="#666666" points="8,-217.75 8,-217.75 75,-217.75 75,-217.75 8,-217.75"/>
<polygon fill="#666666" stroke="#666666" points="8,-185.75 8,-185.75 26,-185.75 26,-185.75 8,-185.75"/>
<polygon fill="#666666" stroke="#666666" points="26,-185.75 26,-185.75 75,-185.75 75,-185.75 26,-185.75"/>
<polygon fill="none" stroke="#666666" points="8,-151.75 8,-235.75 75,-235.75 75,-151.75 8,-151.75"/>
</a>
</g>
</g>
<!-- Node2&#45;&gt;Node1 -->
<g id="edge1_Node000001_Node000002" class="edge">
<title>Node2&#45;&gt;Node1</title>
<g id="a_edge1_Node000001_Node000002"><a xlink:title=" ">
<path fill="none" stroke="#63b8ff" d="M41.5,-151.78C41.5,-125 41.5,-90.31 41.5,-64.3"/>
<polygon fill="none" stroke="#63b8ff" points="41.5,-64.48 37.5,-58.48 41.5,-52.48 45.5,-58.48 41.5,-64.48"/>
</a>
</g>
<text text-anchor="middle" x="77.88" y="-124.25" font-family="Helvetica,sans-Serif" font-size="10.00" fill="grey"> +atom</text>
<text text-anchor="middle" x="77.88" y="-111.5" font-family="Helvetica,sans-Serif" font-size="10.00" fill="grey">+basis_line</text>
<text text-anchor="middle" x="77.88" y="-98.75" font-family="Helvetica,sans-Serif" font-size="10.00" fill="grey">+sep</text>
<text text-anchor="middle" x="77.88" y="-86" font-family="Helvetica,sans-Serif" font-size="10.00" fill="grey">+shell</text>
<text text-anchor="middle" x="77.88" y="-73.25" font-family="Helvetica,sans-Serif" font-size="10.00" fill="grey">+shell_symbol</text>
</g>
</g>
</svg>
