<?xml version="1.0" encoding="UTF-8" standalone="no"?>
<!DOCTYPE svg PUBLIC "-//W3C//DTD SVG 1.1//EN"
 "http://www.w3.org/Graphics/SVG/1.1/DTD/svg11.dtd">
<!-- Generated by graphviz version 8.1.0 (0)
 -->
<!-- Title: nwchem::BasisSetParser::parseFile Pages: 1 -->
<svg width="486pt" height="87pt"
 viewBox="0.00 0.00 485.75 86.50" xmlns="http://www.w3.org/2000/svg" xmlns:xlink="http://www.w3.org/1999/xlink">
<g id="graph0" class="graph" transform="scale(1 1) rotate(0) translate(4 82.5)">
<title>nwchem::BasisSetParser::parseFile</title>
<!-- Node1 -->
<g id="Node000001" class="node">
<title>Node1</title>
<g id="a_Node000001"><a xlink:title=" ">
<polygon fill="#999999" stroke="#666666" points="135.25,-55.5 0,-55.5 0,-22 135.25,-22 135.25,-55.5"/>
<text text-anchor="start" x="8" y="-42" font-family="Helvetica,sans-Serif" font-size="10.00">nwchem::BasisSetParser</text>
<text text-anchor="middle" x="67.62" y="-29.25" font-family="Helvetica,sans-Serif" font-size="10.00">::parseFile</text>
</a>
</g>
</g>
<!-- Node2 -->
<g id="Node000002" class="node">
<title>Node2</title>
<g id="a_Node000002"><a xlink:href="structnwchem_1_1BasisSetParser.html#a897f82a03eca6f0768e6fee1da071dc5" target="_top" xlink:title=" ">
<polygon fill="white" stroke="#666666" points="477.75,-78.5 342.5,-78.5 342.5,-45 477.75,-45 477.75,-78.5"/>
<text text-anchor="start" x="350.5" y="-65" font-family="Helvetica,sans-Serif" font-size="10.00">nwchem::BasisSetParser</text>
<text text-anchor="middle" x="410.12" y="-52.25" font-family="Helvetica,sans-Serif" font-size="10.00">::matches</text>
</a>
</g>
</g>
<!-- Node1&#45;&gt;Node2 -->
<g id="edge1_Node000001_Node000002" class="edge">
<title>Node1&#45;&gt;Node2</title>
<g id="a_edge1_Node000001_Node000002"><a xlink:title=" ">
<path fill="none" stroke="#63b8ff" d="M135.49,-43.27C191.74,-47.07 272.22,-52.5 331.34,-56.5"/>
<polygon fill="#63b8ff" stroke="#63b8ff" points="330.91,-60.04 341.12,-57.22 331.38,-53.06 330.91,-60.04"/>
</a>
</g>
</g>
<!-- Node3 -->
<g id="Node000003" class="node">
<title>Node3</title>
<g id="a_Node000003"><a xlink:href="structnwchem_1_1BasisSetParser.html#abdc326c61770f5a0554e09c676496cab" target="_top" xlink:title=" ">
<polygon fill="white" stroke="#666666" points="306.5,-33.5 171.25,-33.5 171.25,0 306.5,0 306.5,-33.5"/>
<text text-anchor="start" x="179.25" y="-20" font-family="Helvetica,sans-Serif" font-size="10.00">nwchem::BasisSetParser</text>
<text text-anchor="middle" x="238.88" y="-7.25" font-family="Helvetica,sans-Serif" font-size="10.00">::parseBasis</text>
</a>
</g>
</g>
<!-- Node1&#45;&gt;Node3 -->
<g id="edge2_Node000001_Node000003" class="edge">
<title>Node1&#45;&gt;Node3</title>
<g id="a_edge2_Node000001_Node000003"><a xlink:title=" ">
<path fill="none" stroke="#63b8ff" d="M135.52,-30.06C143.61,-29 151.93,-27.92 160.17,-26.85"/>
<polygon fill="#63b8ff" stroke="#63b8ff" points="160.45,-30.21 169.91,-25.45 159.55,-23.27 160.45,-30.21"/>
</a>
</g>
</g>
<!-- Node3&#45;&gt;Node2 -->
<g id="edge4_Node000003_Node000002" class="edge">
<title>Node3&#45;&gt;Node2</title>
<g id="a_edge4_Node000003_Node000002"><a xlink:title=" ">
<path fill="none" stroke="#63b8ff" d="M304.34,-33.89C313.95,-36.44 323.92,-39.1 333.73,-41.7"/>
<polygon fill="#63b8ff" stroke="#63b8ff" points="332.71,-45.32 343.27,-44.51 334.51,-38.56 332.71,-45.32"/>
</a>
</g>
</g>
<!-- Node4 -->
<g id="Node000004" class="node">
<title>Node4</title>
<g id="a_Node000004"><a xlink:href="namespaceam.html#ac6b40085587bff5481ac689700436e24" target="_top" xlink:title=" ">
<polygon fill="white" stroke="#666666" points="454.88,-27.12 365.38,-27.12 365.38,-6.38 454.88,-6.38 454.88,-27.12"/>
<text text-anchor="middle" x="410.12" y="-13.62" font-family="Helvetica,sans-Serif" font-size="10.00">am::fromString</text>
</a>
</g>
</g>
<!-- Node3&#45;&gt;Node4 -->
<g id="edge3_Node000003_Node000004" class="edge">
<title>Node3&#45;&gt;Node4</title>
<g id="a_edge3_Node000003_Node000004"><a xlink:title=" ">
<path fill="none" stroke="#63b8ff" d="M306.77,-16.75C322.53,-16.75 339.15,-16.75 354.31,-16.75"/>
<polygon fill="#63b8ff" stroke="#63b8ff" points="354.06,-20.25 364.06,-16.75 354.06,-13.25 354.06,-20.25"/>
</a>
</g>
</g>
</g>
</svg>
