<?xml version="1.0" encoding="UTF-8" standalone="no"?>
<!DOCTYPE svg PUBLIC "-//W3C//DTD SVG 1.1//EN"
 "http://www.w3.org/Graphics/SVG/1.1/DTD/svg11.dtd">
<!-- Generated by graphviz version 8.1.0 (0)
 -->
<!-- Title: sisi4s::MeanCorrelationHoleDepth::run Pages: 1 -->
<svg width="502pt" height="94pt"
 viewBox="0.00 0.00 501.50 93.50" xmlns="http://www.w3.org/2000/svg" xmlns:xlink="http://www.w3.org/1999/xlink">
<g id="graph0" class="graph" transform="scale(1 1) rotate(0) translate(4 89.5)">
<title>sisi4s::MeanCorrelationHoleDepth::run</title>
<!-- Node1 -->
<g id="Node000001" class="node">
<title>Node1</title>
<g id="a_Node000001"><a xlink:title=" ">
<polygon fill="#999999" stroke="#666666" points="153.25,-59.5 0,-59.5 0,-26 153.25,-26 153.25,-59.5"/>
<text text-anchor="start" x="8" y="-46" font-family="Helvetica,sans-Serif" font-size="10.00">sisi4s::MeanCorrelationHole</text>
<text text-anchor="middle" x="76.62" y="-33.25" font-family="Helvetica,sans-Serif" font-size="10.00">Depth::run</text>
</a>
</g>
</g>
<!-- Node2 -->
<g id="Node000002" class="node">
<title>Node2</title>
<g id="a_Node000002"><a xlink:href="classsisi4s_1_1Algorithm.html#a89f4af1584daed17ef628784e7e9c443" target="_top" xlink:title=" ">
<polygon fill="white" stroke="#666666" points="314.75,-85.5 189.25,-85.5 189.25,-52 314.75,-52 314.75,-85.5"/>
<text text-anchor="start" x="197.25" y="-72" font-family="Helvetica,sans-Serif" font-size="10.00">sisi4s::Algorithm::</text>
<text text-anchor="middle" x="252" y="-59.25" font-family="Helvetica,sans-Serif" font-size="10.00">checkArgumentsOrDie</text>
</a>
</g>
</g>
<!-- Node1&#45;&gt;Node2 -->
<g id="edge1_Node000001_Node000002" class="edge">
<title>Node1&#45;&gt;Node2</title>
<g id="a_edge1_Node000001_Node000002"><a xlink:title=" ">
<path fill="none" stroke="#63b8ff" d="M153.67,-54.15C161.74,-55.36 169.93,-56.59 177.97,-57.8"/>
<polygon fill="#63b8ff" stroke="#63b8ff" points="177.39,-61.4 187.8,-59.42 178.42,-54.48 177.39,-61.4"/>
</a>
</g>
</g>
<!-- Node4 -->
<g id="Node000004" class="node">
<title>Node4</title>
<g id="a_Node000004"><a xlink:href="classsisi4s_1_1Algorithm.html#aec9041b31cb64a42ee1fd79d32774266" target="_top" xlink:title=" ">
<polygon fill="white" stroke="#666666" points="303.88,-33.5 200.12,-33.5 200.12,0 303.88,0 303.88,-33.5"/>
<text text-anchor="start" x="208.12" y="-20" font-family="Helvetica,sans-Serif" font-size="10.00">sisi4s::Algorithm::</text>
<text text-anchor="middle" x="252" y="-7.25" font-family="Helvetica,sans-Serif" font-size="10.00">isArgumentGiven</text>
</a>
</g>
</g>
<!-- Node1&#45;&gt;Node4 -->
<g id="edge3_Node000001_Node000004" class="edge">
<title>Node1&#45;&gt;Node4</title>
<g id="a_edge3_Node000001_Node000004"><a xlink:title=" ">
<path fill="none" stroke="#63b8ff" d="M153.67,-31.35C165.46,-29.58 177.52,-27.77 188.95,-26.06"/>
<polygon fill="#63b8ff" stroke="#63b8ff" points="189.32,-29.39 198.69,-24.44 188.28,-22.47 189.32,-29.39"/>
</a>
</g>
</g>
<!-- Node3 -->
<g id="Node000003" class="node">
<title>Node3</title>
<g id="a_Node000003"><a xlink:href="classsisi4s_1_1Algorithm.html#acfd102240a53352574ed9b5632f1ef59" target="_top" xlink:title=" ">
<polygon fill="white" stroke="#666666" points="493.5,-85.5 350.75,-85.5 350.75,-52 493.5,-52 493.5,-85.5"/>
<text text-anchor="start" x="358.75" y="-72" font-family="Helvetica,sans-Serif" font-size="10.00">sisi4s::Algorithm::</text>
<text text-anchor="middle" x="422.12" y="-59.25" font-family="Helvetica,sans-Serif" font-size="10.00">getGivenArgumentNames</text>
</a>
</g>
</g>
<!-- Node2&#45;&gt;Node3 -->
<g id="edge2_Node000002_Node000003" class="edge">
<title>Node2&#45;&gt;Node3</title>
<g id="a_edge2_Node000002_Node000003"><a xlink:title=" ">
<path fill="none" stroke="#63b8ff" d="M315.13,-68.75C323.13,-68.75 331.41,-68.75 339.66,-68.75"/>
<polygon fill="#63b8ff" stroke="#63b8ff" points="339.46,-72.25 349.46,-68.75 339.46,-65.25 339.46,-72.25"/>
</a>
</g>
</g>
</g>
</svg>
