<?xml version="1.0" encoding="UTF-8" standalone="no"?>
<!DOCTYPE svg PUBLIC "-//W3C//DTD SVG 1.1//EN"
 "http://www.w3.org/Graphics/SVG/1.1/DTD/svg11.dtd">
<!-- Generated by graphviz version 9.0.0 (0)
 -->
<!-- Title: sisi4s::TensorUnrestricter Pages: 1 -->
<svg width="475pt" height="700pt"
 viewBox="0.00 0.00 474.50 699.50" xmlns="http://www.w3.org/2000/svg" xmlns:xlink="http://www.w3.org/1999/xlink">
<g id="graph0" class="graph" transform="scale(1 1) rotate(0) translate(4 695.5)">
<title>sisi4s::TensorUnrestricter</title>
<!-- Node1 -->
<g id="Node000001" class="node">
<title>Node1</title>
<g id="a_Node000001"><a xlink:title=" ">
<polygon fill="#999999" stroke="none" points="168.5,-100 35.5,-100 35.5,0 168.5,0 168.5,-100"/>
<text text-anchor="start" x="40.5" y="-86.5" font-family="Helvetica,sans-Serif" font-size="10.00">sisi4s::TensorUnrestricter</text>
<text text-anchor="start" x="100.5" y="-70.5" font-family="Helvetica,sans-Serif" font-size="10.00"> </text>
<text text-anchor="start" x="41.38" y="-54.5" font-family="Helvetica,sans-Serif" font-size="10.00">+</text>
<text text-anchor="start" x="55.5" y="-54.5" font-family="Helvetica,sans-Serif" font-size="10.00">getName()</text>
<text text-anchor="start" x="41.38" y="-38.5" font-family="Helvetica,sans-Serif" font-size="10.00">+</text>
<text text-anchor="start" x="55.5" y="-38.5" font-family="Helvetica,sans-Serif" font-size="10.00">TensorUnrestricter()</text>
<text text-anchor="start" x="41.38" y="-22.5" font-family="Helvetica,sans-Serif" font-size="10.00">+</text>
<text text-anchor="start" x="55.5" y="-22.5" font-family="Helvetica,sans-Serif" font-size="10.00">~TensorUnrestricter()</text>
<text text-anchor="start" x="41.38" y="-6.5" font-family="Helvetica,sans-Serif" font-size="10.00">+</text>
<text text-anchor="start" x="55.5" y="-6.5" font-family="Helvetica,sans-Serif" font-size="10.00">run()</text>
<polygon fill="#666666" stroke="#666666" points="35.5,-82 35.5,-82 168.5,-82 168.5,-82 35.5,-82"/>
<polygon fill="#666666" stroke="#666666" points="35.5,-66 35.5,-66 168.5,-66 168.5,-66 35.5,-66"/>
<polygon fill="none" stroke="#666666" points="35.5,0 35.5,-100 168.5,-100 168.5,0 35.5,0"/>
</a>
</g>
</g>
<!-- Node2 -->
<g id="Node000002" class="node">
<title>Node2</title>
<g id="a_Node000002"><a xlink:href="classsisi4s_1_1Algorithm.html" target="_top" xlink:title=" ">
<polygon fill="white" stroke="none" points="172,-456.75 0,-456.75 0,-148.75 172,-148.75 172,-456.75"/>
<text text-anchor="start" x="45.12" y="-443.25" font-family="Helvetica,sans-Serif" font-size="10.00">sisi4s::Algorithm</text>
<text text-anchor="start" x="3.88" y="-427.25" font-family="Helvetica,sans-Serif" font-size="10.00">+</text>
<text text-anchor="start" x="16" y="-427.25" font-family="Helvetica,sans-Serif" font-size="10.00">note</text>
<text text-anchor="start" x="3.88" y="-411.25" font-family="Helvetica,sans-Serif" font-size="10.00">+</text>
<text text-anchor="start" x="16" y="-411.25" font-family="Helvetica,sans-Serif" font-size="10.00">fallible</text>
<text text-anchor="start" x="3.88" y="-395.25" font-family="Helvetica,sans-Serif" font-size="10.00">#</text>
<text text-anchor="start" x="16" y="-395.25" font-family="Helvetica,sans-Serif" font-size="10.00">arguments</text>
<text text-anchor="start" x="3.88" y="-379.25" font-family="Helvetica,sans-Serif" font-size="10.00">+</text>
<text text-anchor="start" x="16" y="-379.25" font-family="Helvetica,sans-Serif" font-size="10.00">Algorithm()</text>
<text text-anchor="start" x="3.88" y="-363.25" font-family="Helvetica,sans-Serif" font-size="10.00">+</text>
<text text-anchor="start" x="16" y="-363.25" font-family="Helvetica,sans-Serif" font-size="10.00">~Algorithm()</text>
<text text-anchor="start" x="3.88" y="-347.25" font-family="Helvetica,sans-Serif" font-size="10.00">+</text>
<text text-anchor="start" x="16" y="-347.25" font-family="Helvetica,sans-Serif" font-size="10.00">getName()</text>
<text text-anchor="start" x="3.88" y="-331.25" font-family="Helvetica,sans-Serif" font-size="10.00">+</text>
<text text-anchor="start" x="16" y="-331.25" font-family="Helvetica,sans-Serif" font-size="10.00">run()</text>
<text text-anchor="start" x="3.88" y="-315.25" font-family="Helvetica,sans-Serif" font-size="10.00">+</text>
<text text-anchor="start" x="16" y="-315.25" font-family="Helvetica,sans-Serif" font-size="10.00">dryRun()</text>
<text text-anchor="start" x="3.88" y="-299.25" font-family="Helvetica,sans-Serif" font-size="10.00">+</text>
<text text-anchor="start" x="16" y="-299.25" font-family="Helvetica,sans-Serif" font-size="10.00">isArgumentGiven()</text>
<text text-anchor="start" x="3.88" y="-283.25" font-family="Helvetica,sans-Serif" font-size="10.00">+</text>
<text text-anchor="start" x="16" y="-283.25" font-family="Helvetica,sans-Serif" font-size="10.00">getTextArgument()</text>
<text text-anchor="start" x="3.88" y="-267.25" font-family="Helvetica,sans-Serif" font-size="10.00">+</text>
<text text-anchor="start" x="16" y="-267.25" font-family="Helvetica,sans-Serif" font-size="10.00">getTextArgument()</text>
<text text-anchor="start" x="3.88" y="-251.25" font-family="Helvetica,sans-Serif" font-size="10.00">+</text>
<text text-anchor="start" x="16" y="-251.25" font-family="Helvetica,sans-Serif" font-size="10.00">getBooleanArgument()</text>
<text text-anchor="start" x="3.88" y="-235.25" font-family="Helvetica,sans-Serif" font-size="10.00">+</text>
<text text-anchor="start" x="16" y="-235.25" font-family="Helvetica,sans-Serif" font-size="10.00">getBooleanArgument()</text>
<text text-anchor="start" x="16" y="-219.25" font-family="Helvetica,sans-Serif" font-size="10.00">and 12 more...</text>
<text text-anchor="start" x="3.88" y="-203.25" font-family="Helvetica,sans-Serif" font-size="10.00">#</text>
<text text-anchor="start" x="16" y="-203.25" font-family="Helvetica,sans-Serif" font-size="10.00">getRealArgumentFromInteger()</text>
<text text-anchor="start" x="3.88" y="-187.25" font-family="Helvetica,sans-Serif" font-size="10.00">#</text>
<text text-anchor="start" x="16" y="-187.25" font-family="Helvetica,sans-Serif" font-size="10.00">getRealArgumentFromTensor()</text>
<text text-anchor="start" x="3.88" y="-171.25" font-family="Helvetica,sans-Serif" font-size="10.00">#</text>
<text text-anchor="start" x="16" y="-171.25" font-family="Helvetica,sans-Serif" font-size="10.00">getTensorArgumentFromReal()</text>
<text text-anchor="start" x="3.88" y="-155.25" font-family="Helvetica,sans-Serif" font-size="10.00">#</text>
<text text-anchor="start" x="16" y="-155.25" font-family="Helvetica,sans-Serif" font-size="10.00">getArgumentData()</text>
<polygon fill="#666666" stroke="#666666" points="0,-438.75 0,-438.75 172,-438.75 172,-438.75 0,-438.75"/>
<polygon fill="#666666" stroke="#666666" points="0,-390.75 0,-390.75 14,-390.75 14,-390.75 0,-390.75"/>
<polygon fill="#666666" stroke="#666666" points="14,-390.75 14,-390.75 172,-390.75 172,-390.75 14,-390.75"/>
<polygon fill="none" stroke="#666666" points="0,-148.75 0,-456.75 172,-456.75 172,-148.75 0,-148.75"/>
</a>
</g>
</g>
<!-- Node2&#45;&gt;Node1 -->
<g id="edge1_Node000001_Node000002" class="edge">
<title>Node2&#45;&gt;Node1</title>
<g id="a_edge1_Node000001_Node000002"><a xlink:title=" ">
<path fill="none" stroke="#63b8ff" d="M96.48,-137.54C97.34,-124.04 98.16,-111.2 98.89,-99.75"/>
<polygon fill="none" stroke="#63b8ff" points="92.99,-137.31 95.84,-147.51 99.97,-137.76 92.99,-137.31"/>
</a>
</g>
</g>
<!-- Node3 -->
<g id="Node000003" class="node">
<title>Node3</title>
<g id="a_Node000003"><a xlink:href="classsisi4s_1_1AlgorithmRegistrar.html" target="_top" xlink:title=" ">
<polygon fill="white" stroke="none" points="345.5,-335.25 190.5,-335.25 190.5,-270.25 345.5,-270.25 345.5,-335.25"/>
<text text-anchor="start" x="195.25" y="-321.75" font-family="Helvetica,sans-Serif" font-size="10.00">sisi4s::AlgorithmRegistrar</text>
<text text-anchor="start" x="195.25" y="-309" font-family="Helvetica,sans-Serif" font-size="10.00">&lt; sisi4s::TensorUnrestricter &gt;</text>
<text text-anchor="start" x="266.5" y="-292.75" font-family="Helvetica,sans-Serif" font-size="10.00"> </text>
<text text-anchor="start" x="203.38" y="-276.75" font-family="Helvetica,sans-Serif" font-size="10.00">+</text>
<text text-anchor="start" x="224.5" y="-276.75" font-family="Helvetica,sans-Serif" font-size="10.00">AlgorithmRegistrar()</text>
<polygon fill="#666666" stroke="#666666" points="190.5,-304.25 190.5,-304.25 345.5,-304.25 345.5,-304.25 190.5,-304.25"/>
<polygon fill="#666666" stroke="#666666" points="190.5,-288.25 190.5,-288.25 345.5,-288.25 345.5,-288.25 190.5,-288.25"/>
<polygon fill="none" stroke="#666666" points="190.5,-270.25 190.5,-335.25 345.5,-335.25 345.5,-270.25 190.5,-270.25"/>
</a>
</g>
</g>
<!-- Node3&#45;&gt;Node1 -->
<g id="edge2_Node000001_Node000003" class="edge">
<title>Node3&#45;&gt;Node1</title>
<g id="a_edge2_Node000001_Node000003"><a xlink:title=" ">
<path fill="none" stroke="#63b8ff" d="M252.09,-270.38C235.64,-238.81 208.54,-189.15 181,-148.75 172.13,-135.73 161.97,-122.28 151.97,-109.68"/>
<polygon fill="none" stroke="#63b8ff" points="152.09,-109.83 145.21,-107.66 144.57,-100.48 151.45,-102.65 152.09,-109.83"/>
</a>
</g>
<text text-anchor="middle" x="196.88" y="-121.25" font-family="Helvetica,sans-Serif" font-size="10.00" fill="grey"> +registrar_</text>
</g>
<!-- Node4 -->
<g id="Node000004" class="node">
<title>Node4</title>
<g id="a_Node000004"><a xlink:href="classsisi4s_1_1AlgorithmFactory.html" target="_top" xlink:title=" ">
<polygon fill="white" stroke="none" points="311.5,-691.5 184.5,-691.5 184.5,-607.5 311.5,-607.5 311.5,-691.5"/>
<text text-anchor="start" x="189.5" y="-678" font-family="Helvetica,sans-Serif" font-size="10.00">sisi4s::AlgorithmFactory</text>
<text text-anchor="start" x="188.88" y="-662" font-family="Helvetica,sans-Serif" font-size="10.00">#</text>
<text text-anchor="start" x="201.5" y="-662" font-family="Helvetica,sans-Serif" font-size="10.00">algorithmMap</text>
<text text-anchor="start" x="188.88" y="-646" font-family="Helvetica,sans-Serif" font-size="10.00">+</text>
<text text-anchor="start" x="201.5" y="-646" font-family="Helvetica,sans-Serif" font-size="10.00">create()</text>
<text text-anchor="start" x="188.88" y="-630" font-family="Helvetica,sans-Serif" font-size="10.00">+</text>
<text text-anchor="start" x="201.5" y="-630" font-family="Helvetica,sans-Serif" font-size="10.00">getAlgorithmNames()</text>
<text text-anchor="start" x="188.88" y="-614" font-family="Helvetica,sans-Serif" font-size="10.00">#</text>
<text text-anchor="start" x="201.5" y="-614" font-family="Helvetica,sans-Serif" font-size="10.00">getAlgorithmMap()</text>
<polygon fill="#666666" stroke="#666666" points="184.5,-673.5 184.5,-673.5 311.5,-673.5 311.5,-673.5 184.5,-673.5"/>
<polygon fill="#666666" stroke="#666666" points="184.5,-657.5 184.5,-657.5 199.5,-657.5 199.5,-657.5 184.5,-657.5"/>
<polygon fill="#666666" stroke="#666666" points="199.5,-657.5 199.5,-657.5 311.5,-657.5 311.5,-657.5 199.5,-657.5"/>
<polygon fill="none" stroke="#666666" points="184.5,-607.5 184.5,-691.5 311.5,-691.5 311.5,-607.5 184.5,-607.5"/>
</a>
</g>
</g>
<!-- Node4&#45;&gt;Node3 -->
<g id="edge3_Node000003_Node000004" class="edge">
<title>Node4&#45;&gt;Node3</title>
<g id="a_edge3_Node000003_Node000004"><a xlink:title=" ">
<path fill="none" stroke="darkgreen" d="M250.36,-596.32C251.64,-569.22 253.3,-535.57 255,-505.5 258.42,-445.23 263.11,-374.87 265.82,-335.19"/>
<polygon fill="none" stroke="darkgreen" points="246.88,-595.84 249.91,-605.99 253.87,-596.16 246.88,-595.84"/>
</a>
</g>
</g>
<!-- Node5 -->
<g id="Node000005" class="node">
<title>Node5</title>
<g id="a_Node000005"><a xlink:href="classsisi4s_1_1AlgorithmRegistrar.html" target="_top" xlink:title="Class to be statically instantiated by an algorithm to register it in the AlgorithmFactory....">
<polygon fill="white" stroke="none" points="400,-570.5 264,-570.5 264,-505.5 400,-505.5 400,-570.5"/>
<text text-anchor="start" x="269" y="-557" font-family="Helvetica,sans-Serif" font-size="10.00">sisi4s::AlgorithmRegistrar</text>
<text text-anchor="start" x="285.5" y="-544.25" font-family="Helvetica,sans-Serif" font-size="10.00">&lt; AlgorithmType &gt;</text>
<text text-anchor="start" x="330.5" y="-528" font-family="Helvetica,sans-Serif" font-size="10.00"> </text>
<text text-anchor="start" x="271.88" y="-512" font-family="Helvetica,sans-Serif" font-size="10.00">+</text>
<text text-anchor="start" x="288" y="-512" font-family="Helvetica,sans-Serif" font-size="10.00">AlgorithmRegistrar()</text>
<polygon fill="#666666" stroke="#666666" points="264,-539.5 264,-539.5 400,-539.5 400,-539.5 264,-539.5"/>
<polygon fill="#666666" stroke="#666666" points="264,-523.5 264,-523.5 400,-523.5 400,-523.5 264,-523.5"/>
<polygon fill="none" stroke="#666666" points="264,-505.5 264,-570.5 400,-570.5 400,-505.5 264,-505.5"/>
</a>
</g>
</g>
<!-- Node4&#45;&gt;Node5 -->
<g id="edge5_Node000005_Node000004" class="edge">
<title>Node4&#45;&gt;Node5</title>
<g id="a_edge5_Node000005_Node000004"><a xlink:title=" ">
<path fill="none" stroke="darkgreen" d="M286.07,-598.87C293.55,-589.12 301.19,-579.16 308.05,-570.22"/>
<polygon fill="none" stroke="darkgreen" points="283.51,-596.46 280.2,-606.53 289.06,-600.72 283.51,-596.46"/>
</a>
</g>
</g>
<!-- Node5&#45;&gt;Node3 -->
<g id="edge4_Node000003_Node000005" class="edge">
<title>Node5&#45;&gt;Node3</title>
<g id="a_edge4_Node000003_Node000005"><a xlink:title=" ">
<path fill="none" stroke="orange" d="M320.32,-494.44C307.7,-448.43 287.87,-376.17 276.6,-335.08"/>
<polygon fill="orange" stroke="orange" points="316.95,-495.37 322.97,-504.08 323.7,-493.51 316.95,-495.37"/>
</a>
</g>
<text text-anchor="middle" x="392.25" y="-478" font-family="Helvetica,sans-Serif" font-size="10.00" fill="grey"> &lt; sisi4s::TensorUnrestricter &gt;</text>
</g>
</g>
</svg>
