<?xml version="1.0" encoding="UTF-8" standalone="no"?>
<!DOCTYPE svg PUBLIC "-//W3C//DTD SVG 1.1//EN"
 "http://www.w3.org/Graphics/SVG/1.1/DTD/svg11.dtd">
<!-- Generated by graphviz version 8.1.0 (0)
 -->
<!-- Title: CLI::detail::is_readable_container&lt; T, conditional_t&lt; false, void_t&lt; decltype(std::declval&lt; T &gt;().end()), decltype(std::declval&lt; T &gt;().begin())&gt;, void &gt; &gt; Pages: 1 -->
<svg width="159pt" height="212pt"
 viewBox="0.00 0.00 159.00 212.00" xmlns="http://www.w3.org/2000/svg" xmlns:xlink="http://www.w3.org/1999/xlink">
<g id="graph0" class="graph" transform="scale(1 1) rotate(0) translate(4 208)">
<title>CLI::detail::is_readable_container&lt; T, conditional_t&lt; false, void_t&lt; decltype(std::declval&lt; T &gt;().end()), decltype(std::declval&lt; T &gt;().begin())&gt;, void &gt; &gt;</title>
<!-- Node1 -->
<g id="Node000001" class="node">
<title>Node1</title>
<g id="a_Node000001"><a xlink:title=" ">
<polygon fill="#999999" stroke="none" points="151,-116 0,-116 0,0 151,0 151,-116"/>
<text text-anchor="start" x="5" y="-102.5" font-family="Helvetica,sans-Serif" font-size="10.00">CLI::detail::is_readable</text>
<text text-anchor="start" x="5" y="-89.75" font-family="Helvetica,sans-Serif" font-size="10.00">_container&lt; T, conditional</text>
<text text-anchor="start" x="5" y="-77" font-family="Helvetica,sans-Serif" font-size="10.00">_t&lt; false, void_t&lt; decltype</text>
<text text-anchor="start" x="5" y="-64.25" font-family="Helvetica,sans-Serif" font-size="10.00">(std::declval&lt; T &gt;().end()),</text>
<text text-anchor="start" x="5" y="-51.5" font-family="Helvetica,sans-Serif" font-size="10.00"> decltype(std::declval&lt; T &gt;()</text>
<text text-anchor="start" x="26" y="-38.75" font-family="Helvetica,sans-Serif" font-size="10.00">.begin())&gt;, void &gt; &gt;</text>
<text text-anchor="start" x="74" y="-22.5" font-family="Helvetica,sans-Serif" font-size="10.00"> </text>
<text text-anchor="start" x="74" y="-6.5" font-family="Helvetica,sans-Serif" font-size="10.00"> </text>
<polygon fill="#666666" stroke="#666666" points="0,-34 0,-34 151,-34 151,-34 0,-34"/>
<polygon fill="#666666" stroke="#666666" points="0,-18 0,-18 151,-18 151,-18 0,-18"/>
<polygon fill="none" stroke="#666666" points="0,0 0,-116 151,-116 151,0 0,0"/>
</a>
</g>
</g>
<!-- Node2 -->
<g id="Node000002" class="node">
<title>Node2</title>
<g id="a_Node000002"><a xlink:title=" ">
<polygon fill="white" stroke="none" points="114,-204 37,-204 37,-152 114,-152 114,-204"/>
<text text-anchor="start" x="41.75" y="-190.5" font-family="Helvetica,sans-Serif" font-size="10.00">std::true_type</text>
<text text-anchor="start" x="74" y="-174.5" font-family="Helvetica,sans-Serif" font-size="10.00"> </text>
<text text-anchor="start" x="74" y="-158.5" font-family="Helvetica,sans-Serif" font-size="10.00"> </text>
<polygon fill="#666666" stroke="#666666" points="37,-186 37,-186 114,-186 114,-186 37,-186"/>
<polygon fill="#666666" stroke="#666666" points="37,-170 37,-170 114,-170 114,-170 37,-170"/>
<polygon fill="none" stroke="#666666" points="37,-152 37,-204 114,-204 114,-152 37,-152"/>
</a>
</g>
</g>
<!-- Node2&#45;&gt;Node1 -->
<g id="edge1_Node000001_Node000002" class="edge">
<title>Node2&#45;&gt;Node1</title>
<g id="a_edge1_Node000001_Node000002"><a xlink:title=" ">
<path fill="none" stroke="#63b8ff" d="M75.5,-141.38C75.5,-133.29 75.5,-124.51 75.5,-115.79"/>
<polygon fill="none" stroke="#63b8ff" points="72,-141.26 75.5,-151.26 79,-141.26 72,-141.26"/>
</a>
</g>
</g>
</g>
</svg>
