<?xml version="1.0" encoding="UTF-8" standalone="no"?>
<!DOCTYPE svg PUBLIC "-//W3C//DTD SVG 1.1//EN"
 "http://www.w3.org/Graphics/SVG/1.1/DTD/svg11.dtd">
<!-- Generated by graphviz version 9.0.0 (0)
 -->
<!-- Title: sisi4s::VectorTensor&lt; F &gt; Pages: 1 -->
<svg width="142pt" height="108pt"
 viewBox="0.00 0.00 142.00 108.00" xmlns="http://www.w3.org/2000/svg" xmlns:xlink="http://www.w3.org/1999/xlink">
<g id="graph0" class="graph" transform="scale(1 1) rotate(0) translate(4 104)">
<title>sisi4s::VectorTensor&lt; F &gt;</title>
<!-- Node1 -->
<g id="Node000001" class="node">
<title>Node1</title>
<g id="a_Node000001"><a xlink:title=" ">
<polygon fill="#999999" stroke="none" points="134,-100 0,-100 0,0 134,0 134,-100"/>
<text text-anchor="start" x="4.75" y="-86.5" font-family="Helvetica,sans-Serif" font-size="10.00">sisi4s::VectorTensor&lt; F &gt;</text>
<text text-anchor="start" x="12.88" y="-70.5" font-family="Helvetica,sans-Serif" font-size="10.00">+</text>
<text text-anchor="start" x="34" y="-70.5" font-family="Helvetica,sans-Serif" font-size="10.00">tensors</text>
<text text-anchor="start" x="12.88" y="-54.5" font-family="Helvetica,sans-Serif" font-size="10.00">+</text>
<text text-anchor="start" x="34" y="-54.5" font-family="Helvetica,sans-Serif" font-size="10.00">refs</text>
<text text-anchor="start" x="12.88" y="-38.5" font-family="Helvetica,sans-Serif" font-size="10.00">+</text>
<text text-anchor="start" x="34" y="-38.5" font-family="Helvetica,sans-Serif" font-size="10.00">NO_REF</text>
<text text-anchor="start" x="12.88" y="-22.5" font-family="Helvetica,sans-Serif" font-size="10.00">+</text>
<text text-anchor="start" x="34" y="-22.5" font-family="Helvetica,sans-Serif" font-size="10.00">withReference()</text>
<text text-anchor="start" x="12.88" y="-6.5" font-family="Helvetica,sans-Serif" font-size="10.00">+</text>
<text text-anchor="start" x="34" y="-6.5" font-family="Helvetica,sans-Serif" font-size="10.00">VectorTensor()</text>
<polygon fill="#666666" stroke="#666666" points="0,-82 0,-82 134,-82 134,-82 0,-82"/>
<polygon fill="#666666" stroke="#666666" points="0,-34 0,-34 32,-34 32,-34 0,-34"/>
<polygon fill="#666666" stroke="#666666" points="32,-34 32,-34 134,-34 134,-34 32,-34"/>
<polygon fill="none" stroke="#666666" points="0,0 0,-100 134,-100 134,0 0,0"/>
</a>
</g>
</g>
</g>
</svg>
