<?xml version="1.0" encoding="UTF-8" standalone="no"?>
<!DOCTYPE svg PUBLIC "-//W3C//DTD SVG 1.1//EN"
 "http://www.w3.org/Graphics/SVG/1.1/DTD/svg11.dtd">
<!-- Generated by graphviz version 8.1.0 (0)
 -->
<!-- Title: sisi4s::SimilarityTransformedHamiltonian&lt; F &gt;::StructureFactor Pages: 1 -->
<svg width="186pt" height="89pt"
 viewBox="0.00 0.00 186.00 89.00" xmlns="http://www.w3.org/2000/svg" xmlns:xlink="http://www.w3.org/1999/xlink">
<g id="graph0" class="graph" transform="scale(1 1) rotate(0) translate(4 85)">
<title>sisi4s::SimilarityTransformedHamiltonian&lt; F &gt;::StructureFactor</title>
<!-- Node1 -->
<g id="Node000001" class="node">
<title>Node1</title>
<g id="a_Node000001"><a xlink:title=" ">
<polygon fill="#999999" stroke="none" points="178,-81 0,-81 0,0 178,0 178,-81"/>
<text text-anchor="start" x="5" y="-67.5" font-family="Helvetica,sans-Serif" font-size="10.00">sisi4s::SimilarityTransformed</text>
<text text-anchor="start" x="5" y="-54.75" font-family="Helvetica,sans-Serif" font-size="10.00">Hamiltonian&lt; F &gt;::StructureFactor</text>
<text text-anchor="start" x="34.88" y="-38.5" font-family="Helvetica,sans-Serif" font-size="10.00">+</text>
<text text-anchor="start" x="78" y="-38.5" font-family="Helvetica,sans-Serif" font-size="10.00">energy</text>
<text text-anchor="start" x="34.88" y="-22.5" font-family="Helvetica,sans-Serif" font-size="10.00">+</text>
<text text-anchor="start" x="78" y="-22.5" font-family="Helvetica,sans-Serif" font-size="10.00">S</text>
<text text-anchor="start" x="87.5" y="-6.5" font-family="Helvetica,sans-Serif" font-size="10.00"> </text>
<polygon fill="#666666" stroke="#666666" points="0,-50 0,-50 178,-50 178,-50 0,-50"/>
<polygon fill="#666666" stroke="#666666" points="0,-18 0,-18 76,-18 76,-18 0,-18"/>
<polygon fill="#666666" stroke="#666666" points="76,-18 76,-18 178,-18 178,-18 76,-18"/>
<polygon fill="none" stroke="#666666" points="0,0 0,-81 178,-81 178,0 0,0"/>
</a>
</g>
</g>
</g>
</svg>
