<?xml version="1.0" encoding="UTF-8" standalone="no"?>
<!DOCTYPE svg PUBLIC "-//W3C//DTD SVG 1.1//EN"
 "http://www.w3.org/Graphics/SVG/1.1/DTD/svg11.dtd">
<!-- Generated by graphviz version 7.0.0 (0)
 -->
<!-- Title: sisi4s::ContainerData&lt; F, C &gt; Pages: 1 -->
<svg width="148pt" height="489pt"
 viewBox="0.00 0.00 148.00 489.00" xmlns="http://www.w3.org/2000/svg" xmlns:xlink="http://www.w3.org/1999/xlink">
<g id="graph0" class="graph" transform="scale(1 1) rotate(0) translate(4 485)">
<title>sisi4s::ContainerData&lt; F, C &gt;</title>
<!-- Node1 -->
<g id="node1" class="node">
<title>Node1</title>
<g id="a_node1"><a xlink:title=" ">
<polygon fill="#999999" stroke="#666666" points="133.5,-85 6.5,-85 6.5,0 133.5,0 133.5,-85"/>
<text text-anchor="start" x="14.5" y="-73" font-family="Helvetica,sans-Serif" font-size="10.00">{sisi4s::ContainerData</text>
<text text-anchor="middle" x="70" y="-62" font-family="Helvetica,sans-Serif" font-size="10.00">&lt; F, C &gt;</text>
<text text-anchor="start" x="14.5" y="-51" font-family="Helvetica,sans-Serif" font-size="10.00">|+ value</text>
<text text-anchor="start" x="14.5" y="-40" font-family="Helvetica,sans-Serif" font-size="10.00">|+ ContainerData()</text>
<text text-anchor="start" x="14.5" y="-29" font-family="Helvetica,sans-Serif" font-size="10.00">+ ContainerData()</text>
<text text-anchor="start" x="14.5" y="-18" font-family="Helvetica,sans-Serif" font-size="10.00">+ ~ContainerData()</text>
<text text-anchor="middle" x="70" y="-7" font-family="Helvetica,sans-Serif" font-size="10.00">}</text>
</a>
</g>
</g>
<!-- Node2 -->
<g id="node2" class="node">
<title>Node2</title>
<g id="a_node2"><a xlink:href="classsisi4s_1_1NumericData.html" target="_top" xlink:title=" ">
<polygon fill="white" stroke="#666666" points="130.5,-173 9.5,-173 9.5,-121 130.5,-121 130.5,-173"/>
<text text-anchor="middle" x="70" y="-161" font-family="Helvetica,sans-Serif" font-size="10.00">{sisi4s::NumericData</text>
<text text-anchor="start" x="17.5" y="-150" font-family="Helvetica,sans-Serif" font-size="10.00">||# NumericData()</text>
<text text-anchor="start" x="17.5" y="-139" font-family="Helvetica,sans-Serif" font-size="10.00"># NumericData()</text>
<text text-anchor="middle" x="70" y="-128" font-family="Helvetica,sans-Serif" font-size="10.00">}</text>
</a>
</g>
</g>
<!-- Node2&#45;&gt;Node1 -->
<g id="edge1" class="edge">
<title>Node2&#45;&gt;Node1</title>
<path fill="none" stroke="#63b8ff" d="M70,-109.32C70,-101.54 70,-93.26 70,-85.3"/>
<polygon fill="none" stroke="#63b8ff" points="66.5,-109.15 70,-119.15 73.5,-109.15 66.5,-109.15"/>
</g>
<!-- Node3 -->
<g id="node3" class="node">
<title>Node3</title>
<g id="a_node3"><a xlink:href="classsisi4s_1_1TypedData.html" target="_top" xlink:title=" ">
<polygon fill="white" stroke="#666666" points="124,-283 16,-283 16,-209 124,-209 124,-283"/>
<text text-anchor="middle" x="70" y="-271" font-family="Helvetica,sans-Serif" font-size="10.00">{sisi4s::TypedData</text>
<text text-anchor="start" x="24" y="-260" font-family="Helvetica,sans-Serif" font-size="10.00">|# nextId</text>
<text text-anchor="start" x="24" y="-249" font-family="Helvetica,sans-Serif" font-size="10.00">|# TypedData()</text>
<text text-anchor="start" x="24" y="-238" font-family="Helvetica,sans-Serif" font-size="10.00"># TypedData()</text>
<text text-anchor="start" x="24" y="-227" font-family="Helvetica,sans-Serif" font-size="10.00"># nextName()</text>
<text text-anchor="middle" x="70" y="-216" font-family="Helvetica,sans-Serif" font-size="10.00">}</text>
</a>
</g>
</g>
<!-- Node3&#45;&gt;Node2 -->
<g id="edge2" class="edge">
<title>Node3&#45;&gt;Node2</title>
<path fill="none" stroke="#63b8ff" d="M70,-197.13C70,-188.94 70,-180.72 70,-173.41"/>
<polygon fill="none" stroke="#63b8ff" points="66.5,-197.09 70,-207.09 73.5,-197.09 66.5,-197.09"/>
</g>
<!-- Node4 -->
<g id="node4" class="node">
<title>Node4</title>
<g id="a_node4"><a xlink:href="classsisi4s_1_1Data.html" target="_top" xlink:title=" ">
<polygon fill="white" stroke="#666666" points="140,-481 0,-481 0,-319 140,-319 140,-481"/>
<text text-anchor="middle" x="70" y="-469" font-family="Helvetica,sans-Serif" font-size="10.00">{sisi4s::Data</text>
<text text-anchor="start" x="8" y="-458" font-family="Helvetica,sans-Serif" font-size="10.00">|# name</text>
<text text-anchor="start" x="8" y="-447" font-family="Helvetica,sans-Serif" font-size="10.00"># typeName</text>
<text text-anchor="start" x="8" y="-436" font-family="Helvetica,sans-Serif" font-size="10.00"># stage</text>
<text text-anchor="start" x="8" y="-425" font-family="Helvetica,sans-Serif" font-size="10.00"># dataMap</text>
<text text-anchor="start" x="8" y="-414" font-family="Helvetica,sans-Serif" font-size="10.00"># nextAnynomousDataId</text>
<text text-anchor="start" x="8" y="-403" font-family="Helvetica,sans-Serif" font-size="10.00">|+ Data()</text>
<text text-anchor="start" x="8" y="-392" font-family="Helvetica,sans-Serif" font-size="10.00">+ ~Data()</text>
<text text-anchor="start" x="8" y="-381" font-family="Helvetica,sans-Serif" font-size="10.00">+ getName()</text>
<text text-anchor="start" x="8" y="-370" font-family="Helvetica,sans-Serif" font-size="10.00">+ getTypeName()</text>
<text text-anchor="start" x="8" y="-359" font-family="Helvetica,sans-Serif" font-size="10.00">+ getStage()</text>
<text text-anchor="start" x="8" y="-348" font-family="Helvetica,sans-Serif" font-size="10.00">+ get()</text>
<text text-anchor="start" x="8" y="-337" font-family="Helvetica,sans-Serif" font-size="10.00"># Data()</text>
<text text-anchor="middle" x="70" y="-326" font-family="Helvetica,sans-Serif" font-size="10.00">}</text>
</a>
</g>
</g>
<!-- Node4&#45;&gt;Node3 -->
<g id="edge3" class="edge">
<title>Node4&#45;&gt;Node3</title>
<path fill="none" stroke="#63b8ff" d="M70,-307.3C70,-298.84 70,-290.65 70,-283.18"/>
<polygon fill="none" stroke="#63b8ff" points="66.5,-307.04 70,-317.04 73.5,-307.04 66.5,-307.04"/>
</g>
</g>
</svg>
