<?xml version="1.0" encoding="UTF-8" standalone="no"?>
<!DOCTYPE svg PUBLIC "-//W3C//DTD SVG 1.1//EN"
 "http://www.w3.org/Graphics/SVG/1.1/DTD/svg11.dtd">
<!-- Generated by graphviz version 5.0.1 (0)
 -->
<!-- Title: TensorSlicer.cxx Pages: 1 -->
<svg width="2416pt" height="357pt"
 viewBox="0.00 0.00 2416.00 357.00" xmlns="http://www.w3.org/2000/svg" xmlns:xlink="http://www.w3.org/1999/xlink">
<g id="graph0" class="graph" transform="scale(1 1) rotate(0) translate(4 353)">
<title>TensorSlicer.cxx</title>
<!-- Node1 -->
<g id="node1" class="node">
<title>Node1</title>
<g id="a_node1"><a xlink:title=" ">
<polygon fill="#999999" stroke="#666666" points="835,-349 740,-349 740,-330 835,-330 835,-349"/>
<text text-anchor="middle" x="787.5" y="-337" font-family="Helvetica,sans-Serif" font-size="10.00">TensorSlicer.cxx</text>
</a>
</g>
</g>
<!-- Node2 -->
<g id="node2" class="node">
<title>Node2</title>
<g id="a_node2"><a xlink:href="TensorSlicer_8hpp.html" target="_top" xlink:title=" ">
<polygon fill="white" stroke="#666666" points="679,-294 528,-294 528,-275 679,-275 679,-294"/>
<text text-anchor="middle" x="603.5" y="-282" font-family="Helvetica,sans-Serif" font-size="10.00">algorithms/TensorSlicer.hpp</text>
</a>
</g>
</g>
<!-- Node1&#45;&gt;Node2 -->
<g id="edge1" class="edge">
<title>Node1&#45;&gt;Node2</title>
<path fill="none" stroke="#63b8ff" d="M757.94,-329.98C726.78,-321.01 677.53,-306.82 643.04,-296.89"/>
<polygon fill="#63b8ff" stroke="#63b8ff" points="643.87,-293.49 633.29,-294.08 641.93,-300.21 643.87,-293.49"/>
</g>
<!-- Node5 -->
<g id="node5" class="node">
<title>Node5</title>
<g id="a_node5"><a xlink:href="Log_8hpp.html" target="_top" xlink:title=" ">
<polygon fill="white" stroke="#666666" points="937.5,-129 863.5,-129 863.5,-110 937.5,-110 937.5,-129"/>
<text text-anchor="middle" x="900.5" y="-117" font-family="Helvetica,sans-Serif" font-size="10.00">util/Log.hpp</text>
</a>
</g>
</g>
<!-- Node1&#45;&gt;Node5 -->
<g id="edge35" class="edge">
<title>Node1&#45;&gt;Node5</title>
<path fill="none" stroke="#63b8ff" d="M797.93,-329.76C822.79,-308.16 885.15,-249.22 907.5,-184 912.5,-169.41 910,-151.93 906.68,-139.01"/>
<polygon fill="#63b8ff" stroke="#63b8ff" points="910.03,-137.99 903.84,-129.39 903.31,-139.97 910.03,-137.99"/>
</g>
<!-- Node11 -->
<g id="node11" class="node">
<title>Node11</title>
<g id="a_node11"><a xlink:title=" ">
<polygon fill="#e0e0e0" stroke="#999999" points="767.5,-19 711.5,-19 711.5,0 767.5,0 767.5,-19"/>
<text text-anchor="middle" x="739.5" y="-7" font-family="Helvetica,sans-Serif" font-size="10.00">sstream</text>
</a>
</g>
</g>
<!-- Node1&#45;&gt;Node11 -->
<g id="edge37" class="edge">
<title>Node1&#45;&gt;Node11</title>
<path fill="none" stroke="#63b8ff" d="M783.33,-329.77C775.09,-311.69 757.5,-268.64 757.5,-230.5 757.5,-230.5 757.5,-230.5 757.5,-173.5 757.5,-120.99 748.16,-59.54 742.93,-29.28"/>
<polygon fill="#63b8ff" stroke="#63b8ff" points="746.36,-28.53 741.16,-19.3 739.46,-29.75 746.36,-28.53"/>
</g>
<!-- Node14 -->
<g id="node14" class="node">
<title>Node14</title>
<g id="a_node14"><a xlink:title=" ">
<polygon fill="#e0e0e0" stroke="#999999" points="1012.5,-74 952.5,-74 952.5,-55 1012.5,-55 1012.5,-74"/>
<text text-anchor="middle" x="982.5" y="-62" font-family="Helvetica,sans-Serif" font-size="10.00">iostream</text>
</a>
</g>
</g>
<!-- Node1&#45;&gt;Node14 -->
<g id="edge36" class="edge">
<title>Node1&#45;&gt;Node14</title>
<path fill="none" stroke="#63b8ff" d="M835.4,-331.81C890.51,-321.09 973.5,-294.35 973.5,-230.5 973.5,-230.5 973.5,-230.5 973.5,-173.5 973.5,-142.08 977.33,-105.7 979.99,-84.2"/>
<polygon fill="#63b8ff" stroke="#63b8ff" points="983.48,-84.52 981.29,-74.16 976.54,-83.63 983.48,-84.52"/>
</g>
<!-- Node26 -->
<g id="node26" class="node">
<title>Node26</title>
<g id="a_node26"><a xlink:href="Sisi4s_8hpp.html" target="_top" xlink:title=" ">
<polygon fill="white" stroke="#666666" points="851.5,-239 785.5,-239 785.5,-220 851.5,-220 851.5,-239"/>
<text text-anchor="middle" x="818.5" y="-227" font-family="Helvetica,sans-Serif" font-size="10.00">Sisi4s.hpp</text>
</a>
</g>
</g>
<!-- Node1&#45;&gt;Node26 -->
<g id="edge38" class="edge">
<title>Node1&#45;&gt;Node26</title>
<path fill="none" stroke="#63b8ff" d="M790.04,-329.66C795.08,-312.09 806.46,-272.45 813.2,-248.95"/>
<polygon fill="#63b8ff" stroke="#63b8ff" points="816.62,-249.74 816.01,-239.16 809.89,-247.8 816.62,-249.74"/>
</g>
<!-- Node44 -->
<g id="node44" class="node">
<title>Node44</title>
<g id="a_node44"><a xlink:href="Parsing_8hpp.html" target="_top" xlink:title=" ">
<polygon fill="white" stroke="#666666" points="273.5,-129 181.5,-129 181.5,-110 273.5,-110 273.5,-129"/>
<text text-anchor="middle" x="227.5" y="-117" font-family="Helvetica,sans-Serif" font-size="10.00">util/Parsing.hpp</text>
</a>
</g>
</g>
<!-- Node1&#45;&gt;Node44 -->
<g id="edge68" class="edge">
<title>Node1&#45;&gt;Node44</title>
<path fill="none" stroke="#63b8ff" d="M739.98,-335.99C685.14,-331.89 592.96,-321.25 518.5,-294 407.4,-253.34 291.24,-169.47 246.55,-135.39"/>
<polygon fill="#63b8ff" stroke="#63b8ff" points="248.42,-132.41 238.36,-129.08 244.15,-137.95 248.42,-132.41"/>
</g>
<!-- Node3 -->
<g id="node3" class="node">
<title>Node3</title>
<g id="a_node3"><a xlink:href="Algorithm_8hpp.html" target="_top" xlink:title=" ">
<polygon fill="white" stroke="#666666" points="583,-239 442,-239 442,-220 583,-220 583,-239"/>
<text text-anchor="middle" x="512.5" y="-227" font-family="Helvetica,sans-Serif" font-size="10.00">algorithms/Algorithm.hpp</text>
</a>
</g>
</g>
<!-- Node2&#45;&gt;Node3 -->
<g id="edge2" class="edge">
<title>Node2&#45;&gt;Node3</title>
<path fill="none" stroke="#63b8ff" d="M588.88,-274.98C574.64,-266.69 552.75,-253.94 536.05,-244.22"/>
<polygon fill="#63b8ff" stroke="#63b8ff" points="537.79,-241.18 527.39,-239.17 534.27,-247.23 537.79,-241.18"/>
</g>
<!-- Node4 -->
<g id="node4" class="node">
<title>Node4</title>
<g id="a_node4"><a xlink:href="Data_8hpp.html" target="_top" xlink:title=" ">
<polygon fill="white" stroke="#666666" points="497,-184 436,-184 436,-165 497,-165 497,-184"/>
<text text-anchor="middle" x="466.5" y="-172" font-family="Helvetica,sans-Serif" font-size="10.00">Data.hpp</text>
</a>
</g>
</g>
<!-- Node3&#45;&gt;Node4 -->
<g id="edge3" class="edge">
<title>Node3&#45;&gt;Node4</title>
<path fill="none" stroke="#63b8ff" d="M504.9,-219.75C498.34,-212.18 488.68,-201.05 480.69,-191.84"/>
<polygon fill="#63b8ff" stroke="#63b8ff" points="483.15,-189.35 473.95,-184.09 477.87,-193.94 483.15,-189.35"/>
</g>
<!-- Node3&#45;&gt;Node11 -->
<g id="edge33" class="edge">
<title>Node3&#45;&gt;Node11</title>
<path fill="none" stroke="#63b8ff" d="M552.54,-219.96C577.98,-213.17 610.67,-201.79 635.5,-184 691.13,-144.15 722.32,-64.46 734.05,-28.65"/>
<polygon fill="#63b8ff" stroke="#63b8ff" points="737.41,-29.63 737.07,-19.04 730.74,-27.53 737.41,-29.63"/>
</g>
<!-- Node13 -->
<g id="node13" class="node">
<title>Node13</title>
<g id="a_node13"><a xlink:title=" ">
<polygon fill="#e0e0e0" stroke="#999999" points="673.5,-74 629.5,-74 629.5,-55 673.5,-55 673.5,-74"/>
<text text-anchor="middle" x="651.5" y="-62" font-family="Helvetica,sans-Serif" font-size="10.00">string</text>
</a>
</g>
</g>
<!-- Node3&#45;&gt;Node13 -->
<g id="edge31" class="edge">
<title>Node3&#45;&gt;Node13</title>
<path fill="none" stroke="#63b8ff" d="M538.76,-219.96C574.3,-206.81 636.27,-177.88 662.5,-129 670.01,-115 665.8,-96.99 660.57,-83.72"/>
<polygon fill="#63b8ff" stroke="#63b8ff" points="663.62,-81.98 656.35,-74.27 657.23,-84.83 663.62,-81.98"/>
</g>
<!-- Node21 -->
<g id="node21" class="node">
<title>Node21</title>
<g id="a_node21"><a xlink:title=" ">
<polygon fill="#e0e0e0" stroke="#999999" points="344,-74 297,-74 297,-55 344,-55 344,-74"/>
<text text-anchor="middle" x="320.5" y="-62" font-family="Helvetica,sans-Serif" font-size="10.00">vector</text>
</a>
</g>
</g>
<!-- Node3&#45;&gt;Node21 -->
<g id="edge32" class="edge">
<title>Node3&#45;&gt;Node21</title>
<path fill="none" stroke="#63b8ff" d="M482.29,-219.94C442.75,-207.08 374.39,-178.8 339.5,-129 330.11,-115.6 325.29,-97.5 322.86,-84.05"/>
<polygon fill="#63b8ff" stroke="#63b8ff" points="326.3,-83.41 321.33,-74.05 319.38,-84.46 326.3,-83.41"/>
</g>
<!-- Node22 -->
<g id="node22" class="node">
<title>Node22</title>
<g id="a_node22"><a xlink:href="Tensor_8hpp.html" target="_top" xlink:title=" ">
<polygon fill="white" stroke="#666666" points="455,-129 368,-129 368,-110 455,-110 455,-129"/>
<text text-anchor="middle" x="411.5" y="-117" font-family="Helvetica,sans-Serif" font-size="10.00">util/Tensor.hpp</text>
</a>
</g>
</g>
<!-- Node3&#45;&gt;Node22 -->
<g id="edge34" class="edge">
<title>Node3&#45;&gt;Node22</title>
<path fill="none" stroke="#63b8ff" d="M481.96,-219.91C463.27,-213.12 440.36,-201.76 426.5,-184 416.59,-171.3 413.06,-153.12 411.88,-139.46"/>
<polygon fill="#63b8ff" stroke="#63b8ff" points="415.37,-139.08 411.36,-129.28 408.38,-139.44 415.37,-139.08"/>
</g>
<!-- Node4&#45;&gt;Node5 -->
<g id="edge4" class="edge">
<title>Node4&#45;&gt;Node5</title>
<path fill="none" stroke="#63b8ff" d="M497.02,-169.77C571.63,-160.66 763.69,-137.21 853.23,-126.27"/>
<polygon fill="#63b8ff" stroke="#63b8ff" points="853.87,-129.72 863.37,-125.03 853.02,-122.77 853.87,-129.72"/>
</g>
<!-- Node4&#45;&gt;Node13 -->
<g id="edge21" class="edge">
<title>Node4&#45;&gt;Node13</title>
<path fill="none" stroke="#63b8ff" d="M474.87,-164.66C487.87,-151.33 514.16,-125.98 540.5,-110 565.55,-94.81 596.71,-82.84 619.64,-75.16"/>
<polygon fill="#63b8ff" stroke="#63b8ff" points="620.8,-78.46 629.22,-72.04 618.63,-71.81 620.8,-78.46"/>
</g>
<!-- Node17 -->
<g id="node17" class="node">
<title>Node17</title>
<g id="a_node17"><a xlink:href="Float_8hpp.html" target="_top" xlink:title=" ">
<polygon fill="white" stroke="#666666" points="91,-74 0,-74 0,-55 91,-55 91,-74"/>
<text text-anchor="middle" x="45.5" y="-62" font-family="Helvetica,sans-Serif" font-size="10.00">math/Float.hpp</text>
</a>
</g>
</g>
<!-- Node4&#45;&gt;Node17 -->
<g id="edge16" class="edge">
<title>Node4&#45;&gt;Node17</title>
<path fill="none" stroke="#63b8ff" d="M435.7,-172.58C342.88,-169.49 70.62,-158.02 44.5,-129 33.68,-116.98 35.59,-97.9 39.19,-83.79"/>
<polygon fill="#63b8ff" stroke="#63b8ff" points="42.55,-84.75 42.09,-74.17 35.85,-82.73 42.55,-84.75"/>
</g>
<!-- Node18 -->
<g id="node18" class="node">
<title>Node18</title>
<g id="a_node18"><a xlink:href="Complex_8hpp.html" target="_top" xlink:title=" ">
<polygon fill="white" stroke="#666666" points="163.5,-129 53.5,-129 53.5,-110 163.5,-110 163.5,-129"/>
<text text-anchor="middle" x="108.5" y="-117" font-family="Helvetica,sans-Serif" font-size="10.00">math/Complex.hpp</text>
</a>
</g>
</g>
<!-- Node4&#45;&gt;Node18 -->
<g id="edge18" class="edge">
<title>Node4&#45;&gt;Node18</title>
<path fill="none" stroke="#63b8ff" d="M435.98,-168.98C378.21,-160.43 251.71,-141.7 173.94,-130.19"/>
<polygon fill="#63b8ff" stroke="#63b8ff" points="174.17,-126.68 163.77,-128.68 173.15,-133.61 174.17,-126.68"/>
</g>
<!-- Node20 -->
<g id="node20" class="node">
<title>Node20</title>
<g id="a_node20"><a xlink:title=" ">
<polygon fill="#e0e0e0" stroke="#999999" points="1142.5,-74 1104.5,-74 1104.5,-55 1142.5,-55 1142.5,-74"/>
<text text-anchor="middle" x="1123.5" y="-62" font-family="Helvetica,sans-Serif" font-size="10.00">map</text>
</a>
</g>
</g>
<!-- Node4&#45;&gt;Node20 -->
<g id="edge22" class="edge">
<title>Node4&#45;&gt;Node20</title>
<path fill="none" stroke="#63b8ff" d="M497.24,-173.32C573.98,-172.29 779.83,-166 946.5,-129 1000.6,-116.99 1060.77,-92.99 1095.18,-78.18"/>
<polygon fill="#63b8ff" stroke="#63b8ff" points="1096.82,-81.28 1104.59,-74.08 1094.02,-74.87 1096.82,-81.28"/>
</g>
<!-- Node4&#45;&gt;Node21 -->
<g id="edge23" class="edge">
<title>Node4&#45;&gt;Node21</title>
<path fill="none" stroke="#63b8ff" d="M435.76,-166.48C412.47,-159.92 380.78,-148.19 358.5,-129 344.23,-116.7 333.84,-97.66 327.57,-83.64"/>
<polygon fill="#63b8ff" stroke="#63b8ff" points="330.66,-81.96 323.58,-74.08 324.2,-84.66 330.66,-81.96"/>
</g>
<!-- Node4&#45;&gt;Node22 -->
<g id="edge24" class="edge">
<title>Node4&#45;&gt;Node22</title>
<path fill="none" stroke="#63b8ff" d="M457.42,-164.75C449.41,-157.03 437.54,-145.6 427.88,-136.28"/>
<polygon fill="#63b8ff" stroke="#63b8ff" points="430.04,-133.51 420.41,-129.09 425.19,-138.55 430.04,-133.51"/>
</g>
<!-- Node25 -->
<g id="node25" class="node">
<title>Node25</title>
<g id="a_node25"><a xlink:href="Exception_8hpp.html" target="_top" xlink:title=" ">
<polygon fill="white" stroke="#666666" points="653.5,-129 549.5,-129 549.5,-110 653.5,-110 653.5,-129"/>
<text text-anchor="middle" x="601.5" y="-117" font-family="Helvetica,sans-Serif" font-size="10.00">util/Exception.hpp</text>
</a>
</g>
</g>
<!-- Node4&#45;&gt;Node25 -->
<g id="edge27" class="edge">
<title>Node4&#45;&gt;Node25</title>
<path fill="none" stroke="#63b8ff" d="M488.19,-164.98C510.3,-156.3 544.82,-142.75 569.95,-132.88"/>
<polygon fill="#63b8ff" stroke="#63b8ff" points="571.39,-136.08 579.42,-129.17 568.83,-129.57 571.39,-136.08"/>
</g>
<!-- Node6 -->
<g id="node6" class="node">
<title>Node6</title>
<g id="a_node6"><a xlink:href="Time_8hpp.html" target="_top" xlink:title=" ">
<polygon fill="white" stroke="#666666" points="849,-74 768,-74 768,-55 849,-55 849,-74"/>
<text text-anchor="middle" x="808.5" y="-62" font-family="Helvetica,sans-Serif" font-size="10.00">util/Time.hpp</text>
</a>
</g>
</g>
<!-- Node5&#45;&gt;Node6 -->
<g id="edge5" class="edge">
<title>Node5&#45;&gt;Node6</title>
<path fill="none" stroke="#63b8ff" d="M885.72,-109.98C871.32,-101.69 849.19,-88.94 832.31,-79.22"/>
<polygon fill="#63b8ff" stroke="#63b8ff" points="833.96,-76.13 823.55,-74.17 830.47,-82.19 833.96,-76.13"/>
</g>
<!-- Node5&#45;&gt;Node13 -->
<g id="edge12" class="edge">
<title>Node5&#45;&gt;Node13</title>
<path fill="none" stroke="#63b8ff" d="M863.49,-110.62C814.72,-100.24 729.75,-82.15 683.58,-72.33"/>
<polygon fill="#63b8ff" stroke="#63b8ff" points="684.04,-68.85 673.53,-70.19 682.58,-75.69 684.04,-68.85"/>
</g>
<!-- Node5&#45;&gt;Node14 -->
<g id="edge13" class="edge">
<title>Node5&#45;&gt;Node14</title>
<path fill="none" stroke="#63b8ff" d="M913.67,-109.98C926.27,-101.84 945.5,-89.41 960.44,-79.76"/>
<polygon fill="#63b8ff" stroke="#63b8ff" points="962.59,-82.54 969.09,-74.17 958.79,-76.66 962.59,-82.54"/>
</g>
<!-- Node15 -->
<g id="node15" class="node">
<title>Node15</title>
<g id="a_node15"><a xlink:title=" ">
<polygon fill="#e0e0e0" stroke="#999999" points="934,-74 867,-74 867,-55 934,-55 934,-74"/>
<text text-anchor="middle" x="900.5" y="-62" font-family="Helvetica,sans-Serif" font-size="10.00">streambuf</text>
</a>
</g>
</g>
<!-- Node5&#45;&gt;Node15 -->
<g id="edge14" class="edge">
<title>Node5&#45;&gt;Node15</title>
<path fill="none" stroke="#63b8ff" d="M900.5,-109.75C900.5,-102.8 900.5,-92.85 900.5,-84.13"/>
<polygon fill="#63b8ff" stroke="#63b8ff" points="904,-84.09 900.5,-74.09 897,-84.09 904,-84.09"/>
</g>
<!-- Node16 -->
<g id="node16" class="node">
<title>Node16</title>
<g id="a_node16"><a xlink:title=" ">
<polygon fill="#e0e0e0" stroke="#999999" points="1086,-74 1031,-74 1031,-55 1086,-55 1086,-74"/>
<text text-anchor="middle" x="1058.5" y="-62" font-family="Helvetica,sans-Serif" font-size="10.00">fstream</text>
</a>
</g>
</g>
<!-- Node5&#45;&gt;Node16 -->
<g id="edge15" class="edge">
<title>Node5&#45;&gt;Node16</title>
<path fill="none" stroke="#63b8ff" d="M925.89,-109.98C952.3,-101.13 993.85,-87.19 1023.39,-77.28"/>
<polygon fill="#63b8ff" stroke="#63b8ff" points="1024.55,-80.58 1032.92,-74.08 1022.32,-73.94 1024.55,-80.58"/>
</g>
<!-- Node7 -->
<g id="node7" class="node">
<title>Node7</title>
<g id="a_node7"><a xlink:title=" ">
<polygon fill="#e0e0e0" stroke="#999999" points="830.5,-19 786.5,-19 786.5,0 830.5,0 830.5,-19"/>
<text text-anchor="middle" x="808.5" y="-7" font-family="Helvetica,sans-Serif" font-size="10.00">ctime</text>
</a>
</g>
</g>
<!-- Node6&#45;&gt;Node7 -->
<g id="edge6" class="edge">
<title>Node6&#45;&gt;Node7</title>
<path fill="none" stroke="#63b8ff" d="M808.5,-54.75C808.5,-47.8 808.5,-37.85 808.5,-29.13"/>
<polygon fill="#63b8ff" stroke="#63b8ff" points="812,-29.09 808.5,-19.09 805,-29.09 812,-29.09"/>
</g>
<!-- Node8 -->
<g id="node8" class="node">
<title>Node8</title>
<g id="a_node8"><a xlink:title=" ">
<polygon fill="#e0e0e0" stroke="#999999" points="1443.5,-19 1393.5,-19 1393.5,0 1443.5,0 1443.5,-19"/>
<text text-anchor="middle" x="1418.5" y="-7" font-family="Helvetica,sans-Serif" font-size="10.00">cstdint</text>
</a>
</g>
</g>
<!-- Node6&#45;&gt;Node8 -->
<g id="edge7" class="edge">
<title>Node6&#45;&gt;Node8</title>
<path fill="none" stroke="#63b8ff" d="M849.1,-56.16C851.94,-55.74 854.76,-55.35 857.5,-55 1055.44,-30.04 1294.54,-16.58 1383.2,-12.16"/>
<polygon fill="#63b8ff" stroke="#63b8ff" points="1383.44,-15.65 1393.25,-11.67 1383.09,-8.66 1383.44,-15.65"/>
</g>
<!-- Node9 -->
<g id="node9" class="node">
<title>Node9</title>
<g id="a_node9"><a xlink:title=" ">
<polygon fill="#e0e0e0" stroke="#999999" points="286,-19 229,-19 229,0 286,0 286,-19"/>
<text text-anchor="middle" x="257.5" y="-7" font-family="Helvetica,sans-Serif" font-size="10.00">ostream</text>
</a>
</g>
</g>
<!-- Node6&#45;&gt;Node9 -->
<g id="edge8" class="edge">
<title>Node6&#45;&gt;Node9</title>
<path fill="none" stroke="#63b8ff" d="M767.98,-59.6C665.49,-49.74 396.91,-23.91 296.3,-14.23"/>
<polygon fill="#63b8ff" stroke="#63b8ff" points="296.55,-10.74 286.26,-13.27 295.88,-17.71 296.55,-10.74"/>
</g>
<!-- Node10 -->
<g id="node10" class="node">
<title>Node10</title>
<g id="a_node10"><a xlink:title=" ">
<polygon fill="#e0e0e0" stroke="#999999" points="1789.5,-19 1733.5,-19 1733.5,0 1789.5,0 1789.5,-19"/>
<text text-anchor="middle" x="1761.5" y="-7" font-family="Helvetica,sans-Serif" font-size="10.00">iomanip</text>
</a>
</g>
</g>
<!-- Node6&#45;&gt;Node10 -->
<g id="edge9" class="edge">
<title>Node6&#45;&gt;Node10</title>
<path fill="none" stroke="#63b8ff" d="M849.09,-56.06C851.93,-55.67 854.75,-55.3 857.5,-55 1029.27,-35.95 1573.3,-16.78 1723.03,-11.76"/>
<polygon fill="#63b8ff" stroke="#63b8ff" points="1723.24,-15.26 1733.12,-11.43 1723.01,-8.26 1723.24,-15.26"/>
</g>
<!-- Node6&#45;&gt;Node11 -->
<g id="edge10" class="edge">
<title>Node6&#45;&gt;Node11</title>
<path fill="none" stroke="#63b8ff" d="M797.41,-54.98C787.01,-47 771.24,-34.88 758.78,-25.31"/>
<polygon fill="#63b8ff" stroke="#63b8ff" points="760.85,-22.49 750.79,-19.17 756.59,-28.04 760.85,-22.49"/>
</g>
<!-- Node12 -->
<g id="node12" class="node">
<title>Node12</title>
<g id="a_node12"><a xlink:title=" ">
<polygon fill="#e0e0e0" stroke="#999999" points="1991,-19 1944,-19 1944,0 1991,0 1991,-19"/>
<text text-anchor="middle" x="1967.5" y="-7" font-family="Helvetica,sans-Serif" font-size="10.00">cmath</text>
</a>
</g>
</g>
<!-- Node6&#45;&gt;Node12 -->
<g id="edge11" class="edge">
<title>Node6&#45;&gt;Node12</title>
<path fill="none" stroke="#63b8ff" d="M849.08,-56.03C851.93,-55.64 854.75,-55.29 857.5,-55 1273.72,-11.14 1380.38,-37.51 1798.5,-19 1845.37,-16.92 1899.54,-14.13 1933.66,-12.32"/>
<polygon fill="#63b8ff" stroke="#63b8ff" points="1934.19,-15.8 1943.99,-11.77 1933.82,-8.81 1934.19,-15.8"/>
</g>
<!-- Node17&#45;&gt;Node9 -->
<g id="edge17" class="edge">
<title>Node17&#45;&gt;Node9</title>
<path fill="none" stroke="#63b8ff" d="M79.56,-54.98C117.68,-45.46 179.29,-30.05 219.09,-20.1"/>
<polygon fill="#63b8ff" stroke="#63b8ff" points="220.11,-23.46 228.96,-17.63 218.41,-16.66 220.11,-23.46"/>
</g>
<!-- Node18&#45;&gt;Node17 -->
<g id="edge19" class="edge">
<title>Node18&#45;&gt;Node17</title>
<path fill="none" stroke="#63b8ff" d="M98.38,-109.98C89.06,-102.15 75.03,-90.34 63.76,-80.86"/>
<polygon fill="#63b8ff" stroke="#63b8ff" points="65.71,-77.93 55.81,-74.17 61.21,-83.29 65.71,-77.93"/>
</g>
<!-- Node19 -->
<g id="node19" class="node">
<title>Node19</title>
<g id="a_node19"><a xlink:title=" ">
<polygon fill="#e0e0e0" stroke="#999999" points="168,-74 109,-74 109,-55 168,-55 168,-74"/>
<text text-anchor="middle" x="138.5" y="-62" font-family="Helvetica,sans-Serif" font-size="10.00">complex</text>
</a>
</g>
</g>
<!-- Node18&#45;&gt;Node19 -->
<g id="edge20" class="edge">
<title>Node18&#45;&gt;Node19</title>
<path fill="none" stroke="#63b8ff" d="M113.45,-109.75C117.56,-102.49 123.53,-91.95 128.6,-82.98"/>
<polygon fill="#63b8ff" stroke="#63b8ff" points="131.76,-84.52 133.64,-74.09 125.67,-81.07 131.76,-84.52"/>
</g>
<!-- Node23 -->
<g id="node23" class="node">
<title>Node23</title>
<g id="a_node23"><a xlink:href="CTF_8hpp.html" target="_top" xlink:title=" ">
<polygon fill="white" stroke="#666666" points="503.5,-74 429.5,-74 429.5,-55 503.5,-55 503.5,-74"/>
<text text-anchor="middle" x="466.5" y="-62" font-family="Helvetica,sans-Serif" font-size="10.00">util/CTF.hpp</text>
</a>
</g>
</g>
<!-- Node22&#45;&gt;Node23 -->
<g id="edge25" class="edge">
<title>Node22&#45;&gt;Node23</title>
<path fill="none" stroke="#63b8ff" d="M420.58,-109.75C428.59,-102.03 440.46,-90.6 450.12,-81.28"/>
<polygon fill="#63b8ff" stroke="#63b8ff" points="452.81,-83.55 457.59,-74.09 447.96,-78.51 452.81,-83.55"/>
</g>
<!-- Node24 -->
<g id="node24" class="node">
<title>Node24</title>
<g id="a_node24"><a xlink:title=" ">
<polygon fill="#e0e0e0" stroke="#999999" points="491.5,-19 441.5,-19 441.5,0 491.5,0 491.5,-19"/>
<text text-anchor="middle" x="466.5" y="-7" font-family="Helvetica,sans-Serif" font-size="10.00">ctf.hpp</text>
</a>
</g>
</g>
<!-- Node23&#45;&gt;Node24 -->
<g id="edge26" class="edge">
<title>Node23&#45;&gt;Node24</title>
<path fill="none" stroke="#63b8ff" d="M466.5,-54.75C466.5,-47.8 466.5,-37.85 466.5,-29.13"/>
<polygon fill="#63b8ff" stroke="#63b8ff" points="470,-29.09 466.5,-19.09 463,-29.09 470,-29.09"/>
</g>
<!-- Node25&#45;&gt;Node11 -->
<g id="edge29" class="edge">
<title>Node25&#45;&gt;Node11</title>
<path fill="none" stroke="#63b8ff" d="M601.73,-109.93C602.55,-96.5 606.04,-70.47 620.5,-55 641.58,-32.46 675.17,-21.26 701.29,-15.75"/>
<polygon fill="#63b8ff" stroke="#63b8ff" points="702.09,-19.16 711.25,-13.84 700.77,-12.28 702.09,-19.16"/>
</g>
<!-- Node25&#45;&gt;Node13 -->
<g id="edge28" class="edge">
<title>Node25&#45;&gt;Node13</title>
<path fill="none" stroke="#63b8ff" d="M609.76,-109.75C616.96,-102.11 627.61,-90.82 636.35,-81.56"/>
<polygon fill="#63b8ff" stroke="#63b8ff" points="639.08,-83.76 643.4,-74.09 633.99,-78.96 639.08,-83.76"/>
</g>
<!-- Node25&#45;&gt;Node14 -->
<g id="edge30" class="edge">
<title>Node25&#45;&gt;Node14</title>
<path fill="none" stroke="#63b8ff" d="M653.69,-113C720.76,-105.63 840.69,-91.43 942.5,-74 942.6,-73.98 942.7,-73.97 942.8,-73.95"/>
<polygon fill="#63b8ff" stroke="#63b8ff" points="943.22,-77.43 952.41,-72.16 941.94,-70.55 943.22,-77.43"/>
</g>
<!-- Node26&#45;&gt;Node6 -->
<g id="edge39" class="edge">
<title>Node26&#45;&gt;Node6</title>
<path fill="none" stroke="#63b8ff" d="M817.63,-219.98C816.75,-211.03 815.38,-196.54 814.5,-184 812.03,-148.84 810.18,-107.75 809.23,-84.36"/>
<polygon fill="#63b8ff" stroke="#63b8ff" points="812.72,-83.98 808.82,-74.13 805.72,-84.26 812.72,-83.98"/>
</g>
<!-- Node26&#45;&gt;Node23 -->
<g id="edge40" class="edge">
<title>Node26&#45;&gt;Node23</title>
<path fill="none" stroke="#63b8ff" d="M785.13,-220.78C731.16,-207.39 622.49,-176.65 540.5,-129 517.99,-115.92 495.81,-95.63 481.7,-81.52"/>
<polygon fill="#63b8ff" stroke="#63b8ff" points="483.87,-78.74 474.38,-74.03 478.86,-83.63 483.87,-78.74"/>
</g>
<!-- Node27 -->
<g id="node27" class="node">
<title>Node27</title>
<g id="a_node27"><a xlink:href="Options_8hpp.html" target="_top" xlink:title=" ">
<polygon fill="white" stroke="#666666" points="899,-184 824,-184 824,-165 899,-165 899,-184"/>
<text text-anchor="middle" x="861.5" y="-172" font-family="Helvetica,sans-Serif" font-size="10.00">Options.hpp</text>
</a>
</g>
</g>
<!-- Node26&#45;&gt;Node27 -->
<g id="edge41" class="edge">
<title>Node26&#45;&gt;Node27</title>
<path fill="none" stroke="#63b8ff" d="M825.6,-219.75C831.67,-212.26 840.59,-201.28 848.01,-192.13"/>
<polygon fill="#63b8ff" stroke="#63b8ff" points="850.95,-194.06 854.53,-184.09 845.51,-189.65 850.95,-194.06"/>
</g>
<!-- Node27&#45;&gt;Node13 -->
<g id="edge42" class="edge">
<title>Node27&#45;&gt;Node13</title>
<path fill="none" stroke="#63b8ff" d="M844.67,-164.84C808.02,-146 720.81,-101.14 677.22,-78.73"/>
<polygon fill="#63b8ff" stroke="#63b8ff" points="678.61,-75.51 668.12,-74.05 675.41,-81.73 678.61,-75.51"/>
</g>
<!-- Node28 -->
<g id="node28" class="node">
<title>Node28</title>
<g id="a_node28"><a xlink:href="CLI11_8hpp.html" target="_top" xlink:title=" ">
<polygon fill="white" stroke="#666666" points="1622,-129 1523,-129 1523,-110 1622,-110 1622,-129"/>
<text text-anchor="middle" x="1572.5" y="-117" font-family="Helvetica,sans-Serif" font-size="10.00">extern/CLI11.hpp</text>
</a>
</g>
</g>
<!-- Node27&#45;&gt;Node28 -->
<g id="edge43" class="edge">
<title>Node27&#45;&gt;Node28</title>
<path fill="none" stroke="#63b8ff" d="M899.22,-170.69C1015.74,-162 1370.57,-135.55 1512.7,-124.96"/>
<polygon fill="#63b8ff" stroke="#63b8ff" points="1513.25,-128.43 1522.96,-124.19 1512.73,-121.45 1513.25,-128.43"/>
</g>
<!-- Node28&#45;&gt;Node8 -->
<g id="edge57" class="edge">
<title>Node28&#45;&gt;Node8</title>
<path fill="none" stroke="#63b8ff" d="M1622.14,-118.8C1747.51,-118.73 2063.2,-112.89 2009.5,-55 1990.5,-34.52 1578.42,-16.76 1453.85,-11.85"/>
<polygon fill="#63b8ff" stroke="#63b8ff" points="1453.84,-8.34 1443.71,-11.45 1453.57,-15.34 1453.84,-8.34"/>
</g>
<!-- Node28&#45;&gt;Node10 -->
<g id="edge53" class="edge">
<title>Node28&#45;&gt;Node10</title>
<path fill="none" stroke="#63b8ff" d="M1622.24,-117.31C1734.48,-114.13 1999.73,-103.52 2026.5,-74 2032.17,-67.74 2031.95,-61.45 2026.5,-55 1997.9,-21.19 1865.98,-13.06 1799.71,-11.11"/>
<polygon fill="#63b8ff" stroke="#63b8ff" points="1799.76,-7.61 1789.67,-10.84 1799.57,-14.6 1799.76,-7.61"/>
</g>
<!-- Node28&#45;&gt;Node11 -->
<g id="edge55" class="edge">
<title>Node28&#45;&gt;Node11</title>
<path fill="none" stroke="#63b8ff" d="M1522.91,-118.01C1449.03,-116.11 1306.33,-107.89 1190.5,-74 1171.99,-68.59 1170.06,-60.23 1151.5,-55 990.77,-9.71 942.41,-45.28 777.5,-19 777.4,-18.98 777.3,-18.97 777.2,-18.95"/>
<polygon fill="#63b8ff" stroke="#63b8ff" points="778.11,-15.56 767.65,-17.2 776.85,-22.45 778.11,-15.56"/>
</g>
<!-- Node28&#45;&gt;Node12 -->
<g id="edge46" class="edge">
<title>Node28&#45;&gt;Node12</title>
<path fill="none" stroke="#63b8ff" d="M1622.27,-117.49C1737.43,-114.65 2014.61,-104.65 2042.5,-74 2060.47,-54.24 2028.42,-34.91 2000.8,-22.86"/>
<polygon fill="#63b8ff" stroke="#63b8ff" points="2001.89,-19.52 1991.31,-18.92 1999.2,-25.98 2001.89,-19.52"/>
</g>
<!-- Node28&#45;&gt;Node13 -->
<g id="edge45" class="edge">
<title>Node28&#45;&gt;Node13</title>
<path fill="none" stroke="#63b8ff" d="M1522.92,-116.22C1395.82,-110.27 1047.99,-93.41 758.5,-74 733.37,-72.32 704.95,-70.04 683.72,-68.27"/>
<polygon fill="#63b8ff" stroke="#63b8ff" points="683.88,-64.77 673.62,-67.42 683.29,-71.74 683.88,-64.77"/>
</g>
<!-- Node28&#45;&gt;Node14 -->
<g id="edge58" class="edge">
<title>Node28&#45;&gt;Node14</title>
<path fill="none" stroke="#63b8ff" d="M1522.96,-116.63C1426.29,-112.51 1205.92,-100.8 1022.5,-74 1022.4,-73.99 1022.3,-73.97 1022.2,-73.96"/>
<polygon fill="#63b8ff" stroke="#63b8ff" points="1023.01,-70.54 1012.57,-72.32 1021.84,-77.45 1023.01,-70.54"/>
</g>
<!-- Node28&#45;&gt;Node16 -->
<g id="edge50" class="edge">
<title>Node28&#45;&gt;Node16</title>
<path fill="none" stroke="#63b8ff" d="M1522.79,-116.04C1437.53,-111.35 1257.86,-99.39 1096.42,-73.92"/>
<polygon fill="#63b8ff" stroke="#63b8ff" points="1096.73,-70.43 1086.3,-72.3 1095.62,-77.34 1096.73,-70.43"/>
</g>
<!-- Node28&#45;&gt;Node20 -->
<g id="edge49" class="edge">
<title>Node28&#45;&gt;Node20</title>
<path fill="none" stroke="#63b8ff" d="M1522.86,-115.53C1444.52,-110.33 1287.65,-97.77 1156.5,-74 1155.22,-73.77 1153.92,-73.51 1152.61,-73.24"/>
<polygon fill="#63b8ff" stroke="#63b8ff" points="1153.12,-69.77 1142.59,-70.92 1151.54,-76.59 1153.12,-69.77"/>
</g>
<!-- Node28&#45;&gt;Node21 -->
<g id="edge63" class="edge">
<title>Node28&#45;&gt;Node21</title>
<path fill="none" stroke="#63b8ff" d="M1522.77,-117.4C1362.76,-113.68 846.76,-100.33 420.5,-74 398.49,-72.64 373.8,-70.55 354.46,-68.78"/>
<polygon fill="#63b8ff" stroke="#63b8ff" points="354.6,-65.28 344.32,-67.84 353.95,-72.25 354.6,-65.28"/>
</g>
<!-- Node29 -->
<g id="node29" class="node">
<title>Node29</title>
<g id="a_node29"><a xlink:title=" ">
<polygon fill="#e0e0e0" stroke="#999999" points="2190.5,-74 2132.5,-74 2132.5,-55 2190.5,-55 2190.5,-74"/>
<text text-anchor="middle" x="2161.5" y="-62" font-family="Helvetica,sans-Serif" font-size="10.00">memory</text>
</a>
</g>
</g>
<!-- Node28&#45;&gt;Node29 -->
<g id="edge44" class="edge">
<title>Node28&#45;&gt;Node29</title>
<path fill="none" stroke="#63b8ff" d="M1622.02,-116.35C1718.12,-111.77 1936.46,-99.33 2118.5,-74 2119.77,-73.82 2121.06,-73.63 2122.37,-73.43"/>
<polygon fill="#63b8ff" stroke="#63b8ff" points="2123.16,-76.85 2132.43,-71.71 2121.99,-69.95 2123.16,-76.85"/>
</g>
<!-- Node30 -->
<g id="node30" class="node">
<title>Node30</title>
<g id="a_node30"><a xlink:title=" ">
<polygon fill="#e0e0e0" stroke="#999999" points="2274,-74 2209,-74 2209,-55 2274,-55 2274,-74"/>
<text text-anchor="middle" x="2241.5" y="-62" font-family="Helvetica,sans-Serif" font-size="10.00">functional</text>
</a>
</g>
</g>
<!-- Node28&#45;&gt;Node30 -->
<g id="edge47" class="edge">
<title>Node28&#45;&gt;Node30</title>
<path fill="none" stroke="#63b8ff" d="M1622.31,-117.14C1727.1,-113.82 1978.19,-103.39 2198.42,-73.96"/>
<polygon fill="#63b8ff" stroke="#63b8ff" points="2199.11,-77.39 2208.55,-72.59 2198.17,-70.46 2199.11,-77.39"/>
</g>
<!-- Node31 -->
<g id="node31" class="node">
<title>Node31</title>
<g id="a_node31"><a xlink:title=" ">
<polygon fill="#e0e0e0" stroke="#999999" points="2348.5,-74 2292.5,-74 2292.5,-55 2348.5,-55 2348.5,-74"/>
<text text-anchor="middle" x="2320.5" y="-62" font-family="Helvetica,sans-Serif" font-size="10.00">numeric</text>
</a>
</g>
</g>
<!-- Node28&#45;&gt;Node31 -->
<g id="edge48" class="edge">
<title>Node28&#45;&gt;Node31</title>
<path fill="none" stroke="#63b8ff" d="M1622.35,-118.17C1737.2,-116.81 2029.34,-109.94 2282.2,-73.93"/>
<polygon fill="#63b8ff" stroke="#63b8ff" points="2282.91,-77.37 2292.31,-72.48 2281.91,-70.44 2282.91,-77.37"/>
</g>
<!-- Node32 -->
<g id="node32" class="node">
<title>Node32</title>
<g id="a_node32"><a xlink:title=" ">
<polygon fill="#e0e0e0" stroke="#999999" points="2408,-74 2367,-74 2367,-55 2408,-55 2408,-74"/>
<text text-anchor="middle" x="2387.5" y="-62" font-family="Helvetica,sans-Serif" font-size="10.00">tuple</text>
</a>
</g>
</g>
<!-- Node28&#45;&gt;Node32 -->
<g id="edge51" class="edge">
<title>Node28&#45;&gt;Node32</title>
<path fill="none" stroke="#63b8ff" d="M1622.24,-117.11C1768.46,-112.8 2196.14,-98.55 2356.79,-73.61"/>
<polygon fill="#63b8ff" stroke="#63b8ff" points="2357.67,-77.02 2366.98,-71.96 2356.55,-70.11 2357.67,-77.02"/>
</g>
<!-- Node33 -->
<g id="node33" class="node">
<title>Node33</title>
<g id="a_node33"><a xlink:title=" ">
<polygon fill="#e0e0e0" stroke="#999999" points="1244,-74 1199,-74 1199,-55 1244,-55 1244,-74"/>
<text text-anchor="middle" x="1221.5" y="-62" font-family="Helvetica,sans-Serif" font-size="10.00">utility</text>
</a>
</g>
</g>
<!-- Node28&#45;&gt;Node33 -->
<g id="edge52" class="edge">
<title>Node28&#45;&gt;Node33</title>
<path fill="none" stroke="#63b8ff" d="M1522.73,-113.45C1461.73,-106.83 1355.07,-93.92 1254.2,-73.9"/>
<polygon fill="#63b8ff" stroke="#63b8ff" points="1254.64,-70.42 1244.15,-71.88 1253.26,-77.28 1254.64,-70.42"/>
</g>
<!-- Node34 -->
<g id="node34" class="node">
<title>Node34</title>
<g id="a_node34"><a xlink:title=" ">
<polygon fill="#e0e0e0" stroke="#999999" points="1308.5,-74 1262.5,-74 1262.5,-55 1308.5,-55 1308.5,-74"/>
<text text-anchor="middle" x="1285.5" y="-62" font-family="Helvetica,sans-Serif" font-size="10.00">locale</text>
</a>
</g>
</g>
<!-- Node28&#45;&gt;Node34 -->
<g id="edge54" class="edge">
<title>Node28&#45;&gt;Node34</title>
<path fill="none" stroke="#63b8ff" d="M1522.89,-111.15C1473.44,-103.53 1395.14,-90.68 1318.36,-74.03"/>
<polygon fill="#63b8ff" stroke="#63b8ff" points="1319.03,-70.59 1308.51,-71.87 1317.53,-77.43 1319.03,-70.59"/>
</g>
<!-- Node35 -->
<g id="node35" class="node">
<title>Node35</title>
<g id="a_node35"><a xlink:title=" ">
<polygon fill="#e0e0e0" stroke="#999999" points="1390.5,-74 1326.5,-74 1326.5,-55 1390.5,-55 1390.5,-74"/>
<text text-anchor="middle" x="1358.5" y="-62" font-family="Helvetica,sans-Serif" font-size="10.00">algorithm</text>
</a>
</g>
</g>
<!-- Node28&#45;&gt;Node35 -->
<g id="edge56" class="edge">
<title>Node28&#45;&gt;Node35</title>
<path fill="none" stroke="#63b8ff" d="M1538.12,-109.98C1500.65,-100.71 1440.69,-85.85 1400.47,-75.89"/>
<polygon fill="#63b8ff" stroke="#63b8ff" points="1401.25,-72.48 1390.7,-73.47 1399.56,-79.28 1401.25,-72.48"/>
</g>
<!-- Node36 -->
<g id="node36" class="node">
<title>Node36</title>
<g id="a_node36"><a xlink:title=" ">
<polygon fill="#e0e0e0" stroke="#999999" points="1440.5,-74 1408.5,-74 1408.5,-55 1440.5,-55 1440.5,-74"/>
<text text-anchor="middle" x="1424.5" y="-62" font-family="Helvetica,sans-Serif" font-size="10.00">set</text>
</a>
</g>
</g>
<!-- Node28&#45;&gt;Node36 -->
<g id="edge59" class="edge">
<title>Node28&#45;&gt;Node36</title>
<path fill="none" stroke="#63b8ff" d="M1548.72,-109.98C1521.79,-100.34 1478.07,-84.68 1450.33,-74.75"/>
<polygon fill="#63b8ff" stroke="#63b8ff" points="1451.48,-71.45 1440.89,-71.37 1449.12,-78.04 1451.48,-71.45"/>
</g>
<!-- Node37 -->
<g id="node37" class="node">
<title>Node37</title>
<g id="a_node37"><a xlink:title=" ">
<polygon fill="#e0e0e0" stroke="#999999" points="1528,-74 1459,-74 1459,-55 1528,-55 1528,-74"/>
<text text-anchor="middle" x="1493.5" y="-62" font-family="Helvetica,sans-Serif" font-size="10.00">type_traits</text>
</a>
</g>
</g>
<!-- Node28&#45;&gt;Node37 -->
<g id="edge60" class="edge">
<title>Node28&#45;&gt;Node37</title>
<path fill="none" stroke="#63b8ff" d="M1559.81,-109.98C1547.67,-101.84 1529.14,-89.41 1514.75,-79.76"/>
<polygon fill="#63b8ff" stroke="#63b8ff" points="1516.68,-76.84 1506.42,-74.17 1512.78,-82.65 1516.68,-76.84"/>
</g>
<!-- Node38 -->
<g id="node38" class="node">
<title>Node38</title>
<g id="a_node38"><a xlink:title=" ">
<polygon fill="#e0e0e0" stroke="#999999" points="1599,-74 1546,-74 1546,-55 1599,-55 1599,-74"/>
<text text-anchor="middle" x="1572.5" y="-62" font-family="Helvetica,sans-Serif" font-size="10.00">iterator</text>
</a>
</g>
</g>
<!-- Node28&#45;&gt;Node38 -->
<g id="edge61" class="edge">
<title>Node28&#45;&gt;Node38</title>
<path fill="none" stroke="#63b8ff" d="M1572.5,-109.75C1572.5,-102.8 1572.5,-92.85 1572.5,-84.13"/>
<polygon fill="#63b8ff" stroke="#63b8ff" points="1576,-84.09 1572.5,-74.09 1569,-84.09 1576,-84.09"/>
</g>
<!-- Node39 -->
<g id="node39" class="node">
<title>Node39</title>
<g id="a_node39"><a xlink:title=" ">
<polygon fill="#e0e0e0" stroke="#999999" points="1682,-74 1617,-74 1617,-55 1682,-55 1682,-74"/>
<text text-anchor="middle" x="1649.5" y="-62" font-family="Helvetica,sans-Serif" font-size="10.00">stdexcept</text>
</a>
</g>
</g>
<!-- Node28&#45;&gt;Node39 -->
<g id="edge62" class="edge">
<title>Node28&#45;&gt;Node39</title>
<path fill="none" stroke="#63b8ff" d="M1584.87,-109.98C1596.59,-101.92 1614.42,-89.65 1628.39,-80.03"/>
<polygon fill="#63b8ff" stroke="#63b8ff" points="1630.65,-82.72 1636.9,-74.17 1626.68,-76.96 1630.65,-82.72"/>
</g>
<!-- Node40 -->
<g id="node40" class="node">
<title>Node40</title>
<g id="a_node40"><a xlink:title=" ">
<polygon fill="#e0e0e0" stroke="#999999" points="1744.5,-74 1700.5,-74 1700.5,-55 1744.5,-55 1744.5,-74"/>
<text text-anchor="middle" x="1722.5" y="-62" font-family="Helvetica,sans-Serif" font-size="10.00">limits</text>
</a>
</g>
</g>
<!-- Node28&#45;&gt;Node40 -->
<g id="edge64" class="edge">
<title>Node28&#45;&gt;Node40</title>
<path fill="none" stroke="#63b8ff" d="M1596.6,-109.98C1622.12,-100.97 1662.53,-86.69 1690.66,-76.75"/>
<polygon fill="#63b8ff" stroke="#63b8ff" points="1692.15,-79.94 1700.41,-73.3 1689.82,-73.33 1692.15,-79.94"/>
</g>
<!-- Node41 -->
<g id="node41" class="node">
<title>Node41</title>
<g id="a_node41"><a xlink:title=" ">
<polygon fill="#e0e0e0" stroke="#999999" points="1828,-74 1763,-74 1763,-55 1828,-55 1828,-74"/>
<text text-anchor="middle" x="1795.5" y="-62" font-family="Helvetica,sans-Serif" font-size="10.00">exception</text>
</a>
</g>
</g>
<!-- Node28&#45;&gt;Node41 -->
<g id="edge65" class="edge">
<title>Node28&#45;&gt;Node41</title>
<path fill="none" stroke="#63b8ff" d="M1608.33,-109.98C1647.68,-100.63 1710.85,-85.62 1752.76,-75.66"/>
<polygon fill="#63b8ff" stroke="#63b8ff" points="1753.75,-79.02 1762.67,-73.3 1752.13,-72.21 1753.75,-79.02"/>
</g>
<!-- Node42 -->
<g id="node42" class="node">
<title>Node42</title>
<g id="a_node42"><a xlink:title=" ">
<polygon fill="#e0e0e0" stroke="#999999" points="1910.5,-74 1846.5,-74 1846.5,-55 1910.5,-55 1910.5,-74"/>
<text text-anchor="middle" x="1878.5" y="-62" font-family="Helvetica,sans-Serif" font-size="10.00">sys/stat.h</text>
</a>
</g>
</g>
<!-- Node28&#45;&gt;Node42 -->
<g id="edge66" class="edge">
<title>Node28&#45;&gt;Node42</title>
<path fill="none" stroke="#63b8ff" d="M1622.42,-110.7C1673.58,-102.57 1755.68,-89.17 1836,-74.22"/>
<polygon fill="#63b8ff" stroke="#63b8ff" points="1837.11,-77.58 1846.29,-72.3 1835.82,-70.7 1837.11,-77.58"/>
</g>
<!-- Node43 -->
<g id="node43" class="node">
<title>Node43</title>
<g id="a_node43"><a xlink:title=" ">
<polygon fill="#e0e0e0" stroke="#999999" points="2000.5,-74 1928.5,-74 1928.5,-55 2000.5,-55 2000.5,-74"/>
<text text-anchor="middle" x="1964.5" y="-62" font-family="Helvetica,sans-Serif" font-size="10.00">sys/types.h</text>
</a>
</g>
</g>
<!-- Node28&#45;&gt;Node43 -->
<g id="edge67" class="edge">
<title>Node28&#45;&gt;Node43</title>
<path fill="none" stroke="#63b8ff" d="M1622.05,-113.08C1687.53,-105.71 1806.68,-91.58 1918.12,-74.14"/>
<polygon fill="#63b8ff" stroke="#63b8ff" points="1918.85,-77.57 1928.18,-72.55 1917.76,-70.65 1918.85,-77.57"/>
</g>
<!-- Node44&#45;&gt;Node13 -->
<g id="edge70" class="edge">
<title>Node44&#45;&gt;Node13</title>
<path fill="none" stroke="#63b8ff" d="M273.68,-112.73C360.22,-101.91 544.74,-78.84 619.28,-69.53"/>
<polygon fill="#63b8ff" stroke="#63b8ff" points="619.96,-72.97 629.45,-68.26 619.09,-66.02 619.96,-72.97"/>
</g>
<!-- Node44&#45;&gt;Node21 -->
<g id="edge71" class="edge">
<title>Node44&#45;&gt;Node21</title>
<path fill="none" stroke="#63b8ff" d="M242.44,-109.98C257,-101.69 279.37,-88.94 296.43,-79.22"/>
<polygon fill="#63b8ff" stroke="#63b8ff" points="298.33,-82.16 305.29,-74.17 294.86,-76.08 298.33,-82.16"/>
</g>
<!-- Node45 -->
<g id="node45" class="node">
<title>Node45</title>
<g id="a_node45"><a xlink:title=" ">
<polygon fill="#e0e0e0" stroke="#999999" points="249.5,-74 205.5,-74 205.5,-55 249.5,-55 249.5,-74"/>
<text text-anchor="middle" x="227.5" y="-62" font-family="Helvetica,sans-Serif" font-size="10.00">regex</text>
</a>
</g>
</g>
<!-- Node44&#45;&gt;Node45 -->
<g id="edge69" class="edge">
<title>Node44&#45;&gt;Node45</title>
<path fill="none" stroke="#63b8ff" d="M227.5,-109.75C227.5,-102.8 227.5,-92.85 227.5,-84.13"/>
<polygon fill="#63b8ff" stroke="#63b8ff" points="231,-84.09 227.5,-74.09 224,-84.09 231,-84.09"/>
</g>
</g>
</svg>
