<?xml version="1.0" encoding="UTF-8" standalone="no"?>
<!DOCTYPE svg PUBLIC "-//W3C//DTD SVG 1.1//EN"
 "http://www.w3.org/Graphics/SVG/1.1/DTD/svg11.dtd">
<!-- Generated by graphviz version 7.0.0 (0)
 -->
<!-- Title: TensorReader.cxx Pages: 1 -->
<svg width="2274pt" height="357pt"
 viewBox="0.00 0.00 2274.04 357.00" xmlns="http://www.w3.org/2000/svg" xmlns:xlink="http://www.w3.org/1999/xlink">
<g id="graph0" class="graph" transform="scale(1 1) rotate(0) translate(4 353)">
<title>TensorReader.cxx</title>
<!-- Node1 -->
<g id="node1" class="node">
<title>Node1</title>
<g id="a_node1"><a xlink:title=" ">
<polygon fill="#999999" stroke="#666666" points="1440,-349 1338,-349 1338,-330 1440,-330 1440,-349"/>
<text text-anchor="middle" x="1389" y="-337" font-family="Helvetica,sans-Serif" font-size="10.00">TensorReader.cxx</text>
</a>
</g>
</g>
<!-- Node2 -->
<g id="node2" class="node">
<title>Node2</title>
<g id="a_node2"><a xlink:title=" ">
<polygon fill="#e0e0e0" stroke="#999999" points="1281.5,-74 1226.5,-74 1226.5,-55 1281.5,-55 1281.5,-74"/>
<text text-anchor="middle" x="1254" y="-62" font-family="Helvetica,sans-Serif" font-size="10.00">fstream</text>
</a>
</g>
</g>
<!-- Node1&#45;&gt;Node2 -->
<g id="edge1" class="edge">
<title>Node1&#45;&gt;Node2</title>
<path fill="none" stroke="#63b8ff" d="M1337.55,-337.66C1265.97,-333.46 1145,-314 1145,-230.5 1145,-230.5 1145,-230.5 1145,-173.5 1145,-129.03 1191.35,-96.63 1223.6,-79.47"/>
<polygon fill="#63b8ff" stroke="#63b8ff" points="1224.82,-82.78 1232.15,-75.13 1221.65,-76.54 1224.82,-82.78"/>
</g>
<!-- Node3 -->
<g id="node3" class="node">
<title>Node3</title>
<g id="a_node3"><a xlink:title=" ">
<polygon fill="#e0e0e0" stroke="#999999" points="2052.5,-74 2005.5,-74 2005.5,-55 2052.5,-55 2052.5,-74"/>
<text text-anchor="middle" x="2029" y="-62" font-family="Helvetica,sans-Serif" font-size="10.00">vector</text>
</a>
</g>
</g>
<!-- Node1&#45;&gt;Node3 -->
<g id="edge2" class="edge">
<title>Node1&#45;&gt;Node3</title>
<path fill="none" stroke="#63b8ff" d="M1440.4,-337.45C1620.55,-333.58 2214.22,-318.97 2246,-294 2269.16,-275.8 2265,-259.96 2265,-230.5 2265,-230.5 2265,-230.5 2265,-173.5 2265,-139.42 2250.11,-129.28 2222,-110 2221.79,-109.86 2119.22,-86.25 2063.71,-73.48"/>
<polygon fill="#63b8ff" stroke="#63b8ff" points="2064.64,-70.1 2054.11,-71.27 2063.07,-76.93 2064.64,-70.1"/>
</g>
<!-- Node4 -->
<g id="node4" class="node">
<title>Node4</title>
<g id="a_node4"><a xlink:title=" ">
<polygon fill="#e0e0e0" stroke="#999999" points="1702,-74 1658,-74 1658,-55 1702,-55 1702,-74"/>
<text text-anchor="middle" x="1680" y="-62" font-family="Helvetica,sans-Serif" font-size="10.00">string</text>
</a>
</g>
</g>
<!-- Node1&#45;&gt;Node4 -->
<g id="edge3" class="edge">
<title>Node1&#45;&gt;Node4</title>
<path fill="none" stroke="#63b8ff" d="M1389,-329.54C1389,-311.03 1389,-267.25 1389,-230.5 1389,-230.5 1389,-230.5 1389,-173.5 1389,-138.65 1405.39,-128.37 1435,-110 1513.92,-61.04 1551.95,-92.25 1646.52,-74.21"/>
<polygon fill="#63b8ff" stroke="#63b8ff" points="1647.15,-77.66 1656.23,-72.21 1645.73,-70.8 1647.15,-77.66"/>
</g>
<!-- Node5 -->
<g id="node5" class="node">
<title>Node5</title>
<g id="a_node5"><a xlink:href="TensorIo_8hpp.html" target="_top" xlink:title=" ">
<polygon fill="white" stroke="#666666" points="1598.5,-239 1501.5,-239 1501.5,-220 1598.5,-220 1598.5,-239"/>
<text text-anchor="middle" x="1550" y="-227" font-family="Helvetica,sans-Serif" font-size="10.00">util/TensorIo.hpp</text>
</a>
</g>
</g>
<!-- Node1&#45;&gt;Node5 -->
<g id="edge4" class="edge">
<title>Node1&#45;&gt;Node5</title>
<path fill="none" stroke="#63b8ff" d="M1402.18,-329.66C1429.65,-311.23 1493.35,-268.5 1527.47,-245.62"/>
<polygon fill="#63b8ff" stroke="#63b8ff" points="1529.03,-248.78 1535.39,-240.3 1525.13,-242.97 1529.03,-248.78"/>
</g>
<!-- Node11 -->
<g id="node11" class="node">
<title>Node11</title>
<g id="a_node11"><a xlink:href="Log_8hpp.html" target="_top" xlink:title=" ">
<polygon fill="white" stroke="#666666" points="1285,-129 1211,-129 1211,-110 1285,-110 1285,-129"/>
<text text-anchor="middle" x="1248" y="-117" font-family="Helvetica,sans-Serif" font-size="10.00">util/Log.hpp</text>
</a>
</g>
</g>
<!-- Node1&#45;&gt;Node11 -->
<g id="edge33" class="edge">
<title>Node1&#45;&gt;Node11</title>
<path fill="none" stroke="#63b8ff" d="M1386.2,-329.85C1375,-295.22 1333.83,-168.35 1331,-165 1319.35,-151.19 1302.3,-141.01 1286.67,-133.9"/>
<polygon fill="#63b8ff" stroke="#63b8ff" points="1288.13,-130.72 1277.56,-130.05 1285.41,-137.17 1288.13,-130.72"/>
</g>
<!-- Node23 -->
<g id="node23" class="node">
<title>Node23</title>
<g id="a_node23"><a xlink:href="Tensor_8hpp.html" target="_top" xlink:title=" ">
<polygon fill="white" stroke="#666666" points="2160.5,-129 2073.5,-129 2073.5,-110 2160.5,-110 2160.5,-129"/>
<text text-anchor="middle" x="2117" y="-117" font-family="Helvetica,sans-Serif" font-size="10.00">util/Tensor.hpp</text>
</a>
</g>
</g>
<!-- Node1&#45;&gt;Node23 -->
<g id="edge64" class="edge">
<title>Node1&#45;&gt;Node23</title>
<path fill="none" stroke="#63b8ff" d="M1440.09,-336.32C1556.55,-329.38 1847.61,-300.73 2055,-184 2075.07,-172.7 2092.85,-152.94 2104.16,-138.46"/>
<polygon fill="#63b8ff" stroke="#63b8ff" points="2106.81,-140.76 2110,-130.66 2101.21,-136.56 2106.81,-140.76"/>
</g>
<!-- Node26 -->
<g id="node26" class="node">
<title>Node26</title>
<g id="a_node26"><a xlink:href="Sisi4s_8hpp.html" target="_top" xlink:title=" ">
<polygon fill="white" stroke="#666666" points="1321,-239 1255,-239 1255,-220 1321,-220 1321,-239"/>
<text text-anchor="middle" x="1288" y="-227" font-family="Helvetica,sans-Serif" font-size="10.00">Sisi4s.hpp</text>
</a>
</g>
</g>
<!-- Node1&#45;&gt;Node26 -->
<g id="edge34" class="edge">
<title>Node1&#45;&gt;Node26</title>
<path fill="none" stroke="#63b8ff" d="M1377.24,-329.58C1366.29,-321.02 1349.77,-307.43 1337,-294 1323.37,-279.67 1309.78,-261.69 1300.39,-248.53"/>
<polygon fill="#63b8ff" stroke="#63b8ff" points="1303.3,-246.59 1294.69,-240.4 1297.57,-250.6 1303.3,-246.59"/>
</g>
<!-- Node45 -->
<g id="node45" class="node">
<title>Node45</title>
<g id="a_node45"><a xlink:href="Emitter_8hpp.html" target="_top" xlink:title=" ">
<polygon fill="white" stroke="#666666" points="928,-184 836,-184 836,-165 928,-165 928,-184"/>
<text text-anchor="middle" x="882" y="-172" font-family="Helvetica,sans-Serif" font-size="10.00">util/Emitter.hpp</text>
</a>
</g>
</g>
<!-- Node1&#45;&gt;Node45 -->
<g id="edge65" class="edge">
<title>Node1&#45;&gt;Node45</title>
<path fill="none" stroke="#63b8ff" d="M1337.6,-333.81C1284.81,-328.04 1200.75,-316.15 1131,-294 1044.8,-266.62 950.22,-215.12 906.57,-190"/>
<polygon fill="#63b8ff" stroke="#63b8ff" points="908.56,-187.11 898.16,-185.12 905.05,-193.17 908.56,-187.11"/>
</g>
<!-- Node48 -->
<g id="node48" class="node">
<title>Node48</title>
<g id="a_node48"><a xlink:href="TensorReader_8hpp.html" target="_top" xlink:title=" ">
<polygon fill="white" stroke="#666666" points="2237,-294 2079,-294 2079,-275 2237,-275 2237,-294"/>
<text text-anchor="middle" x="2158" y="-282" font-family="Helvetica,sans-Serif" font-size="10.00">algorithms/TensorReader.hpp</text>
</a>
</g>
</g>
<!-- Node1&#45;&gt;Node48 -->
<g id="edge70" class="edge">
<title>Node1&#45;&gt;Node48</title>
<path fill="none" stroke="#63b8ff" d="M1440.34,-335.57C1553.31,-329.01 1831.96,-312.32 2065,-294 2065.83,-293.93 2066.67,-293.87 2067.51,-293.8"/>
<polygon fill="#63b8ff" stroke="#63b8ff" points="2067.42,-297.32 2077.1,-293.02 2066.85,-290.34 2067.42,-297.32"/>
</g>
<!-- Node6 -->
<g id="node6" class="node">
<title>Node6</title>
<g id="a_node6"><a xlink:href="Scanner_8hpp.html" target="_top" xlink:title=" ">
<polygon fill="white" stroke="#666666" points="1597.5,-184 1502.5,-184 1502.5,-165 1597.5,-165 1597.5,-184"/>
<text text-anchor="middle" x="1550" y="-172" font-family="Helvetica,sans-Serif" font-size="10.00">util/Scanner.hpp</text>
</a>
</g>
</g>
<!-- Node5&#45;&gt;Node6 -->
<g id="edge5" class="edge">
<title>Node5&#45;&gt;Node6</title>
<path fill="none" stroke="#63b8ff" d="M1550,-219.75C1550,-213.27 1550,-204.16 1550,-195.9"/>
<polygon fill="#63b8ff" stroke="#63b8ff" points="1553.5,-195.96 1550,-185.96 1546.5,-195.96 1553.5,-195.96"/>
</g>
<!-- Node5&#45;&gt;Node23 -->
<g id="edge30" class="edge">
<title>Node5&#45;&gt;Node23</title>
<path fill="none" stroke="#63b8ff" d="M1598.92,-227C1703.74,-223.29 1946.74,-211.88 2024,-184 2053.13,-173.49 2081.81,-151.68 2099.45,-136.57"/>
<polygon fill="#63b8ff" stroke="#63b8ff" points="2101.29,-139.62 2106.48,-130.38 2096.66,-134.36 2101.29,-139.62"/>
</g>
<!-- Node7 -->
<g id="node7" class="node">
<title>Node7</title>
<g id="a_node7"><a xlink:href="Float_8hpp.html" target="_top" xlink:title=" ">
<polygon fill="white" stroke="#666666" points="1926.5,-74 1835.5,-74 1835.5,-55 1926.5,-55 1926.5,-74"/>
<text text-anchor="middle" x="1881" y="-62" font-family="Helvetica,sans-Serif" font-size="10.00">math/Float.hpp</text>
</a>
</g>
</g>
<!-- Node6&#45;&gt;Node7 -->
<g id="edge6" class="edge">
<title>Node6&#45;&gt;Node7</title>
<path fill="none" stroke="#63b8ff" d="M1509.61,-164.55C1471.3,-154.27 1422.79,-135.5 1446,-110 1472.94,-80.39 1749.43,-79.33 1823.67,-73.98"/>
<polygon fill="#63b8ff" stroke="#63b8ff" points="1823.93,-77.47 1833.56,-73.07 1823.28,-70.5 1823.93,-77.47"/>
</g>
<!-- Node9 -->
<g id="node9" class="node">
<title>Node9</title>
<g id="a_node9"><a xlink:href="Complex_8hpp.html" target="_top" xlink:title=" ">
<polygon fill="white" stroke="#666666" points="1903,-129 1793,-129 1793,-110 1903,-110 1903,-129"/>
<text text-anchor="middle" x="1848" y="-117" font-family="Helvetica,sans-Serif" font-size="10.00">math/Complex.hpp</text>
</a>
</g>
</g>
<!-- Node6&#45;&gt;Node9 -->
<g id="edge8" class="edge">
<title>Node6&#45;&gt;Node9</title>
<path fill="none" stroke="#63b8ff" d="M1597.88,-164.98C1649.06,-155.88 1730.37,-141.42 1786.32,-131.47"/>
<polygon fill="#63b8ff" stroke="#63b8ff" points="1786.78,-134.94 1796.01,-129.75 1785.55,-128.05 1786.78,-134.94"/>
</g>
<!-- Node6&#45;&gt;Node11 -->
<g id="edge11" class="edge">
<title>Node6&#45;&gt;Node11</title>
<path fill="none" stroke="#63b8ff" d="M1502.15,-165.1C1445.82,-155.22 1352.81,-138.89 1296.29,-128.98"/>
<polygon fill="#63b8ff" stroke="#63b8ff" points="1297.1,-125.56 1286.65,-127.28 1295.89,-132.46 1297.1,-125.56"/>
</g>
<!-- Node16 -->
<g id="node16" class="node">
<title>Node16</title>
<g id="a_node16"><a xlink:title=" ">
<polygon fill="#e0e0e0" stroke="#999999" points="1758,-19 1702,-19 1702,0 1758,0 1758,-19"/>
<text text-anchor="middle" x="1730" y="-7" font-family="Helvetica,sans-Serif" font-size="10.00">sstream</text>
</a>
</g>
</g>
<!-- Node6&#45;&gt;Node16 -->
<g id="edge27" class="edge">
<title>Node6&#45;&gt;Node16</title>
<path fill="none" stroke="#63b8ff" d="M1597.76,-173.36C1684.48,-172.18 1863.34,-165.3 1912,-129 1939.72,-108.33 1957.71,-81.91 1936,-55 1915.5,-29.6 1823.52,-17.99 1769.65,-13.29"/>
<polygon fill="#63b8ff" stroke="#63b8ff" points="1770.21,-9.82 1759.96,-12.48 1769.64,-16.8 1770.21,-9.82"/>
</g>
<!-- Node20 -->
<g id="node20" class="node">
<title>Node20</title>
<g id="a_node20"><a xlink:href="Exception_8hpp.html" target="_top" xlink:title=" ">
<polygon fill="white" stroke="#666666" points="1737,-129 1633,-129 1633,-110 1737,-110 1737,-129"/>
<text text-anchor="middle" x="1685" y="-117" font-family="Helvetica,sans-Serif" font-size="10.00">util/Exception.hpp</text>
</a>
</g>
</g>
<!-- Node6&#45;&gt;Node20 -->
<g id="edge23" class="edge">
<title>Node6&#45;&gt;Node20</title>
<path fill="none" stroke="#63b8ff" d="M1572.9,-164.51C1594.56,-156.01 1627.31,-143.15 1651.82,-133.53"/>
<polygon fill="#63b8ff" stroke="#63b8ff" points="1653,-136.82 1661.03,-129.91 1650.44,-130.31 1653,-136.82"/>
</g>
<!-- Node21 -->
<g id="node21" class="node">
<title>Node21</title>
<g id="a_node21"><a xlink:title=" ">
<polygon fill="#e0e0e0" stroke="#999999" points="1577,-129 1523,-129 1523,-110 1577,-110 1577,-129"/>
<text text-anchor="middle" x="1550" y="-117" font-family="Helvetica,sans-Serif" font-size="10.00">istream</text>
</a>
</g>
</g>
<!-- Node6&#45;&gt;Node21 -->
<g id="edge28" class="edge">
<title>Node6&#45;&gt;Node21</title>
<path fill="none" stroke="#63b8ff" d="M1550,-164.75C1550,-158.27 1550,-149.16 1550,-140.9"/>
<polygon fill="#63b8ff" stroke="#63b8ff" points="1553.5,-140.96 1550,-130.96 1546.5,-140.96 1553.5,-140.96"/>
</g>
<!-- Node22 -->
<g id="node22" class="node">
<title>Node22</title>
<g id="a_node22"><a xlink:title=" ">
<polygon fill="#e0e0e0" stroke="#999999" points="1505,-129 1455,-129 1455,-110 1505,-110 1505,-129"/>
<text text-anchor="middle" x="1480" y="-117" font-family="Helvetica,sans-Serif" font-size="10.00">cstring</text>
</a>
</g>
</g>
<!-- Node6&#45;&gt;Node22 -->
<g id="edge29" class="edge">
<title>Node6&#45;&gt;Node22</title>
<path fill="none" stroke="#63b8ff" d="M1538.13,-164.51C1527.91,-156.77 1512.93,-145.43 1500.74,-136.2"/>
<polygon fill="#63b8ff" stroke="#63b8ff" points="1502.99,-133.52 1492.91,-130.27 1498.77,-139.1 1502.99,-133.52"/>
</g>
<!-- Node8 -->
<g id="node8" class="node">
<title>Node8</title>
<g id="a_node8"><a xlink:title=" ">
<polygon fill="#e0e0e0" stroke="#999999" points="1589.5,-19 1532.5,-19 1532.5,0 1589.5,0 1589.5,-19"/>
<text text-anchor="middle" x="1561" y="-7" font-family="Helvetica,sans-Serif" font-size="10.00">ostream</text>
</a>
</g>
</g>
<!-- Node7&#45;&gt;Node8 -->
<g id="edge7" class="edge">
<title>Node7&#45;&gt;Node8</title>
<path fill="none" stroke="#63b8ff" d="M1835.15,-55.91C1772.29,-45.49 1660.37,-26.96 1600.83,-17.1"/>
<polygon fill="#63b8ff" stroke="#63b8ff" points="1601.58,-13.67 1591.15,-15.49 1600.44,-20.58 1601.58,-13.67"/>
</g>
<!-- Node9&#45;&gt;Node7 -->
<g id="edge9" class="edge">
<title>Node9&#45;&gt;Node7</title>
<path fill="none" stroke="#63b8ff" d="M1853.45,-109.75C1857.77,-102.81 1863.96,-92.86 1869.38,-84.16"/>
<polygon fill="#63b8ff" stroke="#63b8ff" points="1872.32,-86.07 1874.63,-75.73 1866.38,-82.37 1872.32,-86.07"/>
</g>
<!-- Node10 -->
<g id="node10" class="node">
<title>Node10</title>
<g id="a_node10"><a xlink:title=" ">
<polygon fill="#e0e0e0" stroke="#999999" points="1817.5,-74 1758.5,-74 1758.5,-55 1817.5,-55 1817.5,-74"/>
<text text-anchor="middle" x="1788" y="-62" font-family="Helvetica,sans-Serif" font-size="10.00">complex</text>
</a>
</g>
</g>
<!-- Node9&#45;&gt;Node10 -->
<g id="edge10" class="edge">
<title>Node9&#45;&gt;Node10</title>
<path fill="none" stroke="#63b8ff" d="M1837.82,-109.51C1829.24,-101.93 1816.73,-90.88 1806.4,-81.75"/>
<polygon fill="#63b8ff" stroke="#63b8ff" points="1808.97,-79.36 1799.16,-75.36 1804.34,-84.6 1808.97,-79.36"/>
</g>
<!-- Node11&#45;&gt;Node2 -->
<g id="edge22" class="edge">
<title>Node11&#45;&gt;Node2</title>
<path fill="none" stroke="#63b8ff" d="M1248.99,-109.75C1249.73,-103.19 1250.78,-93.95 1251.72,-85.6"/>
<polygon fill="#63b8ff" stroke="#63b8ff" points="1255.17,-86.28 1252.82,-75.95 1248.21,-85.49 1255.17,-86.28"/>
</g>
<!-- Node11&#45;&gt;Node4 -->
<g id="edge19" class="edge">
<title>Node11&#45;&gt;Node4</title>
<path fill="none" stroke="#63b8ff" d="M1285.28,-112.01C1289.9,-111.29 1294.55,-110.6 1299,-110 1450.35,-89.62 1493.29,-102.15 1646.53,-74.16"/>
<polygon fill="#63b8ff" stroke="#63b8ff" points="1647.07,-77.62 1656.26,-72.35 1645.79,-70.74 1647.07,-77.62"/>
</g>
<!-- Node12 -->
<g id="node12" class="node">
<title>Node12</title>
<g id="a_node12"><a xlink:href="Time_8hpp.html" target="_top" xlink:title=" ">
<polygon fill="white" stroke="#666666" points="1437.5,-74 1356.5,-74 1356.5,-55 1437.5,-55 1437.5,-74"/>
<text text-anchor="middle" x="1397" y="-62" font-family="Helvetica,sans-Serif" font-size="10.00">util/Time.hpp</text>
</a>
</g>
</g>
<!-- Node11&#45;&gt;Node12 -->
<g id="edge12" class="edge">
<title>Node11&#45;&gt;Node12</title>
<path fill="none" stroke="#63b8ff" d="M1273.28,-109.51C1297.5,-100.89 1334.3,-87.8 1361.47,-78.14"/>
<polygon fill="#63b8ff" stroke="#63b8ff" points="1362.42,-81.51 1370.67,-74.87 1360.08,-74.92 1362.42,-81.51"/>
</g>
<!-- Node18 -->
<g id="node18" class="node">
<title>Node18</title>
<g id="a_node18"><a xlink:title=" ">
<polygon fill="#e0e0e0" stroke="#999999" points="1554,-74 1494,-74 1494,-55 1554,-55 1554,-74"/>
<text text-anchor="middle" x="1524" y="-62" font-family="Helvetica,sans-Serif" font-size="10.00">iostream</text>
</a>
</g>
</g>
<!-- Node11&#45;&gt;Node18 -->
<g id="edge20" class="edge">
<title>Node11&#45;&gt;Node18</title>
<path fill="none" stroke="#63b8ff" d="M1285.37,-111.35C1331.22,-102.57 1411.34,-87.22 1480,-74 1480.83,-73.84 1481.67,-73.68 1482.52,-73.52"/>
<polygon fill="#63b8ff" stroke="#63b8ff" points="1483.06,-76.97 1492.22,-71.64 1481.74,-70.1 1483.06,-76.97"/>
</g>
<!-- Node19 -->
<g id="node19" class="node">
<title>Node19</title>
<g id="a_node19"><a xlink:title=" ">
<polygon fill="#e0e0e0" stroke="#999999" points="1639.5,-74 1572.5,-74 1572.5,-55 1639.5,-55 1639.5,-74"/>
<text text-anchor="middle" x="1606" y="-62" font-family="Helvetica,sans-Serif" font-size="10.00">streambuf</text>
</a>
</g>
</g>
<!-- Node11&#45;&gt;Node19 -->
<g id="edge21" class="edge">
<title>Node11&#45;&gt;Node19</title>
<path fill="none" stroke="#63b8ff" d="M1285.3,-112.15C1289.91,-111.41 1294.56,-110.67 1299,-110 1412.54,-92.8 1444.29,-93.43 1561.05,-74.23"/>
<polygon fill="#63b8ff" stroke="#63b8ff" points="1561.45,-77.71 1570.74,-72.62 1560.3,-70.81 1561.45,-77.71"/>
</g>
<!-- Node12&#45;&gt;Node8 -->
<g id="edge15" class="edge">
<title>Node12&#45;&gt;Node8</title>
<path fill="none" stroke="#63b8ff" d="M1424.82,-54.51C1451.64,-45.84 1492.46,-32.65 1522.42,-22.97"/>
<polygon fill="#63b8ff" stroke="#63b8ff" points="1523.44,-26.32 1531.88,-19.91 1521.29,-19.66 1523.44,-26.32"/>
</g>
<!-- Node13 -->
<g id="node13" class="node">
<title>Node13</title>
<g id="a_node13"><a xlink:title=" ">
<polygon fill="#e0e0e0" stroke="#999999" points="1419,-19 1375,-19 1375,0 1419,0 1419,-19"/>
<text text-anchor="middle" x="1397" y="-7" font-family="Helvetica,sans-Serif" font-size="10.00">ctime</text>
</a>
</g>
</g>
<!-- Node12&#45;&gt;Node13 -->
<g id="edge13" class="edge">
<title>Node12&#45;&gt;Node13</title>
<path fill="none" stroke="#63b8ff" d="M1397,-54.75C1397,-48.27 1397,-39.16 1397,-30.9"/>
<polygon fill="#63b8ff" stroke="#63b8ff" points="1400.5,-30.96 1397,-20.96 1393.5,-30.96 1400.5,-30.96"/>
</g>
<!-- Node14 -->
<g id="node14" class="node">
<title>Node14</title>
<g id="a_node14"><a xlink:title=" ">
<polygon fill="#e0e0e0" stroke="#999999" points="756,-19 706,-19 706,0 756,0 756,-19"/>
<text text-anchor="middle" x="731" y="-7" font-family="Helvetica,sans-Serif" font-size="10.00">cstdint</text>
</a>
</g>
</g>
<!-- Node12&#45;&gt;Node14 -->
<g id="edge14" class="edge">
<title>Node12&#45;&gt;Node14</title>
<path fill="none" stroke="#63b8ff" d="M1356.12,-56.21C1353.04,-55.76 1349.97,-55.35 1347,-55 1114.31,-27.33 1054.55,-38.02 821,-19 803.38,-17.57 783.84,-15.75 767.48,-14.16"/>
<polygon fill="#63b8ff" stroke="#63b8ff" points="768,-10.7 757.71,-13.2 767.32,-17.66 768,-10.7"/>
</g>
<!-- Node15 -->
<g id="node15" class="node">
<title>Node15</title>
<g id="a_node15"><a xlink:title=" ">
<polygon fill="#e0e0e0" stroke="#999999" points="886,-19 830,-19 830,0 886,0 886,-19"/>
<text text-anchor="middle" x="858" y="-7" font-family="Helvetica,sans-Serif" font-size="10.00">iomanip</text>
</a>
</g>
</g>
<!-- Node12&#45;&gt;Node15 -->
<g id="edge16" class="edge">
<title>Node12&#45;&gt;Node15</title>
<path fill="none" stroke="#63b8ff" d="M1356.11,-56.28C1353.03,-55.82 1349.97,-55.39 1347,-55 1180.83,-33.35 981.51,-18.71 897.94,-13.08"/>
<polygon fill="#63b8ff" stroke="#63b8ff" points="898.19,-9.59 887.98,-12.42 897.73,-16.57 898.19,-9.59"/>
</g>
<!-- Node12&#45;&gt;Node16 -->
<g id="edge17" class="edge">
<title>Node12&#45;&gt;Node16</title>
<path fill="none" stroke="#63b8ff" d="M1437.83,-57C1502.25,-46.75 1626.67,-26.95 1690.35,-16.81"/>
<polygon fill="#63b8ff" stroke="#63b8ff" points="1690.68,-20.3 1700.01,-15.27 1689.58,-13.39 1690.68,-20.3"/>
</g>
<!-- Node17 -->
<g id="node17" class="node">
<title>Node17</title>
<g id="a_node17"><a xlink:title=" ">
<polygon fill="#e0e0e0" stroke="#999999" points="1086.5,-19 1039.5,-19 1039.5,0 1086.5,0 1086.5,-19"/>
<text text-anchor="middle" x="1063" y="-7" font-family="Helvetica,sans-Serif" font-size="10.00">cmath</text>
</a>
</g>
</g>
<!-- Node12&#45;&gt;Node17 -->
<g id="edge18" class="edge">
<title>Node12&#45;&gt;Node17</title>
<path fill="none" stroke="#63b8ff" d="M1356.08,-56.5C1353.01,-55.99 1349.95,-55.48 1347,-55 1257.48,-40.38 1151.92,-24.09 1098.22,-15.87"/>
<polygon fill="#63b8ff" stroke="#63b8ff" points="1098.86,-12.43 1088.45,-14.37 1097.81,-19.35 1098.86,-12.43"/>
</g>
<!-- Node20&#45;&gt;Node4 -->
<g id="edge24" class="edge">
<title>Node20&#45;&gt;Node4</title>
<path fill="none" stroke="#63b8ff" d="M1684.17,-109.75C1683.56,-103.27 1682.7,-94.16 1681.92,-85.9"/>
<polygon fill="#63b8ff" stroke="#63b8ff" points="1685.41,-85.58 1680.99,-75.95 1678.44,-86.23 1685.41,-85.58"/>
</g>
<!-- Node20&#45;&gt;Node16 -->
<g id="edge25" class="edge">
<title>Node20&#45;&gt;Node16</title>
<path fill="none" stroke="#63b8ff" d="M1691.04,-109.63C1696.78,-100.88 1705.37,-86.97 1711,-74 1717.12,-59.91 1722.02,-43.25 1725.32,-30.53"/>
<polygon fill="#63b8ff" stroke="#63b8ff" points="1728.71,-31.38 1727.7,-20.83 1721.91,-29.71 1728.71,-31.38"/>
</g>
<!-- Node20&#45;&gt;Node18 -->
<g id="edge26" class="edge">
<title>Node20&#45;&gt;Node18</title>
<path fill="none" stroke="#63b8ff" d="M1657.69,-109.51C1631.36,-100.84 1591.28,-87.65 1561.87,-77.97"/>
<polygon fill="#63b8ff" stroke="#63b8ff" points="1563.21,-74.72 1552.61,-74.92 1561.02,-81.37 1563.21,-74.72"/>
</g>
<!-- Node24 -->
<g id="node24" class="node">
<title>Node24</title>
<g id="a_node24"><a xlink:href="CTF_8hpp.html" target="_top" xlink:title=" ">
<polygon fill="white" stroke="#666666" points="2149,-74 2075,-74 2075,-55 2149,-55 2149,-74"/>
<text text-anchor="middle" x="2112" y="-62" font-family="Helvetica,sans-Serif" font-size="10.00">util/CTF.hpp</text>
</a>
</g>
</g>
<!-- Node23&#45;&gt;Node24 -->
<g id="edge31" class="edge">
<title>Node23&#45;&gt;Node24</title>
<path fill="none" stroke="#63b8ff" d="M2116.17,-109.75C2115.56,-103.27 2114.7,-94.16 2113.92,-85.9"/>
<polygon fill="#63b8ff" stroke="#63b8ff" points="2117.41,-85.58 2112.99,-75.95 2110.44,-86.23 2117.41,-85.58"/>
</g>
<!-- Node25 -->
<g id="node25" class="node">
<title>Node25</title>
<g id="a_node25"><a xlink:title=" ">
<polygon fill="#e0e0e0" stroke="#999999" points="2137,-19 2087,-19 2087,0 2137,0 2137,-19"/>
<text text-anchor="middle" x="2112" y="-7" font-family="Helvetica,sans-Serif" font-size="10.00">ctf.hpp</text>
</a>
</g>
</g>
<!-- Node24&#45;&gt;Node25 -->
<g id="edge32" class="edge">
<title>Node24&#45;&gt;Node25</title>
<path fill="none" stroke="#63b8ff" d="M2112,-54.75C2112,-48.27 2112,-39.16 2112,-30.9"/>
<polygon fill="#63b8ff" stroke="#63b8ff" points="2115.5,-30.96 2112,-20.96 2108.5,-30.96 2115.5,-30.96"/>
</g>
<!-- Node26&#45;&gt;Node12 -->
<g id="edge35" class="edge">
<title>Node26&#45;&gt;Node12</title>
<path fill="none" stroke="#63b8ff" d="M1272.9,-219.68C1240.62,-199.72 1170.3,-149.75 1202,-110 1206.53,-104.32 1288.58,-87.03 1344.79,-75.75"/>
<polygon fill="#63b8ff" stroke="#63b8ff" points="1345.4,-79.19 1354.52,-73.8 1344.03,-72.33 1345.4,-79.19"/>
</g>
<!-- Node26&#45;&gt;Node24 -->
<g id="edge36" class="edge">
<title>Node26&#45;&gt;Node24</title>
<path fill="none" stroke="#63b8ff" d="M1321.31,-226.73C1439.27,-220.38 1833.1,-198.32 1888,-184 1968.89,-162.9 2053.11,-107.84 2091.15,-80.85"/>
<polygon fill="#63b8ff" stroke="#63b8ff" points="2092.91,-83.9 2098.98,-75.22 2088.82,-78.22 2092.91,-83.9"/>
</g>
<!-- Node27 -->
<g id="node27" class="node">
<title>Node27</title>
<g id="a_node27"><a xlink:href="Options_8hpp.html" target="_top" xlink:title=" ">
<polygon fill="white" stroke="#666666" points="1322.5,-184 1247.5,-184 1247.5,-165 1322.5,-165 1322.5,-184"/>
<text text-anchor="middle" x="1285" y="-172" font-family="Helvetica,sans-Serif" font-size="10.00">Options.hpp</text>
</a>
</g>
</g>
<!-- Node26&#45;&gt;Node27 -->
<g id="edge37" class="edge">
<title>Node26&#45;&gt;Node27</title>
<path fill="none" stroke="#63b8ff" d="M1287.5,-219.75C1287.14,-213.27 1286.62,-204.16 1286.15,-195.9"/>
<polygon fill="#63b8ff" stroke="#63b8ff" points="1289.65,-195.74 1285.59,-185.95 1282.66,-196.13 1289.65,-195.74"/>
</g>
<!-- Node27&#45;&gt;Node4 -->
<g id="edge38" class="edge">
<title>Node27&#45;&gt;Node4</title>
<path fill="none" stroke="#63b8ff" d="M1294.08,-164.76C1309.37,-150.6 1341.87,-122.95 1375,-110 1486.05,-66.6 1526.24,-96.43 1646.61,-74.16"/>
<polygon fill="#63b8ff" stroke="#63b8ff" points="1647.1,-77.63 1656.25,-72.29 1645.77,-70.76 1647.1,-77.63"/>
</g>
<!-- Node28 -->
<g id="node28" class="node">
<title>Node28</title>
<g id="a_node28"><a xlink:href="CLI11_8hpp.html" target="_top" xlink:title=" ">
<polygon fill="white" stroke="#666666" points="888.5,-129 789.5,-129 789.5,-110 888.5,-110 888.5,-129"/>
<text text-anchor="middle" x="839" y="-117" font-family="Helvetica,sans-Serif" font-size="10.00">extern/CLI11.hpp</text>
</a>
</g>
</g>
<!-- Node27&#45;&gt;Node28 -->
<g id="edge39" class="edge">
<title>Node27&#45;&gt;Node28</title>
<path fill="none" stroke="#63b8ff" d="M1247.36,-169.03C1170.25,-159.86 993.71,-138.89 900.02,-127.75"/>
<polygon fill="#63b8ff" stroke="#63b8ff" points="900.59,-124.29 890.24,-126.59 899.76,-131.25 900.59,-124.29"/>
</g>
<!-- Node28&#45;&gt;Node2 -->
<g id="edge46" class="edge">
<title>Node28&#45;&gt;Node2</title>
<path fill="none" stroke="#63b8ff" d="M888.78,-114.38C959.19,-108.16 1092.05,-95.04 1215.08,-74.14"/>
<polygon fill="#63b8ff" stroke="#63b8ff" points="1215.43,-77.63 1224.69,-72.49 1214.24,-70.74 1215.43,-77.63"/>
</g>
<!-- Node28&#45;&gt;Node3 -->
<g id="edge59" class="edge">
<title>Node28&#45;&gt;Node3</title>
<path fill="none" stroke="#63b8ff" d="M888.8,-117.38C1043.93,-113.69 1532.31,-100.62 1936,-74 1955.19,-72.73 1976.57,-70.82 1993.98,-69.12"/>
<polygon fill="#63b8ff" stroke="#63b8ff" points="1994.22,-72.62 2003.82,-68.15 1993.52,-65.65 1994.22,-72.62"/>
</g>
<!-- Node28&#45;&gt;Node4 -->
<g id="edge41" class="edge">
<title>Node28&#45;&gt;Node4</title>
<path fill="none" stroke="#63b8ff" d="M888.96,-117.15C1038.34,-112.89 1480.98,-98.66 1646.79,-73.92"/>
<polygon fill="#63b8ff" stroke="#63b8ff" points="1646.94,-77.44 1656.28,-72.44 1645.86,-70.53 1646.94,-77.44"/>
</g>
<!-- Node28&#45;&gt;Node14 -->
<g id="edge53" class="edge">
<title>Node28&#45;&gt;Node14</title>
<path fill="none" stroke="#63b8ff" d="M789.17,-111.02C708.95,-98.93 559.87,-76.19 558,-74 518.57,-27.83 632.66,-15.22 694.34,-11.78"/>
<polygon fill="#63b8ff" stroke="#63b8ff" points="694.23,-15.29 704.04,-11.3 693.88,-8.3 694.23,-15.29"/>
</g>
<!-- Node28&#45;&gt;Node15 -->
<g id="edge49" class="edge">
<title>Node28&#45;&gt;Node15</title>
<path fill="none" stroke="#63b8ff" d="M803.47,-109.54C770.65,-99.44 729.44,-80.96 747,-55 762.94,-31.44 793.61,-20.35 818.68,-15.13"/>
<polygon fill="#63b8ff" stroke="#63b8ff" points="819.03,-18.63 828.25,-13.4 817.78,-11.74 819.03,-18.63"/>
</g>
<!-- Node28&#45;&gt;Node16 -->
<g id="edge51" class="edge">
<title>Node28&#45;&gt;Node16</title>
<path fill="none" stroke="#63b8ff" d="M888.86,-117.34C1014.64,-114.02 1342.27,-102.8 1447,-74 1465.21,-68.99 1467.09,-60.97 1485,-55 1555.28,-31.58 1641.26,-19.57 1690.42,-14.2"/>
<polygon fill="#63b8ff" stroke="#63b8ff" points="1690.72,-17.68 1700.3,-13.16 1689.98,-10.72 1690.72,-17.68"/>
</g>
<!-- Node28&#45;&gt;Node17 -->
<g id="edge42" class="edge">
<title>Node28&#45;&gt;Node17</title>
<path fill="none" stroke="#63b8ff" d="M820.27,-109.67C797.13,-97.59 762.79,-75.13 780,-55 795.96,-36.34 955.74,-19.98 1027.93,-13.48"/>
<polygon fill="#63b8ff" stroke="#63b8ff" points="1027.97,-16.99 1037.62,-12.63 1027.35,-10.02 1027.97,-16.99"/>
</g>
<!-- Node28&#45;&gt;Node18 -->
<g id="edge54" class="edge">
<title>Node28&#45;&gt;Node18</title>
<path fill="none" stroke="#63b8ff" d="M888.66,-117.11C996.65,-113.63 1260.72,-102.68 1480,-74 1480.84,-73.89 1481.69,-73.77 1482.54,-73.65"/>
<polygon fill="#63b8ff" stroke="#63b8ff" points="1482.97,-77.13 1492.29,-72.08 1481.86,-70.22 1482.97,-77.13"/>
</g>
<!-- Node29 -->
<g id="node29" class="node">
<title>Node29</title>
<g id="a_node29"><a xlink:title=" ">
<polygon fill="#e0e0e0" stroke="#999999" points="58,-74 0,-74 0,-55 58,-55 58,-74"/>
<text text-anchor="middle" x="29" y="-62" font-family="Helvetica,sans-Serif" font-size="10.00">memory</text>
</a>
</g>
</g>
<!-- Node28&#45;&gt;Node29 -->
<g id="edge40" class="edge">
<title>Node28&#45;&gt;Node29</title>
<path fill="none" stroke="#63b8ff" d="M789.15,-110.99C786.05,-110.62 782.99,-110.29 780,-110 467.89,-79.7 383.37,-115.92 69.63,-74.11"/>
<polygon fill="#63b8ff" stroke="#63b8ff" points="70.25,-70.66 59.87,-72.79 69.31,-77.6 70.25,-70.66"/>
</g>
<!-- Node30 -->
<g id="node30" class="node">
<title>Node30</title>
<g id="a_node30"><a xlink:title=" ">
<polygon fill="#e0e0e0" stroke="#999999" points="313.5,-74 248.5,-74 248.5,-55 313.5,-55 313.5,-74"/>
<text text-anchor="middle" x="281" y="-62" font-family="Helvetica,sans-Serif" font-size="10.00">functional</text>
</a>
</g>
</g>
<!-- Node28&#45;&gt;Node30 -->
<g id="edge43" class="edge">
<title>Node28&#45;&gt;Node30</title>
<path fill="none" stroke="#63b8ff" d="M789.14,-111.09C786.05,-110.7 782.98,-110.33 780,-110 581.17,-87.87 526.73,-101.74 325.22,-74.13"/>
<polygon fill="#63b8ff" stroke="#63b8ff" points="325.84,-70.68 315.45,-72.77 324.87,-77.61 325.84,-70.68"/>
</g>
<!-- Node31 -->
<g id="node31" class="node">
<title>Node31</title>
<g id="a_node31"><a xlink:title=" ">
<polygon fill="#e0e0e0" stroke="#999999" points="388,-74 332,-74 332,-55 388,-55 388,-74"/>
<text text-anchor="middle" x="360" y="-62" font-family="Helvetica,sans-Serif" font-size="10.00">numeric</text>
</a>
</g>
</g>
<!-- Node28&#45;&gt;Node31 -->
<g id="edge44" class="edge">
<title>Node28&#45;&gt;Node31</title>
<path fill="none" stroke="#63b8ff" d="M789.13,-111.14C786.04,-110.74 782.98,-110.35 780,-110 613.87,-90.24 567.76,-100.72 399.47,-74.19"/>
<polygon fill="#63b8ff" stroke="#63b8ff" points="400.13,-70.75 389.7,-72.62 399.02,-77.66 400.13,-70.75"/>
</g>
<!-- Node32 -->
<g id="node32" class="node">
<title>Node32</title>
<g id="a_node32"><a xlink:title=" ">
<polygon fill="#e0e0e0" stroke="#999999" points="1338,-74 1300,-74 1300,-55 1338,-55 1338,-74"/>
<text text-anchor="middle" x="1319" y="-62" font-family="Helvetica,sans-Serif" font-size="10.00">map</text>
</a>
</g>
</g>
<!-- Node28&#45;&gt;Node32 -->
<g id="edge45" class="edge">
<title>Node28&#45;&gt;Node32</title>
<path fill="none" stroke="#63b8ff" d="M888.82,-116.62C970.38,-112.89 1137.53,-102.49 1288.48,-73.86"/>
<polygon fill="#63b8ff" stroke="#63b8ff" points="1289.14,-77.3 1298.29,-71.97 1287.81,-70.43 1289.14,-77.3"/>
</g>
<!-- Node33 -->
<g id="node33" class="node">
<title>Node33</title>
<g id="a_node33"><a xlink:title=" ">
<polygon fill="#e0e0e0" stroke="#999999" points="447.5,-74 406.5,-74 406.5,-55 447.5,-55 447.5,-74"/>
<text text-anchor="middle" x="427" y="-62" font-family="Helvetica,sans-Serif" font-size="10.00">tuple</text>
</a>
</g>
</g>
<!-- Node28&#45;&gt;Node33 -->
<g id="edge47" class="edge">
<title>Node28&#45;&gt;Node33</title>
<path fill="none" stroke="#63b8ff" d="M789.12,-111.2C786.04,-110.78 782.98,-110.38 780,-110 639.93,-92.13 600.07,-101.95 459.03,-74.31"/>
<polygon fill="#63b8ff" stroke="#63b8ff" points="459.78,-70.89 449.28,-72.36 458.41,-77.75 459.78,-70.89"/>
</g>
<!-- Node34 -->
<g id="node34" class="node">
<title>Node34</title>
<g id="a_node34"><a xlink:title=" ">
<polygon fill="#e0e0e0" stroke="#999999" points="510.5,-74 465.5,-74 465.5,-55 510.5,-55 510.5,-74"/>
<text text-anchor="middle" x="488" y="-62" font-family="Helvetica,sans-Serif" font-size="10.00">utility</text>
</a>
</g>
</g>
<!-- Node28&#45;&gt;Node34 -->
<g id="edge48" class="edge">
<title>Node28&#45;&gt;Node34</title>
<path fill="none" stroke="#63b8ff" d="M789.11,-111.3C786.03,-110.86 782.97,-110.42 780,-110 666.69,-93.84 637.55,-94.83 525,-74 523.83,-73.78 522.65,-73.56 521.45,-73.32"/>
<polygon fill="#63b8ff" stroke="#63b8ff" points="522.62,-69.99 512.11,-71.34 521.17,-76.84 522.62,-69.99"/>
</g>
<!-- Node35 -->
<g id="node35" class="node">
<title>Node35</title>
<g id="a_node35"><a xlink:title=" ">
<polygon fill="#e0e0e0" stroke="#999999" points="613,-74 567,-74 567,-55 613,-55 613,-74"/>
<text text-anchor="middle" x="590" y="-62" font-family="Helvetica,sans-Serif" font-size="10.00">locale</text>
</a>
</g>
</g>
<!-- Node28&#45;&gt;Node35 -->
<g id="edge50" class="edge">
<title>Node28&#45;&gt;Node35</title>
<path fill="none" stroke="#63b8ff" d="M791.42,-109.56C749.75,-101.54 687.32,-89.1 624.32,-74.44"/>
<polygon fill="#63b8ff" stroke="#63b8ff" points="625.39,-71.1 614.85,-72.22 623.79,-77.91 625.39,-71.1"/>
</g>
<!-- Node36 -->
<g id="node36" class="node">
<title>Node36</title>
<g id="a_node36"><a xlink:title=" ">
<polygon fill="#e0e0e0" stroke="#999999" points="695,-74 631,-74 631,-55 695,-55 695,-74"/>
<text text-anchor="middle" x="663" y="-62" font-family="Helvetica,sans-Serif" font-size="10.00">algorithm</text>
</a>
</g>
</g>
<!-- Node28&#45;&gt;Node36 -->
<g id="edge52" class="edge">
<title>Node28&#45;&gt;Node36</title>
<path fill="none" stroke="#63b8ff" d="M809.14,-109.51C780.11,-100.76 735.78,-87.42 703.56,-77.71"/>
<polygon fill="#63b8ff" stroke="#63b8ff" points="704.74,-74.41 694.16,-74.88 702.72,-81.12 704.74,-74.41"/>
</g>
<!-- Node37 -->
<g id="node37" class="node">
<title>Node37</title>
<g id="a_node37"><a xlink:title=" ">
<polygon fill="#e0e0e0" stroke="#999999" points="821,-74 789,-74 789,-55 821,-55 821,-74"/>
<text text-anchor="middle" x="805" y="-62" font-family="Helvetica,sans-Serif" font-size="10.00">set</text>
</a>
</g>
</g>
<!-- Node28&#45;&gt;Node37 -->
<g id="edge55" class="edge">
<title>Node28&#45;&gt;Node37</title>
<path fill="none" stroke="#63b8ff" d="M833.39,-109.75C828.88,-102.73 822.41,-92.64 816.79,-83.87"/>
<polygon fill="#63b8ff" stroke="#63b8ff" points="819.9,-82.24 811.55,-75.72 814.01,-86.02 819.9,-82.24"/>
</g>
<!-- Node38 -->
<g id="node38" class="node">
<title>Node38</title>
<g id="a_node38"><a xlink:title=" ">
<polygon fill="#e0e0e0" stroke="#999999" points="908.5,-74 839.5,-74 839.5,-55 908.5,-55 908.5,-74"/>
<text text-anchor="middle" x="874" y="-62" font-family="Helvetica,sans-Serif" font-size="10.00">type_traits</text>
</a>
</g>
</g>
<!-- Node28&#45;&gt;Node38 -->
<g id="edge56" class="edge">
<title>Node28&#45;&gt;Node38</title>
<path fill="none" stroke="#63b8ff" d="M844.78,-109.75C849.41,-102.73 856.07,-92.64 861.87,-83.87"/>
<polygon fill="#63b8ff" stroke="#63b8ff" points="864.67,-85.98 867.26,-75.71 858.83,-82.12 864.67,-85.98"/>
</g>
<!-- Node39 -->
<g id="node39" class="node">
<title>Node39</title>
<g id="a_node39"><a xlink:title=" ">
<polygon fill="#e0e0e0" stroke="#999999" points="979.5,-74 926.5,-74 926.5,-55 979.5,-55 979.5,-74"/>
<text text-anchor="middle" x="953" y="-62" font-family="Helvetica,sans-Serif" font-size="10.00">iterator</text>
</a>
</g>
</g>
<!-- Node28&#45;&gt;Node39 -->
<g id="edge57" class="edge">
<title>Node28&#45;&gt;Node39</title>
<path fill="none" stroke="#63b8ff" d="M858.34,-109.51C876.22,-101.2 903.04,-88.73 923.57,-79.18"/>
<polygon fill="#63b8ff" stroke="#63b8ff" points="924.98,-82.39 932.57,-75 922.03,-76.04 924.98,-82.39"/>
</g>
<!-- Node40 -->
<g id="node40" class="node">
<title>Node40</title>
<g id="a_node40"><a xlink:title=" ">
<polygon fill="#e0e0e0" stroke="#999999" points="1062.5,-74 997.5,-74 997.5,-55 1062.5,-55 1062.5,-74"/>
<text text-anchor="middle" x="1030" y="-62" font-family="Helvetica,sans-Serif" font-size="10.00">stdexcept</text>
</a>
</g>
</g>
<!-- Node28&#45;&gt;Node40 -->
<g id="edge58" class="edge">
<title>Node28&#45;&gt;Node40</title>
<path fill="none" stroke="#63b8ff" d="M871.4,-109.51C903.19,-100.69 951.86,-87.18 986.9,-77.46"/>
<polygon fill="#63b8ff" stroke="#63b8ff" points="987.6,-80.9 996.3,-74.85 985.73,-74.15 987.6,-80.9"/>
</g>
<!-- Node41 -->
<g id="node41" class="node">
<title>Node41</title>
<g id="a_node41"><a xlink:title=" ">
<polygon fill="#e0e0e0" stroke="#999999" points="1125,-74 1081,-74 1081,-55 1125,-55 1125,-74"/>
<text text-anchor="middle" x="1103" y="-62" font-family="Helvetica,sans-Serif" font-size="10.00">limits</text>
</a>
</g>
</g>
<!-- Node28&#45;&gt;Node41 -->
<g id="edge60" class="edge">
<title>Node28&#45;&gt;Node41</title>
<path fill="none" stroke="#63b8ff" d="M888.99,-109.96C933.73,-102.08 1001.33,-89.6 1069.69,-74.15"/>
<polygon fill="#63b8ff" stroke="#63b8ff" points="1070.22,-77.62 1079.19,-71.98 1068.67,-70.79 1070.22,-77.62"/>
</g>
<!-- Node42 -->
<g id="node42" class="node">
<title>Node42</title>
<g id="a_node42"><a xlink:title=" ">
<polygon fill="#e0e0e0" stroke="#999999" points="1208.5,-74 1143.5,-74 1143.5,-55 1208.5,-55 1208.5,-74"/>
<text text-anchor="middle" x="1176" y="-62" font-family="Helvetica,sans-Serif" font-size="10.00">exception</text>
</a>
</g>
</g>
<!-- Node28&#45;&gt;Node42 -->
<g id="edge61" class="edge">
<title>Node28&#45;&gt;Node42</title>
<path fill="none" stroke="#63b8ff" d="M888.97,-111.74C945.45,-103.92 1040.4,-90.27 1131.88,-74.3"/>
<polygon fill="#63b8ff" stroke="#63b8ff" points="1132.28,-77.78 1141.52,-72.6 1131.07,-70.89 1132.28,-77.78"/>
</g>
<!-- Node43 -->
<g id="node43" class="node">
<title>Node43</title>
<g id="a_node43"><a xlink:title=" ">
<polygon fill="#e0e0e0" stroke="#999999" points="140,-74 76,-74 76,-55 140,-55 140,-74"/>
<text text-anchor="middle" x="108" y="-62" font-family="Helvetica,sans-Serif" font-size="10.00">sys/stat.h</text>
</a>
</g>
</g>
<!-- Node28&#45;&gt;Node43 -->
<g id="edge62" class="edge">
<title>Node28&#45;&gt;Node43</title>
<path fill="none" stroke="#63b8ff" d="M789.14,-111.01C786.05,-110.64 782.99,-110.3 780,-110 504.19,-82.32 429.47,-109.86 151.41,-74.1"/>
<polygon fill="#63b8ff" stroke="#63b8ff" points="152.02,-70.65 141.65,-72.83 151.12,-77.59 152.02,-70.65"/>
</g>
<!-- Node44 -->
<g id="node44" class="node">
<title>Node44</title>
<g id="a_node44"><a xlink:title=" ">
<polygon fill="#e0e0e0" stroke="#999999" points="230,-74 158,-74 158,-55 230,-55 230,-74"/>
<text text-anchor="middle" x="194" y="-62" font-family="Helvetica,sans-Serif" font-size="10.00">sys/types.h</text>
</a>
</g>
</g>
<!-- Node28&#45;&gt;Node44 -->
<g id="edge63" class="edge">
<title>Node28&#45;&gt;Node44</title>
<path fill="none" stroke="#63b8ff" d="M789.14,-111.04C786.05,-110.67 782.98,-110.31 780,-110 543.97,-85.18 479.98,-103.83 241.41,-74.15"/>
<polygon fill="#63b8ff" stroke="#63b8ff" points="242.15,-70.71 231.79,-72.93 241.27,-77.66 242.15,-70.71"/>
</g>
<!-- Node45&#45;&gt;Node4 -->
<g id="edge68" class="edge">
<title>Node45&#45;&gt;Node4</title>
<path fill="none" stroke="#63b8ff" d="M928.26,-173.11C1005.39,-171.45 1164.57,-163.68 1294,-129 1314.18,-123.59 1316.84,-115.48 1337,-110 1468.28,-74.31 1509.85,-99.2 1646.84,-74.1"/>
<polygon fill="#63b8ff" stroke="#63b8ff" points="1647.08,-77.62 1656.26,-72.32 1645.78,-70.74 1647.08,-77.62"/>
</g>
<!-- Node46 -->
<g id="node46" class="node">
<title>Node46</title>
<g id="a_node46"><a xlink:href="SharedPointer_8hpp.html" target="_top" xlink:title=" ">
<polygon fill="white" stroke="#666666" points="390,-129 266,-129 266,-110 390,-110 390,-129"/>
<text text-anchor="middle" x="328" y="-117" font-family="Helvetica,sans-Serif" font-size="10.00">util/SharedPointer.hpp</text>
</a>
</g>
</g>
<!-- Node45&#45;&gt;Node46 -->
<g id="edge66" class="edge">
<title>Node45&#45;&gt;Node46</title>
<path fill="none" stroke="#63b8ff" d="M835.72,-169.07C739.58,-159.87 517.57,-138.64 401.59,-127.54"/>
<polygon fill="#63b8ff" stroke="#63b8ff" points="402.16,-124.08 391.87,-126.61 401.49,-131.05 402.16,-124.08"/>
</g>
<!-- Node47 -->
<g id="node47" class="node">
<title>Node47</title>
<g id="a_node47"><a xlink:title=" ">
<polygon fill="#e0e0e0" stroke="#999999" points="771.5,-129 672.5,-129 672.5,-110 771.5,-110 771.5,-129"/>
<text text-anchor="middle" x="722" y="-117" font-family="Helvetica,sans-Serif" font-size="10.00">yaml&#45;cpp/yaml.h</text>
</a>
</g>
</g>
<!-- Node45&#45;&gt;Node47 -->
<g id="edge69" class="edge">
<title>Node45&#45;&gt;Node47</title>
<path fill="none" stroke="#63b8ff" d="M854.86,-164.51C828.69,-155.84 788.86,-142.65 759.64,-132.97"/>
<polygon fill="#63b8ff" stroke="#63b8ff" points="761.04,-129.74 750.44,-129.92 758.84,-136.39 761.04,-129.74"/>
</g>
<!-- Node46&#45;&gt;Node29 -->
<g id="edge67" class="edge">
<title>Node46&#45;&gt;Node29</title>
<path fill="none" stroke="#63b8ff" d="M270.31,-109.53C219.8,-101.49 144.18,-88.97 69.44,-74.4"/>
<polygon fill="#63b8ff" stroke="#63b8ff" points="70.4,-71.02 59.91,-72.53 69.05,-77.89 70.4,-71.02"/>
</g>
<!-- Node49 -->
<g id="node49" class="node">
<title>Node49</title>
<g id="a_node49"><a xlink:href="Algorithm_8hpp.html" target="_top" xlink:title=" ">
<polygon fill="white" stroke="#666666" points="2232.5,-239 2091.5,-239 2091.5,-220 2232.5,-220 2232.5,-239"/>
<text text-anchor="middle" x="2162" y="-227" font-family="Helvetica,sans-Serif" font-size="10.00">algorithms/Algorithm.hpp</text>
</a>
</g>
</g>
<!-- Node48&#45;&gt;Node49 -->
<g id="edge71" class="edge">
<title>Node48&#45;&gt;Node49</title>
<path fill="none" stroke="#63b8ff" d="M2158.66,-274.75C2159.15,-268.27 2159.84,-259.16 2160.46,-250.9"/>
<polygon fill="#63b8ff" stroke="#63b8ff" points="2163.95,-251.19 2161.21,-240.95 2156.97,-250.66 2163.95,-251.19"/>
</g>
<!-- Node49&#45;&gt;Node3 -->
<g id="edge82" class="edge">
<title>Node49&#45;&gt;Node3</title>
<path fill="none" stroke="#63b8ff" d="M2173.93,-219.8C2183.83,-211.77 2197.19,-198.87 2203,-184 2214.96,-153.36 2223.17,-135.98 2203,-110 2200.83,-107.2 2113.95,-85.93 2063.8,-73.84"/>
<polygon fill="#63b8ff" stroke="#63b8ff" points="2064.82,-70.48 2054.28,-71.54 2063.18,-77.29 2064.82,-70.48"/>
</g>
<!-- Node49&#45;&gt;Node4 -->
<g id="edge81" class="edge">
<title>Node49&#45;&gt;Node4</title>
<path fill="none" stroke="#63b8ff" d="M2166.38,-219.65C2176.48,-197.84 2198.45,-140.99 2170,-110 2138.33,-75.5 1796.59,-78.82 1750,-74 1738.16,-72.77 1725.22,-71.25 1713.72,-69.84"/>
<polygon fill="#63b8ff" stroke="#63b8ff" points="1714.22,-66.37 1703.86,-68.61 1713.35,-73.32 1714.22,-66.37"/>
</g>
<!-- Node49&#45;&gt;Node16 -->
<g id="edge83" class="edge">
<title>Node49&#45;&gt;Node16</title>
<path fill="none" stroke="#63b8ff" d="M2181.06,-219.57C2194.56,-212.12 2211.68,-200.13 2220,-184 2249.17,-127.47 2216.42,-80.17 2158,-55 2088.66,-25.13 1861.97,-14.69 1769.66,-11.61"/>
<polygon fill="#63b8ff" stroke="#63b8ff" points="1769.93,-8.12 1759.83,-11.3 1769.71,-15.12 1769.93,-8.12"/>
</g>
<!-- Node49&#45;&gt;Node23 -->
<g id="edge84" class="edge">
<title>Node49&#45;&gt;Node23</title>
<path fill="none" stroke="#63b8ff" d="M2158.32,-219.66C2151.1,-202.34 2134.94,-163.55 2125.1,-139.95"/>
<polygon fill="#63b8ff" stroke="#63b8ff" points="2128.39,-138.74 2121.32,-130.86 2121.93,-141.43 2128.39,-138.74"/>
</g>
<!-- Node50 -->
<g id="node50" class="node">
<title>Node50</title>
<g id="a_node50"><a xlink:href="Data_8hpp.html" target="_top" xlink:title=" ">
<polygon fill="white" stroke="#666666" points="1878.5,-184 1817.5,-184 1817.5,-165 1878.5,-165 1878.5,-184"/>
<text text-anchor="middle" x="1848" y="-172" font-family="Helvetica,sans-Serif" font-size="10.00">Data.hpp</text>
</a>
</g>
</g>
<!-- Node49&#45;&gt;Node50 -->
<g id="edge72" class="edge">
<title>Node49&#45;&gt;Node50</title>
<path fill="none" stroke="#63b8ff" d="M2108.73,-219.51C2046.86,-209.07 1946.07,-192.05 1889.64,-182.53"/>
<polygon fill="#63b8ff" stroke="#63b8ff" points="1890.57,-179.14 1880.13,-180.92 1889.41,-186.04 1890.57,-179.14"/>
</g>
<!-- Node50&#45;&gt;Node3 -->
<g id="edge78" class="edge">
<title>Node50&#45;&gt;Node3</title>
<path fill="none" stroke="#63b8ff" d="M1878.92,-168.94C1908.03,-163.42 1951.72,-151.86 1983,-129 1998.96,-117.34 2011.61,-98.48 2019.57,-84.34"/>
<polygon fill="#63b8ff" stroke="#63b8ff" points="2022.63,-86.05 2024.22,-75.57 2016.44,-82.77 2022.63,-86.05"/>
</g>
<!-- Node50&#45;&gt;Node4 -->
<g id="edge76" class="edge">
<title>Node50&#45;&gt;Node4</title>
<path fill="none" stroke="#63b8ff" d="M1834.25,-164.66C1805.58,-146.23 1739.11,-103.5 1703.51,-80.62"/>
<polygon fill="#63b8ff" stroke="#63b8ff" points="1705.52,-77.74 1695.21,-75.28 1701.73,-83.63 1705.52,-77.74"/>
</g>
<!-- Node50&#45;&gt;Node7 -->
<g id="edge74" class="edge">
<title>Node50&#45;&gt;Node7</title>
<path fill="none" stroke="#63b8ff" d="M1870.43,-164.56C1885.17,-157.36 1903.29,-145.67 1912,-129 1920.14,-113.43 1909.47,-95.4 1898.48,-82.54"/>
<polygon fill="#63b8ff" stroke="#63b8ff" points="1901.11,-80.23 1891.73,-75.31 1896,-85.01 1901.11,-80.23"/>
</g>
<!-- Node50&#45;&gt;Node9 -->
<g id="edge75" class="edge">
<title>Node50&#45;&gt;Node9</title>
<path fill="none" stroke="#63b8ff" d="M1848,-164.75C1848,-158.27 1848,-149.16 1848,-140.9"/>
<polygon fill="#63b8ff" stroke="#63b8ff" points="1851.5,-140.96 1848,-130.96 1844.5,-140.96 1851.5,-140.96"/>
</g>
<!-- Node50&#45;&gt;Node11 -->
<g id="edge73" class="edge">
<title>Node50&#45;&gt;Node11</title>
<path fill="none" stroke="#63b8ff" d="M1817,-170.76C1719,-162.11 1415.31,-135.28 1296.42,-124.78"/>
<polygon fill="#63b8ff" stroke="#63b8ff" points="1296.95,-121.31 1286.68,-123.92 1296.34,-128.28 1296.95,-121.31"/>
</g>
<!-- Node50&#45;&gt;Node20 -->
<g id="edge80" class="edge">
<title>Node50&#45;&gt;Node20</title>
<path fill="none" stroke="#63b8ff" d="M1820.35,-164.51C1793.69,-155.84 1753.12,-142.65 1723.34,-132.97"/>
<polygon fill="#63b8ff" stroke="#63b8ff" points="1724.55,-129.68 1713.95,-129.91 1722.38,-136.33 1724.55,-129.68"/>
</g>
<!-- Node50&#45;&gt;Node23 -->
<g id="edge79" class="edge">
<title>Node50&#45;&gt;Node23</title>
<path fill="none" stroke="#63b8ff" d="M1878.86,-167.42C1923.53,-158.62 2006.9,-142.19 2062.19,-131.3"/>
<polygon fill="#63b8ff" stroke="#63b8ff" points="2062.57,-134.79 2071.71,-129.42 2061.22,-127.92 2062.57,-134.79"/>
</g>
<!-- Node50&#45;&gt;Node32 -->
<g id="edge77" class="edge">
<title>Node50&#45;&gt;Node32</title>
<path fill="none" stroke="#63b8ff" d="M1817.25,-170.04C1773.44,-164.52 1690.96,-151.93 1624,-129 1606.14,-122.88 1604,-115.7 1586,-110 1486.99,-78.66 1453.97,-96.39 1349.51,-74.24"/>
<polygon fill="#63b8ff" stroke="#63b8ff" points="1350.48,-70.87 1339.96,-72.14 1348.98,-77.7 1350.48,-70.87"/>
</g>
</g>
</svg>
