<?xml version="1.0" encoding="UTF-8" standalone="no"?>
<!DOCTYPE svg PUBLIC "-//W3C//DTD SVG 1.1//EN"
 "http://www.w3.org/Graphics/SVG/1.1/DTD/svg11.dtd">
<!-- Generated by graphviz version 9.0.0 (0)
 -->
<!-- Title: TensorReduceijij.cxx Pages: 1 -->
<svg width="2146pt" height="369pt"
 viewBox="0.00 0.00 2146.36 369.25" xmlns="http://www.w3.org/2000/svg" xmlns:xlink="http://www.w3.org/1999/xlink">
<g id="graph0" class="graph" transform="scale(1 1) rotate(0) translate(4 365.25)">
<title>TensorReduceijij.cxx</title>
<!-- Node1 -->
<g id="Node000001" class="node">
<title>Node1</title>
<g id="a_Node000001"><a xlink:title=" ">
<polygon fill="#999999" stroke="#666666" points="1745.88,-361.25 1630.12,-361.25 1630.12,-340.5 1745.88,-340.5 1745.88,-361.25"/>
<text text-anchor="middle" x="1688" y="-347.75" font-family="Helvetica,sans-Serif" font-size="10.00">TensorReduceijij.cxx</text>
</a>
</g>
</g>
<!-- Node2 -->
<g id="Node000002" class="node">
<title>Node2</title>
<g id="a_Node000002"><a xlink:href="TensorReduceijij_8hpp.html" target="_top" xlink:title=" ">
<polygon fill="white" stroke="#666666" points="1991,-304.5 1819,-304.5 1819,-283.75 1991,-283.75 1991,-304.5"/>
<text text-anchor="middle" x="1905" y="-291" font-family="Helvetica,sans-Serif" font-size="10.00">algorithms/TensorReduceijij.hpp</text>
</a>
</g>
</g>
<!-- Node1&#45;&gt;Node2 -->
<g id="edge1_Node000001_Node000002" class="edge">
<title>Node1&#45;&gt;Node2</title>
<g id="a_edge1_Node000001_Node000002"><a xlink:title=" ">
<path fill="none" stroke="#63b8ff" d="M1727.05,-340.02C1762.81,-331 1815.93,-317.6 1854.83,-307.78"/>
<polygon fill="#63b8ff" stroke="#63b8ff" points="1855.59,-311.2 1864.43,-305.36 1853.88,-304.41 1855.59,-311.2"/>
</a>
</g>
</g>
<!-- Node5 -->
<g id="Node000005" class="node">
<title>Node5</title>
<g id="a_Node000005"><a xlink:href="Log_8hpp.html" target="_top" xlink:title=" ">
<polygon fill="white" stroke="#666666" points="1534.5,-134.25 1461.5,-134.25 1461.5,-113.5 1534.5,-113.5 1534.5,-134.25"/>
<text text-anchor="middle" x="1498" y="-120.75" font-family="Helvetica,sans-Serif" font-size="10.00">util/Log.hpp</text>
</a>
</g>
</g>
<!-- Node1&#45;&gt;Node5 -->
<g id="edge35_Node000001_Node000005" class="edge">
<title>Node1&#45;&gt;Node5</title>
<g id="a_edge35_Node000001_Node000005"><a xlink:title=" ">
<path fill="none" stroke="#63b8ff" d="M1691.71,-340.38C1702.41,-311.27 1729.99,-222.12 1689,-170.25 1671.5,-148.11 1596.72,-135.63 1546.08,-129.57"/>
<polygon fill="#63b8ff" stroke="#63b8ff" points="1546.57,-126.1 1536.23,-128.44 1545.77,-133.06 1546.57,-126.1"/>
</a>
</g>
</g>
<!-- Node14 -->
<g id="Node000014" class="node">
<title>Node14</title>
<g id="a_Node000014"><a xlink:title=" ">
<polygon fill="#e0e0e0" stroke="#999999" points="1439.75,-77.5 1380.25,-77.5 1380.25,-56.75 1439.75,-56.75 1439.75,-77.5"/>
<text text-anchor="middle" x="1410" y="-64" font-family="Helvetica,sans-Serif" font-size="10.00">iostream</text>
</a>
</g>
</g>
<!-- Node1&#45;&gt;Node14 -->
<g id="edge36_Node000001_Node000014" class="edge">
<title>Node1&#45;&gt;Node14</title>
<g id="a_edge36_Node000001_Node000014"><a xlink:title=" ">
<path fill="none" stroke="#63b8ff" d="M1629.65,-342.65C1533.67,-329.12 1353,-295.99 1353,-238.38 1353,-238.38 1353,-238.38 1353,-179.62 1353,-143.59 1376.89,-107.48 1393.74,-86.49"/>
<polygon fill="#63b8ff" stroke="#63b8ff" points="1396.38,-88.79 1400.12,-78.88 1391.02,-84.3 1396.38,-88.79"/>
</a>
</g>
</g>
<!-- Node26 -->
<g id="Node000026" class="node">
<title>Node26</title>
<g id="a_Node000026"><a xlink:href="Sisi4s_8hpp.html" target="_top" xlink:title=" ">
<polygon fill="white" stroke="#666666" points="1675.75,-247.75 1610.25,-247.75 1610.25,-227 1675.75,-227 1675.75,-247.75"/>
<text text-anchor="middle" x="1643" y="-234.25" font-family="Helvetica,sans-Serif" font-size="10.00">Sisi4s.hpp</text>
</a>
</g>
</g>
<!-- Node1&#45;&gt;Node26 -->
<g id="edge37_Node000001_Node000026" class="edge">
<title>Node1&#45;&gt;Node26</title>
<g id="a_edge37_Node000001_Node000026"><a xlink:title=" ">
<path fill="none" stroke="#63b8ff" d="M1684.16,-340.37C1676.89,-322.36 1660.97,-282.89 1651.19,-258.68"/>
<polygon fill="#63b8ff" stroke="#63b8ff" points="1654.51,-257.54 1647.52,-249.58 1648.02,-260.16 1654.51,-257.54"/>
</a>
</g>
</g>
<!-- Node3 -->
<g id="Node000003" class="node">
<title>Node3</title>
<g id="a_Node000003"><a xlink:href="Algorithm_8hpp.html" target="_top" xlink:title=" ">
<polygon fill="white" stroke="#666666" points="2101.25,-247.75 1960.75,-247.75 1960.75,-227 2101.25,-227 2101.25,-247.75"/>
<text text-anchor="middle" x="2031" y="-234.25" font-family="Helvetica,sans-Serif" font-size="10.00">algorithms/Algorithm.hpp</text>
</a>
</g>
</g>
<!-- Node2&#45;&gt;Node3 -->
<g id="edge2_Node000002_Node000003" class="edge">
<title>Node2&#45;&gt;Node3</title>
<g id="a_edge2_Node000002_Node000003"><a xlink:title=" ">
<path fill="none" stroke="#63b8ff" d="M1927.53,-283.34C1947.24,-274.77 1976.11,-262.23 1998.35,-252.56"/>
<polygon fill="#63b8ff" stroke="#63b8ff" points="1999.5,-255.88 2007.28,-248.68 1996.71,-249.46 1999.5,-255.88"/>
</a>
</g>
</g>
<!-- Node4 -->
<g id="Node000004" class="node">
<title>Node4</title>
<g id="a_Node000004"><a xlink:href="Data_8hpp.html" target="_top" xlink:title=" ">
<polygon fill="white" stroke="#666666" points="1796.12,-191 1735.88,-191 1735.88,-170.25 1796.12,-170.25 1796.12,-191"/>
<text text-anchor="middle" x="1766" y="-177.5" font-family="Helvetica,sans-Serif" font-size="10.00">Data.hpp</text>
</a>
</g>
</g>
<!-- Node3&#45;&gt;Node4 -->
<g id="edge3_Node000003_Node000004" class="edge">
<title>Node3&#45;&gt;Node4</title>
<g id="a_edge3_Node000003_Node000004"><a xlink:title=" ">
<path fill="none" stroke="#63b8ff" d="M1983.32,-226.52C1933.21,-216.17 1855.18,-200.05 1807.52,-190.2"/>
<polygon fill="#63b8ff" stroke="#63b8ff" points="1808.36,-186.8 1797.86,-188.21 1806.95,-193.66 1808.36,-186.8"/>
</a>
</g>
</g>
<!-- Node11 -->
<g id="Node000011" class="node">
<title>Node11</title>
<g id="a_Node000011"><a xlink:title=" ">
<polygon fill="#e0e0e0" stroke="#999999" points="1630.88,-20.75 1575.12,-20.75 1575.12,0 1630.88,0 1630.88,-20.75"/>
<text text-anchor="middle" x="1603" y="-7.25" font-family="Helvetica,sans-Serif" font-size="10.00">sstream</text>
</a>
</g>
</g>
<!-- Node3&#45;&gt;Node11 -->
<g id="edge33_Node000003_Node000011" class="edge">
<title>Node3&#45;&gt;Node11</title>
<g id="a_edge33_Node000003_Node000011"><a xlink:title=" ">
<path fill="none" stroke="#63b8ff" d="M2056.08,-226.59C2071.59,-219.2 2090.48,-207.48 2101,-191 2133.32,-140.34 2157.72,-100.93 2117,-56.75 2083.68,-20.6 1724.89,-25.88 1676,-20.75 1665.08,-19.6 1653.27,-18.17 1642.39,-16.77"/>
<polygon fill="#63b8ff" stroke="#63b8ff" points="1642.91,-13.31 1632.54,-15.48 1642,-20.25 1642.91,-13.31"/>
</a>
</g>
</g>
<!-- Node13 -->
<g id="Node000013" class="node">
<title>Node13</title>
<g id="a_Node000013"><a xlink:title=" ">
<polygon fill="#e0e0e0" stroke="#999999" points="1683.88,-77.5 1640.12,-77.5 1640.12,-56.75 1683.88,-56.75 1683.88,-77.5"/>
<text text-anchor="middle" x="1662" y="-64" font-family="Helvetica,sans-Serif" font-size="10.00">string</text>
</a>
</g>
</g>
<!-- Node3&#45;&gt;Node13 -->
<g id="edge31_Node000003_Node000013" class="edge">
<title>Node3&#45;&gt;Node13</title>
<g id="a_edge31_Node000003_Node000013"><a xlink:title=" ">
<path fill="none" stroke="#63b8ff" d="M2037.06,-226.62C2050.43,-203.72 2079.05,-146.02 2050,-113.5 2002.47,-60.3 1801.79,-86.3 1731,-77.5 1719.42,-76.06 1706.77,-74.37 1695.5,-72.83"/>
<polygon fill="#63b8ff" stroke="#63b8ff" points="1696.24,-69.4 1685.86,-71.5 1695.28,-76.34 1696.24,-69.4"/>
</a>
</g>
</g>
<!-- Node21 -->
<g id="Node000021" class="node">
<title>Node21</title>
<g id="a_Node000021"><a xlink:title=" ">
<polygon fill="#e0e0e0" stroke="#999999" points="1970.38,-77.5 1923.62,-77.5 1923.62,-56.75 1970.38,-56.75 1970.38,-77.5"/>
<text text-anchor="middle" x="1947" y="-64" font-family="Helvetica,sans-Serif" font-size="10.00">vector</text>
</a>
</g>
</g>
<!-- Node3&#45;&gt;Node21 -->
<g id="edge32_Node000003_Node000021" class="edge">
<title>Node3&#45;&gt;Node21</title>
<g id="a_edge32_Node000003_Node000021"><a xlink:title=" ">
<path fill="none" stroke="#63b8ff" d="M2048.56,-226.61C2060.73,-218.76 2075.96,-206.49 2083,-191 2097.25,-159.64 2103.14,-141.45 2083,-113.5 2070.99,-96.83 2017.89,-82.78 1981.7,-74.92"/>
<polygon fill="#63b8ff" stroke="#63b8ff" points="1982.61,-71.53 1972.1,-72.89 1981.17,-78.38 1982.61,-71.53"/>
</a>
</g>
</g>
<!-- Node22 -->
<g id="Node000022" class="node">
<title>Node22</title>
<g id="a_Node000022"><a xlink:href="Tensor_8hpp.html" target="_top" xlink:title=" ">
<polygon fill="white" stroke="#666666" points="2041.25,-134.25 1954.75,-134.25 1954.75,-113.5 2041.25,-113.5 2041.25,-134.25"/>
<text text-anchor="middle" x="1998" y="-120.75" font-family="Helvetica,sans-Serif" font-size="10.00">util/Tensor.hpp</text>
</a>
</g>
</g>
<!-- Node3&#45;&gt;Node22 -->
<g id="edge34_Node000003_Node000022" class="edge">
<title>Node3&#45;&gt;Node22</title>
<g id="a_edge34_Node000003_Node000022"><a xlink:title=" ">
<path fill="none" stroke="#63b8ff" d="M2028.19,-226.87C2022.88,-208.94 2011.28,-169.75 2004.11,-145.51"/>
<polygon fill="#63b8ff" stroke="#63b8ff" points="2007.52,-144.72 2001.33,-136.13 2000.81,-146.71 2007.52,-144.72"/>
</a>
</g>
</g>
<!-- Node4&#45;&gt;Node5 -->
<g id="edge4_Node000004_Node000005" class="edge">
<title>Node4&#45;&gt;Node5</title>
<g id="a_edge4_Node000004_Node000005"><a xlink:title=" ">
<path fill="none" stroke="#63b8ff" d="M1735.71,-173.13C1731.12,-172.16 1726.44,-171.17 1722,-170.25 1661.42,-157.66 1591.54,-143.57 1546.16,-134.48"/>
<polygon fill="#63b8ff" stroke="#63b8ff" points="1546.86,-131.06 1536.37,-132.53 1545.49,-137.92 1546.86,-131.06"/>
</a>
</g>
</g>
<!-- Node4&#45;&gt;Node13 -->
<g id="edge21_Node000004_Node000013" class="edge">
<title>Node4&#45;&gt;Node13</title>
<g id="a_edge21_Node000004_Node000013"><a xlink:title=" ">
<path fill="none" stroke="#63b8ff" d="M1757.13,-170.12C1739.8,-151.53 1701.16,-110.11 1678.83,-86.16"/>
<polygon fill="#63b8ff" stroke="#63b8ff" points="1681.55,-83.96 1672.17,-79.03 1676.43,-88.73 1681.55,-83.96"/>
</a>
</g>
</g>
<!-- Node17 -->
<g id="Node000017" class="node">
<title>Node17</title>
<g id="a_Node000017"><a xlink:href="Float_8hpp.html" target="_top" xlink:title=" ">
<polygon fill="white" stroke="#666666" points="1830.12,-77.5 1739.88,-77.5 1739.88,-56.75 1830.12,-56.75 1830.12,-77.5"/>
<text text-anchor="middle" x="1785" y="-64" font-family="Helvetica,sans-Serif" font-size="10.00">math/Float.hpp</text>
</a>
</g>
</g>
<!-- Node4&#45;&gt;Node17 -->
<g id="edge16_Node000004_Node000017" class="edge">
<title>Node4&#45;&gt;Node17</title>
<g id="a_edge16_Node000004_Node000017"><a xlink:title=" ">
<path fill="none" stroke="#63b8ff" d="M1767.62,-170.12C1770.66,-152.27 1777.29,-113.36 1781.43,-89.09"/>
<polygon fill="#63b8ff" stroke="#63b8ff" points="1784.85,-89.86 1783.08,-79.42 1777.95,-88.69 1784.85,-89.86"/>
</a>
</g>
</g>
<!-- Node18 -->
<g id="Node000018" class="node">
<title>Node18</title>
<g id="a_Node000018"><a xlink:href="Complex_8hpp.html" target="_top" xlink:title=" ">
<polygon fill="white" stroke="#666666" points="1898.5,-134.25 1789.5,-134.25 1789.5,-113.5 1898.5,-113.5 1898.5,-134.25"/>
<text text-anchor="middle" x="1844" y="-120.75" font-family="Helvetica,sans-Serif" font-size="10.00">math/Complex.hpp</text>
</a>
</g>
</g>
<!-- Node4&#45;&gt;Node18 -->
<g id="edge18_Node000004_Node000018" class="edge">
<title>Node4&#45;&gt;Node18</title>
<g id="a_edge18_Node000004_Node000018"><a xlink:title=" ">
<path fill="none" stroke="#63b8ff" d="M1779.94,-169.84C1791.37,-161.82 1807.77,-150.31 1821.11,-140.94"/>
<polygon fill="#63b8ff" stroke="#63b8ff" points="1822.76,-144.06 1828.94,-135.45 1818.74,-138.33 1822.76,-144.06"/>
</a>
</g>
</g>
<!-- Node20 -->
<g id="Node000020" class="node">
<title>Node20</title>
<g id="a_Node000020"><a xlink:title=" ">
<polygon fill="#e0e0e0" stroke="#999999" points="1289.88,-77.5 1252.12,-77.5 1252.12,-56.75 1289.88,-56.75 1289.88,-77.5"/>
<text text-anchor="middle" x="1271" y="-64" font-family="Helvetica,sans-Serif" font-size="10.00">map</text>
</a>
</g>
</g>
<!-- Node4&#45;&gt;Node20 -->
<g id="edge22_Node000004_Node000020" class="edge">
<title>Node4&#45;&gt;Node20</title>
<g id="a_edge22_Node000004_Node000020"><a xlink:title=" ">
<path fill="none" stroke="#63b8ff" d="M1735.5,-175.58C1662.01,-165.79 1479.21,-141.11 1452,-134.25 1397.26,-120.45 1336.05,-96.12 1300.67,-81.13"/>
<polygon fill="#63b8ff" stroke="#63b8ff" points="1302.1,-77.93 1291.53,-77.21 1299.34,-84.37 1302.1,-77.93"/>
</a>
</g>
</g>
<!-- Node4&#45;&gt;Node21 -->
<g id="edge23_Node000004_Node000021" class="edge">
<title>Node4&#45;&gt;Node21</title>
<g id="a_edge23_Node000004_Node000021"><a xlink:title=" ">
<path fill="none" stroke="#63b8ff" d="M1796.41,-176.3C1827.37,-171.56 1875.33,-160.32 1908,-134.25 1922.96,-122.31 1933.41,-102.96 1939.7,-88.27"/>
<polygon fill="#63b8ff" stroke="#63b8ff" points="1942.89,-89.71 1943.3,-79.12 1936.38,-87.14 1942.89,-89.71"/>
</a>
</g>
</g>
<!-- Node4&#45;&gt;Node22 -->
<g id="edge24_Node000004_Node000022" class="edge">
<title>Node4&#45;&gt;Node22</title>
<g id="a_edge24_Node000004_Node000022"><a xlink:title=" ">
<path fill="none" stroke="#63b8ff" d="M1796.33,-172.47C1834.12,-163.55 1899.3,-148.17 1945.32,-137.31"/>
<polygon fill="#63b8ff" stroke="#63b8ff" points="1945.88,-140.77 1954.81,-135.07 1944.27,-133.96 1945.88,-140.77"/>
</a>
</g>
</g>
<!-- Node25 -->
<g id="Node000025" class="node">
<title>Node25</title>
<g id="a_Node000025"><a xlink:href="Exception_8hpp.html" target="_top" xlink:title=" ">
<polygon fill="white" stroke="#666666" points="1694.88,-134.25 1591.12,-134.25 1591.12,-113.5 1694.88,-113.5 1694.88,-134.25"/>
<text text-anchor="middle" x="1643" y="-120.75" font-family="Helvetica,sans-Serif" font-size="10.00">util/Exception.hpp</text>
</a>
</g>
</g>
<!-- Node4&#45;&gt;Node25 -->
<g id="edge27_Node000004_Node000025" class="edge">
<title>Node4&#45;&gt;Node25</title>
<g id="a_edge27_Node000004_Node000025"><a xlink:title=" ">
<path fill="none" stroke="#63b8ff" d="M1744.01,-169.84C1724.86,-161.31 1696.84,-148.84 1675.17,-139.19"/>
<polygon fill="#63b8ff" stroke="#63b8ff" points="1676.74,-136.06 1666.18,-135.19 1673.89,-142.46 1676.74,-136.06"/>
</a>
</g>
</g>
<!-- Node6 -->
<g id="Node000006" class="node">
<title>Node6</title>
<g id="a_Node000006"><a xlink:href="Time_8hpp.html" target="_top" xlink:title=" ">
<polygon fill="white" stroke="#666666" points="1538.25,-77.5 1457.75,-77.5 1457.75,-56.75 1538.25,-56.75 1538.25,-77.5"/>
<text text-anchor="middle" x="1498" y="-64" font-family="Helvetica,sans-Serif" font-size="10.00">util/Time.hpp</text>
</a>
</g>
</g>
<!-- Node5&#45;&gt;Node6 -->
<g id="edge5_Node000005_Node000006" class="edge">
<title>Node5&#45;&gt;Node6</title>
<g id="a_edge5_Node000005_Node000006"><a xlink:title=" ">
<path fill="none" stroke="#63b8ff" d="M1498,-113.09C1498,-106.47 1498,-97.47 1498,-89.27"/>
<polygon fill="#63b8ff" stroke="#63b8ff" points="1501.5,-89.34 1498,-79.34 1494.5,-89.34 1501.5,-89.34"/>
</a>
</g>
</g>
<!-- Node5&#45;&gt;Node13 -->
<g id="edge12_Node000005_Node000013" class="edge">
<title>Node5&#45;&gt;Node13</title>
<g id="a_edge12_Node000005_Node000013"><a xlink:title=" ">
<path fill="none" stroke="#63b8ff" d="M1527.32,-113.09C1555.91,-103.54 1599.33,-89.05 1629.09,-79.11"/>
<polygon fill="#63b8ff" stroke="#63b8ff" points="1629.95,-82.51 1638.33,-76.03 1627.74,-75.87 1629.95,-82.51"/>
</a>
</g>
</g>
<!-- Node5&#45;&gt;Node14 -->
<g id="edge13_Node000005_Node000014" class="edge">
<title>Node5&#45;&gt;Node14</title>
<g id="a_edge13_Node000005_Node000014"><a xlink:title=" ">
<path fill="none" stroke="#63b8ff" d="M1482.27,-113.09C1469.13,-104.91 1450.16,-93.11 1434.95,-83.65"/>
<polygon fill="#63b8ff" stroke="#63b8ff" points="1437.22,-80.94 1426.88,-78.63 1433.52,-86.88 1437.22,-80.94"/>
</a>
</g>
</g>
<!-- Node15 -->
<g id="Node000015" class="node">
<title>Node15</title>
<g id="a_Node000015"><a xlink:title=" ">
<polygon fill="#e0e0e0" stroke="#999999" points="1622.12,-77.5 1555.88,-77.5 1555.88,-56.75 1622.12,-56.75 1622.12,-77.5"/>
<text text-anchor="middle" x="1589" y="-64" font-family="Helvetica,sans-Serif" font-size="10.00">streambuf</text>
</a>
</g>
</g>
<!-- Node5&#45;&gt;Node15 -->
<g id="edge14_Node000005_Node000015" class="edge">
<title>Node5&#45;&gt;Node15</title>
<g id="a_edge14_Node000005_Node000015"><a xlink:title=" ">
<path fill="none" stroke="#63b8ff" d="M1514.27,-113.09C1527.86,-104.91 1547.47,-93.11 1563.2,-83.65"/>
<polygon fill="#63b8ff" stroke="#63b8ff" points="1564.81,-86.76 1571.57,-78.61 1561.2,-80.77 1564.81,-86.76"/>
</a>
</g>
</g>
<!-- Node16 -->
<g id="Node000016" class="node">
<title>Node16</title>
<g id="a_Node000016"><a xlink:title=" ">
<polygon fill="#e0e0e0" stroke="#999999" points="1362.12,-77.5 1307.88,-77.5 1307.88,-56.75 1362.12,-56.75 1362.12,-77.5"/>
<text text-anchor="middle" x="1335" y="-64" font-family="Helvetica,sans-Serif" font-size="10.00">fstream</text>
</a>
</g>
</g>
<!-- Node5&#45;&gt;Node16 -->
<g id="edge15_Node000005_Node000016" class="edge">
<title>Node5&#45;&gt;Node16</title>
<g id="a_edge15_Node000005_Node000016"><a xlink:title=" ">
<path fill="none" stroke="#63b8ff" d="M1468.86,-113.09C1442.14,-104.11 1402.42,-90.77 1373.18,-80.95"/>
<polygon fill="#63b8ff" stroke="#63b8ff" points="1374.56,-77.72 1363.97,-77.85 1372.33,-84.36 1374.56,-77.72"/>
</a>
</g>
</g>
<!-- Node7 -->
<g id="Node000007" class="node">
<title>Node7</title>
<g id="a_Node000007"><a xlink:title=" ">
<polygon fill="#e0e0e0" stroke="#999999" points="1519.88,-20.75 1476.12,-20.75 1476.12,0 1519.88,0 1519.88,-20.75"/>
<text text-anchor="middle" x="1498" y="-7.25" font-family="Helvetica,sans-Serif" font-size="10.00">ctime</text>
</a>
</g>
</g>
<!-- Node6&#45;&gt;Node7 -->
<g id="edge6_Node000006_Node000007" class="edge">
<title>Node6&#45;&gt;Node7</title>
<g id="a_edge6_Node000006_Node000007"><a xlink:title=" ">
<path fill="none" stroke="#63b8ff" d="M1498,-56.34C1498,-49.72 1498,-40.72 1498,-32.52"/>
<polygon fill="#63b8ff" stroke="#63b8ff" points="1501.5,-32.59 1498,-22.59 1494.5,-32.59 1501.5,-32.59"/>
</a>
</g>
</g>
<!-- Node8 -->
<g id="Node000008" class="node">
<title>Node8</title>
<g id="a_Node000008"><a xlink:title=" ">
<polygon fill="#e0e0e0" stroke="#999999" points="542.5,-20.75 493.5,-20.75 493.5,0 542.5,0 542.5,-20.75"/>
<text text-anchor="middle" x="518" y="-7.25" font-family="Helvetica,sans-Serif" font-size="10.00">cstdint</text>
</a>
</g>
</g>
<!-- Node6&#45;&gt;Node8 -->
<g id="edge7_Node000006_Node000008" class="edge">
<title>Node6&#45;&gt;Node8</title>
<g id="a_edge7_Node000006_Node000008"><a xlink:title=" ">
<path fill="none" stroke="#63b8ff" d="M1457.43,-57.91C1454.58,-57.47 1451.75,-57.08 1449,-56.75 1102.62,-15.38 679.43,-11.51 554.41,-11.32"/>
<polygon fill="#63b8ff" stroke="#63b8ff" points="554.44,-7.82 544.44,-11.31 554.43,-14.82 554.44,-7.82"/>
</a>
</g>
</g>
<!-- Node9 -->
<g id="Node000009" class="node">
<title>Node9</title>
<g id="a_Node000009"><a xlink:title=" ">
<polygon fill="#e0e0e0" stroke="#999999" points="1741.25,-20.75 1684.75,-20.75 1684.75,0 1741.25,0 1741.25,-20.75"/>
<text text-anchor="middle" x="1713" y="-7.25" font-family="Helvetica,sans-Serif" font-size="10.00">ostream</text>
</a>
</g>
</g>
<!-- Node6&#45;&gt;Node9 -->
<g id="edge8_Node000006_Node000009" class="edge">
<title>Node6&#45;&gt;Node9</title>
<g id="a_edge8_Node000006_Node000009"><a xlink:title=" ">
<path fill="none" stroke="#63b8ff" d="M1536.44,-56.34C1575.13,-46.48 1634.53,-31.36 1673.58,-21.41"/>
<polygon fill="#63b8ff" stroke="#63b8ff" points="1674.21,-24.86 1683.04,-19 1672.48,-18.08 1674.21,-24.86"/>
</a>
</g>
</g>
<!-- Node10 -->
<g id="Node000010" class="node">
<title>Node10</title>
<g id="a_Node000010"><a xlink:title=" ">
<polygon fill="#e0e0e0" stroke="#999999" points="1346.88,-20.75 1291.12,-20.75 1291.12,0 1346.88,0 1346.88,-20.75"/>
<text text-anchor="middle" x="1319" y="-7.25" font-family="Helvetica,sans-Serif" font-size="10.00">iomanip</text>
</a>
</g>
</g>
<!-- Node6&#45;&gt;Node10 -->
<g id="edge9_Node000006_Node000010" class="edge">
<title>Node6&#45;&gt;Node10</title>
<g id="a_edge9_Node000006_Node000010"><a xlink:title=" ">
<path fill="none" stroke="#63b8ff" d="M1466,-56.34C1435.77,-47.09 1390.38,-33.21 1358.04,-23.32"/>
<polygon fill="#63b8ff" stroke="#63b8ff" points="1359.22,-20.02 1348.64,-20.44 1357.18,-26.71 1359.22,-20.02"/>
</a>
</g>
</g>
<!-- Node6&#45;&gt;Node11 -->
<g id="edge10_Node000006_Node000011" class="edge">
<title>Node6&#45;&gt;Node11</title>
<g id="a_edge10_Node000006_Node000011"><a xlink:title=" ">
<path fill="none" stroke="#63b8ff" d="M1516.77,-56.34C1532.75,-48.01 1555.95,-35.91 1574.26,-26.36"/>
<polygon fill="#63b8ff" stroke="#63b8ff" points="1575.8,-29.51 1583.05,-21.78 1572.56,-23.3 1575.8,-29.51"/>
</a>
</g>
</g>
<!-- Node12 -->
<g id="Node000012" class="node">
<title>Node12</title>
<g id="a_Node000012"><a xlink:title=" ">
<polygon fill="#e0e0e0" stroke="#999999" points="1051.38,-20.75 1004.62,-20.75 1004.62,0 1051.38,0 1051.38,-20.75"/>
<text text-anchor="middle" x="1028" y="-7.25" font-family="Helvetica,sans-Serif" font-size="10.00">cmath</text>
</a>
</g>
</g>
<!-- Node6&#45;&gt;Node12 -->
<g id="edge11_Node000006_Node000012" class="edge">
<title>Node6&#45;&gt;Node12</title>
<g id="a_edge11_Node000006_Node000012"><a xlink:title=" ">
<path fill="none" stroke="#63b8ff" d="M1457.4,-58.09C1454.56,-57.61 1451.74,-57.16 1449,-56.75 1306.43,-35.46 1135.27,-20.17 1062.96,-14.17"/>
<polygon fill="#63b8ff" stroke="#63b8ff" points="1063.59,-10.71 1053.33,-13.38 1063.01,-17.69 1063.59,-10.71"/>
</a>
</g>
</g>
<!-- Node17&#45;&gt;Node9 -->
<g id="edge17_Node000017_Node000009" class="edge">
<title>Node17&#45;&gt;Node9</title>
<g id="a_edge17_Node000017_Node000009"><a xlink:title=" ">
<path fill="none" stroke="#63b8ff" d="M1772.13,-56.34C1761.79,-48.47 1747.03,-37.25 1734.85,-27.99"/>
<polygon fill="#63b8ff" stroke="#63b8ff" points="1737.04,-25.26 1726.97,-21.99 1732.81,-30.83 1737.04,-25.26"/>
</a>
</g>
</g>
<!-- Node18&#45;&gt;Node17 -->
<g id="edge19_Node000018_Node000017" class="edge">
<title>Node18&#45;&gt;Node17</title>
<g id="a_edge19_Node000018_Node000017"><a xlink:title=" ">
<path fill="none" stroke="#63b8ff" d="M1833.45,-113.09C1825.23,-105.46 1813.6,-94.67 1803.8,-85.57"/>
<polygon fill="#63b8ff" stroke="#63b8ff" points="1806.28,-83.09 1796.57,-78.86 1801.52,-88.23 1806.28,-83.09"/>
</a>
</g>
</g>
<!-- Node19 -->
<g id="Node000019" class="node">
<title>Node19</title>
<g id="a_Node000019"><a xlink:title=" ">
<polygon fill="#e0e0e0" stroke="#999999" points="1906,-77.5 1848,-77.5 1848,-56.75 1906,-56.75 1906,-77.5"/>
<text text-anchor="middle" x="1877" y="-64" font-family="Helvetica,sans-Serif" font-size="10.00">complex</text>
</a>
</g>
</g>
<!-- Node18&#45;&gt;Node19 -->
<g id="edge20_Node000018_Node000019" class="edge">
<title>Node18&#45;&gt;Node19</title>
<g id="a_edge20_Node000018_Node000019"><a xlink:title=" ">
<path fill="none" stroke="#63b8ff" d="M1849.9,-113.09C1854.17,-106 1860.08,-96.19 1865.3,-87.54"/>
<polygon fill="#63b8ff" stroke="#63b8ff" points="1868.21,-89.5 1870.37,-79.12 1862.21,-85.88 1868.21,-89.5"/>
</a>
</g>
</g>
<!-- Node23 -->
<g id="Node000023" class="node">
<title>Node23</title>
<g id="a_Node000023"><a xlink:href="CTF_8hpp.html" target="_top" xlink:title=" ">
<polygon fill="white" stroke="#666666" points="2107.5,-77.5 2034.5,-77.5 2034.5,-56.75 2107.5,-56.75 2107.5,-77.5"/>
<text text-anchor="middle" x="2071" y="-64" font-family="Helvetica,sans-Serif" font-size="10.00">util/CTF.hpp</text>
</a>
</g>
</g>
<!-- Node22&#45;&gt;Node23 -->
<g id="edge25_Node000022_Node000023" class="edge">
<title>Node22&#45;&gt;Node23</title>
<g id="a_edge25_Node000022_Node000023"><a xlink:title=" ">
<path fill="none" stroke="#63b8ff" d="M2011.05,-113.09C2021.64,-105.15 2036.79,-93.78 2049.22,-84.46"/>
<polygon fill="#63b8ff" stroke="#63b8ff" points="2050.95,-87.54 2056.85,-78.74 2046.75,-81.94 2050.95,-87.54"/>
</a>
</g>
</g>
<!-- Node24 -->
<g id="Node000024" class="node">
<title>Node24</title>
<g id="a_Node000024"><a xlink:title=" ">
<polygon fill="#e0e0e0" stroke="#999999" points="2095.5,-20.75 2046.5,-20.75 2046.5,0 2095.5,0 2095.5,-20.75"/>
<text text-anchor="middle" x="2071" y="-7.25" font-family="Helvetica,sans-Serif" font-size="10.00">ctf.hpp</text>
</a>
</g>
</g>
<!-- Node23&#45;&gt;Node24 -->
<g id="edge26_Node000023_Node000024" class="edge">
<title>Node23&#45;&gt;Node24</title>
<g id="a_edge26_Node000023_Node000024"><a xlink:title=" ">
<path fill="none" stroke="#63b8ff" d="M2071,-56.34C2071,-49.72 2071,-40.72 2071,-32.52"/>
<polygon fill="#63b8ff" stroke="#63b8ff" points="2074.5,-32.59 2071,-22.59 2067.5,-32.59 2074.5,-32.59"/>
</a>
</g>
</g>
<!-- Node25&#45;&gt;Node11 -->
<g id="edge29_Node000025_Node000011" class="edge">
<title>Node25&#45;&gt;Node11</title>
<g id="a_edge29_Node000025_Node000011"><a xlink:title=" ">
<path fill="none" stroke="#63b8ff" d="M1659.48,-113.22C1678.63,-100.7 1706.05,-77.95 1693,-56.75 1681.8,-38.56 1660.83,-27.41 1641.94,-20.71"/>
<polygon fill="#63b8ff" stroke="#63b8ff" points="1643.18,-17.43 1632.59,-17.72 1641.05,-24.1 1643.18,-17.43"/>
</a>
</g>
</g>
<!-- Node25&#45;&gt;Node13 -->
<g id="edge28_Node000025_Node000013" class="edge">
<title>Node25&#45;&gt;Node13</title>
<g id="a_edge28_Node000025_Node000013"><a xlink:title=" ">
<path fill="none" stroke="#63b8ff" d="M1646.4,-113.09C1648.75,-106.31 1651.96,-97.05 1654.86,-88.69"/>
<polygon fill="#63b8ff" stroke="#63b8ff" points="1658.16,-89.85 1658.14,-79.26 1651.55,-87.56 1658.16,-89.85"/>
</a>
</g>
</g>
<!-- Node25&#45;&gt;Node14 -->
<g id="edge30_Node000025_Node000014" class="edge">
<title>Node25&#45;&gt;Node14</title>
<g id="a_edge30_Node000025_Node000014"><a xlink:title=" ">
<path fill="none" stroke="#63b8ff" d="M1600.6,-113.04C1563.66,-104.45 1508.37,-91.55 1451.28,-78.03"/>
<polygon fill="#63b8ff" stroke="#63b8ff" points="1452.24,-74.66 1441.7,-75.76 1450.63,-81.47 1452.24,-74.66"/>
</a>
</g>
</g>
<!-- Node26&#45;&gt;Node6 -->
<g id="edge38_Node000026_Node000006" class="edge">
<title>Node26&#45;&gt;Node6</title>
<g id="a_edge38_Node000026_Node000006"><a xlink:title=" ">
<path fill="none" stroke="#63b8ff" d="M1610.12,-233.57C1559.92,-228.53 1467.89,-216.04 1448,-191 1440.21,-181.19 1436.62,-146.91 1452,-113.5 1457.08,-102.46 1466.1,-92.63 1474.82,-84.98"/>
<polygon fill="#63b8ff" stroke="#63b8ff" points="1476.89,-87.8 1482.44,-78.77 1472.47,-82.37 1476.89,-87.8"/>
</a>
</g>
</g>
<!-- Node26&#45;&gt;Node23 -->
<g id="edge40_Node000026_Node000023" class="edge">
<title>Node26&#45;&gt;Node23</title>
<g id="a_edge40_Node000026_Node000023"><a xlink:title=" ">
<path fill="none" stroke="#63b8ff" d="M1675.99,-232.26C1762.86,-220.79 1995.07,-185.9 2050,-134.25 2062.48,-122.52 2067.57,-103.42 2069.64,-88.76"/>
<polygon fill="#63b8ff" stroke="#63b8ff" points="2073.07,-89.55 2070.6,-79.25 2066.11,-88.84 2073.07,-89.55"/>
</a>
</g>
</g>
<!-- Node27 -->
<g id="Node000027" class="node">
<title>Node27</title>
<g id="a_Node000027"><a xlink:href="Documentation_8hpp.html" target="_top" xlink:title=" ">
<polygon fill="white" stroke="#666666" points="1587.38,-191 1456.62,-191 1456.62,-170.25 1587.38,-170.25 1587.38,-191"/>
<text text-anchor="middle" x="1522" y="-177.5" font-family="Helvetica,sans-Serif" font-size="10.00">util/Documentation.hpp</text>
</a>
</g>
</g>
<!-- Node26&#45;&gt;Node27 -->
<g id="edge39_Node000026_Node000027" class="edge">
<title>Node26&#45;&gt;Node27</title>
<g id="a_edge39_Node000026_Node000027"><a xlink:title=" ">
<path fill="none" stroke="#63b8ff" d="M1621.37,-226.59C1602.53,-218.06 1574.96,-205.59 1553.64,-195.94"/>
<polygon fill="#63b8ff" stroke="#63b8ff" points="1555.38,-192.89 1544.82,-191.95 1552.49,-199.26 1555.38,-192.89"/>
</a>
</g>
</g>
<!-- Node28 -->
<g id="Node000028" class="node">
<title>Node28</title>
<g id="a_Node000028"><a xlink:href="Options_8hpp.html" target="_top" xlink:title=" ">
<polygon fill="white" stroke="#666666" points="1680.25,-191 1605.75,-191 1605.75,-170.25 1680.25,-170.25 1680.25,-191"/>
<text text-anchor="middle" x="1643" y="-177.5" font-family="Helvetica,sans-Serif" font-size="10.00">Options.hpp</text>
</a>
</g>
</g>
<!-- Node26&#45;&gt;Node28 -->
<g id="edge41_Node000026_Node000028" class="edge">
<title>Node26&#45;&gt;Node28</title>
<g id="a_edge41_Node000026_Node000028"><a xlink:title=" ">
<path fill="none" stroke="#63b8ff" d="M1643,-226.59C1643,-219.97 1643,-210.97 1643,-202.77"/>
<polygon fill="#63b8ff" stroke="#63b8ff" points="1646.5,-202.84 1643,-192.84 1639.5,-202.84 1646.5,-202.84"/>
</a>
</g>
</g>
<!-- Node28&#45;&gt;Node13 -->
<g id="edge42_Node000028_Node000013" class="edge">
<title>Node28&#45;&gt;Node13</title>
<g id="a_edge42_Node000028_Node000013"><a xlink:title=" ">
<path fill="none" stroke="#63b8ff" d="M1622.05,-169.81C1599.55,-157.82 1568.71,-136.31 1582,-113.5 1587.48,-104.09 1609.86,-91.81 1629.55,-82.41"/>
<polygon fill="#63b8ff" stroke="#63b8ff" points="1630.83,-85.67 1638.43,-78.28 1627.88,-79.32 1630.83,-85.67"/>
</a>
</g>
</g>
<!-- Node29 -->
<g id="Node000029" class="node">
<title>Node29</title>
<g id="a_Node000029"><a xlink:href="CLI11_8hpp.html" target="_top" xlink:title=" ">
<polygon fill="white" stroke="#666666" points="874.38,-134.25 773.62,-134.25 773.62,-113.5 874.38,-113.5 874.38,-134.25"/>
<text text-anchor="middle" x="824" y="-120.75" font-family="Helvetica,sans-Serif" font-size="10.00">vendor/CLI11.hpp</text>
</a>
</g>
</g>
<!-- Node28&#45;&gt;Node29 -->
<g id="edge43_Node000028_Node000029" class="edge">
<title>Node28&#45;&gt;Node29</title>
<g id="a_edge43_Node000028_Node000029"><a xlink:title=" ">
<path fill="none" stroke="#63b8ff" d="M1605.37,-171.64C1602.21,-171.12 1599.05,-170.64 1596,-170.25 1333.6,-136.53 1017.75,-127.84 886.21,-125.62"/>
<polygon fill="#63b8ff" stroke="#63b8ff" points="886.38,-122.12 876.32,-125.46 886.26,-129.12 886.38,-122.12"/>
</a>
</g>
</g>
<!-- Node29&#45;&gt;Node8 -->
<g id="edge57_Node000029_Node000008" class="edge">
<title>Node29&#45;&gt;Node8</title>
<g id="a_edge57_Node000029_Node000008"><a xlink:title=" ">
<path fill="none" stroke="#63b8ff" d="M773.29,-120.2C678.32,-114.67 481.33,-100.53 461,-77.5 445.85,-60.33 468.43,-40.4 489.49,-26.94"/>
<polygon fill="#63b8ff" stroke="#63b8ff" points="491.17,-30.02 497.92,-21.86 487.55,-24.02 491.17,-30.02"/>
</a>
</g>
</g>
<!-- Node29&#45;&gt;Node10 -->
<g id="edge53_Node000029_Node000010" class="edge">
<title>Node29&#45;&gt;Node10</title>
<g id="a_edge53_Node000029_Node000010"><a xlink:title=" ">
<path fill="none" stroke="#63b8ff" d="M773.32,-123.44C691.65,-123.16 536.53,-117.24 502,-77.5 495.95,-70.54 495.66,-63.45 502,-56.75 515.53,-42.45 1118.37,-18.89 1279.66,-12.83"/>
<polygon fill="#63b8ff" stroke="#63b8ff" points="1279.55,-16.34 1289.41,-12.47 1279.29,-9.34 1279.55,-16.34"/>
</a>
</g>
</g>
<!-- Node29&#45;&gt;Node11 -->
<g id="edge55_Node000029_Node000011" class="edge">
<title>Node29&#45;&gt;Node11</title>
<g id="a_edge55_Node000029_Node000011"><a xlink:title=" ">
<path fill="none" stroke="#63b8ff" d="M874.6,-122.9C948.82,-121.59 1090.78,-113.98 1205,-77.5 1223.33,-71.65 1224.69,-62.67 1243,-56.75 1364.91,-17.36 1401.9,-36.8 1529,-20.75 1540.25,-19.33 1552.47,-17.78 1563.67,-16.36"/>
<polygon fill="#63b8ff" stroke="#63b8ff" points="1563.91,-19.86 1573.39,-15.13 1563.03,-12.92 1563.91,-19.86"/>
</a>
</g>
</g>
<!-- Node29&#45;&gt;Node12 -->
<g id="edge46_Node000029_Node000012" class="edge">
<title>Node29&#45;&gt;Node12</title>
<g id="a_edge46_Node000029_Node000012"><a xlink:title=" ">
<path fill="none" stroke="#63b8ff" d="M773.32,-120.05C680.03,-114.33 488.78,-99.97 469,-77.5 462.91,-70.58 462.75,-63.53 469,-56.75 504.54,-18.21 875.95,-12.4 992.93,-11.53"/>
<polygon fill="#63b8ff" stroke="#63b8ff" points="992.87,-15.03 1002.85,-11.46 992.83,-8.03 992.87,-15.03"/>
</a>
</g>
</g>
<!-- Node29&#45;&gt;Node13 -->
<g id="edge45_Node000029_Node000013" class="edge">
<title>Node29&#45;&gt;Node13</title>
<g id="a_edge45_Node000029_Node000013"><a xlink:title=" ">
<path fill="none" stroke="#63b8ff" d="M874.61,-121.6C1024.32,-117.59 1464.24,-104 1628.9,-77.38"/>
<polygon fill="#63b8ff" stroke="#63b8ff" points="1629.04,-80.91 1638.31,-75.78 1627.86,-74.01 1629.04,-80.91"/>
</a>
</g>
</g>
<!-- Node29&#45;&gt;Node14 -->
<g id="edge58_Node000029_Node000014" class="edge">
<title>Node29&#45;&gt;Node14</title>
<g id="a_edge58_Node000029_Node000014"><a xlink:title=" ">
<path fill="none" stroke="#63b8ff" d="M874.84,-121.26C969.96,-117.67 1181.42,-107.03 1368.7,-77.63"/>
<polygon fill="#63b8ff" stroke="#63b8ff" points="1369.04,-81.12 1378.36,-76.09 1367.94,-74.21 1369.04,-81.12"/>
</a>
</g>
</g>
<!-- Node29&#45;&gt;Node16 -->
<g id="edge50_Node000029_Node000016" class="edge">
<title>Node29&#45;&gt;Node16</title>
<g id="a_edge50_Node000029_Node000016"><a xlink:title=" ">
<path fill="none" stroke="#63b8ff" d="M874.62,-120.69C959.89,-116.44 1137.63,-105.1 1296.65,-77.66"/>
<polygon fill="#63b8ff" stroke="#63b8ff" points="1296.85,-81.18 1306.09,-76.01 1295.64,-74.29 1296.85,-81.18"/>
</a>
</g>
</g>
<!-- Node29&#45;&gt;Node20 -->
<g id="edge49_Node000029_Node000020" class="edge">
<title>Node29&#45;&gt;Node20</title>
<g id="a_edge49_Node000029_Node000020"><a xlink:title=" ">
<path fill="none" stroke="#63b8ff" d="M874.76,-120.06C953.23,-115.09 1108.49,-102.81 1238,-77.5 1239,-77.31 1240.01,-77.09 1241.03,-76.87"/>
<polygon fill="#63b8ff" stroke="#63b8ff" points="1241.62,-80.33 1250.47,-74.5 1239.92,-73.54 1241.62,-80.33"/>
</a>
</g>
</g>
<!-- Node29&#45;&gt;Node21 -->
<g id="edge63_Node000029_Node000021" class="edge">
<title>Node29&#45;&gt;Node21</title>
<g id="a_edge63_Node000029_Node000021"><a xlink:title=" ">
<path fill="none" stroke="#63b8ff" d="M874.86,-122.4C1058.64,-120.43 1688.83,-111.44 1912.11,-77.53"/>
<polygon fill="#63b8ff" stroke="#63b8ff" points="1912.56,-81 1921.89,-75.98 1911.46,-74.09 1912.56,-81"/>
</a>
</g>
</g>
<!-- Node30 -->
<g id="Node000030" class="node">
<title>Node30</title>
<g id="a_Node000030"><a xlink:title=" ">
<polygon fill="#e0e0e0" stroke="#999999" points="568.62,-77.5 511.38,-77.5 511.38,-56.75 568.62,-56.75 568.62,-77.5"/>
<text text-anchor="middle" x="540" y="-64" font-family="Helvetica,sans-Serif" font-size="10.00">memory</text>
</a>
</g>
</g>
<!-- Node29&#45;&gt;Node30 -->
<g id="edge44_Node000029_Node000030" class="edge">
<title>Node29&#45;&gt;Node30</title>
<g id="a_edge44_Node000029_Node000030"><a xlink:title=" ">
<path fill="none" stroke="#63b8ff" d="M773.41,-114.45C725.99,-106.35 652.87,-93.34 580.19,-77.87"/>
<polygon fill="#63b8ff" stroke="#63b8ff" points="581,-74.46 570.48,-75.79 579.53,-81.31 581,-74.46"/>
</a>
</g>
</g>
<!-- Node31 -->
<g id="Node000031" class="node">
<title>Node31</title>
<g id="a_Node000031"><a xlink:title=" ">
<polygon fill="#e0e0e0" stroke="#999999" points="651.38,-77.5 586.62,-77.5 586.62,-56.75 651.38,-56.75 651.38,-77.5"/>
<text text-anchor="middle" x="619" y="-64" font-family="Helvetica,sans-Serif" font-size="10.00">functional</text>
</a>
</g>
</g>
<!-- Node29&#45;&gt;Node31 -->
<g id="edge47_Node000029_Node000031" class="edge">
<title>Node29&#45;&gt;Node31</title>
<g id="a_edge47_Node000029_Node000031"><a xlink:title=" ">
<path fill="none" stroke="#63b8ff" d="M787.35,-113.09C752.39,-103.75 699.7,-89.68 662.59,-79.77"/>
<polygon fill="#63b8ff" stroke="#63b8ff" points="663.64,-76.43 653.08,-77.23 661.84,-83.19 663.64,-76.43"/>
</a>
</g>
</g>
<!-- Node32 -->
<g id="Node000032" class="node">
<title>Node32</title>
<g id="a_Node000032"><a xlink:title=" ">
<polygon fill="#e0e0e0" stroke="#999999" points="724.88,-77.5 669.12,-77.5 669.12,-56.75 724.88,-56.75 724.88,-77.5"/>
<text text-anchor="middle" x="697" y="-64" font-family="Helvetica,sans-Serif" font-size="10.00">numeric</text>
</a>
</g>
</g>
<!-- Node29&#45;&gt;Node32 -->
<g id="edge48_Node000029_Node000032" class="edge">
<title>Node29&#45;&gt;Node32</title>
<g id="a_edge48_Node000029_Node000032"><a xlink:title=" ">
<path fill="none" stroke="#63b8ff" d="M801.29,-113.09C781.43,-104.52 752.33,-91.98 729.91,-82.31"/>
<polygon fill="#63b8ff" stroke="#63b8ff" points="731.47,-79.17 720.9,-78.43 728.7,-85.6 731.47,-79.17"/>
</a>
</g>
</g>
<!-- Node33 -->
<g id="Node000033" class="node">
<title>Node33</title>
<g id="a_Node000033"><a xlink:title=" ">
<polygon fill="#e0e0e0" stroke="#999999" points="783.38,-77.5 742.62,-77.5 742.62,-56.75 783.38,-56.75 783.38,-77.5"/>
<text text-anchor="middle" x="763" y="-64" font-family="Helvetica,sans-Serif" font-size="10.00">tuple</text>
</a>
</g>
</g>
<!-- Node29&#45;&gt;Node33 -->
<g id="edge51_Node000029_Node000033" class="edge">
<title>Node29&#45;&gt;Node33</title>
<g id="a_edge51_Node000029_Node000033"><a xlink:title=" ">
<path fill="none" stroke="#63b8ff" d="M813.09,-113.09C804.51,-105.38 792.33,-94.45 782.12,-85.29"/>
<polygon fill="#63b8ff" stroke="#63b8ff" points="784.72,-82.91 774.94,-78.84 780.04,-88.12 784.72,-82.91"/>
</a>
</g>
</g>
<!-- Node34 -->
<g id="Node000034" class="node">
<title>Node34</title>
<g id="a_Node000034"><a xlink:title=" ">
<polygon fill="#e0e0e0" stroke="#999999" points="846.25,-77.5 801.75,-77.5 801.75,-56.75 846.25,-56.75 846.25,-77.5"/>
<text text-anchor="middle" x="824" y="-64" font-family="Helvetica,sans-Serif" font-size="10.00">utility</text>
</a>
</g>
</g>
<!-- Node29&#45;&gt;Node34 -->
<g id="edge52_Node000029_Node000034" class="edge">
<title>Node29&#45;&gt;Node34</title>
<g id="a_edge52_Node000029_Node000034"><a xlink:title=" ">
<path fill="none" stroke="#63b8ff" d="M824,-113.09C824,-106.47 824,-97.47 824,-89.27"/>
<polygon fill="#63b8ff" stroke="#63b8ff" points="827.5,-89.34 824,-79.34 820.5,-89.34 827.5,-89.34"/>
</a>
</g>
</g>
<!-- Node35 -->
<g id="Node000035" class="node">
<title>Node35</title>
<g id="a_Node000035"><a xlink:title=" ">
<polygon fill="#e0e0e0" stroke="#999999" points="909.62,-77.5 864.38,-77.5 864.38,-56.75 909.62,-56.75 909.62,-77.5"/>
<text text-anchor="middle" x="887" y="-64" font-family="Helvetica,sans-Serif" font-size="10.00">locale</text>
</a>
</g>
</g>
<!-- Node29&#45;&gt;Node35 -->
<g id="edge54_Node000029_Node000035" class="edge">
<title>Node29&#45;&gt;Node35</title>
<g id="a_edge54_Node000029_Node000035"><a xlink:title=" ">
<path fill="none" stroke="#63b8ff" d="M835.26,-113.09C844.13,-105.38 856.71,-94.45 867.25,-85.29"/>
<polygon fill="#63b8ff" stroke="#63b8ff" points="869.44,-88.02 874.69,-78.82 864.85,-82.74 869.44,-88.02"/>
</a>
</g>
</g>
<!-- Node36 -->
<g id="Node000036" class="node">
<title>Node36</title>
<g id="a_Node000036"><a xlink:title=" ">
<polygon fill="#e0e0e0" stroke="#999999" points="990.62,-77.5 927.38,-77.5 927.38,-56.75 990.62,-56.75 990.62,-77.5"/>
<text text-anchor="middle" x="959" y="-64" font-family="Helvetica,sans-Serif" font-size="10.00">algorithm</text>
</a>
</g>
</g>
<!-- Node29&#45;&gt;Node36 -->
<g id="edge56_Node000029_Node000036" class="edge">
<title>Node29&#45;&gt;Node36</title>
<g id="a_edge56_Node000029_Node000036"><a xlink:title=" ">
<path fill="none" stroke="#63b8ff" d="M848.14,-113.09C869.44,-104.44 900.75,-91.75 924.67,-82.05"/>
<polygon fill="#63b8ff" stroke="#63b8ff" points="925.72,-85.4 933.67,-78.4 923.09,-78.91 925.72,-85.4"/>
</a>
</g>
</g>
<!-- Node37 -->
<g id="Node000037" class="node">
<title>Node37</title>
<g id="a_Node000037"><a xlink:title=" ">
<polygon fill="#e0e0e0" stroke="#999999" points="1039.5,-77.5 1008.5,-77.5 1008.5,-56.75 1039.5,-56.75 1039.5,-77.5"/>
<text text-anchor="middle" x="1024" y="-64" font-family="Helvetica,sans-Serif" font-size="10.00">set</text>
</a>
</g>
</g>
<!-- Node29&#45;&gt;Node37 -->
<g id="edge59_Node000029_Node000037" class="edge">
<title>Node29&#45;&gt;Node37</title>
<g id="a_edge59_Node000029_Node000037"><a xlink:title=" ">
<path fill="none" stroke="#63b8ff" d="M868.18,-113.04C901.58,-105.26 948.72,-93.54 997.36,-78.11"/>
<polygon fill="#63b8ff" stroke="#63b8ff" points="998.2,-81.51 1006.65,-75.11 996.06,-74.85 998.2,-81.51"/>
</a>
</g>
</g>
<!-- Node38 -->
<g id="Node000038" class="node">
<title>Node38</title>
<g id="a_Node000038"><a xlink:title=" ">
<polygon fill="#e0e0e0" stroke="#999999" points="1126.25,-77.5 1057.75,-77.5 1057.75,-56.75 1126.25,-56.75 1126.25,-77.5"/>
<text text-anchor="middle" x="1092" y="-64" font-family="Helvetica,sans-Serif" font-size="10.00">type_traits</text>
</a>
</g>
</g>
<!-- Node29&#45;&gt;Node38 -->
<g id="edge60_Node000029_Node000038" class="edge">
<title>Node29&#45;&gt;Node38</title>
<g id="a_edge60_Node000029_Node000038"><a xlink:title=" ">
<path fill="none" stroke="#63b8ff" d="M873.41,-113.01C916.42,-104.4 980.75,-91.43 1046.44,-77.81"/>
<polygon fill="#63b8ff" stroke="#63b8ff" points="1046.86,-81.3 1055.94,-75.84 1045.44,-74.44 1046.86,-81.3"/>
</a>
</g>
</g>
<!-- Node39 -->
<g id="Node000039" class="node">
<title>Node39</title>
<g id="a_Node000039"><a xlink:title=" ">
<polygon fill="#e0e0e0" stroke="#999999" points="1196,-77.5 1144,-77.5 1144,-56.75 1196,-56.75 1196,-77.5"/>
<text text-anchor="middle" x="1170" y="-64" font-family="Helvetica,sans-Serif" font-size="10.00">iterator</text>
</a>
</g>
</g>
<!-- Node29&#45;&gt;Node39 -->
<g id="edge61_Node000029_Node000039" class="edge">
<title>Node29&#45;&gt;Node39</title>
<g id="a_edge61_Node000029_Node000039"><a xlink:title=" ">
<path fill="none" stroke="#63b8ff" d="M874.68,-117.33C934.21,-110.4 1036.1,-97.28 1132.58,-77.8"/>
<polygon fill="#63b8ff" stroke="#63b8ff" points="1133.13,-81.26 1142.22,-75.83 1131.72,-74.4 1133.13,-81.26"/>
</a>
</g>
</g>
<!-- Node40 -->
<g id="Node000040" class="node">
<title>Node40</title>
<g id="a_Node000040"><a xlink:title=" ">
<polygon fill="#e0e0e0" stroke="#999999" points="64,-77.5 0,-77.5 0,-56.75 64,-56.75 64,-77.5"/>
<text text-anchor="middle" x="32" y="-64" font-family="Helvetica,sans-Serif" font-size="10.00">stdexcept</text>
</a>
</g>
</g>
<!-- Node29&#45;&gt;Node40 -->
<g id="edge62_Node000029_Node000040" class="edge">
<title>Node29&#45;&gt;Node40</title>
<g id="a_edge62_Node000029_Node000040"><a xlink:title=" ">
<path fill="none" stroke="#63b8ff" d="M773.17,-122.68C653.22,-121.6 343.13,-115.21 75.25,-77.58"/>
<polygon fill="#63b8ff" stroke="#63b8ff" points="76.03,-74.16 65.63,-76.21 75.04,-81.09 76.03,-74.16"/>
</a>
</g>
</g>
<!-- Node41 -->
<g id="Node000041" class="node">
<title>Node41</title>
<g id="a_Node000041"><a xlink:title=" ">
<polygon fill="#e0e0e0" stroke="#999999" points="125.88,-77.5 82.12,-77.5 82.12,-56.75 125.88,-56.75 125.88,-77.5"/>
<text text-anchor="middle" x="104" y="-64" font-family="Helvetica,sans-Serif" font-size="10.00">limits</text>
</a>
</g>
</g>
<!-- Node29&#45;&gt;Node41 -->
<g id="edge64_Node000029_Node000041" class="edge">
<title>Node29&#45;&gt;Node41</title>
<g id="a_edge64_Node000029_Node000041"><a xlink:title=" ">
<path fill="none" stroke="#63b8ff" d="M773.38,-123.46C660.47,-123.94 379.57,-120.46 137.34,-77.51"/>
<polygon fill="#63b8ff" stroke="#63b8ff" points="138.15,-74.1 127.69,-75.77 136.91,-80.99 138.15,-74.1"/>
</a>
</g>
</g>
<!-- Node42 -->
<g id="Node000042" class="node">
<title>Node42</title>
<g id="a_Node000042"><a xlink:title=" ">
<polygon fill="#e0e0e0" stroke="#999999" points="208,-77.5 144,-77.5 144,-56.75 208,-56.75 208,-77.5"/>
<text text-anchor="middle" x="176" y="-64" font-family="Helvetica,sans-Serif" font-size="10.00">exception</text>
</a>
</g>
</g>
<!-- Node29&#45;&gt;Node42 -->
<g id="edge65_Node000029_Node000042" class="edge">
<title>Node29&#45;&gt;Node42</title>
<g id="a_edge65_Node000029_Node000042"><a xlink:title=" ">
<path fill="none" stroke="#63b8ff" d="M773.35,-121.66C670.65,-118.63 430.45,-108.75 219.44,-77.64"/>
<polygon fill="#63b8ff" stroke="#63b8ff" points="220.05,-74.2 209.64,-76.18 219.01,-81.12 220.05,-74.2"/>
</a>
</g>
</g>
<!-- Node43 -->
<g id="Node000043" class="node">
<title>Node43</title>
<g id="a_Node000043"><a xlink:title=" ">
<polygon fill="#e0e0e0" stroke="#999999" points="289.62,-77.5 226.38,-77.5 226.38,-56.75 289.62,-56.75 289.62,-77.5"/>
<text text-anchor="middle" x="258" y="-64" font-family="Helvetica,sans-Serif" font-size="10.00">sys/stat.h</text>
</a>
</g>
</g>
<!-- Node29&#45;&gt;Node43 -->
<g id="edge66_Node000029_Node000043" class="edge">
<title>Node29&#45;&gt;Node43</title>
<g id="a_edge66_Node000029_Node000043"><a xlink:title=" ">
<path fill="none" stroke="#63b8ff" d="M773.3,-120.93C681.07,-116.87 479.59,-105.58 300.98,-77.78"/>
<polygon fill="#63b8ff" stroke="#63b8ff" points="301.71,-74.35 291.29,-76.25 300.62,-81.27 301.71,-74.35"/>
</a>
</g>
</g>
<!-- Node44 -->
<g id="Node000044" class="node">
<title>Node44</title>
<g id="a_Node000044"><a xlink:title=" ">
<polygon fill="#e0e0e0" stroke="#999999" points="378.75,-77.5 307.25,-77.5 307.25,-56.75 378.75,-56.75 378.75,-77.5"/>
<text text-anchor="middle" x="343" y="-64" font-family="Helvetica,sans-Serif" font-size="10.00">sys/types.h</text>
</a>
</g>
</g>
<!-- Node29&#45;&gt;Node44 -->
<g id="edge67_Node000029_Node000044" class="edge">
<title>Node29&#45;&gt;Node44</title>
<g id="a_edge67_Node000029_Node000044"><a xlink:title=" ">
<path fill="none" stroke="#63b8ff" d="M773.41,-118.88C692.71,-112.2 529.99,-97.52 393,-77.5 392.01,-77.35 391,-77.2 389.99,-77.05"/>
<polygon fill="#63b8ff" stroke="#63b8ff" points="390.92,-73.65 380.49,-75.48 389.78,-80.56 390.92,-73.65"/>
</a>
</g>
</g>
</g>
</svg>
