<?xml version="1.0" encoding="UTF-8" standalone="no"?>
<!DOCTYPE svg PUBLIC "-//W3C//DTD SVG 1.1//EN"
 "http://www.w3.org/Graphics/SVG/1.1/DTD/svg11.dtd">
<!-- Generated by graphviz version 5.0.1 (0)
 -->
<!-- Title: TensorNorm.cxx Pages: 1 -->
<svg width="874pt" height="364pt"
 viewBox="0.00 0.00 874.00 364.00" xmlns="http://www.w3.org/2000/svg" xmlns:xlink="http://www.w3.org/1999/xlink">
<g id="graph0" class="graph" transform="scale(1 1) rotate(0) translate(4 360)">
<title>TensorNorm.cxx</title>
<!-- Node1 -->
<g id="node1" class="node">
<title>Node1</title>
<g id="a_node1"><a xlink:title=" ">
<polygon fill="#bfbfbf" stroke="black" points="289,-336.5 289,-355.5 384,-355.5 384,-336.5 289,-336.5"/>
<text text-anchor="middle" x="336.5" y="-343.5" font-family="Helvetica,sans-Serif" font-size="10.00">TensorNorm.cxx</text>
</a>
</g>
</g>
<!-- Node2 -->
<g id="node2" class="node">
<title>Node2</title>
<g id="a_node2"><a xlink:href="TensorNorm_8hpp.html" target="_top" xlink:title=" ">
<polygon fill="none" stroke="black" points="313.5,-280.5 313.5,-299.5 465.5,-299.5 465.5,-280.5 313.5,-280.5"/>
<text text-anchor="middle" x="389.5" y="-287.5" font-family="Helvetica,sans-Serif" font-size="10.00">algorithms/TensorNorm.hpp</text>
</a>
</g>
</g>
<!-- Node1&#45;&gt;Node2 -->
<g id="edge1" class="edge">
<title>Node1&#45;&gt;Node2</title>
<path fill="none" stroke="midnightblue" d="M345.25,-336.08C352.97,-328.22 364.4,-316.57 373.72,-307.08"/>
<polygon fill="midnightblue" stroke="midnightblue" points="376.4,-309.34 380.91,-299.75 371.41,-304.44 376.4,-309.34"/>
</g>
<!-- Node5 -->
<g id="node5" class="node">
<title>Node5</title>
<g id="a_node5"><a xlink:href="Log_8hpp.html" target="_top" xlink:title=" ">
<polygon fill="none" stroke="black" points="124.5,-112.5 124.5,-131.5 198.5,-131.5 198.5,-112.5 124.5,-112.5"/>
<text text-anchor="middle" x="161.5" y="-119.5" font-family="Helvetica,sans-Serif" font-size="10.00">util/Log.hpp</text>
</a>
</g>
</g>
<!-- Node1&#45;&gt;Node5 -->
<g id="edge41" class="edge">
<title>Node1&#45;&gt;Node5</title>
<path fill="none" stroke="midnightblue" d="M318.12,-336.49C278.37,-316.92 185.14,-264.46 149.5,-188 142.55,-173.08 147.15,-154.47 152.55,-141"/>
<polygon fill="midnightblue" stroke="midnightblue" points="155.76,-142.39 156.65,-131.83 149.37,-139.53 155.76,-142.39"/>
</g>
<!-- Node22 -->
<g id="node22" class="node">
<title>Node22</title>
<g id="a_node22"><a xlink:href="Tensor_8hpp.html" target="_top" xlink:title=" ">
<polygon fill="none" stroke="black" points="779,-112.5 779,-131.5 866,-131.5 866,-112.5 779,-112.5"/>
<text text-anchor="middle" x="822.5" y="-119.5" font-family="Helvetica,sans-Serif" font-size="10.00">util/Tensor.hpp</text>
</a>
</g>
</g>
<!-- Node1&#45;&gt;Node22 -->
<g id="edge42" class="edge">
<title>Node1&#45;&gt;Node22</title>
<path fill="none" stroke="midnightblue" d="M363.28,-336.49C391.13,-327.59 435.97,-313.11 474.5,-300 615.57,-252.01 679.16,-287.03 790.5,-188 804.28,-175.74 812.77,-156.2 817.51,-141.74"/>
<polygon fill="midnightblue" stroke="midnightblue" points="820.95,-142.46 820.43,-131.88 814.24,-140.48 820.95,-142.46"/>
</g>
<!-- Node26 -->
<g id="node26" class="node">
<title>Node26</title>
<g id="a_node26"><a xlink:href="MathFunctions_8hpp.html" target="_top" xlink:title=" ">
<polygon fill="none" stroke="black" points="158,-168.5 158,-187.5 295,-187.5 295,-168.5 158,-168.5"/>
<text text-anchor="middle" x="226.5" y="-175.5" font-family="Helvetica,sans-Serif" font-size="10.00">math/MathFunctions.hpp</text>
</a>
</g>
</g>
<!-- Node1&#45;&gt;Node26 -->
<g id="edge35" class="edge">
<title>Node1&#45;&gt;Node26</title>
<path fill="none" stroke="midnightblue" d="M330.25,-336.45C323.71,-327.46 313.21,-312.86 304.5,-300 279.74,-263.44 252.01,-219.72 237.2,-196.13"/>
<polygon fill="midnightblue" stroke="midnightblue" points="240.13,-194.21 231.85,-187.6 234.19,-197.93 240.13,-194.21"/>
</g>
<!-- Node3 -->
<g id="node3" class="node">
<title>Node3</title>
<g id="a_node3"><a xlink:href="Algorithm_8hpp.html" target="_top" xlink:title=" ">
<polygon fill="none" stroke="black" points="341,-224.5 341,-243.5 482,-243.5 482,-224.5 341,-224.5"/>
<text text-anchor="middle" x="411.5" y="-231.5" font-family="Helvetica,sans-Serif" font-size="10.00">algorithms/Algorithm.hpp</text>
</a>
</g>
</g>
<!-- Node2&#45;&gt;Node3 -->
<g id="edge2" class="edge">
<title>Node2&#45;&gt;Node3</title>
<path fill="none" stroke="midnightblue" d="M393.13,-280.08C396.11,-272.77 400.43,-262.18 404.12,-253.1"/>
<polygon fill="midnightblue" stroke="midnightblue" points="407.4,-254.33 407.93,-243.75 400.92,-251.69 407.4,-254.33"/>
</g>
<!-- Node4 -->
<g id="node4" class="node">
<title>Node4</title>
<g id="a_node4"><a xlink:href="Data_8hpp.html" target="_top" xlink:title=" ">
<polygon fill="none" stroke="black" points="418,-168.5 418,-187.5 479,-187.5 479,-168.5 418,-168.5"/>
<text text-anchor="middle" x="448.5" y="-175.5" font-family="Helvetica,sans-Serif" font-size="10.00">Data.hpp</text>
</a>
</g>
</g>
<!-- Node3&#45;&gt;Node4 -->
<g id="edge3" class="edge">
<title>Node3&#45;&gt;Node4</title>
<path fill="none" stroke="midnightblue" d="M417.61,-224.08C422.78,-216.53 430.35,-205.49 436.69,-196.23"/>
<polygon fill="midnightblue" stroke="midnightblue" points="439.74,-197.98 442.5,-187.75 433.96,-194.02 439.74,-197.98"/>
</g>
<!-- Node11 -->
<g id="node11" class="node">
<title>Node11</title>
<g id="a_node11"><a xlink:title=" ">
<polygon fill="none" stroke="#bfbfbf" points="424.5,-0.5 424.5,-19.5 480.5,-19.5 480.5,-0.5 424.5,-0.5"/>
<text text-anchor="middle" x="452.5" y="-7.5" font-family="Helvetica,sans-Serif" font-size="10.00">sstream</text>
</a>
</g>
</g>
<!-- Node3&#45;&gt;Node11 -->
<g id="edge33" class="edge">
<title>Node3&#45;&gt;Node11</title>
<path fill="none" stroke="midnightblue" d="M462.02,-224.46C543.81,-209.48 699.34,-175.87 731.5,-132 795.08,-45.27 580.86,-19.95 490.66,-13.23"/>
<polygon fill="midnightblue" stroke="midnightblue" points="490.77,-9.73 480.55,-12.51 490.28,-16.71 490.77,-9.73"/>
</g>
<!-- Node13 -->
<g id="node13" class="node">
<title>Node13</title>
<g id="a_node13"><a xlink:title=" ">
<polygon fill="none" stroke="#bfbfbf" points="380.5,-56.5 380.5,-75.5 424.5,-75.5 424.5,-56.5 380.5,-56.5"/>
<text text-anchor="middle" x="402.5" y="-63.5" font-family="Helvetica,sans-Serif" font-size="10.00">string</text>
</a>
</g>
</g>
<!-- Node3&#45;&gt;Node13 -->
<g id="edge31" class="edge">
<title>Node3&#45;&gt;Node13</title>
<path fill="none" stroke="midnightblue" d="M391.69,-224.46C361.75,-210.29 306.16,-178.78 284.5,-132 280.77,-123.93 279.46,-119.32 284.5,-112 289.64,-104.53 337.39,-87.93 370.55,-77.12"/>
<polygon fill="midnightblue" stroke="midnightblue" points="371.87,-80.37 380.31,-73.96 369.72,-73.71 371.87,-80.37"/>
</g>
<!-- Node21 -->
<g id="node21" class="node">
<title>Node21</title>
<g id="a_node21"><a xlink:title=" ">
<polygon fill="none" stroke="#bfbfbf" points="293,-112.5 293,-131.5 340,-131.5 340,-112.5 293,-112.5"/>
<text text-anchor="middle" x="316.5" y="-119.5" font-family="Helvetica,sans-Serif" font-size="10.00">vector</text>
</a>
</g>
</g>
<!-- Node3&#45;&gt;Node21 -->
<g id="edge32" class="edge">
<title>Node3&#45;&gt;Node21</title>
<path fill="none" stroke="midnightblue" d="M404.05,-224.37C388.23,-206.05 351.09,-163.05 330.63,-139.36"/>
<polygon fill="midnightblue" stroke="midnightblue" points="333.1,-136.87 323.92,-131.59 327.81,-141.45 333.1,-136.87"/>
</g>
<!-- Node3&#45;&gt;Node22 -->
<g id="edge34" class="edge">
<title>Node3&#45;&gt;Node22</title>
<path fill="none" stroke="midnightblue" d="M482.31,-229.81C570.95,-224.83 716.94,-213.04 764.5,-188 785.34,-177.03 802.28,-155.36 812.36,-140.07"/>
<polygon fill="midnightblue" stroke="midnightblue" points="815.37,-141.85 817.72,-131.52 809.44,-138.13 815.37,-141.85"/>
</g>
<!-- Node4&#45;&gt;Node5 -->
<g id="edge4" class="edge">
<title>Node4&#45;&gt;Node5</title>
<path fill="none" stroke="midnightblue" d="M417.79,-171.22C367.62,-161.78 267.77,-142.99 208.6,-131.86"/>
<polygon fill="midnightblue" stroke="midnightblue" points="209.23,-128.42 198.75,-130.01 207.93,-135.3 209.23,-128.42"/>
</g>
<!-- Node4&#45;&gt;Node13 -->
<g id="edge21" class="edge">
<title>Node4&#45;&gt;Node13</title>
<path fill="none" stroke="midnightblue" d="M428.59,-168.41C414.28,-161.04 396.04,-148.92 387.5,-132 380.01,-117.17 385.62,-98.55 392.01,-85.05"/>
<polygon fill="midnightblue" stroke="midnightblue" points="395.28,-86.34 396.83,-75.86 389.08,-83.09 395.28,-86.34"/>
</g>
<!-- Node17 -->
<g id="node17" class="node">
<title>Node17</title>
<g id="a_node17"><a xlink:href="Float_8hpp.html" target="_top" xlink:title=" ">
<polygon fill="none" stroke="black" points="585,-56.5 585,-75.5 676,-75.5 676,-56.5 585,-56.5"/>
<text text-anchor="middle" x="630.5" y="-63.5" font-family="Helvetica,sans-Serif" font-size="10.00">math/Float.hpp</text>
</a>
</g>
</g>
<!-- Node4&#45;&gt;Node17 -->
<g id="edge16" class="edge">
<title>Node4&#45;&gt;Node17</title>
<path fill="none" stroke="midnightblue" d="M479.19,-174.23C527.58,-169.15 618.11,-156.55 637.5,-132 647.92,-118.81 643.94,-99.14 638.74,-84.89"/>
<polygon fill="midnightblue" stroke="midnightblue" points="641.97,-83.55 634.92,-75.64 635.5,-86.22 641.97,-83.55"/>
</g>
<!-- Node18 -->
<g id="node18" class="node">
<title>Node18</title>
<g id="a_node18"><a xlink:href="Complex_8hpp.html" target="_top" xlink:title=" ">
<polygon fill="none" stroke="black" points="518.5,-112.5 518.5,-131.5 628.5,-131.5 628.5,-112.5 518.5,-112.5"/>
<text text-anchor="middle" x="573.5" y="-119.5" font-family="Helvetica,sans-Serif" font-size="10.00">math/Complex.hpp</text>
</a>
</g>
</g>
<!-- Node4&#45;&gt;Node18 -->
<g id="edge18" class="edge">
<title>Node4&#45;&gt;Node18</title>
<path fill="none" stroke="midnightblue" d="M468.31,-168.44C488.79,-159.6 520.98,-145.69 544.36,-135.59"/>
<polygon fill="midnightblue" stroke="midnightblue" points="545.99,-138.7 553.79,-131.52 543.22,-132.27 545.99,-138.7"/>
</g>
<!-- Node20 -->
<g id="node20" class="node">
<title>Node20</title>
<g id="a_node20"><a xlink:title=" ">
<polygon fill="none" stroke="#bfbfbf" points="684.5,-112.5 684.5,-131.5 722.5,-131.5 722.5,-112.5 684.5,-112.5"/>
<text text-anchor="middle" x="703.5" y="-119.5" font-family="Helvetica,sans-Serif" font-size="10.00">map</text>
</a>
</g>
</g>
<!-- Node4&#45;&gt;Node20 -->
<g id="edge22" class="edge">
<title>Node4&#45;&gt;Node20</title>
<path fill="none" stroke="midnightblue" d="M479.16,-171.45C522.12,-163.52 602.59,-148.13 670.5,-132 671.77,-131.7 673.06,-131.38 674.36,-131.06"/>
<polygon fill="midnightblue" stroke="midnightblue" points="675.57,-134.36 684.36,-128.45 673.8,-127.59 675.57,-134.36"/>
</g>
<!-- Node4&#45;&gt;Node21 -->
<g id="edge23" class="edge">
<title>Node4&#45;&gt;Node21</title>
<path fill="none" stroke="midnightblue" d="M427.58,-168.44C405.76,-159.52 371.35,-145.44 346.61,-135.32"/>
<polygon fill="midnightblue" stroke="midnightblue" points="347.9,-132.06 337.32,-131.52 345.25,-138.54 347.9,-132.06"/>
</g>
<!-- Node4&#45;&gt;Node22 -->
<g id="edge24" class="edge">
<title>Node4&#45;&gt;Node22</title>
<path fill="none" stroke="midnightblue" d="M479.11,-172.58C542.47,-163.43 688.73,-142.31 768.4,-130.81"/>
<polygon fill="midnightblue" stroke="midnightblue" points="769.31,-134.22 778.71,-129.32 768.31,-127.29 769.31,-134.22"/>
</g>
<!-- Node25 -->
<g id="node25" class="node">
<title>Node25</title>
<g id="a_node25"><a xlink:href="Exception_8hpp.html" target="_top" xlink:title=" ">
<polygon fill="none" stroke="black" points="396.5,-112.5 396.5,-131.5 500.5,-131.5 500.5,-112.5 396.5,-112.5"/>
<text text-anchor="middle" x="448.5" y="-119.5" font-family="Helvetica,sans-Serif" font-size="10.00">util/Exception.hpp</text>
</a>
</g>
</g>
<!-- Node4&#45;&gt;Node25 -->
<g id="edge27" class="edge">
<title>Node4&#45;&gt;Node25</title>
<path fill="none" stroke="midnightblue" d="M448.5,-168.08C448.5,-161.01 448.5,-150.86 448.5,-141.99"/>
<polygon fill="midnightblue" stroke="midnightblue" points="452,-141.75 448.5,-131.75 445,-141.75 452,-141.75"/>
</g>
<!-- Node6 -->
<g id="node6" class="node">
<title>Node6</title>
<g id="a_node6"><a xlink:href="Time_8hpp.html" target="_top" xlink:title=" ">
<polygon fill="none" stroke="black" points="118,-56.5 118,-75.5 199,-75.5 199,-56.5 118,-56.5"/>
<text text-anchor="middle" x="158.5" y="-63.5" font-family="Helvetica,sans-Serif" font-size="10.00">util/Time.hpp</text>
</a>
</g>
</g>
<!-- Node5&#45;&gt;Node6 -->
<g id="edge5" class="edge">
<title>Node5&#45;&gt;Node6</title>
<path fill="none" stroke="midnightblue" d="M161,-112.08C160.61,-105.01 160.05,-94.86 159.55,-85.99"/>
<polygon fill="midnightblue" stroke="midnightblue" points="163.04,-85.54 158.99,-75.75 156.05,-85.93 163.04,-85.54"/>
</g>
<!-- Node5&#45;&gt;Node13 -->
<g id="edge12" class="edge">
<title>Node5&#45;&gt;Node13</title>
<path fill="none" stroke="midnightblue" d="M198.86,-113.83C238.94,-105.96 304.67,-92.52 370.13,-76.21"/>
<polygon fill="midnightblue" stroke="midnightblue" points="371.36,-79.51 380.2,-73.68 369.65,-72.72 371.36,-79.51"/>
</g>
<!-- Node14 -->
<g id="node14" class="node">
<title>Node14</title>
<g id="a_node14"><a xlink:title=" ">
<polygon fill="none" stroke="#bfbfbf" points="302.5,-56.5 302.5,-75.5 362.5,-75.5 362.5,-56.5 302.5,-56.5"/>
<text text-anchor="middle" x="332.5" y="-63.5" font-family="Helvetica,sans-Serif" font-size="10.00">iostream</text>
</a>
</g>
</g>
<!-- Node5&#45;&gt;Node14 -->
<g id="edge13" class="edge">
<title>Node5&#45;&gt;Node14</title>
<path fill="none" stroke="midnightblue" d="M188.6,-112.44C217.49,-103.32 263.42,-88.81 295.61,-78.65"/>
<polygon fill="midnightblue" stroke="midnightblue" points="297.05,-81.87 305.53,-75.52 294.94,-75.19 297.05,-81.87"/>
</g>
<!-- Node15 -->
<g id="node15" class="node">
<title>Node15</title>
<g id="a_node15"><a xlink:title=" ">
<polygon fill="none" stroke="#bfbfbf" points="217,-56.5 217,-75.5 284,-75.5 284,-56.5 217,-56.5"/>
<text text-anchor="middle" x="250.5" y="-63.5" font-family="Helvetica,sans-Serif" font-size="10.00">streambuf</text>
</a>
</g>
</g>
<!-- Node5&#45;&gt;Node15 -->
<g id="edge14" class="edge">
<title>Node5&#45;&gt;Node15</title>
<path fill="none" stroke="midnightblue" d="M175.8,-112.32C189.68,-103.9 210.99,-90.97 227.3,-81.07"/>
<polygon fill="midnightblue" stroke="midnightblue" points="229.5,-83.83 236.24,-75.65 225.87,-77.85 229.5,-83.83"/>
</g>
<!-- Node16 -->
<g id="node16" class="node">
<title>Node16</title>
<g id="a_node16"><a xlink:title=" ">
<polygon fill="none" stroke="#bfbfbf" points="45,-56.5 45,-75.5 100,-75.5 100,-56.5 45,-56.5"/>
<text text-anchor="middle" x="72.5" y="-63.5" font-family="Helvetica,sans-Serif" font-size="10.00">fstream</text>
</a>
</g>
</g>
<!-- Node5&#45;&gt;Node16 -->
<g id="edge15" class="edge">
<title>Node5&#45;&gt;Node16</title>
<path fill="none" stroke="midnightblue" d="M147.2,-112.32C133.32,-103.9 112.01,-90.97 95.7,-81.07"/>
<polygon fill="midnightblue" stroke="midnightblue" points="97.13,-77.85 86.76,-75.65 93.5,-83.83 97.13,-77.85"/>
</g>
<!-- Node7 -->
<g id="node7" class="node">
<title>Node7</title>
<g id="a_node7"><a xlink:title=" ">
<polygon fill="none" stroke="#bfbfbf" points="71.5,-0.5 71.5,-19.5 115.5,-19.5 115.5,-0.5 71.5,-0.5"/>
<text text-anchor="middle" x="93.5" y="-7.5" font-family="Helvetica,sans-Serif" font-size="10.00">ctime</text>
</a>
</g>
</g>
<!-- Node6&#45;&gt;Node7 -->
<g id="edge6" class="edge">
<title>Node6&#45;&gt;Node7</title>
<path fill="none" stroke="midnightblue" d="M148.06,-56.32C138.35,-48.26 123.68,-36.08 112,-26.37"/>
<polygon fill="midnightblue" stroke="midnightblue" points="114.06,-23.53 104.13,-19.83 109.59,-28.92 114.06,-23.53"/>
</g>
<!-- Node8 -->
<g id="node8" class="node">
<title>Node8</title>
<g id="a_node8"><a xlink:title=" ">
<polygon fill="none" stroke="#bfbfbf" points="133.5,-0.5 133.5,-19.5 183.5,-19.5 183.5,-0.5 133.5,-0.5"/>
<text text-anchor="middle" x="158.5" y="-7.5" font-family="Helvetica,sans-Serif" font-size="10.00">cstdint</text>
</a>
</g>
</g>
<!-- Node6&#45;&gt;Node8 -->
<g id="edge7" class="edge">
<title>Node6&#45;&gt;Node8</title>
<path fill="none" stroke="midnightblue" d="M158.5,-56.08C158.5,-49.01 158.5,-38.86 158.5,-29.99"/>
<polygon fill="midnightblue" stroke="midnightblue" points="162,-29.75 158.5,-19.75 155,-29.75 162,-29.75"/>
</g>
<!-- Node9 -->
<g id="node9" class="node">
<title>Node9</title>
<g id="a_node9"><a xlink:title=" ">
<polygon fill="none" stroke="#bfbfbf" points="313,-0.5 313,-19.5 370,-19.5 370,-0.5 313,-0.5"/>
<text text-anchor="middle" x="341.5" y="-7.5" font-family="Helvetica,sans-Serif" font-size="10.00">ostream</text>
</a>
</g>
</g>
<!-- Node6&#45;&gt;Node9 -->
<g id="edge8" class="edge">
<title>Node6&#45;&gt;Node9</title>
<path fill="none" stroke="midnightblue" d="M187.5,-56.44C218.78,-47.21 268.72,-32.48 303.21,-22.3"/>
<polygon fill="midnightblue" stroke="midnightblue" points="304.34,-25.61 312.94,-19.43 302.36,-18.9 304.34,-25.61"/>
</g>
<!-- Node10 -->
<g id="node10" class="node">
<title>Node10</title>
<g id="a_node10"><a xlink:title=" ">
<polygon fill="none" stroke="#bfbfbf" points="201.5,-0.5 201.5,-19.5 257.5,-19.5 257.5,-0.5 201.5,-0.5"/>
<text text-anchor="middle" x="229.5" y="-7.5" font-family="Helvetica,sans-Serif" font-size="10.00">iomanip</text>
</a>
</g>
</g>
<!-- Node6&#45;&gt;Node10 -->
<g id="edge9" class="edge">
<title>Node6&#45;&gt;Node10</title>
<path fill="none" stroke="midnightblue" d="M169.91,-56.32C180.61,-48.18 196.84,-35.84 209.66,-26.09"/>
<polygon fill="midnightblue" stroke="midnightblue" points="212.04,-28.67 217.89,-19.83 207.81,-23.1 212.04,-28.67"/>
</g>
<!-- Node6&#45;&gt;Node11 -->
<g id="edge10" class="edge">
<title>Node6&#45;&gt;Node11</title>
<path fill="none" stroke="midnightblue" d="M199.07,-57.55C255.9,-47.11 358.46,-28.27 414.1,-18.05"/>
<polygon fill="midnightblue" stroke="midnightblue" points="415.04,-21.44 424.24,-16.19 413.78,-14.55 415.04,-21.44"/>
</g>
<!-- Node12 -->
<g id="node12" class="node">
<title>Node12</title>
<g id="a_node12"><a xlink:title=" ">
<polygon fill="none" stroke="#bfbfbf" points="0,-0.5 0,-19.5 47,-19.5 47,-0.5 0,-0.5"/>
<text text-anchor="middle" x="23.5" y="-7.5" font-family="Helvetica,sans-Serif" font-size="10.00">cmath</text>
</a>
</g>
</g>
<!-- Node6&#45;&gt;Node12 -->
<g id="edge11" class="edge">
<title>Node6&#45;&gt;Node12</title>
<path fill="none" stroke="midnightblue" d="M137.11,-56.44C114.79,-47.52 79.6,-33.44 54.29,-23.32"/>
<polygon fill="midnightblue" stroke="midnightblue" points="55.38,-19.98 44.79,-19.52 52.78,-26.48 55.38,-19.98"/>
</g>
<!-- Node17&#45;&gt;Node9 -->
<g id="edge17" class="edge">
<title>Node17&#45;&gt;Node9</title>
<path fill="none" stroke="midnightblue" d="M584.71,-56.44C528.3,-45.9 433.47,-28.18 380.42,-18.27"/>
<polygon fill="midnightblue" stroke="midnightblue" points="380.87,-14.8 370.39,-16.4 379.58,-21.68 380.87,-14.8"/>
</g>
<!-- Node18&#45;&gt;Node17 -->
<g id="edge19" class="edge">
<title>Node18&#45;&gt;Node17</title>
<path fill="none" stroke="midnightblue" d="M582.66,-112.32C591,-104.42 603.53,-92.55 613.68,-82.94"/>
<polygon fill="midnightblue" stroke="midnightblue" points="616.32,-85.25 621.18,-75.83 611.51,-80.17 616.32,-85.25"/>
</g>
<!-- Node19 -->
<g id="node19" class="node">
<title>Node19</title>
<g id="a_node19"><a xlink:title=" ">
<polygon fill="none" stroke="#bfbfbf" points="508,-56.5 508,-75.5 567,-75.5 567,-56.5 508,-56.5"/>
<text text-anchor="middle" x="537.5" y="-63.5" font-family="Helvetica,sans-Serif" font-size="10.00">complex</text>
</a>
</g>
</g>
<!-- Node18&#45;&gt;Node19 -->
<g id="edge20" class="edge">
<title>Node18&#45;&gt;Node19</title>
<path fill="none" stroke="midnightblue" d="M567.56,-112.08C562.52,-104.53 555.16,-93.49 548.99,-84.23"/>
<polygon fill="midnightblue" stroke="midnightblue" points="551.79,-82.13 543.33,-75.75 545.97,-86.01 551.79,-82.13"/>
</g>
<!-- Node23 -->
<g id="node23" class="node">
<title>Node23</title>
<g id="a_node23"><a xlink:href="CTF_8hpp.html" target="_top" xlink:title=" ">
<polygon fill="none" stroke="black" points="785.5,-56.5 785.5,-75.5 859.5,-75.5 859.5,-56.5 785.5,-56.5"/>
<text text-anchor="middle" x="822.5" y="-63.5" font-family="Helvetica,sans-Serif" font-size="10.00">util/CTF.hpp</text>
</a>
</g>
</g>
<!-- Node22&#45;&gt;Node23 -->
<g id="edge25" class="edge">
<title>Node22&#45;&gt;Node23</title>
<path fill="none" stroke="midnightblue" d="M822.5,-112.08C822.5,-105.01 822.5,-94.86 822.5,-85.99"/>
<polygon fill="midnightblue" stroke="midnightblue" points="826,-85.75 822.5,-75.75 819,-85.75 826,-85.75"/>
</g>
<!-- Node24 -->
<g id="node24" class="node">
<title>Node24</title>
<g id="a_node24"><a xlink:title=" ">
<polygon fill="none" stroke="#bfbfbf" points="797.5,-0.5 797.5,-19.5 847.5,-19.5 847.5,-0.5 797.5,-0.5"/>
<text text-anchor="middle" x="822.5" y="-7.5" font-family="Helvetica,sans-Serif" font-size="10.00">ctf.hpp</text>
</a>
</g>
</g>
<!-- Node23&#45;&gt;Node24 -->
<g id="edge26" class="edge">
<title>Node23&#45;&gt;Node24</title>
<path fill="none" stroke="midnightblue" d="M822.5,-56.08C822.5,-49.01 822.5,-38.86 822.5,-29.99"/>
<polygon fill="midnightblue" stroke="midnightblue" points="826,-29.75 822.5,-19.75 819,-29.75 826,-29.75"/>
</g>
<!-- Node25&#45;&gt;Node11 -->
<g id="edge29" class="edge">
<title>Node25&#45;&gt;Node11</title>
<path fill="none" stroke="midnightblue" d="M448.81,-112.37C449.46,-94.62 450.95,-53.67 451.82,-29.6"/>
<polygon fill="midnightblue" stroke="midnightblue" points="455.32,-29.71 452.19,-19.59 448.33,-29.46 455.32,-29.71"/>
</g>
<!-- Node25&#45;&gt;Node13 -->
<g id="edge28" class="edge">
<title>Node25&#45;&gt;Node13</title>
<path fill="none" stroke="midnightblue" d="M440.9,-112.08C434.27,-104.3 424.48,-92.8 416.44,-83.37"/>
<polygon fill="midnightblue" stroke="midnightblue" points="419.1,-81.09 409.95,-75.75 413.77,-85.63 419.1,-81.09"/>
</g>
<!-- Node25&#45;&gt;Node14 -->
<g id="edge30" class="edge">
<title>Node25&#45;&gt;Node14</title>
<path fill="none" stroke="midnightblue" d="M430.12,-112.44C411.28,-103.68 381.77,-89.94 360.12,-79.86"/>
<polygon fill="midnightblue" stroke="midnightblue" points="361.34,-76.56 350.79,-75.52 358.38,-82.91 361.34,-76.56"/>
</g>
<!-- Node26&#45;&gt;Node5 -->
<g id="edge40" class="edge">
<title>Node26&#45;&gt;Node5</title>
<path fill="none" stroke="midnightblue" d="M216.06,-168.32C206.35,-160.26 191.68,-148.08 180,-138.37"/>
<polygon fill="midnightblue" stroke="midnightblue" points="182.06,-135.53 172.13,-131.83 177.59,-140.92 182.06,-135.53"/>
</g>
<!-- Node26&#45;&gt;Node12 -->
<g id="edge37" class="edge">
<title>Node26&#45;&gt;Node12</title>
<path fill="none" stroke="midnightblue" d="M187.19,-168.41C142.04,-156.26 69.78,-129.33 35.5,-76 26.68,-62.27 23.95,-43.74 23.27,-29.98"/>
<polygon fill="midnightblue" stroke="midnightblue" points="26.77,-29.69 23.1,-19.75 19.77,-29.81 26.77,-29.69"/>
</g>
<!-- Node26&#45;&gt;Node13 -->
<g id="edge38" class="edge">
<title>Node26&#45;&gt;Node13</title>
<path fill="none" stroke="midnightblue" d="M227.29,-168.06C229.01,-154.09 234.34,-127.13 250.5,-112 251.63,-110.94 326.3,-89.13 370.55,-76.27"/>
<polygon fill="midnightblue" stroke="midnightblue" points="371.66,-79.59 380.29,-73.44 369.71,-72.87 371.66,-79.59"/>
</g>
<!-- Node26&#45;&gt;Node18 -->
<g id="edge36" class="edge">
<title>Node26&#45;&gt;Node18</title>
<path fill="none" stroke="midnightblue" d="M281.48,-168.44C343.16,-158.85 443.11,-143.29 508.57,-133.1"/>
<polygon fill="midnightblue" stroke="midnightblue" points="509.43,-136.51 518.77,-131.52 508.35,-129.6 509.43,-136.51"/>
</g>
<!-- Node26&#45;&gt;Node22 -->
<g id="edge39" class="edge">
<title>Node26&#45;&gt;Node22</title>
<path fill="none" stroke="midnightblue" d="M295.13,-171.1C392.3,-162.69 575.51,-146.66 731.5,-132 743.6,-130.86 756.6,-129.6 768.89,-128.39"/>
<polygon fill="midnightblue" stroke="midnightblue" points="769.39,-131.86 779,-127.39 768.7,-124.89 769.39,-131.86"/>
</g>
</g>
</svg>
