<?xml version="1.0" encoding="UTF-8" standalone="no"?>
<!DOCTYPE svg PUBLIC "-//W3C//DTD SVG 1.1//EN"
 "http://www.w3.org/Graphics/SVG/1.1/DTD/svg11.dtd">
<!-- Generated by graphviz version 5.0.1 (0)
 -->
<!-- Title: TensorWriter.cxx Pages: 1 -->
<svg width="1048pt" height="364pt"
 viewBox="0.00 0.00 1048.20 364.00" xmlns="http://www.w3.org/2000/svg" xmlns:xlink="http://www.w3.org/1999/xlink">
<g id="graph0" class="graph" transform="scale(1 1) rotate(0) translate(4 360)">
<title>TensorWriter.cxx</title>
<!-- Node1 -->
<g id="node1" class="node">
<title>Node1</title>
<g id="a_node1"><a xlink:title=" ">
<polygon fill="#bfbfbf" stroke="black" points="508,-336.5 508,-355.5 606,-355.5 606,-336.5 508,-336.5"/>
<text text-anchor="middle" x="557" y="-343.5" font-family="Helvetica,sans-Serif" font-size="10.00">TensorWriter.cxx</text>
</a>
</g>
</g>
<!-- Node2 -->
<g id="node2" class="node">
<title>Node2</title>
<g id="a_node2"><a xlink:href="TensorWriter_8hpp.html" target="_top" xlink:title=" ">
<polygon fill="none" stroke="black" points="776,-280.5 776,-299.5 930,-299.5 930,-280.5 776,-280.5"/>
<text text-anchor="middle" x="853" y="-287.5" font-family="Helvetica,sans-Serif" font-size="10.00">algorithms/TensorWriter.hpp</text>
</a>
</g>
</g>
<!-- Node1&#45;&gt;Node2 -->
<g id="edge1" class="edge">
<title>Node1&#45;&gt;Node2</title>
<path fill="none" stroke="midnightblue" d="M603.9,-336.44C656.08,-326.92 740.37,-311.55 796.23,-301.36"/>
<polygon fill="midnightblue" stroke="midnightblue" points="797.11,-304.75 806.32,-299.52 795.85,-297.87 797.11,-304.75"/>
</g>
<!-- Node5 -->
<g id="node5" class="node">
<title>Node5</title>
<g id="a_node5"><a xlink:href="Log_8hpp.html" target="_top" xlink:title=" ">
<polygon fill="none" stroke="black" points="123,-112.5 123,-131.5 197,-131.5 197,-112.5 123,-112.5"/>
<text text-anchor="middle" x="160" y="-119.5" font-family="Helvetica,sans-Serif" font-size="10.00">util/Log.hpp</text>
</a>
</g>
</g>
<!-- Node1&#45;&gt;Node5 -->
<g id="edge44" class="edge">
<title>Node1&#45;&gt;Node5</title>
<path fill="none" stroke="midnightblue" d="M525.07,-336.47C474.49,-322.11 373.9,-290.1 298,-244 248.09,-213.68 198.91,-164.75 175,-139.4"/>
<polygon fill="midnightblue" stroke="midnightblue" points="177.27,-136.71 167.89,-131.77 172.14,-141.48 177.27,-136.71"/>
</g>
<!-- Node10 -->
<g id="node10" class="node">
<title>Node10</title>
<g id="a_node10"><a xlink:title=" ">
<polygon fill="none" stroke="#bfbfbf" points="0,-0.5 0,-19.5 56,-19.5 56,-0.5 0,-0.5"/>
<text text-anchor="middle" x="28" y="-7.5" font-family="Helvetica,sans-Serif" font-size="10.00">iomanip</text>
</a>
</g>
</g>
<!-- Node1&#45;&gt;Node10 -->
<g id="edge46" class="edge">
<title>Node1&#45;&gt;Node10</title>
<path fill="none" stroke="midnightblue" d="M507.81,-345.21C375.86,-344.47 24,-333.26 24,-235 24,-235 24,-235 24,-121 24,-88.93 25.72,-51.63 26.9,-29.74"/>
<polygon fill="midnightblue" stroke="midnightblue" points="30.41,-29.73 27.48,-19.55 23.42,-29.34 30.41,-29.73"/>
</g>
<!-- Node16 -->
<g id="node16" class="node">
<title>Node16</title>
<g id="a_node16"><a xlink:title=" ">
<polygon fill="none" stroke="#bfbfbf" points="52.5,-56.5 52.5,-75.5 107.5,-75.5 107.5,-56.5 52.5,-56.5"/>
<text text-anchor="middle" x="80" y="-63.5" font-family="Helvetica,sans-Serif" font-size="10.00">fstream</text>
</a>
</g>
</g>
<!-- Node1&#45;&gt;Node16 -->
<g id="edge45" class="edge">
<title>Node1&#45;&gt;Node16</title>
<path fill="none" stroke="midnightblue" d="M507.59,-343.84C386.92,-339.67 87,-320.69 87,-235 87,-235 87,-235 87,-177 87,-144.88 83.99,-107.6 81.92,-85.73"/>
<polygon fill="midnightblue" stroke="midnightblue" points="85.38,-85.15 80.92,-75.55 78.41,-85.84 85.38,-85.15"/>
</g>
<!-- Node22 -->
<g id="node22" class="node">
<title>Node22</title>
<g id="a_node22"><a xlink:href="CTF_8hpp.html" target="_top" xlink:title=" ">
<polygon fill="none" stroke="black" points="955,-112.5 955,-131.5 1029,-131.5 1029,-112.5 955,-112.5"/>
<text text-anchor="middle" x="992" y="-119.5" font-family="Helvetica,sans-Serif" font-size="10.00">util/CTF.hpp</text>
</a>
</g>
</g>
<!-- Node1&#45;&gt;Node22 -->
<g id="edge47" class="edge">
<title>Node1&#45;&gt;Node22</title>
<path fill="none" stroke="midnightblue" d="M606.33,-342.65C695.61,-337.82 880.18,-325.08 939,-300 975.01,-284.64 990.29,-279.41 1007,-244 1022.9,-210.32 1009.85,-165.77 1000.14,-141.21"/>
<polygon fill="midnightblue" stroke="midnightblue" points="1003.26,-139.58 996.16,-131.72 996.8,-142.29 1003.26,-139.58"/>
</g>
<!-- Node25 -->
<g id="node25" class="node">
<title>Node25</title>
<g id="a_node25"><a xlink:href="TensorIo_8hpp.html" target="_top" xlink:title=" ">
<polygon fill="none" stroke="black" points="741.5,-224.5 741.5,-243.5 838.5,-243.5 838.5,-224.5 741.5,-224.5"/>
<text text-anchor="middle" x="790" y="-231.5" font-family="Helvetica,sans-Serif" font-size="10.00">util/TensorIo.hpp</text>
</a>
</g>
</g>
<!-- Node1&#45;&gt;Node25 -->
<g id="edge34" class="edge">
<title>Node1&#45;&gt;Node25</title>
<path fill="none" stroke="midnightblue" d="M575.28,-336.37C616.03,-317.13 714.49,-270.65 762.61,-247.93"/>
<polygon fill="midnightblue" stroke="midnightblue" points="764.25,-251.03 771.8,-243.59 761.26,-244.7 764.25,-251.03"/>
</g>
<!-- Node29 -->
<g id="node29" class="node">
<title>Node29</title>
<g id="a_node29"><a xlink:href="Emitter_8hpp.html" target="_top" xlink:title=" ">
<polygon fill="none" stroke="black" points="511,-280.5 511,-299.5 603,-299.5 603,-280.5 511,-280.5"/>
<text text-anchor="middle" x="557" y="-287.5" font-family="Helvetica,sans-Serif" font-size="10.00">util/Emitter.hpp</text>
</a>
</g>
</g>
<!-- Node1&#45;&gt;Node29 -->
<g id="edge48" class="edge">
<title>Node1&#45;&gt;Node29</title>
<path fill="none" stroke="midnightblue" d="M557,-336.08C557,-329.01 557,-318.86 557,-309.99"/>
<polygon fill="midnightblue" stroke="midnightblue" points="560.5,-309.75 557,-299.75 553.5,-309.75 560.5,-309.75"/>
</g>
<!-- Node3 -->
<g id="node3" class="node">
<title>Node3</title>
<g id="a_node3"><a xlink:href="Algorithm_8hpp.html" target="_top" xlink:title=" ">
<polygon fill="none" stroke="black" points="856.5,-224.5 856.5,-243.5 997.5,-243.5 997.5,-224.5 856.5,-224.5"/>
<text text-anchor="middle" x="927" y="-231.5" font-family="Helvetica,sans-Serif" font-size="10.00">algorithms/Algorithm.hpp</text>
</a>
</g>
</g>
<!-- Node2&#45;&gt;Node3 -->
<g id="edge2" class="edge">
<title>Node2&#45;&gt;Node3</title>
<path fill="none" stroke="midnightblue" d="M864.89,-280.32C876.15,-272.11 893.29,-259.6 906.71,-249.81"/>
<polygon fill="midnightblue" stroke="midnightblue" points="908.88,-252.56 914.89,-243.83 904.75,-246.9 908.88,-252.56"/>
</g>
<!-- Node4 -->
<g id="node4" class="node">
<title>Node4</title>
<g id="a_node4"><a xlink:href="Data_8hpp.html" target="_top" xlink:title=" ">
<polygon fill="none" stroke="black" points="741.5,-168.5 741.5,-187.5 802.5,-187.5 802.5,-168.5 741.5,-168.5"/>
<text text-anchor="middle" x="772" y="-175.5" font-family="Helvetica,sans-Serif" font-size="10.00">Data.hpp</text>
</a>
</g>
</g>
<!-- Node3&#45;&gt;Node4 -->
<g id="edge3" class="edge">
<title>Node3&#45;&gt;Node4</title>
<path fill="none" stroke="midnightblue" d="M902.44,-224.44C876.48,-215.4 835.33,-201.06 806.2,-190.92"/>
<polygon fill="midnightblue" stroke="midnightblue" points="807.04,-187.5 796.45,-187.52 804.74,-194.11 807.04,-187.5"/>
</g>
<!-- Node11 -->
<g id="node11" class="node">
<title>Node11</title>
<g id="a_node11"><a xlink:title=" ">
<polygon fill="none" stroke="#bfbfbf" points="588,-0.5 588,-19.5 644,-19.5 644,-0.5 588,-0.5"/>
<text text-anchor="middle" x="616" y="-7.5" font-family="Helvetica,sans-Serif" font-size="10.00">sstream</text>
</a>
</g>
</g>
<!-- Node3&#45;&gt;Node11 -->
<g id="edge32" class="edge">
<title>Node3&#45;&gt;Node11</title>
<path fill="none" stroke="midnightblue" d="M944.8,-224.32C972.13,-209.76 1022.84,-177.48 1038,-132 1045.34,-109.98 1029.15,-58.85 1026,-56 998.69,-31.34 750.92,-17.27 654.32,-12.68"/>
<polygon fill="midnightblue" stroke="midnightblue" points="654.26,-9.17 644.11,-12.21 653.94,-16.17 654.26,-9.17"/>
</g>
<!-- Node13 -->
<g id="node13" class="node">
<title>Node13</title>
<g id="a_node13"><a xlink:title=" ">
<polygon fill="none" stroke="#bfbfbf" points="707,-56.5 707,-75.5 751,-75.5 751,-56.5 707,-56.5"/>
<text text-anchor="middle" x="729" y="-63.5" font-family="Helvetica,sans-Serif" font-size="10.00">string</text>
</a>
</g>
</g>
<!-- Node3&#45;&gt;Node13 -->
<g id="edge30" class="edge">
<title>Node3&#45;&gt;Node13</title>
<path fill="none" stroke="midnightblue" d="M928.54,-224.34C931.9,-202.42 937.4,-144.19 908,-112 888.45,-90.6 807.14,-76.97 761.12,-70.82"/>
<polygon fill="midnightblue" stroke="midnightblue" points="761.42,-67.33 751.06,-69.52 760.53,-74.27 761.42,-67.33"/>
</g>
<!-- Node21 -->
<g id="node21" class="node">
<title>Node21</title>
<g id="a_node21"><a xlink:title=" ">
<polygon fill="none" stroke="#bfbfbf" points="851.5,-112.5 851.5,-131.5 898.5,-131.5 898.5,-112.5 851.5,-112.5"/>
<text text-anchor="middle" x="875" y="-119.5" font-family="Helvetica,sans-Serif" font-size="10.00">vector</text>
</a>
</g>
</g>
<!-- Node3&#45;&gt;Node21 -->
<g id="edge31" class="edge">
<title>Node3&#45;&gt;Node21</title>
<path fill="none" stroke="midnightblue" d="M922.92,-224.37C914.45,-206.46 894.82,-164.92 883.48,-140.95"/>
<polygon fill="midnightblue" stroke="midnightblue" points="886.5,-139.14 879.06,-131.59 880.17,-142.13 886.5,-139.14"/>
</g>
<!-- Node3&#45;&gt;Node22 -->
<g id="edge33" class="edge">
<title>Node3&#45;&gt;Node22</title>
<path fill="none" stroke="midnightblue" d="M941.73,-224.2C953.68,-216.26 969.99,-203.47 979,-188 987.24,-173.86 990.33,-155.38 991.46,-141.73"/>
<polygon fill="midnightblue" stroke="midnightblue" points="994.96,-141.79 992.01,-131.62 987.97,-141.41 994.96,-141.79"/>
</g>
<!-- Node4&#45;&gt;Node5 -->
<g id="edge4" class="edge">
<title>Node4&#45;&gt;Node5</title>
<path fill="none" stroke="midnightblue" d="M741.33,-174.62C660.13,-168.27 432.88,-150.16 244,-132 232.14,-130.86 219.36,-129.54 207.42,-128.26"/>
<polygon fill="midnightblue" stroke="midnightblue" points="207.52,-124.75 197.2,-127.16 206.77,-131.71 207.52,-124.75"/>
</g>
<!-- Node4&#45;&gt;Node13 -->
<g id="edge21" class="edge">
<title>Node4&#45;&gt;Node13</title>
<path fill="none" stroke="midnightblue" d="M768.63,-168.37C761.62,-150.46 745.39,-108.92 736.02,-84.95"/>
<polygon fill="midnightblue" stroke="midnightblue" points="739.26,-83.63 732.36,-75.59 732.74,-86.18 739.26,-83.63"/>
</g>
<!-- Node17 -->
<g id="node17" class="node">
<title>Node17</title>
<g id="a_node17"><a xlink:href="Float_8hpp.html" target="_top" xlink:title=" ">
<polygon fill="none" stroke="black" points="309.5,-56.5 309.5,-75.5 400.5,-75.5 400.5,-56.5 309.5,-56.5"/>
<text text-anchor="middle" x="355" y="-63.5" font-family="Helvetica,sans-Serif" font-size="10.00">math/Float.hpp</text>
</a>
</g>
</g>
<!-- Node4&#45;&gt;Node17 -->
<g id="edge16" class="edge">
<title>Node4&#45;&gt;Node17</title>
<path fill="none" stroke="midnightblue" d="M741.32,-169.82C704.73,-161.17 641.77,-146.07 588,-132 519.49,-114.07 440.14,-91.56 393.96,-78.28"/>
<polygon fill="midnightblue" stroke="midnightblue" points="394.92,-74.92 384.34,-75.51 392.98,-81.64 394.92,-74.92"/>
</g>
<!-- Node18 -->
<g id="node18" class="node">
<title>Node18</title>
<g id="a_node18"><a xlink:href="Complex_8hpp.html" target="_top" xlink:title=" ">
<polygon fill="none" stroke="black" points="393,-112.5 393,-131.5 503,-131.5 503,-112.5 393,-112.5"/>
<text text-anchor="middle" x="448" y="-119.5" font-family="Helvetica,sans-Serif" font-size="10.00">math/Complex.hpp</text>
</a>
</g>
</g>
<!-- Node4&#45;&gt;Node18 -->
<g id="edge18" class="edge">
<title>Node4&#45;&gt;Node18</title>
<path fill="none" stroke="midnightblue" d="M741.23,-171.87C688.08,-163.01 578.16,-144.69 509.03,-133.17"/>
<polygon fill="midnightblue" stroke="midnightblue" points="509.58,-129.71 499.14,-131.52 508.43,-136.62 509.58,-129.71"/>
</g>
<!-- Node20 -->
<g id="node20" class="node">
<title>Node20</title>
<g id="a_node20"><a xlink:title=" ">
<polygon fill="none" stroke="#bfbfbf" points="795,-112.5 795,-131.5 833,-131.5 833,-112.5 795,-112.5"/>
<text text-anchor="middle" x="814" y="-119.5" font-family="Helvetica,sans-Serif" font-size="10.00">map</text>
</a>
</g>
</g>
<!-- Node4&#45;&gt;Node20 -->
<g id="edge22" class="edge">
<title>Node4&#45;&gt;Node20</title>
<path fill="none" stroke="midnightblue" d="M778.94,-168.08C784.93,-160.38 793.75,-149.03 801.05,-139.65"/>
<polygon fill="midnightblue" stroke="midnightblue" points="803.82,-141.79 807.19,-131.75 798.29,-137.5 803.82,-141.79"/>
</g>
<!-- Node4&#45;&gt;Node21 -->
<g id="edge23" class="edge">
<title>Node4&#45;&gt;Node21</title>
<path fill="none" stroke="midnightblue" d="M788.55,-168.32C804.99,-159.7 830.43,-146.36 849.47,-136.39"/>
<polygon fill="midnightblue" stroke="midnightblue" points="851.26,-139.4 858.49,-131.65 848.01,-133.2 851.26,-139.4"/>
</g>
<!-- Node4&#45;&gt;Node22 -->
<g id="edge24" class="edge">
<title>Node4&#45;&gt;Node22</title>
<path fill="none" stroke="midnightblue" d="M802.59,-169.49C840.19,-160.26 904.3,-144.53 947.39,-133.95"/>
<polygon fill="midnightblue" stroke="midnightblue" points="948.45,-137.29 957.32,-131.51 946.78,-130.5 948.45,-137.29"/>
</g>
<!-- Node24 -->
<g id="node24" class="node">
<title>Node24</title>
<g id="a_node24"><a xlink:href="Exception_8hpp.html" target="_top" xlink:title=" ">
<polygon fill="none" stroke="black" points="597,-112.5 597,-131.5 701,-131.5 701,-112.5 597,-112.5"/>
<text text-anchor="middle" x="649" y="-119.5" font-family="Helvetica,sans-Serif" font-size="10.00">util/Exception.hpp</text>
</a>
</g>
</g>
<!-- Node4&#45;&gt;Node24 -->
<g id="edge26" class="edge">
<title>Node4&#45;&gt;Node24</title>
<path fill="none" stroke="midnightblue" d="M752.51,-168.44C732.36,-159.6 700.68,-145.69 677.67,-135.59"/>
<polygon fill="midnightblue" stroke="midnightblue" points="678.96,-132.33 668.4,-131.52 676.15,-138.74 678.96,-132.33"/>
</g>
<!-- Node6 -->
<g id="node6" class="node">
<title>Node6</title>
<g id="a_node6"><a xlink:href="Time_8hpp.html" target="_top" xlink:title=" ">
<polygon fill="none" stroke="black" points="125.5,-56.5 125.5,-75.5 206.5,-75.5 206.5,-56.5 125.5,-56.5"/>
<text text-anchor="middle" x="166" y="-63.5" font-family="Helvetica,sans-Serif" font-size="10.00">util/Time.hpp</text>
</a>
</g>
</g>
<!-- Node5&#45;&gt;Node6 -->
<g id="edge5" class="edge">
<title>Node5&#45;&gt;Node6</title>
<path fill="none" stroke="midnightblue" d="M160.99,-112.08C161.79,-104.93 162.93,-94.64 163.92,-85.69"/>
<polygon fill="midnightblue" stroke="midnightblue" points="167.4,-86.08 165.03,-75.75 160.44,-85.3 167.4,-86.08"/>
</g>
<!-- Node5&#45;&gt;Node13 -->
<g id="edge12" class="edge">
<title>Node5&#45;&gt;Node13</title>
<path fill="none" stroke="midnightblue" d="M197.2,-116.9C211.79,-115.32 228.68,-113.53 244,-112 414.37,-94.97 618.64,-76.73 696.61,-69.85"/>
<polygon fill="midnightblue" stroke="midnightblue" points="697.1,-73.32 706.75,-68.95 696.48,-66.34 697.1,-73.32"/>
</g>
<!-- Node14 -->
<g id="node14" class="node">
<title>Node14</title>
<g id="a_node14"><a xlink:title=" ">
<polygon fill="none" stroke="#bfbfbf" points="496,-56.5 496,-75.5 556,-75.5 556,-56.5 496,-56.5"/>
<text text-anchor="middle" x="526" y="-63.5" font-family="Helvetica,sans-Serif" font-size="10.00">iostream</text>
</a>
</g>
</g>
<!-- Node5&#45;&gt;Node14 -->
<g id="edge13" class="edge">
<title>Node5&#45;&gt;Node14</title>
<path fill="none" stroke="midnightblue" d="M197.32,-116.88C258.06,-109.95 382,-94.84 486,-76 486.1,-75.98 486.2,-75.96 486.3,-75.95"/>
<polygon fill="midnightblue" stroke="midnightblue" points="486.78,-79.42 495.91,-74.05 485.43,-72.55 486.78,-79.42"/>
</g>
<!-- Node15 -->
<g id="node15" class="node">
<title>Node15</title>
<g id="a_node15"><a xlink:title=" ">
<polygon fill="none" stroke="#bfbfbf" points="224.5,-56.5 224.5,-75.5 291.5,-75.5 291.5,-56.5 224.5,-56.5"/>
<text text-anchor="middle" x="258" y="-63.5" font-family="Helvetica,sans-Serif" font-size="10.00">streambuf</text>
</a>
</g>
</g>
<!-- Node5&#45;&gt;Node15 -->
<g id="edge14" class="edge">
<title>Node5&#45;&gt;Node15</title>
<path fill="none" stroke="midnightblue" d="M175.75,-112.32C191.32,-103.74 215.38,-90.49 233.46,-80.52"/>
<polygon fill="midnightblue" stroke="midnightblue" points="235.22,-83.55 242.29,-75.65 231.85,-77.42 235.22,-83.55"/>
</g>
<!-- Node5&#45;&gt;Node16 -->
<g id="edge15" class="edge">
<title>Node5&#45;&gt;Node16</title>
<path fill="none" stroke="midnightblue" d="M147.15,-112.32C134.78,-103.98 115.87,-91.21 101.26,-81.35"/>
<polygon fill="midnightblue" stroke="midnightblue" points="103.07,-78.35 92.82,-75.65 99.15,-84.15 103.07,-78.35"/>
</g>
<!-- Node7 -->
<g id="node7" class="node">
<title>Node7</title>
<g id="a_node7"><a xlink:title=" ">
<polygon fill="none" stroke="#bfbfbf" points="144,-0.5 144,-19.5 188,-19.5 188,-0.5 144,-0.5"/>
<text text-anchor="middle" x="166" y="-7.5" font-family="Helvetica,sans-Serif" font-size="10.00">ctime</text>
</a>
</g>
</g>
<!-- Node6&#45;&gt;Node7 -->
<g id="edge6" class="edge">
<title>Node6&#45;&gt;Node7</title>
<path fill="none" stroke="midnightblue" d="M166,-56.08C166,-49.01 166,-38.86 166,-29.99"/>
<polygon fill="midnightblue" stroke="midnightblue" points="169.5,-29.75 166,-19.75 162.5,-29.75 169.5,-29.75"/>
</g>
<!-- Node8 -->
<g id="node8" class="node">
<title>Node8</title>
<g id="a_node8"><a xlink:title=" ">
<polygon fill="none" stroke="#bfbfbf" points="206,-0.5 206,-19.5 256,-19.5 256,-0.5 206,-0.5"/>
<text text-anchor="middle" x="231" y="-7.5" font-family="Helvetica,sans-Serif" font-size="10.00">cstdint</text>
</a>
</g>
</g>
<!-- Node6&#45;&gt;Node8 -->
<g id="edge7" class="edge">
<title>Node6&#45;&gt;Node8</title>
<path fill="none" stroke="midnightblue" d="M176.44,-56.32C186.15,-48.26 200.82,-36.08 212.5,-26.37"/>
<polygon fill="midnightblue" stroke="midnightblue" points="214.91,-28.92 220.37,-19.83 210.44,-23.53 214.91,-28.92"/>
</g>
<!-- Node9 -->
<g id="node9" class="node">
<title>Node9</title>
<g id="a_node9"><a xlink:title=" ">
<polygon fill="none" stroke="#bfbfbf" points="300.5,-0.5 300.5,-19.5 357.5,-19.5 357.5,-0.5 300.5,-0.5"/>
<text text-anchor="middle" x="329" y="-7.5" font-family="Helvetica,sans-Serif" font-size="10.00">ostream</text>
</a>
</g>
</g>
<!-- Node6&#45;&gt;Node9 -->
<g id="edge8" class="edge">
<title>Node6&#45;&gt;Node9</title>
<path fill="none" stroke="midnightblue" d="M191.83,-56.44C219.25,-47.36 262.78,-32.94 293.43,-22.78"/>
<polygon fill="midnightblue" stroke="midnightblue" points="294.9,-25.98 303.29,-19.52 292.7,-19.34 294.9,-25.98"/>
</g>
<!-- Node6&#45;&gt;Node10 -->
<g id="edge9" class="edge">
<title>Node6&#45;&gt;Node10</title>
<path fill="none" stroke="midnightblue" d="M144.13,-56.44C121.22,-47.48 85.02,-33.31 59.13,-23.18"/>
<polygon fill="midnightblue" stroke="midnightblue" points="60.35,-19.9 49.76,-19.52 57.8,-26.42 60.35,-19.9"/>
</g>
<!-- Node6&#45;&gt;Node11 -->
<g id="edge10" class="edge">
<title>Node6&#45;&gt;Node11</title>
<path fill="none" stroke="midnightblue" d="M206.61,-57.32C209.44,-56.85 212.26,-56.4 215,-56 347.5,-36.42 505.74,-20.99 577.38,-14.43"/>
<polygon fill="midnightblue" stroke="midnightblue" points="578.07,-17.88 587.71,-13.49 577.44,-10.91 578.07,-17.88"/>
</g>
<!-- Node12 -->
<g id="node12" class="node">
<title>Node12</title>
<g id="a_node12"><a xlink:title=" ">
<polygon fill="none" stroke="#bfbfbf" points="78.5,-0.5 78.5,-19.5 125.5,-19.5 125.5,-0.5 78.5,-0.5"/>
<text text-anchor="middle" x="102" y="-7.5" font-family="Helvetica,sans-Serif" font-size="10.00">cmath</text>
</a>
</g>
</g>
<!-- Node6&#45;&gt;Node12 -->
<g id="edge11" class="edge">
<title>Node6&#45;&gt;Node12</title>
<path fill="none" stroke="midnightblue" d="M155.72,-56.32C146.16,-48.26 131.72,-36.08 120.22,-26.37"/>
<polygon fill="midnightblue" stroke="midnightblue" points="122.37,-23.61 112.47,-19.83 117.86,-28.96 122.37,-23.61"/>
</g>
<!-- Node17&#45;&gt;Node9 -->
<g id="edge17" class="edge">
<title>Node17&#45;&gt;Node9</title>
<path fill="none" stroke="midnightblue" d="M350.71,-56.08C347.15,-48.69 341.98,-37.95 337.58,-28.81"/>
<polygon fill="midnightblue" stroke="midnightblue" points="340.71,-27.24 333.21,-19.75 334.4,-30.28 340.71,-27.24"/>
</g>
<!-- Node18&#45;&gt;Node17 -->
<g id="edge19" class="edge">
<title>Node18&#45;&gt;Node17</title>
<path fill="none" stroke="midnightblue" d="M433.06,-112.32C418.41,-103.82 395.87,-90.73 378.76,-80.8"/>
<polygon fill="midnightblue" stroke="midnightblue" points="380.31,-77.65 369.9,-75.65 376.8,-83.7 380.31,-77.65"/>
</g>
<!-- Node19 -->
<g id="node19" class="node">
<title>Node19</title>
<g id="a_node19"><a xlink:title=" ">
<polygon fill="none" stroke="#bfbfbf" points="418.5,-56.5 418.5,-75.5 477.5,-75.5 477.5,-56.5 418.5,-56.5"/>
<text text-anchor="middle" x="448" y="-63.5" font-family="Helvetica,sans-Serif" font-size="10.00">complex</text>
</a>
</g>
</g>
<!-- Node18&#45;&gt;Node19 -->
<g id="edge20" class="edge">
<title>Node18&#45;&gt;Node19</title>
<path fill="none" stroke="midnightblue" d="M448,-112.08C448,-105.01 448,-94.86 448,-85.99"/>
<polygon fill="midnightblue" stroke="midnightblue" points="451.5,-85.75 448,-75.75 444.5,-85.75 451.5,-85.75"/>
</g>
<!-- Node23 -->
<g id="node23" class="node">
<title>Node23</title>
<g id="a_node23"><a xlink:title=" ">
<polygon fill="none" stroke="#bfbfbf" points="967,-56.5 967,-75.5 1017,-75.5 1017,-56.5 967,-56.5"/>
<text text-anchor="middle" x="992" y="-63.5" font-family="Helvetica,sans-Serif" font-size="10.00">ctf.hpp</text>
</a>
</g>
</g>
<!-- Node22&#45;&gt;Node23 -->
<g id="edge25" class="edge">
<title>Node22&#45;&gt;Node23</title>
<path fill="none" stroke="midnightblue" d="M992,-112.08C992,-105.01 992,-94.86 992,-85.99"/>
<polygon fill="midnightblue" stroke="midnightblue" points="995.5,-85.75 992,-75.75 988.5,-85.75 995.5,-85.75"/>
</g>
<!-- Node24&#45;&gt;Node11 -->
<g id="edge28" class="edge">
<title>Node24&#45;&gt;Node11</title>
<path fill="none" stroke="midnightblue" d="M646.41,-112.37C641.06,-94.54 628.69,-53.3 621.48,-29.27"/>
<polygon fill="midnightblue" stroke="midnightblue" points="624.8,-28.16 618.58,-19.59 618.1,-30.18 624.8,-28.16"/>
</g>
<!-- Node24&#45;&gt;Node13 -->
<g id="edge27" class="edge">
<title>Node24&#45;&gt;Node13</title>
<path fill="none" stroke="midnightblue" d="M661.85,-112.32C674.22,-103.98 693.13,-91.21 707.74,-81.35"/>
<polygon fill="midnightblue" stroke="midnightblue" points="709.85,-84.15 716.18,-75.65 705.93,-78.35 709.85,-84.15"/>
</g>
<!-- Node24&#45;&gt;Node14 -->
<g id="edge29" class="edge">
<title>Node24&#45;&gt;Node14</title>
<path fill="none" stroke="midnightblue" d="M629.51,-112.44C609.36,-103.6 577.68,-89.69 554.67,-79.59"/>
<polygon fill="midnightblue" stroke="midnightblue" points="555.96,-76.33 545.4,-75.52 553.15,-82.74 555.96,-76.33"/>
</g>
<!-- Node25&#45;&gt;Node22 -->
<g id="edge43" class="edge">
<title>Node25&#45;&gt;Node22</title>
<path fill="none" stroke="midnightblue" d="M805.85,-224.37C840.88,-205.29 925.12,-159.42 967.2,-136.51"/>
<polygon fill="midnightblue" stroke="midnightblue" points="969.11,-139.45 976.22,-131.59 965.77,-133.3 969.11,-139.45"/>
</g>
<!-- Node26 -->
<g id="node26" class="node">
<title>Node26</title>
<g id="a_node26"><a xlink:href="Scanner_8hpp.html" target="_top" xlink:title=" ">
<polygon fill="none" stroke="black" points="400.5,-168.5 400.5,-187.5 495.5,-187.5 495.5,-168.5 400.5,-168.5"/>
<text text-anchor="middle" x="448" y="-175.5" font-family="Helvetica,sans-Serif" font-size="10.00">util/Scanner.hpp</text>
</a>
</g>
</g>
<!-- Node25&#45;&gt;Node26 -->
<g id="edge35" class="edge">
<title>Node25&#45;&gt;Node26</title>
<path fill="none" stroke="midnightblue" d="M741.36,-225.32C679.31,-215.52 572.11,-198.6 505.9,-188.14"/>
<polygon fill="midnightblue" stroke="midnightblue" points="506.07,-184.63 495.64,-186.52 504.97,-191.54 506.07,-184.63"/>
</g>
<!-- Node26&#45;&gt;Node5 -->
<g id="edge38" class="edge">
<title>Node26&#45;&gt;Node5</title>
<path fill="none" stroke="midnightblue" d="M402.37,-168.44C349.02,-158.44 261.18,-141.97 207.18,-131.85"/>
<polygon fill="midnightblue" stroke="midnightblue" points="207.65,-128.37 197.18,-129.97 206.36,-135.25 207.65,-128.37"/>
</g>
<!-- Node26&#45;&gt;Node11 -->
<g id="edge40" class="edge">
<title>Node26&#45;&gt;Node11</title>
<path fill="none" stroke="midnightblue" d="M461.82,-168.44C475.19,-159.89 495.77,-146.04 512,-132 549.72,-99.39 585.81,-52.82 603.92,-28.04"/>
<polygon fill="midnightblue" stroke="midnightblue" points="606.93,-29.84 609.94,-19.68 601.26,-25.75 606.93,-29.84"/>
</g>
<!-- Node26&#45;&gt;Node17 -->
<g id="edge36" class="edge">
<title>Node26&#45;&gt;Node17</title>
<path fill="none" stroke="midnightblue" d="M402.65,-168.48C344.08,-157.26 249.01,-138.24 244,-132 223.26,-106.19 263.77,-88.48 301.54,-78.14"/>
<polygon fill="midnightblue" stroke="midnightblue" points="302.75,-81.44 311.56,-75.54 301,-74.66 302.75,-81.44"/>
</g>
<!-- Node26&#45;&gt;Node18 -->
<g id="edge37" class="edge">
<title>Node26&#45;&gt;Node18</title>
<path fill="none" stroke="midnightblue" d="M448,-168.08C448,-161.01 448,-150.86 448,-141.99"/>
<polygon fill="midnightblue" stroke="midnightblue" points="451.5,-141.75 448,-131.75 444.5,-141.75 451.5,-141.75"/>
</g>
<!-- Node26&#45;&gt;Node24 -->
<g id="edge39" class="edge">
<title>Node26&#45;&gt;Node24</title>
<path fill="none" stroke="midnightblue" d="M479.85,-168.44C514.4,-159.16 569.68,-144.31 607.58,-134.13"/>
<polygon fill="midnightblue" stroke="midnightblue" points="608.55,-137.49 617.3,-131.52 606.73,-130.73 608.55,-137.49"/>
</g>
<!-- Node27 -->
<g id="node27" class="node">
<title>Node27</title>
<g id="a_node27"><a xlink:title=" ">
<polygon fill="none" stroke="#bfbfbf" points="253,-112.5 253,-131.5 307,-131.5 307,-112.5 253,-112.5"/>
<text text-anchor="middle" x="280" y="-119.5" font-family="Helvetica,sans-Serif" font-size="10.00">istream</text>
</a>
</g>
</g>
<!-- Node26&#45;&gt;Node27 -->
<g id="edge41" class="edge">
<title>Node26&#45;&gt;Node27</title>
<path fill="none" stroke="midnightblue" d="M421.38,-168.44C392.99,-159.32 347.86,-144.81 316.25,-134.65"/>
<polygon fill="midnightblue" stroke="midnightblue" points="317.09,-131.24 306.5,-131.52 314.94,-137.91 317.09,-131.24"/>
</g>
<!-- Node28 -->
<g id="node28" class="node">
<title>Node28</title>
<g id="a_node28"><a xlink:title=" ">
<polygon fill="none" stroke="#bfbfbf" points="325,-112.5 325,-131.5 375,-131.5 375,-112.5 325,-112.5"/>
<text text-anchor="middle" x="350" y="-119.5" font-family="Helvetica,sans-Serif" font-size="10.00">cstring</text>
</a>
</g>
</g>
<!-- Node26&#45;&gt;Node28 -->
<g id="edge42" class="edge">
<title>Node26&#45;&gt;Node28</title>
<path fill="none" stroke="midnightblue" d="M432.25,-168.32C416.68,-159.74 392.62,-146.49 374.54,-136.52"/>
<polygon fill="midnightblue" stroke="midnightblue" points="376.15,-133.42 365.71,-131.65 372.78,-139.55 376.15,-133.42"/>
</g>
<!-- Node29&#45;&gt;Node13 -->
<g id="edge51" class="edge">
<title>Node29&#45;&gt;Node13</title>
<path fill="none" stroke="midnightblue" d="M569.85,-280.44C582.25,-271.9 601.28,-258.05 616,-244 663.01,-199.13 679.34,-189.3 710,-132 717.8,-117.42 722.76,-99.25 725.65,-85.82"/>
<polygon fill="midnightblue" stroke="midnightblue" points="729.12,-86.34 727.61,-75.85 722.25,-84.99 729.12,-86.34"/>
</g>
<!-- Node30 -->
<g id="node30" class="node">
<title>Node30</title>
<g id="a_node30"><a xlink:href="SharedPointer_8hpp.html" target="_top" xlink:title=" ">
<polygon fill="none" stroke="black" points="307,-224.5 307,-243.5 431,-243.5 431,-224.5 307,-224.5"/>
<text text-anchor="middle" x="369" y="-231.5" font-family="Helvetica,sans-Serif" font-size="10.00">util/SharedPointer.hpp</text>
</a>
</g>
</g>
<!-- Node29&#45;&gt;Node30 -->
<g id="edge49" class="edge">
<title>Node29&#45;&gt;Node30</title>
<path fill="none" stroke="midnightblue" d="M527.21,-280.44C495.17,-271.24 444.07,-256.56 408.65,-246.39"/>
<polygon fill="midnightblue" stroke="midnightblue" points="409.23,-242.91 398.65,-243.52 407.29,-249.64 409.23,-242.91"/>
</g>
<!-- Node32 -->
<g id="node32" class="node">
<title>Node32</title>
<g id="a_node32"><a xlink:title=" ">
<polygon fill="none" stroke="#bfbfbf" points="507.5,-224.5 507.5,-243.5 606.5,-243.5 606.5,-224.5 507.5,-224.5"/>
<text text-anchor="middle" x="557" y="-231.5" font-family="Helvetica,sans-Serif" font-size="10.00">yaml&#45;cpp/yaml.h</text>
</a>
</g>
</g>
<!-- Node29&#45;&gt;Node32 -->
<g id="edge52" class="edge">
<title>Node29&#45;&gt;Node32</title>
<path fill="none" stroke="midnightblue" d="M557,-280.08C557,-273.01 557,-262.86 557,-253.99"/>
<polygon fill="midnightblue" stroke="midnightblue" points="560.5,-253.75 557,-243.75 553.5,-253.75 560.5,-253.75"/>
</g>
<!-- Node31 -->
<g id="node31" class="node">
<title>Node31</title>
<g id="a_node31"><a xlink:title=" ">
<polygon fill="none" stroke="#bfbfbf" points="324,-168.5 324,-187.5 382,-187.5 382,-168.5 324,-168.5"/>
<text text-anchor="middle" x="353" y="-175.5" font-family="Helvetica,sans-Serif" font-size="10.00">memory</text>
</a>
</g>
</g>
<!-- Node30&#45;&gt;Node31 -->
<g id="edge50" class="edge">
<title>Node30&#45;&gt;Node31</title>
<path fill="none" stroke="midnightblue" d="M366.36,-224.08C364.21,-216.85 361.12,-206.41 358.45,-197.4"/>
<polygon fill="midnightblue" stroke="midnightblue" points="361.79,-196.34 355.59,-187.75 355.08,-198.33 361.79,-196.34"/>
</g>
</g>
</svg>
