<?xml version="1.0" encoding="UTF-8" standalone="no"?>
<!DOCTYPE svg PUBLIC "-//W3C//DTD SVG 1.1//EN"
 "http://www.w3.org/Graphics/SVG/1.1/DTD/svg11.dtd">
<!-- Generated by graphviz version 5.0.1 (0)
 -->
<!-- Title: UegVertexGenerator.cxx Pages: 1 -->
<svg width="2179pt" height="357pt"
 viewBox="0.00 0.00 2179.03 357.00" xmlns="http://www.w3.org/2000/svg" xmlns:xlink="http://www.w3.org/1999/xlink">
<g id="graph0" class="graph" transform="scale(1 1) rotate(0) translate(4 353)">
<title>UegVertexGenerator.cxx</title>
<!-- Node1 -->
<g id="node1" class="node">
<title>Node1</title>
<g id="a_node1"><a xlink:title=" ">
<polygon fill="#999999" stroke="#666666" points="674.03,-349 538.03,-349 538.03,-330 674.03,-330 674.03,-349"/>
<text text-anchor="middle" x="606.03" y="-337" font-family="Helvetica,sans-Serif" font-size="10.00">UegVertexGenerator.cxx</text>
</a>
</g>
</g>
<!-- Node2 -->
<g id="node2" class="node">
<title>Node2</title>
<g id="a_node2"><a xlink:href="UegVertexGenerator_8hpp.html" target="_top" xlink:title=" ">
<polygon fill="white" stroke="#666666" points="499.03,-294 307.03,-294 307.03,-275 499.03,-275 499.03,-294"/>
<text text-anchor="middle" x="403.03" y="-282" font-family="Helvetica,sans-Serif" font-size="10.00">algorithms/UegVertexGenerator.hpp</text>
</a>
</g>
</g>
<!-- Node1&#45;&gt;Node2 -->
<g id="edge1" class="edge">
<title>Node1&#45;&gt;Node2</title>
<path fill="none" stroke="#63b8ff" d="M573.41,-329.98C538.74,-320.93 483.76,-306.58 445.68,-296.64"/>
<polygon fill="#63b8ff" stroke="#63b8ff" points="446.46,-293.22 435.9,-294.08 444.69,-299.99 446.46,-293.22"/>
</g>
<!-- Node5 -->
<g id="node5" class="node">
<title>Node5</title>
<g id="a_node5"><a xlink:href="Log_8hpp.html" target="_top" xlink:title=" ">
<polygon fill="white" stroke="#666666" points="710.03,-129 636.03,-129 636.03,-110 710.03,-110 710.03,-129"/>
<text text-anchor="middle" x="673.03" y="-117" font-family="Helvetica,sans-Serif" font-size="10.00">util/Log.hpp</text>
</a>
</g>
</g>
<!-- Node1&#45;&gt;Node5 -->
<g id="edge35" class="edge">
<title>Node1&#45;&gt;Node5</title>
<path fill="none" stroke="#63b8ff" d="M620.38,-329.92C644.11,-314.86 690.95,-281.23 712.03,-239 726.76,-209.47 730.74,-195.45 718.03,-165 713.17,-153.36 703.61,-143.2 694.55,-135.55"/>
<polygon fill="#63b8ff" stroke="#63b8ff" points="696.55,-132.67 686.52,-129.25 692.23,-138.17 696.55,-132.67"/>
</g>
<!-- Node22 -->
<g id="node22" class="node">
<title>Node22</title>
<g id="a_node22"><a xlink:href="Tensor_8hpp.html" target="_top" xlink:title=" ">
<polygon fill="white" stroke="#666666" points="101.53,-129 14.53,-129 14.53,-110 101.53,-110 101.53,-129"/>
<text text-anchor="middle" x="58.03" y="-117" font-family="Helvetica,sans-Serif" font-size="10.00">util/Tensor.hpp</text>
</a>
</g>
</g>
<!-- Node1&#45;&gt;Node22 -->
<g id="edge67" class="edge">
<title>Node1&#45;&gt;Node22</title>
<path fill="none" stroke="#63b8ff" d="M537.79,-338.69C445.39,-335.71 279.07,-318.56 166.03,-239 124.85,-210.02 87.94,-162.83 69.83,-137.63"/>
<polygon fill="#63b8ff" stroke="#63b8ff" points="72.46,-135.29 63.84,-129.14 66.74,-139.33 72.46,-135.29"/>
</g>
<!-- Node25 -->
<g id="node25" class="node">
<title>Node25</title>
<g id="a_node25"><a xlink:href="Exception_8hpp.html" target="_top" xlink:title=" ">
<polygon fill="white" stroke="#666666" points="542.03,-129 438.03,-129 438.03,-110 542.03,-110 542.03,-129"/>
<text text-anchor="middle" x="490.03" y="-117" font-family="Helvetica,sans-Serif" font-size="10.00">util/Exception.hpp</text>
</a>
</g>
</g>
<!-- Node1&#45;&gt;Node25 -->
<g id="edge36" class="edge">
<title>Node1&#45;&gt;Node25</title>
<path fill="none" stroke="#63b8ff" d="M601.48,-329.95C584.3,-297.67 523.15,-182.75 499.48,-138.26"/>
<polygon fill="#63b8ff" stroke="#63b8ff" points="502.46,-136.41 494.67,-129.22 496.28,-139.7 502.46,-136.41"/>
</g>
<!-- Node26 -->
<g id="node26" class="node">
<title>Node26</title>
<g id="a_node26"><a xlink:href="Sisi4s_8hpp.html" target="_top" xlink:title=" ">
<polygon fill="white" stroke="#666666" points="703.03,-239 637.03,-239 637.03,-220 703.03,-220 703.03,-239"/>
<text text-anchor="middle" x="670.03" y="-227" font-family="Helvetica,sans-Serif" font-size="10.00">Sisi4s.hpp</text>
</a>
</g>
</g>
<!-- Node1&#45;&gt;Node26 -->
<g id="edge37" class="edge">
<title>Node1&#45;&gt;Node26</title>
<path fill="none" stroke="#63b8ff" d="M611.26,-329.66C621.82,-311.85 645.81,-271.37 659.65,-248.01"/>
<polygon fill="#63b8ff" stroke="#63b8ff" points="662.81,-249.55 664.9,-239.16 656.79,-245.98 662.81,-249.55"/>
</g>
<!-- Node3 -->
<g id="node3" class="node">
<title>Node3</title>
<g id="a_node3"><a xlink:href="Algorithm_8hpp.html" target="_top" xlink:title=" ">
<polygon fill="white" stroke="#666666" points="316.53,-239 175.53,-239 175.53,-220 316.53,-220 316.53,-239"/>
<text text-anchor="middle" x="246.03" y="-227" font-family="Helvetica,sans-Serif" font-size="10.00">algorithms/Algorithm.hpp</text>
</a>
</g>
</g>
<!-- Node2&#45;&gt;Node3 -->
<g id="edge2" class="edge">
<title>Node2&#45;&gt;Node3</title>
<path fill="none" stroke="#63b8ff" d="M377.8,-274.98C351.67,-266.16 310.63,-252.31 281.29,-242.41"/>
<polygon fill="#63b8ff" stroke="#63b8ff" points="282.04,-238.96 271.45,-239.08 279.8,-245.6 282.04,-238.96"/>
</g>
<!-- Node4 -->
<g id="node4" class="node">
<title>Node4</title>
<g id="a_node4"><a xlink:href="Data_8hpp.html" target="_top" xlink:title=" ">
<polygon fill="white" stroke="#666666" points="402.53,-184 341.53,-184 341.53,-165 402.53,-165 402.53,-184"/>
<text text-anchor="middle" x="372.03" y="-172" font-family="Helvetica,sans-Serif" font-size="10.00">Data.hpp</text>
</a>
</g>
</g>
<!-- Node3&#45;&gt;Node4 -->
<g id="edge3" class="edge">
<title>Node3&#45;&gt;Node4</title>
<path fill="none" stroke="#63b8ff" d="M266.27,-219.98C286.72,-211.38 318.56,-197.99 341.96,-188.15"/>
<polygon fill="#63b8ff" stroke="#63b8ff" points="343.55,-191.27 351.41,-184.17 340.84,-184.82 343.55,-191.27"/>
</g>
<!-- Node11 -->
<g id="node11" class="node">
<title>Node11</title>
<g id="a_node11"><a xlink:title=" ">
<polygon fill="#e0e0e0" stroke="#999999" points="584.03,-19 528.03,-19 528.03,0 584.03,0 584.03,-19"/>
<text text-anchor="middle" x="556.03" y="-7" font-family="Helvetica,sans-Serif" font-size="10.00">sstream</text>
</a>
</g>
</g>
<!-- Node3&#45;&gt;Node11 -->
<g id="edge33" class="edge">
<title>Node3&#45;&gt;Node11</title>
<path fill="none" stroke="#63b8ff" d="M175.24,-221.02C118.08,-210.76 41.39,-186.48 5.03,-129 -14.72,-97.79 32.66,-61.99 45.03,-55 125.82,-9.37 368.59,-27.13 461.03,-19 479.6,-17.37 500.22,-15.52 517.49,-13.97"/>
<polygon fill="#63b8ff" stroke="#63b8ff" points="518.12,-17.43 527.76,-13.05 517.49,-10.46 518.12,-17.43"/>
</g>
<!-- Node13 -->
<g id="node13" class="node">
<title>Node13</title>
<g id="a_node13"><a xlink:title=" ">
<polygon fill="#e0e0e0" stroke="#999999" points="514.03,-74 470.03,-74 470.03,-55 514.03,-55 514.03,-74"/>
<text text-anchor="middle" x="492.03" y="-62" font-family="Helvetica,sans-Serif" font-size="10.00">string</text>
</a>
</g>
</g>
<!-- Node3&#45;&gt;Node13 -->
<g id="edge31" class="edge">
<title>Node3&#45;&gt;Node13</title>
<path fill="none" stroke="#63b8ff" d="M294.79,-219.97C373.27,-205.11 521.78,-171.92 551.03,-129 563.95,-110.04 540.56,-91.15 519.52,-78.96"/>
<polygon fill="#63b8ff" stroke="#63b8ff" points="520.92,-75.73 510.46,-74.01 517.56,-81.88 520.92,-75.73"/>
</g>
<!-- Node21 -->
<g id="node21" class="node">
<title>Node21</title>
<g id="a_node21"><a xlink:title=" ">
<polygon fill="#e0e0e0" stroke="#999999" points="227.53,-74 180.53,-74 180.53,-55 227.53,-55 227.53,-74"/>
<text text-anchor="middle" x="204.03" y="-62" font-family="Helvetica,sans-Serif" font-size="10.00">vector</text>
</a>
</g>
</g>
<!-- Node3&#45;&gt;Node21 -->
<g id="edge32" class="edge">
<title>Node3&#45;&gt;Node21</title>
<path fill="none" stroke="#63b8ff" d="M242.09,-219.94C234.48,-202.98 217.83,-163.77 210.03,-129 206.72,-114.28 205.24,-97.23 204.57,-84.51"/>
<polygon fill="#63b8ff" stroke="#63b8ff" points="208.05,-84.09 204.16,-74.24 201.06,-84.37 208.05,-84.09"/>
</g>
<!-- Node3&#45;&gt;Node22 -->
<g id="edge34" class="edge">
<title>Node3&#45;&gt;Node22</title>
<path fill="none" stroke="#63b8ff" d="M226.25,-219.86C207.35,-211.39 178.24,-197.78 154.03,-184 126.89,-168.55 97.12,-148.31 78.03,-134.87"/>
<polygon fill="#63b8ff" stroke="#63b8ff" points="80.01,-131.98 69.82,-129.05 75.96,-137.69 80.01,-131.98"/>
</g>
<!-- Node4&#45;&gt;Node5 -->
<g id="edge4" class="edge">
<title>Node4&#45;&gt;Node5</title>
<path fill="none" stroke="#63b8ff" d="M402.54,-168.13C455.21,-158.85 563.51,-139.78 625.91,-128.8"/>
<polygon fill="#63b8ff" stroke="#63b8ff" points="626.65,-132.22 635.89,-127.04 625.43,-125.33 626.65,-132.22"/>
</g>
<!-- Node4&#45;&gt;Node13 -->
<g id="edge21" class="edge">
<title>Node4&#45;&gt;Node13</title>
<path fill="none" stroke="#63b8ff" d="M378.85,-164.72C389.02,-151.92 409.11,-127.73 429.03,-110 441.67,-98.75 457.17,-87.77 469.64,-79.53"/>
<polygon fill="#63b8ff" stroke="#63b8ff" points="471.61,-82.42 478.1,-74.05 467.8,-76.55 471.61,-82.42"/>
</g>
<!-- Node17 -->
<g id="node17" class="node">
<title>Node17</title>
<g id="a_node17"><a xlink:href="Float_8hpp.html" target="_top" xlink:title=" ">
<polygon fill="white" stroke="#666666" points="413.53,-74 322.53,-74 322.53,-55 413.53,-55 413.53,-74"/>
<text text-anchor="middle" x="368.03" y="-62" font-family="Helvetica,sans-Serif" font-size="10.00">math/Float.hpp</text>
</a>
</g>
</g>
<!-- Node4&#45;&gt;Node17 -->
<g id="edge16" class="edge">
<title>Node4&#45;&gt;Node17</title>
<path fill="none" stroke="#63b8ff" d="M371.7,-164.66C371.05,-147.17 369.59,-107.8 368.72,-84.27"/>
<polygon fill="#63b8ff" stroke="#63b8ff" points="372.22,-84.02 368.35,-74.16 365.22,-84.28 372.22,-84.02"/>
</g>
<!-- Node18 -->
<g id="node18" class="node">
<title>Node18</title>
<g id="a_node18"><a xlink:href="Complex_8hpp.html" target="_top" xlink:title=" ">
<polygon fill="white" stroke="#666666" points="344.03,-129 234.03,-129 234.03,-110 344.03,-110 344.03,-129"/>
<text text-anchor="middle" x="289.03" y="-117" font-family="Helvetica,sans-Serif" font-size="10.00">math/Complex.hpp</text>
</a>
</g>
</g>
<!-- Node4&#45;&gt;Node18 -->
<g id="edge18" class="edge">
<title>Node4&#45;&gt;Node18</title>
<path fill="none" stroke="#63b8ff" d="M358.69,-164.98C345.94,-156.84 326.47,-144.41 311.36,-134.76"/>
<polygon fill="#63b8ff" stroke="#63b8ff" points="312.92,-131.6 302.6,-129.17 309.15,-137.5 312.92,-131.6"/>
</g>
<!-- Node20 -->
<g id="node20" class="node">
<title>Node20</title>
<g id="a_node20"><a xlink:title=" ">
<polygon fill="#e0e0e0" stroke="#999999" points="906.03,-74 868.03,-74 868.03,-55 906.03,-55 906.03,-74"/>
<text text-anchor="middle" x="887.03" y="-62" font-family="Helvetica,sans-Serif" font-size="10.00">map</text>
</a>
</g>
</g>
<!-- Node4&#45;&gt;Node20 -->
<g id="edge22" class="edge">
<title>Node4&#45;&gt;Node20</title>
<path fill="none" stroke="#63b8ff" d="M402.64,-171.98C463.65,-168.42 604.41,-157.59 719.03,-129 769.75,-116.35 826.09,-93.03 858.94,-78.45"/>
<polygon fill="#63b8ff" stroke="#63b8ff" points="860.65,-81.51 868.34,-74.22 857.79,-75.13 860.65,-81.51"/>
</g>
<!-- Node4&#45;&gt;Node21 -->
<g id="edge23" class="edge">
<title>Node4&#45;&gt;Node21</title>
<path fill="none" stroke="#63b8ff" d="M341.45,-172.27C308.49,-169.32 256.53,-159.71 225.03,-129 212.96,-117.23 207.82,-98.39 205.64,-84.28"/>
<polygon fill="#63b8ff" stroke="#63b8ff" points="209.1,-83.72 204.45,-74.2 202.15,-84.55 209.1,-83.72"/>
</g>
<!-- Node4&#45;&gt;Node22 -->
<g id="edge24" class="edge">
<title>Node4&#45;&gt;Node22</title>
<path fill="none" stroke="#63b8ff" d="M341.35,-168.32C288.1,-159.33 177.95,-140.74 111.77,-129.57"/>
<polygon fill="#63b8ff" stroke="#63b8ff" points="111.99,-126.06 101.55,-127.85 110.82,-132.96 111.99,-126.06"/>
</g>
<!-- Node4&#45;&gt;Node25 -->
<g id="edge27" class="edge">
<title>Node4&#45;&gt;Node25</title>
<path fill="none" stroke="#63b8ff" d="M390.99,-164.98C410.05,-156.42 439.69,-143.11 461.57,-133.28"/>
<polygon fill="#63b8ff" stroke="#63b8ff" points="463.04,-136.46 470.72,-129.17 460.17,-130.07 463.04,-136.46"/>
</g>
<!-- Node6 -->
<g id="node6" class="node">
<title>Node6</title>
<g id="a_node6"><a xlink:href="Time_8hpp.html" target="_top" xlink:title=" ">
<polygon fill="white" stroke="#666666" points="776.53,-74 695.53,-74 695.53,-55 776.53,-55 776.53,-74"/>
<text text-anchor="middle" x="736.03" y="-62" font-family="Helvetica,sans-Serif" font-size="10.00">util/Time.hpp</text>
</a>
</g>
</g>
<!-- Node5&#45;&gt;Node6 -->
<g id="edge5" class="edge">
<title>Node5&#45;&gt;Node6</title>
<path fill="none" stroke="#63b8ff" d="M683.15,-109.98C692.46,-102.15 706.5,-90.34 717.77,-80.86"/>
<polygon fill="#63b8ff" stroke="#63b8ff" points="720.32,-83.29 725.72,-74.17 715.82,-77.93 720.32,-83.29"/>
</g>
<!-- Node5&#45;&gt;Node13 -->
<g id="edge12" class="edge">
<title>Node5&#45;&gt;Node13</title>
<path fill="none" stroke="#63b8ff" d="M643.95,-109.98C611.16,-100.39 558.02,-84.82 524.07,-74.88"/>
<polygon fill="#63b8ff" stroke="#63b8ff" points="524.77,-71.44 514.19,-71.99 522.8,-78.16 524.77,-71.44"/>
</g>
<!-- Node14 -->
<g id="node14" class="node">
<title>Node14</title>
<g id="a_node14"><a xlink:title=" ">
<polygon fill="#e0e0e0" stroke="#999999" points="592.03,-74 532.03,-74 532.03,-55 592.03,-55 592.03,-74"/>
<text text-anchor="middle" x="562.03" y="-62" font-family="Helvetica,sans-Serif" font-size="10.00">iostream</text>
</a>
</g>
</g>
<!-- Node5&#45;&gt;Node14 -->
<g id="edge13" class="edge">
<title>Node5&#45;&gt;Node14</title>
<path fill="none" stroke="#63b8ff" d="M655.19,-109.98C637.42,-101.5 609.88,-88.35 589.35,-78.54"/>
<polygon fill="#63b8ff" stroke="#63b8ff" points="590.72,-75.32 580.19,-74.17 587.7,-81.64 590.72,-75.32"/>
</g>
<!-- Node15 -->
<g id="node15" class="node">
<title>Node15</title>
<g id="a_node15"><a xlink:title=" ">
<polygon fill="#e0e0e0" stroke="#999999" points="677.53,-74 610.53,-74 610.53,-55 677.53,-55 677.53,-74"/>
<text text-anchor="middle" x="644.03" y="-62" font-family="Helvetica,sans-Serif" font-size="10.00">streambuf</text>
</a>
</g>
</g>
<!-- Node5&#45;&gt;Node15 -->
<g id="edge14" class="edge">
<title>Node5&#45;&gt;Node15</title>
<path fill="none" stroke="#63b8ff" d="M668.24,-109.75C664.27,-102.49 658.5,-91.95 653.59,-82.98"/>
<polygon fill="#63b8ff" stroke="#63b8ff" points="656.6,-81.18 648.73,-74.09 650.46,-84.54 656.6,-81.18"/>
</g>
<!-- Node16 -->
<g id="node16" class="node">
<title>Node16</title>
<g id="a_node16"><a xlink:title=" ">
<polygon fill="#e0e0e0" stroke="#999999" points="849.53,-74 794.53,-74 794.53,-55 849.53,-55 849.53,-74"/>
<text text-anchor="middle" x="822.03" y="-62" font-family="Helvetica,sans-Serif" font-size="10.00">fstream</text>
</a>
</g>
</g>
<!-- Node5&#45;&gt;Node16 -->
<g id="edge15" class="edge">
<title>Node5&#45;&gt;Node16</title>
<path fill="none" stroke="#63b8ff" d="M696.97,-109.98C721.58,-101.23 760.15,-87.51 787.94,-77.62"/>
<polygon fill="#63b8ff" stroke="#63b8ff" points="789.4,-80.82 797.65,-74.17 787.06,-74.22 789.4,-80.82"/>
</g>
<!-- Node7 -->
<g id="node7" class="node">
<title>Node7</title>
<g id="a_node7"><a xlink:title=" ">
<polygon fill="#e0e0e0" stroke="#999999" points="758.03,-19 714.03,-19 714.03,0 758.03,0 758.03,-19"/>
<text text-anchor="middle" x="736.03" y="-7" font-family="Helvetica,sans-Serif" font-size="10.00">ctime</text>
</a>
</g>
</g>
<!-- Node6&#45;&gt;Node7 -->
<g id="edge6" class="edge">
<title>Node6&#45;&gt;Node7</title>
<path fill="none" stroke="#63b8ff" d="M736.03,-54.75C736.03,-47.8 736.03,-37.85 736.03,-29.13"/>
<polygon fill="#63b8ff" stroke="#63b8ff" points="739.53,-29.09 736.03,-19.09 732.53,-29.09 739.53,-29.09"/>
</g>
<!-- Node8 -->
<g id="node8" class="node">
<title>Node8</title>
<g id="a_node8"><a xlink:title=" ">
<polygon fill="#e0e0e0" stroke="#999999" points="1225.03,-19 1175.03,-19 1175.03,0 1225.03,0 1225.03,-19"/>
<text text-anchor="middle" x="1200.03" y="-7" font-family="Helvetica,sans-Serif" font-size="10.00">cstdint</text>
</a>
</g>
</g>
<!-- Node6&#45;&gt;Node8 -->
<g id="edge7" class="edge">
<title>Node6&#45;&gt;Node8</title>
<path fill="none" stroke="#63b8ff" d="M776.65,-56.38C779.82,-55.89 782.97,-55.42 786.03,-55 925.65,-35.65 1092.76,-19.96 1164.48,-13.58"/>
<polygon fill="#63b8ff" stroke="#63b8ff" points="1165.11,-17.04 1174.76,-12.67 1164.49,-10.07 1165.11,-17.04"/>
</g>
<!-- Node9 -->
<g id="node9" class="node">
<title>Node9</title>
<g id="a_node9"><a xlink:title=" ">
<polygon fill="#e0e0e0" stroke="#999999" points="452.53,-19 395.53,-19 395.53,0 452.53,0 452.53,-19"/>
<text text-anchor="middle" x="424.03" y="-7" font-family="Helvetica,sans-Serif" font-size="10.00">ostream</text>
</a>
</g>
</g>
<!-- Node6&#45;&gt;Node9 -->
<g id="edge8" class="edge">
<title>Node6&#45;&gt;Node9</title>
<path fill="none" stroke="#63b8ff" d="M695.37,-56.59C692.21,-56.05 689.07,-55.52 686.03,-55 606.66,-41.51 513.78,-25.74 462.67,-17.06"/>
<polygon fill="#63b8ff" stroke="#63b8ff" points="463.16,-13.59 452.72,-15.37 461.99,-20.5 463.16,-13.59"/>
</g>
<!-- Node10 -->
<g id="node10" class="node">
<title>Node10</title>
<g id="a_node10"><a xlink:title=" ">
<polygon fill="#e0e0e0" stroke="#999999" points="1498.03,-19 1442.03,-19 1442.03,0 1498.03,0 1498.03,-19"/>
<text text-anchor="middle" x="1470.03" y="-7" font-family="Helvetica,sans-Serif" font-size="10.00">iomanip</text>
</a>
</g>
</g>
<!-- Node6&#45;&gt;Node10 -->
<g id="edge9" class="edge">
<title>Node6&#45;&gt;Node10</title>
<path fill="none" stroke="#63b8ff" d="M776.64,-56.24C779.81,-55.78 782.97,-55.36 786.03,-55 1031.13,-26.27 1327.98,-14.89 1431.9,-11.6"/>
<polygon fill="#63b8ff" stroke="#63b8ff" points="1432.03,-15.09 1441.92,-11.29 1431.81,-8.1 1432.03,-15.09"/>
</g>
<!-- Node6&#45;&gt;Node11 -->
<g id="edge10" class="edge">
<title>Node6&#45;&gt;Node11</title>
<path fill="none" stroke="#63b8ff" d="M707.11,-54.98C676.49,-45.97 628,-31.69 594.25,-21.75"/>
<polygon fill="#63b8ff" stroke="#63b8ff" points="594.86,-18.29 584.28,-18.82 592.89,-25 594.86,-18.29"/>
</g>
<!-- Node12 -->
<g id="node12" class="node">
<title>Node12</title>
<g id="a_node12"><a xlink:title=" ">
<polygon fill="#e0e0e0" stroke="#999999" points="1663.53,-19 1616.53,-19 1616.53,0 1663.53,0 1663.53,-19"/>
<text text-anchor="middle" x="1640.03" y="-7" font-family="Helvetica,sans-Serif" font-size="10.00">cmath</text>
</a>
</g>
</g>
<!-- Node6&#45;&gt;Node12 -->
<g id="edge11" class="edge">
<title>Node6&#45;&gt;Node12</title>
<path fill="none" stroke="#63b8ff" d="M776.63,-56.18C779.8,-55.74 782.96,-55.34 786.03,-55 1104.96,-20.05 1186.7,-37.23 1507.03,-19 1540.88,-17.07 1579.56,-14.57 1606.44,-12.78"/>
<polygon fill="#63b8ff" stroke="#63b8ff" points="1606.74,-16.26 1616.49,-12.1 1606.28,-9.28 1606.74,-16.26"/>
</g>
<!-- Node17&#45;&gt;Node9 -->
<g id="edge17" class="edge">
<title>Node17&#45;&gt;Node9</title>
<path fill="none" stroke="#63b8ff" d="M377.02,-54.98C385.22,-47.23 397.53,-35.58 407.5,-26.14"/>
<polygon fill="#63b8ff" stroke="#63b8ff" points="410.01,-28.59 414.87,-19.17 405.2,-23.5 410.01,-28.59"/>
</g>
<!-- Node18&#45;&gt;Node17 -->
<g id="edge19" class="edge">
<title>Node18&#45;&gt;Node17</title>
<path fill="none" stroke="#63b8ff" d="M301.72,-109.98C313.86,-101.84 332.38,-89.41 346.77,-79.76"/>
<polygon fill="#63b8ff" stroke="#63b8ff" points="348.75,-82.65 355.1,-74.17 344.85,-76.84 348.75,-82.65"/>
</g>
<!-- Node19 -->
<g id="node19" class="node">
<title>Node19</title>
<g id="a_node19"><a xlink:title=" ">
<polygon fill="#e0e0e0" stroke="#999999" points="304.53,-74 245.53,-74 245.53,-55 304.53,-55 304.53,-74"/>
<text text-anchor="middle" x="275.03" y="-62" font-family="Helvetica,sans-Serif" font-size="10.00">complex</text>
</a>
</g>
</g>
<!-- Node18&#45;&gt;Node19 -->
<g id="edge20" class="edge">
<title>Node18&#45;&gt;Node19</title>
<path fill="none" stroke="#63b8ff" d="M286.72,-109.75C284.86,-102.72 282.19,-92.62 279.87,-83.84"/>
<polygon fill="#63b8ff" stroke="#63b8ff" points="283.23,-82.86 277.3,-74.09 276.47,-84.65 283.23,-82.86"/>
</g>
<!-- Node23 -->
<g id="node23" class="node">
<title>Node23</title>
<g id="a_node23"><a xlink:href="CTF_8hpp.html" target="_top" xlink:title=" ">
<polygon fill="white" stroke="#666666" points="128.03,-74 54.03,-74 54.03,-55 128.03,-55 128.03,-74"/>
<text text-anchor="middle" x="91.03" y="-62" font-family="Helvetica,sans-Serif" font-size="10.00">util/CTF.hpp</text>
</a>
</g>
</g>
<!-- Node22&#45;&gt;Node23 -->
<g id="edge25" class="edge">
<title>Node22&#45;&gt;Node23</title>
<path fill="none" stroke="#63b8ff" d="M63.48,-109.75C68.04,-102.42 74.7,-91.73 80.32,-82.7"/>
<polygon fill="#63b8ff" stroke="#63b8ff" points="83.36,-84.43 85.68,-74.09 77.42,-80.73 83.36,-84.43"/>
</g>
<!-- Node24 -->
<g id="node24" class="node">
<title>Node24</title>
<g id="a_node24"><a xlink:title=" ">
<polygon fill="#e0e0e0" stroke="#999999" points="116.03,-19 66.03,-19 66.03,0 116.03,0 116.03,-19"/>
<text text-anchor="middle" x="91.03" y="-7" font-family="Helvetica,sans-Serif" font-size="10.00">ctf.hpp</text>
</a>
</g>
</g>
<!-- Node23&#45;&gt;Node24 -->
<g id="edge26" class="edge">
<title>Node23&#45;&gt;Node24</title>
<path fill="none" stroke="#63b8ff" d="M91.03,-54.75C91.03,-47.8 91.03,-37.85 91.03,-29.13"/>
<polygon fill="#63b8ff" stroke="#63b8ff" points="94.53,-29.09 91.03,-19.09 87.53,-29.09 94.53,-29.09"/>
</g>
<!-- Node25&#45;&gt;Node11 -->
<g id="edge29" class="edge">
<title>Node25&#45;&gt;Node11</title>
<path fill="none" stroke="#63b8ff" d="M480.78,-109.9C468.41,-97.32 449.32,-73.41 461.03,-55 473.54,-35.32 497.3,-24.19 517.93,-17.99"/>
<polygon fill="#63b8ff" stroke="#63b8ff" points="519.01,-21.32 527.74,-15.32 517.17,-14.57 519.01,-21.32"/>
</g>
<!-- Node25&#45;&gt;Node13 -->
<g id="edge28" class="edge">
<title>Node25&#45;&gt;Node13</title>
<path fill="none" stroke="#63b8ff" d="M490.36,-109.75C490.62,-102.8 491,-92.85 491.32,-84.13"/>
<polygon fill="#63b8ff" stroke="#63b8ff" points="494.82,-84.21 491.7,-74.09 487.83,-83.95 494.82,-84.21"/>
</g>
<!-- Node25&#45;&gt;Node14 -->
<g id="edge30" class="edge">
<title>Node25&#45;&gt;Node14</title>
<path fill="none" stroke="#63b8ff" d="M501.59,-109.98C512.45,-102 528.91,-89.88 541.91,-80.31"/>
<polygon fill="#63b8ff" stroke="#63b8ff" points="544.27,-82.92 550.25,-74.17 540.12,-77.28 544.27,-82.92"/>
</g>
<!-- Node26&#45;&gt;Node6 -->
<g id="edge38" class="edge">
<title>Node26&#45;&gt;Node6</title>
<path fill="none" stroke="#63b8ff" d="M683.35,-219.99C694.54,-212.09 709.94,-199.26 718.03,-184 735.01,-151.93 737.21,-108.57 736.88,-84.18"/>
<polygon fill="#63b8ff" stroke="#63b8ff" points="740.38,-84.03 736.59,-74.13 733.38,-84.23 740.38,-84.03"/>
</g>
<!-- Node26&#45;&gt;Node23 -->
<g id="edge39" class="edge">
<title>Node26&#45;&gt;Node23</title>
<path fill="none" stroke="#63b8ff" d="M636.75,-227.33C575.39,-224.48 440.76,-214.94 332.03,-184 274.82,-167.72 263.4,-155.24 210.03,-129 176.78,-112.66 139.18,-92.26 115.3,-79.07"/>
<polygon fill="#63b8ff" stroke="#63b8ff" points="116.7,-75.84 106.26,-74.05 113.31,-81.96 116.7,-75.84"/>
</g>
<!-- Node27 -->
<g id="node27" class="node">
<title>Node27</title>
<g id="a_node27"><a xlink:href="Options_8hpp.html" target="_top" xlink:title=" ">
<polygon fill="white" stroke="#666666" points="709.53,-184 634.53,-184 634.53,-165 709.53,-165 709.53,-184"/>
<text text-anchor="middle" x="672.03" y="-172" font-family="Helvetica,sans-Serif" font-size="10.00">Options.hpp</text>
</a>
</g>
</g>
<!-- Node26&#45;&gt;Node27 -->
<g id="edge40" class="edge">
<title>Node26&#45;&gt;Node27</title>
<path fill="none" stroke="#63b8ff" d="M670.36,-219.75C670.62,-212.8 671,-202.85 671.32,-194.13"/>
<polygon fill="#63b8ff" stroke="#63b8ff" points="674.82,-194.21 671.7,-184.09 667.83,-193.95 674.82,-194.21"/>
</g>
<!-- Node27&#45;&gt;Node13 -->
<g id="edge41" class="edge">
<title>Node27&#45;&gt;Node13</title>
<path fill="none" stroke="#63b8ff" d="M661.33,-164.84C645.18,-151.98 613.31,-127.47 584.03,-110 563.88,-97.98 540,-86.51 521.62,-78.22"/>
<polygon fill="#63b8ff" stroke="#63b8ff" points="522.85,-74.94 512.29,-74.08 520.01,-81.34 522.85,-74.94"/>
</g>
<!-- Node28 -->
<g id="node28" class="node">
<title>Node28</title>
<g id="a_node28"><a xlink:href="CLI11_8hpp.html" target="_top" xlink:title=" ">
<polygon fill="white" stroke="#666666" points="1407.53,-129 1308.53,-129 1308.53,-110 1407.53,-110 1407.53,-129"/>
<text text-anchor="middle" x="1358.03" y="-117" font-family="Helvetica,sans-Serif" font-size="10.00">extern/CLI11.hpp</text>
</a>
</g>
</g>
<!-- Node27&#45;&gt;Node28 -->
<g id="edge42" class="edge">
<title>Node27&#45;&gt;Node28</title>
<path fill="none" stroke="#63b8ff" d="M709.89,-170.57C823.2,-161.82 1160.31,-135.78 1298.22,-125.12"/>
<polygon fill="#63b8ff" stroke="#63b8ff" points="1298.49,-128.61 1308.19,-124.35 1297.95,-121.63 1298.49,-128.61"/>
</g>
<!-- Node28&#45;&gt;Node8 -->
<g id="edge56" class="edge">
<title>Node28&#45;&gt;Node8</title>
<path fill="none" stroke="#63b8ff" d="M1407.71,-118.25C1481.61,-116.7 1615.05,-108.99 1645.03,-74 1650.52,-67.59 1650.69,-61.26 1645.03,-55 1617.69,-24.8 1336.14,-14.21 1235.53,-11.37"/>
<polygon fill="#63b8ff" stroke="#63b8ff" points="1235.36,-7.87 1225.27,-11.09 1235.17,-14.86 1235.36,-7.87"/>
</g>
<!-- Node28&#45;&gt;Node10 -->
<g id="edge52" class="edge">
<title>Node28&#45;&gt;Node10</title>
<path fill="none" stroke="#63b8ff" d="M1407.73,-119.17C1488.72,-119.07 1643.59,-113.56 1678.03,-74 1683.57,-67.63 1683.34,-61.57 1678.03,-55 1657.13,-29.16 1562.79,-17.66 1508.61,-13.1"/>
<polygon fill="#63b8ff" stroke="#63b8ff" points="1508.59,-9.59 1498.35,-12.28 1508.04,-16.57 1508.59,-9.59"/>
</g>
<!-- Node28&#45;&gt;Node11 -->
<g id="edge54" class="edge">
<title>Node28&#45;&gt;Node11</title>
<path fill="none" stroke="#63b8ff" d="M1308.3,-118.63C1230.8,-117.61 1077.2,-110.59 953.03,-74 934.91,-68.66 933.1,-60.46 915.03,-55 855.62,-37.05 673.99,-20.29 594.25,-13.59"/>
<polygon fill="#63b8ff" stroke="#63b8ff" points="594.4,-10.09 584.14,-12.74 593.82,-17.06 594.4,-10.09"/>
</g>
<!-- Node28&#45;&gt;Node12 -->
<g id="edge45" class="edge">
<title>Node28&#45;&gt;Node12</title>
<path fill="none" stroke="#63b8ff" d="M1407.73,-115.48C1496.65,-109.58 1675.46,-95.19 1694.03,-74 1708.82,-57.12 1685.88,-37.4 1665.49,-24.46"/>
<polygon fill="#63b8ff" stroke="#63b8ff" points="1667.11,-21.35 1656.74,-19.2 1663.5,-27.35 1667.11,-21.35"/>
</g>
<!-- Node28&#45;&gt;Node13 -->
<g id="edge44" class="edge">
<title>Node28&#45;&gt;Node13</title>
<path fill="none" stroke="#63b8ff" d="M1308.46,-117.25C1156.02,-113.2 694.71,-99.28 524.33,-73.78"/>
<polygon fill="#63b8ff" stroke="#63b8ff" points="524.67,-70.3 514.25,-72.21 523.59,-77.21 524.67,-70.3"/>
</g>
<!-- Node28&#45;&gt;Node14 -->
<g id="edge57" class="edge">
<title>Node28&#45;&gt;Node14</title>
<path fill="none" stroke="#63b8ff" d="M1308.17,-118.25C1188.14,-117.07 873.59,-110.57 602.22,-73.93"/>
<polygon fill="#63b8ff" stroke="#63b8ff" points="602.56,-70.44 592.18,-72.56 601.61,-77.38 602.56,-70.44"/>
</g>
<!-- Node28&#45;&gt;Node16 -->
<g id="edge49" class="edge">
<title>Node28&#45;&gt;Node16</title>
<path fill="none" stroke="#63b8ff" d="M1308.17,-116.32C1219.81,-111.95 1029.85,-100.36 859.96,-73.91"/>
<polygon fill="#63b8ff" stroke="#63b8ff" points="860.25,-70.42 849.83,-72.32 859.16,-77.33 860.25,-70.42"/>
</g>
<!-- Node28&#45;&gt;Node20 -->
<g id="edge48" class="edge">
<title>Node28&#45;&gt;Node20</title>
<path fill="none" stroke="#63b8ff" d="M1308.43,-115.9C1226.88,-111.09 1059.6,-98.92 920.03,-74 918.75,-73.77 917.45,-73.52 916.14,-73.25"/>
<polygon fill="#63b8ff" stroke="#63b8ff" points="916.65,-69.78 906.11,-70.94 915.07,-76.6 916.65,-69.78"/>
</g>
<!-- Node28&#45;&gt;Node21 -->
<g id="edge62" class="edge">
<title>Node28&#45;&gt;Node21</title>
<path fill="none" stroke="#63b8ff" d="M1308.36,-117.98C1122.45,-115.82 466.94,-106.15 237.61,-73.86"/>
<polygon fill="#63b8ff" stroke="#63b8ff" points="238.07,-70.39 227.67,-72.4 237.06,-77.31 238.07,-70.39"/>
</g>
<!-- Node29 -->
<g id="node29" class="node">
<title>Node29</title>
<g id="a_node29"><a xlink:title=" ">
<polygon fill="#e0e0e0" stroke="#999999" points="1826.03,-74 1768.03,-74 1768.03,-55 1826.03,-55 1826.03,-74"/>
<text text-anchor="middle" x="1797.03" y="-62" font-family="Helvetica,sans-Serif" font-size="10.00">memory</text>
</a>
</g>
</g>
<!-- Node28&#45;&gt;Node29 -->
<g id="edge43" class="edge">
<title>Node28&#45;&gt;Node29</title>
<path fill="none" stroke="#63b8ff" d="M1407.59,-114.27C1482.75,-107.54 1629.94,-93.2 1754.03,-74 1755.3,-73.8 1756.58,-73.6 1757.88,-73.38"/>
<polygon fill="#63b8ff" stroke="#63b8ff" points="1758.71,-76.79 1767.94,-71.59 1757.48,-69.9 1758.71,-76.79"/>
</g>
<!-- Node30 -->
<g id="node30" class="node">
<title>Node30</title>
<g id="a_node30"><a xlink:title=" ">
<polygon fill="#e0e0e0" stroke="#999999" points="1909.53,-74 1844.53,-74 1844.53,-55 1909.53,-55 1909.53,-74"/>
<text text-anchor="middle" x="1877.03" y="-62" font-family="Helvetica,sans-Serif" font-size="10.00">functional</text>
</a>
</g>
</g>
<!-- Node28&#45;&gt;Node30 -->
<g id="edge46" class="edge">
<title>Node28&#45;&gt;Node30</title>
<path fill="none" stroke="#63b8ff" d="M1407.68,-115.62C1492.83,-110.3 1672.36,-97.41 1833.95,-74"/>
<polygon fill="#63b8ff" stroke="#63b8ff" points="1834.68,-77.43 1844.07,-72.52 1833.67,-70.5 1834.68,-77.43"/>
</g>
<!-- Node31 -->
<g id="node31" class="node">
<title>Node31</title>
<g id="a_node31"><a xlink:title=" ">
<polygon fill="#e0e0e0" stroke="#999999" points="1984.03,-74 1928.03,-74 1928.03,-55 1984.03,-55 1984.03,-74"/>
<text text-anchor="middle" x="1956.03" y="-62" font-family="Helvetica,sans-Serif" font-size="10.00">numeric</text>
</a>
</g>
</g>
<!-- Node28&#45;&gt;Node31 -->
<g id="edge47" class="edge">
<title>Node28&#45;&gt;Node31</title>
<path fill="none" stroke="#63b8ff" d="M1407.84,-117C1504.43,-113.56 1724.01,-103.15 1917.75,-73.97"/>
<polygon fill="#63b8ff" stroke="#63b8ff" points="1918.47,-77.4 1927.83,-72.43 1917.41,-70.48 1918.47,-77.4"/>
</g>
<!-- Node32 -->
<g id="node32" class="node">
<title>Node32</title>
<g id="a_node32"><a xlink:title=" ">
<polygon fill="#e0e0e0" stroke="#999999" points="2043.53,-74 2002.53,-74 2002.53,-55 2043.53,-55 2043.53,-74"/>
<text text-anchor="middle" x="2023.03" y="-62" font-family="Helvetica,sans-Serif" font-size="10.00">tuple</text>
</a>
</g>
</g>
<!-- Node28&#45;&gt;Node32 -->
<g id="edge50" class="edge">
<title>Node28&#45;&gt;Node32</title>
<path fill="none" stroke="#63b8ff" d="M1407.85,-118.48C1513.92,-117.7 1769.84,-111.85 1992.59,-73.64"/>
<polygon fill="#63b8ff" stroke="#63b8ff" points="1993.25,-77.08 2002.5,-71.92 1992.05,-70.19 1993.25,-77.08"/>
</g>
<!-- Node33 -->
<g id="node33" class="node">
<title>Node33</title>
<g id="a_node33"><a xlink:title=" ">
<polygon fill="#e0e0e0" stroke="#999999" points="2106.53,-74 2061.53,-74 2061.53,-55 2106.53,-55 2106.53,-74"/>
<text text-anchor="middle" x="2084.03" y="-62" font-family="Helvetica,sans-Serif" font-size="10.00">utility</text>
</a>
</g>
</g>
<!-- Node28&#45;&gt;Node33 -->
<g id="edge51" class="edge">
<title>Node28&#45;&gt;Node33</title>
<path fill="none" stroke="#63b8ff" d="M1407.72,-118.77C1520.75,-118.66 1805.7,-114.18 2051.27,-73.95"/>
<polygon fill="#63b8ff" stroke="#63b8ff" points="2052.17,-77.35 2061.46,-72.26 2051.02,-70.45 2052.17,-77.35"/>
</g>
<!-- Node34 -->
<g id="node34" class="node">
<title>Node34</title>
<g id="a_node34"><a xlink:title=" ">
<polygon fill="#e0e0e0" stroke="#999999" points="2171.03,-74 2125.03,-74 2125.03,-55 2171.03,-55 2171.03,-74"/>
<text text-anchor="middle" x="2148.03" y="-62" font-family="Helvetica,sans-Serif" font-size="10.00">locale</text>
</a>
</g>
</g>
<!-- Node28&#45;&gt;Node34 -->
<g id="edge53" class="edge">
<title>Node28&#45;&gt;Node34</title>
<path fill="none" stroke="#63b8ff" d="M1407.62,-119.02C1527.72,-119.54 1843.64,-116.53 2114.7,-73.87"/>
<polygon fill="#63b8ff" stroke="#63b8ff" points="2115.4,-77.3 2124.72,-72.27 2114.3,-70.39 2115.4,-77.3"/>
</g>
<!-- Node35 -->
<g id="node35" class="node">
<title>Node35</title>
<g id="a_node35"><a xlink:title=" ">
<polygon fill="#e0e0e0" stroke="#999999" points="1026.03,-74 962.03,-74 962.03,-55 1026.03,-55 1026.03,-74"/>
<text text-anchor="middle" x="994.03" y="-62" font-family="Helvetica,sans-Serif" font-size="10.00">algorithm</text>
</a>
</g>
</g>
<!-- Node28&#45;&gt;Node35 -->
<g id="edge55" class="edge">
<title>Node28&#45;&gt;Node35</title>
<path fill="none" stroke="#63b8ff" d="M1308.34,-112.71C1246.77,-105.3 1138.43,-91.5 1036.1,-74.08"/>
<polygon fill="#63b8ff" stroke="#63b8ff" points="1036.66,-70.63 1026.22,-72.39 1035.48,-77.53 1036.66,-70.63"/>
</g>
<!-- Node36 -->
<g id="node36" class="node">
<title>Node36</title>
<g id="a_node36"><a xlink:title=" ">
<polygon fill="#e0e0e0" stroke="#999999" points="1076.03,-74 1044.03,-74 1044.03,-55 1076.03,-55 1076.03,-74"/>
<text text-anchor="middle" x="1060.03" y="-62" font-family="Helvetica,sans-Serif" font-size="10.00">set</text>
</a>
</g>
</g>
<!-- Node28&#45;&gt;Node36 -->
<g id="edge58" class="edge">
<title>Node28&#45;&gt;Node36</title>
<path fill="none" stroke="#63b8ff" d="M1308.43,-112.72C1253.56,-105.78 1162.73,-92.7 1086.03,-74 1085.93,-73.98 1085.82,-73.95 1085.72,-73.93"/>
<polygon fill="#63b8ff" stroke="#63b8ff" points="1086.72,-70.57 1076.14,-71.19 1084.8,-77.3 1086.72,-70.57"/>
</g>
<!-- Node37 -->
<g id="node37" class="node">
<title>Node37</title>
<g id="a_node37"><a xlink:title=" ">
<polygon fill="#e0e0e0" stroke="#999999" points="1163.53,-74 1094.53,-74 1094.53,-55 1163.53,-55 1163.53,-74"/>
<text text-anchor="middle" x="1129.03" y="-62" font-family="Helvetica,sans-Serif" font-size="10.00">type_traits</text>
</a>
</g>
</g>
<!-- Node28&#45;&gt;Node37 -->
<g id="edge59" class="edge">
<title>Node28&#45;&gt;Node37</title>
<path fill="none" stroke="#63b8ff" d="M1321.23,-109.98C1281.09,-100.69 1216.81,-85.82 1173.77,-75.86"/>
<polygon fill="#63b8ff" stroke="#63b8ff" points="1174.38,-72.4 1163.85,-73.56 1172.81,-79.22 1174.38,-72.4"/>
</g>
<!-- Node38 -->
<g id="node38" class="node">
<title>Node38</title>
<g id="a_node38"><a xlink:title=" ">
<polygon fill="#e0e0e0" stroke="#999999" points="1234.53,-74 1181.53,-74 1181.53,-55 1234.53,-55 1234.53,-74"/>
<text text-anchor="middle" x="1208.03" y="-62" font-family="Helvetica,sans-Serif" font-size="10.00">iterator</text>
</a>
</g>
</g>
<!-- Node28&#45;&gt;Node38 -->
<g id="edge60" class="edge">
<title>Node28&#45;&gt;Node38</title>
<path fill="none" stroke="#63b8ff" d="M1333.93,-109.98C1309.14,-101.23 1270.32,-87.51 1242.34,-77.62"/>
<polygon fill="#63b8ff" stroke="#63b8ff" points="1243.16,-74.2 1232.57,-74.17 1240.83,-80.8 1243.16,-74.2"/>
</g>
<!-- Node39 -->
<g id="node39" class="node">
<title>Node39</title>
<g id="a_node39"><a xlink:title=" ">
<polygon fill="#e0e0e0" stroke="#999999" points="1317.53,-74 1252.53,-74 1252.53,-55 1317.53,-55 1317.53,-74"/>
<text text-anchor="middle" x="1285.03" y="-62" font-family="Helvetica,sans-Serif" font-size="10.00">stdexcept</text>
</a>
</g>
</g>
<!-- Node28&#45;&gt;Node39 -->
<g id="edge61" class="edge">
<title>Node28&#45;&gt;Node39</title>
<path fill="none" stroke="#63b8ff" d="M1346.3,-109.98C1335.3,-102 1318.61,-89.88 1305.42,-80.31"/>
<polygon fill="#63b8ff" stroke="#63b8ff" points="1307.12,-77.21 1296.97,-74.17 1303,-82.88 1307.12,-77.21"/>
</g>
<!-- Node40 -->
<g id="node40" class="node">
<title>Node40</title>
<g id="a_node40"><a xlink:title=" ">
<polygon fill="#e0e0e0" stroke="#999999" points="1380.03,-74 1336.03,-74 1336.03,-55 1380.03,-55 1380.03,-74"/>
<text text-anchor="middle" x="1358.03" y="-62" font-family="Helvetica,sans-Serif" font-size="10.00">limits</text>
</a>
</g>
</g>
<!-- Node28&#45;&gt;Node40 -->
<g id="edge63" class="edge">
<title>Node28&#45;&gt;Node40</title>
<path fill="none" stroke="#63b8ff" d="M1358.03,-109.75C1358.03,-102.8 1358.03,-92.85 1358.03,-84.13"/>
<polygon fill="#63b8ff" stroke="#63b8ff" points="1361.53,-84.09 1358.03,-74.09 1354.53,-84.09 1361.53,-84.09"/>
</g>
<!-- Node41 -->
<g id="node41" class="node">
<title>Node41</title>
<g id="a_node41"><a xlink:title=" ">
<polygon fill="#e0e0e0" stroke="#999999" points="1463.53,-74 1398.53,-74 1398.53,-55 1463.53,-55 1463.53,-74"/>
<text text-anchor="middle" x="1431.03" y="-62" font-family="Helvetica,sans-Serif" font-size="10.00">exception</text>
</a>
</g>
</g>
<!-- Node28&#45;&gt;Node41 -->
<g id="edge64" class="edge">
<title>Node28&#45;&gt;Node41</title>
<path fill="none" stroke="#63b8ff" d="M1369.76,-109.98C1380.76,-102 1397.45,-89.88 1410.63,-80.31"/>
<polygon fill="#63b8ff" stroke="#63b8ff" points="1413.05,-82.88 1419.08,-74.17 1408.94,-77.21 1413.05,-82.88"/>
</g>
<!-- Node42 -->
<g id="node42" class="node">
<title>Node42</title>
<g id="a_node42"><a xlink:title=" ">
<polygon fill="#e0e0e0" stroke="#999999" points="1546.03,-74 1482.03,-74 1482.03,-55 1546.03,-55 1546.03,-74"/>
<text text-anchor="middle" x="1514.03" y="-62" font-family="Helvetica,sans-Serif" font-size="10.00">sys/stat.h</text>
</a>
</g>
</g>
<!-- Node28&#45;&gt;Node42 -->
<g id="edge65" class="edge">
<title>Node28&#45;&gt;Node42</title>
<path fill="none" stroke="#63b8ff" d="M1383.09,-109.98C1409.05,-101.16 1449.84,-87.31 1478.98,-77.41"/>
<polygon fill="#63b8ff" stroke="#63b8ff" points="1480.42,-80.61 1488.77,-74.08 1478.17,-73.99 1480.42,-80.61"/>
</g>
<!-- Node43 -->
<g id="node43" class="node">
<title>Node43</title>
<g id="a_node43"><a xlink:title=" ">
<polygon fill="#e0e0e0" stroke="#999999" points="1636.03,-74 1564.03,-74 1564.03,-55 1636.03,-55 1636.03,-74"/>
<text text-anchor="middle" x="1600.03" y="-62" font-family="Helvetica,sans-Serif" font-size="10.00">sys/types.h</text>
</a>
</g>
</g>
<!-- Node28&#45;&gt;Node43 -->
<g id="edge66" class="edge">
<title>Node28&#45;&gt;Node43</title>
<path fill="none" stroke="#63b8ff" d="M1396.91,-109.98C1439.76,-100.6 1508.64,-85.52 1554.11,-75.56"/>
<polygon fill="#63b8ff" stroke="#63b8ff" points="1554.99,-78.95 1564.01,-73.39 1553.49,-72.11 1554.99,-78.95"/>
</g>
</g>
</svg>
