<?xml version="1.0" encoding="UTF-8" standalone="no"?>
<!DOCTYPE svg PUBLIC "-//W3C//DTD SVG 1.1//EN"
 "http://www.w3.org/Graphics/SVG/1.1/DTD/svg11.dtd">
<!-- Generated by graphviz version 5.0.1 (0)
 -->
<!-- Title: UegVertexGenerator.cxx Pages: 1 -->
<svg width="2179pt" height="364pt"
 viewBox="0.00 0.00 2178.95 364.00" xmlns="http://www.w3.org/2000/svg" xmlns:xlink="http://www.w3.org/1999/xlink">
<g id="graph0" class="graph" transform="scale(1 1) rotate(0) translate(4 360)">
<title>UegVertexGenerator.cxx</title>
<!-- Node1 -->
<g id="node1" class="node">
<title>Node1</title>
<g id="a_node1"><a xlink:title=" ">
<polygon fill="#bfbfbf" stroke="black" points="537.95,-336.5 537.95,-355.5 673.95,-355.5 673.95,-336.5 537.95,-336.5"/>
<text text-anchor="middle" x="605.95" y="-343.5" font-family="Helvetica,sans-Serif" font-size="10.00">UegVertexGenerator.cxx</text>
</a>
</g>
</g>
<!-- Node2 -->
<g id="node2" class="node">
<title>Node2</title>
<g id="a_node2"><a xlink:href="UegVertexGenerator_8hpp.html" target="_top" xlink:title=" ">
<polygon fill="none" stroke="black" points="306.95,-280.5 306.95,-299.5 498.95,-299.5 498.95,-280.5 306.95,-280.5"/>
<text text-anchor="middle" x="402.95" y="-287.5" font-family="Helvetica,sans-Serif" font-size="10.00">algorithms/UegVertexGenerator.hpp</text>
</a>
</g>
</g>
<!-- Node1&#45;&gt;Node2 -->
<g id="edge1" class="edge">
<title>Node1&#45;&gt;Node2</title>
<path fill="none" stroke="midnightblue" d="M573.78,-336.44C538.89,-327.16 483.06,-312.31 444.78,-302.13"/>
<polygon fill="midnightblue" stroke="midnightblue" points="445.53,-298.7 434.96,-299.52 443.73,-305.47 445.53,-298.7"/>
</g>
<!-- Node5 -->
<g id="node5" class="node">
<title>Node5</title>
<g id="a_node5"><a xlink:href="Log_8hpp.html" target="_top" xlink:title=" ">
<polygon fill="none" stroke="black" points="635.95,-112.5 635.95,-131.5 709.95,-131.5 709.95,-112.5 635.95,-112.5"/>
<text text-anchor="middle" x="672.95" y="-119.5" font-family="Helvetica,sans-Serif" font-size="10.00">util/Log.hpp</text>
</a>
</g>
</g>
<!-- Node1&#45;&gt;Node5 -->
<g id="edge35" class="edge">
<title>Node1&#45;&gt;Node5</title>
<path fill="none" stroke="midnightblue" d="M619.94,-336.48C643.55,-321.24 690.81,-286.86 711.95,-244 726.93,-213.61 730.92,-199.3 717.95,-168 713.03,-156.12 703.28,-145.74 694.11,-137.96"/>
<polygon fill="midnightblue" stroke="midnightblue" points="696.03,-135.01 686.01,-131.56 691.7,-140.51 696.03,-135.01"/>
</g>
<!-- Node22 -->
<g id="node22" class="node">
<title>Node22</title>
<g id="a_node22"><a xlink:href="Tensor_8hpp.html" target="_top" xlink:title=" ">
<polygon fill="none" stroke="black" points="14.45,-112.5 14.45,-131.5 101.45,-131.5 101.45,-112.5 14.45,-112.5"/>
<text text-anchor="middle" x="57.95" y="-119.5" font-family="Helvetica,sans-Serif" font-size="10.00">util/Tensor.hpp</text>
</a>
</g>
</g>
<!-- Node1&#45;&gt;Node22 -->
<g id="edge67" class="edge">
<title>Node1&#45;&gt;Node22</title>
<path fill="none" stroke="midnightblue" d="M537.93,-345.15C445.42,-342.1 278.56,-324.68 165.95,-244 124.36,-214.21 87.41,-165.75 69.45,-140.14"/>
<polygon fill="midnightblue" stroke="midnightblue" points="72.28,-138.06 63.73,-131.81 66.51,-142.03 72.28,-138.06"/>
</g>
<!-- Node25 -->
<g id="node25" class="node">
<title>Node25</title>
<g id="a_node25"><a xlink:href="Exception_8hpp.html" target="_top" xlink:title=" ">
<polygon fill="none" stroke="black" points="437.95,-112.5 437.95,-131.5 541.95,-131.5 541.95,-112.5 437.95,-112.5"/>
<text text-anchor="middle" x="489.95" y="-119.5" font-family="Helvetica,sans-Serif" font-size="10.00">util/Exception.hpp</text>
</a>
</g>
</g>
<!-- Node1&#45;&gt;Node25 -->
<g id="edge36" class="edge">
<title>Node1&#45;&gt;Node25</title>
<path fill="none" stroke="midnightblue" d="M601.4,-336.3C584.19,-303.36 522.81,-185.9 499.25,-140.81"/>
<polygon fill="midnightblue" stroke="midnightblue" points="502.32,-139.13 494.59,-131.88 496.12,-142.37 502.32,-139.13"/>
</g>
<!-- Node26 -->
<g id="node26" class="node">
<title>Node26</title>
<g id="a_node26"><a xlink:href="Sisi4s_8hpp.html" target="_top" xlink:title=" ">
<polygon fill="none" stroke="black" points="636.95,-224.5 636.95,-243.5 702.95,-243.5 702.95,-224.5 636.95,-224.5"/>
<text text-anchor="middle" x="669.95" y="-231.5" font-family="Helvetica,sans-Serif" font-size="10.00">Sisi4s.hpp</text>
</a>
</g>
</g>
<!-- Node1&#45;&gt;Node26 -->
<g id="edge37" class="edge">
<title>Node1&#45;&gt;Node26</title>
<path fill="none" stroke="midnightblue" d="M610.97,-336.37C621.49,-318.3 645.99,-276.18 659.88,-252.31"/>
<polygon fill="midnightblue" stroke="midnightblue" points="662.95,-254 664.95,-243.59 656.9,-250.47 662.95,-254"/>
</g>
<!-- Node3 -->
<g id="node3" class="node">
<title>Node3</title>
<g id="a_node3"><a xlink:href="Algorithm_8hpp.html" target="_top" xlink:title=" ">
<polygon fill="none" stroke="black" points="175.45,-224.5 175.45,-243.5 316.45,-243.5 316.45,-224.5 175.45,-224.5"/>
<text text-anchor="middle" x="245.95" y="-231.5" font-family="Helvetica,sans-Serif" font-size="10.00">algorithms/Algorithm.hpp</text>
</a>
</g>
</g>
<!-- Node2&#45;&gt;Node3 -->
<g id="edge2" class="edge">
<title>Node2&#45;&gt;Node3</title>
<path fill="none" stroke="midnightblue" d="M378.07,-280.44C351.66,-271.36 309.73,-256.94 280.21,-246.78"/>
<polygon fill="midnightblue" stroke="midnightblue" points="281.3,-243.46 270.71,-243.52 279.03,-250.08 281.3,-243.46"/>
</g>
<!-- Node4 -->
<g id="node4" class="node">
<title>Node4</title>
<g id="a_node4"><a xlink:href="Data_8hpp.html" target="_top" xlink:title=" ">
<polygon fill="none" stroke="black" points="341.45,-168.5 341.45,-187.5 402.45,-187.5 402.45,-168.5 341.45,-168.5"/>
<text text-anchor="middle" x="371.95" y="-175.5" font-family="Helvetica,sans-Serif" font-size="10.00">Data.hpp</text>
</a>
</g>
</g>
<!-- Node3&#45;&gt;Node4 -->
<g id="edge3" class="edge">
<title>Node3&#45;&gt;Node4</title>
<path fill="none" stroke="midnightblue" d="M265.91,-224.44C286.56,-215.6 319.01,-201.69 342.58,-191.59"/>
<polygon fill="midnightblue" stroke="midnightblue" points="344.26,-194.67 352.08,-187.52 341.51,-188.24 344.26,-194.67"/>
</g>
<!-- Node11 -->
<g id="node11" class="node">
<title>Node11</title>
<g id="a_node11"><a xlink:title=" ">
<polygon fill="none" stroke="#bfbfbf" points="527.95,-0.5 527.95,-19.5 583.95,-19.5 583.95,-0.5 527.95,-0.5"/>
<text text-anchor="middle" x="555.95" y="-7.5" font-family="Helvetica,sans-Serif" font-size="10.00">sstream</text>
</a>
</g>
</g>
<!-- Node3&#45;&gt;Node11 -->
<g id="edge33" class="edge">
<title>Node3&#45;&gt;Node11</title>
<path fill="none" stroke="midnightblue" d="M175.39,-225.14C118.16,-214.57 41.25,-189.83 4.95,-132 -14.99,-100.23 34.83,-61.77 44.95,-56 125.55,-10.02 368.54,-28.38 460.95,-20 479.53,-18.32 500.15,-16.37 517.42,-14.72"/>
<polygon fill="midnightblue" stroke="midnightblue" points="518.07,-18.18 527.69,-13.74 517.4,-11.21 518.07,-18.18"/>
</g>
<!-- Node13 -->
<g id="node13" class="node">
<title>Node13</title>
<g id="a_node13"><a xlink:title=" ">
<polygon fill="none" stroke="#bfbfbf" points="469.95,-56.5 469.95,-75.5 513.95,-75.5 513.95,-56.5 469.95,-56.5"/>
<text text-anchor="middle" x="491.95" y="-63.5" font-family="Helvetica,sans-Serif" font-size="10.00">string</text>
</a>
</g>
</g>
<!-- Node3&#45;&gt;Node13 -->
<g id="edge31" class="edge">
<title>Node3&#45;&gt;Node13</title>
<path fill="none" stroke="midnightblue" d="M316.61,-232.55C389.59,-227.77 499.82,-207.52 550.95,-132 564.11,-112.57 540.08,-92.99 518.85,-80.48"/>
<polygon fill="midnightblue" stroke="midnightblue" points="520.48,-77.38 510.04,-75.57 517.07,-83.49 520.48,-77.38"/>
</g>
<!-- Node21 -->
<g id="node21" class="node">
<title>Node21</title>
<g id="a_node21"><a xlink:title=" ">
<polygon fill="none" stroke="#bfbfbf" points="180.45,-56.5 180.45,-75.5 227.45,-75.5 227.45,-56.5 180.45,-56.5"/>
<text text-anchor="middle" x="203.95" y="-63.5" font-family="Helvetica,sans-Serif" font-size="10.00">vector</text>
</a>
</g>
</g>
<!-- Node3&#45;&gt;Node21 -->
<g id="edge32" class="edge">
<title>Node3&#45;&gt;Node21</title>
<path fill="none" stroke="midnightblue" d="M241.84,-224.33C233.92,-207.15 216.64,-167.4 208.95,-132 205.6,-116.6 204.42,-98.73 204.03,-85.63"/>
<polygon fill="midnightblue" stroke="midnightblue" points="207.53,-85.46 203.87,-75.52 200.53,-85.58 207.53,-85.46"/>
</g>
<!-- Node3&#45;&gt;Node22 -->
<g id="edge34" class="edge">
<title>Node3&#45;&gt;Node22</title>
<path fill="none" stroke="midnightblue" d="M226.51,-224.46C207.61,-215.92 178.26,-202.08 153.95,-188 126.58,-172.15 96.65,-151.27 77.6,-137.51"/>
<polygon fill="midnightblue" stroke="midnightblue" points="79.57,-134.61 69.43,-131.55 75.45,-140.27 79.57,-134.61"/>
</g>
<!-- Node4&#45;&gt;Node5 -->
<g id="edge4" class="edge">
<title>Node4&#45;&gt;Node5</title>
<path fill="none" stroke="midnightblue" d="M402.47,-171.53C455.13,-162.08 563.43,-142.65 625.83,-131.45"/>
<polygon fill="midnightblue" stroke="midnightblue" points="626.58,-134.87 635.81,-129.66 625.35,-127.98 626.58,-134.87"/>
</g>
<!-- Node4&#45;&gt;Node13 -->
<g id="edge21" class="edge">
<title>Node4&#45;&gt;Node13</title>
<path fill="none" stroke="midnightblue" d="M378.41,-168.44C388.43,-155.45 408.69,-130.33 428.95,-112 441.54,-100.61 457.05,-89.5 469.52,-81.17"/>
<polygon fill="midnightblue" stroke="midnightblue" points="471.54,-84.03 477.99,-75.63 467.71,-78.18 471.54,-84.03"/>
</g>
<!-- Node17 -->
<g id="node17" class="node">
<title>Node17</title>
<g id="a_node17"><a xlink:href="Float_8hpp.html" target="_top" xlink:title=" ">
<polygon fill="none" stroke="black" points="322.45,-56.5 322.45,-75.5 413.45,-75.5 413.45,-56.5 322.45,-56.5"/>
<text text-anchor="middle" x="367.95" y="-63.5" font-family="Helvetica,sans-Serif" font-size="10.00">math/Float.hpp</text>
</a>
</g>
</g>
<!-- Node4&#45;&gt;Node17 -->
<g id="edge16" class="edge">
<title>Node4&#45;&gt;Node17</title>
<path fill="none" stroke="midnightblue" d="M371.63,-168.37C370.99,-150.62 369.5,-109.67 368.63,-85.6"/>
<polygon fill="midnightblue" stroke="midnightblue" points="372.12,-85.46 368.26,-75.59 365.13,-85.71 372.12,-85.46"/>
</g>
<!-- Node18 -->
<g id="node18" class="node">
<title>Node18</title>
<g id="a_node18"><a xlink:href="Complex_8hpp.html" target="_top" xlink:title=" ">
<polygon fill="none" stroke="black" points="233.95,-112.5 233.95,-131.5 343.95,-131.5 343.95,-112.5 233.95,-112.5"/>
<text text-anchor="middle" x="288.95" y="-119.5" font-family="Helvetica,sans-Serif" font-size="10.00">math/Complex.hpp</text>
</a>
</g>
</g>
<!-- Node4&#45;&gt;Node18 -->
<g id="edge18" class="edge">
<title>Node4&#45;&gt;Node18</title>
<path fill="none" stroke="midnightblue" d="M358.61,-168.32C345.79,-159.98 326.16,-147.21 311.01,-137.35"/>
<polygon fill="midnightblue" stroke="midnightblue" points="312.54,-134.17 302.25,-131.65 308.72,-140.04 312.54,-134.17"/>
</g>
<!-- Node20 -->
<g id="node20" class="node">
<title>Node20</title>
<g id="a_node20"><a xlink:title=" ">
<polygon fill="none" stroke="#bfbfbf" points="867.95,-56.5 867.95,-75.5 905.95,-75.5 905.95,-56.5 867.95,-56.5"/>
<text text-anchor="middle" x="886.95" y="-63.5" font-family="Helvetica,sans-Serif" font-size="10.00">map</text>
</a>
</g>
</g>
<!-- Node4&#45;&gt;Node20 -->
<g id="edge22" class="edge">
<title>Node4&#45;&gt;Node20</title>
<path fill="none" stroke="midnightblue" d="M402.58,-175.5C463.63,-171.97 604.44,-161.12 718.95,-132 770.04,-119.01 826.68,-94.94 859.42,-80.02"/>
<polygon fill="midnightblue" stroke="midnightblue" points="861.16,-83.07 868.78,-75.71 858.23,-76.71 861.16,-83.07"/>
</g>
<!-- Node4&#45;&gt;Node21 -->
<g id="edge23" class="edge">
<title>Node4&#45;&gt;Node21</title>
<path fill="none" stroke="midnightblue" d="M341.33,-175.7C308.32,-172.66 256.33,-162.9 224.95,-132 212.68,-119.92 207.57,-100.63 205.45,-86.2"/>
<polygon fill="midnightblue" stroke="midnightblue" points="208.89,-85.45 204.31,-75.9 201.93,-86.22 208.89,-85.45"/>
</g>
<!-- Node4&#45;&gt;Node22 -->
<g id="edge24" class="edge">
<title>Node4&#45;&gt;Node22</title>
<path fill="none" stroke="midnightblue" d="M341.27,-171.72C288.02,-162.57 177.87,-143.62 111.7,-132.24"/>
<polygon fill="midnightblue" stroke="midnightblue" points="111.92,-128.73 101.47,-130.48 110.73,-135.63 111.92,-128.73"/>
</g>
<!-- Node4&#45;&gt;Node25 -->
<g id="edge27" class="edge">
<title>Node4&#45;&gt;Node25</title>
<path fill="none" stroke="midnightblue" d="M390.65,-168.44C409.89,-159.64 440.1,-145.81 462.15,-135.72"/>
<polygon fill="midnightblue" stroke="midnightblue" points="463.7,-138.86 471.34,-131.52 460.79,-132.5 463.7,-138.86"/>
</g>
<!-- Node6 -->
<g id="node6" class="node">
<title>Node6</title>
<g id="a_node6"><a xlink:href="Time_8hpp.html" target="_top" xlink:title=" ">
<polygon fill="none" stroke="black" points="695.45,-56.5 695.45,-75.5 776.45,-75.5 776.45,-56.5 695.45,-56.5"/>
<text text-anchor="middle" x="735.95" y="-63.5" font-family="Helvetica,sans-Serif" font-size="10.00">util/Time.hpp</text>
</a>
</g>
</g>
<!-- Node5&#45;&gt;Node6 -->
<g id="edge5" class="edge">
<title>Node5&#45;&gt;Node6</title>
<path fill="none" stroke="midnightblue" d="M683.07,-112.32C692.48,-104.26 706.69,-92.08 718.02,-82.37"/>
<polygon fill="midnightblue" stroke="midnightblue" points="720.33,-85 725.64,-75.83 715.77,-79.68 720.33,-85"/>
</g>
<!-- Node5&#45;&gt;Node13 -->
<g id="edge12" class="edge">
<title>Node5&#45;&gt;Node13</title>
<path fill="none" stroke="midnightblue" d="M644.27,-112.44C611.57,-102.69 558.24,-86.78 524.14,-76.6"/>
<polygon fill="midnightblue" stroke="midnightblue" points="524.8,-73.15 514.22,-73.64 522.8,-79.86 524.8,-73.15"/>
</g>
<!-- Node14 -->
<g id="node14" class="node">
<title>Node14</title>
<g id="a_node14"><a xlink:title=" ">
<polygon fill="none" stroke="#bfbfbf" points="531.95,-56.5 531.95,-75.5 591.95,-75.5 591.95,-56.5 531.95,-56.5"/>
<text text-anchor="middle" x="561.95" y="-63.5" font-family="Helvetica,sans-Serif" font-size="10.00">iostream</text>
</a>
</g>
</g>
<!-- Node5&#45;&gt;Node14 -->
<g id="edge13" class="edge">
<title>Node5&#45;&gt;Node14</title>
<path fill="none" stroke="midnightblue" d="M655.11,-112.32C637.23,-103.62 609.47,-90.12 588.9,-80.11"/>
<polygon fill="midnightblue" stroke="midnightblue" points="590.26,-76.88 579.74,-75.65 587.2,-83.18 590.26,-76.88"/>
</g>
<!-- Node15 -->
<g id="node15" class="node">
<title>Node15</title>
<g id="a_node15"><a xlink:title=" ">
<polygon fill="none" stroke="#bfbfbf" points="610.45,-56.5 610.45,-75.5 677.45,-75.5 677.45,-56.5 610.45,-56.5"/>
<text text-anchor="middle" x="643.95" y="-63.5" font-family="Helvetica,sans-Serif" font-size="10.00">streambuf</text>
</a>
</g>
</g>
<!-- Node5&#45;&gt;Node15 -->
<g id="edge14" class="edge">
<title>Node5&#45;&gt;Node15</title>
<path fill="none" stroke="midnightblue" d="M668.16,-112.08C664.19,-104.69 658.42,-93.95 653.51,-84.81"/>
<polygon fill="midnightblue" stroke="midnightblue" points="656.46,-82.91 648.65,-75.75 650.3,-86.22 656.46,-82.91"/>
</g>
<!-- Node16 -->
<g id="node16" class="node">
<title>Node16</title>
<g id="a_node16"><a xlink:title=" ">
<polygon fill="none" stroke="#bfbfbf" points="794.45,-56.5 794.45,-75.5 849.45,-75.5 849.45,-56.5 794.45,-56.5"/>
<text text-anchor="middle" x="821.95" y="-63.5" font-family="Helvetica,sans-Serif" font-size="10.00">fstream</text>
</a>
</g>
</g>
<!-- Node5&#45;&gt;Node16 -->
<g id="edge15" class="edge">
<title>Node5&#45;&gt;Node16</title>
<path fill="none" stroke="midnightblue" d="M696.56,-112.44C721.41,-103.44 760.72,-89.19 788.7,-79.05"/>
<polygon fill="midnightblue" stroke="midnightblue" points="790.24,-82.21 798.45,-75.52 787.86,-75.63 790.24,-82.21"/>
</g>
<!-- Node7 -->
<g id="node7" class="node">
<title>Node7</title>
<g id="a_node7"><a xlink:title=" ">
<polygon fill="none" stroke="#bfbfbf" points="713.95,-0.5 713.95,-19.5 757.95,-19.5 757.95,-0.5 713.95,-0.5"/>
<text text-anchor="middle" x="735.95" y="-7.5" font-family="Helvetica,sans-Serif" font-size="10.00">ctime</text>
</a>
</g>
</g>
<!-- Node6&#45;&gt;Node7 -->
<g id="edge6" class="edge">
<title>Node6&#45;&gt;Node7</title>
<path fill="none" stroke="midnightblue" d="M735.95,-56.08C735.95,-49.01 735.95,-38.86 735.95,-29.99"/>
<polygon fill="midnightblue" stroke="midnightblue" points="739.45,-29.75 735.95,-19.75 732.45,-29.75 739.45,-29.75"/>
</g>
<!-- Node8 -->
<g id="node8" class="node">
<title>Node8</title>
<g id="a_node8"><a xlink:title=" ">
<polygon fill="none" stroke="#bfbfbf" points="1174.95,-0.5 1174.95,-19.5 1224.95,-19.5 1224.95,-0.5 1174.95,-0.5"/>
<text text-anchor="middle" x="1199.95" y="-7.5" font-family="Helvetica,sans-Serif" font-size="10.00">cstdint</text>
</a>
</g>
</g>
<!-- Node6&#45;&gt;Node8 -->
<g id="edge7" class="edge">
<title>Node6&#45;&gt;Node8</title>
<path fill="none" stroke="midnightblue" d="M776.57,-57.44C779.74,-56.93 782.89,-56.44 785.95,-56 925.48,-35.88 1092.64,-20.3 1164.39,-14.02"/>
<polygon fill="midnightblue" stroke="midnightblue" points="1165.01,-17.48 1174.67,-13.13 1164.4,-10.51 1165.01,-17.48"/>
</g>
<!-- Node9 -->
<g id="node9" class="node">
<title>Node9</title>
<g id="a_node9"><a xlink:title=" ">
<polygon fill="none" stroke="#bfbfbf" points="395.45,-0.5 395.45,-19.5 452.45,-19.5 452.45,-0.5 395.45,-0.5"/>
<text text-anchor="middle" x="423.95" y="-7.5" font-family="Helvetica,sans-Serif" font-size="10.00">ostream</text>
</a>
</g>
</g>
<!-- Node6&#45;&gt;Node9 -->
<g id="edge8" class="edge">
<title>Node6&#45;&gt;Node9</title>
<path fill="none" stroke="midnightblue" d="M695.29,-57.65C692.13,-57.09 688.99,-56.53 685.95,-56 606.64,-42.05 513.73,-26.21 462.61,-17.54"/>
<polygon fill="midnightblue" stroke="midnightblue" points="463.1,-14.07 452.65,-15.85 461.93,-20.97 463.1,-14.07"/>
</g>
<!-- Node10 -->
<g id="node10" class="node">
<title>Node10</title>
<g id="a_node10"><a xlink:title=" ">
<polygon fill="none" stroke="#bfbfbf" points="1441.95,-0.5 1441.95,-19.5 1497.95,-19.5 1497.95,-0.5 1441.95,-0.5"/>
<text text-anchor="middle" x="1469.95" y="-7.5" font-family="Helvetica,sans-Serif" font-size="10.00">iomanip</text>
</a>
</g>
</g>
<!-- Node6&#45;&gt;Node10 -->
<g id="edge9" class="edge">
<title>Node6&#45;&gt;Node10</title>
<path fill="none" stroke="midnightblue" d="M776.55,-57.3C779.72,-56.82 782.88,-56.38 785.95,-56 912.49,-40.5 1306.33,-19.42 1431.41,-12.96"/>
<polygon fill="midnightblue" stroke="midnightblue" points="1431.84,-16.45 1441.65,-12.44 1431.48,-9.45 1431.84,-16.45"/>
</g>
<!-- Node6&#45;&gt;Node11 -->
<g id="edge10" class="edge">
<title>Node6&#45;&gt;Node11</title>
<path fill="none" stroke="midnightblue" d="M707.43,-56.44C676.79,-47.25 627.95,-32.6 594.05,-22.43"/>
<polygon fill="midnightblue" stroke="midnightblue" points="594.62,-18.95 584.04,-19.43 592.61,-25.65 594.62,-18.95"/>
</g>
<!-- Node12 -->
<g id="node12" class="node">
<title>Node12</title>
<g id="a_node12"><a xlink:title=" ">
<polygon fill="none" stroke="#bfbfbf" points="1616.45,-0.5 1616.45,-19.5 1663.45,-19.5 1663.45,-0.5 1616.45,-0.5"/>
<text text-anchor="middle" x="1639.95" y="-7.5" font-family="Helvetica,sans-Serif" font-size="10.00">cmath</text>
</a>
</g>
</g>
<!-- Node6&#45;&gt;Node12 -->
<g id="edge11" class="edge">
<title>Node6&#45;&gt;Node12</title>
<path fill="none" stroke="midnightblue" d="M776.54,-57.24C779.72,-56.77 782.88,-56.35 785.95,-56 1104.71,-19.51 1186.66,-38.83 1506.95,-20 1540.81,-18.01 1579.48,-15.35 1606.37,-13.44"/>
<polygon fill="midnightblue" stroke="midnightblue" points="1606.69,-16.92 1616.41,-12.72 1606.19,-9.94 1606.69,-16.92"/>
</g>
<!-- Node17&#45;&gt;Node9 -->
<g id="edge17" class="edge">
<title>Node17&#45;&gt;Node9</title>
<path fill="none" stroke="midnightblue" d="M376.95,-56.32C385.14,-48.42 397.45,-36.55 407.42,-26.94"/>
<polygon fill="midnightblue" stroke="midnightblue" points="410.02,-29.29 414.79,-19.83 405.16,-24.26 410.02,-29.29"/>
</g>
<!-- Node18&#45;&gt;Node17 -->
<g id="edge19" class="edge">
<title>Node18&#45;&gt;Node17</title>
<path fill="none" stroke="midnightblue" d="M301.64,-112.32C313.85,-103.98 332.53,-91.21 346.95,-81.35"/>
<polygon fill="midnightblue" stroke="midnightblue" points="349.01,-84.19 355.29,-75.65 345.06,-78.41 349.01,-84.19"/>
</g>
<!-- Node19 -->
<g id="node19" class="node">
<title>Node19</title>
<g id="a_node19"><a xlink:title=" ">
<polygon fill="none" stroke="#bfbfbf" points="245.45,-56.5 245.45,-75.5 304.45,-75.5 304.45,-56.5 245.45,-56.5"/>
<text text-anchor="middle" x="274.95" y="-63.5" font-family="Helvetica,sans-Serif" font-size="10.00">complex</text>
</a>
</g>
</g>
<!-- Node18&#45;&gt;Node19 -->
<g id="edge20" class="edge">
<title>Node18&#45;&gt;Node19</title>
<path fill="none" stroke="midnightblue" d="M286.64,-112.08C284.78,-104.93 282.11,-94.64 279.79,-85.69"/>
<polygon fill="midnightblue" stroke="midnightblue" points="283.12,-84.55 277.22,-75.75 276.34,-86.31 283.12,-84.55"/>
</g>
<!-- Node23 -->
<g id="node23" class="node">
<title>Node23</title>
<g id="a_node23"><a xlink:href="CTF_8hpp.html" target="_top" xlink:title=" ">
<polygon fill="none" stroke="black" points="53.95,-56.5 53.95,-75.5 127.95,-75.5 127.95,-56.5 53.95,-56.5"/>
<text text-anchor="middle" x="90.95" y="-63.5" font-family="Helvetica,sans-Serif" font-size="10.00">util/CTF.hpp</text>
</a>
</g>
</g>
<!-- Node22&#45;&gt;Node23 -->
<g id="edge25" class="edge">
<title>Node22&#45;&gt;Node23</title>
<path fill="none" stroke="midnightblue" d="M63.4,-112.08C67.96,-104.61 74.62,-93.72 80.24,-84.52"/>
<polygon fill="midnightblue" stroke="midnightblue" points="83.37,-86.11 85.6,-75.75 77.4,-82.46 83.37,-86.11"/>
</g>
<!-- Node24 -->
<g id="node24" class="node">
<title>Node24</title>
<g id="a_node24"><a xlink:title=" ">
<polygon fill="none" stroke="#bfbfbf" points="65.95,-0.5 65.95,-19.5 115.95,-19.5 115.95,-0.5 65.95,-0.5"/>
<text text-anchor="middle" x="90.95" y="-7.5" font-family="Helvetica,sans-Serif" font-size="10.00">ctf.hpp</text>
</a>
</g>
</g>
<!-- Node23&#45;&gt;Node24 -->
<g id="edge26" class="edge">
<title>Node23&#45;&gt;Node24</title>
<path fill="none" stroke="midnightblue" d="M90.95,-56.08C90.95,-49.01 90.95,-38.86 90.95,-29.99"/>
<polygon fill="midnightblue" stroke="midnightblue" points="94.45,-29.75 90.95,-19.75 87.45,-29.75 94.45,-29.75"/>
</g>
<!-- Node25&#45;&gt;Node11 -->
<g id="edge29" class="edge">
<title>Node25&#45;&gt;Node11</title>
<path fill="none" stroke="midnightblue" d="M480.65,-112.18C468.22,-99.29 449.05,-74.8 460.95,-56 473.44,-36.25 497.21,-25 517.84,-18.69"/>
<polygon fill="midnightblue" stroke="midnightblue" points="518.95,-22.01 527.65,-15.97 517.08,-15.27 518.95,-22.01"/>
</g>
<!-- Node25&#45;&gt;Node13 -->
<g id="edge28" class="edge">
<title>Node25&#45;&gt;Node13</title>
<path fill="none" stroke="midnightblue" d="M490.28,-112.08C490.54,-105.01 490.92,-94.86 491.25,-85.99"/>
<polygon fill="midnightblue" stroke="midnightblue" points="494.75,-85.87 491.62,-75.75 487.76,-85.61 494.75,-85.87"/>
</g>
<!-- Node25&#45;&gt;Node14 -->
<g id="edge30" class="edge">
<title>Node25&#45;&gt;Node14</title>
<path fill="none" stroke="midnightblue" d="M501.52,-112.32C512.37,-104.18 528.83,-91.84 541.83,-82.09"/>
<polygon fill="midnightblue" stroke="midnightblue" points="544.27,-84.63 550.17,-75.83 540.07,-79.03 544.27,-84.63"/>
</g>
<!-- Node26&#45;&gt;Node6 -->
<g id="edge38" class="edge">
<title>Node26&#45;&gt;Node6</title>
<path fill="none" stroke="midnightblue" d="M683.29,-224.37C694.48,-216.36 709.89,-203.38 717.95,-188 735.22,-155.03 737.28,-110.5 736.86,-85.68"/>
<polygon fill="midnightblue" stroke="midnightblue" points="740.35,-85.38 736.53,-75.5 733.36,-85.61 740.35,-85.38"/>
</g>
<!-- Node26&#45;&gt;Node23 -->
<g id="edge39" class="edge">
<title>Node26&#45;&gt;Node23</title>
<path fill="none" stroke="midnightblue" d="M636.66,-231.81C575.28,-228.91 440.62,-219.23 331.95,-188 274.22,-171.41 262.63,-158.95 208.95,-132 175.7,-115.3 138.21,-94.26 114.58,-80.72"/>
<polygon fill="midnightblue" stroke="midnightblue" points="116.07,-77.53 105.66,-75.58 112.58,-83.6 116.07,-77.53"/>
</g>
<!-- Node27 -->
<g id="node27" class="node">
<title>Node27</title>
<g id="a_node27"><a xlink:href="Options_8hpp.html" target="_top" xlink:title=" ">
<polygon fill="none" stroke="black" points="634.45,-168.5 634.45,-187.5 709.45,-187.5 709.45,-168.5 634.45,-168.5"/>
<text text-anchor="middle" x="671.95" y="-175.5" font-family="Helvetica,sans-Serif" font-size="10.00">Options.hpp</text>
</a>
</g>
</g>
<!-- Node26&#45;&gt;Node27 -->
<g id="edge40" class="edge">
<title>Node26&#45;&gt;Node27</title>
<path fill="none" stroke="midnightblue" d="M670.28,-224.08C670.54,-217.01 670.92,-206.86 671.25,-197.99"/>
<polygon fill="midnightblue" stroke="midnightblue" points="674.75,-197.87 671.62,-187.75 667.76,-197.61 674.75,-197.87"/>
</g>
<!-- Node27&#45;&gt;Node13 -->
<g id="edge41" class="edge">
<title>Node27&#45;&gt;Node13</title>
<path fill="none" stroke="midnightblue" d="M661.55,-168.34C645.51,-155.22 613.5,-129.94 583.95,-112 563.85,-99.8 539.97,-88.2 521.57,-79.83"/>
<polygon fill="midnightblue" stroke="midnightblue" points="522.8,-76.54 512.24,-75.65 519.94,-82.93 522.8,-76.54"/>
</g>
<!-- Node28 -->
<g id="node28" class="node">
<title>Node28</title>
<g id="a_node28"><a xlink:href="CLI11_8hpp.html" target="_top" xlink:title=" ">
<polygon fill="none" stroke="black" points="1308.45,-112.5 1308.45,-131.5 1407.45,-131.5 1407.45,-112.5 1308.45,-112.5"/>
<text text-anchor="middle" x="1357.95" y="-119.5" font-family="Helvetica,sans-Serif" font-size="10.00">extern/CLI11.hpp</text>
</a>
</g>
</g>
<!-- Node27&#45;&gt;Node28 -->
<g id="edge42" class="edge">
<title>Node27&#45;&gt;Node28</title>
<path fill="none" stroke="midnightblue" d="M709.81,-174.02C823.12,-165.1 1160.23,-138.56 1298.14,-127.71"/>
<polygon fill="midnightblue" stroke="midnightblue" points="1298.41,-131.2 1308.11,-126.92 1297.87,-124.22 1298.41,-131.2"/>
</g>
<!-- Node28&#45;&gt;Node8 -->
<g id="edge56" class="edge">
<title>Node28&#45;&gt;Node8</title>
<path fill="none" stroke="midnightblue" d="M1407.64,-120.66C1481.55,-118.97 1614.99,-111.02 1644.95,-76 1650.73,-69.25 1650.91,-62.59 1644.95,-56 1617.63,-25.78 1336.07,-14.87 1235.45,-11.91"/>
<polygon fill="midnightblue" stroke="midnightblue" points="1235.29,-8.41 1225.19,-11.62 1235.09,-15.4 1235.29,-8.41"/>
</g>
<!-- Node28&#45;&gt;Node10 -->
<g id="edge52" class="edge">
<title>Node28&#45;&gt;Node10</title>
<path fill="none" stroke="midnightblue" d="M1407.66,-121.58C1488.65,-121.35 1643.54,-115.59 1677.95,-76 1683.78,-69.29 1683.53,-62.92 1677.95,-56 1657.07,-30.12 1562.72,-18.39 1508.54,-13.7"/>
<polygon fill="midnightblue" stroke="midnightblue" points="1508.53,-10.19 1498.27,-12.86 1507.95,-17.16 1508.53,-10.19"/>
</g>
<!-- Node28&#45;&gt;Node11 -->
<g id="edge54" class="edge">
<title>Node28&#45;&gt;Node11</title>
<path fill="none" stroke="midnightblue" d="M1308.45,-121.37C1230.91,-120.66 1076.89,-114.01 952.95,-76 934.7,-70.4 933.16,-61.72 914.95,-56 855.74,-37.39 674,-20.69 594.2,-14.05"/>
<polygon fill="midnightblue" stroke="midnightblue" points="594.34,-10.55 584.09,-13.22 593.76,-17.52 594.34,-10.55"/>
</g>
<!-- Node28&#45;&gt;Node12 -->
<g id="edge45" class="edge">
<title>Node28&#45;&gt;Node12</title>
<path fill="none" stroke="midnightblue" d="M1407.76,-121.97C1492.08,-122.42 1657.37,-117.8 1693.95,-76 1709.16,-58.61 1685.22,-38.01 1664.54,-24.74"/>
<polygon fill="midnightblue" stroke="midnightblue" points="1666.36,-21.75 1656,-19.53 1662.71,-27.73 1666.36,-21.75"/>
</g>
<!-- Node28&#45;&gt;Node13 -->
<g id="edge44" class="edge">
<title>Node28&#45;&gt;Node13</title>
<path fill="none" stroke="midnightblue" d="M1308.36,-119.82C1155.88,-115.94 694.45,-102.45 524.22,-75.76"/>
<polygon fill="midnightblue" stroke="midnightblue" points="524.59,-72.27 514.16,-74.11 523.46,-79.18 524.59,-72.27"/>
</g>
<!-- Node28&#45;&gt;Node14 -->
<g id="edge57" class="edge">
<title>Node28&#45;&gt;Node14</title>
<path fill="none" stroke="midnightblue" d="M1308.06,-120.91C1187.97,-120.09 873.29,-114.26 602.12,-75.92"/>
<polygon fill="midnightblue" stroke="midnightblue" points="602.48,-72.43 592.09,-74.48 601.49,-79.36 602.48,-72.43"/>
</g>
<!-- Node28&#45;&gt;Node16 -->
<g id="edge49" class="edge">
<title>Node28&#45;&gt;Node16</title>
<path fill="none" stroke="midnightblue" d="M1308.42,-118.98C1220.12,-114.83 1029.64,-103.51 859.62,-75.86"/>
<polygon fill="midnightblue" stroke="midnightblue" points="860.17,-72.4 849.74,-74.23 859.04,-79.31 860.17,-72.4"/>
</g>
<!-- Node28&#45;&gt;Node20 -->
<g id="edge48" class="edge">
<title>Node28&#45;&gt;Node20</title>
<path fill="none" stroke="midnightblue" d="M1308.31,-118.55C1226.7,-113.94 1059.35,-101.99 919.95,-76 918.67,-75.76 917.36,-75.5 916.05,-75.21"/>
<polygon fill="midnightblue" stroke="midnightblue" points="916.56,-71.74 906.02,-72.77 914.91,-78.54 916.56,-71.74"/>
</g>
<!-- Node28&#45;&gt;Node21 -->
<g id="edge62" class="edge">
<title>Node28&#45;&gt;Node21</title>
<path fill="none" stroke="midnightblue" d="M1308.27,-120.55C1122.3,-118.64 466.63,-109.71 237.51,-75.84"/>
<polygon fill="midnightblue" stroke="midnightblue" points="237.99,-72.37 227.58,-74.31 236.93,-79.29 237.99,-72.37"/>
</g>
<!-- Node29 -->
<g id="node29" class="node">
<title>Node29</title>
<g id="a_node29"><a xlink:title=" ">
<polygon fill="none" stroke="#bfbfbf" points="1767.95,-56.5 1767.95,-75.5 1825.95,-75.5 1825.95,-56.5 1767.95,-56.5"/>
<text text-anchor="middle" x="1796.95" y="-63.5" font-family="Helvetica,sans-Serif" font-size="10.00">memory</text>
</a>
</g>
</g>
<!-- Node28&#45;&gt;Node29 -->
<g id="edge43" class="edge">
<title>Node28&#45;&gt;Node29</title>
<path fill="none" stroke="midnightblue" d="M1407.54,-116.86C1482.73,-110.25 1629.96,-95.98 1753.95,-76 1755.22,-75.8 1756.51,-75.58 1757.81,-75.35"/>
<polygon fill="midnightblue" stroke="midnightblue" points="1758.69,-78.75 1767.87,-73.47 1757.4,-71.87 1758.69,-78.75"/>
</g>
<!-- Node30 -->
<g id="node30" class="node">
<title>Node30</title>
<g id="a_node30"><a xlink:title=" ">
<polygon fill="none" stroke="#bfbfbf" points="1844.45,-56.5 1844.45,-75.5 1909.45,-75.5 1909.45,-56.5 1844.45,-56.5"/>
<text text-anchor="middle" x="1876.95" y="-63.5" font-family="Helvetica,sans-Serif" font-size="10.00">functional</text>
</a>
</g>
</g>
<!-- Node28&#45;&gt;Node30 -->
<g id="edge46" class="edge">
<title>Node28&#45;&gt;Node30</title>
<path fill="none" stroke="midnightblue" d="M1407.63,-118.23C1492.82,-113.07 1672.41,-100.37 1833.88,-75.99"/>
<polygon fill="midnightblue" stroke="midnightblue" points="1834.64,-79.41 1844,-74.44 1833.59,-72.49 1834.64,-79.41"/>
</g>
<!-- Node31 -->
<g id="node31" class="node">
<title>Node31</title>
<g id="a_node31"><a xlink:title=" ">
<polygon fill="none" stroke="#bfbfbf" points="1927.95,-56.5 1927.95,-75.5 1983.95,-75.5 1983.95,-56.5 1927.95,-56.5"/>
<text text-anchor="middle" x="1955.95" y="-63.5" font-family="Helvetica,sans-Serif" font-size="10.00">numeric</text>
</a>
</g>
</g>
<!-- Node28&#45;&gt;Node31 -->
<g id="edge47" class="edge">
<title>Node28&#45;&gt;Node31</title>
<path fill="none" stroke="midnightblue" d="M1407.79,-119.65C1504.44,-116.46 1724.12,-106.42 1917.69,-75.95"/>
<polygon fill="midnightblue" stroke="midnightblue" points="1918.44,-79.38 1927.76,-74.34 1917.33,-72.46 1918.44,-79.38"/>
</g>
<!-- Node32 -->
<g id="node32" class="node">
<title>Node32</title>
<g id="a_node32"><a xlink:title=" ">
<polygon fill="none" stroke="#bfbfbf" points="2002.45,-56.5 2002.45,-75.5 2043.45,-75.5 2043.45,-56.5 2002.45,-56.5"/>
<text text-anchor="middle" x="2022.95" y="-63.5" font-family="Helvetica,sans-Serif" font-size="10.00">tuple</text>
</a>
</g>
</g>
<!-- Node28&#45;&gt;Node32 -->
<g id="edge50" class="edge">
<title>Node28&#45;&gt;Node32</title>
<path fill="none" stroke="midnightblue" d="M1407.82,-121.19C1513.97,-120.78 1770.05,-115.57 1992.54,-75.61"/>
<polygon fill="midnightblue" stroke="midnightblue" points="1993.23,-79.04 2002.44,-73.8 1991.97,-72.15 1993.23,-79.04"/>
</g>
<!-- Node33 -->
<g id="node33" class="node">
<title>Node33</title>
<g id="a_node33"><a xlink:title=" ">
<polygon fill="none" stroke="#bfbfbf" points="2061.45,-56.5 2061.45,-75.5 2106.45,-75.5 2106.45,-56.5 2061.45,-56.5"/>
<text text-anchor="middle" x="2083.95" y="-63.5" font-family="Helvetica,sans-Serif" font-size="10.00">utility</text>
</a>
</g>
</g>
<!-- Node28&#45;&gt;Node33 -->
<g id="edge51" class="edge">
<title>Node28&#45;&gt;Node33</title>
<path fill="none" stroke="midnightblue" d="M1407.68,-121.48C1520.8,-121.77 1805.93,-118.03 2051.22,-75.94"/>
<polygon fill="midnightblue" stroke="midnightblue" points="2052.14,-79.33 2061.4,-74.16 2050.94,-72.43 2052.14,-79.33"/>
</g>
<!-- Node34 -->
<g id="node34" class="node">
<title>Node34</title>
<g id="a_node34"><a xlink:title=" ">
<polygon fill="none" stroke="#bfbfbf" points="2124.95,-56.5 2124.95,-75.5 2170.95,-75.5 2170.95,-56.5 2124.95,-56.5"/>
<text text-anchor="middle" x="2147.95" y="-63.5" font-family="Helvetica,sans-Serif" font-size="10.00">locale</text>
</a>
</g>
</g>
<!-- Node28&#45;&gt;Node34 -->
<g id="edge53" class="edge">
<title>Node28&#45;&gt;Node34</title>
<path fill="none" stroke="midnightblue" d="M1407.58,-121.72C1527.77,-122.68 1843.88,-120.52 2114.64,-75.85"/>
<polygon fill="midnightblue" stroke="midnightblue" points="2115.38,-79.28 2124.66,-74.17 2114.22,-72.37 2115.38,-79.28"/>
</g>
<!-- Node35 -->
<g id="node35" class="node">
<title>Node35</title>
<g id="a_node35"><a xlink:title=" ">
<polygon fill="none" stroke="#bfbfbf" points="961.95,-56.5 961.95,-75.5 1025.95,-75.5 1025.95,-56.5 961.95,-56.5"/>
<text text-anchor="middle" x="993.95" y="-63.5" font-family="Helvetica,sans-Serif" font-size="10.00">algorithm</text>
</a>
</g>
</g>
<!-- Node28&#45;&gt;Node35 -->
<g id="edge55" class="edge">
<title>Node28&#45;&gt;Node35</title>
<path fill="none" stroke="midnightblue" d="M1308.23,-115.29C1246.63,-107.95 1138.26,-94.14 1036.01,-76.07"/>
<polygon fill="midnightblue" stroke="midnightblue" points="1036.59,-72.62 1026.13,-74.31 1035.36,-79.51 1036.59,-72.62"/>
</g>
<!-- Node36 -->
<g id="node36" class="node">
<title>Node36</title>
<g id="a_node36"><a xlink:title=" ">
<polygon fill="none" stroke="#bfbfbf" points="1043.95,-56.5 1043.95,-75.5 1075.95,-75.5 1075.95,-56.5 1043.95,-56.5"/>
<text text-anchor="middle" x="1059.95" y="-63.5" font-family="Helvetica,sans-Serif" font-size="10.00">set</text>
</a>
</g>
</g>
<!-- Node28&#45;&gt;Node36 -->
<g id="edge58" class="edge">
<title>Node28&#45;&gt;Node36</title>
<path fill="none" stroke="midnightblue" d="M1308.29,-115.35C1253.36,-108.51 1162.5,-95.43 1085.95,-76 1085.85,-75.97 1085.75,-75.95 1085.64,-75.92"/>
<polygon fill="midnightblue" stroke="midnightblue" points="1086.63,-72.56 1076.05,-73.05 1084.62,-79.27 1086.63,-72.56"/>
</g>
<!-- Node37 -->
<g id="node37" class="node">
<title>Node37</title>
<g id="a_node37"><a xlink:title=" ">
<polygon fill="none" stroke="#bfbfbf" points="1094.45,-56.5 1094.45,-75.5 1163.45,-75.5 1163.45,-56.5 1094.45,-56.5"/>
<text text-anchor="middle" x="1128.95" y="-63.5" font-family="Helvetica,sans-Serif" font-size="10.00">type_traits</text>
</a>
</g>
</g>
<!-- Node28&#45;&gt;Node37 -->
<g id="edge59" class="edge">
<title>Node28&#45;&gt;Node37</title>
<path fill="none" stroke="midnightblue" d="M1321.66,-112.44C1281.5,-102.97 1216.74,-87.7 1173.52,-77.51"/>
<polygon fill="midnightblue" stroke="midnightblue" points="1174.1,-74.05 1163.57,-75.16 1172.5,-80.86 1174.1,-74.05"/>
</g>
<!-- Node38 -->
<g id="node38" class="node">
<title>Node38</title>
<g id="a_node38"><a xlink:title=" ">
<polygon fill="none" stroke="#bfbfbf" points="1181.45,-56.5 1181.45,-75.5 1234.45,-75.5 1234.45,-56.5 1181.45,-56.5"/>
<text text-anchor="middle" x="1207.95" y="-63.5" font-family="Helvetica,sans-Serif" font-size="10.00">iterator</text>
</a>
</g>
</g>
<!-- Node28&#45;&gt;Node38 -->
<g id="edge60" class="edge">
<title>Node28&#45;&gt;Node38</title>
<path fill="none" stroke="midnightblue" d="M1334.18,-112.44C1309.06,-103.4 1269.24,-89.06 1241.05,-78.92"/>
<polygon fill="midnightblue" stroke="midnightblue" points="1242.2,-75.61 1231.61,-75.52 1239.83,-82.2 1242.2,-75.61"/>
</g>
<!-- Node39 -->
<g id="node39" class="node">
<title>Node39</title>
<g id="a_node39"><a xlink:title=" ">
<polygon fill="none" stroke="#bfbfbf" points="1252.45,-56.5 1252.45,-75.5 1317.45,-75.5 1317.45,-56.5 1252.45,-56.5"/>
<text text-anchor="middle" x="1284.95" y="-63.5" font-family="Helvetica,sans-Serif" font-size="10.00">stdexcept</text>
</a>
</g>
</g>
<!-- Node28&#45;&gt;Node39 -->
<g id="edge61" class="edge">
<title>Node28&#45;&gt;Node39</title>
<path fill="none" stroke="midnightblue" d="M1346.22,-112.32C1335.11,-104.11 1318.21,-91.6 1304.97,-81.81"/>
<polygon fill="midnightblue" stroke="midnightblue" points="1307.01,-78.97 1296.89,-75.83 1302.85,-84.59 1307.01,-78.97"/>
</g>
<!-- Node40 -->
<g id="node40" class="node">
<title>Node40</title>
<g id="a_node40"><a xlink:title=" ">
<polygon fill="none" stroke="#bfbfbf" points="1335.95,-56.5 1335.95,-75.5 1379.95,-75.5 1379.95,-56.5 1335.95,-56.5"/>
<text text-anchor="middle" x="1357.95" y="-63.5" font-family="Helvetica,sans-Serif" font-size="10.00">limits</text>
</a>
</g>
</g>
<!-- Node28&#45;&gt;Node40 -->
<g id="edge63" class="edge">
<title>Node28&#45;&gt;Node40</title>
<path fill="none" stroke="midnightblue" d="M1357.95,-112.08C1357.95,-105.01 1357.95,-94.86 1357.95,-85.99"/>
<polygon fill="midnightblue" stroke="midnightblue" points="1361.45,-85.75 1357.95,-75.75 1354.45,-85.75 1361.45,-85.75"/>
</g>
<!-- Node41 -->
<g id="node41" class="node">
<title>Node41</title>
<g id="a_node41"><a xlink:title=" ">
<polygon fill="none" stroke="#bfbfbf" points="1398.45,-56.5 1398.45,-75.5 1463.45,-75.5 1463.45,-56.5 1398.45,-56.5"/>
<text text-anchor="middle" x="1430.95" y="-63.5" font-family="Helvetica,sans-Serif" font-size="10.00">exception</text>
</a>
</g>
</g>
<!-- Node28&#45;&gt;Node41 -->
<g id="edge64" class="edge">
<title>Node28&#45;&gt;Node41</title>
<path fill="none" stroke="midnightblue" d="M1369.68,-112.32C1380.79,-104.11 1397.69,-91.6 1410.93,-81.81"/>
<polygon fill="midnightblue" stroke="midnightblue" points="1413.05,-84.59 1419.01,-75.83 1408.89,-78.97 1413.05,-84.59"/>
</g>
<!-- Node42 -->
<g id="node42" class="node">
<title>Node42</title>
<g id="a_node42"><a xlink:title=" ">
<polygon fill="none" stroke="#bfbfbf" points="1481.95,-56.5 1481.95,-75.5 1545.95,-75.5 1545.95,-56.5 1481.95,-56.5"/>
<text text-anchor="middle" x="1513.95" y="-63.5" font-family="Helvetica,sans-Serif" font-size="10.00">sys/stat.h</text>
</a>
</g>
</g>
<!-- Node28&#45;&gt;Node42 -->
<g id="edge65" class="edge">
<title>Node28&#45;&gt;Node42</title>
<path fill="none" stroke="midnightblue" d="M1382.67,-112.44C1408.8,-103.4 1450.21,-89.06 1479.53,-78.92"/>
<polygon fill="midnightblue" stroke="midnightblue" points="1481.04,-82.1 1489.35,-75.52 1478.75,-75.48 1481.04,-82.1"/>
</g>
<!-- Node43 -->
<g id="node43" class="node">
<title>Node43</title>
<g id="a_node43"><a xlink:title=" ">
<polygon fill="none" stroke="#bfbfbf" points="1563.95,-56.5 1563.95,-75.5 1635.95,-75.5 1635.95,-56.5 1563.95,-56.5"/>
<text text-anchor="middle" x="1599.95" y="-63.5" font-family="Helvetica,sans-Serif" font-size="10.00">sys/types.h</text>
</a>
</g>
</g>
<!-- Node28&#45;&gt;Node43 -->
<g id="edge66" class="edge">
<title>Node28&#45;&gt;Node43</title>
<path fill="none" stroke="midnightblue" d="M1396.29,-112.44C1439.04,-102.9 1508.15,-87.48 1553.82,-77.29"/>
<polygon fill="midnightblue" stroke="midnightblue" points="1554.76,-80.67 1563.76,-75.08 1553.24,-73.84 1554.76,-80.67"/>
</g>
</g>
</svg>
