<?xml version="1.0" encoding="UTF-8" standalone="no"?>
<!DOCTYPE svg PUBLIC "-//W3C//DTD SVG 1.1//EN"
 "http://www.w3.org/Graphics/SVG/1.1/DTD/svg11.dtd">
<!-- Generated by graphviz version 8.1.0 (0)
 -->
<!-- Title: Vector.hpp Pages: 1 -->
<svg width="697pt" height="256pt"
 viewBox="0.00 0.00 696.62 255.75" xmlns="http://www.w3.org/2000/svg" xmlns:xlink="http://www.w3.org/1999/xlink">
<g id="graph0" class="graph" transform="scale(1 1) rotate(0) translate(4 251.75)">
<title>Vector.hpp</title>
<!-- Node1 -->
<g id="Node000001" class="node">
<title>Node1</title>
<g id="a_Node000001"><a xlink:title=" ">
<polygon fill="#999999" stroke="#666666" points="418.62,-247.75 351.62,-247.75 351.62,-227 418.62,-227 418.62,-247.75"/>
<text text-anchor="middle" x="385.12" y="-234.25" font-family="Helvetica,sans-Serif" font-size="10.00">Vector.hpp</text>
</a>
</g>
</g>
<!-- Node2 -->
<g id="Node000002" class="node">
<title>Node2</title>
<g id="a_Node000002"><a xlink:href="MathFunctions_8hpp.html" target="_top" xlink:title=" ">
<polygon fill="white" stroke="#666666" points="405.5,-191 268.75,-191 268.75,-170.25 405.5,-170.25 405.5,-191"/>
<text text-anchor="middle" x="337.12" y="-177.5" font-family="Helvetica,sans-Serif" font-size="10.00">math/MathFunctions.hpp</text>
</a>
</g>
</g>
<!-- Node1&#45;&gt;Node2 -->
<g id="edge1_Node000001_Node000002" class="edge">
<title>Node1&#45;&gt;Node2</title>
<g id="a_edge1_Node000001_Node000002"><a xlink:title=" ">
<path fill="none" stroke="#63b8ff" d="M376.54,-226.59C369.92,-219.03 360.59,-208.39 352.66,-199.35"/>
<polygon fill="#63b8ff" stroke="#63b8ff" points="354.86,-197.54 345.63,-192.33 349.59,-202.16 354.86,-197.54"/>
</a>
</g>
</g>
<!-- Node18 -->
<g id="Node000018" class="node">
<title>Node18</title>
<g id="a_Node000018"><a xlink:title=" ">
<polygon fill="#e0e0e0" stroke="#999999" points="597.88,-77.5 538.38,-77.5 538.38,-56.75 597.88,-56.75 597.88,-77.5"/>
<text text-anchor="middle" x="568.12" y="-64" font-family="Helvetica,sans-Serif" font-size="10.00">iostream</text>
</a>
</g>
</g>
<!-- Node1&#45;&gt;Node18 -->
<g id="edge23_Node000001_Node000018" class="edge">
<title>Node1&#45;&gt;Node18</title>
<g id="a_edge23_Node000001_Node000018"><a xlink:title=" ">
<path fill="none" stroke="#63b8ff" d="M395.75,-226.6C425.82,-198.96 511.76,-119.94 549.72,-85.04"/>
<polygon fill="#63b8ff" stroke="#63b8ff" points="551.47,-88.27 556.47,-78.93 546.74,-83.12 551.47,-88.27"/>
</a>
</g>
</g>
<!-- Node3 -->
<g id="Node000003" class="node">
<title>Node3</title>
<g id="a_Node000003"><a xlink:href="Complex_8hpp.html" target="_top" xlink:title=" ">
<polygon fill="white" stroke="#666666" points="165.62,-134.25 56.62,-134.25 56.62,-113.5 165.62,-113.5 165.62,-134.25"/>
<text text-anchor="middle" x="111.12" y="-120.75" font-family="Helvetica,sans-Serif" font-size="10.00">math/Complex.hpp</text>
</a>
</g>
</g>
<!-- Node2&#45;&gt;Node3 -->
<g id="edge2_Node000002_Node000003" class="edge">
<title>Node2&#45;&gt;Node3</title>
<g id="a_edge2_Node000002_Node000003"><a xlink:title=" ">
<path fill="none" stroke="#63b8ff" d="M296.46,-169.77C258.9,-160.67 202.93,-147.12 162.34,-137.28"/>
<polygon fill="#63b8ff" stroke="#63b8ff" points="163.39,-133.69 152.84,-134.74 161.74,-140.5 163.39,-133.69"/>
</a>
</g>
</g>
<!-- Node7 -->
<g id="Node000007" class="node">
<title>Node7</title>
<g id="a_Node000007"><a xlink:title=" ">
<polygon fill="#e0e0e0" stroke="#999999" points="218.5,-20.75 171.75,-20.75 171.75,0 218.5,0 218.5,-20.75"/>
<text text-anchor="middle" x="195.12" y="-7.25" font-family="Helvetica,sans-Serif" font-size="10.00">cmath</text>
</a>
</g>
</g>
<!-- Node2&#45;&gt;Node7 -->
<g id="edge6_Node000002_Node000007" class="edge">
<title>Node2&#45;&gt;Node7</title>
<g id="a_edge6_Node000002_Node000007"><a xlink:title=" ">
<path fill="none" stroke="#63b8ff" d="M319.27,-169.98C292.03,-154.3 240.37,-120.65 213.12,-77.5 204.38,-63.65 199.84,-45.57 197.5,-31.82"/>
<polygon fill="#63b8ff" stroke="#63b8ff" points="200.85,-31.47 195.97,-22.06 193.91,-32.46 200.85,-31.47"/>
</a>
</g>
</g>
<!-- Node8 -->
<g id="Node000008" class="node">
<title>Node8</title>
<g id="a_Node000008"><a xlink:title=" ">
<polygon fill="#e0e0e0" stroke="#999999" points="266,-77.5 222.25,-77.5 222.25,-56.75 266,-56.75 266,-77.5"/>
<text text-anchor="middle" x="244.12" y="-64" font-family="Helvetica,sans-Serif" font-size="10.00">string</text>
</a>
</g>
</g>
<!-- Node2&#45;&gt;Node8 -->
<g id="edge7_Node000002_Node000008" class="edge">
<title>Node2&#45;&gt;Node8</title>
<g id="a_edge7_Node000002_Node000008"><a xlink:title=" ">
<path fill="none" stroke="#63b8ff" d="M329.2,-170.12C313.69,-151.53 279.14,-110.11 259.17,-86.16"/>
<polygon fill="#63b8ff" stroke="#63b8ff" points="261.39,-84.36 252.3,-78.93 256.02,-88.85 261.39,-84.36"/>
</a>
</g>
</g>
<!-- Node9 -->
<g id="Node000009" class="node">
<title>Node9</title>
<g id="a_Node000009"><a xlink:href="Tensor_8hpp.html" target="_top" xlink:title=" ">
<polygon fill="white" stroke="#666666" points="653.38,-134.25 566.88,-134.25 566.88,-113.5 653.38,-113.5 653.38,-134.25"/>
<text text-anchor="middle" x="610.12" y="-120.75" font-family="Helvetica,sans-Serif" font-size="10.00">util/Tensor.hpp</text>
</a>
</g>
</g>
<!-- Node2&#45;&gt;Node9 -->
<g id="edge8_Node000002_Node000009" class="edge">
<title>Node2&#45;&gt;Node9</title>
<g id="a_edge8_Node000002_Node000009"><a xlink:title=" ">
<path fill="none" stroke="#63b8ff" d="M386.25,-169.77C434.16,-160.17 506.85,-145.59 556.3,-135.67"/>
<polygon fill="#63b8ff" stroke="#63b8ff" points="556.68,-138.96 565.79,-133.56 555.3,-132.1 556.68,-138.96"/>
</a>
</g>
</g>
<!-- Node12 -->
<g id="Node000012" class="node">
<title>Node12</title>
<g id="a_Node000012"><a xlink:href="Log_8hpp.html" target="_top" xlink:title=" ">
<polygon fill="white" stroke="#666666" points="401.62,-134.25 328.62,-134.25 328.62,-113.5 401.62,-113.5 401.62,-134.25"/>
<text text-anchor="middle" x="365.12" y="-120.75" font-family="Helvetica,sans-Serif" font-size="10.00">util/Log.hpp</text>
</a>
</g>
</g>
<!-- Node2&#45;&gt;Node12 -->
<g id="edge11_Node000002_Node000012" class="edge">
<title>Node2&#45;&gt;Node12</title>
<g id="a_edge11_Node000002_Node000012"><a xlink:title=" ">
<path fill="none" stroke="#63b8ff" d="M342.13,-169.84C345.75,-162.75 350.77,-152.94 355.19,-144.29"/>
<polygon fill="#63b8ff" stroke="#63b8ff" points="358.73,-146.08 360.16,-135.58 352.49,-142.89 358.73,-146.08"/>
</a>
</g>
</g>
<!-- Node4 -->
<g id="Node000004" class="node">
<title>Node4</title>
<g id="a_Node000004"><a xlink:href="Float_8hpp.html" target="_top" xlink:title=" ">
<polygon fill="white" stroke="#666666" points="90.25,-77.5 0,-77.5 0,-56.75 90.25,-56.75 90.25,-77.5"/>
<text text-anchor="middle" x="45.12" y="-64" font-family="Helvetica,sans-Serif" font-size="10.00">math/Float.hpp</text>
</a>
</g>
</g>
<!-- Node3&#45;&gt;Node4 -->
<g id="edge3_Node000003_Node000004" class="edge">
<title>Node3&#45;&gt;Node4</title>
<g id="a_edge3_Node000003_Node000004"><a xlink:title=" ">
<path fill="none" stroke="#63b8ff" d="M99.33,-113.09C89.85,-105.22 76.32,-94 65.15,-84.74"/>
<polygon fill="#63b8ff" stroke="#63b8ff" points="67.75,-81.52 57.82,-77.83 63.28,-86.91 67.75,-81.52"/>
</a>
</g>
</g>
<!-- Node6 -->
<g id="Node000006" class="node">
<title>Node6</title>
<g id="a_Node000006"><a xlink:title=" ">
<polygon fill="#e0e0e0" stroke="#999999" points="166.12,-77.5 108.12,-77.5 108.12,-56.75 166.12,-56.75 166.12,-77.5"/>
<text text-anchor="middle" x="137.12" y="-64" font-family="Helvetica,sans-Serif" font-size="10.00">complex</text>
</a>
</g>
</g>
<!-- Node3&#45;&gt;Node6 -->
<g id="edge5_Node000003_Node000006" class="edge">
<title>Node3&#45;&gt;Node6</title>
<g id="a_edge5_Node000003_Node000006"><a xlink:title=" ">
<path fill="none" stroke="#63b8ff" d="M115.77,-113.09C119.14,-106 123.8,-96.19 127.9,-87.54"/>
<polygon fill="#63b8ff" stroke="#63b8ff" points="131.39,-89.36 132.52,-78.83 125.07,-86.36 131.39,-89.36"/>
</a>
</g>
</g>
<!-- Node5 -->
<g id="Node000005" class="node">
<title>Node5</title>
<g id="a_Node000005"><a xlink:title=" ">
<polygon fill="#e0e0e0" stroke="#999999" points="114.38,-20.75 57.88,-20.75 57.88,0 114.38,0 114.38,-20.75"/>
<text text-anchor="middle" x="86.12" y="-7.25" font-family="Helvetica,sans-Serif" font-size="10.00">ostream</text>
</a>
</g>
</g>
<!-- Node4&#45;&gt;Node5 -->
<g id="edge4_Node000004_Node000005" class="edge">
<title>Node4&#45;&gt;Node5</title>
<g id="a_edge4_Node000004_Node000005"><a xlink:title=" ">
<path fill="none" stroke="#63b8ff" d="M52.45,-56.34C57.99,-48.94 65.76,-38.57 72.43,-29.66"/>
<polygon fill="#63b8ff" stroke="#63b8ff" points="75.67,-32.18 78.86,-22.08 70.06,-27.98 75.67,-32.18"/>
</a>
</g>
</g>
<!-- Node10 -->
<g id="Node000010" class="node">
<title>Node10</title>
<g id="a_Node000010"><a xlink:href="CTF_8hpp.html" target="_top" xlink:title=" ">
<polygon fill="white" stroke="#666666" points="688.62,-77.5 615.62,-77.5 615.62,-56.75 688.62,-56.75 688.62,-77.5"/>
<text text-anchor="middle" x="652.12" y="-64" font-family="Helvetica,sans-Serif" font-size="10.00">util/CTF.hpp</text>
</a>
</g>
</g>
<!-- Node9&#45;&gt;Node10 -->
<g id="edge9_Node000009_Node000010" class="edge">
<title>Node9&#45;&gt;Node10</title>
<g id="a_edge9_Node000009_Node000010"><a xlink:title=" ">
<path fill="none" stroke="#63b8ff" d="M617.63,-113.09C623.31,-105.69 631.26,-95.32 638.1,-86.41"/>
<polygon fill="#63b8ff" stroke="#63b8ff" points="641.37,-88.89 644.68,-78.83 635.82,-84.63 641.37,-88.89"/>
</a>
</g>
</g>
<!-- Node11 -->
<g id="Node000011" class="node">
<title>Node11</title>
<g id="a_Node000011"><a xlink:title=" ">
<polygon fill="#e0e0e0" stroke="#999999" points="676.62,-20.75 627.62,-20.75 627.62,0 676.62,0 676.62,-20.75"/>
<text text-anchor="middle" x="652.12" y="-7.25" font-family="Helvetica,sans-Serif" font-size="10.00">ctf.hpp</text>
</a>
</g>
</g>
<!-- Node10&#45;&gt;Node11 -->
<g id="edge10_Node000010_Node000011" class="edge">
<title>Node10&#45;&gt;Node11</title>
<g id="a_edge10_Node000010_Node000011"><a xlink:title=" ">
<path fill="none" stroke="#63b8ff" d="M652.12,-56.34C652.12,-49.56 652.12,-40.3 652.12,-31.94"/>
<polygon fill="#63b8ff" stroke="#63b8ff" points="655.63,-32.08 652.12,-22.08 648.63,-32.08 655.63,-32.08"/>
</a>
</g>
</g>
<!-- Node12&#45;&gt;Node8 -->
<g id="edge19_Node000012_Node000008" class="edge">
<title>Node12&#45;&gt;Node8</title>
<g id="a_edge19_Node000012_Node000008"><a xlink:title=" ">
<path fill="none" stroke="#63b8ff" d="M343.49,-113.09C324.57,-104.52 296.84,-91.98 275.48,-82.31"/>
<polygon fill="#63b8ff" stroke="#63b8ff" points="277.12,-78.76 266.57,-77.83 274.24,-85.14 277.12,-78.76"/>
</a>
</g>
</g>
<!-- Node13 -->
<g id="Node000013" class="node">
<title>Node13</title>
<g id="a_Node000013"><a xlink:href="Time_8hpp.html" target="_top" xlink:title=" ">
<polygon fill="white" stroke="#666666" points="364.38,-77.5 283.88,-77.5 283.88,-56.75 364.38,-56.75 364.38,-77.5"/>
<text text-anchor="middle" x="324.12" y="-64" font-family="Helvetica,sans-Serif" font-size="10.00">util/Time.hpp</text>
</a>
</g>
</g>
<!-- Node12&#45;&gt;Node13 -->
<g id="edge12_Node000012_Node000013" class="edge">
<title>Node12&#45;&gt;Node13</title>
<g id="a_edge12_Node000012_Node000013"><a xlink:title=" ">
<path fill="none" stroke="#63b8ff" d="M357.8,-113.09C352.26,-105.69 344.49,-95.32 337.82,-86.41"/>
<polygon fill="#63b8ff" stroke="#63b8ff" points="340.19,-84.73 331.39,-78.83 334.58,-88.93 340.19,-84.73"/>
</a>
</g>
</g>
<!-- Node12&#45;&gt;Node18 -->
<g id="edge20_Node000012_Node000018" class="edge">
<title>Node12&#45;&gt;Node18</title>
<g id="a_edge20_Node000012_Node000018"><a xlink:title=" ">
<path fill="none" stroke="#63b8ff" d="M401.42,-113.09C436.92,-103.51 490.87,-88.96 527.72,-79.02"/>
<polygon fill="#63b8ff" stroke="#63b8ff" points="528.35,-82.21 537.09,-76.22 526.53,-75.45 528.35,-82.21"/>
</a>
</g>
</g>
<!-- Node19 -->
<g id="Node000019" class="node">
<title>Node19</title>
<g id="a_Node000019"><a xlink:title=" ">
<polygon fill="#e0e0e0" stroke="#999999" points="448.25,-77.5 382,-77.5 382,-56.75 448.25,-56.75 448.25,-77.5"/>
<text text-anchor="middle" x="415.12" y="-64" font-family="Helvetica,sans-Serif" font-size="10.00">streambuf</text>
</a>
</g>
</g>
<!-- Node12&#45;&gt;Node19 -->
<g id="edge21_Node000012_Node000019" class="edge">
<title>Node12&#45;&gt;Node19</title>
<g id="a_edge21_Node000012_Node000019"><a xlink:title=" ">
<path fill="none" stroke="#63b8ff" d="M374.06,-113.09C380.96,-105.53 390.69,-94.89 398.94,-85.85"/>
<polygon fill="#63b8ff" stroke="#63b8ff" points="401.1,-88.57 405.26,-78.83 395.94,-83.85 401.1,-88.57"/>
</a>
</g>
</g>
<!-- Node20 -->
<g id="Node000020" class="node">
<title>Node20</title>
<g id="a_Node000020"><a xlink:title=" ">
<polygon fill="#e0e0e0" stroke="#999999" points="520.25,-77.5 466,-77.5 466,-56.75 520.25,-56.75 520.25,-77.5"/>
<text text-anchor="middle" x="493.12" y="-64" font-family="Helvetica,sans-Serif" font-size="10.00">fstream</text>
</a>
</g>
</g>
<!-- Node12&#45;&gt;Node20 -->
<g id="edge22_Node000012_Node000020" class="edge">
<title>Node12&#45;&gt;Node20</title>
<g id="a_edge22_Node000012_Node000020"><a xlink:title=" ">
<path fill="none" stroke="#63b8ff" d="M388.01,-113.09C408.21,-104.44 437.9,-91.75 460.57,-82.05"/>
<polygon fill="#63b8ff" stroke="#63b8ff" points="461.62,-84.98 469.44,-77.83 458.87,-78.54 461.62,-84.98"/>
</a>
</g>
</g>
<!-- Node13&#45;&gt;Node5 -->
<g id="edge15_Node000013_Node000005" class="edge">
<title>Node13&#45;&gt;Node5</title>
<g id="a_edge15_Node000013_Node000005"><a xlink:title=" ">
<path fill="none" stroke="#63b8ff" d="M283.48,-56.78C239.18,-46.58 168.78,-30.39 125.13,-20.35"/>
<polygon fill="#63b8ff" stroke="#63b8ff" points="126.17,-16.77 115.64,-17.94 124.6,-23.59 126.17,-16.77"/>
</a>
</g>
</g>
<!-- Node13&#45;&gt;Node7 -->
<g id="edge18_Node000013_Node000007" class="edge">
<title>Node13&#45;&gt;Node7</title>
<g id="a_edge18_Node000013_Node000007"><a xlink:title=" ">
<path fill="none" stroke="#63b8ff" d="M301.06,-56.34C280.7,-47.69 250.78,-35 227.93,-25.3"/>
<polygon fill="#63b8ff" stroke="#63b8ff" points="229.56,-21.76 218.99,-21.08 226.83,-28.21 229.56,-21.76"/>
</a>
</g>
</g>
<!-- Node14 -->
<g id="Node000014" class="node">
<title>Node14</title>
<g id="a_Node000014"><a xlink:title=" ">
<polygon fill="#e0e0e0" stroke="#999999" points="281,-20.75 237.25,-20.75 237.25,0 281,0 281,-20.75"/>
<text text-anchor="middle" x="259.12" y="-7.25" font-family="Helvetica,sans-Serif" font-size="10.00">ctime</text>
</a>
</g>
</g>
<!-- Node13&#45;&gt;Node14 -->
<g id="edge13_Node000013_Node000014" class="edge">
<title>Node13&#45;&gt;Node14</title>
<g id="a_edge13_Node000013_Node000014"><a xlink:title=" ">
<path fill="none" stroke="#63b8ff" d="M312.5,-56.34C303.17,-48.47 289.85,-37.25 278.85,-27.99"/>
<polygon fill="#63b8ff" stroke="#63b8ff" points="281.55,-24.84 271.65,-21.08 277.04,-30.2 281.55,-24.84"/>
</a>
</g>
</g>
<!-- Node15 -->
<g id="Node000015" class="node">
<title>Node15</title>
<g id="a_Node000015"><a xlink:title=" ">
<polygon fill="#e0e0e0" stroke="#999999" points="347.62,-20.75 298.62,-20.75 298.62,0 347.62,0 347.62,-20.75"/>
<text text-anchor="middle" x="323.12" y="-7.25" font-family="Helvetica,sans-Serif" font-size="10.00">cstdint</text>
</a>
</g>
</g>
<!-- Node13&#45;&gt;Node15 -->
<g id="edge14_Node000013_Node000015" class="edge">
<title>Node13&#45;&gt;Node15</title>
<g id="a_edge14_Node000013_Node000015"><a xlink:title=" ">
<path fill="none" stroke="#63b8ff" d="M323.95,-56.34C323.82,-49.56 323.65,-40.3 323.5,-31.94"/>
<polygon fill="#63b8ff" stroke="#63b8ff" points="326.98,-32.01 323.3,-22.08 319.99,-32.14 326.98,-32.01"/>
</a>
</g>
</g>
<!-- Node16 -->
<g id="Node000016" class="node">
<title>Node16</title>
<g id="a_Node000016"><a xlink:title=" ">
<polygon fill="#e0e0e0" stroke="#999999" points="421,-20.75 365.25,-20.75 365.25,0 421,0 421,-20.75"/>
<text text-anchor="middle" x="393.12" y="-7.25" font-family="Helvetica,sans-Serif" font-size="10.00">iomanip</text>
</a>
</g>
</g>
<!-- Node13&#45;&gt;Node16 -->
<g id="edge16_Node000013_Node000016" class="edge">
<title>Node13&#45;&gt;Node16</title>
<g id="a_edge16_Node000013_Node000016"><a xlink:title=" ">
<path fill="none" stroke="#63b8ff" d="M336.46,-56.34C346.47,-48.4 360.79,-37.03 372.53,-27.71"/>
<polygon fill="#63b8ff" stroke="#63b8ff" points="374.24,-30.04 379.9,-21.08 369.89,-24.55 374.24,-30.04"/>
</a>
</g>
</g>
<!-- Node17 -->
<g id="Node000017" class="node">
<title>Node17</title>
<g id="a_Node000017"><a xlink:title=" ">
<polygon fill="#e0e0e0" stroke="#999999" points="495,-20.75 439.25,-20.75 439.25,0 495,0 495,-20.75"/>
<text text-anchor="middle" x="467.12" y="-7.25" font-family="Helvetica,sans-Serif" font-size="10.00">sstream</text>
</a>
</g>
</g>
<!-- Node13&#45;&gt;Node17 -->
<g id="edge17_Node000013_Node000017" class="edge">
<title>Node13&#45;&gt;Node17</title>
<g id="a_edge17_Node000013_Node000017"><a xlink:title=" ">
<path fill="none" stroke="#63b8ff" d="M349.69,-56.34C372.57,-47.58 406.32,-34.65 431.78,-24.91"/>
<polygon fill="#63b8ff" stroke="#63b8ff" points="432.69,-27.92 440.78,-21.08 430.19,-21.39 432.69,-27.92"/>
</a>
</g>
</g>
</g>
</svg>
