<?xml version="1.0" encoding="UTF-8" standalone="no"?>
<!DOCTYPE svg PUBLIC "-//W3C//DTD SVG 1.1//EN"
 "http://www.w3.org/Graphics/SVG/1.1/DTD/svg11.dtd">
<!-- Generated by graphviz version 5.0.1 (0)
 -->
<!-- Title: Vector.hpp Pages: 1 -->
<svg width="793pt" height="140pt"
 viewBox="0.00 0.00 792.76 140.00" xmlns="http://www.w3.org/2000/svg" xmlns:xlink="http://www.w3.org/1999/xlink">
<g id="graph0" class="graph" transform="scale(1 1) rotate(0) translate(4 136)">
<title>Vector.hpp</title>
<!-- Node1 -->
<g id="node1" class="node">
<title>Node1</title>
<g id="a_node1"><a xlink:title=" ">
<polygon fill="#bfbfbf" stroke="black" points="202.26,-112.5 202.26,-131.5 270.26,-131.5 270.26,-112.5 202.26,-112.5"/>
<text text-anchor="middle" x="236.26" y="-119.5" font-family="Helvetica,sans-Serif" font-size="10.00">Vector.hpp</text>
</a>
</g>
</g>
<!-- Node2 -->
<g id="node2" class="node">
<title>Node2</title>
<g id="a_node2"><a xlink:href="BasisSetExtrapolation_8cxx.html" target="_top" xlink:title=" ">
<polygon fill="none" stroke="black" points="15.26,-0.5 15.26,-19.5 159.26,-19.5 159.26,-0.5 15.26,-0.5"/>
<text text-anchor="middle" x="87.26" y="-7.5" font-family="Helvetica,sans-Serif" font-size="10.00">BasisSetExtrapolation.cxx</text>
</a>
</g>
</g>
<!-- Node1&#45;&gt;Node2 -->
<g id="edge1" class="edge">
<title>Node1&#45;&gt;Node2</title>
<path fill="none" stroke="midnightblue" d="M192.11,-118.87C131.8,-114.94 28.47,-104.17 5.26,-76 -14.67,-51.82 29.49,-30.71 60.42,-19.52"/>
<polygon fill="midnightblue" stroke="midnightblue" points="191.92,-122.37 202.12,-119.49 192.35,-115.38 191.92,-122.37"/>
</g>
<!-- Node3 -->
<g id="node3" class="node">
<title>Node3</title>
<g id="a_node3"><a xlink:href="BasisSetExtrapolation_8hpp.html" target="_top" xlink:title=" ">
<polygon fill="none" stroke="black" points="14.76,-56.5 14.76,-75.5 159.76,-75.5 159.76,-56.5 14.76,-56.5"/>
<text text-anchor="middle" x="87.26" y="-63.5" font-family="Helvetica,sans-Serif" font-size="10.00">BasisSetExtrapolation.hpp</text>
</a>
</g>
</g>
<!-- Node1&#45;&gt;Node3 -->
<g id="edge2" class="edge">
<title>Node1&#45;&gt;Node3</title>
<path fill="none" stroke="midnightblue" d="M202.89,-108.91C174.88,-98.75 135.56,-84.51 110.76,-75.52"/>
<polygon fill="midnightblue" stroke="midnightblue" points="202.06,-112.33 212.65,-112.44 204.44,-105.75 202.06,-112.33"/>
</g>
<!-- Node4 -->
<g id="node4" class="node">
<title>Node4</title>
<g id="a_node4"><a xlink:href="CcsdDiagrammaticDecomposition_8hpp.html" target="_top" xlink:title=" ">
<polygon fill="none" stroke="black" points="548.26,-56.5 548.26,-75.5 752.26,-75.5 752.26,-56.5 548.26,-56.5"/>
<text text-anchor="middle" x="650.26" y="-63.5" font-family="Helvetica,sans-Serif" font-size="10.00">CcsdDiagrammaticDecomposition.hpp</text>
</a>
</g>
</g>
<!-- Node1&#45;&gt;Node4 -->
<g id="edge4" class="edge">
<title>Node1&#45;&gt;Node4</title>
<path fill="none" stroke="midnightblue" d="M280.74,-115.2C353.87,-105.66 499.86,-86.62 584.81,-75.54"/>
<polygon fill="midnightblue" stroke="midnightblue" points="279.95,-111.77 270.49,-116.54 280.86,-118.71 279.95,-111.77"/>
</g>
<!-- Node6 -->
<g id="node6" class="node">
<title>Node6</title>
<g id="a_node6"><a xlink:href="FiniteSizeCorrection_8cxx.html" target="_top" xlink:title=" ">
<polygon fill="none" stroke="black" points="197.26,-0.5 197.26,-19.5 331.26,-19.5 331.26,-0.5 197.26,-0.5"/>
<text text-anchor="middle" x="264.26" y="-7.5" font-family="Helvetica,sans-Serif" font-size="10.00">FiniteSizeCorrection.cxx</text>
</a>
</g>
</g>
<!-- Node1&#45;&gt;Node6 -->
<g id="edge6" class="edge">
<title>Node1&#45;&gt;Node6</title>
<path fill="none" stroke="midnightblue" d="M220.44,-104.31C209.93,-91.1 199.39,-72.24 207.26,-56 215.29,-39.43 232.7,-27.13 246.18,-19.61"/>
<polygon fill="midnightblue" stroke="midnightblue" points="217.97,-106.8 227.15,-112.09 223.27,-102.23 217.97,-106.8"/>
</g>
<!-- Node7 -->
<g id="node7" class="node">
<title>Node7</title>
<g id="a_node7"><a xlink:href="FiniteSizeCorrection_8hpp.html" target="_top" xlink:title=" ">
<polygon fill="none" stroke="black" points="216.76,-56.5 216.76,-75.5 351.76,-75.5 351.76,-56.5 216.76,-56.5"/>
<text text-anchor="middle" x="284.26" y="-63.5" font-family="Helvetica,sans-Serif" font-size="10.00">FiniteSizeCorrection.hpp</text>
</a>
</g>
</g>
<!-- Node1&#45;&gt;Node7 -->
<g id="edge7" class="edge">
<title>Node1&#45;&gt;Node7</title>
<path fill="none" stroke="midnightblue" d="M250.99,-104.43C259.4,-94.97 269.61,-83.48 276.48,-75.75"/>
<polygon fill="midnightblue" stroke="midnightblue" points="248.21,-102.28 244.19,-112.08 253.44,-106.93 248.21,-102.28"/>
</g>
<!-- Node8 -->
<g id="node8" class="node">
<title>Node8</title>
<g id="a_node8"><a xlink:href="MpiCommunicator_8hpp.html" target="_top" xlink:title=" ">
<polygon fill="none" stroke="black" points="369.76,-56.5 369.76,-75.5 496.76,-75.5 496.76,-56.5 369.76,-56.5"/>
<text text-anchor="middle" x="433.26" y="-63.5" font-family="Helvetica,sans-Serif" font-size="10.00">MpiCommunicator.hpp</text>
</a>
</g>
</g>
<!-- Node1&#45;&gt;Node8 -->
<g id="edge9" class="edge">
<title>Node1&#45;&gt;Node8</title>
<path fill="none" stroke="midnightblue" d="M277.49,-109.7C314.67,-99.51 368.53,-84.74 402.19,-75.52"/>
<polygon fill="midnightblue" stroke="midnightblue" points="276.19,-106.42 267.47,-112.44 278.04,-113.18 276.19,-106.42"/>
</g>
<!-- Node3&#45;&gt;Node2 -->
<g id="edge3" class="edge">
<title>Node3&#45;&gt;Node2</title>
<path fill="none" stroke="midnightblue" d="M87.26,-45.8C87.26,-36.91 87.26,-26.78 87.26,-19.75"/>
<polygon fill="midnightblue" stroke="midnightblue" points="83.76,-46.08 87.26,-56.08 90.76,-46.08 83.76,-46.08"/>
</g>
<!-- Node5 -->
<g id="node5" class="node">
<title>Node5</title>
<g id="a_node5"><a xlink:href="CcsdDiagrammaticDecomposition_8cxx.html" target="_top" xlink:title=" ">
<polygon fill="none" stroke="black" points="581.76,-0.5 581.76,-19.5 784.76,-19.5 784.76,-0.5 581.76,-0.5"/>
<text text-anchor="middle" x="683.26" y="-7.5" font-family="Helvetica,sans-Serif" font-size="10.00">CcsdDiagrammaticDecomposition.cxx</text>
</a>
</g>
</g>
<!-- Node4&#45;&gt;Node5 -->
<g id="edge5" class="edge">
<title>Node4&#45;&gt;Node5</title>
<path fill="none" stroke="midnightblue" d="M661.09,-47.27C666.73,-38.05 673.38,-27.17 677.91,-19.75"/>
<polygon fill="midnightblue" stroke="midnightblue" points="657.94,-45.73 655.71,-56.08 663.91,-49.38 657.94,-45.73"/>
</g>
<!-- Node7&#45;&gt;Node6 -->
<g id="edge8" class="edge">
<title>Node7&#45;&gt;Node6</title>
<path fill="none" stroke="midnightblue" d="M277.48,-46.69C274.11,-37.59 270.19,-27.01 267.5,-19.75"/>
<polygon fill="midnightblue" stroke="midnightblue" points="274.2,-47.92 280.96,-56.08 280.77,-45.49 274.2,-47.92"/>
</g>
<!-- Node8&#45;&gt;Node2 -->
<g id="edge10" class="edge">
<title>Node8&#45;&gt;Node2</title>
<path fill="none" stroke="midnightblue" d="M368.25,-54.85C302.87,-44.65 203.22,-29.1 141.83,-19.52"/>
<polygon fill="midnightblue" stroke="midnightblue" points="368.01,-58.36 378.43,-56.44 369.09,-51.44 368.01,-58.36"/>
</g>
<!-- Node8&#45;&gt;Node6 -->
<g id="edge12" class="edge">
<title>Node8&#45;&gt;Node6</title>
<path fill="none" stroke="midnightblue" d="M396.66,-53.3C364.81,-43.13 319.42,-28.62 290.91,-19.52"/>
<polygon fill="midnightblue" stroke="midnightblue" points="395.89,-56.73 406.48,-56.44 398.02,-50.07 395.89,-56.73"/>
</g>
<!-- Node9 -->
<g id="node9" class="node">
<title>Node9</title>
<g id="a_node9"><a xlink:href="CcsdPreconditioner_8cxx.html" target="_top" xlink:title=" ">
<polygon fill="none" stroke="black" points="433.26,-0.5 433.26,-19.5 563.26,-19.5 563.26,-0.5 433.26,-0.5"/>
<text text-anchor="middle" x="498.26" y="-7.5" font-family="Helvetica,sans-Serif" font-size="10.00">CcsdPreconditioner.cxx</text>
</a>
</g>
</g>
<!-- Node8&#45;&gt;Node9 -->
<g id="edge11" class="edge">
<title>Node8&#45;&gt;Node9</title>
<path fill="none" stroke="midnightblue" d="M451.53,-49.82C463.18,-40.15 477.86,-27.95 487.63,-19.83"/>
<polygon fill="midnightblue" stroke="midnightblue" points="449.16,-47.24 443.7,-56.32 453.63,-52.63 449.16,-47.24"/>
</g>
<!-- Node10 -->
<g id="node10" class="node">
<title>Node10</title>
<g id="a_node10"><a xlink:href="Sisi4s_8cxx.html" target="_top" xlink:title=" ">
<polygon fill="none" stroke="black" points="349.76,-0.5 349.76,-19.5 414.76,-19.5 414.76,-0.5 349.76,-0.5"/>
<text text-anchor="middle" x="382.26" y="-7.5" font-family="Helvetica,sans-Serif" font-size="10.00">Sisi4s.cxx</text>
</a>
</g>
</g>
<!-- Node8&#45;&gt;Node10 -->
<g id="edge13" class="edge">
<title>Node8&#45;&gt;Node10</title>
<path fill="none" stroke="midnightblue" d="M417.88,-48.72C408.89,-39.2 397.9,-27.56 390.52,-19.75"/>
<polygon fill="midnightblue" stroke="midnightblue" points="415.43,-51.22 424.84,-56.08 420.52,-46.41 415.43,-51.22"/>
</g>
</g>
</svg>
